<?xml version="1.0" encoding="UTF-8"?>
<svg width="34mm" height="33.669mm" version="1.1" viewBox="0 0 34 33.669" xmlns="http://www.w3.org/2000/svg" xmlns:cc="http://creativecommons.org/ns#" xmlns:dc="http://purl.org/dc/elements/1.1/" xmlns:rdf="http://www.w3.org/1999/02/22-rdf-syntax-ns#">
 <metadata>
  <rdf:RDF>
   <cc:Work rdf:about="">
    <dc:format>image/svg+xml</dc:format>
    <dc:type rdf:resource="http://purl.org/dc/dcmitype/StillImage"/>
    <dc:title/>
   </cc:Work>
  </rdf:RDF>
 </metadata>
 <g fill="none" stroke="#7b8694">
  <path d="m16.405 33.367v-31.625" stroke-width=".26458"/>
  <path d="m0.60392 17.272h31.625" stroke-width=".26458"/>
  <g stroke-linecap="round" stroke-width=".13229">
   <path d="m14.44 16.796v1.002"/>
   <path d="m12.463 16.796v1.002"/>
   <path d="m10.487 16.796v1.002"/>
   <path d="m8.5102 16.796v1.002"/>
   <path d="m6.5337 16.796v1.002"/>
   <path d="m4.5571 16.796v1.002"/>
   <path d="m2.5805 16.796v1.002"/>
   <path d="m30.253 16.796v1.002"/>
   <path d="m28.276 16.796v1.002"/>
   <path d="m26.299 16.796v1.002"/>
   <path d="m24.323 16.796v1.002"/>
   <path d="m22.346 16.796v1.002"/>
   <path d="m20.37 16.796v1.002"/>
   <path d="m18.393 16.796v1.002"/>
   <path d="m15.915 15.657h1.002"/>
   <path d="m15.915 13.68h1.002"/>
   <path d="m15.915 11.703h1.002"/>
   <path d="m15.915 9.7269h1.002"/>
   <path d="m15.915 7.7503h1.002"/>
   <path d="m15.915 5.7737h1.002"/>
   <path d="m15.915 3.7972h1.002"/>
   <path d="m15.915 19.522h1.002"/>
   <path d="m15.915 21.499h1.002"/>
   <path d="m15.915 23.476h1.002"/>
   <path d="m15.915 25.452h1.002"/>
   <path d="m15.915 27.429h1.002"/>
   <path d="m15.915 29.405h1.002"/>
   <path d="m15.915 31.382h1.002"/>
  </g>
 </g>
 <g transform="scale(.99996 1)" fill="#e8eaec" stroke="#cf2f25" stroke-linecap="round" stroke-width=".26458" aria-label="x">
  <path d="m32.763 16.499h0.22754l0.17462-0.29898c0.04233-0.07938 0.08467-0.1561 0.12965-0.23019h0.01058c0.04763 0.07408 0.09525 0.15346 0.14023 0.23019l0.18785 0.29898h0.23548l-0.41804-0.64823 0.38894-0.63764h-0.22754l-0.1561 0.2831c-0.03969 0.06879-0.07937 0.14288-0.11642 0.21431h-0.01058c-0.04498-0.07144-0.08731-0.14552-0.127-0.21431l-0.17198-0.2831h-0.23548l0.38894 0.61383z" fill="#e8eaec" stroke="none"/>
 </g>
 <g transform="scale(.99996 1)" fill="#e8eaec" stroke="#cf2f25" stroke-linecap="round" stroke-width=".26458" aria-label="y">
  <path d="m18.039 1.7727-0.04233 0.17198c0.04233 0.015875 0.0926 0.026458 0.15081 0.026458 0.25929 0 0.39158-0.19315 0.48154-0.44715l0.48418-1.3917h-0.21167l-0.23019 0.71173c-0.03439 0.11377-0.07144 0.24606-0.10848 0.36248h-0.01058c-0.03969-0.11906-0.084669-0.25135-0.12436-0.36248l-0.26194-0.71173h-0.2249l0.51594 1.2885-0.0291 0.09525c-0.05292 0.15875-0.14552 0.27517-0.29104 0.27517-0.03175 0-0.07144-0.010583-0.0979-0.018521z" fill="#e8eaec" stroke="none"/>
 </g>
 <g fill="#d2d6dc" stroke-width="247.7">
  <g transform="matrix(0 -.0021183 .0021546 0 15.809 1.9753)">
   <g fill="#d2d6dc" stroke-width="247.7">
    <path d="m486.41 221.41-364.07-208.5c-52.938-30.318-95.852-5.44-95.852 55.563v415.65c0 61.004 42.914 85.882 95.852 55.563l364.07-208.49c52.938-30.317 52.938-79.473 0-109.79z" fill="#d2d6dc" stroke-width="247.7"/>
   </g>
  </g>
  <g transform="matrix(0 .0021183 .0021546 0 15.809 32.555)">
   <g fill="#d2d6dc" stroke-width="247.7">
    <path d="m486.41 221.41-364.07-208.5c-52.938-30.318-95.852-5.44-95.852 55.563v415.65c0 61.004 42.914 85.882 95.852 55.563l364.07-208.49c52.938-30.317 52.938-79.473 0-109.79z" fill="#d2d6dc" stroke-width="247.7"/>
   </g>
  </g>
  <g transform="matrix(-.0021183 0 0 .0021546 1.1145 16.67)">
   <g fill="#d2d6dc" stroke-width="247.7">
    <path d="m486.41 221.41-364.07-208.5c-52.938-30.318-95.852-5.44-95.852 55.563v415.65c0 61.004 42.914 85.882 95.852 55.563l364.07-208.49c52.938-30.317 52.938-79.473 0-109.79z" fill="#d2d6dc" stroke-width="247.7"/>
   </g>
  </g>
  <g transform="matrix(.0021183 0 0 .0021546 31.694 16.67)">
   <g fill="#d2d6dc" stroke-width="247.7">
    <path d="m486.41 221.41-364.07-208.5c-52.938-30.318-95.852-5.44-95.852 55.563v415.65c0 61.004 42.914 85.882 95.852 55.563l364.07-208.49c52.938-30.317 52.938-79.473 0-109.79z" fill="#d2d6dc" stroke-width="247.7"/>
   </g>
  </g>
 </g>
</svg>
