<?xml version="1.0" encoding="UTF-8"?>
<svg width="61.764mm" height="36.971mm" version="1.1" viewBox="0 0 61.764 36.971" xmlns="http://www.w3.org/2000/svg" xmlns:cc="http://creativecommons.org/ns#" xmlns:dc="http://purl.org/dc/elements/1.1/" xmlns:rdf="http://www.w3.org/1999/02/22-rdf-syntax-ns#">
 <metadata>
  <rdf:RDF>
   <cc:Work rdf:about="">
    <dc:format>image/svg+xml</dc:format>
    <dc:type rdf:resource="http://purl.org/dc/dcmitype/StillImage"/>
    <dc:title/>
   </cc:Work>
  </rdf:RDF>
 </metadata>
 <g stroke-width=".26458">
  <path d="m36.83 0.14078v18.344" fill="#7b8694" stroke="#7b8694" stroke-dasharray="0.79375, 0.79375"/>
  <path d="m24.369 12.602-5.8831 5.8831h8.3255a8.3256 8.3256 0 0 0-2.4424-5.8831z" fill="none" stroke="#6f8ce9"/>
  <path d="m59.408 18.485h-40.922c6.1148-6.1148 11.752-11.752 17.867-17.867" fill="none" stroke="#7b8694"/>
 </g>
 <path d="m18.482 0-0.08985 0.00291 0.0071 0.28168 0.08271-0.00291h0.0068l0.7502 0.019315 0.0063-0.28223-0.75681-0.018521h-0.0034zm-0.94424 0.023813h-0.0074l-0.83619 0.063923 0.02143 0.28112 0.82902-0.062865h0.0071l-0.0064-0.28218zm2.5383 0.33179 0.27398 0.020902 0.56002 0.071093 0.03585-0.28004-0.56721-0.072178h-0.0074l-0.27396-0.020902zm-4.402-0.1433h-0.0074l-0.66201 0.11795 0.04961 0.27784 0.65484-0.11687h0.0074l0.16592-0.020902-0.03585-0.28004zm6.0656 0.36544 0.4178 0.074956 0.4046 0.09316 0.06337-0.27506-0.41119-0.094774h-0.0074l-0.41783-0.074983zm-7.8708 0.00344h-0.0068l-0.51649 0.14668 0.07718 0.27173 0.50932-0.14499 0.30208-0.069982-0.06339-0.27509zm9.5068 0.37097 0.51927 0.14716h0.0074l0.2767 0.093742 0.09041-0.26736-0.28332-0.095911h-0.0074l-0.52586-0.14938zm-11.243 0.16814h-0.0034l-0.0034 0.00291-0.39579 0.15597 0.10364 0.26241 0.39576-0.15602 0.39248-0.13227-0.09041-0.26736zm12.838 0.35552 0.59754 0.23537 0.0058 0.00291 0.17365 0.078846 0.11631-0.25741-0.17973-0.081545h-0.0068l-0.60363-0.23818zm-14.496 0.34563-0.0029 0.00291h-0.0034l-0.29546 0.15158 0.12901 0.25077 0.28882-0.14827 0.0053-0.00291 0.46296-0.20886-0.11573-0.25741zm16.036 0.32353 0.64934 0.3324 0.0034 0.00291 0.0029 0.00291 0.08924 0.051832 0.14113-0.24471-0.09591-0.055166-0.0034-0.00291-0.0029-0.00291-0.6554-0.33568zm-17.607 0.52972-0.00344 0.00291-0.00291 0.00291-0.21056 0.13504 0.15214 0.2376 0.20503-0.13176 0.00344-0.00291h0.00291l0.51155-0.29382-0.14055-0.24471zm19.078 0.27951 0.67908 0.43487 0.0045 0.00344 0.02143 0.01561 0.16372-0.22987-0.02709-0.01905-0.0029-0.00291-0.0034-0.00291-0.68405-0.43876zm-20.553 0.71599-0.00582 0.00582-0.13893 0.10912 0.1742 0.22212 0.1334-0.10525 0.54623-0.38862-0.1637-0.22982zm22.002 0.15489-0.05625 0.07112 0.0034 0.00291 0.0029 0.00291 0.65818 0.5176 0.17473-0.22214-0.66421-0.52144-0.0058-0.00582h-0.0029zm-23.372 0.97454-0.00582 0.00582-0.07829 0.074401 0.1946 0.2045 0.07329-0.070564 0.00397-0.00344 0.55287-0.47905-0.18465-0.21333zm24.615 0.16703 0.04852 0.04191 4e-3 0.00344 0.55674 0.53083 0.19458-0.20394-0.56168-0.53525-0.0058-0.00582-0.0535-0.046276zm-25.87 1.087-0.00582 0.00582-0.027093 0.030877 0.21331 0.18521 0.02249-0.026538 0.00291-0.00291 0.00291-0.00344 0.55123-0.57772-0.20397-0.19513zm27.062 0.0948 0.09094 0.094827 0.0034 0.00397 0.45969 0.53081 0.21333-0.18468-0.46411-0.53575-0.0058-0.00582-0.09538-0.099774zm-28.175 1.2524 0.22214 0.17418 0.52308-0.66529-0.22212-0.1747zm29.255 0.033629 0.12404 0.15708 4e-3 0.00529 0.36711 0.51596 0.22984-0.16372-0.37095-0.52147-0.0058-0.00582-0.1279-0.16261zm-29.788 0.71276-0.00582 0.00582-0.4228 0.65924 0.23757 0.15272 0.41894-0.65379 0.00397-0.00582 0.033073-0.045746-0.22985-0.16372zm30.745 0.66641 0.15105 0.23588 0.27892 0.48509 0.24471-0.14055-0.2822-0.49112-0.0029-0.00291-0.0029-0.00344-0.15105-0.23537zm-31.671 0.8577-0.00291 0.00291-0.00291 0.00344-0.32192 0.62836 0.25082 0.12848 0.31914-0.62235 0.00291-0.00344 0.00291-0.00291 0.066702-0.11578-0.24474-0.14057zm32.497 0.60357 0.16206 0.31586 0.0029 0.0056 0.19674 0.43601 0.25741-0.11634-0.20005-0.44204v-0.0034l-0.0029-0.0034-0.16481-0.32136zm-33.276 1.012-0.00291 0.0034v0.0029l-0.22712 0.57602 0.26239 0.10366 0.22434-0.56941 0.093689-0.2073-0.25741-0.11631zm33.964 0.51927 0.167 0.42386 0.12348 0.3638 0.26734-0.09041-0.12568-0.37042v-0.0068l-0.16703-0.42397zm-34.586 1.179v0.0068l-0.1411 0.49776 0.2712 0.07715 0.13946-0.49112 0.10528-0.312-0.26734-0.09038zm35.129 0.40902 0.15325 0.53853v0.0074l0.06117 0.26567 0.27506-0.06337-0.06281-0.27231v-0.0074l-0.15491-0.5452zm-35.585 1.3626v0.0068l-0.069453 0.38862 0.27781 0.04961 0.068368-0.38145 0.10141-0.4404-0.27506-0.06342zm35.98 0.26842 0.12237 0.68458v0.0079l0.0172 0.13671 0.28001-0.03588-0.01852-0.14327v-0.0074l-0.12346-0.69117zm-36.261 1.5665v0.0074l-0.018521 0.24477 0.28112 0.0209 0.017992-0.23699 0.075486-0.59698-0.28004-0.0353zm36.504 0.09425 0.06395 0.84447 0.28168-0.02143-0.0645-0.84442zm-36.6 1.7959v0.0074l0.00291 0.0595 0.28223-0.0071-0.00291-0.05236v-0.0074l0.019844-0.77941-0.28223-0.0071zm36.686-0.11242 0.0029 0.11242v0.0074l-0.02143 0.83897 0.2822 0.0071 0.02143-0.84611-0.1411-0.0034 0.1411-4e-3 -0.0034-0.11959zm-36.663 1.0258v0.04485l0.061172 0.80645 0.28168-0.0209-0.061172-0.80642v-0.03088zm36.572 0.94808-0.08324 0.6554 0.28001 0.0358 0.08324-0.65648v-0.0068l0.01429-0.18521-0.28168-0.0209zm-36.408 0.75076 0.025929 0.20283v0.0074l0.113 0.6322 0.27781-0.04956-0.11189-0.62566v-0.0079l-0.024342-0.19566zm36.133 1.0567-0.11464 0.49829 0.27506 0.06342 0.11464-0.49829v-0.0068l0.05898-0.33017-0.27781-0.04961zm-35.815 0.62016 0.076041 0.3307v0.0074l0.13891 0.48781 0.2712-0.07715-0.13671-0.48125v-0.0074l-0.074401-0.32409zm35.366 1.1244-0.12457 0.36878 0.26736 0.09043 0.12457-0.36875v-0.0068l0.1251-0.44043-0.2717-0.07662zm-34.895 0.51544 0.14441 0.4272v0.0068l0.14552 0.36825 0.26239-0.10366-0.14497-0.36822-0.14224-0.42056zm34.284 1.157-0.11795 0.2618 0.25686 0.11634 0.11851-0.26186 0.0029-0.0034v-0.0034l0.20505-0.52036-0.26236-0.10361zm-33.663 0.4327 0.2249 0.49609v0.0034l0.00291 0.0029 0.13782 0.269 0.25077-0.12901-0.13446-0.26239-0.00291-0.0058-0.22162-0.49004zm32.897 1.1587-0.0029 0.0034-0.0029 0.0029-0.09647 0.16753 0.24474 0.14057 0.09977-0.17365 0.0029-0.0029 0.0029-0.0034 0.2949-0.5755-0.25135-0.1284zm-32.131 0.366 0.312 0.54295 0.00291 0.0029 0.00291 0.0034 0.11851 0.18516 0.23757-0.15211-0.11851-0.18576-0.30869-0.53689zm31.22 1.135-0.0034 0.0045-0.06779 0.0948 0.22984 0.16375 0.07165-0.10033 0.0058-0.0058 0.39026-0.6091-0.23757-0.15266zm-30.317 0.31255 0.40569 0.57047 0.00582 0.0058 0.090937 0.1152 0.22217-0.17418-0.087101-0.11025-0.00397-0.0053-0.40129-0.56444zm29.265 1.0941-0.0303 0.03474 0.21328 0.18468 0.03474-0.03966 0.0058-0.0058 0.49056-0.62452-0.22214-0.1742zm-28.233 0.26458 0.50324 0.58102 0.00582 0.0058 0.054028 0.05678 0.2045-0.19513-0.049583-0.05128-0.00344-4e-3 -0.49884-0.576zm27.069 1.0176 0.20397 0.1946 0.58428-0.61296-0.20397-0.19463zm-25.916 0.24088 0.60471 0.57658 0.00582 0.0058 0.0082 0.0077 0.18465-0.21333-0.00344-0.0029-0.00503-0.0048-0.59973-0.57161zm25.278 0.36766-0.60304 0.52255 0.18465 0.21333 0.60306-0.5226 0.0058-0.0058 0.03527-0.0336-0.19458-0.20397zm-24.02 0.77499 0.016933 0.01482 0.00582 0.0058 0.6477 0.50932 0.17418-0.22214-0.64273-0.5049-0.00503-4e-3 -0.012171-0.01111zm22.673 0.33787-0.59478 0.4228 0.1637 0.22984 0.59423-0.4222 0.0058-0.0058 0.09208-0.07223-0.1742-0.22214zm-21.308 0.68739 0.075539 0.05405 0.00291 0.0029 0.00344 0.0029 0.63389 0.40677 0.15269-0.23757-0.62894-0.40293-0.00503-0.0034-0.070538-0.05011zm19.856 0.29379-0.56885 0.32742 0.14055 0.24477 0.56885-0.32745 0.0034-0.0029 0.0029-0.0029 0.16039-0.10306-0.15214-0.2376zm-18.404 0.60195 0.14772 0.08488 0.00344 0.0029 0.00291 0.0029 0.60193 0.30813 0.12901-0.25135-0.59642-0.30483-0.00344-0.0029-0.00291-0.0029-0.14113-0.08157zm16.857 0.23868-0.52364 0.23701 0.11631 0.25686 0.52364-0.23646 0.0029-0.0029h0.0034l0.24199-0.12404-0.12843-0.25133zm-15.328 0.51866 0.23426 0.10583 0.0034 0.0029h0.0034l0.54848 0.21603 0.10306-0.26239-0.54184-0.21333-0.0058-0.0029-0.22823-0.10311zm13.689 0.17476-0.44868 0.15158 0.09038 0.26731 0.45532-0.15378 0.0034-0.0029h0.0034l0.3401-0.13393-0.10364-0.26294zm-12.096 0.43823 0.3401 0.11517h0.0074l0.46852 0.13287 0.07718-0.27125-0.46191-0.13118h-0.0074l-0.33351-0.11298zm10.387 0.0926-0.3528 0.08152 0.06342 0.27509 0.35991-0.08324h0.0068l0.45918-0.13062-0.07715-0.27125zm-8.7439 0.36981 0.46908 0.10864h0.0074l0.35941 0.06445 0.04961-0.27779-0.35941-0.06448-0.46246-0.10697zm6.974-0.0077h-0.0074l-0.22548 0.02871 0.03585 0.27943 0.23204-0.02921h0.0074l0.60304-0.1075-0.04961-0.27779zm-5.2961 0.31697 0.62674 0.07993h0.0074l0.21442 0.01614 0.02143-0.28112-0.21442-0.01667-0.61958-0.07887zm3.4605-0.13065-0.06779 0.0029 0.0071 0.28226 0.06781-0.0029h0.0074l0.77663-0.05895-0.02143-0.28112zm-1.7606 0.28556 0.8169 0.02037h0.03709l-0.0071-0.28226h-0.03018l-0.8097-0.0209z" color="#000000" color-rendering="auto" fill="#6f8ce9" image-rendering="auto" shape-rendering="auto" solid-color="#000000" style="isolation:auto;mix-blend-mode:normal;text-decoration-color:#000000;text-decoration-line:none;text-decoration-style:solid;text-indent:0;text-transform:none;white-space:normal"/>
 <path d="m36.83 18.485h-18.344" fill="none" stroke="#6f8ce9" stroke-width=".26458"/>
 <g fill="#e8eaec" stroke-linecap="round" stroke-width=".26458">
  <g transform="scale(.99996 1)" stroke="#cf2f25" aria-label="b">
   <path d="m60.37 18.388v2.1114h0.14922l0.07937-0.1905c0.09525 0.14288 0.254 0.2286 0.42862 0.2286 0.29845 0 0.60642-0.254 0.60642-0.78105 0-0.50482-0.29845-0.73978-0.5842-0.73978-0.18415 0-0.3556 0.09842-0.44768 0.25718v-0.8128c0-0.01905 0.0032-0.0254 0.01905-0.0381 0.0064-0.0032 0.02222-0.01588 0.01905-0.03493zm0.60008 0.8255c0.13652 0 0.42545 0.07937 0.42545 0.59372 0 0.44132-0.28575 0.52388-0.42862 0.52388-0.09842 0-0.3175-0.0381-0.3556-0.3175-0.0095-0.07303-0.0095-0.15875-0.0095-0.28575 0-0.13018 0.0064-0.22542 0.0381-0.3048 0.05398-0.13018 0.18732-0.20955 0.3302-0.20955z" fill="#e8eaec" stroke="none"/>
  </g>
  <g transform="scale(.99996 1)" stroke="#cf2f25" aria-label="α">
   <path d="m24.063 16.252-0.06821-0.35812q-0.06976-0.36587-0.34416-0.36742-0.15193-0.0016-0.2465 0.17053-0.11937 0.21239-0.11937 0.49609 0 0.34106 0.11472 0.50384 0.11937 0.16588 0.25115 0.16588 0.20619 0 0.31781-0.33021zm-0.41238-0.96738q0.48059-0.0078 0.57206 0.49299l0.15348-0.45424h0.25425l-0.31781 0.94103 0.06201 0.33951q0.01395 0.07597 0.06821 0.13953 0.06356 0.07441 0.11317 0.07441h0.13643v0.24184h-0.17053q-0.14573 0-0.27595-0.13022-0.06356-0.06511-0.08992-0.20154-0.07131 0.16898-0.21394 0.30696-0.06976 0.06511-0.29146 0.06356-0.30696-0.0031-0.48369-0.23564-0.18294-0.24185-0.18294-0.66973 0-0.46044 0.19534-0.66973 0.22169-0.23409 0.47129-0.23874z" fill="#e8eaec" stroke="none"/>
  </g>
  <g transform="scale(.99996 1)" aria-label="|a|cos(α)">
   <path d="m19.857 19.487v2.5527h0.21272v-2.5527z"/>
   <path d="m21.044 20.278 0.11112 0.14605c0.12065-0.12382 0.28258-0.16192 0.4191-0.16192 0.17145 0 0.25718 0.07302 0.29845 0.1397 0.04763 0.07938 0.04445 0.17462 0.04445 0.25082v0.0508h-0.04445c-0.2159 0-0.4445 0-0.62865 0.06668-0.2286 0.08255-0.3302 0.254-0.3302 0.41275 0 0.21272 0.18415 0.41275 0.48578 0.41275 0.1778 0 0.36195-0.06668 0.5207-0.19685v0.15875h0.2159v-0.89852c0-0.11748-0.0032-0.2286-0.06985-0.3429-0.09525-0.15558-0.2794-0.23812-0.50482-0.23812-0.19368 0-0.381 0.06033-0.51752 0.20002zm0.88265 0.60008v0.09843c0 0.07302 0 0.16828-0.09843 0.27305-0.05397 0.05398-0.1905 0.17145-0.381 0.17145-0.19368 0-0.3048-0.12382-0.3048-0.25082 0-0.10795 0.07302-0.22542 0.254-0.26988 0.13335-0.03175 0.32702-0.02223 0.47942-0.02223z"/>
   <path d="m23.032 19.487v2.5527h0.21272v-2.5527z"/>
   <path d="m25.381 20.347c-0.1143-0.16828-0.30798-0.26988-0.54292-0.26988-0.42545 0-0.72708 0.32068-0.72708 0.75565 0 0.43815 0.30162 0.762 0.71438 0.762 0.20002 0 0.39688-0.08255 0.5334-0.23178l-0.13018-0.1524c-0.09842 0.11112-0.2413 0.17462-0.38418 0.17462-0.28258 0-0.49848-0.23495-0.49848-0.57468 0-0.3302 0.21272-0.53658 0.47942-0.53658 0.24765 0 0.36512 0.17145 0.37465 0.1905 0.0127 0.02222-0.0064 0.05398 0.01905 0.07303z"/>
   <path d="m26.982 20.84c0-0.50165-0.3175-0.762-0.6477-0.762-0.3683 0-0.6858 0.3175-0.6858 0.76835 0 0.44132 0.31432 0.75248 0.67945 0.75248 0.3429 0 0.65405-0.27622 0.65405-0.75882zm-0.66358-0.56832c0.20955 0 0.4318 0.18098 0.4318 0.57785 0 0.36512-0.20955 0.54928-0.4191 0.54928-0.23178 0-0.44132-0.2159-0.44132-0.57468 0-0.3556 0.20638-0.55245 0.42862-0.55245z"/>
   <path d="m28.48 20.3c-0.13335-0.14605-0.32702-0.22542-0.54292-0.22542-0.33655 0-0.55562 0.18732-0.55562 0.40322 0 0.254 0.27305 0.34608 0.35242 0.37465 0.12382 0.04445 0.28258 0.08255 0.39052 0.13335 0.12065 0.05715 0.14288 0.13335 0.14288 0.18415 0 0.13652-0.1651 0.2286-0.37148 0.2286-0.24765 0-0.4064-0.14922-0.45402-0.20002-0.0095-0.0127-0.0095-0.02222-0.0095-0.03493 0-0.0032 0.0032-0.02222-0.0127-0.02858l-0.13335 0.22542c0.17145 0.15875 0.3937 0.23178 0.61278 0.23178 0.39688 0 0.60325-0.23495 0.60325-0.45402 0-0.09843-0.04127-0.23178-0.21272-0.32702-0.16192-0.09207-0.39688-0.12382-0.5334-0.1905-0.11748-0.05715-0.14288-0.127-0.14288-0.1778 0-0.1143 0.14288-0.19685 0.3048-0.19685 0.20955 0 0.34925 0.127 0.40322 0.20002 0.0095 0.0095 0.0064 0.01905 0.0064 0.02858 0 0.01905 0.0127 0.0254 0.01905 0.0254z"/>
   <path d="m29.937 19.443c-0.48895 0.2159-0.80328 0.71438-0.80328 1.2954 0 0.57785 0.3048 1.1049 0.80645 1.3684l0.10478-0.16828c-0.43498-0.25082-0.68898-0.71755-0.68898-1.2097 0-0.45402 0.21908-0.86042 0.59055-1.0763 0.0064-0.0064 0.01588-0.0127 0.02858-0.0127 0.0095 0 0.01905 0.0064 0.03175 0.0064 0.0063 0 0.01587-0.0032 0.02858-0.0064z"/>
   <path d="m31.471 20.749-0.06821-0.35812q-0.06976-0.36587-0.34416-0.36742-0.15193-0.0016-0.2465 0.17053-0.11937 0.21239-0.11937 0.49609 0 0.34106 0.11472 0.50384 0.11937 0.16588 0.25115 0.16588 0.20619 0 0.31781-0.33021zm-0.41238-0.96738q0.48059-0.0078 0.57206 0.49299l0.15348-0.45424h0.25425l-0.31781 0.94103 0.06201 0.33951q0.01395 0.07597 0.06821 0.13953 0.06356 0.07441 0.11317 0.07441h0.13643v0.24185h-0.17053q-0.14573 0-0.27595-0.13022-0.06356-0.06511-0.08992-0.20154-0.07131 0.16898-0.21394 0.30696-0.06976 0.06511-0.29146 0.06356-0.30696-0.0031-0.48369-0.23564-0.18294-0.24185-0.18294-0.66973 0-0.46044 0.19534-0.66973 0.22169-0.23409 0.47129-0.23874z"/>
   <path d="m32.438 19.643c0.4191 0.22542 0.6858 0.65722 0.6858 1.1303 0 0.47625-0.27305 0.92075-0.70168 1.1462l0.06033 0.19368c0.52705-0.25082 0.86678-0.77788 0.86678-1.3494 0-0.56515-0.33338-1.0795-0.8509-1.3176z"/>
  </g>
 </g>
 <g transform="matrix(.0021182 -1.534e-5 1.5606e-5 .0021545 58.621 17.877)" fill="#d2d6dc" stroke-width="247.7">
  <g fill="#d2d6dc" stroke-width="247.7">
   <path d="m486.41 221.41-364.07-208.5c-52.938-30.318-95.852-5.44-95.852 55.563v415.65c0 61.004 42.914 85.882 95.852 55.563l364.07-208.49c52.938-30.317 52.938-79.473 0-109.79z" fill="#d2d6dc" stroke-width="247.7"/>
  </g>
 </g>
 <g transform="matrix(.0013605 -.0016236 .0016514 .0013838 35.463 .77055)" fill="#d2d6dc" stroke-width="247.7">
  <g fill="#d2d6dc" stroke-width="247.7">
   <path d="m486.41 221.41-364.07-208.5c-52.938-30.318-95.852-5.44-95.852 55.563v415.65c0 61.004 42.914 85.882 95.852 55.563l364.07-208.49c52.938-30.317 52.938-79.473 0-109.79z" fill="#d2d6dc" stroke-width="247.7"/>
  </g>
 </g>
</svg>
