<?xml version="1.0" encoding="UTF-8"?>
<svg width="49.968mm" height="27.522mm" version="1.1" viewBox="0 0 49.968 27.522" xmlns="http://www.w3.org/2000/svg" xmlns:cc="http://creativecommons.org/ns#" xmlns:dc="http://purl.org/dc/elements/1.1/" xmlns:rdf="http://www.w3.org/1999/02/22-rdf-syntax-ns#">
 <metadata>
  <rdf:RDF>
   <cc:Work rdf:about="">
    <dc:format>image/svg+xml</dc:format>
    <dc:type rdf:resource="http://purl.org/dc/dcmitype/StillImage"/>
    <dc:title/>
   </cc:Work>
  </rdf:RDF>
 </metadata>
 <g fill="none" stroke="#7b8694" stroke-width=".26458">
  <path d="m1.845 25.005 44.602-21.652"/>
  <path d="m0.34824 22.012 44.602-21.652"/>
  <path d="m1.014 20.758c-0.33451 0.51509-0.80256 1.367-0.80256 1.367l1.464 0.15875"/>
  <path d="m44.443 1.6019c0.29342-0.53956 0.69379-1.4253 0.69379-1.4253l-1.472-0.04434"/>
 </g>
 <g fill="#e8eaec" stroke-linecap="round" stroke-width=".26458">
  <g transform="scale(.99996 1)" aria-label="ax">
   <path d="m24.508 26.291 0.0926 0.12171c0.10054-0.10319 0.23548-0.13494 0.34925-0.13494 0.14288 0 0.21431 0.06085 0.24871 0.11642 0.03969 0.06615 0.03704 0.14552 0.03704 0.20902v0.04233h-0.03704c-0.17992 0-0.37042 0-0.52387 0.05556-0.1905 0.06879-0.27517 0.21167-0.27517 0.34396 0 0.17727 0.15346 0.34396 0.40481 0.34396 0.14817 0 0.30162-0.05556 0.43392-0.16404v0.13229h0.17992v-0.74877c0-0.0979-0.0026-0.1905-0.05821-0.28575-0.07937-0.12964-0.23283-0.19844-0.42069-0.19844-0.1614 0-0.3175 0.05027-0.43127 0.16669zm0.73554 0.50006v0.08202c0 0.06085 0 0.14023-0.08202 0.22754-0.04498 0.04498-0.15875 0.14288-0.3175 0.14288-0.1614 0-0.254-0.10319-0.254-0.20902 0-0.08996 0.06085-0.18785 0.21167-0.2249 0.11112-0.02646 0.27252-0.01852 0.39952-0.01852z"/>
   <path d="m26.551 26.148-0.30162 0.44714-0.3175-0.44714h-0.20638l0.4154 0.59531-0.42333 0.61383h0.21431l0.31485-0.46831 0.33337 0.46831h0.21696l-0.4445-0.61912 0.39158-0.59002z"/>
  </g>
  <g transform="scale(.99996 1)" stroke="#cf2f25" aria-label="a">
   <path d="m25.567 14.65 0.0926 0.12171c0.10054-0.10319 0.23548-0.13494 0.34925-0.13494 0.14288 0 0.21431 0.06085 0.24871 0.11642 0.03969 0.06615 0.03704 0.14552 0.03704 0.20902v0.04233h-0.03704c-0.17992 0-0.37042 0-0.52388 0.05556-0.1905 0.06879-0.27517 0.21167-0.27517 0.34396 0 0.17727 0.15346 0.34396 0.40481 0.34396 0.14817 0 0.30162-0.05556 0.43392-0.16404v0.13229h0.17992v-0.74877c0-0.0979-0.0026-0.1905-0.05821-0.28575-0.07937-0.12965-0.23283-0.19844-0.42069-0.19844-0.1614 0-0.3175 0.05027-0.43127 0.16669zm0.73554 0.50006v0.08202c0 0.06085 0 0.14023-0.08202 0.22754-0.04498 0.04498-0.15875 0.14288-0.3175 0.14288-0.1614 0-0.254-0.10319-0.254-0.20902 0-0.08996 0.06085-0.18785 0.21167-0.2249 0.11112-0.02646 0.27252-0.01852 0.39952-0.01852z" fill="#e8eaec" stroke="none"/>
  </g>
  <g transform="scale(.99996 1)" aria-label="|a|">
   <path d="m19.814 8.4348v2.1272h0.17727v-2.1272z"/>
   <path d="m20.804 9.0936 0.0926 0.12171c0.10054-0.10319 0.23548-0.13494 0.34925-0.13494 0.14288 0 0.21431 0.060854 0.24871 0.11642 0.03969 0.066146 0.03704 0.14552 0.03704 0.20902v0.042333h-0.03704c-0.17992 0-0.37042 0-0.52388 0.055562-0.1905 0.068792-0.27517 0.21167-0.27517 0.34396 0 0.17727 0.15346 0.34396 0.40481 0.34396 0.14817 0 0.30162-0.05556 0.43392-0.16404v0.13229h0.17992v-0.74877c0-0.097896-0.0026-0.1905-0.05821-0.28575-0.07937-0.12965-0.23283-0.19844-0.42069-0.19844-0.1614 0-0.3175 0.050271-0.43127 0.16669zm0.73554 0.50006v0.082021c0 0.060854 0 0.14023-0.08202 0.22754-0.04498 0.044979-0.15875 0.14288-0.3175 0.14288-0.1614 0-0.254-0.10319-0.254-0.20902 0-0.089958 0.06085-0.18785 0.21167-0.2249 0.11112-0.026458 0.27252-0.018521 0.39952-0.018521z"/>
   <path d="m22.46 8.4348v2.1272h0.17727v-2.1272z"/>
  </g>
  <g transform="scale(.99996 1)" aria-label="ay">
   <path d="m47.528 14.649 0.09261 0.12171c0.10054-0.10319 0.23548-0.13494 0.34925-0.13494 0.14288 0 0.21431 0.06085 0.24871 0.11642 0.03969 0.06615 0.03704 0.14552 0.03704 0.20902v0.04233h-0.03704c-0.17992 0-0.37042 0-0.52387 0.05556-0.1905 0.06879-0.27517 0.21167-0.27517 0.34396 0 0.17727 0.15346 0.34396 0.40481 0.34396 0.14817 0 0.30162-0.05556 0.43392-0.16404v0.13229h0.17992v-0.74877c0-0.0979-0.0026-0.1905-0.05821-0.28575-0.07937-0.12964-0.23283-0.19844-0.42069-0.19844-0.1614 0-0.3175 0.05027-0.43127 0.16669zm0.73554 0.50006v0.08202c0 0.06085 0 0.14023-0.08202 0.22754-0.04498 0.04498-0.15875 0.14288-0.3175 0.14288-0.1614 0-0.254-0.10319-0.254-0.20902 0-0.08996 0.06085-0.18785 0.21167-0.2249 0.11112-0.02646 0.27252-0.01852 0.39952-0.01852z"/>
   <path d="m48.732 14.509 0.49212 1.2039-0.03969 0.08731c-0.02117 0.05027-0.04498 0.10054-0.08202 0.14023-0.05027 0.05556-0.11377 0.07937-0.16933 0.07937-0.08996 0-0.13494-0.06085-0.14288-0.07144-0.0079-0.01323-0.0053-0.03175-0.02117-0.04498l-0.0979 0.17198c0.06879 0.06615 0.1614 0.10054 0.26194 0.10054 0.10848 0 0.22225-0.03969 0.30162-0.12964 0.05292-0.06085 0.07937-0.12435 0.10583-0.19315l0.37571-0.99748c0.04498-0.11377 0.08467-0.23019 0.12171-0.34925h-0.19844c-0.02117 0.11112-0.05556 0.21696-0.0926 0.32279l-0.23019 0.64823-0.35454-0.89164c-0.0026-0.0079-0.0026-0.01323-0.0026-0.02117 0-0.01852 0.01323-0.03175 0.01058-0.05556z"/>
  </g>
 </g>
 <g transform="matrix(.0018613 -.0010113 .0010286 .0018932 45.331 3.2367)" fill="#d2d6dc" stroke-width="247.7">
  <g fill="#d2d6dc" stroke-width="247.7">
   <path d="m486.41 221.41-364.07-208.5c-52.938-30.318-95.852-5.44-95.852 55.563v415.65c0 61.004 42.914 85.882 95.852 55.563l364.07-208.49c52.938-30.317 52.938-79.473 0-109.79z" fill="#d2d6dc" stroke-width="247.7"/>
  </g>
 </g>
 <path d="m46.447 3.3531v21.652h-44.602" fill="none" stroke="#6f8ce9" stroke-dasharray="1.05833, 1.05833" stroke-width=".26458"/>
</svg>
