<?xml version="1.0" encoding="UTF-8"?>
<svg width="162.98mm" height="105.57mm" version="1.1" viewBox="0 0 162.98 105.57" xmlns="http://www.w3.org/2000/svg" xmlns:cc="http://creativecommons.org/ns#" xmlns:dc="http://purl.org/dc/elements/1.1/" xmlns:rdf="http://www.w3.org/1999/02/22-rdf-syntax-ns#">
 <metadata>
  <rdf:RDF>
   <cc:Work rdf:about="">
    <dc:format>image/svg+xml</dc:format>
    <dc:type rdf:resource="http://purl.org/dc/dcmitype/StillImage"/>
    <dc:title/>
   </cc:Work>
  </rdf:RDF>
 </metadata>
 <g transform="translate(-148.68 -52.557)">
  <g stroke-linecap="round" stroke-width=".26458">
   <path d="m148.81 57.981v32.808l4.1341 3.7042h79.21v-32.808l-4.1341-3.7042z" fill="#1d232d" stroke="#2f3744"/>
   <path d="m148.81 52.689v5.2917h51.329v-1.5875l-4.1341-3.7042z" fill="#1d232d" stroke="#2f3744"/>
   <g fill="#e8eaec" aria-label="SOURCE FILES">
    <path d="m151.36 56.486c0.24818 0.22966 0.58155 0.34819 0.89641 0.34819 0.57414 0 0.90752-0.34819 0.90752-0.74824 0-0.34078-0.18521-0.5371-0.47784-0.65564l-0.30744-0.12594c-0.21114-0.0852-0.37042-0.13705-0.37042-0.28522 0-0.13706 0.12224-0.21855 0.30744-0.21855 0.19262 0 0.34449 0.07038 0.50377 0.19262l0.27411-0.34449c-0.20743-0.20743-0.50006-0.31856-0.77788-0.31856-0.50006 0-0.85936 0.31856-0.85936 0.71861 0 0.3519 0.23706 0.55933 0.48895 0.65934l0.31115 0.13335c0.21114 0.0889 0.34819 0.13706 0.34819 0.28893 0 0.14446-0.11113 0.23336-0.33708 0.23336-0.20002 0-0.42228-0.10372-0.59267-0.25188z"/>
    <path d="m154.55 56.834c0.65193 0 1.0964-0.47413 1.0964-1.2631 0-0.78528-0.4445-1.2409-1.0964-1.2409-0.64823 0-1.0964 0.45191-1.0964 1.2409s0.44821 1.2631 1.0964 1.2631zm0-0.47043c-0.32597 0-0.53711-0.30745-0.53711-0.79269 0-0.48154 0.21114-0.77047 0.53711-0.77047 0.32967 0 0.5371 0.28892 0.5371 0.77047 0 0.48525-0.20743 0.79269-0.5371 0.79269z"/>
    <path d="m156.09 55.671c0 0.81121 0.33708 1.1631 0.96308 1.1631s0.95568-0.3519 0.95568-1.1631v-1.2965h-0.526v1.352c0 0.47413-0.15928 0.63712-0.42968 0.63712s-0.41857-0.16298-0.41857-0.63712v-1.352h-0.54451z"/>
    <path d="m159.11 54.808h0.27781c0.28522 0 0.4408 0.08149 0.4408 0.31856 0 0.23707-0.15558 0.3593-0.4408 0.3593h-0.27781zm1.3705 1.9817-0.54451-0.96679c0.25559-0.11483 0.42968-0.34078 0.42968-0.69638 0-0.57415-0.42227-0.75195-0.93345-0.75195h-0.87048v2.4151h0.54822v-0.87048h0.29633l0.46303 0.87048z"/>
    <path d="m160.72 55.597c0 0.81121 0.51117 1.2372 1.1372 1.2372 0.30003 0 0.56673-0.12224 0.76676-0.3556l-0.30004-0.32967c-0.11853 0.12965-0.25929 0.21484-0.45931 0.21484-0.3519 0-0.58526-0.28892-0.58526-0.78528 0-0.48525 0.26299-0.77788 0.60007-0.77788 0.17039 0 0.28522 0.07038 0.40746 0.1815l0.30004-0.33708c-0.16299-0.16669-0.41487-0.31486-0.71491-0.31486-0.6223 0-1.152 0.46673-1.152 1.2668z"/>
    <path d="m162.99 56.79h1.552v-0.45932h-1.0038v-0.55563h0.82233v-0.45561h-0.82233v-0.48525h0.96679v-0.45932h-1.515z"/>
    <path d="m165.79 56.79h0.54821v-0.93716h0.83344v-0.45932h-0.83344v-0.55933h0.9779v-0.45932h-1.5261z"/>
    <path d="m167.72 56.79h0.54821v-2.4151h-0.54821z"/>
    <path d="m168.84 56.79h1.5002v-0.45932h-0.95197v-1.9558h-0.54822z"/>
    <path d="m170.75 56.79h1.552v-0.45932h-1.0038v-0.55563h0.82233v-0.45561h-0.82233v-0.48525h0.96679v-0.45932h-1.515z"/>
    <path d="m172.62 56.486c0.24818 0.22966 0.58155 0.34819 0.89641 0.34819 0.57414 0 0.90752-0.34819 0.90752-0.74824 0-0.34078-0.18521-0.5371-0.47784-0.65564l-0.30745-0.12594c-0.21113-0.0852-0.37041-0.13705-0.37041-0.28522 0-0.13706 0.12224-0.21855 0.30744-0.21855 0.19262 0 0.34449 0.07038 0.50377 0.19262l0.27411-0.34449c-0.20743-0.20743-0.50006-0.31856-0.77788-0.31856-0.50006 0-0.85936 0.31856-0.85936 0.71861 0 0.3519 0.23706 0.55933 0.48895 0.65934l0.31115 0.13335c0.21113 0.0889 0.34819 0.13706 0.34819 0.28893 0 0.14446-0.11113 0.23336-0.33708 0.23336-0.20003 0-0.42228-0.10372-0.59267-0.25188z"/>
   </g>
   <path d="m153.97 63.669v10.583h33.073v-6.8792l-4.1341-3.7042h-2.0671z" fill="#2f3744" stroke="#6f8ce9"/>
   <g fill="#e8eaec" aria-label="Images">
    <path d="m164.32 70.122h0.31115v-2.4299h-0.31115z"/>
    <path d="m165.26 70.122h0.30374v-1.3039c0.16669-0.18521 0.31856-0.27781 0.45191-0.27781 0.22966 0 0.33708 0.14446 0.33708 0.48154v1.1001h0.30374v-1.3039c0.16669-0.18521 0.31115-0.27781 0.45191-0.27781 0.22596 0 0.33338 0.14446 0.33338 0.48154v1.1001h0.30374v-1.1409c0-0.45932-0.1778-0.70379-0.54822-0.70379-0.21854 0-0.40375 0.14076-0.59266 0.34449-0.0741-0.21484-0.22225-0.34449-0.49636-0.34449-0.21484 0-0.40376 0.13335-0.55933 0.30374h-0.0111l-0.0259-0.25929h-0.25189z"/>
    <path d="m168.24 69.656c0 0.32226 0.22595 0.51118 0.52969 0.51118 0.22225 0 0.42228-0.11853 0.59638-0.25929h7e-3l0.0259 0.21484h0.25189v-1.1038c0-0.4482-0.18521-0.74083-0.62601-0.74083-0.28892 0-0.54081 0.12594-0.70749 0.23336l0.12223 0.21114c0.14076-0.09631 0.32597-0.19262 0.53711-0.19262 0.29263 0 0.37041 0.22225 0.37041 0.45191-0.76676 0.0852-1.1075 0.28152-1.1075 0.67416zm0.30004-0.02222c0-0.22966 0.20373-0.37782 0.8075-0.45191v0.50006c-0.17409 0.15558-0.31855 0.24077-0.49265 0.24077-0.1778 0-0.31485-0.0852-0.31485-0.28892z"/>
    <path d="m170.35 70.426c0-0.10372 0.0556-0.21114 0.18521-0.30374 0.0778 0.02222 0.16298 0.02963 0.23336 0.02963h0.31115c0.23336 0 0.36301 0.05556 0.36301 0.22225 0 0.18891-0.22596 0.36671-0.57044 0.36671-0.32597 0-0.52229-0.12224-0.52229-0.31486zm-0.2667 0.04075c0 0.31115 0.30374 0.48525 0.74454 0.48525 0.55933 0 0.91122-0.28893 0.91122-0.6223 0-0.30004-0.21114-0.42968-0.62971-0.42968h-0.34819c-0.24447 0-0.31856-0.08149-0.31856-0.19632 0-0.10001 0.0519-0.15928 0.11483-0.21484 0.0815 0.04075 0.18151 0.06297 0.27041 0.06297 0.36671 0 0.65934-0.24077 0.65934-0.626 0-0.15187-0.063-0.28893-0.14817-0.37042h0.37042v-0.23337h-0.62601c-0.0667-0.02593-0.15557-0.04445-0.25558-0.04445-0.36672 0-0.67787 0.24818-0.67787 0.64082 0 0.21484 0.11483 0.38894 0.23337 0.48525v0.01482c-0.0926 0.06297-0.19633 0.1815-0.19633 0.33338 0 0.14076 0.0704 0.23707 0.15928 0.29263v0.01482c-0.16298 0.11112-0.26299 0.25559-0.26299 0.40746zm0.74454-1.1187c-0.20744 0-0.38153-0.16669-0.38153-0.42968s0.17039-0.41857 0.38153-0.41857c0.21113 0 0.38153 0.15558 0.38153 0.41857s-0.1741 0.42968-0.38153 0.42968z"/>
    <path d="m171.91 69.226c0 0.58896 0.38153 0.94086 0.86307 0.94086 0.24448 0 0.4371-0.0852 0.59267-0.18521l-0.10742-0.20002c-0.13335 0.0852-0.27781 0.14076-0.4482 0.14076-0.34449 0-0.57785-0.24448-0.60008-0.63341h1.215c7e-3 -0.04445 0.0111-0.10372 0.0111-0.16669 0-0.51488-0.25929-0.84455-0.71861-0.84455-0.41116 0-0.80751 0.3593-0.80751 0.94827zm0.29634-0.13705c0.037-0.36301 0.2667-0.57044 0.51858-0.57044 0.28152 0 0.4445 0.20373 0.4445 0.57044z"/>
    <path d="m173.68 69.919c0.1704 0.14076 0.41487 0.24818 0.67046 0.24818 0.42598 0 0.65934-0.24448 0.65934-0.5371 0-0.34078-0.28892-0.4482-0.54822-0.54451-0.20373-0.07779-0.40005-0.14446-0.40005-0.31115 0-0.13706 0.10372-0.25929 0.32967-0.25929 0.15928 0 0.28893 0.06668 0.41117 0.15928l0.14446-0.19262c-0.13705-0.11112-0.33338-0.20373-0.55933-0.20373-0.38894 0-0.6186 0.22225-0.6186 0.51118 0 0.30374 0.28152 0.42598 0.53711 0.51858 0.19632 0.07408 0.41116 0.15558 0.41116 0.34078 0 0.15558-0.11853 0.28152-0.3556 0.28152-0.21484 0-0.37412-0.0889-0.5297-0.21484z"/>
   </g>
   <path d="m191.01 63.669v10.583h33.073v-6.8792l-4.1341-3.7042h-2.0671z" fill="#2f3744" stroke="#6f8ce9"/>
   <g fill="#e8eaec" aria-label="Sound">
    <path d="m201.72 69.808c0.21114 0.21855 0.50747 0.3593 0.84826 0.3593 0.51117 0 0.82973-0.30745 0.82973-0.69268 0-0.3593-0.21855-0.52599-0.50006-0.64823l-0.34819-0.14817c-0.18892-0.08149-0.40376-0.17039-0.40376-0.40375 0-0.21855 0.18151-0.3556 0.45561-0.3556 0.22225 0 0.40376 0.0889 0.55193 0.22966l0.16298-0.20002c-0.17039-0.1778-0.42598-0.30004-0.71491-0.30004-0.44079 0-0.76676 0.27411-0.76676 0.64453 0 0.3556 0.2667 0.5297 0.49266 0.626l0.34819 0.15187c0.22966 0.10372 0.40746 0.1815 0.40746 0.42968 0 0.23707-0.18892 0.39635-0.50748 0.39635-0.25558 0-0.49635-0.12224-0.67045-0.30374z"/>
    <path d="m203.7 69.226c0 0.59637 0.39264 0.94086 0.83344 0.94086s0.83344-0.34449 0.83344-0.94086c0-0.60378-0.39264-0.94827-0.83344-0.94827s-0.83344 0.34449-0.83344 0.94827zm0.31486 0c0-0.41487 0.21113-0.69638 0.51858-0.69638 0.31115 0 0.51858 0.28152 0.51858 0.69638 0 0.41116-0.20743 0.68898-0.51858 0.68898-0.30745 0-0.51858-0.27781-0.51858-0.68898z"/>
    <path d="m205.82 69.463c0 0.45932 0.17039 0.70379 0.55192 0.70379 0.24818 0 0.42598-0.12965 0.59267-0.32597h0.0111l0.0259 0.28152h0.25189v-1.8002h-0.30375v1.2779c-0.17039 0.21114-0.30003 0.30374-0.48524 0.30374-0.23707 0-0.33708-0.14446-0.33708-0.48154v-1.1001h-0.30745z"/>
    <path d="m207.87 70.122h0.30375v-1.3039c0.1815-0.1815 0.30744-0.27781 0.49265-0.27781 0.23707 0 0.34078 0.14446 0.34078 0.48154v1.1001h0.30375v-1.1409c0-0.45932-0.1704-0.70379-0.54822-0.70379-0.24818 0-0.43339 0.13335-0.60378 0.30374h-0.0111l-0.0259-0.25929h-0.25189z"/>
    <path d="m209.76 69.226c0 0.60008 0.29263 0.94086 0.74453 0.94086 0.21114 0 0.40376-0.11853 0.54452-0.25559h0.0111l0.0259 0.21114h0.25188v-2.6374h-0.30744v0.69268l0.0148 0.30745c-0.15928-0.12965-0.29633-0.20743-0.50376-0.20743-0.41117 0-0.78158 0.36301-0.78158 0.94827zm0.31485-0.0037c0-0.41116 0.22966-0.68898 0.51858-0.68898 0.14817 0 0.28522 0.05186 0.4371 0.18891v0.94086c-0.14817 0.16669-0.29263 0.24818-0.45932 0.24818-0.31486 0-0.49636-0.25929-0.49636-0.68898z"/>
   </g>
   <path d="m191.01 76.898v10.583h33.073v-6.8792l-4.1341-3.7042h-2.0671z" fill="#2f3744" stroke="#6f8ce9"/>
   <g fill="#e8eaec" aria-label="Video clips">
    <path d="m199.07 83.352h0.3593l0.77047-2.4299h-0.31486l-0.38893 1.3113c-0.0815 0.28893-0.14447 0.51858-0.23337 0.8038h-0.0148c-0.0889-0.28522-0.14817-0.51488-0.23337-0.8038l-0.39264-1.3113h-0.32596z"/>
    <path d="m200.65 81.181c0.11853 0 0.21114-0.08149 0.21114-0.19632 0-0.11853-0.0926-0.19632-0.21114-0.19632-0.11853 0-0.21114 0.07779-0.21114 0.19632 0 0.11483 0.0926 0.19632 0.21114 0.19632zm-0.15558 2.1706h0.30375v-1.8002h-0.30375z"/>
    <path d="m201.28 82.455c0 0.60008 0.29263 0.94086 0.74454 0.94086 0.21114 0 0.40375-0.11853 0.54451-0.25559h0.0111l0.0259 0.21114h0.25189v-2.6374h-0.30745v0.69268l0.0148 0.30745c-0.15928-0.12965-0.29633-0.20743-0.50377-0.20743-0.41116 0-0.78158 0.36301-0.78158 0.94827zm0.31486-0.0037c0-0.41116 0.22965-0.68898 0.51858-0.68898 0.14817 0 0.28522 0.05186 0.43709 0.18891v0.94086c-0.14816 0.16669-0.29263 0.24818-0.45931 0.24818-0.31486 0-0.49636-0.25929-0.49636-0.68898z"/>
    <path d="m203.33 82.455c0 0.58896 0.38153 0.94086 0.86308 0.94086 0.24447 0 0.43709-0.0852 0.59266-0.18521l-0.10742-0.20002c-0.13335 0.0852-0.27781 0.14076-0.4482 0.14076-0.34449 0-0.57785-0.24448-0.60008-0.63341h1.215c7e-3 -0.04445 0.0111-0.10372 0.0111-0.16669 0-0.51488-0.25929-0.84455-0.71861-0.84455-0.41116 0-0.80751 0.3593-0.80751 0.94827zm0.29634-0.13706c0.037-0.36301 0.2667-0.57044 0.51858-0.57044 0.28152 0 0.4445 0.20373 0.4445 0.57044z"/>
    <path d="m205.17 82.455c0 0.59637 0.39264 0.94086 0.83344 0.94086 0.44079 0 0.83344-0.34449 0.83344-0.94086 0-0.60378-0.39265-0.94827-0.83344-0.94827-0.4408 0-0.83344 0.34449-0.83344 0.94827zm0.31485 0c0-0.41487 0.21114-0.69638 0.51859-0.69638 0.31115 0 0.51858 0.28152 0.51858 0.69638 0 0.41116-0.20743 0.68898-0.51858 0.68898-0.30745 0-0.51859-0.27781-0.51859-0.68898z"/>
    <path d="m207.92 82.455c0 0.59637 0.36672 0.94086 0.84455 0.94086 0.21485 0 0.42228-0.0889 0.58526-0.23336l-0.13705-0.20002c-0.10742 0.09631-0.25188 0.1815-0.42228 0.1815-0.32967 0-0.55562-0.27781-0.55562-0.68898 0-0.41487 0.23706-0.69638 0.56303-0.69638 0.14446 0 0.25559 0.06668 0.36301 0.15928l0.15187-0.19632c-0.12224-0.11483-0.28892-0.21484-0.52599-0.21484-0.46302 0-0.86678 0.34449-0.86678 0.94827z"/>
    <path d="m209.74 82.989c0 0.263 0.0926 0.40746 0.32226 0.40746 0.0815 0 0.13335-0.01111 0.1741-0.02963l-0.0407-0.22966c-0.0333 0.0074-0.0482 0.0074-0.0667 0.0074-0.0445 0-0.0852-0.03704-0.0852-0.13335v-2.2966h-0.30374z"/>
    <path d="m210.85 81.181c0.11854 0 0.21114-0.08149 0.21114-0.19632 0-0.11853-0.0926-0.19632-0.21114-0.19632-0.11853 0-0.21114 0.07779-0.21114 0.19632 0 0.11483 0.0926 0.19632 0.21114 0.19632zm-0.15557 2.1706h0.30374v-1.8002h-0.30374z"/>
    <path d="m211.9 83.189c0.16669 0.12965 0.33338 0.20743 0.50007 0.20743 0.41116 0 0.77787-0.3593 0.77787-0.97049 0-0.55933-0.24818-0.91863-0.7112-0.91863-0.21114 0-0.41116 0.11483-0.57414 0.25188h-0.0111l-0.0259-0.20743h-0.25188v2.5596h0.30374v-0.60748zm7e-3 -0.23707v-0.94456c0.1778-0.15928 0.32967-0.24448 0.48154-0.24448 0.34079 0 0.47414 0.2667 0.47414 0.66305 0 0.4445-0.21855 0.7149-0.51488 0.7149-0.11853 0-0.27781-0.05186-0.4408-0.18891z"/>
    <path d="m213.46 83.148c0.17039 0.14076 0.41487 0.24818 0.67046 0.24818 0.42598 0 0.65934-0.24448 0.65934-0.5371 0-0.34078-0.28893-0.4482-0.54822-0.54451-0.20373-0.07779-0.40005-0.14446-0.40005-0.31115 0-0.13706 0.10372-0.25929 0.32967-0.25929 0.15928 0 0.28893 0.06668 0.41117 0.15928l0.14446-0.19262c-0.13706-0.11112-0.33338-0.20373-0.55933-0.20373-0.38894 0-0.6186 0.22225-0.6186 0.51118 0 0.30374 0.28152 0.42598 0.53711 0.51858 0.19632 0.07408 0.41116 0.15558 0.41116 0.34078 0 0.15558-0.11853 0.28152-0.3556 0.28152-0.21484 0-0.37412-0.0889-0.5297-0.21484z"/>
   </g>
   <path d="m153.97 76.898v10.583h33.073v-6.8792l-4.1341-3.7042h-2.0671z" fill="#2f3744" stroke="#6f8ce9"/>
   <g fill="#e8eaec" aria-label="Meshes">
    <path d="m164.15 83.352h0.28522v-1.3372c0-0.21484-0.0222-0.50377-0.037-0.71861h0.0148l0.19261 0.54081 0.46673 1.2705h0.1778l0.46673-1.2705 0.19261-0.54081h0.0148c-0.0148 0.21484-0.0408 0.50377-0.0408 0.71861v1.3372h0.29263v-2.4299h-0.36301l-0.46672 1.3039-0.17039 0.49636h-0.0148l-0.1741-0.49636-0.47043-1.3039h-0.36671z"/>
    <path d="m166.67 82.455c0 0.58896 0.38153 0.94086 0.86307 0.94086 0.24448 0 0.4371-0.0852 0.59267-0.18521l-0.10742-0.20002c-0.13335 0.0852-0.27781 0.14076-0.4482 0.14076-0.34449 0-0.57786-0.24448-0.60008-0.63341h1.215c7e-3 -0.04445 0.0111-0.10372 0.0111-0.16669 0-0.51488-0.25929-0.84455-0.71861-0.84455-0.41116 0-0.80751 0.3593-0.80751 0.94827zm0.29634-0.13706c0.037-0.36301 0.2667-0.57044 0.51858-0.57044 0.28152 0 0.4445 0.20373 0.4445 0.57044z"/>
    <path d="m168.44 83.148c0.17039 0.14076 0.41487 0.24818 0.67046 0.24818 0.42598 0 0.65934-0.24448 0.65934-0.5371 0-0.34078-0.28893-0.4482-0.54822-0.54451-0.20373-0.07779-0.40005-0.14446-0.40005-0.31115 0-0.13706 0.10372-0.25929 0.32967-0.25929 0.15928 0 0.28893 0.06668 0.41117 0.15928l0.14446-0.19262c-0.13706-0.11112-0.33338-0.20373-0.55933-0.20373-0.38894 0-0.6186 0.22225-0.6186 0.51118 0 0.30374 0.28152 0.42598 0.53711 0.51858 0.19632 0.07408 0.41116 0.15558 0.41116 0.34078 0 0.15558-0.11853 0.28152-0.3556 0.28152-0.21484 0-0.37412-0.0889-0.5297-0.21484z"/>
    <path d="m170.2 83.352h0.30374v-1.3039c0.18151-0.1815 0.30745-0.27781 0.49266-0.27781 0.23706 0 0.34078 0.14446 0.34078 0.48154v1.1001h0.30374v-1.1409c0-0.45932-0.17039-0.70379-0.54822-0.70379-0.24817 0-0.42968 0.13335-0.60007 0.29633l0.0111-0.37042v-0.71861h-0.30374z"/>
    <path d="m172.08 82.455c0 0.58896 0.38153 0.94086 0.86307 0.94086 0.24448 0 0.4371-0.0852 0.59267-0.18521l-0.10742-0.20002c-0.13335 0.0852-0.27781 0.14076-0.4482 0.14076-0.34449 0-0.57785-0.24448-0.60008-0.63341h1.215c7e-3 -0.04445 0.0111-0.10372 0.0111-0.16669 0-0.51488-0.25929-0.84455-0.71861-0.84455-0.41116 0-0.80751 0.3593-0.80751 0.94827zm0.29634-0.13706c0.037-0.36301 0.2667-0.57044 0.51858-0.57044 0.28152 0 0.4445 0.20373 0.4445 0.57044z"/>
    <path d="m173.85 83.148c0.1704 0.14076 0.41487 0.24818 0.67046 0.24818 0.42598 0 0.65934-0.24448 0.65934-0.5371 0-0.34078-0.28892-0.4482-0.54822-0.54451-0.20373-0.07779-0.40005-0.14446-0.40005-0.31115 0-0.13706 0.10372-0.25929 0.32967-0.25929 0.15928 0 0.28893 0.06668 0.41117 0.15928l0.14446-0.19262c-0.13705-0.11112-0.33338-0.20373-0.55933-0.20373-0.38894 0-0.6186 0.22225-0.6186 0.51118 0 0.30374 0.28152 0.42598 0.53711 0.51858 0.19632 0.07408 0.41116 0.15558 0.41116 0.34078 0 0.15558-0.11853 0.28152-0.3556 0.28152-0.21484 0-0.37412-0.0889-0.5297-0.21484z"/>
   </g>
   <path d="m148.81 110.9v43.392l4.1341 3.7042h158.58v-43.392l-4.1341-3.7042z" fill="#1d232d" stroke="#2f3744"/>
   <path d="m148.81 105.61v5.2917h51.329v-1.5875l-4.1341-3.7042z" fill="#1d232d" stroke="#2f3744"/>
   <g fill="#e8eaec" aria-label="GAME APPLICATION LAYER">
    <path d="m151.4 108.51c0 0.81121 0.51859 1.2372 1.1705 1.2372 0.33708 0 0.63712-0.14076 0.81122-0.29263v-1.1112h-0.8853v0.4445h0.40005v0.41487c-0.0593 0.0482-0.15928 0.0741-0.25559 0.0741-0.45561 0-0.68157-0.28892-0.68157-0.78528 0-0.48525 0.2667-0.77788 0.63712-0.77788 0.20743 0 0.32226 0.0704 0.4445 0.18151l0.30004-0.33708c-0.16298-0.16299-0.41116-0.31486-0.75195-0.31486-0.65563 0-1.189 0.46673-1.189 1.2668z"/>
    <path d="m154.36 108.71 0.0593-0.22225c0.0667-0.24078 0.13335-0.52229 0.18891-0.77788h0.0148c0.0667 0.25188 0.12964 0.5371 0.19632 0.77788l0.0593 0.22225zm0.77788 1.0001h0.57785l-0.75936-2.4151h-0.65193l-0.75936 2.4151h0.55563l0.14817-0.57415h0.74083z"/>
    <path d="m155.96 109.71h0.50377v-0.8853c0-0.23706-0.0444-0.58896-0.0704-0.82232h0.0148l0.19262 0.55933 0.37041 0.93715h0.21855l0.37412-0.93715 0.19632-0.55933h0.0148c-0.0259 0.23336-0.0704 0.58526-0.0704 0.82232v0.8853h0.51117v-2.4151h-0.57785l-0.39264 1.0853-0.14446 0.42228h-0.0148l-0.14446-0.42228-0.40376-1.0853h-0.57785z"/>
    <path d="m158.78 109.71h1.552v-0.45932h-1.0038v-0.55562h0.82232v-0.45561h-0.82232v-0.48525h0.96679v-0.45932h-1.515z"/>
    <path d="m162.09 108.71 0.0593-0.22225c0.0667-0.24078 0.13335-0.52229 0.18891-0.77788h0.0148c0.0667 0.25188 0.12964 0.5371 0.19632 0.77788l0.0593 0.22225zm0.77788 1.0001h0.57785l-0.75936-2.4151h-0.65193l-0.75935 2.4151h0.55562l0.14817-0.57415h0.74083z"/>
    <path d="m163.69 109.71h0.54821v-0.81862h0.33338c0.51117 0 0.94456-0.25188 0.94456-0.81862 0-0.58526-0.41857-0.77788-0.94456-0.77788h-0.88159zm0.54821-1.252v-0.72972h0.30004c0.28893 0 0.4445 0.0926 0.4445 0.34449 0 0.25188-0.14446 0.38523-0.4445 0.38523z"/>
    <path d="m165.94 109.71h0.54821v-0.81862h0.33338c0.51117 0 0.94456-0.25188 0.94456-0.81862 0-0.58526-0.41857-0.77788-0.94456-0.77788h-0.88159zm0.54821-1.252v-0.72972h0.30004c0.28893 0 0.4445 0.0926 0.4445 0.34449 0 0.25188-0.14446 0.38523-0.4445 0.38523z"/>
    <path d="m168.18 109.71h1.5002v-0.45932h-0.95197v-1.9558h-0.54822z"/>
    <path d="m170.09 109.71h0.54821v-2.4151h-0.54821z"/>
    <path d="m171.09 108.51c0 0.81121 0.51118 1.2372 1.1372 1.2372 0.30004 0 0.56674-0.12224 0.76677-0.3556l-0.30004-0.32967c-0.11853 0.12965-0.25929 0.21484-0.45932 0.21484-0.35189 0-0.58526-0.28892-0.58526-0.78528 0-0.48525 0.263-0.77788 0.60008-0.77788 0.17039 0 0.28522 0.0704 0.40746 0.18151l0.30003-0.33708c-0.16298-0.16669-0.41486-0.31486-0.7149-0.31486-0.6223 0-1.152 0.46673-1.152 1.2668z"/>
    <path d="m173.86 108.71 0.0593-0.22225c0.0667-0.24078 0.13335-0.52229 0.18891-0.77788h0.0148c0.0667 0.25188 0.12964 0.5371 0.19632 0.77788l0.0593 0.22225zm0.77788 1.0001h0.57785l-0.75936-2.4151h-0.65193l-0.75936 2.4151h0.55563l0.14817-0.57415h0.74083z"/>
    <path d="m175.79 109.71h0.54452v-1.9558h0.66304v-0.45932h-1.8743v0.45932h0.66675z"/>
    <path d="m177.38 109.71h0.54821v-2.4151h-0.54821z"/>
    <path d="m179.47 109.75c0.65193 0 1.0964-0.47413 1.0964-1.2631 0-0.78528-0.4445-1.2409-1.0964-1.2409-0.64823 0-1.0964 0.45191-1.0964 1.2409s0.44821 1.2631 1.0964 1.2631zm0-0.47043c-0.32597 0-0.53711-0.30744-0.53711-0.79269 0-0.48154 0.21114-0.77047 0.53711-0.77047 0.32967 0 0.5371 0.28893 0.5371 0.77047 0 0.48525-0.20743 0.79269-0.5371 0.79269z"/>
    <path d="m181.02 109.71h0.52229v-0.85566c0-0.28522-0.0445-0.60749-0.0704-0.87419h0.0148l0.23707 0.526 0.62971 1.2038h0.55933v-2.4151h-0.51858v0.85196c0 0.28522 0.0445 0.62601 0.0704 0.88159h-0.0148l-0.24077-0.5334-0.62971-1.2002h-0.55933z"/>
    <path d="m184.26 109.71h1.5002v-0.45932h-0.95197v-1.9558h-0.54822z"/>
    <path d="m186.65 108.71 0.0593-0.22225c0.0667-0.24078 0.13335-0.52229 0.18891-0.77788h0.0148c0.0667 0.25188 0.12965 0.5371 0.19632 0.77788l0.0593 0.22225zm0.77788 1.0001h0.57785l-0.75935-2.4151h-0.65194l-0.75935 2.4151h0.55562l0.14817-0.57415h0.74083z"/>
    <path d="m188.61 109.71h0.54451v-0.85937l0.72972-1.5558h-0.57044l-0.21484 0.55563c-0.0667 0.1815-0.13705 0.34819-0.20373 0.5334h-0.0148c-0.0704-0.18521-0.13335-0.3519-0.19632-0.5334l-0.21854-0.55563h-0.58156l0.72602 1.5558z"/>
    <path d="m190.13 109.71h1.552v-0.45932h-1.0038v-0.55562h0.82233v-0.45561h-0.82233v-0.48525h0.96679v-0.45932h-1.515z"/>
    <path d="m192.7 107.72h0.27781c0.28522 0 0.4408 0.0815 0.4408 0.31856 0 0.23707-0.15558 0.3593-0.4408 0.3593h-0.27781zm1.3705 1.9817-0.54451-0.96679c0.25559-0.11483 0.42968-0.34078 0.42968-0.69638 0-0.57415-0.42227-0.75195-0.93345-0.75195h-0.87048v2.4151h0.54822v-0.87048h0.29633l0.46302 0.87048z"/>
   </g>
   <path d="m246.7 57.981v32.808l4.1341 3.7042h60.689v-32.808l-4.1341-3.7042z" fill="#1d232d" stroke="#2f3744"/>
   <path d="m246.7 52.689v5.2917h51.329v-1.5875l-4.1341-3.7042z" fill="#1d232d" stroke="#2f3744"/>
   <g fill="#e8eaec" aria-label="GAME RESOURCES">
    <path d="m249.3 55.597c0 0.81121 0.51859 1.2372 1.1705 1.2372 0.33708 0 0.63712-0.14076 0.81121-0.29263v-1.1113h-0.88529v0.4445h0.40005v0.41487c-0.0593 0.04815-0.15928 0.07408-0.25559 0.07408-0.45561 0-0.68157-0.28892-0.68157-0.78528 0-0.48525 0.2667-0.77788 0.63712-0.77788 0.20743 0 0.32226 0.07038 0.4445 0.1815l0.30004-0.33708c-0.16299-0.16298-0.41116-0.31486-0.75195-0.31486-0.65564 0-1.189 0.46673-1.189 1.2668z"/>
    <path d="m252.25 55.79 0.0593-0.22225c0.0667-0.24077 0.13335-0.52229 0.18891-0.77788h0.0148c0.0667 0.25188 0.12965 0.5371 0.19633 0.77788l0.0593 0.22225zm0.77787 1.0001h0.57786l-0.75936-2.4151h-0.65193l-0.75936 2.4151h0.55563l0.14816-0.57415h0.74084z"/>
    <path d="m253.86 56.79h0.50377v-0.8853c0-0.23707-0.0445-0.58896-0.0704-0.82232h0.0148l0.19261 0.55933 0.37042 0.93716h0.21855l0.37412-0.93716 0.19632-0.55933h0.0148c-0.0259 0.23336-0.0704 0.58526-0.0704 0.82232v0.8853h0.51117v-2.4151h-0.57785l-0.39264 1.0853-0.14446 0.42228h-0.0148l-0.14446-0.42228-0.40376-1.0853h-0.57785z"/>
    <path d="m256.68 56.79h1.552v-0.45932h-1.0038v-0.55563h0.82232v-0.45561h-0.82232v-0.48525h0.96678v-0.45932h-1.515z"/>
    <path d="m260.03 54.808h0.27781c0.28522 0 0.4408 0.08149 0.4408 0.31856 0 0.23707-0.15558 0.3593-0.4408 0.3593h-0.27781zm1.3705 1.9817-0.54451-0.96679c0.25558-0.11483 0.42968-0.34078 0.42968-0.69638 0-0.57415-0.42227-0.75195-0.93345-0.75195h-0.87048v2.4151h0.54822v-0.87048h0.29633l0.46302 0.87048z"/>
    <path d="m261.76 56.79h1.552v-0.45932h-1.0038v-0.55563h0.82233v-0.45561h-0.82233v-0.48525h0.96679v-0.45932h-1.515z"/>
    <path d="m263.63 56.486c0.24818 0.22966 0.58156 0.34819 0.89641 0.34819 0.57415 0 0.90753-0.34819 0.90753-0.74824 0-0.34078-0.18521-0.5371-0.47784-0.65564l-0.30745-0.12594c-0.21114-0.0852-0.37042-0.13705-0.37042-0.28522 0-0.13706 0.12224-0.21855 0.30745-0.21855 0.19262 0 0.34449 0.07038 0.50377 0.19262l0.27411-0.34449c-0.20744-0.20743-0.50007-0.31856-0.77788-0.31856-0.50006 0-0.85937 0.31856-0.85937 0.71861 0 0.3519 0.23707 0.55933 0.48895 0.65934l0.31115 0.13335c0.21114 0.0889 0.3482 0.13706 0.3482 0.28893 0 0.14446-0.11113 0.23336-0.33708 0.23336-0.20003 0-0.42228-0.10372-0.59267-0.25188z"/>
    <path d="m266.82 56.834c0.65194 0 1.0964-0.47413 1.0964-1.2631 0-0.78528-0.4445-1.2409-1.0964-1.2409-0.64823 0-1.0964 0.45191-1.0964 1.2409s0.4482 1.2631 1.0964 1.2631zm0-0.47043c-0.32597 0-0.5371-0.30745-0.5371-0.79269 0-0.48154 0.21113-0.77047 0.5371-0.77047 0.32967 0 0.53711 0.28892 0.53711 0.77047 0 0.48525-0.20744 0.79269-0.53711 0.79269z"/>
    <path d="m268.36 55.671c0 0.81121 0.33708 1.1631 0.96309 1.1631 0.626 0 0.95567-0.3519 0.95567-1.1631v-1.2965h-0.52599v1.352c0 0.47413-0.15928 0.63712-0.42968 0.63712-0.27041 0-0.41857-0.16298-0.41857-0.63712v-1.352h-0.54452z"/>
    <path d="m271.37 54.808h0.27781c0.28522 0 0.4408 0.08149 0.4408 0.31856 0 0.23707-0.15558 0.3593-0.4408 0.3593h-0.27781zm1.3705 1.9817-0.54451-0.96679c0.25558-0.11483 0.42968-0.34078 0.42968-0.69638 0-0.57415-0.42228-0.75195-0.93345-0.75195h-0.87048v2.4151h0.54822v-0.87048h0.29633l0.46302 0.87048z"/>
    <path d="m272.99 55.597c0 0.81121 0.51118 1.2372 1.1372 1.2372 0.30004 0 0.56674-0.12224 0.76677-0.3556l-0.30004-0.32967c-0.11853 0.12965-0.25929 0.21484-0.45932 0.21484-0.35189 0-0.58526-0.28892-0.58526-0.78528 0-0.48525 0.263-0.77788 0.60008-0.77788 0.17039 0 0.28522 0.07038 0.40746 0.1815l0.30004-0.33708c-0.16299-0.16669-0.41487-0.31486-0.71491-0.31486-0.6223 0-1.152 0.46673-1.152 1.2668z"/>
    <path d="m275.25 56.79h1.552v-0.45932h-1.0038v-0.55563h0.82232v-0.45561h-0.82232v-0.48525h0.96679v-0.45932h-1.515z"/>
    <path d="m277.12 56.486c0.24818 0.22966 0.58156 0.34819 0.89641 0.34819 0.57415 0 0.90752-0.34819 0.90752-0.74824 0-0.34078-0.1852-0.5371-0.47783-0.65564l-0.30745-0.12594c-0.21114-0.0852-0.37042-0.13705-0.37042-0.28522 0-0.13706 0.12224-0.21855 0.30745-0.21855 0.19262 0 0.34449 0.07038 0.50377 0.19262l0.27411-0.34449c-0.20744-0.20743-0.50007-0.31856-0.77788-0.31856-0.50006 0-0.85937 0.31856-0.85937 0.71861 0 0.3519 0.23707 0.55933 0.48895 0.65934l0.31115 0.13335c0.21114 0.0889 0.3482 0.13706 0.3482 0.28893 0 0.14446-0.11113 0.23336-0.33708 0.23336-0.20003 0-0.42228-0.10372-0.59267-0.25188z"/>
   </g>
  </g>
  <g fill="#2f3744" stroke-linecap="round" stroke-width=".26458">
   <g stroke="#6f8ce9">
    <path d="m251.86 61.552v18.521h38.365v-14.817l-4.1341-3.7042h-2.0671z"/>
    <path d="m254.77 64.198v18.521h38.365v-14.817l-4.1341-3.7042h-2.0671z"/>
    <path d="m257.68 66.844v18.521h38.365v-14.817l-4.1341-3.7042h-2.0671z"/>
    <path d="m260.6 69.49v18.521h38.365v-14.817l-4.1341-3.7042h-2.0671z"/>
    <path d="m263.51 72.136v18.521h38.365v-14.817l-4.1341-3.7042h-2.0671z"/>
   </g>
   <path d="m156.75 121.48v24.871l4.1341 3.7042h87.147v-24.871l-4.1341-3.7042z" stroke="#7b8694"/>
   <path d="m156.75 116.19v5.2917h32.808v-1.5875l-4.1341-3.7042z" stroke="#7b8694"/>
  </g>
  <g>
   <g stroke-linecap="round" stroke-width=".26458">
    <g fill="#e8eaec" aria-label="SUBSYSTEMS">
     <path d="m159.3 119.99c0.24818 0.22965 0.58155 0.34819 0.89641 0.34819 0.57414 0 0.90752-0.34819 0.90752-0.74825 0-0.34078-0.18521-0.5371-0.47784-0.65563l-0.30744-0.12595c-0.21114-0.0852-0.37042-0.13705-0.37042-0.28522 0-0.13705 0.12224-0.21854 0.30744-0.21854 0.19262 0 0.34449 0.0704 0.50377 0.19261l0.27411-0.34448c-0.20743-0.20744-0.50006-0.31856-0.77788-0.31856-0.50006 0-0.85936 0.31856-0.85936 0.71861 0 0.35189 0.23706 0.55933 0.48895 0.65934l0.31115 0.13335c0.21114 0.0889 0.34819 0.13705 0.34819 0.28892 0 0.14447-0.11113 0.23337-0.33708 0.23337-0.20002 0-0.42228-0.10372-0.59267-0.25189z"/>
     <path d="m161.5 119.17c0 0.81121 0.33708 1.1631 0.96308 1.1631 0.62601 0 0.95568-0.3519 0.95568-1.1631v-1.2965h-0.52599v1.352c0 0.47413-0.15928 0.63712-0.42969 0.63712-0.2704 0-0.41857-0.16299-0.41857-0.63712v-1.352h-0.54451z"/>
     <path d="m163.96 120.29h0.89641c0.52599 0 0.94085-0.21855 0.94085-0.7112 0-0.32227-0.1815-0.50377-0.52599-0.56674v-0.0148c0.28152-0.0741 0.40746-0.30744 0.40746-0.52229 0-0.46302-0.38894-0.60007-0.8927-0.60007h-0.82603zm0.54821-1.4409v-0.55192h0.2593c0.25188 0 0.37782 0.0741 0.37782 0.25559 0 0.18151-0.11853 0.29633-0.38523 0.29633zm0 1.0186v-0.63341h0.30375c0.30003 0 0.4519 0.0926 0.4519 0.30374 0 0.21855-0.15557 0.32967-0.4519 0.32967z"/>
     <path d="m165.98 119.99c0.24818 0.22965 0.58156 0.34819 0.89641 0.34819 0.57415 0 0.90752-0.34819 0.90752-0.74825 0-0.34078-0.1852-0.5371-0.47783-0.65563l-0.30745-0.12595c-0.21114-0.0852-0.37042-0.13705-0.37042-0.28522 0-0.13705 0.12224-0.21854 0.30745-0.21854 0.19262 0 0.34449 0.0704 0.50377 0.19261l0.2741-0.34448c-0.20743-0.20744-0.50006-0.31856-0.77787-0.31856-0.50006 0-0.85937 0.31856-0.85937 0.71861 0 0.35189 0.23707 0.55933 0.48895 0.65934l0.31115 0.13335c0.21114 0.0889 0.34819 0.13705 0.34819 0.28892 0 0.14447-0.11112 0.23337-0.33708 0.23337-0.20002 0-0.42227-0.10372-0.59266-0.25189z"/>
     <path d="m168.55 120.29h0.54452v-0.85937l0.72972-1.5558h-0.57044l-0.21484 0.55562c-0.0667 0.18151-0.13706 0.3482-0.20373 0.5334h-0.0148c-0.0704-0.1852-0.13335-0.35189-0.19632-0.5334l-0.21855-0.55562h-0.58155l0.72601 1.5558z"/>
     <path d="m169.84 119.99c0.24818 0.22965 0.58155 0.34819 0.89641 0.34819 0.57414 0 0.90752-0.34819 0.90752-0.74825 0-0.34078-0.18521-0.5371-0.47784-0.65563l-0.30745-0.12595c-0.21113-0.0852-0.37041-0.13705-0.37041-0.28522 0-0.13705 0.12223-0.21854 0.30744-0.21854 0.19262 0 0.34449 0.0704 0.50377 0.19261l0.27411-0.34448c-0.20744-0.20744-0.50006-0.31856-0.77788-0.31856-0.50006 0-0.85936 0.31856-0.85936 0.71861 0 0.35189 0.23706 0.55933 0.48895 0.65934l0.31115 0.13335c0.21113 0.0889 0.34819 0.13705 0.34819 0.28892 0 0.14447-0.11113 0.23337-0.33708 0.23337-0.20003 0-0.42228-0.10372-0.59267-0.25189z"/>
     <path d="m172.45 120.29h0.54452v-1.9558h0.66304v-0.45932h-1.8743v0.45932h0.66675z"/>
     <path d="m174.03 120.29h1.552v-0.45932h-1.0038v-0.55563h0.82232v-0.45561h-0.82232v-0.48524h0.96678v-0.45932h-1.515z"/>
     <path d="m176.06 120.29h0.50376v-0.8853c0-0.23707-0.0444-0.58896-0.0704-0.82233h0.0148l0.19262 0.55933 0.37042 0.93716h0.21854l0.37412-0.93716 0.19632-0.55933h0.0148c-0.0259 0.23337-0.0704 0.58526-0.0704 0.82233v0.8853h0.51118v-2.4151h-0.57785l-0.39265 1.0853-0.14446 0.42228h-0.0148l-0.14446-0.42228-0.40375-1.0853h-0.57785z"/>
     <path d="m178.73 119.99c0.24818 0.22965 0.58155 0.34819 0.89641 0.34819 0.57414 0 0.90752-0.34819 0.90752-0.74825 0-0.34078-0.18521-0.5371-0.47784-0.65563l-0.30745-0.12595c-0.21113-0.0852-0.37041-0.13705-0.37041-0.28522 0-0.13705 0.12223-0.21854 0.30744-0.21854 0.19262 0 0.34449 0.0704 0.50377 0.19261l0.27411-0.34448c-0.20744-0.20744-0.50006-0.31856-0.77788-0.31856-0.50006 0-0.85936 0.31856-0.85936 0.71861 0 0.35189 0.23706 0.55933 0.48895 0.65934l0.31115 0.13335c0.21113 0.0889 0.34819 0.13705 0.34819 0.28892 0 0.14447-0.11113 0.23337-0.33708 0.23337-0.20003 0-0.42228-0.10372-0.59267-0.25189z"/>
    </g>
    <rect x="264.5" y="124.66" width="33.073" height="21.167" fill="#1d232d" stroke="#6f8ce9"/>
    <g fill="#e8eaec" aria-label="Resource Cache">
     <path d="m269.14 134.62h0.40746c0.37783 0 0.58526 0.11483 0.58526 0.43339 0 0.31486-0.20743 0.47043-0.58526 0.47043h-0.40746zm1.3742 2.1818-0.6186-1.0594c0.32967-0.0852 0.54452-0.31115 0.54452-0.68898 0-0.50377-0.3556-0.68157-0.84826-0.68157h-0.76306v2.4299h0.31115v-1.0261h0.43709l0.58526 1.0261z"/>
     <path d="m270.78 135.9c0 0.58896 0.38153 0.94086 0.86307 0.94086 0.24447 0 0.43709-0.0852 0.59266-0.18521l-0.10742-0.20002c-0.13335 0.0852-0.27781 0.14075-0.4482 0.14075-0.34449 0-0.57785-0.24447-0.60008-0.63341h1.215c7e-3 -0.0445 0.0111-0.10372 0.0111-0.16669 0-0.51488-0.25929-0.84455-0.7186-0.84455-0.41117 0-0.80751 0.35931-0.80751 0.94827zm0.29633-0.13705c0.037-0.36301 0.2667-0.57045 0.51858-0.57045 0.28152 0 0.4445 0.20373 0.4445 0.57045z"/>
     <path d="m272.55 136.59c0.17039 0.14076 0.41486 0.24818 0.67045 0.24818 0.42598 0 0.65934-0.24448 0.65934-0.53711 0-0.34078-0.28892-0.4482-0.54821-0.54451-0.20373-0.0778-0.40005-0.14446-0.40005-0.31115 0-0.13705 0.10371-0.25929 0.32967-0.25929 0.15928 0 0.28892 0.0667 0.41116 0.15928l0.14446-0.19262c-0.13705-0.11112-0.33337-0.20373-0.55933-0.20373-0.38893 0-0.61859 0.22225-0.61859 0.51118 0 0.30374 0.28151 0.42598 0.5371 0.51858 0.19632 0.0741 0.41116 0.15558 0.41116 0.34079 0 0.15557-0.11853 0.28151-0.3556 0.28151-0.21484 0-0.37412-0.0889-0.52969-0.21484z"/>
     <path d="m274.17 135.9c0 0.59637 0.39265 0.94086 0.83344 0.94086 0.4408 0 0.83344-0.34449 0.83344-0.94086 0-0.60378-0.39264-0.94827-0.83344-0.94827-0.44079 0-0.83344 0.34449-0.83344 0.94827zm0.31486 0c0-0.41487 0.21114-0.69638 0.51858-0.69638 0.31115 0 0.51859 0.28151 0.51859 0.69638 0 0.41116-0.20744 0.68898-0.51859 0.68898-0.30744 0-0.51858-0.27782-0.51858-0.68898z"/>
     <path d="m276.29 136.14c0 0.45931 0.1704 0.70379 0.55192 0.70379 0.24818 0 0.42598-0.12965 0.59267-0.32597h0.0111l0.0259 0.28152h0.25189v-1.8002h-0.30374v1.2779c-0.1704 0.21114-0.30004 0.30374-0.48525 0.30374-0.23707 0-0.33708-0.14446-0.33708-0.48154v-1.1001h-0.30745z"/>
     <path d="m278.33 136.8h0.30374v-1.1557c0.12223-0.30374 0.30374-0.41487 0.45561-0.41487 0.0741 0 0.11483 0.0111 0.1741 0.0296l0.0593-0.2667c-0.0593-0.0259-0.11483-0.037-0.19261-0.037-0.20373 0-0.38894 0.14447-0.51118 0.37042h-0.0111l-0.0259-0.32597h-0.25188z"/>
     <path d="m279.45 135.9c0 0.59637 0.36671 0.94086 0.84455 0.94086 0.21484 0 0.42228-0.0889 0.58526-0.23336l-0.13705-0.20003c-0.10743 0.0963-0.25189 0.18151-0.42228 0.18151-0.32967 0-0.55563-0.27782-0.55563-0.68898 0-0.41487 0.23707-0.69638 0.56304-0.69638 0.14446 0 0.25559 0.0667 0.36301 0.15928l0.15187-0.19633c-0.12224-0.11482-0.28893-0.21484-0.52599-0.21484-0.46303 0-0.86678 0.34449-0.86678 0.94827z"/>
     <path d="m281.06 135.9c0 0.58896 0.38153 0.94086 0.86308 0.94086 0.24447 0 0.43709-0.0852 0.59266-0.18521l-0.10742-0.20002c-0.13335 0.0852-0.27781 0.14075-0.4482 0.14075-0.34449 0-0.57785-0.24447-0.60008-0.63341h1.215c7e-3 -0.0445 0.0111-0.10372 0.0111-0.16669 0-0.51488-0.25929-0.84455-0.71861-0.84455-0.41116 0-0.80751 0.35931-0.80751 0.94827zm0.29634-0.13705c0.037-0.36301 0.2667-0.57045 0.51858-0.57045 0.28152 0 0.4445 0.20373 0.4445 0.57045z"/>
     <path d="m283.65 135.58c0 0.79269 0.45561 1.2594 1.0668 1.2594 0.30744 0 0.54822-0.12965 0.73713-0.3519l-0.1741-0.18891c-0.15557 0.1741-0.32596 0.27041-0.55562 0.27041-0.46302 0-0.75565-0.38524-0.75565-0.99643 0-0.60378 0.30744-0.9816 0.77046-0.9816 0.20003 0 0.3556 0.0889 0.48525 0.22595l0.1741-0.19632c-0.14447-0.15928-0.37413-0.30004-0.66305-0.30004-0.6223 0-1.0853 0.47784-1.0853 1.2594z"/>
     <path d="m285.78 136.33c0 0.32227 0.22595 0.51118 0.5297 0.51118 0.22225 0 0.42227-0.11853 0.59637-0.25929h7e-3l0.0259 0.21484h0.25189v-1.1038c0-0.44821-0.18521-0.74084-0.62601-0.74084-0.28892 0-0.5408 0.12594-0.70749 0.23337l0.12223 0.21113c0.14076-0.0963 0.32597-0.19261 0.53711-0.19261 0.29263 0 0.37042 0.22225 0.37042 0.45191-0.76677 0.0852-1.1076 0.28151-1.1076 0.67415zm0.30004-0.0222c0-0.22966 0.20373-0.37783 0.80751-0.45191v0.50006c-0.1741 0.15558-0.31856 0.24077-0.49266 0.24077-0.1778 0-0.31485-0.0852-0.31485-0.28892z"/>
     <path d="m287.64 135.9c0 0.59637 0.36672 0.94086 0.84455 0.94086 0.21485 0 0.42228-0.0889 0.58526-0.23336l-0.13705-0.20003c-0.10742 0.0963-0.25188 0.18151-0.42228 0.18151-0.32967 0-0.55562-0.27782-0.55562-0.68898 0-0.41487 0.23707-0.69638 0.56303-0.69638 0.14447 0 0.25559 0.0667 0.36301 0.15928l0.15187-0.19633c-0.12224-0.11482-0.28892-0.21484-0.52599-0.21484-0.46302 0-0.86678 0.34449-0.86678 0.94827z"/>
     <path d="m289.45 136.8h0.30374v-1.3039c0.18151-0.1815 0.30745-0.27781 0.49266-0.27781 0.23706 0 0.34078 0.14446 0.34078 0.48154v1.1001h0.30374v-1.1409c0-0.45932-0.17039-0.7038-0.54821-0.7038-0.24818 0-0.42969 0.13335-0.60008 0.29634l0.0111-0.37042v-0.71861h-0.30374z"/>
     <path d="m291.34 135.9c0 0.58896 0.38153 0.94086 0.86308 0.94086 0.24447 0 0.43709-0.0852 0.59266-0.18521l-0.10742-0.20002c-0.13335 0.0852-0.27781 0.14075-0.4482 0.14075-0.34449 0-0.57785-0.24447-0.60008-0.63341h1.215c7e-3 -0.0445 0.0111-0.10372 0.0111-0.16669 0-0.51488-0.25929-0.84455-0.71861-0.84455-0.41116 0-0.80751 0.35931-0.80751 0.94827zm0.29634-0.13705c0.037-0.36301 0.2667-0.57045 0.51858-0.57045 0.28152 0 0.4445 0.20373 0.4445 0.57045z"/>
    </g>
    <rect x="217.6" y="128.51" width="21.039" height="13.465" fill="#1d232d" stroke="#6f8ce9"/>
    <g fill="#e8eaec" aria-label="Video Player">
     <path d="m224.52 134.42h0.3593l0.77047-2.4299h-0.31486l-0.38893 1.3113c-0.0815 0.28892-0.14447 0.51858-0.23337 0.8038h-0.0148c-0.0889-0.28522-0.14817-0.51488-0.23337-0.8038l-0.39264-1.3113h-0.32597z"/>
     <path d="m226.1 132.25c0.11853 0 0.21114-0.0815 0.21114-0.19633 0-0.11853-0.0926-0.19632-0.21114-0.19632s-0.21114 0.0778-0.21114 0.19632c0 0.11483 0.0926 0.19633 0.21114 0.19633zm-0.15558 2.1706h0.30374v-1.8002h-0.30374z"/>
     <path d="m226.73 133.52c0 0.60008 0.29263 0.94086 0.74454 0.94086 0.21114 0 0.40375-0.11853 0.54451-0.25559h0.0111l0.0259 0.21114h0.25189v-2.6374h-0.30745v0.69268l0.0148 0.30745c-0.15928-0.12965-0.29634-0.20744-0.50377-0.20744-0.41116 0-0.78158 0.36301-0.78158 0.94827zm0.31485-4e-3c0-0.41117 0.22966-0.68898 0.51859-0.68898 0.14816 0 0.28522 0.0519 0.43709 0.18891v0.94086c-0.14817 0.16669-0.29263 0.24818-0.45932 0.24818-0.31485 0-0.49636-0.25929-0.49636-0.68897z"/>
     <path d="m228.78 133.52c0 0.58896 0.38153 0.94086 0.86307 0.94086 0.24448 0 0.4371-0.0852 0.59267-0.18521l-0.10742-0.20002c-0.13335 0.0852-0.27781 0.14075-0.4482 0.14075-0.34449 0-0.57785-0.24447-0.60008-0.63341h1.215c7e-3 -0.0445 0.0111-0.10372 0.0111-0.16669 0-0.51488-0.25929-0.84455-0.71861-0.84455-0.41116 0-0.80751 0.35931-0.80751 0.94827zm0.29634-0.13705c0.037-0.36301 0.2667-0.57045 0.51858-0.57045 0.28152 0 0.4445 0.20373 0.4445 0.57045z"/>
     <path d="m230.62 133.52c0 0.59637 0.39264 0.94086 0.83344 0.94086 0.44079 0 0.83343-0.34449 0.83343-0.94086 0-0.60378-0.39264-0.94827-0.83343-0.94827-0.4408 0-0.83344 0.34449-0.83344 0.94827zm0.31485 0c0-0.41487 0.21114-0.69638 0.51859-0.69638 0.31115 0 0.51858 0.28151 0.51858 0.69638 0 0.41116-0.20743 0.68898-0.51858 0.68898-0.30745 0-0.51859-0.27782-0.51859-0.68898z"/>
     <path d="m223.53 139.08h0.31116v-0.96308h0.43709c0.52969 0 0.89641-0.24077 0.89641-0.75195 0-0.5334-0.35931-0.7149-0.89641-0.7149h-0.74825zm0.31116-1.215v-0.96679h0.39634c0.41857 0 0.62971 0.11483 0.62971 0.46672 0 0.34449-0.20373 0.50007-0.62971 0.50007z"/>
     <path d="m225.62 138.72c0 0.26299 0.0926 0.40745 0.32226 0.40745 0.0815 0 0.13335-0.0111 0.1741-0.0296l-0.0408-0.22966c-0.0333 7e-3 -0.0481 7e-3 -0.0667 7e-3 -0.0445 0-0.0852-0.037-0.0852-0.13335v-2.2966h-0.30374z"/>
     <path d="m226.48 138.62c0 0.32226 0.22595 0.51117 0.52969 0.51117 0.22225 0 0.42228-0.11853 0.59637-0.25929h7e-3l0.0259 0.21484h0.25188v-1.1038c0-0.4482-0.1852-0.74083-0.626-0.74083-0.28893 0-0.54081 0.12594-0.7075 0.23336l0.12224 0.21114c0.14076-0.0963 0.32597-0.19262 0.5371-0.19262 0.29263 0 0.37042 0.22225 0.37042 0.45191-0.76676 0.0852-1.1075 0.28152-1.1075 0.67416zm0.30003-0.0222c0-0.22965 0.20373-0.37782 0.80751-0.4519v0.50006c-0.17409 0.15557-0.31856 0.24077-0.49265 0.24077-0.1778 0-0.31486-0.0852-0.31486-0.28893z"/>
     <path d="m228.35 139.58-0.0593 0.24077c0.0593 0.0222 0.12965 0.0371 0.21114 0.0371 0.36301 0 0.54822-0.27041 0.67416-0.62601l0.67786-1.9484h-0.29633l-0.32226 0.99642c-0.0482 0.15928-0.10002 0.34449-0.15187 0.50747h-0.0148c-0.0556-0.16669-0.11853-0.35189-0.1741-0.50747l-0.36671-0.99642h-0.31485l0.72231 1.8039-0.0408 0.13335c-0.0741 0.22225-0.20373 0.38523-0.40746 0.38523-0.0445 0-0.10001-0.0148-0.13705-0.0259z"/>
     <path d="m230.05 138.19c0 0.58896 0.38153 0.94085 0.86308 0.94085 0.24447 0 0.43709-0.0852 0.59266-0.1852l-0.10742-0.20003c-0.13335 0.0852-0.27781 0.14076-0.4482 0.14076-0.34449 0-0.57785-0.24448-0.60008-0.63341h1.215c7e-3 -0.0444 0.0111-0.10372 0.0111-0.16669 0-0.51488-0.25929-0.84455-0.71861-0.84455-0.41116 0-0.80751 0.3593-0.80751 0.94827zm0.29634-0.13706c0.037-0.36301 0.2667-0.57044 0.51858-0.57044 0.28152 0 0.4445 0.20373 0.4445 0.57044z"/>
     <path d="m232.02 139.08h0.30374v-1.1557c0.12224-0.30374 0.30374-0.41486 0.45561-0.41486 0.0741 0 0.11483 0.0111 0.1741 0.0296l0.0593-0.2667c-0.0593-0.0259-0.11483-0.037-0.19262-0.037-0.20373 0-0.38894 0.14446-0.51118 0.37042h-0.0111l-0.0259-0.32597h-0.25188z"/>
    </g>
    <rect x="191.14" y="128.51" width="21.039" height="13.465" fill="#1d232d" stroke="#6f8ce9"/>
    <g fill="#e8eaec" aria-label="Audio Engine">
     <path d="m197.79 133.43 0.11854-0.37042c0.0852-0.27041 0.16298-0.53711 0.24077-0.81862h0.0148c0.0778 0.28151 0.15557 0.54821 0.24077 0.81862l0.11483 0.37042zm1.0409 0.98901h0.32596l-0.82232-2.4299h-0.34819l-0.82233 2.4299h0.31485l0.23337-0.74084h0.88529z"/>
     <path d="m199.41 133.76c0 0.45931 0.17039 0.70379 0.55192 0.70379 0.24818 0 0.42598-0.12965 0.59267-0.32597h0.0111l0.0259 0.28152h0.25189v-1.8002h-0.30375v1.2779c-0.17039 0.21114-0.30003 0.30374-0.48524 0.30374-0.23707 0-0.33708-0.14446-0.33708-0.48154v-1.1001h-0.30745z"/>
     <path d="m201.33 133.52c0 0.60008 0.29263 0.94086 0.74454 0.94086 0.21113 0 0.40375-0.11853 0.54451-0.25559h0.0111l0.0259 0.21114h0.25189v-2.6374h-0.30745v0.69268l0.0148 0.30745c-0.15928-0.12965-0.29634-0.20744-0.50377-0.20744-0.41116 0-0.78158 0.36301-0.78158 0.94827zm0.31485-4e-3c0-0.41117 0.22966-0.68898 0.51859-0.68898 0.14816 0 0.28522 0.0519 0.43709 0.18891v0.94086c-0.14817 0.16669-0.29263 0.24818-0.45932 0.24818-0.31485 0-0.49636-0.25929-0.49636-0.68897z"/>
     <path d="m203.67 132.25c0.11853 0 0.21113-0.0815 0.21113-0.19633 0-0.11853-0.0926-0.19632-0.21113-0.19632-0.11854 0-0.21114 0.0778-0.21114 0.19632 0 0.11483 0.0926 0.19633 0.21114 0.19633zm-0.15558 2.1706h0.30374v-1.8002h-0.30374z"/>
     <path d="m204.29 133.52c0 0.59637 0.39265 0.94086 0.83344 0.94086 0.4408 0 0.83344-0.34449 0.83344-0.94086 0-0.60378-0.39264-0.94827-0.83344-0.94827-0.44079 0-0.83344 0.34449-0.83344 0.94827zm0.31486 0c0-0.41487 0.21114-0.69638 0.51858-0.69638 0.31115 0 0.51859 0.28151 0.51859 0.69638 0 0.41116-0.20744 0.68898-0.51859 0.68898-0.30744 0-0.51858-0.27782-0.51858-0.68898z"/>
     <path d="m196.67 139.08h1.4372v-0.26299h-1.1261v-0.88159h0.91863v-0.263h-0.91863v-0.76306h1.089v-0.25929h-1.4002z"/>
     <path d="m198.58 139.08h0.30374v-1.3039c0.1815-0.18151 0.30744-0.27782 0.49265-0.27782 0.23707 0 0.34079 0.14447 0.34079 0.48155v1.1001h0.30374v-1.1409c0-0.45932-0.17039-0.70379-0.54822-0.70379-0.24818 0-0.43339 0.13335-0.60378 0.30374h-0.0111l-0.0259-0.25929h-0.25188z"/>
     <path d="m200.74 139.39c0-0.10372 0.0556-0.21114 0.18521-0.30375 0.0778 0.0222 0.16298 0.0296 0.23336 0.0296h0.31115c0.23336 0 0.36301 0.0556 0.36301 0.22225 0 0.18891-0.22595 0.36671-0.57044 0.36671-0.32597 0-0.52229-0.12224-0.52229-0.31485zm-0.2667 0.0407c0 0.31115 0.30374 0.48525 0.74454 0.48525 0.55933 0 0.91122-0.28893 0.91122-0.6223 0-0.30004-0.21113-0.42969-0.62971-0.42969h-0.34819c-0.24447 0-0.31856-0.0815-0.31856-0.19632 0-0.10001 0.0519-0.15928 0.11483-0.21484 0.0815 0.0408 0.18151 0.063 0.27041 0.063 0.36671 0 0.65934-0.24077 0.65934-0.626 0-0.15187-0.063-0.28893-0.14817-0.37042h0.37042v-0.23336h-0.626c-0.0667-0.0259-0.15558-0.0445-0.25559-0.0445-0.36671 0-0.67787 0.24818-0.67787 0.64082 0 0.21484 0.11483 0.38894 0.23337 0.48525v0.0148c-0.0926 0.063-0.19632 0.18151-0.19632 0.33338 0 0.14076 0.0704 0.23706 0.15928 0.29263v0.0148c-0.16299 0.11113-0.263 0.25559-0.263 0.40746zm0.74454-1.1187c-0.20744 0-0.38153-0.16668-0.38153-0.42968s0.17039-0.41857 0.38153-0.41857 0.38153 0.15557 0.38153 0.41857-0.1741 0.42968-0.38153 0.42968z"/>
     <path d="m202.63 136.91c0.11854 0 0.21114-0.0815 0.21114-0.19632 0-0.11853-0.0926-0.19632-0.21114-0.19632-0.11853 0-0.21113 0.0778-0.21113 0.19632 0 0.11483 0.0926 0.19632 0.21113 0.19632zm-0.15557 2.1706h0.30374v-1.8002h-0.30374z"/>
     <path d="m203.39 139.08h0.30374v-1.3039c0.18151-0.18151 0.30745-0.27782 0.49266-0.27782 0.23707 0 0.34078 0.14447 0.34078 0.48155v1.1001h0.30374v-1.1409c0-0.45932-0.17039-0.70379-0.54821-0.70379-0.24818 0-0.43339 0.13335-0.60378 0.30374h-0.0111l-0.0259-0.25929h-0.25189z"/>
     <path d="m205.28 138.19c0 0.58896 0.38153 0.94085 0.86307 0.94085 0.24448 0 0.43709-0.0852 0.59267-0.1852l-0.10742-0.20003c-0.13335 0.0852-0.27782 0.14076-0.44821 0.14076-0.34448 0-0.57785-0.24448-0.60007-0.63341h1.215c7e-3 -0.0444 0.0111-0.10372 0.0111-0.16669 0-0.51488-0.25929-0.84455-0.71861-0.84455-0.41116 0-0.80751 0.3593-0.80751 0.94827zm0.29633-0.13706c0.0371-0.36301 0.2667-0.57044 0.51859-0.57044 0.28151 0 0.4445 0.20373 0.4445 0.57044z"/>
    </g>
    <rect x="162.04" y="128.51" width="21.039" height="13.465" fill="#1d232d" stroke="#6f8ce9"/>
    <g fill="#e8eaec" aria-label="Rendering Engine">
     <path d="m165.2 132.23h0.40746c0.37783 0 0.58526 0.11483 0.58526 0.43339 0 0.31485-0.20743 0.47043-0.58526 0.47043h-0.40746zm1.3742 2.1818-0.61859-1.0594c0.32967-0.0852 0.54451-0.31115 0.54451-0.68898 0-0.50377-0.3556-0.68157-0.84826-0.68157h-0.76306v2.4299h0.31115v-1.0261h0.4371l0.58526 1.0261z"/>
     <path d="m166.84 133.52c0 0.58896 0.38153 0.94086 0.86307 0.94086 0.24448 0 0.43709-0.0852 0.59267-0.18521l-0.10742-0.20002c-0.13335 0.0852-0.27782 0.14075-0.44821 0.14075-0.34449 0-0.57785-0.24447-0.60007-0.63341h1.215c7e-3 -0.0445 0.0111-0.10372 0.0111-0.16669 0-0.51488-0.2593-0.84455-0.71861-0.84455-0.41117 0-0.80751 0.35931-0.80751 0.94827zm0.29633-0.13705c0.037-0.36301 0.2667-0.57045 0.51859-0.57045 0.28151 0 0.4445 0.20373 0.4445 0.57045z"/>
     <path d="m168.81 134.42h0.30375v-1.3039c0.1815-0.1815 0.30744-0.27781 0.49265-0.27781 0.23707 0 0.34078 0.14446 0.34078 0.48154v1.1001h0.30375v-1.1409c0-0.45931-0.1704-0.70379-0.54822-0.70379-0.24818 0-0.43339 0.13335-0.60378 0.30374h-0.0111l-0.0259-0.25929h-0.25189z"/>
     <path d="m170.71 133.52c0 0.60008 0.29263 0.94086 0.74453 0.94086 0.21114 0 0.40376-0.11853 0.54452-0.25559h0.0111l0.0259 0.21114h0.25188v-2.6374h-0.30744v0.69268l0.0148 0.30745c-0.15928-0.12965-0.29633-0.20744-0.50376-0.20744-0.41117 0-0.78158 0.36301-0.78158 0.94827zm0.31485-4e-3c0-0.41117 0.22966-0.68898 0.51858-0.68898 0.14817 0 0.28523 0.0519 0.4371 0.18891v0.94086c-0.14817 0.16669-0.29263 0.24818-0.45932 0.24818-0.31486 0-0.49636-0.25929-0.49636-0.68897z"/>
     <path d="m172.76 133.52c0 0.58896 0.38153 0.94086 0.86307 0.94086 0.24448 0 0.43709-0.0852 0.59267-0.18521l-0.10742-0.20002c-0.13335 0.0852-0.27782 0.14075-0.44821 0.14075-0.34449 0-0.57785-0.24447-0.60007-0.63341h1.215c7e-3 -0.0445 0.0111-0.10372 0.0111-0.16669 0-0.51488-0.2593-0.84455-0.71861-0.84455-0.41117 0-0.80751 0.35931-0.80751 0.94827zm0.29633-0.13705c0.037-0.36301 0.2667-0.57045 0.51859-0.57045 0.28151 0 0.4445 0.20373 0.4445 0.57045z"/>
     <path d="m174.73 134.42h0.30375v-1.1557c0.12223-0.30374 0.30374-0.41487 0.45561-0.41487 0.0741 0 0.11483 0.0111 0.1741 0.0296l0.0593-0.2667c-0.0593-0.0259-0.11483-0.037-0.19261-0.037-0.20373 0-0.38894 0.14446-0.51118 0.37042h-0.0111l-0.0259-0.32597h-0.25189z"/>
     <path d="m176.17 132.25c0.11853 0 0.21114-0.0815 0.21114-0.19633 0-0.11853-0.0926-0.19632-0.21114-0.19632s-0.21114 0.0778-0.21114 0.19632c0 0.11483 0.0926 0.19633 0.21114 0.19633zm-0.15558 2.1706h0.30374v-1.8002h-0.30374z"/>
     <path d="m176.93 134.42h0.30374v-1.3039c0.1815-0.1815 0.30744-0.27781 0.49265-0.27781 0.23707 0 0.34079 0.14446 0.34079 0.48154v1.1001h0.30374v-1.1409c0-0.45931-0.17039-0.70379-0.54822-0.70379-0.24818 0-0.43339 0.13335-0.60378 0.30374h-0.0111l-0.0259-0.25929h-0.25188z"/>
     <path d="m179.08 134.72c0-0.10372 0.0556-0.21114 0.18521-0.30374 0.0778 0.0222 0.16298 0.0296 0.23336 0.0296h0.31115c0.23336 0 0.36301 0.0556 0.36301 0.22225 0 0.18891-0.22595 0.36672-0.57044 0.36672-0.32597 0-0.52229-0.12224-0.52229-0.31486zm-0.2667 0.0408c0 0.31115 0.30374 0.48524 0.74454 0.48524 0.55933 0 0.91122-0.28892 0.91122-0.6223 0-0.30004-0.21113-0.42968-0.62971-0.42968h-0.34819c-0.24447 0-0.31856-0.0815-0.31856-0.19632 0-0.10002 0.0519-0.15928 0.11483-0.21484 0.0815 0.0407 0.18151 0.063 0.27041 0.063 0.36671 0 0.65934-0.24077 0.65934-0.62601 0-0.15187-0.063-0.28892-0.14817-0.37042h0.37042v-0.23336h-0.626c-0.0667-0.0259-0.15558-0.0445-0.25559-0.0445-0.36672 0-0.67787 0.24818-0.67787 0.64082 0 0.21485 0.11483 0.38894 0.23337 0.48525v0.0148c-0.0926 0.063-0.19632 0.1815-0.19632 0.33337 0 0.14076 0.0704 0.23707 0.15928 0.29263v0.0148c-0.16299 0.11112-0.263 0.25559-0.263 0.40746zm0.74454-1.1187c-0.20744 0-0.38153-0.16669-0.38153-0.42969 0-0.26299 0.17039-0.41857 0.38153-0.41857s0.38153 0.15558 0.38153 0.41857c0 0.263-0.1741 0.42969-0.38153 0.42969z"/>
     <path d="m167.57 139.08h1.4372v-0.26299h-1.1261v-0.88159h0.91863v-0.263h-0.91863v-0.76306h1.089v-0.25929h-1.4002z"/>
     <path d="m169.48 139.08h0.30375v-1.3039c0.1815-0.18151 0.30744-0.27782 0.49265-0.27782 0.23707 0 0.34078 0.14447 0.34078 0.48155v1.1001h0.30375v-1.1409c0-0.45932-0.1704-0.70379-0.54822-0.70379-0.24818 0-0.43339 0.13335-0.60378 0.30374h-0.0111l-0.0259-0.25929h-0.25189z"/>
     <path d="m171.63 139.39c0-0.10372 0.0556-0.21114 0.18521-0.30375 0.0778 0.0222 0.16298 0.0296 0.23336 0.0296h0.31115c0.23336 0 0.36301 0.0556 0.36301 0.22225 0 0.18891-0.22596 0.36671-0.57044 0.36671-0.32597 0-0.52229-0.12224-0.52229-0.31485zm-0.2667 0.0407c0 0.31115 0.30374 0.48525 0.74454 0.48525 0.55933 0 0.91122-0.28893 0.91122-0.6223 0-0.30004-0.21114-0.42969-0.62971-0.42969h-0.34819c-0.24447 0-0.31856-0.0815-0.31856-0.19632 0-0.10001 0.0519-0.15928 0.11483-0.21484 0.0815 0.0408 0.18151 0.063 0.27041 0.063 0.36671 0 0.65934-0.24077 0.65934-0.626 0-0.15187-0.063-0.28893-0.14817-0.37042h0.37042v-0.23336h-0.62601c-0.0667-0.0259-0.15557-0.0445-0.25558-0.0445-0.36672 0-0.67787 0.24818-0.67787 0.64082 0 0.21484 0.11483 0.38894 0.23337 0.48525v0.0148c-0.0926 0.063-0.19633 0.18151-0.19633 0.33338 0 0.14076 0.0704 0.23706 0.15928 0.29263v0.0148c-0.16298 0.11113-0.26299 0.25559-0.26299 0.40746zm0.74454-1.1187c-0.20744 0-0.38153-0.16668-0.38153-0.42968s0.17039-0.41857 0.38153-0.41857c0.21113 0 0.38153 0.15557 0.38153 0.41857s-0.1741 0.42968-0.38153 0.42968z"/>
     <path d="m173.53 136.91c0.11854 0 0.21114-0.0815 0.21114-0.19632 0-0.11853-0.0926-0.19632-0.21114-0.19632-0.11853 0-0.21114 0.0778-0.21114 0.19632 0 0.11483 0.0926 0.19632 0.21114 0.19632zm-0.15557 2.1706h0.30374v-1.8002h-0.30374z"/>
     <path d="m174.28 139.08h0.30374v-1.3039c0.18151-0.18151 0.30745-0.27782 0.49266-0.27782 0.23706 0 0.34078 0.14447 0.34078 0.48155v1.1001h0.30374v-1.1409c0-0.45932-0.17039-0.70379-0.54822-0.70379-0.24817 0-0.43338 0.13335-0.60377 0.30374h-0.0111l-0.0259-0.25929h-0.25188z"/>
     <path d="m176.18 138.19c0 0.58896 0.38153 0.94085 0.86307 0.94085 0.24447 0 0.43709-0.0852 0.59267-0.1852l-0.10742-0.20003c-0.13335 0.0852-0.27782 0.14076-0.44821 0.14076-0.34449 0-0.57785-0.24448-0.60007-0.63341h1.215c7e-3 -0.0444 0.0111-0.10372 0.0111-0.16669 0-0.51488-0.2593-0.84455-0.71861-0.84455-0.41117 0-0.80751 0.3593-0.80751 0.94827zm0.29633-0.13706c0.037-0.36301 0.2667-0.57044 0.51859-0.57044 0.28151 0 0.4445 0.20373 0.4445 0.57044z"/>
    </g>
   </g>
   <g transform="matrix(.0031774 0 0 -.0032318 244.9 76.435)" fill="#6f8ce9" stroke-width="82.566">
    <g fill="#6f8ce9" stroke-width="82.566">
     <path d="m486.41 221.41-364.07-208.5c-52.938-30.318-95.852-5.44-95.852 55.563v415.65c0 61.004 42.914 85.882 95.852 55.563l364.07-208.49c52.938-30.317 52.938-79.473 0-109.79z" fill="#6f8ce9" stroke-width="82.566"/>
    </g>
   </g>
  </g>
  <path d="m232.12 75.576h12.865" fill="none" stroke="#6f8ce9" stroke-linecap="round" stroke-width=".26458"/>
  <g transform="matrix(0 .0031774 .0032318 0 280.19 122.7)" fill="#6f8ce9" stroke-width="82.566">
   <g fill="#6f8ce9" stroke-width="82.566">
    <path d="m486.41 221.41-364.07-208.5c-52.938-30.318-95.852-5.44-95.852 55.563v415.65c0 61.004 42.914 85.882 95.852 55.563l364.07-208.49c52.938-30.317 52.938-79.473 0-109.79z" fill="#6f8ce9" stroke-width="82.566"/>
   </g>
  </g>
  <path d="m281.05 94.577v28.211" fill="none" stroke="#6f8ce9" stroke-linecap="round" stroke-width=".26458"/>
  <g transform="matrix(-.0031774 0 0 -.0032318 249.8 136.23)" fill="#6f8ce9" stroke-width="82.566">
   <g fill="#6f8ce9" stroke-width="82.566">
    <path d="m486.41 221.41-364.07-208.5c-52.938-30.318-95.852-5.44-95.852 55.563v415.65c0 61.004 42.914 85.882 95.852 55.563l364.07-208.49c52.938-30.317 52.938-79.473 0-109.79z" fill="#6f8ce9" stroke-width="82.566"/>
   </g>
  </g>
  <path d="m264.43 135.37h-14.717" fill="none" stroke="#6f8ce9" stroke-linecap="round" stroke-width=".26458"/>
  <g fill="#e8eaec" stroke-linecap="round" stroke-width=".26458" aria-label="BC7, DXT1,  ATSC, PVRTC">
   <path d="m273.19 79.912h0.77788c0.5408 0 0.91863-0.23336 0.91863-0.7112 0-0.33338-0.20743-0.52599-0.56303-0.58156v-0.01482c0.28892-0.07408 0.42598-0.28892 0.42598-0.5297 0-0.42598-0.34449-0.59267-0.83715-0.59267h-0.72231zm0.31115-1.3928v-0.79269h0.37412c0.37412 0 0.57044 0.11112 0.57044 0.37412 0 0.2704-0.17409 0.41857-0.58525 0.41857zm0 1.1483v-0.91864h0.42228c0.42598 0 0.65934 0.13706 0.65934 0.43709 0 0.32967-0.24448 0.48154-0.65934 0.48154z"/>
   <path d="m275.21 78.697c0 0.79269 0.45561 1.2594 1.0668 1.2594 0.30745 0 0.54822-0.12965 0.73713-0.3519l-0.1741-0.18891c-0.15557 0.1741-0.32596 0.2704-0.55562 0.2704-0.46302 0-0.75565-0.38523-0.75565-0.99642 0-0.60378 0.30744-0.9816 0.77047-0.9816 0.20002 0 0.3556 0.0889 0.48524 0.22595l0.1741-0.19632c-0.14446-0.15928-0.37412-0.30004-0.66305-0.30004-0.6223 0-1.0853 0.47784-1.0853 1.2594z"/>
   <path d="m277.78 79.912h0.31485c0.0408-0.92234 0.15558-1.4594 0.71491-2.1743v-0.18891h-1.5224v0.263h1.1779c-0.46673 0.64823-0.64453 1.2113-0.68527 2.1003z"/>
   <path d="m279.21 80.542c0.30003-0.12594 0.48524-0.37412 0.48524-0.69268 0-0.22225-0.0963-0.3593-0.25559-0.3593-0.12223 0-0.22595 0.08149-0.22595 0.21484 0 0.13706 0.10001 0.21114 0.21855 0.21114 0.0111 0 0.0259 0 0.037-0.0037 0 0.20002-0.12594 0.3593-0.33338 0.45191z"/>
   <path d="m280.95 79.912h0.6223c0.73343 0 1.1335-0.45191 1.1335-1.2261 0-0.77047-0.40005-1.2039-1.1483-1.2039h-0.60749zm0.31115-0.25188v-1.9262h0.27411c0.57044 0 0.85196 0.34078 0.85196 0.95197 0 0.61489-0.28152 0.9742-0.85196 0.9742z"/>
   <path d="m282.87 79.912h0.32227l0.35189-0.65564c0.063-0.11853 0.12224-0.24077 0.19262-0.38894h0.0148c0.0778 0.14817 0.14446 0.2704 0.20743 0.38894l0.3593 0.65564h0.34079l-0.7075-1.2409 0.65934-1.189h-0.32596l-0.32227 0.6223c-0.0593 0.11112-0.10371 0.21114-0.17039 0.3519h-0.0148c-0.0778-0.14076-0.12965-0.24077-0.18892-0.3519l-0.33337-0.6223h-0.34079l0.66305 1.1742z"/>
   <path d="m285.46 79.912h0.30745v-2.1706h0.73713v-0.25929h-1.7817v0.25929h0.73713z"/>
   <path d="m286.89 79.912h1.3335v-0.25188h-0.48895v-2.1114h-0.23337c-0.12964 0.07779-0.28522 0.13706-0.50006 0.1741v0.19632h0.42968v1.741h-0.5408z"/>
   <path d="m288.69 80.542c0.30004-0.12594 0.48525-0.37412 0.48525-0.69268 0-0.22225-0.0963-0.3593-0.25559-0.3593-0.12224 0-0.22595 0.08149-0.22595 0.21484 0 0.13706 0.10001 0.21114 0.21854 0.21114 0.0111 0 0.0259 0 0.037-0.0037 0 0.20002-0.12594 0.3593-0.33337 0.45191z"/>
   <path d="m272.39 83.589 0.11854-0.37042c0.0852-0.2704 0.16298-0.5371 0.24077-0.81862h0.0148c0.0778 0.28152 0.15557 0.54822 0.24077 0.81862l0.11483 0.37042zm1.0409 0.98901h0.32596l-0.82232-2.4299h-0.34819l-0.82233 2.4299h0.31485l0.23337-0.74083h0.88529z"/>
   <path d="m274.44 84.578h0.30745v-2.1706h0.73713v-0.25929h-1.7817v0.25929h0.73713z"/>
   <path d="m275.58 84.264c0.21114 0.21855 0.50747 0.3593 0.84826 0.3593 0.51117 0 0.82973-0.30745 0.82973-0.69268 0-0.3593-0.21854-0.52599-0.50006-0.64823l-0.34819-0.14817c-0.18892-0.08149-0.40376-0.17039-0.40376-0.40376 0-0.21855 0.18151-0.3556 0.45562-0.3556 0.22225 0 0.40375 0.0889 0.55192 0.22966l0.16298-0.20002c-0.17039-0.1778-0.42598-0.30004-0.7149-0.30004-0.4408 0-0.76677 0.27411-0.76677 0.64453 0 0.3556 0.2667 0.5297 0.49266 0.626l0.34819 0.15187c0.22966 0.10372 0.40746 0.1815 0.40746 0.42968 0 0.23707-0.18892 0.39635-0.50747 0.39635-0.25559 0-0.49636-0.12224-0.67046-0.30374z"/>
   <path d="m277.58 83.363c0 0.79269 0.45561 1.2594 1.0668 1.2594 0.30744 0 0.54821-0.12965 0.73713-0.3519l-0.1741-0.18891c-0.15557 0.1741-0.32597 0.2704-0.55562 0.2704-0.46303 0-0.75566-0.38523-0.75566-0.99642 0-0.60378 0.30745-0.9816 0.77047-0.9816 0.20003 0 0.3556 0.0889 0.48525 0.22595l0.17409-0.19632c-0.14446-0.15928-0.37412-0.30004-0.66304-0.30004-0.6223 0-1.0853 0.47784-1.0853 1.2594z"/>
   <path d="m279.74 85.208c0.30003-0.12594 0.48524-0.37412 0.48524-0.69268 0-0.22225-0.0963-0.3593-0.25559-0.3593-0.12223 0-0.22595 0.08149-0.22595 0.21484 0 0.13706 0.10001 0.21114 0.21855 0.21114 0.0111 0 0.0259 0 0.037-0.0037 0 0.20002-0.12594 0.3593-0.33338 0.45191z"/>
   <path d="m281.48 84.578h0.31115v-0.96308h0.43709c0.5297 0 0.89641-0.24077 0.89641-0.75195 0-0.5334-0.3593-0.7149-0.89641-0.7149h-0.74824zm0.31115-1.215v-0.96679h0.39635c0.41857 0 0.62971 0.11483 0.62971 0.46672 0 0.34449-0.20373 0.50006-0.62971 0.50006z"/>
   <path d="m284.04 84.578h0.3593l0.77047-2.4299h-0.31486l-0.38893 1.3113c-0.0815 0.28892-0.14447 0.51858-0.23337 0.8038h-0.0148c-0.0889-0.28522-0.14817-0.51488-0.23337-0.8038l-0.39264-1.3113h-0.32596z"/>
   <path d="m285.79 82.397h0.40745c0.37783 0 0.58526 0.11483 0.58526 0.43339 0 0.31485-0.20743 0.47043-0.58526 0.47043h-0.40745zm1.3742 2.1818-0.61859-1.0594c0.32967-0.0852 0.54451-0.31115 0.54451-0.68898 0-0.50377-0.3556-0.68157-0.84826-0.68157h-0.76305v2.4299h0.31115v-1.0261h0.43709l0.58526 1.0261z"/>
   <path d="m288.05 84.578h0.30744v-2.1706h0.73713v-0.25929h-1.7817v0.25929h0.73713z"/>
   <path d="m289.28 83.363c0 0.79269 0.45561 1.2594 1.0668 1.2594 0.30745 0 0.54822-0.12965 0.73713-0.3519l-0.17409-0.18891c-0.15558 0.1741-0.32597 0.2704-0.55563 0.2704-0.46302 0-0.75565-0.38523-0.75565-0.99642 0-0.60378 0.30745-0.9816 0.77047-0.9816 0.20002 0 0.3556 0.0889 0.48524 0.22595l0.1741-0.19632c-0.14446-0.15928-0.37412-0.30004-0.66305-0.30004-0.6223 0-1.0853 0.47784-1.0853 1.2594z"/>
  </g>
 </g>
</svg>
