<?xml version="1.0" encoding="UTF-8"?>
<svg width="390.52" height="25.5" version="1.1" viewBox="0 0 103.33 6.7471" xmlns="http://www.w3.org/2000/svg" xmlns:cc="http://creativecommons.org/ns#" xmlns:dc="http://purl.org/dc/elements/1.1/" xmlns:rdf="http://www.w3.org/1999/02/22-rdf-syntax-ns#">
 <metadata>
  <rdf:RDF>
   <cc:Work rdf:about="">
    <dc:format>image/svg+xml</dc:format>
    <dc:type rdf:resource="http://purl.org/dc/dcmitype/StillImage"/>
    <dc:title/>
   </cc:Work>
  </rdf:RDF>
 </metadata>
 <path d="m0.2646 0.13225h103.06v6.4826h-103.06z" fill="#2f3744"/>
 <g fill="#e8eaec" stroke-linecap="round" stroke-width=".2646" aria-label="Looping song">
  <path d="m16.74 4.4245h1.1748v-0.22544h-0.90809v-1.8575h-0.26671z"/>
  <path d="m18.098 3.6561c0 0.5112 0.33657 0.80649 0.71441 0.80649 0.37784 0 0.71441-0.29529 0.71441-0.80649 0-0.51755-0.33657-0.81284-0.71441-0.81284-0.37784 0-0.71441 0.29529-0.71441 0.81284zm0.26989 0c0-0.35562 0.18098-0.59693 0.44452-0.59693 0.26671 0 0.44452 0.24131 0.44452 0.59693 0 0.35244-0.17781 0.59058-0.44452 0.59058-0.26354 0-0.44452-0.23814-0.44452-0.59058z"/>
  <path d="m19.822 3.6561c0 0.5112 0.33657 0.80649 0.71441 0.80649s0.71441-0.29529 0.71441-0.80649c0-0.51755-0.33657-0.81284-0.71441-0.81284s-0.71441 0.29529-0.71441 0.81284zm0.26989 0c0-0.35562 0.18098-0.59693 0.44452-0.59693 0.26671 0 0.44452 0.24131 0.44452 0.59693 0 0.35244-0.17781 0.59058-0.44452 0.59058-0.26354 0-0.44452-0.23814-0.44452-0.59058z"/>
  <path d="m21.914 4.2848c0.14288 0.11113 0.28576 0.17781 0.42864 0.17781 0.35244 0 0.66678-0.30799 0.66678-0.83189 0-0.47945-0.21274-0.78744-0.60963-0.78744-0.18098 0-0.35244 0.09843-0.49215 0.21591h-0.0095l-0.02223-0.17781h-0.21591v2.194h0.26036v-0.52072zm0.0064-0.20321v-0.80966c0.15241-0.13653 0.28259-0.20956 0.41277-0.20956 0.29211 0 0.40642 0.22861 0.40642 0.56835 0 0.38102-0.18733 0.6128-0.44135 0.6128-0.1016 0-0.23814-0.044452-0.37784-0.16193z"/>
  <path d="m23.555 2.5638c0.1016 0 0.18098-0.069853 0.18098-0.16828 0-0.1016-0.07938-0.16828-0.18098-0.16828-0.1016 0-0.18098 0.066678-0.18098 0.16828 0 0.09843 0.07938 0.16828 0.18098 0.16828zm-0.13336 1.8606h0.26036v-1.5431h-0.26036z"/>
  <path d="m24.203 4.4245h0.26036v-1.1177c0.15558-0.15558 0.26354-0.23814 0.4223-0.23814 0.20321 0 0.29211 0.12383 0.29211 0.41277v0.94302h0.26036v-0.97795c0-0.39372-0.14606-0.60328-0.46992-0.60328-0.21274 0-0.37149 0.11431-0.51755 0.26036h-0.0095l-0.02223-0.22226h-0.21591z"/>
  <path d="m26.05 4.6848c0-0.088904 0.04763-0.18098 0.15876-0.26036 0.06668 0.019051 0.13971 0.025401 0.20004 0.025401h0.26671c0.20004 0 0.31116 0.047627 0.31116 0.19051 0 0.16193-0.19368 0.31434-0.48897 0.31434-0.27941 0-0.4477-0.10478-0.4477-0.26989zm-0.22861 0.034927c0 0.26671 0.26036 0.41594 0.6382 0.41594 0.47945 0 0.78109-0.24766 0.78109-0.53343 0-0.25719-0.18098-0.36832-0.53978-0.36832h-0.29846c-0.20956 0-0.27306-0.069853-0.27306-0.16828 0-0.085729 0.04445-0.13653 0.09843-0.18416 0.06985 0.034927 0.15558 0.053978 0.23179 0.053978 0.31434 0 0.56518-0.20638 0.56518-0.5366 0-0.13018-0.05398-0.24766-0.12701-0.31752h0.31752v-0.20004h-0.5366c-0.05715-0.022226-0.13336-0.038102-0.21909-0.038102-0.31434 0-0.58105 0.21274-0.58105 0.5493 0 0.18416 0.09843 0.33339 0.20003 0.41594v0.012701c-0.07938 0.053978-0.16828 0.15558-0.16828 0.28576 0 0.12066 0.06033 0.20321 0.13653 0.25084v0.012701c-0.13971 0.095255-0.22544 0.21909-0.22544 0.34927zm0.6382-0.9589c-0.17781 0-0.32704-0.14288-0.32704-0.36832 0-0.22544 0.14606-0.35879 0.32704-0.35879 0.18098 0 0.32704 0.13336 0.32704 0.35879 0 0.22544-0.14923 0.36832-0.32704 0.36832z"/>
  <path d="m28.007 4.2498c0.14606 0.12066 0.35562 0.21274 0.5747 0.21274 0.36514 0 0.56518-0.20956 0.56518-0.4604 0-0.29211-0.24766-0.38419-0.46992-0.46675-0.17463-0.066678-0.34292-0.12383-0.34292-0.26671 0-0.11748 0.08891-0.22226 0.28259-0.22226 0.13653 0 0.24766 0.057153 0.35244 0.13653l0.12383-0.16511c-0.11748-0.095255-0.28576-0.17463-0.47945-0.17463-0.33339 0-0.53025 0.19051-0.53025 0.43817 0 0.26036 0.24131 0.36514 0.4604 0.44452 0.16828 0.063503 0.35244 0.13336 0.35244 0.29211 0 0.13336-0.1016 0.24131-0.30481 0.24131-0.18416 0-0.32069-0.076204-0.45405-0.18416z"/>
  <path d="m29.397 3.6561c0 0.5112 0.33656 0.80649 0.71441 0.80649s0.71441-0.29529 0.71441-0.80649c0-0.51755-0.33657-0.81284-0.71441-0.81284s-0.71441 0.29529-0.71441 0.81284zm0.26989 0c0-0.35562 0.18098-0.59693 0.44452-0.59693 0.26671 0 0.44452 0.24131 0.44452 0.59693 0 0.35244-0.17781 0.59058-0.44452 0.59058-0.26354 0-0.44452-0.23814-0.44452-0.59058z"/>
  <path d="m31.235 4.4245h0.26036v-1.1177c0.15558-0.15558 0.26354-0.23814 0.4223-0.23814 0.20321 0 0.29211 0.12383 0.29211 0.41277v0.94302h0.26036v-0.97795c0-0.39372-0.14606-0.60328-0.46992-0.60328-0.21274 0-0.37149 0.11431-0.51755 0.26036h-0.0095l-0.02223-0.22226h-0.21591z"/>
  <path d="m33.083 4.6848c0-0.088904 0.04763-0.18098 0.15876-0.26036 0.06668 0.019051 0.13971 0.025401 0.20003 0.025401h0.26671c0.20003 0 0.31116 0.047627 0.31116 0.19051 0 0.16193-0.19368 0.31434-0.48897 0.31434-0.27941 0-0.4477-0.10478-0.4477-0.26989zm-0.22861 0.034927c0 0.26671 0.26036 0.41594 0.6382 0.41594 0.47945 0 0.78109-0.24766 0.78109-0.53343 0-0.25719-0.18098-0.36832-0.53978-0.36832h-0.29846c-0.20956 0-0.27306-0.069853-0.27306-0.16828 0-0.085729 0.04445-0.13653 0.09843-0.18416 0.06985 0.034927 0.15558 0.053978 0.23179 0.053978 0.31434 0 0.56518-0.20638 0.56518-0.5366 0-0.13018-0.05398-0.24766-0.12701-0.31752h0.31752v-0.20004h-0.5366c-0.05715-0.022226-0.13336-0.038102-0.21909-0.038102-0.31434 0-0.58105 0.21274-0.58105 0.5493 0 0.18416 0.09843 0.33339 0.20003 0.41594v0.012701c-0.07938 0.053978-0.16828 0.15558-0.16828 0.28576 0 0.12066 0.06033 0.20321 0.13653 0.25084v0.012701c-0.13971 0.095255-0.22544 0.21909-0.22544 0.34927zm0.6382-0.9589c-0.17781 0-0.32704-0.14288-0.32704-0.36832 0-0.22544 0.14606-0.35879 0.32704-0.35879 0.18098 0 0.32704 0.13336 0.32704 0.35879 0 0.22544-0.14923 0.36832-0.32704 0.36832z"/>
 </g>
 <g fill="none" stroke="#7b8694" stroke-linecap="square" stroke-miterlimit="40" stroke-width=".2646">
  <path d="m51.729 0.26455v6.3503" stroke-dasharray="0.793788, 0.793788"/>
  <path d="m0.2646 0.13225h102.93"/>
  <path d="m0.2646 6.6149h102.93"/>
  <path d="m103.2 0.26455v6.3503" stroke-dasharray="0.793788, 0.793788"/>
  <path d="m0.1323 0.26455v6.3503" stroke-dasharray="0.793788, 0.793788"/>
 </g>
 <g fill="#e8eaec" stroke-linecap="round" stroke-width=".2646" aria-label="Looping song">
  <path d="m69.13 4.4245h1.1748v-0.22544h-0.90809v-1.8575h-0.26671z"/>
  <path d="m70.488 3.6561c0 0.5112 0.33657 0.80649 0.71441 0.80649s0.71441-0.29529 0.71441-0.80649c0-0.51755-0.33657-0.81284-0.71441-0.81284s-0.71441 0.29529-0.71441 0.81284zm0.26989 0c0-0.35562 0.18098-0.59693 0.44452-0.59693 0.26671 0 0.44452 0.24131 0.44452 0.59693 0 0.35244-0.17781 0.59058-0.44452 0.59058-0.26354 0-0.44452-0.23814-0.44452-0.59058z"/>
  <path d="m72.212 3.6561c0 0.5112 0.33656 0.80649 0.71441 0.80649s0.71441-0.29529 0.71441-0.80649c0-0.51755-0.33657-0.81284-0.71441-0.81284s-0.71441 0.29529-0.71441 0.81284zm0.26989 0c0-0.35562 0.18098-0.59693 0.44452-0.59693 0.26671 0 0.44452 0.24131 0.44452 0.59693 0 0.35244-0.17781 0.59058-0.44452 0.59058-0.26354 0-0.44452-0.23814-0.44452-0.59058z"/>
  <path d="m74.304 4.2848c0.14288 0.11113 0.28576 0.17781 0.42865 0.17781 0.35244 0 0.66678-0.30799 0.66678-0.83189 0-0.47945-0.21274-0.78744-0.60963-0.78744-0.18098 0-0.35244 0.09843-0.49215 0.21591h-0.0095l-0.02223-0.17781h-0.21591v2.194h0.26036v-0.52072zm0.0064-0.20321v-0.80966c0.15241-0.13653 0.28259-0.20956 0.41277-0.20956 0.29211 0 0.40642 0.22861 0.40642 0.56835 0 0.38102-0.18733 0.6128-0.44135 0.6128-0.1016 0-0.23814-0.044452-0.37784-0.16193z"/>
  <path d="m75.945 2.5638c0.1016 0 0.18098-0.069853 0.18098-0.16828 0-0.1016-0.07938-0.16828-0.18098-0.16828-0.1016 0-0.18098 0.066678-0.18098 0.16828 0 0.09843 0.07938 0.16828 0.18098 0.16828zm-0.13336 1.8606h0.26036v-1.5431h-0.26036z"/>
  <path d="m76.593 4.4245h0.26036v-1.1177c0.15558-0.15558 0.26354-0.23814 0.4223-0.23814 0.20321 0 0.29211 0.12383 0.29211 0.41277v0.94302h0.26036v-0.97795c0-0.39372-0.14606-0.60328-0.46992-0.60328-0.21274 0-0.37149 0.11431-0.51755 0.26036h-0.0095l-0.02223-0.22226h-0.21591z"/>
  <path d="m78.44 4.6848c0-0.088904 0.04763-0.18098 0.15876-0.26036 0.06668 0.019051 0.13971 0.025401 0.20003 0.025401h0.26671c0.20003 0 0.31116 0.047627 0.31116 0.19051 0 0.16193-0.19368 0.31434-0.48897 0.31434-0.27941 0-0.4477-0.10478-0.4477-0.26989zm-0.22861 0.034927c0 0.26671 0.26036 0.41594 0.6382 0.41594 0.47945 0 0.78109-0.24766 0.78109-0.53343 0-0.25719-0.18098-0.36832-0.53978-0.36832h-0.29846c-0.20956 0-0.27306-0.069853-0.27306-0.16828 0-0.085729 0.04445-0.13653 0.09843-0.18416 0.06985 0.034927 0.15558 0.053978 0.23179 0.053978 0.31434 0 0.56518-0.20638 0.56518-0.5366 0-0.13018-0.05398-0.24766-0.12701-0.31752h0.31752v-0.20004h-0.5366c-0.05715-0.022226-0.13336-0.038102-0.21908-0.038102-0.31434 0-0.58105 0.21274-0.58105 0.5493 0 0.18416 0.09843 0.33339 0.20004 0.41594v0.012701c-0.07938 0.053978-0.16828 0.15558-0.16828 0.28576 0 0.12066 0.06033 0.20321 0.13653 0.25084v0.012701c-0.13971 0.095255-0.22544 0.21909-0.22544 0.34927zm0.6382-0.9589c-0.17781 0-0.32704-0.14288-0.32704-0.36832 0-0.22544 0.14606-0.35879 0.32704-0.35879 0.18098 0 0.32704 0.13336 0.32704 0.35879 0 0.22544-0.14923 0.36832-0.32704 0.36832z"/>
  <path d="m80.397 4.2498c0.14606 0.12066 0.35562 0.21274 0.5747 0.21274 0.36514 0 0.56518-0.20956 0.56518-0.4604 0-0.29211-0.24766-0.38419-0.46992-0.46675-0.17463-0.066678-0.34292-0.12383-0.34292-0.26671 0-0.11748 0.0889-0.22226 0.28259-0.22226 0.13653 0 0.24766 0.057153 0.35244 0.13653l0.12383-0.16511c-0.11748-0.095255-0.28576-0.17463-0.47945-0.17463-0.33339 0-0.53025 0.19051-0.53025 0.43817 0 0.26036 0.24131 0.36514 0.4604 0.44452 0.16828 0.063503 0.35244 0.13336 0.35244 0.29211 0 0.13336-0.1016 0.24131-0.30481 0.24131-0.18416 0-0.32069-0.076204-0.45405-0.18416z"/>
  <path d="m81.787 3.6561c0 0.5112 0.33657 0.80649 0.71441 0.80649s0.71441-0.29529 0.71441-0.80649c0-0.51755-0.33657-0.81284-0.71441-0.81284s-0.71441 0.29529-0.71441 0.81284zm0.26989 0c0-0.35562 0.18098-0.59693 0.44452-0.59693 0.26671 0 0.44452 0.24131 0.44452 0.59693 0 0.35244-0.17781 0.59058-0.44452 0.59058-0.26354 0-0.44452-0.23814-0.44452-0.59058z"/>
  <path d="m83.625 4.4245h0.26036v-1.1177c0.15558-0.15558 0.26354-0.23814 0.4223-0.23814 0.20321 0 0.29211 0.12383 0.29211 0.41277v0.94302h0.26036v-0.97795c0-0.39372-0.14606-0.60328-0.46992-0.60328-0.21274 0-0.37149 0.11431-0.51755 0.26036h-0.0095l-0.02223-0.22226h-0.21591z"/>
  <path d="m85.473 4.6848c0-0.088904 0.04763-0.18098 0.15876-0.26036 0.06668 0.019051 0.13971 0.025401 0.20003 0.025401h0.26671c0.20004 0 0.31116 0.047627 0.31116 0.19051 0 0.16193-0.19368 0.31434-0.48897 0.31434-0.27941 0-0.4477-0.10478-0.4477-0.26989zm-0.22861 0.034927c0 0.26671 0.26036 0.41594 0.6382 0.41594 0.47945 0 0.78109-0.24766 0.78109-0.53343 0-0.25719-0.18098-0.36832-0.53978-0.36832h-0.29846c-0.20956 0-0.27306-0.069853-0.27306-0.16828 0-0.085729 0.04445-0.13653 0.09843-0.18416 0.06985 0.034927 0.15558 0.053978 0.23179 0.053978 0.31434 0 0.56518-0.20638 0.56518-0.5366 0-0.13018-0.05398-0.24766-0.12701-0.31752h0.31752v-0.20004h-0.5366c-0.05715-0.022226-0.13336-0.038102-0.21908-0.038102-0.31434 0-0.58105 0.21274-0.58105 0.5493 0 0.18416 0.09843 0.33339 0.20004 0.41594v0.012701c-0.07938 0.053978-0.16828 0.15558-0.16828 0.28576 0 0.12066 0.06033 0.20321 0.13653 0.25084v0.012701c-0.13971 0.095255-0.22544 0.21909-0.22544 0.34927zm0.6382-0.9589c-0.17781 0-0.32704-0.14288-0.32704-0.36832 0-0.22544 0.14606-0.35879 0.32704-0.35879 0.18098 0 0.32704 0.13336 0.32704 0.35879 0 0.22544-0.14923 0.36832-0.32704 0.36832z"/>
 </g>
</svg>
