<?xml version="1.0" encoding="UTF-8"?>
<svg width="350.21" height="25.5" version="1.1" viewBox="0 0 92.661 6.7471" xmlns="http://www.w3.org/2000/svg" xmlns:cc="http://creativecommons.org/ns#" xmlns:dc="http://purl.org/dc/elements/1.1/" xmlns:rdf="http://www.w3.org/1999/02/22-rdf-syntax-ns#">
 <metadata>
  <rdf:RDF>
   <cc:Work rdf:about="">
    <dc:format>image/svg+xml</dc:format>
    <dc:type rdf:resource="http://purl.org/dc/dcmitype/StillImage"/>
    <dc:title/>
   </cc:Work>
  </rdf:RDF>
 </metadata>
 <g stroke-linecap="round" stroke-width=".26459">
  <path d="m47.642 6.6149-7.8717-6.4164 7.8717-0.0662h36.977l7.683 0.0662-7.683 6.4164z" fill="#2f3744" stroke="#6f8ce9"/>
  <g fill="#e8eaec" aria-label="Dramatic music">
   <path d="m55.877 4.4245h0.53342c0.62868 0 0.97159-0.38737 0.97159-1.051 0-0.66043-0.34291-1.0319-0.98429-1.0319h-0.52072zm0.26671-0.21591v-1.6511h0.23496c0.48897 0 0.73028 0.29211 0.73028 0.81601 0 0.52707-0.24131 0.83506-0.73028 0.83506z"/>
   <path d="m57.802 4.4245h0.26036v-0.99064c0.10478-0.26036 0.26036-0.35561 0.39054-0.35561 0.0635 0 0.09843 0.00953 0.14923 0.025401l0.0508-0.22861c-0.0508-0.022226-0.09843-0.031751-0.16511-0.031751-0.17463 0-0.33339 0.12383-0.43817 0.31751h-0.0095l-0.02223-0.27941h-0.21591z"/>
   <path d="m58.749 4.0244c0 0.27624 0.19368 0.43817 0.45404 0.43817 0.19051 0 0.36196-0.1016 0.5112-0.22226h0.0064l0.02223 0.18416h0.21591v-0.94619c0-0.38419-0.15876-0.63503-0.5366-0.63503-0.24766 0-0.46357 0.10795-0.60645 0.20003l0.10478 0.18098c0.12066-0.082553 0.27941-0.16511 0.46039-0.16511 0.25084 0 0.31751 0.19051 0.31751 0.38737-0.65725 0.073028-0.94936 0.24131-0.94936 0.57787zm0.25719-0.019051c0-0.19686 0.17463-0.32386 0.69218-0.38737v0.42864c-0.14923 0.13336-0.27306 0.20638-0.42229 0.20638-0.15241 0-0.26989-0.073028-0.26989-0.24766z"/>
   <path d="m60.45 4.4245h0.26036v-1.1176c0.14288-0.15876 0.27306-0.23813 0.38736-0.23813 0.19686 0 0.28894 0.12383 0.28894 0.41277v0.94301h0.26036v-1.1176c0.14288-0.15876 0.26671-0.23813 0.38737-0.23813 0.19368 0 0.28576 0.12383 0.28576 0.41277v0.94301h0.26036v-0.97794c0-0.39372-0.15241-0.60327-0.46992-0.60327-0.18733 0-0.34609 0.12066-0.50802 0.29529-0.0635-0.18416-0.19051-0.29529-0.42547-0.29529-0.18416 0-0.34609 0.1143-0.47944 0.26036h-0.0095l-0.02223-0.22226h-0.21591z"/>
   <path d="m63.004 4.0244c0 0.27624 0.19368 0.43817 0.45404 0.43817 0.19051 0 0.36196-0.1016 0.5112-0.22226h0.0063l0.02223 0.18416h0.21591v-0.94619c0-0.38419-0.15876-0.63503-0.5366-0.63503-0.24766 0-0.46357 0.10795-0.60645 0.20003l0.10478 0.18098c0.12066-0.082553 0.27941-0.16511 0.46039-0.16511 0.25084 0 0.31751 0.19051 0.31751 0.38737-0.65725 0.073028-0.94936 0.24131-0.94936 0.57787zm0.25719-0.019051c0-0.19686 0.17463-0.32386 0.69218-0.38737v0.42864c-0.14923 0.13336-0.27306 0.20638-0.42229 0.20638-0.15241 0-0.26989-0.073028-0.26989-0.24766z"/>
   <path d="m64.749 3.9482c0 0.30481 0.11113 0.51437 0.44134 0.51437 0.09525 0 0.20003-0.028576 0.28576-0.057152l-0.0508-0.19686c-0.0508 0.019051-0.12065 0.041277-0.17463 0.041277-0.17781 0-0.23813-0.10795-0.23813-0.29846v-0.85729h0.41594v-0.21273h-0.41594v-0.43182h-0.21908l-0.03175 0.43182-0.24131 0.015876v0.19686h0.22861z"/>
   <path d="m65.911 2.5639c0.1016 0 0.18098-0.069853 0.18098-0.16828 0-0.1016-0.07938-0.16828-0.18098-0.16828-0.1016 0-0.18098 0.066678-0.18098 0.16828 0 0.098429 0.07938 0.16828 0.18098 0.16828zm-0.13336 1.8606h0.26036v-1.5431h-0.26036z"/>
   <path d="m66.445 3.6561c0 0.5112 0.31434 0.80648 0.72393 0.80648 0.18416 0 0.36196-0.076203 0.50167-0.20003l-0.11748-0.17146c-0.09208 0.082553-0.21591 0.15558-0.36196 0.15558-0.28259 0-0.47627-0.23813-0.47627-0.59057 0-0.35561 0.20321-0.59692 0.48262-0.59692 0.12383 0 0.21908 0.057152 0.31116 0.13653l0.13018-0.16828c-0.10478-0.098429-0.24766-0.18416-0.45087-0.18416-0.39689 0-0.74298 0.29529-0.74298 0.81283z"/>
   <path d="m68.642 4.4245h0.26036v-1.1176c0.14288-0.15876 0.27306-0.23813 0.38737-0.23813 0.19686 0 0.28894 0.12383 0.28894 0.41277v0.94301h0.26036v-1.1176c0.14288-0.15876 0.26671-0.23813 0.38737-0.23813 0.19368 0 0.28576 0.12383 0.28576 0.41277v0.94301h0.26036v-0.97794c0-0.39372-0.15241-0.60327-0.46992-0.60327-0.18733 0-0.34609 0.12066-0.50802 0.29529-0.0635-0.18416-0.19051-0.29529-0.42547-0.29529-0.18416 0-0.34609 0.1143-0.47944 0.26036h-0.0095l-0.02223-0.22226h-0.21591z"/>
   <path d="m71.25 3.8593c0 0.39372 0.14606 0.60327 0.4731 0.60327 0.21273 0 0.36514-0.11113 0.50802-0.27941h0.0095l0.02223 0.24131h0.21591v-1.5431h-0.26034v1.0954c-0.14606 0.18098-0.25718 0.26036-0.41594 0.26036-0.20321 0-0.28894-0.12383-0.28894-0.41277v-0.94301h-0.26354z"/>
   <path d="m72.831 4.2498c0.14606 0.12065 0.35562 0.21273 0.5747 0.21273 0.36514 0 0.56517-0.20956 0.56517-0.46039 0-0.29211-0.24766-0.38419-0.46992-0.46674-0.17463-0.066678-0.34291-0.12383-0.34291-0.26671 0-0.11748 0.0889-0.22226 0.28259-0.22226 0.13653 0 0.24766 0.057152 0.35244 0.13653l0.12383-0.16511c-0.11748-0.095254-0.28576-0.17463-0.47944-0.17463-0.33339 0-0.53025 0.19051-0.53025 0.43817 0 0.26036 0.24131 0.36514 0.46039 0.44452 0.16828 0.063503 0.35244 0.13336 0.35244 0.29211 0 0.13336-0.1016 0.24131-0.30481 0.24131-0.18416 0-0.32069-0.076203-0.45404-0.18416z"/>
   <path d="m74.469 2.5639c0.1016 0 0.18098-0.069853 0.18098-0.16828 0-0.1016-0.07938-0.16828-0.18098-0.16828-0.1016 0-0.18098 0.066678-0.18098 0.16828 0 0.098429 0.07938 0.16828 0.18098 0.16828zm-0.13336 1.8606h0.26036v-1.5431h-0.26036z"/>
   <path d="m75.002 3.6561c0 0.5112 0.31434 0.80648 0.72393 0.80648 0.18416 0 0.36196-0.076203 0.50167-0.20003l-0.11748-0.17146c-0.09208 0.082553-0.21591 0.15558-0.36196 0.15558-0.28259 0-0.47627-0.23813-0.47627-0.59057 0-0.35561 0.20321-0.59692 0.48262-0.59692 0.12383 0 0.21908 0.057152 0.31116 0.13653l0.13018-0.16828c-0.10478-0.098429-0.24766-0.18416-0.45087-0.18416-0.39689 0-0.74298 0.29529-0.74298 0.81283z"/>
  </g>
  <path d="m39.753 0.1323h-39.623v6.4825h39.623l7.8717-0.066148z" fill="#2f3744" stroke="#7b8694"/>
  <g fill="#e8eaec" aria-label="Ambient music">
   <path d="m12.655 3.5767 0.1016-0.31751c0.07303-0.23178 0.1397-0.46039 0.20638-0.7017h0.0127c0.06668 0.24131 0.13336 0.46992 0.20638 0.7017l0.09843 0.31751zm0.89221 0.84776h0.27941l-0.70488-2.0829h-0.29846l-0.70488 2.0829h0.26989l0.20003-0.63503h0.75886z"/>
   <path d="m14.084 4.4245h0.26036v-1.1176c0.14288-0.15876 0.27306-0.23813 0.38737-0.23813 0.19686 0 0.28894 0.12383 0.28894 0.41277v0.94301h0.26036v-1.1176c0.14288-0.15876 0.26671-0.23813 0.38737-0.23813 0.19368 0 0.28576 0.12383 0.28576 0.41277v0.94301h0.26036v-0.97794c0-0.39372-0.15241-0.60327-0.46992-0.60327-0.18733 0-0.34609 0.12066-0.50802 0.29529-0.0635-0.18416-0.19051-0.29529-0.42547-0.29529-0.18416 0-0.34609 0.1143-0.47944 0.26036h-0.0095l-0.02223-0.22226h-0.21591z"/>
   <path d="m16.714 4.4245h0.20956l0.02223-0.15241h0.0095c0.13653 0.12065 0.29846 0.19051 0.44134 0.19051 0.35244 0 0.66678-0.30799 0.66678-0.83506 0-0.47627-0.21273-0.78426-0.6128-0.78426-0.17146 0-0.34291 0.092079-0.48262 0.21591l0.0063-0.27941v-0.61598h-0.26036zm0.26036-0.34291v-0.80966c0.14606-0.13653 0.28259-0.20956 0.41277-0.20956 0.29211 0 0.40642 0.22861 0.40642 0.56835 0 0.38102-0.18733 0.6128-0.44134 0.6128-0.1016 0-0.24131-0.044452-0.37784-0.16193z"/>
   <path d="m18.608 2.5639c0.1016 0 0.18098-0.069853 0.18098-0.16828 0-0.1016-0.07938-0.16828-0.18098-0.16828-0.1016 0-0.18098 0.066678-0.18098 0.16828 0 0.098429 0.07938 0.16828 0.18098 0.16828zm-0.13336 1.8606h0.26036v-1.5431h-0.26036z"/>
   <path d="m19.142 3.6561c0 0.50485 0.32704 0.80648 0.73981 0.80648 0.20956 0 0.37466-0.073028 0.50802-0.15876l-0.09208-0.17146c-0.1143 0.073028-0.23814 0.12065-0.38419 0.12065-0.29529 0-0.49532-0.20956-0.51437-0.54295h1.0414c0.0064-0.038102 0.0095-0.088904 0.0095-0.14288 0-0.44134-0.22226-0.72393-0.61598-0.72393-0.35244 0-0.69218 0.30799-0.69218 0.81283zm0.25401-0.11748c0.03175-0.31116 0.22861-0.48897 0.44452-0.48897 0.24131 0 0.38102 0.17463 0.38102 0.48897z"/>
   <path d="m20.832 4.4245h0.26036v-1.1176c0.15558-0.15558 0.26354-0.23813 0.42229-0.23813 0.20321 0 0.29211 0.12383 0.29211 0.41277v0.94301h0.26036v-0.97794c0-0.39372-0.14606-0.60327-0.46992-0.60327-0.21273 0-0.37149 0.1143-0.51755 0.26036h-0.0095l-0.02223-0.22226h-0.21591z"/>
   <path d="m22.612 3.9482c0 0.30481 0.11113 0.51437 0.44134 0.51437 0.09525 0 0.20003-0.028576 0.28576-0.057152l-0.0508-0.19686c-0.0508 0.019051-0.12066 0.041277-0.17463 0.041277-0.17781 0-0.23813-0.10795-0.23813-0.29846v-0.85729h0.41594v-0.21273h-0.41594v-0.43182h-0.21908l-0.03175 0.43182-0.24131 0.015876v0.19686h0.22861z"/>
   <path d="m24.28 4.4245h0.26036v-1.1176c0.14288-0.15876 0.27306-0.23813 0.38737-0.23813 0.19686 0 0.28894 0.12383 0.28894 0.41277v0.94301h0.26036v-1.1176c0.14288-0.15876 0.26671-0.23813 0.38737-0.23813 0.19368 0 0.28576 0.12383 0.28576 0.41277v0.94301h0.26036v-0.97794c0-0.39372-0.15241-0.60327-0.46992-0.60327-0.18733 0-0.34609 0.12066-0.50802 0.29529-0.0635-0.18416-0.19051-0.29529-0.42547-0.29529-0.18416 0-0.34609 0.1143-0.47944 0.26036h-0.0095l-0.02222-0.22226h-0.21591z"/>
   <path d="m26.887 3.8593c0 0.39372 0.14606 0.60327 0.47309 0.60327 0.21273 0 0.36514-0.11113 0.50802-0.27941h0.0095l0.02223 0.24131h0.21591v-1.5431h-0.26034v1.0954c-0.14606 0.18098-0.25718 0.26036-0.41594 0.26036-0.20321 0-0.28894-0.12383-0.28894-0.41277v-0.94301h-0.26354z"/>
   <path d="m28.468 4.2498c0.14606 0.12065 0.35561 0.21273 0.5747 0.21273 0.36514 0 0.56517-0.20956 0.56517-0.46039 0-0.29211-0.24766-0.38419-0.46992-0.46674-0.17463-0.066678-0.34291-0.12383-0.34291-0.26671 0-0.11748 0.0889-0.22226 0.28259-0.22226 0.13653 0 0.24766 0.057152 0.35244 0.13653l0.12383-0.16511c-0.11748-0.095254-0.28576-0.17463-0.47944-0.17463-0.33339 0-0.53025 0.19051-0.53025 0.43817 0 0.26036 0.24131 0.36514 0.46039 0.44452 0.16828 0.063503 0.35244 0.13336 0.35244 0.29211 0 0.13336-0.1016 0.24131-0.30481 0.24131-0.18416 0-0.32069-0.076203-0.45404-0.18416z"/>
   <path d="m30.106 2.5639c0.1016 0 0.18098-0.069853 0.18098-0.16828 0-0.1016-0.07938-0.16828-0.18098-0.16828-0.1016 0-0.18098 0.066678-0.18098 0.16828 0 0.098429 0.07938 0.16828 0.18098 0.16828zm-0.13336 1.8606h0.26036v-1.5431h-0.26036z"/>
   <path d="m30.64 3.6561c0 0.5112 0.31434 0.80648 0.72393 0.80648 0.18416 0 0.36196-0.076203 0.50167-0.20003l-0.11748-0.17146c-0.09208 0.082553-0.21591 0.15558-0.36196 0.15558-0.28259 0-0.47627-0.23813-0.47627-0.59057 0-0.35561 0.20321-0.59692 0.48262-0.59692 0.12383 0 0.21908 0.057152 0.31116 0.13653l0.13018-0.16828c-0.10478-0.098429-0.24766-0.18416-0.45087-0.18416-0.39689 0-0.74298 0.29529-0.74298 0.81283z"/>
  </g>
 </g>
</svg>
