<?xml version="1.0" encoding="UTF-8"?>
<svg width="390.52" height="51" version="1.1" viewBox="0 0 103.33 13.494" xmlns="http://www.w3.org/2000/svg" xmlns:cc="http://creativecommons.org/ns#" xmlns:dc="http://purl.org/dc/elements/1.1/" xmlns:rdf="http://www.w3.org/1999/02/22-rdf-syntax-ns#">
 <metadata>
  <rdf:RDF>
   <cc:Work rdf:about="">
    <dc:format>image/svg+xml</dc:format>
    <dc:type rdf:resource="http://purl.org/dc/dcmitype/StillImage"/>
    <dc:title/>
   </cc:Work>
  </rdf:RDF>
 </metadata>
 <path d="m0.2646 6.8793h103.06v6.4826h-103.06z" fill="#2f3744"/>
 <g fill="#e8eaec" stroke-linecap="round" stroke-width=".2646" aria-label="Town">
  <path d="m10.853 11.172h0.26354v-1.8606h0.63186v-0.22226h-1.5272v0.22226h0.63186z"/>
  <path d="m11.764 10.403c0 0.5112 0.33657 0.80649 0.71441 0.80649 0.37784 0 0.71441-0.29529 0.71441-0.80649 0-0.51755-0.33657-0.81284-0.71441-0.81284-0.37784 0-0.71441 0.29529-0.71441 0.81284zm0.26989 0c0-0.35562 0.18098-0.59693 0.44452-0.59693 0.26671 0 0.44452 0.24131 0.44452 0.59693 0 0.35244-0.17781 0.59058-0.44452 0.59058-0.26354 0-0.44452-0.23814-0.44452-0.59058z"/>
  <path d="m13.835 11.172h0.30481l0.21591-0.82554c0.04128-0.14606 0.07303-0.29211 0.10796-0.4477h0.0127c0.0381 0.15558 0.06668 0.29846 0.10478 0.44452l0.22226 0.82871h0.31752l0.41277-1.5431h-0.24766l-0.22544 0.89222c-0.03175 0.14606-0.06033 0.28576-0.09525 0.42864h-0.0127c-0.034932-0.14288-0.069858-0.28259-0.10796-0.42864l-0.24131-0.89222h-0.25401l-0.23814 0.89222c-0.0381 0.14288-0.06985 0.28576-0.10478 0.42864h-0.0127c-0.02858-0.14288-0.05715-0.28259-0.09208-0.42864l-0.22861-0.89222h-0.26671z"/>
  <path d="m15.872 11.172h0.26036v-1.1177c0.15558-0.15558 0.26354-0.23814 0.4223-0.23814 0.20321 0 0.29211 0.12383 0.29211 0.41277v0.94302h0.26036v-0.97795c0-0.39372-0.14606-0.60328-0.46992-0.60328-0.21274 0-0.37149 0.11431-0.51755 0.26036h-0.0095l-0.02223-0.22226h-0.21591z"/>
 </g>
 <g fill="none" stroke-linecap="square" stroke-miterlimit="40" stroke-width=".2646">
  <g stroke="#7b8694">
   <path d="m0.2646 6.8793h102.93"/>
   <path d="m0.2646 13.362h102.93"/>
   <path d="m103.2 7.0116v6.3503" stroke-dasharray="0.793788, 0.793788"/>
   <path d="m0.1323 7.0116v6.3503" stroke-dasharray="0.793788, 0.793788"/>
  </g>
  <g stroke="#6f8ce9">
   <path d="m26.592 6.8857c3.1752 0 1.8522-6.7536 7.9379-6.7536h8.7317"/>
   <path d="m26.592 13.362c3.1752 0 1.8522-6.6149 7.9379-6.6149h8.7317"/>
   <path d="m26.592 7.0116v6.3503" stroke-dasharray="0.793788, 0.793788"/>
   <path d="m53.051 6.8857c3.1752 0 1.8522-6.7536 7.9379-6.7536h8.7317"/>
   <path d="m53.051 13.362c3.1752 0 1.8522-6.6149 7.9379-6.6149h8.7317"/>
   <path d="m53.051 7.0116v6.3503" stroke-dasharray="0.793788, 0.793788"/>
   <path d="m79.511 6.8857c3.1752 0 1.8522-6.7536 7.9379-6.7536h8.7317"/>
   <path d="m79.511 13.362c3.1752 0 1.8522-6.6149 7.9379-6.6149h8.7317"/>
   <path d="m79.511 7.0116v6.3503" stroke-dasharray="0.793788, 0.793788"/>
  </g>
 </g>
 <g fill="#e8eaec" stroke-linecap="round" stroke-width=".2646">
  <g aria-label="Shop">
   <path d="m35.296 4.2867c0.18098 0.18733 0.435 0.30799 0.72711 0.30799 0.43817 0 0.71123-0.26354 0.71123-0.59375 0-0.30799-0.18733-0.45087-0.42864-0.55565l-0.29846-0.12701c-0.16193-0.069853-0.34609-0.14606-0.34609-0.34609 0-0.18733 0.15558-0.30481 0.39054-0.30481 0.19051 0 0.34609 0.076204 0.4731 0.19686l0.13971-0.17146c-0.14606-0.15241-0.36514-0.25719-0.6128-0.25719-0.37784 0-0.65726 0.23496-0.65726 0.55248 0 0.30481 0.22861 0.45405 0.4223 0.5366l0.29846 0.13018c0.19686 0.088904 0.34927 0.15558 0.34927 0.36832 0 0.20321-0.16193 0.33974-0.435 0.33974-0.21909 0-0.42547-0.10478-0.5747-0.26036z"/>
   <path d="m37.11 4.5566h0.26036v-1.1177c0.15558-0.15558 0.26354-0.23814 0.42229-0.23814 0.20321 0 0.29211 0.12383 0.29211 0.41277v0.94302h0.26036v-0.97795c0-0.39372-0.14606-0.60328-0.46992-0.60328-0.21274 0-0.36832 0.11431-0.51437 0.25401l0.0095-0.31752v-0.61598h-0.26036z"/>
   <path d="m38.726 3.7882c0 0.5112 0.33657 0.80649 0.71441 0.80649 0.37784 0 0.71441-0.29529 0.71441-0.80649 0-0.51755-0.33657-0.81284-0.71441-0.81284-0.37784 0-0.71441 0.29529-0.71441 0.81284zm0.26989 0c0-0.35562 0.18098-0.59693 0.44452-0.59693 0.26671 0 0.44452 0.24131 0.44452 0.59693 0 0.35244-0.17781 0.59058-0.44452 0.59058-0.26354 0-0.44452-0.23814-0.44452-0.59058z"/>
   <path d="m40.818 4.4169c0.14288 0.11113 0.28576 0.17781 0.42864 0.17781 0.35244 0 0.66678-0.30799 0.66678-0.83189 0-0.47945-0.21274-0.78744-0.60963-0.78744-0.18098 0-0.35244 0.09843-0.49215 0.21591h-0.0095l-0.02223-0.17781h-0.21591v2.194h0.26036v-0.52072zm0.0063-0.20321v-0.80966c0.15241-0.13653 0.28259-0.20956 0.41277-0.20956 0.29211 0 0.40642 0.22861 0.40642 0.56835 0 0.38102-0.18733 0.6128-0.44135 0.6128-0.1016 0-0.23814-0.044452-0.37784-0.16193z"/>
  </g>
  <g aria-label="House">
   <path d="m61.41 4.5566h0.26671v-0.98112h0.96842v0.98112h0.26354v-2.0829h-0.26354v0.87317h-0.96842v-0.87317h-0.26671z"/>
   <path d="m63.333 3.7882c0 0.5112 0.33657 0.80649 0.71441 0.80649s0.71441-0.29529 0.71441-0.80649c0-0.51755-0.33657-0.81284-0.71441-0.81284s-0.71441 0.29529-0.71441 0.81284zm0.26989 0c0-0.35562 0.18098-0.59693 0.44452-0.59693 0.26671 0 0.44452 0.24131 0.44452 0.59693 0 0.35244-0.17781 0.59058-0.44452 0.59058-0.26354 0-0.44452-0.23814-0.44452-0.59058z"/>
   <path d="m65.149 3.9914c0 0.39372 0.14606 0.60328 0.4731 0.60328 0.21274 0 0.36514-0.11113 0.50802-0.27941h0.0095l0.02223 0.24131h0.21591v-1.5431h-0.26036v1.0954c-0.14606 0.18098-0.25719 0.26036-0.41594 0.26036-0.20321 0-0.28894-0.12383-0.28894-0.41277v-0.94302h-0.26354z"/>
   <path d="m66.73 4.382c0.14606 0.12066 0.35562 0.21274 0.5747 0.21274 0.36514 0 0.56518-0.20956 0.56518-0.4604 0-0.29211-0.24766-0.38419-0.46992-0.46675-0.17463-0.066678-0.34292-0.12383-0.34292-0.26671 0-0.11748 0.0889-0.22226 0.28259-0.22226 0.13653 0 0.24766 0.057153 0.35244 0.13653l0.12383-0.16511c-0.11748-0.095254-0.28576-0.17463-0.47945-0.17463-0.33339 0-0.53025 0.19051-0.53025 0.43817 0 0.26036 0.24131 0.36514 0.4604 0.44452 0.16828 0.063503 0.35244 0.13336 0.35244 0.29211 0 0.13336-0.1016 0.24131-0.30482 0.24131-0.18416 0-0.32069-0.076204-0.45405-0.18416z"/>
   <path d="m68.12 3.7882c0 0.50485 0.32704 0.80649 0.73981 0.80649 0.20956 0 0.37467-0.073028 0.50802-0.15876l-0.09208-0.17146c-0.11431 0.073028-0.23814 0.12066-0.38419 0.12066-0.29529 0-0.49532-0.20956-0.51438-0.54295h1.0414c0.0064-0.038102 0.0095-0.088904 0.0095-0.14288 0-0.44135-0.22226-0.72393-0.61598-0.72393-0.35244 0-0.69218 0.30799-0.69218 0.81284zm0.25401-0.11748c0.03175-0.31116 0.22861-0.48897 0.44452-0.48897 0.24131 0 0.38102 0.17463 0.38102 0.48897z"/>
  </g>
  <g aria-label="Church">
   <path d="m87.732 3.5152c0 0.67948 0.39054 1.0796 0.91444 1.0796 0.26354 0 0.46992-0.11113 0.63186-0.30164l-0.14923-0.16193c-0.13336 0.14923-0.27941 0.23179-0.47627 0.23179-0.39689 0-0.64773-0.33022-0.64773-0.85412 0-0.51755 0.26354-0.84141 0.66043-0.84141 0.17146 0 0.30482 0.076204 0.41594 0.19368l0.14923-0.16828c-0.12383-0.13653-0.32069-0.25719-0.56835-0.25719-0.53342 0-0.93032 0.40959-0.93032 1.0796z"/>
   <path d="m89.636 4.5566h0.26036v-1.1177c0.15558-0.15558 0.26354-0.23814 0.4223-0.23814 0.20321 0 0.29211 0.12383 0.29211 0.41277v0.94302h0.26036v-0.97795c0-0.39372-0.14606-0.60328-0.46992-0.60328-0.21274 0-0.36832 0.11431-0.51437 0.25401l0.0095-0.31752v-0.61598h-0.26036z"/>
   <path d="m91.344 3.9914c0 0.39372 0.14606 0.60328 0.4731 0.60328 0.21274 0 0.36514-0.11113 0.50802-0.27941h0.0095l0.02223 0.24131h0.21591v-1.5431h-0.26036v1.0954c-0.14606 0.18098-0.25719 0.26036-0.41594 0.26036-0.20321 0-0.28894-0.12383-0.28894-0.41277v-0.94302h-0.26354z"/>
   <path d="m93.096 4.5566h0.26036v-0.99065c0.10478-0.26036 0.26036-0.35562 0.39054-0.35562 0.0635 0 0.09843 0.00953 0.14923 0.025401l0.0508-0.22861c-0.0508-0.022226-0.09843-0.031751-0.16511-0.031751-0.17463 0-0.33339 0.12383-0.43817 0.31752h-0.0095l-0.02223-0.27941h-0.21591z"/>
   <path d="m94.055 3.7882c0 0.5112 0.31434 0.80649 0.72393 0.80649 0.18416 0 0.36197-0.076204 0.50167-0.20003l-0.11748-0.17146c-0.09208 0.082554-0.21591 0.15558-0.36197 0.15558-0.28259 0-0.47627-0.23814-0.47627-0.59058 0-0.35562 0.20321-0.59693 0.48262-0.59693 0.12383 0 0.21908 0.057153 0.31116 0.13653l0.13018-0.16828c-0.10478-0.09843-0.24766-0.18416-0.45087-0.18416-0.39689 0-0.74298 0.29529-0.74298 0.81284z"/>
   <path d="m95.614 4.5566h0.26036v-1.1177c0.15558-0.15558 0.26354-0.23814 0.4223-0.23814 0.20321 0 0.29211 0.12383 0.29211 0.41277v0.94302h0.26036v-0.97795c0-0.39372-0.14606-0.60328-0.46992-0.60328-0.21274 0-0.36832 0.11431-0.51437 0.25401l0.0095-0.31752v-0.61598h-0.26036z"/>
  </g>
 </g>
</svg>
