<?xml version="1.0" encoding="UTF-8"?>
<svg width="462.01" height="100.5" version="1.1" viewBox="0 0 122.24 26.591" xmlns="http://www.w3.org/2000/svg" xmlns:cc="http://creativecommons.org/ns#" xmlns:dc="http://purl.org/dc/elements/1.1/" xmlns:rdf="http://www.w3.org/1999/02/22-rdf-syntax-ns#">
 <metadata>
  <rdf:RDF>
   <cc:Work rdf:about="">
    <dc:format>image/svg+xml</dc:format>
    <dc:type rdf:resource="http://purl.org/dc/dcmitype/StillImage"/>
    <dc:title/>
   </cc:Work>
  </rdf:RDF>
 </metadata>
 <path d="m19.179 0.13225h103.06v6.4824h-103.06z" fill="#2f3744"/>
 <g fill="#e8eaec" stroke-linecap="round" stroke-width=".26459" aria-label="Pattern 1">
  <path d="m38.555 4.4243h0.2667v-0.82552h0.37466c0.45403 0 0.76836-0.20638 0.76836-0.64454 0-0.45721-0.30798-0.61279-0.76836-0.61279h-0.64136zm0.2667-1.0414v-0.82869h0.33973c0.35878 0 0.53976 0.098427 0.53976 0.40006 0 0.29528-0.17463 0.42863-0.53976 0.42863z"/>
  <path d="m40.138 4.0243c0 0.27623 0.19368 0.43816 0.45403 0.43816 0.1905 0 0.36196-0.1016 0.51118-0.22225h0.0063l0.02222 0.18415h0.2159v-0.94617c0-0.38418-0.15875-0.63501-0.53659-0.63501-0.24765 0-0.46356 0.10795-0.60644 0.20003l0.10478 0.18098c0.12065-0.082552 0.2794-0.1651 0.46038-0.1651 0.25083 0 0.31751 0.1905 0.31751 0.38736-0.65724 0.073026-0.94934 0.2413-0.94934 0.57786zm0.25718-0.01905c0-0.19685 0.17463-0.32386 0.69216-0.38736v0.42863c-0.14923 0.13335-0.27306 0.20638-0.42228 0.20638-0.1524 0-0.26988-0.073026-0.26988-0.24765z"/>
  <path d="m41.883 3.9481c0 0.30481 0.11113 0.51436 0.44133 0.51436 0.09525 0 0.20003-0.028576 0.28576-0.057151l-0.0508-0.19685c-0.0508 0.01905-0.12065 0.041276-0.17463 0.041276-0.1778 0-0.23813-0.10795-0.23813-0.29846v-0.85727h0.41593v-0.21273h-0.41593v-0.43181h-0.21908l-0.03175 0.43181-0.2413 0.015875v0.19685h0.2286z"/>
  <path d="m42.956 3.9481c0 0.30481 0.11113 0.51436 0.44133 0.51436 0.09525 0 0.20003-0.028576 0.28576-0.057151l-0.0508-0.19685c-0.0508 0.01905-0.12065 0.041276-0.17463 0.041276-0.1778 0-0.23813-0.10795-0.23813-0.29846v-0.85727h0.41593v-0.21273h-0.41593v-0.43181h-0.21908l-0.03175 0.43181-0.2413 0.015875v0.19685h0.2286z"/>
  <path d="m43.839 3.656c0 0.50483 0.32703 0.80647 0.73979 0.80647 0.20955 0 0.37466-0.073026 0.50801-0.15875l-0.09208-0.17145c-0.1143 0.073026-0.23813 0.12065-0.38418 0.12065-0.29528 0-0.49531-0.20955-0.51436-0.54294h1.0414c0.0063-0.038101 0.0095-0.088902 0.0095-0.14288 0-0.44133-0.22225-0.72391-0.61596-0.72391-0.35243 0-0.69216 0.30798-0.69216 0.81282zm0.254-0.11748c0.03175-0.31116 0.2286-0.48896 0.44451-0.48896 0.2413 0 0.38101 0.17463 0.38101 0.48896z"/>
  <path d="m45.528 4.4243h0.26036v-0.99062c0.10478-0.26036 0.26036-0.35561 0.39053-0.35561 0.0635 0 0.09843 0.00953 0.14923 0.0254l0.050801-0.2286c-0.0508-0.022225-0.09843-0.031751-0.1651-0.031751-0.17463 0-0.33338 0.12383-0.43816 0.31751h-0.0095l-0.02222-0.27941h-0.2159z"/>
  <path d="m46.632 4.4243h0.26036v-1.1176c0.15558-0.15558 0.26353-0.23813 0.42228-0.23813 0.2032 0 0.2921 0.12383 0.2921 0.41276v0.94299h0.26036v-0.97792c0-0.39371-0.14605-0.60326-0.46991-0.60326-0.21273 0-0.37148 0.1143-0.51753 0.26035h-0.0095l-0.02222-0.22225h-0.2159z"/>
  <path d="m48.998 4.4243h1.143v-0.2159h-0.41911v-1.8098h-0.20003c-0.11113 0.066676-0.24448 0.11748-0.42863 0.14923v0.16828h0.36831v1.4923h-0.46356z"/>
 </g>
 <g fill="none" stroke="#7b8694" stroke-linecap="square" stroke-miterlimit="40" stroke-width=".26459">
  <path d="m70.641 0.26454v6.3501" stroke-dasharray="0.793764, 0.793764"/>
  <path d="m19.179 0.13225h102.92"/>
  <path d="m19.179 6.6147h102.92"/>
  <path d="m122.11 0.26454v6.3501" stroke-dasharray="0.793764, 0.793764"/>
  <path d="m19.046 0.26454v6.3501" stroke-dasharray="0.793764, 0.793764"/>
 </g>
 <g>
  <g fill="#e8eaec" stroke-linecap="round" stroke-width=".26459" aria-label="Pattern 2">
   <path d="m91.473 4.4243h0.2667v-0.82552h0.37466c0.45403 0 0.76836-0.20638 0.76836-0.64454 0-0.45721-0.30798-0.61279-0.76836-0.61279h-0.64136zm0.2667-1.0414v-0.82869h0.33973c0.35878 0 0.53976 0.098427 0.53976 0.40006 0 0.29528-0.17463 0.42863-0.53976 0.42863z"/>
   <path d="m93.055 4.0243c0 0.27623 0.19368 0.43816 0.45403 0.43816 0.1905 0 0.36196-0.1016 0.51118-0.22225h0.0064l0.02222 0.18415h0.2159v-0.94617c0-0.38418-0.15875-0.63501-0.53658-0.63501-0.24765 0-0.46356 0.10795-0.60644 0.20003l0.10478 0.18098c0.12065-0.082552 0.2794-0.1651 0.46038-0.1651 0.25083 0 0.31751 0.1905 0.31751 0.38736-0.65724 0.073026-0.94934 0.2413-0.94934 0.57786zm0.25718-0.01905c0-0.19685 0.17463-0.32386 0.69216-0.38736v0.42863c-0.14923 0.13335-0.27306 0.20638-0.42228 0.20638-0.1524 0-0.26988-0.073026-0.26988-0.24765z"/>
   <path d="m94.801 3.9481c0 0.30481 0.11113 0.51436 0.44133 0.51436 0.09525 0 0.20003-0.028576 0.28576-0.057151l-0.0508-0.19685c-0.0508 0.01905-0.12065 0.041276-0.17463 0.041276-0.1778 0-0.23813-0.10795-0.23813-0.29846v-0.85727h0.41593v-0.21273h-0.41593v-0.43181h-0.21908l-0.03175 0.43181-0.2413 0.015875v0.19685h0.2286z"/>
   <path d="m95.874 3.9481c0 0.30481 0.11113 0.51436 0.44133 0.51436 0.09525 0 0.20003-0.028576 0.28576-0.057151l-0.0508-0.19685c-0.0508 0.01905-0.12065 0.041276-0.17463 0.041276-0.1778 0-0.23813-0.10795-0.23813-0.29846v-0.85727h0.41593v-0.21273h-0.41593v-0.43181h-0.21908l-0.03175 0.43181-0.2413 0.015875v0.19685h0.2286z"/>
   <path d="m96.757 3.656c0 0.50483 0.32703 0.80647 0.73979 0.80647 0.20955 0 0.37466-0.073026 0.50801-0.15875l-0.092077-0.17145c-0.1143 0.073026-0.23813 0.12065-0.38418 0.12065-0.29528 0-0.49531-0.20955-0.51436-0.54294h1.0414c0.0063-0.038101 0.0095-0.088902 0.0095-0.14288 0-0.44133-0.22225-0.72391-0.61596-0.72391-0.35243 0-0.69216 0.30798-0.69216 0.81282zm0.254-0.11748c0.03175-0.31116 0.2286-0.48896 0.44451-0.48896 0.2413 0 0.38101 0.17463 0.38101 0.48896z"/>
   <path d="m98.446 4.4243h0.26036v-0.99062c0.10478-0.26036 0.26036-0.35561 0.39053-0.35561 0.0635 0 0.09843 0.00953 0.14923 0.0254l0.050801-0.2286c-0.0508-0.022225-0.09843-0.031751-0.1651-0.031751-0.17463 0-0.33338 0.12383-0.43816 0.31751h-0.0095l-0.02222-0.27941h-0.2159z"/>
   <path d="m99.55 4.4243h0.26036v-1.1176c0.15558-0.15558 0.26353-0.23813 0.42229-0.23813 0.2032 0 0.2921 0.12383 0.2921 0.41276v0.94299h0.26036v-0.97792c0-0.39371-0.14606-0.60326-0.46991-0.60326-0.21273 0-0.37148 0.1143-0.51754 0.26035h-0.0095l-0.02222-0.22225h-0.2159z"/>
   <path d="m101.79 4.4243h1.3081v-0.22543h-0.58738c-0.10478 0-0.22861 0.00953-0.33973 0.01905 0.47943-0.50166 0.82551-0.87949 0.82551-1.2605 0-0.35878-0.23178-0.59691-0.60643-0.59691-0.26353 0-0.44451 0.12383-0.61279 0.30798l0.14923 0.14923c0.11747-0.13653 0.26353-0.24448 0.4318-0.24448 0.25718 0 0.38419 0.1651 0.38419 0.39688 0 0.32703-0.34291 0.69216-0.95252 1.2986z"/>
  </g>
  <g fill="#e8eaec" stroke-linecap="round" stroke-width=".26459" aria-label="Layer 1">
   <path d="m0.13229 4.4243h1.1748v-0.22543h-0.90807v-1.8574h-0.26671z"/>
   <path d="m1.5657 4.0243c0 0.27623 0.19368 0.43816 0.45403 0.43816 0.1905 0 0.36196-0.1016 0.51118-0.22225h0.00635l0.022225 0.18415h0.2159v-0.94617c0-0.38418-0.15875-0.63501-0.53659-0.63501-0.24765 0-0.46356 0.10795-0.60644 0.20003l0.10478 0.18098c0.12065-0.082552 0.27941-0.1651 0.46038-0.1651 0.25083 0 0.31751 0.1905 0.31751 0.38736-0.65724 0.073026-0.94934 0.2413-0.94934 0.57786zm0.25718-0.01905c0-0.19685 0.17463-0.32386 0.69216-0.38736v0.42863c-0.14923 0.13335-0.27306 0.20638-0.42228 0.20638-0.1524 0-0.26988-0.073026-0.26988-0.24765z"/>
   <path d="m3.1619 4.8498-0.050801 0.20638c0.050801 0.01905 0.11113 0.031751 0.18098 0.031751 0.31116 0 0.46991-0.23178 0.57786-0.53659l0.58104-1.6701h-0.254l-0.27623 0.85409c-0.041276 0.13653-0.085727 0.29528-0.13018 0.43498h-0.0127c-0.047626-0.14288-0.1016-0.30163-0.14923-0.43498l-0.31433-0.85409h-0.26988l0.61914 1.5463-0.034926 0.1143c-0.063501 0.1905-0.17463 0.33021-0.34926 0.33021-0.038101 0-0.085727-0.0127-0.11748-0.022225z"/>
   <path d="m4.6221 3.656c0 0.50483 0.32703 0.80647 0.73979 0.80647 0.20955 0 0.37466-0.073026 0.50801-0.15875l-0.092077-0.17145c-0.1143 0.073026-0.23813 0.12065-0.38418 0.12065-0.29528 0-0.49531-0.20955-0.51436-0.54294h1.0414c0.00635-0.038101 0.00953-0.088902 0.00953-0.14288 0-0.44133-0.22225-0.72391-0.61596-0.72391-0.35243 0-0.69216 0.30798-0.69216 0.81282zm0.254-0.11748c0.031751-0.31116 0.2286-0.48896 0.44451-0.48896 0.2413 0 0.38101 0.17463 0.38101 0.48896z"/>
   <path d="m6.3115 4.4243h0.26035v-0.99062c0.10478-0.26036 0.26035-0.35561 0.39053-0.35561 0.063501 0 0.098427 0.00953 0.14923 0.0254l0.050801-0.2286c-0.050801-0.022225-0.098427-0.031751-0.1651-0.031751-0.17463 0-0.33338 0.12383-0.43816 0.31751h-0.00953l-0.022221-0.2794h-0.2159z"/>
   <path d="m8.0445 4.4243h1.143v-0.2159h-0.41911v-1.8098h-0.20003c-0.11113 0.066676-0.24448 0.11748-0.42863 0.14923v0.16828h0.36831v1.4923h-0.46356z"/>
  </g>
  <path d="m19.179 6.7469h103.06v6.4824h-103.06z" fill="#2f3744"/>
  <g fill="#e8eaec" stroke-linecap="round" stroke-width=".26459" aria-label="Pattern 1">
   <path d="m31.147 11.039h0.2667v-0.82552h0.37466c0.45403 0 0.76836-0.20638 0.76836-0.64454 0-0.45721-0.30798-0.61279-0.76836-0.61279h-0.64136zm0.2667-1.0414v-0.82869h0.33973c0.35878 0 0.53976 0.098427 0.53976 0.40006 0 0.29528-0.17463 0.42863-0.53976 0.42863z"/>
   <path d="m32.729 10.639c0 0.27623 0.19368 0.43816 0.45403 0.43816 0.1905 0 0.36196-0.1016 0.51118-0.22225h0.0063l0.02223 0.18415h0.2159v-0.94617c0-0.38418-0.15875-0.63501-0.53658-0.63501-0.24766 0-0.46356 0.10795-0.60644 0.20003l0.10478 0.18098c0.12065-0.082551 0.2794-0.1651 0.46038-0.1651 0.25083 0 0.31751 0.1905 0.31751 0.38736-0.65724 0.07303-0.94934 0.2413-0.94934 0.57786zm0.25718-0.01905c0-0.19685 0.17463-0.32386 0.69216-0.38736v0.42863c-0.14923 0.13335-0.27306 0.20638-0.42228 0.20638-0.1524 0-0.26988-0.07303-0.26988-0.24766z"/>
   <path d="m34.475 10.563c0 0.30481 0.11113 0.51436 0.44133 0.51436 0.09525 0 0.20003-0.02858 0.28576-0.05715l-0.0508-0.19685c-0.0508 0.01905-0.12065 0.04128-0.17463 0.04128-0.1778 0-0.23813-0.10795-0.23813-0.29846v-0.85727h0.41593v-0.21273h-0.41593v-0.43181h-0.21908l-0.03175 0.43181-0.2413 0.015875v0.19685h0.2286z"/>
   <path d="m35.547 10.563c0 0.30481 0.11113 0.51436 0.44133 0.51436 0.09525 0 0.20003-0.02858 0.28576-0.05715l-0.0508-0.19685c-0.0508 0.01905-0.12065 0.04128-0.17463 0.04128-0.1778 0-0.23813-0.10795-0.23813-0.29846v-0.85727h0.41593v-0.21273h-0.41593v-0.43181h-0.21908l-0.03175 0.43181-0.2413 0.015875v0.19685h0.2286z"/>
   <path d="m36.431 10.271c0 0.50483 0.32703 0.80646 0.73979 0.80646 0.20955 0 0.37466-0.07303 0.50801-0.15875l-0.09208-0.17145c-0.1143 0.07303-0.23813 0.12065-0.38418 0.12065-0.29528 0-0.49531-0.20955-0.51436-0.54294h1.0414c0.0063-0.0381 0.0095-0.0889 0.0095-0.14288 0-0.44133-0.22225-0.72391-0.61596-0.72391-0.35243 0-0.69216 0.30798-0.69216 0.81282zm0.254-0.11748c0.03175-0.31116 0.2286-0.48896 0.44451-0.48896 0.2413 0 0.38101 0.17463 0.38101 0.48896z"/>
   <path d="m38.12 11.039h0.26036v-0.99062c0.10478-0.26035 0.26036-0.35561 0.39053-0.35561 0.0635 0 0.09843 0.00953 0.14923 0.0254l0.0508-0.2286c-0.0508-0.022225-0.09843-0.031751-0.1651-0.031751-0.17463 0-0.33338 0.12383-0.43816 0.31751h-0.0095l-0.02223-0.27941h-0.2159z"/>
   <path d="m39.224 11.039h0.26036v-1.1176c0.15558-0.15558 0.26353-0.23813 0.42228-0.23813 0.2032 0 0.2921 0.12383 0.2921 0.41276v0.94299h0.26036v-0.97792c0-0.39371-0.14605-0.60326-0.46991-0.60326-0.21273 0-0.37148 0.1143-0.51754 0.26035h-0.0095l-0.02223-0.22225h-0.2159z"/>
   <path d="m41.589 11.039h1.143v-0.2159h-0.41911v-1.8098h-0.20003c-0.11113 0.066676-0.24448 0.11748-0.42863 0.14923v0.16828h0.36831v1.4923h-0.46356z"/>
  </g>
 </g>
 <g fill="none" stroke="#7b8694" stroke-linecap="square" stroke-miterlimit="40" stroke-width=".26459">
  <path d="m54.766 6.8792v6.3501" stroke-dasharray="0.793764, 0.793764"/>
  <path d="m19.179 13.229h102.92"/>
  <path d="m122.11 6.8792v6.3501" stroke-dasharray="0.793764, 0.793764"/>
  <path d="m19.046 6.8792v6.3501" stroke-dasharray="0.793764, 0.793764"/>
 </g>
 <g>
  <g fill="#e8eaec" stroke-linecap="round" stroke-width=".26459" aria-label="Pattern 3">
   <path d="m98.881 11.039h0.2667v-0.82552h0.37466c0.45403 0 0.76836-0.20638 0.76836-0.64454 0-0.45721-0.30798-0.61279-0.76836-0.61279h-0.64136zm0.2667-1.0414v-0.82869h0.33973c0.35878 0 0.53976 0.098427 0.53976 0.40006 0 0.29528-0.17463 0.42863-0.53976 0.42863z"/>
   <path d="m100.46 10.639c0 0.27623 0.19368 0.43816 0.45403 0.43816 0.1905 0 0.36196-0.1016 0.51118-0.22225h6e-3l0.0222 0.18415h0.2159v-0.94617c0-0.38418-0.15875-0.63501-0.53658-0.63501-0.24766 0-0.46356 0.10795-0.60644 0.20003l0.10478 0.18098c0.12065-0.082551 0.2794-0.1651 0.46038-0.1651 0.25083 0 0.31751 0.1905 0.31751 0.38736-0.65724 0.07303-0.94934 0.2413-0.94934 0.57786zm0.25718-0.01905c0-0.19685 0.17462-0.32386 0.69216-0.38736v0.42863c-0.14923 0.13335-0.27306 0.20638-0.42228 0.20638-0.15241 0-0.26988-0.07303-0.26988-0.24766z"/>
   <path d="m102.21 10.563c0 0.30481 0.11112 0.51436 0.44133 0.51436 0.0952 0 0.20003-0.02858 0.28576-0.05715l-0.0508-0.19685c-0.0508 0.01905-0.12065 0.04128-0.17462 0.04128-0.17781 0-0.23813-0.10795-0.23813-0.29846v-0.85727h0.41593v-0.21273h-0.41593v-0.43181h-0.21908l-0.0317 0.43181-0.24131 0.015875v0.19685h0.22861z"/>
   <path d="m103.28 10.563c0 0.30481 0.11113 0.51436 0.44133 0.51436 0.0953 0 0.20003-0.02858 0.28576-0.05715l-0.0508-0.19685c-0.0508 0.01905-0.12065 0.04128-0.17463 0.04128-0.1778 0-0.23813-0.10795-0.23813-0.29846v-0.85727h0.41593v-0.21273h-0.41593v-0.43181h-0.21908l-0.0318 0.43181-0.2413 0.015875v0.19685h0.2286z"/>
   <path d="m104.17 10.271c0 0.50483 0.32703 0.80646 0.73979 0.80646 0.20956 0 0.37466-0.07303 0.50801-0.15875l-0.0921-0.17145c-0.1143 0.07303-0.23812 0.12065-0.38418 0.12065-0.29528 0-0.49531-0.20955-0.51436-0.54294h1.0414c6e-3 -0.0381 0.01-0.0889 0.01-0.14288 0-0.44133-0.22226-0.72391-0.61596-0.72391-0.35244 0-0.69217 0.30798-0.69217 0.81282zm0.25401-0.11748c0.0318-0.31116 0.2286-0.48896 0.44451-0.48896 0.2413 0 0.381 0.17463 0.381 0.48896z"/>
   <path d="m105.85 11.039h0.26036v-0.99062c0.10477-0.26035 0.26035-0.35561 0.39053-0.35561 0.0635 0 0.0984 0.00953 0.14923 0.0254l0.0508-0.2286c-0.0508-0.022225-0.0984-0.031751-0.1651-0.031751-0.17463 0-0.33339 0.12383-0.43816 0.31751h-0.01l-0.0222-0.27941h-0.21591z"/>
   <path d="m106.96 11.039h0.26036v-1.1176c0.15558-0.15558 0.26353-0.23813 0.42228-0.23813 0.2032 0 0.29211 0.12383 0.29211 0.41276v0.94299h0.26035v-0.97792c0-0.39371-0.14605-0.60326-0.46991-0.60326-0.21273 0-0.37148 0.1143-0.51753 0.26035h-0.01l-0.0222-0.22225h-0.21591z"/>
   <path d="m109.16 10.791c0.13653 0.14923 0.34291 0.28576 0.66677 0.28576 0.37148 0 0.66676-0.21908 0.66676-0.57786 0-0.2794-0.19368-0.45721-0.43816-0.51436v-0.0127c0.21908-0.082552 0.36831-0.23813 0.36831-0.48261 0-0.32703-0.25401-0.51436-0.60644-0.51436-0.23813 0-0.42546 0.10795-0.58104 0.254l0.13971 0.1651c0.12065-0.12065 0.26353-0.20638 0.4318-0.20638 0.21591 0 0.34926 0.12383 0.34926 0.32068 0 0.21273-0.14288 0.37783-0.57468 0.37783v0.20003c0.4826 0 0.64771 0.16193 0.64771 0.40323 0 0.22543-0.17463 0.37148-0.41911 0.37148-0.23813 0-0.39688-0.1143-0.51753-0.2413z"/>
  </g>
  <g fill="#e8eaec" stroke-linecap="round" stroke-width=".26459" aria-label="Layer 2">
   <path d="m0.13229 11.039h1.1748v-0.22543h-0.90807v-1.8574h-0.26671z"/>
   <path d="m1.5657 10.639c0 0.27623 0.19368 0.43816 0.45403 0.43816 0.1905 0 0.36196-0.1016 0.51118-0.22225h0.00635l0.022225 0.18415h0.2159v-0.94617c0-0.38418-0.15875-0.63501-0.53659-0.63501-0.24765 0-0.46356 0.10795-0.60644 0.20003l0.10478 0.18098c0.12065-0.082551 0.27941-0.1651 0.46038-0.1651 0.25083 0 0.31751 0.1905 0.31751 0.38736-0.65724 0.07303-0.94934 0.2413-0.94934 0.57786zm0.25718-0.01905c0-0.19685 0.17463-0.32386 0.69216-0.38736v0.42863c-0.14923 0.13335-0.27306 0.20638-0.42228 0.20638-0.1524 0-0.26988-0.07303-0.26988-0.24766z"/>
   <path d="m3.1619 11.464-0.050801 0.20638c0.050801 0.01905 0.11113 0.03175 0.18098 0.03175 0.31116 0 0.46991-0.23178 0.57786-0.53658l0.58104-1.6701h-0.254l-0.27623 0.85409c-0.041276 0.13653-0.085727 0.29528-0.13018 0.43498h-0.0127c-0.047626-0.14288-0.1016-0.30163-0.14923-0.43498l-0.31433-0.85409h-0.26988l0.61914 1.5463-0.034926 0.1143c-0.063501 0.1905-0.17463 0.33021-0.34926 0.33021-0.038101 0-0.085727-0.0127-0.11748-0.02223z"/>
   <path d="m4.6221 10.271c0 0.50483 0.32703 0.80646 0.73979 0.80646 0.20955 0 0.37466-0.07303 0.50801-0.15875l-0.092077-0.17145c-0.1143 0.07303-0.23813 0.12065-0.38418 0.12065-0.29528 0-0.49531-0.20955-0.51436-0.54294h1.0414c0.00635-0.0381 0.00953-0.0889 0.00953-0.14288 0-0.44133-0.22225-0.72391-0.61596-0.72391-0.35243 0-0.69216 0.30798-0.69216 0.81282zm0.254-0.11748c0.031751-0.31116 0.2286-0.48896 0.44451-0.48896 0.2413 0 0.38101 0.17463 0.38101 0.48896z"/>
   <path d="m6.3115 11.039h0.26035v-0.99062c0.10478-0.26035 0.26035-0.35561 0.39053-0.35561 0.063501 0 0.098427 0.00953 0.14923 0.0254l0.050801-0.2286c-0.050801-0.022225-0.098427-0.031751-0.1651-0.031751-0.17463 0-0.33338 0.12383-0.43816 0.31751h-0.00953l-0.022221-0.2794h-0.2159z"/>
   <path d="m7.9207 11.039h1.3081v-0.22543h-0.58739c-0.10478 0-0.2286 0.0095-0.33973 0.01905 0.47943-0.50166 0.82552-0.87949 0.82552-1.2605 0-0.35878-0.23178-0.59691-0.60644-0.59691-0.26353 0-0.44451 0.12383-0.61279 0.30798l0.14923 0.14923c0.11748-0.13653 0.26353-0.24448 0.43181-0.24448 0.25718 0 0.38418 0.1651 0.38418 0.39688 0 0.32703-0.34291 0.69216-0.95252 1.2986z"/>
  </g>
  <path d="m19.179 13.362h103.06v6.4824h-103.06z" fill="#2f3744"/>
  <g fill="#e8eaec" stroke-linecap="round" stroke-width=".26459" aria-label="Pattern 1">
   <path d="m22.68 17.654h0.2667v-0.82552h0.37466c0.45403 0 0.76836-0.20638 0.76836-0.64454 0-0.45721-0.30798-0.61279-0.76836-0.61279h-0.64136zm0.2667-1.0414v-0.82869h0.33973c0.35878 0 0.53976 0.09843 0.53976 0.40006 0 0.29528-0.17463 0.42863-0.53976 0.42863z"/>
   <path d="m24.262 17.254c0 0.27623 0.19368 0.43816 0.45403 0.43816 0.1905 0 0.36196-0.1016 0.51118-0.22225h0.0064l0.02223 0.18415h0.2159v-0.94617c0-0.38418-0.15875-0.63501-0.53659-0.63501-0.24765 0-0.46356 0.10795-0.60644 0.20003l0.10478 0.18098c0.12065-0.08255 0.2794-0.1651 0.46038-0.1651 0.25083 0 0.31751 0.1905 0.31751 0.38736-0.65724 0.07303-0.94934 0.2413-0.94934 0.57786zm0.25718-0.01905c0-0.19685 0.17463-0.32386 0.69216-0.38736v0.42863c-0.14923 0.13335-0.27306 0.20638-0.42228 0.20638-0.1524 0-0.26988-0.07303-0.26988-0.24765z"/>
   <path d="m26.008 17.177c0 0.30481 0.11113 0.51436 0.44133 0.51436 0.09525 0 0.20003-0.02858 0.28576-0.05715l-0.0508-0.19685c-0.0508 0.01905-0.12065 0.04128-0.17463 0.04128-0.1778 0-0.23813-0.10795-0.23813-0.29846v-0.85727h0.41593v-0.21273h-0.41593v-0.43181h-0.21908l-0.03175 0.43181-0.2413 0.01588v0.19685h0.2286z"/>
   <path d="m27.081 17.177c0 0.30481 0.11113 0.51436 0.44133 0.51436 0.09525 0 0.20003-0.02858 0.28576-0.05715l-0.0508-0.19685c-0.0508 0.01905-0.12065 0.04128-0.17463 0.04128-0.1778 0-0.23813-0.10795-0.23813-0.29846v-0.85727h0.41593v-0.21273h-0.41593v-0.43181h-0.21908l-0.03175 0.43181-0.2413 0.01588v0.19685h0.2286z"/>
   <path d="m27.964 16.885c0 0.50484 0.32703 0.80646 0.73979 0.80646 0.20955 0 0.37466-0.07303 0.50801-0.15875l-0.09208-0.17145c-0.1143 0.07303-0.23813 0.12065-0.38418 0.12065-0.29528 0-0.49531-0.20955-0.51436-0.54294h1.0414c0.0064-0.0381 0.0095-0.0889 0.0095-0.14288 0-0.44133-0.22225-0.72391-0.61596-0.72391-0.35243 0-0.69216 0.30798-0.69216 0.81282zm0.254-0.11748c0.03175-0.31116 0.2286-0.48896 0.44451-0.48896 0.2413 0 0.38101 0.17463 0.38101 0.48896z"/>
   <path d="m29.653 17.654h0.26036v-0.99062c0.10478-0.26036 0.26036-0.35561 0.39053-0.35561 0.0635 0 0.09843 0.0095 0.14923 0.0254l0.0508-0.2286c-0.0508-0.02223-0.09843-0.03175-0.1651-0.03175-0.17463 0-0.33338 0.12383-0.43816 0.31751h-0.0095l-0.02223-0.27941h-0.2159z"/>
   <path d="m30.757 17.654h0.26036v-1.1176c0.15558-0.15558 0.26353-0.23813 0.42228-0.23813 0.2032 0 0.2921 0.12383 0.2921 0.41276v0.94299h0.26036v-0.97792c0-0.39371-0.14605-0.60326-0.46991-0.60326-0.21273 0-0.37148 0.1143-0.51753 0.26036h-0.0095l-0.02222-0.22226h-0.2159z"/>
   <path d="m33.123 17.654h1.143v-0.2159h-0.41911v-1.8098h-0.20003c-0.11113 0.06668-0.24448 0.11748-0.42863 0.14923v0.16828h0.36831v1.4923h-0.46356z"/>
  </g>
 </g>
 <g fill="none" stroke="#7b8694" stroke-linecap="square" stroke-miterlimit="40" stroke-width=".26459">
  <path d="m37.832 13.494v6.3501" stroke-dasharray="0.793764, 0.793764"/>
  <path d="m19.179 19.844h102.92"/>
  <path d="m122.11 13.494v6.3501" stroke-dasharray="0.793764, 0.793764"/>
  <path d="m19.046 13.494v6.3501" stroke-dasharray="0.793764, 0.793764"/>
 </g>
 <g>
  <g fill="#e8eaec" stroke-linecap="round" stroke-width=".26459" aria-label="Layer 3">
   <path d="m0.13229 17.654h1.1748v-0.22543h-0.90807v-1.8574h-0.26671z"/>
   <path d="m1.5657 17.254c0 0.27623 0.19368 0.43816 0.45403 0.43816 0.1905 0 0.36196-0.1016 0.51118-0.22225h0.00635l0.022225 0.18415h0.2159v-0.94617c0-0.38418-0.15875-0.63501-0.53659-0.63501-0.24765 0-0.46356 0.10795-0.60644 0.20003l0.10478 0.18098c0.12065-0.08255 0.27941-0.1651 0.46038-0.1651 0.25083 0 0.31751 0.1905 0.31751 0.38736-0.65724 0.07303-0.94934 0.2413-0.94934 0.57786zm0.25718-0.01905c0-0.19685 0.17463-0.32386 0.69216-0.38736v0.42863c-0.14923 0.13335-0.27306 0.20638-0.42228 0.20638-0.1524 0-0.26988-0.07303-0.26988-0.24765z"/>
   <path d="m3.1619 18.079-0.050801 0.20638c0.050801 0.01905 0.11113 0.03175 0.18098 0.03175 0.31116 0 0.46991-0.23178 0.57786-0.53658l0.58104-1.6701h-0.254l-0.27623 0.85409c-0.041276 0.13653-0.085727 0.29528-0.13018 0.43498h-0.0127c-0.047626-0.14288-0.1016-0.30163-0.14923-0.43498l-0.31433-0.85409h-0.26988l0.61914 1.5463-0.034926 0.1143c-0.063501 0.1905-0.17463 0.33021-0.34926 0.33021-0.038101 0-0.085727-0.0127-0.11748-0.02222z"/>
   <path d="m4.6221 16.885c0 0.50484 0.32703 0.80646 0.73979 0.80646 0.20955 0 0.37466-0.07303 0.50801-0.15875l-0.092077-0.17145c-0.1143 0.07303-0.23813 0.12065-0.38418 0.12065-0.29528 0-0.49531-0.20955-0.51436-0.54294h1.0414c0.00635-0.0381 0.00953-0.0889 0.00953-0.14288 0-0.44133-0.22225-0.72391-0.61596-0.72391-0.35243 0-0.69216 0.30798-0.69216 0.81282zm0.254-0.11748c0.031751-0.31116 0.2286-0.48896 0.44451-0.48896 0.2413 0 0.38101 0.17463 0.38101 0.48896z"/>
   <path d="m6.3115 17.654h0.26035v-0.99062c0.10478-0.26036 0.26035-0.35561 0.39053-0.35561 0.063501 0 0.098427 0.0095 0.14923 0.0254l0.050801-0.2286c-0.050801-0.02223-0.098427-0.03175-0.1651-0.03175-0.17463 0-0.33338 0.12383-0.43816 0.31751h-0.00953l-0.022221-0.2794h-0.2159z"/>
   <path d="m7.8763 17.406c0.13653 0.14923 0.34291 0.28576 0.66676 0.28576 0.37148 0 0.66676-0.21908 0.66676-0.57786 0-0.2794-0.19368-0.45721-0.43816-0.51436v-0.0127c0.21908-0.08255 0.36831-0.23813 0.36831-0.48261 0-0.32703-0.254-0.51436-0.60644-0.51436-0.23813 0-0.42546 0.10795-0.58104 0.254l0.1397 0.1651c0.12065-0.12065 0.26353-0.20638 0.43181-0.20638 0.2159 0 0.34926 0.12383 0.34926 0.32068 0 0.21273-0.14288 0.37783-0.57469 0.37783v0.20003c0.48261 0 0.64771 0.16193 0.64771 0.40323 0 0.22543-0.17463 0.37148-0.41911 0.37148-0.23813 0-0.39688-0.1143-0.51753-0.2413z"/>
  </g>
  <path d="m19.179 19.976h103.06v6.4824h-103.06z" fill="#2f3744"/>
  <g fill="#e8eaec" stroke-linecap="round" stroke-width=".26459" aria-label="Pattern 1">
   <path d="m26.384 24.268h0.2667v-0.82552h0.37466c0.45403 0 0.76836-0.20638 0.76836-0.64454 0-0.45721-0.30798-0.61279-0.76836-0.61279h-0.64136zm0.2667-1.0414v-0.82869h0.33973c0.35878 0 0.53976 0.09843 0.53976 0.40006 0 0.29528-0.17463 0.42863-0.53976 0.42863z"/>
   <path d="m27.967 23.868c0 0.27623 0.19368 0.43816 0.45403 0.43816 0.1905 0 0.36196-0.1016 0.51118-0.22226h0.0064l0.02223 0.18415h0.2159v-0.94617c0-0.38418-0.15875-0.63501-0.53658-0.63501-0.24766 0-0.46356 0.10795-0.60644 0.20003l0.10478 0.18098c0.12065-0.08255 0.27941-0.1651 0.46038-0.1651 0.25083 0 0.31751 0.1905 0.31751 0.38736-0.65724 0.07303-0.94934 0.2413-0.94934 0.57786zm0.25718-0.01905c0-0.19685 0.17463-0.32386 0.69216-0.38736v0.42863c-0.14923 0.13335-0.27306 0.20638-0.42228 0.20638-0.1524 0-0.26988-0.07303-0.26988-0.24766z"/>
   <path d="m29.712 23.792c0 0.30481 0.11113 0.51436 0.44133 0.51436 0.09525 0 0.20003-0.02858 0.28576-0.05715l-0.0508-0.19685c-0.0508 0.01905-0.12065 0.04128-0.17463 0.04128-0.1778 0-0.23813-0.10795-0.23813-0.29846v-0.85727h0.41593v-0.21274h-0.41593v-0.43181h-0.21908l-0.03175 0.43181-0.2413 0.01588v0.19685h0.2286z"/>
   <path d="m30.785 23.792c0 0.30481 0.11113 0.51436 0.44133 0.51436 0.09525 0 0.20003-0.02858 0.28576-0.05715l-0.0508-0.19685c-0.0508 0.01905-0.12065 0.04128-0.17463 0.04128-0.1778 0-0.23813-0.10795-0.23813-0.29846v-0.85727h0.41593v-0.21274h-0.41593v-0.43181h-0.21908l-0.03175 0.43181-0.2413 0.01588v0.19685h0.2286z"/>
   <path d="m31.668 23.5c0 0.50484 0.32703 0.80647 0.73979 0.80647 0.20955 0 0.37466-0.07303 0.50801-0.15875l-0.09208-0.17145c-0.1143 0.07303-0.23813 0.12065-0.38418 0.12065-0.29528 0-0.49531-0.20955-0.51436-0.54294h1.0414c0.0063-0.0381 0.0095-0.0889 0.0095-0.14288 0-0.44133-0.22225-0.72391-0.61596-0.72391-0.35243 0-0.69216 0.30798-0.69216 0.81282zm0.254-0.11748c0.03175-0.31116 0.2286-0.48896 0.44451-0.48896 0.2413 0 0.38101 0.17463 0.38101 0.48896z"/>
   <path d="m33.357 24.268h0.26036v-0.99062c0.10478-0.26036 0.26036-0.35561 0.39053-0.35561 0.0635 0 0.09843 0.0095 0.14923 0.0254l0.050801-0.2286c-0.0508-0.02223-0.09843-0.03175-0.1651-0.03175-0.17463 0-0.33338 0.12383-0.43816 0.31751h-0.0095l-0.02223-0.2794h-0.2159z"/>
   <path d="m34.461 24.268h0.26036v-1.1176c0.15558-0.15558 0.26353-0.23813 0.42228-0.23813 0.2032 0 0.29211 0.12383 0.29211 0.41276v0.94299h0.26036v-0.97792c0-0.39371-0.14605-0.60326-0.46991-0.60326-0.21273 0-0.37148 0.1143-0.51754 0.26036h-0.0095l-0.02223-0.22225h-0.2159z"/>
   <path d="m36.827 24.268h1.143v-0.2159h-0.41911v-1.8098h-0.20003c-0.11113 0.06668-0.24448 0.11748-0.42863 0.14923v0.16828h0.36831v1.4923h-0.46356z"/>
  </g>
 </g>
 <g fill="none" stroke="#7b8694" stroke-linecap="square" stroke-miterlimit="40" stroke-width=".26459">
  <path d="m70.641 20.109v6.3501" stroke-dasharray="0.793764, 0.793764"/>
  <path d="m19.179 26.459h102.92"/>
  <path d="m122.11 20.109v6.3501" stroke-dasharray="0.793764, 0.793764"/>
  <path d="m19.046 20.109v6.3501" stroke-dasharray="0.793764, 0.793764"/>
 </g>
 <g stroke-width=".26459">
  <g fill="#e8eaec" stroke-linecap="round" aria-label="Pattern 2">
   <path d="m77.185 24.268h0.2667v-0.82552h0.37466c0.45403 0 0.76836-0.20638 0.76836-0.64454 0-0.45721-0.30798-0.61279-0.76836-0.61279h-0.64136zm0.2667-1.0414v-0.82869h0.33973c0.35878 0 0.53976 0.09843 0.53976 0.40006 0 0.29528-0.17463 0.42863-0.53976 0.42863z"/>
   <path d="m78.768 23.868c0 0.27623 0.19368 0.43816 0.45403 0.43816 0.1905 0 0.36196-0.1016 0.51118-0.22226h0.0063l0.02222 0.18415h0.2159v-0.94617c0-0.38418-0.15875-0.63501-0.53658-0.63501-0.24766 0-0.46356 0.10795-0.60644 0.20003l0.10478 0.18098c0.12065-0.08255 0.2794-0.1651 0.46038-0.1651 0.25083 0 0.31751 0.1905 0.31751 0.38736-0.65724 0.07303-0.94934 0.2413-0.94934 0.57786zm0.25718-0.01905c0-0.19685 0.17463-0.32386 0.69216-0.38736v0.42863c-0.14923 0.13335-0.27306 0.20638-0.42228 0.20638-0.1524 0-0.26988-0.07303-0.26988-0.24766z"/>
   <path d="m80.513 23.792c0 0.30481 0.11113 0.51436 0.44133 0.51436 0.09525 0 0.20003-0.02858 0.28576-0.05715l-0.0508-0.19685c-0.0508 0.01905-0.12065 0.04128-0.17463 0.04128-0.1778 0-0.23813-0.10795-0.23813-0.29846v-0.85727h0.41593v-0.21274h-0.41593v-0.43181h-0.21908l-0.03175 0.43181-0.2413 0.01588v0.19685h0.2286z"/>
   <path d="m81.586 23.792c0 0.30481 0.11113 0.51436 0.44133 0.51436 0.09525 0 0.20003-0.02858 0.28576-0.05715l-0.0508-0.19685c-0.0508 0.01905-0.12065 0.04128-0.17463 0.04128-0.1778 0-0.23813-0.10795-0.23813-0.29846v-0.85727h0.41593v-0.21274h-0.41593v-0.43181h-0.21908l-0.03175 0.43181-0.2413 0.01588v0.19685h0.2286z"/>
   <path d="m82.469 23.5c0 0.50484 0.32703 0.80647 0.73979 0.80647 0.20955 0 0.37466-0.07303 0.50801-0.15875l-0.09208-0.17145c-0.1143 0.07303-0.23813 0.12065-0.38418 0.12065-0.29528 0-0.49531-0.20955-0.51436-0.54294h1.0414c0.0064-0.0381 0.0095-0.0889 0.0095-0.14288 0-0.44133-0.22226-0.72391-0.61596-0.72391-0.35243 0-0.69216 0.30798-0.69216 0.81282zm0.254-0.11748c0.03175-0.31116 0.2286-0.48896 0.44451-0.48896 0.2413 0 0.38101 0.17463 0.38101 0.48896z"/>
   <path d="m84.158 24.268h0.26036v-0.99062c0.10478-0.26036 0.26035-0.35561 0.39053-0.35561 0.0635 0 0.09843 0.0095 0.14923 0.0254l0.0508-0.2286c-0.0508-0.02223-0.09843-0.03175-0.1651-0.03175-0.17463 0-0.33338 0.12383-0.43816 0.31751h-0.0095l-0.02222-0.2794h-0.2159z"/>
   <path d="m85.262 24.268h0.26036v-1.1176c0.15558-0.15558 0.26353-0.23813 0.42228-0.23813 0.2032 0 0.29211 0.12383 0.29211 0.41276v0.94299h0.26036v-0.97792c0-0.39371-0.14605-0.60326-0.46991-0.60326-0.21273 0-0.37148 0.1143-0.51754 0.26036h-0.0095l-0.02222-0.22225h-0.2159z"/>
   <path d="m87.504 24.268h1.3081v-0.22543h-0.58739c-0.10478 0-0.2286 0.0095-0.33973 0.01905 0.47943-0.50166 0.82552-0.87949 0.82552-1.2605 0-0.35878-0.23178-0.59691-0.60644-0.59691-0.26353 0-0.44451 0.12383-0.61279 0.30798l0.14923 0.14923c0.11748-0.13653 0.26353-0.24448 0.43181-0.24448 0.25718 0 0.38418 0.1651 0.38418 0.39688 0 0.32703-0.34291 0.69216-0.95252 1.2986z"/>
  </g>
  <g fill="#e8eaec" stroke-linecap="round" aria-label="Layer 4">
   <path d="m0.13229 24.268h1.1748v-0.22543h-0.90807v-1.8574h-0.26671z"/>
   <path d="m1.5657 23.868c0 0.27623 0.19368 0.43816 0.45403 0.43816 0.1905 0 0.36196-0.1016 0.51118-0.22226h0.00635l0.022225 0.18415h0.2159v-0.94617c0-0.38418-0.15875-0.63501-0.53659-0.63501-0.24765 0-0.46356 0.10795-0.60644 0.20003l0.10478 0.18098c0.12065-0.08255 0.27941-0.1651 0.46038-0.1651 0.25083 0 0.31751 0.1905 0.31751 0.38736-0.65724 0.07303-0.94934 0.2413-0.94934 0.57786zm0.25718-0.01905c0-0.19685 0.17463-0.32386 0.69216-0.38736v0.42863c-0.14923 0.13335-0.27306 0.20638-0.42228 0.20638-0.1524 0-0.26988-0.07303-0.26988-0.24766z"/>
   <path d="m3.1619 24.694-0.050801 0.20638c0.050801 0.01905 0.11113 0.03175 0.18098 0.03175 0.31116 0 0.46991-0.23178 0.57786-0.53658l0.58104-1.6701h-0.254l-0.27623 0.85409c-0.041276 0.13653-0.085727 0.29528-0.13018 0.43498h-0.0127c-0.047626-0.14288-0.1016-0.30163-0.14923-0.43498l-0.31433-0.85409h-0.26988l0.61914 1.5463-0.034926 0.1143c-0.063501 0.1905-0.17463 0.33021-0.34926 0.33021-0.038101 0-0.085727-0.0127-0.11748-0.02222z"/>
   <path d="m4.6221 23.5c0 0.50484 0.32703 0.80647 0.73979 0.80647 0.20955 0 0.37466-0.07303 0.50801-0.15875l-0.092077-0.17145c-0.1143 0.07303-0.23813 0.12065-0.38418 0.12065-0.29528 0-0.49531-0.20955-0.51436-0.54294h1.0414c0.00635-0.0381 0.00953-0.0889 0.00953-0.14288 0-0.44133-0.22225-0.72391-0.61596-0.72391-0.35243 0-0.69216 0.30798-0.69216 0.81282zm0.254-0.11748c0.031751-0.31116 0.2286-0.48896 0.44451-0.48896 0.2413 0 0.38101 0.17463 0.38101 0.48896z"/>
   <path d="m6.3115 24.268h0.26035v-0.99062c0.10478-0.26036 0.26035-0.35561 0.39053-0.35561 0.063501 0 0.098427 0.0095 0.14923 0.0254l0.050801-0.2286c-0.050801-0.02223-0.098427-0.03175-0.1651-0.03175-0.17463 0-0.33338 0.12383-0.43816 0.31751h-0.00953l-0.022221-0.27941h-0.2159z"/>
   <path d="m8.1239 23.5 0.47308-0.69216c0.057151-0.09843 0.1143-0.18733 0.1651-0.28576h0.0127c-0.00635 0.10795-0.015875 0.28258-0.015875 0.39053v0.58739zm1.1589 0h-0.27623v-1.2573h-0.29211l-0.86679 1.2954v0.17145h0.91124v0.55881h0.24765v-0.55881h0.27623z"/>
  </g>
  <path d="m86.516 6.8792v6.3501" fill="none" stroke="#7b8694" stroke-dasharray="0.793764, 0.793764" stroke-linecap="square" stroke-miterlimit="40"/>
  <g fill="#e8eaec" stroke-linecap="round" aria-label="Pattern 2">
   <path d="m64.75 11.039h0.2667v-0.82552h0.37466c0.45403 0 0.76836-0.20638 0.76836-0.64454 0-0.45721-0.30798-0.61279-0.76836-0.61279h-0.64136zm0.2667-1.0414v-0.82869h0.33973c0.35878 0 0.53976 0.098427 0.53976 0.40006 0 0.29528-0.17463 0.42863-0.53976 0.42863z"/>
   <path d="m66.332 10.639c0 0.27623 0.19368 0.43816 0.45403 0.43816 0.1905 0 0.36196-0.1016 0.51118-0.22225h0.0063l0.02223 0.18415h0.2159v-0.94617c0-0.38418-0.15875-0.63501-0.53658-0.63501-0.24766 0-0.46356 0.10795-0.60644 0.20003l0.10478 0.18098c0.12065-0.082551 0.2794-0.1651 0.46038-0.1651 0.25083 0 0.31751 0.1905 0.31751 0.38736-0.65724 0.07303-0.94934 0.2413-0.94934 0.57786zm0.25718-0.01905c0-0.19685 0.17463-0.32386 0.69216-0.38736v0.42863c-0.14923 0.13335-0.27306 0.20638-0.42228 0.20638-0.1524 0-0.26988-0.07303-0.26988-0.24766z"/>
   <path d="m68.077 10.563c0 0.30481 0.11113 0.51436 0.44133 0.51436 0.09525 0 0.20003-0.02858 0.28576-0.05715l-0.0508-0.19685c-0.0508 0.01905-0.12065 0.04128-0.17463 0.04128-0.1778 0-0.23813-0.10795-0.23813-0.29846v-0.85727h0.41593v-0.21273h-0.41593v-0.43181h-0.21908l-0.03175 0.43181-0.2413 0.015875v0.19685h0.2286z"/>
   <path d="m69.15 10.563c0 0.30481 0.11113 0.51436 0.44133 0.51436 0.09525 0 0.20003-0.02858 0.28576-0.05715l-0.0508-0.19685c-0.0508 0.01905-0.12065 0.04128-0.17463 0.04128-0.1778 0-0.23813-0.10795-0.23813-0.29846v-0.85727h0.41593v-0.21273h-0.41593v-0.43181h-0.21908l-0.03175 0.43181-0.2413 0.015875v0.19685h0.2286z"/>
   <path d="m70.033 10.271c0 0.50483 0.32703 0.80646 0.73979 0.80646 0.20955 0 0.37466-0.07303 0.50801-0.15875l-0.09208-0.17145c-0.1143 0.07303-0.23813 0.12065-0.38418 0.12065-0.29528 0-0.49531-0.20955-0.51436-0.54294h1.0414c0.0063-0.0381 0.0095-0.0889 0.0095-0.14288 0-0.44133-0.22225-0.72391-0.61596-0.72391-0.35243 0-0.69216 0.30798-0.69216 0.81282zm0.254-0.11748c0.03175-0.31116 0.2286-0.48896 0.44451-0.48896 0.2413 0 0.38101 0.17463 0.38101 0.48896z"/>
   <path d="m71.723 11.039h0.26036v-0.99062c0.10478-0.26035 0.26036-0.35561 0.39053-0.35561 0.0635 0 0.09843 0.00953 0.14923 0.0254l0.0508-0.2286c-0.0508-0.022225-0.09843-0.031751-0.1651-0.031751-0.17463 0-0.33338 0.12383-0.43816 0.31751h-0.0095l-0.02223-0.27941h-0.2159z"/>
   <path d="m72.826 11.039h0.26036v-1.1176c0.15558-0.15558 0.26353-0.23813 0.42228-0.23813 0.2032 0 0.2921 0.12383 0.2921 0.41276v0.94299h0.26036v-0.97792c0-0.39371-0.14605-0.60326-0.46991-0.60326-0.21273 0-0.37148 0.1143-0.51754 0.26035h-0.0095l-0.02223-0.22225h-0.2159z"/>
   <path d="m75.068 11.039h1.3081v-0.22543h-0.58739c-0.10478 0-0.2286 0.0095-0.33973 0.01905 0.47943-0.50166 0.82552-0.87949 0.82552-1.2605 0-0.35878-0.23178-0.59691-0.60644-0.59691-0.26353 0-0.44451 0.12383-0.61279 0.30798l0.14923 0.14923c0.11748-0.13653 0.26353-0.24448 0.43181-0.24448 0.25718 0 0.38418 0.1651 0.38418 0.39688 0 0.32703-0.34291 0.69216-0.95252 1.2986z"/>
  </g>
  <g fill="#e8eaec" stroke-linecap="round" aria-label="Pattern 2">
   <path d="m41.201 17.654h0.2667v-0.82552h0.37466c0.45403 0 0.76836-0.20638 0.76836-0.64454 0-0.45721-0.30798-0.61279-0.76836-0.61279h-0.64136zm0.2667-1.0414v-0.82869h0.33973c0.35878 0 0.53976 0.09843 0.53976 0.40006 0 0.29528-0.17463 0.42863-0.53976 0.42863z"/>
   <path d="m42.784 17.254c0 0.27623 0.19368 0.43816 0.45403 0.43816 0.1905 0 0.36196-0.1016 0.51118-0.22225h0.0063l0.02222 0.18415h0.2159v-0.94617c0-0.38418-0.15875-0.63501-0.53658-0.63501-0.24766 0-0.46356 0.10795-0.60644 0.20003l0.10478 0.18098c0.12065-0.08255 0.2794-0.1651 0.46038-0.1651 0.25083 0 0.31751 0.1905 0.31751 0.38736-0.65724 0.07303-0.94934 0.2413-0.94934 0.57786zm0.25718-0.01905c0-0.19685 0.17463-0.32386 0.69216-0.38736v0.42863c-0.14923 0.13335-0.27306 0.20638-0.42228 0.20638-0.1524 0-0.26988-0.07303-0.26988-0.24765z"/>
   <path d="m44.529 17.177c0 0.30481 0.11113 0.51436 0.44133 0.51436 0.09525 0 0.20003-0.02858 0.28576-0.05715l-0.0508-0.19685c-0.0508 0.01905-0.12065 0.04128-0.17463 0.04128-0.1778 0-0.23813-0.10795-0.23813-0.29846v-0.85727h0.41593v-0.21273h-0.41593v-0.43181h-0.21908l-0.03175 0.43181-0.2413 0.01588v0.19685h0.2286z"/>
   <path d="m45.602 17.177c0 0.30481 0.11113 0.51436 0.44133 0.51436 0.09525 0 0.20003-0.02858 0.28576-0.05715l-0.0508-0.19685c-0.0508 0.01905-0.12065 0.04128-0.17463 0.04128-0.1778 0-0.23813-0.10795-0.23813-0.29846v-0.85727h0.41593v-0.21273h-0.41593v-0.43181h-0.21908l-0.03175 0.43181-0.2413 0.01588v0.19685h0.2286z"/>
   <path d="m46.485 16.885c0 0.50484 0.32703 0.80646 0.73979 0.80646 0.20955 0 0.37466-0.07303 0.50801-0.15875l-0.09208-0.17145c-0.1143 0.07303-0.23813 0.12065-0.38418 0.12065-0.29528 0-0.49531-0.20955-0.51436-0.54294h1.0414c0.0064-0.0381 0.0095-0.0889 0.0095-0.14288 0-0.44133-0.22226-0.72391-0.61596-0.72391-0.35243 0-0.69216 0.30798-0.69216 0.81282zm0.254-0.11748c0.03175-0.31116 0.2286-0.48896 0.44451-0.48896 0.2413 0 0.38101 0.17463 0.38101 0.48896z"/>
   <path d="m48.174 17.654h0.26036v-0.99062c0.10478-0.26036 0.26035-0.35561 0.39053-0.35561 0.0635 0 0.09843 0.0095 0.14923 0.0254l0.0508-0.2286c-0.0508-0.02223-0.09843-0.03175-0.1651-0.03175-0.17463 0-0.33338 0.12383-0.43816 0.31751h-0.0095l-0.02222-0.27941h-0.2159z"/>
   <path d="m49.278 17.654h0.26036v-1.1176c0.15558-0.15558 0.26353-0.23813 0.42228-0.23813 0.2032 0 0.29211 0.12383 0.29211 0.41276v0.94299h0.26036v-0.97792c0-0.39371-0.14605-0.60326-0.46991-0.60326-0.21273 0-0.37148 0.1143-0.51754 0.26036h-0.0095l-0.02222-0.22226h-0.2159z"/>
   <path d="m51.52 17.654h1.3081v-0.22543h-0.58739c-0.10478 0-0.2286 0.0095-0.33973 0.01905 0.47943-0.50166 0.82552-0.87949 0.82552-1.2605 0-0.35878-0.23178-0.59691-0.60644-0.59691-0.26353 0-0.44451 0.12383-0.61279 0.30798l0.14923 0.14923c0.11748-0.13653 0.26353-0.24448 0.43181-0.24448 0.25718 0 0.38418 0.1651 0.38418 0.39688 0 0.32703-0.34291 0.69216-0.95252 1.2986z"/>
  </g>
  <path d="m56.353 13.494v6.3501" fill="none" stroke="#7b8694" stroke-dasharray="0.793764, 0.793764" stroke-linecap="square" stroke-miterlimit="40"/>
  <g fill="#e8eaec" stroke-linecap="round" aria-label="Pattern 1">
   <path d="m59.722 17.654h0.2667v-0.82552h0.37466c0.45403 0 0.76836-0.20638 0.76836-0.64454 0-0.45721-0.30798-0.61279-0.76836-0.61279h-0.64136zm0.2667-1.0414v-0.82869h0.33973c0.35878 0 0.53976 0.09843 0.53976 0.40006 0 0.29528-0.17463 0.42863-0.53976 0.42863z"/>
   <path d="m61.305 17.254c0 0.27623 0.19368 0.43816 0.45403 0.43816 0.1905 0 0.36196-0.1016 0.51118-0.22225h0.0063l0.02223 0.18415h0.2159v-0.94617c0-0.38418-0.15875-0.63501-0.53658-0.63501-0.24766 0-0.46356 0.10795-0.60644 0.20003l0.10478 0.18098c0.12065-0.08255 0.27941-0.1651 0.46038-0.1651 0.25083 0 0.31751 0.1905 0.31751 0.38736-0.65724 0.07303-0.94934 0.2413-0.94934 0.57786zm0.25718-0.01905c0-0.19685 0.17463-0.32386 0.69216-0.38736v0.42863c-0.14923 0.13335-0.27306 0.20638-0.42228 0.20638-0.1524 0-0.26988-0.07303-0.26988-0.24765z"/>
   <path d="m63.05 17.177c0 0.30481 0.11113 0.51436 0.44133 0.51436 0.09525 0 0.20003-0.02858 0.28576-0.05715l-0.0508-0.19685c-0.0508 0.01905-0.12065 0.04128-0.17463 0.04128-0.1778 0-0.23813-0.10795-0.23813-0.29846v-0.85727h0.41593v-0.21273h-0.41593v-0.43181h-0.21908l-0.03175 0.43181-0.2413 0.01588v0.19685h0.2286z"/>
   <path d="m64.123 17.177c0 0.30481 0.11113 0.51436 0.44133 0.51436 0.09525 0 0.20003-0.02858 0.28576-0.05715l-0.0508-0.19685c-0.0508 0.01905-0.12065 0.04128-0.17463 0.04128-0.1778 0-0.23813-0.10795-0.23813-0.29846v-0.85727h0.41593v-0.21273h-0.41593v-0.43181h-0.21908l-0.03175 0.43181-0.2413 0.01588v0.19685h0.2286z"/>
   <path d="m65.006 16.885c0 0.50484 0.32703 0.80646 0.73979 0.80646 0.20955 0 0.37466-0.07303 0.50801-0.15875l-0.09208-0.17145c-0.1143 0.07303-0.23813 0.12065-0.38418 0.12065-0.29528 0-0.49531-0.20955-0.51436-0.54294h1.0414c0.0063-0.0381 0.0095-0.0889 0.0095-0.14288 0-0.44133-0.22225-0.72391-0.61596-0.72391-0.35243 0-0.69216 0.30798-0.69216 0.81282zm0.254-0.11748c0.03175-0.31116 0.2286-0.48896 0.44451-0.48896 0.2413 0 0.38101 0.17463 0.38101 0.48896z"/>
   <path d="m66.695 17.654h0.26036v-0.99062c0.10478-0.26036 0.26036-0.35561 0.39053-0.35561 0.0635 0 0.09843 0.0095 0.14923 0.0254l0.0508-0.2286c-0.0508-0.02223-0.09843-0.03175-0.1651-0.03175-0.17463 0-0.33338 0.12383-0.43816 0.31751h-0.0095l-0.02223-0.27941h-0.2159z"/>
   <path d="m67.799 17.654h0.26036v-1.1176c0.15558-0.15558 0.26353-0.23813 0.42228-0.23813 0.2032 0 0.29211 0.12383 0.29211 0.41276v0.94299h0.26036v-0.97792c0-0.39371-0.14605-0.60326-0.46991-0.60326-0.21273 0-0.37148 0.1143-0.51754 0.26036h-0.0095l-0.02223-0.22226h-0.2159z"/>
   <path d="m70.165 17.654h1.143v-0.2159h-0.41911v-1.8098h-0.20003c-0.11113 0.06668-0.24448 0.11748-0.42863 0.14923v0.16828h0.36831v1.4923h-0.46356z"/>
  </g>
  <path d="m74.874 13.494v6.3501" fill="none" stroke="#7b8694" stroke-dasharray="0.793764, 0.793764" stroke-linecap="square" stroke-miterlimit="40"/>
  <g fill="#e8eaec" stroke-linecap="round" aria-label="Pattern 1">
   <path d="m78.244 17.654h0.2667v-0.82552h0.37466c0.45403 0 0.76836-0.20638 0.76836-0.64454 0-0.45721-0.30798-0.61279-0.76836-0.61279h-0.64136zm0.2667-1.0414v-0.82869h0.33973c0.35878 0 0.53976 0.09843 0.53976 0.40006 0 0.29528-0.17463 0.42863-0.53976 0.42863z"/>
   <path d="m79.826 17.254c0 0.27623 0.19368 0.43816 0.45403 0.43816 0.1905 0 0.36196-0.1016 0.51118-0.22225h0.0063l0.02223 0.18415h0.2159v-0.94617c0-0.38418-0.15875-0.63501-0.53658-0.63501-0.24766 0-0.46356 0.10795-0.60644 0.20003l0.10478 0.18098c0.12065-0.08255 0.2794-0.1651 0.46038-0.1651 0.25083 0 0.31751 0.1905 0.31751 0.38736-0.65724 0.07303-0.94934 0.2413-0.94934 0.57786zm0.25718-0.01905c0-0.19685 0.17463-0.32386 0.69216-0.38736v0.42863c-0.14923 0.13335-0.27306 0.20638-0.42228 0.20638-0.1524 0-0.26988-0.07303-0.26988-0.24765z"/>
   <path d="m81.571 17.177c0 0.30481 0.11113 0.51436 0.44133 0.51436 0.09525 0 0.20003-0.02858 0.28576-0.05715l-0.0508-0.19685c-0.0508 0.01905-0.12065 0.04128-0.17463 0.04128-0.1778 0-0.23813-0.10795-0.23813-0.29846v-0.85727h0.41593v-0.21273h-0.41593v-0.43181h-0.21908l-0.03175 0.43181-0.2413 0.01588v0.19685h0.2286z"/>
   <path d="m82.644 17.177c0 0.30481 0.11113 0.51436 0.44133 0.51436 0.09525 0 0.20003-0.02858 0.28576-0.05715l-0.0508-0.19685c-0.0508 0.01905-0.12065 0.04128-0.17463 0.04128-0.1778 0-0.23813-0.10795-0.23813-0.29846v-0.85727h0.41593v-0.21273h-0.41593v-0.43181h-0.21908l-0.03175 0.43181-0.2413 0.01588v0.19685h0.2286z"/>
   <path d="m83.527 16.885c0 0.50484 0.32703 0.80646 0.73979 0.80646 0.20955 0 0.37466-0.07303 0.50801-0.15875l-0.09208-0.17145c-0.1143 0.07303-0.23813 0.12065-0.38418 0.12065-0.29528 0-0.49531-0.20955-0.51436-0.54294h1.0414c0.0063-0.0381 0.0095-0.0889 0.0095-0.14288 0-0.44133-0.22225-0.72391-0.61596-0.72391-0.35243 0-0.69216 0.30798-0.69216 0.81282zm0.254-0.11748c0.03175-0.31116 0.2286-0.48896 0.44451-0.48896 0.2413 0 0.38101 0.17463 0.38101 0.48896z"/>
   <path d="m85.217 17.654h0.26036v-0.99062c0.10478-0.26036 0.26036-0.35561 0.39053-0.35561 0.0635 0 0.09843 0.0095 0.14923 0.0254l0.0508-0.2286c-0.0508-0.02223-0.09843-0.03175-0.1651-0.03175-0.17463 0-0.33338 0.12383-0.43816 0.31751h-0.0095l-0.02223-0.27941h-0.2159z"/>
   <path d="m86.32 17.654h0.26036v-1.1176c0.15558-0.15558 0.26353-0.23813 0.42228-0.23813 0.2032 0 0.29211 0.12383 0.29211 0.41276v0.94299h0.26035v-0.97792c0-0.39371-0.14605-0.60326-0.46991-0.60326-0.21273 0-0.37148 0.1143-0.51754 0.26036h-0.0095l-0.02223-0.22226h-0.2159z"/>
   <path d="m88.686 17.654h1.143v-0.2159h-0.41911v-1.8098h-0.20003c-0.11113 0.06668-0.24448 0.11748-0.42863 0.14923v0.16828h0.36831v1.4923h-0.46356z"/>
  </g>
  <path d="m93.395 13.494v6.3501" fill="none" stroke="#7b8694" stroke-dasharray="0.793764, 0.793764" stroke-linecap="square" stroke-miterlimit="40"/>
  <g fill="#e8eaec" stroke-linecap="round" aria-label="Pattern 2">
   <path d="m96.765 17.654h0.2667v-0.82552h0.37466c0.45403 0 0.76836-0.20638 0.76836-0.64454 0-0.45721-0.30798-0.61279-0.76836-0.61279h-0.64136zm0.2667-1.0414v-0.82869h0.33973c0.35878 0 0.53976 0.09843 0.53976 0.40006 0 0.29528-0.17463 0.42863-0.53976 0.42863z"/>
   <path d="m98.347 17.254c0 0.27623 0.19368 0.43816 0.45403 0.43816 0.1905 0 0.36196-0.1016 0.51118-0.22225h0.0063l0.02222 0.18415h0.2159v-0.94617c0-0.38418-0.15875-0.63501-0.53658-0.63501-0.24765 0-0.46356 0.10795-0.60644 0.20003l0.10478 0.18098c0.12065-0.08255 0.2794-0.1651 0.46038-0.1651 0.25083 0 0.31751 0.1905 0.31751 0.38736-0.65724 0.07303-0.94934 0.2413-0.94934 0.57786zm0.25718-0.01905c0-0.19685 0.17463-0.32386 0.69216-0.38736v0.42863c-0.14923 0.13335-0.27306 0.20638-0.42228 0.20638-0.1524 0-0.26988-0.07303-0.26988-0.24765z"/>
   <path d="m100.09 17.177c0 0.30481 0.11113 0.51436 0.44134 0.51436 0.0952 0 0.20002-0.02858 0.28575-0.05715l-0.0508-0.19685c-0.0508 0.01905-0.12065 0.04128-0.17463 0.04128-0.1778 0-0.23813-0.10795-0.23813-0.29846v-0.85727h0.41594v-0.21273h-0.41594v-0.43181h-0.21908l-0.0318 0.43181-0.2413 0.01588v0.19685h0.2286z"/>
   <path d="m101.17 17.177c0 0.30481 0.11112 0.51436 0.44133 0.51436 0.0953 0 0.20003-0.02858 0.28575-0.05715l-0.0508-0.19685c-0.0508 0.01905-0.12065 0.04128-0.17462 0.04128-0.17781 0-0.23813-0.10795-0.23813-0.29846v-0.85727h0.41593v-0.21273h-0.41593v-0.43181h-0.21908l-0.0318 0.43181-0.24131 0.01588v0.19685h0.22861z"/>
   <path d="m102.05 16.885c0 0.50484 0.32703 0.80646 0.73979 0.80646 0.20955 0 0.37466-0.07303 0.50801-0.15875l-0.0921-0.17145c-0.1143 0.07303-0.23813 0.12065-0.38418 0.12065-0.29528 0-0.49531-0.20955-0.51436-0.54294h1.0414c6e-3 -0.0381 0.01-0.0889 0.01-0.14288 0-0.44133-0.22225-0.72391-0.61596-0.72391-0.35243 0-0.69216 0.30798-0.69216 0.81282zm0.254-0.11748c0.0318-0.31116 0.22861-0.48896 0.44451-0.48896 0.24131 0 0.38101 0.17463 0.38101 0.48896z"/>
   <path d="m103.74 17.654h0.26035v-0.99062c0.10478-0.26036 0.26036-0.35561 0.39054-0.35561 0.0635 0 0.0984 0.0095 0.14922 0.0254l0.0508-0.2286c-0.0508-0.02223-0.0984-0.03175-0.1651-0.03175-0.17463 0-0.33338 0.12383-0.43816 0.31751h-0.01l-0.0222-0.27941h-0.2159z"/>
   <path d="m104.84 17.654h0.26035v-1.1176c0.15558-0.15558 0.26353-0.23813 0.42229-0.23813 0.2032 0 0.2921 0.12383 0.2921 0.41276v0.94299h0.26036v-0.97792c0-0.39371-0.14606-0.60326-0.46991-0.60326-0.21273 0-0.37148 0.1143-0.51754 0.26036h-0.01l-0.0222-0.22226h-0.2159z"/>
   <path d="m107.08 17.654h1.3081v-0.22543h-0.58738c-0.10478 0-0.22861 0.0095-0.33973 0.01905 0.47943-0.50166 0.82551-0.87949 0.82551-1.2605 0-0.35878-0.23178-0.59691-0.60643-0.59691-0.26353 0-0.44451 0.12383-0.61279 0.30798l0.14923 0.14923c0.11747-0.13653 0.26353-0.24448 0.43181-0.24448 0.25718 0 0.38418 0.1651 0.38418 0.39688 0 0.32703-0.34291 0.69216-0.95252 1.2986z"/>
  </g>
 </g>
 <g fill="none" stroke="#7b8694" stroke-dasharray="0.793764, 0.793764" stroke-linecap="square" stroke-miterlimit="40" stroke-width=".26459">
  <path d="m111.92 13.494v6.3501"/>
  <path d="m45.505 20.109v6.3501"/>
  <path d="m95.777 20.109v6.3501"/>
 </g>
 <g fill="#e8eaec" stroke-linecap="round" stroke-width=".26459" aria-label="Pattern 2">
  <path d="m103.64 24.268h0.26671v-0.82552h0.37465c0.45404 0 0.76837-0.20638 0.76837-0.64454 0-0.45721-0.30798-0.61279-0.76837-0.61279h-0.64136zm0.26671-1.0414v-0.82869h0.33973c0.35878 0 0.53976 0.09843 0.53976 0.40006 0 0.29528-0.17463 0.42863-0.53976 0.42863z"/>
  <path d="m105.23 23.868c0 0.27623 0.19368 0.43816 0.45404 0.43816 0.1905 0 0.36195-0.1016 0.51118-0.22226h6e-3l0.0222 0.18415h0.2159v-0.94617c0-0.38418-0.15875-0.63501-0.53658-0.63501-0.24766 0-0.46356 0.10795-0.60644 0.20003l0.10478 0.18098c0.12065-0.08255 0.2794-0.1651 0.46038-0.1651 0.25083 0 0.31751 0.1905 0.31751 0.38736-0.65724 0.07303-0.94935 0.2413-0.94935 0.57786zm0.25718-0.01905c0-0.19685 0.17463-0.32386 0.69217-0.38736v0.42863c-0.14923 0.13335-0.27306 0.20638-0.42229 0.20638-0.1524 0-0.26988-0.07303-0.26988-0.24766z"/>
  <path d="m106.97 23.792c0 0.30481 0.11113 0.51436 0.44134 0.51436 0.0953 0 0.20002-0.02858 0.28575-0.05715l-0.0508-0.19685c-0.0508 0.01905-0.12065 0.04128-0.17463 0.04128-0.1778 0-0.23813-0.10795-0.23813-0.29846v-0.85727h0.41594v-0.21274h-0.41594v-0.43181h-0.21908l-0.0318 0.43181-0.2413 0.01588v0.19685h0.2286z"/>
  <path d="m108.04 23.792c0 0.30481 0.11112 0.51436 0.44133 0.51436 0.0952 0 0.20003-0.02858 0.28575-0.05715l-0.0508-0.19685c-0.0508 0.01905-0.12065 0.04128-0.17462 0.04128-0.17781 0-0.23813-0.10795-0.23813-0.29846v-0.85727h0.41593v-0.21274h-0.41593v-0.43181h-0.21908l-0.0317 0.43181-0.24131 0.01588v0.19685h0.22861z"/>
  <path d="m108.93 23.5c0 0.50484 0.32703 0.80647 0.73979 0.80647 0.20955 0 0.37466-0.07303 0.50801-0.15875l-0.0921-0.17145c-0.1143 0.07303-0.23813 0.12065-0.38418 0.12065-0.29528 0-0.49531-0.20955-0.51436-0.54294h1.0414c6e-3 -0.0381 0.01-0.0889 0.01-0.14288 0-0.44133-0.22225-0.72391-0.61596-0.72391-0.35243 0-0.69216 0.30798-0.69216 0.81282zm0.254-0.11748c0.0318-0.31116 0.22861-0.48896 0.44451-0.48896 0.24131 0 0.38101 0.17463 0.38101 0.48896z"/>
  <path d="m110.62 24.268h0.26035v-0.99062c0.10478-0.26036 0.26036-0.35561 0.39054-0.35561 0.0635 0 0.0984 0.0095 0.14922 0.0254l0.0508-0.2286c-0.0508-0.02223-0.0984-0.03175-0.1651-0.03175-0.17463 0-0.33338 0.12383-0.43816 0.31751h-0.01l-0.0222-0.2794h-0.2159z"/>
  <path d="m111.72 24.268h0.26035v-1.1176c0.15558-0.15558 0.26353-0.23813 0.42229-0.23813 0.2032 0 0.2921 0.12383 0.2921 0.41276v0.94299h0.26036v-0.97792c0-0.39371-0.14606-0.60326-0.46991-0.60326-0.21273 0-0.37148 0.1143-0.51754 0.26036h-0.01l-0.0222-0.22225h-0.2159z"/>
  <path d="m113.96 24.268h1.3081v-0.22543h-0.58738c-0.10478 0-0.22861 0.0095-0.33973 0.01905 0.47943-0.50166 0.82551-0.87949 0.82551-1.2605 0-0.35878-0.23178-0.59691-0.60643-0.59691-0.26353 0-0.44451 0.12383-0.61279 0.30798l0.14923 0.14923c0.11747-0.13653 0.26353-0.24448 0.43181-0.24448 0.25718 0 0.38418 0.1651 0.38418 0.39688 0 0.32703-0.34291 0.69216-0.95252 1.2986z"/>
 </g>
 <g fill="#e8eaec" stroke-linecap="round" stroke-width=".26459" aria-label="Pattern 1">
  <path d="m52.843 24.268h0.2667v-0.82552h0.37466c0.45403 0 0.76836-0.20638 0.76836-0.64454 0-0.45721-0.30798-0.61279-0.76836-0.61279h-0.64136zm0.2667-1.0414v-0.82869h0.33973c0.35878 0 0.53976 0.09843 0.53976 0.40006 0 0.29528-0.17463 0.42863-0.53976 0.42863z"/>
  <path d="m54.425 23.868c0 0.27623 0.19368 0.43816 0.45403 0.43816 0.1905 0 0.36196-0.1016 0.51118-0.22226h0.0064l0.02223 0.18415h0.2159v-0.94617c0-0.38418-0.15875-0.63501-0.53658-0.63501-0.24766 0-0.46356 0.10795-0.60644 0.20003l0.10478 0.18098c0.12065-0.08255 0.2794-0.1651 0.46038-0.1651 0.25083 0 0.31751 0.1905 0.31751 0.38736-0.65724 0.07303-0.94934 0.2413-0.94934 0.57786zm0.25718-0.01905c0-0.19685 0.17463-0.32386 0.69216-0.38736v0.42863c-0.14923 0.13335-0.27306 0.20638-0.42228 0.20638-0.1524 0-0.26988-0.07303-0.26988-0.24766z"/>
  <path d="m56.171 23.792c0 0.30481 0.11113 0.51436 0.44133 0.51436 0.09525 0 0.20003-0.02858 0.28576-0.05715l-0.0508-0.19685c-0.0508 0.01905-0.12065 0.04128-0.17463 0.04128-0.1778 0-0.23813-0.10795-0.23813-0.29846v-0.85727h0.41593v-0.21273h-0.41593v-0.43181h-0.21908l-0.03175 0.43181-0.2413 0.01588v0.19685h0.2286z"/>
  <path d="m57.244 23.792c0 0.30481 0.11113 0.51436 0.44133 0.51436 0.09525 0 0.20003-0.02858 0.28576-0.05715l-0.0508-0.19685c-0.0508 0.01905-0.12065 0.04128-0.17463 0.04128-0.1778 0-0.23813-0.10795-0.23813-0.29846v-0.85727h0.41593v-0.21274h-0.41593v-0.43181h-0.21908l-0.03175 0.43181-0.2413 0.01588v0.19685h0.2286z"/>
  <path d="m58.127 23.5c0 0.50484 0.32703 0.80647 0.73979 0.80647 0.20955 0 0.37466-0.07303 0.50801-0.15875l-0.09208-0.17145c-0.1143 0.07303-0.23813 0.12065-0.38418 0.12065-0.29528 0-0.49531-0.20955-0.51436-0.54294h1.0414c0.0064-0.0381 0.0095-0.0889 0.0095-0.14288 0-0.44133-0.22225-0.72391-0.61596-0.72391-0.35243 0-0.69216 0.30798-0.69216 0.81282zm0.254-0.11748c0.03175-0.31116 0.2286-0.48896 0.44451-0.48896 0.2413 0 0.38101 0.17463 0.38101 0.48896z"/>
  <path d="m59.816 24.268h0.26036v-0.99062c0.10478-0.26036 0.26036-0.35561 0.39053-0.35561 0.0635 0 0.09843 0.0095 0.14923 0.0254l0.0508-0.2286c-0.0508-0.02223-0.09843-0.03175-0.1651-0.03175-0.17463 0-0.33338 0.12383-0.43816 0.31751h-0.0095l-0.02223-0.2794h-0.2159z"/>
  <path d="m60.92 24.268h0.26036v-1.1176c0.15558-0.15558 0.26353-0.23813 0.42228-0.23813 0.2032 0 0.29211 0.12383 0.29211 0.41276v0.94299h0.26035v-0.97792c0-0.39371-0.14605-0.60326-0.46991-0.60326-0.21273 0-0.37148 0.1143-0.51754 0.26036h-0.0095l-0.02223-0.22225h-0.2159z"/>
  <path d="m63.286 24.268h1.143v-0.2159h-0.41911v-1.8098h-0.20003c-0.11113 0.06668-0.24448 0.11748-0.42863 0.14923v0.16828h0.36831v1.4923h-0.46356z"/>
 </g>
</svg>
