<?xml version="1.0" encoding="UTF-8"?>
<svg width="390.81" height="25.5" version="1.1" viewBox="0 0 103.4 6.7471" xmlns="http://www.w3.org/2000/svg" xmlns:cc="http://creativecommons.org/ns#" xmlns:dc="http://purl.org/dc/elements/1.1/" xmlns:rdf="http://www.w3.org/1999/02/22-rdf-syntax-ns#">
 <metadata>
  <rdf:RDF>
   <cc:Work rdf:about="">
    <dc:format>image/svg+xml</dc:format>
    <dc:type rdf:resource="http://purl.org/dc/dcmitype/StillImage"/>
    <dc:title/>
   </cc:Work>
  </rdf:RDF>
 </metadata>
 <path d="m29.169 0.1323h74.235v6.4825h-74.235z" fill="#2f3744"/>
 <path d="m27.862 0.1323h75.409" fill="none" stroke="#7b8694" stroke-linecap="square" stroke-miterlimit="40" stroke-width=".26459"/>
 <path d="m27.862 6.6148h75.409" fill="none" stroke="#7b8694" stroke-linecap="square" stroke-miterlimit="40" stroke-width=".26459"/>
 <g stroke-linecap="round" stroke-width=".26459">
  <g fill="#e8eaec" aria-label="Loop">
   <path d="m66.053 4.4244h1.1748v-0.22543h-0.90808v-1.8574h-0.26671z"/>
   <path d="m67.411 3.6561c0 0.51119 0.33656 0.80648 0.7144 0.80648s0.7144-0.29529 0.7144-0.80648c0-0.51754-0.33656-0.81283-0.7144-0.81283s-0.7144 0.29529-0.7144 0.81283zm0.26988 0c0-0.35561 0.18098-0.59692 0.44452-0.59692 0.26671 0 0.44452 0.24131 0.44452 0.59692 0 0.35244-0.17781 0.59057-0.44452 0.59057-0.26353 0-0.44452-0.23813-0.44452-0.59057z"/>
   <path d="m69.135 3.6561c0 0.51119 0.33656 0.80648 0.7144 0.80648 0.37784 0 0.7144-0.29529 0.7144-0.80648 0-0.51754-0.33656-0.81283-0.7144-0.81283-0.37784 0-0.7144 0.29529-0.7144 0.81283zm0.26988 0c0-0.35561 0.18098-0.59692 0.44452-0.59692 0.26671 0 0.44452 0.24131 0.44452 0.59692 0 0.35244-0.17781 0.59057-0.44452 0.59057-0.26354 0-0.44452-0.23813-0.44452-0.59057z"/>
   <path d="m71.227 4.2847c0.14288 0.11113 0.28576 0.17781 0.42864 0.17781 0.35244 0 0.66677-0.30799 0.66677-0.83188 0-0.47944-0.21273-0.78743-0.60962-0.78743-0.18098 0-0.35244 0.098428-0.49214 0.21591h-0.0095l-0.02223-0.17781h-0.21591v2.194h0.26036v-0.52072zm0.0063-0.20321v-0.80965c0.15241-0.13653 0.28258-0.20956 0.41276-0.20956 0.29211 0 0.40641 0.22861 0.40641 0.56834 0 0.38101-0.18733 0.6128-0.44134 0.6128-0.1016 0-0.23813-0.044452-0.37784-0.16193z"/>
  </g>
  <path d="m29.169 1.7529v-1.6206h-29.039v6.4825h29.039v-1.6206" fill="#2f3744" stroke="#7b8694"/>
  <g fill="#e8eaec" aria-label="Beginning">
   <path d="m8.2102 4.4244h0.66677c0.46357 0 0.78743-0.20003 0.78743-0.60962 0-0.28576-0.17781-0.45087-0.48262-0.49849v-0.0127c0.24766-0.063502 0.36514-0.24766 0.36514-0.45404 0-0.36514-0.29529-0.50802-0.71757-0.50802h-0.61915zm0.26671-1.1938v-0.67947h0.32069c0.32069 0 0.48897 0.095253 0.48897 0.32069 0 0.23178-0.14923 0.35879-0.50167 0.35879zm0 0.98428v-0.78743h0.36196c0.36514 0 0.56517 0.11748 0.56517 0.37466 0 0.28258-0.20956 0.41276-0.56517 0.41276z"/>
   <path d="m9.9343 3.6561c0 0.50484 0.32704 0.80648 0.7398 0.80648 0.20956 0 0.37466-0.073028 0.50802-0.15876l-0.09208-0.17146c-0.1143 0.073028-0.23813 0.12065-0.38419 0.12065-0.29528 0-0.49532-0.20956-0.51437-0.54294h1.0414c0.0064-0.038101 0.0095-0.088903 0.0095-0.14288 0-0.44134-0.22226-0.72393-0.61597-0.72393-0.35244 0-0.69217 0.30799-0.69217 0.81283zm0.25401-0.11748c0.03175-0.31116 0.22861-0.48897 0.44452-0.48897 0.24131 0 0.38101 0.17463 0.38101 0.48897z"/>
   <path d="m11.704 4.6848c0-0.088903 0.04763-0.18098 0.15876-0.26036 0.06668 0.019051 0.1397 0.025401 0.20003 0.025401h0.26671c0.20003 0 0.31116 0.047627 0.31116 0.19051 0 0.16193-0.19368 0.31434-0.48897 0.31434-0.27941 0-0.44769-0.10478-0.44769-0.26988zm-0.22861 0.034926c0 0.26671 0.26036 0.41594 0.6382 0.41594 0.47944 0 0.78108-0.24766 0.78108-0.53342 0-0.25718-0.18098-0.36831-0.53977-0.36831h-0.29846c-0.20956 0-0.27306-0.069852-0.27306-0.16828 0-0.085728 0.04445-0.13653 0.09843-0.18416 0.06985 0.034926 0.15558 0.053977 0.23178 0.053977 0.31434 0 0.56517-0.20638 0.56517-0.53659 0-0.13018-0.05398-0.24766-0.127-0.31751h0.31751v-0.20003h-0.53659c-0.05715-0.022226-0.13335-0.038101-0.21908-0.038101-0.31434 0-0.58104 0.21273-0.58104 0.54929 0 0.18416 0.09843 0.33339 0.20003 0.41594v0.0127c-0.07938 0.053977-0.16828 0.15558-0.16828 0.28576 0 0.12065 0.06033 0.20321 0.13653 0.25083v0.0127c-0.1397 0.095253-0.22543 0.21908-0.22543 0.34926zm0.6382-0.95888c-0.17781 0-0.32704-0.14288-0.32704-0.36831s0.14606-0.35879 0.32704-0.35879c0.18098 0 0.32704 0.13335 0.32704 0.35879s-0.14923 0.36831-0.32704 0.36831z"/>
   <path d="m13.326 2.5638c0.1016 0 0.18098-0.069852 0.18098-0.16828 0-0.1016-0.07938-0.16828-0.18098-0.16828-0.1016 0-0.18098 0.066677-0.18098 0.16828 0 0.098428 0.07938 0.16828 0.18098 0.16828zm-0.13336 1.8606h0.26036v-1.5431h-0.26036z"/>
   <path d="m13.974 4.4244h0.26036v-1.1176c0.15558-0.15558 0.26353-0.23813 0.42229-0.23813 0.20321 0 0.29211 0.12383 0.29211 0.41276v0.94301h0.26036v-0.97793c0-0.39371-0.14606-0.60327-0.46992-0.60327-0.21273 0-0.37149 0.1143-0.51754 0.26036h-0.0095l-0.02223-0.22226h-0.21591z"/>
   <path d="m15.71 4.4244h0.26036v-1.1176c0.15558-0.15558 0.26354-0.23813 0.42229-0.23813 0.20321 0 0.29211 0.12383 0.29211 0.41276v0.94301h0.26036v-0.97793c0-0.39371-0.14606-0.60327-0.46992-0.60327-0.21273 0-0.37149 0.1143-0.51754 0.26036h-0.0095l-0.02223-0.22226h-0.21591z"/>
   <path d="m17.58 2.5638c0.1016 0 0.18098-0.069852 0.18098-0.16828 0-0.1016-0.07938-0.16828-0.18098-0.16828-0.1016 0-0.18098 0.066677-0.18098 0.16828 0 0.098428 0.07938 0.16828 0.18098 0.16828zm-0.13335 1.8606h0.26036v-1.5431h-0.26036z"/>
   <path d="m18.228 4.4244h0.26036v-1.1176c0.15558-0.15558 0.26353-0.23813 0.42229-0.23813 0.20321 0 0.29211 0.12383 0.29211 0.41276v0.94301h0.26036v-0.97793c0-0.39371-0.14606-0.60327-0.46992-0.60327-0.21273 0-0.37149 0.1143-0.51754 0.26036h-0.0095l-0.02223-0.22226h-0.21591z"/>
   <path d="m20.076 4.6848c0-0.088903 0.04763-0.18098 0.15876-0.26036 0.06668 0.019051 0.1397 0.025401 0.20003 0.025401h0.26671c0.20003 0 0.31116 0.047627 0.31116 0.19051 0 0.16193-0.19368 0.31434-0.48897 0.31434-0.27941 0-0.44769-0.10478-0.44769-0.26988zm-0.22861 0.034926c0 0.26671 0.26036 0.41594 0.6382 0.41594 0.47944 0 0.78108-0.24766 0.78108-0.53342 0-0.25718-0.18098-0.36831-0.53977-0.36831h-0.29846c-0.20956 0-0.27306-0.069852-0.27306-0.16828 0-0.085728 0.04445-0.13653 0.09843-0.18416 0.06985 0.034926 0.15558 0.053977 0.23178 0.053977 0.31434 0 0.56517-0.20638 0.56517-0.53659 0-0.13018-0.05398-0.24766-0.127-0.31751h0.31751v-0.20003h-0.53659c-0.05715-0.022226-0.13335-0.038101-0.21908-0.038101-0.31434 0-0.58104 0.21273-0.58104 0.54929 0 0.18416 0.09843 0.33339 0.20003 0.41594v0.0127c-0.07938 0.053977-0.16828 0.15558-0.16828 0.28576 0 0.12065 0.06033 0.20321 0.13653 0.25083v0.0127c-0.1397 0.095253-0.22543 0.21908-0.22543 0.34926zm0.6382-0.95888c-0.17781 0-0.32704-0.14288-0.32704-0.36831s0.14606-0.35879 0.32704-0.35879 0.32704 0.13335 0.32704 0.35879-0.14923 0.36831-0.32704 0.36831z"/>
  </g>
  <g fill="#e8eaec" aria-label="Loop">
   <path d="m39.329 4.4244h1.1748v-0.22543h-0.90808v-1.8574h-0.26671z"/>
   <path d="m40.687 3.6561c0 0.51119 0.33656 0.80648 0.7144 0.80648s0.7144-0.29529 0.7144-0.80648c0-0.51754-0.33656-0.81283-0.7144-0.81283s-0.7144 0.29529-0.7144 0.81283zm0.26988 0c0-0.35561 0.18098-0.59692 0.44452-0.59692 0.26671 0 0.44452 0.24131 0.44452 0.59692 0 0.35244-0.17781 0.59057-0.44452 0.59057-0.26353 0-0.44452-0.23813-0.44452-0.59057z"/>
   <path d="m42.411 3.6561c0 0.51119 0.33656 0.80648 0.7144 0.80648s0.7144-0.29529 0.7144-0.80648c0-0.51754-0.33656-0.81283-0.7144-0.81283s-0.7144 0.29529-0.7144 0.81283zm0.26988 0c0-0.35561 0.18098-0.59692 0.44452-0.59692 0.26671 0 0.44452 0.24131 0.44452 0.59692 0 0.35244-0.17781 0.59057-0.44452 0.59057-0.26353 0-0.44452-0.23813-0.44452-0.59057z"/>
   <path d="m44.503 4.2847c0.14288 0.11113 0.28576 0.17781 0.42864 0.17781 0.35244 0 0.66677-0.30799 0.66677-0.83188 0-0.47944-0.21273-0.78743-0.60962-0.78743-0.18098 0-0.35244 0.098428-0.49214 0.21591h-0.0095l-0.02222-0.17781h-0.21591v2.194h0.26036v-0.52072zm0.0063-0.20321v-0.80965c0.1524-0.13653 0.28258-0.20956 0.41276-0.20956 0.29211 0 0.40642 0.22861 0.40642 0.56834 0 0.38101-0.18733 0.6128-0.44134 0.6128-0.1016 0-0.23813-0.044452-0.37784-0.16193z"/>
  </g>
 </g>
 <g stroke-width=".26459">
  <path d="m55.777 0.26459v6.3502" fill="none" stroke="#7b8694" stroke-dasharray="0.793776, 0.793776" stroke-linecap="square" stroke-miterlimit="40"/>
  <path d="m82.153 1.7529v-1.6206h21.101v6.4825h-21.101v-1.6206" fill="#2f3744" stroke="#7b8694" stroke-linecap="round"/>
  <g fill="#e8eaec" stroke-linecap="round" aria-label="End">
   <path d="m90.685 4.4244h1.2319v-0.22543h-0.96523v-0.75568h0.78743v-0.22543h-0.78743v-0.65407h0.93348v-0.22226h-1.2002z"/>
   <path d="m92.324 4.4244h0.26036v-1.1176c0.15558-0.15558 0.26353-0.23813 0.42229-0.23813 0.20321 0 0.29211 0.12383 0.29211 0.41276v0.94301h0.26036v-0.97793c0-0.39371-0.14606-0.60327-0.46992-0.60327-0.21273 0-0.37149 0.1143-0.51754 0.26036h-0.0095l-0.02223-0.22226h-0.21591z"/>
   <path d="m93.95 3.6561c0 0.51437 0.25083 0.80648 0.6382 0.80648 0.18098 0 0.34609-0.1016 0.46674-0.21908h0.0095l0.02223 0.18098h0.21591v-2.2607h-0.26353v0.59375l0.0127 0.26353c-0.13653-0.11113-0.25401-0.17781-0.43182-0.17781-0.35244 0-0.66995 0.31116-0.66995 0.81283zm0.26988-0.00318c0-0.35244 0.19686-0.59057 0.44452-0.59057 0.127 0 0.24448 0.044452 0.37466 0.16193v0.80648c-0.127 0.14288-0.25083 0.21273-0.39371 0.21273-0.26988 0-0.42546-0.22226-0.42546-0.59057z"/>
  </g>
 </g>
</svg>
