<?xml version="1.0" encoding="UTF-8"?>
<svg width="390.52" height="25.5" version="1.1" viewBox="0 0 103.33 6.7471" xmlns="http://www.w3.org/2000/svg" xmlns:cc="http://creativecommons.org/ns#" xmlns:dc="http://purl.org/dc/elements/1.1/" xmlns:rdf="http://www.w3.org/1999/02/22-rdf-syntax-ns#">
 <metadata>
  <rdf:RDF>
   <cc:Work rdf:about="">
    <dc:format>image/svg+xml</dc:format>
    <dc:type rdf:resource="http://purl.org/dc/dcmitype/StillImage"/>
    <dc:title/>
   </cc:Work>
  </rdf:RDF>
 </metadata>
 <path d="m0.2646 0.13225h103.06v6.4826h-103.06z" fill="#2f3744"/>
 <g fill="#e8eaec" stroke-linecap="round" stroke-width=".2646" aria-label="Song 1">
  <path d="m21.037 4.1546c0.18098 0.18733 0.435 0.30799 0.72711 0.30799 0.43817 0 0.71123-0.26354 0.71123-0.59375 0-0.30799-0.18733-0.45087-0.42865-0.55565l-0.29846-0.12701c-0.16193-0.069853-0.34609-0.14606-0.34609-0.34609 0-0.18733 0.15558-0.30481 0.39054-0.30481 0.19051 0 0.34609 0.076204 0.4731 0.19686l0.13971-0.17146c-0.14606-0.15241-0.36514-0.25719-0.6128-0.25719-0.37784 0-0.65726 0.23496-0.65726 0.55248 0 0.30481 0.22861 0.45405 0.4223 0.5366l0.29846 0.13018c0.19686 0.088904 0.34927 0.15558 0.34927 0.36832 0 0.20321-0.16193 0.33974-0.435 0.33974-0.21908 0-0.42547-0.10478-0.5747-0.26036z"/>
  <path d="m22.737 3.6561c0 0.5112 0.33657 0.80649 0.71441 0.80649s0.71441-0.29529 0.71441-0.80649c0-0.51755-0.33657-0.81284-0.71441-0.81284s-0.71441 0.29529-0.71441 0.81284zm0.26989 0c0-0.35562 0.18098-0.59693 0.44452-0.59693 0.26671 0 0.44452 0.24131 0.44452 0.59693 0 0.35244-0.17781 0.59058-0.44452 0.59058-0.26354 0-0.44452-0.23814-0.44452-0.59058z"/>
  <path d="m24.575 4.4245h0.26036v-1.1177c0.15558-0.15558 0.26354-0.23814 0.4223-0.23814 0.20321 0 0.29211 0.12383 0.29211 0.41277v0.94302h0.26036v-0.97795c0-0.39372-0.14606-0.60328-0.46992-0.60328-0.21274 0-0.37149 0.11431-0.51755 0.26036h-0.0095l-0.02223-0.22226h-0.21591z"/>
  <path d="m26.423 4.6848c0-0.088904 0.04763-0.18098 0.15876-0.26036 0.06668 0.019051 0.13971 0.025401 0.20003 0.025401h0.26671c0.20003 0 0.31116 0.047627 0.31116 0.19051 0 0.16193-0.19368 0.31434-0.48897 0.31434-0.27941 0-0.4477-0.10478-0.4477-0.26989zm-0.22861 0.034927c0 0.26671 0.26036 0.41594 0.63821 0.41594 0.47945 0 0.78109-0.24766 0.78109-0.53343 0-0.25719-0.18098-0.36832-0.53978-0.36832h-0.29846c-0.20956 0-0.27306-0.069853-0.27306-0.16828 0-0.085729 0.04445-0.13653 0.09843-0.18416 0.06985 0.034927 0.15558 0.053978 0.23179 0.053978 0.31434 0 0.56518-0.20638 0.56518-0.5366 0-0.13018-0.05398-0.24766-0.12701-0.31752h0.31752v-0.20004h-0.5366c-0.05715-0.022226-0.13336-0.038102-0.21908-0.038102-0.31434 0-0.58105 0.21274-0.58105 0.5493 0 0.18416 0.09843 0.33339 0.20004 0.41594v0.0127c-0.07938 0.053978-0.16828 0.15558-0.16828 0.28576 0 0.12066 0.06033 0.20321 0.13653 0.25084v0.012701c-0.13971 0.095254-0.22544 0.21909-0.22544 0.34927zm0.63821-0.9589c-0.17781 0-0.32704-0.14288-0.32704-0.36832 0-0.22544 0.14606-0.35879 0.32704-0.35879 0.18098 0 0.32704 0.13336 0.32704 0.35879 0 0.22544-0.14923 0.36832-0.32704 0.36832z"/>
  <path d="m28.541 4.4245h1.1431v-0.21591h-0.41912v-1.8098h-0.20004c-0.11113 0.066678-0.24449 0.11748-0.42864 0.14923v0.16828h0.36832v1.4923h-0.46357z"/>
 </g>
 <g fill="none" stroke="#7b8694" stroke-linecap="square" stroke-miterlimit="40" stroke-width=".2646">
  <path d="m51.729 0.26455v6.3503" stroke-dasharray="0.793788, 0.793788"/>
  <path d="m0.2646 0.13225h102.93"/>
  <path d="m0.2646 6.6148h102.93"/>
  <path d="m103.2 0.26455v6.3503" stroke-dasharray="0.793788, 0.793788"/>
  <path d="m0.1323 0.26455v6.3503" stroke-dasharray="0.793788, 0.793788"/>
 </g>
 <g fill="#e8eaec" stroke-linecap="round" stroke-width=".2646" aria-label="Song 1">
  <path d="m73.956 4.1546c0.18098 0.18733 0.435 0.30799 0.72711 0.30799 0.43817 0 0.71123-0.26354 0.71123-0.59375 0-0.30799-0.18733-0.45087-0.42864-0.55565l-0.29846-0.12701c-0.16193-0.069853-0.34609-0.14606-0.34609-0.34609 0-0.18733 0.15558-0.30481 0.39054-0.30481 0.19051 0 0.34609 0.076204 0.4731 0.19686l0.13971-0.17146c-0.14606-0.15241-0.36514-0.25719-0.6128-0.25719-0.37784 0-0.65726 0.23496-0.65726 0.55248 0 0.30481 0.22861 0.45405 0.4223 0.5366l0.29846 0.13018c0.19686 0.088904 0.34927 0.15558 0.34927 0.36832 0 0.20321-0.16193 0.33974-0.435 0.33974-0.21909 0-0.42547-0.10478-0.5747-0.26036z"/>
  <path d="m75.656 3.6561c0 0.5112 0.33657 0.80649 0.71441 0.80649s0.71441-0.29529 0.71441-0.80649c0-0.51755-0.33656-0.81284-0.71441-0.81284s-0.71441 0.29529-0.71441 0.81284zm0.26989 0c0-0.35562 0.18098-0.59693 0.44452-0.59693 0.26671 0 0.44452 0.24131 0.44452 0.59693 0 0.35244-0.17781 0.59058-0.44452 0.59058-0.26354 0-0.44452-0.23814-0.44452-0.59058z"/>
  <path d="m77.494 4.4245h0.26036v-1.1177c0.15558-0.15558 0.26354-0.23814 0.4223-0.23814 0.20321 0 0.29211 0.12383 0.29211 0.41277v0.94302h0.26036v-0.97795c0-0.39372-0.14606-0.60328-0.46992-0.60328-0.21274 0-0.37149 0.11431-0.51755 0.26036h-0.0095l-0.022251-0.22226h-0.21591z"/>
  <path d="m79.342 4.6848c0-0.088904 0.04763-0.18098 0.15876-0.26036 0.06668 0.019051 0.13971 0.025401 0.20004 0.025401h0.26671c0.20004 0 0.31116 0.047627 0.31116 0.19051 0 0.16193-0.19368 0.31434-0.48897 0.31434-0.27941 0-0.4477-0.10478-0.4477-0.26989zm-0.22861 0.034927c0 0.26671 0.26036 0.41594 0.6382 0.41594 0.47945 0 0.78109-0.24766 0.78109-0.53343 0-0.25719-0.18098-0.36832-0.53978-0.36832h-0.29846c-0.20956 0-0.27306-0.069853-0.27306-0.16828 0-0.085729 0.04445-0.13653 0.09843-0.18416 0.06985 0.034927 0.15558 0.053978 0.23179 0.053978 0.31434 0 0.56518-0.20638 0.56518-0.5366 0-0.13018-0.05398-0.24766-0.12701-0.31752h0.31752v-0.20004h-0.5366c-0.05715-0.022226-0.13336-0.038102-0.21908-0.038102-0.31434 0-0.58105 0.21274-0.58105 0.5493 0 0.18416 0.09843 0.33339 0.20003 0.41594v0.0127c-0.07938 0.053978-0.16828 0.15558-0.16828 0.28576 0 0.12066 0.06033 0.20321 0.13653 0.25084v0.012701c-0.13971 0.095255-0.22544 0.21909-0.22544 0.34927zm0.6382-0.9589c-0.17781 0-0.32704-0.14288-0.32704-0.36832 0-0.22544 0.14606-0.35879 0.32704-0.35879 0.18098 0 0.32704 0.13336 0.32704 0.35879 0 0.22544-0.14923 0.36832-0.32704 0.36832z"/>
  <path d="m81.46 4.4245h1.1431v-0.21591h-0.41912v-1.8098h-0.20003c-0.11113 0.066678-0.24449 0.11748-0.42864 0.14923v0.16828h0.36832v1.4923h-0.46357z"/>
 </g>
</svg>
