<?xml version="1.0" encoding="UTF-8"?>
<svg width="401" height="111" version="1.1" viewBox="0 0 106.1 29.37" xmlns="http://www.w3.org/2000/svg" xmlns:cc="http://creativecommons.org/ns#" xmlns:dc="http://purl.org/dc/elements/1.1/" xmlns:rdf="http://www.w3.org/1999/02/22-rdf-syntax-ns#">
 <metadata>
  <rdf:RDF>
   <cc:Work rdf:about="">
    <dc:format>image/svg+xml</dc:format>
    <dc:type rdf:resource="http://purl.org/dc/dcmitype/StillImage"/>
    <dc:title/>
   </cc:Work>
  </rdf:RDF>
 </metadata>
 <g stroke-width=".2646">
  <path d="m21.407 4.1813h19.999" fill="none" stroke="#7893ea" stroke-dashoffset="1.2" stroke-linecap="square"/>
  <path d="m0.13108 0.1323h21.168v7.9378h-21.168z" fill="#2f3744" stroke="#7b8694" stroke-linecap="round"/>
  <g fill="#e8eaec" stroke-linecap="round" aria-label="Menu">
   <path d="m7.177 5.3506h0.24449v-1.1462c0-0.18416-0.019051-0.43182-0.031751-0.61598h0.012701l0.16511 0.46357 0.40007 1.0891h0.15241l0.40007-1.0891 0.16511-0.46357h0.012701c-0.012701 0.18416-0.034927 0.43182-0.034927 0.61598v1.1462h0.25084v-2.0829h-0.31116l-0.40007 1.1176-0.14606 0.42547h-0.012701l-0.14923-0.42547-0.40324-1.1176h-0.31434z"/>
   <path d="m9.3413 4.5822c0 0.50485 0.32704 0.80649 0.73981 0.80649 0.20956 0 0.37467-0.073028 0.50802-0.15876l-0.09208-0.17146c-0.1143 0.073028-0.23814 0.12066-0.38419 0.12066-0.29529 0-0.49532-0.20956-0.51437-0.54295h1.0414c0.0063-0.038102 0.0095-0.088904 0.0095-0.14288 0-0.44134-0.22226-0.72393-0.61598-0.72393-0.35244 0-0.69218 0.30799-0.69218 0.81284zm0.25401-0.11748c0.031751-0.31116 0.22861-0.48897 0.44452-0.48897 0.24131 0 0.38102 0.17463 0.38102 0.48897z"/>
   <path d="m11.031 5.3506h0.26036v-1.1176c0.15558-0.15558 0.26354-0.23814 0.42229-0.23814 0.20321 0 0.29211 0.12383 0.29211 0.41277v0.94302h0.26036v-0.97794c0-0.39372-0.14606-0.60328-0.46992-0.60328-0.21274 0-0.37149 0.11431-0.51755 0.26036h-0.0095l-0.02223-0.22226h-0.21591z"/>
   <path d="m12.745 4.7854c0 0.39372 0.14606 0.60328 0.4731 0.60328 0.21274 0 0.36514-0.11113 0.50802-0.27941h0.0095l0.02223 0.24131h0.21591v-1.5431h-0.26036v1.0954c-0.14606 0.18098-0.25719 0.26036-0.41594 0.26036-0.20321 0-0.28894-0.12383-0.28894-0.41277v-0.94302h-0.26354z"/>
  </g>
  <path d="m58.342 8.0701v11.907" fill="none" stroke="#7893ea" stroke-linecap="square"/>
  <path d="m84.538 4.1813h-19.999" fill="none" stroke="#7893ea" stroke-dashoffset="1.2" stroke-linecap="square"/>
 </g>
 <g>
  <g transform="matrix(-.0031775 0 0 .003232 65.281 3.3144)" fill="#47d58a" stroke-width="82.566">
   <g fill="#47d58a" stroke-width="82.566">
    <path d="m486.41 221.41-364.07-208.5c-52.938-30.318-95.852-5.44-95.852 55.563v415.65c0 61.004 42.914 85.882 95.852 55.563l364.07-208.49c52.938-30.317 52.938-79.473 0-109.79z" fill="#7893ea" stroke-width="82.566"/>
   </g>
  </g>
  <g stroke-linecap="round" stroke-width=".2646">
   <path d="m42.466 0.1323h21.168v7.9378h-21.168z" fill="#2f3744" stroke="#7b8694"/>
   <g fill="#e8eaec" aria-label="Level 1-30">
    <path d="m46.535 5.3506h1.1748v-0.22543h-0.90809v-1.8575h-0.26671z"/>
    <path d="m47.894 4.5822c0 0.50485 0.32704 0.80649 0.73981 0.80649 0.20956 0 0.37467-0.073028 0.50802-0.15876l-0.09208-0.17146c-0.1143 0.073028-0.23814 0.12066-0.38419 0.12066-0.29529 0-0.49532-0.20956-0.51437-0.54295h1.0414c0.0063-0.038102 0.0095-0.088904 0.0095-0.14288 0-0.44134-0.22226-0.72393-0.61598-0.72393-0.35244 0-0.69218 0.30799-0.69218 0.81284zm0.25401-0.11748c0.03175-0.31116 0.22861-0.48897 0.44452-0.48897 0.24131 0 0.38102 0.17463 0.38102 0.48897z"/>
    <path d="m49.935 5.3506h0.30481l0.54612-1.5431h-0.25719l-0.29211 0.87634c-0.04445 0.15241-0.09525 0.30799-0.13971 0.45404h-0.0127c-0.047628-0.14606-0.09843-0.30164-0.14288-0.45404l-0.29211-0.87634h-0.26989z"/>
    <path d="m50.957 4.5822c0 0.50485 0.32704 0.80649 0.73981 0.80649 0.20956 0 0.37467-0.073028 0.50802-0.15876l-0.09208-0.17146c-0.1143 0.073028-0.23814 0.12066-0.38419 0.12066-0.29529 0-0.49532-0.20956-0.51437-0.54295h1.0414c0.0064-0.038102 0.0095-0.088904 0.0095-0.14288 0-0.44134-0.22226-0.72393-0.61598-0.72393-0.35244 0-0.69218 0.30799-0.69218 0.81284zm0.25401-0.11748c0.03175-0.31116 0.22861-0.48897 0.44452-0.48897 0.24131 0 0.38102 0.17463 0.38102 0.48897z"/>
    <path d="m52.647 5.0394c0 0.22543 0.07938 0.34927 0.27624 0.34927 0.06985 0 0.1143-0.00953 0.14923-0.025401l-0.034926-0.19686c-0.02858 0.00635-0.04128 0.00635-0.05715 0.00635-0.0381 0-0.07303-0.031751-0.07303-0.11431v-1.9686h-0.26036z"/>
    <path d="m54.088 5.3506h1.143v-0.21591h-0.41912v-1.8098h-0.20003c-0.11113 0.066678-0.24449 0.11748-0.42864 0.14923v0.16828h0.36832v1.4923h-0.46357z"/>
    <path d="m55.543 4.6552h0.73028v-0.20003h-0.73028z"/>
    <path d="m56.481 5.1029c0.13653 0.14923 0.34292 0.28576 0.66678 0.28576 0.37149 0 0.66678-0.21908 0.66678-0.57788 0-0.27941-0.19368-0.45722-0.43817-0.51437v-0.012701c0.21908-0.082554 0.36832-0.23814 0.36832-0.48262 0-0.32704-0.25401-0.51437-0.60645-0.51437-0.23814 0-0.42547 0.10795-0.58105 0.25401l0.13971 0.16511c0.12066-0.12066 0.26354-0.20638 0.43182-0.20638 0.21591 0 0.34926 0.12383 0.34926 0.32069 0 0.21273-0.14288 0.37784-0.5747 0.37784v0.20003c0.48262 0 0.64773 0.16193 0.64773 0.40324 0 0.22543-0.17463 0.37149-0.41912 0.37149-0.23814 0-0.39689-0.11431-0.51755-0.24131z"/>
    <path d="m58.764 5.3887c0.40324 0 0.64773-0.37784 0.64773-1.0573s-0.24449-1.0446-0.64773-1.0446c-0.40642 0-0.6509 0.36514-0.6509 1.0446s0.24448 1.0573 0.6509 1.0573zm0-0.20956c-0.23814 0-0.39689-0.25401-0.39689-0.84776s0.15876-0.83506 0.39689-0.83506c0.23496 0 0.39372 0.24131 0.39372 0.83506s-0.15876 0.84776-0.39372 0.84776z"/>
   </g>
   <path d="m84.801 0.1323h21.168v7.9378h-21.168z" fill="#2f3744" stroke="#7b8694"/>
   <g fill="#e8eaec" aria-label="Intermezzo">
    <path d="m88.071 5.3506h0.26671v-2.0829h-0.26671z"/>
    <path d="m88.873 5.3506h0.26036v-1.1176c0.15558-0.15558 0.26354-0.23814 0.42229-0.23814 0.20321 0 0.29211 0.12383 0.29211 0.41277v0.94302h0.26036v-0.97794c0-0.39372-0.14606-0.60328-0.46992-0.60328-0.21273 0-0.37149 0.11431-0.51755 0.26036h-0.0095l-0.022252-0.22226h-0.21591z"/>
    <path d="m90.654 4.8743c0 0.30481 0.11113 0.51437 0.44134 0.51437 0.09525 0 0.20003-0.028576 0.28576-0.057152l-0.0508-0.19686c-0.0508 0.019051-0.12066 0.041277-0.17463 0.041277-0.17781 0-0.23814-0.10795-0.23814-0.29846v-0.85729h0.41594v-0.21273h-0.41594v-0.43182h-0.21908l-0.03175 0.43182-0.24131 0.015876v0.19686h0.22861z"/>
    <path d="m91.537 4.5822c0 0.50485 0.32704 0.80649 0.73981 0.80649 0.20956 0 0.37467-0.073028 0.50802-0.15876l-0.09208-0.17146c-0.1143 0.073028-0.23814 0.12066-0.38419 0.12066-0.29529 0-0.49532-0.20956-0.51437-0.54295h1.0414c0.0064-0.038102 0.0095-0.088904 0.0095-0.14288 0-0.44134-0.22226-0.72393-0.61598-0.72393-0.35244 0-0.69218 0.30799-0.69218 0.81284zm0.25401-0.11748c0.03175-0.31116 0.22861-0.48897 0.44452-0.48897 0.24131 0 0.38102 0.17463 0.38102 0.48897z"/>
    <path d="m93.227 5.3506h0.26036v-0.99064c0.10478-0.26036 0.26036-0.35562 0.39054-0.35562 0.0635 0 0.09843 0.00953 0.14923 0.025401l0.0508-0.22861c-0.0508-0.022226-0.09843-0.031751-0.16511-0.031751-0.17463 0-0.33339 0.12383-0.43817 0.31751h-0.0095l-0.02223-0.27941h-0.21591z"/>
    <path d="m94.331 5.3506h0.26036v-1.1176c0.14288-0.15876 0.27306-0.23814 0.38737-0.23814 0.19686 0 0.28894 0.12383 0.28894 0.41277v0.94302h0.26036v-1.1176c0.14288-0.15876 0.26671-0.23814 0.38737-0.23814 0.19368 0 0.28576 0.12383 0.28576 0.41277v0.94302h0.26036v-0.97794c0-0.39372-0.15241-0.60328-0.46992-0.60328-0.18733 0-0.34609 0.12066-0.50802 0.29529-0.063502-0.18416-0.19051-0.29529-0.42547-0.29529-0.18416 0-0.34609 0.11431-0.47945 0.26036h-0.0095l-0.02223-0.22226h-0.21591z"/>
    <path d="m96.846 4.5822c0 0.50485 0.32704 0.80649 0.73981 0.80649 0.20956 0 0.37467-0.073028 0.50802-0.15876l-0.09208-0.17146c-0.1143 0.073028-0.23814 0.12066-0.38419 0.12066-0.29529 0-0.49532-0.20956-0.51437-0.54295h1.0414c0.0063-0.038102 0.0095-0.088904 0.0095-0.14288 0-0.44134-0.22226-0.72393-0.61598-0.72393-0.35244 0-0.69218 0.30799-0.69218 0.81284zm0.25401-0.11748c0.03175-0.31116 0.22861-0.48897 0.44452-0.48897 0.24131 0 0.38102 0.17463 0.38102 0.48897z"/>
    <path d="m98.386 5.3506h1.1685v-0.21273h-0.83824l0.81284-1.1907v-0.13971h-1.0541v0.21273h0.72393l-0.81284 1.1907z"/>
    <path d="m99.737 5.3506h1.1685v-0.21273h-0.83824l0.81284-1.1907v-0.13971h-1.0541v0.21273h0.72393l-0.81283 1.1907z"/>
    <path d="m101.11 4.5822c0 0.5112 0.33657 0.80649 0.71441 0.80649s0.71441-0.29529 0.71441-0.80649c0-0.51755-0.33657-0.81284-0.71441-0.81284s-0.71441 0.29529-0.71441 0.81284zm0.26989 0c0-0.35562 0.18098-0.59693 0.44452-0.59693 0.26671 0 0.44452 0.24131 0.44452 0.59693 0 0.35244-0.17781 0.59058-0.44452 0.59058-0.26354 0-0.44452-0.23814-0.44452-0.59058z"/>
   </g>
   <path d="m42.466 21.3h21.168v7.9378h-21.168z" fill="#2f3744" stroke="#7b8694"/>
   <g fill="#e8eaec" aria-label="Scoreboard">
    <path d="m45.366 26.248c0.18098 0.18733 0.435 0.30799 0.72711 0.30799 0.43817 0 0.71123-0.26354 0.71123-0.59375 0-0.30799-0.18733-0.45087-0.42864-0.55565l-0.29846-0.12701c-0.16193-0.06985-0.34609-0.14606-0.34609-0.34609 0-0.18733 0.15558-0.30481 0.39054-0.30481 0.19051 0 0.34609 0.0762 0.4731 0.19686l0.13971-0.17146c-0.14606-0.15241-0.36514-0.25719-0.6128-0.25719-0.37784 0-0.65725 0.23496-0.65725 0.55247 0 0.30481 0.22861 0.45404 0.42229 0.5366l0.29846 0.13018c0.19686 0.0889 0.34927 0.15558 0.34927 0.36832 0 0.20321-0.16193 0.33974-0.43499 0.33974-0.21908 0-0.42547-0.10478-0.5747-0.26036z"/>
    <path d="m47.066 25.75c0 0.5112 0.31434 0.80649 0.72393 0.80649 0.18416 0 0.36197-0.0762 0.50167-0.20003l-0.11748-0.17146c-0.09208 0.08255-0.21591 0.15558-0.36197 0.15558-0.28259 0-0.47627-0.23814-0.47627-0.59058 0-0.35562 0.20321-0.59693 0.48262-0.59693 0.12383 0 0.21908 0.05715 0.31116 0.13653l0.13018-0.16828c-0.10478-0.09843-0.24766-0.18416-0.45087-0.18416-0.39689 0-0.74298 0.29529-0.74298 0.81284z"/>
    <path d="m48.442 25.75c0 0.5112 0.33656 0.80649 0.71441 0.80649 0.37784 0 0.71441-0.29529 0.71441-0.80649 0-0.51755-0.33656-0.81284-0.71441-0.81284-0.37784 0-0.71441 0.29529-0.71441 0.81284zm0.26989 0c0-0.35562 0.18098-0.59693 0.44452-0.59693 0.26671 0 0.44452 0.24131 0.44452 0.59693 0 0.35244-0.17781 0.59058-0.44452 0.59058-0.26354 0-0.44452-0.23814-0.44452-0.59058z"/>
    <path d="m50.281 26.518h0.26036v-0.99064c0.10478-0.26036 0.26036-0.35562 0.39054-0.35562 0.0635 0 0.09843 0.0095 0.14923 0.0254l0.0508-0.22861c-0.0508-0.02223-0.09843-0.03175-0.16511-0.03175-0.17463 0-0.33339 0.12383-0.43817 0.31751h-0.0095l-0.02223-0.27941h-0.21591z"/>
    <path d="m51.239 25.75c0 0.50485 0.32704 0.80649 0.73981 0.80649 0.20956 0 0.37467-0.07303 0.50802-0.15876l-0.09208-0.17146c-0.1143 0.07303-0.23814 0.12066-0.38419 0.12066-0.29529 0-0.49532-0.20956-0.51437-0.54295h1.0414c0.0063-0.0381 0.0095-0.0889 0.0095-0.14288 0-0.44134-0.22226-0.72393-0.61598-0.72393-0.35244 0-0.69218 0.30799-0.69218 0.81284zm0.25401-0.11748c0.03175-0.31116 0.22861-0.48897 0.44452-0.48897 0.24131 0 0.38102 0.17463 0.38102 0.48897z"/>
    <path d="m52.929 26.518h0.20956l0.02223-0.15241h0.0095c0.13653 0.12066 0.29846 0.19051 0.44134 0.19051 0.35244 0 0.66678-0.30799 0.66678-0.83506 0-0.47627-0.21273-0.78426-0.6128-0.78426-0.17146 0-0.34292 0.09208-0.48262 0.21591l0.0064-0.27941v-0.61598h-0.26036zm0.26036-0.34292v-0.80966c0.14606-0.13653 0.28259-0.20956 0.41277-0.20956 0.29211 0 0.40642 0.22861 0.40642 0.56835 0 0.38102-0.18733 0.6128-0.44134 0.6128-0.1016 0-0.24131-0.04445-0.37784-0.16193z"/>
    <path d="m54.576 25.75c0 0.5112 0.33656 0.80649 0.71441 0.80649s0.71441-0.29529 0.71441-0.80649c0-0.51755-0.33656-0.81284-0.71441-0.81284s-0.71441 0.29529-0.71441 0.81284zm0.26989 0c0-0.35562 0.18098-0.59693 0.44452-0.59693 0.26671 0 0.44452 0.24131 0.44452 0.59693 0 0.35244-0.17781 0.59058-0.44452 0.59058-0.26354 0-0.44452-0.23814-0.44452-0.59058z"/>
    <path d="m56.294 26.118c0 0.27624 0.19368 0.43817 0.45404 0.43817 0.19051 0 0.36197-0.1016 0.5112-0.22226h0.0064l0.02223 0.18416h0.21591v-0.94619c0-0.38419-0.15876-0.63503-0.5366-0.63503-0.24766 0-0.46357 0.10796-0.60645 0.20003l0.10478 0.18098c0.12066-0.08255 0.27941-0.16511 0.4604-0.16511 0.25084 0 0.31751 0.19051 0.31751 0.38737-0.65725 0.07303-0.94937 0.24131-0.94937 0.57788zm0.25719-0.01905c0-0.19686 0.17463-0.32386 0.69218-0.38737v0.42864c-0.14923 0.13336-0.27306 0.20638-0.42229 0.20638-0.15241 0-0.26989-0.07303-0.26989-0.24766z"/>
    <path d="m57.995 26.518h0.26036v-0.99064c0.10478-0.26036 0.26036-0.35562 0.39054-0.35562 0.0635 0 0.09843 0.0095 0.14923 0.0254l0.0508-0.22861c-0.0508-0.02223-0.09843-0.03175-0.16511-0.03175-0.17463 0-0.33339 0.12383-0.43817 0.31751h-0.0095l-0.02223-0.27941h-0.21591z"/>
    <path d="m58.957 25.75c0 0.51437 0.25084 0.80649 0.6382 0.80649 0.18098 0 0.34609-0.1016 0.46675-0.21908h0.0095l0.02223 0.18098h0.21591v-2.2607h-0.26354v0.59375l0.0127 0.26354c-0.13653-0.11113-0.25401-0.17781-0.43182-0.17781-0.35244 0-0.66996 0.31116-0.66996 0.81284zm0.26989-0.0032c0-0.35244 0.19686-0.59058 0.44452-0.59058 0.127 0 0.24448 0.04445 0.37467 0.16193v0.80649c-0.127 0.14288-0.25084 0.21273-0.39372 0.21273-0.26989 0-0.42547-0.22226-0.42547-0.59058z"/>
   </g>
  </g>
  <g transform="matrix(.0031775 0 0 .003232 40.664 3.3144)" fill="#47d58a" stroke-width="82.566">
   <g fill="#47d58a" stroke-width="82.566">
    <path d="m486.41 221.41-364.07-208.5c-52.938-30.318-95.852-5.44-95.852 55.563v415.65c0 61.004 42.914 85.882 95.852 55.563l364.07-208.49c52.938-30.317 52.938-79.473 0-109.79z" fill="#7893ea" stroke-width="82.566"/>
   </g>
  </g>
  <g transform="matrix(0 .0031775 -.003232 0 59.227 19.445)" fill="#47d58a" stroke-width="82.566">
   <g fill="#47d58a" stroke-width="82.566">
    <path d="m486.41 221.41-364.07-208.5c-52.938-30.318-95.852-5.44-95.852 55.563v415.65c0 61.004 42.914 85.882 95.852 55.563l364.07-208.49c52.938-30.317 52.938-79.473 0-109.79z" fill="#7893ea" stroke-width="82.566"/>
   </g>
  </g>
 </g>
 <path d="m47.758 20.985v-11.907" fill="none" stroke="#7893ea" stroke-linecap="square" stroke-width=".2646"/>
 <g transform="matrix(0 -.0031775 -.003232 0 48.643 9.8742)" fill="#47d58a" stroke-width="82.566">
  <g fill="#47d58a" stroke-width="82.566">
   <path d="m486.41 221.41-364.07-208.5c-52.938-30.318-95.852-5.44-95.852 55.563v415.65c0 61.004 42.914 85.882 95.852 55.563l364.07-208.49c52.938-30.317 52.938-79.473 0-109.79z" fill="#7893ea" stroke-width="82.566"/>
  </g>
 </g>
 <path d="m63.634 25.269h31.751v-15.876" fill="none" stroke="#7893ea" stroke-linecap="square" stroke-width=".2646"/>
 <g transform="matrix(0 -.0031775 -.003232 0 96.27 9.8742)" fill="#47d58a" stroke-width="82.566">
  <g fill="#47d58a" stroke-width="82.566">
   <path d="m486.41 221.41-364.07-208.5c-52.938-30.318-95.852-5.44-95.852 55.563v415.65c0 61.004 42.914 85.882 95.852 55.563l364.07-208.49c52.938-30.317 52.938-79.473 0-109.79z" fill="#7893ea" stroke-width="82.566"/>
  </g>
 </g>
 <g fill="#e8eaec" stroke-linecap="round" stroke-width=".2646" aria-label="[for levels 7,12,21,30]">
  <path d="m65.441 25.149h0.56835v-0.14923h-0.37149v-2.429h0.37149v-0.15241h-0.56835z"/>
  <path d="m67.117 22.418c-0.06985-0.02858-0.16193-0.0508-0.25719-0.0508-0.30799 0-0.45087 0.19686-0.45087 0.5112v0.24449l-0.20956 0.01588v0.19686h0.20956v1.3304h0.26036v-1.3304h0.32704v-0.21273h-0.32704v-0.24449c0-0.19686 0.06985-0.29846 0.21591-0.29846 0.05715 0 0.11748 0.0127 0.17463 0.0381z"/>
  <path d="m67.149 23.898c0 0.5112 0.33656 0.80648 0.71441 0.80648 0.37784 0 0.71441-0.29529 0.71441-0.80648 0-0.51755-0.33656-0.81284-0.71441-0.81284-0.37784 0-0.71441 0.29529-0.71441 0.81284zm0.26989 0c0-0.35562 0.18098-0.59693 0.44452-0.59693 0.26671 0 0.44452 0.24131 0.44452 0.59693 0 0.35244-0.17781 0.59058-0.44452 0.59058-0.26354 0-0.44452-0.23814-0.44452-0.59058z"/>
  <path d="m68.987 24.666h0.26036v-0.99064c0.10478-0.26036 0.26036-0.35562 0.39054-0.35562 0.0635 0 0.09843 0.0095 0.14923 0.0254l0.0508-0.22861c-0.0508-0.02223-0.09843-0.03175-0.16511-0.03175-0.17463 0-0.33339 0.12383-0.43817 0.31751h-0.0095l-0.02222-0.27941h-0.21591z"/>
  <path d="m70.73 24.355c0 0.22544 0.07938 0.34926 0.27624 0.34926 0.06985 0 0.1143-0.0095 0.14923-0.0254l-0.03493-0.19686c-0.02858 0.0064-0.04128 0.0064-0.05715 0.0064-0.0381 0-0.07303-0.03175-0.07303-0.1143v-1.9686h-0.26036z"/>
  <path d="m71.428 23.898c0 0.50485 0.32704 0.80648 0.73981 0.80648 0.20956 0 0.37467-0.07303 0.50802-0.15876l-0.09208-0.17146c-0.1143 0.07303-0.23814 0.12066-0.38419 0.12066-0.29529 0-0.49532-0.20956-0.51437-0.54295h1.0414c0.0063-0.0381 0.0095-0.0889 0.0095-0.14288 0-0.44134-0.22226-0.72393-0.61598-0.72393-0.35244 0-0.69218 0.30799-0.69218 0.81284zm0.25401-0.11748c0.03175-0.31116 0.22861-0.48897 0.44452-0.48897 0.24131 0 0.38102 0.17463 0.38102 0.48897z"/>
  <path d="m73.469 24.666h0.30481l0.54612-1.5431h-0.25719l-0.29211 0.87634c-0.04445 0.15241-0.09525 0.30799-0.13971 0.45404h-0.0127c-0.04763-0.14606-0.09843-0.30164-0.14288-0.45404l-0.29211-0.87634h-0.26989z"/>
  <path d="m74.492 23.898c0 0.50485 0.32704 0.80648 0.73981 0.80648 0.20956 0 0.37467-0.07303 0.50802-0.15876l-0.09208-0.17146c-0.1143 0.07303-0.23814 0.12066-0.38419 0.12066-0.29529 0-0.49532-0.20956-0.51437-0.54295h1.0414c0.0064-0.0381 0.0095-0.0889 0.0095-0.14288 0-0.44134-0.22226-0.72393-0.61598-0.72393-0.35244 0-0.69218 0.30799-0.69218 0.81284zm0.25401-0.11748c0.03175-0.31116 0.22861-0.48897 0.44452-0.48897 0.24131 0 0.38102 0.17463 0.38102 0.48897z"/>
  <path d="m76.181 24.355c0 0.22544 0.07938 0.34926 0.27624 0.34926 0.06985 0 0.1143-0.0095 0.14923-0.0254l-0.03493-0.19686c-0.02858 0.0064-0.04128 0.0064-0.05715 0.0064-0.0381 0-0.07303-0.03175-0.07303-0.1143v-1.9686h-0.26036z"/>
  <path d="m76.822 24.491c0.14606 0.12066 0.35562 0.21273 0.5747 0.21273 0.36514 0 0.56518-0.20956 0.56518-0.4604 0-0.29211-0.24766-0.38419-0.46992-0.46675-0.17463-0.06668-0.34292-0.12383-0.34292-0.26671 0-0.11748 0.0889-0.22226 0.28259-0.22226 0.13653 0 0.24766 0.05715 0.35244 0.13653l0.12383-0.16511c-0.11748-0.09526-0.28576-0.17463-0.47945-0.17463-0.33339 0-0.53025 0.19051-0.53025 0.43817 0 0.26036 0.24131 0.36514 0.4604 0.44452 0.16828 0.0635 0.35244 0.13336 0.35244 0.29211 0 0.13336-0.1016 0.24131-0.30481 0.24131-0.18416 0-0.32069-0.0762-0.45404-0.18416z"/>
  <path d="m79.267 24.666h0.26989c0.03493-0.79061 0.13336-1.251 0.6128-1.8638v-0.16193h-1.305v0.22544h1.0097c-0.40007 0.55565-0.55248 1.0383-0.5874 1.8003z"/>
  <path d="m80.493 25.206c0.25719-0.10795 0.41594-0.32069 0.41594-0.59375 0-0.19051-0.08255-0.30799-0.21908-0.30799-0.10478 0-0.19368 0.06985-0.19368 0.18416 0 0.11748 0.08573 0.18098 0.18733 0.18098 0.0095 0 0.02223 0 0.03175-0.0032 0 0.17146-0.10796 0.30799-0.28576 0.38737z"/>
  <path d="m81.319 24.666h1.1431v-0.21591h-0.41912v-1.8098h-0.20003c-0.11113 0.06668-0.24448 0.11748-0.42864 0.14923v0.16828h0.36832v1.4923h-0.46357z"/>
  <path d="m82.77 24.666h1.3082v-0.22544h-0.5874c-0.10478 0-0.22861 0.0095-0.33974 0.01905 0.47945-0.50167 0.82554-0.87951 0.82554-1.2605 0-0.35879-0.23179-0.59693-0.60645-0.59693-0.26354 0-0.44452 0.12383-0.6128 0.30799l0.14923 0.14923c0.11748-0.13653 0.26354-0.24449 0.43182-0.24449 0.25719 0 0.38419 0.16511 0.38419 0.39689 0 0.32704-0.34292 0.69218-0.95254 1.2986z"/>
  <path d="m84.431 25.206c0.25719-0.10795 0.41594-0.32069 0.41594-0.59375 0-0.19051-0.08255-0.30799-0.21908-0.30799-0.10478 0-0.19368 0.06985-0.19368 0.18416 0 0.11748 0.08573 0.18098 0.18733 0.18098 0.0095 0 0.02223 0 0.03175-0.0032 0 0.17146-0.10796 0.30799-0.28576 0.38737z"/>
  <path d="m85.133 24.666h1.3082v-0.22544h-0.5874c-0.10478 0-0.22861 0.0095-0.33974 0.01905 0.47945-0.50167 0.82554-0.87951 0.82554-1.2605 0-0.35879-0.23179-0.59693-0.60645-0.59693-0.26354 0-0.44452 0.12383-0.6128 0.30799l0.14923 0.14923c0.11748-0.13653 0.26354-0.24449 0.43182-0.24449 0.25719 0 0.38419 0.16511 0.38419 0.39689 0 0.32704-0.34292 0.69218-0.95254 1.2986z"/>
  <path d="m86.832 24.666h1.143v-0.21591h-0.41912v-1.8098h-0.20003c-0.11113 0.06668-0.24449 0.11748-0.42864 0.14923v0.16828h0.36832v1.4923h-0.46357z"/>
  <path d="m88.369 25.206c0.25719-0.10795 0.41594-0.32069 0.41594-0.59375 0-0.19051-0.08255-0.30799-0.21908-0.30799-0.10478 0-0.19368 0.06985-0.19368 0.18416 0 0.11748 0.08573 0.18098 0.18733 0.18098 0.0095 0 0.02223 0 0.03175-0.0032 0 0.17146-0.10795 0.30799-0.28576 0.38737z"/>
  <path d="m89.026 24.418c0.13653 0.14923 0.34292 0.28576 0.66678 0.28576 0.37149 0 0.66678-0.21908 0.66678-0.57788 0-0.27941-0.19368-0.45722-0.43817-0.51437v-0.0127c0.21908-0.08255 0.36832-0.23814 0.36832-0.48262 0-0.32704-0.25401-0.51437-0.60645-0.51437-0.23814 0-0.42547 0.10795-0.58105 0.25401l0.13971 0.16511c0.12066-0.12066 0.26354-0.20638 0.43182-0.20638 0.21591 0 0.34926 0.12383 0.34926 0.32069 0 0.21274-0.14288 0.37784-0.5747 0.37784v0.20003c0.48262 0 0.64773 0.16193 0.64773 0.40324 0 0.22544-0.17463 0.37149-0.41912 0.37149-0.23814 0-0.39689-0.1143-0.51755-0.24131z"/>
  <path d="m91.309 24.704c0.40324 0 0.64773-0.37784 0.64773-1.0573s-0.24449-1.0446-0.64773-1.0446c-0.40642 0-0.6509 0.36514-0.6509 1.0446s0.24449 1.0573 0.6509 1.0573zm0-0.20956c-0.23814 0-0.39689-0.25401-0.39689-0.84776s0.15876-0.83506 0.39689-0.83506c0.23496 0 0.39372 0.24131 0.39372 0.83506s-0.15876 0.84776-0.39372 0.84776z"/>
  <path d="m92.192 24.999v0.14923h0.56518v-2.7306h-0.56518v0.15241h0.36832v2.429z"/>
 </g>
</svg>
