<?xml version="1.0" encoding="UTF-8"?>
<svg width="401" height="191" version="1.1" viewBox="0 0 106.1 50.537" xmlns="http://www.w3.org/2000/svg" xmlns:cc="http://creativecommons.org/ns#" xmlns:dc="http://purl.org/dc/elements/1.1/" xmlns:rdf="http://www.w3.org/1999/02/22-rdf-syntax-ns#">
 <metadata>
  <rdf:RDF>
   <cc:Work rdf:about="">
    <dc:format>image/svg+xml</dc:format>
    <dc:type rdf:resource="http://purl.org/dc/dcmitype/StillImage"/>
    <dc:title/>
   </cc:Work>
  </rdf:RDF>
 </metadata>
 <g stroke-width=".26459">
  <path d="m21.407 25.349h19.999" fill="none" stroke="#7893ea" stroke-dashoffset="1.2" stroke-linecap="square"/>
  <path d="m0.13168 21.3h21.167v7.9377h-21.167z" fill="#2f3744" stroke="#7b8694" stroke-linecap="round"/>
  <g fill="#e8eaec" stroke-linecap="round" aria-label="Intro">
   <path d="m7.6333 26.518h0.26671v-2.0829h-0.26671z"/>
   <path d="m8.436 26.518h0.26036v-1.1176c0.15558-0.15558 0.26353-0.23813 0.42229-0.23813 0.20321 0 0.29211 0.12383 0.29211 0.41276v0.943h0.26036v-0.97793c0-0.39371-0.14605-0.60327-0.46991-0.60327-0.21273 0-0.37149 0.1143-0.51754 0.26036h-0.00953l-0.022221-0.22226h-0.21591z"/>
   <path d="m10.217 26.042c0 0.30481 0.11113 0.51437 0.44134 0.51437 0.09525 0 0.20003-0.02858 0.28576-0.05715l-0.0508-0.19686c-0.0508 0.01905-0.12065 0.04128-0.17463 0.04128-0.17781 0-0.23813-0.10795-0.23813-0.29846v-0.85728h0.41594v-0.21273h-0.41594v-0.43181h-0.21908l-0.03175 0.43181-0.24131 0.01588v0.19686h0.22861z"/>
   <path d="m11.245 26.518h0.26036v-0.99063c0.10478-0.26036 0.26036-0.35561 0.39054-0.35561 0.0635 0 0.09843 0.0095 0.14923 0.0254l0.0508-0.22861c-0.0508-0.02222-0.09843-0.03175-0.1651-0.03175-0.17463 0-0.33339 0.12383-0.43816 0.31751h-0.0095l-0.02223-0.27941h-0.21593z"/>
   <path d="m12.204 25.749c0 0.51119 0.33656 0.80648 0.7144 0.80648 0.37784 0 0.7144-0.29528 0.7144-0.80648 0-0.51754-0.33656-0.81283-0.7144-0.81283-0.37784 0-0.7144 0.29528-0.7144 0.81283zm0.26988 0c0-0.35561 0.18098-0.59692 0.44451-0.59692 0.26671 0 0.44451 0.24131 0.44451 0.59692 0 0.35244-0.1778 0.59057-0.44451 0.59057-0.26353 0-0.44451-0.23813-0.44451-0.59057z"/>
  </g>
  <path d="m58.342 29.237v11.907" fill="none" stroke="#7893ea" stroke-linecap="square"/>
  <path d="m84.538 23.232h-19.999" fill="none" stroke="#7893ea" stroke-dashoffset="1.2" stroke-linecap="square"/>
 </g>
 <g transform="matrix(-.0031775 0 0 .0032319 65.454 22.365)" fill="#47d58a" stroke-width="82.566">
  <g fill="#47d58a" stroke-width="82.566">
   <path d="m486.41 221.41-364.07-208.5c-52.938-30.318-95.852-5.44-95.852 55.563v415.65c0 61.004 42.914 85.882 95.852 55.563l364.07-208.49c52.938-30.317 52.938-79.473 0-109.79z" fill="#7893ea" stroke-width="82.566"/>
  </g>
 </g>
 <g fill="none" stroke="#7893ea" stroke-linecap="square" stroke-width=".26459">
  <path d="m63.742 26.988h19.999" stroke-dashoffset="1.2"/>
  <path d="m58.342 21.3v-11.907"/>
  <path d="m60.988 29.237 22.413 17.198"/>
 </g>
 <g>
  <g stroke-linecap="round" stroke-width=".26459">
   <path d="m42.466 21.3h21.167v7.9377h-21.167z" fill="#2f3744" stroke="#7b8694"/>
   <g fill="#e8eaec" aria-label="Level 1-15">
    <path d="m46.535 26.518h1.1748v-0.22543h-0.90808v-1.8574h-0.26671z"/>
    <path d="m47.894 25.749c0 0.50484 0.32704 0.80648 0.7398 0.80648 0.20956 0 0.37466-0.07303 0.50802-0.15876l-0.09208-0.17146c-0.1143 0.07303-0.23813 0.12065-0.38419 0.12065-0.29528 0-0.49532-0.20956-0.51437-0.54294h1.0414c0.0064-0.0381 0.0095-0.0889 0.0095-0.14288 0-0.44134-0.22226-0.72392-0.61597-0.72392-0.35244 0-0.69217 0.30798-0.69217 0.81283zm0.25401-0.11748c0.03175-0.31116 0.22861-0.48896 0.44451-0.48896 0.24131 0 0.38101 0.17463 0.38101 0.48896z"/>
    <path d="m49.935 26.518h0.30481l0.54612-1.5431h-0.25718l-0.29211 0.87633c-0.04445 0.1524-0.09525 0.30798-0.1397 0.45404h-0.0127c-0.047627-0.14605-0.098428-0.30163-0.14288-0.45404l-0.29211-0.87633h-0.26988z"/>
    <path d="m50.957 25.749c0 0.50484 0.32704 0.80648 0.7398 0.80648 0.20956 0 0.37466-0.07303 0.50802-0.15876l-0.09208-0.17146c-0.1143 0.07303-0.23813 0.12065-0.38419 0.12065-0.29528 0-0.49532-0.20956-0.51437-0.54294h1.0414c0.0064-0.0381 0.0095-0.0889 0.0095-0.14288 0-0.44134-0.22226-0.72392-0.61597-0.72392-0.35244 0-0.69217 0.30798-0.69217 0.81283zm0.25401-0.11748c0.03175-0.31116 0.22861-0.48896 0.44451-0.48896 0.24131 0 0.38101 0.17463 0.38101 0.48896z"/>
    <path d="m52.647 26.207c0 0.22543 0.07938 0.34926 0.27623 0.34926 0.06985 0 0.1143-0.0095 0.14923-0.0254l-0.03493-0.19686c-0.02858 0.0064-0.04128 0.0064-0.05715 0.0064-0.0381 0-0.07303-0.03175-0.07303-0.1143v-1.9686h-0.26036z"/>
    <path d="m54.088 26.518h1.143v-0.21591h-0.41911v-1.8098h-0.20003c-0.11113 0.06668-0.24448 0.11748-0.42864 0.14923v0.16828h0.36831v1.4923h-0.46356z"/>
    <path d="m55.543 25.823h0.73027v-0.20003h-0.73027z"/>
    <path d="m56.649 26.518h1.143v-0.21591h-0.41911v-1.8098h-0.20003c-0.11113 0.06668-0.24448 0.11748-0.42864 0.14923v0.16828h0.36831v1.4923h-0.46356z"/>
    <path d="m58.053 26.28c0.1397 0.1397 0.33974 0.27623 0.6636 0.27623 0.35244 0 0.68265-0.24766 0.68265-0.68582s-0.28258-0.63502-0.62867-0.63502c-0.12383 0-0.21591 0.03175-0.31116 0.08255l0.05398-0.60009h0.78425v-0.22543h-1.0129l-0.06668 0.97476 0.1397 0.0889c0.12065-0.07938 0.20638-0.12383 0.34609-0.12383 0.26036 0 0.43181 0.1651 0.43181 0.44451 0 0.28258-0.19686 0.46356-0.44451 0.46356-0.23813 0-0.39054-0.11113-0.51119-0.23178z"/>
   </g>
   <path d="m84.801 21.3h21.167v7.9377h-21.167z" fill="#2f3744" stroke="#7b8694"/>
   <g fill="#e8eaec" aria-label="Intermezzo">
    <path d="m88.07 26.518h0.26671v-2.0829h-0.26671z"/>
    <path d="m88.873 26.518h0.26036v-1.1176c0.15558-0.15558 0.26353-0.23813 0.42229-0.23813 0.20321 0 0.29211 0.12383 0.29211 0.41276v0.943h0.26036v-0.97793c0-0.39371-0.14605-0.60327-0.46991-0.60327-0.21273 0-0.37149 0.1143-0.51754 0.26036h-0.009525l-0.02223-0.22226h-0.21591z"/>
    <path d="m90.654 26.042c0 0.30481 0.11113 0.51437 0.44134 0.51437 0.09525 0 0.20003-0.02858 0.28576-0.05715l-0.0508-0.19686c-0.0508 0.01905-0.12065 0.04128-0.17463 0.04128-0.17781 0-0.23813-0.10795-0.23813-0.29846v-0.85728h0.41594v-0.21273h-0.41594v-0.43181h-0.21908l-0.03175 0.43181-0.24131 0.01588v0.19686h0.22861z"/>
    <path d="m91.537 25.749c0 0.50484 0.32704 0.80648 0.7398 0.80648 0.20956 0 0.37466-0.07303 0.50802-0.15876l-0.09208-0.17146c-0.1143 0.07303-0.23813 0.12065-0.38419 0.12065-0.29528 0-0.49532-0.20956-0.51437-0.54294h1.0414c0.0063-0.0381 0.0095-0.0889 0.0095-0.14288 0-0.44134-0.22226-0.72392-0.61597-0.72392-0.35244 0-0.69217 0.30798-0.69217 0.81283zm0.25401-0.11748c0.03175-0.31116 0.22861-0.48896 0.44451-0.48896 0.24131 0 0.38101 0.17463 0.38101 0.48896z"/>
    <path d="m93.226 26.518h0.26036v-0.99063c0.10478-0.26036 0.26036-0.35561 0.39054-0.35561 0.0635 0 0.09843 0.0095 0.14923 0.0254l0.0508-0.22861c-0.0508-0.02222-0.09843-0.03175-0.1651-0.03175-0.17463 0-0.33339 0.12383-0.43816 0.31751h-0.0095l-0.02223-0.27941h-0.21591z"/>
    <path d="m94.33 26.518h0.26036v-1.1176c0.14288-0.15876 0.27306-0.23813 0.38736-0.23813 0.19686 0 0.28893 0.12383 0.28893 0.41276v0.943h0.26036v-1.1176c0.14288-0.15876 0.26671-0.23813 0.38736-0.23813 0.19368 0 0.28576 0.12383 0.28576 0.41276v0.943h0.26036v-0.97793c0-0.39371-0.1524-0.60327-0.46992-0.60327-0.18733 0-0.34609 0.12065-0.50802 0.29528-0.0635-0.18416-0.19051-0.29528-0.42546-0.29528-0.18416 0-0.34609 0.1143-0.47944 0.26036h-0.0095l-0.02223-0.22226h-0.21591z"/>
    <path d="m96.845 25.749c0 0.50484 0.32704 0.80648 0.7398 0.80648 0.20956 0 0.37466-0.07303 0.50802-0.15876l-0.09208-0.17146c-0.1143 0.07303-0.23813 0.12065-0.38419 0.12065-0.29528 0-0.49532-0.20956-0.51437-0.54294h1.0414c0.0063-0.0381 0.0095-0.0889 0.0095-0.14288 0-0.44134-0.22226-0.72392-0.61597-0.72392-0.35244 0-0.69217 0.30798-0.69217 0.81283zm0.25401-0.11748c0.03175-0.31116 0.22861-0.48896 0.44451-0.48896 0.24131 0 0.38101 0.17463 0.38101 0.48896z"/>
    <path d="m98.385 26.518h1.1684v-0.21273h-0.83823l0.81283-1.1907v-0.1397h-1.0541v0.21273h0.72392l-0.81282 1.1907z"/>
    <path d="m99.737 26.518h1.1684v-0.21273h-0.83822l0.81282-1.1907v-0.1397h-1.0541v0.21273h0.72392l-0.81282 1.1907z"/>
    <path d="m101.11 25.749c0 0.51119 0.33656 0.80648 0.71439 0.80648 0.37784 0 0.7144-0.29528 0.7144-0.80648 0-0.51754-0.33656-0.81283-0.7144-0.81283-0.37783 0-0.71439 0.29528-0.71439 0.81283zm0.26988 0c0-0.35561 0.18098-0.59692 0.44451-0.59692 0.26671 0 0.44452 0.24131 0.44452 0.59692 0 0.35244-0.17781 0.59057-0.44452 0.59057-0.26353 0-0.44451-0.23813-0.44451-0.59057z"/>
   </g>
   <path d="m42.466 42.467h21.167v7.9377h-21.167z" fill="#2f3744" stroke="#7b8694"/>
   <g fill="#e8eaec" aria-label="Level end">
    <path d="m46.855 47.685h1.1748v-0.22543h-0.90808v-1.8574h-0.26671z"/>
    <path d="m48.213 46.917c0 0.50484 0.32704 0.80648 0.7398 0.80648 0.20956 0 0.37466-0.07303 0.50802-0.15876l-0.09208-0.17146c-0.1143 0.07303-0.23813 0.12065-0.38419 0.12065-0.29528 0-0.49532-0.20956-0.51437-0.54294h1.0414c0.0063-0.0381 0.0095-0.0889 0.0095-0.14288 0-0.44134-0.22226-0.72392-0.61597-0.72392-0.35244 0-0.69217 0.30798-0.69217 0.81283zm0.25401-0.11748c0.03175-0.31116 0.22861-0.48896 0.44451-0.48896 0.24131 0 0.38101 0.17463 0.38101 0.48896z"/>
    <path d="m50.254 47.685h0.30481l0.54612-1.5431h-0.25718l-0.29211 0.87633c-0.04445 0.1524-0.09525 0.30798-0.1397 0.45404h-0.0127c-0.04763-0.14605-0.09843-0.30163-0.14288-0.45404l-0.29211-0.87633h-0.26988z"/>
    <path d="m51.276 46.917c0 0.50484 0.32704 0.80648 0.7398 0.80648 0.20956 0 0.37466-0.07303 0.50802-0.15876l-0.09208-0.17146c-0.1143 0.07303-0.23813 0.12065-0.38419 0.12065-0.29528 0-0.49532-0.20956-0.51437-0.54294h1.0414c0.0063-0.0381 0.0095-0.0889 0.0095-0.14288 0-0.44134-0.22226-0.72392-0.61597-0.72392-0.35244 0-0.69217 0.30798-0.69217 0.81283zm0.25401-0.11748c0.03175-0.31116 0.22861-0.48896 0.44451-0.48896 0.24131 0 0.38101 0.17463 0.38101 0.48896z"/>
    <path d="m52.966 47.374c0 0.22543 0.07938 0.34926 0.27623 0.34926 0.06985 0 0.1143-0.0095 0.14923-0.0254l-0.03493-0.19686c-0.02858 0.0064-0.04128 0.0064-0.05715 0.0064-0.0381 0-0.07303-0.03175-0.07303-0.1143v-1.9686h-0.26036z"/>
    <path d="m54.303 46.917c0 0.50484 0.32704 0.80648 0.7398 0.80648 0.20956 0 0.37466-0.07303 0.50802-0.15876l-0.09208-0.17146c-0.1143 0.07303-0.23813 0.12065-0.38419 0.12065-0.29528 0-0.49532-0.20956-0.51437-0.54294h1.0414c0.0064-0.0381 0.0095-0.0889 0.0095-0.14288 0-0.44134-0.22226-0.72392-0.61597-0.72392-0.35244 0-0.69217 0.30798-0.69217 0.81283zm0.25401-0.11748c0.03175-0.31116 0.22861-0.48896 0.44451-0.48896 0.24131 0 0.38101 0.17463 0.38101 0.48896z"/>
    <path d="m55.992 47.685h0.26036v-1.1176c0.15558-0.15558 0.26353-0.23813 0.42229-0.23813 0.20321 0 0.29211 0.12383 0.29211 0.41276v0.943h0.26036v-0.97793c0-0.39371-0.14605-0.60327-0.46991-0.60327-0.21273 0-0.37149 0.1143-0.51754 0.26036h-0.0095l-0.02223-0.22226h-0.21591z"/>
    <path d="m57.617 46.917c0 0.51437 0.25083 0.80648 0.6382 0.80648 0.18098 0 0.34609-0.1016 0.46674-0.21908h0.0095l0.02222 0.18098h0.21591v-2.2607h-0.26353v0.59374l0.0127 0.26353c-0.13653-0.11113-0.25401-0.17781-0.43181-0.17781-0.35244 0-0.66995 0.31116-0.66995 0.81283zm0.26988-0.0032c0-0.35244 0.19686-0.59057 0.44451-0.59057 0.127 0 0.24448 0.04445 0.37466 0.16193v0.80648c-0.127 0.14288-0.25083 0.21273-0.39371 0.21273-0.26988 0-0.42546-0.22226-0.42546-0.59057z"/>
   </g>
  </g>
  <g transform="matrix(.0031775 0 0 .0032319 40.664 24.482)" fill="#47d58a" stroke-width="82.566">
   <g fill="#47d58a" stroke-width="82.566">
    <path d="m486.41 221.41-364.07-208.5c-52.938-30.318-95.852-5.44-95.852 55.563v415.65c0 61.004 42.914 85.882 95.852 55.563l364.07-208.49c52.938-30.317 52.938-79.473 0-109.79z" fill="#7893ea" stroke-width="82.566"/>
   </g>
  </g>
  <g transform="matrix(0 .0031775 -.0032319 0 59.227 40.612)" fill="#47d58a" stroke-width="82.566">
   <g fill="#47d58a" stroke-width="82.566">
    <path d="m486.41 221.41-364.07-208.5c-52.938-30.318-95.852-5.44-95.852 55.563v415.65c0 61.004 42.914 85.882 95.852 55.563l364.07-208.49c52.938-30.317 52.938-79.473 0-109.79z" fill="#7893ea" stroke-width="82.566"/>
   </g>
  </g>
 </g>
 <path d="m47.758 42.152v-11.907" fill="none" stroke="#7893ea" stroke-linecap="square" stroke-width=".26459"/>
 <g>
  <g transform="matrix(0 -.0031775 -.0032319 0 48.643 31.041)" fill="#47d58a" stroke-width="82.566">
   <g fill="#47d58a" stroke-width="82.566">
    <path d="m486.41 221.41-364.07-208.5c-52.938-30.318-95.852-5.44-95.852 55.563v415.65c0 61.004 42.914 85.882 95.852 55.563l364.07-208.49c52.938-30.317 52.938-79.473 0-109.79z" fill="#7893ea" stroke-width="82.566"/>
   </g>
  </g>
  <path d="m42.466 8.07h21.167v-7.9377h-21.167z" fill="#2f3744" stroke="#7b8694" stroke-linecap="round" stroke-width=".26459"/>
  <g fill="#e8eaec" stroke-linecap="round" stroke-width=".26459" aria-label="Death">
   <path d="m49.23 5.4448h0.53342c0.62867 0 0.97158-0.38736 0.97158-1.051 0-0.66042-0.34291-1.0319-0.98428-1.0319h-0.52072zm0.26671-0.21591v-1.6511h0.23496c0.48897 0 0.73027 0.29211 0.73027 0.816 0 0.52707-0.24131 0.83505-0.73027 0.83505z"/>
   <path d="m51.041 4.6765c0 0.50484 0.32704 0.80648 0.7398 0.80648 0.20956 0 0.37466-0.073027 0.50802-0.15876l-0.09208-0.17146c-0.1143 0.073027-0.23813 0.12065-0.38419 0.12065-0.29528 0-0.49532-0.20956-0.51437-0.54294h1.0414c0.0064-0.038101 0.0095-0.088903 0.0095-0.14288 0-0.44134-0.22226-0.72392-0.61597-0.72392-0.35244 0-0.69217 0.30798-0.69217 0.81283zm0.25401-0.11748c0.03175-0.31116 0.22861-0.48897 0.44451-0.48897 0.24131 0 0.38101 0.17463 0.38101 0.48897z"/>
   <path d="m52.611 5.0448c0 0.27623 0.19368 0.43816 0.45404 0.43816 0.19051 0 0.36196-0.1016 0.51119-0.22226h0.0063l0.02223 0.18416h0.21591v-0.94618c0-0.38419-0.15876-0.63502-0.53659-0.63502-0.24766 0-0.46356 0.10795-0.60644 0.20003l0.10478 0.18098c0.12065-0.082553 0.27941-0.16511 0.46039-0.16511 0.25083 0 0.31751 0.19051 0.31751 0.38736-0.65725 0.073027-0.94936 0.24131-0.94936 0.57787zm0.25718-0.019051c0-0.19686 0.17463-0.32386 0.69217-0.38736v0.42864c-0.14923 0.13335-0.27306 0.20638-0.42229 0.20638-0.1524 0-0.26988-0.073027-0.26988-0.24766z"/>
   <path d="m54.356 4.9686c0 0.30481 0.11113 0.51437 0.44134 0.51437 0.09525 0 0.20003-0.028576 0.28576-0.057152l-0.0508-0.19686c-0.0508 0.019051-0.12065 0.041276-0.17463 0.041276-0.17781 0-0.23813-0.10795-0.23813-0.29846v-0.85728h0.41594v-0.21273h-0.41594v-0.43181h-0.21908l-0.03175 0.43181-0.24131 0.015875v0.19686h0.22861z"/>
   <path d="m55.384 5.4448h0.26036v-1.1176c0.15558-0.15558 0.26353-0.23813 0.42229-0.23813 0.20321 0 0.29211 0.12383 0.29211 0.41276v0.943h0.26036v-0.97793c0-0.39371-0.14605-0.60327-0.46991-0.60327-0.21273 0-0.36831 0.1143-0.51437 0.25401l0.0095-0.31751v-0.61597h-0.26036z"/>
  </g>
  <g transform="matrix(0 -.0031775 -.0032319 0 59.227 9.9247)" fill="#47d58a" stroke-width="82.566">
   <g fill="#47d58a" stroke-width="82.566">
    <path d="m486.41 221.41-364.07-208.5c-52.938-30.318-95.852-5.44-95.852 55.563v415.65c0 61.004 42.914 85.882 95.852 55.563l364.07-208.49c52.938-30.317 52.938-79.473 0-109.79z" fill="#7893ea" stroke-width="82.566"/>
   </g>
  </g>
 </g>
 <path d="m47.758 8.3853v11.907" fill="none" stroke="#7893ea" stroke-linecap="square" stroke-width=".26459"/>
 <g>
  <g transform="matrix(0 .0031775 -.0032319 0 48.643 19.496)" fill="#47d58a" stroke-width="82.566">
   <g fill="#47d58a" stroke-width="82.566">
    <path d="m486.41 221.41-364.07-208.5c-52.938-30.318-95.852-5.44-95.852 55.563v415.65c0 61.004 42.914 85.882 95.852 55.563l364.07-208.49c52.938-30.317 52.938-79.473 0-109.79z" fill="#7893ea" stroke-width="82.566"/>
   </g>
  </g>
  <g transform="matrix(.0031775 0 0 -.0032319 82.999 27.855)" fill="#47d58a" stroke-width="82.566">
   <g fill="#47d58a" stroke-width="82.566">
    <path d="m486.41 221.41-364.07-208.5c-52.938-30.318-95.852-5.44-95.852 55.563v415.65c0 61.004 42.914 85.882 95.852 55.563l364.07-208.49c52.938-30.317 52.938-79.473 0-109.79z" fill="#7893ea" stroke-width="82.566"/>
   </g>
  </g>
  <path d="m84.801 42.467h21.167v7.9377h-21.167z" fill="#2f3744" stroke="#7b8694" stroke-linecap="round" stroke-width=".26459"/>
  <g fill="#e8eaec" stroke-linecap="round" stroke-width=".26459" aria-label="Cinematic">
   <path d="m88.672 46.644c0 0.67947 0.39054 1.0795 0.91443 1.0795 0.26353 0 0.46992-0.11113 0.63184-0.30163l-0.14923-0.16193c-0.13335 0.14923-0.27941 0.23178-0.47626 0.23178-0.39689 0-0.64772-0.33021-0.64772-0.8541 0-0.51754 0.26353-0.8414 0.66042-0.8414 0.17146 0 0.30481 0.0762 0.41594 0.19368l0.14923-0.16828c-0.12383-0.13653-0.32068-0.25718-0.56834-0.25718-0.53342 0-0.9303 0.40959-0.9303 1.0795z"/>
   <path d="m90.708 45.825c0.1016 0 0.18098-0.06985 0.18098-0.16828 0-0.1016-0.07938-0.16828-0.18098-0.16828-0.1016 0-0.18098 0.06668-0.18098 0.16828 0 0.09843 0.07938 0.16828 0.18098 0.16828zm-0.13335 1.8606h0.26036v-1.5431h-0.26036z"/>
   <path d="m91.357 47.685h0.26036v-1.1176c0.15558-0.15558 0.26353-0.23813 0.42229-0.23813 0.20321 0 0.29211 0.12383 0.29211 0.41276v0.943h0.26036v-0.97793c0-0.39371-0.14605-0.60327-0.46992-0.60327-0.21273 0-0.37149 0.1143-0.51754 0.26036h-0.0095l-0.02223-0.22226h-0.21591z"/>
   <path d="m92.979 46.917c0 0.50484 0.32704 0.80648 0.7398 0.80648 0.20956 0 0.37466-0.07303 0.50802-0.15876l-0.09208-0.17146c-0.1143 0.07303-0.23813 0.12065-0.38419 0.12065-0.29528 0-0.49532-0.20956-0.51437-0.54294h1.0414c0.0063-0.0381 0.0095-0.0889 0.0095-0.14288 0-0.44134-0.22226-0.72392-0.61597-0.72392-0.35244 0-0.69217 0.30798-0.69217 0.81283zm0.25401-0.11748c0.03175-0.31116 0.22861-0.48896 0.44451-0.48896 0.24131 0 0.38101 0.17463 0.38101 0.48896z"/>
   <path d="m94.668 47.685h0.26036v-1.1176c0.14288-0.15876 0.27306-0.23813 0.38736-0.23813 0.19686 0 0.28893 0.12383 0.28893 0.41276v0.943h0.26036v-1.1176c0.14288-0.15876 0.26671-0.23813 0.38736-0.23813 0.19368 0 0.28576 0.12383 0.28576 0.41276v0.943h0.26036v-0.97793c0-0.39371-0.1524-0.60327-0.46992-0.60327-0.18733 0-0.34609 0.12065-0.50802 0.29528-0.0635-0.18416-0.19051-0.29528-0.42546-0.29528-0.18416 0-0.34609 0.1143-0.47944 0.26036h-0.0095l-0.02223-0.22226h-0.21591z"/>
   <path d="m97.221 47.285c0 0.27623 0.19368 0.43816 0.45404 0.43816 0.19051 0 0.36196-0.1016 0.51119-0.22226h0.0063l0.02223 0.18416h0.21591v-0.94618c0-0.38419-0.15876-0.63502-0.53659-0.63502-0.24766 0-0.46356 0.10795-0.60644 0.20003l0.10478 0.18098c0.12065-0.08255 0.27941-0.1651 0.46039-0.1651 0.25083 0 0.31751 0.19051 0.31751 0.38736-0.65724 0.07303-0.94936 0.24131-0.94936 0.57787zm0.25718-0.01905c0-0.19686 0.17463-0.32386 0.69217-0.38736v0.42864c-0.14923 0.13335-0.27306 0.20638-0.42229 0.20638-0.1524 0-0.26988-0.07303-0.26988-0.24766z"/>
   <path d="m98.967 47.209c0 0.30481 0.11113 0.51437 0.44134 0.51437 0.09525 0 0.20003-0.02858 0.28576-0.05715l-0.0508-0.19686c-0.0508 0.01905-0.12065 0.04128-0.17463 0.04128-0.17781 0-0.23813-0.10795-0.23813-0.29846v-0.85728h0.41594v-0.21274h-0.41594v-0.43181h-0.21908l-0.03175 0.43181-0.24131 0.01588v0.19686h0.22861z"/>
   <path d="m100.13 45.825c0.10161 0 0.18098-0.06985 0.18098-0.16828 0-0.1016-0.0794-0.16828-0.18098-0.16828-0.1016 0-0.18098 0.06668-0.18098 0.16828 0 0.09843 0.07938 0.16828 0.18098 0.16828zm-0.13335 1.8606h0.26036v-1.5431h-0.26036z"/>
   <path d="m100.66 46.917c0 0.51119 0.31433 0.80648 0.72392 0.80648 0.18416 0 0.36196-0.0762 0.50167-0.20003l-0.11748-0.17146c-0.0921 0.08255-0.21591 0.15558-0.36196 0.15558-0.28259 0-0.47627-0.23813-0.47627-0.59057 0-0.35561 0.20321-0.59692 0.48262-0.59692 0.12383 0 0.21908 0.05715 0.31116 0.13653l0.13018-0.16828c-0.10478-0.09843-0.24766-0.18416-0.45087-0.18416-0.39689 0-0.74297 0.29528-0.74297 0.81283z"/>
  </g>
  <g transform="matrix(.002416 .0020638 .0020991 -.0024574 82.697 46.985)" fill="#47d58a" stroke-width="82.566">
   <g fill="#47d58a" stroke-width="82.566">
    <path d="m486.41 221.41-364.07-208.5c-52.938-30.318-95.852-5.44-95.852 55.563v415.65c0 61.004 42.914 85.882 95.852 55.563l364.07-208.49c52.938-30.317 52.938-79.473 0-109.79z" fill="#7893ea" stroke-width="82.566"/>
   </g>
  </g>
 </g>
 <path d="m84.645 44.69-19.747-15.152" fill="none" stroke="#7893ea" stroke-linecap="square" stroke-width=".26459"/>
 <g transform="matrix(-.002416 -.0020638 -.0020991 .0024574 65.602 28.988)" fill="#47d58a" stroke-width="82.566">
  <g fill="#47d58a" stroke-width="82.566">
   <path d="m486.41 221.41-364.07-208.5c-52.938-30.318-95.852-5.44-95.852 55.563v415.65c0 61.004 42.914 85.882 95.852 55.563l364.07-208.49c52.938-30.317 52.938-79.473 0-109.79z" fill="#7893ea" stroke-width="82.566"/>
  </g>
 </g>
</svg>
