<?xml version="1.0" encoding="UTF-8"?>
<svg width="390.52" height="25.5" version="1.1" viewBox="0 0 103.33 6.7471" xmlns="http://www.w3.org/2000/svg" xmlns:cc="http://creativecommons.org/ns#" xmlns:dc="http://purl.org/dc/elements/1.1/" xmlns:rdf="http://www.w3.org/1999/02/22-rdf-syntax-ns#">
 <metadata>
  <rdf:RDF>
   <cc:Work rdf:about="">
    <dc:format>image/svg+xml</dc:format>
    <dc:type rdf:resource="http://purl.org/dc/dcmitype/StillImage"/>
    <dc:title/>
   </cc:Work>
  </rdf:RDF>
 </metadata>
 <path d="m0.2646 0.13225h103.06v6.4826h-103.06z" fill="#2f3744"/>
 <g fill="#e8eaec" stroke-linecap="round" stroke-width=".2646" aria-label="Song 1">
  <path d="m15.745 4.1546c0.18098 0.18733 0.435 0.30799 0.72711 0.30799 0.43817 0 0.71123-0.26354 0.71123-0.59375 0-0.30799-0.18733-0.45087-0.42865-0.55565l-0.29846-0.12701c-0.16193-0.069853-0.34609-0.14606-0.34609-0.34609 0-0.18733 0.15558-0.30481 0.39054-0.30481 0.19051 0 0.34609 0.076204 0.4731 0.19686l0.13971-0.17146c-0.14606-0.15241-0.36514-0.25719-0.6128-0.25719-0.37784 0-0.65726 0.23496-0.65726 0.55248 0 0.30481 0.22861 0.45405 0.4223 0.5366l0.29846 0.13018c0.19686 0.088904 0.34927 0.15558 0.34927 0.36832 0 0.20321-0.16193 0.33974-0.435 0.33974-0.21908 0-0.42547-0.10478-0.5747-0.26036z"/>
  <path d="m17.445 3.6561c0 0.5112 0.33656 0.80649 0.71441 0.80649s0.71441-0.29529 0.71441-0.80649c0-0.51755-0.33657-0.81284-0.71441-0.81284s-0.71441 0.29529-0.71441 0.81284zm0.26989 0c0-0.35562 0.18098-0.59693 0.44452-0.59693 0.26671 0 0.44452 0.24131 0.44452 0.59693 0 0.35244-0.17781 0.59058-0.44452 0.59058-0.26354 0-0.44452-0.23814-0.44452-0.59058z"/>
  <path d="m19.283 4.4245h0.26036v-1.1177c0.15558-0.15558 0.26354-0.23814 0.4223-0.23814 0.20321 0 0.29211 0.12383 0.29211 0.41277v0.94302h0.26036v-0.97795c0-0.39372-0.14606-0.60328-0.46992-0.60328-0.21274 0-0.37149 0.11431-0.51755 0.26036h-0.0095l-0.02223-0.22226h-0.21591z"/>
  <path d="m21.131 4.6848c0-0.088904 0.04763-0.18098 0.15876-0.26036 0.06668 0.019051 0.13971 0.025401 0.20003 0.025401h0.26671c0.20003 0 0.31116 0.047627 0.31116 0.19051 0 0.16193-0.19368 0.31434-0.48897 0.31434-0.27941 0-0.4477-0.10478-0.4477-0.26989zm-0.22861 0.034927c0 0.26671 0.26036 0.41594 0.6382 0.41594 0.47945 0 0.78109-0.24766 0.78109-0.53343 0-0.25719-0.18098-0.36832-0.53978-0.36832h-0.29846c-0.20956 0-0.27306-0.069853-0.27306-0.16828 0-0.085729 0.04445-0.13653 0.09843-0.18416 0.06985 0.034927 0.15558 0.053978 0.23179 0.053978 0.31434 0 0.56518-0.20638 0.56518-0.5366 0-0.13018-0.05398-0.24766-0.12701-0.31752h0.31752v-0.20004h-0.5366c-0.05715-0.022226-0.13336-0.038102-0.21908-0.038102-0.31434 0-0.58105 0.21274-0.58105 0.5493 0 0.18416 0.09843 0.33339 0.20004 0.41594v0.012701c-0.07938 0.053978-0.16828 0.15558-0.16828 0.28576 0 0.12066 0.06033 0.20321 0.13653 0.25084v0.012701c-0.13971 0.095255-0.22544 0.21909-0.22544 0.34927zm0.6382-0.9589c-0.17781 0-0.32704-0.14288-0.32704-0.36832 0-0.22544 0.14606-0.35879 0.32704-0.35879 0.18098 0 0.32704 0.13336 0.32704 0.35879 0 0.22544-0.14923 0.36832-0.32704 0.36832z"/>
  <path d="m23.249 4.4245h1.1431v-0.21591h-0.41912v-1.8098h-0.20004c-0.11113 0.066678-0.24449 0.11748-0.42864 0.14923v0.16828h0.36832v1.4923h-0.46357z"/>
 </g>
 <g fill="none" stroke-linecap="square" stroke-miterlimit="40" stroke-width=".2646">
  <path d="m0.2646 0.13225h40.748" stroke="#7b8694"/>
  <path d="m0.2646 6.6149h40.748" stroke="#7b8694"/>
  <path d="m103.2 0.26455v6.3503" stroke="#6f8ce9"/>
  <path d="m0.1323 0.26455v6.3503" stroke="#7b8694"/>
 </g>
 <g stroke-width=".2646">
  <g fill="#e8eaec" stroke-linecap="round" aria-label="Transition">
   <path d="m45.882 4.4245h0.26354v-1.8606h0.63186v-0.22226h-1.5272v0.22226h0.63186z"/>
   <path d="m46.97 4.4245h0.26036v-0.99065c0.10478-0.26036 0.26036-0.35562 0.39054-0.35562 0.0635 0 0.09843 0.00953 0.14923 0.025401l0.0508-0.22861c-0.0508-0.022226-0.09843-0.031751-0.16511-0.031751-0.17463 0-0.33339 0.12383-0.43817 0.31751h-0.0095l-0.02223-0.27941h-0.21591z"/>
   <path d="m47.917 4.0244c0 0.27624 0.19368 0.43817 0.45405 0.43817 0.19051 0 0.36197-0.1016 0.5112-0.22226h0.0063l0.02223 0.18416h0.21591v-0.94619c0-0.38419-0.15876-0.63503-0.5366-0.63503-0.24766 0-0.46357 0.10796-0.60645 0.20003l0.10478 0.18098c0.12066-0.082554 0.27941-0.16511 0.4604-0.16511 0.25084 0 0.31752 0.19051 0.31752 0.38737-0.65726 0.073028-0.94937 0.24131-0.94937 0.57788zm0.25719-0.019051c0-0.19686 0.17463-0.32387 0.69218-0.38737v0.42865c-0.14923 0.13336-0.27306 0.20638-0.4223 0.20638-0.15241 0-0.26989-0.073028-0.26989-0.24766z"/>
   <path d="m49.618 4.4245h0.26036v-1.1177c0.15558-0.15558 0.26354-0.23814 0.4223-0.23814 0.20321 0 0.29211 0.12383 0.29211 0.41277v0.94302h0.26036v-0.97795c0-0.39372-0.14606-0.60328-0.46992-0.60328-0.21274 0-0.37149 0.11431-0.51755 0.26036h-0.0095l-0.02223-0.22226h-0.21591z"/>
   <path d="m51.183 4.2498c0.14606 0.12066 0.35562 0.21274 0.5747 0.21274 0.36514 0 0.56518-0.20956 0.56518-0.4604 0-0.29211-0.24766-0.38419-0.46992-0.46675-0.17463-0.066678-0.34292-0.12383-0.34292-0.26671 0-0.11748 0.0889-0.22226 0.28259-0.22226 0.13653 0 0.24766 0.057153 0.35244 0.13653l0.12383-0.16511c-0.11748-0.095255-0.28576-0.17463-0.47945-0.17463-0.33339 0-0.53025 0.19051-0.53025 0.43817 0 0.26036 0.24131 0.36514 0.4604 0.44452 0.16828 0.063503 0.35244 0.13336 0.35244 0.29211 0 0.13336-0.1016 0.24131-0.30481 0.24131-0.18416 0-0.32069-0.076204-0.45405-0.18416z"/>
   <path d="m52.821 2.5638c0.1016 0 0.18098-0.069853 0.18098-0.16828 0-0.1016-0.07938-0.16828-0.18098-0.16828s-0.18098 0.066678-0.18098 0.16828c0 0.09843 0.07938 0.16828 0.18098 0.16828zm-0.13336 1.8606h0.26036v-1.5431h-0.26036z"/>
   <path d="m53.513 3.9482c0 0.30481 0.11113 0.51437 0.44135 0.51437 0.09525 0 0.20003-0.028576 0.28576-0.057153l-0.0508-0.19686c-0.0508 0.019051-0.12066 0.041277-0.17463 0.041277-0.17781 0-0.23814-0.10796-0.23814-0.29846v-0.85729h0.41594v-0.21274h-0.41595v-0.43182h-0.21908l-0.03175 0.43182-0.24131 0.015876v0.19686h0.22861z"/>
   <path d="m54.675 2.5638c0.1016 0 0.18098-0.069853 0.18098-0.16828 0-0.1016-0.07938-0.16828-0.18098-0.16828-0.1016 0-0.18098 0.066678-0.18098 0.16828 0 0.09843 0.07938 0.16828 0.18098 0.16828zm-0.13336 1.8606h0.26036v-1.5431h-0.26036z"/>
   <path d="m55.209 3.6561c0 0.5112 0.33657 0.80649 0.71441 0.80649 0.37784 0 0.71441-0.29529 0.71441-0.80649 0-0.51755-0.33657-0.81284-0.71441-0.81284-0.37784 0-0.71441 0.29529-0.71441 0.81284zm0.26989 0c0-0.35562 0.18098-0.59693 0.44452-0.59693 0.26671 0 0.44452 0.24131 0.44452 0.59693 0 0.35244-0.17781 0.59058-0.44452 0.59058-0.26354 0-0.44452-0.23814-0.44452-0.59058z"/>
   <path d="m57.047 4.4245h0.26036v-1.1177c0.15558-0.15558 0.26354-0.23814 0.4223-0.23814 0.20321 0 0.29211 0.12383 0.29211 0.41277v0.94302h0.26036v-0.97795c0-0.39372-0.14606-0.60328-0.46992-0.60328-0.21274 0-0.37149 0.11431-0.51755 0.26036h-0.0095l-0.02223-0.22226h-0.21591z"/>
  </g>
  <path d="m41.145 0.26455v6.3503" fill="none" stroke="#7b8694" stroke-dasharray="0.793788, 0.793788" stroke-linecap="square" stroke-miterlimit="40"/>
  <path d="m62.312 0.26455v6.3503" fill="none" stroke="#6f8ce9" stroke-dasharray="0.793788, 0.793788" stroke-linecap="square" stroke-miterlimit="40"/>
  <g fill="#e8eaec" stroke-linecap="round" aria-label="Song 2">
   <path d="m78.454 4.1546c0.18098 0.18733 0.435 0.30799 0.72711 0.30799 0.43817 0 0.71123-0.26354 0.71123-0.59375 0-0.30799-0.18733-0.45087-0.42864-0.55565l-0.29846-0.12701c-0.16193-0.069853-0.34609-0.14606-0.34609-0.34609 0-0.18733 0.15558-0.30481 0.39054-0.30481 0.19051 0 0.34609 0.076204 0.4731 0.19686l0.13971-0.17146c-0.14606-0.15241-0.36514-0.25719-0.6128-0.25719-0.37784 0-0.65726 0.23496-0.65726 0.55248 0 0.30481 0.22861 0.45405 0.4223 0.5366l0.29846 0.13018c0.19686 0.088904 0.34927 0.15558 0.34927 0.36832 0 0.20321-0.16193 0.33974-0.435 0.33974-0.21909 0-0.42547-0.10478-0.5747-0.26036z"/>
   <path d="m80.154 3.6561c0 0.5112 0.33657 0.80649 0.71441 0.80649 0.37784 0 0.71441-0.29529 0.71441-0.80649 0-0.51755-0.33657-0.81284-0.71441-0.81284-0.37784 0-0.71441 0.29529-0.71441 0.81284zm0.26989 0c0-0.35562 0.18098-0.59693 0.44452-0.59693 0.26671 0 0.44452 0.24131 0.44452 0.59693 0 0.35244-0.17781 0.59058-0.44452 0.59058-0.26354 0-0.44452-0.23814-0.44452-0.59058z"/>
   <path d="m81.992 4.4245h0.26036v-1.1177c0.15558-0.15558 0.26354-0.23814 0.42229-0.23814 0.20321 0 0.29211 0.12383 0.29211 0.41277v0.94302h0.26036v-0.97795c0-0.39372-0.14606-0.60328-0.46992-0.60328-0.21274 0-0.37149 0.11431-0.51755 0.26036h-0.0095l-0.02223-0.22226h-0.21591z"/>
   <path d="m83.84 4.6848c0-0.088904 0.04763-0.18098 0.15876-0.26036 0.06668 0.019051 0.13971 0.025401 0.20004 0.025401h0.26671c0.20004 0 0.31116 0.047627 0.31116 0.19051 0 0.16193-0.19368 0.31434-0.48897 0.31434-0.27941 0-0.4477-0.10478-0.4477-0.26989zm-0.22861 0.034927c0 0.26671 0.26036 0.41594 0.6382 0.41594 0.47945 0 0.78109-0.24766 0.78109-0.53343 0-0.25719-0.18098-0.36832-0.53978-0.36832h-0.29846c-0.20956 0-0.27306-0.069853-0.27306-0.16828 0-0.085729 0.04445-0.13653 0.09843-0.18416 0.06985 0.034927 0.15558 0.053978 0.23179 0.053978 0.31434 0 0.56518-0.20638 0.56518-0.5366 0-0.13018-0.05398-0.24766-0.12701-0.31752h0.31752v-0.20004h-0.5366c-0.05715-0.022226-0.13336-0.038102-0.21908-0.038102-0.31434 0-0.58105 0.21274-0.58105 0.5493 0 0.18416 0.09843 0.33339 0.20003 0.41594v0.012701c-0.07938 0.053978-0.16828 0.15558-0.16828 0.28576 0 0.12066 0.06033 0.20321 0.13653 0.25084v0.012701c-0.13971 0.095254-0.22544 0.21908-0.22544 0.34927zm0.6382-0.9589c-0.17781 0-0.32704-0.14288-0.32704-0.36832 0-0.22544 0.14606-0.35879 0.32704-0.35879 0.18098 0 0.32704 0.13336 0.32704 0.35879 0 0.22544-0.14923 0.36832-0.32704 0.36832z"/>
   <path d="m85.834 4.4245h1.3082v-0.22544h-0.5874c-0.10478 0-0.22861 0.00953-0.33974 0.019051 0.47945-0.50167 0.82554-0.87952 0.82554-1.2605 0-0.35879-0.23179-0.59693-0.60645-0.59693-0.26354 0-0.44452 0.12383-0.6128 0.30799l0.14923 0.14923c0.11748-0.13653 0.26354-0.24449 0.43182-0.24449 0.25719 0 0.38419 0.16511 0.38419 0.39689 0 0.32704-0.34292 0.69218-0.95254 1.2986z"/>
  </g>
 </g>
 <g fill="none" stroke-linecap="square" stroke-miterlimit="40" stroke-width=".2646">
  <path d="m41.012 0.13225h21.432" stroke="#7b8694"/>
  <path d="m41.012 6.6149h21.432" stroke="#7b8694"/>
  <path d="m62.445 0.13225h40.748" stroke="#6f8ce9"/>
  <path d="m62.445 6.6149h40.748" stroke="#6f8ce9"/>
 </g>
</svg>
