<?xml version="1.0" encoding="UTF-8"?>
<svg width="301.31" height="25.5" version="1.1" viewBox="0 0 79.725 6.747" xmlns="http://www.w3.org/2000/svg" xmlns:cc="http://creativecommons.org/ns#" xmlns:dc="http://purl.org/dc/elements/1.1/" xmlns:rdf="http://www.w3.org/1999/02/22-rdf-syntax-ns#">
 <metadata>
  <rdf:RDF>
   <cc:Work rdf:about="">
    <dc:format>image/svg+xml</dc:format>
    <dc:type rdf:resource="http://purl.org/dc/dcmitype/StillImage"/>
    <dc:title/>
   </cc:Work>
  </rdf:RDF>
 </metadata>
 <g stroke-linecap="round" stroke-width=".26459">
  <path d="m41.872 0.13226h-41.739v6.4825h32.214l15.28-3.2412z" fill="#2f3744" stroke="#7b8694"/>
  <g fill="#e8eaec" aria-label="Song 1">
   <path d="m17.68 4.1545c0.18098 0.18733 0.43499 0.30798 0.7271 0.30798 0.43816 0 0.71122-0.26353 0.71122-0.59374 0-0.30798-0.18733-0.45086-0.42864-0.55564l-0.29846-0.127c-0.16193-0.069852-0.34609-0.14605-0.34609-0.34609 0-0.18733 0.15558-0.30481 0.39054-0.30481 0.19051 0 0.34609 0.076202 0.47309 0.19686l0.1397-0.17146c-0.14605-0.1524-0.36514-0.25718-0.61279-0.25718-0.37784 0-0.65725 0.23496-0.65725 0.55247 0 0.30481 0.22861 0.45404 0.42229 0.53659l0.29846 0.13018c0.19686 0.088903 0.34926 0.15558 0.34926 0.36831 0 0.20321-0.16193 0.33974-0.43499 0.33974-0.21908 0-0.42546-0.10478-0.57469-0.26036z"/>
   <path d="m19.379 3.656c0 0.51119 0.33656 0.80648 0.7144 0.80648s0.7144-0.29528 0.7144-0.80648c0-0.51754-0.33656-0.81283-0.7144-0.81283s-0.7144 0.29528-0.7144 0.81283zm0.26988 0c0-0.35561 0.18098-0.59692 0.44451-0.59692 0.26671 0 0.44451 0.24131 0.44451 0.59692 0 0.35244-0.17781 0.59057-0.44451 0.59057-0.26353 0-0.44451-0.23813-0.44451-0.59057z"/>
   <path d="m21.218 4.4244h0.26036v-1.1176c0.15558-0.15558 0.26353-0.23813 0.42229-0.23813 0.20321 0 0.29211 0.12383 0.29211 0.41276v0.943h0.26036v-0.97793c0-0.39371-0.14606-0.60327-0.46992-0.60327-0.21273 0-0.37149 0.1143-0.51754 0.26036h-0.0095l-0.02222-0.22226h-0.21591z"/>
   <path d="m23.065 4.6848c0-0.088903 0.04763-0.18098 0.15876-0.26036 0.06668 0.019051 0.1397 0.025401 0.20003 0.025401h0.26671c0.20003 0 0.31116 0.047626 0.31116 0.19051 0 0.16193-0.19368 0.31433-0.48896 0.31433-0.27941 0-0.44769-0.10478-0.44769-0.26988zm-0.22861 0.034926c0 0.26671 0.26036 0.41594 0.6382 0.41594 0.47944 0 0.78108-0.24766 0.78108-0.53342 0-0.25718-0.18098-0.36831-0.53977-0.36831h-0.29846c-0.20956 0-0.27306-0.069852-0.27306-0.16828 0-0.085728 0.04445-0.13653 0.09843-0.18416 0.06985 0.034926 0.15558 0.053977 0.23178 0.053977 0.31434 0 0.56517-0.20638 0.56517-0.53659 0-0.13018-0.05398-0.24766-0.127-0.31751h0.31751v-0.20003h-0.53659c-0.05715-0.022226-0.13335-0.038101-0.21908-0.038101-0.31434 0-0.58104 0.21273-0.58104 0.54929 0 0.18416 0.09843 0.33339 0.20003 0.41594v0.0127c-0.07938 0.053977-0.16828 0.15558-0.16828 0.28576 0 0.12065 0.06033 0.20321 0.13653 0.25083v0.0127c-0.1397 0.095253-0.22543 0.21908-0.22543 0.34926zm0.6382-0.95888c-0.1778 0-0.32704-0.14288-0.32704-0.36831s0.14606-0.35879 0.32704-0.35879c0.18098 0 0.32704 0.13335 0.32704 0.35879s-0.14923 0.36831-0.32704 0.36831z"/>
   <path d="m25.183 4.4244h1.143v-0.21591h-0.41911v-1.8098h-0.20003c-0.11113 0.066677-0.24448 0.11748-0.42864 0.14923v0.16828h0.36831v1.4923h-0.46356z"/>
  </g>
  <path d="m41.822 0.13226h37.77v6.4825h-47.296" fill="#2f3744" stroke="#6f8ce9"/>
  <g fill="#e8eaec" aria-label="Song 2">
   <path d="m58.956 4.1545c0.18098 0.18733 0.43499 0.30798 0.7271 0.30798 0.43816 0 0.71122-0.26353 0.71122-0.59374 0-0.30798-0.18733-0.45086-0.42864-0.55564l-0.29846-0.127c-0.16193-0.069852-0.34609-0.14605-0.34609-0.34609 0-0.18733 0.15558-0.30481 0.39054-0.30481 0.19051 0 0.34609 0.076202 0.47309 0.19686l0.1397-0.17146c-0.14606-0.1524-0.36514-0.25718-0.61279-0.25718-0.37784 0-0.65725 0.23496-0.65725 0.55247 0 0.30481 0.22861 0.45404 0.42229 0.53659l0.29846 0.13018c0.19686 0.088903 0.34926 0.15558 0.34926 0.36831 0 0.20321-0.16193 0.33974-0.43499 0.33974-0.21908 0-0.42546-0.10478-0.57469-0.26036z"/>
   <path d="m60.656 3.656c0 0.51119 0.33656 0.80648 0.7144 0.80648 0.37784 0 0.7144-0.29528 0.7144-0.80648 0-0.51754-0.33656-0.81283-0.7144-0.81283-0.37784 0-0.7144 0.29528-0.7144 0.81283zm0.26988 0c0-0.35561 0.18098-0.59692 0.44451-0.59692 0.26671 0 0.44451 0.24131 0.44451 0.59692 0 0.35244-0.17781 0.59057-0.44451 0.59057-0.26353 0-0.44451-0.23813-0.44451-0.59057z"/>
   <path d="m62.494 4.4244h0.26036v-1.1176c0.15558-0.15558 0.26353-0.23813 0.42229-0.23813 0.20321 0 0.29211 0.12383 0.29211 0.41276v0.943h0.26036v-0.97793c0-0.39371-0.14605-0.60327-0.46991-0.60327-0.21273 0-0.37149 0.1143-0.51754 0.26036h-0.0095l-0.02223-0.22226h-0.21593z"/>
   <path d="m64.342 4.6848c0-0.088903 0.04763-0.18098 0.15876-0.26036 0.06668 0.019051 0.1397 0.025401 0.20003 0.025401h0.26671c0.20003 0 0.31116 0.047626 0.31116 0.19051 0 0.16193-0.19368 0.31433-0.48897 0.31433-0.27941 0-0.44769-0.10478-0.44769-0.26988zm-0.22861 0.034926c0 0.26671 0.26036 0.41594 0.6382 0.41594 0.47944 0 0.78108-0.24766 0.78108-0.53342 0-0.25718-0.18098-0.36831-0.53977-0.36831h-0.29846c-0.20956 0-0.27306-0.069852-0.27306-0.16828 0-0.085728 0.04445-0.13653 0.09843-0.18416 0.06985 0.034926 0.15558 0.053977 0.23178 0.053977 0.31434 0 0.56517-0.20638 0.56517-0.53659 0-0.13018-0.05398-0.24766-0.127-0.31751h0.31751v-0.20003h-0.53659c-0.05715-0.022226-0.13335-0.038101-0.21908-0.038101-0.31434 0-0.58104 0.21273-0.58104 0.54929 0 0.18416 0.09843 0.33339 0.20003 0.41594v0.0127c-0.07938 0.053977-0.16828 0.15558-0.16828 0.28576 0 0.12065 0.06033 0.20321 0.13653 0.25083v0.0127c-0.1397 0.095253-0.22543 0.21908-0.22543 0.34926zm0.6382-0.95888c-0.17781 0-0.32704-0.14288-0.32704-0.36831s0.14605-0.35879 0.32704-0.35879 0.32704 0.13335 0.32704 0.35879-0.14923 0.36831-0.32704 0.36831z"/>
   <path d="m66.336 4.4244h1.3081v-0.22543h-0.58739c-0.10478 0-0.22861 0.00953-0.33974 0.019051 0.47944-0.50167 0.82553-0.8795 0.82553-1.2605 0-0.35879-0.23178-0.59692-0.60644-0.59692-0.26353 0-0.44451 0.12383-0.61279 0.30798l0.14923 0.14923c0.11748-0.13653 0.26353-0.24448 0.43181-0.24448 0.25718 0 0.38419 0.16511 0.38419 0.39689 0 0.32704-0.34291 0.69217-0.95253 1.2986z"/>
  </g>
  <path d="m41.979 0.17666-9.8808 6.3719 7.7641 0.0217" fill="#2f3744" stroke="#6f8ce9"/>
 </g>
</svg>
