<?xml version="1.0" encoding="UTF-8"?>
<svg width="653.63" height="305.06" version="1.1" viewBox="0 0 172.94 80.715" xmlns="http://www.w3.org/2000/svg" xmlns:cc="http://creativecommons.org/ns#" xmlns:dc="http://purl.org/dc/elements/1.1/" xmlns:rdf="http://www.w3.org/1999/02/22-rdf-syntax-ns#">
 <metadata>
  <rdf:RDF>
   <cc:Work rdf:about="">
    <dc:format>image/svg+xml</dc:format>
    <dc:type rdf:resource="http://purl.org/dc/dcmitype/StillImage"/>
    <dc:title/>
   </cc:Work>
  </rdf:RDF>
 </metadata>
 <g transform="matrix(7.2627 0 0 7.2627 -682.16 -695.34)" stroke-width=".13769">
  <rect x="94.208" y="96.454" width="23.308" height="9.7115" fill="#1d232d" style="paint-order:normal"/>
  <g fill="#7b8694">
   <path d="m94.596 96.26h1.1654v0.19408h-1.1654z"/>
   <path d="m96.538 96.26h1.1654v0.19408h-1.1654z"/>
   <path d="m98.481 96.26h1.1654v0.19408h-1.1654z"/>
   <path d="m100.42 96.26h1.1654v0.19408h-1.1654z"/>
   <path d="m102.37 96.26h1.1654v0.19408h-1.1654z"/>
   <path d="m104.31 96.26h1.1654v0.19408h-1.1654z"/>
   <path d="m106.25 96.26h1.1654v0.19408h-1.1654z"/>
   <path d="m108.19 96.26h1.1654v0.19408h-1.1654z"/>
   <path d="m110.13 96.26h1.1654v0.19408h-1.1654z"/>
   <path d="m112.08 96.26h1.1654v0.19408h-1.1654z"/>
   <path d="m114.02 96.26h1.1654v0.19408h-1.1654z"/>
   <path d="m115.96 96.26h1.1654v0.19408h-1.1654z"/>
   <path d="m115.96 106.17h1.1654v0.19405h-1.1654z"/>
   <path d="m114.02 106.17h1.1654v0.19405h-1.1654z"/>
   <path d="m112.08 106.17h1.1654v0.19405h-1.1654z"/>
   <path d="m110.13 106.17h1.1654v0.19405h-1.1654z"/>
   <path d="m108.19 106.17h1.1654v0.19405h-1.1654z"/>
   <path d="m106.25 106.17h1.1654v0.19405h-1.1654z"/>
   <path d="m104.31 106.17h1.1654v0.19405h-1.1654z"/>
   <path d="m102.37 106.17h1.1654v0.19405h-1.1654z"/>
   <path d="m100.42 106.17h1.1654v0.19405h-1.1654z"/>
   <path d="m98.481 106.17h1.1654v0.19405h-1.1654z"/>
   <path d="m96.538 106.17h1.1654v0.19405h-1.1654z"/>
   <path d="m94.596 106.17h1.1654v0.19405h-1.1654z"/>
   <g stroke-miterlimit="40" stroke-width=".027538">
    <path d="m100.52 99.572h2.6426l1.6504 1.616-1.6086 1.6086h-2.7187l1.6123-1.6123z"/>
    <path d="m103.8 99.572h2.6426l1.6504 1.616-1.6086 1.6086h-2.7187l1.6123-1.6123z"/>
    <path d="m107.08 99.572h2.6426l1.6504 1.616-1.6086 1.6086h-2.7187l1.6123-1.6123z"/>
    <rect x="109.41" y="101.52" width="3.2648" height="3.758"/>
   </g>
  </g>
  <rect x="109.41" y="101.52" width="3.2648" height=".88913" fill="#535e70" stroke-miterlimit="40" stroke-width=".027538"/>
  <g fill="#d2d6dc" stroke-miterlimit="40" stroke-width=".027538">
   <rect transform="scale(1,-1)" x="109.41" y="-103.37" width="1.4587" height=".41678"/>
   <rect transform="scale(1,-1)" x="109.41" y="-104.1" width="1.4587" height=".41678"/>
   <rect transform="scale(1,-1)" x="109.41" y="-104.83" width="1.4587" height=".41678"/>
   <rect transform="scale(1,-1)" x="111.05" y="-104.83" width=".37813" height=".41678"/>
   <rect transform="scale(1,-1)" x="111.05" y="-104.1" width=".37813" height=".41678"/>
   <rect transform="scale(1,-1)" x="111.05" y="-103.37" width=".37813" height=".41678"/>
  </g>
 </g>
</svg>
