<?xml version="1.0" encoding="UTF-8"?>
<svg width="96.113mm" height="92.905mm" version="1.1" viewBox="0 0 96.113 92.905" xmlns="http://www.w3.org/2000/svg" xmlns:cc="http://creativecommons.org/ns#" xmlns:dc="http://purl.org/dc/elements/1.1/" xmlns:rdf="http://www.w3.org/1999/02/22-rdf-syntax-ns#">
 <metadata>
  <rdf:RDF>
   <cc:Work rdf:about="">
    <dc:format>image/svg+xml</dc:format>
    <dc:type rdf:resource="http://purl.org/dc/dcmitype/StillImage"/>
    <dc:title/>
   </cc:Work>
  </rdf:RDF>
 </metadata>
 <g transform="translate(-81.36 53.883)">
  <g>
   <g fill="#e8eaec" stroke-linecap="round" stroke-width=".26458" aria-label="More Visible">
    <path d="m127.06-51.113h0.28522v-1.3372c0-0.21484-0.0222-0.50377-0.037-0.71861h0.0148l0.19262 0.54081 0.46673 1.2705h0.1778l0.46672-1.2705 0.19262-0.54081h0.0148c-0.0148 0.21484-0.0408 0.50377-0.0408 0.71861v1.3372h0.29263v-2.4299h-0.36301l-0.46672 1.3039-0.1704 0.49636h-0.0148l-0.1741-0.49636-0.47043-1.3039h-0.36671z"/>
    <path d="m129.59-52.01c0 0.59637 0.39264 0.94086 0.83344 0.94086 0.44079 0 0.83344-0.34449 0.83344-0.94086 0-0.60378-0.39265-0.94827-0.83344-0.94827-0.4408 0-0.83344 0.34449-0.83344 0.94827zm0.31485 0c0-0.41487 0.21114-0.69638 0.51859-0.69638 0.31115 0 0.51858 0.28152 0.51858 0.69638 0 0.41116-0.20743 0.68898-0.51858 0.68898-0.30745 0-0.51859-0.27781-0.51859-0.68898z"/>
    <path d="m131.73-51.113h0.30374v-1.1557c0.12224-0.30374 0.30374-0.41487 0.45561-0.41487 0.0741 0 0.11483 0.01111 0.1741 0.02963l0.0593-0.2667c-0.0593-0.02593-0.11483-0.03704-0.19262-0.03704-0.20373 0-0.38894 0.14446-0.51118 0.37042h-0.0111l-0.0259-0.32597h-0.25188z"/>
    <path d="m132.85-52.01c0 0.58896 0.38153 0.94086 0.86307 0.94086 0.24448 0 0.4371-0.0852 0.59267-0.18521l-0.10742-0.20003c-0.13335 0.0852-0.27781 0.14076-0.4482 0.14076-0.34449 0-0.57785-0.24448-0.60008-0.63341h1.215c7e-3 -0.04445 0.0111-0.10372 0.0111-0.16669 0-0.51488-0.25929-0.84455-0.71861-0.84455-0.41116 0-0.80751 0.3593-0.80751 0.94827zm0.29634-0.13705c0.037-0.36301 0.2667-0.57044 0.51858-0.57044 0.28152 0 0.4445 0.20373 0.4445 0.57044z"/>
    <path d="m136.03-51.113h0.35931l0.77047-2.4299h-0.31486l-0.38894 1.3113c-0.0815 0.28892-0.14446 0.51858-0.23336 0.8038h-0.0148c-0.0889-0.28522-0.14816-0.51488-0.23336-0.8038l-0.39264-1.3113h-0.32597z"/>
    <path d="m137.61-53.284c0.11853 0 0.21113-0.08149 0.21113-0.19632 0-0.11853-0.0926-0.19632-0.21113-0.19632-0.11854 0-0.21114 0.07779-0.21114 0.19632 0 0.11483 0.0926 0.19632 0.21114 0.19632zm-0.15558 2.1706h0.30374v-1.8002h-0.30374z"/>
    <path d="m138.16-51.317c0.17039 0.14076 0.41487 0.24818 0.67045 0.24818 0.42598 0 0.65935-0.24448 0.65935-0.5371 0-0.34078-0.28893-0.4482-0.54822-0.54451-0.20373-0.07779-0.40005-0.14446-0.40005-0.31115 0-0.13705 0.10372-0.25929 0.32967-0.25929 0.15928 0 0.28892 0.06668 0.41116 0.15928l0.14447-0.19262c-0.13706-0.11112-0.33338-0.20373-0.55933-0.20373-0.38894 0-0.6186 0.22225-0.6186 0.51118 0 0.30374 0.28152 0.42598 0.5371 0.51858 0.19632 0.07408 0.41117 0.15558 0.41117 0.34078 0 0.15558-0.11854 0.28152-0.3556 0.28152-0.21485 0-0.37412-0.0889-0.5297-0.21484z"/>
    <path d="m140.07-53.284c0.11854 0 0.21114-0.08149 0.21114-0.19632 0-0.11853-0.0926-0.19632-0.21114-0.19632-0.11853 0-0.21114 0.07779-0.21114 0.19632 0 0.11483 0.0926 0.19632 0.21114 0.19632zm-0.15557 2.1706h0.30374v-1.8002h-0.30374z"/>
    <path d="m140.83-51.113h0.24447l0.0259-0.1778h0.0111c0.15928 0.14076 0.34819 0.22225 0.51488 0.22225 0.41116 0 0.77787-0.3593 0.77787-0.9742 0-0.55562-0.24818-0.91493-0.7149-0.91493-0.20003 0-0.40005 0.10742-0.56304 0.25188l7e-3 -0.32597v-0.71861h-0.30374zm0.30374-0.40005v-0.94456c0.17039-0.15928 0.32967-0.24448 0.48154-0.24448 0.34079 0 0.47414 0.2667 0.47414 0.66305 0 0.4445-0.21855 0.7149-0.51488 0.7149-0.11854 0-0.28152-0.05186-0.4408-0.18891z"/>
    <path d="m142.89-51.476c0 0.263 0.0926 0.40746 0.32226 0.40746 0.0815 0 0.13335-0.01111 0.1741-0.02963l-0.0408-0.22966c-0.0333 0.0074-0.0481 0.0074-0.0667 0.0074-0.0445 0-0.0852-0.03704-0.0852-0.13335v-2.2966h-0.30374z"/>
    <path d="m143.7-52.01c0 0.58896 0.38153 0.94086 0.86308 0.94086 0.24447 0 0.43709-0.0852 0.59266-0.18521l-0.10742-0.20003c-0.13335 0.0852-0.27781 0.14076-0.4482 0.14076-0.34449 0-0.57785-0.24448-0.60008-0.63341h1.215c7e-3 -0.04445 0.0111-0.10372 0.0111-0.16669 0-0.51488-0.25929-0.84455-0.71861-0.84455-0.41116 0-0.80751 0.3593-0.80751 0.94827zm0.29634-0.13705c0.037-0.36301 0.2667-0.57044 0.51858-0.57044 0.28152 0 0.4445 0.20373 0.4445 0.57044z"/>
   </g>
   <path transform="matrix(.26454 .0045271 -.0045271 .26454 70.918 -367.35)" d="m347.96 1471.6-150.49 3.9408-50.253-141.91 119.44-91.647 124.07 85.27z" fill="#6f8ce9"/>
   <rect transform="rotate(26.491)" x="74.722" y="-70.59" width="24.322" height="24.322" fill="#c9d4fb"/>
  </g>
  <g fill="none" stroke="#4d6fdc" stroke-miterlimit="40">
   <path d="m87.78-8.2217 31.75-10.583" stroke-width=".52917"/>
   <path d="m98.363-29.388 10.583 31.75" stroke-width=".52917"/>
   <path d="m103.65-14.307 33.073 10.054" stroke-width="1.0583"/>
   <path d="m135.93-36.003 0.79375 31.75 31.485-10.319" stroke-width="1.0583"/>
  </g>
  <circle cx="168.21" cy="-14.572" r="9.2594" fill="#4d6fdc"/>
  <path d="m116.62 23.793 20.108-28.046 19.579 28.31" fill="none" stroke="#4d6fdc" stroke-miterlimit="40" stroke-width="1.0583"/>
  <g>
   <circle cx="136.73" cy="-4.2529" r="10.289" fill="#4d6fdc"/>
   <g fill="#e8eaec" stroke-linecap="round" stroke-width=".26458" aria-label="Game  Elements">
    <path d="m132.41-6.2927c0 0.70232 0.40367 1.1158 0.96815 1.1158 0.2888 0 0.52838-0.11158 0.6695-0.24942v-0.9058h-0.7056v0.22645h0.45618v0.5612c-0.0853 0.078765-0.2363 0.12799-0.39055 0.12799-0.45946 0-0.71544-0.34131-0.71544-0.88282 0-0.53494 0.27896-0.8697 0.71544-0.8697 0.21333 0 0.34788 0.085329 0.45618 0.20019l0.15753-0.17394c-0.12799-0.13127-0.3249-0.26583-0.61699-0.26583-0.57761 0-0.9944 0.42336-0.9944 1.1158z"/>
    <path d="m134.45-5.6298c0 0.28552 0.2002 0.4529 0.46931 0.4529 0.19691 0 0.37413-0.10502 0.52838-0.22973h7e-3l0.023 0.19035h0.22316v-0.978c0-0.39711-0.16409-0.65637-0.55463-0.65637-0.25599 0-0.47915 0.11158-0.62684 0.20676l0.1083 0.18707c0.12471-0.085329 0.28881-0.17066 0.47587-0.17066 0.25927 0 0.32819 0.19691 0.32819 0.40039-0.67935 0.075483-0.98128 0.24942-0.98128 0.5973zm0.26583-0.019691c0-0.20348 0.18051-0.33475 0.71545-0.40039v0.44305c-0.15425 0.13784-0.28224 0.21332-0.43649 0.21332-0.15753 0-0.27896-0.075483-0.27896-0.25599z"/>
    <path d="m136.21-5.2163h0.26911v-1.1552c0.14769-0.16409 0.28225-0.24614 0.40039-0.24614 0.20348 0 0.29865 0.12799 0.29865 0.42664v0.97472h0.26912v-1.1552c0.14768-0.16409 0.27567-0.24614 0.40038-0.24614 0.2002 0 0.29537 0.12799 0.29537 0.42664v0.97472h0.26912v-1.0108c0-0.40695-0.15753-0.62356-0.48572-0.62356-0.19363 0-0.35772 0.12471-0.5251 0.30521-0.0656-0.19035-0.19691-0.30521-0.43977-0.30521-0.19035 0-0.35772 0.11815-0.49556 0.26911h-0.01l-0.023-0.22973h-0.22317z"/>
    <path d="m138.81-6.0105c0 0.52182 0.33804 0.83359 0.76468 0.83359 0.2166 0 0.38726-0.075483 0.5251-0.16409l-0.0952-0.17722c-0.11814 0.075483-0.24614 0.12471-0.3971 0.12471-0.30522 0-0.51197-0.2166-0.53167-0.5612h1.0765c7e-3 -0.039383 0.01-0.091892 0.01-0.14768 0-0.45618-0.22973-0.74827-0.63668-0.74827-0.36429 0-0.71545 0.31834-0.71545 0.84016zm0.26255-0.12143c0.0328-0.32162 0.2363-0.50541 0.45946-0.50541 0.24943 0 0.39383 0.1805 0.39383 0.50541z"/>
    <path d="m130.48-1.0819h1.2734v-0.23301h-0.99768v-0.78108h0.8139v-0.23301h-0.8139v-0.67607h0.96487v-0.22973h-1.2406z"/>
    <path d="m132.18-1.4035c0 0.23301 0.0821 0.36101 0.28553 0.36101 0.0722 0 0.11814-0.00985 0.15424-0.026255l-0.0361-0.20348c-0.0295 0.00656-0.0427 0.00656-0.0591 0.00656-0.0394 0-0.0755-0.032819-0.0755-0.11815v-2.0348h-0.26912z"/>
    <path d="m132.9-1.8761c0 0.52182 0.33804 0.8336 0.76468 0.8336 0.2166 0 0.38726-0.075483 0.5251-0.16409l-0.0952-0.17722c-0.11814 0.075483-0.24614 0.12471-0.3971 0.12471-0.30522 0-0.51197-0.2166-0.53167-0.5612h1.0765c7e-3 -0.039382 0.01-0.091892 0.01-0.14768 0-0.45618-0.22973-0.74827-0.63668-0.74827-0.36429 0-0.71545 0.31834-0.71545 0.84016zm0.26255-0.12143c0.0328-0.32162 0.2363-0.50541 0.45946-0.50541 0.24943 0 0.39383 0.1805 0.39383 0.50541z"/>
    <path d="m134.64-1.0819h0.26911v-1.1552c0.14768-0.16409 0.28224-0.24614 0.40039-0.24614 0.20347 0 0.29865 0.12799 0.29865 0.42664v0.97472h0.26911v-1.1552c0.14768-0.16409 0.27568-0.24614 0.40039-0.24614 0.20019 0 0.29537 0.12799 0.29537 0.42664v0.97472h0.26911v-1.0108c0-0.40695-0.15753-0.62356-0.48572-0.62356-0.19363 0-0.35772 0.12471-0.5251 0.30521-0.0656-0.19035-0.19691-0.30521-0.43977-0.30521-0.19034 0-0.35772 0.11815-0.49556 0.26911h-0.01l-0.023-0.22973h-0.22316z"/>
    <path d="m137.24-1.8761c0 0.52182 0.33803 0.8336 0.76467 0.8336 0.21661 0 0.38726-0.075483 0.5251-0.16409l-0.0952-0.17722c-0.11815 0.075483-0.24614 0.12471-0.39711 0.12471-0.30521 0-0.51197-0.2166-0.53166-0.5612h1.0764c7e-3 -0.039382 0.01-0.091892 0.01-0.14768 0-0.45618-0.22973-0.74827-0.63669-0.74827-0.36428 0-0.71544 0.31834-0.71544 0.84016zm0.26255-0.12143c0.0328-0.32162 0.23629-0.50541 0.45946-0.50541 0.24942 0 0.39382 0.1805 0.39382 0.50541z"/>
    <path d="m138.99-1.0819h0.26911v-1.1552c0.16081-0.16081 0.2724-0.24614 0.43649-0.24614 0.21004 0 0.30193 0.12799 0.30193 0.42664v0.97472h0.26912v-1.0108c0-0.40695-0.15097-0.62356-0.48572-0.62356-0.21989 0-0.38398 0.11815-0.53494 0.26911h-0.01l-0.023-0.22973h-0.22317z"/>
    <path d="m140.83-1.5742c0 0.31506 0.11486 0.53166 0.45618 0.53166 0.0985 0 0.20676-0.029537 0.29537-0.059074l-0.0525-0.20348c-0.0525 0.019691-0.12471 0.042664-0.18051 0.042664-0.18378 0-0.24614-0.11158-0.24614-0.3085v-0.8861h0.42993v-0.21989h-0.42993v-0.44633h-0.22645l-0.0328 0.44633-0.24943 0.016409v0.20348h0.2363z"/>
    <path d="m141.72-1.2624c0.15097 0.12471 0.36757 0.21989 0.59402 0.21989 0.37742 0 0.58418-0.2166 0.58418-0.47587 0-0.30193-0.25599-0.39711-0.48572-0.48243-0.1805-0.068919-0.35444-0.12799-0.35444-0.27568 0-0.12143 0.0919-0.22973 0.29208-0.22973 0.14112 0 0.25599 0.059074 0.36429 0.14112l0.12799-0.17066c-0.12143-0.098456-0.29536-0.1805-0.49556-0.1805-0.3446 0-0.54807 0.19691-0.54807 0.4529 0 0.26911 0.24942 0.37742 0.47587 0.45946 0.17394 0.065637 0.36429 0.13784 0.36429 0.30193 0 0.13784-0.10502 0.24942-0.31506 0.24942-0.19035 0-0.33147-0.078765-0.46931-0.19035z"/>
   </g>
   <circle cx="116.62" cy="23.793" r="9.2594" fill="#4d6fdc"/>
   <circle cx="156.31" cy="23.793" r="9.2594" fill="#4d6fdc"/>
   <g fill="#e8eaec" stroke-linecap="round" stroke-width=".26458" aria-label="Story">
    <path d="m152.44 24.772c0.21113 0.21855 0.50747 0.3593 0.84825 0.3593 0.51118 0 0.82973-0.30745 0.82973-0.69268 0-0.3593-0.21854-0.52599-0.50006-0.64823l-0.34819-0.14817c-0.18891-0.08149-0.40376-0.17039-0.40376-0.40376 0-0.21855 0.18151-0.3556 0.45562-0.3556 0.22225 0 0.40375 0.0889 0.55192 0.22966l0.16298-0.20002c-0.17039-0.1778-0.42598-0.30004-0.7149-0.30004-0.4408 0-0.76677 0.27411-0.76677 0.64453 0 0.3556 0.2667 0.5297 0.49266 0.626l0.34819 0.15187c0.22966 0.10372 0.40746 0.1815 0.40746 0.42968 0 0.23707-0.18891 0.39635-0.50747 0.39635-0.25559 0-0.49636-0.12224-0.67046-0.30374z"/>
    <path d="m154.6 24.531c0 0.3556 0.12965 0.60008 0.51488 0.60008 0.11113 0 0.23337-0.03334 0.33338-0.06668l-0.0593-0.22966c-0.0593 0.02222-0.14076 0.04815-0.20373 0.04815-0.20743 0-0.27781-0.12594-0.27781-0.34819v-1.0001h0.48525v-0.24818h-0.48525v-0.50376h-0.25559l-0.037 0.50377-0.28152 0.01852v0.22966h0.2667z"/>
    <path d="m155.63 24.19c0 0.59637 0.39264 0.94086 0.83343 0.94086 0.4408 0 0.83344-0.34449 0.83344-0.94086 0-0.60378-0.39264-0.94827-0.83344-0.94827-0.44079 0-0.83343 0.34449-0.83343 0.94827zm0.31485 0c0-0.41487 0.21114-0.69638 0.51858-0.69638 0.31116 0 0.51859 0.28152 0.51859 0.69638 0 0.41116-0.20743 0.68898-0.51859 0.68898-0.30744 0-0.51858-0.27781-0.51858-0.68898z"/>
    <path d="m157.78 25.087h0.30374v-1.1557c0.12223-0.30374 0.30374-0.41487 0.45561-0.41487 0.0741 0 0.11483 0.01111 0.1741 0.02963l0.0593-0.2667c-0.0593-0.02593-0.11483-0.03704-0.19261-0.03704-0.20373 0-0.38894 0.14446-0.51118 0.37042h-0.0111l-0.0259-0.32597h-0.25188z"/>
    <path d="m159.02 25.583-0.0593 0.24077c0.0593 0.02223 0.12964 0.03704 0.21113 0.03704 0.36301 0 0.54822-0.2704 0.67416-0.626l0.67787-1.9484h-0.29634l-0.32226 0.99642c-0.0481 0.15928-0.10001 0.34449-0.15187 0.50747h-0.0148c-0.0556-0.16669-0.11853-0.3519-0.17409-0.50747l-0.36672-0.99642h-0.31485l0.72231 1.8039-0.0407 0.13335c-0.0741 0.22225-0.20373 0.38523-0.40746 0.38523-0.0444 0-0.10002-0.01482-0.13706-0.02593z"/>
   </g>
   <circle cx="135.93" cy="-36.003" r="9.2594" fill="#4d6fdc"/>
   <g fill="#e8eaec" stroke-linecap="round" stroke-width=".26458" aria-label="Aesthetics">
    <path d="m128.76-35.963 0.11854-0.37042c0.0852-0.2704 0.16298-0.5371 0.24077-0.81862h0.0148c0.0778 0.28152 0.15558 0.54822 0.24077 0.81862l0.11483 0.37042zm1.0409 0.98901h0.32597l-0.82233-2.4299h-0.34819l-0.82232 2.4299h0.31485l0.23336-0.74083h0.8853z"/>
    <path d="m130.29-35.87c0 0.58896 0.38153 0.94086 0.86307 0.94086 0.24448 0 0.4371-0.0852 0.59267-0.18521l-0.10742-0.20002c-0.13335 0.0852-0.27781 0.14076-0.4482 0.14076-0.34449 0-0.57785-0.24448-0.60008-0.63341h1.215c7e-3 -0.04445 0.0111-0.10372 0.0111-0.16669 0-0.51488-0.25929-0.84455-0.71861-0.84455-0.41116 0-0.80751 0.3593-0.80751 0.94827zm0.29634-0.13705c0.037-0.36301 0.2667-0.57044 0.51858-0.57044 0.28152 0 0.4445 0.20373 0.4445 0.57044z"/>
    <path d="m132.06-35.177c0.1704 0.14076 0.41487 0.24818 0.67046 0.24818 0.42598 0 0.65934-0.24448 0.65934-0.5371 0-0.34078-0.28892-0.4482-0.54822-0.54451-0.20373-0.07779-0.40005-0.14446-0.40005-0.31115 0-0.13706 0.10372-0.25929 0.32967-0.25929 0.15928 0 0.28893 0.06668 0.41117 0.15928l0.14446-0.19262c-0.13705-0.11112-0.33338-0.20373-0.55933-0.20373-0.38894 0-0.6186 0.22225-0.6186 0.51118 0 0.30374 0.28152 0.42598 0.53711 0.51858 0.19632 0.07408 0.41116 0.15558 0.41116 0.34078 0 0.15558-0.11853 0.28152-0.3556 0.28152-0.21484 0-0.37412-0.0889-0.5297-0.21484z"/>
    <path d="m133.87-35.529c0 0.3556 0.12965 0.60008 0.51488 0.60008 0.11112 0 0.23336-0.03334 0.33337-0.06667l-0.0593-0.22966c-0.0593 0.02222-0.14076 0.04815-0.20373 0.04815-0.20744 0-0.27781-0.12594-0.27781-0.34819v-1.0001h0.48524v-0.24818h-0.48524v-0.50377h-0.25559l-0.037 0.50377-0.28152 0.01852v0.22966h0.2667z"/>
    <path d="m135.07-34.974h0.30374v-1.3039c0.1815-0.1815 0.30744-0.27781 0.49265-0.27781 0.23707 0 0.34079 0.14446 0.34079 0.48154v1.1001h0.30374v-1.1409c0-0.45932-0.17039-0.70379-0.54822-0.70379-0.24818 0-0.42968 0.13335-0.60008 0.29633l0.0111-0.37042v-0.71861h-0.30374z"/>
    <path d="m136.95-35.87c0 0.58896 0.38153 0.94086 0.86307 0.94086 0.24448 0 0.43709-0.0852 0.59267-0.18521l-0.10742-0.20002c-0.13335 0.0852-0.27782 0.14076-0.44821 0.14076-0.34449 0-0.57785-0.24448-0.60007-0.63341h1.215c7e-3 -0.04445 0.0111-0.10372 0.0111-0.16669 0-0.51488-0.25929-0.84455-0.71861-0.84455-0.41116 0-0.80751 0.3593-0.80751 0.94827zm0.29633-0.13705c0.037-0.36301 0.2667-0.57044 0.51859-0.57044 0.28151 0 0.4445 0.20373 0.4445 0.57044z"/>
    <path d="m138.93-35.529c0 0.3556 0.12965 0.60008 0.51488 0.60008 0.11112 0 0.23336-0.03334 0.33337-0.06667l-0.0593-0.22966c-0.0593 0.02222-0.14076 0.04815-0.20373 0.04815-0.20744 0-0.27781-0.12594-0.27781-0.34819v-1.0001h0.48524v-0.24818h-0.48524v-0.50377h-0.25559l-0.037 0.50377-0.28152 0.01852v0.22966h0.2667z"/>
    <path d="m140.28-37.144c0.11853 0 0.21114-0.08149 0.21114-0.19632 0-0.11853-0.0926-0.19632-0.21114-0.19632-0.11853 0-0.21114 0.07779-0.21114 0.19632 0 0.11483 0.0926 0.19632 0.21114 0.19632zm-0.15557 2.1706h0.30374v-1.8002h-0.30374z"/>
    <path d="m140.9-35.87c0 0.59637 0.36671 0.94086 0.84455 0.94086 0.21484 0 0.42227-0.0889 0.58526-0.23336l-0.13706-0.20002c-0.10742 0.09631-0.25188 0.1815-0.42227 0.1815-0.32967 0-0.55563-0.27781-0.55563-0.68898 0-0.41487 0.23707-0.69638 0.56304-0.69638 0.14446 0 0.25558 0.06668 0.36301 0.15928l0.15187-0.19632c-0.12224-0.11483-0.28893-0.21484-0.526-0.21484-0.46302 0-0.86677 0.34449-0.86677 0.94827z"/>
    <path d="m142.52-35.177c0.17039 0.14076 0.41487 0.24818 0.67046 0.24818 0.42597 0 0.65934-0.24448 0.65934-0.5371 0-0.34078-0.28893-0.4482-0.54822-0.54451-0.20373-0.07779-0.40005-0.14446-0.40005-0.31115 0-0.13706 0.10372-0.25929 0.32967-0.25929 0.15928 0 0.28893 0.06668 0.41116 0.15928l0.14447-0.19262c-0.13706-0.11112-0.33338-0.20373-0.55933-0.20373-0.38894 0-0.6186 0.22225-0.6186 0.51118 0 0.30374 0.28152 0.42598 0.53711 0.51858 0.19632 0.07408 0.41116 0.15558 0.41116 0.34078 0 0.15558-0.11854 0.28152-0.3556 0.28152-0.21484 0-0.37412-0.0889-0.5297-0.21484z"/>
   </g>
  </g>
  <g fill="#4d6fdc">
   <circle transform="rotate(-18.509)" cx="102.92" cy="19.353" r="9.2594"/>
   <circle transform="rotate(-18.509)" cx="120.48" cy="20.12" r="5.6534"/>
   <circle transform="rotate(-18.509)" cx="102.49" cy="37.582" r="5.6534"/>
   <circle transform="rotate(-18.509)" cx="85.024" cy="20.12" r="5.6534"/>
   <circle transform="rotate(-18.509)" cx="102.49" cy="1.5987" r="5.6534"/>
  </g>
  <g fill="#e8eaec" stroke-linecap="round" stroke-width=".26458">
   <g aria-label="Less Visible">
    <path d="m127.61 38.845h1.3705v-0.263h-1.0594v-2.1669h-0.31115z"/>
    <path d="m129.19 37.949c0 0.58896 0.38153 0.94086 0.86307 0.94086 0.24447 0 0.43709-0.0852 0.59267-0.18521l-0.10742-0.20002c-0.13335 0.08519-0.27782 0.14076-0.44821 0.14076-0.34449 0-0.57785-0.24448-0.60007-0.63341h1.215c7e-3 -0.04445 0.0111-0.10372 0.0111-0.16669 0-0.51488-0.2593-0.84455-0.71861-0.84455-0.41117 0-0.80751 0.3593-0.80751 0.94827zm0.29633-0.13705c0.037-0.36301 0.2667-0.57044 0.51859-0.57044 0.28151 0 0.4445 0.20373 0.4445 0.57044z"/>
    <path d="m130.96 38.641c0.17039 0.14076 0.41487 0.24818 0.67045 0.24818 0.42598 0 0.65935-0.24448 0.65935-0.5371 0-0.34078-0.28893-0.4482-0.54822-0.54451-0.20373-0.07779-0.40005-0.14446-0.40005-0.31115 0-0.13705 0.10371-0.25929 0.32967-0.25929 0.15928 0 0.28892 0.06667 0.41116 0.15928l0.14446-0.19262c-0.13705-0.11112-0.33337-0.20373-0.55933-0.20373-0.38893 0-0.61859 0.22225-0.61859 0.51118 0 0.30374 0.28152 0.42598 0.5371 0.51858 0.19632 0.07408 0.41117 0.15558 0.41117 0.34078 0 0.15558-0.11854 0.28152-0.3556 0.28152-0.21485 0-0.37413-0.0889-0.5297-0.21484z"/>
    <path d="m132.52 38.641c0.17039 0.14076 0.41487 0.24818 0.67046 0.24818 0.42597 0 0.65934-0.24448 0.65934-0.5371 0-0.34078-0.28893-0.4482-0.54822-0.54451-0.20373-0.07779-0.40005-0.14446-0.40005-0.31115 0-0.13705 0.10372-0.25929 0.32967-0.25929 0.15928 0 0.28893 0.06667 0.41116 0.15928l0.14447-0.19262c-0.13706-0.11112-0.33338-0.20373-0.55933-0.20373-0.38894 0-0.6186 0.22225-0.6186 0.51118 0 0.30374 0.28152 0.42598 0.53711 0.51858 0.19632 0.07408 0.41116 0.15558 0.41116 0.34078 0 0.15558-0.11854 0.28152-0.3556 0.28152-0.21484 0-0.37412-0.0889-0.5297-0.21484z"/>
    <path d="m135.48 38.845h0.35931l0.77047-2.4299h-0.31486l-0.38894 1.3113c-0.0815 0.28892-0.14446 0.51858-0.23336 0.8038h-0.0148c-0.0889-0.28522-0.14816-0.51488-0.23336-0.8038l-0.39264-1.3113h-0.32597z"/>
    <path d="m137.06 36.675c0.11853 0 0.21113-0.08149 0.21113-0.19632 0-0.11853-0.0926-0.19632-0.21113-0.19632-0.11854 0-0.21114 0.07779-0.21114 0.19632 0 0.11483 0.0926 0.19632 0.21114 0.19632zm-0.15558 2.1706h0.30374v-1.8002h-0.30374z"/>
    <path d="m137.62 38.641c0.17039 0.14076 0.41487 0.24818 0.67045 0.24818 0.42598 0 0.65935-0.24448 0.65935-0.5371 0-0.34078-0.28893-0.4482-0.54822-0.54451-0.20373-0.07779-0.40005-0.14446-0.40005-0.31115 0-0.13705 0.10371-0.25929 0.32967-0.25929 0.15928 0 0.28892 0.06667 0.41116 0.15928l0.14446-0.19262c-0.13705-0.11112-0.33337-0.20373-0.55932-0.20373-0.38894 0-0.6186 0.22225-0.6186 0.51118 0 0.30374 0.28152 0.42598 0.5371 0.51858 0.19632 0.07408 0.41117 0.15558 0.41117 0.34078 0 0.15558-0.11854 0.28152-0.3556 0.28152-0.21485 0-0.37413-0.0889-0.5297-0.21484z"/>
    <path d="m139.53 36.675c0.11853 0 0.21114-0.08149 0.21114-0.19632 0-0.11853-0.0926-0.19632-0.21114-0.19632-0.11853 0-0.21114 0.07779-0.21114 0.19632 0 0.11483 0.0926 0.19632 0.21114 0.19632zm-0.15557 2.1706h0.30374v-1.8002h-0.30374z"/>
    <path d="m140.28 38.845h0.24447l0.0259-0.1778h0.0111c0.15928 0.14076 0.34819 0.22225 0.51488 0.22225 0.41116 0 0.77787-0.3593 0.77787-0.9742 0-0.55563-0.24818-0.91493-0.7149-0.91493-0.20003 0-0.40005 0.10742-0.56304 0.25188l7e-3 -0.32597v-0.71861h-0.30374zm0.30374-0.40005v-0.94456c0.17039-0.15928 0.32967-0.24448 0.48154-0.24448 0.34079 0 0.47414 0.2667 0.47414 0.66305 0 0.4445-0.21855 0.7149-0.51488 0.7149-0.11854 0-0.28152-0.05186-0.4408-0.18891z"/>
    <path d="m142.34 38.482c0 0.263 0.0926 0.40746 0.32226 0.40746 0.0815 0 0.13335-0.01111 0.17409-0.02963l-0.0407-0.22966c-0.0333 0.0074-0.0482 0.0074-0.0667 0.0074-0.0445 0-0.0852-0.03704-0.0852-0.13335v-2.2966h-0.30374z"/>
    <path d="m143.15 37.949c0 0.58896 0.38153 0.94086 0.86307 0.94086 0.24448 0 0.4371-0.0852 0.59267-0.18521l-0.10742-0.20002c-0.13335 0.08519-0.27781 0.14076-0.4482 0.14076-0.34449 0-0.57785-0.24448-0.60008-0.63341h1.215c7e-3 -0.04445 0.0111-0.10372 0.0111-0.16669 0-0.51488-0.25929-0.84455-0.71861-0.84455-0.41116 0-0.80751 0.3593-0.80751 0.94827zm0.29634-0.13705c0.037-0.36301 0.2667-0.57044 0.51858-0.57044 0.28152 0 0.4445 0.20373 0.4445 0.57044z"/>
   </g>
   <g aria-label="Mechanics">
    <path d="m95.949-13.278h0.28522v-1.3372c0-0.21484-0.02222-0.50377-0.03704-0.71861h0.01482l0.19262 0.54081 0.46672 1.2705h0.1778l0.46672-1.2705 0.19262-0.54081h0.01482c-0.01482 0.21484-0.04075 0.50377-0.04075 0.71861v1.3372h0.29263v-2.4299h-0.36301l-0.46672 1.3039-0.17039 0.49636h-0.01482l-0.1741-0.49636-0.47043-1.3039h-0.36671z"/>
    <path d="m98.474-14.174c0 0.58896 0.38153 0.94086 0.86307 0.94086 0.24448 0 0.43709-0.0852 0.59267-0.18521l-0.10742-0.20002c-0.13335 0.0852-0.27781 0.14076-0.4482 0.14076-0.34449 0-0.57785-0.24448-0.60008-0.63341h1.215c0.0074-0.04445 0.01112-0.10372 0.01112-0.16669 0-0.51488-0.25929-0.84455-0.71861-0.84455-0.41116 0-0.80751 0.3593-0.80751 0.94827zm0.29633-0.13706c0.03704-0.36301 0.2667-0.57044 0.51858-0.57044 0.28152 0 0.4445 0.20373 0.4445 0.57044z"/>
    <path d="m100.31-14.174c0 0.59637 0.36671 0.94086 0.84455 0.94086 0.21484 0 0.42227-0.0889 0.58526-0.23336l-0.13706-0.20002c-0.10742 0.09631-0.25188 0.1815-0.42227 0.1815-0.32968 0-0.55563-0.27781-0.55563-0.68898 0-0.41487 0.23707-0.69638 0.56303-0.69638 0.14447 0 0.25559 0.06668 0.36301 0.15928l0.15187-0.19632c-0.12223-0.11483-0.28892-0.21484-0.52599-0.21484-0.46302 0-0.86677 0.34449-0.86677 0.94827z"/>
    <path d="m102.13-13.278h0.30374v-1.3039c0.18151-0.1815 0.30745-0.27781 0.49266-0.27781 0.23707 0 0.34078 0.14446 0.34078 0.48154v1.1001h0.30374v-1.1409c0-0.45932-0.17039-0.70379-0.54821-0.70379-0.24818 0-0.42969 0.13335-0.60008 0.29633l0.0111-0.37042v-0.71861h-0.30374z"/>
    <path d="m104.06-13.744c0 0.32226 0.22595 0.51118 0.52969 0.51118 0.22225 0 0.42228-0.11853 0.59637-0.25929h7e-3l0.0259 0.21484h0.25188v-1.1038c0-0.4482-0.1852-0.74083-0.626-0.74083-0.28893 0-0.54081 0.12594-0.7075 0.23336l0.12224 0.21114c0.14076-0.09631 0.32597-0.19262 0.53711-0.19262 0.29262 0 0.37041 0.22225 0.37041 0.45191-0.76676 0.0852-1.1075 0.28152-1.1075 0.67416zm0.30003-0.02223c0-0.22966 0.20373-0.37782 0.80751-0.45191v0.50006c-0.17409 0.15558-0.31856 0.24077-0.49265 0.24077-0.1778 0-0.31486-0.0852-0.31486-0.28893z"/>
    <path d="m106.04-13.278h0.30374v-1.3039c0.18151-0.1815 0.30745-0.27781 0.49266-0.27781 0.23706 0 0.34078 0.14446 0.34078 0.48154v1.1001h0.30374v-1.1409c0-0.45932-0.17039-0.70379-0.54822-0.70379-0.24818 0-0.43338 0.13335-0.60378 0.30374h-0.0111l-0.0259-0.25929h-0.25188z"/>
    <path d="m108.23-15.448c0.11854 0 0.21114-0.08149 0.21114-0.19632 0-0.11853-0.0926-0.19632-0.21114-0.19632-0.11853 0-0.21114 0.07779-0.21114 0.19632 0 0.11483 0.0926 0.19632 0.21114 0.19632zm-0.15557 2.1706h0.30374v-1.8002h-0.30374z"/>
    <path d="m108.85-14.174c0 0.59637 0.36671 0.94086 0.84455 0.94086 0.21484 0 0.42228-0.0889 0.58526-0.23336l-0.13705-0.20002c-0.10743 0.09631-0.25189 0.1815-0.42228 0.1815-0.32967 0-0.55563-0.27781-0.55563-0.68898 0-0.41487 0.23707-0.69638 0.56304-0.69638 0.14446 0 0.25559 0.06668 0.36301 0.15928l0.15187-0.19632c-0.12224-0.11483-0.28893-0.21484-0.52599-0.21484-0.46303 0-0.86678 0.34449-0.86678 0.94827z"/>
    <path d="m110.47-13.481c0.17039 0.14076 0.41487 0.24818 0.67046 0.24818 0.42598 0 0.65934-0.24448 0.65934-0.5371 0-0.34078-0.28893-0.4482-0.54822-0.54451-0.20373-0.07779-0.40005-0.14446-0.40005-0.31115 0-0.13705 0.10372-0.25929 0.32967-0.25929 0.15928 0 0.28893 0.06668 0.41116 0.15928l0.14447-0.19262c-0.13706-0.11112-0.33338-0.20373-0.55933-0.20373-0.38894 0-0.6186 0.22225-0.6186 0.51118 0 0.30374 0.28152 0.42598 0.53711 0.51858 0.19632 0.07408 0.41116 0.15558 0.41116 0.34078 0 0.15558-0.11853 0.28152-0.3556 0.28152-0.21484 0-0.37412-0.0889-0.5297-0.21484z"/>
   </g>
   <g aria-label="Space">
    <path d="m93.828-30.481c0.18098 0.18732 0.43498 0.30798 0.72708 0.30798 0.43815 0 0.7112-0.26352 0.7112-0.59372 0-0.30798-0.18732-0.45085-0.42862-0.55562l-0.29845-0.127c-0.16192-0.06985-0.34608-0.14605-0.34608-0.34608 0-0.18732 0.15558-0.3048 0.39052-0.3048 0.1905 0 0.34608 0.0762 0.47308 0.19685l0.1397-0.17145c-0.14605-0.1524-0.36512-0.25718-0.61278-0.25718-0.37782 0-0.65722 0.23495-0.65722 0.55245 0 0.3048 0.2286 0.45402 0.42228 0.53658l0.29845 0.13018c0.19685 0.0889 0.34925 0.15558 0.34925 0.3683 0 0.2032-0.16192 0.33972-0.43498 0.33972-0.21908 0-0.42545-0.10478-0.57468-0.26035z"/>
    <path d="m95.895-30.351c0.14288 0.11112 0.28575 0.1778 0.42862 0.1778 0.35242 0 0.66675-0.30798 0.66675-0.83185 0-0.47942-0.21272-0.7874-0.6096-0.7874-0.18098 0-0.35242 0.09842-0.49212 0.2159h-0.0095l-0.02223-0.1778h-0.2159v2.1939h0.26035v-0.5207zm0.0064-0.2032v-0.80962c0.1524-0.13652 0.28258-0.20955 0.41275-0.20955 0.2921 0 0.4064 0.2286 0.4064 0.56832 0 0.381-0.18732 0.61278-0.44132 0.61278-0.1016 0-0.23812-0.04445-0.37782-0.16192z"/>
    <path d="m97.283-30.611c0 0.27622 0.19368 0.43815 0.45402 0.43815 0.1905 0 0.36195-0.1016 0.51118-0.22225h0.0063l0.02223 0.18415h0.2159v-0.94615c0-0.38418-0.15875-0.635-0.53658-0.635-0.24765 0-0.46355 0.10795-0.60642 0.20002l0.10478 0.18098c0.12065-0.08255 0.2794-0.1651 0.46038-0.1651 0.25082 0 0.3175 0.1905 0.3175 0.38735-0.65722 0.07302-0.94932 0.2413-0.94932 0.57785zm0.25718-0.01905c0-0.19685 0.17462-0.32385 0.69215-0.38735v0.42862c-0.14922 0.13335-0.27305 0.20638-0.42228 0.20638-0.1524 0-0.26988-0.07302-0.26988-0.24765z"/>
    <path d="m98.87-30.979c0 0.51118 0.31432 0.80645 0.7239 0.80645 0.18415 0 0.36195-0.0762 0.50165-0.20002l-0.11747-0.17145c-0.09208 0.08255-0.2159 0.15558-0.36195 0.15558-0.28258 0-0.47625-0.23812-0.47625-0.59055 0-0.3556 0.2032-0.5969 0.4826-0.5969 0.12382 0 0.21908 0.05715 0.31115 0.13652l0.13017-0.16828c-0.10477-0.09842-0.24765-0.18415-0.45085-0.18415-0.39688 0-0.74295 0.29528-0.74295 0.8128z"/>
    <path d="m100.25-30.979c0 0.50482 0.32703 0.80645 0.73978 0.80645 0.20955 0 0.37465-0.07302 0.508-0.15875l-0.0921-0.17145c-0.1143 0.07302-0.23812 0.12065-0.38417 0.12065-0.29528 0-0.4953-0.20955-0.51435-0.54292h1.0414c6e-3 -0.0381 0.01-0.0889 0.01-0.14288 0-0.44132-0.22225-0.7239-0.61595-0.7239-0.35242 0-0.69215 0.30798-0.69215 0.8128zm0.254-0.11748c0.0318-0.31115 0.2286-0.48895 0.4445-0.48895 0.2413 0 0.381 0.17462 0.381 0.48895z"/>
   </g>
   <g aria-label="Objects">
    <path d="m116.73-18.267c0.5207 0 0.889-0.4191 0.889-1.089 0-0.66358-0.3683-1.07-0.889-1.07-0.52388 0-0.89218 0.40322-0.89218 1.07 0 0.66992 0.3683 1.089 0.89218 1.089zm0-0.23178c-0.37465 0-0.61913-0.33655-0.61913-0.85725 0-0.51752 0.24448-0.8382 0.61913-0.8382 0.37147 0 0.61595 0.32068 0.61595 0.8382 0 0.5207-0.24448 0.85725-0.61595 0.85725z"/>
    <path d="m118.03-18.305h0.20955l0.0222-0.1524h0.01c0.13653 0.12065 0.29845 0.1905 0.44133 0.1905 0.35242 0 0.66675-0.30798 0.66675-0.83502 0-0.47625-0.21273-0.78422-0.61278-0.78422-0.17145 0-0.3429 0.09207-0.4826 0.2159l6e-3 -0.2794v-0.61595h-0.26035zm0.26035-0.3429v-0.80962c0.14605-0.13652 0.28258-0.20955 0.41275-0.20955 0.2921 0 0.4064 0.2286 0.4064 0.56832 0 0.381-0.18732 0.61278-0.44132 0.61278-0.1016 0-0.2413-0.04445-0.37783-0.16192z"/>
    <path d="m119.79-18.13c0 0.18732-0.0381 0.30162-0.1905 0.30162-0.054 0-0.10795-0.0127-0.14605-0.0254l-0.054 0.19685c0.054 0.02223 0.13335 0.04128 0.2286 0.04128 0.30797 0 0.42227-0.20002 0.42227-0.51435v-1.7177h-0.26035zm0.13335-2.0352c0.0984 0 0.1778-0.06985 0.1778-0.16828 0-0.1016-0.0794-0.16828-0.1778-0.16828-0.1016 0-0.18097 0.06668-0.18097 0.16828 0 0.09842 0.0794 0.16828 0.18097 0.16828z"/>
    <path d="m120.46-19.073c0 0.50482 0.32703 0.80645 0.73978 0.80645 0.20955 0 0.37465-0.07302 0.508-0.15875l-0.0921-0.17145c-0.1143 0.07302-0.23812 0.12065-0.38417 0.12065-0.29528 0-0.4953-0.20955-0.51435-0.54292h1.0414c6e-3 -0.0381 0.01-0.0889 0.01-0.14288 0-0.44132-0.22225-0.7239-0.61595-0.7239-0.35242 0-0.69215 0.30798-0.69215 0.8128zm0.254-0.11748c0.0318-0.31115 0.2286-0.48895 0.4445-0.48895 0.2413 0 0.381 0.17462 0.381 0.48895z"/>
    <path d="m122.03-19.073c0 0.51118 0.31433 0.80645 0.7239 0.80645 0.18415 0 0.36195-0.0762 0.50165-0.20002l-0.11747-0.17145c-0.0921 0.08255-0.2159 0.15558-0.36195 0.15558-0.28258 0-0.47625-0.23812-0.47625-0.59055 0-0.3556 0.2032-0.5969 0.4826-0.5969 0.12382 0 0.21907 0.05715 0.31115 0.13652l0.13017-0.16828c-0.10477-0.09842-0.24765-0.18415-0.45085-0.18415-0.39687 0-0.74295 0.29528-0.74295 0.8128z"/>
    <path d="m123.63-18.781c0 0.3048 0.11113 0.51435 0.44133 0.51435 0.0952 0 0.20002-0.02858 0.28575-0.05715l-0.0508-0.19685c-0.0508 0.01905-0.12065 0.04127-0.17463 0.04127-0.1778 0-0.23812-0.10795-0.23812-0.29845v-0.85725h0.41592v-0.21272h-0.41592v-0.4318h-0.21908l-0.0318 0.4318-0.2413 0.01587v0.19685h0.2286z"/>
    <path d="m124.49-18.479c0.14605 0.12065 0.3556 0.21272 0.57467 0.21272 0.36513 0 0.56515-0.20955 0.56515-0.46038 0-0.2921-0.24765-0.38418-0.4699-0.46672-0.17462-0.06668-0.3429-0.12382-0.3429-0.2667 0-0.11748 0.0889-0.22225 0.28258-0.22225 0.13652 0 0.24765 0.05715 0.35242 0.13652l0.12383-0.1651c-0.11748-0.09525-0.28575-0.17462-0.47943-0.17462-0.33337 0-0.53022 0.1905-0.53022 0.43815 0 0.26035 0.2413 0.36512 0.46037 0.4445 0.16828 0.0635 0.35243 0.13335 0.35243 0.2921 0 0.13335-0.1016 0.2413-0.3048 0.2413-0.18415 0-0.32068-0.0762-0.45403-0.18415z"/>
   </g>
   <g aria-label="Actions">
    <path d="m104.7 3.3371 0.1016-0.3175c0.073-0.23178 0.1397-0.46038 0.20637-0.70168h0.0127c0.0667 0.2413 0.13335 0.4699 0.20638 0.70168l0.0984 0.3175zm0.89217 0.84772h0.2794l-0.70485-2.0828h-0.29845l-0.70485 2.0828h0.26988l0.20002-0.635h0.75883z"/>
    <path d="m106.02 3.4164c0 0.51118 0.31433 0.80645 0.7239 0.80645 0.18415 0 0.36195-0.0762 0.50165-0.20002l-0.11747-0.17145c-0.0921 0.08255-0.2159 0.15558-0.36195 0.15558-0.28258 0-0.47625-0.23812-0.47625-0.59055 0-0.3556 0.2032-0.5969 0.4826-0.5969 0.12382 0 0.21907 0.05715 0.31115 0.13652l0.13017-0.16828c-0.10477-0.098425-0.24765-0.18415-0.45085-0.18415-0.39687 0-0.74295 0.29528-0.74295 0.8128z"/>
    <path d="m107.62 3.7085c0 0.3048 0.11112 0.51435 0.44132 0.51435 0.0953 0 0.20003-0.028575 0.28575-0.05715l-0.0508-0.19685c-0.0508 0.01905-0.12065 0.041275-0.17462 0.041275-0.1778 0-0.23813-0.10795-0.23813-0.29845v-0.85725h0.41593v-0.21272h-0.41593v-0.4318h-0.21907l-0.0318 0.4318-0.2413 0.015875v0.19685h0.2286z"/>
    <path d="m108.78 2.3242c0.1016 0 0.18098-0.06985 0.18098-0.16828 0-0.1016-0.0794-0.16828-0.18098-0.16828-0.1016 0-0.18097 0.066675-0.18097 0.16828 0 0.098425 0.0794 0.16828 0.18097 0.16828zm-0.13335 1.8606h0.26035v-1.543h-0.26035z"/>
    <path d="m109.32 3.4164c0 0.51118 0.33655 0.80645 0.71437 0.80645 0.37783 0 0.71438-0.29528 0.71438-0.80645 0-0.51752-0.33655-0.8128-0.71438-0.8128-0.37782 0-0.71437 0.29528-0.71437 0.8128zm0.26987 0c0-0.3556 0.18098-0.5969 0.4445-0.5969 0.2667 0 0.4445 0.2413 0.4445 0.5969 0 0.35242-0.1778 0.59055-0.4445 0.59055-0.26352 0-0.4445-0.23812-0.4445-0.59055z"/>
    <path d="m111.15 4.1848h0.26035v-1.1176c0.15558-0.15558 0.26353-0.23812 0.42228-0.23812 0.2032 0 0.2921 0.12382 0.2921 0.41275v0.94298h0.26035v-0.9779c0-0.3937-0.14605-0.60325-0.4699-0.60325-0.21273 0-0.37148 0.1143-0.51753 0.26035h-0.01l-0.0222-0.22225h-0.2159z"/>
    <path d="m112.72 4.0102c0.14605 0.12065 0.3556 0.21272 0.57468 0.21272 0.36512 0 0.56515-0.20955 0.56515-0.46038 0-0.2921-0.24765-0.38418-0.4699-0.46672-0.17463-0.066675-0.3429-0.12382-0.3429-0.2667 0-0.11748 0.0889-0.22225 0.28257-0.22225 0.13653 0 0.24765 0.05715 0.35243 0.13652l0.12382-0.1651c-0.11747-0.09525-0.28575-0.17462-0.47942-0.17462-0.33338 0-0.53023 0.1905-0.53023 0.43815 0 0.26035 0.2413 0.36512 0.46038 0.4445 0.16827 0.0635 0.35242 0.13335 0.35242 0.2921 0 0.13335-0.1016 0.2413-0.3048 0.2413-0.18415 0-0.32067-0.0762-0.45402-0.18415z"/>
   </g>
   <g aria-label="Rules">
    <path d="m83.743-8.5332h0.34925c0.32385 0 0.50165 0.098425 0.50165 0.37148 0 0.26987-0.1778 0.40322-0.50165 0.40322h-0.34925zm1.1779 1.8701-0.53022-0.90805c0.28258-0.073025 0.46672-0.2667 0.46672-0.59055 0-0.4318-0.3048-0.5842-0.72708-0.5842h-0.65405v2.0828h0.2667v-0.87948h0.37465l0.50165 0.87948z"/>
    <path d="m85.267-7.2283c0 0.3937 0.14605 0.60325 0.47308 0.60325 0.21272 0 0.36512-0.11112 0.508-0.2794h0.0095l0.02223 0.2413h0.2159v-1.543h-0.26035v1.0954c-0.14605 0.18098-0.25718 0.26035-0.41592 0.26035-0.2032 0-0.28892-0.12382-0.28892-0.41275v-0.94297h-0.26352z"/>
    <path d="m87.02-6.9743c0 0.22542 0.07937 0.34925 0.27622 0.34925 0.06985 0 0.1143-0.00953 0.14922-0.0254l-0.03493-0.19685c-0.02858 0.00635-0.04127 0.00635-0.05715 0.00635-0.0381 0-0.07303-0.03175-0.07303-0.1143v-1.9685h-0.26035z"/>
    <path d="m87.718-7.4315c0 0.50482 0.32702 0.80645 0.73978 0.80645 0.20955 0 0.37465-0.073025 0.508-0.15875l-0.09208-0.17145c-0.1143 0.073025-0.23812 0.12065-0.38418 0.12065-0.29528 0-0.4953-0.20955-0.51435-0.54292h1.0414c0.0063-0.0381 0.0095-0.0889 0.0095-0.14288 0-0.44132-0.22225-0.7239-0.61595-0.7239-0.35242 0-0.69215 0.30797-0.69215 0.8128zm0.254-0.11748c0.03175-0.31115 0.2286-0.48895 0.4445-0.48895 0.2413 0 0.381 0.17462 0.381 0.48895z"/>
    <path d="m89.236-6.8377c0.14605 0.12065 0.3556 0.21272 0.57468 0.21272 0.36512 0 0.56515-0.20955 0.56515-0.46038 0-0.2921-0.24765-0.38418-0.4699-0.46672-0.17462-0.066675-0.3429-0.12382-0.3429-0.2667 0-0.11748 0.0889-0.22225 0.28258-0.22225 0.13652 0 0.24765 0.05715 0.35242 0.13652l0.12382-0.1651c-0.11748-0.09525-0.28575-0.17462-0.47942-0.17462-0.33338 0-0.53022 0.1905-0.53022 0.43815 0 0.26035 0.2413 0.36512 0.46038 0.4445 0.16828 0.0635 0.35242 0.13335 0.35242 0.2921 0 0.13335-0.1016 0.2413-0.3048 0.2413-0.18415 0-0.32068-0.0762-0.45402-0.18415z"/>
   </g>
   <g aria-label="Goals">
    <path d="m112.61 23.872c0 0.79269 0.45561 1.2594 1.0927 1.2594 0.32596 0 0.59637-0.12594 0.75565-0.28152v-1.0224h-0.7964v0.25559h0.51488v0.63341c-0.0963 0.0889-0.2667 0.14446-0.44079 0.14446-0.51859 0-0.80751-0.38523-0.80751-0.99642 0-0.60378 0.31485-0.9816 0.80751-0.9816 0.24077 0 0.39264 0.09631 0.51487 0.22595l0.1778-0.19632c-0.14446-0.14817-0.36671-0.30004-0.69638-0.30004-0.65193 0-1.1224 0.47784-1.1224 1.2594z"/>
    <path d="m114.86 24.19c0 0.59637 0.39264 0.94086 0.83344 0.94086 0.44079 0 0.83343-0.34449 0.83343-0.94086 0-0.60378-0.39264-0.94827-0.83343-0.94827-0.4408 0-0.83344 0.34449-0.83344 0.94827zm0.31485 0c0-0.41487 0.21114-0.69638 0.51859-0.69638 0.31115 0 0.51858 0.28152 0.51858 0.69638 0 0.41116-0.20743 0.68898-0.51858 0.68898-0.30745 0-0.51859-0.27781-0.51859-0.68898z"/>
    <path d="m116.87 24.62c0 0.32226 0.22596 0.51118 0.5297 0.51118 0.22225 0 0.42228-0.11853 0.59637-0.25929h7e-3l0.0259 0.21484h0.25188v-1.1038c0-0.4482-0.18521-0.74083-0.626-0.74083-0.28893 0-0.54081 0.12594-0.7075 0.23336l0.12224 0.21114c0.14076-0.09631 0.32597-0.19262 0.5371-0.19262 0.29263 0 0.37042 0.22225 0.37042 0.45191-0.76676 0.0852-1.1076 0.28152-1.1076 0.67416zm0.30004-0.02223c0-0.22966 0.20373-0.37783 0.80751-0.45191v0.50006c-0.1741 0.15558-0.31856 0.24077-0.49265 0.24077-0.1778 0-0.31486-0.0852-0.31486-0.28892z"/>
    <path d="m118.85 24.724c0 0.263 0.0926 0.40746 0.32226 0.40746 0.0815 0 0.13335-0.01111 0.1741-0.02963l-0.0408-0.22966c-0.0333 0.0074-0.0481 0.0074-0.0667 0.0074-0.0445 0-0.0852-0.03704-0.0852-0.13335v-2.2966h-0.30374z"/>
    <path d="m119.6 24.883c0.17039 0.14076 0.41487 0.24818 0.67045 0.24818 0.42598 0 0.65935-0.24448 0.65935-0.5371 0-0.34078-0.28893-0.4482-0.54822-0.54451-0.20373-0.07779-0.40005-0.14446-0.40005-0.31115 0-0.13705 0.10371-0.25929 0.32967-0.25929 0.15928 0 0.28892 0.06668 0.41116 0.15928l0.14446-0.19262c-0.13705-0.11112-0.33337-0.20373-0.55932-0.20373-0.38894 0-0.6186 0.22225-0.6186 0.51118 0 0.30374 0.28152 0.42598 0.5371 0.51858 0.19632 0.07408 0.41117 0.15558 0.41117 0.34078 0 0.15558-0.11854 0.28152-0.3556 0.28152-0.21485 0-0.37413-0.0889-0.5297-0.21484z"/>
   </g>
   <g aria-label="Technology">
    <path d="m160.24-13.542h0.30745v-2.1706h0.73713v-0.25929h-1.7817v0.25929h0.73713z"/>
    <path d="m161.3-14.439c0 0.58896 0.38153 0.94086 0.86307 0.94086 0.24448 0 0.43709-0.0852 0.59267-0.18521l-0.10742-0.20003c-0.13335 0.0852-0.27782 0.14076-0.44821 0.14076-0.34449 0-0.57785-0.24448-0.60007-0.63341h1.215c7e-3 -0.04445 0.0111-0.10372 0.0111-0.16669 0-0.51488-0.25929-0.84455-0.71861-0.84455-0.41116 0-0.80751 0.3593-0.80751 0.94827zm0.29633-0.13705c0.037-0.36301 0.2667-0.57044 0.51859-0.57044 0.28151 0 0.4445 0.20373 0.4445 0.57044z"/>
    <path d="m163.14-14.439c0 0.59637 0.36672 0.94086 0.84456 0.94086 0.21484 0 0.42227-0.0889 0.58525-0.23336l-0.13705-0.20002c-0.10742 0.09631-0.25188 0.1815-0.42228 0.1815-0.32967 0-0.55562-0.27781-0.55562-0.68898 0-0.41487 0.23707-0.69638 0.56303-0.69638 0.14447 0 0.25559 0.06668 0.36301 0.15928l0.15187-0.19632c-0.12223-0.11483-0.28892-0.21484-0.52599-0.21484-0.46302 0-0.86678 0.34449-0.86678 0.94827z"/>
    <path d="m164.96-13.542h0.30374v-1.3039c0.18151-0.1815 0.30745-0.27781 0.49266-0.27781 0.23706 0 0.34078 0.14446 0.34078 0.48154v1.1001h0.30374v-1.1409c0-0.45932-0.17039-0.70379-0.54821-0.70379-0.24818 0-0.42969 0.13335-0.60008 0.29633l0.0111-0.37042v-0.71861h-0.30374z"/>
    <path d="m166.98-13.542h0.30375v-1.3039c0.1815-0.1815 0.30744-0.27781 0.49265-0.27781 0.23707 0 0.34078 0.14446 0.34078 0.48154v1.1001h0.30375v-1.1409c0-0.45932-0.1704-0.70379-0.54822-0.70379-0.24818 0-0.43339 0.13335-0.60378 0.30374h-0.0111l-0.0259-0.25929h-0.25189z"/>
    <path d="m168.87-14.439c0 0.59637 0.39264 0.94086 0.83344 0.94086s0.83344-0.34449 0.83344-0.94086c0-0.60378-0.39264-0.94827-0.83344-0.94827s-0.83344 0.34449-0.83344 0.94827zm0.31486 0c0-0.41487 0.21113-0.69638 0.51858-0.69638 0.31115 0 0.51858 0.28152 0.51858 0.69638 0 0.41116-0.20743 0.68898-0.51858 0.68898-0.30745 0-0.51858-0.27781-0.51858-0.68898z"/>
    <path d="m171.02-13.905c0 0.263 0.0926 0.40746 0.32226 0.40746 0.0815 0 0.13335-0.01111 0.1741-0.02963l-0.0408-0.22966c-0.0333 0.0074-0.0482 0.0074-0.0667 0.0074-0.0444 0-0.0852-0.03704-0.0852-0.13335v-2.2966h-0.30374z"/>
    <path d="m171.83-14.439c0 0.59637 0.39264 0.94086 0.83344 0.94086 0.44079 0 0.83343-0.34449 0.83343-0.94086 0-0.60378-0.39264-0.94827-0.83343-0.94827-0.4408 0-0.83344 0.34449-0.83344 0.94827zm0.31485 0c0-0.41487 0.21114-0.69638 0.51859-0.69638 0.31115 0 0.51858 0.28152 0.51858 0.69638 0 0.41116-0.20743 0.68898-0.51858 0.68898-0.30745 0-0.51859-0.27781-0.51859-0.68898z"/>
    <path d="m174.1-13.239c0-0.10372 0.0556-0.21114 0.18521-0.30374 0.0778 0.02223 0.16298 0.02963 0.23336 0.02963h0.31115c0.23337 0 0.36301 0.05556 0.36301 0.22225 0 0.18891-0.22595 0.36671-0.57044 0.36671-0.32597 0-0.52229-0.12224-0.52229-0.31486zm-0.2667 0.04075c0 0.31115 0.30374 0.48525 0.74454 0.48525 0.55933 0 0.91123-0.28892 0.91123-0.6223 0-0.30004-0.21114-0.42968-0.62971-0.42968h-0.34819c-0.24448 0-0.31856-0.08149-0.31856-0.19632 0-0.10001 0.0519-0.15928 0.11483-0.21484 0.0815 0.04075 0.1815 0.06297 0.2704 0.06297 0.36671 0 0.65934-0.24077 0.65934-0.626 0-0.15187-0.063-0.28892-0.14816-0.37042h0.37041v-0.23336h-0.626c-0.0667-0.02593-0.15558-0.04445-0.25559-0.04445-0.36671 0-0.67786 0.24818-0.67786 0.64082 0 0.21484 0.11483 0.38894 0.23336 0.48525v0.01482c-0.0926 0.06297-0.19632 0.1815-0.19632 0.33338 0 0.14076 0.0704 0.23707 0.15928 0.29263v0.01482c-0.16299 0.11112-0.263 0.25559-0.263 0.40746zm0.74454-1.1187c-0.20743 0-0.38153-0.16669-0.38153-0.42968s0.17039-0.41857 0.38153-0.41857 0.38153 0.15558 0.38153 0.41857-0.1741 0.42968-0.38153 0.42968z"/>
    <path d="m175.7-13.046-0.0593 0.24077c0.0593 0.02222 0.12964 0.03704 0.21113 0.03704 0.36301 0 0.54822-0.2704 0.67416-0.626l0.67787-1.9484h-0.29634l-0.32226 0.99642c-0.0481 0.15928-0.10001 0.34449-0.15187 0.50747h-0.0148c-0.0556-0.16669-0.11853-0.3519-0.17409-0.50747l-0.36672-0.99642h-0.31485l0.72231 1.8039-0.0407 0.13335c-0.0741 0.22225-0.20373 0.38523-0.40746 0.38523-0.0444 0-0.10001-0.01482-0.13706-0.02593z"/>
   </g>
  </g>
 </g>
</svg>
