<?xml version="1.0" encoding="UTF-8"?>
<svg width="96.264mm" height="92.648mm" version="1.1" viewBox="0 0 96.264 92.648" xmlns="http://www.w3.org/2000/svg" xmlns:cc="http://creativecommons.org/ns#" xmlns:dc="http://purl.org/dc/elements/1.1/" xmlns:rdf="http://www.w3.org/1999/02/22-rdf-syntax-ns#">
 <metadata>
  <rdf:RDF>
   <cc:Work rdf:about="">
    <dc:format>image/svg+xml</dc:format>
    <dc:type rdf:resource="http://purl.org/dc/dcmitype/StillImage"/>
   </cc:Work>
  </rdf:RDF>
 </metadata>
 <g fill="#e8eaec" stroke-linecap="round" stroke-width=".26458" aria-label="Více viditelné">
  <path d="m45.227 2.6448h0.3593l0.77047-2.4299h-0.31486l-0.38894 1.3113c-0.08149 0.28893-0.14446 0.51858-0.23336 0.8038h-0.01482c-0.088897-0.28522-0.14816-0.51488-0.23336-0.8038l-0.39264-1.3113h-0.32597z"/>
  <path d="m46.653 2.6448h0.30374v-1.8002h-0.30374zm0.56303-2.6448h-0.31856l-0.33338 0.52229h0.23336z"/>
  <path d="m47.431 1.7484c0 0.59637 0.36671 0.94086 0.84455 0.94086 0.21484 0 0.42228-0.0889 0.58526-0.23336l-0.13706-0.20003c-0.10742 0.096308-0.25188 0.1815-0.42228 0.1815-0.32967 0-0.55563-0.27781-0.55563-0.68898 0-0.41487 0.23707-0.69638 0.56303-0.69638 0.14446 0 0.25559 0.066675 0.36301 0.15928l0.15187-0.19632c-0.12224-0.11483-0.28892-0.21484-0.52599-0.21484-0.46302 0-0.86678 0.34449-0.86678 0.94827z"/>
  <path d="m49.042 1.7484c0 0.58896 0.38153 0.94086 0.86307 0.94086 0.24448 0 0.43709-0.085196 0.59267-0.18521l-0.10742-0.20003c-0.13335 0.085196-0.27781 0.14076-0.4482 0.14076-0.34449 0-0.57785-0.24448-0.60008-0.63341h1.215c0.0074-0.04445 0.01111-0.10372 0.01111-0.16669 0-0.51488-0.25929-0.84455-0.71861-0.84455-0.41116 0-0.80751 0.3593-0.80751 0.94827zm0.29633-0.13705c0.03704-0.36301 0.2667-0.57044 0.51858-0.57044 0.28152 0 0.4445 0.20373 0.4445 0.57044z"/>
  <path d="m52.15 2.6448h0.3556l0.63712-1.8002h-0.30004l-0.34078 1.0224c-0.05186 0.1778-0.11112 0.3593-0.16298 0.5297h-0.01482c-0.055559-0.17039-0.11483-0.3519-0.16668-0.5297l-0.34078-1.0224h-0.31486z"/>
  <path d="m53.647 0.47413c0.11853 0 0.21114-0.081492 0.21114-0.19632 0-0.11853-0.0926-0.19632-0.21114-0.19632-0.11853 0-0.21114 0.077788-0.21114 0.19632 0 0.11483 0.0926 0.19632 0.21114 0.19632zm-0.15558 2.1706h0.30374v-1.8002h-0.30374z"/>
  <path d="m54.273 1.7484c0 0.60008 0.29263 0.94086 0.74454 0.94086 0.21114 0 0.40375-0.11853 0.54451-0.25559h0.01111l0.02593 0.21114h0.25188v-2.6374h-0.30745v0.69268l0.01482 0.30745c-0.15928-0.12965-0.29633-0.20743-0.50377-0.20743-0.41116 0-0.78158 0.36301-0.78158 0.94827zm0.31485-0.0037c0-0.41116 0.22966-0.68898 0.51858-0.68898 0.14817 0 0.28522 0.051858 0.43709 0.18891v0.94086c-0.14817 0.16669-0.29263 0.24818-0.45932 0.24818-0.31485 0-0.49636-0.25929-0.49636-0.68898z"/>
  <path d="m56.614 0.47413c0.11853 0 0.21114-0.081492 0.21114-0.19632 0-0.11853-0.0926-0.19632-0.21114-0.19632-0.11853 0-0.21114 0.077788-0.21114 0.19632 0 0.11483 0.0926 0.19632 0.21114 0.19632zm-0.15558 2.1706h0.30374v-1.8002h-0.30374z"/>
  <path d="m57.421 2.0892c0 0.3556 0.12965 0.60008 0.51488 0.60008 0.11112 0 0.23336-0.033338 0.33338-0.066675l-0.05927-0.22966c-0.05927 0.022225-0.14076 0.048154-0.20373 0.048154-0.20743 0-0.27781-0.12594-0.27781-0.34819v-1.0001h0.48525v-0.24818h-0.48524v-0.50377h-0.25559l-0.03704 0.50377-0.28152 0.018521v0.22966h0.2667z"/>
  <path d="m58.451 1.7484c0 0.58896 0.38153 0.94086 0.86307 0.94086 0.24448 0 0.43709-0.085196 0.59267-0.18521l-0.10742-0.20003c-0.13335 0.085196-0.27781 0.14076-0.4482 0.14076-0.34449 0-0.57785-0.24448-0.60008-0.63341h1.215c0.0074-0.04445 0.01111-0.10372 0.01111-0.16669 0-0.51488-0.25929-0.84455-0.71861-0.84455-0.41116 0-0.80751 0.3593-0.80751 0.94827zm0.29633-0.13705c0.03704-0.36301 0.2667-0.57044 0.51858-0.57044 0.28152 0 0.4445 0.20373 0.4445 0.57044z"/>
  <path d="m60.422 2.2818c0 0.263 0.09261 0.40746 0.32226 0.40746 0.08149 0 0.13335-0.011113 0.1741-0.029633l-0.04075-0.22966c-0.03334 0.00741-0.04815 0.00741-0.06667 0.00741-0.04445 0-0.0852-0.037042-0.0852-0.13335v-2.2966h-0.30374z"/>
  <path d="m61.366 2.6448h0.30374v-1.3039c0.1815-0.1815 0.30745-0.27781 0.49266-0.27781 0.23707 0 0.34078 0.14446 0.34078 0.48154v1.1001h0.30374v-1.1409c0-0.45932-0.17039-0.70379-0.54822-0.70379-0.24818 0-0.43339 0.13335-0.60378 0.30374h-0.01111l-0.025932-0.25929h-0.25188z"/>
  <path d="m63.259 1.7484c0 0.58896 0.38153 0.94086 0.86307 0.94086 0.24448 0 0.43709-0.085196 0.59267-0.18521l-0.10742-0.20003c-0.13335 0.085196-0.27781 0.14076-0.4482 0.14076-0.34449 0-0.57785-0.24448-0.60008-0.63341h1.215c0.0074-0.04445 0.01111-0.10372 0.01111-0.16669 0-0.51488-0.25929-0.84455-0.71861-0.84455-0.41116 0-0.80751 0.3593-0.80751 0.94827zm0.29633-0.13705c0.03704-0.36301 0.2667-0.57044 0.51858-0.57044 0.28152 0 0.4445 0.20373 0.4445 0.57044zm0.92234-1.6113h-0.31485l-0.33708 0.52229h0.23336z"/>
 </g>
 <path transform="matrix(.26454 .0045271 -.0045271 .26454 -10.441 -313.59)" d="m347.96 1471.6-150.49 3.9408-50.253-141.91 119.44-91.647 124.07 85.27z" fill="#6f8ce9"/>
 <rect transform="rotate(26.491)" x="25.883" y="13.814" width="24.322" height="24.322" fill="#6f8ce9"/>
 <g fill="none" stroke="#4d6fdc" stroke-miterlimit="40">
  <path d="m6.4203 45.536 31.75-10.583" stroke-width=".52917"/>
  <path d="m17.004 24.37 10.583 31.75" stroke-width=".52917"/>
  <path d="m22.295 39.451 33.073 10.054" stroke-width="1.0583"/>
  <path d="m54.574 17.755 0.79375 31.75 31.485-10.319" stroke-width="1.0583"/>
 </g>
 <circle cx="86.854" cy="39.186" r="9.2594" fill="#0a2c9d"/>
 <path d="m35.26 77.551 20.108-28.046 19.579 28.31" fill="none" stroke="#4d6fdc" stroke-miterlimit="40" stroke-width="1.0583"/>
 <circle cx="55.368" cy="49.505" r="10.289" fill="#0a2c9d"/>
 <g fill="#e8eaec" stroke-linecap="round" stroke-width=".26458" aria-label="Herní elementy">
  <path d="m51.778 48.542h0.27568v-1.0141h1.001v1.0141h0.2724v-2.1529h-0.2724v0.90251h-1.001v-0.90251h-0.27568z"/>
  <path d="m53.767 47.747c0 0.52182 0.33803 0.8336 0.76468 0.8336 0.2166 0 0.38726-0.07548 0.5251-0.16409l-0.09517-0.17722c-0.11815 0.07548-0.24614 0.12471-0.39711 0.12471-0.30521 0-0.51197-0.2166-0.53166-0.5612h1.0765c0.0066-0.03938 0.0098-0.09189 0.0098-0.14768 0-0.45618-0.22973-0.74827-0.63668-0.74827-0.36429 0-0.71545 0.31834-0.71545 0.84016zm0.26255-0.12143c0.03282-0.32162 0.2363-0.50541 0.45946-0.50541 0.24942 0 0.39382 0.1805 0.39382 0.50541z"/>
  <path d="m55.513 48.542h0.26911v-1.0239c0.1083-0.26911 0.26911-0.36757 0.40367-0.36757 0.06564 0 0.10174 0.0098 0.15425 0.02625l0.05251-0.23629c-0.05251-0.02297-0.10174-0.03282-0.17066-0.03282-0.1805 0-0.3446 0.12799-0.4529 0.32819h-0.0098l-0.023018-0.2888h-0.22317z"/>
  <path d="m56.652 48.542h0.26911v-1.1552c0.16081-0.16081 0.2724-0.24614 0.43649-0.24614 0.21004 0 0.30193 0.12799 0.30193 0.42664v0.97472h0.26911v-1.0108c0-0.40695-0.15097-0.62356-0.48572-0.62356-0.21988 0-0.38398 0.11815-0.53494 0.26911h-0.0098l-0.02297-0.22973h-0.22322z"/>
  <path d="m58.447 48.542h0.26911v-1.595h-0.26911zm0.49884-2.3433h-0.28224l-0.29537 0.46274h0.20676z"/>
  <path d="m48.951 51.972c0 0.52182 0.33803 0.8336 0.76468 0.8336 0.2166 0 0.38726-0.07548 0.5251-0.16409l-0.09517-0.17722c-0.11815 0.07548-0.24614 0.12471-0.39711 0.12471-0.30521 0-0.51197-0.2166-0.53166-0.5612h1.0765c0.0066-0.03938 0.0098-0.09189 0.0098-0.14768 0-0.45618-0.22973-0.74827-0.63668-0.74827-0.36429 0-0.71545 0.31834-0.71545 0.84016zm0.26255-0.12143c0.03282-0.32162 0.23629-0.50541 0.45946-0.50541 0.24942 0 0.39382 0.1805 0.39382 0.50541z"/>
  <path d="m50.697 52.445c0 0.23301 0.08205 0.361 0.28552 0.361 0.0722 0 0.11815-0.0098 0.15425-0.02625l-0.0361-0.20348c-0.02954 0.0066-0.04266 0.0066-0.05907 0.0066-0.03938 0-0.07548-0.03282-0.07548-0.11815v-2.0348h-0.26911z"/>
  <path d="m51.415 51.972c0 0.52182 0.33803 0.8336 0.76468 0.8336 0.2166 0 0.38726-0.07548 0.5251-0.16409l-0.09517-0.17722c-0.11815 0.07548-0.24614 0.12471-0.39711 0.12471-0.30521 0-0.51197-0.2166-0.53166-0.5612h1.0765c0.0066-0.03938 0.0098-0.09189 0.0098-0.14768 0-0.45618-0.22973-0.74827-0.63668-0.74827-0.36429 0-0.71545 0.31834-0.71545 0.84016zm0.26255-0.12143c0.03282-0.32162 0.2363-0.50541 0.45946-0.50541 0.24942 0 0.39382 0.1805 0.39382 0.50541z"/>
  <path d="m53.161 52.766h0.26911v-1.1552c0.14768-0.16409 0.28224-0.24614 0.40039-0.24614 0.20348 0 0.29865 0.12799 0.29865 0.42664v0.97472h0.26911v-1.1552c0.14768-0.16409 0.27568-0.24614 0.40039-0.24614 0.20019 0 0.29537 0.12799 0.29537 0.42664v0.97472h0.26911v-1.0108c0-0.40695-0.15753-0.62356-0.48572-0.62356-0.19363 0-0.35772 0.12471-0.5251 0.30521-0.06564-0.19035-0.19691-0.30521-0.43977-0.30521-0.19035 0-0.35772 0.11815-0.49556 0.26911h-0.0098l-0.023019-0.22973h-0.22317z"/>
  <path d="m55.764 51.972c0 0.52182 0.33803 0.8336 0.76468 0.8336 0.2166 0 0.38726-0.07548 0.5251-0.16409l-0.09517-0.17722c-0.11815 0.07548-0.24614 0.12471-0.39711 0.12471-0.30521 0-0.51197-0.2166-0.53166-0.5612h1.0765c0.0066-0.03938 0.0098-0.09189 0.0098-0.14768 0-0.45618-0.22973-0.74827-0.63668-0.74827-0.36429 0-0.71545 0.31834-0.71545 0.84016zm0.26255-0.12143c0.03282-0.32162 0.23629-0.50541 0.45946-0.50541 0.24942 0 0.39382 0.1805 0.39382 0.50541z"/>
  <path d="m57.51 52.766h0.26911v-1.1552c0.16081-0.16081 0.2724-0.24614 0.43649-0.24614 0.21004 0 0.30193 0.12799 0.30193 0.42664v0.97472h0.26911v-1.0108c0-0.40695-0.15097-0.62356-0.48572-0.62356-0.21989 0-0.38398 0.11815-0.53494 0.26911h-0.0098l-0.023019-0.22973h-0.22317z"/>
  <path d="m59.351 52.274c0 0.31506 0.11487 0.53166 0.45618 0.53166 0.09846 0 0.20676-0.02954 0.29537-0.05907l-0.05251-0.20348c-0.05251 0.01969-0.12471 0.04266-0.1805 0.04266-0.18378 0-0.24614-0.11158-0.24614-0.3085v-0.8861h0.42992v-0.21988h-0.42992v-0.44633h-0.22645l-0.03282 0.44633-0.24942 0.01641v0.20348h0.23629z"/>
  <path d="m60.306 53.206-0.05251 0.21332c0.05251 0.01969 0.11486 0.03282 0.18707 0.03282 0.32162 0 0.48572-0.23958 0.5973-0.55464l0.60058-1.7263h-0.26255l-0.28552 0.88282c-0.04266 0.14112-0.08861 0.30521-0.13456 0.44962h-0.01313c-0.04923-0.14768-0.10502-0.31178-0.15425-0.44962l-0.3249-0.88282h-0.27896l0.63996 1.5983-0.0361 0.11815c-0.06564 0.19691-0.1805 0.34132-0.361 0.34132-0.03938 0-0.08861-0.01313-0.12143-0.02297z"/>
 </g>
 <circle cx="35.26" cy="77.551" r="9.2594" fill="#0a2c9d"/>
 <circle cx="74.947" cy="77.551" r="9.2594" fill="#0a2c9d"/>
 <g fill="#e8eaec" stroke-linecap="round" stroke-width=".26458" aria-label="Příběh">
  <path d="m70.278 78.845h0.31115v-0.96308h0.43709c0.5297 0 0.89641-0.24077 0.89641-0.75195 0-0.5334-0.3593-0.7149-0.89641-0.7149h-0.74824zm0.31115-1.215v-0.96679h0.39635c0.41857 0 0.62971 0.11483 0.62971 0.46672 0 0.34449-0.20373 0.50006-0.62971 0.50006z"/>
  <path d="m72.375 78.845h0.30374v-1.1557c0.12224-0.30374 0.30374-0.41487 0.45561-0.41487 0.07408 0 0.11483 0.01111 0.1741 0.02963l0.05927-0.2667c-0.05927-0.02593-0.11483-0.03704-0.19262-0.03704-0.20373 0-0.38894 0.14446-0.51118 0.37042h-0.01111l-0.02593-0.32597h-0.25188zm0.37783-2.1225h0.24818l0.3519-0.52229h-0.21855l-0.24818 0.34078h-0.01482l-0.24818-0.34078h-0.22225z"/>
  <path d="m73.66 78.845h0.30374v-1.8002h-0.30374zm0.56303-2.6448h-0.31856l-0.33338 0.52229h0.23336z"/>
  <path d="m74.571 78.845h0.24448l0.02593-0.1778h0.01111c0.15928 0.14076 0.34819 0.22225 0.51488 0.22225 0.41116 0 0.77788-0.3593 0.77788-0.9742 0-0.55562-0.24818-0.91493-0.7149-0.91493-0.20002 0-0.40005 0.10742-0.56303 0.25188l0.0074-0.32597v-0.71861h-0.30374zm0.30374-0.40005v-0.94456c0.17039-0.15928 0.32967-0.24448 0.48154-0.24448 0.34078 0 0.47413 0.2667 0.47413 0.66305 0 0.4445-0.21855 0.7149-0.51488 0.7149-0.11853 0-0.28152-0.05186-0.4408-0.18891z"/>
  <path d="m76.494 77.948c0 0.58896 0.38153 0.94086 0.86307 0.94086 0.24448 0 0.43709-0.0852 0.59267-0.18521l-0.10742-0.20003c-0.13335 0.0852-0.27781 0.14076-0.4482 0.14076-0.34449 0-0.57785-0.24448-0.60008-0.63341h1.215c0.0074-0.04445 0.01111-0.10372 0.01111-0.16669 0-0.51488-0.25929-0.84455-0.71861-0.84455-0.41116 0-0.80751 0.3593-0.80751 0.94827zm0.29633-0.13705c0.03704-0.36301 0.2667-0.57044 0.51858-0.57044 0.28152 0 0.4445 0.20373 0.4445 0.57044zm0.38894-1.089h0.24818l0.3519-0.52229h-0.22225l-0.24818 0.34078h-0.01482l-0.24818-0.34078h-0.21855z"/>
  <path d="m78.465 78.845h0.30374v-1.3039c0.1815-0.1815 0.30745-0.27781 0.49265-0.27781 0.23707 0 0.34078 0.14446 0.34078 0.48154v1.1001h0.30374v-1.1409c0-0.45932-0.17039-0.70379-0.54822-0.70379-0.24818 0-0.42968 0.13335-0.60008 0.29633l0.01111-0.37042v-0.71861h-0.30374z"/>
 </g>
 <circle cx="54.574" cy="17.755" r="9.2594" fill="#0a2c9d"/>
 <g fill="#e8eaec" stroke-linecap="round" stroke-width=".26458" aria-label="Estetika">
  <path d="m48.844 18.784h1.4372v-0.263h-1.1261v-0.88159h0.91863v-0.263h-0.91863v-0.76306h1.089v-0.25929h-1.4002z"/>
  <path d="m50.559 18.581c0.17039 0.14076 0.41487 0.24818 0.67046 0.24818 0.42598 0 0.65934-0.24448 0.65934-0.5371 0-0.34078-0.28892-0.4482-0.54822-0.54451-0.20373-0.07779-0.40005-0.14446-0.40005-0.31115 0-0.13705 0.10372-0.25929 0.32967-0.25929 0.15928 0 0.28892 0.06668 0.41116 0.15928l0.14446-0.19262c-0.13705-0.11113-0.33338-0.20373-0.55933-0.20373-0.38894 0-0.6186 0.22225-0.6186 0.51118 0 0.30374 0.28152 0.42598 0.5371 0.51858 0.19632 0.07408 0.41116 0.15558 0.41116 0.34078 0 0.15558-0.11853 0.28152-0.3556 0.28152-0.21484 0-0.37412-0.0889-0.5297-0.21484z"/>
  <path d="m52.363 18.229c0 0.3556 0.12965 0.60008 0.51488 0.60008 0.11112 0 0.23336-0.03334 0.33338-0.06668l-0.05927-0.22966c-0.05927 0.02222-0.14076 0.04816-0.20373 0.04816-0.20743 0-0.27781-0.12594-0.27781-0.34819v-1.0001h0.48525v-0.24818h-0.48525v-0.50377h-0.25559l-0.03704 0.50377-0.28152 0.01852v0.22966h0.2667z"/>
  <path d="m53.393 17.888c0 0.58896 0.38153 0.94086 0.86307 0.94086 0.24448 0 0.43709-0.0852 0.59267-0.18521l-0.10742-0.20002c-0.13335 0.0852-0.27781 0.14076-0.4482 0.14076-0.34449 0-0.57785-0.24448-0.60008-0.63341h1.215c0.0074-0.04445 0.01111-0.10372 0.01111-0.16669 0-0.51488-0.25929-0.84455-0.71861-0.84455-0.41116 0-0.80751 0.3593-0.80751 0.94827zm0.29633-0.13706c0.03704-0.36301 0.2667-0.57044 0.51858-0.57044 0.28152 0 0.4445 0.20373 0.4445 0.57044z"/>
  <path d="m55.363 18.229c0 0.3556 0.12965 0.60008 0.51488 0.60008 0.11112 0 0.23336-0.03334 0.33338-0.06668l-0.05927-0.22966c-0.05927 0.02222-0.14076 0.04816-0.20373 0.04816-0.20743 0-0.27781-0.12594-0.27781-0.34819v-1.0001h0.48525v-0.24818h-0.48525v-0.50377h-0.25559l-0.03704 0.50377-0.28152 0.01852v0.22966h0.2667z"/>
  <path d="m56.719 16.614c0.11853 0 0.21114-0.08149 0.21114-0.19632 0-0.11853-0.0926-0.19632-0.21114-0.19632-0.11853 0-0.21114 0.07779-0.21114 0.19632 0 0.11483 0.0926 0.19632 0.21114 0.19632zm-0.15558 2.1706h0.30374v-1.8002h-0.30374z"/>
  <path d="m57.475 18.784h0.30004v-0.47413l0.33708-0.39264 0.52599 0.86678h0.33338l-0.68527-1.0779 0.60378-0.72231h-0.33708l-0.76676 0.94827h-0.01111v-1.7854h-0.30004z"/>
  <path d="m59.182 18.318c0 0.32226 0.22595 0.51118 0.5297 0.51118 0.22225 0 0.42228-0.11853 0.59637-0.25929h0.0074l0.02593 0.21484h0.25188v-1.1038c0-0.4482-0.18521-0.74083-0.626-0.74083-0.28892 0-0.54081 0.12594-0.7075 0.23336l0.12224 0.21114c0.14076-0.09631 0.32597-0.19262 0.5371-0.19262 0.29263 0 0.37042 0.22225 0.37042 0.45191-0.76676 0.08519-1.1075 0.28152-1.1075 0.67416zm0.30004-0.02222c0-0.22966 0.20373-0.37782 0.80751-0.45191v0.50006c-0.1741 0.15558-0.31856 0.24077-0.49266 0.24077-0.1778 0-0.31485-0.0852-0.31485-0.28893z"/>
 </g>
 <g fill="#0a2c9d">
  <circle transform="rotate(-18.509)" cx="8.7019" cy="44.502" r="9.2594"/>
  <circle transform="rotate(-18.509)" cx="26.261" cy="45.268" r="5.6534"/>
  <circle transform="rotate(-18.509)" cx="8.2693" cy="62.731" r="5.6534"/>
  <circle transform="rotate(-18.509)" cx="-9.1931" cy="45.268" r="5.6534"/>
  <circle transform="rotate(-18.509)" cx="8.2693" cy="26.747" r="5.6534"/>
 </g>
 <g fill="#e8eaec" stroke-linecap="round" stroke-width=".26458">
  <g aria-label="Méně viditelné">
   <path d="m43.719 92.603h0.28522v-1.3372c0-0.21484-0.02222-0.50377-0.03704-0.71861h0.01482l0.19262 0.54081 0.46673 1.2705h0.1778l0.46672-1.2705 0.19262-0.54081h0.01482c-0.01482 0.21484-0.04075 0.50377-0.04075 0.71861v1.3372h0.29263v-2.4299h-0.36301l-0.46673 1.3039-0.17039 0.49636h-0.01482l-0.17409-0.49636-0.47043-1.3039h-0.36671z"/>
   <path d="m46.242 91.707c0 0.58896 0.38153 0.94086 0.86307 0.94086 0.24448 0 0.43709-0.0852 0.59267-0.18521l-0.10742-0.20002c-0.13335 0.0852-0.27781 0.14076-0.4482 0.14076-0.34449 0-0.57785-0.24448-0.60008-0.63341h1.215c0.0074-0.04445 0.01111-0.10372 0.01111-0.16669 0-0.51488-0.25929-0.84455-0.71861-0.84455-0.41116 0-0.80751 0.3593-0.80751 0.94827zm0.29633-0.13705c0.03704-0.36301 0.2667-0.57044 0.51858-0.57044 0.28152 0 0.4445 0.20373 0.4445 0.57044zm0.92234-1.6113h-0.31485l-0.33708 0.52229h0.23336z"/>
   <path d="m48.213 92.603h0.30374v-1.3039c0.1815-0.1815 0.30745-0.27781 0.49266-0.27781 0.23707 0 0.34078 0.14446 0.34078 0.48154v1.1001h0.30374v-1.1409c0-0.45932-0.17039-0.70379-0.54822-0.70379-0.24818 0-0.43339 0.13335-0.60378 0.30374h-0.01111l-0.02593-0.25929h-0.25188z"/>
   <path d="m50.105 91.707c0 0.58896 0.38153 0.94086 0.86307 0.94086 0.24448 0 0.43709-0.0852 0.59267-0.18521l-0.10742-0.20002c-0.13335 0.0852-0.27781 0.14076-0.4482 0.14076-0.34449 0-0.57785-0.24448-0.60008-0.63341h1.215c0.0074-0.04445 0.01111-0.10372 0.01111-0.16669 0-0.51488-0.25929-0.84455-0.71861-0.84455-0.41116 0-0.80751 0.3593-0.80751 0.94827zm0.29633-0.13705c0.03704-0.36301 0.2667-0.57044 0.51858-0.57044 0.28152 0 0.4445 0.20373 0.4445 0.57044zm0.38894-1.089h0.24818l0.3519-0.52229h-0.22225l-0.24818 0.34078h-0.01482l-0.24818-0.34078h-0.21855z"/>
   <path d="m53.213 92.603h0.3556l0.63712-1.8002h-0.30004l-0.34078 1.0224c-0.05186 0.1778-0.11112 0.3593-0.16298 0.5297h-0.01482c-0.055559-0.17039-0.11483-0.3519-0.16668-0.5297l-0.34078-1.0224h-0.31486z"/>
   <path d="m54.71 90.432c0.11853 0 0.21114-0.08149 0.21114-0.19632 0-0.11853-0.0926-0.19632-0.21114-0.19632-0.11853 0-0.21114 0.07779-0.21114 0.19632 0 0.11483 0.0926 0.19632 0.21114 0.19632zm-0.15558 2.1706h0.30374v-1.8002h-0.30374z"/>
   <path d="m55.336 91.707c0 0.60008 0.29263 0.94086 0.74454 0.94086 0.21114 0 0.40375-0.11853 0.54451-0.25559h0.01111l0.02593 0.21114h0.25188v-2.6374h-0.30745v0.69268l0.01482 0.30745c-0.15928-0.12965-0.29633-0.20743-0.50377-0.20743-0.41116 0-0.78158 0.36301-0.78158 0.94827zm0.31486-0.0037c0-0.41116 0.22966-0.68898 0.51858-0.68898 0.14817 0 0.28522 0.05186 0.43709 0.18891v0.94086c-0.14817 0.16669-0.29263 0.24818-0.45932 0.24818-0.31486 0-0.49636-0.25929-0.49636-0.68898z"/>
   <path d="m57.677 90.432c0.11853 0 0.21114-0.08149 0.21114-0.19632 0-0.11853-0.0926-0.19632-0.21114-0.19632-0.11853 0-0.21114 0.07779-0.21114 0.19632 0 0.11483 0.0926 0.19632 0.21114 0.19632zm-0.15558 2.1706h0.30374v-1.8002h-0.30374z"/>
   <path d="m58.484 92.047c0 0.3556 0.12965 0.60008 0.51488 0.60008 0.11112 0 0.23336-0.03334 0.33338-0.06667l-0.05927-0.22966c-0.05927 0.02222-0.14076 0.04815-0.20373 0.04815-0.20743 0-0.27781-0.12594-0.27781-0.34819v-1.0001h0.48525v-0.24818h-0.48525v-0.50377h-0.25559l-0.03704 0.50377-0.28152 0.01852v0.22966h0.2667z"/>
   <path d="m59.514 91.707c0 0.58896 0.38153 0.94086 0.86307 0.94086 0.24448 0 0.43709-0.0852 0.59267-0.18521l-0.10742-0.20002c-0.13335 0.0852-0.27781 0.14076-0.4482 0.14076-0.34449 0-0.57785-0.24448-0.60008-0.63341h1.215c0.0074-0.04445 0.01111-0.10372 0.01111-0.16669 0-0.51488-0.25929-0.84455-0.71861-0.84455-0.41116 0-0.80751 0.3593-0.80751 0.94827zm0.29633-0.13705c0.03704-0.36301 0.2667-0.57044 0.51858-0.57044 0.28152 0 0.4445 0.20373 0.4445 0.57044z"/>
   <path d="m61.485 92.24c0 0.263 0.0926 0.40746 0.32226 0.40746 0.08149 0 0.13335-0.01111 0.1741-0.02963l-0.04075-0.22966c-0.03334 0.0074-0.04815 0.0074-0.06668 0.0074-0.04445 0-0.0852-0.03704-0.0852-0.13335v-2.2966h-0.30374z"/>
   <path d="m62.429 92.603h0.30374v-1.3039c0.1815-0.1815 0.30745-0.27781 0.49265-0.27781 0.23707 0 0.34078 0.14446 0.34078 0.48154v1.1001h0.30374v-1.1409c0-0.45932-0.17039-0.70379-0.54822-0.70379-0.24818 0-0.43339 0.13335-0.60378 0.30374h-0.01111l-0.02593-0.25929h-0.25188z"/>
   <path d="m64.322 91.707c0 0.58896 0.38153 0.94086 0.86307 0.94086 0.24448 0 0.43709-0.0852 0.59267-0.18521l-0.10742-0.20002c-0.13335 0.0852-0.27781 0.14076-0.4482 0.14076-0.34449 0-0.57785-0.24448-0.60008-0.63341h1.215c0.0074-0.04445 0.01111-0.10372 0.01111-0.16669 0-0.51488-0.25929-0.84455-0.71861-0.84455-0.41116 0-0.80751 0.3593-0.80751 0.94827zm0.29633-0.13705c0.03704-0.36301 0.2667-0.57044 0.51858-0.57044 0.28152 0 0.4445 0.20373 0.4445 0.57044zm0.92234-1.6113h-0.31486l-0.33708 0.52229h0.23336z"/>
  </g>
  <g aria-label="Mechaniky">
   <path d="m14.43 40.48h0.28522v-1.3372c0-0.21484-0.02223-0.50377-0.03704-0.71861h0.01482l0.19262 0.54081 0.46672 1.2705h0.1778l0.46673-1.2705 0.19262-0.54081h0.01482c-0.01482 0.21484-0.04075 0.50377-0.04075 0.71861v1.3372h0.29263v-2.4299h-0.36301l-0.46672 1.3039-0.17039 0.49636h-0.01482l-0.1741-0.49636-0.47043-1.3039h-0.36671z"/>
   <path d="m16.952 39.584c0 0.58896 0.38153 0.94086 0.86307 0.94086 0.24448 0 0.43709-0.0852 0.59267-0.18521l-0.10742-0.20003c-0.13335 0.0852-0.27781 0.14076-0.4482 0.14076-0.34449 0-0.57785-0.24448-0.60008-0.63341h1.215c0.0074-0.04445 0.01111-0.10372 0.01111-0.16669 0-0.51488-0.25929-0.84455-0.71861-0.84455-0.41116 0-0.80751 0.3593-0.80751 0.94827zm0.29633-0.13705c0.03704-0.36301 0.2667-0.57044 0.51858-0.57044 0.28152 0 0.4445 0.20373 0.4445 0.57044z"/>
   <path d="m18.789 39.584c0 0.59637 0.36671 0.94086 0.84455 0.94086 0.21484 0 0.42228-0.0889 0.58526-0.23336l-0.13705-0.20002c-0.10742 0.09631-0.25188 0.1815-0.42228 0.1815-0.32967 0-0.55562-0.27781-0.55562-0.68898 0-0.41487 0.23707-0.69638 0.56303-0.69638 0.14446 0 0.25559 0.06668 0.36301 0.15928l0.15187-0.19632c-0.12224-0.11483-0.28892-0.21484-0.52599-0.21484-0.46302 0-0.86678 0.34449-0.86678 0.94827z"/>
   <path d="m20.612 40.48h0.30374v-1.3039c0.1815-0.1815 0.30745-0.27781 0.49265-0.27781 0.23707 0 0.34078 0.14446 0.34078 0.48154v1.1001h0.30374v-1.1409c0-0.45932-0.17039-0.70379-0.54822-0.70379-0.24818 0-0.42968 0.13335-0.60008 0.29633l0.01111-0.37042v-0.71861h-0.30374z"/>
   <path d="m22.538 40.013c0 0.32226 0.22595 0.51118 0.5297 0.51118 0.22225 0 0.42228-0.11853 0.59637-0.25929h0.0074l0.02593 0.21484h0.25188v-1.1038c0-0.4482-0.18521-0.74083-0.626-0.74083-0.28893 0-0.54081 0.12594-0.7075 0.23336l0.12224 0.21114c0.14076-0.09631 0.32597-0.19262 0.5371-0.19262 0.29263 0 0.37042 0.22225 0.37042 0.45191-0.76676 0.0852-1.1075 0.28152-1.1075 0.67416zm0.30004-0.02222c0-0.22966 0.20373-0.37783 0.80751-0.45191v0.50006c-0.1741 0.15558-0.31856 0.24077-0.49265 0.24077-0.1778 0-0.31486-0.0852-0.31486-0.28892z"/>
   <path d="m24.523 40.48h0.30374v-1.3039c0.1815-0.1815 0.30745-0.27781 0.49265-0.27781 0.23707 0 0.34078 0.14446 0.34078 0.48154v1.1001h0.30374v-1.1409c0-0.45932-0.17039-0.70379-0.54822-0.70379-0.24818 0-0.43339 0.13335-0.60378 0.30374h-0.01111l-0.02593-0.25929h-0.25188z"/>
   <path d="m26.705 38.31c0.11853 0 0.21114-0.08149 0.21114-0.19632 0-0.11853-0.0926-0.19632-0.21114-0.19632-0.11853 0-0.21114 0.07779-0.21114 0.19632 0 0.11483 0.0926 0.19632 0.21114 0.19632zm-0.15558 2.1706h0.30374v-1.8002h-0.30374z"/>
   <path d="m27.461 40.48h0.30004v-0.47413l0.33708-0.39264 0.52599 0.86678h0.33338l-0.68527-1.0779 0.60378-0.72231h-0.33708l-0.76676 0.94827h-0.01111v-1.7854h-0.30004z"/>
   <path d="m29.172 40.977-0.05927 0.24077c0.05927 0.02222 0.12965 0.03704 0.21114 0.03704 0.36301 0 0.54822-0.2704 0.67416-0.626l0.67786-1.9484h-0.29633l-0.32226 0.99642c-0.04816 0.15928-0.10001 0.34449-0.15187 0.50747h-0.01482c-0.05556-0.16669-0.11853-0.3519-0.1741-0.50747l-0.36671-0.99642h-0.31485l0.72231 1.8039-0.04075 0.13335c-0.07408 0.22225-0.20373 0.38523-0.40746 0.38523-0.04445 0-0.10001-0.01482-0.13705-0.02593z"/>
  </g>
  <g aria-label="Prostor">
   <path d="m11.706 23.547h0.2667v-0.8255h0.37465c0.45402 0 0.76835-0.20638 0.76835-0.64452 0-0.4572-0.30798-0.61278-0.76835-0.61278h-0.64135zm0.2667-1.0414v-0.82868h0.33972c0.35878 0 0.53975 0.09843 0.53975 0.40005 0 0.29528-0.17462 0.42862-0.53975 0.42862z"/>
   <path d="m13.503 23.547h0.26035v-0.9906c0.10478-0.26035 0.26035-0.3556 0.39052-0.3556 0.0635 0 0.09843 0.0095 0.14922 0.0254l0.0508-0.2286c-0.0508-0.02222-0.09843-0.03175-0.1651-0.03175-0.17462 0-0.33338 0.12382-0.43815 0.3175h-0.0095l-0.02223-0.2794h-0.2159z"/>
   <path d="m14.458 22.779c0 0.51118 0.33655 0.80645 0.71438 0.80645s0.71438-0.29528 0.71438-0.80645c0-0.51752-0.33655-0.8128-0.71438-0.8128s-0.71438 0.29528-0.71438 0.8128zm0.26988 0c0-0.3556 0.18098-0.5969 0.4445-0.5969 0.2667 0 0.4445 0.2413 0.4445 0.5969 0 0.35242-0.1778 0.59055-0.4445 0.59055-0.26352 0-0.4445-0.23812-0.4445-0.59055z"/>
   <path d="m16.122 23.372c0.14605 0.12065 0.3556 0.21272 0.57468 0.21272 0.36512 0 0.56515-0.20955 0.56515-0.46038 0-0.2921-0.24765-0.38418-0.4699-0.46672-0.17462-0.06668-0.3429-0.12382-0.3429-0.2667 0-0.11748 0.0889-0.22225 0.28258-0.22225 0.13652 0 0.24765 0.05715 0.35242 0.13652l0.12382-0.1651c-0.11748-0.09525-0.28575-0.17462-0.47942-0.17462-0.33338 0-0.53022 0.1905-0.53022 0.43815 0 0.26035 0.2413 0.36512 0.46038 0.4445 0.16828 0.0635 0.35242 0.13335 0.35242 0.2921 0 0.13335-0.1016 0.2413-0.3048 0.2413-0.18415 0-0.32068-0.0762-0.45402-0.18415z"/>
   <path d="m17.668 23.071c0 0.3048 0.11112 0.51435 0.44132 0.51435 0.09525 0 0.20002-0.02858 0.28575-0.05715l-0.0508-0.19685c-0.0508 0.01905-0.12065 0.04127-0.17462 0.04127-0.1778 0-0.23812-0.10795-0.23812-0.29845v-0.85725h0.41592v-0.21272h-0.41592v-0.4318h-0.21908l-0.03175 0.4318-0.2413 0.01587v0.19685h0.2286z"/>
   <path d="m18.551 22.779c0 0.51118 0.33655 0.80645 0.71438 0.80645s0.71438-0.29528 0.71438-0.80645c0-0.51752-0.33655-0.8128-0.71438-0.8128s-0.71438 0.29528-0.71438 0.8128zm0.26988 0c0-0.3556 0.18098-0.5969 0.4445-0.5969 0.2667 0 0.4445 0.2413 0.4445 0.5969 0 0.35242-0.1778 0.59055-0.4445 0.59055-0.26352 0-0.4445-0.23812-0.4445-0.59055z"/>
   <path d="m20.386 23.547h0.26035v-0.9906c0.10478-0.26035 0.26035-0.3556 0.39052-0.3556 0.0635 0 0.09843 0.0095 0.14922 0.0254l0.0508-0.2286c-0.0508-0.02222-0.09842-0.03175-0.1651-0.03175-0.17462 0-0.33338 0.12382-0.43815 0.3175h-0.0095l-0.02222-0.2794h-0.2159z"/>
  </g>
  <g aria-label="Objekty">
   <path d="m35.247 35.491c0.5207 0 0.889-0.4191 0.889-1.089 0-0.66358-0.3683-1.07-0.889-1.07-0.52388 0-0.89218 0.40322-0.89218 1.07 0 0.66992 0.3683 1.089 0.89218 1.089zm0-0.23178c-0.37465 0-0.61912-0.33655-0.61912-0.85725 0-0.51752 0.24448-0.8382 0.61912-0.8382 0.37148 0 0.61595 0.32068 0.61595 0.8382 0 0.5207-0.24448 0.85725-0.61595 0.85725z"/>
   <path d="m36.552 35.453h0.20955l0.02222-0.1524h0.0095c0.13652 0.12065 0.29845 0.1905 0.44132 0.1905 0.35242 0 0.66675-0.30798 0.66675-0.83502 0-0.47625-0.21272-0.78422-0.61278-0.78422-0.17145 0-0.3429 0.09208-0.4826 0.2159l0.0063-0.2794v-0.61595h-0.26035zm0.26035-0.3429v-0.80962c0.14605-0.13652 0.28258-0.20955 0.41275-0.20955 0.2921 0 0.4064 0.2286 0.4064 0.56832 0 0.381-0.18732 0.61278-0.44132 0.61278-0.1016 0-0.2413-0.04445-0.37782-0.16192z"/>
   <path d="m38.317 35.628c0 0.18732-0.0381 0.30162-0.1905 0.30162-0.05398 0-0.10795-0.0127-0.14605-0.0254l-0.05398 0.19685c0.05398 0.02222 0.13335 0.04127 0.2286 0.04127 0.30798 0 0.42228-0.20002 0.42228-0.51435v-1.7177h-0.26035zm0.13335-2.0352c0.09842 0 0.1778-0.06985 0.1778-0.16828 0-0.1016-0.07937-0.16828-0.1778-0.16828-0.1016 0-0.18098 0.06667-0.18098 0.16828 0 0.09842 0.07937 0.16828 0.18098 0.16828z"/>
   <path d="m38.984 34.685c0 0.50482 0.32702 0.80645 0.73978 0.80645 0.20955 0 0.37465-0.07303 0.508-0.15875l-0.09208-0.17145c-0.1143 0.07303-0.23812 0.12065-0.38418 0.12065-0.29528 0-0.4953-0.20955-0.51435-0.54292h1.0414c0.0064-0.0381 0.0095-0.0889 0.0095-0.14288 0-0.44132-0.22225-0.7239-0.61595-0.7239-0.35242 0-0.69215 0.30798-0.69215 0.8128zm0.254-0.11748c0.03175-0.31115 0.2286-0.48895 0.4445-0.48895 0.2413 0 0.381 0.17462 0.381 0.48895z"/>
   <path d="m40.673 35.453h0.25718v-0.4064l0.28892-0.33655 0.45085 0.74295h0.28575l-0.58738-0.92392 0.51752-0.61912h-0.28892l-0.65722 0.8128h-0.0095v-1.5304h-0.25718z"/>
   <path d="m42.244 34.977c0 0.3048 0.11112 0.51435 0.44132 0.51435 0.09525 0 0.20002-0.02858 0.28575-0.05715l-0.0508-0.19685c-0.0508 0.01905-0.12065 0.04128-0.17462 0.04128-0.1778 0-0.23812-0.10795-0.23812-0.29845v-0.85725h0.41592v-0.21273h-0.41592v-0.4318h-0.21908l-0.03175 0.4318-0.2413 0.01588v0.19685h0.2286z"/>
   <path d="m43.168 35.879-0.0508 0.20638c0.0508 0.01905 0.11112 0.03175 0.18098 0.03175 0.31115 0 0.4699-0.23178 0.57785-0.53658l0.58102-1.67h-0.254l-0.27622 0.85408c-0.04127 0.13652-0.08573 0.29528-0.13018 0.43498h-0.0127c-0.04762-0.14288-0.1016-0.30162-0.14922-0.43498l-0.31432-0.85408h-0.26988l0.61912 1.5462-0.03493 0.1143c-0.0635 0.1905-0.17462 0.3302-0.34925 0.3302-0.0381 0-0.08572-0.0127-0.11748-0.02222z"/>
  </g>
  <g aria-label="Akce">
   <path d="m25.153 57.095 0.1016-0.3175c0.07303-0.23178 0.1397-0.46038 0.20638-0.70168h0.0127c0.06668 0.2413 0.13335 0.4699 0.20638 0.70168l0.09842 0.3175zm0.89218 0.84772h0.2794l-0.70485-2.0828h-0.29845l-0.70485 2.0828h0.26988l0.20002-0.635h0.75882z"/>
   <path d="m26.585 57.943h0.25718v-0.4064l0.28892-0.33655 0.45085 0.74295h0.28575l-0.58738-0.92392 0.51752-0.61912h-0.28892l-0.65722 0.8128h-0.0095v-1.5304h-0.25718z"/>
   <path d="m27.985 57.174c0 0.51118 0.31432 0.80645 0.7239 0.80645 0.18415 0 0.36195-0.0762 0.50165-0.20002l-0.11748-0.17145c-0.09207 0.08255-0.2159 0.15558-0.36195 0.15558-0.28258 0-0.47625-0.23812-0.47625-0.59055 0-0.3556 0.2032-0.5969 0.4826-0.5969 0.12382 0 0.21908 0.05715 0.31115 0.13652l0.13018-0.16828c-0.10478-0.09843-0.24765-0.18415-0.45085-0.18415-0.39688 0-0.74295 0.29528-0.74295 0.8128z"/>
   <path d="m29.366 57.174c0 0.50482 0.32702 0.80645 0.73978 0.80645 0.20955 0 0.37465-0.07303 0.508-0.15875l-0.09207-0.17145c-0.1143 0.07302-0.23812 0.12065-0.38418 0.12065-0.29528 0-0.4953-0.20955-0.51435-0.54292h1.0414c0.0064-0.0381 0.0095-0.0889 0.0095-0.14288 0-0.44132-0.22225-0.7239-0.61595-0.7239-0.35242 0-0.69215 0.30798-0.69215 0.8128zm0.254-0.11748c0.03175-0.31115 0.2286-0.48895 0.4445-0.48895 0.2413 0 0.381 0.17462 0.381 0.48895z"/>
  </g>
  <g aria-label="Pravidla">
   <path d="m0.29575 47.095h0.2667v-0.8255h0.37465c0.45402 0 0.76835-0.20638 0.76835-0.64452 0-0.4572-0.30798-0.61278-0.76835-0.61278h-0.64135zm0.2667-1.0414v-0.82868h0.33972c0.35877 0 0.53975 0.09842 0.53975 0.40005 0 0.29528-0.17462 0.42862-0.53975 0.42862z"/>
   <path d="m2.0928 47.095h0.26035v-0.9906c0.10478-0.26035 0.26035-0.3556 0.39052-0.3556 0.0635 0 0.098425 0.0095 0.14922 0.0254l0.0508-0.2286c-0.0508-0.02222-0.098425-0.03175-0.1651-0.03175-0.17462 0-0.33338 0.12382-0.43815 0.3175h-0.00953l-0.022225-0.2794h-0.2159z"/>
   <path d="m3.0389 46.695c0 0.27622 0.19368 0.43815 0.45402 0.43815 0.1905 0 0.36195-0.1016 0.51118-0.22225h0.00635l0.022225 0.18415h0.2159v-0.94615c0-0.38418-0.15875-0.635-0.53658-0.635-0.24765 0-0.46355 0.10795-0.60642 0.20002l0.10478 0.18098c0.12065-0.08255 0.2794-0.1651 0.46038-0.1651 0.25082 0 0.3175 0.1905 0.3175 0.38735-0.65722 0.07303-0.94932 0.2413-0.94932 0.57785zm0.25718-0.01905c0-0.19685 0.17462-0.32385 0.69215-0.38735v0.42862c-0.14922 0.13335-0.27305 0.20638-0.42228 0.20638-0.1524 0-0.26988-0.07303-0.26988-0.24765z"/>
   <path d="m5.0741 47.095h0.3048l0.5461-1.543h-0.25718l-0.2921 0.8763c-0.04445 0.1524-0.09525 0.30798-0.1397 0.45402h-0.0127c-0.047625-0.14605-0.098425-0.30162-0.14288-0.45402l-0.2921-0.8763h-0.26988z"/>
   <path d="m6.3568 45.234c0.1016 0 0.18098-0.06985 0.18098-0.16828 0-0.1016-0.079375-0.16828-0.18098-0.16828s-0.18098 0.06668-0.18098 0.16828c0 0.09842 0.079375 0.16828 0.18098 0.16828zm-0.13335 1.8606h0.26035v-1.543h-0.26035z"/>
   <path d="m6.8934 46.326c0 0.51435 0.25082 0.80645 0.63818 0.80645 0.18097 0 0.34607-0.1016 0.46672-0.21908h0.00952l0.022225 0.18098h0.2159v-2.2606h-0.26352v0.59372l0.0127 0.26352c-0.13652-0.11112-0.254-0.1778-0.4318-0.1778-0.35242 0-0.66992 0.31115-0.66992 0.8128zm0.26988-0.0032c0-0.35242 0.19685-0.59055 0.4445-0.59055 0.127 0 0.24447 0.04445 0.37465 0.16192v0.80645c-0.127 0.14288-0.25082 0.21272-0.3937 0.21272-0.26988 0-0.42545-0.22225-0.42545-0.59055z"/>
   <path d="m8.7666 46.784c0 0.22542 0.079375 0.34925 0.27622 0.34925 0.06985 0 0.1143-0.0095 0.14922-0.0254l-0.034925-0.19685c-0.028575 0.0063-0.041275 0.0063-0.05715 0.0063-0.0381 0-0.073025-0.03175-0.073025-0.1143v-1.9685h-0.26035z"/>
   <path d="m9.5001 46.695c0 0.27622 0.19368 0.43815 0.45402 0.43815 0.1905 0 0.36195-0.1016 0.51118-0.22225h0.0063l0.02223 0.18415h0.2159v-0.94615c0-0.38418-0.15875-0.635-0.53658-0.635-0.24765 0-0.46355 0.10795-0.60643 0.20002l0.10478 0.18098c0.12065-0.08255 0.2794-0.1651 0.46038-0.1651 0.25082 0 0.3175 0.1905 0.3175 0.38735-0.65723 0.07303-0.94933 0.2413-0.94933 0.57785zm0.25718-0.01905c0-0.19685 0.17462-0.32385 0.69215-0.38735v0.42862c-0.14922 0.13335-0.27305 0.20638-0.42228 0.20638-0.1524 0-0.26988-0.07303-0.26988-0.24765z"/>
  </g>
  <g aria-label="Cíle">
   <path d="m32.665 77.63c0 0.79269 0.45561 1.2594 1.0668 1.2594 0.30745 0 0.54822-0.12965 0.73713-0.3519l-0.1741-0.18891c-0.15558 0.1741-0.32597 0.2704-0.55562 0.2704-0.46302 0-0.75565-0.38523-0.75565-0.99642 0-0.60378 0.30745-0.9816 0.77047-0.9816 0.20002 0 0.3556 0.0889 0.48525 0.22595l0.1741-0.19632c-0.14446-0.15928-0.37412-0.30004-0.66305-0.30004-0.6223 0-1.0853 0.47784-1.0853 1.2594z"/>
   <path d="m34.884 78.845h0.30374v-1.8002h-0.30374zm0.56303-2.6448h-0.31856l-0.33338 0.52229h0.23336z"/>
   <path d="m35.795 78.482c0 0.263 0.0926 0.40746 0.32226 0.40746 0.08149 0 0.13335-0.01111 0.1741-0.02963l-0.04075-0.22966c-0.03334 0.0074-0.04815 0.0074-0.06668 0.0074-0.04445 0-0.0852-0.03704-0.0852-0.13335v-2.2966h-0.30374z"/>
   <path d="m36.606 77.948c0 0.58896 0.38153 0.94086 0.86307 0.94086 0.24448 0 0.43709-0.0852 0.59267-0.18521l-0.10742-0.20003c-0.13335 0.0852-0.27781 0.14076-0.4482 0.14076-0.34449 0-0.57785-0.24448-0.60008-0.63341h1.215c0.0074-0.04445 0.01111-0.10372 0.01111-0.16669 0-0.51488-0.25929-0.84455-0.71861-0.84455-0.41116 0-0.80751 0.3593-0.80751 0.94827zm0.29633-0.13705c0.03704-0.36301 0.2667-0.57044 0.51858-0.57044 0.28152 0 0.4445 0.20373 0.4445 0.57044z"/>
  </g>
  <g aria-label="Technologie">
   <path d="m78.369 40.216h0.30745v-2.1706h0.73713v-0.25929h-1.7817v0.25929h0.73713z"/>
   <path d="m79.432 39.319c0 0.58896 0.38153 0.94086 0.86307 0.94086 0.24448 0 0.43709-0.0852 0.59267-0.18521l-0.10742-0.20002c-0.13335 0.0852-0.27781 0.14076-0.4482 0.14076-0.34449 0-0.57785-0.24448-0.60008-0.63341h1.215c0.0074-0.04445 0.01111-0.10372 0.01111-0.16669 0-0.51488-0.25929-0.84455-0.71861-0.84455-0.41116 0-0.80751 0.3593-0.80751 0.94827zm0.29633-0.13705c0.03704-0.36301 0.2667-0.57044 0.51858-0.57044 0.28152 0 0.4445 0.20373 0.4445 0.57044z"/>
   <path d="m81.27 39.319c0 0.59637 0.36671 0.94086 0.84455 0.94086 0.21484 0 0.42228-0.0889 0.58526-0.23336l-0.13705-0.20002c-0.10742 0.09631-0.25188 0.1815-0.42228 0.1815-0.32967 0-0.55562-0.27781-0.55562-0.68898 0-0.41487 0.23707-0.69638 0.56303-0.69638 0.14446 0 0.25559 0.06668 0.36301 0.15928l0.15187-0.19632c-0.12224-0.11483-0.28892-0.21484-0.52599-0.21484-0.46302 0-0.86678 0.34449-0.86678 0.94827z"/>
   <path d="m83.092 40.216h0.30374v-1.3039c0.1815-0.1815 0.30745-0.27781 0.49265-0.27781 0.23707 0 0.34078 0.14446 0.34078 0.48154v1.1001h0.30374v-1.1409c0-0.45932-0.17039-0.70379-0.54822-0.70379-0.24818 0-0.42968 0.13335-0.60008 0.29633l0.01111-0.37042v-0.71861h-0.30374z"/>
   <path d="m85.107 40.216h0.30374v-1.3039c0.1815-0.1815 0.30745-0.27781 0.49266-0.27781 0.23707 0 0.34078 0.14446 0.34078 0.48154v1.1001h0.30374v-1.1409c0-0.45932-0.17039-0.70379-0.54822-0.70379-0.24818 0-0.43339 0.13335-0.60378 0.30374h-0.01111l-0.02593-0.25929h-0.25188z"/>
   <path d="m87 39.319c0 0.59637 0.39264 0.94086 0.83344 0.94086 0.4408 0 0.83344-0.34449 0.83344-0.94086 0-0.60378-0.39264-0.94827-0.83344-0.94827-0.4408 0-0.83344 0.34449-0.83344 0.94827zm0.31486 0c0-0.41487 0.21114-0.69638 0.51858-0.69638 0.31115 0 0.51858 0.28152 0.51858 0.69638 0 0.41116-0.20743 0.68898-0.51858 0.68898-0.30745 0-0.51858-0.27781-0.51858-0.68898z"/>
   <path d="m89.141 39.853c0 0.263 0.0926 0.40746 0.32226 0.40746 0.08149 0 0.13335-0.01111 0.1741-0.02963l-0.04075-0.22966c-0.03334 0.0074-0.04815 0.0074-0.06668 0.0074-0.04445 0-0.0852-0.03704-0.0852-0.13335v-2.2966h-0.30374z"/>
   <path d="m89.952 39.319c0 0.59637 0.39264 0.94086 0.83344 0.94086 0.4408 0 0.83344-0.34449 0.83344-0.94086 0-0.60378-0.39264-0.94827-0.83344-0.94827-0.4408 0-0.83344 0.34449-0.83344 0.94827zm0.31486 0c0-0.41487 0.21114-0.69638 0.51858-0.69638 0.31115 0 0.51858 0.28152 0.51858 0.69638 0 0.41116-0.20743 0.68898-0.51858 0.68898-0.30745 0-0.51858-0.27781-0.51858-0.68898z"/>
   <path d="m92.223 40.519c0-0.10372 0.05556-0.21114 0.18521-0.30374 0.07779 0.02222 0.16298 0.02963 0.23336 0.02963h0.31115c0.23336 0 0.36301 0.05556 0.36301 0.22225 0 0.18891-0.22595 0.36671-0.57044 0.36671-0.32597 0-0.52229-0.12224-0.52229-0.31486zm-0.2667 0.04075c0 0.31115 0.30374 0.48525 0.74454 0.48525 0.55933 0 0.91123-0.28893 0.91123-0.6223 0-0.30004-0.21114-0.42968-0.62971-0.42968h-0.34819c-0.24448 0-0.31856-0.08149-0.31856-0.19632 0-0.10001 0.05186-0.15928 0.11483-0.21484 0.08149 0.04075 0.1815 0.06297 0.2704 0.06297 0.36671 0 0.65934-0.24077 0.65934-0.626 0-0.15187-0.06297-0.28893-0.14817-0.37042h0.37042v-0.23337h-0.626c-0.06668-0.02593-0.15558-0.04445-0.25559-0.04445-0.36671 0-0.67786 0.24818-0.67786 0.64082 0 0.21484 0.11483 0.38894 0.23336 0.48525v0.01482c-0.0926 0.06297-0.19632 0.1815-0.19632 0.33338 0 0.14076 0.07038 0.23707 0.15928 0.29263v0.01482c-0.16298 0.11112-0.263 0.25559-0.263 0.40746zm0.74454-1.1187c-0.20743 0-0.38153-0.16669-0.38153-0.42968s0.17039-0.41857 0.38153-0.41857 0.38153 0.15558 0.38153 0.41857-0.1741 0.42968-0.38153 0.42968z"/>
   <path d="m94.116 38.045c0.11853 0 0.21114-0.08149 0.21114-0.19632 0-0.11853-0.09261-0.19632-0.21114-0.19632-0.11853 0-0.21114 0.07779-0.21114 0.19632 0 0.11483 0.0926 0.19632 0.21114 0.19632zm-0.15558 2.1706h0.30374v-1.8002h-0.30374z"/>
   <path d="m94.738 39.319c0 0.58896 0.38153 0.94086 0.86307 0.94086 0.24448 0 0.43709-0.0852 0.59267-0.18521l-0.10742-0.20002c-0.13335 0.0852-0.27781 0.14076-0.4482 0.14076-0.34449 0-0.57785-0.24448-0.60008-0.63341h1.215c0.0074-0.04445 0.01111-0.10372 0.01111-0.16669 0-0.51488-0.25929-0.84455-0.71861-0.84455-0.41116 0-0.80751 0.3593-0.80751 0.94827zm0.29633-0.13705c0.03704-0.36301 0.2667-0.57044 0.51858-0.57044 0.28152 0 0.4445 0.20373 0.4445 0.57044z"/>
  </g>
 </g>
</svg>
