<?xml version="1.0" encoding="UTF-8"?>
<svg width="107.94mm" height="27.609mm" version="1.1" viewBox="0 0 107.94 27.609" xmlns="http://www.w3.org/2000/svg" xmlns:cc="http://creativecommons.org/ns#" xmlns:dc="http://purl.org/dc/elements/1.1/" xmlns:rdf="http://www.w3.org/1999/02/22-rdf-syntax-ns#">
 <metadata>
  <rdf:RDF>
   <cc:Work rdf:about="">
    <dc:format>image/svg+xml</dc:format>
    <dc:type rdf:resource="http://purl.org/dc/dcmitype/StillImage"/>
    <dc:title/>
   </cc:Work>
  </rdf:RDF>
 </metadata>
 <g>
  <path d="m92.893 19.737 13.494-7.9375" fill="none" stroke="#6f8ce9" stroke-linecap="square" stroke-width=".26458"/>
  <path d="m60.085 19.473 13.494-7.9375" fill="none" stroke="#6f8ce9" stroke-linecap="square" stroke-width=".26458"/>
  <rect transform="rotate(-90)" x="-11.667" y=".68614" width="7.9375" height="105.7" fill="#1d232d" stroke="#535e70" stroke-linecap="round" stroke-width=".13229"/>
 </g>
 <g fill="#009244" stroke="#535e70" stroke-linecap="round" stroke-width=".13229">
  <path d="m7.3007 3.73v7.9375"/>
  <path d="m13.915 3.73v7.9375"/>
  <path d="m20.53 3.73v7.9375"/>
  <path d="m27.144 3.73v7.9375"/>
  <path d="m33.759 3.73v7.9375"/>
  <path d="m40.374 3.73v7.9375"/>
  <path d="m46.988 3.73v7.9375"/>
  <path d="m53.603 3.73v7.9375"/>
  <path d="m60.217 3.73v7.9375"/>
 </g>
 <g fill="#6f8ce9" stroke="#cf2f25" stroke-linecap="round" stroke-width=".26458">
  <g aria-label="0">
   <path d="m4.1156 9.0372c0.47043 0 0.75565-0.4408 0.75565-1.2335s-0.28522-1.2187-0.75565-1.2187c-0.47413 0-0.75935 0.42598-0.75935 1.2187s0.28522 1.2335 0.75935 1.2335zm0-0.24448c-0.27781 0-0.46302-0.29633-0.46302-0.98901s0.18521-0.9742 0.46302-0.9742c0.27411 0 0.45932 0.28152 0.45932 0.9742s-0.18521 0.98901-0.45932 0.98901z" fill="#6f8ce9" stroke="none"/>
  </g>
  <g aria-label="0">
   <path d="m10.73 9.0372c0.47043 0 0.75565-0.4408 0.75565-1.2335s-0.28522-1.2187-0.75565-1.2187c-0.47413 0-0.75935 0.42598-0.75935 1.2187s0.28522 1.2335 0.75935 1.2335zm0-0.24448c-0.27781 0-0.46302-0.29633-0.46302-0.98901s0.18521-0.9742 0.46302-0.9742c0.27411 0 0.45932 0.28152 0.45932 0.9742s-0.18521 0.98901-0.45932 0.98901z" fill="#6f8ce9" stroke="none"/>
  </g>
  <g aria-label="0">
   <path d="m17.345 9.0372c0.47043 0 0.75565-0.4408 0.75565-1.2335s-0.28522-1.2187-0.75565-1.2187c-0.47413 0-0.75936 0.42598-0.75936 1.2187s0.28522 1.2335 0.75936 1.2335zm0-0.24448c-0.27781 0-0.46302-0.29633-0.46302-0.98901s0.18521-0.9742 0.46302-0.9742c0.27411 0 0.45932 0.28152 0.45932 0.9742s-0.18521 0.98901-0.45932 0.98901z" fill="#6f8ce9" stroke="none"/>
  </g>
  <g aria-label="0">
   <path d="m23.959 9.0372c0.47043 0 0.75565-0.4408 0.75565-1.2335s-0.28522-1.2187-0.75565-1.2187c-0.47413 0-0.75936 0.42598-0.75936 1.2187s0.28522 1.2335 0.75936 1.2335zm0-0.24448c-0.27781 0-0.46302-0.29633-0.46302-0.98901s0.18521-0.9742 0.46302-0.9742c0.27411 0 0.45932 0.28152 0.45932 0.9742s-0.18521 0.98901-0.45932 0.98901z" fill="#6f8ce9" stroke="none"/>
  </g>
  <g aria-label="0">
   <path d="m30.574 9.0372c0.47043 0 0.75565-0.4408 0.75565-1.2335s-0.28522-1.2187-0.75565-1.2187c-0.47413 0-0.75936 0.42598-0.75936 1.2187s0.28522 1.2335 0.75936 1.2335zm0-0.24448c-0.27781 0-0.46302-0.29633-0.46302-0.98901s0.18521-0.9742 0.46302-0.9742c0.27411 0 0.45932 0.28152 0.45932 0.9742s-0.18521 0.98901-0.45932 0.98901z" fill="#6f8ce9" stroke="none"/>
  </g>
  <g aria-label="0">
   <path d="m37.188 9.0372c0.47043 0 0.75565-0.4408 0.75565-1.2335s-0.28522-1.2187-0.75565-1.2187c-0.47413 0-0.75936 0.42598-0.75936 1.2187s0.28522 1.2335 0.75936 1.2335zm0-0.24448c-0.27781 0-0.46302-0.29633-0.46302-0.98901s0.18521-0.9742 0.46302-0.9742c0.27411 0 0.45932 0.28152 0.45932 0.9742s-0.18521 0.98901-0.45932 0.98901z" fill="#6f8ce9" stroke="none"/>
  </g>
  <g aria-label="0">
   <path d="m43.803 9.0372c0.47043 0 0.75565-0.4408 0.75565-1.2335s-0.28522-1.2187-0.75565-1.2187c-0.47413 0-0.75936 0.42598-0.75936 1.2187s0.28522 1.2335 0.75936 1.2335zm0-0.24448c-0.27781 0-0.46302-0.29633-0.46302-0.98901s0.18521-0.9742 0.46302-0.9742c0.27411 0 0.45932 0.28152 0.45932 0.9742s-0.18521 0.98901-0.45932 0.98901z" fill="#6f8ce9" stroke="none"/>
  </g>
  <g aria-label="0">
   <path d="m50.418 9.0372c0.47043 0 0.75565-0.4408 0.75565-1.2335s-0.28522-1.2187-0.75565-1.2187c-0.47413 0-0.75936 0.42598-0.75936 1.2187s0.28522 1.2335 0.75936 1.2335zm0-0.24448c-0.27781 0-0.46302-0.29633-0.46302-0.98901s0.18521-0.9742 0.46302-0.9742c0.27411 0 0.45932 0.28152 0.45932 0.9742s-0.18521 0.98901-0.45932 0.98901z" fill="#6f8ce9" stroke="none"/>
  </g>
  <g aria-label="0">
   <path d="m57.032 9.0372c0.47043 0 0.75565-0.4408 0.75565-1.2335s-0.28522-1.2187-0.75565-1.2187c-0.47413 0-0.75936 0.42598-0.75936 1.2187s0.28522 1.2335 0.75936 1.2335zm0-0.24448c-0.27781 0-0.46302-0.29633-0.46302-0.98901s0.18521-0.9742 0.46302-0.9742c0.27411 0 0.45932 0.28152 0.45932 0.9742s-0.18521 0.98901-0.45932 0.98901z" fill="#6f8ce9" stroke="none"/>
  </g>
  <g aria-label="0">
   <path d="m63.647 9.0372c0.47043 0 0.75565-0.4408 0.75565-1.2335s-0.28522-1.2187-0.75565-1.2187c-0.47413 0-0.75936 0.42598-0.75936 1.2187s0.28522 1.2335 0.75936 1.2335zm0-0.24448c-0.27781 0-0.46302-0.29633-0.46302-0.98901s0.18521-0.9742 0.46302-0.9742c0.27411 0 0.45932 0.28152 0.45932 0.9742s-0.18521 0.98901-0.45932 0.98901z" fill="#6f8ce9" stroke="none"/>
  </g>
 </g>
 <g fill="#d2d6dc" opacity=".91" aria-label="0">
  <path d="m0.74454 0.011112c-0.36671 0-0.74454 0.45191-0.74454 1.189 0 0.74824 0.38153 1.1779 0.74824 1.1779 0.33338 0 0.72972-0.36301 0.72972-1.1594 0-0.78528-0.37783-1.2076-0.73343-1.2076zm0.3593 0.5297-0.81121 1.052c-0.033338-0.12965-0.051858-0.27411-0.051858-0.43709 0-0.59267 0.2704-0.91863 0.50006-0.91863 0.12594 0 0.263 0.10001 0.36301 0.30374zm0.085196 0.24448c0.033338 0.12965 0.048154 0.28522 0.048154 0.46673 0 0.64453-0.27781 0.889-0.48154 0.889-0.13705 0-0.27781-0.11113-0.37783-0.31485z" fill="#d2d6dc" stroke-width=".28222px"/>
 </g>
 <g fill="#d2d6dc" opacity=".91" aria-label="8">
  <path d="m53.423-1.0729e-7c-0.3556 0-0.626 0.25559-0.626 0.56674 0 0.22595 0.14446 0.43339 0.3519 0.54081-0.27411 0.12965-0.45932 0.38153-0.45932 0.64823 0 0.34449 0.30374 0.6186 0.70009 0.6186 0.40375 0 0.7112-0.28152 0.7112-0.63341 0-0.27411-0.18521-0.51858-0.4445-0.64082 0.22225-0.11483 0.36671-0.33338 0.36671-0.55563 0-0.30374-0.263-0.54451-0.60008-0.54451zm-0.077787 1.215c0.29633 0.092604 0.49265 0.29633 0.49265 0.52229 0 0.22225-0.18891 0.40375-0.43709 0.40375-0.25188 0-0.4445-0.18891-0.4445-0.41857 0-0.21855 0.17039-0.41857 0.38894-0.50747zm0.05556-1.0001c0.20743 0 0.37042 0.15558 0.37042 0.34819 0 0.1778-0.13705 0.34819-0.31856 0.4445 0 0-0.40746-0.15558-0.40746-0.46302 0-0.1815 0.15558-0.32967 0.3556-0.32967z" fill="#d2d6dc" stroke-width=".28222px"/>
 </g>
 <g fill="#009244" stroke="#535e70" stroke-linecap="round" stroke-width=".13229">
  <path d="m66.832 3.73v7.9375"/>
  <path d="m73.447 3.73v7.9375"/>
  <path d="m80.061 3.73v7.9375"/>
  <path d="m86.676 3.73v7.9375"/>
  <path d="m93.29 3.73v7.9375"/>
 </g>
 <g fill="#d2d6dc" opacity=".91" stroke-width=".28222px" aria-label="16">
  <path d="m105.56 0.025929h-0.17039l-0.59267 0.30745 0.0593 0.14446 0.45932-0.12965v1.7854h-0.42969v0.20373h1.089v-0.20373h-0.41487z"/>
  <path d="m107.37-1.0729e-7c-0.27781 0-0.57414 0.17039-0.7186 0.57415-0.0778 0.21855-0.0963 0.48895-0.0963 0.7112 0 0.2704 0.0259 0.55933 0.17409 0.78158 0.13335 0.20373 0.34079 0.30745 0.54452 0.30745 0.35189 0 0.65934-0.29633 0.65934-0.77417 0-0.47784-0.30745-0.75565-0.63341-0.75565-0.20003 0-0.38894 0.10742-0.48895 0.27781 0.0148-0.78899 0.39264-0.8927 0.55932-0.8927 0.15188 0 0.25559 0.081492 0.27041 0.096308 0.0222 0.025929 0.0222 0.059267 0.0556 0.085196l0.1778-0.20003c-0.1334-0.13335-0.31861-0.21114-0.50382-0.21114zm-0.0963 1.0742c0.1852 0 0.40746 0.14446 0.40746 0.54081 0 0.3593-0.20003 0.5297-0.39635 0.5297-0.28152 0-0.49266-0.32967-0.46302-0.76306 0.10371-0.18891 0.28151-0.30745 0.45191-0.30745z"/>
 </g>
 <path d="m99.905 3.73v7.9375" fill="#009244" stroke="#535e70" stroke-linecap="round" stroke-width=".13229"/>
 <g fill="#6f8ce9" stroke="#cf2f25" stroke-linecap="round" stroke-width=".26458">
  <g aria-label="0">
   <path d="m70.261 9.0372c0.47043 0 0.75565-0.4408 0.75565-1.2335s-0.28522-1.2187-0.75565-1.2187c-0.47413 0-0.75935 0.42598-0.75935 1.2187s0.28522 1.2335 0.75935 1.2335zm0-0.24448c-0.27781 0-0.46302-0.29633-0.46302-0.98901s0.18521-0.9742 0.46302-0.9742c0.27411 0 0.45932 0.28152 0.45932 0.9742s-0.18521 0.98901-0.45932 0.98901z" fill="#6f8ce9" stroke="none"/>
  </g>
  <g aria-label="1">
   <path d="m76.246 8.9927h1.3335v-0.25188h-0.48895v-2.1114h-0.23336c-0.12965 0.077788-0.28522 0.13705-0.50006 0.1741v0.19632h0.42968v1.741h-0.54081z" fill="#6f8ce9" stroke="none"/>
  </g>
  <g aria-label="1">
   <path d="m82.861 8.9927h1.3335v-0.25188h-0.48895v-2.1114h-0.23336c-0.12965 0.077788-0.28522 0.13705-0.50006 0.1741v0.19632h0.42968v1.741h-0.54081z" fill="#6f8ce9" stroke="none"/>
  </g>
  <g aria-label="0">
   <path d="m90.105 9.0372c0.47043 0 0.75565-0.4408 0.75565-1.2335s-0.28522-1.2187-0.75565-1.2187c-0.47413 0-0.75935 0.42598-0.75935 1.2187s0.28522 1.2335 0.75935 1.2335zm0-0.24448c-0.27781 0-0.46302-0.29633-0.46302-0.98901s0.18521-0.9742 0.46302-0.9742c0.27411 0 0.45932 0.28152 0.45932 0.9742s-0.18521 0.98901-0.45932 0.98901z" fill="#6f8ce9" stroke="none"/>
  </g>
  <g aria-label="1">
   <path d="m96.09 8.9927h1.3335v-0.25188h-0.48895v-2.1114h-0.23336c-0.12964 0.077788-0.28522 0.13705-0.50006 0.1741v0.19632h0.42968v1.741h-0.54081z" fill="#6f8ce9" stroke="none"/>
  </g>
  <g aria-label="0">
   <path d="m103.33 9.0372c0.47043 0 0.75565-0.4408 0.75565-1.2335s-0.28522-1.2187-0.75565-1.2187c-0.47414 0-0.75936 0.42598-0.75936 1.2187s0.28522 1.2335 0.75936 1.2335zm0-0.24448c-0.27781 0-0.46302-0.29633-0.46302-0.98901s0.18521-0.9742 0.46302-0.9742c0.27411 0 0.45932 0.28152 0.45932 0.9742s-0.18521 0.98901-0.45932 0.98901z" fill="#6f8ce9" stroke="none"/>
  </g>
 </g>
 <rect transform="rotate(-90)" x="-27.542" y="60.085" width="7.9375" height="33.073" fill="#1d232d" stroke="#535e70" stroke-linecap="round" stroke-width=".13229"/>
 <g fill="#009244" stroke="#535e70" stroke-linecap="round" stroke-width=".13229">
  <path d="m66.832 19.605v7.9375"/>
  <path d="m73.447 19.605v7.9375"/>
  <path d="m80.061 19.605v7.9375"/>
  <path d="m86.676 19.605v7.9375"/>
 </g>
 <g fill="#6f8ce9" stroke="#cf2f25" stroke-linecap="round" stroke-width=".26458">
  <g aria-label="1">
   <path d="m63.017 24.868h1.3335v-0.25188h-0.48895v-2.1114h-0.23336c-0.12965 0.07779-0.28522 0.13706-0.50006 0.1741v0.19632h0.42968v1.741h-0.54081z" fill="#6f8ce9" stroke="none"/>
  </g>
  <g aria-label="1">
   <path d="m69.632 24.868h1.3335v-0.25188h-0.48895v-2.1114h-0.23336c-0.12965 0.07779-0.28522 0.13706-0.50006 0.1741v0.19632h0.42968v1.741h-0.54081z" fill="#6f8ce9" stroke="none"/>
  </g>
  <g aria-label="0">
   <path d="m76.876 24.912c0.47043 0 0.75565-0.4408 0.75565-1.2335 0-0.79269-0.28522-1.2187-0.75565-1.2187-0.47413 0-0.75936 0.42598-0.75936 1.2187 0 0.79269 0.28522 1.2335 0.75936 1.2335zm0-0.24448c-0.27781 0-0.46302-0.29633-0.46302-0.98901s0.18521-0.9742 0.46302-0.9742c0.27411 0 0.45932 0.28152 0.45932 0.9742s-0.18521 0.98901-0.45932 0.98901z" fill="#6f8ce9" stroke="none"/>
  </g>
  <g aria-label="1">
   <path d="m82.861 24.868h1.3335v-0.25188h-0.48895v-2.1114h-0.23336c-0.12965 0.07779-0.28522 0.13706-0.50006 0.1741v0.19632h0.42968v1.741h-0.54081z" fill="#6f8ce9" stroke="none"/>
  </g>
  <g aria-label="0">
   <path d="m90.105 24.912c0.47043 0 0.75565-0.4408 0.75565-1.2335 0-0.79269-0.28522-1.2187-0.75565-1.2187-0.47413 0-0.75935 0.42598-0.75935 1.2187 0 0.79269 0.28522 1.2335 0.75935 1.2335zm0-0.24448c-0.27781 0-0.46302-0.29633-0.46302-0.98901s0.18521-0.9742 0.46302-0.9742c0.27411 0 0.45932 0.28152 0.45932 0.9742s-0.18521 0.98901-0.45932 0.98901z" fill="#6f8ce9" stroke="none"/>
  </g>
 </g>
 <g fill="#d2d6dc" opacity=".91" stroke-width=".28222px" aria-label="5 bits">
  <path d="m95.854 22.251-0.08149 1.1742 0.16669 0.06668c0.11112-0.14076 0.27411-0.21855 0.43339-0.21855 0.24077 0 0.47043 0.18521 0.47043 0.55192 0 0.3556-0.21855 0.54822-0.46673 0.54822-0.24818 0-0.41116-0.18891-0.42228-0.21114-0.01482-0.02963 0.0037-0.06668-0.02963-0.0889l-0.22966 0.1741c0.15558 0.22595 0.41116 0.3556 0.68527 0.3556 0.40005 0 0.72972-0.2704 0.72972-0.77047 0-0.49636-0.31115-0.77047-0.70009-0.77047-0.12594 0-0.25559 0.02963-0.37412 0.0889l0.03334-0.66675h0.95568v-0.23337z"/>
  <path d="m99.384 22.095v2.4633h0.1741l0.0926-0.22225c0.11113 0.16669 0.29633 0.2667 0.50006 0.2667 0.34819 0 0.7075-0.29633 0.7075-0.91123 0-0.58896-0.3482-0.86307-0.68157-0.86307-0.21484 0-0.41487 0.11483-0.52229 0.30004v-0.94827c0-0.02223 0.0037-0.02963 0.02223-0.04445 0.0074-0.0037 0.02593-0.01852 0.02223-0.04075zm0.70009 0.96308c0.15927 0 0.49635 0.0926 0.49635 0.69268 0 0.51488-0.33337 0.61119-0.50006 0.61119-0.11483 0-0.37042-0.04445-0.41487-0.37042-0.01111-0.0852-0.01111-0.18521-0.01111-0.33338 0-0.15187 0.0074-0.263 0.04445-0.3556 0.06297-0.15187 0.21855-0.24448 0.38524-0.24448z"/>
  <path d="m101.41 22.866v0.21855h0.40746v1.2631h-0.42969v0.21114h1.0964v-0.21114h-0.39635v-1.4817zm0.54822-0.73342c-0.10743 0-0.19262 0.0852-0.19262 0.18891 0 0.10372 0.0852 0.18891 0.19262 0.18891s0.19261-0.0852 0.19261-0.18891c0-0.10372-0.0852-0.18891-0.19261-0.18891z"/>
  <path d="m103.57 22.414-0.0333 0.45561h-0.40376l-4e-3 0.21855h0.39635c-0.0222 0.28892-0.0333 0.57785-0.0333 0.86307 0 0.15187 0 0.32226 0.10001 0.46302 0.0815 0.11113 0.21114 0.1778 0.38523 0.1778 0.20003 0 0.39635-0.0852 0.54081-0.18891l-0.0815-0.21114c-0.14446 0.10742-0.27781 0.15558-0.38153 0.15558-0.12594 0-0.25559-0.07038-0.28522-0.27411 0-0.01482-0.0111-0.07779-0.0111-0.32597 0-0.21855 0.0111-0.4408 0.0333-0.65934h0.55562v-0.22225h-0.55192s0.0259-0.30374 0.0444-0.40005c4e-3 -0.03704 0.0333-0.05927 0.0185-0.10001z"/>
  <path d="m106.32 23.092c-0.15558-0.17039-0.38153-0.263-0.63342-0.263-0.39264 0-0.64823 0.21855-0.64823 0.47043 0 0.29633 0.31856 0.40376 0.41117 0.43709 0.14446 0.05186 0.32967 0.09631 0.45561 0.15558 0.14076 0.06668 0.16669 0.15558 0.16669 0.21484 0 0.15928-0.19262 0.2667-0.43339 0.2667-0.28893 0-0.47413-0.1741-0.5297-0.23336-0.0111-0.01482-0.0111-0.02593-0.0111-0.04075 0-0.0037 4e-3 -0.02593-0.0148-0.03334l-0.15557 0.263c0.20002 0.18521 0.45932 0.2704 0.7149 0.2704 0.46303 0 0.7038-0.27411 0.7038-0.5297 0-0.11483-0.0482-0.2704-0.24818-0.38153-0.18892-0.10742-0.46302-0.14446-0.6223-0.22225-0.13706-0.06668-0.16669-0.14817-0.16669-0.20743 0-0.13335 0.16669-0.22966 0.3556-0.22966 0.24447 0 0.40746 0.14817 0.47043 0.23336 0.0111 0.01111 7e-3 0.02222 7e-3 0.03334 0 0.02222 0.0148 0.02963 0.0222 0.02963z"/>
 </g>
</svg>
