<?xml version="1.0" encoding="UTF-8"?>
<svg width="127.77mm" height="27.476mm" version="1.1" viewBox="0 0 127.77 27.476" xmlns="http://www.w3.org/2000/svg" xmlns:cc="http://creativecommons.org/ns#" xmlns:dc="http://purl.org/dc/elements/1.1/" xmlns:rdf="http://www.w3.org/1999/02/22-rdf-syntax-ns#">
 <metadata>
  <rdf:RDF>
   <cc:Work rdf:about="">
    <dc:format>image/svg+xml</dc:format>
    <dc:type rdf:resource="http://purl.org/dc/dcmitype/StillImage"/>
    <dc:title/>
   </cc:Work>
  </rdf:RDF>
 </metadata>
 <rect transform="rotate(-90)" x="-27.41" y="20.518" width="23.68" height="105.7" fill="#1d232d" stroke="#535e70" stroke-linecap="round" stroke-width=".13229"/>
 <g fill="#009244" stroke="#535e70" stroke-linecap="round" stroke-width=".13229">
  <path d="m27.132 3.7299v23.548"/>
  <path d="m33.747 3.7299v23.548"/>
  <path d="m40.362 3.7299v23.548"/>
  <path d="m46.976 3.7299v23.548"/>
  <path d="m53.591 3.7299v23.548"/>
  <path d="m60.205 3.7299v23.548"/>
  <path d="m66.82 3.7299v23.548"/>
  <path d="m73.434 3.7299v23.548"/>
  <path d="m80.049 3.7299v23.548"/>
 </g>
 <g fill="#6f8ce9" stroke="#cf2f25" stroke-linecap="round" stroke-width=".26458">
  <g aria-label="0">
   <path d="m23.947 9.0371c0.47043 0 0.75565-0.4408 0.75565-1.2335s-0.28522-1.2187-0.75565-1.2187c-0.47413 0-0.75936 0.42598-0.75936 1.2187s0.28522 1.2335 0.75936 1.2335zm0-0.24448c-0.27781 0-0.46302-0.29633-0.46302-0.98901s0.18521-0.9742 0.46302-0.9742c0.27411 0 0.45932 0.28152 0.45932 0.9742s-0.18521 0.98901-0.45932 0.98901z" fill="#6f8ce9" stroke="none"/>
  </g>
  <g aria-label="0">
   <path d="m30.562 9.0371c0.47043 0 0.75565-0.4408 0.75565-1.2335s-0.28522-1.2187-0.75565-1.2187c-0.47413 0-0.75936 0.42598-0.75936 1.2187s0.28522 1.2335 0.75936 1.2335zm0-0.24448c-0.27781 0-0.46302-0.29633-0.46302-0.98901s0.18521-0.9742 0.46302-0.9742c0.27411 0 0.45932 0.28152 0.45932 0.9742s-0.18521 0.98901-0.45932 0.98901z" fill="#6f8ce9" stroke="none"/>
  </g>
  <g aria-label="0">
   <path d="m37.176 9.0371c0.47043 0 0.75565-0.4408 0.75565-1.2335s-0.28522-1.2187-0.75565-1.2187c-0.47413 0-0.75936 0.42598-0.75936 1.2187s0.28522 1.2335 0.75936 1.2335zm0-0.24448c-0.27781 0-0.46302-0.29633-0.46302-0.98901s0.18521-0.9742 0.46302-0.9742c0.27411 0 0.45932 0.28152 0.45932 0.9742s-0.18521 0.98901-0.45932 0.98901z" fill="#6f8ce9" stroke="none"/>
  </g>
  <g aria-label="1">
   <path d="m43.161 8.9927h1.3335v-0.25188h-0.48895v-2.1114h-0.23336c-0.12965 0.077788-0.28522 0.13705-0.50006 0.1741v0.19632h0.42968v1.741h-0.54081z" fill="#6f8ce9" stroke="none"/>
  </g>
  <g aria-label="0">
   <path d="m50.406 9.0371c0.47043 0 0.75565-0.4408 0.75565-1.2335s-0.28522-1.2187-0.75565-1.2187c-0.47413 0-0.75936 0.42598-0.75936 1.2187s0.28522 1.2335 0.75936 1.2335zm0-0.24448c-0.27781 0-0.46302-0.29633-0.46302-0.98901s0.18521-0.9742 0.46302-0.9742c0.27411 0 0.45932 0.28152 0.45932 0.9742s-0.18521 0.98901-0.45932 0.98901z" fill="#6f8ce9" stroke="none"/>
  </g>
  <g aria-label="1">
   <path d="m56.39 8.9927h1.3335v-0.25188h-0.48895v-2.1114h-0.23336c-0.12965 0.077788-0.28522 0.13705-0.50006 0.1741v0.19632h0.42968v1.741h-0.54081z" fill="#6f8ce9" stroke="none"/>
  </g>
  <g aria-label="1">
   <path d="m63.005 8.9927h1.3335v-0.25188h-0.48895v-2.1114h-0.23336c-0.12965 0.077788-0.28522 0.13705-0.50006 0.1741v0.19632h0.42968v1.741h-0.54081z" fill="#6f8ce9" stroke="none"/>
  </g>
  <g aria-label="1">
   <path d="m69.62 8.9927h1.3335v-0.25188h-0.48895v-2.1114h-0.23336c-0.12965 0.077788-0.28522 0.13705-0.50006 0.1741v0.19632h0.42968v1.741h-0.54081z" fill="#6f8ce9" stroke="none"/>
  </g>
  <g aria-label="0">
   <path d="m76.864 9.0371c0.47043 0 0.75565-0.4408 0.75565-1.2335s-0.28522-1.2187-0.75565-1.2187c-0.47413 0-0.75936 0.42598-0.75936 1.2187s0.28522 1.2335 0.75936 1.2335zm0-0.24448c-0.27781 0-0.46302-0.29633-0.46302-0.98901s0.18521-0.9742 0.46302-0.9742c0.27411 0 0.45932 0.28152 0.45932 0.9742s-0.18521 0.98901-0.45932 0.98901z" fill="#6f8ce9" stroke="none"/>
  </g>
  <g aria-label="0">
   <path d="m83.478 9.0371c0.47043 0 0.75565-0.4408 0.75565-1.2335s-0.28522-1.2187-0.75565-1.2187c-0.47413 0-0.75936 0.42598-0.75936 1.2187s0.28522 1.2335 0.75936 1.2335zm0-0.24448c-0.27781 0-0.46302-0.29633-0.46302-0.98901s0.18521-0.9742 0.46302-0.9742c0.27411 0 0.45932 0.28152 0.45932 0.9742s-0.18521 0.98901-0.45932 0.98901z" fill="#6f8ce9" stroke="none"/>
  </g>
 </g>
 <g fill="#d2d6dc" opacity=".91" aria-label="0">
  <path d="m20.576 0.011112c-0.36671 0-0.74454 0.45191-0.74454 1.189 0 0.74824 0.38153 1.1779 0.74824 1.1779 0.33338 0 0.72972-0.36301 0.72972-1.1594 0-0.78528-0.37782-1.2076-0.73343-1.2076zm0.3593 0.5297-0.81121 1.052c-0.03334-0.12965-0.05186-0.27411-0.05186-0.43709 0-0.59267 0.2704-0.91863 0.50006-0.91863 0.12594 0 0.263 0.10001 0.36301 0.30374zm0.0852 0.24448c0.03334 0.12965 0.04815 0.28522 0.04815 0.46673 0 0.64453-0.27781 0.889-0.48154 0.889-0.13706 0-0.27781-0.11113-0.37783-0.31485z" fill="#d2d6dc" stroke-width=".28222px"/>
 </g>
 <g fill="#d2d6dc" opacity=".91" aria-label="8">
  <path d="m73.254-1.0729e-7c-0.3556 0-0.626 0.25559-0.626 0.56674 0 0.22595 0.14446 0.43339 0.3519 0.54081-0.27411 0.12965-0.45932 0.38153-0.45932 0.64823 0 0.34449 0.30374 0.6186 0.70009 0.6186 0.40376 0 0.7112-0.28152 0.7112-0.63341 0-0.27411-0.18521-0.51858-0.4445-0.64082 0.22225-0.11483 0.36671-0.33338 0.36671-0.55563 0-0.30374-0.263-0.54451-0.60008-0.54451zm-0.077788 1.215c0.29633 0.092604 0.49266 0.29633 0.49266 0.52229 0 0.22225-0.18891 0.40375-0.43709 0.40375-0.25188 0-0.4445-0.18891-0.4445-0.41857 0-0.21855 0.17039-0.41857 0.38894-0.50747zm0.05556-1.0001c0.20743 0 0.37042 0.15558 0.37042 0.34819 0 0.1778-0.13705 0.34819-0.31856 0.4445 0 0-0.40746-0.15558-0.40746-0.46302 0-0.1815 0.15558-0.32967 0.3556-0.32967z" fill="#d2d6dc" stroke-width=".28222px"/>
 </g>
 <g fill="#009244" stroke="#535e70" stroke-linecap="round" stroke-width=".13229">
  <path d="m86.664 3.7299v23.548"/>
  <path d="m93.278 3.7299v23.548"/>
  <path d="m99.893 3.7299v23.548"/>
  <path d="m106.51 3.7299v23.548"/>
  <path d="m113.12 3.7299v23.548"/>
 </g>
 <g fill="#d2d6dc" opacity=".91" stroke-width=".28222px" aria-label="16">
  <path d="m125.39 0.025929h-0.1704l-0.59266 0.30745 0.0593 0.14446 0.45932-0.12965v1.7854h-0.42968v0.20373h1.089v-0.20373h-0.41486z"/>
  <path d="m127.2-1.0729e-7c-0.27781 0-0.57415 0.17039-0.71861 0.57415-0.0778 0.21855-0.0963 0.48895-0.0963 0.7112 0 0.2704 0.0259 0.55933 0.1741 0.78158 0.13335 0.20373 0.34078 0.30745 0.54451 0.30745 0.3519 0 0.65934-0.29633 0.65934-0.77417 0-0.47784-0.30744-0.75565-0.63341-0.75565-0.20002 0-0.38894 0.10742-0.48895 0.27781 0.0148-0.78899 0.39264-0.8927 0.55933-0.8927 0.15187 0 0.25559 0.081492 0.2704 0.096308 0.0222 0.025929 0.0222 0.059267 0.0556 0.085196l0.1778-0.20003c-0.13339-0.13335-0.3186-0.21114-0.50381-0.21114zm-0.09631 1.0742c0.18521 0 0.40746 0.14446 0.40746 0.54081 0 0.3593-0.20003 0.5297-0.39635 0.5297-0.28151 0-0.49265-0.32967-0.46302-0.76306 0.10372-0.18891 0.28152-0.30745 0.45191-0.30745z"/>
 </g>
 <path d="m119.74 3.7299v23.548" fill="#009244" stroke="#535e70" stroke-linecap="round" stroke-width=".13229"/>
 <g fill="#6f8ce9" stroke="#cf2f25" stroke-linecap="round" stroke-width=".26458">
  <g aria-label="0">
   <path d="m90.093 9.0371c0.47043 0 0.75565-0.4408 0.75565-1.2335s-0.28522-1.2187-0.75565-1.2187c-0.47413 0-0.75936 0.42598-0.75936 1.2187s0.28522 1.2335 0.75936 1.2335zm0-0.24448c-0.27781 0-0.46302-0.29633-0.46302-0.98901s0.18521-0.9742 0.46302-0.9742c0.27411 0 0.45932 0.28152 0.45932 0.9742s-0.18521 0.98901-0.45932 0.98901z" fill="#6f8ce9" stroke="none"/>
  </g>
  <g aria-label="1">
   <path d="m96.078 8.9927h1.3335v-0.25188h-0.48895v-2.1114h-0.23336c-0.12965 0.077788-0.28522 0.13705-0.50006 0.1741v0.19632h0.42968v1.741h-0.54081z" fill="#6f8ce9" stroke="none"/>
  </g>
  <g aria-label="0">
   <path d="m103.32 9.0371c0.47043 0 0.75565-0.4408 0.75565-1.2335s-0.28522-1.2187-0.75565-1.2187c-0.47413 0-0.75935 0.42598-0.75935 1.2187s0.28522 1.2335 0.75935 1.2335zm0-0.24448c-0.27781 0-0.46302-0.29633-0.46302-0.98901s0.18521-0.9742 0.46302-0.9742c0.27411 0 0.45932 0.28152 0.45932 0.9742s-0.18521 0.98901-0.45932 0.98901z" fill="#6f8ce9" stroke="none"/>
  </g>
  <g aria-label="1">
   <path d="m109.31 8.9927h1.3335v-0.25188h-0.48895v-2.1114h-0.23337c-0.12964 0.077788-0.28522 0.13705-0.50006 0.1741v0.19632h0.42968v1.741h-0.54081z" fill="#6f8ce9" stroke="none"/>
  </g>
  <g aria-label="0">
   <path d="m116.55 9.0371c0.47043 0 0.75565-0.4408 0.75565-1.2335s-0.28522-1.2187-0.75565-1.2187c-0.47414 0-0.75936 0.42598-0.75936 1.2187s0.28522 1.2335 0.75936 1.2335zm0-0.24448c-0.27782 0-0.46302-0.29633-0.46302-0.98901s0.1852-0.9742 0.46302-0.9742c0.27411 0 0.45931 0.28152 0.45931 0.9742s-0.1852 0.98901-0.45931 0.98901z" fill="#6f8ce9" stroke="none"/>
  </g>
  <g aria-label="0">
   <path d="m123.17 9.0371c0.47043 0 0.75565-0.4408 0.75565-1.2335s-0.28522-1.2187-0.75565-1.2187c-0.47413 0-0.75935 0.42598-0.75935 1.2187s0.28522 1.2335 0.75935 1.2335zm0-0.24448c-0.27781 0-0.46302-0.29633-0.46302-0.98901s0.18521-0.9742 0.46302-0.9742c0.27411 0 0.45932 0.28152 0.45932 0.9742s-0.18521 0.98901-0.45932 0.98901z" fill="#6f8ce9" stroke="none"/>
  </g>
 </g>
 <path d="m20.518 11.667h105.57" fill="#d2d6dc" stroke="#535e70" stroke-linecap="square" stroke-width=".13229" style="paint-order:normal"/>
 <path d="m20.518 19.605h105.57" fill="#d2d6dc" stroke="#535e70" stroke-linecap="square" stroke-width=".13229" style="paint-order:normal"/>
 <g fill="#6f8ce9" stroke="#cf2f25" stroke-linecap="round" stroke-width=".26458">
  <g aria-label="0">
   <path d="m23.947 16.975c0.47043 0 0.75565-0.4408 0.75565-1.2335 0-0.79269-0.28522-1.2187-0.75565-1.2187-0.47413 0-0.75936 0.42598-0.75936 1.2187 0 0.79269 0.28522 1.2335 0.75936 1.2335zm0-0.24448c-0.27781 0-0.46302-0.29633-0.46302-0.98901 0-0.69268 0.18521-0.9742 0.46302-0.9742 0.27411 0 0.45932 0.28152 0.45932 0.9742 0 0.69268-0.18521 0.98901-0.45932 0.98901z" fill="#6f8ce9" stroke="none"/>
  </g>
  <g aria-label="0">
   <path d="m30.562 16.975c0.47043 0 0.75565-0.4408 0.75565-1.2335 0-0.79269-0.28522-1.2187-0.75565-1.2187-0.47413 0-0.75936 0.42598-0.75936 1.2187 0 0.79269 0.28522 1.2335 0.75936 1.2335zm0-0.24448c-0.27781 0-0.46302-0.29633-0.46302-0.98901 0-0.69268 0.18521-0.9742 0.46302-0.9742 0.27411 0 0.45932 0.28152 0.45932 0.9742 0 0.69268-0.18521 0.98901-0.45932 0.98901z" fill="#6f8ce9" stroke="none"/>
  </g>
  <g aria-label="0">
   <path d="m37.176 16.975c0.47043 0 0.75565-0.4408 0.75565-1.2335 0-0.79269-0.28522-1.2187-0.75565-1.2187-0.47413 0-0.75936 0.42598-0.75936 1.2187 0 0.79269 0.28522 1.2335 0.75936 1.2335zm0-0.24448c-0.27781 0-0.46302-0.29633-0.46302-0.98901 0-0.69268 0.18521-0.9742 0.46302-0.9742 0.27411 0 0.45932 0.28152 0.45932 0.9742 0 0.69268-0.18521 0.98901-0.45932 0.98901z" fill="#6f8ce9" stroke="none"/>
  </g>
  <g aria-label="1">
   <path d="m43.161 16.93h1.3335v-0.25188h-0.48895v-2.1114h-0.23336c-0.12965 0.07779-0.28522 0.13706-0.50006 0.1741v0.19632h0.42968v1.741h-0.54081z" fill="#6f8ce9" stroke="none"/>
  </g>
  <g aria-label="0">
   <path d="m50.406 16.975c0.47043 0 0.75565-0.4408 0.75565-1.2335 0-0.79269-0.28522-1.2187-0.75565-1.2187-0.47413 0-0.75936 0.42598-0.75936 1.2187 0 0.79269 0.28522 1.2335 0.75936 1.2335zm0-0.24448c-0.27781 0-0.46302-0.29633-0.46302-0.98901 0-0.69268 0.18521-0.9742 0.46302-0.9742 0.27411 0 0.45932 0.28152 0.45932 0.9742 0 0.69268-0.18521 0.98901-0.45932 0.98901z" fill="#6f8ce9" stroke="none"/>
  </g>
  <g aria-label="1">
   <path d="m56.39 16.93h1.3335v-0.25188h-0.48895v-2.1114h-0.23336c-0.12965 0.07779-0.28522 0.13706-0.50006 0.1741v0.19632h0.42968v1.741h-0.54081z" fill="#6f8ce9" stroke="none"/>
  </g>
  <g aria-label="1">
   <path d="m63.005 16.93h1.3335v-0.25188h-0.48895v-2.1114h-0.23336c-0.12965 0.07779-0.28522 0.13706-0.50006 0.1741v0.19632h0.42968v1.741h-0.54081z" fill="#6f8ce9" stroke="none"/>
  </g>
  <g aria-label="1">
   <path d="m69.62 16.93h1.3335v-0.25188h-0.48895v-2.1114h-0.23336c-0.12965 0.07779-0.28522 0.13706-0.50006 0.1741v0.19632h0.42968v1.741h-0.54081z" fill="#6f8ce9" stroke="none"/>
  </g>
  <g aria-label="0">
   <path d="m76.864 16.975c0.47043 0 0.75565-0.4408 0.75565-1.2335 0-0.79269-0.28522-1.2187-0.75565-1.2187-0.47413 0-0.75936 0.42598-0.75936 1.2187 0 0.79269 0.28522 1.2335 0.75936 1.2335zm0-0.24448c-0.27781 0-0.46302-0.29633-0.46302-0.98901 0-0.69268 0.18521-0.9742 0.46302-0.9742 0.27411 0 0.45932 0.28152 0.45932 0.9742 0 0.69268-0.18521 0.98901-0.45932 0.98901z" fill="#6f8ce9" stroke="none"/>
  </g>
  <g aria-label="0">
   <path d="m83.478 16.975c0.47043 0 0.75565-0.4408 0.75565-1.2335 0-0.79269-0.28522-1.2187-0.75565-1.2187-0.47413 0-0.75936 0.42598-0.75936 1.2187 0 0.79269 0.28522 1.2335 0.75936 1.2335zm0-0.24448c-0.27781 0-0.46302-0.29633-0.46302-0.98901 0-0.69268 0.18521-0.9742 0.46302-0.9742 0.27411 0 0.45932 0.28152 0.45932 0.9742 0 0.69268-0.18521 0.98901-0.45932 0.98901z" fill="#6f8ce9" stroke="none"/>
  </g>
  <g aria-label="1">
   <path d="m89.463 16.93h1.3335v-0.25188h-0.48895v-2.1114h-0.23336c-0.12965 0.07779-0.28522 0.13706-0.50006 0.1741v0.19632h0.42968v1.741h-0.54081z" fill="#6f8ce9" stroke="none"/>
  </g>
  <g aria-label="0">
   <path d="m96.708 16.975c0.47043 0 0.75565-0.4408 0.75565-1.2335 0-0.79269-0.28522-1.2187-0.75565-1.2187-0.47413 0-0.75936 0.42598-0.75936 1.2187 0 0.79269 0.28522 1.2335 0.75936 1.2335zm0-0.24448c-0.27781 0-0.46302-0.29633-0.46302-0.98901 0-0.69268 0.18521-0.9742 0.46302-0.9742 0.27411 0 0.45932 0.28152 0.45932 0.9742 0 0.69268-0.18521 0.98901-0.45932 0.98901z" fill="#6f8ce9" stroke="none"/>
  </g>
  <g aria-label="0">
   <path d="m103.32 16.975c0.47043 0 0.75565-0.4408 0.75565-1.2335 0-0.79269-0.28522-1.2187-0.75565-1.2187-0.47413 0-0.75935 0.42598-0.75935 1.2187 0 0.79269 0.28522 1.2335 0.75935 1.2335zm0-0.24448c-0.27781 0-0.46302-0.29633-0.46302-0.98901 0-0.69268 0.18521-0.9742 0.46302-0.9742 0.27411 0 0.45932 0.28152 0.45932 0.9742 0 0.69268-0.18521 0.98901-0.45932 0.98901z" fill="#6f8ce9" stroke="none"/>
  </g>
  <g aria-label="1">
   <path d="m109.31 16.93h1.3335v-0.25188h-0.48895v-2.1114h-0.23337c-0.12964 0.07779-0.28522 0.13706-0.50006 0.1741v0.19632h0.42968v1.741h-0.54081z" fill="#6f8ce9" stroke="none"/>
  </g>
  <g aria-label="0">
   <path d="m116.55 16.975c0.47043 0 0.75565-0.4408 0.75565-1.2335 0-0.79269-0.28522-1.2187-0.75565-1.2187-0.47414 0-0.75936 0.42598-0.75936 1.2187 0 0.79269 0.28522 1.2335 0.75936 1.2335zm0-0.24448c-0.27782 0-0.46302-0.29633-0.46302-0.98901 0-0.69268 0.1852-0.9742 0.46302-0.9742 0.27411 0 0.45931 0.28152 0.45931 0.9742 0 0.69268-0.1852 0.98901-0.45931 0.98901z" fill="#6f8ce9" stroke="none"/>
  </g>
  <g aria-label="1">
   <path d="m122.54 16.93h1.3335v-0.25188h-0.48895v-2.1114h-0.23337c-0.12964 0.07779-0.28522 0.13706-0.50006 0.1741v0.19632h0.42968v1.741h-0.54081z" fill="#6f8ce9" stroke="none"/>
  </g>
 </g>
 <g fill="#a6aeb8" stroke="#cf2f25" stroke-linecap="round" stroke-width=".26458">
  <g aria-label="0">
   <path d="m23.947 24.912c0.47043 0 0.75565-0.4408 0.75565-1.2335 0-0.79269-0.28522-1.2187-0.75565-1.2187-0.47413 0-0.75936 0.42598-0.75936 1.2187 0 0.79269 0.28522 1.2335 0.75936 1.2335zm0-0.24448c-0.27781 0-0.46302-0.29633-0.46302-0.98901 0-0.69268 0.18521-0.9742 0.46302-0.9742 0.27411 0 0.45932 0.28152 0.45932 0.9742 0 0.69268-0.18521 0.98901-0.45932 0.98901z" fill="#a6aeb8" stroke="none"/>
  </g>
  <g aria-label="0">
   <path d="m30.562 24.912c0.47043 0 0.75565-0.4408 0.75565-1.2335 0-0.79269-0.28522-1.2187-0.75565-1.2187-0.47413 0-0.75936 0.42598-0.75936 1.2187 0 0.79269 0.28522 1.2335 0.75936 1.2335zm0-0.24448c-0.27781 0-0.46302-0.29633-0.46302-0.98901 0-0.69268 0.18521-0.9742 0.46302-0.9742 0.27411 0 0.45932 0.28152 0.45932 0.9742 0 0.69268-0.18521 0.98901-0.45932 0.98901z" fill="#a6aeb8" stroke="none"/>
  </g>
  <g aria-label="0">
   <path d="m37.176 24.912c0.47043 0 0.75565-0.4408 0.75565-1.2335 0-0.79269-0.28522-1.2187-0.75565-1.2187-0.47413 0-0.75936 0.42598-0.75936 1.2187 0 0.79269 0.28522 1.2335 0.75936 1.2335zm0-0.24448c-0.27781 0-0.46302-0.29633-0.46302-0.98901 0-0.69268 0.18521-0.9742 0.46302-0.9742 0.27411 0 0.45932 0.28152 0.45932 0.9742 0 0.69268-0.18521 0.98901-0.45932 0.98901z" fill="#a6aeb8" stroke="none"/>
  </g>
  <g aria-label="0">
   <path d="m43.791 24.912c0.47043 0 0.75565-0.4408 0.75565-1.2335 0-0.79269-0.28522-1.2187-0.75565-1.2187-0.47413 0-0.75936 0.42598-0.75936 1.2187 0 0.79269 0.28522 1.2335 0.75936 1.2335zm0-0.24448c-0.27781 0-0.46302-0.29633-0.46302-0.98901 0-0.69268 0.18521-0.9742 0.46302-0.9742 0.27411 0 0.45932 0.28152 0.45932 0.9742 0 0.69268-0.18521 0.98901-0.45932 0.98901z" fill="#a6aeb8" stroke="none"/>
  </g>
  <g aria-label="0">
   <path d="m50.406 24.912c0.47043 0 0.75565-0.4408 0.75565-1.2335 0-0.79269-0.28522-1.2187-0.75565-1.2187-0.47413 0-0.75936 0.42598-0.75936 1.2187 0 0.79269 0.28522 1.2335 0.75936 1.2335zm0-0.24448c-0.27781 0-0.46302-0.29633-0.46302-0.98901 0-0.69268 0.18521-0.9742 0.46302-0.9742 0.27411 0 0.45932 0.28152 0.45932 0.9742 0 0.69268-0.18521 0.98901-0.45932 0.98901z" fill="#a6aeb8" stroke="none"/>
  </g>
  <g aria-label="0">
   <path d="m57.02 24.912c0.47043 0 0.75565-0.4408 0.75565-1.2335 0-0.79269-0.28522-1.2187-0.75565-1.2187-0.47413 0-0.75936 0.42598-0.75936 1.2187 0 0.79269 0.28522 1.2335 0.75936 1.2335zm0-0.24448c-0.27781 0-0.46302-0.29633-0.46302-0.98901 0-0.69268 0.18521-0.9742 0.46302-0.9742 0.27411 0 0.45932 0.28152 0.45932 0.9742 0 0.69268-0.18521 0.98901-0.45932 0.98901z" fill="#a6aeb8" stroke="none"/>
  </g>
  <g aria-label="0">
   <path d="m63.635 24.912c0.47043 0 0.75565-0.4408 0.75565-1.2335 0-0.79269-0.28522-1.2187-0.75565-1.2187-0.47413 0-0.75936 0.42598-0.75936 1.2187 0 0.79269 0.28522 1.2335 0.75936 1.2335zm0-0.24448c-0.27781 0-0.46302-0.29633-0.46302-0.98901 0-0.69268 0.18521-0.9742 0.46302-0.9742 0.27411 0 0.45932 0.28152 0.45932 0.9742 0 0.69268-0.18521 0.98901-0.45932 0.98901z" fill="#a6aeb8" stroke="none"/>
  </g>
  <g aria-label="0">
   <path d="m70.249 24.912c0.47043 0 0.75565-0.4408 0.75565-1.2335 0-0.79269-0.28522-1.2187-0.75565-1.2187-0.47413 0-0.75936 0.42598-0.75936 1.2187 0 0.79269 0.28522 1.2335 0.75936 1.2335zm0-0.24448c-0.27781 0-0.46302-0.29633-0.46302-0.98901 0-0.69268 0.18521-0.9742 0.46302-0.9742 0.27411 0 0.45932 0.28152 0.45932 0.9742 0 0.69268-0.18521 0.98901-0.45932 0.98901z" fill="#a6aeb8" stroke="none"/>
  </g>
  <g aria-label="0">
   <path d="m76.864 24.912c0.47043 0 0.75565-0.4408 0.75565-1.2335 0-0.79269-0.28522-1.2187-0.75565-1.2187-0.47413 0-0.75936 0.42598-0.75936 1.2187 0 0.79269 0.28522 1.2335 0.75936 1.2335zm0-0.24448c-0.27781 0-0.46302-0.29633-0.46302-0.98901 0-0.69268 0.18521-0.9742 0.46302-0.9742 0.27411 0 0.45932 0.28152 0.45932 0.9742 0 0.69268-0.18521 0.98901-0.45932 0.98901z" fill="#a6aeb8" stroke="none"/>
  </g>
  <g aria-label="0">
   <path d="m83.478 24.912c0.47043 0 0.75565-0.4408 0.75565-1.2335 0-0.79269-0.28522-1.2187-0.75565-1.2187-0.47413 0-0.75936 0.42598-0.75936 1.2187 0 0.79269 0.28522 1.2335 0.75936 1.2335zm0-0.24448c-0.27781 0-0.46302-0.29633-0.46302-0.98901 0-0.69268 0.18521-0.9742 0.46302-0.9742 0.27411 0 0.45932 0.28152 0.45932 0.9742 0 0.69268-0.18521 0.98901-0.45932 0.98901z" fill="#a6aeb8" stroke="none"/>
  </g>
 </g>
 <g fill="#6f8ce9" stroke="#cf2f25" stroke-linecap="round" stroke-width=".26458">
  <g aria-label="1">
   <path d="m89.463 24.868h1.3335v-0.25188h-0.48895v-2.1114h-0.23336c-0.12965 0.07779-0.28522 0.13706-0.50006 0.1741v0.19632h0.42968v1.741h-0.54081z" fill="#6f8ce9" stroke="none"/>
  </g>
  <g aria-label="1">
   <path d="m96.078 24.868h1.3335v-0.25188h-0.48895v-2.1114h-0.23336c-0.12965 0.07779-0.28522 0.13706-0.50006 0.1741v0.19632h0.42968v1.741h-0.54081z" fill="#6f8ce9" stroke="none"/>
  </g>
  <g aria-label="0">
   <path d="m103.32 24.912c0.47043 0 0.75565-0.4408 0.75565-1.2335 0-0.79269-0.28522-1.2187-0.75565-1.2187-0.47413 0-0.75935 0.42598-0.75935 1.2187 0 0.79269 0.28522 1.2335 0.75935 1.2335zm0-0.24448c-0.27781 0-0.46302-0.29633-0.46302-0.98901 0-0.69268 0.18521-0.9742 0.46302-0.9742 0.27411 0 0.45932 0.28152 0.45932 0.9742 0 0.69268-0.18521 0.98901-0.45932 0.98901z" fill="#6f8ce9" stroke="none"/>
  </g>
  <g aria-label="0">
   <path d="m109.94 24.912c0.47043 0 0.75565-0.4408 0.75565-1.2335 0-0.79269-0.28522-1.2187-0.75565-1.2187-0.47413 0-0.75935 0.42598-0.75935 1.2187 0 0.79269 0.28522 1.2335 0.75935 1.2335zm0-0.24448c-0.27781 0-0.46302-0.29633-0.46302-0.98901 0-0.69268 0.18521-0.9742 0.46302-0.9742 0.27411 0 0.45932 0.28152 0.45932 0.9742 0 0.69268-0.18521 0.98901-0.45932 0.98901z" fill="#6f8ce9" stroke="none"/>
  </g>
  <g aria-label="0">
   <path d="m116.55 24.912c0.47043 0 0.75565-0.4408 0.75565-1.2335 0-0.79269-0.28522-1.2187-0.75565-1.2187-0.47414 0-0.75936 0.42598-0.75936 1.2187 0 0.79269 0.28522 1.2335 0.75936 1.2335zm0-0.24448c-0.27782 0-0.46302-0.29633-0.46302-0.98901 0-0.69268 0.1852-0.9742 0.46302-0.9742 0.27411 0 0.45931 0.28152 0.45931 0.9742 0 0.69268-0.1852 0.98901-0.45931 0.98901z" fill="#6f8ce9" stroke="none"/>
  </g>
  <g aria-label="1">
   <path d="m122.54 24.868h1.3335v-0.25188h-0.48895v-2.1114h-0.23337c-0.12964 0.07779-0.28522 0.13706-0.50006 0.1741v0.19632h0.42968v1.741h-0.54081z" fill="#6f8ce9" stroke="none"/>
  </g>
 </g>
 <g fill="#e8eaec" stroke-linecap="round" stroke-width=".26458">
  <g aria-label="data in T-1">
   <path d="m0.13229 7.972c0 0.60008 0.29263 0.94086 0.74454 0.94086 0.21114 0 0.40375-0.11853 0.54451-0.25559h0.011112l0.025929 0.21114h0.25188v-2.6374h-0.30745v0.69268l0.014817 0.30745c-0.15928-0.12965-0.29633-0.20743-0.50377-0.20743-0.41116 0-0.78158 0.36301-0.78158 0.94827zm0.31485-0.0037c0-0.41116 0.22966-0.68898 0.51858-0.68898 0.14817 0 0.28522 0.051858 0.43709 0.18891v0.94086c-0.14817 0.16669-0.29263 0.24818-0.45932 0.24818-0.31485 0-0.49636-0.25929-0.49636-0.68898z"/>
   <path d="m2.2277 8.4016c0 0.32226 0.22595 0.51118 0.5297 0.51118 0.22225 0 0.42228-0.11853 0.59637-0.25929h0.00741l0.025929 0.21484h0.25188v-1.1038c0-0.4482-0.18521-0.74083-0.626-0.74083-0.28893 0-0.54081 0.12594-0.7075 0.23336l0.12224 0.21114c0.14076-0.096308 0.32597-0.19262 0.5371-0.19262 0.29263 0 0.37042 0.22225 0.37042 0.45191-0.76676 0.085196-1.1075 0.28152-1.1075 0.67416zm0.30004-0.022225c0-0.22966 0.20373-0.37783 0.80751-0.45191v0.50006c-0.1741 0.15558-0.31856 0.24077-0.49265 0.24077-0.1778 0-0.31485-0.085196-0.31485-0.28893z"/>
   <path d="m4.2639 8.3127c0 0.3556 0.12965 0.60008 0.51488 0.60008 0.11113 0 0.23336-0.033338 0.33338-0.066675l-0.059267-0.22966c-0.059267 0.022225-0.14076 0.048154-0.20373 0.048154-0.20743 0-0.27781-0.12594-0.27781-0.34819v-1.0001h0.48525v-0.24818h-0.48525v-0.50377h-0.25559l-0.037042 0.50377-0.28152 0.018521v0.22966h0.2667z"/>
   <path d="m5.3097 8.4016c0 0.32226 0.22595 0.51118 0.5297 0.51118 0.22225 0 0.42228-0.11853 0.59637-0.25929h0.00741l0.025929 0.21484h0.25188v-1.1038c0-0.4482-0.18521-0.74083-0.626-0.74083-0.28893 0-0.54081 0.12594-0.7075 0.23336l0.12224 0.21114c0.14076-0.096308 0.32597-0.19262 0.5371-0.19262 0.29263 0 0.37042 0.22225 0.37042 0.45191-0.76676 0.085196-1.1075 0.28152-1.1075 0.67416zm0.30004-0.022225c0-0.22966 0.20373-0.37783 0.80751-0.45191v0.50006c-0.1741 0.15558-0.31856 0.24077-0.49265 0.24077-0.1778 0-0.31485-0.085196-0.31485-0.28893z"/>
   <path d="m8.1948 6.6977c0.11853 0 0.21114-0.081492 0.21114-0.19632 0-0.11853-0.092604-0.19632-0.21114-0.19632-0.11853 0-0.21114 0.077788-0.21114 0.19632 0 0.11483 0.092604 0.19632 0.21114 0.19632zm-0.15558 2.1706h0.30374v-1.8002h-0.30374z"/>
   <path d="m8.9508 8.8684h0.30374v-1.3039c0.1815-0.1815 0.30745-0.27781 0.49265-0.27781 0.23707 0 0.34078 0.14446 0.34078 0.48154v1.1001h0.30374v-1.1409c0-0.45932-0.17039-0.70379-0.54822-0.70379-0.24818 0-0.43339 0.13335-0.60378 0.30374h-0.011112l-0.025929-0.25929h-0.25188z"/>
   <path d="m12.248 8.8684h0.30745v-2.1706h0.73713v-0.25929h-1.7817v0.25929h0.73713z"/>
   <path d="m13.241 8.0572h0.85196v-0.23336h-0.85196z"/>
   <path d="m14.532 8.8684h1.3335v-0.25188h-0.48895v-2.1114h-0.23336c-0.12965 0.077788-0.28522 0.13705-0.50006 0.1741v0.19632h0.42968v1.741h-0.54081z"/>
  </g>
  <g aria-label="data in T">
   <path d="m2.7056 15.909c0 0.60008 0.29263 0.94086 0.74454 0.94086 0.21114 0 0.40375-0.11853 0.54451-0.25559h0.011112l0.025929 0.21114h0.25188v-2.6374h-0.30745v0.69268l0.014817 0.30745c-0.15928-0.12965-0.29633-0.20743-0.50377-0.20743-0.41116 0-0.78158 0.36301-0.78158 0.94827zm0.31485-0.0037c0-0.41116 0.22966-0.68898 0.51858-0.68898 0.14817 0 0.28522 0.05186 0.43709 0.18891v0.94086c-0.14817 0.16669-0.29263 0.24818-0.45932 0.24818-0.31485 0-0.49636-0.25929-0.49636-0.68898z"/>
   <path d="m4.8011 16.339c0 0.32226 0.22595 0.51118 0.5297 0.51118 0.22225 0 0.42228-0.11853 0.59637-0.25929h0.00741l0.025929 0.21484h0.25188v-1.1038c0-0.4482-0.18521-0.74083-0.626-0.74083-0.28893 0-0.54081 0.12594-0.7075 0.23336l0.12224 0.21114c0.14076-0.09631 0.32597-0.19262 0.5371-0.19262 0.29263 0 0.37042 0.22225 0.37042 0.45191-0.76676 0.0852-1.1075 0.28152-1.1075 0.67416zm0.30004-0.02222c0-0.22966 0.20373-0.37783 0.80751-0.45191v0.50006c-0.1741 0.15558-0.31856 0.24077-0.49265 0.24077-0.1778 0-0.31485-0.0852-0.31485-0.28892z"/>
   <path d="m6.8373 16.25c0 0.3556 0.12965 0.60008 0.51488 0.60008 0.11113 0 0.23336-0.03334 0.33338-0.06668l-0.059267-0.22966c-0.059267 0.02223-0.14076 0.04816-0.20373 0.04816-0.20743 0-0.27781-0.12594-0.27781-0.34819v-1.0001h0.48525v-0.24818h-0.48525v-0.50377h-0.25559l-0.037042 0.50377-0.28152 0.01852v0.22966h0.2667z"/>
   <path d="m7.883 16.339c0 0.32226 0.22595 0.51118 0.5297 0.51118 0.22225 0 0.42228-0.11853 0.59637-0.25929h0.00741l0.025929 0.21484h0.25188v-1.1038c0-0.4482-0.18521-0.74083-0.626-0.74083-0.28893 0-0.54081 0.12594-0.7075 0.23336l0.12224 0.21114c0.14076-0.09631 0.32597-0.19262 0.5371-0.19262 0.29263 0 0.37042 0.22225 0.37042 0.45191-0.76676 0.0852-1.1075 0.28152-1.1075 0.67416zm0.30004-0.02222c0-0.22966 0.20373-0.37783 0.80751-0.45191v0.50006c-0.1741 0.15558-0.31856 0.24077-0.49265 0.24077-0.1778 0-0.31485-0.0852-0.31485-0.28892z"/>
   <path d="m10.768 14.635c0.11853 0 0.21114-0.08149 0.21114-0.19632 0-0.11853-0.0926-0.19632-0.21114-0.19632-0.11853 0-0.21114 0.07779-0.21114 0.19632 0 0.11483 0.09261 0.19632 0.21114 0.19632zm-0.15558 2.1706h0.30374v-1.8002h-0.30374z"/>
   <path d="m11.524 16.806h0.30374v-1.3039c0.1815-0.1815 0.30745-0.27781 0.49265-0.27781 0.23707 0 0.34078 0.14446 0.34078 0.48154v1.1001h0.30374v-1.1409c0-0.45932-0.17039-0.70379-0.54822-0.70379-0.24818 0-0.43339 0.13335-0.60378 0.30374h-0.01111l-0.02593-0.25929h-0.25188z"/>
   <path d="m14.821 16.806h0.30745v-2.1706h0.73713v-0.25929h-1.7817v0.25929h0.73713z"/>
  </g>
  <g aria-label="XOR diff">
   <path d="m3.5805 24.743h0.32226l0.3519-0.65564c0.062971-0.11853 0.12224-0.24077 0.19262-0.38894h0.014817c0.077788 0.14817 0.14446 0.2704 0.20743 0.38894l0.3593 0.65564h0.34078l-0.7075-1.2409 0.65934-1.189h-0.32597l-0.32226 0.6223c-0.059267 0.11112-0.10372 0.21114-0.17039 0.3519h-0.014817c-0.077788-0.14076-0.12965-0.24077-0.18891-0.3519l-0.33338-0.6223h-0.34078l0.66305 1.1742z"/>
   <path d="m6.5707 24.788c0.60748 0 1.0372-0.48895 1.0372-1.2705 0-0.77417-0.42968-1.2483-1.0372-1.2483-0.61119 0-1.0409 0.47043-1.0409 1.2483 0 0.78158 0.42968 1.2705 1.0409 1.2705zm0-0.2704c-0.43709 0-0.72231-0.39264-0.72231-1.0001 0-0.60378 0.28522-0.9779 0.72231-0.9779 0.43339 0 0.71861 0.37412 0.71861 0.9779 0 0.60748-0.28522 1.0001-0.71861 1.0001z"/>
   <path d="m8.4198 22.562h0.40746c0.37783 0 0.58526 0.11483 0.58526 0.43339 0 0.31485-0.20743 0.47043-0.58526 0.47043h-0.40746zm1.3742 2.1818-0.6186-1.0594c0.32967-0.08519 0.54451-0.31115 0.54451-0.68898 0-0.50377-0.3556-0.68157-0.84825-0.68157h-0.76306v2.4299h0.31115v-1.0261h0.43709l0.58526 1.0261z"/>
   <path d="m10.84 23.847c0 0.60008 0.29263 0.94086 0.74454 0.94086 0.21114 0 0.40376-0.11853 0.54451-0.25559h0.01111l0.02593 0.21114h0.25188v-2.6374h-0.30745v0.69268l0.01482 0.30745c-0.15928-0.12965-0.29633-0.20743-0.50377-0.20743-0.41116 0-0.78158 0.36301-0.78158 0.94827zm0.31486-0.0037c0-0.41116 0.22966-0.68898 0.51858-0.68898 0.14817 0 0.28522 0.05186 0.43709 0.18891v0.94086c-0.14817 0.16669-0.29263 0.24818-0.45932 0.24818-0.31485 0-0.49636-0.25929-0.49636-0.68898z"/>
   <path d="m13.18 22.573c0.11853 0 0.21114-0.08149 0.21114-0.19632 0-0.11853-0.0926-0.19632-0.21114-0.19632-0.11853 0-0.21114 0.07779-0.21114 0.19632 0 0.11483 0.0926 0.19632 0.21114 0.19632zm-0.15558 2.1706h0.30374v-1.8002h-0.30374z"/>
   <path d="m15.866 22.121c-0.08149-0.03334-0.18891-0.05927-0.30004-0.05927-0.3593 0-0.52599 0.22966-0.52599 0.59637v0.28522h-0.74824v-0.22966c0-0.23707 0.10372-0.36671 0.28152-0.36671 0.0889 0 0.16298 0.01482 0.24077 0.04815l0.06297-0.22966c-0.0889-0.04075-0.21114-0.06668-0.32967-0.06668-0.37412 0-0.55933 0.23336-0.55933 0.60748v0.23707l-0.24448 0.01852v0.22966h0.24448v1.552h0.30374v-1.552h0.74824v1.552h0.30374v-1.552h0.38153v-0.24818h-0.38153v-0.28522c0-0.22966 0.0852-0.34819 0.25559-0.34819 0.06297 0 0.13335 0.01482 0.20373 0.04445z"/>
  </g>
 </g>
</svg>
