<?xml version="1.0" encoding="UTF-8"?>
<svg width="94.219mm" height="25.095mm" version="1.1" viewBox="0 0 94.219 25.095" xmlns="http://www.w3.org/2000/svg" xmlns:cc="http://creativecommons.org/ns#" xmlns:dc="http://purl.org/dc/elements/1.1/" xmlns:rdf="http://www.w3.org/1999/02/22-rdf-syntax-ns#">
 <metadata>
  <rdf:RDF>
   <cc:Work rdf:about="">
    <dc:format>image/svg+xml</dc:format>
    <dc:type rdf:resource="http://purl.org/dc/dcmitype/StillImage"/>
    <dc:title/>
   </cc:Work>
  </rdf:RDF>
 </metadata>
 <g fill="#d2d6dc">
  <g opacity=".91" aria-label="0">
   <path d="m7.9297 0.011112c-0.36671 0-0.74454 0.45191-0.74454 1.189 0 0.74824 0.38153 1.1779 0.74824 1.1779 0.33338 0 0.72972-0.36301 0.72972-1.1594 0-0.78528-0.37783-1.2076-0.73343-1.2076zm0.3593 0.5297-0.81121 1.052c-0.033338-0.12965-0.051858-0.27411-0.051858-0.43709 0-0.59267 0.2704-0.91863 0.50006-0.91863 0.12594 0 0.263 0.10001 0.36301 0.30374zm0.085196 0.24448c0.033338 0.12965 0.048154 0.28522 0.048154 0.46673 0 0.64453-0.27781 0.889-0.48154 0.889-0.13705 0-0.27781-0.11113-0.37783-0.31485z" fill="#d2d6dc" stroke-width=".28222px"/>
  </g>
  <g opacity=".91" aria-label="8">
   <path d="m29.122-1.0729e-7c-0.3556 0-0.626 0.25559-0.626 0.56674 0 0.22595 0.14446 0.43339 0.3519 0.54081-0.27411 0.12965-0.45932 0.38153-0.45932 0.64823 0 0.34449 0.30374 0.6186 0.70009 0.6186 0.40375 0 0.7112-0.28152 0.7112-0.63341 0-0.27411-0.18521-0.51858-0.4445-0.64082 0.22225-0.11483 0.36671-0.33338 0.36671-0.55563 0-0.30374-0.263-0.54451-0.60008-0.54451zm-0.077787 1.215c0.29633 0.092604 0.49265 0.29633 0.49265 0.52229 0 0.22225-0.18891 0.40375-0.43709 0.40375-0.25188 0-0.4445-0.18891-0.4445-0.41857 0-0.21855 0.17039-0.41857 0.38894-0.50747zm0.05556-1.0001c0.20743 0 0.37042 0.15558 0.37042 0.34819 0 0.1778-0.13705 0.34819-0.31856 0.4445 0 0-0.40746-0.15558-0.40746-0.46302 0-0.1815 0.15558-0.32967 0.3556-0.32967z" fill="#d2d6dc" stroke-width=".28222px"/>
  </g>
  <g opacity=".91" stroke-width=".28222px" aria-label="16">
   <path d="m49.507 0.025929h-0.17039l-0.59267 0.30745 0.05927 0.14446 0.45932-0.12965v1.7854h-0.42968v0.20373h1.089v-0.20373h-0.41487z"/>
   <path d="m51.322-1.0729e-7c-0.27781 0-0.57415 0.17039-0.71861 0.57415-0.07779 0.21855-0.09631 0.48895-0.09631 0.7112 0 0.2704 0.02593 0.55933 0.1741 0.78158 0.13335 0.20373 0.34078 0.30745 0.54451 0.30745 0.3519 0 0.65934-0.29633 0.65934-0.77417 0-0.47784-0.30745-0.75565-0.63341-0.75565-0.20002 0-0.38894 0.10742-0.48895 0.27781 0.01482-0.78899 0.39264-0.8927 0.55933-0.8927 0.15187 0 0.25559 0.081492 0.2704 0.096308 0.02222 0.025929 0.02222 0.059267 0.05556 0.085196l0.1778-0.20003c-0.13335-0.13335-0.31856-0.21114-0.50376-0.21114zm-0.096309 1.0742c0.18521 0 0.40746 0.14446 0.40746 0.54081 0 0.3593-0.20002 0.5297-0.39635 0.5297-0.28152 0-0.49266-0.32967-0.46302-0.76306 0.10372-0.18891 0.28152-0.30745 0.45191-0.30745z"/>
  </g>
  <g opacity=".91" stroke-width=".28222px" aria-label="24">
   <path d="m69.859 0.38523 0.18891 0.15187c0.02223-0.033338 0.01111-0.055562 0.03334-0.085196 0.05556-0.085196 0.19262-0.21114 0.39264-0.21114 0.24818 0 0.4445 0.18891 0.4445 0.43709 0 0.28152-0.23707 0.48525-0.40376 0.63712-0.263 0.23707-0.47784 0.47413-0.67046 0.85566v0.16298h1.3557v-0.25559c-0.02593-0.011113-0.04445 0.00741-0.05186 0.014817-0.01482 0.014817-0.02222 0.014817-0.03704 0.014817h-0.97049c0.19262-0.33338 0.46302-0.56303 0.62971-0.71861 0.16669-0.15928 0.40375-0.39635 0.40375-0.72972 0-0.3593-0.29263-0.64823-0.66675-0.64823-0.263 0-0.51118 0.14076-0.64823 0.37412z"/>
   <path d="m72.585 0.025929-0.9816 1.478v0.19262h0.92975v0.63712h0.2667v-0.63341h0.30004v-0.22966h-0.30004v-1.4446zm-0.04815 0.41116v1.0335h-0.67786z"/>
  </g>
  <g opacity=".91" stroke-width=".28222px" aria-label="32">
   <path d="m92.259 0.60378c0-0.31485-0.2667-0.58526-0.63341-0.58526-0.20743 0-0.41116 0.0889-0.55563 0.24818l0.14446 0.15928c0.10742-0.11483 0.25559-0.1778 0.40005-0.1778 0.23707 0 0.40005 0.16669 0.40005 0.36301 0 0.13705-0.0852 0.29263-0.24818 0.36301-0.04075 0.014817-0.14446 0.055562-0.36301 0.055562v0.20743c0.03704-0.0037 0.07779-0.00741 0.11853-0.00741 0.31115 0 0.54081 0.16298 0.54081 0.4408 0 0.25188-0.19262 0.47043-0.46302 0.47043-0.21484 0-0.34449-0.14076-0.36301-0.15928-0.02963-0.033338-0.01482-0.070379-0.04815-0.10372l-0.19262 0.23336c0.15187 0.1741 0.37412 0.263 0.60378 0.263 0.4445 0 0.7112-0.31485 0.7112-0.67416 0-0.27411-0.15558-0.50747-0.39635-0.59637 0.20743-0.077788 0.34449-0.27411 0.34449-0.50006z"/>
   <path d="m92.878 0.38523 0.18891 0.15187c0.02223-0.033338 0.01111-0.055562 0.03334-0.085196 0.05556-0.085196 0.19262-0.21114 0.39264-0.21114 0.24818 0 0.4445 0.18891 0.4445 0.43709 0 0.28152-0.23707 0.48525-0.40376 0.63712-0.263 0.23707-0.47784 0.47413-0.67046 0.85566v0.16298h1.3557v-0.25559c-0.02593-0.011113-0.04445 0.00741-0.05186 0.014817-0.01482 0.014817-0.02222 0.014817-0.03704 0.014817h-0.97049c0.19262-0.33338 0.46302-0.56303 0.62971-0.71861 0.16669-0.15928 0.40376-0.39635 0.40376-0.72972 0-0.3593-0.29263-0.64823-0.66675-0.64823-0.263 0-0.51118 0.14076-0.64823 0.37412z"/>
  </g>
 </g>
 <rect x=".066146" y="3.8623" width="92.604" height="21.167" fill="#1d232d"/>
 <path d="m0.066146 3.8623h92.604" fill="#e9e56f" stroke="#535e70" stroke-linecap="round" stroke-width=".13229"/>
 <g fill="#6f8ce9">
  <g stroke="#535e70" stroke-linecap="round" stroke-width=".13229">
   <path d="m0.066146 9.154h92.604"/>
   <path d="m0.066146 14.446h92.604"/>
   <path d="m0.066146 19.737h92.604"/>
   <path d="m0.066146 25.029h92.604"/>
   <path d="m8.0036 3.8623v21.167"/>
  </g>
  <g>
   <g opacity=".91" stroke-width=".28222px" aria-label="Bit">
    <path d="m1.357 5.3176v2.3077h0.65193c0.15558 0 0.31485 0 0.47413-0.066675 0.24818-0.10742 0.38523-0.33338 0.38523-0.57044 0-0.2704-0.1741-0.51118-0.42968-0.59637 0.20373-0.085196 0.34078-0.28893 0.34078-0.50747 0-0.20743-0.11853-0.40746-0.33708-0.50006-0.14446-0.062971-0.28893-0.066675-0.42968-0.066675zm0.25559 0.22225h0.36301c0.10001 0 0.20373 0 0.30745 0.040746 0.15187 0.062971 0.23336 0.19262 0.23336 0.32597 0 0.13335-0.077787 0.25929-0.22225 0.32226-0.10742 0.04445-0.21855 0.04445-0.32226 0.04445h-0.3593zm0 0.95197h0.37783c0.11483 0 0.22966 0.0037 0.34449 0.059267 0.17039 0.077788 0.263 0.24448 0.263 0.41116 0 0.16669-0.0889 0.31856-0.24818 0.39264-0.10001 0.04445-0.19632 0.04445-0.29633 0.04445h-0.4408z"/>
    <path d="m3.4239 5.9325v0.21855h0.40746v1.2631h-0.42968v0.21114h1.0964v-0.21114h-0.39635v-1.4817zm0.54822-0.73343c-0.10742 0-0.19262 0.085196-0.19262 0.18891s0.085196 0.18891 0.19262 0.18891c0.10742 0 0.19262-0.085196 0.19262-0.18891 0-0.10372-0.085196-0.18891-0.19262-0.18891z"/>
    <path d="m5.5797 5.4806-0.033338 0.45561h-0.40375l-0.0037 0.21855h0.39634c-0.022225 0.28893-0.033338 0.57785-0.033338 0.86307 0 0.15187 0 0.32226 0.10001 0.46302 0.081492 0.11113 0.21114 0.1778 0.38523 0.1778 0.20003 0 0.39635-0.085196 0.54081-0.18891l-0.081491-0.21114c-0.14446 0.10742-0.27781 0.15558-0.38153 0.15558-0.12594 0-0.25559-0.070379-0.28522-0.27411 0-0.014817-0.011112-0.077788-0.011112-0.32597 0-0.21855 0.011112-0.4408 0.033338-0.65934h0.55562v-0.22225h-0.55192s0.025929-0.30374 0.04445-0.40005c0.0037-0.037042 0.033338-0.059267 0.018521-0.10001z"/>
   </g>
   <g opacity=".91" aria-label="0">
    <path d="m3.961 10.594c-0.36671 0-0.74454 0.45191-0.74454 1.189 0 0.74824 0.38153 1.1779 0.74824 1.1779 0.33338 0 0.72972-0.36301 0.72972-1.1594 0-0.78528-0.37783-1.2076-0.73343-1.2076zm0.3593 0.5297-0.81121 1.052c-0.033338-0.12965-0.051858-0.27411-0.051858-0.43709 0-0.59267 0.2704-0.91863 0.50006-0.91863 0.12594 0 0.263 0.10001 0.36301 0.30374zm0.085196 0.24448c0.033338 0.12965 0.048154 0.28522 0.048154 0.46672 0 0.64453-0.27781 0.889-0.48154 0.889-0.13705 0-0.27781-0.11112-0.37783-0.31486z" fill="#6f8ce9" stroke-width=".28222px"/>
   </g>
   <g opacity=".91" stroke-width=".28222px" aria-label="32">
    <path d="m3.6239 16.479c0-0.31485-0.2667-0.58526-0.63341-0.58526-0.20743 0-0.41116 0.0889-0.55563 0.24818l0.14446 0.15928c0.10742-0.11483 0.25559-0.1778 0.40005-0.1778 0.23707 0 0.40005 0.16669 0.40005 0.36301 0 0.13705-0.085196 0.29263-0.24818 0.36301-0.040746 0.01482-0.14446 0.05556-0.36301 0.05556v0.20743c0.037042-0.0037 0.077788-0.0074 0.11853-0.0074 0.31115 0 0.54081 0.16298 0.54081 0.4408 0 0.25188-0.19262 0.47043-0.46302 0.47043-0.21484 0-0.34449-0.14076-0.36301-0.15928-0.029633-0.03334-0.014817-0.07038-0.048154-0.10372l-0.19262 0.23336c0.15187 0.1741 0.37412 0.263 0.60378 0.263 0.4445 0 0.7112-0.31486 0.7112-0.67416 0-0.27411-0.15558-0.50747-0.39635-0.59637 0.20743-0.07779 0.34449-0.27411 0.34449-0.50006z"/>
    <path d="m4.2425 16.26 0.18891 0.15187c0.022225-0.03334 0.011113-0.05556 0.033338-0.0852 0.055563-0.08519 0.19262-0.21114 0.39264-0.21114 0.24818 0 0.4445 0.18891 0.4445 0.43709 0 0.28152-0.23707 0.48525-0.40375 0.63712-0.263 0.23707-0.47784 0.47413-0.67045 0.85566v0.16298h1.3557v-0.25559c-0.025929-0.01111-0.04445 0.0074-0.051858 0.01482-0.014817 0.01482-0.022225 0.01482-0.037042 0.01482h-0.97049c0.19262-0.33338 0.46302-0.56303 0.62971-0.71861 0.16669-0.15928 0.40375-0.39635 0.40375-0.72972 0-0.3593-0.29263-0.64823-0.66675-0.64823-0.263 0-0.51118 0.14076-0.64823 0.37412z"/>
   </g>
   <g opacity=".91" stroke-width=".28222px" aria-label="64">
    <path d="m3.1683 21.167c-0.27781 0-0.57415 0.17039-0.71861 0.57415-0.077788 0.21855-0.096308 0.48895-0.096308 0.7112 0 0.2704 0.025929 0.55933 0.1741 0.78158 0.13335 0.20373 0.34078 0.30745 0.54451 0.30745 0.3519 0 0.65934-0.29633 0.65934-0.77417s-0.30745-0.75565-0.63341-0.75565c-0.20003 0-0.38894 0.10742-0.48895 0.27781 0.014817-0.78899 0.39264-0.8927 0.55933-0.8927 0.15187 0 0.25559 0.08149 0.2704 0.09631 0.022225 0.02593 0.022225 0.05927 0.055562 0.08519l0.1778-0.20002c-0.13335-0.13335-0.31856-0.21114-0.50377-0.21114zm-0.096308 1.0742c0.18521 0 0.40746 0.14446 0.40746 0.54081 0 0.3593-0.20003 0.5297-0.39635 0.5297-0.28152 0-0.49265-0.32967-0.46302-0.76306 0.10372-0.18891 0.28152-0.30745 0.45191-0.30745z"/>
    <path d="m5.1167 21.193-0.98161 1.478v0.19262h0.92975v0.63712h0.2667v-0.63341h0.30004v-0.22966h-0.30004v-1.4446zm-0.048154 0.41116v1.0335h-0.67786z"/>
   </g>
  </g>
  <g stroke="#535e70" stroke-linecap="round" stroke-width=".13229">
   <path d="m0.066146 3.8623v21.167"/>
   <path d="m92.67 3.8623v21.167"/>
   <path d="m50.337 3.8623v10.583"/>
  </g>
  <g opacity=".91" stroke-width=".28222px" aria-label="Bits 0-15">
   <path d="m20.936 5.3176v2.3077h0.65193c0.15558 0 0.31486 0 0.47413-0.066675 0.24818-0.10742 0.38523-0.33338 0.38523-0.57044 0-0.2704-0.1741-0.51118-0.42968-0.59637 0.20373-0.085196 0.34078-0.28893 0.34078-0.50747 0-0.20743-0.11853-0.40746-0.33708-0.50006-0.14446-0.062971-0.28892-0.066675-0.42968-0.066675zm0.25559 0.22225h0.36301c0.10001 0 0.20373 0 0.30745 0.040746 0.15187 0.062971 0.23336 0.19262 0.23336 0.32597 0 0.13335-0.07779 0.25929-0.22225 0.32226-0.10742 0.04445-0.21855 0.04445-0.32226 0.04445h-0.3593zm0 0.95197h0.37783c0.11483 0 0.22966 0.0037 0.34449 0.059267 0.17039 0.077788 0.263 0.24448 0.263 0.41116 0 0.16669-0.0889 0.31856-0.24818 0.39264-0.10001 0.04445-0.19632 0.04445-0.29633 0.04445h-0.4408z"/>
   <path d="m23.003 5.9325v0.21855h0.40746v1.2631h-0.42968v0.21114h1.0964v-0.21114h-0.39635v-1.4817zm0.54822-0.73343c-0.10742 0-0.19262 0.085196-0.19262 0.18891s0.0852 0.18891 0.19262 0.18891c0.10742 0 0.19262-0.085196 0.19262-0.18891 0-0.10372-0.0852-0.18891-0.19262-0.18891z"/>
   <path d="m25.159 5.4806-0.03334 0.45561h-0.40376l-0.0037 0.21855h0.39635c-0.02222 0.28893-0.03334 0.57785-0.03334 0.86307 0 0.15187 0 0.32226 0.10001 0.46302 0.08149 0.11113 0.21114 0.1778 0.38523 0.1778 0.20002 0 0.39635-0.085196 0.54081-0.18891l-0.08149-0.21114c-0.14446 0.10742-0.27781 0.15558-0.38153 0.15558-0.12594 0-0.25559-0.070379-0.28522-0.27411 0-0.014817-0.01111-0.077788-0.01111-0.32597 0-0.21855 0.01111-0.4408 0.03334-0.65934h0.55562v-0.22225h-0.55192s0.02593-0.30374 0.04445-0.40005c0.0037-0.037042 0.03334-0.059267 0.01852-0.10001z"/>
   <path d="m27.915 6.1584c-0.15558-0.17039-0.38153-0.263-0.63341-0.263-0.39264 0-0.64823 0.21855-0.64823 0.47043 0 0.29633 0.31856 0.40375 0.41116 0.43709 0.14446 0.051858 0.32967 0.096308 0.45561 0.15558 0.14076 0.066675 0.16669 0.15558 0.16669 0.21484 0 0.15928-0.19262 0.2667-0.43339 0.2667-0.28892 0-0.47413-0.1741-0.5297-0.23336-0.01111-0.014817-0.01111-0.025929-0.01111-0.040746 0-0.0037 0.0037-0.025929-0.01482-0.033338l-0.15558 0.263c0.20002 0.18521 0.45932 0.2704 0.7149 0.2704 0.46302 0 0.70379-0.27411 0.70379-0.5297 0-0.11483-0.04815-0.2704-0.24818-0.38153-0.18891-0.10742-0.46302-0.14446-0.6223-0.22225-0.13705-0.066675-0.16669-0.14817-0.16669-0.20743 0-0.13335 0.16669-0.22966 0.3556-0.22966 0.24448 0 0.40746 0.14817 0.47043 0.23336 0.01111 0.011112 0.0074 0.022225 0.0074 0.033338 0 0.022225 0.01482 0.029633 0.02222 0.029633z"/>
   <path d="m30.948 5.3028c-0.36671 0-0.74454 0.45191-0.74454 1.189 0 0.74824 0.38153 1.1779 0.74824 1.1779 0.33338 0 0.72972-0.36301 0.72972-1.1594 0-0.78528-0.37782-1.2076-0.73342-1.2076zm0.3593 0.5297-0.81121 1.052c-0.03334-0.12965-0.05186-0.27411-0.05186-0.43709 0-0.59267 0.2704-0.91863 0.50006-0.91863 0.12594 0 0.263 0.10001 0.36301 0.30374zm0.0852 0.24448c0.03334 0.12965 0.04815 0.28522 0.04815 0.46673 0 0.64453-0.27781 0.889-0.48154 0.889-0.13705 0-0.27781-0.11113-0.37782-0.31485z"/>
   <path d="m32.13 6.3399v0.24448h1.3335v-0.24448z"/>
   <path d="m34.823 5.3176h-0.17039l-0.59267 0.30745 0.05927 0.14446 0.45932-0.12965v1.7854h-0.42968v0.20373h1.089v-0.20373h-0.41487z"/>
   <path d="m35.968 5.3176-0.08149 1.1742 0.16669 0.066675c0.11112-0.14076 0.27411-0.21855 0.43339-0.21855 0.24077 0 0.47043 0.18521 0.47043 0.55192 0 0.3556-0.21855 0.54822-0.46673 0.54822-0.24818 0-0.41116-0.18891-0.42228-0.21114-0.01482-0.029633 0.0037-0.066675-0.02963-0.0889l-0.22966 0.1741c0.15558 0.22595 0.41116 0.3556 0.68527 0.3556 0.40005 0 0.72972-0.2704 0.72972-0.77047 0-0.49636-0.31115-0.77047-0.70009-0.77047-0.12594 0-0.25559 0.029633-0.37412 0.0889l0.03334-0.66675h0.95567v-0.23336z"/>
  </g>
  <g opacity=".91" stroke-width=".28222px" aria-label="Bits 16-31">
   <path d="m62.343 5.3176v2.3077h0.65193c0.15558 0 0.31486 0 0.47413-0.066675 0.24818-0.10742 0.38523-0.33338 0.38523-0.57044 0-0.2704-0.1741-0.51118-0.42968-0.59637 0.20373-0.085196 0.34078-0.28893 0.34078-0.50747 0-0.20743-0.11853-0.40746-0.33708-0.50006-0.14446-0.062971-0.28892-0.066675-0.42968-0.066675zm0.25559 0.22225h0.36301c0.10001 0 0.20373 0 0.30745 0.040746 0.15187 0.062971 0.23336 0.19262 0.23336 0.32597 0 0.13335-0.07779 0.25929-0.22225 0.32226-0.10742 0.04445-0.21855 0.04445-0.32226 0.04445h-0.3593zm0 0.95197h0.37782c0.11483 0 0.22966 0.0037 0.34449 0.059267 0.17039 0.077788 0.263 0.24448 0.263 0.41116 0 0.16669-0.0889 0.31856-0.24818 0.39264-0.10001 0.04445-0.19632 0.04445-0.29633 0.04445h-0.4408z"/>
   <path d="m64.41 5.9325v0.21855h0.40746v1.2631h-0.42968v0.21114h1.0964v-0.21114h-0.39635v-1.4817zm0.54822-0.73343c-0.10742 0-0.19262 0.085196-0.19262 0.18891s0.0852 0.18891 0.19262 0.18891c0.10742 0 0.19262-0.085196 0.19262-0.18891 0-0.10372-0.0852-0.18891-0.19262-0.18891z"/>
   <path d="m66.566 5.4806-0.03334 0.45561h-0.40375l-0.0037 0.21855h0.39635c-0.02222 0.28893-0.03334 0.57785-0.03334 0.86307 0 0.15187 0 0.32226 0.10001 0.46302 0.08149 0.11113 0.21114 0.1778 0.38523 0.1778 0.20002 0 0.39635-0.085196 0.54081-0.18891l-0.08149-0.21114c-0.14446 0.10742-0.27781 0.15558-0.38153 0.15558-0.12594 0-0.25559-0.070379-0.28522-0.27411 0-0.014817-0.01111-0.077788-0.01111-0.32597 0-0.21855 0.01111-0.4408 0.03334-0.65934h0.55563v-0.22225h-0.55192s0.02593-0.30374 0.04445-0.40005c0.0037-0.037042 0.03334-0.059267 0.01852-0.10001z"/>
   <path d="m69.322 6.1584c-0.15558-0.17039-0.38153-0.263-0.63341-0.263-0.39264 0-0.64823 0.21855-0.64823 0.47043 0 0.29633 0.31856 0.40375 0.41116 0.43709 0.14446 0.051858 0.32967 0.096308 0.45561 0.15558 0.14076 0.066675 0.16669 0.15558 0.16669 0.21484 0 0.15928-0.19262 0.2667-0.43339 0.2667-0.28892 0-0.47413-0.1741-0.5297-0.23336-0.01111-0.014817-0.01111-0.025929-0.01111-0.040746 0-0.0037 0.0037-0.025929-0.01482-0.033338l-0.15558 0.263c0.20003 0.18521 0.45932 0.2704 0.7149 0.2704 0.46302 0 0.70379-0.27411 0.70379-0.5297 0-0.11483-0.04815-0.2704-0.24818-0.38153-0.18891-0.10742-0.46302-0.14446-0.6223-0.22225-0.13706-0.066675-0.16669-0.14817-0.16669-0.20743 0-0.13335 0.16669-0.22966 0.3556-0.22966 0.24448 0 0.40746 0.14817 0.47043 0.23336 0.01111 0.011112 0.0074 0.022225 0.0074 0.033338 0 0.022225 0.01482 0.029633 0.02222 0.029633z"/>
   <path d="m72.526 5.3176h-0.17039l-0.59267 0.30745 0.05927 0.14446 0.45932-0.12965v1.7854h-0.42968v0.20373h1.089v-0.20373h-0.41487z"/>
   <path d="m74.341 5.2917c-0.27781 0-0.57415 0.17039-0.71861 0.57415-0.07779 0.21855-0.09631 0.48895-0.09631 0.7112 0 0.2704 0.02593 0.55933 0.1741 0.78158 0.13335 0.20373 0.34078 0.30745 0.54451 0.30745 0.3519 0 0.65934-0.29633 0.65934-0.77417 0-0.47784-0.30745-0.75565-0.63341-0.75565-0.20002 0-0.38894 0.10742-0.48895 0.27781 0.01482-0.78899 0.39264-0.8927 0.55933-0.8927 0.15187 0 0.25559 0.081492 0.2704 0.096308 0.02222 0.025929 0.02222 0.059267 0.05556 0.085196l0.1778-0.20003c-0.13335-0.13335-0.31856-0.21114-0.50376-0.21114zm-0.09631 1.0742c0.18521 0 0.40746 0.14446 0.40746 0.54081 0 0.3593-0.20002 0.5297-0.39635 0.5297-0.28152 0-0.49266-0.32967-0.46302-0.76306 0.10372-0.18891 0.28152-0.30745 0.45191-0.30745z"/>
   <path d="m75.389 6.3399v0.24448h1.3335v-0.24448z"/>
   <path d="m78.501 5.8954c0-0.31485-0.2667-0.58526-0.63341-0.58526-0.20743 0-0.41116 0.0889-0.55563 0.24818l0.14446 0.15928c0.10742-0.11483 0.25559-0.1778 0.40005-0.1778 0.23707 0 0.40005 0.16669 0.40005 0.36301 0 0.13705-0.08519 0.29263-0.24818 0.36301-0.04075 0.014817-0.14446 0.055563-0.36301 0.055563v0.20743c0.03704-0.0037 0.07779-0.00741 0.11853-0.00741 0.31115 0 0.54081 0.16298 0.54081 0.4408 0 0.25188-0.19262 0.47043-0.46302 0.47043-0.21484 0-0.34449-0.14076-0.36301-0.15928-0.02963-0.033338-0.01482-0.070379-0.04815-0.10372l-0.19262 0.23336c0.15187 0.1741 0.37412 0.263 0.60378 0.263 0.4445 0 0.7112-0.31485 0.7112-0.67416 0-0.27411-0.15558-0.50747-0.39635-0.59637 0.20743-0.077788 0.34449-0.27411 0.34449-0.50006z"/>
   <path d="m79.935 5.3176h-0.17039l-0.59267 0.30745 0.05927 0.14446 0.45932-0.12965v1.7854h-0.42968v0.20373h1.089v-0.20373h-0.41487z"/>
  </g>
 </g>
 <g fill="#d2d6dc" opacity=".91" stroke-width=".28222px" aria-label="Event Type">
  <path d="m9.4638 10.609v2.3077h1.4076v-0.22966h-1.1594v-0.85566h0.96308v-0.23707h-0.96308v-0.75565h1.1668v-0.22966z"/>
  <path d="m11.245 11.224 0.67045 1.7076h0.21114l0.41116-0.96679c0.10001-0.23707 0.19632-0.48154 0.25188-0.74083h-0.24077c-0.04445 0.24818-0.13335 0.48154-0.22966 0.70379l-0.2704 0.62971-0.48895-1.2372c-0.0037-0.0074-0.0074-0.01482-0.0074-0.02223 0-0.02222 0.01852-0.04445 0.01111-0.07408z"/>
  <path d="m13.909 11.187c-0.40376 0-0.77788 0.28893-0.77788 0.90382 0 0.56674 0.3519 0.86678 0.81121 0.86678 0.24448 0 0.46302-0.0889 0.60748-0.263l-0.14817-0.14446c-0.10742 0.12594-0.2704 0.19262-0.43709 0.19262-0.22595 0-0.55562-0.12594-0.57415-0.63341h1.2002c0.01111-0.11483 0.0074-0.22596-0.01111-0.32226-0.07779-0.45561-0.39264-0.60008-0.67046-0.60008zm-0.51118 0.71861c0.05556-0.40005 0.31115-0.51488 0.49266-0.51488 0.27411 0 0.47043 0.24077 0.43709 0.51488z"/>
  <path d="m15.057 12.917h0.2704v-0.9742c0-0.11112 0.01482-0.19632 0.0852-0.28892 0.06297-0.0852 0.22595-0.23707 0.40375-0.23707 0.0852 0 0.17039 0.03704 0.22966 0.10742 0.0926 0.11112 0.0926 0.25559 0.0926 0.37412v1.0186h0.263v-1.0261c0-0.12965 0-0.2704-0.05927-0.40746-0.0852-0.18891-0.25929-0.29633-0.45191-0.29633-0.22966 0-0.43709 0.14817-0.56303 0.33708v-0.29633h-0.2704z"/>
  <path d="m17.354 10.772-0.03334 0.45561h-0.40375l-0.0037 0.21855h0.39635c-0.02222 0.28892-0.03334 0.57785-0.03334 0.86307 0 0.15187 0 0.32226 0.10001 0.46302 0.08149 0.11112 0.21114 0.1778 0.38523 0.1778 0.20002 0 0.39635-0.0852 0.54081-0.18891l-0.08149-0.21114c-0.14446 0.10742-0.27781 0.15558-0.38153 0.15558-0.12594 0-0.25559-0.07038-0.28522-0.27411 0-0.01482-0.01111-0.07779-0.01111-0.32597 0-0.21855 0.01111-0.4408 0.03334-0.65934h0.55563v-0.22225h-0.55193s0.02593-0.30374 0.04445-0.40005c0.0037-0.03704 0.03334-0.05927 0.01852-0.10001z"/>
  <path d="m20.476 10.609v0.23336h0.65193v2.078h0.263v-2.078h0.68157v-0.23336z"/>
  <path d="m22.38 11.228 0.68898 1.6854-0.05556 0.12224c-0.02963 0.07038-0.06297 0.14076-0.11483 0.19632-0.07038 0.07779-0.15928 0.11112-0.23707 0.11112-0.12594 0-0.18891-0.0852-0.20002-0.10001-0.01111-0.01852-0.0074-0.04445-0.02963-0.06297l-0.13705 0.24077c0.09631 0.0926 0.22595 0.14076 0.36671 0.14076 0.15187 0 0.31115-0.05556 0.42228-0.1815 0.07408-0.0852 0.11112-0.1741 0.14817-0.2704l0.52599-1.3965c0.06297-0.15928 0.11853-0.32226 0.17039-0.48895h-0.27781c-0.02963 0.15558-0.07779 0.30374-0.12965 0.45191l-0.32226 0.90752-0.49636-1.2483c-0.0037-0.01111-0.0037-0.01852-0.0037-0.02963 0-0.02593 0.01852-0.04445 0.01482-0.07779z"/>
  <path d="m24.284 11.228 0.0037 2.3077h0.2704v-0.84085c0.11483 0.16669 0.30374 0.2704 0.50747 0.2704 0.34819 0 0.7112-0.29263 0.7112-0.91123 0-0.59637-0.3519-0.86307-0.68527-0.86307-0.21855 0-0.42228 0.11112-0.5371 0.29633v-0.25929zm0.7075 0.18891c0.14817 0 0.50747 0.07779 0.50747 0.69268 0 0.5334-0.34819 0.6186-0.50747 0.6186-0.15928 0-0.32226-0.08149-0.38894-0.23336-0.04816-0.11483-0.04816-0.25559-0.04816-0.50006 0-0.14076 0.0074-0.24448 0.04445-0.33338 0.06668-0.15187 0.22225-0.24448 0.39264-0.24448z"/>
  <path d="m26.873 11.187c-0.40376 0-0.77788 0.28893-0.77788 0.90382 0 0.56674 0.3519 0.86678 0.81121 0.86678 0.24448 0 0.46302-0.0889 0.60748-0.263l-0.14817-0.14446c-0.10742 0.12594-0.2704 0.19262-0.43709 0.19262-0.22596 0-0.55563-0.12594-0.57415-0.63341h1.2002c0.01111-0.11483 0.0074-0.22596-0.01111-0.32226-0.07779-0.45561-0.39264-0.60008-0.67046-0.60008zm-0.51118 0.71861c0.05556-0.40005 0.31115-0.51488 0.49265-0.51488 0.27411 0 0.47043 0.24077 0.43709 0.51488z"/>
 </g>
 <g fill="#d2d6dc" opacity=".91" stroke-width=".28222px" aria-label="Match ID">
  <path d="m53.318 10.609v2.3114h0.24448v-1.7298l0.46673 0.91493h0.09631l0.50006-0.92975v1.7447h0.24448v-2.3114h-0.19262l-0.58155 1.1298-0.57415-1.1298z"/>
  <path d="m55.355 11.424 0.12964 0.17039c0.14076-0.14446 0.32967-0.18891 0.48895-0.18891 0.20002 0 0.30004 0.0852 0.34819 0.16298 0.05556 0.0926 0.05186 0.20373 0.05186 0.29263v0.05927h-0.05186c-0.25188 0-0.51858 0-0.73343 0.07779-0.2667 0.09631-0.38523 0.29633-0.38523 0.48154 0 0.24818 0.21484 0.48154 0.56674 0.48154 0.20743 0 0.42228-0.07779 0.60748-0.22966v0.18521h0.25188v-1.0483c0-0.13706-0.0037-0.2667-0.08149-0.40005-0.11112-0.1815-0.32597-0.27781-0.58896-0.27781-0.22595 0-0.4445 0.07038-0.60378 0.23336zm1.0298 0.70009v0.11483c0 0.0852 0 0.19632-0.11483 0.31856-0.06297 0.06297-0.22225 0.20002-0.4445 0.20002-0.22595 0-0.3556-0.14446-0.3556-0.29263 0-0.12594 0.0852-0.263 0.29633-0.31485 0.15558-0.03704 0.38153-0.02593 0.55933-0.02593z"/>
  <path d="m57.57 10.772-0.03334 0.45561h-0.40376l-0.0037 0.21855h0.39635c-0.02222 0.28892-0.03334 0.57785-0.03334 0.86307 0 0.15187 0 0.32226 0.10001 0.46302 0.08149 0.11112 0.21114 0.1778 0.38523 0.1778 0.20002 0 0.39635-0.0852 0.54081-0.18891l-0.08149-0.21114c-0.14446 0.10742-0.27781 0.15558-0.38153 0.15558-0.12594 0-0.25559-0.07038-0.28522-0.27411 0-0.01482-0.01111-0.07779-0.01111-0.32597 0-0.21855 0.01111-0.4408 0.03334-0.65934h0.55563v-0.22225h-0.55193s0.02593-0.30374 0.04445-0.40005c0.0037-0.03704 0.03334-0.05927 0.01852-0.10001z"/>
  <path d="m60.415 11.506c-0.13335-0.19632-0.3593-0.31485-0.63341-0.31485-0.49636 0-0.84826 0.37412-0.84826 0.88159 0 0.51118 0.3519 0.889 0.83344 0.889 0.23336 0 0.46302-0.09631 0.6223-0.2704l-0.15187-0.1778c-0.11483 0.12965-0.28152 0.20373-0.4482 0.20373-0.32967 0-0.58156-0.27411-0.58156-0.67046 0-0.38523 0.24818-0.626 0.55933-0.626 0.28892 0 0.42598 0.20002 0.43709 0.22225 0.01482 0.02593-0.0074 0.06297 0.02222 0.0852z"/>
  <path d="m60.834 12.917h0.27411v-0.9742c0-0.11112 0.01111-0.19632 0.08149-0.28892 0.06667-0.0852 0.22966-0.23707 0.40746-0.23707 0.0852 0 0.17039 0.03704 0.22966 0.10742 0.0926 0.11112 0.0926 0.25559 0.0926 0.37412v1.0186h0.263v-1.0261c0-0.12965-0.0037-0.2704-0.06297-0.40746-0.0852-0.18891-0.25559-0.29633-0.4482-0.29633-0.22966 0-0.4408 0.14817-0.56303 0.33708v-0.9816c0-0.01111 0-0.02223 0.01111-0.03334s0.02593-0.02223 0.02593-0.04075c0-0.0037 0-0.0074-0.0037-0.01111h-0.30745z"/>
  <path d="m64.608 10.609v0.21855h0.42598v1.878h-0.45191v0.21484h1.1927v-0.21114h-0.48154v-1.8817h0.45561v-0.21855z"/>
  <path d="m66.331 10.609v2.3114h0.49636c0.1815 0 0.33708-0.0074 0.50006-0.0926 0.32967-0.17039 0.51118-0.56303 0.51118-1.0668 0-0.4445-0.13335-0.83344-0.42968-1.0261-0.16669-0.11113-0.33338-0.12594-0.5371-0.12594zm0.24448 0.22225h0.28152c0.14446 0 0.28892 0.0074 0.43339 0.12594 0.21484 0.1778 0.28522 0.50747 0.28522 0.83714 0 0.4408-0.14446 0.69268-0.32967 0.81862-0.14446 0.09631-0.28892 0.10372-0.43339 0.10372h-0.23707z"/>
 </g>
 <g fill="#6f8ce9" stroke="#535e70" stroke-linecap="round" stroke-width=".13229">
  <path d="m29.17 9.154v5.2917"/>
  <path d="m71.504 9.154v5.2917"/>
  <path d="m29.17 19.737v5.2917"/>
  <path d="m50.337 19.737v5.2917"/>
 </g>
 <g fill="#d2d6dc" stroke-width=".28222px">
  <g opacity=".91" aria-label="Tran. flag">
   <path d="m30.53 10.609v0.23336h0.65193v2.078h0.263v-2.078h0.68157v-0.23336z"/>
   <path d="m32.634 11.228v1.6928h0.2667v-0.82233c0-0.10372 0.0037-0.21484 0.11853-0.39635 0.15558-0.24448 0.3556-0.28522 0.47784-0.28522 0.14076 0 0.22966 0.06668 0.27781 0.12594 0.02222 0.02963 0.03334 0.05927 0.06297 0.0852l0.12594-0.25559c-0.10742-0.11112-0.263-0.18521-0.45191-0.18521-0.24818 0-0.50006 0.12594-0.61119 0.36671l0.01111-0.32597z"/>
   <path d="m34.453 11.424 0.12965 0.17039c0.14076-0.14446 0.32967-0.18891 0.48895-0.18891 0.20002 0 0.30004 0.0852 0.34819 0.16298 0.05556 0.0926 0.05186 0.20373 0.05186 0.29263v0.05927h-0.05186c-0.25188 0-0.51858 0-0.73343 0.07779-0.2667 0.09631-0.38523 0.29633-0.38523 0.48154 0 0.24818 0.21484 0.48154 0.56674 0.48154 0.20743 0 0.42228-0.07779 0.60748-0.22966v0.18521h0.25188v-1.0483c0-0.13706-0.0037-0.2667-0.08149-0.40005-0.11112-0.1815-0.32597-0.27781-0.58896-0.27781-0.22596 0-0.4445 0.07038-0.60378 0.23336zm1.0298 0.70009v0.11483c0 0.0852 0 0.19632-0.11483 0.31856-0.06297 0.06297-0.22225 0.20002-0.4445 0.20002-0.22596 0-0.3556-0.14446-0.3556-0.29263 0-0.12594 0.0852-0.263 0.29633-0.31485 0.15558-0.03704 0.38153-0.02593 0.55933-0.02593z"/>
   <path d="m36.224 12.917h0.2704v-0.9742c0-0.11112 0.01482-0.19632 0.0852-0.28892 0.06297-0.0852 0.22595-0.23707 0.40375-0.23707 0.0852 0 0.17039 0.03704 0.22966 0.10742 0.0926 0.11112 0.0926 0.25559 0.0926 0.37412v1.0186h0.263v-1.0261c0-0.12965 0-0.2704-0.05927-0.40746-0.0852-0.18891-0.25929-0.29633-0.45191-0.29633-0.22966 0-0.43709 0.14817-0.56303 0.33708v-0.29633h-0.2704z"/>
   <path d="m38.924 12.747c0-0.11483-0.09631-0.21114-0.21855-0.21114-0.12224 0-0.21855 0.09631-0.21855 0.21114 0 0.11853 0.09631 0.21484 0.21855 0.21484 0.12224 0 0.21855-0.09631 0.21855-0.21484z"/>
   <path d="m42.799 10.435c-0.23707 0-0.45932 0.10001-0.57785 0.29263-0.0889 0.14076-0.0926 0.28152-0.0926 0.43339v0.16669h-0.37042v0.21114h0.37042v1.378h0.25559v-1.378h0.55192v-0.21114h-0.55192v-0.13335c0-0.12224-0.0037-0.25188 0.05927-0.36301 0.07038-0.12594 0.20373-0.18891 0.34078-0.18891 0.16298 0 0.30004 0.0852 0.37042 0.19262 0.01111 0.01852 0.01111 0.02963 0.01111 0.04445 0 0.02593 0.01852 0.03334 0.02963 0.03334l0.12224-0.24818c-0.12224-0.14446-0.30744-0.22966-0.51858-0.22966z"/>
   <path d="m43.691 10.457v0.21484h0.48154v2.0336h-0.50377v0.21114h1.2705v-0.21114h-0.50006v-2.2484z"/>
   <path d="m45.566 11.424 0.12965 0.17039c0.14076-0.14446 0.32967-0.18891 0.48895-0.18891 0.20002 0 0.30004 0.0852 0.34819 0.16298 0.05556 0.0926 0.05186 0.20373 0.05186 0.29263v0.05927h-0.05186c-0.25188 0-0.51858 0-0.73342 0.07779-0.2667 0.09631-0.38523 0.29633-0.38523 0.48154 0 0.24818 0.21484 0.48154 0.56674 0.48154 0.20743 0 0.42228-0.07779 0.60748-0.22966v0.18521h0.25188v-1.0483c0-0.13706-0.0037-0.2667-0.08149-0.40005-0.11112-0.1815-0.32597-0.27781-0.58896-0.27781-0.22596 0-0.4445 0.07038-0.60378 0.23336zm1.0298 0.70009v0.11483c0 0.0852 0 0.19632-0.11483 0.31856-0.06297 0.06297-0.22225 0.20002-0.4445 0.20002-0.22596 0-0.3556-0.14446-0.3556-0.29263 0-0.12594 0.0852-0.263 0.29633-0.31485 0.15558-0.03704 0.38153-0.02593 0.55933-0.02593z"/>
   <path d="m47.547 11.754c0-0.20373 0.17039-0.37042 0.37412-0.37042 0.20743 0 0.37412 0.16669 0.37412 0.37042 0 0.20373-0.16669 0.37042-0.37412 0.37042-0.20743 0-0.37412-0.16669-0.37412-0.37042zm0.38894-0.58155c-0.33708 0-0.62971 0.2667-0.62971 0.59637 0 0.18521 0.0926 0.3593 0.24818 0.45932-0.12224 0.10372-0.19262 0.21855-0.19262 0.32597 0 0.07038 0.02963 0.17039 0.13705 0.22595-0.1815 0.11483-0.27411 0.24077-0.27411 0.37412 0 0.18521 0.17039 0.40375 0.76306 0.40375 0.57415 0 0.78158-0.29263 0.78158-0.51858 0-0.14817-0.0852-0.29633-0.263-0.36671-0.1778-0.07408-0.38153-0.04815-0.57415-0.04815-0.12594 0-0.20743-0.01111-0.24077-0.02223-0.06667-0.01852-0.10372-0.05927-0.10372-0.11112 0-0.0889 0.10372-0.1741 0.12224-0.18891 0.06668 0.02593 0.14076 0.03704 0.21484 0.03704 0.33338 0 0.60748-0.2667 0.60748-0.57785 0-0.10372-0.02963-0.20373-0.08519-0.28893 0.0889-0.05186 0.19262-0.08149 0.29633-0.08149 0.03334 0 0.06297 0.0037 0.09631 0.01111l-0.02963-0.21855c-0.17039-0.01482-0.34078 0.04075-0.47043 0.14817-0.10742-0.10372-0.24818-0.15928-0.40376-0.15928zm-0.25559 1.6558c0.06297 0.0074 0.15187 0.01482 0.28152 0.02223 0.12594 0.0037 0.263-0.0074 0.3593 0.0074 0.15558 0.02593 0.20373 0.12224 0.20373 0.19632 0 0.07408-0.04445 0.16298-0.15928 0.22595-0.12594 0.06668-0.2667 0.07408-0.38153 0.07408-0.07779 0-0.22225-0.0037-0.34819-0.05556-0.13705-0.05556-0.16669-0.14817-0.16669-0.20743 0-0.12224 0.11483-0.21114 0.21114-0.263z"/>
  </g>
  <g opacity=".91" aria-label="Size">
   <path d="m79.648 10.887c-0.15558-0.18891-0.38523-0.28893-0.63712-0.28893-0.41857 0-0.70379 0.27411-0.70379 0.59267 0 0.13335 0.05186 0.30745 0.24448 0.4482 0.21484 0.15928 0.54822 0.23707 0.72231 0.34819 0.15187 0.0926 0.19262 0.21484 0.19262 0.31856 0 0.20002-0.17039 0.41857-0.50377 0.41857-0.25188 0-0.4482-0.12594-0.55192-0.25559-0.01111-0.01482-0.01111-0.02223-0.01111-0.03704 0-0.0074 0-0.02963-0.01482-0.03704l-0.15558 0.2667c0.1815 0.19632 0.4408 0.29633 0.72602 0.29633 0.56303 0 0.77047-0.37783 0.77047-0.66675 0-0.12224-0.03704-0.28152-0.1815-0.41857-0.20003-0.18891-0.52599-0.25559-0.73713-0.37783-0.19262-0.11483-0.23336-0.25188-0.23336-0.34449 0-0.1778 0.15187-0.33708 0.41487-0.33708 0.21484 0 0.38153 0.09631 0.47043 0.22596 0.01111 0.01482 0.0074 0.02222 0.0074 0.03704 0 0.02222 0.01111 0.02963 0.01852 0.02963z"/>
   <path d="m80.285 11.224v0.21855h0.40746v1.2631h-0.42968v0.21114h1.0964v-0.21114h-0.39635v-1.4817zm0.54822-0.73343c-0.10742 0-0.19262 0.0852-0.19262 0.18891 0 0.10372 0.0852 0.18891 0.19262 0.18891 0.10742 0 0.19262-0.0852 0.19262-0.18891 0-0.10372-0.0852-0.18891-0.19262-0.18891z"/>
   <path d="m82.004 11.224v0.23336h0.9742l-1.0483 1.2816v0.1815h1.478v-0.25188c-0.04445-0.0074-0.05927 0.02223-0.11112 0.02223h-1.0075l1.0335-1.2853v-0.1815z"/>
   <path d="m84.553 11.187c-0.40375 0-0.77788 0.28893-0.77788 0.90382 0 0.56674 0.3519 0.86678 0.81121 0.86678 0.24448 0 0.46302-0.0889 0.60748-0.263l-0.14817-0.14446c-0.10742 0.12594-0.2704 0.19262-0.43709 0.19262-0.22596 0-0.55563-0.12594-0.57415-0.63341h1.2002c0.01111-0.11483 0.0074-0.22596-0.01111-0.32226-0.07779-0.45561-0.39264-0.60008-0.67046-0.60008zm-0.51118 0.71861c0.05556-0.40005 0.31115-0.51488 0.49265-0.51488 0.27411 0 0.47043 0.24077 0.43709 0.51488z"/>
  </g>
  <g opacity=".91" aria-label="Sequence number">
   <path d="m37.976 16.179c-0.15558-0.18891-0.38523-0.28893-0.63712-0.28893-0.41857 0-0.70379 0.27411-0.70379 0.59267 0 0.13335 0.05186 0.30745 0.24448 0.4482 0.21484 0.15928 0.54822 0.23707 0.72231 0.34819 0.15187 0.0926 0.19262 0.21484 0.19262 0.31856 0 0.20002-0.17039 0.41857-0.50377 0.41857-0.25188 0-0.4482-0.12594-0.55192-0.25559-0.01111-0.01482-0.01111-0.02223-0.01111-0.03704 0-0.0074 0-0.02963-0.01482-0.03704l-0.15558 0.2667c0.1815 0.19632 0.4408 0.29633 0.72602 0.29633 0.56303 0 0.77047-0.37783 0.77047-0.66675 0-0.12224-0.03704-0.28152-0.1815-0.41857-0.20002-0.18891-0.52599-0.25559-0.73713-0.37782-0.19262-0.11483-0.23336-0.25188-0.23336-0.34449 0-0.1778 0.15187-0.33708 0.41487-0.33708 0.21484 0 0.38153 0.09631 0.47043 0.22596 0.01111 0.01482 0.0074 0.02223 0.0074 0.03704 0 0.02222 0.01111 0.02963 0.01852 0.02963z"/>
   <path d="m39.176 16.479c-0.40375 0-0.77788 0.28893-0.77788 0.90382 0 0.56674 0.3519 0.86678 0.81121 0.86678 0.24448 0 0.46302-0.0889 0.60748-0.263l-0.14817-0.14446c-0.10742 0.12594-0.2704 0.19262-0.43709 0.19262-0.22596 0-0.55563-0.12594-0.57415-0.63341h1.2002c0.01111-0.11483 0.0074-0.22596-0.01111-0.32226-0.07779-0.45561-0.39264-0.60008-0.67046-0.60008zm-0.51118 0.71861c0.05556-0.40005 0.31115-0.51488 0.49265-0.51488 0.27411 0 0.47043 0.24077 0.43709 0.51488z"/>
   <path d="m41.455 16.764c0 0.0037-0.11853-0.28892-0.49266-0.28892-0.37042 0-0.73342 0.30004-0.73342 0.87418 0 0.54822 0.32226 0.90011 0.69638 0.90011 0.21484 0 0.41116-0.12224 0.51858-0.31115v0.889h0.263v-2.3077h-0.25188zm-0.48154-0.07038c0.15187 0 0.34449 0.07779 0.41857 0.28522 0.03334 0.09631 0.04075 0.20003 0.04075 0.40746 0 0.12594-0.0074 0.21855-0.03334 0.30745-0.06668 0.20002-0.24077 0.31856-0.41487 0.31856-0.24448 0-0.48895-0.22225-0.48895-0.70009 0-0.4445 0.25188-0.6186 0.47784-0.6186z"/>
   <path d="m42.155 16.52v0.94456c0 0.14446 0 0.29263 0.06667 0.4445 0.09631 0.22225 0.30374 0.34449 0.52599 0.34449 0.21114 0 0.41116-0.11483 0.52229-0.30004l-0.0037 0.12594c0 0.04445 0 0.0889 0.0074 0.12965h0.28152c-0.01852-0.04815-0.02222-0.10372-0.02222-0.15187v-1.5372h-0.2667v0.92975c0 0.12965-0.01111 0.22966-0.06667 0.33338-0.07779 0.14446-0.22966 0.25188-0.39264 0.25188-0.12965 0-0.25559-0.07408-0.32226-0.20743-0.05927-0.11853-0.05927-0.25188-0.05927-0.36301v-0.94456z"/>
   <path d="m44.733 16.479c-0.40375 0-0.77788 0.28893-0.77788 0.90382 0 0.56674 0.3519 0.86678 0.81121 0.86678 0.24448 0 0.46302-0.0889 0.60748-0.263l-0.14817-0.14446c-0.10742 0.12594-0.2704 0.19262-0.43709 0.19262-0.22596 0-0.55563-0.12594-0.57415-0.63341h1.2002c0.01111-0.11483 0.0074-0.22596-0.01111-0.32226-0.07779-0.45561-0.39264-0.60008-0.67046-0.60008zm-0.51118 0.71861c0.05556-0.40005 0.31115-0.51488 0.49265-0.51488 0.27411 0 0.47043 0.24077 0.43709 0.51488z"/>
   <path d="m45.881 18.209h0.2704v-0.9742c0-0.11112 0.01482-0.19632 0.0852-0.28892 0.06297-0.0852 0.22595-0.23707 0.40375-0.23707 0.0852 0 0.17039 0.03704 0.22966 0.10742 0.0926 0.11112 0.0926 0.25559 0.0926 0.37412v1.0186h0.263v-1.0261c0-0.12965 0-0.2704-0.05927-0.40746-0.0852-0.18891-0.25929-0.29633-0.45191-0.29633-0.22966 0-0.43709 0.14817-0.56303 0.33708v-0.29633h-0.2704z"/>
   <path d="m49.17 16.797c-0.13335-0.19632-0.3593-0.31485-0.63341-0.31485-0.49636 0-0.84826 0.37412-0.84826 0.88159 0 0.51118 0.3519 0.889 0.83344 0.889 0.23336 0 0.46302-0.09631 0.6223-0.2704l-0.15187-0.1778c-0.11483 0.12965-0.28152 0.20373-0.4482 0.20373-0.32967 0-0.58156-0.27411-0.58156-0.67046 0-0.38523 0.24818-0.626 0.55933-0.626 0.28892 0 0.42598 0.20002 0.43709 0.22225 0.01482 0.02593-0.0074 0.06297 0.02223 0.0852z"/>
   <path d="m50.289 16.479c-0.40375 0-0.77788 0.28893-0.77788 0.90382 0 0.56674 0.3519 0.86678 0.81121 0.86678 0.24448 0 0.46302-0.0889 0.60748-0.263l-0.14817-0.14446c-0.10742 0.12594-0.2704 0.19262-0.43709 0.19262-0.22596 0-0.55563-0.12594-0.57415-0.63341h1.2002c0.01111-0.11483 0.0074-0.22596-0.01111-0.32226-0.07779-0.45561-0.39264-0.60008-0.67046-0.60008zm-0.51118 0.71861c0.05556-0.40005 0.31115-0.51488 0.49265-0.51488 0.27411 0 0.47043 0.24077 0.43709 0.51488z"/>
   <path d="m53.289 18.209h0.2704v-0.9742c0-0.11112 0.01482-0.19632 0.08519-0.28892 0.06297-0.0852 0.22596-0.23707 0.40376-0.23707 0.0852 0 0.17039 0.03704 0.22966 0.10742 0.09261 0.11112 0.09261 0.25559 0.09261 0.37412v1.0186h0.263v-1.0261c0-0.12965 0-0.2704-0.05927-0.40746-0.0852-0.18891-0.25929-0.29633-0.45191-0.29633-0.22966 0-0.43709 0.14817-0.56303 0.33708v-0.29633h-0.2704z"/>
   <path d="m55.119 16.52v0.94456c0 0.14446 0 0.29263 0.06667 0.4445 0.09631 0.22225 0.30374 0.34449 0.52599 0.34449 0.21114 0 0.41116-0.11483 0.52229-0.30004l-0.0037 0.12594c0 0.04445 0 0.0889 0.0074 0.12965h0.28152c-0.01852-0.04815-0.02222-0.10372-0.02222-0.15187v-1.5372h-0.2667v0.92975c0 0.12965-0.01111 0.22966-0.06668 0.33338-0.07779 0.14446-0.22966 0.25188-0.39264 0.25188-0.12965 0-0.25559-0.07408-0.32226-0.20743-0.05927-0.11853-0.05927-0.25188-0.05927-0.36301v-0.94456z"/>
   <path d="m56.879 18.209h0.24448v-1.1261c0-0.08149 0.0074-0.15558 0.05556-0.24448 0.05927-0.11112 0.13335-0.15558 0.20373-0.15558 0.05927 0 0.12594 0.03704 0.15558 0.12965 0.02223 0.07038 0.01852 0.15187 0.01852 0.22225v1.1742h0.24818v-1.1187c0-0.0889 0.0074-0.15928 0.07038-0.2667 0.02963-0.04445 0.0926-0.15187 0.19632-0.15187 0.05556 0 0.10742 0.03334 0.13335 0.09631 0.03334 0.07038 0.02593 0.16669 0.02593 0.24448v1.2002h0.25188v-1.2039c0-0.14076 0.0037-0.28152-0.07038-0.39635-0.06297-0.09631-0.17039-0.13335-0.263-0.13335-0.16298 0-0.31485 0.09631-0.38153 0.24448-0.02593-0.14076-0.14446-0.24448-0.29633-0.24448-0.14076 0-0.2704 0.0889-0.34819 0.20743l0.0037-0.16669h-0.24817z"/>
   <path d="m58.812 15.745v2.4633h0.1741l0.0926-0.22225c0.11112 0.16669 0.29633 0.2667 0.50006 0.2667 0.34819 0 0.7075-0.29633 0.7075-0.91123 0-0.58896-0.34819-0.86307-0.68157-0.86307-0.21484 0-0.41487 0.11483-0.52229 0.30004v-0.94827c0-0.02222 0.0037-0.02963 0.02222-0.04445 0.0074-0.0037 0.02593-0.01852 0.02222-0.04075zm0.70009 0.96308c0.15928 0 0.49636 0.0926 0.49636 0.69268 0 0.51488-0.33338 0.61119-0.50006 0.61119-0.11483 0-0.37042-0.04445-0.41487-0.37042-0.01111-0.0852-0.01111-0.18521-0.01111-0.33338 0-0.15187 0.0074-0.263 0.04445-0.3556 0.06297-0.15187 0.21855-0.24448 0.38523-0.24448z"/>
   <path d="m61.402 16.479c-0.40376 0-0.77788 0.28893-0.77788 0.90382 0 0.56674 0.3519 0.86678 0.81121 0.86678 0.24448 0 0.46302-0.0889 0.60748-0.263l-0.14817-0.14446c-0.10742 0.12594-0.2704 0.19262-0.43709 0.19262-0.22595 0-0.55562-0.12594-0.57415-0.63341h1.2002c0.01111-0.11483 0.0074-0.22596-0.01111-0.32226-0.07779-0.45561-0.39264-0.60008-0.67046-0.60008zm-0.51118 0.71861c0.05556-0.40005 0.31115-0.51488 0.49266-0.51488 0.27411 0 0.47043 0.24077 0.43709 0.51488z"/>
   <path d="m62.665 16.52v1.6928h0.2667v-0.82233c0-0.10372 0.0037-0.21484 0.11853-0.39635 0.15558-0.24448 0.3556-0.28522 0.47784-0.28522 0.14076 0 0.22966 0.06668 0.27781 0.12594 0.02222 0.02963 0.03334 0.05927 0.06297 0.0852l0.12594-0.25559c-0.10742-0.11112-0.263-0.18521-0.45191-0.18521-0.24818 0-0.50006 0.12594-0.61119 0.36671l0.01111-0.32597z"/>
  </g>
  <g opacity=".91" aria-label="Flags">
   <path d="m14.164 21.193v2.3077h0.263v-1.1335h0.86307v-0.22225h-0.86307v-0.72602h1.0668v-0.22595z"/>
   <path d="m16.042 21.041v0.21484h0.48154v2.0336h-0.50377v0.21114h1.2705v-0.21114h-0.50006v-2.2484z"/>
   <path d="m17.917 22.008 0.12965 0.17039c0.14076-0.14446 0.32967-0.18891 0.48895-0.18891 0.20002 0 0.30004 0.0852 0.34819 0.16298 0.05556 0.0926 0.05186 0.20373 0.05186 0.29263v0.05927h-0.05186c-0.25188 0-0.51858 0-0.73342 0.07779-0.2667 0.09631-0.38523 0.29633-0.38523 0.48154 0 0.24818 0.21484 0.48154 0.56674 0.48154 0.20743 0 0.42228-0.07779 0.60748-0.22966v0.18521h0.25188v-1.0483c0-0.13706-0.0037-0.2667-0.08149-0.40005-0.11113-0.1815-0.32597-0.27781-0.58896-0.27781-0.22595 0-0.4445 0.07038-0.60378 0.23336zm1.0298 0.70009v0.11483c0 0.08519 0 0.19632-0.11483 0.31856-0.06297 0.06297-0.22225 0.20002-0.4445 0.20002-0.22595 0-0.3556-0.14446-0.3556-0.29263 0-0.12594 0.0852-0.263 0.29633-0.31486 0.15558-0.03704 0.38153-0.02593 0.55933-0.02593z"/>
   <path d="m19.898 22.337c0-0.20373 0.17039-0.37042 0.37412-0.37042 0.20743 0 0.37412 0.16669 0.37412 0.37042 0 0.20373-0.16669 0.37042-0.37412 0.37042-0.20743 0-0.37412-0.16669-0.37412-0.37042zm0.38894-0.58155c-0.33708 0-0.62971 0.2667-0.62971 0.59637 0 0.18521 0.0926 0.3593 0.24818 0.45932-0.12224 0.10372-0.19262 0.21855-0.19262 0.32597 0 0.07038 0.02963 0.17039 0.13705 0.22595-0.1815 0.11483-0.27411 0.24077-0.27411 0.37412 0 0.18521 0.17039 0.40375 0.76306 0.40375 0.57415 0 0.78158-0.29263 0.78158-0.51858 0-0.14817-0.0852-0.29633-0.263-0.36671-0.1778-0.07408-0.38153-0.04815-0.57415-0.04815-0.12594 0-0.20743-0.01111-0.24077-0.02222-0.06668-0.01852-0.10372-0.05927-0.10372-0.11112 0-0.0889 0.10372-0.1741 0.12224-0.18891 0.06668 0.02593 0.14076 0.03704 0.21484 0.03704 0.33338 0 0.60748-0.2667 0.60748-0.57785 0-0.10372-0.02963-0.20373-0.0852-0.28893 0.0889-0.05186 0.19262-0.08149 0.29633-0.08149 0.03334 0 0.06297 0.0037 0.09631 0.01111l-0.02963-0.21855c-0.17039-0.01482-0.34078 0.04075-0.47043 0.14817-0.10742-0.10372-0.24818-0.15928-0.40376-0.15928zm-0.25559 1.6558c0.06297 0.0074 0.15187 0.01482 0.28152 0.02222 0.12594 0.0037 0.263-0.0074 0.3593 0.0074 0.15558 0.02593 0.20373 0.12224 0.20373 0.19632 0 0.07408-0.04445 0.16298-0.15928 0.22595-0.12594 0.06668-0.2667 0.07408-0.38153 0.07408-0.07779 0-0.22225-0.0037-0.34819-0.05556-0.13706-0.05556-0.16669-0.14817-0.16669-0.20743 0-0.12224 0.11483-0.21114 0.21114-0.263z"/>
   <path d="m22.888 22.033c-0.15558-0.17039-0.38153-0.263-0.63341-0.263-0.39264 0-0.64823 0.21855-0.64823 0.47043 0 0.29633 0.31856 0.40375 0.41116 0.43709 0.14446 0.05186 0.32967 0.09631 0.45561 0.15558 0.14076 0.06668 0.16669 0.15558 0.16669 0.21484 0 0.15928-0.19262 0.2667-0.43339 0.2667-0.28893 0-0.47413-0.1741-0.5297-0.23336-0.01111-0.01482-0.01111-0.02593-0.01111-0.04075 0-0.0037 0.0037-0.02593-0.01482-0.03334l-0.15558 0.263c0.20002 0.18521 0.45932 0.2704 0.7149 0.2704 0.46302 0 0.70379-0.27411 0.70379-0.5297 0-0.11483-0.04815-0.2704-0.24818-0.38153-0.18891-0.10742-0.46302-0.14446-0.6223-0.22225-0.13705-0.06668-0.16669-0.14817-0.16669-0.20743 0-0.13335 0.16669-0.22966 0.3556-0.22966 0.24448 0 0.40746 0.14817 0.47043 0.23336 0.01111 0.01111 0.0074 0.02223 0.0074 0.03334 0 0.02222 0.01482 0.02963 0.02222 0.02963z"/>
  </g>
  <g opacity=".91" aria-label="Command">
   <path d="m34.22 21.174c-0.3593 0-0.87789 0.263-0.87789 1.189 0 0.889 0.49636 1.1779 0.87789 1.1779 0.27411 0 0.5297-0.14446 0.67416-0.38153l-0.18891-0.12224c-0.10742 0.1741-0.29263 0.27781-0.47043 0.27781-0.34078 0-0.64082-0.3519-0.64082-0.9779 0-0.61119 0.29263-0.95568 0.6186-0.95568 0.1778 0 0.34819 0.10742 0.4408 0.2704 0.0074 0.01111 0.01482 0.02223 0.01482 0.03704 0 0.01111-0.0037 0.01852-0.0037 0.02963 0 0.0037 0 0.02223 0.01852 0.03334l0.24448-0.11853c-0.12224-0.27781-0.40005-0.45932-0.7075-0.45932z"/>
   <path d="m36.75 22.663c0-0.58526-0.37042-0.889-0.75565-0.889-0.42968 0-0.8001 0.37042-0.8001 0.89641 0 0.51488 0.36671 0.87789 0.79269 0.87789 0.40005 0 0.76306-0.32226 0.76306-0.8853zm-0.77417-0.66305c0.24448 0 0.50377 0.21114 0.50377 0.67416 0 0.42598-0.24448 0.64082-0.48895 0.64082-0.2704 0-0.51488-0.25188-0.51488-0.67046 0-0.41487 0.24077-0.64452 0.50006-0.64452z"/>
   <path d="m37.035 23.5h0.24448v-1.1261c0-0.08149 0.0074-0.15558 0.05556-0.24448 0.05927-0.11112 0.13335-0.15558 0.20373-0.15558 0.05927 0 0.12594 0.03704 0.15558 0.12965 0.02223 0.07038 0.01852 0.15187 0.01852 0.22225v1.1742h0.24818v-1.1187c0-0.0889 0.0074-0.15928 0.07038-0.2667 0.02963-0.04445 0.0926-0.15187 0.19632-0.15187 0.05556 0 0.10742 0.03334 0.13335 0.09631 0.03334 0.07038 0.02593 0.16669 0.02593 0.24448v1.2002h0.25188v-1.2039c0-0.14076 0.0037-0.28152-0.07038-0.39635-0.06297-0.09631-0.17039-0.13335-0.263-0.13335-0.16298 0-0.31486 0.09631-0.38153 0.24448-0.02593-0.14076-0.14446-0.24448-0.29633-0.24448-0.14076 0-0.2704 0.0889-0.34819 0.20743l0.0037-0.16669h-0.24818z"/>
   <path d="m38.887 23.5h0.24448v-1.1261c0-0.08149 0.0074-0.15558 0.05556-0.24448 0.05927-0.11112 0.13335-0.15558 0.20373-0.15558 0.05927 0 0.12594 0.03704 0.15558 0.12965 0.02222 0.07038 0.01852 0.15187 0.01852 0.22225v1.1742h0.24818v-1.1187c0-0.0889 0.0074-0.15928 0.07038-0.2667 0.02963-0.04445 0.0926-0.15187 0.19632-0.15187 0.05556 0 0.10742 0.03334 0.13335 0.09631 0.03334 0.07038 0.02593 0.16669 0.02593 0.24448v1.2002h0.25188v-1.2039c0-0.14076 0.0037-0.28152-0.07038-0.39635-0.06297-0.09631-0.17039-0.13335-0.263-0.13335-0.16298 0-0.31486 0.09631-0.38153 0.24448-0.02593-0.14076-0.14446-0.24448-0.29633-0.24448-0.14076 0-0.2704 0.0889-0.34819 0.20743l0.0037-0.16669h-0.24818z"/>
   <path d="m40.935 22.008 0.12965 0.17039c0.14076-0.14446 0.32967-0.18891 0.48895-0.18891 0.20002 0 0.30004 0.0852 0.34819 0.16298 0.05556 0.0926 0.05186 0.20373 0.05186 0.29263v0.05927h-0.05186c-0.25188 0-0.51858 0-0.73343 0.07779-0.2667 0.09631-0.38523 0.29633-0.38523 0.48154 0 0.24818 0.21484 0.48154 0.56674 0.48154 0.20743 0 0.42228-0.07779 0.60748-0.22966v0.18521h0.25188v-1.0483c0-0.13706-0.0037-0.2667-0.08149-0.40005-0.11112-0.1815-0.32597-0.27781-0.58896-0.27781-0.22595 0-0.4445 0.07038-0.60378 0.23336zm1.0298 0.70009v0.11483c0 0.08519 0 0.19632-0.11483 0.31856-0.06297 0.06297-0.22225 0.20002-0.4445 0.20002-0.22595 0-0.3556-0.14446-0.3556-0.29263 0-0.12594 0.0852-0.263 0.29633-0.31486 0.15558-0.03704 0.38153-0.02593 0.55933-0.02593z"/>
   <path d="m42.706 23.5h0.2704v-0.9742c0-0.11112 0.01482-0.19632 0.0852-0.28892 0.06297-0.0852 0.22595-0.23707 0.40375-0.23707 0.0852 0 0.17039 0.03704 0.22966 0.10742 0.0926 0.11112 0.0926 0.25559 0.0926 0.37412v1.0186h0.263v-1.0261c0-0.12965 0-0.2704-0.05927-0.40746-0.0852-0.18891-0.25929-0.29633-0.45191-0.29633-0.22966 0-0.43709 0.14817-0.56303 0.33708v-0.29633h-0.2704z"/>
   <path d="m45.68 22.056c-0.08149-0.1741-0.263-0.28892-0.49636-0.28892-0.32226 0-0.7149 0.22966-0.7149 0.87418 0 0.626 0.34819 0.90011 0.67416 0.90011 0.21484 0 0.41487-0.12224 0.52229-0.31115v0.14817c0 0.04075 0.0037 0.08149 0.01482 0.12224h0.2667c-0.01482-0.04815-0.01482-0.10372-0.01482-0.15558l-0.0037-2.2003c0-0.02222 0-0.02963 0.01482-0.05186 0.0074-0.01111 0.02222-0.02963 0.01852-0.05556h-0.28152zm-0.48525-0.070379c0.14817 0 0.36671 0.07779 0.43339 0.32967 0.02222 0.07779 0.02963 0.17039 0.02963 0.3593 0 0.12965-0.0074 0.22225-0.03704 0.31115-0.06297 0.20002-0.24077 0.31856-0.41487 0.31856-0.19262 0-0.47784-0.14817-0.47784-0.70379 0-0.48525 0.2704-0.61489 0.46673-0.61489z"/>
  </g>
  <g opacity=".91" aria-label="Data">
   <path d="m67.918 21.193v2.3114h0.49636c0.1815 0 0.33708-0.0074 0.50006-0.0926 0.32967-0.17039 0.51118-0.56303 0.51118-1.0668 0-0.4445-0.13335-0.83344-0.42968-1.0261-0.16669-0.11113-0.33338-0.12594-0.5371-0.12594zm0.24448 0.22225h0.28152c0.14446 0 0.28892 0.0074 0.43339 0.12594 0.21484 0.1778 0.28522 0.50747 0.28522 0.83714 0 0.4408-0.14446 0.69268-0.32967 0.81862-0.14446 0.09631-0.28892 0.10372-0.43339 0.10372h-0.23707z"/>
   <path d="m69.907 22.008 0.12965 0.17039c0.14076-0.14446 0.32967-0.18891 0.48895-0.18891 0.20002 0 0.30004 0.0852 0.34819 0.16298 0.05556 0.0926 0.05186 0.20373 0.05186 0.29263v0.05927h-0.05186c-0.25188 0-0.51858 0-0.73343 0.07779-0.2667 0.09631-0.38523 0.29633-0.38523 0.48154 0 0.24818 0.21484 0.48154 0.56674 0.48154 0.20743 0 0.42228-0.07779 0.60748-0.22966v0.18521h0.25188v-1.0483c0-0.13706-0.0037-0.2667-0.08149-0.40005-0.11112-0.1815-0.32597-0.27781-0.58896-0.27781-0.22595 0-0.4445 0.07038-0.60378 0.23336zm1.0298 0.70009v0.11483c0 0.08519 0 0.19632-0.11483 0.31856-0.06297 0.06297-0.22225 0.20002-0.4445 0.20002-0.22595 0-0.3556-0.14446-0.3556-0.29263 0-0.12594 0.0852-0.263 0.29633-0.31486 0.15558-0.03704 0.38153-0.02593 0.55933-0.02593z"/>
   <path d="m72.122 21.356-0.03334 0.45561h-0.40375l-0.0037 0.21855h0.39635c-0.02223 0.28892-0.03334 0.57785-0.03334 0.86307 0 0.15187 0 0.32226 0.10001 0.46302 0.08149 0.11112 0.21114 0.1778 0.38523 0.1778 0.20002 0 0.39635-0.0852 0.54081-0.18891l-0.08149-0.21114c-0.14446 0.10742-0.27781 0.15558-0.38153 0.15558-0.12594 0-0.25559-0.07038-0.28522-0.27411 0-0.01482-0.01111-0.07779-0.01111-0.32597 0-0.21855 0.01111-0.4408 0.03334-0.65934h0.55563v-0.22225h-0.55192s0.02593-0.30374 0.04445-0.40005c0.0037-0.03704 0.03334-0.05927 0.01852-0.10001z"/>
   <path d="m73.611 22.008 0.12965 0.17039c0.14076-0.14446 0.32967-0.18891 0.48895-0.18891 0.20002 0 0.30004 0.0852 0.34819 0.16298 0.05556 0.0926 0.05186 0.20373 0.05186 0.29263v0.05927h-0.05186c-0.25188 0-0.51858 0-0.73343 0.07779-0.2667 0.09631-0.38523 0.29633-0.38523 0.48154 0 0.24818 0.21484 0.48154 0.56674 0.48154 0.20743 0 0.42228-0.07779 0.60748-0.22966v0.18521h0.25188v-1.0483c0-0.13706-0.0037-0.2667-0.08149-0.40005-0.11112-0.1815-0.32597-0.27781-0.58896-0.27781-0.22595 0-0.4445 0.07038-0.60378 0.23336zm1.0298 0.70009v0.11483c0 0.08519 0 0.19632-0.11483 0.31856-0.06297 0.06297-0.22225 0.20002-0.4445 0.20002-0.22596 0-0.3556-0.14446-0.3556-0.29263 0-0.12594 0.0852-0.263 0.29633-0.31486 0.15558-0.03704 0.38153-0.02593 0.55933-0.02593z"/>
  </g>
 </g>
</svg>
