<?xml version="1.0" encoding="UTF-8"?>
<svg width="19.239mm" height="19.331mm" version="1.1" viewBox="0 0 19.239 19.331" xmlns="http://www.w3.org/2000/svg" xmlns:cc="http://creativecommons.org/ns#" xmlns:dc="http://purl.org/dc/elements/1.1/" xmlns:rdf="http://www.w3.org/1999/02/22-rdf-syntax-ns#">
 <metadata>
  <rdf:RDF>
   <cc:Work rdf:about="">
    <dc:format>image/svg+xml</dc:format>
    <dc:type rdf:resource="http://purl.org/dc/dcmitype/StillImage"/>
    <dc:title/>
   </cc:Work>
  </rdf:RDF>
 </metadata>
 <path d="m8.7466 19.271c-2.2942-0.21849-4.3311-1.1783-5.9626-2.8097-1.3644-1.3642-2.2389-2.9919-2.6639-4.9581-0.09297-0.43003-0.1193-0.83502-0.12012-1.8468 0-1.1218 0.01929-1.3865 0.1494-1.9687 0.42858-1.9168 1.2872-3.4941 2.6329-4.8362 2.6276-2.6209 6.3554-3.5092 9.8847-2.3556 2.8831 0.94242 5.1934 3.2663 6.1464 6.1825 0.34826 1.0658 0.42648 1.6193 0.42519 3.0103 0 1.1518-0.01714 1.3324-0.18208 2.0412-0.68416 2.9404-2.4822 5.2359-5.1485 6.573-1.0577 0.53038-2.2154 0.85085-3.509 0.97123-0.81929 0.07625-0.81749 0.07625-1.6524-0.0042zm2.2398-1.7784c2.5029-0.47482 4.5489-1.9758 5.6877-4.1725 0.94472-1.8223 1.1533-3.7672 0.62052-5.786-0.19229-0.7285-0.80484-1.9851-1.2714-2.6081-1.0202-1.3621-2.465-2.3742-4.1015-2.8729-0.95042-0.28967-1.4991-0.35624-2.6036-0.31586-1.1118 0.04072-1.6787 0.1515-2.5804 0.5049-4.3716 1.7132-6.3324 6.7694-4.2464 10.95 1.1326 2.2696 3.2211 3.8295 5.7692 4.3087 0.62387 0.11734 2.0874 0.113 2.7258-0.0082zm-2.8879-0.54467c-0.74484-0.16105-1.2188-0.3324-1.9342-0.69921-3.2339-1.6581-4.7722-5.4874-3.6046-8.9726 0.84364-2.5181 2.9493-4.3745 5.5712-4.9117 0.95922-0.19653 2.4582-0.15785 3.3876 0.08745 2.0426 0.53904 3.8512 2.0137 4.8039 3.9168 0.26566 0.53065 0.54158 1.4171 0.65084 2.0907 0.5357 3.3033-1.1571 6.4987-4.2084 7.9441-0.99978 0.4736-1.6798 0.62143-2.9815 0.64802-0.90913 0.01852-1.2035 0-1.6848-0.10361zm3.2209-0.60852c2.776-0.71348 4.9499-3.2258 5.152-5.954l0.03731-0.50221h-1.1849v-0.5832h1.1664v-0.25604c0-0.14078-0.03173-0.40317-0.07016-0.58312l-0.07016-0.32708-0.24534 0.03903c-0.24272 0.03903-0.24585 0.03646-0.29225-0.21069-0.06042-0.32232-0.06733-0.30649 0.15918-0.36518 0.10708-0.02789 0.19469-0.08038 0.19469-0.11695 0-0.06546-0.37249-0.97192-0.41816-1.0175-0.01286-0.01296-0.11746 0.0254-0.23243 0.08464-0.22732 0.11758-0.2263 0.11819-0.42163-0.24233-0.09194-0.16978-0.08834-0.17989 0.09958-0.27707 0.10729-0.05546 0.19503-0.11806 0.19503-0.13912 0-0.06197-0.43055-0.63026-0.57991-0.76547-0.1371-0.12401-0.1383-0.12343-0.54277 0.27747l-0.40538 0.40177-0.22149-0.22852-0.22145-0.22849 0.40782-0.41151 0.40786-0.41151-0.28093-0.22664c-0.15451-0.12462-0.36468-0.28006-0.467-0.34547-0.20031-0.12793-0.18255-0.13629-0.39714 0.18722-0.05605 0.08453-0.09764 0.07639-0.30867-0.06067-0.24101-0.15653-0.24272-0.16066-0.1458-0.34809 0.05395-0.1043 0.09807-0.20296 0.09807-0.21923 0-0.03815-0.94086-0.43045-1.0323-0.43045-0.03817 0-0.0693 0.02744-0.0693 0.06056 0 0.03344-0.02745 0.13272-0.06098 0.22088-0.05777 0.15203-0.07483 0.15679-0.33072 0.09181-0.26695-0.06776-0.26939-0.07104-0.23106-0.31094 0.04357-0.27226 0.06304-0.263-0.75427-0.35798l-0.37257-0.04328v1.1814l-0.30782 1.32e-4 -0.30782 1.06e-4 0.02101-0.55113c0.0163-0.43132 0-0.55885-0.07127-0.58661-0.13466-0.05162-1.1175 0.12541-1.1082 0.19968 0.0043 0.03474 0.02574 0.13872 0.04734 0.23127 0.03559 0.1511 0.01416 0.17595-0.20979 0.24302-0.33243 0.09956-0.31995 0.10398-0.38363-0.13592-0.0666-0.25072-0.11283-0.24879-0.73832 0.03088l-0.44273 0.19796 0.12835 0.21751 0.12831 0.21749-0.2657 0.13557c-0.28003 0.14288-0.27827 0.14348-0.44792-0.15319-0.06072-0.10618-0.08774-0.09935-0.34907 0.08834-0.15579 0.11189-0.36442 0.28813-0.46361 0.39166l-0.18032 0.1882 0.40173 0.40537 0.40178 0.40534-0.20884 0.20889-0.20889 0.20884-0.39997-0.3964c-0.24439-0.24225-0.42978-0.37793-0.47669-0.34899-0.04203 0.02619-0.20768 0.22529-0.36768 0.44268-0.31108 0.42254-0.31103 0.4236 0.03087 0.62047 0.06754 0.03903 0.05601 0.09906-0.05498 0.2872-0.15777 0.26736-0.19718 0.28027-0.41687 0.13631-0.18247-0.11956-0.20104-0.09583-0.45696 0.58412-0.1573 0.41786-0.15322 0.48874 0.02787 0.49051 0.23251 0 0.28011 0.0943 0.19525 0.37748-0.07247 0.24191-0.09584 0.26331-0.2483 0.2276-0.09259-0.02196-0.19504-0.04302-0.22767-0.04739-0.07586-0.01032-0.15387 0.34589-0.17578 0.80214l-0.01714 0.35639 1.1918 0.03704v0.57833h-1.1854l0.03988 0.47175c0.02188 0.25945 0.11386 0.72702 0.20425 1.039 0.75976 2.6217 2.9404 4.5404 5.6448 4.9669 0.66709 0.1052 1.9879 0.0313 2.6971-0.15108zm0.10871-5.0975-0.88241-0.44378-0.2751 0.13615c-0.67464 0.33375-1.4712 0.08689-1.8304-0.56732-0.09717-0.17698-0.17766-0.40923-0.17882-0.51618 0-0.18912-0.05442-0.22106-1.9277-1.1777-1.059-0.54086-1.936-1.0147-1.9487-1.053-0.05836-0.17505 0.26841-0.1161 1.5227 0.27472 0.74162 0.23109 1.6494 0.51308 2.0172 0.62664l0.66881 0.20648 0.27081-0.18119c0.3685-0.24656 1.005-0.29358 1.378-0.10178 0.33471 0.17211 0.57331 0.43233 0.7276 0.79359 0.11506 0.26948 0.15601 0.30387 0.47395 0.3977 0.88606 0.26146 1.4486 0.44688 1.4942 0.49239 0.0461 0.04614-0.48222 1.4194-0.5827 1.5144-0.02487 0.02355-0.44213-0.15703-0.92744-0.40114zm-1.351-0.66212c0.95733-0.48321 0.63317-1.863-0.43767-1.863-0.38599 0-0.68901 0.17973-0.87413 0.51842-0.15391 0.2816-0.12664 0.7733 0.05695 1.0254 0.14138 0.19418 0.62563 0.46498 0.83146 0.46498 0.073975 0 0.26451-0.06562 0.42339-0.14581zm-0.85124-0.26146c-0.26146-0.17576-0.38471-0.49295-0.31378-0.8074 0.06536-0.28985 0.22261-0.45503 0.51705-0.54324 0.51426-0.15407 0.96903 0.20018 0.96955 0.75531 0 0.61087-0.65487 0.94361-1.1728 0.59534z" fill="#6f8ce9" stroke-width=".28222"/>
</svg>
