<?xml version="1.0" encoding="UTF-8"?>
<svg width="100.15mm" height="34.472mm" version="1.1" viewBox="0 0 100.15 34.472" xmlns="http://www.w3.org/2000/svg" xmlns:cc="http://creativecommons.org/ns#" xmlns:dc="http://purl.org/dc/elements/1.1/" xmlns:rdf="http://www.w3.org/1999/02/22-rdf-syntax-ns#">
 <metadata>
  <rdf:RDF>
   <cc:Work rdf:about="">
    <dc:format>image/svg+xml</dc:format>
    <dc:type rdf:resource="http://purl.org/dc/dcmitype/StillImage"/>
    <dc:title/>
   </cc:Work>
  </rdf:RDF>
 </metadata>
 <g fill="none" stroke="#535e70" stroke-linecap="square" stroke-width=".26458">
  <path d="m12.703 33.258h87.312" style="paint-order:normal"/>
  <path d="m12.703 32.596v1.3229" style="paint-order:normal"/>
  <path d="m20.641 32.596v1.3229" style="paint-order:normal"/>
  <path d="m28.578 32.596v1.3229" style="paint-order:normal"/>
  <path d="m36.516 32.596v1.3229" style="paint-order:normal"/>
  <path d="m44.453 32.596v1.3229" style="paint-order:normal"/>
  <path d="m52.391 32.596v1.3229" style="paint-order:normal"/>
  <path d="m60.328 32.596v1.3229" style="paint-order:normal"/>
  <path d="m68.266 32.596v1.3229" style="paint-order:normal"/>
  <path d="m76.203 32.596v1.3229" style="paint-order:normal"/>
  <path d="m84.141 32.596v1.3229" style="paint-order:normal"/>
  <path d="m92.078 32.596v1.3229" style="paint-order:normal"/>
  <path d="m100.02 32.596v1.3229" style="paint-order:normal"/>
 </g>
 <g>
  <g fill="#e8eaec" stroke-linecap="round" stroke-width=".26458" aria-label="Time">
   <path d="m3.582 34.295h0.30745v-2.1706h0.73713v-0.25929h-1.7817v0.25929h0.73713z"/>
   <path d="m5.1794 32.125c0.11853 0 0.21114-0.08149 0.21114-0.19632 0-0.11853-0.092604-0.19632-0.21114-0.19632-0.11853 0-0.21114 0.07779-0.21114 0.19632 0 0.11483 0.092604 0.19632 0.21114 0.19632zm-0.15558 2.1706h0.30374v-1.8002h-0.30374z"/>
   <path d="m5.9354 34.295h0.30374v-1.3039c0.16669-0.18521 0.31856-0.27781 0.45191-0.27781 0.22966 0 0.33708 0.14446 0.33708 0.48154v1.1001h0.30374v-1.3039c0.16669-0.18521 0.31115-0.27781 0.45191-0.27781 0.22595 0 0.33338 0.14446 0.33338 0.48154v1.1001h0.30374v-1.1409c0-0.45932-0.1778-0.70379-0.54822-0.70379-0.21855 0-0.40375 0.14076-0.59267 0.34449-0.074083-0.21484-0.22225-0.34449-0.49636-0.34449-0.21484 0-0.40375 0.13335-0.55933 0.30374h-0.011112l-0.025929-0.25929h-0.25188z"/>
   <path d="m8.8695 33.399c0 0.58896 0.38153 0.94086 0.86307 0.94086 0.24448 0 0.43709-0.0852 0.59267-0.18521l-0.10742-0.20002c-0.13335 0.0852-0.27781 0.14076-0.4482 0.14076-0.34449 0-0.57785-0.24448-0.60008-0.63341h1.215c0.0074-0.04445 0.01111-0.10372 0.01111-0.16669 0-0.51488-0.25929-0.84455-0.71861-0.84455-0.41116 0-0.80751 0.3593-0.80751 0.94827zm0.29633-0.13706c0.037042-0.36301 0.2667-0.57044 0.51858-0.57044 0.28152 0 0.4445 0.20373 0.4445 0.57044z"/>
  </g>
  <g fill="#e8eaec" stroke-linecap="round" stroke-width=".26458" aria-label="Server">
   <path d="m0.13229 28.953c0.21114 0.21855 0.50747 0.3593 0.84825 0.3593 0.51118 0 0.82973-0.30745 0.82973-0.69268 0-0.3593-0.21855-0.52599-0.50006-0.64823l-0.34819-0.14817c-0.18891-0.081491-0.40375-0.17039-0.40375-0.40375 0-0.21855 0.1815-0.3556 0.45561-0.3556 0.22225 0 0.40375 0.0889 0.55192 0.22966l0.16298-0.20002c-0.17039-0.1778-0.42598-0.30004-0.7149-0.30004-0.4408 0-0.76676 0.27411-0.76676 0.64453 0 0.3556 0.2667 0.5297 0.49265 0.626l0.34819 0.15187c0.22966 0.10372 0.40746 0.1815 0.40746 0.42968 0 0.23707-0.18891 0.39635-0.50747 0.39635-0.25559 0-0.49636-0.12224-0.67045-0.30374z"/>
   <path d="m2.1151 28.372c0 0.58896 0.38153 0.94086 0.86307 0.94086 0.24448 0 0.43709-0.0852 0.59267-0.18521l-0.10742-0.20002c-0.13335 0.0852-0.27781 0.14076-0.4482 0.14076-0.34449 0-0.57785-0.24448-0.60008-0.63341h1.215c0.00741-0.04445 0.011112-0.10372 0.011112-0.16669 0-0.51488-0.25929-0.84455-0.71861-0.84455-0.41116 0-0.80751 0.3593-0.80751 0.94827zm0.29633-0.13706c0.037042-0.36301 0.2667-0.57044 0.51858-0.57044 0.28152 0 0.4445 0.20373 0.4445 0.57044z"/>
   <path d="m4.0861 29.268h0.30374v-1.1557c0.12224-0.30374 0.30374-0.41487 0.45561-0.41487 0.074083 0 0.11483 0.01111 0.1741 0.02963l0.059267-0.2667c-0.059267-0.02593-0.11483-0.03704-0.19262-0.03704-0.20373 0-0.38894 0.14446-0.51118 0.37042h-0.011113l-0.025929-0.32597h-0.25188z"/>
   <path d="m5.8352 29.268h0.3556l0.63712-1.8002h-0.30004l-0.34078 1.0224c-0.051858 0.1778-0.11113 0.3593-0.16298 0.5297h-0.014817c-0.055562-0.17039-0.11483-0.3519-0.16669-0.5297l-0.34078-1.0224h-0.31485z"/>
   <path d="m7.0275 28.372c0 0.58896 0.38153 0.94086 0.86307 0.94086 0.24448 0 0.43709-0.0852 0.59267-0.18521l-0.10742-0.20002c-0.13335 0.0852-0.27781 0.14076-0.4482 0.14076-0.34449 0-0.57785-0.24448-0.60008-0.63341h1.215c0.00741-0.04445 0.011112-0.10372 0.011112-0.16669 0-0.51488-0.25929-0.84455-0.71861-0.84455-0.41116 0-0.80751 0.3593-0.80751 0.94827zm0.29633-0.13706c0.037042-0.36301 0.2667-0.57044 0.51858-0.57044 0.28152 0 0.4445 0.20373 0.4445 0.57044z"/>
   <path d="m8.9985 29.268h0.30374v-1.1557c0.12224-0.30374 0.30374-0.41487 0.45561-0.41487 0.074083 0 0.11483 0.01111 0.1741 0.02963l0.059267-0.2667c-0.059267-0.02593-0.11483-0.03704-0.19262-0.03704-0.20373 0-0.38894 0.14446-0.51118 0.37042h-0.011113l-0.025929-0.32597h-0.25188z"/>
  </g>
  <path d="m16.672 27.173 8.2021-9.8508" fill="none" stroke="#6f8ce9" stroke-linecap="square" stroke-miterlimit="22" stroke-width=".13229" style="paint-order:normal"/>
 </g>
 <g>
  <g transform="matrix(.0012719 -.0016939 .0017229 .0012937 23.899 17.534)" fill="#6f8ce9" stroke-width="123.85">
   <g fill="#6f8ce9" stroke-width="123.85">
    <path d="m486.41 221.41-364.07-208.5c-52.938-30.318-95.852-5.44-95.852 55.563v415.65c0 61.004 42.914 85.882 95.852 55.563l364.07-208.49c52.938-30.317 52.938-79.473 0-109.79z" fill="#6f8ce9" stroke-width="123.85"/>
   </g>
  </g>
  <g fill="#e8eaec" stroke-linecap="round" stroke-width=".26458" aria-label="#1">
   <path d="m18.83 28.739h0.14288l0.06615-0.53975h0.34925l-0.0635 0.53975h0.14023l0.06615-0.53975h0.24342v-0.15081h-0.2249l0.04762-0.39158h0.23019v-0.15346h-0.21431l0.0635-0.48419h-0.14023l-0.0635 0.48419h-0.3519l0.06085-0.48419h-0.14023l-0.06085 0.48419h-0.24342v0.15346h0.2249l-0.04763 0.39158h-0.23019v0.15081h0.21167zm0.22754-0.69056 0.04763-0.39158h0.34925l-0.04763 0.39158z"/>
   <path d="m20.113 28.739h0.9525v-0.17992h-0.34925v-1.5081h-0.16669c-0.0926 0.05556-0.20373 0.0979-0.35719 0.12435v0.14023h0.30692v1.2435h-0.38629z"/>
  </g>
  <path d="m15.37 26.871-0.28522 0.25554v1.6429l0.28522 0.25556h2.2589l0.28522-0.25556v-1.6429l-0.28522-0.25554z" fill="#1d232d" stroke="#47d58a" stroke-linecap="round" stroke-miterlimit="22" stroke-width=".13229"/>
  <path d="m15.377 26.871-0.29205 0.25554 1.2778 0.73774h0.27382l1.2778-0.73774-0.29207-0.25554z" fill="#47d58a"/>
 </g>
 <path d="m32.547 27.173 3.9688-4.7665" fill="none" stroke="#6f8ce9" stroke-linecap="square" stroke-miterlimit="22" stroke-width=".13229" style="paint-order:normal"/>
 <g transform="matrix(.0012719 -.0016939 .0017229 .0012937 36.069 22.032)" fill="#6f8ce9" stroke-width="123.85">
  <g fill="#6f8ce9" stroke-width="123.85">
   <path d="m486.41 221.41-364.07-208.5c-52.938-30.318-95.852-5.44-95.852 55.563v415.65c0 61.004 42.914 85.882 95.852 55.563l364.07-208.49c52.938-30.317 52.938-79.473 0-109.79z" fill="#6f8ce9" stroke-width="123.85"/>
  </g>
 </g>
 <g>
  <g fill="#e8eaec" stroke-linecap="round" stroke-width=".26458" aria-label="#3">
   <path d="m42.642 28.739h0.14288l0.06614-0.53975h0.34925l-0.0635 0.53975h0.14023l0.06615-0.53975h0.24342v-0.15081h-0.2249l0.04763-0.39158h0.23019v-0.15346h-0.21431l0.0635-0.48419h-0.14023l-0.0635 0.48419h-0.3519l0.06085-0.48419h-0.14023l-0.06085 0.48419h-0.24342v0.15346h0.2249l-0.04762 0.39158h-0.23019v0.15081h0.21167zm0.22754-0.69056 0.04763-0.39158h0.34925l-0.04762 0.39158z"/>
   <path d="m43.786 28.533c0.11377 0.12435 0.28575 0.23812 0.55562 0.23812 0.30956 0 0.55562-0.18256 0.55562-0.48154 0-0.23283-0.1614-0.381-0.36512-0.42862v-0.01058c0.18256-0.06879 0.30692-0.19844 0.30692-0.40217 0-0.27252-0.21167-0.42862-0.50535-0.42862-0.19844 0-0.35454 0.08996-0.48419 0.21167l0.11642 0.13758c0.10054-0.10054 0.2196-0.17198 0.35983-0.17198 0.17992 0 0.29104 0.10319 0.29104 0.26723 0 0.17727-0.11906 0.31485-0.4789 0.31485v0.16669c0.40217 0 0.53975 0.13494 0.53975 0.33602 0 0.18785-0.14552 0.30956-0.34925 0.30956-0.19844 0-0.33073-0.09525-0.43127-0.20108z"/>
  </g>
  <path d="m40.485 27.173 8.2021-9.8508" fill="none" stroke="#6f8ce9" stroke-linecap="square" stroke-miterlimit="22" stroke-width=".13229" style="paint-order:normal"/>
  <path d="m39.182 26.871-0.28522 0.25554v1.6429l0.28522 0.25556h2.2589l0.28522-0.25556v-1.6429l-0.28522-0.25554z" fill="#1d232d" stroke="#f6c9a0" stroke-linecap="round" stroke-miterlimit="22" stroke-width=".13229"/>
 </g>
 <path d="m39.189 26.871-0.29205 0.25554 1.2778 0.73774h0.27382l1.2778-0.73774-0.29207-0.25554z" fill="#f6c9a0"/>
 <path d="m48.422 27.173 8.2021-9.8508" fill="none" stroke="#6f8ce9" stroke-linecap="square" stroke-miterlimit="22" stroke-width=".13229" style="paint-order:normal"/>
 <g>
  <g transform="matrix(.0012719 -.0016939 .0017229 .0012937 55.649 17.534)" fill="#6f8ce9" stroke-width="123.85">
   <g fill="#6f8ce9" stroke-width="123.85">
    <path d="m486.41 221.41-364.07-208.5c-52.938-30.318-95.852-5.44-95.852 55.563v415.65c0 61.004 42.914 85.882 95.852 55.563l364.07-208.49c52.938-30.317 52.938-79.473 0-109.79z" fill="#6f8ce9" stroke-width="123.85"/>
   </g>
  </g>
  <g fill="#e8eaec" stroke-linecap="round" stroke-width=".26458" aria-label="#4">
   <path d="m50.58 28.739h0.14288l0.06614-0.53975h0.34925l-0.0635 0.53975h0.14023l0.06615-0.53975h0.24342v-0.15081h-0.2249l0.04763-0.39158h0.23019v-0.15346h-0.21431l0.0635-0.48419h-0.14023l-0.0635 0.48419h-0.3519l0.06085-0.48419h-0.14023l-0.06085 0.48419h-0.24342v0.15346h0.2249l-0.04762 0.39158h-0.23019v0.15081h0.21167zm0.22754-0.69056 0.04763-0.39158h0.34925l-0.04762 0.39158z"/>
   <path d="m51.93 28.099 0.39423-0.57679c0.04763-0.08202 0.09525-0.1561 0.13758-0.23812h0.01058c-0.0053 0.08996-0.01323 0.23548-0.01323 0.32544v0.48948zm0.96573 0h-0.23019v-1.0477h-0.24342l-0.72231 1.0795v0.14287h0.75935v0.46567h0.20638v-0.46567h0.23019z"/>
  </g>
  <path d="m47.12 26.871-0.28522 0.25554v1.6429l0.28522 0.25556h2.2589l0.28522-0.25556v-1.6429l-0.28522-0.25554z" fill="#1d232d" stroke="#6f8ce9" stroke-linecap="round" stroke-miterlimit="22" stroke-width=".13229"/>
  <path d="m47.127 26.871-0.29205 0.25554 1.2778 0.73774h0.27382l1.2778-0.73774-0.29207-0.25554z" fill="#6f8ce9"/>
  <g fill="#e8eaec" stroke-linecap="round" stroke-width=".26458" aria-label="#2">
   <path d="m34.705 28.739h0.14288l0.06614-0.53975h0.34925l-0.0635 0.53975h0.14023l0.06615-0.53975h0.24342v-0.15081h-0.2249l0.04763-0.39158h0.23019v-0.15346h-0.21431l0.0635-0.48419h-0.14023l-0.0635 0.48419h-0.3519l0.06085-0.48419h-0.14023l-0.06085 0.48419h-0.24342v0.15346h0.2249l-0.04762 0.39158h-0.23019v0.15081h0.21167zm0.22754-0.69056 0.04763-0.39158h0.34925l-0.04762 0.39158z"/>
   <path d="m35.885 28.739h1.0901v-0.18785h-0.48948c-0.08731 0-0.1905 0.0079-0.2831 0.01588 0.39952-0.41804 0.68792-0.7329 0.68792-1.0504 0-0.29898-0.19314-0.49742-0.50535-0.49742-0.2196 0-0.37042 0.10319-0.51064 0.25665l0.12435 0.12435c0.0979-0.11377 0.2196-0.20373 0.35983-0.20373 0.21431 0 0.32014 0.13758 0.32014 0.33073 0 0.27252-0.28575 0.57679-0.79375 1.0821z"/>
  </g>
  <g transform="matrix(.0012719 -.0016939 .0017229 .0012937 47.711 17.534)" fill="#6f8ce9" stroke-width="123.85">
   <g fill="#6f8ce9" stroke-width="123.85">
    <path d="m486.41 221.41-364.07-208.5c-52.938-30.318-95.852-5.44-95.852 55.563v415.65c0 61.004 42.914 85.882 95.852 55.563l364.07-208.49c52.938-30.317 52.938-79.473 0-109.79z" fill="#6f8ce9" stroke-width="123.85"/>
   </g>
  </g>
 </g>
 <g>
  <g transform="matrix(.139 0 0 .139 -113.15 9.1443)" fill="none" stroke="#cf2f25" stroke-width="1.9034">
   <path d="m1093.8 75.892-11.725 11.725"/>
   <path d="m1082.1 75.892 11.725 11.725"/>
  </g>
  <g fill="#e8eaec" stroke-linecap="round" stroke-width=".26458" aria-label="Client">
   <path d="m1.1481 9.797c0 0.79269 0.45561 1.2594 1.0668 1.2594 0.30745 0 0.54822-0.12965 0.73713-0.3519l-0.1741-0.18891c-0.15558 0.1741-0.32597 0.2704-0.55563 0.2704-0.46302 0-0.75565-0.38523-0.75565-0.99642 0-0.60378 0.30745-0.9816 0.77047-0.9816 0.20003 0 0.3556 0.0889 0.48525 0.22595l0.1741-0.19632c-0.14446-0.15928-0.37412-0.30004-0.66305-0.30004-0.6223 0-1.0853 0.47784-1.0853 1.2594z"/>
   <path d="m3.3684 10.649c0 0.263 0.092604 0.40746 0.32226 0.40746 0.081492 0 0.13335-0.01111 0.1741-0.02963l-0.040746-0.22966c-0.033338 0.0074-0.048154 0.0074-0.066675 0.0074-0.04445 0-0.085196-0.03704-0.085196-0.13335v-2.2966h-0.30374z"/>
   <path d="m4.4717 8.8413c0.11853 0 0.21114-0.081492 0.21114-0.19632 0-0.11853-0.092604-0.19632-0.21114-0.19632-0.11853 0-0.21114 0.077788-0.21114 0.19632 0 0.11483 0.092604 0.19632 0.21114 0.19632zm-0.15558 2.1706h0.30374v-1.8002h-0.30374z"/>
   <path d="m5.0944 10.116c0 0.58896 0.38153 0.94086 0.86307 0.94086 0.24448 0 0.43709-0.0852 0.59267-0.18521l-0.10742-0.20002c-0.13335 0.0852-0.27781 0.14076-0.4482 0.14076-0.34449 0-0.57785-0.24448-0.60008-0.63341h1.215c0.00741-0.04445 0.011112-0.10372 0.011112-0.16669 0-0.51488-0.25929-0.84455-0.71861-0.84455-0.41116 0-0.80751 0.3593-0.80751 0.94827zm0.29633-0.13705c0.037042-0.36301 0.2667-0.57044 0.51858-0.57044 0.28152 0 0.4445 0.20373 0.4445 0.57044z"/>
   <path d="m7.0653 11.012h0.30374v-1.3039c0.1815-0.1815 0.30745-0.27781 0.49265-0.27781 0.23707 0 0.34078 0.14446 0.34078 0.48154v1.1001h0.30374v-1.1409c0-0.45932-0.17039-0.70379-0.54822-0.70379-0.24818 0-0.43339 0.13335-0.60378 0.30374h-0.011112l-0.025929-0.25929h-0.25188z"/>
   <path d="m9.1429 10.456c0 0.3556 0.12965 0.60008 0.51488 0.60008 0.11113 0 0.23336-0.03334 0.33338-0.06668l-0.059267-0.22966c-0.059267 0.02223-0.14076 0.04815-0.20373 0.04815-0.20743 0-0.27781-0.12594-0.27781-0.34819v-1.0001h0.48525v-0.24818h-0.48525v-0.50377h-0.25559l-0.037042 0.50377-0.28152 0.018521v0.22966h0.2667z"/>
  </g>
  <rect transform="rotate(-90)" x="-16.325" y="12.703" width="13.184" height="87.312" fill="#1d232d" stroke="#535e70" stroke-linecap="round" stroke-width=".13229"/>
 </g>
 <g fill="none" stroke="#535e70" stroke-linecap="square" stroke-width=".13229">
  <g>
   <path d="m20.641 16.325v-13.229" style="paint-order:normal"/>
   <path d="m28.578 16.325v-13.229" style="paint-order:normal"/>
   <path d="m36.516 16.325v-13.229" style="paint-order:normal"/>
   <path d="m44.453 16.325v-13.229" style="paint-order:normal"/>
   <path d="m52.391 16.325v-13.229" style="paint-order:normal"/>
   <path d="m60.328 16.325v-13.229" style="paint-order:normal"/>
   <path d="m68.266 16.325v-13.229" style="paint-order:normal"/>
   <path d="m76.203 16.325v-13.229" style="paint-order:normal"/>
   <path d="m84.141 16.325v-13.229" style="paint-order:normal"/>
   <path d="m92.078 16.325v-13.229" style="paint-order:normal"/>
  </g>
  <path d="m12.703 11.033h87.312" stroke-miterlimit="22" style="paint-order:normal"/>
  <path d="m100.02 13.679h-87.312" stroke-miterlimit="22" style="paint-order:normal"/>
 </g>
 <g transform="matrix(.26458 0 0 .26458 294.22 -562.46)">
  <path d="m-1023.9 2178.4-1.078 0.9658v6.2092l1.078 0.9659h8.5376l1.078-0.9659v-6.2092l-1.078-0.9658z" fill="#1d232d" stroke="#47d58a" stroke-linecap="round" stroke-miterlimit="22" stroke-width=".5"/>
  <path d="m-1023.9 2178.4-1.1038 0.9658 4.8293 2.7883h1.0349l4.8294-2.7883-1.1039-0.9658z" fill="#47d58a"/>
 </g>
 <path d="m26.301 15.114 0.84185 0.84185c0.16838-1.0102 0.6735-1.5153 1.0102-1.8521" fill="none" stroke="#47d58a" stroke-linecap="square" stroke-miterlimit="22" stroke-width=".26458" style="paint-order:normal"/>
 <g>
  <path d="m47.384 8.6143-0.28522 0.25554v1.6429l0.28522 0.25556h2.2589l0.28522-0.25556v-1.6429l-0.28522-0.25554z" fill="#1d232d" stroke="#f6c9a0" stroke-linecap="round" stroke-miterlimit="22" stroke-width=".13229"/>
  <path d="m47.391 8.6143-0.29205 0.25554 1.2778 0.73774h0.27382l1.2778-0.73774-0.29207-0.25554z" fill="#f6c9a0"/>
  <path d="m55.322 5.9684-0.28522 0.25554v1.6428l0.28522 0.25556h2.2589l0.28522-0.25556v-1.6428l-0.28522-0.25554z" fill="#1d232d" stroke="#6f8ce9" stroke-linecap="round" stroke-miterlimit="22" stroke-width=".13229"/>
  <path d="m55.329 5.9684-0.29205 0.25554 1.2778 0.73774h0.27382l1.2778-0.73774-0.29207-0.25554z" fill="#6f8ce9"/>
  <path d="m55.322 8.6143-0.28522 0.25554v1.6429l0.28522 0.25556h2.2589l0.28522-0.25556v-1.6429l-0.28522-0.25554z" fill="#1d232d" stroke="#f6c9a0" stroke-linecap="round" stroke-miterlimit="22" stroke-width=".13229"/>
  <path d="m55.329 8.6143-0.29205 0.25554 1.2778 0.73774h0.27382l1.2778-0.73774-0.29207-0.25554z" fill="#f6c9a0"/>
  <g fill="#e8eaec" stroke-linecap="round" stroke-width=".26458" aria-label="apply">
   <path d="m21.656 1.6827c0 0.23019 0.1614 0.36512 0.37835 0.36512 0.15875 0 0.30162-0.084667 0.42598-0.18521h0.0053l0.01852 0.15346h0.17991v-0.78846c0-0.32015-0.13229-0.52917-0.44714-0.52917-0.20638 0-0.38629 0.089958-0.50535 0.16669l0.08731 0.15081c0.10054-0.068792 0.23283-0.13758 0.38364-0.13758 0.20902 0 0.26458 0.15875 0.26458 0.32279-0.54769 0.060854-0.7911 0.20108-0.7911 0.48154zm0.21431-0.015875c0-0.16404 0.14552-0.26987 0.57679-0.32279v0.35719c-0.12435 0.11112-0.22754 0.17198-0.3519 0.17198-0.127 0-0.2249-0.060854-0.2249-0.20637z"/>
   <path d="m23.285 1.8997c0.11906 0.092604 0.23812 0.14817 0.35719 0.14817 0.29369 0 0.55562-0.25665 0.55562-0.69321 0-0.39952-0.17727-0.65617-0.508-0.65617-0.15081 0-0.29369 0.082021-0.4101 0.17992h-0.0079l-0.018558-0.14817h-0.17992v1.8283h0.21696v-0.43392zm0.0053-0.16933v-0.67469c0.127-0.11377 0.23548-0.17462 0.34396-0.17462 0.24342 0 0.33867 0.1905 0.33867 0.4736 0 0.3175-0.1561 0.51065-0.36777 0.51065-0.08467 0-0.19844-0.037042-0.31485-0.13494z"/>
   <path d="m24.752 1.8997c0.11906 0.092604 0.23812 0.14817 0.35719 0.14817 0.29369 0 0.55562-0.25665 0.55562-0.69321 0-0.39952-0.17727-0.65617-0.508-0.65617-0.15081 0-0.29369 0.082021-0.4101 0.17992h-0.0079l-0.018558-0.14817h-0.17992v1.8283h0.21696v-0.43392zm0.0053-0.16933v-0.67469c0.127-0.11377 0.23548-0.17462 0.34396-0.17462 0.24342 0 0.33867 0.1905 0.33867 0.4736 0 0.3175-0.1561 0.51065-0.36777 0.51065-0.08467 0-0.19844-0.037042-0.31485-0.13494z"/>
   <path d="m26.008 1.7568c0 0.18785 0.06615 0.29104 0.23019 0.29104 0.05821 0 0.09525-0.00794 0.12435-0.021167l-0.0291-0.16404c-0.02381 0.00529-0.0344 0.00529-0.04763 0.00529-0.03175 0-0.06085-0.026458-0.06085-0.09525v-1.6404h-0.21696z"/>
   <path d="m26.598 2.3707-0.04233 0.17198c0.04233 0.015875 0.0926 0.026458 0.15081 0.026458 0.25929 0 0.39158-0.19315 0.48154-0.44715l0.48418-1.3917h-0.21167l-0.23019 0.71173c-0.0344 0.11377-0.07144 0.24606-0.10848 0.36248h-0.01058c-0.039691-0.11906-0.08467-0.25135-0.12436-0.36248l-0.26194-0.71173h-0.2249l0.51594 1.2885-0.0291 0.09525c-0.05292 0.15875-0.14552 0.27517-0.29104 0.27517-0.03175 0-0.07144-0.010583-0.0979-0.018521z"/>
  </g>
 </g>
 <path d="m12.703 8.3871h87.312" fill="none" stroke="#535e70" stroke-linecap="square" stroke-miterlimit="22" stroke-width=".13229" style="paint-order:normal"/>
 <path d="m12.703 5.7413h87.312" fill="none" stroke="#535e70" stroke-linecap="square" stroke-miterlimit="22" stroke-width=".13229" style="paint-order:normal"/>
 <g>
  <path d="m31.245 26.871-0.28522 0.25554v1.6429l0.28522 0.25556h2.2589l0.28522-0.25556v-1.6429l-0.28522-0.25554z" fill="#1d232d" stroke="#fbb227" stroke-linecap="round" stroke-miterlimit="22" stroke-width=".13229"/>
  <path d="m31.252 26.871-0.29205 0.25554 1.2778 0.73774h0.27382l1.2778-0.73774-0.29207-0.25554z" fill="#fbb227"/>
  <g fill="#e8eaec" stroke-linecap="round" stroke-width=".26458" aria-label="#2">
   <path d="m58.517 28.739h0.14288l0.06614-0.53975h0.34925l-0.0635 0.53975h0.14023l0.06615-0.53975h0.24342v-0.15081h-0.2249l0.04763-0.39158h0.23019v-0.15346h-0.21431l0.0635-0.48419h-0.14023l-0.0635 0.48419h-0.3519l0.06085-0.48419h-0.14023l-0.06085 0.48419h-0.24342v0.15346h0.2249l-0.04762 0.39158h-0.23019v0.15081h0.21167zm0.22754-0.69056 0.04763-0.39158h0.34925l-0.04762 0.39158z"/>
   <path d="m59.698 28.739h1.0901v-0.18785h-0.48948c-0.08731 0-0.1905 0.0079-0.2831 0.01588 0.39952-0.41804 0.68792-0.7329 0.68792-1.0504 0-0.29898-0.19314-0.49742-0.50535-0.49742-0.2196 0-0.37042 0.10319-0.51064 0.25665l0.12435 0.12435c0.0979-0.11377 0.2196-0.20373 0.35983-0.20373 0.21431 0 0.32014 0.13758 0.32014 0.33073 0 0.27252-0.28575 0.57679-0.79375 1.0821z"/>
  </g>
 </g>
 <path d="m56.36 27.173 8.2021-9.8508" fill="none" stroke="#6f8ce9" stroke-linecap="square" stroke-miterlimit="22" stroke-width=".13229" style="paint-order:normal"/>
 <g>
  <g transform="matrix(.0012719 -.0016939 .0017229 .0012937 63.586 17.534)" fill="#6f8ce9" stroke-width="123.85">
   <g fill="#6f8ce9" stroke-width="123.85">
    <path d="m486.41 221.41-364.07-208.5c-52.938-30.318-95.852-5.44-95.852 55.563v415.65c0 61.004 42.914 85.882 95.852 55.563l364.07-208.49c52.938-30.317 52.938-79.473 0-109.79z" fill="#6f8ce9" stroke-width="123.85"/>
   </g>
  </g>
  <path d="m55.057 26.871-0.28522 0.25554v1.6429l0.28522 0.25556h2.2589l0.28522-0.25556v-1.6429l-0.28522-0.25554z" fill="#1d232d" stroke="#fbb227" stroke-linecap="round" stroke-miterlimit="22" stroke-width=".13229"/>
  <path d="m55.064 26.871-0.29205 0.25554 1.2778 0.73774h0.27382l1.2778-0.73774-0.29207-0.25554z" fill="#fbb227"/>
  <g fill="#e8eaec" stroke-linecap="round" stroke-width=".26458" aria-label="re-send">
   <path d="m61.407 23.183h0.21696v-0.8255c0.08731-0.21696 0.21696-0.29633 0.32544-0.29633 0.05292 0 0.08202 0.0079 0.12435 0.02117l0.04233-0.1905c-0.04233-0.01852-0.08202-0.02646-0.13758-0.02646-0.14552 0-0.27781 0.10319-0.36512 0.26458h-0.0079l-0.01852-0.23283h-0.17992z"/>
   <path d="m62.205 22.542c0 0.42069 0.27252 0.67204 0.61648 0.67204 0.17462 0 0.31221-0.06085 0.42333-0.13229l-0.07673-0.14288c-0.09525 0.06086-0.19844 0.10054-0.32014 0.10054-0.24606 0-0.41275-0.17462-0.42862-0.45244h0.86783c0.0053-0.03175 0.0079-0.07408 0.0079-0.11906 0-0.36777-0.18521-0.60325-0.51329-0.60325-0.29369 0-0.57679 0.25664-0.57679 0.67733zm0.21167-0.0979c0.02646-0.25929 0.1905-0.40746 0.37042-0.40746 0.20108 0 0.3175 0.14552 0.3175 0.40746z"/>
   <path d="m63.52 22.603h0.60854v-0.16669h-0.60854z"/>
   <path d="m64.308 23.037c0.12171 0.10054 0.29633 0.17727 0.4789 0.17727 0.30427 0 0.47096-0.17462 0.47096-0.38365 0-0.24342-0.20638-0.32014-0.39158-0.38894-0.14552-0.05556-0.28575-0.10319-0.28575-0.22225 0-0.0979 0.07408-0.18521 0.23548-0.18521 0.11377 0 0.20638 0.04763 0.29369 0.11377l0.10319-0.13758c-0.0979-0.07937-0.23812-0.14552-0.39952-0.14552-0.27781 0-0.44185 0.15875-0.44185 0.36512 0 0.21696 0.20108 0.30427 0.38364 0.37042 0.14023 0.05292 0.29369 0.11112 0.29369 0.24342 0 0.11112-0.08467 0.20108-0.254 0.20108-0.15346 0-0.26723-0.0635-0.37835-0.15346z"/>
   <path d="m65.466 22.542c0 0.42069 0.27252 0.67204 0.61648 0.67204 0.17462 0 0.31221-0.06085 0.42333-0.13229l-0.07673-0.14288c-0.09525 0.06086-0.19844 0.10054-0.32014 0.10054-0.24606 0-0.41275-0.17462-0.42862-0.45244h0.86783c0.0053-0.03175 0.0079-0.07408 0.0079-0.11906 0-0.36777-0.18521-0.60325-0.51329-0.60325-0.29369 0-0.57679 0.25664-0.57679 0.67733zm0.21167-0.0979c0.02646-0.25929 0.1905-0.40746 0.37042-0.40746 0.20108 0 0.3175 0.14552 0.3175 0.40746z"/>
   <path d="m66.874 23.183h0.21696v-0.93133c0.12965-0.12965 0.2196-0.19844 0.3519-0.19844 0.16933 0 0.24342 0.10319 0.24342 0.34396v0.78581h0.21696v-0.81492c0-0.32808-0.12171-0.50271-0.39158-0.50271-0.17727 0-0.30956 0.09525-0.43127 0.21696h-0.0079l-0.01852-0.18521h-0.17992z"/>
   <path d="m68.228 22.542c0 0.42862 0.20902 0.67204 0.53181 0.67204 0.15081 0 0.2884-0.08467 0.38894-0.18256h0.0079l0.01852 0.15081h0.17992v-1.8838h-0.21956v0.49477l0.01058 0.2196c-0.11377-0.0926-0.21167-0.14817-0.35983-0.14817-0.29369 0-0.55827 0.25929-0.55827 0.67733zm0.2249-0.0026c0-0.29369 0.16404-0.49212 0.37042-0.49212 0.10583 0 0.20373 0.03704 0.31221 0.13494v0.67204c-0.10583 0.11906-0.20902 0.17727-0.32808 0.17727-0.2249 0-0.35454-0.18521-0.35454-0.49212z"/>
  </g>
  <path d="m63.259 5.9684-0.28522 0.25554v1.6428l0.28522 0.25556h2.2589l0.28522-0.25556v-1.6428l-0.28522-0.25554z" fill="#1d232d" stroke="#6f8ce9" stroke-linecap="round" stroke-miterlimit="22" stroke-width=".13229"/>
  <path d="m63.266 5.9684-0.29205 0.25554 1.2778 0.73774h0.27382l1.2778-0.73774-0.29207-0.25554z" fill="#6f8ce9"/>
  <path d="m63.259 8.6143-0.28522 0.25554v1.6429l0.28522 0.25556h2.2589l0.28522-0.25556v-1.6429l-0.28522-0.25554z" fill="#1d232d" stroke="#f6c9a0" stroke-linecap="round" stroke-miterlimit="22" stroke-width=".13229"/>
  <path d="m63.266 8.6143-0.29205 0.25554 1.2778 0.73774h0.27382l1.2778-0.73774-0.29207-0.25554z" fill="#f6c9a0"/>
  <g fill="#e8eaec" stroke-linecap="round" stroke-width=".26458" aria-label="apply">
   <path d="m61.343 1.6827c0 0.23019 0.1614 0.36512 0.37835 0.36512 0.15875 0 0.30162-0.084667 0.42598-0.18521h0.0053l0.01852 0.15346h0.17992v-0.78846c0-0.32015-0.13229-0.52917-0.44714-0.52917-0.20638 0-0.38629 0.089958-0.50535 0.16669l0.08731 0.15081c0.10054-0.068792 0.23283-0.13758 0.38364-0.13758 0.20902 0 0.26458 0.15875 0.26458 0.32279-0.54769 0.060854-0.7911 0.20108-0.7911 0.48154zm0.21431-0.015875c0-0.16404 0.14552-0.26987 0.57679-0.32279v0.35719c-0.12435 0.11112-0.22754 0.17198-0.3519 0.17198-0.127 0-0.2249-0.060854-0.2249-0.20637z"/>
   <path d="m62.972 1.8997c0.11906 0.092604 0.23812 0.14817 0.35719 0.14817 0.29369 0 0.55562-0.25665 0.55562-0.69321 0-0.39952-0.17727-0.65617-0.508-0.65617-0.15081 0-0.29369 0.082021-0.4101 0.17992h-0.0079l-0.018558-0.14817h-0.17992v1.8283h0.21696v-0.43392zm0.0053-0.16933v-0.67469c0.127-0.11377 0.23548-0.17462 0.34396-0.17462 0.24342 0 0.33867 0.1905 0.33867 0.4736 0 0.3175-0.1561 0.51065-0.36777 0.51065-0.08467 0-0.19844-0.037042-0.31485-0.13494z"/>
   <path d="m64.44 1.8997c0.11906 0.092604 0.23812 0.14817 0.35719 0.14817 0.29369 0 0.55562-0.25665 0.55562-0.69321 0-0.39952-0.17727-0.65617-0.508-0.65617-0.15081 0-0.29369 0.082021-0.4101 0.17992h-0.0079l-0.018558-0.14817h-0.17992v1.8283h0.21696v-0.43392zm0.0053-0.16933v-0.67469c0.127-0.11377 0.23548-0.17462 0.34396-0.17462 0.24342 0 0.33867 0.1905 0.33867 0.4736 0 0.3175-0.1561 0.51065-0.36777 0.51065-0.08467 0-0.19844-0.037042-0.31485-0.13494z"/>
   <path d="m65.696 1.7568c0 0.18785 0.06615 0.29104 0.23019 0.29104 0.05821 0 0.09525-0.00794 0.12435-0.021167l-0.0291-0.16404c-0.02381 0.00529-0.0344 0.00529-0.04762 0.00529-0.03175 0-0.06085-0.026458-0.06085-0.09525v-1.6404h-0.21696z"/>
   <path d="m66.286 2.3707-0.04233 0.17198c0.04233 0.015875 0.0926 0.026458 0.15081 0.026458 0.25929 0 0.39158-0.19315 0.48154-0.44715l0.48418-1.3917h-0.21167l-0.23019 0.71173c-0.0344 0.11377-0.07144 0.24606-0.10848 0.36248h-0.01058c-0.039691-0.11906-0.08467-0.25135-0.12436-0.36248l-0.26194-0.71173h-0.2249l0.51594 1.2885-0.0291 0.09525c-0.05292 0.15875-0.14552 0.27517-0.29104 0.27517-0.03175 0-0.07144-0.010583-0.0979-0.018521z"/>
  </g>
  <path d="m63.259 11.26-0.28522 0.25554v1.6429l0.28522 0.25556h2.2589l0.28522-0.25556v-1.6429l-0.28522-0.25554z" fill="#1d232d" stroke="#fbb227" stroke-linecap="round" stroke-miterlimit="22" stroke-width=".13229"/>
  <path d="m63.266 11.26-0.29205 0.25554 1.2778 0.73774h0.27382l1.2778-0.73774-0.29207-0.25554z" fill="#fbb227"/>
 </g>
 <g fill="none" stroke-linecap="square" stroke-miterlimit="22">
  <g stroke="#47d58a" stroke-width=".26458">
   <path d="m65.989 9.8225 0.84185 0.84185c0.16838-1.0102 0.6735-1.5153 1.0102-1.8521" style="paint-order:normal"/>
   <path d="m65.989 7.1767 0.84185 0.84185c0.16838-1.0102 0.6735-1.5153 1.0102-1.8521" style="paint-order:normal"/>
   <path d="m65.989 12.468 0.84185 0.84185c0.16838-1.0102 0.6735-1.5153 1.0102-1.8521" style="paint-order:normal"/>
  </g>
  <path d="m72.235 27.173 8.2021-9.8508" stroke="#6f8ce9" stroke-width=".13229" style="paint-order:normal"/>
 </g>
 <g>
  <g transform="matrix(.0012719 -.0016939 .0017229 .0012937 79.461 17.534)" fill="#6f8ce9" stroke-width="123.85">
   <g fill="#6f8ce9" stroke-width="123.85">
    <path d="m486.41 221.41-364.07-208.5c-52.938-30.318-95.852-5.44-95.852 55.563v415.65c0 61.004 42.914 85.882 95.852 55.563l364.07-208.49c52.938-30.317 52.938-79.473 0-109.79z" fill="#6f8ce9" stroke-width="123.85"/>
   </g>
  </g>
  <g fill="#e8eaec" stroke-linecap="round" stroke-width=".26458" aria-label="#5">
   <path d="m74.392 28.739h0.14288l0.06614-0.53975h0.34925l-0.0635 0.53975h0.14023l0.06615-0.53975h0.24342v-0.15081h-0.2249l0.04762-0.39158h0.23019v-0.15346h-0.21431l0.0635-0.48419h-0.14023l-0.0635 0.48419h-0.3519l0.06085-0.48419h-0.14023l-0.06085 0.48419h-0.24342v0.15346h0.2249l-0.04762 0.39158h-0.23019v0.15081h0.21167zm0.22754-0.69056 0.04762-0.39158h0.34925l-0.04762 0.39158z"/>
   <path d="m75.533 28.541c0.11642 0.11642 0.2831 0.23019 0.55298 0.23019 0.29369 0 0.56885-0.20637 0.56885-0.5715 0-0.36512-0.23548-0.52917-0.52387-0.52917-0.10319 0-0.17992 0.02646-0.25929 0.06879l0.04498-0.50006h0.65352v-0.18785h-0.84402l-0.05556 0.81227 0.11642 0.07408c0.10054-0.06615 0.17198-0.10319 0.2884-0.10319 0.21696 0 0.35983 0.13758 0.35983 0.37042 0 0.23548-0.16404 0.38629-0.37042 0.38629-0.19844 0-0.32544-0.0926-0.42598-0.19315z"/>
  </g>
  <path d="m70.932 26.871-0.28522 0.25554v1.6429l0.28522 0.25556h2.2589l0.28522-0.25556v-1.6429l-0.28522-0.25554z" fill="#1d232d" stroke="#47d58a" stroke-linecap="round" stroke-miterlimit="22" stroke-width=".13229"/>
  <path d="m70.939 26.871-0.29205 0.25554 1.2778 0.73774h0.27382l1.2778-0.73774-0.29207-0.25554z" fill="#47d58a"/>
  <g fill="#e8eaec" stroke-linecap="round" stroke-width=".26458" aria-label="apply">
   <path d="m77.218 1.6827c0 0.23019 0.1614 0.36512 0.37835 0.36512 0.15875 0 0.30162-0.084667 0.42598-0.18521h0.0053l0.01852 0.15346h0.17992v-0.78846c0-0.32015-0.13229-0.52917-0.44714-0.52917-0.20638 0-0.38629 0.089958-0.50535 0.16669l0.08731 0.15081c0.10054-0.068792 0.23283-0.13758 0.38364-0.13758 0.20902 0 0.26458 0.15875 0.26458 0.32279-0.54769 0.060854-0.7911 0.20108-0.7911 0.48154zm0.21431-0.015875c0-0.16404 0.14552-0.26987 0.57679-0.32279v0.35719c-0.12435 0.11112-0.22754 0.17198-0.3519 0.17198-0.127 0-0.2249-0.060854-0.2249-0.20637z"/>
   <path d="m78.847 1.8997c0.11906 0.092604 0.23812 0.14817 0.35719 0.14817 0.29369 0 0.55562-0.25665 0.55562-0.69321 0-0.39952-0.17727-0.65617-0.508-0.65617-0.15081 0-0.29369 0.082021-0.4101 0.17992h-0.0079l-0.018558-0.14817h-0.17992v1.8283h0.21696v-0.43392zm0.0053-0.16933v-0.67469c0.127-0.11377 0.23548-0.17462 0.34396-0.17462 0.24342 0 0.33867 0.1905 0.33867 0.4736 0 0.3175-0.1561 0.51065-0.36777 0.51065-0.08467 0-0.19844-0.037042-0.31485-0.13494z"/>
   <path d="m80.315 1.8997c0.11906 0.092604 0.23812 0.14817 0.35719 0.14817 0.29369 0 0.55562-0.25665 0.55562-0.69321 0-0.39952-0.17727-0.65617-0.508-0.65617-0.15081 0-0.29369 0.082021-0.4101 0.17992h-0.0079l-0.018558-0.14817h-0.17992v1.8283h0.21696v-0.43392zm0.0053-0.16933v-0.67469c0.127-0.11377 0.23548-0.17462 0.34396-0.17462 0.24342 0 0.33867 0.1905 0.33867 0.4736 0 0.3175-0.1561 0.51065-0.36777 0.51065-0.08467 0-0.19844-0.037042-0.31485-0.13494z"/>
   <path d="m81.571 1.7568c0 0.18785 0.06615 0.29104 0.23019 0.29104 0.05821 0 0.09525-0.00794 0.12435-0.021167l-0.0291-0.16404c-0.02381 0.00529-0.0344 0.00529-0.04762 0.00529-0.03175 0-0.06085-0.026458-0.06085-0.09525v-1.6404h-0.21696z"/>
   <path d="m82.161 2.3707-0.04233 0.17198c0.04233 0.015875 0.0926 0.026458 0.15081 0.026458 0.25929 0 0.39158-0.19315 0.48154-0.44715l0.48418-1.3917h-0.21167l-0.23019 0.71173c-0.0344 0.11377-0.07144 0.24606-0.10848 0.36248h-0.01058c-0.039691-0.11906-0.08467-0.25135-0.12436-0.36248l-0.26194-0.71173h-0.2249l0.51594 1.2885-0.0291 0.09525c-0.05292 0.15875-0.14552 0.27517-0.29104 0.27517-0.03175 0-0.07144-0.010583-0.0979-0.018521z"/>
  </g>
  <path d="m79.134 3.3226-0.28522 0.25553v1.6429l0.28522 0.25556h2.2589l0.28522-0.25556v-1.6429l-0.28522-0.25553z" fill="#1d232d" stroke="#47d58a" stroke-linecap="round" stroke-miterlimit="22" stroke-width=".13229"/>
  <path d="m79.141 3.3226-0.29205 0.25553 1.2778 0.73774h0.27382l1.2778-0.73774-0.29207-0.25553z" fill="#47d58a"/>
 </g>
 <path d="m82.128 4.5308 0.84185 0.84185c0.16838-1.0102 0.6735-1.5153 1.0102-1.8521" fill="none" stroke="#47d58a" stroke-linecap="square" stroke-miterlimit="22" stroke-width=".26458" style="paint-order:normal"/>
</svg>
