<?xml version="1.0" encoding="UTF-8"?>
<svg width="91.281mm" height="17.422mm" version="1.1" viewBox="0 0 91.281 17.422" xmlns="http://www.w3.org/2000/svg" xmlns:cc="http://creativecommons.org/ns#" xmlns:dc="http://purl.org/dc/elements/1.1/" xmlns:rdf="http://www.w3.org/1999/02/22-rdf-syntax-ns#">
 <metadata>
  <rdf:RDF>
   <cc:Work rdf:about="">
    <dc:format>image/svg+xml</dc:format>
    <dc:type rdf:resource="http://purl.org/dc/dcmitype/StillImage"/>
    <dc:title/>
   </cc:Work>
  </rdf:RDF>
 </metadata>
 <g>
  <rect transform="rotate(-90)" x="-17.356" y=".066146" width="13.626" height="91.149" fill="#1d232d" stroke="#535e70" stroke-linecap="round" stroke-width=".13229"/>
  <g fill="#6f8ce9" stroke="#cf2f25" stroke-linecap="round" stroke-width=".26458" aria-label="0">
   <path d="m3.4956 9.0372c0.47043 0 0.75565-0.4408 0.75565-1.2335s-0.28522-1.2187-0.75565-1.2187c-0.47413 0-0.75935 0.42598-0.75935 1.2187s0.28522 1.2335 0.75935 1.2335zm0-0.24448c-0.27781 0-0.46302-0.29633-0.46302-0.98901s0.18521-0.9742 0.46302-0.9742c0.27411 0 0.45932 0.28152 0.45932 0.9742s-0.18521 0.98901-0.45932 0.98901z" fill="#6f8ce9" stroke="none"/>
  </g>
  <g fill="#d2d6dc" opacity=".91" aria-label="8">
   <path d="m24.757-1.0729e-7c-0.3556 0-0.626 0.25559-0.626 0.56674 0 0.22595 0.14446 0.43339 0.3519 0.54081-0.27411 0.12965-0.45932 0.38153-0.45932 0.64823 0 0.34449 0.30374 0.6186 0.70009 0.6186 0.40376 0 0.7112-0.28152 0.7112-0.63341 0-0.27411-0.18521-0.51858-0.4445-0.64082 0.22225-0.11483 0.36671-0.33338 0.36671-0.55563 0-0.30374-0.263-0.54451-0.60008-0.54451zm-0.077788 1.215c0.29633 0.092604 0.49266 0.29633 0.49266 0.52229 0 0.22225-0.18891 0.40375-0.43709 0.40375-0.25188 0-0.4445-0.18891-0.4445-0.41857 0-0.21855 0.17039-0.41857 0.38894-0.50747zm0.05556-1.0001c0.20743 0 0.37042 0.15558 0.37042 0.34819 0 0.1778-0.13705 0.34819-0.31856 0.4445 0 0-0.40746-0.15558-0.40746-0.46302 0-0.1815 0.15558-0.32967 0.3556-0.32967z" fill="#d2d6dc" stroke-width=".28222px"/>
  </g>
 </g>
 <g fill="#6f8ce9" stroke="#cf2f25" stroke-linecap="round" stroke-width=".26458">
  <g aria-label="0">
   <path d="m6.1414 9.0372c0.47043 0 0.75565-0.4408 0.75565-1.2335s-0.28522-1.2187-0.75565-1.2187c-0.47413 0-0.75935 0.42598-0.75935 1.2187s0.28522 1.2335 0.75935 1.2335zm0-0.24448c-0.27781 0-0.46302-0.29633-0.46302-0.98901s0.18521-0.9742 0.46302-0.9742c0.27411 0 0.45932 0.28152 0.45932 0.9742s-0.18521 0.98901-0.45932 0.98901z" fill="#6f8ce9" stroke="none"/>
  </g>
  <g aria-label="0">
   <path d="m8.7872 9.0372c0.47043 0 0.75565-0.4408 0.75565-1.2335s-0.28522-1.2187-0.75565-1.2187c-0.47413 0-0.75935 0.42598-0.75935 1.2187s0.28522 1.2335 0.75935 1.2335zm0-0.24448c-0.27781 0-0.46302-0.29633-0.46302-0.98901s0.18521-0.9742 0.46302-0.9742c0.27411 0 0.45932 0.28152 0.45932 0.9742s-0.18521 0.98901-0.45932 0.98901z" fill="#6f8ce9" stroke="none"/>
  </g>
  <g aria-label="0">
   <path d="m11.433 9.0372c0.47043 0 0.75565-0.4408 0.75565-1.2335s-0.28522-1.2187-0.75565-1.2187c-0.47413 0-0.75936 0.42598-0.75936 1.2187s0.28522 1.2335 0.75936 1.2335zm0-0.24448c-0.27781 0-0.46302-0.29633-0.46302-0.98901s0.18521-0.9742 0.46302-0.9742c0.27411 0 0.45932 0.28152 0.45932 0.9742s-0.18521 0.98901-0.45932 0.98901z" fill="#6f8ce9" stroke="none"/>
  </g>
  <g aria-label="1">
   <path d="m13.449 8.9927h1.3335v-0.25188h-0.48895v-2.1114h-0.23336c-0.12965 0.077788-0.28522 0.13705-0.50006 0.1741v0.19632h0.42968v1.741h-0.54081z" fill="#6f8ce9" stroke="none"/>
  </g>
  <g aria-label="0">
   <path d="m16.725 9.0372c0.47043 0 0.75565-0.4408 0.75565-1.2335s-0.28522-1.2187-0.75565-1.2187c-0.47413 0-0.75936 0.42598-0.75936 1.2187s0.28522 1.2335 0.75936 1.2335zm0-0.24448c-0.27781 0-0.46302-0.29633-0.46302-0.98901s0.18521-0.9742 0.46302-0.9742c0.27411 0 0.45932 0.28152 0.45932 0.9742s-0.18521 0.98901-0.45932 0.98901z" fill="#6f8ce9" stroke="none"/>
  </g>
  <g aria-label="1">
   <path d="m18.741 8.9927h1.3335v-0.25188h-0.48895v-2.1114h-0.23336c-0.12965 0.077788-0.28522 0.13705-0.50006 0.1741v0.19632h0.42968v1.741h-0.54081z" fill="#6f8ce9" stroke="none"/>
  </g>
  <g aria-label="0">
   <path d="m22.016 9.0372c0.47043 0 0.75565-0.4408 0.75565-1.2335s-0.28522-1.2187-0.75565-1.2187c-0.47413 0-0.75936 0.42598-0.75936 1.2187s0.28522 1.2335 0.75936 1.2335zm0-0.24448c-0.27781 0-0.46302-0.29633-0.46302-0.98901s0.18521-0.9742 0.46302-0.9742c0.27411 0 0.45932 0.28152 0.45932 0.9742s-0.18521 0.98901-0.45932 0.98901z" fill="#6f8ce9" stroke="none"/>
  </g>
  <g aria-label="0">
   <path d="m24.662 9.0372c0.47043 0 0.75565-0.4408 0.75565-1.2335s-0.28522-1.2187-0.75565-1.2187c-0.47413 0-0.75936 0.42598-0.75936 1.2187s0.28522 1.2335 0.75936 1.2335zm0-0.24448c-0.27781 0-0.46302-0.29633-0.46302-0.98901s0.18521-0.9742 0.46302-0.9742c0.27411 0 0.45932 0.28152 0.45932 0.9742s-0.18521 0.98901-0.45932 0.98901z" fill="#6f8ce9" stroke="none"/>
  </g>
 </g>
 <g fill="#d2d6dc">
  <g opacity=".91" aria-label="0">
   <path d="m3.5641 0.011112c-0.36671 0-0.74454 0.45191-0.74454 1.189 0 0.74824 0.38153 1.1779 0.74824 1.1779 0.33338 0 0.72972-0.36301 0.72972-1.1594 0-0.78528-0.37783-1.2076-0.73343-1.2076zm0.3593 0.5297-0.81121 1.052c-0.033338-0.12965-0.051858-0.27411-0.051858-0.43709 0-0.59267 0.2704-0.91863 0.50006-0.91863 0.12594 0 0.263 0.10001 0.36301 0.30374zm0.085196 0.24448c0.033338 0.12965 0.048154 0.28522 0.048154 0.46673 0 0.64453-0.27781 0.889-0.48154 0.889-0.13705 0-0.27781-0.11113-0.37783-0.31485z" fill="#d2d6dc" stroke-width=".28222px"/>
  </g>
  <g opacity=".91" stroke-width=".28222px" aria-label="16">
   <path d="m45.142 0.025929h-0.17039l-0.59267 0.30745 0.05927 0.14446 0.45932-0.12965v1.7854h-0.42968v0.20373h1.089v-0.20373h-0.41487z"/>
   <path d="m46.957-1.0729e-7c-0.27781 0-0.57415 0.17039-0.71861 0.57415-0.07779 0.21855-0.09631 0.48895-0.09631 0.7112 0 0.2704 0.02593 0.55933 0.1741 0.78158 0.13335 0.20373 0.34078 0.30745 0.54451 0.30745 0.3519 0 0.65934-0.29633 0.65934-0.77417 0-0.47784-0.30745-0.75565-0.63341-0.75565-0.20002 0-0.38894 0.10742-0.48895 0.27781 0.01482-0.78899 0.39264-0.8927 0.55933-0.8927 0.15187 0 0.25559 0.081492 0.2704 0.096308 0.02222 0.025929 0.02222 0.059267 0.05556 0.085196l0.1778-0.20003c-0.13335-0.13335-0.31856-0.21114-0.50376-0.21114zm-0.096309 1.0742c0.18521 0 0.40746 0.14446 0.40746 0.54081 0 0.3593-0.20002 0.5297-0.39635 0.5297-0.28152 0-0.49266-0.32967-0.46302-0.76306 0.10372-0.18891 0.28152-0.30745 0.45191-0.30745z"/>
  </g>
  <g opacity=".91" stroke-width=".28222px" aria-label="24">
   <path d="m65.494 0.38523 0.18891 0.15187c0.02223-0.033338 0.01111-0.055562 0.03334-0.085196 0.05556-0.085196 0.19262-0.21114 0.39264-0.21114 0.24818 0 0.4445 0.18891 0.4445 0.43709 0 0.28152-0.23707 0.48525-0.40376 0.63712-0.263 0.23707-0.47784 0.47413-0.67046 0.85566v0.16298h1.3557v-0.25559c-0.02593-0.011113-0.04445 0.00741-0.05186 0.014817-0.01482 0.014817-0.02223 0.014817-0.03704 0.014817h-0.97049c0.19262-0.33338 0.46302-0.56303 0.62971-0.71861 0.16669-0.15928 0.40375-0.39635 0.40375-0.72972 0-0.3593-0.29263-0.64823-0.66675-0.64823-0.263 0-0.51118 0.14076-0.64823 0.37412z"/>
   <path d="m68.22 0.025929-0.9816 1.478v0.19262h0.92975v0.63712h0.2667v-0.63341h0.30004v-0.22966h-0.30004v-1.4446zm-0.04815 0.41116v1.0335h-0.67786z"/>
  </g>
  <g opacity=".91" stroke-width=".28222px" aria-label="32">
   <path d="m87.894 0.60378c0-0.31485-0.2667-0.58526-0.63341-0.58526-0.20743 0-0.41116 0.0889-0.55563 0.24818l0.14446 0.15928c0.10742-0.11483 0.25559-0.1778 0.40005-0.1778 0.23707 0 0.40005 0.16669 0.40005 0.36301 0 0.13705-0.08519 0.29263-0.24818 0.36301-0.04075 0.014817-0.14446 0.055562-0.36301 0.055562v0.20743c0.03704-0.0037 0.07779-0.00741 0.11853-0.00741 0.31115 0 0.54081 0.16298 0.54081 0.4408 0 0.25188-0.19262 0.47043-0.46302 0.47043-0.21484 0-0.34449-0.14076-0.36301-0.15928-0.02963-0.033338-0.01482-0.070379-0.04815-0.10372l-0.19262 0.23336c0.15187 0.1741 0.37412 0.263 0.60378 0.263 0.4445 0 0.7112-0.31485 0.7112-0.67416 0-0.27411-0.15558-0.50747-0.39635-0.59637 0.20743-0.077788 0.34449-0.27411 0.34449-0.50006z"/>
   <path d="m88.512 0.38523 0.18891 0.15187c0.02223-0.033338 0.01111-0.055562 0.03334-0.085196 0.05556-0.085196 0.19262-0.21114 0.39264-0.21114 0.24818 0 0.4445 0.18891 0.4445 0.43709 0 0.28152-0.23707 0.48525-0.40376 0.63712-0.263 0.23707-0.47784 0.47413-0.67046 0.85566v0.16298h1.3557v-0.25559c-0.02593-0.011113-0.04445 0.00741-0.05186 0.014817-0.01482 0.014817-0.02223 0.014817-0.03704 0.014817h-0.97049c0.19262-0.33338 0.46302-0.56303 0.62971-0.71861 0.16669-0.15928 0.40375-0.39635 0.40375-0.72972 0-0.3593-0.29263-0.64823-0.66675-0.64823-0.263 0-0.51118 0.14076-0.64823 0.37412z"/>
  </g>
 </g>
 <g fill="#6f8ce9" stroke="#cf2f25" stroke-linecap="round" stroke-width=".26458">
  <g aria-label="0">
   <path d="m27.308 9.0372c0.47043 0 0.75565-0.4408 0.75565-1.2335s-0.28522-1.2187-0.75565-1.2187c-0.47413 0-0.75936 0.42598-0.75936 1.2187s0.28522 1.2335 0.75936 1.2335zm0-0.24448c-0.27781 0-0.46302-0.29633-0.46302-0.98901s0.18521-0.9742 0.46302-0.9742c0.27411 0 0.45932 0.28152 0.45932 0.9742s-0.18521 0.98901-0.45932 0.98901z" fill="#6f8ce9" stroke="none"/>
  </g>
  <g aria-label="0">
   <path d="m29.954 9.0372c0.47043 0 0.75565-0.4408 0.75565-1.2335s-0.28522-1.2187-0.75565-1.2187c-0.47413 0-0.75936 0.42598-0.75936 1.2187s0.28522 1.2335 0.75936 1.2335zm0-0.24448c-0.27781 0-0.46302-0.29633-0.46302-0.98901s0.18521-0.9742 0.46302-0.9742c0.27411 0 0.45932 0.28152 0.45932 0.9742s-0.18521 0.98901-0.45932 0.98901z" fill="#6f8ce9" stroke="none"/>
  </g>
  <g aria-label="0">
   <path d="m32.6 9.0372c0.47043 0 0.75565-0.4408 0.75565-1.2335s-0.28522-1.2187-0.75565-1.2187c-0.47413 0-0.75936 0.42598-0.75936 1.2187s0.28522 1.2335 0.75936 1.2335zm0-0.24448c-0.27781 0-0.46302-0.29633-0.46302-0.98901s0.18521-0.9742 0.46302-0.9742c0.27411 0 0.45932 0.28152 0.45932 0.9742s-0.18521 0.98901-0.45932 0.98901z" fill="#6f8ce9" stroke="none"/>
  </g>
  <g aria-label="0">
   <path d="m35.246 9.0372c0.47043 0 0.75565-0.4408 0.75565-1.2335s-0.28522-1.2187-0.75565-1.2187c-0.47413 0-0.75936 0.42598-0.75936 1.2187s0.28522 1.2335 0.75936 1.2335zm0-0.24448c-0.27781 0-0.46302-0.29633-0.46302-0.98901s0.18521-0.9742 0.46302-0.9742c0.27411 0 0.45932 0.28152 0.45932 0.9742s-0.18521 0.98901-0.45932 0.98901z" fill="#6f8ce9" stroke="none"/>
  </g>
  <g aria-label="0">
   <path d="m37.891 9.0372c0.47043 0 0.75565-0.4408 0.75565-1.2335s-0.28522-1.2187-0.75565-1.2187c-0.47413 0-0.75936 0.42598-0.75936 1.2187s0.28522 1.2335 0.75936 1.2335zm0-0.24448c-0.27781 0-0.46302-0.29633-0.46302-0.98901s0.18521-0.9742 0.46302-0.9742c0.27411 0 0.45932 0.28152 0.45932 0.9742s-0.18521 0.98901-0.45932 0.98901z" fill="#6f8ce9" stroke="none"/>
  </g>
  <g aria-label="0">
   <path d="m40.537 9.0372c0.47043 0 0.75565-0.4408 0.75565-1.2335s-0.28522-1.2187-0.75565-1.2187c-0.47413 0-0.75936 0.42598-0.75936 1.2187s0.28522 1.2335 0.75936 1.2335zm0-0.24448c-0.27781 0-0.46302-0.29633-0.46302-0.98901s0.18521-0.9742 0.46302-0.9742c0.27411 0 0.45932 0.28152 0.45932 0.9742s-0.18521 0.98901-0.45932 0.98901z" fill="#6f8ce9" stroke="none"/>
  </g>
  <g aria-label="0">
   <path d="m43.183 9.0372c0.47043 0 0.75565-0.4408 0.75565-1.2335s-0.28522-1.2187-0.75565-1.2187c-0.47413 0-0.75936 0.42598-0.75936 1.2187s0.28522 1.2335 0.75936 1.2335zm0-0.24448c-0.27781 0-0.46302-0.29633-0.46302-0.98901s0.18521-0.9742 0.46302-0.9742c0.27411 0 0.45932 0.28152 0.45932 0.9742s-0.18521 0.98901-0.45932 0.98901z" fill="#6f8ce9" stroke="none"/>
  </g>
  <g aria-label="0">
   <path d="m45.829 9.0372c0.47043 0 0.75565-0.4408 0.75565-1.2335s-0.28522-1.2187-0.75565-1.2187c-0.47413 0-0.75936 0.42598-0.75936 1.2187s0.28522 1.2335 0.75936 1.2335zm0-0.24448c-0.27781 0-0.46302-0.29633-0.46302-0.98901s0.18521-0.9742 0.46302-0.9742c0.27411 0 0.45932 0.28152 0.45932 0.9742s-0.18521 0.98901-0.45932 0.98901z" fill="#6f8ce9" stroke="none"/>
  </g>
  <g aria-label="0">
   <path d="m48.475 9.0372c0.47043 0 0.75565-0.4408 0.75565-1.2335s-0.28522-1.2187-0.75565-1.2187c-0.47413 0-0.75936 0.42598-0.75936 1.2187s0.28522 1.2335 0.75936 1.2335zm0-0.24448c-0.27781 0-0.46302-0.29633-0.46302-0.98901s0.18521-0.9742 0.46302-0.9742c0.27411 0 0.45932 0.28152 0.45932 0.9742s-0.18521 0.98901-0.45932 0.98901z" fill="#6f8ce9" stroke="none"/>
  </g>
  <g aria-label="0">
   <path d="m51.121 9.0372c0.47043 0 0.75565-0.4408 0.75565-1.2335s-0.28522-1.2187-0.75565-1.2187c-0.47413 0-0.75936 0.42598-0.75936 1.2187s0.28522 1.2335 0.75936 1.2335zm0-0.24448c-0.27781 0-0.46302-0.29633-0.46302-0.98901s0.18521-0.9742 0.46302-0.9742c0.27411 0 0.45932 0.28152 0.45932 0.9742s-0.18521 0.98901-0.45932 0.98901z" fill="#6f8ce9" stroke="none"/>
  </g>
  <g aria-label="0">
   <path d="m53.766 9.0372c0.47043 0 0.75565-0.4408 0.75565-1.2335s-0.28522-1.2187-0.75565-1.2187c-0.47413 0-0.75936 0.42598-0.75936 1.2187s0.28522 1.2335 0.75936 1.2335zm0-0.24448c-0.27781 0-0.46302-0.29633-0.46302-0.98901s0.18521-0.9742 0.46302-0.9742c0.27411 0 0.45932 0.28152 0.45932 0.9742s-0.18521 0.98901-0.45932 0.98901z" fill="#6f8ce9" stroke="none"/>
  </g>
  <g aria-label="0">
   <path d="m56.412 9.0372c0.47043 0 0.75565-0.4408 0.75565-1.2335s-0.28522-1.2187-0.75565-1.2187c-0.47413 0-0.75936 0.42598-0.75936 1.2187s0.28522 1.2335 0.75936 1.2335zm0-0.24448c-0.27781 0-0.46302-0.29633-0.46302-0.98901s0.18521-0.9742 0.46302-0.9742c0.27411 0 0.45932 0.28152 0.45932 0.9742s-0.18521 0.98901-0.45932 0.98901z" fill="#6f8ce9" stroke="none"/>
  </g>
  <g aria-label="0">
   <path d="m59.058 9.0372c0.47043 0 0.75565-0.4408 0.75565-1.2335s-0.28522-1.2187-0.75565-1.2187c-0.47413 0-0.75936 0.42598-0.75936 1.2187s0.28522 1.2335 0.75936 1.2335zm0-0.24448c-0.27781 0-0.46302-0.29633-0.46302-0.98901s0.18521-0.9742 0.46302-0.9742c0.27411 0 0.45932 0.28152 0.45932 0.9742s-0.18521 0.98901-0.45932 0.98901z" fill="#6f8ce9" stroke="none"/>
  </g>
  <g aria-label="0">
   <path d="m61.704 9.0372c0.47043 0 0.75565-0.4408 0.75565-1.2335s-0.28522-1.2187-0.75565-1.2187c-0.47413 0-0.75936 0.42598-0.75936 1.2187s0.28522 1.2335 0.75936 1.2335zm0-0.24448c-0.27781 0-0.46302-0.29633-0.46302-0.98901s0.18521-0.9742 0.46302-0.9742c0.27411 0 0.45932 0.28152 0.45932 0.9742s-0.18521 0.98901-0.45932 0.98901z" fill="#6f8ce9" stroke="none"/>
  </g>
  <g aria-label="0">
   <path d="m64.35 9.0372c0.47043 0 0.75565-0.4408 0.75565-1.2335s-0.28522-1.2187-0.75565-1.2187c-0.47413 0-0.75936 0.42598-0.75936 1.2187s0.28522 1.2335 0.75936 1.2335zm0-0.24448c-0.27781 0-0.46302-0.29633-0.46302-0.98901s0.18521-0.9742 0.46302-0.9742c0.27411 0 0.45932 0.28152 0.45932 0.9742s-0.18521 0.98901-0.45932 0.98901z" fill="#6f8ce9" stroke="none"/>
  </g>
  <g aria-label="0">
   <path d="m66.996 9.0372c0.47043 0 0.75565-0.4408 0.75565-1.2335s-0.28522-1.2187-0.75565-1.2187c-0.47413 0-0.75936 0.42598-0.75936 1.2187s0.28522 1.2335 0.75936 1.2335zm0-0.24448c-0.27781 0-0.46302-0.29633-0.46302-0.98901s0.18521-0.9742 0.46302-0.9742c0.27411 0 0.45932 0.28152 0.45932 0.9742s-0.18521 0.98901-0.45932 0.98901z" fill="#6f8ce9" stroke="none"/>
  </g>
  <g aria-label="0">
   <path d="m69.641 9.0372c0.47043 0 0.75565-0.4408 0.75565-1.2335s-0.28522-1.2187-0.75565-1.2187c-0.47413 0-0.75936 0.42598-0.75936 1.2187s0.28522 1.2335 0.75936 1.2335zm0-0.24448c-0.27781 0-0.46302-0.29633-0.46302-0.98901s0.18521-0.9742 0.46302-0.9742c0.27411 0 0.45932 0.28152 0.45932 0.9742s-0.18521 0.98901-0.45932 0.98901z" fill="#6f8ce9" stroke="none"/>
  </g>
  <g aria-label="0">
   <path d="m72.287 9.0372c0.47043 0 0.75565-0.4408 0.75565-1.2335s-0.28522-1.2187-0.75565-1.2187c-0.47413 0-0.75936 0.42598-0.75936 1.2187s0.28522 1.2335 0.75936 1.2335zm0-0.24448c-0.27781 0-0.46302-0.29633-0.46302-0.98901s0.18521-0.9742 0.46302-0.9742c0.27411 0 0.45932 0.28152 0.45932 0.9742s-0.18521 0.98901-0.45932 0.98901z" fill="#6f8ce9" stroke="none"/>
  </g>
  <g aria-label="0">
   <path d="m74.933 9.0372c0.47043 0 0.75565-0.4408 0.75565-1.2335s-0.28522-1.2187-0.75565-1.2187c-0.47413 0-0.75936 0.42598-0.75936 1.2187s0.28522 1.2335 0.75936 1.2335zm0-0.24448c-0.27781 0-0.46302-0.29633-0.46302-0.98901s0.18521-0.9742 0.46302-0.9742c0.27411 0 0.45932 0.28152 0.45932 0.9742s-0.18521 0.98901-0.45932 0.98901z" fill="#6f8ce9" stroke="none"/>
  </g>
  <g aria-label="0">
   <path d="m77.579 9.0372c0.47043 0 0.75565-0.4408 0.75565-1.2335s-0.28522-1.2187-0.75565-1.2187c-0.47413 0-0.75936 0.42598-0.75936 1.2187s0.28522 1.2335 0.75936 1.2335zm0-0.24448c-0.27781 0-0.46302-0.29633-0.46302-0.98901s0.18521-0.9742 0.46302-0.9742c0.27411 0 0.45932 0.28152 0.45932 0.9742s-0.18521 0.98901-0.45932 0.98901z" fill="#6f8ce9" stroke="none"/>
  </g>
  <g aria-label="0">
   <path d="m80.225 9.0372c0.47043 0 0.75565-0.4408 0.75565-1.2335s-0.28522-1.2187-0.75565-1.2187c-0.47413 0-0.75936 0.42598-0.75936 1.2187s0.28522 1.2335 0.75936 1.2335zm0-0.24448c-0.27781 0-0.46302-0.29633-0.46302-0.98901s0.18521-0.9742 0.46302-0.9742c0.27411 0 0.45932 0.28152 0.45932 0.9742s-0.18521 0.98901-0.45932 0.98901z" fill="#6f8ce9" stroke="none"/>
  </g>
  <g aria-label="0">
   <path d="m82.871 9.0372c0.47043 0 0.75565-0.4408 0.75565-1.2335s-0.28522-1.2187-0.75565-1.2187c-0.47413 0-0.75936 0.42598-0.75936 1.2187s0.28522 1.2335 0.75936 1.2335zm0-0.24448c-0.27781 0-0.46302-0.29633-0.46302-0.98901s0.18521-0.9742 0.46302-0.9742c0.27411 0 0.45932 0.28152 0.45932 0.9742s-0.18521 0.98901-0.45932 0.98901z" fill="#6f8ce9" stroke="none"/>
  </g>
  <g aria-label="0">
   <path d="m85.516 9.0372c0.47043 0 0.75565-0.4408 0.75565-1.2335s-0.28522-1.2187-0.75565-1.2187c-0.47413 0-0.75936 0.42598-0.75936 1.2187s0.28522 1.2335 0.75936 1.2335zm0-0.24448c-0.27781 0-0.46302-0.29633-0.46302-0.98901s0.18521-0.9742 0.46302-0.9742c0.27411 0 0.45932 0.28152 0.45932 0.9742s-0.18521 0.98901-0.45932 0.98901z" fill="#6f8ce9" stroke="none"/>
  </g>
  <g aria-label="0">
   <path d="m88.162 9.0372c0.47043 0 0.75565-0.4408 0.75565-1.2335s-0.28522-1.2187-0.75565-1.2187c-0.47413 0-0.75936 0.42598-0.75936 1.2187s0.28522 1.2335 0.75936 1.2335zm0-0.24448c-0.27781 0-0.46302-0.29633-0.46302-0.98901s0.18521-0.9742 0.46302-0.9742c0.27411 0 0.45932 0.28152 0.45932 0.9742s-0.18521 0.98901-0.45932 0.98901z" fill="#6f8ce9" stroke="none"/>
  </g>
  <g aria-label="0">
   <path d="m3.4956 14.329c0.47043 0 0.75565-0.4408 0.75565-1.2335 0-0.79269-0.28522-1.2187-0.75565-1.2187-0.47413 0-0.75935 0.42598-0.75935 1.2187 0 0.79269 0.28522 1.2335 0.75935 1.2335zm0-0.24448c-0.27781 0-0.46302-0.29633-0.46302-0.98901 0-0.69268 0.18521-0.9742 0.46302-0.9742 0.27411 0 0.45932 0.28152 0.45932 0.9742 0 0.69268-0.18521 0.98901-0.45932 0.98901z" fill="#6f8ce9" stroke="none"/>
  </g>
  <g aria-label="0">
   <path d="m6.1414 14.329c0.47043 0 0.75565-0.4408 0.75565-1.2335 0-0.79269-0.28522-1.2187-0.75565-1.2187-0.47413 0-0.75935 0.42598-0.75935 1.2187 0 0.79269 0.28522 1.2335 0.75935 1.2335zm0-0.24448c-0.27781 0-0.46302-0.29633-0.46302-0.98901 0-0.69268 0.18521-0.9742 0.46302-0.9742 0.27411 0 0.45932 0.28152 0.45932 0.9742 0 0.69268-0.18521 0.98901-0.45932 0.98901z" fill="#6f8ce9" stroke="none"/>
  </g>
  <g aria-label="0">
   <path d="m8.7872 14.329c0.47043 0 0.75565-0.4408 0.75565-1.2335 0-0.79269-0.28522-1.2187-0.75565-1.2187-0.47413 0-0.75935 0.42598-0.75935 1.2187 0 0.79269 0.28522 1.2335 0.75935 1.2335zm0-0.24448c-0.27781 0-0.46302-0.29633-0.46302-0.98901 0-0.69268 0.18521-0.9742 0.46302-0.9742 0.27411 0 0.45932 0.28152 0.45932 0.9742 0 0.69268-0.18521 0.98901-0.45932 0.98901z" fill="#6f8ce9" stroke="none"/>
  </g>
  <g aria-label="0">
   <path d="m11.433 14.329c0.47043 0 0.75565-0.4408 0.75565-1.2335 0-0.79269-0.28522-1.2187-0.75565-1.2187-0.47413 0-0.75936 0.42598-0.75936 1.2187 0 0.79269 0.28522 1.2335 0.75936 1.2335zm0-0.24448c-0.27781 0-0.46302-0.29633-0.46302-0.98901 0-0.69268 0.18521-0.9742 0.46302-0.9742 0.27411 0 0.45932 0.28152 0.45932 0.9742 0 0.69268-0.18521 0.98901-0.45932 0.98901z" fill="#6f8ce9" stroke="none"/>
  </g>
  <g aria-label="1">
   <path d="m13.449 14.284h1.3335v-0.25188h-0.48895v-2.1114h-0.23336c-0.12965 0.07779-0.28522 0.13706-0.50006 0.1741v0.19632h0.42968v1.741h-0.54081z" fill="#6f8ce9" stroke="none"/>
  </g>
  <g aria-label="1">
   <path d="m16.095 14.284h1.3335v-0.25188h-0.48895v-2.1114h-0.23336c-0.12965 0.07779-0.28522 0.13706-0.50006 0.1741v0.19632h0.42968v1.741h-0.54081z" fill="#6f8ce9" stroke="none"/>
  </g>
  <g aria-label="1">
   <path d="m18.741 14.284h1.3335v-0.25188h-0.48895v-2.1114h-0.23336c-0.12965 0.07779-0.28522 0.13706-0.50006 0.1741v0.19632h0.42968v1.741h-0.54081z" fill="#6f8ce9" stroke="none"/>
  </g>
  <g aria-label="0">
   <path d="m22.016 14.329c0.47043 0 0.75565-0.4408 0.75565-1.2335 0-0.79269-0.28522-1.2187-0.75565-1.2187-0.47413 0-0.75936 0.42598-0.75936 1.2187 0 0.79269 0.28522 1.2335 0.75936 1.2335zm0-0.24448c-0.27781 0-0.46302-0.29633-0.46302-0.98901 0-0.69268 0.18521-0.9742 0.46302-0.9742 0.27411 0 0.45932 0.28152 0.45932 0.9742 0 0.69268-0.18521 0.98901-0.45932 0.98901z" fill="#6f8ce9" stroke="none"/>
  </g>
  <g aria-label="0">
   <path d="m24.662 14.329c0.47043 0 0.75565-0.4408 0.75565-1.2335 0-0.79269-0.28522-1.2187-0.75565-1.2187-0.47413 0-0.75936 0.42598-0.75936 1.2187 0 0.79269 0.28522 1.2335 0.75936 1.2335zm0-0.24448c-0.27781 0-0.46302-0.29633-0.46302-0.98901 0-0.69268 0.18521-0.9742 0.46302-0.9742 0.27411 0 0.45932 0.28152 0.45932 0.9742 0 0.69268-0.18521 0.98901-0.45932 0.98901z" fill="#6f8ce9" stroke="none"/>
  </g>
  <g aria-label="0">
   <path d="m27.308 14.329c0.47043 0 0.75565-0.4408 0.75565-1.2335 0-0.79269-0.28522-1.2187-0.75565-1.2187-0.47413 0-0.75936 0.42598-0.75936 1.2187 0 0.79269 0.28522 1.2335 0.75936 1.2335zm0-0.24448c-0.27781 0-0.46302-0.29633-0.46302-0.98901 0-0.69268 0.18521-0.9742 0.46302-0.9742 0.27411 0 0.45932 0.28152 0.45932 0.9742 0 0.69268-0.18521 0.98901-0.45932 0.98901z" fill="#6f8ce9" stroke="none"/>
  </g>
  <g aria-label="0">
   <path d="m29.954 14.329c0.47043 0 0.75565-0.4408 0.75565-1.2335 0-0.79269-0.28522-1.2187-0.75565-1.2187-0.47413 0-0.75936 0.42598-0.75936 1.2187 0 0.79269 0.28522 1.2335 0.75936 1.2335zm0-0.24448c-0.27781 0-0.46302-0.29633-0.46302-0.98901 0-0.69268 0.18521-0.9742 0.46302-0.9742 0.27411 0 0.45932 0.28152 0.45932 0.9742 0 0.69268-0.18521 0.98901-0.45932 0.98901z" fill="#6f8ce9" stroke="none"/>
  </g>
  <g aria-label="0">
   <path d="m32.6 14.329c0.47043 0 0.75565-0.4408 0.75565-1.2335 0-0.79269-0.28522-1.2187-0.75565-1.2187-0.47413 0-0.75936 0.42598-0.75936 1.2187 0 0.79269 0.28522 1.2335 0.75936 1.2335zm0-0.24448c-0.27781 0-0.46302-0.29633-0.46302-0.98901 0-0.69268 0.18521-0.9742 0.46302-0.9742 0.27411 0 0.45932 0.28152 0.45932 0.9742 0 0.69268-0.18521 0.98901-0.45932 0.98901z" fill="#6f8ce9" stroke="none"/>
  </g>
  <g aria-label="0">
   <path d="m35.246 14.329c0.47043 0 0.75565-0.4408 0.75565-1.2335 0-0.79269-0.28522-1.2187-0.75565-1.2187-0.47413 0-0.75936 0.42598-0.75936 1.2187 0 0.79269 0.28522 1.2335 0.75936 1.2335zm0-0.24448c-0.27781 0-0.46302-0.29633-0.46302-0.98901 0-0.69268 0.18521-0.9742 0.46302-0.9742 0.27411 0 0.45932 0.28152 0.45932 0.9742 0 0.69268-0.18521 0.98901-0.45932 0.98901z" fill="#6f8ce9" stroke="none"/>
  </g>
  <g aria-label="0">
   <path d="m37.891 14.329c0.47043 0 0.75565-0.4408 0.75565-1.2335 0-0.79269-0.28522-1.2187-0.75565-1.2187-0.47413 0-0.75936 0.42598-0.75936 1.2187 0 0.79269 0.28522 1.2335 0.75936 1.2335zm0-0.24448c-0.27781 0-0.46302-0.29633-0.46302-0.98901 0-0.69268 0.18521-0.9742 0.46302-0.9742 0.27411 0 0.45932 0.28152 0.45932 0.9742 0 0.69268-0.18521 0.98901-0.45932 0.98901z" fill="#6f8ce9" stroke="none"/>
  </g>
  <g aria-label="0">
   <path d="m40.537 14.329c0.47043 0 0.75565-0.4408 0.75565-1.2335 0-0.79269-0.28522-1.2187-0.75565-1.2187-0.47413 0-0.75936 0.42598-0.75936 1.2187 0 0.79269 0.28522 1.2335 0.75936 1.2335zm0-0.24448c-0.27781 0-0.46302-0.29633-0.46302-0.98901 0-0.69268 0.18521-0.9742 0.46302-0.9742 0.27411 0 0.45932 0.28152 0.45932 0.9742 0 0.69268-0.18521 0.98901-0.45932 0.98901z" fill="#6f8ce9" stroke="none"/>
  </g>
  <g aria-label="0">
   <path d="m43.183 14.329c0.47043 0 0.75565-0.4408 0.75565-1.2335 0-0.79269-0.28522-1.2187-0.75565-1.2187-0.47413 0-0.75936 0.42598-0.75936 1.2187 0 0.79269 0.28522 1.2335 0.75936 1.2335zm0-0.24448c-0.27781 0-0.46302-0.29633-0.46302-0.98901 0-0.69268 0.18521-0.9742 0.46302-0.9742 0.27411 0 0.45932 0.28152 0.45932 0.9742 0 0.69268-0.18521 0.98901-0.45932 0.98901z" fill="#6f8ce9" stroke="none"/>
  </g>
  <g aria-label="0">
   <path d="m45.829 14.329c0.47043 0 0.75565-0.4408 0.75565-1.2335 0-0.79269-0.28522-1.2187-0.75565-1.2187-0.47413 0-0.75936 0.42598-0.75936 1.2187 0 0.79269 0.28522 1.2335 0.75936 1.2335zm0-0.24448c-0.27781 0-0.46302-0.29633-0.46302-0.98901 0-0.69268 0.18521-0.9742 0.46302-0.9742 0.27411 0 0.45932 0.28152 0.45932 0.9742 0 0.69268-0.18521 0.98901-0.45932 0.98901z" fill="#6f8ce9" stroke="none"/>
  </g>
  <g aria-label="0">
   <path d="m48.475 14.329c0.47043 0 0.75565-0.4408 0.75565-1.2335 0-0.79269-0.28522-1.2187-0.75565-1.2187-0.47413 0-0.75936 0.42598-0.75936 1.2187 0 0.79269 0.28522 1.2335 0.75936 1.2335zm0-0.24448c-0.27781 0-0.46302-0.29633-0.46302-0.98901 0-0.69268 0.18521-0.9742 0.46302-0.9742 0.27411 0 0.45932 0.28152 0.45932 0.9742 0 0.69268-0.18521 0.98901-0.45932 0.98901z" fill="#6f8ce9" stroke="none"/>
  </g>
  <g aria-label="0">
   <path d="m51.121 14.329c0.47043 0 0.75565-0.4408 0.75565-1.2335 0-0.79269-0.28522-1.2187-0.75565-1.2187-0.47413 0-0.75936 0.42598-0.75936 1.2187 0 0.79269 0.28522 1.2335 0.75936 1.2335zm0-0.24448c-0.27781 0-0.46302-0.29633-0.46302-0.98901 0-0.69268 0.18521-0.9742 0.46302-0.9742 0.27411 0 0.45932 0.28152 0.45932 0.9742 0 0.69268-0.18521 0.98901-0.45932 0.98901z" fill="#6f8ce9" stroke="none"/>
  </g>
  <g aria-label="0">
   <path d="m53.766 14.329c0.47043 0 0.75565-0.4408 0.75565-1.2335 0-0.79269-0.28522-1.2187-0.75565-1.2187-0.47413 0-0.75936 0.42598-0.75936 1.2187 0 0.79269 0.28522 1.2335 0.75936 1.2335zm0-0.24448c-0.27781 0-0.46302-0.29633-0.46302-0.98901 0-0.69268 0.18521-0.9742 0.46302-0.9742 0.27411 0 0.45932 0.28152 0.45932 0.9742 0 0.69268-0.18521 0.98901-0.45932 0.98901z" fill="#6f8ce9" stroke="none"/>
  </g>
  <g aria-label="0">
   <path d="m56.412 14.329c0.47043 0 0.75565-0.4408 0.75565-1.2335 0-0.79269-0.28522-1.2187-0.75565-1.2187-0.47413 0-0.75936 0.42598-0.75936 1.2187 0 0.79269 0.28522 1.2335 0.75936 1.2335zm0-0.24448c-0.27781 0-0.46302-0.29633-0.46302-0.98901 0-0.69268 0.18521-0.9742 0.46302-0.9742 0.27411 0 0.45932 0.28152 0.45932 0.9742 0 0.69268-0.18521 0.98901-0.45932 0.98901z" fill="#6f8ce9" stroke="none"/>
  </g>
  <g aria-label="0">
   <path d="m59.058 14.329c0.47043 0 0.75565-0.4408 0.75565-1.2335 0-0.79269-0.28522-1.2187-0.75565-1.2187-0.47413 0-0.75936 0.42598-0.75936 1.2187 0 0.79269 0.28522 1.2335 0.75936 1.2335zm0-0.24448c-0.27781 0-0.46302-0.29633-0.46302-0.98901 0-0.69268 0.18521-0.9742 0.46302-0.9742 0.27411 0 0.45932 0.28152 0.45932 0.9742 0 0.69268-0.18521 0.98901-0.45932 0.98901z" fill="#6f8ce9" stroke="none"/>
  </g>
  <g aria-label="0">
   <path d="m61.704 14.329c0.47043 0 0.75565-0.4408 0.75565-1.2335 0-0.79269-0.28522-1.2187-0.75565-1.2187-0.47413 0-0.75936 0.42598-0.75936 1.2187 0 0.79269 0.28522 1.2335 0.75936 1.2335zm0-0.24448c-0.27781 0-0.46302-0.29633-0.46302-0.98901 0-0.69268 0.18521-0.9742 0.46302-0.9742 0.27411 0 0.45932 0.28152 0.45932 0.9742 0 0.69268-0.18521 0.98901-0.45932 0.98901z" fill="#6f8ce9" stroke="none"/>
  </g>
  <g aria-label="0">
   <path d="m64.35 14.329c0.47043 0 0.75565-0.4408 0.75565-1.2335 0-0.79269-0.28522-1.2187-0.75565-1.2187-0.47413 0-0.75936 0.42598-0.75936 1.2187 0 0.79269 0.28522 1.2335 0.75936 1.2335zm0-0.24448c-0.27781 0-0.46302-0.29633-0.46302-0.98901 0-0.69268 0.18521-0.9742 0.46302-0.9742 0.27411 0 0.45932 0.28152 0.45932 0.9742 0 0.69268-0.18521 0.98901-0.45932 0.98901z" fill="#6f8ce9" stroke="none"/>
  </g>
  <g aria-label="0">
   <path d="m66.996 14.329c0.47043 0 0.75565-0.4408 0.75565-1.2335 0-0.79269-0.28522-1.2187-0.75565-1.2187-0.47413 0-0.75936 0.42598-0.75936 1.2187 0 0.79269 0.28522 1.2335 0.75936 1.2335zm0-0.24448c-0.27781 0-0.46302-0.29633-0.46302-0.98901 0-0.69268 0.18521-0.9742 0.46302-0.9742 0.27411 0 0.45932 0.28152 0.45932 0.9742 0 0.69268-0.18521 0.98901-0.45932 0.98901z" fill="#6f8ce9" stroke="none"/>
  </g>
  <g aria-label="0">
   <path d="m69.641 14.329c0.47043 0 0.75565-0.4408 0.75565-1.2335 0-0.79269-0.28522-1.2187-0.75565-1.2187-0.47413 0-0.75936 0.42598-0.75936 1.2187 0 0.79269 0.28522 1.2335 0.75936 1.2335zm0-0.24448c-0.27781 0-0.46302-0.29633-0.46302-0.98901 0-0.69268 0.18521-0.9742 0.46302-0.9742 0.27411 0 0.45932 0.28152 0.45932 0.9742 0 0.69268-0.18521 0.98901-0.45932 0.98901z" fill="#6f8ce9" stroke="none"/>
  </g>
  <g aria-label="0">
   <path d="m72.287 14.329c0.47043 0 0.75565-0.4408 0.75565-1.2335 0-0.79269-0.28522-1.2187-0.75565-1.2187-0.47413 0-0.75936 0.42598-0.75936 1.2187 0 0.79269 0.28522 1.2335 0.75936 1.2335zm0-0.24448c-0.27781 0-0.46302-0.29633-0.46302-0.98901 0-0.69268 0.18521-0.9742 0.46302-0.9742 0.27411 0 0.45932 0.28152 0.45932 0.9742 0 0.69268-0.18521 0.98901-0.45932 0.98901z" fill="#6f8ce9" stroke="none"/>
  </g>
  <g aria-label="0">
   <path d="m74.933 14.329c0.47043 0 0.75565-0.4408 0.75565-1.2335 0-0.79269-0.28522-1.2187-0.75565-1.2187-0.47413 0-0.75936 0.42598-0.75936 1.2187 0 0.79269 0.28522 1.2335 0.75936 1.2335zm0-0.24448c-0.27781 0-0.46302-0.29633-0.46302-0.98901 0-0.69268 0.18521-0.9742 0.46302-0.9742 0.27411 0 0.45932 0.28152 0.45932 0.9742 0 0.69268-0.18521 0.98901-0.45932 0.98901z" fill="#6f8ce9" stroke="none"/>
  </g>
  <g aria-label="0">
   <path d="m77.579 14.329c0.47043 0 0.75565-0.4408 0.75565-1.2335 0-0.79269-0.28522-1.2187-0.75565-1.2187-0.47413 0-0.75936 0.42598-0.75936 1.2187 0 0.79269 0.28522 1.2335 0.75936 1.2335zm0-0.24448c-0.27781 0-0.46302-0.29633-0.46302-0.98901 0-0.69268 0.18521-0.9742 0.46302-0.9742 0.27411 0 0.45932 0.28152 0.45932 0.9742 0 0.69268-0.18521 0.98901-0.45932 0.98901z" fill="#6f8ce9" stroke="none"/>
  </g>
  <g aria-label="0">
   <path d="m80.225 14.329c0.47043 0 0.75565-0.4408 0.75565-1.2335 0-0.79269-0.28522-1.2187-0.75565-1.2187-0.47413 0-0.75936 0.42598-0.75936 1.2187 0 0.79269 0.28522 1.2335 0.75936 1.2335zm0-0.24448c-0.27781 0-0.46302-0.29633-0.46302-0.98901 0-0.69268 0.18521-0.9742 0.46302-0.9742 0.27411 0 0.45932 0.28152 0.45932 0.9742 0 0.69268-0.18521 0.98901-0.45932 0.98901z" fill="#6f8ce9" stroke="none"/>
  </g>
  <g aria-label="0">
   <path d="m82.871 14.329c0.47043 0 0.75565-0.4408 0.75565-1.2335 0-0.79269-0.28522-1.2187-0.75565-1.2187-0.47413 0-0.75936 0.42598-0.75936 1.2187 0 0.79269 0.28522 1.2335 0.75936 1.2335zm0-0.24448c-0.27781 0-0.46302-0.29633-0.46302-0.98901 0-0.69268 0.18521-0.9742 0.46302-0.9742 0.27411 0 0.45932 0.28152 0.45932 0.9742 0 0.69268-0.18521 0.98901-0.45932 0.98901z" fill="#6f8ce9" stroke="none"/>
  </g>
  <g aria-label="0">
   <path d="m85.516 14.329c0.47043 0 0.75565-0.4408 0.75565-1.2335 0-0.79269-0.28522-1.2187-0.75565-1.2187-0.47413 0-0.75936 0.42598-0.75936 1.2187 0 0.79269 0.28522 1.2335 0.75936 1.2335zm0-0.24448c-0.27781 0-0.46302-0.29633-0.46302-0.98901 0-0.69268 0.18521-0.9742 0.46302-0.9742 0.27411 0 0.45932 0.28152 0.45932 0.9742 0 0.69268-0.18521 0.98901-0.45932 0.98901z" fill="#6f8ce9" stroke="none"/>
  </g>
  <g aria-label="0">
   <path d="m88.162 14.329c0.47043 0 0.75565-0.4408 0.75565-1.2335 0-0.79269-0.28522-1.2187-0.75565-1.2187-0.47413 0-0.75936 0.42598-0.75936 1.2187 0 0.79269 0.28522 1.2335 0.75936 1.2335zm0-0.24448c-0.27781 0-0.46302-0.29633-0.46302-0.98901 0-0.69268 0.18521-0.9742 0.46302-0.9742 0.27411 0 0.45932 0.28152 0.45932 0.9742 0 0.69268-0.18521 0.98901-0.45932 0.98901z" fill="#6f8ce9" stroke="none"/>
  </g>
 </g>
</svg>
