<?xml version="1.0" encoding="UTF-8"?>
<svg width="94.219mm" height="40.97mm" version="1.1" viewBox="0 0 94.219 40.97" xmlns="http://www.w3.org/2000/svg" xmlns:cc="http://creativecommons.org/ns#" xmlns:dc="http://purl.org/dc/elements/1.1/" xmlns:rdf="http://www.w3.org/1999/02/22-rdf-syntax-ns#">
 <metadata>
  <rdf:RDF>
   <cc:Work rdf:about="">
    <dc:format>image/svg+xml</dc:format>
    <dc:type rdf:resource="http://purl.org/dc/dcmitype/StillImage"/>
    <dc:title/>
   </cc:Work>
  </rdf:RDF>
 </metadata>
 <g fill="#d2d6dc">
  <g opacity=".91" aria-label="0">
   <path d="m7.9297 0.011112c-0.36671 0-0.74454 0.45191-0.74454 1.189 0 0.74824 0.38153 1.1779 0.74824 1.1779 0.33338 0 0.72972-0.36301 0.72972-1.1594 0-0.78528-0.37783-1.2076-0.73343-1.2076zm0.3593 0.5297-0.81121 1.052c-0.033338-0.12965-0.051858-0.27411-0.051858-0.43709 0-0.59267 0.2704-0.91863 0.50006-0.91863 0.12594 0 0.263 0.10001 0.36301 0.30374zm0.085196 0.24448c0.033338 0.12965 0.048154 0.28522 0.048154 0.46673 0 0.64453-0.27781 0.889-0.48154 0.889-0.13705 0-0.27781-0.11113-0.37783-0.31485z" fill="#d2d6dc" stroke-width=".28222px"/>
  </g>
  <g opacity=".91" aria-label="8">
   <path d="m29.122-1.0729e-7c-0.3556 0-0.626 0.25559-0.626 0.56674 0 0.22595 0.14446 0.43339 0.3519 0.54081-0.27411 0.12965-0.45932 0.38153-0.45932 0.64823 0 0.34449 0.30374 0.6186 0.70009 0.6186 0.40375 0 0.7112-0.28152 0.7112-0.63341 0-0.27411-0.18521-0.51858-0.4445-0.64082 0.22225-0.11483 0.36671-0.33338 0.36671-0.55563 0-0.30374-0.263-0.54451-0.60008-0.54451zm-0.077787 1.215c0.29633 0.092604 0.49265 0.29633 0.49265 0.52229 0 0.22225-0.18891 0.40375-0.43709 0.40375-0.25188 0-0.4445-0.18891-0.4445-0.41857 0-0.21855 0.17039-0.41857 0.38894-0.50747zm0.05556-1.0001c0.20743 0 0.37042 0.15558 0.37042 0.34819 0 0.1778-0.13705 0.34819-0.31856 0.4445 0 0-0.40746-0.15558-0.40746-0.46302 0-0.1815 0.15558-0.32967 0.3556-0.32967z" fill="#d2d6dc" stroke-width=".28222px"/>
  </g>
  <g opacity=".91" stroke-width=".28222px" aria-label="16">
   <path d="m49.507 0.025929h-0.17039l-0.59267 0.30745 0.05927 0.14446 0.45932-0.12965v1.7854h-0.42969v0.20373h1.089v-0.20373h-0.41487z"/>
   <path d="m51.322-1.0729e-7c-0.27781 0-0.57415 0.17039-0.71861 0.57415-0.07779 0.21855-0.09631 0.48895-0.09631 0.7112 0 0.2704 0.02593 0.55933 0.1741 0.78158 0.13335 0.20373 0.34078 0.30745 0.54451 0.30745 0.3519 0 0.65934-0.29633 0.65934-0.77417 0-0.47784-0.30745-0.75565-0.63341-0.75565-0.20002 0-0.38894 0.10742-0.48895 0.27781 0.01482-0.78899 0.39264-0.8927 0.55933-0.8927 0.15187 0 0.25559 0.081492 0.2704 0.096308 0.02222 0.025929 0.02222 0.059267 0.05556 0.085196l0.1778-0.20003c-0.13335-0.13335-0.31855-0.21114-0.50376-0.21114zm-0.096308 1.0742c0.18521 0 0.40746 0.14446 0.40746 0.54081 0 0.3593-0.20002 0.5297-0.39635 0.5297-0.28152 0-0.49265-0.32967-0.46302-0.76306 0.10372-0.18891 0.28152-0.30745 0.45191-0.30745z"/>
  </g>
  <g opacity=".91" stroke-width=".28222px" aria-label="24">
   <path d="m69.859 0.38523 0.18891 0.15187c0.02222-0.033338 0.01111-0.055562 0.03334-0.085196 0.05556-0.085196 0.19262-0.21114 0.39264-0.21114 0.24818 0 0.4445 0.18891 0.4445 0.43709 0 0.28152-0.23707 0.48525-0.40375 0.63712-0.263 0.23707-0.47784 0.47413-0.67046 0.85566v0.16298h1.3557v-0.25559c-0.02593-0.011113-0.04445 0.00741-0.05186 0.014817-0.01482 0.014817-0.02223 0.014817-0.03704 0.014817h-0.97049c0.19262-0.33338 0.46302-0.56303 0.62971-0.71861 0.16669-0.15928 0.40376-0.39635 0.40376-0.72972 0-0.3593-0.29263-0.64823-0.66675-0.64823-0.263 0-0.51118 0.14076-0.64823 0.37412z"/>
   <path d="m72.585 0.025929-0.9816 1.478v0.19262h0.92975v0.63712h0.2667v-0.63341h0.30004v-0.22966h-0.30004v-1.4446zm-0.04815 0.41116v1.0335h-0.67786z"/>
  </g>
  <g opacity=".91" stroke-width=".28222px" aria-label="32">
   <path d="m92.259 0.60378c0-0.31485-0.2667-0.58526-0.63341-0.58526-0.20743 0-0.41116 0.0889-0.55563 0.24818l0.14446 0.15928c0.10742-0.11483 0.25559-0.1778 0.40005-0.1778 0.23707 0 0.40005 0.16669 0.40005 0.36301 0 0.13705-0.0852 0.29263-0.24818 0.36301-0.04075 0.014817-0.14446 0.055562-0.36301 0.055562v0.20743c0.03704-0.0037 0.07779-0.00741 0.11853-0.00741 0.31115 0 0.54081 0.16298 0.54081 0.4408 0 0.25188-0.19262 0.47043-0.46302 0.47043-0.21484 0-0.34449-0.14076-0.36301-0.15928-0.02963-0.033338-0.01482-0.070379-0.04815-0.10372l-0.19262 0.23336c0.15187 0.1741 0.37412 0.263 0.60378 0.263 0.4445 0 0.7112-0.31485 0.7112-0.67416 0-0.27411-0.15558-0.50747-0.39635-0.59637 0.20743-0.077788 0.34449-0.27411 0.34449-0.50006z"/>
   <path d="m92.878 0.38523 0.18891 0.15187c0.02223-0.033338 0.01111-0.055562 0.03334-0.085196 0.05556-0.085196 0.19262-0.21114 0.39264-0.21114 0.24818 0 0.4445 0.18891 0.4445 0.43709 0 0.28152-0.23707 0.48525-0.40376 0.63712-0.263 0.23707-0.47784 0.47413-0.67046 0.85566v0.16298h1.3557v-0.25559c-0.02593-0.011113-0.04445 0.00741-0.05186 0.014817-0.01482 0.014817-0.02222 0.014817-0.03704 0.014817h-0.97049c0.19262-0.33338 0.46302-0.56303 0.62971-0.71861 0.16669-0.15928 0.40376-0.39635 0.40376-0.72972 0-0.3593-0.29263-0.64823-0.66675-0.64823-0.263 0-0.51118 0.14076-0.64823 0.37412z"/>
  </g>
 </g>
 <rect x=".066145" y="3.8623" width="92.604" height="37.042" fill="#1d232d"/>
 <path d="m0.066146 3.8623h92.604" fill="#e9e56f" stroke="#535e70" stroke-linecap="round" stroke-width=".13229"/>
 <g fill="#6f8ce9">
  <g stroke="#535e70" stroke-linecap="round" stroke-width=".13229">
   <path d="m0.066146 9.154h92.604"/>
   <path d="m0.066146 14.446h92.604"/>
   <path d="m0.066146 19.737h92.604"/>
   <path d="m0.066146 25.029h92.604"/>
   <path d="m0.066146 30.321h92.604"/>
   <path d="m0.066146 35.612h92.604"/>
   <path d="m0.066146 40.904h92.604"/>
   <path d="m8.0036 3.8623v37.042"/>
  </g>
  <g>
   <g opacity=".91" stroke-width=".28222px" aria-label="Bit">
    <path d="m1.357 5.3176v2.3077h0.65193c0.15558 0 0.31485 0 0.47413-0.066675 0.24818-0.10742 0.38523-0.33338 0.38523-0.57044 0-0.2704-0.1741-0.51118-0.42968-0.59637 0.20373-0.085196 0.34078-0.28893 0.34078-0.50747 0-0.20743-0.11853-0.40746-0.33708-0.50006-0.14446-0.062971-0.28893-0.066675-0.42968-0.066675zm0.25559 0.22225h0.36301c0.10001 0 0.20373 0 0.30745 0.040746 0.15187 0.062971 0.23336 0.19262 0.23336 0.32597s-0.077788 0.25929-0.22225 0.32226c-0.10742 0.04445-0.21855 0.04445-0.32226 0.04445h-0.3593zm0 0.95197h0.37783c0.11483 0 0.22966 0.0037 0.34449 0.059267 0.17039 0.077787 0.263 0.24448 0.263 0.41116 0 0.16669-0.0889 0.31856-0.24818 0.39264-0.10001 0.04445-0.19632 0.04445-0.29633 0.04445h-0.4408z"/>
    <path d="m3.4239 5.9325v0.21855h0.40746v1.2631h-0.42968v0.21114h1.0964v-0.21114h-0.39635v-1.4817zm0.54822-0.73343c-0.10742 0-0.19262 0.085196-0.19262 0.18891s0.085196 0.18891 0.19262 0.18891 0.19262-0.085196 0.19262-0.18891c0-0.10372-0.085196-0.18891-0.19262-0.18891z"/>
    <path d="m5.5797 5.4806-0.033338 0.45561h-0.40375l-0.0037 0.21855h0.39635c-0.022225 0.28893-0.033338 0.57785-0.033338 0.86307 0 0.15187 0 0.32226 0.10001 0.46302 0.081492 0.11113 0.21114 0.1778 0.38523 0.1778 0.20003 0 0.39635-0.085196 0.54081-0.18891l-0.081496-0.21114c-0.14446 0.10742-0.27781 0.15558-0.38153 0.15558-0.12594 0-0.25559-0.070379-0.28522-0.27411 0-0.014817-0.011113-0.077788-0.011113-0.32597 0-0.21855 0.011113-0.4408 0.033338-0.65934h0.55563v-0.22225h-0.55192s0.025929-0.30374 0.04445-0.40005c0.0037-0.037042 0.033338-0.059267 0.018521-0.10001z"/>
   </g>
   <g opacity=".91" aria-label="0">
    <path d="m3.961 10.594c-0.36671 0-0.74454 0.45191-0.74454 1.189 0 0.74824 0.38153 1.1779 0.74824 1.1779 0.33338 0 0.72972-0.36301 0.72972-1.1594 0-0.78528-0.37783-1.2076-0.73343-1.2076zm0.3593 0.5297-0.81121 1.052c-0.033338-0.12965-0.051858-0.27411-0.051858-0.43709 0-0.59267 0.2704-0.91864 0.50006-0.91864 0.12594 0 0.263 0.10001 0.36301 0.30374zm0.085196 0.24448c0.033338 0.12965 0.048154 0.28522 0.048154 0.46672 0 0.64453-0.27781 0.889-0.48154 0.889-0.13705 0-0.27781-0.11112-0.37783-0.31486z" fill="#6f8ce9" stroke-width=".28222px"/>
   </g>
   <g opacity=".91" stroke-width=".28222px" aria-label="32">
    <path d="m3.6239 16.479c0-0.31485-0.2667-0.58526-0.63341-0.58526-0.20743 0-0.41116 0.0889-0.55563 0.24818l0.14446 0.15928c0.10742-0.11483 0.25559-0.1778 0.40005-0.1778 0.23707 0 0.40005 0.16669 0.40005 0.36301 0 0.13705-0.085196 0.29263-0.24818 0.36301-0.040746 0.01482-0.14446 0.05556-0.36301 0.05556v0.20743c0.037042-0.0037 0.077788-0.0074 0.11853-0.0074 0.31115 0 0.54081 0.16298 0.54081 0.4408 0 0.25188-0.19262 0.47043-0.46302 0.47043-0.21484 0-0.34449-0.14076-0.36301-0.15928-0.029633-0.03334-0.014817-0.07038-0.048154-0.10372l-0.19262 0.23336c0.15187 0.1741 0.37412 0.263 0.60378 0.263 0.4445 0 0.7112-0.31486 0.7112-0.67416 0-0.27411-0.15558-0.50747-0.39635-0.59637 0.20743-0.07779 0.34449-0.27411 0.34449-0.50006z"/>
    <path d="m4.2425 16.26 0.18891 0.15187c0.022225-0.03334 0.011113-0.05556 0.033338-0.0852 0.055563-0.0852 0.19262-0.21114 0.39264-0.21114 0.24818 0 0.4445 0.18891 0.4445 0.43709 0 0.28152-0.23707 0.48525-0.40375 0.63712-0.263 0.23707-0.47784 0.47413-0.67045 0.85566v0.16298h1.3557v-0.25558c-0.025929-0.01111-0.04445 0.0074-0.051858 0.01482-0.014817 0.01482-0.022225 0.01482-0.037042 0.01482h-0.97049c0.19262-0.33338 0.46302-0.56303 0.62971-0.71861 0.16669-0.15928 0.40375-0.39635 0.40375-0.72972 0-0.3593-0.29263-0.64823-0.66675-0.64823-0.263 0-0.51118 0.14076-0.64823 0.37412z"/>
   </g>
   <g opacity=".91" stroke-width=".28222px" aria-label="64">
    <path d="m3.1683 21.167c-0.27781 0-0.57415 0.17039-0.71861 0.57415-0.077788 0.21855-0.096308 0.48895-0.096308 0.7112 0 0.2704 0.025929 0.55933 0.1741 0.78158 0.13335 0.20373 0.34078 0.30745 0.54451 0.30745 0.3519 0 0.65934-0.29633 0.65934-0.77417s-0.30745-0.75565-0.63341-0.75565c-0.20003 0-0.38894 0.10742-0.48895 0.27781 0.014817-0.78899 0.39264-0.8927 0.55933-0.8927 0.15187 0 0.25559 0.08149 0.2704 0.09631 0.022225 0.02593 0.022225 0.05927 0.055563 0.0852l0.1778-0.20003c-0.13335-0.13335-0.31856-0.21114-0.50377-0.21114zm-0.096308 1.0742c0.18521 0 0.40746 0.14446 0.40746 0.54081 0 0.3593-0.20003 0.5297-0.39635 0.5297-0.28152 0-0.49265-0.32967-0.46302-0.76306 0.10372-0.18891 0.28152-0.30745 0.45191-0.30745z"/>
    <path d="m5.1167 21.193-0.9816 1.478v0.19262h0.92975v0.63712h0.2667v-0.63341h0.30004v-0.22966h-0.30004v-1.4446zm-0.048154 0.41116v1.0335h-0.67786z"/>
   </g>
   <g opacity=".91" stroke-width=".28222px" aria-label="96">
    <path d="m2.909 28.833c0.28152 0 0.57415-0.17039 0.7149-0.5371 0.040746-0.10742 0.10001-0.30745 0.10001-0.68527 0-0.28892-0.025929-0.48895-0.081492-0.64452-0.11853-0.3556-0.38523-0.50377-0.626-0.50377-0.3593 0-0.65934 0.31856-0.65934 0.76676 0 0.4408 0.29633 0.72602 0.63341 0.72602 0.18891 0 0.36671-0.0926 0.47413-0.24818-0.011113 0.3593-0.070379 0.51488-0.092604 0.57044-0.10001 0.23336-0.29263 0.31856-0.45561 0.31856-0.16669 0-0.27781-0.08149-0.27781-0.0852-0.033338-0.02222-0.022225-0.06297-0.062971-0.0889l-0.1778 0.20002c0.13705 0.13335 0.31856 0.21114 0.51118 0.21114zm0.10372-1.1038c-0.20373 0-0.40375-0.16669-0.40375-0.51118 0-0.33708 0.19262-0.52599 0.40375-0.52599 0.25929 0 0.48154 0.28892 0.4408 0.75565-0.10372 0.1741-0.27411 0.28152-0.4408 0.28152z"/>
    <path d="m5.0204 26.458c-0.27781 0-0.57415 0.17039-0.71861 0.57415-0.077788 0.21855-0.096308 0.48895-0.096308 0.7112 0 0.2704 0.025929 0.55933 0.1741 0.78158 0.13335 0.20373 0.34078 0.30745 0.54451 0.30745 0.3519 0 0.65934-0.29633 0.65934-0.77417s-0.30745-0.75565-0.63341-0.75565c-0.20003 0-0.38894 0.10742-0.48895 0.27781 0.014817-0.78899 0.39264-0.8927 0.55933-0.8927 0.15187 0 0.25559 0.08149 0.2704 0.09631 0.022225 0.02593 0.022225 0.05927 0.055563 0.0852l0.1778-0.20003c-0.13335-0.13335-0.31856-0.21114-0.50377-0.21114zm-0.096308 1.0742c0.18521 0 0.40746 0.14446 0.40746 0.54081 0 0.3593-0.20003 0.5297-0.39635 0.5297-0.28152 0-0.49265-0.32967-0.46302-0.76306 0.10372-0.18891 0.28152-0.30745 0.45191-0.30745z"/>
   </g>
   <g opacity=".91" stroke-width=".28222px" aria-label="128">
    <path d="m2.2793 31.776h-0.17039l-0.59267 0.30745 0.059267 0.14446 0.45932-0.12965v1.7854h-0.42968v0.20373h1.089v-0.20373h-0.41487z"/>
    <path d="m3.3165 32.135 0.18891 0.15187c0.022225-0.03334 0.011113-0.05556 0.033338-0.0852 0.055563-0.08519 0.19262-0.21114 0.39264-0.21114 0.24818 0 0.4445 0.18891 0.4445 0.43709 0 0.28152-0.23707 0.48525-0.40375 0.63712-0.263 0.23707-0.47784 0.47413-0.67045 0.85566v0.16298h1.3557v-0.25559c-0.025929-0.01111-0.04445 0.0074-0.051858 0.01482-0.014817 0.01482-0.022225 0.01482-0.037042 0.01482h-0.97049c0.19262-0.33338 0.46302-0.56303 0.62971-0.71861 0.16669-0.15928 0.40375-0.39635 0.40375-0.72972 0-0.3593-0.29263-0.64823-0.66675-0.64823-0.263 0-0.51118 0.14076-0.64823 0.37412z"/>
    <path d="m5.839 31.75c-0.3556 0-0.626 0.25559-0.626 0.56674 0 0.22595 0.14446 0.43339 0.3519 0.54081-0.27411 0.12964-0.45932 0.38153-0.45932 0.64823 0 0.34449 0.30374 0.6186 0.70009 0.6186 0.40375 0 0.7112-0.28152 0.7112-0.63341 0-0.27411-0.18521-0.51858-0.4445-0.64082 0.22225-0.11483 0.36671-0.33338 0.36671-0.55562 0-0.30374-0.263-0.54451-0.60008-0.54451zm-0.077788 1.215c0.29633 0.09261 0.49265 0.29633 0.49265 0.52229 0 0.22225-0.18891 0.40376-0.43709 0.40376-0.25188 0-0.4445-0.18891-0.4445-0.41857 0-0.21855 0.17039-0.41857 0.38894-0.50747zm0.055563-1.0001c0.20743 0 0.37042 0.15558 0.37042 0.34819 0 0.1778-0.13705 0.34819-0.31856 0.4445 0 0-0.40746-0.15558-0.40746-0.46302 0-0.1815 0.15558-0.32967 0.3556-0.32967z"/>
   </g>
   <g opacity=".91" stroke-width=".28222px" aria-label="160">
    <path d="m2.2793 37.068h-0.17039l-0.59267 0.30745 0.059267 0.14446 0.45932-0.12965v1.7854h-0.42968v0.20373h1.089v-0.20373h-0.41487z"/>
    <path d="m4.0943 37.042c-0.27781 0-0.57415 0.17039-0.71861 0.57415-0.077788 0.21855-0.096308 0.48895-0.096308 0.7112 0 0.2704 0.025929 0.55933 0.1741 0.78158 0.13335 0.20373 0.34078 0.30745 0.54451 0.30745 0.3519 0 0.65934-0.29633 0.65934-0.77417s-0.30745-0.75565-0.63341-0.75565c-0.20003 0-0.38894 0.10742-0.48895 0.27781 0.014817-0.78899 0.39264-0.8927 0.55933-0.8927 0.15187 0 0.25559 0.08149 0.2704 0.09631 0.022225 0.02593 0.022225 0.05927 0.055563 0.0852l0.1778-0.20003c-0.13335-0.13335-0.31856-0.21114-0.50377-0.21114zm-0.096308 1.0742c0.18521 0 0.40746 0.14446 0.40746 0.54081 0 0.3593-0.20003 0.5297-0.39635 0.5297-0.28152 0-0.49265-0.32967-0.46302-0.76306 0.10372-0.18891 0.28152-0.30745 0.45191-0.30745z"/>
    <path d="m5.8131 37.053c-0.36671 0-0.74454 0.45191-0.74454 1.189 0 0.74824 0.38153 1.1779 0.74824 1.1779 0.33338 0 0.72972-0.36301 0.72972-1.1594 0-0.78528-0.37783-1.2076-0.73343-1.2076zm0.3593 0.5297-0.81121 1.052c-0.033338-0.12965-0.051858-0.27411-0.051858-0.43709 0-0.59267 0.2704-0.91863 0.50006-0.91863 0.12594 0 0.263 0.10001 0.36301 0.30374zm0.085196 0.24448c0.033338 0.12965 0.048154 0.28522 0.048154 0.46673 0 0.64452-0.27781 0.889-0.48154 0.889-0.13705 0-0.27781-0.11112-0.37783-0.31486z"/>
   </g>
  </g>
  <g stroke="#535e70" stroke-linecap="round" stroke-width=".13229">
   <path d="m0.066146 3.8623v37.042"/>
   <path d="m92.67 3.8623v37.042"/>
   <path d="m50.337 3.8623v10.583"/>
   <path d="m50.337 25.029v5.2917"/>
  </g>
  <g opacity=".91" stroke-width=".28222px" aria-label="Bits 0-15">
   <path d="m20.936 5.3176v2.3077h0.65193c0.15558 0 0.31486 0 0.47413-0.066675 0.24818-0.10742 0.38523-0.33338 0.38523-0.57044 0-0.2704-0.1741-0.51118-0.42968-0.59637 0.20373-0.085196 0.34078-0.28893 0.34078-0.50747 0-0.20743-0.11853-0.40746-0.33708-0.50006-0.14446-0.062971-0.28892-0.066675-0.42968-0.066675zm0.25559 0.22225h0.36301c0.10001 0 0.20373 0 0.30745 0.040746 0.15187 0.062971 0.23336 0.19262 0.23336 0.32597s-0.07779 0.25929-0.22225 0.32226c-0.10742 0.04445-0.21855 0.04445-0.32226 0.04445h-0.3593zm0 0.95197h0.37783c0.11483 0 0.22966 0.0037 0.34449 0.059267 0.17039 0.077787 0.263 0.24448 0.263 0.41116 0 0.16669-0.0889 0.31856-0.24818 0.39264-0.10001 0.04445-0.19632 0.04445-0.29633 0.04445h-0.4408z"/>
   <path d="m23.003 5.9325v0.21855h0.40746v1.2631h-0.42968v0.21114h1.0964v-0.21114h-0.39635v-1.4817zm0.54822-0.73343c-0.10742 0-0.19262 0.085196-0.19262 0.18891s0.0852 0.18891 0.19262 0.18891c0.10742 0 0.19262-0.085196 0.19262-0.18891 0-0.10372-0.0852-0.18891-0.19262-0.18891z"/>
   <path d="m25.159 5.4806-0.03334 0.45561h-0.40376l-0.0037 0.21855h0.39635c-0.02222 0.28893-0.03334 0.57785-0.03334 0.86307 0 0.15187 0 0.32226 0.10001 0.46302 0.08149 0.11113 0.21114 0.1778 0.38523 0.1778 0.20002 0 0.39635-0.085196 0.54081-0.18891l-0.08149-0.21114c-0.14446 0.10742-0.27781 0.15558-0.38153 0.15558-0.12594 0-0.25559-0.070379-0.28522-0.27411 0-0.014817-0.01111-0.077788-0.01111-0.32597 0-0.21855 0.01111-0.4408 0.03334-0.65934h0.55562v-0.22225h-0.55192s0.02593-0.30374 0.04445-0.40005c0.0037-0.037042 0.03334-0.059267 0.01852-0.10001z"/>
   <path d="m27.915 6.1584c-0.15558-0.17039-0.38153-0.263-0.63341-0.263-0.39264 0-0.64823 0.21855-0.64823 0.47043 0 0.29633 0.31856 0.40375 0.41116 0.43709 0.14446 0.051858 0.32967 0.096308 0.45561 0.15558 0.14076 0.066675 0.16669 0.15558 0.16669 0.21484 0 0.15928-0.19262 0.2667-0.43339 0.2667-0.28892 0-0.47413-0.1741-0.5297-0.23336-0.01111-0.014817-0.01111-0.025929-0.01111-0.040746 0-0.0037 0.0037-0.025929-0.01482-0.033338l-0.15558 0.263c0.20002 0.18521 0.45932 0.2704 0.7149 0.2704 0.46302 0 0.70379-0.27411 0.70379-0.5297 0-0.11483-0.04815-0.2704-0.24818-0.38153-0.18891-0.10742-0.46302-0.14446-0.6223-0.22225-0.13705-0.066675-0.16669-0.14817-0.16669-0.20743 0-0.13335 0.16669-0.22966 0.3556-0.22966 0.24448 0 0.40746 0.14817 0.47043 0.23336 0.01111 0.011113 0.0074 0.022225 0.0074 0.033338 0 0.022225 0.01482 0.029633 0.02222 0.029633z"/>
   <path d="m30.948 5.3028c-0.36671 0-0.74454 0.45191-0.74454 1.189 0 0.74824 0.38153 1.1779 0.74824 1.1779 0.33338 0 0.72972-0.36301 0.72972-1.1594 0-0.78528-0.37782-1.2076-0.73342-1.2076zm0.3593 0.5297-0.81121 1.052c-0.03334-0.12965-0.05186-0.27411-0.05186-0.43709 0-0.59267 0.2704-0.91863 0.50006-0.91863 0.12594 0 0.263 0.10001 0.36301 0.30374zm0.0852 0.24448c0.03334 0.12965 0.04815 0.28522 0.04815 0.46673 0 0.64453-0.27781 0.889-0.48154 0.889-0.13705 0-0.27781-0.11113-0.37782-0.31485z"/>
   <path d="m32.13 6.3399v0.24448h1.3335v-0.24448z"/>
   <path d="m34.823 5.3176h-0.17039l-0.59267 0.30745 0.05927 0.14446 0.45932-0.12965v1.7854h-0.42968v0.20373h1.089v-0.20373h-0.41487z"/>
   <path d="m35.968 5.3176-0.08149 1.1742 0.16669 0.066675c0.11112-0.14076 0.27411-0.21855 0.43339-0.21855 0.24077 0 0.47043 0.18521 0.47043 0.55192 0 0.3556-0.21855 0.54822-0.46673 0.54822-0.24818 0-0.41116-0.18891-0.42228-0.21114-0.01482-0.029633 0.0037-0.066675-0.02963-0.0889l-0.22966 0.1741c0.15558 0.22595 0.41116 0.3556 0.68527 0.3556 0.40005 0 0.72972-0.2704 0.72972-0.77047 0-0.49636-0.31115-0.77047-0.70009-0.77047-0.12594 0-0.25559 0.029633-0.37412 0.0889l0.03334-0.66675h0.95567v-0.23336z"/>
  </g>
  <g opacity=".91" stroke-width=".28222px" aria-label="Bits 16-31">
   <path d="m62.343 5.3176v2.3077h0.65193c0.15558 0 0.31485 0 0.47413-0.066675 0.24818-0.10742 0.38523-0.33338 0.38523-0.57044 0-0.2704-0.1741-0.51118-0.42968-0.59637 0.20373-0.085196 0.34078-0.28893 0.34078-0.50747 0-0.20743-0.11853-0.40746-0.33708-0.50006-0.14446-0.062971-0.28893-0.066675-0.42968-0.066675zm0.25559 0.22225h0.36301c0.10001 0 0.20373 0 0.30745 0.040746 0.15187 0.062971 0.23336 0.19262 0.23336 0.32597s-0.07779 0.25929-0.22225 0.32226c-0.10742 0.04445-0.21855 0.04445-0.32226 0.04445h-0.3593zm0 0.95197h0.37783c0.11483 0 0.22966 0.0037 0.34449 0.059267 0.17039 0.077787 0.263 0.24448 0.263 0.41116 0 0.16669-0.0889 0.31856-0.24818 0.39264-0.10001 0.04445-0.19632 0.04445-0.29633 0.04445h-0.4408z"/>
   <path d="m64.41 5.9325v0.21855h0.40746v1.2631h-0.42968v0.21114h1.0964v-0.21114h-0.39635v-1.4817zm0.54822-0.73343c-0.10742 0-0.19262 0.085196-0.19262 0.18891s0.0852 0.18891 0.19262 0.18891c0.10742 0 0.19262-0.085196 0.19262-0.18891 0-0.10372-0.0852-0.18891-0.19262-0.18891z"/>
   <path d="m66.566 5.4806-0.03334 0.45561h-0.40375l-0.0037 0.21855h0.39635c-0.02223 0.28893-0.03334 0.57785-0.03334 0.86307 0 0.15187 0 0.32226 0.10001 0.46302 0.08149 0.11113 0.21114 0.1778 0.38523 0.1778 0.20002 0 0.39635-0.085196 0.54081-0.18891l-0.08149-0.21114c-0.14446 0.10742-0.27781 0.15558-0.38153 0.15558-0.12594 0-0.25559-0.070379-0.28522-0.27411 0-0.014817-0.01111-0.077788-0.01111-0.32597 0-0.21855 0.01111-0.4408 0.03334-0.65934h0.55562v-0.22225h-0.55192s0.02593-0.30374 0.04445-0.40005c0.0037-0.037042 0.03334-0.059267 0.01852-0.10001z"/>
   <path d="m69.322 6.1584c-0.15558-0.17039-0.38153-0.263-0.63341-0.263-0.39264 0-0.64823 0.21855-0.64823 0.47043 0 0.29633 0.31856 0.40375 0.41116 0.43709 0.14446 0.051858 0.32967 0.096308 0.45561 0.15558 0.14076 0.066675 0.16669 0.15558 0.16669 0.21484 0 0.15928-0.19262 0.2667-0.43339 0.2667-0.28893 0-0.47413-0.1741-0.5297-0.23336-0.01111-0.014817-0.01111-0.025929-0.01111-0.040746 0-0.0037 0.0037-0.025929-0.01482-0.033338l-0.15558 0.263c0.20002 0.18521 0.45932 0.2704 0.7149 0.2704 0.46302 0 0.70379-0.27411 0.70379-0.5297 0-0.11483-0.04815-0.2704-0.24818-0.38153-0.18891-0.10742-0.46302-0.14446-0.6223-0.22225-0.13705-0.066675-0.16669-0.14817-0.16669-0.20743 0-0.13335 0.16669-0.22966 0.3556-0.22966 0.24448 0 0.40746 0.14817 0.47043 0.23336 0.01111 0.011113 0.0074 0.022225 0.0074 0.033338 0 0.022225 0.01482 0.029633 0.02223 0.029633z"/>
   <path d="m72.526 5.3176h-0.17039l-0.59267 0.30745 0.05927 0.14446 0.45932-0.12965v1.7854h-0.42968v0.20373h1.089v-0.20373h-0.41487z"/>
   <path d="m74.341 5.2917c-0.27781 0-0.57415 0.17039-0.71861 0.57415-0.07779 0.21855-0.09631 0.48895-0.09631 0.7112 0 0.2704 0.02593 0.55933 0.1741 0.78158 0.13335 0.20373 0.34078 0.30745 0.54451 0.30745 0.3519 0 0.65934-0.29633 0.65934-0.77417s-0.30745-0.75565-0.63341-0.75565c-0.20002 0-0.38894 0.10742-0.48895 0.27781 0.01482-0.78899 0.39264-0.8927 0.55933-0.8927 0.15187 0 0.25559 0.081492 0.2704 0.096308 0.02223 0.025929 0.02223 0.059267 0.05556 0.085196l0.1778-0.20003c-0.13334-0.13335-0.31855-0.21114-0.50376-0.21114zm-0.09631 1.0742c0.18521 0 0.40746 0.14446 0.40746 0.54081 0 0.3593-0.20002 0.5297-0.39635 0.5297-0.28152 0-0.49265-0.32967-0.46302-0.76306 0.10372-0.18891 0.28152-0.30745 0.45191-0.30745z"/>
   <path d="m75.39 6.3399v0.24448h1.3335v-0.24448z"/>
   <path d="m78.501 5.8954c0-0.31485-0.2667-0.58526-0.63341-0.58526-0.20743 0-0.41116 0.0889-0.55562 0.24818l0.14446 0.15928c0.10742-0.11483 0.25559-0.1778 0.40005-0.1778 0.23707 0 0.40005 0.16669 0.40005 0.36301 0 0.13705-0.0852 0.29263-0.24818 0.36301-0.04075 0.014817-0.14446 0.055562-0.36301 0.055562v0.20743c0.03704-0.0037 0.07779-0.00741 0.11853-0.00741 0.31115 0 0.54081 0.16298 0.54081 0.4408 0 0.25188-0.19262 0.47043-0.46302 0.47043-0.21484 0-0.34449-0.14076-0.36301-0.15928-0.02963-0.033338-0.01482-0.070379-0.04815-0.10372l-0.19262 0.23336c0.15187 0.1741 0.37412 0.263 0.60378 0.263 0.4445 0 0.7112-0.31485 0.7112-0.67416 0-0.27411-0.15558-0.50747-0.39635-0.59637 0.20743-0.077788 0.34449-0.27411 0.34449-0.50006z"/>
   <path d="m79.935 5.3176h-0.17039l-0.59267 0.30745 0.05927 0.14446 0.45932-0.12965v1.7854h-0.42968v0.20373h1.089v-0.20373h-0.41487z"/>
  </g>
 </g>
 <g fill="#d2d6dc" stroke-width=".28222px">
  <g opacity=".91" aria-label="Source port">
   <path d="m20.514 10.887c-0.15558-0.18891-0.38523-0.28892-0.63712-0.28892-0.41857 0-0.70379 0.27411-0.70379 0.59267 0 0.13335 0.05186 0.30745 0.24448 0.4482 0.21484 0.15928 0.54822 0.23707 0.72231 0.34819 0.15187 0.0926 0.19262 0.21484 0.19262 0.31856 0 0.20002-0.17039 0.41857-0.50377 0.41857-0.25188 0-0.4482-0.12594-0.55192-0.25559-0.01111-0.01482-0.01111-0.02222-0.01111-0.03704 0-0.0074 0-0.02963-0.01482-0.03704l-0.15558 0.2667c0.1815 0.19632 0.4408 0.29633 0.72602 0.29633 0.56303 0 0.77047-0.37782 0.77047-0.66675 0-0.12224-0.03704-0.28152-0.1815-0.41857-0.20002-0.18891-0.52599-0.25559-0.73713-0.37783-0.19262-0.11483-0.23336-0.25188-0.23336-0.34449 0-0.1778 0.15187-0.33708 0.41487-0.33708 0.21484 0 0.38153 0.09631 0.47043 0.22595 0.01111 0.01482 0.0074 0.02223 0.0074 0.03704 0 0.02223 0.01111 0.02963 0.01852 0.02963z"/>
   <path d="m22.462 12.08c0-0.58526-0.37042-0.889-0.75565-0.889-0.42968 0-0.8001 0.37042-0.8001 0.89641 0 0.51488 0.36671 0.87789 0.79269 0.87789 0.40005 0 0.76306-0.32226 0.76306-0.8853zm-0.77417-0.66305c0.24448 0 0.50377 0.21114 0.50377 0.67416 0 0.42598-0.24448 0.64082-0.48895 0.64082-0.2704 0-0.51488-0.25188-0.51488-0.67046 0-0.41487 0.24077-0.64452 0.50006-0.64452z"/>
   <path d="m22.84 11.228v0.94456c0 0.14446 0 0.29263 0.06668 0.4445 0.09631 0.22225 0.30374 0.34449 0.52599 0.34449 0.21114 0 0.41116-0.11483 0.52229-0.30004l-0.0037 0.12594c0 0.04445 0 0.0889 0.0074 0.12965h0.28152c-0.01852-0.04816-0.02222-0.10372-0.02222-0.15187v-1.5372h-0.2667v0.92975c0 0.12965-0.01111 0.22966-0.06668 0.33338-0.07779 0.14446-0.22966 0.25188-0.39264 0.25188-0.12965 0-0.25559-0.07408-0.32226-0.20743-0.05927-0.11853-0.05927-0.25188-0.05927-0.36301v-0.94456z"/>
   <path d="m24.829 11.228v1.6928h0.2667v-0.82233c0-0.10372 0.0037-0.21484 0.11853-0.39635 0.15558-0.24448 0.3556-0.28522 0.47784-0.28522 0.14076 0 0.22966 0.06668 0.27781 0.12594 0.02222 0.02963 0.03334 0.05927 0.06297 0.08519l0.12594-0.25558c-0.10742-0.11112-0.263-0.18521-0.45191-0.18521-0.24818 0-0.50006 0.12594-0.61119 0.36671l0.01111-0.32597z"/>
   <path d="m28.004 11.506c-0.13335-0.19632-0.3593-0.31486-0.63341-0.31486-0.49636 0-0.84826 0.37412-0.84826 0.88159 0 0.51118 0.3519 0.889 0.83344 0.889 0.23336 0 0.46302-0.09631 0.6223-0.2704l-0.15187-0.1778c-0.11483 0.12965-0.28152 0.20373-0.4482 0.20373-0.32967 0-0.58156-0.27411-0.58156-0.67045 0-0.38523 0.24818-0.626 0.55933-0.626 0.28892 0 0.42598 0.20002 0.43709 0.22225 0.01482 0.02593-0.0074 0.06297 0.02222 0.0852z"/>
   <path d="m29.122 11.187c-0.40376 0-0.77788 0.28892-0.77788 0.90382 0 0.56674 0.3519 0.86678 0.81121 0.86678 0.24448 0 0.46302-0.0889 0.60748-0.263l-0.14817-0.14446c-0.10742 0.12594-0.2704 0.19262-0.43709 0.19262-0.22595 0-0.55562-0.12594-0.57415-0.63341h1.2002c0.01111-0.11483 0.0074-0.22596-0.01111-0.32226-0.07779-0.45561-0.39264-0.60008-0.67046-0.60008zm-0.51118 0.71861c0.05556-0.40005 0.31115-0.51488 0.49266-0.51488 0.27411 0 0.47043 0.24077 0.43709 0.51488z"/>
   <path d="m32.089 11.228 0.0037 2.3077h0.2704v-0.84085c0.11483 0.16669 0.30374 0.2704 0.50747 0.2704 0.34819 0 0.7112-0.29263 0.7112-0.91123 0-0.59637-0.3519-0.86307-0.68527-0.86307-0.21855 0-0.42228 0.11113-0.5371 0.29633v-0.25929zm0.7075 0.18891c0.14817 0 0.50747 0.07779 0.50747 0.69268 0 0.5334-0.34819 0.6186-0.50747 0.6186-0.15928 0-0.32226-0.08149-0.38894-0.23336-0.04815-0.11483-0.04815-0.25559-0.04815-0.50006 0-0.14076 0.0074-0.24448 0.04445-0.33338 0.06667-0.15187 0.22225-0.24448 0.39264-0.24448z"/>
   <path d="m35.427 12.08c0-0.58526-0.37042-0.889-0.75565-0.889-0.42968 0-0.8001 0.37042-0.8001 0.89641 0 0.51488 0.36671 0.87789 0.79269 0.87789 0.40005 0 0.76306-0.32226 0.76306-0.8853zm-0.77417-0.66305c0.24448 0 0.50377 0.21114 0.50377 0.67416 0 0.42598-0.24448 0.64082-0.48895 0.64082-0.2704 0-0.51488-0.25188-0.51488-0.67046 0-0.41487 0.24077-0.64452 0.50006-0.64452z"/>
   <path d="m35.942 11.228v1.6928h0.2667v-0.82233c0-0.10372 0.0037-0.21484 0.11853-0.39635 0.15558-0.24448 0.3556-0.28522 0.47784-0.28522 0.14076 0 0.22966 0.06668 0.27781 0.12594 0.02222 0.02963 0.03334 0.05927 0.06297 0.08519l0.12594-0.25559c-0.10742-0.11112-0.263-0.18521-0.45191-0.18521-0.24818 0-0.50006 0.12594-0.61119 0.36671l0.01111-0.32597z"/>
   <path d="m38.123 10.772-0.03334 0.45561h-0.40375l-0.0037 0.21855h0.39635c-0.02223 0.28892-0.03334 0.57785-0.03334 0.86307 0 0.15187 0 0.32226 0.10001 0.46302 0.08149 0.11112 0.21114 0.1778 0.38523 0.1778 0.20002 0 0.39635-0.0852 0.54081-0.18891l-0.08149-0.21114c-0.14446 0.10742-0.27781 0.15558-0.38153 0.15558-0.12594 0-0.25559-0.07038-0.28522-0.27411 0-0.01482-0.01111-0.07779-0.01111-0.32597 0-0.21855 0.01111-0.4408 0.03334-0.65934h0.55562v-0.22225h-0.55192s0.02593-0.30374 0.04445-0.40005c0.0037-0.03704 0.03334-0.05927 0.01852-0.10001z"/>
  </g>
  <g opacity=".91" aria-label="Destination port">
   <path d="m56.806 10.609v2.3114h0.49636c0.1815 0 0.33708-0.0074 0.50006-0.0926 0.32967-0.17039 0.51118-0.56303 0.51118-1.0668 0-0.4445-0.13335-0.83344-0.42968-1.0261-0.16669-0.11113-0.33338-0.12594-0.5371-0.12594zm0.24448 0.22225h0.28152c0.14446 0 0.28892 0.0074 0.43339 0.12594 0.21484 0.1778 0.28522 0.50747 0.28522 0.83714 0 0.4408-0.14446 0.69268-0.32967 0.81862-0.14446 0.09631-0.28893 0.10372-0.43339 0.10372h-0.23707z"/>
   <path d="m59.417 11.187c-0.40375 0-0.77788 0.28892-0.77788 0.90382 0 0.56674 0.3519 0.86678 0.81121 0.86678 0.24448 0 0.46302-0.0889 0.60748-0.263l-0.14817-0.14446c-0.10742 0.12594-0.2704 0.19262-0.43709 0.19262-0.22595 0-0.55563-0.12594-0.57415-0.63341h1.2002c0.01111-0.11483 0.0074-0.22596-0.01111-0.32226-0.07779-0.45561-0.39264-0.60008-0.67046-0.60008zm-0.51118 0.71861c0.05556-0.40005 0.31115-0.51488 0.49266-0.51488 0.27411 0 0.47043 0.24077 0.43709 0.51488z"/>
   <path d="m61.914 11.45c-0.15558-0.17039-0.38153-0.263-0.63341-0.263-0.39264 0-0.64823 0.21855-0.64823 0.47043 0 0.29633 0.31856 0.40375 0.41116 0.43709 0.14446 0.05186 0.32967 0.09631 0.45561 0.15558 0.14076 0.06668 0.16669 0.15558 0.16669 0.21484 0 0.15928-0.19262 0.2667-0.43339 0.2667-0.28893 0-0.47413-0.1741-0.5297-0.23336-0.01111-0.01482-0.01111-0.02593-0.01111-0.04074 0-0.0037 0.0037-0.02593-0.01482-0.03334l-0.15558 0.263c0.20002 0.18521 0.45932 0.2704 0.7149 0.2704 0.46302 0 0.70379-0.27411 0.70379-0.5297 0-0.11483-0.04815-0.2704-0.24818-0.38153-0.18891-0.10742-0.46302-0.14446-0.6223-0.22225-0.13705-0.06668-0.16669-0.14817-0.16669-0.20743 0-0.13335 0.16669-0.22966 0.3556-0.22966 0.24448 0 0.40746 0.14817 0.47043 0.23336 0.01111 0.01111 0.0074 0.02223 0.0074 0.03334 0 0.02223 0.01482 0.02963 0.02223 0.02963z"/>
   <path d="m62.862 10.772-0.03334 0.45561h-0.40375l-0.0037 0.21855h0.39635c-0.02222 0.28892-0.03334 0.57785-0.03334 0.86307 0 0.15187 0 0.32226 0.10001 0.46302 0.08149 0.11112 0.21114 0.1778 0.38523 0.1778 0.20002 0 0.39635-0.0852 0.54081-0.18891l-0.08149-0.21114c-0.14446 0.10742-0.27781 0.15558-0.38153 0.15558-0.12594 0-0.25559-0.07038-0.28522-0.27411 0-0.01482-0.01111-0.07779-0.01111-0.32597 0-0.21855 0.01111-0.4408 0.03334-0.65934h0.55562v-0.22225h-0.55192s0.02593-0.30374 0.04445-0.40005c0.0037-0.03704 0.03334-0.05927 0.01852-0.10001z"/>
   <path d="m64.41 11.224v0.21855h0.40746v1.2631h-0.42968v0.21114h1.0964v-0.21114h-0.39635v-1.4817zm0.54822-0.73343c-0.10742 0-0.19262 0.0852-0.19262 0.18891 0 0.10372 0.0852 0.18891 0.19262 0.18891 0.10742 0 0.19262-0.0852 0.19262-0.18891 0-0.10372-0.0852-0.18891-0.19262-0.18891z"/>
   <path d="m66.122 12.917h0.2704v-0.9742c0-0.11112 0.01482-0.19632 0.0852-0.28892 0.06297-0.0852 0.22595-0.23707 0.40376-0.23707 0.0852 0 0.17039 0.03704 0.22966 0.10742 0.0926 0.11112 0.0926 0.25559 0.0926 0.37412v1.0186h0.263v-1.0261c0-0.12965 0-0.2704-0.05927-0.40746-0.0852-0.18891-0.25929-0.29633-0.45191-0.29633-0.22966 0-0.43709 0.14817-0.56303 0.33708v-0.29633h-0.2704z"/>
   <path d="m68.055 11.424 0.12965 0.17039c0.14076-0.14446 0.32967-0.18891 0.48895-0.18891 0.20002 0 0.30004 0.0852 0.34819 0.16298 0.05556 0.0926 0.05186 0.20373 0.05186 0.29263v0.05927h-0.05186c-0.25188 0-0.51858 0-0.73343 0.07779-0.2667 0.09631-0.38523 0.29633-0.38523 0.48154 0 0.24818 0.21484 0.48154 0.56674 0.48154 0.20743 0 0.42228-0.07779 0.60748-0.22966v0.18521h0.25188v-1.0483c0-0.13706-0.0037-0.2667-0.08149-0.40005-0.11112-0.1815-0.32597-0.27781-0.58896-0.27781-0.22595 0-0.4445 0.07038-0.60378 0.23336zm1.0298 0.70009v0.11483c0 0.08519 0 0.19632-0.11483 0.31856-0.06297 0.06297-0.22225 0.20002-0.4445 0.20002-0.22595 0-0.3556-0.14446-0.3556-0.29263 0-0.12594 0.0852-0.263 0.29633-0.31486 0.15558-0.03704 0.38153-0.02593 0.55933-0.02593z"/>
   <path d="m70.27 10.772-0.03334 0.45561h-0.40375l-0.0037 0.21855h0.39635c-0.02222 0.28892-0.03334 0.57785-0.03334 0.86307 0 0.15187 0 0.32226 0.10001 0.46302 0.08149 0.11112 0.21114 0.1778 0.38523 0.1778 0.20002 0 0.39635-0.0852 0.54081-0.18891l-0.08149-0.21114c-0.14446 0.10742-0.27781 0.15558-0.38153 0.15558-0.12594 0-0.25559-0.07038-0.28522-0.27411 0-0.01482-0.01111-0.07779-0.01111-0.32597 0-0.21855 0.01111-0.4408 0.03334-0.65934h0.55562v-0.22225h-0.55192s0.02593-0.30374 0.04445-0.40005c0.0037-0.03704 0.03334-0.05927 0.01852-0.10001z"/>
   <path d="m71.819 11.224v0.21855h0.40746v1.2631h-0.42968v0.21114h1.0964v-0.21114h-0.39635v-1.4817zm0.54822-0.73343c-0.10742 0-0.19262 0.0852-0.19262 0.18891 0 0.10372 0.0852 0.18891 0.19262 0.18891 0.10742 0 0.19262-0.0852 0.19262-0.18891 0-0.10372-0.0852-0.18891-0.19262-0.18891z"/>
   <path d="m74.982 12.08c0-0.58526-0.37042-0.889-0.75565-0.889-0.42968 0-0.8001 0.37042-0.8001 0.89641 0 0.51488 0.36671 0.87789 0.79269 0.87789 0.40005 0 0.76306-0.32226 0.76306-0.8853zm-0.77417-0.66305c0.24448 0 0.50377 0.21114 0.50377 0.67416 0 0.42598-0.24448 0.64082-0.48895 0.64082-0.2704 0-0.51488-0.25188-0.51488-0.67046 0-0.41487 0.24077-0.64452 0.50006-0.64452z"/>
   <path d="m75.382 12.917h0.2704v-0.9742c0-0.11112 0.01482-0.19632 0.0852-0.28892 0.06297-0.0852 0.22595-0.23707 0.40375-0.23707 0.0852 0 0.17039 0.03704 0.22966 0.10742 0.0926 0.11112 0.0926 0.25559 0.0926 0.37412v1.0186h0.263v-1.0261c0-0.12965 0-0.2704-0.05927-0.40746-0.0852-0.18891-0.25929-0.29633-0.45191-0.29633-0.22966 0-0.43709 0.14817-0.56303 0.33708v-0.29633h-0.2704z"/>
   <path d="m79.053 11.228 0.0037 2.3077h0.2704v-0.84085c0.11483 0.16669 0.30374 0.2704 0.50747 0.2704 0.34819 0 0.7112-0.29263 0.7112-0.91123 0-0.59637-0.3519-0.86307-0.68527-0.86307-0.21855 0-0.42228 0.11113-0.5371 0.29633v-0.25929zm0.7075 0.18891c0.14817 0 0.50747 0.07779 0.50747 0.69268 0 0.5334-0.34819 0.6186-0.50747 0.6186-0.15928 0-0.32226-0.08149-0.38894-0.23336-0.04816-0.11483-0.04816-0.25559-0.04816-0.50006 0-0.14076 0.0074-0.24448 0.04445-0.33338 0.06667-0.15187 0.22225-0.24448 0.39264-0.24448z"/>
   <path d="m82.39 12.08c0-0.58526-0.37042-0.889-0.75565-0.889-0.42968 0-0.8001 0.37042-0.8001 0.89641 0 0.51488 0.36671 0.87789 0.79269 0.87789 0.40005 0 0.76306-0.32226 0.76306-0.8853zm-0.77417-0.66305c0.24448 0 0.50377 0.21114 0.50377 0.67416 0 0.42598-0.24448 0.64082-0.48895 0.64082-0.2704 0-0.51488-0.25188-0.51488-0.67046 0-0.41487 0.24077-0.64452 0.50006-0.64452z"/>
   <path d="m82.905 11.228v1.6928h0.2667v-0.82233c0-0.10372 0.0037-0.21484 0.11853-0.39635 0.15558-0.24448 0.3556-0.28522 0.47784-0.28522 0.14076 0 0.22966 0.06668 0.27781 0.12594 0.02222 0.02963 0.03334 0.05927 0.06297 0.08519l0.12594-0.25559c-0.10742-0.11112-0.263-0.18521-0.45191-0.18521-0.24818 0-0.50006 0.12594-0.61119 0.36671l0.01111-0.32597z"/>
   <path d="m85.087 10.772-0.03334 0.45561h-0.40375l-0.0037 0.21855h0.39635c-0.02223 0.28892-0.03334 0.57785-0.03334 0.86307 0 0.15187 0 0.32226 0.10001 0.46302 0.08149 0.11112 0.21114 0.1778 0.38523 0.1778 0.20002 0 0.39635-0.0852 0.54081-0.18891l-0.08149-0.21114c-0.14446 0.10742-0.27781 0.15558-0.38153 0.15558-0.12594 0-0.25559-0.07038-0.28522-0.27411 0-0.01482-0.01111-0.07779-0.01111-0.32597 0-0.21855 0.01111-0.4408 0.03334-0.65934h0.55562v-0.22225h-0.55192s0.02593-0.30374 0.04445-0.40005c0.0037-0.03704 0.03334-0.05927 0.01852-0.10001z"/>
  </g>
  <g opacity=".91" aria-label="Sequence number">
   <path d="m37.976 16.179c-0.15558-0.18891-0.38523-0.28893-0.63712-0.28893-0.41857 0-0.70379 0.27411-0.70379 0.59267 0 0.13335 0.05186 0.30745 0.24448 0.4482 0.21484 0.15928 0.54822 0.23707 0.72231 0.34819 0.15187 0.0926 0.19262 0.21484 0.19262 0.31856 0 0.20002-0.17039 0.41857-0.50377 0.41857-0.25188 0-0.4482-0.12594-0.55192-0.25559-0.01111-0.01482-0.01111-0.02222-0.01111-0.03704 0-0.0074 0-0.02963-0.01482-0.03704l-0.15558 0.2667c0.1815 0.19632 0.4408 0.29633 0.72602 0.29633 0.56303 0 0.77047-0.37783 0.77047-0.66675 0-0.12224-0.03704-0.28152-0.1815-0.41857-0.20002-0.18891-0.52599-0.25559-0.73713-0.37783-0.19262-0.11483-0.23336-0.25188-0.23336-0.34449 0-0.1778 0.15187-0.33708 0.41487-0.33708 0.21484 0 0.38153 0.09631 0.47043 0.22596 0.01111 0.01482 0.0074 0.02222 0.0074 0.03704 0 0.02223 0.01111 0.02963 0.01852 0.02963z"/>
   <path d="m39.177 16.479c-0.40376 0-0.77788 0.28893-0.77788 0.90382 0 0.56674 0.3519 0.86678 0.81121 0.86678 0.24448 0 0.46302-0.0889 0.60748-0.263l-0.14817-0.14446c-0.10742 0.12594-0.2704 0.19262-0.43709 0.19262-0.22595 0-0.55562-0.12594-0.57415-0.63341h1.2002c0.01111-0.11483 0.0074-0.22596-0.01111-0.32226-0.07779-0.45561-0.39264-0.60008-0.67046-0.60008zm-0.51118 0.71861c0.05556-0.40005 0.31115-0.51488 0.49266-0.51488 0.27411 0 0.47043 0.24077 0.43709 0.51488z"/>
   <path d="m41.455 16.764c0 0.0037-0.11853-0.28892-0.49265-0.28892-0.37042 0-0.73343 0.30004-0.73343 0.87418 0 0.54822 0.32226 0.90011 0.69638 0.90011 0.21484 0 0.41116-0.12224 0.51858-0.31115v0.889h0.263v-2.3077h-0.25188zm-0.48154-0.07038c0.15187 0 0.34449 0.07779 0.41857 0.28522 0.03334 0.09631 0.04075 0.20002 0.04075 0.40746 0 0.12594-0.0074 0.21855-0.03334 0.30745-0.06668 0.20002-0.24077 0.31856-0.41487 0.31856-0.24448 0-0.48895-0.22225-0.48895-0.70009 0-0.4445 0.25188-0.6186 0.47784-0.6186z"/>
   <path d="m42.155 16.52v0.94456c0 0.14446 0 0.29263 0.06668 0.4445 0.09631 0.22225 0.30374 0.34449 0.52599 0.34449 0.21114 0 0.41116-0.11483 0.52229-0.30004l-0.0037 0.12594c0 0.04445 0 0.0889 0.0074 0.12965h0.28152c-0.01852-0.04816-0.02222-0.10372-0.02222-0.15187v-1.5372h-0.2667v0.92975c0 0.12965-0.01111 0.22966-0.06668 0.33338-0.07779 0.14446-0.22966 0.25188-0.39264 0.25188-0.12965 0-0.25559-0.07408-0.32226-0.20743-0.05927-0.11853-0.05927-0.25188-0.05927-0.36301v-0.94456z"/>
   <path d="m44.733 16.479c-0.40376 0-0.77788 0.28893-0.77788 0.90382 0 0.56674 0.3519 0.86678 0.81121 0.86678 0.24448 0 0.46302-0.0889 0.60748-0.263l-0.14817-0.14446c-0.10742 0.12594-0.2704 0.19262-0.43709 0.19262-0.22595 0-0.55562-0.12594-0.57415-0.63341h1.2002c0.01111-0.11483 0.0074-0.22596-0.01111-0.32226-0.07779-0.45561-0.39264-0.60008-0.67046-0.60008zm-0.51118 0.71861c0.05556-0.40005 0.31115-0.51488 0.49266-0.51488 0.27411 0 0.47043 0.24077 0.43709 0.51488z"/>
   <path d="m45.881 18.209h0.2704v-0.9742c0-0.11112 0.01482-0.19632 0.08519-0.28892 0.06297-0.0852 0.22596-0.23707 0.40376-0.23707 0.0852 0 0.17039 0.03704 0.22966 0.10742 0.0926 0.11112 0.0926 0.25559 0.0926 0.37412v1.0186h0.263v-1.0261c0-0.12965 0-0.2704-0.05927-0.40746-0.0852-0.18891-0.25929-0.29633-0.45191-0.29633-0.22966 0-0.43709 0.14817-0.56303 0.33708v-0.29633h-0.27039z"/>
   <path d="m49.17 16.797c-0.13335-0.19632-0.3593-0.31486-0.63341-0.31486-0.49636 0-0.84826 0.37412-0.84826 0.88159 0 0.51118 0.3519 0.889 0.83344 0.889 0.23336 0 0.46302-0.09631 0.6223-0.2704l-0.15187-0.1778c-0.11483 0.12965-0.28152 0.20373-0.4482 0.20373-0.32967 0-0.58155-0.27411-0.58155-0.67046 0-0.38523 0.24818-0.626 0.55933-0.626 0.28893 0 0.42598 0.20002 0.43709 0.22225 0.01482 0.02593-0.0074 0.06297 0.02223 0.0852z"/>
   <path d="m50.289 16.479c-0.40376 0-0.77788 0.28893-0.77788 0.90382 0 0.56674 0.3519 0.86678 0.81121 0.86678 0.24448 0 0.46302-0.0889 0.60748-0.263l-0.14817-0.14446c-0.10742 0.12594-0.2704 0.19262-0.43709 0.19262-0.22595 0-0.55562-0.12594-0.57415-0.63341h1.2002c0.01111-0.11483 0.0074-0.22596-0.01111-0.32226-0.07779-0.45561-0.39264-0.60008-0.67046-0.60008zm-0.51118 0.71861c0.05556-0.40005 0.31115-0.51488 0.49266-0.51488 0.27411 0 0.47043 0.24077 0.43709 0.51488z"/>
   <path d="m53.289 18.209h0.2704v-0.9742c0-0.11112 0.01482-0.19632 0.0852-0.28892 0.06297-0.0852 0.22595-0.23707 0.40375-0.23707 0.0852 0 0.17039 0.03704 0.22966 0.10742 0.0926 0.11112 0.0926 0.25559 0.0926 0.37412v1.0186h0.263v-1.0261c0-0.12965 0-0.2704-0.05927-0.40746-0.0852-0.18891-0.25929-0.29633-0.45191-0.29633-0.22966 0-0.43709 0.14817-0.56303 0.33708v-0.29633h-0.2704z"/>
   <path d="m55.119 16.52v0.94456c0 0.14446 0 0.29263 0.06667 0.4445 0.09631 0.22225 0.30374 0.34449 0.52599 0.34449 0.21114 0 0.41116-0.11483 0.52229-0.30004l-0.0037 0.12594c0 0.04445 0 0.0889 0.0074 0.12965h0.28152c-0.01852-0.04816-0.02222-0.10372-0.02222-0.15187v-1.5372h-0.2667v0.92975c0 0.12965-0.01111 0.22966-0.06668 0.33338-0.07779 0.14446-0.22966 0.25188-0.39264 0.25188-0.12965 0-0.25559-0.07408-0.32226-0.20743-0.05927-0.11853-0.05927-0.25188-0.05927-0.36301v-0.94456z"/>
   <path d="m56.879 18.209h0.24448v-1.1261c0-0.08149 0.0074-0.15558 0.05556-0.24448 0.05927-0.11112 0.13335-0.15558 0.20373-0.15558 0.05927 0 0.12594 0.03704 0.15558 0.12965 0.02222 0.07038 0.01852 0.15187 0.01852 0.22225v1.1742h0.24818v-1.1187c0-0.0889 0.0074-0.15928 0.07038-0.2667 0.02963-0.04445 0.0926-0.15187 0.19632-0.15187 0.05556 0 0.10742 0.03334 0.13335 0.09631 0.03334 0.07038 0.02593 0.16669 0.02593 0.24448v1.2002h0.25188v-1.2039c0-0.14076 0.0037-0.28152-0.07038-0.39635-0.06297-0.09631-0.17039-0.13335-0.263-0.13335-0.16298 0-0.31486 0.09631-0.38153 0.24448-0.02593-0.14076-0.14446-0.24448-0.29633-0.24448-0.14076 0-0.2704 0.0889-0.34819 0.20743l0.0037-0.16669h-0.24818z"/>
   <path d="m58.812 15.745v2.4633h0.1741l0.0926-0.22225c0.11112 0.16669 0.29633 0.2667 0.50006 0.2667 0.34819 0 0.7075-0.29633 0.7075-0.91123 0-0.58896-0.34819-0.86307-0.68157-0.86307-0.21484 0-0.41487 0.11483-0.52229 0.30004v-0.94827c0-0.02223 0.0037-0.02963 0.02222-0.04445 0.0074-0.0037 0.02593-0.01852 0.02222-0.04075zm0.70009 0.96308c0.15928 0 0.49636 0.0926 0.49636 0.69268 0 0.51488-0.33338 0.61119-0.50006 0.61119-0.11483 0-0.37042-0.04445-0.41487-0.37042-0.01111-0.0852-0.01111-0.18521-0.01111-0.33338 0-0.15187 0.0074-0.263 0.04445-0.3556 0.06297-0.15187 0.21855-0.24448 0.38523-0.24448z"/>
   <path d="m61.402 16.479c-0.40375 0-0.77788 0.28893-0.77788 0.90382 0 0.56674 0.3519 0.86678 0.81121 0.86678 0.24448 0 0.46302-0.0889 0.60748-0.263l-0.14817-0.14446c-0.10742 0.12594-0.2704 0.19262-0.43709 0.19262-0.22595 0-0.55563-0.12594-0.57415-0.63341h1.2002c0.01111-0.11483 0.0074-0.22596-0.01111-0.32226-0.07779-0.45561-0.39264-0.60008-0.67046-0.60008zm-0.51118 0.71861c0.05556-0.40005 0.31115-0.51488 0.49266-0.51488 0.27411 0 0.47043 0.24077 0.43709 0.51488z"/>
   <path d="m62.665 16.52v1.6928h0.2667v-0.82233c0-0.10372 0.0037-0.21484 0.11853-0.39635 0.15558-0.24448 0.3556-0.28522 0.47784-0.28522 0.14076 0 0.22966 0.06668 0.27781 0.12594 0.02222 0.02963 0.03334 0.05927 0.06297 0.0852l0.12594-0.25559c-0.10742-0.11112-0.263-0.18521-0.45191-0.18521-0.24818 0-0.50006 0.12594-0.61119 0.36671l0.01111-0.32597z"/>
  </g>
 </g>
 <g fill="#6f8ce9" stroke="#535e70" stroke-linecap="round" stroke-width=".13229">
  <path d="m31.816 25.029v5.2917"/>
  <path d="m18.587 25.029v5.2917"/>
  <path d="m50.337 30.321v5.2917"/>
 </g>
 <g fill="#d2d6dc" stroke-width=".28222px">
  <g opacity=".91" aria-label="Acknowledgment number">
   <path d="m30.864 23.504h0.25559l0.22595-0.67786h0.72972l0.25559 0.67416h0.2704l-0.8927-2.3484h-0.02963zm1.1557-0.87789h-0.626l0.30004-0.87789z"/>
   <path d="m34.354 22.089c-0.13335-0.19632-0.3593-0.31485-0.63341-0.31485-0.49636 0-0.84826 0.37412-0.84826 0.88159 0 0.51118 0.3519 0.889 0.83344 0.889 0.23336 0 0.46302-0.09631 0.6223-0.2704l-0.15187-0.1778c-0.11483 0.12965-0.28152 0.20373-0.4482 0.20373-0.32967 0-0.58156-0.27411-0.58156-0.67046 0-0.38523 0.24818-0.626 0.55933-0.626 0.28892 0 0.42598 0.20002 0.43709 0.22225 0.01482 0.02593-0.0074 0.06297 0.02222 0.0852z"/>
   <path d="m34.761 21.041v2.4633h0.2667v-0.64082l0.22596-0.20743 0.68898 0.86307s0.14446-0.01482 0.31856-0.01482h0.02593l-0.82973-1.0112 0.7149-0.67046h-0.09631c-0.06668 0-0.13335-0.0037-0.20003-0.02223l-0.84826 0.78899v-1.452c0-0.01482 0.0037-0.02593 0.01482-0.04445 0.01111-0.01111 0.02593-0.02593 0.02223-0.05186z"/>
   <path d="m36.621 23.5h0.2704v-0.9742c0-0.11112 0.01482-0.19632 0.0852-0.28892 0.06297-0.0852 0.22595-0.23707 0.40375-0.23707 0.0852 0 0.17039 0.03704 0.22966 0.10742 0.0926 0.11112 0.0926 0.25559 0.0926 0.37412v1.0186h0.263v-1.0261c0-0.12965 0-0.2704-0.05927-0.40746-0.0852-0.18891-0.25929-0.29633-0.45191-0.29633-0.22966 0-0.43709 0.14817-0.56303 0.33708v-0.29633h-0.2704z"/>
   <path d="m39.925 22.663c0-0.58526-0.37042-0.889-0.75565-0.889-0.42968 0-0.8001 0.37042-0.8001 0.89641 0 0.51488 0.36671 0.87789 0.79269 0.87789 0.40005 0 0.76306-0.32226 0.76306-0.8853zm-0.77417-0.66305c0.24448 0 0.50377 0.21114 0.50377 0.67416 0 0.42598-0.24448 0.64082-0.48895 0.64082-0.2704 0-0.51488-0.25188-0.51488-0.67045 0-0.41487 0.24077-0.64453 0.50006-0.64453z"/>
   <path d="m40.128 21.807 0.34078 1.6965h0.24077l0.29633-1.0964 0.31486 1.0964h0.24818c0.11483-0.55933 0.21114-1.1261 0.28152-1.6928h-0.24448c0.0074 0.20373-0.01111 0.39264-0.15928 1.3557l-0.3556-1.2002h-0.16298l-0.29263 1.2039-0.24448-1.2224c-0.0074-0.02593-0.0074-0.03704 0.0037-0.06668 0.0037-0.01852 0.01482-0.04445 0.0037-0.07408z"/>
   <path d="m42.236 21.041v0.21484h0.48154v2.0336h-0.50377v0.21114h1.2705v-0.21114h-0.50006v-2.2484z"/>
   <path d="m44.733 21.77c-0.40376 0-0.77788 0.28893-0.77788 0.90382 0 0.56674 0.3519 0.86678 0.81121 0.86678 0.24448 0 0.46302-0.0889 0.60748-0.263l-0.14817-0.14446c-0.10742 0.12594-0.2704 0.19262-0.43709 0.19262-0.22595 0-0.55562-0.12594-0.57415-0.63341h1.2002c0.01111-0.11483 0.0074-0.22596-0.01111-0.32226-0.07779-0.45561-0.39264-0.60008-0.67045-0.60008zm-0.51118 0.71861c0.05556-0.40005 0.31115-0.51488 0.49266-0.51488 0.27411 0 0.47043 0.24077 0.43709 0.51488z"/>
   <path d="m47.003 22.056c-0.08149-0.1741-0.263-0.28893-0.49636-0.28893-0.32226 0-0.7149 0.22966-0.7149 0.87418 0 0.626 0.34819 0.90011 0.67416 0.90011 0.21484 0 0.41487-0.12224 0.52229-0.31115v0.14817c0 0.04075 0.0037 0.08149 0.01482 0.12224h0.2667c-0.01482-0.04815-0.01482-0.10372-0.01482-0.15558l-0.0037-2.2003c0-0.02222 0-0.02963 0.01482-0.05186 0.0074-0.01111 0.02222-0.02963 0.01852-0.05556h-0.28152zm-0.48525-0.07038c0.14817 0 0.36671 0.07779 0.43339 0.32967 0.02222 0.07779 0.02963 0.17039 0.02963 0.3593 0 0.12965-0.0074 0.22225-0.03704 0.31115-0.06297 0.20002-0.24077 0.31856-0.41487 0.31856-0.19262 0-0.47784-0.14817-0.47784-0.70379 0-0.48525 0.2704-0.61489 0.46673-0.61489z"/>
   <path d="m47.944 22.337c0-0.20373 0.17039-0.37042 0.37412-0.37042 0.20743 0 0.37412 0.16669 0.37412 0.37042 0 0.20373-0.16669 0.37042-0.37412 0.37042-0.20743 0-0.37412-0.16669-0.37412-0.37042zm0.38894-0.58155c-0.33708 0-0.62971 0.2667-0.62971 0.59637 0 0.18521 0.0926 0.3593 0.24818 0.45932-0.12224 0.10372-0.19262 0.21855-0.19262 0.32597 0 0.07038 0.02963 0.17039 0.13705 0.22596-0.1815 0.11483-0.27411 0.24077-0.27411 0.37412 0 0.18521 0.17039 0.40375 0.76306 0.40375 0.57415 0 0.78158-0.29263 0.78158-0.51858 0-0.14817-0.08519-0.29633-0.263-0.36671-0.1778-0.07408-0.38153-0.04816-0.57415-0.04816-0.12594 0-0.20743-0.01111-0.24077-0.02222-0.06667-0.01852-0.10372-0.05927-0.10372-0.11112 0-0.0889 0.10372-0.1741 0.12224-0.18891 0.06668 0.02593 0.14076 0.03704 0.21484 0.03704 0.33338 0 0.60748-0.2667 0.60748-0.57785 0-0.10372-0.02963-0.20373-0.0852-0.28892 0.0889-0.05186 0.19262-0.08149 0.29633-0.08149 0.03334 0 0.06297 0.0037 0.09631 0.01111l-0.02963-0.21855c-0.17039-0.01482-0.34078 0.04075-0.47043 0.14817-0.10742-0.10372-0.24818-0.15928-0.40376-0.15928zm-0.25559 1.6558c0.06297 0.0074 0.15187 0.01482 0.28152 0.02223 0.12594 0.0037 0.263-0.0074 0.3593 0.0074 0.15558 0.02593 0.20373 0.12224 0.20373 0.19632 0 0.07408-0.04445 0.16298-0.15928 0.22595-0.12594 0.06668-0.2667 0.07408-0.38153 0.07408-0.07779 0-0.22225-0.0037-0.34819-0.05556-0.13705-0.05556-0.16669-0.14817-0.16669-0.20743 0-0.12224 0.11483-0.21114 0.21114-0.263z"/>
   <path d="m49.47 23.5h0.24448v-1.1261c0-0.08149 0.0074-0.15558 0.05556-0.24448 0.05927-0.11112 0.13335-0.15558 0.20373-0.15558 0.05927 0 0.12594 0.03704 0.15558 0.12965 0.02222 0.07038 0.01852 0.15187 0.01852 0.22225v1.1742h0.24818v-1.1187c0-0.0889 0.0074-0.15928 0.07038-0.2667 0.02963-0.04445 0.0926-0.15187 0.19632-0.15187 0.05556 0 0.10742 0.03334 0.13335 0.09631 0.03334 0.07038 0.02593 0.16669 0.02593 0.24448v1.2002h0.25188v-1.2039c0-0.14076 0.0037-0.28152-0.07038-0.39635-0.06297-0.09631-0.17039-0.13335-0.263-0.13335-0.16298 0-0.31486 0.09631-0.38153 0.24448-0.02593-0.14076-0.14446-0.24448-0.29633-0.24448-0.14076 0-0.2704 0.0889-0.34819 0.20743l0.0037-0.16669h-0.24818z"/>
   <path d="m52.141 21.77c-0.40375 0-0.77788 0.28893-0.77788 0.90382 0 0.56674 0.3519 0.86678 0.81121 0.86678 0.24448 0 0.46302-0.0889 0.60748-0.263l-0.14817-0.14446c-0.10742 0.12594-0.2704 0.19262-0.43709 0.19262-0.22596 0-0.55563-0.12594-0.57415-0.63341h1.2002c0.01111-0.11483 0.0074-0.22596-0.01111-0.32226-0.07779-0.45561-0.39264-0.60008-0.67046-0.60008zm-0.51118 0.71861c0.05556-0.40005 0.31115-0.51488 0.49265-0.51488 0.27411 0 0.47043 0.24077 0.43709 0.51488z"/>
   <path d="m53.289 23.5h0.2704v-0.9742c0-0.11112 0.01482-0.19632 0.0852-0.28892 0.06297-0.0852 0.22596-0.23707 0.40376-0.23707 0.0852 0 0.17039 0.03704 0.22966 0.10742 0.09261 0.11112 0.09261 0.25559 0.09261 0.37412v1.0186h0.263v-1.0261c0-0.12965 0-0.2704-0.05927-0.40746-0.0852-0.18891-0.25929-0.29633-0.45191-0.29633-0.22966 0-0.43709 0.14817-0.56303 0.33708v-0.29633h-0.27041z"/>
   <path d="m55.586 21.356-0.03334 0.45561h-0.40376l-0.0037 0.21855h0.39635c-0.02222 0.28893-0.03334 0.57785-0.03334 0.86307 0 0.15187 0 0.32226 0.10001 0.46302 0.08149 0.11112 0.21114 0.1778 0.38523 0.1778 0.20002 0 0.39635-0.0852 0.54081-0.18891l-0.08149-0.21114c-0.14446 0.10742-0.27781 0.15558-0.38153 0.15558-0.12594 0-0.25559-0.07038-0.28522-0.27411 0-0.01482-0.01111-0.07779-0.01111-0.32597 0-0.21855 0.01111-0.4408 0.03334-0.65934h0.55562v-0.22225h-0.55193s0.02593-0.30374 0.04445-0.40005c0.0037-0.03704 0.03334-0.05927 0.01852-0.10001z"/>
   <path d="m58.846 23.5h0.2704v-0.9742c0-0.11112 0.01482-0.19632 0.0852-0.28892 0.06297-0.0852 0.22595-0.23707 0.40375-0.23707 0.0852 0 0.17039 0.03704 0.22966 0.10742 0.0926 0.11112 0.0926 0.25559 0.0926 0.37412v1.0186h0.263v-1.0261c0-0.12965 0-0.2704-0.05927-0.40746-0.0852-0.18891-0.25929-0.29633-0.45191-0.29633-0.22966 0-0.43709 0.14817-0.56303 0.33708v-0.29633h-0.2704z"/>
   <path d="m60.676 21.811v0.94456c0 0.14446 0 0.29263 0.06667 0.4445 0.09631 0.22225 0.30374 0.34449 0.52599 0.34449 0.21114 0 0.41116-0.11483 0.52229-0.30004l-0.0037 0.12594c0 0.04445 0 0.0889 0.0074 0.12965h0.28152c-0.01852-0.04815-0.02222-0.10372-0.02222-0.15187v-1.5372h-0.2667v0.92975c0 0.12965-0.01111 0.22966-0.06668 0.33338-0.07779 0.14446-0.22966 0.25188-0.39264 0.25188-0.12965 0-0.25559-0.07408-0.32226-0.20743-0.05927-0.11853-0.05927-0.25188-0.05927-0.36301v-0.94456z"/>
   <path d="m62.435 23.5h0.24448v-1.1261c0-0.08149 0.0074-0.15558 0.05556-0.24448 0.05927-0.11112 0.13335-0.15558 0.20373-0.15558 0.05927 0 0.12594 0.03704 0.15558 0.12965 0.02222 0.07038 0.01852 0.15187 0.01852 0.22225v1.1742h0.24818v-1.1187c0-0.0889 0.0074-0.15928 0.07038-0.2667 0.02963-0.04445 0.0926-0.15187 0.19632-0.15187 0.05556 0 0.10742 0.03334 0.13335 0.09631 0.03334 0.07038 0.02593 0.16669 0.02593 0.24448v1.2002h0.25188v-1.2039c0-0.14076 0.0037-0.28152-0.07038-0.39635-0.06297-0.09631-0.17039-0.13335-0.263-0.13335-0.16298 0-0.31486 0.09631-0.38153 0.24448-0.02593-0.14076-0.14446-0.24448-0.29633-0.24448-0.14076 0-0.2704 0.0889-0.34819 0.20743l0.0037-0.16669h-0.24818z"/>
   <path d="m64.369 21.037v2.4633h0.1741l0.0926-0.22225c0.11113 0.16669 0.29633 0.2667 0.50006 0.2667 0.34819 0 0.7075-0.29633 0.7075-0.91123 0-0.58896-0.34819-0.86307-0.68157-0.86307-0.21484 0-0.41487 0.11483-0.52229 0.30004v-0.94827c0-0.02223 0.0037-0.02963 0.02222-0.04445 0.0074-0.0037 0.02593-0.01852 0.02223-0.04075zm0.70009 0.96308c0.15928 0 0.49636 0.0926 0.49636 0.69268 0 0.51488-0.33338 0.61119-0.50006 0.61119-0.11483 0-0.37042-0.04445-0.41487-0.37042-0.01111-0.0852-0.01111-0.18521-0.01111-0.33338 0-0.15187 0.0074-0.263 0.04445-0.3556 0.06297-0.15187 0.21855-0.24448 0.38523-0.24448z"/>
   <path d="m66.958 21.77c-0.40375 0-0.77788 0.28893-0.77788 0.90382 0 0.56674 0.3519 0.86678 0.81121 0.86678 0.24448 0 0.46302-0.0889 0.60748-0.263l-0.14817-0.14446c-0.10742 0.12594-0.2704 0.19262-0.43709 0.19262-0.22596 0-0.55563-0.12594-0.57415-0.63341h1.2002c0.01111-0.11483 0.0074-0.22596-0.01111-0.32226-0.07779-0.45561-0.39264-0.60008-0.67046-0.60008zm-0.51118 0.71861c0.05556-0.40005 0.31115-0.51488 0.49265-0.51488 0.27411 0 0.47043 0.24077 0.43709 0.51488z"/>
   <path d="m68.221 21.811v1.6928h0.2667v-0.82233c0-0.10372 0.0037-0.21484 0.11853-0.39635 0.15558-0.24448 0.3556-0.28522 0.47784-0.28522 0.14076 0 0.22966 0.06668 0.27781 0.12594 0.02223 0.02963 0.03334 0.05927 0.06297 0.0852l0.12594-0.25559c-0.10742-0.11112-0.263-0.18521-0.45191-0.18521-0.24818 0-0.50006 0.12594-0.61119 0.36671l0.01111-0.32597z"/>
  </g>
  <g opacity=".91" aria-label="Reserved">
   <path d="m20.245 26.879v1.6484h0.18521v-0.7276h0.32014l0.36512 0.7276h0.20902l-0.381-0.7329c0.19844-0.05556 0.33602-0.24342 0.33602-0.46302 0-0.16404-0.08202-0.32014-0.23548-0.39687-0.10319-0.05292-0.20637-0.05556-0.31485-0.05556zm0.18521 0.17462h0.29898c0.06879 0 0.13494 0.0026 0.20373 0.0344 0.10319 0.05292 0.1561 0.15875 0.1561 0.26458 0 0.10583-0.05027 0.20373-0.14552 0.25135-0.0635 0.03175-0.127 0.03439-0.19315 0.03439h-0.32014z"/>
   <path d="m22.102 27.292c-0.2884 0-0.55562 0.20637-0.55562 0.64558 0 0.40481 0.25135 0.61912 0.57944 0.61912 0.17462 0 0.33073-0.0635 0.43392-0.18785l-0.10583-0.10319c-0.07673 0.08996-0.19315 0.13758-0.31221 0.13758-0.1614 0-0.39688-0.08996-0.4101-0.45244h0.85725c0.0079-0.08202 0.0053-0.1614-0.0079-0.23019-0.05556-0.32544-0.28046-0.42862-0.4789-0.42862zm-0.36512 0.51329c0.03969-0.28575 0.22225-0.36777 0.3519-0.36777 0.19579 0 0.33602 0.17198 0.31221 0.36777z"/>
   <path d="m23.886 27.48c-0.11112-0.12171-0.27252-0.18785-0.45244-0.18785-0.28046 0-0.46302 0.1561-0.46302 0.33602 0 0.21167 0.22754 0.2884 0.29369 0.31221 0.10319 0.03704 0.23548 0.06879 0.32544 0.11112 0.10054 0.04763 0.11906 0.11112 0.11906 0.15346 0 0.11377-0.13758 0.1905-0.30956 0.1905-0.20638 0-0.33867-0.12435-0.37835-0.16669-0.0079-0.01058-0.0079-0.01852-0.0079-0.0291 0-0.0026 0.0026-0.01852-0.01058-0.02381l-0.11112 0.18785c0.14287 0.13229 0.32808 0.19314 0.51064 0.19314 0.33073 0 0.50271-0.19579 0.50271-0.37835 0-0.08202-0.03439-0.19315-0.17727-0.27252-0.13494-0.07673-0.33073-0.10319-0.4445-0.15875-0.09789-0.04763-0.11906-0.10583-0.11906-0.14817 0-0.09525 0.11906-0.16404 0.254-0.16404 0.17462 0 0.29104 0.10583 0.33602 0.16669 0.0079 0.0079 0.0053 0.01588 0.0053 0.02381 0 0.01588 0.01058 0.02117 0.01588 0.02117z"/>
   <path d="m24.748 27.292c-0.2884 0-0.55562 0.20637-0.55562 0.64558 0 0.40481 0.25135 0.61912 0.57944 0.61912 0.17462 0 0.33073-0.0635 0.43392-0.18785l-0.10583-0.10319c-0.07673 0.08996-0.19314 0.13758-0.31221 0.13758-0.1614 0-0.39687-0.08996-0.4101-0.45244h0.85725c0.0079-0.08202 0.0053-0.1614-0.0079-0.23019-0.05556-0.32544-0.28046-0.42862-0.4789-0.42862zm-0.36512 0.51329c0.03969-0.28575 0.22225-0.36777 0.3519-0.36777 0.19579 0 0.33602 0.17198 0.31221 0.36777z"/>
   <path d="m25.651 27.321v1.2091h0.1905v-0.58737c0-0.07408 0.0026-0.15346 0.08467-0.2831 0.11112-0.17462 0.254-0.20373 0.34131-0.20373 0.10054 0 0.16404 0.04763 0.19844 0.08996 0.01587 0.02117 0.02381 0.04233 0.04498 0.06085l0.08996-0.18256c-0.07673-0.07937-0.18785-0.13229-0.32279-0.13229-0.17727 0-0.35719 0.08996-0.43656 0.26194l0.0079-0.23283z"/>
   <path d="m26.815 27.318 0.4789 1.2197h0.15081l0.29369-0.69056c0.07144-0.16933 0.14023-0.34396 0.17992-0.52917h-0.17198c-0.03175 0.17727-0.09525 0.34396-0.16404 0.50271l-0.19314 0.44979-0.34925-0.88371c-0.0026-0.0053-0.0053-0.01058-0.0053-0.01587 0-0.01587 0.01323-0.03175 0.0079-0.05292z"/>
   <path d="m28.717 27.292c-0.2884 0-0.55562 0.20637-0.55562 0.64558 0 0.40481 0.25135 0.61912 0.57944 0.61912 0.17462 0 0.33073-0.0635 0.43392-0.18785l-0.10583-0.10319c-0.07673 0.08996-0.19314 0.13758-0.31221 0.13758-0.1614 0-0.39687-0.08996-0.4101-0.45244h0.85725c0.0079-0.08202 0.0053-0.1614-0.0079-0.23019-0.05556-0.32544-0.28046-0.42862-0.4789-0.42862zm-0.36512 0.51329c0.03969-0.28575 0.22225-0.36777 0.3519-0.36777 0.19579 0 0.33602 0.17198 0.31221 0.36777z"/>
   <path d="m30.339 27.496c-0.05821-0.12435-0.18785-0.20638-0.35454-0.20638-0.23019 0-0.51064 0.16404-0.51064 0.62442 0 0.44714 0.24871 0.64294 0.48154 0.64294 0.15346 0 0.29633-0.08731 0.37306-0.22225v0.10583c0 0.0291 0.0026 0.05821 0.01058 0.08731h0.1905c-0.01058-0.0344-0.01058-0.07408-0.01058-0.11112l-0.0026-1.5716c0-0.01588 0-0.02117 0.01058-0.03704 0.0053-0.0079 0.01587-0.02117 0.01323-0.03969h-0.20108zm-0.3466-0.05027c0.10583 0 0.26194 0.05556 0.30956 0.23548 0.01588 0.05556 0.02117 0.12171 0.02117 0.25664 0 0.0926-0.0053 0.15875-0.02646 0.22225-0.04498 0.14288-0.17198 0.22754-0.29633 0.22754-0.13758 0-0.34131-0.10583-0.34131-0.50271 0-0.3466 0.19315-0.43921 0.33338-0.43921z"/>
  </g>
  <g opacity=".91" aria-label="Data Offset">
   <path d="m10.977 25.292v1.651h0.35454c0.12965 0 0.24077-0.0053 0.35719-0.06614 0.23548-0.12171 0.36512-0.40217 0.36512-0.762 0-0.3175-0.09525-0.59531-0.30692-0.7329-0.11906-0.07938-0.23812-0.08996-0.38364-0.08996zm0.17462 0.15875h0.20108c0.10319 0 0.20638 0.0053 0.30956 0.08996 0.15346 0.127 0.20373 0.36248 0.20373 0.59796 0 0.31485-0.10319 0.49477-0.23548 0.58473-0.10319 0.06879-0.20638 0.07408-0.30956 0.07408h-0.16933z"/>
   <path d="m12.398 25.874 0.0926 0.12171c0.10054-0.10319 0.23548-0.13494 0.34925-0.13494 0.14288 0 0.21431 0.06085 0.24871 0.11642 0.03969 0.06614 0.03704 0.14552 0.03704 0.20902v0.04233h-0.03704c-0.17992 0-0.37042 0-0.52387 0.05556-0.1905 0.06879-0.27517 0.21167-0.27517 0.34396 0 0.17727 0.15346 0.34396 0.40481 0.34396 0.14817 0 0.30162-0.05556 0.43392-0.16404v0.13229h0.17992v-0.74877c0-0.0979-0.0026-0.1905-0.05821-0.28575-0.07937-0.12965-0.23283-0.19844-0.42069-0.19844-0.1614 0-0.3175 0.05027-0.43127 0.16669zm0.73554 0.50006v0.08202c0 0.06085 0 0.14023-0.08202 0.22754-0.04498 0.04498-0.15875 0.14288-0.3175 0.14288-0.1614 0-0.254-0.10319-0.254-0.20902 0-0.08996 0.06085-0.18785 0.21167-0.2249 0.11112-0.02646 0.27252-0.01852 0.39952-0.01852z"/>
   <path d="m13.98 25.408-0.02381 0.32544h-0.2884l-0.0026 0.1561h0.2831c-0.01587 0.20638-0.02381 0.41275-0.02381 0.61648 0 0.10848 0 0.23019 0.07144 0.33073 0.05821 0.07937 0.15081 0.127 0.27517 0.127 0.14288 0 0.2831-0.06085 0.38629-0.13494l-0.05821-0.15081c-0.10319 0.07673-0.19844 0.11112-0.27252 0.11112-0.08996 0-0.18256-0.05027-0.20373-0.19579 0-0.01058-0.0079-0.05556-0.0079-0.23283 0-0.1561 0.0079-0.31485 0.02381-0.47096h0.39687v-0.15875h-0.39423s0.01852-0.21696 0.03175-0.28575c0.0026-0.02646 0.02381-0.04233 0.01323-0.07144z"/>
   <path d="m15.043 25.874 0.0926 0.12171c0.10054-0.10319 0.23548-0.13494 0.34925-0.13494 0.14288 0 0.21431 0.06085 0.24871 0.11642 0.03969 0.06614 0.03704 0.14552 0.03704 0.20902v0.04233h-0.03704c-0.17992 0-0.37042 0-0.52387 0.05556-0.1905 0.06879-0.27517 0.21167-0.27517 0.34396 0 0.17727 0.15346 0.34396 0.40481 0.34396 0.14817 0 0.30162-0.05556 0.43392-0.16404v0.13229h0.17992v-0.74877c0-0.0979-0.0026-0.1905-0.05821-0.28575-0.07937-0.12965-0.23283-0.19844-0.42069-0.19844-0.1614 0-0.3175 0.05027-0.43127 0.16669zm0.73554 0.50006v0.08202c0 0.06085 0 0.14023-0.08202 0.22754-0.04498 0.04498-0.15875 0.14288-0.3175 0.14288-0.1614 0-0.254-0.10319-0.254-0.20902 0-0.08996 0.06085-0.18785 0.21167-0.2249 0.11112-0.02646 0.27252-0.01852 0.39952-0.01852z"/>
   <path d="m10.76 29.162c0-0.15346-0.01058-0.35719-0.10054-0.53446-0.10848-0.21167-0.29633-0.30956-0.47625-0.30956-0.24606 0-0.59267 0.1905-0.59267 0.83873s0.34131 0.85196 0.59531 0.85196c0.17727 0 0.36777-0.10054 0.47625-0.32014 0.08731-0.17727 0.0979-0.381 0.0979-0.52652zm-0.58473-0.67204c0.11642 0 0.25929 0.06879 0.33602 0.26194 0.05556 0.13758 0.0635 0.29633 0.0635 0.43392 0 0.10848-0.0053 0.27781-0.07408 0.41804-0.07673 0.1614-0.20373 0.2249-0.31485 0.2249-0.18521 0-0.41275-0.17198-0.41275-0.69585 0-0.49212 0.23019-0.64294 0.40217-0.64294z"/>
   <path d="m11.744 28.21c-0.16933 0-0.32808 0.07144-0.41275 0.20902-0.0635 0.10054-0.06615 0.20108-0.06615 0.30956v0.11906h-0.26458v0.15081h0.26458v0.98425h0.18256v-0.98425h0.39423v-0.15081h-0.39423v-0.09525c0-0.08731-0.0026-0.17992 0.04233-0.25929 0.05027-0.08996 0.14552-0.13494 0.24342-0.13494 0.11642 0 0.21431 0.06086 0.26458 0.13758 0.0079 0.01323 0.0079 0.02117 0.0079 0.03175 0 0.01852 0.01323 0.02381 0.02117 0.02381l0.08731-0.17727c-0.08731-0.10319-0.2196-0.16404-0.37042-0.16404z"/>
   <path d="m13.067 28.21c-0.16933 0-0.32808 0.07144-0.41275 0.20902-0.0635 0.10054-0.06615 0.20108-0.06615 0.30956v0.11906h-0.26458v0.15081h0.26458v0.98425h0.18256v-0.98425h0.39423v-0.15081h-0.39423v-0.09525c0-0.08731-0.0026-0.17992 0.04233-0.25929 0.05027-0.08996 0.14552-0.13494 0.24342-0.13494 0.11642 0 0.21431 0.06086 0.26458 0.13758 0.0079 0.01323 0.0079 0.02117 0.0079 0.03175 0 0.01852 0.01323 0.02381 0.02117 0.02381l0.08731-0.17727c-0.08731-0.10319-0.2196-0.16404-0.37042-0.16404z"/>
   <path d="m14.625 28.935c-0.11112-0.12171-0.27252-0.18785-0.45244-0.18785-0.28046 0-0.46302 0.1561-0.46302 0.33602 0 0.21167 0.22754 0.2884 0.29369 0.31221 0.10319 0.03704 0.23548 0.06879 0.32544 0.11112 0.10054 0.04763 0.11906 0.11112 0.11906 0.15346 0 0.11377-0.13758 0.1905-0.30956 0.1905-0.20638 0-0.33867-0.12435-0.37835-0.16669-0.0079-0.01058-0.0079-0.01852-0.0079-0.0291 0-0.0026 0.0026-0.01852-0.01058-0.02381l-0.11112 0.18785c0.14288 0.13229 0.32808 0.19314 0.51064 0.19314 0.33073 0 0.50271-0.19579 0.50271-0.37835 0-0.08202-0.0344-0.19314-0.17727-0.27252-0.13494-0.07673-0.33073-0.10319-0.4445-0.15875-0.0979-0.04763-0.11906-0.10583-0.11906-0.14817 0-0.09525 0.11906-0.16404 0.254-0.16404 0.17462 0 0.29104 0.10583 0.33602 0.16669 0.0079 0.0079 0.0053 0.01587 0.0053 0.02381 0 0.01588 0.01058 0.02117 0.01587 0.02117z"/>
   <path d="m15.488 28.747c-0.2884 0-0.55562 0.20638-0.55562 0.64558 0 0.40481 0.25135 0.61912 0.57944 0.61912 0.17462 0 0.33073-0.0635 0.43392-0.18785l-0.10583-0.10319c-0.07673 0.08996-0.19314 0.13758-0.31221 0.13758-0.1614 0-0.39687-0.08996-0.4101-0.45244h0.85725c0.0079-0.08202 0.0053-0.1614-0.0079-0.23019-0.05556-0.32544-0.28046-0.42862-0.4789-0.42862zm-0.36512 0.51329c0.03969-0.28575 0.22225-0.36777 0.3519-0.36777 0.19579 0 0.33602 0.17198 0.31221 0.36777z"/>
   <path d="m16.626 28.451-0.02381 0.32544h-0.2884l-0.0026 0.1561h0.2831c-0.01587 0.20637-0.02381 0.41275-0.02381 0.61648 0 0.10848 0 0.23019 0.07144 0.33073 0.05821 0.07938 0.15081 0.127 0.27517 0.127 0.14288 0 0.2831-0.06085 0.38629-0.13494l-0.05821-0.15081c-0.10319 0.07673-0.19844 0.11112-0.27252 0.11112-0.08996 0-0.18256-0.05027-0.20373-0.19579 0-0.01058-0.0079-0.05556-0.0079-0.23283 0-0.1561 0.0079-0.31485 0.02381-0.47096h0.39687v-0.15875h-0.39423s0.01852-0.21696 0.03175-0.28575c0.0026-0.02646 0.02381-0.04233 0.01323-0.07144z"/>
  </g>
  <g opacity=".91" aria-label="Control bits">
   <path d="m33.794 26.866c-0.25665 0-0.62706 0.18785-0.62706 0.84931 0 0.635 0.35454 0.84137 0.62706 0.84137 0.19579 0 0.37835-0.10319 0.48154-0.27252l-0.13494-0.08731c-0.07673 0.12435-0.20902 0.19844-0.33602 0.19844-0.24342 0-0.45773-0.25135-0.45773-0.6985 0-0.43656 0.20902-0.68262 0.44185-0.68262 0.127 0 0.24871 0.07673 0.31485 0.19315 0.0053 0.0079 0.01058 0.01587 0.01058 0.02646 0 0.0079-0.0026 0.01323-0.0026 0.02117 0 0.0026 0 0.01587 0.01323 0.02381l0.17462-0.08467c-0.08731-0.19844-0.28575-0.32808-0.50535-0.32808z"/>
   <path d="m35.601 27.929c0-0.41804-0.26458-0.635-0.53975-0.635-0.30692 0-0.5715 0.26458-0.5715 0.64029 0 0.36777 0.26194 0.62706 0.56621 0.62706 0.28575 0 0.54504-0.23019 0.54504-0.63235zm-0.55298-0.4736c0.17462 0 0.35983 0.15081 0.35983 0.48154 0 0.30427-0.17462 0.45773-0.34925 0.45773-0.19314 0-0.36777-0.17992-0.36777-0.4789 0-0.29633 0.17198-0.46037 0.35719-0.46037z"/>
   <path d="m35.887 28.527h0.19315v-0.69585c0-0.07938 0.01058-0.14023 0.06085-0.20638 0.04498-0.06085 0.1614-0.16933 0.2884-0.16933 0.06085 0 0.12171 0.02646 0.16404 0.07673 0.06615 0.07937 0.06615 0.18256 0.06615 0.26723v0.7276h0.18785v-0.7329c0-0.0926 0-0.19314-0.04233-0.29104-0.06085-0.13494-0.18521-0.21167-0.32279-0.21167-0.16404 0-0.31221 0.10583-0.40217 0.24077v-0.21167h-0.19315z"/>
   <path d="m37.528 26.995-0.02381 0.32544h-0.2884l-0.0026 0.1561h0.2831c-0.01588 0.20637-0.02381 0.41275-0.02381 0.61648 0 0.10848 0 0.23019 0.07144 0.33073 0.05821 0.07938 0.15081 0.127 0.27517 0.127 0.14288 0 0.2831-0.06085 0.38629-0.13494l-0.05821-0.15081c-0.10319 0.07673-0.19844 0.11112-0.27252 0.11112-0.08996 0-0.18256-0.05027-0.20373-0.19579 0-0.01058-0.0079-0.05556-0.0079-0.23283 0-0.1561 0.0079-0.31485 0.02381-0.47096h0.39688v-0.15875h-0.39423s0.01852-0.21696 0.03175-0.28575c0.0026-0.02646 0.02381-0.04233 0.01323-0.07144z"/>
   <path d="m38.615 27.321v1.2091h0.1905v-0.58737c0-0.07408 0.0026-0.15346 0.08467-0.2831 0.11112-0.17462 0.254-0.20373 0.34131-0.20373 0.10054 0 0.16404 0.04763 0.19844 0.08996 0.01588 0.02117 0.02381 0.04233 0.04498 0.06085l0.08996-0.18256c-0.07673-0.07937-0.18785-0.13229-0.32279-0.13229-0.17727 0-0.35719 0.08996-0.43656 0.26194l0.0079-0.23283z"/>
   <path d="m40.893 27.929c0-0.41804-0.26458-0.635-0.53975-0.635-0.30692 0-0.5715 0.26458-0.5715 0.64029 0 0.36777 0.26194 0.62706 0.56621 0.62706 0.28575 0 0.54504-0.23019 0.54504-0.63235zm-0.55298-0.4736c0.17462 0 0.35983 0.15081 0.35983 0.48154 0 0.30427-0.17462 0.45773-0.34925 0.45773-0.19314 0-0.36777-0.17992-0.36777-0.4789 0-0.29633 0.17198-0.46037 0.35719-0.46037z"/>
   <path d="m41.221 26.771v0.15346h0.34396v1.4526h-0.35983v0.15081h0.90752v-0.15081h-0.35719v-1.606z"/>
   <path d="m43.801 26.768v1.7595h0.12435l0.06615-0.15875c0.07937 0.11906 0.21167 0.1905 0.35719 0.1905 0.24871 0 0.50535-0.21167 0.50535-0.65087 0-0.42069-0.24871-0.61648-0.48683-0.61648-0.15346 0-0.29633 0.08202-0.37306 0.21431v-0.67733c0-0.01587 0.0026-0.02117 0.01588-0.03175 0.0053-0.0026 0.01852-0.01323 0.01587-0.0291zm0.50006 0.68792c0.11377 0 0.35454 0.06615 0.35454 0.49477 0 0.36777-0.23812 0.43656-0.35719 0.43656-0.08202 0-0.26458-0.03175-0.29633-0.26458-0.0079-0.06085-0.0079-0.13229-0.0079-0.23812 0-0.10848 0.0053-0.18785 0.03175-0.254 0.04498-0.10848 0.1561-0.17462 0.27517-0.17462z"/>
   <path d="m45.248 27.318v0.1561h0.29104v0.90223h-0.30692v0.15081h0.78317v-0.15081h-0.2831v-1.0583zm0.39158-0.52387c-0.07673 0-0.13758 0.06085-0.13758 0.13494 0 0.07408 0.06085 0.13494 0.13758 0.13494 0.07673 0 0.13758-0.06085 0.13758-0.13494 0-0.07408-0.06085-0.13494-0.13758-0.13494z"/>
   <path d="m46.788 26.995-0.02381 0.32544h-0.2884l-0.0026 0.1561h0.2831c-0.01587 0.20637-0.02381 0.41275-0.02381 0.61648 0 0.10848 0 0.23019 0.07144 0.33073 0.05821 0.07938 0.15081 0.127 0.27517 0.127 0.14288 0 0.2831-0.06085 0.38629-0.13494l-0.05821-0.15081c-0.10319 0.07673-0.19844 0.11112-0.27252 0.11112-0.08996 0-0.18256-0.05027-0.20373-0.19579 0-0.01058-0.0079-0.05556-0.0079-0.23283 0-0.1561 0.0079-0.31485 0.02381-0.47096h0.39688v-0.15875h-0.39423s0.01852-0.21696 0.03175-0.28575c0.0026-0.02646 0.02381-0.04233 0.01323-0.07144z"/>
   <path d="m48.757 27.48c-0.11112-0.12171-0.27252-0.18785-0.45244-0.18785-0.28046 0-0.46302 0.1561-0.46302 0.33602 0 0.21167 0.22754 0.2884 0.29369 0.31221 0.10319 0.03704 0.23548 0.06879 0.32544 0.11112 0.10054 0.04763 0.11906 0.11112 0.11906 0.15346 0 0.11377-0.13758 0.1905-0.30956 0.1905-0.20637 0-0.33867-0.12435-0.37835-0.16669-0.0079-0.01058-0.0079-0.01852-0.0079-0.0291 0-0.0026 0.0026-0.01852-0.01058-0.02381l-0.11112 0.18785c0.14288 0.13229 0.32808 0.19314 0.51064 0.19314 0.33073 0 0.50271-0.19579 0.50271-0.37835 0-0.08202-0.0344-0.19315-0.17727-0.27252-0.13494-0.07673-0.33073-0.10319-0.4445-0.15875-0.0979-0.04763-0.11906-0.10583-0.11906-0.14817 0-0.09525 0.11906-0.16404 0.254-0.16404 0.17462 0 0.29104 0.10583 0.33602 0.16669 0.0079 0.0079 0.0053 0.01588 0.0053 0.02381 0 0.01588 0.01058 0.02117 0.01587 0.02117z"/>
  </g>
  <g opacity=".91" aria-label="Receive window">
   <path d="m58.669 26.484v2.3077h0.25929v-1.0186h0.4482l0.51118 1.0186h0.29263l-0.5334-1.0261c0.27781-0.07779 0.47043-0.34078 0.47043-0.64823 0-0.22966-0.11483-0.4482-0.32967-0.55563-0.14446-0.07408-0.28892-0.07779-0.4408-0.07779zm0.25929 0.24448h0.41857c0.09631 0 0.18891 0.0037 0.28522 0.04815 0.14446 0.07408 0.21855 0.22225 0.21855 0.37042s-0.07038 0.28522-0.20373 0.3519c-0.0889 0.04445-0.1778 0.04815-0.2704 0.04815h-0.4482z"/>
   <path d="m61.269 27.062c-0.40375 0-0.77788 0.28892-0.77788 0.90382 0 0.56674 0.3519 0.86678 0.81121 0.86678 0.24448 0 0.46302-0.0889 0.60748-0.263l-0.14817-0.14446c-0.10742 0.12594-0.2704 0.19262-0.43709 0.19262-0.22595 0-0.55563-0.12594-0.57415-0.63341h1.2002c0.01111-0.11483 0.0074-0.22596-0.01111-0.32226-0.07779-0.45561-0.39264-0.60008-0.67046-0.60008zm-0.51118 0.71861c0.05556-0.40005 0.31115-0.51488 0.49266-0.51488 0.27411 0 0.47043 0.24077 0.43709 0.51488z"/>
   <path d="m63.855 27.381c-0.13335-0.19632-0.3593-0.31486-0.63341-0.31486-0.49636 0-0.84826 0.37412-0.84826 0.88159 0 0.51118 0.3519 0.889 0.83344 0.889 0.23336 0 0.46302-0.09631 0.6223-0.2704l-0.15187-0.1778c-0.11483 0.12965-0.28152 0.20373-0.4482 0.20373-0.32967 0-0.58155-0.27411-0.58155-0.67045 0-0.38523 0.24818-0.626 0.55933-0.626 0.28893 0 0.42598 0.20002 0.43709 0.22225 0.01482 0.02593-0.0074 0.06297 0.02222 0.0852z"/>
   <path d="m64.973 27.062c-0.40375 0-0.77788 0.28892-0.77788 0.90382 0 0.56674 0.3519 0.86678 0.81121 0.86678 0.24448 0 0.46302-0.0889 0.60748-0.263l-0.14817-0.14446c-0.10742 0.12594-0.2704 0.19262-0.43709 0.19262-0.22596 0-0.55563-0.12594-0.57415-0.63341h1.2002c0.01111-0.11483 0.0074-0.22596-0.01111-0.32226-0.07779-0.45561-0.39264-0.60008-0.67046-0.60008zm-0.51118 0.71861c0.05556-0.40005 0.31115-0.51488 0.49265-0.51488 0.27411 0 0.47043 0.24077 0.43709 0.51488z"/>
   <path d="m66.262 27.099v0.21855h0.40746v1.2631h-0.42968v0.21114h1.0964v-0.21114h-0.39635v-1.4817zm0.54822-0.73343c-0.10742 0-0.19262 0.0852-0.19262 0.18891 0 0.10372 0.0852 0.18891 0.19262 0.18891 0.10742 0 0.19262-0.0852 0.19262-0.18891 0-0.10372-0.0852-0.18891-0.19262-0.18891z"/>
   <path d="m67.866 27.099 0.67046 1.7076h0.21114l0.41116-0.96679c0.10001-0.23707 0.19632-0.48154 0.25188-0.74083h-0.24077c-0.04445 0.24818-0.13335 0.48154-0.22966 0.70379l-0.2704 0.62971-0.48895-1.2372c-0.0037-0.0074-0.0074-0.01482-0.0074-0.02222 0-0.02223 0.01852-0.04445 0.01111-0.07408z"/>
   <path d="m70.53 27.062c-0.40375 0-0.77788 0.28892-0.77788 0.90382 0 0.56674 0.3519 0.86678 0.81121 0.86678 0.24448 0 0.46302-0.0889 0.60748-0.263l-0.14817-0.14446c-0.10742 0.12594-0.2704 0.19262-0.43709 0.19262-0.22596 0-0.55563-0.12594-0.57415-0.63341h1.2002c0.01111-0.11483 0.0074-0.22596-0.01111-0.32226-0.07779-0.45561-0.39264-0.60008-0.67046-0.60008zm-0.51118 0.71861c0.05556-0.40005 0.31115-0.51488 0.49265-0.51488 0.27411 0 0.47043 0.24077 0.43709 0.51488z"/>
   <path d="m73.334 27.099 0.34078 1.6965h0.24077l0.29633-1.0964 0.31486 1.0964h0.24818c0.11483-0.55933 0.21114-1.1261 0.28152-1.6928h-0.24448c0.0074 0.20373-0.01111 0.39264-0.15928 1.3557l-0.3556-1.2002h-0.16298l-0.29263 1.2039-0.24448-1.2224c-0.0074-0.02593-0.0074-0.03704 0.0037-0.06668 0.0037-0.01852 0.01482-0.04445 0.0037-0.07408z"/>
   <path d="m75.523 27.099v0.21855h0.40746v1.2631h-0.42968v0.21114h1.0964v-0.21114h-0.39635v-1.4817zm0.54822-0.73343c-0.10742 0-0.19262 0.0852-0.19262 0.18891 0 0.10372 0.0852 0.18891 0.19262 0.18891 0.10742 0 0.19262-0.0852 0.19262-0.18891 0-0.10372-0.0852-0.18891-0.19262-0.18891z"/>
   <path d="m77.234 28.792h0.2704v-0.9742c0-0.11112 0.01482-0.19632 0.0852-0.28892 0.06297-0.0852 0.22595-0.23707 0.40375-0.23707 0.0852 0 0.17039 0.03704 0.22966 0.10742 0.0926 0.11112 0.0926 0.25559 0.0926 0.37412v1.0186h0.263v-1.0261c0-0.12964 0-0.2704-0.05927-0.40746-0.0852-0.18891-0.25929-0.29633-0.45191-0.29633-0.22966 0-0.43709 0.14817-0.56303 0.33708v-0.29633h-0.2704z"/>
   <path d="m80.209 27.347c-0.08149-0.1741-0.263-0.28892-0.49636-0.28892-0.32226 0-0.7149 0.22966-0.7149 0.87418 0 0.626 0.34819 0.90011 0.67416 0.90011 0.21484 0 0.41487-0.12224 0.52229-0.31115v0.14817c0 0.04075 0.0037 0.08149 0.01482 0.12224h0.2667c-0.01482-0.04816-0.01482-0.10372-0.01482-0.15558l-0.0037-2.2003c0-0.02222 0-0.02963 0.01482-0.05186 0.0074-0.01111 0.02222-0.02963 0.01852-0.05556h-0.28152zm-0.48525-0.07038c0.14817 0 0.36671 0.07779 0.43339 0.32967 0.02223 0.07779 0.02963 0.17039 0.02963 0.3593 0 0.12965-0.0074 0.22225-0.03704 0.31115-0.06297 0.20002-0.24077 0.31856-0.41487 0.31856-0.19262 0-0.47784-0.14817-0.47784-0.70379 0-0.48525 0.2704-0.61489 0.46673-0.61489z"/>
   <path d="m82.39 27.955c0-0.58526-0.37042-0.889-0.75565-0.889-0.42968 0-0.8001 0.37042-0.8001 0.89641 0 0.51488 0.36671 0.87789 0.79269 0.87789 0.40005 0 0.76306-0.32226 0.76306-0.8853zm-0.77417-0.66305c0.24448 0 0.50377 0.21114 0.50377 0.67416 0 0.42598-0.24448 0.64082-0.48895 0.64082-0.2704 0-0.51488-0.25188-0.51488-0.67046 0-0.41487 0.24077-0.64452 0.50006-0.64452z"/>
   <path d="m82.594 27.099 0.34078 1.6965h0.24077l0.29633-1.0964 0.31485 1.0964h0.24818c0.11483-0.55933 0.21114-1.1261 0.28152-1.6928h-0.24448c0.0074 0.20373-0.01111 0.39264-0.15928 1.3557l-0.3556-1.2002h-0.16298l-0.29263 1.2039-0.24448-1.2224c-0.0074-0.02593-0.0074-0.03704 0.0037-0.06668 0.0037-0.01852 0.01482-0.04445 0.0037-0.07408z"/>
  </g>
  <g opacity=".91" aria-label="Urgent pointer">
   <path d="m58.647 31.776v1.515c0 0.16298 0.0037 0.31856 0.0889 0.47784 0.12594 0.23707 0.38523 0.3593 0.65564 0.3593 0.2667 0 0.52599-0.11853 0.65564-0.36301 0.0889-0.15928 0.0926-0.31856 0.0926-0.48895v-1.5002h-0.24448v1.5076c0 0.11853-0.0037 0.23336-0.05927 0.3519-0.0852 0.1778-0.25929 0.2704-0.4408 0.2704-0.1815 0-0.3556-0.09631-0.43709-0.27411-0.05556-0.11112-0.05556-0.22595-0.05556-0.34078v-1.3965c0-0.01482 0-0.02963 0.01482-0.04815 0.0074-0.01111 0.02223-0.02963 0.02223-0.05186 0-0.0037 0-0.01111-0.0037-0.01852z"/>
   <path d="m60.68 32.395v1.6928h0.2667v-0.82233c0-0.10372 0.0037-0.21484 0.11853-0.39635 0.15558-0.24448 0.3556-0.28522 0.47784-0.28522 0.14076 0 0.22966 0.06667 0.27781 0.12594 0.02222 0.02963 0.03334 0.05927 0.06297 0.0852l0.12594-0.25559c-0.10742-0.11112-0.263-0.18521-0.45191-0.18521-0.24818 0-0.50006 0.12594-0.61119 0.36671l0.01111-0.32597z"/>
   <path d="m62.629 32.921c0-0.20373 0.17039-0.37042 0.37412-0.37042 0.20743 0 0.37412 0.16669 0.37412 0.37042 0 0.20373-0.16669 0.37042-0.37412 0.37042s-0.37412-0.16669-0.37412-0.37042zm0.38894-0.58155c-0.33708 0-0.62971 0.2667-0.62971 0.59637 0 0.18521 0.0926 0.3593 0.24818 0.45932-0.12224 0.10372-0.19262 0.21855-0.19262 0.32597 0 0.07038 0.02963 0.17039 0.13706 0.22596-0.1815 0.11483-0.27411 0.24077-0.27411 0.37412 0 0.18521 0.17039 0.40375 0.76306 0.40375 0.57415 0 0.78158-0.29263 0.78158-0.51858 0-0.14817-0.0852-0.29633-0.263-0.36671-0.1778-0.07408-0.38153-0.04816-0.57415-0.04816-0.12594 0-0.20743-0.01111-0.24077-0.02222-0.06668-0.01852-0.10372-0.05927-0.10372-0.11112 0-0.0889 0.10372-0.1741 0.12224-0.18891 0.06667 0.02593 0.14076 0.03704 0.21484 0.03704 0.33338 0 0.60748-0.2667 0.60748-0.57785 0-0.10372-0.02963-0.20373-0.0852-0.28893 0.0889-0.05186 0.19262-0.08149 0.29633-0.08149 0.03334 0 0.06297 0.0037 0.09631 0.01111l-0.02963-0.21855c-0.17039-0.01482-0.34078 0.04075-0.47043 0.14817-0.10742-0.10372-0.24818-0.15928-0.40375-0.15928zm-0.25559 1.6558c0.06297 0.0074 0.15187 0.01482 0.28152 0.02222 0.12594 0.0037 0.263-0.0074 0.3593 0.0074 0.15558 0.02593 0.20373 0.12224 0.20373 0.19632 0 0.07408-0.04445 0.16298-0.15928 0.22595-0.12594 0.06668-0.2667 0.07408-0.38153 0.07408-0.07779 0-0.22225-0.0037-0.34819-0.05556-0.13705-0.05556-0.16669-0.14817-0.16669-0.20743 0-0.12224 0.11483-0.21114 0.21114-0.263z"/>
   <path d="m64.973 32.354c-0.40375 0-0.77788 0.28893-0.77788 0.90382 0 0.56674 0.3519 0.86678 0.81121 0.86678 0.24448 0 0.46302-0.0889 0.60748-0.263l-0.14817-0.14446c-0.10742 0.12594-0.2704 0.19262-0.43709 0.19262-0.22596 0-0.55563-0.12594-0.57415-0.63341h1.2002c0.01111-0.11483 0.0074-0.22596-0.01111-0.32226-0.07779-0.45561-0.39264-0.60008-0.67046-0.60008zm-0.51118 0.71861c0.05556-0.40005 0.31115-0.51488 0.49265-0.51488 0.27411 0 0.47043 0.24077 0.43709 0.51488z"/>
   <path d="m66.122 34.084h0.2704v-0.9742c0-0.11112 0.01482-0.19632 0.08519-0.28892 0.06297-0.0852 0.22596-0.23707 0.40376-0.23707 0.0852 0 0.17039 0.03704 0.22966 0.10742 0.0926 0.11112 0.0926 0.25559 0.0926 0.37412v1.0186h0.263v-1.0261c0-0.12965 0-0.2704-0.05927-0.40746-0.0852-0.18891-0.25929-0.29633-0.45191-0.29633-0.22966 0-0.43709 0.14817-0.56303 0.33708v-0.29633h-0.2704z"/>
   <path d="m68.418 31.939-0.03334 0.45561h-0.40376l-0.0037 0.21855h0.39635c-0.02223 0.28893-0.03334 0.57785-0.03334 0.86307 0 0.15187 0 0.32226 0.10001 0.46302 0.08149 0.11112 0.21114 0.1778 0.38523 0.1778 0.20002 0 0.39635-0.0852 0.54081-0.18891l-0.08149-0.21114c-0.14446 0.10742-0.27781 0.15558-0.38153 0.15558-0.12594 0-0.25559-0.07038-0.28522-0.27411 0-0.01482-0.01111-0.07779-0.01111-0.32597 0-0.21855 0.01111-0.4408 0.03334-0.65934h0.55563v-0.22225h-0.55192s0.02593-0.30374 0.04445-0.40005c0.0037-0.03704 0.03334-0.05927 0.01852-0.10001z"/>
   <path d="m71.645 32.395 0.0037 2.3077h0.2704v-0.84085c0.11483 0.16669 0.30374 0.2704 0.50747 0.2704 0.34819 0 0.7112-0.29263 0.7112-0.91123 0-0.59637-0.3519-0.86307-0.68527-0.86307-0.21855 0-0.42228 0.11112-0.5371 0.29633v-0.25929zm0.7075 0.18891c0.14817 0 0.50747 0.07779 0.50747 0.69268 0 0.5334-0.34819 0.6186-0.50747 0.6186s-0.32226-0.08149-0.38894-0.23336c-0.04815-0.11483-0.04815-0.25559-0.04815-0.50006 0-0.14076 0.0074-0.24448 0.04445-0.33338 0.06668-0.15187 0.22225-0.24448 0.39264-0.24448z"/>
   <path d="m74.982 33.246c0-0.58526-0.37042-0.889-0.75565-0.889-0.42968 0-0.8001 0.37042-0.8001 0.89641 0 0.51488 0.36671 0.87789 0.79269 0.87789 0.40005 0 0.76306-0.32226 0.76306-0.8853zm-0.77417-0.66305c0.24448 0 0.50377 0.21114 0.50377 0.67416 0 0.42598-0.24448 0.64082-0.48895 0.64082-0.2704 0-0.51488-0.25188-0.51488-0.67045 0-0.41487 0.24077-0.64453 0.50006-0.64453z"/>
   <path d="m75.523 32.391v0.21855h0.40746v1.2631h-0.42968v0.21114h1.0964v-0.21114h-0.39635v-1.4817zm0.54822-0.73343c-0.10742 0-0.19262 0.0852-0.19262 0.18891 0 0.10372 0.0852 0.18891 0.19262 0.18891 0.10742 0 0.19262-0.0852 0.19262-0.18891 0-0.10372-0.0852-0.18891-0.19262-0.18891z"/>
   <path d="m77.234 34.084h0.2704v-0.9742c0-0.11112 0.01482-0.19632 0.0852-0.28892 0.06297-0.0852 0.22595-0.23707 0.40375-0.23707 0.0852 0 0.17039 0.03704 0.22966 0.10742 0.0926 0.11112 0.0926 0.25559 0.0926 0.37412v1.0186h0.263v-1.0261c0-0.12965 0-0.2704-0.05927-0.40746-0.0852-0.18891-0.25929-0.29633-0.45191-0.29633-0.22966 0-0.43709 0.14817-0.56303 0.33708v-0.29633h-0.2704z"/>
   <path d="m79.531 31.939-0.03334 0.45561h-0.40375l-0.0037 0.21855h0.39635c-0.02223 0.28893-0.03334 0.57785-0.03334 0.86307 0 0.15187 0 0.32226 0.10001 0.46302 0.08149 0.11112 0.21114 0.1778 0.38523 0.1778 0.20002 0 0.39635-0.0852 0.54081-0.18891l-0.08149-0.21114c-0.14446 0.10742-0.27781 0.15558-0.38153 0.15558-0.12594 0-0.25559-0.07038-0.28522-0.27411 0-0.01482-0.01111-0.07779-0.01111-0.32597 0-0.21855 0.01111-0.4408 0.03334-0.65934h0.55563v-0.22225h-0.55192s0.02593-0.30374 0.04445-0.40005c0.0037-0.03704 0.03334-0.05927 0.01852-0.10001z"/>
   <path d="m81.642 32.354c-0.40376 0-0.77788 0.28893-0.77788 0.90382 0 0.56674 0.3519 0.86678 0.81121 0.86678 0.24448 0 0.46302-0.0889 0.60748-0.263l-0.14817-0.14446c-0.10742 0.12594-0.2704 0.19262-0.43709 0.19262-0.22595 0-0.55562-0.12594-0.57415-0.63341h1.2002c0.01111-0.11483 0.0074-0.22596-0.01111-0.32226-0.07779-0.45561-0.39264-0.60008-0.67046-0.60008zm-0.51118 0.71861c0.05556-0.40005 0.31115-0.51488 0.49266-0.51488 0.27411 0 0.47043 0.24077 0.43709 0.51488z"/>
   <path d="m82.905 32.395v1.6928h0.2667v-0.82233c0-0.10372 0.0037-0.21484 0.11853-0.39635 0.15558-0.24448 0.3556-0.28522 0.47784-0.28522 0.14076 0 0.22966 0.06667 0.27781 0.12594 0.02222 0.02963 0.03334 0.05927 0.06297 0.0852l0.12594-0.25559c-0.10742-0.11112-0.263-0.18521-0.45191-0.18521-0.24818 0-0.50006 0.12594-0.61119 0.36671l0.01111-0.32597z"/>
  </g>
  <g opacity=".91" aria-label="Checksum">
   <path d="m22.71 31.757c-0.3593 0-0.87789 0.263-0.87789 1.189 0 0.889 0.49636 1.1779 0.87789 1.1779 0.27411 0 0.5297-0.14446 0.67416-0.38153l-0.18891-0.12224c-0.10742 0.1741-0.29263 0.27781-0.47043 0.27781-0.34078 0-0.64082-0.3519-0.64082-0.9779 0-0.61119 0.29263-0.95568 0.6186-0.95568 0.1778 0 0.34819 0.10742 0.4408 0.2704 0.0074 0.01111 0.01482 0.02222 0.01482 0.03704 0 0.01111-0.0037 0.01852-0.0037 0.02963 0 0.0037 0 0.02222 0.01852 0.03334l0.24448-0.11853c-0.12224-0.27781-0.40005-0.45932-0.7075-0.45932z"/>
   <path d="m23.792 34.084h0.27411v-0.9742c0-0.11112 0.01111-0.19632 0.08149-0.28892 0.06668-0.0852 0.22966-0.23707 0.40746-0.23707 0.0852 0 0.17039 0.03704 0.22966 0.10742 0.0926 0.11112 0.0926 0.25559 0.0926 0.37412v1.0186h0.263v-1.0261c0-0.12965-0.0037-0.2704-0.06297-0.40746-0.0852-0.18891-0.25559-0.29633-0.4482-0.29633-0.22966 0-0.4408 0.14817-0.56303 0.33708v-0.9816c0-0.01111 0-0.02222 0.01111-0.03334 0.01111-0.01111 0.02593-0.02222 0.02593-0.04075 0-0.0037 0-0.0074-0.0037-0.01111h-0.30745z"/>
   <path d="m26.344 32.354c-0.40375 0-0.77788 0.28893-0.77788 0.90382 0 0.56674 0.3519 0.86678 0.81121 0.86678 0.24448 0 0.46302-0.0889 0.60748-0.263l-0.14817-0.14446c-0.10742 0.12594-0.2704 0.19262-0.43709 0.19262-0.22596 0-0.55563-0.12594-0.57415-0.63341h1.2002c0.01111-0.11483 0.0074-0.22596-0.01111-0.32226-0.07779-0.45561-0.39264-0.60008-0.67046-0.60008zm-0.51118 0.71861c0.05556-0.40005 0.31115-0.51488 0.49265-0.51488 0.27411 0 0.47043 0.24077 0.43709 0.51488z"/>
   <path d="m28.93 32.672c-0.13335-0.19632-0.3593-0.31485-0.63341-0.31485-0.49636 0-0.84826 0.37412-0.84826 0.88159 0 0.51118 0.3519 0.889 0.83344 0.889 0.23336 0 0.46302-0.09631 0.6223-0.2704l-0.15187-0.1778c-0.11483 0.12965-0.28152 0.20373-0.4482 0.20373-0.32967 0-0.58156-0.27411-0.58156-0.67046 0-0.38523 0.24818-0.626 0.55933-0.626 0.28892 0 0.42598 0.20002 0.43709 0.22225 0.01482 0.02593-0.0074 0.06297 0.02222 0.0852z"/>
   <path d="m29.337 31.624v2.4633h0.2667v-0.64082l0.22595-0.20743 0.68898 0.86307s0.14446-0.01482 0.31856-0.01482h0.02593l-0.82973-1.0112 0.7149-0.67046h-0.09631c-0.06668 0-0.13335-0.0037-0.20002-0.02222l-0.84825 0.78899v-1.452c0-0.01482 0.0037-0.02593 0.01482-0.04445 0.01111-0.01111 0.02593-0.02593 0.02223-0.05186z"/>
   <path d="m32.545 32.617c-0.15558-0.17039-0.38153-0.263-0.63341-0.263-0.39264 0-0.64823 0.21855-0.64823 0.47043 0 0.29633 0.31856 0.40376 0.41116 0.43709 0.14446 0.05186 0.32967 0.09631 0.45561 0.15558 0.14076 0.06668 0.16669 0.15558 0.16669 0.21484 0 0.15928-0.19262 0.2667-0.43339 0.2667-0.28892 0-0.47413-0.1741-0.5297-0.23336-0.01111-0.01482-0.01111-0.02593-0.01111-0.04075 0-0.0037 0.0037-0.02593-0.01482-0.03334l-0.15558 0.263c0.20002 0.18521 0.45932 0.2704 0.7149 0.2704 0.46302 0 0.70379-0.27411 0.70379-0.5297 0-0.11483-0.04816-0.2704-0.24818-0.38153-0.18891-0.10742-0.46302-0.14446-0.6223-0.22225-0.13706-0.06667-0.16669-0.14817-0.16669-0.20743 0-0.13335 0.16669-0.22966 0.3556-0.22966 0.24448 0 0.40746 0.14817 0.47043 0.23336 0.01111 0.01111 0.0074 0.02222 0.0074 0.03334 0 0.02222 0.01482 0.02963 0.02222 0.02963z"/>
   <path d="m33.027 32.395v0.94456c0 0.14446 0 0.29263 0.06668 0.4445 0.09631 0.22225 0.30374 0.34449 0.52599 0.34449 0.21114 0 0.41116-0.11483 0.52229-0.30004l-0.0037 0.12594c0 0.04445 0 0.0889 0.0074 0.12965h0.28152c-0.01852-0.04815-0.02222-0.10372-0.02222-0.15187v-1.5372h-0.2667v0.92975c0 0.12965-0.01111 0.22966-0.06668 0.33338-0.07779 0.14446-0.22966 0.25188-0.39264 0.25188-0.12965 0-0.25559-0.07408-0.32226-0.20743-0.05927-0.11853-0.05927-0.25188-0.05927-0.36301v-0.94456z"/>
   <path d="m34.786 34.084h0.24448v-1.1261c0-0.08149 0.0074-0.15558 0.05556-0.24448 0.05927-0.11112 0.13335-0.15558 0.20373-0.15558 0.05927 0 0.12594 0.03704 0.15558 0.12965 0.02222 0.07038 0.01852 0.15187 0.01852 0.22225v1.1742h0.24818v-1.1187c0-0.0889 0.0074-0.15928 0.07038-0.2667 0.02963-0.04445 0.09261-0.15187 0.19632-0.15187 0.05556 0 0.10742 0.03334 0.13335 0.09631 0.03334 0.07038 0.02593 0.16669 0.02593 0.24448v1.2002h0.25188v-1.2039c0-0.14076 0.0037-0.28152-0.07038-0.39635-0.06297-0.09631-0.17039-0.13335-0.263-0.13335-0.16298 0-0.31486 0.09631-0.38153 0.24448-0.02593-0.14076-0.14446-0.24448-0.29633-0.24448-0.14076 0-0.2704 0.0889-0.34819 0.20743l0.0037-0.16669h-0.24818z"/>
  </g>
  <g opacity=".91" aria-label="Options">
   <path d="m45.522 38.227c0-0.21484-0.01482-0.50006-0.14076-0.74824-0.15187-0.29633-0.41487-0.43339-0.66675-0.43339-0.34449 0-0.82973 0.2667-0.82973 1.1742 0 0.90752 0.47784 1.1927 0.83344 1.1927 0.24818 0 0.51488-0.14076 0.66675-0.4482 0.12224-0.24818 0.13705-0.5334 0.13705-0.73713zm-0.81862-0.94086c0.16298 0 0.36301 0.09631 0.47043 0.36671 0.07779 0.19262 0.0889 0.41487 0.0889 0.60748 0 0.15187-0.0074 0.38894-0.10372 0.58526-0.10742 0.22596-0.28522 0.31486-0.4408 0.31486-0.25929 0-0.57785-0.24077-0.57785-0.9742 0-0.68898 0.32226-0.90011 0.56303-0.90011z"/>
   <path d="m45.848 37.686 0.0037 2.3077h0.2704v-0.84085c0.11483 0.16669 0.30374 0.2704 0.50747 0.2704 0.34819 0 0.7112-0.29263 0.7112-0.91123 0-0.59637-0.3519-0.86307-0.68527-0.86307-0.21855 0-0.42228 0.11112-0.5371 0.29633v-0.25929zm0.7075 0.18891c0.14817 0 0.50747 0.07779 0.50747 0.69268 0 0.5334-0.34819 0.6186-0.50747 0.6186-0.15928 0-0.32226-0.08149-0.38894-0.23336-0.04816-0.11483-0.04816-0.25559-0.04816-0.50006 0-0.14076 0.0074-0.24448 0.04445-0.33338 0.06667-0.15187 0.22225-0.24448 0.39264-0.24448z"/>
   <path d="m48.178 37.231-0.03334 0.45561h-0.40375l-0.0037 0.21855h0.39635c-0.02222 0.28892-0.03334 0.57785-0.03334 0.86307 0 0.15187 0 0.32226 0.10001 0.46302 0.08149 0.11112 0.21114 0.1778 0.38523 0.1778 0.20002 0 0.39635-0.0852 0.54081-0.18891l-0.08149-0.21114c-0.14446 0.10742-0.27781 0.15558-0.38153 0.15558-0.12594 0-0.25559-0.07038-0.28522-0.27411 0-0.01482-0.01111-0.07779-0.01111-0.32597 0-0.21855 0.01111-0.4408 0.03334-0.65934h0.55563v-0.22225h-0.55193s0.02593-0.30374 0.04445-0.40005c0.0037-0.03704 0.03334-0.05927 0.01852-0.10001z"/>
   <path d="m49.726 37.682v0.21855h0.40746v1.2631h-0.42968v0.21114h1.0964v-0.21114h-0.39635v-1.4817zm0.54822-0.73343c-0.10742 0-0.19262 0.0852-0.19262 0.18891 0 0.10372 0.0852 0.18891 0.19262 0.18891 0.10742 0 0.19262-0.0852 0.19262-0.18891 0-0.10372-0.0852-0.18891-0.19262-0.18891z"/>
   <path d="m52.889 38.538c0-0.58526-0.37042-0.889-0.75565-0.889-0.42968 0-0.8001 0.37042-0.8001 0.89641 0 0.51488 0.36671 0.87789 0.79269 0.87789 0.40005 0 0.76306-0.32226 0.76306-0.8853zm-0.77417-0.66305c0.24448 0 0.50377 0.21114 0.50377 0.67416 0 0.42598-0.24448 0.64082-0.48895 0.64082-0.2704 0-0.51488-0.25188-0.51488-0.67046 0-0.41487 0.24077-0.64452 0.50006-0.64452z"/>
   <path d="m53.289 39.375h0.2704v-0.9742c0-0.11112 0.01482-0.19632 0.08519-0.28892 0.06297-0.0852 0.22596-0.23707 0.40376-0.23707 0.0852 0 0.17039 0.03704 0.22966 0.10742 0.09261 0.11112 0.09261 0.25559 0.09261 0.37412v1.0186h0.263v-1.0261c0-0.12964 0-0.2704-0.05927-0.40746-0.0852-0.18891-0.25929-0.29633-0.45191-0.29633-0.22966 0-0.43709 0.14817-0.56303 0.33708v-0.29633h-0.2704z"/>
   <path d="m56.49 37.908c-0.15558-0.17039-0.38153-0.263-0.63341-0.263-0.39264 0-0.64823 0.21855-0.64823 0.47043 0 0.29633 0.31856 0.40375 0.41116 0.43709 0.14446 0.05186 0.32967 0.09631 0.45561 0.15558 0.14076 0.06667 0.16669 0.15558 0.16669 0.21484 0 0.15928-0.19262 0.2667-0.43339 0.2667-0.28892 0-0.47413-0.1741-0.5297-0.23336-0.01111-0.01482-0.01111-0.02593-0.01111-0.04075 0-0.0037 0.0037-0.02593-0.01482-0.03334l-0.15558 0.263c0.20002 0.18521 0.45932 0.2704 0.7149 0.2704 0.46302 0 0.70379-0.27411 0.70379-0.5297 0-0.11483-0.04815-0.2704-0.24818-0.38153-0.18891-0.10742-0.46302-0.14446-0.6223-0.22225-0.13705-0.06668-0.16669-0.14817-0.16669-0.20743 0-0.13335 0.16669-0.22966 0.3556-0.22966 0.24448 0 0.40746 0.14817 0.47043 0.23336 0.01111 0.01111 0.0074 0.02223 0.0074 0.03334 0 0.02222 0.01482 0.02963 0.02222 0.02963z"/>
  </g>
 </g>
</svg>
