<?xml version="1.0" encoding="UTF-8"?>
<svg width="639.79" height="277.35" version="1.1" viewBox="0 0 169.28 73.384" xmlns="http://www.w3.org/2000/svg" xmlns:cc="http://creativecommons.org/ns#" xmlns:dc="http://purl.org/dc/elements/1.1/" xmlns:rdf="http://www.w3.org/1999/02/22-rdf-syntax-ns#">
 <metadata>
  <rdf:RDF>
   <cc:Work rdf:about="">
    <dc:format>image/svg+xml</dc:format>
    <dc:type rdf:resource="http://purl.org/dc/dcmitype/StillImage"/>
    <dc:title/>
   </cc:Work>
  </rdf:RDF>
 </metadata>
 <g transform="translate(-38.833 8.8289)">
  <g transform="matrix(7.2628 0 0 7.2628 -645.38 -707.95)" stroke-dashoffset="1.2" stroke-linecap="square" stroke-width=".13769">
   <rect x="94.208" y="96.454" width="23.308" height="9.7115" fill="#1d232d" style="paint-order:normal"/>
   <g fill="#7b8694">
    <path d="m94.596 96.26h1.1654v0.19408h-1.1654z"/>
    <path d="m96.538 96.26h1.1654v0.19408h-1.1654z"/>
    <path d="m98.481 96.26h1.1654v0.19408h-1.1654z"/>
    <path d="m100.42 96.26h1.1654v0.19408h-1.1654z"/>
    <path d="m102.37 96.26h1.1654v0.19408h-1.1654z"/>
    <path d="m104.31 96.26h1.1654v0.19408h-1.1654z"/>
    <path d="m106.25 96.26h1.1654v0.19408h-1.1654z"/>
    <path d="m108.19 96.26h1.1654v0.19408h-1.1654z"/>
    <path d="m110.13 96.26h1.1654v0.19408h-1.1654z"/>
    <path d="m112.08 96.26h1.1654v0.19408h-1.1654z"/>
    <path d="m114.02 96.26h1.1654v0.19408h-1.1654z"/>
    <path d="m115.96 96.26h1.1654v0.19408h-1.1654z"/>
    <path d="m115.96 106.17h1.1654v0.19405h-1.1654z"/>
    <path d="m114.02 106.17h1.1654v0.19405h-1.1654z"/>
    <path d="m112.08 106.17h1.1654v0.19405h-1.1654z"/>
    <path d="m110.13 106.17h1.1654v0.19405h-1.1654z"/>
    <path d="m108.19 106.17h1.1654v0.19405h-1.1654z"/>
    <path d="m106.25 106.17h1.1654v0.19405h-1.1654z"/>
    <path d="m104.31 106.17h1.1654v0.19405h-1.1654z"/>
    <path d="m102.37 106.17h1.1654v0.19405h-1.1654z"/>
    <path d="m100.42 106.17h1.1654v0.19405h-1.1654z"/>
    <path d="m98.481 106.17h1.1654v0.19405h-1.1654z"/>
    <path d="m96.538 106.17h1.1654v0.19405h-1.1654z"/>
    <path d="m94.596 106.17h1.1654v0.19405h-1.1654z"/>
   </g>
  </g>
  <path d="m123.64 19.437c-2.2707 0.03155-4.5099 0.94301-6.1423 2.5729-0.31496 0.31462-0.72302 0.77732-0.90592 1.0298h-3e-3c-0.15018 0.20744-0.24777 0.32192-0.30503 0.37749a8.9204 8.9204 0 0 0-0.912 1.7998c-0.0234 0.11085-0.0292 0.17449-0.0877 0.3533-0.59183 1.8262-0.57208 3.8509 0.0526 5.6561 0.1233 0.35365 0.23316 0.69359 0.25654 0.75495 7.6e-4 0.0024-6e-3 0.0064-6e-3 0.0093a8.9204 8.9204 0 0 0 1.0298 1.7394c0.0912 0.09034 0.1531 0.14369 0.29919 0.31707 2.1944 2.6107 5.7201 3.7568 8.9809 2.9202 1.7722-0.45469 3.4819-1.5306 4.5992-2.893l0.43184-0.52545 0.0117 0.0058a8.9204 8.9204 0 0 0 0.93613-1.6307c0.0234-0.11862 0.0409-0.21937 0.12388-0.43786 0.75008-1.999 0.77685-4.0963 0.0783-6.0759-0.0912-0.25963-0.12388-0.40671-0.142-0.51038a8.9204 8.9204 0 0 0-1.0509-1.8481c-0.0976-0.10448-0.16537-0.16368-0.32023-0.35938-1.1155-1.4137-2.8475-2.5193-4.6686-2.9866-0.74242-0.1905-1.5019-0.27926-2.2588-0.26874zm0.12681 1.682c0.52182 0 1.163 0.96248 1.6427 2.4732 0.12739 0.39946 0.22965 0.73908 0.22965 0.75194 0 0.01286-0.8649 0.02104-1.9206 0.02104h-1.9176l0.12973-0.44995c0.51657-1.7837 1.1813-2.7964 1.8361-2.7964zm2.7178 0.53755c0.0175-0.01578 0.20803 0.06223 0.42599 0.17215 1.3984 0.70426 2.584 1.8893 3.2826 3.2856 0.10694 0.21352 0.19342 0.40659 0.19342 0.4288 0 0.06229-0.0771 0.03857-0.6311-0.19628-0.28575-0.12114-0.93386-0.32776-1.4405-0.45901l-0.921-0.23853-0.24134-0.94218c-0.13265-0.51727-0.3436-1.1822-0.46807-1.4797-0.12446-0.29755-0.21679-0.55496-0.19926-0.57074zm-5.5474 3e-3c0.0175 0.01636-0.10051 0.37685-0.25945 0.80327-0.15895 0.4264-0.36347 1.0979-0.45288 1.4918l-0.16303 0.7157-0.60399 0.12984c-0.3325 0.07147-0.95472 0.25735-1.383 0.41068-0.42833 0.15333-0.83709 0.30182-0.90896 0.3322-0.11863 0.04967-0.12272 0.03331-0.0526-0.15702 0.38041-1.0112 1.5665-2.4078 2.6303-3.0953 0.58564-0.37849 1.1519-0.67555 1.1928-0.63114zm2.8477 4.3546c0.7066 4.56e-4 1.4054 0.01695 1.7001 0.05142l0.4406 0.05142 0.0602 0.42278c0.0748 0.54579 0.0719 3.0473-3e-3 3.5936l-0.0584 0.42278-0.45872 0.03915 3e-3 3e-3c-1.2815 0.11085-3.8324 0.06948-3.965-0.0634-0.0701-0.07135-0.11979-3.0731-0.0602-3.7869l0.0526-0.63114 0.53176-0.05434c0.33308-0.03389 1.0479-0.0485 1.7545-0.0485zm3.8925 0.41068 0.26004 0.06644c1.1218 0.29264 2.2025 0.79223 2.6665 1.2351 0.26063 0.24952 0.30211 0.33185 0.30211 0.61 0 0.27809-0.0409 0.35745-0.30211 0.60699-0.34243 0.32706-1.2116 0.78594-1.9236 1.0147-0.2653 0.08514-0.59967 0.18606-0.74283 0.22346l-0.26004 0.06644zm-7.9844 0.01227c0.14492-0.0263 0.15953 0.0064 0.12973 0.08456-0.0637 0.16648-0.0637 3.4577 0 3.6238 0.0602 0.15783 0.0526 0.15497-0.70964-0.06948-0.83867-0.24666-1.9014-0.77103-2.2467-1.1113-0.46222-0.45568-0.4628-0.80236-3e-3 -1.2502 0.35704-0.34792 1.0892-0.72899 1.9206-1.0026 0.49028-0.16152 0.7641-0.24864 0.90896-0.27482zm-2.6393 4.6837c0.0117-0.01286 0.33659 0.09461 0.7187 0.23859 0.38216 0.14404 1.0548 0.3481 1.4948 0.45597l0.79724 0.19628 0.16303 0.70966c0.0888 0.39041 0.29101 1.059 0.44995 1.4857 0.15895 0.42681 0.28984 0.7874 0.28984 0.80026 0 0.06299-0.15193 0.0026-0.59487-0.24461-1.0428-0.58178-1.8037-1.2414-2.4552-2.1229-0.34419-0.46608-0.91621-1.4681-0.86362-1.519zm13.314 0c0.0175 0.01519-0.0619 0.20686-0.1718 0.42582-0.70204 1.4028-1.8816 2.5908-3.2735 3.2916-0.4371 0.21983-0.49963 0.23205-0.44119 0.09963 0.27348-0.62518 0.53468-1.3998 0.70362-2.0807l0.20861-0.83347 0.921-0.23859c0.50722-0.13113 1.1698-0.3405 1.4737-0.46503 0.30386-0.12453 0.56214-0.21452 0.57967-0.19932zm-6.6194 1.1868c1.0402-0.0018 1.8904 0.0082 1.8904 0.02104 0 0.01344-0.10285 0.34944-0.22965 0.74891-0.31556 0.9942-0.69825 1.755-1.0781 2.1471-0.25887 0.26764-0.36814 0.32917-0.5826 0.32917-0.5604 0-1.2157-0.93103-1.7001-2.4098-0.30153-0.92142-0.47742-0.83279 1.7001-0.83649z" fill="#e8eaec"/>
  <path d="m121.66 46.26c-2.9845-0.37773-6.5279-1.7808-8.7432-3.4621l-1.2308-0.93422-1.7575 1.7495c-1.8067 1.7983-2.5128 2.1329-3.0738 1.4569-0.19693-0.23807-2.8948-12.418-2.8948-13.072 0-0.37668 0.6581-0.83696 1.1981-0.83825 1.0805-0.0026 12.488 2.5123 12.849 2.8326 0.64922 0.57629 0.40262 1.0889-1.4201 2.9515l-1.7803 1.8193 0.49378 0.41103c0.70795 0.58919 2.9785 1.7503 4.3016 2.1997 1.7227 0.58516 5.9748 0.54766 7.9238-0.06983 4.1647-1.3196 7.5576-4.7523 8.8709-8.9751 0.48735-1.5664 0.7606-1.6989 2.6429-1.2801 2.0606 0.45837 2.1502 0.68919 1.266 3.2615-1.983 5.769-6.889 10.192-12.788 11.53-1.5253 0.34606-4.6642 0.57068-5.8578 0.41968zm-13.959-20.338c-0.60252-0.14562-1.1956-0.3654-1.3179-0.48735-0.56098-0.56098 0.23725-3.3156 1.728-5.9644 1.2197-2.1669 4.2294-5.1718 6.4097-6.3993 3.0872-1.7381 7.1474-2.6824 10.293-2.394 3.3413 0.30626 6.9084 1.6328 9.2982 3.4575l1.2349 0.94287 1.8761-1.8369c1.0318-1.0103 1.9709-1.8369 2.0868-1.8369 0.11629 0 0.40963 0.16228 0.65226 0.36002 0.36697 0.29931 0.67066 1.4438 1.802 6.7942 1.3167 6.2267 1.3485 6.4473 0.99007 6.8434-0.20394 0.22515-0.57267 0.40946-0.81997 0.40946-0.61497 0-12.032-2.4155-12.602-2.6662-0.25127-0.11068-0.51832-0.44493-0.59335-0.74266-0.11979-0.47771 0.076-0.75405 1.6539-2.3395l1.7897-1.7981-0.73214-0.55847c-2.2585-1.7226-5.646-2.7015-8.7613-2.5318-5.6161 0.30626-10.329 3.9869-12.038 9.4019-0.54111 1.7141-0.84924 1.8548-2.9502 1.3464z" fill="#6f8ce9"/>
 </g>
</svg>
