<?xml version="1.0" encoding="UTF-8"?>
<svg width="97.557mm" height="20.661mm" version="1.1" viewBox="0 0 97.557 20.661" xmlns="http://www.w3.org/2000/svg" xmlns:cc="http://creativecommons.org/ns#" xmlns:dc="http://purl.org/dc/elements/1.1/" xmlns:rdf="http://www.w3.org/1999/02/22-rdf-syntax-ns#">
 <metadata>
  <rdf:RDF>
   <cc:Work rdf:about="">
    <dc:format>image/svg+xml</dc:format>
    <dc:type rdf:resource="http://purl.org/dc/dcmitype/StillImage"/>
    <dc:title/>
   </cc:Work>
  </rdf:RDF>
 </metadata>
 <g fill="#d2d6dc" opacity=".91" stroke-width=".28222px" aria-label="200">
  <path d="m27.449 18.287 0.16192 0.13018c0.01905-0.02858 0.0095-0.04763 0.02858-0.07303 0.04763-0.07303 0.1651-0.18098 0.33655-0.18098 0.21272 0 0.381 0.16192 0.381 0.37465 0 0.2413-0.2032 0.41592-0.34608 0.5461-0.22542 0.2032-0.40958 0.4064-0.57468 0.73342v0.1397h1.162v-0.21908c-0.02222-0.0095-0.0381 0.0064-0.04445 0.0127-0.0127 0.0127-0.01905 0.0127-0.03175 0.0127h-0.83185c0.1651-0.28575 0.39688-0.4826 0.53975-0.61595 0.14288-0.13652 0.34608-0.33972 0.34608-0.62548 0-0.30798-0.25082-0.55562-0.5715-0.55562-0.22542 0-0.43815 0.12065-0.55562 0.32068z"/>
  <path d="m29.589 17.967c-0.31432 0-0.63818 0.38735-0.63818 1.0192 0 0.64135 0.32702 1.0096 0.64135 1.0096 0.28575 0 0.62548-0.31115 0.62548-0.99377 0-0.6731-0.32385-1.035-0.62865-1.035zm0.30798 0.45402-0.69532 0.9017c-0.02858-0.11112-0.04445-0.23495-0.04445-0.37465 0-0.508 0.23178-0.7874 0.42862-0.7874 0.10795 0 0.22542 0.08573 0.31115 0.26035zm0.07303 0.20955c0.02858 0.11112 0.04127 0.24448 0.04127 0.40005 0 0.55245-0.23812 0.762-0.41275 0.762-0.11748 0-0.23812-0.09525-0.32385-0.26987z"/>
  <path d="m31.177 17.967c-0.31432 0-0.63818 0.38735-0.63818 1.0192 0 0.64135 0.32702 1.0096 0.64135 1.0096 0.28575 0 0.62548-0.31115 0.62548-0.99377 0-0.6731-0.32385-1.035-0.62865-1.035zm0.30798 0.45402-0.69532 0.9017c-0.02858-0.11112-0.04445-0.23495-0.04445-0.37465 0-0.508 0.23178-0.7874 0.42862-0.7874 0.10795 0 0.22542 0.08573 0.31115 0.26035zm0.07302 0.20955c0.02858 0.11112 0.04128 0.24448 0.04128 0.40005 0 0.55245-0.23812 0.762-0.41275 0.762-0.11748 0-0.23812-0.09525-0.32385-0.26987z"/>
 </g>
 <g fill="none" stroke="#535e70" stroke-linecap="square" stroke-width=".26458">
  <path d="m19.08 15.136h74.083" style="paint-order:normal"/>
  <path d="m19.08 14.475v1.3229" style="paint-order:normal"/>
  <path d="m29.664 14.475v1.3229" style="paint-order:normal"/>
  <path d="m40.247 14.475v1.3229" style="paint-order:normal"/>
  <path d="m50.83 14.475v1.3229" style="paint-order:normal"/>
  <path d="m61.414 14.475v1.3229" style="paint-order:normal"/>
  <path d="m71.997 14.475v1.3229" style="paint-order:normal"/>
  <path d="m82.58 14.475v1.3229" style="paint-order:normal"/>
 </g>
 <g fill="#d2d6dc" stroke-width=".28222px">
  <g opacity=".91" aria-label="201">
   <path d="m38.033 18.287 0.16192 0.13018c0.01905-0.02858 0.0095-0.04763 0.02857-0.07303 0.04763-0.07303 0.1651-0.18098 0.33655-0.18098 0.21272 0 0.381 0.16192 0.381 0.37465 0 0.2413-0.2032 0.41592-0.34608 0.5461-0.22542 0.2032-0.40958 0.4064-0.57468 0.73342v0.1397h1.162v-0.21908c-0.02222-0.0095-0.0381 0.0064-0.04445 0.0127-0.0127 0.0127-0.01905 0.0127-0.03175 0.0127h-0.83185c0.1651-0.28575 0.39688-0.4826 0.53975-0.61595 0.14288-0.13652 0.34608-0.33972 0.34608-0.62548 0-0.30798-0.25082-0.55562-0.5715-0.55562-0.22542 0-0.43815 0.12065-0.55562 0.32068z"/>
   <path d="m40.173 17.967c-0.31432 0-0.63818 0.38735-0.63818 1.0192 0 0.64135 0.32702 1.0096 0.64135 1.0096 0.28575 0 0.62548-0.31115 0.62548-0.99377 0-0.6731-0.32385-1.035-0.62865-1.035zm0.30798 0.45402-0.69532 0.9017c-0.02857-0.11112-0.04445-0.23495-0.04445-0.37465 0-0.508 0.23178-0.7874 0.42862-0.7874 0.10795 0 0.22542 0.08573 0.31115 0.26035zm0.07302 0.20955c0.02858 0.11112 0.04128 0.24448 0.04128 0.40005 0 0.55245-0.23812 0.762-0.41275 0.762-0.11748 0-0.23812-0.09525-0.32385-0.26987z"/>
   <path d="m41.906 17.979h-0.14605l-0.508 0.26352 0.0508 0.12382 0.3937-0.11112v1.5303h-0.3683v0.17462h0.93345v-0.17462h-0.3556z"/>
  </g>
  <g opacity=".91" aria-label="202">
   <path d="m48.616 18.287 0.16192 0.13018c0.01905-0.02858 0.0095-0.04763 0.02857-0.07303 0.04763-0.07303 0.1651-0.18098 0.33655-0.18098 0.21272 0 0.381 0.16192 0.381 0.37465 0 0.2413-0.2032 0.41592-0.34608 0.5461-0.22542 0.2032-0.40958 0.4064-0.57468 0.73342v0.1397h1.162v-0.21908c-0.02222-0.0095-0.0381 0.0064-0.04445 0.0127-0.0127 0.0127-0.01905 0.0127-0.03175 0.0127h-0.83185c0.1651-0.28575 0.39688-0.4826 0.53975-0.61595 0.14288-0.13652 0.34608-0.33972 0.34608-0.62548 0-0.30798-0.25082-0.55562-0.5715-0.55562-0.22542 0-0.43815 0.12065-0.55562 0.32068z"/>
   <path d="m50.756 17.967c-0.31432 0-0.63818 0.38735-0.63818 1.0192 0 0.64135 0.32702 1.0096 0.64135 1.0096 0.28575 0 0.62548-0.31115 0.62548-0.99377 0-0.6731-0.32385-1.035-0.62865-1.035zm0.30798 0.45402-0.69532 0.9017c-0.02857-0.11112-0.04445-0.23495-0.04445-0.37465 0-0.508 0.23178-0.7874 0.42862-0.7874 0.10795 0 0.22542 0.08573 0.31115 0.26035zm0.07303 0.20955c0.02857 0.11112 0.04127 0.24448 0.04127 0.40005 0 0.55245-0.23812 0.762-0.41275 0.762-0.11748 0-0.23812-0.09525-0.32385-0.26987z"/>
   <path d="m51.791 18.287 0.16192 0.13018c0.01905-0.02858 0.0095-0.04763 0.02858-0.07303 0.04762-0.07303 0.1651-0.18098 0.33655-0.18098 0.21272 0 0.381 0.16192 0.381 0.37465 0 0.2413-0.2032 0.41592-0.34608 0.5461-0.22542 0.2032-0.40958 0.4064-0.57468 0.73342v0.1397h1.162v-0.21908c-0.02222-0.0095-0.0381 0.0064-0.04445 0.0127-0.0127 0.0127-0.01905 0.0127-0.03175 0.0127h-0.83185c0.1651-0.28575 0.39688-0.4826 0.53975-0.61595 0.14288-0.13652 0.34608-0.33972 0.34608-0.62548 0-0.30798-0.25082-0.55562-0.5715-0.55562-0.22542 0-0.43815 0.12065-0.55562 0.32068z"/>
  </g>
  <g opacity=".91" aria-label="203">
   <path d="m59.199 18.287 0.16192 0.13018c0.01905-0.02858 0.0095-0.04763 0.02857-0.07303 0.04763-0.07303 0.1651-0.18098 0.33655-0.18098 0.21272 0 0.381 0.16192 0.381 0.37465 0 0.2413-0.2032 0.41592-0.34608 0.5461-0.22542 0.2032-0.40958 0.4064-0.57468 0.73342v0.1397h1.162v-0.21908c-0.02222-0.0095-0.0381 0.0064-0.04445 0.0127-0.0127 0.0127-0.01905 0.0127-0.03175 0.0127h-0.83185c0.1651-0.28575 0.39688-0.4826 0.53975-0.61595 0.14288-0.13652 0.34608-0.33972 0.34608-0.62548 0-0.30798-0.25082-0.55562-0.5715-0.55562-0.22542 0-0.43815 0.12065-0.55562 0.32068z"/>
   <path d="m61.339 17.967c-0.31432 0-0.63818 0.38735-0.63818 1.0192 0 0.64135 0.32702 1.0096 0.64135 1.0096 0.28575 0 0.62548-0.31115 0.62548-0.99377 0-0.6731-0.32385-1.035-0.62865-1.035zm0.30798 0.45402-0.69532 0.9017c-0.02858-0.11112-0.04445-0.23495-0.04445-0.37465 0-0.508 0.23178-0.7874 0.42862-0.7874 0.10795 0 0.22542 0.08573 0.31115 0.26035zm0.07303 0.20955c0.02858 0.11112 0.04127 0.24448 0.04127 0.40005 0 0.55245-0.23812 0.762-0.41275 0.762-0.11748 0-0.23812-0.09525-0.32385-0.26987z"/>
   <path d="m63.432 18.475c0-0.26988-0.2286-0.50165-0.54292-0.50165-0.1778 0-0.35242 0.0762-0.47625 0.21272l0.12382 0.13652c0.09208-0.09843 0.21908-0.1524 0.3429-0.1524 0.2032 0 0.3429 0.14288 0.3429 0.31115 0 0.11748-0.07303 0.25082-0.21272 0.31115-0.03493 0.0127-0.12382 0.04763-0.31115 0.04763v0.1778c0.03175-0.0032 0.06668-0.0063 0.1016-0.0063 0.2667 0 0.46355 0.1397 0.46355 0.37782 0 0.2159-0.1651 0.40322-0.39688 0.40322-0.18415 0-0.29528-0.12065-0.31115-0.13652-0.0254-0.02858-0.0127-0.06032-0.04127-0.0889l-0.1651 0.20002c0.13018 0.14922 0.32068 0.22542 0.51752 0.22542 0.381 0 0.6096-0.26988 0.6096-0.57785 0-0.23495-0.13335-0.43498-0.33972-0.51118 0.1778-0.06667 0.29528-0.23495 0.29528-0.42862z"/>
  </g>
  <g opacity=".91" aria-label="204">
   <path d="m69.783 18.287 0.16192 0.13018c0.01905-0.02858 0.0095-0.04763 0.02858-0.07303 0.04762-0.07303 0.1651-0.18098 0.33655-0.18098 0.21272 0 0.381 0.16192 0.381 0.37465 0 0.2413-0.2032 0.41592-0.34608 0.5461-0.22542 0.2032-0.40958 0.4064-0.57468 0.73342v0.1397h1.162v-0.21908c-0.02223-0.0095-0.0381 0.0064-0.04445 0.0127-0.0127 0.0127-0.01905 0.0127-0.03175 0.0127h-0.83185c0.1651-0.28575 0.39688-0.4826 0.53975-0.61595 0.14288-0.13652 0.34608-0.33972 0.34608-0.62548 0-0.30798-0.25082-0.55562-0.5715-0.55562-0.22542 0-0.43815 0.12065-0.55562 0.32068z"/>
   <path d="m71.923 17.967c-0.31432 0-0.63818 0.38735-0.63818 1.0192 0 0.64135 0.32702 1.0096 0.64135 1.0096 0.28575 0 0.62548-0.31115 0.62548-0.99377 0-0.6731-0.32385-1.035-0.62865-1.035zm0.30798 0.45402-0.69532 0.9017c-0.02858-0.11112-0.04445-0.23495-0.04445-0.37465 0-0.508 0.23178-0.7874 0.42862-0.7874 0.10795 0 0.22542 0.08573 0.31115 0.26035zm0.07303 0.20955c0.02858 0.11112 0.04127 0.24448 0.04127 0.40005 0 0.55245-0.23812 0.762-0.41275 0.762-0.11748 0-0.23812-0.09525-0.32385-0.26987z"/>
   <path d="m73.707 17.979-0.84138 1.2668v0.1651h0.79692v0.5461h0.2286v-0.54292h0.25718v-0.19685h-0.25718v-1.2382zm-0.04127 0.35242v0.88582h-0.58102z"/>
  </g>
  <g opacity=".91" aria-label="205">
   <path d="m80.366 18.287 0.16192 0.13018c0.01905-0.02858 0.0095-0.04763 0.02858-0.07303 0.04762-0.07303 0.1651-0.18098 0.33655-0.18098 0.21272 0 0.381 0.16192 0.381 0.37465 0 0.2413-0.2032 0.41592-0.34608 0.5461-0.22542 0.2032-0.40958 0.4064-0.57468 0.73342v0.1397h1.162v-0.21908c-0.02222-0.0095-0.0381 0.0064-0.04445 0.0127-0.0127 0.0127-0.01905 0.0127-0.03175 0.0127h-0.83185c0.1651-0.28575 0.39688-0.4826 0.53975-0.61595 0.14288-0.13652 0.34608-0.33972 0.34608-0.62548 0-0.30798-0.25082-0.55562-0.5715-0.55562-0.22542 0-0.43815 0.12065-0.55562 0.32068z"/>
   <path d="m82.506 17.967c-0.31432 0-0.63818 0.38735-0.63818 1.0192 0 0.64135 0.32702 1.0096 0.64135 1.0096 0.28575 0 0.62548-0.31115 0.62548-0.99377 0-0.6731-0.32385-1.035-0.62865-1.035zm0.30798 0.45402-0.69532 0.9017c-0.02858-0.11112-0.04445-0.23495-0.04445-0.37465 0-0.508 0.23178-0.7874 0.42862-0.7874 0.10795 0 0.22542 0.08573 0.31115 0.26035zm0.07303 0.20955c0.02858 0.11112 0.04127 0.24448 0.04127 0.40005 0 0.55245-0.23812 0.762-0.41275 0.762-0.11748 0-0.23812-0.09525-0.32385-0.26987z"/>
   <path d="m83.633 17.979-0.06985 1.0065 0.14288 0.05715c0.09525-0.12065 0.23495-0.18732 0.37148-0.18732 0.20638 0 0.40322 0.15875 0.40322 0.47308 0 0.3048-0.18732 0.4699-0.40005 0.4699s-0.35242-0.16192-0.36195-0.18097c-0.0127-0.0254 0.0032-0.05715-0.0254-0.0762l-0.19685 0.14922c0.13335 0.19367 0.35242 0.3048 0.58738 0.3048 0.3429 0 0.62548-0.23178 0.62548-0.6604 0-0.42545-0.2667-0.6604-0.60008-0.6604-0.10795 0-0.21908 0.0254-0.32068 0.0762l0.02858-0.5715h0.81915v-0.20002z"/>
  </g>
 </g>
 <g>
  <path d="m93.164 14.475v1.3229" fill="none" stroke="#535e70" stroke-linecap="square" stroke-width=".26458" style="paint-order:normal"/>
  <g fill="#d2d6dc" opacity=".91" stroke-width=".28222px" aria-label="206">
   <path d="m90.949 18.287 0.16192 0.13018c0.01905-0.02858 0.0095-0.04763 0.02858-0.07303 0.04762-0.07303 0.1651-0.18098 0.33655-0.18098 0.21272 0 0.381 0.16192 0.381 0.37465 0 0.2413-0.2032 0.41592-0.34608 0.5461-0.22542 0.2032-0.40958 0.4064-0.57468 0.73342v0.1397h1.162v-0.21908c-0.02222-0.0095-0.0381 0.0064-0.04445 0.0127-0.0127 0.0127-0.01905 0.0127-0.03175 0.0127h-0.83185c0.1651-0.28575 0.39688-0.4826 0.53975-0.61595 0.14288-0.13652 0.34608-0.33972 0.34608-0.62548 0-0.30798-0.25082-0.55562-0.5715-0.55562-0.22542 0-0.43815 0.12065-0.55562 0.32068z"/>
   <path d="m93.089 17.967c-0.31432 0-0.63818 0.38735-0.63818 1.0192 0 0.64135 0.32702 1.0096 0.64135 1.0096 0.28575 0 0.62548-0.31115 0.62548-0.99377 0-0.6731-0.32385-1.035-0.62865-1.035zm0.30798 0.45402-0.69532 0.9017c-0.02858-0.11112-0.04445-0.23495-0.04445-0.37465 0-0.508 0.23178-0.7874 0.42862-0.7874 0.10795 0 0.22542 0.08573 0.31115 0.26035zm0.07303 0.20955c0.02858 0.11112 0.04127 0.24448 0.04127 0.40005 0 0.55245-0.23812 0.762-0.41275 0.762-0.11748 0-0.23812-0.09525-0.32385-0.26987z"/>
   <path d="m94.791 17.957c-0.23812 0-0.49212 0.14605-0.61595 0.49212-0.06668 0.18732-0.08255 0.4191-0.08255 0.6096 0 0.23178 0.02223 0.47942 0.14922 0.66992 0.1143 0.17462 0.2921 0.26352 0.46672 0.26352 0.30162 0 0.56515-0.254 0.56515-0.66357 0-0.40958-0.26352-0.6477-0.54292-0.6477-0.17145 0-0.33338 0.09208-0.4191 0.23812 0.0127-0.67628 0.33655-0.76518 0.47942-0.76518 0.13018 0 0.21908 0.06985 0.23178 0.08255 0.01905 0.02222 0.01905 0.0508 0.04762 0.07302l0.1524-0.17145c-0.1143-0.1143-0.27305-0.18098-0.4318-0.18098zm-0.08255 0.92075c0.15875 0 0.34925 0.12382 0.34925 0.46355 0 0.30798-0.17145 0.45402-0.33972 0.45402-0.2413 0-0.42228-0.28257-0.39688-0.65405 0.0889-0.16192 0.2413-0.26352 0.38735-0.26352z"/>
  </g>
  <rect x="54.799" y="7.1985" width="35.719" height="5.1594" fill="#2f3744" stroke="#535e70" stroke-linecap="round" stroke-width=".26458"/>
 </g>
 <g fill="#e8eaec" stroke-linecap="round" stroke-width=".26458">
  <g aria-label="Reserve">
   <path d="m66.578 8.9646h0.40746c0.37782 0 0.58526 0.11483 0.58526 0.43339 0 0.31485-0.20743 0.47043-0.58526 0.47043h-0.40746zm1.3742 2.1818-0.6186-1.0594c0.32967-0.08519 0.54451-0.31115 0.54451-0.68898 0-0.50377-0.3556-0.68157-0.84826-0.68157h-0.76306v2.4299h0.31115v-1.0261h0.43709l0.58526 1.0261z"/>
   <path d="m68.213 10.25c0 0.58896 0.38153 0.94086 0.86307 0.94086 0.24448 0 0.43709-0.0852 0.59267-0.18521l-0.10742-0.20003c-0.13335 0.0852-0.27781 0.14076-0.4482 0.14076-0.34449 0-0.57785-0.24448-0.60008-0.63341h1.215c0.0074-0.04445 0.01111-0.10372 0.01111-0.16669 0-0.51488-0.25929-0.84455-0.71861-0.84455-0.41116 0-0.80751 0.3593-0.80751 0.94827zm0.29633-0.13705c0.03704-0.36301 0.2667-0.57044 0.51858-0.57044 0.28152 0 0.4445 0.20373 0.4445 0.57044z"/>
   <path d="m69.984 10.943c0.17039 0.14076 0.41487 0.24818 0.67045 0.24818 0.42598 0 0.65934-0.24448 0.65934-0.5371 0-0.34078-0.28893-0.4482-0.54822-0.54451-0.20373-0.07779-0.40005-0.14446-0.40005-0.31115 0-0.13705 0.10372-0.25929 0.32967-0.25929 0.15928 0 0.28893 0.066675 0.41116 0.15928l0.14446-0.19262c-0.13706-0.11113-0.33338-0.20373-0.55933-0.20373-0.38894 0-0.6186 0.22225-0.6186 0.51118 0 0.30374 0.28152 0.42598 0.5371 0.51858 0.19632 0.07408 0.41116 0.15558 0.41116 0.34078 0 0.15558-0.11853 0.28152-0.3556 0.28152-0.21484 0-0.37412-0.0889-0.5297-0.21484z"/>
   <path d="m71.606 10.25c0 0.58896 0.38153 0.94086 0.86307 0.94086 0.24448 0 0.43709-0.0852 0.59267-0.18521l-0.10742-0.20003c-0.13335 0.0852-0.27781 0.14076-0.4482 0.14076-0.34449 0-0.57785-0.24448-0.60008-0.63341h1.215c0.0074-0.04445 0.01111-0.10372 0.01111-0.16669 0-0.51488-0.25929-0.84455-0.71861-0.84455-0.41116 0-0.80751 0.3593-0.80751 0.94827zm0.29633-0.13705c0.03704-0.36301 0.2667-0.57044 0.51858-0.57044 0.28152 0 0.4445 0.20373 0.4445 0.57044z"/>
   <path d="m73.577 11.146h0.30374v-1.1557c0.12224-0.30374 0.30374-0.41487 0.45561-0.41487 0.07408 0 0.11483 0.011112 0.1741 0.029633l0.05927-0.2667c-0.05927-0.025929-0.11483-0.037042-0.19262-0.037042-0.20373 0-0.38894 0.14446-0.51118 0.37042h-0.01111l-0.02593-0.32597h-0.25188z"/>
   <path d="m75.326 11.146h0.3556l0.63712-1.8002h-0.30004l-0.34078 1.0224c-0.05186 0.1778-0.11112 0.3593-0.16298 0.5297h-0.01482c-0.05556-0.17039-0.11483-0.3519-0.16669-0.5297l-0.34078-1.0224h-0.31485z"/>
   <path d="m76.518 10.25c0 0.58896 0.38153 0.94086 0.86307 0.94086 0.24448 0 0.43709-0.0852 0.59267-0.18521l-0.10742-0.20003c-0.13335 0.0852-0.27781 0.14076-0.4482 0.14076-0.34449 0-0.57785-0.24448-0.60008-0.63341h1.215c0.0074-0.04445 0.01111-0.10372 0.01111-0.16669 0-0.51488-0.25929-0.84455-0.71861-0.84455-0.41116 0-0.80751 0.3593-0.80751 0.94827zm0.29633-0.13705c0.03704-0.36301 0.2667-0.57044 0.51858-0.57044 0.28152 0 0.4445 0.20373 0.4445 0.57044z"/>
  </g>
  <g aria-label="Snapshots">
   <path d="m0.13229 19.608c0.18098 0.18732 0.43497 0.30798 0.72707 0.30798 0.43815 0 0.7112-0.26352 0.7112-0.59372 0-0.30798-0.18732-0.45085-0.42862-0.55562l-0.29845-0.127c-0.16192-0.06985-0.34607-0.14605-0.34607-0.34608 0-0.18732 0.15557-0.3048 0.39052-0.3048 0.1905 0 0.34607 0.0762 0.47307 0.19685l0.1397-0.17145c-0.14605-0.1524-0.36512-0.25718-0.61277-0.25718-0.37782 0-0.65722 0.23495-0.65722 0.55245 0 0.3048 0.2286 0.45402 0.42227 0.53658l0.29845 0.13018c0.19685 0.0889 0.34925 0.15558 0.34925 0.3683 0 0.2032-0.16192 0.33972-0.43497 0.33972-0.21908 0-0.42545-0.10478-0.57467-0.26035z"/>
   <path d="m1.9462 19.878h0.26035v-1.1176c0.15558-0.15558 0.26352-0.23812 0.42228-0.23812 0.2032 0 0.2921 0.12382 0.2921 0.41275v0.94298h0.26035v-0.9779c0-0.3937-0.14605-0.60325-0.4699-0.60325-0.21272 0-0.37148 0.1143-0.51752 0.26035h-0.00953l-0.022225-0.22225h-0.2159z"/>
   <path d="m3.6063 19.478c0 0.27622 0.19368 0.43815 0.45402 0.43815 0.1905 0 0.36195-0.1016 0.51117-0.22225h0.00635l0.022225 0.18415h0.2159v-0.94615c0-0.38418-0.15875-0.635-0.53658-0.635-0.24765 0-0.46355 0.10795-0.60642 0.20002l0.10478 0.18098c0.12065-0.08255 0.2794-0.1651 0.46037-0.1651 0.25082 0 0.3175 0.1905 0.3175 0.38735-0.65722 0.07303-0.94932 0.2413-0.94932 0.57785zm0.25718-0.01905c0-0.19685 0.17462-0.32385 0.69215-0.38735v0.42862c-0.14922 0.13335-0.27305 0.20638-0.42227 0.20638-0.1524 0-0.26988-0.07303-0.26988-0.24765z"/>
   <path d="m5.5612 19.738c0.14288 0.11112 0.28575 0.1778 0.42862 0.1778 0.35242 0 0.66675-0.30798 0.66675-0.83185 0-0.47942-0.21272-0.7874-0.6096-0.7874-0.18098 0-0.35242 0.09842-0.49212 0.2159h-0.00953l-0.022225-0.1778h-0.2159v2.1939h0.26035v-0.5207zm0.00635-0.2032v-0.80962c0.1524-0.13652 0.28258-0.20955 0.41275-0.20955 0.2921 0 0.4064 0.2286 0.4064 0.56832 0 0.381-0.18732 0.61278-0.44132 0.61278-0.1016 0-0.23812-0.04445-0.37782-0.16192z"/>
   <path d="m6.8969 19.703c0.14605 0.12065 0.3556 0.21272 0.57468 0.21272 0.36512 0 0.56515-0.20955 0.56515-0.46038 0-0.2921-0.24765-0.38418-0.4699-0.46672-0.17462-0.06668-0.3429-0.12382-0.3429-0.2667 0-0.11748 0.0889-0.22225 0.28258-0.22225 0.13652 0 0.24765 0.05715 0.35242 0.13652l0.12382-0.1651c-0.11748-0.09525-0.28575-0.17462-0.47942-0.17462-0.33338 0-0.53022 0.1905-0.53022 0.43815 0 0.26035 0.2413 0.36512 0.46038 0.4445 0.16828 0.0635 0.35242 0.13335 0.35242 0.2921 0 0.13335-0.1016 0.2413-0.3048 0.2413-0.18415 0-0.32068-0.0762-0.45402-0.18415z"/>
   <path d="m8.4016 19.878h0.26035v-1.1176c0.15558-0.15558 0.26352-0.23812 0.42228-0.23812 0.2032 0 0.2921 0.12382 0.2921 0.41275v0.94298h0.26035v-0.9779c0-0.3937-0.14605-0.60325-0.4699-0.60325-0.21272 0-0.3683 0.1143-0.51435 0.254l0.00953-0.3175v-0.61595h-0.26035z"/>
   <path d="m10.017 19.109c0 0.51118 0.33655 0.80645 0.71438 0.80645s0.71438-0.29528 0.71438-0.80645c0-0.51752-0.33655-0.8128-0.71438-0.8128s-0.71438 0.29528-0.71438 0.8128zm0.26988 0c0-0.3556 0.18098-0.5969 0.4445-0.5969 0.2667 0 0.4445 0.2413 0.4445 0.5969 0 0.35242-0.1778 0.59055-0.4445 0.59055-0.26352 0-0.4445-0.23812-0.4445-0.59055z"/>
   <path d="m11.9 19.401c0 0.3048 0.11112 0.51435 0.44132 0.51435 0.09525 0 0.20002-0.02858 0.28575-0.05715l-0.0508-0.19685c-0.0508 0.01905-0.12065 0.04127-0.17462 0.04127-0.1778 0-0.23812-0.10795-0.23812-0.29845v-0.85725h0.41592v-0.21272h-0.41592v-0.4318h-0.21908l-0.03175 0.4318-0.2413 0.01588v0.19685h0.2286z"/>
   <path d="m12.757 19.703c0.14605 0.12065 0.3556 0.21272 0.57468 0.21272 0.36512 0 0.56515-0.20955 0.56515-0.46038 0-0.2921-0.24765-0.38418-0.4699-0.46672-0.17462-0.06668-0.3429-0.12382-0.3429-0.2667 0-0.11748 0.0889-0.22225 0.28258-0.22225 0.13652 0 0.24765 0.05715 0.35242 0.13652l0.12382-0.1651c-0.11748-0.09525-0.28575-0.17462-0.47942-0.17462-0.33338 0-0.53022 0.1905-0.53022 0.43815 0 0.26035 0.2413 0.36512 0.46038 0.4445 0.16828 0.0635 0.35242 0.13335 0.35242 0.2921 0 0.13335-0.1016 0.2413-0.3048 0.2413-0.18415 0-0.32068-0.0762-0.45402-0.18415z"/>
  </g>
  <g aria-label="Time">
   <path d="m8.0565 15.909h0.26352v-1.8606h0.63182v-0.22225h-1.5272v0.22225h0.63182z"/>
   <path d="m9.4257 14.048c0.1016 0 0.18098-0.06985 0.18098-0.16828 0-0.1016-0.079375-0.16828-0.18098-0.16828s-0.18098 0.06668-0.18098 0.16828c0 0.09842 0.079375 0.16828 0.18098 0.16828zm-0.13335 1.8606h0.26035v-1.543h-0.26035z"/>
   <path d="m10.074 15.909h0.26035v-1.1176c0.14288-0.15875 0.27305-0.23812 0.38735-0.23812 0.19685 0 0.28892 0.12382 0.28892 0.41275v0.94298h0.26035v-1.1176c0.14288-0.15875 0.2667-0.23812 0.38735-0.23812 0.19368 0 0.28575 0.12382 0.28575 0.41275v0.94298h0.26035v-0.9779c0-0.3937-0.1524-0.60325-0.4699-0.60325-0.18732 0-0.34608 0.12065-0.508 0.29528-0.0635-0.18415-0.1905-0.29528-0.42545-0.29528-0.18415 0-0.34608 0.1143-0.47942 0.26035h-0.0095l-0.02223-0.22225h-0.2159z"/>
   <path d="m12.589 15.141c0 0.50482 0.32702 0.80645 0.73978 0.80645 0.20955 0 0.37465-0.07302 0.508-0.15875l-0.09207-0.17145c-0.1143 0.07302-0.23812 0.12065-0.38418 0.12065-0.29528 0-0.4953-0.20955-0.51435-0.54292h1.0414c0.0063-0.0381 0.0095-0.0889 0.0095-0.14288 0-0.44132-0.22225-0.7239-0.61595-0.7239-0.35242 0-0.69215 0.30798-0.69215 0.8128zm0.254-0.11748c0.03175-0.31115 0.2286-0.48895 0.4445-0.48895 0.2413 0 0.381 0.17462 0.381 0.48895z"/>
  </g>
 </g>
 <g fill="none" stroke="#535e70" stroke-linecap="square" stroke-width=".13229">
  <path d="m20.403 8.5215-1.3229 1.3229 1.3229 1.3229" style="paint-order:normal"/>
  <path d="m19.08 9.8444h10.583" style="paint-order:normal"/>
  <path d="m28.341 8.5215 1.3229 1.3229-1.3229 1.3229" style="paint-order:normal"/>
 </g>
 <g fill="#e8eaec" stroke-linecap="round" stroke-width=".26458">
  <g aria-label="30ms">
   <path d="m21.081 7.4591c0.13018 0.13652 0.32068 0.28575 0.64452 0.28575 0.34925 0 0.61912-0.22225 0.61912-0.57468 0-0.28575-0.20955-0.47307-0.46038-0.52705v-0.0127c0.22225-0.0762 0.38735-0.23495 0.38735-0.50165 0-0.31115-0.2413-0.48895-0.55562-0.48895-0.23495 0-0.40958 0.11112-0.54928 0.24765l0.08255 0.09525c0.11748-0.12382 0.2794-0.22225 0.46672-0.22225 0.24765 0 0.40958 0.14922 0.40958 0.37782 0 0.24448-0.1651 0.44132-0.635 0.44132v0.12382c0.50482 0 0.70802 0.1905 0.70802 0.4699 0 0.26988-0.20002 0.44768-0.47308 0.44768-0.2794 0-0.44132-0.127-0.56198-0.26035z"/>
   <path d="m23.267 7.7449c0.38735 0 0.60642-0.38418 0.60642-1.0604 0-0.6731-0.21908-1.0446-0.60642-1.0446s-0.60642 0.37148-0.60642 1.0446c0 0.67627 0.21908 1.0604 0.60642 1.0604zm0-0.12065c-0.2794 0-0.46355-0.32068-0.46355-0.9398 0-0.61912 0.18415-0.92392 0.46355-0.92392 0.28258 0 0.46355 0.3048 0.46355 0.92392 0 0.61912-0.18098 0.9398-0.46355 0.9398z"/>
   <path d="m24.32 7.7068h0.1397v-1.1493c0.16828-0.1905 0.32068-0.28575 0.4572-0.28575 0.23495 0 0.3429 0.1524 0.3429 0.47625v0.95885h0.1397v-1.1493c0.16828-0.1905 0.31432-0.28575 0.4572-0.28575 0.23178 0 0.33972 0.1524 0.33972 0.47625v0.95885h0.14288v-0.9779c0-0.3937-0.1524-0.5842-0.4572-0.5842-0.17462 0-0.3429 0.12065-0.51752 0.31115-0.05398-0.18732-0.1778-0.31115-0.42228-0.31115-0.16828 0-0.3429 0.11748-0.47942 0.27305h-0.0095l-0.0127-0.23495h-0.12065z"/>
   <path d="m26.709 7.5353c0.13652 0.1143 0.33338 0.20955 0.5588 0.20955 0.3302 0 0.51435-0.20002 0.51435-0.42862 0-0.29845-0.26035-0.37782-0.49848-0.46672-0.18098-0.066675-0.35878-0.1397-0.35878-0.30798 0-0.1397 0.10795-0.27622 0.3429-0.27622 0.15558 0 0.26352 0.060325 0.36512 0.13652l0.0762-0.098425c-0.11112-0.092075-0.27305-0.15875-0.43498-0.15875-0.3175 0-0.49212 0.18415-0.49212 0.4064 0 0.26035 0.254 0.35242 0.48578 0.43498 0.17462 0.0635 0.37148 0.14605 0.37148 0.33655 0 0.16192-0.12382 0.30162-0.36195 0.30162-0.21908 0-0.3556-0.085725-0.48578-0.19368z"/>
  </g>
  <g aria-label="Render time">
   <path d="m47.212 1.3324v-0.88583h0.41275c0.37148 0 0.57468 0.1143 0.57468 0.42862 0 0.30798-0.2032 0.4572-0.57468 0.4572zm1.1779 1.0827-0.57468-0.97155c0.32702-0.04445 0.53658-0.23495 0.53658-0.56833 0-0.40005-0.27305-0.55245-0.68898-0.55245h-0.5969v2.0923h0.14605v-0.96202h0.4445l0.56515 0.96202z"/>
   <path d="m48.656 1.6563c0 0.49848 0.31432 0.79692 0.70485 0.79692 0.22225 0 0.35878-0.0762 0.47942-0.14922l-0.05715-0.10795c-0.1143 0.08255-0.24448 0.13652-0.40958 0.13652-0.3429 0-0.56832-0.27622-0.57468-0.6604h1.0986c0.0064-0.0381 0.0064-0.0762 0.0064-0.1143 0-0.44768-0.22225-0.70485-0.5842-0.70485-0.33972 0-0.66358 0.3048-0.66358 0.80328zm0.14288-0.092075c0.03175-0.36512 0.26352-0.59055 0.52388-0.59055 0.27305 0 0.44768 0.20003 0.44768 0.59055z"/>
   <path d="m50.315 2.4151h0.1397v-1.1493c0.18732-0.1905 0.3175-0.28575 0.49848-0.28575 0.24765 0 0.34925 0.1524 0.34925 0.47625v0.95885h0.1397v-0.9779c0-0.3937-0.14605-0.5842-0.46038-0.5842-0.20955 0-0.3683 0.11748-0.52388 0.27305h-0.0095l-0.0127-0.23495h-0.12065z"/>
   <path d="m51.875 1.6563c0 0.51435 0.24765 0.79692 0.63182 0.79692 0.2032 0 0.37148-0.11112 0.4953-0.23495h0.0095l0.0127 0.19685h0.12065v-2.2828h-0.1397v0.62865l0.0063 0.2794c-0.1524-0.11748-0.27622-0.18733-0.46038-0.18733-0.36195 0-0.67628 0.31115-0.67628 0.80328zm0.14922 0c0-0.38418 0.23178-0.67945 0.53658-0.67945 0.14922 0 0.28258 0.053975 0.4445 0.19685v0.90488c-0.16192 0.16192-0.31115 0.25082-0.47942 0.25082-0.32385 0-0.50165-0.26987-0.50165-0.6731z"/>
   <path d="m53.605 1.6563c0 0.49848 0.31432 0.79692 0.70485 0.79692 0.22225 0 0.35878-0.0762 0.47942-0.14922l-0.05715-0.10795c-0.1143 0.08255-0.24448 0.13652-0.40958 0.13652-0.3429 0-0.56832-0.27622-0.57468-0.6604h1.0986c0.0063-0.0381 0.0063-0.0762 0.0063-0.1143 0-0.44768-0.22225-0.70485-0.5842-0.70485-0.33972 0-0.66358 0.3048-0.66358 0.80328zm0.14288-0.092075c0.03175-0.36512 0.26352-0.59055 0.52388-0.59055 0.27305 0 0.44768 0.20003 0.44768 0.59055z"/>
   <path d="m55.263 2.4151h0.1397v-1.0382c0.11748-0.28575 0.2794-0.39053 0.41592-0.39053 0.06032 0 0.0889 0.00635 0.1397 0.0254l0.03175-0.127c-0.0508-0.0254-0.09525-0.03175-0.1524-0.03175-0.18098 0-0.3302 0.13335-0.4318 0.32068h-0.0095l-0.0127-0.28258h-0.12065z"/>
   <path d="m56.935 1.9928c0 0.27305 0.08572 0.46037 0.381 0.46037 0.0635 0 0.15875-0.0254 0.24765-0.05715l-0.0381-0.1143c-0.05398 0.0254-0.13335 0.047625-0.1905 0.047625-0.20955 0-0.25718-0.13017-0.25718-0.32385v-0.99378h0.44132v-0.12065h-0.44132v-0.44132h-0.12065l-0.01905 0.44132-0.2413 0.0127v0.10795h0.23812z"/>
   <path d="m57.966 0.52282c0.06985 0 0.127-0.0508 0.127-0.12382 0-0.079375-0.05715-0.127-0.127-0.127s-0.127 0.047625-0.127 0.127c0 0.073025 0.05715 0.12382 0.127 0.12382zm-0.073025 1.8923h0.1397v-1.524h-0.1397z"/>
   <path d="m58.618 2.4151h0.1397v-1.1493c0.16828-0.1905 0.32068-0.28575 0.4572-0.28575 0.23495 0 0.3429 0.1524 0.3429 0.47625v0.95885h0.1397v-1.1493c0.16828-0.1905 0.31432-0.28575 0.4572-0.28575 0.23178 0 0.33972 0.1524 0.33972 0.47625v0.95885h0.14288v-0.9779c0-0.3937-0.1524-0.5842-0.4572-0.5842-0.17462 0-0.3429 0.12065-0.51752 0.31115-0.05398-0.18733-0.1778-0.31115-0.42228-0.31115-0.16828 0-0.3429 0.11748-0.47942 0.27305h-0.0095l-0.0127-0.23495h-0.12065z"/>
   <path d="m61.071 1.6563c0 0.49848 0.31432 0.79692 0.70485 0.79692 0.22225 0 0.35878-0.0762 0.47942-0.14922l-0.05715-0.10795c-0.1143 0.08255-0.24448 0.13652-0.40958 0.13652-0.3429 0-0.56832-0.27622-0.57468-0.6604h1.0986c0.0064-0.0381 0.0064-0.0762 0.0064-0.1143 0-0.44768-0.22225-0.70485-0.5842-0.70485-0.33972 0-0.66358 0.3048-0.66358 0.80328zm0.14288-0.092075c0.03175-0.36512 0.26352-0.59055 0.52388-0.59055 0.27305 0 0.44768 0.20003 0.44768 0.59055z"/>
  </g>
  <g aria-label="Client time">
   <path d="m83.79 1.3642c0 0.66675 0.36195 1.089 0.8763 1.089 0.27305 0 0.46355-0.1143 0.6223-0.29845l-0.08572-0.092075c-0.1524 0.17145-0.31432 0.25717-0.53022 0.25717-0.44768 0-0.73025-0.37465-0.73025-0.95567 0-0.58103 0.28575-0.94615 0.74295-0.94615 0.1905 0 0.3429 0.085725 0.4572 0.21272l0.08572-0.09525c-0.11112-0.13018-0.29845-0.25082-0.54292-0.25082-0.5334 0-0.89535 0.41592-0.89535 1.0795z"/>
   <path d="m85.687 2.2119c0 0.1651 0.0635 0.2413 0.18732 0.2413 0.04445 0 0.07303-0.00635 0.1016-0.015875l-0.0254-0.1143c-0.03175 0.00635-0.04445 0.00635-0.05715 0.00635-0.0381 0-0.06668-0.03175-0.06668-0.098425v-2.0987h-0.1397z"/>
   <path d="m86.511 0.52282c0.06985 0 0.127-0.0508 0.127-0.12382 0-0.079375-0.05715-0.127-0.127-0.127s-0.127 0.047625-0.127 0.127c0 0.073025 0.05715 0.12382 0.127 0.12382zm-0.07302 1.8923h0.1397v-1.524h-0.1397z"/>
   <path d="m87.036 1.6563c0 0.49848 0.31432 0.79692 0.70485 0.79692 0.22225 0 0.35878-0.0762 0.47942-0.14922l-0.05715-0.10795c-0.1143 0.08255-0.24448 0.13652-0.40958 0.13652-0.3429 0-0.56832-0.27622-0.57468-0.6604h1.0986c0.0063-0.0381 0.0063-0.0762 0.0063-0.1143 0-0.44768-0.22225-0.70485-0.5842-0.70485-0.33972 0-0.66358 0.3048-0.66358 0.80328zm0.14288-0.092075c0.03175-0.36512 0.26352-0.59055 0.52388-0.59055 0.27305 0 0.44768 0.20003 0.44768 0.59055z"/>
   <path d="m88.695 2.4151h0.1397v-1.1493c0.18732-0.1905 0.3175-0.28575 0.49848-0.28575 0.24765 0 0.34925 0.1524 0.34925 0.47625v0.95885h0.1397v-0.9779c0-0.3937-0.14605-0.5842-0.46038-0.5842-0.20955 0-0.3683 0.11748-0.52388 0.27305h-0.0095l-0.0127-0.23495h-0.12065z"/>
   <path d="m90.417 1.9928c0 0.27305 0.08572 0.46037 0.381 0.46037 0.0635 0 0.15875-0.0254 0.24765-0.05715l-0.0381-0.1143c-0.05397 0.0254-0.13335 0.047625-0.1905 0.047625-0.20955 0-0.25718-0.13017-0.25718-0.32385v-0.99378h0.44132v-0.12065h-0.44132v-0.44132h-0.12065l-0.01905 0.44132-0.2413 0.0127v0.10795h0.23812z"/>
   <path d="m92.041 1.9928c0 0.27305 0.08572 0.46037 0.381 0.46037 0.0635 0 0.15875-0.0254 0.24765-0.05715l-0.0381-0.1143c-0.05397 0.0254-0.13335 0.047625-0.1905 0.047625-0.20955 0-0.25718-0.13017-0.25718-0.32385v-0.99378h0.44132v-0.12065h-0.44132v-0.44132h-0.12065l-0.01905 0.44132-0.2413 0.0127v0.10795h0.23812z"/>
   <path d="m93.072 0.52282c0.06985 0 0.127-0.0508 0.127-0.12382 0-0.079375-0.05715-0.127-0.127-0.127s-0.127 0.047625-0.127 0.127c0 0.073025 0.05715 0.12382 0.127 0.12382zm-0.07303 1.8923h0.1397v-1.524h-0.1397z"/>
   <path d="m93.724 2.4151h0.1397v-1.1493c0.16828-0.1905 0.32068-0.28575 0.4572-0.28575 0.23495 0 0.3429 0.1524 0.3429 0.47625v0.95885h0.1397v-1.1493c0.16828-0.1905 0.31432-0.28575 0.4572-0.28575 0.23178 0 0.33972 0.1524 0.33972 0.47625v0.95885h0.14288v-0.9779c0-0.3937-0.1524-0.5842-0.4572-0.5842-0.17462 0-0.3429 0.12065-0.51752 0.31115-0.05398-0.18733-0.1778-0.31115-0.42228-0.31115-0.16828 0-0.3429 0.11748-0.47942 0.27305h-0.0095l-0.0127-0.23495h-0.12065z"/>
   <path d="m96.177 1.6563c0 0.49848 0.31432 0.79692 0.70485 0.79692 0.22225 0 0.35878-0.0762 0.47942-0.14922l-0.05715-0.10795c-0.1143 0.08255-0.24448 0.13652-0.40958 0.13652-0.3429 0-0.56832-0.27622-0.57468-0.6604h1.0986c0.0063-0.0381 0.0063-0.0762 0.0063-0.1143 0-0.44768-0.22225-0.70485-0.5842-0.70485-0.33972 0-0.66358 0.3048-0.66358 0.80328zm0.14288-0.092075c0.03175-0.36512 0.26352-0.59055 0.52388-0.59055 0.27305 0 0.44768 0.20003 0.44768 0.59055z"/>
  </g>
 </g>
 <path d="m54.799 8.2569v-5.0271" fill="none" stroke="#535e70" stroke-dasharray="0.264583, 0.529167" stroke-linecap="square" stroke-width=".26458" style="paint-order:normal"/>
 <path d="m90.518 8.2569v-5.0271" fill="none" stroke="#535e70" stroke-dasharray="0.264583, 0.529167" stroke-linecap="square" stroke-width=".26458" style="paint-order:normal"/>
</svg>
