<?xml version="1.0" encoding="UTF-8"?>
<svg width="99.456mm" height="35.278mm" version="1.1" viewBox="0 0 99.456 35.278" xmlns="http://www.w3.org/2000/svg" xmlns:cc="http://creativecommons.org/ns#" xmlns:dc="http://purl.org/dc/elements/1.1/" xmlns:rdf="http://www.w3.org/1999/02/22-rdf-syntax-ns#">
 <metadata>
  <rdf:RDF>
   <cc:Work rdf:about="">
    <dc:format>image/svg+xml</dc:format>
    <dc:type rdf:resource="http://purl.org/dc/dcmitype/StillImage"/>
    <dc:title/>
   </cc:Work>
  </rdf:RDF>
 </metadata>
 <g fill="none" stroke="#535e70" stroke-linecap="square" stroke-width=".26458">
  <path d="m12.011 34.064h87.313" style="paint-order:normal"/>
  <path d="m12.011 33.402v1.3229" style="paint-order:normal"/>
  <path d="m19.949 33.402v1.3229" style="paint-order:normal"/>
  <path d="m27.886 33.402v1.3229" style="paint-order:normal"/>
  <path d="m35.824 33.402v1.3229" style="paint-order:normal"/>
  <path d="m43.761 33.402v1.3229" style="paint-order:normal"/>
  <path d="m51.699 33.402v1.3229" style="paint-order:normal"/>
  <path d="m59.636 33.402v1.3229" style="paint-order:normal"/>
  <path d="m67.574 33.402v1.3229" style="paint-order:normal"/>
  <path d="m75.511 33.402v1.3229" style="paint-order:normal"/>
  <path d="m83.449 33.402v1.3229" style="paint-order:normal"/>
  <path d="m91.386 33.402v1.3229" style="paint-order:normal"/>
  <path d="m99.324 33.402v1.3229" style="paint-order:normal"/>
 </g>
 <rect transform="rotate(-90)" x="-27.449" y="12.011" width="7.9375" height="87.312" fill="#1d232d" stroke="#535e70" stroke-linecap="round" stroke-width=".13229"/>
 <g fill="none" stroke="#535e70" stroke-linecap="square" stroke-width=".13229">
  <path d="m19.949 27.449v-7.9375" style="paint-order:normal"/>
  <path d="m27.886 27.449v-7.9375" style="paint-order:normal"/>
  <path d="m35.824 27.449v-7.9375" style="paint-order:normal"/>
  <path d="m43.761 27.449v-7.9375" style="paint-order:normal"/>
  <path d="m51.699 27.449v-7.9375" style="paint-order:normal"/>
  <path d="m59.636 27.449v-7.9375" style="paint-order:normal"/>
  <path d="m67.574 27.449v-7.9375" style="paint-order:normal"/>
  <path d="m75.511 27.449v-7.9375" style="paint-order:normal"/>
  <path d="m83.449 27.449v-7.9375" style="paint-order:normal"/>
  <path d="m91.386 27.449v-7.9375" style="paint-order:normal"/>
 </g>
 <g fill="#e8eaec" stroke-linecap="round" stroke-width=".26458">
  <g aria-label="Time">
   <path d="m3.1775 35.101h0.30745v-2.1706h0.73713v-0.25929h-1.7817v0.25929h0.73713z"/>
   <path d="m4.7749 32.931c0.11853 0 0.21114-0.08149 0.21114-0.19632 0-0.11853-0.092604-0.19632-0.21114-0.19632-0.11853 0-0.21114 0.07779-0.21114 0.19632 0 0.11483 0.092604 0.19632 0.21114 0.19632zm-0.15558 2.1706h0.30374v-1.8002h-0.30374z"/>
   <path d="m5.5309 35.101h0.30374v-1.3039c0.16669-0.18521 0.31856-0.27781 0.45191-0.27781 0.22966 0 0.33708 0.14446 0.33708 0.48154v1.1001h0.30374v-1.3039c0.16669-0.18521 0.31115-0.27781 0.45191-0.27781 0.22595 0 0.33338 0.14446 0.33338 0.48154v1.1001h0.30374v-1.1409c0-0.45932-0.1778-0.70379-0.54822-0.70379-0.21855 0-0.40375 0.14076-0.59267 0.34449-0.074083-0.21484-0.22225-0.34449-0.49636-0.34449-0.21484 0-0.40375 0.13335-0.55933 0.30374h-0.011112l-0.025929-0.25929h-0.25188z"/>
   <path d="m8.4651 34.205c0 0.58896 0.38153 0.94086 0.86307 0.94086 0.24448 0 0.43709-0.0852 0.59267-0.18521l-0.10742-0.20002c-0.13335 0.0852-0.27781 0.14076-0.4482 0.14076-0.34449 0-0.57785-0.24448-0.60008-0.63341h1.215c0.00741-0.04445 0.011113-0.10372 0.011113-0.16669 0-0.51488-0.25929-0.84455-0.71861-0.84455-0.41116 0-0.80751 0.3593-0.80751 0.94827zm0.29633-0.13705c0.037042-0.36301 0.2667-0.57044 0.51858-0.57044 0.28152 0 0.4445 0.20373 0.4445 0.57044z"/>
  </g>
  <g aria-label="Server">
   <path d="m0.13229 24.468c0.21114 0.21855 0.50747 0.3593 0.84825 0.3593 0.51118 0 0.82973-0.30745 0.82973-0.69268 0-0.3593-0.21855-0.52599-0.50006-0.64823l-0.34819-0.14817c-0.18891-0.081491-0.40375-0.17039-0.40375-0.40375 0-0.21855 0.1815-0.3556 0.45561-0.3556 0.22225 0 0.40375 0.0889 0.55192 0.22966l0.16298-0.20002c-0.17039-0.1778-0.42598-0.30004-0.7149-0.30004-0.4408 0-0.76676 0.27411-0.76676 0.64453 0 0.3556 0.2667 0.5297 0.49265 0.626l0.34819 0.15187c0.22966 0.10372 0.40746 0.1815 0.40746 0.42968 0 0.23707-0.18891 0.39635-0.50747 0.39635-0.25559 0-0.49636-0.12224-0.67045-0.30374z"/>
   <path d="m2.1151 23.886c0 0.58896 0.38153 0.94086 0.86307 0.94086 0.24448 0 0.43709-0.0852 0.59267-0.18521l-0.10742-0.20002c-0.13335 0.0852-0.27781 0.14076-0.4482 0.14076-0.34449 0-0.57785-0.24448-0.60008-0.63341h1.215c0.00741-0.04445 0.011112-0.10372 0.011112-0.16669 0-0.51488-0.25929-0.84455-0.71861-0.84455-0.41116 0-0.80751 0.3593-0.80751 0.94827zm0.29633-0.13706c0.037042-0.36301 0.2667-0.57044 0.51858-0.57044 0.28152 0 0.4445 0.20373 0.4445 0.57044z"/>
   <path d="m4.0861 24.783h0.30374v-1.1557c0.12224-0.30374 0.30374-0.41487 0.45561-0.41487 0.074083 0 0.11483 0.01111 0.1741 0.02963l0.059267-0.2667c-0.059267-0.02593-0.11483-0.03704-0.19262-0.03704-0.20373 0-0.38894 0.14446-0.51118 0.37042h-0.011113l-0.025929-0.32597h-0.25188z"/>
   <path d="m5.8352 24.783h0.3556l0.63712-1.8002h-0.30004l-0.34078 1.0224c-0.051858 0.1778-0.11113 0.3593-0.16298 0.5297h-0.014817c-0.055562-0.17039-0.11483-0.3519-0.16669-0.5297l-0.34078-1.0224h-0.31485z"/>
   <path d="m7.0275 23.886c0 0.58896 0.38153 0.94086 0.86307 0.94086 0.24448 0 0.43709-0.0852 0.59267-0.18521l-0.10742-0.20002c-0.13335 0.0852-0.27781 0.14076-0.4482 0.14076-0.34449 0-0.57785-0.24448-0.60008-0.63341h1.215c0.00741-0.04445 0.011112-0.10372 0.011112-0.16669 0-0.51488-0.25929-0.84455-0.71861-0.84455-0.41116 0-0.80751 0.3593-0.80751 0.94827zm0.29633-0.13706c0.037042-0.36301 0.2667-0.57044 0.51858-0.57044 0.28152 0 0.4445 0.20373 0.4445 0.57044z"/>
   <path d="m8.9985 24.783h0.30374v-1.1557c0.12224-0.30374 0.30374-0.41487 0.45561-0.41487 0.074083 0 0.11483 0.01111 0.1741 0.02963l0.059267-0.2667c-0.059267-0.02593-0.11483-0.03704-0.19262-0.03704-0.20373 0-0.38894 0.14446-0.51118 0.37042h-0.011113l-0.025929-0.32597h-0.25188z"/>
  </g>
  <g aria-label="Client">
   <path d="m1.1481 7.6926c0 0.79269 0.45561 1.2594 1.0668 1.2594 0.30745 0 0.54822-0.12965 0.73713-0.3519l-0.1741-0.18891c-0.15558 0.1741-0.32597 0.2704-0.55563 0.2704-0.46302 0-0.75565-0.38523-0.75565-0.99642 0-0.60378 0.30745-0.98161 0.77047-0.98161 0.20003 0 0.3556 0.0889 0.48525 0.22595l0.1741-0.19632c-0.14446-0.15928-0.37412-0.30004-0.66305-0.30004-0.6223 0-1.0853 0.47784-1.0853 1.2594z"/>
   <path d="m3.3684 8.5446c0 0.263 0.092604 0.40746 0.32226 0.40746 0.081492 0 0.13335-0.011112 0.1741-0.029633l-0.040746-0.22966c-0.033338 0.00741-0.048154 0.00741-0.066675 0.00741-0.04445 0-0.085196-0.037042-0.085196-0.13335v-2.2966h-0.30374z"/>
   <path d="m4.4717 6.7369c0.11853 0 0.21114-0.081492 0.21114-0.19632 0-0.11853-0.092604-0.19632-0.21114-0.19632-0.11853 0-0.21114 0.077788-0.21114 0.19632 0 0.11483 0.092604 0.19632 0.21114 0.19632zm-0.15558 2.1706h0.30374v-1.8002h-0.30374z"/>
   <path d="m5.0944 8.0112c0 0.58896 0.38153 0.94086 0.86307 0.94086 0.24448 0 0.43709-0.085196 0.59267-0.18521l-0.10742-0.20003c-0.13335 0.085196-0.27781 0.14076-0.4482 0.14076-0.34449 0-0.57785-0.24448-0.60008-0.63341h1.215c0.00741-0.04445 0.011113-0.10372 0.011113-0.16669 0-0.51488-0.25929-0.84455-0.71861-0.84455-0.41116 0-0.80751 0.3593-0.80751 0.94827zm0.29633-0.13705c0.037042-0.36301 0.2667-0.57044 0.51858-0.57044 0.28152 0 0.4445 0.20373 0.4445 0.57044z"/>
   <path d="m7.0653 8.9076h0.30374v-1.3039c0.1815-0.1815 0.30745-0.27781 0.49265-0.27781 0.23707 0 0.34078 0.14446 0.34078 0.48154v1.1001h0.30374v-1.1409c0-0.45932-0.17039-0.70379-0.54822-0.70379-0.24818 0-0.43339 0.13335-0.60378 0.30374h-0.011112l-0.025929-0.25929h-0.25188z"/>
   <path d="m9.1429 8.352c0 0.3556 0.12965 0.60008 0.51488 0.60008 0.11113 0 0.23336-0.033338 0.33338-0.066675l-0.059267-0.22966c-0.059267 0.022225-0.14076 0.048154-0.20373 0.048154-0.20743 0-0.27781-0.12594-0.27781-0.34819v-1.0001h0.48525v-0.24818h-0.48525v-0.50377h-0.25559l-0.037042 0.50377-0.28152 0.018521v0.22966h0.2667z"/>
  </g>
 </g>
 <rect transform="rotate(-90)" x="-11.574" y="12.011" width="7.9375" height="87.312" fill="#1d232d" stroke="#535e70" stroke-linecap="round" stroke-width=".13229"/>
 <g fill="none" stroke="#535e70" stroke-linecap="square" stroke-width=".13229">
  <path d="m19.949 11.574v-7.9375" style="paint-order:normal"/>
  <path d="m27.886 11.574v-7.9375" style="paint-order:normal"/>
  <path d="m35.824 11.574v-7.9375" style="paint-order:normal"/>
  <path d="m43.761 11.574v-7.9375" style="paint-order:normal"/>
  <path d="m51.699 11.574v-7.9375" style="paint-order:normal"/>
  <path d="m59.636 11.574v-7.9375" style="paint-order:normal"/>
  <path d="m67.574 11.574v-7.9375" style="paint-order:normal"/>
  <path d="m75.511 11.574v-7.9375" style="paint-order:normal"/>
  <path d="m83.449 11.574v-7.9375" style="paint-order:normal"/>
  <path d="m91.386 11.574v-7.9375" style="paint-order:normal"/>
 </g>
 <g fill="#d2d6dc" stroke-width=".28222px">
  <g opacity=".91" aria-label="0°">
   <path d="m15.641 29.222c-0.31432 0-0.63818 0.38735-0.63818 1.0192 0 0.64135 0.32702 1.0096 0.64135 1.0096 0.28575 0 0.62548-0.31115 0.62548-0.99378 0-0.6731-0.32385-1.035-0.62865-1.035zm0.30798 0.45402-0.69532 0.9017c-0.02858-0.11112-0.04445-0.23495-0.04445-0.37465 0-0.508 0.23178-0.7874 0.42862-0.7874 0.10795 0 0.22542 0.08573 0.31115 0.26035zm0.07302 0.20955c0.02858 0.11112 0.04128 0.24448 0.04128 0.40005 0 0.55245-0.23812 0.762-0.41275 0.762-0.11748 0-0.23812-0.09525-0.32385-0.26988z"/>
   <path d="m17.67 29.612c0-0.23495-0.1905-0.42545-0.42862-0.42545-0.23495 0-0.42862 0.1905-0.42862 0.42545s0.19368 0.42545 0.42862 0.42545c0.23812 0 0.42862-0.1905 0.42862-0.42545zm-0.42545-0.25718c0.13018 0 0.23812 0.11112 0.23812 0.254s-0.10795 0.254-0.23812 0.254c-0.127 0-0.23495-0.11112-0.23495-0.254s0.10795-0.254 0.23495-0.254z"/>
  </g>
  <g opacity=".91" aria-label="20°">
   <path d="m22.232 29.542 0.16192 0.13018c0.01905-0.02858 0.0095-0.04763 0.02858-0.07302 0.04763-0.07303 0.1651-0.18098 0.33655-0.18098 0.21272 0 0.381 0.16192 0.381 0.37465 0 0.2413-0.2032 0.41592-0.34608 0.5461-0.22542 0.2032-0.40958 0.4064-0.57468 0.73342v0.1397h1.162v-0.21908c-0.02223-0.0095-0.0381 0.0063-0.04445 0.0127-0.0127 0.0127-0.01905 0.0127-0.03175 0.0127h-0.83185c0.1651-0.28575 0.39688-0.4826 0.53975-0.61595 0.14288-0.13652 0.34608-0.33972 0.34608-0.62548 0-0.30798-0.25082-0.55562-0.5715-0.55562-0.22542 0-0.43815 0.12065-0.55562 0.32068z"/>
   <path d="m24.372 29.222c-0.31432 0-0.63818 0.38735-0.63818 1.0192 0 0.64135 0.32702 1.0096 0.64135 1.0096 0.28575 0 0.62548-0.31115 0.62548-0.99378 0-0.6731-0.32385-1.035-0.62865-1.035zm0.30798 0.45402-0.69532 0.9017c-0.02858-0.11112-0.04445-0.23495-0.04445-0.37465 0-0.508 0.23178-0.7874 0.42862-0.7874 0.10795 0 0.22542 0.08573 0.31115 0.26035zm0.07302 0.20955c0.02858 0.11112 0.04128 0.24448 0.04128 0.40005 0 0.55245-0.23812 0.762-0.41275 0.762-0.11748 0-0.23812-0.09525-0.32385-0.26988z"/>
   <path d="m26.401 29.612c0-0.23495-0.1905-0.42545-0.42862-0.42545-0.23495 0-0.42862 0.1905-0.42862 0.42545s0.19368 0.42545 0.42862 0.42545c0.23812 0 0.42862-0.1905 0.42862-0.42545zm-0.42545-0.25718c0.13018 0 0.23812 0.11112 0.23812 0.254s-0.10795 0.254-0.23812 0.254c-0.127 0-0.23495-0.11112-0.23495-0.254s0.10795-0.254 0.23495-0.254z"/>
  </g>
  <g opacity=".91" aria-label="40°">
   <path d="m30.919 29.234-0.84138 1.2668v0.1651h0.79692v0.5461h0.2286v-0.54292h0.25718v-0.19685h-0.25718v-1.2382zm-0.04127 0.35242v0.88582h-0.58102z"/>
   <path d="m32.31 29.222c-0.31432 0-0.63818 0.38735-0.63818 1.0192 0 0.64135 0.32702 1.0096 0.64135 1.0096 0.28575 0 0.62548-0.31115 0.62548-0.99378 0-0.6731-0.32385-1.035-0.62865-1.035zm0.30798 0.45402-0.69532 0.9017c-0.02858-0.11112-0.04445-0.23495-0.04445-0.37465 0-0.508 0.23178-0.7874 0.42862-0.7874 0.10795 0 0.22542 0.08573 0.31115 0.26035zm0.07303 0.20955c0.02857 0.11112 0.04127 0.24448 0.04127 0.40005 0 0.55245-0.23812 0.762-0.41275 0.762-0.11748 0-0.23812-0.09525-0.32385-0.26988z"/>
   <path d="m34.339 29.612c0-0.23495-0.1905-0.42545-0.42862-0.42545-0.23495 0-0.42862 0.1905-0.42862 0.42545s0.19368 0.42545 0.42862 0.42545c0.23812 0 0.42862-0.1905 0.42862-0.42545zm-0.42545-0.25718c0.13018 0 0.23812 0.11112 0.23812 0.254s-0.10795 0.254-0.23812 0.254c-0.127 0-0.23495-0.11112-0.23495-0.254s0.10795-0.254 0.23495-0.254z"/>
  </g>
  <g opacity=".91" aria-label="60°">
   <path d="m38.774 29.212c-0.23812 0-0.49212 0.14605-0.61595 0.49212-0.06667 0.18732-0.08255 0.4191-0.08255 0.6096 0 0.23178 0.02222 0.47942 0.14922 0.66992 0.1143 0.17462 0.2921 0.26352 0.46672 0.26352 0.30162 0 0.56515-0.254 0.56515-0.66358s-0.26352-0.6477-0.54292-0.6477c-0.17145 0-0.33338 0.09207-0.4191 0.23812 0.0127-0.67628 0.33655-0.76518 0.47942-0.76518 0.13018 0 0.21908 0.06985 0.23178 0.08255 0.01905 0.02223 0.01905 0.0508 0.04763 0.07303l0.1524-0.17145c-0.1143-0.1143-0.27305-0.18098-0.4318-0.18098zm-0.08255 0.92075c0.15875 0 0.34925 0.12382 0.34925 0.46355 0 0.30798-0.17145 0.45402-0.33972 0.45402-0.2413 0-0.42228-0.28258-0.39688-0.65405 0.0889-0.16192 0.2413-0.26352 0.38735-0.26352z"/>
   <path d="m40.247 29.222c-0.31432 0-0.63818 0.38735-0.63818 1.0192 0 0.64135 0.32702 1.0096 0.64135 1.0096 0.28575 0 0.62548-0.31115 0.62548-0.99378 0-0.6731-0.32385-1.035-0.62865-1.035zm0.30798 0.45402-0.69532 0.9017c-0.02857-0.11112-0.04445-0.23495-0.04445-0.37465 0-0.508 0.23178-0.7874 0.42862-0.7874 0.10795 0 0.22542 0.08573 0.31115 0.26035zm0.07303 0.20955c0.02857 0.11112 0.04127 0.24448 0.04127 0.40005 0 0.55245-0.23812 0.762-0.41275 0.762-0.11748 0-0.23812-0.09525-0.32385-0.26988z"/>
   <path d="m42.276 29.612c0-0.23495-0.1905-0.42545-0.42862-0.42545-0.23495 0-0.42862 0.1905-0.42862 0.42545s0.19368 0.42545 0.42862 0.42545c0.23812 0 0.42862-0.1905 0.42862-0.42545zm-0.42545-0.25718c0.13018 0 0.23812 0.11112 0.23812 0.254s-0.10795 0.254-0.23812 0.254c-0.127 0-0.23495-0.11112-0.23495-0.254s0.10795-0.254 0.23495-0.254z"/>
  </g>
  <g opacity=".91" aria-label="80°">
   <path d="m46.62 29.212c-0.3048 0-0.53658 0.21908-0.53658 0.48578 0 0.19368 0.12382 0.37148 0.30162 0.46355-0.23495 0.11112-0.3937 0.32702-0.3937 0.55562 0 0.29528 0.26035 0.53022 0.60008 0.53022 0.34608 0 0.6096-0.2413 0.6096-0.54292 0-0.23495-0.15875-0.4445-0.381-0.54928 0.1905-0.09843 0.31432-0.28575 0.31432-0.47625 0-0.26035-0.22542-0.46672-0.51435-0.46672zm-0.06668 1.0414c0.254 0.07937 0.42228 0.254 0.42228 0.44768 0 0.1905-0.16192 0.34608-0.37465 0.34608-0.2159 0-0.381-0.16192-0.381-0.35878 0-0.18732 0.14605-0.35878 0.33338-0.43498zm0.04763-0.85725c0.1778 0 0.3175 0.13335 0.3175 0.29845 0 0.1524-0.11748 0.29845-0.27305 0.381 0 0-0.34925-0.13335-0.34925-0.39688 0-0.15558 0.13335-0.28258 0.3048-0.28258z"/>
   <path d="m48.185 29.222c-0.31432 0-0.63818 0.38735-0.63818 1.0192 0 0.64135 0.32702 1.0096 0.64135 1.0096 0.28575 0 0.62548-0.31115 0.62548-0.99378 0-0.6731-0.32385-1.035-0.62865-1.035zm0.30798 0.45402-0.69532 0.9017c-0.02857-0.11112-0.04445-0.23495-0.04445-0.37465 0-0.508 0.23178-0.7874 0.42862-0.7874 0.10795 0 0.22542 0.08573 0.31115 0.26035zm0.07303 0.20955c0.02857 0.11112 0.04127 0.24448 0.04127 0.40005 0 0.55245-0.23812 0.762-0.41275 0.762-0.11748 0-0.23812-0.09525-0.32385-0.26988z"/>
   <path d="m50.214 29.612c0-0.23495-0.1905-0.42545-0.42862-0.42545-0.23495 0-0.42862 0.1905-0.42862 0.42545s0.19368 0.42545 0.42862 0.42545c0.23812 0 0.42862-0.1905 0.42862-0.42545zm-0.42545-0.25718c0.13018 0 0.23812 0.11112 0.23812 0.254s-0.10795 0.254-0.23812 0.254c-0.127 0-0.23495-0.11112-0.23495-0.254s0.10795-0.254 0.23495-0.254z"/>
  </g>
  <g opacity=".91" aria-label="100°">
   <path d="m53.887 29.234h-0.14605l-0.508 0.26352 0.0508 0.12382 0.3937-0.11112v1.5304h-0.3683v0.17462h0.93345v-0.17462h-0.3556z"/>
   <path d="m55.329 29.222c-0.31432 0-0.63818 0.38735-0.63818 1.0192 0 0.64135 0.32702 1.0096 0.64135 1.0096 0.28575 0 0.62548-0.31115 0.62548-0.99378 0-0.6731-0.32385-1.035-0.62865-1.035zm0.30798 0.45402-0.69532 0.9017c-0.02858-0.11112-0.04445-0.23495-0.04445-0.37465 0-0.508 0.23178-0.7874 0.42862-0.7874 0.10795 0 0.22542 0.08573 0.31115 0.26035zm0.07303 0.20955c0.02857 0.11112 0.04127 0.24448 0.04127 0.40005 0 0.55245-0.23812 0.762-0.41275 0.762-0.11748 0-0.23812-0.09525-0.32385-0.26988z"/>
   <path d="m56.916 29.222c-0.31432 0-0.63818 0.38735-0.63818 1.0192 0 0.64135 0.32702 1.0096 0.64135 1.0096 0.28575 0 0.62547-0.31115 0.62547-0.99378 0-0.6731-0.32385-1.035-0.62865-1.035zm0.30797 0.45402-0.69532 0.9017c-0.02858-0.11112-0.04445-0.23495-0.04445-0.37465 0-0.508 0.23178-0.7874 0.42862-0.7874 0.10795 0 0.22542 0.08573 0.31115 0.26035zm0.07303 0.20955c0.02857 0.11112 0.04127 0.24448 0.04127 0.40005 0 0.55245-0.23812 0.762-0.41275 0.762-0.11748 0-0.23812-0.09525-0.32385-0.26988z"/>
   <path d="m58.945 29.612c0-0.23495-0.1905-0.42545-0.42862-0.42545-0.23495 0-0.42862 0.1905-0.42862 0.42545s0.19368 0.42545 0.42862 0.42545c0.23812 0 0.42862-0.1905 0.42862-0.42545zm-0.42545-0.25718c0.13018 0 0.23812 0.11112 0.23812 0.254s-0.10795 0.254-0.23812 0.254c-0.127 0-0.23495-0.11112-0.23495-0.254s0.10795-0.254 0.23495-0.254z"/>
  </g>
  <g opacity=".91" aria-label="120°">
   <path d="m61.825 29.234h-0.14605l-0.508 0.26352 0.0508 0.12382 0.3937-0.11112v1.5304h-0.3683v0.17462h0.93345v-0.17462h-0.3556z"/>
   <path d="m62.714 29.542 0.16192 0.13018c0.01905-0.02858 0.0095-0.04763 0.02857-0.07302 0.04763-0.07303 0.1651-0.18098 0.33655-0.18098 0.21272 0 0.381 0.16192 0.381 0.37465 0 0.2413-0.2032 0.41592-0.34608 0.5461-0.22542 0.2032-0.40958 0.4064-0.57468 0.73342v0.1397h1.162v-0.21908c-0.02223-0.0095-0.0381 0.0063-0.04445 0.0127-0.0127 0.0127-0.01905 0.0127-0.03175 0.0127h-0.83185c0.1651-0.28575 0.39688-0.4826 0.53975-0.61595 0.14288-0.13652 0.34608-0.33972 0.34608-0.62548 0-0.30798-0.25082-0.55562-0.5715-0.55562-0.22542 0-0.43815 0.12065-0.55562 0.32068z"/>
   <path d="m64.854 29.222c-0.31432 0-0.63818 0.38735-0.63818 1.0192 0 0.64135 0.32702 1.0096 0.64135 1.0096 0.28575 0 0.62548-0.31115 0.62548-0.99378 0-0.6731-0.32385-1.035-0.62865-1.035zm0.30798 0.45402-0.69532 0.9017c-0.02858-0.11112-0.04445-0.23495-0.04445-0.37465 0-0.508 0.23178-0.7874 0.42862-0.7874 0.10795 0 0.22542 0.08573 0.31115 0.26035zm0.07303 0.20955c0.02858 0.11112 0.04127 0.24448 0.04127 0.40005 0 0.55245-0.23812 0.762-0.41275 0.762-0.11748 0-0.23812-0.09525-0.32385-0.26988z"/>
   <path d="m66.882 29.612c0-0.23495-0.1905-0.42545-0.42862-0.42545-0.23495 0-0.42862 0.1905-0.42862 0.42545s0.19368 0.42545 0.42862 0.42545c0.23812 0 0.42862-0.1905 0.42862-0.42545zm-0.42545-0.25718c0.13018 0 0.23812 0.11112 0.23812 0.254s-0.10795 0.254-0.23812 0.254c-0.127 0-0.23495-0.11112-0.23495-0.254s0.10795-0.254 0.23495-0.254z"/>
  </g>
  <g opacity=".91" aria-label="140°">
   <path d="m69.762 29.234h-0.14605l-0.508 0.26352 0.0508 0.12382 0.3937-0.11112v1.5304h-0.3683v0.17462h0.93345v-0.17462h-0.3556z"/>
   <path d="m71.4 29.234-0.84138 1.2668v0.1651h0.79692v0.5461h0.2286v-0.54292h0.25718v-0.19685h-0.25718v-1.2382zm-0.04127 0.35242v0.88582h-0.58102z"/>
   <path d="m72.791 29.222c-0.31432 0-0.63818 0.38735-0.63818 1.0192 0 0.64135 0.32702 1.0096 0.64135 1.0096 0.28575 0 0.62548-0.31115 0.62548-0.99378 0-0.6731-0.32385-1.035-0.62865-1.035zm0.30798 0.45402-0.69532 0.9017c-0.02858-0.11112-0.04445-0.23495-0.04445-0.37465 0-0.508 0.23178-0.7874 0.42862-0.7874 0.10795 0 0.22542 0.08573 0.31115 0.26035zm0.07303 0.20955c0.02858 0.11112 0.04127 0.24448 0.04127 0.40005 0 0.55245-0.23812 0.762-0.41275 0.762-0.11748 0-0.23812-0.09525-0.32385-0.26988z"/>
   <path d="m74.82 29.612c0-0.23495-0.1905-0.42545-0.42862-0.42545-0.23495 0-0.42862 0.1905-0.42862 0.42545s0.19368 0.42545 0.42862 0.42545c0.23812 0 0.42862-0.1905 0.42862-0.42545zm-0.42545-0.25718c0.13018 0 0.23812 0.11112 0.23812 0.254s-0.10795 0.254-0.23812 0.254c-0.127 0-0.23495-0.11112-0.23495-0.254s0.10795-0.254 0.23495-0.254z"/>
  </g>
  <g opacity=".91" aria-label="160°">
   <path d="m77.7 29.234h-0.14605l-0.508 0.26352 0.0508 0.12382 0.3937-0.11112v1.5304h-0.3683v0.17462h0.93345v-0.17462h-0.3556z"/>
   <path d="m79.255 29.212c-0.23812 0-0.49212 0.14605-0.61595 0.49212-0.06668 0.18732-0.08255 0.4191-0.08255 0.6096 0 0.23178 0.02223 0.47942 0.14922 0.66992 0.1143 0.17462 0.2921 0.26352 0.46672 0.26352 0.30162 0 0.56515-0.254 0.56515-0.66358s-0.26352-0.6477-0.54292-0.6477c-0.17145 0-0.33338 0.09207-0.4191 0.23812 0.0127-0.67628 0.33655-0.76518 0.47942-0.76518 0.13018 0 0.21908 0.06985 0.23178 0.08255 0.01905 0.02223 0.01905 0.0508 0.04762 0.07303l0.1524-0.17145c-0.1143-0.1143-0.27305-0.18098-0.4318-0.18098zm-0.08255 0.92075c0.15875 0 0.34925 0.12382 0.34925 0.46355 0 0.30798-0.17145 0.45402-0.33972 0.45402-0.2413 0-0.42228-0.28258-0.39688-0.65405 0.0889-0.16192 0.2413-0.26352 0.38735-0.26352z"/>
   <path d="m80.729 29.222c-0.31432 0-0.63818 0.38735-0.63818 1.0192 0 0.64135 0.32702 1.0096 0.64135 1.0096 0.28575 0 0.62548-0.31115 0.62548-0.99378 0-0.6731-0.32385-1.035-0.62865-1.035zm0.30798 0.45402-0.69532 0.9017c-0.02858-0.11112-0.04445-0.23495-0.04445-0.37465 0-0.508 0.23178-0.7874 0.42862-0.7874 0.10795 0 0.22542 0.08573 0.31115 0.26035zm0.07303 0.20955c0.02858 0.11112 0.04127 0.24448 0.04127 0.40005 0 0.55245-0.23812 0.762-0.41275 0.762-0.11748 0-0.23812-0.09525-0.32385-0.26988z"/>
   <path d="m82.757 29.612c0-0.23495-0.1905-0.42545-0.42862-0.42545-0.23495 0-0.42862 0.1905-0.42862 0.42545s0.19368 0.42545 0.42862 0.42545c0.23812 0 0.42862-0.1905 0.42862-0.42545zm-0.42545-0.25718c0.13018 0 0.23812 0.11112 0.23812 0.254s-0.10795 0.254-0.23812 0.254c-0.127 0-0.23495-0.11112-0.23495-0.254s0.10795-0.254 0.23495-0.254z"/>
  </g>
  <g opacity=".91" aria-label="180°">
   <path d="m85.637 29.234h-0.14605l-0.508 0.26352 0.0508 0.12382 0.3937-0.11112v1.5304h-0.3683v0.17462h0.93345v-0.17462h-0.3556z"/>
   <path d="m87.101 29.212c-0.3048 0-0.53658 0.21908-0.53658 0.48578 0 0.19368 0.12382 0.37148 0.30162 0.46355-0.23495 0.11112-0.3937 0.32702-0.3937 0.55562 0 0.29528 0.26035 0.53022 0.60008 0.53022 0.34608 0 0.6096-0.2413 0.6096-0.54292 0-0.23495-0.15875-0.4445-0.381-0.54928 0.1905-0.09843 0.31432-0.28575 0.31432-0.47625 0-0.26035-0.22542-0.46672-0.51435-0.46672zm-0.06667 1.0414c0.254 0.07937 0.42228 0.254 0.42228 0.44768 0 0.1905-0.16192 0.34608-0.37465 0.34608-0.2159 0-0.381-0.16192-0.381-0.35878 0-0.18732 0.14605-0.35878 0.33338-0.43498zm0.04762-0.85725c0.1778 0 0.3175 0.13335 0.3175 0.29845 0 0.1524-0.11748 0.29845-0.27305 0.381 0 0-0.34925-0.13335-0.34925-0.39688 0-0.15558 0.13335-0.28258 0.3048-0.28258z"/>
   <path d="m88.666 29.222c-0.31432 0-0.63818 0.38735-0.63818 1.0192 0 0.64135 0.32702 1.0096 0.64135 1.0096 0.28575 0 0.62548-0.31115 0.62548-0.99378 0-0.6731-0.32385-1.035-0.62865-1.035zm0.30798 0.45402-0.69532 0.9017c-0.02858-0.11112-0.04445-0.23495-0.04445-0.37465 0-0.508 0.23178-0.7874 0.42862-0.7874 0.10795 0 0.22542 0.08573 0.31115 0.26035zm0.07303 0.20955c0.02858 0.11112 0.04127 0.24448 0.04127 0.40005 0 0.55245-0.23812 0.762-0.41275 0.762-0.11748 0-0.23812-0.09525-0.32385-0.26988z"/>
   <path d="m90.695 29.612c0-0.23495-0.1905-0.42545-0.42862-0.42545-0.23495 0-0.42862 0.1905-0.42862 0.42545s0.19368 0.42545 0.42862 0.42545c0.23812 0 0.42862-0.1905 0.42862-0.42545zm-0.42545-0.25718c0.13018 0 0.23812 0.11112 0.23812 0.254s-0.10795 0.254-0.23812 0.254c-0.127 0-0.23495-0.11112-0.23495-0.254s0.10795-0.254 0.23495-0.254z"/>
  </g>
  <g opacity=".91" aria-label="200°">
   <path d="m92.876 29.542 0.16192 0.13018c0.01905-0.02858 0.0095-0.04763 0.02858-0.07302 0.04762-0.07303 0.1651-0.18098 0.33655-0.18098 0.21272 0 0.381 0.16192 0.381 0.37465 0 0.2413-0.2032 0.41592-0.34608 0.5461-0.22542 0.2032-0.40958 0.4064-0.57468 0.73342v0.1397h1.162v-0.21908c-0.02223-0.0095-0.0381 0.0063-0.04445 0.0127-0.0127 0.0127-0.01905 0.0127-0.03175 0.0127h-0.83185c0.1651-0.28575 0.39688-0.4826 0.53975-0.61595 0.14288-0.13652 0.34608-0.33972 0.34608-0.62548 0-0.30798-0.25082-0.55562-0.5715-0.55562-0.22542 0-0.43815 0.12065-0.55562 0.32068z"/>
   <path d="m95.016 29.222c-0.31432 0-0.63818 0.38735-0.63818 1.0192 0 0.64135 0.32702 1.0096 0.64135 1.0096 0.28575 0 0.62548-0.31115 0.62548-0.99378 0-0.6731-0.32385-1.035-0.62865-1.035zm0.30798 0.45402-0.69532 0.9017c-0.02858-0.11112-0.04445-0.23495-0.04445-0.37465 0-0.508 0.23178-0.7874 0.42862-0.7874 0.10795 0 0.22542 0.08573 0.31115 0.26035zm0.07303 0.20955c0.02857 0.11112 0.04127 0.24448 0.04127 0.40005 0 0.55245-0.23812 0.762-0.41275 0.762-0.11748 0-0.23812-0.09525-0.32385-0.26988z"/>
   <path d="m96.604 29.222c-0.31432 0-0.63818 0.38735-0.63818 1.0192 0 0.64135 0.32702 1.0096 0.64135 1.0096 0.28575 0 0.62548-0.31115 0.62548-0.99378 0-0.6731-0.32385-1.035-0.62865-1.035zm0.30798 0.45402-0.69532 0.9017c-0.02858-0.11112-0.04445-0.23495-0.04445-0.37465 0-0.508 0.23178-0.7874 0.42862-0.7874 0.10795 0 0.22542 0.08573 0.31115 0.26035zm0.07303 0.20955c0.02858 0.11112 0.04127 0.24448 0.04127 0.40005 0 0.55245-0.23812 0.762-0.41275 0.762-0.11748 0-0.23812-0.09525-0.32385-0.26988z"/>
   <path d="m98.632 29.612c0-0.23495-0.1905-0.42545-0.42862-0.42545-0.23495 0-0.42862 0.1905-0.42862 0.42545s0.19368 0.42545 0.42862 0.42545c0.23812 0 0.42862-0.1905 0.42862-0.42545zm-0.42545-0.25718c0.13018 0 0.23812 0.11112 0.23812 0.254s-0.10795 0.254-0.23812 0.254c-0.127 0-0.23495-0.11112-0.23495-0.254s0.10795-0.254 0.23495-0.254z"/>
  </g>
  <g opacity=".91" aria-label="null">
   <path d="m13.473 2.1082h0.23178v-0.83502c0-0.09525 0.0127-0.16828 0.07302-0.24765 0.05398-0.073025 0.19368-0.2032 0.34608-0.2032 0.07302 0 0.14605 0.03175 0.19685 0.092075 0.07938 0.09525 0.07938 0.21908 0.07938 0.32068v0.87312h0.22542v-0.87948c0-0.11112 0-0.23178-0.0508-0.34925-0.07302-0.16192-0.22225-0.254-0.38735-0.254-0.19685 0-0.37465 0.127-0.4826 0.28892v-0.254h-0.23178z"/>
   <path d="m15.041 0.6604v0.80963c0 0.12382 0 0.25082 0.05715 0.381 0.08255 0.1905 0.26035 0.29528 0.45085 0.29528 0.18098 0 0.35242-0.098425 0.44768-0.25718l-0.0032 0.10795c0 0.0381 0 0.0762 0.0063 0.11112h0.2413c-0.01587-0.041275-0.01905-0.0889-0.01905-0.13018v-1.3176h-0.2286v0.79693c0 0.11112-0.0095 0.19685-0.05715 0.28575-0.06668 0.12382-0.19685 0.2159-0.33655 0.2159-0.11112 0-0.21908-0.0635-0.27622-0.1778-0.0508-0.1016-0.0508-0.2159-0.0508-0.31115v-0.80963z"/>
   <path d="m16.698 1.049e-7v0.18415h0.41275v1.7431h-0.4318v0.18098h1.089v-0.18098h-0.42862v-1.9272z"/>
   <path d="m18.286 1.049e-7v0.18415h0.41275v1.7431h-0.4318v0.18098h1.089v-0.18098h-0.42862v-1.9272z"/>
  </g>
  <g opacity=".91" aria-label="60°">
   <path d="m62.587 0.10795c-0.23812 0-0.49212 0.14605-0.61595 0.49212-0.06667 0.18732-0.08255 0.4191-0.08255 0.6096 0 0.23178 0.02222 0.47942 0.14922 0.66992 0.1143 0.17462 0.2921 0.26352 0.46672 0.26352 0.30162 0 0.56515-0.254 0.56515-0.66358s-0.26352-0.6477-0.54292-0.6477c-0.17145 0-0.33338 0.092075-0.4191 0.23813 0.0127-0.67628 0.33655-0.76518 0.47942-0.76518 0.13018 0 0.21908 0.06985 0.23178 0.08255 0.01905 0.022225 0.01905 0.0508 0.04762 0.073025l0.1524-0.17145c-0.1143-0.1143-0.27305-0.18098-0.4318-0.18098zm-0.08255 0.92075c0.15875 0 0.34925 0.12382 0.34925 0.46355 0 0.30798-0.17145 0.45402-0.33972 0.45402-0.2413 0-0.42228-0.28258-0.39688-0.65405 0.0889-0.16192 0.2413-0.26352 0.38735-0.26352z"/>
   <path d="m64.06 0.11748c-0.31432 0-0.63818 0.38735-0.63818 1.0192 0 0.64135 0.32702 1.0096 0.64135 1.0096 0.28575 0 0.62548-0.31115 0.62548-0.99378 0-0.6731-0.32385-1.035-0.62865-1.035zm0.30798 0.45402-0.69532 0.9017c-0.02858-0.11112-0.04445-0.23495-0.04445-0.37465 0-0.508 0.23178-0.7874 0.42862-0.7874 0.10795 0 0.22542 0.085725 0.31115 0.26035zm0.07302 0.20955c0.02858 0.11112 0.04128 0.24448 0.04128 0.40005 0 0.55245-0.23812 0.762-0.41275 0.762-0.11748 0-0.23812-0.09525-0.32385-0.26988z"/>
   <path d="m66.089 0.508c0-0.23495-0.1905-0.42545-0.42862-0.42545-0.23495 0-0.42862 0.1905-0.42862 0.42545 0 0.23495 0.19368 0.42545 0.42862 0.42545 0.23812 0 0.42862-0.1905 0.42862-0.42545zm-0.42545-0.25718c0.13018 0 0.23812 0.11112 0.23812 0.254s-0.10795 0.254-0.23812 0.254c-0.127 0-0.23495-0.11112-0.23495-0.254s0.10795-0.254 0.23495-0.254z"/>
  </g>
  <g opacity=".91" aria-label="120°">
   <path d="m85.637 0.13018h-0.14605l-0.508 0.26352 0.0508 0.12382 0.3937-0.11112v1.5304h-0.3683v0.17462h0.93345v-0.17462h-0.3556z"/>
   <path d="m86.526 0.43815 0.16192 0.13018c0.01905-0.028575 0.0095-0.047625 0.02858-0.073025 0.04762-0.073025 0.1651-0.18098 0.33655-0.18098 0.21272 0 0.381 0.16192 0.381 0.37465 0 0.2413-0.2032 0.41593-0.34608 0.5461-0.22542 0.2032-0.40958 0.4064-0.57468 0.73342v0.1397h1.162v-0.21908c-0.02222-0.00953-0.0381 0.00635-0.04445 0.0127-0.0127 0.0127-0.01905 0.0127-0.03175 0.0127h-0.83185c0.1651-0.28575 0.39688-0.4826 0.53975-0.61595 0.14288-0.13652 0.34608-0.33973 0.34608-0.62548 0-0.30797-0.25082-0.55562-0.5715-0.55562-0.22542 0-0.43815 0.12065-0.55562 0.32068z"/>
   <path d="m88.666 0.11748c-0.31432 0-0.63818 0.38735-0.63818 1.0192 0 0.64135 0.32702 1.0096 0.64135 1.0096 0.28575 0 0.62548-0.31115 0.62548-0.99378 0-0.6731-0.32385-1.035-0.62865-1.035zm0.30798 0.45402-0.69532 0.9017c-0.02858-0.11112-0.04445-0.23495-0.04445-0.37465 0-0.508 0.23178-0.7874 0.42862-0.7874 0.10795 0 0.22542 0.085725 0.31115 0.26035zm0.07303 0.20955c0.02858 0.11112 0.04127 0.24448 0.04127 0.40005 0 0.55245-0.23812 0.762-0.41275 0.762-0.11748 0-0.23812-0.09525-0.32385-0.26988z"/>
   <path d="m90.695 0.508c0-0.23495-0.1905-0.42545-0.42862-0.42545-0.23495 0-0.42862 0.1905-0.42862 0.42545 0 0.23495 0.19368 0.42545 0.42862 0.42545 0.23812 0 0.42862-0.1905 0.42862-0.42545zm-0.42545-0.25718c0.13018 0 0.23812 0.11112 0.23812 0.254s-0.10795 0.254-0.23812 0.254c-0.127 0-0.23495-0.11112-0.23495-0.254s0.10795-0.254 0.23495-0.254z"/>
  </g>
  <g opacity=".91" aria-label="180°">
   <path d="m93.575 0.13018h-0.14605l-0.508 0.26352 0.0508 0.12382 0.3937-0.11112v1.5304h-0.3683v0.17462h0.93345v-0.17462h-0.3556z"/>
   <path d="m95.038 0.10795c-0.3048 0-0.53658 0.21908-0.53658 0.48578 0 0.19367 0.12382 0.37147 0.30162 0.46355-0.23495 0.11112-0.3937 0.32702-0.3937 0.55562 0 0.29528 0.26035 0.53022 0.60008 0.53022 0.34608 0 0.6096-0.2413 0.6096-0.54292 0-0.23495-0.15875-0.4445-0.381-0.54928 0.1905-0.098425 0.31432-0.28575 0.31432-0.47625 0-0.26035-0.22542-0.46672-0.51435-0.46672zm-0.06667 1.0414c0.254 0.079375 0.42228 0.254 0.42228 0.44768 0 0.1905-0.16192 0.34608-0.37465 0.34608-0.2159 0-0.381-0.16192-0.381-0.35878 0-0.18732 0.14605-0.35878 0.33338-0.43498zm0.04762-0.85725c0.1778 0 0.3175 0.13335 0.3175 0.29845 0 0.1524-0.11748 0.29845-0.27305 0.381 0 0-0.34925-0.13335-0.34925-0.39687 0-0.15558 0.13335-0.28258 0.3048-0.28258z"/>
   <path d="m96.604 0.11748c-0.31432 0-0.63818 0.38735-0.63818 1.0192 0 0.64135 0.32702 1.0096 0.64135 1.0096 0.28575 0 0.62548-0.31115 0.62548-0.99378 0-0.6731-0.32385-1.035-0.62865-1.035zm0.30798 0.45402-0.69532 0.9017c-0.02858-0.11112-0.04445-0.23495-0.04445-0.37465 0-0.508 0.23178-0.7874 0.42862-0.7874 0.10795 0 0.22542 0.085725 0.31115 0.26035zm0.07303 0.20955c0.02858 0.11112 0.04127 0.24448 0.04127 0.40005 0 0.55245-0.23812 0.762-0.41275 0.762-0.11748 0-0.23812-0.09525-0.32385-0.26988z"/>
   <path d="m98.632 0.508c0-0.23495-0.1905-0.42545-0.42862-0.42545-0.23495 0-0.42862 0.1905-0.42862 0.42545 0 0.23495 0.19368 0.42545 0.42862 0.42545 0.23812 0 0.42862-0.1905 0.42862-0.42545zm-0.42545-0.25718c0.13018 0 0.23812 0.11112 0.23812 0.254s-0.10795 0.254-0.23812 0.254c-0.127 0-0.23495-0.11112-0.23495-0.254s0.10795-0.254 0.23495-0.254z"/>
  </g>
  <g opacity=".91" aria-label="120°">
   <path d="m77.7 0.13018h-0.14605l-0.508 0.26352 0.0508 0.12382 0.3937-0.11112v1.5304h-0.3683v0.17462h0.93345v-0.17462h-0.3556z"/>
   <path d="m78.589 0.43815 0.16192 0.13018c0.01905-0.028575 0.0095-0.047625 0.02858-0.073025 0.04762-0.073025 0.1651-0.18098 0.33655-0.18098 0.21272 0 0.381 0.16192 0.381 0.37465 0 0.2413-0.2032 0.41593-0.34608 0.5461-0.22542 0.2032-0.40958 0.4064-0.57468 0.73342v0.1397h1.162v-0.21908c-0.02222-0.00953-0.0381 0.00635-0.04445 0.0127-0.0127 0.0127-0.01905 0.0127-0.03175 0.0127h-0.83185c0.1651-0.28575 0.39688-0.4826 0.53975-0.61595 0.14288-0.13652 0.34608-0.33973 0.34608-0.62548 0-0.30797-0.25082-0.55562-0.5715-0.55562-0.22542 0-0.43815 0.12065-0.55562 0.32068z"/>
   <path d="m80.729 0.11748c-0.31432 0-0.63818 0.38735-0.63818 1.0192 0 0.64135 0.32702 1.0096 0.64135 1.0096 0.28575 0 0.62548-0.31115 0.62548-0.99378 0-0.6731-0.32385-1.035-0.62865-1.035zm0.30798 0.45402-0.69532 0.9017c-0.02858-0.11112-0.04445-0.23495-0.04445-0.37465 0-0.508 0.23178-0.7874 0.42862-0.7874 0.10795 0 0.22542 0.085725 0.31115 0.26035zm0.07303 0.20955c0.02858 0.11112 0.04127 0.24448 0.04127 0.40005 0 0.55245-0.23812 0.762-0.41275 0.762-0.11748 0-0.23812-0.09525-0.32385-0.26988z"/>
   <path d="m82.757 0.508c0-0.23495-0.1905-0.42545-0.42862-0.42545-0.23495 0-0.42862 0.1905-0.42862 0.42545 0 0.23495 0.19368 0.42545 0.42862 0.42545 0.23812 0 0.42862-0.1905 0.42862-0.42545zm-0.42545-0.25718c0.13018 0 0.23812 0.11112 0.23812 0.254s-0.10795 0.254-0.23812 0.254c-0.127 0-0.23495-0.11112-0.23495-0.254s0.10795-0.254 0.23495-0.254z"/>
  </g>
  <g opacity=".91" aria-label="120°">
   <path d="m69.762 0.13018h-0.14605l-0.508 0.26352 0.0508 0.12382 0.3937-0.11112v1.5304h-0.3683v0.17462h0.93345v-0.17462h-0.3556z"/>
   <path d="m70.651 0.43815 0.16192 0.13018c0.01905-0.028575 0.0095-0.047625 0.02858-0.073025 0.04762-0.073025 0.1651-0.18098 0.33655-0.18098 0.21272 0 0.381 0.16192 0.381 0.37465 0 0.2413-0.2032 0.41593-0.34608 0.5461-0.22542 0.2032-0.40958 0.4064-0.57468 0.73342v0.1397h1.162v-0.21908c-0.02222-0.00953-0.0381 0.00635-0.04445 0.0127-0.0127 0.0127-0.01905 0.0127-0.03175 0.0127h-0.83185c0.1651-0.28575 0.39688-0.4826 0.53975-0.61595 0.14288-0.13652 0.34608-0.33973 0.34608-0.62548 0-0.30797-0.25082-0.55562-0.5715-0.55562-0.22542 0-0.43815 0.12065-0.55562 0.32068z"/>
   <path d="m72.791 0.11748c-0.31432 0-0.63818 0.38735-0.63818 1.0192 0 0.64135 0.32702 1.0096 0.64135 1.0096 0.28575 0 0.62548-0.31115 0.62548-0.99378 0-0.6731-0.32385-1.035-0.62865-1.035zm0.30798 0.45402-0.69532 0.9017c-0.02858-0.11112-0.04445-0.23495-0.04445-0.37465 0-0.508 0.23178-0.7874 0.42862-0.7874 0.10795 0 0.22542 0.085725 0.31115 0.26035zm0.07303 0.20955c0.02858 0.11112 0.04127 0.24448 0.04127 0.40005 0 0.55245-0.23812 0.762-0.41275 0.762-0.11748 0-0.23812-0.09525-0.32385-0.26988z"/>
   <path d="m74.82 0.508c0-0.23495-0.1905-0.42545-0.42862-0.42545-0.23495 0-0.42862 0.1905-0.42862 0.42545 0 0.23495 0.19368 0.42545 0.42862 0.42545 0.23812 0 0.42862-0.1905 0.42862-0.42545zm-0.42545-0.25718c0.13018 0 0.23812 0.11112 0.23812 0.254s-0.10795 0.254-0.23812 0.254c-0.127 0-0.23495-0.11112-0.23495-0.254s0.10795-0.254 0.23495-0.254z"/>
  </g>
  <g opacity=".91" aria-label="60°">
   <path d="m54.649 0.10795c-0.23812 0-0.49212 0.14605-0.61595 0.49212-0.06668 0.18732-0.08255 0.4191-0.08255 0.6096 0 0.23178 0.02222 0.47942 0.14922 0.66992 0.1143 0.17462 0.2921 0.26352 0.46672 0.26352 0.30162 0 0.56515-0.254 0.56515-0.66358s-0.26352-0.6477-0.54292-0.6477c-0.17145 0-0.33338 0.092075-0.4191 0.23813 0.0127-0.67628 0.33655-0.76518 0.47942-0.76518 0.13018 0 0.21908 0.06985 0.23178 0.08255 0.01905 0.022225 0.01905 0.0508 0.04763 0.073025l0.1524-0.17145c-0.1143-0.1143-0.27305-0.18098-0.4318-0.18098zm-0.08255 0.92075c0.15875 0 0.34925 0.12382 0.34925 0.46355 0 0.30798-0.17145 0.45402-0.33972 0.45402-0.2413 0-0.42228-0.28258-0.39688-0.65405 0.0889-0.16192 0.2413-0.26352 0.38735-0.26352z"/>
   <path d="m56.122 0.11748c-0.31432 0-0.63818 0.38735-0.63818 1.0192 0 0.64135 0.32702 1.0096 0.64135 1.0096 0.28575 0 0.62548-0.31115 0.62548-0.99378 0-0.6731-0.32385-1.035-0.62865-1.035zm0.30798 0.45402-0.69532 0.9017c-0.02857-0.11112-0.04445-0.23495-0.04445-0.37465 0-0.508 0.23178-0.7874 0.42862-0.7874 0.10795 0 0.22542 0.085725 0.31115 0.26035zm0.07302 0.20955c0.02858 0.11112 0.04128 0.24448 0.04128 0.40005 0 0.55245-0.23812 0.762-0.41275 0.762-0.11748 0-0.23812-0.09525-0.32385-0.26988z"/>
   <path d="m58.151 0.508c0-0.23495-0.1905-0.42545-0.42862-0.42545-0.23495 0-0.42862 0.1905-0.42862 0.42545 0 0.23495 0.19368 0.42545 0.42862 0.42545 0.23812 0 0.42862-0.1905 0.42862-0.42545zm-0.42545-0.25718c0.13018 0 0.23812 0.11112 0.23812 0.254s-0.10795 0.254-0.23812 0.254c-0.127 0-0.23495-0.11112-0.23495-0.254s0.10795-0.254 0.23495-0.254z"/>
  </g>
  <g opacity=".91" aria-label="60°">
   <path d="m46.712 0.10795c-0.23812 0-0.49212 0.14605-0.61595 0.49212-0.06667 0.18732-0.08255 0.4191-0.08255 0.6096 0 0.23178 0.02222 0.47942 0.14922 0.66992 0.1143 0.17462 0.2921 0.26352 0.46672 0.26352 0.30162 0 0.56515-0.254 0.56515-0.66358s-0.26352-0.6477-0.54292-0.6477c-0.17145 0-0.33338 0.092075-0.4191 0.23813 0.0127-0.67628 0.33655-0.76518 0.47942-0.76518 0.13018 0 0.21908 0.06985 0.23178 0.08255 0.01905 0.022225 0.01905 0.0508 0.04763 0.073025l0.1524-0.17145c-0.1143-0.1143-0.27305-0.18098-0.4318-0.18098zm-0.08255 0.92075c0.15875 0 0.34925 0.12382 0.34925 0.46355 0 0.30798-0.17145 0.45402-0.33972 0.45402-0.2413 0-0.42228-0.28258-0.39688-0.65405 0.0889-0.16192 0.2413-0.26352 0.38735-0.26352z"/>
   <path d="m48.185 0.11748c-0.31432 0-0.63818 0.38735-0.63818 1.0192 0 0.64135 0.32702 1.0096 0.64135 1.0096 0.28575 0 0.62548-0.31115 0.62548-0.99378 0-0.6731-0.32385-1.035-0.62865-1.035zm0.30798 0.45402-0.69532 0.9017c-0.02857-0.11112-0.04445-0.23495-0.04445-0.37465 0-0.508 0.23178-0.7874 0.42862-0.7874 0.10795 0 0.22542 0.085725 0.31115 0.26035zm0.07303 0.20955c0.02857 0.11112 0.04127 0.24448 0.04127 0.40005 0 0.55245-0.23812 0.762-0.41275 0.762-0.11748 0-0.23812-0.09525-0.32385-0.26988z"/>
   <path d="m50.214 0.508c0-0.23495-0.1905-0.42545-0.42862-0.42545-0.23495 0-0.42862 0.1905-0.42862 0.42545 0 0.23495 0.19368 0.42545 0.42862 0.42545 0.23812 0 0.42862-0.1905 0.42862-0.42545zm-0.42545-0.25718c0.13018 0 0.23812 0.11112 0.23812 0.254s-0.10795 0.254-0.23812 0.254c-0.127 0-0.23495-0.11112-0.23495-0.254s0.10795-0.254 0.23495-0.254z"/>
  </g>
  <g opacity=".91" aria-label="0°">
   <path d="m23.579 0.11748c-0.31432 0-0.63818 0.38735-0.63818 1.0192 0 0.64135 0.32702 1.0096 0.64135 1.0096 0.28575 0 0.62548-0.31115 0.62548-0.99378 0-0.6731-0.32385-1.035-0.62865-1.035zm0.30798 0.45402-0.69532 0.9017c-0.02858-0.11112-0.04445-0.23495-0.04445-0.37465 0-0.508 0.23178-0.7874 0.42862-0.7874 0.10795 0 0.22542 0.085725 0.31115 0.26035zm0.07302 0.20955c0.02858 0.11112 0.04128 0.24448 0.04128 0.40005 0 0.55245-0.23812 0.762-0.41275 0.762-0.11748 0-0.23812-0.09525-0.32385-0.26988z"/>
   <path d="m25.607 0.508c0-0.23495-0.1905-0.42545-0.42862-0.42545-0.23495 0-0.42862 0.1905-0.42862 0.42545 0 0.23495 0.19368 0.42545 0.42862 0.42545 0.23812 0 0.42862-0.1905 0.42862-0.42545zm-0.42545-0.25718c0.13018 0 0.23812 0.11112 0.23812 0.254s-0.10795 0.254-0.23812 0.254c-0.127 0-0.23495-0.11112-0.23495-0.254s0.10795-0.254 0.23495-0.254z"/>
  </g>
  <g opacity=".91" aria-label="0°">
   <path d="m31.516 0.11748c-0.31432 0-0.63818 0.38735-0.63818 1.0192 0 0.64135 0.32702 1.0096 0.64135 1.0096 0.28575 0 0.62548-0.31115 0.62548-0.99378 0-0.6731-0.32385-1.035-0.62865-1.035zm0.30798 0.45402-0.69532 0.9017c-0.02858-0.11112-0.04445-0.23495-0.04445-0.37465 0-0.508 0.23178-0.7874 0.42862-0.7874 0.10795 0 0.22542 0.085725 0.31115 0.26035zm0.07303 0.20955c0.02858 0.11112 0.04127 0.24448 0.04127 0.40005 0 0.55245-0.23812 0.762-0.41275 0.762-0.11748 0-0.23812-0.09525-0.32385-0.26988z"/>
   <path d="m33.545 0.508c0-0.23495-0.1905-0.42545-0.42862-0.42545-0.23495 0-0.42862 0.1905-0.42862 0.42545 0 0.23495 0.19368 0.42545 0.42862 0.42545 0.23812 0 0.42862-0.1905 0.42862-0.42545zm-0.42545-0.25718c0.13018 0 0.23812 0.11112 0.23812 0.254s-0.10795 0.254-0.23812 0.254c-0.127 0-0.23495-0.11112-0.23495-0.254s0.10795-0.254 0.23495-0.254z"/>
  </g>
  <g opacity=".91" aria-label="0°">
   <path d="m39.454 0.11748c-0.31432 0-0.63818 0.38735-0.63818 1.0192 0 0.64135 0.32702 1.0096 0.64135 1.0096 0.28575 0 0.62548-0.31115 0.62548-0.99378 0-0.6731-0.32385-1.035-0.62865-1.035zm0.30798 0.45402-0.69532 0.9017c-0.02858-0.11112-0.04445-0.23495-0.04445-0.37465 0-0.508 0.23178-0.7874 0.42862-0.7874 0.10795 0 0.22542 0.085725 0.31115 0.26035zm0.07303 0.20955c0.02857 0.11112 0.04127 0.24448 0.04127 0.40005 0 0.55245-0.23812 0.762-0.41275 0.762-0.11748 0-0.23812-0.09525-0.32385-0.26988z"/>
   <path d="m41.482 0.508c0-0.23495-0.1905-0.42545-0.42862-0.42545-0.23495 0-0.42862 0.1905-0.42862 0.42545 0 0.23495 0.19368 0.42545 0.42862 0.42545 0.23812 0 0.42862-0.1905 0.42862-0.42545zm-0.42545-0.25718c0.13018 0 0.23812 0.11112 0.23812 0.254s-0.10795 0.254-0.23812 0.254c-0.127 0-0.23495-0.11112-0.23495-0.254s0.10795-0.254 0.23495-0.254z"/>
  </g>
 </g>
 <path d="m14.678 16.829-0.28522 0.25553v1.6429l0.28522 0.25556h2.2589l0.28521-0.25556v-1.6429l-0.28521-0.25553z" fill="#1d232d" stroke="#6f8ce9" stroke-linecap="round" stroke-miterlimit="22" stroke-width=".13229"/>
 <path d="m14.685 16.829-0.29206 0.25553 1.2778 0.73774h0.27381l1.2778-0.73774-0.29206-0.25553z" fill="#6f8ce9"/>
 <path d="m17.038 16.866 6.8792-4.6302" fill="none" stroke="#6f8ce9" stroke-linecap="square" stroke-miterlimit="22" stroke-width=".13229" style="paint-order:normal"/>
 <g>
  <g transform="matrix(.0017455 -.0012001 .0012207 .0017754 22.855 12.213)" fill="#6f8ce9" stroke-width="123.85">
   <g fill="#6f8ce9" stroke-width="123.85">
    <path d="m486.41 221.41-364.07-208.5c-52.938-30.318-95.852-5.44-95.852 55.563v415.65c0 61.004 42.914 85.882 95.852 55.563l364.07-208.49c52.938-30.317 52.938-79.473 0-109.79z" fill="#6f8ce9" stroke-width="123.85"/>
   </g>
  </g>
  <path d="m38.49 16.829-0.28522 0.25553v1.6429l0.28522 0.25556h2.2589l0.28521-0.25556v-1.6429l-0.28521-0.25553z" fill="#1d232d" stroke="#6f8ce9" stroke-linecap="round" stroke-miterlimit="22" stroke-width=".13229"/>
  <path d="m38.497 16.829-0.29206 0.25553 1.2778 0.73774h0.27381l1.2778-0.73774-0.29206-0.25553z" fill="#6f8ce9"/>
 </g>
 <path d="m40.851 16.866 6.8792-4.6302" fill="none" stroke="#6f8ce9" stroke-linecap="square" stroke-miterlimit="22" stroke-width=".13229" style="paint-order:normal"/>
 <g>
  <g transform="matrix(.0017455 -.0012001 .0012207 .0017754 46.668 12.213)" fill="#6f8ce9" stroke-width="123.85">
   <g fill="#6f8ce9" stroke-width="123.85">
    <path d="m486.41 221.41-364.07-208.5c-52.938-30.318-95.852-5.44-95.852 55.563v415.65c0 61.004 42.914 85.882 95.852 55.563l364.07-208.49c52.938-30.317 52.938-79.473 0-109.79z" fill="#6f8ce9" stroke-width="123.85"/>
   </g>
  </g>
  <path d="m62.303 16.829-0.28522 0.25553v1.6429l0.28522 0.25556h2.2589l0.28521-0.25556v-1.6429l-0.28521-0.25553z" fill="#1d232d" stroke="#6f8ce9" stroke-linecap="round" stroke-miterlimit="22" stroke-width=".13229"/>
  <path d="m62.31 16.829-0.29206 0.25553 1.2778 0.73774h0.27381l1.2778-0.73774-0.29206-0.25553z" fill="#6f8ce9"/>
 </g>
 <path d="m64.663 16.866 6.8792-4.6302" fill="none" stroke="#6f8ce9" stroke-linecap="square" stroke-miterlimit="22" stroke-width=".13229" style="paint-order:normal"/>
 <g>
  <g transform="matrix(.0017455 -.0012001 .0012207 .0017754 70.48 12.213)" fill="#6f8ce9" stroke-width="123.85">
   <g fill="#6f8ce9" stroke-width="123.85">
    <path d="m486.41 221.41-364.07-208.5c-52.938-30.318-95.852-5.44-95.852 55.563v415.65c0 61.004 42.914 85.882 95.852 55.563l364.07-208.49c52.938-30.317 52.938-79.473 0-109.79z" fill="#6f8ce9" stroke-width="123.85"/>
   </g>
  </g>
  <path d="m86.115 16.829-0.28522 0.25553v1.6429l0.28522 0.25556h2.2589l0.28521-0.25556v-1.6429l-0.28521-0.25553z" fill="#1d232d" stroke="#6f8ce9" stroke-linecap="round" stroke-miterlimit="22" stroke-width=".13229"/>
  <path d="m86.122 16.829-0.29206 0.25553 1.2778 0.73774h0.27381l1.2778-0.73774-0.29206-0.25553z" fill="#6f8ce9"/>
 </g>
 <path d="m88.476 16.866 6.8792-4.6302" fill="none" stroke="#6f8ce9" stroke-linecap="square" stroke-miterlimit="22" stroke-width=".13229" style="paint-order:normal"/>
 <g transform="matrix(.0017455 -.0012001 .0012207 .0017754 94.293 12.213)" fill="#6f8ce9" stroke-width="123.85">
  <g fill="#6f8ce9" stroke-width="123.85">
   <path d="m486.41 221.41-364.07-208.5c-52.938-30.318-95.852-5.44-95.852 55.563v415.65c0 61.004 42.914 85.882 95.852 55.563l364.07-208.49c52.938-30.317 52.938-79.473 0-109.79z" fill="#6f8ce9" stroke-width="123.85"/>
  </g>
 </g>
 <g transform="matrix(-.5286 -.0021758 -.0021758 .5286 96.512 -22.372)">
  <path d="m133.62 54.82h6.844c0.117 0.164 0.222 0.32 0.293 0.465h-7.43c0.07-0.145 0.176-0.301 0.293-0.465z" fill="#a96f00"/>
  <path d="m134.52 53.894h5.047c0.371 0.289 0.672 0.613 0.899 0.926h-6.844c0.223-0.313 0.527-0.637 0.898-0.926z" fill="#fbb227"/>
  <path d="m138.84 53.429c0.262 0.137 0.512 0.289 0.734 0.465h-5.047c0.219-0.176 0.473-0.328 0.735-0.465z" fill="#ffd179"/>
  <path d="m138.84 53.429h-3.578c0.523-0.277 1.121-0.465 1.789-0.465s1.266 0.188 1.789 0.465z" fill="#ffd179"/>
  <path d="m136.12 61.582 1.848-0.01138-0.0111-3.0352-1.844 0.01628z" fill="#535e70"/>
  <path d="m136.58 55.285v3.757c-0.848 0.133-1.519 0.618-2.144 1.196-0.114-0.211-0.5-0.426-0.586-0.645-0.086-0.226-0.157-0.457-0.211-0.691-0.055-0.235-0.09-0.477-0.114-0.715-0.019-0.242-0.027-0.488-0.015-0.735 0.011-0.242 0.039-0.488 0.086-0.73 0.047-0.246 0.109-0.488 0.187-0.73 0.028-0.082 0.07-0.161 0.102-0.243 0.062-0.156 0.406-0.312 0.484-0.464z" fill="#fbb227"/>
  <path d="m137.51 55.285v3.757c-0.153-0.023-0.305-0.039-0.465-0.039s-0.317 0.016-0.465 0.039v-3.757z" fill="#a96f00"/>
  <path d="m139.79 55.285c0.227 0.277 0.43 0.691 0.504 0.929 0.074 0.242 0.129 0.492 0.168 0.742 0.035 0.25 0.109 0.305 0.113 0.559 0 0.25 0.027 0.496 0 0.742-0.031 0.246-0.176 0.692-0.23 0.93-0.055 0.238-0.125 0.465-0.203 0.687-0.075 0.207-0.383 0.188-0.473 0.375-0.629-0.582-1.309-1.07-2.16-1.207v-3.757z" fill="#fbb227"/>
  <path d="m138.44 58.999h1.855v-3.25h-1.855z" fill="#a96f00"/>
  <path d="m133.79 58.999h1.859v-3.25h-1.859z" fill="#2f3744"/>
  <path d="m134.44 60.238c-0.219 0.199-0.43 0.41-0.645 0.621-1.164-1.555-1.391-3.715-0.461-5.574h1.039c-0.117 0.234-0.219 0.468-0.297 0.71-0.082 0.239-0.144 0.485-0.191 0.727-0.043 0.246-0.07 0.488-0.082 0.734-0.012 0.243-8e-3 0.489 0.015 0.731 0.02 0.242 0.059 0.48 0.114 0.715 0.05 0.238 0.125 0.468 0.211 0.691 0.082 0.223 0.183 0.434 0.297 0.645z" fill="#ffd179"/>
  <path d="m140.76 55.285c0.929 1.859 0.465 4.183-0.465 5.574-0.207-0.207-0.414-0.41-0.625-0.61 0.09-0.187 0.18-0.382 0.25-0.589 0.082-0.219 0.148-0.45 0.207-0.688 0.055-0.234 0.101-0.477 0.129-0.727 0.027-0.246 0.043-0.496 0.039-0.746 0-0.254-0.016-0.504-0.055-0.757-0.035-0.25-0.09-0.497-0.164-0.743-0.074-0.242-0.168-0.48-0.285-0.714z" fill="#fbb227"/>
  <path d="m134.26 58.535h0.93v-0.926h-0.93z" fill="#cf2f25"/>
  <path d="m134.26 57.144h0.93v-0.93h-0.93z" fill="#47d58a"/>
 </g>
 <g transform="matrix(-.5286 -.0021758 -.0021758 .5286 88.575 -6.497)">
  <path d="m133.62 54.82h6.844c0.117 0.164 0.222 0.32 0.293 0.465h-7.43c0.07-0.145 0.176-0.301 0.293-0.465z" fill="#a96f00"/>
  <path d="m134.52 53.894h5.047c0.371 0.289 0.672 0.613 0.899 0.926h-6.844c0.223-0.313 0.527-0.637 0.898-0.926z" fill="#fbb227"/>
  <path d="m138.84 53.429c0.262 0.137 0.512 0.289 0.734 0.465h-5.047c0.219-0.176 0.473-0.328 0.735-0.465z" fill="#ffd179"/>
  <path d="m138.84 53.429h-3.578c0.523-0.277 1.121-0.465 1.789-0.465s1.266 0.188 1.789 0.465z" fill="#ffd179"/>
  <path d="m136.12 61.582 1.848-0.01138-0.0111-3.0352-1.844 0.01628z" fill="#535e70"/>
  <path d="m136.58 55.285v3.757c-0.848 0.133-1.519 0.618-2.144 1.196-0.114-0.211-0.5-0.426-0.586-0.645-0.086-0.226-0.157-0.457-0.211-0.691-0.055-0.235-0.09-0.477-0.114-0.715-0.019-0.242-0.027-0.488-0.015-0.735 0.011-0.242 0.039-0.488 0.086-0.73 0.047-0.246 0.109-0.488 0.187-0.73 0.028-0.082 0.07-0.161 0.102-0.243 0.062-0.156 0.406-0.312 0.484-0.464z" fill="#fbb227"/>
  <path d="m137.51 55.285v3.757c-0.153-0.023-0.305-0.039-0.465-0.039s-0.317 0.016-0.465 0.039v-3.757z" fill="#a96f00"/>
  <path d="m139.79 55.285c0.227 0.277 0.43 0.691 0.504 0.929 0.074 0.242 0.129 0.492 0.168 0.742 0.035 0.25 0.109 0.305 0.113 0.559 0 0.25 0.027 0.496 0 0.742-0.031 0.246-0.176 0.692-0.23 0.93-0.055 0.238-0.125 0.465-0.203 0.687-0.075 0.207-0.383 0.188-0.473 0.375-0.629-0.582-1.309-1.07-2.16-1.207v-3.757z" fill="#fbb227"/>
  <path d="m138.44 58.999h1.855v-3.25h-1.855z" fill="#a96f00"/>
  <path d="m133.79 58.999h1.859v-3.25h-1.859z" fill="#2f3744"/>
  <path d="m134.44 60.238c-0.219 0.199-0.43 0.41-0.645 0.621-1.164-1.555-1.391-3.715-0.461-5.574h1.039c-0.117 0.234-0.219 0.468-0.297 0.71-0.082 0.239-0.144 0.485-0.191 0.727-0.043 0.246-0.07 0.488-0.082 0.734-0.012 0.243-8e-3 0.489 0.015 0.731 0.02 0.242 0.059 0.48 0.114 0.715 0.05 0.238 0.125 0.468 0.211 0.691 0.082 0.223 0.183 0.434 0.297 0.645z" fill="#ffd179"/>
  <path d="m140.76 55.285c0.929 1.859 0.465 4.183-0.465 5.574-0.207-0.207-0.414-0.41-0.625-0.61 0.09-0.187 0.18-0.382 0.25-0.589 0.082-0.219 0.148-0.45 0.207-0.688 0.055-0.234 0.101-0.477 0.129-0.727 0.027-0.246 0.043-0.496 0.039-0.746 0-0.254-0.016-0.504-0.055-0.757-0.035-0.25-0.09-0.497-0.164-0.743-0.074-0.242-0.168-0.48-0.285-0.714z" fill="#fbb227"/>
  <path d="m134.26 58.535h0.93v-0.926h-0.93z" fill="#cf2f25"/>
  <path d="m134.26 57.144h0.93v-0.93h-0.93z" fill="#47d58a"/>
 </g>
 <g transform="matrix(-.48753 -.2043 -.2043 .48753 102.46 23.549)">
  <path d="m133.62 54.82h6.844c0.117 0.164 0.222 0.32 0.293 0.465h-7.43c0.07-0.145 0.176-0.301 0.293-0.465z" fill="#a96f00"/>
  <path d="m134.52 53.894h5.047c0.371 0.289 0.672 0.613 0.899 0.926h-6.844c0.223-0.313 0.527-0.637 0.898-0.926z" fill="#fbb227"/>
  <path d="m138.84 53.429c0.262 0.137 0.512 0.289 0.734 0.465h-5.047c0.219-0.176 0.473-0.328 0.735-0.465z" fill="#ffd179"/>
  <path d="m138.84 53.429h-3.578c0.523-0.277 1.121-0.465 1.789-0.465s1.266 0.188 1.789 0.465z" fill="#ffd179"/>
  <path d="m136.12 61.582 1.848-0.01138-0.0111-3.0352-1.844 0.01628z" fill="#535e70"/>
  <path d="m136.58 55.285v3.757c-0.848 0.133-1.519 0.618-2.144 1.196-0.114-0.211-0.5-0.426-0.586-0.645-0.086-0.226-0.157-0.457-0.211-0.691-0.055-0.235-0.09-0.477-0.114-0.715-0.019-0.242-0.027-0.488-0.015-0.735 0.011-0.242 0.039-0.488 0.086-0.73 0.047-0.246 0.109-0.488 0.187-0.73 0.028-0.082 0.07-0.161 0.102-0.243 0.062-0.156 0.406-0.312 0.484-0.464z" fill="#fbb227"/>
  <path d="m137.51 55.285v3.757c-0.153-0.023-0.305-0.039-0.465-0.039s-0.317 0.016-0.465 0.039v-3.757z" fill="#a96f00"/>
  <path d="m139.79 55.285c0.227 0.277 0.43 0.691 0.504 0.929 0.074 0.242 0.129 0.492 0.168 0.742 0.035 0.25 0.109 0.305 0.113 0.559 0 0.25 0.027 0.496 0 0.742-0.031 0.246-0.176 0.692-0.23 0.93-0.055 0.238-0.125 0.465-0.203 0.687-0.075 0.207-0.383 0.188-0.473 0.375-0.629-0.582-1.309-1.07-2.16-1.207v-3.757z" fill="#fbb227"/>
  <path d="m138.44 58.999h1.855v-3.25h-1.855z" fill="#a96f00"/>
  <path d="m133.79 58.999h1.859v-3.25h-1.859z" fill="#2f3744"/>
  <path d="m134.44 60.238c-0.219 0.199-0.43 0.41-0.645 0.621-1.164-1.555-1.391-3.715-0.461-5.574h1.039c-0.117 0.234-0.219 0.468-0.297 0.71-0.082 0.239-0.144 0.485-0.191 0.727-0.043 0.246-0.07 0.488-0.082 0.734-0.012 0.243-8e-3 0.489 0.015 0.731 0.02 0.242 0.059 0.48 0.114 0.715 0.05 0.238 0.125 0.468 0.211 0.691 0.082 0.223 0.183 0.434 0.297 0.645z" fill="#ffd179"/>
  <path d="m140.76 55.285c0.929 1.859 0.465 4.183-0.465 5.574-0.207-0.207-0.414-0.41-0.625-0.61 0.09-0.187 0.18-0.382 0.25-0.589 0.082-0.219 0.148-0.45 0.207-0.688 0.055-0.234 0.101-0.477 0.129-0.727 0.027-0.246 0.043-0.496 0.039-0.746 0-0.254-0.016-0.504-0.055-0.757-0.035-0.25-0.09-0.497-0.164-0.743-0.074-0.242-0.168-0.48-0.285-0.714z" fill="#fbb227"/>
  <path d="m134.26 58.535h0.93v-0.926h-0.93z" fill="#cf2f25"/>
  <path d="m134.26 57.144h0.93v-0.93h-0.93z" fill="#47d58a"/>
 </g>
 <g transform="matrix(-.41199 -.33119 -.33119 .41199 107.3 45.242)">
  <path d="m133.62 54.82h6.844c0.117 0.164 0.222 0.32 0.293 0.465h-7.43c0.07-0.145 0.176-0.301 0.293-0.465z" fill="#a96f00"/>
  <path d="m134.52 53.894h5.047c0.371 0.289 0.672 0.613 0.899 0.926h-6.844c0.223-0.313 0.527-0.637 0.898-0.926z" fill="#fbb227"/>
  <path d="m138.84 53.429c0.262 0.137 0.512 0.289 0.734 0.465h-5.047c0.219-0.176 0.473-0.328 0.735-0.465z" fill="#ffd179"/>
  <path d="m138.84 53.429h-3.578c0.523-0.277 1.121-0.465 1.789-0.465s1.266 0.188 1.789 0.465z" fill="#ffd179"/>
  <path d="m136.12 61.582 1.848-0.01138-0.0111-3.0352-1.844 0.01628z" fill="#535e70"/>
  <path d="m136.58 55.285v3.757c-0.848 0.133-1.519 0.618-2.144 1.196-0.114-0.211-0.5-0.426-0.586-0.645-0.086-0.226-0.157-0.457-0.211-0.691-0.055-0.235-0.09-0.477-0.114-0.715-0.019-0.242-0.027-0.488-0.015-0.735 0.011-0.242 0.039-0.488 0.086-0.73 0.047-0.246 0.109-0.488 0.187-0.73 0.028-0.082 0.07-0.161 0.102-0.243 0.062-0.156 0.406-0.312 0.484-0.464z" fill="#fbb227"/>
  <path d="m137.51 55.285v3.757c-0.153-0.023-0.305-0.039-0.465-0.039s-0.317 0.016-0.465 0.039v-3.757z" fill="#a96f00"/>
  <path d="m139.79 55.285c0.227 0.277 0.43 0.691 0.504 0.929 0.074 0.242 0.129 0.492 0.168 0.742 0.035 0.25 0.109 0.305 0.113 0.559 0 0.25 0.027 0.496 0 0.742-0.031 0.246-0.176 0.692-0.23 0.93-0.055 0.238-0.125 0.465-0.203 0.687-0.075 0.207-0.383 0.188-0.473 0.375-0.629-0.582-1.309-1.07-2.16-1.207v-3.757z" fill="#fbb227"/>
  <path d="m138.44 58.999h1.855v-3.25h-1.855z" fill="#a96f00"/>
  <path d="m133.79 58.999h1.859v-3.25h-1.859z" fill="#2f3744"/>
  <path d="m134.44 60.238c-0.219 0.199-0.43 0.41-0.645 0.621-1.164-1.555-1.391-3.715-0.461-5.574h1.039c-0.117 0.234-0.219 0.468-0.297 0.71-0.082 0.239-0.144 0.485-0.191 0.727-0.043 0.246-0.07 0.488-0.082 0.734-0.012 0.243-8e-3 0.489 0.015 0.731 0.02 0.242 0.059 0.48 0.114 0.715 0.05 0.238 0.125 0.468 0.211 0.691 0.082 0.223 0.183 0.434 0.297 0.645z" fill="#ffd179"/>
  <path d="m140.76 55.285c0.929 1.859 0.465 4.183-0.465 5.574-0.207-0.207-0.414-0.41-0.625-0.61 0.09-0.187 0.18-0.382 0.25-0.589 0.082-0.219 0.148-0.45 0.207-0.688 0.055-0.234 0.101-0.477 0.129-0.727 0.027-0.246 0.043-0.496 0.039-0.746 0-0.254-0.016-0.504-0.055-0.757-0.035-0.25-0.09-0.497-0.164-0.743-0.074-0.242-0.168-0.48-0.285-0.714z" fill="#fbb227"/>
  <path d="m134.26 58.535h0.93v-0.926h-0.93z" fill="#cf2f25"/>
  <path d="m134.26 57.144h0.93v-0.93h-0.93z" fill="#47d58a"/>
 </g>
 <g transform="matrix(-.26242 -.45887 -.45887 .26242 102.07 71.322)">
  <path d="m133.62 54.82h6.844c0.117 0.164 0.222 0.32 0.293 0.465h-7.43c0.07-0.145 0.176-0.301 0.293-0.465z" fill="#a96f00"/>
  <path d="m134.52 53.894h5.047c0.371 0.289 0.672 0.613 0.899 0.926h-6.844c0.223-0.313 0.527-0.637 0.898-0.926z" fill="#fbb227"/>
  <path d="m138.84 53.429c0.262 0.137 0.512 0.289 0.734 0.465h-5.047c0.219-0.176 0.473-0.328 0.735-0.465z" fill="#ffd179"/>
  <path d="m138.84 53.429h-3.578c0.523-0.277 1.121-0.465 1.789-0.465s1.266 0.188 1.789 0.465z" fill="#ffd179"/>
  <path d="m136.12 61.582 1.848-0.01138-0.0111-3.0352-1.844 0.01628z" fill="#535e70"/>
  <path d="m136.58 55.285v3.757c-0.848 0.133-1.519 0.618-2.144 1.196-0.114-0.211-0.5-0.426-0.586-0.645-0.086-0.226-0.157-0.457-0.211-0.691-0.055-0.235-0.09-0.477-0.114-0.715-0.019-0.242-0.027-0.488-0.015-0.735 0.011-0.242 0.039-0.488 0.086-0.73 0.047-0.246 0.109-0.488 0.187-0.73 0.028-0.082 0.07-0.161 0.102-0.243 0.062-0.156 0.406-0.312 0.484-0.464z" fill="#fbb227"/>
  <path d="m137.51 55.285v3.757c-0.153-0.023-0.305-0.039-0.465-0.039s-0.317 0.016-0.465 0.039v-3.757z" fill="#a96f00"/>
  <path d="m139.79 55.285c0.227 0.277 0.43 0.691 0.504 0.929 0.074 0.242 0.129 0.492 0.168 0.742 0.035 0.25 0.109 0.305 0.113 0.559 0 0.25 0.027 0.496 0 0.742-0.031 0.246-0.176 0.692-0.23 0.93-0.055 0.238-0.125 0.465-0.203 0.687-0.075 0.207-0.383 0.188-0.473 0.375-0.629-0.582-1.309-1.07-2.16-1.207v-3.757z" fill="#fbb227"/>
  <path d="m138.44 58.999h1.855v-3.25h-1.855z" fill="#a96f00"/>
  <path d="m133.79 58.999h1.859v-3.25h-1.859z" fill="#2f3744"/>
  <path d="m134.44 60.238c-0.219 0.199-0.43 0.41-0.645 0.621-1.164-1.555-1.391-3.715-0.461-5.574h1.039c-0.117 0.234-0.219 0.468-0.297 0.71-0.082 0.239-0.144 0.485-0.191 0.727-0.043 0.246-0.07 0.488-0.082 0.734-0.012 0.243-8e-3 0.489 0.015 0.731 0.02 0.242 0.059 0.48 0.114 0.715 0.05 0.238 0.125 0.468 0.211 0.691 0.082 0.223 0.183 0.434 0.297 0.645z" fill="#ffd179"/>
  <path d="m140.76 55.285c0.929 1.859 0.465 4.183-0.465 5.574-0.207-0.207-0.414-0.41-0.625-0.61 0.09-0.187 0.18-0.382 0.25-0.589 0.082-0.219 0.148-0.45 0.207-0.688 0.055-0.234 0.101-0.477 0.129-0.727 0.027-0.246 0.043-0.496 0.039-0.746 0-0.254-0.016-0.504-0.055-0.757-0.035-0.25-0.09-0.497-0.164-0.743-0.074-0.242-0.168-0.48-0.285-0.714z" fill="#fbb227"/>
  <path d="m134.26 58.535h0.93v-0.926h-0.93z" fill="#cf2f25"/>
  <path d="m134.26 57.144h0.93v-0.93h-0.93z" fill="#47d58a"/>
 </g>
 <g transform="matrix(-.066839 -.52436 -.52436 .066839 86.965 91.497)">
  <path d="m133.62 54.82h6.844c0.117 0.164 0.222 0.32 0.293 0.465h-7.43c0.07-0.145 0.176-0.301 0.293-0.465z" fill="#a96f00"/>
  <path d="m134.52 53.894h5.047c0.371 0.289 0.672 0.613 0.899 0.926h-6.844c0.223-0.313 0.527-0.637 0.898-0.926z" fill="#fbb227"/>
  <path d="m138.84 53.429c0.262 0.137 0.512 0.289 0.734 0.465h-5.047c0.219-0.176 0.473-0.328 0.735-0.465z" fill="#ffd179"/>
  <path d="m138.84 53.429h-3.578c0.523-0.277 1.121-0.465 1.789-0.465s1.266 0.188 1.789 0.465z" fill="#ffd179"/>
  <path d="m136.12 61.582 1.848-0.01138-0.0111-3.0352-1.844 0.01628z" fill="#535e70"/>
  <path d="m136.58 55.285v3.757c-0.848 0.133-1.519 0.618-2.144 1.196-0.114-0.211-0.5-0.426-0.586-0.645-0.086-0.226-0.157-0.457-0.211-0.691-0.055-0.235-0.09-0.477-0.114-0.715-0.019-0.242-0.027-0.488-0.015-0.735 0.011-0.242 0.039-0.488 0.086-0.73 0.047-0.246 0.109-0.488 0.187-0.73 0.028-0.082 0.07-0.161 0.102-0.243 0.062-0.156 0.406-0.312 0.484-0.464z" fill="#fbb227"/>
  <path d="m137.51 55.285v3.757c-0.153-0.023-0.305-0.039-0.465-0.039s-0.317 0.016-0.465 0.039v-3.757z" fill="#a96f00"/>
  <path d="m139.79 55.285c0.227 0.277 0.43 0.691 0.504 0.929 0.074 0.242 0.129 0.492 0.168 0.742 0.035 0.25 0.109 0.305 0.113 0.559 0 0.25 0.027 0.496 0 0.742-0.031 0.246-0.176 0.692-0.23 0.93-0.055 0.238-0.125 0.465-0.203 0.687-0.075 0.207-0.383 0.188-0.473 0.375-0.629-0.582-1.309-1.07-2.16-1.207v-3.757z" fill="#fbb227"/>
  <path d="m138.44 58.999h1.855v-3.25h-1.855z" fill="#a96f00"/>
  <path d="m133.79 58.999h1.859v-3.25h-1.859z" fill="#2f3744"/>
  <path d="m134.44 60.238c-0.219 0.199-0.43 0.41-0.645 0.621-1.164-1.555-1.391-3.715-0.461-5.574h1.039c-0.117 0.234-0.219 0.468-0.297 0.71-0.082 0.239-0.144 0.485-0.191 0.727-0.043 0.246-0.07 0.488-0.082 0.734-0.012 0.243-8e-3 0.489 0.015 0.731 0.02 0.242 0.059 0.48 0.114 0.715 0.05 0.238 0.125 0.468 0.211 0.691 0.082 0.223 0.183 0.434 0.297 0.645z" fill="#ffd179"/>
  <path d="m140.76 55.285c0.929 1.859 0.465 4.183-0.465 5.574-0.207-0.207-0.414-0.41-0.625-0.61 0.09-0.187 0.18-0.382 0.25-0.589 0.082-0.219 0.148-0.45 0.207-0.688 0.055-0.234 0.101-0.477 0.129-0.727 0.027-0.246 0.043-0.496 0.039-0.746 0-0.254-0.016-0.504-0.055-0.757-0.035-0.25-0.09-0.497-0.164-0.743-0.074-0.242-0.168-0.48-0.285-0.714z" fill="#fbb227"/>
  <path d="m134.26 58.535h0.93v-0.926h-0.93z" fill="#cf2f25"/>
  <path d="m134.26 57.144h0.93v-0.93h-0.93z" fill="#47d58a"/>
 </g>
 <g transform="matrix(.13891 -.51003 -.51003 -.13891 65.891 101.32)">
  <path d="m133.62 54.82h6.844c0.117 0.164 0.222 0.32 0.293 0.465h-7.43c0.07-0.145 0.176-0.301 0.293-0.465z" fill="#a96f00"/>
  <path d="m134.52 53.894h5.047c0.371 0.289 0.672 0.613 0.899 0.926h-6.844c0.223-0.313 0.527-0.637 0.898-0.926z" fill="#fbb227"/>
  <path d="m138.84 53.429c0.262 0.137 0.512 0.289 0.734 0.465h-5.047c0.219-0.176 0.473-0.328 0.735-0.465z" fill="#ffd179"/>
  <path d="m138.84 53.429h-3.578c0.523-0.277 1.121-0.465 1.789-0.465s1.266 0.188 1.789 0.465z" fill="#ffd179"/>
  <path d="m136.12 61.582 1.848-0.01138-0.0111-3.0352-1.844 0.01628z" fill="#535e70"/>
  <path d="m136.58 55.285v3.757c-0.848 0.133-1.519 0.618-2.144 1.196-0.114-0.211-0.5-0.426-0.586-0.645-0.086-0.226-0.157-0.457-0.211-0.691-0.055-0.235-0.09-0.477-0.114-0.715-0.019-0.242-0.027-0.488-0.015-0.735 0.011-0.242 0.039-0.488 0.086-0.73 0.047-0.246 0.109-0.488 0.187-0.73 0.028-0.082 0.07-0.161 0.102-0.243 0.062-0.156 0.406-0.312 0.484-0.464z" fill="#fbb227"/>
  <path d="m137.51 55.285v3.757c-0.153-0.023-0.305-0.039-0.465-0.039s-0.317 0.016-0.465 0.039v-3.757z" fill="#a96f00"/>
  <path d="m139.79 55.285c0.227 0.277 0.43 0.691 0.504 0.929 0.074 0.242 0.129 0.492 0.168 0.742 0.035 0.25 0.109 0.305 0.113 0.559 0 0.25 0.027 0.496 0 0.742-0.031 0.246-0.176 0.692-0.23 0.93-0.055 0.238-0.125 0.465-0.203 0.687-0.075 0.207-0.383 0.188-0.473 0.375-0.629-0.582-1.309-1.07-2.16-1.207v-3.757z" fill="#fbb227"/>
  <path d="m138.44 58.999h1.855v-3.25h-1.855z" fill="#a96f00"/>
  <path d="m133.79 58.999h1.859v-3.25h-1.859z" fill="#2f3744"/>
  <path d="m134.44 60.238c-0.219 0.199-0.43 0.41-0.645 0.621-1.164-1.555-1.391-3.715-0.461-5.574h1.039c-0.117 0.234-0.219 0.468-0.297 0.71-0.082 0.239-0.144 0.485-0.191 0.727-0.043 0.246-0.07 0.488-0.082 0.734-0.012 0.243-8e-3 0.489 0.015 0.731 0.02 0.242 0.059 0.48 0.114 0.715 0.05 0.238 0.125 0.468 0.211 0.691 0.082 0.223 0.183 0.434 0.297 0.645z" fill="#ffd179"/>
  <path d="m140.76 55.285c0.929 1.859 0.465 4.183-0.465 5.574-0.207-0.207-0.414-0.41-0.625-0.61 0.09-0.187 0.18-0.382 0.25-0.589 0.082-0.219 0.148-0.45 0.207-0.688 0.055-0.234 0.101-0.477 0.129-0.727 0.027-0.246 0.043-0.496 0.039-0.746 0-0.254-0.016-0.504-0.055-0.757-0.035-0.25-0.09-0.497-0.164-0.743-0.074-0.242-0.168-0.48-0.285-0.714z" fill="#fbb227"/>
  <path d="m134.26 58.535h0.93v-0.926h-0.93z" fill="#cf2f25"/>
  <path d="m134.26 57.144h0.93v-0.93h-0.93z" fill="#47d58a"/>
 </g>
 <g transform="matrix(.26618 -.45669 -.45669 -.26618 53.336 101.3)">
  <path d="m133.62 54.82h6.844c0.117 0.164 0.222 0.32 0.293 0.465h-7.43c0.07-0.145 0.176-0.301 0.293-0.465z" fill="#a96f00"/>
  <path d="m134.52 53.894h5.047c0.371 0.289 0.672 0.613 0.899 0.926h-6.844c0.223-0.313 0.527-0.637 0.898-0.926z" fill="#fbb227"/>
  <path d="m138.84 53.429c0.262 0.137 0.512 0.289 0.734 0.465h-5.047c0.219-0.176 0.473-0.328 0.735-0.465z" fill="#ffd179"/>
  <path d="m138.84 53.429h-3.578c0.523-0.277 1.121-0.465 1.789-0.465s1.266 0.188 1.789 0.465z" fill="#ffd179"/>
  <path d="m136.12 61.582 1.848-0.01138-0.0111-3.0352-1.844 0.01628z" fill="#535e70"/>
  <path d="m136.58 55.285v3.757c-0.848 0.133-1.519 0.618-2.144 1.196-0.114-0.211-0.5-0.426-0.586-0.645-0.086-0.226-0.157-0.457-0.211-0.691-0.055-0.235-0.09-0.477-0.114-0.715-0.019-0.242-0.027-0.488-0.015-0.735 0.011-0.242 0.039-0.488 0.086-0.73 0.047-0.246 0.109-0.488 0.187-0.73 0.028-0.082 0.07-0.161 0.102-0.243 0.062-0.156 0.406-0.312 0.484-0.464z" fill="#fbb227"/>
  <path d="m137.51 55.285v3.757c-0.153-0.023-0.305-0.039-0.465-0.039s-0.317 0.016-0.465 0.039v-3.757z" fill="#a96f00"/>
  <path d="m139.79 55.285c0.227 0.277 0.43 0.691 0.504 0.929 0.074 0.242 0.129 0.492 0.168 0.742 0.035 0.25 0.109 0.305 0.113 0.559 0 0.25 0.027 0.496 0 0.742-0.031 0.246-0.176 0.692-0.23 0.93-0.055 0.238-0.125 0.465-0.203 0.687-0.075 0.207-0.383 0.188-0.473 0.375-0.629-0.582-1.309-1.07-2.16-1.207v-3.757z" fill="#fbb227"/>
  <path d="m138.44 58.999h1.855v-3.25h-1.855z" fill="#a96f00"/>
  <path d="m133.79 58.999h1.859v-3.25h-1.859z" fill="#2f3744"/>
  <path d="m134.44 60.238c-0.219 0.199-0.43 0.41-0.645 0.621-1.164-1.555-1.391-3.715-0.461-5.574h1.039c-0.117 0.234-0.219 0.468-0.297 0.71-0.082 0.239-0.144 0.485-0.191 0.727-0.043 0.246-0.07 0.488-0.082 0.734-0.012 0.243-8e-3 0.489 0.015 0.731 0.02 0.242 0.059 0.48 0.114 0.715 0.05 0.238 0.125 0.468 0.211 0.691 0.082 0.223 0.183 0.434 0.297 0.645z" fill="#ffd179"/>
  <path d="m140.76 55.285c0.929 1.859 0.465 4.183-0.465 5.574-0.207-0.207-0.414-0.41-0.625-0.61 0.09-0.187 0.18-0.382 0.25-0.589 0.082-0.219 0.148-0.45 0.207-0.688 0.055-0.234 0.101-0.477 0.129-0.727 0.027-0.246 0.043-0.496 0.039-0.746 0-0.254-0.016-0.504-0.055-0.757-0.035-0.25-0.09-0.497-0.164-0.743-0.074-0.242-0.168-0.48-0.285-0.714z" fill="#fbb227"/>
  <path d="m134.26 58.535h0.93v-0.926h-0.93z" fill="#cf2f25"/>
  <path d="m134.26 57.144h0.93v-0.93h-0.93z" fill="#47d58a"/>
 </g>
 <g transform="matrix(.42069 -.32007 -.32007 -.42069 32.278 91.429)">
  <path d="m133.62 54.82h6.844c0.117 0.164 0.222 0.32 0.293 0.465h-7.43c0.07-0.145 0.176-0.301 0.293-0.465z" fill="#a96f00"/>
  <path d="m134.52 53.894h5.047c0.371 0.289 0.672 0.613 0.899 0.926h-6.844c0.223-0.313 0.527-0.637 0.898-0.926z" fill="#fbb227"/>
  <path d="m138.84 53.429c0.262 0.137 0.512 0.289 0.734 0.465h-5.047c0.219-0.176 0.473-0.328 0.735-0.465z" fill="#ffd179"/>
  <path d="m138.84 53.429h-3.578c0.523-0.277 1.121-0.465 1.789-0.465s1.266 0.188 1.789 0.465z" fill="#ffd179"/>
  <path d="m136.12 61.582 1.848-0.01138-0.0111-3.0352-1.844 0.01628z" fill="#535e70"/>
  <path d="m136.58 55.285v3.757c-0.848 0.133-1.519 0.618-2.144 1.196-0.114-0.211-0.5-0.426-0.586-0.645-0.086-0.226-0.157-0.457-0.211-0.691-0.055-0.235-0.09-0.477-0.114-0.715-0.019-0.242-0.027-0.488-0.015-0.735 0.011-0.242 0.039-0.488 0.086-0.73 0.047-0.246 0.109-0.488 0.187-0.73 0.028-0.082 0.07-0.161 0.102-0.243 0.062-0.156 0.406-0.312 0.484-0.464z" fill="#fbb227"/>
  <path d="m137.51 55.285v3.757c-0.153-0.023-0.305-0.039-0.465-0.039s-0.317 0.016-0.465 0.039v-3.757z" fill="#a96f00"/>
  <path d="m139.79 55.285c0.227 0.277 0.43 0.691 0.504 0.929 0.074 0.242 0.129 0.492 0.168 0.742 0.035 0.25 0.109 0.305 0.113 0.559 0 0.25 0.027 0.496 0 0.742-0.031 0.246-0.176 0.692-0.23 0.93-0.055 0.238-0.125 0.465-0.203 0.687-0.075 0.207-0.383 0.188-0.473 0.375-0.629-0.582-1.309-1.07-2.16-1.207v-3.757z" fill="#fbb227"/>
  <path d="m138.44 58.999h1.855v-3.25h-1.855z" fill="#a96f00"/>
  <path d="m133.79 58.999h1.859v-3.25h-1.859z" fill="#2f3744"/>
  <path d="m134.44 60.238c-0.219 0.199-0.43 0.41-0.645 0.621-1.164-1.555-1.391-3.715-0.461-5.574h1.039c-0.117 0.234-0.219 0.468-0.297 0.71-0.082 0.239-0.144 0.485-0.191 0.727-0.043 0.246-0.07 0.488-0.082 0.734-0.012 0.243-8e-3 0.489 0.015 0.731 0.02 0.242 0.059 0.48 0.114 0.715 0.05 0.238 0.125 0.468 0.211 0.691 0.082 0.223 0.183 0.434 0.297 0.645z" fill="#ffd179"/>
  <path d="m140.76 55.285c0.929 1.859 0.465 4.183-0.465 5.574-0.207-0.207-0.414-0.41-0.625-0.61 0.09-0.187 0.18-0.382 0.25-0.589 0.082-0.219 0.148-0.45 0.207-0.688 0.055-0.234 0.101-0.477 0.129-0.727 0.027-0.246 0.043-0.496 0.039-0.746 0-0.254-0.016-0.504-0.055-0.757-0.035-0.25-0.09-0.497-0.164-0.743-0.074-0.242-0.168-0.48-0.285-0.714z" fill="#fbb227"/>
  <path d="m134.26 58.535h0.93v-0.926h-0.93z" fill="#cf2f25"/>
  <path d="m134.26 57.144h0.93v-0.93h-0.93z" fill="#47d58a"/>
 </g>
 <g transform="matrix(.49612 -.18245 -.18245 -.49612 21.999 76.893)">
  <path d="m133.62 54.82h6.844c0.117 0.164 0.222 0.32 0.293 0.465h-7.43c0.07-0.145 0.176-0.301 0.293-0.465z" fill="#a96f00"/>
  <path d="m134.52 53.894h5.047c0.371 0.289 0.672 0.613 0.899 0.926h-6.844c0.223-0.313 0.527-0.637 0.898-0.926z" fill="#fbb227"/>
  <path d="m138.84 53.429c0.262 0.137 0.512 0.289 0.734 0.465h-5.047c0.219-0.176 0.473-0.328 0.735-0.465z" fill="#ffd179"/>
  <path d="m138.84 53.429h-3.578c0.523-0.277 1.121-0.465 1.789-0.465s1.266 0.188 1.789 0.465z" fill="#ffd179"/>
  <path d="m136.12 61.582 1.848-0.01138-0.0111-3.0352-1.844 0.01628z" fill="#535e70"/>
  <path d="m136.58 55.285v3.757c-0.848 0.133-1.519 0.618-2.144 1.196-0.114-0.211-0.5-0.426-0.586-0.645-0.086-0.226-0.157-0.457-0.211-0.691-0.055-0.235-0.09-0.477-0.114-0.715-0.019-0.242-0.027-0.488-0.015-0.735 0.011-0.242 0.039-0.488 0.086-0.73 0.047-0.246 0.109-0.488 0.187-0.73 0.028-0.082 0.07-0.161 0.102-0.243 0.062-0.156 0.406-0.312 0.484-0.464z" fill="#fbb227"/>
  <path d="m137.51 55.285v3.757c-0.153-0.023-0.305-0.039-0.465-0.039s-0.317 0.016-0.465 0.039v-3.757z" fill="#a96f00"/>
  <path d="m139.79 55.285c0.227 0.277 0.43 0.691 0.504 0.929 0.074 0.242 0.129 0.492 0.168 0.742 0.035 0.25 0.109 0.305 0.113 0.559 0 0.25 0.027 0.496 0 0.742-0.031 0.246-0.176 0.692-0.23 0.93-0.055 0.238-0.125 0.465-0.203 0.687-0.075 0.207-0.383 0.188-0.473 0.375-0.629-0.582-1.309-1.07-2.16-1.207v-3.757z" fill="#fbb227"/>
  <path d="m138.44 58.999h1.855v-3.25h-1.855z" fill="#a96f00"/>
  <path d="m133.79 58.999h1.859v-3.25h-1.859z" fill="#2f3744"/>
  <path d="m134.44 60.238c-0.219 0.199-0.43 0.41-0.645 0.621-1.164-1.555-1.391-3.715-0.461-5.574h1.039c-0.117 0.234-0.219 0.468-0.297 0.71-0.082 0.239-0.144 0.485-0.191 0.727-0.043 0.246-0.07 0.488-0.082 0.734-0.012 0.243-8e-3 0.489 0.015 0.731 0.02 0.242 0.059 0.48 0.114 0.715 0.05 0.238 0.125 0.468 0.211 0.691 0.082 0.223 0.183 0.434 0.297 0.645z" fill="#ffd179"/>
  <path d="m140.76 55.285c0.929 1.859 0.465 4.183-0.465 5.574-0.207-0.207-0.414-0.41-0.625-0.61 0.09-0.187 0.18-0.382 0.25-0.589 0.082-0.219 0.148-0.45 0.207-0.688 0.055-0.234 0.101-0.477 0.129-0.727 0.027-0.246 0.043-0.496 0.039-0.746 0-0.254-0.016-0.504-0.055-0.757-0.035-0.25-0.09-0.497-0.164-0.743-0.074-0.242-0.168-0.48-0.285-0.714z" fill="#fbb227"/>
  <path d="m134.26 58.535h0.93v-0.926h-0.93z" fill="#cf2f25"/>
  <path d="m134.26 57.144h0.93v-0.93h-0.93z" fill="#47d58a"/>
 </g>
 <g transform="matrix(.5286 .0021758 .0021758 -.5286 14.912 53.458)">
  <path d="m133.62 54.82h6.844c0.117 0.164 0.222 0.32 0.293 0.465h-7.43c0.07-0.145 0.176-0.301 0.293-0.465z" fill="#a96f00"/>
  <path d="m134.52 53.894h5.047c0.371 0.289 0.672 0.613 0.899 0.926h-6.844c0.223-0.313 0.527-0.637 0.898-0.926z" fill="#fbb227"/>
  <path d="m138.84 53.429c0.262 0.137 0.512 0.289 0.734 0.465h-5.047c0.219-0.176 0.473-0.328 0.735-0.465z" fill="#ffd179"/>
  <path d="m138.84 53.429h-3.578c0.523-0.277 1.121-0.465 1.789-0.465s1.266 0.188 1.789 0.465z" fill="#ffd179"/>
  <path d="m136.12 61.582 1.848-0.01138-0.0111-3.0352-1.844 0.01628z" fill="#535e70"/>
  <path d="m136.58 55.285v3.757c-0.848 0.133-1.519 0.618-2.144 1.196-0.114-0.211-0.5-0.426-0.586-0.645-0.086-0.226-0.157-0.457-0.211-0.691-0.055-0.235-0.09-0.477-0.114-0.715-0.019-0.242-0.027-0.488-0.015-0.735 0.011-0.242 0.039-0.488 0.086-0.73 0.047-0.246 0.109-0.488 0.187-0.73 0.028-0.082 0.07-0.161 0.102-0.243 0.062-0.156 0.406-0.312 0.484-0.464z" fill="#fbb227"/>
  <path d="m137.51 55.285v3.757c-0.153-0.023-0.305-0.039-0.465-0.039s-0.317 0.016-0.465 0.039v-3.757z" fill="#a96f00"/>
  <path d="m139.79 55.285c0.227 0.277 0.43 0.691 0.504 0.929 0.074 0.242 0.129 0.492 0.168 0.742 0.035 0.25 0.109 0.305 0.113 0.559 0 0.25 0.027 0.496 0 0.742-0.031 0.246-0.176 0.692-0.23 0.93-0.055 0.238-0.125 0.465-0.203 0.687-0.075 0.207-0.383 0.188-0.473 0.375-0.629-0.582-1.309-1.07-2.16-1.207v-3.757z" fill="#fbb227"/>
  <path d="m138.44 58.999h1.855v-3.25h-1.855z" fill="#a96f00"/>
  <path d="m133.79 58.999h1.859v-3.25h-1.859z" fill="#2f3744"/>
  <path d="m134.44 60.238c-0.219 0.199-0.43 0.41-0.645 0.621-1.164-1.555-1.391-3.715-0.461-5.574h1.039c-0.117 0.234-0.219 0.468-0.297 0.71-0.082 0.239-0.144 0.485-0.191 0.727-0.043 0.246-0.07 0.488-0.082 0.734-0.012 0.243-8e-3 0.489 0.015 0.731 0.02 0.242 0.059 0.48 0.114 0.715 0.05 0.238 0.125 0.468 0.211 0.691 0.082 0.223 0.183 0.434 0.297 0.645z" fill="#ffd179"/>
  <path d="m140.76 55.285c0.929 1.859 0.465 4.183-0.465 5.574-0.207-0.207-0.414-0.41-0.625-0.61 0.09-0.187 0.18-0.382 0.25-0.589 0.082-0.219 0.148-0.45 0.207-0.688 0.055-0.234 0.101-0.477 0.129-0.727 0.027-0.246 0.043-0.496 0.039-0.746 0-0.254-0.016-0.504-0.055-0.757-0.035-0.25-0.09-0.497-0.164-0.743-0.074-0.242-0.168-0.48-0.285-0.714z" fill="#fbb227"/>
  <path d="m134.26 58.535h0.93v-0.926h-0.93z" fill="#cf2f25"/>
  <path d="m134.26 57.144h0.93v-0.93h-0.93z" fill="#47d58a"/>
 </g>
 <g transform="matrix(.41804 .32352 .32352 -.41804 19.593 3.097)">
  <path d="m133.62 54.82h6.844c0.117 0.164 0.222 0.32 0.293 0.465h-7.43c0.07-0.145 0.176-0.301 0.293-0.465z" fill="#a96f00"/>
  <path d="m134.52 53.894h5.047c0.371 0.289 0.672 0.613 0.899 0.926h-6.844c0.223-0.313 0.527-0.637 0.898-0.926z" fill="#fbb227"/>
  <path d="m138.84 53.429c0.262 0.137 0.512 0.289 0.734 0.465h-5.047c0.219-0.176 0.473-0.328 0.735-0.465z" fill="#ffd179"/>
  <path d="m138.84 53.429h-3.578c0.523-0.277 1.121-0.465 1.789-0.465s1.266 0.188 1.789 0.465z" fill="#ffd179"/>
  <path d="m136.12 61.582 1.848-0.01138-0.0111-3.0352-1.844 0.01628z" fill="#535e70"/>
  <path d="m136.58 55.285v3.757c-0.848 0.133-1.519 0.618-2.144 1.196-0.114-0.211-0.5-0.426-0.586-0.645-0.086-0.226-0.157-0.457-0.211-0.691-0.055-0.235-0.09-0.477-0.114-0.715-0.019-0.242-0.027-0.488-0.015-0.735 0.011-0.242 0.039-0.488 0.086-0.73 0.047-0.246 0.109-0.488 0.187-0.73 0.028-0.082 0.07-0.161 0.102-0.243 0.062-0.156 0.406-0.312 0.484-0.464z" fill="#fbb227"/>
  <path d="m137.51 55.285v3.757c-0.153-0.023-0.305-0.039-0.465-0.039s-0.317 0.016-0.465 0.039v-3.757z" fill="#a96f00"/>
  <path d="m139.79 55.285c0.227 0.277 0.43 0.691 0.504 0.929 0.074 0.242 0.129 0.492 0.168 0.742 0.035 0.25 0.109 0.305 0.113 0.559 0 0.25 0.027 0.496 0 0.742-0.031 0.246-0.176 0.692-0.23 0.93-0.055 0.238-0.125 0.465-0.203 0.687-0.075 0.207-0.383 0.188-0.473 0.375-0.629-0.582-1.309-1.07-2.16-1.207v-3.757z" fill="#fbb227"/>
  <path d="m138.44 58.999h1.855v-3.25h-1.855z" fill="#a96f00"/>
  <path d="m133.79 58.999h1.859v-3.25h-1.859z" fill="#2f3744"/>
  <path d="m134.44 60.238c-0.219 0.199-0.43 0.41-0.645 0.621-1.164-1.555-1.391-3.715-0.461-5.574h1.039c-0.117 0.234-0.219 0.468-0.297 0.71-0.082 0.239-0.144 0.485-0.191 0.727-0.043 0.246-0.07 0.488-0.082 0.734-0.012 0.243-8e-3 0.489 0.015 0.731 0.02 0.242 0.059 0.48 0.114 0.715 0.05 0.238 0.125 0.468 0.211 0.691 0.082 0.223 0.183 0.434 0.297 0.645z" fill="#ffd179"/>
  <path d="m140.76 55.285c0.929 1.859 0.465 4.183-0.465 5.574-0.207-0.207-0.414-0.41-0.625-0.61 0.09-0.187 0.18-0.382 0.25-0.589 0.082-0.219 0.148-0.45 0.207-0.688 0.055-0.234 0.101-0.477 0.129-0.727 0.027-0.246 0.043-0.496 0.039-0.746 0-0.254-0.016-0.504-0.055-0.757-0.035-0.25-0.09-0.497-0.164-0.743-0.074-0.242-0.168-0.48-0.285-0.714z" fill="#fbb227"/>
  <path d="m134.26 58.535h0.93v-0.926h-0.93z" fill="#cf2f25"/>
  <path d="m134.26 57.144h0.93v-0.93h-0.93z" fill="#47d58a"/>
 </g>
 <g transform="matrix(-.5286 -.0021758 -.0021758 .5286 104.45 -22.372)">
  <path d="m133.62 54.82h6.844c0.117 0.164 0.222 0.32 0.293 0.465h-7.43c0.07-0.145 0.176-0.301 0.293-0.465z" fill="#a96f00"/>
  <path d="m134.52 53.894h5.047c0.371 0.289 0.672 0.613 0.899 0.926h-6.844c0.223-0.313 0.527-0.637 0.898-0.926z" fill="#fbb227"/>
  <path d="m138.84 53.429c0.262 0.137 0.512 0.289 0.734 0.465h-5.047c0.219-0.176 0.473-0.328 0.735-0.465z" fill="#ffd179"/>
  <path d="m138.84 53.429h-3.578c0.523-0.277 1.121-0.465 1.789-0.465s1.266 0.188 1.789 0.465z" fill="#ffd179"/>
  <path d="m136.12 61.582 1.848-0.01138-0.0111-3.0352-1.844 0.01628z" fill="#535e70"/>
  <path d="m136.58 55.285v3.757c-0.848 0.133-1.519 0.618-2.144 1.196-0.114-0.211-0.5-0.426-0.586-0.645-0.086-0.226-0.157-0.457-0.211-0.691-0.055-0.235-0.09-0.477-0.114-0.715-0.019-0.242-0.027-0.488-0.015-0.735 0.011-0.242 0.039-0.488 0.086-0.73 0.047-0.246 0.109-0.488 0.187-0.73 0.028-0.082 0.07-0.161 0.102-0.243 0.062-0.156 0.406-0.312 0.484-0.464z" fill="#fbb227"/>
  <path d="m137.51 55.285v3.757c-0.153-0.023-0.305-0.039-0.465-0.039s-0.317 0.016-0.465 0.039v-3.757z" fill="#a96f00"/>
  <path d="m139.79 55.285c0.227 0.277 0.43 0.691 0.504 0.929 0.074 0.242 0.129 0.492 0.168 0.742 0.035 0.25 0.109 0.305 0.113 0.559 0 0.25 0.027 0.496 0 0.742-0.031 0.246-0.176 0.692-0.23 0.93-0.055 0.238-0.125 0.465-0.203 0.687-0.075 0.207-0.383 0.188-0.473 0.375-0.629-0.582-1.309-1.07-2.16-1.207v-3.757z" fill="#fbb227"/>
  <path d="m138.44 58.999h1.855v-3.25h-1.855z" fill="#a96f00"/>
  <path d="m133.79 58.999h1.859v-3.25h-1.859z" fill="#2f3744"/>
  <path d="m134.44 60.238c-0.219 0.199-0.43 0.41-0.645 0.621-1.164-1.555-1.391-3.715-0.461-5.574h1.039c-0.117 0.234-0.219 0.468-0.297 0.71-0.082 0.239-0.144 0.485-0.191 0.727-0.043 0.246-0.07 0.488-0.082 0.734-0.012 0.243-8e-3 0.489 0.015 0.731 0.02 0.242 0.059 0.48 0.114 0.715 0.05 0.238 0.125 0.468 0.211 0.691 0.082 0.223 0.183 0.434 0.297 0.645z" fill="#ffd179"/>
  <path d="m140.76 55.285c0.929 1.859 0.465 4.183-0.465 5.574-0.207-0.207-0.414-0.41-0.625-0.61 0.09-0.187 0.18-0.382 0.25-0.589 0.082-0.219 0.148-0.45 0.207-0.688 0.055-0.234 0.101-0.477 0.129-0.727 0.027-0.246 0.043-0.496 0.039-0.746 0-0.254-0.016-0.504-0.055-0.757-0.035-0.25-0.09-0.497-0.164-0.743-0.074-0.242-0.168-0.48-0.285-0.714z" fill="#fbb227"/>
  <path d="m134.26 58.535h0.93v-0.926h-0.93z" fill="#cf2f25"/>
  <path d="m134.26 57.144h0.93v-0.93h-0.93z" fill="#47d58a"/>
 </g>
 <g transform="matrix(-.5286 -.0021758 -.0021758 .5286 112.39 -22.372)">
  <path d="m133.62 54.82h6.844c0.117 0.164 0.222 0.32 0.293 0.465h-7.43c0.07-0.145 0.176-0.301 0.293-0.465z" fill="#a96f00"/>
  <path d="m134.52 53.894h5.047c0.371 0.289 0.672 0.613 0.899 0.926h-6.844c0.223-0.313 0.527-0.637 0.898-0.926z" fill="#fbb227"/>
  <path d="m138.84 53.429c0.262 0.137 0.512 0.289 0.734 0.465h-5.047c0.219-0.176 0.473-0.328 0.735-0.465z" fill="#ffd179"/>
  <path d="m138.84 53.429h-3.578c0.523-0.277 1.121-0.465 1.789-0.465s1.266 0.188 1.789 0.465z" fill="#ffd179"/>
  <path d="m136.12 61.582 1.848-0.01138-0.0111-3.0352-1.844 0.01628z" fill="#535e70"/>
  <path d="m136.58 55.285v3.757c-0.848 0.133-1.519 0.618-2.144 1.196-0.114-0.211-0.5-0.426-0.586-0.645-0.086-0.226-0.157-0.457-0.211-0.691-0.055-0.235-0.09-0.477-0.114-0.715-0.019-0.242-0.027-0.488-0.015-0.735 0.011-0.242 0.039-0.488 0.086-0.73 0.047-0.246 0.109-0.488 0.187-0.73 0.028-0.082 0.07-0.161 0.102-0.243 0.062-0.156 0.406-0.312 0.484-0.464z" fill="#fbb227"/>
  <path d="m137.51 55.285v3.757c-0.153-0.023-0.305-0.039-0.465-0.039s-0.317 0.016-0.465 0.039v-3.757z" fill="#a96f00"/>
  <path d="m139.79 55.285c0.227 0.277 0.43 0.691 0.504 0.929 0.074 0.242 0.129 0.492 0.168 0.742 0.035 0.25 0.109 0.305 0.113 0.559 0 0.25 0.027 0.496 0 0.742-0.031 0.246-0.176 0.692-0.23 0.93-0.055 0.238-0.125 0.465-0.203 0.687-0.075 0.207-0.383 0.188-0.473 0.375-0.629-0.582-1.309-1.07-2.16-1.207v-3.757z" fill="#fbb227"/>
  <path d="m138.44 58.999h1.855v-3.25h-1.855z" fill="#a96f00"/>
  <path d="m133.79 58.999h1.859v-3.25h-1.859z" fill="#2f3744"/>
  <path d="m134.44 60.238c-0.219 0.199-0.43 0.41-0.645 0.621-1.164-1.555-1.391-3.715-0.461-5.574h1.039c-0.117 0.234-0.219 0.468-0.297 0.71-0.082 0.239-0.144 0.485-0.191 0.727-0.043 0.246-0.07 0.488-0.082 0.734-0.012 0.243-8e-3 0.489 0.015 0.731 0.02 0.242 0.059 0.48 0.114 0.715 0.05 0.238 0.125 0.468 0.211 0.691 0.082 0.223 0.183 0.434 0.297 0.645z" fill="#ffd179"/>
  <path d="m140.76 55.285c0.929 1.859 0.465 4.183-0.465 5.574-0.207-0.207-0.414-0.41-0.625-0.61 0.09-0.187 0.18-0.382 0.25-0.589 0.082-0.219 0.148-0.45 0.207-0.688 0.055-0.234 0.101-0.477 0.129-0.727 0.027-0.246 0.043-0.496 0.039-0.746 0-0.254-0.016-0.504-0.055-0.757-0.035-0.25-0.09-0.497-0.164-0.743-0.074-0.242-0.168-0.48-0.285-0.714z" fill="#fbb227"/>
  <path d="m134.26 58.535h0.93v-0.926h-0.93z" fill="#cf2f25"/>
  <path d="m134.26 57.144h0.93v-0.93h-0.93z" fill="#47d58a"/>
 </g>
 <g transform="matrix(-.26242 -.45887 -.45887 .26242 110.01 55.447)">
  <path d="m133.62 54.82h6.844c0.117 0.164 0.222 0.32 0.293 0.465h-7.43c0.07-0.145 0.176-0.301 0.293-0.465z" fill="#a96f00"/>
  <path d="m134.52 53.894h5.047c0.371 0.289 0.672 0.613 0.899 0.926h-6.844c0.223-0.313 0.527-0.637 0.898-0.926z" fill="#fbb227"/>
  <path d="m138.84 53.429c0.262 0.137 0.512 0.289 0.734 0.465h-5.047c0.219-0.176 0.473-0.328 0.735-0.465z" fill="#ffd179"/>
  <path d="m138.84 53.429h-3.578c0.523-0.277 1.121-0.465 1.789-0.465s1.266 0.188 1.789 0.465z" fill="#ffd179"/>
  <path d="m136.12 61.582 1.848-0.01138-0.0111-3.0352-1.844 0.01628z" fill="#535e70"/>
  <path d="m136.58 55.285v3.757c-0.848 0.133-1.519 0.618-2.144 1.196-0.114-0.211-0.5-0.426-0.586-0.645-0.086-0.226-0.157-0.457-0.211-0.691-0.055-0.235-0.09-0.477-0.114-0.715-0.019-0.242-0.027-0.488-0.015-0.735 0.011-0.242 0.039-0.488 0.086-0.73 0.047-0.246 0.109-0.488 0.187-0.73 0.028-0.082 0.07-0.161 0.102-0.243 0.062-0.156 0.406-0.312 0.484-0.464z" fill="#fbb227"/>
  <path d="m137.51 55.285v3.757c-0.153-0.023-0.305-0.039-0.465-0.039s-0.317 0.016-0.465 0.039v-3.757z" fill="#a96f00"/>
  <path d="m139.79 55.285c0.227 0.277 0.43 0.691 0.504 0.929 0.074 0.242 0.129 0.492 0.168 0.742 0.035 0.25 0.109 0.305 0.113 0.559 0 0.25 0.027 0.496 0 0.742-0.031 0.246-0.176 0.692-0.23 0.93-0.055 0.238-0.125 0.465-0.203 0.687-0.075 0.207-0.383 0.188-0.473 0.375-0.629-0.582-1.309-1.07-2.16-1.207v-3.757z" fill="#fbb227"/>
  <path d="m138.44 58.999h1.855v-3.25h-1.855z" fill="#a96f00"/>
  <path d="m133.79 58.999h1.859v-3.25h-1.859z" fill="#2f3744"/>
  <path d="m134.44 60.238c-0.219 0.199-0.43 0.41-0.645 0.621-1.164-1.555-1.391-3.715-0.461-5.574h1.039c-0.117 0.234-0.219 0.468-0.297 0.71-0.082 0.239-0.144 0.485-0.191 0.727-0.043 0.246-0.07 0.488-0.082 0.734-0.012 0.243-8e-3 0.489 0.015 0.731 0.02 0.242 0.059 0.48 0.114 0.715 0.05 0.238 0.125 0.468 0.211 0.691 0.082 0.223 0.183 0.434 0.297 0.645z" fill="#ffd179"/>
  <path d="m140.76 55.285c0.929 1.859 0.465 4.183-0.465 5.574-0.207-0.207-0.414-0.41-0.625-0.61 0.09-0.187 0.18-0.382 0.25-0.589 0.082-0.219 0.148-0.45 0.207-0.688 0.055-0.234 0.101-0.477 0.129-0.727 0.027-0.246 0.043-0.496 0.039-0.746 0-0.254-0.016-0.504-0.055-0.757-0.035-0.25-0.09-0.497-0.164-0.743-0.074-0.242-0.168-0.48-0.285-0.714z" fill="#fbb227"/>
  <path d="m134.26 58.535h0.93v-0.926h-0.93z" fill="#cf2f25"/>
  <path d="m134.26 57.144h0.93v-0.93h-0.93z" fill="#47d58a"/>
 </g>
 <g transform="matrix(-.26242 -.45887 -.45887 .26242 117.95 55.447)">
  <path d="m133.62 54.82h6.844c0.117 0.164 0.222 0.32 0.293 0.465h-7.43c0.07-0.145 0.176-0.301 0.293-0.465z" fill="#a96f00"/>
  <path d="m134.52 53.894h5.047c0.371 0.289 0.672 0.613 0.899 0.926h-6.844c0.223-0.313 0.527-0.637 0.898-0.926z" fill="#fbb227"/>
  <path d="m138.84 53.429c0.262 0.137 0.512 0.289 0.734 0.465h-5.047c0.219-0.176 0.473-0.328 0.735-0.465z" fill="#ffd179"/>
  <path d="m138.84 53.429h-3.578c0.523-0.277 1.121-0.465 1.789-0.465s1.266 0.188 1.789 0.465z" fill="#ffd179"/>
  <path d="m136.12 61.582 1.848-0.01138-0.0111-3.0352-1.844 0.01628z" fill="#535e70"/>
  <path d="m136.58 55.285v3.757c-0.848 0.133-1.519 0.618-2.144 1.196-0.114-0.211-0.5-0.426-0.586-0.645-0.086-0.226-0.157-0.457-0.211-0.691-0.055-0.235-0.09-0.477-0.114-0.715-0.019-0.242-0.027-0.488-0.015-0.735 0.011-0.242 0.039-0.488 0.086-0.73 0.047-0.246 0.109-0.488 0.187-0.73 0.028-0.082 0.07-0.161 0.102-0.243 0.062-0.156 0.406-0.312 0.484-0.464z" fill="#fbb227"/>
  <path d="m137.51 55.285v3.757c-0.153-0.023-0.305-0.039-0.465-0.039s-0.317 0.016-0.465 0.039v-3.757z" fill="#a96f00"/>
  <path d="m139.79 55.285c0.227 0.277 0.43 0.691 0.504 0.929 0.074 0.242 0.129 0.492 0.168 0.742 0.035 0.25 0.109 0.305 0.113 0.559 0 0.25 0.027 0.496 0 0.742-0.031 0.246-0.176 0.692-0.23 0.93-0.055 0.238-0.125 0.465-0.203 0.687-0.075 0.207-0.383 0.188-0.473 0.375-0.629-0.582-1.309-1.07-2.16-1.207v-3.757z" fill="#fbb227"/>
  <path d="m138.44 58.999h1.855v-3.25h-1.855z" fill="#a96f00"/>
  <path d="m133.79 58.999h1.859v-3.25h-1.859z" fill="#2f3744"/>
  <path d="m134.44 60.238c-0.219 0.199-0.43 0.41-0.645 0.621-1.164-1.555-1.391-3.715-0.461-5.574h1.039c-0.117 0.234-0.219 0.468-0.297 0.71-0.082 0.239-0.144 0.485-0.191 0.727-0.043 0.246-0.07 0.488-0.082 0.734-0.012 0.243-8e-3 0.489 0.015 0.731 0.02 0.242 0.059 0.48 0.114 0.715 0.05 0.238 0.125 0.468 0.211 0.691 0.082 0.223 0.183 0.434 0.297 0.645z" fill="#ffd179"/>
  <path d="m140.76 55.285c0.929 1.859 0.465 4.183-0.465 5.574-0.207-0.207-0.414-0.41-0.625-0.61 0.09-0.187 0.18-0.382 0.25-0.589 0.082-0.219 0.148-0.45 0.207-0.688 0.055-0.234 0.101-0.477 0.129-0.727 0.027-0.246 0.043-0.496 0.039-0.746 0-0.254-0.016-0.504-0.055-0.757-0.035-0.25-0.09-0.497-0.164-0.743-0.074-0.242-0.168-0.48-0.285-0.714z" fill="#fbb227"/>
  <path d="m134.26 58.535h0.93v-0.926h-0.93z" fill="#cf2f25"/>
  <path d="m134.26 57.144h0.93v-0.93h-0.93z" fill="#47d58a"/>
 </g>
 <g transform="matrix(-.26242 -.45887 -.45887 .26242 125.89 55.447)">
  <path d="m133.62 54.82h6.844c0.117 0.164 0.222 0.32 0.293 0.465h-7.43c0.07-0.145 0.176-0.301 0.293-0.465z" fill="#a96f00"/>
  <path d="m134.52 53.894h5.047c0.371 0.289 0.672 0.613 0.899 0.926h-6.844c0.223-0.313 0.527-0.637 0.898-0.926z" fill="#fbb227"/>
  <path d="m138.84 53.429c0.262 0.137 0.512 0.289 0.734 0.465h-5.047c0.219-0.176 0.473-0.328 0.735-0.465z" fill="#ffd179"/>
  <path d="m138.84 53.429h-3.578c0.523-0.277 1.121-0.465 1.789-0.465s1.266 0.188 1.789 0.465z" fill="#ffd179"/>
  <path d="m136.12 61.582 1.848-0.01138-0.0111-3.0352-1.844 0.01628z" fill="#535e70"/>
  <path d="m136.58 55.285v3.757c-0.848 0.133-1.519 0.618-2.144 1.196-0.114-0.211-0.5-0.426-0.586-0.645-0.086-0.226-0.157-0.457-0.211-0.691-0.055-0.235-0.09-0.477-0.114-0.715-0.019-0.242-0.027-0.488-0.015-0.735 0.011-0.242 0.039-0.488 0.086-0.73 0.047-0.246 0.109-0.488 0.187-0.73 0.028-0.082 0.07-0.161 0.102-0.243 0.062-0.156 0.406-0.312 0.484-0.464z" fill="#fbb227"/>
  <path d="m137.51 55.285v3.757c-0.153-0.023-0.305-0.039-0.465-0.039s-0.317 0.016-0.465 0.039v-3.757z" fill="#a96f00"/>
  <path d="m139.79 55.285c0.227 0.277 0.43 0.691 0.504 0.929 0.074 0.242 0.129 0.492 0.168 0.742 0.035 0.25 0.109 0.305 0.113 0.559 0 0.25 0.027 0.496 0 0.742-0.031 0.246-0.176 0.692-0.23 0.93-0.055 0.238-0.125 0.465-0.203 0.687-0.075 0.207-0.383 0.188-0.473 0.375-0.629-0.582-1.309-1.07-2.16-1.207v-3.757z" fill="#fbb227"/>
  <path d="m138.44 58.999h1.855v-3.25h-1.855z" fill="#a96f00"/>
  <path d="m133.79 58.999h1.859v-3.25h-1.859z" fill="#2f3744"/>
  <path d="m134.44 60.238c-0.219 0.199-0.43 0.41-0.645 0.621-1.164-1.555-1.391-3.715-0.461-5.574h1.039c-0.117 0.234-0.219 0.468-0.297 0.71-0.082 0.239-0.144 0.485-0.191 0.727-0.043 0.246-0.07 0.488-0.082 0.734-0.012 0.243-8e-3 0.489 0.015 0.731 0.02 0.242 0.059 0.48 0.114 0.715 0.05 0.238 0.125 0.468 0.211 0.691 0.082 0.223 0.183 0.434 0.297 0.645z" fill="#ffd179"/>
  <path d="m140.76 55.285c0.929 1.859 0.465 4.183-0.465 5.574-0.207-0.207-0.414-0.41-0.625-0.61 0.09-0.187 0.18-0.382 0.25-0.589 0.082-0.219 0.148-0.45 0.207-0.688 0.055-0.234 0.101-0.477 0.129-0.727 0.027-0.246 0.043-0.496 0.039-0.746 0-0.254-0.016-0.504-0.055-0.757-0.035-0.25-0.09-0.497-0.164-0.743-0.074-0.242-0.168-0.48-0.285-0.714z" fill="#fbb227"/>
  <path d="m134.26 58.535h0.93v-0.926h-0.93z" fill="#cf2f25"/>
  <path d="m134.26 57.144h0.93v-0.93h-0.93z" fill="#47d58a"/>
 </g>
 <g transform="matrix(.26618 -.45669 -.45669 -.26618 61.273 85.424)">
  <path d="m133.62 54.82h6.844c0.117 0.164 0.222 0.32 0.293 0.465h-7.43c0.07-0.145 0.176-0.301 0.293-0.465z" fill="#a96f00"/>
  <path d="m134.52 53.894h5.047c0.371 0.289 0.672 0.613 0.899 0.926h-6.844c0.223-0.313 0.527-0.637 0.898-0.926z" fill="#fbb227"/>
  <path d="m138.84 53.429c0.262 0.137 0.512 0.289 0.734 0.465h-5.047c0.219-0.176 0.473-0.328 0.735-0.465z" fill="#ffd179"/>
  <path d="m138.84 53.429h-3.578c0.523-0.277 1.121-0.465 1.789-0.465s1.266 0.188 1.789 0.465z" fill="#ffd179"/>
  <path d="m136.12 61.582 1.848-0.01138-0.0111-3.0352-1.844 0.01628z" fill="#535e70"/>
  <path d="m136.58 55.285v3.757c-0.848 0.133-1.519 0.618-2.144 1.196-0.114-0.211-0.5-0.426-0.586-0.645-0.086-0.226-0.157-0.457-0.211-0.691-0.055-0.235-0.09-0.477-0.114-0.715-0.019-0.242-0.027-0.488-0.015-0.735 0.011-0.242 0.039-0.488 0.086-0.73 0.047-0.246 0.109-0.488 0.187-0.73 0.028-0.082 0.07-0.161 0.102-0.243 0.062-0.156 0.406-0.312 0.484-0.464z" fill="#fbb227"/>
  <path d="m137.51 55.285v3.757c-0.153-0.023-0.305-0.039-0.465-0.039s-0.317 0.016-0.465 0.039v-3.757z" fill="#a96f00"/>
  <path d="m139.79 55.285c0.227 0.277 0.43 0.691 0.504 0.929 0.074 0.242 0.129 0.492 0.168 0.742 0.035 0.25 0.109 0.305 0.113 0.559 0 0.25 0.027 0.496 0 0.742-0.031 0.246-0.176 0.692-0.23 0.93-0.055 0.238-0.125 0.465-0.203 0.687-0.075 0.207-0.383 0.188-0.473 0.375-0.629-0.582-1.309-1.07-2.16-1.207v-3.757z" fill="#fbb227"/>
  <path d="m138.44 58.999h1.855v-3.25h-1.855z" fill="#a96f00"/>
  <path d="m133.79 58.999h1.859v-3.25h-1.859z" fill="#2f3744"/>
  <path d="m134.44 60.238c-0.219 0.199-0.43 0.41-0.645 0.621-1.164-1.555-1.391-3.715-0.461-5.574h1.039c-0.117 0.234-0.219 0.468-0.297 0.71-0.082 0.239-0.144 0.485-0.191 0.727-0.043 0.246-0.07 0.488-0.082 0.734-0.012 0.243-8e-3 0.489 0.015 0.731 0.02 0.242 0.059 0.48 0.114 0.715 0.05 0.238 0.125 0.468 0.211 0.691 0.082 0.223 0.183 0.434 0.297 0.645z" fill="#ffd179"/>
  <path d="m140.76 55.285c0.929 1.859 0.465 4.183-0.465 5.574-0.207-0.207-0.414-0.41-0.625-0.61 0.09-0.187 0.18-0.382 0.25-0.589 0.082-0.219 0.148-0.45 0.207-0.688 0.055-0.234 0.101-0.477 0.129-0.727 0.027-0.246 0.043-0.496 0.039-0.746 0-0.254-0.016-0.504-0.055-0.757-0.035-0.25-0.09-0.497-0.164-0.743-0.074-0.242-0.168-0.48-0.285-0.714z" fill="#fbb227"/>
  <path d="m134.26 58.535h0.93v-0.926h-0.93z" fill="#cf2f25"/>
  <path d="m134.26 57.144h0.93v-0.93h-0.93z" fill="#47d58a"/>
 </g>
 <g transform="matrix(.26618 -.45669 -.45669 -.26618 69.211 85.424)">
  <path d="m133.62 54.82h6.844c0.117 0.164 0.222 0.32 0.293 0.465h-7.43c0.07-0.145 0.176-0.301 0.293-0.465z" fill="#a96f00"/>
  <path d="m134.52 53.894h5.047c0.371 0.289 0.672 0.613 0.899 0.926h-6.844c0.223-0.313 0.527-0.637 0.898-0.926z" fill="#fbb227"/>
  <path d="m138.84 53.429c0.262 0.137 0.512 0.289 0.734 0.465h-5.047c0.219-0.176 0.473-0.328 0.735-0.465z" fill="#ffd179"/>
  <path d="m138.84 53.429h-3.578c0.523-0.277 1.121-0.465 1.789-0.465s1.266 0.188 1.789 0.465z" fill="#ffd179"/>
  <path d="m136.12 61.582 1.848-0.01138-0.0111-3.0352-1.844 0.01628z" fill="#535e70"/>
  <path d="m136.58 55.285v3.757c-0.848 0.133-1.519 0.618-2.144 1.196-0.114-0.211-0.5-0.426-0.586-0.645-0.086-0.226-0.157-0.457-0.211-0.691-0.055-0.235-0.09-0.477-0.114-0.715-0.019-0.242-0.027-0.488-0.015-0.735 0.011-0.242 0.039-0.488 0.086-0.73 0.047-0.246 0.109-0.488 0.187-0.73 0.028-0.082 0.07-0.161 0.102-0.243 0.062-0.156 0.406-0.312 0.484-0.464z" fill="#fbb227"/>
  <path d="m137.51 55.285v3.757c-0.153-0.023-0.305-0.039-0.465-0.039s-0.317 0.016-0.465 0.039v-3.757z" fill="#a96f00"/>
  <path d="m139.79 55.285c0.227 0.277 0.43 0.691 0.504 0.929 0.074 0.242 0.129 0.492 0.168 0.742 0.035 0.25 0.109 0.305 0.113 0.559 0 0.25 0.027 0.496 0 0.742-0.031 0.246-0.176 0.692-0.23 0.93-0.055 0.238-0.125 0.465-0.203 0.687-0.075 0.207-0.383 0.188-0.473 0.375-0.629-0.582-1.309-1.07-2.16-1.207v-3.757z" fill="#fbb227"/>
  <path d="m138.44 58.999h1.855v-3.25h-1.855z" fill="#a96f00"/>
  <path d="m133.79 58.999h1.859v-3.25h-1.859z" fill="#2f3744"/>
  <path d="m134.44 60.238c-0.219 0.199-0.43 0.41-0.645 0.621-1.164-1.555-1.391-3.715-0.461-5.574h1.039c-0.117 0.234-0.219 0.468-0.297 0.71-0.082 0.239-0.144 0.485-0.191 0.727-0.043 0.246-0.07 0.488-0.082 0.734-0.012 0.243-8e-3 0.489 0.015 0.731 0.02 0.242 0.059 0.48 0.114 0.715 0.05 0.238 0.125 0.468 0.211 0.691 0.082 0.223 0.183 0.434 0.297 0.645z" fill="#ffd179"/>
  <path d="m140.76 55.285c0.929 1.859 0.465 4.183-0.465 5.574-0.207-0.207-0.414-0.41-0.625-0.61 0.09-0.187 0.18-0.382 0.25-0.589 0.082-0.219 0.148-0.45 0.207-0.688 0.055-0.234 0.101-0.477 0.129-0.727 0.027-0.246 0.043-0.496 0.039-0.746 0-0.254-0.016-0.504-0.055-0.757-0.035-0.25-0.09-0.497-0.164-0.743-0.074-0.242-0.168-0.48-0.285-0.714z" fill="#fbb227"/>
  <path d="m134.26 58.535h0.93v-0.926h-0.93z" fill="#cf2f25"/>
  <path d="m134.26 57.144h0.93v-0.93h-0.93z" fill="#47d58a"/>
 </g>
 <g transform="matrix(.26618 -.45669 -.45669 -.26618 77.148 85.424)">
  <path d="m133.62 54.82h6.844c0.117 0.164 0.222 0.32 0.293 0.465h-7.43c0.07-0.145 0.176-0.301 0.293-0.465z" fill="#a96f00"/>
  <path d="m134.52 53.894h5.047c0.371 0.289 0.672 0.613 0.899 0.926h-6.844c0.223-0.313 0.527-0.637 0.898-0.926z" fill="#fbb227"/>
  <path d="m138.84 53.429c0.262 0.137 0.512 0.289 0.734 0.465h-5.047c0.219-0.176 0.473-0.328 0.735-0.465z" fill="#ffd179"/>
  <path d="m138.84 53.429h-3.578c0.523-0.277 1.121-0.465 1.789-0.465s1.266 0.188 1.789 0.465z" fill="#ffd179"/>
  <path d="m136.12 61.582 1.848-0.01138-0.0111-3.0352-1.844 0.01628z" fill="#535e70"/>
  <path d="m136.58 55.285v3.757c-0.848 0.133-1.519 0.618-2.144 1.196-0.114-0.211-0.5-0.426-0.586-0.645-0.086-0.226-0.157-0.457-0.211-0.691-0.055-0.235-0.09-0.477-0.114-0.715-0.019-0.242-0.027-0.488-0.015-0.735 0.011-0.242 0.039-0.488 0.086-0.73 0.047-0.246 0.109-0.488 0.187-0.73 0.028-0.082 0.07-0.161 0.102-0.243 0.062-0.156 0.406-0.312 0.484-0.464z" fill="#fbb227"/>
  <path d="m137.51 55.285v3.757c-0.153-0.023-0.305-0.039-0.465-0.039s-0.317 0.016-0.465 0.039v-3.757z" fill="#a96f00"/>
  <path d="m139.79 55.285c0.227 0.277 0.43 0.691 0.504 0.929 0.074 0.242 0.129 0.492 0.168 0.742 0.035 0.25 0.109 0.305 0.113 0.559 0 0.25 0.027 0.496 0 0.742-0.031 0.246-0.176 0.692-0.23 0.93-0.055 0.238-0.125 0.465-0.203 0.687-0.075 0.207-0.383 0.188-0.473 0.375-0.629-0.582-1.309-1.07-2.16-1.207v-3.757z" fill="#fbb227"/>
  <path d="m138.44 58.999h1.855v-3.25h-1.855z" fill="#a96f00"/>
  <path d="m133.79 58.999h1.859v-3.25h-1.859z" fill="#2f3744"/>
  <path d="m134.44 60.238c-0.219 0.199-0.43 0.41-0.645 0.621-1.164-1.555-1.391-3.715-0.461-5.574h1.039c-0.117 0.234-0.219 0.468-0.297 0.71-0.082 0.239-0.144 0.485-0.191 0.727-0.043 0.246-0.07 0.488-0.082 0.734-0.012 0.243-8e-3 0.489 0.015 0.731 0.02 0.242 0.059 0.48 0.114 0.715 0.05 0.238 0.125 0.468 0.211 0.691 0.082 0.223 0.183 0.434 0.297 0.645z" fill="#ffd179"/>
  <path d="m140.76 55.285c0.929 1.859 0.465 4.183-0.465 5.574-0.207-0.207-0.414-0.41-0.625-0.61 0.09-0.187 0.18-0.382 0.25-0.589 0.082-0.219 0.148-0.45 0.207-0.688 0.055-0.234 0.101-0.477 0.129-0.727 0.027-0.246 0.043-0.496 0.039-0.746 0-0.254-0.016-0.504-0.055-0.757-0.035-0.25-0.09-0.497-0.164-0.743-0.074-0.242-0.168-0.48-0.285-0.714z" fill="#fbb227"/>
  <path d="m134.26 58.535h0.93v-0.926h-0.93z" fill="#cf2f25"/>
  <path d="m134.26 57.144h0.93v-0.93h-0.93z" fill="#47d58a"/>
 </g>
 <g transform="matrix(.5286 .0021758 .0021758 -.5286 22.849 37.583)">
  <path d="m133.62 54.82h6.844c0.117 0.164 0.222 0.32 0.293 0.465h-7.43c0.07-0.145 0.176-0.301 0.293-0.465z" fill="#a96f00"/>
  <path d="m134.52 53.894h5.047c0.371 0.289 0.672 0.613 0.899 0.926h-6.844c0.223-0.313 0.527-0.637 0.898-0.926z" fill="#fbb227"/>
  <path d="m138.84 53.429c0.262 0.137 0.512 0.289 0.734 0.465h-5.047c0.219-0.176 0.473-0.328 0.735-0.465z" fill="#ffd179"/>
  <path d="m138.84 53.429h-3.578c0.523-0.277 1.121-0.465 1.789-0.465s1.266 0.188 1.789 0.465z" fill="#ffd179"/>
  <path d="m136.12 61.582 1.848-0.01138-0.0111-3.0352-1.844 0.01628z" fill="#535e70"/>
  <path d="m136.58 55.285v3.757c-0.848 0.133-1.519 0.618-2.144 1.196-0.114-0.211-0.5-0.426-0.586-0.645-0.086-0.226-0.157-0.457-0.211-0.691-0.055-0.235-0.09-0.477-0.114-0.715-0.019-0.242-0.027-0.488-0.015-0.735 0.011-0.242 0.039-0.488 0.086-0.73 0.047-0.246 0.109-0.488 0.187-0.73 0.028-0.082 0.07-0.161 0.102-0.243 0.062-0.156 0.406-0.312 0.484-0.464z" fill="#fbb227"/>
  <path d="m137.51 55.285v3.757c-0.153-0.023-0.305-0.039-0.465-0.039s-0.317 0.016-0.465 0.039v-3.757z" fill="#a96f00"/>
  <path d="m139.79 55.285c0.227 0.277 0.43 0.691 0.504 0.929 0.074 0.242 0.129 0.492 0.168 0.742 0.035 0.25 0.109 0.305 0.113 0.559 0 0.25 0.027 0.496 0 0.742-0.031 0.246-0.176 0.692-0.23 0.93-0.055 0.238-0.125 0.465-0.203 0.687-0.075 0.207-0.383 0.188-0.473 0.375-0.629-0.582-1.309-1.07-2.16-1.207v-3.757z" fill="#fbb227"/>
  <path d="m138.44 58.999h1.855v-3.25h-1.855z" fill="#a96f00"/>
  <path d="m133.79 58.999h1.859v-3.25h-1.859z" fill="#2f3744"/>
  <path d="m134.44 60.238c-0.219 0.199-0.43 0.41-0.645 0.621-1.164-1.555-1.391-3.715-0.461-5.574h1.039c-0.117 0.234-0.219 0.468-0.297 0.71-0.082 0.239-0.144 0.485-0.191 0.727-0.043 0.246-0.07 0.488-0.082 0.734-0.012 0.243-8e-3 0.489 0.015 0.731 0.02 0.242 0.059 0.48 0.114 0.715 0.05 0.238 0.125 0.468 0.211 0.691 0.082 0.223 0.183 0.434 0.297 0.645z" fill="#ffd179"/>
  <path d="m140.76 55.285c0.929 1.859 0.465 4.183-0.465 5.574-0.207-0.207-0.414-0.41-0.625-0.61 0.09-0.187 0.18-0.382 0.25-0.589 0.082-0.219 0.148-0.45 0.207-0.688 0.055-0.234 0.101-0.477 0.129-0.727 0.027-0.246 0.043-0.496 0.039-0.746 0-0.254-0.016-0.504-0.055-0.757-0.035-0.25-0.09-0.497-0.164-0.743-0.074-0.242-0.168-0.48-0.285-0.714z" fill="#fbb227"/>
  <path d="m134.26 58.535h0.93v-0.926h-0.93z" fill="#cf2f25"/>
  <path d="m134.26 57.144h0.93v-0.93h-0.93z" fill="#47d58a"/>
 </g>
</svg>
