<?xml version="1.0" encoding="UTF-8"?>
<svg width="130.97mm" height="76.729mm" version="1.1" viewBox="0 0 130.97 76.729" xmlns="http://www.w3.org/2000/svg" xmlns:cc="http://creativecommons.org/ns#" xmlns:dc="http://purl.org/dc/elements/1.1/" xmlns:rdf="http://www.w3.org/1999/02/22-rdf-syntax-ns#">
 <metadata>
  <rdf:RDF>
   <cc:Work rdf:about="">
    <dc:format>image/svg+xml</dc:format>
    <dc:type rdf:resource="http://purl.org/dc/dcmitype/StillImage"/>
    <dc:title/>
   </cc:Work>
  </rdf:RDF>
 </metadata>
 <rect y="-2.2204e-16" width="130.97" height="76.729" fill="#2f3744" fill-opacity=".50196"/>
 <path d="m16.924 69.337-3.6947 2.1331-3.6947-2.1331v-4.2663l3.6947-2.1331 3.6947 2.1331z" fill="none" stroke="#6f8ce9" stroke-linecap="round" stroke-width=".26458"/>
 <path d="m22.739 67.337h-4.3987" fill="none" stroke="#7b8694" stroke-linecap="round" stroke-width=".26458"/>
 <g transform="matrix(-.0044048 0 0 -.0044802 19.342 68.541)" fill="#7b8694" stroke-width="59.559">
  <g fill="#7b8694" stroke-width="59.559">
   <path d="m486.41 221.41-364.07-208.5c-52.938-30.318-95.852-5.44-95.852 55.563v415.65c0 61.004 42.914 85.882 95.852 55.563l364.07-208.49c52.938-30.317 52.938-79.473 0-109.79z" fill="#7b8694" stroke-width="59.559"/>
  </g>
 </g>
 <path d="m30.153 69.337-3.6947 2.1331-3.6947-2.1331v-4.2663l3.6947-2.1331 3.6947 2.1331z" fill="none" stroke="#6f8ce9" stroke-linecap="round" stroke-width=".26458"/>
 <path d="m35.968 67.337h-4.3987" fill="none" stroke="#7b8694" stroke-linecap="round" stroke-width=".26458"/>
 <g transform="matrix(-.0044048 0 0 -.0044802 32.571 68.541)" fill="#7b8694" stroke-width="59.559">
  <g fill="#7b8694" stroke-width="59.559">
   <path d="m486.41 221.41-364.07-208.5c-52.938-30.318-95.852-5.44-95.852 55.563v415.65c0 61.004 42.914 85.882 95.852 55.563l364.07-208.49c52.938-30.317 52.938-79.473 0-109.79z" fill="#7b8694" stroke-width="59.559"/>
  </g>
 </g>
 <path d="m43.382 69.337-3.6947 2.1331-3.6947-2.1331v-4.2663l3.6947-2.1331 3.6947 2.1331z" fill="none" stroke="#6f8ce9" stroke-linecap="round" stroke-width=".26458"/>
 <path d="m49.198 67.337h-4.3987" fill="none" stroke="#7b8694" stroke-linecap="round" stroke-width=".26458"/>
 <g transform="matrix(-.0044048 0 0 -.0044802 45.8 68.541)" fill="#7b8694" stroke-width="59.559">
  <g fill="#7b8694" stroke-width="59.559">
   <path d="m486.41 221.41-364.07-208.5c-52.938-30.318-95.852-5.44-95.852 55.563v415.65c0 61.004 42.914 85.882 95.852 55.563l364.07-208.49c52.938-30.317 52.938-79.473 0-109.79z" fill="#7b8694" stroke-width="59.559"/>
  </g>
 </g>
 <path d="m56.611 69.337-3.6947 2.1331-3.6947-2.1331v-4.2663l3.6947-2.1331 3.6947 2.1331z" fill="none" stroke="#6f8ce9" stroke-linecap="round" stroke-width=".26458"/>
 <g fill="#e8eaec" stroke="#cf2f25" stroke-linecap="round" stroke-width=".26458">
  <g aria-label="A">
   <path d="m16.034 71.928 0.11853-0.37042c0.0852-0.2704 0.16298-0.5371 0.24077-0.81862h0.01482c0.07779 0.28152 0.15558 0.54822 0.24077 0.81862l0.11483 0.37042zm1.0409 0.98901h0.32597l-0.82232-2.4299h-0.34819l-0.82233 2.4299h0.31485l0.23336-0.74083h0.8853z" fill="#e8eaec" stroke="none"/>
  </g>
  <g aria-label="B">
   <path d="m28.959 72.917h0.77788c0.54081 0 0.91864-0.23336 0.91864-0.7112 0-0.33338-0.20743-0.52599-0.56303-0.58156v-0.01482c0.28892-0.07408 0.42598-0.28892 0.42598-0.5297 0-0.42598-0.34449-0.59267-0.83714-0.59267h-0.72231zm0.31115-1.3928v-0.79269h0.37412c0.37412 0 0.57044 0.11112 0.57044 0.37412 0 0.2704-0.1741 0.41857-0.58526 0.41857zm0 1.1483v-0.91863h0.42228c0.42598 0 0.65934 0.13705 0.65934 0.43709 0 0.32967-0.24448 0.48154-0.65934 0.48154z" fill="#e8eaec" stroke="none"/>
  </g>
  <g aria-label="C">
   <path d="m42.048 71.702c0 0.79269 0.45561 1.2594 1.0668 1.2594 0.30745 0 0.54822-0.12965 0.73713-0.3519l-0.1741-0.18891c-0.15558 0.1741-0.32597 0.2704-0.55563 0.2704-0.46302 0-0.75565-0.38523-0.75565-0.99642 0-0.60378 0.30745-0.9816 0.77047-0.9816 0.20002 0 0.3556 0.0889 0.48525 0.22596l0.1741-0.19632c-0.14446-0.15928-0.37412-0.30004-0.66305-0.30004-0.6223 0-1.0853 0.47784-1.0853 1.2594z" fill="#e8eaec" stroke="none"/>
  </g>
  <g aria-label="D">
   <path d="m55.417 72.917h0.6223c0.73343 0 1.1335-0.45191 1.1335-1.2261 0-0.77047-0.40005-1.2039-1.1483-1.2039h-0.60748zm0.31115-0.25188v-1.9262h0.27411c0.57044 0 0.85196 0.34078 0.85196 0.95197 0 0.61489-0.28152 0.9742-0.85196 0.9742z" fill="#e8eaec" stroke="none"/>
  </g>
 </g>
 <path d="m62.427 67.337h-4.3987" fill="none" stroke="#7b8694" stroke-linecap="round" stroke-width=".26458"/>
 <g transform="matrix(-.0044048 0 0 -.0044802 59.029 68.541)" fill="#7b8694" stroke-width="59.559">
  <g fill="#7b8694" stroke-width="59.559">
   <path d="m486.41 221.41-364.07-208.5c-52.938-30.318-95.852-5.44-95.852 55.563v415.65c0 61.004 42.914 85.882 95.852 55.563l364.07-208.49c52.938-30.317 52.938-79.473 0-109.79z" fill="#7b8694" stroke-width="59.559"/>
  </g>
 </g>
 <g stroke-linecap="round" stroke-width=".26458">
  <path d="m69.841 69.337-3.6947 2.1331-3.6947-2.1331v-4.2663l3.6947-2.1331 3.6947 2.1331z" fill="none" stroke="#6f8ce9"/>
  <g fill="#e8eaec" stroke="#cf2f25" aria-label="E">
   <path d="m68.647 72.917h1.4372v-0.263h-1.1261v-0.88159h0.91864v-0.263h-0.91864v-0.76306h1.089v-0.25929h-1.4002z" fill="#e8eaec" stroke="none"/>
  </g>
  <path d="m75.656 67.337h-4.3987" fill="none" stroke="#7b8694"/>
 </g>
 <g transform="matrix(-.0044048 0 0 -.0044802 72.258 68.541)" fill="#7b8694" stroke-width="59.559">
  <g fill="#7b8694" stroke-width="59.559">
   <path d="m486.41 221.41-364.07-208.5c-52.938-30.318-95.852-5.44-95.852 55.563v415.65c0 61.004 42.914 85.882 95.852 55.563l364.07-208.49c52.938-30.317 52.938-79.473 0-109.79z" fill="#7b8694" stroke-width="59.559"/>
  </g>
 </g>
 <g stroke-linecap="round" stroke-width=".26458">
  <path d="m83.07 69.337-3.6947 2.1331-3.6947-2.1331v-4.2663l3.6947-2.1331 3.6947 2.1331z" fill="none" stroke="#6f8ce9"/>
  <g fill="#e8eaec" stroke="#cf2f25" aria-label="F">
   <path d="m81.876 72.917h0.31115v-1.089h0.92604v-0.25929h-0.92604v-0.82232h1.0927v-0.25929h-1.4039z" fill="#e8eaec" stroke="none"/>
  </g>
  <path d="m88.885 67.337h-4.3987" fill="none" stroke="#7b8694"/>
 </g>
 <g transform="matrix(-.0044048 0 0 -.0044802 85.487 68.541)" fill="#7b8694" stroke-width="59.559">
  <g fill="#7b8694" stroke-width="59.559">
   <path d="m486.41 221.41-364.07-208.5c-52.938-30.318-95.852-5.44-95.852 55.563v415.65c0 61.004 42.914 85.882 95.852 55.563l364.07-208.49c52.938-30.317 52.938-79.473 0-109.79z" fill="#7b8694" stroke-width="59.559"/>
  </g>
 </g>
 <g stroke-linecap="round" stroke-width=".26458">
  <path d="m96.299 69.337-3.6947 2.1331-3.6947-2.1331v-4.2663l3.6947-2.1331 3.6947 2.1331z" fill="none" stroke="#6f8ce9"/>
  <g fill="#e8eaec" stroke="#cf2f25" aria-label="G">
   <path d="m94.964 71.702c0 0.79269 0.45561 1.2594 1.0927 1.2594 0.32597 0 0.59637-0.12594 0.75565-0.28152v-1.0224h-0.7964v0.25559h0.51488v0.63341c-0.09631 0.0889-0.2667 0.14446-0.4408 0.14446-0.51858 0-0.80751-0.38523-0.80751-0.99642 0-0.60378 0.31485-0.9816 0.80751-0.9816 0.24077 0 0.39264 0.09631 0.51488 0.22596l0.1778-0.19632c-0.14446-0.14817-0.36671-0.30004-0.69638-0.30004-0.65193 0-1.1224 0.47784-1.1224 1.2594z" fill="#e8eaec" stroke="none"/>
  </g>
  <path d="m102.11 67.337h-4.3987" fill="none" stroke="#7b8694"/>
 </g>
 <g transform="matrix(-.0044048 0 0 -.0044802 98.717 68.541)" fill="#7b8694" stroke-width="59.559">
  <g fill="#7b8694" stroke-width="59.559">
   <path d="m486.41 221.41-364.07-208.5c-52.938-30.318-95.852-5.44-95.852 55.563v415.65c0 61.004 42.914 85.882 95.852 55.563l364.07-208.49c52.938-30.317 52.938-79.473 0-109.79z" fill="#7b8694" stroke-width="59.559"/>
  </g>
 </g>
 <g stroke-linecap="round" stroke-width=".26458">
  <path d="m109.53 69.337-3.6947 2.1331-3.6947-2.1331v-4.2663l3.6947-2.1331 3.6947 2.1331z" fill="none" stroke="#6f8ce9"/>
  <g fill="#e8eaec" stroke="#cf2f25" aria-label="H">
   <path d="m108.33 72.917h0.31115v-1.1446h1.1298v1.1446h0.30744v-2.4299h-0.30744v1.0186h-1.1298v-1.0186h-0.31115z" fill="#e8eaec" stroke="none"/>
  </g>
  <path d="m115.34 67.337h-4.3987" fill="none" stroke="#7b8694"/>
 </g>
 <g transform="matrix(-.0044048 0 0 -.0044802 111.95 68.541)" fill="#7b8694" stroke-width="59.559">
  <g fill="#7b8694" stroke-width="59.559">
   <path d="m486.41 221.41-364.07-208.5c-52.938-30.318-95.852-5.44-95.852 55.563v415.65c0 61.004 42.914 85.882 95.852 55.563l364.07-208.49c52.938-30.317 52.938-79.473 0-109.79z" fill="#7b8694" stroke-width="59.559"/>
  </g>
 </g>
 <g stroke-linecap="round" stroke-width=".26458">
  <path d="m122.76 69.337-3.6947 2.1331-3.6947-2.1331v-4.2663l3.6947-2.1331 3.6947 2.1331z" fill="none" stroke="#6f8ce9"/>
  <g fill="#e8eaec" stroke="#cf2f25" aria-label="I">
   <path d="m121.56 72.917h0.31115v-2.4299h-0.31115z" fill="#e8eaec" stroke="none"/>
  </g>
  <path d="m52.919 35.408v12.336" fill="none" stroke="#6f8ce9"/>
 </g>
 <g transform="matrix(0 .0044048 -.0044802 0 54.124 46.743)" fill="#6f8ce9" stroke-width="59.559">
  <g fill="#6f8ce9" stroke-width="59.559">
   <path d="m486.41 221.41-364.07-208.5c-52.938-30.318-95.852-5.44-95.852 55.563v415.65c0 61.004 42.914 85.882 95.852 55.563l364.07-208.49c52.938-30.317 52.938-79.473 0-109.79z" fill="#6f8ce9" stroke-width="59.559"/>
  </g>
 </g>
 <path d="m39.69 49.166v12.336" fill="none" stroke="#6f8ce9" stroke-linecap="round" stroke-width=".26458"/>
 <g transform="matrix(0 .0044048 -.0044802 0 40.895 60.501)" fill="#6f8ce9" stroke-width="59.559">
  <g fill="#6f8ce9" stroke-width="59.559">
   <path d="m486.41 221.41-364.07-208.5c-52.938-30.318-95.852-5.44-95.852 55.563v415.65c0 61.004 42.914 85.882 95.852 55.563l364.07-208.49c52.938-30.317 52.938-79.473 0-109.79z" fill="#6f8ce9" stroke-width="59.559"/>
  </g>
 </g>
 <path d="m26.461 21.65v12.336" fill="none" stroke="#6f8ce9" stroke-linecap="round" stroke-width=".26458"/>
 <g transform="matrix(0 .0044048 -.0044802 0 27.666 32.985)" fill="#6f8ce9" stroke-width="59.559">
  <g fill="#6f8ce9" stroke-width="59.559">
   <path d="m486.41 221.41-364.07-208.5c-52.938-30.318-95.852-5.44-95.852 55.563v415.65c0 61.004 42.914 85.882 95.852 55.563l364.07-208.49c52.938-30.317 52.938-79.473 0-109.79z" fill="#6f8ce9" stroke-width="59.559"/>
  </g>
 </g>
 <path d="m66.149 7.8914v12.336" fill="none" stroke="#6f8ce9" stroke-linecap="round" stroke-width=".26458"/>
 <g transform="matrix(0 .0044048 -.0044802 0 67.353 19.226)" fill="#6f8ce9" stroke-width="59.559">
  <g fill="#6f8ce9" stroke-width="59.559">
   <path d="m486.41 221.41-364.07-208.5c-52.938-30.318-95.852-5.44-95.852 55.563v415.65c0 61.004 42.914 85.882 95.852 55.563l364.07-208.49c52.938-30.317 52.938-79.473 0-109.79z" fill="#6f8ce9" stroke-width="59.559"/>
  </g>
 </g>
 <g fill="none" stroke-linecap="square" stroke-width=".26458">
  <g stroke="#6f8ce9">
   <path d="m66.146 21.696h-39.687"/>
   <path d="m26.458 35.19h26.458"/>
   <path d="m52.917 48.948h-13.229"/>
  </g>
  <g stroke="#7b8694" stroke-dasharray="0.264583, 0.79375">
   <path d="m66.149 21.65v41.176"/>
   <path d="m26.461 35.143v27.682"/>
   <path d="m52.919 49.166v13.659"/>
  </g>
 </g>
 <g fill="#fff" stroke-linecap="round" stroke-width=".26458" aria-label="BINARY SEARCH">
  <path d="m3.638 6.1965h0.89641c0.52599 0 0.94086-0.21855 0.94086-0.7112 0-0.32226-0.1815-0.50377-0.52599-0.56674v-0.014817c0.28152-0.074083 0.40746-0.30745 0.40746-0.52229 0-0.46302-0.38894-0.60008-0.8927-0.60008h-0.82603zm0.54822-1.4409v-0.55192h0.25929c0.25188 0 0.37783 0.074083 0.37783 0.25559 0 0.1815-0.11853 0.29633-0.38523 0.29633zm0 1.0186v-0.63341h0.30374c0.30004 0 0.45191 0.092604 0.45191 0.30374 0 0.21855-0.15558 0.32967-0.45191 0.32967z"/>
  <path d="m5.8735 6.1965h0.54822v-2.4151h-0.54822z"/>
  <path d="m6.9877 6.1965h0.52229v-0.85566c0-0.28522-0.04445-0.60748-0.070379-0.87418h0.014817l0.23707 0.52599 0.62971 1.2039h0.55933v-2.4151h-0.51858v0.85196c0 0.28522 0.04445 0.626 0.070379 0.88159h-0.014816l-0.24077-0.5334-0.62971-1.2002h-0.55933z"/>
  <path d="m9.955 5.1964 0.059267-0.22225c0.06668-0.24077 0.13335-0.52229 0.18891-0.77788h0.01482c0.06668 0.25188 0.12965 0.5371 0.19632 0.77788l0.05927 0.22225zm0.77788 1.0001h0.57785l-0.75935-2.4151h-0.65193l-0.75935 2.4151h0.55563l0.14817-0.57415h0.74083z"/>
  <path d="m12.108 4.2148h0.27781c0.28522 0 0.4408 0.081492 0.4408 0.31856 0 0.23707-0.15558 0.3593-0.4408 0.3593h-0.27781zm1.3705 1.9817-0.54451-0.96679c0.25559-0.11483 0.42968-0.34078 0.42968-0.69638 0-0.57415-0.42228-0.75195-0.93345-0.75195h-0.87048v2.4151h0.54822v-0.87048h0.29633l0.46302 0.87048z"/>
  <path d="m14.189 6.1965h0.54451v-0.85937l0.72972-1.5558h-0.57044l-0.21484 0.55563c-0.06668 0.1815-0.13705 0.34819-0.20373 0.5334h-0.014817c-0.070379-0.18521-0.13335-0.3519-0.19632-0.5334l-0.21855-0.55563h-0.58156l0.72602 1.5558z"/>
  <path d="m16.331 5.8927c0.24818 0.22966 0.58156 0.34819 0.89641 0.34819 0.57415 0 0.90752-0.34819 0.90752-0.74824 0-0.34078-0.18521-0.5371-0.47784-0.65564l-0.30745-0.12594c-0.21114-0.085196-0.37042-0.13705-0.37042-0.28522 0-0.13705 0.12224-0.21855 0.30745-0.21855 0.19262 0 0.34449 0.070379 0.50377 0.19262l0.27411-0.34449c-0.20743-0.20743-0.50006-0.31856-0.77788-0.31856-0.50006 0-0.85937 0.31856-0.85937 0.71861 0 0.3519 0.23707 0.55933 0.48895 0.65934l0.31115 0.13335c0.21114 0.0889 0.34819 0.13705 0.34819 0.28893 0 0.14446-0.11112 0.23336-0.33708 0.23336-0.20003 0-0.42228-0.10372-0.59267-0.25188z"/>
  <path d="m18.542 6.1965h1.552v-0.45932h-1.0038v-0.55563h0.82233v-0.45561h-0.82233v-0.48525h0.96679v-0.45932h-1.515z"/>
  <path d="m21.075 5.1964 0.05927-0.22225c0.06668-0.24077 0.13335-0.52229 0.18891-0.77788h0.01482c0.06668 0.25188 0.12965 0.5371 0.19632 0.77788l0.05927 0.22225zm0.77788 1.0001h0.57785l-0.75936-2.4151h-0.65193l-0.75935 2.4151h0.55562l0.14817-0.57415h0.74083z"/>
  <path d="m23.228 4.2148h0.27781c0.28522 0 0.4408 0.081492 0.4408 0.31856 0 0.23707-0.15558 0.3593-0.4408 0.3593h-0.27781zm1.3705 1.9817-0.54451-0.96679c0.25559-0.11483 0.42968-0.34078 0.42968-0.69638 0-0.57415-0.42228-0.75195-0.93345-0.75195h-0.87048v2.4151h0.54822v-0.87048h0.29633l0.46302 0.87048z"/>
  <path d="m24.844 5.0037c0 0.81121 0.51118 1.2372 1.1372 1.2372 0.30004 0 0.56674-0.12224 0.76676-0.3556l-0.30004-0.32967c-0.11853 0.12965-0.25929 0.21484-0.45932 0.21484-0.3519 0-0.58526-0.28893-0.58526-0.78528 0-0.48525 0.263-0.77788 0.60008-0.77788 0.17039 0 0.28522 0.070379 0.40746 0.1815l0.30004-0.33708c-0.16298-0.16669-0.41487-0.31485-0.7149-0.31485-0.6223 0-1.152 0.46673-1.152 1.2668z"/>
  <path d="m27.107 6.1965h0.54822v-1.0075h0.83344v1.0075h0.54451v-2.4151h-0.54451v0.92975h-0.83344v-0.92975h-0.54822z"/>
 </g>
</svg>
