<?xml version="1.0" encoding="UTF-8"?>
<svg width="171.88mm" height="127mm" version="1.1" viewBox="0 0 171.88 127" xmlns="http://www.w3.org/2000/svg" xmlns:cc="http://creativecommons.org/ns#" xmlns:dc="http://purl.org/dc/elements/1.1/" xmlns:rdf="http://www.w3.org/1999/02/22-rdf-syntax-ns#">
 <metadata>
  <rdf:RDF>
   <cc:Work rdf:about="">
    <dc:format>image/svg+xml</dc:format>
    <dc:type rdf:resource="http://purl.org/dc/dcmitype/StillImage"/>
    <dc:title/>
   </cc:Work>
  </rdf:RDF>
 </metadata>
 <rect width="171.88" height="26.458" fill="#2f3744" fill-opacity=".50196"/>
 <path d="m14.278 19.066-3.6947 2.1331-3.6947-2.1331v-4.2663l3.6947-2.1331 3.6947 2.1331z" fill="#47d58a" stroke="#47d58a" stroke-linecap="round" stroke-width=".26458"/>
 <path d="m25.385 17.066h-9.6904" fill="none" stroke="#7b8694" stroke-linecap="round" stroke-width=".26458"/>
 <g transform="matrix(-.0044048 0 0 -.0044802 16.696 18.271)" fill="#7b8694" stroke-width="59.559">
  <g fill="#7b8694" stroke-width="59.559">
   <path d="m486.41 221.41-364.07-208.5c-52.938-30.318-95.852-5.44-95.852 55.563v415.65c0 61.004 42.914 85.882 95.852 55.563l364.07-208.49c52.938-30.317 52.938-79.473 0-109.79z" fill="#7b8694" stroke-width="59.559"/>
  </g>
 </g>
 <path d="m32.799 19.066-3.6947 2.1331-3.6947-2.1331v-4.2663l3.6947-2.1331 3.6947 2.1331z" fill="#1d232d" stroke="#6f8ce9" stroke-linecap="round" stroke-width=".26458"/>
 <path d="m43.906 17.066h-9.6904" fill="none" stroke="#7b8694" stroke-linecap="round" stroke-width=".26458"/>
 <g transform="matrix(-.0044048 0 0 -.0044802 35.217 18.271)" fill="#7b8694" stroke-width="59.559">
  <g fill="#7b8694" stroke-width="59.559">
   <path d="m486.41 221.41-364.07-208.5c-52.938-30.318-95.852-5.44-95.852 55.563v415.65c0 61.004 42.914 85.882 95.852 55.563l364.07-208.49c52.938-30.317 52.938-79.473 0-109.79z" fill="#7b8694" stroke-width="59.559"/>
  </g>
 </g>
 <path d="m51.32 19.066-3.6947 2.1331-3.6947-2.1331v-4.2663l3.6947-2.1331 3.6947 2.1331z" fill="#1d232d" stroke="#6f8ce9" stroke-linecap="round" stroke-width=".26458"/>
 <path d="m62.427 17.066h-9.6904" fill="none" stroke="#7b8694" stroke-linecap="round" stroke-width=".26458"/>
 <g transform="matrix(-.0044048 0 0 -.0044802 53.737 18.271)" fill="#7b8694" stroke-width="59.559">
  <g fill="#7b8694" stroke-width="59.559">
   <path d="m486.41 221.41-364.07-208.5c-52.938-30.318-95.852-5.44-95.852 55.563v415.65c0 61.004 42.914 85.882 95.852 55.563l364.07-208.49c52.938-30.317 52.938-79.473 0-109.79z" fill="#7b8694" stroke-width="59.559"/>
  </g>
 </g>
 <path d="m69.841 19.066-3.6947 2.1331-3.6947-2.1331v-4.2663l3.6947-2.1331 3.6947 2.1331z" fill="#1d232d" stroke="#6f8ce9" stroke-linecap="round" stroke-width=".26458"/>
 <g fill="#e8eaec" stroke="#cf2f25" stroke-linecap="round" stroke-width=".26458">
  <g aria-label="A">
   <path d="m13.388 21.657 0.11853-0.37042c0.0852-0.2704 0.16298-0.5371 0.24077-0.81862h0.01482c0.07779 0.28152 0.15558 0.54822 0.24077 0.81862l0.11483 0.37042zm1.0409 0.98901h0.32597l-0.82233-2.4299h-0.34819l-0.82232 2.4299h0.31485l0.23336-0.74083h0.8853z" fill="#e8eaec" stroke="none"/>
  </g>
  <g aria-label="B">
   <path d="m31.605 22.646h0.77788c0.54081 0 0.91863-0.23336 0.91863-0.7112 0-0.33338-0.20743-0.52599-0.56303-0.58156v-0.01482c0.28892-0.07408 0.42598-0.28892 0.42598-0.5297 0-0.42598-0.34449-0.59267-0.83714-0.59267h-0.72231zm0.31115-1.3928v-0.79269h0.37412c0.37412 0 0.57044 0.11112 0.57044 0.37412 0 0.2704-0.1741 0.41857-0.58526 0.41857zm0 1.1483v-0.91863h0.42228c0.42598 0 0.65934 0.13705 0.65934 0.43709 0 0.32967-0.24448 0.48154-0.65934 0.48154z" fill="#e8eaec" stroke="none"/>
  </g>
  <g aria-label="C">
   <path d="m49.985 21.431c0 0.79269 0.45561 1.2594 1.0668 1.2594 0.30745 0 0.54822-0.12965 0.73713-0.3519l-0.1741-0.18891c-0.15558 0.1741-0.32597 0.2704-0.55563 0.2704-0.46302 0-0.75565-0.38523-0.75565-0.99642 0-0.60378 0.30745-0.9816 0.77047-0.9816 0.20002 0 0.3556 0.0889 0.48525 0.22596l0.1741-0.19632c-0.14446-0.15928-0.37412-0.30004-0.66305-0.30004-0.6223 0-1.0853 0.47784-1.0853 1.2594z" fill="#e8eaec" stroke="none"/>
  </g>
  <g aria-label="D">
   <path d="m68.647 22.646h0.6223c0.73343 0 1.1335-0.45191 1.1335-1.2261 0-0.77047-0.40005-1.2039-1.1483-1.2039h-0.60748zm0.31115-0.25188v-1.9262h0.27411c0.57044 0 0.85196 0.34078 0.85196 0.95197 0 0.61489-0.28152 0.9742-0.85196 0.9742z" fill="#e8eaec" stroke="none"/>
  </g>
 </g>
 <path d="m80.948 17.066h-9.6904" fill="none" stroke="#7b8694" stroke-linecap="round" stroke-width=".26458"/>
 <g>
  <g transform="matrix(-.0044048 0 0 -.0044802 72.258 18.271)" fill="#7b8694" stroke-width="59.559">
   <g fill="#7b8694" stroke-width="59.559">
    <path d="m486.41 221.41-364.07-208.5c-52.938-30.318-95.852-5.44-95.852 55.563v415.65c0 61.004 42.914 85.882 95.852 55.563l364.07-208.49c52.938-30.317 52.938-79.473 0-109.79z" fill="#7b8694" stroke-width="59.559"/>
   </g>
  </g>
  <path d="m88.361 19.066-3.6947 2.1331-3.6947-2.1331v-4.2663l3.6947-2.1331 3.6947 2.1331z" fill="#1d232d" stroke="#6f8ce9" stroke-linecap="round" stroke-width=".26458"/>
  <g fill="#e8eaec" stroke="#cf2f25" stroke-linecap="round" stroke-width=".26458" aria-label="E">
   <path d="m87.167 22.646h1.4372v-0.263h-1.1261v-0.88159h0.91863v-0.263h-0.91863v-0.76306h1.089v-0.25929h-1.4002z" fill="#e8eaec" stroke="none"/>
  </g>
 </g>
 <path d="m99.468 17.066h-9.6904" fill="none" stroke="#7b8694" stroke-linecap="round" stroke-width=".26458"/>
 <g>
  <g transform="matrix(-.0044048 0 0 -.0044802 90.779 18.271)" fill="#7b8694" stroke-width="59.559">
   <g fill="#7b8694" stroke-width="59.559">
    <path d="m486.41 221.41-364.07-208.5c-52.938-30.318-95.852-5.44-95.852 55.563v415.65c0 61.004 42.914 85.882 95.852 55.563l364.07-208.49c52.938-30.317 52.938-79.473 0-109.79z" fill="#7b8694" stroke-width="59.559"/>
   </g>
  </g>
  <path d="m106.88 19.066-3.6947 2.1331-3.6947-2.1331v-4.2663l3.6947-2.1331 3.6947 2.1331z" fill="#1d232d" stroke="#6f8ce9" stroke-linecap="round" stroke-width=".26458"/>
  <g fill="#e8eaec" stroke="#cf2f25" stroke-linecap="round" stroke-width=".26458" aria-label="F">
   <path d="m105.69 22.646h0.31115v-1.089h0.92604v-0.25929h-0.92604v-0.82232h1.0927v-0.25929h-1.4039z" fill="#e8eaec" stroke="none"/>
  </g>
  <path d="m6.8886 8.1691v2.1496l3.6947 2.1331 3.6947-2.1331v-2.1496z" fill="#e9e56f"/>
 </g>
 <path d="m117.99 17.066h-9.6904" fill="none" stroke="#7b8694" stroke-linecap="round" stroke-width=".26458"/>
 <g>
  <g transform="matrix(-.0044048 0 0 -.0044802 109.3 18.271)" fill="#7b8694" stroke-width="59.559">
   <g fill="#7b8694" stroke-width="59.559">
    <path d="m486.41 221.41-364.07-208.5c-52.938-30.318-95.852-5.44-95.852 55.563v415.65c0 61.004 42.914 85.882 95.852 55.563l364.07-208.49c52.938-30.317 52.938-79.473 0-109.79z" fill="#7b8694" stroke-width="59.559"/>
   </g>
  </g>
  <path d="m125.4 19.066-3.6947 2.1331-3.6947-2.1331v-4.2663l3.6947-2.1331 3.6947 2.1331z" fill="#fbb227" stroke="#fbb227" stroke-linecap="round" stroke-width=".26458"/>
  <g fill="#e8eaec" stroke="#cf2f25" stroke-linecap="round" stroke-width=".26458" aria-label="G">
   <path d="m124.07 21.431c0 0.79269 0.45561 1.2594 1.0927 1.2594 0.32597 0 0.59637-0.12594 0.75565-0.28152v-1.0224h-0.79639v0.25559h0.51487v0.63341c-0.0963 0.0889-0.2667 0.14446-0.44079 0.14446-0.51859 0-0.80751-0.38523-0.80751-0.99642 0-0.60378 0.31485-0.9816 0.80751-0.9816 0.24077 0 0.39264 0.09631 0.51488 0.22596l0.1778-0.19632c-0.14446-0.14817-0.36671-0.30004-0.69639-0.30004-0.65193 0-1.1224 0.47784-1.1224 1.2594z" fill="#e8eaec" stroke="none"/>
  </g>
 </g>
 <path d="m136.51 17.066h-9.6904" fill="none" stroke="#7b8694" stroke-linecap="round" stroke-width=".26458"/>
 <g>
  <g transform="matrix(-.0044048 0 0 -.0044802 127.82 18.271)" fill="#7b8694" stroke-width="59.559">
   <g fill="#7b8694" stroke-width="59.559">
    <path d="m486.41 221.41-364.07-208.5c-52.938-30.318-95.852-5.44-95.852 55.563v415.65c0 61.004 42.914 85.882 95.852 55.563l364.07-208.49c52.938-30.317 52.938-79.473 0-109.79z" fill="#7b8694" stroke-width="59.559"/>
   </g>
  </g>
  <path d="m143.92 19.066-3.6947 2.1331-3.6947-2.1331v-4.2663l3.6947-2.1331 3.6947 2.1331z" fill="#1d232d" stroke="#6f8ce9" stroke-linecap="round" stroke-width=".26458"/>
  <g fill="#e8eaec" stroke="#cf2f25" stroke-linecap="round" stroke-width=".26458" aria-label="H">
   <path d="m142.73 22.646h0.31115v-1.1446h1.1298v1.1446h0.30745v-2.4299h-0.30745v1.0186h-1.1298v-1.0186h-0.31115z" fill="#e8eaec" stroke="none"/>
  </g>
 </g>
 <path d="m155.03 17.066h-9.6904" fill="none" stroke="#7b8694" stroke-linecap="round" stroke-width=".26458"/>
 <g>
  <g transform="matrix(-.0044048 0 0 -.0044802 146.34 18.271)" fill="#7b8694" stroke-width="59.559">
   <g fill="#7b8694" stroke-width="59.559">
    <path d="m486.41 221.41-364.07-208.5c-52.938-30.318-95.852-5.44-95.852 55.563v415.65c0 61.004 42.914 85.882 95.852 55.563l364.07-208.49c52.938-30.317 52.938-79.473 0-109.79z" fill="#7b8694" stroke-width="59.559"/>
   </g>
  </g>
  <path d="m162.44 19.066-3.6947 2.1331-3.6947-2.1331v-4.2663l3.6947-2.1331 3.6947 2.1331z" fill="#cf2f25" stroke="#cf2f25" stroke-linecap="round" stroke-width=".26458"/>
  <g fill="#e8eaec" stroke="#cf2f25" stroke-linecap="round" stroke-width=".26458" aria-label="I">
   <path d="m161.25 22.646h0.31115v-2.4299h-0.31115z" fill="#e8eaec" stroke="none"/>
  </g>
  <path d="m155.06 8.1691v2.1496l3.6947 2.1331 3.6947-2.1331v-2.1496z" fill="#e9e56f"/>
 </g>
 <g stroke-width=".26458">
  <path d="m122.69 15.97c0.31572 0 0.44391 0.38367 0.44391 0.6994v0.96128c0 0.71258-0.57763 1.2902-1.2902 1.2902s-1.2902-0.57764-1.2902-1.2902v-0.96128c0-0.31573 0.12819-0.6994 0.44392-0.6994z" fill="#f4a026"/>
  <path d="m122.34 16.289h-1.0028c-0.18167 0-0.32893-0.14729-0.32893-0.32896 0-0.38272 0.31027-0.693 0.69299-0.693h0.27467c0.38274 0 0.69302 0.31028 0.69302 0.693 0 0.18166-0.14729 0.32896-0.32896 0.32896z" fill="#ca463d"/>
  <path d="m124.16 17.155h-0.90699v-0.48543c0-0.0098 3e-3 -0.01958 3e-3 -0.02929 0.4609-0.04808 0.72535-0.35134 0.72535-0.84897v-0.11499c0-0.07054-0.0572-0.12771-0.12774-0.12771-0.0705 0-0.12774 0.05718-0.12774 0.12771v0.11499c0 0.3679-0.16293 0.56356-0.49712 0.5956-0.0581-0.25892-0.2-0.48268-0.43628-0.53364-0.0359-0.27345-0.20515-0.50482-0.44182-0.62494 0.0989-0.1006 0.16163-0.23844 0.16163-0.39031v-0.11337c0-0.07056-0.0572-0.12774-0.12774-0.12774-0.0705 0-0.12777 0.05718-0.12777 0.12774v0.11337c0 0.1664-0.13856 0.29861-0.30498 0.29861h-0.22035c-0.16642 0-0.30498-0.13221-0.30498-0.29861v-0.11337c0-0.07056-0.0572-0.12774-0.12777-0.12774-0.0705 0-0.12774 0.05718-0.12774 0.12774v0.11337c0 0.15187 0.0628 0.28972 0.16163 0.39034-0.23664 0.12009-0.40671 0.35147-0.44262 0.62492-0.23659 0.05101-0.37811 0.27533-0.43611 0.5347-0.34261-0.02836-0.50924-0.22423-0.50924-0.59666v-0.11499c0-0.07054-0.0572-0.12771-0.12777-0.12771-0.0705 0-0.12774 0.05718-0.12774 0.12771v0.11499c0 0.50218 0.26289 0.8064 0.73176 0.85019 0 0.0093-4e-3 0.01879-4e-3 0.02807v0.48543h-0.90699c-0.0705 0-0.12774 0.05718-0.12774 0.12774 0 0.07056 0.0572 0.12774 0.12774 0.12774h0.90699v0.22037c0 0.10181 0.014 0.20111 0.0346 0.29692-0.48815 0.03307-0.76271 0.33962-0.76271 0.85278v0.11499c0 0.07054 0.0572 0.12774 0.12774 0.12774 0.0705 0 0.12774-0.0572 0.12774-0.12774v-0.11499c0-0.40042 0.19307-0.59679 0.58984-0.60023 0.2151 0.5098 0.72001 0.8685 1.3072 0.8685 0.58708 0 1.092-0.35862 1.3071-0.86831 0.38822 0.0074 0.57719 0.20391 0.57719 0.60005v0.11499c0 0.07054 0.0572 0.12774 0.12774 0.12774 0.0705 0 0.12774-0.0572 0.12774-0.12774v-0.11499c0-0.50874-0.27615-0.81449-0.7565-0.85193 0.0206-0.09604 0.0284-0.19566 0.0284-0.29776v-0.22037h0.907c0.0705 0 0.12774-0.05718 0.12774-0.12774 0-0.07057-0.0572-0.12774-0.12774-0.12774zm-2.4559-1.7629h0.27467c0.31168 0 0.56528 0.25358 0.56528 0.56528 0 0.11094-0.0902 0.20119-0.20122 0.20119h-1.0028c-0.11094 0-0.20119-0.09025-0.20119-0.20119 0-0.31171 0.25358-0.56528 0.56525-0.56528zm-1.0315 2.2387v-0.96128c0-0.19923 0.0666-0.48414 0.23458-0.55605 0.0635 0.176 0.2353 0.30054 0.43291 0.30054h0.36725v2.3715c-0.57807-0.0667-1.0347-0.55909-1.0347-1.1547zm1.2902 1.1562v-2.3729h0.38004c0.19762 0 0.36304-0.12454 0.42651-0.30054 0.16801 0.07191 0.22821 0.35682 0.22821 0.55605v0.96128c0 0.60002-0.45056 1.0953-1.0348 1.1562z"/>
  <g fill="#e8eaec" stroke-linecap="round" aria-label="git bisect good">
   <path d="m3.4858 4.0497c0-0.20373 0.17039-0.37042 0.37412-0.37042 0.20743 0 0.37412 0.16669 0.37412 0.37042 0 0.20373-0.16669 0.37042-0.37412 0.37042s-0.37412-0.16669-0.37412-0.37042zm0.38894-0.58155c-0.33708 0-0.62971 0.2667-0.62971 0.59637 0 0.18521 0.092604 0.3593 0.24818 0.45932-0.12224 0.10372-0.19262 0.21855-0.19262 0.32597 0 0.070379 0.029633 0.17039 0.13705 0.22595-0.1815 0.11483-0.27411 0.24077-0.27411 0.37412 0 0.18521 0.17039 0.40375 0.76306 0.40375 0.57415 0 0.78158-0.29263 0.78158-0.51858 0-0.14817-0.085196-0.29633-0.263-0.36671-0.1778-0.074083-0.38153-0.048154-0.57415-0.048154-0.12594 0-0.20743-0.011113-0.24077-0.022225-0.066675-0.018521-0.10372-0.059267-0.10372-0.11113 0-0.0889 0.10372-0.1741 0.12224-0.18891 0.066675 0.025929 0.14076 0.037042 0.21484 0.037042 0.33338 0 0.60748-0.2667 0.60748-0.57785 0-0.10372-0.029633-0.20373-0.085196-0.28893 0.0889-0.051858 0.19262-0.081492 0.29633-0.081492 0.033338 0 0.062971 0.0037 0.096308 0.011112l-0.029633-0.21855c-0.17039-0.014817-0.34078 0.040746-0.47043 0.14817-0.10742-0.10372-0.24818-0.15928-0.40375-0.15928zm-0.25559 1.6558c0.062971 0.00741 0.15187 0.014817 0.28152 0.022225 0.12594 0.0037 0.263-0.00741 0.3593 0.00741 0.15558 0.025929 0.20373 0.12224 0.20373 0.19632 0 0.074083-0.04445 0.16298-0.15928 0.22595-0.12594 0.066675-0.2667 0.074083-0.38153 0.074083-0.077788 0-0.22225-0.0037-0.34819-0.055562-0.13705-0.055564-0.16669-0.14817-0.16669-0.20744 0-0.12224 0.11483-0.21114 0.21114-0.263z"/>
   <path d="m5.2675 3.52v0.21855h0.40746v1.2631h-0.42968v0.21114h1.0964v-0.21114h-0.39635v-1.4817zm0.54822-0.73343c-0.10742 0-0.19262 0.085196-0.19262 0.18891s0.085196 0.18891 0.19262 0.18891 0.19262-0.085196 0.19262-0.18891c0-0.10372-0.085196-0.18891-0.19262-0.18891z"/>
   <path d="m7.4234 3.0681-0.033338 0.45561h-0.40375l-0.0037 0.21855h0.39635c-0.022225 0.28893-0.033338 0.57785-0.033338 0.86307 0 0.15187 0 0.32226 0.10001 0.46302 0.081492 0.11113 0.21114 0.1778 0.38523 0.1778 0.20003 0 0.39635-0.085196 0.54081-0.18891l-0.081496-0.21114c-0.14446 0.10742-0.27781 0.15558-0.38153 0.15558-0.12594 0-0.25559-0.070379-0.28522-0.27411 0-0.014817-0.011112-0.077788-0.011112-0.32597 0-0.21855 0.011112-0.4408 0.033338-0.65934h0.55562v-0.22225h-0.55192s0.025929-0.30374 0.04445-0.40005c0.0037-0.037042 0.033338-0.059267 0.018521-0.10001z"/>
   <path d="m10.65 2.7495v2.4633h0.1741l0.0926-0.22225c0.11112 0.16669 0.29633 0.2667 0.50006 0.2667 0.34819 0 0.7075-0.29633 0.7075-0.91123 0-0.58896-0.34819-0.86307-0.68157-0.86307-0.21484 0-0.41487 0.11483-0.52229 0.30004v-0.94827c0-0.022225 0.0037-0.029633 0.02223-0.04445 0.0074-0.0037 0.02593-0.018521 0.02222-0.040746zm0.70009 0.96308c0.15928 0 0.49636 0.092604 0.49636 0.69268 0 0.51488-0.33338 0.61119-0.50006 0.61119-0.11483 0-0.37042-0.04445-0.41487-0.37042-0.01111-0.085196-0.01111-0.18521-0.01111-0.33338 0-0.15187 0.0074-0.263 0.04445-0.3556 0.06297-0.15187 0.21855-0.24448 0.38523-0.24448z"/>
   <path d="m12.676 3.52v0.21855h0.40746v1.2631h-0.42968v0.21114h1.0964v-0.21114h-0.39635v-1.4817zm0.54822-0.73343c-0.10742 0-0.19262 0.085196-0.19262 0.18891s0.0852 0.18891 0.19262 0.18891c0.10742 0 0.19262-0.085196 0.19262-0.18891 0-0.10372-0.0852-0.18891-0.19262-0.18891z"/>
   <path d="m15.736 3.7459c-0.15558-0.17039-0.38153-0.263-0.63341-0.263-0.39264 0-0.64823 0.21855-0.64823 0.47043 0 0.29633 0.31856 0.40375 0.41116 0.43709 0.14446 0.051858 0.32967 0.096308 0.45561 0.15558 0.14076 0.066675 0.16669 0.15558 0.16669 0.21484 0 0.15928-0.19262 0.2667-0.43339 0.2667-0.28892 0-0.47413-0.1741-0.5297-0.23336-0.01111-0.014817-0.01111-0.025929-0.01111-0.040746 0-0.0037 0.0037-0.025929-0.01482-0.033338l-0.15558 0.263c0.20002 0.18521 0.45932 0.2704 0.7149 0.2704 0.46302 0 0.70379-0.27411 0.70379-0.5297 0-0.11483-0.04815-0.2704-0.24818-0.38153-0.18891-0.10742-0.46302-0.14446-0.6223-0.22225-0.13705-0.066675-0.16669-0.14817-0.16669-0.20743 0-0.13335 0.16669-0.22966 0.3556-0.22966 0.24448 0 0.40746 0.14817 0.47043 0.23336 0.01111 0.011112 0.0074 0.022225 0.0074 0.033338 0 0.022225 0.01482 0.029633 0.02223 0.029633z"/>
   <path d="m16.943 3.4829c-0.40376 0-0.77788 0.28893-0.77788 0.90382 0 0.56674 0.3519 0.86678 0.81121 0.86678 0.24448 0 0.46302-0.0889 0.60748-0.263l-0.14817-0.14446c-0.10742 0.12594-0.2704 0.19262-0.43709 0.19262-0.22595 0-0.55562-0.12594-0.57415-0.63341h1.2002c0.01111-0.11483 0.0074-0.22595-0.01111-0.32226-0.07779-0.45561-0.39264-0.60008-0.67046-0.60008zm-0.51118 0.71861c0.05556-0.40005 0.31115-0.51488 0.49266-0.51488 0.27411 0 0.47043 0.24077 0.43709 0.51488z"/>
   <path d="m19.529 3.8015c-0.13335-0.19632-0.3593-0.31485-0.63341-0.31485-0.49636 0-0.84826 0.37412-0.84826 0.88159 0 0.51118 0.3519 0.889 0.83344 0.889 0.23336 0 0.46302-0.096308 0.6223-0.2704l-0.15187-0.1778c-0.11483 0.12965-0.28152 0.20373-0.4482 0.20373-0.32967 0-0.58156-0.27411-0.58156-0.67045 0-0.38523 0.24818-0.626 0.55933-0.626 0.28892 0 0.42598 0.20003 0.43709 0.22225 0.01482 0.025929-0.0074 0.062971 0.02222 0.085196z"/>
   <path d="m20.388 3.0681-0.03334 0.45561h-0.40375l-0.0037 0.21855h0.39635c-0.02222 0.28893-0.03334 0.57785-0.03334 0.86307 0 0.15187 0 0.32226 0.10001 0.46302 0.08149 0.11113 0.21114 0.1778 0.38523 0.1778 0.20002 0 0.39635-0.085196 0.54081-0.18891l-0.08149-0.21114c-0.14446 0.10742-0.27781 0.15558-0.38153 0.15558-0.12594 0-0.25559-0.070379-0.28522-0.27411 0-0.014817-0.01111-0.077788-0.01111-0.32597 0-0.21855 0.01111-0.4408 0.03334-0.65934h0.55563v-0.22225h-0.55192s0.02593-0.30374 0.04445-0.40005c0.0037-0.037042 0.03334-0.059267 0.01852-0.10001z"/>
   <path d="m23.859 4.0497c0-0.20373 0.17039-0.37042 0.37412-0.37042 0.20743 0 0.37412 0.16669 0.37412 0.37042 0 0.20373-0.16669 0.37042-0.37412 0.37042-0.20743 0-0.37412-0.16669-0.37412-0.37042zm0.38894-0.58155c-0.33708 0-0.62971 0.2667-0.62971 0.59637 0 0.18521 0.0926 0.3593 0.24818 0.45932-0.12224 0.10372-0.19262 0.21855-0.19262 0.32597 0 0.070379 0.02963 0.17039 0.13705 0.22595-0.1815 0.11483-0.27411 0.24077-0.27411 0.37412 0 0.18521 0.17039 0.40375 0.76306 0.40375 0.57415 0 0.78158-0.29263 0.78158-0.51858 0-0.14817-0.0852-0.29633-0.263-0.36671-0.1778-0.074083-0.38153-0.048154-0.57415-0.048154-0.12594 0-0.20743-0.011113-0.24077-0.022225-0.06668-0.018521-0.10372-0.059267-0.10372-0.11113 0-0.0889 0.10372-0.1741 0.12224-0.18891 0.06668 0.025929 0.14076 0.037042 0.21484 0.037042 0.33338 0 0.60748-0.2667 0.60748-0.57785 0-0.10372-0.02963-0.20373-0.0852-0.28893 0.0889-0.051858 0.19262-0.081492 0.29633-0.081492 0.03334 0 0.06297 0.0037 0.09631 0.011112l-0.02963-0.21855c-0.17039-0.014816-0.34078 0.040746-0.47043 0.14817-0.10742-0.10372-0.24818-0.15928-0.40376-0.15928zm-0.25559 1.6558c0.06297 0.00741 0.15187 0.014817 0.28152 0.022225 0.12594 0.0037 0.263-0.00741 0.3593 0.00741 0.15558 0.025929 0.20373 0.12224 0.20373 0.19632 0 0.074083-0.04445 0.16298-0.15928 0.22595-0.12594 0.066675-0.2667 0.074083-0.38153 0.074083-0.07779 0-0.22225-0.0037-0.34819-0.055562-0.13706-0.055564-0.16669-0.14817-0.16669-0.20744 0-0.12224 0.11483-0.21114 0.21114-0.263z"/>
   <path d="m26.952 4.3757c0-0.58526-0.37042-0.889-0.75565-0.889-0.42968 0-0.8001 0.37042-0.8001 0.89641 0 0.51488 0.36671 0.87789 0.79269 0.87789 0.40005 0 0.76306-0.32226 0.76306-0.8853zm-0.77417-0.66305c0.24448 0 0.50377 0.21114 0.50377 0.67416 0 0.42598-0.24448 0.64082-0.48895 0.64082-0.2704 0-0.51488-0.25188-0.51488-0.67045 0-0.41487 0.24077-0.64453 0.50006-0.64453z"/>
   <path d="m28.804 4.3757c0-0.58526-0.37042-0.889-0.75565-0.889-0.42968 0-0.8001 0.37042-0.8001 0.89641 0 0.51488 0.36671 0.87789 0.79269 0.87789 0.40005 0 0.76306-0.32226 0.76306-0.8853zm-0.77417-0.66305c0.24448 0 0.50377 0.21114 0.50377 0.67416 0 0.42598-0.24448 0.64082-0.48895 0.64082-0.2704 0-0.51488-0.25188-0.51488-0.67045 0-0.41487 0.24077-0.64453 0.50006-0.64453z"/>
   <path d="m30.326 3.7682c-0.081492-0.1741-0.263-0.28893-0.49636-0.28893-0.32226 0-0.7149 0.22966-0.7149 0.87418 0 0.626 0.34819 0.90011 0.67416 0.90011 0.21484 0 0.41487-0.12224 0.52229-0.31115v0.14817c0 0.040746 0.0037 0.081492 0.01482 0.12224h0.2667c-0.01482-0.048154-0.01482-0.10372-0.01482-0.15558l-0.0037-2.2003c0-0.022225 0-0.029633 0.01482-0.051858 0.0074-0.011112 0.02223-0.029633 0.01852-0.055563h-0.28152zm-0.48525-0.070379c0.14817 0 0.36671 0.077788 0.43339 0.32967 0.02222 0.077787 0.02963 0.17039 0.02963 0.3593 0 0.12965-0.0074 0.22225-0.03704 0.31115-0.06297 0.20003-0.24077 0.31856-0.41487 0.31856-0.19262 0-0.47784-0.14817-0.47784-0.70379 0-0.48525 0.2704-0.61489 0.46672-0.61489z"/>
  </g>
  <g fill="#e8eaec" stroke-linecap="round" aria-label="git bisect bad">
   <path d="m143.45 4.0497c0-0.20373 0.17039-0.37042 0.37412-0.37042 0.20743 0 0.37412 0.16669 0.37412 0.37042 0 0.20373-0.16669 0.37042-0.37412 0.37042s-0.37412-0.16669-0.37412-0.37042zm0.38894-0.58155c-0.33708 0-0.62971 0.2667-0.62971 0.59637 0 0.18521 0.0926 0.3593 0.24818 0.45932-0.12224 0.10372-0.19262 0.21855-0.19262 0.32597 0 0.070379 0.0296 0.17039 0.13705 0.22595-0.1815 0.11483-0.27411 0.24077-0.27411 0.37412 0 0.18521 0.1704 0.40375 0.76306 0.40375 0.57415 0 0.78158-0.29263 0.78158-0.51858 0-0.14817-0.0852-0.29633-0.26299-0.36671-0.1778-0.074083-0.38153-0.048154-0.57415-0.048154-0.12594 0-0.20743-0.011113-0.24077-0.022225-0.0667-0.018521-0.10372-0.059267-0.10372-0.11113 0-0.0889 0.10372-0.1741 0.12224-0.18891 0.0667 0.025929 0.14076 0.037042 0.21484 0.037042 0.33338 0 0.60749-0.2667 0.60749-0.57785 0-0.10372-0.0296-0.20373-0.0852-0.28893 0.0889-0.051858 0.19262-0.081492 0.29633-0.081492 0.0333 0 0.063 0.0037 0.0963 0.011112l-0.0296-0.21855c-0.17039-0.014817-0.34078 0.040746-0.47043 0.14817-0.10742-0.10372-0.24818-0.15928-0.40375-0.15928zm-0.25559 1.6558c0.063 0.00741 0.15187 0.014817 0.28151 0.022225 0.12595 0.0037 0.263-0.00741 0.35931 0.00741 0.15557 0.025929 0.20373 0.12224 0.20373 0.19632 0 0.074083-0.0445 0.16298-0.15928 0.22595-0.12594 0.066675-0.2667 0.074083-0.38153 0.074083-0.0778 0-0.22225-0.0037-0.34819-0.055562-0.13706-0.055563-0.16669-0.14817-0.16669-0.20743 0-0.12224 0.11483-0.21114 0.21114-0.263z"/>
   <path d="m145.23 3.52v0.21855h0.40746v1.2631h-0.42968v0.21114h1.0964v-0.21114h-0.39634v-1.4817zm0.54822-0.73343c-0.10742 0-0.19262 0.085196-0.19262 0.18891s0.0852 0.18891 0.19262 0.18891 0.19262-0.085196 0.19262-0.18891c0-0.10372-0.0852-0.18891-0.19262-0.18891z"/>
   <path d="m147.39 3.0681-0.0333 0.45561h-0.40375l-4e-3 0.21855h0.39635c-0.0222 0.28893-0.0333 0.57785-0.0333 0.86307 0 0.15187 0 0.32226 0.10002 0.46302 0.0815 0.11113 0.21113 0.1778 0.38523 0.1778 0.20002 0 0.39635-0.085196 0.54081-0.18891l-0.0815-0.21114c-0.14447 0.10742-0.27782 0.15558-0.38153 0.15558-0.12595 0-0.25559-0.070379-0.28522-0.27411 0-0.014817-0.0111-0.077788-0.0111-0.32597 0-0.21855 0.0111-0.4408 0.0333-0.65934h0.55563v-0.22225h-0.55193s0.0259-0.30374 0.0445-0.40005c4e-3 -0.037042 0.0333-0.059267 0.0185-0.10001z"/>
   <path d="m150.61 2.7495v2.4633h0.1741l0.0926-0.22225c0.11113 0.16669 0.29634 0.2667 0.50007 0.2667 0.34819 0 0.70749-0.29633 0.70749-0.91123 0-0.58896-0.34819-0.86307-0.68157-0.86307-0.21484 0-0.41486 0.11483-0.52228 0.30004v-0.94827c0-0.022225 4e-3 -0.029633 0.0222-0.04445 7e-3 -0.0037 0.0259-0.018521 0.0222-0.040746zm0.70009 0.96308c0.15928 0 0.49636 0.092604 0.49636 0.69268 0 0.51488-0.33338 0.61119-0.50006 0.61119-0.11483 0-0.37042-0.04445-0.41487-0.37042-0.0111-0.085196-0.0111-0.18521-0.0111-0.33338 0-0.15187 7e-3 -0.263 0.0444-0.3556 0.063-0.15187 0.21854-0.24448 0.38523-0.24448z"/>
   <path d="m152.64 3.52v0.21855h0.40746v1.2631h-0.42968v0.21114h1.0964v-0.21114h-0.39634v-1.4817zm0.54822-0.73343c-0.10742 0-0.19262 0.085196-0.19262 0.18891s0.0852 0.18891 0.19262 0.18891 0.19262-0.085196 0.19262-0.18891c0-0.10372-0.0852-0.18891-0.19262-0.18891z"/>
   <path d="m155.7 3.7459c-0.15558-0.17039-0.38153-0.263-0.63342-0.263-0.39264 0-0.64823 0.21855-0.64823 0.47043 0 0.29633 0.31856 0.40375 0.41117 0.43709 0.14446 0.051858 0.32967 0.096308 0.45561 0.15558 0.14076 0.066675 0.16669 0.15558 0.16669 0.21484 0 0.15928-0.19262 0.2667-0.43339 0.2667-0.28893 0-0.47413-0.1741-0.5297-0.23336-0.0111-0.014817-0.0111-0.025929-0.0111-0.040746 0-0.0037 4e-3 -0.025929-0.0148-0.033338l-0.15557 0.263c0.20002 0.18521 0.45932 0.2704 0.7149 0.2704 0.46303 0 0.7038-0.27411 0.7038-0.5297 0-0.11483-0.0482-0.2704-0.24818-0.38153-0.18892-0.10742-0.46302-0.14446-0.6223-0.22225-0.13706-0.066675-0.16669-0.14817-0.16669-0.20743 0-0.13335 0.16669-0.22966 0.3556-0.22966 0.24447 0 0.40746 0.14817 0.47043 0.23336 0.0111 0.011112 7e-3 0.022225 7e-3 0.033338 0 0.022225 0.0148 0.029633 0.0222 0.029633z"/>
   <path d="m156.91 3.4829c-0.40376 0-0.77788 0.28893-0.77788 0.90382 0 0.56674 0.3519 0.86678 0.81121 0.86678 0.24448 0 0.46303-0.0889 0.60749-0.263l-0.14817-0.14446c-0.10742 0.12594-0.2704 0.19262-0.43709 0.19262-0.22595 0-0.55563-0.12594-0.57415-0.63341h1.2002c0.0111-0.11483 7e-3 -0.22595-0.0111-0.32226-0.0778-0.45561-0.39264-0.60008-0.67045-0.60008zm-0.51118 0.71861c0.0556-0.40005 0.31115-0.51488 0.49266-0.51488 0.2741 0 0.47043 0.24077 0.43709 0.51488z"/>
   <path d="m159.49 3.8015c-0.13335-0.19632-0.35931-0.31485-0.63342-0.31485-0.49635 0-0.84825 0.37412-0.84825 0.88159 0 0.51118 0.3519 0.889 0.83344 0.889 0.23336 0 0.46302-0.096308 0.6223-0.2704l-0.15187-0.1778c-0.11483 0.12965-0.28152 0.20373-0.44821 0.20373-0.32967 0-0.58155-0.27411-0.58155-0.67045 0-0.38523 0.24818-0.626 0.55933-0.626 0.28892 0 0.42598 0.20003 0.43709 0.22225 0.0148 0.025929-7e-3 0.062971 0.0222 0.085196z"/>
   <path d="m160.35 3.0681-0.0333 0.45561h-0.40376l-4e-3 0.21855h0.39634c-0.0222 0.28893-0.0333 0.57785-0.0333 0.86307 0 0.15187 0 0.32226 0.10001 0.46302 0.0815 0.11113 0.21114 0.1778 0.38523 0.1778 0.20003 0 0.39635-0.085196 0.54081-0.18891l-0.0815-0.21114c-0.14446 0.10742-0.27781 0.15558-0.38153 0.15558-0.12594 0-0.25559-0.070379-0.28522-0.27411 0-0.014817-0.0111-0.077788-0.0111-0.32597 0-0.21855 0.0111-0.4408 0.0333-0.65934h0.55563v-0.22225h-0.55192s0.0259-0.30374 0.0445-0.40005c4e-3 -0.037042 0.0333-0.059267 0.0185-0.10001z"/>
   <path d="m163.58 2.7495v2.4633h0.17409l0.0926-0.22225c0.11112 0.16669 0.29633 0.2667 0.50006 0.2667 0.34819 0 0.7075-0.29633 0.7075-0.91123 0-0.58896-0.3482-0.86307-0.68157-0.86307-0.21484 0-0.41487 0.11483-0.52229 0.30004v-0.94827c0-0.022225 4e-3 -0.029633 0.0222-0.04445 7e-3 -0.0037 0.0259-0.018521 0.0222-0.040746zm0.70008 0.96308c0.15928 0 0.49636 0.092604 0.49636 0.69268 0 0.51488-0.33337 0.61119-0.50006 0.61119-0.11483 0-0.37042-0.04445-0.41487-0.37042-0.0111-0.085196-0.0111-0.18521-0.0111-0.33338 0-0.15187 7e-3 -0.263 0.0445-0.3556 0.063-0.15187 0.21855-0.24448 0.38523-0.24448z"/>
   <path d="m165.55 3.72 0.12965 0.17039c0.14076-0.14446 0.32967-0.18891 0.48895-0.18891 0.20002 0 0.30004 0.085196 0.34819 0.16298 0.0556 0.092604 0.0519 0.20373 0.0519 0.29263v0.059267h-0.0519c-0.25188 0-0.51858 0-0.73343 0.077788-0.2667 0.096308-0.38523 0.29633-0.38523 0.48154 0 0.24818 0.21484 0.48154 0.56674 0.48154 0.20743 0 0.42227-0.077788 0.60748-0.22966v0.18521h0.25189v-1.0483c0-0.13705-4e-3 -0.2667-0.0815-0.40005-0.11112-0.1815-0.32596-0.27781-0.58896-0.27781-0.22595 0-0.4445 0.070379-0.60378 0.23336zm1.0298 0.70009v0.11483c0 0.085196 0 0.19632-0.11483 0.31856-0.063 0.062971-0.22225 0.20003-0.4445 0.20003-0.22595 0-0.3556-0.14446-0.3556-0.29263 0-0.12594 0.0852-0.263 0.29633-0.31485 0.15558-0.037042 0.38153-0.025929 0.55933-0.025929z"/>
   <path d="m168.44 3.7682c-0.0815-0.1741-0.263-0.28893-0.49636-0.28893-0.32226 0-0.71491 0.22966-0.71491 0.87418 0 0.626 0.3482 0.90011 0.67416 0.90011 0.21485 0 0.41487-0.12224 0.52229-0.31115v0.14817c0 0.040746 4e-3 0.081492 0.0148 0.12224h0.2667c-0.0148-0.048154-0.0148-0.10372-0.0148-0.15558l-4e-3 -2.2003c0-0.022225 0-0.029633 0.0148-0.051858 7e-3 -0.011112 0.0222-0.029633 0.0185-0.055563h-0.28151zm-0.48525-0.070379c0.14817 0 0.36671 0.077788 0.43339 0.32967 0.0222 0.077787 0.0296 0.17039 0.0296 0.3593 0 0.12965-7e-3 0.22225-0.037 0.31115-0.063 0.20003-0.24077 0.31856-0.41487 0.31856-0.19261 0-0.47783-0.14817-0.47783-0.70379 0-0.48525 0.2704-0.61489 0.46672-0.61489z"/>
  </g>
 </g>
</svg>
