<?xml version="1.0" encoding="UTF-8"?>
<svg width="171.98mm" height="77.258mm" version="1.1" viewBox="0 0 171.98 77.258" xmlns="http://www.w3.org/2000/svg" xmlns:cc="http://creativecommons.org/ns#" xmlns:dc="http://purl.org/dc/elements/1.1/" xmlns:rdf="http://www.w3.org/1999/02/22-rdf-syntax-ns#">
 <metadata>
  <rdf:RDF>
   <cc:Work rdf:about="">
    <dc:format>image/svg+xml</dc:format>
    <dc:type rdf:resource="http://purl.org/dc/dcmitype/StillImage"/>
    <dc:title/>
   </cc:Work>
  </rdf:RDF>
 </metadata>
 <rect x=".095989" width="171.88" height="26.988" fill="#2f3744" fill-opacity=".50196"/>
 <path d="m26.184 15.627-3.6947 2.1331-3.6947-2.1331v-4.2663l3.6947-2.1331 3.6947 2.1331z" fill="#1d232d" stroke="#6f8ce9" stroke-linecap="round" stroke-width=".26458"/>
 <path d="m42.583 13.626h-14.982" fill="none" stroke="#7b8694" stroke-linecap="round" stroke-width=".26458"/>
 <g transform="matrix(-.0044048 0 0 -.0044802 28.602 14.831)" fill="#7b8694" stroke-width="59.559">
  <g fill="#7b8694" stroke-width="59.559">
   <path d="m486.41 221.41-364.07-208.5c-52.938-30.318-95.852-5.44-95.852 55.563v415.65c0 61.004 42.914 85.882 95.852 55.563l364.07-208.49c52.938-30.317 52.938-79.473 0-109.79z" fill="#7b8694" stroke-width="59.559"/>
  </g>
 </g>
 <path d="m49.997 15.627-3.6947 2.1331-3.6947-2.1331v-4.2663l3.6947-2.1331 3.6947 2.1331z" fill="#1d232d" stroke="#6f8ce9" stroke-linecap="round" stroke-width=".26458"/>
 <path d="m66.395 13.626h-14.982" fill="none" stroke="#7b8694" stroke-linecap="round" stroke-width=".26458"/>
 <g transform="matrix(-.0044048 0 0 -.0044802 52.415 14.831)" fill="#7b8694" stroke-width="59.559">
  <g fill="#7b8694" stroke-width="59.559">
   <path d="m486.41 221.41-364.07-208.5c-52.938-30.318-95.852-5.44-95.852 55.563v415.65c0 61.004 42.914 85.882 95.852 55.563l364.07-208.49c52.938-30.317 52.938-79.473 0-109.79z" fill="#7b8694" stroke-width="59.559"/>
  </g>
 </g>
 <path d="m73.809 15.627-3.6947 2.1331-3.6947-2.1331v-4.2663l3.6947-2.1331 3.6947 2.1331z" fill="#1d232d" stroke="#6f8ce9" stroke-linecap="round" stroke-width=".26458"/>
 <g fill="#e8eaec" stroke-linecap="round" stroke-width=".26458">
  <g aria-label="#cab">
   <path d="m19.181 8.3587h0.20002l0.0926-0.75565h0.48895l-0.0889 0.75565h0.19632l0.0926-0.75565h0.34078v-0.21114h-0.31486l0.06668-0.54822h0.32226v-0.21484h-0.30004l0.0889-0.67786h-0.19632l-0.0889 0.67786h-0.49265l0.08519-0.67786h-0.19632l-0.0852 0.67786h-0.34078v0.21484h0.31485l-0.06668 0.54822h-0.32226v0.21114h0.29633zm0.31856-0.96679 0.06668-0.54822h0.48895l-0.06668 0.54822z"/>
   <path d="m20.855 7.4623c0 0.59637 0.36671 0.94086 0.84455 0.94086 0.21484 0 0.42228-0.0889 0.58526-0.23336l-0.13706-0.20003c-0.10742 0.096308-0.25188 0.1815-0.42228 0.1815-0.32967 0-0.55563-0.27781-0.55563-0.68898 0-0.41487 0.23707-0.69638 0.56303-0.69638 0.14446 0 0.25559 0.066675 0.36301 0.15928l0.15187-0.19632c-0.12224-0.11483-0.28892-0.21484-0.52599-0.21484-0.46302 0-0.86678 0.34449-0.86678 0.94827z"/>
   <path d="m22.549 7.892c0 0.32226 0.22596 0.51118 0.5297 0.51118 0.22225 0 0.42228-0.11853 0.59637-0.25929h0.0074l0.02593 0.21484h0.25188v-1.1038c0-0.4482-0.18521-0.74083-0.626-0.74083-0.28892 0-0.54081 0.12594-0.7075 0.23336l0.12224 0.21114c0.14076-0.096308 0.32597-0.19262 0.5371-0.19262 0.29263 0 0.37042 0.22225 0.37042 0.45191-0.76676 0.085196-1.1075 0.28152-1.1075 0.67416zm0.30004-0.022225c0-0.22966 0.20373-0.37783 0.80751-0.45191v0.50006c-0.1741 0.15558-0.31856 0.24077-0.49266 0.24077-0.1778 0-0.31485-0.085196-0.31485-0.28893z"/>
   <path d="m24.534 8.3587h0.24448l0.02593-0.1778h0.01111c0.15928 0.14076 0.34819 0.22225 0.51488 0.22225 0.41116 0 0.77788-0.3593 0.77788-0.9742 0-0.55563-0.24818-0.91493-0.7149-0.91493-0.20002 0-0.40005 0.10742-0.56303 0.25188l0.0074-0.32597v-0.71861h-0.30373zm0.30374-0.40005v-0.94456c0.17039-0.15928 0.32967-0.24448 0.48154-0.24448 0.34078 0 0.47413 0.2667 0.47413 0.66305 0 0.4445-0.21855 0.7149-0.51488 0.7149-0.11853 0-0.28152-0.051858-0.4408-0.18891z"/>
  </g>
  <g aria-label="#06c">
   <path d="m42.993 8.3587h0.20002l0.0926-0.75565h0.48895l-0.0889 0.75565h0.19632l0.0926-0.75565h0.34078v-0.21114h-0.31485l0.06667-0.54822h0.32226v-0.21484h-0.30004l0.0889-0.67786h-0.19631l-0.0889 0.67786h-0.49266l0.0852-0.67786h-0.19632l-0.0852 0.67786h-0.34078v0.21484h0.31485l-0.06667 0.54822h-0.32226v0.21114h0.29633zm0.31856-0.96679 0.06668-0.54822h0.48895l-0.06668 0.54822z"/>
   <path d="m45.42 8.4032c0.47043 0 0.75565-0.4408 0.75565-1.2335s-0.28522-1.2187-0.75565-1.2187c-0.47413 0-0.75935 0.42598-0.75935 1.2187s0.28522 1.2335 0.75935 1.2335zm0-0.24448c-0.27781 0-0.46302-0.29633-0.46302-0.98901s0.18521-0.9742 0.46302-0.9742c0.27411 0 0.45932 0.28152 0.45932 0.9742s-0.18521 0.98901-0.45932 0.98901z"/>
   <path d="m47.328 8.1624c-0.30004 0-0.48154-0.24818-0.51858-0.7075 0.15928-0.22225 0.34449-0.31115 0.49266-0.31115 0.29263 0 0.43709 0.19262 0.43709 0.50006 0 0.31115-0.1778 0.51858-0.41116 0.51858zm0.65564-1.9595c-0.13335-0.14446-0.31485-0.25188-0.57044-0.25188-0.47043 0-0.90011 0.36671-0.90011 1.315 0 0.75935 0.3519 1.1372 0.81492 1.1372 0.38153 0 0.70009-0.30745 0.70009-0.75935 0-0.48525-0.2667-0.72972-0.67416-0.72972-0.19262 0-0.40375 0.11483-0.55192 0.29633 0.01482-0.74824 0.29263-1.0038 0.6223-1.0038 0.14817 0 0.29263 0.070379 0.38894 0.18521z"/>
   <path d="m48.343 7.4623c0 0.59637 0.36671 0.94086 0.84455 0.94086 0.21484 0 0.42228-0.0889 0.58526-0.23336l-0.13705-0.20003c-0.10742 0.096308-0.25188 0.1815-0.42228 0.1815-0.32967 0-0.55562-0.27781-0.55562-0.68898 0-0.41487 0.23707-0.69638 0.56303-0.69638 0.14446 0 0.25559 0.066675 0.36301 0.15928l0.15187-0.19632c-0.12224-0.11483-0.28892-0.21484-0.52599-0.21484-0.46302 0-0.86678 0.34449-0.86678 0.94827z"/>
  </g>
  <g aria-label="#ba1">
   <path d="m66.806 8.3587h0.20002l0.0926-0.75565h0.48895l-0.0889 0.75565h0.19632l0.0926-0.75565h0.34078v-0.21114h-0.31486l0.06667-0.54822h0.32226v-0.21484h-0.30004l0.0889-0.67786h-0.19632l-0.0889 0.67786h-0.49265l0.0852-0.67786h-0.19632l-0.0852 0.67786h-0.34078v0.21484h0.31485l-0.06668 0.54822h-0.32226v0.21114h0.29633zm0.31856-0.96679 0.06667-0.54822h0.48895l-0.06668 0.54822z"/>
   <path d="m68.614 8.3587h0.24448l0.02593-0.1778h0.01111c0.15928 0.14076 0.34819 0.22225 0.51488 0.22225 0.41116 0 0.77788-0.3593 0.77788-0.9742 0-0.55563-0.24818-0.91493-0.7149-0.91493-0.20003 0-0.40005 0.10742-0.56303 0.25188l0.0074-0.32597v-0.71861h-0.30373zm0.30374-0.40005v-0.94456c0.17039-0.15928 0.32967-0.24448 0.48154-0.24448 0.34078 0 0.47413 0.2667 0.47413 0.66305 0 0.4445-0.21855 0.7149-0.51488 0.7149-0.11853 0-0.28152-0.051858-0.4408-0.18891z"/>
   <path d="m70.529 7.892c0 0.32226 0.22595 0.51118 0.5297 0.51118 0.22225 0 0.42228-0.11853 0.59637-0.25929h0.0074l0.02593 0.21484h0.25188v-1.1038c0-0.4482-0.18521-0.74083-0.626-0.74083-0.28892 0-0.54081 0.12594-0.7075 0.23336l0.12224 0.21114c0.14076-0.096308 0.32597-0.19262 0.5371-0.19262 0.29263 0 0.37042 0.22225 0.37042 0.45191-0.76676 0.085196-1.1075 0.28152-1.1075 0.67416zm0.30004-0.022225c0-0.22966 0.20373-0.37783 0.80751-0.45191v0.50006c-0.1741 0.15558-0.31856 0.24077-0.49266 0.24077-0.1778 0-0.31485-0.085196-0.31485-0.28893z"/>
   <path d="m72.502 8.3587h1.3335v-0.25188h-0.48895v-2.1114h-0.23336c-0.12965 0.077788-0.28522 0.13705-0.50006 0.1741v0.19632h0.42968v1.741h-0.54081z"/>
  </g>
 </g>
 <path d="m90.208 13.626h-14.982" fill="none" stroke="#7b8694" stroke-linecap="round" stroke-width=".26458"/>
 <g transform="matrix(-.0044048 0 0 -.0044802 76.227 14.831)" fill="#7b8694" stroke-width="59.559">
  <g fill="#7b8694" stroke-width="59.559">
   <path d="m486.41 221.41-364.07-208.5c-52.938-30.318-95.852-5.44-95.852 55.563v415.65c0 61.004 42.914 85.882 95.852 55.563l364.07-208.49c52.938-30.317 52.938-79.473 0-109.79z" fill="#7b8694" stroke-width="59.559"/>
  </g>
 </g>
 <path d="m97.622 15.627-3.6947 2.1331-3.6947-2.1331v-4.2663l3.6947-2.1331 3.6947 2.1331z" fill="#1d232d" stroke="#6f8ce9" stroke-linecap="round" stroke-width=".26458"/>
 <g fill="#e8eaec" stroke-linecap="round" stroke-width=".26458">
  <g aria-label="#cc2">
   <path d="m90.883 8.3587h0.20003l0.0926-0.75565h0.48895l-0.0889 0.75565h0.19632l0.0926-0.75565h0.34078v-0.21114h-0.31485l0.06668-0.54822h0.32226v-0.21484h-0.30004l0.0889-0.67786h-0.19632l-0.0889 0.67786h-0.49266l0.0852-0.67786h-0.19632l-0.0852 0.67786h-0.34078v0.21484h0.31486l-0.06668 0.54822h-0.32226v0.21114h0.29633zm0.31856-0.96679 0.06668-0.54822h0.48895l-0.06668 0.54822z"/>
   <path d="m92.557 7.4623c0 0.59637 0.36671 0.94086 0.84455 0.94086 0.21484 0 0.42228-0.0889 0.58526-0.23336l-0.13705-0.20003c-0.10742 0.096308-0.25188 0.1815-0.42228 0.1815-0.32967 0-0.55562-0.27781-0.55562-0.68898 0-0.41487 0.23707-0.69638 0.56303-0.69638 0.14446 0 0.25559 0.066675 0.36301 0.15928l0.15187-0.19632c-0.12224-0.11483-0.28892-0.21484-0.52599-0.21484-0.46302 0-0.86678 0.34449-0.86678 0.94827z"/>
   <path d="m94.163 7.4623c0 0.59637 0.36671 0.94086 0.84455 0.94086 0.21484 0 0.42228-0.0889 0.58526-0.23336l-0.13705-0.20003c-0.10742 0.096308-0.25188 0.1815-0.42228 0.1815-0.32967 0-0.55562-0.27781-0.55562-0.68898 0-0.41487 0.23707-0.69638 0.56303-0.69638 0.14446 0 0.25559 0.066675 0.36301 0.15928l0.15187-0.19632c-0.12224-0.11483-0.28892-0.21484-0.52599-0.21484-0.46302 0-0.86678 0.34449-0.86678 0.94827z"/>
   <path d="m95.827 8.3587h1.5261v-0.263h-0.68527c-0.12224 0-0.2667 0.011112-0.39635 0.022225 0.55933-0.58526 0.96308-1.0261 0.96308-1.4706 0-0.41857-0.2704-0.69638-0.7075-0.69638-0.30745 0-0.51858 0.14446-0.7149 0.3593l0.1741 0.1741c0.13705-0.15928 0.30745-0.28522 0.50377-0.28522 0.30004 0 0.4482 0.19262 0.4482 0.46302 0 0.38153-0.40005 0.80751-1.1113 1.515z"/>
  </g>
  <g stroke="#cf2f25" aria-label="A">
   <path d="m25.294 18.218 0.11853-0.37042c0.0852-0.2704 0.16298-0.5371 0.24077-0.81862h0.01482c0.07779 0.28152 0.15558 0.54822 0.24077 0.81862l0.11483 0.37042zm1.0409 0.98901h0.32597l-0.82233-2.4299h-0.34819l-0.82233 2.4299h0.31485l0.23336-0.74083h0.8853z" fill="#e8eaec" stroke="none"/>
  </g>
  <g stroke="#cf2f25" aria-label="B">
   <path d="m48.803 19.207h0.77788c0.54081 0 0.91863-0.23336 0.91863-0.7112 0-0.33338-0.20743-0.52599-0.56303-0.58155v-0.01482c0.28892-0.07408 0.42598-0.28892 0.42598-0.5297 0-0.42598-0.34449-0.59267-0.83714-0.59267h-0.72231zm0.31115-1.3928v-0.79269h0.37412c0.37412 0 0.57044 0.11112 0.57044 0.37412 0 0.2704-0.1741 0.41857-0.58526 0.41857zm0 1.1483v-0.91863h0.42228c0.42598 0 0.65934 0.13705 0.65934 0.43709 0 0.32967-0.24448 0.48154-0.65934 0.48154z" fill="#e8eaec" stroke="none"/>
  </g>
  <g stroke="#cf2f25" aria-label="C">
   <path d="m72.475 17.992c0 0.79269 0.45561 1.2594 1.0668 1.2594 0.30745 0 0.54822-0.12965 0.73713-0.3519l-0.1741-0.18891c-0.15558 0.1741-0.32597 0.2704-0.55563 0.2704-0.46302 0-0.75565-0.38523-0.75565-0.99642 0-0.60378 0.30745-0.9816 0.77047-0.9816 0.20002 0 0.3556 0.0889 0.48525 0.22595l0.1741-0.19632c-0.14446-0.15928-0.37412-0.30004-0.66305-0.30004-0.6223 0-1.0853 0.47784-1.0853 1.2594z" fill="#e8eaec" stroke="none"/>
  </g>
  <g stroke="#cf2f25" aria-label="D">
   <path d="m96.428 19.207h0.6223c0.73343 0 1.1335-0.45191 1.1335-1.2261 0-0.77047-0.40005-1.2039-1.1483-1.2039h-0.60748zm0.31115-0.25188v-1.9262h0.27411c0.57044 0 0.85196 0.34078 0.85196 0.95197 0 0.61489-0.28152 0.9742-0.85196 0.9742z" fill="#e8eaec" stroke="none"/>
  </g>
 </g>
 <path d="m114.02 13.626h-14.982" fill="none" stroke="#7b8694" stroke-linecap="round" stroke-width=".26458"/>
 <g>
  <g transform="matrix(-.0044048 0 0 -.0044802 100.04 14.831)" fill="#7b8694" stroke-width="59.559">
   <g fill="#7b8694" stroke-width="59.559">
    <path d="m486.41 221.41-364.07-208.5c-52.938-30.318-95.852-5.44-95.852 55.563v415.65c0 61.004 42.914 85.882 95.852 55.563l364.07-208.49c52.938-30.317 52.938-79.473 0-109.79z" fill="#7b8694" stroke-width="59.559"/>
   </g>
  </g>
  <g stroke-width=".26458">
   <g stroke-linecap="round">
    <path d="m121.43 15.627-3.6947 2.1331-3.6947-2.1331v-4.2663l3.6947-2.1331 3.6947 2.1331z" fill="#1d232d" stroke="#6f8ce9"/>
    <g fill="#e8eaec" aria-label="#6a8">
     <path d="m114.7 8.3587h0.20002l0.0926-0.75565h0.48895l-0.0889 0.75565h0.19632l0.0926-0.75565h0.34079v-0.21114h-0.31486l0.0667-0.54822h0.32226v-0.21484h-0.30004l0.0889-0.67786h-0.19632l-0.0889 0.67786h-0.49265l0.0852-0.67786h-0.19632l-0.0852 0.67786h-0.34079v0.21484h0.31486l-0.0667 0.54822h-0.32226v0.21114h0.29633zm0.31856-0.96679 0.0667-0.54822h0.48895l-0.0667 0.54822z"/>
     <path d="m117.19 8.1624c-0.30004 0-0.48155-0.24818-0.51859-0.7075 0.15928-0.22225 0.34449-0.31115 0.49266-0.31115 0.29263 0 0.43709 0.19262 0.43709 0.50006 0 0.31115-0.1778 0.51858-0.41116 0.51858zm0.65563-1.9595c-0.13335-0.14446-0.31485-0.25188-0.57044-0.25188-0.47043 0-0.90011 0.36671-0.90011 1.315 0 0.75935 0.35189 1.1372 0.81492 1.1372 0.38153 0 0.70008-0.30745 0.70008-0.75935 0-0.48525-0.2667-0.72972-0.67415-0.72972-0.19262 0-0.40376 0.11483-0.55193 0.29633 0.0148-0.74824 0.29263-1.0038 0.6223-1.0038 0.14817 0 0.29263 0.070379 0.38894 0.18521z"/>
     <path d="m118.25 7.892c0 0.32226 0.22595 0.51118 0.52969 0.51118 0.22225 0 0.42228-0.11853 0.59637-0.25929h7e-3l0.0259 0.21484h0.25188v-1.1038c0-0.4482-0.1852-0.74083-0.626-0.74083-0.28893 0-0.54081 0.12594-0.7075 0.23336l0.12224 0.21114c0.14076-0.096308 0.32597-0.19262 0.53711-0.19262 0.29263 0 0.37041 0.22225 0.37041 0.45191-0.76676 0.085196-1.1075 0.28152-1.1075 0.67416zm0.30003-0.022225c0-0.22966 0.20373-0.37783 0.80751-0.45191v0.50006c-0.17409 0.15558-0.31856 0.24077-0.49265 0.24077-0.1778 0-0.31486-0.085196-0.31486-0.28893z"/>
     <path d="m120.36 7.7253c0-0.21484 0.14076-0.38894 0.32967-0.51488 0.34078 0.13705 0.64082 0.24818 0.64082 0.55192 0 0.24448-0.18891 0.41487-0.46302 0.41487-0.28893 0-0.50747-0.18891-0.50747-0.45191zm0.66675-0.65564c-0.28522-0.11113-0.54452-0.22966-0.54452-0.51118 0-0.22966 0.16299-0.38153 0.38153-0.38153 0.2593 0 0.41117 0.18521 0.41117 0.41857 0 0.1741-0.0889 0.33338-0.24818 0.47413zm-0.94086 0.68527c0 0.37412 0.32967 0.64823 0.77417 0.64823 0.45932 0 0.76306-0.27781 0.76306-0.62971 0-0.31856-0.20003-0.48525-0.41116-0.60748v-0.014817c0.14446-0.11113 0.32596-0.32226 0.32596-0.57044 0-0.36671-0.25558-0.62971-0.66675-0.62971-0.38153 0-0.67045 0.24448-0.67045 0.60748 0 0.24818 0.15557 0.42228 0.32967 0.54451v0.014817c-0.22225 0.11853-0.4445 0.32967-0.4445 0.63712z"/>
    </g>
    <g fill="#e8eaec" stroke="#cf2f25" aria-label="E">
     <path d="m120.24 19.207h1.4372v-0.263h-1.1261v-0.88159h0.91863v-0.263h-0.91863v-0.76306h1.089v-0.25929h-1.4002z" fill="#e8eaec" stroke="none"/>
    </g>
   </g>
   <path d="m140.49 11.008c-1.4502 0-2.6177 1.1675-2.6177 2.6177s1.1675 2.6177 2.6177 2.6177h11.112c1.4502 0 2.6177-1.1675 2.6177-2.6177s-1.1675-2.6177-2.6177-2.6177z" fill="#1d232d" stroke="#7893ea"/>
  </g>
 </g>
 <path d="m137.83 13.626h-14.982" fill="none" stroke="#6f8ce9" stroke-linecap="round" stroke-width=".26458"/>
 <g transform="matrix(-.0044048 0 0 -.0044802 123.85 14.831)" fill="#6f8ce9" stroke-width="59.559">
  <g fill="#6f8ce9" stroke-width="59.559">
   <path d="m486.41 221.41-364.07-208.5c-52.938-30.318-95.852-5.44-95.852 55.563v415.65c0 61.004 42.914 85.882 95.852 55.563l364.07-208.49c52.938-30.317 52.938-79.473 0-109.79z" fill="#6f8ce9" stroke-width="59.559"/>
  </g>
 </g>
 <g fill="#e8eaec" stroke-linecap="round" stroke-width=".26458" aria-label="master">
  <path d="m141.03 14.756h0.30374v-1.3039c0.16669-0.18521 0.31856-0.27781 0.45191-0.27781 0.22966 0 0.33708 0.14446 0.33708 0.48154v1.1001h0.30374v-1.3039c0.16669-0.18521 0.31115-0.27781 0.45191-0.27781 0.22595 0 0.33337 0.14446 0.33337 0.48154v1.1001h0.30374v-1.1409c0-0.45932-0.1778-0.70379-0.54821-0.70379-0.21855 0-0.40376 0.14076-0.59267 0.34449-0.0741-0.21484-0.22225-0.34449-0.49636-0.34449-0.21484 0-0.40375 0.13335-0.55933 0.30374h-0.0111l-0.0259-0.25929h-0.25188z"/>
  <path d="m144.01 14.289c0 0.32226 0.22596 0.51118 0.5297 0.51118 0.22225 0 0.42227-0.11853 0.59637-0.25929h7e-3l0.0259 0.21484h0.25188v-1.1038c0-0.4482-0.18521-0.74083-0.626-0.74083-0.28893 0-0.54081 0.12594-0.7075 0.23336l0.12224 0.21114c0.14076-0.09631 0.32596-0.19262 0.5371-0.19262 0.29263 0 0.37042 0.22225 0.37042 0.45191-0.76676 0.0852-1.1076 0.28152-1.1076 0.67416zm0.30004-0.02223c0-0.22966 0.20373-0.37782 0.80751-0.45191v0.50006c-0.1741 0.15558-0.31856 0.24077-0.49266 0.24077-0.1778 0-0.31485-0.0852-0.31485-0.28892z"/>
  <path d="m145.8 14.552c0.17039 0.14076 0.41487 0.24818 0.67045 0.24818 0.42598 0 0.65935-0.24448 0.65935-0.5371 0-0.34078-0.28893-0.4482-0.54822-0.54451-0.20373-0.07779-0.40005-0.14446-0.40005-0.31115 0-0.13705 0.10372-0.25929 0.32967-0.25929 0.15928 0 0.28893 0.06668 0.41116 0.15928l0.14447-0.19262c-0.13706-0.11112-0.33338-0.20373-0.55933-0.20373-0.38894 0-0.6186 0.22225-0.6186 0.51118 0 0.30374 0.28152 0.42598 0.5371 0.51858 0.19633 0.07408 0.41117 0.15558 0.41117 0.34078 0 0.15558-0.11854 0.28152-0.3556 0.28152-0.21484 0-0.37412-0.0889-0.5297-0.21484z"/>
  <path d="m147.6 14.2c0 0.3556 0.12964 0.60008 0.51488 0.60008 0.11112 0 0.23336-0.03334 0.33337-0.06668l-0.0593-0.22966c-0.0593 0.02223-0.14075 0.04815-0.20373 0.04815-0.20743 0-0.27781-0.12594-0.27781-0.34819v-1.0001h0.48525v-0.24818h-0.48525v-0.50377h-0.25559l-0.037 0.50377-0.28151 0.01852v0.22966h0.2667z"/>
  <path d="m148.63 13.859c0 0.58896 0.38153 0.94086 0.86307 0.94086 0.24448 0 0.43709-0.0852 0.59267-0.18521l-0.10742-0.20002c-0.13335 0.0852-0.27782 0.14076-0.44821 0.14076-0.34449 0-0.57785-0.24448-0.60007-0.63341h1.215c7e-3 -0.04445 0.0111-0.10372 0.0111-0.16669 0-0.51488-0.2593-0.84455-0.71861-0.84455-0.41117 0-0.80751 0.3593-0.80751 0.94827zm0.29633-0.13705c0.037-0.36301 0.2667-0.57044 0.51859-0.57044 0.28151 0 0.4445 0.20373 0.4445 0.57044z"/>
  <path d="m150.6 14.756h0.30375v-1.1557c0.12223-0.30374 0.30374-0.41487 0.45561-0.41487 0.0741 0 0.11483 0.01111 0.1741 0.02963l0.0593-0.2667c-0.0593-0.02593-0.11483-0.03704-0.19261-0.03704-0.20373 0-0.38894 0.14446-0.51118 0.37042h-0.0111l-0.0259-0.32597h-0.25197z"/>
 </g>
 <rect y="32.279" width="171.88" height="44.979" fill="#2f3744" fill-opacity=".50196"/>
 <path d="m26.184 51.081-3.6947 2.1331-3.6947-2.1331v-4.2663l3.6947-2.1331 3.6947 2.1331z" fill="#1d232d" stroke="#6f8ce9" stroke-linecap="round" stroke-width=".26458"/>
 <path d="m42.583 49.08h-14.982" fill="none" stroke="#7b8694" stroke-linecap="round" stroke-width=".26458"/>
 <g transform="matrix(-.0044048 0 0 -.0044802 28.602 50.285)" fill="#7b8694" stroke-width="59.559">
  <g fill="#7b8694" stroke-width="59.559">
   <path d="m486.41 221.41-364.07-208.5c-52.938-30.318-95.852-5.44-95.852 55.563v415.65c0 61.004 42.914 85.882 95.852 55.563l364.07-208.49c52.938-30.317 52.938-79.473 0-109.79z" fill="#7b8694" stroke-width="59.559"/>
  </g>
 </g>
 <path d="m49.997 51.081-3.6947 2.1331-3.6947-2.1331v-4.2663l3.6947-2.1331 3.6947 2.1331z" fill="#1d232d" stroke="#6f8ce9" stroke-linecap="round" stroke-width=".26458"/>
 <path d="m66.395 49.08h-14.982" fill="none" stroke="#7b8694" stroke-linecap="round" stroke-width=".26458"/>
 <g transform="matrix(-.0044048 0 0 -.0044802 52.415 50.285)" fill="#7b8694" stroke-width="59.559">
  <g fill="#7b8694" stroke-width="59.559">
   <path d="m486.41 221.41-364.07-208.5c-52.938-30.318-95.852-5.44-95.852 55.563v415.65c0 61.004 42.914 85.882 95.852 55.563l364.07-208.49c52.938-30.317 52.938-79.473 0-109.79z" fill="#7b8694" stroke-width="59.559"/>
  </g>
 </g>
 <path d="m73.809 51.081-3.6947 2.1331-3.6947-2.1331v-4.2663l3.6947-2.1331 3.6947 2.1331z" fill="#1d232d" stroke="#6f8ce9" stroke-linecap="round" stroke-width=".26458"/>
 <g fill="#e8eaec" stroke-linecap="round" stroke-width=".26458">
  <g aria-label="#cab">
   <path d="m19.181 43.813h0.20002l0.0926-0.75565h0.48895l-0.0889 0.75565h0.19632l0.0926-0.75565h0.34078v-0.21114h-0.31486l0.06668-0.54822h0.32226v-0.21484h-0.30004l0.0889-0.67786h-0.19632l-0.0889 0.67786h-0.49265l0.08519-0.67786h-0.19632l-0.0852 0.67786h-0.34078v0.21484h0.31485l-0.06668 0.54822h-0.32226v0.21114h0.29633zm0.31856-0.96679 0.06668-0.54822h0.48895l-0.06668 0.54822z"/>
   <path d="m20.855 42.916c0 0.59637 0.36671 0.94086 0.84455 0.94086 0.21484 0 0.42228-0.0889 0.58526-0.23336l-0.13706-0.20002c-0.10742 0.09631-0.25188 0.1815-0.42228 0.1815-0.32967 0-0.55563-0.27781-0.55563-0.68898 0-0.41487 0.23707-0.69638 0.56303-0.69638 0.14446 0 0.25559 0.06668 0.36301 0.15928l0.15187-0.19632c-0.12224-0.11483-0.28892-0.21484-0.52599-0.21484-0.46302 0-0.86678 0.34449-0.86678 0.94827z"/>
   <path d="m22.549 43.346c0 0.32226 0.22596 0.51118 0.5297 0.51118 0.22225 0 0.42228-0.11853 0.59637-0.25929h0.0074l0.02593 0.21484h0.25188v-1.1038c0-0.4482-0.18521-0.74083-0.626-0.74083-0.28892 0-0.54081 0.12594-0.7075 0.23336l0.12224 0.21114c0.14076-0.09631 0.32597-0.19262 0.5371-0.19262 0.29263 0 0.37042 0.22225 0.37042 0.45191-0.76676 0.0852-1.1075 0.28152-1.1075 0.67416zm0.30004-0.02222c0-0.22966 0.20373-0.37782 0.80751-0.45191v0.50006c-0.1741 0.15558-0.31856 0.24077-0.49266 0.24077-0.1778 0-0.31485-0.0852-0.31485-0.28893z"/>
   <path d="m24.534 43.813h0.24448l0.02593-0.1778h0.01111c0.15928 0.14076 0.34819 0.22225 0.51488 0.22225 0.41116 0 0.77788-0.3593 0.77788-0.9742 0-0.55562-0.24818-0.91493-0.7149-0.91493-0.20002 0-0.40005 0.10742-0.56303 0.25188l0.0074-0.32597v-0.71861h-0.30374zm0.30374-0.40005v-0.94456c0.17039-0.15928 0.32967-0.24448 0.48154-0.24448 0.34078 0 0.47413 0.2667 0.47413 0.66305 0 0.4445-0.21855 0.7149-0.51488 0.7149-0.11853 0-0.28152-0.05186-0.4408-0.18891z"/>
  </g>
  <g aria-label="#06c">
   <path d="m42.993 43.813h0.20002l0.0926-0.75565h0.48895l-0.0889 0.75565h0.19632l0.0926-0.75565h0.34078v-0.21114h-0.31485l0.06667-0.54822h0.32226v-0.21484h-0.30004l0.0889-0.67786h-0.19631l-0.0889 0.67786h-0.49266l0.0852-0.67786h-0.19632l-0.0852 0.67786h-0.34078v0.21484h0.31485l-0.06667 0.54822h-0.32226v0.21114h0.29633zm0.31856-0.96679 0.06668-0.54822h0.48895l-0.06668 0.54822z"/>
   <path d="m45.42 43.857c0.47043 0 0.75565-0.4408 0.75565-1.2335 0-0.79269-0.28522-1.2187-0.75565-1.2187-0.47413 0-0.75935 0.42598-0.75935 1.2187 0 0.79269 0.28522 1.2335 0.75935 1.2335zm0-0.24448c-0.27781 0-0.46302-0.29633-0.46302-0.98901s0.18521-0.9742 0.46302-0.9742c0.27411 0 0.45932 0.28152 0.45932 0.9742s-0.18521 0.98901-0.45932 0.98901z"/>
   <path d="m47.328 43.617c-0.30004 0-0.48154-0.24818-0.51858-0.7075 0.15928-0.22225 0.34449-0.31115 0.49266-0.31115 0.29263 0 0.43709 0.19262 0.43709 0.50006 0 0.31115-0.1778 0.51858-0.41116 0.51858zm0.65564-1.9595c-0.13335-0.14446-0.31485-0.25188-0.57044-0.25188-0.47043 0-0.90011 0.36671-0.90011 1.315 0 0.75935 0.3519 1.1372 0.81492 1.1372 0.38153 0 0.70009-0.30745 0.70009-0.75936 0-0.48525-0.2667-0.72972-0.67416-0.72972-0.19262 0-0.40375 0.11483-0.55192 0.29633 0.01482-0.74824 0.29263-1.0038 0.6223-1.0038 0.14817 0 0.29263 0.07038 0.38894 0.18521z"/>
   <path d="m48.343 42.916c0 0.59637 0.36671 0.94086 0.84455 0.94086 0.21484 0 0.42228-0.0889 0.58526-0.23336l-0.13705-0.20002c-0.10742 0.09631-0.25188 0.1815-0.42228 0.1815-0.32967 0-0.55562-0.27781-0.55562-0.68898 0-0.41487 0.23707-0.69638 0.56303-0.69638 0.14446 0 0.25559 0.06668 0.36301 0.15928l0.15187-0.19632c-0.12224-0.11483-0.28892-0.21484-0.52599-0.21484-0.46302 0-0.86678 0.34449-0.86678 0.94827z"/>
  </g>
  <g aria-label="#ba1">
   <path d="m66.806 43.813h0.20002l0.0926-0.75565h0.48895l-0.0889 0.75565h0.19632l0.0926-0.75565h0.34078v-0.21114h-0.31486l0.06667-0.54822h0.32226v-0.21484h-0.30004l0.0889-0.67786h-0.19632l-0.0889 0.67786h-0.49265l0.0852-0.67786h-0.19632l-0.0852 0.67786h-0.34078v0.21484h0.31485l-0.06668 0.54822h-0.32226v0.21114h0.29633zm0.31856-0.96679 0.06667-0.54822h0.48895l-0.06668 0.54822z"/>
   <path d="m68.614 43.813h0.24448l0.02593-0.1778h0.01111c0.15928 0.14076 0.34819 0.22225 0.51488 0.22225 0.41116 0 0.77788-0.3593 0.77788-0.9742 0-0.55562-0.24818-0.91493-0.7149-0.91493-0.20003 0-0.40005 0.10742-0.56303 0.25188l0.0074-0.32597v-0.71861h-0.30374zm0.30374-0.40005v-0.94456c0.17039-0.15928 0.32967-0.24448 0.48154-0.24448 0.34078 0 0.47413 0.2667 0.47413 0.66305 0 0.4445-0.21855 0.7149-0.51488 0.7149-0.11853 0-0.28152-0.05186-0.4408-0.18891z"/>
   <path d="m70.529 43.346c0 0.32226 0.22595 0.51118 0.5297 0.51118 0.22225 0 0.42228-0.11853 0.59637-0.25929h0.0074l0.02593 0.21484h0.25188v-1.1038c0-0.4482-0.18521-0.74083-0.626-0.74083-0.28892 0-0.54081 0.12594-0.7075 0.23336l0.12224 0.21114c0.14076-0.09631 0.32597-0.19262 0.5371-0.19262 0.29263 0 0.37042 0.22225 0.37042 0.45191-0.76676 0.0852-1.1075 0.28152-1.1075 0.67416zm0.30004-0.02222c0-0.22966 0.20373-0.37782 0.80751-0.45191v0.50006c-0.1741 0.15558-0.31856 0.24077-0.49266 0.24077-0.1778 0-0.31485-0.0852-0.31485-0.28893z"/>
   <path d="m72.502 43.813h1.3335v-0.25188h-0.48895v-2.1114h-0.23336c-0.12965 0.07779-0.28522 0.13706-0.50006 0.1741v0.19632h0.42968v1.741h-0.54081z"/>
  </g>
 </g>
 <path d="m90.208 49.08h-14.982" fill="none" stroke="#7b8694" stroke-linecap="round" stroke-width=".26458"/>
 <g transform="matrix(-.0044048 0 0 -.0044802 76.227 50.285)" fill="#7b8694" stroke-width="59.559">
  <g fill="#7b8694" stroke-width="59.559">
   <path d="m486.41 221.41-364.07-208.5c-52.938-30.318-95.852-5.44-95.852 55.563v415.65c0 61.004 42.914 85.882 95.852 55.563l364.07-208.49c52.938-30.317 52.938-79.473 0-109.79z" fill="#7b8694" stroke-width="59.559"/>
  </g>
 </g>
 <path d="m97.622 51.081-3.6947 2.1331-3.6947-2.1331v-4.2663l3.6947-2.1331 3.6947 2.1331z" fill="#1d232d" stroke="#6f8ce9" stroke-linecap="round" stroke-width=".26458"/>
 <g fill="#e8eaec" stroke-linecap="round" stroke-width=".26458">
  <g aria-label="#cc2">
   <path d="m90.883 43.813h0.20003l0.0926-0.75565h0.48895l-0.0889 0.75565h0.19632l0.0926-0.75565h0.34078v-0.21114h-0.31485l0.06668-0.54822h0.32226v-0.21484h-0.30004l0.0889-0.67786h-0.19632l-0.0889 0.67786h-0.49266l0.0852-0.67786h-0.19632l-0.0852 0.67786h-0.34078v0.21484h0.31486l-0.06668 0.54822h-0.32226v0.21114h0.29633zm0.31856-0.96679 0.06668-0.54822h0.48895l-0.06668 0.54822z"/>
   <path d="m92.557 42.916c0 0.59637 0.36671 0.94086 0.84455 0.94086 0.21484 0 0.42228-0.0889 0.58526-0.23336l-0.13705-0.20002c-0.10742 0.09631-0.25188 0.1815-0.42228 0.1815-0.32967 0-0.55562-0.27781-0.55562-0.68898 0-0.41487 0.23707-0.69638 0.56303-0.69638 0.14446 0 0.25559 0.06668 0.36301 0.15928l0.15187-0.19632c-0.12224-0.11483-0.28892-0.21484-0.52599-0.21484-0.46302 0-0.86678 0.34449-0.86678 0.94827z"/>
   <path d="m94.163 42.916c0 0.59637 0.36671 0.94086 0.84455 0.94086 0.21484 0 0.42228-0.0889 0.58526-0.23336l-0.13705-0.20002c-0.10742 0.09631-0.25188 0.1815-0.42228 0.1815-0.32967 0-0.55562-0.27781-0.55562-0.68898 0-0.41487 0.23707-0.69638 0.56303-0.69638 0.14446 0 0.25559 0.06668 0.36301 0.15928l0.15187-0.19632c-0.12224-0.11483-0.28892-0.21484-0.52599-0.21484-0.46302 0-0.86678 0.34449-0.86678 0.94827z"/>
   <path d="m95.827 43.813h1.5261v-0.263h-0.68527c-0.12224 0-0.2667 0.01111-0.39635 0.02222 0.55933-0.58526 0.96308-1.0261 0.96308-1.4706 0-0.41857-0.2704-0.69638-0.7075-0.69638-0.30745 0-0.51858 0.14446-0.7149 0.3593l0.1741 0.1741c0.13705-0.15928 0.30745-0.28522 0.50377-0.28522 0.30004 0 0.4482 0.19262 0.4482 0.46302 0 0.38153-0.40005 0.80751-1.1113 1.515z"/>
  </g>
  <g stroke="#cf2f25" aria-label="A">
   <path d="m25.294 53.672 0.11853-0.37042c0.0852-0.2704 0.16298-0.5371 0.24077-0.81862h0.01482c0.07779 0.28152 0.15558 0.54822 0.24077 0.81862l0.11483 0.37042zm1.0409 0.98901h0.32597l-0.82233-2.4299h-0.34819l-0.82233 2.4299h0.31485l0.23336-0.74083h0.8853z" fill="#e8eaec" stroke="none"/>
  </g>
  <g stroke="#cf2f25" aria-label="B">
   <path d="m48.803 54.661h0.77788c0.54081 0 0.91863-0.23336 0.91863-0.7112 0-0.33338-0.20743-0.52599-0.56303-0.58156v-0.01482c0.28892-0.07408 0.42598-0.28892 0.42598-0.5297 0-0.42598-0.34449-0.59267-0.83714-0.59267h-0.72231zm0.31115-1.3928v-0.79269h0.37412c0.37412 0 0.57044 0.11112 0.57044 0.37412 0 0.2704-0.1741 0.41857-0.58526 0.41857zm0 1.1483v-0.91863h0.42228c0.42598 0 0.65934 0.13705 0.65934 0.43709 0 0.32967-0.24448 0.48154-0.65934 0.48154z" fill="#e8eaec" stroke="none"/>
  </g>
  <g stroke="#cf2f25" aria-label="C">
   <path d="m72.475 53.446c0 0.79269 0.45561 1.2594 1.0668 1.2594 0.30745 0 0.54822-0.12965 0.73713-0.3519l-0.1741-0.18891c-0.15558 0.1741-0.32597 0.2704-0.55563 0.2704-0.46302 0-0.75565-0.38523-0.75565-0.99642 0-0.60378 0.30745-0.9816 0.77047-0.9816 0.20002 0 0.3556 0.0889 0.48525 0.22596l0.1741-0.19632c-0.14446-0.15928-0.37412-0.30004-0.66305-0.30004-0.6223 0-1.0853 0.47784-1.0853 1.2594z" fill="#e8eaec" stroke="none"/>
  </g>
  <g stroke="#cf2f25" aria-label="D">
   <path d="m96.428 54.661h0.6223c0.73343 0 1.1335-0.45191 1.1335-1.2261 0-0.77047-0.40005-1.2039-1.1483-1.2039h-0.60748zm0.31115-0.25188v-1.9262h0.27411c0.57044 0 0.85196 0.34078 0.85196 0.95197 0 0.61489-0.28152 0.9742-0.85196 0.9742z" fill="#e8eaec" stroke="none"/>
  </g>
 </g>
 <path d="m114.02 49.08h-14.982" fill="none" stroke="#7b8694" stroke-linecap="round" stroke-width=".26458"/>
 <g>
  <g transform="matrix(-.0044048 0 0 -.0044802 100.04 50.285)" fill="#7b8694" stroke-width="59.559">
   <g fill="#7b8694" stroke-width="59.559">
    <path d="m486.41 221.41-364.07-208.5c-52.938-30.318-95.852-5.44-95.852 55.563v415.65c0 61.004 42.914 85.882 95.852 55.563l364.07-208.49c52.938-30.317 52.938-79.473 0-109.79z" fill="#7b8694" stroke-width="59.559"/>
   </g>
  </g>
  <g stroke-width=".26458">
   <g stroke-linecap="round">
    <path d="m121.43 51.081-3.6947 2.1331-3.6947-2.1331v-4.2663l3.6947-2.1331 3.6947 2.1331z" fill="#1d232d" stroke="#6f8ce9"/>
    <g fill="#e8eaec" aria-label="#6a8">
     <path d="m114.7 43.813h0.20002l0.0926-0.75565h0.48895l-0.0889 0.75565h0.19632l0.0926-0.75565h0.34079v-0.21114h-0.31486l0.0667-0.54822h0.32226v-0.21484h-0.30004l0.0889-0.67786h-0.19632l-0.0889 0.67786h-0.49265l0.0852-0.67786h-0.19632l-0.0852 0.67786h-0.34079v0.21484h0.31486l-0.0667 0.54822h-0.32226v0.21114h0.29633zm0.31856-0.96679 0.0667-0.54822h0.48895l-0.0667 0.54822z"/>
     <path d="m117.19 43.617c-0.30004 0-0.48155-0.24818-0.51859-0.7075 0.15928-0.22225 0.34449-0.31115 0.49266-0.31115 0.29263 0 0.43709 0.19262 0.43709 0.50006 0 0.31115-0.1778 0.51858-0.41116 0.51858zm0.65563-1.9595c-0.13335-0.14446-0.31485-0.25188-0.57044-0.25188-0.47043 0-0.90011 0.36671-0.90011 1.315 0 0.75935 0.35189 1.1372 0.81492 1.1372 0.38153 0 0.70008-0.30745 0.70008-0.75936 0-0.48525-0.2667-0.72972-0.67415-0.72972-0.19262 0-0.40376 0.11483-0.55193 0.29633 0.0148-0.74824 0.29263-1.0038 0.6223-1.0038 0.14817 0 0.29263 0.07038 0.38894 0.18521z"/>
     <path d="m118.25 43.346c0 0.32226 0.22595 0.51118 0.52969 0.51118 0.22225 0 0.42228-0.11853 0.59637-0.25929h7e-3l0.0259 0.21484h0.25188v-1.1038c0-0.4482-0.1852-0.74083-0.626-0.74083-0.28893 0-0.54081 0.12594-0.7075 0.23336l0.12224 0.21114c0.14076-0.09631 0.32597-0.19262 0.53711-0.19262 0.29263 0 0.37041 0.22225 0.37041 0.45191-0.76676 0.0852-1.1075 0.28152-1.1075 0.67416zm0.30003-0.02222c0-0.22966 0.20373-0.37782 0.80751-0.45191v0.50006c-0.17409 0.15558-0.31856 0.24077-0.49265 0.24077-0.1778 0-0.31486-0.0852-0.31486-0.28893z"/>
     <path d="m120.36 43.179c0-0.21484 0.14076-0.38894 0.32967-0.51488 0.34078 0.13705 0.64082 0.24818 0.64082 0.55192 0 0.24448-0.18891 0.41487-0.46302 0.41487-0.28893 0-0.50747-0.18891-0.50747-0.45191zm0.66675-0.65564c-0.28522-0.11113-0.54452-0.22966-0.54452-0.51118 0-0.22966 0.16299-0.38153 0.38153-0.38153 0.2593 0 0.41117 0.18521 0.41117 0.41857 0 0.1741-0.0889 0.33338-0.24818 0.47413zm-0.94086 0.68527c0 0.37412 0.32967 0.64823 0.77417 0.64823 0.45932 0 0.76306-0.27781 0.76306-0.62971 0-0.31856-0.20003-0.48525-0.41116-0.60748v-0.01482c0.14446-0.11112 0.32596-0.32226 0.32596-0.57044 0-0.36671-0.25558-0.62971-0.66675-0.62971-0.38153 0-0.67045 0.24448-0.67045 0.60748 0 0.24818 0.15557 0.42228 0.32967 0.54451v0.01482c-0.22225 0.11853-0.4445 0.32967-0.4445 0.63712z"/>
    </g>
    <g fill="#e8eaec" stroke="#cf2f25" aria-label="E">
     <path d="m120.24 54.661h1.4372v-0.263h-1.1261v-0.88159h0.91863v-0.263h-0.91863v-0.76306h1.089v-0.25929h-1.4002z" fill="#e8eaec" stroke="none"/>
    </g>
   </g>
   <path d="m140.49 46.463c-1.4502 0-2.6177 1.1675-2.6177 2.6177s1.1675 2.6177 2.6177 2.6177h11.112c1.4502 0 2.6177-1.1675 2.6177-2.6177s-1.1675-2.6177-2.6177-2.6177z" fill="#1d232d" stroke="#7893ea"/>
  </g>
 </g>
 <path d="m137.83 49.08h-14.982" fill="none" stroke="#6f8ce9" stroke-linecap="round" stroke-width=".26458"/>
 <g>
  <g transform="matrix(-.0044048 0 0 -.0044802 123.85 50.285)" fill="#6f8ce9" stroke-width="59.559">
   <g fill="#6f8ce9" stroke-width="59.559">
    <path d="m486.41 221.41-364.07-208.5c-52.938-30.318-95.852-5.44-95.852 55.563v415.65c0 61.004 42.914 85.882 95.852 55.563l364.07-208.49c52.938-30.317 52.938-79.473 0-109.79z" fill="#6f8ce9" stroke-width="59.559"/>
   </g>
  </g>
  <g stroke-linecap="round" stroke-width=".26458">
   <g fill="#e8eaec" aria-label="master">
    <path d="m141.03 50.21h0.30374v-1.3039c0.16669-0.18521 0.31856-0.27781 0.45191-0.27781 0.22966 0 0.33708 0.14446 0.33708 0.48154v1.1001h0.30374v-1.3039c0.16669-0.18521 0.31115-0.27781 0.45191-0.27781 0.22595 0 0.33337 0.14446 0.33337 0.48154v1.1001h0.30374v-1.1409c0-0.45932-0.1778-0.70379-0.54821-0.70379-0.21855 0-0.40376 0.14076-0.59267 0.34449-0.0741-0.21484-0.22225-0.34449-0.49636-0.34449-0.21484 0-0.40375 0.13335-0.55933 0.30374h-0.0111l-0.0259-0.25929h-0.25188z"/>
    <path d="m144.01 49.743c0 0.32226 0.22596 0.51118 0.5297 0.51118 0.22225 0 0.42227-0.11853 0.59637-0.25929h7e-3l0.0259 0.21484h0.25188v-1.1038c0-0.4482-0.18521-0.74083-0.626-0.74083-0.28893 0-0.54081 0.12594-0.7075 0.23336l0.12224 0.21114c0.14076-0.09631 0.32596-0.19262 0.5371-0.19262 0.29263 0 0.37042 0.22225 0.37042 0.45191-0.76676 0.0852-1.1076 0.28152-1.1076 0.67416zm0.30004-0.02222c0-0.22966 0.20373-0.37782 0.80751-0.45191v0.50006c-0.1741 0.15558-0.31856 0.24077-0.49266 0.24077-0.1778 0-0.31485-0.0852-0.31485-0.28893z"/>
    <path d="m145.8 50.006c0.17039 0.14076 0.41487 0.24818 0.67045 0.24818 0.42598 0 0.65935-0.24448 0.65935-0.5371 0-0.34078-0.28893-0.4482-0.54822-0.54451-0.20373-0.07779-0.40005-0.14446-0.40005-0.31115 0-0.13705 0.10372-0.25929 0.32967-0.25929 0.15928 0 0.28893 0.06668 0.41116 0.15928l0.14447-0.19262c-0.13706-0.11113-0.33338-0.20373-0.55933-0.20373-0.38894 0-0.6186 0.22225-0.6186 0.51118 0 0.30374 0.28152 0.42598 0.5371 0.51858 0.19633 0.07408 0.41117 0.15558 0.41117 0.34078 0 0.15558-0.11854 0.28152-0.3556 0.28152-0.21484 0-0.37412-0.0889-0.5297-0.21484z"/>
    <path d="m147.6 49.654c0 0.3556 0.12964 0.60008 0.51488 0.60008 0.11112 0 0.23336-0.03334 0.33337-0.06668l-0.05927-0.22965c-0.0593 0.02222-0.14075 0.04815-0.20373 0.04815-0.20743 0-0.27781-0.12594-0.27781-0.34819v-1.0001h0.48525v-0.24818h-0.48525v-0.50376h-0.25559l-0.037 0.50377-0.28151 0.01852v0.22966h0.2667z"/>
    <path d="m148.63 49.314c0 0.58896 0.38153 0.94086 0.86307 0.94086 0.24448 0 0.43709-0.0852 0.59267-0.18521l-0.10742-0.20002c-0.13335 0.0852-0.27782 0.14076-0.44821 0.14076-0.34449 0-0.57785-0.24448-0.60007-0.63341h1.215c7e-3 -0.04445 0.0111-0.10372 0.0111-0.16669 0-0.51488-0.2593-0.84455-0.71861-0.84455-0.41117 0-0.80751 0.3593-0.80751 0.94827zm0.29633-0.13706c0.037-0.36301 0.2667-0.57044 0.51859-0.57044 0.28151 0 0.4445 0.20373 0.4445 0.57044z"/>
    <path d="m150.6 50.21h0.30375v-1.1557c0.12223-0.30374 0.30374-0.41487 0.45561-0.41487 0.0741 0 0.11483 0.01111 0.1741 0.02963l0.0593-0.2667c-0.0593-0.02593-0.11483-0.03704-0.19261-0.03704-0.20373 0-0.38894 0.14446-0.51118 0.37042h-0.0111l-0.0259-0.32597h-0.25197z"/>
   </g>
   <path d="m49.997 70.925-3.6947 2.1331-3.6947-2.1331v-4.2663l3.6947-2.1331 3.6947 2.1331z" fill="#1d232d" stroke="#6f8ce9"/>
   <g fill="#e8eaec" aria-label="BA">
    <path d="m48.803 74.505h0.77788c0.54081 0 0.91863-0.23336 0.91863-0.7112 0-0.33338-0.20743-0.52599-0.56303-0.58156v-0.01482c0.28892-0.07408 0.42598-0.28892 0.42598-0.5297 0-0.42598-0.34449-0.59267-0.83714-0.59267h-0.72231zm0.31115-1.3928v-0.79269h0.37412c0.37412 0 0.57044 0.11112 0.57044 0.37412 0 0.2704-0.1741 0.41857-0.58526 0.41857zm0 1.1483v-0.91863h0.42228c0.42598 0 0.65934 0.13705 0.65934 0.43709 0 0.32967-0.24448 0.48154-0.65934 0.48154z"/>
    <path d="m51.27 73.516 0.11853-0.37042c0.0852-0.2704 0.16298-0.5371 0.24077-0.81862h0.01482c0.07779 0.28152 0.15558 0.54822 0.24077 0.81862l0.11483 0.37042zm1.0409 0.98901h0.32597l-0.82233-2.4299h-0.34819l-0.82233 2.4299h0.31486l0.23336-0.74083h0.8853z"/>
   </g>
  </g>
 </g>
 <path d="m66.395 68.924h-14.982" fill="none" stroke="#7b8694" stroke-linecap="round" stroke-width=".26458"/>
 <g>
  <g transform="matrix(-.0044048 0 0 -.0044802 52.415 70.129)" fill="#7b8694" stroke-width="59.559">
   <g fill="#7b8694" stroke-width="59.559">
    <path d="m486.41 221.41-364.07-208.5c-52.938-30.318-95.852-5.44-95.852 55.563v415.65c0 61.004 42.914 85.882 95.852 55.563l364.07-208.49c52.938-30.317 52.938-79.473 0-109.79z" fill="#7b8694" stroke-width="59.559"/>
   </g>
  </g>
  <g stroke-width=".26458">
   <g stroke-linecap="round">
    <path d="m73.809 70.925-3.6947 2.1331-3.6947-2.1331v-4.2663l3.6947-2.1331 3.6947 2.1331z" fill="#1d232d" stroke="#6f8ce9"/>
    <g fill="#e8eaec" aria-label="#a8c">
     <path d="m67.07 63.657h0.20003l0.0926-0.75565h0.48895l-0.0889 0.75565h0.19632l0.0926-0.75565h0.34078v-0.21114h-0.31485l0.06668-0.54822h0.32226v-0.21484h-0.30004l0.0889-0.67786h-0.19632l-0.0889 0.67786h-0.49266l0.0852-0.67786h-0.19632l-0.0852 0.67786h-0.34078v0.21484h0.31486l-0.06668 0.54822h-0.32226v0.21114h0.29633zm0.31856-0.96679 0.06668-0.54822h0.48895l-0.06668 0.54822z"/>
     <path d="m68.789 63.19c0 0.32226 0.22595 0.51118 0.5297 0.51118 0.22225 0 0.42228-0.11853 0.59637-0.25929h0.0074l0.02593 0.21484h0.25188v-1.1038c0-0.4482-0.18521-0.74083-0.626-0.74083-0.28893 0-0.54081 0.12594-0.7075 0.23336l0.12224 0.21114c0.14076-0.09631 0.32597-0.19262 0.5371-0.19262 0.29263 0 0.37042 0.22225 0.37042 0.45191-0.76676 0.0852-1.1075 0.28152-1.1075 0.67416zm0.30004-0.02222c0-0.22966 0.20373-0.37782 0.80751-0.45191v0.50006c-0.1741 0.15558-0.31856 0.24077-0.49265 0.24077-0.1778 0-0.31486-0.0852-0.31486-0.28893z"/>
     <path d="m70.896 63.023c0-0.21484 0.14076-0.38894 0.32967-0.51488 0.34078 0.13705 0.64082 0.24818 0.64082 0.55192 0 0.24448-0.18891 0.41487-0.46302 0.41487-0.28892 0-0.50747-0.18891-0.50747-0.45191zm0.66675-0.65564c-0.28522-0.11113-0.54451-0.22966-0.54451-0.51118 0-0.22966 0.16298-0.38153 0.38153-0.38153 0.25929 0 0.41116 0.18521 0.41116 0.41857 0 0.1741-0.0889 0.33338-0.24818 0.47413zm-0.94086 0.68527c0 0.37412 0.32967 0.64823 0.77417 0.64823 0.45932 0 0.76306-0.27781 0.76306-0.62971 0-0.31856-0.20003-0.48525-0.41116-0.60748v-0.01482c0.14446-0.11112 0.32597-0.32226 0.32597-0.57044 0-0.36671-0.25559-0.62971-0.66675-0.62971-0.38153 0-0.67046 0.24448-0.67046 0.60748 0 0.24818 0.15558 0.42228 0.32967 0.54451v0.01482c-0.22225 0.11853-0.4445 0.32967-0.4445 0.63712z"/>
     <path d="m72.478 62.76c0 0.59637 0.36671 0.94086 0.84455 0.94086 0.21484 0 0.42228-0.0889 0.58526-0.23336l-0.13705-0.20002c-0.10742 0.09631-0.25188 0.1815-0.42228 0.1815-0.32967 0-0.55562-0.27781-0.55562-0.68898 0-0.41487 0.23707-0.69638 0.56303-0.69638 0.14446 0 0.25559 0.06668 0.36301 0.15928l0.15187-0.19632c-0.12224-0.11483-0.28892-0.21484-0.52599-0.21484-0.46302 0-0.86678 0.34449-0.86678 0.94827z"/>
    </g>
    <g fill="#e8eaec" aria-label="BB">
     <path d="m72.615 74.505h0.77788c0.54081 0 0.91863-0.23336 0.91863-0.7112 0-0.33338-0.20743-0.52599-0.56303-0.58156v-0.01482c0.28893-0.07408 0.42598-0.28892 0.42598-0.5297 0-0.42598-0.34449-0.59267-0.83714-0.59267h-0.72231zm0.31115-1.3928v-0.79269h0.37412c0.37412 0 0.57044 0.11112 0.57044 0.37412 0 0.2704-0.1741 0.41857-0.58526 0.41857zm0 1.1483v-0.91863h0.42228c0.42598 0 0.65934 0.13705 0.65934 0.43709 0 0.32967-0.24448 0.48154-0.65934 0.48154z"/>
     <path d="m74.779 74.505h0.77788c0.54081 0 0.91863-0.23336 0.91863-0.7112 0-0.33338-0.20743-0.52599-0.56303-0.58156v-0.01482c0.28892-0.07408 0.42598-0.28892 0.42598-0.5297 0-0.42598-0.34449-0.59267-0.83714-0.59267h-0.72231zm0.31115-1.3928v-0.79269h0.37412c0.37412 0 0.57044 0.11112 0.57044 0.37412 0 0.2704-0.1741 0.41857-0.58526 0.41857zm0 1.1483v-0.91863h0.42228c0.42598 0 0.65934 0.13705 0.65934 0.43709 0 0.32967-0.24448 0.48154-0.65934 0.48154z"/>
    </g>
   </g>
   <path d="m92.869 66.306c-1.4502 0-2.6177 1.1675-2.6177 2.6177 0 1.4502 1.1675 2.6177 2.6177 2.6177h8.4667c1.4502 0 2.6177-1.1675 2.6177-2.6177 0-1.4502-1.1675-2.6177-2.6177-2.6177z" fill="#1d232d" stroke="#7893ea"/>
  </g>
 </g>
 <path d="m90.208 68.924h-14.982" fill="none" stroke="#6f8ce9" stroke-linecap="round" stroke-width=".26458"/>
 <g transform="matrix(-.0044048 0 0 -.0044802 76.227 70.129)" fill="#6f8ce9" stroke-width="59.559">
  <g fill="#6f8ce9" stroke-width="59.559">
   <path d="m486.41 221.41-364.07-208.5c-52.938-30.318-95.852-5.44-95.852 55.563v415.65c0 61.004 42.914 85.882 95.852 55.563l364.07-208.49c52.938-30.317 52.938-79.473 0-109.79z" fill="#6f8ce9" stroke-width="59.559"/>
  </g>
 </g>
 <g fill="#e8eaec" stroke-linecap="round" stroke-width=".26458" aria-label="hotfix">
  <path d="m93.143 70.054h0.30374v-1.3039c0.1815-0.1815 0.30745-0.27781 0.49265-0.27781 0.23707 0 0.34078 0.14446 0.34078 0.48154v1.1001h0.30374v-1.1409c0-0.45932-0.17039-0.70379-0.54822-0.70379-0.24818 0-0.42968 0.13335-0.60008 0.29633l0.01111-0.37042v-0.71861h-0.30374z"/>
  <path d="m95.028 69.157c0 0.59637 0.39264 0.94086 0.83344 0.94086s0.83344-0.34449 0.83344-0.94086c0-0.60378-0.39264-0.94827-0.83344-0.94827s-0.83344 0.34449-0.83344 0.94827zm0.31485 0c0-0.41487 0.21114-0.69638 0.51858-0.69638 0.31115 0 0.51858 0.28152 0.51858 0.69638 0 0.41116-0.20743 0.68898-0.51858 0.68898-0.30745 0-0.51858-0.27781-0.51858-0.68898z"/>
  <path d="m97.224 69.498c0 0.3556 0.12965 0.60008 0.51488 0.60008 0.11113 0 0.23336-0.03334 0.33338-0.06668l-0.05927-0.22966c-0.05927 0.02222-0.14076 0.04815-0.20373 0.04815-0.20743 0-0.27781-0.12594-0.27781-0.34819v-1.0001h0.48525v-0.24818h-0.48524v-0.50376h-0.25559l-0.03704 0.50377-0.28152 0.01852v0.22966h0.2667z"/>
  <path d="m99.302 67.431c-0.08149-0.03334-0.18891-0.05927-0.30004-0.05927-0.3593 0-0.52599 0.22966-0.52599 0.59637v0.28522l-0.24448 0.01852v0.22966h0.24448v1.552h0.30374v-1.552h0.38153v-0.24818h-0.38153v-0.28522c0-0.22966 0.08149-0.34819 0.25188-0.34819 0.06667 0 0.13706 0.01482 0.20373 0.04445z"/>
  <path d="m99.665 67.883c0.11853 0 0.21114-0.08149 0.21114-0.19632 0-0.11853-0.0926-0.19632-0.21114-0.19632-0.11853 0-0.21114 0.07779-0.21114 0.19632 0 0.11483 0.0926 0.19632 0.21114 0.19632zm-0.15558 2.1706h0.30374v-1.8002h-0.30374z"/>
  <path d="m100.17 70.054h0.31856l0.24447-0.41857c0.0593-0.11112 0.11854-0.21855 0.18151-0.32226h0.0148c0.0667 0.10372 0.13335 0.21484 0.19632 0.32226l0.263 0.41857h0.32967l-0.58526-0.90752 0.54452-0.8927h-0.31856l-0.21855 0.39635c-0.0556 0.09631-0.11112 0.20003-0.16298 0.30004h-0.0148c-0.063-0.10001-0.12224-0.20373-0.1778-0.30004l-0.24077-0.39635h-0.32967l0.54451 0.85937z"/>
 </g>
 <path d="m46.286 64.274v-9.6904" fill="none" stroke="#7b8694" stroke-linecap="round" stroke-width=".26458"/>
 <g>
  <g transform="matrix(0 -.0044048 .0044802 0 45.082 55.585)" fill="#7b8694" stroke-width="59.559">
   <g fill="#7b8694" stroke-width="59.559">
    <path d="m486.41 221.41-364.07-208.5c-52.938-30.318-95.852-5.44-95.852 55.563v415.65c0 61.004 42.914 85.882 95.852 55.563l364.07-208.49c52.938-30.317 52.938-79.473 0-109.79z" fill="#7b8694" stroke-width="59.559"/>
   </g>
  </g>
  <g stroke-linecap="round" stroke-width=".26458">
   <g fill="#e8eaec" aria-label="#468">
    <path d="m43.258 63.657h0.20003l0.0926-0.75565h0.48895l-0.0889 0.75565h0.19632l0.0926-0.75565h0.34078v-0.21114h-0.31485l0.06667-0.54822h0.32226v-0.21484h-0.30004l0.0889-0.67786h-0.19632l-0.0889 0.67786h-0.49266l0.0852-0.67786h-0.19632l-0.0852 0.67786h-0.34078v0.21484h0.31486l-0.06667 0.54822h-0.32226v0.21114h0.29633zm0.31856-0.96679 0.06668-0.54822h0.48895l-0.06667 0.54822z"/>
    <path d="m45.147 62.76 0.55192-0.80751c0.06667-0.11483 0.13335-0.21855 0.19262-0.33338h0.01482c-0.0074 0.12594-0.01852 0.32967-0.01852 0.45561v0.68527zm1.352 0h-0.32226v-1.4669h-0.34078l-1.0112 1.5113v0.20002h1.0631v0.65193h0.28893v-0.65193h0.32226z"/>
    <path d="m47.592 63.46c-0.30004 0-0.48154-0.24818-0.51858-0.7075 0.15928-0.22225 0.34449-0.31115 0.49266-0.31115 0.29263 0 0.43709 0.19262 0.43709 0.50006 0 0.31115-0.1778 0.51858-0.41116 0.51858zm0.65564-1.9595c-0.13335-0.14446-0.31486-0.25188-0.57044-0.25188-0.47043 0-0.90011 0.36671-0.90011 1.315 0 0.75935 0.3519 1.1372 0.81492 1.1372 0.38153 0 0.70009-0.30745 0.70009-0.75936 0-0.48525-0.2667-0.72972-0.67416-0.72972-0.19262 0-0.40375 0.11483-0.55192 0.29633 0.01482-0.74824 0.29263-1.0038 0.6223-1.0038 0.14817 0 0.29263 0.07038 0.38894 0.18521z"/>
    <path d="m48.863 63.023c0-0.21484 0.14076-0.38894 0.32967-0.51488 0.34078 0.13705 0.64082 0.24818 0.64082 0.55192 0 0.24448-0.18891 0.41487-0.46302 0.41487-0.28892 0-0.50747-0.18891-0.50747-0.45191zm0.66675-0.65564c-0.28522-0.11113-0.54451-0.22966-0.54451-0.51118 0-0.22966 0.16298-0.38153 0.38153-0.38153 0.25929 0 0.41116 0.18521 0.41116 0.41857 0 0.1741-0.0889 0.33338-0.24818 0.47413zm-0.94086 0.68527c0 0.37412 0.32967 0.64823 0.77417 0.64823 0.45932 0 0.76306-0.27781 0.76306-0.62971 0-0.31856-0.20003-0.48525-0.41116-0.60748v-0.01482c0.14446-0.11112 0.32597-0.32226 0.32597-0.57044 0-0.36671-0.25559-0.62971-0.66675-0.62971-0.38153 0-0.67046 0.24448-0.67046 0.60748 0 0.24818 0.15558 0.42228 0.32967 0.54451v0.01482c-0.22225 0.11853-0.4445 0.32967-0.4445 0.63712z"/>
   </g>
   <g fill="#fff" aria-label="MAIN">
    <path d="m4.1672 6.7257h0.50377v-0.8853c0-0.23707-0.04445-0.58896-0.070379-0.82233h0.014817l0.19262 0.55933 0.37042 0.93716h0.21855l0.37412-0.93716 0.19632-0.55933h0.014817c-0.025929 0.23336-0.070379 0.58526-0.070379 0.82233v0.8853h0.51118v-2.4151h-0.57785l-0.39264 1.0853-0.14446 0.42228h-0.014817l-0.14446-0.42228-0.40375-1.0853h-0.57785z"/>
    <path d="m7.4962 5.7256 0.059267-0.22225c0.066675-0.24077 0.13335-0.52229 0.18891-0.77788h0.014817c0.066675 0.25188 0.12965 0.5371 0.19632 0.77788l0.059267 0.22225zm0.77788 1.0001h0.57785l-0.75935-2.4151h-0.65193l-0.75935 2.4151h0.55563l0.14817-0.57415h0.74083z"/>
    <path d="m9.1012 6.7257h0.54822v-2.4151h-0.54822z"/>
    <path d="m10.215 6.7257h0.52229v-0.85566c0-0.28522-0.04445-0.60748-0.07038-0.87418h0.01482l0.23707 0.52599 0.62971 1.2039h0.55933v-2.4151h-0.51858v0.85196c0 0.28522 0.04445 0.626 0.07038 0.88159h-0.01482l-0.24077-0.5334-0.62971-1.2002h-0.55933z"/>
   </g>
   <g fill="#fff" aria-label="HOTFIX">
    <path d="m4.1672 38.476h0.54822v-1.0075h0.83344v1.0075h0.54451v-2.4151h-0.54451v0.92975h-0.83344v-0.92975h-0.54822z"/>
    <path d="m7.6375 38.52c0.65193 0 1.0964-0.47413 1.0964-1.2631 0-0.78528-0.4445-1.2409-1.0964-1.2409-0.64823 0-1.0964 0.45191-1.0964 1.2409s0.4482 1.2631 1.0964 1.2631zm0-0.47043c-0.32597 0-0.5371-0.30745-0.5371-0.79269 0-0.48154 0.21114-0.77047 0.5371-0.77047 0.32967 0 0.5371 0.28892 0.5371 0.77047 0 0.48525-0.20743 0.79269-0.5371 0.79269z"/>
    <path d="m9.5898 38.476h0.54451v-1.9558h0.66305v-0.45932h-1.8743v0.45932h0.66675z"/>
    <path d="m11.17 38.476h0.54822v-0.93716h0.83344v-0.45932h-0.83344v-0.55933h0.9779v-0.45932h-1.5261z"/>
    <path d="m13.109 38.476h0.54822v-2.4151h-0.54822z"/>
    <path d="m13.983 38.476h0.58155l0.22596-0.49266c0.05556-0.12594 0.10742-0.24818 0.16669-0.39635h0.01482c0.06297 0.14817 0.11853 0.2704 0.1815 0.39635l0.23707 0.49266h0.60748l-0.66675-1.215 0.626-1.2002h-0.58155l-0.19262 0.45561c-0.04815 0.11112-0.09631 0.23707-0.15187 0.38894h-0.01482c-0.07038-0.15187-0.12224-0.27781-0.1778-0.38894l-0.20743-0.45561h-0.61119l0.62971 1.1742z"/>
   </g>
  </g>
 </g>
</svg>
