<?xml version="1.0" encoding="UTF-8"?>
<svg width="57.764mm" height="27.517mm" version="1.1" viewBox="0 0 57.764 27.517" xmlns="http://www.w3.org/2000/svg" xmlns:cc="http://creativecommons.org/ns#" xmlns:dc="http://purl.org/dc/elements/1.1/" xmlns:rdf="http://www.w3.org/1999/02/22-rdf-syntax-ns#">
 <metadata>
  <rdf:RDF>
   <cc:Work rdf:about="">
    <dc:format>image/svg+xml</dc:format>
    <dc:type rdf:resource="http://purl.org/dc/dcmitype/StillImage"/>
    <dc:title/>
   </cc:Work>
  </rdf:RDF>
 </metadata>
 <g transform="translate(-71.61 -90.626)">
  <path d="m79.103 101.73h5.2917l6.6146-10.583 2.6458 6.6146h3.9688" fill="none" stroke="#6f8ce9" stroke-width=".26458"/>
  <g fill="#e9e56f">
   <circle cx="91.024" cy="91.155" r=".52917"/>
   <circle cx="93.669" cy="97.77" r=".52917"/>
   <circle cx="84.409" cy="101.74" r=".52917"/>
  </g>
  <g fill="#e8eaec" stroke-linecap="round" stroke-width=".26458" aria-label="Adventure Games">
   <path d="m72.189 96.502 0.08467-0.26458c0.06085-0.19315 0.11642-0.38365 0.17198-0.58473h0.01058c0.05556 0.20108 0.11112 0.39158 0.17198 0.58473l0.08202 0.26458zm0.74348 0.70644h0.23283l-0.58737-1.7357h-0.24871l-0.58738 1.7357h0.2249l0.16669-0.52917h0.63235z"/>
   <path d="m73.287 96.568c0 0.42862 0.20902 0.67204 0.53181 0.67204 0.15081 0 0.2884-0.08467 0.38894-0.18256h0.0079l0.01852 0.15081h0.17992v-1.8838h-0.2196v0.49477l0.01058 0.2196c-0.11377-0.0926-0.21167-0.14817-0.35983-0.14817-0.29369 0-0.55827 0.25929-0.55827 0.67733zm0.2249-0.0026c0-0.29369 0.16404-0.49212 0.37042-0.49212 0.10583 0 0.20373 0.03704 0.31221 0.13494v0.67204c-0.10583 0.11906-0.20902 0.17727-0.32808 0.17727-0.2249 0-0.35454-0.18521-0.35454-0.49212z"/>
   <path d="m75.125 97.209h0.254l0.45508-1.2859h-0.21431l-0.24342 0.73025c-0.03704 0.127-0.07937 0.25664-0.11642 0.37835h-0.01058c-0.03969-0.12171-0.08202-0.25135-0.11906-0.37835l-0.24342-0.73025h-0.2249z"/>
   <path d="m75.977 96.568c0 0.42069 0.27252 0.67204 0.61648 0.67204 0.17462 0 0.31221-0.06085 0.42333-0.13229l-0.07673-0.14288c-0.09525 0.06085-0.19844 0.10054-0.32014 0.10054-0.24606 0-0.41275-0.17462-0.42862-0.45244h0.86783c0.0053-0.03175 0.0079-0.07408 0.0079-0.11906 0-0.36777-0.18521-0.60325-0.51329-0.60325-0.29369 0-0.57679 0.25664-0.57679 0.67733zm0.21167-0.09789c0.02646-0.25929 0.1905-0.40746 0.37042-0.40746 0.20108 0 0.3175 0.14552 0.3175 0.40746z"/>
   <path d="m77.385 97.209h0.21696v-0.93133c0.12964-0.12965 0.2196-0.19844 0.3519-0.19844 0.16933 0 0.24342 0.10319 0.24342 0.34396v0.78581h0.21696v-0.81492c0-0.32808-0.12171-0.50271-0.39158-0.50271-0.17727 0-0.30956 0.09525-0.43127 0.21696h-0.0079l-0.01852-0.18521h-0.17992z"/>
   <path d="m78.869 96.812c0 0.254 0.0926 0.42862 0.36777 0.42862 0.07937 0 0.16669-0.02381 0.23812-0.04763l-0.04233-0.16404c-0.04233 0.01588-0.10054 0.0344-0.14552 0.0344-0.14817 0-0.19844-0.08996-0.19844-0.24871v-0.71437h0.3466v-0.17727h-0.34661v-0.35983h-0.18256l-0.02646 0.35983-0.20108 0.01323v0.16404h0.1905z"/>
   <path d="m79.692 96.738c0 0.32808 0.12171 0.50271 0.39423 0.50271 0.17727 0 0.30427-0.0926 0.42333-0.23283h0.0079l0.01852 0.20108h0.17992v-1.2859h-0.21692v0.91281c-0.12171 0.15081-0.21431 0.21696-0.3466 0.21696-0.16933 0-0.24077-0.10319-0.24077-0.34396v-0.78581h-0.2196z"/>
   <path d="m81.152 97.209h0.21696v-0.8255c0.08731-0.21696 0.21696-0.29633 0.32544-0.29633 0.05292 0 0.08202 0.0079 0.12435 0.02117l0.04233-0.1905c-0.04233-0.01852-0.08202-0.02646-0.13758-0.02646-0.14552 0-0.27781 0.10319-0.36512 0.26458h-0.0079l-0.01852-0.23283h-0.17992z"/>
   <path d="m81.951 96.568c0 0.42069 0.27252 0.67204 0.61648 0.67204 0.17462 0 0.31221-0.06085 0.42333-0.13229l-0.07673-0.14288c-0.09525 0.06085-0.19844 0.10054-0.32015 0.10054-0.24606 0-0.41275-0.17462-0.42862-0.45244h0.86783c0.0053-0.03175 0.0079-0.07408 0.0079-0.11906 0-0.36777-0.18521-0.60325-0.51329-0.60325-0.29369 0-0.57679 0.25664-0.57679 0.67733zm0.21167-0.09789c0.02646-0.25929 0.1905-0.40746 0.37042-0.40746 0.20108 0 0.3175 0.14552 0.3175 0.40746z"/>
   <path d="m71.872 99.674c0 0.5662 0.32544 0.89958 0.78052 0.89958 0.23283 0 0.42598-0.09 0.53975-0.20109v-0.73024h-0.56885v0.18256h0.36777v0.45243c-0.06879 0.0635-0.1905 0.10319-0.31485 0.10319-0.37042 0-0.57679-0.27516-0.57679-0.71173 0-0.43127 0.2249-0.70114 0.57679-0.70114 0.17198 0 0.28046 0.06879 0.36777 0.1614l0.127-0.14023c-0.10319-0.10583-0.26194-0.21431-0.49742-0.21431-0.46567 0-0.80169 0.34131-0.80169 0.89958z"/>
   <path d="m73.513 100.21c0 0.23019 0.1614 0.36513 0.37835 0.36513 0.15875 0 0.30162-0.0847 0.42598-0.18521h0.0053l0.01852 0.15346h0.17992v-0.78846c0-0.32014-0.13229-0.52917-0.44714-0.52917-0.20638 0-0.38629 0.08996-0.50535 0.16669l0.08731 0.15081c0.10054-0.06879 0.23283-0.13758 0.38364-0.13758 0.20902 0 0.26458 0.15875 0.26458 0.32279-0.54769 0.06085-0.7911 0.20108-0.7911 0.48154zm0.21431-0.0159c0-0.16404 0.14552-0.26988 0.57679-0.32279v0.35718c-0.12435 0.11113-0.22754 0.17198-0.3519 0.17198-0.127 0-0.2249-0.0609-0.2249-0.20637z"/>
   <path d="m74.93 100.54h0.21696v-0.93133c0.11906-0.13229 0.22754-0.19844 0.32279-0.19844 0.16404 0 0.24077 0.10319 0.24077 0.34396v0.78581h0.21696v-0.93133c0.11906-0.13229 0.22225-0.19844 0.32279-0.19844 0.1614 0 0.23812 0.10319 0.23812 0.34396v0.78581h0.21696v-0.81492c0-0.32808-0.127-0.50271-0.39158-0.50271-0.1561 0-0.2884 0.10054-0.42333 0.24606-0.05292-0.15346-0.15875-0.24606-0.35454-0.24606-0.15346 0-0.2884 0.09525-0.39952 0.21696h-0.0079l-0.01852-0.18521h-0.17992z"/>
   <path d="m77.026 99.902c0 0.42068 0.27252 0.67204 0.61648 0.67204 0.17462 0 0.31221-0.0609 0.42333-0.13229l-0.07673-0.14288c-0.09525 0.0609-0.19844 0.10054-0.32015 0.10054-0.24606 0-0.41275-0.17462-0.42862-0.45243h0.86783c0.0053-0.03175 0.0079-0.07408 0.0079-0.11906 0-0.36777-0.18521-0.60325-0.51329-0.60325-0.29369 0-0.57679 0.25665-0.57679 0.67733zm0.21167-0.0979c0.02646-0.25929 0.1905-0.40746 0.37042-0.40746 0.20108 0 0.3175 0.14552 0.3175 0.40746z"/>
   <path d="m78.291 100.4c0.12171 0.10054 0.29633 0.17727 0.4789 0.17727 0.30427 0 0.47096-0.17463 0.47096-0.38365 0-0.24341-0.20638-0.32014-0.39158-0.38894-0.14552-0.05556-0.28575-0.10319-0.28575-0.22225 0-0.0979 0.07408-0.18521 0.23548-0.18521 0.11377 0 0.20637 0.04763 0.29369 0.11377l0.10319-0.13758c-0.0979-0.07937-0.23812-0.14552-0.39952-0.14552-0.27781 0-0.44185 0.15875-0.44185 0.36512 0 0.21696 0.20108 0.30427 0.38364 0.37042 0.14023 0.05291 0.29369 0.11112 0.29369 0.24342 0 0.11113-0.08467 0.20108-0.254 0.20108-0.15346 0-0.26723-0.0635-0.37835-0.15345z"/>
  </g>
  <path d="m79.103 117.61h2.1167l9.7896-10.583 0.79375 6.6146h1.3229" fill="none" stroke="#6f8ce9" stroke-width=".26458"/>
  <g fill="#e9e56f">
   <circle cx="91.024" cy="107.03" r=".52917"/>
   <circle cx="91.817" cy="113.64" r=".52917"/>
   <circle cx="81.234" cy="117.61" r=".52917"/>
  </g>
  <g fill="#e8eaec" stroke-linecap="round" stroke-width=".26458" aria-label="Action Games">
   <path d="m72.189 112.38 0.08467-0.26459c0.06085-0.19314 0.11642-0.38364 0.17198-0.58473h0.01058c0.05556 0.20109 0.11112 0.39159 0.17198 0.58473l0.08202 0.26459zm0.74348 0.70643h0.23283l-0.58737-1.7357h-0.24871l-0.58738 1.7357h0.2249l0.16669-0.52916h0.63235z"/>
   <path d="m73.285 112.44c0 0.42598 0.26194 0.67204 0.60325 0.67204 0.15346 0 0.30162-0.0635 0.41804-0.16669l-0.0979-0.14287c-0.07673 0.0688-0.17992 0.12965-0.30162 0.12965-0.23548 0-0.39688-0.19844-0.39688-0.49213 0-0.29633 0.16933-0.49741 0.40217-0.49741 0.10319 0 0.18256 0.0476 0.25929 0.11377l0.10848-0.14023c-0.08731-0.082-0.20638-0.15346-0.37571-0.15346-0.33073 0-0.61912 0.24606-0.61912 0.67733z"/>
   <path d="m74.621 112.69c0 0.254 0.0926 0.42862 0.36777 0.42862 0.07937 0 0.16669-0.0238 0.23812-0.0476l-0.04233-0.16404c-0.04233 0.0159-0.10054 0.0344-0.14552 0.0344-0.14817 0-0.19844-0.09-0.19844-0.24871v-0.71437h0.3466v-0.17727h-0.34661v-0.35986h-0.18256l-0.02646 0.35983-0.20108 0.0132v0.16404h0.1905z"/>
   <path d="m75.589 111.53c0.08467 0 0.15081-0.0582 0.15081-0.14023 0-0.0847-0.06615-0.14023-0.15081-0.14023-0.08467 0-0.15081 0.0556-0.15081 0.14023 0 0.082 0.06614 0.14023 0.15081 0.14023zm-0.11112 1.5504h0.21696v-1.2859h-0.21696z"/>
   <path d="m76.034 112.44c0 0.42598 0.28046 0.67204 0.59531 0.67204s0.59531-0.24606 0.59531-0.67204c0-0.43127-0.28046-0.67733-0.59531-0.67733s-0.59531 0.24606-0.59531 0.67733zm0.2249 0c0-0.29633 0.15081-0.49741 0.37042-0.49741 0.22225 0 0.37042 0.20108 0.37042 0.49741 0 0.29369-0.14817 0.49213-0.37042 0.49213-0.2196 0-0.37042-0.19844-0.37042-0.49213z"/>
   <path d="m77.566 113.08h0.21696v-0.93133c0.12965-0.12965 0.2196-0.19844 0.3519-0.19844 0.16933 0 0.24342 0.10319 0.24342 0.34396v0.78581h0.21696v-0.81491c0-0.32809-0.12171-0.50271-0.39158-0.50271-0.17727 0-0.30956 0.0952-0.43127 0.21696h-0.0079l-0.01852-0.18521h-0.17992z"/>
   <path d="m71.872 115.55c0 0.5662 0.32544 0.89958 0.78052 0.89958 0.23283 0 0.42598-0.09 0.53975-0.20109v-0.73024h-0.56885v0.18256h0.36777v0.45243c-0.06879 0.0635-0.1905 0.10319-0.31485 0.10319-0.37042 0-0.57679-0.27516-0.57679-0.71173 0-0.43127 0.2249-0.70114 0.57679-0.70114 0.17198 0 0.28046 0.0688 0.36777 0.16139l0.127-0.14022c-0.10319-0.10584-0.26194-0.21432-0.49742-0.21432-0.46567 0-0.80169 0.34132-0.80169 0.89959z"/>
   <path d="m73.513 116.08c0 0.23019 0.1614 0.36513 0.37835 0.36513 0.15875 0 0.30162-0.0847 0.42598-0.18521h0.0053l0.01852 0.15346h0.17992v-0.78846c0-0.32015-0.13229-0.52917-0.44714-0.52917-0.20638 0-0.38629 0.09-0.50535 0.16669l0.08731 0.15081c0.10054-0.0688 0.23283-0.13758 0.38364-0.13758 0.20902 0 0.26458 0.15875 0.26458 0.32279-0.54769 0.0609-0.7911 0.20109-0.7911 0.48154zm0.21431-0.0159c0-0.16404 0.14552-0.26988 0.57679-0.32279v0.35718c-0.12435 0.11113-0.22754 0.17198-0.3519 0.17198-0.127 0-0.2249-0.0609-0.2249-0.20637z"/>
   <path d="m74.93 116.42h0.21696v-0.93133c0.11906-0.1323 0.22754-0.19844 0.32279-0.19844 0.16404 0 0.24077 0.10319 0.24077 0.34396v0.78581h0.21696v-0.93133c0.11906-0.1323 0.22225-0.19844 0.32279-0.19844 0.1614 0 0.23812 0.10319 0.23812 0.34396v0.78581h0.21696v-0.81492c0-0.32808-0.127-0.50271-0.39158-0.50271-0.1561 0-0.2884 0.10055-0.42333 0.24607-0.05292-0.15346-0.15875-0.24607-0.35454-0.24607-0.15346 0-0.2884 0.0953-0.39952 0.21696h-0.0079l-0.01852-0.18521h-0.17992z"/>
   <path d="m77.026 115.78c0 0.42068 0.27252 0.67204 0.61648 0.67204 0.17462 0 0.31221-0.0609 0.42333-0.13229l-0.07673-0.14288c-0.09525 0.0609-0.19844 0.10054-0.32015 0.10054-0.24606 0-0.41275-0.17462-0.42862-0.45243h0.86783c0.0053-0.0318 0.0079-0.0741 0.0079-0.11907 0-0.36777-0.18521-0.60325-0.51329-0.60325-0.29369 0-0.57679 0.25665-0.57679 0.67734zm0.21167-0.0979c0.02646-0.25929 0.1905-0.40746 0.37042-0.40746 0.20108 0 0.3175 0.14552 0.3175 0.40746z"/>
   <path d="m78.291 116.27c0.12171 0.10054 0.29633 0.17727 0.4789 0.17727 0.30427 0 0.47096-0.17463 0.47096-0.38365 0-0.24341-0.20638-0.32014-0.39158-0.38893-0.14552-0.0556-0.28575-0.10319-0.28575-0.22225 0-0.0979 0.07408-0.18521 0.23548-0.18521 0.11377 0 0.20637 0.0476 0.29369 0.11377l0.10319-0.13758c-0.0979-0.0794-0.23812-0.14553-0.39952-0.14553-0.27781 0-0.44185 0.15875-0.44185 0.36513 0 0.21696 0.20108 0.30427 0.38364 0.37042 0.14023 0.0529 0.29369 0.11112 0.29369 0.24341 0 0.11113-0.08467 0.20108-0.254 0.20108-0.15346 0-0.26723-0.0635-0.37835-0.15345z"/>
  </g>
  <path d="m110.85 101.73h5.2917l6.6146-10.583 2.6458 6.6146h3.9688" fill="none" stroke="#6f8ce9" stroke-width=".26458"/>
  <g>
   <circle cx="122.77" cy="91.155" r=".52917" fill="#e9e56f"/>
   <circle cx="125.42" cy="97.77" r=".52917" fill="#e9e56f"/>
   <g fill="#e8eaec" stroke-linecap="round" stroke-width=".26458" aria-label="RPG Games">
    <path d="m103.94 95.65h0.29105c0.26987 0 0.41804 0.08202 0.41804 0.30956 0 0.2249-0.14817 0.33602-0.41804 0.33602h-0.29105zm0.98161 1.5584-0.44186-0.75671c0.23548-0.06085 0.38894-0.22225 0.38894-0.49212 0-0.35983-0.254-0.48683-0.60589-0.48683h-0.54505v1.7357h0.22225v-0.7329h0.31221l0.41804 0.7329z"/>
    <path d="m105.25 97.209h0.22225v-0.68792h0.3122c0.37836 0 0.6403-0.17198 0.6403-0.5371 0-0.381-0.25665-0.51064-0.6403-0.51064h-0.53445zm0.22225-0.86783v-0.69056h0.2831c0.29898 0 0.44979 0.08202 0.44979 0.33338 0 0.24606-0.14552 0.35719-0.44979 0.35719z"/>
    <path d="m106.65 96.341c0 0.56621 0.32543 0.89958 0.78052 0.89958 0.23283 0 0.42597-0.08996 0.53974-0.20108v-0.73025h-0.56885v0.18256h0.36777v0.45244c-0.0688 0.0635-0.1905 0.10319-0.31485 0.10319-0.37042 0-0.57679-0.27517-0.57679-0.71173 0-0.43127 0.22489-0.70114 0.57679-0.70114 0.17198 0 0.28046 0.06879 0.36777 0.1614l0.127-0.14023c-0.10319-0.10583-0.26194-0.21431-0.49742-0.21431-0.46566 0-0.80168 0.34131-0.80168 0.89958z"/>
    <path d="m103.62 99.674c0 0.5662 0.32544 0.89958 0.78052 0.89958 0.23284 0 0.42598-0.09 0.53975-0.20109v-0.73024h-0.56885v0.18256h0.36777v0.45243c-0.0688 0.0635-0.1905 0.10319-0.31485 0.10319-0.37042 0-0.5768-0.27516-0.5768-0.71173 0-0.43127 0.2249-0.70114 0.5768-0.70114 0.17197 0 0.28045 0.06879 0.36777 0.1614l0.127-0.14023c-0.10319-0.10583-0.26194-0.21431-0.49742-0.21431-0.46567 0-0.80169 0.34131-0.80169 0.89958z"/>
    <path d="m105.26 100.21c0 0.23019 0.16139 0.36513 0.37835 0.36513 0.15875 0 0.30162-0.0847 0.42598-0.18521h5e-3l0.0185 0.15346h0.17992v-0.78846c0-0.32014-0.13229-0.52917-0.44715-0.52917-0.20637 0-0.38629 0.08996-0.50535 0.16669l0.0873 0.15081c0.10054-0.06879 0.23283-0.13758 0.38365-0.13758 0.20902 0 0.26458 0.15875 0.26458 0.32279-0.54769 0.06085-0.7911 0.20108-0.7911 0.48154zm0.21431-0.0159c0-0.16404 0.14552-0.26988 0.57679-0.32279v0.35718c-0.12436 0.11113-0.22754 0.17198-0.3519 0.17198-0.127 0-0.22489-0.0609-0.22489-0.20637z"/>
    <path d="m106.68 100.54h0.21695v-0.93133c0.11907-0.13229 0.22755-0.19844 0.3228-0.19844 0.16404 0 0.24077 0.10319 0.24077 0.34396v0.78581h0.21695v-0.93133c0.11907-0.13229 0.22225-0.19844 0.3228-0.19844 0.16139 0 0.23812 0.10319 0.23812 0.34396v0.78581h0.21696v-0.81492c0-0.32808-0.127-0.50271-0.39158-0.50271-0.15611 0-0.2884 0.10054-0.42334 0.24606-0.0529-0.15346-0.15875-0.24606-0.35454-0.24606-0.15346 0-0.28839 0.09525-0.39952 0.21696h-8e-3l-0.0185-0.18521h-0.17991z"/>
    <path d="m108.78 99.902c0 0.42068 0.27252 0.67204 0.61648 0.67204 0.17463 0 0.31221-0.0609 0.42334-0.13229l-0.0767-0.14288c-0.0953 0.0609-0.19844 0.10054-0.32015 0.10054-0.24606 0-0.41275-0.17462-0.42862-0.45243h0.86783c5e-3 -0.03175 8e-3 -0.07408 8e-3 -0.11906 0-0.36777-0.18521-0.60325-0.51329-0.60325-0.29369 0-0.5768 0.25665-0.5768 0.67733zm0.21167-0.0979c0.0265-0.25929 0.1905-0.40746 0.37042-0.40746 0.20108 0 0.3175 0.14552 0.3175 0.40746z"/>
    <path d="m110.04 100.4c0.12171 0.10054 0.29633 0.17727 0.47889 0.17727 0.30427 0 0.47096-0.17463 0.47096-0.38365 0-0.24341-0.20637-0.32014-0.39158-0.38894-0.14552-0.05556-0.28575-0.10319-0.28575-0.22225 0-0.0979 0.0741-0.18521 0.23548-0.18521 0.11377 0 0.20637 0.04763 0.29369 0.11377l0.10318-0.13758c-0.0979-0.07937-0.23812-0.14552-0.39952-0.14552-0.27781 0-0.44185 0.15875-0.44185 0.36512 0 0.21696 0.20108 0.30427 0.38364 0.37042 0.14023 0.05291 0.29369 0.11112 0.29369 0.24342 0 0.11113-0.0847 0.20108-0.254 0.20108-0.15346 0-0.26723-0.0635-0.37835-0.15345z"/>
   </g>
   <path d="m116.12 102.26 0.17388-2.0691 0.50226 0.93873 0.17386-2.0691 0.50223 0.93873 0.17391-2.0691 0.50223 0.93873 0.17386-2.0691 0.50223 0.93873 0.17391-2.0691 0.50223 0.93873 0.17386-2.0691 0.50226 0.93873 0.17388-2.0691 0.50224 0.93873 0.17391-2.0691 0.5022 0.93873 0.17389-2.0691 0.50223 0.93873" fill="#6f8ce9"/>
   <circle cx="116.16" cy="101.74" r=".52917" fill="#e9e56f"/>
  </g>
  <path d="m116.14 117.61 6.6146-10.583v10.583" fill="none" stroke="#6f8ce9" stroke-width=".26458"/>
  <g>
   <circle cx="122.77" cy="107.03" r=".52917" fill="#e9e56f"/>
   <g fill="#e8eaec" stroke-linecap="round" stroke-width=".26458" aria-label="Shoot-em-up games">
    <path d="m103.6 112.86c0.15081 0.1561 0.36248 0.25664 0.6059 0.25664 0.36512 0 0.59266-0.2196 0.59266-0.49477 0-0.25664-0.1561-0.37571-0.35719-0.46302l-0.2487-0.10583c-0.13494-0.0582-0.2884-0.12171-0.2884-0.2884 0-0.1561 0.12965-0.254 0.32544-0.254 0.15875 0 0.28839 0.0635 0.39423 0.16404l0.11641-0.14287c-0.12171-0.127-0.30427-0.21431-0.51064-0.21431-0.31486 0-0.54769 0.19579-0.54769 0.46037 0 0.254 0.1905 0.37836 0.3519 0.44715l0.2487 0.10848c0.16405 0.0741 0.29105 0.12964 0.29105 0.30691 0 0.16934-0.13494 0.28311-0.36248 0.28311-0.18257 0-0.35454-0.0873-0.4789-0.21696z"/>
    <path d="m105.11 113.08h0.21696v-0.93133c0.12965-0.12965 0.21961-0.19844 0.3519-0.19844 0.16933 0 0.24341 0.10319 0.24341 0.34396v0.78581h0.21696v-0.81491c0-0.32809-0.12171-0.50271-0.39158-0.50271-0.17727 0-0.30692 0.0952-0.42862 0.21167l8e-3 -0.26459v-0.51329h-0.21696z"/>
    <path d="m106.46 112.44c0 0.42598 0.28045 0.67204 0.59531 0.67204 0.31485 0 0.59531-0.24606 0.59531-0.67204 0-0.43127-0.28046-0.67733-0.59531-0.67733-0.31486 0-0.59531 0.24606-0.59531 0.67733zm0.22489 0c0-0.29633 0.15081-0.49741 0.37042-0.49741 0.22225 0 0.37041 0.20108 0.37041 0.49741 0 0.29369-0.14816 0.49213-0.37041 0.49213-0.21961 0-0.37042-0.19844-0.37042-0.49213z"/>
    <path d="m107.89 112.44c0 0.42598 0.28046 0.67204 0.59531 0.67204s0.59531-0.24606 0.59531-0.67204c0-0.43127-0.28046-0.67733-0.59531-0.67733s-0.59531 0.24606-0.59531 0.67733zm0.22489 0c0-0.29633 0.15082-0.49741 0.37042-0.49741 0.22225 0 0.37042 0.20108 0.37042 0.49741 0 0.29369-0.14817 0.49213-0.37042 0.49213-0.2196 0-0.37042-0.19844-0.37042-0.49213z"/>
    <path d="m109.46 112.69c0 0.254 0.0926 0.42862 0.36777 0.42862 0.0794 0 0.16669-0.0238 0.23813-0.0476l-0.0423-0.16404c-0.0423 0.0159-0.10054 0.0344-0.14552 0.0344-0.14816 0-0.19843-0.09-0.19843-0.24871v-0.71437h0.3466v-0.17727h-0.3466v-0.35986h-0.18257l-0.0264 0.35983-0.20109 0.0132v0.16404h0.1905z"/>
    <path d="m110.14 112.5h0.60854v-0.16669h-0.60854z"/>
    <path d="m110.98 112.44c0 0.42069 0.27252 0.67204 0.61648 0.67204 0.17462 0 0.3122-0.0609 0.42333-0.13229l-0.0767-0.14287c-0.0952 0.0609-0.19844 0.10054-0.32015 0.10054-0.24606 0-0.41275-0.17463-0.42862-0.45244h0.86783c5e-3 -0.0318 8e-3 -0.0741 8e-3 -0.11906 0-0.36777-0.18521-0.60325-0.51329-0.60325-0.29369 0-0.57679 0.25664-0.57679 0.67733zm0.21166-0.0979c0.0265-0.2593 0.1905-0.40746 0.37042-0.40746 0.20108 0 0.3175 0.14552 0.3175 0.40746z"/>
    <path d="m112.39 113.08h0.21695v-0.93133c0.11907-0.13229 0.22755-0.19844 0.3228-0.19844 0.16404 0 0.24077 0.10319 0.24077 0.34396v0.78581h0.21695v-0.93133c0.11907-0.13229 0.22225-0.19844 0.3228-0.19844 0.16139 0 0.23812 0.10319 0.23812 0.34396v0.78581h0.21696v-0.81491c0-0.32809-0.127-0.50271-0.39158-0.50271-0.15611 0-0.2884 0.10054-0.42334 0.24606-0.0529-0.15346-0.15875-0.24606-0.35454-0.24606-0.15346 0-0.28839 0.0952-0.39952 0.21696h-8e-3l-0.0185-0.18521h-0.17991z"/>
    <path d="m114.47 112.5h0.60854v-0.16669h-0.60854z"/>
    <path d="m115.38 112.61c0 0.32809 0.12171 0.50271 0.39423 0.50271 0.17727 0 0.30427-0.0926 0.42333-0.23283h8e-3l0.0185 0.20108h0.17991v-1.2859h-0.21695v0.91281c-0.12171 0.15081-0.21432 0.21696-0.34661 0.21696-0.16933 0-0.24077-0.10319-0.24077-0.34396v-0.78581h-0.2196z"/>
    <path d="m117.05 112.97c0.11906 0.0926 0.23812 0.14816 0.35718 0.14816 0.29369 0 0.55563-0.25664 0.55563-0.69321 0-0.39952-0.17727-0.65616-0.508-0.65616-0.15081 0-0.29369 0.082-0.41011 0.17992h-8e-3l-0.0185-0.14817h-0.17992v1.8283h0.21696v-0.43392zm5e-3 -0.16934v-0.67468c0.127-0.11377 0.23548-0.17463 0.34396-0.17463 0.24341 0 0.33866 0.1905 0.33866 0.4736 0 0.3175-0.1561 0.51065-0.36777 0.51065-0.0847 0-0.19844-0.037-0.31485-0.13494z"/>
    <path d="m103.8 116.63c0-0.0741 0.0397-0.15082 0.13229-0.21696 0.0556 0.0159 0.11642 0.0212 0.16669 0.0212h0.22225c0.16668 0 0.25929 0.0397 0.25929 0.15875 0 0.13494-0.1614 0.26194-0.40746 0.26194-0.23283 0-0.37306-0.0873-0.37306-0.22489zm-0.1905 0.0291c0 0.22225 0.21696 0.3466 0.53181 0.3466 0.39952 0 0.65088-0.20637 0.65088-0.4445 0-0.21431-0.15082-0.30691-0.4498-0.30691h-0.2487c-0.17463 0-0.22755-0.0582-0.22755-0.14023 0-0.0714 0.037-0.11377 0.082-0.15346 0.0582 0.0291 0.12964 0.045 0.19314 0.045 0.26194 0 0.47096-0.17198 0.47096-0.44715 0-0.10847-0.045-0.20637-0.10583-0.26458h0.26458v-0.16669h-0.44715c-0.0476-0.0185-0.11112-0.0318-0.18256-0.0318-0.26194 0-0.48419 0.17727-0.48419 0.45773 0 0.15346 0.082 0.27782 0.16669 0.34661v0.0106c-0.0661 0.045-0.14023 0.12965-0.14023 0.23812 0 0.10055 0.0503 0.16934 0.11377 0.20903v0.0106c-0.11641 0.0794-0.18785 0.18256-0.18785 0.29104zm0.53181-0.79904c-0.14817 0-0.27252-0.11906-0.27252-0.30692 0-0.18785 0.12171-0.29898 0.27252-0.29898s0.27252 0.11113 0.27252 0.29898c0 0.18786-0.12435 0.30692-0.27252 0.30692z"/>
    <path d="m104.94 116.08c0 0.23019 0.1614 0.36513 0.37836 0.36513 0.15875 0 0.30162-0.0847 0.42598-0.18521h5e-3l0.0185 0.15346h0.17992v-0.78846c0-0.32015-0.1323-0.52917-0.44715-0.52917-0.20637 0-0.38629 0.09-0.50535 0.16669l0.0873 0.15081c0.10054-0.0688 0.23283-0.13758 0.38364-0.13758 0.20903 0 0.26459 0.15875 0.26459 0.32279-0.54769 0.0609-0.79111 0.20109-0.79111 0.48154zm0.21432-0.0159c0-0.16404 0.14552-0.26988 0.57679-0.32279v0.35718c-0.12436 0.11113-0.22754 0.17198-0.3519 0.17198-0.127 0-0.22489-0.0609-0.22489-0.20637z"/>
    <path d="m106.35 116.42h0.21695v-0.93133c0.11907-0.1323 0.22754-0.19844 0.32279-0.19844 0.16405 0 0.24077 0.10319 0.24077 0.34396v0.78581h0.21696v-0.93133c0.11907-0.1323 0.22225-0.19844 0.32279-0.19844 0.1614 0 0.23813 0.10319 0.23813 0.34396v0.78581h0.21696v-0.81492c0-0.32808-0.127-0.50271-0.39159-0.50271-0.1561 0-0.28839 0.10055-0.42333 0.24607-0.0529-0.15346-0.15875-0.24607-0.35454-0.24607-0.15346 0-0.2884 0.0953-0.39952 0.21696h-8e-3l-0.0185-0.18521h-0.17991z"/>
    <path d="m108.45 115.78c0 0.42068 0.27252 0.67204 0.61648 0.67204 0.17463 0 0.31221-0.0609 0.42333-0.13229l-0.0767-0.14288c-0.0953 0.0609-0.19844 0.10054-0.32015 0.10054-0.24606 0-0.41275-0.17462-0.42862-0.45243h0.86783c5e-3 -0.0318 8e-3 -0.0741 8e-3 -0.11907 0-0.36777-0.18521-0.60325-0.5133-0.60325-0.29368 0-0.57679 0.25665-0.57679 0.67734zm0.21167-0.0979c0.0265-0.25929 0.1905-0.40746 0.37042-0.40746 0.20108 0 0.3175 0.14552 0.3175 0.40746z"/>
    <path d="m109.72 116.27c0.12171 0.10054 0.29633 0.17727 0.47889 0.17727 0.30427 0 0.47096-0.17463 0.47096-0.38365 0-0.24341-0.20637-0.32014-0.39158-0.38893-0.14552-0.0556-0.28575-0.10319-0.28575-0.22225 0-0.0979 0.0741-0.18521 0.23548-0.18521 0.11377 0 0.20637 0.0476 0.29368 0.11377l0.10319-0.13758c-0.0979-0.0794-0.23812-0.14553-0.39952-0.14553-0.27781 0-0.44185 0.15875-0.44185 0.36513 0 0.21696 0.20108 0.30427 0.38364 0.37042 0.14023 0.0529 0.29369 0.11112 0.29369 0.24341 0 0.11113-0.0847 0.20108-0.254 0.20108-0.15346 0-0.26723-0.0635-0.37835-0.15345z"/>
   </g>
   <circle cx="116.16" cy="117.61" r=".52917" fill="#e9e56f"/>
  </g>
 </g>
</svg>
