<?xml version="1.0" encoding="UTF-8"?>
<svg width="54.623mm" height="23.215mm" version="1.1" viewBox="0 0 54.623 23.215" xmlns="http://www.w3.org/2000/svg" xmlns:cc="http://creativecommons.org/ns#" xmlns:dc="http://purl.org/dc/elements/1.1/" xmlns:rdf="http://www.w3.org/1999/02/22-rdf-syntax-ns#">
 <metadata>
  <rdf:RDF>
   <cc:Work rdf:about="">
    <dc:format>image/svg+xml</dc:format>
    <dc:type rdf:resource="http://purl.org/dc/dcmitype/StillImage"/>
    <dc:title/>
   </cc:Work>
  </rdf:RDF>
 </metadata>
 <g transform="translate(-63.403 -96.494)">
  <path d="m65.142 119.17h13.229l14.552-18.521 7.9375 9.2604h14.552" fill="none" stroke="#6f8ce9" stroke-width=".26458"/>
  <g fill="#e9e56f">
   <circle cx="92.938" cy="100.66" r=".52917"/>
   <circle cx="100.88" cy="109.92" r=".52917"/>
   <circle cx="78.386" cy="119.18" r=".52917"/>
  </g>
  <g fill="#6f8ce9" stroke="#cf2f25" stroke-linecap="round" stroke-width=".26458" aria-label="1">
   <path d="m63.535 116.77h1.143v-0.2159h-0.4191v-1.8098h-0.20002c-0.11112 0.0667-0.24448 0.11747-0.42862 0.14922v0.16828h0.3683v1.4922h-0.46355z" fill="#6f8ce9" stroke="none"/>
  </g>
  <g fill="#e8eaec" stroke-linecap="round" stroke-width=".26458">
   <g aria-label="exposition">
    <path d="m65.554 115.86c0 0.42068 0.27252 0.67204 0.61648 0.67204 0.17462 0 0.31221-0.0609 0.42333-0.13229l-0.07673-0.14288c-0.09525 0.0608-0.19844 0.10054-0.32015 0.10054-0.24606 0-0.41275-0.17462-0.42862-0.45244h0.86783c0.0053-0.0318 0.0079-0.0741 0.0079-0.11906 0-0.36777-0.18521-0.60325-0.51329-0.60325-0.29369 0-0.57679 0.25665-0.57679 0.67734zm0.21167-0.0979c0.02646-0.25929 0.1905-0.40746 0.37042-0.40746 0.20108 0 0.3175 0.14552 0.3175 0.40746z"/>
    <path d="m66.762 116.5h0.22754l0.17462-0.29898c0.04233-0.0794 0.08467-0.15611 0.12965-0.23019h0.01058c0.04762 0.0741 0.09525 0.15346 0.14023 0.23019l0.18785 0.29898h0.23548l-0.41804-0.64823 0.38894-0.63765h-0.22754l-0.1561 0.28311c-0.03969 0.0688-0.07938 0.14287-0.11642 0.21431h-0.01058c-0.04498-0.0714-0.08731-0.14552-0.127-0.21431l-0.17198-0.28311h-0.23548l0.38894 0.61384z"/>
    <path d="m68.331 116.39c0.11906 0.0926 0.23812 0.14817 0.35719 0.14817 0.29369 0 0.55562-0.25665 0.55562-0.69321 0-0.39952-0.17727-0.65617-0.508-0.65617-0.15081 0-0.29369 0.082-0.4101 0.17992h-0.0079l-0.01852-0.14817h-0.17995v1.8283h0.21696v-0.43391zm0.0053-0.16933v-0.67469c0.127-0.11377 0.23548-0.17462 0.34396-0.17462 0.24342 0 0.33867 0.1905 0.33867 0.4736 0 0.3175-0.1561 0.51064-0.36777 0.51064-0.08467 0-0.19844-0.037-0.31485-0.13493z"/>
    <path d="m69.492 115.86c0 0.42597 0.28046 0.67204 0.59531 0.67204 0.31485 0 0.59531-0.24607 0.59531-0.67204 0-0.43127-0.28046-0.67734-0.59531-0.67734-0.31485 0-0.59531 0.24607-0.59531 0.67734zm0.2249 0c0-0.29634 0.15081-0.49742 0.37042-0.49742 0.22225 0 0.37042 0.20108 0.37042 0.49742 0 0.29368-0.14817 0.49212-0.37042 0.49212-0.2196 0-0.37042-0.19844-0.37042-0.49212z"/>
    <path d="m70.881 116.36c0.12171 0.10054 0.29633 0.17727 0.4789 0.17727 0.30427 0 0.47096-0.17463 0.47096-0.38365 0-0.24342-0.20638-0.32014-0.39158-0.38894-0.14552-0.0556-0.28575-0.10318-0.28575-0.22225 0-0.0979 0.07408-0.1852 0.23548-0.1852 0.11377 0 0.20638 0.0476 0.29369 0.11377l0.10319-0.13759c-0.0979-0.0794-0.23812-0.14552-0.39952-0.14552-0.27781 0-0.44185 0.15875-0.44185 0.36513 0 0.21696 0.20108 0.30427 0.38364 0.37041 0.14023 0.0529 0.29369 0.11113 0.29369 0.24342 0 0.11113-0.08467 0.20108-0.254 0.20108-0.15346 0-0.26723-0.0635-0.37835-0.15345z"/>
    <path d="m72.246 114.95c0.08467 0 0.15081-0.0582 0.15081-0.14023 0-0.0847-0.06615-0.14023-0.15081-0.14023-0.08467 0-0.15081 0.0556-0.15081 0.14023 0 0.082 0.06615 0.14023 0.15081 0.14023zm-0.11112 1.5505h0.21696v-1.2859h-0.21696z"/>
    <path d="m72.823 116.1c0 0.254 0.0926 0.42863 0.36777 0.42863 0.07937 0 0.16669-0.0238 0.23812-0.0476l-0.04233-0.16404c-0.04233 0.0159-0.10054 0.0344-0.14552 0.0344-0.14817 0-0.19844-0.09-0.19844-0.24871v-0.71438h0.3466v-0.17727h-0.3466v-0.35983h-0.18256l-0.02646 0.35983-0.20108 0.0132v0.16404h0.1905z"/>
    <path d="m73.791 114.95c0.08467 0 0.15081-0.0582 0.15081-0.14023 0-0.0847-0.06615-0.14023-0.15081-0.14023-0.08467 0-0.15081 0.0556-0.15081 0.14023 0 0.082 0.06615 0.14023 0.15081 0.14023zm-0.11112 1.5505h0.21696v-1.2859h-0.21696z"/>
    <path d="m74.236 115.86c0 0.42597 0.28046 0.67204 0.59531 0.67204 0.31485 0 0.59531-0.24607 0.59531-0.67204 0-0.43127-0.28046-0.67734-0.59531-0.67734-0.31485 0-0.59531 0.24607-0.59531 0.67734zm0.2249 0c0-0.29634 0.15081-0.49742 0.37042-0.49742 0.22225 0 0.37042 0.20108 0.37042 0.49742 0 0.29368-0.14817 0.49212-0.37042 0.49212-0.2196 0-0.37042-0.19844-0.37042-0.49212z"/>
    <path d="m75.768 116.5h0.21696v-0.93134c0.12965-0.12964 0.2196-0.19843 0.3519-0.19843 0.16933 0 0.24342 0.10318 0.24342 0.34396v0.78581h0.21696v-0.81492c0-0.32808-0.12171-0.50271-0.39158-0.50271-0.17727 0-0.30956 0.0953-0.43127 0.21696h-0.0079l-0.01852-0.18521h-0.17992z"/>
   </g>
   <g aria-label="rising  action">
    <path d="m76.054 106.71h0.21696v-0.8255c0.08731-0.21695 0.21696-0.29633 0.32544-0.29633 0.05292 0 0.08202 8e-3 0.12435 0.0212l0.04233-0.1905c-0.04233-0.0185-0.08202-0.0265-0.13758-0.0265-0.14552 0-0.27781 0.10319-0.36512 0.26458h-0.0079l-0.01852-0.23283h-0.17992z"/>
    <path d="m77.085 105.16c0.08467 0 0.15081-0.0582 0.15081-0.14023 0-0.0847-0.06615-0.14023-0.15081-0.14023-0.08467 0-0.15081 0.0556-0.15081 0.14023 0 0.082 0.06615 0.14023 0.15081 0.14023zm-0.11112 1.5504h0.21696v-1.2859h-0.21696z"/>
    <path d="m77.482 106.57c0.12171 0.10054 0.29633 0.17727 0.4789 0.17727 0.30427 0 0.47096-0.17462 0.47096-0.38364 0-0.24342-0.20638-0.32015-0.39158-0.38894-0.14552-0.0556-0.28575-0.10319-0.28575-0.22225 0-0.0979 0.07408-0.18521 0.23548-0.18521 0.11377 0 0.20638 0.0476 0.29369 0.11377l0.10319-0.13758c-0.09789-0.0794-0.23812-0.14552-0.39952-0.14552-0.27781 0-0.44185 0.15875-0.44185 0.36512 0 0.21696 0.20108 0.30427 0.38364 0.37042 0.14023 0.0529 0.29369 0.11113 0.29369 0.24342 0 0.11112-0.08467 0.20108-0.254 0.20108-0.15346 0-0.26723-0.0635-0.37835-0.15346z"/>
    <path d="m78.847 105.16c0.08467 0 0.15081-0.0582 0.15081-0.14023 0-0.0847-0.06615-0.14023-0.15081-0.14023-0.08467 0-0.15081 0.0556-0.15081 0.14023 0 0.082 0.06615 0.14023 0.15081 0.14023zm-0.11112 1.5504h0.21696v-1.2859h-0.21696z"/>
    <path d="m79.387 106.71h0.21696v-0.93133c0.12964-0.12964 0.2196-0.19844 0.3519-0.19844 0.16933 0 0.24342 0.10319 0.24342 0.34396v0.78581h0.21696v-0.81491c0-0.32809-0.12171-0.50271-0.39158-0.50271-0.17727 0-0.30956 0.0952-0.43127 0.21696h-0.0079l-0.01852-0.18521h-0.17992z"/>
    <path d="m80.926 106.93c0-0.0741 0.03969-0.15081 0.13229-0.21696 0.05556 0.0159 0.11642 0.0212 0.16669 0.0212h0.22225c0.16669 0 0.25929 0.0397 0.25929 0.15875 0 0.13494-0.1614 0.26194-0.40746 0.26194-0.23283 0-0.37306-0.0873-0.37306-0.2249zm-0.1905 0.0291c0 0.22224 0.21696 0.3466 0.53181 0.3466 0.39952 0 0.65087-0.20638 0.65087-0.4445 0-0.21431-0.15081-0.30692-0.44979-0.30692h-0.24871c-0.17462 0-0.22754-0.0582-0.22754-0.14023 0-0.0714 0.03704-0.11377 0.08202-0.15345 0.05821 0.0291 0.12964 0.045 0.19314 0.045 0.26194 0 0.47096-0.17198 0.47096-0.44715 0-0.10848-0.04498-0.20637-0.10583-0.26458h0.26458v-0.16669h-0.44715c-0.04762-0.0185-0.11112-0.0318-0.18256-0.0318-0.26194 0-0.48419 0.17727-0.48419 0.45773 0 0.15346 0.08202 0.27781 0.16669 0.3466v0.0106c-0.06615 0.045-0.14023 0.12964-0.14023 0.23812 0 0.10054 0.05027 0.16933 0.11377 0.20902v0.0106c-0.11642 0.0794-0.18785 0.18257-0.18785 0.29105zm0.53181-0.79905c-0.14817 0-0.27252-0.11906-0.27252-0.30691 0-0.18786 0.12171-0.29898 0.27252-0.29898s0.27252 0.11112 0.27252 0.29898c0 0.18785-0.12435 0.30691-0.27252 0.30691z"/>
    <path d="m75.99 109.71c0 0.23019 0.1614 0.36513 0.37835 0.36513 0.15875 0 0.30162-0.0847 0.42598-0.18521h0.0053l0.01852 0.15346h0.17992v-0.78846c0-0.32014-0.13229-0.52916-0.44714-0.52916-0.20638 0-0.38629 0.09-0.50535 0.16668l0.08731 0.15081c0.10054-0.0688 0.23283-0.13758 0.38364-0.13758 0.20902 0 0.26458 0.15875 0.26458 0.32279-0.54769 0.0609-0.7911 0.20109-0.7911 0.48154zm0.21431-0.0159c0-0.16404 0.14552-0.26988 0.57679-0.32279v0.35718c-0.12435 0.11113-0.22754 0.17198-0.3519 0.17198-0.127 0-0.2249-0.0609-0.2249-0.20637z"/>
    <path d="m77.312 109.4c0 0.42598 0.26194 0.67204 0.60325 0.67204 0.15346 0 0.30162-0.0635 0.41804-0.16669l-0.09789-0.14287c-0.07673 0.0688-0.17992 0.12964-0.30162 0.12964-0.23548 0-0.39688-0.19844-0.39688-0.49212 0-0.29634 0.16933-0.49742 0.40217-0.49742 0.10319 0 0.18256 0.0476 0.25929 0.11377l0.10848-0.14023c-0.08731-0.082-0.20638-0.15345-0.37571-0.15345-0.33073 0-0.61912 0.24606-0.61912 0.67733z"/>
    <path d="m78.649 109.65c0 0.254 0.0926 0.42863 0.36777 0.42863 0.07937 0 0.16669-0.0238 0.23812-0.0476l-0.04233-0.16404c-0.04233 0.0159-0.10054 0.0344-0.14552 0.0344-0.14817 0-0.19844-0.09-0.19844-0.24871v-0.71437h0.3466v-0.17727h-0.3466v-0.35984h-0.18257l-0.02646 0.35984-0.20108 0.0132v0.16405h0.1905z"/>
    <path d="m79.617 108.49c0.08467 0 0.15081-0.0582 0.15081-0.14023 0-0.0847-0.06614-0.14023-0.15081-0.14023-0.08467 0-0.15081 0.0556-0.15081 0.14023 0 0.082 0.06615 0.14023 0.15081 0.14023zm-0.11112 1.5505h0.21696v-1.2859h-0.21696z"/>
    <path d="m80.061 109.4c0 0.42598 0.28046 0.67204 0.59531 0.67204 0.31485 0 0.59531-0.24606 0.59531-0.67204 0-0.43127-0.28046-0.67733-0.59531-0.67733-0.31485 0-0.59531 0.24606-0.59531 0.67733zm0.2249 0c0-0.29634 0.15081-0.49742 0.37042-0.49742 0.22225 0 0.37042 0.20108 0.37042 0.49742 0 0.29368-0.14817 0.49212-0.37042 0.49212-0.2196 0-0.37042-0.19844-0.37042-0.49212z"/>
    <path d="m81.593 110.05h0.21696v-0.93133c0.12965-0.12965 0.2196-0.19844 0.3519-0.19844 0.16933 0 0.24342 0.10319 0.24342 0.34396v0.78581h0.21696v-0.81492c0-0.32808-0.12171-0.5027-0.39158-0.5027-0.17727 0-0.30956 0.0953-0.43127 0.21695h-0.0079l-0.01852-0.1852h-0.17992z"/>
   </g>
   <g aria-label="climax">
    <path d="m94.744 97.87c0 0.42598 0.26194 0.67204 0.60325 0.67204 0.15346 0 0.30162-0.0635 0.41804-0.16669l-0.0979-0.14288c-0.07673 0.06879-0.17992 0.12965-0.30162 0.12965-0.23548 0-0.39688-0.19844-0.39688-0.49212 0-0.29633 0.16933-0.49742 0.40217-0.49742 0.10319 0 0.18256 0.04762 0.25929 0.11377l0.10848-0.14023c-0.08731-0.08202-0.20638-0.15346-0.37571-0.15346-0.33073 0-0.61912 0.24606-0.61912 0.67733z"/>
    <path d="m96.043 98.251c0 0.18785 0.06615 0.29104 0.23019 0.29104 0.05821 0 0.09525-0.0079 0.12435-0.02117l-0.0291-0.16404c-0.02381 0.0053-0.0344 0.0053-0.04762 0.0053-0.03175 0-0.06085-0.02646-0.06085-0.09525v-1.6404h-0.21696z"/>
    <path d="m96.831 96.96c0.08467 0 0.15081-0.05821 0.15081-0.14023 0-0.08467-0.06615-0.14023-0.15081-0.14023-0.08467 0-0.15081 0.05556-0.15081 0.14023 0 0.08202 0.06615 0.14023 0.15081 0.14023zm-0.11112 1.5505h0.21696v-1.2859h-0.21696z"/>
    <path d="m97.371 98.51h0.21696v-0.93133c0.11906-0.13229 0.22754-0.19844 0.32279-0.19844 0.16404 0 0.24077 0.10319 0.24077 0.34396v0.78581h0.21696v-0.93133c0.11906-0.13229 0.22225-0.19844 0.32279-0.19844 0.1614 0 0.23812 0.10319 0.23812 0.34396v0.78581h0.21696v-0.81492c0-0.32808-0.127-0.50271-0.39158-0.50271-0.1561 0-0.2884 0.10054-0.42333 0.24606-0.05292-0.15346-0.15875-0.24606-0.35454-0.24606-0.15346 0-0.2884 0.09525-0.39952 0.21696h-0.0079l-0.01852-0.18521h-0.17992z"/>
    <path d="m99.499 98.177c0 0.23019 0.1614 0.36512 0.37835 0.36512 0.15875 0 0.30162-0.08467 0.42597-0.18521h5e-3l0.0185 0.15346h0.17991v-0.78846c0-0.32014-0.13229-0.52917-0.44714-0.52917-0.20638 0-0.38629 0.08996-0.50536 0.16669l0.08731 0.15081c0.10054-0.06879 0.23283-0.13758 0.38364-0.13758 0.20902 0 0.26459 0.15875 0.26459 0.32279-0.54769 0.06085-0.79111 0.20108-0.79111 0.48154zm0.21431-0.01588c0-0.16404 0.14552-0.26988 0.5768-0.32279v0.35719c-0.12436 0.11112-0.22755 0.17198-0.3519 0.17198-0.127 0-0.2249-0.06085-0.2249-0.20638z"/>
    <path d="m100.74 98.51h0.22754l0.17462-0.29898c0.0423-0.07937 0.0847-0.1561 0.12965-0.23019h0.0106c0.0476 0.07408 0.0953 0.15346 0.14023 0.23019l0.18786 0.29898h0.23547l-0.41804-0.64823 0.38894-0.63764h-0.22754l-0.15611 0.2831c-0.0397 0.06879-0.0794 0.14288-0.11641 0.21431h-0.0106c-0.045-0.07144-0.0873-0.14552-0.127-0.21431l-0.17197-0.2831h-0.23548l0.38893 0.61383z"/>
   </g>
   <g aria-label="falling  action">
    <path d="m102.35 100.34c-0.0582-0.0238-0.13494-0.0423-0.21431-0.0423-0.25665 0-0.37571 0.16404-0.37571 0.42598v0.20372l-0.17463 0.0132v0.16405h0.17463v1.1086h0.21696v-1.1086h0.27252v-0.17728h-0.27252v-0.20372c0-0.16405 0.0582-0.24871 0.17991-0.24871 0.0476 0 0.0979 0.0106 0.14552 0.0318z"/>
    <path d="m102.38 101.88c0 0.23019 0.16139 0.36513 0.37835 0.36513 0.15875 0 0.30162-0.0847 0.42598-0.18521h5e-3l0.0185 0.15346h0.17992v-0.78846c0-0.32014-0.1323-0.52917-0.44715-0.52917-0.20637 0-0.38629 0.09-0.50535 0.16669l0.0873 0.15081c0.10054-0.0688 0.23283-0.13758 0.38365-0.13758 0.20902 0 0.26458 0.15875 0.26458 0.32279-0.54769 0.0609-0.7911 0.20109-0.7911 0.48154zm0.21431-0.0159c0-0.16404 0.14552-0.26988 0.57679-0.32279v0.35718c-0.12436 0.11113-0.22754 0.17198-0.3519 0.17198-0.127 0-0.22489-0.0609-0.22489-0.20637z"/>
    <path d="m103.8 101.95c0 0.18785 0.0661 0.29104 0.23018 0.29104 0.0582 0 0.0953-8e-3 0.12436-0.0212l-0.0291-0.16404c-0.0238 5e-3 -0.0344 5e-3 -0.0476 5e-3 -0.0317 0-0.0609-0.0265-0.0609-0.0953v-1.6404h-0.21695z"/>
    <path d="m104.47 101.95c0 0.18785 0.0661 0.29104 0.23018 0.29104 0.0582 0 0.0952-8e-3 0.12436-0.0212l-0.0291-0.16404c-0.0238 5e-3 -0.0344 5e-3 -0.0476 5e-3 -0.0318 0-0.0609-0.0265-0.0609-0.0953v-1.6404h-0.21695z"/>
    <path d="m105.26 100.66c0.0847 0 0.15081-0.0582 0.15081-0.14023 0-0.0847-0.0661-0.14023-0.15081-0.14023-0.0847 0-0.15081 0.0556-0.15081 0.14023 0 0.082 0.0661 0.14023 0.15081 0.14023zm-0.11112 1.5505h0.21695v-1.2859h-0.21695z"/>
    <path d="m105.8 102.21h0.21696v-0.93133c0.12964-0.12965 0.2196-0.19844 0.35189-0.19844 0.16934 0 0.24342 0.10319 0.24342 0.34396v0.78581h0.21696v-0.81492c0-0.32808-0.12171-0.50271-0.39159-0.50271-0.17727 0-0.30956 0.0952-0.43127 0.21696h-8e-3l-0.0185-0.18521h-0.17992z"/>
    <path d="m107.34 102.43c0-0.0741 0.0397-0.15082 0.13229-0.21696 0.0556 0.0159 0.11642 0.0212 0.16669 0.0212h0.22225c0.16669 0 0.25929 0.0397 0.25929 0.15875 0 0.13494-0.16139 0.26194-0.40746 0.26194-0.23283 0-0.37306-0.0873-0.37306-0.22489zm-0.1905 0.0291c0 0.22225 0.21696 0.3466 0.53181 0.3466 0.39952 0 0.65088-0.20637 0.65088-0.4445 0-0.21431-0.15081-0.30691-0.44979-0.30691h-0.24871c-0.17463 0-0.22754-0.0582-0.22754-0.14023 0-0.0714 0.037-0.11377 0.082-0.15346 0.0582 0.0291 0.12964 0.045 0.19314 0.045 0.26194 0 0.47096-0.17198 0.47096-0.44714 0-0.10848-0.045-0.20638-0.10583-0.26459h0.26458v-0.16669h-0.44714c-0.0476-0.0185-0.11113-0.0318-0.18257-0.0318-0.26193 0-0.48418 0.17728-0.48418 0.45773 0 0.15346 0.082 0.27782 0.16668 0.34661v0.0106c-0.0661 0.045-0.14023 0.12965-0.14023 0.23813 0 0.10054 0.0503 0.16933 0.11378 0.20902v0.0106c-0.11642 0.0794-0.18786 0.18256-0.18786 0.29104zm0.53181-0.79904c-0.14816 0-0.27252-0.11906-0.27252-0.30692 0-0.18785 0.12171-0.29898 0.27252-0.29898 0.15082 0 0.27252 0.11113 0.27252 0.29898 0 0.18786-0.12435 0.30692-0.27252 0.30692z"/>
    <path d="m101.65 105.21c0 0.23019 0.16139 0.36512 0.37835 0.36512 0.15875 0 0.30162-0.0847 0.42598-0.1852h5e-3l0.0185 0.15345h0.17992v-0.78845c0-0.32015-0.13229-0.52917-0.44715-0.52917-0.20637 0-0.38629 0.09-0.50535 0.16669l0.0873 0.15081c0.10054-0.0688 0.23283-0.13758 0.38365-0.13758 0.20902 0 0.26458 0.15875 0.26458 0.32279-0.54769 0.0609-0.7911 0.20108-0.7911 0.48154zm0.21431-0.0159c0-0.16404 0.14552-0.26987 0.57679-0.32279v0.35719c-0.12435 0.11112-0.22754 0.17198-0.3519 0.17198-0.127 0-0.22489-0.0609-0.22489-0.20638z"/>
    <path d="m102.98 104.91c0 0.42598 0.26193 0.67204 0.60325 0.67204 0.15345 0 0.30162-0.0635 0.41804-0.16668l-0.0979-0.14288c-0.0767 0.0688-0.17991 0.12965-0.30162 0.12965-0.23548 0-0.39688-0.19844-0.39688-0.49213 0-0.29633 0.16934-0.49741 0.40217-0.49741 0.10319 0 0.18256 0.0476 0.25929 0.11377l0.10848-0.14023c-0.0873-0.082-0.20638-0.15346-0.37571-0.15346-0.33073 0-0.61912 0.24606-0.61912 0.67733z"/>
    <path d="m104.31 105.15c0 0.254 0.0926 0.42862 0.36777 0.42862 0.0794 0 0.16669-0.0238 0.23812-0.0476l-0.0423-0.16404c-0.0423 0.0159-0.10054 0.0344-0.14552 0.0344-0.14817 0-0.19844-0.09-0.19844-0.2487v-0.71438h0.34661v-0.17727h-0.34661v-0.35983h-0.18256l-0.0265 0.35983-0.20108 0.0132v0.16404h0.1905z"/>
    <path d="m105.28 104c0.0847 0 0.15081-0.0582 0.15081-0.14023 0-0.0847-0.0661-0.14023-0.15081-0.14023-0.0847 0-0.15081 0.0556-0.15081 0.14023 0 0.082 0.0662 0.14023 0.15081 0.14023zm-0.11112 1.5504h0.21696v-1.2859h-0.21696z"/>
    <path d="m105.73 104.91c0 0.42598 0.28046 0.67204 0.59531 0.67204 0.31486 0 0.59531-0.24606 0.59531-0.67204 0-0.43127-0.28045-0.67733-0.59531-0.67733-0.31485 0-0.59531 0.24606-0.59531 0.67733zm0.2249 0c0-0.29633 0.15081-0.49741 0.37041-0.49741 0.22225 0 0.37042 0.20108 0.37042 0.49741 0 0.29369-0.14817 0.49213-0.37042 0.49213-0.2196 0-0.37041-0.19844-0.37041-0.49213z"/>
    <path d="m107.26 105.55h0.21696v-0.93133c0.12965-0.12964 0.2196-0.19844 0.3519-0.19844 0.16933 0 0.24341 0.10319 0.24341 0.34396v0.78581h0.21696v-0.81491c0-0.32808-0.12171-0.50271-0.39158-0.50271-0.17727 0-0.30956 0.0952-0.43127 0.21696h-8e-3l-0.0185-0.18521h-0.17992z"/>
   </g>
   <g aria-label="resolution">
    <path d="m107.01 112.8h0.21696v-0.8255c0.0873-0.21696 0.21696-0.29634 0.32544-0.29634 0.0529 0 0.082 8e-3 0.12435 0.0212l0.0423-0.1905c-0.0423-0.0185-0.082-0.0265-0.13758-0.0265-0.14552 0-0.27781 0.10319-0.36513 0.26459h-8e-3l-0.0185-0.23284h-0.17992z"/>
    <path d="m107.81 112.16c0 0.42068 0.27252 0.67204 0.61648 0.67204 0.17462 0 0.31221-0.0609 0.42333-0.1323l-0.0767-0.14287c-0.0952 0.0609-0.19843 0.10054-0.32014 0.10054-0.24606 0-0.41275-0.17462-0.42863-0.45244h0.86784c5e-3 -0.0318 8e-3 -0.0741 8e-3 -0.11906 0-0.36777-0.1852-0.60325-0.51329-0.60325-0.29368 0-0.57679 0.25665-0.57679 0.67734zm0.21167-0.0979c0.0265-0.25929 0.1905-0.40746 0.37041-0.40746 0.20109 0 0.3175 0.14552 0.3175 0.40746z"/>
    <path d="m109.07 112.65c0.1217 0.10054 0.29633 0.17727 0.47889 0.17727 0.30427 0 0.47096-0.17463 0.47096-0.38365 0-0.24342-0.20638-0.32014-0.39158-0.38894-0.14552-0.0556-0.28575-0.10318-0.28575-0.22225 0-0.0979 0.0741-0.1852 0.23548-0.1852 0.11377 0 0.20637 0.0476 0.29368 0.11377l0.10319-0.13759c-0.0979-0.0794-0.23813-0.14552-0.39952-0.14552-0.27781 0-0.44185 0.15875-0.44185 0.36513 0 0.21696 0.20108 0.30427 0.38364 0.37041 0.14023 0.0529 0.29369 0.11113 0.29369 0.24342 0 0.11113-0.0847 0.20108-0.254 0.20108-0.15346 0-0.26723-0.0635-0.37836-0.15345z"/>
    <path d="m110.23 112.16c0 0.42597 0.28046 0.67204 0.59531 0.67204 0.31486 0 0.59532-0.24607 0.59532-0.67204 0-0.43127-0.28046-0.67734-0.59532-0.67734-0.31485 0-0.59531 0.24607-0.59531 0.67734zm0.2249 0c0-0.29634 0.15081-0.49742 0.37041-0.49742 0.22225 0 0.37042 0.20108 0.37042 0.49742 0 0.29368-0.14817 0.49212-0.37042 0.49212-0.2196 0-0.37041-0.19844-0.37041-0.49212z"/>
    <path d="m111.76 112.54c0 0.18785 0.0661 0.29104 0.23018 0.29104 0.0582 0 0.0952-8e-3 0.12436-0.0212l-0.0291-0.16404c-0.0238 5e-3 -0.0344 5e-3 -0.0476 5e-3 -0.0318 0-0.0609-0.0265-0.0609-0.0952v-1.6404h-0.21695z"/>
    <path d="m112.42 112.33c0 0.32808 0.1217 0.50271 0.39422 0.50271 0.17727 0 0.30427-0.0926 0.42334-0.23284h8e-3l0.0185 0.20109h0.17991v-1.2859h-0.21696v0.91281c-0.1217 0.15082-0.21431 0.21696-0.3466 0.21696-0.16933 0-0.24077-0.10318-0.24077-0.34396v-0.78581h-0.2196z"/>
    <path d="m113.92 112.4c0 0.254 0.0926 0.42863 0.36777 0.42863 0.0794 0 0.16669-0.0238 0.23812-0.0476l-0.0423-0.16404c-0.0423 0.0159-0.10054 0.0344-0.14552 0.0344-0.14817 0-0.19844-0.09-0.19844-0.24871v-0.71438h0.34661v-0.17727h-0.34661v-0.35983h-0.18256l-0.0265 0.35983-0.20108 0.0132v0.16404h0.1905z"/>
    <path d="m114.89 111.25c0.0847 0 0.15081-0.0582 0.15081-0.14023 0-0.0847-0.0661-0.14023-0.15081-0.14023-0.0847 0-0.15081 0.0556-0.15081 0.14023 0 0.082 0.0662 0.14023 0.15081 0.14023zm-0.11112 1.5505h0.21696v-1.2859h-0.21696z"/>
    <path d="m115.33 112.16c0 0.42597 0.28046 0.67204 0.59531 0.67204 0.31486 0 0.59531-0.24607 0.59531-0.67204 0-0.43127-0.28045-0.67734-0.59531-0.67734-0.31485 0-0.59531 0.24607-0.59531 0.67734zm0.2249 0c0-0.29634 0.15081-0.49742 0.37041-0.49742 0.22225 0 0.37042 0.20108 0.37042 0.49742 0 0.29368-0.14817 0.49212-0.37042 0.49212-0.2196 0-0.37041-0.19844-0.37041-0.49212z"/>
    <path d="m116.86 112.8h0.21696v-0.93134c0.12965-0.12964 0.2196-0.19843 0.3519-0.19843 0.16933 0 0.24341 0.10318 0.24341 0.34395v0.78582h0.21696v-0.81492c0-0.32808-0.12171-0.50271-0.39158-0.50271-0.17727 0-0.30956 0.0952-0.43127 0.21696h-8e-3l-0.0185-0.18521h-0.17992z"/>
   </g>
  </g>
  <g fill="#6f8ce9" stroke="#cf2f25" stroke-linecap="round" stroke-width=".26458">
   <g aria-label="2">
    <path d="m73.994 106.98h1.3081v-0.22542h-0.58738c-0.10478 0-0.2286 0.01-0.33972 0.019 0.47942-0.50165 0.8255-0.87948 0.8255-1.2605 0-0.35877-0.23178-0.5969-0.60642-0.5969-0.26352 0-0.4445 0.12383-0.61278 0.30798l0.14922 0.14922c0.11748-0.13652 0.26352-0.24447 0.4318-0.24447 0.25718 0 0.38418 0.1651 0.38418 0.39687 0 0.32703-0.3429 0.69215-0.9525 1.2986z" fill="#6f8ce9" stroke="none"/>
   </g>
   <g aria-label="3">
    <path d="m92.735 98.527c0.13652 0.14922 0.3429 0.28575 0.66675 0.28575 0.37148 0 0.66675-0.21908 0.66675-0.57785 0-0.2794-0.19368-0.4572-0.43815-0.51435v-0.0127c0.21908-0.08255 0.3683-0.23812 0.3683-0.4826 0-0.32702-0.254-0.51435-0.60642-0.51435-0.23812 0-0.42545 0.10795-0.58102 0.254l0.1397 0.1651c0.12065-0.12065 0.26352-0.20638 0.4318-0.20638 0.2159 0 0.34925 0.12382 0.34925 0.32068 0 0.21272-0.14288 0.37782-0.57468 0.37782v0.20002c0.4826 0 0.6477 0.16192 0.6477 0.40322 0 0.22542-0.17462 0.37148-0.4191 0.37148-0.23812 0-0.39688-0.1143-0.51752-0.2413z" fill="#6f8ce9" stroke="none"/>
   </g>
   <g aria-label="4">
    <path d="m99.793 101.54 0.47307-0.69215c0.0572-0.0984 0.1143-0.18732 0.1651-0.28575h0.0127c-6e-3 0.10795-0.0159 0.28258-0.0159 0.39053v0.58737zm1.1589 0h-0.27622v-1.2573h-0.2921l-0.86678 1.2954v0.17145h0.91123v0.5588h0.24765v-0.5588h0.27622z" fill="#6f8ce9" stroke="none"/>
   </g>
   <g aria-label="5">
    <path d="m104.83 112.92c0.1397 0.1397 0.33973 0.27623 0.66358 0.27623 0.35242 0 0.68262-0.24765 0.68262-0.6858s-0.28257-0.635-0.62865-0.635c-0.12382 0-0.2159 0.0318-0.31115 0.0825l0.054-0.60008h0.78422v-0.22542h-1.0128l-0.0667 0.97472 0.1397 0.0889c0.12065-0.0794 0.20638-0.12382 0.34608-0.12382 0.26035 0 0.4318 0.1651 0.4318 0.4445 0 0.28257-0.19685 0.46355-0.4445 0.46355-0.23813 0-0.39053-0.11113-0.51118-0.23178z" fill="#6f8ce9" stroke="none"/>
   </g>
  </g>
 </g>
</svg>
