<?xml version="1.0" encoding="UTF-8"?>
<svg width="112.58mm" height="48.286mm" version="1.1" viewBox="0 0 112.58 48.286" xmlns="http://www.w3.org/2000/svg" xmlns:cc="http://creativecommons.org/ns#" xmlns:dc="http://purl.org/dc/elements/1.1/" xmlns:rdf="http://www.w3.org/1999/02/22-rdf-syntax-ns#">
 <metadata>
  <rdf:RDF>
   <cc:Work rdf:about="">
    <dc:format>image/svg+xml</dc:format>
    <dc:type rdf:resource="http://purl.org/dc/dcmitype/StillImage"/>
    <dc:title/>
   </cc:Work>
  </rdf:RDF>
 </metadata>
 <path d="m48.917 7.9377h17.363" fill="none" stroke="#6f8ce9" stroke-linecap="round" stroke-width=".26458"/>
 <g>
  <g stroke-linecap="round" stroke-width=".26458">
   <path d="m9.4258 0.13229-4.1341 3.7042v7.9375l4.1341 3.7042h35.388l4.1341-3.7042v-7.9375l-4.1341-3.7042z" fill="#2f3744" stroke="#7b8694"/>
   <g fill="#e8eaec" aria-label="GET NEW GAME IDEAS">
    <path d="m9.7386 7.8031c0 0.81121 0.51858 1.2372 1.1705 1.2372 0.33708 0 0.63712-0.14076 0.81121-0.29263v-1.1113h-0.8853v0.4445h0.40005v0.41487c-0.05927 0.048154-0.15928 0.074083-0.25559 0.074083-0.45561 0-0.68157-0.28893-0.68157-0.78528 0-0.48525 0.2667-0.77788 0.63712-0.77788 0.20743 0 0.32226 0.070379 0.4445 0.1815l0.30004-0.33708c-0.16298-0.16298-0.41116-0.31485-0.75195-0.31485-0.65564 0-1.189 0.46673-1.189 1.2668z"/>
    <path d="m12.212 8.9958h1.552v-0.45932h-1.0038v-0.55563h0.82232v-0.45561h-0.82232v-0.48525h0.96679v-0.45932h-1.515z"/>
    <path d="m14.712 8.9958h0.54451v-1.9558h0.66305v-0.45932h-1.8743v0.45932h0.66675z"/>
    <path d="m17.066 8.9958h0.52229v-0.85566c0-0.28522-0.04445-0.60748-0.07038-0.87418h0.01482l0.23707 0.52599 0.62971 1.2039h0.55933v-2.4151h-0.51858v0.85196c0 0.28522 0.04445 0.626 0.07038 0.88159h-0.01482l-0.24077-0.5334-0.62971-1.2002h-0.55933z"/>
    <path d="m19.526 8.9958h1.552v-0.45932h-1.0038v-0.55563h0.82233v-0.45561h-0.82233v-0.48525h0.96679v-0.45932h-1.515z"/>
    <path d="m21.767 8.9958h0.67416l0.22966-1.0964c0.03704-0.18521 0.06668-0.38153 0.09631-0.55933h0.01482c0.02593 0.1778 0.05927 0.37412 0.09631 0.55933l0.23707 1.0964h0.68527l0.42968-2.4151h-0.52229l-0.16669 1.1298c-0.03334 0.24818-0.06668 0.50377-0.09631 0.76306h-0.01482c-0.048149-0.25929-0.096304-0.51858-0.14446-0.76306l-0.263-1.1298h-0.46302l-0.25929 1.1298c-0.04815 0.25188-0.09631 0.50747-0.14076 0.76306h-0.01482c-0.033334-0.25559-0.066671-0.51118-0.10001-0.76306l-0.16669-1.1298h-0.55933z"/>
    <path d="m25.221 7.8031c0 0.81121 0.51858 1.2372 1.1705 1.2372 0.33708 0 0.63712-0.14076 0.81121-0.29263v-1.1113h-0.8853v0.4445h0.40005v0.41487c-0.05927 0.048154-0.15928 0.074083-0.25559 0.074083-0.45561 0-0.68157-0.28893-0.68157-0.78528 0-0.48525 0.2667-0.77788 0.63712-0.77788 0.20743 0 0.32226 0.070379 0.4445 0.1815l0.30004-0.33708c-0.16298-0.16298-0.41116-0.31485-0.75195-0.31485-0.65564 0-1.189 0.46673-1.189 1.2668z"/>
    <path d="m28.173 7.9957 0.05927-0.22225c0.06668-0.24077 0.13335-0.52229 0.18891-0.77788h0.01482c0.06668 0.25188 0.12965 0.5371 0.19632 0.77788l0.05927 0.22225zm0.77788 1.0001h0.57785l-0.75936-2.4151h-0.65193l-0.75935 2.4151h0.55562l0.14817-0.57415h0.74083z"/>
    <path d="m29.778 8.9958h0.50377v-0.8853c0-0.23707-0.04445-0.58896-0.07038-0.82233h0.01482l0.19262 0.55933 0.37042 0.93716h0.21855l0.37412-0.93716 0.19632-0.55933h0.01482c-0.02593 0.23336-0.07038 0.58526-0.07038 0.82233v0.8853h0.51118v-2.4151h-0.57786l-0.39264 1.0853-0.14446 0.42228h-0.01482l-0.14446-0.42228-0.40375-1.0853h-0.57785z"/>
    <path d="m32.599 8.9958h1.552v-0.45932h-1.0038v-0.55563h0.82233v-0.45561h-0.82233v-0.48525h0.96679v-0.45932h-1.515z"/>
    <path d="m35.399 8.9958h0.54822v-2.4151h-0.54822z"/>
    <path d="m36.513 8.9958h0.7149c0.7075 0 1.1816-0.38894 1.1816-1.2187s-0.47413-1.1964-1.215-1.1964h-0.68157zm0.54822-0.4408v-1.5335h0.10372c0.40746 0 0.68527 0.1778 0.68527 0.75565s-0.27781 0.77788-0.68527 0.77788z"/>
    <path d="m38.865 8.9958h1.552v-0.45932h-1.0038v-0.55563h0.82233v-0.45561h-0.82233v-0.48525h0.96679v-0.45932h-1.515z"/>
    <path d="m41.398 7.9957 0.05927-0.22225c0.06667-0.24077 0.13335-0.52229 0.18891-0.77788h0.01482c0.06668 0.25188 0.12965 0.5371 0.19632 0.77788l0.05927 0.22225zm0.77788 1.0001h0.57785l-0.75935-2.4151h-0.65193l-0.75936 2.4151h0.55562l0.14817-0.57415h0.74083z"/>
    <path d="m42.847 8.6921c0.24818 0.22966 0.58156 0.34819 0.89641 0.34819 0.57415 0 0.90752-0.34819 0.90752-0.74824 0-0.34078-0.18521-0.5371-0.47784-0.65564l-0.30745-0.12594c-0.21114-0.085196-0.37042-0.13705-0.37042-0.28522 0-0.13705 0.12224-0.21855 0.30745-0.21855 0.19262 0 0.34449 0.070379 0.50377 0.19262l0.27411-0.34449c-0.20743-0.20743-0.50006-0.31856-0.77788-0.31856-0.50006 0-0.85937 0.31856-0.85937 0.71861 0 0.3519 0.23707 0.55933 0.48895 0.65934l0.31115 0.13335c0.21114 0.0889 0.34819 0.13705 0.34819 0.28893 0 0.14446-0.11112 0.23336-0.33708 0.23336-0.20002 0-0.42228-0.10372-0.59267-0.25188z"/>
   </g>
   <path d="m72.926 0.13229-4.1341 3.7042v7.9375l4.1341 3.7042h35.388l4.1341-3.7042v-7.9375l-4.1341-3.7042z" fill="#2f3744" stroke="#7b8694"/>
   <g fill="#e8eaec" aria-label="START NEW PROJECT">
    <path d="m73.727 8.6921c0.24818 0.22966 0.58156 0.34819 0.89641 0.34819 0.57415 0 0.90752-0.34819 0.90752-0.74824 0-0.34078-0.18521-0.5371-0.47784-0.65564l-0.30745-0.12594c-0.21114-0.085196-0.37042-0.13705-0.37042-0.28522 0-0.13705 0.12224-0.21855 0.30745-0.21855 0.19262 0 0.34449 0.070379 0.50377 0.19262l0.27411-0.34449c-0.20743-0.20743-0.50006-0.31856-0.77788-0.31856-0.50006 0-0.85937 0.31856-0.85937 0.71861 0 0.3519 0.23707 0.55933 0.48895 0.65934l0.31115 0.13335c0.21114 0.0889 0.34819 0.13705 0.34819 0.28893 0 0.14446-0.11112 0.23336-0.33708 0.23336-0.20002 0-0.42228-0.10372-0.59267-0.25188z"/>
    <path d="m76.339 8.9958h0.54451v-1.9558h0.66305v-0.45932h-1.8743v0.45932h0.66675z"/>
    <path d="m78.282 7.9957 0.05927-0.22225c0.06668-0.24077 0.13335-0.52229 0.18891-0.77788h0.01482c0.06668 0.25188 0.12965 0.5371 0.19632 0.77788l0.05927 0.22225zm0.77788 1.0001h0.57785l-0.75936-2.4151h-0.65193l-0.75936 2.4151h0.55563l0.14817-0.57415h0.74083z"/>
    <path d="m80.436 7.0141h0.27781c0.28522 0 0.4408 0.081492 0.4408 0.31856 0 0.23707-0.15558 0.3593-0.4408 0.3593h-0.27781zm1.3705 1.9817-0.54451-0.96679c0.25559-0.11483 0.42968-0.34078 0.42968-0.69638 0-0.57415-0.42228-0.75195-0.93345-0.75195h-0.87048v2.4151h0.54822v-0.87048h0.29633l0.46302 0.87048z"/>
    <path d="m82.568 8.9958h0.54451v-1.9558h0.66305v-0.45932h-1.8743v0.45932h0.66675z"/>
    <path d="m84.923 8.9958h0.52229v-0.85566c0-0.28522-0.04445-0.60748-0.07038-0.87418h0.01482l0.23707 0.52599 0.62971 1.2039h0.55933v-2.4151h-0.51858v0.85196c0 0.28522 0.04445 0.626 0.07038 0.88159h-0.01482l-0.24077-0.5334-0.62971-1.2002h-0.55933z"/>
    <path d="m87.383 8.9958h1.552v-0.45932h-1.0038v-0.55563h0.82233v-0.45561h-0.82233v-0.48525h0.96679v-0.45932h-1.515z"/>
    <path d="m89.623 8.9958h0.67416l0.22966-1.0964c0.03704-0.18521 0.06668-0.38153 0.09631-0.55933h0.01482c0.02593 0.1778 0.05927 0.37412 0.09631 0.55933l0.23707 1.0964h0.68527l0.42968-2.4151h-0.52229l-0.16669 1.1298c-0.03334 0.24818-0.06668 0.50377-0.09631 0.76306h-0.01482c-0.04815-0.25929-0.096304-0.51858-0.14446-0.76306l-0.263-1.1298h-0.46302l-0.25929 1.1298c-0.04815 0.25188-0.09631 0.50747-0.14076 0.76306h-0.01482c-0.033334-0.25559-0.066671-0.51118-0.10001-0.76306l-0.16669-1.1298h-0.55933z"/>
    <path d="m93.192 8.9958h0.54822v-0.81862h0.33338c0.51118 0 0.94456-0.25188 0.94456-0.81862 0-0.58526-0.41857-0.77788-0.94456-0.77788h-0.88159zm0.54822-1.252v-0.72972h0.30004c0.28892 0 0.4445 0.092604 0.4445 0.34449 0 0.25188-0.14446 0.38523-0.4445 0.38523z"/>
    <path d="m95.983 7.0141h0.27781c0.28522 0 0.4408 0.081492 0.4408 0.31856 0 0.23707-0.15558 0.3593-0.4408 0.3593h-0.27781zm1.3705 1.9817-0.54451-0.96679c0.25559-0.11483 0.42968-0.34078 0.42968-0.69638 0-0.57415-0.42228-0.75195-0.93345-0.75195h-0.87048v2.4151h0.54822v-0.87048h0.29633l0.46302 0.87048z"/>
    <path d="m98.695 9.0403c0.65193 0 1.0964-0.47413 1.0964-1.2631 0-0.78528-0.4445-1.2409-1.0964-1.2409-0.64823 0-1.0964 0.45191-1.0964 1.2409s0.4482 1.2631 1.0964 1.2631zm0-0.47043c-0.32597 0-0.5371-0.30745-0.5371-0.79269 0-0.48154 0.21114-0.77047 0.5371-0.77047 0.32967 0 0.5371 0.28893 0.5371 0.77047 0 0.48525-0.20743 0.79269-0.5371 0.79269z"/>
    <path d="m99.817 8.6032c0.16669 0.29263 0.41116 0.43709 0.78158 0.43709 0.5334 0 0.77417-0.38153 0.77417-0.84825v-1.6113h-0.54822v1.5669c0 0.32226-0.10371 0.42228-0.30004 0.42228-0.12223 0-0.24447-0.077788-0.33707-0.24077z"/>
    <path d="m101.92 8.9958h1.552v-0.45932h-1.0038v-0.55563h0.82232v-0.45561h-0.82232v-0.48525h0.96678v-0.45932h-1.515z"/>
    <path d="m103.84 7.8031c0 0.81121 0.51117 1.2372 1.1372 1.2372 0.30003 0 0.56673-0.12224 0.76676-0.3556l-0.30004-0.32967c-0.11853 0.12965-0.25929 0.21484-0.45932 0.21484-0.35189 0-0.58525-0.28893-0.58525-0.78528 0-0.48525 0.26299-0.77788 0.60007-0.77788 0.17039 0 0.28522 0.070379 0.40746 0.1815l0.30004-0.33708c-0.16299-0.16669-0.41487-0.31485-0.71491-0.31485-0.6223 0-1.152 0.46673-1.152 1.2668z"/>
    <path d="m106.53 8.9958h0.54451v-1.9558h0.66305v-0.45932h-1.8743v0.45932h0.66675z"/>
   </g>
   <path d="m72.926 29.236-4.1341 3.7042v7.9375l4.1341 3.7042h35.388l4.1341-3.7042v-7.9375l-4.1341-3.7042z" fill="#1d232d" stroke="#ff867f"/>
   <g fill="#ff867f" aria-label="TELL PEOPLE ABOUT IT">
    <path d="m72.769 38.1h0.54451v-1.9558h0.66305v-0.45932h-1.8743v0.45932h0.66675z"/>
    <path d="m74.35 38.1h1.552v-0.45932h-1.0038v-0.55563h0.82233v-0.45561h-0.82233v-0.48525h0.96679v-0.45932h-1.515z"/>
    <path d="m76.375 38.1h1.5002v-0.45932h-0.95197v-1.9558h-0.54822z"/>
    <path d="m78.285 38.1h1.5002v-0.45932h-0.95197v-1.9558h-0.54822z"/>
    <path d="m80.969 38.1h0.54822v-0.81862h0.33338c0.51118 0 0.94456-0.25188 0.94456-0.81862 0-0.58526-0.41857-0.77788-0.94456-0.77788h-0.88159zm0.54822-1.252v-0.72972h0.30004c0.28892 0 0.4445 0.0926 0.4445 0.34449 0 0.25188-0.14446 0.38523-0.4445 0.38523z"/>
    <path d="m83.212 38.1h1.552v-0.45932h-1.0038v-0.55563h0.82233v-0.45561h-0.82233v-0.48525h0.96679v-0.45932h-1.515z"/>
    <path d="m86.22 38.144c0.65193 0 1.0964-0.47413 1.0964-1.2631 0-0.78528-0.4445-1.2409-1.0964-1.2409-0.64823 0-1.0964 0.45191-1.0964 1.2409s0.4482 1.2631 1.0964 1.2631zm0-0.47043c-0.32597 0-0.5371-0.30745-0.5371-0.79269 0-0.48154 0.21114-0.77047 0.5371-0.77047 0.32967 0 0.5371 0.28892 0.5371 0.77047 0 0.48525-0.20743 0.79269-0.5371 0.79269z"/>
    <path d="m87.77 38.1h0.54822v-0.81862h0.33338c0.51118 0 0.94456-0.25188 0.94456-0.81862 0-0.58526-0.41857-0.77788-0.94456-0.77788h-0.88159zm0.54822-1.252v-0.72972h0.30004c0.28892 0 0.4445 0.0926 0.4445 0.34449 0 0.25188-0.14446 0.38523-0.4445 0.38523z"/>
    <path d="m90.013 38.1h1.5002v-0.45932h-0.95197v-1.9558h-0.54822z"/>
    <path d="m91.923 38.1h1.552v-0.45932h-1.0038v-0.55563h0.82232v-0.45561h-0.82232v-0.48525h0.96679v-0.45932h-1.515z"/>
    <path d="m95.23 37.1 0.05927-0.22225c0.06667-0.24077 0.13335-0.52229 0.18891-0.77788h0.01482c0.06668 0.25188 0.12965 0.5371 0.19632 0.77788l0.05927 0.22225zm0.77788 1.0001h0.57785l-0.75936-2.4151h-0.65193l-0.75936 2.4151h0.55562l0.14817-0.57415h0.74083z"/>
    <path d="m96.835 38.1h0.89641c0.52599 0 0.94086-0.21855 0.94086-0.7112 0-0.32226-0.1815-0.50377-0.52599-0.56674v-0.01482c0.28152-0.07408 0.40746-0.30745 0.40746-0.52229 0-0.46302-0.38894-0.60008-0.8927-0.60008h-0.82603zm0.54822-1.4409v-0.55192h0.25929c0.25188 0 0.37783 0.07408 0.37783 0.25559 0 0.1815-0.11853 0.29633-0.38523 0.29633zm0 1.0186v-0.63341h0.30374c0.30004 0 0.45191 0.0926 0.45191 0.30374 0 0.21855-0.15558 0.32967-0.45191 0.32967z"/>
    <path d="m100.05 38.144c0.65193 0 1.0964-0.47413 1.0964-1.2631 0-0.78528-0.4445-1.2409-1.0964-1.2409-0.64823 0-1.0964 0.45191-1.0964 1.2409s0.4482 1.2631 1.0964 1.2631zm0-0.47043c-0.32597 0-0.53711-0.30745-0.53711-0.79269 0-0.48154 0.21114-0.77047 0.53711-0.77047 0.32967 0 0.5371 0.28892 0.5371 0.77047 0 0.48525-0.20743 0.79269-0.5371 0.79269z"/>
    <path d="m101.59 36.981c0 0.81121 0.33708 1.1631 0.96308 1.1631 0.62601 0 0.95568-0.3519 0.95568-1.1631v-1.2965h-0.52599v1.352c0 0.47413-0.15928 0.63712-0.42969 0.63712-0.2704 0-0.41857-0.16298-0.41857-0.63712v-1.352h-0.54451z"/>
    <path d="m104.53 38.1h0.54451v-1.9558h0.66305v-0.45932h-1.8743v0.45932h0.66675z"/>
    <path d="m106.88 38.1h0.54821v-2.4151h-0.54821z"/>
    <path d="m108.47 38.1h0.54452v-1.9558h0.66304v-0.45932h-1.8743v0.45932h0.66675z"/>
   </g>
   <path d="m9.4258 29.236-4.1341 3.7042v7.9375l4.1341 3.7042h35.388l4.1341-3.7042v-7.9375l-4.1341-3.7042z" fill="#2f3744" stroke="#7b8694"/>
   <g fill="#e8eaec" aria-label="FINISH THE PROJECT">
    <path d="m10.118 38.1h0.54822v-0.93716h0.83344v-0.45932h-0.83344v-0.55933h0.9779v-0.45932h-1.5261z"/>
    <path d="m12.057 38.1h0.54822v-2.4151h-0.54822z"/>
    <path d="m13.171 38.1h0.52229v-0.85566c0-0.28522-0.04445-0.60748-0.07038-0.87418h0.01482l0.23707 0.52599 0.62971 1.2039h0.55933v-2.4151h-0.51858v0.85196c0 0.28522 0.04445 0.626 0.07038 0.88159h-0.01482l-0.24077-0.5334-0.62971-1.2002h-0.55933z"/>
    <path d="m15.631 38.1h0.54822v-2.4151h-0.54822z"/>
    <path d="m16.589 37.796c0.24818 0.22966 0.58156 0.34819 0.89641 0.34819 0.57415 0 0.90752-0.34819 0.90752-0.74824 0-0.34078-0.18521-0.5371-0.47784-0.65564l-0.30745-0.12594c-0.21114-0.0852-0.37042-0.13705-0.37042-0.28522 0-0.13706 0.12224-0.21855 0.30745-0.21855 0.19262 0 0.34449 0.07038 0.50377 0.19262l0.27411-0.34449c-0.20743-0.20743-0.50006-0.31856-0.77788-0.31856-0.50006 0-0.85937 0.31856-0.85937 0.71861 0 0.3519 0.23707 0.55933 0.48895 0.65934l0.31115 0.13335c0.21114 0.0889 0.34819 0.13705 0.34819 0.28892 0 0.14446-0.11112 0.23336-0.33708 0.23336-0.20002 0-0.42228-0.10372-0.59267-0.25188z"/>
    <path d="m18.8 38.1h0.54822v-1.0075h0.83344v1.0075h0.54451v-2.4151h-0.54451v0.92975h-0.83344v-0.92975h-0.54822z"/>
    <path d="m22.537 38.1h0.54451v-1.9558h0.66305v-0.45932h-1.8743v0.45932h0.66675z"/>
    <path d="m24.117 38.1h0.54822v-1.0075h0.83344v1.0075h0.54451v-2.4151h-0.54451v0.92975h-0.83344v-0.92975h-0.54822z"/>
    <path d="m26.606 38.1h1.552v-0.45932h-1.0038v-0.55563h0.82232v-0.45561h-0.82232v-0.48525h0.96679v-0.45932h-1.515z"/>
    <path d="m29.406 38.1h0.54822v-0.81862h0.33338c0.51118 0 0.94456-0.25188 0.94456-0.81862 0-0.58526-0.41857-0.77788-0.94456-0.77788h-0.88159zm0.54822-1.252v-0.72972h0.30004c0.28892 0 0.4445 0.0926 0.4445 0.34449 0 0.25188-0.14446 0.38523-0.4445 0.38523z"/>
    <path d="m32.197 36.118h0.27781c0.28522 0 0.4408 0.08149 0.4408 0.31856 0 0.23707-0.15558 0.3593-0.4408 0.3593h-0.27781zm1.3705 1.9817-0.54451-0.96679c0.25559-0.11483 0.42968-0.34078 0.42968-0.69638 0-0.57415-0.42228-0.75195-0.93345-0.75195h-0.87048v2.4151h0.54822v-0.87048h0.29633l0.46302 0.87048z"/>
    <path d="m34.909 38.144c0.65193 0 1.0964-0.47413 1.0964-1.2631 0-0.78528-0.4445-1.2409-1.0964-1.2409-0.64823 0-1.0964 0.45191-1.0964 1.2409s0.4482 1.2631 1.0964 1.2631zm0-0.47043c-0.32597 0-0.5371-0.30745-0.5371-0.79269 0-0.48154 0.21114-0.77047 0.5371-0.77047 0.32967 0 0.5371 0.28892 0.5371 0.77047 0 0.48525-0.20743 0.79269-0.5371 0.79269z"/>
    <path d="m36.031 37.707c0.16669 0.29263 0.41116 0.43709 0.78158 0.43709 0.5334 0 0.77417-0.38153 0.77417-0.84826v-1.6113h-0.54822v1.5669c0 0.32226-0.10372 0.42228-0.30004 0.42228-0.12224 0-0.24448-0.07779-0.33708-0.24077z"/>
    <path d="m38.138 38.1h1.552v-0.45932h-1.0038v-0.55563h0.82233v-0.45561h-0.82233v-0.48525h0.96679v-0.45932h-1.515z"/>
    <path d="m40.049 36.907c0 0.81121 0.51118 1.2372 1.1372 1.2372 0.30004 0 0.56674-0.12224 0.76676-0.3556l-0.30004-0.32967c-0.11853 0.12965-0.25929 0.21484-0.45932 0.21484-0.3519 0-0.58526-0.28892-0.58526-0.78528 0-0.48525 0.263-0.77788 0.60008-0.77788 0.17039 0 0.28522 0.07038 0.40746 0.1815l0.30004-0.33708c-0.16298-0.16669-0.41487-0.31486-0.7149-0.31486-0.6223 0-1.152 0.46673-1.152 1.2668z"/>
    <path d="m42.743 38.1h0.54451v-1.9558h0.66305v-0.45932h-1.8743v0.45932h0.66675z"/>
   </g>
  </g>
  <g transform="matrix(-.0021183 -.003669 .0037318 -.0021545 66.562 9.2884)" fill="#6f8ce9" stroke-width="123.85">
   <g fill="#6f8ce9" stroke-width="123.85">
    <path d="m486.41 221.41-364.07-208.5c-52.938-30.318-95.852-5.44-95.852 55.563v415.65c0 61.004 42.914 85.882 95.852 55.563l364.07-208.49c52.938-30.317 52.938-79.473 0-109.79z" fill="#6f8ce9" stroke-width="123.85"/>
   </g>
  </g>
 </g>
 <path d="m90.628 15.664v11.278" fill="none" stroke="#6f8ce9" stroke-linecap="round" stroke-width=".26458"/>
 <g transform="matrix(.003669 -.0021183 .0021545 .0037318 89.278 27.223)" fill="#6f8ce9" stroke-width="123.85">
  <g fill="#6f8ce9" stroke-width="123.85">
   <path d="m486.41 221.41-364.07-208.5c-52.938-30.318-95.852-5.44-95.852 55.563v415.65c0 61.004 42.914 85.882 95.852 55.563l364.07-208.49c52.938-30.317 52.938-79.473 0-109.79z" fill="#6f8ce9" stroke-width="123.85"/>
  </g>
 </g>
 <path d="m68.659 37.571h-10.319v10.583h-58.208v-40.217h3.9688" fill="none" stroke="#6f8ce9" stroke-linecap="square" stroke-width=".26458" style="paint-order:normal"/>
 <g transform="matrix(-.0021183 -.003669 .0037318 -.0021545 3.0618 9.2884)" fill="#6f8ce9" stroke-width="123.85">
  <g fill="#6f8ce9" stroke-width="123.85">
   <path d="m486.41 221.41-364.07-208.5c-52.938-30.318-95.852-5.44-95.852 55.563v415.65c0 61.004 42.914 85.882 95.852 55.563l364.07-208.49c52.938-30.317 52.938-79.473 0-109.79z" fill="#6f8ce9" stroke-width="123.85"/>
  </g>
 </g>
</svg>
