<?xml version="1.0" encoding="UTF-8"?>
<svg width="125.57mm" height="63.46mm" version="1.1" viewBox="0 0 125.57 63.46" xmlns="http://www.w3.org/2000/svg" xmlns:cc="http://creativecommons.org/ns#" xmlns:dc="http://purl.org/dc/elements/1.1/" xmlns:rdf="http://www.w3.org/1999/02/22-rdf-syntax-ns#">
 <metadata>
  <rdf:RDF>
   <cc:Work rdf:about="">
    <dc:format>image/svg+xml</dc:format>
    <dc:type rdf:resource="http://purl.org/dc/dcmitype/StillImage"/>
    <dc:title/>
   </cc:Work>
  </rdf:RDF>
 </metadata>
 <g transform="matrix(.2893 0 0 .2893 104.52 3.8541)" fill="#03ffb7" aria-label="SpaceWar!          Pong          Space Invaders         Pac-Man       Super Mario Bros.  Prince of Persia   Doom       Half-Life      World of Warcraft    Dragon Age     GTA 5            Scorn">
  <path d="m-254.72 202.83c2e-5 -61.274 49.673-110.95 110.95-110.95 61.274-2e-5 110.95 49.673 110.95 110.95" fill="none" stroke="#6f8ce9" stroke-linecap="round" stroke-width=".87471"/>
  <g fill="#ffc585" fill-rule="evenodd" stroke="#6f8ce9" stroke-width="1.0731">
   <path d="m-38.261 174.59-10.805 2.8951"/>
   <path d="m-49.163 148.25-9.6874 5.5931"/>
   <path d="m-66.51 125.63-7.9098 7.9098"/>
   <path d="m-89.121 108.27-5.5931 9.6874"/>
  </g>
  <g fill="#7affff" fill-rule="evenodd" stroke="#6f8ce9">
   <g stroke-width="1.0731">
    <path d="m-115.45 97.356-2.8952 10.805"/>
    <path d="m-143.72 93.628v11.186"/>
    <path d="m-171.98 97.341 2.8952 10.805"/>
    <path d="m-198.32 108.24 5.5932 9.6874"/>
   </g>
   <path d="m-220.94 125.59 7.9099 7.9098" stroke-width=".91458"/>
   <g stroke-width="1.0731">
    <path d="m-238.3 148.2 9.6875 5.593"/>
    <path d="m-249.21 174.54 10.805 2.8951"/>
    <path d="m-252.94 202.8 11.186-1e-4"/>
   </g>
  </g>
  <g fill="#e9e56f" stroke-width=".97555px" aria-label="2005">
   <path d="m-238.45 205.88h5.2752v-0.90908h-2.3687c-0.42254 0-0.92189 0.0384-1.37 0.0768 1.9334-2.023 3.329-3.5467 3.329-5.0832 0-1.4468-0.93469-2.4072-2.4456-2.4072-1.0627 0-1.7926 0.49936-2.4712 1.242l0.60179 0.60179c0.47375-0.55057 1.0627-0.98591 1.7413-0.98591 1.0371 0 1.5493 0.66581 1.5493 1.6005 0 1.3188-1.3828 2.7913-3.8412 5.2368z"/>
   <path d="m-229.42 206.04c1.6261 0 2.612-1.5237 2.612-4.2637 0-2.7401-0.9859-4.2125-2.612-4.2125-1.6389 0-2.6248 1.4725-2.6248 4.2125 0 2.74 0.98591 4.2637 2.6248 4.2637zm0-0.84507c-0.9603 0-1.6005-1.0243-1.6005-3.4187 0-2.3944 0.6402-3.3674 1.6005-3.3674 0.94749 0 1.5877 0.9731 1.5877 3.3674 0 2.3943-0.6402 3.4187-1.5877 3.4187z"/>
   <path d="m-223.07 206.04c1.6261 0 2.612-1.5237 2.612-4.2637 0-2.7401-0.98591-4.2125-2.612-4.2125-1.6389 0-2.6248 1.4725-2.6248 4.2125 0 2.74 0.98591 4.2637 2.6248 4.2637zm0-0.84507c-0.9603 0-1.6005-1.0243-1.6005-3.4187 0-2.3944 0.6402-3.3674 1.6005-3.3674 0.9475 0 1.5877 0.9731 1.5877 3.3674 0 2.3943-0.6402 3.4187-1.5877 3.4187z"/>
   <path d="m-219.59 204.92c0.56338 0.56338 1.37 1.114 2.676 1.114 1.4212 0 2.7529-0.99871 2.7529-2.7657 0-1.767-1.1396-2.5608-2.5352-2.5608-0.49936 0-0.87068 0.12804-1.2548 0.33291l0.21767-2.42h3.1626v-0.90908h-4.0845l-0.26888 3.9308 0.56338 0.35851c0.48655-0.3201 0.83226-0.49936 1.3956-0.49936 1.0499 0 1.7414 0.66581 1.7414 1.7926 0 1.1396-0.79385 1.8694-1.7926 1.8694-0.9603 0-1.5749-0.44814-2.0614-0.9347z"/>
  </g>
  <path d="m-342.67 201.51c6e-5 -109.26 88.574-197.84 197.84-197.84 109.26-6.3e-5 197.84 88.574 197.84 197.84" fill="none" stroke="#6f8ce9" stroke-linecap="round" stroke-width=".47838"/>
  <g transform="matrix(2.5637 0 0 2.5637 -465.46 -430.89)" fill="#e9e56f" stroke-width=".47967px" aria-label="Cave Story                  Braid        Minecraft           Limbo                                     FEZ                     Undertale           Owlboy            Figment                  Inmost">
   <path d="m44.242 246.53c0.91601 0.0137 1.4632-0.50468 1.4738-1.2109 0.0053-0.35528-0.14032-0.63575-0.39387-0.8579l-0.22132 0.19791c0.19848 0.18279 0.30682 0.38136 0.30285 0.64674-8e-3 0.53505-0.45825 0.86653-1.1645 0.85595-0.69771-0.0105-1.129-0.37228-1.121-0.90733 0.0035-0.23114 0.10889-0.40938 0.26951-0.55682l-0.22385-0.20458c-0.18656 0.16418-0.35319 0.42713-0.3582 0.761-0.01078 0.71911 0.53338 1.2624 1.4365 1.276z"/>
   <path d="m45.153 244.06c0.37208 0.0162 0.60159-0.23513 0.6169-0.58582 0.0112-0.25661-0.11558-0.49354-0.26932-0.70164l3.73e-4 -9e-3 0.24936-0.0191 0.0127-0.29083-1.2745-0.0556c-0.5175-0.0226-0.8647 0.1765-0.88691 0.68545-0.01456 0.33359 0.11816 0.63076 0.23378 0.82863l0.24994-0.13049c-0.1041-0.16738-0.20597-0.38607-0.19532-0.62985 0.01475-0.33787 0.27528-0.41648 0.54044-0.40491 0.05972 0.8896 0.26922 1.293 0.72256 1.3128zm-0.01054-0.34754c-0.26516-0.0116-0.42597-0.25427-0.48107-0.95513l0.57737 0.0252c0.17085 0.20885 0.26194 0.37994 0.25316 0.58095-9e-3 0.20529-0.11424 0.35923-0.34946 0.34897z"/>
   <path d="m45.834 241.35 0.0286-0.40997-2.0242-0.87929-0.02413 0.34591 1.1513 0.4751c0.20082 0.0741 0.4053 0.15701 0.59758 0.2305l-0.0012 0.0171c-0.20091 0.0504-0.41493 0.10409-0.62409 0.14958l-1.2061 0.31067-0.02532 0.36299z"/>
   <path d="m44.902 239.87c0.67757 0.0648 1.1244-0.33542 1.1774-0.8894 0.0269-0.28126-0.04992-0.51223-0.14786-0.70221l-0.24194 0.10157c0.08334 0.16279 0.13137 0.3351 0.11262 0.53112-0.0379 0.39632-0.34483 0.63789-0.79473 0.62067l0.13367-1.3978c-0.05032-0.0134-0.1181-0.0242-0.19054-0.0311-0.59234-0.0567-1.0001 0.20538-1.0507 0.7338-0.04524 0.47302 0.32452 0.96853 1.0021 1.0333zm-0.12507-0.356c-0.41355-0.0825-0.62692-0.36958-0.59921-0.65936 0.03097-0.32387 0.28328-0.48896 0.70517-0.44861z"/>
   <path d="m45.876 236.98c0.28286-0.20814 0.48976-0.52586 0.54229-0.91618 0.0788-0.58549-0.22424-0.99774-0.66547-1.0571-0.41154-0.0554-0.63614 0.16924-0.81954 0.47284l-0.22338 0.37597c-0.12246 0.20381-0.2574 0.43618-0.52468 0.40021-0.25032-0.0337-0.37932-0.26271-0.33706-0.57666 0.03426-0.25456 0.16406-0.44874 0.34812-0.59675l-0.20398-0.21751c-0.22991 0.16775-0.40932 0.44165-0.45385 0.77258-0.06795 0.50487 0.19576 0.92048 0.62003 0.97758 0.40729 0.0548 0.64781-0.22382 0.79295-0.46778l0.22762-0.3754c0.1542-0.24705 0.2707-0.43871 0.55496-0.40045 0.27153 0.0365 0.42484 0.27746 0.37574 0.64233-0.0394 0.29274-0.21652 0.54967-0.45124 0.7211z"/>
   <path d="m45.951 234.45c0.40592 0.0642 0.7084-0.0396 0.77798-0.47935 0.02007-0.12684 0.0041-0.2724-0.01589-0.39258l-0.27286 0.0262c0.01467 0.0717 0.02954 0.16937 0.01817 0.24125-0.03747 0.23678-0.19394 0.29437-0.44764 0.25423l-1.1416-0.18064 0.08765-0.55391-0.2833-0.0448-0.08765 0.55391-0.57505-0.091-0.04617 0.29175 0.56836 0.13327-0.02971 0.3247 0.26215 0.0415 0.04817-0.30444z"/>
   <path d="m45.752 233.19c0.67802 0.12373 1.1511-0.25119 1.2426-0.75234 0.09146-0.50115-0.21873-1.019-0.89676-1.1428-0.68645-0.12527-1.1596 0.24966-1.251 0.75081-0.09146 0.50115 0.21873 1.019 0.90518 1.1443zm0.06533-0.35797c-0.47167-0.0861-0.74792-0.38453-0.68413-0.73407 0.06456-0.35375 0.42766-0.53118 0.89933-0.4451 0.46746 0.0853 0.74027 0.37878 0.67571 0.73254-0.06379 0.34954-0.42345 0.53194-0.8909 0.44663z"/>
   <path d="m47.229 230.94 0.07152-0.34367-1.3076-0.27213c-0.31489-0.20983-0.39788-0.44135-0.36212-0.61319 0.01744-0.0838 0.03961-0.12731 0.07452-0.19l-0.2878-0.12986c-0.04329 0.0609-0.06895 0.1212-0.08727 0.20922-0.04797 0.23051 0.07187 0.47408 0.29875 0.66559l-0.0026 0.0126-0.37492-0.0474-0.05931 0.285z"/>
   <path d="m48.081 229.66 0.2556 0.12957c0.04049-0.0609 0.07554-0.13629 0.09681-0.22804 0.09475-0.40868-0.16134-0.68778-0.52881-0.92238l-2.0166-1.2717-0.07735 0.33362 1.0377 0.6229c0.16675 0.0958 0.36173 0.20251 0.53169 0.30343l-0.0039 0.0167c-0.20216 0.019-0.42712 0.0416-0.61677 0.0635l-1.2175 0.15278-0.08218 0.35447 2.2195-0.34235 0.1395 0.0807c0.23088 0.14141 0.38053 0.32991 0.32736 0.55928-0.0116 0.05-0.04279 0.10873-0.06497 0.14753z"/>
   <path d="m53.232 212.86 0.39351-0.80828c0.27359-0.56195 0.22224-1.0726-0.27428-1.3143-0.34641-0.16865-0.65149-0.0505-0.88912 0.29084l-0.0154-7e-3c0.06918-0.3377-0.08472-0.5888-0.33491-0.7106-0.44263-0.21549-0.79011 0.0581-1.0393 0.57005l-0.36541 0.75055zm-1.2898-1.0279-0.82368-0.40101 0.18926-0.38874c0.18926-0.38875 0.40405-0.53653 0.67732-0.40348 0.28098 0.13679 0.34686 0.39264 0.13886 0.81988zm1.1932 0.5809-0.95455-0.46472 0.21362-0.43878c0.2155-0.44263 0.47596-0.61579 0.78773-0.464 0.34256 0.16677 0.37669 0.49764 0.16682 0.92872z"/>
   <path d="m54.331 210.64 0.16136-0.31175-1.1862-0.61394c-0.24682-0.28681-0.26445-0.53214-0.18377-0.68801 0.03936-0.076 0.07241-0.11195 0.1229-0.16295l-0.24225-0.2025c-0.0581 0.0471-0.09902 0.0982-0.14034 0.17802-0.10823 0.2091-0.05834 0.47593 0.10864 0.72142l-0.0059 0.0114-0.34834-0.14655-0.13381 0.25853z"/>
   <path d="m54.446 209.25c0.32681 0.17861 0.64363 0.0542 0.81197-0.25387 0.12318-0.22539 0.11383-0.49393 0.06758-0.7485l0.0041-8e-3 0.23225 0.0928 0.1396-0.25544-1.1194-0.61179c-0.45454-0.24841-0.85395-0.22278-1.0983 0.22425-0.16013 0.293-0.17202 0.61825-0.15546 0.84683l0.28187-7e-3c-0.01966-0.19612-0.01467-0.43733 0.10235-0.65145 0.16219-0.29676 0.43069-0.25246 0.66359-0.12518-0.33857 0.82481-0.32835 1.2792 0.06984 1.4968zm0.14375-0.3166c-0.2329-0.12728-0.27025-0.41601-0.01074-1.0694l0.50713 0.27716c0.06128 0.26278 0.06761 0.4565-0.02888 0.63306-0.09854 0.18031-0.2609 0.27208-0.46751 0.15916z"/>
   <path d="m53.943 206.09c0.06814-0.11884 0.03968-0.25853-0.07544-0.32454-0.11884-0.0682-0.25006-0.02-0.3182 0.0988-0.06814 0.11884-0.04339 0.2564 0.07544 0.32454 0.11512 0.066 0.25006 0.02 0.3182-0.0988zm2.0868 1.4038 0.17462-0.30452-1.8048-1.0349-0.17462 0.30452z"/>
   <path d="m55.59 206.18c0.59402 0.3579 1.1059 0.27147 1.3754-0.17587 0.12593-0.20901 0.12347-0.47038 0.07175-0.69146l0.0066-0.011 0.22447 0.10026 0.15023-0.24934-2.6107-1.573-0.18337 0.30434 0.68569 0.41313 0.31318 0.16871c-0.22334 0.0803-0.38208 0.16962-0.5058 0.37496-0.24523 0.40701-0.10681 0.99019 0.47254 1.3393zm0.18412-0.31389c-0.40701-0.24523-0.54504-0.63826-0.37272-0.92427 0.08837-0.14667 0.22145-0.25141 0.4477-0.32l0.93136 0.56115c0.07663 0.24608 0.07114 0.43769-0.02827 0.6027-0.18779 0.31167-0.55271 0.3367-0.97806 0.0804z"/>
   <path d="m61.716 198.87 0.20295-0.25974-1.2177-0.9515c-0.19565-0.15287-0.47458-0.33822-0.68077-0.4776l0.01054-0.0135 0.62956 0.20941 1.4891 0.47903 0.12652-0.16191-0.82492-1.3291-0.35544-0.56023 0.01054-0.0135c0.18511 0.16637 0.42977 0.39557 0.62542 0.54844l1.2177 0.95151 0.20822-0.26649-2.2129-1.729-0.2583 0.33058 0.85528 1.3528 0.33077 0.50836-0.01054 0.0135-0.5759-0.19465-1.5221-0.49938-0.26094 0.33396z"/>
   <path d="m61.804 194.73c0.08712-0.10571 0.08251-0.2482-0.0199-0.3326-0.10572-0.0871-0.24315-0.0617-0.33028 0.044-0.08712 0.10571-0.08581 0.24548 0.0199 0.3326 0.10241 0.0844 0.24315 0.0617 0.33028-0.044zm1.8215 1.7342 0.22325-0.27089-1.6055-1.3232-0.22325 0.27089z"/>
   <path d="m64.296 195.65 0.22896-0.26609-1.1422-0.98287c-0.02218-0.29582-0.01161-0.47874 0.128-0.64099 0.1787-0.20767 0.38344-0.18963 0.67872 0.0645l0.96374 0.82929 0.22896-0.26608-0.99943-0.86001c-0.40237-0.34624-0.74497-0.38126-1.0298-0.0503-0.18708 0.21741-0.20988 0.48017-0.18905 0.75788l-0.0084 0.01-0.24669-0.17274-0.18987 0.22065z"/>
   <path d="m64.961 193.3c0.50332 0.45822 1.1009 0.40596 1.4755-6e-3 0.19021-0.20893 0.26726-0.43982 0.30283-0.65058l-0.25451-0.0638c-0.03094 0.18025-0.09585 0.34693-0.22842 0.49254-0.26802 0.2944-0.6585 0.30362-1.0082 0.02l0.94527-1.0383c-0.03222-0.0409-0.07999-0.0902-0.1338-0.13918-0.44001-0.40059-0.92348-0.43549-1.2808-0.043-0.31989 0.35138-0.3212 0.96964 0.18212 1.4279zm0.11343-0.35987c-0.2814-0.31409-0.28-0.67174-0.08403-0.88699 0.21902-0.24058 0.51993-0.22136 0.83332 0.064z"/>
   <path d="m66.414 191.71c0.49765 0.47683 1.0783 0.44626 1.4604 0.0475 0.17178-0.17928 0.26345-0.42346 0.27321-0.67497l-0.2765-0.0456c-0.0055 0.16665-0.04994 0.35532-0.18617 0.4975-0.26359 0.2751-0.67608 0.24153-1.0192-0.0872-0.34619-0.33171-0.39156-0.75462-0.13093-1.0266 0.11551-0.12055 0.26-0.15997 0.42316-0.17557l-0.04239-0.2837c-0.19356 0.0102-0.41029 0.0693-0.59984 0.26715-0.37021 0.38637-0.40557 0.99873 0.09826 1.4815z"/>
   <path d="m68.624 190.92 0.24809-0.24834-0.94493-0.94395c-0.14851-0.34803-0.09112-0.5872 0.03292-0.71137 0.06051-0.0606 0.10288-0.0848 0.16643-0.11814l-0.16965-0.26629c-0.06961 0.0273-0.12408 0.0636-0.18761 0.12723-0.1664 0.16658-0.19956 0.436-0.11465 0.7205l-0.0091 9e-3 -0.2877-0.24504-0.20573 0.20595z"/>
   <path d="m69.154 189.63c0.25754 0.26904 0.59715 0.24618 0.85073 3e-3 0.18554-0.17762 0.25781-0.43643 0.29066-0.69307l0.0062-6e-3 0.19334 0.15864 0.21028-0.2013-0.88215-0.92154c-0.35819-0.37418-0.74667-0.47047-1.1147-0.1182-0.24121 0.2309-0.35084 0.53734-0.40416 0.76023l0.27078 0.0786c0.04054-0.19289 0.1182-0.42131 0.29447-0.59004 0.2443-0.23386 0.48686-0.11048 0.67039 0.0813-0.57204 0.68389-0.69965 1.1201-0.38587 1.4479zm0.23272-0.25833c-0.18354-0.19173-0.13186-0.47824 0.313-1.0226l0.39963 0.41748c-0.02101 0.26901-0.07353 0.45558-0.21888 0.59471-0.14844 0.1421-0.33094 0.1805-0.49375 0.0104z"/>
   <path d="m72.529 186.84c-0.03366 0.0649-0.08352 0.15028-0.13756 0.19903-0.17801 0.16056-0.33908 0.10983-0.51111-0.0809l-0.77417-0.85827 0.4196-0.37848-0.19211-0.21298-0.4196 0.37848-0.38995-0.43231-0.21616 0.19498 0.35816 0.46098-0.56582 0.51038-0.22078-0.24476c-0.17777-0.19709-0.19959-0.36189-0.05337-0.49379 0.05722-0.0516 0.12908-0.0934 0.20924-0.11955l-0.12342-0.25188c-0.09574 0.0345-0.20799 0.0954-0.30336 0.18139-0.30834 0.27813-0.27362 0.60424 0.01025 0.91894l0.22078 0.24477-0.19546 0.20513 0.17777 0.19709 0.2098-0.18924 1.2014 1.3319 0.26066-0.23512-1.2014-1.3319 0.55311-0.49891 0.7713 0.85509c0.27526 0.30517 0.57576 0.41461 0.90635 0.11641 0.09536-0.086 0.17446-0.20925 0.23448-0.31527z"/>
   <path d="m80.616 180.97 1.3195-0.87619-0.16813-0.2532-1.02 0.67727-1.3853-2.0863-0.29956 0.19892z"/>
   <path d="m81.124 177.64c0.11558-0.0735 0.15533-0.21044 0.0841-0.32241-0.07353-0.11558-0.21208-0.13399-0.32766-0.0605-0.11558 0.0735-0.15762 0.20683-0.08409 0.32241 0.07123 0.11197 0.21208 0.13399 0.32766 0.0605zm1.1948 2.2131 0.29618-0.18842-1.1167-1.7554-0.29618 0.18842z"/>
   <path d="m83.203 179.28 0.30151-0.17977-0.77166-1.2943c0.05585-0.2825 0.1518-0.46431 0.28418-0.54323 0.22797-0.13592 0.4201-0.0561 0.61959 0.27852l0.65109 1.0921 0.30151-0.17976-0.77166-1.2943c0.05585-0.2825 0.14445-0.45992 0.28418-0.54322 0.2243-0.13373 0.41642-0.0539 0.61592 0.2807l0.65109 1.0921 0.30151-0.17977-0.6752-1.1325c-0.27184-0.45594-0.59302-0.59339-0.96072-0.37417-0.21694 0.12934-0.31749 0.37867-0.38444 0.69271-0.20069-0.16942-0.4245-0.21042-0.69659-0.0482-0.21326 0.12715-0.32187 0.37132-0.37546 0.63254l-0.01103 7e-3 -0.17919-0.24205-0.25004 0.14907z"/>
   <path d="m86.261 177.49 0.24791-0.13552-0.07227-0.19468 0.01127-6e-3c0.23955 0.0545 0.47629 0.0324 0.64533-0.06 0.41695-0.22793 0.58964-0.79557 0.24877-1.4191-0.30801-0.56344-0.75886-0.79022-1.2321-0.53149-0.20284 0.11088-0.34613 0.3307-0.43132 0.56754l-0.17319-0.33466-0.39836-0.72871-0.30802 0.16838zm0.08625-0.57405-0.52362-0.95785c0.08449-0.25598 0.19878-0.43067 0.35279-0.51486 0.34558-0.18891 0.62865 8e-3 0.84836 0.40954 0.24641 0.45075 0.17469 0.84611-0.12582 1.0104-0.1202 0.0657-0.31422 0.10347-0.55172 0.0528z"/>
   <path d="m87.742 175.51c0.3125 0.61431 0.89746 0.76342 1.3515 0.53244 0.45405-0.23097 0.678-0.79157 0.3655-1.4059-0.31638-0.62194-0.90134-0.77105-1.3554-0.54007-0.45405 0.23097-0.678 0.79156-0.36162 1.4135zm0.32432-0.16498c-0.21739-0.42735-0.14742-0.82796 0.16928-0.98907 0.32051-0.16304 0.6817 0.0182 0.89908 0.4456 0.21545 0.42353 0.14735 0.81839-0.17316 0.98143-0.31669 0.1611-0.67975-0.0144-0.8952-0.43796z"/>
   <path d="m121.12 167.5 0.35931-0.0143-0.05-1.2576 1.0694-0.0426-0.0119-0.29942-1.0694 0.0426-0.0378-0.9496 1.2619-0.0502-0.0119-0.29942-1.6212 0.0645z"/>
   <path d="m123.21 167.43 1.6608-0.0215-4e-3 -0.30392-1.3013 0.0169-0.0132-1.0188 1.0616-0.0138-4e-3 -0.30392-1.0616 0.0138-0.0114-0.88179 1.2585-0.0163-4e-3 -0.29964-1.618 0.021z"/>
   <path d="m125.25 167.41 1.9348 0.0289 5e-3 -0.30391-1.4939-0.0223 1.5153-2.2722 3e-3 -0.20975-1.7892-0.0267-4e-3 0.29962 1.3483 0.0201-1.5153 2.2722z"/>
   <path d="m145.88 168.98c-0.24463 0.86951 0.0922 1.2845 0.64443 1.4398 0.5522 0.15535 1.056-0.0231 1.3006-0.8926l0.44637-1.5866-0.32967-0.0927-0.44869 1.5948c-0.18318 0.6511-0.52549 0.77715-0.88401 0.67628-0.35028-0.0985-0.56841-0.38227-0.38522-1.0334l0.44868-1.5948-0.34616-0.0974z"/>
   <path d="m148.19 170.85 0.33466 0.10593 0.45472-1.4366c0.26329-0.13669 0.43564-0.19888 0.63971-0.13429 0.2612 0.0827 0.3251 0.27802 0.20754 0.64942l-0.38367 1.2122 0.33467 0.10593 0.39788-1.257c0.16019-0.50608 0.0577-0.83487-0.35859-0.96664-0.27345-0.0866-0.52402-4e-3 -0.77119 0.12411l-0.0122-4e-3 0.0619-0.29474-0.27753-0.0878z"/>
   <path d="m150.62 170.54c-0.22898 0.65461-0.0398 1.138 0.45318 1.3105 0.23033 0.0806 0.48568 0.0248 0.69153-0.071l0.0121 4e-3 -0.0523 0.24022 0.27478 0.0961 1.0064-2.8771-0.33538-0.11731-0.26432 0.75563-0.10115 0.34104c-0.12429-0.20221-0.24411-0.33936-0.4704-0.41852-0.44853-0.15689-0.99113 0.0978-1.2144 0.73622zm0.34488 0.1161c0.15689-0.44853 0.51343-0.66396 0.82862-0.55371 0.16163 0.0565 0.29135 0.16541 0.40473 0.37287l-0.35902 1.0264c-0.22524 0.1253-0.41393 0.15908-0.59576 0.0955-0.34347-0.12014-0.44253-0.47226-0.27857-0.94099z"/>
   <path d="m152.88 171.34c-0.24299 0.63581 0.0237 1.1731 0.54355 1.3718 0.26392 0.10086 0.50701 0.0884 0.71622 0.0446l-0.0334-0.26026c-0.17911 0.037-0.35798 0.0373-0.54193-0.033-0.37189-0.14213-0.52295-0.50233-0.38647-0.93138l1.3116 0.50127c0.0263-0.0449 0.0548-0.10738 0.0808-0.17536 0.21243-0.55584 0.0685-1.0187-0.42733-1.2082-0.44386-0.16964-1.02 0.0547-1.263 0.69054zm0.37645-0.0257c0.18976-0.3766 0.52327-0.50578 0.79519-0.40186 0.30391 0.11615 0.3958 0.40332 0.2445 0.79921z"/>
   <path d="m154.64 173.13 0.32494 0.13279 0.50528-1.2364c0.26357-0.2715 0.50633-0.31103 0.6688-0.24463 0.0793 0.0324 0.11799 0.0621 0.17329 0.10782l0.18001-0.2594c-0.0521-0.0537-0.10665-0.0898-0.18987-0.12385-0.21795-0.0891-0.47924-0.0155-0.7088 0.17279l-0.0119-5e-3 0.11478-0.36006-0.26947-0.11012z"/>
   <path d="m156.32 173.13c-0.16234 0.37754-0.13631 0.69629 0.27269 0.87216 0.11798 0.0507 0.26298 0.0711 0.38439 0.0814l0.0419-0.27088c-0.0731-3e-3 -0.17143-0.0131-0.23828-0.0419-0.22024-0.0947-0.23746-0.26055-0.136-0.49651l0.45659-1.0618 0.51519 0.22154 0.1133-0.2635-0.51518-0.22153 0.22998-0.53485-0.27136-0.11668-0.26931 0.51794-0.30734-0.10886-0.10485 0.24383 0.28316 0.12176z"/>
   <path d="m157.4 173.71c-0.15481 0.33874-8e-3 0.64586 0.31122 0.79177 0.23361 0.10676 0.50081 0.0783 0.75142 0.0139l8e-3 4e-3 -0.076 0.23828 0.26476 0.121 0.53026-1.1603c0.21531-0.47112 0.1612-0.86768-0.30213-1.0794-0.3037-0.13879-0.62896-0.12741-0.85577-0.0946l0.0271 0.28066c0.19422-0.0336 0.43516-0.0459 0.65709 0.0555 0.30759 0.14058 0.2826 0.41156 0.17227 0.65296-0.84689-0.27879-1.2994-0.23613-1.488 0.17658zm0.32605 0.12077c0.11033-0.2414 0.39565-0.29927 1.0659-0.0871l-0.24022 0.52563c-0.25774 0.0799-0.45051 0.10005-0.63351 0.0164-0.18689-0.0854-0.29002-0.2408-0.19216-0.45495z"/>
   <path d="m159.44 174.79c-0.13206 0.27376-0.10821 0.47063 0.13085 0.58595 0.0848 0.0409 0.14438 0.0554 0.19609 0.0566l0.0729-0.25951c-0.0384-9e-3 -0.0538-0.0165-0.0731-0.0258-0.0463-0.0223-0.0701-0.0813-0.0217-0.18158l1.1532-2.3905-0.31617-0.15252z"/>
   <path d="m160.57 174.65c-0.30816 0.60691-0.0991 1.1692 0.39708 1.4211 0.25192 0.12792 0.49498 0.14091 0.70763 0.11925l-6e-3 -0.26232c-0.18199 0.018-0.35992-3.2e-4 -0.53551-0.0895-0.35498-0.18025-0.46753-0.55427-0.28693-0.96669l1.252 0.63571c0.0309-0.0419 0.0657-0.10106 0.0987-0.16595 0.2694-0.53057 0.1747-1.006-0.29861-1.2463-0.42369-0.21514-1.0201-0.0523-1.3283 0.55464zm0.37707 0.0138c0.22811-0.35468 0.5733-0.44827 0.83286-0.31648 0.29009 0.1473 0.35144 0.44251 0.15957 0.8204z"/>
   <path d="m171.05 182.2c0.57124 0.40814 1.3038 0.23705 1.8289-0.49789 0.52013-0.72798 0.43464-1.4625-0.1366-1.8707-0.57472-0.41064-1.2948-0.25697-1.8175 0.4745-0.52511 0.73494-0.44957 1.4834 0.12515 1.894zm0.18167-0.25428c-0.41101-0.29366-0.41541-0.85451-7e-3 -1.4257 0.40565-0.56776 0.92521-0.72793 1.3362-0.43426 0.40753 0.29117 0.42437 0.8346 0.0187 1.4024-0.40814 0.57124-0.94015 0.74882-1.3477 0.45764z"/>
   <path d="m172.76 183.39 0.32531 0.25112 0.91056-0.70318c0.16438-0.12187 0.3186-0.25159 0.48405-0.38886l0.0136 0.0105c-0.0875 0.19744-0.17473 0.37347-0.2544 0.56074l-0.44553 1.0676 0.33887 0.26159 1.7118-1.3068-0.26432-0.20404-0.97565 0.76649c-0.15422 0.12972-0.29982 0.25528-0.45481 0.379l-0.0136-0.0105c0.0804-0.18127 0.15826-0.35915 0.23793-0.54642l0.47752-1.151-0.2711-0.20927-0.98921 0.75603c-0.15838 0.1211-0.30998 0.24743-0.46497 0.37115l-0.0136-0.0105c0.0872-0.17603 0.17182-0.34867 0.25488-0.53333l0.49107-1.1406-0.28465-0.21974z"/>
   <path d="m175.19 184.76c-0.19196 0.23566-0.21442 0.43269-9e-3 0.60032 0.073 0.0595 0.1276 0.0874 0.17763 0.10052l0.13111-0.23553c-0.0353-0.0177-0.0485-0.0285-0.0651-0.042-0.0398-0.0324-0.0493-0.0954 0.021-0.18167l1.6763-2.0578-0.27217-0.2217z"/>
   <path d="m175.77 185.77 0.21513 0.18316 0.15603-0.13703 0.01 8e-3c0.0347 0.24319 0.13988 0.45644 0.28656 0.58132 0.3618 0.30805 0.95369 0.26662 1.4144-0.27445 0.41628-0.48893 0.46709-0.99104 0.0564-1.3407-0.17601-0.14986-0.4325-0.2052-0.68415-0.20019l0.25073-0.28128 0.53839-0.63234-0.26728-0.22757zm0.567-0.12446 0.70768-0.83117c0.26927-0.0125 0.47326 0.0319 0.6069 0.14565 0.29987 0.25532 0.2174 0.58991-0.0796 0.93867-0.33302 0.39114-0.72792 0.46535-0.98868 0.24333-0.10431-0.0888-0.20887-0.25654-0.24635-0.49648z"/>
   <path d="m178.16 186.45c-0.462 0.51145-0.39215 1.1111-0.0141 1.4526 0.37802 0.34148 0.98162 0.35023 1.4436-0.16122 0.46775-0.5178 0.3979-1.1174 0.0199-1.4589-0.37803-0.34149-0.98163-0.35024-1.4494 0.16756zm0.27002 0.24392c0.3214-0.35579 0.72056-0.43365 0.98423-0.19547 0.26684 0.24105 0.22664 0.64317-0.0948 0.99896-0.31852 0.35262-0.71164 0.43017-0.97848 0.18912-0.26366-0.23818-0.22951-0.64 0.089-0.99261z"/>
   <path d="m178.78 189.2-0.2416 0.15411c0.0318 0.0659 0.0789 0.13438 0.14705 0.19937 0.30362 0.28952 0.67419 0.21106 1.0631 0.0141l2.1209-1.089-0.24785-0.23633-1.0642 0.57638c-0.16731 0.0948-0.35839 0.20836-0.53175 0.30332l-0.0124-0.0118c0.0865-0.18373 0.18152-0.38885 0.25912-0.56329l0.48797-1.1259-0.26334-0.25111-0.83457 2.0849-0.14043 0.079c-0.23922 0.1268-0.47764 0.15972-0.64804-3e-3 -0.0372-0.0355-0.0718-0.0922-0.0939-0.13099z"/>
   <path d="m187.6 197.99 0.21877 0.28539 0.99885-0.76573 0.65113 0.84936 0.23782-0.18231-0.65113-0.84936 0.75423-0.5782 0.76833 1.0022 0.23782-0.18232-0.9871-1.2876z"/>
   <path d="m190.98 198.3c0.0812 0.11034 0.22047 0.14073 0.32736 0.0621 0.11034-0.0812 0.11933-0.22066 0.0381-0.331-0.0812-0.11034-0.21702-0.14327-0.32736-0.0621-0.1069 0.0786-0.11933 0.22067-0.0382 0.33101zm-2.1272 1.3418 0.20803 0.28275 1.6758-1.233-0.20803-0.28275z"/>
   <path d="m189.27 200.82c0.098-0.0691 0.23643-0.0881 0.41024-0.0273 0.0308 0.0883 0.0805 0.17367 0.12742 0.24014l0.20722 0.29389c0.15541 0.22041 0.18927 0.37987 0.0318 0.49088-0.17843 0.12581-0.49685 0.0308-0.72627-0.29457-0.21709-0.30788-0.23238-0.57471-0.0505-0.70299zm-0.2161-0.22477c-0.29388 0.20722-0.25604 0.61005 0.0375 1.0264 0.37251 0.5283 0.87975 0.66825 1.1946 0.44623 0.28339-0.19982 0.26523-0.48558-0.0135-0.88093l-0.23189-0.32887c-0.16281-0.23091-0.13518-0.35516-0.0267-0.43163 0.0945-0.0666 0.18498-0.0571 0.27939-0.0346 0.0158 0.1041 0.0614 0.21337 0.12061 0.29734 0.24422 0.34636 0.66652 0.46241 1.0304 0.20585 0.14344-0.10114 0.23095-0.2519 0.25118-0.38664l0.24669 0.34987 0.22042-0.15542-0.41691-0.59127c-0.0199-0.0802-0.0616-0.17654-0.12823-0.271-0.24422-0.34637-0.68585-0.47497-1.0567-0.21348-0.20293 0.14308-0.29089 0.36748-0.30291 0.54357l-0.014 0.01c-0.12115-0.0455-0.30217-0.0645-0.44562 0.0366-0.13295 0.0937-0.17704 0.22436-0.17031 0.34533l-0.014 0.01c-0.2135-0.0799-0.41655-0.0782-0.56 0.023zm1.5524-0.0418c-0.13814-0.19593-0.0966-0.47137 0.15176-0.64652 0.2484-0.17515 0.50882-0.11782 0.64943 0.0816 0.14062 0.19942 0.10715 0.46397-0.14125 0.63912-0.24841 0.17515-0.52179 0.12172-0.65994-0.0742z"/>
   <path d="m190.72 202.25 0.19187 0.29396 1.2619-0.82364c0.28454 0.0443 0.4701 0.13281 0.55433 0.26186 0.14507 0.22226 0.0731 0.41748-0.2531 0.63041l-1.0647 0.69494 0.19186 0.29395 1.2619-0.82363c0.28453 0.0443 0.46541 0.12563 0.55432 0.26186 0.14273 0.21867 0.0708 0.41389-0.25544 0.62682l-1.0647 0.69494 0.19187 0.29395 1.1041-0.72068c0.44452-0.29014 0.56881-0.61664 0.33482-0.97513-0.13805-0.2115-0.39127-0.30183-0.70777-0.35596 0.16113-0.20741 0.193-0.4327 0.0198-0.69798-0.13571-0.20792-0.3841-0.30651-0.64728-0.34944l-7e-3 -0.0108 0.23455-0.18889-0.15911-0.24377z"/>
   <path d="m193.44 204.57c-0.58291 0.35146-0.70351 0.93906-0.41615 1.4156 0.14588 0.24196 0.34515 0.38176 0.53697 0.47605l0.13386-0.22568c-0.16389-0.0811-0.30509-0.19096-0.40677-0.35959-0.20557-0.34095-0.10287-0.7178 0.26881-0.97189l0.72502 1.2025c0.0484-0.0192 0.10928-0.0509 0.1716-0.0885 0.50959-0.30725 0.68114-0.7606 0.40704-1.2152-0.24536-0.40693-0.83748-0.58479-1.4204-0.23333zm0.31248 0.2115c0.38137-0.17996 0.72372-0.0765 0.87403 0.17284 0.16799 0.27863 0.0636 0.56151-0.29932 0.78034z"/>
   <path d="m193.72 207.06 0.17271 0.3056 1.3118-0.74143c0.28583 0.0794 0.45434 0.15136 0.55966 0.3377 0.13481 0.23852 0.0484 0.42502-0.29071 0.61669l-1.1069 0.62558 0.17272 0.30561 1.1479-0.64875c0.46213-0.26119 0.61121-0.57164 0.39636-0.95178-0.14112-0.2497-0.38061-0.36021-0.64893-0.43476l-6e-3 -0.0112 0.24613-0.17353-0.14323-0.25342z"/>
   <path d="m195.46 208.86c-0.36251 0.1936-0.54116 0.45886-0.33143 0.85158 0.0605 0.11328 0.16103 0.21974 0.24946 0.30355l0.20186-0.18545c-0.0549-0.0483-0.12572-0.11728-0.16-0.18147-0.11293-0.21146-0.0229-0.35178 0.20371-0.47277l1.0196-0.54449 0.26417 0.49468 0.25301-0.13511-0.26418-0.49468 0.51356-0.27426-0.13915-0.26055-0.53372 0.23649-0.17215-0.2769-0.23412 0.12503 0.1452 0.27188z"/>
   <path d="m201.27 224.79 0.0986 0.34582 2.7006-0.77004-0.0986-0.34582z"/>
   <path d="m201.56 225.83 0.0888 0.3396 1.4578-0.3814c0.25602 0.14985 0.40054 0.26248 0.45472 0.46956 0.0693 0.26506-0.0618 0.42327-0.43871 0.52187l-1.23 0.32181 0.0888 0.3396 1.2756-0.33372c0.51355-0.13436 0.73705-0.39638 0.62653-0.81881-0.0726-0.27748-0.27587-0.44555-0.51622-0.58622l-3e-3 -0.0124 0.28232-0.10484-0.0737-0.28162z"/>
   <path d="m202.15 228.09 0.0761 0.34269 1.471-0.3267c0.25072 0.14165 0.39325 0.28979 0.42666 0.44023 0.0575 0.2591-0.0785 0.41649-0.45882 0.50095l-1.2412 0.27566 0.0761 0.34268 1.471-0.3267c0.25072 0.14165 0.39139 0.28143 0.42666 0.44024 0.0566 0.25492-0.0795 0.41231-0.45975 0.49677l-1.2412 0.27565 0.0761 0.34269 1.2872-0.28587c0.5182-0.11508 0.74947-0.37694 0.65666-0.79484-0.0548-0.24657-0.25997-0.42025-0.53716-0.58234 0.22383-0.13741 0.33297-0.33706 0.26429-0.64631-0.0538-0.24238-0.25161-0.4221-0.48283-0.55493l-3e-3 -0.0125 0.28604-0.0942-0.0631-0.28418z"/>
   <path d="m203.89 231.22c-0.67792 0.12431-0.98767 0.64245-0.89578 1.1435 0.0919 0.50107 0.56532 0.8756 1.2432 0.75129 0.68634-0.12586 0.99609-0.644 0.9042-1.1451-0.0919-0.50107-0.56532-0.8756-1.2517-0.74974zm0.0656 0.35791c0.4716-0.0865 0.83562 0.0949 0.89971 0.44433 0.0649 0.3537-0.21192 0.64818-0.68351 0.73466-0.46739 0.0857-0.82643-0.0922-0.89129-0.44588-0.0641-0.34949 0.20771-0.64741 0.67509-0.73311z"/>
   <path d="m203.5 233.58c-0.13026 0.21971-0.2092 0.51805-0.16352 0.80988 0.0762 0.48638 0.39701 0.70912 0.73113 0.65681 0.3891-0.0609 0.4601-0.41001 0.52371-0.72328 0.0524-0.24652 0.0934-0.48259 0.28376-0.51239 0.15649-0.0245 0.3146 0.0721 0.35499 0.33006 0.0285 0.18186-0.0245 0.34181-0.10837 0.49793l0.24575 0.13052c0.10239-0.17635 0.17303-0.41706 0.13263-0.67506-0.0695-0.44408-0.36434-0.66657-0.69423-0.61492-0.34681 0.0543-0.43605 0.39758-0.4961 0.70596-0.0495 0.2374-0.10413 0.49727-0.3156 0.53038-0.17763 0.0278-0.34262-0.085-0.385-0.3557-0.0384-0.2453 0.0346-0.44306 0.15062-0.64321z"/>
   <path d="m204.22 235.6c-0.40724 0.0552-0.66707 0.24169-0.60723 0.68287 0.0173 0.12726 0.0744 0.26206 0.12815 0.37142l0.2538-0.10355c-0.0347-0.0644-0.077-0.15372-0.0868-0.22583-0.0322-0.23756 0.10107-0.33772 0.3556-0.37225l1.1454-0.15537 0.0754 0.55571 0.28422-0.0386-0.0754-0.5557 0.57692-0.0783-0.0397-0.2927-0.58267 0.0358-0.0649-0.31951-0.26301 0.0357 0.0414 0.30542z"/>
  </g>
  <path d="m-361.12 203.7c9e-5 -119.76 97.081-216.84 216.84-216.84 119.76-4.2e-5 216.84 97.081 216.84 216.84" fill="none" stroke="#6f8ce9" stroke-linecap="round" stroke-width=".36733"/>
  <path d="m-34.547 202.85-11.186 3.8e-4" fill="#ffc585" fill-rule="evenodd" stroke="#6f8ce9" stroke-width="1.0731"/>
  <g fill="#e9e56f" stroke-width=".97555px">
   <g aria-label="2020">
    <path d="m-73.828 205.88h5.2752v-0.90908h-2.3687c-0.42253 0-0.92189 0.0384-1.37 0.0768 1.9334-2.023 3.329-3.5467 3.329-5.0832 0-1.4468-0.93469-2.4072-2.4456-2.4072-1.0627 0-1.7926 0.49936-2.4712 1.242l0.60179 0.60179c0.47375-0.55057 1.0627-0.98591 1.7413-0.98591 1.0371 0 1.5493 0.66581 1.5493 1.6005 0 1.3188-1.3828 2.7913-3.8412 5.2368z"/>
    <path d="m-64.8 206.04c1.6261 0 2.612-1.5237 2.612-4.2637 0-2.7401-0.98591-4.2125-2.612-4.2125-1.6389 0-2.6248 1.4725-2.6248 4.2125 0 2.74 0.98591 4.2637 2.6248 4.2637zm0-0.84507c-0.9603 0-1.6005-1.0243-1.6005-3.4187 0-2.3944 0.6402-3.3674 1.6005-3.3674 0.9475 0 1.5877 0.9731 1.5877 3.3674 0 2.3943-0.6402 3.4187-1.5877 3.4187z"/>
    <path d="m-61.124 205.88h5.2752v-0.90908h-2.3687c-0.42253 0-0.92189 0.0384-1.37 0.0768 1.9334-2.023 3.329-3.5467 3.329-5.0832 0-1.4468-0.93469-2.4072-2.4456-2.4072-1.0627 0-1.7926 0.49936-2.4712 1.242l0.60179 0.60179c0.47375-0.55057 1.0627-0.98591 1.7413-0.98591 1.0371 0 1.5493 0.66581 1.5493 1.6005 0 1.3188-1.3828 2.7913-3.8412 5.2368z"/>
    <path d="m-52.096 206.04c1.6261 0 2.612-1.5237 2.612-4.2637 0-2.7401-0.98591-4.2125-2.612-4.2125-1.6389 0-2.6248 1.4725-2.6248 4.2125 0 2.74 0.98591 4.2637 2.6248 4.2637zm0-0.84507c-0.9603 0-1.6005-1.0243-1.6005-3.4187 0-2.3944 0.6402-3.3674 1.6005-3.3674 0.9475 0 1.5877 0.9731 1.5877 3.3674 0 2.3943-0.6402 3.4187-1.5877 3.4187z"/>
   </g>
   <g aria-label="2010">
    <path d="m-192.72 129.97h5.2752v-0.90908h-2.3687c-0.42254 0-0.92189 0.0384-1.37 0.0768 1.9334-2.023 3.329-3.5467 3.329-5.0832 0-1.4468-0.93469-2.4072-2.4456-2.4072-1.0627 0-1.7926 0.49936-2.4712 1.242l0.60179 0.60179c0.47375-0.55057 1.0627-0.98591 1.7413-0.98591 1.0371 0 1.5493 0.66581 1.5493 1.6005 0 1.3188-1.3828 2.7913-3.8412 5.2368z"/>
    <path d="m-183.69 130.13c1.6261 0 2.612-1.5237 2.612-4.2637 0-2.7401-0.9859-4.2125-2.612-4.2125-1.6389 0-2.6248 1.4725-2.6248 4.2125 0 2.74 0.98591 4.2637 2.6248 4.2637zm0-0.84506c-0.9603 0-1.6005-1.0243-1.6005-3.4187s0.6402-3.3674 1.6005-3.3674c0.94749 0 1.5877 0.9731 1.5877 3.3674s-0.6402 3.4187-1.5877 3.4187z"/>
    <path d="m-179.52 129.97h4.6094v-0.87067h-1.6901v-7.2983h-0.80665c-0.44814 0.26888-0.98591 0.47375-1.7285 0.60179v0.67861h1.4853v6.0179h-1.8694z"/>
    <path d="m-170.99 130.13c1.6261 0 2.612-1.5237 2.612-4.2637 0-2.7401-0.9859-4.2125-2.612-4.2125-1.6389 0-2.6248 1.4725-2.6248 4.2125 0 2.74 0.98591 4.2637 2.6248 4.2637zm0-0.84506c-0.9603 0-1.6005-1.0243-1.6005-3.4187s0.6402-3.3674 1.6005-3.3674c0.94749 0 1.5877 0.9731 1.5877 3.3674s-0.6402 3.4187-1.5877 3.4187z"/>
   </g>
   <g aria-label="2015">
    <path d="m-119.56 129.97h5.2752v-0.90908h-2.3687c-0.42253 0-0.92189 0.0384-1.37 0.0768 1.9334-2.023 3.329-3.5467 3.329-5.0832 0-1.4468-0.93469-2.4072-2.4456-2.4072-1.0627 0-1.7926 0.49936-2.4712 1.242l0.60179 0.60179c0.47374-0.55057 1.0627-0.98591 1.7413-0.98591 1.0371 0 1.5493 0.66581 1.5493 1.6005 0 1.3188-1.3828 2.7913-3.8412 5.2368z"/>
    <path d="m-110.53 130.13c1.6261 0 2.612-1.5237 2.612-4.2637 0-2.7401-0.98591-4.2125-2.612-4.2125-1.6389 0-2.6248 1.4725-2.6248 4.2125 0 2.74 0.98591 4.2637 2.6248 4.2637zm0-0.84506c-0.9603 0-1.6005-1.0243-1.6005-3.4187s0.6402-3.3674 1.6005-3.3674c0.9475 0 1.5877 0.9731 1.5877 3.3674s-0.6402 3.4187-1.5877 3.4187z"/>
    <path d="m-106.35 129.97h4.6094v-0.87067h-1.6901v-7.2983h-0.80665c-0.44814 0.26888-0.98591 0.47375-1.7285 0.60179v0.67861h1.4853v6.0179h-1.8694z"/>
    <path d="m-100.69 129.01c0.56337 0.56338 1.37 1.114 2.676 1.114 1.4212 0 2.7529-0.99871 2.7529-2.7657 0-1.767-1.1396-2.5608-2.5352-2.5608-0.49936 0-0.87067 0.12804-1.2548 0.3329l0.21767-2.42h3.1626v-0.90908h-4.0845l-0.26888 3.9308 0.56337 0.35851c0.48655-0.3201 0.83226-0.49936 1.3956-0.49936 1.0499 0 1.7413 0.66581 1.7413 1.7926 0 1.1396-0.79385 1.8694-1.7926 1.8694-0.9603 0-1.5749-0.44814-2.0614-0.93469z"/>
   </g>
  </g>
 </g>
</svg>
