<?xml version="1.0" encoding="UTF-8"?>
<svg width="190.15mm" height="93.027mm" version="1.1" viewBox="0 0 190.15 93.027" xmlns="http://www.w3.org/2000/svg" xmlns:cc="http://creativecommons.org/ns#" xmlns:dc="http://purl.org/dc/elements/1.1/" xmlns:rdf="http://www.w3.org/1999/02/22-rdf-syntax-ns#">
 <metadata>
  <rdf:RDF>
   <cc:Work rdf:about="">
    <dc:format>image/svg+xml</dc:format>
    <dc:type rdf:resource="http://purl.org/dc/dcmitype/StillImage"/>
    <dc:title/>
   </cc:Work>
  </rdf:RDF>
 </metadata>
 <g fill="#1d232d" stroke="#fbb227" stroke-linecap="round" stroke-width=".26458">
  <rect x="44.76" y="43.776" width="18.256" height="44.185"/>
  <rect x="65.926" y="39.014" width="18.256" height="48.948"/>
  <rect x="87.093" y="32.135" width="18.256" height="55.827"/>
  <rect x="108.26" y="24.197" width="18.256" height="63.765"/>
  <rect x="23.593" y="48.01" width="18.256" height="39.952"/>
 </g>
 <g>
  <rect x="24.784" y="49.206" width="15.875" height="12.435" fill="#fffdc8"/>
  <rect x="129.43" y="15.731" width="18.256" height="72.231" fill="#1d232d" stroke="#fbb227" stroke-linecap="round" stroke-width=".26458"/>
  <rect x="150.59" y="10.968" width="18.256" height="76.994" fill="#1d232d" stroke="#fbb227" stroke-linecap="round" stroke-width=".26458"/>
 </g>
 <g fill="#fffdc8">
  <rect x="45.95" y="44.972" width="15.875" height="11.906"/>
  <rect x="67.117" y="40.21" width="15.875" height="12.435"/>
  <rect x="88.284" y="33.331" width="15.875" height="13.758"/>
  <rect x="109.45" y="25.393" width="15.875" height="15.081"/>
  <rect x="130.62" y="16.926" width="15.875" height="16.933"/>
  <rect x="151.78" y="12.164" width="15.875" height="17.198"/>
 </g>
 <g>
  <rect x="24.784" y="76.722" width="15.875" height="10.054" fill="#a96f00"/>
  <rect x="24.784" y="74.076" width="15.875" height="2.6458" fill="#fbb227"/>
  <rect x="24.784" y="61.641" width="15.875" height="12.435" fill="#ffd179"/>
 </g>
 <g fill="#1d232d" stroke-linecap="round" stroke-width=".26458">
  <g aria-label="7%">
   <path d="m30.509 76.346h0.4699c0.03493-0.7874 0.1016-1.1652 0.56832-1.7304v-0.28575h-1.4034v0.3937h0.90488c-0.381 0.52705-0.50165 0.9525-0.53975 1.6224z"/>
   <path d="m32.275 75.552c0.29845 0 0.51752-0.24448 0.51752-0.6604 0-0.41275-0.21908-0.65405-0.51752-0.65405s-0.51435 0.2413-0.51435 0.65405c0 0.41592 0.2159 0.6604 0.51435 0.6604zm0-0.26035c-0.10478 0-0.1905-0.10478-0.1905-0.40005 0-0.2921 0.08572-0.3937 0.1905-0.3937 0.10478 0 0.1905 0.1016 0.1905 0.3937 0 0.29528-0.08573 0.40005-0.1905 0.40005zm0.3429 1.0922 1.1144-2.1463h-0.2667l-1.1176 2.1463zm1.1843 0c0.29845 0 0.51752-0.24448 0.51752-0.6604 0-0.41275-0.21908-0.65405-0.51752-0.65405s-0.51752 0.2413-0.51752 0.65405c0 0.41592 0.21908 0.6604 0.51752 0.6604zm0-0.26035c-0.10478 0-0.1905-0.10478-0.1905-0.40005s0.08572-0.3937 0.1905-0.3937c0.10478 0 0.1905 0.09842 0.1905 0.3937 0 0.29528-0.08573 0.40005-0.1905 0.40005z"/>
  </g>
  <g aria-label="33%">
   <path d="m29.809 68.79c0.14605 0.17145 0.37465 0.28575 0.70168 0.28575 0.4064 0 0.7493-0.21272 0.7493-0.58738 0-0.26035-0.16828-0.42545-0.40005-0.49212v-0.0127c0.2159-0.09207 0.33655-0.23812 0.33655-0.44768 0-0.35242-0.2794-0.55245-0.69532-0.55245-0.24765 0-0.45085 0.09842-0.635 0.25718l0.23495 0.28575c0.127-0.11112 0.23495-0.1778 0.37782-0.1778 0.15875 0 0.24765 0.08255 0.24765 0.22225 0 0.16192-0.1143 0.26988-0.47625 0.26988v0.3302c0.43815 0 0.54292 0.11112 0.54292 0.28892 0 0.1524-0.13018 0.23812-0.32702 0.23812-0.17145 0-0.32068-0.08572-0.44132-0.2032z"/>
   <path d="m31.484 68.79c0.14605 0.17145 0.37465 0.28575 0.70168 0.28575 0.4064 0 0.7493-0.21272 0.7493-0.58738 0-0.26035-0.16828-0.42545-0.40005-0.49212v-0.0127c0.2159-0.09207 0.33655-0.23812 0.33655-0.44768 0-0.35242-0.2794-0.55245-0.69532-0.55245-0.24765 0-0.45085 0.09842-0.635 0.25718l0.23495 0.28575c0.127-0.11112 0.23495-0.1778 0.37782-0.1778 0.15875 0 0.24765 0.08255 0.24765 0.22225 0 0.16192-0.1143 0.26988-0.47625 0.26988v0.3302c0.43815 0 0.54292 0.11112 0.54292 0.28892 0 0.1524-0.13018 0.23812-0.32702 0.23812-0.17145 0-0.32068-0.08572-0.44132-0.2032z"/>
   <path d="m33.685 68.244c0.29845 0 0.51752-0.24448 0.51752-0.6604 0-0.41275-0.21908-0.65405-0.51752-0.65405s-0.51435 0.2413-0.51435 0.65405c0 0.41592 0.2159 0.6604 0.51435 0.6604zm0-0.26035c-0.10478 0-0.1905-0.10478-0.1905-0.40005 0-0.2921 0.08573-0.3937 0.1905-0.3937 0.10478 0 0.1905 0.1016 0.1905 0.3937 0 0.29528-0.08572 0.40005-0.1905 0.40005zm0.3429 1.0922 1.1144-2.1463h-0.2667l-1.1176 2.1463zm1.1843 0c0.29845 0 0.51752-0.24448 0.51752-0.6604 0-0.41275-0.21908-0.65405-0.51752-0.65405s-0.51752 0.2413-0.51752 0.65405c0 0.41592 0.21908 0.6604 0.51752 0.6604zm0-0.26035c-0.10478 0-0.1905-0.10478-0.1905-0.40005s0.08573-0.3937 0.1905-0.3937c0.10478 0 0.1905 0.09843 0.1905 0.3937 0 0.29528-0.08572 0.40005-0.1905 0.40005z"/>
  </g>
  <g aria-label="34%">
   <path d="m29.809 56.355c0.14605 0.17145 0.37465 0.28575 0.70168 0.28575 0.4064 0 0.7493-0.21272 0.7493-0.58738 0-0.26035-0.16828-0.42545-0.40005-0.49212v-0.0127c0.2159-0.09208 0.33655-0.23812 0.33655-0.44768 0-0.35242-0.2794-0.55245-0.69532-0.55245-0.24765 0-0.45085 0.09843-0.635 0.25718l0.23495 0.28575c0.127-0.11112 0.23495-0.1778 0.37782-0.1778 0.15875 0 0.24765 0.08255 0.24765 0.22225 0 0.16192-0.1143 0.26988-0.47625 0.26988v0.3302c0.43815 0 0.54292 0.11112 0.54292 0.28892 0 0.1524-0.13018 0.23812-0.32702 0.23812-0.17145 0-0.32068-0.08572-0.44132-0.2032z"/>
   <path d="m31.922 55.764 0.2667-0.43815c0.05715-0.1143 0.1143-0.2286 0.1651-0.33972h0.0127c-0.0063 0.127-0.01905 0.32068-0.01905 0.45085v0.32702zm1.0922 0h-0.23178v-1.1779h-0.5715l-0.7366 1.2128v0.32068h0.87312v0.4826h0.43498v-0.4826h0.23178z"/>
   <path d="m33.685 55.809c0.29845 0 0.51752-0.24448 0.51752-0.6604 0-0.41275-0.21908-0.65405-0.51752-0.65405s-0.51435 0.2413-0.51435 0.65405c0 0.41592 0.2159 0.6604 0.51435 0.6604zm0-0.26035c-0.10478 0-0.1905-0.10478-0.1905-0.40005 0-0.2921 0.08573-0.3937 0.1905-0.3937 0.10478 0 0.1905 0.1016 0.1905 0.3937 0 0.29528-0.08572 0.40005-0.1905 0.40005zm0.3429 1.0922 1.1144-2.1463h-0.2667l-1.1176 2.1463zm1.1843 0c0.29845 0 0.51752-0.24448 0.51752-0.6604 0-0.41275-0.21908-0.65405-0.51752-0.65405s-0.51752 0.2413-0.51752 0.65405c0 0.41592 0.21908 0.6604 0.51752 0.6604zm0-0.26035c-0.10478 0-0.1905-0.10478-0.1905-0.40005s0.08573-0.3937 0.1905-0.3937c0.10478 0 0.1905 0.09842 0.1905 0.3937 0 0.29528-0.08572 0.40005-0.1905 0.40005z"/>
  </g>
  <g aria-label="26%">
   <path d="m29.857 83.061h1.4192v-0.3937h-0.4064c-0.09525 0-0.23495 0.0127-0.33655 0.0254 0.32702-0.3429 0.64452-0.70485 0.64452-1.0446 0-0.38735-0.26988-0.64135-0.66675-0.64135-0.28892 0-0.47625 0.10795-0.67628 0.32068l0.254 0.25082c0.1016-0.10795 0.21272-0.20638 0.35878-0.20638 0.17462 0 0.28575 0.10795 0.28575 0.3048 0 0.28575-0.36195 0.63182-0.8763 1.1176z"/>
   <path d="m32.296 82.749c-0.1397 0-0.27305-0.1016-0.31432-0.4191 0.09207-0.14605 0.2032-0.20002 0.3048-0.20002 0.1524 0 0.26352 0.07937 0.26352 0.2921 0 0.2286-0.1143 0.32702-0.254 0.32702zm0.65088-1.5018c-0.127-0.13018-0.32068-0.2413-0.58738-0.2413-0.42545 0-0.81598 0.33972-0.81598 1.0922 0 0.70802 0.37148 1.0001 0.762 1.0001 0.36512 0 0.66992-0.25718 0.66992-0.67628 0-0.42545-0.254-0.6223-0.60008-0.6223-0.12382 0-0.29845 0.07937-0.40322 0.21272 0.01587-0.4699 0.19368-0.62865 0.41592-0.62865 0.11748 0 0.24448 0.06668 0.31432 0.14288z"/>
   <path d="m33.685 82.267c0.29845 0 0.51752-0.24448 0.51752-0.6604 0-0.41275-0.21908-0.65405-0.51752-0.65405s-0.51435 0.2413-0.51435 0.65405c0 0.41592 0.2159 0.6604 0.51435 0.6604zm0-0.26035c-0.10478 0-0.1905-0.10478-0.1905-0.40005 0-0.2921 0.08573-0.3937 0.1905-0.3937 0.10478 0 0.1905 0.1016 0.1905 0.3937 0 0.29528-0.08572 0.40005-0.1905 0.40005zm0.3429 1.0922 1.1144-2.1463h-0.2667l-1.1176 2.1463zm1.1843 0c0.29845 0 0.51752-0.24448 0.51752-0.6604 0-0.41275-0.21908-0.65405-0.51752-0.65405s-0.51752 0.2413-0.51752 0.65405c0 0.41592 0.21908 0.6604 0.51752 0.6604zm0-0.26035c-0.10478 0-0.1905-0.10478-0.1905-0.40005s0.08573-0.3937 0.1905-0.3937c0.10478 0 0.1905 0.09842 0.1905 0.3937 0 0.29528-0.08572 0.40005-0.1905 0.40005z"/>
  </g>
 </g>
 <g fill="#e8eaec" stroke-linecap="round" stroke-width=".26458">
  <g aria-label="2013">
   <path d="m28.554 92.85h1.6558v-0.45932h-0.47413c-0.11112 0-0.27411 0.01482-0.39264 0.02963 0.38153-0.40005 0.75195-0.82233 0.75195-1.2187 0-0.45191-0.31485-0.74824-0.77788-0.74824-0.33708 0-0.55562 0.12594-0.78899 0.37412l0.29633 0.29263c0.11853-0.12594 0.24818-0.24077 0.41857-0.24077 0.20373 0 0.33338 0.12594 0.33338 0.3556 0 0.33338-0.42228 0.73713-1.0224 1.3039z"/>
   <path d="m31.348 92.895c0.50377 0 0.84085-0.42968 0.84085-1.2298s-0.33708-1.2113-0.84085-1.2113-0.84085 0.41116-0.84085 1.2113 0.33708 1.2298 0.84085 1.2298zm0-0.42228c-0.1815 0-0.32597-0.16669-0.32597-0.80751 0-0.64453 0.14446-0.78899 0.32597-0.78899 0.18521 0 0.32597 0.14446 0.32597 0.78899 0 0.64082-0.14076 0.80751-0.32597 0.80751z"/>
   <path d="m32.583 92.85h1.4965v-0.4408h-0.4408v-1.9114h-0.40005c-0.16669 0.10001-0.32967 0.16669-0.58526 0.21484v0.33708h0.4408v1.3594h-0.51118z"/>
   <path d="m34.358 92.561c0.17039 0.20002 0.43709 0.33338 0.81862 0.33338 0.47413 0 0.87418-0.24818 0.87418-0.68527 0-0.30374-0.19632-0.49636-0.46672-0.57415v-0.01482c0.25188-0.10742 0.39264-0.27781 0.39264-0.52229 0-0.41116-0.32597-0.64453-0.81121-0.64453-0.28893 0-0.52599 0.11483-0.74083 0.30004l0.27411 0.33338c0.14817-0.12965 0.27411-0.20743 0.4408-0.20743 0.18521 0 0.28893 0.09631 0.28893 0.25929 0 0.18891-0.13335 0.31485-0.55563 0.31485v0.38523c0.51118 0 0.63341 0.12965 0.63341 0.33708 0 0.1778-0.15187 0.27781-0.38153 0.27781-0.20002 0-0.37412-0.10001-0.51488-0.23707z"/>
  </g>
  <g aria-label="2014">
   <path d="m49.72 92.85h1.6558v-0.45932h-0.47413c-0.11112 0-0.27411 0.01482-0.39264 0.02963 0.38153-0.40005 0.75195-0.82233 0.75195-1.2187 0-0.45191-0.31485-0.74824-0.77788-0.74824-0.33708 0-0.55563 0.12594-0.78899 0.37412l0.29633 0.29263c0.11853-0.12594 0.24818-0.24077 0.41857-0.24077 0.20373 0 0.33338 0.12594 0.33338 0.3556 0 0.33338-0.42228 0.73713-1.0224 1.3039z"/>
   <path d="m52.514 92.895c0.50377 0 0.84085-0.42968 0.84085-1.2298s-0.33708-1.2113-0.84085-1.2113-0.84085 0.41116-0.84085 1.2113 0.33708 1.2298 0.84085 1.2298zm0-0.42228c-0.1815 0-0.32597-0.16669-0.32597-0.80751 0-0.64453 0.14446-0.78899 0.32597-0.78899 0.18521 0 0.32597 0.14446 0.32597 0.78899 0 0.64082-0.14076 0.80751-0.32597 0.80751z"/>
   <path d="m53.749 92.85h1.4965v-0.4408h-0.4408v-1.9114h-0.40005c-0.16669 0.10001-0.32967 0.16669-0.58526 0.21484v0.33708h0.4408v1.3594h-0.51118z"/>
   <path d="m56.036 91.872 0.31115-0.51118c0.06668-0.13335 0.13335-0.2667 0.19262-0.39635h0.01482c-0.0074 0.14817-0.02222 0.37412-0.02222 0.52599v0.38153zm1.2742 0h-0.2704v-1.3742h-0.66675l-0.85937 1.415v0.37412h1.0186v0.56303h0.50747v-0.56303h0.2704z"/>
  </g>
  <g aria-label="2015">
   <path d="m70.887 92.85h1.6558v-0.45932h-0.47413c-0.11112 0-0.27411 0.01482-0.39264 0.02963 0.38153-0.40005 0.75195-0.82233 0.75195-1.2187 0-0.45191-0.31485-0.74824-0.77788-0.74824-0.33708 0-0.55562 0.12594-0.78899 0.37412l0.29633 0.29263c0.11853-0.12594 0.24818-0.24077 0.41857-0.24077 0.20373 0 0.33338 0.12594 0.33338 0.3556 0 0.33338-0.42228 0.73713-1.0224 1.3039z"/>
   <path d="m73.681 92.895c0.50377 0 0.84085-0.42968 0.84085-1.2298s-0.33708-1.2113-0.84085-1.2113-0.84085 0.41116-0.84085 1.2113 0.33708 1.2298 0.84085 1.2298zm0-0.42228c-0.1815 0-0.32597-0.16669-0.32597-0.80751 0-0.64453 0.14446-0.78899 0.32597-0.78899 0.18521 0 0.32597 0.14446 0.32597 0.78899 0 0.64082-0.14076 0.80751-0.32597 0.80751z"/>
   <path d="m74.916 92.85h1.4965v-0.4408h-0.4408v-1.9114h-0.40005c-0.16669 0.10001-0.32967 0.16669-0.58526 0.21484v0.33708h0.4408v1.3594h-0.51118z"/>
   <path d="m76.695 92.565c0.18521 0.18521 0.4445 0.32967 0.82973 0.32967 0.45932 0 0.86307-0.30004 0.86307-0.82232 0-0.50006-0.34449-0.72972-0.74824-0.72972-0.09631 0-0.1741 0.01482-0.263 0.05556l0.04075-0.4408h0.86307v-0.45932h-1.3335l-0.06668 1.189 0.24448 0.15558c0.14076-0.0889 0.21114-0.11853 0.34819-0.11853 0.21855 0 0.37042 0.12594 0.37042 0.36301 0 0.24077-0.15558 0.36671-0.39635 0.36671-0.20002 0-0.36671-0.10372-0.50747-0.23336z"/>
  </g>
  <g aria-label="2016">
   <path d="m92.054 92.85h1.6558v-0.45932h-0.47413c-0.11112 0-0.27411 0.01482-0.39264 0.02963 0.38153-0.40005 0.75195-0.82233 0.75195-1.2187 0-0.45191-0.31485-0.74824-0.77788-0.74824-0.33708 0-0.55563 0.12594-0.78899 0.37412l0.29633 0.29263c0.11853-0.12594 0.24818-0.24077 0.41857-0.24077 0.20373 0 0.33338 0.12594 0.33338 0.3556 0 0.33338-0.42228 0.73713-1.0224 1.3039z"/>
   <path d="m94.848 92.895c0.50377 0 0.84085-0.42968 0.84085-1.2298s-0.33708-1.2113-0.84085-1.2113-0.84085 0.41116-0.84085 1.2113 0.33708 1.2298 0.84085 1.2298zm0-0.42228c-0.1815 0-0.32597-0.16669-0.32597-0.80751 0-0.64453 0.14446-0.78899 0.32597-0.78899 0.18521 0 0.32597 0.14446 0.32597 0.78899 0 0.64082-0.14076 0.80751-0.32597 0.80751z"/>
   <path d="m96.083 92.85h1.4965v-0.4408h-0.4408v-1.9114h-0.40005c-0.16669 0.10001-0.32967 0.16669-0.58526 0.21484v0.33708h0.4408v1.3594h-0.51118z"/>
   <path d="m98.806 92.487c-0.16298 0-0.31856-0.11853-0.36671-0.48895 0.10742-0.17039 0.23707-0.23336 0.3556-0.23336 0.1778 0 0.30745 0.0926 0.30745 0.34078 0 0.2667-0.13335 0.38153-0.29633 0.38153zm0.75936-1.7521c-0.14817-0.15187-0.37412-0.28152-0.68527-0.28152-0.49636 0-0.95197 0.39635-0.95197 1.2742 0 0.82603 0.43339 1.1668 0.889 1.1668 0.42598 0 0.78158-0.30004 0.78158-0.78899 0-0.49636-0.29633-0.72602-0.70009-0.72602-0.14446 0-0.34819 0.0926-0.47043 0.24818 0.01852-0.54822 0.22595-0.73342 0.48525-0.73342 0.13705 0 0.28522 0.07779 0.36671 0.16669z"/>
  </g>
  <g aria-label="2017">
   <path d="m113.22 92.85h1.6558v-0.45932h-0.47414c-0.11112 0-0.2741 0.01482-0.39264 0.02963 0.38153-0.40005 0.75195-0.82233 0.75195-1.2187 0-0.45191-0.31486-0.74824-0.77788-0.74824-0.33708 0-0.55562 0.12594-0.78898 0.37412l0.29633 0.29263c0.11853-0.12594 0.24818-0.24077 0.41857-0.24077 0.20373 0 0.33338 0.12594 0.33338 0.3556 0 0.33338-0.42228 0.73713-1.0224 1.3039z"/>
   <path d="m116.01 92.895c0.50377 0 0.84085-0.42968 0.84085-1.2298s-0.33708-1.2113-0.84085-1.2113c-0.50376 0-0.84084 0.41116-0.84084 1.2113s0.33708 1.2298 0.84084 1.2298zm0-0.42228c-0.1815 0-0.32596-0.16669-0.32596-0.80751 0-0.64453 0.14446-0.78899 0.32596-0.78899 0.18521 0 0.32597 0.14446 0.32597 0.78899 0 0.64082-0.14076 0.80751-0.32597 0.80751z"/>
   <path d="m117.25 92.85h1.4965v-0.4408h-0.4408v-1.9114h-0.40005c-0.16669 0.10001-0.32967 0.16669-0.58526 0.21484v0.33708h0.4408v1.3594h-0.51118z"/>
   <path d="m119.53 92.85h0.54821c0.0408-0.91863 0.11854-1.3594 0.66305-2.0188v-0.33338h-1.6372v0.45932h1.0557c-0.4445 0.61489-0.58525 1.1113-0.6297 1.8928z"/>
  </g>
  <g aria-label="2018">
   <path d="m134.39 92.85h1.6558v-0.45932h-0.47413c-0.11113 0-0.27411 0.01482-0.39265 0.02963 0.38153-0.40005 0.75195-0.82233 0.75195-1.2187 0-0.45191-0.31485-0.74824-0.77787-0.74824-0.33708 0-0.55563 0.12594-0.78899 0.37412l0.29633 0.29263c0.11853-0.12594 0.24818-0.24077 0.41857-0.24077 0.20373 0 0.33338 0.12594 0.33338 0.3556 0 0.33338-0.42228 0.73713-1.0224 1.3039z"/>
   <path d="m137.18 92.895c0.50377 0 0.84085-0.42968 0.84085-1.2298s-0.33708-1.2113-0.84085-1.2113c-0.50376 0-0.84084 0.41116-0.84084 1.2113s0.33708 1.2298 0.84084 1.2298zm0-0.42228c-0.1815 0-0.32596-0.16669-0.32596-0.80751 0-0.64453 0.14446-0.78899 0.32596-0.78899 0.18521 0 0.32597 0.14446 0.32597 0.78899 0 0.64082-0.14076 0.80751-0.32597 0.80751z"/>
   <path d="m138.42 92.85h1.4965v-0.4408h-0.4408v-1.9114h-0.40005c-0.16668 0.10001-0.32967 0.16669-0.58525 0.21484v0.33708h0.44079v1.3594h-0.51117z"/>
   <path d="m140.73 92.187c0-0.14446 0.0778-0.27781 0.1815-0.37412 0.29633 0.12594 0.49636 0.20373 0.49636 0.41116 0 0.19632-0.13335 0.29263-0.31486 0.29263-0.19632 0-0.363-0.12224-0.363-0.32967zm0.50006-0.7075c-0.24077-0.0926-0.40376-0.18521-0.40376-0.37782 0-0.1815 0.11854-0.2704 0.263-0.2704 0.1778 0 0.28522 0.12224 0.28522 0.30374 0 0.12224-0.0519 0.23707-0.14446 0.34449zm-0.96679 0.77047c0 0.38153 0.34819 0.64452 0.81862 0.64452 0.50006 0 0.83344-0.28152 0.83344-0.65193 0-0.31115-0.1815-0.49265-0.40746-0.61489v-0.01482c0.16298-0.10742 0.30745-0.28893 0.30745-0.51488 0-0.38894-0.28522-0.64453-0.71491-0.64453-0.43709 0-0.75194 0.24818-0.75194 0.64823 0 0.24818 0.13335 0.41857 0.31485 0.55563v0.01482c-0.22225 0.11853-0.40005 0.29263-0.40005 0.57785z"/>
  </g>
  <g aria-label="2019">
   <path d="m155.55 92.85h1.6558v-0.45932h-0.47414c-0.11112 0-0.27411 0.01482-0.39264 0.02963 0.38153-0.40005 0.75195-0.82233 0.75195-1.2187 0-0.45191-0.31486-0.74824-0.77788-0.74824-0.33708 0-0.55562 0.12594-0.78899 0.37412l0.29634 0.29263c0.11853-0.12594 0.24818-0.24077 0.41857-0.24077 0.20373 0 0.33337 0.12594 0.33337 0.3556 0 0.33338-0.42227 0.73713-1.0224 1.3039z"/>
   <path d="m158.35 92.895c0.50377 0 0.84085-0.42968 0.84085-1.2298s-0.33708-1.2113-0.84085-1.2113-0.84085 0.41116-0.84085 1.2113 0.33708 1.2298 0.84085 1.2298zm0-0.42228c-0.1815 0-0.32597-0.16669-0.32597-0.80751 0-0.64453 0.14447-0.78899 0.32597-0.78899 0.18521 0 0.32597 0.14446 0.32597 0.78899 0 0.64082-0.14076 0.80751-0.32597 0.80751z"/>
   <path d="m159.58 92.85h1.4965v-0.4408h-0.4408v-1.9114h-0.40005c-0.16669 0.10001-0.32967 0.16669-0.58526 0.21484v0.33708h0.4408v1.3594h-0.51118z"/>
   <path d="m162.21 91.583c-0.1778 0-0.31115-0.0926-0.31115-0.34078 0-0.2667 0.13706-0.38153 0.29634-0.38153 0.16668 0 0.31855 0.11853 0.36671 0.48895-0.10372 0.17039-0.23336 0.23336-0.3519 0.23336zm-0.77417 1.0298c0.14817 0.14817 0.37783 0.28152 0.68898 0.28152 0.49265 0 0.95197-0.39635 0.95197-1.2742 0-0.82603-0.43709-1.1668-0.89271-1.1668-0.42598 0-0.78158 0.30004-0.78158 0.78899 0 0.49636 0.30004 0.72602 0.70009 0.72602 0.14446 0 0.34819-0.0926 0.47043-0.24818-0.0185 0.54822-0.22225 0.73342-0.48525 0.73342-0.13705 0-0.28522-0.07779-0.363-0.16669z"/>
  </g>
  <g aria-label="PC">
   <path d="m17.053 56.867h0.31115v-0.96308h0.43709c0.5297 0 0.89641-0.24077 0.89641-0.75195 0-0.5334-0.3593-0.7149-0.89641-0.7149h-0.74824zm0.31115-1.215v-0.96679h0.39635c0.41857 0 0.62971 0.11483 0.62971 0.46673 0 0.34449-0.20373 0.50006-0.62971 0.50006z"/>
   <path d="m19.024 55.652c0 0.79269 0.45561 1.2594 1.0668 1.2594 0.30745 0 0.54822-0.12965 0.73713-0.3519l-0.1741-0.18891c-0.15558 0.1741-0.32597 0.2704-0.55562 0.2704-0.46302 0-0.75565-0.38523-0.75565-0.99642 0-0.60378 0.30745-0.9816 0.77047-0.9816 0.20002 0 0.3556 0.0889 0.48525 0.22596l0.1741-0.19632c-0.14446-0.15928-0.37412-0.30004-0.66305-0.30004-0.6223 0-1.0853 0.47784-1.0853 1.2594z"/>
  </g>
  <g aria-label="Console">
   <path d="m8.6638 67.823c0 0.79269 0.45561 1.2594 1.0668 1.2594 0.30745 0 0.54822-0.12965 0.73713-0.3519l-0.1741-0.18891c-0.15558 0.1741-0.32597 0.2704-0.55563 0.2704-0.46302 0-0.75565-0.38523-0.75565-0.99642 0-0.60378 0.30745-0.9816 0.77047-0.9816 0.20003 0 0.3556 0.0889 0.48525 0.22596l0.1741-0.19632c-0.14446-0.15928-0.37412-0.30004-0.66305-0.30004-0.6223 0-1.0853 0.47784-1.0853 1.2594z"/>
   <path d="m10.751 68.141c0 0.59637 0.39264 0.94086 0.83344 0.94086s0.83344-0.34449 0.83344-0.94086c0-0.60378-0.39264-0.94827-0.83344-0.94827s-0.83344 0.34449-0.83344 0.94827zm0.31485 0c0-0.41487 0.21114-0.69638 0.51858-0.69638 0.31115 0 0.51858 0.28152 0.51858 0.69638 0 0.41116-0.20743 0.68898-0.51858 0.68898-0.30745 0-0.51858-0.27781-0.51858-0.68898z"/>
   <path d="m12.895 69.038h0.30374v-1.3039c0.1815-0.1815 0.30745-0.27781 0.49265-0.27781 0.23707 0 0.34078 0.14446 0.34078 0.48154v1.1001h0.30374v-1.1409c0-0.45932-0.17039-0.70379-0.54822-0.70379-0.24818 0-0.43339 0.13335-0.60378 0.30374h-0.01111l-0.02593-0.25929h-0.25188z"/>
   <path d="m14.721 68.834c0.17039 0.14076 0.41487 0.24818 0.67046 0.24818 0.42598 0 0.65934-0.24448 0.65934-0.5371 0-0.34078-0.28892-0.4482-0.54822-0.54451-0.20373-0.07779-0.40005-0.14446-0.40005-0.31115 0-0.13705 0.10372-0.25929 0.32967-0.25929 0.15928 0 0.28892 0.06668 0.41116 0.15928l0.14446-0.19262c-0.13705-0.11112-0.33338-0.20373-0.55933-0.20373-0.38894 0-0.6186 0.22225-0.6186 0.51118 0 0.30374 0.28152 0.42598 0.5371 0.51858 0.19632 0.07408 0.41116 0.15558 0.41116 0.34078 0 0.15558-0.11853 0.28152-0.3556 0.28152-0.21484 0-0.37412-0.0889-0.5297-0.21484z"/>
   <path d="m16.343 68.141c0 0.59637 0.39264 0.94086 0.83344 0.94086 0.4408 0 0.83344-0.34449 0.83344-0.94086 0-0.60378-0.39264-0.94827-0.83344-0.94827-0.4408 0-0.83344 0.34449-0.83344 0.94827zm0.31486 0c0-0.41487 0.21114-0.69638 0.51858-0.69638 0.31115 0 0.51858 0.28152 0.51858 0.69638 0 0.41116-0.20743 0.68898-0.51858 0.68898-0.30745 0-0.51858-0.27781-0.51858-0.68898z"/>
   <path d="m18.488 68.675c0 0.263 0.0926 0.40746 0.32226 0.40746 0.08149 0 0.13335-0.01111 0.1741-0.02963l-0.04075-0.22966c-0.03334 0.0074-0.04816 0.0074-0.06668 0.0074-0.04445 0-0.0852-0.03704-0.0852-0.13335v-2.2966h-0.30374z"/>
   <path d="m19.302 68.141c0 0.58896 0.38153 0.94086 0.86307 0.94086 0.24448 0 0.43709-0.0852 0.59267-0.18521l-0.10742-0.20002c-0.13335 0.0852-0.27781 0.14076-0.4482 0.14076-0.34449 0-0.57785-0.24448-0.60008-0.63341h1.215c0.0074-0.04445 0.01111-0.10372 0.01111-0.16669 0-0.51488-0.25929-0.84455-0.71861-0.84455-0.41116 0-0.80751 0.3593-0.80751 0.94827zm0.29633-0.13705c0.03704-0.36301 0.2667-0.57044 0.51858-0.57044 0.28152 0 0.4445 0.20373 0.4445 0.57044z"/>
  </g>
  <g aria-label="Tablets">
   <path d="m10.588 76.711h0.30745v-2.1706h0.73713v-0.25929h-1.7817v0.25929h0.73713z"/>
   <path d="m11.673 76.244c0 0.32226 0.22596 0.51118 0.5297 0.51118 0.22225 0 0.42228-0.11853 0.59637-0.25929h0.0074l0.02593 0.21484h0.25188v-1.1038c0-0.4482-0.18521-0.74083-0.626-0.74083-0.28892 0-0.54081 0.12594-0.7075 0.23336l0.12224 0.21114c0.14076-0.09631 0.32597-0.19262 0.5371-0.19262 0.29263 0 0.37042 0.22225 0.37042 0.45191-0.76676 0.0852-1.1075 0.28152-1.1075 0.67416zm0.30004-0.02223c0-0.22966 0.20373-0.37783 0.80751-0.45191v0.50006c-0.1741 0.15558-0.31856 0.24077-0.49265 0.24077-0.1778 0-0.31486-0.0852-0.31486-0.28892z"/>
   <path d="m13.658 76.711h0.24448l0.02593-0.1778h0.01111c0.15928 0.14076 0.34819 0.22225 0.51488 0.22225 0.41116 0 0.77788-0.3593 0.77788-0.9742 0-0.55562-0.24818-0.91493-0.7149-0.91493-0.20002 0-0.40005 0.10742-0.56303 0.25188l0.0074-0.32597v-0.71861h-0.30374zm0.30374-0.40005v-0.94456c0.17039-0.15928 0.32967-0.24448 0.48154-0.24448 0.34078 0 0.47413 0.2667 0.47413 0.66305 0 0.4445-0.21855 0.7149-0.51488 0.7149-0.11853 0-0.28152-0.05186-0.4408-0.18891z"/>
   <path d="m15.712 76.348c0 0.263 0.0926 0.40746 0.32226 0.40746 0.08149 0 0.13335-0.01111 0.1741-0.02963l-0.04075-0.22966c-0.03334 0.0074-0.04815 0.0074-0.06668 0.0074-0.04445 0-0.0852-0.03704-0.0852-0.13335v-2.2966h-0.30374z"/>
   <path d="m16.527 75.814c0 0.58896 0.38153 0.94086 0.86307 0.94086 0.24448 0 0.43709-0.0852 0.59267-0.18521l-0.10742-0.20002c-0.13335 0.0852-0.27781 0.14076-0.4482 0.14076-0.34449 0-0.57785-0.24448-0.60008-0.63341h1.215c0.0074-0.04445 0.01111-0.10372 0.01111-0.16669 0-0.51488-0.25929-0.84455-0.71861-0.84455-0.41116 0-0.80751 0.3593-0.80751 0.94827zm0.29633-0.13705c0.03704-0.36301 0.2667-0.57044 0.51858-0.57044 0.28152 0 0.4445 0.20373 0.4445 0.57044z"/>
   <path d="m18.499 76.155c0 0.3556 0.12965 0.60008 0.51488 0.60008 0.11113 0 0.23336-0.03334 0.33338-0.06667l-0.05927-0.22966c-0.05927 0.02223-0.14076 0.04816-0.20373 0.04816-0.20743 0-0.27781-0.12594-0.27781-0.34819v-1.0001h0.48525v-0.24818h-0.48525v-0.50377h-0.25559l-0.03704 0.50377-0.28152 0.01852v0.22966h0.2667z"/>
   <path d="m19.499 76.507c0.17039 0.14076 0.41487 0.24818 0.67046 0.24818 0.42598 0 0.65934-0.24448 0.65934-0.5371 0-0.34078-0.28892-0.4482-0.54822-0.54451-0.20373-0.07779-0.40005-0.14446-0.40005-0.31115 0-0.13705 0.10372-0.25929 0.32967-0.25929 0.15928 0 0.28892 0.06667 0.41116 0.15928l0.14446-0.19262c-0.13705-0.11112-0.33338-0.20373-0.55933-0.20373-0.38894 0-0.6186 0.22225-0.6186 0.51118 0 0.30374 0.28152 0.42598 0.5371 0.51858 0.19632 0.07408 0.41116 0.15558 0.41116 0.34078 0 0.15558-0.11853 0.28152-0.3556 0.28152-0.21484 0-0.37412-0.0889-0.5297-0.21484z"/>
  </g>
  <g aria-label="Smartphones">
   <path d="m0.13229 82.746c0.21114 0.21855 0.50747 0.3593 0.84825 0.3593 0.51118 0 0.82973-0.30745 0.82973-0.69268 0-0.3593-0.21855-0.52599-0.50006-0.64823l-0.34819-0.14817c-0.18891-0.081492-0.40375-0.17039-0.40375-0.40375 0-0.21855 0.1815-0.3556 0.45561-0.3556 0.22225 0 0.40375 0.0889 0.55192 0.22966l0.16298-0.20002c-0.17039-0.1778-0.42598-0.30004-0.7149-0.30004-0.4408 0-0.76676 0.27411-0.76676 0.64452 0 0.3556 0.2667 0.5297 0.49265 0.626l0.34819 0.15187c0.22966 0.10372 0.40746 0.1815 0.40746 0.42968 0 0.23707-0.18891 0.39635-0.50747 0.39635-0.25559 0-0.49636-0.12224-0.67045-0.30374z"/>
   <path d="m2.2485 83.061h0.30374v-1.3039c0.16669-0.18521 0.31856-0.27781 0.45191-0.27781 0.22966 0 0.33708 0.14446 0.33708 0.48154v1.1001h0.30374v-1.3039c0.16669-0.18521 0.31115-0.27781 0.45191-0.27781 0.22595 0 0.33338 0.14446 0.33338 0.48154v1.1001h0.30374v-1.1409c0-0.45932-0.1778-0.70379-0.54822-0.70379-0.21855 0-0.40375 0.14076-0.59267 0.34449-0.074083-0.21484-0.22225-0.34449-0.49636-0.34449-0.21484 0-0.40375 0.13335-0.55933 0.30374h-0.011112l-0.025929-0.25929h-0.25188z"/>
   <path d="m5.2271 82.594c0 0.32226 0.22595 0.51118 0.5297 0.51118 0.22225 0 0.42228-0.11853 0.59637-0.25929h0.00741l0.025929 0.21484h0.25188v-1.1038c0-0.4482-0.18521-0.74083-0.626-0.74083-0.28893 0-0.54081 0.12594-0.7075 0.23336l0.12224 0.21114c0.14076-0.09631 0.32597-0.19262 0.5371-0.19262 0.29263 0 0.37042 0.22225 0.37042 0.45191-0.76676 0.0852-1.1075 0.28152-1.1075 0.67416zm0.30004-0.02223c0-0.22966 0.20373-0.37782 0.80751-0.45191v0.50006c-0.1741 0.15558-0.31856 0.24077-0.49265 0.24077-0.1778 0-0.31485-0.0852-0.31485-0.28892z"/>
   <path d="m7.2115 83.061h0.30374v-1.1557c0.12224-0.30374 0.30374-0.41487 0.45561-0.41487 0.074083 0 0.11483 0.01111 0.1741 0.02963l0.059267-0.2667c-0.059267-0.02593-0.11483-0.03704-0.19262-0.03704-0.20373 0-0.38894 0.14446-0.51118 0.37042h-0.011113l-0.025929-0.32596h-0.25188z"/>
   <path d="m8.5511 82.505c0 0.3556 0.12965 0.60008 0.51488 0.60008 0.11113 0 0.23336-0.03334 0.33338-0.06667l-0.059267-0.22966c-0.059267 0.02222-0.14076 0.04815-0.20373 0.04815-0.20743 0-0.27781-0.12594-0.27781-0.34819v-1.0001h0.48525v-0.24818h-0.48525v-0.50377h-0.25559l-0.037042 0.50377-0.28152 0.01852v0.22966h0.2667z"/>
   <path d="m10.047 82.898c0.16669 0.12965 0.33338 0.20743 0.50006 0.20743 0.41116 0 0.77788-0.3593 0.77788-0.97049 0-0.55933-0.24818-0.91863-0.7112-0.91863-0.21114 0-0.41116 0.11483-0.57415 0.25188h-0.01111l-0.02593-0.20743h-0.25188v2.5596h0.30374v-0.60748zm0.0074-0.23707v-0.94456c0.1778-0.15928 0.32967-0.24448 0.48154-0.24448 0.34078 0 0.47413 0.2667 0.47413 0.66305 0 0.4445-0.21855 0.7149-0.51488 0.7149-0.11853 0-0.27781-0.05186-0.4408-0.18891z"/>
   <path d="m11.806 83.061h0.30374v-1.3039c0.1815-0.1815 0.30745-0.27781 0.49266-0.27781 0.23707 0 0.34078 0.14446 0.34078 0.48154v1.1001h0.30374v-1.1409c0-0.45932-0.17039-0.70379-0.54822-0.70379-0.24818 0-0.42968 0.13335-0.60008 0.29633l0.01111-0.37042v-0.71861h-0.30374z"/>
   <path d="m13.691 82.164c0 0.59637 0.39264 0.94086 0.83344 0.94086 0.4408 0 0.83344-0.34449 0.83344-0.94086 0-0.60378-0.39264-0.94827-0.83344-0.94827-0.4408 0-0.83344 0.34449-0.83344 0.94827zm0.31486 0c0-0.41487 0.21114-0.69638 0.51858-0.69638 0.31115 0 0.51858 0.28152 0.51858 0.69638 0 0.41116-0.20743 0.68898-0.51858 0.68898-0.30745 0-0.51858-0.27781-0.51858-0.68898z"/>
   <path d="m15.835 83.061h0.30374v-1.3039c0.1815-0.1815 0.30745-0.27781 0.49265-0.27781 0.23707 0 0.34078 0.14446 0.34078 0.48154v1.1001h0.30374v-1.1409c0-0.45932-0.17039-0.70379-0.54822-0.70379-0.24818 0-0.43339 0.13335-0.60378 0.30374h-0.01111l-0.02593-0.25929h-0.25188z"/>
   <path d="m17.728 82.164c0 0.58896 0.38153 0.94086 0.86307 0.94086 0.24448 0 0.43709-0.08519 0.59267-0.18521l-0.10742-0.20002c-0.13335 0.0852-0.27781 0.14076-0.4482 0.14076-0.34449 0-0.57785-0.24448-0.60008-0.63341h1.215c0.0074-0.04445 0.01111-0.10372 0.01111-0.16669 0-0.51488-0.25929-0.84455-0.71861-0.84455-0.41116 0-0.80751 0.3593-0.80751 0.94827zm0.29633-0.13705c0.03704-0.36301 0.2667-0.57044 0.51858-0.57044 0.28152 0 0.4445 0.20373 0.4445 0.57044z"/>
   <path d="m19.499 82.857c0.17039 0.14076 0.41487 0.24818 0.67046 0.24818 0.42598 0 0.65934-0.24448 0.65934-0.5371 0-0.34078-0.28892-0.4482-0.54822-0.54451-0.20373-0.07779-0.40005-0.14446-0.40005-0.31115 0-0.13706 0.10372-0.25929 0.32967-0.25929 0.15928 0 0.28892 0.06668 0.41116 0.15928l0.14446-0.19262c-0.13706-0.11112-0.33338-0.20373-0.55933-0.20373-0.38894 0-0.6186 0.22225-0.6186 0.51118 0 0.30374 0.28152 0.42598 0.5371 0.51858 0.19632 0.07408 0.41116 0.15558 0.41116 0.34078 0 0.15558-0.11853 0.28152-0.3556 0.28152-0.21484 0-0.37412-0.0889-0.5297-0.21484z"/>
  </g>
 </g>
 <g fill="#a96f00">
  <rect x="45.95" y="73.018" width="15.875" height="13.758"/>
  <rect x="67.117" y="70.901" width="15.875" height="15.875"/>
  <rect x="88.284" y="67.462" width="15.875" height="19.315"/>
  <rect x="109.45" y="64.022" width="15.875" height="22.754"/>
  <rect x="130.62" y="59.524" width="15.875" height="27.252"/>
  <rect x="151.78" y="56.879" width="15.875" height="29.898"/>
 </g>
 <g fill="#fbb227">
  <rect x="45.95" y="69.314" width="15.875" height="3.7042"/>
  <rect x="67.117" y="66.139" width="15.875" height="4.7625"/>
  <rect x="88.284" y="62.17" width="15.875" height="5.2917"/>
  <rect x="109.45" y="57.143" width="15.875" height="6.8792"/>
  <rect x="130.62" y="51.851" width="15.875" height="7.6729"/>
  <rect x="151.78" y="48.676" width="15.875" height="8.2021"/>
 </g>
 <g fill="#ffd179">
  <rect x="45.95" y="56.879" width="15.875" height="12.435"/>
  <rect x="67.117" y="52.645" width="15.875" height="13.494"/>
  <rect x="88.284" y="47.089" width="15.875" height="15.081"/>
  <rect x="109.45" y="40.474" width="15.875" height="16.669"/>
  <rect x="130.62" y="33.86" width="15.875" height="17.992"/>
  <rect x="151.78" y="29.362" width="15.875" height="19.315"/>
 </g>
 <g fill="#1d232d" stroke-linecap="round" stroke-width=".26458">
  <g aria-label="9%">
   <path d="m51.971 71.027c-0.1524 0-0.2667-0.07938-0.2667-0.2921 0-0.2286 0.11748-0.32702 0.254-0.32702 0.14288 0 0.27305 0.1016 0.31432 0.4191-0.0889 0.14605-0.20002 0.20002-0.30162 0.20002zm-0.66358 0.88265c0.127 0.127 0.32385 0.2413 0.59055 0.2413 0.42228 0 0.81598-0.33972 0.81598-1.0922 0-0.70802-0.37465-1.0001-0.76518-1.0001-0.36512 0-0.66992 0.25718-0.66992 0.67628 0 0.42545 0.25718 0.6223 0.60008 0.6223 0.12382 0 0.29845-0.07937 0.40322-0.21272-0.01588 0.4699-0.1905 0.62865-0.41592 0.62865-0.11748 0-0.24448-0.06668-0.31115-0.14288z"/>
   <path d="m53.442 71.319c0.29845 0 0.51752-0.24448 0.51752-0.6604 0-0.41275-0.21908-0.65405-0.51752-0.65405s-0.51435 0.2413-0.51435 0.65405c0 0.41592 0.2159 0.6604 0.51435 0.6604zm0-0.26035c-0.10478 0-0.1905-0.10478-0.1905-0.40005 0-0.2921 0.08572-0.3937 0.1905-0.3937 0.10478 0 0.1905 0.1016 0.1905 0.3937 0 0.29528-0.08573 0.40005-0.1905 0.40005zm0.3429 1.0922 1.1144-2.1463h-0.2667l-1.1176 2.1463zm1.1843 0c0.29845 0 0.51752-0.24448 0.51752-0.6604 0-0.41275-0.21908-0.65405-0.51752-0.65405s-0.51752 0.2413-0.51752 0.65405c0 0.41592 0.21908 0.6604 0.51752 0.6604zm0-0.26035c-0.10478 0-0.1905-0.10478-0.1905-0.40005s0.08572-0.3937 0.1905-0.3937c0.10478 0 0.1905 0.09843 0.1905 0.3937 0 0.29528-0.08573 0.40005-0.1905 0.40005z"/>
  </g>
  <g aria-label="30%">
   <path d="m50.976 64.028c0.14605 0.17145 0.37465 0.28575 0.70168 0.28575 0.4064 0 0.7493-0.21272 0.7493-0.58738 0-0.26035-0.16828-0.42545-0.40005-0.49212v-0.0127c0.2159-0.09208 0.33655-0.23812 0.33655-0.44768 0-0.35242-0.2794-0.55245-0.69532-0.55245-0.24765 0-0.45085 0.09842-0.635 0.25718l0.23495 0.28575c0.127-0.11112 0.23495-0.1778 0.37782-0.1778 0.15875 0 0.24765 0.08255 0.24765 0.22225 0 0.16192-0.1143 0.26988-0.47625 0.26988v0.3302c0.43815 0 0.54292 0.11112 0.54292 0.28892 0 0.1524-0.13018 0.23812-0.32702 0.23812-0.17145 0-0.32068-0.08573-0.44132-0.2032z"/>
   <path d="m53.419 64.313c0.4318 0 0.72072-0.3683 0.72072-1.0541s-0.28892-1.0382-0.72072-1.0382-0.72072 0.35242-0.72072 1.0382 0.28892 1.0541 0.72072 1.0541zm0-0.36195c-0.15558 0-0.2794-0.14288-0.2794-0.69215 0-0.55245 0.12382-0.67628 0.2794-0.67628 0.15875 0 0.2794 0.12382 0.2794 0.67628 0 0.54928-0.12065 0.69215-0.2794 0.69215z"/>
   <path d="m54.852 63.481c0.29845 0 0.51752-0.24448 0.51752-0.6604 0-0.41275-0.21908-0.65405-0.51752-0.65405s-0.51435 0.2413-0.51435 0.65405c0 0.41592 0.2159 0.6604 0.51435 0.6604zm0-0.26035c-0.10478 0-0.1905-0.10478-0.1905-0.40005 0-0.2921 0.08572-0.3937 0.1905-0.3937 0.10478 0 0.1905 0.1016 0.1905 0.3937 0 0.29528-0.08573 0.40005-0.1905 0.40005zm0.3429 1.0922 1.1144-2.1463h-0.2667l-1.1176 2.1463zm1.1843 0c0.29845 0 0.51752-0.24448 0.51752-0.6604 0-0.41275-0.21908-0.65405-0.51752-0.65405s-0.51752 0.2413-0.51752 0.65405c0 0.41592 0.21908 0.6604 0.51752 0.6604zm0-0.26035c-0.10478 0-0.1905-0.10478-0.1905-0.40005s0.08572-0.3937 0.1905-0.3937c0.10478 0 0.1905 0.09842 0.1905 0.3937 0 0.29528-0.08573 0.40005-0.1905 0.40005z"/>
  </g>
  <g aria-label="28%">
   <path d="m51.024 52.104h1.4192v-0.3937h-0.4064c-0.09525 0-0.23495 0.0127-0.33655 0.0254 0.32702-0.3429 0.64452-0.70485 0.64452-1.0446 0-0.38735-0.26988-0.64135-0.66675-0.64135-0.28892 0-0.47625 0.10795-0.67628 0.32068l0.254 0.25082c0.1016-0.10795 0.21272-0.20638 0.35878-0.20638 0.17462 0 0.28575 0.10795 0.28575 0.3048 0 0.28575-0.36195 0.63182-0.8763 1.1176z"/>
   <path d="m53.114 51.536c0-0.12382 0.06667-0.23812 0.15558-0.32068 0.254 0.10795 0.42545 0.17462 0.42545 0.35242 0 0.16828-0.1143 0.25082-0.26988 0.25082-0.16828 0-0.31115-0.10478-0.31115-0.28258zm0.42862-0.60642c-0.20638-0.07938-0.34608-0.15875-0.34608-0.32385 0-0.15558 0.1016-0.23178 0.22542-0.23178 0.1524 0 0.24448 0.10478 0.24448 0.26035 0 0.10478-0.04445 0.2032-0.12382 0.29528zm-0.82868 0.6604c0 0.32702 0.29845 0.55245 0.70168 0.55245 0.42862 0 0.71438-0.2413 0.71438-0.5588 0-0.2667-0.15558-0.42228-0.34925-0.52705v-0.0127c0.1397-0.09208 0.26352-0.24765 0.26352-0.44132 0-0.33338-0.24448-0.55245-0.61278-0.55245-0.37465 0-0.64452 0.21272-0.64452 0.55562 0 0.21272 0.1143 0.35878 0.26988 0.47625v0.0127c-0.1905 0.1016-0.3429 0.25082-0.3429 0.4953z"/>
   <path d="m54.852 51.311c0.29845 0 0.51752-0.24448 0.51752-0.6604 0-0.41275-0.21908-0.65405-0.51752-0.65405s-0.51435 0.2413-0.51435 0.65405c0 0.41592 0.2159 0.6604 0.51435 0.6604zm0-0.26035c-0.10478 0-0.1905-0.10478-0.1905-0.40005 0-0.2921 0.08572-0.3937 0.1905-0.3937 0.10478 0 0.1905 0.1016 0.1905 0.3937 0 0.29528-0.08573 0.40005-0.1905 0.40005zm0.3429 1.0922 1.1144-2.1463h-0.2667l-1.1176 2.1463zm1.1843 0c0.29845 0 0.51752-0.24448 0.51752-0.6604 0-0.41275-0.21908-0.65405-0.51752-0.65405s-0.51752 0.2413-0.51752 0.65405c0 0.41592 0.21908 0.6604 0.51752 0.6604zm0-0.26035c-0.10478 0-0.1905-0.10478-0.1905-0.40005s0.08572-0.3937 0.1905-0.3937c0.10478 0 0.1905 0.09842 0.1905 0.3937 0 0.29528-0.08573 0.40005-0.1905 0.40005z"/>
  </g>
  <g aria-label="33%">
   <path d="m50.976 80.696c0.14605 0.17145 0.37465 0.28575 0.70168 0.28575 0.4064 0 0.7493-0.21272 0.7493-0.58738 0-0.26035-0.16828-0.42545-0.40005-0.49212v-0.0127c0.2159-0.09207 0.33655-0.23812 0.33655-0.44768 0-0.35242-0.2794-0.55245-0.69532-0.55245-0.24765 0-0.45085 0.09842-0.635 0.25718l0.23495 0.28575c0.127-0.11112 0.23495-0.1778 0.37782-0.1778 0.15875 0 0.24765 0.08255 0.24765 0.22225 0 0.16192-0.1143 0.26988-0.47625 0.26988v0.3302c0.43815 0 0.54292 0.11112 0.54292 0.28892 0 0.1524-0.13018 0.23812-0.32702 0.23812-0.17145 0-0.32068-0.08572-0.44132-0.2032z"/>
   <path d="m52.65 80.696c0.14605 0.17145 0.37465 0.28575 0.70168 0.28575 0.4064 0 0.7493-0.21272 0.7493-0.58738 0-0.26035-0.16828-0.42545-0.40005-0.49212v-0.0127c0.2159-0.09207 0.33655-0.23812 0.33655-0.44768 0-0.35242-0.2794-0.55245-0.69532-0.55245-0.24765 0-0.45085 0.09842-0.635 0.25718l0.23495 0.28575c0.127-0.11112 0.23495-0.1778 0.37782-0.1778 0.15875 0 0.24765 0.08255 0.24765 0.22225 0 0.16192-0.1143 0.26988-0.47625 0.26988v0.3302c0.43815 0 0.54292 0.11112 0.54292 0.28892 0 0.1524-0.13018 0.23812-0.32702 0.23812-0.17145 0-0.32068-0.08572-0.44132-0.2032z"/>
   <path d="m54.852 80.15c0.29845 0 0.51752-0.24448 0.51752-0.6604 0-0.41275-0.21908-0.65405-0.51752-0.65405s-0.51435 0.2413-0.51435 0.65405c0 0.41592 0.2159 0.6604 0.51435 0.6604zm0-0.26035c-0.10478 0-0.1905-0.10478-0.1905-0.40005 0-0.2921 0.08572-0.3937 0.1905-0.3937 0.10478 0 0.1905 0.1016 0.1905 0.3937 0 0.29528-0.08573 0.40005-0.1905 0.40005zm0.3429 1.0922 1.1144-2.1463h-0.2667l-1.1176 2.1463zm1.1843 0c0.29845 0 0.51752-0.24448 0.51752-0.6604 0-0.41275-0.21908-0.65405-0.51752-0.65405s-0.51752 0.2413-0.51752 0.65405c0 0.41592 0.21908 0.6604 0.51752 0.6604zm0-0.26035c-0.10478 0-0.1905-0.10478-0.1905-0.40005s0.08572-0.3937 0.1905-0.3937c0.10478 0 0.1905 0.09843 0.1905 0.3937 0 0.29528-0.08573 0.40005-0.1905 0.40005z"/>
  </g>
  <g aria-label="10%">
   <path d="m72.03 69.732h1.2827v-0.37782h-0.37782v-1.6383h-0.3429c-0.14288 0.08572-0.28258 0.14288-0.50165 0.18415v0.28892h0.37782v1.1652h-0.43815z"/>
   <path d="m74.321 69.77c0.4318 0 0.72072-0.3683 0.72072-1.0541s-0.28892-1.0382-0.72072-1.0382-0.72072 0.35242-0.72072 1.0382 0.28892 1.0541 0.72072 1.0541zm0-0.36195c-0.15558 0-0.2794-0.14288-0.2794-0.69215 0-0.55245 0.12382-0.67628 0.2794-0.67628 0.15875 0 0.2794 0.12382 0.2794 0.67628 0 0.54928-0.12065 0.69215-0.2794 0.69215z"/>
   <path d="m75.754 68.938c0.29845 0 0.51752-0.24448 0.51752-0.6604 0-0.41275-0.21908-0.65405-0.51752-0.65405s-0.51435 0.2413-0.51435 0.65405c0 0.41592 0.2159 0.6604 0.51435 0.6604zm0-0.26035c-0.10478 0-0.1905-0.10478-0.1905-0.40005 0-0.2921 0.08572-0.3937 0.1905-0.3937 0.10478 0 0.1905 0.1016 0.1905 0.3937 0 0.29528-0.08572 0.40005-0.1905 0.40005zm0.3429 1.0922 1.1144-2.1463h-0.2667l-1.1176 2.1463zm1.1843 0c0.29845 0 0.51752-0.24448 0.51752-0.6604 0-0.41275-0.21908-0.65405-0.51752-0.65405s-0.51752 0.2413-0.51752 0.65405c0 0.41592 0.21908 0.6604 0.51752 0.6604zm0-0.26035c-0.10478 0-0.1905-0.10478-0.1905-0.40005s0.08572-0.3937 0.1905-0.3937c0.10478 0 0.1905 0.09842 0.1905 0.3937 0 0.29528-0.08572 0.40005-0.1905 0.40005z"/>
  </g>
  <g aria-label="29%">
   <path d="m72.19 60.571h1.4192v-0.3937h-0.4064c-0.09525 0-0.23495 0.0127-0.33655 0.0254 0.32702-0.3429 0.64452-0.70485 0.64452-1.0446 0-0.38735-0.26988-0.64135-0.66675-0.64135-0.28892 0-0.47625 0.10795-0.67628 0.32068l0.254 0.25082c0.1016-0.10795 0.21272-0.20638 0.35878-0.20638 0.17462 0 0.28575 0.10795 0.28575 0.3048 0 0.28575-0.36195 0.63182-0.8763 1.1176z"/>
   <path d="m74.547 59.485c-0.1524 0-0.2667-0.07937-0.2667-0.2921 0-0.2286 0.11748-0.32702 0.254-0.32702 0.14288 0 0.27305 0.1016 0.31432 0.4191-0.0889 0.14605-0.20002 0.20002-0.30162 0.20002zm-0.66358 0.88265c0.127 0.127 0.32385 0.2413 0.59055 0.2413 0.42228 0 0.81598-0.33972 0.81598-1.0922 0-0.70802-0.37465-1.0001-0.76518-1.0001-0.36512 0-0.66992 0.25718-0.66992 0.67628 0 0.42545 0.25718 0.6223 0.60008 0.6223 0.12382 0 0.29845-0.07937 0.40322-0.21272-0.01587 0.4699-0.1905 0.62865-0.41592 0.62865-0.11748 0-0.24448-0.06667-0.31115-0.14288z"/>
   <path d="m76.018 59.777c0.29845 0 0.51752-0.24448 0.51752-0.6604 0-0.41275-0.21908-0.65405-0.51752-0.65405s-0.51435 0.2413-0.51435 0.65405c0 0.41592 0.2159 0.6604 0.51435 0.6604zm0-0.26035c-0.10478 0-0.1905-0.10478-0.1905-0.40005 0-0.2921 0.08572-0.3937 0.1905-0.3937 0.10478 0 0.1905 0.1016 0.1905 0.3937 0 0.29528-0.08573 0.40005-0.1905 0.40005zm0.3429 1.0922 1.1144-2.1463h-0.2667l-1.1176 2.1463zm1.1843 0c0.29845 0 0.51752-0.24448 0.51752-0.6604 0-0.41275-0.21908-0.65405-0.51752-0.65405s-0.51752 0.2413-0.51752 0.65405c0 0.41592 0.21908 0.6604 0.51752 0.6604zm0-0.26035c-0.10478 0-0.1905-0.10478-0.1905-0.40005s0.08572-0.3937 0.1905-0.3937c0.10478 0 0.1905 0.09842 0.1905 0.3937 0 0.29528-0.08573 0.40005-0.1905 0.40005z"/>
  </g>
  <g aria-label="27%">
   <path d="m72.19 47.606h1.4192v-0.3937h-0.4064c-0.09525 0-0.23495 0.0127-0.33655 0.0254 0.32702-0.3429 0.64452-0.70485 0.64452-1.0446 0-0.38735-0.26988-0.64135-0.66675-0.64135-0.28892 0-0.47625 0.10795-0.67628 0.32068l0.254 0.25082c0.1016-0.10795 0.21272-0.20638 0.35878-0.20638 0.17462 0 0.28575 0.10795 0.28575 0.3048 0 0.28575-0.36195 0.63182-0.8763 1.1176z"/>
   <path d="m74.252 47.606h0.4699c0.03493-0.7874 0.1016-1.1652 0.56832-1.7304v-0.28575h-1.4034v0.3937h0.90488c-0.381 0.52705-0.50165 0.9525-0.53975 1.6224z"/>
   <path d="m76.018 46.813c0.29845 0 0.51752-0.24448 0.51752-0.6604 0-0.41275-0.21908-0.65405-0.51752-0.65405s-0.51435 0.2413-0.51435 0.65405c0 0.41592 0.2159 0.6604 0.51435 0.6604zm0-0.26035c-0.10478 0-0.1905-0.10478-0.1905-0.40005 0-0.2921 0.08572-0.3937 0.1905-0.3937 0.10478 0 0.1905 0.1016 0.1905 0.3937 0 0.29528-0.08573 0.40005-0.1905 0.40005zm0.3429 1.0922 1.1144-2.1463h-0.2667l-1.1176 2.1463zm1.1843 0c0.29845 0 0.51752-0.24448 0.51752-0.6604 0-0.41275-0.21908-0.65405-0.51752-0.65405s-0.51752 0.2413-0.51752 0.65405c0 0.41592 0.21908 0.6604 0.51752 0.6604zm0-0.26035c-0.10478 0-0.1905-0.10478-0.1905-0.40005s0.08572-0.3937 0.1905-0.3937c0.10478 0 0.1905 0.09842 0.1905 0.3937 0 0.29528-0.08573 0.40005-0.1905 0.40005z"/>
  </g>
  <g aria-label="34%">
   <path d="m72.143 79.638c0.14605 0.17145 0.37465 0.28575 0.70168 0.28575 0.4064 0 0.7493-0.21272 0.7493-0.58738 0-0.26035-0.16828-0.42545-0.40005-0.49212v-0.0127c0.2159-0.09207 0.33655-0.23812 0.33655-0.44768 0-0.35242-0.2794-0.55245-0.69532-0.55245-0.24765 0-0.45085 0.09843-0.635 0.25718l0.23495 0.28575c0.127-0.11112 0.23495-0.1778 0.37782-0.1778 0.15875 0 0.24765 0.08255 0.24765 0.22225 0 0.16192-0.1143 0.26988-0.47625 0.26988v0.3302c0.43815 0 0.54292 0.11112 0.54292 0.28892 0 0.1524-0.13018 0.23812-0.32702 0.23812-0.17145 0-0.32068-0.08572-0.44132-0.2032z"/>
   <path d="m74.255 79.047 0.2667-0.43815c0.05715-0.1143 0.1143-0.2286 0.1651-0.33972h0.0127c-0.0063 0.127-0.01905 0.32068-0.01905 0.45085v0.32702zm1.0922 0h-0.23178v-1.1779h-0.5715l-0.7366 1.2128v0.32068h0.87312v0.4826h0.43498v-0.4826h0.23178z"/>
   <path d="m76.018 79.092c0.29845 0 0.51752-0.24448 0.51752-0.6604 0-0.41275-0.21908-0.65405-0.51752-0.65405s-0.51435 0.2413-0.51435 0.65405c0 0.41592 0.2159 0.6604 0.51435 0.6604zm0-0.26035c-0.10478 0-0.1905-0.10478-0.1905-0.40005 0-0.2921 0.08572-0.3937 0.1905-0.3937 0.10478 0 0.1905 0.1016 0.1905 0.3937 0 0.29528-0.08573 0.40005-0.1905 0.40005zm0.3429 1.0922 1.1144-2.1463h-0.2667l-1.1176 2.1463zm1.1843 0c0.29845 0 0.51752-0.24448 0.51752-0.6604 0-0.41275-0.21908-0.65405-0.51752-0.65405s-0.51752 0.2413-0.51752 0.65405c0 0.41592 0.21908 0.6604 0.51752 0.6604zm0-0.26035c-0.10478 0-0.1905-0.10478-0.1905-0.40005s0.08572-0.3937 0.1905-0.3937c0.10478 0 0.1905 0.09843 0.1905 0.3937 0 0.29528-0.08573 0.40005-0.1905 0.40005z"/>
  </g>
  <g aria-label="10%">
   <path d="m93.197 66.027h1.2827v-0.37782h-0.37782v-1.6383h-0.3429c-0.14288 0.08573-0.28258 0.14288-0.50165 0.18415v0.28892h0.37782v1.1652h-0.43815z"/>
   <path d="m95.487 66.066c0.4318 0 0.72072-0.3683 0.72072-1.0541s-0.28892-1.0382-0.72072-1.0382-0.72072 0.35242-0.72072 1.0382 0.28892 1.0541 0.72072 1.0541zm0-0.36195c-0.15558 0-0.2794-0.14288-0.2794-0.69215 0-0.55245 0.12382-0.67628 0.2794-0.67628 0.15875 0 0.2794 0.12382 0.2794 0.67628 0 0.54928-0.12065 0.69215-0.2794 0.69215z"/>
   <path d="m96.92 65.234c0.29845 0 0.51752-0.24448 0.51752-0.6604 0-0.41275-0.21908-0.65405-0.51752-0.65405s-0.51435 0.2413-0.51435 0.65405c0 0.41592 0.2159 0.6604 0.51435 0.6604zm0-0.26035c-0.10478 0-0.1905-0.10478-0.1905-0.40005 0-0.2921 0.08573-0.3937 0.1905-0.3937 0.10478 0 0.1905 0.1016 0.1905 0.3937 0 0.29528-0.08572 0.40005-0.1905 0.40005zm0.3429 1.0922 1.1144-2.1463h-0.2667l-1.1176 2.1463zm1.1843 0c0.29845 0 0.51752-0.24448 0.51752-0.6604 0-0.41275-0.21908-0.65405-0.51752-0.65405s-0.51752 0.2413-0.51752 0.65405c0 0.41592 0.21908 0.6604 0.51752 0.6604zm0-0.26035c-0.10478 0-0.1905-0.10478-0.1905-0.40005s0.08573-0.3937 0.1905-0.3937c0.10478 0 0.1905 0.09842 0.1905 0.3937 0 0.29528-0.08572 0.40005-0.1905 0.40005z"/>
  </g>
  <g aria-label="28%">
   <path d="m93.357 55.809h1.4192v-0.3937h-0.4064c-0.09525 0-0.23495 0.0127-0.33655 0.0254 0.32702-0.3429 0.64452-0.70485 0.64452-1.0446 0-0.38735-0.26988-0.64135-0.66675-0.64135-0.28892 0-0.47625 0.10795-0.67628 0.32068l0.254 0.25082c0.1016-0.10795 0.21272-0.20638 0.35878-0.20638 0.17462 0 0.28575 0.10795 0.28575 0.3048 0 0.28575-0.36195 0.63182-0.8763 1.1176z"/>
   <path d="m95.447 55.24c0-0.12382 0.06668-0.23812 0.15558-0.32068 0.254 0.10795 0.42545 0.17462 0.42545 0.35242 0 0.16828-0.1143 0.25082-0.26988 0.25082-0.16828 0-0.31115-0.10478-0.31115-0.28258zm0.42862-0.60642c-0.20638-0.07938-0.34608-0.15875-0.34608-0.32385 0-0.15558 0.1016-0.23178 0.22542-0.23178 0.1524 0 0.24448 0.10478 0.24448 0.26035 0 0.10478-0.04445 0.2032-0.12382 0.29528zm-0.82868 0.6604c0 0.32702 0.29845 0.55245 0.70168 0.55245 0.42862 0 0.71438-0.2413 0.71438-0.5588 0-0.2667-0.15558-0.42228-0.34925-0.52705v-0.0127c0.1397-0.09207 0.26352-0.24765 0.26352-0.44132 0-0.33338-0.24448-0.55245-0.61278-0.55245-0.37465 0-0.64452 0.21272-0.64452 0.55562 0 0.21272 0.1143 0.35878 0.26988 0.47625v0.0127c-0.1905 0.1016-0.3429 0.25082-0.3429 0.4953z"/>
   <path d="m97.185 55.015c0.29845 0 0.51752-0.24448 0.51752-0.6604 0-0.41275-0.21908-0.65405-0.51752-0.65405s-0.51435 0.2413-0.51435 0.65405c0 0.41592 0.2159 0.6604 0.51435 0.6604zm0-0.26035c-0.10478 0-0.1905-0.10478-0.1905-0.40005 0-0.2921 0.08572-0.3937 0.1905-0.3937 0.10478 0 0.1905 0.1016 0.1905 0.3937 0 0.29528-0.08573 0.40005-0.1905 0.40005zm0.3429 1.0922 1.1144-2.1463h-0.2667l-1.1176 2.1463zm1.1843 0c0.29845 0 0.51752-0.24448 0.51752-0.6604 0-0.41275-0.21908-0.65405-0.51752-0.65405s-0.51752 0.2413-0.51752 0.65405c0 0.41592 0.21908 0.6604 0.51752 0.6604zm0-0.26035c-0.10478 0-0.1905-0.10478-0.1905-0.40005s0.08572-0.3937 0.1905-0.3937c0.10478 0 0.1905 0.09842 0.1905 0.3937 0 0.29528-0.08573 0.40005-0.1905 0.40005z"/>
  </g>
  <g aria-label="26%">
   <path d="m93.357 41.256h1.4192v-0.3937h-0.4064c-0.09525 0-0.23495 0.0127-0.33655 0.0254 0.32702-0.3429 0.64452-0.70485 0.64452-1.0446 0-0.38735-0.26988-0.64135-0.66675-0.64135-0.28892 0-0.47625 0.10795-0.67628 0.32068l0.254 0.25082c0.1016-0.10795 0.21272-0.20638 0.35878-0.20638 0.17462 0 0.28575 0.10795 0.28575 0.3048 0 0.28575-0.36195 0.63182-0.8763 1.1176z"/>
   <path d="m95.796 40.945c-0.1397 0-0.27305-0.1016-0.31432-0.4191 0.09208-0.14605 0.2032-0.20002 0.3048-0.20002 0.1524 0 0.26352 0.07937 0.26352 0.2921 0 0.2286-0.1143 0.32702-0.254 0.32702zm0.65088-1.5018c-0.127-0.13018-0.32068-0.2413-0.58738-0.2413-0.42545 0-0.81598 0.33972-0.81598 1.0922 0 0.70802 0.37148 1.0001 0.762 1.0001 0.36512 0 0.66992-0.25718 0.66992-0.67628 0-0.42545-0.254-0.6223-0.60008-0.6223-0.12382 0-0.29845 0.07938-0.40322 0.21272 0.01587-0.4699 0.19368-0.62865 0.41592-0.62865 0.11748 0 0.24448 0.06667 0.31432 0.14288z"/>
   <path d="m97.185 40.463c0.29845 0 0.51752-0.24448 0.51752-0.6604 0-0.41275-0.21908-0.65405-0.51752-0.65405s-0.51435 0.2413-0.51435 0.65405c0 0.41592 0.2159 0.6604 0.51435 0.6604zm0-0.26035c-0.10478 0-0.1905-0.10478-0.1905-0.40005 0-0.2921 0.08572-0.3937 0.1905-0.3937 0.10478 0 0.1905 0.1016 0.1905 0.3937 0 0.29528-0.08573 0.40005-0.1905 0.40005zm0.3429 1.0922 1.1144-2.1463h-0.2667l-1.1176 2.1463zm1.1843 0c0.29845 0 0.51752-0.24448 0.51752-0.6604 0-0.41275-0.21908-0.65405-0.51752-0.65405s-0.51752 0.2413-0.51752 0.65405c0 0.41592 0.21908 0.6604 0.51752 0.6604zm0-0.26035c-0.10478 0-0.1905-0.10478-0.1905-0.40005s0.08572-0.3937 0.1905-0.3937c0.10478 0 0.1905 0.09842 0.1905 0.3937 0 0.29528-0.08573 0.40005-0.1905 0.40005z"/>
  </g>
  <g aria-label="36%">
   <path d="m93.309 78.05c0.14605 0.17145 0.37465 0.28575 0.70168 0.28575 0.4064 0 0.7493-0.21272 0.7493-0.58738 0-0.26035-0.16828-0.42545-0.40005-0.49212v-0.0127c0.2159-0.09207 0.33655-0.23812 0.33655-0.44767 0-0.35242-0.2794-0.55245-0.69532-0.55245-0.24765 0-0.45085 0.09843-0.635 0.25718l0.23495 0.28575c0.127-0.11112 0.23495-0.1778 0.37782-0.1778 0.15875 0 0.24765 0.08255 0.24765 0.22225 0 0.16192-0.1143 0.26987-0.47625 0.26987v0.3302c0.43815 0 0.54292 0.11112 0.54292 0.28892 0 0.1524-0.13018 0.23812-0.32702 0.23812-0.17145 0-0.32068-0.08572-0.44132-0.2032z"/>
   <path d="m95.796 77.987c-0.1397 0-0.27305-0.1016-0.31432-0.4191 0.09208-0.14605 0.2032-0.20002 0.3048-0.20002 0.1524 0 0.26352 0.07937 0.26352 0.2921 0 0.2286-0.1143 0.32702-0.254 0.32702zm0.65088-1.5018c-0.127-0.13018-0.32068-0.2413-0.58738-0.2413-0.42545 0-0.81598 0.33972-0.81598 1.0922 0 0.70802 0.37148 1.0001 0.762 1.0001 0.36512 0 0.66992-0.25718 0.66992-0.67628 0-0.42545-0.254-0.6223-0.60008-0.6223-0.12382 0-0.29845 0.07937-0.40322 0.21272 0.01587-0.4699 0.19368-0.62865 0.41592-0.62865 0.11748 0 0.24448 0.06668 0.31432 0.14288z"/>
   <path d="m97.185 77.504c0.29845 0 0.51752-0.24448 0.51752-0.6604 0-0.41275-0.21908-0.65405-0.51752-0.65405s-0.51435 0.2413-0.51435 0.65405c0 0.41592 0.2159 0.6604 0.51435 0.6604zm0-0.26035c-0.10478 0-0.1905-0.10478-0.1905-0.40005 0-0.2921 0.08572-0.3937 0.1905-0.3937 0.10478 0 0.1905 0.1016 0.1905 0.3937 0 0.29527-0.08573 0.40005-0.1905 0.40005zm0.3429 1.0922 1.1144-2.1463h-0.2667l-1.1176 2.1463zm1.1843 0c0.29845 0 0.51752-0.24448 0.51752-0.6604 0-0.41275-0.21908-0.65405-0.51752-0.65405s-0.51752 0.2413-0.51752 0.65405c0 0.41592 0.21908 0.6604 0.51752 0.6604zm0-0.26035c-0.10478 0-0.1905-0.10478-0.1905-0.40005s0.08572-0.3937 0.1905-0.3937c0.10478 0 0.1905 0.09843 0.1905 0.3937 0 0.29528-0.08573 0.40005-0.1905 0.40005z"/>
  </g>
  <g aria-label="11%">
   <path d="m114.36 61.794h1.2827v-0.37782h-0.37783v-1.6383h-0.3429c-0.14287 0.08573-0.28257 0.14288-0.50165 0.18415v0.28892h0.37783v1.1652h-0.43815z"/>
   <path d="m116.04 61.794h1.2827v-0.37782h-0.37782v-1.6383h-0.3429c-0.14288 0.08573-0.28258 0.14288-0.50165 0.18415v0.28892h0.37782v1.1652h-0.43815z"/>
   <path d="m118.09 61c0.29845 0 0.51752-0.24448 0.51752-0.6604 0-0.41275-0.21907-0.65405-0.51752-0.65405s-0.51435 0.2413-0.51435 0.65405c0 0.41592 0.2159 0.6604 0.51435 0.6604zm0-0.26035c-0.10478 0-0.1905-0.10478-0.1905-0.40005 0-0.2921 0.0857-0.3937 0.1905-0.3937 0.10477 0 0.1905 0.1016 0.1905 0.3937 0 0.29528-0.0857 0.40005-0.1905 0.40005zm0.3429 1.0922 1.1144-2.1463h-0.2667l-1.1176 2.1463zm1.1843 0c0.29845 0 0.51753-0.24448 0.51753-0.6604 0-0.41275-0.21908-0.65405-0.51753-0.65405s-0.51752 0.2413-0.51752 0.65405c0 0.41592 0.21907 0.6604 0.51752 0.6604zm0-0.26035c-0.10477 0-0.1905-0.10478-0.1905-0.40005s0.0857-0.3937 0.1905-0.3937c0.10478 0 0.1905 0.09842 0.1905 0.3937 0 0.29528-0.0857 0.40005-0.1905 0.40005z"/>
  </g>
  <g aria-label="27%">
   <path d="m114.52 50.252h1.4192v-0.3937h-0.4064c-0.0953 0-0.23495 0.0127-0.33655 0.0254 0.32702-0.3429 0.64452-0.70485 0.64452-1.0446 0-0.38735-0.26987-0.64135-0.66675-0.64135-0.28892 0-0.47625 0.10795-0.67627 0.32068l0.254 0.25082c0.1016-0.10795 0.21272-0.20638 0.35877-0.20638 0.17463 0 0.28575 0.10795 0.28575 0.3048 0 0.28575-0.36195 0.63182-0.8763 1.1176z"/>
   <path d="m116.59 50.252h0.4699c0.0349-0.7874 0.1016-1.1652 0.56832-1.7304v-0.28575h-1.4034v0.3937h0.90488c-0.381 0.52705-0.50165 0.9525-0.53975 1.6224z"/>
   <path d="m118.35 49.459c0.29845 0 0.51752-0.24448 0.51752-0.6604 0-0.41275-0.21907-0.65405-0.51752-0.65405s-0.51435 0.2413-0.51435 0.65405c0 0.41592 0.2159 0.6604 0.51435 0.6604zm0-0.26035c-0.10478 0-0.1905-0.10478-0.1905-0.40005 0-0.2921 0.0857-0.3937 0.1905-0.3937 0.10477 0 0.1905 0.1016 0.1905 0.3937 0 0.29528-0.0857 0.40005-0.1905 0.40005zm0.3429 1.0922 1.1144-2.1463h-0.2667l-1.1176 2.1463zm1.1843 0c0.29845 0 0.51753-0.24448 0.51753-0.6604 0-0.41275-0.21908-0.65405-0.51753-0.65405s-0.51752 0.2413-0.51752 0.65405c0 0.41592 0.21907 0.6604 0.51752 0.6604zm0-0.26035c-0.10477 0-0.1905-0.10478-0.1905-0.40005s0.0857-0.3937 0.1905-0.3937c0.10478 0 0.1905 0.09842 0.1905 0.3937 0 0.29528-0.0857 0.40005-0.1905 0.40005z"/>
  </g>
  <g aria-label="25%">
   <path d="m114.52 34.377h1.4192v-0.3937h-0.4064c-0.0953 0-0.23495 0.0127-0.33655 0.0254 0.32702-0.3429 0.64452-0.70485 0.64452-1.0446 0-0.38735-0.26987-0.64135-0.66675-0.64135-0.28892 0-0.47625 0.10795-0.67627 0.32068l0.254 0.25082c0.1016-0.10795 0.21272-0.20638 0.35877-0.20638 0.17463 0 0.28575 0.10795 0.28575 0.3048 0 0.28575-0.36195 0.63182-0.8763 1.1176z"/>
   <path d="m116.15 34.133c0.15875 0.15875 0.381 0.28258 0.7112 0.28258 0.3937 0 0.73977-0.25718 0.73977-0.70485 0-0.42862-0.29527-0.62548-0.64135-0.62548-0.0825 0-0.14922 0.0127-0.22542 0.04763l0.0349-0.37782h0.73978v-0.3937h-1.143l-0.0571 1.0192 0.20955 0.13335c0.12065-0.0762 0.18097-0.1016 0.29845-0.1016 0.18732 0 0.3175 0.10795 0.3175 0.31115 0 0.20638-0.13335 0.31432-0.33973 0.31432-0.17145 0-0.31432-0.0889-0.43497-0.20002z"/>
   <path d="m118.35 33.584c0.29845 0 0.51752-0.24448 0.51752-0.6604 0-0.41275-0.21907-0.65405-0.51752-0.65405s-0.51435 0.2413-0.51435 0.65405c0 0.41592 0.2159 0.6604 0.51435 0.6604zm0-0.26035c-0.10478 0-0.1905-0.10478-0.1905-0.40005 0-0.2921 0.0857-0.3937 0.1905-0.3937 0.10477 0 0.1905 0.1016 0.1905 0.3937 0 0.29528-0.0857 0.40005-0.1905 0.40005zm0.3429 1.0922 1.1144-2.1463h-0.2667l-1.1176 2.1463zm1.1843 0c0.29845 0 0.51753-0.24448 0.51753-0.6604 0-0.41275-0.21908-0.65405-0.51753-0.65405s-0.51752 0.2413-0.51752 0.65405c0 0.41592 0.21907 0.6604 0.51752 0.6604zm0-0.26035c-0.10477 0-0.1905-0.10478-0.1905-0.40005s0.0857-0.3937 0.1905-0.3937c0.10478 0 0.1905 0.09842 0.1905 0.3937 0 0.29528-0.0857 0.40005-0.1905 0.40005z"/>
  </g>
  <g aria-label="37%">
   <path d="m114.48 76.198c0.14605 0.17145 0.37465 0.28575 0.70167 0.28575 0.4064 0 0.7493-0.21272 0.7493-0.58738 0-0.26035-0.16827-0.42545-0.40005-0.49212v-0.0127c0.2159-0.09207 0.33655-0.23812 0.33655-0.44768 0-0.35242-0.2794-0.55245-0.69532-0.55245-0.24765 0-0.45085 0.09843-0.635 0.25718l0.23495 0.28575c0.127-0.11112 0.23495-0.1778 0.37782-0.1778 0.15875 0 0.24765 0.08255 0.24765 0.22225 0 0.16192-0.1143 0.26988-0.47625 0.26988v0.3302c0.43815 0 0.54293 0.11112 0.54293 0.28892 0 0.1524-0.13018 0.23812-0.32703 0.23812-0.17145 0-0.32067-0.08572-0.44132-0.2032z"/>
   <path d="m116.59 76.446h0.4699c0.0349-0.7874 0.1016-1.1652 0.56832-1.7304v-0.28575h-1.4034v0.3937h0.90488c-0.381 0.52705-0.50165 0.9525-0.53975 1.6224z"/>
   <path d="m118.35 75.652c0.29845 0 0.51752-0.24448 0.51752-0.6604 0-0.41275-0.21907-0.65405-0.51752-0.65405s-0.51435 0.2413-0.51435 0.65405c0 0.41592 0.2159 0.6604 0.51435 0.6604zm0-0.26035c-0.10478 0-0.1905-0.10478-0.1905-0.40005 0-0.2921 0.0857-0.3937 0.1905-0.3937 0.10477 0 0.1905 0.1016 0.1905 0.3937 0 0.29528-0.0857 0.40005-0.1905 0.40005zm0.3429 1.0922 1.1144-2.1463h-0.2667l-1.1176 2.1463zm1.1843 0c0.29845 0 0.51753-0.24448 0.51753-0.6604 0-0.41275-0.21908-0.65405-0.51753-0.65405s-0.51752 0.2413-0.51752 0.65405c0 0.41592 0.21907 0.6604 0.51752 0.6604zm0-0.26035c-0.10477 0-0.1905-0.10478-0.1905-0.40005s0.0857-0.3937 0.1905-0.3937c0.10478 0 0.1905 0.09843 0.1905 0.3937 0 0.29528-0.0857 0.40005-0.1905 0.40005z"/>
  </g>
  <g aria-label="11%">
   <path d="m135.53 56.767h1.2827v-0.37782h-0.37783v-1.6383h-0.3429c-0.14287 0.08573-0.28257 0.14288-0.50165 0.18415v0.28892h0.37783v1.1652h-0.43815z"/>
   <path d="m137.2 56.767h1.2827v-0.37782h-0.37782v-1.6383h-0.3429c-0.14288 0.08573-0.28258 0.14288-0.50165 0.18415v0.28892h0.37782v1.1652h-0.43815z"/>
   <path d="m139.25 55.973c0.29845 0 0.51752-0.24448 0.51752-0.6604 0-0.41275-0.21907-0.65405-0.51752-0.65405s-0.51435 0.2413-0.51435 0.65405c0 0.41592 0.2159 0.6604 0.51435 0.6604zm0-0.26035c-0.10478 0-0.1905-0.10478-0.1905-0.40005 0-0.2921 0.0857-0.3937 0.1905-0.3937 0.10477 0 0.1905 0.1016 0.1905 0.3937 0 0.29528-0.0857 0.40005-0.1905 0.40005zm0.3429 1.0922 1.1144-2.1463h-0.2667l-1.1176 2.1463zm1.1843 0c0.29845 0 0.51753-0.24448 0.51753-0.6604 0-0.41275-0.21908-0.65405-0.51753-0.65405s-0.51752 0.2413-0.51752 0.65405c0 0.41592 0.21907 0.6604 0.51752 0.6604zm0-0.26035c-0.10477 0-0.1905-0.10478-0.1905-0.40005s0.0857-0.3937 0.1905-0.3937c0.10478 0 0.1905 0.09842 0.1905 0.3937 0 0.29528-0.0857 0.40005-0.1905 0.40005z"/>
  </g>
  <g aria-label="26%">
   <path d="m135.69 43.638h1.4192v-0.3937h-0.4064c-0.0952 0-0.23495 0.0127-0.33655 0.0254 0.32702-0.3429 0.64452-0.70485 0.64452-1.0446 0-0.38735-0.26987-0.64135-0.66675-0.64135-0.28892 0-0.47625 0.10795-0.67627 0.32068l0.254 0.25082c0.1016-0.10795 0.21272-0.20638 0.35877-0.20638 0.17463 0 0.28575 0.10795 0.28575 0.3048 0 0.28575-0.36195 0.63182-0.8763 1.1176z"/>
   <path d="m138.13 43.327c-0.1397 0-0.27305-0.1016-0.31433-0.4191 0.0921-0.14605 0.2032-0.20002 0.3048-0.20002 0.1524 0 0.26353 0.07937 0.26353 0.2921 0 0.2286-0.1143 0.32702-0.254 0.32702zm0.65087-1.5018c-0.127-0.13018-0.32067-0.2413-0.58737-0.2413-0.42545 0-0.81598 0.33972-0.81598 1.0922 0 0.70802 0.37148 1.0001 0.762 1.0001 0.36513 0 0.66993-0.25718 0.66993-0.67628 0-0.42545-0.254-0.6223-0.60008-0.6223-0.12382 0-0.29845 0.07937-0.40322 0.21272 0.0159-0.4699 0.19367-0.62865 0.41592-0.62865 0.11748 0 0.24448 0.06668 0.31433 0.14288z"/>
   <path d="m139.52 42.844c0.29845 0 0.51753-0.24448 0.51753-0.6604 0-0.41275-0.21908-0.65405-0.51753-0.65405s-0.51435 0.2413-0.51435 0.65405c0 0.41592 0.2159 0.6604 0.51435 0.6604zm0-0.26035c-0.10477 0-0.1905-0.10478-0.1905-0.40005 0-0.2921 0.0857-0.3937 0.1905-0.3937 0.10478 0 0.1905 0.1016 0.1905 0.3937 0 0.29528-0.0857 0.40005-0.1905 0.40005zm0.3429 1.0922 1.1144-2.1463h-0.2667l-1.1176 2.1463zm1.1843 0c0.29845 0 0.51752-0.24448 0.51752-0.6604 0-0.41275-0.21907-0.65405-0.51752-0.65405s-0.51753 0.2413-0.51753 0.65405c0 0.41592 0.21908 0.6604 0.51753 0.6604zm0-0.26035c-0.10478 0-0.1905-0.10478-0.1905-0.40005s0.0857-0.3937 0.1905-0.3937c0.10477 0 0.1905 0.09842 0.1905 0.3937 0 0.29528-0.0857 0.40005-0.1905 0.40005z"/>
  </g>
  <g aria-label="24%">
   <path d="m135.69 26.44h1.4192v-0.3937h-0.4064c-0.0952 0-0.23495 0.0127-0.33655 0.0254 0.32702-0.3429 0.64452-0.70485 0.64452-1.0446 0-0.38735-0.26987-0.64135-0.66675-0.64135-0.28892 0-0.47625 0.10795-0.67627 0.32068l0.254 0.25082c0.1016-0.10795 0.21272-0.20638 0.35877-0.20638 0.17463 0 0.28575 0.10795 0.28575 0.3048 0 0.28575-0.36195 0.63182-0.8763 1.1176z"/>
   <path d="m137.76 25.602 0.2667-0.43815c0.0572-0.1143 0.1143-0.2286 0.1651-0.33972h0.0127c-6e-3 0.127-0.019 0.32068-0.019 0.45085v0.32702zm1.0922 0h-0.23178v-1.1779h-0.5715l-0.7366 1.2128v0.32068h0.87313v0.4826h0.43497v-0.4826h0.23178z"/>
   <path d="m139.52 25.646c0.29845 0 0.51753-0.24448 0.51753-0.6604 0-0.41275-0.21908-0.65405-0.51753-0.65405s-0.51435 0.2413-0.51435 0.65405c0 0.41592 0.2159 0.6604 0.51435 0.6604zm0-0.26035c-0.10477 0-0.1905-0.10478-0.1905-0.40005 0-0.2921 0.0857-0.3937 0.1905-0.3937 0.10478 0 0.1905 0.1016 0.1905 0.3937 0 0.29528-0.0857 0.40005-0.1905 0.40005zm0.3429 1.0922 1.1144-2.1463h-0.2667l-1.1176 2.1463zm1.1843 0c0.29845 0 0.51752-0.24448 0.51752-0.6604 0-0.41275-0.21907-0.65405-0.51752-0.65405s-0.51753 0.2413-0.51753 0.65405c0 0.41592 0.21908 0.6604 0.51753 0.6604zm0-0.26035c-0.10478 0-0.1905-0.10478-0.1905-0.40005s0.0857-0.3937 0.1905-0.3937c0.10477 0 0.1905 0.09842 0.1905 0.3937 0 0.29528-0.0857 0.40005-0.1905 0.40005z"/>
  </g>
  <g aria-label="39%">
   <path d="m135.64 74.082c0.14605 0.17145 0.37465 0.28575 0.70167 0.28575 0.4064 0 0.7493-0.21272 0.7493-0.58738 0-0.26035-0.16827-0.42545-0.40005-0.49212v-0.0127c0.2159-0.09207 0.33655-0.23812 0.33655-0.44767 0-0.35242-0.2794-0.55245-0.69532-0.55245-0.24765 0-0.45085 0.09843-0.635 0.25718l0.23495 0.28575c0.127-0.11112 0.23495-0.1778 0.37782-0.1778 0.15875 0 0.24765 0.08255 0.24765 0.22225 0 0.16192-0.1143 0.26987-0.47625 0.26987v0.3302c0.43815 0 0.54293 0.11112 0.54293 0.28892 0 0.1524-0.13018 0.23812-0.32703 0.23812-0.17145 0-0.32067-0.08572-0.44132-0.2032z"/>
   <path d="m138.05 73.244c-0.1524 0-0.2667-0.07937-0.2667-0.2921 0-0.2286 0.11747-0.32702 0.254-0.32702 0.14287 0 0.27305 0.1016 0.31432 0.4191-0.0889 0.14605-0.20002 0.20002-0.30162 0.20002zm-0.66358 0.88265c0.127 0.127 0.32385 0.2413 0.59055 0.2413 0.42228 0 0.81598-0.33972 0.81598-1.0922 0-0.70802-0.37465-1.0001-0.76518-1.0001-0.36512 0-0.66992 0.25718-0.66992 0.67628 0 0.42545 0.25717 0.6223 0.60007 0.6223 0.12383 0 0.29845-0.07937 0.40323-0.21272-0.0159 0.4699-0.1905 0.62865-0.41593 0.62865-0.11747 0-0.24447-0.06668-0.31115-0.14288z"/>
   <path d="m139.52 73.536c0.29845 0 0.51753-0.24448 0.51753-0.6604 0-0.41275-0.21908-0.65405-0.51753-0.65405s-0.51435 0.2413-0.51435 0.65405c0 0.41592 0.2159 0.6604 0.51435 0.6604zm0-0.26035c-0.10477 0-0.1905-0.10478-0.1905-0.40005 0-0.2921 0.0857-0.3937 0.1905-0.3937 0.10478 0 0.1905 0.1016 0.1905 0.3937 0 0.29527-0.0857 0.40005-0.1905 0.40005zm0.3429 1.0922 1.1144-2.1463h-0.2667l-1.1176 2.1463zm1.1843 0c0.29845 0 0.51752-0.24448 0.51752-0.6604 0-0.41275-0.21907-0.65405-0.51752-0.65405s-0.51753 0.2413-0.51753 0.65405c0 0.41592 0.21908 0.6604 0.51753 0.6604zm0-0.26035c-0.10478 0-0.1905-0.10478-0.1905-0.40005s0.0857-0.3937 0.1905-0.3937c0.10477 0 0.1905 0.09843 0.1905 0.3937 0 0.29528-0.0857 0.40005-0.1905 0.40005z"/>
  </g>
  <g aria-label="11%">
   <path d="m156.7 53.857h1.2827v-0.37782h-0.37782v-1.6383h-0.3429c-0.14288 0.08573-0.28258 0.14288-0.50165 0.18415v0.28892h0.37782v1.1652h-0.43815z"/>
   <path d="m158.37 53.857h1.2827v-0.37782h-0.37783v-1.6383h-0.3429c-0.14287 0.08573-0.28257 0.14288-0.50165 0.18415v0.28892h0.37783v1.1652h-0.43815z"/>
   <path d="m160.42 53.063c0.29845 0 0.51752-0.24448 0.51752-0.6604 0-0.41275-0.21907-0.65405-0.51752-0.65405s-0.51435 0.2413-0.51435 0.65405c0 0.41592 0.2159 0.6604 0.51435 0.6604zm0-0.26035c-0.10478 0-0.1905-0.10478-0.1905-0.40005 0-0.2921 0.0857-0.3937 0.1905-0.3937 0.10477 0 0.1905 0.1016 0.1905 0.3937 0 0.29528-0.0857 0.40005-0.1905 0.40005zm0.3429 1.0922 1.1144-2.1463h-0.2667l-1.1176 2.1463zm1.1843 0c0.29845 0 0.51753-0.24448 0.51753-0.6604 0-0.41275-0.21908-0.65405-0.51753-0.65405s-0.51752 0.2413-0.51752 0.65405c0 0.41592 0.21907 0.6604 0.51752 0.6604zm0-0.26035c-0.10477 0-0.1905-0.10478-0.1905-0.40005s0.0857-0.3937 0.1905-0.3937c0.10478 0 0.1905 0.09842 0.1905 0.3937 0 0.29528-0.0857 0.40005-0.1905 0.40005z"/>
  </g>
  <g aria-label="26%">
   <path d="m156.86 40.198h1.4192v-0.3937h-0.4064c-0.0952 0-0.23495 0.0127-0.33655 0.0254 0.32703-0.3429 0.64453-0.70485 0.64453-1.0446 0-0.38735-0.26988-0.64135-0.66675-0.64135-0.28893 0-0.47625 0.10795-0.67628 0.32068l0.254 0.25082c0.1016-0.10795 0.21273-0.20638 0.35878-0.20638 0.17462 0 0.28575 0.10795 0.28575 0.3048 0 0.28575-0.36195 0.63182-0.8763 1.1176z"/>
   <path d="m159.3 39.887c-0.1397 0-0.27305-0.1016-0.31433-0.4191 0.0921-0.14605 0.2032-0.20002 0.3048-0.20002 0.1524 0 0.26353 0.07937 0.26353 0.2921 0 0.2286-0.1143 0.32702-0.254 0.32702zm0.65087-1.5018c-0.127-0.13018-0.32067-0.2413-0.58737-0.2413-0.42545 0-0.81598 0.33972-0.81598 1.0922 0 0.70802 0.37148 1.0001 0.762 1.0001 0.36513 0 0.66993-0.25718 0.66993-0.67628 0-0.42545-0.254-0.6223-0.60008-0.6223-0.12382 0-0.29845 0.07937-0.40322 0.21272 0.0159-0.4699 0.19367-0.62865 0.41592-0.62865 0.11748 0 0.24448 0.06667 0.31433 0.14288z"/>
   <path d="m160.68 39.404c0.29845 0 0.51753-0.24448 0.51753-0.6604 0-0.41275-0.21908-0.65405-0.51753-0.65405s-0.51435 0.2413-0.51435 0.65405c0 0.41592 0.2159 0.6604 0.51435 0.6604zm0-0.26035c-0.10477 0-0.1905-0.10478-0.1905-0.40005 0-0.2921 0.0857-0.3937 0.1905-0.3937 0.10478 0 0.1905 0.1016 0.1905 0.3937 0 0.29528-0.0857 0.40005-0.1905 0.40005zm0.3429 1.0922 1.1144-2.1463h-0.2667l-1.1176 2.1463zm1.1843 0c0.29845 0 0.51752-0.24448 0.51752-0.6604 0-0.41275-0.21907-0.65405-0.51752-0.65405s-0.51753 0.2413-0.51753 0.65405c0 0.41592 0.21908 0.6604 0.51753 0.6604zm0-0.26035c-0.10478 0-0.1905-0.10478-0.1905-0.40005s0.0857-0.3937 0.1905-0.3937c0.10477 0 0.1905 0.09842 0.1905 0.3937 0 0.29528-0.0857 0.40005-0.1905 0.40005z"/>
  </g>
  <g aria-label="23%">
   <path d="m156.86 21.677h1.4192v-0.3937h-0.4064c-0.0952 0-0.23495 0.0127-0.33655 0.0254 0.32703-0.3429 0.64453-0.70485 0.64453-1.0446 0-0.38735-0.26988-0.64135-0.66675-0.64135-0.28893 0-0.47625 0.10795-0.67628 0.32068l0.254 0.25082c0.1016-0.10795 0.21273-0.20638 0.35878-0.20638 0.17462 0 0.28575 0.10795 0.28575 0.3048 0 0.28575-0.36195 0.63182-0.8763 1.1176z"/>
   <path d="m158.48 21.43c0.14605 0.17145 0.37465 0.28575 0.70167 0.28575 0.4064 0 0.7493-0.21272 0.7493-0.58738 0-0.26035-0.16827-0.42545-0.40005-0.49212v-0.0127c0.2159-0.09208 0.33655-0.23812 0.33655-0.44768 0-0.35242-0.2794-0.55245-0.69532-0.55245-0.24765 0-0.45085 0.09843-0.635 0.25718l0.23495 0.28575c0.127-0.11112 0.23495-0.1778 0.37782-0.1778 0.15875 0 0.24765 0.08255 0.24765 0.22225 0 0.16192-0.1143 0.26988-0.47625 0.26988v0.3302c0.43815 0 0.54293 0.11112 0.54293 0.28892 0 0.1524-0.13018 0.23812-0.32703 0.23812-0.17145 0-0.32067-0.08573-0.44132-0.2032z"/>
   <path d="m160.68 20.884c0.29845 0 0.51753-0.24448 0.51753-0.6604 0-0.41275-0.21908-0.65405-0.51753-0.65405s-0.51435 0.2413-0.51435 0.65405c0 0.41592 0.2159 0.6604 0.51435 0.6604zm0-0.26035c-0.10477 0-0.1905-0.10478-0.1905-0.40005 0-0.2921 0.0857-0.3937 0.1905-0.3937 0.10478 0 0.1905 0.1016 0.1905 0.3937 0 0.29528-0.0857 0.40005-0.1905 0.40005zm0.3429 1.0922 1.1144-2.1463h-0.2667l-1.1176 2.1463zm1.1843 0c0.29845 0 0.51752-0.24448 0.51752-0.6604 0-0.41275-0.21907-0.65405-0.51752-0.65405s-0.51753 0.2413-0.51753 0.65405c0 0.41592 0.21908 0.6604 0.51753 0.6604zm0-0.26035c-0.10478 0-0.1905-0.10478-0.1905-0.40005s0.0857-0.3937 0.1905-0.3937c0.10477 0 0.1905 0.09842 0.1905 0.3937 0 0.29528-0.0857 0.40005-0.1905 0.40005z"/>
  </g>
  <g aria-label="40%">
   <path d="m157.25 72.168 0.2667-0.43815c0.0572-0.1143 0.1143-0.2286 0.1651-0.33972h0.0127c-6e-3 0.127-0.0191 0.32068-0.0191 0.45085v0.32702zm1.0922 0h-0.23177v-1.1779h-0.5715l-0.7366 1.2128v0.32068h0.87312v0.4826h0.43498v-0.4826h0.23177z"/>
   <path d="m159.25 73.045c0.4318 0 0.72072-0.3683 0.72072-1.0541s-0.28892-1.0382-0.72072-1.0382-0.72073 0.35242-0.72073 1.0382 0.28893 1.0541 0.72073 1.0541zm0-0.36195c-0.15558 0-0.2794-0.14288-0.2794-0.69215 0-0.55245 0.12382-0.67628 0.2794-0.67628 0.15875 0 0.2794 0.12382 0.2794 0.67628 0 0.54928-0.12065 0.69215-0.2794 0.69215z"/>
   <path d="m160.68 72.213c0.29845 0 0.51753-0.24448 0.51753-0.6604 0-0.41275-0.21908-0.65405-0.51753-0.65405s-0.51435 0.2413-0.51435 0.65405c0 0.41592 0.2159 0.6604 0.51435 0.6604zm0-0.26035c-0.10477 0-0.1905-0.10478-0.1905-0.40005 0-0.2921 0.0857-0.3937 0.1905-0.3937 0.10478 0 0.1905 0.1016 0.1905 0.3937 0 0.29528-0.0857 0.40005-0.1905 0.40005zm0.3429 1.0922 1.1144-2.1463h-0.2667l-1.1176 2.1463zm1.1843 0c0.29845 0 0.51752-0.24448 0.51752-0.6604 0-0.41275-0.21907-0.65405-0.51752-0.65405s-0.51753 0.2413-0.51753 0.65405c0 0.41592 0.21908 0.6604 0.51753 0.6604zm0-0.26035c-0.10478 0-0.1905-0.10478-0.1905-0.40005s0.0857-0.3937 0.1905-0.3937c0.10477 0 0.1905 0.09843 0.1905 0.3937 0 0.29528-0.0857 0.40005-0.1905 0.40005z"/>
  </g>
 </g>
 <g fill="#e8eaec" stroke-linecap="round" stroke-width=".26458">
  <g aria-label="$76Bn">
   <path d="m28.801 44.996c-0.14446-0.15187-0.31486-0.2704-0.55192-0.30374v-0.37412h-0.3593v0.38153c-0.34819 0.07038-0.56303 0.32226-0.56303 0.68527 0 0.66675 0.9779 0.65934 0.9779 1.0409 0 0.17039-0.0926 0.25559-0.30004 0.25559-0.1778 0-0.34078-0.07408-0.5297-0.21484l-0.23707 0.36671c0.1741 0.15928 0.43339 0.25559 0.65193 0.28152v0.37042h0.3593v-0.38523c0.38153-0.08149 0.57785-0.3556 0.57785-0.7112 0-0.7075-0.9779-0.67786-0.9779-1.0298 0-0.16669 0.09631-0.23707 0.27411-0.23707 0.15558 0 0.2704 0.06297 0.40375 0.18521z"/>
   <path d="m29.636 47.077h0.54822c0.04075-0.91863 0.11853-1.3594 0.66305-2.0188v-0.33338h-1.6372v0.45932h1.0557c-0.4445 0.61489-0.58526 1.1113-0.62971 1.8928z"/>
   <path d="m32.03 46.714c-0.16298 0-0.31856-0.11853-0.36671-0.48895 0.10742-0.17039 0.23707-0.23336 0.3556-0.23336 0.1778 0 0.30745 0.0926 0.30745 0.34078 0 0.2667-0.13335 0.38153-0.29633 0.38153zm0.75936-1.7521c-0.14817-0.15187-0.37412-0.28152-0.68527-0.28152-0.49636 0-0.95197 0.39635-0.95197 1.2742 0 0.82603 0.43339 1.1668 0.889 1.1668 0.42598 0 0.78158-0.30004 0.78158-0.78899 0-0.49636-0.29633-0.72602-0.70009-0.72602-0.14446 0-0.34819 0.0926-0.47043 0.24818 0.01852-0.54822 0.22595-0.73342 0.48525-0.73342 0.13706 0 0.28522 0.07779 0.36671 0.16669z"/>
   <path d="m33.235 47.077h0.89641c0.52599 0 0.94086-0.21855 0.94086-0.7112 0-0.32226-0.1815-0.50377-0.52599-0.56674v-0.01482c0.28152-0.07408 0.40746-0.30745 0.40746-0.52229 0-0.46302-0.38894-0.60008-0.8927-0.60008h-0.82603zm0.54822-1.4409v-0.55192h0.25929c0.25188 0 0.37782 0.07408 0.37782 0.25559 0 0.1815-0.11853 0.29633-0.38523 0.29633zm0 1.0186v-0.63341h0.30374c0.30004 0 0.45191 0.0926 0.45191 0.30374 0 0.21855-0.15558 0.32967-0.45191 0.32967z"/>
   <path d="m35.43 47.077h0.54451v-1.2409c0.11853-0.11483 0.20373-0.1778 0.34078-0.1778 0.15558 0 0.22596 0.08149 0.22596 0.34819v1.0705h0.54451v-1.1409c0-0.45932-0.17039-0.74083-0.57044-0.74083-0.24818 0-0.43339 0.12965-0.58896 0.27781h-0.01482l-0.03704-0.23336h-0.4445z"/>
  </g>
  <g aria-label="$84Bn">
   <path d="m50.497 40.762c-0.14446-0.15187-0.31486-0.2704-0.55192-0.30374v-0.37412h-0.3593v0.38153c-0.34819 0.07038-0.56303 0.32226-0.56303 0.68527 0 0.66675 0.9779 0.65934 0.9779 1.0409 0 0.17039-0.0926 0.25559-0.30004 0.25559-0.1778 0-0.34078-0.07408-0.5297-0.21484l-0.23707 0.36671c0.1741 0.15928 0.43339 0.25559 0.65193 0.28152v0.37042h0.3593v-0.38523c0.38153-0.08149 0.57785-0.3556 0.57785-0.7112 0-0.7075-0.9779-0.67786-0.9779-1.0298 0-0.16669 0.09631-0.23707 0.27411-0.23707 0.15558 0 0.2704 0.06297 0.40375 0.18521z"/>
   <path d="m51.365 42.181c0-0.14446 0.07779-0.27781 0.1815-0.37412 0.29633 0.12594 0.49636 0.20373 0.49636 0.41116 0 0.19632-0.13335 0.29263-0.31485 0.29263-0.19632 0-0.36301-0.12224-0.36301-0.32967zm0.50006-0.7075c-0.24077-0.0926-0.40376-0.18521-0.40376-0.37782 0-0.1815 0.11853-0.2704 0.263-0.2704 0.1778 0 0.28522 0.12224 0.28522 0.30374 0 0.12224-0.05186 0.23707-0.14446 0.34449zm-0.96679 0.77047c0 0.38153 0.34819 0.64453 0.81862 0.64453 0.50006 0 0.83344-0.28152 0.83344-0.65193 0-0.31115-0.1815-0.49266-0.40746-0.61489v-0.01482c0.16298-0.10742 0.30745-0.28892 0.30745-0.51488 0-0.38894-0.28522-0.64452-0.7149-0.64452-0.43709 0-0.75195 0.24818-0.75195 0.64823 0 0.24818 0.13335 0.41857 0.31486 0.55562v0.01482c-0.22225 0.11853-0.40005 0.29263-0.40005 0.57785z"/>
   <path d="m53.289 41.866 0.31115-0.51118c0.06668-0.13335 0.13335-0.2667 0.19262-0.39635h0.01482c-0.0074 0.14817-0.02222 0.37412-0.02222 0.52599v0.38153zm1.2742 0h-0.2704v-1.3742h-0.66675l-0.85937 1.415v0.37412h1.0186v0.56303h0.50747v-0.56303h0.2704z"/>
   <path d="m54.931 42.844h0.89641c0.52599 0 0.94086-0.21855 0.94086-0.7112 0-0.32226-0.1815-0.50377-0.52599-0.56674v-0.01482c0.28152-0.07408 0.40746-0.30745 0.40746-0.52229 0-0.46302-0.38894-0.60008-0.8927-0.60008h-0.82603zm0.54822-1.4409v-0.55192h0.25929c0.25188 0 0.37782 0.07408 0.37782 0.25559 0 0.1815-0.11853 0.29633-0.38523 0.29633zm0 1.0186v-0.63341h0.30374c0.30004 0 0.45191 0.0926 0.45191 0.30374 0 0.21855-0.15558 0.32967-0.45191 0.32967z"/>
   <path d="m57.126 42.844h0.54451v-1.2409c0.11853-0.11483 0.20373-0.1778 0.34078-0.1778 0.15558 0 0.22596 0.08149 0.22596 0.34819v1.0705h0.54451v-1.1409c0-0.45932-0.17039-0.74083-0.57044-0.74083-0.24818 0-0.43339 0.12964-0.58896 0.27781h-0.01482l-0.03704-0.23336h-0.4445z"/>
  </g>
  <g aria-label="$98Bn">
   <path d="m71.664 36c-0.14446-0.15187-0.31486-0.2704-0.55192-0.30374v-0.37412h-0.3593v0.38153c-0.34819 0.07038-0.56303 0.32226-0.56303 0.68527 0 0.66675 0.9779 0.65934 0.9779 1.0409 0 0.17039-0.0926 0.25559-0.30004 0.25559-0.1778 0-0.34078-0.07408-0.5297-0.21484l-0.23707 0.36671c0.1741 0.15928 0.43339 0.25559 0.65193 0.28152v0.37042h0.3593v-0.38523c0.38153-0.08149 0.57785-0.3556 0.57785-0.7112 0-0.7075-0.9779-0.67786-0.9779-1.0298 0-0.16669 0.09631-0.23707 0.27411-0.23707 0.15558 0 0.2704 0.06297 0.40375 0.18521z"/>
   <path d="m72.843 36.815c-0.1778 0-0.31115-0.0926-0.31115-0.34078 0-0.2667 0.13705-0.38153 0.29633-0.38153 0.16669 0 0.31856 0.11853 0.36671 0.48895-0.10372 0.17039-0.23336 0.23336-0.3519 0.23336zm-0.77417 1.0298c0.14817 0.14817 0.37782 0.28152 0.68898 0.28152 0.49266 0 0.95197-0.39635 0.95197-1.2742 0-0.82603-0.43709-1.1668-0.8927-1.1668-0.42598 0-0.78158 0.30004-0.78158 0.78899 0 0.49636 0.30004 0.72602 0.70009 0.72602 0.14446 0 0.34819-0.0926 0.47043-0.24818-0.01852 0.54822-0.22225 0.73343-0.48525 0.73343-0.13706 0-0.28522-0.07779-0.36301-0.16669z"/>
   <path d="m74.485 37.418c0-0.14446 0.07779-0.27781 0.1815-0.37412 0.29633 0.12594 0.49636 0.20373 0.49636 0.41116 0 0.19632-0.13335 0.29263-0.31485 0.29263-0.19632 0-0.36301-0.12224-0.36301-0.32967zm0.50006-0.7075c-0.24077-0.0926-0.40376-0.18521-0.40376-0.37782 0-0.1815 0.11853-0.2704 0.263-0.2704 0.1778 0 0.28522 0.12224 0.28522 0.30374 0 0.12224-0.05186 0.23707-0.14446 0.34449zm-0.96679 0.77047c0 0.38153 0.34819 0.64452 0.81862 0.64452 0.50006 0 0.83344-0.28152 0.83344-0.65193 0-0.31115-0.1815-0.49265-0.40746-0.61489v-0.01482c0.16298-0.10742 0.30745-0.28893 0.30745-0.51488 0-0.38894-0.28522-0.64453-0.7149-0.64453-0.43709 0-0.75195 0.24818-0.75195 0.64823 0 0.24818 0.13335 0.41857 0.31486 0.55563v0.01482c-0.22225 0.11853-0.40005 0.29263-0.40005 0.57785z"/>
   <path d="m76.098 38.081h0.89641c0.52599 0 0.94086-0.21855 0.94086-0.7112 0-0.32226-0.1815-0.50377-0.52599-0.56674v-0.01482c0.28152-0.07408 0.40746-0.30745 0.40746-0.52229 0-0.46302-0.38894-0.60008-0.8927-0.60008h-0.82603zm0.54822-1.4409v-0.55192h0.25929c0.25188 0 0.37783 0.07408 0.37783 0.25559 0 0.1815-0.11853 0.29633-0.38523 0.29633zm0 1.0186v-0.63341h0.30374c0.30004 0 0.45191 0.0926 0.45191 0.30374 0 0.21855-0.15558 0.32967-0.45191 0.32967z"/>
   <path d="m78.292 38.081h0.54451v-1.2409c0.11853-0.11483 0.20373-0.1778 0.34078-0.1778 0.15558 0 0.22595 0.08149 0.22595 0.34819v1.0705h0.54451v-1.1409c0-0.45932-0.17039-0.74083-0.57044-0.74083-0.24818 0-0.43339 0.12965-0.58896 0.27781h-0.01482l-0.03704-0.23336h-0.4445z"/>
  </g>
  <g aria-label="$106Bn">
   <path d="m91.772 29.121c-0.14446-0.15187-0.31485-0.2704-0.55192-0.30374v-0.37412h-0.3593v0.38153c-0.34819 0.07038-0.56303 0.32226-0.56303 0.68527 0 0.66675 0.9779 0.65934 0.9779 1.0409 0 0.17039-0.0926 0.25559-0.30004 0.25559-0.1778 0-0.34078-0.07408-0.5297-0.21484l-0.23707 0.36671c0.1741 0.15928 0.43339 0.25559 0.65193 0.28152v0.37042h0.3593v-0.38523c0.38153-0.08149 0.57785-0.3556 0.57785-0.7112 0-0.7075-0.9779-0.67786-0.9779-1.0298 0-0.16669 0.09631-0.23707 0.27411-0.23707 0.15558 0 0.2704 0.06297 0.40376 0.18521z"/>
   <path d="m92.277 31.202h1.4965v-0.4408h-0.4408v-1.9114h-0.40005c-0.16669 0.10001-0.32967 0.16669-0.58526 0.21484v0.33708h0.4408v1.3594h-0.51118z"/>
   <path d="m94.949 31.247c0.50377 0 0.84085-0.42968 0.84085-1.2298s-0.33708-1.2113-0.84085-1.2113-0.84085 0.41116-0.84085 1.2113 0.33708 1.2298 0.84085 1.2298zm0-0.42228c-0.1815 0-0.32597-0.16669-0.32597-0.80751 0-0.64453 0.14446-0.78899 0.32597-0.78899 0.18521 0 0.32597 0.14446 0.32597 0.78899 0 0.64082-0.14076 0.80751-0.32597 0.80751z"/>
   <path d="m96.954 30.839c-0.16298 0-0.31856-0.11853-0.36671-0.48895 0.10742-0.17039 0.23707-0.23336 0.3556-0.23336 0.1778 0 0.30745 0.0926 0.30745 0.34078 0 0.2667-0.13335 0.38153-0.29633 0.38153zm0.75936-1.7521c-0.14817-0.15187-0.37412-0.28152-0.68527-0.28152-0.49636 0-0.95197 0.39635-0.95197 1.2742 0 0.82603 0.43339 1.1668 0.889 1.1668 0.42598 0 0.78158-0.30004 0.78158-0.78899 0-0.49636-0.29633-0.72602-0.70009-0.72602-0.14446 0-0.34819 0.0926-0.47043 0.24818 0.01852-0.54822 0.22595-0.73342 0.48525-0.73342 0.13705 0 0.28522 0.07779 0.36671 0.16669z"/>
   <path d="m98.159 31.202h0.89641c0.52599 0 0.94086-0.21855 0.94086-0.7112 0-0.32226-0.1815-0.50377-0.52599-0.56674v-0.01482c0.28152-0.07408 0.40746-0.30745 0.40746-0.52229 0-0.46302-0.38894-0.60008-0.8927-0.60008h-0.82603zm0.54822-1.4409v-0.55192h0.25929c0.25188 0 0.37782 0.07408 0.37782 0.25559 0 0.1815-0.11853 0.29633-0.38523 0.29633zm0 1.0186v-0.63341h0.30374c0.30004 0 0.45191 0.0926 0.45191 0.30374 0 0.21855-0.15558 0.32967-0.45191 0.32967z"/>
   <path d="m100.35 31.202h0.54452v-1.2409c0.11853-0.11483 0.20373-0.1778 0.34078-0.1778 0.15558 0 0.22596 0.08149 0.22596 0.34819v1.0705h0.54451v-1.1409c0-0.45932-0.17039-0.74083-0.57044-0.74083-0.24818 0-0.43339 0.12965-0.58897 0.27781h-0.0148l-0.0371-0.23336h-0.4445z"/>
  </g>
  <g aria-label="$121Bn">
   <path d="m112.94 21.183c-0.14446-0.15187-0.31485-0.2704-0.55192-0.30374v-0.37412h-0.3593v0.38153c-0.3482 0.07038-0.56304 0.32226-0.56304 0.68527 0 0.66675 0.9779 0.65934 0.9779 1.0409 0 0.17039-0.0926 0.25559-0.30004 0.25559-0.1778 0-0.34078-0.07408-0.52969-0.21484l-0.23707 0.36671c0.1741 0.15928 0.43339 0.25559 0.65194 0.28152v0.37042h0.3593v-0.38523c0.38153-0.08149 0.57785-0.3556 0.57785-0.7112 0-0.7075-0.9779-0.67786-0.9779-1.0298 0-0.16669 0.0963-0.23707 0.27411-0.23707 0.15557 0 0.2704 0.06297 0.40375 0.18521z"/>
   <path d="m113.44 23.265h1.4965v-0.4408h-0.4408v-1.9114h-0.40005c-0.16669 0.10001-0.32967 0.16669-0.58526 0.21484v0.33708h0.4408v1.3594h-0.51118z"/>
   <path d="m115.27 23.265h1.6558v-0.45932h-0.47413c-0.11113 0-0.27411 0.01482-0.39265 0.02963 0.38153-0.40005 0.75195-0.82233 0.75195-1.2187 0-0.45191-0.31485-0.74824-0.77788-0.74824-0.33708 0-0.55562 0.12594-0.78898 0.37412l0.29633 0.29263c0.11853-0.12594 0.24818-0.24077 0.41857-0.24077 0.20373 0 0.33338 0.12594 0.33338 0.3556 0 0.33338-0.42228 0.73713-1.0224 1.3039z"/>
   <path d="m117.35 23.265h1.4965v-0.4408h-0.4408v-1.9114h-0.40005c-0.16669 0.10001-0.32967 0.16669-0.58526 0.21484v0.33708h0.4408v1.3594h-0.51118z"/>
   <path d="m119.33 23.265h0.89641c0.52599 0 0.94086-0.21855 0.94086-0.7112 0-0.32226-0.18151-0.50377-0.52599-0.56674v-0.01482c0.28151-0.07408 0.40745-0.30745 0.40745-0.52229 0-0.46302-0.38893-0.60008-0.8927-0.60008h-0.82603zm0.54822-1.4409v-0.55192h0.25929c0.25188 0 0.37782 0.07408 0.37782 0.25559 0 0.1815-0.11853 0.29633-0.38523 0.29633zm0 1.0186v-0.63341h0.30374c0.30004 0 0.45191 0.0926 0.45191 0.30374 0 0.21855-0.15558 0.32967-0.45191 0.32967z"/>
   <path d="m121.52 23.265h0.54451v-1.2409c0.11853-0.11483 0.20373-0.1778 0.34079-0.1778 0.15557 0 0.22595 0.08149 0.22595 0.34819v1.0705h0.54451v-1.1409c0-0.45932-0.17039-0.74083-0.57044-0.74083-0.24818 0-0.43339 0.12965-0.58896 0.27781h-0.0148l-0.037-0.23336h-0.4445z"/>
  </g>
  <g aria-label="$138Bn">
   <path d="m134.37 12.716c-0.14447-0.15187-0.31486-0.2704-0.55193-0.30374v-0.37412h-0.3593v0.38153c-0.34819 0.07038-0.56303 0.32226-0.56303 0.68527 0 0.66675 0.9779 0.65934 0.9779 1.0409 0 0.17039-0.0926 0.25559-0.30004 0.25559-0.1778 0-0.34078-0.07408-0.5297-0.21484l-0.23706 0.36671c0.17409 0.15928 0.43338 0.25559 0.65193 0.28152v0.37042h0.3593v-0.38523c0.38153-0.08149 0.57785-0.3556 0.57785-0.7112 0-0.7075-0.9779-0.67786-0.9779-1.0298 0-0.16669 0.0963-0.23707 0.27411-0.23707 0.15558 0 0.27041 0.06297 0.40376 0.18521z"/>
   <path d="m134.87 14.798h1.4965v-0.4408h-0.4408v-1.9114h-0.40005c-0.16668 0.10001-0.32967 0.16669-0.58525 0.21484v0.33708h0.44079v1.3594h-0.51117z"/>
   <path d="m136.65 14.509c0.17039 0.20002 0.43709 0.33338 0.81862 0.33338 0.47413 0 0.87418-0.24818 0.87418-0.68527 0-0.30374-0.19632-0.49636-0.46672-0.57415v-0.01482c0.25188-0.10742 0.39264-0.27781 0.39264-0.52229 0-0.41116-0.32597-0.64453-0.81121-0.64453-0.28893 0-0.526 0.11483-0.74084 0.30004l0.27411 0.33338c0.14817-0.12965 0.27411-0.20743 0.4408-0.20743 0.1852 0 0.28892 0.09631 0.28892 0.25929 0 0.18891-0.13335 0.31485-0.55562 0.31485v0.38523c0.51117 0 0.63341 0.12965 0.63341 0.33708 0 0.1778-0.15187 0.27781-0.38153 0.27781-0.20003 0-0.37412-0.10001-0.51488-0.23707z"/>
   <path d="m139.14 14.135c0-0.14446 0.0778-0.27781 0.1815-0.37412 0.29633 0.12594 0.49636 0.20373 0.49636 0.41116 0 0.19632-0.13335 0.29263-0.31486 0.29263-0.19632 0-0.363-0.12224-0.363-0.32967zm0.50006-0.7075c-0.24077-0.0926-0.40376-0.18521-0.40376-0.37782 0-0.1815 0.11854-0.2704 0.263-0.2704 0.1778 0 0.28522 0.12224 0.28522 0.30374 0 0.12224-0.0519 0.23707-0.14446 0.34449zm-0.96679 0.77047c0 0.38153 0.34819 0.64452 0.81862 0.64452 0.50007 0 0.83344-0.28152 0.83344-0.65193 0-0.31115-0.1815-0.49265-0.40746-0.61489v-0.01482c0.16299-0.10742 0.30745-0.28892 0.30745-0.51488 0-0.38894-0.28522-0.64453-0.71491-0.64453-0.43709 0-0.75194 0.24818-0.75194 0.64823 0 0.24818 0.13335 0.41857 0.31485 0.55562v0.01482c-0.22225 0.11853-0.40005 0.29263-0.40005 0.57785z"/>
   <path d="m140.76 14.798h0.89641c0.52599 0 0.94086-0.21855 0.94086-0.7112 0-0.32226-0.1815-0.50377-0.52599-0.56674v-0.01482c0.28152-0.07408 0.40746-0.30745 0.40746-0.52229 0-0.46302-0.38894-0.60008-0.89271-0.60008h-0.82603zm0.54822-1.4409v-0.55192h0.25929c0.25189 0 0.37783 0.07408 0.37783 0.25559 0 0.1815-0.11854 0.29633-0.38524 0.29633zm0 1.0186v-0.63341h0.30374c0.30004 0 0.45191 0.0926 0.45191 0.30374 0 0.21855-0.15557 0.32967-0.45191 0.32967z"/>
   <path d="m142.95 14.798h0.54452v-1.2409c0.11853-0.11483 0.20372-0.1778 0.34078-0.1778 0.15557 0 0.22595 0.08149 0.22595 0.34819v1.0705h0.54452v-1.1409c0-0.45932-0.1704-0.74083-0.57045-0.74083-0.24818 0-0.43338 0.12965-0.58896 0.27781h-0.0148l-0.037-0.23336h-0.4445z"/>
  </g>
  <g aria-label="$146Bn">
   <path d="m155.54 7.9539c-0.14447-0.15187-0.31486-0.2704-0.55192-0.30374v-0.37412h-0.35931v0.38153c-0.34819 0.070379-0.56303 0.32226-0.56303 0.68527 0 0.66675 0.9779 0.65934 0.9779 1.0409 0 0.17039-0.0926 0.25559-0.30004 0.25559-0.1778 0-0.34078-0.074083-0.5297-0.21484l-0.23706 0.36671c0.17409 0.15928 0.43339 0.25559 0.65193 0.28152v0.37042h0.35931v-0.38523c0.38153-0.081491 0.57785-0.3556 0.57785-0.7112 0-0.7075-0.9779-0.67786-0.9779-1.0298 0-0.16669 0.0963-0.23707 0.2741-0.23707 0.15558 0 0.27041 0.062971 0.40376 0.18521z"/>
   <path d="m156.04 10.036h1.4965v-0.4408h-0.44079v-1.9114h-0.40005c-0.16669 0.10001-0.32968 0.16669-0.58526 0.21484v0.33708h0.44079v1.3594h-0.51117z"/>
   <path d="m158.33 9.0577 0.31115-0.51118c0.0667-0.13335 0.13335-0.2667 0.19262-0.39635h0.0148c-7e-3 0.14817-0.0222 0.37412-0.0222 0.52599v0.38153zm1.2742 0h-0.27041v-1.3742h-0.66675l-0.85936 1.415v0.37412h1.0186v0.56303h0.50747v-0.56303h0.27041z"/>
   <path d="m160.72 9.6726c-0.16299 0-0.31856-0.11853-0.36672-0.48895 0.10742-0.17039 0.23707-0.23336 0.3556-0.23336 0.1778 0 0.30745 0.092604 0.30745 0.34078 0 0.2667-0.13335 0.38153-0.29633 0.38153zm0.75935-1.7521c-0.14817-0.15187-0.37412-0.28152-0.68527-0.28152-0.49636 0-0.95197 0.39635-0.95197 1.2742 0 0.82603 0.43339 1.1668 0.889 1.1668 0.42598 0 0.78158-0.30004 0.78158-0.78899 0-0.49636-0.29633-0.72602-0.70009-0.72602-0.14446 0-0.34819 0.092604-0.47043 0.24818 0.0185-0.54822 0.22596-0.73343 0.48525-0.73343 0.13705 0 0.28522 0.077788 0.36671 0.16669z"/>
   <path d="m161.92 10.036h0.8964c0.526 0 0.94086-0.21855 0.94086-0.7112 0-0.32226-0.1815-0.50377-0.52599-0.56674v-0.014817c0.28152-0.074083 0.40746-0.30745 0.40746-0.52229 0-0.46302-0.38894-0.60008-0.8927-0.60008h-0.82603zm0.54821-1.4409v-0.55192h0.25929c0.25189 0 0.37783 0.074083 0.37783 0.25559 0 0.1815-0.11853 0.29633-0.38523 0.29633zm0 1.0186v-0.63341h0.30374c0.30004 0 0.45191 0.092604 0.45191 0.30374 0 0.21855-0.15557 0.32967-0.45191 0.32967z"/>
   <path d="m164.12 10.036h0.54452v-1.2409c0.11853-0.11483 0.20373-0.1778 0.34078-0.1778 0.15558 0 0.22596 0.081492 0.22596 0.34819v1.0705h0.54451v-1.1409c0-0.45932-0.17039-0.74083-0.57044-0.74083-0.24818 0-0.43339 0.12965-0.58897 0.27781h-0.0148l-0.0371-0.23336h-0.4445z"/>
  </g>
 </g>
 <g>
  <rect x="171.76" y="4.089" width="18.256" height="83.873" fill="#1d232d" stroke="#fbb227" stroke-linecap="round" stroke-width=".26458"/>
  <rect x="172.95" y="5.5494" width="15.875" height="19.267" fill="#fffdc8"/>
  <g fill="#e8eaec" stroke-linecap="round" stroke-width=".26458" aria-label="2020">
   <path d="m176.72 92.85h1.6558v-0.45932h-0.47414c-0.11112 0-0.2741 0.01482-0.39264 0.02963 0.38153-0.40005 0.75195-0.82233 0.75195-1.2187 0-0.45191-0.31486-0.74824-0.77788-0.74824-0.33708 0-0.55562 0.12594-0.78898 0.37412l0.29633 0.29263c0.11853-0.12594 0.24818-0.24077 0.41857-0.24077 0.20373 0 0.33338 0.12594 0.33338 0.3556 0 0.33338-0.42228 0.73713-1.0224 1.3039z"/>
   <path d="m179.51 92.895c0.50377 0 0.84085-0.42968 0.84085-1.2298s-0.33708-1.2113-0.84085-1.2113c-0.50376 0-0.84084 0.41116-0.84084 1.2113s0.33708 1.2298 0.84084 1.2298zm0-0.42228c-0.1815 0-0.32596-0.16669-0.32596-0.80751 0-0.64453 0.14446-0.78899 0.32596-0.78899 0.18521 0 0.32597 0.14446 0.32597 0.78899 0 0.64082-0.14076 0.80751-0.32597 0.80751z"/>
   <path d="m180.63 92.85h1.6558v-0.45932h-0.47413c-0.11113 0-0.27411 0.01482-0.39265 0.02963 0.38153-0.40005 0.75195-0.82233 0.75195-1.2187 0-0.45191-0.31485-0.74824-0.77787-0.74824-0.33708 0-0.55563 0.12594-0.78899 0.37412l0.29633 0.29263c0.11853-0.12594 0.24818-0.24077 0.41857-0.24077 0.20373 0 0.33338 0.12594 0.33338 0.3556 0 0.33338-0.42228 0.73713-1.0224 1.3039z"/>
   <path d="m183.42 92.895c0.50377 0 0.84085-0.42968 0.84085-1.2298s-0.33708-1.2113-0.84085-1.2113c-0.50376 0-0.84084 0.41116-0.84084 1.2113s0.33708 1.2298 0.84084 1.2298zm0-0.42228c-0.1815 0-0.32596-0.16669-0.32596-0.80751 0-0.64453 0.14446-0.78899 0.32596-0.78899 0.18521 0 0.32597 0.14446 0.32597 0.78899 0 0.64082-0.14076 0.80751-0.32597 0.80751z"/>
  </g>
  <rect x="172.95" y="56.085" width="15.875" height="30.692" fill="#a96f00"/>
  <rect x="172.95" y="48.629" width="15.875" height="7.456" fill="#fbb227"/>
  <rect x="172.95" y="24.816" width="15.875" height="23.86" fill="#ffd179"/>
 </g>
 <g fill="#1d232d" stroke-linecap="round" stroke-width=".26458">
  <g aria-label="9%">
   <path d="m179.48 52.306c-0.1524 0-0.2667-0.07937-0.2667-0.2921 0-0.2286 0.11748-0.32702 0.254-0.32702 0.14288 0 0.27305 0.1016 0.31433 0.4191-0.0889 0.14605-0.20003 0.20002-0.30163 0.20002zm-0.66357 0.88265c0.127 0.127 0.32385 0.2413 0.59055 0.2413 0.42227 0 0.81597-0.33972 0.81597-1.0922 0-0.70802-0.37465-1.0001-0.76517-1.0001-0.36513 0-0.66993 0.25718-0.66993 0.67628 0 0.42545 0.25718 0.6223 0.60008 0.6223 0.12382 0 0.29845-0.07937 0.40322-0.21272-0.0159 0.4699-0.1905 0.62865-0.41592 0.62865-0.11748 0-0.24448-0.06667-0.31115-0.14288z"/>
   <path d="m180.95 52.598c0.29845 0 0.51753-0.24448 0.51753-0.6604 0-0.41275-0.21908-0.65405-0.51753-0.65405s-0.51435 0.2413-0.51435 0.65405c0 0.41592 0.2159 0.6604 0.51435 0.6604zm0-0.26035c-0.10477 0-0.1905-0.10478-0.1905-0.40005 0-0.2921 0.0857-0.3937 0.1905-0.3937 0.10478 0 0.1905 0.1016 0.1905 0.3937 0 0.29528-0.0857 0.40005-0.1905 0.40005zm0.3429 1.0922 1.1144-2.1463h-0.2667l-1.1176 2.1463zm1.1843 0c0.29845 0 0.51752-0.24448 0.51752-0.6604 0-0.41275-0.21907-0.65405-0.51752-0.65405s-0.51753 0.2413-0.51753 0.65405c0 0.41592 0.21908 0.6604 0.51753 0.6604zm0-0.26035c-0.10478 0-0.1905-0.10478-0.1905-0.40005s0.0857-0.3937 0.1905-0.3937c0.10477 0 0.1905 0.09842 0.1905 0.3937 0 0.29528-0.0857 0.40005-0.1905 0.40005z"/>
  </g>
  <g aria-label="29%">
   <path d="m177.96 37.781h1.4192v-0.3937h-0.4064c-0.0952 0-0.23495 0.0127-0.33655 0.0254 0.32703-0.3429 0.64453-0.70485 0.64453-1.0446 0-0.38735-0.26988-0.64135-0.66675-0.64135-0.28893 0-0.47625 0.10795-0.67628 0.32068l0.254 0.25082c0.1016-0.10795 0.21273-0.20638 0.35878-0.20638 0.17462 0 0.28575 0.10795 0.28575 0.3048 0 0.28575-0.36195 0.63182-0.8763 1.1176z"/>
   <path d="m180.32 36.696c-0.1524 0-0.2667-0.07937-0.2667-0.2921 0-0.2286 0.11748-0.32702 0.254-0.32702 0.14288 0 0.27305 0.1016 0.31433 0.4191-0.0889 0.14605-0.20003 0.20002-0.30163 0.20002zm-0.66357 0.88265c0.127 0.127 0.32385 0.2413 0.59055 0.2413 0.42227 0 0.81597-0.33972 0.81597-1.0922 0-0.70802-0.37465-1.0001-0.76517-1.0001-0.36513 0-0.66993 0.25718-0.66993 0.67628 0 0.42545 0.25718 0.6223 0.60008 0.6223 0.12382 0 0.29845-0.07937 0.40322-0.21272-0.0159 0.4699-0.1905 0.62865-0.41592 0.62865-0.11748 0-0.24448-0.06667-0.31115-0.14288z"/>
   <path d="m181.79 36.988c0.29845 0 0.51752-0.24448 0.51752-0.6604 0-0.41275-0.21907-0.65405-0.51752-0.65405s-0.51435 0.2413-0.51435 0.65405c0 0.41592 0.2159 0.6604 0.51435 0.6604zm0-0.26035c-0.10478 0-0.1905-0.10478-0.1905-0.40005 0-0.2921 0.0857-0.3937 0.1905-0.3937 0.10477 0 0.1905 0.1016 0.1905 0.3937 0 0.29528-0.0857 0.40005-0.1905 0.40005zm0.3429 1.0922 1.1144-2.1463h-0.2667l-1.1176 2.1463zm1.1843 0c0.29845 0 0.51753-0.24448 0.51753-0.6604 0-0.41275-0.21908-0.65405-0.51753-0.65405s-0.51752 0.2413-0.51752 0.65405c0 0.41592 0.21907 0.6604 0.51752 0.6604zm0-0.26035c-0.10477 0-0.1905-0.10478-0.1905-0.40005s0.0857-0.3937 0.1905-0.3937c0.10478 0 0.1905 0.09842 0.1905 0.3937 0 0.29528-0.0857 0.40005-0.1905 0.40005z"/>
  </g>
  <g aria-label="22%">
   <path d="m178.02 16.218h1.4192v-0.3937h-0.4064c-0.0953 0-0.23495 0.0127-0.33655 0.0254 0.32703-0.3429 0.64453-0.70485 0.64453-1.0446 0-0.38735-0.26988-0.64135-0.66675-0.64135-0.28893 0-0.47625 0.10795-0.67628 0.32068l0.254 0.25082c0.1016-0.10795 0.21273-0.20638 0.35878-0.20638 0.17462 0 0.28575 0.10795 0.28575 0.3048 0 0.28575-0.36195 0.63182-0.8763 1.1176z"/>
   <path d="m179.7 16.218h1.4192v-0.3937h-0.4064c-0.0952 0-0.23495 0.0127-0.33655 0.0254 0.32702-0.3429 0.64452-0.70485 0.64452-1.0446 0-0.38735-0.26987-0.64135-0.66675-0.64135-0.28892 0-0.47625 0.10795-0.67627 0.32068l0.254 0.25082c0.1016-0.10795 0.21272-0.20638 0.35877-0.20638 0.17463 0 0.28575 0.10795 0.28575 0.3048 0 0.28575-0.36195 0.63182-0.8763 1.1176z"/>
   <path d="m181.85 15.424c0.29845 0 0.51753-0.24448 0.51753-0.6604 0-0.41275-0.21908-0.65405-0.51753-0.65405s-0.51435 0.2413-0.51435 0.65405c0 0.41592 0.2159 0.6604 0.51435 0.6604zm0-0.26035c-0.10477 0-0.1905-0.10478-0.1905-0.40005 0-0.2921 0.0857-0.3937 0.1905-0.3937 0.10478 0 0.1905 0.1016 0.1905 0.3937 0 0.29528-0.0857 0.40005-0.1905 0.40005zm0.3429 1.0922 1.1144-2.1463h-0.2667l-1.1176 2.1463zm1.1843 0c0.29845 0 0.51752-0.24448 0.51752-0.6604 0-0.41275-0.21907-0.65405-0.51752-0.65405s-0.51753 0.2413-0.51753 0.65405c0 0.41592 0.21908 0.6604 0.51753 0.6604zm0-0.26035c-0.10478 0-0.1905-0.10478-0.1905-0.40005s0.0857-0.3937 0.1905-0.3937c0.10477 0 0.1905 0.09843 0.1905 0.3937 0 0.29528-0.0857 0.40005-0.1905 0.40005z"/>
  </g>
  <g aria-label="40%">
   <path d="m178.37 71.627 0.2667-0.43815c0.0572-0.1143 0.1143-0.2286 0.1651-0.33972h0.0127c-6e-3 0.127-0.019 0.32068-0.019 0.45085v0.32702zm1.0922 0h-0.23178v-1.1779h-0.5715l-0.7366 1.2128v0.32068h0.87313v0.4826h0.43497v-0.4826h0.23178z"/>
   <path d="m180.38 72.504c0.4318 0 0.72073-0.3683 0.72073-1.0541s-0.28893-1.0382-0.72073-1.0382-0.72072 0.35242-0.72072 1.0382 0.28892 1.0541 0.72072 1.0541zm0-0.36195c-0.15557 0-0.2794-0.14288-0.2794-0.69215 0-0.55245 0.12383-0.67628 0.2794-0.67628 0.15875 0 0.2794 0.12382 0.2794 0.67628 0 0.54928-0.12065 0.69215-0.2794 0.69215z"/>
   <path d="m181.81 71.672c0.29845 0 0.51752-0.24448 0.51752-0.6604 0-0.41275-0.21907-0.65405-0.51752-0.65405s-0.51435 0.2413-0.51435 0.65405c0 0.41592 0.2159 0.6604 0.51435 0.6604zm0-0.26035c-0.10478 0-0.1905-0.10478-0.1905-0.40005 0-0.2921 0.0857-0.3937 0.1905-0.3937 0.10477 0 0.1905 0.1016 0.1905 0.3937 0 0.29528-0.0857 0.40005-0.1905 0.40005zm0.3429 1.0922 1.1144-2.1463h-0.2667l-1.1176 2.1463zm1.1843 0c0.29845 0 0.51753-0.24448 0.51753-0.6604 0-0.41275-0.21908-0.65405-0.51753-0.65405s-0.51752 0.2413-0.51752 0.65405c0 0.41592 0.21907 0.6604 0.51752 0.6604zm0-0.26035c-0.10477 0-0.1905-0.10478-0.1905-0.40005s0.0857-0.3937 0.1905-0.3937c0.10478 0 0.1905 0.09843 0.1905 0.3937 0 0.29528-0.0857 0.40005-0.1905 0.40005z"/>
  </g>
 </g>
 <g fill="#e8eaec" stroke-linecap="round" stroke-width=".26458" aria-label="$159Bn">
  <path d="m176.7 0.81015c-0.14446-0.15187-0.31486-0.2704-0.55192-0.30374v-0.37412h-0.35931v0.38153c-0.34819 0.070379-0.56303 0.32226-0.56303 0.68527 0 0.66675 0.9779 0.65934 0.9779 1.0409 0 0.17039-0.0926 0.25559-0.30004 0.25559-0.1778 0-0.34078-0.074083-0.52969-0.21484l-0.23707 0.36671c0.1741 0.15928 0.43339 0.25559 0.65193 0.28152v0.37042h0.35931v-0.38523c0.38153-0.081492 0.57785-0.3556 0.57785-0.7112 0-0.7075-0.9779-0.67786-0.9779-1.0298 0-0.16669 0.0963-0.23707 0.27411-0.23707 0.15557 0 0.2704 0.062971 0.40375 0.18521z"/>
  <path d="m177.21 2.8919h1.4965v-0.4408h-0.44079v-1.9114h-0.40005c-0.16669 0.10001-0.32967 0.16669-0.58526 0.21484v0.33708h0.44079v1.3594h-0.51117z"/>
  <path d="m178.99 2.6067c0.18521 0.18521 0.4445 0.32967 0.82974 0.32967 0.45932 0 0.86307-0.30004 0.86307-0.82233 0-0.50006-0.34449-0.72972-0.74824-0.72972-0.0963 0-0.1741 0.014817-0.263 0.055562l0.0408-0.4408h0.86307v-0.45932h-1.3335l-0.0667 1.189 0.24448 0.15558c0.14076-0.0889 0.21114-0.11853 0.34819-0.11853 0.21855 0 0.37042 0.12594 0.37042 0.36301 0 0.24077-0.15558 0.36671-0.39635 0.36671-0.20002 0-0.36671-0.10372-0.50747-0.23336z"/>
  <path d="m181.79 1.6251c-0.1778 0-0.31115-0.092604-0.31115-0.34078 0-0.2667 0.13705-0.38153 0.29633-0.38153 0.16669 0 0.31856 0.11853 0.36672 0.48895-0.10372 0.17039-0.23337 0.23336-0.3519 0.23336zm-0.77417 1.0298c0.14817 0.14817 0.37782 0.28152 0.68897 0.28152 0.49266 0 0.95198-0.39635 0.95198-1.2742 0-0.82603-0.4371-1.1668-0.89271-1.1668-0.42598 0-0.78158 0.30004-0.78158 0.78899 0 0.49636 0.30004 0.72602 0.70009 0.72602 0.14446 0 0.34819-0.092604 0.47043-0.24818-0.0185 0.54822-0.22225 0.73343-0.48525 0.73343-0.13705 0-0.28522-0.077788-0.36301-0.16669z"/>
  <path d="m183.09 2.8919h0.89641c0.52599 0 0.94086-0.21855 0.94086-0.7112 0-0.32226-0.18151-0.50377-0.526-0.56674v-0.014817c0.28152-0.074083 0.40746-0.30745 0.40746-0.52229 0-0.46302-0.38894-0.60008-0.8927-0.60008h-0.82603zm0.54821-1.4409v-0.55192h0.2593c0.25188 0 0.37782 0.074083 0.37782 0.25559 0 0.1815-0.11853 0.29633-0.38523 0.29633zm0 1.0186v-0.63341h0.30375c0.30003 0 0.4519 0.092604 0.4519 0.30374 0 0.21855-0.15557 0.32967-0.4519 0.32967z"/>
  <path d="m185.29 2.8919h0.54451v-1.2409c0.11853-0.11483 0.20373-0.1778 0.34078-0.1778 0.15558 0 0.22596 0.081492 0.22596 0.34819v1.0705h0.54451v-1.1409c0-0.45932-0.17039-0.74083-0.57044-0.74083-0.24818 0-0.43339 0.12965-0.58897 0.27781h-0.0148l-0.037-0.23336h-0.4445z"/>
 </g>
</svg>
