<?xml version="1.0" encoding="UTF-8"?>
<svg width="153.01mm" height="67.54mm" version="1.1" viewBox="0 0 153.01 67.54" xmlns="http://www.w3.org/2000/svg" xmlns:cc="http://creativecommons.org/ns#" xmlns:dc="http://purl.org/dc/elements/1.1/" xmlns:rdf="http://www.w3.org/1999/02/22-rdf-syntax-ns#">
 <metadata>
  <rdf:RDF>
   <cc:Work rdf:about="">
    <dc:format>image/svg+xml</dc:format>
    <dc:type rdf:resource="http://purl.org/dc/dcmitype/StillImage"/>
    <dc:title/>
   </cc:Work>
  </rdf:RDF>
 </metadata>
 <g fill="#2f3744" stroke="#535e70" stroke-dashoffset="1.2" stroke-linecap="round" stroke-miterlimit="40">
  <g stroke-width=".13229">
   <path d="m20.582 1.5089v60.59"/>
   <path d="m25.874 1.5089v60.59"/>
   <path d="m31.165 1.5089v60.59"/>
   <path d="m36.457 1.5089v60.59"/>
   <path d="m41.749 1.5089v60.59"/>
   <path d="m47.04 1.5089v60.59"/>
   <path d="m52.332 1.5089v60.59"/>
   <path d="m57.624 1.5089v60.59"/>
   <path d="m62.915 1.5089v60.59"/>
   <path d="m68.207 1.5089v60.59"/>
   <path d="m73.499 1.5089v60.59"/>
   <path d="m78.79 1.5089v60.59"/>
   <path d="m12.247 54.293h140.49"/>
   <path d="m12.247 49.002h135.2"/>
   <path d="m12.247 43.71h135.2"/>
   <path d="m12.247 38.418h140.49"/>
   <path d="m12.247 33.127h140.49"/>
   <path d="m12.247 27.835h140.49"/>
   <path d="m12.247 22.543h140.49"/>
   <path d="m12.247 17.252h140.49"/>
   <path d="m12.247 11.96h140.49"/>
   <path d="m12.247 6.6683h140.49"/>
  </g>
  <g stroke-width=".066146">
   <path d="m17.936 1.5089v57.944"/>
   <path d="m23.228 1.5089v57.944"/>
   <path d="m28.519 1.5089v57.944"/>
   <path d="m33.811 1.5089v57.944"/>
   <path d="m39.103 1.5089v57.944"/>
   <path d="m44.394 1.5089v57.944"/>
   <path d="m49.686 1.5089v57.944"/>
   <path d="m54.978 1.5089v57.944"/>
   <path d="m60.269 1.5089v57.944"/>
   <path d="m65.561 1.5089v57.944"/>
   <path d="m70.853 1.5089v57.944"/>
   <path d="m76.144 1.5089v57.944"/>
   <path d="m15.158 9.3141h137.58"/>
   <path d="m15.158 14.606h137.58"/>
   <path d="m15.158 19.897h137.58"/>
   <path d="m15.158 25.189h137.58"/>
   <path d="m15.158 30.481h137.58"/>
   <path d="m15.158 35.772h137.58"/>
   <path d="m15.158 41.064h132.29"/>
   <path d="m15.158 46.356h132.29"/>
   <path d="m15.158 51.647h137.58"/>
   <path d="m15.158 56.939h137.58"/>
  </g>
  <g stroke-width=".033073">
   <path d="m19.524 1.5089v57.944"/>
   <path d="m18.465 1.5089v57.944"/>
   <path d="m18.994 1.5089v57.944"/>
   <path d="m20.053 1.5089v57.944"/>
   <path d="m16.878 1.5089v57.944"/>
   <path d="m15.819 1.5089v57.944"/>
   <path d="m16.349 1.5089v57.944"/>
   <path d="m17.407 1.5089v57.944"/>
   <path d="m22.169 1.5089v57.944"/>
   <path d="m21.111 1.5089v57.944"/>
   <path d="m21.64 1.5089v57.944"/>
   <path d="m22.699 1.5089v57.944"/>
   <path d="m24.815 1.5089v57.944"/>
   <path d="m23.757 1.5089v57.944"/>
   <path d="m24.286 1.5089v57.944"/>
   <path d="m25.344 1.5089v57.944"/>
   <path d="m27.461 1.5089v57.944"/>
   <path d="m26.403 1.5089v57.944"/>
   <path d="m26.932 1.5089v57.944"/>
   <path d="m27.99 1.5089v57.944"/>
   <path d="m30.107 1.5089v57.944"/>
   <path d="m29.049 1.5089v57.944"/>
   <path d="m29.578 1.5089v57.944"/>
   <path d="m30.636 1.5089v57.944"/>
   <path d="m32.753 1.5089v57.944"/>
   <path d="m31.694 1.5089v57.944"/>
   <path d="m32.224 1.5089v57.944"/>
   <path d="m33.282 1.5089v57.944"/>
   <path d="m35.399 1.5089v57.944"/>
   <path d="m34.34 1.5089v57.944"/>
   <path d="m34.869 1.5089v57.944"/>
   <path d="m35.928 1.5089v57.944"/>
   <path d="m38.044 1.5089v57.944"/>
   <path d="m36.986 1.5089v57.944"/>
   <path d="m37.515 1.5089v57.944"/>
   <path d="m38.574 1.5089v57.944"/>
   <path d="m40.69 1.5089v57.944"/>
   <path d="m39.632 1.5089v57.944"/>
   <path d="m40.161 1.5089v57.944"/>
   <path d="m41.219 1.5089v57.944"/>
   <path d="m43.336 1.5089v57.944"/>
   <path d="m42.278 1.5089v57.944"/>
   <path d="m42.807 1.5089v57.944"/>
   <path d="m43.865 1.5089v57.944"/>
   <path d="m45.982 1.5089v57.944"/>
   <path d="m44.924 1.5089v57.944"/>
   <path d="m45.453 1.5089v57.944"/>
   <path d="m46.511 1.5089v57.944"/>
   <path d="m48.628 1.5089v57.944"/>
   <path d="m47.569 1.5089v57.944"/>
   <path d="m48.099 1.5089v57.944"/>
   <path d="m49.157 1.5089v57.944"/>
   <path d="m51.274 1.5089v57.944"/>
   <path d="m50.215 1.5089v57.944"/>
   <path d="m50.744 1.5089v57.944"/>
   <path d="m51.803 1.5089v57.944"/>
   <path d="m53.919 1.5089v57.944"/>
   <path d="m52.861 1.5089v57.944"/>
   <path d="m53.39 1.5089v57.944"/>
   <path d="m54.449 1.5089v57.944"/>
   <path d="m56.565 1.5089v57.944"/>
   <path d="m55.507 1.5089v57.944"/>
   <path d="m56.036 1.5089v57.944"/>
   <path d="m57.094 1.5089v57.944"/>
   <path d="m59.211 1.5089v57.944"/>
   <path d="m58.153 1.5089v57.944"/>
   <path d="m58.682 1.5089v57.944"/>
   <path d="m59.74 1.5089v57.944"/>
   <path d="m61.857 1.5089v57.944"/>
   <path d="m60.799 1.5089v57.944"/>
   <path d="m61.328 1.5089v57.944"/>
   <path d="m62.386 1.5089v57.944"/>
   <path d="m64.503 1.5089v57.944"/>
   <path d="m63.444 1.5089v57.944"/>
   <path d="m63.974 1.5089v57.944"/>
   <path d="m65.032 1.5089v57.944"/>
   <path d="m67.149 1.5089v57.944"/>
   <path d="m66.09 1.5089v57.944"/>
   <path d="m66.619 1.5089v57.944"/>
   <path d="m67.678 1.5089v57.944"/>
   <path d="m69.794 1.5089v57.944"/>
   <path d="m68.736 1.5089v57.944"/>
   <path d="m69.265 1.5089v57.944"/>
   <path d="m70.324 1.5089v57.944"/>
   <path d="m72.44 1.5089v57.944"/>
   <path d="m71.382 1.5089v57.944"/>
   <path d="m71.911 1.5089v57.944"/>
   <path d="m72.969 1.5089v57.944"/>
   <path d="m75.086 1.5089v57.944"/>
   <path d="m74.028 1.5089v57.944"/>
   <path d="m74.557 1.5089v57.944"/>
   <path d="m75.615 1.5089v57.944"/>
   <path d="m77.732 1.5089v57.944"/>
   <path d="m76.674 1.5089v57.944"/>
   <path d="m77.203 1.5089v57.944"/>
   <path d="m78.261 1.5089v57.944"/>
   <path d="m15.158 7.1974h137.58"/>
   <path d="m15.158 7.7266h137.58"/>
   <path d="m15.158 8.2558h137.58"/>
   <path d="m15.158 8.7849h137.58"/>
   <path d="m15.158 9.8433h137.58"/>
   <path d="m15.158 10.372h137.58"/>
   <path d="m15.158 10.902h137.58"/>
   <path d="m15.158 11.431h137.58"/>
   <path d="m15.158 12.489h137.58"/>
   <path d="m15.158 13.018h137.58"/>
   <path d="m15.158 13.547h137.58"/>
   <path d="m15.158 14.077h137.58"/>
   <path d="m15.158 15.135h137.58"/>
   <path d="m15.158 15.664h137.58"/>
   <path d="m15.158 16.193h137.58"/>
   <path d="m15.158 16.722h137.58"/>
   <path d="m15.158 17.781h137.58"/>
   <path d="m15.158 18.31h137.58"/>
   <path d="m15.158 18.839h137.58"/>
   <path d="m15.158 19.368h137.58"/>
   <path d="m15.158 20.427h137.58"/>
   <path d="m15.158 20.956h137.58"/>
   <path d="m15.158 21.485h137.58"/>
   <path d="m15.158 22.014h137.58"/>
   <path d="m15.158 23.072h137.58"/>
   <path d="m15.158 23.602h137.58"/>
   <path d="m15.158 24.131h137.58"/>
   <path d="m15.158 24.66h137.58"/>
   <path d="m15.158 25.718h137.58"/>
   <path d="m15.158 26.247h137.58"/>
   <path d="m15.158 26.777h137.58"/>
   <path d="m15.158 27.306h137.58"/>
   <path d="m15.158 28.364h137.58"/>
   <path d="m15.158 28.893h137.58"/>
   <path d="m15.158 29.422h137.58"/>
   <path d="m15.158 29.952h137.58"/>
   <path d="m15.158 31.01h137.58"/>
   <path d="m15.158 31.539h137.58"/>
   <path d="m15.158 32.068h137.58"/>
   <path d="m15.158 32.597h137.58"/>
   <path d="m15.158 33.656h137.58"/>
   <path d="m15.158 34.185h137.58"/>
   <path d="m15.158 34.714h137.58"/>
   <path d="m15.158 35.243h137.58"/>
   <path d="m15.158 36.302h137.58"/>
   <path d="m15.158 36.831h132.29"/>
   <path d="m15.158 37.36h137.58"/>
   <path d="m15.158 37.889h137.58"/>
   <path d="m15.158 38.947h137.58"/>
   <path d="m15.158 39.477h137.58"/>
   <path d="m15.158 40.006h137.58"/>
   <path d="m15.158 40.535h137.58"/>
   <path d="m15.158 41.593h132.29"/>
   <path d="m15.158 42.122h132.29"/>
   <path d="m15.158 42.652h132.29"/>
   <path d="m15.158 43.181h132.29"/>
   <path d="m15.158 44.239h132.29"/>
   <path d="m15.158 44.768h132.29"/>
   <path d="m15.158 45.297h132.29"/>
   <path d="m15.158 45.827h132.29"/>
   <path d="m15.158 46.885h132.29"/>
   <path d="m15.158 47.414h132.29"/>
   <path d="m15.158 47.943h132.29"/>
   <path d="m15.158 48.472h132.29"/>
   <path d="m15.158 49.531h132.29"/>
   <path d="m15.158 50.06h132.29"/>
   <path d="m15.158 50.589h137.58"/>
   <path d="m15.158 51.118h137.58"/>
   <path d="m15.158 52.177h137.58"/>
   <path d="m15.158 52.706h137.58"/>
   <path d="m15.158 53.235h137.58"/>
   <path d="m15.158 53.764h137.58"/>
   <path d="m15.158 54.822h137.58"/>
   <path d="m15.158 55.352h137.58"/>
   <path d="m15.158 55.881h132.29"/>
   <path d="m15.158 56.41h137.58"/>
   <path d="m15.158 57.468h137.58"/>
   <path d="m15.158 57.997h137.58"/>
   <path d="m15.158 58.527h137.58"/>
   <path d="m15.158 59.056h137.58"/>
  </g>
 </g>
 <path d="m15.29 1.5089v60.59" fill="#d2d6dc" stroke="#d2d6dc" stroke-dashoffset="1.2" stroke-linecap="round" stroke-miterlimit="40" stroke-width=".52917"/>
 <g fill="#2f3744" stroke="#535e70" stroke-dashoffset="1.2" stroke-linecap="round" stroke-miterlimit="40">
  <path d="m12.247 1.3766h140.49" stroke-width=".13229"/>
  <path d="m15.158 4.0224h137.58" stroke-width=".066146"/>
  <g stroke-width=".033073">
   <path d="m15.158 1.9058h137.58"/>
   <path d="m15.158 2.4349h137.58"/>
   <path d="m15.158 2.9641h137.58"/>
   <path d="m15.158 3.4933h137.58"/>
   <path d="m15.158 4.5516h137.58"/>
   <path d="m15.158 5.0808h137.58"/>
   <path d="m15.158 5.6099h137.58"/>
   <path d="m15.158 6.1391h137.58"/>
  </g>
  <path d="m84.082 1.5089v60.59" stroke-width=".13229"/>
  <path d="m81.436 1.5089v57.944" stroke-width=".066146"/>
  <g stroke-width=".033073">
   <path d="m80.378 1.5089v57.944"/>
   <path d="m79.319 1.5089v57.944"/>
   <path d="m79.849 1.5089v57.944"/>
   <path d="m80.907 1.5089v57.944"/>
   <path d="m83.024 1.5089v57.944"/>
   <path d="m81.965 1.5089v57.944"/>
   <path d="m82.494 1.5089v57.944"/>
   <path d="m83.553 1.5089v57.944"/>
  </g>
  <path d="m89.374 1.5089v60.59" stroke-width=".13229"/>
  <path d="m86.728 1.5089v57.944" stroke-width=".066146"/>
  <g stroke-width=".033073">
   <path d="m85.669 1.5089v57.944"/>
   <path d="m84.611 1.5089v57.944"/>
   <path d="m85.14 1.5089v57.944"/>
   <path d="m86.199 1.5089v57.944"/>
   <path d="m88.315 1.5089v57.944"/>
   <path d="m87.257 1.5089v57.944"/>
   <path d="m87.786 1.5089v57.944"/>
   <path d="m88.844 1.5089v57.944"/>
  </g>
  <path d="m94.665 1.5089v60.59" stroke-width=".13229"/>
  <path d="m92.019 1.5089v57.944" stroke-width=".066146"/>
  <g stroke-width=".033073">
   <path d="m90.961 1.5089v57.944"/>
   <path d="m89.903 1.5089v57.944"/>
   <path d="m90.432 1.5089v57.944"/>
   <path d="m91.49 1.5089v57.944"/>
   <path d="m93.607 1.5089v57.944"/>
   <path d="m92.549 1.5089v57.944"/>
   <path d="m93.078 1.5089v57.944"/>
   <path d="m94.136 1.5089v57.944"/>
  </g>
  <path d="m99.957 1.5089v60.59" stroke-width=".13229"/>
  <path d="m97.311 1.5089v57.944" stroke-width=".066146"/>
  <g stroke-width=".033073">
   <path d="m96.253 1.5089v57.944"/>
   <path d="m95.194 1.5089v57.944"/>
   <path d="m95.724 1.5089v57.944"/>
   <path d="m96.782 1.5089v57.944"/>
   <path d="m98.899 1.5089v57.944"/>
   <path d="m97.84 1.5089v57.944"/>
   <path d="m98.369 1.5089v57.944"/>
   <path d="m99.428 1.5089v57.944"/>
  </g>
  <path d="m105.25 1.5089v60.59" stroke-width=".13229"/>
  <path d="m102.6 1.5089v57.944" stroke-width=".066146"/>
  <g stroke-width=".033073">
   <path d="m101.54 1.5089v57.944"/>
   <path d="m100.49 1.5089v57.944"/>
   <path d="m101.02 1.5089v57.944"/>
   <path d="m102.07 1.5089v57.944"/>
   <path d="m104.19 1.5089v57.944"/>
   <path d="m103.13 1.5089v57.944"/>
   <path d="m103.66 1.5089v57.944"/>
   <path d="m104.72 1.5089v57.944"/>
  </g>
  <path d="m110.54 1.5089v60.59" stroke-width=".13229"/>
  <path d="m107.89 1.5089v57.944" stroke-width=".066146"/>
  <g stroke-width=".033073">
   <path d="m106.84 1.5089v57.944"/>
   <path d="m105.78 1.5089v57.944"/>
   <path d="m106.31 1.5089v57.944"/>
   <path d="m107.37 1.5089v57.944"/>
   <path d="m109.48 1.5089v57.944"/>
   <path d="m108.42 1.5089v57.944"/>
   <path d="m108.95 1.5089v57.944"/>
   <path d="m110.01 1.5089v57.944"/>
  </g>
  <path d="m115.83 1.5089v60.59" stroke-width=".13229"/>
  <path d="m113.19 1.5089v57.944" stroke-width=".066146"/>
  <g stroke-width=".033073">
   <path d="m112.13 1.5089v57.944"/>
   <path d="m111.07 1.5089v57.944"/>
   <path d="m111.6 1.5089v57.944"/>
   <path d="m112.66 1.5089v57.944"/>
   <path d="m114.77 1.5089v57.944"/>
   <path d="m113.72 1.5089v57.944"/>
   <path d="m114.24 1.5089v57.944"/>
   <path d="m115.3 1.5089v57.944"/>
  </g>
  <path d="m121.12 1.5089v60.59" stroke-width=".13229"/>
  <path d="m118.48 1.5089v57.944" stroke-width=".066146"/>
  <g stroke-width=".033073">
   <path d="m117.42 1.5089v57.944"/>
   <path d="m116.36 1.5089v57.944"/>
   <path d="m116.89 1.5089v57.944"/>
   <path d="m117.95 1.5089v57.944"/>
   <path d="m120.07 1.5089v57.944"/>
   <path d="m119.01 1.5089v57.944"/>
   <path d="m119.54 1.5089v57.944"/>
   <path d="m120.59 1.5089v57.944"/>
  </g>
  <path d="m126.42 1.5089v60.59" stroke-width=".13229"/>
  <path d="m123.77 1.5089v57.944" stroke-width=".066146"/>
  <g stroke-width=".033073">
   <path d="m122.71 1.5089v57.944"/>
   <path d="m121.65 1.5089v57.944"/>
   <path d="m122.18 1.5089v57.944"/>
   <path d="m123.24 1.5089v57.944"/>
   <path d="m125.36 1.5089v57.944"/>
   <path d="m124.3 1.5089v57.944"/>
   <path d="m124.83 1.5089v57.944"/>
   <path d="m125.89 1.5089v57.944"/>
  </g>
  <path d="m131.71 1.5089v60.59" stroke-width=".13229"/>
  <path d="m129.06 1.5089v57.944" stroke-width=".066146"/>
  <g stroke-width=".033073">
   <path d="m128 1.5089v57.944"/>
   <path d="m126.94 1.5089v57.944"/>
   <path d="m127.47 1.5089v57.944"/>
   <path d="m128.53 1.5089v57.944"/>
   <path d="m130.65 1.5089v57.944"/>
   <path d="m129.59 1.5089v57.944"/>
   <path d="m130.12 1.5089v57.944"/>
   <path d="m131.18 1.5089v57.944"/>
  </g>
  <path d="m137 1.5089v60.59" stroke-width=".13229"/>
  <path d="m134.35 1.5089v57.944" stroke-width=".066146"/>
  <g stroke-width=".033073">
   <path d="m133.29 1.5089v57.944"/>
   <path d="m132.24 1.5089v57.944"/>
   <path d="m132.77 1.5089v57.944"/>
   <path d="m133.82 1.5089v57.944"/>
   <path d="m135.94 1.5089v57.944"/>
   <path d="m134.88 1.5089v57.944"/>
   <path d="m135.41 1.5089v57.944"/>
   <path d="m136.47 1.5089v57.944"/>
  </g>
  <path d="m142.29 1.5089v60.59" stroke-width=".13229"/>
  <path d="m139.64 1.5089v57.944" stroke-width=".066146"/>
  <g stroke-width=".033073">
   <path d="m138.59 1.5089v57.944"/>
   <path d="m137.53 1.5089v57.944"/>
   <path d="m138.06 1.5089v57.944"/>
   <path d="m139.12 1.5089v57.944"/>
   <path d="m141.23 1.5089v57.944"/>
   <path d="m140.17 1.5089v57.944"/>
   <path d="m140.7 1.5089v57.944"/>
   <path d="m141.76 1.5089v57.944"/>
  </g>
  <path d="m147.58 1.5089v60.59" stroke-width=".13229"/>
  <path d="m144.94 1.5089v57.944" stroke-width=".066146"/>
  <g stroke-width=".033073">
   <path d="m143.88 1.5089v57.944"/>
   <path d="m142.82 1.5089v57.944"/>
   <path d="m143.35 1.5089v57.944"/>
   <path d="m144.41 1.5089v57.944"/>
   <path d="m146.52 1.5089v57.944"/>
   <path d="m145.47 1.5089v57.944"/>
   <path d="m145.99 1.5089v57.944"/>
   <path d="m147.05 1.5089v57.944"/>
  </g>
 </g>
 <g fill="#e8eaec" stroke-linecap="round" stroke-width=".26458" aria-label="2008">
  <path d="m16.921 67.363h1.5261v-0.263h-0.68527c-0.12224 0-0.2667 0.01111-0.39635 0.02223 0.55933-0.58526 0.96308-1.0261 0.96308-1.4706 0-0.41857-0.2704-0.69638-0.7075-0.69638-0.30745 0-0.51858 0.14446-0.7149 0.3593l0.1741 0.1741c0.13705-0.15928 0.30745-0.28522 0.50377-0.28522 0.30004 0 0.4482 0.19262 0.4482 0.46302 0 0.38153-0.40005 0.80751-1.1113 1.515z"/>
  <path d="m19.533 67.407c0.47043 0 0.75565-0.4408 0.75565-1.2335s-0.28522-1.2187-0.75565-1.2187c-0.47413 0-0.75936 0.42598-0.75936 1.2187s0.28522 1.2335 0.75936 1.2335zm0-0.24448c-0.27781 0-0.46302-0.29633-0.46302-0.98901s0.18521-0.9742 0.46302-0.9742c0.27411 0 0.45932 0.28152 0.45932 0.9742s-0.18521 0.98901-0.45932 0.98901z"/>
  <path d="m21.371 67.407c0.47043 0 0.75565-0.4408 0.75565-1.2335s-0.28522-1.2187-0.75565-1.2187c-0.47413 0-0.75936 0.42598-0.75936 1.2187s0.28522 1.2335 0.75936 1.2335zm0-0.24448c-0.27781 0-0.46302-0.29633-0.46302-0.98901s0.18521-0.9742 0.46302-0.9742c0.27411 0 0.45932 0.28152 0.45932 0.9742s-0.18521 0.98901-0.45932 0.98901z"/>
  <path d="m22.712 66.73c0-0.21484 0.14076-0.38894 0.32967-0.51488 0.34078 0.13705 0.64082 0.24818 0.64082 0.55192 0 0.24448-0.18891 0.41487-0.46302 0.41487-0.28893 0-0.50747-0.18891-0.50747-0.45191zm0.66675-0.65564c-0.28522-0.11113-0.54451-0.22966-0.54451-0.51118 0-0.22966 0.16298-0.38153 0.38153-0.38153 0.25929 0 0.41116 0.18521 0.41116 0.41857 0 0.1741-0.0889 0.33338-0.24818 0.47413zm-0.94086 0.68527c0 0.37412 0.32967 0.64823 0.77417 0.64823 0.45932 0 0.76306-0.27781 0.76306-0.62971 0-0.31856-0.20002-0.48525-0.41116-0.60748v-0.01482c0.14446-0.11112 0.32597-0.32226 0.32597-0.57044 0-0.36671-0.25559-0.62971-0.66675-0.62971-0.38153 0-0.67046 0.24448-0.67046 0.60748 0 0.24818 0.15558 0.42228 0.32967 0.54451v0.01482c-0.22225 0.11853-0.4445 0.32967-0.4445 0.63712z"/>
 </g>
 <g fill="#fbb227">
  <rect x="25.827" y="58.005" width="10.583" height="1.6747" style="paint-order:normal"/>
  <rect x="36.41" y="57.52" width="10.583" height="2.1601" style="paint-order:normal"/>
  <rect x="46.994" y="57.114" width="10.583" height="2.5663" style="paint-order:normal"/>
  <rect x="57.577" y="56.715" width="10.583" height="2.965" style="paint-order:normal"/>
  <rect x="68.16" y="55.391" width="10.583" height="4.289" style="paint-order:normal"/>
  <rect x="78.744" y="50.684" width="10.583" height="8.9964" style="paint-order:normal"/>
  <rect x="89.327" y="44.603" width="10.583" height="15.077" style="paint-order:normal"/>
  <rect x="99.91" y="37.712" width="10.583" height="21.968" style="paint-order:normal"/>
  <rect x="110.49" y="19.876" width="10.583" height="39.804" style="paint-order:normal"/>
  <rect x="121.08" y="11.995" width="10.583" height="47.685" style="paint-order:normal"/>
  <rect x="131.66" y="17.094" width="10.583" height="42.586" style="paint-order:normal"/>
  <rect x="15.244" y="58.414" width="10.583" height="1.266" style="paint-order:normal"/>
 </g>
 <g fill="#e8eaec" stroke-linecap="round" stroke-width=".26458">
  <g aria-label="1000">
   <path d="m1.9844 55.457h1.3335v-0.25188h-0.48895v-2.1114h-0.23336c-0.12965 0.07779-0.28522 0.13705-0.50006 0.1741v0.19632h0.42968v1.741h-0.54081z"/>
   <path d="m4.4517 55.501c0.47043 0 0.75565-0.4408 0.75565-1.2335 0-0.79269-0.28522-1.2187-0.75565-1.2187-0.47413 0-0.75935 0.42598-0.75935 1.2187 0 0.79269 0.28522 1.2335 0.75935 1.2335zm0-0.24448c-0.27781 0-0.46302-0.29633-0.46302-0.98901 0-0.69268 0.18521-0.9742 0.46302-0.9742 0.27411 0 0.45932 0.28152 0.45932 0.9742 0 0.69268-0.18521 0.98901-0.45932 0.98901z"/>
   <path d="m6.2893 55.501c0.47043 0 0.75565-0.4408 0.75565-1.2335 0-0.79269-0.28522-1.2187-0.75565-1.2187-0.47413 0-0.75935 0.42598-0.75935 1.2187 0 0.79269 0.28522 1.2335 0.75935 1.2335zm0-0.24448c-0.27781 0-0.46302-0.29633-0.46302-0.98901 0-0.69268 0.18521-0.9742 0.46302-0.9742 0.27411 0 0.45932 0.28152 0.45932 0.9742 0 0.69268-0.18521 0.98901-0.45932 0.98901z"/>
   <path d="m8.1269 55.501c0.47043 0 0.75565-0.4408 0.75565-1.2335 0-0.79269-0.28522-1.2187-0.75565-1.2187-0.47413 0-0.75935 0.42598-0.75935 1.2187 0 0.79269 0.28522 1.2335 0.75935 1.2335zm0-0.24448c-0.27781 0-0.46302-0.29633-0.46302-0.98901 0-0.69268 0.18521-0.9742 0.46302-0.9742 0.27411 0 0.45932 0.28152 0.45932 0.9742 0 0.69268-0.18521 0.98901-0.45932 0.98901z"/>
  </g>
  <g aria-label="2009">
   <path d="m27.504 67.363h1.5261v-0.263h-0.68527c-0.12224 0-0.2667 0.01111-0.39635 0.02223 0.55933-0.58526 0.96308-1.0261 0.96308-1.4706 0-0.41857-0.2704-0.69638-0.7075-0.69638-0.30745 0-0.51858 0.14446-0.7149 0.3593l0.1741 0.1741c0.13705-0.15928 0.30745-0.28522 0.50377-0.28522 0.30004 0 0.4482 0.19262 0.4482 0.46302 0 0.38153-0.40005 0.80751-1.1113 1.515z"/>
   <path d="m30.116 67.407c0.47043 0 0.75565-0.4408 0.75565-1.2335s-0.28522-1.2187-0.75565-1.2187c-0.47413 0-0.75936 0.42598-0.75936 1.2187s0.28522 1.2335 0.75936 1.2335zm0-0.24448c-0.27781 0-0.46302-0.29633-0.46302-0.98901s0.18521-0.9742 0.46302-0.9742c0.27411 0 0.45932 0.28152 0.45932 0.9742s-0.18521 0.98901-0.45932 0.98901z"/>
   <path d="m31.954 67.407c0.47043 0 0.75565-0.4408 0.75565-1.2335s-0.28522-1.2187-0.75565-1.2187c-0.47413 0-0.75936 0.42598-0.75936 1.2187s0.28522 1.2335 0.75936 1.2335zm0-0.24448c-0.27781 0-0.46302-0.29633-0.46302-0.98901s0.18521-0.9742 0.46302-0.9742c0.27411 0 0.45932 0.28152 0.45932 0.9742s-0.18521 0.98901-0.45932 0.98901z"/>
   <path d="m33.74 66.215c-0.29263 0-0.43709-0.19262-0.43709-0.50006 0-0.31115 0.1815-0.51858 0.41116-0.51858 0.30004 0 0.48154 0.24448 0.52229 0.70379-0.15928 0.22595-0.34449 0.31485-0.49636 0.31485zm-0.68157 0.94456c0.12965 0.14076 0.31856 0.24818 0.57044 0.24818 0.47043 0 0.90011-0.36671 0.90011-1.315 0-0.75935-0.34819-1.1372-0.81492-1.1372-0.37783 0-0.69638 0.30745-0.69638 0.75936 0 0.48525 0.263 0.72972 0.67045 0.72972 0.19632 0 0.40746-0.11483 0.55563-0.30374-0.01111 0.75565-0.29263 1.0149-0.626 1.0149-0.14817 0-0.29263-0.07408-0.38894-0.18891z"/>
  </g>
  <g aria-label="2010">
   <path d="m38.088 67.363h1.5261v-0.263h-0.68527c-0.12224 0-0.2667 0.01111-0.39635 0.02223 0.55933-0.58526 0.96308-1.0261 0.96308-1.4706 0-0.41857-0.2704-0.69638-0.7075-0.69638-0.30745 0-0.51858 0.14446-0.7149 0.3593l0.1741 0.1741c0.13705-0.15928 0.30745-0.28522 0.50377-0.28522 0.30004 0 0.4482 0.19262 0.4482 0.46302 0 0.38153-0.40005 0.80751-1.1113 1.515z"/>
   <path d="m40.7 67.407c0.47043 0 0.75565-0.4408 0.75565-1.2335s-0.28522-1.2187-0.75565-1.2187c-0.47413 0-0.75936 0.42598-0.75936 1.2187s0.28522 1.2335 0.75936 1.2335zm0-0.24448c-0.27781 0-0.46302-0.29633-0.46302-0.98901s0.18521-0.9742 0.46302-0.9742c0.27411 0 0.45932 0.28152 0.45932 0.9742s-0.18521 0.98901-0.45932 0.98901z"/>
   <path d="m41.908 67.363h1.3335v-0.25188h-0.48895v-2.1114h-0.23336c-0.12965 0.07779-0.28522 0.13706-0.50006 0.1741v0.19632h0.42968v1.741h-0.54081z"/>
   <path d="m44.375 67.407c0.47043 0 0.75565-0.4408 0.75565-1.2335s-0.28522-1.2187-0.75565-1.2187c-0.47413 0-0.75936 0.42598-0.75936 1.2187s0.28522 1.2335 0.75936 1.2335zm0-0.24448c-0.27781 0-0.46302-0.29633-0.46302-0.98901s0.18521-0.9742 0.46302-0.9742c0.27411 0 0.45932 0.28152 0.45932 0.9742s-0.18521 0.98901-0.45932 0.98901z"/>
  </g>
  <g aria-label="2011">
   <path d="m48.671 67.363h1.5261v-0.263h-0.68527c-0.12224 0-0.2667 0.01111-0.39635 0.02223 0.55933-0.58526 0.96308-1.0261 0.96308-1.4706 0-0.41857-0.2704-0.69638-0.7075-0.69638-0.30745 0-0.51858 0.14446-0.7149 0.3593l0.1741 0.1741c0.13706-0.15928 0.30745-0.28522 0.50377-0.28522 0.30004 0 0.4482 0.19262 0.4482 0.46302 0 0.38153-0.40005 0.80751-1.1113 1.515z"/>
   <path d="m51.283 67.407c0.47043 0 0.75565-0.4408 0.75565-1.2335s-0.28522-1.2187-0.75565-1.2187c-0.47413 0-0.75936 0.42598-0.75936 1.2187s0.28522 1.2335 0.75936 1.2335zm0-0.24448c-0.27781 0-0.46302-0.29633-0.46302-0.98901s0.18521-0.9742 0.46302-0.9742c0.27411 0 0.45932 0.28152 0.45932 0.9742s-0.18521 0.98901-0.45932 0.98901z"/>
   <path d="m52.491 67.363h1.3335v-0.25188h-0.48895v-2.1114h-0.23336c-0.12965 0.07779-0.28522 0.13706-0.50006 0.1741v0.19632h0.42968v1.741h-0.54081z"/>
   <path d="m54.328 67.363h1.3335v-0.25188h-0.48895v-2.1114h-0.23336c-0.12965 0.07779-0.28522 0.13706-0.50006 0.1741v0.19632h0.42968v1.741h-0.54081z"/>
  </g>
  <g aria-label="2012">
   <path d="m59.254 67.363h1.5261v-0.263h-0.68527c-0.12224 0-0.2667 0.01111-0.39635 0.02223 0.55933-0.58526 0.96308-1.0261 0.96308-1.4706 0-0.41857-0.2704-0.69638-0.7075-0.69638-0.30745 0-0.51858 0.14446-0.7149 0.3593l0.1741 0.1741c0.13705-0.15928 0.30745-0.28522 0.50377-0.28522 0.30004 0 0.4482 0.19262 0.4482 0.46302 0 0.38153-0.40005 0.80751-1.1113 1.515z"/>
   <path d="m61.866 67.407c0.47043 0 0.75565-0.4408 0.75565-1.2335s-0.28522-1.2187-0.75565-1.2187c-0.47413 0-0.75936 0.42598-0.75936 1.2187s0.28522 1.2335 0.75936 1.2335zm0-0.24448c-0.27781 0-0.46302-0.29633-0.46302-0.98901s0.18521-0.9742 0.46302-0.9742c0.27411 0 0.45932 0.28152 0.45932 0.9742s-0.18521 0.98901-0.45932 0.98901z"/>
   <path d="m63.074 67.363h1.3335v-0.25188h-0.48895v-2.1114h-0.23336c-0.12965 0.07779-0.28522 0.13706-0.50006 0.1741v0.19632h0.42968v1.741h-0.54081z"/>
   <path d="m64.767 67.363h1.5261v-0.263h-0.68527c-0.12224 0-0.2667 0.01111-0.39635 0.02223 0.55933-0.58526 0.96308-1.0261 0.96308-1.4706 0-0.41857-0.2704-0.69638-0.7075-0.69638-0.30745 0-0.51858 0.14446-0.7149 0.3593l0.1741 0.1741c0.13705-0.15928 0.30745-0.28522 0.50377-0.28522 0.30004 0 0.4482 0.19262 0.4482 0.46302 0 0.38153-0.40005 0.80751-1.1113 1.515z"/>
  </g>
  <g aria-label="2013">
   <path d="m69.838 67.363h1.5261v-0.263h-0.68527c-0.12224 0-0.2667 0.01111-0.39635 0.02223 0.55933-0.58526 0.96308-1.0261 0.96308-1.4706 0-0.41857-0.2704-0.69638-0.7075-0.69638-0.30745 0-0.51858 0.14446-0.7149 0.3593l0.1741 0.1741c0.13705-0.15928 0.30745-0.28522 0.50377-0.28522 0.30004 0 0.4482 0.19262 0.4482 0.46302 0 0.38153-0.40005 0.80751-1.1113 1.515z"/>
   <path d="m72.45 67.407c0.47043 0 0.75565-0.4408 0.75565-1.2335s-0.28522-1.2187-0.75565-1.2187c-0.47413 0-0.75936 0.42598-0.75936 1.2187s0.28522 1.2335 0.75936 1.2335zm0-0.24448c-0.27781 0-0.46302-0.29633-0.46302-0.98901s0.18521-0.9742 0.46302-0.9742c0.27411 0 0.45932 0.28152 0.45932 0.9742s-0.18521 0.98901-0.45932 0.98901z"/>
   <path d="m73.658 67.363h1.3335v-0.25188h-0.48895v-2.1114h-0.23336c-0.12965 0.07779-0.28522 0.13706-0.50006 0.1741v0.19632h0.42968v1.741h-0.54081z"/>
   <path d="m75.299 67.074c0.15928 0.1741 0.40005 0.33338 0.77788 0.33338 0.43339 0 0.77788-0.25559 0.77788-0.67416 0-0.32597-0.22596-0.5334-0.51118-0.60008v-0.01482c0.25559-0.09631 0.42968-0.27781 0.42968-0.56303 0-0.38153-0.29633-0.60008-0.7075-0.60008-0.27781 0-0.49636 0.12594-0.67786 0.29633l0.16298 0.19262c0.14076-0.14076 0.30745-0.24077 0.50377-0.24077 0.25188 0 0.40746 0.14446 0.40746 0.37412 0 0.24818-0.16669 0.4408-0.67045 0.4408v0.23336c0.56303 0 0.75565 0.18891 0.75565 0.47043 0 0.263-0.20373 0.43339-0.48895 0.43339-0.27781 0-0.46302-0.13335-0.60378-0.28152z"/>
  </g>
  <g aria-label="2014">
   <path d="m80.421 67.363h1.5261v-0.263h-0.68527c-0.12224 0-0.2667 0.01111-0.39635 0.02223 0.55933-0.58526 0.96308-1.0261 0.96308-1.4706 0-0.41857-0.2704-0.69638-0.7075-0.69638-0.30745 0-0.51858 0.14446-0.7149 0.3593l0.1741 0.1741c0.13705-0.15928 0.30745-0.28522 0.50377-0.28522 0.30004 0 0.4482 0.19262 0.4482 0.46302 0 0.38153-0.40005 0.80751-1.1113 1.515z"/>
   <path d="m83.033 67.407c0.47043 0 0.75565-0.4408 0.75565-1.2335s-0.28522-1.2187-0.75565-1.2187c-0.47413 0-0.75936 0.42598-0.75936 1.2187s0.28522 1.2335 0.75936 1.2335zm0-0.24448c-0.27781 0-0.46302-0.29633-0.46302-0.98901s0.18521-0.9742 0.46302-0.9742c0.27411 0 0.45932 0.28152 0.45932 0.9742s-0.18521 0.98901-0.45932 0.98901z"/>
   <path d="m84.241 67.363h1.3335v-0.25188h-0.48895v-2.1114h-0.23336c-0.12965 0.07779-0.28522 0.13706-0.50006 0.1741v0.19632h0.42968v1.741h-0.54081z"/>
   <path d="m86.171 66.467 0.55192-0.80751c0.06668-0.11483 0.13335-0.21855 0.19262-0.33338h0.01482c-0.0074 0.12594-0.01852 0.32967-0.01852 0.45561v0.68527zm1.352 0h-0.32226v-1.4669h-0.34078l-1.0112 1.5113v0.20002h1.0631v0.65193h0.28893v-0.65193h0.32226z"/>
  </g>
  <g aria-label="2015">
   <path d="m91.004 67.363h1.5261v-0.263h-0.68527c-0.12224 0-0.2667 0.01111-0.39635 0.02223 0.55933-0.58526 0.96308-1.0261 0.96308-1.4706 0-0.41857-0.2704-0.69638-0.7075-0.69638-0.30745 0-0.51858 0.14446-0.7149 0.3593l0.1741 0.1741c0.13705-0.15928 0.30745-0.28522 0.50377-0.28522 0.30004 0 0.4482 0.19262 0.4482 0.46302 0 0.38153-0.40005 0.80751-1.1113 1.515z"/>
   <path d="m93.616 67.407c0.47043 0 0.75565-0.4408 0.75565-1.2335s-0.28522-1.2187-0.75565-1.2187c-0.47413 0-0.75936 0.42598-0.75936 1.2187s0.28522 1.2335 0.75936 1.2335zm0-0.24448c-0.27781 0-0.46302-0.29633-0.46302-0.98901s0.18521-0.9742 0.46302-0.9742c0.27411 0 0.45932 0.28152 0.45932 0.9742s-0.18521 0.98901-0.45932 0.98901z"/>
   <path d="m94.824 67.363h1.3335v-0.25188h-0.48895v-2.1114h-0.23336c-0.12965 0.07779-0.28522 0.13706-0.50006 0.1741v0.19632h0.42968v1.741h-0.54081z"/>
   <path d="m96.462 67.085c0.16298 0.16298 0.39635 0.32226 0.77417 0.32226 0.41116 0 0.7964-0.28893 0.7964-0.8001s-0.32967-0.74083-0.73343-0.74083c-0.14446 0-0.25188 0.03704-0.36301 0.09631l0.06297-0.70009h0.91493v-0.263h-1.1816l-0.07779 1.1372 0.16298 0.10372c0.14076-0.0926 0.24077-0.14446 0.40376-0.14446 0.30374 0 0.50377 0.19262 0.50377 0.51858 0 0.32967-0.22966 0.54081-0.51858 0.54081-0.27781 0-0.45561-0.12965-0.59637-0.2704z"/>
  </g>
  <g aria-label="2016">
   <path d="m101.59 67.363h1.5261v-0.263h-0.68527c-0.12224 0-0.2667 0.01111-0.39635 0.02223 0.55933-0.58526 0.96309-1.0261 0.96309-1.4706 0-0.41857-0.27041-0.69638-0.7075-0.69638-0.30744 0-0.51858 0.14446-0.7149 0.3593l0.17409 0.1741c0.13706-0.15928 0.30745-0.28522 0.50377-0.28522 0.30004 0 0.4482 0.19262 0.4482 0.46302 0 0.38153-0.40005 0.80751-1.1112 1.515z"/>
   <path d="m104.2 67.407c0.47043 0 0.75565-0.4408 0.75565-1.2335s-0.28522-1.2187-0.75565-1.2187c-0.47413 0-0.75935 0.42598-0.75935 1.2187s0.28522 1.2335 0.75935 1.2335zm0-0.24448c-0.27781 0-0.46302-0.29633-0.46302-0.98901s0.18521-0.9742 0.46302-0.9742c0.27411 0 0.45932 0.28152 0.45932 0.9742s-0.18521 0.98901-0.45932 0.98901z"/>
   <path d="m105.41 67.363h1.3335v-0.25188h-0.48895v-2.1114h-0.23336c-0.12965 0.07779-0.28523 0.13706-0.50007 0.1741v0.19632h0.42969v1.741h-0.54081z"/>
   <path d="m107.95 67.167c-0.30004 0-0.48154-0.24818-0.51858-0.7075 0.15928-0.22225 0.34449-0.31115 0.49265-0.31115 0.29263 0 0.43709 0.19262 0.43709 0.50006 0 0.31115-0.1778 0.51858-0.41116 0.51858zm0.65564-1.9595c-0.13335-0.14446-0.31486-0.25188-0.57044-0.25188-0.47043 0-0.90012 0.36671-0.90012 1.315 0 0.75935 0.3519 1.1372 0.81492 1.1372 0.38153 0 0.70009-0.30745 0.70009-0.75936 0-0.48525-0.2667-0.72972-0.67416-0.72972-0.19262 0-0.40375 0.11483-0.55192 0.29633 0.0148-0.74824 0.29263-1.0038 0.6223-1.0038 0.14817 0 0.29263 0.07038 0.38894 0.18521z"/>
  </g>
  <g aria-label="2017">
   <path d="m112.17 67.363h1.5261v-0.263h-0.68527c-0.12224 0-0.2667 0.01111-0.39635 0.02223 0.55933-0.58526 0.96308-1.0261 0.96308-1.4706 0-0.41857-0.2704-0.69638-0.70749-0.69638-0.30745 0-0.51859 0.14446-0.71491 0.3593l0.1741 0.1741c0.13705-0.15928 0.30744-0.28522 0.50377-0.28522 0.30003 0 0.4482 0.19262 0.4482 0.46302 0 0.38153-0.40005 0.80751-1.1112 1.515z"/>
   <path d="m114.78 67.407c0.47043 0 0.75565-0.4408 0.75565-1.2335s-0.28522-1.2187-0.75565-1.2187c-0.47414 0-0.75936 0.42598-0.75936 1.2187s0.28522 1.2335 0.75936 1.2335zm0-0.24448c-0.27782 0-0.46302-0.29633-0.46302-0.98901s0.1852-0.9742 0.46302-0.9742c0.27411 0 0.45931 0.28152 0.45931 0.9742s-0.1852 0.98901-0.45931 0.98901z"/>
   <path d="m115.99 67.363h1.3335v-0.25188h-0.48895v-2.1114h-0.23336c-0.12964 0.07779-0.28522 0.13706-0.50006 0.1741v0.19632h0.42968v1.741h-0.54081z"/>
   <path d="m118.19 67.363h0.31485c0.0408-0.92234 0.15558-1.4594 0.71491-2.1743v-0.18891h-1.5224v0.263h1.1779c-0.46673 0.64823-0.64453 1.2113-0.68527 2.1003z"/>
  </g>
  <g aria-label="2018">
   <path d="m122.75 67.363h1.5261v-0.263h-0.68528c-0.12223 0-0.2667 0.01111-0.39634 0.02223 0.55933-0.58526 0.96308-1.0261 0.96308-1.4706 0-0.41857-0.2704-0.69638-0.70749-0.69638-0.30745 0-0.51859 0.14446-0.71491 0.3593l0.1741 0.1741c0.13705-0.15928 0.30744-0.28522 0.50376-0.28522 0.30004 0 0.44821 0.19262 0.44821 0.46302 0 0.38153-0.40005 0.80751-1.1112 1.515z"/>
   <path d="m125.37 67.407c0.47043 0 0.75566-0.4408 0.75566-1.2335s-0.28523-1.2187-0.75566-1.2187c-0.47413 0-0.75935 0.42598-0.75935 1.2187s0.28522 1.2335 0.75935 1.2335zm0-0.24448c-0.27781 0-0.46302-0.29633-0.46302-0.98901s0.18521-0.9742 0.46302-0.9742c0.27411 0 0.45932 0.28152 0.45932 0.9742s-0.18521 0.98901-0.45932 0.98901z"/>
   <path d="m126.57 67.363h1.3335v-0.25188h-0.48895v-2.1114h-0.23336c-0.12965 0.07779-0.28522 0.13706-0.50006 0.1741v0.19632h0.42968v1.741h-0.54081z"/>
   <path d="m128.55 66.73c0-0.21484 0.14076-0.38894 0.32967-0.51488 0.34078 0.13705 0.64082 0.24818 0.64082 0.55192 0 0.24448-0.18891 0.41487-0.46302 0.41487-0.28893 0-0.50747-0.18891-0.50747-0.45191zm0.66675-0.65564c-0.28522-0.11113-0.54452-0.22966-0.54452-0.51118 0-0.22966 0.16299-0.38153 0.38153-0.38153 0.2593 0 0.41117 0.18521 0.41117 0.41857 0 0.1741-0.0889 0.33338-0.24818 0.47413zm-0.94086 0.68527c0 0.37412 0.32967 0.64823 0.77417 0.64823 0.45932 0 0.76306-0.27781 0.76306-0.62971 0-0.31856-0.20003-0.48525-0.41116-0.60748v-0.01482c0.14446-0.11112 0.32596-0.32226 0.32596-0.57044 0-0.36671-0.25558-0.62971-0.66675-0.62971-0.38153 0-0.67045 0.24448-0.67045 0.60748 0 0.24818 0.15557 0.42228 0.32967 0.54451v0.01482c-0.22225 0.11853-0.4445 0.32967-0.4445 0.63712z"/>
  </g>
  <g aria-label="2019">
   <path d="m133.34 67.363h1.5261v-0.263h-0.68527c-0.12224 0-0.2667 0.01111-0.39635 0.02223 0.55933-0.58526 0.96309-1.0261 0.96309-1.4706 0-0.41857-0.27041-0.69638-0.7075-0.69638-0.30744 0-0.51858 0.14446-0.7149 0.3593l0.17409 0.1741c0.13706-0.15928 0.30745-0.28522 0.50377-0.28522 0.30004 0 0.4482 0.19262 0.4482 0.46302 0 0.38153-0.40005 0.80751-1.1112 1.515z"/>
   <path d="m135.95 67.407c0.47043 0 0.75565-0.4408 0.75565-1.2335s-0.28522-1.2187-0.75565-1.2187c-0.47413 0-0.75935 0.42598-0.75935 1.2187s0.28522 1.2335 0.75935 1.2335zm0-0.24448c-0.27781 0-0.46302-0.29633-0.46302-0.98901s0.18521-0.9742 0.46302-0.9742c0.27411 0 0.45932 0.28152 0.45932 0.9742s-0.18521 0.98901-0.45932 0.98901z"/>
   <path d="m137.16 67.363h1.3335v-0.25188h-0.48895v-2.1114h-0.23336c-0.12965 0.07779-0.28523 0.13706-0.50007 0.1741v0.19632h0.42969v1.741h-0.54081z"/>
   <path d="m139.57 66.215c-0.29263 0-0.43709-0.19262-0.43709-0.50006 0-0.31115 0.18151-0.51858 0.41116-0.51858 0.30004 0 0.48155 0.24448 0.52229 0.70379-0.15928 0.22595-0.34449 0.31485-0.49636 0.31485zm-0.68156 0.94456c0.12964 0.14076 0.31855 0.24818 0.57044 0.24818 0.47043 0 0.90011-0.36671 0.90011-1.315 0-0.75935-0.34819-1.1372-0.81492-1.1372-0.37782 0-0.69638 0.30745-0.69638 0.75936 0 0.48525 0.263 0.72972 0.67046 0.72972 0.19632 0 0.40745-0.11483 0.55562-0.30374-0.0111 0.75565-0.29263 1.0149-0.626 1.0149-0.14817 0-0.29263-0.07408-0.38894-0.18891z"/>
  </g>
  <g aria-label="2000">
   <path d="m1.8399 50.165h1.5261v-0.263h-0.68527c-0.12224 0-0.2667 0.01111-0.39635 0.02222 0.55933-0.58526 0.96308-1.0261 0.96308-1.4706 0-0.41857-0.2704-0.69638-0.7075-0.69638-0.30745 0-0.51858 0.14446-0.7149 0.3593l0.1741 0.1741c0.13705-0.15928 0.30745-0.28522 0.50377-0.28522 0.30004 0 0.4482 0.19262 0.4482 0.46302 0 0.38153-0.40005 0.80751-1.1113 1.515z"/>
   <path d="m4.4517 50.209c0.47043 0 0.75565-0.4408 0.75565-1.2335 0-0.79269-0.28522-1.2187-0.75565-1.2187-0.47413 0-0.75935 0.42598-0.75935 1.2187 0 0.79269 0.28522 1.2335 0.75935 1.2335zm0-0.24448c-0.27781 0-0.46302-0.29633-0.46302-0.98901 0-0.69268 0.18521-0.9742 0.46302-0.9742 0.27411 0 0.45932 0.28152 0.45932 0.9742 0 0.69268-0.18521 0.98901-0.45932 0.98901z"/>
   <path d="m6.2893 50.209c0.47043 0 0.75565-0.4408 0.75565-1.2335 0-0.79269-0.28522-1.2187-0.75565-1.2187-0.47413 0-0.75935 0.42598-0.75935 1.2187 0 0.79269 0.28522 1.2335 0.75935 1.2335zm0-0.24448c-0.27781 0-0.46302-0.29633-0.46302-0.98901 0-0.69268 0.18521-0.9742 0.46302-0.9742 0.27411 0 0.45932 0.28152 0.45932 0.9742 0 0.69268-0.18521 0.98901-0.45932 0.98901z"/>
   <path d="m8.1269 50.209c0.47043 0 0.75565-0.4408 0.75565-1.2335 0-0.79269-0.28522-1.2187-0.75565-1.2187-0.47413 0-0.75935 0.42598-0.75935 1.2187 0 0.79269 0.28522 1.2335 0.75935 1.2335zm0-0.24448c-0.27781 0-0.46302-0.29633-0.46302-0.98901 0-0.69268 0.18521-0.9742 0.46302-0.9742 0.27411 0 0.45932 0.28152 0.45932 0.9742 0 0.69268-0.18521 0.98901-0.45932 0.98901z"/>
  </g>
  <g aria-label="3000">
   <path d="m1.7881 44.584c0.15928 0.1741 0.40005 0.33338 0.77788 0.33338 0.43339 0 0.77788-0.25559 0.77788-0.67416 0-0.32597-0.22595-0.5334-0.51118-0.60008v-0.01482c0.25559-0.09631 0.42968-0.27781 0.42968-0.56303 0-0.38153-0.29633-0.60008-0.7075-0.60008-0.27781 0-0.49636 0.12594-0.67786 0.29633l0.16298 0.19262c0.14076-0.14076 0.30745-0.24077 0.50377-0.24077 0.25188 0 0.40746 0.14446 0.40746 0.37412 0 0.24818-0.16669 0.4408-0.67045 0.4408v0.23336c0.56303 0 0.75565 0.18891 0.75565 0.47043 0 0.263-0.20373 0.43339-0.48895 0.43339-0.27781 0-0.46302-0.13335-0.60378-0.28152z"/>
   <path d="m4.4517 44.918c0.47043 0 0.75565-0.4408 0.75565-1.2335 0-0.79269-0.28522-1.2187-0.75565-1.2187-0.47413 0-0.75935 0.42598-0.75935 1.2187 0 0.79269 0.28522 1.2335 0.75935 1.2335zm0-0.24448c-0.27781 0-0.46302-0.29633-0.46302-0.98901s0.18521-0.9742 0.46302-0.9742c0.27411 0 0.45932 0.28152 0.45932 0.9742s-0.18521 0.98901-0.45932 0.98901z"/>
   <path d="m6.2893 44.918c0.47043 0 0.75565-0.4408 0.75565-1.2335 0-0.79269-0.28522-1.2187-0.75565-1.2187-0.47413 0-0.75935 0.42598-0.75935 1.2187 0 0.79269 0.28522 1.2335 0.75935 1.2335zm0-0.24448c-0.27781 0-0.46302-0.29633-0.46302-0.98901s0.18521-0.9742 0.46302-0.9742c0.27411 0 0.45932 0.28152 0.45932 0.9742s-0.18521 0.98901-0.45932 0.98901z"/>
   <path d="m8.1269 44.918c0.47043 0 0.75565-0.4408 0.75565-1.2335 0-0.79269-0.28522-1.2187-0.75565-1.2187-0.47413 0-0.75935 0.42598-0.75935 1.2187 0 0.79269 0.28522 1.2335 0.75935 1.2335zm0-0.24448c-0.27781 0-0.46302-0.29633-0.46302-0.98901s0.18521-0.9742 0.46302-0.9742c0.27411 0 0.45932 0.28152 0.45932 0.9742s-0.18521 0.98901-0.45932 0.98901z"/>
  </g>
  <g aria-label="4000">
   <path d="m2.077 38.685 0.55192-0.80751c0.066675-0.11483 0.13335-0.21855 0.19262-0.33338h0.014817c-0.00741 0.12594-0.018521 0.32967-0.018521 0.45561v0.68527zm1.352 0h-0.32226v-1.4669h-0.34078l-1.0112 1.5113v0.20002h1.0631v0.65193h0.28893v-0.65193h0.32226z"/>
   <path d="m4.4517 39.626c0.47043 0 0.75565-0.4408 0.75565-1.2335 0-0.79269-0.28522-1.2187-0.75565-1.2187-0.47413 0-0.75935 0.42598-0.75935 1.2187 0 0.79269 0.28522 1.2335 0.75935 1.2335zm0-0.24448c-0.27781 0-0.46302-0.29633-0.46302-0.98901s0.18521-0.9742 0.46302-0.9742c0.27411 0 0.45932 0.28152 0.45932 0.9742s-0.18521 0.98901-0.45932 0.98901z"/>
   <path d="m6.2893 39.626c0.47043 0 0.75565-0.4408 0.75565-1.2335 0-0.79269-0.28522-1.2187-0.75565-1.2187-0.47413 0-0.75935 0.42598-0.75935 1.2187 0 0.79269 0.28522 1.2335 0.75935 1.2335zm0-0.24448c-0.27781 0-0.46302-0.29633-0.46302-0.98901s0.18521-0.9742 0.46302-0.9742c0.27411 0 0.45932 0.28152 0.45932 0.9742s-0.18521 0.98901-0.45932 0.98901z"/>
   <path d="m8.1269 39.626c0.47043 0 0.75565-0.4408 0.75565-1.2335 0-0.79269-0.28522-1.2187-0.75565-1.2187-0.47413 0-0.75935 0.42598-0.75935 1.2187 0 0.79269 0.28522 1.2335 0.75935 1.2335zm0-0.24448c-0.27781 0-0.46302-0.29633-0.46302-0.98901s0.18521-0.9742 0.46302-0.9742c0.27411 0 0.45932 0.28152 0.45932 0.9742s-0.18521 0.98901-0.45932 0.98901z"/>
  </g>
  <g aria-label="5000">
   <path d="m1.7844 34.012c0.16298 0.16298 0.39635 0.32226 0.77417 0.32226 0.41116 0 0.7964-0.28892 0.7964-0.8001 0-0.51118-0.32967-0.74083-0.73343-0.74083-0.14446 0-0.25188 0.03704-0.36301 0.09631l0.062971-0.70009h0.91493v-0.263h-1.1816l-0.077788 1.1372 0.16298 0.10372c0.14076-0.0926 0.24077-0.14446 0.40375-0.14446 0.30374 0 0.50377 0.19262 0.50377 0.51858 0 0.32967-0.22966 0.54081-0.51858 0.54081-0.27781 0-0.45561-0.12965-0.59637-0.2704z"/>
   <path d="m4.4517 34.334c0.47043 0 0.75565-0.4408 0.75565-1.2335 0-0.79269-0.28522-1.2187-0.75565-1.2187-0.47413 0-0.75935 0.42598-0.75935 1.2187 0 0.79269 0.28522 1.2335 0.75935 1.2335zm0-0.24448c-0.27781 0-0.46302-0.29633-0.46302-0.98901 0-0.69268 0.18521-0.9742 0.46302-0.9742 0.27411 0 0.45932 0.28152 0.45932 0.9742 0 0.69268-0.18521 0.98901-0.45932 0.98901z"/>
   <path d="m6.2893 34.334c0.47043 0 0.75565-0.4408 0.75565-1.2335 0-0.79269-0.28522-1.2187-0.75565-1.2187-0.47413 0-0.75935 0.42598-0.75935 1.2187 0 0.79269 0.28522 1.2335 0.75935 1.2335zm0-0.24448c-0.27781 0-0.46302-0.29633-0.46302-0.98901 0-0.69268 0.18521-0.9742 0.46302-0.9742 0.27411 0 0.45932 0.28152 0.45932 0.9742 0 0.69268-0.18521 0.98901-0.45932 0.98901z"/>
   <path d="m8.1269 34.334c0.47043 0 0.75565-0.4408 0.75565-1.2335 0-0.79269-0.28522-1.2187-0.75565-1.2187-0.47413 0-0.75935 0.42598-0.75935 1.2187 0 0.79269 0.28522 1.2335 0.75935 1.2335zm0-0.24448c-0.27781 0-0.46302-0.29633-0.46302-0.98901 0-0.69268 0.18521-0.9742 0.46302-0.9742 0.27411 0 0.45932 0.28152 0.45932 0.9742 0 0.69268-0.18521 0.98901-0.45932 0.98901z"/>
  </g>
  <g aria-label="6000">
   <path d="m2.6845 28.802c-0.30004 0-0.48154-0.24818-0.51858-0.7075 0.15928-0.22225 0.34449-0.31115 0.49265-0.31115 0.29263 0 0.43709 0.19262 0.43709 0.50006 0 0.31115-0.1778 0.51858-0.41116 0.51858zm0.65564-1.9595c-0.13335-0.14446-0.31485-0.25188-0.57044-0.25188-0.47043 0-0.90011 0.36671-0.90011 1.315 0 0.75936 0.3519 1.1372 0.81492 1.1372 0.38153 0 0.70009-0.30745 0.70009-0.75936 0-0.48525-0.2667-0.72972-0.67416-0.72972-0.19262 0-0.40375 0.11483-0.55192 0.29633 0.014817-0.74824 0.29263-1.0038 0.6223-1.0038 0.14817 0 0.29263 0.07038 0.38894 0.18521z"/>
   <path d="m4.4517 29.043c0.47043 0 0.75565-0.4408 0.75565-1.2335 0-0.79269-0.28522-1.2187-0.75565-1.2187-0.47413 0-0.75935 0.42598-0.75935 1.2187 0 0.79269 0.28522 1.2335 0.75935 1.2335zm0-0.24448c-0.27781 0-0.46302-0.29633-0.46302-0.98901 0-0.69268 0.18521-0.9742 0.46302-0.9742 0.27411 0 0.45932 0.28152 0.45932 0.9742 0 0.69268-0.18521 0.98901-0.45932 0.98901z"/>
   <path d="m6.2893 29.043c0.47043 0 0.75565-0.4408 0.75565-1.2335 0-0.79269-0.28522-1.2187-0.75565-1.2187-0.47413 0-0.75935 0.42598-0.75935 1.2187 0 0.79269 0.28522 1.2335 0.75935 1.2335zm0-0.24448c-0.27781 0-0.46302-0.29633-0.46302-0.98901 0-0.69268 0.18521-0.9742 0.46302-0.9742 0.27411 0 0.45932 0.28152 0.45932 0.9742 0 0.69268-0.18521 0.98901-0.45932 0.98901z"/>
   <path d="m8.1269 29.043c0.47043 0 0.75565-0.4408 0.75565-1.2335 0-0.79269-0.28522-1.2187-0.75565-1.2187-0.47413 0-0.75935 0.42598-0.75935 1.2187 0 0.79269 0.28522 1.2335 0.75935 1.2335zm0-0.24448c-0.27781 0-0.46302-0.29633-0.46302-0.98901 0-0.69268 0.18521-0.9742 0.46302-0.9742 0.27411 0 0.45932 0.28152 0.45932 0.9742 0 0.69268-0.18521 0.98901-0.45932 0.98901z"/>
  </g>
  <g aria-label="7000">
   <path d="m2.3474 23.707h0.31485c0.040746-0.92234 0.15558-1.4594 0.7149-2.1743v-0.18891h-1.5224v0.263h1.1779c-0.46673 0.64823-0.64453 1.2113-0.68527 2.1003z"/>
   <path d="m4.4517 23.751c0.47043 0 0.75565-0.4408 0.75565-1.2335 0-0.79269-0.28522-1.2187-0.75565-1.2187-0.47413 0-0.75935 0.42598-0.75935 1.2187 0 0.79269 0.28522 1.2335 0.75935 1.2335zm0-0.24448c-0.27781 0-0.46302-0.29633-0.46302-0.98901 0-0.69268 0.18521-0.9742 0.46302-0.9742 0.27411 0 0.45932 0.28152 0.45932 0.9742 0 0.69268-0.18521 0.98901-0.45932 0.98901z"/>
   <path d="m6.2893 23.751c0.47043 0 0.75565-0.4408 0.75565-1.2335 0-0.79269-0.28522-1.2187-0.75565-1.2187-0.47413 0-0.75935 0.42598-0.75935 1.2187 0 0.79269 0.28522 1.2335 0.75935 1.2335zm0-0.24448c-0.27781 0-0.46302-0.29633-0.46302-0.98901 0-0.69268 0.18521-0.9742 0.46302-0.9742 0.27411 0 0.45932 0.28152 0.45932 0.9742 0 0.69268-0.18521 0.98901-0.45932 0.98901z"/>
   <path d="m8.1269 23.751c0.47043 0 0.75565-0.4408 0.75565-1.2335 0-0.79269-0.28522-1.2187-0.75565-1.2187-0.47413 0-0.75935 0.42598-0.75935 1.2187 0 0.79269 0.28522 1.2335 0.75935 1.2335zm0-0.24448c-0.27781 0-0.46302-0.29633-0.46302-0.98901 0-0.69268 0.18521-0.9742 0.46302-0.9742 0.27411 0 0.45932 0.28152 0.45932 0.9742 0 0.69268-0.18521 0.98901-0.45932 0.98901z"/>
  </g>
  <g aria-label="8000">
   <path d="m2.1177 17.782c0-0.21484 0.14076-0.38894 0.32967-0.51488 0.34078 0.13706 0.64082 0.24818 0.64082 0.55192 0 0.24448-0.18891 0.41487-0.46302 0.41487-0.28893 0-0.50747-0.18891-0.50747-0.45191zm0.66675-0.65564c-0.28522-0.11112-0.54451-0.22966-0.54451-0.51118 0-0.22966 0.16298-0.38153 0.38153-0.38153 0.25929 0 0.41116 0.18521 0.41116 0.41857 0 0.1741-0.0889 0.33338-0.24818 0.47413zm-0.94086 0.68527c0 0.37412 0.32967 0.64823 0.77417 0.64823 0.45932 0 0.76306-0.27781 0.76306-0.62971 0-0.31856-0.20003-0.48525-0.41116-0.60748v-0.01482c0.14446-0.11113 0.32597-0.32226 0.32597-0.57044 0-0.36671-0.25559-0.62971-0.66675-0.62971-0.38153 0-0.67045 0.24448-0.67045 0.60748 0 0.24818 0.15558 0.42228 0.32967 0.54451v0.01482c-0.22225 0.11853-0.4445 0.32967-0.4445 0.63712z"/>
   <path d="m4.4517 18.459c0.47043 0 0.75565-0.4408 0.75565-1.2335 0-0.79269-0.28522-1.2187-0.75565-1.2187-0.47413 0-0.75935 0.42598-0.75935 1.2187 0 0.79269 0.28522 1.2335 0.75935 1.2335zm0-0.24448c-0.27781 0-0.46302-0.29633-0.46302-0.98901 0-0.69268 0.18521-0.9742 0.46302-0.9742 0.27411 0 0.45932 0.28152 0.45932 0.9742 0 0.69268-0.18521 0.98901-0.45932 0.98901z"/>
   <path d="m6.2893 18.459c0.47043 0 0.75565-0.4408 0.75565-1.2335 0-0.79269-0.28522-1.2187-0.75565-1.2187-0.47413 0-0.75935 0.42598-0.75935 1.2187 0 0.79269 0.28522 1.2335 0.75935 1.2335zm0-0.24448c-0.27781 0-0.46302-0.29633-0.46302-0.98901 0-0.69268 0.18521-0.9742 0.46302-0.9742 0.27411 0 0.45932 0.28152 0.45932 0.9742 0 0.69268-0.18521 0.98901-0.45932 0.98901z"/>
   <path d="m8.1269 18.459c0.47043 0 0.75565-0.4408 0.75565-1.2335 0-0.79269-0.28522-1.2187-0.75565-1.2187-0.47413 0-0.75935 0.42598-0.75935 1.2187 0 0.79269 0.28522 1.2335 0.75935 1.2335zm0-0.24448c-0.27781 0-0.46302-0.29633-0.46302-0.98901 0-0.69268 0.18521-0.9742 0.46302-0.9742 0.27411 0 0.45932 0.28152 0.45932 0.9742 0 0.69268-0.18521 0.98901-0.45932 0.98901z"/>
  </g>
  <g aria-label="9000">
   <path d="m2.5622 11.975c-0.29263 0-0.43709-0.19262-0.43709-0.50006 0-0.31115 0.1815-0.51858 0.41116-0.51858 0.30004 0 0.48154 0.24448 0.52229 0.70379-0.15928 0.22595-0.34449 0.31485-0.49636 0.31485zm-0.68157 0.94456c0.12965 0.14076 0.31856 0.24818 0.57044 0.24818 0.47043 0 0.90011-0.36671 0.90011-1.315 0-0.75936-0.34819-1.1372-0.81492-1.1372-0.37783 0-0.69638 0.30745-0.69638 0.75936 0 0.48525 0.263 0.72972 0.67045 0.72972 0.19632 0 0.40746-0.11483 0.55563-0.30374-0.011113 0.75565-0.29263 1.0149-0.626 1.0149-0.14817 0-0.29263-0.07408-0.38894-0.18891z"/>
   <path d="m4.4517 13.168c0.47043 0 0.75565-0.4408 0.75565-1.2335 0-0.79269-0.28522-1.2187-0.75565-1.2187-0.47413 0-0.75935 0.42598-0.75935 1.2187 0 0.79269 0.28522 1.2335 0.75935 1.2335zm0-0.24448c-0.27781 0-0.46302-0.29633-0.46302-0.98901 0-0.69268 0.18521-0.9742 0.46302-0.9742 0.27411 0 0.45932 0.28152 0.45932 0.9742 0 0.69268-0.18521 0.98901-0.45932 0.98901z"/>
   <path d="m6.2893 13.168c0.47043 0 0.75565-0.4408 0.75565-1.2335 0-0.79269-0.28522-1.2187-0.75565-1.2187-0.47413 0-0.75935 0.42598-0.75935 1.2187 0 0.79269 0.28522 1.2335 0.75935 1.2335zm0-0.24448c-0.27781 0-0.46302-0.29633-0.46302-0.98901 0-0.69268 0.18521-0.9742 0.46302-0.9742 0.27411 0 0.45932 0.28152 0.45932 0.9742 0 0.69268-0.18521 0.98901-0.45932 0.98901z"/>
   <path d="m8.1269 13.168c0.47043 0 0.75565-0.4408 0.75565-1.2335 0-0.79269-0.28522-1.2187-0.75565-1.2187-0.47413 0-0.75935 0.42598-0.75935 1.2187 0 0.79269 0.28522 1.2335 0.75935 1.2335zm0-0.24448c-0.27781 0-0.46302-0.29633-0.46302-0.98901 0-0.69268 0.18521-0.9742 0.46302-0.9742 0.27411 0 0.45932 0.28152 0.45932 0.9742 0 0.69268-0.18521 0.98901-0.45932 0.98901z"/>
  </g>
  <g aria-label="10000">
   <path d="m0.13229 7.8317h1.3335v-0.25188h-0.48895v-2.1114h-0.23336c-0.12965 0.077788-0.28522 0.13705-0.50006 0.1741v0.19632h0.42968v1.741h-0.54081z"/>
   <path d="m2.5996 7.8761c0.47043 0 0.75565-0.4408 0.75565-1.2335 0-0.79269-0.28522-1.2187-0.75565-1.2187-0.47413 0-0.75935 0.42598-0.75935 1.2187 0 0.79269 0.28522 1.2335 0.75935 1.2335zm0-0.24448c-0.27781 0-0.46302-0.29633-0.46302-0.98901s0.18521-0.9742 0.46302-0.9742c0.27411 0 0.45932 0.28152 0.45932 0.9742s-0.18521 0.98901-0.45932 0.98901z"/>
   <path d="m4.4372 7.8761c0.47043 0 0.75565-0.4408 0.75565-1.2335 0-0.79269-0.28522-1.2187-0.75565-1.2187-0.47413 0-0.75935 0.42598-0.75935 1.2187 0 0.79269 0.28522 1.2335 0.75935 1.2335zm0-0.24448c-0.27781 0-0.46302-0.29633-0.46302-0.98901s0.18521-0.9742 0.46302-0.9742c0.27411 0 0.45932 0.28152 0.45932 0.9742s-0.18521 0.98901-0.45932 0.98901z"/>
   <path d="m6.2748 7.8761c0.47043 0 0.75565-0.4408 0.75565-1.2335 0-0.79269-0.28522-1.2187-0.75565-1.2187-0.47413 0-0.75935 0.42598-0.75935 1.2187 0 0.79269 0.28522 1.2335 0.75935 1.2335zm0-0.24448c-0.27781 0-0.46302-0.29633-0.46302-0.98901s0.18521-0.9742 0.46302-0.9742c0.27411 0 0.45932 0.28152 0.45932 0.9742s-0.18521 0.98901-0.45932 0.98901z"/>
   <path d="m8.1125 7.8761c0.47043 0 0.75565-0.4408 0.75565-1.2335 0-0.79269-0.28522-1.2187-0.75565-1.2187-0.47413 0-0.75935 0.42598-0.75935 1.2187 0 0.79269 0.28522 1.2335 0.75935 1.2335zm0-0.24448c-0.27781 0-0.46302-0.29633-0.46302-0.98901s0.18521-0.9742 0.46302-0.9742c0.27411 0 0.45932 0.28152 0.45932 0.9742s-0.18521 0.98901-0.45932 0.98901z"/>
  </g>
  <g aria-label="2020">
   <path d="m143.92 67.363h1.5261v-0.263h-0.68527c-0.12224 0-0.2667 0.01111-0.39635 0.02223 0.55933-0.58526 0.96309-1.0261 0.96309-1.4706 0-0.41857-0.27041-0.69638-0.7075-0.69638-0.30745 0-0.51858 0.14446-0.7149 0.3593l0.17409 0.1741c0.13706-0.15928 0.30745-0.28522 0.50377-0.28522 0.30004 0 0.4482 0.19262 0.4482 0.46302 0 0.38153-0.40005 0.80751-1.1112 1.515z"/>
   <path d="m146.53 67.407c0.47043 0 0.75565-0.4408 0.75565-1.2335s-0.28522-1.2187-0.75565-1.2187c-0.47413 0-0.75936 0.42598-0.75936 1.2187s0.28523 1.2335 0.75936 1.2335zm0-0.24448c-0.27781 0-0.46302-0.29633-0.46302-0.98901s0.18521-0.9742 0.46302-0.9742c0.27411 0 0.45932 0.28152 0.45932 0.9742s-0.18521 0.98901-0.45932 0.98901z"/>
   <path d="m147.6 67.363h1.5261v-0.263h-0.68527c-0.12224 0-0.2667 0.01111-0.39635 0.02223 0.55933-0.58526 0.96309-1.0261 0.96309-1.4706 0-0.41857-0.27041-0.69638-0.7075-0.69638-0.30744 0-0.51858 0.14446-0.7149 0.3593l0.17409 0.1741c0.13706-0.15928 0.30745-0.28522 0.50377-0.28522 0.30004 0 0.4482 0.19262 0.4482 0.46302 0 0.38153-0.40005 0.80751-1.1112 1.515z"/>
   <path d="m150.21 67.407c0.47043 0 0.75565-0.4408 0.75565-1.2335s-0.28522-1.2187-0.75565-1.2187c-0.47413 0-0.75935 0.42598-0.75935 1.2187s0.28522 1.2335 0.75935 1.2335zm0-0.24448c-0.27781 0-0.46302-0.29633-0.46302-0.98901s0.18521-0.9742 0.46302-0.9742c0.27411 0 0.45932 0.28152 0.45932 0.9742s-0.18521 0.98901-0.45932 0.98901z"/>
  </g>
 </g>
 <g fill="#2f3744" stroke="#535e70" stroke-dashoffset="1.2" stroke-linecap="round" stroke-miterlimit="40">
  <path d="m152.87 1.5089v60.59" stroke-width=".13229"/>
  <path d="m150.23 1.5089v57.944" stroke-width=".066146"/>
  <g stroke-width=".033073">
   <path d="m149.17 1.5089v57.944"/>
   <path d="m148.11 1.5089v57.944"/>
   <path d="m148.64 1.5089v57.944"/>
   <path d="m149.7 1.5089v57.944"/>
   <path d="m151.82 1.5089v57.944"/>
   <path d="m150.76 1.5089v57.944"/>
   <path d="m151.29 1.5089v57.944"/>
   <path d="m152.34 1.5089v57.944"/>
  </g>
 </g>
 <g>
  <g fill="#e8eaec" stroke-linecap="round" stroke-width=".26458" aria-label="11000">
   <path d="m0.13229 2.54h1.3335v-0.25188h-0.48895v-2.1114h-0.23336c-0.12965 0.077788-0.28522 0.13705-0.50006 0.1741v0.19632h0.42968v1.741h-0.54081z"/>
   <path d="m1.9699 2.54h1.3335v-0.25188h-0.48895v-2.1114h-0.23336c-0.12965 0.077788-0.28522 0.13705-0.50006 0.1741v0.19632h0.42968v1.741h-0.54081z"/>
   <path d="m4.4372 2.5845c0.47043 0 0.75565-0.4408 0.75565-1.2335 0-0.79269-0.28522-1.2187-0.75565-1.2187-0.47413 0-0.75935 0.42598-0.75935 1.2187 0 0.79269 0.28522 1.2335 0.75935 1.2335zm0-0.24448c-0.27781 0-0.46302-0.29633-0.46302-0.98901 0-0.69268 0.18521-0.9742 0.46302-0.9742 0.27411 0 0.45932 0.28152 0.45932 0.9742 0 0.69268-0.18521 0.98901-0.45932 0.98901z"/>
   <path d="m6.2748 2.5845c0.47043 0 0.75565-0.4408 0.75565-1.2335 0-0.79269-0.28522-1.2187-0.75565-1.2187-0.47413 0-0.75935 0.42598-0.75935 1.2187 0 0.79269 0.28522 1.2335 0.75935 1.2335zm0-0.24448c-0.27781 0-0.46302-0.29633-0.46302-0.98901 0-0.69268 0.18521-0.9742 0.46302-0.9742 0.27411 0 0.45932 0.28152 0.45932 0.9742 0 0.69268-0.18521 0.98901-0.45932 0.98901z"/>
   <path d="m8.1125 2.5845c0.47043 0 0.75565-0.4408 0.75565-1.2335 0-0.79269-0.28522-1.2187-0.75565-1.2187-0.47413 0-0.75935 0.42598-0.75935 1.2187 0 0.79269 0.28522 1.2335 0.75935 1.2335zm0-0.24448c-0.27781 0-0.46302-0.29633-0.46302-0.98901 0-0.69268 0.18521-0.9742 0.46302-0.9742 0.27411 0 0.45932 0.28152 0.45932 0.9742 0 0.69268-0.18521 0.98901-0.45932 0.98901z"/>
  </g>
  <rect x="142.24" y="5.3931" width="10.583" height="54.287" fill="#fbb227" style="paint-order:normal"/>
  <path d="m12.512 59.585h140.23" fill="#d2d6dc" stroke="#d2d6dc" stroke-dashoffset="1.2" stroke-linecap="round" stroke-miterlimit="40" stroke-width=".52917"/>
 </g>
</svg>
