<?xml version="1.0" encoding="UTF-8"?>
<svg width="639.79" height="277.35" version="1.1" viewBox="0 0 169.28 73.384" xmlns="http://www.w3.org/2000/svg" xmlns:cc="http://creativecommons.org/ns#" xmlns:dc="http://purl.org/dc/elements/1.1/" xmlns:rdf="http://www.w3.org/1999/02/22-rdf-syntax-ns#">
 <metadata>
  <rdf:RDF>
   <cc:Work rdf:about="">
    <dc:format>image/svg+xml</dc:format>
    <dc:type rdf:resource="http://purl.org/dc/dcmitype/StillImage"/>
    <dc:title/>
   </cc:Work>
  </rdf:RDF>
 </metadata>
 <rect x="-.00027066" y="1.409" width="169.28" height="70.533" fill="#1d232d" style="paint-order:normal"/>
 <g transform="matrix(7.2628 0 0 7.2628 -684.21 -699.12)" fill="#7b8694" stroke-width=".13769">
  <path d="m94.596 96.26h1.1654v0.19408h-1.1654z"/>
  <path d="m96.538 96.26h1.1654v0.19408h-1.1654z"/>
  <path d="m98.481 96.26h1.1654v0.19408h-1.1654z"/>
  <path d="m100.42 96.26h1.1654v0.19408h-1.1654z"/>
  <path d="m102.37 96.26h1.1654v0.19408h-1.1654z"/>
  <path d="m104.31 96.26h1.1654v0.19408h-1.1654z"/>
  <path d="m106.25 96.26h1.1654v0.19408h-1.1654z"/>
  <path d="m108.19 96.26h1.1654v0.19408h-1.1654z"/>
  <path d="m110.13 96.26h1.1654v0.19408h-1.1654z"/>
  <path d="m112.08 96.26h1.1654v0.19408h-1.1654z"/>
  <path d="m114.02 96.26h1.1654v0.19408h-1.1654z"/>
  <path d="m115.96 96.26h1.1654v0.19408h-1.1654z"/>
  <path d="m115.96 106.17h1.1654v0.19405h-1.1654z"/>
  <path d="m114.02 106.17h1.1654v0.19405h-1.1654z"/>
  <path d="m112.08 106.17h1.1654v0.19405h-1.1654z"/>
  <path d="m110.13 106.17h1.1654v0.19405h-1.1654z"/>
  <path d="m108.19 106.17h1.1654v0.19405h-1.1654z"/>
  <path d="m106.25 106.17h1.1654v0.19405h-1.1654z"/>
  <path d="m104.31 106.17h1.1654v0.19405h-1.1654z"/>
  <path d="m102.37 106.17h1.1654v0.19405h-1.1654z"/>
  <path d="m100.42 106.17h1.1654v0.19405h-1.1654z"/>
  <path d="m98.481 106.17h1.1654v0.19405h-1.1654z"/>
  <path d="m96.538 106.17h1.1654v0.19405h-1.1654z"/>
  <path d="m94.596 106.17h1.1654v0.19405h-1.1654z"/>
 </g>
 <g fill="#fbb227">
  <rect x="85.175" y="34.669" width="4.8202" height="4.8975" rx="0" ry="4.8577e-7"/>
  <rect x="80.277" y="34.669" width="4.8202" height="4.8975" rx="0" ry="4.8577e-7"/>
  <rect x="80.277" y="29.771" width="4.8202" height="4.8975" rx="0" ry="4.8577e-7"/>
  <rect x="85.175" y="29.771" width="4.8202" height="4.8975" rx="0" ry="4.8577e-7"/>
  <rect x="90.072" y="29.771" width="4.8202" height="4.8975" rx="0" ry="4.8577e-7"/>
  <rect x="90.072" y="34.669" width="4.8202" height="4.8975" rx="0" ry="4.8577e-7"/>
  <rect x="90.072" y="39.566" width="4.8202" height="4.8975" rx="0" ry="4.8577e-7"/>
  <rect x="85.175" y="39.566" width="4.8202" height="4.8975" rx="0" ry="4.8577e-7"/>
  <rect x="80.277" y="39.566" width="4.8202" height="4.8975" rx="0" ry="4.8577e-7"/>
  <rect x="75.38" y="39.566" width="4.8202" height="4.8975" rx="0" ry="4.8577e-7"/>
  <rect x="75.38" y="34.669" width="4.8202" height="4.8975" rx="0" ry="4.8577e-7"/>
  <rect x="75.38" y="29.771" width="4.8202" height="4.8975" rx="0" ry="4.8577e-7"/>
  <rect x="75.38" y="24.874" width="4.8202" height="4.8975" rx="0" ry="4.8577e-7"/>
  <rect x="80.277" y="24.874" width="4.8202" height="4.8975" rx="0" ry="4.8577e-7"/>
  <rect x="85.175" y="24.874" width="4.8202" height="4.8975" rx="0" ry="4.8577e-7"/>
  <rect x="90.072" y="24.874" width="4.8202" height="4.8975" rx="0" ry="4.8577e-7"/>
  <rect x="94.97" y="29.771" width="4.8202" height="4.8975" rx="0" ry="4.8577e-7"/>
  <rect x="94.97" y="34.669" width="4.8202" height="4.8975" rx="0" ry="4.8577e-7"/>
 </g>
 <rect x="94.97" y="44.464" width="4.8202" height="4.8975" rx="0" ry="4.8577e-7" fill="#ffd179"/>
 <rect x="90.072" y="44.464" width="4.8202" height="4.8975" rx="0" ry="4.8577e-7" fill="#ffd179"/>
 <g fill="#fbb227">
  <rect x="85.175" y="44.464" width="4.8202" height="4.8975" rx="0" ry="4.8577e-7"/>
  <rect x="80.277" y="44.464" width="4.8202" height="4.8975" rx="0" ry="4.8577e-7"/>
  <rect x="70.482" y="39.566" width="4.8202" height="4.8975" rx="0" ry="4.8577e-7"/>
 </g>
 <rect x="65.585" y="39.566" width="4.8202" height="4.8975" rx="0" ry="4.8577e-7" fill="#ffd179"/>
 <g fill="#fbb227">
  <rect x="65.585" y="34.669" width="4.8202" height="4.8975" rx="0" ry="4.8577e-7"/>
  <rect x="70.482" y="34.669" width="4.8202" height="4.8975" rx="0" ry="4.8577e-7"/>
  <rect x="70.482" y="29.771" width="4.8202" height="4.8975" rx="0" ry="4.8577e-7"/>
  <rect x="65.585" y="29.771" width="4.8202" height="4.8975" rx="0" ry="4.8577e-7"/>
  <rect x="70.482" y="24.874" width="4.8202" height="4.8975" rx="0" ry="4.8577e-7"/>
 </g>
 <g fill="#ffd179">
  <rect x="94.97" y="39.566" width="4.8202" height="4.8975" rx="0" ry="4.8577e-7"/>
  <rect x="99.867" y="39.566" width="4.8202" height="4.8975" rx="0" ry="4.8577e-7"/>
  <rect x="99.867" y="44.464" width="4.8202" height="4.8975" rx="0" ry="4.8577e-7"/>
  <rect x="94.97" y="49.361" width="4.8202" height="4.8975" rx="0" ry="4.8577e-7"/>
  <rect x="90.072" y="49.361" width="4.8202" height="4.8975" rx="0" ry="4.8577e-7"/>
  <rect x="85.175" y="49.361" width="4.8202" height="4.8975" rx="0" ry="4.8577e-7"/>
  <rect x="80.277" y="49.361" width="4.8202" height="4.8975" rx="0" ry="4.8577e-7"/>
  <rect x="75.38" y="49.361" width="4.8202" height="4.8975" rx="0" ry="4.8577e-7"/>
  <rect x="75.38" y="44.464" width="4.8202" height="4.8975" rx="0" ry="4.8577e-7"/>
  <rect x="70.482" y="44.464" width="4.8202" height="4.8975" rx="0" ry="4.8577e-7"/>
  <rect x="65.585" y="44.464" width="4.8202" height="4.8975" rx="0" ry="4.8577e-7"/>
  <rect x="70.482" y="49.361" width="4.8202" height="4.8975" rx="0" ry="4.8577e-7"/>
  <rect x="80.277" y="54.259" width="4.8202" height="4.8975" rx="0" ry="4.8577e-7"/>
  <rect x="85.175" y="54.259" width="4.8202" height="4.8975" rx="0" ry="4.8577e-7"/>
  <rect x="90.072" y="54.259" width="4.8202" height="4.8975" rx="0" ry="4.8577e-7"/>
  <rect x="104.76" y="39.566" width="4.8202" height="4.8975" rx="0" ry="4.8577e-7"/>
  <rect x="104.76" y="34.669" width="4.8202" height="4.8975" rx="0" ry="4.8577e-7"/>
  <rect x="99.867" y="34.669" width="4.8202" height="4.8975" rx="0" ry="4.8577e-7"/>
  <rect x="99.867" y="29.771" width="4.8202" height="4.8975" rx="0" ry="4.8577e-7"/>
  <rect x="99.867" y="24.874" width="4.8202" height="4.8975" rx="0" ry="4.8577e-7"/>
  <rect x="94.97" y="24.874" width="4.8202" height="4.8975" rx="0" ry="4.8577e-7"/>
  <rect x="94.97" y="19.976" width="4.8202" height="4.8975" rx="0" ry="4.8577e-7"/>
  <rect x="90.072" y="19.976" width="4.8202" height="4.8975" rx="0" ry="4.8577e-7"/>
  <rect x="85.175" y="19.976" width="4.8202" height="4.8975" rx="0" ry="4.8577e-7"/>
  <rect x="85.175" y="15.078" width="4.8202" height="4.8975" rx="0" ry="4.8577e-7"/>
  <rect x="80.277" y="15.078" width="4.8202" height="4.8975" rx="0" ry="4.8577e-7"/>
  <rect x="80.277" y="19.976" width="4.8202" height="4.8975" rx="0" ry="4.8577e-7"/>
  <rect x="75.38" y="19.976" width="4.8202" height="4.8975" rx="0" ry="4.8577e-7"/>
  <rect x="70.482" y="19.976" width="4.8202" height="4.8975" rx="0" ry="4.8577e-7"/>
  <rect x="65.585" y="24.874" width="4.8202" height="4.8975" rx="0" ry="4.8577e-7"/>
  <rect x="65.585" y="19.976" width="4.8202" height="4.8975" rx="0" ry="4.8577e-7"/>
  <rect x="60.694" y="29.841" width="4.8202" height="4.8975" rx="0" ry="4.8577e-7"/>
  <rect x="60.694" y="34.773" width="4.8202" height="4.8975" rx="0" ry="4.8577e-7"/>
  <rect x="60.694" y="39.706" width="4.8202" height="4.8975" rx="0" ry="4.8577e-7"/>
  <rect x="75.38" y="15.099" width="4.8202" height="4.8975" rx="0" ry="4.8577e-7"/>
 </g>
</svg>
