<?xml version="1.0" encoding="UTF-8"?>
<svg width="76.861mm" height="29.236mm" version="1.1" viewBox="0 0 76.861 29.236" xmlns="http://www.w3.org/2000/svg" xmlns:cc="http://creativecommons.org/ns#" xmlns:dc="http://purl.org/dc/elements/1.1/" xmlns:rdf="http://www.w3.org/1999/02/22-rdf-syntax-ns#">
 <metadata>
  <rdf:RDF>
   <cc:Work rdf:about="">
    <dc:format>image/svg+xml</dc:format>
    <dc:type rdf:resource="http://purl.org/dc/dcmitype/StillImage"/>
    <dc:title/>
   </cc:Work>
  </rdf:RDF>
 </metadata>
 <g fill="#ff867f" stroke="#7b8694" stroke-linecap="square" stroke-width=".13229">
  <path d="m0.19844 0.066147h34.131"/>
  <path d="m0.066146 29.17v-29.104"/>
  <path d="m42.399 29.17v-29.104"/>
 </g>
 <g fill="#1d232d">
  <rect x="2.712" y="2.712" width="2.6458" height="2.6458" rx="0" ry="0"/>
  <rect x="5.3578" y="2.712" width="2.6458" height="2.6458" rx="0" ry="0"/>
  <rect x="8.0036" y="2.712" width="2.6458" height="2.6458" rx="0" ry="0"/>
  <rect x="10.649" y="2.712" width="2.6458" height="2.6458" rx="0" ry="0"/>
  <rect x="13.295" y="2.712" width="2.6458" height="2.6458" rx="0" ry="0"/>
  <rect x="15.941" y="2.712" width="2.6458" height="2.6458" rx="0" ry="0"/>
  <rect x="18.587" y="2.712" width="2.6458" height="2.6458" rx="0" ry="0"/>
  <rect x="21.233" y="2.712" width="2.6458" height="2.6458" rx="0" ry="0"/>
  <rect x="23.879" y="2.712" width="2.6458" height="2.6458" rx="0" ry="0"/>
  <rect x="26.524" y="2.712" width="2.6458" height="2.6458" rx="0" ry="0"/>
  <rect x="31.816" y="2.712" width="2.6458" height="2.6458" rx="0" ry="0"/>
  <rect x="29.17" y="2.712" width="2.6458" height="2.6458" rx="0" ry="0"/>
  <rect x="2.712" y="5.3578" width="2.6458" height="2.6458" rx="0" ry="0"/>
  <rect x="5.3578" y="5.3578" width="2.6458" height="2.6458" rx="0" ry="0"/>
  <rect x="8.0036" y="5.3578" width="2.6458" height="2.6458" rx="0" ry="0"/>
  <rect x="10.649" y="5.3578" width="2.6458" height="2.6458" rx="0" ry="0"/>
  <rect x="13.295" y="5.3578" width="2.6458" height="2.6458" rx="0" ry="0"/>
  <rect x="15.941" y="5.3578" width="2.6458" height="2.6458" rx="0" ry="0"/>
  <rect x="18.587" y="5.3578" width="2.6458" height="2.6458" rx="0" ry="0"/>
  <rect x="21.233" y="5.3578" width="2.6458" height="2.6458" rx="0" ry="0"/>
  <rect x="23.879" y="5.3578" width="2.6458" height="2.6458" rx="0" ry="0"/>
  <rect x="26.524" y="5.3578" width="2.6458" height="2.6458" rx="0" ry="0"/>
  <rect x="29.17" y="5.3578" width="2.6458" height="2.6458" rx="0" ry="0"/>
  <rect x="2.712" y="8.0036" width="2.6458" height="2.6458" rx="0" ry="0"/>
  <rect x="5.3578" y="8.0036" width="2.6458" height="2.6458" rx="0" ry="0"/>
  <rect x="8.0036" y="8.0036" width="2.6458" height="2.6458" rx="0" ry="0"/>
  <rect x="10.649" y="8.0036" width="2.6458" height="2.6458" rx="0" ry="0"/>
  <rect x="13.295" y="8.0036" width="2.6458" height="2.6458" rx="0" ry="0"/>
  <rect x="15.941" y="8.0036" width="2.6458" height="2.6458" rx="0" ry="0"/>
  <rect x=".066145" y=".066146" width="2.6458" height="2.6458" rx="0" ry="0"/>
  <rect x="18.587" y="8.0036" width="2.6458" height="2.6458" rx="0" ry="0"/>
  <rect x="21.233" y="8.0036" width="2.6458" height="2.6458" rx="0" ry="0"/>
  <rect x="2.712" y=".066146" width="2.6458" height="2.6458" rx="0" ry="0"/>
  <rect x="23.879" y="8.0036" width="2.6458" height="2.6458" rx="0" ry="0"/>
  <rect x="5.3578" y=".066146" width="2.6458" height="2.6458" rx="0" ry="0"/>
  <rect x="26.524" y="8.0036" width="2.6458" height="2.6458" rx="0" ry="0"/>
  <rect x="8.0036" y=".066146" width="2.6458" height="2.6458" rx="0" ry="0"/>
  <rect x="29.17" y="8.0036" width="2.6458" height="2.6458" rx="0" ry="0"/>
  <rect x="10.649" y=".066146" width="2.6458" height="2.6458" rx="0" ry="0"/>
  <rect x="2.712" y="10.649" width="2.6458" height="2.6458" rx="0" ry="0"/>
  <rect x="13.295" y=".066146" width="2.6458" height="2.6458" rx="0" ry="0"/>
 </g>
 <g>
  <rect x="5.3578" y="10.649" width="2.6458" height="2.6458" rx="0" ry="0" fill="#a96f00"/>
  <rect x="15.941" y=".066146" width="2.6458" height="2.6458" rx="0" ry="0" fill="#1d232d"/>
  <rect x="8.0036" y="10.649" width="2.6458" height="2.6458" rx="0" ry="0" fill="#a96f00"/>
  <rect x="18.587" y=".066146" width="2.6458" height="2.6458" rx="0" ry="0" fill="#1d232d"/>
  <rect x="10.649" y="10.649" width="2.6458" height="2.6458" rx="0" ry="0" fill="#a96f00"/>
 </g>
 <g fill="#1d232d">
  <rect x="21.233" y=".066146" width="2.6458" height="2.6458" rx="0" ry="0"/>
  <rect x="13.295" y="10.649" width="2.6458" height="2.6458" rx="0" ry="0"/>
  <rect x="23.879" y=".066146" width="2.6458" height="2.6458" rx="0" ry="0"/>
 </g>
 <g>
  <rect x="15.941" y="10.649" width="2.6458" height="2.6458" rx="0" ry="0" fill="#a96f00"/>
  <rect x="26.524" y=".066146" width="2.6458" height="2.6458" rx="0" ry="0" fill="#1d232d"/>
  <rect x="18.587" y="10.649" width="2.6458" height="2.6458" rx="0" ry="0" fill="#a96f00"/>
  <rect x="29.17" y=".066146" width="2.6458" height="2.6458" rx="0" ry="0" fill="#1d232d"/>
  <rect x="21.233" y="10.649" width="2.6458" height="2.6458" rx="0" ry="0" fill="#a96f00"/>
 </g>
 <g fill="#1d232d">
  <rect x="31.816" y=".066146" width="2.6458" height="2.6458" rx="0" ry="0"/>
  <rect x="23.879" y="10.649" width="2.6458" height="2.6458" rx="0" ry="0"/>
  <rect x=".066145" y="2.712" width="2.6458" height="2.6458" rx="0" ry="0"/>
  <rect x="26.524" y="10.649" width="2.6458" height="2.6458" rx="0" ry="0"/>
  <rect x=".066145" y="5.3578" width="2.6458" height="2.6458" rx="0" ry="0"/>
  <rect x="29.17" y="10.649" width="2.6458" height="2.6458" rx="0" ry="0"/>
  <rect x="31.816" y="5.3578" width="2.6458" height="2.6458" rx="0" ry="0"/>
 </g>
 <g>
  <rect x="2.712" y="13.295" width="2.6458" height="2.6458" rx="0" ry="0" fill="#a96f00"/>
  <rect x=".066145" y="8.0036" width="2.6458" height="2.6458" rx="0" ry="0" fill="#1d232d"/>
  <rect x="5.3578" y="13.295" width="2.6458" height="2.6458" rx="0" ry="0" fill="#a96f00"/>
  <rect x="31.816" y="8.0036" width="2.6458" height="2.6458" rx="0" ry="0" fill="#1d232d"/>
  <rect x="8.0036" y="13.295" width="2.6458" height="2.6458" rx="0" ry="0" fill="#a96f00"/>
  <rect x=".066145" y="10.649" width="2.6458" height="2.6458" rx="0" ry="0" fill="#1d232d"/>
  <rect x="10.649" y="13.295" width="2.6458" height="2.6458" rx="0" ry="0" fill="#a96f00"/>
  <rect x="31.816" y="10.649" width="2.6458" height="2.6458" rx="0" ry="0" fill="#1d232d"/>
  <rect x="13.295" y="13.295" width="2.6458" height="2.6458" rx="0" ry="0" fill="#cf2f25"/>
  <rect x=".066145" y="13.295" width="2.6458" height="2.6458" rx="0" ry="0" fill="#1d232d"/>
  <rect x="15.941" y="13.295" width="2.6458" height="2.6458" rx="0" ry="0" fill="#a96f00"/>
  <rect x="31.816" y="13.295" width="2.6458" height="2.6458" rx="0" ry="0" fill="#1d232d"/>
  <rect x="18.587" y="13.295" width="2.6458" height="2.6458" rx="0" ry="0" fill="#a96f00"/>
  <rect x=".066145" y="15.941" width="2.6458" height="2.6458" rx="0" ry="0" fill="#1d232d"/>
  <rect x="21.233" y="13.295" width="2.6458" height="2.6458" rx="0" ry="0" fill="#a96f00"/>
  <rect x="31.816" y="15.941" width="2.6458" height="2.6458" rx="0" ry="0" fill="#1d232d"/>
  <rect x="23.879" y="13.295" width="2.6458" height="2.6458" rx="0" ry="0" fill="#a96f00"/>
 </g>
 <g fill="#1d232d">
  <rect x=".066145" y="18.587" width="2.6458" height="2.6458" rx="0" ry="0"/>
  <rect x="26.524" y="13.295" width="2.6458" height="2.6458" rx="0" ry="0"/>
  <rect x="31.816" y="18.587" width="2.6458" height="2.6458" rx="0" ry="0"/>
  <rect x="29.17" y="13.295" width="2.6458" height="2.6458" rx="0" ry="0"/>
  <rect x=".066145" y="21.233" width="2.6458" height="2.6458" rx="0" ry="0"/>
 </g>
 <g>
  <rect x="2.712" y="15.941" width="2.6458" height="2.6458" rx="0" ry="0" fill="#a96f00"/>
  <rect x="31.816" y="21.233" width="2.6458" height="2.6458" rx="0" ry="0" fill="#1d232d"/>
  <rect x="5.3578" y="15.941" width="2.6458" height="2.6458" rx="0" ry="0" fill="#a96f00"/>
 </g>
 <g fill="#1d232d">
  <rect x=".066145" y="23.879" width="2.6458" height="2.6458" rx="0" ry="0"/>
  <rect x="8.0036" y="15.941" width="2.6458" height="2.6458" rx="0" ry="0"/>
  <rect x="31.816" y="23.879" width="2.6458" height="2.6458" rx="0" ry="0"/>
 </g>
 <g>
  <rect x="10.649" y="15.941" width="2.6458" height="2.6458" rx="0" ry="0" fill="#a96f00"/>
  <rect x=".066145" y="26.524" width="2.6458" height="2.6458" rx="0" ry="0" fill="#1d232d"/>
  <rect x="13.295" y="15.941" width="2.6458" height="2.6458" rx="0" ry="0" fill="#cf2f25"/>
  <rect x="2.712" y="26.524" width="2.6458" height="2.6458" rx="0" ry="0" fill="#1d232d"/>
  <rect x="15.941" y="15.941" width="2.6458" height="2.6458" rx="0" ry="0" fill="#a96f00"/>
 </g>
 <g fill="#1d232d">
  <rect x="5.3578" y="26.524" width="2.6458" height="2.6458" rx="0" ry="0"/>
  <rect x="18.587" y="15.941" width="2.6458" height="2.6458" rx="0" ry="0"/>
  <rect x="8.0036" y="26.524" width="2.6458" height="2.6458" rx="0" ry="0"/>
 </g>
 <g>
  <rect x="21.233" y="15.941" width="2.6458" height="2.6458" rx="0" ry="0" fill="#a96f00"/>
  <rect x="10.649" y="26.524" width="2.6458" height="2.6458" rx="0" ry="0" fill="#1d232d"/>
  <rect x="23.879" y="15.941" width="2.6458" height="2.6458" rx="0" ry="0" fill="#a96f00"/>
 </g>
 <g fill="#1d232d">
  <rect x="13.295" y="26.524" width="2.6458" height="2.6458" rx="0" ry="0"/>
  <rect x="26.524" y="15.941" width="2.6458" height="2.6458" rx="0" ry="0"/>
  <rect x="15.941" y="26.524" width="2.6458" height="2.6458" rx="0" ry="0"/>
  <rect x="29.17" y="15.941" width="2.6458" height="2.6458" rx="0" ry="0"/>
  <rect x="18.587" y="26.524" width="2.6458" height="2.6458" rx="0" ry="0"/>
 </g>
 <g>
  <rect x="2.712" y="18.587" width="2.6458" height="2.6458" rx="0" ry="0" fill="#a96f00"/>
  <rect x="21.233" y="26.524" width="2.6458" height="2.6458" rx="0" ry="0" fill="#1d232d"/>
  <rect x="5.3578" y="18.587" width="2.6458" height="2.6458" rx="0" ry="0" fill="#a96f00"/>
  <rect x="23.879" y="26.524" width="2.6458" height="2.6458" rx="0" ry="0" fill="#1d232d"/>
  <rect x="8.0036" y="18.587" width="2.6458" height="2.6458" rx="0" ry="0" fill="#a96f00"/>
  <rect x="26.524" y="26.524" width="2.6458" height="2.6458" rx="0" ry="0" fill="#1d232d"/>
  <rect x="10.649" y="18.587" width="2.6458" height="2.6458" rx="0" ry="0" fill="#a96f00"/>
  <rect x="29.17" y="26.524" width="2.6458" height="2.6458" rx="0" ry="0" fill="#1d232d"/>
  <rect x="13.295" y="18.587" width="2.6458" height="2.6458" rx="0" ry="0" fill="#cf2f25"/>
  <rect x="31.816" y="26.524" width="2.6458" height="2.6458" rx="0" ry="0" fill="#1d232d"/>
 </g>
 <g fill="#a96f00">
  <rect x="15.941" y="18.587" width="2.6458" height="2.6458" rx="0" ry="0"/>
  <rect x="18.587" y="18.587" width="2.6458" height="2.6458" rx="0" ry="0"/>
  <rect x="21.233" y="18.587" width="2.6458" height="2.6458" rx="0" ry="0"/>
  <rect x="23.879" y="18.587" width="2.6458" height="2.6458" rx="0" ry="0"/>
 </g>
 <g fill="#1d232d">
  <rect x="26.524" y="18.587" width="2.6458" height="2.6458" rx="0" ry="0"/>
  <rect x="29.17" y="18.587" width="2.6458" height="2.6458" rx="0" ry="0"/>
  <rect x="2.712" y="21.233" width="2.6458" height="2.6458" rx="0" ry="0"/>
 </g>
 <g fill="#a96f00">
  <rect x="5.3578" y="21.233" width="2.6458" height="2.6458" rx="0" ry="0"/>
  <rect x="8.0036" y="21.233" width="2.6458" height="2.6458" rx="0" ry="0"/>
  <rect x="10.649" y="21.233" width="2.6458" height="2.6458" rx="0" ry="0"/>
 </g>
 <rect x="13.295" y="21.233" width="2.6458" height="2.6458" rx="0" ry="0" fill="#1d232d"/>
 <g fill="#a96f00">
  <rect x="15.941" y="21.233" width="2.6458" height="2.6458" rx="0" ry="0"/>
  <rect x="18.587" y="21.233" width="2.6458" height="2.6458" rx="0" ry="0"/>
  <rect x="21.233" y="21.233" width="2.6458" height="2.6458" rx="0" ry="0"/>
 </g>
 <g fill="#1d232d">
  <rect x="23.879" y="21.233" width="2.6458" height="2.6458" rx="0" ry="0"/>
  <rect x="26.524" y="21.233" width="2.6458" height="2.6458" rx="0" ry="0"/>
  <rect x="29.17" y="21.233" width="2.6458" height="2.6458" rx="0" ry="0"/>
  <rect x="2.712" y="23.879" width="2.6458" height="2.6458" rx="0" ry="0"/>
  <rect x="5.3578" y="23.879" width="2.6458" height="2.6458" rx="0" ry="0"/>
  <rect x="8.0036" y="23.879" width="2.6458" height="2.6458" rx="0" ry="0"/>
  <rect x="10.649" y="23.879" width="2.6458" height="2.6458" rx="0" ry="0"/>
  <rect x="13.295" y="23.879" width="2.6458" height="2.6458" rx="0" ry="0"/>
  <rect x="15.941" y="23.879" width="2.6458" height="2.6458" rx="0" ry="0"/>
  <rect x="18.587" y="23.879" width="2.6458" height="2.6458" rx="0" ry="0"/>
  <rect x="21.233" y="23.879" width="2.6458" height="2.6458" rx="0" ry="0"/>
  <rect x="23.879" y="23.879" width="2.6458" height="2.6458" rx="0" ry="0"/>
  <rect x="26.524" y="23.879" width="2.6458" height="2.6458" rx="0" ry="0"/>
  <rect x="29.17" y="23.879" width="2.6458" height="2.6458" rx="0" ry="0"/>
 </g>
 <g fill="#ff867f" stroke="#121824" stroke-linecap="square" stroke-width=".13229">
  <path d="m0.19844 2.712h34.131"/>
  <path d="m0.19844 5.3578h34.131"/>
  <path d="m0.19844 8.0036h34.131"/>
  <path d="m0.19844 10.649h34.131"/>
  <path d="m0.19844 13.295h34.131"/>
  <path d="m0.19844 15.941h34.131"/>
  <path d="m0.19844 18.587h34.131"/>
  <path d="m0.19844 21.233h34.131"/>
  <path d="m0.19844 23.879h34.131"/>
  <path d="m2.712 29.17v-29.104"/>
  <path d="m5.3578 29.17v-29.104"/>
  <path d="m8.0036 29.17v-29.104"/>
  <path d="m10.649 29.17v-29.104"/>
  <path d="m13.295 29.17v-29.104"/>
  <path d="m15.941 29.17v-29.104"/>
  <path d="m18.587 29.17v-29.104"/>
  <path d="m21.233 29.17v-29.104"/>
  <path d="m23.879 29.17v-29.104"/>
  <path d="m26.524 29.17v-29.104"/>
  <path d="m29.17 29.17v-29.104"/>
  <path d="m31.816 29.17v-29.104"/>
  <path d="m34.462 29.17v-29.104"/>
  <path d="m0.19844 26.524h34.131"/>
  <path d="m0.19844 29.17h34.131"/>
 </g>
 <g transform="matrix(.019134 0 0 -.019134 -6.6734 17.093)">
  <rect x="1085" y="789.36" width="16" height="84" fill="#fbb227"/>
  <rect x="1128" y="789.36" width="16" height="84" fill="#fbb227"/>
  <rect x="1101" y="793.86" width="27" height="76" fill="#444"/>
  <rect x="1111" y="772.36" width="8" height="49" fill="#fbb227"/>
  <rect x="1101" y="816.36" width="27" height="32" fill="#231e11"/>
 </g>
 <g>
  <path d="m19.972 18.261 0.26905-0.01411v-0.24844l0.12718-0.18042 0.18337 0.10056 0.18928-0.3904-0.07394-0.02959 0.13014-0.38745-0.39636-0.35801-0.0058-0.11225h-0.95396l-0.0058 0.11225-0.39636 0.35801 0.13013 0.38745-0.07394 0.02959 0.18929 0.3904 0.18337-0.10056 0.12718 0.18042v0.24844l0.269 0.01411z" fill="#5d5d5d" fill-rule="evenodd"/>
  <rect transform="rotate(90)" x="15.662" y="-20.067" width="2.2448" height=".30167" fill="#c2c2c2"/>
  <path d="m9.396 18.261 0.26905-0.01411v-0.24844l0.12718-0.18042 0.18337 0.10056 0.18928-0.3904-0.07394-0.02959 0.13014-0.38745-0.39636-0.35801-0.0059-0.11225h-0.95395l-0.0059 0.11225-0.39636 0.35801 0.13013 0.38745-0.07394 0.02959 0.18928 0.3904 0.18337-0.10056 0.12718 0.18042v0.24844l0.269 0.01411z" fill="#5d5d5d" fill-rule="evenodd"/>
  <rect transform="rotate(90)" x="15.662" y="-9.4908" width="2.2448" height=".30167" fill="#c2c2c2"/>
 </g>
 <g stroke-linecap="square">
  <circle cx="9.3266" cy="17.264" r="6.6146" fill="none" stroke="#c2c2c2" stroke-dasharray="0.529167, 0.529167" stroke-width=".26458"/>
  <circle cx="19.91" cy="17.264" r="6.6146" fill="none" stroke="#c2c2c2" stroke-dasharray="0.529167, 0.529167" stroke-width=".26458"/>
  <path d="m42.532 0.066147h34.131" fill="#ff867f" stroke="#7b8694" stroke-width=".13229"/>
 </g>
 <g fill="#1d232d">
  <rect x="45.045" y="2.712" width="2.6458" height="2.6458" rx="0" ry="0"/>
  <rect x="47.691" y="2.712" width="2.6458" height="2.6458" rx="0" ry="0"/>
  <rect x="50.337" y="2.712" width="2.6458" height="2.6458" rx="0" ry="0"/>
  <rect x="52.983" y="2.712" width="2.6458" height="2.6458" rx="0" ry="0"/>
  <rect x="55.629" y="2.712" width="2.6458" height="2.6458" rx="0" ry="0"/>
  <rect x="58.274" y="2.712" width="2.6458" height="2.6458" rx="0" ry="0"/>
  <rect x="60.92" y="2.712" width="2.6458" height="2.6458" rx="0" ry="0"/>
  <rect x="63.566" y="2.712" width="2.6458" height="2.6458" rx="0" ry="0"/>
  <rect x="66.212" y="2.712" width="2.6458" height="2.6458" rx="0" ry="0"/>
  <rect x="68.858" y="2.712" width="2.6458" height="2.6458" rx="0" ry="0"/>
  <rect x="74.149" y="2.712" width="2.6458" height="2.6458" rx="0" ry="0"/>
  <rect x="71.504" y="2.712" width="2.6458" height="2.6458" rx="0" ry="0"/>
  <rect x="45.045" y="5.3578" width="2.6458" height="2.6458" rx="0" ry="0"/>
  <rect x="47.691" y="5.3578" width="2.6458" height="2.6458" rx="0" ry="0"/>
  <rect x="50.337" y="5.3578" width="2.6458" height="2.6458" rx="0" ry="0"/>
  <rect x="52.983" y="5.3578" width="2.6458" height="2.6458" rx="0" ry="0"/>
  <rect x="55.629" y="5.3578" width="2.6458" height="2.6458" rx="0" ry="0"/>
  <rect x="58.274" y="5.3578" width="2.6458" height="2.6458" rx="0" ry="0"/>
  <rect x="60.92" y="5.3578" width="2.6458" height="2.6458" rx="0" ry="0"/>
  <rect x="63.566" y="5.3578" width="2.6458" height="2.6458" rx="0" ry="0"/>
  <rect x="66.212" y="5.3578" width="2.6458" height="2.6458" rx="0" ry="0"/>
  <rect x="68.858" y="5.3578" width="2.6458" height="2.6458" rx="0" ry="0"/>
  <rect x="71.504" y="5.3578" width="2.6458" height="2.6458" rx="0" ry="0"/>
  <rect x="45.045" y="8.0036" width="2.6458" height="2.6458" rx="0" ry="0"/>
  <rect x="47.691" y="8.0036" width="2.6458" height="2.6458" rx="0" ry="0"/>
  <rect x="50.337" y="8.0036" width="2.6458" height="2.6458" rx="0" ry="0"/>
  <rect x="52.983" y="8.0036" width="2.6458" height="2.6458" rx="0" ry="0"/>
  <rect x="55.629" y="8.0036" width="2.6458" height="2.6458" rx="0" ry="0"/>
  <rect x="58.274" y="8.0036" width="2.6458" height="2.6458" rx="0" ry="0"/>
  <rect x="42.399" y=".066146" width="2.6458" height="2.6458" rx="0" ry="0"/>
  <rect x="60.92" y="8.0036" width="2.6458" height="2.6458" rx="0" ry="0"/>
  <rect x="63.566" y="8.0036" width="2.6458" height="2.6458" rx="0" ry="0"/>
  <rect x="45.045" y=".066146" width="2.6458" height="2.6458" rx="0" ry="0"/>
  <rect x="66.212" y="8.0036" width="2.6458" height="2.6458" rx="0" ry="0"/>
  <rect x="47.691" y=".066146" width="2.6458" height="2.6458" rx="0" ry="0"/>
  <rect x="68.858" y="8.0036" width="2.6458" height="2.6458" rx="0" ry="0"/>
  <rect x="50.337" y=".066146" width="2.6458" height="2.6458" rx="0" ry="0"/>
  <rect x="71.504" y="8.0036" width="2.6458" height="2.6458" rx="0" ry="0"/>
  <rect x="52.983" y=".066146" width="2.6458" height="2.6458" rx="0" ry="0"/>
  <rect x="45.045" y="10.649" width="2.6458" height="2.6458" rx="0" ry="0"/>
  <rect x="55.629" y=".066146" width="2.6458" height="2.6458" rx="0" ry="0"/>
 </g>
 <g>
  <rect x="47.691" y="10.649" width="2.6458" height="2.6458" rx="0" ry="0" fill="#a96f00"/>
  <rect x="58.274" y=".066146" width="2.6458" height="2.6458" rx="0" ry="0" fill="#1d232d"/>
  <rect x="50.337" y="10.649" width="2.6458" height="2.6458" rx="0" ry="0" fill="#a96f00"/>
  <rect x="60.92" y=".066146" width="2.6458" height="2.6458" rx="0" ry="0" fill="#1d232d"/>
  <rect x="52.983" y="10.649" width="2.6458" height="2.6458" rx="0" ry="0" fill="#a96f00"/>
 </g>
 <g fill="#1d232d">
  <rect x="63.566" y=".066146" width="2.6458" height="2.6458" rx="0" ry="0"/>
  <rect x="55.629" y="10.649" width="2.6458" height="2.6458" rx="0" ry="0"/>
  <rect x="66.212" y=".066146" width="2.6458" height="2.6458" rx="0" ry="0"/>
 </g>
 <g>
  <rect x="58.274" y="10.649" width="2.6458" height="2.6458" rx="0" ry="0" fill="#a96f00"/>
  <rect x="68.858" y=".066146" width="2.6458" height="2.6458" rx="0" ry="0" fill="#1d232d"/>
  <rect x="60.92" y="10.649" width="2.6458" height="2.6458" rx="0" ry="0" fill="#a96f00"/>
  <rect x="71.504" y=".066146" width="2.6458" height="2.6458" rx="0" ry="0" fill="#1d232d"/>
  <rect x="63.566" y="10.649" width="2.6458" height="2.6458" rx="0" ry="0" fill="#a96f00"/>
 </g>
 <g fill="#1d232d">
  <rect x="74.149" y=".066146" width="2.6458" height="2.6458" rx="0" ry="0"/>
  <rect x="66.212" y="10.649" width="2.6458" height="2.6458" rx="0" ry="0"/>
  <rect x="42.399" y="2.712" width="2.6458" height="2.6458" rx="0" ry="0"/>
  <rect x="68.858" y="10.649" width="2.6458" height="2.6458" rx="0" ry="0"/>
  <rect x="42.399" y="5.3578" width="2.6458" height="2.6458" rx="0" ry="0"/>
  <rect x="71.504" y="10.649" width="2.6458" height="2.6458" rx="0" ry="0"/>
  <rect x="74.149" y="5.3578" width="2.6458" height="2.6458" rx="0" ry="0"/>
 </g>
 <g>
  <rect x="45.045" y="13.295" width="2.6458" height="2.6458" rx="0" ry="0" fill="#a96f00"/>
  <rect x="42.399" y="8.0036" width="2.6458" height="2.6458" rx="0" ry="0" fill="#1d232d"/>
  <rect x="47.691" y="13.295" width="2.6458" height="2.6458" rx="0" ry="0" fill="#a96f00"/>
  <rect x="74.149" y="8.0036" width="2.6458" height="2.6458" rx="0" ry="0" fill="#1d232d"/>
  <rect x="50.337" y="13.295" width="2.6458" height="2.6458" rx="0" ry="0" fill="#a96f00"/>
  <rect x="42.399" y="10.649" width="2.6458" height="2.6458" rx="0" ry="0" fill="#1d232d"/>
  <rect x="52.983" y="13.295" width="2.6458" height="2.6458" rx="0" ry="0" fill="#a96f00"/>
  <rect x="74.149" y="10.649" width="2.6458" height="2.6458" rx="0" ry="0" fill="#1d232d"/>
  <rect x="55.629" y="13.295" width="2.6458" height="2.6458" rx="0" ry="0" fill="#cf2f25"/>
  <rect x="42.399" y="13.295" width="2.6458" height="2.6458" rx="0" ry="0" fill="#1d232d"/>
  <rect x="58.274" y="13.295" width="2.6458" height="2.6458" rx="0" ry="0" fill="#a96f00"/>
  <rect x="74.149" y="13.295" width="2.6458" height="2.6458" rx="0" ry="0" fill="#1d232d"/>
  <rect x="60.92" y="13.295" width="2.6458" height="2.6458" rx="0" ry="0" fill="#a96f00"/>
  <rect x="42.399" y="15.941" width="2.6458" height="2.6458" rx="0" ry="0" fill="#1d232d"/>
  <rect x="63.566" y="13.295" width="2.6458" height="2.6458" rx="0" ry="0" fill="#a96f00"/>
  <rect x="74.149" y="15.941" width="2.6458" height="2.6458" rx="0" ry="0" fill="#1d232d"/>
  <rect x="66.212" y="13.295" width="2.6458" height="2.6458" rx="0" ry="0" fill="#a96f00"/>
 </g>
 <g fill="#1d232d">
  <rect x="42.399" y="18.587" width="2.6458" height="2.6458" rx="0" ry="0"/>
  <rect x="68.858" y="13.295" width="2.6458" height="2.6458" rx="0" ry="0"/>
  <rect x="74.149" y="18.587" width="2.6458" height="2.6458" rx="0" ry="0"/>
  <rect x="71.504" y="13.295" width="2.6458" height="2.6458" rx="0" ry="0"/>
  <rect x="42.399" y="21.233" width="2.6458" height="2.6458" rx="0" ry="0"/>
 </g>
 <g>
  <rect x="45.045" y="15.941" width="2.6458" height="2.6458" rx="0" ry="0" fill="#a96f00"/>
  <rect x="74.149" y="21.233" width="2.6458" height="2.6458" rx="0" ry="0" fill="#1d232d"/>
  <rect x="47.691" y="15.941" width="2.6458" height="2.6458" rx="0" ry="0" fill="#a96f00"/>
 </g>
 <g fill="#1d232d">
  <rect x="42.399" y="23.879" width="2.6458" height="2.6458" rx="0" ry="0"/>
  <rect x="50.337" y="15.941" width="2.6458" height="2.6458" rx="0" ry="0"/>
  <rect x="74.149" y="23.879" width="2.6458" height="2.6458" rx="0" ry="0"/>
 </g>
 <g>
  <rect x="52.983" y="15.941" width="2.6458" height="2.6458" rx="0" ry="0" fill="#a96f00"/>
  <rect x="42.399" y="26.524" width="2.6458" height="2.6458" rx="0" ry="0" fill="#1d232d"/>
  <rect x="55.629" y="15.941" width="2.6458" height="2.6458" rx="0" ry="0" fill="#cf2f25"/>
  <rect x="45.045" y="26.524" width="2.6458" height="2.6458" rx="0" ry="0" fill="#1d232d"/>
  <rect x="58.274" y="15.941" width="2.6458" height="2.6458" rx="0" ry="0" fill="#a96f00"/>
 </g>
 <g fill="#1d232d">
  <rect x="47.691" y="26.524" width="2.6458" height="2.6458" rx="0" ry="0"/>
  <rect x="60.92" y="15.941" width="2.6458" height="2.6458" rx="0" ry="0"/>
  <rect x="50.337" y="26.524" width="2.6458" height="2.6458" rx="0" ry="0"/>
 </g>
 <g>
  <rect x="63.566" y="15.941" width="2.6458" height="2.6458" rx="0" ry="0" fill="#a96f00"/>
  <rect x="52.983" y="26.524" width="2.6458" height="2.6458" rx="0" ry="0" fill="#1d232d"/>
  <rect x="66.212" y="15.941" width="2.6458" height="2.6458" rx="0" ry="0" fill="#a96f00"/>
 </g>
 <g fill="#1d232d">
  <rect x="55.629" y="26.524" width="2.6458" height="2.6458" rx="0" ry="0"/>
  <rect x="68.858" y="15.941" width="2.6458" height="2.6458" rx="0" ry="0"/>
  <rect x="58.274" y="26.524" width="2.6458" height="2.6458" rx="0" ry="0"/>
  <rect x="71.504" y="15.941" width="2.6458" height="2.6458" rx="0" ry="0"/>
  <rect x="60.92" y="26.524" width="2.6458" height="2.6458" rx="0" ry="0"/>
 </g>
 <g>
  <rect x="45.045" y="18.587" width="2.6458" height="2.6458" rx="0" ry="0" fill="#a96f00"/>
  <rect x="63.566" y="26.524" width="2.6458" height="2.6458" rx="0" ry="0" fill="#1d232d"/>
  <rect x="47.691" y="18.587" width="2.6458" height="2.6458" rx="0" ry="0" fill="#a96f00"/>
  <rect x="66.212" y="26.524" width="2.6458" height="2.6458" rx="0" ry="0" fill="#1d232d"/>
  <rect x="50.337" y="18.587" width="2.6458" height="2.6458" rx="0" ry="0" fill="#a96f00"/>
  <rect x="68.858" y="26.524" width="2.6458" height="2.6458" rx="0" ry="0" fill="#1d232d"/>
  <rect x="52.983" y="18.587" width="2.6458" height="2.6458" rx="0" ry="0" fill="#a96f00"/>
  <rect x="71.504" y="26.524" width="2.6458" height="2.6458" rx="0" ry="0" fill="#1d232d"/>
  <rect x="55.629" y="18.587" width="2.6458" height="2.6458" rx="0" ry="0" fill="#cf2f25"/>
  <rect x="74.149" y="26.524" width="2.6458" height="2.6458" rx="0" ry="0" fill="#1d232d"/>
 </g>
 <g fill="#a96f00">
  <rect x="58.274" y="18.587" width="2.6458" height="2.6458" rx="0" ry="0"/>
  <rect x="60.92" y="18.587" width="2.6458" height="2.6458" rx="0" ry="0"/>
  <rect x="63.566" y="18.587" width="2.6458" height="2.6458" rx="0" ry="0"/>
  <rect x="66.212" y="18.587" width="2.6458" height="2.6458" rx="0" ry="0"/>
 </g>
 <g fill="#1d232d">
  <rect x="68.858" y="18.587" width="2.6458" height="2.6458" rx="0" ry="0"/>
  <rect x="71.504" y="18.587" width="2.6458" height="2.6458" rx="0" ry="0"/>
  <rect x="45.045" y="21.233" width="2.6458" height="2.6458" rx="0" ry="0"/>
 </g>
 <g fill="#a96f00">
  <rect x="47.691" y="21.233" width="2.6458" height="2.6458" rx="0" ry="0"/>
  <rect x="50.337" y="21.233" width="2.6458" height="2.6458" rx="0" ry="0"/>
  <rect x="52.983" y="21.233" width="2.6458" height="2.6458" rx="0" ry="0"/>
 </g>
 <rect x="55.629" y="21.233" width="2.6458" height="2.6458" rx="0" ry="0" fill="#1d232d"/>
 <g fill="#a96f00">
  <rect x="58.274" y="21.233" width="2.6458" height="2.6458" rx="0" ry="0"/>
  <rect x="60.92" y="21.233" width="2.6458" height="2.6458" rx="0" ry="0"/>
  <rect x="63.566" y="21.233" width="2.6458" height="2.6458" rx="0" ry="0"/>
 </g>
 <g fill="#1d232d">
  <rect x="66.212" y="21.233" width="2.6458" height="2.6458" rx="0" ry="0"/>
  <rect x="68.858" y="21.233" width="2.6458" height="2.6458" rx="0" ry="0"/>
  <rect x="71.504" y="21.233" width="2.6458" height="2.6458" rx="0" ry="0"/>
  <rect x="45.045" y="23.879" width="2.6458" height="2.6458" rx="0" ry="0"/>
  <rect x="47.691" y="23.879" width="2.6458" height="2.6458" rx="0" ry="0"/>
  <rect x="50.337" y="23.879" width="2.6458" height="2.6458" rx="0" ry="0"/>
  <rect x="52.983" y="23.879" width="2.6458" height="2.6458" rx="0" ry="0"/>
  <rect x="55.629" y="23.879" width="2.6458" height="2.6458" rx="0" ry="0"/>
  <rect x="58.274" y="23.879" width="2.6458" height="2.6458" rx="0" ry="0"/>
  <rect x="60.92" y="23.879" width="2.6458" height="2.6458" rx="0" ry="0"/>
  <rect x="63.566" y="23.879" width="2.6458" height="2.6458" rx="0" ry="0"/>
  <rect x="66.212" y="23.879" width="2.6458" height="2.6458" rx="0" ry="0"/>
  <rect x="68.858" y="23.879" width="2.6458" height="2.6458" rx="0" ry="0"/>
  <rect x="71.504" y="23.879" width="2.6458" height="2.6458" rx="0" ry="0"/>
 </g>
 <g fill="#ff867f" stroke="#121824" stroke-linecap="square" stroke-width=".13229">
  <path d="m42.532 2.712h34.131"/>
  <path d="m42.532 5.3578h34.131"/>
  <path d="m42.532 8.0036h34.131"/>
  <path d="m42.532 10.649h34.131"/>
  <path d="m42.532 13.295h34.131"/>
  <path d="m42.532 15.941h34.131"/>
  <path d="m42.532 18.587h34.131"/>
  <path d="m42.532 21.233h34.131"/>
  <path d="m42.532 23.879h34.131"/>
  <path d="m45.045 29.17v-29.104"/>
  <path d="m47.691 29.17v-29.104"/>
  <path d="m50.337 29.17v-29.104"/>
  <path d="m52.983 29.17v-29.104"/>
  <path d="m55.629 29.17v-29.104"/>
  <path d="m58.274 29.17v-29.104"/>
  <path d="m60.92 29.17v-29.104"/>
  <path d="m63.566 29.17v-29.104"/>
  <path d="m66.212 29.17v-29.104"/>
  <path d="m68.858 29.17v-29.104"/>
  <path d="m71.504 29.17v-29.104"/>
  <path d="m74.149 29.17v-29.104"/>
  <path d="m76.795 29.17v-29.104"/>
  <path d="m42.532 26.524h34.131"/>
  <path d="m42.532 29.17h34.131"/>
 </g>
 <g transform="matrix(.013317 -.013739 -.013739 -.013317 55.842 29.733)">
  <rect x="1085" y="789.36" width="16" height="84" fill="#fbb227"/>
  <rect x="1128" y="789.36" width="16" height="84" fill="#fbb227"/>
  <rect x="1101" y="793.86" width="27" height="76" fill="#444"/>
  <rect x="1111" y="772.36" width="8" height="49" fill="#fbb227"/>
  <rect x="1101" y="816.36" width="27" height="32" fill="#231e11"/>
 </g>
 <g>
  <path d="m62.305 18.261 0.26905-0.01411v-0.24844l0.12718-0.18042 0.18337 0.10056 0.18928-0.3904-0.07394-0.02959 0.13014-0.38745-0.39636-0.35801-0.0058-0.11225h-0.95396l-0.0058 0.11225-0.39636 0.35801 0.13013 0.38745-0.07394 0.02959 0.18929 0.3904 0.18337-0.10056 0.12718 0.18042v0.24844l0.269 0.01411z" fill="#5d5d5d" fill-rule="evenodd"/>
  <rect transform="rotate(90)" x="15.662" y="-62.4" width="2.2448" height=".30167" fill="#c2c2c2"/>
  <path d="m51.729 18.261 0.26905-0.01411v-0.24844l0.12718-0.18042 0.18337 0.10056 0.18929-0.3904-0.07394-0.02959 0.13014-0.38745-0.39636-0.35801-0.0058-0.11225h-0.95396l-0.0059 0.11225-0.39636 0.35801 0.13013 0.38745-0.07394 0.02959 0.18928 0.3904 0.18337-0.10056 0.12718 0.18042v0.24844l0.269 0.01411z" fill="#5d5d5d" fill-rule="evenodd"/>
  <rect transform="rotate(90)" x="15.662" y="-51.824" width="2.2448" height=".30167" fill="#c2c2c2"/>
 </g>
 <g fill="none" stroke-dasharray="0.529167, 0.529167" stroke-linecap="square" stroke-width=".26458">
  <circle cx="51.66" cy="17.264" r="6.6146" stroke="#c2c2c2"/>
  <circle cx="62.243" cy="17.264" r="6.6146" stroke="#c2c2c2"/>
  <path d="m60.391 4.2995 9.7896 9.2604 0.52917 9.7896-5.0271 3.9688" stroke="#6f8ce9"/>
 </g>
 <g transform="matrix(-.0003778 -.0020843 .00212 -.00038427 65.084 27.905)" fill="#6f8ce9" stroke-width="123.85">
  <g fill="#6f8ce9" stroke-width="123.85">
   <path d="m486.41 221.41-364.07-208.5c-52.938-30.318-95.852-5.44-95.852 55.563v415.65c0 61.004 42.914 85.882 95.852 55.563l364.07-208.49c52.938-30.317 52.938-79.473 0-109.79z" fill="#6f8ce9" stroke-width="123.85"/>
  </g>
 </g>
</svg>
