<?xml version="1.0" encoding="UTF-8"?>
<svg class="animated inactive" width="100.29" height="100.27" enable-background="new 0 0 198.44 105.83" version="1.1" viewBox="0 0 25.976 13.995" xml:space="preserve" xmlns="http://www.w3.org/2000/svg" xmlns:cc="http://creativecommons.org/ns#" xmlns:dc="http://purl.org/dc/elements/1.1/" xmlns:rdf="http://www.w3.org/1999/02/22-rdf-syntax-ns#"><metadata><rdf:RDF><cc:Work rdf:about=""><dc:format>image/svg+xml</dc:format><dc:type rdf:resource="http://purl.org/dc/dcmitype/StillImage"/><dc:title/></cc:Work></rdf:RDF></metadata>
  <filter id="blur-filter" x="-2" y="-2" width="200" height="200">
    <feGaussianBlur in="SourceGraphic" stdDeviation="2"/>
  </filter><rect x=".025901" y="-5.962" width="25.924" height="25.92" fill="#1d232d" stroke="#535e70" stroke-linecap="round" stroke-linejoin="bevel" stroke-width=".051802" style="paint-order:normal"/><g fill="#a96f00"><rect x="23.358" y="4.4059" width="2.5924" height="2.592" style="paint-order:normal"/><rect x="20.765" y="4.4059" width="2.5924" height="2.592" style="paint-order:normal"/><rect x="20.765" y="1.8139" width="2.5924" height="2.592" style="paint-order:normal"/><rect x="18.173" y="1.8139" width="2.5924" height="2.592" style="paint-order:normal"/><rect x="15.58" y="1.8139" width="2.5924" height="2.592" style="paint-order:normal"/><rect x="12.988" y="1.8139" width="2.5924" height="2.592" style="paint-order:normal"/><rect x="12.988" y="-.77807" width="2.5924" height="2.592" style="paint-order:normal"/><rect x="10.396" y="-.77807" width="2.5924" height="2.592" style="paint-order:normal"/><rect x="7.8031" y="-.77807" width="2.5924" height="2.592" style="paint-order:normal"/><rect x="7.8031" y="-3.37" width="2.5924" height="2.592" style="paint-order:normal"/><rect x="5.2107" y="-3.37" width="2.5924" height="2.592" style="paint-order:normal"/><rect x="2.6183" y="-3.37" width="2.5924" height="2.592" style="paint-order:normal"/></g><g fill="none" stroke="#535e70" stroke-width=".051802"><path d="m0.025868-3.37h25.924"/><path d="m0.025868-0.77804h25.924"/><path d="m0.025868 1.8139h25.924"/><path d="m0.025868 4.4059h25.924"/><path d="m0.025868 6.9979h25.924"/><path d="m0.025868 9.5899h25.924"/><path d="m0.025868 12.182h25.924"/><path d="m0.025868 14.774h25.924"/><path d="m0.025868 17.366h25.924"/><path d="m23.358-5.962v25.92"/><path d="m20.765-5.962v25.92"/><path d="m18.173-5.962v25.92"/><path d="m15.58-5.962v25.92"/><path d="m12.988-5.962v25.92"/><path d="m10.396-5.962v25.92"/><path d="m7.8031-5.962v25.92"/><path d="m5.2107-5.962v25.92"/><path d="m2.6183-5.962v25.92"/></g><g fill="#535e70"><rect x="18.173" y="4.4059" width="2.5924" height="2.592" style="paint-order:normal"/><rect x="18.173" y="6.9979" width="2.5924" height="2.592" style="paint-order:normal"/><rect x="18.173" y="9.5898" width="2.5924" height="2.592" style="paint-order:normal"/><rect x="18.173" y="12.182" width="2.5924" height="2.592" style="paint-order:normal"/><rect x="18.173" y="14.774" width="2.5924" height="2.592" style="paint-order:normal"/><rect x="18.173" y="17.366" width="2.5924" height="2.592" style="paint-order:normal"/></g><path d="m2.6183-3.37 23.332 9.8495" fill="none" stroke="#ffd179" stroke-width=".1036"/><ellipse cx="2.6183" cy="-3.37" rx="1.037" ry="1.0368" fill="#e9e56f" style="paint-order:normal"/><g fill="#ffd179"><ellipse cx="5.2107" cy="-2.276" rx=".26492" ry=".26488" style="paint-order:normal"/><ellipse cx="7.8031" cy="-1.1987" rx=".26492" ry=".26488" style="paint-order:normal"/><ellipse cx="10.396" cy="-.072782" rx=".26492" ry=".26488" style="paint-order:normal"/><ellipse cx="12.988" cy="1.0126" rx=".26492" ry=".26488" style="paint-order:normal"/><ellipse cx="14.838" cy="1.8088" rx=".26492" ry=".26488" style="paint-order:normal"/><ellipse cx="15.582" cy="2.1324" rx=".26492" ry=".26488" style="paint-order:normal"/><ellipse cx="18.175" cy="3.1978" rx=".26492" ry=".26488" style="paint-order:normal"/><ellipse cx="20.767" cy="4.3091" rx=".26492" ry=".26488" style="paint-order:normal"/><ellipse cx="20.991" cy="4.4237" rx=".26492" ry=".26488" style="paint-order:normal"/><ellipse cx="23.358" cy="5.3918" rx=".26492" ry=".26488" style="paint-order:normal"/></g><rect x=".025901" y="-5.962" width="25.924" height="25.92" fill="none" stroke="#e8eaec" stroke-linecap="round" stroke-linejoin="bevel" stroke-width=".051802" style="paint-order:normal"/></svg>
