<?xml version="1.0" encoding="UTF-8"?>
<svg class="animated inactive" width="100.29" height="100.27" enable-background="new 0 0 198.44 105.83" version="1.1" viewBox="0 0 25.976 13.995" xml:space="preserve" xmlns="http://www.w3.org/2000/svg" xmlns:cc="http://creativecommons.org/ns#" xmlns:dc="http://purl.org/dc/elements/1.1/" xmlns:rdf="http://www.w3.org/1999/02/22-rdf-syntax-ns#"><metadata><rdf:RDF><cc:Work rdf:about=""><dc:format>image/svg+xml</dc:format><dc:type rdf:resource="http://purl.org/dc/dcmitype/StillImage"/><dc:title/></cc:Work></rdf:RDF></metadata>
  <filter id="blur-filter" x="-2" y="-2" width="200" height="200">
    <feGaussianBlur in="SourceGraphic" stdDeviation="2"/>
  </filter><rect x=".025901" y="-5.962" width="25.924" height="25.92" fill="#1d232d" stroke="#535e70" stroke-linecap="round" stroke-linejoin="bevel" stroke-width=".051802" style="paint-order:normal"/><path d="m18.173 19.958-15.555-23.328 23.332 1.0368v22.291z" fill="#a96f00"/><g fill="none" stroke="#ffd179" stroke-width=".051802"><path d="m2.6183-3.3701 16.073 23.328"/><path d="m19.21 19.958-16.591-23.328"/><path d="m19.728 19.958-17.11-23.328"/><path d="m20.247 19.958-17.628-23.328"/><path d="m20.765 19.958-18.147-23.328"/><path d="m21.284 19.958-18.665-23.328"/><path d="m21.802 19.958-19.184-23.328"/><path d="m22.321 19.958-19.702-23.328"/><path d="m22.839 19.958-20.221-23.328"/><path d="m23.358 19.958-20.739-23.328"/><path d="m23.876 19.958-21.258-23.328"/><path d="m24.395 19.958-21.776-23.328"/><path d="m24.913 19.958-22.295-23.328"/><path d="m25.432 19.958-22.813-23.328"/><path d="m25.95 19.958-23.332-23.328"/><path d="m25.95 19.439-23.332-22.809"/><path d="m25.95 18.921-23.332-22.291"/><path d="m25.95 18.403-23.332-21.773"/><path d="m25.95 17.884-23.332-21.254"/><path d="m25.95 17.366-23.332-20.736"/><path d="m25.95 16.847-23.332-20.217"/><path d="m25.95 16.329-23.332-19.699"/><path d="m25.95 15.811-23.332-19.181"/><path d="m25.95 15.292-23.332-18.662"/><path d="m25.95 14.774-23.332-18.144"/><path d="m25.95 14.255-23.332-17.625"/><path d="m25.95 13.737-23.332-17.107"/><path d="m25.95 13.219-23.332-16.589"/><path d="m25.95 12.7-23.332-16.07"/><path d="m25.95 12.182-23.332-15.552"/><path d="m25.95 11.663-23.332-15.033"/><path d="m25.95 11.145-23.332-14.515"/><path d="m25.95 10.627-23.332-13.997"/><path d="m25.95 10.108-23.332-13.478"/><path d="m25.95 9.5898-23.332-12.96"/><path d="m25.95 9.0714-23.332-12.441"/><path d="m25.95 8.553-23.332-11.923"/><path d="m25.95 8.0346-23.332-11.405"/><path d="m25.95 7.5162-23.332-10.886"/><path d="m25.95 6.9978-23.332-10.368"/></g><path d="m20.765 19.958v-15.552l5.1848 2.0736v13.478z" fill="#1d232d"/><g fill="none" stroke-width=".051802"><g stroke="#ffd179"><path d="m25.95 6.4794-23.332-9.8495"/><path d="m25.95 5.961-23.332-9.3311"/><path d="m25.95 5.4426-23.332-8.8127"/><path d="m25.95 4.9242-23.332-8.2943"/><path d="m25.95 4.4059-23.332-7.7759"/><path d="m25.95 3.8874-23.332-7.2575"/><path d="m25.95 3.3691-23.332-6.7392"/><path d="m25.95 2.8507-23.332-6.2207"/><path d="m25.95 2.3323-23.332-5.7024"/><path d="m25.95 1.8139-23.332-5.184"/><path d="m25.95 1.2955-23.332-4.6656"/><path d="m25.95 0.77709-23.332-4.1472"/><path d="m25.95 0.25868-23.332-3.6288"/><path d="m25.95-0.2597-23.332-3.1104"/><path d="m25.95-0.77811-23.332-2.592"/><path d="m25.95-1.2965-23.332-2.0736"/><path d="m25.95-1.8149-23.332-1.5552"/><path d="m25.95-2.3333-23.332-1.0368"/></g><g stroke="#535e70"><path d="m0.025869-3.3701h25.924"/><path d="m0.025869-0.77811h25.924"/><path d="m0.025869 1.8139h25.924"/><path d="m0.025869 4.4059h25.924"/><path d="m0.025869 6.9978h25.924"/><path d="m0.025869 9.5898h25.924"/><path d="m0.025869 12.182h25.924"/><path d="m0.025869 14.774h25.924"/><path d="m0.025869 17.366h25.924"/><path d="m23.358-5.9621v25.92"/><path d="m20.765-5.9621v25.92"/><path d="m18.173-5.9621v25.92"/><path d="m15.58-5.9621v25.92"/><path d="m12.988-5.9621v25.92"/><path d="m10.396-5.9621v25.92"/><path d="m7.8031-5.9621v25.92"/><path d="m5.2107-5.9621v25.92"/><path d="m2.6183-5.9621v25.92"/></g></g><g fill="#535e70"><rect x="18.173" y="4.4059" width="2.5924" height="2.592" style="paint-order:normal"/><rect x="18.173" y="6.9978" width="2.5924" height="2.592" style="paint-order:normal"/><rect x="18.173" y="9.5898" width="2.5924" height="2.592" style="paint-order:normal"/><rect x="18.173" y="12.182" width="2.5924" height="2.592" style="paint-order:normal"/><rect x="18.173" y="14.774" width="2.5924" height="2.592" style="paint-order:normal"/><rect x="18.173" y="17.366" width="2.5924" height="2.592" style="paint-order:normal"/></g><ellipse cx="2.6183" cy="-3.3701" rx="1.037" ry="1.0368" fill="#e9e56f" style="paint-order:normal"/><rect x=".025901" y="-5.962" width="25.924" height="25.92" fill="none" stroke="#e8eaec" stroke-linecap="round" stroke-linejoin="bevel" stroke-width=".051802" style="paint-order:normal"/></svg>
