<?xml version="1.0" encoding="UTF-8"?>
<svg class="animated inactive" width="175.82" height="139.6" enable-background="new 0 0 198.44 105.83" version="1.1" viewBox="0 0 45.54 19.485" xml:space="preserve" xmlns="http://www.w3.org/2000/svg" xmlns:cc="http://creativecommons.org/ns#" xmlns:dc="http://purl.org/dc/elements/1.1/" xmlns:rdf="http://www.w3.org/1999/02/22-rdf-syntax-ns#"><metadata><rdf:RDF><cc:Work rdf:about=""><dc:format>image/svg+xml</dc:format><dc:type rdf:resource="http://purl.org/dc/dcmitype/StillImage"/><dc:title/></cc:Work></rdf:RDF></metadata>
  <filter id="blur-filter" x="-2" y="-2" width="200" height="200">
    <feGaussianBlur in="SourceGraphic" stdDeviation="2"/>
  </filter><path d="m1.9446 23.638 12.374-11.561 29.456 4.8337-26.486 10.827z" fill="none" stroke="#535e70" stroke-width=".12951"/><path d="m13.969-4.6928 0.33765 16.731 29.508 4.8099 1.4893-20.116z" fill="none" stroke="#535e70" stroke-width=".12951"/><g transform="matrix(.14016 0 0 .14016 -103.35 -17.393)"><g transform="translate(-10.944 2.2868)"><path d="m909.98 183.95 16.647-8.1536 0.76436 61.662-15.802 25.79-27.618-4.6973z" fill="#1d232d" fill-rule="evenodd"/><path d="m835.61 179.66 32.501-6.5814 58.774 2.548-17.411 8.4933z" fill="#a6aeb8" fill-rule="evenodd"/><path d="m842.11 241.8 65.921 17.579-4.7086-35.707-50.226-1.0987z" fill="#47556e"/><path d="m907.48 237.96-39.553-4.9442v-46.773l37.748 4.9442z" fill="#2b3442"/><path d="m838.5 251.14 30.645-18.05-0.43163-44.811h-27.153z" fill="#1d232d"/><path d="m904.11 250.55-16.755-2.8644 11.379-8.9464 9.8882 1.8049z" fill="#556583"/><path d="m904.72 250.1-16.147-2.7466 10.3-8.1812 10.163 1.9814z" fill="#5a6c8b"/><path d="m905.05 249.75-15.46-2.6095 9.4763-7.6122 9.7704 1.9816z" fill="#607595"/><path d="m905.27 249.5-14.803-2.5409 8.7209-7.1805 9.5446 1.8639z" fill="#677c9d"/><path d="m836.17 179.64 2.0452 71.586 73.028 12.135-0.96131-80.238zm9.8882 11.026 54.586 2.5653 0.7112 59.104-53.791-8.9366z" fill="#2f3744" fill-rule="evenodd"/><path d="m858.09 179.13 16.493-3.3399 29.826 1.293-8.8357 4.3101z" fill="#2a2f34" fill-rule="evenodd"/><path d="m874.6 175.78v4.4671l20.958 1.2142 8.8287-4.3556z" fill="#6b7784"/></g></g><g fill="none"><path d="m11.346 21.971 9.0619-4.5954 1.0461-0.9181" stroke="#e9e56f" stroke-dasharray="0.129507, 0.129507" stroke-width=".12951"/><path d="m1.2854 13.983 15.872 3.0057 0.10557 10.722-15.31-4.0603z" stroke="#535e70" stroke-width=".12951"/><g stroke="#a7a7a7" stroke-width=".028123"><path d="m1.5512 14.054 0.64678 9.7072"/><path d="m2.4751 23.818-0.61845-9.6858"/><path d="m2.1481 14.174 0.60415 9.7356"/><path d="m3.0722 23.988-0.59708-9.7498"/><path d="m2.724 14.288 0.61832 9.7853"/><path d="m3.6195 24.095-0.57574-9.7497"/><path d="m3.3493 14.394 0.59011 9.8279"/><path d="m4.2166 24.322-0.5473-9.8634"/><path d="m3.9465 14.529 0.56864 9.8491"/><path d="m4.8134 24.428-0.5473-9.8492"/><path d="m5.1099 24.533-0.52761-9.9119"/><path d="m4.8687 14.687 0.54274 9.9219"/><path d="m5.6931 24.679-0.51285-9.932"/><path d="m5.5246 14.8 0.49762 9.9721"/><path d="m6.3313 24.842-0.49762-9.9847"/><path d="m6.1428 14.918 0.47962 10.022"/><path d="m6.9316 24.993-0.4748-10.005"/><path d="m6.7912 15.058 0.46964 10.03"/><path d="m7.5424 25.148-0.44457-10.035"/><path d="m7.4357 15.171 0.4304 10.076"/><path d="m8.1895 25.327-0.42825-10.068"/><path d="m8.0878 15.302 0.41445 10.11"/><path d="m8.8257 25.497-0.42382-10.143"/><path d="m8.7412 15.416 0.40691 10.184"/><path d="m17.099 17.031 0.14412 10.712"/><path d="m1.4348 16.55 15.702 3.3278"/><path d="m17.137 20.291-15.698-3.381"/><path d="m1.4819 17.27 15.655 3.424"/><path d="m17.154 21.091-15.66-3.4691"/><path d="m1.5335 17.984 15.626 3.5012"/><path d="m17.159 21.889-15.596-3.5262"/><path d="m1.6021 18.715 15.571 3.5778"/><path d="m17.161 22.692-15.568-3.6333"/><path d="m1.6283 19.423 15.547 3.6634"/><path d="m17.182 23.477-15.533-3.6761"/><path d="m1.6924 20.16 15.488 3.7144"/></g></g><path d="m11.257 21.699 0.02834 0.37435 0.31973 0.07892 6e-3 -0.37435z" fill="#677c9d"/><g fill="none" stroke="#a7a7a7" stroke-width=".028123"><path d="m17.181 24.27-15.483-3.781"/><path d="m1.7252 20.843 15.471 3.8254"/><path d="m17.202 25.041-15.464-3.8304"/><path d="m1.7768 21.553 15.433 3.8764"/><path d="m17.209 25.814-15.399-3.899"/><path d="m1.8159 22.275 15.401 3.9328"/><path d="m17.217 26.584-15.37-3.9655"/><path d="m1.8783 22.979 15.343 4.0003"/><path d="m17.234 27.347-15.336-4.0288"/></g><g fill="#e9e56f"><g fill-rule="evenodd" stroke="#e9dc6f" stroke-width=".21219px"><path d="m8.171-5.9168-0.91315-2.1229"/><path d="m8.1674-5.9125 1.3841-1.8514"/><path d="m8.1619-5.9136 2.2974 0.2715"/><path d="m8.1601-5.9189 0.91328 2.1229"/><path d="m8.1638-5.9231-1.3842 1.8514"/><path d="m8.1694-5.9221-2.2975-0.2715"/></g><g stroke="#e9dc6f" stroke-width="2.6481"><g transform="matrix(.022573 -.17507 .17529 .022545 -49.111 75.732)"><path d="m501.47 274.25-1.2053 3.2778-1.2053-3.2778c0.71162 0.52365 1.6852 0.52064 2.4106 0z" fill="#e9e56f" fill-rule="evenodd" stroke="#e9dc6f" stroke-linejoin="round" stroke-width=".49652"/></g><g transform="matrix(.023565 -.17494 -.17516 -.023536 42.285 87.8)"><path d="m501.47 274.25-1.2053 3.2778-1.2053-3.2778c0.71162 0.52365 1.6852 0.52064 2.4106 0z" fill="#e9e56f" fill-rule="evenodd" stroke="#e9dc6f" stroke-linejoin="round" stroke-width=".49652"/></g><g transform="matrix(.16139 -.071963 -.072052 -.16118 -53.61 72.424)"><path d="m501.47 274.25-1.2053 3.2778-1.2053-3.2778c0.71162 0.52365 1.6852 0.52064 2.4106 0z" fill="#e9e56f" fill-rule="evenodd" stroke="#e9dc6f" stroke-linejoin="round" stroke-width=".49652"/></g><g transform="matrix(-.16211 .070323 .070411 .16191 70.794 -83.545)"><path d="m501.47 274.25-1.2053 3.2778-1.2053-3.2778c0.71162 0.52365 1.6852 0.52064 2.4106 0z" fill="#e9e56f" fill-rule="evenodd" stroke="#e9dc6f" stroke-linejoin="round" stroke-width=".49652"/></g><g transform="matrix(-.13622 -.11247 -.11261 .13605 105.93 14.711)"><path d="m501.47 274.25-1.2053 3.2778-1.2053-3.2778c0.71162 0.52365 1.6852 0.52064 2.4106 0z" fill="#e9e56f" fill-rule="evenodd" stroke="#e9dc6f" stroke-linejoin="round" stroke-width=".49652"/></g><g transform="matrix(.13622 .11247 .11261 -.13605 -89.583 -26.572)"><path d="m501.47 274.25-1.2053 3.2778-1.2053-3.2778c0.71162 0.52365 1.6852 0.52064 2.4106 0z" fill="#e9e56f" fill-rule="evenodd" stroke="#e9dc6f" stroke-linejoin="round" stroke-width=".49652"/></g></g><circle cx="8.1975" cy="-5.8898" r="1.719" style="paint-order:normal"/></g><g fill="none"><g stroke="#a7a7a7" stroke-width=".028123"><path d="m1.2739 14.327 15.846 3.1067"/><path d="m17.109 17.853-15.819-3.1486"/><path d="m1.3406 15.071 15.772 3.1797"/><path d="m17.109 18.655-15.75-3.2159"/><path d="m1.3877 15.821 15.721 3.2485"/><path d="m17.108 19.489-15.707-3.318"/><path d="m9.4687 25.674-0.39971-10.188"/><path d="m9.3945 15.555 0.36837 10.203"/><path d="m10.083 25.842-0.35433-10.217"/><path d="m10.072 15.696 0.3691 10.241"/><path d="m10.773 26.026-0.36226-10.278"/><path d="m10.731 15.815 0.36695 10.304"/><path d="m11.424 26.2-0.34641-10.309"/><path d="m11.425 15.946 0.3162 10.33"/><path d="m12.065 26.351-0.30046-10.332"/><path d="m12.095 16.074 0.29219 10.38"/><path d="m12.729 26.542-0.26362-10.397"/><path d="m12.815 16.207 0.26098 10.423"/><path d="m13.41 26.714-0.27479-10.445"/><path d="m13.499 16.344 0.24671 10.468"/></g><path d="m1.2934 13.995 12.692-18.696 31.366 1.4853-28.192 20.213z" stroke="#535e70" stroke-width=".12951"/><g stroke="#a7a7a7" stroke-width=".028123"><path d="m14.096 26.905-0.22594-10.488"/><path d="m14.205 16.484 0.2154 10.504"/><path d="m14.768 27.068-0.20579-10.519"/><path d="m14.935 16.625 0.18636 10.55"/><path d="m15.485 27.267-0.18286-10.568"/><path d="m15.626 16.758 0.1789 10.607"/><path d="m16.172 27.454-0.15707-10.616"/><path d="m16.389 16.91 0.13692 10.636"/><path d="m16.873 27.638-0.13883-10.672"/></g><path d="m21.454 15.45-6.3458-2.2178 6.184-2.5416-13.436-16.528" stroke="#e9e56f" stroke-dasharray="0.129507, 0.129507" stroke-width=".12951"/><path d="m0.99182 26.911 10.42-5.0097" stroke="#e9e56f" stroke-dasharray="0.129507, 0.129507" stroke-width=".12951"/></g><path d="m1.2687 25.818c-0.10366 0.01062-0.20128 0.04442-0.2865 0.09923-0.020721 0.01269-0.040251 0.02743-0.05877 0.04287v-0.0026 0.0073c-0.33786 0.51887-0.60402 1.0908-0.92344 1.6668 0.67297-0.03491 1.4322-0.13176 1.9653-0.19589 0.34837-0.22643 0.41385-0.74689 0.14673-1.1652-0.19558-0.30636-0.52601-0.48469-0.83809-0.45252z" fill="#d2d6dc" style="paint-order:normal"/></svg>
