<?xml version="1.0" encoding="UTF-8"?>
<svg width="55.03mm" height="30.315mm" version="1.1" viewBox="0 0 55.03 30.315" xmlns="http://www.w3.org/2000/svg" xmlns:cc="http://creativecommons.org/ns#" xmlns:dc="http://purl.org/dc/elements/1.1/" xmlns:rdf="http://www.w3.org/1999/02/22-rdf-syntax-ns#">
 <metadata>
  <rdf:RDF>
   <cc:Work rdf:about="">
    <dc:format>image/svg+xml</dc:format>
    <dc:type rdf:resource="http://purl.org/dc/dcmitype/StillImage"/>
    <dc:title/>
   </cc:Work>
  </rdf:RDF>
 </metadata>
 <g fill="none" stroke="#e9e56f" stroke-width=".05834">
  <path d="m10.877 4.5712-0.85617-1.9926"/>
  <path d="m10.874 4.5752 1.2976-1.7378"/>
  <path d="m10.868 4.5742 2.1538 0.25479"/>
  <path d="m10.867 4.5692 0.85617 1.9926"/>
  <path d="m10.87 4.5652-1.2976 1.7378"/>
  <path d="m10.875 4.5662-2.1537-0.25482"/>
 </g>
 <g fill="#e8eaec" stroke-width="357.91">
  <g transform="matrix(-.00039824 .00050928 -.00051799 -.00040506 10.279 2.6466)">
   <g fill="#e8eaec" stroke-width="357.91">
    <path d="m486.41 221.41-364.07-208.5c-52.938-30.318-95.852-5.44-95.852 55.563v415.65c0 61.004 42.914 85.882 95.852 55.563l364.07-208.49c52.938-30.317 52.938-79.473 0-109.79z" fill="#e8eaec" stroke-width="357.91"/>
   </g>
  </g>
  <g transform="matrix(.00024192 .00059952 -.00060979 .00024607 8.913 4.1167)">
   <g fill="#e8eaec" stroke-width="357.91">
    <path d="m486.41 221.41-364.07-208.5c-52.938-30.318-95.852-5.44-95.852 55.563v415.65c0 61.004 42.914 85.882 95.852 55.563l364.07-208.49c52.938-30.317 52.938-79.473 0-109.79z" fill="#e8eaec" stroke-width="357.91"/>
   </g>
  </g>
  <g transform="matrix(.00064016 9.025e-5 -9.1796e-5 .00065113 9.5029 6.0351)">
   <g fill="#e8eaec" stroke-width="357.91">
    <path d="m486.41 221.41-364.07-208.5c-52.938-30.318-95.852-5.44-95.852 55.563v415.65c0 61.004 42.914 85.882 95.852 55.563l364.07-208.49c52.938-30.317 52.938-79.473 0-109.79z" fill="#e8eaec" stroke-width="357.91"/>
   </g>
  </g>
  <g transform="matrix(.00039824 -.00050928 .00051799 .00040506 11.459 6.4835)">
   <g fill="#e8eaec" stroke-width="357.91">
    <path d="m486.41 221.41-364.07-208.5c-52.938-30.318-95.852-5.44-95.852 55.563v415.65c0 61.004 42.914 85.882 95.852 55.563l364.07-208.49c52.938-30.317 52.938-79.473 0-109.79z" fill="#e8eaec" stroke-width="357.91"/>
   </g>
  </g>
  <g transform="matrix(-.00024192 -.00059952 .00060979 -.00024607 12.826 5.0134)">
   <g fill="#e8eaec" stroke-width="357.91">
    <path d="m486.41 221.41-364.07-208.5c-52.938-30.318-95.852-5.44-95.852 55.563v415.65c0 61.004 42.914 85.882 95.852 55.563l364.07-208.49c52.938-30.317 52.938-79.473 0-109.79z" fill="#e8eaec" stroke-width="357.91"/>
   </g>
  </g>
  <g transform="matrix(-.00064016 -9.025e-5 9.1796e-5 -.00065113 12.236 3.0949)">
   <g fill="#e8eaec" stroke-width="357.91">
    <path d="m486.41 221.41-364.07-208.5c-52.938-30.318-95.852-5.44-95.852 55.563v415.65c0 61.004 42.914 85.882 95.852 55.563l364.07-208.49c52.938-30.317 52.938-79.473 0-109.79z" fill="#e8eaec" stroke-width="357.91"/>
   </g>
  </g>
 </g>
 <g fill="#2f3744">
  <rect transform="rotate(-45)" x="-11.335" y="22.248" width="9.2604" height="9.2604" rx="0" ry="8.785e-7"/>
  <rect x="41.914" y="20.968" width="9.2604" height="9.2604" rx="0" ry="8.785e-7"/>
  <rect x="23.393" y="2.4475" width="9.2604" height="9.2604" rx="0" ry="8.785e-7"/>
 </g>
 <path d="m0.13229 30.165h54.765" fill="#d2d6dc" stroke="#2f3744" stroke-dashoffset="1.2" stroke-linecap="round" stroke-miterlimit="40" stroke-width=".26458"/>
 <circle cx="10.922" cy="4.5668" r="1.5798" fill="#e9e56f" style="paint-order:normal"/>
 <g fill="none" stroke="#e9e56f" stroke-linecap="round">
  <g stroke-dasharray="0.396875, 0.396875" stroke-width=".13229">
   <path d="m10.957 4.5641-4.2333 25.665"/>
   <path d="m10.693 4.5641 13.494 25.665"/>
   <path d="m11.222 4.5641 30.692 17.992"/>
   <path d="m10.957 4.5641 26.723-4.4979"/>
  </g>
  <g stroke-width=".26458">
   <path d="m7.7822 23.879 6.474-6.6394 6.5154 6.4988"/>
   <path d="m24.174 30.183h17.727v-7.7642"/>
   <path d="m23.355 2.517v9.1673"/>
  </g>
 </g>
</svg>
