<?xml version="1.0" encoding="UTF-8"?>
<svg width="639.79" height="277.35" version="1.1" viewBox="0 0 169.28 73.384" xmlns="http://www.w3.org/2000/svg" xmlns:cc="http://creativecommons.org/ns#" xmlns:dc="http://purl.org/dc/elements/1.1/" xmlns:rdf="http://www.w3.org/1999/02/22-rdf-syntax-ns#">
 <metadata>
  <rdf:RDF>
   <cc:Work rdf:about="">
    <dc:format>image/svg+xml</dc:format>
    <dc:type rdf:resource="http://purl.org/dc/dcmitype/StillImage"/>
    <dc:title/>
   </cc:Work>
  </rdf:RDF>
 </metadata>
 <g transform="translate(-46.992 -.6485)">
  <g transform="matrix(.17143 0 0 .17369 117.82 81.876)" fill="#e8eaec" stroke-linecap="round">
   <g transform="matrix(42.367 0 0 41.814 -4404.4 -4492.7)" stroke-dashoffset="1.2" stroke-linecap="square" stroke-width=".13769">
    <rect x="94.208" y="96.454" width="23.308" height="9.7115" fill="#1d232d" style="paint-order:normal"/>
    <g fill="#7b8694">
     <path d="m94.596 96.26h1.1654v0.19408h-1.1654z"/>
     <path d="m96.538 96.26h1.1654v0.19408h-1.1654z"/>
     <path d="m98.481 96.26h1.1654v0.19408h-1.1654z"/>
     <path d="m100.42 96.26h1.1654v0.19408h-1.1654z"/>
     <path d="m102.37 96.26h1.1654v0.19408h-1.1654z"/>
     <path d="m104.31 96.26h1.1654v0.19408h-1.1654z"/>
     <path d="m106.25 96.26h1.1654v0.19408h-1.1654z"/>
     <path d="m108.19 96.26h1.1654v0.19408h-1.1654z"/>
     <path d="m110.13 96.26h1.1654v0.19408h-1.1654z"/>
     <path d="m112.08 96.26h1.1654v0.19408h-1.1654z"/>
     <path d="m114.02 96.26h1.1654v0.19408h-1.1654z"/>
     <path d="m115.96 96.26h1.1654v0.19408h-1.1654z"/>
     <path d="m115.96 106.17h1.1654v0.19405h-1.1654z"/>
     <path d="m114.02 106.17h1.1654v0.19405h-1.1654z"/>
     <path d="m112.08 106.17h1.1654v0.19405h-1.1654z"/>
     <path d="m110.13 106.17h1.1654v0.19405h-1.1654z"/>
     <path d="m108.19 106.17h1.1654v0.19405h-1.1654z"/>
     <path d="m106.25 106.17h1.1654v0.19405h-1.1654z"/>
     <path d="m104.31 106.17h1.1654v0.19405h-1.1654z"/>
     <path d="m102.37 106.17h1.1654v0.19405h-1.1654z"/>
     <path d="m100.42 106.17h1.1654v0.19405h-1.1654z"/>
     <path d="m98.481 106.17h1.1654v0.19405h-1.1654z"/>
     <path d="m96.538 106.17h1.1654v0.19405h-1.1654z"/>
     <path d="m94.596 106.17h1.1654v0.19405h-1.1654z"/>
    </g>
   </g>
   <g fill="#7b8694" stroke="#a6aeb8" stroke-dashoffset="1.2" stroke-linecap="square" stroke-miterlimit="40" stroke-width=".89951">
    <path d="m-181.23-156.21h524.7"/>
    <path d="m-154.99-389.25v258.93"/>
    <path d="m-102.52-389.25v258.93"/>
    <path d="m-50.053-389.25v258.93"/>
    <path d="m2.4167-389.25v258.93"/>
    <path d="m54.887-389.25v258.93"/>
    <path d="m107.36-389.25v258.93"/>
    <path d="m159.83-389.25v258.93"/>
    <path d="m212.3-389.25v258.93"/>
    <path d="m264.77-389.25v258.93"/>
    <path d="m317.24-389.25v258.93"/>
    <path d="m-181.23-363.35h524.7"/>
    <path d="m-181.23-389.25h524.7"/>
    <path d="m-181.23-337.46h524.7"/>
    <path d="m-181.23-285.68h524.7"/>
    <path d="m-181.23-233.89h524.7"/>
    <path d="m-181.23-182.1h524.7"/>
    <path d="m-181.23-130.32h524.7"/>
    <path d="m-181.23-156.21h524.7"/>
    <path d="m-181.23-208h524.7"/>
    <path d="m-181.23-259.78h524.7"/>
    <path d="m-181.23-311.57h524.7"/>
    <path d="m-181.23-389.25v258.93"/>
    <path d="m-128.76-389.25v258.93"/>
    <path d="m-76.288-389.25v258.93"/>
    <path d="m-23.818-389.25v258.93"/>
    <path d="m28.652-389.25v258.93"/>
    <path d="m81.121-389.25v258.93"/>
    <path d="m133.59-389.25v258.93"/>
    <path d="m186.06-389.25v258.93"/>
    <path d="m238.53-389.25v258.93"/>
    <path d="m291-389.25v258.93"/>
    <path d="m343.47-389.25v258.93"/>
   </g>
   <ellipse cx="23.144" cy="-264.7" rx="89.199" ry="88.036" fill="none" stroke="#fbb227" stroke-linecap="square" stroke-width="2.2488" style="paint-order:normal"/>
   <path d="m137.41-275.06c-0.46402-1.1934 0.74754-6.9473 2.6924-12.786 3.419-10.265 4.5652-11.652 34.627-41.908 17.1-17.21 32.291-31.51 33.758-31.778 6.9115-1.2598 18.713 9.9012 18.728 17.711 3e-3 2.0076-11.309 14.27-31.303 33.931l-31.308 30.787-10.304 2.4779c-5.6672 1.3628-11.596 2.7609-13.175 3.1067-1.5791 0.34552-3.2508-0.34787-3.7148-1.5411zm25.627-9.2354c1.7539-1.1092 15.99-15.196 31.636-31.305 28.377-29.216 28.441-29.298 26.099-33.417-1.2916-2.2711-4.2855-5.2024-6.6532-6.514l-4.3049-2.3848-58.594 57.768 5.5031 4.477c3.0267 2.4624 5.503 5.4818 5.503 6.71 0 3.1303-1.2221 2.8127-6.708-1.7433-2.6333-2.1869-5.5319-3.7314-6.4412-3.4322-2.1194 0.69726-5.9519 11.503-4.5652 12.872 1.5233 1.5035 14.787-0.66635 18.526-3.0306z" fill="#fff" stroke-width=".89951"/>
   <ellipse cx="128.08" cy="-233.63" rx="42.097" ry="41.549" fill="none" stroke="#fbb227" stroke-linecap="square" stroke-width="2.2488" style="paint-order:normal"/>
  </g>
 </g>
</svg>
