<?xml version="1.0" encoding="UTF-8"?>
<svg width="12929" height="2624.6" version="1.1" viewBox="126.44 2.281 3046.2 618.35" xmlns="http://www.w3.org/2000/svg" xmlns:cc="http://creativecommons.org/ns#" xmlns:dc="http://purl.org/dc/elements/1.1/" xmlns:rdf="http://www.w3.org/1999/02/22-rdf-syntax-ns#">
 <metadata>
  <rdf:RDF>
   <cc:Work rdf:about="">
    <dc:format>image/svg+xml</dc:format>
    <dc:type rdf:resource="http://purl.org/dc/dcmitype/StillImage"/>
    <dc:title/>
   </cc:Work>
  </rdf:RDF>
 </metadata>
 <circle cx="420.94" cy="296.78" r="294.5" fill="#2daae1"/>
 <path d="m609.77 179.63c-13.891 6.164-28.811 10.331-44.498 12.204 16.01-9.587 28.275-24.779 34.066-42.86a154.78 154.78 0 0 1-49.209 18.801c-14.125-15.056-34.267-24.456-56.551-24.456-42.773 0-77.462 34.675-77.462 77.473 0 6.064 0.683 11.98 1.996 17.66-64.389-3.236-121.47-34.079-159.68-80.945-6.672 11.446-10.491 24.754-10.491 38.953 0 26.875 13.679 50.587 34.464 64.477a77.122 77.122 0 0 1-35.097-9.686v0.979c0 37.54 26.701 68.842 62.145 75.961-6.511 1.784-13.344 2.716-20.413 2.716-4.998 0-9.847-0.473-14.584-1.364 9.859 30.769 38.471 53.166 72.363 53.799-26.515 20.785-59.925 33.175-96.212 33.175-6.25 0-12.427-0.373-18.491-1.104 34.291 21.988 75.006 34.824 118.76 34.824 142.5 0 220.43-118.05 220.43-220.43 0-3.361-0.074-6.697-0.236-10.021a157.86 157.86 0 0 0 38.707-40.158z" fill="#fff"/>
 <g fill="#2daae1" stroke-opacity=".97255" stroke-width="106.54" aria-label="@eppekci">
  <path d="m893.59 388.8c0 132.39 88.642 203.42 200.01 203.42 39.207 0 75.004-9.0914 107.96-28.979l-12.501-27.843c-25.57 14.774-57.39 25.57-92.051 25.57-96.597 0-169.33-63.072-169.33-173.87 0-132.96 97.733-218.76 198.88-218.76 103.42 0 157.4 67.049 157.4 158.53 0 73.868-40.343 117.62-76.141 117.62-31.252 0-42.048-21.592-30.684-66.481l22.16-113.64h-31.252l-6.2504 22.729h-1.1364c-10.228-18.751-26.138-27.274-45.457-27.274-66.481 0-109.1 71.027-109.1 131.83 0 51.708 29.547 80.118 68.186 80.118 25.001 0 50.571-16.478 69.322-38.639h1.1365c3.9775 28.411 27.842 43.184 58.526 43.184 51.708 0 113.64-51.708 113.64-151.15 0-111.94-71.595-188.08-186.37-188.08-127.28 0-236.95 99.438-236.95 251.72zm150.01 0c0-42.616 27.274-96.597 72.163-96.597 15.342 0 25.57 6.2504 36.366 23.865l-16.478 90.346c-19.319 23.297-36.366 33.525-52.276 33.525-22.729 0-39.775-14.774-39.775-51.139z"/>
  <path d="m1372.4 366.64c0 90.346 58.526 144.33 132.39 144.33 37.502 0 67.049-13.069 90.914-28.411l-16.478-30.684c-20.456 13.069-42.616 21.592-68.754 21.592-52.844 0-88.642-37.502-92.051-97.165h186.37c1.1364-6.8186 1.7047-15.91 1.7047-25.57 0-78.982-39.775-129.55-110.23-129.55-63.072 0-123.87 55.117-123.87 145.46zm45.457-21.024c5.6821-55.685 40.911-87.505 79.55-87.505 43.184 0 68.186 31.252 68.186 87.505z"/>
  <path d="m1720.2 479.15c25.57 19.888 51.139 31.82 76.709 31.82 63.072 0 119.33-55.117 119.33-148.87 0-85.8-38.07-140.92-109.1-140.92-32.388 0-63.072 17.615-88.073 38.639h-1.7047l-3.9775-31.82h-38.639v392.64h46.594v-93.187zm1.1364-36.366v-144.89c27.274-24.433 50.571-37.502 73.868-37.502 52.276 0 72.732 40.911 72.732 101.71 0 68.186-33.525 109.67-78.982 109.67-18.183 0-42.616-7.955-67.618-28.979z"/>
  <path d="m2035.4 479.15c25.57 19.888 51.139 31.82 76.709 31.82 63.072 0 119.33-55.117 119.33-148.87 0-85.8-38.07-140.92-109.1-140.92-32.388 0-63.072 17.615-88.073 38.639h-1.7047l-3.9775-31.82h-38.639v392.64h46.594v-93.187zm1.1364-36.366v-144.89c27.274-24.433 50.571-37.502 73.868-37.502 52.276 0 72.732 40.911 72.732 101.71 0 68.186-33.525 109.67-78.982 109.67-18.183 0-42.616-7.955-67.618-28.979z"/>
  <path d="m2284.6 366.64c0 90.346 58.526 144.33 132.39 144.33 37.502 0 67.049-13.069 90.914-28.411l-16.478-30.684c-20.456 13.069-42.616 21.592-68.754 21.592-52.844 0-88.642-37.502-92.051-97.165h186.37c1.1365-6.8186 1.7047-15.91 1.7047-25.57 0-78.982-39.775-129.55-110.23-129.55-63.072 0-123.87 55.117-123.87 145.46zm45.457-21.024c5.6822-55.685 40.912-87.505 79.55-87.505 43.184 0 68.186 31.252 68.186 87.505z"/>
  <path d="m2587 504.15h46.025v-72.732l51.708-60.231 80.686 132.96h51.139l-105.12-165.35 92.619-110.8h-51.708l-117.62 145.46h-1.7046v-273.88h-46.025z"/>
  <path d="m2837.3 366.64c0 91.483 56.253 144.33 129.55 144.33 32.956 0 64.776-13.637 89.778-35.798l-21.024-30.684c-16.478 14.774-38.639 27.843-64.776 27.843-50.571 0-85.232-42.616-85.232-105.69 0-63.64 36.366-106.82 86.369-106.82 22.16 0 39.207 10.228 55.685 24.433l23.297-30.115c-18.751-17.615-44.321-32.956-80.686-32.956-71.027 0-132.96 52.844-132.96 145.46z"/>
  <path d="m3140.2 171.18c18.183 0 32.388-12.501 32.388-30.115 0-18.183-14.205-30.115-32.388-30.115s-32.388 11.933-32.388 30.115c0 17.615 14.205 30.115 32.388 30.115zm-23.865 332.97h46.594v-276.15h-46.594z"/>
 </g>
</svg>
