<?xml version="1.0" encoding="UTF-8"?>
<svg width="21150" height="2699.1" version="1.1" viewBox="126.44 2.281 4983 635.91" xmlns="http://www.w3.org/2000/svg" xmlns:cc="http://creativecommons.org/ns#" xmlns:dc="http://purl.org/dc/elements/1.1/" xmlns:rdf="http://www.w3.org/1999/02/22-rdf-syntax-ns#">
 <metadata>
  <rdf:RDF>
   <cc:Work rdf:about="">
    <dc:format>image/svg+xml</dc:format>
    <dc:type rdf:resource="http://purl.org/dc/dcmitype/StillImage"/>
    <dc:title/>
   </cc:Work>
  </rdf:RDF>
 </metadata>
 <g fill="#2daae1" stroke-opacity=".97255" stroke-width="112.86" aria-label="Mehmet Ekmekci">
  <path d="m908.8 568.72h46.348v-217.29c0-34.912-3.6116-81.862-6.0192-116.77h2.4077l31.3 87.881 75.843 206.46h28.892l75.843-206.46 31.3-87.881h2.4077c-2.4077 34.912-6.6212 81.862-6.6212 116.77v217.29h47.552v-394.86h-58.989l-75.842 211.88-27.689 80.658h-2.4077l-28.29-80.658-76.444-211.88h-59.591z"/>
  <path d="m1319.1 423.05c0 95.706 61.998 152.89 140.25 152.89 39.727 0 71.027-13.844 96.308-30.096l-17.456-32.504c-21.669 13.844-45.144 22.873-72.833 22.873-55.979 0-93.9-39.727-97.512-102.93h197.43c1.2039-7.2231 1.8058-16.854 1.8058-27.087 0-83.668-42.135-137.24-116.77-137.24-66.814 0-131.22 58.387-131.22 154.09zm48.154-22.271c6.0193-58.989 43.339-92.696 84.27-92.696 45.746 0 72.231 33.106 72.231 92.696z"/>
  <path d="m1639.4 568.72h49.358v-211.88c29.494-29.494 49.96-45.144 80.056-45.144 38.523 0 55.377 23.475 55.377 78.25v178.77h49.358v-185.39c0-74.639-27.688-114.37-89.085-114.37-40.329 0-69.823 21.669-97.512 48.154l1.8058-60.192v-116.77h-49.358z"/>
  <path d="m1967.4 568.72h49.358v-211.88c27.087-30.096 51.766-45.144 73.435-45.144 37.319 0 54.775 23.475 54.775 78.25v178.77h49.358v-211.88c27.087-30.096 50.562-45.144 73.435-45.144 36.717 0 54.173 23.475 54.173 78.25v178.77h49.358v-185.39c0-74.639-28.892-114.37-89.085-114.37-35.514 0-65.61 22.873-96.308 55.979-12.038-34.912-36.116-55.979-80.658-55.979-34.912 0-65.61 21.669-90.891 49.358h-1.8058l-4.2135-42.135h-40.931z"/>
  <path d="m2444.2 423.05c0 95.706 61.998 152.89 140.25 152.89 39.727 0 71.027-13.844 96.308-30.096l-17.456-32.504c-21.669 13.844-45.144 22.873-72.833 22.873-55.979 0-93.9-39.727-97.512-102.93h197.43c1.2038-7.2231 1.8057-16.854 1.8057-27.087 0-83.668-42.135-137.24-116.77-137.24-66.814 0-131.22 58.387-131.22 154.09zm48.154-22.271c6.0193-58.989 43.339-92.696 84.27-92.696 45.746 0 72.231 33.106 72.231 92.696z"/>
  <path d="m2764.7 478.43c0 57.785 21.067 97.512 83.668 97.512 18.058 0 37.921-5.4173 54.173-10.835l-9.6308-37.319c-9.6308 3.6116-22.873 7.825-33.106 7.825-33.708 0-45.144-20.465-45.144-56.581v-162.52h78.852v-40.329h-78.852v-81.862h-41.533l-6.0193 81.862-45.746 3.0096v37.319h43.339z"/>
  <path d="m3083.7 568.72h233.55v-42.737h-182.99v-143.26h149.28v-42.737h-149.28v-124h176.97v-42.135h-227.53z"/>
  <path d="m3394.6 568.72h48.756v-77.046l54.775-63.804 85.473 140.85h54.173l-111.36-175.16 98.114-117.38h-54.775l-124.6 154.09h-1.8058v-290.13h-48.756z"/>
  <path d="m3692 568.72h49.358v-211.88c27.087-30.096 51.766-45.144 73.435-45.144 37.319 0 54.775 23.475 54.775 78.25v178.77h49.358v-211.88c27.087-30.096 50.562-45.144 73.435-45.144 36.717 0 54.173 23.475 54.173 78.25v178.77h49.358v-185.39c0-74.639-28.892-114.37-89.085-114.37-35.514 0-65.61 22.873-96.308 55.979-12.038-34.912-36.116-55.979-80.658-55.979-34.912 0-65.61 21.669-90.891 49.358h-1.8058l-4.2134-42.135h-40.931z"/>
  <path d="m4168.8 423.05c0 95.706 61.998 152.89 140.25 152.89 39.727 0 71.027-13.844 96.308-30.096l-17.456-32.504c-21.669 13.844-45.144 22.873-72.833 22.873-55.979 0-93.9-39.727-97.512-102.93h197.43c1.2038-7.2231 1.8057-16.854 1.8057-27.087 0-83.668-42.135-137.24-116.77-137.24-66.814 0-131.22 58.387-131.22 154.09zm48.154-22.271c6.0193-58.989 43.339-92.696 84.27-92.696 45.746 0 72.231 33.106 72.231 92.696z"/>
  <path d="m4489.1 568.72h48.756v-77.046l54.775-63.804 85.473 140.85h54.173l-111.36-175.16 98.114-117.38h-54.775l-124.6 154.09h-1.8058v-290.13h-48.756z"/>
  <path d="m4754.3 423.05c0 96.91 59.591 152.89 137.24 152.89 34.912 0 68.62-14.446 95.104-37.921l-22.271-32.504c-17.456 15.65-40.931 29.494-68.619 29.494-53.571 0-90.289-45.144-90.289-111.96 0-67.416 38.523-113.16 91.493-113.16 23.475 0 41.533 10.835 58.989 25.883l24.679-31.902c-19.864-18.66-46.95-34.912-85.473-34.912-75.241 0-140.85 55.979-140.85 154.09z"/>
  <path d="m5075.2 215.99c19.262 0 34.31-13.242 34.31-31.902 0-19.262-15.048-31.902-34.31-31.902s-34.31 12.64-34.31 31.902c0 18.66 15.048 31.902 34.31 31.902zm-25.281 352.73h49.358v-292.54h-49.358z"/>
 </g>
 <g transform="matrix(8.8321 0 0 8.8321 126.44 2.281)" fill-rule="evenodd">
  <path d="m8 72h56c4.4183 0 8-3.5817 8-8v-56c0-4.4183-3.5817-8-8-8h-56c-4.4183 0-8 3.5817-8 8v56c0 4.4183 3.5817 8 8 8z" fill="#007ebb"/>
  <path d="m62 62h-10.684v-18.198c0-4.9894-1.8958-7.7776-5.8449-7.7776-4.2961 0-6.5406 2.9016-6.5406 7.7776v18.198h-10.297v-34.667h10.297v4.6696s3.096-5.7287 10.452-5.7287c7.3531 0 12.617 4.4903 12.617 13.777zm-45.651-39.206c-3.5073 0-6.3493-2.8644-6.3493-6.397s2.8421-6.397 6.3493-6.397 6.3477 2.8644 6.3477 6.397-2.8404 6.397-6.3477 6.397zm-5.3168 39.206h10.737v-34.667h-10.737z" fill="#fff"/>
 </g>
</svg>
