<?xml version="1.0" encoding="UTF-8"?>
<svg width="296.86mm" height="180.45mm" version="1.1" viewBox="0 0 296.86 180.45" xmlns="http://www.w3.org/2000/svg" xmlns:cc="http://creativecommons.org/ns#" xmlns:dc="http://purl.org/dc/elements/1.1/" xmlns:rdf="http://www.w3.org/1999/02/22-rdf-syntax-ns#">
 <metadata>
  <rdf:RDF>
   <cc:Work rdf:about="">
    <dc:format>image/svg+xml</dc:format>
    <dc:type rdf:resource="http://purl.org/dc/dcmitype/StillImage"/>
    <dc:title/>
   </cc:Work>
  </rdf:RDF>
 </metadata>
 <g transform="translate(80.514 -51.719)">
  <g fill="#e8eaec" stroke-linecap="round" stroke-width=".46951" aria-label="1. WHO are we  empathizing with?">
   <path d="m0.24716 75.164h2.6556v-0.7822h-0.7822v-3.3917h-0.7099c-0.29579 0.17748-0.58501 0.29579-1.0386 0.38124v0.59816h0.7822v2.4123h-0.90709z"/>
   <path d="m3.6543 74.638c0 0.3418 0.24978 0.60473 0.58501 0.60473s0.58501-0.26293 0.58501-0.60473c0-0.34838-0.24978-0.6113-0.58501-0.6113s-0.58501 0.26293-0.58501 0.6113z"/>
   <path d="m7.4849 75.164h1.1963l0.40754-1.9457c0.065732-0.32866 0.11832-0.67703 0.1709-0.99254h0.026293c0.046012 0.31551 0.10517 0.66389 0.1709 0.99254l0.42068 1.9457h1.216l0.76248-4.2857h-0.92681l-0.29579 2.0048c-0.05916 0.4404-0.11832 0.89395-0.1709 1.3541h-0.02629c-0.085453-0.46012-0.1709-0.92024-0.25636-1.3541l-0.46669-2.0048h-0.82164l-0.46012 2.0048c-0.085451 0.44697-0.1709 0.90052-0.24978 1.3541h-0.026293c-0.059158-0.45355-0.11832-0.9071-0.17748-1.3541l-0.29579-2.0048h-0.99255z"/>
   <path d="m12.444 75.164h0.97283v-1.7879h1.479v1.7879h0.96625v-4.2857h-0.96625v1.6499h-1.479v-1.6499h-0.97283z"/>
   <path d="m18.603 75.242c1.1569 0 1.9457-0.84136 1.9457-2.2414 0-1.3935-0.78878-2.202-1.9457-2.202-1.1503 0-1.9457 0.80192-1.9457 2.202s0.79535 2.2414 1.9457 2.2414zm0-0.83479c-0.57844 0-0.95311-0.54557-0.95311-1.4067 0-0.85451 0.37467-1.3672 0.95311-1.3672 0.58501 0 0.95311 0.51271 0.95311 1.3672 0 0.86108-0.3681 1.4067-0.95311 1.4067z"/>
   <path d="m22.537 74.257c0 0.55214 0.37467 0.98597 0.96625 0.98597 0.3681 0 0.67704-0.1709 0.95311-0.41411h0.01972l0.0723 0.33523h0.78878v-1.8668c0-0.99912-0.46012-1.4724-1.2949-1.4724-0.51271 0-0.9794 0.17748-1.3935 0.42726l0.3418 0.6376c0.31551-0.18405 0.59158-0.29579 0.86766-0.29579 0.34838 0 0.49299 0.18405 0.5127 0.47327-1.2883 0.13146-1.8339 0.50613-1.8339 1.1897zm0.92024-0.07231c0-0.24978 0.22349-0.44697 0.91367-0.539v0.57186c-0.1709 0.1709-0.31551 0.27607-0.539 0.27607-0.23006 0-0.37467-0.0986-0.37467-0.30894z"/>
   <path d="m26.16 75.164h0.96625v-1.8931c0.1709-0.4404 0.47327-0.59816 0.71647-0.59816 0.13804 0 0.23663 0.01972 0.35495 0.05258l0.15776-0.83479c-0.09202-0.03944-0.20377-0.06573-0.38782-0.06573-0.33523 0-0.69018 0.21034-0.92681 0.65074h-0.02629l-0.06573-0.57186h-0.78878z"/>
   <path d="m28.524 73.533c0 1.078 0.71647 1.709 1.6499 1.709 0.38782 0 0.82164-0.13804 1.1569-0.3681l-0.32208-0.58501c-0.23663 0.14461-0.46012 0.21691-0.70333 0.21691-0.43383 0-0.76248-0.21691-0.84794-0.7099h1.9522c0.01972-0.07888 0.03944-0.23663 0.03944-0.40754 0-0.88738-0.46012-1.5644-1.3869-1.5644-0.7822 0-1.5381 0.65074-1.5381 1.709zm0.92682-0.33523c0.06573-0.43383 0.32866-0.6376 0.63102-0.6376 0.38782 0 0.54557 0.26293 0.54557 0.6376z"/>
   <path d="m34.036 75.164h1.1043l0.28922-1.3015c0.05916-0.30236 0.10517-0.60473 0.16433-0.95311h0.02629c0.05916 0.34838 0.11174 0.65074 0.17748 0.95311l0.29579 1.3015h1.1306l0.7822-3.2603h-0.89395l-0.30894 1.5118c-0.05916 0.32208-0.09202 0.6376-0.15118 0.96625h-0.02629c-0.06573-0.32866-0.12489-0.64417-0.20377-0.96625l-0.3681-1.5118h-0.83479l-0.36152 1.5118c-0.07888 0.30894-0.13146 0.6376-0.19062 0.96625h-0.02629c-0.05259-0.32866-0.09202-0.64417-0.14461-0.96625l-0.31551-1.5118h-0.95968z"/>
   <path d="m38.346 73.533c0 1.078 0.71647 1.709 1.6499 1.709 0.38782 0 0.82164-0.13804 1.1569-0.3681l-0.32208-0.58501c-0.23663 0.14461-0.46012 0.21691-0.70333 0.21691-0.43383 0-0.76248-0.21691-0.84794-0.7099h1.9522c0.01972-0.07888 0.03944-0.23663 0.03944-0.40754 0-0.88738-0.46012-1.5644-1.3869-1.5644-0.7822 0-1.5381 0.65074-1.5381 1.709zm0.92682-0.33523c0.06573-0.43383 0.32866-0.6376 0.63102-0.6376 0.38782 0 0.54557 0.26293 0.54557 0.6376z"/>
   <path d="m0.023675 81.814c0 1.078 0.71647 1.709 1.6499 1.709 0.38782 0 0.82164-0.13804 1.1569-0.3681l-0.32208-0.58501c-0.23663 0.14461-0.46012 0.21691-0.70333 0.21691-0.43383 0-0.76249-0.21691-0.84794-0.7099h1.9522c0.019719-0.07888 0.039439-0.23663 0.039439-0.40754 0-0.88738-0.46012-1.5644-1.3869-1.5644-0.7822 0-1.5381 0.65074-1.5381 1.709zm0.92681-0.33523c0.065732-0.43383 0.32866-0.6376 0.63102-0.6376 0.38782 0 0.54557 0.26293 0.54557 0.6376z"/>
   <path d="m3.6164 83.444h0.96625v-2.202c0.20377-0.21034 0.39439-0.31551 0.55214-0.31551 0.27607 0 0.40096 0.14461 0.40096 0.61788v1.8996h0.96625v-2.202c0.21034-0.21034 0.39439-0.31551 0.55872-0.31551 0.27607 0 0.40096 0.14461 0.40096 0.61788v1.8996h0.96625v-2.0245c0-0.81507-0.31551-1.3146-1.0188-1.3146-0.43383 0-0.73619 0.24978-1.0254 0.54557-0.16433-0.34838-0.4404-0.54557-0.90052-0.54557-0.42725 0-0.71647 0.23006-0.98597 0.49956h-0.026293l-0.065732-0.42068h-0.78878z"/>
   <path d="m10.186 83.181c0.23006 0.21691 0.49299 0.3418 0.77563 0.3418 0.70333 0 1.3738-0.64417 1.3738-1.7616 0-1.0057-0.48641-1.6564-1.2752-1.6564-0.3418 0-0.67046 0.1709-0.92682 0.40096h-0.02629l-0.06573-0.32208h-0.78878v4.4697h0.96625v-0.95311zm0.03287-0.65732v-1.3343c0.19062-0.20377 0.36152-0.29579 0.55872-0.29579 0.38782 0 0.56529 0.29579 0.56529 0.8808 0 0.67046-0.2695 0.95968-0.60473 0.95968-0.16433 0-0.34838-0.05259-0.51928-0.21034z"/>
   <path d="m12.819 82.537c0 0.55214 0.37467 0.98597 0.96625 0.98597 0.3681 0 0.67703-0.1709 0.95311-0.41411h0.01972l0.0723 0.33523h0.78878v-1.8668c0-0.99912-0.46012-1.4724-1.2949-1.4724-0.51271 0-0.9794 0.17748-1.3935 0.42726l0.3418 0.6376c0.31551-0.18405 0.59158-0.29579 0.86766-0.29579 0.34838 0 0.49299 0.18405 0.5127 0.47327-1.2883 0.13146-1.8339 0.50613-1.8339 1.1897zm0.92024-0.07231c0-0.24978 0.22349-0.44697 0.91367-0.539v0.57187c-0.1709 0.1709-0.31551 0.27607-0.539 0.27607-0.23006 0-0.37467-0.0986-0.37467-0.30894z"/>
   <path d="m16.573 82.261c0 0.75591 0.31551 1.262 1.124 1.262 0.31551 0 0.55214-0.06573 0.72305-0.11832l-0.15118-0.70333c-0.08545 0.03287-0.20377 0.06573-0.30894 0.06573-0.25635 0-0.42068-0.15118-0.42068-0.51928v-1.3081h0.7822v-0.75591h-0.7822v-0.86766h-0.80192l-0.11174 0.86766-0.49956 0.03944v0.71647h0.44697z"/>
   <path d="m18.958 83.444h0.96625v-2.202c0.21034-0.20377 0.36152-0.31551 0.60473-0.31551 0.27607 0 0.40096 0.14461 0.40096 0.61788v1.8996h0.96625v-2.0245c0-0.81507-0.30236-1.3146-1.0123-1.3146-0.4404 0-0.76249 0.23006-1.0057 0.44697l0.04601-0.58501v-1.1306h-0.96625z"/>
   <path d="m23.187 79.704c0.32866 0 0.55872-0.21034 0.55872-0.50613 0-0.29579-0.23006-0.49956-0.55872-0.49956-0.32208 0-0.55872 0.20377-0.55872 0.49956 0 0.29579 0.23663 0.50613 0.55872 0.50613zm-0.47984 3.7401h0.96625v-3.2603h-0.96625z"/>
   <path d="m24.34 83.444h2.6161v-0.75591h-1.4132l1.3672-1.9917v-0.51271h-2.4189v0.75591h1.216l-1.3672 1.9851z"/>
   <path d="m28.027 79.704c0.32866 0 0.55872-0.21034 0.55872-0.50613 0-0.29579-0.23006-0.49956-0.55872-0.49956-0.32208 0-0.55872 0.20377-0.55872 0.49956 0 0.29579 0.23663 0.50613 0.55872 0.50613zm-0.47984 3.7401h0.96625v-3.2603h-0.96625z"/>
   <path d="m29.357 83.444h0.96625v-2.202c0.21034-0.20377 0.36152-0.31551 0.60473-0.31551 0.27607 0 0.40096 0.14461 0.40096 0.61788v1.8996h0.96625v-2.0245c0-0.81507-0.30236-1.3146-1.0123-1.3146-0.4404 0-0.76906 0.23006-1.0451 0.49299h-0.02629l-0.06573-0.41411h-0.78878z"/>
   <path d="m33.71 83.852c0-0.11832 0.05916-0.21691 0.17748-0.32208 0.10517 0.02629 0.23663 0.03944 0.46012 0.03944h0.33523c0.32208 0 0.49956 0.05258 0.49956 0.25635 0 0.22349-0.31551 0.40096-0.74934 0.40096-0.43383 0-0.72305-0.13146-0.72305-0.37467zm-0.79535 0.15118c0 0.57844 0.60473 0.82822 1.3672 0.82822 1.1174 0 1.8208-0.49299 1.8208-1.17 0-0.58501-0.4404-0.82822-1.2423-0.82822h-0.52585c-0.36152 0-0.49299-0.07888-0.49299-0.24321 0-0.11174 0.03287-0.1709 0.11832-0.24321 0.14461 0.04601 0.27607 0.06573 0.39439 0.06573 0.71647 0 1.2818-0.34838 1.2818-1.0977 0-0.1709-0.04601-0.32866-0.10517-0.42726h0.51928v-0.70333h-1.1897c-0.14461-0.05258-0.32208-0.07888-0.50613-0.07888-0.70333 0-1.3475 0.39439-1.3475 1.1766 0 0.38124 0.21034 0.69018 0.4404 0.84794v0.02629c-0.21034 0.14461-0.3681 0.37467-0.3681 0.6113 0 0.2695 0.13146 0.4404 0.30236 0.55214v0.02629c-0.30236 0.1709-0.46669 0.38782-0.46669 0.65732zm1.4395-2.1757c-0.25635 0-0.44697-0.18405-0.44697-0.54557 0-0.34838 0.19062-0.52585 0.44697-0.52585s0.44697 0.18405 0.44697 0.52585c0 0.36152-0.19062 0.54557-0.44697 0.54557z"/>
   <path d="m38.543 83.444h1.1043l0.28922-1.3015c0.05916-0.30236 0.10517-0.60473 0.16433-0.95311h0.02629c0.05916 0.34838 0.11174 0.65074 0.17748 0.95311l0.29579 1.3015h1.1306l0.7822-3.2603h-0.89395l-0.30894 1.5118c-0.05916 0.32208-0.09202 0.6376-0.15118 0.96625h-0.02629c-0.06573-0.32866-0.12489-0.64417-0.20377-0.96625l-0.3681-1.5118h-0.83479l-0.36152 1.5118c-0.07888 0.30894-0.13146 0.6376-0.19062 0.96625h-0.02629c-0.05259-0.32866-0.09202-0.64417-0.14461-0.96625l-0.31551-1.5118h-0.95968z"/>
   <path d="m43.574 79.704c0.32866 0 0.55872-0.21034 0.55872-0.50613 0-0.29579-0.23006-0.49956-0.55872-0.49956-0.32208 0-0.55872 0.20377-0.55872 0.49956 0 0.29579 0.23663 0.50613 0.55872 0.50613zm-0.47984 3.7401h0.96625v-3.2603h-0.96625z"/>
   <path d="m45.035 82.261c0 0.75591 0.31551 1.262 1.124 1.262 0.31551 0 0.55214-0.06573 0.72305-0.11832l-0.15118-0.70333c-0.08545 0.03287-0.20377 0.06573-0.30894 0.06573-0.25635 0-0.42068-0.15118-0.42068-0.51928v-1.3081h0.7822v-0.75591h-0.7822v-0.86766h-0.80192l-0.11174 0.86766-0.49956 0.03944v0.71647h0.44698z"/>
   <path d="m47.42 83.444h0.96625v-2.202c0.21034-0.20377 0.36152-0.31551 0.60473-0.31551 0.27607 0 0.40096 0.14461 0.40096 0.61788v1.8996h0.96625v-2.0245c0-0.81507-0.30236-1.3146-1.0123-1.3146-0.4404 0-0.76248 0.23006-1.0057 0.44697l0.04601-0.58501v-1.1306h-0.96625z"/>
   <path d="m51.651 81.926h0.84794c-0.07888-0.7822 0.9071-1.0254 0.9071-1.8405 0-0.77563-0.55872-1.124-1.3015-1.124-0.48641 0-0.90052 0.24321-1.1963 0.59816l0.53242 0.48641c0.17748-0.17748 0.35495-0.30236 0.59816-0.30236 0.26293 0 0.4404 0.14461 0.4404 0.41411 0 0.49299-0.95968 0.86766-0.82822 1.7682zm-0.15776 0.99254c0 0.3418 0.24321 0.60473 0.57844 0.60473s0.58501-0.26293 0.58501-0.60473c0-0.34838-0.24978-0.6113-0.58501-0.6113s-0.57844 0.26293-0.57844 0.6113z"/>
  </g>
  <rect x="-80.25" y="51.984" width="296.33" height="179.92" fill="none" stroke="#6c6c6c" stroke-width=".52917"/>
  <g fill="#d8d8d8" stroke="#6c6c6c" stroke-dasharray="0.529167, 1.05833" stroke-width=".52917">
   <path d="m-80.25 231.9 296.33-179.92"/>
   <path d="m-80.181 51.984 296.33 179.92"/>
   <path d="m67.917 51.984v121.71"/>
   <path d="m44.105 141.94h171.98"/>
  </g>
  <path d="m38.725 178.98c0.8215-2.1408 1.93-6.4991 2.3108-9.0853 0.39306-2.6692 0.35356-7.1818-0.08419-9.6256-0.91895-5.1302-2.4088-8.5503-7.1563-16.428-3.7706-6.2564-5.1221-9.1895-5.6818-12.33-0.425-2.3848-0.11504-7.7366 0.65466-11.303 2.4491-11.349 10.32-19.08 22.095-21.701 7.5814-1.6881 18.043-1.2744 26.031 1.0293 3.4425 0.99285 7.62 2.8622 10.271 4.5958 7.8984 5.1658 12.421 13.62 12.421 23.218 0 1.9945-0.0554 2.1857-1.1238 3.8778l-0.53578 0.8486 0.36243 0.75412c0.50742 1.0557 1.0311 1.8727 3.7266 5.8141 4.297 6.283 4.5007 6.6894 3.9155 7.8096-0.59028 1.1299-2.3103 2.0793-4.1287 2.2789-0.69482 0.0763-1.2272 0.2277-1.4229 0.40481-0.459 0.41534-0.40124 1.5138 0.16817 3.1983 0.66143 1.9568 0.6418 2.1476-0.31977 3.1092-0.87802 0.87799-0.88406 0.9507-0.17616 2.1118 0.52818 0.86646 0.44069 1.2597-0.4802 2.1574-1.0528 1.0264-1.1504 1.2932-0.85968 2.35 0.67651 2.4587 0.75285 2.9865 0.57656 3.9873-0.38452 2.1829-1.4843 3.6334-3.4687 4.5751-1.9787 0.9389-3.6698 1.2448-8.2748 1.4968-3.5001 0.19151-4.2864 0.27541-5.3506 0.57092-0.94517 0.26247-1.679 0.94893-2.1468 2.0081-0.38645 0.87503-0.70691 2.7968-0.62921 3.7736l0.05604 0.70506h-20.413c-16.303 0-20.397-0.0405-20.336-0.20108z" fill="#5e5e5e" stroke-width=".26458"/>
  <g fill="#e8eaec" stroke-linecap="round" stroke-width=".46951">
   <g aria-label="2. What do they need to DO?">
    <path d="m84.697 75.164h2.9382v-0.81507h-0.84136c-0.1972 0-0.48641 0.02629-0.69675 0.05258 0.67703-0.7099 1.3343-1.4592 1.3343-2.1626 0-0.80192-0.55872-1.3278-1.3804-1.3278-0.59816 0-0.98597 0.22349-1.4001 0.66389l0.52585 0.51928c0.21034-0.22349 0.4404-0.42726 0.74277-0.42726 0.36152 0 0.59158 0.22349 0.59158 0.63102 0 0.59158-0.74934 1.3081-1.8142 2.3137z"/>
    <path d="m88.321 74.638c0 0.3418 0.24978 0.60473 0.58501 0.60473 0.33523 0 0.58501-0.26293 0.58501-0.60473 0-0.34838-0.24978-0.6113-0.58501-0.6113-0.33523 0-0.58501 0.26293-0.58501 0.6113z"/>
    <path d="m92.152 75.164h1.1963l0.40754-1.9457c0.06573-0.32866 0.11832-0.67703 0.1709-0.99254h0.02629c0.04601 0.31551 0.10517 0.66389 0.1709 0.99254l0.42068 1.9457h1.216l0.76248-4.2857h-0.92681l-0.29579 2.0048c-0.05916 0.4404-0.11832 0.89395-0.1709 1.3541h-0.02629c-0.085451-0.46012-0.1709-0.92024-0.25635-1.3541l-0.46669-2.0048h-0.82164l-0.46012 2.0048c-0.08545 0.44697-0.1709 0.90052-0.24978 1.3541h-0.02629c-0.05916-0.45355-0.11832-0.9071-0.17748-1.3541l-0.29579-2.0048h-0.99255z"/>
    <path d="m97.039 75.164h0.96625v-2.202c0.21034-0.20377 0.36152-0.31551 0.60473-0.31551 0.27607 0 0.40096 0.14461 0.40096 0.61788v1.8996h0.96625v-2.0245c0-0.81507-0.30236-1.3146-1.0123-1.3146-0.4404 0-0.76249 0.23006-1.0057 0.44698l0.04601-0.58501v-1.1306h-0.96625z"/>
    <path d="m100.67 74.257c0 0.55214 0.37467 0.98597 0.96625 0.98597 0.3681 0 0.67704-0.1709 0.95311-0.41411h0.0197l0.0723 0.33523h0.78878v-1.8668c0-0.99912-0.46012-1.4724-1.2949-1.4724-0.5127 0-0.9794 0.17748-1.3935 0.42726l0.34181 0.6376c0.31551-0.18405 0.59158-0.29579 0.86765-0.29579 0.34838 0 0.49299 0.18405 0.51271 0.47327-1.2883 0.13146-1.8339 0.50613-1.8339 1.1897zm0.92024-0.07231c0-0.24978 0.22349-0.44697 0.91367-0.539v0.57186c-0.1709 0.1709-0.31551 0.27607-0.539 0.27607-0.23006 0-0.37467-0.0986-0.37467-0.30894z"/>
    <path d="m104.42 73.98c0 0.75591 0.31551 1.262 1.124 1.262 0.31551 0 0.55215-0.06573 0.72305-0.11832l-0.15118-0.70333c-0.0855 0.03287-0.20377 0.06573-0.30894 0.06573-0.25635 0-0.42068-0.15118-0.42068-0.51928v-1.3081h0.7822v-0.75591h-0.7822v-0.86766h-0.80193l-0.11174 0.86766-0.49956 0.03944v0.71647h0.44697z"/>
    <path d="m108.01 73.533c0 1.0649 0.52585 1.709 1.3344 1.709 0.31551 0 0.63759-0.1709 0.86765-0.40096h0.0263l0.0657 0.32208h0.78878v-4.6078h-0.96626v1.1109l0.0394 0.49956c-0.22348-0.21034-0.4404-0.3418-0.80192-0.3418-0.69018 0-1.3541 0.64417-1.3541 1.709zm0.99254-0.01315c0-0.61788 0.27608-0.9071 0.58502-0.9071 0.17747 0 0.36809 0.05259 0.53899 0.21034v1.3344c-0.15775 0.21691-0.32208 0.29579-0.53242 0.29579-0.37467 0-0.59159-0.28922-0.59159-0.93339z"/>
    <path d="m111.75 73.533c0 1.0846 0.76248 1.709 1.5907 1.709 0.82164 0 1.5841-0.62445 1.5841-1.709 0-1.0846-0.76249-1.709-1.5841-1.709-0.82822 0-1.5907 0.62445-1.5907 1.709zm0.99254 0c0-0.56529 0.1972-0.92681 0.59816-0.92681 0.39439 0 0.59816 0.36152 0.59816 0.92681 0 0.56529-0.20377 0.92682-0.59816 0.92682-0.40096 0-0.59816-0.36152-0.59816-0.92682z"/>
    <path d="m117.1 73.98c0 0.75591 0.31551 1.262 1.124 1.262 0.31551 0 0.55215-0.06573 0.72305-0.11832l-0.15118-0.70333c-0.0855 0.03287-0.20377 0.06573-0.30894 0.06573-0.25636 0-0.42068-0.15118-0.42068-0.51928v-1.3081h0.7822v-0.75591h-0.7822v-0.86766h-0.80193l-0.11174 0.86766-0.49956 0.03944v0.71647h0.44697z"/>
    <path d="m119.48 75.164h0.96625v-2.202c0.21034-0.20377 0.36153-0.31551 0.60473-0.31551 0.27608 0 0.40097 0.14461 0.40097 0.61788v1.8996h0.96625v-2.0245c0-0.81507-0.30237-1.3146-1.0123-1.3146-0.4404 0-0.76248 0.23006-1.0057 0.44698l0.046-0.58501v-1.1306h-0.96625z"/>
    <path d="m123.04 73.533c0 1.078 0.71648 1.709 1.6499 1.709 0.38782 0 0.82165-0.13804 1.1569-0.3681l-0.32209-0.58501c-0.23663 0.14461-0.46012 0.21691-0.70332 0.21691-0.43383 0-0.76249-0.21691-0.84794-0.7099h1.9522c0.0197-0.07888 0.0394-0.23663 0.0394-0.40754 0-0.88738-0.46012-1.5644-1.3869-1.5644-0.78221 0-1.5381 0.65074-1.5381 1.709zm0.92682-0.33523c0.0657-0.43383 0.32865-0.6376 0.63102-0.6376 0.38781 0 0.54557 0.26293 0.54557 0.6376z"/>
    <path d="m126.66 75.637-0.1709 0.73619c0.13146 0.03944 0.26292 0.06573 0.46012 0.06573 0.76906 0 1.1174-0.42068 1.4264-1.2423l1.1306-3.2931h-0.92681l-0.39439 1.4001c-0.0789 0.30894-0.15118 0.61788-0.22349 0.92681h-0.0263c-0.0854-0.32208-0.16433-0.63102-0.25635-0.92681l-0.4667-1.4001h-0.97282l1.2555 3.1748-0.046 0.1709c-0.0855 0.25635-0.24978 0.42725-0.57187 0.42725-0.0723 0-0.15775-0.02629-0.21691-0.03944z"/>
    <path d="m131.39 75.164h0.96625v-2.202c0.21034-0.20377 0.36152-0.31551 0.60473-0.31551 0.27607 0 0.40096 0.14461 0.40096 0.61788v1.8996h0.96626v-2.0245c0-0.81507-0.30237-1.3146-1.0123-1.3146-0.4404 0-0.76906 0.23006-1.0451 0.49299h-0.0263l-0.0657-0.41411h-0.78878z"/>
    <path d="m134.96 73.533c0 1.078 0.71648 1.709 1.6499 1.709 0.38782 0 0.82165-0.13804 1.1569-0.3681l-0.32209-0.58501c-0.23663 0.14461-0.46012 0.21691-0.70332 0.21691-0.43383 0-0.76249-0.21691-0.84794-0.7099h1.9522c0.0197-0.07888 0.0394-0.23663 0.0394-0.40754 0-0.88738-0.46012-1.5644-1.3869-1.5644-0.78221 0-1.5381 0.65074-1.5381 1.709zm0.92682-0.33523c0.0657-0.43383 0.32865-0.6376 0.63102-0.6376 0.38781 0 0.54557 0.26293 0.54557 0.6376z"/>
    <path d="m138.37 73.533c0 1.078 0.71647 1.709 1.6499 1.709 0.38782 0 0.82165-0.13804 1.1569-0.3681l-0.32209-0.58501c-0.23663 0.14461-0.46012 0.21691-0.70333 0.21691-0.43382 0-0.76248-0.21691-0.84793-0.7099h1.9522c0.0197-0.07888 0.0394-0.23663 0.0394-0.40754 0-0.88738-0.46012-1.5644-1.3869-1.5644-0.78221 0-1.5381 0.65074-1.5381 1.709zm0.92682-0.33523c0.0657-0.43383 0.32865-0.6376 0.63102-0.6376 0.38781 0 0.54557 0.26293 0.54557 0.6376z"/>
    <path d="m141.79 73.533c0 1.0649 0.52585 1.709 1.3344 1.709 0.31551 0 0.63759-0.1709 0.86765-0.40096h0.0263l0.0657 0.32208h0.78878v-4.6078h-0.96626v1.1109l0.0394 0.49956c-0.22348-0.21034-0.4404-0.3418-0.80192-0.3418-0.69018 0-1.3541 0.64417-1.3541 1.709zm0.99254-0.01315c0-0.61788 0.27608-0.9071 0.58502-0.9071 0.17747 0 0.36809 0.05259 0.53899 0.21034v1.3344c-0.15775 0.21691-0.32208 0.29579-0.53242 0.29579-0.37467 0-0.59159-0.28922-0.59159-0.93339z"/>
    <path d="m85.012 82.261c0 0.75591 0.31551 1.262 1.124 1.262 0.31551 0 0.55214-0.06573 0.72305-0.11832l-0.15118-0.70333c-0.08545 0.03287-0.20377 0.06573-0.30894 0.06573-0.25635 0-0.42068-0.15118-0.42068-0.51928v-1.3081h0.7822v-0.75591h-0.7822v-0.86766h-0.80192l-0.11174 0.86766-0.49956 0.03944v0.71647h0.44697z"/>
    <path d="m87.142 81.814c0 1.0846 0.76248 1.709 1.5907 1.709 0.82164 0 1.5841-0.62445 1.5841-1.709s-0.76249-1.709-1.5841-1.709c-0.82822 0-1.5907 0.62445-1.5907 1.709zm0.99255 0c0-0.56529 0.19719-0.92681 0.59816-0.92681 0.39439 0 0.59816 0.36152 0.59816 0.92681s-0.20377 0.92681-0.59816 0.92681c-0.40096 0-0.59816-0.36152-0.59816-0.92681z"/>
    <path d="m92.425 83.444h1.2686c1.2555 0 2.0968-0.69018 2.0968-2.1626s-0.84136-2.1231-2.156-2.1231h-1.2095zm0.97283-0.7822v-2.7213h0.18405c0.72305 0 1.216 0.31551 1.216 1.3409s-0.49299 1.3804-1.216 1.3804z"/>
    <path d="m98.339 83.523c1.1569 0 1.9457-0.84136 1.9457-2.2414 0-1.3935-0.78878-2.202-1.9457-2.202-1.1503 0-1.9457 0.80192-1.9457 2.202s0.79535 2.2414 1.9457 2.2414zm0-0.83479c-0.57844 0-0.95311-0.54557-0.95311-1.4067 0-0.85451 0.37467-1.3672 0.95311-1.3672 0.58501 0 0.95311 0.5127 0.95311 1.3672 0 0.86108-0.3681 1.4067-0.95311 1.4067z"/>
    <path d="m101.6 81.926h0.84794c-0.0789-0.7822 0.90709-1.0254 0.90709-1.8405 0-0.77563-0.55871-1.124-1.3015-1.124-0.48641 0-0.90052 0.24321-1.1963 0.59816l0.53242 0.48641c0.17748-0.17748 0.35495-0.30236 0.59816-0.30236 0.26293 0 0.4404 0.14461 0.4404 0.41411 0 0.49299-0.95968 0.86766-0.82822 1.7682zm-0.15775 0.99254c0 0.3418 0.2432 0.60473 0.57844 0.60473 0.33523 0 0.58501-0.26293 0.58501-0.60473 0-0.34838-0.24978-0.6113-0.58501-0.6113-0.33524 0-0.57844 0.26293-0.57844 0.6113z"/>
   </g>
   <g aria-label="3. What do they SEE?">
    <path d="m134.87 116.98c0.30236 0.35496 0.77563 0.59159 1.4527 0.59159 0.84137 0 1.5513-0.4404 1.5513-1.216 0-0.539-0.34838-0.88081-0.82822-1.0188v-0.0263c0.44697-0.19062 0.69675-0.49298 0.69675-0.92681 0-0.72962-0.57843-1.1437-1.4395-1.1437-0.5127 0-0.93338 0.20377-1.3146 0.53243l0.48642 0.59158c0.26292-0.23006 0.48641-0.3681 0.7822-0.3681 0.32866 0 0.51271 0.17091 0.51271 0.46013 0 0.33523-0.23664 0.55871-0.98597 0.55871v0.68361c0.90709 0 1.124 0.23006 1.124 0.59816 0 0.31551-0.26949 0.49298-0.67703 0.49298-0.35495 0-0.66389-0.17747-0.91367-0.42068z"/>
    <path d="m138.59 116.97c0 0.3418 0.24978 0.60473 0.58501 0.60473s0.58501-0.26293 0.58501-0.60473c0-0.34838-0.24978-0.6113-0.58501-0.6113s-0.58501 0.26292-0.58501 0.6113z"/>
    <path d="m142.42 117.5h1.1963l0.40753-1.9456c0.0657-0.32866 0.11832-0.67704 0.17091-0.99255h0.0263c0.046 0.31551 0.10517 0.66389 0.1709 0.99255l0.42068 1.9456h1.216l0.76248-4.2857h-0.92681l-0.29579 2.0048c-0.0592 0.4404-0.11832 0.89395-0.17091 1.3541h-0.0263c-0.0855-0.46012-0.1709-0.92024-0.25635-1.3541l-0.4667-2.0048h-0.82164l-0.46012 2.0048c-0.0854 0.44697-0.1709 0.90052-0.24978 1.3541h-0.0263c-0.0592-0.45355-0.11832-0.9071-0.17748-1.3541l-0.29579-2.0048h-0.99254z"/>
    <path d="m147.31 117.5h0.96626v-2.202c0.21034-0.20377 0.36152-0.31552 0.60473-0.31552 0.27607 0 0.40096 0.14461 0.40096 0.61788v1.8996h0.96625v-2.0245c0-0.81507-0.30236-1.3146-1.0123-1.3146-0.44041 0-0.76249 0.23006-1.0057 0.44697l0.046-0.58501v-1.1306h-0.96626z"/>
    <path d="m150.94 116.59c0 0.55214 0.37467 0.98597 0.96625 0.98597 0.3681 0 0.67703-0.1709 0.95311-0.41411h0.0197l0.0723 0.33523h0.78878v-1.8668c0-0.99912-0.46012-1.4724-1.2949-1.4724-0.51271 0-0.9794 0.17748-1.3935 0.42726l0.3418 0.63759c0.31551-0.18405 0.59159-0.29579 0.86766-0.29579 0.34838 0 0.49299 0.18405 0.5127 0.47327-1.2883 0.13146-1.8339 0.50613-1.8339 1.1897zm0.92024-0.0723c0-0.24978 0.22348-0.44697 0.91366-0.539v0.57187c-0.1709 0.1709-0.31551 0.27607-0.53899 0.27607-0.23006 0-0.37467-0.0986-0.37467-0.30894z"/>
    <path d="m154.69 116.31c0 0.75592 0.31551 1.262 1.124 1.262 0.31551 0 0.55214-0.0657 0.72304-0.11832l-0.15118-0.70333c-0.0854 0.0329-0.20377 0.0657-0.30894 0.0657-0.25635 0-0.42068-0.15119-0.42068-0.51928v-1.3081h0.78221v-0.75591h-0.78221v-0.86762h-0.80192l-0.11175 0.86766-0.49956 0.0394v0.71647h0.44698z"/>
    <path d="m158.28 115.87c0 1.0648 0.52585 1.709 1.3343 1.709 0.31552 0 0.6376-0.1709 0.86766-0.40096h0.0263l0.0657 0.32208h0.78878v-4.6078h-0.96625v1.1109l0.0394 0.49956c-0.22349-0.21034-0.4404-0.3418-0.80193-0.3418-0.69018 0-1.3541 0.64417-1.3541 1.709zm0.99254-0.0131c0-0.61787 0.27607-0.90709 0.58501-0.90709 0.17748 0 0.3681 0.0526 0.539 0.21034v1.3344c-0.15776 0.21691-0.32208 0.29579-0.53243 0.29579-0.37467 0-0.59158-0.28922-0.59158-0.93339z"/>
    <path d="m162.02 115.87c0 1.0846 0.76249 1.709 1.5907 1.709 0.82164 0 1.5841-0.62445 1.5841-1.709s-0.76248-1.709-1.5841-1.709c-0.82822 0-1.5907 0.62445-1.5907 1.709zm0.99255 0c0-0.56529 0.19719-0.92681 0.59816-0.92681 0.39438 0 0.59815 0.36152 0.59815 0.92681s-0.20377 0.92681-0.59815 0.92681c-0.40097 0-0.59816-0.36152-0.59816-0.92681z"/>
    <path d="m167.37 116.31c0 0.75592 0.31551 1.262 1.124 1.262 0.31551 0 0.55214-0.0657 0.72304-0.11832l-0.15118-0.70333c-0.0854 0.0329-0.20377 0.0657-0.30894 0.0657-0.25635 0-0.42068-0.15119-0.42068-0.51928v-1.3081h0.78221v-0.75591h-0.78221v-0.86762h-0.80192l-0.11175 0.86766-0.49956 0.0394v0.71647h0.44698z"/>
    <path d="m169.75 117.5h0.96625v-2.202c0.21034-0.20377 0.36152-0.31552 0.60473-0.31552 0.27607 0 0.40096 0.14461 0.40096 0.61788v1.8996h0.96625v-2.0245c0-0.81507-0.30236-1.3146-1.0123-1.3146-0.4404 0-0.76249 0.23006-1.0057 0.44697l0.046-0.58501v-1.1306h-0.96625z"/>
    <path d="m173.31 115.87c0 1.078 0.71647 1.709 1.6499 1.709 0.38781 0 0.82164-0.13804 1.1569-0.3681l-0.32208-0.58501c-0.23663 0.14461-0.46012 0.21692-0.70333 0.21692-0.43383 0-0.76248-0.21692-0.84793-0.7099h1.9522c0.0197-0.0789 0.0394-0.23664 0.0394-0.40754 0-0.88738-0.46012-1.5644-1.3869-1.5644-0.78221 0-1.5381 0.65074-1.5381 1.709zm0.92681-0.33523c0.0657-0.43383 0.32866-0.6376 0.63102-0.6376 0.38782 0 0.54558 0.26293 0.54558 0.6376z"/>
    <path d="m176.94 117.97-0.17091 0.73619c0.13147 0.0394 0.26293 0.0657 0.46012 0.0657 0.76906 0 1.1174-0.42068 1.4264-1.2423l1.1306-3.2932h-0.92681l-0.39439 1.4001c-0.0789 0.30894-0.15119 0.61788-0.22349 0.92681h-0.0263c-0.0854-0.32208-0.16433-0.63102-0.25636-0.92681l-0.46669-1.4001h-0.97283l1.2555 3.1748-0.046 0.1709c-0.0855 0.25635-0.24978 0.42726-0.57186 0.42726-0.0723 0-0.15776-0.0263-0.21691-0.0394z"/>
    <path d="m181.46 116.96c0.4404 0.40754 1.032 0.61788 1.5907 0.61788 1.0188 0 1.6104-0.61788 1.6104-1.3278 0-0.60473-0.32866-0.9531-0.84794-1.1634l-0.54557-0.22348c-0.37467-0.15119-0.65731-0.24321-0.65731-0.50614 0-0.2432 0.21691-0.38781 0.54557-0.38781 0.3418 0 0.6113 0.12489 0.89395 0.3418l0.48641-0.6113c-0.3681-0.3681-0.88737-0.56529-1.3804-0.56529-0.88738 0-1.525 0.56529-1.525 1.2752 0 0.62445 0.42068 0.99255 0.86765 1.17l0.55215 0.23663c0.37467 0.15776 0.61787 0.24321 0.61787 0.51271 0 0.25635-0.19719 0.41411-0.59815 0.41411-0.35495 0-0.74934-0.18405-1.0517-0.44698z"/>
    <path d="m185.38 117.5h2.7542v-0.81507h-1.7813v-0.98597h1.4592v-0.8085h-1.4592v-0.86108h1.7156v-0.81507h-2.6884z"/>
    <path d="m188.98 117.5h2.7542v-0.81507h-1.7813v-0.98597h1.4592v-0.8085h-1.4592v-0.86108h1.7156v-0.81507h-2.6884z"/>
    <path d="m193.08 115.98h0.84794c-0.0789-0.7822 0.90709-1.0254 0.90709-1.8405 0-0.77563-0.55872-1.124-1.3015-1.124-0.48641 0-0.90052 0.24321-1.1963 0.59816l0.53243 0.48641c0.17748-0.17747 0.35495-0.30236 0.59816-0.30236 0.26292 0 0.4404 0.14461 0.4404 0.41411 0 0.49298-0.95968 0.86765-0.82822 1.7682zm-0.15775 0.99255c0 0.3418 0.2432 0.60473 0.57843 0.60473s0.58501-0.26293 0.58501-0.60473c0-0.34838-0.24978-0.6113-0.58501-0.6113s-0.57843 0.26292-0.57843 0.6113z"/>
   </g>
   <g aria-label="4. What do they SAY?">
    <path d="m135.78 166.03 0.55215-0.90709c0.11831-0.23663 0.23663-0.47327 0.3418-0.70333h0.0263c-0.0131 0.26293-0.0394 0.66389-0.0394 0.93339v0.67703zm2.2612 0h-0.47984v-2.4386h-1.1832l-1.525 2.5109v0.66389h1.8076v0.99912h0.90053v-0.99912h0.47984z"/>
    <path d="m138.59 167.24c0 0.34181 0.24978 0.60473 0.58501 0.60473s0.58501-0.26292 0.58501-0.60473c0-0.34837-0.24978-0.6113-0.58501-0.6113s-0.58501 0.26293-0.58501 0.6113z"/>
    <path d="m142.42 167.77h1.1963l0.40753-1.9457c0.0657-0.32865 0.11832-0.67703 0.17091-0.99254h0.0263c0.046 0.31551 0.10517 0.66389 0.1709 0.99254l0.42068 1.9457h1.216l0.76248-4.2857h-0.92681l-0.29579 2.0048c-0.0592 0.4404-0.11832 0.89395-0.17091 1.3541h-0.0263c-0.0855-0.46012-0.1709-0.92024-0.25635-1.3541l-0.4667-2.0048h-0.82164l-0.46012 2.0048c-0.0854 0.44698-0.1709 0.90052-0.24978 1.3541h-0.0263c-0.0592-0.45355-0.11832-0.90709-0.17748-1.3541l-0.29579-2.0048h-0.99254z"/>
    <path d="m147.31 167.77h0.96626v-2.202c0.21034-0.20377 0.36152-0.31551 0.60473-0.31551 0.27607 0 0.40096 0.14461 0.40096 0.61788v1.8996h0.96625v-2.0245c0-0.81507-0.30236-1.3146-1.0123-1.3146-0.44041 0-0.76249 0.23006-1.0057 0.44697l0.046-0.58501v-1.1306h-0.96626z"/>
    <path d="m150.94 166.86c0 0.55215 0.37467 0.98597 0.96625 0.98597 0.3681 0 0.67703-0.1709 0.95311-0.4141h0.0197l0.0723 0.33523h0.78878v-1.8668c0-0.99912-0.46012-1.4724-1.2949-1.4724-0.51271 0-0.9794 0.17747-1.3935 0.42725l0.3418 0.6376c0.31551-0.18405 0.59159-0.2958 0.86766-0.2958 0.34838 0 0.49299 0.18405 0.5127 0.47327-1.2883 0.13146-1.8339 0.50613-1.8339 1.1897zm0.92024-0.0723c0-0.24978 0.22348-0.44698 0.91366-0.539v0.57186c-0.1709 0.1709-0.31551 0.27608-0.53899 0.27608-0.23006 0-0.37467-0.0986-0.37467-0.30894z"/>
    <path d="m154.69 166.58c0 0.75591 0.31551 1.262 1.124 1.262 0.31551 0 0.55214-0.0657 0.72304-0.11831l-0.15118-0.70333c-0.0854 0.0329-0.20377 0.0657-0.30894 0.0657-0.25635 0-0.42068-0.15118-0.42068-0.51928v-1.308h0.78221v-0.75592h-0.78221v-0.86765h-0.80192l-0.11175 0.86765-0.49956 0.0394v0.71648h0.44698z"/>
    <path d="m158.28 166.14c0 1.0648 0.52585 1.709 1.3343 1.709 0.31552 0 0.6376-0.1709 0.86766-0.40096h0.0263l0.0657 0.32209h0.78878v-4.6078h-0.96625v1.1109l0.0394 0.49956c-0.22349-0.21034-0.4404-0.3418-0.80193-0.3418-0.69018 0-1.3541 0.64416-1.3541 1.709zm0.99254-0.0131c0-0.61788 0.27607-0.9071 0.58501-0.9071 0.17748 0 0.3681 0.0526 0.539 0.21035v1.3343c-0.15776 0.21692-0.32208 0.2958-0.53243 0.2958-0.37467 0-0.59158-0.28922-0.59158-0.93339z"/>
    <path d="m162.02 166.14c0 1.0846 0.76249 1.709 1.5907 1.709 0.82164 0 1.5841-0.62444 1.5841-1.709s-0.76248-1.709-1.5841-1.709c-0.82822 0-1.5907 0.62445-1.5907 1.709zm0.99255 0c0-0.5653 0.19719-0.92682 0.59816-0.92682 0.39438 0 0.59815 0.36152 0.59815 0.92682 0 0.56529-0.20377 0.92681-0.59815 0.92681-0.40097 0-0.59816-0.36152-0.59816-0.92681z"/>
    <path d="m167.37 166.58c0 0.75591 0.31551 1.262 1.124 1.262 0.31551 0 0.55214-0.0657 0.72304-0.11831l-0.15118-0.70333c-0.0854 0.0329-0.20377 0.0657-0.30894 0.0657-0.25635 0-0.42068-0.15118-0.42068-0.51928v-1.308h0.78221v-0.75592h-0.78221v-0.86765h-0.80192l-0.11175 0.86765-0.49956 0.0394v0.71648h0.44698z"/>
    <path d="m169.75 167.77h0.96625v-2.202c0.21034-0.20377 0.36152-0.31551 0.60473-0.31551 0.27607 0 0.40096 0.14461 0.40096 0.61788v1.8996h0.96625v-2.0245c0-0.81507-0.30236-1.3146-1.0123-1.3146-0.4404 0-0.76249 0.23006-1.0057 0.44697l0.046-0.58501v-1.1306h-0.96625z"/>
    <path d="m173.31 166.14c0 1.078 0.71647 1.709 1.6499 1.709 0.38781 0 0.82164-0.13803 1.1569-0.36809l-0.32208-0.58501c-0.23663 0.14461-0.46012 0.21691-0.70333 0.21691-0.43383 0-0.76248-0.21691-0.84793-0.7099h1.9522c0.0197-0.0789 0.0394-0.23663 0.0394-0.40753 0-0.88738-0.46012-1.5644-1.3869-1.5644-0.78221 0-1.5381 0.65074-1.5381 1.709zm0.92681-0.33524c0.0657-0.43382 0.32866-0.63759 0.63102-0.63759 0.38782 0 0.54558 0.26293 0.54558 0.63759z"/>
    <path d="m176.94 168.24-0.17091 0.7362c0.13147 0.0394 0.26293 0.0657 0.46012 0.0657 0.76906 0 1.1174-0.42068 1.4264-1.2423l1.1306-3.2932h-0.92681l-0.39439 1.4001c-0.0789 0.30894-0.15119 0.61788-0.22349 0.92682h-0.0263c-0.0854-0.32209-0.16433-0.63102-0.25636-0.92682l-0.46669-1.4001h-0.97283l1.2555 3.1748-0.046 0.1709c-0.0855 0.25635-0.24978 0.42725-0.57186 0.42725-0.0723 0-0.15776-0.0263-0.21691-0.0394z"/>
    <path d="m181.46 167.23c0.4404 0.40753 1.032 0.61787 1.5907 0.61787 1.0188 0 1.6104-0.61787 1.6104-1.3278 0-0.60473-0.32866-0.95311-0.84794-1.1634l-0.54557-0.22349c-0.37467-0.15118-0.65731-0.2432-0.65731-0.50613 0-0.24321 0.21691-0.38782 0.54557-0.38782 0.3418 0 0.6113 0.12489 0.89395 0.34181l0.48641-0.6113c-0.3681-0.3681-0.88737-0.5653-1.3804-0.5653-0.88738 0-1.525 0.5653-1.525 1.2752 0 0.62445 0.42068 0.99254 0.86765 1.17l0.55215 0.23663c0.37467 0.15776 0.61787 0.24321 0.61787 0.51271 0 0.25635-0.19719 0.4141-0.59815 0.4141-0.35495 0-0.74934-0.18404-1.0517-0.44697z"/>
    <path d="m186.28 165.99 0.10517-0.39439c0.11832-0.42726 0.23664-0.92682 0.33523-1.3804h0.0263c0.11831 0.44697 0.23006 0.9531 0.34837 1.3804l0.10517 0.39439zm1.3804 1.7748h1.0254l-1.3475-4.2857h-1.1569l-1.3475 4.2857h0.98597l0.26293-1.0188h1.3146z"/>
    <path d="m189.75 167.77h0.96626v-1.525l1.2949-2.7607h-1.0123l-0.38124 0.98598c-0.11832 0.32208-0.24321 0.61787-0.36152 0.94653h-0.0263c-0.12489-0.32866-0.23663-0.62445-0.34837-0.94653l-0.38782-0.98598h-1.032l1.2883 2.7607z"/>
    <path d="m192.87 166.25h0.84794c-0.0789-0.78221 0.90709-1.0254 0.90709-1.8405 0-0.77563-0.55872-1.124-1.3015-1.124-0.48642 0-0.90052 0.2432-1.1963 0.59815l0.53243 0.48642c0.17747-0.17748 0.35495-0.30237 0.59816-0.30237 0.26292 0 0.4404 0.14461 0.4404 0.41411 0 0.49299-0.95968 0.86766-0.82822 1.7682zm-0.15775 0.99254c0 0.34181 0.2432 0.60473 0.57843 0.60473s0.58501-0.26292 0.58501-0.60473c0-0.34837-0.24978-0.6113-0.58501-0.6113s-0.57843 0.26293-0.57843 0.6113z"/>
   </g>
   <g aria-label="5. What do they DO?">
    <path d="m38.115 206c0.32866 0.32865 0.78878 0.58501 1.4724 0.58501 0.81507 0 1.5315-0.53243 1.5315-1.4592 0-0.88738-0.6113-1.2949-1.3278-1.2949-0.1709 0-0.30894 0.0263-0.46669 0.0986l0.0723-0.78221h1.5315v-0.81507h-2.3663l-0.11832 2.11 0.43383 0.27607c0.24978-0.15775 0.37467-0.21034 0.61788-0.21034 0.38782 0 0.65732 0.22349 0.65732 0.64417 0 0.42726-0.27607 0.65074-0.70333 0.65074-0.35495 0-0.65074-0.18405-0.90052-0.41411z"/>
    <path d="m41.831 205.98c0 0.3418 0.24978 0.60473 0.58501 0.60473 0.33523 0 0.58501-0.26293 0.58501-0.60473 0-0.34838-0.24978-0.61131-0.58501-0.61131-0.33523 0-0.58501 0.26293-0.58501 0.61131z"/>
    <path d="m45.662 206.51h1.1963l0.40754-1.9456c0.06573-0.32866 0.11832-0.67704 0.1709-0.99255h0.02629c0.04601 0.31551 0.10517 0.66389 0.1709 0.99255l0.42068 1.9456h1.216l0.76248-4.2857h-0.92681l-0.29579 2.0048c-0.05916 0.4404-0.11832 0.89395-0.1709 1.3541h-0.02629c-0.08545-0.46012-0.1709-0.92025-0.25635-1.3541l-0.46669-2.0048h-0.82164l-0.46012 2.0048c-0.08545 0.44697-0.1709 0.90052-0.24978 1.3541h-0.02629c-0.05916-0.45355-0.11832-0.9071-0.17748-1.3541l-0.29579-2.0048h-0.99255z"/>
    <path d="m50.549 206.51h0.96625v-2.202c0.21034-0.20376 0.36152-0.31551 0.60473-0.31551 0.27607 0 0.40096 0.14461 0.40096 0.61788v1.8996h0.96625v-2.0245c0-0.81507-0.30236-1.3146-1.0123-1.3146-0.4404 0-0.76248 0.23006-1.0057 0.44697l0.04601-0.58501v-1.1306h-0.96625z"/>
    <path d="m54.18 205.6c0 0.55214 0.37467 0.98597 0.96625 0.98597 0.3681 0 0.67704-0.1709 0.95311-0.41411h0.01972l0.07231 0.33523h0.78878v-1.8668c0-0.99912-0.46012-1.4724-1.2949-1.4724-0.5127 0-0.9794 0.17747-1.3935 0.42725l0.3418 0.6376c0.31551-0.18405 0.59158-0.29579 0.86766-0.29579 0.34838 0 0.49299 0.18405 0.51271 0.47327-1.2883 0.13146-1.8339 0.50613-1.8339 1.1897zm0.92024-0.0723c0-0.24978 0.22349-0.44697 0.91367-0.539v0.57187c-0.1709 0.1709-0.31551 0.27607-0.539 0.27607-0.23006 0-0.37467-0.0986-0.37467-0.30894z"/>
    <path d="m57.934 205.32c0 0.75592 0.31551 1.262 1.124 1.262 0.31551 0 0.55214-0.0657 0.72305-0.11832l-0.15118-0.70333c-0.08545 0.0329-0.20377 0.0657-0.30894 0.0657-0.25635 0-0.42068-0.15119-0.42068-0.51928v-1.3081h0.7822v-0.75591h-0.7822v-0.86766h-0.80192l-0.11174 0.86766-0.49956 0.0394v0.71647h0.44697z"/>
    <path d="m61.522 204.88c0 1.0648 0.52585 1.709 1.3344 1.709 0.31551 0 0.6376-0.1709 0.86766-0.40096h0.02629l0.06573 0.32208h0.78878v-4.6078h-0.96625v1.1109l0.03944 0.49956c-0.22349-0.21034-0.4404-0.3418-0.80192-0.3418-0.69018 0-1.3541 0.64417-1.3541 1.709zm0.99255-0.0131c0-0.61787 0.27607-0.90709 0.58501-0.90709 0.17748 0 0.3681 0.0526 0.539 0.21034v1.3344c-0.15776 0.21691-0.32208 0.29579-0.53243 0.29579-0.37467 0-0.59158-0.28922-0.59158-0.93339z"/>
    <path d="m65.264 204.88c0 1.0846 0.76248 1.709 1.5907 1.709 0.82164 0 1.5841-0.62445 1.5841-1.709s-0.76248-1.709-1.5841-1.709c-0.82822 0-1.5907 0.62445-1.5907 1.709zm0.99255 0c0-0.56529 0.19719-0.92682 0.59816-0.92682 0.39439 0 0.59816 0.36153 0.59816 0.92682s-0.20377 0.92681-0.59816 0.92681c-0.40096 0-0.59816-0.36152-0.59816-0.92681z"/>
    <path d="m70.606 205.32c0 0.75592 0.31551 1.262 1.124 1.262 0.31551 0 0.55214-0.0657 0.72305-0.11832l-0.15118-0.70333c-0.08545 0.0329-0.20377 0.0657-0.30894 0.0657-0.25635 0-0.42068-0.15119-0.42068-0.51928v-1.3081h0.7822v-0.75591h-0.7822v-0.86766h-0.80192l-0.11174 0.86766-0.49956 0.0394v0.71647h0.44697z"/>
    <path d="m72.99 206.51h0.96625v-2.202c0.21034-0.20376 0.36152-0.31551 0.60473-0.31551 0.27607 0 0.40096 0.14461 0.40096 0.61788v1.8996h0.96625v-2.0245c0-0.81507-0.30236-1.3146-1.0123-1.3146-0.4404 0-0.76248 0.23006-1.0057 0.44697l0.04601-0.58501v-1.1306h-0.96625z"/>
    <path d="m76.548 204.88c0 1.078 0.71647 1.709 1.6499 1.709 0.38782 0 0.82164-0.13804 1.1569-0.3681l-0.32208-0.58501c-0.23663 0.14461-0.46012 0.21691-0.70333 0.21691-0.43383 0-0.76249-0.21691-0.84794-0.7099h1.9522c0.01972-0.0789 0.03944-0.23663 0.03944-0.40753 0-0.88738-0.46012-1.5644-1.3869-1.5644-0.7822 0-1.5381 0.65074-1.5381 1.709zm0.92681-0.33523c0.06573-0.43383 0.32866-0.6376 0.63102-0.6376 0.38782 0 0.54557 0.26293 0.54557 0.6376z"/>
    <path d="m80.175 206.98-0.1709 0.73619c0.13146 0.0394 0.26293 0.0657 0.46012 0.0657 0.76906 0 1.1174-0.42068 1.4264-1.2423l1.1306-3.2932h-0.92681l-0.39439 1.4001c-0.07888 0.30894-0.15118 0.61787-0.22349 0.92681h-0.02629c-0.08545-0.32208-0.16433-0.63102-0.25635-0.92681l-0.46669-1.4001h-0.97283l1.2555 3.1748-0.04601 0.1709c-0.08545 0.25635-0.24978 0.42726-0.57186 0.42726-0.07231 0-0.15776-0.0263-0.21691-0.0394z"/>
    <path d="m84.976 206.51h1.2686c1.2555 0 2.0968-0.69018 2.0968-2.1626 0-1.4724-0.84136-2.1231-2.156-2.1231h-1.2095zm0.97283-0.7822v-2.7213h0.18405c0.72305 0 1.216 0.31551 1.216 1.3409s-0.49299 1.3804-1.216 1.3804z"/>
    <path d="m90.891 206.59c1.1569 0 1.9457-0.84137 1.9457-2.2414 0-1.3935-0.78878-2.202-1.9457-2.202-1.1503 0-1.9457 0.80192-1.9457 2.202s0.79535 2.2414 1.9457 2.2414zm0-0.83479c-0.57844 0-0.95311-0.54557-0.95311-1.4067 0-0.85451 0.37467-1.3672 0.95311-1.3672 0.58501 0 0.95311 0.5127 0.95311 1.3672 0 0.86109-0.3681 1.4067-0.95311 1.4067z"/>
    <path d="m94.155 204.99h0.84794c-0.07888-0.7822 0.90709-1.0254 0.90709-1.8405 0-0.77563-0.55872-1.124-1.3015-1.124-0.48641 0-0.90052 0.24321-1.1963 0.59816l0.53242 0.48641c0.17748-0.17747 0.35495-0.30236 0.59816-0.30236 0.26293 0 0.4404 0.14461 0.4404 0.4141 0 0.49299-0.95968 0.86766-0.82822 1.7682zm-0.15776 0.99255c0 0.3418 0.24321 0.60473 0.57844 0.60473s0.58501-0.26293 0.58501-0.60473c0-0.34838-0.24978-0.61131-0.58501-0.61131s-0.57844 0.26293-0.57844 0.61131z"/>
   </g>
   <g aria-label="6. What do they HEAR?">
    <path d="m-55.459 142.36c-0.28922 0-0.56529-0.21034-0.65074-0.86765 0.19062-0.30237 0.42068-0.41411 0.63102-0.41411 0.31551 0 0.54557 0.16433 0.54557 0.60473 0 0.47326-0.23663 0.67703-0.52585 0.67703zm1.3475-3.1091c-0.26293-0.2695-0.66389-0.49956-1.216-0.49956-0.8808 0-1.6893 0.70333-1.6893 2.2612 0 1.4658 0.76906 2.0705 1.5776 2.0705 0.75591 0 1.3869-0.53243 1.3869-1.4001 0-0.88081-0.52585-1.2883-1.2423-1.2883-0.25635 0-0.61788 0.16433-0.83479 0.4404 0.03287-0.97283 0.40096-1.3015 0.86108-1.3015 0.24321 0 0.50613 0.13803 0.65074 0.29579z"/>
    <path d="m-53.419 142.48c0 0.3418 0.24978 0.60473 0.58501 0.60473 0.33523 0 0.58501-0.26293 0.58501-0.60473 0-0.34838-0.24978-0.61131-0.58501-0.61131-0.33523 0-0.58501 0.26293-0.58501 0.61131z"/>
    <path d="m-49.588 143.01h1.1963l0.40754-1.9456c0.06573-0.32866 0.11832-0.67704 0.1709-0.99255h0.02629c0.04601 0.31551 0.10517 0.66389 0.1709 0.99255l0.42068 1.9456h1.216l0.76249-4.2857h-0.92681l-0.29579 2.0048c-0.05916 0.4404-0.11832 0.89395-0.1709 1.3541h-0.02629c-0.08545-0.46012-0.1709-0.92025-0.25635-1.3541l-0.46669-2.0048h-0.82164l-0.46012 2.0048c-0.08545 0.44697-0.1709 0.90052-0.24978 1.3541h-0.02629c-0.05916-0.45355-0.11832-0.9071-0.17748-1.3541l-0.29579-2.0048h-0.99254z"/>
    <path d="m-44.701 143.01h0.96625v-2.202c0.21034-0.20376 0.36152-0.31551 0.60473-0.31551 0.27607 0 0.40096 0.14461 0.40096 0.61788v1.8996h0.96625v-2.0245c0-0.81507-0.30236-1.3146-1.0123-1.3146-0.4404 0-0.76249 0.23006-1.0057 0.44697l0.04601-0.58501v-1.1306h-0.96625z"/>
    <path d="m-41.07 142.1c0 0.55214 0.37467 0.98597 0.96625 0.98597 0.3681 0 0.67703-0.1709 0.95311-0.41411h0.01972l0.07231 0.33523h0.78878v-1.8668c0-0.99912-0.46012-1.4724-1.2949-1.4724-0.51271 0-0.9794 0.17747-1.3935 0.42725l0.3418 0.6376c0.31551-0.18405 0.59158-0.29579 0.86766-0.29579 0.34838 0 0.49299 0.18405 0.5127 0.47327-1.2883 0.13146-1.8339 0.50613-1.8339 1.1897zm0.92024-0.0723c0-0.24978 0.22349-0.44697 0.91367-0.539v0.57187c-0.1709 0.1709-0.31551 0.27607-0.539 0.27607-0.23006 0-0.37467-0.0986-0.37467-0.30894z"/>
    <path d="m-37.316 141.82c0 0.75592 0.31551 1.262 1.124 1.262 0.31551 0 0.55214-0.0657 0.72305-0.11832l-0.15118-0.70333c-0.08545 0.0329-0.20377 0.0657-0.30894 0.0657-0.25635 0-0.42068-0.15119-0.42068-0.51928v-1.3081h0.7822v-0.75591h-0.7822v-0.86766h-0.80192l-0.11174 0.86766-0.49956 0.0394v0.71647h0.44697z"/>
    <path d="m-33.728 141.38c0 1.0648 0.52585 1.709 1.3343 1.709 0.31551 0 0.6376-0.1709 0.86766-0.40096h0.02629l0.06573 0.32208h0.78878v-4.6078h-0.96625v1.1109l0.03944 0.49956c-0.22349-0.21034-0.4404-0.3418-0.80192-0.3418-0.69018 0-1.3541 0.64417-1.3541 1.709zm0.99254-0.0131c0-0.61787 0.27607-0.90709 0.58501-0.90709 0.17748 0 0.3681 0.0526 0.539 0.21034v1.3344c-0.15776 0.21691-0.32208 0.29579-0.53242 0.29579-0.37467 0-0.59158-0.28922-0.59158-0.93339z"/>
    <path d="m-29.986 141.38c0 1.0846 0.76248 1.709 1.5907 1.709 0.82164 0 1.5841-0.62445 1.5841-1.709s-0.76248-1.709-1.5841-1.709c-0.82822 0-1.5907 0.62445-1.5907 1.709zm0.99254 0c0-0.56529 0.1972-0.92682 0.59816-0.92682 0.39439 0 0.59816 0.36153 0.59816 0.92682s-0.20377 0.92681-0.59816 0.92681c-0.40096 0-0.59816-0.36152-0.59816-0.92681z"/>
    <path d="m-24.645 141.82c0 0.75592 0.31551 1.262 1.124 1.262 0.31551 0 0.55214-0.0657 0.72305-0.11832l-0.15118-0.70333c-0.08545 0.0329-0.20377 0.0657-0.30894 0.0657-0.25635 0-0.42068-0.15119-0.42068-0.51928v-1.3081h0.7822v-0.75591h-0.7822v-0.86766h-0.80192l-0.11174 0.86766-0.49956 0.0394v0.71647h0.44697z"/>
    <path d="m-22.26 143.01h0.96625v-2.202c0.21034-0.20376 0.36152-0.31551 0.60473-0.31551 0.27607 0 0.40096 0.14461 0.40096 0.61788v1.8996h0.96625v-2.0245c0-0.81507-0.30236-1.3146-1.0123-1.3146-0.4404 0-0.76249 0.23006-1.0057 0.44697l0.04601-0.58501v-1.1306h-0.96625z"/>
    <path d="m-18.702 141.38c0 1.078 0.71647 1.709 1.6499 1.709 0.38782 0 0.82164-0.13804 1.1569-0.3681l-0.32208-0.58501c-0.23663 0.14461-0.46012 0.21691-0.70333 0.21691-0.43383 0-0.76248-0.21691-0.84794-0.7099h1.9522c0.01972-0.0789 0.03944-0.23663 0.03944-0.40753 0-0.88738-0.46012-1.5644-1.3869-1.5644-0.7822 0-1.5381 0.65074-1.5381 1.709zm0.92681-0.33523c0.06573-0.43383 0.32866-0.6376 0.63102-0.6376 0.38782 0 0.54557 0.26293 0.54557 0.6376z"/>
    <path d="m-15.075 143.48-0.1709 0.73619c0.13146 0.0394 0.26293 0.0657 0.46012 0.0657 0.76906 0 1.1174-0.42068 1.4264-1.2423l1.1306-3.2932h-0.92681l-0.39439 1.4001c-0.07888 0.30894-0.15118 0.61787-0.22349 0.92681h-0.02629c-0.08545-0.32208-0.16433-0.63102-0.25635-0.92681l-0.46669-1.4001h-0.97283l1.2555 3.1748-0.04601 0.1709c-0.08545 0.25635-0.24978 0.42726-0.57186 0.42726-0.0723 0-0.15776-0.0263-0.21691-0.0394z"/>
    <path d="m-10.274 143.01h0.97283v-1.7879h1.479v1.7879h0.96625v-4.2857h-0.96625v1.6499h-1.479v-1.6499h-0.97283z"/>
    <path d="m-5.8572 143.01h2.7541v-0.81507h-1.7813v-0.98597h1.4592v-0.8085h-1.4592v-0.86108h1.7156v-0.81507h-2.6884z"/>
    <path d="m-1.362 141.23 0.10517-0.39439c0.11832-0.42725 0.23663-0.92681 0.33523-1.3804h0.026293c0.11832 0.44697 0.23006 0.95311 0.34838 1.3804l0.10517 0.39439zm1.3804 1.7748h1.0254l-1.3475-4.2857h-1.1569l-1.3475 4.2857h0.98597l0.26293-1.0188h1.3146z"/>
    <path d="m2.4591 139.49h0.49299c0.50613 0 0.7822 0.14461 0.7822 0.5653 0 0.42068-0.27607 0.63759-0.7822 0.63759h-0.49299zm2.4321 3.5166-0.96625-1.7156c0.45355-0.20377 0.76249-0.60473 0.76249-1.2358 0-1.0188-0.74934-1.3344-1.6564-1.3344h-1.5447v4.2857h0.97283v-1.5447h0.52585l0.82164 1.5447z"/>
    <path d="m6.043 141.49h0.84794c-0.078878-0.7822 0.90709-1.0254 0.90709-1.8405 0-0.77563-0.55872-1.124-1.3015-1.124-0.48641 0-0.90052 0.24321-1.1963 0.59816l0.53243 0.48641c0.17748-0.17747 0.35495-0.30236 0.59816-0.30236 0.26293 0 0.4404 0.14461 0.4404 0.4141 0 0.49299-0.95968 0.86766-0.82822 1.7682zm-0.15776 0.99255c0 0.3418 0.24321 0.60473 0.57844 0.60473 0.33523 0 0.58501-0.26293 0.58501-0.60473 0-0.34838-0.24978-0.61131-0.58501-0.61131-0.33523 0-0.57844 0.26293-0.57844 0.61131z"/>
   </g>
   <g aria-label="7. What do they  THINK and FEEL?">
    <path d="m40.287 115.68h0.97283c0.07231-1.6301 0.21034-2.4124 1.1766-3.5824v-0.59158h-2.9053v0.81507h1.8733c-0.78878 1.0911-1.0386 1.9719-1.1174 3.3589z"/>
    <path d="m43.109 115.16c0 0.34181 0.24978 0.60473 0.58501 0.60473 0.33523 0 0.58501-0.26292 0.58501-0.60473 0-0.34837-0.24978-0.6113-0.58501-0.6113-0.33523 0-0.58501 0.26293-0.58501 0.6113z"/>
    <path d="m46.94 115.68h1.1963l0.40754-1.9457c0.06573-0.32865 0.11832-0.67703 0.1709-0.99254h0.02629c0.04601 0.31551 0.10517 0.66389 0.1709 0.99254l0.42068 1.9457h1.216l0.76248-4.2857h-0.92681l-0.29579 2.0048c-0.05916 0.4404-0.11832 0.89395-0.1709 1.3541h-0.02629c-0.08545-0.46012-0.1709-0.92024-0.25635-1.3541l-0.46669-2.0048h-0.82164l-0.46012 2.0048c-0.08545 0.44698-0.1709 0.90052-0.24978 1.3541h-0.02629c-0.05916-0.45355-0.11832-0.90709-0.17748-1.3541l-0.29579-2.0048h-0.99255z"/>
    <path d="m51.827 115.68h0.96625v-2.202c0.21034-0.20377 0.36152-0.31551 0.60473-0.31551 0.27607 0 0.40096 0.14461 0.40096 0.61788v1.8996h0.96625v-2.0245c0-0.81507-0.30236-1.3146-1.0123-1.3146-0.4404 0-0.76248 0.23006-1.0057 0.44697l0.04601-0.58501v-1.1306h-0.96625z"/>
    <path d="m55.457 114.78c0 0.55215 0.37467 0.98597 0.96625 0.98597 0.3681 0 0.67704-0.1709 0.95311-0.4141h0.01972l0.0723 0.33523h0.78878v-1.8668c0-0.99912-0.46012-1.4724-1.2949-1.4724-0.51271 0-0.9794 0.17747-1.3935 0.42725l0.3418 0.6376c0.31551-0.18405 0.59158-0.2958 0.86766-0.2958 0.34838 0 0.49299 0.18405 0.51271 0.47327-1.2883 0.13146-1.8339 0.50613-1.8339 1.1897zm0.92024-0.0723c0-0.24978 0.22349-0.44698 0.91367-0.539v0.57186c-0.1709 0.1709-0.31551 0.27607-0.539 0.27607-0.23006 0-0.37467-0.0986-0.37467-0.30893z"/>
    <path d="m59.212 114.5c0 0.75591 0.31551 1.262 1.124 1.262 0.31551 0 0.55214-0.0657 0.72305-0.11831l-0.15118-0.70333c-0.08545 0.0329-0.20377 0.0657-0.30894 0.0657-0.25635 0-0.42068-0.15118-0.42068-0.51928v-1.308h0.7822v-0.75592h-0.7822v-0.86765h-0.80192l-0.11174 0.86765-0.49956 0.0394v0.71648h0.44698z"/>
    <path d="m62.8 114.05c0 1.0648 0.52585 1.709 1.3344 1.709 0.31551 0 0.6376-0.1709 0.86766-0.40096h0.02629l0.06573 0.32209h0.78878v-4.6078h-0.96625v1.1109l0.03944 0.49956c-0.22349-0.21034-0.4404-0.3418-0.80192-0.3418-0.69018 0-1.3541 0.64416-1.3541 1.709zm0.99255-0.0132c0-0.61788 0.27607-0.9071 0.58501-0.9071 0.17748 0 0.3681 0.0526 0.539 0.21034v1.3344c-0.15776 0.21692-0.32208 0.2958-0.53242 0.2958-0.37467 0-0.59158-0.28922-0.59158-0.93339z"/>
    <path d="m66.542 114.05c0 1.0846 0.76249 1.709 1.5907 1.709 0.82164 0 1.5841-0.62445 1.5841-1.709 0-1.0846-0.76249-1.709-1.5841-1.709-0.82822 0-1.5907 0.62445-1.5907 1.709zm0.99255 0c0-0.5653 0.19719-0.92682 0.59816-0.92682 0.39439 0 0.59816 0.36152 0.59816 0.92682 0 0.56529-0.20377 0.92681-0.59816 0.92681-0.40096 0-0.59816-0.36152-0.59816-0.92681z"/>
    <path d="m71.883 114.5c0 0.75591 0.31551 1.262 1.124 1.262 0.31551 0 0.55214-0.0657 0.72305-0.11831l-0.15118-0.70333c-0.08545 0.0329-0.20377 0.0657-0.30894 0.0657-0.25635 0-0.42068-0.15118-0.42068-0.51928v-1.308h0.7822v-0.75592h-0.7822v-0.86765h-0.80192l-0.11174 0.86765-0.49956 0.0394v0.71648h0.44697z"/>
    <path d="m74.268 115.68h0.96625v-2.202c0.21034-0.20377 0.36152-0.31551 0.60473-0.31551 0.27607 0 0.40096 0.14461 0.40096 0.61788v1.8996h0.96625v-2.0245c0-0.81507-0.30236-1.3146-1.0123-1.3146-0.4404 0-0.76248 0.23006-1.0057 0.44697l0.04601-0.58501v-1.1306h-0.96625z"/>
    <path d="m77.826 114.05c0 1.078 0.71647 1.709 1.6499 1.709 0.38782 0 0.82164-0.13803 1.1569-0.36809l-0.32208-0.58501c-0.23663 0.14461-0.46012 0.21691-0.70333 0.21691-0.43383 0-0.76248-0.21691-0.84794-0.7099h1.9522c0.01972-0.0789 0.03944-0.23663 0.03944-0.40753 0-0.88738-0.46012-1.5644-1.3869-1.5644-0.7822 0-1.5381 0.65074-1.5381 1.709zm0.92682-0.33524c0.06573-0.43382 0.32866-0.63759 0.63102-0.63759 0.38782 0 0.54557 0.26292 0.54557 0.63759z"/>
    <path d="m81.453 116.16-0.1709 0.7362c0.13146 0.0394 0.26293 0.0657 0.46012 0.0657 0.76906 0 1.1174-0.42068 1.4264-1.2423l1.1306-3.2932h-0.92681l-0.39439 1.4001c-0.07888 0.30894-0.15118 0.61788-0.22349 0.92682h-0.02629c-0.08545-0.32209-0.16433-0.63102-0.25635-0.92682l-0.46669-1.4001h-0.97283l1.2555 3.1748-0.04601 0.1709c-0.08545 0.25635-0.24978 0.42725-0.57186 0.42725-0.07231 0-0.15776-0.0263-0.21691-0.0394z"/>
    <path d="m40.583 123.97h0.96625v-3.4706h1.1766v-0.81507h-3.326v0.81507h1.1832z"/>
    <path d="m43.388 123.97h0.97283v-1.7879h1.479v1.7879h0.96625v-4.2857h-0.96625v1.6499h-1.479v-1.6499h-0.97283z"/>
    <path d="m47.804 123.97h0.97283v-4.2857h-0.97283z"/>
    <path d="m49.781 123.97h0.92682v-1.5184c0-0.50614-0.07888-1.078-0.12489-1.5513h0.02629l0.42068 0.93339 1.1174 2.1363h0.99255v-4.2857h-0.92024v1.5118c0 0.50613 0.07888 1.1109 0.12489 1.5644h-0.02629l-0.42725-0.94654-1.1174-2.1297h-0.99255z"/>
    <path d="m54.146 123.97h0.97283v-1.1503l0.49956-0.65731 1.0386 1.8076h1.0649l-1.5381-2.5767 1.2949-1.709h-1.0583l-1.2818 1.755h-0.01972v-1.755h-0.97283z"/>
    <path d="m59.36 123.06c0 0.55214 0.37467 0.98597 0.96625 0.98597 0.3681 0 0.67704-0.1709 0.95311-0.41411h0.01972l0.0723 0.33523h0.78878v-1.8668c0-0.99912-0.46012-1.4724-1.2949-1.4724-0.51271 0-0.9794 0.17748-1.3935 0.42726l0.3418 0.63759c0.31551-0.18404 0.59158-0.29579 0.86766-0.29579 0.34838 0 0.49299 0.18405 0.5127 0.47327-1.2883 0.13146-1.8339 0.50613-1.8339 1.1897zm0.92024-0.0723c0-0.24978 0.22349-0.44698 0.91367-0.539v0.57186c-0.1709 0.1709-0.31551 0.27607-0.539 0.27607-0.23006 0-0.37467-0.0986-0.37467-0.30893z"/>
    <path d="m62.983 123.97h0.96625v-2.202c0.21034-0.20377 0.36152-0.31551 0.60473-0.31551 0.27607 0 0.40096 0.14461 0.40096 0.61787v1.8996h0.96625v-2.0245c0-0.81507-0.30236-1.3146-1.0123-1.3146-0.4404 0-0.76906 0.23006-1.0451 0.49299h-0.02629l-0.06573-0.41411h-0.78878z"/>
    <path d="m66.574 122.34c0 1.0648 0.52585 1.709 1.3343 1.709 0.31551 0 0.6376-0.1709 0.86766-0.40096h0.02629l0.06573 0.32208h0.78878v-4.6078h-0.96625v1.1109l0.03944 0.49956c-0.22349-0.21034-0.4404-0.34181-0.80192-0.34181-0.69018 0-1.3541 0.64417-1.3541 1.709zm0.99255-0.0131c0-0.61788 0.27607-0.9071 0.58501-0.9071 0.17748 0 0.3681 0.0526 0.539 0.21034v1.3344c-0.15776 0.21692-0.32208 0.29579-0.53242 0.29579-0.37467 0-0.59158-0.28921-0.59158-0.93338z"/>
    <path d="m71.953 123.97h0.97283v-1.663h1.479v-0.81507h-1.479v-0.99255h1.7353v-0.81507h-2.7081z"/>
    <path d="m75.393 123.97h2.7542v-0.81507h-1.7813v-0.98597h1.4592v-0.8085h-1.4592v-0.86108h1.7156v-0.81507h-2.6884z"/>
    <path d="m78.988 123.97h2.7542v-0.81507h-1.7813v-0.98597h1.4592v-0.8085h-1.4592v-0.86108h1.7156v-0.81507h-2.6884z"/>
    <path d="m82.583 123.97h2.6621v-0.81507h-1.6893v-3.4706h-0.97283z"/>
    <path d="m86.138 122.45h0.84794c-0.07888-0.78221 0.9071-1.0254 0.9071-1.8405 0-0.77564-0.55872-1.124-1.3015-1.124-0.48641 0-0.90052 0.2432-1.1963 0.59815l0.53242 0.48642c0.17748-0.17748 0.35495-0.30237 0.59816-0.30237 0.26293 0 0.4404 0.14461 0.4404 0.41411 0 0.49299-0.95968 0.86766-0.82822 1.7682zm-0.15776 0.99254c0 0.34181 0.24321 0.60473 0.57844 0.60473 0.33523 0 0.58501-0.26292 0.58501-0.60473 0-0.34837-0.24978-0.6113-0.58501-0.6113-0.33523 0-0.57844 0.26293-0.57844 0.6113z"/>
   </g>
   <g aria-label="PAINS">
    <path d="m42.387 139.5h0.97283v-1.4527h0.59158c0.9071 0 1.6762-0.44698 1.6762-1.4527 0-1.0386-0.74277-1.3804-1.6762-1.3804h-1.5644zm0.97283-2.2217v-1.2949h0.53242c0.51271 0 0.78878 0.16433 0.78878 0.6113 0 0.44698-0.25635 0.68361-0.78878 0.68361z"/>
    <path d="m46.934 137.72 0.10517-0.39439c0.11832-0.42725 0.23663-0.92681 0.33523-1.3804h0.02629c0.11832 0.44698 0.23006 0.95311 0.34838 1.3804l0.10517 0.39439zm1.3804 1.7748h1.0254l-1.3475-4.2857h-1.1569l-1.3475 4.2857h0.98597l0.26293-1.0188h1.3146z"/>
    <path d="m49.782 139.5h0.97283v-4.2857h-0.97283z"/>
    <path d="m51.759 139.5h0.92681v-1.5184c0-0.50614-0.07888-1.078-0.12489-1.5513h0.02629l0.42068 0.93339 1.1174 2.1363h0.99255v-4.2857h-0.92024v1.5118c0 0.50614 0.07888 1.1109 0.12489 1.5644h-0.02629l-0.42726-0.94653-1.1174-2.1297h-0.99255z"/>
    <path d="m55.848 138.96c0.4404 0.40753 1.032 0.61787 1.5907 0.61787 1.0188 0 1.6104-0.61787 1.6104-1.3278 0-0.60473-0.32866-0.95311-0.84794-1.1634l-0.54557-0.22349c-0.37467-0.15118-0.65732-0.24321-0.65732-0.50613 0-0.24321 0.21691-0.38782 0.54557-0.38782 0.3418 0 0.6113 0.12489 0.89395 0.34181l0.48641-0.61131c-0.3681-0.36809-0.88738-0.56529-1.3804-0.56529-0.88738 0-1.525 0.56529-1.525 1.2752 0 0.62445 0.42068 0.99255 0.86766 1.17l0.55214 0.23664c0.37467 0.15775 0.61788 0.2432 0.61788 0.5127 0 0.25636-0.1972 0.41411-0.59816 0.41411-0.35495 0-0.74934-0.18405-1.0517-0.44697z"/>
   </g>
   <g aria-label="GAINS">
    <path d="m73.934 137.38c0 1.4395 0.92024 2.1954 2.0771 2.1954 0.59816 0 1.1306-0.24978 1.4395-0.51928v-1.9719h-1.571v0.78878h0.7099v0.73619c-0.10517 0.0854-0.28264 0.13146-0.45355 0.13146-0.8085 0-1.2095-0.5127-1.2095-1.3935 0-0.86108 0.47327-1.3804 1.1306-1.3804 0.3681 0 0.57186 0.12489 0.78878 0.32209l0.53242-0.59816c-0.28922-0.28922-0.72962-0.55872-1.3343-0.55872-1.1634 0-2.11 0.82822-2.11 2.248z"/>
    <path d="m79.172 137.72 0.10517-0.39439c0.11832-0.42725 0.23663-0.92681 0.33523-1.3804h0.02629c0.11832 0.44698 0.23006 0.95311 0.34838 1.3804l0.10517 0.39439zm1.3804 1.7748h1.0254l-1.3475-4.2857h-1.1569l-1.3475 4.2857h0.98597l0.26293-1.0188h1.3146z"/>
    <path d="m82.02 139.5h0.97283v-4.2857h-0.97283z"/>
    <path d="m83.997 139.5h0.92681v-1.5184c0-0.50614-0.07888-1.078-0.12489-1.5513h0.02629l0.42068 0.93339 1.1174 2.1363h0.99255v-4.2857h-0.92024v1.5118c0 0.50614 0.07888 1.1109 0.12489 1.5644h-0.02629l-0.42726-0.94653-1.1174-2.1297h-0.99255z"/>
    <path d="m88.086 138.96c0.4404 0.40753 1.032 0.61787 1.5907 0.61787 1.0188 0 1.6104-0.61787 1.6104-1.3278 0-0.60473-0.32866-0.95311-0.84794-1.1634l-0.54557-0.22349c-0.37467-0.15118-0.65732-0.24321-0.65732-0.50613 0-0.24321 0.21691-0.38782 0.54557-0.38782 0.3418 0 0.6113 0.12489 0.89395 0.34181l0.48641-0.61131c-0.3681-0.36809-0.88738-0.56529-1.3804-0.56529-0.88738 0-1.525 0.56529-1.525 1.2752 0 0.62445 0.42068 0.99255 0.86766 1.17l0.55214 0.23664c0.37467 0.15775 0.61788 0.2432 0.61788 0.5127 0 0.25636-0.1972 0.41411-0.59816 0.41411-0.35495 0-0.74934-0.18405-1.0517-0.44697z"/>
   </g>
  </g>
  <path d="m66.594 127.39v43.656" fill="#fff" stroke="#fff" stroke-dasharray="0.529167, 1.05833" stroke-width=".52917"/>
 </g>
</svg>
