<?xml version="1.0" encoding="UTF-8"?>
<svg width="169.6mm" height="77.126mm" version="1.1" viewBox="0 0 169.6 77.126" xmlns="http://www.w3.org/2000/svg" xmlns:cc="http://creativecommons.org/ns#" xmlns:dc="http://purl.org/dc/elements/1.1/" xmlns:rdf="http://www.w3.org/1999/02/22-rdf-syntax-ns#">
 <metadata>
  <rdf:RDF>
   <cc:Work rdf:about="">
    <dc:format>image/svg+xml</dc:format>
    <dc:type rdf:resource="http://purl.org/dc/dcmitype/StillImage"/>
    <dc:title/>
   </cc:Work>
  </rdf:RDF>
 </metadata>
 <g transform="translate(-32.433 -103.95)">
  <g stroke-linecap="round" stroke-width=".26458">
   <rect x="60.214" y="104.08" width="35.851" height="16.007" fill="#2f3744" stroke="#7b8694"/>
   <g fill="#e8eaec" aria-label="GameObject">
    <path d="m69.825 110.45c-0.30745 0-0.8927 0.19262-0.8927 1.2039 0 0.87418 0.48895 1.1631 0.889 1.1631 0.21484 0 0.46302-0.0778 0.67786-0.24078v-0.90011h-0.65564v0.22225h0.41857v0.55192c-0.12965 0.0926-0.27781 0.14076-0.41487 0.14076-0.15187 0-0.31485-0.0593-0.4408-0.20373-0.19262-0.21854-0.21855-0.54451-0.21855-0.78528 0-0.21484 0.02593-0.42228 0.11483-0.59267 0.11853-0.22595 0.32597-0.32967 0.51858-0.32967 0.20743 0 0.37042 0.11483 0.4408 0.2704 0.01111 0.0259 0.02222 0.0556 0.05186 0.0741l0.1815-0.18521c-0.13335-0.24077-0.38523-0.38894-0.67046-0.38894z"/>
    <path d="m70.985 111.29 0.12964 0.17039c0.14076-0.14446 0.32967-0.18891 0.48895-0.18891 0.20002 0 0.30004 0.0852 0.34819 0.16299 0.05556 0.0926 0.05186 0.20373 0.05186 0.29263v0.0593h-0.05186c-0.25188 0-0.51858 0-0.73343 0.0778-0.2667 0.0963-0.38523 0.29633-0.38523 0.48154 0 0.24818 0.21484 0.48154 0.56674 0.48154 0.20743 0 0.42228-0.0778 0.60748-0.22965v0.1852h0.25188v-1.0483c0-0.13705-0.0037-0.2667-0.08149-0.40005-0.11112-0.1815-0.32597-0.27781-0.58896-0.27781-0.22595 0-0.4445 0.0704-0.60378 0.23336zm1.0298 0.70009v0.11483c0 0.0852 0 0.19632-0.11483 0.31856-0.06297 0.063-0.22225 0.20002-0.4445 0.20002-0.22595 0-0.3556-0.14446-0.3556-0.29263 0-0.12594 0.0852-0.26299 0.29633-0.31485 0.15558-0.037 0.38153-0.0259 0.55933-0.0259z"/>
    <path d="m72.641 112.78h0.24448v-1.1261c0-0.0815 0.0074-0.15558 0.05556-0.24448 0.05927-0.11112 0.13335-0.15557 0.20373-0.15557 0.05927 0 0.12594 0.037 0.15558 0.12964 0.02222 0.0704 0.01852 0.15187 0.01852 0.22225v1.1742h0.24818v-1.1187c0-0.0889 0.0074-0.15928 0.07038-0.2667 0.02963-0.0444 0.0926-0.15187 0.19632-0.15187 0.05556 0 0.10742 0.0333 0.13335 0.0963 0.03334 0.0704 0.02593 0.16669 0.02593 0.24448v1.2002h0.25188v-1.2039c0-0.14076 0.0037-0.28151-0.07038-0.39634-0.06297-0.0963-0.17039-0.13335-0.263-0.13335-0.16298 0-0.31486 0.0963-0.38153 0.24447-0.02593-0.14076-0.14446-0.24447-0.29633-0.24447-0.14076 0-0.2704 0.0889-0.34819 0.20743l0.0037-0.16669h-0.24818z"/>
    <path d="m75.311 111.05c-0.40376 0-0.77788 0.28892-0.77788 0.90381 0 0.56674 0.3519 0.86678 0.81121 0.86678 0.24448 0 0.46302-0.0889 0.60748-0.263l-0.14817-0.14446c-0.10742 0.12594-0.2704 0.19262-0.43709 0.19262-0.22595 0-0.55562-0.12594-0.57415-0.63342h1.2002c0.01111-0.11482 0.0074-0.22595-0.01111-0.32226-0.07779-0.45561-0.39264-0.60007-0.67046-0.60007zm-0.51118 0.71861c0.05556-0.40006 0.31115-0.51488 0.49266-0.51488 0.27411 0 0.47043 0.24077 0.43709 0.51488z"/>
    <path d="m77.952 111.63c0-0.21484-0.01482-0.50006-0.14076-0.74824-0.15187-0.29634-0.41487-0.43339-0.66675-0.43339-0.34449 0-0.82973 0.2667-0.82973 1.1742s0.47784 1.1928 0.83344 1.1928c0.24818 0 0.51488-0.14076 0.66675-0.44821 0.12224-0.24818 0.13705-0.5334 0.13705-0.73713zm-0.81862-0.94086c0.16298 0 0.36301 0.0963 0.47043 0.36671 0.07779 0.19262 0.0889 0.41487 0.0889 0.60749 0 0.15187-0.0074 0.38894-0.10372 0.58526-0.10742 0.22595-0.28522 0.31485-0.4408 0.31485-0.25929 0-0.57785-0.24077-0.57785-0.97419 0-0.68898 0.32226-0.90012 0.56303-0.90012z"/>
    <path d="m78.278 110.32v2.4633h0.1741l0.0926-0.22225c0.11112 0.16669 0.29633 0.2667 0.50006 0.2667 0.34819 0 0.7075-0.29633 0.7075-0.91122 0-0.58897-0.34819-0.86307-0.68157-0.86307-0.21484 0-0.41487 0.11483-0.52229 0.30003v-0.94826c0-0.0222 0.0037-0.0296 0.02223-0.0444 0.0074-4e-3 0.02593-0.0185 0.02222-0.0408zm0.70009 0.96308c0.15928 0 0.49636 0.0926 0.49636 0.69268 0 0.51488-0.33338 0.61119-0.50006 0.61119-0.11483 0-0.37042-0.0444-0.41487-0.37041-0.01111-0.0852-0.01111-0.18521-0.01111-0.33338 0-0.15187 0.0074-0.263 0.04445-0.3556 0.06297-0.15187 0.21855-0.24448 0.38523-0.24448z"/>
    <path d="m80.375 111.09v0.22225h0.63341v1.4039c0 0.0926-0.0037 0.1815-0.04445 0.2704-0.06297 0.13706-0.19632 0.21484-0.34078 0.21484-0.20373 0-0.31486-0.14816-0.32967-0.17039-0.01482-0.0259-0.0074-0.0482-0.03334-0.0667l-0.17039 0.22966c0.12224 0.15187 0.30745 0.23706 0.51488 0.23706 0.24448 0 0.47784-0.11483 0.59267-0.33708 0.07408-0.14446 0.07779-0.28151 0.07779-0.42598v-1.578zm0.77047-0.73343c-0.10742 0-0.19262 0.0852-0.19262 0.18891 0 0.10372 0.0852 0.18892 0.19262 0.18892 0.10372 0 0.18891-0.0852 0.18891-0.18892 0-0.10371-0.0852-0.18891-0.18891-0.18891z"/>
    <path d="m82.72 111.05c-0.40376 0-0.77788 0.28892-0.77788 0.90381 0 0.56674 0.3519 0.86678 0.81121 0.86678 0.24448 0 0.46302-0.0889 0.60748-0.263l-0.14817-0.14446c-0.10742 0.12594-0.2704 0.19262-0.43709 0.19262-0.22595 0-0.55562-0.12594-0.57415-0.63342h1.2002c0.01111-0.11482 0.0074-0.22595-0.01111-0.32226-0.07779-0.45561-0.39264-0.60007-0.67046-0.60007zm-0.51118 0.71861c0.05556-0.40006 0.31115-0.51488 0.49266-0.51488 0.27411 0 0.47043 0.24077 0.43709 0.51488z"/>
    <path d="m85.305 111.37c-0.13335-0.19632-0.3593-0.31485-0.63341-0.31485-0.49636 0-0.84826 0.37412-0.84826 0.88159 0 0.51118 0.3519 0.889 0.83344 0.889 0.23336 0 0.46302-0.0963 0.6223-0.2704l-0.15187-0.1778c-0.11483 0.12965-0.28152 0.20373-0.4482 0.20373-0.32967 0-0.58156-0.27411-0.58156-0.67046 0-0.38523 0.24818-0.626 0.55933-0.626 0.28892 0 0.42598 0.20002 0.43709 0.22225 0.01482 0.0259-0.0074 0.063 0.02222 0.0852z"/>
    <path d="m86.165 110.64-0.03334 0.45561h-0.40375l-0.0037 0.21855h0.39635c-0.02222 0.28892-0.03334 0.57785-0.03334 0.86307 0 0.15187 0 0.32226 0.10001 0.46302 0.08149 0.11113 0.21114 0.1778 0.38523 0.1778 0.20002 0 0.39635-0.0852 0.54081-0.18891l-0.08149-0.21114c-0.14446 0.10742-0.27781 0.15558-0.38153 0.15558-0.12594 0-0.25559-0.0704-0.28522-0.27411 0-0.0148-0.01111-0.0778-0.01111-0.32597 0-0.21855 0.01111-0.4408 0.03334-0.65934h0.55563v-0.22225h-0.55192s0.02593-0.30374 0.04445-0.40005c0.0037-0.037 0.03334-0.0593 0.01852-0.10002z"/>
   </g>
   <rect x="60.214" y="135.83" width="35.851" height="16.007" fill="#2f3744" stroke="#7b8694"/>
   <g fill="#e8eaec" aria-label="Attribute">
    <path d="m69.777 144.54h0.25559l0.22595-0.67787h0.72972l0.25559 0.67416h0.2704l-0.8927-2.3484h-0.02963zm1.1557-0.87789h-0.626l0.30004-0.87789z"/>
    <path d="m72.274 142.39-0.03334 0.45561h-0.40375l-0.0037 0.21855h0.39635c-0.02223 0.28892-0.03334 0.57785-0.03334 0.86307 0 0.15187 0 0.32226 0.10001 0.46302 0.08149 0.11112 0.21114 0.1778 0.38523 0.1778 0.20003 0 0.39635-0.0852 0.54081-0.18891l-0.08149-0.21114c-0.14446 0.10742-0.27781 0.15557-0.38153 0.15557-0.12594 0-0.25559-0.0704-0.28522-0.27411 0-0.0148-0.01111-0.0778-0.01111-0.32596 0-0.21855 0.01111-0.4408 0.03334-0.65934h0.55562v-0.22225h-0.55193s0.02593-0.30375 0.04445-0.40005c0.0037-0.037 0.03334-0.0593 0.01852-0.10002z"/>
    <path d="m74.126 142.39-0.03334 0.45561h-0.40375l-0.0037 0.21855h0.39635c-0.02222 0.28892-0.03334 0.57785-0.03334 0.86307 0 0.15187 0 0.32226 0.10001 0.46302 0.08149 0.11112 0.21114 0.1778 0.38523 0.1778 0.20003 0 0.39635-0.0852 0.54081-0.18891l-0.08149-0.21114c-0.14446 0.10742-0.27781 0.15557-0.38153 0.15557-0.12594 0-0.25559-0.0704-0.28522-0.27411 0-0.0148-0.01111-0.0778-0.01111-0.32596 0-0.21855 0.01111-0.4408 0.03334-0.65934h0.55562v-0.22225h-0.55192s0.02593-0.30375 0.04445-0.40005c0.0037-0.037 0.03334-0.0593 0.01852-0.10002z"/>
    <path d="m75.648 142.84v1.6928h0.2667v-0.82233c0-0.10372 0.0037-0.21484 0.11853-0.39635 0.15558-0.24447 0.3556-0.28522 0.47784-0.28522 0.14076 0 0.22966 0.0667 0.27781 0.12594 0.02222 0.0296 0.03334 0.0593 0.06297 0.0852l0.12594-0.25559c-0.10742-0.11112-0.263-0.18521-0.45191-0.18521-0.24818 0-0.50006 0.12595-0.61119 0.36672l0.01111-0.32597z"/>
    <path d="m77.526 142.84v0.21854h0.40746v1.2631h-0.42968v0.21114h1.0964v-0.21114h-0.39635v-1.4817zm0.54822-0.73343c-0.10742 0-0.19262 0.0852-0.19262 0.18891 0 0.10372 0.0852 0.18892 0.19262 0.18892 0.10742 0 0.19262-0.0852 0.19262-0.18892 0-0.10371-0.0852-0.18891-0.19262-0.18891z"/>
    <path d="m79.204 142.07v2.4633h0.1741l0.0926-0.22225c0.11112 0.16669 0.29633 0.2667 0.50006 0.2667 0.34819 0 0.7075-0.29633 0.7075-0.91122 0-0.58897-0.34819-0.86308-0.68157-0.86308-0.21484 0-0.41487 0.11483-0.52229 0.30004v-0.94827c0-0.0222 0.0037-0.0296 0.02223-0.0444 0.0074-4e-3 0.02593-0.0185 0.02223-0.0407zm0.70009 0.96308c0.15928 0 0.49636 0.0926 0.49636 0.69268 0 0.51488-0.33338 0.61119-0.50006 0.61119-0.11483 0-0.37042-0.0445-0.41487-0.37042-0.01111-0.0852-0.01111-0.18521-0.01111-0.33337 0-0.15187 0.0074-0.263 0.04445-0.3556 0.06297-0.15187 0.21855-0.24448 0.38523-0.24448z"/>
    <path d="m81.068 142.84v0.94456c0 0.14447 0 0.29263 0.06668 0.4445 0.09631 0.22225 0.30374 0.34449 0.52599 0.34449 0.21114 0 0.41116-0.11483 0.52229-0.30004l-0.0037 0.12595c0 0.0444 0 0.0889 0.0074 0.12964h0.28152c-0.01852-0.0481-0.02222-0.10372-0.02222-0.15187v-1.5372h-0.2667v0.92975c0 0.12964-0.01111 0.22965-0.06668 0.33337-0.07779 0.14446-0.22966 0.25189-0.39264 0.25189-0.12965 0-0.25559-0.0741-0.32226-0.20744-0.05927-0.11853-0.05927-0.25188-0.05927-0.36301v-0.94456z"/>
    <path d="m83.386 142.39-0.03334 0.45561h-0.40376l-0.0037 0.21855h0.39635c-0.02222 0.28892-0.03334 0.57785-0.03334 0.86307 0 0.15187 0 0.32226 0.10001 0.46302 0.08149 0.11112 0.21114 0.1778 0.38523 0.1778 0.20002 0 0.39635-0.0852 0.54081-0.18891l-0.08149-0.21114c-0.14446 0.10742-0.27781 0.15557-0.38153 0.15557-0.12594 0-0.25559-0.0704-0.28522-0.27411 0-0.0148-0.01111-0.0778-0.01111-0.32596 0-0.21855 0.01111-0.4408 0.03334-0.65934h0.55562v-0.22225h-0.55193s0.02593-0.30375 0.04445-0.40005c0.0037-0.037 0.03334-0.0593 0.01852-0.10002z"/>
    <path d="m85.498 142.8c-0.40376 0-0.77788 0.28893-0.77788 0.90382 0 0.56674 0.3519 0.86678 0.81121 0.86678 0.24448 0 0.46302-0.0889 0.60748-0.263l-0.14817-0.14446c-0.10742 0.12594-0.2704 0.19262-0.43709 0.19262-0.22595 0-0.55562-0.12595-0.57415-0.63342h1.2002c0.01111-0.11483 0.0074-0.22595-0.01111-0.32226-0.07779-0.45561-0.39264-0.60008-0.67045-0.60008zm-0.51118 0.71861c0.05556-0.40005 0.31115-0.51488 0.49266-0.51488 0.27411 0 0.47043 0.24077 0.43709 0.51488z"/>
   </g>
   <rect x="113.13" y="135.83" width="35.851" height="16.007" fill="#2f3744" stroke="#7b8694"/>
   <g fill="#e8eaec" aria-label="Component">
    <path d="m123.67 142.21c-0.35931 0-0.87789 0.263-0.87789 1.189 0 0.889 0.49636 1.1779 0.87789 1.1779 0.27411 0 0.52969-0.14447 0.67416-0.38153l-0.18892-0.12224c-0.10742 0.1741-0.29262 0.27781-0.47043 0.27781-0.34078 0-0.64082-0.35189-0.64082-0.9779 0-0.61119 0.29263-0.95567 0.6186-0.95567 0.1778 0 0.34819 0.10742 0.4408 0.2704 7e-3 0.0111 0.0148 0.0222 0.0148 0.037 0 0.0111-4e-3 0.0185-4e-3 0.0296 0 4e-3 0 0.0222 0.0185 0.0333l0.24447-0.11853c-0.12223-0.27781-0.40005-0.45932-0.70749-0.45932z"/>
    <path d="m126.2 143.7c0-0.58526-0.37042-0.889-0.75565-0.889-0.42969 0-0.8001 0.37042-0.8001 0.89641 0 0.51488 0.36671 0.87789 0.79269 0.87789 0.40005 0 0.76306-0.32227 0.76306-0.8853zm-0.77418-0.66305c0.24448 0 0.50377 0.21114 0.50377 0.67416 0 0.42598-0.24447 0.64082-0.48895 0.64082-0.2704 0-0.51488-0.25188-0.51488-0.67045 0-0.41487 0.24077-0.64453 0.50006-0.64453z"/>
    <path d="m126.48 144.53h0.24447v-1.1261c0-0.0815 7e-3 -0.15557 0.0556-0.24447 0.0593-0.11113 0.13335-0.15558 0.20372-0.15558 0.0593 0 0.12595 0.037 0.15558 0.12965 0.0222 0.0704 0.0185 0.15187 0.0185 0.22225v1.1742h0.24818v-1.1187c0-0.0889 7e-3 -0.15928 0.0704-0.2667 0.0296-0.0445 0.0926-0.15187 0.19632-0.15187 0.0556 0 0.10742 0.0333 0.13335 0.0963 0.0333 0.0704 0.0259 0.16669 0.0259 0.24447v1.2002h0.25188v-1.2039c0-0.14076 4e-3 -0.28152-0.0704-0.39635-0.063-0.0963-0.17039-0.13335-0.26299-0.13335-0.16299 0-0.31486 0.0963-0.38153 0.24448-0.0259-0.14076-0.14446-0.24448-0.29634-0.24448-0.14075 0-0.2704 0.0889-0.34819 0.20744l4e-3 -0.16669h-0.24818z"/>
    <path d="m128.42 142.84 4e-3 2.3077h0.2704v-0.84085c0.11483 0.16669 0.30374 0.27041 0.50747 0.27041 0.3482 0 0.7112-0.29263 0.7112-0.91123 0-0.59637-0.35189-0.86307-0.68527-0.86307-0.21854 0-0.42227 0.11112-0.5371 0.29633v-0.25929zm0.7075 0.18891c0.14817 0 0.50747 0.0778 0.50747 0.69268 0 0.5334-0.34819 0.6186-0.50747 0.6186s-0.32226-0.0815-0.38894-0.23336c-0.0482-0.11483-0.0482-0.25559-0.0482-0.50007 0-0.14076 7e-3 -0.24447 0.0445-0.33337 0.0667-0.15187 0.22225-0.24448 0.39264-0.24448z"/>
    <path d="m131.75 143.7c0-0.58526-0.37042-0.889-0.75565-0.889-0.42968 0-0.8001 0.37042-0.8001 0.89641 0 0.51488 0.36671 0.87789 0.79269 0.87789 0.40005 0 0.76306-0.32227 0.76306-0.8853zm-0.77417-0.66305c0.24448 0 0.50377 0.21114 0.50377 0.67416 0 0.42598-0.24448 0.64082-0.48895 0.64082-0.27041 0-0.51488-0.25188-0.51488-0.67045 0-0.41487 0.24077-0.64453 0.50006-0.64453z"/>
    <path d="m132.15 144.53h0.27041v-0.9742c0-0.11112 0.0148-0.19632 0.0852-0.28892 0.063-0.0852 0.22596-0.23707 0.40376-0.23707 0.0852 0 0.17039 0.037 0.22965 0.10742 0.0926 0.11113 0.0926 0.25559 0.0926 0.37412v1.0186h0.263v-1.026c0-0.12965 0-0.27041-0.0593-0.40746-0.0852-0.18892-0.25929-0.29634-0.45191-0.29634-0.22966 0-0.43709 0.14817-0.56303 0.33708v-0.29633h-0.27041z"/>
    <path d="m134.71 142.8c-0.40376 0-0.77788 0.28893-0.77788 0.90382 0 0.56674 0.3519 0.86678 0.81122 0.86678 0.24447 0 0.46302-0.0889 0.60748-0.263l-0.14817-0.14446c-0.10742 0.12594-0.2704 0.19262-0.43709 0.19262-0.22595 0-0.55562-0.12595-0.57414-0.63342h1.2002c0.0111-0.11483 7e-3 -0.22595-0.0111-0.32226-0.0778-0.45561-0.39264-0.60008-0.67045-0.60008zm-0.51118 0.71861c0.0556-0.40005 0.31115-0.51488 0.49266-0.51488 0.27411 0 0.47043 0.24077 0.43709 0.51488z"/>
    <path d="m135.86 144.53h0.27041v-0.9742c0-0.11112 0.0148-0.19632 0.0852-0.28892 0.063-0.0852 0.22596-0.23707 0.40376-0.23707 0.0852 0 0.17039 0.037 0.22966 0.10742 0.0926 0.11113 0.0926 0.25559 0.0926 0.37412v1.0186h0.263v-1.026c0-0.12965 0-0.27041-0.0593-0.40746-0.0852-0.18892-0.25929-0.29634-0.45191-0.29634-0.22966 0-0.43709 0.14817-0.56303 0.33708v-0.29633h-0.27041z"/>
    <path d="m138.16 142.39-0.0333 0.45561h-0.40375l-4e-3 0.21855h0.39635c-0.0222 0.28892-0.0333 0.57785-0.0333 0.86307 0 0.15187 0 0.32226 0.10001 0.46302 0.0815 0.11112 0.21114 0.1778 0.38524 0.1778 0.20002 0 0.39634-0.0852 0.5408-0.18891l-0.0815-0.21114c-0.14446 0.10742-0.27781 0.15557-0.38153 0.15557-0.12594 0-0.25558-0.0704-0.28522-0.27411 0-0.0148-0.0111-0.0778-0.0111-0.32596 0-0.21855 0.0111-0.4408 0.0333-0.65934h0.55562v-0.22225h-0.55192s0.0259-0.30375 0.0445-0.40005c4e-3 -0.037 0.0333-0.0593 0.0185-0.10002z"/>
   </g>
   <rect x="166.05" y="135.83" width="35.851" height="16.007" fill="#2f3744" stroke="#7b8694"/>
   <g fill="#e8eaec" aria-label="MageBehavior">
    <path d="m172.93 142.22v2.3114h0.24448v-1.7298l0.46672 0.91493h0.0963l0.50007-0.92975v1.7447h0.24447v-2.3114h-0.19262l-0.58155 1.1298-0.57415-1.1298z"/>
    <path d="m174.97 143.04 0.12964 0.17039c0.14076-0.14446 0.32967-0.18891 0.48895-0.18891 0.20003 0 0.30004 0.0852 0.3482 0.16298 0.0556 0.0926 0.0519 0.20373 0.0519 0.29263v0.0593h-0.0519c-0.25189 0-0.51859 0-0.73343 0.0778-0.2667 0.0963-0.38523 0.29633-0.38523 0.48154 0 0.24818 0.21484 0.48154 0.56673 0.48154 0.20744 0 0.42228-0.0778 0.60749-0.22966v0.18521h0.25188v-1.0483c0-0.13705-4e-3 -0.2667-0.0815-0.40005-0.11112-0.1815-0.32597-0.27781-0.58896-0.27781-0.22596 0-0.4445 0.0704-0.60378 0.23336zm1.0298 0.70009v0.11483c0 0.0852 0 0.19632-0.11483 0.31856-0.063 0.063-0.22225 0.20002-0.4445 0.20002-0.22596 0-0.3556-0.14446-0.3556-0.29263 0-0.12594 0.0852-0.26299 0.29633-0.31485 0.15558-0.037 0.38153-0.0259 0.55933-0.0259z"/>
    <path d="m176.95 143.37c0-0.20373 0.17039-0.37042 0.37412-0.37042 0.20743 0 0.37412 0.16669 0.37412 0.37042s-0.16669 0.37042-0.37412 0.37042-0.37412-0.16669-0.37412-0.37042zm0.38894-0.58155c-0.33708 0-0.62971 0.2667-0.62971 0.59637 0 0.18521 0.0926 0.3593 0.24818 0.45932-0.12224 0.10371-0.19262 0.21854-0.19262 0.32596 0 0.0704 0.0296 0.17039 0.13705 0.22596-0.1815 0.11483-0.2741 0.24077-0.2741 0.37412 0 0.18521 0.17039 0.40375 0.76305 0.40375 0.57415 0 0.78158-0.29263 0.78158-0.51858 0-0.14817-0.0852-0.29633-0.26299-0.36671-0.1778-0.0741-0.38153-0.0482-0.57415-0.0482-0.12594 0-0.20743-0.0111-0.24077-0.0222-0.0667-0.0185-0.10372-0.0593-0.10372-0.11113 0-0.0889 0.10372-0.17409 0.12224-0.18891 0.0667 0.0259 0.14076 0.037 0.21484 0.037 0.33338 0 0.60749-0.2667 0.60749-0.57785 0-0.10372-0.0296-0.20373-0.0852-0.28893 0.0889-0.0519 0.19262-0.0815 0.29634-0.0815 0.0333 0 0.063 4e-3 0.0963 0.0111l-0.0296-0.21855c-0.17039-0.0148-0.34078 0.0408-0.47043 0.14817-0.10742-0.10372-0.24818-0.15928-0.40375-0.15928zm-0.25559 1.6558c0.063 7e-3 0.15187 0.0148 0.28152 0.0222 0.12594 4e-3 0.26299-7e-3 0.3593 7e-3 0.15558 0.0259 0.20373 0.12224 0.20373 0.19633 0 0.0741-0.0445 0.16298-0.15928 0.22595-0.12594 0.0667-0.2667 0.0741-0.38153 0.0741-0.0778 0-0.22225-4e-3 -0.34819-0.0556-0.13706-0.0556-0.16669-0.14817-0.16669-0.20743 0-0.12224 0.11483-0.21114 0.21114-0.263z"/>
    <path d="m179.29 142.8c-0.40376 0-0.77788 0.28893-0.77788 0.90382 0 0.56674 0.3519 0.86678 0.81122 0.86678 0.24447 0 0.46302-0.0889 0.60748-0.263l-0.14817-0.14446c-0.10742 0.12594-0.2704 0.19262-0.43709 0.19262-0.22595 0-0.55562-0.12595-0.57415-0.63342h1.2002c0.0111-0.11483 7e-3 -0.22595-0.0111-0.32226-0.0778-0.45561-0.39264-0.60008-0.67045-0.60008zm-0.51118 0.71861c0.0556-0.40005 0.31115-0.51488 0.49266-0.51488 0.27411 0 0.47043 0.24077 0.43709 0.51488z"/>
    <path d="m180.37 142.22v2.3077h0.65193c0.15558 0 0.31486 0 0.47414-0.0667 0.24817-0.10742 0.38523-0.33338 0.38523-0.57045 0-0.2704-0.1741-0.51117-0.42968-0.59637 0.20372-0.0852 0.34078-0.28892 0.34078-0.50747 0-0.20743-0.11853-0.40746-0.33708-0.50006-0.14446-0.063-0.28893-0.0667-0.42968-0.0667zm0.25559 0.22225h0.363c0.10002 0 0.20373 0 0.30745 0.0408 0.15187 0.063 0.23336 0.19262 0.23336 0.32597s-0.0778 0.25929-0.22225 0.32226c-0.10742 0.0444-0.21854 0.0444-0.32226 0.0444h-0.3593zm0 0.95198h0.37782c0.11483 0 0.22966 4e-3 0.34449 0.0593 0.17039 0.0778 0.26299 0.24448 0.26299 0.41116 0 0.16669-0.0889 0.31856-0.24817 0.39265-0.10002 0.0444-0.19633 0.0444-0.29634 0.0444h-0.44079z"/>
    <path d="m183 142.8c-0.40376 0-0.77788 0.28893-0.77788 0.90382 0 0.56674 0.3519 0.86678 0.81122 0.86678 0.24447 0 0.46302-0.0889 0.60748-0.263l-0.14817-0.14446c-0.10742 0.12594-0.2704 0.19262-0.43709 0.19262-0.22595 0-0.55563-0.12595-0.57415-0.63342h1.2002c0.0111-0.11483 7e-3 -0.22595-0.0111-0.32226-0.0778-0.45561-0.39264-0.60008-0.67045-0.60008zm-0.51118 0.71861c0.0556-0.40005 0.31115-0.51488 0.49266-0.51488 0.27411 0 0.47043 0.24077 0.43709 0.51488z"/>
    <path d="m184.15 144.53h0.27411v-0.9742c0-0.11112 0.0111-0.19632 0.0815-0.28892 0.0667-0.0852 0.22965-0.23707 0.40745-0.23707 0.0852 0 0.1704 0.037 0.22966 0.10742 0.0926 0.11113 0.0926 0.25559 0.0926 0.37412v1.0186h0.26299v-1.026c0-0.12965-4e-3 -0.27041-0.063-0.40746-0.0852-0.18892-0.25559-0.29634-0.4482-0.29634-0.22966 0-0.4408 0.14817-0.56304 0.33708v-0.9816c0-0.0111 0-0.0222 0.0111-0.0333s0.0259-0.0222 0.0259-0.0408c0-4e-3 0-7e-3 -4e-3 -0.0111h-0.30745z"/>
    <path d="m186.08 143.04 0.12964 0.17039c0.14076-0.14446 0.32967-0.18891 0.48895-0.18891 0.20003 0 0.30004 0.0852 0.3482 0.16298 0.0556 0.0926 0.0519 0.20373 0.0519 0.29263v0.0593h-0.0519c-0.25189 0-0.51859 0-0.73343 0.0778-0.2667 0.0963-0.38523 0.29633-0.38523 0.48154 0 0.24818 0.21484 0.48154 0.56673 0.48154 0.20744 0 0.42228-0.0778 0.60749-0.22966v0.18521h0.25188v-1.0483c0-0.13705-4e-3 -0.2667-0.0815-0.40005-0.11112-0.1815-0.32597-0.27781-0.58896-0.27781-0.22596 0-0.4445 0.0704-0.60378 0.23336zm1.0298 0.70009v0.11483c0 0.0852 0 0.19632-0.11483 0.31856-0.063 0.063-0.22225 0.20002-0.4445 0.20002-0.22596 0-0.3556-0.14446-0.3556-0.29263 0-0.12594 0.0852-0.26299 0.29633-0.31485 0.15558-0.037 0.38153-0.0259 0.55933-0.0259z"/>
    <path d="m187.74 142.84 0.67045 1.7076h0.21114l0.41117-0.96679c0.10001-0.23707 0.19632-0.48154 0.25188-0.74083h-0.24077c-0.0444 0.24817-0.13335 0.48154-0.22966 0.70379l-0.27041 0.62971-0.48895-1.2372c-4e-3 -7e-3 -7e-3 -0.0148-7e-3 -0.0222 0-0.0222 0.0185-0.0445 0.0111-0.0741z"/>
    <path d="m189.84 142.84v0.21854h0.40746v1.2631h-0.42968v0.21114h1.0964v-0.21114h-0.39634v-1.4817zm0.54822-0.73343c-0.10742 0-0.19262 0.0852-0.19262 0.18891 0 0.10372 0.0852 0.18892 0.19262 0.18892s0.19262-0.0852 0.19262-0.18892c0-0.10371-0.0852-0.18891-0.19262-0.18891z"/>
    <path d="m193.01 143.7c0-0.58526-0.37041-0.889-0.75565-0.889-0.42968 0-0.8001 0.37042-0.8001 0.89641 0 0.51488 0.36672 0.87789 0.7927 0.87789 0.40005 0 0.76305-0.32227 0.76305-0.8853zm-0.77417-0.66305c0.24448 0 0.50377 0.21114 0.50377 0.67416 0 0.42598-0.24447 0.64082-0.48895 0.64082-0.2704 0-0.51488-0.25188-0.51488-0.67045 0-0.41487 0.24077-0.64453 0.50006-0.64453z"/>
    <path d="m193.52 142.84v1.6928h0.2667v-0.82233c0-0.10372 4e-3 -0.21484 0.11854-0.39635 0.15557-0.24447 0.3556-0.28522 0.47784-0.28522 0.14075 0 0.22965 0.0667 0.27781 0.12594 0.0222 0.0296 0.0333 0.0593 0.063 0.0852l0.12594-0.25559c-0.10742-0.11112-0.26299-0.18521-0.45191-0.18521-0.24818 0-0.50006 0.12595-0.61119 0.36672l0.0111-0.32597z"/>
   </g>
   <rect x="166.05" y="154.35" width="35.851" height="16.007" fill="#2f3744" stroke="#7b8694"/>
   <g fill="#e8eaec" aria-label="OrcBehavior">
    <path d="m175.45 161.91c0-0.21485-0.0148-0.50007-0.14075-0.74825-0.15188-0.29633-0.41487-0.43338-0.66676-0.43338-0.34448 0-0.82973 0.2667-0.82973 1.1742s0.47784 1.1927 0.83344 1.1927c0.24818 0 0.51488-0.14076 0.66675-0.4482 0.12224-0.24818 0.13705-0.5334 0.13705-0.73713zm-0.81862-0.94086c0.16299 0 0.36301 0.0963 0.47043 0.36671 0.0778 0.19262 0.0889 0.41487 0.0889 0.60748 0 0.15188-7e-3 0.38894-0.10371 0.58526-0.10743 0.22596-0.28523 0.31486-0.4408 0.31486-0.25929 0-0.57785-0.24077-0.57785-0.9742 0-0.68897 0.32226-0.90011 0.56303-0.90011z"/>
    <path d="m175.93 161.36v1.6928h0.2667v-0.82232c0-0.10372 4e-3 -0.21484 0.11853-0.39635 0.15558-0.24447 0.3556-0.28522 0.47784-0.28522 0.14076 0 0.22966 0.0667 0.27781 0.12594 0.0222 0.0296 0.0333 0.0593 0.063 0.0852l0.12594-0.25559c-0.10742-0.11112-0.26299-0.18521-0.4519-0.18521-0.24818 0-0.50007 0.12594-0.61119 0.36671l0.0111-0.32596z"/>
    <path d="m179.1 161.64c-0.13335-0.19632-0.3593-0.31485-0.63341-0.31485-0.49636 0-0.84826 0.37412-0.84826 0.88159 0 0.51117 0.3519 0.889 0.83344 0.889 0.23336 0 0.46302-0.0963 0.6223-0.2704l-0.15187-0.17781c-0.11483 0.12965-0.28152 0.20373-0.4482 0.20373-0.32967 0-0.58156-0.2741-0.58156-0.67045 0-0.38523 0.24818-0.62601 0.55933-0.62601 0.28893 0 0.42598 0.20003 0.43709 0.22225 0.0148 0.0259-7e-3 0.063 0.0222 0.0852z"/>
    <path d="m179.44 160.75v2.3077h0.65194c0.15557 0 0.31485 0 0.47413-0.0667 0.24818-0.10742 0.38524-0.33337 0.38524-0.57044 0-0.2704-0.1741-0.51117-0.42969-0.59637 0.20373-0.0852 0.34079-0.28892 0.34079-0.50747 0-0.20743-0.11854-0.40746-0.33708-0.50006-0.14447-0.063-0.28893-0.0667-0.42969-0.0667zm0.25559 0.22225h0.36301c0.10001 0 0.20373 0 0.30745 0.0408 0.15187 0.063 0.23336 0.19261 0.23336 0.32596s-0.0778 0.2593-0.22225 0.32227c-0.10742 0.0445-0.21855 0.0445-0.32226 0.0445h-0.35931zm0 0.95197h0.37783c0.11483 0 0.22966 4e-3 0.34449 0.0593 0.17039 0.0778 0.26299 0.24448 0.26299 0.41116 0 0.16669-0.0889 0.31856-0.24818 0.39265-0.10001 0.0445-0.19632 0.0445-0.29633 0.0445h-0.4408z"/>
    <path d="m182.07 161.32c-0.40376 0-0.77788 0.28893-0.77788 0.90382 0 0.56674 0.3519 0.86678 0.81121 0.86678 0.24448 0 0.46302-0.0889 0.60749-0.263l-0.14817-0.14446c-0.10742 0.12594-0.2704 0.19261-0.43709 0.19261-0.22596 0-0.55563-0.12594-0.57415-0.63341h1.2002c0.0111-0.11483 7e-3 -0.22595-0.0111-0.32226-0.0778-0.45562-0.39264-0.60008-0.67045-0.60008zm-0.51118 0.71861c0.0556-0.40005 0.31115-0.51488 0.49265-0.51488 0.27411 0 0.47043 0.24077 0.4371 0.51488z"/>
    <path d="m183.22 163.05h0.27411v-0.9742c0-0.11112 0.0111-0.19632 0.0815-0.28892 0.0667-0.0852 0.22966-0.23707 0.40746-0.23707 0.0852 0 0.17039 0.037 0.22966 0.10742 0.0926 0.11113 0.0926 0.25559 0.0926 0.37412v1.0186h0.263v-1.0261c0-0.12964-4e-3 -0.2704-0.063-0.40745-0.0852-0.18892-0.25559-0.29634-0.44821-0.29634-0.22965 0-0.44079 0.14817-0.56303 0.33708v-0.9816c0-0.0111 0-0.0222 0.0111-0.0333s0.0259-0.0222 0.0259-0.0408c0-4e-3 0-7e-3 -4e-3 -0.0111h-0.30745z"/>
    <path d="m185.15 161.56 0.12965 0.17039c0.14076-0.14446 0.32967-0.18891 0.48895-0.18891 0.20003 0 0.30004 0.0852 0.34819 0.16298 0.0556 0.0926 0.0519 0.20373 0.0519 0.29263v0.0593h-0.0519c-0.25188 0-0.51858 0-0.73342 0.0778-0.2667 0.0963-0.38524 0.29633-0.38524 0.48154 0 0.24818 0.21485 0.48154 0.56674 0.48154 0.20744 0 0.42228-0.0778 0.60749-0.22966v0.18521h0.25188v-1.0483c0-0.13705-4e-3 -0.2667-0.0815-0.40005-0.11113-0.18151-0.32597-0.27781-0.58897-0.27781-0.22595 0-0.4445 0.0704-0.60378 0.23336zm1.0298 0.70009v0.11483c0 0.0852 0 0.19632-0.11483 0.31855-0.063 0.063-0.22225 0.20003-0.4445 0.20003-0.22595 0-0.3556-0.14446-0.3556-0.29263 0-0.12594 0.0852-0.263 0.29634-0.31485 0.15557-0.0371 0.38153-0.0259 0.55933-0.0259z"/>
    <path d="m186.82 161.36 0.67045 1.7076h0.21114l0.41116-0.96679c0.10002-0.23707 0.19632-0.48154 0.25189-0.74084h-0.24077c-0.0444 0.24818-0.13335 0.48155-0.22966 0.7038l-0.27041 0.6297-0.48895-1.2372c-4e-3 -7e-3 -7e-3 -0.0148-7e-3 -0.0222 0-0.0222 0.0185-0.0444 0.0111-0.0741z"/>
    <path d="m188.92 161.36v0.21855h0.40746v1.2631h-0.42968v0.21114h1.0964v-0.21114h-0.39634v-1.4817zm0.54822-0.73342c-0.10742 0-0.19262 0.0852-0.19262 0.18891 0 0.10372 0.0852 0.18891 0.19262 0.18891s0.19262-0.0852 0.19262-0.18891c0-0.10372-0.0852-0.18891-0.19262-0.18891z"/>
    <path d="m192.08 162.22c0-0.58526-0.37041-0.889-0.75565-0.889-0.42968 0-0.8001 0.37041-0.8001 0.89641 0 0.51488 0.36671 0.87788 0.79269 0.87788 0.40005 0 0.76306-0.32226 0.76306-0.88529zm-0.77417-0.66305c0.24448 0 0.50377 0.21114 0.50377 0.67416 0 0.42598-0.24448 0.64082-0.48895 0.64082-0.27041 0-0.51488-0.25188-0.51488-0.67045 0-0.41487 0.24077-0.64453 0.50006-0.64453z"/>
    <path d="m192.59 161.36v1.6928h0.2667v-0.82232c0-0.10372 4e-3 -0.21484 0.11854-0.39635 0.15557-0.24447 0.3556-0.28522 0.47783-0.28522 0.14076 0 0.22966 0.0667 0.27782 0.12594 0.0222 0.0296 0.0333 0.0593 0.063 0.0852l0.12594-0.25559c-0.10742-0.11112-0.263-0.18521-0.45191-0.18521-0.24818 0-0.50006 0.12594-0.61119 0.36671l0.0111-0.32596z"/>
   </g>
   <rect x="166.05" y="117.31" width="35.851" height="16.007" fill="#2f3744" stroke="#7b8694"/>
   <g fill="#e8eaec" aria-label="DragonBehavior">
    <path d="m171.12 123.7v2.3114h0.49636c0.18151 0 0.33708-7e-3 0.50007-0.0926 0.32967-0.17039 0.51117-0.56303 0.51117-1.0668 0-0.4445-0.13335-0.83344-0.42968-1.026-0.16669-0.11113-0.33338-0.12594-0.53711-0.12594zm0.24448 0.22225h0.28152c0.14446 0 0.28892 7e-3 0.43338 0.12594 0.21485 0.1778 0.28522 0.50747 0.28522 0.83714 0 0.4408-0.14446 0.69268-0.32967 0.81862-0.14446 0.0963-0.28892 0.10372-0.43338 0.10372h-0.23707z"/>
    <path d="m173.15 124.32v1.6928h0.2667v-0.82233c0-0.10372 4e-3 -0.21484 0.11853-0.39634 0.15558-0.24448 0.3556-0.28523 0.47784-0.28523 0.14076 0 0.22966 0.0667 0.27781 0.12595 0.0222 0.0296 0.0333 0.0593 0.063 0.0852l0.12594-0.25559c-0.10742-0.11112-0.263-0.1852-0.45191-0.1852-0.24818 0-0.50006 0.12594-0.61119 0.36671l0.0111-0.32597z"/>
    <path d="m174.97 124.52 0.12964 0.17039c0.14076-0.14446 0.32967-0.18891 0.48895-0.18891 0.20003 0 0.30004 0.0852 0.3482 0.16299 0.0556 0.0926 0.0519 0.20372 0.0519 0.29262v0.0593h-0.0519c-0.25189 0-0.51859 0-0.73343 0.0778-0.2667 0.0963-0.38523 0.29633-0.38523 0.48154 0 0.24818 0.21484 0.48154 0.56673 0.48154 0.20744 0 0.42228-0.0778 0.60749-0.22966v0.18521h0.25188v-1.0483c0-0.13705-4e-3 -0.2667-0.0815-0.40005-0.11112-0.1815-0.32597-0.27781-0.58896-0.27781-0.22596 0-0.4445 0.0704-0.60378 0.23336zm1.0298 0.70009v0.11483c0 0.0852 0 0.19632-0.11483 0.31856-0.063 0.063-0.22225 0.20002-0.4445 0.20002-0.22596 0-0.3556-0.14446-0.3556-0.29263 0-0.12594 0.0852-0.26299 0.29633-0.31485 0.15558-0.037 0.38153-0.0259 0.55933-0.0259z"/>
    <path d="m176.95 124.85c0-0.20373 0.17039-0.37041 0.37412-0.37041 0.20743 0 0.37412 0.16668 0.37412 0.37041s-0.16669 0.37042-0.37412 0.37042-0.37412-0.16669-0.37412-0.37042zm0.38894-0.58155c-0.33708 0-0.62971 0.2667-0.62971 0.59637 0 0.18521 0.0926 0.3593 0.24818 0.45932-0.12224 0.10371-0.19262 0.21854-0.19262 0.32596 0 0.0704 0.0296 0.1704 0.13705 0.22596-0.1815 0.11483-0.2741 0.24077-0.2741 0.37412 0 0.18521 0.17039 0.40375 0.76305 0.40375 0.57415 0 0.78158-0.29263 0.78158-0.51858 0-0.14817-0.0852-0.29633-0.26299-0.36671-0.1778-0.0741-0.38153-0.0482-0.57415-0.0482-0.12594 0-0.20743-0.0111-0.24077-0.0222-0.0667-0.0185-0.10372-0.0593-0.10372-0.11113 0-0.0889 0.10372-0.17409 0.12224-0.18891 0.0667 0.0259 0.14076 0.037 0.21484 0.037 0.33338 0 0.60749-0.2667 0.60749-0.57785 0-0.10371-0.0296-0.20373-0.0852-0.28892 0.0889-0.0519 0.19262-0.0815 0.29634-0.0815 0.0333 0 0.063 4e-3 0.0963 0.0111l-0.0296-0.21855c-0.17039-0.0148-0.34078 0.0408-0.47043 0.14817-0.10742-0.10372-0.24818-0.15928-0.40375-0.15928zm-0.25559 1.6558c0.063 7e-3 0.15187 0.0148 0.28152 0.0222 0.12594 4e-3 0.26299-7e-3 0.3593 7e-3 0.15558 0.0259 0.20373 0.12223 0.20373 0.19632 0 0.0741-0.0445 0.16298-0.15928 0.22595-0.12594 0.0667-0.2667 0.0741-0.38153 0.0741-0.0778 0-0.22225-4e-3 -0.34819-0.0556-0.13706-0.0556-0.16669-0.14816-0.16669-0.20743 0-0.12224 0.11483-0.21114 0.21114-0.263z"/>
    <path d="m180.04 125.17c0-0.58526-0.37042-0.889-0.75565-0.889-0.42968 0-0.8001 0.37042-0.8001 0.89641 0 0.51488 0.36671 0.87789 0.79269 0.87789 0.40005 0 0.76306-0.32227 0.76306-0.8853zm-0.77417-0.66305c0.24447 0 0.50377 0.21114 0.50377 0.67416 0 0.42598-0.24448 0.64082-0.48895 0.64082-0.27041 0-0.51488-0.25188-0.51488-0.67045 0-0.41487 0.24077-0.64453 0.50006-0.64453z"/>
    <path d="m180.44 126.01h0.27041v-0.97419c0-0.11113 0.0148-0.19632 0.0852-0.28893 0.063-0.0852 0.22596-0.23707 0.40376-0.23707 0.0852 0 0.17039 0.037 0.22965 0.10743 0.0926 0.11112 0.0926 0.25558 0.0926 0.37412v1.0186h0.26299v-1.026c0-0.12965 0-0.27041-0.0593-0.40746-0.0852-0.18891-0.25929-0.29633-0.45191-0.29633-0.22966 0-0.43709 0.14816-0.56303 0.33708v-0.29634h-0.27041z"/>
    <path d="m182.22 123.7v2.3077h0.65194c0.15557 0 0.31485 0 0.47413-0.0667 0.24818-0.10742 0.38523-0.33338 0.38523-0.57044 0-0.27041-0.17409-0.51118-0.42968-0.59638 0.20373-0.0852 0.34078-0.28892 0.34078-0.50747 0-0.20743-0.11853-0.40746-0.33708-0.50006-0.14446-0.063-0.28892-0.0667-0.42968-0.0667zm0.25559 0.22225h0.36301c0.10001 0 0.20373 0 0.30744 0.0407 0.15188 0.063 0.23337 0.19262 0.23337 0.32597s-0.0778 0.25929-0.22225 0.32226c-0.10742 0.0444-0.21855 0.0444-0.32227 0.0444h-0.3593zm0 0.95197h0.37783c0.11482 0 0.22965 4e-3 0.34448 0.0593 0.1704 0.0778 0.263 0.24448 0.263 0.41117 0 0.16668-0.0889 0.31856-0.24818 0.39264-0.10001 0.0444-0.19632 0.0444-0.29633 0.0444h-0.4408z"/>
    <path d="m184.85 124.28c-0.40375 0-0.77787 0.28892-0.77787 0.90381 0 0.56674 0.35189 0.86678 0.81121 0.86678 0.24448 0 0.46302-0.0889 0.60748-0.263l-0.14816-0.14446c-0.10742 0.12594-0.27041 0.19262-0.43709 0.19262-0.22596 0-0.55563-0.12594-0.57415-0.63342h1.2002c0.0111-0.11483 7e-3 -0.22595-0.0111-0.32226-0.0778-0.45561-0.39264-0.60007-0.67046-0.60007zm-0.51117 0.7186c0.0556-0.40005 0.31115-0.51488 0.49265-0.51488 0.27411 0 0.47043 0.24078 0.43709 0.51488z"/>
    <path d="m186 126.01h0.27411v-0.97419c0-0.11113 0.0111-0.19632 0.0815-0.28893 0.0667-0.0852 0.22966-0.23707 0.40746-0.23707 0.0852 0 0.17039 0.037 0.22966 0.10743 0.0926 0.11112 0.0926 0.25558 0.0926 0.37412v1.0186h0.263v-1.026c0-0.12965-4e-3 -0.27041-0.063-0.40746-0.0852-0.18891-0.25559-0.29633-0.44821-0.29633-0.22966 0-0.44079 0.14816-0.56303 0.33708v-0.98161c0-0.0111 0-0.0222 0.0111-0.0333s0.0259-0.0222 0.0259-0.0407c0-4e-3 0-7e-3 -4e-3 -0.0111h-0.30745z"/>
    <path d="m187.93 124.52 0.12965 0.17039c0.14076-0.14446 0.32967-0.18891 0.48895-0.18891 0.20002 0 0.30004 0.0852 0.34819 0.16299 0.0556 0.0926 0.0519 0.20372 0.0519 0.29262v0.0593h-0.0519c-0.25188 0-0.51858 0-0.73343 0.0778-0.2667 0.0963-0.38523 0.29633-0.38523 0.48154 0 0.24818 0.21484 0.48154 0.56674 0.48154 0.20743 0 0.42227-0.0778 0.60748-0.22966v0.18521h0.25189v-1.0483c0-0.13705-4e-3 -0.2667-0.0815-0.40005-0.11112-0.1815-0.32596-0.27781-0.58896-0.27781-0.22595 0-0.4445 0.0704-0.60378 0.23336zm1.0298 0.70009v0.11483c0 0.0852 0 0.19632-0.11483 0.31856-0.063 0.063-0.22225 0.20002-0.4445 0.20002-0.22595 0-0.3556-0.14446-0.3556-0.29263 0-0.12594 0.0852-0.26299 0.29633-0.31485 0.15558-0.037 0.38153-0.0259 0.55933-0.0259z"/>
    <path d="m189.59 124.32 0.67046 1.7076h0.21114l0.41116-0.96679c0.10001-0.23707 0.19632-0.48154 0.25188-0.74083h-0.24077c-0.0444 0.24818-0.13335 0.48154-0.22966 0.70379l-0.2704 0.62971-0.48895-1.2372c-4e-3 -7e-3 -7e-3 -0.0148-7e-3 -0.0222 0-0.0222 0.0185-0.0444 0.0111-0.0741z"/>
    <path d="m191.69 124.32v0.21854h0.40746v1.2631h-0.42969v0.21113h1.0964v-0.21113h-0.39635v-1.4817zm0.54822-0.73343c-0.10742 0-0.19262 0.0852-0.19262 0.18891 0 0.10372 0.0852 0.18892 0.19262 0.18892s0.19261-0.0852 0.19261-0.18892c0-0.10371-0.0852-0.18891-0.19261-0.18891z"/>
    <path d="m194.86 125.17c0-0.58526-0.37042-0.889-0.75565-0.889-0.42968 0-0.8001 0.37042-0.8001 0.89641 0 0.51488 0.36671 0.87789 0.79269 0.87789 0.40005 0 0.76306-0.32227 0.76306-0.8853zm-0.77417-0.66305c0.24447 0 0.50377 0.21114 0.50377 0.67416 0 0.42598-0.24448 0.64082-0.48895 0.64082-0.27041 0-0.51488-0.25188-0.51488-0.67045 0-0.41487 0.24077-0.64453 0.50006-0.64453z"/>
    <path d="m195.37 124.32v1.6928h0.2667v-0.82233c0-0.10372 4e-3 -0.21484 0.11853-0.39634 0.15558-0.24448 0.3556-0.28523 0.47784-0.28523 0.14076 0 0.22966 0.0667 0.27781 0.12595 0.0222 0.0296 0.0333 0.0593 0.063 0.0852l0.12594-0.25559c-0.10742-0.11112-0.263-0.1852-0.45191-0.1852-0.24818 0-0.50006 0.12594-0.61119 0.36671l0.0111-0.32597z"/>
   </g>
   <rect x="56.378" y="164.93" width="20.241" height="16.007" fill="#2f3744" stroke="#7b8694"/>
   <g fill="#e8eaec" aria-label="Damage">
    <path d="m61.058 171.33v2.3114h0.49636c0.1815 0 0.33708-7e-3 0.50006-0.0926 0.32967-0.17039 0.51118-0.56304 0.51118-1.0668 0-0.4445-0.13335-0.83344-0.42968-1.0261-0.16669-0.11112-0.33338-0.12594-0.5371-0.12594zm0.24448 0.22225h0.28152c0.14446 0 0.28892 7e-3 0.43339 0.12594 0.21484 0.1778 0.28522 0.50747 0.28522 0.83714 0 0.4408-0.14446 0.69268-0.32967 0.81863-0.14446 0.0963-0.28892 0.10371-0.43339 0.10371h-0.23707z"/>
    <path d="m63.047 172.14 0.12965 0.17039c0.14076-0.14446 0.32967-0.18891 0.48895-0.18891 0.20002 0 0.30004 0.0852 0.34819 0.16298 0.05556 0.0926 0.05186 0.20373 0.05186 0.29263v0.0593h-0.05186c-0.25188 0-0.51858 0-0.73343 0.0778-0.2667 0.0963-0.38523 0.29634-0.38523 0.48155 0 0.24818 0.21484 0.48154 0.56674 0.48154 0.20743 0 0.42228-0.0778 0.60748-0.22966v0.18521h0.25188v-1.0483c0-0.13706-0.0037-0.2667-0.08149-0.40005-0.11112-0.18151-0.32597-0.27782-0.58896-0.27782-0.22595 0-0.4445 0.0704-0.60378 0.23337zm1.0298 0.70009v0.11482c0 0.0852 0 0.19633-0.11483 0.31856-0.06297 0.063-0.22225 0.20003-0.4445 0.20003-0.22596 0-0.3556-0.14446-0.3556-0.29263 0-0.12594 0.0852-0.263 0.29633-0.31486 0.15558-0.037 0.38153-0.0259 0.55933-0.0259z"/>
    <path d="m64.703 173.64h0.24448v-1.1261c0-0.0815 0.0074-0.15558 0.05556-0.24448 0.05927-0.11112 0.13335-0.15557 0.20373-0.15557 0.05927 0 0.12594 0.037 0.15558 0.12965 0.02222 0.0704 0.01852 0.15187 0.01852 0.22225v1.1742h0.24818v-1.1187c0-0.0889 0.0074-0.15928 0.07038-0.2667 0.02963-0.0444 0.0926-0.15187 0.19632-0.15187 0.05556 0 0.10742 0.0333 0.13335 0.0963 0.03334 0.0704 0.02593 0.16668 0.02593 0.24447v1.2002h0.25188v-1.2038c0-0.14076 0.0037-0.28152-0.07038-0.39635-0.06297-0.0963-0.17039-0.13335-0.263-0.13335-0.16298 0-0.31486 0.0963-0.38153 0.24448-0.02593-0.14076-0.14446-0.24448-0.29633-0.24448-0.14076 0-0.2704 0.0889-0.34819 0.20743l0.0037-0.16668h-0.24818z"/>
    <path d="m66.752 172.14 0.12965 0.17039c0.14076-0.14446 0.32967-0.18891 0.48895-0.18891 0.20002 0 0.30004 0.0852 0.34819 0.16298 0.05556 0.0926 0.05186 0.20373 0.05186 0.29263v0.0593h-0.05186c-0.25188 0-0.51858 0-0.73343 0.0778-0.2667 0.0963-0.38523 0.29634-0.38523 0.48155 0 0.24818 0.21484 0.48154 0.56674 0.48154 0.20743 0 0.42228-0.0778 0.60748-0.22966v0.18521h0.25188v-1.0483c0-0.13706-0.0037-0.2667-0.08149-0.40005-0.11112-0.18151-0.32597-0.27782-0.58896-0.27782-0.22596 0-0.4445 0.0704-0.60378 0.23337zm1.0298 0.70009v0.11482c0 0.0852 0 0.19633-0.11483 0.31856-0.06297 0.063-0.22225 0.20003-0.4445 0.20003-0.22596 0-0.3556-0.14446-0.3556-0.29263 0-0.12594 0.0852-0.263 0.29633-0.31486 0.15558-0.037 0.38153-0.0259 0.55933-0.0259z"/>
    <path d="m68.733 172.47c0-0.20373 0.17039-0.37042 0.37412-0.37042 0.20743 0 0.37412 0.16669 0.37412 0.37042s-0.16669 0.37042-0.37412 0.37042c-0.20743 0-0.37412-0.16669-0.37412-0.37042zm0.38894-0.58156c-0.33708 0-0.62971 0.2667-0.62971 0.59638 0 0.1852 0.0926 0.3593 0.24818 0.45931-0.12224 0.10372-0.19262 0.21855-0.19262 0.32597 0 0.0704 0.02963 0.17039 0.13705 0.22595-0.1815 0.11483-0.27411 0.24077-0.27411 0.37412 0 0.18521 0.17039 0.40376 0.76306 0.40376 0.57415 0 0.78158-0.29263 0.78158-0.51858 0-0.14817-0.0852-0.29634-0.263-0.36672-0.1778-0.0741-0.38153-0.0481-0.57415-0.0481-0.12594 0-0.20743-0.0111-0.24077-0.0222-0.06667-0.0185-0.10372-0.0593-0.10372-0.11112 0-0.0889 0.10372-0.1741 0.12224-0.18891 0.06668 0.0259 0.14076 0.037 0.21484 0.037 0.33338 0 0.60748-0.2667 0.60748-0.57785 0-0.10372-0.02963-0.20373-0.08519-0.28893 0.0889-0.0519 0.19262-0.0815 0.29633-0.0815 0.03334 0 0.06297 4e-3 0.09631 0.0111l-0.02963-0.21854c-0.17039-0.0148-0.34078 0.0407-0.47043 0.14816-0.10742-0.10371-0.24818-0.15928-0.40376-0.15928zm-0.25559 1.6558c0.06297 7e-3 0.15187 0.0148 0.28152 0.0222 0.12594 4e-3 0.263-7e-3 0.3593 7e-3 0.15558 0.0259 0.20373 0.12224 0.20373 0.19632 0 0.0741-0.04445 0.16299-0.15928 0.22596-0.12594 0.0667-0.2667 0.0741-0.38153 0.0741-0.07779 0-0.22225-4e-3 -0.34819-0.0556-0.13705-0.0556-0.16669-0.14817-0.16669-0.20744 0-0.12223 0.11483-0.21113 0.21114-0.26299z"/>
    <path d="m71.078 171.91c-0.40375 0-0.77788 0.28893-0.77788 0.90382 0 0.56674 0.3519 0.86677 0.81121 0.86677 0.24448 0 0.46302-0.0889 0.60748-0.26299l-0.14817-0.14447c-0.10742 0.12595-0.2704 0.19262-0.43709 0.19262-0.22595 0-0.55562-0.12594-0.57415-0.63341h1.2002c0.01111-0.11483 0.0074-0.22596-0.01111-0.32226-0.07779-0.45562-0.39264-0.60008-0.67046-0.60008zm-0.51118 0.71861c0.05556-0.40005 0.31115-0.51488 0.49266-0.51488 0.27411 0 0.47043 0.24077 0.43709 0.51488z"/>
   </g>
   <rect x="80.19" y="164.93" width="20.241" height="16.007" fill="#2f3744" stroke="#7b8694"/>
   <g fill="#e8eaec" aria-label="Firepower">
    <path d="m82.181 171.33v2.3077h0.263v-1.1335h0.86307v-0.22225h-0.86307v-0.72602h1.0668v-0.22595z"/>
    <path d="m84.141 171.94v0.21855h0.40746v1.2631h-0.42968v0.21114h1.0964v-0.21114h-0.39635v-1.4817zm0.54822-0.73342c-0.10742 0-0.19262 0.0852-0.19262 0.18891 0 0.10372 0.0852 0.18891 0.19262 0.18891 0.10742 0 0.19262-0.0852 0.19262-0.18891 0-0.10372-0.0852-0.18891-0.19262-0.18891z"/>
    <path d="m85.967 171.95v1.6928h0.2667v-0.82232c0-0.10372 0.0037-0.21485 0.11853-0.39635 0.15558-0.24448 0.3556-0.28522 0.47784-0.28522 0.14076 0 0.22966 0.0667 0.27781 0.12594 0.02223 0.0296 0.03334 0.0593 0.06297 0.0852l0.12594-0.25559c-0.10742-0.11113-0.263-0.18521-0.45191-0.18521-0.24818 0-0.50006 0.12594-0.61119 0.36671l0.01111-0.32596z"/>
    <path d="m88.408 171.91c-0.40375 0-0.77788 0.28893-0.77788 0.90382 0 0.56674 0.3519 0.86677 0.81121 0.86677 0.24448 0 0.46302-0.0889 0.60748-0.26299l-0.14817-0.14447c-0.10742 0.12595-0.2704 0.19262-0.43709 0.19262-0.22596 0-0.55563-0.12594-0.57415-0.63341h1.2002c0.01111-0.11483 0.0074-0.22596-0.01111-0.32226-0.07779-0.45562-0.39264-0.60008-0.67046-0.60008zm-0.51118 0.71861c0.05556-0.40005 0.31115-0.51488 0.49265-0.51488 0.27411 0 0.47043 0.24077 0.43709 0.51488z"/>
    <path d="m89.523 171.95 0.0037 2.3077h0.2704v-0.84084c0.11483 0.16669 0.30374 0.2704 0.50747 0.2704 0.34819 0 0.7112-0.29263 0.7112-0.91122 0-0.59638-0.3519-0.86308-0.68527-0.86308-0.21855 0-0.42228 0.11113-0.5371 0.29634v-0.25929zm0.7075 0.18891c0.14817 0 0.50747 0.0778 0.50747 0.69268 0 0.5334-0.34819 0.6186-0.50747 0.6186s-0.32226-0.0815-0.38894-0.23337c-0.04815-0.11483-0.04815-0.25559-0.04815-0.50006 0-0.14076 0.0074-0.24448 0.04445-0.33338 0.06668-0.15187 0.22225-0.24447 0.39264-0.24447z"/>
    <path d="m92.861 172.8c0-0.58526-0.37042-0.88901-0.75565-0.88901-0.42968 0-0.8001 0.37042-0.8001 0.89641 0 0.51488 0.36671 0.87789 0.79269 0.87789 0.40005 0 0.76306-0.32226 0.76306-0.88529zm-0.77417-0.66305c0.24448 0 0.50377 0.21114 0.50377 0.67416 0 0.42598-0.24448 0.64082-0.48895 0.64082-0.2704 0-0.51488-0.25188-0.51488-0.67046 0-0.41486 0.24077-0.64452 0.50006-0.64452z"/>
    <path d="m93.064 171.94 0.34078 1.6965h0.24077l0.29633-1.0964 0.31486 1.0964h0.24818c0.11483-0.55933 0.21114-1.1261 0.28152-1.6928h-0.24448c0.0074 0.20373-0.01111 0.39264-0.15928 1.3557l-0.3556-1.2002h-0.16298l-0.29263 1.2039-0.24448-1.2224c-0.0074-0.0259-0.0074-0.037 0.0037-0.0667 0.0037-0.0185 0.01482-0.0445 0.0037-0.0741z"/>
    <path d="m95.817 171.91c-0.40375 0-0.77788 0.28893-0.77788 0.90382 0 0.56674 0.3519 0.86677 0.81121 0.86677 0.24448 0 0.46302-0.0889 0.60748-0.26299l-0.14817-0.14447c-0.10742 0.12595-0.2704 0.19262-0.43709 0.19262-0.22596 0-0.55563-0.12594-0.57415-0.63341h1.2002c0.01111-0.11483 0.0074-0.22596-0.01111-0.32226-0.07779-0.45562-0.39264-0.60008-0.67046-0.60008zm-0.51118 0.71861c0.05556-0.40005 0.31115-0.51488 0.49265-0.51488 0.27411 0 0.47043 0.24077 0.43709 0.51488z"/>
    <path d="m97.08 171.95v1.6928h0.2667v-0.82232c0-0.10372 0.0037-0.21485 0.11853-0.39635 0.15558-0.24448 0.3556-0.28522 0.47784-0.28522 0.14076 0 0.22966 0.0667 0.27781 0.12594 0.02223 0.0296 0.03334 0.0593 0.06297 0.0852l0.12594-0.25559c-0.10742-0.11113-0.263-0.18521-0.45191-0.18521-0.24818 0-0.50006 0.12594-0.61119 0.36671l0.01111-0.32596z"/>
   </g>
  </g>
  <path d="m78.141 120.42v15.316" fill="none" stroke="#7893ea" stroke-linecap="round" stroke-width=".26458"/>
  <rect transform="matrix(-.70711 .70711 .70711 .70711 0 0)" x="29.789" y="140.3" width="2.1167" height="2.1167" fill="#1d232d" stroke="#7893ea" stroke-linecap="round" stroke-width=".26458"/>
  <circle transform="matrix(0,1,1,0,0,0)" cx="121.77" cy="78.141" r=".52917" fill="#7893ea"/>
  <path d="m96.346 120.25 16.652 16.652" fill="none" stroke="#7893ea" stroke-linecap="round" stroke-width=".26458"/>
  <rect transform="matrix(0,1,1,0,0,0)" x="120.14" y="96.241" width="2.1167" height="2.1167" fill="#1d232d" stroke="#7893ea" stroke-linecap="round" stroke-width=".26458"/>
  <circle transform="matrix(.70711 .70711 .70711 -.70711 0 0)" cx="154.51" cy="-16.902" r=".52917" fill="#7893ea"/>
  <g fill="none" stroke="#7893ea">
   <g transform="matrix(-.0031774 0 0 .0032318 150.8 143.26)" stroke-width="82.566">
    <g fill="none" stroke="#7893ea" stroke-width="82.566">
     <path d="m486.41 221.41-364.07-208.5c-52.938-30.318-95.852-5.44-95.852 55.563v415.65c0 61.004 42.914 85.882 95.852 55.563l364.07-208.49c52.938-30.317 52.938-79.473 0-109.79z" fill="none" stroke="#7893ea" stroke-width="82.566"/>
    </g>
   </g>
   <path d="m150.94 144.15h14.982" stroke-linecap="round" stroke-width=".26458"/>
   <g transform="matrix(-.0027517 -.0015887 -.0016159 .0027988 150.84 152.03)" stroke-width="82.566">
    <g fill="none" stroke="#7893ea" stroke-width="82.566">
     <path d="m486.41 221.41-364.07-208.5c-52.938-30.318-95.852-5.44-95.852 55.563v415.65c0 61.004 42.914 85.882 95.852 55.563l364.07-208.49c52.938-30.317 52.938-79.473 0-109.79z" fill="none" stroke="#7893ea" stroke-width="82.566"/>
    </g>
   </g>
   <g>
    <path d="m150.3 152.75 15.61 9.0127" stroke-linecap="round" stroke-width=".26458"/>
    <g transform="matrix(-.0027517 .0015887 -.0016159 -.0027988 150.84 135.81)" stroke-width="82.566">
     <g fill="none" stroke="#7893ea" stroke-width="82.566">
      <path d="m486.41 221.41-364.07-208.5c-52.938-30.318-95.852-5.44-95.852 55.563v415.65c0 61.004 42.914 85.882 95.852 55.563l364.07-208.49c52.938-30.317 52.938-79.473 0-109.79z" fill="none" stroke="#7893ea" stroke-width="82.566"/>
     </g>
    </g>
    <path d="m150.3 135.09 15.61-9.0127" stroke-linecap="round" stroke-width=".26458"/>
   </g>
   <g transform="matrix(.0019343 -.0025208 .002564 .0019674 73.869 152.63)" stroke-width="82.566">
    <g fill="none" stroke="#7893ea" stroke-width="82.566">
     <path d="m486.41 221.41-364.07-208.5c-52.938-30.318-95.852-5.44-95.852 55.563v415.65c0 61.004 42.914 85.882 95.852 55.563l364.07-208.49c52.938-30.317 52.938-79.473 0-109.79z" fill="none" stroke="#7893ea" stroke-width="82.566"/>
    </g>
   </g>
   <path d="m74.56 153.19-8.9223 11.628" stroke-linecap="round" stroke-width=".26458"/>
  </g>
  <g stroke-linecap="round" stroke-width=".26458">
   <g fill="#e8eaec" stroke="#cf2f25" aria-label="*">
    <path d="m79.378 133.63 0.04762 0.56197-0.51118-0.2413-0.08255 0.20638 0.54928 0.1651-0.41592 0.47625 0.17462 0.1397 0.3556-0.52705 0.3429 0.52387 0.17145-0.13652-0.40005-0.47943 0.5461-0.16192-0.08572-0.19685-0.50482 0.23177 0.0508-0.47625c0.0032-0.0413 0.0127-0.0476 0.01905-0.0857z" fill="#e8eaec" stroke="none"/>
   </g>
   <g fill="#e8eaec" stroke="#cf2f25" aria-label="*">
    <path d="m112.72 133.63 0.0476 0.56197-0.51118-0.2413-0.0826 0.20638 0.54928 0.1651-0.41593 0.47625 0.17463 0.1397 0.3556-0.52705 0.3429 0.52387 0.17145-0.13652-0.40005-0.47943 0.5461-0.16192-0.0857-0.19685-0.50482 0.23177 0.0508-0.47625c3e-3 -0.0413 0.0127-0.0476 0.019-0.0857z" fill="#e8eaec" stroke="none"/>
   </g>
   <rect x="104" y="164.93" width="20.241" height="16.007" fill="#2f3744" stroke="#7b8694"/>
   <g fill="#e8eaec" aria-label="Armor">
    <path d="m109.46 173.64h0.25559l0.22596-0.67786h0.72972l0.25559 0.67416h0.2704l-0.8927-2.3484h-0.0296zm1.1557-0.87789h-0.62601l0.30004-0.87788z"/>
    <path d="m111.63 171.95v1.6928h0.2667v-0.82232c0-0.10372 4e-3 -0.21485 0.11854-0.39635 0.15557-0.24448 0.3556-0.28522 0.47784-0.28522 0.14075 0 0.22965 0.0667 0.27781 0.12594 0.0222 0.0296 0.0333 0.0593 0.063 0.0852l0.12594-0.25559c-0.10742-0.11113-0.26299-0.18521-0.45191-0.18521-0.24818 0-0.50006 0.12594-0.61119 0.36671l0.0111-0.32596z"/>
    <path d="m113.25 173.64h0.24448v-1.1261c0-0.0815 7e-3 -0.15558 0.0556-0.24448 0.0593-0.11112 0.13335-0.15557 0.20373-0.15557 0.0593 0 0.12594 0.037 0.15557 0.12965 0.0222 0.0704 0.0185 0.15187 0.0185 0.22225v1.1742h0.24818v-1.1187c0-0.0889 7e-3 -0.15928 0.0704-0.2667 0.0296-0.0444 0.0926-0.15187 0.19632-0.15187 0.0556 0 0.10742 0.0333 0.13335 0.0963 0.0333 0.0704 0.0259 0.16668 0.0259 0.24447v1.2002h0.25189v-1.2038c0-0.14076 4e-3 -0.28152-0.0704-0.39635-0.063-0.0963-0.17039-0.13335-0.263-0.13335-0.16298 0-0.31485 0.0963-0.38153 0.24448-0.0259-0.14076-0.14446-0.24448-0.29633-0.24448-0.14076 0-0.27041 0.0889-0.34819 0.20743l4e-3 -0.16668h-0.24818z"/>
    <path d="m116.67 172.8c0-0.58526-0.37042-0.88901-0.75565-0.88901-0.42968 0-0.8001 0.37042-0.8001 0.89641 0 0.51488 0.36671 0.87789 0.79269 0.87789 0.40005 0 0.76306-0.32226 0.76306-0.88529zm-0.77417-0.66305c0.24447 0 0.50377 0.21114 0.50377 0.67416 0 0.42598-0.24448 0.64082-0.48896 0.64082-0.2704 0-0.51487-0.25188-0.51487-0.67046 0-0.41486 0.24077-0.64452 0.50006-0.64452z"/>
    <path d="m117.19 171.95v1.6928h0.2667v-0.82232c0-0.10372 4e-3 -0.21485 0.11853-0.39635 0.15558-0.24448 0.3556-0.28522 0.47784-0.28522 0.14076 0 0.22966 0.0667 0.27781 0.12594 0.0222 0.0296 0.0333 0.0593 0.063 0.0852l0.12595-0.25559c-0.10742-0.11113-0.263-0.18521-0.45191-0.18521-0.24818 0-0.50007 0.12594-0.61119 0.36671l0.0111-0.32596z"/>
   </g>
   <rect x="32.565" y="164.93" width="20.241" height="16.007" fill="#2f3744" stroke="#7b8694"/>
   <g fill="#e8eaec" aria-label="Mana">
    <path d="m39.05 171.33v2.3114h0.24448v-1.7298l0.46672 0.91493h0.09631l0.50006-0.92974v1.7447h0.24448v-2.3114h-0.19262l-0.58156 1.1298-0.57415-1.1298z"/>
    <path d="m41.087 172.14 0.12965 0.17039c0.14076-0.14446 0.32967-0.18891 0.48895-0.18891 0.20002 0 0.30004 0.0852 0.34819 0.16298 0.05556 0.0926 0.05186 0.20373 0.05186 0.29263v0.0593h-0.05186c-0.25188 0-0.51858 0-0.73343 0.0778-0.2667 0.0963-0.38523 0.29634-0.38523 0.48155 0 0.24818 0.21484 0.48154 0.56674 0.48154 0.20743 0 0.42228-0.0778 0.60748-0.22966v0.18521h0.25188v-1.0483c0-0.13706-0.0037-0.2667-0.08149-0.40005-0.11112-0.18151-0.32597-0.27782-0.58896-0.27782-0.22595 0-0.4445 0.0704-0.60378 0.23337zm1.0298 0.70009v0.11482c0 0.0852 0 0.19633-0.11483 0.31856-0.06297 0.063-0.22225 0.20003-0.4445 0.20003-0.22596 0-0.3556-0.14446-0.3556-0.29263 0-0.12594 0.08519-0.263 0.29633-0.31486 0.15558-0.037 0.38153-0.0259 0.55933-0.0259z"/>
    <path d="m42.858 173.64h0.2704v-0.9742c0-0.11112 0.01482-0.19632 0.0852-0.28892 0.06297-0.0852 0.22595-0.23707 0.40375-0.23707 0.0852 0 0.17039 0.037 0.22966 0.10742 0.0926 0.11112 0.0926 0.25559 0.0926 0.37412v1.0186h0.263v-1.0261c0-0.12964 0-0.2704-0.05927-0.40746-0.0852-0.18891-0.25929-0.29633-0.45191-0.29633-0.22966 0-0.43709 0.14817-0.56303 0.33708v-0.29633h-0.2704z"/>
    <path d="m44.791 172.14 0.12965 0.17039c0.14076-0.14446 0.32967-0.18891 0.48895-0.18891 0.20002 0 0.30004 0.0852 0.34819 0.16298 0.05556 0.0926 0.05186 0.20373 0.05186 0.29263v0.0593h-0.05186c-0.25188 0-0.51858 0-0.73343 0.0778-0.2667 0.0963-0.38523 0.29634-0.38523 0.48155 0 0.24818 0.21484 0.48154 0.56674 0.48154 0.20743 0 0.42228-0.0778 0.60748-0.22966v0.18521h0.25188v-1.0483c0-0.13706-0.0037-0.2667-0.08149-0.40005-0.11112-0.18151-0.32597-0.27782-0.58896-0.27782-0.22596 0-0.4445 0.0704-0.60378 0.23337zm1.0298 0.70009v0.11482c0 0.0852 0 0.19633-0.11483 0.31856-0.06297 0.063-0.22225 0.20003-0.4445 0.20003-0.22596 0-0.3556-0.14446-0.3556-0.29263 0-0.12594 0.0852-0.263 0.29633-0.31486 0.15558-0.037 0.38153-0.0259 0.55933-0.0259z"/>
   </g>
  </g>
  <g fill="none" stroke="#7893ea">
   <g transform="matrix(.0025208 -.0019343 .0019674 .002564 58.079 152.1)" stroke-width="82.566">
    <g fill="none" stroke="#7893ea" stroke-width="82.566">
     <path d="m486.41 221.41-364.07-208.5c-52.938-30.318-95.852-5.44-95.852 55.563v415.65c0 61.004 42.914 85.882 95.852 55.563l364.07-208.49c52.938-30.317 52.938-79.473 0-109.79z" fill="none" stroke="#7893ea" stroke-width="82.566"/>
    </g>
   </g>
   <path d="m58.603 152.82-15.454 11.858" stroke-linecap="round" stroke-width=".26458"/>
   <g transform="matrix(-.0019343 -.0025208 -.002564 .0019674 81.983 152.63)" stroke-width="82.566">
    <g fill="none" stroke="#7893ea" stroke-width="82.566">
     <path d="m486.41 221.41-364.07-208.5c-52.938-30.318-95.852-5.44-95.852 55.563v415.65c0 61.004 42.914 85.882 95.852 55.563l364.07-208.49c52.938-30.317 52.938-79.473 0-109.79z" fill="none" stroke="#7893ea" stroke-width="82.566"/>
    </g>
   </g>
   <path d="m81.292 153.19 8.9223 11.628" stroke-linecap="round" stroke-width=".26458"/>
   <g transform="matrix(-.0025208 -.0019343 -.0019674 .002564 97.773 152.1)" stroke-width="82.566">
    <g fill="none" stroke="#7893ea" stroke-width="82.566">
     <path d="m486.41 221.41-364.07-208.5c-52.938-30.318-95.852-5.44-95.852 55.563v415.65c0 61.004 42.914 85.882 95.852 55.563l364.07-208.49c52.938-30.317 52.938-79.473 0-109.79z" fill="none" stroke="#7893ea" stroke-width="82.566"/>
    </g>
   </g>
   <path d="m97.249 152.82 15.454 11.858" stroke-linecap="round" stroke-width=".26458"/>
  </g>
 </g>
</svg>
