<?xml version="1.0" encoding="UTF-8"?>
<svg width="125.02mm" height="54.504mm" version="1.1" viewBox="0 0 125.02 54.504" xmlns="http://www.w3.org/2000/svg" xmlns:cc="http://creativecommons.org/ns#" xmlns:dc="http://purl.org/dc/elements/1.1/" xmlns:rdf="http://www.w3.org/1999/02/22-rdf-syntax-ns#">
 <metadata>
  <rdf:RDF>
   <cc:Work rdf:about="">
    <dc:format>image/svg+xml</dc:format>
    <dc:type rdf:resource="http://purl.org/dc/dcmitype/StillImage"/>
    <dc:title/>
   </cc:Work>
  </rdf:RDF>
 </metadata>
 <g>
  <g stroke-linecap="round" stroke-width=".26458">
   <path d="m28.469 0.13229-2.8112 2.3813v2.6458l2.8112 2.3812h24.805l2.8112-2.3812v-2.6458l-2.8112-2.3813z" fill="#2f3744" stroke="#7b8694"/>
   <g fill="#e8eaec" aria-label="HeroState">
    <path d="m33.266 5.1593h0.31115v-1.1446h1.1298v1.1446h0.30745v-2.4299h-0.30745v1.0186h-1.1298v-1.0186h-0.31115z"/>
    <path d="m35.508 4.2629c0 0.58896 0.38153 0.94086 0.86307 0.94086 0.24448 0 0.43709-0.085196 0.59267-0.18521l-0.10742-0.20003c-0.13335 0.085196-0.27781 0.14076-0.4482 0.14076-0.34449 0-0.57785-0.24448-0.60008-0.63341h1.215c0.0074-0.04445 0.01111-0.10372 0.01111-0.16669 0-0.51488-0.25929-0.84455-0.71861-0.84455-0.41116 0-0.80751 0.3593-0.80751 0.94827zm0.29633-0.13705c0.03704-0.36301 0.2667-0.57044 0.51858-0.57044 0.28152 0 0.4445 0.20373 0.4445 0.57044z"/>
    <path d="m37.479 5.1593h0.30374v-1.1557c0.12224-0.30374 0.30374-0.41487 0.45561-0.41487 0.07408 0 0.11483 0.011113 0.1741 0.029633l0.05927-0.2667c-0.05927-0.025929-0.11483-0.037042-0.19262-0.037042-0.20373 0-0.38894 0.14446-0.51118 0.37042h-0.01111l-0.02593-0.32597h-0.25188z"/>
    <path d="m38.598 4.2629c0 0.59637 0.39264 0.94086 0.83344 0.94086s0.83344-0.34449 0.83344-0.94086c0-0.60378-0.39264-0.94827-0.83344-0.94827s-0.83344 0.34449-0.83344 0.94827zm0.31485 0c0-0.41487 0.21114-0.69638 0.51858-0.69638 0.31115 0 0.51858 0.28152 0.51858 0.69638 0 0.41116-0.20743 0.68898-0.51858 0.68898-0.30745 0-0.51858-0.27781-0.51858-0.68898z"/>
    <path d="m40.587 4.8445c0.21114 0.21855 0.50747 0.3593 0.84826 0.3593 0.51118 0 0.82973-0.30745 0.82973-0.69268 0-0.3593-0.21855-0.52599-0.50006-0.64823l-0.34819-0.14817c-0.18891-0.081492-0.40375-0.17039-0.40375-0.40375 0-0.21855 0.1815-0.3556 0.45561-0.3556 0.22225 0 0.40375 0.0889 0.55192 0.22966l0.16298-0.20003c-0.17039-0.1778-0.42598-0.30004-0.7149-0.30004-0.4408 0-0.76676 0.27411-0.76676 0.64453 0 0.3556 0.2667 0.5297 0.49265 0.626l0.34819 0.15187c0.22966 0.10372 0.40746 0.1815 0.40746 0.42968 0 0.23707-0.18891 0.39635-0.50747 0.39635-0.25559 0-0.49636-0.12224-0.67046-0.30374z"/>
    <path d="m42.755 4.6037c0 0.3556 0.12965 0.60008 0.51488 0.60008 0.11112 0 0.23336-0.033338 0.33338-0.066675l-0.05927-0.22966c-0.05927 0.022225-0.14076 0.048154-0.20373 0.048154-0.20743 0-0.27781-0.12594-0.27781-0.34819v-1.0001h0.48525v-0.24818h-0.48524v-0.50377h-0.25559l-0.03704 0.50377-0.28152 0.018521v0.22966h0.2667z"/>
    <path d="m43.8 4.6926c0 0.32226 0.22595 0.51118 0.5297 0.51118 0.22225 0 0.42228-0.11853 0.59637-0.25929h0.0074l0.02593 0.21484h0.25188v-1.1038c0-0.4482-0.18521-0.74083-0.626-0.74083-0.28893 0-0.54081 0.12594-0.7075 0.23336l0.12224 0.21114c0.14076-0.096308 0.32597-0.19262 0.5371-0.19262 0.29263 0 0.37042 0.22225 0.37042 0.45191-0.76676 0.085196-1.1075 0.28152-1.1075 0.67416zm0.30004-0.022225c0-0.22966 0.20373-0.37783 0.80751-0.45191v0.50006c-0.1741 0.15558-0.31856 0.24077-0.49265 0.24077-0.1778 0-0.31486-0.085196-0.31486-0.28893z"/>
    <path d="m45.837 4.6037c0 0.3556 0.12964 0.60008 0.51488 0.60008 0.11112 0 0.23336-0.033338 0.33338-0.066675l-0.05927-0.22966c-0.05927 0.022225-0.14076 0.048154-0.20373 0.048154-0.20743 0-0.27781-0.12594-0.27781-0.34819v-1.0001h0.48525v-0.24818h-0.48524v-0.50377h-0.25559l-0.03704 0.50377-0.28152 0.018521v0.22966h0.2667z"/>
    <path d="m46.867 4.2629c0 0.58896 0.38153 0.94086 0.86307 0.94086 0.24448 0 0.43709-0.085196 0.59267-0.18521l-0.10742-0.20003c-0.13335 0.085196-0.27781 0.14076-0.4482 0.14076-0.34449 0-0.57785-0.24448-0.60008-0.63341h1.215c0.0074-0.04445 0.01111-0.10372 0.01111-0.16669 0-0.51488-0.25929-0.84455-0.71861-0.84455-0.41116 0-0.80751 0.3593-0.80751 0.94827zm0.29633-0.13705c0.03704-0.36301 0.2667-0.57044 0.51858-0.57044 0.28152 0 0.4445 0.20373 0.4445 0.57044z"/>
   </g>
   <path d="m62.864 0.13229-2.8112 2.3813v2.6458l2.8112 2.3812h24.805l2.8112-2.3812v-2.6458l-2.8112-2.3813z" fill="#2f3744" stroke="#7b8694"/>
   <g fill="#e8eaec" aria-label="TeamState">
    <path d="m67.681 5.1593h0.30745v-2.1706h0.73713v-0.25929h-1.7817v0.25929h0.73713z"/>
    <path d="m68.743 4.2629c0 0.58896 0.38153 0.94086 0.86307 0.94086 0.24448 0 0.43709-0.085196 0.59267-0.18521l-0.10742-0.20003c-0.13335 0.085196-0.27781 0.14076-0.4482 0.14076-0.34449 0-0.57785-0.24448-0.60008-0.63341h1.215c0.0074-0.04445 0.01111-0.10372 0.01111-0.16669 0-0.51488-0.25929-0.84455-0.71861-0.84455-0.41116 0-0.80751 0.3593-0.80751 0.94827zm0.29633-0.13705c0.03704-0.36301 0.2667-0.57044 0.51858-0.57044 0.28152 0 0.4445 0.20373 0.4445 0.57044z"/>
    <path d="m70.574 4.6926c0 0.32226 0.22595 0.51118 0.5297 0.51118 0.22225 0 0.42228-0.11853 0.59637-0.25929h0.0074l0.02593 0.21484h0.25188v-1.1038c0-0.4482-0.18521-0.74083-0.626-0.74083-0.28892 0-0.54081 0.12594-0.7075 0.23336l0.12224 0.21114c0.14076-0.096308 0.32597-0.19262 0.5371-0.19262 0.29263 0 0.37042 0.22225 0.37042 0.45191-0.76676 0.085196-1.1075 0.28152-1.1075 0.67416zm0.30004-0.022225c0-0.22966 0.20373-0.37783 0.80751-0.45191v0.50006c-0.1741 0.15558-0.31856 0.24077-0.49266 0.24077-0.1778 0-0.31485-0.085196-0.31485-0.28893z"/>
    <path d="m72.559 5.1593h0.30374v-1.3039c0.16669-0.18521 0.31856-0.27781 0.45191-0.27781 0.22966 0 0.33708 0.14446 0.33708 0.48154v1.1001h0.30374v-1.3039c0.16669-0.18521 0.31115-0.27781 0.45191-0.27781 0.22595 0 0.33338 0.14446 0.33338 0.48154v1.1001h0.30374v-1.1409c0-0.45932-0.1778-0.70379-0.54822-0.70379-0.21855 0-0.40376 0.14076-0.59267 0.34449-0.07408-0.21484-0.22225-0.34449-0.49636-0.34449-0.21484 0-0.40376 0.13335-0.55933 0.30374h-0.01111l-0.02593-0.25929h-0.25188z"/>
    <path d="m75.471 4.8445c0.21114 0.21855 0.50747 0.3593 0.84826 0.3593 0.51118 0 0.82973-0.30745 0.82973-0.69268 0-0.3593-0.21855-0.52599-0.50006-0.64823l-0.34819-0.14817c-0.18891-0.081492-0.40376-0.17039-0.40376-0.40375 0-0.21855 0.1815-0.3556 0.45561-0.3556 0.22225 0 0.40376 0.0889 0.55192 0.22966l0.16298-0.20003c-0.17039-0.1778-0.42598-0.30004-0.7149-0.30004-0.4408 0-0.76676 0.27411-0.76676 0.64453 0 0.3556 0.2667 0.5297 0.49266 0.626l0.34819 0.15187c0.22966 0.10372 0.40746 0.1815 0.40746 0.42968 0 0.23707-0.18891 0.39635-0.50747 0.39635-0.25559 0-0.49636-0.12224-0.67046-0.30374z"/>
    <path d="m77.639 4.6037c0 0.3556 0.12965 0.60008 0.51488 0.60008 0.11112 0 0.23336-0.033338 0.33338-0.066675l-0.059267-0.22966c-0.05927 0.022225-0.14076 0.048154-0.20373 0.048154-0.20743 0-0.27781-0.12594-0.27781-0.34819v-1.0001h0.48525v-0.24818h-0.48525v-0.50377h-0.25559l-0.03704 0.50377-0.28152 0.018521v0.22966h0.2667z"/>
    <path d="m78.685 4.6926c0 0.32226 0.22595 0.51118 0.5297 0.51118 0.22225 0 0.42228-0.11853 0.59637-0.25929h0.0074l0.02593 0.21484h0.25188v-1.1038c0-0.4482-0.18521-0.74083-0.626-0.74083-0.28893 0-0.54081 0.12594-0.7075 0.23336l0.12224 0.21114c0.14076-0.096308 0.32597-0.19262 0.5371-0.19262 0.29263 0 0.37042 0.22225 0.37042 0.45191-0.76676 0.085196-1.1075 0.28152-1.1075 0.67416zm0.30004-0.022225c0-0.22966 0.20373-0.37783 0.80751-0.45191v0.50006c-0.1741 0.15558-0.31856 0.24077-0.49265 0.24077-0.1778 0-0.31486-0.085196-0.31486-0.28893z"/>
    <path d="m80.721 4.6037c0 0.3556 0.12965 0.60008 0.51488 0.60008 0.11112 0 0.23336-0.033338 0.33338-0.066675l-0.05927-0.22966c-0.05927 0.022225-0.14076 0.048154-0.20373 0.048154-0.20743 0-0.27781-0.12594-0.27781-0.34819v-1.0001h0.48525v-0.24818h-0.48525v-0.50377h-0.25559l-0.03704 0.50377-0.28152 0.018521v0.22966h0.2667z"/>
    <path d="m81.751 4.2629c0 0.58896 0.38153 0.94086 0.86307 0.94086 0.24448 0 0.43709-0.085196 0.59267-0.18521l-0.10742-0.20003c-0.13335 0.085196-0.27781 0.14076-0.4482 0.14076-0.34449 0-0.57785-0.24448-0.60008-0.63341h1.215c0.0074-0.04445 0.01111-0.10372 0.01111-0.16669 0-0.51488-0.25929-0.84455-0.71861-0.84455-0.41116 0-0.80751 0.3593-0.80751 0.94827zm0.29633-0.13705c0.03704-0.36301 0.2667-0.57044 0.51858-0.57044 0.28152 0 0.4445 0.20373 0.4445 0.57044z"/>
   </g>
   <path d="m97.26 0.13229-2.8112 2.3813v2.6458l2.8112 2.3812h24.805l2.8112-2.3812v-2.6458l-2.8112-2.3813z" fill="#2f3744" stroke="#7b8694"/>
   <g fill="#e8eaec" aria-label="GameState">
    <path d="m101.17 3.9444c0 0.79269 0.45562 1.2594 1.0927 1.2594 0.32597 0 0.59637-0.12594 0.75565-0.28152v-1.0224h-0.79639v0.25559h0.51488v0.63341c-0.0963 0.0889-0.2667 0.14446-0.4408 0.14446-0.51858 0-0.80751-0.38523-0.80751-0.99642 0-0.60378 0.31486-0.9816 0.80751-0.9816 0.24077 0 0.39264 0.096308 0.51488 0.22595l0.1778-0.19632c-0.14446-0.14817-0.36671-0.30004-0.69638-0.30004-0.65194 0-1.1224 0.47784-1.1224 1.2594z"/>
    <path d="m103.47 4.6926c0 0.32226 0.22596 0.51118 0.5297 0.51118 0.22225 0 0.42228-0.11853 0.59637-0.25929h7e-3l0.0259 0.21484h0.25188v-1.1038c0-0.4482-0.18521-0.74083-0.626-0.74083-0.28893 0-0.54081 0.12594-0.7075 0.23336l0.12224 0.21114c0.14076-0.096308 0.32597-0.19262 0.5371-0.19262 0.29263 0 0.37042 0.22225 0.37042 0.45191-0.76676 0.085196-1.1076 0.28152-1.1076 0.67416zm0.30004-0.022225c0-0.22966 0.20373-0.37783 0.80751-0.45191v0.50006c-0.1741 0.15558-0.31856 0.24077-0.49265 0.24077-0.1778 0-0.31486-0.085196-0.31486-0.28893z"/>
    <path d="m105.45 5.1593h0.30374v-1.3039c0.16669-0.18521 0.31856-0.27781 0.45191-0.27781 0.22966 0 0.33708 0.14446 0.33708 0.48154v1.1001h0.30374v-1.3039c0.16669-0.18521 0.31115-0.27781 0.45191-0.27781 0.22595 0 0.33337 0.14446 0.33337 0.48154v1.1001h0.30374v-1.1409c0-0.45932-0.1778-0.70379-0.54821-0.70379-0.21855 0-0.40376 0.14076-0.59267 0.34449-0.0741-0.21484-0.22225-0.34449-0.49636-0.34449-0.21484 0-0.40375 0.13335-0.55933 0.30374h-0.0111l-0.0259-0.25929h-0.25188z"/>
    <path d="m108.38 4.2629c0 0.58896 0.38153 0.94086 0.86307 0.94086 0.24448 0 0.4371-0.085196 0.59267-0.18521l-0.10742-0.20003c-0.13335 0.085196-0.27781 0.14076-0.4482 0.14076-0.34449 0-0.57785-0.24448-0.60008-0.63341h1.215c7e-3 -0.04445 0.0111-0.10372 0.0111-0.16669 0-0.51488-0.25929-0.84455-0.71861-0.84455-0.41116 0-0.80751 0.3593-0.80751 0.94827zm0.29634-0.13705c0.037-0.36301 0.2667-0.57044 0.51858-0.57044 0.28152 0 0.4445 0.20373 0.4445 0.57044z"/>
    <path d="m110.13 4.8445c0.21113 0.21855 0.50747 0.3593 0.84825 0.3593 0.51118 0 0.82973-0.30745 0.82973-0.69268 0-0.3593-0.21854-0.52599-0.50006-0.64823l-0.34819-0.14817c-0.18891-0.081492-0.40375-0.17039-0.40375-0.40375 0-0.21855 0.1815-0.3556 0.45561-0.3556 0.22225 0 0.40375 0.0889 0.55192 0.22966l0.16298-0.20003c-0.17039-0.1778-0.42598-0.30004-0.7149-0.30004-0.4408 0-0.76676 0.27411-0.76676 0.64453 0 0.3556 0.2667 0.5297 0.49265 0.626l0.34819 0.15187c0.22966 0.10372 0.40746 0.1815 0.40746 0.42968 0 0.23707-0.18891 0.39635-0.50747 0.39635-0.25559 0-0.49636-0.12224-0.67046-0.30374z"/>
    <path d="m112.3 4.6037c0 0.3556 0.12965 0.60008 0.51488 0.60008 0.11113 0 0.23337-0.033338 0.33338-0.066675l-0.0593-0.22966c-0.0593 0.022225-0.14076 0.048154-0.20373 0.048154-0.20743 0-0.27781-0.12594-0.27781-0.34819v-1.0001h0.48525v-0.24818h-0.48525v-0.50377h-0.25559l-0.037 0.50377-0.28152 0.018521v0.22966h0.2667z"/>
    <path d="m113.34 4.6926c0 0.32226 0.22595 0.51118 0.52969 0.51118 0.22225 0 0.42228-0.11853 0.59638-0.25929h7e-3l0.0259 0.21484h0.25189v-1.1038c0-0.4482-0.18521-0.74083-0.62601-0.74083-0.28892 0-0.54081 0.12594-0.70749 0.23336l0.12223 0.21114c0.14076-0.096308 0.32597-0.19262 0.53711-0.19262 0.29263 0 0.37042 0.22225 0.37042 0.45191-0.76677 0.085196-1.1076 0.28152-1.1076 0.67416zm0.30004-0.022225c0-0.22966 0.20373-0.37783 0.80751-0.45191v0.50006c-0.1741 0.15558-0.31856 0.24077-0.49266 0.24077-0.1778 0-0.31485-0.085196-0.31485-0.28893z"/>
    <path d="m115.38 4.6037c0 0.3556 0.12965 0.60008 0.51488 0.60008 0.11113 0 0.23336-0.033338 0.33338-0.066675l-0.0593-0.22966c-0.0593 0.022225-0.14076 0.048154-0.20373 0.048154-0.20743 0-0.27781-0.12594-0.27781-0.34819v-1.0001h0.48524v-0.24818h-0.48524v-0.50377h-0.25559l-0.037 0.50377-0.28152 0.018521v0.22966h0.2667z"/>
    <path d="m116.41 4.2629c0 0.58896 0.38153 0.94086 0.86307 0.94086 0.24448 0 0.4371-0.085196 0.59267-0.18521l-0.10742-0.20003c-0.13335 0.085196-0.27781 0.14076-0.4482 0.14076-0.34449 0-0.57785-0.24448-0.60008-0.63341h1.215c7e-3 -0.04445 0.0111-0.10372 0.0111-0.16669 0-0.51488-0.25929-0.84455-0.71861-0.84455-0.41116 0-0.80751 0.3593-0.80751 0.94827zm0.29634-0.13705c0.037-0.36301 0.2667-0.57044 0.51858-0.57044 0.28152 0 0.4445 0.20373 0.4445 0.57044z"/>
   </g>
   <path d="m25.657 9.1281v5.2917h30.427v-1.5875l-4.1341-3.7042z" fill="#2f3744" stroke="#7b8694"/>
  </g>
  <path d="m52.814 8.9878 3.4107 2.9476v-2.9476h-2.0381z" fill="#7b8694"/>
  <g fill="#e8eaec" stroke-linecap="round" stroke-width=".26458" aria-label="ThreatAnalyzer">
   <path d="m29.899 13.097h0.30745v-2.1706h0.73713v-0.25929h-1.7817v0.25929h0.73713z"/>
   <path d="m31.341 13.097h0.30374v-1.3039c0.1815-0.1815 0.30745-0.27781 0.49266-0.27781 0.23707 0 0.34078 0.14446 0.34078 0.48154v1.1001h0.30374v-1.1409c0-0.45932-0.17039-0.70379-0.54822-0.70379-0.24818 0-0.42968 0.13335-0.60008 0.29633l0.01111-0.37042v-0.71861h-0.30374z"/>
   <path d="m33.359 13.097h0.30374v-1.1557c0.12224-0.30374 0.30374-0.41487 0.45561-0.41487 0.07408 0 0.11483 0.01111 0.1741 0.02963l0.05927-0.2667c-0.05927-0.02593-0.11483-0.03704-0.19262-0.03704-0.20373 0-0.38894 0.14446-0.51118 0.37042h-0.01111l-0.02593-0.32597h-0.25188z"/>
   <path d="m34.477 12.2c0 0.58896 0.38153 0.94086 0.86307 0.94086 0.24448 0 0.43709-0.08519 0.59267-0.18521l-0.10742-0.20002c-0.13335 0.0852-0.27781 0.14076-0.4482 0.14076-0.34449 0-0.57785-0.24448-0.60008-0.63341h1.215c0.0074-0.04445 0.01111-0.10372 0.01111-0.16669 0-0.51488-0.25929-0.84455-0.71861-0.84455-0.41116 0-0.80751 0.3593-0.80751 0.94827zm0.29633-0.13705c0.03704-0.36301 0.2667-0.57044 0.51858-0.57044 0.28152 0 0.4445 0.20373 0.4445 0.57044z"/>
   <path d="m36.309 12.63c0 0.32226 0.22596 0.51118 0.5297 0.51118 0.22225 0 0.42228-0.11853 0.59637-0.25929h0.0074l0.02593 0.21484h0.25188v-1.1038c0-0.4482-0.18521-0.74083-0.626-0.74083-0.28893 0-0.54081 0.12594-0.7075 0.23336l0.12224 0.21114c0.14076-0.09631 0.32597-0.19262 0.5371-0.19262 0.29263 0 0.37042 0.22225 0.37042 0.45191-0.76676 0.0852-1.1075 0.28152-1.1075 0.67416zm0.30004-0.02222c0-0.22966 0.20373-0.37782 0.80751-0.45191v0.50006c-0.1741 0.15558-0.31856 0.24077-0.49265 0.24077-0.1778 0-0.31486-0.0852-0.31486-0.28892z"/>
   <path d="m38.345 12.541c0 0.3556 0.12965 0.60008 0.51488 0.60008 0.11112 0 0.23336-0.03334 0.33338-0.06668l-0.05927-0.22966c-0.05927 0.02222-0.14076 0.04815-0.20373 0.04815-0.20743 0-0.27781-0.12594-0.27781-0.34819v-1.0001h0.48525v-0.24818h-0.48525v-0.50377h-0.25559l-0.03704 0.50377-0.28152 0.01852v0.22966h0.2667z"/>
   <path d="m39.867 12.108 0.11853-0.37042c0.0852-0.2704 0.16298-0.5371 0.24077-0.81862h0.01482c0.07779 0.28152 0.15558 0.54822 0.24077 0.81862l0.11483 0.37042zm1.0409 0.98901h0.32597l-0.82233-2.4299h-0.34819l-0.82233 2.4299h0.31486l0.23336-0.74083h0.8853z"/>
   <path d="m41.534 13.097h0.30374v-1.3039c0.1815-0.1815 0.30745-0.27781 0.49266-0.27781 0.23707 0 0.34078 0.14446 0.34078 0.48154v1.1001h0.30374v-1.1409c0-0.45932-0.17039-0.70379-0.54822-0.70379-0.24818 0-0.43339 0.13335-0.60378 0.30374h-0.01111l-0.02593-0.25929h-0.25188z"/>
   <path d="m43.471 12.63c0 0.32226 0.22595 0.51118 0.5297 0.51118 0.22225 0 0.42228-0.11853 0.59637-0.25929h0.0074l0.02593 0.21484h0.25188v-1.1038c0-0.4482-0.18521-0.74083-0.626-0.74083-0.28893 0-0.54081 0.12594-0.7075 0.23336l0.12224 0.21114c0.14076-0.09631 0.32597-0.19262 0.5371-0.19262 0.29263 0 0.37042 0.22225 0.37042 0.45191-0.76676 0.0852-1.1075 0.28152-1.1075 0.67416zm0.30004-0.02222c0-0.22966 0.20373-0.37782 0.80751-0.45191v0.50006c-0.1741 0.15558-0.31856 0.24077-0.49266 0.24077-0.1778 0-0.31486-0.0852-0.31486-0.28892z"/>
   <path d="m45.456 12.734c0 0.263 0.0926 0.40746 0.32226 0.40746 0.08149 0 0.13335-0.01111 0.1741-0.02963l-0.04075-0.22966c-0.03334 0.0074-0.04815 0.0074-0.06667 0.0074-0.04445 0-0.0852-0.03704-0.0852-0.13335v-2.2966h-0.30374z"/>
   <path d="m46.281 13.593-0.05927 0.24077c0.05927 0.02222 0.12965 0.03704 0.21114 0.03704 0.36301 0 0.54822-0.2704 0.67416-0.626l0.67786-1.9484h-0.29633l-0.32226 0.99642c-0.04815 0.15928-0.10001 0.34449-0.15187 0.50747h-0.01482c-0.05556-0.16669-0.11853-0.3519-0.1741-0.50747l-0.36671-0.99642h-0.31485l0.72231 1.8039-0.04075 0.13335c-0.07408 0.22225-0.20373 0.38523-0.40746 0.38523-0.04445 0-0.10001-0.01482-0.13705-0.02593z"/>
   <path d="m47.857 13.097h1.3631v-0.24818h-0.9779l0.94827-1.3891v-0.16298h-1.2298v0.24818h0.84455l-0.94827 1.3891z"/>
   <path d="m49.453 12.2c0 0.58896 0.38153 0.94086 0.86307 0.94086 0.24448 0 0.43709-0.08519 0.59267-0.18521l-0.10742-0.20002c-0.13335 0.0852-0.27781 0.14076-0.4482 0.14076-0.34449 0-0.57785-0.24448-0.60008-0.63341h1.215c0.0074-0.04445 0.01111-0.10372 0.01111-0.16669 0-0.51488-0.25929-0.84455-0.71861-0.84455-0.41116 0-0.80751 0.3593-0.80751 0.94827zm0.29633-0.13705c0.03704-0.36301 0.2667-0.57044 0.51858-0.57044 0.28152 0 0.4445 0.20373 0.4445 0.57044z"/>
   <path d="m51.424 13.097h0.30374v-1.1557c0.12224-0.30374 0.30374-0.41487 0.45561-0.41487 0.07408 0 0.11483 0.01111 0.1741 0.02963l0.05927-0.2667c-0.05927-0.02593-0.11483-0.03704-0.19262-0.03704-0.20373 0-0.38894 0.14446-0.51118 0.37042h-0.01111l-0.02593-0.32597h-0.25188z"/>
  </g>
  <path d="m60.053 9.1281v5.2917h30.427v-1.5875l-4.1341-3.7042z" fill="#2f3744" stroke="#7b8694" stroke-linecap="round" stroke-width=".26458"/>
  <path d="m87.21 8.9878 3.4107 2.9476v-2.9476h-2.0381z" fill="#7b8694"/>
  <g fill="#e8eaec" stroke-linecap="round" stroke-width=".26458" aria-label="EnemyAnalyzer">
   <path d="m63.577 13.097h1.4372v-0.263h-1.1261v-0.88159h0.91863v-0.263h-0.91863v-0.76306h1.089v-0.25929h-1.4002z"/>
   <path d="m65.491 13.097h0.30374v-1.3039c0.1815-0.1815 0.30745-0.27781 0.49265-0.27781 0.23707 0 0.34078 0.14446 0.34078 0.48154v1.1001h0.30374v-1.1409c0-0.45932-0.17039-0.70379-0.54822-0.70379-0.24818 0-0.43339 0.13335-0.60378 0.30374h-0.01111l-0.02593-0.25929h-0.25188z"/>
   <path d="m67.383 12.2c0 0.58896 0.38153 0.94086 0.86307 0.94086 0.24448 0 0.43709-0.08519 0.59267-0.18521l-0.10742-0.20002c-0.13335 0.0852-0.27781 0.14076-0.4482 0.14076-0.34449 0-0.57785-0.24448-0.60008-0.63341h1.215c0.0074-0.04445 0.01111-0.10372 0.01111-0.16669 0-0.51488-0.25929-0.84455-0.71861-0.84455-0.41116 0-0.80751 0.3593-0.80751 0.94827zm0.29633-0.13705c0.03704-0.36301 0.2667-0.57044 0.51858-0.57044 0.28152 0 0.4445 0.20373 0.4445 0.57044z"/>
   <path d="m69.354 13.097h0.30374v-1.3039c0.16669-0.18521 0.31856-0.27781 0.45191-0.27781 0.22966 0 0.33708 0.14446 0.33708 0.48154v1.1001h0.30374v-1.3039c0.16669-0.18521 0.31115-0.27781 0.45191-0.27781 0.22595 0 0.33338 0.14446 0.33338 0.48154v1.1001h0.30374v-1.1409c0-0.45932-0.1778-0.70379-0.54822-0.70379-0.21855 0-0.40376 0.14076-0.59267 0.34449-0.07408-0.21484-0.22225-0.34449-0.49636-0.34449-0.21484 0-0.40376 0.13335-0.55933 0.30374h-0.01111l-0.02593-0.25929h-0.25188z"/>
   <path d="m72.299 13.593-0.05927 0.24077c0.05927 0.02222 0.12965 0.03704 0.21114 0.03704 0.36301 0 0.54822-0.2704 0.67416-0.626l0.67786-1.9484h-0.29633l-0.32226 0.99642c-0.04815 0.15928-0.10001 0.34449-0.15187 0.50747h-0.01482c-0.05556-0.16669-0.11853-0.3519-0.1741-0.50747l-0.36671-0.99642h-0.31486l0.72231 1.8039-0.04075 0.13335c-0.07408 0.22225-0.20373 0.38523-0.40746 0.38523-0.04445 0-0.10001-0.01482-0.13705-0.02593z"/>
   <path d="m74.473 12.108 0.11853-0.37042c0.0852-0.2704 0.16298-0.5371 0.24077-0.81862h0.01482c0.07779 0.28152 0.15558 0.54822 0.24077 0.81862l0.11483 0.37042zm1.0409 0.98901h0.32597l-0.82232-2.4299h-0.34819l-0.82233 2.4299h0.31485l0.23336-0.74083h0.8853z"/>
   <path d="m76.14 13.097h0.30374v-1.3039c0.1815-0.1815 0.30745-0.27781 0.49265-0.27781 0.23707 0 0.34078 0.14446 0.34078 0.48154v1.1001h0.30374v-1.1409c0-0.45932-0.17039-0.70379-0.54822-0.70379-0.24818 0-0.43339 0.13335-0.60378 0.30374h-0.01111l-0.02593-0.25929h-0.25188z"/>
   <path d="m78.077 12.63c0 0.32226 0.22596 0.51118 0.5297 0.51118 0.22225 0 0.42228-0.11853 0.59637-0.25929h0.0074l0.02593 0.21484h0.25188v-1.1038c0-0.4482-0.18521-0.74083-0.626-0.74083-0.28892 0-0.54081 0.12594-0.7075 0.23336l0.12224 0.21114c0.14076-0.09631 0.32597-0.19262 0.5371-0.19262 0.29263 0 0.37042 0.22225 0.37042 0.45191-0.76676 0.0852-1.1075 0.28152-1.1075 0.67416zm0.30004-0.02222c0-0.22966 0.20373-0.37782 0.80751-0.45191v0.50006c-0.1741 0.15558-0.31856 0.24077-0.49265 0.24077-0.1778 0-0.31486-0.0852-0.31486-0.28892z"/>
   <path d="m80.061 12.734c0 0.263 0.0926 0.40746 0.32226 0.40746 0.08149 0 0.13335-0.01111 0.1741-0.02963l-0.04075-0.22966c-0.03334 0.0074-0.04815 0.0074-0.06668 0.0074-0.04445 0-0.0852-0.03704-0.0852-0.13335v-2.2966h-0.30374z"/>
   <path d="m80.887 13.593-0.05927 0.24077c0.05927 0.02222 0.12965 0.03704 0.21114 0.03704 0.36301 0 0.54822-0.2704 0.67416-0.626l0.67786-1.9484h-0.29633l-0.32226 0.99642c-0.04815 0.15928-0.10001 0.34449-0.15187 0.50747h-0.01482c-0.05556-0.16669-0.11853-0.3519-0.1741-0.50747l-0.36671-0.99642h-0.31486l0.72231 1.8039-0.04075 0.13335c-0.07408 0.22225-0.20373 0.38523-0.40746 0.38523-0.04445 0-0.10001-0.01482-0.13705-0.02593z"/>
   <path d="m82.462 13.097h1.3631v-0.24818h-0.9779l0.94827-1.3891v-0.16298h-1.2298v0.24818h0.84455l-0.94827 1.3891z"/>
   <path d="m84.059 12.2c0 0.58896 0.38153 0.94086 0.86307 0.94086 0.24448 0 0.43709-0.08519 0.59267-0.18521l-0.10742-0.20002c-0.13335 0.0852-0.27781 0.14076-0.4482 0.14076-0.34449 0-0.57785-0.24448-0.60008-0.63341h1.215c0.0074-0.04445 0.01111-0.10372 0.01111-0.16669 0-0.51488-0.25929-0.84455-0.71861-0.84455-0.41116 0-0.80751 0.3593-0.80751 0.94827zm0.29633-0.13705c0.03704-0.36301 0.2667-0.57044 0.51858-0.57044 0.28152 0 0.4445 0.20373 0.4445 0.57044z"/>
   <path d="m86.03 13.097h0.30374v-1.1557c0.12224-0.30374 0.30374-0.41487 0.45561-0.41487 0.07408 0 0.11483 0.01111 0.1741 0.02963l0.05927-0.2667c-0.05927-0.02593-0.11483-0.03704-0.19262-0.03704-0.20373 0-0.38894 0.14446-0.51118 0.37042h-0.01111l-0.02593-0.32597h-0.25188z"/>
  </g>
  <path d="m94.449 9.1281v5.2917h30.427v-1.5875l-4.1341-3.7042z" fill="#2f3744" stroke="#7b8694" stroke-linecap="round" stroke-width=".26458"/>
  <path d="m121.61 8.9878 3.4106 2.9476v-2.9476h-2.0381z" fill="#7b8694"/>
  <g fill="#e8eaec" stroke-linecap="round" stroke-width=".26458" aria-label="RushAnalyzer">
   <path d="m99.717 10.915h0.40746c0.37783 0 0.58526 0.11483 0.58526 0.43339 0 0.31486-0.20743 0.47043-0.58526 0.47043h-0.40746zm1.3742 2.1818-0.6186-1.0594c0.32968-0.0852 0.54452-0.31115 0.54452-0.68898 0-0.50377-0.3556-0.68157-0.84826-0.68157h-0.76306v2.4299h0.31115v-1.0261h0.4371l0.58525 1.0261z"/>
   <path d="m101.5 12.438c0 0.45932 0.17039 0.70379 0.55192 0.70379 0.24818 0 0.42598-0.12965 0.59267-0.32597h0.0111l0.0259 0.28152h0.25189v-1.8002h-0.30375v1.2779c-0.17039 0.21114-0.30003 0.30374-0.48524 0.30374-0.23707 0-0.33708-0.14446-0.33708-0.48154v-1.1001h-0.30745z"/>
   <path d="m103.34 12.893c0.17039 0.14076 0.41487 0.24818 0.67045 0.24818 0.42598 0 0.65935-0.24448 0.65935-0.5371 0-0.34078-0.28893-0.4482-0.54822-0.54451-0.20373-0.07779-0.40005-0.14446-0.40005-0.31115 0-0.13706 0.10371-0.25929 0.32967-0.25929 0.15928 0 0.28892 0.06668 0.41116 0.15928l0.14446-0.19262c-0.13705-0.11112-0.33337-0.20373-0.55932-0.20373-0.38894 0-0.6186 0.22225-0.6186 0.51118 0 0.30374 0.28152 0.42598 0.5371 0.51858 0.19632 0.07408 0.41117 0.15558 0.41117 0.34078 0 0.15558-0.11854 0.28152-0.3556 0.28152-0.21485 0-0.37413-0.0889-0.5297-0.21484z"/>
   <path d="m105.1 13.097h0.30374v-1.3039c0.1815-0.1815 0.30744-0.27781 0.49265-0.27781 0.23707 0 0.34079 0.14446 0.34079 0.48154v1.1001h0.30374v-1.1409c0-0.45932-0.17039-0.70379-0.54822-0.70379-0.24818 0-0.42968 0.13335-0.60007 0.29633l0.0111-0.37042v-0.71861h-0.30374z"/>
   <path d="m107.44 12.108 0.11854-0.37042c0.0852-0.2704 0.16298-0.5371 0.24077-0.81862h0.0148c0.0778 0.28152 0.15558 0.54822 0.24077 0.81862l0.11483 0.37042zm1.0409 0.98901h0.32597l-0.82232-2.4299h-0.3482l-0.82232 2.4299h0.31485l0.23336-0.74083h0.8853z"/>
   <path d="m109.1 13.097h0.30375v-1.3039c0.1815-0.1815 0.30744-0.27781 0.49265-0.27781 0.23707 0 0.34078 0.14446 0.34078 0.48154v1.1001h0.30375v-1.1409c0-0.45932-0.1704-0.70379-0.54822-0.70379-0.24818 0-0.43339 0.13335-0.60378 0.30374h-0.0111l-0.0259-0.25929h-0.25189z"/>
   <path d="m111.04 12.63c0 0.32226 0.22596 0.51118 0.5297 0.51118 0.22225 0 0.42227-0.11853 0.59637-0.25929h7e-3l0.0259 0.21484h0.25188v-1.1038c0-0.4482-0.18521-0.74083-0.626-0.74083-0.28893 0-0.54081 0.12594-0.7075 0.23336l0.12224 0.21114c0.14075-0.09631 0.32596-0.19262 0.5371-0.19262 0.29263 0 0.37042 0.22225 0.37042 0.45191-0.76677 0.0852-1.1076 0.28152-1.1076 0.67416zm0.30004-0.02222c0-0.22966 0.20373-0.37782 0.80751-0.45191v0.50006c-0.1741 0.15558-0.31856 0.24077-0.49266 0.24077-0.1778 0-0.31485-0.0852-0.31485-0.28892z"/>
   <path d="m113.02 12.734c0 0.263 0.0926 0.40746 0.32227 0.40746 0.0815 0 0.13335-0.01111 0.17409-0.02963l-0.0407-0.22966c-0.0333 0.0074-0.0482 0.0074-0.0667 0.0074-0.0444 0-0.0852-0.03704-0.0852-0.13335v-2.2966h-0.30375z"/>
   <path d="m113.85 13.593-0.0593 0.24077c0.0593 0.02222 0.12964 0.03704 0.21113 0.03704 0.36301 0 0.54822-0.2704 0.67416-0.626l0.67787-1.9484h-0.29634l-0.32226 0.99642c-0.0482 0.15928-0.10001 0.34449-0.15187 0.50747h-0.0148c-0.0556-0.16669-0.11853-0.3519-0.17409-0.50747l-0.36672-0.99642h-0.31485l0.72231 1.8039-0.0407 0.13335c-0.0741 0.22225-0.20373 0.38523-0.40746 0.38523-0.0445 0-0.10001-0.01482-0.13706-0.02593z"/>
   <path d="m115.43 13.097h1.3631v-0.24818h-0.9779l0.94827-1.3891v-0.16298h-1.2298v0.24818h0.84455l-0.94826 1.3891z"/>
   <path d="m117.02 12.2c0 0.58896 0.38153 0.94086 0.86307 0.94086 0.24448 0 0.4371-0.08519 0.59267-0.18521l-0.10742-0.20002c-0.13335 0.0852-0.27781 0.14076-0.4482 0.14076-0.34449 0-0.57785-0.24448-0.60008-0.63341h1.215c7e-3 -0.04445 0.0111-0.10372 0.0111-0.16669 0-0.51488-0.25929-0.84455-0.71861-0.84455-0.41116 0-0.80751 0.3593-0.80751 0.94827zm0.29634-0.13705c0.037-0.36301 0.2667-0.57044 0.51858-0.57044 0.28152 0 0.4445 0.20373 0.4445 0.57044z"/>
   <path d="m118.99 13.097h0.30374v-1.1557c0.12224-0.30374 0.30374-0.41487 0.45561-0.41487 0.0741 0 0.11483 0.01111 0.1741 0.02963l0.0593-0.2667c-0.0593-0.02593-0.11483-0.03704-0.19262-0.03704-0.20373 0-0.38894 0.14446-0.51118 0.37042h-0.0111l-0.0259-0.32597h-0.25188z"/>
  </g>
  <path d="m25.657 17.066v5.2917h30.427v-1.5875l-4.1341-3.7042z" fill="#2f3744" stroke="#7b8694" stroke-linecap="round" stroke-width=".26458"/>
  <path d="m52.814 16.925 3.4107 2.9476v-2.9476h-2.0381z" fill="#7b8694"/>
  <g fill="#e8eaec" stroke-linecap="round" stroke-width=".26458" aria-label="SeenObjects">
   <path d="m31.189 20.719c0.21114 0.21855 0.50747 0.3593 0.84826 0.3593 0.51118 0 0.82973-0.30745 0.82973-0.69268 0-0.3593-0.21855-0.52599-0.50006-0.64823l-0.34819-0.14817c-0.18891-0.08149-0.40376-0.17039-0.40376-0.40375 0-0.21855 0.1815-0.3556 0.45561-0.3556 0.22225 0 0.40376 0.0889 0.55192 0.22966l0.16298-0.20002c-0.17039-0.1778-0.42598-0.30004-0.7149-0.30004-0.4408 0-0.76676 0.27411-0.76676 0.64452 0 0.3556 0.2667 0.5297 0.49266 0.626l0.34819 0.15187c0.22966 0.10372 0.40746 0.1815 0.40746 0.42968 0 0.23707-0.18891 0.39635-0.50747 0.39635-0.25559 0-0.49636-0.12224-0.67046-0.30374z"/>
   <path d="m33.172 20.138c0 0.58896 0.38153 0.94086 0.86307 0.94086 0.24448 0 0.43709-0.0852 0.59267-0.18521l-0.10742-0.20002c-0.13335 0.0852-0.27781 0.14076-0.4482 0.14076-0.34449 0-0.57785-0.24448-0.60008-0.63341h1.215c0.0074-0.04445 0.01111-0.10372 0.01111-0.16669 0-0.51488-0.25929-0.84455-0.71861-0.84455-0.41116 0-0.80751 0.3593-0.80751 0.94827zm0.29633-0.13705c0.03704-0.36301 0.2667-0.57044 0.51858-0.57044 0.28152 0 0.4445 0.20373 0.4445 0.57044z"/>
   <path d="m35.009 20.138c0 0.58896 0.38153 0.94086 0.86307 0.94086 0.24448 0 0.43709-0.0852 0.59267-0.18521l-0.10742-0.20002c-0.13335 0.0852-0.27781 0.14076-0.4482 0.14076-0.34449 0-0.57785-0.24448-0.60008-0.63341h1.215c0.0074-0.04445 0.01111-0.10372 0.01111-0.16669 0-0.51488-0.25929-0.84455-0.71861-0.84455-0.41116 0-0.80751 0.3593-0.80751 0.94827zm0.29633-0.13705c0.03704-0.36301 0.2667-0.57044 0.51858-0.57044 0.28152 0 0.4445 0.20373 0.4445 0.57044z"/>
   <path d="m36.98 21.034h0.30374v-1.3039c0.1815-0.1815 0.30745-0.27781 0.49266-0.27781 0.23707 0 0.34078 0.14446 0.34078 0.48154v1.1001h0.30374v-1.1409c0-0.45932-0.17039-0.70379-0.54822-0.70379-0.24818 0-0.43339 0.13335-0.60378 0.30374h-0.01111l-0.02593-0.25929h-0.25188z"/>
   <path d="m39.924 21.079c0.60748 0 1.0372-0.48895 1.0372-1.2705 0-0.77417-0.42968-1.2483-1.0372-1.2483-0.61119 0-1.0409 0.47043-1.0409 1.2483 0 0.78158 0.42968 1.2705 1.0409 1.2705zm0-0.2704c-0.43709 0-0.72231-0.39264-0.72231-1.0001 0-0.60378 0.28522-0.9779 0.72231-0.9779 0.43339 0 0.71861 0.37412 0.71861 0.9779 0 0.60748-0.28522 1.0001-0.71861 1.0001z"/>
   <path d="m41.444 21.034h0.24448l0.02593-0.1778h0.01111c0.15928 0.14076 0.34819 0.22225 0.51488 0.22225 0.41116 0 0.77788-0.3593 0.77788-0.9742 0-0.55563-0.24818-0.91493-0.7149-0.91493-0.20003 0-0.40005 0.10742-0.56303 0.25188l0.0074-0.32597v-0.71861h-0.30374zm0.30374-0.40005v-0.94456c0.17039-0.15928 0.32967-0.24448 0.48154-0.24448 0.34078 0 0.47413 0.2667 0.47413 0.66305 0 0.4445-0.21855 0.7149-0.51488 0.7149-0.11853 0-0.28152-0.05186-0.4408-0.18891z"/>
   <path d="m43.502 21.238c0 0.21855-0.04445 0.3519-0.22225 0.3519-0.06297 0-0.12594-0.01482-0.17039-0.02963l-0.06297 0.22966c0.06297 0.02593 0.15558 0.04815 0.2667 0.04815 0.3593 0 0.49265-0.23336 0.49265-0.60008v-2.004h-0.30374zm0.15558-2.3744c0.11483 0 0.20743-0.08149 0.20743-0.19632 0-0.11853-0.0926-0.19632-0.20743-0.19632-0.11853 0-0.21114 0.07779-0.21114 0.19632 0 0.11483 0.0926 0.19632 0.21114 0.19632z"/>
   <path d="m44.277 20.138c0 0.58896 0.38153 0.94086 0.86307 0.94086 0.24448 0 0.43709-0.0852 0.59267-0.18521l-0.10742-0.20002c-0.13335 0.0852-0.27781 0.14076-0.4482 0.14076-0.34449 0-0.57785-0.24448-0.60008-0.63341h1.215c0.0074-0.04445 0.01111-0.10372 0.01111-0.16669 0-0.51488-0.25929-0.84455-0.71861-0.84455-0.41116 0-0.80751 0.3593-0.80751 0.94827zm0.29633-0.13705c0.03704-0.36301 0.2667-0.57044 0.51858-0.57044 0.28152 0 0.4445 0.20373 0.4445 0.57044z"/>
   <path d="m46.114 20.138c0 0.59637 0.36671 0.94086 0.84455 0.94086 0.21484 0 0.42228-0.0889 0.58526-0.23336l-0.13705-0.20002c-0.10742 0.09631-0.25188 0.1815-0.42228 0.1815-0.32967 0-0.55562-0.27781-0.55562-0.68898 0-0.41487 0.23707-0.69638 0.56303-0.69638 0.14446 0 0.25559 0.06668 0.36301 0.15928l0.15187-0.19632c-0.12224-0.11483-0.28892-0.21484-0.52599-0.21484-0.46302 0-0.86678 0.34449-0.86678 0.94827z"/>
   <path d="m47.985 20.479c0 0.3556 0.12965 0.60008 0.51488 0.60008 0.11112 0 0.23336-0.03334 0.33338-0.06668l-0.05927-0.22966c-0.05927 0.02222-0.14076 0.04815-0.20373 0.04815-0.20743 0-0.27781-0.12594-0.27781-0.34819v-1.0001h0.48525v-0.24818h-0.48525v-0.50377h-0.25559l-0.03704 0.50377-0.28152 0.01852v0.22966h0.2667z"/>
   <path d="m48.985 20.831c0.17039 0.14076 0.41487 0.24818 0.67045 0.24818 0.42598 0 0.65934-0.24448 0.65934-0.5371 0-0.34078-0.28893-0.4482-0.54822-0.54451-0.20373-0.07779-0.40005-0.14446-0.40005-0.31115 0-0.13705 0.10372-0.25929 0.32967-0.25929 0.15928 0 0.28892 0.06668 0.41116 0.15928l0.14446-0.19262c-0.13706-0.11112-0.33338-0.20373-0.55933-0.20373-0.38894 0-0.6186 0.22225-0.6186 0.51118 0 0.30374 0.28152 0.42598 0.5371 0.51858 0.19632 0.07408 0.41116 0.15558 0.41116 0.34078 0 0.15558-0.11853 0.28152-0.3556 0.28152-0.21484 0-0.37412-0.0889-0.5297-0.21484z"/>
  </g>
  <path d="m60.053 17.066v5.2917h30.427v-1.5875l-4.1341-3.7042z" fill="#2f3744" stroke="#7b8694" stroke-linecap="round" stroke-width=".26458"/>
  <path d="m87.21 16.925 3.4107 2.9476v-2.9476h-2.0381z" fill="#7b8694"/>
  <g fill="#e8eaec" stroke-linecap="round" stroke-width=".26458" aria-label="NearbyThreats">
   <path d="m64.069 21.034h0.29263v-1.2705c0-0.25559-0.02222-0.51488-0.03704-0.75936h0.01482l0.263 0.50006 0.87789 1.5298h0.31856v-2.4299h-0.29263v1.2557c0 0.25559 0.02593 0.5297 0.04075 0.77417h-0.01482l-0.263-0.50377-0.88159-1.5261h-0.31856z"/>
   <path d="m66.298 20.138c0 0.58896 0.38153 0.94086 0.86307 0.94086 0.24448 0 0.43709-0.0852 0.59267-0.18521l-0.10742-0.20002c-0.13335 0.0852-0.27781 0.14076-0.4482 0.14076-0.34449 0-0.57785-0.24448-0.60008-0.63341h1.215c0.0074-0.04445 0.01111-0.10372 0.01111-0.16669 0-0.51488-0.25929-0.84455-0.71861-0.84455-0.41116 0-0.80751 0.3593-0.80751 0.94827zm0.29633-0.13705c0.03704-0.36301 0.2667-0.57044 0.51858-0.57044 0.28152 0 0.4445 0.20373 0.4445 0.57044z"/>
   <path d="m68.129 20.568c0 0.32226 0.22595 0.51118 0.5297 0.51118 0.22225 0 0.42228-0.11853 0.59637-0.25929h0.0074l0.02593 0.21484h0.25188v-1.1038c0-0.4482-0.18521-0.74083-0.626-0.74083-0.28892 0-0.54081 0.12594-0.7075 0.23336l0.12224 0.21114c0.14076-0.09631 0.32597-0.19262 0.5371-0.19262 0.29263 0 0.37042 0.22225 0.37042 0.45191-0.76676 0.0852-1.1075 0.28152-1.1075 0.67416zm0.30004-0.02223c0-0.22966 0.20373-0.37782 0.80751-0.45191v0.50006c-0.1741 0.15558-0.31856 0.24077-0.49266 0.24077-0.1778 0-0.31485-0.0852-0.31485-0.28892z"/>
   <path d="m70.114 21.034h0.30374v-1.1557c0.12224-0.30374 0.30374-0.41487 0.45561-0.41487 0.07408 0 0.11483 0.01111 0.1741 0.02963l0.05927-0.2667c-0.05927-0.02593-0.11483-0.03704-0.19262-0.03704-0.20373 0-0.38894 0.14446-0.51118 0.37042h-0.01111l-0.02593-0.32597h-0.25188z"/>
   <path d="m71.401 21.034h0.24448l0.02593-0.1778h0.01111c0.15928 0.14076 0.34819 0.22225 0.51488 0.22225 0.41116 0 0.77788-0.3593 0.77788-0.9742 0-0.55563-0.24818-0.91493-0.7149-0.91493-0.20002 0-0.40005 0.10742-0.56303 0.25188l0.0074-0.32597v-0.71861h-0.30374zm0.30374-0.40005v-0.94456c0.17039-0.15928 0.32967-0.24448 0.48154-0.24448 0.34078 0 0.47413 0.2667 0.47413 0.66305 0 0.4445-0.21855 0.7149-0.51488 0.7149-0.11853 0-0.28152-0.05186-0.4408-0.18891z"/>
   <path d="m73.319 21.531-0.05927 0.24077c0.05927 0.02222 0.12965 0.03704 0.21114 0.03704 0.36301 0 0.54822-0.2704 0.67416-0.626l0.67786-1.9484h-0.29633l-0.32226 0.99642c-0.04815 0.15928-0.10001 0.34449-0.15187 0.50747h-0.01482c-0.05556-0.16669-0.11853-0.3519-0.1741-0.50747l-0.36671-0.99642h-0.31485l0.72231 1.8039-0.04075 0.13335c-0.07408 0.22225-0.20373 0.38523-0.40746 0.38523-0.04445 0-0.10001-0.01482-0.13705-0.02593z"/>
   <path d="m75.624 21.034h0.30745v-2.1706h0.73713v-0.25929h-1.7817v0.25929h0.73713z"/>
   <path d="m77.066 21.034h0.30374v-1.3039c0.1815-0.1815 0.30745-0.27781 0.49265-0.27781 0.23707 0 0.34078 0.14446 0.34078 0.48154v1.1001h0.30374v-1.1409c0-0.45932-0.17039-0.70379-0.54822-0.70379-0.24818 0-0.42968 0.13335-0.60008 0.29633l0.01111-0.37042v-0.71861h-0.30374z"/>
   <path d="m79.085 21.034h0.30374v-1.1557c0.12224-0.30374 0.30374-0.41487 0.45561-0.41487 0.07408 0 0.11483 0.01111 0.1741 0.02963l0.05927-0.2667c-0.05927-0.02593-0.11483-0.03704-0.19262-0.03704-0.20373 0-0.38894 0.14446-0.51118 0.37042h-0.01111l-0.02593-0.32597h-0.25188z"/>
   <path d="m80.203 20.138c0 0.58896 0.38153 0.94086 0.86307 0.94086 0.24448 0 0.43709-0.0852 0.59267-0.18521l-0.10742-0.20002c-0.13335 0.0852-0.27781 0.14076-0.4482 0.14076-0.34449 0-0.57785-0.24448-0.60008-0.63341h1.215c0.0074-0.04445 0.01111-0.10372 0.01111-0.16669 0-0.51488-0.25929-0.84455-0.71861-0.84455-0.41116 0-0.80751 0.3593-0.80751 0.94827zm0.29633-0.13705c0.03704-0.36301 0.2667-0.57044 0.51858-0.57044 0.28152 0 0.4445 0.20373 0.4445 0.57044z"/>
   <path d="m82.034 20.568c0 0.32226 0.22595 0.51118 0.5297 0.51118 0.22225 0 0.42228-0.11853 0.59637-0.25929h0.0074l0.02593 0.21484h0.25188v-1.1038c0-0.4482-0.18521-0.74083-0.626-0.74083-0.28892 0-0.54081 0.12594-0.7075 0.23336l0.12224 0.21114c0.14076-0.09631 0.32597-0.19262 0.5371-0.19262 0.29263 0 0.37042 0.22225 0.37042 0.45191-0.76676 0.0852-1.1075 0.28152-1.1075 0.67416zm0.30004-0.02223c0-0.22966 0.20373-0.37782 0.80751-0.45191v0.50006c-0.1741 0.15558-0.31856 0.24077-0.49266 0.24077-0.1778 0-0.31485-0.0852-0.31485-0.28892z"/>
   <path d="m84.07 20.479c0 0.3556 0.12965 0.60008 0.51488 0.60008 0.11112 0 0.23336-0.03334 0.33338-0.06668l-0.05927-0.22966c-0.05927 0.02222-0.14076 0.04815-0.20373 0.04815-0.20743 0-0.27781-0.12594-0.27781-0.34819v-1.0001h0.48525v-0.24818h-0.48525v-0.50377h-0.25559l-0.03704 0.50377-0.28152 0.01852v0.22966h0.2667z"/>
   <path d="m85.07 20.831c0.17039 0.14076 0.41487 0.24818 0.67046 0.24818 0.42598 0 0.65934-0.24448 0.65934-0.5371 0-0.34078-0.28892-0.4482-0.54822-0.54451-0.20373-0.07779-0.40005-0.14446-0.40005-0.31115 0-0.13705 0.10372-0.25929 0.32967-0.25929 0.15928 0 0.28892 0.06668 0.41116 0.15928l0.14446-0.19262c-0.13706-0.11112-0.33338-0.20373-0.55933-0.20373-0.38894 0-0.6186 0.22225-0.6186 0.51118 0 0.30374 0.28152 0.42598 0.5371 0.51858 0.19632 0.07408 0.41116 0.15558 0.41116 0.34078 0 0.15558-0.11853 0.28152-0.3556 0.28152-0.21484 0-0.37412-0.0889-0.5297-0.21484z"/>
  </g>
  <path d="m94.449 17.066v5.2917h30.427v-1.5875l-4.1341-3.7042z" fill="#2f3744" stroke="#7b8694" stroke-linecap="round" stroke-width=".26458"/>
  <path d="m121.61 16.925 3.4106 2.9476v-2.9476h-2.0381z" fill="#7b8694"/>
  <g fill="#e8eaec" stroke-linecap="round" stroke-width=".26458" aria-label="ObstacleMap">
   <path d="m100.64 21.079c0.60749 0 1.0372-0.48895 1.0372-1.2705 0-0.77417-0.42968-1.2483-1.0372-1.2483-0.61118 0-1.0409 0.47043-1.0409 1.2483 0 0.78158 0.42969 1.2705 1.0409 1.2705zm0-0.2704c-0.43709 0-0.72231-0.39264-0.72231-1.0001 0-0.60378 0.28522-0.9779 0.72231-0.9779 0.43339 0 0.71861 0.37412 0.71861 0.9779 0 0.60748-0.28522 1.0001-0.71861 1.0001z"/>
   <path d="m102.16 21.034h0.24447l0.0259-0.1778h0.0111c0.15928 0.14076 0.34819 0.22225 0.51488 0.22225 0.41116 0 0.77788-0.3593 0.77788-0.9742 0-0.55563-0.24818-0.91493-0.71491-0.91493-0.20002 0-0.40005 0.10742-0.56303 0.25188l7e-3 -0.32597v-0.71861h-0.30374zm0.30374-0.40005v-0.94456c0.17039-0.15928 0.32967-0.24448 0.48154-0.24448 0.34078 0 0.47413 0.2667 0.47413 0.66305 0 0.4445-0.21854 0.7149-0.51488 0.7149-0.11853 0-0.28151-0.05186-0.44079-0.18891z"/>
   <path d="m104.01 20.831c0.17039 0.14076 0.41486 0.24818 0.67045 0.24818 0.42598 0 0.65934-0.24448 0.65934-0.5371 0-0.34078-0.28892-0.4482-0.54821-0.54451-0.20373-0.07779-0.40005-0.14446-0.40005-0.31115 0-0.13705 0.10371-0.25929 0.32967-0.25929 0.15928 0 0.28892 0.06668 0.41116 0.15928l0.14446-0.19262c-0.13705-0.11112-0.33337-0.20373-0.55933-0.20373-0.38893 0-0.61859 0.22225-0.61859 0.51118 0 0.30374 0.28151 0.42598 0.5371 0.51858 0.19632 0.07408 0.41116 0.15558 0.41116 0.34078 0 0.15558-0.11853 0.28152-0.3556 0.28152-0.21484 0-0.37412-0.0889-0.52969-0.21484z"/>
   <path d="m105.82 20.479c0 0.3556 0.12965 0.60008 0.51488 0.60008 0.11113 0 0.23336-0.03334 0.33338-0.06668l-0.0593-0.22966c-0.0593 0.02222-0.14076 0.04815-0.20373 0.04815-0.20743 0-0.27781-0.12594-0.27781-0.34819v-1.0001h0.48524v-0.24818h-0.48524v-0.50377h-0.25559l-0.037 0.50377-0.28152 0.01852v0.22966h0.2667z"/>
   <path d="m106.87 20.568c0 0.32226 0.22595 0.51118 0.52969 0.51118 0.22225 0 0.42228-0.11853 0.59637-0.25929h7e-3l0.0259 0.21484h0.25188v-1.1038c0-0.4482-0.1852-0.74083-0.626-0.74083-0.28893 0-0.54081 0.12594-0.7075 0.23336l0.12224 0.21114c0.14076-0.09631 0.32597-0.19262 0.53711-0.19262 0.29262 0 0.37041 0.22225 0.37041 0.45191-0.76676 0.0852-1.1075 0.28152-1.1075 0.67416zm0.30003-0.02223c0-0.22966 0.20373-0.37782 0.80751-0.45191v0.50006c-0.17409 0.15558-0.31856 0.24077-0.49265 0.24077-0.1778 0-0.31486-0.0852-0.31486-0.28892z"/>
   <path d="m108.72 20.138c0 0.59637 0.36671 0.94086 0.84455 0.94086 0.21484 0 0.42228-0.0889 0.58526-0.23336l-0.13706-0.20002c-0.10742 0.09631-0.25188 0.1815-0.42227 0.1815-0.32967 0-0.55563-0.27781-0.55563-0.68898 0-0.41487 0.23707-0.69638 0.56304-0.69638 0.14446 0 0.25559 0.06668 0.36301 0.15928l0.15187-0.19632c-0.12224-0.11483-0.28893-0.21484-0.526-0.21484-0.46302 0-0.86677 0.34449-0.86677 0.94827z"/>
   <path d="m110.54 20.671c0 0.263 0.0926 0.40746 0.32226 0.40746 0.0815 0 0.13335-0.01111 0.1741-0.02963l-0.0408-0.22966c-0.0333 0.0074-0.0481 0.0074-0.0667 0.0074-0.0444 0-0.0852-0.03704-0.0852-0.13335v-2.2966h-0.30374z"/>
   <path d="m111.35 20.138c0 0.58896 0.38153 0.94086 0.86307 0.94086 0.24448 0 0.4371-0.0852 0.59267-0.18521l-0.10742-0.20002c-0.13335 0.0852-0.27781 0.14076-0.4482 0.14076-0.34449 0-0.57785-0.24448-0.60008-0.63341h1.215c7e-3 -0.04445 0.0111-0.10372 0.0111-0.16669 0-0.51488-0.25929-0.84455-0.71861-0.84455-0.41116 0-0.80751 0.3593-0.80751 0.94827zm0.29634-0.13705c0.037-0.36301 0.2667-0.57044 0.51858-0.57044 0.28152 0 0.4445 0.20373 0.4445 0.57044z"/>
   <path d="m113.34 21.034h0.28522v-1.3372c0-0.21484-0.0222-0.50377-0.037-0.71861h0.0148l0.19261 0.54081 0.46673 1.2705h0.1778l0.46672-1.2705 0.19262-0.54081h0.0148c-0.0148 0.21484-0.0408 0.50377-0.0408 0.71861v1.3372h0.29263v-2.4299h-0.36301l-0.46672 1.3039-0.1704 0.49636h-0.0148l-0.1741-0.49636-0.47043-1.3039h-0.36671z"/>
   <path d="m115.91 20.568c0 0.32226 0.22595 0.51118 0.5297 0.51118 0.22225 0 0.42227-0.11853 0.59637-0.25929h7e-3l0.0259 0.21484h0.25188v-1.1038c0-0.4482-0.18521-0.74083-0.62601-0.74083-0.28892 0-0.5408 0.12594-0.70749 0.23336l0.12224 0.21114c0.14075-0.09631 0.32596-0.19262 0.5371-0.19262 0.29263 0 0.37042 0.22225 0.37042 0.45191-0.76677 0.0852-1.1076 0.28152-1.1076 0.67416zm0.30004-0.02223c0-0.22966 0.20373-0.37782 0.80751-0.45191v0.50006c-0.1741 0.15558-0.31856 0.24077-0.49266 0.24077-0.1778 0-0.31485-0.0852-0.31485-0.28892z"/>
   <path d="m118.19 20.871c0.16668 0.12965 0.33337 0.20743 0.50006 0.20743 0.41116 0 0.77788-0.3593 0.77788-0.97049 0-0.55933-0.24818-0.91863-0.71121-0.91863-0.21113 0-0.41116 0.11483-0.57414 0.25188h-0.0111l-0.0259-0.20743h-0.25189v2.5596h0.30374v-0.60748zm7e-3 -0.23707v-0.94456c0.1778-0.15928 0.32968-0.24448 0.48155-0.24448 0.34078 0 0.47413 0.2667 0.47413 0.66305 0 0.4445-0.21855 0.7149-0.51488 0.7149-0.11853 0-0.27781-0.05186-0.4408-0.18891z"/>
  </g>
  <path d="m25.657 25.003v5.2917h30.427v-1.5875l-4.1341-3.7042z" fill="#2f3744" stroke="#7b8694" stroke-linecap="round" stroke-width=".26458"/>
  <path d="m52.814 24.863 3.4107 2.9476v-2.9476h-2.0381z" fill="#7b8694"/>
  <g stroke-linecap="round" stroke-width=".26458">
   <g fill="#e8eaec" aria-label="HeroDecider">
    <path d="m31.374 28.972h0.31115v-1.1446h1.1298v1.1446h0.30745v-2.4299h-0.30745v1.0186h-1.1298v-1.0186h-0.31115z"/>
    <path d="m33.616 28.075c0 0.58896 0.38153 0.94086 0.86307 0.94086 0.24448 0 0.43709-0.0852 0.59267-0.18521l-0.10742-0.20002c-0.13335 0.0852-0.27781 0.14076-0.4482 0.14076-0.34449 0-0.57785-0.24448-0.60008-0.63341h1.215c0.0074-0.04445 0.01111-0.10372 0.01111-0.16669 0-0.51488-0.25929-0.84455-0.71861-0.84455-0.41116 0-0.80751 0.3593-0.80751 0.94827zm0.29633-0.13705c0.03704-0.36301 0.2667-0.57044 0.51858-0.57044 0.28152 0 0.4445 0.20373 0.4445 0.57044z"/>
    <path d="m35.587 28.972h0.30374v-1.1557c0.12224-0.30374 0.30374-0.41487 0.45561-0.41487 0.07408 0 0.11483 0.01111 0.1741 0.02963l0.05927-0.2667c-0.05927-0.02593-0.11483-0.03704-0.19262-0.03704-0.20373 0-0.38894 0.14446-0.51118 0.37042h-0.01111l-0.02593-0.32597h-0.25188z"/>
    <path d="m36.706 28.075c0 0.59637 0.39264 0.94086 0.83344 0.94086s0.83344-0.34449 0.83344-0.94086c0-0.60378-0.39264-0.94827-0.83344-0.94827s-0.83344 0.34449-0.83344 0.94827zm0.31485 0c0-0.41487 0.21114-0.69638 0.51858-0.69638 0.31115 0 0.51858 0.28152 0.51858 0.69638 0 0.41116-0.20743 0.68898-0.51858 0.68898-0.30745 0-0.51858-0.27781-0.51858-0.68898z"/>
    <path d="m38.869 28.972h0.6223c0.73343 0 1.1335-0.45191 1.1335-1.2261 0-0.77047-0.40005-1.2039-1.1483-1.2039h-0.60748zm0.31115-0.25188v-1.9262h0.27411c0.57044 0 0.85196 0.34078 0.85196 0.95197 0 0.61489-0.28152 0.9742-0.85196 0.9742z"/>
    <path d="m40.981 28.075c0 0.58896 0.38153 0.94086 0.86307 0.94086 0.24448 0 0.43709-0.0852 0.59267-0.18521l-0.10742-0.20002c-0.13335 0.0852-0.27781 0.14076-0.4482 0.14076-0.34449 0-0.57785-0.24448-0.60008-0.63341h1.215c0.0074-0.04445 0.01111-0.10372 0.01111-0.16669 0-0.51488-0.25929-0.84455-0.71861-0.84455-0.41116 0-0.80751 0.3593-0.80751 0.94827zm0.29633-0.13705c0.03704-0.36301 0.2667-0.57044 0.51858-0.57044 0.28152 0 0.4445 0.20373 0.4445 0.57044z"/>
    <path d="m42.819 28.075c0 0.59637 0.36671 0.94086 0.84455 0.94086 0.21484 0 0.42228-0.0889 0.58526-0.23336l-0.13705-0.20003c-0.10742 0.09631-0.25188 0.1815-0.42228 0.1815-0.32967 0-0.55562-0.27781-0.55562-0.68898 0-0.41487 0.23707-0.69638 0.56303-0.69638 0.14446 0 0.25559 0.06668 0.36301 0.15928l0.15187-0.19632c-0.12224-0.11483-0.28892-0.21484-0.52599-0.21484-0.46302 0-0.86678 0.34449-0.86678 0.94827z"/>
    <path d="m44.794 26.801c0.11853 0 0.21114-0.08149 0.21114-0.19632 0-0.11853-0.0926-0.19632-0.21114-0.19632-0.11853 0-0.21114 0.07779-0.21114 0.19632 0 0.11483 0.0926 0.19632 0.21114 0.19632zm-0.15558 2.1706h0.30374v-1.8002h-0.30374z"/>
    <path d="m45.42 28.075c0 0.60008 0.29263 0.94086 0.74454 0.94086 0.21114 0 0.40376-0.11853 0.54451-0.25559h0.01111l0.02593 0.21114h0.25188v-2.6374h-0.30745v0.69268l0.01482 0.30745c-0.15928-0.12965-0.29633-0.20743-0.50377-0.20743-0.41116 0-0.78158 0.36301-0.78158 0.94827zm0.31486-0.0037c0-0.41116 0.22966-0.68898 0.51858-0.68898 0.14817 0 0.28522 0.05186 0.43709 0.18891v0.94086c-0.14817 0.16669-0.29263 0.24818-0.45932 0.24818-0.31485 0-0.49636-0.25929-0.49636-0.68898z"/>
    <path d="m47.471 28.075c0 0.58896 0.38153 0.94086 0.86307 0.94086 0.24448 0 0.43709-0.0852 0.59267-0.18521l-0.10742-0.20002c-0.13335 0.0852-0.27781 0.14076-0.4482 0.14076-0.34449 0-0.57785-0.24448-0.60008-0.63341h1.215c0.0074-0.04445 0.01111-0.10372 0.01111-0.16669 0-0.51488-0.25929-0.84455-0.71861-0.84455-0.41116 0-0.80751 0.3593-0.80751 0.94827zm0.29633-0.13705c0.03704-0.36301 0.2667-0.57044 0.51858-0.57044 0.28152 0 0.4445 0.20373 0.4445 0.57044z"/>
    <path d="m49.442 28.972h0.30374v-1.1557c0.12224-0.30374 0.30374-0.41487 0.45561-0.41487 0.07408 0 0.11483 0.01111 0.1741 0.02963l0.05927-0.2667c-0.05927-0.02593-0.11483-0.03704-0.19262-0.03704-0.20373 0-0.38894 0.14446-0.51118 0.37042h-0.01111l-0.02593-0.32597h-0.25188z"/>
   </g>
   <path d="m25.657 32.941h30.427v5.5562h-30.427z" fill="#2f3744" stroke="#7b8694"/>
   <g fill="#e8eaec" aria-label="MoveAway">
    <path d="m32.835 36.909h0.28522v-1.3372c0-0.21484-0.02222-0.50377-0.03704-0.71861h0.01482l0.19262 0.54081 0.46673 1.2705h0.1778l0.46672-1.2705 0.19262-0.54081h0.01482c-0.01482 0.21484-0.04075 0.50377-0.04075 0.71861v1.3372h0.29263v-2.4299h-0.36301l-0.46673 1.3039-0.17039 0.49636h-0.01482l-0.1741-0.49636-0.47043-1.3039h-0.36671z"/>
    <path d="m35.36 36.013c0 0.59637 0.39264 0.94086 0.83344 0.94086 0.4408 0 0.83344-0.34449 0.83344-0.94086 0-0.60378-0.39264-0.94827-0.83344-0.94827-0.4408 0-0.83344 0.34449-0.83344 0.94827zm0.31486 0c0-0.41487 0.21114-0.69638 0.51858-0.69638 0.31115 0 0.51858 0.28152 0.51858 0.69638 0 0.41116-0.20743 0.68898-0.51858 0.68898-0.30745 0-0.51858-0.27781-0.51858-0.68898z"/>
    <path d="m37.879 36.909h0.3556l0.63712-1.8002h-0.30004l-0.34078 1.0224c-0.05186 0.1778-0.11112 0.3593-0.16298 0.5297h-0.01482c-0.05556-0.17039-0.11483-0.3519-0.16669-0.5297l-0.34078-1.0224h-0.31486z"/>
    <path d="m39.071 36.013c0 0.58896 0.38153 0.94086 0.86307 0.94086 0.24448 0 0.43709-0.0852 0.59267-0.18521l-0.10742-0.20002c-0.13335 0.0852-0.27781 0.14076-0.4482 0.14076-0.34449 0-0.57785-0.24448-0.60008-0.63341h1.215c0.0074-0.04445 0.01111-0.10372 0.01111-0.16669 0-0.51488-0.25929-0.84455-0.71861-0.84455-0.41116 0-0.80751 0.3593-0.80751 0.94827zm0.29633-0.13705c0.03704-0.36301 0.2667-0.57044 0.51858-0.57044 0.28152 0 0.4445 0.20373 0.4445 0.57044z"/>
    <path d="m41.365 35.92 0.11853-0.37042c0.0852-0.2704 0.16298-0.5371 0.24077-0.81862h0.01482c0.07779 0.28152 0.15558 0.54822 0.24077 0.81862l0.11483 0.37042zm1.0409 0.98901h0.32597l-0.82233-2.4299h-0.34819l-0.82233 2.4299h0.31486l0.23336-0.74083h0.8853z"/>
    <path d="m43.303 36.909h0.3556l0.25188-0.96308c0.04815-0.17039 0.0852-0.34078 0.12594-0.52229h0.01482c0.04445 0.1815 0.07779 0.34819 0.12224 0.51858l0.25929 0.96679h0.37042l0.48154-1.8002h-0.28893l-0.263 1.0409c-0.03704 0.17039-0.07038 0.33338-0.11112 0.50006h-0.01482c-0.040743-0.16669-0.081489-0.32967-0.12594-0.50006l-0.28152-1.0409h-0.29633l-0.27781 1.0409c-0.04445 0.16669-0.08149 0.33338-0.12224 0.50006h-0.01482c-0.03334-0.16669-0.06668-0.32967-0.10742-0.50006l-0.2667-1.0409h-0.31115z"/>
    <path d="m45.555 36.443c0 0.32226 0.22595 0.51118 0.5297 0.51118 0.22225 0 0.42228-0.11853 0.59637-0.25929h0.0074l0.02593 0.21484h0.25188v-1.1038c0-0.4482-0.18521-0.74083-0.626-0.74083-0.28893 0-0.54081 0.12594-0.7075 0.23336l0.12224 0.21114c0.14076-0.09631 0.32597-0.19262 0.5371-0.19262 0.29263 0 0.37042 0.22225 0.37042 0.45191-0.76676 0.0852-1.1075 0.28152-1.1075 0.67416zm0.30004-0.02222c0-0.22966 0.20373-0.37782 0.80751-0.45191v0.50006c-0.1741 0.15558-0.31856 0.24077-0.49266 0.24077-0.1778 0-0.31486-0.0852-0.31486-0.28892z"/>
    <path d="m47.417 37.406-0.05927 0.24077c0.05927 0.02222 0.12965 0.03704 0.21114 0.03704 0.36301 0 0.54822-0.2704 0.67416-0.626l0.67786-1.9484h-0.29633l-0.32226 0.99642c-0.04815 0.15928-0.10001 0.34449-0.15187 0.50747h-0.01482c-0.055556-0.16669-0.11853-0.35189-0.17409-0.50747l-0.36671-0.99642h-0.31486l0.72231 1.8039-0.04075 0.13335c-0.07408 0.22225-0.20373 0.38523-0.40746 0.38523-0.04445 0-0.10001-0.01482-0.13705-0.02593z"/>
   </g>
   <path d="m60.053 32.941h30.427v5.5562h-30.427z" fill="#2f3744" stroke="#7b8694"/>
   <g fill="#e8eaec" aria-label="Pursue">
    <path d="m70.06 36.909h0.31115v-0.96308h0.43709c0.5297 0 0.89641-0.24077 0.89641-0.75195 0-0.5334-0.3593-0.7149-0.89641-0.7149h-0.74824zm0.31115-1.215v-0.96679h0.39635c0.41857 0 0.62971 0.11483 0.62971 0.46673 0 0.34449-0.20373 0.50006-0.62971 0.50006z"/>
    <path d="m72.128 36.25c0 0.45932 0.17039 0.70379 0.55192 0.70379 0.24818 0 0.42598-0.12965 0.59267-0.32597h0.01111l0.02593 0.28152h0.25188v-1.8002h-0.30374v1.2779c-0.17039 0.21114-0.30004 0.30374-0.48525 0.30374-0.23707 0-0.33708-0.14446-0.33708-0.48154v-1.1001h-0.30744z"/>
    <path d="m74.172 36.909h0.30374v-1.1557c0.12224-0.30374 0.30374-0.41487 0.45561-0.41487 0.07408 0 0.11483 0.01111 0.1741 0.02963l0.05927-0.2667c-0.05927-0.02593-0.11483-0.03704-0.19262-0.03704-0.20373 0-0.38894 0.14446-0.51118 0.37042h-0.01111l-0.02593-0.32597h-0.25188z"/>
    <path d="m75.224 36.706c0.17039 0.14076 0.41487 0.24818 0.67046 0.24818 0.42598 0 0.65934-0.24448 0.65934-0.5371 0-0.34078-0.28892-0.4482-0.54822-0.54451-0.20373-0.07779-0.40005-0.14446-0.40005-0.31115 0-0.13705 0.10372-0.25929 0.32967-0.25929 0.15928 0 0.28892 0.06668 0.41116 0.15928l0.14446-0.19262c-0.13705-0.11112-0.33338-0.20373-0.55933-0.20373-0.38894 0-0.6186 0.22225-0.6186 0.51118 0 0.30374 0.28152 0.42598 0.5371 0.51858 0.19632 0.07408 0.41116 0.15558 0.41116 0.34078 0 0.15558-0.11853 0.28152-0.3556 0.28152-0.21484 0-0.37412-0.0889-0.5297-0.21484z"/>
    <path d="m76.953 36.25c0 0.45932 0.17039 0.70379 0.55192 0.70379 0.24818 0 0.42598-0.12965 0.59267-0.32597h0.01111l0.02593 0.28152h0.25188v-1.8002h-0.30374v1.2779c-0.17039 0.21114-0.30004 0.30374-0.48525 0.30374-0.23707 0-0.33708-0.14446-0.33708-0.48154v-1.1001h-0.30745z"/>
    <path d="m78.864 36.013c0 0.58896 0.38153 0.94086 0.86307 0.94086 0.24448 0 0.43709-0.0852 0.59267-0.18521l-0.10742-0.20002c-0.13335 0.0852-0.27781 0.14076-0.4482 0.14076-0.34449 0-0.57785-0.24448-0.60008-0.63341h1.215c0.0074-0.04445 0.01111-0.10372 0.01111-0.16669 0-0.51488-0.25929-0.84455-0.71861-0.84455-0.41116 0-0.80751 0.3593-0.80751 0.94827zm0.29633-0.13705c0.03704-0.36301 0.2667-0.57044 0.51858-0.57044 0.28152 0 0.4445 0.20373 0.4445 0.57044z"/>
   </g>
   <path d="m94.449 32.941h30.427v5.5562h-30.427z" fill="#2f3744" stroke="#7b8694"/>
   <g fill="#e8eaec" aria-label="Attack">
    <path d="m105.26 35.92 0.11854-0.37042c0.0852-0.2704 0.16298-0.5371 0.24077-0.81862h0.0148c0.0778 0.28152 0.15558 0.54822 0.24078 0.81862l0.11482 0.37042zm1.0409 0.98901h0.32597l-0.82232-2.4299h-0.3482l-0.82232 2.4299h0.31485l0.23337-0.74083h0.88529z"/>
    <path d="m106.93 36.354c0 0.3556 0.12965 0.60008 0.51488 0.60008 0.11112 0 0.23336-0.03334 0.33337-0.06667l-0.0593-0.22966c-0.0593 0.02222-0.14076 0.04815-0.20373 0.04815-0.20743 0-0.27781-0.12594-0.27781-0.34819v-1.0001h0.48524v-0.24818h-0.48524v-0.50377h-0.25559l-0.037 0.50377-0.28152 0.01852v0.22966h0.2667z"/>
    <path d="m108.18 36.354c0 0.3556 0.12965 0.60008 0.51488 0.60008 0.11113 0 0.23337-0.03334 0.33338-0.06667l-0.0593-0.22966c-0.0593 0.02222-0.14076 0.04815-0.20373 0.04815-0.20743 0-0.27781-0.12594-0.27781-0.34819v-1.0001h0.48525v-0.24818h-0.48525v-0.50377h-0.25559l-0.037 0.50377-0.28152 0.01852v0.22966h0.2667z"/>
    <path d="m109.23 36.443c0 0.32226 0.22595 0.51118 0.52969 0.51118 0.22225 0 0.42228-0.11853 0.59638-0.25929h7e-3l0.0259 0.21484h0.25189v-1.1038c0-0.4482-0.18521-0.74083-0.62601-0.74083-0.28892 0-0.54081 0.12594-0.70749 0.23336l0.12223 0.21114c0.14076-0.09631 0.32597-0.19262 0.53711-0.19262 0.29263 0 0.37041 0.22225 0.37041 0.45191-0.76676 0.0852-1.1075 0.28152-1.1075 0.67416zm0.30004-0.02222c0-0.22966 0.20372-0.37782 0.8075-0.45191v0.50006c-0.17409 0.15558-0.31855 0.24077-0.49265 0.24077-0.1778 0-0.31485-0.0852-0.31485-0.28892z"/>
    <path d="m111.08 36.013c0 0.59637 0.36671 0.94086 0.84455 0.94086 0.21484 0 0.42228-0.0889 0.58526-0.23336l-0.13705-0.20002c-0.10742 0.09631-0.25189 0.1815-0.42228 0.1815-0.32967 0-0.55562-0.27781-0.55562-0.68898 0-0.41487 0.23706-0.69638 0.56303-0.69638 0.14446 0 0.25559 0.06667 0.36301 0.15928l0.15187-0.19632c-0.12224-0.11483-0.28893-0.21484-0.52599-0.21484-0.46302 0-0.86678 0.34449-0.86678 0.94827z"/>
    <path d="m112.9 36.909h0.30004v-0.47413l0.33707-0.39264 0.526 0.86678h0.33337l-0.68527-1.0779 0.60378-0.72231h-0.33708l-0.76676 0.94827h-0.0111v-1.7854h-0.30005z"/>
   </g>
   <path d="m25.657 40.878v5.2917h30.427v-1.5875l-4.1341-3.7042z" fill="#2f3744" stroke="#7b8694"/>
  </g>
  <path d="m52.814 40.738 3.4107 2.9476v-2.9476h-2.0381z" fill="#7b8694"/>
  <g fill="#e8eaec" stroke-linecap="round" stroke-width=".26458" aria-label="GroupCoord">
   <path d="m31.407 43.632c0 0.79269 0.45561 1.2594 1.0927 1.2594 0.32597 0 0.59637-0.12594 0.75565-0.28152v-1.0224h-0.7964v0.25559h0.51488v0.63341c-0.09631 0.0889-0.2667 0.14446-0.4408 0.14446-0.51858 0-0.80751-0.38523-0.80751-0.99642 0-0.60378 0.31485-0.9816 0.80751-0.9816 0.24077 0 0.39264 0.09631 0.51488 0.22596l0.1778-0.19632c-0.14446-0.14817-0.36671-0.30004-0.69638-0.30004-0.65193 0-1.1224 0.47784-1.1224 1.2594z"/>
   <path d="m33.793 44.847h0.30374v-1.1557c0.12224-0.30374 0.30374-0.41487 0.45561-0.41487 0.07408 0 0.11483 0.01111 0.1741 0.02963l0.05927-0.2667c-0.05927-0.02593-0.11483-0.03704-0.19262-0.03704-0.20373 0-0.38894 0.14446-0.51118 0.37042h-0.01111l-0.02593-0.32597h-0.25188z"/>
   <path d="m34.912 43.95c0 0.59637 0.39264 0.94086 0.83344 0.94086 0.4408 0 0.83344-0.34449 0.83344-0.94086 0-0.60378-0.39264-0.94827-0.83344-0.94827-0.4408 0-0.83344 0.34449-0.83344 0.94827zm0.31486 0c0-0.41487 0.21114-0.69638 0.51858-0.69638 0.31115 0 0.51858 0.28152 0.51858 0.69638 0 0.41116-0.20743 0.68898-0.51858 0.68898-0.30745 0-0.51858-0.27781-0.51858-0.68898z"/>
   <path d="m37.03 44.188c0 0.45932 0.17039 0.70379 0.55192 0.70379 0.24818 0 0.42598-0.12965 0.59267-0.32597h0.01111l0.02593 0.28152h0.25188v-1.8002h-0.30374v1.2779c-0.17039 0.21114-0.30004 0.30374-0.48525 0.30374-0.23707 0-0.33708-0.14446-0.33708-0.48154v-1.1001h-0.30745z"/>
   <path d="m39.371 44.684c0.16669 0.12965 0.33338 0.20743 0.50006 0.20743 0.41116 0 0.77788-0.3593 0.77788-0.97049 0-0.55933-0.24818-0.91863-0.7112-0.91863-0.21114 0-0.41116 0.11483-0.57415 0.25188h-0.011112l-0.02593-0.20743h-0.25188v2.5596h0.30374v-0.60748zm0.0074-0.23707v-0.94456c0.1778-0.15928 0.32967-0.24448 0.48154-0.24448 0.34078 0 0.47413 0.2667 0.47413 0.66305 0 0.4445-0.21855 0.7149-0.51488 0.7149-0.11853 0-0.27781-0.05186-0.4408-0.18891z"/>
   <path d="m41.007 43.632c0 0.79269 0.45561 1.2594 1.0668 1.2594 0.30745 0 0.54822-0.12965 0.73713-0.3519l-0.1741-0.18891c-0.15558 0.1741-0.32597 0.2704-0.55562 0.2704-0.46302 0-0.75565-0.38523-0.75565-0.99642 0-0.60378 0.30745-0.9816 0.77047-0.9816 0.20003 0 0.3556 0.0889 0.48525 0.22596l0.1741-0.19632c-0.14446-0.15928-0.37412-0.30004-0.66305-0.30004-0.6223 0-1.0853 0.47784-1.0853 1.2594z"/>
   <path d="m43.094 43.95c0 0.59637 0.39264 0.94086 0.83344 0.94086 0.4408 0 0.83344-0.34449 0.83344-0.94086 0-0.60378-0.39264-0.94827-0.83344-0.94827-0.4408 0-0.83344 0.34449-0.83344 0.94827zm0.31486 0c0-0.41487 0.21114-0.69638 0.51858-0.69638 0.31115 0 0.51858 0.28152 0.51858 0.69638 0 0.41116-0.20743 0.68898-0.51858 0.68898-0.30745 0-0.51858-0.27781-0.51858-0.68898z"/>
   <path d="m45.105 43.95c0 0.59637 0.39264 0.94086 0.83344 0.94086s0.83344-0.34449 0.83344-0.94086c0-0.60378-0.39264-0.94827-0.83344-0.94827s-0.83344 0.34449-0.83344 0.94827zm0.31485 0c0-0.41487 0.21114-0.69638 0.51858-0.69638 0.31115 0 0.51858 0.28152 0.51858 0.69638 0 0.41116-0.20743 0.68898-0.51858 0.68898-0.30745 0-0.51858-0.27781-0.51858-0.68898z"/>
   <path d="m47.25 44.847h0.30374v-1.1557c0.12224-0.30374 0.30374-0.41487 0.45561-0.41487 0.07408 0 0.11483 0.01111 0.1741 0.02963l0.05927-0.2667c-0.05927-0.02593-0.11483-0.03704-0.19262-0.03704-0.20373 0-0.38894 0.14446-0.51118 0.37042h-0.01111l-0.02593-0.32597h-0.25188z"/>
   <path d="m48.372 43.95c0 0.60008 0.29263 0.94086 0.74454 0.94086 0.21114 0 0.40375-0.11853 0.54451-0.25559h0.01111l0.02593 0.21114h0.25188v-2.6374h-0.30745v0.69268l0.01482 0.30745c-0.15928-0.12965-0.29633-0.20743-0.50377-0.20743-0.41116 0-0.78158 0.36301-0.78158 0.94827zm0.31485-0.0037c0-0.41116 0.22966-0.68898 0.51858-0.68898 0.14817 0 0.28522 0.05186 0.43709 0.18891v0.94086c-0.14817 0.16669-0.29263 0.24818-0.45932 0.24818-0.31485 0-0.49636-0.25929-0.49636-0.68898z"/>
  </g>
  <path d="m60.053 40.878v5.2917h30.427v-1.5875l-4.1341-3.7042z" fill="#2f3744" stroke="#7b8694" stroke-linecap="round" stroke-width=".26458"/>
  <path d="m87.21 40.738 3.4107 2.9476v-2.9476h-2.0381z" fill="#7b8694"/>
  <g fill="#e8eaec" stroke-linecap="round" stroke-width=".26458" aria-label="ComboCoord">
   <path d="m64.981 43.632c0 0.79269 0.45561 1.2594 1.0668 1.2594 0.30745 0 0.54822-0.12965 0.73713-0.3519l-0.1741-0.18891c-0.15558 0.1741-0.32597 0.2704-0.55562 0.2704-0.46302 0-0.75565-0.38523-0.75565-0.99642 0-0.60378 0.30745-0.9816 0.77047-0.9816 0.20002 0 0.3556 0.0889 0.48525 0.22596l0.1741-0.19632c-0.14446-0.15928-0.37412-0.30004-0.66305-0.30004-0.6223 0-1.0853 0.47784-1.0853 1.2594z"/>
   <path d="m67.068 43.95c0 0.59637 0.39264 0.94086 0.83344 0.94086s0.83344-0.34449 0.83344-0.94086c0-0.60378-0.39264-0.94827-0.83344-0.94827s-0.83344 0.34449-0.83344 0.94827zm0.31485 0c0-0.41487 0.21114-0.69638 0.51858-0.69638 0.31115 0 0.51858 0.28152 0.51858 0.69638 0 0.41116-0.20743 0.68898-0.51858 0.68898-0.30745 0-0.51858-0.27781-0.51858-0.68898z"/>
   <path d="m69.213 44.847h0.30374v-1.3039c0.16669-0.18521 0.31856-0.27781 0.45191-0.27781 0.22966 0 0.33708 0.14446 0.33708 0.48154v1.1001h0.30374v-1.3039c0.16669-0.18521 0.31115-0.27781 0.45191-0.27781 0.22595 0 0.33338 0.14446 0.33338 0.48154v1.1001h0.30374v-1.1409c0-0.45932-0.1778-0.70379-0.54822-0.70379-0.21855 0-0.40376 0.14076-0.59267 0.34449-0.07408-0.21484-0.22225-0.34449-0.49636-0.34449-0.21484 0-0.40376 0.13335-0.55933 0.30374h-0.01111l-0.02593-0.25929h-0.25188z"/>
   <path d="m72.28 44.847h0.24448l0.02593-0.1778h0.01111c0.15928 0.14076 0.34819 0.22225 0.51488 0.22225 0.41116 0 0.77788-0.3593 0.77788-0.9742 0-0.55563-0.24818-0.91493-0.7149-0.91493-0.20003 0-0.40005 0.10742-0.56303 0.25188l0.0074-0.32597v-0.71861h-0.30374zm0.30374-0.40005v-0.94456c0.17039-0.15928 0.32967-0.24448 0.48154-0.24448 0.34078 0 0.47413 0.2667 0.47413 0.66305 0 0.4445-0.21855 0.7149-0.51488 0.7149-0.11853 0-0.28152-0.05186-0.4408-0.18891z"/>
   <path d="m74.202 43.95c0 0.59637 0.39264 0.94086 0.83344 0.94086 0.4408 0 0.83344-0.34449 0.83344-0.94086 0-0.60378-0.39264-0.94827-0.83344-0.94827-0.4408 0-0.83344 0.34449-0.83344 0.94827zm0.31485 0c0-0.41487 0.21114-0.69638 0.51858-0.69638 0.31115 0 0.51858 0.28152 0.51858 0.69638 0 0.41116-0.20743 0.68898-0.51858 0.68898-0.30745 0-0.51858-0.27781-0.51858-0.68898z"/>
   <path d="m76.224 43.632c0 0.79269 0.45561 1.2594 1.0668 1.2594 0.30745 0 0.54822-0.12965 0.73713-0.3519l-0.1741-0.18891c-0.15558 0.1741-0.32597 0.2704-0.55563 0.2704-0.46302 0-0.75565-0.38523-0.75565-0.99642 0-0.60378 0.30745-0.9816 0.77047-0.9816 0.20002 0 0.3556 0.0889 0.48525 0.22596l0.1741-0.19632c-0.14446-0.15928-0.37412-0.30004-0.66305-0.30004-0.6223 0-1.0853 0.47784-1.0853 1.2594z"/>
   <path d="m78.311 43.95c0 0.59637 0.39264 0.94086 0.83344 0.94086s0.83344-0.34449 0.83344-0.94086c0-0.60378-0.39264-0.94827-0.83344-0.94827s-0.83344 0.34449-0.83344 0.94827zm0.31485 0c0-0.41487 0.21114-0.69638 0.51858-0.69638 0.31115 0 0.51858 0.28152 0.51858 0.69638 0 0.41116-0.20743 0.68898-0.51858 0.68898-0.30745 0-0.51858-0.27781-0.51858-0.68898z"/>
   <path d="m80.322 43.95c0 0.59637 0.39264 0.94086 0.83344 0.94086s0.83344-0.34449 0.83344-0.94086c0-0.60378-0.39264-0.94827-0.83344-0.94827s-0.83344 0.34449-0.83344 0.94827zm0.31485 0c0-0.41487 0.21114-0.69638 0.51858-0.69638 0.31115 0 0.51858 0.28152 0.51858 0.69638 0 0.41116-0.20743 0.68898-0.51858 0.68898-0.30745 0-0.51858-0.27781-0.51858-0.68898z"/>
   <path d="m82.467 44.847h0.30374v-1.1557c0.12224-0.30374 0.30374-0.41487 0.45561-0.41487 0.07408 0 0.11483 0.01111 0.1741 0.02963l0.05927-0.2667c-0.05927-0.02593-0.11483-0.03704-0.19262-0.03704-0.20373 0-0.38894 0.14446-0.51118 0.37042h-0.01111l-0.02593-0.32597h-0.25188z"/>
   <path d="m83.589 43.95c0 0.60008 0.29263 0.94086 0.74454 0.94086 0.21114 0 0.40375-0.11853 0.54451-0.25559h0.01111l0.02593 0.21114h0.25188v-2.6374h-0.30745v0.69268l0.01482 0.30745c-0.15928-0.12965-0.29633-0.20743-0.50377-0.20743-0.41116 0-0.78158 0.36301-0.78158 0.94827zm0.31486-0.0037c0-0.41116 0.22966-0.68898 0.51858-0.68898 0.14817 0 0.28522 0.05186 0.43709 0.18891v0.94086c-0.14817 0.16669-0.29263 0.24818-0.45932 0.24818-0.31486 0-0.49636-0.25929-0.49636-0.68898z"/>
  </g>
  <path d="m94.449 40.878v5.2917h30.427v-1.5875l-4.1341-3.7042z" fill="#2f3744" stroke="#7b8694" stroke-linecap="round" stroke-width=".26458"/>
  <path d="m121.61 40.738 3.4106 2.9476v-2.9476h-2.0381z" fill="#7b8694"/>
  <g stroke-linecap="round" stroke-width=".26458">
   <g fill="#e8eaec" aria-label="TaskManager">
    <path d="m100.15 44.847h0.30745v-2.1706h0.73713v-0.25929h-1.7817v0.25929h0.73713z"/>
    <path d="m101.24 44.38c0 0.32226 0.22596 0.51118 0.5297 0.51118 0.22225 0 0.42228-0.11853 0.59637-0.25929h7e-3l0.0259 0.21484h0.25188v-1.1038c0-0.4482-0.18521-0.74083-0.626-0.74083-0.28893 0-0.54081 0.12594-0.7075 0.23336l0.12224 0.21114c0.14076-0.09631 0.32597-0.19262 0.5371-0.19262 0.29263 0 0.37042 0.22225 0.37042 0.45191-0.76676 0.0852-1.1076 0.28152-1.1076 0.67416zm0.30004-0.02222c0-0.22966 0.20373-0.37782 0.80751-0.45191v0.50006c-0.1741 0.15558-0.31856 0.24077-0.49265 0.24077-0.1778 0-0.31486-0.0852-0.31486-0.28892z"/>
    <path d="m103.02 44.643c0.17039 0.14076 0.41487 0.24818 0.67046 0.24818 0.42598 0 0.65934-0.24448 0.65934-0.5371 0-0.34078-0.28893-0.4482-0.54822-0.54451-0.20373-0.07779-0.40005-0.14446-0.40005-0.31115 0-0.13705 0.10372-0.25929 0.32967-0.25929 0.15928 0 0.28893 0.06668 0.41117 0.15928l0.14446-0.19262c-0.13706-0.11112-0.33338-0.20373-0.55933-0.20373-0.38894 0-0.6186 0.22225-0.6186 0.51118 0 0.30374 0.28152 0.42598 0.53711 0.51858 0.19632 0.07408 0.41116 0.15558 0.41116 0.34078 0 0.15558-0.11853 0.28152-0.3556 0.28152-0.21484 0-0.37412-0.0889-0.5297-0.21484z"/>
    <path d="m104.78 44.847h0.30004v-0.47413l0.33708-0.39264 0.52599 0.86678h0.33337l-0.68527-1.0779 0.60378-0.72231h-0.33708l-0.76676 0.94827h-0.0111v-1.7854h-0.30004z"/>
    <path d="m106.63 44.847h0.28522v-1.3372c0-0.21484-0.0222-0.50377-0.037-0.71861h0.0148l0.19261 0.54081 0.46673 1.2705h0.1778l0.46672-1.2705 0.19262-0.54081h0.0148c-0.0148 0.21484-0.0408 0.50377-0.0408 0.71861v1.3372h0.29263v-2.4299h-0.36301l-0.46672 1.3039-0.17039 0.49636h-0.0148l-0.1741-0.49636-0.47043-1.3039h-0.36671z"/>
    <path d="m109.2 44.38c0 0.32226 0.22596 0.51118 0.5297 0.51118 0.22225 0 0.42227-0.11853 0.59637-0.25929h7e-3l0.0259 0.21484h0.25188v-1.1038c0-0.4482-0.18521-0.74083-0.626-0.74083-0.28893 0-0.54081 0.12594-0.7075 0.23336l0.12224 0.21114c0.14076-0.09631 0.32596-0.19262 0.5371-0.19262 0.29263 0 0.37042 0.22225 0.37042 0.45191-0.76676 0.0852-1.1076 0.28152-1.1076 0.67416zm0.30004-0.02222c0-0.22966 0.20373-0.37782 0.80751-0.45191v0.50006c-0.1741 0.15558-0.31856 0.24077-0.49266 0.24077-0.1778 0-0.31485-0.0852-0.31485-0.28892z"/>
    <path d="m111.18 44.847h0.30375v-1.3039c0.1815-0.1815 0.30744-0.27781 0.49265-0.27781 0.23707 0 0.34079 0.14446 0.34079 0.48154v1.1001h0.30374v-1.1409c0-0.45932-0.17039-0.70379-0.54822-0.70379-0.24818 0-0.43339 0.13335-0.60378 0.30374h-0.0111l-0.0259-0.25929h-0.25189z"/>
    <path d="m113.12 44.38c0 0.32226 0.22596 0.51118 0.5297 0.51118 0.22225 0 0.42227-0.11853 0.59637-0.25929h7e-3l0.0259 0.21484h0.25188v-1.1038c0-0.4482-0.18521-0.74083-0.626-0.74083-0.28893 0-0.54081 0.12594-0.7075 0.23336l0.12224 0.21114c0.14076-0.09631 0.32596-0.19262 0.5371-0.19262 0.29263 0 0.37042 0.22225 0.37042 0.45191-0.76676 0.0852-1.1076 0.28152-1.1076 0.67416zm0.30004-0.02222c0-0.22966 0.20373-0.37782 0.80751-0.45191v0.50006c-0.1741 0.15558-0.31856 0.24077-0.49266 0.24077-0.1778 0-0.31485-0.0852-0.31485-0.28892z"/>
    <path d="m115.23 45.151c0-0.10372 0.0556-0.21114 0.18521-0.30374 0.0778 0.02222 0.16298 0.02963 0.23336 0.02963h0.31115c0.23337 0 0.36301 0.05556 0.36301 0.22225 0 0.18891-0.22595 0.36671-0.57044 0.36671-0.32597 0-0.52229-0.12224-0.52229-0.31486zm-0.2667 0.04075c0 0.31115 0.30374 0.48525 0.74454 0.48525 0.55933 0 0.91123-0.28892 0.91123-0.6223 0-0.30004-0.21114-0.42968-0.62971-0.42968h-0.34819c-0.24448 0-0.31856-0.08149-0.31856-0.19632 0-0.10001 0.0518-0.15928 0.11483-0.21484 0.0815 0.04075 0.1815 0.06297 0.2704 0.06297 0.36671 0 0.65934-0.24077 0.65934-0.626 0-0.15187-0.063-0.28892-0.14816-0.37042h0.37041v-0.23336h-0.626c-0.0667-0.02593-0.15558-0.04445-0.25559-0.04445-0.36671 0-0.67786 0.24818-0.67786 0.64082 0 0.21484 0.11483 0.38894 0.23336 0.48525v0.01482c-0.0926 0.06297-0.19632 0.1815-0.19632 0.33338 0 0.14076 0.0704 0.23707 0.15928 0.29263v0.01482c-0.16299 0.11113-0.263 0.25559-0.263 0.40746zm0.74454-1.1187c-0.20743 0-0.38153-0.16669-0.38153-0.42968s0.17039-0.41857 0.38153-0.41857 0.38153 0.15558 0.38153 0.41857-0.1741 0.42968-0.38153 0.42968z"/>
    <path d="m116.78 43.95c0 0.58896 0.38153 0.94086 0.86307 0.94086 0.24447 0 0.43709-0.0852 0.59267-0.18521l-0.10743-0.20002c-0.13335 0.0852-0.27781 0.14076-0.4482 0.14076-0.34449 0-0.57785-0.24448-0.60008-0.63341h1.215c7e-3 -0.04445 0.0111-0.10372 0.0111-0.16669 0-0.51488-0.25929-0.84455-0.7186-0.84455-0.41117 0-0.80751 0.3593-0.80751 0.94827zm0.29633-0.13705c0.037-0.36301 0.2667-0.57044 0.51858-0.57044 0.28152 0 0.4445 0.20373 0.4445 0.57044z"/>
    <path d="m118.75 44.847h0.30374v-1.1557c0.12224-0.30374 0.30375-0.41487 0.45562-0.41487 0.0741 0 0.11483 0.01111 0.17409 0.02963l0.0593-0.2667c-0.0593-0.02593-0.11483-0.03704-0.19262-0.03704-0.20373 0-0.38893 0.14446-0.51117 0.37042h-0.0111l-0.0259-0.32597h-0.25189z"/>
   </g>
   <path d="m25.657 48.816h30.427v5.5563h-30.427z" fill="#2f3744" stroke="#7b8694"/>
   <g fill="#e8eaec" aria-label="Attack">
    <path d="m36.47 51.795 0.11853-0.37042c0.0852-0.2704 0.16298-0.5371 0.24077-0.81862h0.01482c0.07779 0.28152 0.15558 0.54822 0.24077 0.81862l0.11483 0.37042zm1.0409 0.98901h0.32597l-0.82233-2.4299h-0.34819l-0.82233 2.4299h0.31486l0.23336-0.74083h0.8853z"/>
    <path d="m38.139 52.229c0 0.3556 0.12965 0.60008 0.51488 0.60008 0.11112 0 0.23336-0.03334 0.33338-0.06667l-0.05927-0.22966c-0.05927 0.02222-0.14076 0.04815-0.20373 0.04815-0.20743 0-0.27781-0.12594-0.27781-0.34819v-1.0001h0.48525v-0.24818h-0.48525v-0.50377h-0.25559l-0.03704 0.50377-0.28152 0.01852v0.22966h0.2667z"/>
    <path d="m39.391 52.229c0 0.3556 0.12965 0.60008 0.51488 0.60008 0.11112 0 0.23336-0.03334 0.33338-0.06667l-0.05927-0.22966c-0.05927 0.02222-0.14076 0.04815-0.20373 0.04815-0.20743 0-0.27781-0.12594-0.27781-0.34819v-1.0001h0.48525v-0.24818h-0.48525v-0.50377h-0.25559l-0.03704 0.50377-0.28152 0.01852v0.22966h0.2667z"/>
    <path d="m40.436 52.318c0 0.32226 0.22595 0.51118 0.5297 0.51118 0.22225 0 0.42228-0.11853 0.59637-0.25929h0.0074l0.02593 0.21484h0.25188v-1.1038c0-0.4482-0.18521-0.74083-0.626-0.74083-0.28892 0-0.54081 0.12594-0.7075 0.23336l0.12224 0.21114c0.14076-0.09631 0.32597-0.19262 0.5371-0.19262 0.29263 0 0.37042 0.22225 0.37042 0.45191-0.76676 0.0852-1.1075 0.28152-1.1075 0.67416zm0.30004-0.02222c0-0.22966 0.20373-0.37782 0.80751-0.45191v0.50006c-0.1741 0.15558-0.31856 0.24077-0.49266 0.24077-0.1778 0-0.31485-0.0852-0.31485-0.28892z"/>
    <path d="m42.287 51.888c0 0.59637 0.36671 0.94086 0.84455 0.94086 0.21484 0 0.42228-0.0889 0.58526-0.23336l-0.13706-0.20002c-0.10742 0.09631-0.25188 0.1815-0.42228 0.1815-0.32967 0-0.55562-0.27781-0.55562-0.68898 0-0.41487 0.23707-0.69638 0.56303-0.69638 0.14446 0 0.25559 0.06667 0.36301 0.15928l0.15187-0.19632c-0.12224-0.11483-0.28892-0.21484-0.52599-0.21484-0.46302 0-0.86678 0.34449-0.86678 0.94827z"/>
    <path d="m44.106 52.784h0.30004v-0.47413l0.33708-0.39264 0.52599 0.86678h0.33338l-0.68527-1.0779 0.60378-0.72231h-0.33708l-0.76676 0.94827h-0.01111v-1.7854h-0.30004z"/>
   </g>
   <path d="m60.053 48.816h30.427v5.5563h-30.427z" fill="#2f3744" stroke="#7b8694"/>
   <g fill="#e8eaec" aria-label="Move">
    <path d="m71.344 52.784h0.28522v-1.3372c0-0.21484-0.02223-0.50377-0.03704-0.71861h0.01482l0.19262 0.54081 0.46672 1.2705h0.1778l0.46673-1.2705 0.19262-0.54081h0.01482c-0.01482 0.21484-0.04075 0.50377-0.04075 0.71861v1.3372h0.29263v-2.4299h-0.36301l-0.46672 1.3039-0.17039 0.49636h-0.01482l-0.1741-0.49636-0.47043-1.3039h-0.36671z"/>
    <path d="m73.869 51.888c0 0.59637 0.39264 0.94086 0.83344 0.94086 0.4408 0 0.83344-0.34449 0.83344-0.94086 0-0.60378-0.39264-0.94827-0.83344-0.94827-0.4408 0-0.83344 0.34449-0.83344 0.94827zm0.31486 0c0-0.41487 0.21114-0.69638 0.51858-0.69638 0.31115 0 0.51858 0.28152 0.51858 0.69638 0 0.41116-0.20743 0.68898-0.51858 0.68898-0.30745 0-0.51858-0.27781-0.51858-0.68898z"/>
    <path d="m76.388 52.784h0.3556l0.63712-1.8002h-0.30004l-0.34078 1.0224c-0.05186 0.1778-0.11113 0.3593-0.16298 0.5297h-0.01482c-0.055559-0.17039-0.11483-0.3519-0.16668-0.5297l-0.34078-1.0224h-0.31485z"/>
    <path d="m77.58 51.888c0 0.58896 0.38153 0.94086 0.86307 0.94086 0.24448 0 0.43709-0.0852 0.59267-0.18521l-0.10742-0.20002c-0.13335 0.0852-0.27781 0.14076-0.4482 0.14076-0.34449 0-0.57785-0.24448-0.60008-0.63341h1.215c0.0074-0.04445 0.01111-0.10372 0.01111-0.16669 0-0.51488-0.25929-0.84455-0.71861-0.84455-0.41116 0-0.80751 0.3593-0.80751 0.94827zm0.29633-0.13705c0.03704-0.36301 0.2667-0.57044 0.51858-0.57044 0.28152 0 0.4445 0.20373 0.4445 0.57044z"/>
   </g>
   <path d="m94.449 48.816h30.427v5.5563h-30.427z" fill="#2f3744" stroke="#7b8694"/>
  </g>
 </g>
 <g fill="#e8eaec" stroke-linecap="round" stroke-width=".26458">
  <g aria-label="Hold">
   <path d="m106.15 52.784h0.31115v-1.1446h1.1298v1.1446h0.30745v-2.4299h-0.30745v1.0186h-1.1298v-1.0186h-0.31115z"/>
   <path d="m108.39 51.888c0 0.59637 0.39264 0.94086 0.83344 0.94086 0.44079 0 0.83343-0.34449 0.83343-0.94086 0-0.60378-0.39264-0.94827-0.83343-0.94827-0.4408 0-0.83344 0.34449-0.83344 0.94827zm0.31485 0c0-0.41487 0.21114-0.69638 0.51859-0.69638 0.31115 0 0.51858 0.28152 0.51858 0.69638 0 0.41116-0.20743 0.68898-0.51858 0.68898-0.30745 0-0.51859-0.27781-0.51859-0.68898z"/>
   <path d="m110.54 52.421c0 0.263 0.0926 0.40746 0.32226 0.40746 0.0815 0 0.13335-0.01111 0.17409-0.02963l-0.0407-0.22966c-0.0333 0.0074-0.0482 0.0074-0.0667 0.0074-0.0444 0-0.0852-0.03704-0.0852-0.13335v-2.2966h-0.30374z"/>
   <path d="m111.35 51.888c0 0.60008 0.29263 0.94086 0.74454 0.94086 0.21113 0 0.40375-0.11853 0.54451-0.25559h0.0111l0.0259 0.21114h0.25188v-2.6374h-0.30744v0.69268l0.0148 0.30745c-0.15928-0.12965-0.29633-0.20743-0.50376-0.20743-0.41117 0-0.78158 0.36301-0.78158 0.94827zm0.31485-0.0037c0-0.41116 0.22966-0.68898 0.51859-0.68898 0.14816 0 0.28522 0.05186 0.43709 0.18891v0.94086c-0.14817 0.16669-0.29263 0.24818-0.45932 0.24818-0.31485 0-0.49636-0.25929-0.49636-0.68898z"/>
  </g>
  <g aria-label="Sensors">
   <path d="m8.1946 4.8445c0.21114 0.21855 0.50747 0.3593 0.84825 0.3593 0.51118 0 0.82973-0.30745 0.82973-0.69268 0-0.3593-0.21855-0.52599-0.50006-0.64823l-0.34819-0.14817c-0.18891-0.081492-0.40375-0.17039-0.40375-0.40375 0-0.21855 0.1815-0.3556 0.45561-0.3556 0.22225 0 0.40375 0.0889 0.55192 0.22966l0.16298-0.20003c-0.17039-0.1778-0.42598-0.30004-0.7149-0.30004-0.4408 0-0.76676 0.27411-0.76676 0.64453 0 0.3556 0.2667 0.5297 0.49265 0.626l0.34819 0.15187c0.22966 0.10372 0.40746 0.1815 0.40746 0.42968 0 0.23707-0.18891 0.39635-0.50747 0.39635-0.25559 0-0.49636-0.12224-0.67045-0.30374z"/>
   <path d="m10.177 4.2629c0 0.58896 0.38153 0.94086 0.86307 0.94086 0.24448 0 0.43709-0.085196 0.59267-0.18521l-0.10742-0.20003c-0.13335 0.085196-0.27781 0.14076-0.4482 0.14076-0.34449 0-0.57785-0.24448-0.60008-0.63341h1.215c0.0074-0.04445 0.01111-0.10372 0.01111-0.16669 0-0.51488-0.25929-0.84455-0.71861-0.84455-0.41116 0-0.80751 0.3593-0.80751 0.94827zm0.29633-0.13705c0.03704-0.36301 0.2667-0.57044 0.51858-0.57044 0.28152 0 0.4445 0.20373 0.4445 0.57044z"/>
   <path d="m12.148 5.1593h0.30374v-1.3039c0.1815-0.1815 0.30745-0.27781 0.49265-0.27781 0.23707 0 0.34078 0.14446 0.34078 0.48154v1.1001h0.30374v-1.1409c0-0.45932-0.17039-0.70379-0.54822-0.70379-0.24818 0-0.43339 0.13335-0.60378 0.30374h-0.011113l-0.02593-0.25929h-0.25188z"/>
   <path d="m13.974 4.9556c0.17039 0.14076 0.41487 0.24818 0.67045 0.24818 0.42598 0 0.65934-0.24448 0.65934-0.5371 0-0.34078-0.28893-0.4482-0.54822-0.54451-0.20373-0.077788-0.40005-0.14446-0.40005-0.31115 0-0.13705 0.10372-0.25929 0.32967-0.25929 0.15928 0 0.28893 0.066675 0.41116 0.15928l0.14446-0.19262c-0.13705-0.11113-0.33338-0.20373-0.55933-0.20373-0.38894 0-0.6186 0.22225-0.6186 0.51118 0 0.30374 0.28152 0.42598 0.5371 0.51858 0.19632 0.074083 0.41116 0.15558 0.41116 0.34078 0 0.15558-0.11853 0.28152-0.3556 0.28152-0.21484 0-0.37412-0.0889-0.5297-0.21484z"/>
   <path d="m15.596 4.2629c0 0.59637 0.39264 0.94086 0.83344 0.94086s0.83344-0.34449 0.83344-0.94086c0-0.60378-0.39264-0.94827-0.83344-0.94827s-0.83344 0.34449-0.83344 0.94827zm0.31485 0c0-0.41487 0.21114-0.69638 0.51858-0.69638 0.31115 0 0.51858 0.28152 0.51858 0.69638 0 0.41116-0.20743 0.68898-0.51858 0.68898-0.30745 0-0.51858-0.27781-0.51858-0.68898z"/>
   <path d="m17.741 5.1593h0.30374v-1.1557c0.12224-0.30374 0.30374-0.41487 0.45561-0.41487 0.07408 0 0.11483 0.011113 0.1741 0.029633l0.05927-0.2667c-0.05927-0.025929-0.11483-0.037042-0.19262-0.037042-0.20373 0-0.38894 0.14446-0.51118 0.37042h-0.01111l-0.025935-0.32597h-0.25188z"/>
   <path d="m18.792 4.9556c0.17039 0.14076 0.41487 0.24818 0.67046 0.24818 0.42598 0 0.65934-0.24448 0.65934-0.5371 0-0.34078-0.28892-0.4482-0.54822-0.54451-0.20373-0.077788-0.40005-0.14446-0.40005-0.31115 0-0.13705 0.10372-0.25929 0.32967-0.25929 0.15928 0 0.28892 0.066675 0.41116 0.15928l0.14446-0.19262c-0.13705-0.11113-0.33338-0.20373-0.55933-0.20373-0.38894 0-0.6186 0.22225-0.6186 0.51118 0 0.30374 0.28152 0.42598 0.5371 0.51858 0.19632 0.074083 0.41116 0.15558 0.41116 0.34078 0 0.15558-0.11853 0.28152-0.3556 0.28152-0.21484 0-0.37412-0.0889-0.5297-0.21484z"/>
  </g>
  <g aria-label="Analyzers">
   <path d="m6.1837 12.108 0.11853-0.37042c0.085196-0.2704 0.16298-0.5371 0.24077-0.81862h0.014817c0.077788 0.28152 0.15558 0.54822 0.24077 0.81862l0.11483 0.37042zm1.0409 0.98901h0.32597l-0.82233-2.4299h-0.34819l-0.82233 2.4299h0.31485l0.23336-0.74083h0.8853z"/>
   <path d="m7.851 13.097h0.30374v-1.3039c0.1815-0.1815 0.30745-0.27781 0.49265-0.27781 0.23707 0 0.34078 0.14446 0.34078 0.48154v1.1001h0.30374v-1.1409c0-0.45932-0.17039-0.70379-0.54822-0.70379-0.24818 0-0.43339 0.13335-0.60378 0.30374h-0.011112l-0.025929-0.25929h-0.25188z"/>
   <path d="m9.7878 12.63c0 0.32226 0.22595 0.51118 0.5297 0.51118 0.22225 0 0.42228-0.11853 0.59637-0.25929h0.0074l0.02593 0.21484h0.25188v-1.1038c0-0.4482-0.18521-0.74083-0.626-0.74083-0.28892 0-0.54081 0.12594-0.7075 0.23336l0.12224 0.21114c0.14076-0.09631 0.32597-0.19262 0.5371-0.19262 0.29263 0 0.37042 0.22225 0.37042 0.45191-0.76676 0.0852-1.1075 0.28152-1.1075 0.67416zm0.30004-0.022225c0-0.22966 0.20373-0.37782 0.80751-0.45191v0.50006c-0.1741 0.15558-0.31856 0.24077-0.49266 0.24077-0.1778 0-0.31485-0.0852-0.31485-0.28892z"/>
   <path d="m11.772 12.734c0 0.263 0.0926 0.40746 0.32226 0.40746 0.08149 0 0.13335-0.01111 0.1741-0.02963l-0.04075-0.22966c-0.03334 0.0074-0.04815 0.0074-0.06668 0.0074-0.04445 0-0.0852-0.03704-0.0852-0.13335v-2.2966h-0.30374z"/>
   <path d="m12.598 13.593-0.05927 0.24077c0.05927 0.02222 0.12965 0.03704 0.21114 0.03704 0.36301 0 0.54822-0.2704 0.67416-0.626l0.67786-1.9484h-0.29633l-0.32226 0.99642c-0.04815 0.15928-0.10001 0.34449-0.15187 0.50747h-0.01482c-0.05556-0.16669-0.11853-0.3519-0.1741-0.50747l-0.36671-0.99642h-0.31485l0.72231 1.8039-0.04075 0.13335c-0.07408 0.22225-0.20373 0.38523-0.40746 0.38523-0.04445 0-0.10001-0.01482-0.13705-0.02593z"/>
   <path d="m14.173 13.097h1.3631v-0.24818h-0.9779l0.94827-1.3891v-0.16298h-1.2298v0.24818h0.84455l-0.94827 1.3891z"/>
   <path d="m15.77 12.2c0 0.58896 0.38153 0.94086 0.86307 0.94086 0.24448 0 0.43709-0.08519 0.59267-0.18521l-0.10742-0.20002c-0.13335 0.0852-0.27781 0.14076-0.4482 0.14076-0.34449 0-0.57785-0.24448-0.60008-0.63341h1.215c0.0074-0.04445 0.01111-0.10372 0.01111-0.16669 0-0.51488-0.25929-0.84455-0.71861-0.84455-0.41116 0-0.80751 0.3593-0.80751 0.94827zm0.29633-0.13705c0.03704-0.36301 0.2667-0.57044 0.51858-0.57044 0.28152 0 0.4445 0.20373 0.4445 0.57044z"/>
   <path d="m17.741 13.097h0.30374v-1.1557c0.12224-0.30374 0.30374-0.41487 0.45561-0.41487 0.07408 0 0.11483 0.01111 0.1741 0.02963l0.05927-0.2667c-0.05927-0.02593-0.11483-0.03704-0.19262-0.03704-0.20373 0-0.38894 0.14446-0.51118 0.37042h-0.01111l-0.025934-0.32596h-0.25188z"/>
   <path d="m18.792 12.893c0.17039 0.14076 0.41487 0.24818 0.67046 0.24818 0.42598 0 0.65934-0.24448 0.65934-0.5371 0-0.34078-0.28892-0.4482-0.54822-0.54451-0.20373-0.07779-0.40005-0.14446-0.40005-0.31115 0-0.13706 0.10372-0.25929 0.32967-0.25929 0.15928 0 0.28892 0.06668 0.41116 0.15928l0.14446-0.19262c-0.13705-0.11112-0.33338-0.20373-0.55933-0.20373-0.38894 0-0.6186 0.22225-0.6186 0.51118 0 0.30374 0.28152 0.42598 0.5371 0.51858 0.19632 0.07408 0.41116 0.15558 0.41116 0.34078 0 0.15558-0.11853 0.28152-0.3556 0.28152-0.21484 0-0.37412-0.0889-0.5297-0.21484z"/>
  </g>
  <g aria-label="Memorizers">
   <path d="m2.5882 21.034h0.28522v-1.3372c0-0.21484-0.022225-0.50377-0.037042-0.71861h0.014817l0.19262 0.54081 0.46673 1.2705h0.1778l0.46673-1.2705 0.19262-0.54081h0.014817c-0.014817 0.21484-0.040746 0.50377-0.040746 0.71861v1.3372h0.29263v-2.4299h-0.36301l-0.46673 1.3039-0.17039 0.49636h-0.014817l-0.1741-0.49636-0.47043-1.3039h-0.36671z"/>
   <path d="m5.1131 20.138c0 0.58896 0.38153 0.94086 0.86307 0.94086 0.24448 0 0.43709-0.0852 0.59267-0.18521l-0.10742-0.20002c-0.13335 0.0852-0.27781 0.14076-0.4482 0.14076-0.34449 0-0.57785-0.24448-0.60008-0.63341h1.215c0.00741-0.04445 0.011113-0.10372 0.011113-0.16669 0-0.51488-0.25929-0.84455-0.71861-0.84455-0.41116 0-0.80751 0.3593-0.80751 0.94827zm0.29633-0.13705c0.037042-0.36301 0.2667-0.57044 0.51858-0.57044 0.28152 0 0.4445 0.20373 0.4445 0.57044z"/>
   <path d="m7.0841 21.034h0.30374v-1.3039c0.16669-0.18521 0.31856-0.27781 0.45191-0.27781 0.22966 0 0.33708 0.14446 0.33708 0.48154v1.1001h0.30374v-1.3039c0.16669-0.18521 0.31115-0.27781 0.45191-0.27781 0.22595 0 0.33338 0.14446 0.33338 0.48154v1.1001h0.30374v-1.1409c0-0.45932-0.1778-0.70379-0.54822-0.70379-0.21855 0-0.40375 0.14076-0.59267 0.34449-0.074083-0.21484-0.22225-0.34449-0.49636-0.34449-0.21484 0-0.40375 0.13335-0.55933 0.30374h-0.011112l-0.025929-0.25929h-0.25188z"/>
   <path d="m10.018 20.138c0 0.59637 0.39264 0.94086 0.83344 0.94086s0.83344-0.34449 0.83344-0.94086c0-0.60378-0.39264-0.94827-0.83344-0.94827s-0.83344 0.34449-0.83344 0.94827zm0.31485 0c0-0.41487 0.21114-0.69638 0.51858-0.69638 0.31115 0 0.51858 0.28152 0.51858 0.69638 0 0.41116-0.20743 0.68898-0.51858 0.68898-0.30745 0-0.51858-0.27781-0.51858-0.68898z"/>
   <path d="m12.163 21.034h0.30374v-1.1557c0.12224-0.30374 0.30374-0.41487 0.45561-0.41487 0.07408 0 0.11483 0.01111 0.1741 0.02963l0.05927-0.2667c-0.05927-0.02593-0.11483-0.03704-0.19262-0.03704-0.20373 0-0.38894 0.14446-0.51118 0.37042h-0.01111l-0.02593-0.32597h-0.25188z"/>
   <path d="m13.606 18.864c0.11853 0 0.21114-0.08149 0.21114-0.19632 0-0.11853-0.0926-0.19632-0.21114-0.19632-0.11853 0-0.21114 0.07779-0.21114 0.19632 0 0.11483 0.0926 0.19632 0.21114 0.19632zm-0.15558 2.1706h0.30374v-1.8002h-0.30374z"/>
   <path d="m14.173 21.034h1.3631v-0.24818h-0.9779l0.94827-1.3891v-0.16298h-1.2298v0.24818h0.84455l-0.94827 1.3891z"/>
   <path d="m15.77 20.138c0 0.58896 0.38153 0.94086 0.86307 0.94086 0.24448 0 0.43709-0.0852 0.59267-0.18521l-0.10742-0.20002c-0.13335 0.0852-0.27781 0.14076-0.4482 0.14076-0.34449 0-0.57785-0.24448-0.60008-0.63341h1.215c0.0074-0.04445 0.01111-0.10372 0.01111-0.16669 0-0.51488-0.25929-0.84455-0.71861-0.84455-0.41116 0-0.80751 0.3593-0.80751 0.94827zm0.29633-0.13705c0.03704-0.36301 0.2667-0.57044 0.51858-0.57044 0.28152 0 0.4445 0.20373 0.4445 0.57044z"/>
   <path d="m17.741 21.034h0.30374v-1.1557c0.12224-0.30374 0.30374-0.41487 0.45561-0.41487 0.07408 0 0.11483 0.01111 0.1741 0.02963l0.05927-0.2667c-0.05927-0.02593-0.11483-0.03704-0.19262-0.03704-0.20373 0-0.38894 0.14446-0.51118 0.37042h-0.01111l-0.025935-0.32596h-0.25188z"/>
   <path d="m18.792 20.831c0.17039 0.14076 0.41487 0.24818 0.67046 0.24818 0.42598 0 0.65934-0.24448 0.65934-0.5371 0-0.34078-0.28892-0.4482-0.54822-0.54451-0.20373-0.07779-0.40005-0.14446-0.40005-0.31115 0-0.13705 0.10372-0.25929 0.32967-0.25929 0.15928 0 0.28892 0.06668 0.41116 0.15928l0.14446-0.19262c-0.13705-0.11112-0.33338-0.20373-0.55933-0.20373-0.38894 0-0.6186 0.22225-0.6186 0.51118 0 0.30374 0.28152 0.42598 0.5371 0.51858 0.19632 0.07408 0.41116 0.15558 0.41116 0.34078 0 0.15558-0.11853 0.28152-0.3556 0.28152-0.21484 0-0.37412-0.0889-0.5297-0.21484z"/>
  </g>
  <g aria-label="Deciders">
   <path d="m7.1677 28.972h0.6223c0.73343 0 1.1335-0.45191 1.1335-1.2261 0-0.77047-0.40005-1.2039-1.1483-1.2039h-0.60748zm0.31115-0.25188v-1.9262h0.27411c0.57044 0 0.85196 0.34078 0.85196 0.95197 0 0.61489-0.28152 0.9742-0.85196 0.9742z"/>
   <path d="m9.2803 28.075c0 0.58896 0.38153 0.94086 0.86307 0.94086 0.24448 0 0.43709-0.0852 0.59267-0.18521l-0.10742-0.20002c-0.13335 0.0852-0.27781 0.14076-0.4482 0.14076-0.34449 0-0.57785-0.24448-0.60008-0.63341h1.215c0.0074-0.04445 0.01111-0.10372 0.01111-0.16669 0-0.51488-0.25929-0.84455-0.71861-0.84455-0.41116 0-0.80751 0.3593-0.80751 0.94827zm0.29633-0.13705c0.037042-0.36301 0.2667-0.57044 0.51858-0.57044 0.28152 0 0.4445 0.20373 0.4445 0.57044z"/>
   <path d="m11.118 28.075c0 0.59637 0.36671 0.94086 0.84455 0.94086 0.21484 0 0.42228-0.0889 0.58526-0.23336l-0.13706-0.20003c-0.10742 0.09631-0.25188 0.1815-0.42228 0.1815-0.32967 0-0.55563-0.27781-0.55563-0.68898 0-0.41487 0.23707-0.69638 0.56303-0.69638 0.14446 0 0.25559 0.06668 0.36301 0.15928l0.15187-0.19632c-0.12224-0.11483-0.28892-0.21484-0.52599-0.21484-0.46302 0-0.86678 0.34449-0.86678 0.94827z"/>
   <path d="m13.093 26.801c0.11853 0 0.21114-0.08149 0.21114-0.19632 0-0.11853-0.09261-0.19632-0.21114-0.19632-0.11853 0-0.21114 0.07779-0.21114 0.19632 0 0.11483 0.0926 0.19632 0.21114 0.19632zm-0.15558 2.1706h0.30374v-1.8002h-0.30374z"/>
   <path d="m13.719 28.075c0 0.60008 0.29263 0.94086 0.74454 0.94086 0.21114 0 0.40375-0.11853 0.54451-0.25559h0.01111l0.02593 0.21114h0.25188v-2.6374h-0.30745v0.69268l0.01482 0.30745c-0.15928-0.12965-0.29633-0.20743-0.50377-0.20743-0.41116 0-0.78158 0.36301-0.78158 0.94827zm0.31485-0.0037c0-0.41116 0.22966-0.68898 0.51858-0.68898 0.14817 0 0.28522 0.05186 0.43709 0.18891v0.94086c-0.14817 0.16669-0.29263 0.24818-0.45932 0.24818-0.31486 0-0.49636-0.25929-0.49636-0.68898z"/>
   <path d="m15.77 28.075c0 0.58896 0.38153 0.94086 0.86307 0.94086 0.24448 0 0.43709-0.0852 0.59267-0.18521l-0.10742-0.20002c-0.13335 0.0852-0.27781 0.14076-0.4482 0.14076-0.34449 0-0.57785-0.24448-0.60008-0.63341h1.215c0.0074-0.04445 0.01111-0.10372 0.01111-0.16669 0-0.51488-0.25929-0.84455-0.71861-0.84455-0.41116 0-0.80751 0.3593-0.80751 0.94827zm0.29633-0.13705c0.03704-0.36301 0.2667-0.57044 0.51858-0.57044 0.28152 0 0.4445 0.20373 0.4445 0.57044z"/>
   <path d="m17.741 28.972h0.30374v-1.1557c0.12224-0.30374 0.30374-0.41487 0.45561-0.41487 0.07408 0 0.11483 0.01111 0.1741 0.02963l0.05927-0.2667c-0.05927-0.02593-0.11483-0.03704-0.19262-0.03704-0.20373 0-0.38894 0.14446-0.51118 0.37042h-0.01111l-0.025934-0.32596h-0.25188z"/>
   <path d="m18.792 28.768c0.17039 0.14076 0.41487 0.24818 0.67046 0.24818 0.42598 0 0.65934-0.24448 0.65934-0.5371 0-0.34078-0.28892-0.4482-0.54822-0.54451-0.20373-0.07779-0.40005-0.14446-0.40005-0.31115 0-0.13705 0.10372-0.25929 0.32967-0.25929 0.15928 0 0.28892 0.06668 0.41116 0.15928l0.14446-0.19262c-0.13705-0.11112-0.33338-0.20373-0.55933-0.20373-0.38894 0-0.6186 0.22225-0.6186 0.51118 0 0.30374 0.28152 0.42598 0.5371 0.51858 0.19632 0.07408 0.41116 0.15558 0.41116 0.34078 0 0.15558-0.11853 0.28152-0.3556 0.28152-0.21484 0-0.37412-0.0889-0.5297-0.21484z"/>
  </g>
  <g aria-label="Executors">
   <path d="m5.4748 36.909h1.4372v-0.263h-1.1261v-0.88159h0.91863v-0.263h-0.91863v-0.76306h1.089v-0.25929h-1.4002z"/>
   <path d="m7.1361 36.909h0.31856l0.24448-0.41857c0.059267-0.11112 0.11853-0.21855 0.1815-0.32226h0.014817c0.066675 0.10372 0.13335 0.21484 0.19632 0.32226l0.263 0.41857h0.32967l-0.58526-0.90752 0.54451-0.8927h-0.31856l-0.21855 0.39635c-0.055563 0.09631-0.11113 0.20002-0.16298 0.30004h-0.014817c-0.062971-0.10001-0.12224-0.20373-0.1778-0.30004l-0.24077-0.39635h-0.32967l0.54451 0.85937z"/>
   <path d="m8.839 36.013c0 0.58896 0.38153 0.94086 0.86307 0.94086 0.24448 0 0.43709-0.0852 0.59267-0.18521l-0.10742-0.20002c-0.13335 0.0852-0.27781 0.14076-0.4482 0.14076-0.34449 0-0.57785-0.24448-0.60008-0.63341h1.215c0.0074-0.04445 0.01111-0.10372 0.01111-0.16669 0-0.51488-0.25929-0.84455-0.71861-0.84455-0.41116 0-0.80751 0.3593-0.80751 0.94827zm0.29633-0.13705c0.037042-0.36301 0.2667-0.57044 0.51858-0.57044 0.28152 0 0.4445 0.20373 0.4445 0.57044z"/>
   <path d="m10.677 36.013c0 0.59637 0.36671 0.94086 0.84455 0.94086 0.21484 0 0.42228-0.0889 0.58526-0.23336l-0.13706-0.20002c-0.10742 0.09631-0.25188 0.1815-0.42228 0.1815-0.32967 0-0.55562-0.27781-0.55562-0.68898 0-0.41487 0.23707-0.69638 0.56303-0.69638 0.14446 0 0.25559 0.06667 0.36301 0.15928l0.15187-0.19632c-0.12224-0.11483-0.28892-0.21484-0.52599-0.21484-0.46302 0-0.86678 0.34449-0.86678 0.94827z"/>
   <path d="m12.47 36.25c0 0.45932 0.17039 0.70379 0.55192 0.70379 0.24818 0 0.42598-0.12965 0.59267-0.32597h0.01111l0.02593 0.28152h0.25188v-1.8002h-0.30374v1.2779c-0.17039 0.21114-0.30004 0.30374-0.48525 0.30374-0.23707 0-0.33708-0.14446-0.33708-0.48154v-1.1001h-0.30745z"/>
   <path d="m14.566 36.354c0 0.3556 0.12965 0.60008 0.51488 0.60008 0.11113 0 0.23336-0.03334 0.33338-0.06667l-0.05927-0.22966c-0.05927 0.02222-0.14076 0.04815-0.20373 0.04815-0.20743 0-0.27781-0.12594-0.27781-0.34819v-1.0001h0.48525v-0.24818h-0.48525v-0.50377h-0.25559l-0.03704 0.50377-0.28152 0.01852v0.22966h0.2667z"/>
   <path d="m15.596 36.013c0 0.59637 0.39264 0.94086 0.83344 0.94086s0.83344-0.34449 0.83344-0.94086c0-0.60378-0.39264-0.94827-0.83344-0.94827s-0.83344 0.34449-0.83344 0.94827zm0.31485 0c0-0.41487 0.21114-0.69638 0.51858-0.69638 0.31115 0 0.51858 0.28152 0.51858 0.69638 0 0.41116-0.20743 0.68898-0.51858 0.68898-0.30745 0-0.51858-0.27781-0.51858-0.68898z"/>
   <path d="m17.741 36.909h0.30374v-1.1557c0.12224-0.30374 0.30374-0.41487 0.45561-0.41487 0.07408 0 0.11483 0.01111 0.1741 0.02963l0.05927-0.2667c-0.05927-0.02593-0.11483-0.03704-0.19262-0.03704-0.20373 0-0.38894 0.14446-0.51118 0.37042h-0.01111l-0.025935-0.32596h-0.25188z"/>
   <path d="m18.792 36.706c0.17039 0.14076 0.41487 0.24818 0.67046 0.24818 0.42598 0 0.65934-0.24448 0.65934-0.5371 0-0.34078-0.28892-0.4482-0.54822-0.54451-0.20373-0.07779-0.40005-0.14446-0.40005-0.31115 0-0.13705 0.10372-0.25929 0.32967-0.25929 0.15928 0 0.28892 0.06668 0.41116 0.15928l0.14446-0.19262c-0.13705-0.11112-0.33338-0.20373-0.55933-0.20373-0.38894 0-0.6186 0.22225-0.6186 0.51118 0 0.30374 0.28152 0.42598 0.5371 0.51858 0.19632 0.07408 0.41116 0.15558 0.41116 0.34078 0 0.15558-0.11853 0.28152-0.3556 0.28152-0.21484 0-0.37412-0.0889-0.5297-0.21484z"/>
  </g>
  <g aria-label="Coordinators">
   <path d="m0.13229 43.632c0 0.79269 0.45561 1.2594 1.0668 1.2594 0.30745 0 0.54822-0.12965 0.73713-0.3519l-0.1741-0.18891c-0.15558 0.1741-0.32597 0.2704-0.55563 0.2704-0.46302 0-0.75565-0.38523-0.75565-0.99642 0-0.60378 0.30745-0.9816 0.77047-0.9816 0.20003 0 0.3556 0.0889 0.48525 0.22596l0.1741-0.19632c-0.14446-0.15928-0.37412-0.30004-0.66305-0.30004-0.6223 0-1.0853 0.47784-1.0853 1.2594z"/>
   <path d="m2.2192 43.95c0 0.59637 0.39264 0.94086 0.83344 0.94086 0.4408 0 0.83344-0.34449 0.83344-0.94086 0-0.60378-0.39264-0.94827-0.83344-0.94827-0.4408 0-0.83344 0.34449-0.83344 0.94827zm0.31485 0c0-0.41487 0.21114-0.69638 0.51858-0.69638 0.31115 0 0.51858 0.28152 0.51858 0.69638 0 0.41116-0.20743 0.68898-0.51858 0.68898-0.30745 0-0.51858-0.27781-0.51858-0.68898z"/>
   <path d="m4.2305 43.95c0 0.59637 0.39264 0.94086 0.83344 0.94086s0.83344-0.34449 0.83344-0.94086c0-0.60378-0.39264-0.94827-0.83344-0.94827s-0.83344 0.34449-0.83344 0.94827zm0.31485 0c0-0.41487 0.21114-0.69638 0.51858-0.69638 0.31115 0 0.51858 0.28152 0.51858 0.69638 0 0.41116-0.20743 0.68898-0.51858 0.68898-0.30745 0-0.51858-0.27781-0.51858-0.68898z"/>
   <path d="m6.3751 44.847h0.30374v-1.1557c0.12224-0.30374 0.30374-0.41487 0.45561-0.41487 0.074083 0 0.11483 0.01111 0.1741 0.02963l0.059267-0.2667c-0.059267-0.02593-0.11483-0.03704-0.19262-0.03704-0.20373 0-0.38894 0.14446-0.51118 0.37042h-0.011113l-0.025929-0.32596h-0.25188z"/>
   <path d="m7.4971 43.95c0 0.60008 0.29263 0.94086 0.74454 0.94086 0.21114 0 0.40375-0.11853 0.54451-0.25559h0.011113l0.025929 0.21114h0.25188v-2.6374h-0.30745v0.69268l0.014817 0.30745c-0.15928-0.12965-0.29633-0.20743-0.50377-0.20743-0.41116 0-0.78158 0.36301-0.78158 0.94827zm0.31485-0.0037c0-0.41116 0.22966-0.68898 0.51858-0.68898 0.14817 0 0.28522 0.05186 0.43709 0.18891v0.94086c-0.14817 0.16669-0.29263 0.24818-0.45932 0.24818-0.31485 0-0.49636-0.25929-0.49636-0.68898z"/>
   <path d="m9.8369 42.676c0.11853 0 0.21114-0.08149 0.21114-0.19632 0-0.11853-0.092604-0.19632-0.21114-0.19632-0.11853 0-0.21114 0.07779-0.21114 0.19632 0 0.11483 0.092604 0.19632 0.21114 0.19632zm-0.15558 2.1706h0.30374v-1.8002h-0.30374z"/>
   <path d="m10.593 44.847h0.30374v-1.3039c0.1815-0.1815 0.30745-0.27781 0.49266-0.27781 0.23707 0 0.34078 0.14446 0.34078 0.48154v1.1001h0.30374v-1.1409c0-0.45932-0.17039-0.70379-0.54822-0.70379-0.24818 0-0.43339 0.13335-0.60378 0.30374h-0.01111l-0.02593-0.25929h-0.25188z"/>
   <path d="m12.53 44.38c0 0.32226 0.22595 0.51118 0.5297 0.51118 0.22225 0 0.42228-0.11853 0.59637-0.25929h0.0074l0.02593 0.21484h0.25188v-1.1038c0-0.4482-0.18521-0.74083-0.626-0.74083-0.28892 0-0.54081 0.12594-0.7075 0.23336l0.12224 0.21114c0.14076-0.09631 0.32597-0.19262 0.5371-0.19262 0.29263 0 0.37042 0.22225 0.37042 0.45191-0.76676 0.0852-1.1075 0.28152-1.1075 0.67416zm0.30004-0.02222c0-0.22966 0.20373-0.37782 0.80751-0.45191v0.50006c-0.1741 0.15558-0.31856 0.24077-0.49266 0.24077-0.1778 0-0.31485-0.0852-0.31485-0.28892z"/>
   <path d="m14.566 44.291c0 0.3556 0.12965 0.60008 0.51488 0.60008 0.11112 0 0.23336-0.03334 0.33338-0.06667l-0.05927-0.22966c-0.05927 0.02222-0.14076 0.04815-0.20373 0.04815-0.20743 0-0.27781-0.12594-0.27781-0.34819v-1.0001h0.48525v-0.24818h-0.48525v-0.50377h-0.25559l-0.03704 0.50377-0.28152 0.01852v0.22966h0.2667z"/>
   <path d="m15.596 43.95c0 0.59637 0.39264 0.94086 0.83344 0.94086s0.83344-0.34449 0.83344-0.94086c0-0.60378-0.39264-0.94827-0.83344-0.94827s-0.83344 0.34449-0.83344 0.94827zm0.31485 0c0-0.41487 0.21114-0.69638 0.51858-0.69638 0.31115 0 0.51858 0.28152 0.51858 0.69638 0 0.41116-0.20743 0.68898-0.51858 0.68898-0.30745 0-0.51858-0.27781-0.51858-0.68898z"/>
   <path d="m17.741 44.847h0.30374v-1.1557c0.12224-0.30374 0.30374-0.41487 0.45561-0.41487 0.07408 0 0.11483 0.01111 0.1741 0.02963l0.05927-0.2667c-0.05927-0.02593-0.11483-0.03704-0.19262-0.03704-0.20373 0-0.38894 0.14446-0.51118 0.37042h-0.01111l-0.02593-0.32597h-0.25188z"/>
   <path d="m18.792 44.643c0.17039 0.14076 0.41487 0.24818 0.67046 0.24818 0.42598 0 0.65934-0.24448 0.65934-0.5371 0-0.34078-0.28892-0.4482-0.54822-0.54451-0.20373-0.07779-0.40005-0.14446-0.40005-0.31115 0-0.13705 0.10372-0.25929 0.32967-0.25929 0.15928 0 0.28892 0.06668 0.41116 0.15928l0.14446-0.19262c-0.13706-0.11112-0.33338-0.20373-0.55933-0.20373-0.38894 0-0.6186 0.22225-0.6186 0.51118 0 0.30374 0.28152 0.42598 0.5371 0.51858 0.19632 0.07408 0.41116 0.15558 0.41116 0.34078 0 0.15558-0.11853 0.28152-0.3556 0.28152-0.21484 0-0.37412-0.0889-0.5297-0.21484z"/>
  </g>
  <g aria-label="Actuators">
   <path d="m6.0173 51.795 0.11853-0.37042c0.085196-0.2704 0.16298-0.5371 0.24077-0.81862h0.014817c0.077788 0.28152 0.15558 0.54822 0.24077 0.81862l0.11483 0.37042zm1.0409 0.98901h0.32597l-0.82233-2.4299h-0.34819l-0.82233 2.4299h0.31485l0.23336-0.74083h0.8853z"/>
   <path d="m7.5512 51.888c0 0.59637 0.36671 0.94086 0.84455 0.94086 0.21484 0 0.42228-0.0889 0.58526-0.23336l-0.13705-0.20002c-0.10742 0.09631-0.25188 0.1815-0.42228 0.1815-0.32967 0-0.55563-0.27781-0.55563-0.68898 0-0.41487 0.23707-0.69638 0.56303-0.69638 0.14446 0 0.25559 0.06667 0.36301 0.15928l0.15187-0.19632c-0.12224-0.11483-0.28893-0.21484-0.52599-0.21484-0.46302 0-0.86678 0.34449-0.86678 0.94827z"/>
   <path d="m9.4221 52.229c0 0.3556 0.12965 0.60008 0.51488 0.60008 0.11112 0 0.23336-0.03334 0.33337-0.06667l-0.05927-0.22966c-0.05927 0.02222-0.14076 0.04815-0.20373 0.04815-0.20743 0-0.27781-0.12594-0.27781-0.34819v-1.0001h0.48525v-0.24818h-0.48525v-0.50377h-0.25559l-0.037042 0.50377-0.28152 0.01852v0.22966h0.2667z"/>
   <path d="m10.574 52.125c0 0.45932 0.17039 0.70379 0.55192 0.70379 0.24818 0 0.42598-0.12965 0.59267-0.32597h0.01111l0.02593 0.28152h0.25188v-1.8002h-0.30374v1.2779c-0.17039 0.21114-0.30004 0.30374-0.48525 0.30374-0.23707 0-0.33708-0.14446-0.33708-0.48154v-1.1001h-0.30745z"/>
   <path d="m12.53 52.318c0 0.32226 0.22596 0.51118 0.5297 0.51118 0.22225 0 0.42228-0.11853 0.59637-0.25929h0.0074l0.02593 0.21484h0.25188v-1.1038c0-0.4482-0.18521-0.74083-0.626-0.74083-0.28893 0-0.54081 0.12594-0.7075 0.23336l0.12224 0.21114c0.14076-0.09631 0.32597-0.19262 0.5371-0.19262 0.29263 0 0.37042 0.22225 0.37042 0.45191-0.76676 0.0852-1.1075 0.28152-1.1075 0.67416zm0.30004-0.02222c0-0.22966 0.20373-0.37782 0.80751-0.45191v0.50006c-0.1741 0.15558-0.31856 0.24077-0.49265 0.24077-0.1778 0-0.31486-0.0852-0.31486-0.28892z"/>
   <path d="m14.566 52.229c0 0.3556 0.12965 0.60008 0.51488 0.60008 0.11112 0 0.23336-0.03334 0.33338-0.06667l-0.05927-0.22966c-0.05927 0.02222-0.14076 0.04815-0.20373 0.04815-0.20743 0-0.27781-0.12594-0.27781-0.34819v-1.0001h0.48525v-0.24818h-0.48525v-0.50377h-0.25559l-0.03704 0.50377-0.28152 0.01852v0.22966h0.2667z"/>
   <path d="m15.596 51.888c0 0.59637 0.39264 0.94086 0.83344 0.94086 0.4408 0 0.83344-0.34449 0.83344-0.94086 0-0.60378-0.39264-0.94827-0.83344-0.94827-0.4408 0-0.83344 0.34449-0.83344 0.94827zm0.31486 0c0-0.41487 0.21114-0.69638 0.51858-0.69638 0.31115 0 0.51858 0.28152 0.51858 0.69638 0 0.41116-0.20743 0.68898-0.51858 0.68898-0.30745 0-0.51858-0.27781-0.51858-0.68898z"/>
   <path d="m17.741 52.784h0.30374v-1.1557c0.12224-0.30374 0.30374-0.41487 0.45561-0.41487 0.07408 0 0.11483 0.01111 0.1741 0.02963l0.05927-0.2667c-0.05927-0.02593-0.11483-0.03704-0.19262-0.03704-0.20373 0-0.38894 0.14446-0.51118 0.37042h-0.01111l-0.02593-0.32597h-0.25188z"/>
   <path d="m18.792 52.581c0.17039 0.14076 0.41487 0.24818 0.67046 0.24818 0.42598 0 0.65934-0.24448 0.65934-0.5371 0-0.34078-0.28892-0.4482-0.54822-0.54451-0.20373-0.07779-0.40005-0.14446-0.40005-0.31115 0-0.13705 0.10372-0.25929 0.32967-0.25929 0.15928 0 0.28893 0.06668 0.41116 0.15928l0.14446-0.19262c-0.13705-0.11112-0.33338-0.20373-0.55933-0.20373-0.38894 0-0.6186 0.22225-0.6186 0.51118 0 0.30374 0.28152 0.42598 0.5371 0.51858 0.19632 0.07408 0.41116 0.15558 0.41116 0.34078 0 0.15558-0.11853 0.28152-0.3556 0.28152-0.21484 0-0.37412-0.0889-0.5297-0.21484z"/>
  </g>
 </g>
</svg>
