<?xml version="1.0" encoding="UTF-8"?>
<svg width="176.08mm" height="13.776mm" version="1.1" viewBox="0 0 176.08 13.776" xmlns="http://www.w3.org/2000/svg" xmlns:cc="http://creativecommons.org/ns#" xmlns:dc="http://purl.org/dc/elements/1.1/" xmlns:rdf="http://www.w3.org/1999/02/22-rdf-syntax-ns#">
 <metadata>
  <rdf:RDF>
   <cc:Work rdf:about="">
    <dc:format>image/svg+xml</dc:format>
    <dc:type rdf:resource="http://purl.org/dc/dcmitype/StillImage"/>
    <dc:title/>
   </cc:Work>
  </rdf:RDF>
 </metadata>
 <g fill="#a6aeb8">
  <path d="m6.8792 9.1985h-6.35v2.6458h3.7042z"/>
  <path d="m8.2021 9.1985-2.6458 2.6458h2.6458l2.6458-2.6458z"/>
  <path d="m12.171 9.1985-2.6458 2.6458h2.6458l2.6458-2.6458z"/>
  <path d="m36.512 9.1985-2.6458 2.6458h2.6458l2.6458-2.6458z"/>
  <path d="m32.544 9.1985-2.6458 2.6458h2.6458l2.6458-2.6458z"/>
 </g>
 <g>
  <path d="m12.435 7.611v4.699l1.4883 1.3335h19.149v-4.699l-1.4883-1.3335z" fill="#2f3744" stroke="#7b8694" stroke-linecap="round" stroke-width=".26458"/>
  <g fill="#e8eaec" stroke-linecap="round" stroke-width=".26458" aria-label="Sensors">
   <path d="m16.854 11.451c0.21114 0.21855 0.50747 0.3593 0.84825 0.3593 0.51118 0 0.82974-0.30745 0.82974-0.69268 0-0.3593-0.21855-0.52599-0.50006-0.64823l-0.34819-0.14817c-0.18891-0.081492-0.40376-0.17039-0.40376-0.40375 0-0.21855 0.1815-0.3556 0.45561-0.3556 0.22225 0 0.40376 0.0889 0.55192 0.22966l0.16298-0.20003c-0.17039-0.1778-0.42598-0.30004-0.7149-0.30004-0.4408 0-0.76676 0.27411-0.76676 0.64453 0 0.3556 0.2667 0.5297 0.49265 0.626l0.34819 0.15187c0.22966 0.10372 0.40746 0.1815 0.40746 0.42968 0 0.23707-0.18891 0.39635-0.50747 0.39635-0.25559 0-0.49636-0.12224-0.67046-0.30374z"/>
   <path d="m18.836 10.869c0 0.58896 0.38153 0.94086 0.86307 0.94086 0.24448 0 0.43709-0.0852 0.59267-0.18521l-0.10742-0.20002c-0.13335 0.0852-0.27781 0.14076-0.4482 0.14076-0.34449 0-0.57785-0.24448-0.60008-0.63341h1.215c0.0074-0.04445 0.01111-0.10372 0.01111-0.16669 0-0.51488-0.25929-0.84455-0.71861-0.84455-0.41116 0-0.80751 0.3593-0.80751 0.94827zm0.29633-0.13705c0.03704-0.36301 0.2667-0.57044 0.51858-0.57044 0.28152 0 0.4445 0.20373 0.4445 0.57044z"/>
   <path d="m20.807 11.765h0.30374v-1.3039c0.1815-0.1815 0.30745-0.27781 0.49265-0.27781 0.23707 0 0.34078 0.14446 0.34078 0.48154v1.1001h0.30374v-1.1409c0-0.45932-0.17039-0.70379-0.54822-0.70379-0.24818 0-0.43339 0.13335-0.60378 0.30374h-0.011112l-0.02593-0.25929h-0.25188z"/>
   <path d="m22.633 11.562c0.17039 0.14076 0.41487 0.24818 0.67046 0.24818 0.42598 0 0.65934-0.24448 0.65934-0.5371 0-0.34078-0.28892-0.4482-0.54822-0.54451-0.20373-0.07779-0.40005-0.14446-0.40005-0.31115 0-0.13705 0.10372-0.25929 0.32967-0.25929 0.15928 0 0.28893 0.06668 0.41116 0.15928l0.14446-0.19262c-0.13705-0.11112-0.33338-0.20373-0.55933-0.20373-0.38894 0-0.6186 0.22225-0.6186 0.51118 0 0.30374 0.28152 0.42598 0.5371 0.51858 0.19632 0.07408 0.41116 0.15558 0.41116 0.34078 0 0.15558-0.11853 0.28152-0.3556 0.28152-0.21484 0-0.37412-0.0889-0.5297-0.21484z"/>
   <path d="m24.255 10.869c0 0.59637 0.39264 0.94086 0.83344 0.94086s0.83344-0.34449 0.83344-0.94086c0-0.60378-0.39264-0.94827-0.83344-0.94827s-0.83344 0.34449-0.83344 0.94827zm0.31485 0c0-0.41487 0.21114-0.69638 0.51858-0.69638 0.31115 0 0.51858 0.28152 0.51858 0.69638 0 0.41116-0.20743 0.68898-0.51858 0.68898-0.30745 0-0.51858-0.27781-0.51858-0.68898z"/>
   <path d="m26.4 11.765h0.30374v-1.1557c0.12224-0.30374 0.30374-0.41487 0.45561-0.41487 0.07408 0 0.11483 0.01111 0.1741 0.02963l0.05927-0.2667c-0.05927-0.025929-0.11483-0.037042-0.19262-0.037042-0.20373 0-0.38894 0.14446-0.51118 0.37042h-0.01111l-0.02593-0.32597h-0.25188z"/>
   <path d="m27.451 11.562c0.17039 0.14076 0.41487 0.24818 0.67046 0.24818 0.42598 0 0.65934-0.24448 0.65934-0.5371 0-0.34078-0.28892-0.4482-0.54822-0.54451-0.20373-0.07779-0.40005-0.14446-0.40005-0.31115 0-0.13705 0.10372-0.25929 0.32967-0.25929 0.15928 0 0.28892 0.06668 0.41116 0.15928l0.14446-0.19262c-0.13706-0.11112-0.33338-0.20373-0.55933-0.20373-0.38894 0-0.6186 0.22225-0.6186 0.51118 0 0.30374 0.28152 0.42598 0.5371 0.51858 0.19632 0.07408 0.41116 0.15558 0.41116 0.34078 0 0.15558-0.11853 0.28152-0.3556 0.28152-0.21484 0-0.37412-0.0889-0.5297-0.21484z"/>
  </g>
  <path d="m60.325 9.1985-2.6458 2.6458h2.6458l2.6458-2.6458z" fill="#a6aeb8"/>
  <path d="m56.356 9.1985-2.6458 2.6458h2.6458l2.6458-2.6458z" fill="#a6aeb8"/>
  <path d="m36.248 7.611v4.699l1.4883 1.3335h19.149v-4.699l-1.4883-1.3335z" fill="#2f3744" stroke="#7b8694" stroke-linecap="round" stroke-width=".26458"/>
  <g fill="#e8eaec" stroke-linecap="round" stroke-width=".26458" aria-label="Analyzers">
   <path d="m39.9 10.776 0.11853-0.37042c0.0852-0.2704 0.16298-0.5371 0.24077-0.81862h0.01482c0.07779 0.28152 0.15558 0.54822 0.24077 0.81862l0.11483 0.37042zm1.0409 0.98901h0.32597l-0.82232-2.4299h-0.34819l-0.82233 2.4299h0.31485l0.23336-0.74083h0.8853z"/>
   <path d="m41.567 11.765h0.30374v-1.3039c0.1815-0.1815 0.30745-0.27781 0.49266-0.27781 0.23707 0 0.34078 0.14446 0.34078 0.48154v1.1001h0.30374v-1.1409c0-0.45932-0.17039-0.70379-0.54822-0.70379-0.24818 0-0.43339 0.13335-0.60378 0.30374h-0.01111l-0.02593-0.25929h-0.25188z"/>
   <path d="m43.504 11.299c0 0.32226 0.22595 0.51118 0.5297 0.51118 0.22225 0 0.42228-0.11853 0.59637-0.25929h0.0074l0.02593 0.21484h0.25188v-1.1038c0-0.4482-0.18521-0.74083-0.626-0.74083-0.28893 0-0.54081 0.12594-0.7075 0.23336l0.12224 0.21114c0.14076-0.09631 0.32597-0.19262 0.5371-0.19262 0.29263 0 0.37042 0.22225 0.37042 0.45191-0.76676 0.0852-1.1075 0.28152-1.1075 0.67416zm0.30004-0.02222c0-0.22966 0.20373-0.37782 0.80751-0.45191v0.50006c-0.1741 0.15558-0.31856 0.24077-0.49265 0.24077-0.1778 0-0.31486-0.0852-0.31486-0.28892z"/>
   <path d="m45.488 11.402c0 0.263 0.0926 0.40746 0.32226 0.40746 0.08149 0 0.13335-0.01111 0.1741-0.02963l-0.04075-0.22966c-0.03334 0.0074-0.04816 0.0074-0.06668 0.0074-0.04445 0-0.08519-0.03704-0.08519-0.13335v-2.2966h-0.30374z"/>
   <path d="m46.314 12.262-0.05927 0.24077c0.05927 0.02223 0.12965 0.03704 0.21114 0.03704 0.36301 0 0.54822-0.2704 0.67416-0.626l0.67787-1.9484h-0.29633l-0.32226 0.99642c-0.04815 0.15928-0.10001 0.34449-0.15187 0.50747h-0.01482c-0.055559-0.16669-0.11853-0.3519-0.17409-0.50747l-0.36671-0.99642h-0.31486l0.72231 1.8039-0.04075 0.13335c-0.07408 0.22225-0.20373 0.38523-0.40746 0.38523-0.04445 0-0.10001-0.01482-0.13705-0.02593z"/>
   <path d="m47.889 11.765h1.3631v-0.24818h-0.9779l0.94827-1.3891v-0.16298h-1.2298v0.24818h0.84455l-0.94827 1.3891z"/>
   <path d="m49.486 10.869c0 0.58896 0.38153 0.94086 0.86307 0.94086 0.24448 0 0.43709-0.0852 0.59267-0.18521l-0.10742-0.20002c-0.13335 0.0852-0.27781 0.14076-0.4482 0.14076-0.34449 0-0.57785-0.24448-0.60008-0.63341h1.215c0.0074-0.04445 0.01111-0.10372 0.01111-0.16669 0-0.51488-0.25929-0.84455-0.71861-0.84455-0.41116 0-0.80751 0.3593-0.80751 0.94827zm0.29633-0.13705c0.03704-0.36301 0.2667-0.57044 0.51858-0.57044 0.28152 0 0.4445 0.20373 0.4445 0.57044z"/>
   <path d="m51.457 11.765h0.30374v-1.1557c0.12224-0.30374 0.30374-0.41487 0.45561-0.41487 0.07408 0 0.11483 0.01111 0.1741 0.02963l0.05927-0.2667c-0.05927-0.025929-0.11483-0.037042-0.19262-0.037042-0.20373 0-0.38894 0.14446-0.51118 0.37042h-0.011116l-0.02593-0.32596h-0.25188z"/>
   <path d="m52.508 11.562c0.17039 0.14076 0.41487 0.24818 0.67045 0.24818 0.42598 0 0.65934-0.24448 0.65934-0.5371 0-0.34078-0.28893-0.4482-0.54822-0.54451-0.20373-0.07779-0.40005-0.14446-0.40005-0.31115 0-0.13705 0.10372-0.25929 0.32967-0.25929 0.15928 0 0.28893 0.06668 0.41116 0.15928l0.14446-0.19262c-0.13705-0.11112-0.33338-0.20373-0.55933-0.20373-0.38894 0-0.6186 0.22225-0.6186 0.51118 0 0.30374 0.28152 0.42598 0.5371 0.51858 0.19632 0.07408 0.41116 0.15558 0.41116 0.34078 0 0.15558-0.11853 0.28152-0.3556 0.28152-0.21484 0-0.37412-0.0889-0.5297-0.21484z"/>
  </g>
  <path d="m84.138 9.1985-2.6458 2.6458h2.6458l2.6458-2.6458z" fill="#a6aeb8"/>
  <path d="m80.169 9.1985-2.6458 2.6458h2.6458l2.6458-2.6458z" fill="#a6aeb8"/>
  <path d="m60.06 7.611v4.699l1.4883 1.3335h19.149v-4.699l-1.4883-1.3335z" fill="#2f3744" stroke="#7b8694" stroke-linecap="round" stroke-width=".26458"/>
  <g fill="#e8eaec" stroke-linecap="round" stroke-width=".26458" aria-label="Memorizers">
   <path d="m61.762 11.765h0.28522v-1.3372c0-0.21484-0.02222-0.50377-0.03704-0.71861h0.01482l0.19262 0.54081 0.46673 1.2705h0.1778l0.46672-1.2705 0.19262-0.54081h0.01482c-0.01482 0.21484-0.04075 0.50377-0.04075 0.71861v1.3372h0.29263v-2.4299h-0.36301l-0.46673 1.3039-0.17039 0.49636h-0.01482l-0.1741-0.49636-0.47043-1.3039h-0.36671z"/>
   <path d="m64.287 10.869c0 0.58896 0.38153 0.94086 0.86307 0.94086 0.24448 0 0.43709-0.0852 0.59267-0.18521l-0.10742-0.20002c-0.13335 0.0852-0.27781 0.14076-0.4482 0.14076-0.34449 0-0.57785-0.24448-0.60008-0.63341h1.215c0.0074-0.04445 0.01111-0.10372 0.01111-0.16669 0-0.51488-0.25929-0.84455-0.71861-0.84455-0.41116 0-0.80751 0.3593-0.80751 0.94827zm0.29633-0.13705c0.03704-0.36301 0.2667-0.57044 0.51858-0.57044 0.28152 0 0.4445 0.20373 0.4445 0.57044z"/>
   <path d="m66.258 11.765h0.30374v-1.3039c0.16669-0.18521 0.31856-0.27781 0.45191-0.27781 0.22966 0 0.33708 0.14446 0.33708 0.48154v1.1001h0.30374v-1.3039c0.16669-0.18521 0.31115-0.27781 0.45191-0.27781 0.22595 0 0.33338 0.14446 0.33338 0.48154v1.1001h0.30374v-1.1409c0-0.45932-0.1778-0.70379-0.54822-0.70379-0.21855 0-0.40376 0.14076-0.59267 0.34449-0.07408-0.21484-0.22225-0.34449-0.49636-0.34449-0.21484 0-0.40376 0.13335-0.55933 0.30374h-0.01111l-0.02593-0.25929h-0.25188z"/>
   <path d="m69.193 10.869c0 0.59637 0.39264 0.94086 0.83344 0.94086 0.4408 0 0.83344-0.34449 0.83344-0.94086 0-0.60378-0.39264-0.94827-0.83344-0.94827-0.4408 0-0.83344 0.34449-0.83344 0.94827zm0.31486 0c0-0.41487 0.21114-0.69638 0.51858-0.69638 0.31115 0 0.51858 0.28152 0.51858 0.69638 0 0.41116-0.20743 0.68898-0.51858 0.68898-0.30745 0-0.51858-0.27781-0.51858-0.68898z"/>
   <path d="m71.337 11.765h0.30374v-1.1557c0.12224-0.30374 0.30374-0.41487 0.45561-0.41487 0.07408 0 0.11483 0.01111 0.1741 0.02963l0.05927-0.2667c-0.05927-0.025929-0.11483-0.037042-0.19262-0.037042-0.20373 0-0.38894 0.14446-0.51118 0.37042h-0.01111l-0.025934-0.32596h-0.25188z"/>
   <path d="m72.78 9.5949c0.11853 0 0.21114-0.081492 0.21114-0.19632 0-0.11853-0.0926-0.19632-0.21114-0.19632-0.11853 0-0.21114 0.077788-0.21114 0.19632 0 0.11483 0.0926 0.19632 0.21114 0.19632zm-0.15558 2.1706h0.30374v-1.8002h-0.30374z"/>
   <path d="m73.348 11.765h1.3631v-0.24818h-0.9779l0.94827-1.3891v-0.16298h-1.2298v0.24818h0.84455l-0.94827 1.3891z"/>
   <path d="m74.944 10.869c0 0.58896 0.38153 0.94086 0.86307 0.94086 0.24448 0 0.43709-0.0852 0.59267-0.18521l-0.10742-0.20002c-0.13335 0.0852-0.27781 0.14076-0.4482 0.14076-0.34449 0-0.57785-0.24448-0.60008-0.63341h1.215c0.0074-0.04445 0.01111-0.10372 0.01111-0.16669 0-0.51488-0.25929-0.84455-0.71861-0.84455-0.41116 0-0.80751 0.3593-0.80751 0.94827zm0.29633-0.13705c0.03704-0.36301 0.2667-0.57044 0.51858-0.57044 0.28152 0 0.4445 0.20373 0.4445 0.57044z"/>
   <path d="m76.915 11.765h0.30374v-1.1557c0.12224-0.30374 0.30374-0.41487 0.45561-0.41487 0.07408 0 0.11483 0.01111 0.1741 0.02963l0.05927-0.2667c-0.05927-0.025929-0.11483-0.037042-0.19262-0.037042-0.20373 0-0.38894 0.14446-0.51118 0.37042h-0.01111l-0.02593-0.32597h-0.25188z"/>
   <path d="m77.967 11.562c0.17039 0.14076 0.41487 0.24818 0.67046 0.24818 0.42598 0 0.65934-0.24448 0.65934-0.5371 0-0.34078-0.28892-0.4482-0.54822-0.54451-0.20373-0.07779-0.40005-0.14446-0.40005-0.31115 0-0.13705 0.10372-0.25929 0.32967-0.25929 0.15928 0 0.28892 0.06668 0.41116 0.15928l0.14446-0.19262c-0.13705-0.11112-0.33338-0.20373-0.55933-0.20373-0.38894 0-0.6186 0.22225-0.6186 0.51118 0 0.30374 0.28152 0.42598 0.5371 0.51858 0.19632 0.07408 0.41116 0.15558 0.41116 0.34078 0 0.15558-0.11853 0.28152-0.3556 0.28152-0.21484 0-0.37412-0.0889-0.5297-0.21484z"/>
  </g>
  <path d="m107.95 9.1985-2.6458 2.6458h2.6458l2.6458-2.6458z" fill="#a6aeb8"/>
  <path d="m103.98 9.1985-2.6458 2.6458h2.6458l2.6458-2.6458z" fill="#a6aeb8"/>
  <path d="m83.873 7.611v4.699l1.4883 1.3335h19.149v-4.699l-1.4883-1.3335z" fill="#2f3744" stroke="#7b8694" stroke-linecap="round" stroke-width=".26458"/>
  <g fill="#e8eaec" stroke-linecap="round" stroke-width=".26458" aria-label="Deciders">
   <path d="m87.865 11.765h0.6223c0.73342 0 1.1335-0.45191 1.1335-1.2261 0-0.77047-0.40005-1.2039-1.1483-1.2039h-0.60748zm0.31115-0.25188v-1.9262h0.27411c0.57044 0 0.85196 0.34078 0.85196 0.95197 0 0.61489-0.28152 0.9742-0.85196 0.9742z"/>
   <path d="m89.977 10.869c0 0.58896 0.38153 0.94086 0.86307 0.94086 0.24448 0 0.43709-0.0852 0.59267-0.18521l-0.10742-0.20002c-0.13335 0.0852-0.27781 0.14076-0.4482 0.14076-0.34449 0-0.57785-0.24448-0.60008-0.63341h1.215c0.0074-0.04445 0.01111-0.10372 0.01111-0.16669 0-0.51488-0.25929-0.84455-0.71861-0.84455-0.41116 0-0.80751 0.3593-0.80751 0.94827zm0.29633-0.13705c0.03704-0.36301 0.2667-0.57044 0.51858-0.57044 0.28152 0 0.4445 0.20373 0.4445 0.57044z"/>
   <path d="m91.815 10.869c0 0.59637 0.36671 0.94086 0.84455 0.94086 0.21484 0 0.42228-0.0889 0.58526-0.23336l-0.13706-0.20003c-0.10742 0.09631-0.25188 0.1815-0.42228 0.1815-0.32967 0-0.55562-0.27781-0.55562-0.68898 0-0.41487 0.23707-0.69638 0.56303-0.69638 0.14446 0 0.25559 0.06668 0.36301 0.15928l0.15187-0.19632c-0.12224-0.11483-0.28892-0.21484-0.52599-0.21484-0.46302 0-0.86678 0.34449-0.86678 0.94827z"/>
   <path d="m93.79 9.5949c0.11853 0 0.21114-0.081492 0.21114-0.19632 0-0.11853-0.0926-0.19632-0.21114-0.19632-0.11853 0-0.21114 0.077788-0.21114 0.19632 0 0.11483 0.0926 0.19632 0.21114 0.19632zm-0.15558 2.1706h0.30374v-1.8002h-0.30374z"/>
   <path d="m94.416 10.869c0 0.60008 0.29263 0.94086 0.74454 0.94086 0.21114 0 0.40375-0.11853 0.54451-0.25559h0.01111l0.02593 0.21114h0.25188v-2.6374h-0.30745v0.69268l0.01482 0.30745c-0.15928-0.12965-0.29633-0.20743-0.50377-0.20743-0.41116 0-0.78158 0.36301-0.78158 0.94827zm0.31485-0.0037c0-0.41116 0.22966-0.68898 0.51858-0.68898 0.14817 0 0.28522 0.05186 0.43709 0.18891v0.94086c-0.14817 0.16669-0.29263 0.24818-0.45932 0.24818-0.31485 0-0.49636-0.25929-0.49636-0.68898z"/>
   <path d="m96.467 10.869c0 0.58896 0.38153 0.94086 0.86307 0.94086 0.24448 0 0.43709-0.0852 0.59267-0.18521l-0.10742-0.20002c-0.13335 0.0852-0.27781 0.14076-0.4482 0.14076-0.34449 0-0.57785-0.24448-0.60008-0.63341h1.215c0.0074-0.04445 0.01111-0.10372 0.01111-0.16669 0-0.51488-0.25929-0.84455-0.71861-0.84455-0.41116 0-0.80751 0.3593-0.80751 0.94827zm0.29633-0.13705c0.03704-0.36301 0.2667-0.57044 0.51858-0.57044 0.28152 0 0.4445 0.20373 0.4445 0.57044z"/>
   <path d="m98.438 11.765h0.30374v-1.1557c0.12224-0.30374 0.30374-0.41487 0.45561-0.41487 0.07408 0 0.11483 0.01111 0.1741 0.02963l0.05927-0.2667c-0.05927-0.025929-0.11483-0.037042-0.19262-0.037042-0.20373 0-0.38894 0.14446-0.51118 0.37042h-0.01111l-0.025934-0.32596h-0.25188z"/>
   <path d="m99.489 11.562c0.17039 0.14076 0.41487 0.24818 0.67045 0.24818 0.42598 0 0.65935-0.24448 0.65935-0.5371 0-0.34078-0.28893-0.4482-0.54822-0.54451-0.20373-0.07779-0.40005-0.14446-0.40005-0.31115 0-0.13705 0.10372-0.25929 0.32967-0.25929 0.15928 0 0.28892 0.06668 0.41116 0.15928l0.14447-0.19262c-0.13706-0.11112-0.33338-0.20373-0.55933-0.20373-0.38894 0-0.6186 0.22225-0.6186 0.51118 0 0.30374 0.28152 0.42598 0.5371 0.51858 0.19632 0.07408 0.41117 0.15558 0.41117 0.34078 0 0.15558-0.11854 0.28152-0.3556 0.28152-0.21484 0-0.37412-0.0889-0.5297-0.21484z"/>
  </g>
  <path d="m131.76 9.1985-2.6458 2.6458h2.6458l2.6458-2.6458z" fill="#a6aeb8"/>
  <path d="m127.79 9.1985-2.6458 2.6458h2.6458l2.6458-2.6458z" fill="#a6aeb8"/>
  <path d="m107.69 7.611v4.699l1.4883 1.3335h19.149v-4.699l-1.4883-1.3335z" fill="#2f3744" stroke="#7b8694" stroke-linecap="round" stroke-width=".26458"/>
  <g fill="#e8eaec" stroke-linecap="round" stroke-width=".26458" aria-label="Executors">
   <path d="m110.83 11.765h1.4372v-0.263h-1.1261v-0.88159h0.91863v-0.263h-0.91863v-0.76306h1.089v-0.25929h-1.4002z"/>
   <path d="m112.49 11.765h0.31856l0.24447-0.41857c0.0593-0.11112 0.11854-0.21855 0.18151-0.32226h0.0148c0.0667 0.10372 0.13335 0.21484 0.19633 0.32226l0.26299 0.41857h0.32967l-0.58526-0.90752 0.54452-0.89271h-0.31856l-0.21855 0.39635c-0.0556 0.09631-0.11112 0.20002-0.16298 0.30004h-0.0148c-0.063-0.10001-0.12224-0.20373-0.1778-0.30004l-0.24077-0.39635h-0.32967l0.54451 0.85937z"/>
   <path d="m114.19 10.869c0 0.58896 0.38153 0.94086 0.86308 0.94086 0.24447 0 0.43709-0.0852 0.59266-0.18521l-0.10742-0.20002c-0.13335 0.0852-0.27781 0.14076-0.4482 0.14076-0.34449 0-0.57785-0.24448-0.60008-0.63341h1.215c7e-3 -0.04445 0.0111-0.10372 0.0111-0.16669 0-0.51488-0.25929-0.84455-0.71861-0.84455-0.41116 0-0.80751 0.3593-0.80751 0.94827zm0.29634-0.13705c0.037-0.36301 0.2667-0.57044 0.51858-0.57044 0.28152 0 0.4445 0.20373 0.4445 0.57044z"/>
   <path d="m116.03 10.869c0 0.59637 0.36671 0.94086 0.84455 0.94086 0.21484 0 0.42228-0.0889 0.58526-0.23336l-0.13706-0.20003c-0.10742 0.09631-0.25188 0.1815-0.42227 0.1815-0.32967 0-0.55563-0.27781-0.55563-0.68898 0-0.41487 0.23707-0.69638 0.56304-0.69638 0.14446 0 0.25559 0.06668 0.36301 0.15928l0.15187-0.19632c-0.12224-0.11483-0.28893-0.21484-0.52599-0.21484-0.46303 0-0.86678 0.34449-0.86678 0.94827z"/>
   <path d="m117.83 11.106c0 0.45932 0.17039 0.70379 0.55192 0.70379 0.24818 0 0.42598-0.12965 0.59267-0.32597h0.0111l0.0259 0.28152h0.25188v-1.8002h-0.30374v1.2779c-0.17039 0.21114-0.30004 0.30374-0.48525 0.30374-0.23706 0-0.33708-0.14446-0.33708-0.48154v-1.1001h-0.30744z"/>
   <path d="m119.92 11.21c0 0.3556 0.12964 0.60008 0.51488 0.60008 0.11112 0 0.23336-0.03334 0.33337-0.06668l-0.0593-0.22966c-0.0593 0.02223-0.14076 0.04815-0.20373 0.04815-0.20744 0-0.27782-0.12594-0.27782-0.34819v-1.0001h0.48525v-0.24817h-0.48525v-0.50377h-0.25558l-0.0371 0.50377-0.28151 0.018521v0.22966h0.2667z"/>
   <path d="m120.95 10.869c0 0.59637 0.39264 0.94086 0.83344 0.94086 0.44079 0 0.83344-0.34449 0.83344-0.94086 0-0.60378-0.39265-0.94827-0.83344-0.94827-0.4408 0-0.83344 0.34449-0.83344 0.94827zm0.31485 0c0-0.41487 0.21114-0.69638 0.51859-0.69638 0.31115 0 0.51858 0.28152 0.51858 0.69638 0 0.41116-0.20743 0.68898-0.51858 0.68898-0.30745 0-0.51859-0.27781-0.51859-0.68898z"/>
   <path d="m123.1 11.765h0.30374v-1.1557c0.12224-0.30374 0.30374-0.41487 0.45561-0.41487 0.0741 0 0.11483 0.01111 0.1741 0.02963l0.0593-0.2667c-0.0593-0.025929-0.11483-0.037042-0.19262-0.037042-0.20373 0-0.38894 0.14446-0.51118 0.37042h-0.0111l-0.0259-0.32597h-0.25188z"/>
   <path d="m124.15 11.562c0.17039 0.14076 0.41486 0.24818 0.67045 0.24818 0.42598 0 0.65934-0.24448 0.65934-0.5371 0-0.34078-0.28892-0.4482-0.54821-0.54451-0.20373-0.07779-0.40005-0.14446-0.40005-0.31115 0-0.13705 0.10371-0.25929 0.32967-0.25929 0.15928 0 0.28892 0.06668 0.41116 0.15928l0.14446-0.19262c-0.13705-0.11112-0.33337-0.20373-0.55933-0.20373-0.38893 0-0.61859 0.22225-0.61859 0.51118 0 0.30374 0.28151 0.42598 0.5371 0.51858 0.19632 0.07408 0.41117 0.15558 0.41117 0.34078 0 0.15558-0.11854 0.28152-0.35561 0.28152-0.21484 0-0.37412-0.0889-0.52969-0.21484z"/>
  </g>
  <path d="m155.58 9.1985-2.6458 2.6458h2.6458l2.6458-2.6458z" fill="#a6aeb8"/>
  <path d="m151.61 9.1985-2.6458 2.6458h2.6458l2.6458-2.6458z" fill="#a6aeb8"/>
  <g stroke-linecap="round" stroke-width=".26458">
   <path d="m131.5 7.611v4.699l1.4883 1.3335h19.149v-4.699l-1.4883-1.3335z" fill="#2f3744" stroke="#7b8694"/>
   <g fill="#e8eaec" aria-label="Coordinators">
    <path d="m131.9 10.551c0 0.79269 0.45562 1.2594 1.0668 1.2594 0.30745 0 0.54822-0.12965 0.73713-0.3519l-0.17409-0.18891c-0.15558 0.1741-0.32597 0.2704-0.55563 0.2704-0.46302 0-0.75565-0.38523-0.75565-0.99642 0-0.60378 0.30745-0.9816 0.77047-0.9816 0.20002 0 0.3556 0.0889 0.48525 0.22595l0.17409-0.19632c-0.14446-0.15928-0.37412-0.30004-0.66304-0.30004-0.6223 0-1.0853 0.47784-1.0853 1.2594z"/>
    <path d="m133.99 10.869c0 0.59637 0.39264 0.94086 0.83343 0.94086 0.4408 0 0.83344-0.34449 0.83344-0.94086 0-0.60378-0.39264-0.94827-0.83344-0.94827-0.44079 0-0.83343 0.34449-0.83343 0.94827zm0.31485 0c0-0.41487 0.21114-0.69638 0.51858-0.69638 0.31115 0 0.51859 0.28152 0.51859 0.69638 0 0.41116-0.20744 0.68898-0.51859 0.68898-0.30744 0-0.51858-0.27781-0.51858-0.68898z"/>
    <path d="m136 10.869c0 0.59637 0.39264 0.94086 0.83343 0.94086 0.4408 0 0.83344-0.34449 0.83344-0.94086 0-0.60378-0.39264-0.94827-0.83344-0.94827-0.44079 0-0.83343 0.34449-0.83343 0.94827zm0.31485 0c0-0.41487 0.21114-0.69638 0.51858-0.69638 0.31115 0 0.51859 0.28152 0.51859 0.69638 0 0.41116-0.20744 0.68898-0.51859 0.68898-0.30744 0-0.51858-0.27781-0.51858-0.68898z"/>
    <path d="m138.14 11.765h0.30375v-1.1557c0.12223-0.30374 0.30374-0.41487 0.45561-0.41487 0.0741 0 0.11483 0.01111 0.17409 0.02963l0.0593-0.2667c-0.0593-0.025929-0.11483-0.037042-0.19262-0.037042-0.20372 0-0.38893 0.14446-0.51117 0.37042h-0.0111l-0.0259-0.32597h-0.25189z"/>
    <path d="m139.27 10.869c0 0.60008 0.29263 0.94086 0.74454 0.94086 0.21114 0 0.40375-0.11853 0.54451-0.25559h0.0111l0.0259 0.21114h0.25189v-2.6374h-0.30745v0.69268l0.0148 0.30745c-0.15928-0.12965-0.29633-0.20743-0.50377-0.20743-0.41116 0-0.78158 0.36301-0.78158 0.94827zm0.31486-0.0037c0-0.41116 0.22966-0.68898 0.51858-0.68898 0.14817 0 0.28522 0.05186 0.43709 0.18891v0.94086c-0.14816 0.16669-0.29263 0.24818-0.45931 0.24818-0.31486 0-0.49636-0.25929-0.49636-0.68898z"/>
    <path d="m141.61 9.5949c0.11853 0 0.21114-0.081492 0.21114-0.19632 0-0.11853-0.0926-0.19632-0.21114-0.19632-0.11853 0-0.21114 0.077788-0.21114 0.19632 0 0.11483 0.0926 0.19632 0.21114 0.19632zm-0.15557 2.1706h0.30374v-1.8002h-0.30374z"/>
    <path d="m142.36 11.765h0.30374v-1.3039c0.1815-0.1815 0.30745-0.27781 0.49265-0.27781 0.23707 0 0.34079 0.14446 0.34079 0.48154v1.1001h0.30374v-1.1409c0-0.45932-0.17039-0.70379-0.54822-0.70379-0.24818 0-0.43339 0.13335-0.60378 0.30374h-0.0111l-0.0259-0.25929h-0.25188z"/>
    <path d="m144.3 11.299c0 0.32226 0.22595 0.51118 0.52969 0.51118 0.22225 0 0.42228-0.11853 0.59637-0.25929h7e-3l0.0259 0.21484h0.25188v-1.1038c0-0.4482-0.1852-0.74083-0.626-0.74083-0.28893 0-0.54081 0.12594-0.7075 0.23336l0.12224 0.21114c0.14076-0.09631 0.32597-0.19262 0.53711-0.19262 0.29263 0 0.37041 0.22225 0.37041 0.45191-0.76676 0.0852-1.1075 0.28152-1.1075 0.67416zm0.30003-0.02222c0-0.22966 0.20373-0.37782 0.80751-0.45191v0.50006c-0.17409 0.15558-0.31856 0.24077-0.49265 0.24077-0.1778 0-0.31486-0.0852-0.31486-0.28892z"/>
    <path d="m146.34 11.21c0 0.3556 0.12964 0.60008 0.51488 0.60008 0.11112 0 0.23336-0.03334 0.33337-0.06668l-0.0593-0.22966c-0.0593 0.02223-0.14076 0.04815-0.20373 0.04815-0.20744 0-0.27782-0.12594-0.27782-0.34819v-1.0001h0.48525v-0.24817h-0.48525v-0.50377h-0.25558l-0.037 0.50377-0.28151 0.018521v0.22966h0.2667z"/>
    <path d="m147.37 10.869c0 0.59637 0.39264 0.94086 0.83344 0.94086 0.44079 0 0.83344-0.34449 0.83344-0.94086 0-0.60378-0.39265-0.94827-0.83344-0.94827-0.4408 0-0.83344 0.34449-0.83344 0.94827zm0.31485 0c0-0.41487 0.21114-0.69638 0.51859-0.69638 0.31115 0 0.51858 0.28152 0.51858 0.69638 0 0.41116-0.20743 0.68898-0.51858 0.68898-0.30745 0-0.51859-0.27781-0.51859-0.68898z"/>
    <path d="m149.51 11.765h0.30374v-1.1557c0.12224-0.30374 0.30374-0.41487 0.45561-0.41487 0.0741 0 0.11483 0.01111 0.1741 0.02963l0.0593-0.2667c-0.0593-0.025929-0.11483-0.037042-0.19262-0.037042-0.20373 0-0.38894 0.14446-0.51118 0.37042h-0.0111l-0.0259-0.32597h-0.25188z"/>
    <path d="m150.56 11.562c0.17039 0.14076 0.41487 0.24818 0.67045 0.24818 0.42598 0 0.65935-0.24448 0.65935-0.5371 0-0.34078-0.28893-0.4482-0.54822-0.54451-0.20373-0.07779-0.40005-0.14446-0.40005-0.31115 0-0.13705 0.10371-0.25929 0.32967-0.25929 0.15928 0 0.28892 0.06668 0.41116 0.15928l0.14446-0.19262c-0.13705-0.11112-0.33337-0.20373-0.55933-0.20373-0.38893 0-0.61859 0.22225-0.61859 0.51118 0 0.30374 0.28152 0.42598 0.5371 0.51858 0.19632 0.07408 0.41117 0.15558 0.41117 0.34078 0 0.15558-0.11854 0.28152-0.3556 0.28152-0.21485 0-0.37413-0.0889-0.5297-0.21484z"/>
   </g>
   <path d="m155.31 7.611v4.699l1.4883 1.3335h19.149v-4.699l-1.4883-1.3335z" fill="#2f3744" stroke="#7b8694"/>
   <g fill="#e8eaec" aria-label="Actuators">
    <path d="m158.88 10.776 0.11854-0.37042c0.0852-0.2704 0.16298-0.5371 0.24077-0.81862h0.0148c0.0778 0.28152 0.15557 0.54822 0.24077 0.81862l0.11483 0.37042zm1.0409 0.98901h0.32596l-0.82232-2.4299h-0.34819l-0.82233 2.4299h0.31485l0.23337-0.74083h0.88529z"/>
    <path d="m160.41 10.869c0 0.59637 0.36671 0.94086 0.84455 0.94086 0.21484 0 0.42227-0.0889 0.58526-0.23336l-0.13706-0.20003c-0.10742 0.09631-0.25188 0.1815-0.42227 0.1815-0.32968 0-0.55563-0.27781-0.55563-0.68898 0-0.41487 0.23707-0.69638 0.56303-0.69638 0.14447 0 0.25559 0.06668 0.36301 0.15928l0.15187-0.19632c-0.12223-0.11483-0.28892-0.21484-0.52599-0.21484-0.46302 0-0.86677 0.34449-0.86677 0.94827z"/>
    <path d="m162.28 11.21c0 0.3556 0.12965 0.60008 0.51488 0.60008 0.11113 0 0.23336-0.03334 0.33338-0.06668l-0.0593-0.22966c-0.0593 0.02223-0.14076 0.04815-0.20373 0.04815-0.20743 0-0.27781-0.12594-0.27781-0.34819v-1.0001h0.48524v-0.24817h-0.48524v-0.50377h-0.25559l-0.037 0.50377-0.28152 0.018521v0.22966h0.2667z"/>
    <path d="m163.44 11.106c0 0.45932 0.1704 0.70379 0.55192 0.70379 0.24818 0 0.42598-0.12965 0.59267-0.32597h0.0111l0.0259 0.28152h0.25189v-1.8002h-0.30374v1.2779c-0.1704 0.21114-0.30004 0.30374-0.48525 0.30374-0.23707 0-0.33708-0.14446-0.33708-0.48154v-1.1001h-0.30745z"/>
    <path d="m165.39 11.299c0 0.32226 0.22595 0.51118 0.52969 0.51118 0.22225 0 0.42228-0.11853 0.59637-0.25929h7e-3l0.0259 0.21484h0.25188v-1.1038c0-0.4482-0.1852-0.74083-0.626-0.74083-0.28893 0-0.54081 0.12594-0.7075 0.23336l0.12224 0.21114c0.14076-0.09631 0.32597-0.19262 0.53711-0.19262 0.29262 0 0.37041 0.22225 0.37041 0.45191-0.76676 0.0852-1.1075 0.28152-1.1075 0.67416zm0.30003-0.02222c0-0.22966 0.20373-0.37782 0.80751-0.45191v0.50006c-0.17409 0.15558-0.31856 0.24077-0.49265 0.24077-0.1778 0-0.31486-0.0852-0.31486-0.28892z"/>
    <path d="m167.43 11.21c0 0.3556 0.12964 0.60008 0.51488 0.60008 0.11112 0 0.23336-0.03334 0.33337-0.06668l-0.0593-0.22966c-0.0593 0.02223-0.14076 0.04815-0.20373 0.04815-0.20744 0-0.27782-0.12594-0.27782-0.34819v-1.0001h0.48525v-0.24817h-0.48525v-0.50377h-0.25558l-0.0371 0.50377-0.28151 0.018521v0.22966h0.2667z"/>
    <path d="m168.46 10.869c0 0.59637 0.39264 0.94086 0.83344 0.94086 0.44079 0 0.83344-0.34449 0.83344-0.94086 0-0.60378-0.39265-0.94827-0.83344-0.94827-0.4408 0-0.83344 0.34449-0.83344 0.94827zm0.31485 0c0-0.41487 0.21114-0.69638 0.51859-0.69638 0.31115 0 0.51858 0.28152 0.51858 0.69638 0 0.41116-0.20743 0.68898-0.51858 0.68898-0.30745 0-0.51859-0.27781-0.51859-0.68898z"/>
    <path d="m170.6 11.765h0.30374v-1.1557c0.12224-0.30374 0.30374-0.41487 0.45561-0.41487 0.0741 0 0.11483 0.01111 0.1741 0.02963l0.0593-0.2667c-0.0593-0.025929-0.11483-0.037042-0.19262-0.037042-0.20373 0-0.38894 0.14446-0.51118 0.37042h-0.0111l-0.0259-0.32597h-0.25188z"/>
    <path d="m171.65 11.562c0.17039 0.14076 0.41486 0.24818 0.67045 0.24818 0.42598 0 0.65934-0.24448 0.65934-0.5371 0-0.34078-0.28892-0.4482-0.54821-0.54451-0.20373-0.07779-0.40005-0.14446-0.40005-0.31115 0-0.13705 0.10371-0.25929 0.32967-0.25929 0.15928 0 0.28892 0.06668 0.41116 0.15928l0.14446-0.19262c-0.13705-0.11112-0.33337-0.20373-0.55933-0.20373-0.38893 0-0.61859 0.22225-0.61859 0.51118 0 0.30374 0.28151 0.42598 0.5371 0.51858 0.19632 0.07408 0.41117 0.15558 0.41117 0.34078 0 0.15558-0.11854 0.28152-0.3556 0.28152-0.21485 0-0.37413-0.0889-0.5297-0.21484z"/>
   </g>
  </g>
 </g>
 <path d="m0.13229 4.0391h174.63" fill="none" stroke="#6f8ce9" stroke-linecap="round" stroke-width=".26458"/>
 <g transform="matrix(.0042365 0 0 .0043091 173.85 2.8171)" fill="#6f8ce9" stroke-width="123.85">
  <g fill="#6f8ce9" stroke-width="123.85">
   <path d="m486.41 221.41-364.07-208.5c-52.938-30.318-95.852-5.44-95.852 55.563v415.65c0 61.004 42.914 85.882 95.852 55.563l364.07-208.49c52.938-30.317 52.938-79.473 0-109.79z" fill="#6f8ce9" stroke-width="123.85"/>
  </g>
 </g>
 <g fill="#e8eaec" stroke-linecap="round" stroke-width=".26458" aria-label="Event Flow">
  <path d="m78.695 2.7697h1.4372v-0.263h-1.1261v-0.88159h0.91863v-0.263h-0.91863v-0.76306h1.089v-0.25929h-1.4002z"/>
  <path d="m80.997 2.7697h0.3556l0.63712-1.8002h-0.30004l-0.34078 1.0224c-0.05186 0.1778-0.11112 0.3593-0.16298 0.5297h-0.01482c-0.055559-0.17039-0.11483-0.3519-0.16668-0.5297l-0.34078-1.0224h-0.31485z"/>
  <path d="m82.189 1.8733c0 0.58896 0.38153 0.94086 0.86307 0.94086 0.24448 0 0.43709-0.085196 0.59267-0.18521l-0.10742-0.20003c-0.13335 0.085196-0.27781 0.14076-0.4482 0.14076-0.34449 0-0.57785-0.24448-0.60008-0.63341h1.215c0.0074-0.04445 0.01111-0.10372 0.01111-0.16669 0-0.51488-0.25929-0.84455-0.71861-0.84455-0.41116 0-0.80751 0.3593-0.80751 0.94827zm0.29633-0.13705c0.03704-0.36301 0.2667-0.57044 0.51858-0.57044 0.28152 0 0.4445 0.20373 0.4445 0.57044z"/>
  <path d="m84.16 2.7697h0.30374v-1.3039c0.1815-0.1815 0.30745-0.27781 0.49265-0.27781 0.23707 0 0.34078 0.14446 0.34078 0.48154v1.1001h0.30374v-1.1409c0-0.45932-0.17039-0.70379-0.54822-0.70379-0.24818 0-0.43339 0.13335-0.60378 0.30374h-0.01111l-0.02593-0.25929h-0.25188z"/>
  <path d="m86.238 2.214c0 0.3556 0.12965 0.60008 0.51488 0.60008 0.11112 0 0.23336-0.033338 0.33338-0.066675l-0.05927-0.22966c-0.05927 0.022225-0.14076 0.048154-0.20373 0.048154-0.20743 0-0.27781-0.12594-0.27781-0.34819v-1.0001h0.48525v-0.24818h-0.48525v-0.50377h-0.25559l-0.03704 0.50377-0.28152 0.018521v0.22966h0.2667z"/>
  <path d="m88.201 2.7697h0.31115v-1.089h0.92604v-0.25929h-0.92604v-0.82233h1.0927v-0.25929h-1.4039z"/>
  <path d="m89.991 2.4067c0 0.263 0.0926 0.40746 0.32226 0.40746 0.08149 0 0.13335-0.011112 0.1741-0.029633l-0.04075-0.22966c-0.03334 0.00741-0.04815 0.00741-0.06668 0.00741-0.04445 0-0.0852-0.037042-0.0852-0.13335v-2.2966h-0.30374z"/>
  <path d="m90.806 1.8733c0 0.59637 0.39264 0.94086 0.83344 0.94086s0.83344-0.34449 0.83344-0.94086c0-0.60378-0.39264-0.94827-0.83344-0.94827s-0.83344 0.34449-0.83344 0.94827zm0.31485 0c0-0.41487 0.21114-0.69638 0.51858-0.69638 0.31115 0 0.51858 0.28152 0.51858 0.69638 0 0.41116-0.20743 0.68898-0.51858 0.68898-0.30745 0-0.51858-0.27781-0.51858-0.68898z"/>
  <path d="m93.221 2.7697h0.3556l0.25188-0.96308c0.04815-0.17039 0.0852-0.34078 0.12594-0.52229h0.01482c0.04445 0.1815 0.07779 0.34819 0.12224 0.51858l0.25929 0.96679h0.37041l0.48154-1.8002h-0.28892l-0.263 1.0409c-0.03704 0.17039-0.07038 0.33338-0.11112 0.50006h-0.01482c-0.040743-0.16669-0.081489-0.32967-0.12594-0.50006l-0.28152-1.0409h-0.29633l-0.27781 1.0409c-0.04445 0.16669-0.08149 0.33338-0.12224 0.50006h-0.01482c-0.03334-0.16669-0.06668-0.32967-0.10742-0.50006l-0.2667-1.0409h-0.31115z"/>
 </g>
</svg>
