<?xml version="1.0" encoding="UTF-8" standalone="no"?>
<svg
   xmlns:dc="http://purl.org/dc/elements/1.1/"
   xmlns:cc="http://creativecommons.org/ns#"
   xmlns:rdf="http://www.w3.org/1999/02/22-rdf-syntax-ns#"
   xmlns:svg="http://www.w3.org/2000/svg"
   xmlns="http://www.w3.org/2000/svg"
   xmlns:sodipodi="http://sodipodi.sourceforge.net/DTD/sodipodi-0.dtd"
   xmlns:inkscape="http://www.inkscape.org/namespaces/inkscape"
   inkscape:version="1.0rc1 (09960d6f05, 2020-04-09)"
   sodipodi:docname="chapter_engines_intro.svg"
   id="svg70"
   viewBox="0 0 169.27686 73.382683"
   version="1.1"
   height="277.34772"
   width="639.7851">
  <defs
     id="defs74" />
  <sodipodi:namedview
     inkscape:current-layer="svg70"
     inkscape:window-maximized="1"
     inkscape:window-y="-8"
     inkscape:window-x="-8"
     inkscape:cy="138.29083"
     inkscape:cx="319.08394"
     inkscape:zoom="0.36106054"
     showgrid="false"
     id="namedview72"
     inkscape:window-height="1377"
     inkscape:window-width="2560"
     inkscape:pageshadow="2"
     inkscape:pageopacity="0"
     guidetolerance="10"
     gridtolerance="10"
     objecttolerance="10"
     borderopacity="1"
     bordercolor="#666666"
     pagecolor="#ffffff" />
  <metadata
     id="metadata2">
    <rdf:RDF>
      <cc:Work
         rdf:about="">
        <dc:format>image/svg+xml</dc:format>
        <dc:type
           rdf:resource="http://purl.org/dc/dcmitype/StillImage" />
        <dc:title />
      </cc:Work>
    </rdf:RDF>
  </metadata>
  <g
     id="g68"
     stroke-width="0.13769"
     transform="matrix(7.2627,0,0,7.2627,-684.20554,-699.1075)">
    <rect
       id="rect4"
       style="paint-order:normal"
       fill="#1d232d"
       height="9.7115002"
       width="23.308001"
       y="96.454002"
       x="94.208" />
    <g
       id="g54"
       fill="#7b8694">
      <path
         inkscape:connector-curvature="0"
         id="path6"
         d="m 94.596,96.26 h 1.1654 v 0.19408 H 94.596 Z" />
      <path
         inkscape:connector-curvature="0"
         id="path8"
         d="m 96.538,96.26 h 1.1654 v 0.19408 H 96.538 Z" />
      <path
         inkscape:connector-curvature="0"
         id="path10"
         d="m 98.481,96.26 h 1.1654 v 0.19408 H 98.481 Z" />
      <path
         inkscape:connector-curvature="0"
         id="path12"
         d="m 100.42,96.26 h 1.1654 v 0.19408 H 100.42 Z" />
      <path
         inkscape:connector-curvature="0"
         id="path14"
         d="m 102.37,96.26 h 1.1654 v 0.19408 H 102.37 Z" />
      <path
         inkscape:connector-curvature="0"
         id="path16"
         d="m 104.31,96.26 h 1.1654 v 0.19408 H 104.31 Z" />
      <path
         inkscape:connector-curvature="0"
         id="path18"
         d="m 106.25,96.26 h 1.1654 v 0.19408 H 106.25 Z" />
      <path
         inkscape:connector-curvature="0"
         id="path20"
         d="m 108.19,96.26 h 1.1654 v 0.19408 H 108.19 Z" />
      <path
         inkscape:connector-curvature="0"
         id="path22"
         d="m 110.13,96.26 h 1.1654 v 0.19408 H 110.13 Z" />
      <path
         inkscape:connector-curvature="0"
         id="path24"
         d="m 112.08,96.26 h 1.1654 v 0.19408 H 112.08 Z" />
      <path
         inkscape:connector-curvature="0"
         id="path26"
         d="m 114.02,96.26 h 1.1654 v 0.19408 H 114.02 Z" />
      <path
         inkscape:connector-curvature="0"
         id="path28"
         d="m 115.96,96.26 h 1.1654 v 0.19408 H 115.96 Z" />
      <path
         inkscape:connector-curvature="0"
         id="path30"
         d="m 115.96,106.17 h 1.1654 v 0.19405 H 115.96 Z" />
      <path
         inkscape:connector-curvature="0"
         id="path32"
         d="m 114.02,106.17 h 1.1654 v 0.19405 H 114.02 Z" />
      <path
         inkscape:connector-curvature="0"
         id="path34"
         d="m 112.08,106.17 h 1.1654 v 0.19405 H 112.08 Z" />
      <path
         inkscape:connector-curvature="0"
         id="path36"
         d="m 110.13,106.17 h 1.1654 v 0.19405 H 110.13 Z" />
      <path
         inkscape:connector-curvature="0"
         id="path38"
         d="m 108.19,106.17 h 1.1654 v 0.19405 H 108.19 Z" />
      <path
         inkscape:connector-curvature="0"
         id="path40"
         d="m 106.25,106.17 h 1.1654 v 0.19405 H 106.25 Z" />
      <path
         inkscape:connector-curvature="0"
         id="path42"
         d="m 104.31,106.17 h 1.1654 v 0.19405 H 104.31 Z" />
      <path
         inkscape:connector-curvature="0"
         id="path44"
         d="m 102.37,106.17 h 1.1654 v 0.19405 H 102.37 Z" />
      <path
         inkscape:connector-curvature="0"
         id="path46"
         d="m 100.42,106.17 h 1.1654 v 0.19405 H 100.42 Z" />
      <path
         inkscape:connector-curvature="0"
         id="path48"
         d="m 98.481,106.17 h 1.1654 v 0.19405 H 98.481 Z" />
      <path
         inkscape:connector-curvature="0"
         id="path50"
         d="m 96.538,106.17 h 1.1654 v 0.19405 H 96.538 Z" />
      <path
         inkscape:connector-curvature="0"
         id="path52"
         d="m 94.596,106.17 h 1.1654 v 0.19405 H 94.596 Z" />
    </g>
    <g
       id="g66"
       stroke-width="0.010772"
       transform="matrix(0.99998,0,0,0.99998,-0.068253,0.16907)">
      <path
         inkscape:connector-curvature="0"
         id="path56"
         fill="#d2d6dc"
         d="m 105.54,103.74 c -0.007,-0.0149 -0.0223,-0.10996 -0.0297,-0.20878 l -0.0149,-0.17979 -0.18722,-0.0669 c -0.10327,-0.0371 -0.23701,-0.0929 -0.29867,-0.12704 l -0.11145,-0.0594 -0.13224,0.13076 c -0.10699,0.1055 -0.14265,0.12853 -0.18648,0.11739 -0.0743,-0.0149 -0.61889,-0.57282 -0.61889,-0.62855 0,-0.0223 0.0594,-0.10178 0.12779,-0.17236 l 0.12779,-0.12928 -0.0594,-0.11144 c -0.0371,-0.0594 -0.0914,-0.1954 -0.12704,-0.29867 l -0.0669,-0.18723 -0.1798,-0.0149 c -0.0988,-0.006 -0.19242,-0.0223 -0.20877,-0.0297 -0.0446,-0.0297 -0.0446,-0.88219 0,-0.90894 0.0149,-0.007 0.10996,-0.0223 0.20877,-0.0297 l 0.1798,-0.0149 0.0669,-0.18722 c 0.0371,-0.10328 0.0929,-0.23701 0.12704,-0.29867 l 0.0594,-0.11145 -0.12779,-0.12927 c -0.0743,-0.0743 -0.12779,-0.14859 -0.12779,-0.17237 0,-0.05944 0.54682,-0.60997 0.61889,-0.62854 0.0446,-0.0074 0.0795,0.01486 0.18648,0.11739 l 0.13224,0.13076 0.11145,-0.05944 c 0.0594,-0.03715 0.1954,-0.09138 0.29867,-0.12705 l 0.18722,-0.06687 0.0149,-0.1798 c 0.006,-0.09881 0.0223,-0.19243 0.0297,-0.20877 0.0297,-0.04458 0.88219,-0.04458 0.90894,0 0.007,0.01486 0.0223,0.10996 0.0297,0.20877 l 0.0149,0.1798 0.18722,0.06687 c 0.10327,0.03715 0.23701,0.09287 0.29867,0.12705 l 0.11145,0.05944 0.13224,-0.13076 c 0.10699,-0.1055 0.14265,-0.12853 0.18648,-0.11739 0.0743,0.02229 0.61889,0.57282 0.61889,0.62854 0,0.02229 -0.0594,0.10179 -0.12779,0.17237 l -0.12779,0.12927 0.0594,0.11145 c 0.0371,0.0594 0.0914,0.19539 0.12704,0.29867 l 0.0669,0.18722 0.1798,0.0149 c 0.0988,0.006 0.19242,0.0223 0.20877,0.0297 0.0446,0.0297 0.0446,0.88219 0,0.90894 -0.0149,0.007 -0.10996,0.0223 -0.20877,0.0297 l -0.1798,0.0149 -0.0669,0.18723 c -0.0371,0.10327 -0.0929,0.237 -0.12704,0.29867 l -0.0594,0.11144 0.13076,0.13225 c 0.1055,0.10699 0.12853,0.14265 0.11739,0.18648 -0.0149,0.0743 -0.57282,0.61889 -0.62854,0.61889 -0.0223,0 -0.10179,-0.0594 -0.17237,-0.12779 l -0.12927,-0.12779 -0.11145,0.0594 c -0.0594,0.0371 -0.1954,0.0914 -0.29867,0.12704 l -0.18722,0.0669 -0.0149,0.17979 c -0.006,0.0988 -0.0223,0.19243 -0.0297,0.20878 -0.0149,0.0223 -0.13151,0.0297 -0.45469,0.0297 -0.32319,0 -0.44058,-0.007 -0.45469,-0.0297 z" />
      <path
         inkscape:connector-curvature="0"
         id="path58"
         fill="#2b2b2b"
         d="m 106.25,103.38 c 0,-0.19391 0.0149,-0.21323 0.21769,-0.26449 0.17385,-0.0446 0.35216,-0.11888 0.49258,-0.20729 0.13745,-0.0869 0.18277,-0.0787 0.31724,0.052 l 0.11665,0.11516 0.17831,-0.1798 0.17831,-0.17979 -0.1159,-0.11368 c -0.13374,-0.13224 -0.14191,-0.17831 -0.052,-0.31724 0.0884,-0.13968 0.16345,-0.31873 0.20728,-0.49258 0.052,-0.20135 0.0669,-0.21769 0.2645,-0.21769 h 0.15973 v -0.50818 h -0.15973 c -0.19391,0 -0.21323,-0.0149 -0.2645,-0.21769 -0.0446,-0.17385 -0.11887,-0.35216 -0.20728,-0.49258 -0.0869,-0.13745 -0.0788,-0.18277 0.052,-0.31725 l 0.11515,-0.11664 -0.17979,-0.17831 -0.1798,-0.17831 -0.11367,0.1159 c -0.1315,0.13373 -0.17831,0.1419 -0.31724,0.05201 -0.13968,-0.08841 -0.31873,-0.16345 -0.49259,-0.20729 -0.20134,-0.05201 -0.21768,-0.06687 -0.21768,-0.26375 v -0.15974 h -0.50819 v 0.15974 c 0,0.19391 -0.0149,0.21323 -0.21769,0.26375 -0.17385,0.04458 -0.35216,0.11887 -0.49258,0.20729 -0.13744,0.08693 -0.18277,0.07875 -0.31724,-0.05201 l -0.11665,-0.11516 -0.35662,0.35959 0.11591,0.11368 c 0.13373,0.13224 0.1419,0.17831 0.052,0.31724 -0.0884,0.13968 -0.16345,0.31873 -0.20728,0.49258 -0.052,0.20134 -0.0669,0.21769 -0.2645,0.21769 h -0.15973 v 0.50818 h 0.15973 c 0.19392,0 0.21323,0.0149 0.2645,0.21769 0.0446,0.17385 0.11887,0.35216 0.20728,0.49258 0.0877,0.13893 0.0795,0.18574 -0.052,0.31725 l -0.11591,0.11367 0.17831,0.17979 0.17831,0.1798 0.11665,-0.11516 c 0.13447,-0.13299 0.1798,-0.14042 0.31724,-0.052 0.13968,0.0884 0.31873,0.16346 0.49258,0.20729 0.20135,0.052 0.21769,0.0669 0.21769,0.26449 v 0.15974 h 0.50819 z" />
      <path
         inkscape:connector-curvature="0"
         id="path60"
         fill="#d2d6dc"
         d="m 105.81,102.78 c -0.34696,-0.0446 -0.58693,-0.17014 -0.84355,-0.42646 -0.29793,-0.29793 -0.43018,-0.60774 -0.4324,-1.0166 -0.002,-0.25781 0.0297,-0.41012 0.14562,-0.64638 0.15007,-0.31353 0.36479,-0.52824 0.6798,-0.6798 0.23181,-0.11145 0.3856,-0.14711 0.63449,-0.14711 0.24964,0 0.40194,0.03715 0.64192,0.14933 0.49109,0.23329 0.81346,0.74147 0.81844,1.2888 0.003,0.27044 -0.0297,0.4168 -0.15008,0.66941 -0.1315,0.27712 -0.38633,0.53196 -0.66346,0.66346 -0.28158,0.13374 -0.56168,0.18277 -0.83092,0.14488 z" />
      <path
         inkscape:connector-curvature="0"
         id="path62"
         fill="#303030"
         d="m 106.37,102.5 c 0.21768,-0.075 0.32615,-0.14339 0.49481,-0.3113 0.2578,-0.25781 0.36479,-0.5119 0.36479,-0.86793 0,-0.3581 -0.11887,-0.63597 -0.37965,-0.88813 -0.49853,-0.48144 -1.2555,-0.46732 -1.7377,0.0297 -0.24295,0.25112 -0.34771,0.50967 -0.34771,0.85618 0,0.34251 0.10476,0.60329 0.34102,0.84988 0.1954,0.20357 0.4168,0.32467 0.68353,0.37445 0.14784,0.0297 0.43463,0.005 0.58099,-0.0446 z" />
      <path
         inkscape:connector-curvature="0"
         id="path64"
         fill="#d2d6dc"
         d="m 105.86,102.04 c -0.34473,-0.0669 -0.58768,-0.36479 -0.58768,-0.71398 0,-0.2058 0.0669,-0.36108 0.21323,-0.50967 0.14859,-0.14859 0.30387,-0.21323 0.50967,-0.21323 0.2058,0 0.36108,0.0669 0.50967,0.21323 0.14859,0.14859 0.21323,0.30387 0.21323,0.50967 0,0.45246 -0.42052,0.80247 -0.85857,0.71398 z" />
    </g>
  </g>
</svg>
