<?xml version="1.0" encoding="UTF-8"?>
<svg width="147.97mm" height="60.476mm" version="1.1" viewBox="0 0 147.97 60.476" xmlns="http://www.w3.org/2000/svg" xmlns:cc="http://creativecommons.org/ns#" xmlns:dc="http://purl.org/dc/elements/1.1/" xmlns:rdf="http://www.w3.org/1999/02/22-rdf-syntax-ns#">
 <metadata>
  <rdf:RDF>
   <cc:Work rdf:about="">
    <dc:format>image/svg+xml</dc:format>
    <dc:type rdf:resource="http://purl.org/dc/dcmitype/StillImage"/>
   </cc:Work>
  </rdf:RDF>
 </metadata>
 <path d="m22.511 0.13229h125.13" fill="none" stroke="#6f8ce9" stroke-linecap="round" stroke-width=".26458"/>
 <rect x="22.52" y=".38572" width="125.45" height="15.022" fill="#1d232d"/>
 <rect x="22.52" y="15.408" width="125.45" height="15.022" fill="#1d232d"/>
 <path d="m22.511 15.174h125.13" fill="none" stroke="#6f8ce9" stroke-linecap="round" stroke-width=".26458"/>
 <rect x="22.52" y="45.453" width="125.45" height="15.022" fill="#1d232d"/>
 <rect x="22.52" y="30.431" width="125.45" height="15.022" fill="#1d232d"/>
 <g fill="none" stroke="#6f8ce9" stroke-linecap="round" stroke-width=".26458">
  <path d="m22.511 30.646h125.13"/>
  <path d="m22.511 45.688h125.13"/>
  <path d="m22.511 60.3h125.13"/>
 </g>
 <g fill="#e8eaec" stroke-width=".28222px">
  <g aria-label="Větší enginy">
   <path d="m1.9124 13.807h0.32544l0.69786-2.2009h-0.28518l-0.35228 1.1877c-0.073812 0.2617-0.13085 0.46971-0.21137 0.72805h-0.01342c-0.080522-0.25834-0.1342-0.46636-0.21137-0.72805l-0.35564-1.1877h-0.29525z"/>
   <path d="m3.033 12.995c0 0.53346 0.34557 0.85219 0.78173 0.85219 0.22144 0 0.3959-0.07717 0.53681-0.16775l-0.097297-0.18117c-0.12078 0.07717-0.25163 0.12749-0.40596 0.12749-0.31202 0-0.52339-0.22144-0.54352-0.57372h1.1005c0.00671-0.04026 0.010065-0.09394 0.010065-0.15098 0-0.46636-0.23486-0.76496-0.65089-0.76496-0.37241 0-0.73141 0.32544-0.73141 0.8589zm0.26841-0.12414c0.033551-0.3288 0.24157-0.51668 0.46971-0.51668 0.25499 0 0.40261 0.18453 0.40261 0.51668zm0.35228-0.98639h0.22479l0.31873-0.47307h-0.2013l-0.22479 0.30867h-0.01342l-0.22479-0.30867h-0.19795z"/>
   <path d="m4.8179 13.304c0 0.32209 0.11743 0.54352 0.46636 0.54352 0.10065 0 0.21137-0.0302 0.30196-0.06039l-0.053681-0.20802c-0.053681 0.02013-0.12749 0.04362-0.18453 0.04362-0.18788 0-0.25163-0.11407-0.25163-0.31538v-0.90588h0.43952v-0.22479h-0.43952v-0.45629h-0.2315l-0.033551 0.45629-0.25499 0.01678v0.20802h0.24157z"/>
   <path d="m5.7238 13.623c0.15433 0.12749 0.37577 0.22479 0.60727 0.22479 0.38583 0 0.5972-0.22144 0.5972-0.48649 0-0.30867-0.2617-0.40596-0.49655-0.4932-0.18453-0.07046-0.36235-0.13085-0.36235-0.28183 0-0.12414 0.093942-0.23486 0.2986-0.23486 0.14427 0 0.2617 0.06039 0.37241 0.14427l0.13085-0.17446c-0.12414-0.10065-0.30196-0.18453-0.50662-0.18453-0.35228 0-0.5603 0.2013-0.5603 0.463 0 0.27512 0.25499 0.38583 0.48649 0.46971 0.17782 0.0671 0.37241 0.14091 0.37241 0.30867 0 0.14091-0.10736 0.25499-0.32209 0.25499-0.19459 0-0.33886-0.08052-0.47978-0.1946zm0.5301-1.7379h0.22815l0.31538-0.47307h-0.19795l-0.22479 0.30867h-0.01342l-0.22479-0.30867h-0.2013z"/>
   <path d="m7.3107 13.807h0.27512v-1.6306h-0.27512zm0.50997-2.3955h-0.28854l-0.30196 0.47307h0.21137z"/>
   <path d="m8.693 12.995c0 0.53346 0.34557 0.85219 0.78173 0.85219 0.22144 0 0.3959-0.07717 0.53681-0.16775l-0.097297-0.18117c-0.12078 0.07717-0.25163 0.12749-0.40596 0.12749-0.31202 0-0.52339-0.22144-0.54352-0.57372h1.1005c0.0067-0.04026 0.01006-0.09394 0.01006-0.15098 0-0.46636-0.23486-0.76496-0.65089-0.76496-0.37241 0-0.73141 0.32544-0.73141 0.8589zm0.26841-0.12414c0.033551-0.3288 0.24157-0.51668 0.46971-0.51668 0.25499 0 0.40261 0.18453 0.40261 0.51668z"/>
   <path d="m10.478 13.807h0.27512v-1.181c0.1644-0.1644 0.27847-0.25163 0.44623-0.25163 0.21472 0 0.30867 0.13085 0.30867 0.43616v0.99646h0.27512v-1.0334c0-0.41603-0.15433-0.63746-0.49655-0.63746-0.22479 0-0.39254 0.12078-0.54688 0.27512h-0.01007l-0.02349-0.23486h-0.22814z"/>
   <path d="m12.431 14.082c0-0.09394 0.05033-0.19124 0.16775-0.27512 0.07046 0.02013 0.14762 0.02684 0.21137 0.02684h0.28183c0.21137 0 0.3288 0.05033 0.3288 0.2013 0 0.17111-0.20466 0.33215-0.51668 0.33215-0.29525 0-0.47307-0.11072-0.47307-0.28518zm-0.24157 0.0369c0 0.28183 0.27512 0.43952 0.67437 0.43952 0.50662 0 0.82535-0.2617 0.82535-0.56365 0-0.27176-0.19124-0.38919-0.57036-0.38919h-0.31538c-0.22144 0-0.28854-0.07381-0.28854-0.17782 0-0.09059 0.04697-0.14427 0.10401-0.1946 0.07381 0.03691 0.1644 0.05704 0.24492 0.05704 0.33215 0 0.5972-0.21808 0.5972-0.56701 0-0.13756-0.05704-0.2617-0.1342-0.33551h0.33551v-0.21137h-0.56701c-0.06039-0.02348-0.14091-0.04026-0.2315-0.04026-0.33215 0-0.61398 0.22479-0.61398 0.58043 0 0.1946 0.10401 0.35228 0.21137 0.43952v0.01342c-0.08388 0.05704-0.17782 0.1644-0.17782 0.30196 0 0.12749 0.06375 0.21472 0.14427 0.26505v0.01342c-0.14762 0.10065-0.23821 0.2315-0.23821 0.36906zm0.67437-1.0132c-0.18788 0-0.34557-0.15098-0.34557-0.38919s0.15433-0.37912 0.34557-0.37912c0.19124 0 0.34557 0.14091 0.34557 0.37912s-0.15769 0.38919-0.34557 0.38919z"/>
   <path d="m14.145 11.841c0.10736 0 0.19124-0.07381 0.19124-0.17782 0-0.10736-0.08388-0.17782-0.19124-0.17782-0.10736 0-0.19124 0.07046-0.19124 0.17782 0 0.10401 0.08388 0.17782 0.19124 0.17782zm-0.14091 1.9661h0.27512v-1.6306h-0.27512z"/>
   <path d="m14.829 13.807h0.27512v-1.181c0.1644-0.1644 0.27847-0.25163 0.44623-0.25163 0.21472 0 0.30867 0.13085 0.30867 0.43616v0.99646h0.27512v-1.0334c0-0.41603-0.15433-0.63746-0.49655-0.63746-0.22479 0-0.39254 0.12078-0.54688 0.27512h-0.01007l-0.02349-0.23486h-0.22815z"/>
   <path d="m16.554 14.257-0.05368 0.21808c0.05368 0.02013 0.11743 0.03355 0.19124 0.03355 0.3288 0 0.49655-0.24492 0.61062-0.56701l0.61398-1.7648h-0.26841l-0.29189 0.90252c-0.04362 0.14427-0.09059 0.31202-0.13756 0.45965h-0.01342c-0.05033-0.15098-0.10736-0.31873-0.15769-0.45965l-0.33215-0.90252h-0.28518l0.65424 1.6339-0.03691 0.12078c-0.0671 0.2013-0.18453 0.34893-0.36906 0.34893-0.04026 0-0.09059-0.01342-0.12414-0.02348z"/>
  </g>
  <g aria-label="Menší enginy">
   <path d="m-1.1921e-8 29.102h0.25834v-1.2112c0-0.1946-0.02013-0.45629-0.033551-0.65088h0.01342l0.17446 0.48984 0.42274 1.1508h0.16104l0.42274-1.1508 0.17446-0.48984h0.01342c-0.01342 0.19459-0.036906 0.45629-0.036906 0.65088v1.2112h0.26505v-2.2009h-0.3288l-0.42274 1.181-0.15433 0.44958h-0.01342l-0.15769-0.44958-0.4261-1.181h-0.33215z"/>
   <path d="m2.2848 28.291c0 0.53346 0.34557 0.85219 0.78173 0.85219 0.22144 0 0.3959-0.07717 0.53681-0.16775l-0.097297-0.18117c-0.12078 0.07717-0.25163 0.12749-0.40596 0.12749-0.31202 0-0.52339-0.22144-0.54352-0.57372h1.1005c0.00671-0.04026 0.010065-0.09394 0.010065-0.15098 0-0.46636-0.23486-0.76496-0.65089-0.76496-0.37241 0-0.73141 0.32544-0.73141 0.8589zm0.26841-0.12414c0.033551-0.3288 0.24157-0.51668 0.46971-0.51668 0.25499 0 0.40261 0.18453 0.40261 0.51668z"/>
   <path d="m4.0697 29.102h0.27512v-1.181c0.1644-0.1644 0.27847-0.25163 0.44623-0.25163 0.21473 0 0.30867 0.13085 0.30867 0.43616v0.99646h0.27512v-1.0334c0-0.41603-0.15433-0.63746-0.49655-0.63746-0.22479 0-0.39254 0.12078-0.54688 0.27512h-0.010065l-0.023486-0.23486h-0.22815z"/>
   <path d="m5.7238 28.918c0.15433 0.12749 0.37577 0.22479 0.60727 0.22479 0.38583 0 0.5972-0.22144 0.5972-0.48649 0-0.30867-0.2617-0.40596-0.49655-0.4932-0.18453-0.07046-0.36235-0.13085-0.36235-0.28183 0-0.12414 0.093942-0.23486 0.2986-0.23486 0.14427 0 0.2617 0.06039 0.37241 0.14427l0.13085-0.17446c-0.12414-0.10065-0.30196-0.18453-0.50662-0.18453-0.35228 0-0.5603 0.2013-0.5603 0.463 0 0.27512 0.25499 0.38583 0.48649 0.46971 0.17782 0.0671 0.37241 0.14091 0.37241 0.30867 0 0.14091-0.10736 0.25499-0.32209 0.25499-0.19459 0-0.33886-0.08052-0.47978-0.1946zm0.5301-1.7379h0.22815l0.31538-0.47307h-0.19795l-0.22479 0.30867h-0.01342l-0.22479-0.30867h-0.2013z"/>
   <path d="m7.3107 29.102h0.27512v-1.6306h-0.27512zm0.50997-2.3955h-0.28854l-0.30196 0.47307h0.21137z"/>
   <path d="m8.693 28.291c0 0.53346 0.34557 0.85219 0.78173 0.85219 0.22144 0 0.3959-0.07717 0.53681-0.16775l-0.097297-0.18117c-0.12078 0.07717-0.25163 0.12749-0.40596 0.12749-0.31202 0-0.52339-0.22144-0.54352-0.57372h1.1005c0.0067-0.04026 0.01007-0.09394 0.01007-0.15098 0-0.46636-0.23486-0.76496-0.65089-0.76496-0.37241 0-0.73141 0.32544-0.73141 0.8589zm0.26841-0.12414c0.033551-0.3288 0.24157-0.51668 0.46971-0.51668 0.25499 0 0.40261 0.18453 0.40261 0.51668z"/>
   <path d="m10.478 29.102h0.27512v-1.181c0.1644-0.1644 0.27847-0.25163 0.44622-0.25163 0.21472 0 0.30867 0.13085 0.30867 0.43616v0.99646h0.27512v-1.0334c0-0.41603-0.15433-0.63746-0.49655-0.63746-0.22479 0-0.39254 0.12078-0.54688 0.27512h-0.01007l-0.02349-0.23486h-0.22815z"/>
   <path d="m12.431 29.378c0-0.09394 0.05033-0.19124 0.16775-0.27512 0.07046 0.02013 0.14762 0.02684 0.21137 0.02684h0.28183c0.21137 0 0.3288 0.05033 0.3288 0.2013 0 0.17111-0.20466 0.33215-0.51668 0.33215-0.29525 0-0.47307-0.11072-0.47307-0.28518zm-0.24157 0.03691c0 0.28183 0.27512 0.43952 0.67437 0.43952 0.50662 0 0.82535-0.2617 0.82535-0.56365 0-0.27176-0.19124-0.38919-0.57036-0.38919h-0.31538c-0.22144 0-0.28854-0.07381-0.28854-0.17782 0-0.09059 0.04697-0.14427 0.10401-0.1946 0.07381 0.03691 0.1644 0.05704 0.24492 0.05704 0.33215 0 0.5972-0.21808 0.5972-0.56701 0-0.13756-0.05704-0.2617-0.1342-0.33551h0.33551v-0.21137h-0.56701c-0.06039-0.02349-0.14091-0.04026-0.2315-0.04026-0.33215 0-0.61398 0.22479-0.61398 0.58043 0 0.1946 0.10401 0.35228 0.21137 0.43952v0.01342c-0.08388 0.05704-0.17782 0.1644-0.17782 0.30196 0 0.12749 0.06375 0.21472 0.14427 0.26505v0.01342c-0.14762 0.10065-0.23821 0.2315-0.23821 0.36906zm0.67437-1.0132c-0.18788 0-0.34557-0.15098-0.34557-0.38919s0.15433-0.37912 0.34557-0.37912c0.19124 0 0.34557 0.14091 0.34557 0.37912s-0.15769 0.38919-0.34557 0.38919z"/>
   <path d="m14.145 27.136c0.10736 0 0.19124-0.07381 0.19124-0.17782 0-0.10736-0.08388-0.17782-0.19124-0.17782-0.10736 0-0.19124 0.07046-0.19124 0.17782 0 0.10401 0.08388 0.17782 0.19124 0.17782zm-0.14091 1.9661h0.27512v-1.6306h-0.27512z"/>
   <path d="m14.829 29.102h0.27512v-1.181c0.1644-0.1644 0.27847-0.25163 0.44623-0.25163 0.21472 0 0.30867 0.13085 0.30867 0.43616v0.99646h0.27512v-1.0334c0-0.41603-0.15433-0.63746-0.49655-0.63746-0.22479 0-0.39254 0.12078-0.54688 0.27512h-0.01007l-0.02349-0.23486h-0.22814z"/>
   <path d="m16.554 29.552-0.05368 0.21808c0.05368 0.02013 0.11743 0.03355 0.19124 0.03355 0.3288 0 0.49655-0.24492 0.61062-0.56701l0.61398-1.7648h-0.26841l-0.29189 0.90252c-0.04362 0.14427-0.09059 0.31202-0.13756 0.45964h-0.01342c-0.05033-0.15098-0.10736-0.31873-0.15769-0.45964l-0.33216-0.90252h-0.28518l0.65424 1.6339-0.03691 0.12078c-0.0671 0.2013-0.18453 0.34893-0.36906 0.34893-0.04026 0-0.09059-0.01342-0.12414-0.02349z"/>
  </g>
  <g aria-label="Toolkity">
   <path d="m7.4684 44.459h0.27847v-1.9661h0.66766v-0.23486h-1.6138v0.23486h0.66766z"/>
   <path d="m8.4313 43.647c0 0.54017 0.35564 0.85219 0.75489 0.85219s0.75489-0.31202 0.75489-0.85219c0-0.54688-0.35564-0.8589-0.75489-0.8589s-0.75489 0.31202-0.75489 0.8589zm0.28518 0c0-0.37577 0.19124-0.63076 0.46971-0.63076 0.28183 0 0.46971 0.25499 0.46971 0.63076 0 0.37241-0.18788 0.62404-0.46971 0.62404-0.27847 0-0.46971-0.25163-0.46971-0.62404z"/>
   <path d="m10.25 43.647c0 0.54017 0.35564 0.85219 0.75489 0.85219 0.39926 0 0.75489-0.31202 0.75489-0.85219 0-0.54688-0.35564-0.8589-0.75489-0.8589-0.39925 0-0.75489 0.31202-0.75489 0.8589zm0.28518 0c0-0.37577 0.19124-0.63076 0.46971-0.63076 0.28183 0 0.46971 0.25499 0.46971 0.63076 0 0.37241-0.18788 0.62404-0.46971 0.62404-0.27847 0-0.46971-0.25163-0.46971-0.62404z"/>
   <path d="m12.189 44.13c0 0.23821 0.08388 0.36906 0.29189 0.36906 0.07381 0 0.12078-0.01007 0.15769-0.02684l-0.03691-0.20802c-0.0302 0.0067-0.04362 0.0067-0.06039 0.0067-0.04026 0-0.07717-0.03355-0.07717-0.12078v-2.0802h-0.27512z"/>
   <path d="m13.045 44.459h0.27176v-0.42945l0.30531-0.35564 0.47642 0.78509h0.30196l-0.62069-0.97633 0.54688-0.65424h-0.30531l-0.6945 0.8589h-0.01006v-1.6171h-0.27176z"/>
   <path d="m14.846 42.492c0.10736 0 0.19124-0.07381 0.19124-0.17782 0-0.10736-0.08388-0.17782-0.19124-0.17782-0.10736 0-0.19124 0.07046-0.19124 0.17782 0 0.10401 0.08388 0.17782 0.19124 0.17782zm-0.14091 1.9661h0.27512v-1.6306h-0.27512z"/>
   <path d="m15.578 43.955c0 0.32209 0.11743 0.54352 0.46636 0.54352 0.10065 0 0.21137-0.0302 0.30196-0.06039l-0.05368-0.20802c-0.05368 0.02013-0.12749 0.04362-0.18453 0.04362-0.18788 0-0.25163-0.11407-0.25163-0.31538v-0.90587h0.43952v-0.22479h-0.43952v-0.45629h-0.2315l-0.03355 0.45629-0.25499 0.01678v0.20802h0.24157z"/>
   <path d="m16.554 44.908-0.05368 0.21808c0.05368 0.02013 0.11743 0.03355 0.19124 0.03355 0.3288 0 0.49655-0.24492 0.61062-0.56701l0.61398-1.7648h-0.26841l-0.29189 0.90252c-0.04362 0.14427-0.09059 0.31202-0.13756 0.45964h-0.01342c-0.05033-0.15098-0.10736-0.31873-0.15769-0.45964l-0.33215-0.90252h-0.28518l0.65424 1.6339-0.03691 0.12078c-0.0671 0.2013-0.18453 0.34893-0.36906 0.34893-0.04026 0-0.09059-0.01342-0.12414-0.02348z"/>
  </g>
  <g aria-label="Knihovny">
   <path d="m5.0628 58.945h0.28183v-0.69786l0.37577-0.44623 0.6576 1.1441h0.31202l-0.79515-1.3622 0.69115-0.83877h-0.31873l-0.91594 1.1038h-0.00671v-1.1038h-0.28183z"/>
   <path d="m6.9718 58.945h0.27512v-1.181c0.1644-0.1644 0.27847-0.25163 0.44623-0.25163 0.21473 0 0.30867 0.13085 0.30867 0.43616v0.99646h0.27512v-1.0334c0-0.41603-0.15433-0.63747-0.49655-0.63747-0.22479 0-0.39254 0.12078-0.54688 0.27512h-0.010065l-0.023486-0.23486h-0.22815z"/>
   <path d="m8.948 56.979c0.10736 0 0.19124-0.07381 0.19124-0.17782 0-0.10736-0.083877-0.17782-0.19124-0.17782-0.10736 0-0.19124 0.07046-0.19124 0.17782 0 0.10401 0.083877 0.17782 0.19124 0.17782zm-0.14091 1.9661h0.27512v-1.6306h-0.27512z"/>
   <path d="m9.6324 58.945h0.27512v-1.181c0.1644-0.1644 0.27847-0.25163 0.44623-0.25163 0.21472 0 0.30867 0.13085 0.30867 0.43616v0.99646h0.27512v-1.0334c0-0.41603-0.15433-0.63747-0.49655-0.63747-0.22479 0-0.38919 0.12078-0.54352 0.26841l0.010065-0.33551v-0.65089h-0.27512z"/>
   <path d="m11.337 58.133c0 0.54017 0.35564 0.85219 0.75489 0.85219 0.39925 0 0.75489-0.31202 0.75489-0.85219 0-0.54688-0.35564-0.8589-0.75489-0.8589-0.39926 0-0.75489 0.31202-0.75489 0.8589zm0.28518 0c0-0.37577 0.19124-0.63076 0.46971-0.63076 0.28183 0 0.46971 0.25499 0.46971 0.63076 0 0.37241-0.18788 0.62404-0.46971 0.62404-0.27847 0-0.46971-0.25163-0.46971-0.62404z"/>
   <path d="m13.615 58.945h0.32209l0.57707-1.6306h-0.27176l-0.30867 0.926c-0.04697 0.16104-0.10065 0.32544-0.14762 0.47978h-0.01342c-0.050327-0.15433-0.10401-0.31873-0.15098-0.47978l-0.30867-0.926h-0.28518z"/>
   <path d="m14.829 58.945h0.27512v-1.181c0.1644-0.1644 0.27847-0.25163 0.44622-0.25163 0.21473 0 0.30867 0.13085 0.30867 0.43616v0.99646h0.27512v-1.0334c0-0.41603-0.15433-0.63747-0.49655-0.63747-0.22479 0-0.39254 0.12078-0.54688 0.27512h-0.01007l-0.02348-0.23486h-0.22815z"/>
   <path d="m16.554 59.394-0.05368 0.21808c0.05368 0.02013 0.11743 0.03355 0.19124 0.03355 0.3288 0 0.49655-0.24492 0.61062-0.56701l0.61398-1.7648h-0.26841l-0.29189 0.90252c-0.04362 0.14427-0.09059 0.31202-0.13756 0.45965h-0.01342c-0.05033-0.15098-0.10736-0.31873-0.15769-0.45965l-0.33215-0.90252h-0.28518l0.65424 1.6339-0.03691 0.12078c-0.0671 0.2013-0.18453 0.34893-0.36906 0.34893-0.04026 0-0.09059-0.01342-0.12414-0.02349z"/>
  </g>
  <g aria-label="Unity">
   <path d="m73.192 13.037c0 0.56633 0.27377 0.75958 0.63343 0.75958 0.35966 0 0.63343-0.19325 0.63343-0.75958v-1.0334h-0.21472v1.0387c0 0.42408-0.1852 0.55828-0.41871 0.55828-0.22814 0-0.40797-0.1342-0.40797-0.55828v-1.0387h-0.22546z"/>
   <path d="m74.905 13.765h0.22009v-0.94478c0.13152-0.13152 0.22278-0.2013 0.35698-0.2013 0.17178 0 0.24693 0.10468 0.24693 0.34892v0.79716h0.22009v-0.82668c0-0.33282-0.12347-0.50997-0.39724-0.50997-0.17983 0-0.31403 0.09663-0.4375 0.22009h-0.0081l-0.01879-0.18788h-0.18246z"/>
   <path d="m76.486 12.192c0.08589 0 0.15299-0.05905 0.15299-0.14225 0-0.08589-0.0671-0.14226-0.15299-0.14226-0.08589 0-0.15299 0.05636-0.15299 0.14226 0 0.0832 0.0671 0.14225 0.15299 0.14225zm-0.11273 1.5728h0.22009v-1.3044h-0.22009z"/>
   <path d="m77.071 13.362c0 0.25767 0.09394 0.43482 0.37308 0.43482 0.08052 0 0.1691-0.02416 0.24156-0.04831l-0.04295-0.16641c-0.04294 0.0161-0.10199 0.03489-0.14762 0.03489-0.15031 0-0.2013-0.09126-0.2013-0.2523v-0.72469h0.35161v-0.17983h-0.35161v-0.36503h-0.18519l-0.02684 0.36503-0.20399 0.01342v0.16641h0.19325z"/>
   <path d="m77.852 14.124-0.04295 0.17446c0.04295 0.0161 0.09394 0.02684 0.15299 0.02684 0.26304 0 0.39724-0.19594 0.4885-0.4536l0.49118-1.4118h-0.21472l-0.23351 0.72201c-0.03489 0.11541-0.07247 0.24962-0.11004 0.36771h-0.01074c-0.04026-0.12078-0.08589-0.25498-0.12615-0.36771l-0.26572-0.72201h-0.22814l0.52339 1.3071-0.02952 0.09663c-0.05368 0.16104-0.14762 0.27914-0.29524 0.27914-0.03221 0-0.07247-0.01074-0.09931-0.01879z"/>
  </g>
  <g aria-label="Unreal Engine">
   <path d="m25.446 13.037c0 0.56633 0.27377 0.75958 0.63343 0.75958 0.35966 0 0.63343-0.19325 0.63343-0.75958v-1.0334h-0.21472v1.0387c0 0.42408-0.1852 0.55828-0.41871 0.55828-0.22814 0-0.40797-0.1342-0.40797-0.55828v-1.0387h-0.22546z"/>
   <path d="m27.158 13.765h0.22009v-0.94478c0.13152-0.13152 0.22278-0.2013 0.35698-0.2013 0.17178 0 0.24693 0.10468 0.24693 0.34892v0.79716h0.22009v-0.82668c0-0.33282-0.12346-0.50997-0.39724-0.50997-0.17983 0-0.31403 0.09663-0.4375 0.22009h-0.0081l-0.01879-0.18788h-0.18252z"/>
   <path d="m28.626 13.765h0.22009v-0.83742c0.08857-0.22009 0.22009-0.30061 0.33014-0.30061 0.05368 0 0.08321 0.0081 0.12615 0.02147l0.04294-0.19325c-0.04294-0.01879-0.0832-0.02684-0.13957-0.02684-0.14762 0-0.28182 0.10468-0.3704 0.2684h-0.0081l-0.01879-0.2362h-0.18252z"/>
   <path d="m29.434 13.115c0 0.42676 0.27646 0.68175 0.62538 0.68175 0.17715 0 0.31672-0.06173 0.42945-0.1342l-0.07784-0.14494c-0.09662 0.06173-0.2013 0.10199-0.32477 0.10199-0.24962 0-0.41871-0.17715-0.43482-0.45897h0.88036c0.0054-0.03221 0.0081-0.07515 0.0081-0.12078 0-0.37308-0.18788-0.61196-0.5207-0.61196-0.29793 0-0.58512 0.26035-0.58512 0.68711zm0.21472-0.09931c0.02684-0.26304 0.19325-0.41334 0.37577-0.41334 0.20399 0 0.32208 0.14762 0.32208 0.41334z"/>
   <path d="m30.76 13.426c0 0.23351 0.16373 0.3704 0.38382 0.3704 0.16104 0 0.30598-0.08589 0.43213-0.18788h0.0054l0.01879 0.15567h0.18252v-0.79984c0-0.32477-0.1342-0.53681-0.4536-0.53681-0.20936 0-0.39187 0.09126-0.51265 0.1691l0.08857 0.15299c0.10199-0.06978 0.2362-0.13957 0.38919-0.13957 0.21204 0 0.2684 0.16104 0.2684 0.32745-0.5556 0.06173-0.80253 0.20399-0.80253 0.4885zm0.21741-0.0161c0-0.16641 0.14762-0.27377 0.58512-0.32745v0.36234c-0.12615 0.11273-0.23083 0.17446-0.35698 0.17446-0.12883 0-0.22814-0.06173-0.22814-0.20936z"/>
   <path d="m32.199 13.502c0 0.19057 0.0671 0.29524 0.23351 0.29524 0.05905 0 0.09663-0.0081 0.12615-0.02147l-0.029524-0.16641c-0.02416 0.0054-0.03489 0.0054-0.04831 0.0054-0.03221 0-0.06173-0.02684-0.06173-0.09663v-1.6641h-0.22009z"/>
   <path d="m33.439 13.765h1.0414v-0.19057h-0.81595v-0.6388h0.66564v-0.19057h-0.66564v-0.55291h0.78911v-0.18788h-1.0146z"/>
   <path d="m34.826 13.765h0.22009v-0.94478c0.13152-0.13152 0.22278-0.2013 0.35698-0.2013 0.17178 0 0.24693 0.10468 0.24693 0.34892v0.79716h0.22009v-0.82668c0-0.33282-0.12347-0.50997-0.39724-0.50997-0.17983 0-0.31403 0.09663-0.4375 0.22009h-0.0081l-0.01879-0.18788h-0.18251z"/>
   <path d="m36.388 13.985c0-0.07515 0.04026-0.15299 0.1342-0.22009 0.05636 0.0161 0.1181 0.02147 0.1691 0.02147h0.22546c0.16909 0 0.26304 0.04026 0.26304 0.16104 0 0.13689-0.16373 0.26572-0.41334 0.26572-0.2362 0-0.37845-0.08857-0.37845-0.22814zm-0.19325 0.02953c0 0.22546 0.22009 0.35161 0.53949 0.35161 0.40529 0 0.66027-0.20936 0.66027-0.45092 0-0.21741-0.15299-0.31135-0.45629-0.31135h-0.2523c-0.17715 0-0.23083-0.05905-0.23083-0.14225 0-0.07247 0.03758-0.11541 0.0832-0.15568 0.05905 0.02953 0.13152 0.04563 0.19594 0.04563 0.26572 0 0.47776-0.17446 0.47776-0.4536 0-0.11004-0.04563-0.20936-0.10736-0.2684h0.2684v-0.16909h-0.4536c-0.04831-0.01879-0.11273-0.03221-0.1852-0.03221-0.26572 0-0.49118 0.17983-0.49118 0.46434 0 0.15567 0.0832 0.28182 0.16909 0.35161v0.01074c-0.0671 0.04563-0.14225 0.13152-0.14225 0.24156 0 0.10199 0.051 0.17178 0.11541 0.21204v0.01074c-0.1181 0.08052-0.19057 0.1852-0.19057 0.29524zm0.53949-0.81058c-0.15031 0-0.27646-0.12078-0.27646-0.31135s0.12347-0.3033 0.27646-0.3033 0.27646 0.11273 0.27646 0.3033-0.12615 0.31135-0.27646 0.31135z"/>
   <path d="m37.76 12.192c0.08589 0 0.15299-0.05905 0.15299-0.14225 0-0.08589-0.0671-0.14226-0.15299-0.14226s-0.15299 0.05636-0.15299 0.14226c0 0.0832 0.0671 0.14225 0.15299 0.14225zm-0.11273 1.5728h0.22009v-1.3044h-0.22009z"/>
   <path d="m38.307 13.765h0.22009v-0.94478c0.13152-0.13152 0.22278-0.2013 0.35698-0.2013 0.17178 0 0.24693 0.10468 0.24693 0.34892v0.79716h0.22009v-0.82668c0-0.33282-0.12347-0.50997-0.39724-0.50997-0.17983 0-0.31403 0.09663-0.4375 0.22009h-0.0081l-0.01879-0.18788h-0.18251z"/>
   <path d="m39.679 13.115c0 0.42676 0.27646 0.68175 0.62538 0.68175 0.17715 0 0.31672-0.06173 0.42945-0.1342l-0.07784-0.14494c-0.09663 0.06173-0.2013 0.10199-0.32477 0.10199-0.24962 0-0.41871-0.17715-0.43481-0.45897h0.88036c0.0054-0.03221 0.0081-0.07515 0.0081-0.12078 0-0.37308-0.18788-0.61196-0.5207-0.61196-0.29793 0-0.58512 0.26035-0.58512 0.68711zm0.21472-0.09931c0.02684-0.26304 0.19325-0.41334 0.37577-0.41334 0.20399 0 0.32208 0.14762 0.32208 0.41334z"/>
  </g>
  <g aria-label="CryEngine">
   <path d="m48.748 12.884c0 0.57438 0.33014 0.91257 0.773 0.91257 0.22278 0 0.39724-0.09394 0.53412-0.25498l-0.12615-0.13689c-0.11273 0.12615-0.2362 0.19594-0.40261 0.19594-0.3355 0-0.54754-0.27914-0.54754-0.72201 0-0.4375 0.22278-0.71127 0.55828-0.71127 0.14494 0 0.25767 0.06442 0.35161 0.16373l0.12615-0.14225c-0.10468-0.11541-0.27109-0.21741-0.48044-0.21741-0.45092 0-0.78642 0.34624-0.78642 0.91257z"/>
   <path d="m50.355 13.765h0.22009v-0.83742c0.08857-0.22009 0.22009-0.30061 0.33014-0.30061 0.05368 0 0.0832 0.0081 0.12615 0.02147l0.04294-0.19325c-0.04294-0.01879-0.0832-0.02684-0.13957-0.02684-0.14762 0-0.28182 0.10468-0.3704 0.2684h-0.0081l-0.01879-0.2362h-0.18251z"/>
   <path d="m51.249 14.124-0.04295 0.17446c0.04295 0.0161 0.09394 0.02684 0.15299 0.02684 0.26304 0 0.39724-0.19594 0.4885-0.4536l0.49118-1.4118h-0.21472l-0.23351 0.72201c-0.03489 0.11541-0.07247 0.24962-0.11004 0.36771h-0.01074c-0.04026-0.12078-0.08589-0.25498-0.12615-0.36771l-0.26572-0.72201h-0.22814l0.52339 1.3071-0.02952 0.09663c-0.05368 0.16104-0.14762 0.27914-0.29524 0.27914-0.03221 0-0.07247-0.01074-0.09931-0.01879z"/>
   <path d="m52.605 13.765h1.0414v-0.19057h-0.81595v-0.6388h0.66564v-0.19057h-0.66564v-0.55291h0.78911v-0.18788h-1.0146z"/>
   <path d="m53.992 13.765h0.22009v-0.94478c0.13152-0.13152 0.22278-0.2013 0.35698-0.2013 0.17178 0 0.24693 0.10468 0.24693 0.34892v0.79716h0.22009v-0.82668c0-0.33282-0.12347-0.50997-0.39724-0.50997-0.17983 0-0.31403 0.09663-0.4375 0.22009h-0.0081l-0.01879-0.18788h-0.18251z"/>
   <path d="m55.554 13.985c0-0.07515 0.04026-0.15299 0.1342-0.22009 0.05636 0.0161 0.1181 0.02147 0.1691 0.02147h0.22546c0.1691 0 0.26304 0.04026 0.26304 0.16104 0 0.13689-0.16373 0.26572-0.41334 0.26572-0.2362 0-0.37845-0.08857-0.37845-0.22814zm-0.19325 0.02953c0 0.22546 0.22009 0.35161 0.53949 0.35161 0.40529 0 0.66027-0.20936 0.66027-0.45092 0-0.21741-0.15299-0.31135-0.45629-0.31135h-0.2523c-0.17715 0-0.23083-0.05905-0.23083-0.14225 0-0.07247 0.03758-0.11541 0.0832-0.15568 0.05905 0.02953 0.13152 0.04563 0.19594 0.04563 0.26572 0 0.47776-0.17446 0.47776-0.4536 0-0.11004-0.04563-0.20936-0.10736-0.2684h0.2684v-0.16909h-0.4536c-0.04831-0.01879-0.11273-0.03221-0.1852-0.03221-0.26572 0-0.49118 0.17983-0.49118 0.46434 0 0.15567 0.0832 0.28182 0.1691 0.35161v0.01074c-0.0671 0.04563-0.14226 0.13152-0.14226 0.24156 0 0.10199 0.051 0.17178 0.11541 0.21204v0.01074c-0.1181 0.08052-0.19057 0.1852-0.19057 0.29524zm0.53949-0.81058c-0.15031 0-0.27646-0.12078-0.27646-0.31135s0.12347-0.3033 0.27646-0.3033c0.15299 0 0.27646 0.11273 0.27646 0.3033s-0.12615 0.31135-0.27646 0.31135z"/>
   <path d="m56.926 12.192c0.08589 0 0.15299-0.05905 0.15299-0.14225 0-0.08589-0.0671-0.14226-0.15299-0.14226s-0.15299 0.05636-0.15299 0.14226c0 0.0832 0.0671 0.14225 0.15299 0.14225zm-0.11273 1.5728h0.22009v-1.3044h-0.22009z"/>
   <path d="m57.474 13.765h0.22009v-0.94478c0.13152-0.13152 0.22278-0.2013 0.35698-0.2013 0.17178 0 0.24693 0.10468 0.24693 0.34892v0.79716h0.22009v-0.82668c0-0.33282-0.12347-0.50997-0.39724-0.50997-0.17983 0-0.31403 0.09663-0.4375 0.22009h-0.0081l-0.01879-0.18788h-0.18252z"/>
   <path d="m58.845 13.115c0 0.42676 0.27646 0.68175 0.62538 0.68175 0.17715 0 0.31672-0.06173 0.42945-0.1342l-0.07784-0.14494c-0.09663 0.06173-0.2013 0.10199-0.32477 0.10199-0.24962 0-0.41871-0.17715-0.43482-0.45897h0.88036c0.0054-0.03221 0.0081-0.07515 0.0081-0.12078 0-0.37308-0.18788-0.61196-0.5207-0.61196-0.29793 0-0.58512 0.26035-0.58512 0.68711zm0.21472-0.09931c0.02684-0.26304 0.19325-0.41334 0.37577-0.41334 0.20399 0 0.32208 0.14762 0.32208 0.41334z"/>
  </g>
  <g aria-label="Cocos2D">
   <path d="m49.532 28.291c0 0.57438 0.33014 0.91257 0.773 0.91257 0.22278 0 0.39724-0.09394 0.53412-0.25498l-0.12615-0.13689c-0.11273 0.12615-0.2362 0.19594-0.40261 0.19594-0.3355 0-0.54754-0.27914-0.54754-0.72201 0-0.4375 0.22278-0.71127 0.55828-0.71127 0.14494 0 0.25767 0.06442 0.35161 0.16373l0.12615-0.14225c-0.10468-0.11541-0.27109-0.21741-0.48044-0.21741-0.45092 0-0.78642 0.34624-0.78642 0.91257z"/>
   <path d="m51.043 28.522c0 0.43213 0.28451 0.68175 0.60391 0.68175s0.60391-0.24962 0.60391-0.68175c0-0.4375-0.28451-0.68711-0.60391-0.68711s-0.60391 0.24962-0.60391 0.68711zm0.22814 0c0-0.30061 0.15299-0.5046 0.37577-0.5046 0.22546 0 0.37576 0.20399 0.37576 0.5046 0 0.29793-0.15031 0.49923-0.37576 0.49923-0.22278 0-0.37577-0.2013-0.37577-0.49923z"/>
   <path d="m52.498 28.522c0 0.43213 0.26572 0.68175 0.61196 0.68175 0.15568 0 0.30598-0.06442 0.42408-0.16909l-0.09931-0.14494c-0.07784 0.06978-0.18252 0.13152-0.30598 0.13152-0.23888 0-0.40261-0.2013-0.40261-0.49923 0-0.30061 0.17178-0.5046 0.40797-0.5046 0.10468 0 0.1852 0.04831 0.26304 0.11541l0.11004-0.14225c-0.08857-0.0832-0.20936-0.15567-0.38113-0.15567-0.3355 0-0.62806 0.24962-0.62806 0.68711z"/>
   <path d="m53.665 28.522c0 0.43213 0.28451 0.68175 0.60391 0.68175s0.60391-0.24962 0.60391-0.68175c0-0.4375-0.28451-0.68711-0.60391-0.68711s-0.60391 0.24962-0.60391 0.68711zm0.22814 0c0-0.30061 0.15299-0.5046 0.37576-0.5046 0.22546 0 0.37577 0.20399 0.37577 0.5046 0 0.29793-0.15031 0.49923-0.37577 0.49923-0.22278 0-0.37576-0.2013-0.37576-0.49923z"/>
   <path d="m55.072 29.024c0.12346 0.10199 0.30061 0.17983 0.48581 0.17983 0.30866 0 0.47776-0.17715 0.47776-0.38919 0-0.24693-0.20936-0.32477-0.39724-0.39455-0.14762-0.05636-0.28988-0.10468-0.28988-0.22546 0-0.09931 0.07515-0.18788 0.23888-0.18788 0.11541 0 0.20936 0.04831 0.29793 0.11541l0.10468-0.13957c-0.09931-0.08052-0.24156-0.14762-0.40529-0.14762-0.28182 0-0.44824 0.16104-0.44824 0.3704 0 0.22009 0.20399 0.30866 0.38919 0.37577 0.14225 0.05368 0.29793 0.11273 0.29793 0.24693 0 0.11273-0.08589 0.20399-0.25767 0.20399-0.15567 0-0.27109-0.06442-0.38382-0.15567z"/>
   <path d="m56.229 29.172h1.1058v-0.19057h-0.49655c-0.08857 0-0.19325 0.0081-0.28719 0.0161 0.40529-0.42408 0.69785-0.74348 0.69785-1.0656 0-0.3033-0.19594-0.5046-0.51265-0.5046-0.22278 0-0.37576 0.10468-0.51802 0.26035l0.12615 0.12615c0.09931-0.11541 0.22278-0.20667 0.36503-0.20667 0.21741 0 0.32477 0.13957 0.32477 0.3355 0 0.27646-0.28988 0.58512-0.80521 1.0978z"/>
   <path d="m57.689 29.172h0.45092c0.53144 0 0.82132-0.32745 0.82132-0.88842 0-0.55828-0.28988-0.87231-0.83205-0.87231h-0.44018zm0.22546-0.18252v-1.3957h0.19862c0.41334 0 0.61733 0.24693 0.61733 0.6898 0 0.44555-0.20399 0.7059-0.61733 0.7059z"/>
  </g>
  <g aria-label="Löve">
   <path d="m94.082 29.172h0.9931v-0.19057h-0.76764v-1.5702h-0.22546z"/>
   <path d="m95.231 28.522c0 0.43213 0.28451 0.68175 0.60391 0.68175 0.3194 0 0.60391-0.24962 0.60391-0.68175 0-0.4375-0.28451-0.68711-0.60391-0.68711-0.3194 0-0.60391 0.24962-0.60391 0.68711zm0.22814 0c0-0.30061 0.15299-0.5046 0.37576-0.5046 0.22546 0 0.37577 0.20399 0.37577 0.5046 0 0.29793-0.15031 0.49923-0.37577 0.49923-0.22278 0-0.37576-0.2013-0.37576-0.49923zm0.14494-0.92868c0.07515 0 0.13152-0.05637 0.13152-0.13152 0-0.07515-0.05636-0.13152-0.13152-0.13152-0.07515 0-0.13152 0.05637-0.13152 0.13152 0 0.07515 0.05636 0.13152 0.13152 0.13152zm0.46166 0c0.07784 0 0.13152-0.05637 0.13152-0.13152 0-0.07515-0.05368-0.13152-0.13152-0.13152-0.07515 0-0.12883 0.05637-0.12883 0.13152 0 0.07515 0.05368 0.13152 0.12883 0.13152z"/>
   <path d="m97.054 29.172h0.25767l0.46166-1.3044h-0.21741l-0.24693 0.7408c-0.03758 0.12883-0.08052 0.26035-0.1181 0.38382h-0.01074c-0.04026-0.12347-0.08321-0.25498-0.12078-0.38382l-0.24693-0.7408h-0.22814z"/>
   <path d="m97.918 28.522c0 0.42676 0.27646 0.68175 0.62538 0.68175 0.17715 0 0.31672-0.06173 0.42945-0.1342l-0.07784-0.14494c-0.09663 0.06173-0.2013 0.10199-0.32477 0.10199-0.24962 0-0.41871-0.17715-0.43482-0.45897h0.88036c0.0054-0.03221 0.0081-0.07515 0.0081-0.12078 0-0.37308-0.18788-0.61196-0.5207-0.61196-0.29793 0-0.58512 0.26035-0.58512 0.68711zm0.21472-0.09931c0.02684-0.26304 0.19325-0.41334 0.37577-0.41334 0.20399 0 0.32208 0.14762 0.32208 0.41334z"/>
  </g>
  <g aria-label="GameMaker">
   <path d="m111.81 28.291c0 0.57438 0.33014 0.91257 0.79179 0.91257 0.2362 0 0.43213-0.09126 0.54755-0.20399v-0.7408h-0.57707v0.1852h0.37308v0.45897c-0.0698 0.06442-0.19325 0.10468-0.3194 0.10468-0.37577 0-0.58512-0.27914-0.58512-0.72201 0-0.4375 0.22814-0.71127 0.58512-0.71127 0.17446 0 0.28451 0.06978 0.37308 0.16373l0.12883-0.14225c-0.10467-0.10736-0.26572-0.21741-0.5046-0.21741-0.47239 0-0.81326 0.34624-0.81326 0.91257z"/>
   <path d="m113.47 28.834c0 0.23351 0.16372 0.3704 0.38382 0.3704 0.16104 0 0.30598-0.08589 0.43213-0.18788h5e-3l0.0188 0.15568h0.18252v-0.79984c0-0.32477-0.1342-0.53681-0.45361-0.53681-0.20935 0-0.39187 0.09126-0.51265 0.16909l0.0886 0.15299c0.10199-0.06978 0.23619-0.13957 0.38918-0.13957 0.21204 0 0.26841 0.16104 0.26841 0.32745-0.5556 0.06173-0.80253 0.20399-0.80253 0.4885zm0.21741-0.0161c0-0.16641 0.14762-0.27377 0.58512-0.32745v0.36235c-0.12615 0.11273-0.23083 0.17446-0.35698 0.17446-0.12884 0-0.22814-0.06173-0.22814-0.20936z"/>
   <path d="m114.91 29.172h0.22009v-0.94478c0.12078-0.1342 0.23083-0.2013 0.32746-0.2013 0.16641 0 0.24424 0.10468 0.24424 0.34893v0.79716h0.22009v-0.94478c0.12079-0.1342 0.22546-0.2013 0.32746-0.2013 0.16372 0 0.24156 0.10468 0.24156 0.34893v0.79716h0.22009v-0.82668c0-0.33282-0.12883-0.50997-0.39724-0.50997-0.15835 0-0.29256 0.10199-0.42944 0.24962-0.0537-0.15567-0.16104-0.24962-0.35966-0.24962-0.15568 0-0.29256 0.09663-0.40529 0.22009h-8e-3l-0.0188-0.18788h-0.18252z"/>
   <path d="m117.04 28.522c0 0.42676 0.27645 0.68175 0.62538 0.68175 0.17714 0 0.31671-0.06173 0.42944-0.1342l-0.0778-0.14494c-0.0966 0.06173-0.20131 0.10199-0.32477 0.10199-0.24962 0-0.41871-0.17715-0.43482-0.45897h0.88037c5e-3 -0.03221 8e-3 -0.07515 8e-3 -0.12078 0-0.37308-0.18788-0.61196-0.5207-0.61196-0.29793 0-0.58512 0.26035-0.58512 0.68711zm0.21472-0.09931c0.0268-0.26304 0.19325-0.41334 0.37577-0.41334 0.20398 0 0.32208 0.14762 0.32208 0.41334z"/>
   <path d="m118.48 29.172h0.20667v-0.96894c0-0.15567-0.0161-0.36503-0.0268-0.5207h0.0107l0.13957 0.39187 0.33819 0.92063h0.12884l0.33819-0.92063 0.13957-0.39187h0.0107c-0.0107 0.15568-0.0295 0.36503-0.0295 0.5207v0.96894h0.21204v-1.7607h-0.26304l-0.33819 0.94478-0.12346 0.35966h-0.0107l-0.12615-0.35966-0.34087-0.94478h-0.26572z"/>
   <path d="m120.34 28.834c0 0.23351 0.16372 0.3704 0.38381 0.3704 0.16105 0 0.30598-0.08589 0.43213-0.18788h5e-3l0.0188 0.15568h0.18252v-0.79984c0-0.32477-0.13421-0.53681-0.45361-0.53681-0.20935 0-0.39187 0.09126-0.51265 0.16909l0.0886 0.15299c0.102-0.06978 0.2362-0.13957 0.38919-0.13957 0.21204 0 0.2684 0.16104 0.2684 0.32745-0.55559 0.06173-0.80252 0.20399-0.80252 0.4885zm0.2174-0.0161c0-0.16641 0.14763-0.27377 0.58512-0.32745v0.36235c-0.12615 0.11273-0.23082 0.17446-0.35697 0.17446-0.12884 0-0.22815-0.06173-0.22815-0.20936z"/>
   <path d="m121.78 29.172h0.21741v-0.34356l0.24424-0.28451 0.38114 0.62807h0.24156l-0.49655-0.78106 0.4375-0.52339h-0.24424l-0.5556 0.68711h-8e-3v-1.2937h-0.21741z"/>
   <path d="m122.97 28.522c0 0.42676 0.27645 0.68175 0.62538 0.68175 0.17714 0 0.31671-0.06173 0.42944-0.1342l-0.0778-0.14494c-0.0966 0.06173-0.20131 0.10199-0.32477 0.10199-0.24962 0-0.41871-0.17715-0.43482-0.45897h0.88037c5e-3 -0.03221 8e-3 -0.07515 8e-3 -0.12078 0-0.37308-0.18788-0.61196-0.5207-0.61196-0.29793 0-0.58512 0.26035-0.58512 0.68711zm0.21472-0.09931c0.0268-0.26304 0.19325-0.41334 0.37576-0.41334 0.20399 0 0.32209 0.14762 0.32209 0.41334z"/>
   <path d="m124.39 29.172h0.22009v-0.83742c0.0886-0.22009 0.22009-0.30061 0.33013-0.30061 0.0537 0 0.0832 0.0081 0.12615 0.02147l0.043-0.19325c-0.043-0.01879-0.0832-0.02684-0.13957-0.02684-0.14762 0-0.28183 0.10468-0.3704 0.2684h-8e-3l-0.0188-0.2362h-0.18251z"/>
  </g>
  <g aria-label="Naughty Dog">
   <path d="m90.137 13.765h0.21204v-0.92063c0-0.1852-0.0161-0.37308-0.02684-0.55023h0.01074l0.19057 0.36235 0.63612 1.1085h0.23083v-1.7607h-0.21204v0.90989c0 0.1852 0.01879 0.38382 0.02953 0.56096h-0.01074l-0.19057-0.36503-0.6388-1.1058h-0.23083z"/>
   <path d="m91.782 13.426c0 0.23351 0.16373 0.3704 0.38382 0.3704 0.16104 0 0.30598-0.08589 0.43213-0.18788h0.0054l0.01879 0.15567h0.18252v-0.79984c0-0.32477-0.1342-0.53681-0.4536-0.53681-0.20936 0-0.39187 0.09126-0.51265 0.1691l0.08857 0.15299c0.10199-0.06978 0.2362-0.13957 0.38919-0.13957 0.21204 0 0.2684 0.16104 0.2684 0.32745-0.5556 0.06173-0.80253 0.20399-0.80253 0.4885zm0.21741-0.0161c0-0.16641 0.14762-0.27377 0.58512-0.32745v0.36234c-0.12615 0.11273-0.23083 0.17446-0.35698 0.17446-0.12883 0-0.22814-0.06173-0.22814-0.20936z"/>
   <path d="m93.202 13.287c0 0.33282 0.12347 0.50997 0.39992 0.50997 0.17983 0 0.30866-0.09394 0.42945-0.2362h0.0081l0.01879 0.20399h0.18251v-1.3044h-0.22009v0.92599c-0.12347 0.15299-0.21741 0.22009-0.35161 0.22009-0.17178 0-0.24425-0.10468-0.24425-0.34892v-0.79716h-0.22278z"/>
   <path d="m94.775 13.985c0-0.07515 0.04026-0.15299 0.1342-0.22009 0.05636 0.0161 0.1181 0.02147 0.16909 0.02147h0.22546c0.16909 0 0.26304 0.04026 0.26304 0.16104 0 0.13689-0.16373 0.26572-0.41334 0.26572-0.2362 0-0.37845-0.08857-0.37845-0.22814zm-0.19325 0.02953c0 0.22546 0.22009 0.35161 0.53949 0.35161 0.40529 0 0.66027-0.20936 0.66027-0.45092 0-0.21741-0.15299-0.31135-0.45629-0.31135h-0.2523c-0.17715 0-0.23083-0.05905-0.23083-0.14225 0-0.07247 0.03758-0.11541 0.0832-0.15568 0.05905 0.02953 0.13152 0.04563 0.19594 0.04563 0.26572 0 0.47776-0.17446 0.47776-0.4536 0-0.11004-0.04563-0.20936-0.10736-0.2684h0.2684v-0.16909h-0.4536c-0.04831-0.01879-0.11273-0.03221-0.1852-0.03221-0.26572 0-0.49118 0.17983-0.49118 0.46434 0 0.15567 0.0832 0.28182 0.16909 0.35161v0.01074c-0.0671 0.04563-0.14225 0.13152-0.14225 0.24156 0 0.10199 0.051 0.17178 0.11541 0.21204v0.01074c-0.1181 0.08052-0.19057 0.1852-0.19057 0.29524zm0.53949-0.81058c-0.15031 0-0.27646-0.12078-0.27646-0.31135s0.12347-0.3033 0.27646-0.3033 0.27646 0.11273 0.27646 0.3033-0.12615 0.31135-0.27646 0.31135z"/>
   <path d="m96.034 13.765h0.22009v-0.94478c0.13152-0.13152 0.22278-0.2013 0.35698-0.2013 0.17178 0 0.24693 0.10468 0.24693 0.34892v0.79716h0.22009v-0.82668c0-0.33282-0.12346-0.50997-0.39724-0.50997-0.17983 0-0.31135 0.09663-0.43481 0.21472l0.0081-0.2684v-0.5207h-0.22014z"/>
   <path d="m97.532 13.362c0 0.25767 0.09394 0.43482 0.37308 0.43482 0.08052 0 0.1691-0.02416 0.24156-0.04831l-0.04295-0.16641c-0.04294 0.0161-0.10199 0.03489-0.14762 0.03489-0.15031 0-0.2013-0.09126-0.2013-0.2523v-0.72469h0.35161v-0.17983h-0.35161v-0.36503h-0.1852l-0.02684 0.36503-0.20399 0.01342v0.16641h0.19325z"/>
   <path d="m98.313 14.124-0.04294 0.17446c0.04294 0.0161 0.09394 0.02684 0.15299 0.02684 0.26304 0 0.39724-0.19594 0.4885-0.4536l0.49118-1.4118h-0.21472l-0.23351 0.72201c-0.03489 0.11541-0.07247 0.24962-0.11005 0.36771h-0.01074c-0.04026-0.12078-0.08589-0.25498-0.12615-0.36771l-0.26572-0.72201h-0.22814l0.52339 1.3071-0.02952 0.09663c-0.05368 0.16104-0.14762 0.27914-0.29524 0.27914-0.03221 0-0.07247-0.01074-0.09931-0.01879z"/>
   <path d="m100.21 13.765h0.45092c0.53144 0 0.82131-0.32745 0.82131-0.88842 0-0.55828-0.28987-0.87231-0.83205-0.87231h-0.44018zm0.22546-0.18252v-1.3957h0.19862c0.41334 0 0.61733 0.24693 0.61733 0.6898 0 0.44555-0.20399 0.7059-0.61733 0.7059z"/>
   <path d="m101.74 13.115c0 0.43213 0.28451 0.68175 0.60391 0.68175s0.60391-0.24962 0.60391-0.68175c0-0.4375-0.28451-0.68711-0.60391-0.68711s-0.60391 0.24962-0.60391 0.68711zm0.22815 0c0-0.30061 0.15299-0.5046 0.37576-0.5046 0.22546 0 0.37577 0.20399 0.37577 0.5046 0 0.29793-0.15031 0.49923-0.37577 0.49923-0.22277 0-0.37576-0.2013-0.37576-0.49923z"/>
   <path d="m103.39 13.985c0-0.07515 0.0403-0.15299 0.1342-0.22009 0.0564 0.0161 0.1181 0.02147 0.1691 0.02147h0.22546c0.16909 0 0.26303 0.04026 0.26303 0.16104 0 0.13689-0.16373 0.26572-0.41334 0.26572-0.2362 0-0.37845-0.08857-0.37845-0.22814zm-0.19325 0.02953c0 0.22546 0.22009 0.35161 0.53949 0.35161 0.40529 0 0.66027-0.20936 0.66027-0.45092 0-0.21741-0.15299-0.31135-0.45628-0.31135h-0.2523c-0.17715 0-0.23083-0.05905-0.23083-0.14225 0-0.07247 0.0376-0.11541 0.0832-0.15568 0.059 0.02953 0.13151 0.04563 0.19593 0.04563 0.26572 0 0.47776-0.17446 0.47776-0.4536 0-0.11004-0.0456-0.20936-0.10736-0.2684h0.2684v-0.16909h-0.4536c-0.0483-0.01879-0.11273-0.03221-0.1852-0.03221-0.26572 0-0.49118 0.17983-0.49118 0.46434 0 0.15567 0.0832 0.28182 0.1691 0.35161v0.01074c-0.0671 0.04563-0.14226 0.13152-0.14226 0.24156 0 0.10199 0.051 0.17178 0.11542 0.21204v0.01074c-0.1181 0.08052-0.19057 0.1852-0.19057 0.29524zm0.53949-0.81058c-0.15031 0-0.27646-0.12078-0.27646-0.31135s0.12347-0.3033 0.27646-0.3033 0.27646 0.11273 0.27646 0.3033-0.12615 0.31135-0.27646 0.31135z"/>
  </g>
  <g aria-label="RAGE Engine">
   <path d="m112.11 12.184h0.29524c0.27377 0 0.42408 0.0832 0.42408 0.31403 0 0.22814-0.15031 0.34087-0.42408 0.34087h-0.29524zm0.99578 1.5809-0.44824-0.76764c0.23888-0.06173 0.39456-0.22546 0.39456-0.49923 0-0.36503-0.25767-0.49386-0.61465-0.49386h-0.55291v1.7607h0.22546v-0.74348h0.31671l0.42408 0.74348z"/>
   <path d="m113.62 13.048 0.0859-0.2684c0.0617-0.19593 0.11809-0.38918 0.17446-0.59317h0.0107c0.0564 0.20399 0.11273 0.39724 0.17447 0.59317l0.0832 0.2684zm0.75421 0.71664h0.2362l-0.59586-1.7607h-0.2523l-0.59586 1.7607h0.22815l0.16909-0.53681h0.64149z"/>
   <path d="m114.71 12.884c0 0.57438 0.33014 0.91257 0.7918 0.91257 0.23619 0 0.43213-0.09126 0.54754-0.20399v-0.7408h-0.57707v0.1852h0.37308v0.45897c-0.0698 0.06442-0.19325 0.10468-0.3194 0.10468-0.37576 0-0.58512-0.27914-0.58512-0.72201 0-0.4375 0.22815-0.71127 0.58512-0.71127 0.17447 0 0.28451 0.06979 0.37308 0.16373l0.12884-0.14225c-0.10468-0.10736-0.26572-0.21741-0.5046-0.21741-0.47239 0-0.81327 0.34624-0.81327 0.91257z"/>
   <path d="m116.46 13.765h1.0414v-0.19057h-0.81595v-0.6388h0.66564v-0.19057h-0.66564v-0.55291h0.78911v-0.18788h-1.0146z"/>
   <path d="m118.4 13.765h1.0414v-0.19057h-0.81595v-0.6388h0.66564v-0.19057h-0.66564v-0.55291h0.78911v-0.18788h-1.0146z"/>
   <path d="m119.79 13.765h0.22009v-0.94478c0.13152-0.13152 0.22277-0.2013 0.35698-0.2013 0.17178 0 0.24693 0.10468 0.24693 0.34892v0.79716h0.22009v-0.82668c0-0.33282-0.12347-0.50997-0.39724-0.50997-0.17983 0-0.31403 0.09663-0.4375 0.22009h-8e-3l-0.0188-0.18788h-0.18251z"/>
   <path d="m121.35 13.985c0-0.07515 0.0403-0.15299 0.1342-0.22009 0.0564 0.0161 0.1181 0.02147 0.1691 0.02147h0.22546c0.16909 0 0.26303 0.04026 0.26303 0.16104 0 0.13689-0.16372 0.26572-0.41334 0.26572-0.23619 0-0.37845-0.08857-0.37845-0.22814zm-0.19325 0.02953c0 0.22546 0.22009 0.35161 0.53949 0.35161 0.40529 0 0.66028-0.20936 0.66028-0.45092 0-0.21741-0.15299-0.31135-0.45629-0.31135h-0.2523c-0.17715 0-0.23083-0.05905-0.23083-0.14225 0-0.07247 0.0376-0.11541 0.0832-0.15568 0.059 0.02953 0.13152 0.04563 0.19593 0.04563 0.26572 0 0.47776-0.17446 0.47776-0.4536 0-0.11004-0.0456-0.20936-0.10736-0.2684h0.26841v-0.16909h-0.45361c-0.0483-0.01879-0.11273-0.03221-0.1852-0.03221-0.26572 0-0.49118 0.17983-0.49118 0.46434 0 0.15567 0.0832 0.28182 0.1691 0.35161v0.01074c-0.0671 0.04563-0.14226 0.13152-0.14226 0.24156 0 0.10199 0.051 0.17178 0.11542 0.21204v0.01074c-0.1181 0.08052-0.19057 0.1852-0.19057 0.29524zm0.53949-0.81058c-0.1503 0-0.27645-0.12078-0.27645-0.31135s0.12346-0.3033 0.27645-0.3033 0.27646 0.11273 0.27646 0.3033-0.12615 0.31135-0.27646 0.31135z"/>
   <path d="m122.72 12.192c0.0859 0 0.15299-0.05905 0.15299-0.14225 0-0.08589-0.0671-0.14226-0.15299-0.14226-0.0859 0-0.15299 0.05636-0.15299 0.14226 0 0.0832 0.0671 0.14225 0.15299 0.14225zm-0.11273 1.5728h0.22009v-1.3044h-0.22009z"/>
   <path d="m123.27 13.765h0.22009v-0.94478c0.13152-0.13152 0.22278-0.2013 0.35698-0.2013 0.17178 0 0.24693 0.10468 0.24693 0.34892v0.79716h0.22009v-0.82668c0-0.33282-0.12346-0.50997-0.39724-0.50997-0.17983 0-0.31403 0.09663-0.43749 0.22009h-8e-3l-0.0188-0.18788h-0.18252z"/>
   <path d="m124.64 13.115c0 0.42676 0.27645 0.68175 0.62538 0.68175 0.17715 0 0.31672-0.06173 0.42945-0.1342l-0.0778-0.14494c-0.0966 0.06173-0.2013 0.10199-0.32477 0.10199-0.24962 0-0.41871-0.17715-0.43481-0.45897h0.88036c5e-3 -0.03221 8e-3 -0.07515 8e-3 -0.12078 0-0.37308-0.18788-0.61196-0.5207-0.61196-0.29793 0-0.58512 0.26035-0.58512 0.68711zm0.21472-0.09931c0.0268-0.26304 0.19325-0.41334 0.37577-0.41334 0.20398 0 0.32208 0.14762 0.32208 0.41334z"/>
  </g>
  <g aria-label="Godot">
   <path d="m72.093 28.291c0 0.57438 0.33014 0.91257 0.79179 0.91257 0.2362 0 0.43213-0.09126 0.54754-0.20399v-0.7408h-0.57707v0.1852h0.37308v0.45897c-0.06978 0.06442-0.19325 0.10468-0.3194 0.10468-0.37576 0-0.58512-0.27914-0.58512-0.72201 0-0.4375 0.22814-0.71127 0.58512-0.71127 0.17446 0 0.28451 0.06978 0.37308 0.16373l0.12883-0.14225c-0.10468-0.10736-0.26572-0.21741-0.5046-0.21741-0.47239 0-0.81326 0.34624-0.81326 0.91257z"/>
   <path d="m73.727 28.522c0 0.43213 0.28451 0.68175 0.60391 0.68175s0.60391-0.24962 0.60391-0.68175c0-0.4375-0.28451-0.68711-0.60391-0.68711s-0.60391 0.24962-0.60391 0.68711zm0.22814 0c0-0.30061 0.15299-0.5046 0.37577-0.5046 0.22546 0 0.37577 0.20399 0.37577 0.5046 0 0.29793-0.15031 0.49923-0.37577 0.49923-0.22278 0-0.37577-0.2013-0.37577-0.49923z"/>
   <path d="m75.185 28.522c0 0.43481 0.21204 0.68175 0.53949 0.68175 0.15299 0 0.29256-0.08589 0.39455-0.1852h0.0081l0.01879 0.15299h0.18251v-1.911h-0.22278v0.50192l0.01074 0.22278c-0.11541-0.09394-0.21472-0.15031-0.36503-0.15031-0.29793 0-0.56633 0.26304-0.56633 0.68711zm0.22814-0.0027c0-0.29793 0.16641-0.49923 0.37576-0.49923 0.10736 0 0.20667 0.03758 0.31672 0.13689v0.68175c-0.10736 0.12078-0.21204 0.17983-0.33282 0.17983-0.22814 0-0.35966-0.18788-0.35966-0.49923z"/>
   <path d="m76.672 28.522c0 0.43213 0.28451 0.68175 0.60391 0.68175 0.3194 0 0.60391-0.24962 0.60391-0.68175 0-0.4375-0.28451-0.68711-0.60391-0.68711-0.3194 0-0.60391 0.24962-0.60391 0.68711zm0.22814 0c0-0.30061 0.15299-0.5046 0.37577-0.5046 0.22546 0 0.37576 0.20399 0.37576 0.5046 0 0.29793-0.15031 0.49923-0.37576 0.49923-0.22278 0-0.37577-0.2013-0.37577-0.49923z"/>
   <path d="m78.261 28.769c0 0.25767 0.09394 0.43481 0.37308 0.43481 0.08052 0 0.1691-0.02416 0.24156-0.04831l-0.04295-0.16641c-0.04294 0.0161-0.10199 0.03489-0.14762 0.03489-0.15031 0-0.2013-0.09126-0.2013-0.2523v-0.72469h0.35161v-0.17983h-0.35161v-0.36503h-0.1852l-0.02684 0.36503-0.20399 0.01342v0.16641h0.19325z"/>
  </g>
  <g aria-label="Torque 2D">
   <path d="m27.909 29.172h0.22278v-1.5728h0.53412v-0.18788h-1.291v0.18788h0.53412z"/>
   <path d="m28.68 28.522c0 0.43213 0.28451 0.68175 0.60391 0.68175s0.60391-0.24962 0.60391-0.68175c0-0.4375-0.28451-0.68711-0.60391-0.68711s-0.60391 0.24962-0.60391 0.68711zm0.22814 0c0-0.30061 0.15299-0.5046 0.37576-0.5046 0.22546 0 0.37577 0.20399 0.37577 0.5046 0 0.29793-0.15031 0.49923-0.37577 0.49923-0.22278 0-0.37576-0.2013-0.37576-0.49923z"/>
   <path d="m30.231 29.172h0.22009v-0.83742c0.08857-0.22009 0.22009-0.30061 0.33014-0.30061 0.05368 0 0.0832 0.0081 0.12615 0.02147l0.04294-0.19325c-0.04294-0.01879-0.08321-0.02684-0.13957-0.02684-0.14762 0-0.28182 0.10468-0.3704 0.2684h-0.0081l-0.01879-0.2362h-0.18252z"/>
   <path d="m31.042 28.522c0 0.43481 0.21204 0.68175 0.53949 0.68175 0.15031 0 0.28719-0.08052 0.39187-0.17715l-0.01074 0.23083v0.46434h0.22278v-1.8547h-0.17715l-0.02147 0.12347h-0.0054c-0.1181-0.10199-0.22278-0.15567-0.37308-0.15567-0.29793 0-0.56633 0.26304-0.56633 0.68711zm0.22814-0.0027c0-0.29793 0.16641-0.49923 0.37577-0.49923 0.10736 0 0.20667 0.03758 0.31672 0.13689v0.68175c-0.10736 0.12078-0.21204 0.17983-0.33282 0.17983-0.22814 0-0.35966-0.18788-0.35966-0.49923z"/>
   <path d="m32.593 28.694c0 0.33282 0.12347 0.50997 0.39992 0.50997 0.17983 0 0.30866-0.09394 0.42945-0.2362h0.0081l0.01879 0.20399h0.18251v-1.3044h-0.22009v0.92599c-0.12347 0.15299-0.21741 0.22009-0.35161 0.22009-0.17178 0-0.24425-0.10468-0.24425-0.34892v-0.79716h-0.22278z"/>
   <path d="m33.975 28.522c0 0.42676 0.27646 0.68175 0.62538 0.68175 0.17715 0 0.31672-0.06173 0.42945-0.1342l-0.07784-0.14494c-0.09663 0.06173-0.2013 0.10199-0.32477 0.10199-0.24962 0-0.41871-0.17715-0.43482-0.45897h0.88036c0.0054-0.03221 0.0081-0.07515 0.0081-0.12078 0-0.37308-0.18788-0.61196-0.5207-0.61196-0.29793 0-0.58512 0.26035-0.58512 0.68711zm0.21472-0.09931c0.02684-0.26304 0.19325-0.41334 0.37577-0.41334 0.20399 0 0.32208 0.14762 0.32208 0.41334z"/>
   <path d="m35.833 29.172h1.1058v-0.19057h-0.49655c-0.08857 0-0.19325 0.0081-0.28719 0.0161 0.40529-0.42408 0.69785-0.74348 0.69785-1.0656 0-0.3033-0.19594-0.5046-0.51265-0.5046-0.22278 0-0.37577 0.10468-0.51802 0.26035l0.12615 0.12615c0.09931-0.11541 0.22278-0.20667 0.36503-0.20667 0.21741 0 0.32477 0.13957 0.32477 0.3355 0 0.27646-0.28988 0.58512-0.80521 1.0978z"/>
   <path d="m37.293 29.172h0.45092c0.53144 0 0.82132-0.32745 0.82132-0.88842 0-0.55828-0.28988-0.87231-0.83205-0.87231h-0.44018zm0.22546-0.18252v-1.3957h0.19862c0.41334 0 0.61733 0.24693 0.61733 0.6898 0 0.44555-0.20399 0.7059-0.61733 0.7059z"/>
  </g>
  <g aria-label="OpenFrameworks">
   <path d="m23.806 44.26c0.44018 0 0.75153-0.35429 0.75153-0.92062 0-0.56096-0.31135-0.90452-0.75153-0.90452-0.44287 0-0.75422 0.34087-0.75422 0.90452 0 0.56633 0.31135 0.92062 0.75422 0.92062zm0-0.19594c-0.31672 0-0.52339-0.28451-0.52339-0.72469 0-0.4375 0.20667-0.70859 0.52339-0.70859 0.31403 0 0.5207 0.27109 0.5207 0.70859 0 0.44018-0.20667 0.72469-0.5207 0.72469z"/>
   <path d="m25.124 44.109c0.12078 0.09394 0.24156 0.15031 0.36235 0.15031 0.29793 0 0.56365-0.26035 0.56365-0.70322 0-0.40529-0.17983-0.66564-0.51534-0.66564-0.15299 0-0.29793 0.0832-0.41603 0.18252h-0.0081l-0.01879-0.15031h-0.18252v1.8547h0.22009v-0.44018zm0.0054-0.17178v-0.68443c0.12883-0.11541 0.23888-0.17715 0.34892-0.17715 0.24693 0 0.34356 0.19325 0.34356 0.48044 0 0.32208-0.15836 0.51802-0.37308 0.51802-0.08589 0-0.2013-0.03758-0.3194-0.13689z"/>
   <path d="m26.303 43.578c0 0.42676 0.27646 0.68175 0.62538 0.68175 0.17715 0 0.31672-0.06173 0.42945-0.1342l-0.07784-0.14494c-0.09663 0.06173-0.2013 0.10199-0.32477 0.10199-0.24962 0-0.41871-0.17715-0.43482-0.45897h0.88036c0.0054-0.03221 0.0081-0.07515 0.0081-0.12078 0-0.37308-0.18788-0.61196-0.5207-0.61196-0.29793 0-0.58512 0.26035-0.58512 0.68711zm0.21472-0.09931c0.02684-0.26304 0.19325-0.41334 0.37577-0.41334 0.20399 0 0.32208 0.14762 0.32208 0.41334z"/>
   <path d="m27.73 44.227h0.22009v-0.94478c0.13152-0.13152 0.22278-0.2013 0.35698-0.2013 0.17178 0 0.24693 0.10468 0.24693 0.34892v0.79716h0.22009v-0.82668c0-0.33282-0.12347-0.50997-0.39724-0.50997-0.17983 0-0.31403 0.09662-0.4375 0.22009h-0.0081l-0.01879-0.18788h-0.18252z"/>
   <path d="m29.212 44.227h0.22546v-0.78911h0.67101v-0.18788h-0.67101v-0.59586h0.79179v-0.18788h-1.0173z"/>
   <path d="m30.457 44.227h0.22009v-0.83742c0.08857-0.22009 0.22009-0.30061 0.33014-0.30061 0.05368 0 0.08321 0.0081 0.12615 0.02147l0.04294-0.19325c-0.04294-0.01879-0.08321-0.02684-0.13957-0.02684-0.14762 0-0.28182 0.10468-0.3704 0.2684h-0.0081l-0.01879-0.2362h-0.18252z"/>
   <path d="m31.257 43.889c0 0.23351 0.16373 0.3704 0.38382 0.3704 0.16104 0 0.30598-0.08589 0.43213-0.18788h0.0054l0.01879 0.15567h0.18252v-0.79984c0-0.32477-0.1342-0.53681-0.4536-0.53681-0.20936 0-0.39187 0.09126-0.51265 0.16909l0.08857 0.15299c0.10199-0.06979 0.2362-0.13957 0.38918-0.13957 0.21204 0 0.2684 0.16104 0.2684 0.32745-0.5556 0.06173-0.80253 0.20399-0.80253 0.4885zm0.21741-0.0161c0-0.16641 0.14762-0.27377 0.58512-0.32745v0.36234c-0.12615 0.11273-0.23083 0.17446-0.35698 0.17446-0.12883 0-0.22814-0.06173-0.22814-0.20936z"/>
   <path d="m32.696 44.227h0.22009v-0.94478c0.12078-0.1342 0.23083-0.2013 0.32745-0.2013 0.16641 0 0.24425 0.10468 0.24425 0.34892v0.79716h0.22009v-0.94478c0.12078-0.1342 0.22546-0.2013 0.32745-0.2013 0.16373 0 0.24156 0.10468 0.24156 0.34892v0.79716h0.22009v-0.82668c0-0.33282-0.12883-0.50997-0.39724-0.50997-0.15836 0-0.29256 0.10199-0.42945 0.24962-0.05368-0.15568-0.16104-0.24962-0.35966-0.24962-0.15567 0-0.29256 0.09662-0.40529 0.22009h-0.0081l-0.01879-0.18788h-0.18252z"/>
   <path d="m34.824 43.578c0 0.42676 0.27646 0.68175 0.62538 0.68175 0.17715 0 0.31672-0.06173 0.42945-0.1342l-0.07784-0.14494c-0.09663 0.06173-0.2013 0.10199-0.32477 0.10199-0.24962 0-0.41871-0.17715-0.43481-0.45897h0.88036c0.0054-0.03221 0.0081-0.07515 0.0081-0.12078 0-0.37308-0.18788-0.61196-0.5207-0.61196-0.29793 0-0.58512 0.26035-0.58512 0.68711zm0.21472-0.09931c0.02684-0.26304 0.19325-0.41334 0.37576-0.41334 0.20399 0 0.32208 0.14762 0.32208 0.41334z"/>
   <path d="m36.472 44.227h0.25767l0.18251-0.69785c0.03489-0.12346 0.06173-0.24693 0.09126-0.37845h0.01074c0.03221 0.13152 0.05636 0.2523 0.08857 0.37576l0.18788 0.70054h0.2684l0.34892-1.3044h-0.20936l-0.19057 0.75422c-0.02684 0.12347-0.051 0.24156-0.08052 0.36234h-0.01074c-0.02952-0.12078-0.05905-0.23888-0.09126-0.36234l-0.20398-0.75422h-0.21472l-0.2013 0.75422c-0.03221 0.12078-0.05905 0.24156-0.08857 0.36234h-0.01074c-0.02416-0.12078-0.04831-0.23888-0.07784-0.36234l-0.19325-0.75422h-0.22546z"/>
   <path d="m38.085 43.578c0 0.43213 0.28451 0.68175 0.60391 0.68175s0.60391-0.24962 0.60391-0.68175c0-0.4375-0.28451-0.68711-0.60391-0.68711s-0.60391 0.24962-0.60391 0.68711zm0.22814 0c0-0.30061 0.15299-0.5046 0.37577-0.5046 0.22546 0 0.37577 0.20399 0.37577 0.5046 0 0.29793-0.15031 0.49923-0.37577 0.49923-0.22278 0-0.37577-0.2013-0.37577-0.49923z"/>
   <path d="m39.637 44.227h0.22009v-0.83742c0.08857-0.22009 0.22009-0.30061 0.33014-0.30061 0.05368 0 0.0832 0.0081 0.12615 0.02147l0.04294-0.19325c-0.04294-0.01879-0.0832-0.02684-0.13957-0.02684-0.14762 0-0.28182 0.10468-0.3704 0.2684h-0.0081l-0.01879-0.2362h-0.18251z"/>
   <path d="m40.568 44.227h0.21741v-0.34356l0.24425-0.28451 0.38113 0.62806h0.24156l-0.49655-0.78106 0.4375-0.52339h-0.24425l-0.5556 0.68712h-0.0081v-1.2937h-0.21741z"/>
   <path d="m41.752 44.08c0.12347 0.10199 0.30061 0.17983 0.48581 0.17983 0.30866 0 0.47776-0.17715 0.47776-0.38918 0-0.24693-0.20936-0.32477-0.39724-0.39455-0.14762-0.05636-0.28988-0.10468-0.28988-0.22546 0-0.09931 0.07515-0.18788 0.23888-0.18788 0.11541 0 0.20936 0.04831 0.29793 0.11541l0.10468-0.13957c-0.09931-0.08052-0.24156-0.14762-0.40529-0.14762-0.28182 0-0.44824 0.16104-0.44824 0.3704 0 0.22009 0.20399 0.30866 0.38919 0.37577 0.14225 0.05368 0.29793 0.11273 0.29793 0.24693 0 0.11273-0.08589 0.20399-0.25767 0.20399-0.15568 0-0.27109-0.06442-0.38382-0.15568z"/>
  </g>
  <g aria-label="Processing">
   <path d="m48.424 44.227h0.22546v-0.69785h0.31672c0.38382 0 0.64954-0.17446 0.64954-0.54486 0-0.3865-0.26035-0.51802-0.64954-0.51802h-0.54218zm0.22546-0.88036v-0.70054h0.28719c0.3033 0 0.45629 0.08321 0.45629 0.33819 0 0.24962-0.14762 0.36235-0.45629 0.36235z"/>
   <path d="m49.943 44.227h0.22009v-0.83742c0.08857-0.22009 0.22009-0.30061 0.33014-0.30061 0.05368 0 0.08321 0.0081 0.12615 0.02147l0.04295-0.19325c-0.04295-0.01879-0.08321-0.02684-0.13957-0.02684-0.14762 0-0.28182 0.10468-0.3704 0.2684h-0.0081l-0.01879-0.2362h-0.18247z"/>
   <path d="m50.751 43.578c0 0.43213 0.28451 0.68175 0.60391 0.68175 0.3194 0 0.60391-0.24962 0.60391-0.68175 0-0.4375-0.28451-0.68711-0.60391-0.68711-0.3194 0-0.60391 0.24962-0.60391 0.68711zm0.22814 0c0-0.30061 0.15299-0.5046 0.37577-0.5046 0.22546 0 0.37576 0.20399 0.37576 0.5046 0 0.29793-0.15031 0.49923-0.37576 0.49923-0.22278 0-0.37577-0.2013-0.37577-0.49923z"/>
   <path d="m52.206 43.578c0 0.43213 0.26572 0.68175 0.61196 0.68175 0.15567 0 0.30598-0.06442 0.42408-0.16909l-0.09931-0.14494c-0.07784 0.06978-0.18252 0.13152-0.30598 0.13152-0.23888 0-0.40261-0.2013-0.40261-0.49923 0-0.30061 0.17178-0.5046 0.40797-0.5046 0.10468 0 0.1852 0.04831 0.26304 0.11541l0.11005-0.14225c-0.08857-0.0832-0.20936-0.15567-0.38113-0.15567-0.3355 0-0.62806 0.24962-0.62806 0.68711z"/>
   <path d="m53.373 43.578c0 0.42676 0.27646 0.68175 0.62538 0.68175 0.17715 0 0.31672-0.06173 0.42945-0.1342l-0.07784-0.14494c-0.09662 0.06173-0.2013 0.10199-0.32477 0.10199-0.24962 0-0.41871-0.17715-0.43482-0.45897h0.88036c0.0054-0.03221 0.0081-0.07515 0.0081-0.12078 0-0.37308-0.18788-0.61196-0.5207-0.61196-0.29793 0-0.58512 0.26035-0.58512 0.68711zm0.21472-0.09931c0.02684-0.26304 0.19325-0.41334 0.37577-0.41334 0.20399 0 0.32208 0.14762 0.32208 0.41334z"/>
   <path d="m54.656 44.08c0.12347 0.10199 0.30061 0.17983 0.48581 0.17983 0.30866 0 0.47776-0.17715 0.47776-0.38918 0-0.24693-0.20936-0.32477-0.39724-0.39455-0.14762-0.05636-0.28988-0.10468-0.28988-0.22546 0-0.09931 0.07515-0.18788 0.23888-0.18788 0.11541 0 0.20936 0.04831 0.29793 0.11541l0.10468-0.13957c-0.09931-0.08052-0.24156-0.14762-0.40529-0.14762-0.28182 0-0.44823 0.16104-0.44823 0.3704 0 0.22009 0.20399 0.30866 0.38918 0.37577 0.14226 0.05368 0.29793 0.11273 0.29793 0.24693 0 0.11273-0.08589 0.20399-0.25767 0.20399-0.15567 0-0.27109-0.06442-0.38382-0.15568z"/>
   <path d="m55.781 44.08c0.12347 0.10199 0.30061 0.17983 0.48581 0.17983 0.30866 0 0.47776-0.17715 0.47776-0.38918 0-0.24693-0.20936-0.32477-0.39724-0.39455-0.14762-0.05636-0.28988-0.10468-0.28988-0.22546 0-0.09931 0.07515-0.18788 0.23888-0.18788 0.11541 0 0.20936 0.04831 0.29793 0.11541l0.10468-0.13957c-0.09931-0.08052-0.24156-0.14762-0.40529-0.14762-0.28182 0-0.44824 0.16104-0.44824 0.3704 0 0.22009 0.20399 0.30866 0.38919 0.37577 0.14225 0.05368 0.29793 0.11273 0.29793 0.24693 0 0.11273-0.08589 0.20399-0.25767 0.20399-0.15568 0-0.27109-0.06442-0.38382-0.15568z"/>
   <path d="m57.163 42.655c0.08589 0 0.15299-0.05905 0.15299-0.14225 0-0.08589-0.0671-0.14225-0.15299-0.14225s-0.15299 0.05636-0.15299 0.14225c0 0.08321 0.0671 0.14225 0.15299 0.14225zm-0.11273 1.5728h0.22009v-1.3044h-0.22009z"/>
   <path d="m57.711 44.227h0.22009v-0.94478c0.13152-0.13152 0.22278-0.2013 0.35698-0.2013 0.17178 0 0.24693 0.10468 0.24693 0.34892v0.79716h0.22009v-0.82668c0-0.33282-0.12346-0.50997-0.39724-0.50997-0.17983 0-0.31403 0.09662-0.4375 0.22009h-0.0081l-0.01879-0.18788h-0.18252z"/>
   <path d="m59.273 44.448c0-0.07515 0.04026-0.15299 0.1342-0.22009 0.05636 0.0161 0.1181 0.02147 0.1691 0.02147h0.22546c0.1691 0 0.26304 0.04026 0.26304 0.16104 0 0.13689-0.16373 0.26572-0.41334 0.26572-0.2362 0-0.37845-0.08857-0.37845-0.22814zm-0.19325 0.02952c0 0.22546 0.22009 0.35161 0.53949 0.35161 0.40529 0 0.66027-0.20936 0.66027-0.45092 0-0.21741-0.15299-0.31135-0.45629-0.31135h-0.2523c-0.17715 0-0.23083-0.05905-0.23083-0.14225 0-0.07247 0.03758-0.11541 0.08321-0.15567 0.05905 0.02952 0.13152 0.04563 0.19593 0.04563 0.26572 0 0.47776-0.17446 0.47776-0.4536 0-0.11005-0.04563-0.20936-0.10736-0.2684h0.2684v-0.1691h-0.4536c-0.04831-0.01879-0.11273-0.03221-0.1852-0.03221-0.26572 0-0.49118 0.17983-0.49118 0.46434 0 0.15567 0.0832 0.28182 0.1691 0.35161v0.01074c-0.0671 0.04563-0.14225 0.13152-0.14225 0.24156 0 0.10199 0.051 0.17178 0.11541 0.21204v0.01074c-0.1181 0.08052-0.19057 0.1852-0.19057 0.29524zm0.53949-0.81058c-0.15031 0-0.27646-0.12078-0.27646-0.31135s0.12347-0.3033 0.27646-0.3033c0.15299 0 0.27646 0.11273 0.27646 0.3033s-0.12615 0.31135-0.27646 0.31135z"/>
  </g>
  <g aria-label="p5.js">
   <path d="m73.677 44.109c0.12078 0.09394 0.24156 0.15031 0.36235 0.15031 0.29793 0 0.56365-0.26035 0.56365-0.70322 0-0.40529-0.17983-0.66564-0.51534-0.66564-0.15299 0-0.29793 0.0832-0.41603 0.18252h-0.0081l-0.01879-0.15031h-0.18252v1.8547h0.22009v-0.44018zm0.0054-0.17178v-0.68443c0.12883-0.11541 0.23888-0.17715 0.34892-0.17715 0.24693 0 0.34356 0.19325 0.34356 0.48044 0 0.32208-0.15836 0.51802-0.37308 0.51802-0.08589 0-0.2013-0.03758-0.3194-0.13689z"/>
   <path d="m74.799 44.026c0.1181 0.1181 0.28719 0.23351 0.56096 0.23351 0.29793 0 0.57707-0.20936 0.57707-0.57975 0-0.3704-0.23888-0.53681-0.53144-0.53681-0.10468 0-0.18252 0.02684-0.26304 0.06979l0.04563-0.50728h0.66296v-0.19057h-0.85621l-0.05636 0.824 0.1181 0.07515c0.10199-0.0671 0.17446-0.10468 0.29256-0.10468 0.22009 0 0.36503 0.13957 0.36503 0.37577 0 0.23888-0.16641 0.39187-0.37576 0.39187-0.2013 0-0.33014-0.09394-0.43213-0.19594z"/>
   <path d="m76.24 44.093c0 0.09663 0.07247 0.16641 0.16104 0.16641 0.08589 0 0.15836-0.06978 0.15836-0.16641 0-0.10199-0.07247-0.17178-0.15836-0.17178-0.08857 0-0.16104 0.06979-0.16104 0.17178z"/>
   <path d="m76.967 44.375c0 0.15836-0.03221 0.25498-0.16104 0.25498-0.04563 0-0.09126-0.01074-0.12347-0.02147l-0.04563 0.16641c0.04563 0.01879 0.11273 0.03489 0.19325 0.03489 0.26035 0 0.35698-0.1691 0.35698-0.43482v-1.4521h-0.22009zm0.11273-1.7205c0.0832 0 0.15031-0.05905 0.15031-0.14225 0-0.08589-0.0671-0.14225-0.15031-0.14225-0.08589 0-0.15299 0.05636-0.15299 0.14225 0 0.08321 0.0671 0.14225 0.15299 0.14225z"/>
   <path d="m77.483 44.08c0.12347 0.10199 0.30061 0.17983 0.48581 0.17983 0.30866 0 0.47776-0.17715 0.47776-0.38918 0-0.24693-0.20936-0.32477-0.39724-0.39455-0.14762-0.05636-0.28988-0.10468-0.28988-0.22546 0-0.09931 0.07515-0.18788 0.23888-0.18788 0.11541 0 0.20936 0.04831 0.29793 0.11541l0.10468-0.13957c-0.09931-0.08052-0.24156-0.14762-0.40529-0.14762-0.28182 0-0.44824 0.16104-0.44824 0.3704 0 0.22009 0.20399 0.30866 0.38919 0.37577 0.14225 0.05368 0.29793 0.11273 0.29793 0.24693 0 0.11273-0.08589 0.20399-0.25767 0.20399-0.15567 0-0.27109-0.06442-0.38382-0.15568z"/>
  </g>
  <g aria-label="BonsaiJS">
   <path d="m71.514 58.801h0.56365c0.39187 0 0.66564-0.16909 0.66564-0.51534 0-0.24156-0.15031-0.38113-0.40797-0.4214v-0.01074c0.20936-0.05368 0.30866-0.20936 0.30866-0.38382 0-0.30866-0.24962-0.42945-0.60659-0.42945h-0.52339zm0.22546-1.0092v-0.57438h0.27109c0.27109 0 0.41334 0.08052 0.41334 0.27109 0 0.19594-0.12615 0.3033-0.42408 0.3033zm0 0.83205v-0.66564h0.30598c0.30866 0 0.47776 0.09931 0.47776 0.31672 0 0.23888-0.17715 0.34893-0.47776 0.34893z"/>
   <path d="m72.969 58.152c0 0.43213 0.28451 0.68175 0.60391 0.68175s0.60391-0.24962 0.60391-0.68175c0-0.4375-0.28451-0.68712-0.60391-0.68712s-0.60391 0.24962-0.60391 0.68712zm0.22814 0c0-0.30061 0.15299-0.5046 0.37577-0.5046 0.22546 0 0.37576 0.20399 0.37576 0.5046 0 0.29793-0.15031 0.49923-0.37576 0.49923-0.22278 0-0.37577-0.2013-0.37577-0.49923z"/>
   <path d="m74.52 58.801h0.22009v-0.94478c0.13152-0.13152 0.22278-0.2013 0.35698-0.2013 0.17178 0 0.24693 0.10468 0.24693 0.34892v0.79716h0.22009v-0.82668c0-0.33282-0.12347-0.50997-0.39724-0.50997-0.17983 0-0.31403 0.09663-0.4375 0.22009h-0.0081l-0.01879-0.18788h-0.18252z"/>
   <path d="m75.844 58.654c0.12347 0.10199 0.30061 0.17983 0.48581 0.17983 0.30866 0 0.47776-0.17715 0.47776-0.38919 0-0.24693-0.20936-0.32477-0.39724-0.39455-0.14762-0.05636-0.28988-0.10468-0.28988-0.22546 0-0.09931 0.07515-0.18788 0.23888-0.18788 0.11541 0 0.20936 0.04831 0.29793 0.11541l0.10468-0.13957c-0.09931-0.08052-0.24156-0.14762-0.40529-0.14762-0.28182 0-0.44823 0.16104-0.44823 0.3704 0 0.22009 0.20399 0.30866 0.38919 0.37576 0.14225 0.05368 0.29793 0.11273 0.29793 0.24693 0 0.11273-0.08589 0.20399-0.25767 0.20399-0.15567 0-0.27109-0.06442-0.38382-0.15567z"/>
   <path d="m77.049 58.463c0 0.23351 0.16373 0.3704 0.38382 0.3704 0.16104 0 0.30598-0.08589 0.43213-0.18788h0.0054l0.01879 0.15567h0.18252v-0.79984c0-0.32477-0.1342-0.53681-0.4536-0.53681-0.20936 0-0.39187 0.09126-0.51265 0.1691l0.08857 0.15299c0.10199-0.06979 0.2362-0.13957 0.38919-0.13957 0.21204 0 0.2684 0.16104 0.2684 0.32745-0.5556 0.06173-0.80253 0.20399-0.80253 0.4885zm0.21741-0.0161c0-0.16641 0.14762-0.27377 0.58512-0.32745v0.36235c-0.12615 0.11273-0.23083 0.17446-0.35698 0.17446-0.12883 0-0.22814-0.06173-0.22814-0.20936z"/>
   <path d="m78.6 57.228c0.08589 0 0.15299-0.05905 0.15299-0.14225 0-0.08589-0.0671-0.14225-0.15299-0.14225s-0.15299 0.05636-0.15299 0.14225c0 0.0832 0.0671 0.14225 0.15299 0.14225zm-0.11273 1.5728h0.22009v-1.3044h-0.22009z"/>
   <path d="m79.005 58.552c0.10199 0.1852 0.26035 0.28182 0.48313 0.28182 0.34624 0 0.48581-0.24693 0.48581-0.55023v-1.2427h-0.22278v1.2212c0 0.2684-0.09394 0.37577-0.28182 0.37577-0.12615 0-0.22546-0.05905-0.30598-0.19862z"/>
   <path d="m80.307 58.573c0.15299 0.15836 0.36771 0.26035 0.61464 0.26035 0.3704 0 0.60122-0.22278 0.60122-0.50192 0-0.26035-0.15836-0.38113-0.36234-0.46971l-0.2523-0.10736c-0.13689-0.05905-0.29256-0.12347-0.29256-0.29256 0-0.15836 0.13152-0.25767 0.33014-0.25767 0.16104 0 0.29256 0.06442 0.39992 0.16641l0.1181-0.14494c-0.12347-0.12883-0.30866-0.21741-0.51802-0.21741-0.3194 0-0.5556 0.19862-0.5556 0.46702 0 0.25767 0.19325 0.38382 0.35698 0.4536l0.2523 0.11005c0.16641 0.07515 0.29524 0.13152 0.29524 0.31135 0 0.17178-0.13689 0.28719-0.36771 0.28719-0.1852 0-0.35966-0.08857-0.48581-0.22009z"/>
  </g>
  <g aria-label="SDL">
   <path d="m30.728 58.573c0.15299 0.15836 0.36771 0.26035 0.61464 0.26035 0.3704 0 0.60122-0.22278 0.60122-0.50192 0-0.26035-0.15836-0.38113-0.36234-0.46971l-0.2523-0.10736c-0.13689-0.05905-0.29256-0.12347-0.29256-0.29256 0-0.15836 0.13152-0.25767 0.33014-0.25767 0.16104 0 0.29256 0.06442 0.39992 0.16641l0.1181-0.14494c-0.12346-0.12883-0.30866-0.21741-0.51802-0.21741-0.3194 0-0.5556 0.19862-0.5556 0.46702 0 0.25767 0.19325 0.38382 0.35698 0.4536l0.2523 0.11005c0.16641 0.07515 0.29524 0.13152 0.29524 0.31135 0 0.17178-0.13689 0.28719-0.36771 0.28719-0.1852 0-0.35966-0.08857-0.48581-0.22009z"/>
   <path d="m32.274 58.801h0.45092c0.53144 0 0.82132-0.32745 0.82132-0.88842 0-0.55828-0.28988-0.87231-0.83205-0.87231h-0.44018zm0.22546-0.18251v-1.3957h0.19862c0.41334 0 0.61733 0.24693 0.61733 0.6898 0 0.44555-0.20399 0.7059-0.61733 0.7059z"/>
   <path d="m33.917 58.801h0.99309v-0.19057h-0.76764v-1.5702h-0.22546z"/>
  </g>
  <g aria-label="CreateJS">
   <path d="m50.381 57.921c0 0.57438 0.33014 0.91257 0.773 0.91257 0.22278 0 0.39724-0.09394 0.53412-0.25498l-0.12615-0.13689c-0.11273 0.12615-0.2362 0.19594-0.40261 0.19594-0.3355 0-0.54754-0.27914-0.54754-0.72201 0-0.4375 0.22278-0.71127 0.55828-0.71127 0.14494 0 0.25767 0.06442 0.35161 0.16373l0.12615-0.14225c-0.10468-0.11541-0.27109-0.21741-0.48044-0.21741-0.45092 0-0.78642 0.34624-0.78642 0.91257z"/>
   <path d="m51.988 58.801h0.22009v-0.83742c0.08857-0.22009 0.22009-0.30061 0.33014-0.30061 0.05368 0 0.0832 0.0081 0.12615 0.02147l0.04294-0.19325c-0.04294-0.01879-0.0832-0.02684-0.13957-0.02684-0.14762 0-0.28182 0.10468-0.3704 0.2684h-0.0081l-0.01879-0.2362h-0.18246z"/>
   <path d="m52.796 58.152c0 0.42676 0.27646 0.68175 0.62538 0.68175 0.17715 0 0.31672-0.06173 0.42945-0.1342l-0.07784-0.14494c-0.09662 0.06173-0.2013 0.10199-0.32477 0.10199-0.24962 0-0.41871-0.17715-0.43481-0.45897h0.88036c0.0054-0.03221 0.0081-0.07515 0.0081-0.12078 0-0.37308-0.18788-0.61196-0.5207-0.61196-0.29793 0-0.58512 0.26035-0.58512 0.68712zm0.21472-0.09931c0.02684-0.26304 0.19325-0.41334 0.37576-0.41334 0.20399 0 0.32208 0.14762 0.32208 0.41334z"/>
   <path d="m54.122 58.463c0 0.23351 0.16373 0.3704 0.38382 0.3704 0.16104 0 0.30598-0.08589 0.43213-0.18788h0.0054l0.01879 0.15567h0.18251v-0.79984c0-0.32477-0.1342-0.53681-0.4536-0.53681-0.20936 0-0.39187 0.09126-0.51265 0.1691l0.08857 0.15299c0.10199-0.06979 0.2362-0.13957 0.38919-0.13957 0.21204 0 0.2684 0.16104 0.2684 0.32745-0.5556 0.06173-0.80253 0.20399-0.80253 0.4885zm0.21741-0.0161c0-0.16641 0.14762-0.27377 0.58512-0.32745v0.36235c-0.12615 0.11273-0.23083 0.17446-0.35698 0.17446-0.12883 0-0.22814-0.06173-0.22814-0.20936z"/>
   <path d="m55.598 58.399c0 0.25767 0.09394 0.43482 0.37308 0.43482 0.08052 0 0.1691-0.02416 0.24156-0.04831l-0.04294-0.16641c-0.04294 0.0161-0.10199 0.03489-0.14762 0.03489-0.15031 0-0.2013-0.09126-0.2013-0.2523v-0.72469h0.35161v-0.17983h-0.35161v-0.36503h-0.1852l-0.02684 0.36503-0.20399 0.01342v0.16641h0.19325z"/>
   <path d="m56.345 58.152c0 0.42676 0.27646 0.68175 0.62538 0.68175 0.17715 0 0.31672-0.06173 0.42945-0.1342l-0.07784-0.14494c-0.09662 0.06173-0.2013 0.10199-0.32477 0.10199-0.24962 0-0.41871-0.17715-0.43481-0.45897h0.88036c0.0054-0.03221 0.0081-0.07515 0.0081-0.12078 0-0.37308-0.18788-0.61196-0.5207-0.61196-0.29793 0-0.58512 0.26035-0.58512 0.68712zm0.21472-0.09931c0.02684-0.26304 0.19325-0.41334 0.37576-0.41334 0.20399 0 0.32208 0.14762 0.32208 0.41334z"/>
   <path d="m57.577 58.552c0.10199 0.1852 0.26035 0.28182 0.48313 0.28182 0.34624 0 0.48581-0.24693 0.48581-0.55023v-1.2427h-0.22278v1.2212c0 0.2684-0.09394 0.37577-0.28182 0.37577-0.12615 0-0.22546-0.05905-0.30598-0.19862z"/>
   <path d="m58.878 58.573c0.15299 0.15836 0.36771 0.26035 0.61464 0.26035 0.3704 0 0.60122-0.22278 0.60122-0.50192 0-0.26035-0.15836-0.38113-0.36234-0.46971l-0.2523-0.10736c-0.13689-0.05905-0.29256-0.12347-0.29256-0.29256 0-0.15836 0.13152-0.25767 0.33014-0.25767 0.16104 0 0.29256 0.06442 0.39992 0.16641l0.1181-0.14494c-0.12346-0.12883-0.30866-0.21741-0.51802-0.21741-0.3194 0-0.5556 0.19862-0.5556 0.46702 0 0.25767 0.19325 0.38382 0.35698 0.4536l0.2523 0.11005c0.16641 0.07515 0.29524 0.13152 0.29524 0.31135 0 0.17178-0.13689 0.28719-0.36771 0.28719-0.1852 0-0.35966-0.08857-0.48581-0.22009z"/>
  </g>
  <g aria-label="KiwiJS">
   <path d="m94.521 58.801h0.22546v-0.55828l0.30061-0.35698 0.52607 0.91526h0.24962l-0.63612-1.0897 0.55291-0.67101h-0.25498l-0.73274 0.88305h-0.0054v-0.88305h-0.22546z"/>
   <path d="m96.161 57.228c0.08589 0 0.15299-0.05905 0.15299-0.14225 0-0.08589-0.0671-0.14225-0.15299-0.14225s-0.15299 0.05636-0.15299 0.14225c0 0.0832 0.0671 0.14225 0.15299 0.14225zm-0.11273 1.5728h0.22009v-1.3044h-0.22009z"/>
   <path d="m96.915 58.801h0.25767l0.18252-0.69785c0.03489-0.12347 0.06173-0.24693 0.09126-0.37845h0.01074c0.03221 0.13152 0.05636 0.2523 0.08857 0.37577l0.18788 0.70053h0.2684l0.34893-1.3044h-0.20936l-0.19057 0.75422c-0.02684 0.12347-0.051 0.24156-0.08052 0.36234h-0.01074c-0.02952-0.12078-0.05905-0.23888-0.09126-0.36234l-0.20398-0.75422h-0.21472l-0.2013 0.75422c-0.03221 0.12078-0.05905 0.24156-0.08857 0.36234h-0.01074c-0.02416-0.12078-0.04831-0.23888-0.07784-0.36234l-0.19325-0.75422h-0.22546z"/>
   <path d="m98.748 57.228c0.08589 0 0.15299-0.05905 0.15299-0.14225 0-0.08589-0.0671-0.14225-0.15299-0.14225-0.08589 0-0.15299 0.05636-0.15299 0.14225 0 0.0832 0.0671 0.14225 0.15299 0.14225zm-0.11273 1.5728h0.22009v-1.3044h-0.22009z"/>
   <path d="m99.154 58.552c0.10199 0.1852 0.26035 0.28182 0.48313 0.28182 0.34624 0 0.48582-0.24693 0.48582-0.55023v-1.2427h-0.22278v1.2212c0 0.2684-0.09394 0.37577-0.28182 0.37577-0.12615 0-0.22546-0.05905-0.30598-0.19862z"/>
   <path d="m100.46 58.573c0.15299 0.15836 0.36771 0.26035 0.61464 0.26035 0.3704 0 0.60123-0.22278 0.60123-0.50192 0-0.26035-0.15836-0.38113-0.36235-0.46971l-0.2523-0.10736c-0.13688-0.05905-0.29256-0.12347-0.29256-0.29256 0-0.15836 0.13152-0.25767 0.33014-0.25767 0.16104 0 0.29256 0.06442 0.39992 0.16641l0.1181-0.14494c-0.12347-0.12883-0.30866-0.21741-0.51802-0.21741-0.3194 0-0.5556 0.19862-0.5556 0.46702 0 0.25767 0.19325 0.38382 0.35698 0.4536l0.2523 0.11005c0.16641 0.07515 0.29525 0.13152 0.29525 0.31135 0 0.17178-0.13689 0.28719-0.36772 0.28719-0.1852 0-0.35966-0.08857-0.48581-0.22009z"/>
  </g>
  <g aria-label="Horde3D">
   <path d="m113.52 58.801h0.22546v-0.82937h0.81864v0.82937h0.22277v-1.7607h-0.22277v0.73811h-0.81864v-0.73811h-0.22546z"/>
   <path d="m115.15 58.152c0 0.43213 0.28451 0.68175 0.60391 0.68175s0.60391-0.24962 0.60391-0.68175c0-0.4375-0.28451-0.68712-0.60391-0.68712s-0.60391 0.24962-0.60391 0.68712zm0.22814 0c0-0.30061 0.153-0.5046 0.37577-0.5046 0.22546 0 0.37577 0.20399 0.37577 0.5046 0 0.29793-0.15031 0.49923-0.37577 0.49923-0.22277 0-0.37577-0.2013-0.37577-0.49923z"/>
   <path d="m116.7 58.801h0.22009v-0.83742c0.0886-0.22009 0.22009-0.30061 0.33013-0.30061 0.0537 0 0.0832 0.0081 0.12615 0.02147l0.043-0.19325c-0.043-0.01879-0.0832-0.02684-0.13957-0.02684-0.14762 0-0.28183 0.10468-0.3704 0.2684h-8e-3l-0.0188-0.2362h-0.18251z"/>
   <path d="m117.51 58.152c0 0.43481 0.21203 0.68175 0.53949 0.68175 0.15299 0 0.29256-0.08589 0.39455-0.1852h8e-3l0.0188 0.15299h0.18252v-1.911h-0.22278v0.50192l0.0107 0.22278c-0.11542-0.09394-0.21473-0.15031-0.36503-0.15031-0.29793 0-0.56633 0.26304-0.56633 0.68712zm0.22814-0.0027c0-0.29793 0.16641-0.49923 0.37576-0.49923 0.10737 0 0.20668 0.03758 0.31672 0.13689v0.68175c-0.10736 0.12078-0.21204 0.17983-0.33282 0.17983-0.22814 0-0.35966-0.18788-0.35966-0.49923z"/>
   <path d="m119 58.152c0 0.42676 0.27646 0.68175 0.62539 0.68175 0.17714 0 0.31671-0.06173 0.42944-0.1342l-0.0778-0.14494c-0.0966 0.06173-0.20131 0.10199-0.32477 0.10199-0.24962 0-0.41871-0.17715-0.43482-0.45897h0.88037c5e-3 -0.03221 8e-3 -0.07515 8e-3 -0.12078 0-0.37308-0.18788-0.61196-0.5207-0.61196-0.29793 0-0.58513 0.26035-0.58513 0.68712zm0.21473-0.09931c0.0268-0.26304 0.19325-0.41334 0.37576-0.41334 0.20399 0 0.32209 0.14762 0.32209 0.41334z"/>
   <path d="m120.28 58.592c0.11541 0.12615 0.28988 0.24156 0.56365 0.24156 0.31403 0 0.56365-0.1852 0.56365-0.4885 0-0.2362-0.16373-0.3865-0.3704-0.43481v-0.01074c0.1852-0.06979 0.31135-0.2013 0.31135-0.40797 0-0.27646-0.21473-0.43482-0.51265-0.43482-0.20131 0-0.35967 0.09126-0.49118 0.21472l0.11809 0.13957c0.102-0.10199 0.22278-0.17446 0.36503-0.17446 0.18252 0 0.29525 0.10468 0.29525 0.27109 0 0.17983-0.12078 0.3194-0.48581 0.3194v0.16909c0.40797 0 0.54754 0.13689 0.54754 0.34087 0 0.19057-0.14762 0.31403-0.35429 0.31403-0.20131 0-0.33551-0.09663-0.4375-0.20399z"/>
   <path d="m121.77 58.801h0.45092c0.53144 0 0.82132-0.32745 0.82132-0.88842 0-0.55828-0.28988-0.87231-0.83206-0.87231h-0.44018zm0.22546-0.18251v-1.3957h0.19862c0.41334 0 0.61733 0.24693 0.61733 0.6898 0 0.44555-0.20399 0.7059-0.61733 0.7059z"/>
  </g>
  <g aria-label="BabylonJS">
   <path d="m92.308 44.227h0.56365c0.39187 0 0.66564-0.1691 0.66564-0.51534 0-0.24156-0.15031-0.38113-0.40797-0.42139v-0.01074c0.20936-0.05368 0.30866-0.20936 0.30866-0.38382 0-0.30866-0.24962-0.42945-0.60659-0.42945h-0.52339zm0.22546-1.0092v-0.57438h0.27109c0.27109 0 0.41334 0.08052 0.41334 0.27109 0 0.19594-0.12615 0.3033-0.42408 0.3033zm0 0.83205v-0.66564h0.30598c0.30866 0 0.47776 0.09931 0.47776 0.31672 0 0.23888-0.17715 0.34892-0.47776 0.34892z"/>
   <path d="m93.795 43.889c0 0.23351 0.16373 0.3704 0.38382 0.3704 0.16104 0 0.30598-0.08589 0.43213-0.18788h0.0054l0.01879 0.15567h0.18252v-0.79984c0-0.32477-0.1342-0.53681-0.4536-0.53681-0.20936 0-0.39187 0.09126-0.51265 0.16909l0.08857 0.15299c0.10199-0.06979 0.2362-0.13957 0.38918-0.13957 0.21204 0 0.2684 0.16104 0.2684 0.32745-0.5556 0.06173-0.80253 0.20399-0.80253 0.4885zm0.21741-0.0161c0-0.16641 0.14762-0.27377 0.58512-0.32745v0.36234c-0.12615 0.11273-0.23083 0.17446-0.35698 0.17446-0.12883 0-0.22814-0.06173-0.22814-0.20936z"/>
   <path d="m95.234 44.227h0.17715l0.01879-0.12883h0.0081c0.11541 0.10199 0.2523 0.16104 0.37308 0.16104 0.29793 0 0.56365-0.26035 0.56365-0.7059 0-0.40261-0.17983-0.66296-0.51802-0.66296-0.14494 0-0.28988 0.07784-0.40797 0.18252l0.0054-0.2362v-0.5207h-0.22009zm0.22009-0.28988v-0.68443c0.12347-0.11541 0.23888-0.17715 0.34892-0.17715 0.24693 0 0.34356 0.19325 0.34356 0.48044 0 0.32208-0.15836 0.51802-0.37308 0.51802-0.08589 0-0.20399-0.03758-0.3194-0.13689z"/>
   <path d="m96.624 44.587-0.04295 0.17446c0.04295 0.0161 0.09394 0.02684 0.15299 0.02684 0.26304 0 0.39724-0.19594 0.4885-0.4536l0.49118-1.4118h-0.21472l-0.23351 0.72201c-0.03489 0.11541-0.07247 0.24962-0.11004 0.36771h-0.01074c-0.04026-0.12078-0.08589-0.25498-0.12615-0.36771l-0.26572-0.72201h-0.22814l0.52339 1.3071-0.02952 0.09662c-0.05368 0.16104-0.14762 0.27914-0.29524 0.27914-0.03221 0-0.07247-0.01074-0.09931-0.01879z"/>
   <path d="m97.966 43.964c0 0.19057 0.0671 0.29524 0.23351 0.29524 0.05905 0 0.09663-0.0081 0.12615-0.02147l-0.02953-0.16641c-0.02416 0.0054-0.03489 0.0054-0.04831 0.0054-0.03221 0-0.06173-0.02684-0.06173-0.09663v-1.6641h-0.22009z"/>
   <path d="m98.554 43.578c0 0.43213 0.28451 0.68175 0.60391 0.68175 0.3194 0 0.60391-0.24962 0.60391-0.68175 0-0.4375-0.28451-0.68711-0.60391-0.68711-0.3194 0-0.60391 0.24962-0.60391 0.68711zm0.22814 0c0-0.30061 0.15299-0.5046 0.37576-0.5046 0.22546 0 0.37577 0.20399 0.37577 0.5046 0 0.29793-0.15031 0.49923-0.37577 0.49923-0.22278 0-0.37576-0.2013-0.37576-0.49923z"/>
   <path d="m100.11 44.227h0.22009v-0.94478c0.13152-0.13152 0.22278-0.2013 0.35698-0.2013 0.17178 0 0.24693 0.10468 0.24693 0.34892v0.79716h0.22009v-0.82668c0-0.33282-0.12346-0.50997-0.39723-0.50997-0.17983 0-0.31404 0.09662-0.4375 0.22009h-8e-3l-0.0188-0.18788h-0.18252z"/>
   <path d="m101.43 43.978c0.10199 0.1852 0.26035 0.28182 0.48313 0.28182 0.34624 0 0.48581-0.24693 0.48581-0.55023v-1.2427h-0.22278v1.2212c0 0.2684-0.0939 0.37576-0.28182 0.37576-0.12615 0-0.22546-0.05905-0.30598-0.19862z"/>
   <path d="m102.73 43.999c0.15299 0.15836 0.36772 0.26035 0.61465 0.26035 0.3704 0 0.60122-0.22278 0.60122-0.50192 0-0.26035-0.15836-0.38113-0.36234-0.46971l-0.2523-0.10736c-0.13689-0.05905-0.29256-0.12347-0.29256-0.29256 0-0.15836 0.13152-0.25767 0.33013-0.25767 0.16105 0 0.29256 0.06442 0.39993 0.16641l0.11809-0.14494c-0.12346-0.12883-0.30866-0.21741-0.51802-0.21741-0.3194 0-0.55559 0.19862-0.55559 0.46702 0 0.25767 0.19325 0.38382 0.35698 0.4536l0.2523 0.11005c0.16641 0.07515 0.29524 0.13152 0.29524 0.31135 0 0.17178-0.13689 0.28719-0.36771 0.28719-0.1852 0-0.35967-0.08857-0.48581-0.22009z"/>
  </g>
  <g aria-label="Polycode">
   <path d="m113.6 44.227h0.22546v-0.69785h0.31672c0.38382 0 0.64954-0.17446 0.64954-0.54486 0-0.3865-0.26035-0.51802-0.64954-0.51802h-0.54218zm0.22546-0.88036v-0.70054h0.2872c0.30329 0 0.45628 0.08321 0.45628 0.33819 0 0.24962-0.14762 0.36235-0.45628 0.36235z"/>
   <path d="m114.95 43.578c0 0.43213 0.2845 0.68175 0.6039 0.68175 0.31941 0 0.60391-0.24962 0.60391-0.68175 0-0.4375-0.2845-0.68711-0.60391-0.68711-0.3194 0-0.6039 0.24962-0.6039 0.68711zm0.22814 0c0-0.30061 0.15299-0.5046 0.37576-0.5046 0.22546 0 0.37577 0.20399 0.37577 0.5046 0 0.29793-0.15031 0.49923-0.37577 0.49923-0.22277 0-0.37576-0.2013-0.37576-0.49923z"/>
   <path d="m116.51 43.964c0 0.19057 0.0671 0.29524 0.23351 0.29524 0.059 0 0.0966-0.0081 0.12615-0.02147l-0.0295-0.16641c-0.0242 0.0054-0.0349 0.0054-0.0483 0.0054-0.0322 0-0.0617-0.02684-0.0617-0.09663v-1.6641h-0.22009z"/>
   <path d="m117.1 44.587-0.043 0.17446c0.043 0.0161 0.0939 0.02684 0.15299 0.02684 0.26304 0 0.39724-0.19594 0.4885-0.4536l0.49118-1.4118h-0.21473l-0.23351 0.72201c-0.0349 0.11541-0.0725 0.24962-0.11004 0.36771h-0.0107c-0.0403-0.12078-0.0859-0.25498-0.12615-0.36771l-0.26572-0.72201h-0.22814l0.52338 1.3071-0.0295 0.09662c-0.0537 0.16104-0.14762 0.27914-0.29525 0.27914-0.0322 0-0.0725-0.01074-0.0993-0.01879z"/>
   <path d="m118.34 43.578c0 0.43213 0.26572 0.68175 0.61196 0.68175 0.15567 0 0.30598-0.06442 0.42408-0.16909l-0.0993-0.14494c-0.0778 0.06978-0.18252 0.13152-0.30598 0.13152-0.23888 0-0.40261-0.2013-0.40261-0.49923 0-0.30061 0.17178-0.5046 0.40797-0.5046 0.10468 0 0.1852 0.04831 0.26304 0.11541l0.11005-0.14225c-0.0886-0.0832-0.20936-0.15567-0.38114-0.15567-0.3355 0-0.62806 0.24962-0.62806 0.68711z"/>
   <path d="m119.5 43.578c0 0.43213 0.28451 0.68175 0.60391 0.68175s0.60391-0.24962 0.60391-0.68175c0-0.4375-0.28451-0.68711-0.60391-0.68711s-0.60391 0.24962-0.60391 0.68711zm0.22815 0c0-0.30061 0.15299-0.5046 0.37576-0.5046 0.22546 0 0.37577 0.20399 0.37577 0.5046 0 0.29793-0.15031 0.49923-0.37577 0.49923-0.22277 0-0.37576-0.2013-0.37576-0.49923z"/>
   <path d="m120.96 43.578c0 0.43482 0.21204 0.68175 0.53949 0.68175 0.15299 0 0.29256-0.08589 0.39455-0.1852h8e-3l0.0188 0.15299h0.18252v-1.911h-0.22278v0.50192l0.0107 0.22278c-0.11542-0.09394-0.21473-0.15031-0.36503-0.15031-0.29793 0-0.56633 0.26304-0.56633 0.68711zm0.22814-0.0027c0-0.29793 0.16641-0.49923 0.37577-0.49923 0.10736 0 0.20667 0.03758 0.31671 0.13689v0.68175c-0.10736 0.12078-0.21204 0.17983-0.33282 0.17983-0.22814 0-0.35966-0.18788-0.35966-0.49923z"/>
   <path d="m122.45 43.578c0 0.42676 0.27645 0.68175 0.62538 0.68175 0.17714 0 0.31671-0.06173 0.42944-0.1342l-0.0778-0.14494c-0.0966 0.06173-0.20131 0.10199-0.32477 0.10199-0.24962 0-0.41871-0.17715-0.43482-0.45897h0.88037c5e-3 -0.03221 8e-3 -0.07515 8e-3 -0.12078 0-0.37308-0.18788-0.61196-0.5207-0.61196-0.29793 0-0.58512 0.26035-0.58512 0.68711zm0.21472-0.09931c0.0268-0.26304 0.19325-0.41334 0.37576-0.41334 0.20399 0 0.32209 0.14762 0.32209 0.41334z"/>
  </g>
  <g aria-label="Source 2">
   <path d="m133.9 13.537c0.15299 0.15836 0.36771 0.26035 0.61464 0.26035 0.3704 0 0.60123-0.22278 0.60123-0.50192 0-0.26035-0.15836-0.38113-0.36235-0.46971l-0.2523-0.10736c-0.13688-0.05905-0.29256-0.12347-0.29256-0.29256 0-0.15836 0.13152-0.25767 0.33014-0.25767 0.16104 0 0.29256 0.06442 0.39992 0.16641l0.1181-0.14494c-0.12347-0.12883-0.30866-0.21741-0.51802-0.21741-0.3194 0-0.5556 0.19862-0.5556 0.46702 0 0.25767 0.19325 0.38382 0.35698 0.4536l0.2523 0.11005c0.16641 0.07515 0.29525 0.13152 0.29525 0.31135 0 0.17178-0.13689 0.28719-0.36772 0.28719-0.1852 0-0.35966-0.08857-0.48581-0.22009z"/>
   <path d="m135.33 13.115c0 0.43213 0.28451 0.68175 0.60391 0.68175s0.60391-0.24962 0.60391-0.68175c0-0.4375-0.28451-0.68711-0.60391-0.68711s-0.60391 0.24962-0.60391 0.68711zm0.22814 0c0-0.30061 0.15299-0.5046 0.37577-0.5046 0.22546 0 0.37576 0.20399 0.37576 0.5046 0 0.29793-0.1503 0.49923-0.37576 0.49923-0.22278 0-0.37577-0.2013-0.37577-0.49923z"/>
   <path d="m136.87 13.287c0 0.33282 0.12347 0.50997 0.39993 0.50997 0.17983 0 0.30866-0.09394 0.42944-0.2362h8e-3l0.0188 0.20399h0.18252v-1.3044h-0.22009v0.92599c-0.12347 0.15299-0.21741 0.22009-0.35161 0.22009-0.17178 0-0.24425-0.10468-0.24425-0.34892v-0.79716h-0.22278z"/>
   <path d="m138.35 13.765h0.22009v-0.83742c0.0886-0.22009 0.22009-0.30061 0.33014-0.30061 0.0537 0 0.0832 0.0081 0.12615 0.02147l0.0429-0.19325c-0.0429-0.01879-0.0832-0.02684-0.13957-0.02684-0.14762 0-0.28182 0.10468-0.37039 0.2684h-8e-3l-0.0188-0.2362h-0.18252z"/>
   <path d="m139.15 13.115c0 0.43213 0.26572 0.68175 0.61196 0.68175 0.15567 0 0.30598-0.06442 0.42408-0.1691l-0.0993-0.14494c-0.0778 0.06979-0.18252 0.13152-0.30598 0.13152-0.23888 0-0.40261-0.2013-0.40261-0.49923 0-0.30061 0.17178-0.5046 0.40798-0.5046 0.10467 0 0.18519 0.04831 0.26303 0.11541l0.11005-0.14225c-0.0886-0.08321-0.20936-0.15568-0.38114-0.15568-0.3355 0-0.62806 0.24962-0.62806 0.68711z"/>
   <path d="m140.32 13.115c0 0.42676 0.27646 0.68175 0.62539 0.68175 0.17714 0 0.31671-0.06173 0.42944-0.1342l-0.0778-0.14494c-0.0966 0.06173-0.2013 0.10199-0.32476 0.10199-0.24962 0-0.41871-0.17715-0.43482-0.45897h0.88037c5e-3 -0.03221 8e-3 -0.07515 8e-3 -0.12078 0-0.37308-0.18788-0.61196-0.52071-0.61196-0.29792 0-0.58512 0.26035-0.58512 0.68711zm0.21473-0.09931c0.0268-0.26304 0.19325-0.41334 0.37576-0.41334 0.20399 0 0.32209 0.14762 0.32209 0.41334z"/>
   <path d="m142.18 13.765h1.1058v-0.19057h-0.49654c-0.0886 0-0.19325 0.0081-0.2872 0.0161 0.40529-0.42408 0.69785-0.74348 0.69785-1.0656 0-0.3033-0.19593-0.5046-0.51265-0.5046-0.22277 0-0.37576 0.10468-0.51802 0.26035l0.12615 0.12615c0.0993-0.11541 0.22278-0.20667 0.36503-0.20667 0.21741 0 0.32477 0.13957 0.32477 0.3355 0 0.27646-0.28987 0.58512-0.80521 1.0978z"/>
  </g>
  <g aria-label="Phaser">
   <path d="m135.19 29.172h0.22546v-0.69785h0.31672c0.38381 0 0.64953-0.17446 0.64953-0.54486 0-0.3865-0.26035-0.51802-0.64953-0.51802h-0.54218zm0.22546-0.88037v-0.70053h0.28719c0.3033 0 0.45629 0.0832 0.45629 0.33819 0 0.24962-0.14762 0.36234-0.45629 0.36234z"/>
   <path d="m136.7 29.172h0.22009v-0.94478c0.13151-0.13152 0.22277-0.2013 0.35697-0.2013 0.17178 0 0.24694 0.10468 0.24694 0.34893v0.79716h0.22009v-0.82668c0-0.33282-0.12347-0.50997-0.39724-0.50997-0.17983 0-0.31135 0.09663-0.43482 0.21472l8e-3 -0.2684v-0.5207h-0.22009z"/>
   <path d="m138.1 28.834c0 0.23351 0.16372 0.3704 0.38382 0.3704 0.16104 0 0.30598-0.08589 0.43213-0.18788h5e-3l0.0188 0.15568h0.18252v-0.79984c0-0.32477-0.1342-0.53681-0.45361-0.53681-0.20935 0-0.39187 0.09126-0.51265 0.16909l0.0886 0.15299c0.10199-0.06978 0.23619-0.13957 0.38918-0.13957 0.21204 0 0.26841 0.16104 0.26841 0.32745-0.5556 0.06173-0.80253 0.20399-0.80253 0.4885zm0.21741-0.0161c0-0.16641 0.14762-0.27377 0.58512-0.32745v0.36235c-0.12615 0.11273-0.23083 0.17446-0.35698 0.17446-0.12884 0-0.22814-0.06173-0.22814-0.20936z"/>
   <path d="m139.39 29.024c0.12347 0.10199 0.30062 0.17983 0.48581 0.17983 0.30867 0 0.47776-0.17715 0.47776-0.38919 0-0.24693-0.20935-0.32477-0.39723-0.39455-0.14763-0.05636-0.28988-0.10468-0.28988-0.22546 0-0.09931 0.0752-0.18788 0.23888-0.18788 0.11541 0 0.20935 0.04831 0.29793 0.11541l0.10467-0.13957c-0.0993-0.08052-0.24156-0.14762-0.40529-0.14762-0.28182 0-0.44823 0.16104-0.44823 0.3704 0 0.22009 0.20399 0.30866 0.38919 0.37577 0.14225 0.05368 0.29792 0.11273 0.29792 0.24693 0 0.11273-0.0859 0.20399-0.25766 0.20399-0.15568 0-0.27109-0.06442-0.38382-0.15567z"/>
   <path d="m140.57 28.522c0 0.42676 0.27646 0.68175 0.62538 0.68175 0.17715 0 0.31672-0.06173 0.42945-0.1342l-0.0778-0.14494c-0.0966 0.06173-0.2013 0.10199-0.32477 0.10199-0.24961 0-0.41871-0.17715-0.43481-0.45897h0.88036c5e-3 -0.03221 8e-3 -0.07515 8e-3 -0.12078 0-0.37308-0.18788-0.61196-0.5207-0.61196-0.29793 0-0.58512 0.26035-0.58512 0.68711zm0.21472-0.09931c0.0268-0.26304 0.19325-0.41334 0.37577-0.41334 0.20399 0 0.32208 0.14762 0.32208 0.41334z"/>
   <path d="m141.99 29.172h0.22009v-0.83742c0.0886-0.22009 0.22009-0.30061 0.33014-0.30061 0.0537 0 0.0832 0.0081 0.12615 0.02147l0.0429-0.19325c-0.0429-0.01879-0.0832-0.02684-0.13957-0.02684-0.14762 0-0.28182 0.10468-0.37039 0.2684h-8e-3l-0.0188-0.2362h-0.18251z"/>
  </g>
  <g aria-label="PixiJS">
   <path d="m135.74 44.227h0.22546v-0.69785h0.31672c0.38382 0 0.64954-0.17446 0.64954-0.54486 0-0.3865-0.26035-0.51802-0.64954-0.51802h-0.54218zm0.22546-0.88036v-0.70054h0.2872c0.30329 0 0.45628 0.08321 0.45628 0.33819 0 0.24962-0.14762 0.36235-0.45628 0.36235z"/>
   <path d="m137.37 42.655c0.0859 0 0.15299-0.05905 0.15299-0.14225 0-0.08589-0.0671-0.14225-0.15299-0.14225-0.0859 0-0.15299 0.05636-0.15299 0.14225 0 0.08321 0.0671 0.14225 0.15299 0.14225zm-0.11273 1.5728h0.22009v-1.3044h-0.22009z"/>
   <path d="m137.74 44.227h0.23083l0.17714-0.3033c0.0429-0.08052 0.0859-0.15836 0.13152-0.23351h0.0107c0.0483 0.07515 0.0966 0.15567 0.14225 0.23351l0.19057 0.3033h0.23888l-0.42408-0.65759 0.39455-0.64685h-0.23082l-0.15836 0.28719c-0.0403 0.06979-0.0805 0.14494-0.1181 0.21741h-0.0107c-0.0456-0.07247-0.0886-0.14762-0.12883-0.21741l-0.17446-0.28719h-0.23888l0.39455 0.6227z"/>
   <path d="m139.23 42.655c0.0859 0 0.15299-0.05905 0.15299-0.14225 0-0.08589-0.0671-0.14225-0.15299-0.14225-0.0859 0-0.15299 0.05636-0.15299 0.14225 0 0.08321 0.0671 0.14225 0.15299 0.14225zm-0.11273 1.5728h0.22009v-1.3044h-0.22009z"/>
   <path d="m139.63 43.978c0.102 0.1852 0.26035 0.28182 0.48313 0.28182 0.34624 0 0.48581-0.24693 0.48581-0.55023v-1.2427h-0.22277v1.2212c0 0.2684-0.094 0.37576-0.28183 0.37576-0.12615 0-0.22546-0.05905-0.30598-0.19862z"/>
   <path d="m140.94 43.999c0.153 0.15836 0.36772 0.26035 0.61465 0.26035 0.3704 0 0.60122-0.22278 0.60122-0.50192 0-0.26035-0.15835-0.38113-0.36234-0.46971l-0.2523-0.10736c-0.13689-0.05905-0.29256-0.12347-0.29256-0.29256 0-0.15836 0.13152-0.25767 0.33014-0.25767 0.16104 0 0.29256 0.06442 0.39992 0.16641l0.1181-0.14494c-0.12347-0.12883-0.30867-0.21741-0.51802-0.21741-0.3194 0-0.5556 0.19862-0.5556 0.46702 0 0.25767 0.19325 0.38382 0.35698 0.4536l0.2523 0.11005c0.16641 0.07515 0.29524 0.13152 0.29524 0.31135 0 0.17178-0.13688 0.28719-0.36771 0.28719-0.1852 0-0.35966-0.08857-0.48581-0.22009z"/>
  </g>
  <g aria-label="PaperJS">
   <path d="m134.66 58.801h0.22546v-0.69785h0.31672c0.38382 0 0.64954-0.17446 0.64954-0.54486 0-0.3865-0.26036-0.51802-0.64954-0.51802h-0.54218zm0.22546-0.88036v-0.70053h0.28719c0.3033 0 0.45629 0.0832 0.45629 0.33819 0 0.24962-0.14762 0.36234-0.45629 0.36234z"/>
   <path d="m136 58.463c0 0.23351 0.16372 0.3704 0.38381 0.3704 0.16105 0 0.30599-0.08589 0.43214-0.18788h5e-3l0.0188 0.15567h0.18252v-0.79984c0-0.32477-0.13421-0.53681-0.45361-0.53681-0.20935 0-0.39187 0.09126-0.51265 0.1691l0.0886 0.15299c0.10199-0.06979 0.23619-0.13957 0.38918-0.13957 0.21204 0 0.26841 0.16104 0.26841 0.32745-0.5556 0.06173-0.80253 0.20399-0.80253 0.4885zm0.2174-0.0161c0-0.16641 0.14763-0.27377 0.58513-0.32745v0.36235c-0.12615 0.11273-0.23083 0.17446-0.35698 0.17446-0.12884 0-0.22815-0.06173-0.22815-0.20936z"/>
   <path d="m137.65 58.683c0.12079 0.09394 0.24157 0.15031 0.36235 0.15031 0.29793 0 0.56365-0.26035 0.56365-0.70322 0-0.40529-0.17983-0.66564-0.51534-0.66564-0.15299 0-0.29793 0.08321-0.41602 0.18252h-8e-3l-0.0188-0.15031h-0.18251v1.8547h0.22009v-0.44018zm5e-3 -0.17178v-0.68443c0.12884-0.11541 0.23888-0.17715 0.34893-0.17715 0.24693 0 0.34355 0.19325 0.34355 0.48044 0 0.32208-0.15835 0.51802-0.37308 0.51802-0.0859 0-0.2013-0.03758-0.3194-0.13689z"/>
   <path d="m138.83 58.152c0 0.42676 0.27645 0.68175 0.62538 0.68175 0.17715 0 0.31672-0.06173 0.42945-0.1342l-0.0778-0.14494c-0.0966 0.06173-0.2013 0.10199-0.32477 0.10199-0.24962 0-0.41871-0.17715-0.43481-0.45897h0.88036c5e-3 -0.03221 8e-3 -0.07515 8e-3 -0.12078 0-0.37308-0.18788-0.61196-0.5207-0.61196-0.29793 0-0.58512 0.26035-0.58512 0.68712zm0.21472-0.09931c0.0268-0.26304 0.19325-0.41334 0.37577-0.41334 0.20398 0 0.32208 0.14762 0.32208 0.41334z"/>
   <path d="m140.26 58.801h0.22009v-0.83742c0.0886-0.22009 0.22009-0.30061 0.33014-0.30061 0.0537 0 0.0832 0.0081 0.12615 0.02147l0.0429-0.19325c-0.0429-0.01879-0.0832-0.02684-0.13957-0.02684-0.14762 0-0.28182 0.10468-0.3704 0.2684h-8e-3l-0.0188-0.2362h-0.18251z"/>
   <path d="m140.9 58.552c0.102 0.1852 0.26035 0.28182 0.48313 0.28182 0.34624 0 0.48581-0.24693 0.48581-0.55023v-1.2427h-0.22277v1.2212c0 0.2684-0.094 0.37577-0.28183 0.37577-0.12615 0-0.22546-0.05905-0.30598-0.19862z"/>
   <path d="m142.2 58.573c0.15299 0.15836 0.36771 0.26035 0.61464 0.26035 0.3704 0 0.60123-0.22278 0.60123-0.50192 0-0.26035-0.15836-0.38113-0.36235-0.46971l-0.2523-0.10736c-0.13689-0.05905-0.29256-0.12347-0.29256-0.29256 0-0.15836 0.13152-0.25767 0.33014-0.25767 0.16104 0 0.29256 0.06442 0.39992 0.16641l0.1181-0.14494c-0.12347-0.12883-0.30867-0.21741-0.51802-0.21741-0.3194 0-0.5556 0.19862-0.5556 0.46702 0 0.25767 0.19325 0.38382 0.35698 0.4536l0.2523 0.11005c0.16641 0.07515 0.29524 0.13152 0.29524 0.31135 0 0.17178-0.13688 0.28719-0.36771 0.28719-0.1852 0-0.35966-0.08857-0.48581-0.22009z"/>
  </g>
 </g>
</svg>
