<?xml version="1.0" encoding="UTF-8"?>
<svg width="150.98mm" height="60.476mm" version="1.1" viewBox="0 0 150.98 60.476" xmlns="http://www.w3.org/2000/svg" xmlns:cc="http://creativecommons.org/ns#" xmlns:dc="http://purl.org/dc/elements/1.1/" xmlns:rdf="http://www.w3.org/1999/02/22-rdf-syntax-ns#">
 <metadata>
  <rdf:RDF>
   <cc:Work rdf:about="">
    <dc:format>image/svg+xml</dc:format>
    <dc:type rdf:resource="http://purl.org/dc/dcmitype/StillImage"/>
    <dc:title/>
   </cc:Work>
  </rdf:RDF>
 </metadata>
 <g transform="translate(-186.33 -100.56)">
  <path d="m211.86 100.69h125.13" fill="none" stroke="#6f8ce9" stroke-linecap="round" stroke-width=".26458"/>
  <rect x="211.87" y="100.95" width="125.45" height="15.022" fill="#1d232d"/>
  <rect x="211.87" y="115.97" width="125.45" height="15.022" fill="#1d232d"/>
  <path d="m211.86 115.73h125.13" fill="none" stroke="#6f8ce9" stroke-linecap="round" stroke-width=".26458"/>
  <rect x="211.87" y="146.01" width="125.45" height="15.022" fill="#1d232d"/>
  <rect x="211.87" y="130.99" width="125.45" height="15.022" fill="#1d232d"/>
  <g fill="none" stroke="#6f8ce9" stroke-linecap="round" stroke-width=".26458">
   <path d="m211.86 131.21h125.13"/>
   <path d="m211.86 146.25h125.13"/>
   <path d="m211.86 160.86h125.13"/>
  </g>
  <g fill="#e8eaec" stroke-width=".28222px">
   <g aria-label="Heavy engines">
    <path d="m186.33 114.37h0.28183v-1.0367h1.0233v1.0367h0.27847v-2.2009h-0.27847v0.92264h-1.0233v-0.92264h-0.28183z"/>
    <path d="m188.37 113.56c0 0.53346 0.34557 0.85219 0.78173 0.85219 0.22144 0 0.3959-0.0772 0.53682-0.16775l-0.0973-0.18118c-0.12078 0.0772-0.25163 0.12749-0.40597 0.12749-0.31202 0-0.52339-0.22143-0.54352-0.57371h1.1005c7e-3 -0.0403 0.0101-0.0939 0.0101-0.15098 0-0.46636-0.23485-0.76496-0.65088-0.76496-0.37242 0-0.73141 0.32544-0.73141 0.8589zm0.26841-0.12414c0.0336-0.3288 0.24156-0.51668 0.46971-0.51668 0.25498 0 0.40261 0.18453 0.40261 0.51668z"/>
    <path d="m190.03 113.94c0 0.29189 0.20466 0.463 0.47978 0.463 0.20131 0 0.38248-0.10736 0.54017-0.23486h7e-3l0.0235 0.1946h0.22815v-0.99981c0-0.40597-0.16775-0.67102-0.56701-0.67102-0.2617 0-0.48984 0.11407-0.64082 0.21137l0.11072 0.19124c0.12749-0.0872 0.29525-0.17447 0.48648-0.17447 0.26506 0 0.33551 0.20131 0.33551 0.40932-0.6945 0.0772-1.0032 0.25499-1.0032 0.61063zm0.27177-0.0201c0-0.20802 0.18452-0.34222 0.7314-0.40932v0.45293c-0.15769 0.14092-0.28853 0.21808-0.44622 0.21808-0.16105 0-0.28518-0.0772-0.28518-0.26169z"/>
    <path d="m192.17 114.37h0.32208l0.57708-1.6306h-0.27176l-0.30867 0.926c-0.047 0.16105-0.10065 0.32545-0.14762 0.47978h-0.0134c-0.0503-0.15433-0.10401-0.31873-0.15098-0.47978l-0.30867-0.926h-0.28518z"/>
    <path d="m193.28 114.82-0.0537 0.21808c0.0537 0.0201 0.11742 0.0336 0.19123 0.0336 0.3288 0 0.49656-0.24492 0.61063-0.56701l0.61398-1.7648h-0.26841l-0.29189 0.90252c-0.0436 0.14427-0.0906 0.31202-0.13756 0.45964h-0.0134c-0.0503-0.15098-0.10736-0.31873-0.15769-0.45964l-0.33215-0.90252h-0.28518l0.65424 1.6339-0.0369 0.12079c-0.0671 0.2013-0.18453 0.34893-0.36906 0.34893-0.0403 0-0.0906-0.0134-0.12413-0.0235z"/>
    <path d="m195.51 113.56c0 0.53346 0.34557 0.85219 0.78173 0.85219 0.22144 0 0.3959-0.0772 0.53682-0.16775l-0.0973-0.18118c-0.12078 0.0772-0.25163 0.12749-0.40597 0.12749-0.31202 0-0.52339-0.22143-0.54352-0.57371h1.1005c7e-3 -0.0403 0.0101-0.0939 0.0101-0.15098 0-0.46636-0.23485-0.76496-0.65088-0.76496-0.37242 0-0.73141 0.32544-0.73141 0.8589zm0.26841-0.12414c0.0336-0.3288 0.24156-0.51668 0.46971-0.51668 0.25498 0 0.40261 0.18453 0.40261 0.51668z"/>
    <path d="m197.29 114.37h0.27511v-1.181c0.1644-0.1644 0.27847-0.25163 0.44623-0.25163 0.21472 0 0.30867 0.13085 0.30867 0.43616v0.99646h0.27511v-1.0334c0-0.41603-0.15433-0.63746-0.49655-0.63746-0.22479 0-0.39254 0.12078-0.54688 0.27512h-0.0101l-0.0235-0.23486h-0.22814z"/>
    <path d="m199.25 114.64c0-0.094 0.0503-0.19124 0.16776-0.27512 0.0704 0.0201 0.14762 0.0268 0.21137 0.0268h0.28182c0.21137 0 0.3288 0.0503 0.3288 0.2013 0 0.17111-0.20466 0.33216-0.51668 0.33216-0.29525 0-0.47307-0.11072-0.47307-0.28518zm-0.24156 0.0369c0 0.28183 0.27511 0.43952 0.67437 0.43952 0.50662 0 0.82535-0.2617 0.82535-0.56366 0-0.27176-0.19124-0.38919-0.57036-0.38919h-0.31538c-0.22144 0-0.28854-0.0738-0.28854-0.17781 0-0.0906 0.047-0.14427 0.10401-0.1946 0.0738 0.0369 0.1644 0.057 0.24492 0.057 0.33215 0 0.5972-0.21808 0.5972-0.56701 0-0.13756-0.057-0.2617-0.1342-0.33551h0.33551v-0.21137h-0.56701c-0.0604-0.0235-0.14091-0.0403-0.2315-0.0403-0.33215 0-0.61398 0.22479-0.61398 0.58043 0 0.19459 0.10401 0.35228 0.21137 0.43951v0.0134c-0.0839 0.057-0.17782 0.1644-0.17782 0.30196 0 0.12749 0.0637 0.21473 0.14427 0.26505v0.0134c-0.14762 0.10066-0.23821 0.2315-0.23821 0.36906zm0.67437-1.0132c-0.18789 0-0.34557-0.15098-0.34557-0.38919s0.15433-0.37913 0.34557-0.37913 0.34557 0.14092 0.34557 0.37913-0.15769 0.38919-0.34557 0.38919z"/>
    <path d="m200.96 112.4c0.10736 0 0.19124-0.0738 0.19124-0.17782 0-0.10736-0.0839-0.17782-0.19124-0.17782-0.10737 0-0.19124 0.0705-0.19124 0.17782 0 0.10401 0.0839 0.17782 0.19124 0.17782zm-0.14092 1.9661h0.27512v-1.6306h-0.27512z"/>
    <path d="m201.65 114.37h0.27511v-1.181c0.1644-0.1644 0.27847-0.25163 0.44623-0.25163 0.21472 0 0.30867 0.13085 0.30867 0.43616v0.99646h0.27511v-1.0334c0-0.41603-0.15433-0.63746-0.49655-0.63746-0.22479 0-0.39254 0.12078-0.54688 0.27512h-0.0101l-0.0235-0.23486h-0.22814z"/>
    <path d="m203.36 113.56c0 0.53346 0.34558 0.85219 0.78174 0.85219 0.22143 0 0.3959-0.0772 0.53681-0.16775l-0.0973-0.18118c-0.12078 0.0772-0.25163 0.12749-0.40596 0.12749-0.31203 0-0.5234-0.22143-0.54353-0.57371h1.1005c7e-3 -0.0403 0.0101-0.0939 0.0101-0.15098 0-0.46636-0.23486-0.76496-0.65089-0.76496-0.37241 0-0.73141 0.32544-0.73141 0.8589zm0.26841-0.12414c0.0335-0.3288 0.24156-0.51668 0.46971-0.51668 0.25499 0 0.40261 0.18453 0.40261 0.51668z"/>
    <path d="m204.96 114.18c0.15433 0.12749 0.37576 0.22479 0.60726 0.22479 0.38584 0 0.59721-0.22144 0.59721-0.48649 0-0.30866-0.2617-0.40596-0.49655-0.49319-0.18453-0.0705-0.36235-0.13085-0.36235-0.28183 0-0.12414 0.0939-0.23486 0.2986-0.23486 0.14427 0 0.2617 0.0604 0.37241 0.14427l0.13085-0.17446c-0.12414-0.10065-0.30195-0.18453-0.50661-0.18453-0.35229 0-0.5603 0.2013-0.5603 0.463 0 0.27512 0.25498 0.38583 0.48648 0.46971 0.17782 0.0671 0.37242 0.14091 0.37242 0.30867 0 0.14091-0.10737 0.25498-0.32209 0.25498-0.19459 0-0.33886-0.0805-0.47978-0.19459z"/>
   </g>
   <g aria-label="Light engines">
    <path d="m187.88 129.66h1.2414v-0.23821h-0.95955v-1.9627h-0.28183z"/>
    <path d="m189.62 127.7c0.10736 0 0.19124-0.0738 0.19124-0.17782 0-0.10736-0.0839-0.17782-0.19124-0.17782-0.10736 0-0.19124 0.0705-0.19124 0.17782 0 0.10401 0.0839 0.17782 0.19124 0.17782zm-0.14092 1.9661h0.27512v-1.6306h-0.27512z"/>
    <path d="m190.42 129.94c0-0.0939 0.0503-0.19124 0.16775-0.27511 0.0705 0.0201 0.14762 0.0268 0.21137 0.0268h0.28183c0.21137 0 0.3288 0.0503 0.3288 0.2013 0 0.17111-0.20466 0.33216-0.51669 0.33216-0.29524 0-0.47306-0.11072-0.47306-0.28519zm-0.24157 0.0369c0 0.28183 0.27512 0.43952 0.67437 0.43952 0.50662 0 0.82535-0.2617 0.82535-0.56366 0-0.27176-0.19124-0.38919-0.57036-0.38919h-0.31538c-0.22143 0-0.28854-0.0738-0.28854-0.17782 0-0.0906 0.047-0.14427 0.10401-0.19459 0.0738 0.0369 0.1644 0.057 0.24492 0.057 0.33215 0 0.59721-0.21808 0.59721-0.567 0-0.13756-0.057-0.2617-0.13421-0.33551h0.33551v-0.21137h-0.56701c-0.0604-0.0235-0.14091-0.0403-0.2315-0.0403-0.33215 0-0.61398 0.22479-0.61398 0.58043 0 0.19459 0.10401 0.35228 0.21137 0.43951v0.0134c-0.0839 0.057-0.17782 0.1644-0.17782 0.30196 0 0.12749 0.0637 0.21472 0.14427 0.26505v0.0134c-0.14762 0.10065-0.23821 0.2315-0.23821 0.36906zm0.67437-1.0132c-0.18788 0-0.34557-0.15098-0.34557-0.38919s0.15433-0.37913 0.34557-0.37913 0.34558 0.14092 0.34558 0.37913-0.15769 0.38919-0.34558 0.38919z"/>
    <path d="m191.99 129.66h0.27512v-1.181c0.1644-0.1644 0.27847-0.25163 0.44623-0.25163 0.21472 0 0.30866 0.13085 0.30866 0.43616v0.99646h0.27512v-1.0334c0-0.41603-0.15433-0.63746-0.49655-0.63746-0.22479 0-0.38919 0.12078-0.54352 0.2684l0.0101-0.3355v-0.65089h-0.27512z"/>
    <path d="m193.87 129.16c0 0.32208 0.11743 0.54352 0.46636 0.54352 0.10065 0 0.21137-0.0302 0.30196-0.0604l-0.0537-0.20802c-0.0537 0.0201-0.12749 0.0436-0.18453 0.0436-0.18788 0-0.25163-0.11407-0.25163-0.31538v-0.90587h0.43952v-0.22479h-0.43952v-0.45629h-0.2315l-0.0335 0.45629-0.25498 0.0168v0.20802h0.24156z"/>
    <path d="m195.51 128.85c0 0.53346 0.34557 0.85219 0.78173 0.85219 0.22143 0 0.3959-0.0772 0.53681-0.16776l-0.0973-0.18117c-0.12078 0.0772-0.25163 0.12749-0.40596 0.12749-0.31202 0-0.52339-0.22143-0.54352-0.57372h1.1005c7e-3 -0.0403 0.0101-0.0939 0.0101-0.15097 0-0.46636-0.23486-0.76496-0.65089-0.76496-0.37241 0-0.7314 0.32544-0.7314 0.8589zm0.2684-0.12414c0.0336-0.3288 0.24157-0.51668 0.46971-0.51668 0.25499 0 0.40261 0.18453 0.40261 0.51668z"/>
    <path d="m197.29 129.66h0.27512v-1.181c0.1644-0.1644 0.27847-0.25163 0.44623-0.25163 0.21472 0 0.30866 0.13085 0.30866 0.43616v0.99646h0.27512v-1.0334c0-0.41603-0.15433-0.63746-0.49655-0.63746-0.22479 0-0.39255 0.12078-0.54688 0.27511h-0.0101l-0.0235-0.23485h-0.22815z"/>
    <path d="m199.25 129.94c0-0.0939 0.0503-0.19124 0.16775-0.27511 0.0705 0.0201 0.14763 0.0268 0.21137 0.0268h0.28183c0.21137 0 0.3288 0.0503 0.3288 0.2013 0 0.17111-0.20466 0.33216-0.51668 0.33216-0.29525 0-0.47307-0.11072-0.47307-0.28519zm-0.24157 0.0369c0 0.28183 0.27512 0.43952 0.67438 0.43952 0.50661 0 0.82534-0.2617 0.82534-0.56366 0-0.27176-0.19123-0.38919-0.57036-0.38919h-0.31538c-0.22143 0-0.28853-0.0738-0.28853-0.17782 0-0.0906 0.047-0.14427 0.104-0.19459 0.0738 0.0369 0.1644 0.057 0.24493 0.057 0.33215 0 0.5972-0.21808 0.5972-0.567 0-0.13756-0.057-0.2617-0.1342-0.33551h0.3355v-0.21137h-0.567c-0.0604-0.0235-0.14092-0.0403-0.2315-0.0403-0.33216 0-0.61398 0.22479-0.61398 0.58043 0 0.19459 0.104 0.35228 0.21137 0.43951v0.0134c-0.0839 0.057-0.17782 0.1644-0.17782 0.30196 0 0.12749 0.0637 0.21472 0.14426 0.26505v0.0134c-0.14762 0.10065-0.23821 0.2315-0.23821 0.36906zm0.67438-1.0132c-0.18789 0-0.34558-0.15098-0.34558-0.38919s0.15434-0.37913 0.34558-0.37913c0.19123 0 0.34557 0.14092 0.34557 0.37913s-0.15769 0.38919-0.34557 0.38919z"/>
    <path d="m200.96 127.7c0.10736 0 0.19124-0.0738 0.19124-0.17782 0-0.10736-0.0839-0.17782-0.19124-0.17782-0.10736 0-0.19124 0.0705-0.19124 0.17782 0 0.10401 0.0839 0.17782 0.19124 0.17782zm-0.14091 1.9661h0.27511v-1.6306h-0.27511z"/>
    <path d="m201.65 129.66h0.27512v-1.181c0.1644-0.1644 0.27847-0.25163 0.44622-0.25163 0.21473 0 0.30867 0.13085 0.30867 0.43616v0.99646h0.27512v-1.0334c0-0.41603-0.15434-0.63746-0.49655-0.63746-0.22479 0-0.39255 0.12078-0.54688 0.27511h-0.0101l-0.0235-0.23485h-0.22815z"/>
    <path d="m203.36 128.85c0 0.53346 0.34557 0.85219 0.78173 0.85219 0.22144 0 0.3959-0.0772 0.53681-0.16776l-0.0973-0.18117c-0.12079 0.0772-0.25163 0.12749-0.40597 0.12749-0.31202 0-0.52339-0.22143-0.54352-0.57372h1.1005c7e-3 -0.0403 0.0101-0.0939 0.0101-0.15097 0-0.46636-0.23485-0.76496-0.65088-0.76496-0.37242 0-0.73141 0.32544-0.73141 0.8589zm0.2684-0.12414c0.0336-0.3288 0.24157-0.51668 0.46972-0.51668 0.25498 0 0.40261 0.18453 0.40261 0.51668z"/>
    <path d="m204.96 129.48c0.15434 0.12749 0.37577 0.22479 0.60727 0.22479 0.38583 0 0.59721-0.22144 0.59721-0.48649 0-0.30867-0.2617-0.40596-0.49656-0.4932-0.18453-0.0704-0.36235-0.13084-0.36235-0.28182 0-0.12414 0.094-0.23486 0.29861-0.23486 0.14427 0 0.26169 0.0604 0.37241 0.14427l0.13085-0.17446c-0.12414-0.10066-0.30196-0.18453-0.50662-0.18453-0.35228 0-0.5603 0.2013-0.5603 0.463 0 0.27512 0.25499 0.38583 0.48649 0.46971 0.17782 0.0671 0.37241 0.14091 0.37241 0.30867 0 0.14091-0.10736 0.25498-0.32208 0.25498-0.1946 0-0.33887-0.0805-0.47978-0.19459z"/>
   </g>
   <g aria-label="Toolkits">
    <path d="m195.94 145.02h0.27848v-1.9661h0.66766v-0.23486h-1.6138v0.23486h0.66766z"/>
    <path d="m196.9 144.21c0 0.54017 0.35564 0.85219 0.75489 0.85219 0.39926 0 0.75489-0.31202 0.75489-0.85219 0-0.54688-0.35563-0.8589-0.75489-0.8589-0.39925 0-0.75489 0.31202-0.75489 0.8589zm0.28518 0c0-0.37577 0.19124-0.63076 0.46971-0.63076 0.28183 0 0.46971 0.25499 0.46971 0.63076 0 0.37241-0.18788 0.62404-0.46971 0.62404-0.27847 0-0.46971-0.25163-0.46971-0.62404z"/>
    <path d="m198.73 144.21c0 0.54017 0.35564 0.85219 0.75489 0.85219 0.39926 0 0.7549-0.31202 0.7549-0.85219 0-0.54688-0.35564-0.8589-0.7549-0.8589-0.39925 0-0.75489 0.31202-0.75489 0.8589zm0.28518 0c0-0.37577 0.19124-0.63076 0.46971-0.63076 0.28183 0 0.46972 0.25499 0.46972 0.63076 0 0.37241-0.18789 0.62404-0.46972 0.62404-0.27847 0-0.46971-0.25163-0.46971-0.62404z"/>
    <path d="m200.67 144.69c0 0.23821 0.0839 0.36906 0.29189 0.36906 0.0738 0 0.12078-0.0101 0.15769-0.0268l-0.0369-0.20802c-0.0302 7e-3 -0.0436 7e-3 -0.0604 7e-3 -0.0403 0-0.0772-0.0335-0.0772-0.12078v-2.0802h-0.27511z"/>
    <path d="m201.53 145.02h0.27176v-0.42945l0.30531-0.35564 0.47642 0.78509h0.30196l-0.62069-0.97633 0.54688-0.65424h-0.30532l-0.6945 0.8589h-0.0101v-1.6172h-0.27176z"/>
    <path d="m203.33 143.05c0.10736 0 0.19124-0.0738 0.19124-0.17782 0-0.10736-0.0839-0.17782-0.19124-0.17782-0.10736 0-0.19124 0.0705-0.19124 0.17782 0 0.10401 0.0839 0.17782 0.19124 0.17782zm-0.14091 1.9661h0.27511v-1.6306h-0.27511z"/>
    <path d="m204.06 144.52c0 0.32209 0.11743 0.54353 0.46636 0.54353 0.10065 0 0.21137-0.0302 0.30196-0.0604l-0.0537-0.20802c-0.0537 0.0201-0.1275 0.0436-0.18453 0.0436-0.18789 0-0.25164-0.11408-0.25164-0.31538v-0.90587h0.43952v-0.22479h-0.43952v-0.45629h-0.2315l-0.0335 0.45629-0.25498 0.0168v0.20802h0.24156z"/>
    <path d="m204.96 144.83c0.15433 0.12749 0.37577 0.22479 0.60727 0.22479 0.38583 0 0.5972-0.22144 0.5972-0.48649 0-0.30867-0.2617-0.40596-0.49655-0.4932-0.18453-0.0704-0.36235-0.13084-0.36235-0.28182 0-0.12414 0.0939-0.23486 0.2986-0.23486 0.14427 0 0.2617 0.0604 0.37242 0.14427l0.13084-0.17446c-0.12413-0.10066-0.30195-0.18453-0.50661-0.18453-0.35229 0-0.5603 0.2013-0.5603 0.463 0 0.27511 0.25499 0.38583 0.48649 0.46971 0.17782 0.0671 0.37241 0.14091 0.37241 0.30867 0 0.14091-0.10736 0.25498-0.32209 0.25498-0.19459 0-0.33886-0.0805-0.47977-0.19459z"/>
   </g>
   <g aria-label="Libraries">
    <path d="m194.41 159.5h1.2414v-0.23821h-0.95955v-1.9627h-0.28183z"/>
    <path d="m196.14 157.54c0.10736 0 0.19124-0.0738 0.19124-0.17782 0-0.10736-0.0839-0.17782-0.19124-0.17782-0.10736 0-0.19124 0.0705-0.19124 0.17782 0 0.10401 0.0839 0.17782 0.19124 0.17782zm-0.14091 1.9661h0.27511v-1.6306h-0.27511z"/>
    <path d="m196.83 159.5h0.22144l0.0235-0.16105h0.0101c0.14427 0.1275 0.31537 0.20131 0.46635 0.20131 0.37242 0 0.70457-0.32544 0.70457-0.88239 0-0.50326-0.22479-0.8287-0.64753-0.8287-0.18117 0-0.36235 0.0973-0.50997 0.22814l7e-3 -0.29524v-0.65089h-0.27512zm0.27512-0.36235v-0.85555c0.15433-0.14426 0.2986-0.22143 0.43616-0.22143 0.30867 0 0.42945 0.24156 0.42945 0.60056 0 0.40261-0.19795 0.64753-0.46636 0.64753-0.10736 0-0.25498-0.047-0.39925-0.17111z"/>
    <path d="m198.69 159.5h0.27512v-1.0468c0.11072-0.27511 0.27512-0.37577 0.41267-0.37577 0.0671 0 0.10401 0.0101 0.15769 0.0268l0.0537-0.24156c-0.0537-0.0235-0.104-0.0336-0.17446-0.0336-0.18453 0-0.35228 0.13085-0.463 0.33551h-0.0101l-0.0235-0.29525h-0.22815z"/>
    <path d="m199.69 159.08c0 0.29189 0.20466 0.463 0.47977 0.463 0.20131 0 0.38248-0.10736 0.54017-0.23486h7e-3l0.0235 0.1946h0.22814v-0.99982c0-0.40596-0.16775-0.67101-0.56701-0.67101-0.26169 0-0.48984 0.11407-0.64082 0.21137l0.11072 0.19124c0.12749-0.0872 0.29525-0.17447 0.48649-0.17447 0.26505 0 0.33551 0.20131 0.33551 0.40932-0.69451 0.0772-1.0032 0.25499-1.0032 0.61063zm0.27176-0.0201c0-0.20802 0.18453-0.34222 0.73141-0.40932v0.45293c-0.15769 0.14092-0.28854 0.21808-0.44623 0.21808-0.16104 0-0.28518-0.0772-0.28518-0.26169z"/>
    <path d="m201.49 159.5h0.27511v-1.0468c0.11072-0.27511 0.27512-0.37577 0.41268-0.37577 0.0671 0 0.10401 0.0101 0.15769 0.0268l0.0537-0.24156c-0.0537-0.0235-0.10401-0.0336-0.17447-0.0336-0.18453 0-0.35228 0.13085-0.463 0.33551h-0.0101l-0.0235-0.29525h-0.22814z"/>
    <path d="m202.8 157.54c0.10737 0 0.19124-0.0738 0.19124-0.17782 0-0.10736-0.0839-0.17782-0.19124-0.17782-0.10736 0-0.19124 0.0705-0.19124 0.17782 0 0.10401 0.0839 0.17782 0.19124 0.17782zm-0.14091 1.9661h0.27512v-1.6306h-0.27512z"/>
    <path d="m203.36 158.69c0 0.53346 0.34558 0.85219 0.78174 0.85219 0.22143 0 0.3959-0.0772 0.53681-0.16775l-0.0973-0.18118c-0.12078 0.0772-0.25163 0.12749-0.40596 0.12749-0.31203 0-0.5234-0.22143-0.54353-0.57371h1.1005c7e-3 -0.0403 0.0101-0.094 0.0101-0.15098 0-0.46636-0.23486-0.76496-0.65089-0.76496-0.37241 0-0.73141 0.32544-0.73141 0.8589zm0.26841-0.12414c0.0335-0.3288 0.24156-0.51668 0.46971-0.51668 0.25499 0 0.40261 0.18453 0.40261 0.51668z"/>
    <path d="m204.96 159.32c0.15434 0.12749 0.37577 0.22479 0.60727 0.22479 0.38584 0 0.59721-0.22144 0.59721-0.48649 0-0.30866-0.2617-0.40596-0.49655-0.49319-0.18453-0.0705-0.36235-0.13085-0.36235-0.28183 0-0.12414 0.0939-0.23486 0.2986-0.23486 0.14427 0 0.2617 0.0604 0.37241 0.14427l0.13085-0.17446c-0.12414-0.10065-0.30196-0.18453-0.50662-0.18453-0.35228 0-0.56029 0.2013-0.56029 0.463 0 0.27512 0.25498 0.38583 0.48648 0.46971 0.17782 0.0671 0.37242 0.14091 0.37242 0.30867 0 0.14091-0.10737 0.25498-0.32209 0.25498-0.1946 0-0.33886-0.0805-0.47978-0.19459z"/>
   </g>
   <g aria-label="Unity">
    <path d="m262.54 113.6c0 0.56634 0.27377 0.75959 0.63344 0.75959 0.35966 0 0.63343-0.19325 0.63343-0.75959v-1.0334h-0.21472v1.0387c0 0.42408-0.1852 0.55828-0.41871 0.55828-0.22815 0-0.40798-0.1342-0.40798-0.55828v-1.0387h-0.22546z"/>
    <path d="m264.25 114.32h0.22009v-0.94478c0.13152-0.13152 0.22277-0.20131 0.35698-0.20131 0.17177 0 0.24693 0.10468 0.24693 0.34893v0.79716h0.22009v-0.82669c0-0.33282-0.12347-0.50996-0.39724-0.50996-0.17983 0-0.31403 0.0966-0.4375 0.22009h-8e-3l-0.0188-0.18788h-0.18251z"/>
    <path d="m265.83 112.75c0.0859 0 0.15299-0.059 0.15299-0.14225 0-0.0859-0.0671-0.14226-0.15299-0.14226-0.0859 0-0.15299 0.0564-0.15299 0.14226 0 0.0832 0.0671 0.14225 0.15299 0.14225zm-0.11273 1.5728h0.22009v-1.3044h-0.22009z"/>
    <path d="m266.42 113.92c0 0.25767 0.0939 0.43482 0.37308 0.43482 0.0805 0 0.1691-0.0242 0.24157-0.0483l-0.0429-0.16641c-0.0429 0.0161-0.10199 0.0349-0.14762 0.0349-0.1503 0-0.2013-0.0913-0.2013-0.2523v-0.72469h0.35161v-0.17983h-0.35161v-0.36503h-0.1852l-0.0268 0.36503-0.20399 0.0134v0.16641h0.19325z"/>
    <path d="m267.2 114.68-0.043 0.17446c0.043 0.0161 0.0939 0.0268 0.15299 0.0268 0.26304 0 0.39724-0.19593 0.4885-0.4536l0.49118-1.4118h-0.21473l-0.23351 0.722c-0.0349 0.11542-0.0725 0.24962-0.11004 0.36772h-0.0107c-0.0403-0.12079-0.0859-0.25499-0.12615-0.36772l-0.26572-0.722h-0.22814l0.52338 1.3071-0.0295 0.0966c-0.0537 0.16104-0.14762 0.27914-0.29525 0.27914-0.0322 0-0.0725-0.0107-0.0993-0.0188z"/>
   </g>
   <g aria-label="Unreal Engine">
    <path d="m214.79 113.6c0 0.56634 0.27377 0.75959 0.63344 0.75959 0.35966 0 0.63343-0.19325 0.63343-0.75959v-1.0334h-0.21472v1.0387c0 0.42408-0.1852 0.55828-0.41871 0.55828-0.22815 0-0.40798-0.1342-0.40798-0.55828v-1.0387h-0.22546z"/>
    <path d="m216.5 114.32h0.22009v-0.94478c0.13152-0.13152 0.22277-0.20131 0.35698-0.20131 0.17177 0 0.24693 0.10468 0.24693 0.34893v0.79716h0.22009v-0.82669c0-0.33282-0.12347-0.50996-0.39724-0.50996-0.17983 0-0.31403 0.0966-0.4375 0.22009h-8e-3l-0.0188-0.18788h-0.18251z"/>
    <path d="m217.97 114.32h0.22009v-0.83742c0.0886-0.22009 0.22009-0.30061 0.33014-0.30061 0.0537 0 0.0832 8e-3 0.12615 0.0215l0.0429-0.19325c-0.0429-0.0188-0.0832-0.0268-0.13957-0.0268-0.14762 0-0.28182 0.10467-0.37039 0.2684h-8e-3l-0.0188-0.23619h-0.18252z"/>
    <path d="m218.78 113.67c0 0.42676 0.27645 0.68175 0.62538 0.68175 0.17715 0 0.31672-0.0617 0.42945-0.1342l-0.0778-0.14494c-0.0966 0.0617-0.2013 0.10199-0.32477 0.10199-0.24962 0-0.41871-0.17715-0.43481-0.45897h0.88036c5e-3 -0.0322 8e-3 -0.0752 8e-3 -0.12078 0-0.37308-0.18788-0.61196-0.5207-0.61196-0.29793 0-0.58512 0.26035-0.58512 0.68711zm0.21472-0.0993c0.0268-0.26303 0.19325-0.41334 0.37577-0.41334 0.20398 0 0.32208 0.14762 0.32208 0.41334z"/>
    <path d="m220.11 113.99c0 0.23351 0.16372 0.3704 0.38381 0.3704 0.16105 0 0.30598-0.0859 0.43213-0.18789h5e-3l0.0188 0.15568h0.18252v-0.79985c0-0.32476-0.13421-0.5368-0.45361-0.5368-0.20935 0-0.39187 0.0913-0.51265 0.16909l0.0886 0.15299c0.102-0.0698 0.2362-0.13957 0.38919-0.13957 0.21204 0 0.2684 0.16104 0.2684 0.32745-0.55559 0.0617-0.80252 0.20399-0.80252 0.4885zm0.2174-0.0161c0-0.16642 0.14763-0.27378 0.58512-0.32746v0.36235c-0.12615 0.11273-0.23082 0.17446-0.35697 0.17446-0.12884 0-0.22815-0.0617-0.22815-0.20935z"/>
    <path d="m221.55 114.06c0 0.19057 0.0671 0.29525 0.23351 0.29525 0.059 0 0.0966-8e-3 0.12615-0.0215l-0.0295-0.16641c-0.0242 5e-3 -0.0349 5e-3 -0.0483 5e-3 -0.0322 0-0.0617-0.0268-0.0617-0.0966v-1.6641h-0.22009z"/>
    <path d="m222.79 114.32h1.0414v-0.19057h-0.81594v-0.6388h0.66564v-0.19057h-0.66564v-0.55291h0.7891v-0.18788h-1.0146z"/>
    <path d="m224.17 114.32h0.22009v-0.94478c0.13152-0.13152 0.22278-0.20131 0.35698-0.20131 0.17178 0 0.24693 0.10468 0.24693 0.34893v0.79716h0.22009v-0.82669c0-0.33282-0.12346-0.50996-0.39723-0.50996-0.17983 0-0.31404 0.0966-0.4375 0.22009h-8e-3l-0.0188-0.18788h-0.18252z"/>
    <path d="m225.74 114.54c0-0.0752 0.0403-0.15299 0.1342-0.22009 0.0564 0.0161 0.1181 0.0215 0.16909 0.0215h0.22546c0.1691 0 0.26304 0.0403 0.26304 0.16104 0 0.13689-0.16373 0.26572-0.41334 0.26572-0.2362 0-0.37845-0.0886-0.37845-0.22814zm-0.19325 0.0295c0 0.22546 0.22009 0.35161 0.53949 0.35161 0.40529 0 0.66027-0.20935 0.66027-0.45092 0-0.2174-0.15299-0.31134-0.45628-0.31134h-0.2523c-0.17715 0-0.23083-0.059-0.23083-0.14226 0-0.0725 0.0376-0.11541 0.0832-0.15567 0.059 0.0295 0.13152 0.0456 0.19594 0.0456 0.26572 0 0.47776-0.17447 0.47776-0.45361 0-0.11004-0.0456-0.20935-0.10736-0.2684h0.2684v-0.16909h-0.4536c-0.0483-0.0188-0.11273-0.0322-0.1852-0.0322-0.26572 0-0.49118 0.17983-0.49118 0.46434 0 0.15567 0.0832 0.28182 0.16909 0.3516v0.0107c-0.0671 0.0456-0.14225 0.13152-0.14225 0.24156 0 0.102 0.051 0.17178 0.11541 0.21204v0.0107c-0.11809 0.0805-0.19056 0.1852-0.19056 0.29524zm0.53949-0.81058c-0.15031 0-0.27646-0.12078-0.27646-0.31134 0-0.19057 0.12347-0.3033 0.27646-0.3033s0.27646 0.11273 0.27646 0.3033c0 0.19056-0.12615 0.31134-0.27646 0.31134z"/>
    <path d="m227.11 112.75c0.0859 0 0.15299-0.059 0.15299-0.14225 0-0.0859-0.0671-0.14226-0.15299-0.14226-0.0859 0-0.15299 0.0564-0.15299 0.14226 0 0.0832 0.0671 0.14225 0.15299 0.14225zm-0.11273 1.5728h0.22009v-1.3044h-0.22009z"/>
    <path d="m227.66 114.32h0.22009v-0.94478c0.13152-0.13152 0.22277-0.20131 0.35698-0.20131 0.17177 0 0.24693 0.10468 0.24693 0.34893v0.79716h0.22009v-0.82669c0-0.33282-0.12347-0.50996-0.39724-0.50996-0.17983 0-0.31403 0.0966-0.4375 0.22009h-8e-3l-0.0188-0.18788h-0.18251z"/>
    <path d="m229.03 113.67c0 0.42676 0.27645 0.68175 0.62538 0.68175 0.17714 0 0.31671-0.0617 0.42944-0.1342l-0.0778-0.14494c-0.0966 0.0617-0.20131 0.10199-0.32477 0.10199-0.24962 0-0.41871-0.17715-0.43482-0.45897h0.88037c5e-3 -0.0322 8e-3 -0.0752 8e-3 -0.12078 0-0.37308-0.18788-0.61196-0.5207-0.61196-0.29793 0-0.58512 0.26035-0.58512 0.68711zm0.21472-0.0993c0.0268-0.26303 0.19325-0.41334 0.37576-0.41334 0.20399 0 0.32209 0.14762 0.32209 0.41334z"/>
   </g>
   <g aria-label="CryEngine">
    <path d="m238.09 113.44c0 0.57439 0.33014 0.91258 0.77301 0.91258 0.22277 0 0.39724-0.0939 0.53412-0.25499l-0.12615-0.13688c-0.11273 0.12615-0.23619 0.19593-0.4026 0.19593-0.33551 0-0.54755-0.27914-0.54755-0.722 0-0.4375 0.22278-0.71128 0.55828-0.71128 0.14494 0 0.25767 0.0644 0.35161 0.16373l0.12615-0.14225c-0.10468-0.11542-0.27109-0.21741-0.48044-0.21741-0.45092 0-0.78643 0.34624-0.78643 0.91257z"/>
    <path d="m239.7 114.32h0.2201v-0.83742c0.0886-0.22009 0.22009-0.30061 0.33013-0.30061 0.0537 0 0.0832 8e-3 0.12615 0.0215l0.0429-0.19325c-0.0429-0.0188-0.0832-0.0268-0.13957-0.0268-0.14763 0-0.28183 0.10467-0.3704 0.2684h-8e-3l-0.0188-0.23619h-0.18252z"/>
    <path d="m240.6 114.68-0.0429 0.17446c0.0429 0.0161 0.0939 0.0268 0.15299 0.0268 0.26304 0 0.39724-0.19593 0.4885-0.4536l0.49118-1.4118h-0.21473l-0.23351 0.722c-0.0349 0.11542-0.0725 0.24962-0.11004 0.36772h-0.0107c-0.0403-0.12079-0.0859-0.25499-0.12615-0.36772l-0.26572-0.722h-0.22814l0.52339 1.3071-0.0295 0.0966c-0.0537 0.16104-0.14762 0.27914-0.29524 0.27914-0.0322 0-0.0725-0.0107-0.0993-0.0188z"/>
    <path d="m241.95 114.32h1.0414v-0.19057h-0.81595v-0.6388h0.66564v-0.19057h-0.66564v-0.55291h0.78911v-0.18788h-1.0146z"/>
    <path d="m243.34 114.32h0.22009v-0.94478c0.13152-0.13152 0.22277-0.20131 0.35698-0.20131 0.17177 0 0.24693 0.10468 0.24693 0.34893v0.79716h0.22009v-0.82669c0-0.33282-0.12347-0.50996-0.39724-0.50996-0.17983 0-0.31403 0.0966-0.4375 0.22009h-8e-3l-0.0188-0.18788h-0.18251z"/>
    <path d="m244.9 114.54c0-0.0752 0.0403-0.15299 0.1342-0.22009 0.0564 0.0161 0.1181 0.0215 0.1691 0.0215h0.22546c0.16909 0 0.26303 0.0403 0.26303 0.16104 0 0.13689-0.16372 0.26572-0.41334 0.26572-0.23619 0-0.37845-0.0886-0.37845-0.22814zm-0.19325 0.0295c0 0.22546 0.22009 0.35161 0.53949 0.35161 0.40529 0 0.66028-0.20935 0.66028-0.45092 0-0.2174-0.15299-0.31134-0.45629-0.31134h-0.2523c-0.17715 0-0.23083-0.059-0.23083-0.14226 0-0.0725 0.0376-0.11541 0.0832-0.15567 0.0591 0.0295 0.13152 0.0456 0.19593 0.0456 0.26572 0 0.47776-0.17447 0.47776-0.45361 0-0.11004-0.0456-0.20935-0.10736-0.2684h0.26841v-0.16909h-0.45361c-0.0483-0.0188-0.11273-0.0322-0.1852-0.0322-0.26572 0-0.49118 0.17983-0.49118 0.46434 0 0.15567 0.0832 0.28182 0.1691 0.3516v0.0107c-0.0671 0.0456-0.14226 0.13152-0.14226 0.24156 0 0.102 0.051 0.17178 0.11542 0.21204v0.0107c-0.1181 0.0805-0.19057 0.1852-0.19057 0.29524zm0.53949-0.81058c-0.1503 0-0.27645-0.12078-0.27645-0.31134 0-0.19057 0.12346-0.3033 0.27645-0.3033s0.27646 0.11273 0.27646 0.3033c0 0.19056-0.12615 0.31134-0.27646 0.31134z"/>
    <path d="m246.27 112.75c0.0859 0 0.15299-0.059 0.15299-0.14225 0-0.0859-0.0671-0.14226-0.15299-0.14226-0.0859 0-0.15299 0.0564-0.15299 0.14226 0 0.0832 0.0671 0.14225 0.15299 0.14225zm-0.11273 1.5728h0.22009v-1.3044h-0.22009z"/>
    <path d="m246.82 114.32h0.22009v-0.94478c0.13152-0.13152 0.22278-0.20131 0.35698-0.20131 0.17178 0 0.24693 0.10468 0.24693 0.34893v0.79716h0.22009v-0.82669c0-0.33282-0.12346-0.50996-0.39723-0.50996-0.17984 0-0.31404 0.0966-0.4375 0.22009h-8e-3l-0.0188-0.18788h-0.18252z"/>
    <path d="m248.19 113.67c0 0.42676 0.27646 0.68175 0.62538 0.68175 0.17715 0 0.31672-0.0617 0.42945-0.1342l-0.0778-0.14494c-0.0966 0.0617-0.2013 0.10199-0.32477 0.10199-0.24961 0-0.41871-0.17715-0.43481-0.45897h0.88036c5e-3 -0.0322 8e-3 -0.0752 8e-3 -0.12078 0-0.37308-0.18789-0.61196-0.52071-0.61196-0.29793 0-0.58512 0.26035-0.58512 0.68711zm0.21472-0.0993c0.0268-0.26303 0.19325-0.41334 0.37577-0.41334 0.20399 0 0.32208 0.14762 0.32208 0.41334z"/>
   </g>
   <g aria-label="Cocos2D">
    <path d="m238.88 128.85c0 0.57438 0.33014 0.91257 0.77301 0.91257 0.22277 0 0.39723-0.0939 0.53412-0.25498l-0.12615-0.13689c-0.11273 0.12615-0.23619 0.19594-0.4026 0.19594-0.33551 0-0.54755-0.27914-0.54755-0.72201 0-0.4375 0.22278-0.71127 0.55828-0.71127 0.14494 0 0.25767 0.0644 0.35161 0.16373l0.12615-0.14226c-0.10468-0.11541-0.27109-0.2174-0.48044-0.2174-0.45092 0-0.78643 0.34624-0.78643 0.91257z"/>
    <path d="m240.39 129.08c0 0.43213 0.28451 0.68174 0.60391 0.68174s0.60391-0.24961 0.60391-0.68174c0-0.4375-0.28451-0.68712-0.60391-0.68712s-0.60391 0.24962-0.60391 0.68712zm0.22814 0c0-0.30062 0.15299-0.5046 0.37577-0.5046 0.22546 0 0.37576 0.20398 0.37576 0.5046 0 0.29793-0.1503 0.49923-0.37576 0.49923-0.22278 0-0.37577-0.2013-0.37577-0.49923z"/>
    <path d="m241.85 129.08c0 0.43213 0.26572 0.68174 0.61196 0.68174 0.15567 0 0.30598-0.0644 0.42408-0.16909l-0.0993-0.14494c-0.0778 0.0698-0.18252 0.13152-0.30598 0.13152-0.23888 0-0.40261-0.2013-0.40261-0.49923 0-0.30062 0.17178-0.5046 0.40798-0.5046 0.10467 0 0.18519 0.0483 0.26303 0.11541l0.11005-0.14225c-0.0886-0.0832-0.20936-0.15568-0.38114-0.15568-0.3355 0-0.62806 0.24962-0.62806 0.68712z"/>
    <path d="m243.01 129.08c0 0.43213 0.28451 0.68174 0.60391 0.68174s0.60391-0.24961 0.60391-0.68174c0-0.4375-0.28451-0.68712-0.60391-0.68712s-0.60391 0.24962-0.60391 0.68712zm0.22814 0c0-0.30062 0.15299-0.5046 0.37577-0.5046 0.22546 0 0.37577 0.20398 0.37577 0.5046 0 0.29793-0.15031 0.49923-0.37577 0.49923-0.22278 0-0.37577-0.2013-0.37577-0.49923z"/>
    <path d="m244.42 129.58c0.12346 0.102 0.30061 0.17983 0.48581 0.17983 0.30866 0 0.47776-0.17714 0.47776-0.38918 0-0.24693-0.20936-0.32477-0.39724-0.39456-0.14762-0.0564-0.28988-0.10467-0.28988-0.22546 0-0.0993 0.0752-0.18788 0.23888-0.18788 0.11542 0 0.20936 0.0483 0.29793 0.11542l0.10468-0.13958c-0.0993-0.0805-0.24156-0.14762-0.40529-0.14762-0.28182 0-0.44823 0.16105-0.44823 0.3704 0 0.22009 0.20398 0.30866 0.38918 0.37577 0.14226 0.0537 0.29793 0.11273 0.29793 0.24693 0 0.11273-0.0859 0.20398-0.25767 0.20398-0.15567 0-0.27109-0.0644-0.38382-0.15567z"/>
    <path d="m245.58 129.73h1.1058v-0.19056h-0.49655c-0.0886 0-0.19325 8e-3 -0.28719 0.0161 0.40529-0.42408 0.69785-0.74348 0.69785-1.0656 0-0.3033-0.19594-0.5046-0.51265-0.5046-0.22278 0-0.37577 0.10468-0.51802 0.26035l0.12615 0.12615c0.0993-0.11541 0.22277-0.20667 0.36503-0.20667 0.2174 0 0.32477 0.13957 0.32477 0.3355 0 0.27646-0.28988 0.58513-0.80522 1.0978z"/>
    <path d="m247.04 129.73h0.45092c0.53144 0 0.82131-0.32745 0.82131-0.88841 0-0.55828-0.28987-0.87232-0.83205-0.87232h-0.44018zm0.22546-0.18251v-1.3957h0.19862c0.41334 0 0.61733 0.24693 0.61733 0.6898 0 0.44555-0.20399 0.7059-0.61733 0.7059z"/>
   </g>
   <g aria-label="Fusion">
    <path d="m282.9 129.73h0.22546v-0.7891h0.67101v-0.18789h-0.67101v-0.59585h0.79179v-0.18789h-1.0172z"/>
    <path d="m284.13 129.25c0 0.33282 0.12347 0.50996 0.39992 0.50996 0.17983 0 0.30867-0.0939 0.42945-0.23619h8e-3l0.0188 0.20398h0.18251v-1.3044h-0.22009v0.926c-0.12346 0.15299-0.21741 0.22009-0.35161 0.22009-0.17178 0-0.24424-0.10468-0.24424-0.34893v-0.79716h-0.22278z"/>
    <path d="m285.47 129.58c0.12347 0.102 0.30061 0.17983 0.48581 0.17983 0.30867 0 0.47776-0.17714 0.47776-0.38918 0-0.24693-0.20935-0.32477-0.39724-0.39456-0.14762-0.0564-0.28987-0.10467-0.28987-0.22546 0-0.0993 0.0752-0.18788 0.23888-0.18788 0.11541 0 0.20935 0.0483 0.29793 0.11542l0.10467-0.13958c-0.0993-0.0805-0.24156-0.14762-0.40529-0.14762-0.28182 0-0.44823 0.16105-0.44823 0.3704 0 0.22009 0.20399 0.30866 0.38918 0.37577 0.14226 0.0537 0.29793 0.11273 0.29793 0.24693 0 0.11273-0.0859 0.20398-0.25766 0.20398-0.15568 0-0.27109-0.0644-0.38382-0.15567z"/>
    <path d="m286.86 128.16c0.0859 0 0.15299-0.0591 0.15299-0.14226 0-0.0859-0.0671-0.14225-0.15299-0.14225-0.0859 0-0.15299 0.0564-0.15299 0.14225 0 0.0832 0.0671 0.14226 0.15299 0.14226zm-0.11273 1.5728h0.22009v-1.3044h-0.22009z"/>
    <path d="m287.31 129.08c0 0.43213 0.28451 0.68174 0.60391 0.68174s0.60391-0.24961 0.60391-0.68174c0-0.4375-0.28451-0.68712-0.60391-0.68712s-0.60391 0.24962-0.60391 0.68712zm0.22814 0c0-0.30062 0.15299-0.5046 0.37577-0.5046 0.22546 0 0.37576 0.20398 0.37576 0.5046 0 0.29793-0.1503 0.49923-0.37576 0.49923-0.22278 0-0.37577-0.2013-0.37577-0.49923z"/>
    <path d="m288.86 129.73h0.22009v-0.94478c0.13152-0.13152 0.22278-0.2013 0.35698-0.2013 0.17178 0 0.24693 0.10468 0.24693 0.34892v0.79716h0.22009v-0.82668c0-0.33282-0.12346-0.50997-0.39723-0.50997-0.17983 0-0.31404 0.0966-0.4375 0.22009h-8e-3l-0.0188-0.18788h-0.18252z"/>
   </g>
   <g aria-label="GameMaker">
    <path d="m301.15 128.85c0 0.57438 0.33014 0.91257 0.79179 0.91257 0.2362 0 0.43213-0.0913 0.54755-0.20398v-0.7408h-0.57707v0.1852h0.37308v0.45897c-0.0698 0.0644-0.19325 0.10468-0.3194 0.10468-0.37577 0-0.58512-0.27914-0.58512-0.72201 0-0.4375 0.22814-0.71127 0.58512-0.71127 0.17446 0 0.28451 0.0698 0.37308 0.16373l0.12883-0.14226c-0.10467-0.10736-0.26572-0.2174-0.5046-0.2174-0.47239 0-0.81326 0.34624-0.81326 0.91257z"/>
    <path d="m302.82 129.39c0 0.23351 0.16372 0.37039 0.38381 0.37039 0.16105 0 0.30598-0.0859 0.43213-0.18788h5e-3l0.0188 0.15567h0.18252v-0.79984c0-0.32477-0.13421-0.53681-0.45361-0.53681-0.20935 0-0.39187 0.0913-0.51265 0.1691l0.0886 0.15299c0.102-0.0698 0.2362-0.13957 0.38919-0.13957 0.21204 0 0.2684 0.16104 0.2684 0.32745-0.55559 0.0617-0.80252 0.20399-0.80252 0.4885zm0.2174-0.0161c0-0.16641 0.14763-0.27377 0.58512-0.32745v0.36234c-0.12615 0.11273-0.23082 0.17447-0.35697 0.17447-0.12884 0-0.22815-0.0617-0.22815-0.20936z"/>
    <path d="m304.26 129.73h0.22009v-0.94478c0.12078-0.1342 0.23083-0.2013 0.32745-0.2013 0.16641 0 0.24425 0.10468 0.24425 0.34892v0.79716h0.22009v-0.94478c0.12078-0.1342 0.22546-0.2013 0.32745-0.2013 0.16373 0 0.24157 0.10468 0.24157 0.34892v0.79716h0.22009v-0.82668c0-0.33282-0.12884-0.50997-0.39724-0.50997-0.15836 0-0.29256 0.102-0.42945 0.24962-0.0537-0.15568-0.16104-0.24962-0.35966-0.24962-0.15567 0-0.29256 0.0966-0.40529 0.22009h-8e-3l-0.0188-0.18788h-0.18251z"/>
    <path d="m306.38 129.08c0 0.42676 0.27646 0.68174 0.62538 0.68174 0.17715 0 0.31672-0.0617 0.42945-0.1342l-0.0778-0.14494c-0.0966 0.0617-0.2013 0.102-0.32477 0.102-0.24961 0-0.41871-0.17715-0.43481-0.45897h0.88036c5e-3 -0.0322 8e-3 -0.0752 8e-3 -0.12079 0-0.37308-0.18789-0.61196-0.52071-0.61196-0.29793 0-0.58512 0.26035-0.58512 0.68712zm0.21472-0.0993c0.0269-0.26304 0.19326-0.41334 0.37577-0.41334 0.20399 0 0.32209 0.14762 0.32209 0.41334z"/>
    <path d="m307.82 129.73h0.20667v-0.96893c0-0.15568-0.0161-0.36503-0.0268-0.52071h0.0107l0.13957 0.39187 0.33819 0.92063h0.12883l0.33819-0.92063 0.13957-0.39187h0.0107c-0.0107 0.15568-0.0295 0.36503-0.0295 0.52071v0.96893h0.21204v-1.7607h-0.26303l-0.33819 0.94479-0.12347 0.35966h-0.0107l-0.12615-0.35966-0.34088-0.94479h-0.26572z"/>
    <path d="m309.69 129.39c0 0.23351 0.16373 0.37039 0.38382 0.37039 0.16104 0 0.30598-0.0859 0.43213-0.18788h5e-3l0.0188 0.15567h0.18251v-0.79984c0-0.32477-0.1342-0.53681-0.4536-0.53681-0.20935 0-0.39187 0.0913-0.51265 0.1691l0.0886 0.15299c0.102-0.0698 0.2362-0.13957 0.38919-0.13957 0.21204 0 0.2684 0.16104 0.2684 0.32745-0.55559 0.0617-0.80253 0.20399-0.80253 0.4885zm0.21741-0.0161c0-0.16641 0.14762-0.27377 0.58512-0.32745v0.36234c-0.12615 0.11273-0.23083 0.17447-0.35697 0.17447-0.12884 0-0.22815-0.0617-0.22815-0.20936z"/>
    <path d="m311.12 129.73h0.21741v-0.34355l0.24425-0.28451 0.38113 0.62806h0.24157l-0.49655-0.78105 0.4375-0.52339h-0.24425l-0.5556 0.68712h-8e-3v-1.2937h-0.21741z"/>
    <path d="m312.31 129.08c0 0.42676 0.27646 0.68174 0.62538 0.68174 0.17715 0 0.31672-0.0617 0.42945-0.1342l-0.0778-0.14494c-0.0966 0.0617-0.2013 0.102-0.32477 0.102-0.24961 0-0.41871-0.17715-0.43481-0.45897h0.88036c5e-3 -0.0322 8e-3 -0.0752 8e-3 -0.12079 0-0.37308-0.18789-0.61196-0.52071-0.61196-0.29793 0-0.58512 0.26035-0.58512 0.68712zm0.21473-0.0993c0.0268-0.26304 0.19325-0.41334 0.37576-0.41334 0.20399 0 0.32209 0.14762 0.32209 0.41334z"/>
    <path d="m313.73 129.73h0.22009v-0.83742c0.0886-0.22009 0.2201-0.30061 0.33014-0.30061 0.0537 0 0.0832 8e-3 0.12615 0.0215l0.043-0.19325c-0.043-0.0188-0.0832-0.0268-0.13957-0.0268-0.14763 0-0.28183 0.10468-0.3704 0.26841h-8e-3l-0.0188-0.2362h-0.18252z"/>
   </g>
   <g aria-label="Naughty Dog">
    <path d="m279.48 114.32h0.21204v-0.92063c0-0.1852-0.0161-0.37308-0.0268-0.55023h0.0107l0.19056 0.36235 0.63612 1.1085h0.23083v-1.7607h-0.21204v0.90989c0 0.1852 0.0188 0.38382 0.0295 0.56096h-0.0107l-0.19057-0.36503-0.6388-1.1058h-0.23083z"/>
    <path d="m281.13 113.99c0 0.23351 0.16373 0.3704 0.38382 0.3704 0.16104 0 0.30598-0.0859 0.43213-0.18789h5e-3l0.0188 0.15568h0.18252v-0.79985c0-0.32476-0.1342-0.5368-0.4536-0.5368-0.20936 0-0.39187 0.0913-0.51266 0.16909l0.0886 0.15299c0.10199-0.0698 0.23619-0.13957 0.38918-0.13957 0.21204 0 0.26841 0.16104 0.26841 0.32745-0.5556 0.0617-0.80253 0.20399-0.80253 0.4885zm0.21741-0.0161c0-0.16642 0.14762-0.27378 0.58512-0.32746v0.36235c-0.12615 0.11273-0.23083 0.17446-0.35698 0.17446-0.12883 0-0.22814-0.0617-0.22814-0.20935z"/>
    <path d="m282.55 113.85c0 0.33282 0.12347 0.50997 0.39992 0.50997 0.17984 0 0.30867-0.0939 0.42945-0.2362h8e-3l0.0188 0.20399h0.18252v-1.3044h-0.2201v0.92599c-0.12346 0.15299-0.2174 0.22009-0.3516 0.22009-0.17178 0-0.24425-0.10468-0.24425-0.34892v-0.79716h-0.22278z"/>
    <path d="m284.12 114.54c0-0.0752 0.0403-0.15299 0.13421-0.22009 0.0564 0.0161 0.11809 0.0215 0.16909 0.0215h0.22546c0.16909 0 0.26304 0.0403 0.26304 0.16104 0 0.13689-0.16373 0.26572-0.41335 0.26572-0.23619 0-0.37845-0.0886-0.37845-0.22814zm-0.19325 0.0295c0 0.22546 0.22009 0.35161 0.5395 0.35161 0.40529 0 0.66027-0.20935 0.66027-0.45092 0-0.2174-0.15299-0.31134-0.45629-0.31134h-0.2523c-0.17714 0-0.23082-0.059-0.23082-0.14226 0-0.0725 0.0376-0.11541 0.0832-0.15567 0.0591 0.0295 0.13152 0.0456 0.19594 0.0456 0.26572 0 0.47775-0.17447 0.47775-0.45361 0-0.11004-0.0456-0.20935-0.10736-0.2684h0.26841v-0.16909h-0.45361c-0.0483-0.0188-0.11273-0.0322-0.18519-0.0322-0.26572 0-0.49118 0.17983-0.49118 0.46434 0 0.15567 0.0832 0.28182 0.16909 0.3516v0.0107c-0.0671 0.0456-0.14225 0.13152-0.14225 0.24156 0 0.102 0.051 0.17178 0.11541 0.21204v0.0107c-0.1181 0.0805-0.19057 0.1852-0.19057 0.29524zm0.5395-0.81058c-0.15031 0-0.27646-0.12078-0.27646-0.31134 0-0.19057 0.12346-0.3033 0.27646-0.3033 0.15299 0 0.27645 0.11273 0.27645 0.3033 0 0.19056-0.12615 0.31134-0.27645 0.31134z"/>
    <path d="m285.38 114.32h0.22009v-0.94478c0.13152-0.13152 0.22277-0.20131 0.35698-0.20131 0.17177 0 0.24693 0.10468 0.24693 0.34893v0.79716h0.22009v-0.82669c0-0.33282-0.12347-0.50996-0.39724-0.50996-0.17983 0-0.31135 0.0966-0.43481 0.21472l8e-3 -0.2684v-0.52071h-0.22009z"/>
    <path d="m286.88 113.92c0 0.25767 0.0939 0.43482 0.37308 0.43482 0.0805 0 0.16909-0.0242 0.24156-0.0483l-0.0429-0.16641c-0.0429 0.0161-0.102 0.0349-0.14763 0.0349-0.1503 0-0.2013-0.0913-0.2013-0.2523v-0.72469h0.35161v-0.17983h-0.35161v-0.36503h-0.1852l-0.0268 0.36503-0.20398 0.0134v0.16641h0.19325z"/>
    <path d="m287.66 114.68-0.043 0.17446c0.043 0.0161 0.0939 0.0268 0.15299 0.0268 0.26304 0 0.39724-0.19593 0.4885-0.4536l0.49118-1.4118h-0.21472l-0.23352 0.722c-0.0349 0.11542-0.0725 0.24962-0.11004 0.36772h-0.0107c-0.0403-0.12079-0.0859-0.25499-0.12615-0.36772l-0.26572-0.722h-0.22814l0.52339 1.3071-0.0295 0.0966c-0.0537 0.16104-0.14762 0.27914-0.29524 0.27914-0.0322 0-0.0725-0.0107-0.0993-0.0188z"/>
    <path d="m289.56 114.32h0.45092c0.53144 0 0.82131-0.32745 0.82131-0.88842 0-0.55828-0.28987-0.87231-0.83205-0.87231h-0.44018zm0.22546-0.18252v-1.3957h0.19862c0.41334 0 0.61732 0.24693 0.61732 0.6898 0 0.44555-0.20398 0.7059-0.61732 0.7059z"/>
    <path d="m291.09 113.67c0 0.43213 0.28451 0.68175 0.60391 0.68175s0.60391-0.24962 0.60391-0.68175c0-0.4375-0.28451-0.68711-0.60391-0.68711s-0.60391 0.24961-0.60391 0.68711zm0.22814 0c0-0.30061 0.15299-0.5046 0.37577-0.5046 0.22546 0 0.37576 0.20399 0.37576 0.5046 0 0.29793-0.1503 0.49923-0.37576 0.49923-0.22278 0-0.37577-0.2013-0.37577-0.49923z"/>
    <path d="m292.74 114.54c0-0.0752 0.0403-0.15299 0.1342-0.22009 0.0564 0.0161 0.1181 0.0215 0.16909 0.0215h0.22546c0.1691 0 0.26304 0.0403 0.26304 0.16104 0 0.13689-0.16373 0.26572-0.41334 0.26572-0.2362 0-0.37845-0.0886-0.37845-0.22814zm-0.19325 0.0295c0 0.22546 0.22009 0.35161 0.53949 0.35161 0.40529 0 0.66027-0.20935 0.66027-0.45092 0-0.2174-0.15299-0.31134-0.45628-0.31134h-0.2523c-0.17715 0-0.23083-0.059-0.23083-0.14226 0-0.0725 0.0376-0.11541 0.0832-0.15567 0.059 0.0295 0.13152 0.0456 0.19594 0.0456 0.26572 0 0.47776-0.17447 0.47776-0.45361 0-0.11004-0.0456-0.20935-0.10736-0.2684h0.2684v-0.16909h-0.4536c-0.0483-0.0188-0.11273-0.0322-0.1852-0.0322-0.26572 0-0.49118 0.17983-0.49118 0.46434 0 0.15567 0.0832 0.28182 0.16909 0.3516v0.0107c-0.0671 0.0456-0.14225 0.13152-0.14225 0.24156 0 0.102 0.051 0.17178 0.11541 0.21204v0.0107c-0.11809 0.0805-0.19056 0.1852-0.19056 0.29524zm0.53949-0.81058c-0.15031 0-0.27646-0.12078-0.27646-0.31134 0-0.19057 0.12347-0.3033 0.27646-0.3033s0.27645 0.11273 0.27645 0.3033c0 0.19056-0.12615 0.31134-0.27645 0.31134z"/>
   </g>
   <g aria-label="RAGE Engine">
    <path d="m301.45 112.74h0.29524c0.27377 0 0.42408 0.0832 0.42408 0.31403 0 0.22815-0.15031 0.34087-0.42408 0.34087h-0.29524zm0.99577 1.5809-0.44823-0.76764c0.23888-0.0617 0.39455-0.22546 0.39455-0.49923 0-0.36503-0.25766-0.49386-0.61464-0.49386h-0.55291v1.7607h0.22546v-0.74348h0.31671l0.42408 0.74348z"/>
    <path d="m302.97 113.61 0.0859-0.2684c0.0617-0.19594 0.1181-0.38919 0.17447-0.59318h0.0107c0.0564 0.20399 0.11273 0.39724 0.17446 0.59318l0.0832 0.2684zm0.75422 0.71664h0.2362l-0.59586-1.7607h-0.2523l-0.59586 1.7607h0.22814l0.1691-0.53681h0.64149z"/>
    <path d="m304.06 113.44c0 0.57439 0.33014 0.91258 0.79179 0.91258 0.2362 0 0.43213-0.0913 0.54755-0.20399v-0.74079h-0.57707v0.18519h0.37308v0.45897c-0.0698 0.0644-0.19325 0.10468-0.3194 0.10468-0.37577 0-0.58512-0.27914-0.58512-0.722 0-0.4375 0.22814-0.71128 0.58512-0.71128 0.17446 0 0.28451 0.0698 0.37308 0.16373l0.12883-0.14225c-0.10467-0.10736-0.26571-0.21741-0.50459-0.21741-0.4724 0-0.81327 0.34624-0.81327 0.91257z"/>
    <path d="m305.8 114.32h1.0414v-0.19057h-0.81595v-0.6388h0.66565v-0.19057h-0.66565v-0.55291h0.78911v-0.18788h-1.0146z"/>
    <path d="m307.74 114.32h1.0414v-0.19057h-0.81595v-0.6388h0.66564v-0.19057h-0.66564v-0.55291h0.78911v-0.18788h-1.0146z"/>
    <path d="m309.13 114.32h0.22009v-0.94478c0.13152-0.13152 0.22277-0.20131 0.35698-0.20131 0.17177 0 0.24693 0.10468 0.24693 0.34893v0.79716h0.22009v-0.82669c0-0.33282-0.12347-0.50996-0.39724-0.50996-0.17983 0-0.31403 0.0966-0.4375 0.22009h-8e-3l-0.0188-0.18788h-0.18251z"/>
    <path d="m310.69 114.54c0-0.0752 0.0403-0.15299 0.1342-0.22009 0.0564 0.0161 0.1181 0.0215 0.1691 0.0215h0.22546c0.16909 0 0.26303 0.0403 0.26303 0.16104 0 0.13689-0.16372 0.26572-0.41334 0.26572-0.23619 0-0.37845-0.0886-0.37845-0.22814zm-0.19325 0.0295c0 0.22546 0.22009 0.35161 0.53949 0.35161 0.40529 0 0.66028-0.20935 0.66028-0.45092 0-0.2174-0.15299-0.31134-0.45629-0.31134h-0.2523c-0.17715 0-0.23083-0.059-0.23083-0.14226 0-0.0725 0.0376-0.11541 0.0832-0.15567 0.0591 0.0295 0.13152 0.0456 0.19593 0.0456 0.26572 0 0.47776-0.17447 0.47776-0.45361 0-0.11004-0.0456-0.20935-0.10736-0.2684h0.26841v-0.16909h-0.45361c-0.0483-0.0188-0.11273-0.0322-0.1852-0.0322-0.26572 0-0.49118 0.17983-0.49118 0.46434 0 0.15567 0.0832 0.28182 0.1691 0.3516v0.0107c-0.0671 0.0456-0.14226 0.13152-0.14226 0.24156 0 0.102 0.051 0.17178 0.11542 0.21204v0.0107c-0.1181 0.0805-0.19057 0.1852-0.19057 0.29524zm0.53949-0.81058c-0.1503 0-0.27645-0.12078-0.27645-0.31134 0-0.19057 0.12346-0.3033 0.27645-0.3033s0.27646 0.11273 0.27646 0.3033c0 0.19056-0.12615 0.31134-0.27646 0.31134z"/>
    <path d="m312.06 112.75c0.0859 0 0.15299-0.059 0.15299-0.14225 0-0.0859-0.0671-0.14226-0.15299-0.14226-0.0859 0-0.15299 0.0564-0.15299 0.14226 0 0.0832 0.0671 0.14225 0.15299 0.14225zm-0.11273 1.5728h0.22009v-1.3044h-0.22009z"/>
    <path d="m312.61 114.32h0.22009v-0.94478c0.13152-0.13152 0.22278-0.20131 0.35698-0.20131 0.17178 0 0.24693 0.10468 0.24693 0.34893v0.79716h0.22009v-0.82669c0-0.33282-0.12346-0.50996-0.39724-0.50996-0.17983 0-0.31403 0.0966-0.43749 0.22009h-8e-3l-0.0188-0.18788h-0.18252z"/>
    <path d="m313.98 113.67c0 0.42676 0.27646 0.68175 0.62538 0.68175 0.17715 0 0.31672-0.0617 0.42945-0.1342l-0.0778-0.14494c-0.0966 0.0617-0.2013 0.10199-0.32477 0.10199-0.24961 0-0.41871-0.17715-0.43481-0.45897h0.88036c5e-3 -0.0322 8e-3 -0.0752 8e-3 -0.12078 0-0.37308-0.18788-0.61196-0.5207-0.61196-0.29793 0-0.58512 0.26035-0.58512 0.68711zm0.21472-0.0993c0.0268-0.26303 0.19325-0.41334 0.37577-0.41334 0.20399 0 0.32208 0.14762 0.32208 0.41334z"/>
   </g>
   <g aria-label="Godot">
    <path d="m261.44 128.85c0 0.57438 0.33013 0.91257 0.79179 0.91257 0.23619 0 0.43213-0.0913 0.54754-0.20398v-0.7408h-0.57707v0.1852h0.37309v0.45897c-0.0698 0.0644-0.19325 0.10468-0.3194 0.10468-0.37577 0-0.58513-0.27914-0.58513-0.72201 0-0.4375 0.22815-0.71127 0.58513-0.71127 0.17446 0 0.2845 0.0698 0.37308 0.16373l0.12883-0.14226c-0.10468-0.10736-0.26572-0.2174-0.5046-0.2174-0.47239 0-0.81326 0.34624-0.81326 0.91257z"/>
    <path d="m263.07 129.08c0 0.43213 0.28451 0.68174 0.60391 0.68174s0.60391-0.24961 0.60391-0.68174c0-0.4375-0.28451-0.68712-0.60391-0.68712s-0.60391 0.24962-0.60391 0.68712zm0.22815 0c0-0.30062 0.15299-0.5046 0.37576-0.5046 0.22546 0 0.37577 0.20398 0.37577 0.5046 0 0.29793-0.15031 0.49923-0.37577 0.49923-0.22277 0-0.37576-0.2013-0.37576-0.49923z"/>
    <path d="m264.53 129.08c0 0.43481 0.21204 0.68174 0.53949 0.68174 0.15299 0 0.29256-0.0859 0.39455-0.1852h8e-3l0.0188 0.15299h0.18252v-1.911h-0.22278v0.50191l0.0107 0.22278c-0.11541-0.0939-0.21472-0.15031-0.36503-0.15031-0.29793 0-0.56633 0.26304-0.56633 0.68712zm0.22814-3e-3c0-0.29793 0.16641-0.49923 0.37577-0.49923 0.10736 0 0.20667 0.0376 0.31671 0.13689v0.68174c-0.10736 0.12079-0.21203 0.17983-0.33282 0.17983-0.22814 0-0.35966-0.18788-0.35966-0.49923z"/>
    <path d="m266.02 129.08c0 0.43213 0.28451 0.68174 0.60391 0.68174s0.60391-0.24961 0.60391-0.68174c0-0.4375-0.28451-0.68712-0.60391-0.68712s-0.60391 0.24962-0.60391 0.68712zm0.22814 0c0-0.30062 0.15299-0.5046 0.37577-0.5046 0.22546 0 0.37576 0.20398 0.37576 0.5046 0 0.29793-0.1503 0.49923-0.37576 0.49923-0.22278 0-0.37577-0.2013-0.37577-0.49923z"/>
    <path d="m267.61 129.33c0 0.25767 0.0939 0.43481 0.37308 0.43481 0.0805 0 0.1691-0.0242 0.24157-0.0483l-0.043-0.16641c-0.0429 0.0161-0.10199 0.0349-0.14762 0.0349-0.15031 0-0.2013-0.0913-0.2013-0.2523v-0.72469h0.3516v-0.17983h-0.3516v-0.36503h-0.1852l-0.0268 0.36503-0.20399 0.0134v0.16641h0.19325z"/>
   </g>
   <g aria-label="Torque 2D">
    <path d="m217.25 129.73h0.22278v-1.5728h0.53412v-0.18789h-1.291v0.18789h0.53412z"/>
    <path d="m218.02 129.08c0 0.43213 0.28451 0.68174 0.60391 0.68174s0.60391-0.24961 0.60391-0.68174c0-0.4375-0.28451-0.68712-0.60391-0.68712s-0.60391 0.24962-0.60391 0.68712zm0.22815 0c0-0.30062 0.15299-0.5046 0.37576-0.5046 0.22546 0 0.37577 0.20398 0.37577 0.5046 0 0.29793-0.15031 0.49923-0.37577 0.49923-0.22277 0-0.37576-0.2013-0.37576-0.49923z"/>
    <path d="m219.58 129.73h0.22009v-0.83742c0.0886-0.22009 0.22009-0.30061 0.33014-0.30061 0.0537 0 0.0832 8e-3 0.12615 0.0215l0.0429-0.19325c-0.0429-0.0188-0.0832-0.0268-0.13957-0.0268-0.14762 0-0.28182 0.10468-0.37039 0.26841h-8e-3l-0.0188-0.2362h-0.18251z"/>
    <path d="m220.39 129.08c0 0.43481 0.21204 0.68174 0.53949 0.68174 0.15031 0 0.2872-0.0805 0.39187-0.17714l-0.0107 0.23082v0.46434h0.22277v-1.8547h-0.17714l-0.0215 0.12347h-5e-3c-0.11809-0.102-0.22277-0.15568-0.37308-0.15568-0.29793 0-0.56633 0.26304-0.56633 0.68712zm0.22814-3e-3c0-0.29793 0.16641-0.49923 0.37577-0.49923 0.10736 0 0.20667 0.0376 0.31672 0.13689v0.68174c-0.10737 0.12079-0.21204 0.17983-0.33282 0.17983-0.22815 0-0.35967-0.18788-0.35967-0.49923z"/>
    <path d="m221.94 129.25c0 0.33282 0.12347 0.50996 0.39992 0.50996 0.17984 0 0.30867-0.0939 0.42945-0.23619h8e-3l0.0188 0.20398h0.18252v-1.3044h-0.22009v0.926c-0.12347 0.15299-0.21741 0.22009-0.35161 0.22009-0.17178 0-0.24425-0.10468-0.24425-0.34893v-0.79716h-0.22278z"/>
    <path d="m223.33 129.08c0 0.42676 0.27645 0.68174 0.62538 0.68174 0.17715 0 0.31672-0.0617 0.42945-0.1342l-0.0778-0.14494c-0.0966 0.0617-0.2013 0.102-0.32477 0.102-0.24962 0-0.41871-0.17715-0.43481-0.45897h0.88036c5e-3 -0.0322 8e-3 -0.0752 8e-3 -0.12079 0-0.37308-0.18788-0.61196-0.5207-0.61196-0.29793 0-0.58512 0.26035-0.58512 0.68712zm0.21472-0.0993c0.0268-0.26304 0.19325-0.41334 0.37577-0.41334 0.20398 0 0.32208 0.14762 0.32208 0.41334z"/>
    <path d="m225.18 129.73h1.1058v-0.19056h-0.49655c-0.0886 0-0.19325 8e-3 -0.28719 0.0161 0.40529-0.42408 0.69785-0.74348 0.69785-1.0656 0-0.3033-0.19594-0.5046-0.51265-0.5046-0.22278 0-0.37577 0.10468-0.51802 0.26035l0.12615 0.12615c0.0993-0.11541 0.22277-0.20667 0.36503-0.20667 0.2174 0 0.32476 0.13957 0.32476 0.3355 0 0.27646-0.28987 0.58513-0.80521 1.0978z"/>
    <path d="m226.64 129.73h0.45092c0.53144 0 0.82131-0.32745 0.82131-0.88841 0-0.55828-0.28987-0.87232-0.83205-0.87232h-0.44018zm0.22546-0.18251v-1.3957h0.19862c0.41334 0 0.61733 0.24693 0.61733 0.6898 0 0.44555-0.20399 0.7059-0.61733 0.7059z"/>
   </g>
   <g aria-label="OpenFrameworks">
    <path d="m213.15 144.82c0.44018 0 0.75153-0.3543 0.75153-0.92063 0-0.56096-0.31135-0.90452-0.75153-0.90452-0.44287 0-0.75422 0.34087-0.75422 0.90452 0 0.56633 0.31135 0.92063 0.75422 0.92063zm0-0.19594c-0.31672 0-0.52339-0.28451-0.52339-0.72469 0-0.4375 0.20667-0.70859 0.52339-0.70859 0.31403 0 0.5207 0.27109 0.5207 0.70859 0 0.44018-0.20667 0.72469-0.5207 0.72469z"/>
    <path d="m214.47 144.67c0.12078 0.0939 0.24156 0.15031 0.36235 0.15031 0.29793 0 0.56365-0.26036 0.56365-0.70322 0-0.40529-0.17984-0.66564-0.51534-0.66564-0.15299 0-0.29793 0.0832-0.41603 0.18251h-8e-3l-0.0188-0.15031h-0.18251v1.8547h0.22009v-0.44019zm5e-3 -0.17178v-0.68443c0.12883-0.11541 0.23888-0.17715 0.34892-0.17715 0.24694 0 0.34356 0.19325 0.34356 0.48045 0 0.32208-0.15836 0.51802-0.37308 0.51802-0.0859 0-0.2013-0.0376-0.3194-0.13689z"/>
    <path d="m215.64 144.14c0 0.42676 0.27645 0.68175 0.62538 0.68175 0.17714 0 0.31671-0.0617 0.42944-0.13421l-0.0778-0.14493c-0.0966 0.0617-0.20131 0.10199-0.32477 0.10199-0.24962 0-0.41871-0.17715-0.43482-0.45897h0.88037c5e-3 -0.0322 8e-3 -0.0752 8e-3 -0.12078 0-0.37309-0.18788-0.61196-0.5207-0.61196-0.29793 0-0.58512 0.26035-0.58512 0.68711zm0.21472-0.0993c0.0268-0.26304 0.19325-0.41334 0.37576-0.41334 0.20399 0 0.32209 0.14762 0.32209 0.41334z"/>
    <path d="m217.07 144.79h0.22009v-0.94478c0.13152-0.13152 0.22277-0.20131 0.35698-0.20131 0.17177 0 0.24693 0.10468 0.24693 0.34893v0.79716h0.22009v-0.82669c0-0.33282-0.12347-0.50996-0.39724-0.50996-0.17983 0-0.31403 0.0966-0.4375 0.22009h-8e-3l-0.0188-0.18789h-0.18251z"/>
    <path d="m218.55 144.79h0.22546v-0.78911h0.67101v-0.18788h-0.67101v-0.59586h0.79179v-0.18788h-1.0172z"/>
    <path d="m219.8 144.79h0.22009v-0.83742c0.0886-0.22009 0.22009-0.30062 0.33013-0.30062 0.0537 0 0.0832 8e-3 0.12615 0.0215l0.043-0.19325c-0.043-0.0188-0.0832-0.0268-0.13957-0.0268-0.14762 0-0.28183 0.10467-0.3704 0.2684h-8e-3l-0.0188-0.2362h-0.18251z"/>
    <path d="m220.6 144.45c0 0.23351 0.16373 0.3704 0.38382 0.3704 0.16104 0 0.30598-0.0859 0.43213-0.18789h5e-3l0.0188 0.15568h0.18251v-0.79985c0-0.32477-0.1342-0.5368-0.4536-0.5368-0.20936 0-0.39187 0.0913-0.51265 0.16909l0.0886 0.15299c0.10199-0.0698 0.2362-0.13957 0.38919-0.13957 0.21204 0 0.2684 0.16104 0.2684 0.32745-0.5556 0.0617-0.80253 0.20399-0.80253 0.4885zm0.21741-0.0161c0-0.16641 0.14762-0.27377 0.58512-0.32745v0.36235c-0.12615 0.11273-0.23083 0.17446-0.35698 0.17446-0.12883 0-0.22814-0.0617-0.22814-0.20936z"/>
    <path d="m222.04 144.79h0.22009v-0.94478c0.12079-0.13421 0.23083-0.20131 0.32746-0.20131 0.16641 0 0.24424 0.10468 0.24424 0.34893v0.79716h0.2201v-0.94478c0.12078-0.13421 0.22545-0.20131 0.32745-0.20131 0.16372 0 0.24156 0.10468 0.24156 0.34893v0.79716h0.22009v-0.82669c0-0.33282-0.12883-0.50996-0.39723-0.50996-0.15836 0-0.29256 0.10199-0.42945 0.24961-0.0537-0.15567-0.16104-0.24961-0.35966-0.24961-0.15568 0-0.29256 0.0966-0.40529 0.22009h-8e-3l-0.0188-0.18789h-0.18252z"/>
    <path d="m224.16 144.14c0 0.42676 0.27645 0.68175 0.62538 0.68175 0.17715 0 0.31672-0.0617 0.42945-0.13421l-0.0778-0.14493c-0.0966 0.0617-0.2013 0.10199-0.32477 0.10199-0.24962 0-0.41871-0.17715-0.43481-0.45897h0.88036c5e-3 -0.0322 8e-3 -0.0752 8e-3 -0.12078 0-0.37309-0.18788-0.61196-0.5207-0.61196-0.29793 0-0.58512 0.26035-0.58512 0.68711zm0.21472-0.0993c0.0268-0.26304 0.19325-0.41334 0.37577-0.41334 0.20398 0 0.32208 0.14762 0.32208 0.41334z"/>
    <path d="m225.81 144.79h0.25766l0.18252-0.69785c0.0349-0.12347 0.0617-0.24693 0.0913-0.37845h0.0107c0.0322 0.13152 0.0564 0.2523 0.0886 0.37576l0.18788 0.70054h0.2684l0.34893-1.3044h-0.20936l-0.19056 0.75422c-0.0268 0.12346-0.051 0.24156-0.0805 0.36234h-0.0107c-0.0295-0.12078-0.059-0.23888-0.0913-0.36234l-0.20399-0.75422h-0.21472l-0.2013 0.75422c-0.0322 0.12078-0.0591 0.24156-0.0886 0.36234h-0.0107c-0.0242-0.12078-0.0483-0.23888-0.0778-0.36234l-0.19325-0.75422h-0.22546z"/>
    <path d="m227.43 144.14c0 0.43213 0.28451 0.68175 0.60391 0.68175s0.60391-0.24962 0.60391-0.68175c0-0.4375-0.28451-0.68711-0.60391-0.68711s-0.60391 0.24961-0.60391 0.68711zm0.22814 0c0-0.30061 0.15299-0.5046 0.37577-0.5046 0.22546 0 0.37576 0.20399 0.37576 0.5046 0 0.29793-0.1503 0.49923-0.37576 0.49923-0.22278 0-0.37577-0.2013-0.37577-0.49923z"/>
    <path d="m228.98 144.79h0.2201v-0.83742c0.0886-0.22009 0.22009-0.30062 0.33013-0.30062 0.0537 0 0.0832 8e-3 0.12615 0.0215l0.043-0.19325c-0.043-0.0188-0.0832-0.0268-0.13957-0.0268-0.14763 0-0.28183 0.10467-0.3704 0.2684h-8e-3l-0.0188-0.2362h-0.18252z"/>
    <path d="m229.92 144.79h0.21741v-0.34356l0.24424-0.28451 0.38114 0.62807h0.24156l-0.49655-0.78106 0.4375-0.52339h-0.24425l-0.55559 0.68712h-8e-3v-1.2937h-0.21741z"/>
    <path d="m231.1 144.64c0.12347 0.10199 0.30062 0.17983 0.48581 0.17983 0.30867 0 0.47776-0.17715 0.47776-0.38919 0-0.24693-0.20935-0.32477-0.39723-0.39455-0.14763-0.0564-0.28988-0.10468-0.28988-0.22546 0-0.0993 0.0752-0.18789 0.23888-0.18789 0.11541 0 0.20935 0.0483 0.29793 0.11542l0.10467-0.13957c-0.0993-0.0805-0.24156-0.14762-0.40529-0.14762-0.28182 0-0.44823 0.16104-0.44823 0.37039 0 0.22009 0.20399 0.30867 0.38919 0.37577 0.14225 0.0537 0.29792 0.11273 0.29792 0.24693 0 0.11273-0.0859 0.20399-0.25766 0.20399-0.15568 0-0.27109-0.0644-0.38382-0.15568z"/>
   </g>
   <g aria-label="Processing">
    <path d="m237.77 144.79h0.22546v-0.69785h0.31671c0.38382 0 0.64954-0.17447 0.64954-0.54486 0-0.38651-0.26035-0.51802-0.64954-0.51802h-0.54217zm0.22546-0.88037v-0.70053h0.28719c0.30329 0 0.45628 0.0832 0.45628 0.33819 0 0.24961-0.14762 0.36234-0.45628 0.36234z"/>
    <path d="m239.29 144.79h0.22009v-0.83742c0.0886-0.22009 0.22009-0.30062 0.33014-0.30062 0.0537 0 0.0832 8e-3 0.12615 0.0215l0.0429-0.19325c-0.0429-0.0188-0.0832-0.0268-0.13957-0.0268-0.14762 0-0.28182 0.10467-0.3704 0.2684h-8e-3l-0.0188-0.2362h-0.18251z"/>
    <path d="m240.1 144.14c0 0.43213 0.28451 0.68175 0.60391 0.68175s0.60391-0.24962 0.60391-0.68175c0-0.4375-0.28451-0.68711-0.60391-0.68711s-0.60391 0.24961-0.60391 0.68711zm0.22815 0c0-0.30061 0.15299-0.5046 0.37576-0.5046 0.22546 0 0.37577 0.20399 0.37577 0.5046 0 0.29793-0.15031 0.49923-0.37577 0.49923-0.22277 0-0.37576-0.2013-0.37576-0.49923z"/>
    <path d="m241.55 144.14c0 0.43213 0.26572 0.68175 0.61197 0.68175 0.15567 0 0.30598-0.0644 0.42407-0.1691l-0.0993-0.14494c-0.0778 0.0698-0.18251 0.13152-0.30598 0.13152-0.23888 0-0.4026-0.2013-0.4026-0.49923 0-0.30061 0.17178-0.5046 0.40797-0.5046 0.10468 0 0.1852 0.0483 0.26304 0.11541l0.11004-0.14225c-0.0886-0.0832-0.20935-0.15567-0.38113-0.15567-0.33551 0-0.62807 0.24961-0.62807 0.68711z"/>
    <path d="m242.72 144.14c0 0.42676 0.27645 0.68175 0.62538 0.68175 0.17715 0 0.31672-0.0617 0.42945-0.13421l-0.0778-0.14493c-0.0966 0.0617-0.20131 0.10199-0.32477 0.10199-0.24962 0-0.41871-0.17715-0.43482-0.45897h0.88037c5e-3 -0.0322 8e-3 -0.0752 8e-3 -0.12078 0-0.37309-0.18788-0.61196-0.5207-0.61196-0.29793 0-0.58512 0.26035-0.58512 0.68711zm0.21472-0.0993c0.0268-0.26304 0.19325-0.41334 0.37577-0.41334 0.20398 0 0.32208 0.14762 0.32208 0.41334z"/>
    <path d="m244 144.64c0.12347 0.10199 0.30061 0.17983 0.48581 0.17983 0.30867 0 0.47776-0.17715 0.47776-0.38919 0-0.24693-0.20935-0.32477-0.39724-0.39455-0.14762-0.0564-0.28987-0.10468-0.28987-0.22546 0-0.0993 0.0751-0.18789 0.23888-0.18789 0.11541 0 0.20935 0.0483 0.29792 0.11542l0.10468-0.13957c-0.0993-0.0805-0.24156-0.14762-0.40529-0.14762-0.28182 0-0.44823 0.16104-0.44823 0.37039 0 0.22009 0.20398 0.30867 0.38918 0.37577 0.14226 0.0537 0.29793 0.11273 0.29793 0.24693 0 0.11273-0.0859 0.20399-0.25767 0.20399-0.15567 0-0.27108-0.0644-0.38381-0.15568z"/>
    <path d="m245.13 144.64c0.12346 0.10199 0.30061 0.17983 0.48581 0.17983 0.30866 0 0.47776-0.17715 0.47776-0.38919 0-0.24693-0.20936-0.32477-0.39724-0.39455-0.14762-0.0564-0.28988-0.10468-0.28988-0.22546 0-0.0993 0.0752-0.18789 0.23888-0.18789 0.11542 0 0.20936 0.0483 0.29793 0.11542l0.10468-0.13957c-0.0993-0.0805-0.24156-0.14762-0.40529-0.14762-0.28183 0-0.44824 0.16104-0.44824 0.37039 0 0.22009 0.20399 0.30867 0.38919 0.37577 0.14225 0.0537 0.29793 0.11273 0.29793 0.24693 0 0.11273-0.0859 0.20399-0.25767 0.20399-0.15567 0-0.27109-0.0644-0.38382-0.15568z"/>
    <path d="m246.51 143.21c0.0859 0 0.15299-0.059 0.15299-0.14225 0-0.0859-0.0671-0.14226-0.15299-0.14226-0.0859 0-0.15299 0.0564-0.15299 0.14226 0 0.0832 0.0671 0.14225 0.15299 0.14225zm-0.11273 1.5728h0.22009v-1.3044h-0.22009z"/>
    <path d="m247.06 144.79h0.22009v-0.94478c0.13152-0.13152 0.22277-0.20131 0.35698-0.20131 0.17177 0 0.24693 0.10468 0.24693 0.34893v0.79716h0.22009v-0.82669c0-0.33282-0.12347-0.50996-0.39724-0.50996-0.17983 0-0.31403 0.0966-0.4375 0.22009h-8e-3l-0.0188-0.18789h-0.18251z"/>
    <path d="m248.62 145.01c0-0.0752 0.0403-0.15299 0.13421-0.22009 0.0564 0.0161 0.11809 0.0215 0.16909 0.0215h0.22546c0.16909 0 0.26304 0.0403 0.26304 0.16104 0 0.13689-0.16373 0.26572-0.41335 0.26572-0.23619 0-0.37845-0.0886-0.37845-0.22814zm-0.19325 0.0295c0 0.22546 0.22009 0.35161 0.53949 0.35161 0.40529 0 0.66028-0.20935 0.66028-0.45092 0-0.2174-0.15299-0.31135-0.45629-0.31135h-0.2523c-0.17714 0-0.23083-0.059-0.23083-0.14225 0-0.0725 0.0376-0.11541 0.0832-0.15567 0.059 0.0295 0.13152 0.0456 0.19593 0.0456 0.26572 0 0.47776-0.17447 0.47776-0.45361 0-0.11004-0.0456-0.20935-0.10736-0.2684h0.26841v-0.1691h-0.4536c-0.0483-0.0188-0.11273-0.0322-0.1852-0.0322-0.26572 0-0.49117 0.17983-0.49117 0.46433 0 0.15568 0.0832 0.28183 0.16909 0.35161v0.0107c-0.0671 0.0456-0.14225 0.13152-0.14225 0.24156 0 0.102 0.051 0.17178 0.11541 0.21204v0.0107c-0.1181 0.0805-0.19057 0.1852-0.19057 0.29524zm0.53949-0.81058c-0.1503 0-0.27645-0.12078-0.27645-0.31135 0-0.19056 0.12346-0.30329 0.27645-0.30329s0.27646 0.11273 0.27646 0.30329c0 0.19057-0.12615 0.31135-0.27646 0.31135z"/>
   </g>
   <g aria-label="p5.js">
    <path d="m263.02 144.67c0.12078 0.0939 0.24156 0.15031 0.36235 0.15031 0.29792 0 0.56364-0.26036 0.56364-0.70322 0-0.40529-0.17983-0.66564-0.51533-0.66564-0.15299 0-0.29793 0.0832-0.41603 0.18251h-8e-3l-0.0188-0.15031h-0.18251v1.8547h0.22009v-0.44019zm5e-3 -0.17178v-0.68443c0.12883-0.11541 0.23888-0.17715 0.34892-0.17715 0.24694 0 0.34356 0.19325 0.34356 0.48045 0 0.32208-0.15836 0.51802-0.37308 0.51802-0.0859 0-0.2013-0.0376-0.3194-0.13689z"/>
    <path d="m264.14 144.59c0.1181 0.1181 0.28719 0.23352 0.56096 0.23352 0.29793 0 0.57707-0.20936 0.57707-0.57976 0-0.37039-0.23888-0.5368-0.53144-0.5368-0.10467 0-0.18251 0.0268-0.26303 0.0698l0.0456-0.50728h0.66295v-0.19057h-0.8562l-0.0564 0.824 0.1181 0.0751c0.10199-0.0671 0.17446-0.10467 0.29256-0.10467 0.22009 0 0.36503 0.13957 0.36503 0.37576 0 0.23888-0.16641 0.39187-0.37577 0.39187-0.2013 0-0.33013-0.0939-0.43213-0.19593z"/>
    <path d="m265.58 144.65c0 0.0966 0.0725 0.16641 0.16104 0.16641 0.0859 0 0.15836-0.0698 0.15836-0.16641 0-0.102-0.0725-0.17178-0.15836-0.17178-0.0886 0-0.16104 0.0698-0.16104 0.17178z"/>
    <path d="m266.31 144.93c0 0.15836-0.0322 0.25498-0.16104 0.25498-0.0456 0-0.0913-0.0107-0.12347-0.0215l-0.0456 0.16641c0.0456 0.0188 0.11273 0.0349 0.19325 0.0349 0.26035 0 0.35697-0.16909 0.35697-0.43481v-1.4521h-0.22009zm0.11273-1.7205c0.0832 0 0.15031-0.059 0.15031-0.14225 0-0.0859-0.0671-0.14226-0.15031-0.14226-0.0859 0-0.15299 0.0564-0.15299 0.14226 0 0.0832 0.0671 0.14225 0.15299 0.14225z"/>
    <path d="m266.82 144.64c0.12346 0.10199 0.30061 0.17983 0.48581 0.17983 0.30866 0 0.47776-0.17715 0.47776-0.38919 0-0.24693-0.20936-0.32477-0.39724-0.39455-0.14762-0.0564-0.28988-0.10468-0.28988-0.22546 0-0.0993 0.0752-0.18789 0.23888-0.18789 0.11542 0 0.20936 0.0483 0.29793 0.11542l0.10468-0.13957c-0.0993-0.0805-0.24157-0.14762-0.40529-0.14762-0.28183 0-0.44824 0.16104-0.44824 0.37039 0 0.22009 0.20399 0.30867 0.38919 0.37577 0.14225 0.0537 0.29793 0.11273 0.29793 0.24693 0 0.11273-0.0859 0.20399-0.25767 0.20399-0.15568 0-0.27109-0.0644-0.38382-0.15568z"/>
   </g>
   <g aria-label="BonsaiJS">
    <path d="m260.86 159.36h0.56364c0.39187 0 0.66565-0.1691 0.66565-0.51534 0-0.24156-0.15031-0.38113-0.40798-0.42139v-0.0107c0.20936-0.0537 0.30867-0.20935 0.30867-0.38381 0-0.30867-0.24962-0.42945-0.6066-0.42945h-0.52338zm0.22546-1.0092v-0.57438h0.27108c0.27109 0 0.41335 0.0805 0.41335 0.27108 0 0.19594-0.12615 0.3033-0.42408 0.3033zm0 0.83205v-0.66564h0.30598c0.30866 0 0.47776 0.0993 0.47776 0.31672 0 0.23888-0.17715 0.34892-0.47776 0.34892z"/>
    <path d="m262.32 158.71c0 0.43213 0.28451 0.68175 0.60391 0.68175s0.60391-0.24962 0.60391-0.68175c0-0.4375-0.28451-0.68711-0.60391-0.68711s-0.60391 0.24961-0.60391 0.68711zm0.22814 0c0-0.30061 0.15299-0.5046 0.37577-0.5046 0.22546 0 0.37576 0.20399 0.37576 0.5046 0 0.29793-0.1503 0.49923-0.37576 0.49923-0.22278 0-0.37577-0.2013-0.37577-0.49923z"/>
    <path d="m263.87 159.36h0.2201v-0.94478c0.13151-0.13152 0.22277-0.20131 0.35697-0.20131 0.17178 0 0.24693 0.10468 0.24693 0.34893v0.79716h0.2201v-0.82669c0-0.33282-0.12347-0.50996-0.39724-0.50996-0.17983 0-0.31404 0.0966-0.4375 0.22009h-8e-3l-0.0188-0.18788h-0.18252z"/>
    <path d="m265.19 159.21c0.12347 0.10199 0.30061 0.17983 0.48581 0.17983 0.30867 0 0.47776-0.17715 0.47776-0.38919 0-0.24693-0.20935-0.32477-0.39724-0.39455-0.14762-0.0564-0.28987-0.10468-0.28987-0.22546 0-0.0993 0.0752-0.18788 0.23888-0.18788 0.11541 0 0.20935 0.0483 0.29792 0.11541l0.10468-0.13957c-0.0993-0.0805-0.24156-0.14762-0.40529-0.14762-0.28182 0-0.44823 0.16104-0.44823 0.37039 0 0.2201 0.20398 0.30867 0.38918 0.37577 0.14226 0.0537 0.29793 0.11273 0.29793 0.24693 0 0.11273-0.0859 0.20399-0.25767 0.20399-0.15567 0-0.27108-0.0644-0.38381-0.15568z"/>
    <path d="m266.4 159.02c0 0.23351 0.16372 0.3704 0.38382 0.3704 0.16104 0 0.30598-0.0859 0.43213-0.18789h5e-3l0.0188 0.15568h0.18252v-0.79984c0-0.32477-0.1342-0.53681-0.45361-0.53681-0.20935 0-0.39187 0.0913-0.51265 0.16909l0.0886 0.15299c0.10199-0.0698 0.23619-0.13957 0.38918-0.13957 0.21204 0 0.26841 0.16104 0.26841 0.32745-0.5556 0.0617-0.80253 0.20399-0.80253 0.4885zm0.21741-0.0161c0-0.16641 0.14762-0.27378 0.58512-0.32746v0.36235c-0.12615 0.11273-0.23083 0.17446-0.35698 0.17446-0.12883 0-0.22814-0.0617-0.22814-0.20935z"/>
    <path d="m267.95 157.79c0.0859 0 0.15299-0.0591 0.15299-0.14225 0-0.0859-0.0671-0.14226-0.15299-0.14226-0.0859 0-0.15299 0.0564-0.15299 0.14226 0 0.0832 0.0671 0.14225 0.15299 0.14225zm-0.11273 1.5728h0.22009v-1.3044h-0.22009z"/>
    <path d="m268.36 159.11c0.10199 0.1852 0.26035 0.28183 0.48313 0.28183 0.34624 0 0.48581-0.24693 0.48581-0.55023v-1.2427h-0.22278v1.2212c0 0.2684-0.0939 0.37576-0.28182 0.37576-0.12615 0-0.22546-0.0591-0.30598-0.19862z"/>
    <path d="m269.66 159.13c0.15299 0.15835 0.36771 0.26035 0.61464 0.26035 0.3704 0 0.60123-0.22278 0.60123-0.50192 0-0.26035-0.15836-0.38113-0.36235-0.4697l-0.2523-0.10737c-0.13689-0.0591-0.29256-0.12346-0.29256-0.29256 0-0.15836 0.13152-0.25766 0.33014-0.25766 0.16104 0 0.29256 0.0644 0.39992 0.16641l0.1181-0.14494c-0.12347-0.12884-0.30867-0.21741-0.51802-0.21741-0.3194 0-0.5556 0.19862-0.5556 0.46702 0 0.25767 0.19325 0.38382 0.35698 0.45361l0.2523 0.11004c0.16641 0.0752 0.29524 0.13152 0.29524 0.31135 0 0.17178-0.13688 0.28719-0.36771 0.28719-0.1852 0-0.35966-0.0886-0.48581-0.22009z"/>
   </g>
   <g aria-label="SDL">
    <path d="m220.07 159.13c0.15299 0.15835 0.36772 0.26035 0.61465 0.26035 0.3704 0 0.60122-0.22278 0.60122-0.50192 0-0.26035-0.15835-0.38113-0.36234-0.4697l-0.2523-0.10737c-0.13689-0.0591-0.29256-0.12346-0.29256-0.29256 0-0.15836 0.13152-0.25766 0.33013-0.25766 0.16105 0 0.29257 0.0644 0.39993 0.16641l0.11809-0.14494c-0.12346-0.12884-0.30866-0.21741-0.51802-0.21741-0.3194 0-0.55559 0.19862-0.55559 0.46702 0 0.25767 0.19325 0.38382 0.35698 0.45361l0.2523 0.11004c0.16641 0.0752 0.29524 0.13152 0.29524 0.31135 0 0.17178-0.13689 0.28719-0.36771 0.28719-0.1852 0-0.35966-0.0886-0.48581-0.22009z"/>
    <path d="m221.62 159.36h0.45092c0.53144 0 0.82131-0.32745 0.82131-0.88842 0-0.55828-0.28987-0.87231-0.83205-0.87231h-0.44018zm0.22546-0.18252v-1.3957h0.19862c0.41334 0 0.61732 0.24694 0.61732 0.6898 0 0.44555-0.20398 0.7059-0.61732 0.7059z"/>
    <path d="m223.26 159.36h0.99309v-0.19057h-0.76763v-1.5702h-0.22546z"/>
   </g>
   <g aria-label="CreateJS">
    <path d="m239.73 158.48c0 0.57439 0.33014 0.91258 0.77301 0.91258 0.22277 0 0.39723-0.0939 0.53412-0.25499l-0.12615-0.13688c-0.11273 0.12615-0.23619 0.19593-0.40261 0.19593-0.3355 0-0.54754-0.27914-0.54754-0.722 0-0.4375 0.22278-0.71127 0.55828-0.71127 0.14494 0 0.25767 0.0644 0.35161 0.16372l0.12615-0.14225c-0.10468-0.11542-0.27109-0.21741-0.48044-0.21741-0.45092 0-0.78643 0.34624-0.78643 0.91257z"/>
    <path d="m241.33 159.36h0.22009v-0.83742c0.0886-0.22009 0.2201-0.30061 0.33014-0.30061 0.0537 0 0.0832 8e-3 0.12615 0.0215l0.043-0.19325c-0.043-0.0188-0.0832-0.0268-0.13957-0.0268-0.14763 0-0.28183 0.10467-0.3704 0.2684h-8e-3l-0.0188-0.23619h-0.18252z"/>
    <path d="m242.14 158.71c0 0.42676 0.27646 0.68175 0.62538 0.68175 0.17715 0 0.31672-0.0617 0.42945-0.1342l-0.0778-0.14494c-0.0966 0.0617-0.2013 0.10199-0.32477 0.10199-0.24961 0-0.41871-0.17715-0.43481-0.45897h0.88036c5e-3 -0.0322 8e-3 -0.0752 8e-3 -0.12078 0-0.37308-0.18788-0.61196-0.5207-0.61196-0.29793 0-0.58512 0.26035-0.58512 0.68711zm0.21472-0.0993c0.0268-0.26303 0.19325-0.41334 0.37577-0.41334 0.20399 0 0.32208 0.14762 0.32208 0.41334z"/>
    <path d="m243.47 159.02c0 0.23351 0.16372 0.3704 0.38382 0.3704 0.16104 0 0.30598-0.0859 0.43213-0.18789h5e-3l0.0188 0.15568h0.18252v-0.79984c0-0.32477-0.1342-0.53681-0.45361-0.53681-0.20935 0-0.39187 0.0913-0.51265 0.16909l0.0886 0.15299c0.10199-0.0698 0.23619-0.13957 0.38918-0.13957 0.21204 0 0.26841 0.16104 0.26841 0.32745-0.5556 0.0617-0.80253 0.20399-0.80253 0.4885zm0.21741-0.0161c0-0.16641 0.14762-0.27378 0.58512-0.32746v0.36235c-0.12615 0.11273-0.23083 0.17446-0.35698 0.17446-0.12884 0-0.22814-0.0617-0.22814-0.20935z"/>
    <path d="m244.95 158.96c0 0.25767 0.0939 0.43482 0.37308 0.43482 0.0805 0 0.16909-0.0242 0.24156-0.0483l-0.0429-0.16642c-0.043 0.0161-0.102 0.0349-0.14763 0.0349-0.1503 0-0.2013-0.0913-0.2013-0.2523v-0.72469h0.35161v-0.17983h-0.35161v-0.36503h-0.1852l-0.0268 0.36503-0.20399 0.0134v0.16641h0.19326z"/>
    <path d="m245.69 158.71c0 0.42676 0.27646 0.68175 0.62539 0.68175 0.17714 0 0.31671-0.0617 0.42944-0.1342l-0.0778-0.14494c-0.0966 0.0617-0.2013 0.10199-0.32476 0.10199-0.24962 0-0.41871-0.17715-0.43482-0.45897h0.88037c5e-3 -0.0322 8e-3 -0.0752 8e-3 -0.12078 0-0.37308-0.18788-0.61196-0.52071-0.61196-0.29792 0-0.58512 0.26035-0.58512 0.68711zm0.21473-0.0993c0.0268-0.26303 0.19325-0.41334 0.37576-0.41334 0.20399 0 0.32209 0.14762 0.32209 0.41334z"/>
    <path d="m246.93 159.11c0.10199 0.1852 0.26035 0.28183 0.48313 0.28183 0.34624 0 0.48581-0.24693 0.48581-0.55023v-1.2427h-0.22278v1.2212c0 0.2684-0.0939 0.37576-0.28182 0.37576-0.12615 0-0.22546-0.0591-0.30598-0.19862z"/>
    <path d="m248.23 159.13c0.15299 0.15835 0.36772 0.26035 0.61465 0.26035 0.3704 0 0.60122-0.22278 0.60122-0.50192 0-0.26035-0.15836-0.38113-0.36234-0.4697l-0.2523-0.10737c-0.13689-0.0591-0.29256-0.12346-0.29256-0.29256 0-0.15836 0.13152-0.25766 0.33013-0.25766 0.16105 0 0.29256 0.0644 0.39993 0.16641l0.11809-0.14494c-0.12346-0.12884-0.30866-0.21741-0.51802-0.21741-0.3194 0-0.55559 0.19862-0.55559 0.46702 0 0.25767 0.19325 0.38382 0.35698 0.45361l0.2523 0.11004c0.16641 0.0752 0.29524 0.13152 0.29524 0.31135 0 0.17178-0.13689 0.28719-0.36771 0.28719-0.1852 0-0.35967-0.0886-0.48582-0.22009z"/>
   </g>
   <g aria-label="KiwiJS">
    <path d="m283.87 159.36h0.22546v-0.55828l0.30061-0.35698 0.52608 0.91526h0.24961l-0.63612-1.0897 0.55292-0.67101h-0.25499l-0.73274 0.88305h-5e-3v-0.88305h-0.22546z"/>
    <path d="m285.51 157.79c0.0859 0 0.15299-0.0591 0.15299-0.14225 0-0.0859-0.0671-0.14226-0.15299-0.14226-0.0859 0-0.15299 0.0564-0.15299 0.14226 0 0.0832 0.0671 0.14225 0.15299 0.14225zm-0.11273 1.5728h0.22009v-1.3044h-0.22009z"/>
    <path d="m286.26 159.36h0.25767l0.18252-0.69785c0.0349-0.12347 0.0617-0.24693 0.0913-0.37845h0.0107c0.0322 0.13152 0.0564 0.2523 0.0886 0.37576l0.18789 0.70054h0.2684l0.34893-1.3044h-0.20936l-0.19057 0.75421c-0.0268 0.12347-0.051 0.24156-0.0805 0.36235h-0.0107c-0.0295-0.12079-0.0591-0.23888-0.0913-0.36235l-0.20399-0.75421h-0.21472l-0.2013 0.75421c-0.0322 0.12078-0.059 0.24156-0.0886 0.36235h-0.0107c-0.0242-0.12079-0.0483-0.23888-0.0778-0.36235l-0.19325-0.75421h-0.22546z"/>
    <path d="m288.1 157.79c0.0859 0 0.15299-0.0591 0.15299-0.14225 0-0.0859-0.0671-0.14226-0.15299-0.14226-0.0859 0-0.15299 0.0564-0.15299 0.14226 0 0.0832 0.0671 0.14225 0.15299 0.14225zm-0.11273 1.5728h0.22009v-1.3044h-0.22009z"/>
    <path d="m288.5 159.11c0.10199 0.1852 0.26035 0.28183 0.48313 0.28183 0.34624 0 0.48581-0.24693 0.48581-0.55023v-1.2427h-0.22278v1.2212c0 0.2684-0.0939 0.37576-0.28182 0.37576-0.12615 0-0.22546-0.0591-0.30598-0.19862z"/>
    <path d="m289.81 159.13c0.15299 0.15835 0.36772 0.26035 0.61465 0.26035 0.3704 0 0.60122-0.22278 0.60122-0.50192 0-0.26035-0.15835-0.38113-0.36234-0.4697l-0.2523-0.10737c-0.13689-0.0591-0.29256-0.12346-0.29256-0.29256 0-0.15836 0.13152-0.25766 0.33013-0.25766 0.16105 0 0.29257 0.0644 0.39993 0.16641l0.11809-0.14494c-0.12346-0.12884-0.30866-0.21741-0.51802-0.21741-0.3194 0-0.55559 0.19862-0.55559 0.46702 0 0.25767 0.19325 0.38382 0.35698 0.45361l0.2523 0.11004c0.16641 0.0752 0.29524 0.13152 0.29524 0.31135 0 0.17178-0.13689 0.28719-0.36771 0.28719-0.1852 0-0.35966-0.0886-0.48581-0.22009z"/>
   </g>
   <g aria-label="Horde3D">
    <path d="m302.87 159.36h0.22546v-0.82937h0.81863v0.82937h0.22278v-1.7607h-0.22278v0.73811h-0.81863v-0.73811h-0.22546z"/>
    <path d="m304.49 158.71c0 0.43213 0.28451 0.68175 0.60391 0.68175s0.60391-0.24962 0.60391-0.68175c0-0.4375-0.28451-0.68711-0.60391-0.68711s-0.60391 0.24961-0.60391 0.68711zm0.22815 0c0-0.30061 0.15299-0.5046 0.37576-0.5046 0.22546 0 0.37577 0.20399 0.37577 0.5046 0 0.29793-0.15031 0.49923-0.37577 0.49923-0.22277 0-0.37576-0.2013-0.37576-0.49923z"/>
    <path d="m306.05 159.36h0.22009v-0.83742c0.0886-0.22009 0.22009-0.30061 0.33014-0.30061 0.0537 0 0.0832 8e-3 0.12615 0.0215l0.0429-0.19325c-0.0429-0.0188-0.0832-0.0268-0.13957-0.0268-0.14762 0-0.28182 0.10467-0.3704 0.2684h-8e-3l-0.0188-0.23619h-0.18251z"/>
    <path d="m306.86 158.71c0 0.43482 0.21204 0.68175 0.53949 0.68175 0.15299 0 0.29256-0.0859 0.39456-0.1852h8e-3l0.0188 0.15299h0.18251v-1.911h-0.22277v0.50192l0.0107 0.22277c-0.11541-0.0939-0.21472-0.1503-0.36503-0.1503-0.29793 0-0.56633 0.26303-0.56633 0.68711zm0.22814-3e-3c0-0.29793 0.16641-0.49923 0.37577-0.49923 0.10736 0 0.20667 0.0376 0.31672 0.13688v0.68175c-0.10737 0.12078-0.21204 0.17983-0.33283 0.17983-0.22814 0-0.35966-0.18788-0.35966-0.49923z"/>
    <path d="m308.35 158.71c0 0.42676 0.27646 0.68175 0.62538 0.68175 0.17715 0 0.31672-0.0617 0.42945-0.1342l-0.0778-0.14494c-0.0966 0.0617-0.2013 0.10199-0.32477 0.10199-0.24961 0-0.41871-0.17715-0.43481-0.45897h0.88036c5e-3 -0.0322 8e-3 -0.0752 8e-3 -0.12078 0-0.37308-0.18788-0.61196-0.5207-0.61196-0.29793 0-0.58512 0.26035-0.58512 0.68711zm0.21472-0.0993c0.0268-0.26303 0.19325-0.41334 0.37577-0.41334 0.20399 0 0.32208 0.14762 0.32208 0.41334z"/>
    <path d="m309.62 159.15c0.11542 0.12615 0.28988 0.24157 0.56365 0.24157 0.31404 0 0.56365-0.1852 0.56365-0.4885 0-0.23619-0.16373-0.3865-0.3704-0.43481v-0.0107c0.1852-0.0698 0.31135-0.2013 0.31135-0.40797 0-0.27646-0.21472-0.43482-0.51265-0.43482-0.2013 0-0.35966 0.0913-0.49118 0.21473l0.1181 0.13957c0.10199-0.102 0.22277-0.17447 0.36503-0.17447 0.18251 0 0.29524 0.10468 0.29524 0.27109 0 0.17983-0.12078 0.3194-0.48581 0.3194v0.1691c0.40798 0 0.54755 0.13688 0.54755 0.34087 0 0.19057-0.14763 0.31403-0.3543 0.31403-0.2013 0-0.3355-0.0966-0.4375-0.20398z"/>
    <path d="m311.12 159.36h0.45091c0.53144 0 0.82132-0.32745 0.82132-0.88842 0-0.55828-0.28988-0.87231-0.83205-0.87231h-0.44018zm0.22546-0.18252v-1.3957h0.19861c0.41335 0 0.61733 0.24694 0.61733 0.6898 0 0.44555-0.20398 0.7059-0.61733 0.7059z"/>
   </g>
   <g aria-label="BabylonJS">
    <path d="m281.65 144.79h0.56365c0.39187 0 0.66564-0.1691 0.66564-0.51534 0-0.24156-0.1503-0.38113-0.40797-0.42139v-0.0107c0.20935-0.0537 0.30866-0.20935 0.30866-0.38382 0-0.30866-0.24961-0.42944-0.60659-0.42944h-0.52339zm0.22546-1.0092v-0.57439h0.27109c0.27109 0 0.41334 0.0805 0.41334 0.27109 0 0.19594-0.12615 0.3033-0.42408 0.3033zm0 0.83205v-0.66564h0.30598c0.30867 0 0.47776 0.0993 0.47776 0.31672 0 0.23887-0.17714 0.34892-0.47776 0.34892z"/>
    <path d="m283.14 144.45c0 0.23351 0.16373 0.3704 0.38382 0.3704 0.16104 0 0.30598-0.0859 0.43213-0.18789h5e-3l0.0188 0.15568h0.18251v-0.79985c0-0.32477-0.1342-0.5368-0.4536-0.5368-0.20936 0-0.39187 0.0913-0.51265 0.16909l0.0886 0.15299c0.102-0.0698 0.2362-0.13957 0.38919-0.13957 0.21204 0 0.2684 0.16104 0.2684 0.32745-0.55559 0.0617-0.80253 0.20399-0.80253 0.4885zm0.21741-0.0161c0-0.16641 0.14762-0.27377 0.58512-0.32745v0.36235c-0.12615 0.11273-0.23083 0.17446-0.35698 0.17446-0.12883 0-0.22814-0.0617-0.22814-0.20936z"/>
    <path d="m284.58 144.79h0.17715l0.0188-0.12884h8e-3c0.11541 0.102 0.2523 0.16105 0.37308 0.16105 0.29793 0 0.56365-0.26036 0.56365-0.70591 0-0.4026-0.17983-0.66295-0.51802-0.66295-0.14494 0-0.28987 0.0778-0.40797 0.18251l5e-3 -0.2362v-0.5207h-0.2201zm0.2201-0.28988v-0.68443c0.12346-0.11541 0.23888-0.17715 0.34892-0.17715 0.24693 0 0.34356 0.19325 0.34356 0.48045 0 0.32208-0.15836 0.51802-0.37308 0.51802-0.0859 0-0.20399-0.0376-0.3194-0.13689z"/>
    <path d="m285.97 145.15-0.0429 0.17446c0.0429 0.0161 0.0939 0.0268 0.15299 0.0268 0.26303 0 0.39723-0.19593 0.48849-0.4536l0.49118-1.4118h-0.21472l-0.23351 0.72201c-0.0349 0.11541-0.0725 0.24962-0.11005 0.36771h-0.0107c-0.0403-0.12078-0.0859-0.25498-0.12615-0.36771l-0.26572-0.72201h-0.22814l0.52339 1.3071-0.0295 0.0966c-0.0537 0.16104-0.14762 0.27914-0.29524 0.27914-0.0322 0-0.0725-0.0107-0.0993-0.0188z"/>
    <path d="m287.31 144.52c0 0.19057 0.0671 0.29525 0.23352 0.29525 0.0591 0 0.0966-8e-3 0.12615-0.0215l-0.0295-0.16641c-0.0242 5e-3 -0.0349 5e-3 -0.0483 5e-3 -0.0322 0-0.0617-0.0268-0.0617-0.0966v-1.6641h-0.2201z"/>
    <path d="m287.9 144.14c0 0.43213 0.2845 0.68175 0.60391 0.68175 0.3194 0 0.6039-0.24962 0.6039-0.68175 0-0.4375-0.2845-0.68711-0.6039-0.68711-0.31941 0-0.60391 0.24961-0.60391 0.68711zm0.22814 0c0-0.30061 0.15299-0.5046 0.37577-0.5046 0.22545 0 0.37576 0.20399 0.37576 0.5046 0 0.29793-0.15031 0.49923-0.37576 0.49923-0.22278 0-0.37577-0.2013-0.37577-0.49923z"/>
    <path d="m289.46 144.79h0.22009v-0.94478c0.13152-0.13152 0.22278-0.20131 0.35698-0.20131 0.17178 0 0.24693 0.10468 0.24693 0.34893v0.79716h0.22009v-0.82669c0-0.33282-0.12346-0.50996-0.39723-0.50996-0.17984 0-0.31404 0.0966-0.4375 0.22009h-8e-3l-0.0188-0.18789h-0.18252z"/>
    <path d="m290.78 144.54c0.102 0.1852 0.26035 0.28183 0.48313 0.28183 0.34624 0 0.48581-0.24694 0.48581-0.55023v-1.2427h-0.22277v1.2212c0 0.2684-0.094 0.37576-0.28183 0.37576-0.12615 0-0.22546-0.059-0.30598-0.19862z"/>
    <path d="m292.09 144.56c0.15299 0.15836 0.36771 0.26036 0.61464 0.26036 0.3704 0 0.60123-0.22278 0.60123-0.50192 0-0.26035-0.15836-0.38113-0.36235-0.46971l-0.2523-0.10736c-0.13688-0.059-0.29256-0.12346-0.29256-0.29256 0-0.15836 0.13152-0.25767 0.33014-0.25767 0.16104 0 0.29256 0.0644 0.39992 0.16641l0.1181-0.14493c-0.12347-0.12884-0.30867-0.21741-0.51802-0.21741-0.3194 0-0.5556 0.19862-0.5556 0.46702 0 0.25767 0.19325 0.38382 0.35698 0.4536l0.2523 0.11005c0.16641 0.0751 0.29524 0.13152 0.29524 0.31135 0 0.17178-0.13688 0.28719-0.36771 0.28719-0.1852 0-0.35966-0.0886-0.48581-0.22009z"/>
   </g>
   <g aria-label="Polycode">
    <path d="m302.94 144.79h0.22546v-0.69785h0.31671c0.38382 0 0.64954-0.17447 0.64954-0.54486 0-0.38651-0.26035-0.51802-0.64954-0.51802h-0.54217zm0.22546-0.88037v-0.70053h0.28719c0.30329 0 0.45628 0.0832 0.45628 0.33819 0 0.24961-0.14762 0.36234-0.45628 0.36234z"/>
    <path d="m304.3 144.14c0 0.43213 0.2845 0.68175 0.6039 0.68175s0.60391-0.24962 0.60391-0.68175c0-0.4375-0.28451-0.68711-0.60391-0.68711s-0.6039 0.24961-0.6039 0.68711zm0.22814 0c0-0.30061 0.15299-0.5046 0.37576-0.5046 0.22546 0 0.37577 0.20399 0.37577 0.5046 0 0.29793-0.15031 0.49923-0.37577 0.49923-0.22277 0-0.37576-0.2013-0.37576-0.49923z"/>
    <path d="m305.85 144.52c0 0.19057 0.0671 0.29525 0.23351 0.29525 0.0591 0 0.0966-8e-3 0.12615-0.0215l-0.0295-0.16641c-0.0242 5e-3 -0.0349 5e-3 -0.0483 5e-3 -0.0322 0-0.0617-0.0268-0.0617-0.0966v-1.6641h-0.22009z"/>
    <path d="m306.45 145.15-0.0429 0.17446c0.0429 0.0161 0.0939 0.0268 0.15299 0.0268 0.26304 0 0.39724-0.19593 0.48849-0.4536l0.49118-1.4118h-0.21472l-0.23351 0.72201c-0.0349 0.11541-0.0725 0.24962-0.11005 0.36771h-0.0107c-0.0403-0.12078-0.0859-0.25498-0.12615-0.36771l-0.26572-0.72201h-0.22815l0.52339 1.3071-0.0295 0.0966c-0.0537 0.16104-0.14762 0.27914-0.29525 0.27914-0.0322 0-0.0725-0.0107-0.0993-0.0188z"/>
    <path d="m307.69 144.14c0 0.43213 0.26572 0.68175 0.61196 0.68175 0.15567 0 0.30598-0.0644 0.42408-0.1691l-0.0993-0.14494c-0.0778 0.0698-0.18252 0.13152-0.30598 0.13152-0.23888 0-0.40261-0.2013-0.40261-0.49923 0-0.30061 0.17178-0.5046 0.40798-0.5046 0.10467 0 0.18519 0.0483 0.26303 0.11541l0.11005-0.14225c-0.0886-0.0832-0.20936-0.15567-0.38114-0.15567-0.3355 0-0.62806 0.24961-0.62806 0.68711z"/>
    <path d="m308.85 144.14c0 0.43213 0.28451 0.68175 0.60391 0.68175s0.60391-0.24962 0.60391-0.68175c0-0.4375-0.28451-0.68711-0.60391-0.68711s-0.60391 0.24961-0.60391 0.68711zm0.22815 0c0-0.30061 0.15299-0.5046 0.37576-0.5046 0.22546 0 0.37577 0.20399 0.37577 0.5046 0 0.29793-0.15031 0.49923-0.37577 0.49923-0.22277 0-0.37576-0.2013-0.37576-0.49923z"/>
    <path d="m310.31 144.14c0 0.43481 0.21203 0.68175 0.53949 0.68175 0.15299 0 0.29256-0.0859 0.39455-0.1852h8e-3l0.0188 0.15299h0.18252v-1.911h-0.22278v0.50192l0.0107 0.22277c-0.11542-0.0939-0.21473-0.1503-0.36503-0.1503-0.29793 0-0.56633 0.26303-0.56633 0.68711zm0.22814-3e-3c0-0.29793 0.16641-0.49924 0.37576-0.49924 0.10737 0 0.20668 0.0376 0.31672 0.13689v0.68175c-0.10736 0.12078-0.21204 0.17983-0.33282 0.17983-0.22814 0-0.35966-0.18789-0.35966-0.49923z"/>
    <path d="m311.8 144.14c0 0.42676 0.27646 0.68175 0.62539 0.68175 0.17714 0 0.31671-0.0617 0.42944-0.13421l-0.0778-0.14493c-0.0966 0.0617-0.20131 0.10199-0.32477 0.10199-0.24962 0-0.41871-0.17715-0.43482-0.45897h0.88037c5e-3 -0.0322 8e-3 -0.0752 8e-3 -0.12078 0-0.37309-0.18788-0.61196-0.5207-0.61196-0.29793 0-0.58513 0.26035-0.58513 0.68711zm0.21473-0.0993c0.0268-0.26304 0.19325-0.41334 0.37576-0.41334 0.20399 0 0.32209 0.14762 0.32209 0.41334z"/>
   </g>
   <g aria-label="Source 2">
    <path d="m323.24 114.1c0.15299 0.15835 0.36771 0.26035 0.61464 0.26035 0.3704 0 0.60123-0.22278 0.60123-0.50192 0-0.26035-0.15836-0.38113-0.36235-0.46971l-0.2523-0.10736c-0.13688-0.059-0.29256-0.12346-0.29256-0.29256 0-0.15836 0.13152-0.25767 0.33014-0.25767 0.16104 0 0.29256 0.0644 0.39992 0.16642l0.1181-0.14494c-0.12347-0.12884-0.30867-0.21741-0.51802-0.21741-0.3194 0-0.5556 0.19862-0.5556 0.46702 0 0.25767 0.19325 0.38382 0.35698 0.45361l0.2523 0.11004c0.16641 0.0751 0.29524 0.13152 0.29524 0.31135 0 0.17178-0.13688 0.28719-0.36771 0.28719-0.1852 0-0.35966-0.0886-0.48581-0.22009z"/>
    <path d="m324.68 113.67c0 0.43213 0.2845 0.68175 0.60391 0.68175 0.3194 0 0.6039-0.24962 0.6039-0.68175 0-0.4375-0.2845-0.68711-0.6039-0.68711-0.31941 0-0.60391 0.24961-0.60391 0.68711zm0.22814 0c0-0.30061 0.15299-0.5046 0.37577-0.5046 0.22545 0 0.37576 0.20399 0.37576 0.5046 0 0.29793-0.15031 0.49923-0.37576 0.49923-0.22278 0-0.37577-0.2013-0.37577-0.49923z"/>
    <path d="m326.21 113.85c0 0.33282 0.12347 0.50997 0.39993 0.50997 0.17983 0 0.30866-0.0939 0.42944-0.2362h8e-3l0.0188 0.20399h0.18252v-1.3044h-0.22009v0.92599c-0.12347 0.15299-0.21741 0.22009-0.35161 0.22009-0.17178 0-0.24425-0.10468-0.24425-0.34892v-0.79716h-0.22278z"/>
    <path d="m327.7 114.32h0.2201v-0.83742c0.0886-0.22009 0.22009-0.30061 0.33013-0.30061 0.0537 0 0.0832 8e-3 0.12615 0.0215l0.0429-0.19325c-0.0429-0.0188-0.0832-0.0268-0.13957-0.0268-0.14763 0-0.28183 0.10467-0.3704 0.2684h-8e-3l-0.0188-0.23619h-0.18252z"/>
    <path d="m328.51 113.67c0 0.43213 0.26572 0.68175 0.61196 0.68175 0.15568 0 0.30598-0.0644 0.42408-0.1691l-0.0993-0.14494c-0.0778 0.0698-0.18251 0.13152-0.30598 0.13152-0.23888 0-0.40261-0.2013-0.40261-0.49923 0-0.30061 0.17178-0.5046 0.40798-0.5046 0.10468 0 0.1852 0.0483 0.26303 0.11542l0.11005-0.14226c-0.0886-0.0832-0.20936-0.15567-0.38113-0.15567-0.33551 0-0.62807 0.24961-0.62807 0.68711z"/>
    <path d="m329.67 113.67c0 0.42676 0.27646 0.68175 0.62538 0.68175 0.17715 0 0.31672-0.0617 0.42945-0.1342l-0.0778-0.14494c-0.0966 0.0617-0.2013 0.10199-0.32476 0.10199-0.24962 0-0.41872-0.17715-0.43482-0.45897h0.88037c5e-3 -0.0322 8e-3 -0.0752 8e-3 -0.12078 0-0.37308-0.18788-0.61196-0.52071-0.61196-0.29792 0-0.58512 0.26035-0.58512 0.68711zm0.21473-0.0993c0.0268-0.26303 0.19325-0.41334 0.37576-0.41334 0.20399 0 0.32209 0.14762 0.32209 0.41334z"/>
    <path d="m331.53 114.32h1.1058v-0.19057h-0.49655c-0.0886 0-0.19325 8e-3 -0.28719 0.0161 0.40529-0.42408 0.69785-0.74348 0.69785-1.0656 0-0.30329-0.19593-0.5046-0.51265-0.5046-0.22277 0-0.37576 0.10468-0.51802 0.26035l0.12615 0.12615c0.0993-0.11541 0.22278-0.20667 0.36503-0.20667 0.21741 0 0.32477 0.13957 0.32477 0.33551 0 0.27645-0.28988 0.58512-0.80521 1.0978z"/>
   </g>
   <g aria-label="Phaser">
    <path d="m324.53 129.73h0.22546v-0.69785h0.31672c0.38381 0 0.64953-0.17446 0.64953-0.54486 0-0.3865-0.26035-0.51802-0.64953-0.51802h-0.54218zm0.22546-0.88036v-0.70053h0.28719c0.3033 0 0.45629 0.0832 0.45629 0.33818 0 0.24962-0.14762 0.36235-0.45629 0.36235z"/>
    <path d="m326.05 129.73h0.22009v-0.94478c0.13152-0.13152 0.22278-0.2013 0.35698-0.2013 0.17178 0 0.24693 0.10468 0.24693 0.34892v0.79716h0.22009v-0.82668c0-0.33282-0.12346-0.50997-0.39723-0.50997-0.17984 0-0.31135 0.0966-0.43482 0.21473l8e-3 -0.26841v-0.5207h-0.22009z"/>
    <path d="m327.45 129.39c0 0.23351 0.16372 0.37039 0.38382 0.37039 0.16104 0 0.30598-0.0859 0.43213-0.18788h5e-3l0.0188 0.15567h0.18252v-0.79984c0-0.32477-0.13421-0.53681-0.45361-0.53681-0.20935 0-0.39187 0.0913-0.51265 0.1691l0.0886 0.15299c0.10199-0.0698 0.23619-0.13957 0.38918-0.13957 0.21204 0 0.26841 0.16104 0.26841 0.32745-0.5556 0.0617-0.80253 0.20399-0.80253 0.4885zm0.2174-0.0161c0-0.16641 0.14763-0.27377 0.58513-0.32745v0.36234c-0.12615 0.11273-0.23083 0.17447-0.35698 0.17447-0.12884 0-0.22815-0.0617-0.22815-0.20936z"/>
    <path d="m328.74 129.58c0.12347 0.102 0.30061 0.17983 0.48581 0.17983 0.30867 0 0.47776-0.17714 0.47776-0.38918 0-0.24693-0.20936-0.32477-0.39724-0.39456-0.14762-0.0564-0.28987-0.10467-0.28987-0.22546 0-0.0993 0.0752-0.18788 0.23888-0.18788 0.11541 0 0.20935 0.0483 0.29792 0.11542l0.10468-0.13958c-0.0993-0.0805-0.24156-0.14762-0.40529-0.14762-0.28182 0-0.44823 0.16105-0.44823 0.3704 0 0.22009 0.20398 0.30866 0.38918 0.37577 0.14226 0.0537 0.29793 0.11273 0.29793 0.24693 0 0.11273-0.0859 0.20398-0.25767 0.20398-0.15567 0-0.27108-0.0644-0.38381-0.15567z"/>
    <path d="m329.91 129.08c0 0.42676 0.27646 0.68174 0.62538 0.68174 0.17715 0 0.31672-0.0617 0.42945-0.1342l-0.0778-0.14494c-0.0966 0.0617-0.2013 0.102-0.32477 0.102-0.24961 0-0.41871-0.17715-0.43481-0.45897h0.88036c5e-3 -0.0322 8e-3 -0.0752 8e-3 -0.12079 0-0.37308-0.18788-0.61196-0.5207-0.61196-0.29793 0-0.58512 0.26035-0.58512 0.68712zm0.21472-0.0993c0.0268-0.26304 0.19325-0.41334 0.37577-0.41334 0.20399 0 0.32208 0.14762 0.32208 0.41334z"/>
    <path d="m331.34 129.73h0.22009v-0.83742c0.0886-0.22009 0.22009-0.30061 0.33014-0.30061 0.0537 0 0.0832 8e-3 0.12615 0.0215l0.0429-0.19325c-0.0429-0.0188-0.0832-0.0268-0.13957-0.0268-0.14762 0-0.28182 0.10468-0.37039 0.26841h-8e-3l-0.0188-0.2362h-0.18252z"/>
   </g>
   <g aria-label="PixiJS">
    <path d="m325.08 144.79h0.22546v-0.69785h0.31671c0.38382 0 0.64954-0.17447 0.64954-0.54486 0-0.38651-0.26035-0.51802-0.64954-0.51802h-0.54217zm0.22546-0.88037v-0.70053h0.28719c0.3033 0 0.45629 0.0832 0.45629 0.33819 0 0.24961-0.14763 0.36234-0.45629 0.36234z"/>
    <path d="m326.71 143.21c0.0859 0 0.15299-0.059 0.15299-0.14225 0-0.0859-0.0671-0.14226-0.15299-0.14226-0.0859 0-0.15299 0.0564-0.15299 0.14226 0 0.0832 0.0671 0.14225 0.15299 0.14225zm-0.11273 1.5728h0.22009v-1.3044h-0.22009z"/>
    <path d="m327.08 144.79h0.23083l0.17714-0.3033c0.0429-0.0805 0.0859-0.15836 0.13152-0.23351h0.0107c0.0483 0.0751 0.0966 0.15567 0.14225 0.23351l0.19057 0.3033h0.23888l-0.42408-0.65759 0.39455-0.64686h-0.23082l-0.15836 0.2872c-0.0403 0.0698-0.0805 0.14493-0.1181 0.2174h-0.0107c-0.0456-0.0725-0.0886-0.14762-0.12883-0.2174l-0.17446-0.2872h-0.23888l0.39455 0.6227z"/>
    <path d="m328.57 143.21c0.0859 0 0.15299-0.059 0.15299-0.14225 0-0.0859-0.0671-0.14226-0.15299-0.14226-0.0859 0-0.15299 0.0564-0.15299 0.14226 0 0.0832 0.0671 0.14225 0.15299 0.14225zm-0.11273 1.5728h0.22009v-1.3044h-0.22009z"/>
    <path d="m328.98 144.54c0.102 0.1852 0.26035 0.28183 0.48313 0.28183 0.34624 0 0.48581-0.24694 0.48581-0.55023v-1.2427h-0.22277v1.2212c0 0.2684-0.094 0.37576-0.28183 0.37576-0.12615 0-0.22546-0.059-0.30598-0.19862z"/>
    <path d="m330.28 144.56c0.15299 0.15836 0.36771 0.26036 0.61464 0.26036 0.3704 0 0.60123-0.22278 0.60123-0.50192 0-0.26035-0.15836-0.38113-0.36235-0.46971l-0.2523-0.10736c-0.13688-0.059-0.29256-0.12346-0.29256-0.29256 0-0.15836 0.13152-0.25767 0.33014-0.25767 0.16104 0 0.29256 0.0644 0.39992 0.16641l0.1181-0.14493c-0.12347-0.12884-0.30866-0.21741-0.51802-0.21741-0.3194 0-0.5556 0.19862-0.5556 0.46702 0 0.25767 0.19325 0.38382 0.35698 0.4536l0.2523 0.11005c0.16641 0.0751 0.29525 0.13152 0.29525 0.31135 0 0.17178-0.13689 0.28719-0.36772 0.28719-0.1852 0-0.35966-0.0886-0.48581-0.22009z"/>
   </g>
   <g aria-label="PaperJS">
    <path d="m324.01 159.36h0.22546v-0.69785h0.31672c0.38381 0 0.64953-0.17446 0.64953-0.54486 0-0.3865-0.26035-0.51802-0.64953-0.51802h-0.54218zm0.22546-0.88037v-0.70053h0.28719c0.3033 0 0.45629 0.0832 0.45629 0.33819 0 0.24961-0.14762 0.36234-0.45629 0.36234z"/>
    <path d="m325.34 159.02c0 0.23351 0.16372 0.3704 0.38381 0.3704 0.16105 0 0.30598-0.0859 0.43213-0.18789h5e-3l0.0188 0.15568h0.18251v-0.79984c0-0.32477-0.1342-0.53681-0.4536-0.53681-0.20935 0-0.39187 0.0913-0.51265 0.16909l0.0886 0.15299c0.102-0.0698 0.2362-0.13957 0.38919-0.13957 0.21204 0 0.2684 0.16104 0.2684 0.32745-0.55559 0.0617-0.80252 0.20399-0.80252 0.4885zm0.2174-0.0161c0-0.16641 0.14763-0.27378 0.58512-0.32746v0.36235c-0.12615 0.11273-0.23082 0.17446-0.35697 0.17446-0.12884 0-0.22815-0.0617-0.22815-0.20935z"/>
    <path d="m327 159.24c0.12078 0.0939 0.24156 0.15031 0.36234 0.15031 0.29793 0 0.56365-0.26035 0.56365-0.70322 0-0.40529-0.17983-0.66564-0.51533-0.66564-0.15299 0-0.29793 0.0832-0.41603 0.18251h-8e-3l-0.0188-0.1503h-0.18251v1.8547h0.22009v-0.44019zm5e-3 -0.17178v-0.68443c0.12883-0.11541 0.23888-0.17714 0.34892-0.17714 0.24693 0 0.34356 0.19325 0.34356 0.48044 0 0.32208-0.15836 0.51802-0.37308 0.51802-0.0859 0-0.2013-0.0376-0.3194-0.13689z"/>
    <path d="m328.17 158.71c0 0.42676 0.27646 0.68175 0.62539 0.68175 0.17714 0 0.31671-0.0617 0.42944-0.1342l-0.0778-0.14494c-0.0966 0.0617-0.2013 0.10199-0.32476 0.10199-0.24962 0-0.41871-0.17715-0.43482-0.45897h0.88037c5e-3 -0.0322 8e-3 -0.0752 8e-3 -0.12078 0-0.37308-0.18788-0.61196-0.5207-0.61196-0.29793 0-0.58513 0.26035-0.58513 0.68711zm0.21473-0.0993c0.0268-0.26303 0.19325-0.41334 0.37576-0.41334 0.20399 0 0.32209 0.14762 0.32209 0.41334z"/>
    <path d="m329.6 159.36h0.22009v-0.83742c0.0886-0.22009 0.22009-0.30061 0.33013-0.30061 0.0537 0 0.0832 8e-3 0.12615 0.0215l0.0429-0.19325c-0.0429-0.0188-0.0832-0.0268-0.13957-0.0268-0.14762 0-0.28183 0.10467-0.3704 0.2684h-8e-3l-0.0188-0.23619h-0.18251z"/>
    <path d="m330.25 159.11c0.10199 0.1852 0.26035 0.28183 0.48313 0.28183 0.34624 0 0.48581-0.24693 0.48581-0.55023v-1.2427h-0.22278v1.2212c0 0.2684-0.0939 0.37576-0.28182 0.37576-0.12615 0-0.22546-0.0591-0.30598-0.19862z"/>
    <path d="m331.55 159.13c0.15299 0.15835 0.36771 0.26035 0.61464 0.26035 0.3704 0 0.60123-0.22278 0.60123-0.50192 0-0.26035-0.15836-0.38113-0.36235-0.4697l-0.2523-0.10737c-0.13689-0.0591-0.29256-0.12346-0.29256-0.29256 0-0.15836 0.13152-0.25766 0.33014-0.25766 0.16104 0 0.29256 0.0644 0.39992 0.16641l0.1181-0.14494c-0.12347-0.12884-0.30867-0.21741-0.51802-0.21741-0.3194 0-0.5556 0.19862-0.5556 0.46702 0 0.25767 0.19325 0.38382 0.35698 0.45361l0.2523 0.11004c0.16641 0.0752 0.29524 0.13152 0.29524 0.31135 0 0.17178-0.13688 0.28719-0.36771 0.28719-0.1852 0-0.35966-0.0886-0.48581-0.22009z"/>
   </g>
  </g>
 </g>
</svg>
