<?xml version="1.0" encoding="UTF-8"?>
<svg width="132.33mm" height="76.116mm" version="1.1" viewBox="0 0 132.33 76.116" xmlns="http://www.w3.org/2000/svg" xmlns:cc="http://creativecommons.org/ns#" xmlns:dc="http://purl.org/dc/elements/1.1/" xmlns:rdf="http://www.w3.org/1999/02/22-rdf-syntax-ns#">
 <metadata>
  <rdf:RDF>
   <cc:Work rdf:about="">
    <dc:format>image/svg+xml</dc:format>
    <dc:type rdf:resource="http://purl.org/dc/dcmitype/StillImage"/>
   </cc:Work>
  </rdf:RDF>
 </metadata>
 <g transform="translate(32.941 -200.41)" stroke-linecap="round" stroke-width=".26458">
  <path d="m-32.808 205.04h18.256v65.881h-18.256z" fill="#1d232d" stroke="#fbb227"/>
  <path d="m-31.618 206.23h15.875v63.534h-15.875z" fill="#fbb227"/>
  <g fill="#fff" aria-label="31%">
   <path d="m-26.592 202.27c0.14605 0.17145 0.37465 0.28575 0.70168 0.28575 0.4064 0 0.7493-0.21272 0.7493-0.58737 0-0.26035-0.16828-0.42545-0.40005-0.49213v-0.0127c0.2159-0.0921 0.33655-0.23812 0.33655-0.44767 0-0.35243-0.2794-0.55245-0.69532-0.55245-0.24765 0-0.45085 0.0984-0.635 0.25717l0.23495 0.28575c0.127-0.11112 0.23495-0.1778 0.37782-0.1778 0.15875 0 0.24765 0.0825 0.24765 0.22225 0 0.16193-0.1143 0.26988-0.47625 0.26988v0.3302c0.43815 0 0.54292 0.11112 0.54292 0.28892 0 0.1524-0.13018 0.23813-0.32702 0.23813-0.17145 0-0.32068-0.0857-0.44132-0.2032z"/>
   <path d="m-24.763 202.52h1.2827v-0.37782h-0.37782v-1.6383h-0.3429c-0.14288 0.0857-0.28258 0.14287-0.50165 0.18415v0.28892h0.37782v1.1652h-0.43815z"/>
   <path d="m-22.712 201.72c0.29845 0 0.51752-0.24447 0.51752-0.6604 0-0.41275-0.21908-0.65405-0.51752-0.65405s-0.51435 0.2413-0.51435 0.65405c0 0.41593 0.2159 0.6604 0.51435 0.6604zm0-0.26035c-0.10478 0-0.1905-0.10477-0.1905-0.40005 0-0.2921 0.08573-0.3937 0.1905-0.3937 0.10478 0 0.1905 0.1016 0.1905 0.3937 0 0.29528-0.08573 0.40005-0.1905 0.40005zm0.3429 1.0922 1.1144-2.1463h-0.2667l-1.1176 2.1463zm1.1843 0c0.29845 0 0.51752-0.24447 0.51752-0.6604 0-0.41275-0.21908-0.65405-0.51752-0.65405s-0.51752 0.2413-0.51752 0.65405c0 0.41593 0.21908 0.6604 0.51752 0.6604zm0-0.26035c-0.10478 0-0.1905-0.10477-0.1905-0.40005 0-0.29527 0.08573-0.3937 0.1905-0.3937 0.10478 0 0.1905 0.0984 0.1905 0.3937 0 0.29528-0.08573 0.40005-0.1905 0.40005z"/>
  </g>
  <g fill="#e8eaec">
   <g aria-label="Unity">
    <path d="m-27.714 274.69c0 0.81121 0.33708 1.1631 0.96308 1.1631 0.626 0 0.95568-0.3519 0.95568-1.1631v-1.2965h-0.52599v1.352c0 0.47414-0.15928 0.63712-0.42968 0.63712-0.2704 0-0.41857-0.16298-0.41857-0.63712v-1.352h-0.54451z"/>
    <path d="m-25.288 275.8h0.54451v-1.2409c0.11853-0.11483 0.20373-0.1778 0.34078-0.1778 0.15558 0 0.22595 0.0815 0.22595 0.34819v1.0705h0.54451v-1.1409c0-0.45931-0.17039-0.74083-0.57044-0.74083-0.24818 0-0.43339 0.12965-0.58896 0.27781h-0.01482l-0.03704-0.23336h-0.4445z"/>
    <path d="m-22.899 273.7c0.18521 0 0.31485-0.11854 0.31485-0.28522 0-0.16669-0.12965-0.28152-0.31485-0.28152-0.1815 0-0.31486 0.11483-0.31486 0.28152 0 0.16668 0.13335 0.28522 0.31486 0.28522zm-0.2704 2.1077h0.54451v-1.8373h-0.54451z"/>
    <path d="m-22.073 275.14c0 0.42598 0.1778 0.7112 0.63341 0.7112 0.1778 0 0.31115-0.037 0.40746-0.0667l-0.0852-0.39634c-0.04815 0.0185-0.11483 0.037-0.1741 0.037-0.14446 0-0.23707-0.0852-0.23707-0.29263v-0.73713h0.4408v-0.42598h-0.44079v-0.48895h-0.45191l-0.06297 0.48895-0.28152 0.0222v0.40375h0.25188z"/>
    <path d="m-20.688 276.07-0.09631 0.41487c0.07408 0.0222 0.14817 0.037 0.25929 0.037 0.43339 0 0.62971-0.23707 0.8038-0.70009l0.63712-1.8558h-0.52229l-0.22225 0.78899c-0.04445 0.17409-0.0852 0.34819-0.12594 0.52229h-0.01482c-0.04815-0.18151-0.0926-0.3556-0.14446-0.52229l-0.263-0.78899h-0.54822l0.7075 1.7891-0.02593 0.0963c-0.04815 0.14447-0.14076 0.24077-0.32226 0.24077-0.04075 0-0.0889-0.0148-0.12224-0.0222z"/>
   </g>
   <g aria-label="Internal">
    <path d="m-8.1242 275.8h0.54822v-2.4151h-0.54822z"/>
    <path d="m-7.0537 275.8h0.54451v-1.2409c0.11853-0.11483 0.20373-0.1778 0.34078-0.1778 0.15558 0 0.22595 0.0815 0.22595 0.34819v1.0705h0.54451v-1.1409c0-0.45931-0.17039-0.74083-0.57044-0.74083-0.24818 0-0.43339 0.12965-0.58896 0.27781h-0.014817l-0.037042-0.23336h-0.4445z"/>
    <path d="m-4.8608 275.14c0 0.42598 0.1778 0.7112 0.63341 0.7112 0.1778 0 0.31115-0.037 0.40746-0.0667l-0.085196-0.39634c-0.048154 0.0185-0.11483 0.037-0.1741 0.037-0.14446 0-0.23707-0.0852-0.23707-0.29263v-0.73713h0.4408v-0.42598h-0.4408v-0.48895h-0.45191l-0.062971 0.48895-0.28152 0.0222v0.40375h0.25188z"/>
    <path d="m-3.6607 274.89c0 0.60749 0.40375 0.96309 0.92975 0.96309 0.21855 0 0.46302-0.0778 0.65193-0.20743l-0.1815-0.32968c-0.13335 0.0815-0.25929 0.12224-0.39635 0.12224-0.24448 0-0.42968-0.12224-0.47784-0.40005h1.1001c0.011112-0.0444 0.022225-0.13335 0.022225-0.22966 0-0.50006-0.25929-0.88159-0.78158-0.88159-0.4408 0-0.86678 0.36671-0.86678 0.96308zm0.52229-0.18891c0.037042-0.24447 0.18521-0.3593 0.3556-0.3593 0.21855 0 0.30745 0.14816 0.30745 0.3593z"/>
    <path d="m-1.6345 275.8h0.54451v-1.0668c0.096308-0.24818 0.2667-0.33708 0.40375-0.33708 0.077788 0 0.13335 0.0111 0.20003 0.0296l0.0889-0.47043c-0.051858-0.0222-0.11483-0.037-0.21855-0.037-0.18891 0-0.38894 0.11853-0.52229 0.36671h-0.014817l-0.037042-0.32226h-0.4445z"/>
    <path d="m-0.16022 275.8h0.54451v-1.2409c0.11853-0.11483 0.20373-0.1778 0.34078-0.1778 0.15558 0 0.22595 0.0815 0.22595 0.34819v1.0705h0.54451v-1.1409c0-0.45931-0.17039-0.74083-0.57044-0.74083-0.24818 0-0.43339 0.12965-0.58896 0.27781h-0.014817l-0.037042-0.23336h-0.4445z"/>
    <path d="m1.8919 275.29c0 0.31115 0.21114 0.55563 0.54451 0.55563 0.20743 0 0.38153-0.0963 0.5371-0.23336h0.011112l0.040746 0.18891h0.4445v-1.052c0-0.56303-0.25929-0.82973-0.72972-0.82973-0.28893 0-0.55192 0.10001-0.78528 0.24077l0.19262 0.35931c0.1778-0.10372 0.33338-0.16669 0.48895-0.16669 0.19632 0 0.27781 0.10372 0.28893 0.2667-0.72602 0.0741-1.0335 0.28522-1.0335 0.67045zm0.51858-0.0407c0-0.14076 0.12594-0.25189 0.51488-0.30374v0.32226c-0.096308 0.0963-0.1778 0.15557-0.30374 0.15557-0.12965 0-0.21114-0.0556-0.21114-0.17409z"/>
    <path d="m3.9366 275.23c0 0.37041 0.12594 0.61489 0.50006 0.61489 0.12224 0 0.21484-0.0185 0.27411-0.0444l-0.066675-0.40376c-0.029633 7e-3 -0.04445 7e-3 -0.066675 7e-3 -0.04445 0-0.096308-0.037-0.096308-0.15187v-2.0484h-0.54451z"/>
   </g>
   <g aria-label="Unreal">
    <path d="m16.206 274.69c0 0.81121 0.33708 1.1631 0.96308 1.1631s0.95568-0.3519 0.95568-1.1631v-1.2965h-0.52599v1.352c0 0.47414-0.15928 0.63712-0.42968 0.63712-0.2704 0-0.41857-0.16298-0.41857-0.63712v-1.352h-0.54451z"/>
    <path d="m18.633 275.8h0.54451v-1.2409c0.11853-0.11483 0.20373-0.1778 0.34078-0.1778 0.15558 0 0.22596 0.0815 0.22596 0.34819v1.0705h0.54451v-1.1409c0-0.45931-0.17039-0.74083-0.57044-0.74083-0.24818 0-0.43339 0.12965-0.58896 0.27781h-0.01482l-0.03704-0.23336h-0.4445z"/>
    <path d="m20.751 275.8h0.54451v-1.0668c0.09631-0.24818 0.2667-0.33708 0.40375-0.33708 0.07779 0 0.13335 0.0111 0.20002 0.0296l0.0889-0.47043c-0.05186-0.0222-0.11483-0.037-0.21855-0.037-0.18891 0-0.38894 0.11853-0.52229 0.36671h-0.01482l-0.03704-0.32226h-0.4445z"/>
    <path d="m22.081 274.89c0 0.60749 0.40376 0.96309 0.92975 0.96309 0.21855 0 0.46302-0.0778 0.65193-0.20743l-0.1815-0.32968c-0.13335 0.0815-0.25929 0.12224-0.39635 0.12224-0.24448 0-0.42968-0.12224-0.47784-0.40005h1.1001c0.01111-0.0444 0.02222-0.13335 0.02222-0.22966 0-0.50006-0.25929-0.88159-0.78158-0.88159-0.4408 0-0.86678 0.36671-0.86678 0.96308zm0.52229-0.18891c0.03704-0.24447 0.18521-0.3593 0.3556-0.3593 0.21855 0 0.30745 0.14816 0.30745 0.3593z"/>
    <path d="m24 275.29c0 0.31115 0.21114 0.55563 0.54451 0.55563 0.20743 0 0.38153-0.0963 0.5371-0.23336h0.01111l0.04075 0.18891h0.4445v-1.052c0-0.56303-0.25929-0.82973-0.72972-0.82973-0.28892 0-0.55192 0.10001-0.78528 0.24077l0.19262 0.35931c0.1778-0.10372 0.33338-0.16669 0.48895-0.16669 0.19632 0 0.27781 0.10372 0.28892 0.2667-0.72602 0.0741-1.0335 0.28522-1.0335 0.67045zm0.51858-0.0407c0-0.14076 0.12594-0.25189 0.51488-0.30374v0.32226c-0.09631 0.0963-0.1778 0.15557-0.30374 0.15557-0.12965 0-0.21114-0.0556-0.21114-0.17409z"/>
    <path d="m26.045 275.23c0 0.37041 0.12594 0.61489 0.50006 0.61489 0.12224 0 0.21484-0.0185 0.27411-0.0444l-0.06668-0.40376c-0.02963 7e-3 -0.04445 7e-3 -0.06668 7e-3 -0.04445 0-0.09631-0.037-0.09631-0.15187v-2.0484h-0.54451z"/>
   </g>
   <g aria-label="XNA">
    <path d="m40.848 275.8h0.58156l0.22595-0.49266c0.05556-0.12594 0.10742-0.24817 0.16669-0.39634h0.01482c0.06297 0.14817 0.11853 0.2704 0.1815 0.39634l0.23707 0.49266h0.60748l-0.66675-1.215 0.626-1.2002h-0.58156l-0.19262 0.45561c-0.04815 0.11113-0.09631 0.23707-0.15187 0.38894h-0.01482c-0.07038-0.15187-0.12224-0.27781-0.1778-0.38894l-0.20743-0.45561h-0.61119l0.62971 1.1742z"/>
    <path d="m43.185 275.8h0.52229v-0.85566c0-0.28523-0.04445-0.60749-0.07038-0.87419h0.01482l0.23707 0.52599 0.62971 1.2039h0.55933v-2.4151h-0.51858v0.85196c0 0.28522 0.04445 0.626 0.07038 0.88159h-0.01482l-0.24077-0.5334-0.62971-1.2002h-0.55933z"/>
    <path d="m46.152 274.8 0.05927-0.22225c0.06668-0.24077 0.13335-0.52229 0.18891-0.77787h0.01482c0.06667 0.25188 0.12965 0.5371 0.19632 0.77787l0.05927 0.22225zm0.77788 1.0001h0.57785l-0.75936-2.4151h-0.65193l-0.75936 2.4151h0.55563l0.14817-0.57415h0.74083z"/>
   </g>
   <g aria-label="GameMaker">
    <path d="m58.436 274.61c0 0.81121 0.51858 1.2372 1.1705 1.2372 0.33708 0 0.63712-0.14076 0.81121-0.29263v-1.1112h-0.8853v0.4445h0.40005v0.41487c-0.05927 0.0482-0.15928 0.0741-0.25559 0.0741-0.45561 0-0.68157-0.28893-0.68157-0.78528 0-0.48525 0.2667-0.77788 0.63712-0.77788 0.20743 0 0.32226 0.0704 0.4445 0.1815l0.30004-0.33708c-0.16298-0.16298-0.41116-0.31485-0.75195-0.31485-0.65564 0-1.189 0.46673-1.189 1.2668z"/>
    <path d="m60.799 275.29c0 0.31115 0.21114 0.55563 0.54451 0.55563 0.20743 0 0.38153-0.0963 0.5371-0.23336h0.01111l0.04075 0.18891h0.4445v-1.052c0-0.56303-0.25929-0.82973-0.72972-0.82973-0.28892 0-0.55192 0.10001-0.78528 0.24077l0.19262 0.35931c0.1778-0.10372 0.33338-0.16669 0.48895-0.16669 0.19632 0 0.27781 0.10372 0.28892 0.2667-0.72602 0.0741-1.0335 0.28522-1.0335 0.67045zm0.51858-0.0407c0-0.14076 0.12594-0.25189 0.51488-0.30374v0.32226c-0.09631 0.0963-0.1778 0.15557-0.30374 0.15557-0.12965 0-0.21114-0.0556-0.21114-0.17409z"/>
    <path d="m62.844 275.8h0.54451v-1.2409c0.11483-0.11853 0.22225-0.1778 0.31115-0.1778 0.15558 0 0.22596 0.0815 0.22596 0.34819v1.0705h0.54451v-1.2409c0.11853-0.11853 0.22225-0.1778 0.31485-0.1778 0.15558 0 0.22596 0.0815 0.22596 0.34819v1.0705h0.54451v-1.1409c0-0.45931-0.1778-0.74083-0.57415-0.74083-0.24448 0-0.41487 0.14076-0.57785 0.30745-0.09261-0.19632-0.24818-0.30745-0.50747-0.30745-0.24077 0-0.40375 0.12965-0.55562 0.28152h-0.01482l-0.03704-0.23707h-0.4445z"/>
    <path d="m65.911 274.89c0 0.60749 0.40375 0.96309 0.92975 0.96309 0.21855 0 0.46302-0.0778 0.65193-0.20743l-0.1815-0.32968c-0.13335 0.0815-0.25929 0.12224-0.39635 0.12224-0.24448 0-0.42968-0.12224-0.47784-0.40005h1.1001c0.01111-0.0444 0.02223-0.13335 0.02223-0.22966 0-0.50006-0.25929-0.88159-0.78158-0.88159-0.4408 0-0.86678 0.36671-0.86678 0.96308zm0.52229-0.18891c0.03704-0.24447 0.18521-0.3593 0.3556-0.3593 0.21855 0 0.30745 0.14816 0.30745 0.3593z"/>
    <path d="m67.978 275.8h0.50377v-0.8853c0-0.23706-0.04445-0.58896-0.07038-0.82232h0.01482l0.19262 0.55933 0.37042 0.93715h0.21855l0.37412-0.93715 0.19632-0.55933h0.01482c-0.02593 0.23336-0.07038 0.58526-0.07038 0.82232v0.8853h0.51118v-2.4151h-0.57785l-0.39264 1.0853-0.14446 0.42228h-0.01482l-0.14446-0.42228-0.40375-1.0853h-0.57785z"/>
    <path d="m70.689 275.29c0 0.31115 0.21114 0.55563 0.54451 0.55563 0.20743 0 0.38153-0.0963 0.5371-0.23336h0.01111l0.04075 0.18891h0.4445v-1.052c0-0.56303-0.25929-0.82973-0.72972-0.82973-0.28893 0-0.55192 0.10001-0.78528 0.24077l0.19262 0.35931c0.1778-0.10372 0.33338-0.16669 0.48895-0.16669 0.19632 0 0.27781 0.10372 0.28892 0.2667-0.72602 0.0741-1.0335 0.28522-1.0335 0.67045zm0.51858-0.0407c0-0.14076 0.12594-0.25189 0.51488-0.30374v0.32226c-0.09631 0.0963-0.1778 0.15557-0.30374 0.15557-0.12965 0-0.21114-0.0556-0.21114-0.17409z"/>
    <path d="m72.734 275.8h0.5297v-0.45191l0.23336-0.263 0.41487 0.71491h0.58896l-0.69268-1.0816 0.64453-0.75565h-0.59267l-0.58156 0.72972h-0.01482v-1.4891h-0.5297z"/>
    <path d="m74.553 274.89c0 0.60749 0.40376 0.96309 0.92975 0.96309 0.21855 0 0.46302-0.0778 0.65193-0.20743l-0.1815-0.32968c-0.13335 0.0815-0.25929 0.12224-0.39635 0.12224-0.24448 0-0.42968-0.12224-0.47784-0.40005h1.1001c0.01111-0.0444 0.02223-0.13335 0.02223-0.22966 0-0.50006-0.25929-0.88159-0.78158-0.88159-0.4408 0-0.86678 0.36671-0.86678 0.96308zm0.52229-0.18891c0.03704-0.24447 0.18521-0.3593 0.3556-0.3593 0.21855 0 0.30745 0.14816 0.30745 0.3593z"/>
    <path d="m76.579 275.8h0.54451v-1.0668c0.09631-0.24818 0.2667-0.33708 0.40375-0.33708 0.07779 0 0.13335 0.0111 0.20002 0.0296l0.0889-0.47043c-0.05186-0.0222-0.11483-0.037-0.21855-0.037-0.18891 0-0.38894 0.11853-0.52229 0.36671h-0.01482l-0.03704-0.32226h-0.4445z"/>
   </g>
   <g aria-label="Marmalade">
    <path d="m81.305 275.8h0.50377v-0.8853c0-0.23706-0.04445-0.58896-0.07038-0.82232h0.01482l0.19262 0.55933 0.37042 0.93715h0.21855l0.37412-0.93715 0.19632-0.55933h0.01482c-0.02593 0.23336-0.07038 0.58526-0.07038 0.82232v0.8853h0.51118v-2.4151h-0.57785l-0.39264 1.0853-0.14446 0.42228h-0.01482l-0.14446-0.42228-0.40376-1.0853h-0.57785z"/>
    <path d="m84.016 275.29c0 0.31115 0.21114 0.55563 0.54451 0.55563 0.20743 0 0.38153-0.0963 0.5371-0.23336h0.01111l0.04075 0.18891h0.4445v-1.052c0-0.56303-0.25929-0.82973-0.72972-0.82973-0.28892 0-0.55192 0.10001-0.78528 0.24077l0.19262 0.35931c0.1778-0.10372 0.33338-0.16669 0.48895-0.16669 0.19632 0 0.27781 0.10372 0.28893 0.2667-0.72602 0.0741-1.0335 0.28522-1.0335 0.67045zm0.51858-0.0407c0-0.14076 0.12594-0.25189 0.51488-0.30374v0.32226c-0.09631 0.0963-0.1778 0.15557-0.30374 0.15557-0.12965 0-0.21114-0.0556-0.21114-0.17409z"/>
    <path d="m86.061 275.8h0.54451v-1.0668c0.09631-0.24818 0.2667-0.33708 0.40375-0.33708 0.07779 0 0.13335 0.0111 0.20003 0.0296l0.0889-0.47043c-0.05186-0.0222-0.11483-0.037-0.21855-0.037-0.18891 0-0.38894 0.11853-0.52229 0.36671h-0.01482l-0.03704-0.32226h-0.4445z"/>
    <path d="m87.535 275.8h0.54451v-1.2409c0.11483-0.11853 0.22225-0.1778 0.31115-0.1778 0.15558 0 0.22596 0.0815 0.22596 0.34819v1.0705h0.54451v-1.2409c0.11853-0.11853 0.22225-0.1778 0.31485-0.1778 0.15558 0 0.22595 0.0815 0.22595 0.34819v1.0705h0.54451v-1.1409c0-0.45931-0.1778-0.74083-0.57415-0.74083-0.24448 0-0.41487 0.14076-0.57785 0.30745-0.09261-0.19632-0.24818-0.30745-0.50747-0.30745-0.24077 0-0.40375 0.12965-0.55562 0.28152h-0.01482l-0.03704-0.23707h-0.4445z"/>
    <path d="m90.643 275.29c0 0.31115 0.21114 0.55563 0.54451 0.55563 0.20743 0 0.38153-0.0963 0.5371-0.23336h0.01111l0.04075 0.18891h0.4445v-1.052c0-0.56303-0.25929-0.82973-0.72972-0.82973-0.28893 0-0.55192 0.10001-0.78528 0.24077l0.19262 0.35931c0.1778-0.10372 0.33338-0.16669 0.48895-0.16669 0.19632 0 0.27781 0.10372 0.28892 0.2667-0.72602 0.0741-1.0335 0.28522-1.0335 0.67045zm0.51858-0.0407c0-0.14076 0.12594-0.25189 0.51488-0.30374v0.32226c-0.09631 0.0963-0.1778 0.15557-0.30374 0.15557-0.12965 0-0.21114-0.0556-0.21114-0.17409z"/>
    <path d="m92.688 275.23c0 0.37041 0.12594 0.61489 0.50006 0.61489 0.12224 0 0.21484-0.0185 0.27411-0.0444l-0.06667-0.40376c-0.02963 7e-3 -0.04445 7e-3 -0.06668 7e-3 -0.04445 0-0.09631-0.037-0.09631-0.15187v-2.0484h-0.54451z"/>
    <path d="m93.681 275.29c0 0.31115 0.21114 0.55563 0.54451 0.55563 0.20743 0 0.38153-0.0963 0.5371-0.23336h0.01111l0.04075 0.18891h0.4445v-1.052c0-0.56303-0.25929-0.82973-0.72972-0.82973-0.28892 0-0.55192 0.10001-0.78528 0.24077l0.19262 0.35931c0.1778-0.10372 0.33338-0.16669 0.48895-0.16669 0.19632 0 0.27781 0.10372 0.28893 0.2667-0.72602 0.0741-1.0335 0.28522-1.0335 0.67045zm0.51858-0.0407c0-0.14076 0.12594-0.25189 0.51488-0.30374v0.32226c-0.09631 0.0963-0.1778 0.15557-0.30374 0.15557-0.12965 0-0.21114-0.0556-0.21114-0.17409z"/>
    <path d="m95.629 274.89c0 0.60008 0.29633 0.96309 0.75195 0.96309 0.1778 0 0.3593-0.0963 0.48895-0.22596h0.01482l0.03704 0.18151h0.4445v-2.5966h-0.54451v0.626l0.02222 0.28152c-0.12594-0.11854-0.24818-0.19262-0.45191-0.19262-0.38894 0-0.76306 0.36301-0.76306 0.96308zm0.55933-7e-3c0-0.3482 0.15558-0.51118 0.32967-0.51118 0.10001 0 0.20743 0.0296 0.30374 0.11853v0.75195c-0.0889 0.12224-0.1815 0.16669-0.30004 0.16669-0.21114 0-0.33338-0.16298-0.33338-0.52599z"/>
    <path d="m97.74 274.89c0 0.60749 0.40376 0.96309 0.92975 0.96309 0.21855 0 0.46302-0.0778 0.65193-0.20743l-0.1815-0.32968c-0.13335 0.0815-0.25929 0.12224-0.39635 0.12224-0.24448 0-0.42968-0.12224-0.47784-0.40005h1.1001c0.01111-0.0444 0.02223-0.13335 0.02223-0.22966 0-0.50006-0.25929-0.88159-0.78158-0.88159-0.4408 0-0.86678 0.36671-0.86678 0.96308zm0.52229-0.18891c0.03704-0.24447 0.18521-0.3593 0.3556-0.3593 0.21855 0 0.30745 0.14816 0.30745 0.3593z"/>
   </g>
  </g>
  <path d="m-10.054 219.85h18.256v51.065h-18.256z" fill="#1d232d" stroke="#fbb227"/>
  <path d="m-8.8634 221.05h15.875v48.717h-15.875z" fill="#fbb227"/>
  <path d="m12.7 257.42h18.256v13.494h-18.256z" fill="#1d232d" stroke="#fbb227"/>
  <path d="m13.891 258.62h15.875v11.146h-15.875z" fill="#fbb227"/>
  <path d="m35.454 258.48h18.256v12.435h-18.256z" fill="#1d232d" stroke="#fbb227"/>
  <path d="m36.645 259.68h15.875v10.088h-15.875z" fill="#fbb227"/>
  <path d="m58.208 263.24h18.256v7.6729h-18.256z" fill="#1d232d" stroke="#fbb227"/>
  <path d="m59.399 264.44h15.875v5.3256h-15.875z" fill="#fbb227"/>
  <path d="m80.963 263.24h18.256v7.6729h-18.256z" fill="#1d232d" stroke="#fbb227"/>
  <path d="m82.153 264.44h15.875v5.3256h-15.875z" fill="#fbb227"/>
  <g fill="#fff">
   <g aria-label="24%">
    <path d="m-3.7903 218.39h1.4192v-0.3937h-0.4064c-0.09525 0-0.23495 0.0127-0.33655 0.0254 0.32702-0.3429 0.64452-0.70485 0.64452-1.0446 0-0.38735-0.26988-0.64135-0.66675-0.64135-0.28892 0-0.47625 0.10795-0.67628 0.32067l0.254 0.25083c0.1016-0.10795 0.21272-0.20638 0.35878-0.20638 0.17462 0 0.28575 0.10795 0.28575 0.3048 0 0.28575-0.36195 0.63183-0.8763 1.1176z"/>
    <path d="m-1.7234 217.55 0.2667-0.43815c0.05715-0.1143 0.1143-0.2286 0.1651-0.33972h0.0127c-0.00635 0.127-0.01905 0.32067-0.01905 0.45085v0.32702zm1.0922 0h-0.23178v-1.1779h-0.5715l-0.7366 1.2128v0.32067h0.87312v0.4826h0.43497v-0.4826h0.23178z"/>
    <path d="m0.041915 217.6c0.29845 0 0.51752-0.24447 0.51752-0.6604 0-0.41275-0.21908-0.65405-0.51752-0.65405-0.29845 0-0.51435 0.2413-0.51435 0.65405 0 0.41593 0.2159 0.6604 0.51435 0.6604zm0-0.26035c-0.10477 0-0.1905-0.10477-0.1905-0.40005 0-0.2921 0.085725-0.3937 0.1905-0.3937 0.10478 0 0.1905 0.1016 0.1905 0.3937 0 0.29528-0.085725 0.40005-0.1905 0.40005zm0.3429 1.0922 1.1144-2.1463h-0.2667l-1.1176 2.1463zm1.1843 0c0.29845 0 0.51752-0.24447 0.51752-0.6604 0-0.41275-0.21908-0.65405-0.51752-0.65405s-0.51752 0.2413-0.51752 0.65405c0 0.41593 0.21908 0.6604 0.51752 0.6604zm0-0.26035c-0.10478 0-0.1905-0.10477-0.1905-0.40005 0-0.29527 0.085725-0.3937 0.1905-0.3937s0.1905 0.0984 0.1905 0.3937c0 0.29528-0.085725 0.40005-0.1905 0.40005z"/>
   </g>
   <g aria-label="6%">
    <path d="m19.729 255.12c-0.1397 0-0.27305-0.1016-0.31432-0.4191 0.09208-0.14605 0.2032-0.20002 0.3048-0.20002 0.1524 0 0.26352 0.0794 0.26352 0.2921 0 0.2286-0.1143 0.32702-0.254 0.32702zm0.65088-1.5018c-0.127-0.13018-0.32068-0.2413-0.58738-0.2413-0.42545 0-0.81598 0.33972-0.81598 1.0922 0 0.70802 0.37148 1.0001 0.762 1.0001 0.36512 0 0.66992-0.25717 0.66992-0.67627 0-0.42545-0.254-0.6223-0.60008-0.6223-0.12382 0-0.29845 0.0794-0.40322 0.21272 0.01588-0.4699 0.19368-0.62865 0.41592-0.62865 0.11748 0 0.24448 0.0667 0.31432 0.14288z"/>
    <path d="m21.12 254.64c0.29845 0 0.51752-0.24447 0.51752-0.6604 0-0.41275-0.21908-0.65405-0.51752-0.65405s-0.51435 0.2413-0.51435 0.65405c0 0.41593 0.2159 0.6604 0.51435 0.6604zm0-0.26035c-0.10478 0-0.1905-0.10477-0.1905-0.40005 0-0.2921 0.08573-0.3937 0.1905-0.3937 0.10478 0 0.1905 0.1016 0.1905 0.3937 0 0.29528-0.08573 0.40005-0.1905 0.40005zm0.3429 1.0922 1.1144-2.1463h-0.2667l-1.1176 2.1463zm1.1843 0c0.29845 0 0.51752-0.24447 0.51752-0.6604 0-0.41275-0.21908-0.65405-0.51752-0.65405s-0.51752 0.2413-0.51752 0.65405c0 0.41593 0.21908 0.6604 0.51752 0.6604zm0-0.26035c-0.10478 0-0.1905-0.10477-0.1905-0.40005 0-0.29527 0.08573-0.3937 0.1905-0.3937 0.10478 0 0.1905 0.0984 0.1905 0.3937 0 0.29528-0.08573 0.40005-0.1905 0.40005z"/>
   </g>
   <g aria-label="5%">
    <path d="m41.674 256.77c0.15875 0.15875 0.381 0.28258 0.7112 0.28258 0.3937 0 0.73978-0.25718 0.73978-0.70485 0-0.42863-0.29528-0.62548-0.64135-0.62548-0.08255 0-0.14922 0.0127-0.22542 0.0476l0.03493-0.37783h0.73978v-0.3937h-1.143l-0.05715 1.0192 0.20955 0.13335c0.12065-0.0762 0.18098-0.1016 0.29845-0.1016 0.18732 0 0.3175 0.10795 0.3175 0.31115 0 0.20637-0.13335 0.31432-0.33972 0.31432-0.17145 0-0.31432-0.0889-0.43498-0.20002z"/>
    <path d="m43.874 256.23c0.29845 0 0.51752-0.24448 0.51752-0.6604 0-0.41275-0.21908-0.65405-0.51752-0.65405s-0.51435 0.2413-0.51435 0.65405c0 0.41592 0.2159 0.6604 0.51435 0.6604zm0-0.26035c-0.10478 0-0.1905-0.10478-0.1905-0.40005 0-0.2921 0.08573-0.3937 0.1905-0.3937 0.10478 0 0.1905 0.1016 0.1905 0.3937 0 0.29527-0.08572 0.40005-0.1905 0.40005zm0.3429 1.0922 1.1144-2.1463h-0.2667l-1.1176 2.1463zm1.1843 0c0.29845 0 0.51752-0.24448 0.51752-0.6604 0-0.41275-0.21908-0.65405-0.51752-0.65405s-0.51752 0.2413-0.51752 0.65405c0 0.41592 0.21908 0.6604 0.51752 0.6604zm0-0.26035c-0.10478 0-0.1905-0.10478-0.1905-0.40005 0-0.29528 0.08573-0.3937 0.1905-0.3937 0.10478 0 0.1905 0.0984 0.1905 0.3937 0 0.29527-0.08572 0.40005-0.1905 0.40005z"/>
   </g>
   <g aria-label="2%">
    <path d="m64.472 261.78h1.4192v-0.3937h-0.4064c-0.09525 0-0.23495 0.0127-0.33655 0.0254 0.32702-0.3429 0.64452-0.70485 0.64452-1.0446 0-0.38735-0.26988-0.64135-0.66675-0.64135-0.28892 0-0.47625 0.10795-0.67628 0.32067l0.254 0.25083c0.1016-0.10795 0.21272-0.20638 0.35878-0.20638 0.17462 0 0.28575 0.10795 0.28575 0.3048 0 0.28575-0.36195 0.63183-0.8763 1.1176z"/>
    <path d="m66.628 260.99c0.29845 0 0.51752-0.24447 0.51752-0.6604 0-0.41275-0.21908-0.65405-0.51752-0.65405s-0.51435 0.2413-0.51435 0.65405c0 0.41593 0.2159 0.6604 0.51435 0.6604zm0-0.26035c-0.10478 0-0.1905-0.10477-0.1905-0.40005 0-0.2921 0.08573-0.3937 0.1905-0.3937 0.10478 0 0.1905 0.1016 0.1905 0.3937 0 0.29528-0.08572 0.40005-0.1905 0.40005zm0.3429 1.0922 1.1144-2.1463h-0.2667l-1.1176 2.1463zm1.1843 0c0.29845 0 0.51752-0.24447 0.51752-0.6604 0-0.41275-0.21908-0.65405-0.51752-0.65405s-0.51752 0.2413-0.51752 0.65405c0 0.41593 0.21908 0.6604 0.51752 0.6604zm0-0.26035c-0.10478 0-0.1905-0.10477-0.1905-0.40005 0-0.29527 0.08573-0.3937 0.1905-0.3937 0.10478 0 0.1905 0.0984 0.1905 0.3937 0 0.29528-0.08572 0.40005-0.1905 0.40005z"/>
    <path d="m87.226 261.78h1.4192v-0.3937h-0.4064c-0.09525 0-0.23495 0.0127-0.33655 0.0254 0.32702-0.3429 0.64452-0.70485 0.64452-1.0446 0-0.38735-0.26988-0.64135-0.66675-0.64135-0.28892 0-0.47625 0.10795-0.67628 0.32067l0.254 0.25083c0.1016-0.10795 0.21272-0.20638 0.35878-0.20638 0.17462 0 0.28575 0.10795 0.28575 0.3048 0 0.28575-0.36195 0.63183-0.8763 1.1176z"/>
    <path d="m89.382 260.99c0.29845 0 0.51752-0.24447 0.51752-0.6604 0-0.41275-0.21908-0.65405-0.51752-0.65405s-0.51435 0.2413-0.51435 0.65405c0 0.41593 0.2159 0.6604 0.51435 0.6604zm0-0.26035c-0.10478 0-0.1905-0.10477-0.1905-0.40005 0-0.2921 0.08573-0.3937 0.1905-0.3937 0.10478 0 0.1905 0.1016 0.1905 0.3937 0 0.29528-0.08572 0.40005-0.1905 0.40005zm0.3429 1.0922 1.1144-2.1463h-0.2667l-1.1176 2.1463zm1.1843 0c0.29845 0 0.51752-0.24447 0.51752-0.6604 0-0.41275-0.21908-0.65405-0.51752-0.65405s-0.51752 0.2413-0.51752 0.65405c0 0.41593 0.21908 0.6604 0.51752 0.6604zm0-0.26035c-0.10478 0-0.1905-0.10477-0.1905-0.40005 0-0.29527 0.08573-0.3937 0.1905-0.3937 0.10478 0 0.1905 0.0984 0.1905 0.3937 0 0.29528-0.08572 0.40005-0.1905 0.40005z"/>
   </g>
  </g>
 </g>
</svg>
