<?xml version="1.0" encoding="UTF-8"?>
<svg width="135.26mm" height="22.772mm" version="1.1" viewBox="0 0 135.26 22.772" xmlns="http://www.w3.org/2000/svg" xmlns:cc="http://creativecommons.org/ns#" xmlns:dc="http://purl.org/dc/elements/1.1/" xmlns:rdf="http://www.w3.org/1999/02/22-rdf-syntax-ns#">
 <metadata>
  <rdf:RDF>
   <cc:Work rdf:about="">
    <dc:format>image/svg+xml</dc:format>
    <dc:type rdf:resource="http://purl.org/dc/dcmitype/StillImage"/>
    <dc:title/>
   </cc:Work>
  </rdf:RDF>
 </metadata>
 <g transform="translate(-47.521 -45.104)">
  <g>
   <path d="m62.521 52.294h111.12" fill="#dcdcdc" stroke="#6f8ce9" stroke-width=".26458"/>
   <circle cx="62.521" cy="52.294" r=".79375" fill="#6f8ce9"/>
   <circle cx="67.813" cy="52.294" r=".79375" fill="#6f8ce9"/>
   <circle cx="73.104" cy="52.294" r=".79375" fill="#e9e56f"/>
   <circle cx="78.396" cy="52.294" r=".79375" fill="#6f8ce9"/>
   <circle cx="83.688" cy="52.294" r=".79375" fill="#6f8ce9"/>
   <circle cx="88.979" cy="52.294" r=".79375" fill="#535e70"/>
   <circle cx="94.271" cy="52.294" r=".79375" fill="#e9e56f"/>
   <circle cx="99.563" cy="52.294" r=".79375" fill="#e9e56f"/>
  </g>
  <g fill="#6f8ce9">
   <circle cx="104.85" cy="52.294" r=".79375"/>
   <circle cx="110.15" cy="52.294" r=".79375"/>
   <circle cx="115.44" cy="52.294" r=".79375"/>
   <circle cx="120.73" cy="52.294" r=".79375"/>
   <circle cx="126.02" cy="52.294" r=".79375"/>
  </g>
  <g fill="#e8eaec" stroke-linecap="round" stroke-width=".26458">
   <g aria-label="23.9.">
    <path d="m59.787 49.57h1.0901v-0.18785h-0.48948c-0.08731 0-0.1905 0.0079-0.2831 0.01587 0.39952-0.41804 0.68792-0.73289 0.68792-1.0504 0-0.29898-0.19314-0.49742-0.50535-0.49742-0.2196 0-0.37042 0.10319-0.51064 0.25664l0.12435 0.12436c0.0979-0.11377 0.2196-0.20373 0.35983-0.20373 0.21431 0 0.32015 0.13758 0.32015 0.33073 0 0.27252-0.28575 0.57679-0.79375 1.0821z"/>
    <path d="m61.063 49.363c0.11377 0.12435 0.28575 0.23812 0.55562 0.23812 0.30956 0 0.55562-0.18256 0.55562-0.48154 0-0.23283-0.1614-0.381-0.36512-0.42862v-0.01058c0.18256-0.06879 0.30692-0.19844 0.30692-0.40217 0-0.27252-0.21167-0.42862-0.50535-0.42862-0.19844 0-0.35454 0.08996-0.48419 0.21167l0.11642 0.13758c0.10054-0.10054 0.2196-0.17198 0.35983-0.17198 0.17992 0 0.29104 0.10319 0.29104 0.26723 0 0.17727-0.11906 0.31485-0.4789 0.31485v0.16669c0.40217 0 0.53975 0.13494 0.53975 0.33602 0 0.18785-0.14552 0.30956-0.34925 0.30956-0.19844 0-0.33073-0.09525-0.43127-0.20108z"/>
    <path d="m62.478 49.437c0 0.09525 0.07144 0.16404 0.15875 0.16404 0.08467 0 0.1561-0.06879 0.1561-0.16404 0-0.10054-0.07144-0.16933-0.1561-0.16933-0.08731 0-0.15875 0.06879-0.15875 0.16933z"/>
    <path d="m63.584 48.75c-0.20902 0-0.31221-0.13758-0.31221-0.35719 0-0.22225 0.12965-0.37042 0.29369-0.37042 0.21431 0 0.34396 0.17462 0.37306 0.50271-0.11377 0.1614-0.24606 0.2249-0.35454 0.2249zm-0.48683 0.67469c0.0926 0.10054 0.22754 0.17727 0.40746 0.17727 0.33602 0 0.64294-0.26194 0.64294-0.93927 0-0.5424-0.24871-0.81227-0.58208-0.81227-0.26988 0-0.49742 0.2196-0.49742 0.5424 0 0.3466 0.18785 0.52123 0.4789 0.52123 0.14023 0 0.29104-0.08202 0.39688-0.21696-0.0079 0.53975-0.20902 0.72496-0.44715 0.72496-0.10583 0-0.20902-0.05292-0.27781-0.13494z"/>
    <path d="m64.447 49.437c0 0.09525 0.07144 0.16404 0.15875 0.16404 0.08467 0 0.1561-0.06879 0.1561-0.16404 0-0.10054-0.07144-0.16933-0.1561-0.16933-0.08731 0-0.15875 0.06879-0.15875 0.16933z"/>
   </g>
   <g aria-label="7.10.">
    <path d="m71.527 49.57h0.2249c0.0291-0.65881 0.11112-1.0425 0.51064-1.5531v-0.13494h-1.0874v0.18785h0.84137c-0.33338 0.46302-0.46038 0.86519-0.48948 1.5002z"/>
    <path d="m72.543 49.437c0 0.09525 0.07144 0.16404 0.15875 0.16404 0.08467 0 0.1561-0.06879 0.1561-0.16404 0-0.10054-0.07144-0.16933-0.1561-0.16933-0.08731 0-0.15875 0.06879-0.15875 0.16933z"/>
    <path d="m73.236 49.57h0.9525v-0.17992h-0.34925v-1.5081h-0.16669c-0.0926 0.05556-0.20373 0.0979-0.35719 0.12435v0.14023h0.30692v1.2435h-0.38629z"/>
    <path d="m74.999 49.602c0.33602 0 0.53975-0.31485 0.53975-0.88106s-0.20373-0.87048-0.53975-0.87048c-0.33867 0-0.5424 0.30427-0.5424 0.87048s0.20373 0.88106 0.5424 0.88106zm0-0.17462c-0.19844 0-0.33073-0.21167-0.33073-0.70644s0.13229-0.69585 0.33073-0.69585c0.19579 0 0.32808 0.20108 0.32808 0.69585s-0.13229 0.70644-0.32808 0.70644z"/>
    <path d="m75.824 49.437c0 0.09525 0.07144 0.16404 0.15875 0.16404 0.08467 0 0.1561-0.06879 0.1561-0.16404 0-0.10054-0.07144-0.16933-0.1561-0.16933-0.08731 0-0.15875 0.06879-0.15875 0.16933z"/>
   </g>
   <g aria-label="11.11.">
    <path d="m96.276 49.57h0.9525v-0.17992h-0.34925v-1.5081h-0.16669c-0.0926 0.05556-0.20373 0.0979-0.35719 0.12435v0.14023h0.30692v1.2435h-0.38629z"/>
    <path d="m97.588 49.57h0.9525v-0.17992h-0.34925v-1.5081h-0.16669c-0.0926 0.05556-0.20373 0.0979-0.35719 0.12435v0.14023h0.30692v1.2435h-0.38629z"/>
    <path d="m98.864 49.437c0 0.09525 0.07144 0.16404 0.15875 0.16404 0.08467 0 0.1561-0.06879 0.1561-0.16404 0-0.10054-0.07144-0.16933-0.1561-0.16933-0.08731 0-0.15875 0.06879-0.15875 0.16933z"/>
    <path d="m99.557 49.57h0.9525v-0.17992h-0.34925v-1.5081h-0.16669c-0.0926 0.05556-0.20373 0.0979-0.35719 0.12435v0.14023h0.30692v1.2435h-0.38629z"/>
    <path d="m100.87 49.57h0.9525v-0.17992h-0.34925v-1.5081h-0.16669c-0.0926 0.05556-0.20373 0.0979-0.35718 0.12435v0.14023h0.30691v1.2435h-0.38629z"/>
    <path d="m102.15 49.437c0 0.09525 0.0714 0.16404 0.15875 0.16404 0.0847 0 0.1561-0.06879 0.1561-0.16404 0-0.10054-0.0714-0.16933-0.1561-0.16933-0.0873 0-0.15875 0.06879-0.15875 0.16933z"/>
   </g>
   <g aria-label="Submit Description">
    <path d="m74.111 62.794c0.18098 0.18732 0.43498 0.30798 0.72708 0.30798 0.43815 0 0.7112-0.26352 0.7112-0.59372 0-0.30798-0.18732-0.45085-0.42862-0.55562l-0.29845-0.127c-0.16192-0.06985-0.34608-0.14605-0.34608-0.34608 0-0.18732 0.15558-0.3048 0.39052-0.3048 0.1905 0 0.34608 0.0762 0.47308 0.19685l0.1397-0.17145c-0.14605-0.1524-0.36512-0.25718-0.61278-0.25718-0.37782 0-0.65722 0.23495-0.65722 0.55245 0 0.3048 0.2286 0.45402 0.42228 0.53658l0.29845 0.13018c0.19685 0.0889 0.34925 0.15558 0.34925 0.3683 0 0.2032-0.16192 0.33972-0.43498 0.33972-0.21908 0-0.42545-0.10478-0.57468-0.26035z"/>
    <path d="m75.903 62.498c0 0.3937 0.14605 0.60325 0.47308 0.60325 0.21272 0 0.36512-0.11112 0.508-0.2794h0.0095l0.02222 0.2413h0.2159v-1.543h-0.26035v1.0954c-0.14605 0.18098-0.25718 0.26035-0.41592 0.26035-0.2032 0-0.28892-0.12382-0.28892-0.41275v-0.94298h-0.2635z"/>
    <path d="m77.655 63.064h0.20955l0.02223-0.1524h0.0095c0.13652 0.12065 0.29845 0.1905 0.44132 0.1905 0.35242 0 0.66675-0.30798 0.66675-0.83502 0-0.47625-0.21272-0.78422-0.61278-0.78422-0.17145 0-0.3429 0.09208-0.4826 0.2159l0.0064-0.2794v-0.61595h-0.26035zm0.26035-0.3429v-0.80962c0.14605-0.13652 0.28258-0.20955 0.41275-0.20955 0.2921 0 0.4064 0.2286 0.4064 0.56832 0 0.381-0.18732 0.61278-0.44132 0.61278-0.1016 0-0.2413-0.04445-0.37782-0.16192z"/>
    <path d="m79.416 63.064h0.26035v-1.1176c0.14288-0.15875 0.27305-0.23812 0.38735-0.23812 0.19685 0 0.28892 0.12382 0.28892 0.41275v0.94298h0.26035v-1.1176c0.14288-0.15875 0.2667-0.23812 0.38735-0.23812 0.19368 0 0.28575 0.12382 0.28575 0.41275v0.94298h0.26035v-0.9779c0-0.3937-0.1524-0.60325-0.4699-0.60325-0.18732 0-0.34608 0.12065-0.508 0.29528-0.0635-0.18415-0.1905-0.29528-0.42545-0.29528-0.18415 0-0.34608 0.1143-0.47942 0.26035h-0.0095l-0.02223-0.22225h-0.2159z"/>
    <path d="m82.179 61.203c0.1016 0 0.18098-0.06985 0.18098-0.16828 0-0.1016-0.07937-0.16828-0.18098-0.16828-0.1016 0-0.18098 0.06668-0.18098 0.16828 0 0.09842 0.07937 0.16828 0.18098 0.16828zm-0.13335 1.8606h0.26035v-1.543h-0.26035z"/>
    <path d="m82.871 62.587c0 0.3048 0.11112 0.51435 0.44132 0.51435 0.09525 0 0.20002-0.02858 0.28575-0.05715l-0.0508-0.19685c-0.0508 0.01905-0.12065 0.04127-0.17462 0.04127-0.1778 0-0.23812-0.10795-0.23812-0.29845v-0.85725h0.41592v-0.21272h-0.41592v-0.4318h-0.21908l-0.03175 0.4318-0.2413 0.01588v0.19685h0.2286z"/>
    <path d="m74.26 67.063h0.5334c0.62865 0 0.97155-0.38735 0.97155-1.0509 0-0.6604-0.3429-1.0319-0.98425-1.0319h-0.5207zm0.2667-0.2159v-1.651h0.23495c0.48895 0 0.73025 0.2921 0.73025 0.81598 0 0.52705-0.2413 0.83502-0.73025 0.83502z"/>
    <path d="m76.071 66.295c0 0.50482 0.32702 0.80645 0.73978 0.80645 0.20955 0 0.37465-0.07303 0.508-0.15875l-0.09208-0.17145c-0.1143 0.07303-0.23812 0.12065-0.38418 0.12065-0.29528 0-0.4953-0.20955-0.51435-0.54292h1.0414c0.0063-0.0381 0.0095-0.0889 0.0095-0.14288 0-0.44132-0.22225-0.7239-0.61595-0.7239-0.35242 0-0.69215 0.30798-0.69215 0.8128zm0.254-0.11748c0.03175-0.31115 0.2286-0.48895 0.4445-0.48895 0.2413 0 0.381 0.17462 0.381 0.48895z"/>
    <path d="m77.589 66.889c0.14605 0.12065 0.3556 0.21272 0.57468 0.21272 0.36512 0 0.56515-0.20955 0.56515-0.46038 0-0.2921-0.24765-0.38418-0.4699-0.46672-0.17462-0.06668-0.3429-0.12382-0.3429-0.2667 0-0.11748 0.0889-0.22225 0.28258-0.22225 0.13652 0 0.24765 0.05715 0.35242 0.13652l0.12382-0.1651c-0.11748-0.09525-0.28575-0.17462-0.47942-0.17462-0.33338 0-0.53022 0.1905-0.53022 0.43815 0 0.26035 0.2413 0.36512 0.46038 0.4445 0.16828 0.0635 0.35242 0.13335 0.35242 0.2921 0 0.13335-0.1016 0.2413-0.3048 0.2413-0.18415 0-0.32068-0.0762-0.45402-0.18415z"/>
    <path d="m78.98 66.295c0 0.51118 0.31432 0.80645 0.7239 0.80645 0.18415 0 0.36195-0.0762 0.50165-0.20002l-0.11748-0.17145c-0.09207 0.08255-0.2159 0.15558-0.36195 0.15558-0.28258 0-0.47625-0.23812-0.47625-0.59055 0-0.3556 0.2032-0.5969 0.4826-0.5969 0.12382 0 0.21908 0.05715 0.31115 0.13652l0.13018-0.16828c-0.10478-0.09842-0.24765-0.18415-0.45085-0.18415-0.39688 0-0.74295 0.29528-0.74295 0.8128z"/>
    <path d="m80.539 67.063h0.26035v-0.9906c0.10478-0.26035 0.26035-0.3556 0.39052-0.3556 0.0635 0 0.09843 0.0095 0.14922 0.0254l0.0508-0.2286c-0.0508-0.02222-0.09842-0.03175-0.1651-0.03175-0.17462 0-0.33338 0.12382-0.43815 0.3175h-0.0095l-0.02222-0.2794h-0.2159z"/>
    <path d="m81.776 65.203c0.1016 0 0.18098-0.06985 0.18098-0.16828 0-0.1016-0.07937-0.16828-0.18098-0.16828-0.1016 0-0.18098 0.06668-0.18098 0.16828 0 0.09842 0.07937 0.16828 0.18098 0.16828zm-0.13335 1.8606h0.26035v-1.543h-0.26035z"/>
    <path d="m82.678 66.924c0.14288 0.11112 0.28575 0.1778 0.42862 0.1778 0.35242 0 0.66675-0.30798 0.66675-0.83185 0-0.47942-0.21272-0.7874-0.6096-0.7874-0.18098 0-0.35242 0.09843-0.49212 0.2159h-0.0095l-0.02222-0.1778h-0.2159v2.1939h0.26035v-0.5207zm0.0063-0.2032v-0.80962c0.1524-0.13652 0.28258-0.20955 0.41275-0.20955 0.2921 0 0.4064 0.2286 0.4064 0.56832 0 0.381-0.18732 0.61278-0.44132 0.61278-0.1016 0-0.23812-0.04445-0.37782-0.16192z"/>
    <path d="m84.229 66.587c0 0.3048 0.11112 0.51435 0.44132 0.51435 0.09525 0 0.20002-0.02858 0.28575-0.05715l-0.0508-0.19685c-0.0508 0.01905-0.12065 0.04127-0.17462 0.04127-0.1778 0-0.23812-0.10795-0.23812-0.29845v-0.85725h0.41592v-0.21272h-0.41592v-0.4318h-0.21908l-0.03175 0.4318-0.2413 0.01588v0.19685h0.2286z"/>
    <path d="m85.391 65.203c0.1016 0 0.18098-0.06985 0.18098-0.16828 0-0.1016-0.07937-0.16828-0.18098-0.16828-0.1016 0-0.18098 0.06668-0.18098 0.16828 0 0.09842 0.07937 0.16828 0.18098 0.16828zm-0.13335 1.8606h0.26035v-1.543h-0.26035z"/>
    <path d="m85.925 66.295c0 0.51118 0.33655 0.80645 0.71438 0.80645s0.71438-0.29528 0.71438-0.80645c0-0.51752-0.33655-0.8128-0.71438-0.8128s-0.71438 0.29528-0.71438 0.8128zm0.26988 0c0-0.3556 0.18098-0.5969 0.4445-0.5969 0.2667 0 0.4445 0.2413 0.4445 0.5969 0 0.35242-0.1778 0.59055-0.4445 0.59055-0.26352 0-0.4445-0.23812-0.4445-0.59055z"/>
    <path d="m87.763 67.063h0.26035v-1.1176c0.15558-0.15558 0.26352-0.23812 0.42228-0.23812 0.2032 0 0.2921 0.12382 0.2921 0.41275v0.94298h0.26035v-0.9779c0-0.3937-0.14605-0.60325-0.4699-0.60325-0.21272 0-0.37148 0.1143-0.51752 0.26035h-0.0095l-0.02223-0.22225h-0.2159z"/>
   </g>
   <g aria-label="Progress (2nd group)">
    <path d="m95.427 67.032h0.2667v-0.8255h0.37465c0.45402 0 0.76835-0.20638 0.76835-0.64452 0-0.4572-0.30798-0.61278-0.76835-0.61278h-0.64135zm0.2667-1.0414v-0.82868h0.33972c0.35878 0 0.53975 0.09843 0.53975 0.40005 0 0.29528-0.17462 0.42862-0.53975 0.42862z"/>
    <path d="m97.222 67.032h0.26035v-0.9906c0.10478-0.26035 0.26035-0.3556 0.39052-0.3556 0.0635 0 0.09842 0.0095 0.14922 0.0254l0.0508-0.2286c-0.0508-0.02222-0.09842-0.03175-0.1651-0.03175-0.17462 0-0.33338 0.12382-0.43815 0.3175h-0.0095l-0.02223-0.2794h-0.2159z"/>
    <path d="m98.18 66.264c0 0.51118 0.33655 0.80645 0.71438 0.80645s0.71438-0.29528 0.71438-0.80645c0-0.51752-0.33655-0.8128-0.71438-0.8128s-0.71438 0.29528-0.71438 0.8128zm0.26988 0c0-0.3556 0.18098-0.5969 0.4445-0.5969 0.2667 0 0.4445 0.2413 0.4445 0.5969 0 0.35242-0.1778 0.59055-0.4445 0.59055-0.26352 0-0.4445-0.23812-0.4445-0.59055z"/>
    <path d="m100.13 67.293c0-0.0889 0.0476-0.18098 0.15875-0.26035 0.0667 0.01905 0.1397 0.0254 0.20002 0.0254h0.2667c0.20003 0 0.31115 0.04762 0.31115 0.1905 0 0.16192-0.19367 0.31432-0.48895 0.31432-0.2794 0-0.44767-0.10478-0.44767-0.26988zm-0.2286 0.03493c0 0.2667 0.26035 0.41592 0.63817 0.41592 0.47943 0 0.78105-0.24765 0.78105-0.5334 0-0.25718-0.18097-0.3683-0.53975-0.3683h-0.29845c-0.20955 0-0.27305-0.06985-0.27305-0.16828 0-0.08573 0.0444-0.13652 0.0984-0.18415 0.0699 0.03493 0.15557 0.05397 0.23177 0.05397 0.31433 0 0.56515-0.20638 0.56515-0.53658 0-0.13018-0.054-0.24765-0.127-0.3175h0.3175v-0.20002h-0.53657c-0.0572-0.02223-0.13335-0.0381-0.21908-0.0381-0.31432 0-0.58102 0.21272-0.58102 0.54928 0 0.18415 0.09842 0.33338 0.20002 0.41592v0.0127c-0.0794 0.05398-0.16827 0.15558-0.16827 0.28575 0 0.12065 0.06032 0.2032 0.13652 0.25082v0.0127c-0.1397 0.09525-0.22542 0.21908-0.22542 0.34925zm0.63817-0.95885c-0.1778 0-0.32702-0.14288-0.32702-0.3683s0.14605-0.35878 0.32702-0.35878c0.18098 0 0.32703 0.13335 0.32703 0.35878s-0.14923 0.3683-0.32703 0.3683z"/>
    <path d="m101.62 67.032h0.26035v-0.9906c0.10478-0.26035 0.26035-0.3556 0.39053-0.3556 0.0635 0 0.0984 0.0095 0.14922 0.0254l0.0508-0.2286c-0.0508-0.02222-0.0984-0.03175-0.1651-0.03175-0.17462 0-0.33337 0.12382-0.43815 0.3175h-0.01l-0.0222-0.2794h-0.2159z"/>
    <path d="m102.58 66.264c0 0.50482 0.32702 0.80645 0.73977 0.80645 0.20955 0 0.37465-0.07303 0.508-0.15875l-0.0921-0.17145c-0.1143 0.07303-0.23813 0.12065-0.38418 0.12065-0.29527 0-0.4953-0.20955-0.51435-0.54292h1.0414c6e-3 -0.0381 0.01-0.0889 0.01-0.14288 0-0.44132-0.22225-0.7239-0.61595-0.7239-0.35243 0-0.69215 0.30798-0.69215 0.8128zm0.254-0.11748c0.0317-0.31115 0.2286-0.48895 0.4445-0.48895 0.2413 0 0.381 0.17462 0.381 0.48895z"/>
    <path d="m104.1 66.858c0.14605 0.12065 0.3556 0.21272 0.57468 0.21272 0.36512 0 0.56515-0.20955 0.56515-0.46038 0-0.2921-0.24765-0.38418-0.4699-0.46672-0.17463-0.06668-0.3429-0.12382-0.3429-0.2667 0-0.11748 0.0889-0.22225 0.28257-0.22225 0.13653 0 0.24765 0.05715 0.35243 0.13652l0.12382-0.1651c-0.11747-0.09525-0.28575-0.17462-0.47942-0.17462-0.33338 0-0.53023 0.1905-0.53023 0.43815 0 0.26035 0.2413 0.36512 0.46038 0.4445 0.16827 0.0635 0.35242 0.13335 0.35242 0.2921 0 0.13335-0.1016 0.2413-0.3048 0.2413-0.18415 0-0.32067-0.0762-0.45402-0.18415z"/>
    <path d="m105.43 66.858c0.14605 0.12065 0.3556 0.21272 0.57467 0.21272 0.36513 0 0.56515-0.20955 0.56515-0.46038 0-0.2921-0.24765-0.38418-0.4699-0.46672-0.17462-0.06668-0.3429-0.12382-0.3429-0.2667 0-0.11748 0.0889-0.22225 0.28258-0.22225 0.13652 0 0.24765 0.05715 0.35242 0.13652l0.12383-0.1651c-0.11748-0.09525-0.28575-0.17462-0.47943-0.17462-0.33337 0-0.53022 0.1905-0.53022 0.43815 0 0.26035 0.2413 0.36512 0.46037 0.4445 0.16828 0.0635 0.35243 0.13335 0.35243 0.2921 0 0.13335-0.1016 0.2413-0.3048 0.2413-0.18415 0-0.32068-0.0762-0.45403-0.18415z"/>
    <path d="m107.99 67.591 0.16192-0.0762c-0.24447-0.40322-0.36512-0.88265-0.36512-1.3652s0.12065-0.96202 0.36512-1.3652l-0.16192-0.0762c-0.26353 0.42545-0.4191 0.88265-0.4191 1.4414s0.15557 1.016 0.4191 1.4414z"/>
    <path d="m108.4 67.032h1.3081v-0.22542h-0.58737c-0.10478 0-0.2286 0.0095-0.33973 0.01905 0.47943-0.50165 0.8255-0.87948 0.8255-1.2605 0-0.35878-0.23177-0.5969-0.60642-0.5969-0.26353 0-0.4445 0.12382-0.61278 0.30798l0.14923 0.14922c0.11747-0.13652 0.26352-0.24448 0.4318-0.24448 0.25717 0 0.38417 0.1651 0.38417 0.39688 0 0.32702-0.3429 0.69215-0.9525 1.2986z"/>
    <path d="m110.11 67.032h0.26035v-1.1176c0.15557-0.15558 0.26352-0.23812 0.42227-0.23812 0.2032 0 0.2921 0.12382 0.2921 0.41275v0.94298h0.26035v-0.9779c0-0.3937-0.14605-0.60325-0.4699-0.60325-0.21272 0-0.37147 0.1143-0.51752 0.26035h-0.01l-0.0222-0.22225h-0.2159z"/>
    <path d="m111.73 66.264c0 0.51435 0.25083 0.80645 0.63818 0.80645 0.18097 0 0.34607-0.1016 0.46672-0.21908h0.01l0.0222 0.18098h0.2159v-2.2606h-0.26352v0.59372l0.0127 0.26352c-0.13653-0.11112-0.254-0.1778-0.4318-0.1778-0.35243 0-0.66993 0.31115-0.66993 0.8128zm0.26988-0.0032c0-0.35242 0.19685-0.59055 0.4445-0.59055 0.127 0 0.24447 0.04445 0.37465 0.16192v0.80645c-0.127 0.14288-0.25083 0.21272-0.3937 0.21272-0.26988 0-0.42545-0.22225-0.42545-0.59055z"/>
    <path d="m114.36 67.293c0-0.0889 0.0476-0.18098 0.15875-0.26035 0.0667 0.01905 0.1397 0.0254 0.20003 0.0254h0.2667c0.20002 0 0.31115 0.04762 0.31115 0.1905 0 0.16192-0.19368 0.31432-0.48895 0.31432-0.2794 0-0.44768-0.10478-0.44768-0.26988zm-0.2286 0.03493c0 0.2667 0.26035 0.41592 0.63818 0.41592 0.47942 0 0.78105-0.24765 0.78105-0.5334 0-0.25718-0.18098-0.3683-0.53975-0.3683h-0.29845c-0.20955 0-0.27305-0.06985-0.27305-0.16828 0-0.08573 0.0444-0.13652 0.0984-0.18415 0.0699 0.03493 0.15558 0.05397 0.23178 0.05397 0.31432 0 0.56515-0.20638 0.56515-0.53658 0-0.13018-0.054-0.24765-0.127-0.3175h0.3175v-0.20002h-0.53658c-0.0571-0.02223-0.13335-0.0381-0.21907-0.0381-0.31433 0-0.58103 0.21272-0.58103 0.54928 0 0.18415 0.0984 0.33338 0.20003 0.41592v0.0127c-0.0794 0.05398-0.16828 0.15558-0.16828 0.28575 0 0.12065 0.0603 0.2032 0.13653 0.25082v0.0127c-0.1397 0.09525-0.22543 0.21908-0.22543 0.34925zm0.63818-0.95885c-0.1778 0-0.32703-0.14288-0.32703-0.3683s0.14605-0.35878 0.32703-0.35878c0.18097 0 0.32702 0.13335 0.32702 0.35878s-0.14922 0.3683-0.32702 0.3683z"/>
    <path d="m115.84 67.032h0.26035v-0.9906c0.10478-0.26035 0.26035-0.3556 0.39053-0.3556 0.0635 0 0.0984 0.0095 0.14922 0.0254l0.0508-0.2286c-0.0508-0.02222-0.0984-0.03175-0.1651-0.03175-0.17462 0-0.33337 0.12382-0.43815 0.3175h-0.01l-0.0222-0.2794h-0.2159z"/>
    <path d="m116.8 66.264c0 0.51118 0.33655 0.80645 0.71438 0.80645 0.37782 0 0.71437-0.29528 0.71437-0.80645 0-0.51752-0.33655-0.8128-0.71437-0.8128-0.37783 0-0.71438 0.29528-0.71438 0.8128zm0.26988 0c0-0.3556 0.18097-0.5969 0.4445-0.5969 0.2667 0 0.4445 0.2413 0.4445 0.5969 0 0.35242-0.1778 0.59055-0.4445 0.59055-0.26353 0-0.4445-0.23812-0.4445-0.59055z"/>
    <path d="m118.62 66.467c0 0.3937 0.14605 0.60325 0.47307 0.60325 0.21273 0 0.36513-0.11112 0.508-0.2794h0.01l0.0222 0.2413h0.2159v-1.543h-0.26035v1.0954c-0.14605 0.18098-0.25717 0.26035-0.41592 0.26035-0.2032 0-0.28893-0.12382-0.28893-0.41275v-0.94298h-0.26352z"/>
    <path d="m120.62 66.893c0.14287 0.11112 0.28575 0.1778 0.42862 0.1778 0.35243 0 0.66675-0.30798 0.66675-0.83185 0-0.47942-0.21272-0.7874-0.6096-0.7874-0.18097 0-0.35242 0.09842-0.49212 0.2159h-0.01l-0.0222-0.1778h-0.2159v2.1939h0.26035v-0.5207zm6e-3 -0.2032v-0.80962c0.1524-0.13652 0.28257-0.20955 0.41275-0.20955 0.2921 0 0.4064 0.2286 0.4064 0.56832 0 0.381-0.18733 0.61278-0.44133 0.61278-0.1016 0-0.23812-0.04445-0.37782-0.16192z"/>
    <path d="m121.99 67.515 0.16193 0.0762c0.26352-0.42545 0.4191-0.88265 0.4191-1.4414s-0.15558-1.016-0.4191-1.4414l-0.16193 0.0762c0.24448 0.40322 0.36513 0.88265 0.36513 1.3652s-0.12065 0.96202-0.36513 1.3652z"/>
   </g>
  </g>
  <g fill="#47d58a" stroke-linecap="round" stroke-width=".26458" aria-label="Christmas">
   <path d="m130.76 48.528c0 0.67945 0.39052 1.0795 0.9144 1.0795 0.26352 0 0.4699-0.11112 0.63182-0.30162l-0.14922-0.16192c-0.13335 0.14922-0.2794 0.23178-0.47625 0.23178-0.39688 0-0.6477-0.3302-0.6477-0.85408 0-0.51752 0.26352-0.84138 0.6604-0.84138 0.17145 0 0.3048 0.0762 0.41592 0.19368l0.14923-0.16828c-0.12383-0.13652-0.32068-0.25718-0.56833-0.25718-0.5334 0-0.93027 0.40958-0.93027 1.0795z"/>
   <path d="m132.66 49.57h0.26035v-1.1176c0.15558-0.15558 0.26353-0.23812 0.42228-0.23812 0.2032 0 0.2921 0.12382 0.2921 0.41275v0.94298h0.26035v-0.9779c0-0.3937-0.14605-0.60325-0.4699-0.60325-0.21273 0-0.3683 0.1143-0.51435 0.254l0.01-0.3175v-0.61595h-0.26035z"/>
   <path d="m134.39 49.57h0.26035v-0.9906c0.10477-0.26035 0.26035-0.3556 0.39052-0.3556 0.0635 0 0.0984 0.0095 0.14923 0.0254l0.0508-0.2286c-0.0508-0.02222-0.0984-0.03175-0.1651-0.03175-0.17463 0-0.33338 0.12382-0.43815 0.3175h-0.01l-0.0222-0.2794h-0.2159z"/>
   <path d="m135.63 47.709c0.1016 0 0.18097-0.06985 0.18097-0.16828 0-0.1016-0.0794-0.16828-0.18097-0.16828-0.1016 0-0.18098 0.06667-0.18098 0.16828 0 0.09842 0.0794 0.16828 0.18098 0.16828zm-0.13335 1.8606h0.26035v-1.543h-0.26035z"/>
   <path d="m136.11 49.395c0.14605 0.12065 0.3556 0.21272 0.57468 0.21272 0.36512 0 0.56515-0.20955 0.56515-0.46038 0-0.2921-0.24765-0.38418-0.4699-0.46672-0.17463-0.06667-0.3429-0.12382-0.3429-0.2667 0-0.11748 0.0889-0.22225 0.28257-0.22225 0.13653 0 0.24765 0.05715 0.35243 0.13652l0.12382-0.1651c-0.11747-0.09525-0.28575-0.17462-0.47942-0.17462-0.33338 0-0.53023 0.1905-0.53023 0.43815 0 0.26035 0.2413 0.36512 0.46038 0.4445 0.16827 0.0635 0.35242 0.13335 0.35242 0.2921 0 0.13335-0.1016 0.2413-0.3048 0.2413-0.18415 0-0.32067-0.0762-0.45402-0.18415z"/>
   <path d="m137.66 49.094c0 0.3048 0.11112 0.51435 0.44132 0.51435 0.0952 0 0.20003-0.02857 0.28575-0.05715l-0.0508-0.19685c-0.0508 0.01905-0.12065 0.04127-0.17462 0.04127-0.1778 0-0.23813-0.10795-0.23813-0.29845v-0.85725h0.41593v-0.21272h-0.41593v-0.4318h-0.21907l-0.0317 0.4318-0.2413 0.01588v0.19685h0.2286z"/>
   <path d="m138.69 49.57h0.26035v-1.1176c0.14287-0.15875 0.27305-0.23812 0.38735-0.23812 0.19685 0 0.28892 0.12382 0.28892 0.41275v0.94298h0.26035v-1.1176c0.14288-0.15875 0.2667-0.23812 0.38735-0.23812 0.19368 0 0.28575 0.12382 0.28575 0.41275v0.94298h0.26035v-0.9779c0-0.3937-0.1524-0.60325-0.4699-0.60325-0.18732 0-0.34607 0.12065-0.508 0.29528-0.0635-0.18415-0.1905-0.29528-0.42545-0.29528-0.18415 0-0.34607 0.1143-0.47942 0.26035h-0.01l-0.0222-0.22225h-0.2159z"/>
   <path d="m141.24 49.17c0 0.27622 0.19367 0.43815 0.45402 0.43815 0.1905 0 0.36195-0.1016 0.51118-0.22225h6e-3l0.0222 0.18415h0.2159v-0.94615c0-0.38418-0.15875-0.635-0.53657-0.635-0.24765 0-0.46355 0.10795-0.60643 0.20002l0.10478 0.18098c0.12065-0.08255 0.2794-0.1651 0.46037-0.1651 0.25083 0 0.3175 0.1905 0.3175 0.38735-0.65722 0.07303-0.94932 0.2413-0.94932 0.57785zm0.25717-0.01905c0-0.19685 0.17463-0.32385 0.69215-0.38735v0.42862c-0.14922 0.13335-0.27305 0.20638-0.42227 0.20638-0.1524 0-0.26988-0.07303-0.26988-0.24765z"/>
   <path d="m142.77 49.395c0.14605 0.12065 0.3556 0.21272 0.57468 0.21272 0.36512 0 0.56515-0.20955 0.56515-0.46038 0-0.2921-0.24765-0.38418-0.4699-0.46672-0.17463-0.06667-0.3429-0.12382-0.3429-0.2667 0-0.11748 0.0889-0.22225 0.28257-0.22225 0.13653 0 0.24765 0.05715 0.35243 0.13652l0.12382-0.1651c-0.11747-0.09525-0.28575-0.17462-0.47942-0.17462-0.33338 0-0.53023 0.1905-0.53023 0.43815 0 0.26035 0.2413 0.36512 0.46038 0.4445 0.16827 0.0635 0.35242 0.13335 0.35242 0.2921 0 0.13335-0.1016 0.2413-0.3048 0.2413-0.18415 0-0.32067-0.0762-0.45402-0.18415z"/>
  </g>
  <circle cx="149.83" cy="52.294" r=".79375" fill="#e9e56f"/>
  <g fill="#e8eaec" stroke-linecap="round" stroke-width=".26458">
   <g aria-label="10.1.">
    <path d="m147.47 49.57h0.9525v-0.17992h-0.34925v-1.5081h-0.16669c-0.0926 0.05556-0.20373 0.0979-0.35719 0.12435v0.14023h0.30692v1.2435h-0.38629z"/>
    <path d="m149.23 49.602c0.33602 0 0.53975-0.31485 0.53975-0.88106s-0.20373-0.87048-0.53975-0.87048c-0.33867 0-0.54239 0.30427-0.54239 0.87048s0.20372 0.88106 0.54239 0.88106zm0-0.17462c-0.19844 0-0.33073-0.21167-0.33073-0.70644s0.13229-0.69585 0.33073-0.69585c0.19579 0 0.32808 0.20108 0.32808 0.69585s-0.13229 0.70644-0.32808 0.70644z"/>
    <path d="m150.06 49.437c0 0.09525 0.0714 0.16404 0.15875 0.16404 0.0847 0 0.1561-0.06879 0.1561-0.16404 0-0.10054-0.0714-0.16933-0.1561-0.16933-0.0873 0-0.15875 0.06879-0.15875 0.16933z"/>
    <path d="m150.75 49.57h0.9525v-0.17992h-0.34925v-1.5081h-0.16669c-0.0926 0.05556-0.20373 0.0979-0.35719 0.12435v0.14023h0.30692v1.2435h-0.38629z"/>
    <path d="m152.02 49.437c0 0.09525 0.0714 0.16404 0.15875 0.16404 0.0847 0 0.1561-0.06879 0.1561-0.16404 0-0.10054-0.0714-0.16933-0.1561-0.16933-0.0873 0-0.15875 0.06879-0.15875 0.16933z"/>
   </g>
   <g aria-label="Deadline">
    <path d="m150.99 67.032h0.5334c0.62865 0 0.97155-0.38735 0.97155-1.0509 0-0.6604-0.3429-1.0319-0.98425-1.0319h-0.5207zm0.2667-0.2159v-1.651h0.23495c0.48895 0 0.73025 0.2921 0.73025 0.81598 0 0.52705-0.2413 0.83502-0.73025 0.83502z"/>
    <path d="m152.8 66.264c0 0.50482 0.32702 0.80645 0.73977 0.80645 0.20955 0 0.37465-0.07303 0.508-0.15875l-0.0921-0.17145c-0.1143 0.07303-0.23813 0.12065-0.38418 0.12065-0.29527 0-0.4953-0.20955-0.51435-0.54292h1.0414c6e-3 -0.0381 0.01-0.0889 0.01-0.14288 0-0.44132-0.22225-0.7239-0.61595-0.7239-0.35243 0-0.69215 0.30798-0.69215 0.8128zm0.254-0.11748c0.0318-0.31115 0.2286-0.48895 0.4445-0.48895 0.2413 0 0.381 0.17462 0.381 0.48895z"/>
    <path d="m154.37 66.632c0 0.27622 0.19367 0.43815 0.45402 0.43815 0.1905 0 0.36195-0.1016 0.51118-0.22225h6e-3l0.0222 0.18415h0.2159v-0.94615c0-0.38418-0.15875-0.635-0.53657-0.635-0.24765 0-0.46355 0.10795-0.60643 0.20002l0.10478 0.18098c0.12065-0.08255 0.2794-0.1651 0.46037-0.1651 0.25083 0 0.3175 0.1905 0.3175 0.38735-0.65722 0.07303-0.94932 0.2413-0.94932 0.57785zm0.25717-0.01905c0-0.19685 0.17463-0.32385 0.69215-0.38735v0.42862c-0.14922 0.13335-0.27305 0.20638-0.42227 0.20638-0.1524 0-0.26988-0.07303-0.26988-0.24765z"/>
    <path d="m155.96 66.264c0 0.51435 0.25082 0.80645 0.63817 0.80645 0.18098 0 0.34608-0.1016 0.46673-0.21908h0.01l0.0222 0.18098h0.2159v-2.2606h-0.26353v0.59372l0.0127 0.26352c-0.13652-0.11112-0.254-0.1778-0.4318-0.1778-0.35242 0-0.66992 0.31115-0.66992 0.8128zm0.26987-0.0032c0-0.35242 0.19685-0.59055 0.4445-0.59055 0.127 0 0.24448 0.04445 0.37465 0.16192v0.80645c-0.127 0.14288-0.25082 0.21272-0.3937 0.21272-0.26987 0-0.42545-0.22225-0.42545-0.59055z"/>
    <path d="m157.83 66.721c0 0.22542 0.0794 0.34925 0.27623 0.34925 0.0699 0 0.1143-0.0095 0.14922-0.0254l-0.0349-0.19685c-0.0286 0.0063-0.0413 0.0063-0.0571 0.0063-0.0381 0-0.073-0.03175-0.073-0.1143v-1.9685h-0.26035z"/>
    <path d="m158.78 65.172c0.1016 0 0.18097-0.06985 0.18097-0.16828 0-0.1016-0.0794-0.16828-0.18097-0.16828-0.1016 0-0.18098 0.06668-0.18098 0.16828 0 0.09842 0.0794 0.16828 0.18098 0.16828zm-0.13335 1.8606h0.26035v-1.543h-0.26035z"/>
    <path d="m159.43 67.032h0.26035v-1.1176c0.15557-0.15558 0.26352-0.23812 0.42227-0.23812 0.2032 0 0.2921 0.12382 0.2921 0.41275v0.94298h0.26035v-0.9779c0-0.3937-0.14605-0.60325-0.4699-0.60325-0.21272 0-0.37147 0.1143-0.51752 0.26035h-0.01l-0.0222-0.22225h-0.2159z"/>
    <path d="m161.05 66.264c0 0.50482 0.32703 0.80645 0.73978 0.80645 0.20955 0 0.37465-0.07303 0.508-0.15875l-0.0921-0.17145c-0.1143 0.07303-0.23812 0.12065-0.38417 0.12065-0.29528 0-0.4953-0.20955-0.51435-0.54292h1.0414c6e-3 -0.0381 0.01-0.0889 0.01-0.14288 0-0.44132-0.22225-0.7239-0.61595-0.7239-0.35242 0-0.69215 0.30798-0.69215 0.8128zm0.254-0.11748c0.0317-0.31115 0.2286-0.48895 0.4445-0.48895 0.2413 0 0.381 0.17462 0.381 0.48895z"/>
   </g>
   <g aria-label="4.11.">
    <path d="m92.236 46.284 0.39423-0.57679c0.04763-0.08202 0.09525-0.1561 0.13758-0.23812h0.01058c-0.0053 0.08996-0.01323 0.23548-0.01323 0.32544v0.48948zm0.96573 0h-0.23019v-1.0477h-0.24342l-0.72231 1.0795v0.14288h0.75935v0.46567h0.20638v-0.46567h0.23019z"/>
    <path d="m93.445 46.792c0 0.09525 0.07144 0.16404 0.15875 0.16404 0.08467 0 0.1561-0.06879 0.1561-0.16404 0-0.10054-0.07144-0.16933-0.1561-0.16933-0.08731 0-0.15875 0.06879-0.15875 0.16933z"/>
    <path d="m94.138 46.924h0.9525v-0.17992h-0.34925v-1.5081h-0.16669c-0.0926 0.05556-0.20373 0.0979-0.35719 0.12435v0.14023h0.30692v1.2435h-0.38629z"/>
    <path d="m95.451 46.924h0.9525v-0.17992h-0.34925v-1.5081h-0.16669c-0.0926 0.05556-0.20373 0.0979-0.35719 0.12435v0.14023h0.30692v1.2435h-0.38629z"/>
    <path d="m96.726 46.792c0 0.09525 0.07144 0.16404 0.15875 0.16404 0.08467 0 0.1561-0.06879 0.1561-0.16404 0-0.10054-0.07144-0.16933-0.1561-0.16933-0.08731 0-0.15875 0.06879-0.15875 0.16933z"/>
   </g>
   <g aria-label="Exam">
    <path d="m158.13 49.57h1.2319v-0.22542h-0.9652v-0.75565h0.7874v-0.22542h-0.7874v-0.65405h0.93345v-0.22225h-1.2002z"/>
    <path d="m159.56 49.57h0.27305l0.20955-0.35878c0.0508-0.09525 0.1016-0.18732 0.15557-0.27622h0.0127c0.0572 0.0889 0.1143 0.18415 0.16828 0.27622l0.22542 0.35878h0.28258l-0.50165-0.77788 0.46672-0.76518h-0.27305l-0.18732 0.33972c-0.0476 0.08255-0.0952 0.17145-0.1397 0.25718h-0.0127c-0.054-0.08572-0.10478-0.17462-0.1524-0.25718l-0.20638-0.33972h-0.28257l0.46672 0.7366z"/>
    <path d="m161.08 49.17c0 0.27622 0.19368 0.43815 0.45403 0.43815 0.1905 0 0.36195-0.1016 0.51117-0.22225h6e-3l0.0222 0.18415h0.2159v-0.94615c0-0.38418-0.15875-0.635-0.53658-0.635-0.24765 0-0.46355 0.10795-0.60642 0.20002l0.10477 0.18098c0.12065-0.08255 0.2794-0.1651 0.46038-0.1651 0.25082 0 0.3175 0.1905 0.3175 0.38735-0.65723 0.07303-0.94933 0.2413-0.94933 0.57785zm0.25718-0.01905c0-0.19685 0.17462-0.32385 0.69215-0.38735v0.42862c-0.14923 0.13335-0.27305 0.20638-0.42228 0.20638-0.1524 0-0.26987-0.07303-0.26987-0.24765z"/>
    <path d="m162.78 49.57h0.26035v-1.1176c0.14287-0.15875 0.27305-0.23812 0.38735-0.23812 0.19685 0 0.28892 0.12382 0.28892 0.41275v0.94298h0.26035v-1.1176c0.14288-0.15875 0.2667-0.23812 0.38735-0.23812 0.19368 0 0.28575 0.12382 0.28575 0.41275v0.94298h0.26035v-0.9779c0-0.3937-0.1524-0.60325-0.4699-0.60325-0.18732 0-0.34607 0.12065-0.508 0.29528-0.0635-0.18415-0.1905-0.29528-0.42545-0.29528-0.18415 0-0.34607 0.1143-0.47942 0.26035h-0.01l-0.0222-0.22225h-0.2159z"/>
   </g>
  </g>
  <g>
   <circle cx="149.83" cy="52.294" r=".79375" fill="#e9e56f"/>
   <g fill="#e8eaec" stroke-linecap="round" stroke-width=".26458" aria-label="10.1.">
    <path d="m147.47 49.57h0.9525v-0.17992h-0.34925v-1.5081h-0.16669c-0.0926 0.05556-0.20373 0.0979-0.35719 0.12435v0.14023h0.30692v1.2435h-0.38629z"/>
    <path d="m149.23 49.602c0.33602 0 0.53975-0.31485 0.53975-0.88106s-0.20373-0.87048-0.53975-0.87048c-0.33867 0-0.54239 0.30427-0.54239 0.87048s0.20372 0.88106 0.54239 0.88106zm0-0.17462c-0.19844 0-0.33073-0.21167-0.33073-0.70644s0.13229-0.69585 0.33073-0.69585c0.19579 0 0.32808 0.20108 0.32808 0.69585s-0.13229 0.70644-0.32808 0.70644z"/>
    <path d="m150.06 49.437c0 0.09525 0.0714 0.16404 0.15875 0.16404 0.0847 0 0.1561-0.06879 0.1561-0.16404 0-0.10054-0.0714-0.16933-0.1561-0.16933-0.0873 0-0.15875 0.06879-0.15875 0.16933z"/>
    <path d="m150.75 49.57h0.9525v-0.17992h-0.34925v-1.5081h-0.16669c-0.0926 0.05556-0.20373 0.0979-0.35719 0.12435v0.14023h0.30692v1.2435h-0.38629z"/>
    <path d="m152.02 49.437c0 0.09525 0.0714 0.16404 0.15875 0.16404 0.0847 0 0.1561-0.06879 0.1561-0.16404 0-0.10054-0.0714-0.16933-0.1561-0.16933-0.0873 0-0.15875 0.06879-0.15875 0.16933z"/>
   </g>
   <circle cx="173.65" cy="52.294" r=".79375" fill="#6f8ce9"/>
   <g fill="#e8eaec" stroke-linecap="round" stroke-width=".26458" aria-label="13.2.">
    <path d="m171.28 49.57h0.9525v-0.17992h-0.34925v-1.5081h-0.16669c-0.0926 0.05556-0.20373 0.0979-0.35719 0.12435v0.14023h0.30692v1.2435h-0.38629z"/>
    <path d="m172.45 49.363c0.11377 0.12435 0.28575 0.23812 0.55562 0.23812 0.30957 0 0.55563-0.18256 0.55563-0.48154 0-0.23283-0.1614-0.381-0.36513-0.42862v-0.01058c0.18257-0.06879 0.30692-0.19844 0.30692-0.40217 0-0.27252-0.21167-0.42862-0.50535-0.42862-0.19844 0-0.35454 0.08996-0.48419 0.21167l0.11642 0.13758c0.10054-0.10054 0.2196-0.17198 0.35983-0.17198 0.17992 0 0.29104 0.10319 0.29104 0.26723 0 0.17727-0.11906 0.31485-0.47889 0.31485v0.16669c0.40216 0 0.53975 0.13494 0.53975 0.33602 0 0.18785-0.14553 0.30956-0.34925 0.30956-0.19844 0-0.33073-0.09525-0.43127-0.20108z"/>
    <path d="m173.87 49.437c0 0.09525 0.0714 0.16404 0.15875 0.16404 0.0847 0 0.1561-0.06879 0.1561-0.16404 0-0.10054-0.0714-0.16933-0.1561-0.16933-0.0873 0-0.15875 0.06879-0.15875 0.16933z"/>
    <path d="m174.46 49.57h1.0901v-0.18785h-0.48948c-0.0873 0-0.19049 0.0079-0.2831 0.01587 0.39952-0.41804 0.68792-0.73289 0.68792-1.0504 0-0.29898-0.19315-0.49742-0.50536-0.49742-0.2196 0-0.37041 0.10319-0.51064 0.25664l0.12435 0.12436c0.0979-0.11377 0.21961-0.20373 0.35984-0.20373 0.21431 0 0.32014 0.13758 0.32014 0.33073 0 0.27252-0.28575 0.57679-0.79375 1.0821z"/>
    <path d="m175.84 49.437c0 0.09525 0.0714 0.16404 0.15875 0.16404 0.0847 0 0.1561-0.06879 0.1561-0.16404 0-0.10054-0.0714-0.16933-0.1561-0.16933-0.0873 0-0.15875 0.06879-0.15875 0.16933z"/>
   </g>
   <circle cx="173.65" cy="52.294" r=".79375" fill="#6f8ce9"/>
  </g>
  <g fill="none" stroke="#6f8ce9" stroke-dasharray="0.264583, 0.264583" stroke-width=".26458">
   <path d="m73.104 53.617v13.494"/>
   <path d="m99.562 53.617v8.2021"/>
   <path d="m94.271 53.617v13.552-0.05874"/>
  </g>
  <g fill="#e8eaec" stroke-linecap="round" stroke-width=".26458" aria-label="Progress (1st group)">
   <path d="m100.72 61.741h0.2667v-0.8255h0.37465c0.45402 0 0.76835-0.20638 0.76835-0.64452 0-0.4572-0.30798-0.61278-0.76835-0.61278h-0.64135zm0.2667-1.0414v-0.82868h0.33972c0.35878 0 0.53975 0.09842 0.53975 0.40005 0 0.29528-0.17462 0.42862-0.53975 0.42862z"/>
   <path d="m102.51 61.741h0.26035v-0.9906c0.10477-0.26035 0.26035-0.3556 0.39052-0.3556 0.0635 0 0.0984 0.0095 0.14923 0.0254l0.0508-0.2286c-0.0508-0.02223-0.0984-0.03175-0.1651-0.03175-0.17463 0-0.33338 0.12382-0.43815 0.3175h-0.01l-0.0222-0.2794h-0.2159z"/>
   <path d="m103.47 60.972c0 0.51118 0.33655 0.80645 0.71437 0.80645 0.37783 0 0.71438-0.29528 0.71438-0.80645 0-0.51752-0.33655-0.8128-0.71438-0.8128-0.37782 0-0.71437 0.29528-0.71437 0.8128zm0.26987 0c0-0.3556 0.18098-0.5969 0.4445-0.5969 0.2667 0 0.4445 0.2413 0.4445 0.5969 0 0.35242-0.1778 0.59055-0.4445 0.59055-0.26352 0-0.4445-0.23812-0.4445-0.59055z"/>
   <path d="m105.42 62.001c0-0.0889 0.0476-0.18098 0.15875-0.26035 0.0667 0.01905 0.1397 0.0254 0.20002 0.0254h0.2667c0.20003 0 0.31115 0.04763 0.31115 0.1905 0 0.16192-0.19367 0.31432-0.48895 0.31432-0.2794 0-0.44767-0.10478-0.44767-0.26988zm-0.2286 0.03493c0 0.2667 0.26035 0.41592 0.63817 0.41592 0.47943 0 0.78105-0.24765 0.78105-0.5334 0-0.25718-0.18097-0.3683-0.53975-0.3683h-0.29845c-0.20955 0-0.27305-0.06985-0.27305-0.16828 0-0.08573 0.0444-0.13652 0.0984-0.18415 0.0699 0.03493 0.15557 0.05398 0.23177 0.05398 0.31433 0 0.56515-0.20638 0.56515-0.53658 0-0.13018-0.054-0.24765-0.127-0.3175h0.3175v-0.20002h-0.53657c-0.0571-0.02222-0.13335-0.0381-0.21908-0.0381-0.31432 0-0.58102 0.21272-0.58102 0.54928 0 0.18415 0.0984 0.33338 0.20002 0.41592v0.0127c-0.0794 0.05398-0.16827 0.15558-0.16827 0.28575 0 0.12065 0.0603 0.2032 0.13652 0.25082v0.0127c-0.1397 0.09525-0.22542 0.21908-0.22542 0.34925zm0.63817-0.95885c-0.1778 0-0.32702-0.14288-0.32702-0.3683s0.14605-0.35878 0.32702-0.35878c0.18098 0 0.32703 0.13335 0.32703 0.35878s-0.14923 0.3683-0.32703 0.3683z"/>
   <path d="m106.91 61.741h0.26035v-0.9906c0.10477-0.26035 0.26035-0.3556 0.39052-0.3556 0.0635 0 0.0984 0.0095 0.14923 0.0254l0.0508-0.2286c-0.0508-0.02223-0.0984-0.03175-0.1651-0.03175-0.17463 0-0.33338 0.12382-0.43815 0.3175h-0.01l-0.0222-0.2794h-0.2159z"/>
   <path d="m107.87 60.972c0 0.50482 0.32702 0.80645 0.73977 0.80645 0.20955 0 0.37465-0.07303 0.508-0.15875l-0.0921-0.17145c-0.1143 0.07303-0.23813 0.12065-0.38418 0.12065-0.29527 0-0.4953-0.20955-0.51435-0.54292h1.0414c6e-3 -0.0381 0.01-0.0889 0.01-0.14288 0-0.44132-0.22225-0.7239-0.61595-0.7239-0.35243 0-0.69215 0.30798-0.69215 0.8128zm0.254-0.11748c0.0318-0.31115 0.2286-0.48895 0.4445-0.48895 0.2413 0 0.381 0.17462 0.381 0.48895z"/>
   <path d="m109.39 61.566c0.14605 0.12065 0.3556 0.21272 0.57467 0.21272 0.36513 0 0.56515-0.20955 0.56515-0.46038 0-0.2921-0.24765-0.38418-0.4699-0.46672-0.17462-0.06667-0.3429-0.12382-0.3429-0.2667 0-0.11748 0.0889-0.22225 0.28258-0.22225 0.13652 0 0.24765 0.05715 0.35242 0.13652l0.12383-0.1651c-0.11748-0.09525-0.28575-0.17462-0.47943-0.17462-0.33337 0-0.53022 0.1905-0.53022 0.43815 0 0.26035 0.2413 0.36512 0.46037 0.4445 0.16828 0.0635 0.35243 0.13335 0.35243 0.2921 0 0.13335-0.1016 0.2413-0.3048 0.2413-0.18415 0-0.32068-0.0762-0.45403-0.18415z"/>
   <path d="m110.72 61.566c0.14605 0.12065 0.3556 0.21272 0.57467 0.21272 0.36513 0 0.56515-0.20955 0.56515-0.46038 0-0.2921-0.24765-0.38418-0.4699-0.46672-0.17462-0.06667-0.3429-0.12382-0.3429-0.2667 0-0.11748 0.0889-0.22225 0.28258-0.22225 0.13652 0 0.24765 0.05715 0.35242 0.13652l0.12383-0.1651c-0.11748-0.09525-0.28575-0.17462-0.47943-0.17462-0.33337 0-0.53022 0.1905-0.53022 0.43815 0 0.26035 0.2413 0.36512 0.46037 0.4445 0.16828 0.0635 0.35243 0.13335 0.35243 0.2921 0 0.13335-0.1016 0.2413-0.3048 0.2413-0.18415 0-0.32068-0.0762-0.45403-0.18415z"/>
   <path d="m113.28 62.299 0.16193-0.0762c-0.24448-0.40322-0.36513-0.88265-0.36513-1.3652s0.12065-0.96202 0.36513-1.3652l-0.16193-0.0762c-0.26352 0.42545-0.4191 0.88265-0.4191 1.4414s0.15558 1.016 0.4191 1.4414z"/>
   <path d="m113.82 61.741h1.143v-0.2159h-0.4191v-1.8098h-0.20003c-0.11112 0.06667-0.24447 0.11748-0.42862 0.14922v0.16828h0.3683v1.4922h-0.46355z"/>
   <path d="m115.23 61.566c0.14605 0.12065 0.3556 0.21272 0.57468 0.21272 0.36512 0 0.56515-0.20955 0.56515-0.46038 0-0.2921-0.24765-0.38418-0.4699-0.46672-0.17463-0.06667-0.3429-0.12382-0.3429-0.2667 0-0.11748 0.0889-0.22225 0.28257-0.22225 0.13653 0 0.24765 0.05715 0.35243 0.13652l0.12382-0.1651c-0.11747-0.09525-0.28575-0.17462-0.47942-0.17462-0.33338 0-0.53023 0.1905-0.53023 0.43815 0 0.26035 0.2413 0.36512 0.46038 0.4445 0.16827 0.0635 0.35242 0.13335 0.35242 0.2921 0 0.13335-0.1016 0.2413-0.3048 0.2413-0.18415 0-0.32067-0.0762-0.45402-0.18415z"/>
   <path d="m116.78 61.264c0 0.3048 0.11113 0.51435 0.44133 0.51435 0.0953 0 0.20002-0.02858 0.28575-0.05715l-0.0508-0.19685c-0.0508 0.01905-0.12065 0.04128-0.17463 0.04128-0.1778 0-0.23812-0.10795-0.23812-0.29845v-0.85725h0.41592v-0.21272h-0.41592v-0.4318h-0.21908l-0.0318 0.4318-0.2413 0.01588v0.19685h0.2286z"/>
   <path d="m118.56 62.001c0-0.0889 0.0476-0.18098 0.15875-0.26035 0.0667 0.01905 0.1397 0.0254 0.20003 0.0254h0.2667c0.20002 0 0.31115 0.04763 0.31115 0.1905 0 0.16192-0.19368 0.31432-0.48895 0.31432-0.2794 0-0.44768-0.10478-0.44768-0.26988zm-0.2286 0.03493c0 0.2667 0.26035 0.41592 0.63818 0.41592 0.47942 0 0.78105-0.24765 0.78105-0.5334 0-0.25718-0.18098-0.3683-0.53975-0.3683h-0.29845c-0.20955 0-0.27305-0.06985-0.27305-0.16828 0-0.08573 0.0444-0.13652 0.0984-0.18415 0.0699 0.03493 0.15558 0.05398 0.23178 0.05398 0.31432 0 0.56515-0.20638 0.56515-0.53658 0-0.13018-0.054-0.24765-0.127-0.3175h0.3175v-0.20002h-0.53658c-0.0571-0.02222-0.13335-0.0381-0.21907-0.0381-0.31433 0-0.58103 0.21272-0.58103 0.54928 0 0.18415 0.0984 0.33338 0.20003 0.41592v0.0127c-0.0794 0.05398-0.16828 0.15558-0.16828 0.28575 0 0.12065 0.0603 0.2032 0.13653 0.25082v0.0127c-0.1397 0.09525-0.22543 0.21908-0.22543 0.34925zm0.63818-0.95885c-0.1778 0-0.32703-0.14288-0.32703-0.3683s0.14605-0.35878 0.32703-0.35878c0.18097 0 0.32702 0.13335 0.32702 0.35878s-0.14922 0.3683-0.32702 0.3683z"/>
   <path d="m120.04 61.741h0.26035v-0.9906c0.10477-0.26035 0.26035-0.3556 0.39052-0.3556 0.0635 0 0.0984 0.0095 0.14923 0.0254l0.0508-0.2286c-0.0508-0.02223-0.0984-0.03175-0.1651-0.03175-0.17463 0-0.33338 0.12382-0.43815 0.3175h-0.01l-0.0222-0.2794h-0.2159z"/>
   <path d="m121 60.972c0 0.51118 0.33655 0.80645 0.71438 0.80645 0.37782 0 0.71437-0.29528 0.71437-0.80645 0-0.51752-0.33655-0.8128-0.71437-0.8128-0.37783 0-0.71438 0.29528-0.71438 0.8128zm0.26988 0c0-0.3556 0.18097-0.5969 0.4445-0.5969 0.2667 0 0.4445 0.2413 0.4445 0.5969 0 0.35242-0.1778 0.59055-0.4445 0.59055-0.26353 0-0.4445-0.23812-0.4445-0.59055z"/>
   <path d="m122.82 61.175c0 0.3937 0.14605 0.60325 0.47308 0.60325 0.21272 0 0.36512-0.11112 0.508-0.2794h0.01l0.0222 0.2413h0.2159v-1.543h-0.26035v1.0954c-0.14605 0.18098-0.25718 0.26035-0.41593 0.26035-0.2032 0-0.28892-0.12382-0.28892-0.41275v-0.94298h-0.26353z"/>
   <path d="m124.83 61.601c0.14288 0.11112 0.28575 0.1778 0.42863 0.1778 0.35242 0 0.66675-0.30798 0.66675-0.83185 0-0.47942-0.21273-0.7874-0.6096-0.7874-0.18098 0-0.35243 0.09842-0.49213 0.2159h-0.01l-0.0222-0.1778h-0.2159v2.1939h0.26035v-0.5207zm6e-3 -0.2032v-0.80962c0.1524-0.13652 0.28258-0.20955 0.41275-0.20955 0.2921 0 0.4064 0.2286 0.4064 0.56832 0 0.381-0.18732 0.61278-0.44132 0.61278-0.1016 0-0.23813-0.04445-0.37783-0.16192z"/>
   <path d="m126.19 62.223 0.16192 0.0762c0.26353-0.42545 0.4191-0.88265 0.4191-1.4414s-0.15557-1.016-0.4191-1.4414l-0.16192 0.0762c0.24447 0.40322 0.36512 0.88265 0.36512 1.3652s-0.12065 0.96202-0.36512 1.3652z"/>
  </g>
  <path d="m149.83 53.617v13.552-0.05874" fill="none" stroke="#6f8ce9" stroke-dasharray="0.264583, 0.264583" stroke-width=".26458"/>
  <g>
   <g fill="#e8eaec" stroke-linecap="round" stroke-width=".26458" aria-label="START">
    <path d="m47.653 53.004c0.18098 0.18732 0.43498 0.30798 0.72708 0.30798 0.43815 0 0.7112-0.26352 0.7112-0.59372 0-0.30798-0.18732-0.45085-0.42862-0.55562l-0.29845-0.127c-0.16192-0.06985-0.34608-0.14605-0.34608-0.34608 0-0.18732 0.15558-0.3048 0.39052-0.3048 0.1905 0 0.34608 0.0762 0.47308 0.19685l0.1397-0.17145c-0.14605-0.1524-0.36512-0.25718-0.61278-0.25718-0.37782 0-0.65722 0.23495-0.65722 0.55245 0 0.3048 0.2286 0.45402 0.42228 0.53658l0.29845 0.13018c0.19685 0.0889 0.34925 0.15558 0.34925 0.3683 0 0.2032-0.16192 0.33972-0.43498 0.33972-0.21908 0-0.42545-0.10478-0.57468-0.26035z"/>
    <path d="m49.856 53.274h0.26352v-1.8606h0.63182v-0.22225h-1.5272v0.22225h0.63182z"/>
    <path d="m51.244 52.426 0.1016-0.3175c0.07303-0.23178 0.1397-0.46038 0.20638-0.70168h0.0127c0.06668 0.2413 0.13335 0.4699 0.20638 0.70168l0.09842 0.3175zm0.89218 0.84772h0.2794l-0.70485-2.0828h-0.29845l-0.70485 2.0828h0.26988l0.20002-0.635h0.75882z"/>
    <path d="m52.955 51.404h0.34925c0.32385 0 0.50165 0.09842 0.50165 0.37148 0 0.26988-0.1778 0.40322-0.50165 0.40322h-0.34925zm1.1779 1.8701-0.53022-0.90805c0.28258-0.07303 0.46672-0.2667 0.46672-0.59055 0-0.4318-0.3048-0.5842-0.72707-0.5842h-0.65405v2.0828h0.2667v-0.87948h0.37465l0.50165 0.87948z"/>
    <path d="m54.891 53.274h0.26352v-1.8606h0.63182v-0.22225h-1.5272v0.22225h0.63182z"/>
   </g>
   <g fill="#e8eaec" stroke-linecap="round" stroke-width=".26458" aria-label="END">
    <path d="m177.45 53.274h1.2319v-0.22542h-0.9652v-0.75565h0.7874v-0.22542h-0.7874v-0.65405h0.93345v-0.22225h-1.2002z"/>
    <path d="m179.1 53.274h0.25083v-1.089c0-0.21908-0.019-0.44132-0.0317-0.65088h0.0127l0.22542 0.42862 0.75248 1.3113h0.27305v-2.0828h-0.25083v1.0763c0 0.21908 0.0222 0.45402 0.0349 0.66358h-0.0127l-0.22543-0.4318-0.75565-1.3081h-0.27305z"/>
    <path d="m181.14 53.274h0.5334c0.62865 0 0.97155-0.38735 0.97155-1.0509 0-0.6604-0.3429-1.0319-0.98425-1.0319h-0.5207zm0.2667-0.2159v-1.651h0.23495c0.48895 0 0.73025 0.2921 0.73025 0.81598 0 0.52705-0.2413 0.83502-0.73025 0.83502z"/>
   </g>
   <g transform="matrix(.0042365 0 0 .0043091 57.995 51.161)" fill="#6f8ce9" stroke-miterlimit="40" stroke-width="61.925">
    <g fill="#6f8ce9" stroke-miterlimit="40" stroke-width="61.924">
     <path d="m486.41 221.41-364.07-208.5c-52.938-30.318-95.852-5.44-95.852 55.563v415.65c0 61.004 42.914 85.882 95.852 55.563l364.07-208.49c52.938-30.317 52.938-79.473 0-109.79z" fill="#6f8ce9" stroke-miterlimit="40" stroke-width="61.924"/>
    </g>
   </g>
  </g>
 </g>
</svg>
