<?xml version="1.0" encoding="UTF-8" standalone="no"?>
<svg
   xmlns:dc="http://purl.org/dc/elements/1.1/"
   xmlns:cc="http://creativecommons.org/ns#"
   xmlns:rdf="http://www.w3.org/1999/02/22-rdf-syntax-ns#"
   xmlns:svg="http://www.w3.org/2000/svg"
   xmlns="http://www.w3.org/2000/svg"
   xmlns:sodipodi="http://sodipodi.sourceforge.net/DTD/sodipodi-0.dtd"
   xmlns:inkscape="http://www.inkscape.org/namespaces/inkscape"
   inkscape:version="1.0rc1 (09960d6f05, 2020-04-09)"
   sodipodi:docname="lecture07.svg"
   id="svg124"
   viewBox="0 0 71.721932 52.683434"
   version="1.1"
   height="199.11551"
   width="271.0744">
  <defs
     id="defs128" />
  <sodipodi:namedview
     inkscape:current-layer="svg124"
     inkscape:window-maximized="1"
     inkscape:window-y="-8"
     inkscape:window-x="-8"
     inkscape:cy="85.446338"
     inkscape:cx="8.7919562"
     inkscape:zoom="1.0212334"
     showgrid="false"
     id="namedview126"
     inkscape:window-height="1377"
     inkscape:window-width="2560"
     inkscape:pageshadow="2"
     inkscape:pageopacity="0"
     guidetolerance="10"
     gridtolerance="10"
     objecttolerance="10"
     borderopacity="1"
     bordercolor="#666666"
     pagecolor="#ffffff" />
  <metadata
     id="metadata2">
    <rdf:RDF>
      <cc:Work
         rdf:about="">
        <dc:format>image/svg+xml</dc:format>
        <dc:type
           rdf:resource="http://purl.org/dc/dcmitype/StillImage" />
        <dc:title />
      </cc:Work>
    </rdf:RDF>
  </metadata>
  <g
     id="g120"
     stroke-width="1.5563"
     stroke-linecap="round"
     stroke="#a6aeb8"
     fill="none"
     transform="matrix(0.20919,0,0,0.20943,37.153483,65.792047)">
    <path
       inkscape:connector-curvature="0"
       id="path56"
       d="m -176.83,-63.375 h 341.3 v -249.99 h -340.59 z" />
    <path
       inkscape:connector-curvature="0"
       id="path58"
       d="m -145.81,-86.101 h 279.24 v -204.54 h -278.67 z" />
    <path
       inkscape:connector-curvature="0"
       id="path60"
       d="M -114.78,-108.83 H 102.41 V -267.92 H -114.33 Z" />
    <path
       inkscape:connector-curvature="0"
       id="path62"
       d="M -83.752,-131.55 H 71.388 V -245.18 H -83.422 Z" />
    <path
       inkscape:connector-curvature="0"
       id="path64"
       d="m -52.725,-154.28 h 93.081 v -68.18 h -92.888 z" />
    <path
       inkscape:connector-curvature="0"
       id="path66"
       d="m -28.937,-171.71 h 45.503 v -33.33 h -45.409 z" />
    <path
       inkscape:connector-curvature="0"
       id="path68"
       d="m -6.1835,-188.37 -170.65,125" />
    <path
       inkscape:connector-curvature="0"
       id="path70"
       d="m -176.13,-313.37 169.94,125" />
    <path
       inkscape:connector-curvature="0"
       id="path72"
       d="m 164.47,-63.375 -170.65,-125" />
    <path
       inkscape:connector-curvature="0"
       id="path74"
       d="m 164.47,-313.37 -170.65,125" />
    <path
       inkscape:connector-curvature="0"
       id="path76"
       d="m -175.98,-206.55 170.65,18.181" />
    <path
       inkscape:connector-curvature="0"
       id="path78"
       d="m -175.98,-245.19 170.65,56.816" />
    <path
       inkscape:connector-curvature="0"
       id="path80"
       d="m -175.98,-279.28 170.65,90.906" />
    <path
       inkscape:connector-curvature="0"
       id="path82"
       d="M -175.98,-170.19 -5.33,-188.371" />
    <path
       inkscape:connector-curvature="0"
       id="path84"
       d="M -175.98,-131.55 -5.33,-188.366" />
    <path
       inkscape:connector-curvature="0"
       id="path86"
       d="M -175.98,-97.465 -5.33,-188.371" />
    <path
       inkscape:connector-curvature="0"
       id="path88"
       d="M 164.47,-206.55 -6.18,-188.369" />
    <path
       inkscape:connector-curvature="0"
       id="path90"
       d="M 164.47,-245.19 -6.18,-188.374" />
    <path
       inkscape:connector-curvature="0"
       id="path92"
       d="M 164.47,-279.28 -6.18,-188.374" />
    <path
       inkscape:connector-curvature="0"
       id="path94"
       d="M 164.47,-170.19 -6.18,-188.371" />
    <path
       inkscape:connector-curvature="0"
       id="path96"
       d="M 164.47,-131.55 -6.18,-188.366" />
    <path
       inkscape:connector-curvature="0"
       id="path98"
       d="M 164.47,-97.465 -6.18,-188.371" />
    <path
       inkscape:connector-curvature="0"
       id="path100"
       d="m -119.95,-63.375 114.62,-125" />
    <path
       inkscape:connector-curvature="0"
       id="path102"
       d="m -63.066,-63.375 56.883,-125" />
    <path
       inkscape:connector-curvature="0"
       id="path104"
       d="m -6.1835,-63.375 0.85325,-125" />
    <path
       inkscape:connector-curvature="0"
       id="path106"
       d="m 50.699,-63.375 -56.03,-125" />
    <path
       inkscape:connector-curvature="0"
       id="path108"
       d="m 107.58,-63.375 -112.91,-125" />
    <path
       inkscape:connector-curvature="0"
       id="path110"
       d="m 107.58,-313.37 -114.62,125" />
    <path
       inkscape:connector-curvature="0"
       id="path112"
       d="m 50.699,-313.37 -56.883,125" />
    <path
       inkscape:connector-curvature="0"
       id="path114"
       d="m -6.1835,-313.37 -0.8532,125" />
    <path
       inkscape:connector-curvature="0"
       id="path116"
       d="m -63.066,-313.37 56.03,125" />
    <path
       inkscape:connector-curvature="0"
       id="path118"
       d="m -119.95,-313.37 112.91,125" />
  </g>
  <circle
     r="2.8557999"
     id="ellipse122"
     stroke-width="0.055381"
     stroke-linecap="square"
     stroke-dashoffset="1.2"
     fill="#1d232d"
     cy="35.860481"
     cx="-26.342049"
     transform="rotate(-90)" />
</svg>
