<?xml version="1.0" encoding="UTF-8"?>
<svg width="540" height="210" version="1.1" viewBox="0 0 142.88 55.564" xmlns="http://www.w3.org/2000/svg" xmlns:cc="http://creativecommons.org/ns#" xmlns:dc="http://purl.org/dc/elements/1.1/" xmlns:rdf="http://www.w3.org/1999/02/22-rdf-syntax-ns#">
 <metadata>
  <rdf:RDF>
   <cc:Work rdf:about="">
    <dc:format>image/svg+xml</dc:format>
    <dc:type rdf:resource="http://purl.org/dc/dcmitype/StillImage"/>
   </cc:Work>
  </rdf:RDF>
 </metadata>
 <path d="m-3.3052e-4 42.334v-13.229h26.459v26.459h-26.459zm26.062 0v-12.832h-25.665l-0.0689 12.568c-0.0379 6.9123-0.0114 12.718 0.0588 12.901 0.10078 0.26294 2.8237 0.31879 12.901 0.26459l12.774-0.0687zm-20.77 12.278c-1.8302-0.33051-2.9311-0.75638-3.487-1.349l-0.61407-0.65453 0.73183-0.63021c0.40251-0.34662 1.236-0.77288 1.8521-0.94725 1.5371-0.435 5.6169-0.43534 7.1211-5.3e-4 1.2073 0.34889 2.3337 1.132 2.3337 1.6224 0 0.45154-1.1546 1.3246-2.1025 1.5898-1.0908 0.30514-4.867 0.54415-5.8351 0.36932zm5.4229-0.66347c0.63757-0.16054 1.3636-0.51774 1.6134-0.79376 0.42461-0.4692 0.4254-0.53368 0.012-0.99044-0.67101-0.74146-2.3768-1.1413-4.9019-1.1489-2.545-8e-3 -4.1732 0.3395-5.0957 1.0865-0.60092 0.4866-0.60468 0.51528-0.13543 1.0338 0.26545 0.29332 0.91927 0.64957 1.4529 0.79166 1.3506 0.35961 5.6592 0.37252 7.0546 0.0211zm5.9544-3.28v-3.0428h3.4396c2.1167 0 3.4396 0.10177 3.4396 0.26459 0 0.16169-1.2347 0.26459-3.175 0.26459h-3.175v2.7782c0 1.6757-0.10499 2.7782-0.26459 2.7782-0.16105 0-0.26458-1.1906-0.26458-3.0428zm-10.319-1.5875c-0.83117-0.85755-0.85458-0.92605-0.31649-0.92605 0.5209 0 0.58108-0.13701 0.58108-1.3229 0-1.2935 0.0176-1.3229 0.79376-1.3229 0.77612 0 0.79376 0.0294 0.79376 1.3229 0 1.1859 0.0602 1.3229 0.58108 1.3229 0.5381 0 0.51469 0.0685-0.31649 0.92605-0.49366 0.50933-0.96992 0.92606-1.0584 0.92606-0.0884 0-0.56469-0.41673-1.0584-0.92606zm3.1784-3.3138-1.1873-1.0422 1.0059-1.8679-0.61858-0.65845c-0.77132-0.82103-1.0555-0.83264-1.0555-0.0431 0 0.63541-0.98487 1.7659-1.5384 1.7659-0.46172 0-0.3892-0.23074 0.34779-1.1066 0.3638-0.43236 0.66146-1.0489 0.66146-1.3702 0-0.35586 0.55681-1.134 1.4251-1.9915 1.5244-1.5055 2.003-1.5949 2.9481-0.55053 0.6259 0.69162 0.31045 0.96795-0.49929 0.43739-0.59051-0.38692-0.67339-0.38337-1.0614 0.0454-0.39069 0.4317-0.33044 0.55415 0.83979 1.7068 0.69336 0.68295 1.3853 1.2417 1.5376 1.2417 0.15232 0 0.43624-0.29766 0.63094-0.66147 0.39765-0.743 0.79377-0.86978 0.79377-0.25405 0 0.54573-1.0108 2.503-1.2926 2.503-0.12294 0-0.55151-0.25799-0.95238-0.57332l-0.72886-0.57332-0.49158 0.63947c-0.66419 0.864-0.63249 1.0782 0.29041 1.9624 0.822 0.78753 1.0388 1.4636 0.46303 1.444-0.18191-6e-3 -0.86501-0.48028-1.518-1.0535zm6.6113-0.0197c0-0.30543-0.36978-0.90075-0.82174-1.3229-0.45196-0.4222-0.70067-0.76762-0.5527-0.76762 0.42877 0 1.639 1.578 1.639 2.137 0 0.27988-0.0595 0.50887-0.13229 0.50887-0.0728 0-0.1323-0.24989-0.1323-0.55531zm1.8882-0.59451c-0.0583-0.79071-0.84318-1.919-1.6777-2.412-0.93725-0.55365-0.82377-0.81912 0.15878-0.37144 0.89258 0.40669 1.8203 1.891 1.6702 2.6723-0.0851 0.44296-0.12463 0.47201-0.15125 0.11121zm3.1886-3.7422c-1.5231-1.9363-1.4802-8.8474 0.066-10.645 0.78955-0.9179 1.3478-0.67219 2.0799 0.9154 0.49573 1.0751 0.58109 1.7257 0.58183 4.435 7.9e-4 2.8585-0.0651 3.3069-0.6606 4.498-0.77018 1.5404-1.3165 1.7509-2.0672 0.79666zm1.8005-0.9951c1.3258-2.9977 0.68815-9.5913-0.92754-9.5913-1.7628 0-2.352 7.7078-0.77344 10.117 0.58903 0.89899 1.1472 0.72648 1.701-0.52573zm-16.95-0.88209c-0.43812-0.5279-0.0357-1.2648 0.75514-1.383 0.72256-0.10791 1.2967 0.86784 0.83675 1.4221-0.41591 0.50114-1.1587 0.4829-1.5919-0.0391zm23.037 2.8004v-13.229h26.459v26.459h-26.459zm26.062 0v-12.832h-25.665l-0.0646 12.568c-0.0355 6.9123-9e-3 12.718 0.0588 12.901 0.0974 0.26299 2.8176 0.31879 12.897 0.26459l12.774-0.0687zm-21.828 11.615c-1.4285-0.27967-2.4827-1.0066-2.5994-1.7925-0.0686-0.46222 0.16514-0.69077 1.1906-1.1641 1.1037-0.50941 1.7227-0.58895 4.5834-0.58895 2.8464 0 3.4825 0.0809 4.5641 0.58045 1.4549 0.67194 1.634 1.3334 0.58459 2.1589-1.2734 1.0016-5.322 1.3938-8.3234 0.80617zm6.8789-0.52657c2.011-0.68556 2.2188-1.5297 0.56323-2.2875-1.377-0.63027-6.9037-0.63688-8.3061-0.01-1.9432 0.86868-1.5014 1.9172 1.051 2.4946 1.7318 0.3917 5.2704 0.28745 6.6919-0.19715zm5.8209-3.2835v-3.0428h3.4396c2.1167 0 3.4396 0.10176 3.4396 0.26458 0 0.1617-1.2348 0.26459-3.175 0.26459h-3.175v2.7782c0 1.6757-0.105 2.7782-0.26459 2.7782-0.16105 0-0.26458-1.1906-0.26458-3.0428zm4.2787-8.7338c-0.52198-0.66359-1.2883-3.4731-1.0204-3.741 0.0713-0.0713 0.26506 0.50219 0.43065 1.2743 0.59237 2.7621 1.5689 3.3433 2.4126 1.436 1.3187-2.9811 0.66813-9.5503-0.94575-9.5503-0.33392 0-0.67035 0.31152-0.92249 0.85418-0.49452 1.0643-0.86046 1.1359-0.49848 0.0976 0.34629-0.99337 1.1588-1.721 1.6928-1.5161 0.23112 0.0887 0.68166 0.72822 1.0012 1.4212 0.49574 1.0751 0.58109 1.7257 0.58183 4.435 7.9e-4 2.8585-0.0651 3.3069-0.6606 4.498-0.77131 1.5426-1.3165 1.7509-2.0714 0.79132zm-7.7184-1.7174c0-0.15959 1.1024-0.26459 2.7782-0.26459s2.7782 0.105 2.7782 0.26459-1.1024 0.26458-2.7782 0.26458-2.7782-0.10499-2.7782-0.26458zm-11.51-0.52918c-0.0982-0.15888 0.24313-0.26459 0.85429-0.26459 0.74504 0 1.2633-0.20984 1.9339-0.783 0.83512-0.71383 1.0914-0.78388 2.9005-0.79278 1.564-8e-3 2.1781 0.10833 2.8987 0.54763 0.84336 0.51412 1.0232 0.53128 2.3166 0.22098 1.3669-0.32792 2.012-0.21783 1.514 0.25839-0.13582 0.12988-0.88368 0.4226-1.6619 0.65048-1.2506 0.36618-1.5021 0.36924-2.1654 0.0262-0.53949-0.27899-1.1891-0.34222-2.311-0.22496-1.0137 0.10595-1.7704 0.0509-2.1591-0.15719-0.50937-0.27261-0.68599-0.23812-1.1859 0.23153-0.62677 0.58882-2.6272 0.78464-2.9346 0.28726zm0.0113-1.3046c-0.28475-0.46074 0.4344-0.61204 0.86455-0.18188 0.39453 0.39452 0.38336 0.42818-0.14207 0.42818-0.31364 0-0.63875-0.11084-0.72248-0.2463zm9.2647 7e-3c-0.1278-0.20679 1.9316-1.0833 2.5453-1.0833 0.58828 0 0.0985 0.5193-0.84625 0.89733-1.2226 0.48918-1.4933 0.51881-1.699 0.18596zm4.4329 0.0688c0.189-0.189 3.6587-0.1449 3.8525 0.049 0.067 0.067-0.81082 0.12185-1.9508 0.12185s-1.9957-0.0769-1.9018-0.17082zm-12.234-0.46664c-0.49883-0.60107-0.10246-1.4793 0.66765-1.4793 0.74551 0 1.1121 0.66253 0.71523 1.2928-0.36599 0.58125-0.9859 0.66486-1.3829 0.18653zm15.788-1.6743-0.99375-1.0212 0.87406-0.84716c1.017-0.98572 1.2457-1.0441 1.2457-0.31801 0 0.45078 0.17639 0.52918 1.1906 0.52918 1.1466 0 1.1906 0.0294 1.1906 0.79376 0 0.76252-0.0461 0.79376-1.1722 0.79376-0.98011 0-1.1861 0.0894-1.2568 0.54538-0.0758 0.48923-0.18687 0.44024-1.0783-0.47577zm-5.4128-7.9e-4c0.84207-0.0527 2.1518-0.0522 2.9105 1e-3 0.75869 0.0533 0.0697 0.0964-1.531 0.0958-1.6008-5.3e-4 -2.2215-0.0442-1.3794-0.0968zm15.27 6.5459v-13.229h26.459v26.459h-26.459zm26.062 0v-12.833h-25.665l-0.0689 12.568c-0.0379 6.9123-0.0114 12.718 0.0588 12.901 0.10077 0.26294 2.8237 0.31879 12.901 0.26459l12.774-0.0687zm-18.826 9.1191c-0.0949-0.24722 0.31133-1.0006 1.0384-1.9261 1.172-1.4918 1.1867-1.5347 0.79068-2.306-0.22196-0.43223-0.43965-0.82775-0.48375-0.87892-0.0441-0.0512-1.2797 0.83076-2.7458 1.9598s-2.7277 1.9908-2.8036 1.9148c-0.10896-0.10896 1.647-1.5038 5.1316-4.0763 0.0515-0.038 0.0515-0.18688 0-0.33073s-0.96395 0.39732-2.0276 1.2026c-1.0636 0.80528-1.9895 1.4085-2.0574 1.3406-0.068-0.068 0.77442-0.79943 1.872-1.6255 1.843-1.3872 1.9722-1.5467 1.6908-2.0878-0.16756-0.32221-0.3454-0.63278-0.39519-0.69015-0.0498-0.0574-0.5091 0.18075-1.0207 0.52917-0.74201 0.50534-0.93054 0.80744-0.93199 1.4934-2e-3 0.91492-0.67031 1.2296-0.96738 0.45544-0.12896-0.33605-0.30952-0.28677-1.0674 0.29131-0.50171 0.38267-0.97097 0.63701-1.0428 0.56519-0.0718-0.0718 0.35018-0.47081 0.93779-0.88663 0.76272-0.53975 1.07-0.94787 1.074-1.4266 8e-3 -1.0007 2.4436-3.2572 4.1068-3.8054 0.72762-0.23983 1.5529-0.60994 1.8339-0.82246 0.50218-0.37977 0.50104-0.39697-0.0661-1.0007-0.65568-0.69793-0.76273-1.5062-0.19949-1.5062 0.20769 0 0.73952 0.43905 1.1818 0.97567l0.80424 0.97568 2.1916-1.6798c1.2054-0.92387 2.3405-1.7942 2.5224-1.9341 0.18191-0.1399 0.3283-0.15049 0.32532-0.0235-3e-3 0.12696-1.0241 0.99765-2.2692 1.9349s-2.4036 1.8902-2.5743 2.1178-0.81764 0.74318-1.4375 1.1457c-1.1025 0.71597-1.1178 0.74592-0.70552 1.3752l0.42152 0.64332 3.3004-2.5009c1.8152-1.3755 3.3531-2.5009 3.4175-2.5009 0.35407 0-0.17355 0.45841-3.0572 2.6562-3.1472 2.3986-3.7042 2.9001-3.2213 2.9001 0.19652 0 3.5254-2.4256 5.5358-4.0336 0.1819-0.14549 0.33073-0.15673 0.33073-0.025 0 0.13178-1.2474 1.1737-2.772 2.3154l-2.772 2.0758 2.6531 2.1582-0.076 2.1281c-0.074 2.0733-0.093 2.1281-0.73743 2.1281-0.63912 0-0.66147-0.0593-0.66147-1.756 0-1.8207-0.24734-2.2573-1.786-3.1526-0.59091-0.34385-0.58193-0.1982 0.0661 1.0721 0.29105 0.5705 0.52918 1.1454 0.52918 1.2775 0 0.13214-0.60958 1.0299-1.3546 1.995-1.3477 1.7457-2.1957 2.1992-2.522 1.3486zm-1.0341-11.355c-0.87746-1.3392 0.52378-2.7701 1.8571-1.8965 0.73121 0.47911 0.91972 1.6626 0.3548 2.2275-0.5556 0.55559-1.7479 0.37717-2.2119-0.33101zm14.171-0.14525c0-0.43657 0.11907-0.79376 0.26459-0.79376s0.26459 0.35719 0.26459 0.79376-0.11907 0.79376-0.26459 0.79376-0.26459-0.35719-0.26459-0.79376zm-2.7808-0.13175c0.20763-0.92542 0.27168-1.0137 0.64389-0.88801 0.16103 0.0544 0.0468 0.42671-0.27222 0.88747l-0.54964 0.79376zm5.3836-0.72816c-0.44883-0.95129-0.37484-1.5214 0.19747-1.5214 0.26785 0 0.37483 0.33982 0.37483 1.1906 0 0.65485-0.0375 1.1906-0.0833 1.1906s-0.26586-0.38696-0.48901-0.85991zm-4.006-0.47684c-0.0918-0.35101-0.26808-0.49482-0.46067-0.37579-0.17159 0.10604-0.41591 0.0287-0.54293-0.17182-0.30061-0.4746-0.29905-3.1676 2e-3 -3.6431 0.14049-0.22184 0.17704 0.32993 0.092 1.3891-0.12107 1.5083-0.0797 1.7571 0.29206 1.7571 0.36141 0 0.43311-0.31876 0.43311-1.9255 0-1.3145 0.1307-2.1121 0.41188-2.5136 0.97857-1.3971 2.4036-0.0785 1.5983 1.4788-0.44232 0.85535-0.57205 2.1665-0.21436 2.1665 0.11455 0 0.22778-0.25892 0.25162-0.57537 0.11401-1.5136 1.1917-2.7799 1.7134-2.0133 0.43755 0.64296 0.0872 3.3563-0.51053 3.954-0.64796 0.64795-1.1336 0.45309-1.1336-0.45489 0-1.0903-0.75033-0.78434-0.84394 0.34415-0.0939 1.1325-0.84028 1.5327-1.0884 0.58371zm0.60945-2.4998c0-0.3638-0.11906-0.66146-0.26459-0.66146-0.14552 0-0.26458 0.29766-0.26458 0.66146 0 0.36381 0.11906 0.66147 0.26458 0.66147 0.14553 0 0.26459-0.29766 0.26459-0.66147zm9.5251 6.2178v-13.229h26.459v26.459h-26.459zm26.062 0v-12.833h-25.665l-0.0689 12.568c-0.0379 6.9123-0.0114 12.718 0.0588 12.901 0.10077 0.26294 2.8237 0.31879 12.901 0.26459l12.774-0.0687zm-20.307 10.033c-0.39894-0.23236-0.46303-0.6952-0.46303-3.3438 0-1.6908-0.12851-3.812-0.28558-4.714s-0.24341-1.9833-0.19187-2.403c0.0822-0.6695 0.14836-0.58465 0.53952 0.69219 0.2452 0.80038 0.8078 2.0249 1.2502 2.7212 0.75664 1.1908 0.80441 1.4214 0.80441 3.8838 0 2.027-0.0938 2.7116-0.41578 3.0336-0.48195 0.48195-0.61046 0.49544-1.2379 0.13zm6.1516-4.1795c-2.4817-0.81595-4.6708-2.837-5.4042-4.9894-0.54259-1.5924-0.53084-4.1387 0.0267-5.7781 0.62724-1.8445 2.929-4.1061 4.8174-4.7333 2.0546-0.68244 5.1063-0.47648 6.6765 0.4506 1.4749 0.87082 2.6655 2.1265 3.4518 3.6402 0.51415 0.98992 0.61841 1.5921 0.61841 3.5719 0 2.0099-0.10181 2.5806-0.65276 3.6592-0.7507 1.4696-2.1334 2.8091-3.7672 3.6494-1.2288 0.63197-4.5324 0.93531-5.7667 0.5295zm4.9626-1.7638c0.49772-0.20796 0.8647-0.49306 0.8155-0.63354-0.0492-0.14049-1.6671-2.3222-3.5954-4.8483-1.9283-2.5261-3.6737-4.8223-3.8788-5.1027-0.36749-0.50258-0.38103-0.50235-0.95401 0.0159-1.1505 1.0405-1.7035 2.5092-1.6924 4.4945 0.0115 2.0599 0.4353 3.1443 1.7924 4.5867 1.924 2.0449 4.8107 2.6165 7.5127 1.4876zm-2.5694-2.4867c-0.87968-1.1556-1.5994-2.1676-1.5994-2.249 0-0.0814 0.27296-0.14792 0.60657-0.14792 0.44874 0 0.99709 0.52678 2.1075 2.0246 0.82552 1.1135 1.4385 2.1255 1.3622 2.249-0.34716 0.56171-0.99354 0.072-2.4769-1.8766zm-2.3527 0.48804c-1.2842-1.2147-1.3999-1.4173-1.2537-2.1966 0.22213-1.184-0.0743-1.3505-0.93556-0.5254-0.90355 0.86566-1.4708 0.69029-1.6988-0.52525-0.25393-1.3535 0.0798-2.4477 0.97677-3.2025 1.0568-0.88924 1.3618-0.84752 2.3223 0.31772 0.70981 0.86113 0.81302 1.19 0.81302 2.5908 0 1.5494 0.0404 1.6441 1.1774 2.76 0.96219 0.94433 1.1298 1.2446 0.91674 1.6426-0.3954 0.73882-0.7759 0.59743-2.3182-0.86138zm7.4744 8e-3c0.37549-0.44625 0.87413-1.4698 1.1081-2.2746 0.90648-3.1182-0.47704-6.2513-3.4636-7.8436-1.3864-0.73921-4.3483-0.78883-5.6394-0.0945-0.48223 0.25936-0.83943 0.57958-0.79376 0.7116 0.14482 0.41871 7.7482 10.299 7.931 10.306 0.0962 4e-3 0.48214-0.35838 0.85763-0.80462zm-1.9693-1.0865c-0.48465-0.6297-0.99277-1.2937-1.1291-1.4756-0.19222-0.25641 0.15359-0.33073 1.5389-0.33073h1.7868l-0.15844 0.97638c-0.0871 0.53701-0.38311 1.201-0.6577 1.4756-0.48927 0.48927-0.51685 0.47637-1.3804-0.64565zm-4.3597-6.0461c-1.1157-1.5198-0.96869-2.1104 0.5252-2.1104 1.4502 0 2.2066 1.5226 1.4545 2.9278-0.43533 0.81342-0.93356 0.60769-1.9797-0.81746zm16.012 5.0335v-13.229h26.459v26.459h-26.459zm26.062 0v-12.832h-25.665l-0.0689 12.568c-0.0379 6.9123-0.0114 12.718 0.0588 12.901 0.10078 0.26294 2.8237 0.31879 12.901 0.26459l12.774-0.0687zm-19.646 9.2924c-1.5554-0.53733-2.3906-1.1811-2.7492-2.1191-0.39677-1.0378-0.0269-0.96105 0.41021 0.0852 0.56842 1.3604 2.2663 2.095 4.8944 2.1176l1.9595 0.0168 0.0886-1.0427c0.0487-0.57346 0.17903-1.1307 0.28953-1.2384 0.26219-0.25547 10.946-5.2597 11.229-5.2597 0.11919 0 0.21671 0.51978 0.21671 1.1551v1.1551l-5.9825 2.8137c-6.6616 3.1332-7.4692 3.3138-10.356 2.3164zm4.5999-4.288c-0.0921-0.46044-0.16743-0.98292-0.16743-1.1611 0-0.17813 1.2204-0.89781 2.712-1.5993 1.4916-0.70147 4.1706-1.9636 5.9532-2.8047l3.2412-1.5294v2.5376l-5.5912 2.6205c-3.0752 1.4413-5.6788 2.6549-5.7858 2.697-0.10703 0.0421-0.26995-0.30024-0.36204-0.76069zm-0.0184-2.8269c-0.082-0.082-0.14904-0.60345-0.14904-1.1588 0-0.95213 0.0792-1.0499 1.3863-1.7123 1.6235-0.82267 10.306-4.8628 10.45-4.8628 0.0542 0 0.0623 0.55679 0.018 1.2373l-0.0806 1.2373-5.738 2.7042c-3.1559 1.4873-5.8051 2.6371-5.8871 2.5551zm-1.472-3.4716c1.307-0.15249 2.911-0.72984 6.6831-2.4056 2.7298-1.2127 4.9176-2.2506 4.8617-2.3065-0.0559-0.0559-0.86058 0.0216-1.7882 0.1721-0.92768 0.15053-1.9843 0.26073-2.3482 0.2449-0.3638-0.0158 0.70777-0.23785 2.3813-0.49336 2.7374-0.41794 3.4889-0.45939 3.153-0.17392-0.0606 0.0515-2.5511 1.1944-5.5343 2.5397-4.9141 2.2161-5.5982 2.4544-7.2762 2.5347l-1.8521 0.0886zm-3.3466-0.21214c-0.82719-0.16173-2.6047-1.773-2.3718-2.1499 0.10632-0.17203 0.57324-0.29494 1.0376-0.27313 0.8001 0.0376 0.80621 0.0454 0.11668 0.14987-0.40019 0.0606-0.72762 0.20062-0.72762 0.31111 0 0.4461 1.3352 1.4121 2.4192 1.7502 1.0791 0.33663 0.80064 0.46103-0.47404 0.21181zm1.9945-0.94129c-0.30108-0.57376-0.29388-0.57891 0.19889-0.14232 0.32271 0.28593 0.75165 0.39945 1.163 0.30779 0.51345-0.11442 0.56751-0.0851 0.25483 0.13826-0.63913 0.45652-1.2811 0.33592-1.6167-0.30373zm4.6343-0.95601c0.47052-0.52777 0.47488-0.59758 0.0656-1.0499-0.54545-0.60272-0.32357-0.84761 0.73128-0.80714l0.81581 0.0313-0.79376 0.17811c-0.78932 0.17712-0.79043 0.17995-0.19844 0.50718 0.81126 0.44843 0.74874 0.74756-0.26459 1.2659l-0.8599 0.43987zm-6.6582-0.29719c-0.4673-0.74826-0.40919-1.1726 0.23944-1.7485 0.56646-0.50296 0.56697-0.50269 0.23798 0.12361-0.18133 0.3452-0.26117 0.97029-0.17741 1.3891 0.18024 0.90119 0.13682 0.93533-0.30001 0.23585zm1.9112 0.15443c-0.35696-0.26101-0.50759-0.69185-0.50759-1.4518 0-1.2111 0.45936-1.8278 1.4442-1.939 0.5355-0.0605 0.65646 0.0381 0.63941 0.52093-0.0195 0.55161 0.0132 0.56448 0.44406 0.17459 0.98451-0.89097 2.1121 0.30294 1.7287 1.8304-0.27984 1.115-2.6568 1.6634-3.7488 0.86485zm6.8227-1.9279c0.25467-0.0666 0.67139-0.0666 0.92606 0 0.25466 0.0666 0.0463 0.121-0.46303 0.121s-0.71769-0.0544-0.46303-0.121zm-3.5587-2.2221 0.5936-0.68463-0.55412-0.70446c-0.30477-0.38744-0.42916-0.70445-0.27643-0.70445s0.47802 0.30574 0.72286 0.67942c0.43288 0.66066 0.42413 0.699-0.31717 1.3891-0.7576 0.70526-0.75865 0.70541-0.16874 0.025zm-127.74-21.409v-13.229h26.459v26.459h-26.459zm26.062 0v-12.832h-25.665l-0.0687 12.683c-0.054 9.9703 3e-3 12.729 0.26458 12.896 0.18333 0.11719 5.9889 0.18447 12.901 0.14951l12.568-0.06356zm-16.537 10.187c0-1.0597 0.0655-1.1901 0.59532-1.1861 0.73953 0.0057 1.786 1.0713 1.786 1.8187 0 0.48498-0.15587 0.55803-1.1906 0.55803h-1.1906zm3.9776 0.61054c0.0127-0.88291 0.88069-1.8012 1.7025-1.8012 0.6604 0 0.69577 0.06426 0.61906 1.1245-0.081 1.119-0.0868 1.1249-1.2058 1.2059-1.0236 0.07406-1.1237 0.02658-1.1157-0.52917zm-1.1894-0.19748c-0.0766-0.12392 0.0348-0.29212 0.24764-0.37377 0.21279-0.08165 0.44955-0.04707 0.52614 0.07684 0.0766 0.12392-0.0349 0.29212-0.24765 0.37377-0.21278 0.08165-0.44954 0.04707-0.52613-0.07684zm-0.84475-1.4828c-0.23068-0.60116 0.087-0.77413 0.55757-0.30357 0.51687 0.51687 0.51804 0.71187 4e-3 0.71187-0.22286 0-0.47569-0.18373-0.56187-0.40829zm1.4962 0.1761c0-0.33352 0.77669-0.93143 0.96514-0.74298 0.27095 0.27095-0.13341 0.97517-0.55995 0.97517-0.22285 0-0.40519-0.10449-0.40519-0.23219zm-2.6459-1.0751c0-0.63886 0.14714-0.70331 0.35702-0.15638 0.082 0.21362 0.0352 0.45878-0.10399 0.54479-0.13916 0.08601-0.25303-0.08877-0.25303-0.38841zm4.2334-0.01562c0-0.29105 0.11906-0.52917 0.26459-0.52917 0.14552 0 0.26458 0.23813 0.26458 0.52917s-0.11906 0.52918-0.26458 0.52918c-0.14553 0-0.26459-0.23813-0.26459-0.52918zm-3.175-0.66977c0-0.42149 0.70292-0.8322 0.96897-0.56616 0.15324 0.15324-0.53552 0.97134-0.81778 0.97134-0.0831 0-0.15119-0.18233-0.15119-0.40518zm1.905 0.08768c-0.43213-0.43212-0.39905-0.74084 0.0794-0.74084 0.21828 0 0.39688 0.04979 0.39688 0.11065 0 0.06086 0.0723 0.29899 0.1606 0.52917 0.18949 0.4938-0.18472 0.55315-0.63686 0.10102zm-3.7571-1.4023v-1.1906h1.1906c1.0597 0 1.1901 0.06547 1.1861 0.59532-6e-3 0.73953-1.0713 1.786-1.8187 1.786-0.48498 0-0.55803-0.15587-0.55803-1.1906zm4.4318 0.63942c-0.25467-0.27892-0.46303-0.81163-0.46303-1.1838 0-0.63247 0.0735-0.67136 1.1245-0.59532 1.119 0.08096 1.1249 0.08683 1.2058 1.2059 0.0781 1.0796 0.0517 1.1236-0.66147 1.1024-0.40855-0.01213-0.95119-0.25026-1.2058-0.52918zm-1.786-0.77171c0-0.14552 0.24516-0.26459 0.54479-0.26459 0.29964 0 0.47121 0.11906 0.38127 0.26459-0.0899 0.14552-0.3351 0.26459-0.54479 0.26459-0.2097 0-0.38127-0.11906-0.38127-0.26459zm-2.1167-4.1167c0-1.4424 0.0961-2.2052 0.26459-2.1011 0.14552 0.08994 0.26459 1.109 0.26459 2.2646 0 1.2243-0.11041 2.1011-0.26459 2.1011-0.15578 0-0.26459-0.93126-0.26459-2.2646zm4.8565 0.01562c-7.9e-4 -1.3097 0.0439-1.8789 0.0994-1.2648s0.0562 1.6857 1e-3 2.3813c-0.0547 0.69562-0.10007 0.19319-0.10088-1.1165zm-2.2988 1.808c-0.28098-0.28098-0.20402-2.2049 0.0882-2.2049 0.14552 0 0.26458 0.53579 0.26458 1.1906 0 1.2114-0.0402 1.3269-0.35278 1.0143zm-0.91825-4.1357c-0.9842-1.0154-1.0424-1.2442-0.31649-1.2442 0.45078 0 0.52918-0.17639 0.52918-1.1906 0-1.1465 0.0294-1.1906 0.79376-1.1906s0.79376 0.0441 0.79376 1.1906c0 1.0143 0.0784 1.1906 0.52917 1.1906 0.29105 0 0.52918 0.09571 0.52918 0.21268 0 0.22741-1.6545 1.904-1.879 1.904-0.0737 0-0.51449-0.39263-0.97961-0.8725zm-3.7616-7.6599 0.1268-2.9771 0.13778 2.7782 0.13779 2.7782 5.6711 0.15002 0.169-5.9709 0.0565 3.0094 0.0566 3.0094 1.4665-0.12161c0.80655-0.06689 1.528-0.0221 1.6031 0.09953 0.0752 0.12163-2.0433 0.22138-4.7077 0.22168l-4.8443 5.39e-4zm21.172 8.0032v-13.229h26.459v26.459h-26.459zm26.062 0v-12.832h-25.665l-0.0689 12.568c-0.0379 6.9123-0.0119 12.717 0.0577 12.898 0.0993 0.25923 2.8813 0.31629 12.901 0.26459l12.775-0.06591zm-11.917 11.625c-0.0957-0.1548-0.0914-1.2146 0.01-2.355l0.18356-2.0735-1.0526-1.0846c-0.57894-0.59655-1.2434-1.0846-1.4766-1.0846-0.25133 0-0.74035 0.62661-1.2007 1.5385-0.9809 1.9432-4.2613 4.7323-5.1602 4.3873-0.8768-0.33646-0.46411-1.3302 1.0317-2.4842 1.0953-0.84503 1.7842-1.7002 2.801-3.4769 0.74159-1.2959 1.8195-2.9523 2.3954-3.6808 1.0675-1.3505 1.1012-1.6389 0.24515-2.097-0.38208-0.20448-0.74525-0.06072-1.7127 0.67798-1.2717 0.97102-2.0704 1.0862-2.2179 0.31985-0.10477-0.54401 2.7475-2.8585 3.519-2.8555 1.4139 0.0055 8.8434 6.54 8.5246 7.4976-0.26619 0.79953-1.1278 0.41288-2.8184-1.2648l-1.7676-1.7541-1.7529 2.1813 2.2604 2.3032-0.17586 2.2878c-0.0967 1.2583-0.2976 2.5153-0.44639 2.7933-0.29571 0.55255-0.9134 0.66899-1.1884 0.22403zm2.2699-12.407c-0.68345-0.4323 0.41062-1.335 1.618-1.335 1.1769 0 1.3665 0.5192 0.4293 1.1756-0.65979 0.46213-1.4691 0.52514-2.0473 0.1594zm-1.537-1.192c-0.68785-0.57879-0.92881-0.65127-1.3737-0.41318-0.36234 0.19392-0.5395 0.19879-0.5395 0.01483 0-0.15064-0.23813-0.51202-0.52918-0.80307l-0.52917-0.52918h0.66147c0.40664 0 0.66146 0.15037 0.66146 0.39033 0 0.30275 0.14257 0.33613 0.63537 0.14877 0.49677-0.18887 0.737-0.12926 1.1013 0.27328 0.41769 0.46154 0.51157 0.47353 0.90684 0.11582 0.2425-0.21946 0.68641-0.39902 0.98645-0.39902 0.55116 0 0.86699-0.92698 0.90148-2.6459 0.0129-0.64086 0.38744-1.3229 0.72656-1.323 0.28988-3.2e-5 0.13828 2.0688-0.17966 2.4519-0.20809 0.25073-0.22849 0.63404-0.0642 1.2068 0.23616 0.82345 0.22398 0.83931-0.64481 0.83931-0.64847 0-1.0195 0.18393-1.386 0.68708l-0.5005 0.68708zm-0.3918-1.8098c-0.40018-0.15813-0.72761-0.43339-0.72761-0.61168 0-0.65772 0.33349-1.1612 0.76915-1.1612 0.24637 0 0.56106-0.10662 0.69931-0.23694 0.14517-0.13685 0.50544-0.13949 0.85284-0.0062 0.58231 0.22334 0.58864 0.26144 0.19844 1.1953-0.22167 0.53054-0.40304 1.0096-0.40304 1.0646 0 0.1682-0.62322 0.0588-1.3891-0.24383zm-3.2884-1.3448c-1.1708-0.41184-1.2374-0.53235-0.88475-1.601 0.41465-1.2564 1.1827-1.2681 1.7745-0.02701 0.30182 0.63292 0.36193 1.0727 0.19416 1.4203-0.21224 0.43974-0.34953 0.46605-1.0839 0.20773zm1.762-0.16657c-0.51142-0.31607-0.24834-0.50361 0.38428-0.27394 0.28139 0.10215 0.39477 0.25795 0.25196 0.34621-0.14281 0.08826-0.42912 0.05574-0.63624-0.07227zm0.92058-0.80758c-0.21064-0.34083-0.15905-0.39445 0.60576-0.62954 0.73675-0.22646 0.79872 0.25437 0.0822 0.63784-0.35794 0.19156-0.566 0.18906-0.68797-0.0083zm1.9166-0.16021c-0.18953-0.30667 0.25214-1.0601 0.48496-0.82729 0.094 0.09401 0.0574 0.37375-0.0813 0.62164-0.13872 0.24789-0.32038 0.34043-0.40367 0.20565zm-3.2354-0.6366c-0.0959-0.30201-0.10265-0.62075-0.0151-0.7083 0.20643-0.20644 0.93971 0.79134 0.77611 1.0561-0.22864 0.36994-0.5849 0.20714-0.76102-0.34776zm3.8916-0.47349c-0.61601-0.39062-1.0375-1.4854-0.80933-2.1022 0.2546-0.68826 0.25289-0.68804 1.4594-0.18394 0.68586 0.28657 0.90174 0.51187 0.78414 0.81834-0.0893 0.2326-0.23422 0.7095-0.32214 1.0598-0.16566 0.66006-0.5134 0.78766-1.112 0.40804zm-1.7403-0.45427c-0.22521-0.58689-0.208-0.63983 0.20797-0.63983 0.39911 0 0.75264 0.64271 0.49516 0.90019-0.27211 0.27211-0.53635 0.17426-0.70313-0.26036zm-3.0711-0.35963c0-0.13693 0.11906-0.32256 0.26459-0.4125 0.14552-0.08994 0.26458 0.0221 0.26458 0.24897 0 0.22687-0.11906 0.4125-0.26458 0.4125-0.14553 0-0.26459-0.11204-0.26459-0.24897zm1.3018-0.38708c0.41437-0.49928 1.1714-0.5676 1.0146-0.09156-0.0599 0.1819-0.39156 0.37194-0.737 0.42229-0.54837 0.07994-0.5836 0.03796-0.27761-0.33073zm-1.2922-0.6753c-0.3366-0.2129-0.32852-0.36796 0.0619-1.1866 0.49841-1.0452 0.55299-1.0654 1.7497-0.6482 0.69268 0.24147 0.81109 0.39388 0.66808 0.85991-0.0956 0.31153-0.1888 0.56642-0.2071 0.56642s-0.29956 0.14883-0.62501 0.33073c-0.69984 0.39116-1.1206 0.41102-1.6476 0.07773zm2.7685-0.27617c-0.0899-0.14552 0.0151-0.26459 0.23336-0.26459 0.21828 0 0.47046 0.11906 0.5604 0.26459 0.0899 0.14552-0.0151 0.26459-0.23336 0.26459-0.21828 0-0.47046-0.11906-0.5604-0.26459zm14.685 9.5251v-13.229h26.459v26.459h-26.459zm26.062 0v-12.832h-25.665l-0.0689 12.568c-0.0379 6.9123-0.0114 12.718 0.0588 12.901 0.10077 0.26294 2.8237 0.31878 12.901 0.26459l12.774-0.06869zm-15.826 9.8559c-0.0795-0.40019-0.0771-1.6801 5e-3 -2.8443 0.13943-1.9697 0.23273-2.2362 1.3432-3.8365 0.65636-0.9459 1.6168-2.1663 2.1342-2.712 0.84139-0.88732 1.0799-0.9922 2.2562-0.9922h1.3154l-0.5753 0.61237c-0.31642 0.33681-0.5753 0.93091-0.5753 1.3202 0 0.56339-0.29321 0.90254-1.4367 1.6618-2.1829 1.4494-2.7967 2.5026-2.7967 4.7989 0 2.2903-0.14572 2.7194-0.92352 2.7194-0.44565 0-0.6399-0.18926-0.74682-0.72762zm-4.6798-5.3724c0-0.29903 0.46884-1.2341 1.0419-2.0779 1.004-1.4785 1.0929-1.5403 2.4474-1.703 1.6494-0.19809 3.1254-0.22338 3.1254-0.05356 0 0.06591-0.13362 0.41311-0.29693 0.77154-0.2501 0.5489-0.54537 0.68053-1.872 0.83449-1.5353 0.17819-1.5951 0.21547-2.3716 1.4775-0.59828 0.97233-0.95564 1.2947-1.4354 1.2947-0.46807 0-0.63878-0.1453-0.63878-0.54369zm15.855-1.4815c-1.4489-1.382-1.908-2.3084-1.3972-2.8193 0.27159-0.27158 3.7987 2.9972 3.7987 3.5205 0 1.0404-0.82953 0.79818-2.4015-0.70123zm-3.0926-2.3954c-0.70165-0.13486-0.53213-0.60652 0.21798-0.60652 0.37013 0 0.51356-0.18303 0.51356-0.65537 0-0.42821 0.2522-0.81315 0.72761-1.1106 0.40019-0.25036 0.7777-0.4917 0.8389-0.53632 0.0612-0.04462-0.12944-0.34855-0.42366-0.6754-0.82759-0.91937-0.90257-1.1574-0.60836-1.9312 0.23081-0.60708 0.18965-0.77872-0.2627-1.0956-0.29501-0.20663-0.53638-0.65833-0.53638-1.0038 0-0.43404-0.17107-0.65418-0.55378-0.71261-0.53549-0.08176-0.53112-0.10574 0.13229-0.72599l0.68608-0.64144v0.81824c0 1.2698 0.2421 1.6271 1.2277 1.812 0.50161 0.0941 0.87397 0.24617 0.82746 0.33793-0.0465 0.09176-0.30464 0.59815-0.57361 1.1253l-0.48904 0.95847 1.9727 1.8078-1.0888 0.5189c-0.86462 0.41206-1.1448 0.7232-1.3605 1.5111-0.14942 0.54571-0.35639 0.97599-0.45992 0.95617-0.10354-0.01982-0.45791-0.08786-0.78749-0.15121zm2.1792-1.4125c-0.0973-0.15748 0.29511-0.45989 0.91044-0.7016 0.59483-0.23365 1.0815-0.50247 1.0815-0.59737 0-0.0949-0.41672-0.57646-0.92605-1.0701-0.50933-0.49366-0.92606-0.99328-0.92606-1.1103s0.41673-0.21268 0.92606-0.21268c1.2166 0 1.9844 0.76779 1.9844 1.9844 0 1.2098-0.76854 1.9844-1.9688 1.9844-0.50074 0-0.98742-0.12455-1.0815-0.27678zm-10.766-0.71236c0.76888-0.05362 1.9595-0.05305 2.6459 0.0012 0.68635 0.0543 0.0573 0.09817-1.398 0.09748-1.4552-6.88e-4 -2.0168-0.04512-1.2479-0.09874zm4.7969-0.14378c-1.2344-0.94777-1.3503-2.5617-0.26201-3.65 1.5845-1.5845 3.9618-0.57759 3.9808 1.686 0.0115 1.3763-0.91837 2.3062-2.2947 2.2947-0.55232-0.0046-1.1931-0.15346-1.424-0.33073zm2.6099-0.60191c1.2596-0.88228 0.38583-3.2923-1.1937-3.2923-0.78904 0-1.9225 1.1138-1.9225 1.8892 0 0.81758 1.0108 1.815 1.8394 1.815 0.37882 0 0.95339-0.18535 1.2768-0.41188zm-1.7827-0.76605c-0.46353-0.55852-0.22784-1.3227 0.43728-1.4178 0.8064-0.11534 1.2929 0.81728 0.72339 1.3868-0.51504 0.51505-0.75371 0.52144-1.1607 0.03109zm1.0478-0.52627c0-0.2097-0.095-0.43997-0.21107-0.51172-0.33848-0.2092-0.93272 0.27608-0.73326 0.59881 0.26252 0.42477 0.94433 0.36189 0.94433-0.0871zm-14.288-0.08176c-2.7e-4 -0.10914 1.5178-0.16744 3.3735-0.12954 6.2445 0.12752 6.8455 0.22401 1.7203 0.27616-2.8013 0.0285-5.0935-0.03748-5.0938-0.14662zm3.2162-2.3118c0.18329-0.18329 8.181-0.20436 8.3633-0.02204 0.083 0.08302-1.7938 0.15094-4.1706 0.15094-2.3769 0-4.2636-0.05801-4.1927-0.1289zm23.772 5.9498v-13.229h26.459v26.459h-26.459zm25.776 12.804c0.37358-0.14335 0.41853-1.521 0.41853-12.827v-12.667l-0.59533-0.14458c-0.32742-0.07952-6.1318-0.11155-12.899-0.07119l-12.303 0.07339-0.0689 12.568c-0.0379 6.9123-0.0119 12.717 0.0578 12.899 0.0989 0.25809 2.8552 0.33073 12.549 0.33073 6.8322 0 12.611-0.07227 12.841-0.1606zm-17.573-2.7417 0.66147-0.5092-2.0918-2.1449h3.7784l-0.11107-0.9922-0.11106-0.9922 0.22879 0.87074c0.12584 0.47891 0.41294 1.0742 0.63802 1.3229 0.39811 0.4399 0.44693 0.56157 0.44693 1.1137 0 0.49444 0.84259 0.26734 0.98169-0.26459 0.0761-0.29105 0.34874-0.52918 0.60584-0.52918s0.52973 0.23813 0.60584 0.52918c0.17053 0.65214 0.94632 0.69709 1.1416 0.06615 0.0788-0.25467 0.27094-0.6974 0.42692-0.98386 0.15599-0.28646 0.38556-0.82225 0.51016-1.1906 0.19687-0.58208 0.21004-0.55719 0.10056 0.1901l-0.12597 0.85991h3.7984l-1.0287 1.0535c-0.56579 0.57942-0.97691 1.0952-0.9136 1.1461 0.0633 0.05093 0.40948 0.29124 0.76929 0.53403 0.62031 0.41857 0.35305 0.44113-5.1594 0.43556-5.7909-0.0059-5.8111-0.0079-5.1522-0.51509zm5.5563-0.66967c0-0.22049-0.23519-0.39688-0.52917-0.39688-0.29399 0-0.52918 0.17639-0.52918 0.39688 0 0.22049 0.23519 0.39688 0.52918 0.39688 0.29398 0 0.52917-0.17639 0.52917-0.39688zm-3.7528-0.99446c0.0809-0.70076 0.0411-0.72535-1.174-0.72535h-1.2577l0.76845 0.80209c0.91299 0.95296 1.5478 0.92367 1.6633-0.07674zm8.1185 0.06841 0.76047-0.79376h-1.2401c-1.1228 0-1.2401 0.05841-1.2401 0.61737 0 1.2225 0.65336 1.2895 1.7198 0.17639zm-5.5058-4.4452c-0.809-0.84442-0.88464-1.1111-0.31513-1.1111 0.27719 0 0.39688-0.27929 0.39688-0.92606 0-0.8114 0.0819-0.92606 0.66147-0.92606 0.57958 0 0.66147 0.11466 0.66147 0.92606 0 0.64677 0.11969 0.92606 0.39688 0.92606 0.5897 0 0.48481 0.34593-0.34634 1.1422l-0.74322 0.71205zm-0.34473-3.4871c-0.833-0.33657-1.6902-1.5629-1.6902-2.4181 0-0.80568 1.1616-2.2909 1.8521-2.3681 1.8798-0.2102 3.175 0.7376 3.175 2.3233 0 1.1821-0.36857 1.8317-1.3176 2.3225-0.86197 0.44574-1.2045 0.46954-2.0193 0.1403zm2.014-1.3282c0.29104-0.29105 0.52917-0.7673 0.52917-1.0583 0-0.70007-0.91278-1.5875-1.6328-1.5875-1.3319 0-2.0207 1.6786-1.1043 2.6912 0.57468 0.63501 1.5476 0.61505 2.208-0.04531zm-1.9423-0.64716c-0.27642-0.72033 0.10698-1.2395 0.8516-1.1531 0.54222 0.06288 0.69382 0.22499 0.69382 0.74193 0 0.51694-0.1516 0.67905-0.69382 0.74193-0.4395 0.05097-0.75165-0.07026-0.8516-0.33073zm1.2951-0.16966c0.27266-0.44118-0.34058-0.94709-0.70558-0.58209-0.30532 0.30531-0.11423 0.86973 0.29445 0.86973 0.12834 0 0.31335-0.12944 0.41113-0.28764zm1.2632-4.6072c1e-3 -1.0187 0.049-1.403 0.10628-0.85401 0.0573 0.54896 0.0563 1.3824-2e-3 1.8521-0.0585 0.4697-0.10533 0.02056-0.10416-0.9981zm-4.0556-0.26459c0-0.97015 0.11534-1.7198 0.26459-1.7198s0.26459 0.74966 0.26459 1.7198c0 0.97015-0.11534 1.7198-0.26459 1.7198s-0.26459-0.74966-0.26459-1.7198zm2.2121-1.1906c0-1.3825 0.0446-1.948 0.0991-1.2568s0.0545 1.8223 0 2.5136c-0.0545 0.69124-0.0991 0.12568-0.0991-1.2568zm16.044 7.673v-13.229h26.459v26.459h-26.459zm26.062 0v-12.832l-12.303-0.07339c-6.7668-0.04036-12.571-0.0083-12.899 0.07119l-0.59532 0.14458v12.673c0 9.8902 0.0726 12.703 0.33074 12.808 0.1819 0.07413 5.9863 0.11382 12.899 0.08819l12.568-0.04659zm-19.029 10.699c-0.70135-0.70134-0.38662-1.2487 1.0395-1.808 0.72647-0.28488 1.8411-0.73457 2.477-0.99931l1.1561-0.48134-0.11926-2.4483c-0.098-2.0121-0.25339-2.7164-0.87204-3.9525-0.61321-1.2253-0.69202-1.5774-0.42503-1.8991 0.28621-0.34486 0.45146-0.31052 1.3035 0.27083 0.9721 0.66328 1.7284 0.7112 3.3863 0.21453 0.50268-0.15059 0.57282-0.03955 0.70153 1.1107 0.12964 1.1586 0.29395 1.414 1.7585 2.7333 1.8732 1.6874 1.9413 2.0213 1.0756 5.2766-0.62125 2.3362-1.1032 2.836-1.9337 2.0055-0.34484-0.34485-0.33201-0.61775 0.10886-2.3151 0.27489-1.0583 0.50141-2.0433 0.5034-2.1888 2e-3 -0.14552-0.65602-0.62041-1.4622-1.0553-1.7988-0.97032-1.9621-0.81436-1.9679 1.8791l-4e-3 1.8822-2.8443 0.99944c-1.5644 0.5497-2.9778 1.049-3.1409 1.1096-0.16314 0.0606-0.49651-0.08971-0.74083-0.33402zm17.695-1.4566c-0.0961-0.15558-0.66502-0.24748-1.2642-0.20422-1.0256 0.07405-1.1037 0.02867-1.3343-0.77547-0.15904-0.55454-0.41166-0.85412-0.72024-0.85412-0.63476 0-0.87454-0.43287-0.35106-0.63374 0.81859-0.31412 1.1307-0.14718 1.4321 0.76604 0.27648 0.83776 0.39953 0.92606 1.2905 0.92606 0.92365 0 1.6199 0.36392 1.6199 0.84668 0 0.30857-0.46872 0.25896-0.67278-0.07121zm-22.346-0.19338c0-0.48268 0.69621-0.84668 1.6194-0.84668 0.87781 0 1.0032-0.08562 1.1581-0.79073 0.0955-0.4349 0.29035-0.86284 0.43294-0.95096 0.39277-0.24274 1.5975 0.1313 1.4084 0.43728-0.091 0.14718-0.37559 0.20088-0.63252 0.11933-0.35536-0.11279-0.52614 0.05874-0.71374 0.71685-0.21877 0.76746-0.36512 0.87458-1.2966 0.94894-0.57747 0.0461-1.1631 0.19494-1.3013 0.33073-0.30812 0.30266-0.6747 0.3218-0.6747 0.03524zm0-9.8426c0-0.14552 0.21585-0.26459 0.47967-0.26459s0.82189-0.35719 1.2402-0.79376 0.85197-0.79376 0.96381-0.79376c0.11183 0 0.64196 0.29766 1.1781 0.66147 0.55021 0.37338 1.3531 0.66147 1.8436 0.66147 0.54073 0 1.1657-0.24979 1.6549-0.66147 0.43237-0.36381 0.8708-0.66147 0.97431-0.66147s0.54195 0.29766 0.97431 0.66147c0.98501 0.82883 1.9485 0.8395 3.1315 0.03467 0.65785-0.44754 1.0218-0.96875 1.2725-1.8225 0.32043-1.0909 0.30304-1.2902-0.19844-2.2731-0.66324-1.3001-0.69077-1.7815-0.1145-2.0026 0.59148-0.22697 1.2099 0.39055 1.9293 1.9265l0.60268 1.2867-0.54263 1.2267c-0.35215 0.79608-0.7104 1.2298-1.0205 1.2355-0.41305 0.0076-0.39314 0.07942 0.14673 0.52918 0.89341 0.74428 2.1034 0.66738 2.999-0.1906l0.74209-0.71097 0.74842 0.71702c0.44131 0.4228 1.2284 0.80602 1.9183 0.9339l1.1698 0.21687-0.98794 0.2026c-0.77808 0.15956-1.1865 0.08547-1.9225-0.34878-0.93334-0.55068-0.9356-0.55072-1.7902-0.02964-1.0708 0.65288-1.8003 0.65912-3.0491 0.02606-0.96093-0.48715-1.0011-0.48715-1.9036 0-1.1502 0.62086-1.6982 0.61783-3.0968-0.01711-1.0904-0.49504-1.1243-0.49495-2.1065 0.0058-1.2646 0.64471-2.0999 0.64257-3.3773-0.0086-1.0077-0.51374-1.0228-0.51374-2.0298 0-1.1097 0.56613-1.8294 0.66567-1.8294 0.25301zm5.5731-2.1506c-0.5754-0.77827-0.59812-0.95603-0.38049-2.9766 0.22124-2.0541 0.26065-2.1489 0.89292-2.1489 0.64787 0 0.66147 0.04157 0.66147 2.0223 0 1.6108 0.10164 2.1347 0.49954 2.5748 0.40964 0.45306 0.43952 0.62483 0.16605 0.95435-0.5207 0.62739-1.1723 0.47654-1.8395-0.42586zm4.037-0.016c-0.31706-0.15329-0.71478-0.61259-0.88382-1.0207-0.40348-0.9741 0.12109-2.1252 1.1302-2.4801 2.2945-0.80694 3.9323 2.3082 1.7947 3.4136-0.89163 0.46108-1.2371 0.47584-2.041 0.08717zm-7.0599-3.7866c-0.0838-0.21828-0.36767-0.39688-0.6309-0.39688-0.79073 0-1.6547-0.77199-1.6547-1.4785 0-0.36012-0.1786-0.7233-0.39688-0.80707-0.21829-0.08376-0.39688-0.33268-0.39688-0.55314 0-0.7202 1.1736 0.29234 1.3241 1.1424 0.10768 0.60826 0.33323 0.81008 1.1667 1.0439 0.65757 0.18449 1.111 0.50009 1.2471 0.86805 0.15389 0.41603 0.1129 0.57817-0.14617 0.57817-0.19803 0-0.42858-0.1786-0.51235-0.39688zm14.913-1.0757c0-0.55599 0.65493-1.1379 1.4481-1.2867 0.69851-0.13104 0.93323-0.30818 0.93323-0.70429 0-0.64102 1.3655-2.0974 1.5231-1.6245 0.0588 0.17647-0.0812 0.50902-0.31119 0.739-0.22998 0.22998-0.41814 0.7527-0.41814 1.1616 0 0.66032-0.13313 0.77698-1.1906 1.0433-0.65486 0.16489-1.1906 0.41716-1.1906 0.56058s-0.17859 0.26078-0.39688 0.26078c-0.21828 0-0.39688-0.06736-0.39688-0.14969z" fill="#fbb227"/>
</svg>
