<?xml version="1.0" encoding="UTF-8" standalone="no"?>
<svg
   xmlns:dc="http://purl.org/dc/elements/1.1/"
   xmlns:cc="http://creativecommons.org/ns#"
   xmlns:rdf="http://www.w3.org/1999/02/22-rdf-syntax-ns#"
   xmlns:svg="http://www.w3.org/2000/svg"
   xmlns="http://www.w3.org/2000/svg"
   xmlns:sodipodi="http://sodipodi.sourceforge.net/DTD/sodipodi-0.dtd"
   xmlns:inkscape="http://www.inkscape.org/namespaces/inkscape"
   width="197.00121"
   height="167.16197"
   version="1.1"
   viewBox="0 0 52.123355 44.228934"
   id="svg84"
   sodipodi:docname="minitalk_adventures.svg"
   inkscape:version="1.0rc1 (09960d6f05, 2020-04-09)">
  <defs
     id="defs88" />
  <sodipodi:namedview
     inkscape:document-rotation="0"
     pagecolor="#ffffff"
     bordercolor="#666666"
     borderopacity="1"
     objecttolerance="10"
     gridtolerance="10"
     guidetolerance="10"
     inkscape:pageopacity="0"
     inkscape:pageshadow="2"
     inkscape:window-width="2560"
     inkscape:window-height="1377"
     id="namedview86"
     showgrid="false"
     inkscape:zoom="1.4442421"
     inkscape:cx="66.478353"
     inkscape:cy="127.43526"
     inkscape:window-x="-8"
     inkscape:window-y="-8"
     inkscape:window-maximized="1"
     inkscape:current-layer="svg84" />
  <metadata
     id="metadata2">
    <rdf:RDF>
      <cc:Work
         rdf:about="">
        <dc:format>image/svg+xml</dc:format>
        <dc:type
           rdf:resource="http://purl.org/dc/dcmitype/StillImage" />
        <dc:title />
      </cc:Work>
    </rdf:RDF>
  </metadata>
  <g
     id="g102"
     stroke-width="0.027538"
     stroke-miterlimit="40"
     fill="#ffffff"
     transform="matrix(7.2627001,0,0,7.2627001,-697.18571,-711.1977)" />
  <path
     style="fill:#6f8ce9;fill-opacity:1;stroke-width:0.109038"
     d="m 24.668519,44.095188 c -1.211859,-0.34066 -1.719187,-0.808603 -1.626908,-1.500609 l 0.05453,-0.408893 H 11.547532 -0.00107468 l 0.02819,-18.805226 c 0.02629,-17.5416494 0.04063,-18.8176974 0.213805,-18.9908444 0.232285,-0.232272 0.80535698,-0.240881 1.03075498,-0.0155 0.09357,0.09357 0.186239,0.334821 0.205922,0.536107 0.0197,0.201285 0.03894,8.3516704 0.04276,18.1119634 l 0.007,17.745989 10.4949397,-0.0033 c 6.094551,-0.0019 10.426321,-0.04354 10.331285,-0.09926 C 22.099617,40.516732 19.086824,39.709713 17.677344,39.413017 14.50186,38.744576 10.494187,38.307212 6.4886013,38.19197 4.2788613,38.12839 4.0704173,38.10538 3.8444223,37.900026 L 3.5990443,37.677109 V 19.154626 0.63215755 l 0.283959,-0.283954 0.283954,-0.283959 2.251185,0.07371 C 14.139711,0.39076155 20.275481,1.5086396 25.085609,3.5389766 l 1.206813,0.509393 0.72931,-0.335455 c 2.68348,-1.234307 6.66116,-2.300547 10.81535,-2.89911305 2.63411,-0.379546 7.114561,-0.714993 9.568091,-0.716357 1.64143,-8.25e-4 1.44476,-2.59802595 1.44476,19.07863545 v 18.64304 l -0.24533,0.153283 c -0.18146,0.113374 -0.87251,0.171321 -2.65422,0.222571 -4.1089,0.118189 -7.598621,0.501716 -11.074021,1.217052 -1.65904,0.341477 -3.99764,0.958016 -4.67197,1.231697 -0.18733,0.07603 2.95886,0.112798 10.058783,0.117548 l 10.331378,0.0069 V 22.734414 c 0,-17.3633484 0.007,-18.0429964 0.20108,-18.2820924 0.24391,-0.301217 0.81386,-0.334149 1.08531,-0.06271 0.17315,0.173147 0.18752,1.449196 0.2138,18.9908454 l 0.0282,18.805225 H 40.574342 29.025752 l 0.0556,0.414222 c 0.0757,0.564655 -0.3144,1.020904 -1.14396,1.337834 -0.81113,0.309885 -2.44632,0.388648 -3.268794,0.157446 z M 22.877007,30.823891 c 0.07196,-0.07197 0.130844,-0.267407 0.130844,-0.434316 0,-0.252555 -0.0869,-0.347446 -0.517932,-0.565579 -1.465495,-0.74164 -4.906413,-1.801886 -7.659945,-2.360253 -3.104766,-0.629589 -6.9107067,-1.081862 -7.3092307,-0.868577 -0.244709,0.130963 -0.294978,0.671934 -0.07811,0.840625 0.07497,0.05831 0.774172,0.164864 1.553797,0.236782 4.7352467,0.436814 9.6825107,1.607372 12.9632107,3.067188 0.537878,0.239341 0.743317,0.258181 0.917371,0.08413 z m 7.634835,-0.242377 c 3.23542,-1.384818 7.85377,-2.453346 12.559051,-2.905737 0.74963,-0.07207 1.44884,-0.17513 1.55379,-0.229011 0.26802,-0.137601 0.25232,-0.703933 -0.0236,-0.8516 -0.15015,-0.08036 -0.59946,-0.07998 -1.49927,0.0013 -4.046891,0.365423 -8.228861,1.254439 -11.535071,2.452166 -2.36912,0.858251 -2.74631,1.117594 -2.39819,1.648904 0.21931,0.334706 0.30825,0.327025 1.34329,-0.11599 z M 22.796943,24.51764 c 0.137277,-0.07347 0.210908,-0.228214 0.210908,-0.443249 0,-0.305259 -0.06304,-0.359499 -0.829251,-0.71351 -2.873182,-1.327492 -7.912149,-2.541107 -12.6232257,-3.040254 -1.985046,-0.210319 -2.249042,-0.165186 -2.249042,0.384507 0,0.43959 0.176497,0.501743 1.85365,0.652754 4.5629407,0.410845 9.5915467,1.599659 12.6598087,2.992905 0.687333,0.312105 0.701283,0.314487 0.977152,0.166847 z m 8.270169,-0.483042 c 3.38593,-1.341561 8.295402,-2.426215 12.385411,-2.736324 1.17933,-0.08942 1.36298,-0.169336 1.36298,-0.59314 0,-0.631028 -0.27795,-0.646852 -3.684077,-0.20974 -4.079204,0.52349 -7.503874,1.369168 -10.654454,2.630972 -0.99387,0.398046 -1.47201,0.713462 -1.47201,0.971036 0,0.105764 0.39851,0.533112 0.49714,0.533112 0.0335,0 0.7378,-0.268162 1.56501,-0.595916 z m -8.270169,-5.841181 c 0.301988,-0.161619 0.28125,-0.709782 -0.03441,-0.910042 -0.484564,-0.3074 -2.879241,-1.18568 -4.50528,-1.652372 -2.841739,-0.815613 -6.540208,-1.480421 -9.7234297,-1.747808 -1.0183,-0.08554 -1.227474,0.0019 -1.227474,0.513405 0,0.423103 0.186578,0.485201 1.908172,0.635096 4.1158327,0.358353 8.6357217,1.381756 11.7761397,2.66638 1.638093,0.670082 1.533422,0.641379 1.806299,0.495341 z m 7.553359,-0.206328 c 2.98302,-1.338392 7.7426,-2.472072 12.343541,-2.940111 1.02204,-0.103967 1.91752,-0.225659 1.98996,-0.270427 0.22553,-0.139387 0.15784,-0.701091 -0.1012,-0.839724 -0.47248,-0.252867 -4.897752,0.314568 -8.193741,1.050651 -3.89032,0.868815 -7.3839,2.186827 -7.3839,2.785701 0,0.126861 0.40771,0.533112 0.53502,0.533112 0.0544,0 0.41903,-0.143641 0.81032,-0.319202 z m -7.361833,-6.48679 c 0.01933,-0.162077 -0.02164,-0.363095 -0.09102,-0.446703 -0.157923,-0.190287 -2.528879,-1.1231664 -3.978532,-1.5653944 -3.08011,-0.939621 -7.032198,-1.679217 -10.3295777,-1.933084 -1.072472,-0.08257 -1.283005,0.0012 -1.283005,0.511083 0,0.37285 0.254892,0.535678 0.838548,0.535678 0.653787,0 3.0872537,0.300047 4.9404837,0.60916 2.94172,0.490672 6.425201,1.4655534 8.662185,2.4241804 0.862882,0.369776 1.184915,0.334763 1.24092,-0.13492 z m 7.728683,0.0025 c 2.42925,-0.988802 5.38796,-1.8026114 8.35122,-2.2970364 1.825084,-0.304527 4.258601,-0.603935 4.908581,-0.603935 0.58365,0 0.83855,-0.162828 0.83855,-0.535678 0,-0.509789 -0.21054,-0.593657 -1.28301,-0.511087 -4.416491,0.340034 -9.154511,1.379236 -12.809951,2.8096404 -1.25719,0.491953 -1.71758,0.785835 -1.71758,1.096382 0,0.08985 0.40177,0.520929 0.48551,0.520929 0.0272,0 0.57916,-0.215648 1.22668,-0.479215 z"
     id="path896"
     inkscape:connector-curvature="0"
     sodipodi:nodetypes="sscccsssscccsssscccccsscsscscssssscsssscccssssssssssssssssscsssssssssssssssssssssssssssssssssssssssssssssssssssssss" />
</svg>
