<?xml version="1.0" encoding="UTF-8" standalone="no"?>
<svg
   xmlns:dc="http://purl.org/dc/elements/1.1/"
   xmlns:cc="http://creativecommons.org/ns#"
   xmlns:rdf="http://www.w3.org/1999/02/22-rdf-syntax-ns#"
   xmlns:svg="http://www.w3.org/2000/svg"
   xmlns="http://www.w3.org/2000/svg"
   xmlns:sodipodi="http://sodipodi.sourceforge.net/DTD/sodipodi-0.dtd"
   xmlns:inkscape="http://www.inkscape.org/namespaces/inkscape"
   inkscape:version="1.0rc1 (09960d6f05, 2020-04-09)"
   sodipodi:docname="minitalk_speedrunning.svg"
   id="svg84"
   viewBox="0 0 119.0373 55.229917"
   version="1.1"
   height="208.73987"
   width="449.90375">
  <defs
     id="defs88" />
  <sodipodi:namedview
     inkscape:current-layer="svg84"
     inkscape:window-maximized="1"
     inkscape:window-y="-8"
     inkscape:window-x="-8"
     inkscape:cy="200.00529"
     inkscape:cx="237.49718"
     inkscape:zoom="1.0212334"
     showgrid="false"
     id="namedview86"
     inkscape:window-height="1377"
     inkscape:window-width="2560"
     inkscape:pageshadow="2"
     inkscape:pageopacity="0"
     guidetolerance="10"
     gridtolerance="10"
     objecttolerance="10"
     borderopacity="1"
     bordercolor="#666666"
     pagecolor="#ffffff"
     inkscape:document-rotation="0" />
  <metadata
     id="metadata2">
    <rdf:RDF>
      <cc:Work
         rdf:about="">
        <dc:format>image/svg+xml</dc:format>
        <dc:type
           rdf:resource="http://purl.org/dc/dcmitype/StillImage" />
        <dc:title />
      </cc:Work>
    </rdf:RDF>
  </metadata>
  <g
     transform="matrix(7.2627001,0,0,7.2627001,-664.03624,-703.62996)"
     fill="#ffffff"
     stroke-miterlimit="40"
     stroke-width="0.027538"
     id="g102" />
  <g
     id="g30"
     stroke-miterlimit="40"
     transform="matrix(4.4991615,0,0,4.4991615,-539.04563,-368.77017)"
     style="font-weight:bold;font-size:2.9879px;line-height:1.25;font-family:'Segoe UI';-inkscape-font-specification:'Segoe UI Bold';fill:#a0f1c6;fill-opacity:1;stroke:none;stroke-width:0.339122;stroke-linecap:square;stroke-miterlimit:40;stroke-dasharray:0.528399, 1.0568;stroke-dashoffset:1.2;stroke-opacity:1">
    <circle
       id="circle4"
       r="0"
       cy="82.565002"
       cx="140.85001"
       style="fill:#e9e56f;stroke:none;stroke-width:0.936682" />
    <circle
       id="circle6"
       r="0"
       cy="82.565002"
       cx="140.74001"
       style="fill:#a56b36;stroke:none;stroke-width:0.794332" />
    <circle
       id="circle8"
       r="0"
       cy="82.300003"
       cx="139.95"
       style="fill:#a56b36;stroke:none;stroke-width:0.794332" />
    <rect
       id="rect10-6"
       height="2.6458001"
       width="3.5278001"
       y="89.830002"
       x="129.50999"
       style="fill:#a0f1c6;stroke:none;stroke-width:1.14096" />
    <rect
       id="rect12-0"
       height="1.7639"
       width="4.4096999"
       y="88.066002"
       x="128.62"
       style="fill:#a0f1c6;stroke:none;stroke-width:1.15385" />
    <rect
       id="rect14-1"
       height="2.6458001"
       width="3.5278001"
       y="89.830002"
       x="-136.56"
       transform="scale(-1,1)"
       style="fill:#47d58a;stroke:none;stroke-width:1.14096" />
    <rect
       id="rect16-1"
       height="2.6458001"
       width="26.458"
       y="91.594002"
       x="119.81"
       style="fill:#a56b36;stroke:none;stroke-width:1.7114" />
    <rect
       id="rect18-6"
       height="1.7639"
       width="4.4096999"
       y="88.066002"
       x="-137.44"
       transform="scale(-1,1)"
       style="fill:#47d58a;stroke:none;stroke-width:1.15385" />
    <rect
       id="rect20-3"
       height="0.17639001"
       width="7.0556002"
       y="89.830002"
       x="-136.56"
       transform="scale(-1,1)"
       style="fill:#009244;stroke:none;stroke-width:0.416625" />
    <path
       id="path22-1"
       d="m 134.67,83.776 c 0,1.2321 -0.62869,1.8118 -1.7146,1.8118 -0.78912,0 -1.1431,-0.81119 -1.1431,-1.8118 0,-1.0007 0.35395,-1.8118 1.1431,-1.8118 1.0288,0 1.7146,0.57979 1.7146,1.8118"
       inkscape:connector-curvature="0"
       style="fill:#a56b36;stroke:none;stroke-width:0.624463" />
    <path
       id="path24-7"
       d="m 134.38,83.776 a 1.4288,1.8118 0 0 1 -1.4288,1.8118 1.4288,1.8118 0 0 1 -1.4288,-1.8118 1.4288,1.8118 0 0 1 1.4288,-1.8118 1.4288,1.8118 0 0 1 1.4288,1.8118 z"
       inkscape:connector-curvature="0"
       style="fill:#e9e56f;stroke:none;stroke-width:0.624463" />
    <path
       id="path26-6"
       d="m 134.09,83.776 a 1.2117,1.5365 0 0 1 -1.2117,1.5365 1.2117,1.5365 0 0 1 -1.2117,-1.5365 1.2117,1.5365 0 0 1 1.2117,-1.5365 1.2117,1.5365 0 0 1 1.2117,1.5365"
       inkscape:connector-curvature="0"
       style="fill:#a56b36;stroke:none;stroke-width:0.529555" />
    <path
       id="path28-8"
       d="m 252.9,339.13 -9.7702,-1.9403 -7.1372,6.9485 -1.1738,-9.8916 -8.8139,-4.6407 9.0447,-4.1731 1.6899,-9.8166 6.7638,7.3125 9.8583,-1.4263 -4.8645,8.6924 z"
       transform="matrix(0.055206,0.018758,-0.014792,0.070004,124.46,56.154)"
       inkscape:connector-curvature="0"
       style="fill:#e9e56f;stroke:none;stroke-width:9.70273" />
  </g>
</svg>
