<?xml version="1.0" encoding="UTF-8" standalone="no"?>
<svg
   xmlns:dc="http://purl.org/dc/elements/1.1/"
   xmlns:cc="http://creativecommons.org/ns#"
   xmlns:rdf="http://www.w3.org/1999/02/22-rdf-syntax-ns#"
   xmlns:svg="http://www.w3.org/2000/svg"
   xmlns="http://www.w3.org/2000/svg"
   xmlns:sodipodi="http://sodipodi.sourceforge.net/DTD/sodipodi-0.dtd"
   xmlns:inkscape="http://www.inkscape.org/namespaces/inkscape"
   width="345.70221"
   height="213.52722"
   version="1.1"
   viewBox="0 0 91.467252 56.496591"
   id="svg84"
   sodipodi:docname="minitalk_styles.svg"
   inkscape:version="1.0rc1 (09960d6f05, 2020-04-09)">
  <defs
     id="defs88" />
  <sodipodi:namedview
     inkscape:document-rotation="0"
     pagecolor="#ffffff"
     bordercolor="#666666"
     borderopacity="1"
     objecttolerance="10"
     gridtolerance="10"
     guidetolerance="10"
     inkscape:pageopacity="0"
     inkscape:pageshadow="2"
     inkscape:window-width="2560"
     inkscape:window-height="1377"
     id="namedview86"
     showgrid="false"
     inkscape:zoom="0.72212106"
     inkscape:cx="-231.16861"
     inkscape:cy="229.7035"
     inkscape:window-x="-8"
     inkscape:window-y="-8"
     inkscape:window-maximized="1"
     inkscape:current-layer="svg84" />
  <metadata
     id="metadata2">
    <rdf:RDF>
      <cc:Work
         rdf:about="">
        <dc:format>image/svg+xml</dc:format>
        <dc:type
           rdf:resource="http://purl.org/dc/dcmitype/StillImage" />
        <dc:title />
      </cc:Work>
    </rdf:RDF>
  </metadata>
  <path
     sodipodi:nodetypes="cssssssssssssscscsscscsssssssssssssssssssssssscssssssssssssssssssscsssscssssssssscscsscccsssssssssssssssss"
     style="fill:#fbb227;fill-opacity:1;stroke-width:0.124432"
     d="m 41.843843,54.032315 c -4.437167,-0.04506 -8.242178,-0.116832 -8.455599,-0.159537 -0.713618,-0.142724 4.65e-4,-0.267132 1.59124,-0.277247 1.731797,-0.01063 3.54632,-0.135958 3.546373,-0.244204 2.6e-5,-0.0412 -3.149676,-0.05822 -6.999334,-0.03775 -6.721715,0.03562 -8.194887,-0.008 -7.621547,-0.222419 0.364638,-0.136783 -1.441325,-0.219708 -9.57664,-0.439775 -3.966835,-0.107262 -7.2387863,-0.221475 -7.2710153,-0.253707 -0.290395,-0.290392 0.676498,-0.322105 8.6193133,-0.282763 7.974622,0.03948 8.408481,0.0303 8.342742,-0.176696 -0.03948,-0.124142 0.0013,-0.238967 0.09477,-0.266108 0.09025,-0.02619 1.124178,-0.109522 2.297574,-0.184951 1.173396,-0.0755 2.223302,-0.171699 2.333103,-0.213833 0.393068,-0.150831 0.185761,-0.278722 -0.691821,-0.426736 -0.684842,-0.115502 -1.413147,-0.118028 -3.141927,-0.01063 -2.925769,0.181402 -5.755001,0.182532 -5.86637,0.0027 -0.04639,-0.07496 0.008,-0.228999 0.121484,-0.342189 0.171938,-0.172005 0.619009,-0.218963 2.721146,-0.285793 2.880445,-0.09158 4.421842,-0.21887 4.517115,-0.373025 0.03655,-0.05915 -2.734372,-0.107262 -6.193992,-0.107527 -6.256501,-4.79e-4 -9.059815,-0.07948 -9.059815,-0.255143 0,-0.230567 0.915675,-0.366552 2.476105,-0.367735 2.533897,-0.0013 7.190107,-0.238714 7.575545,-0.385266 0.765522,-0.291056 -0.195238,-0.380308 -5.235291,-0.486334 C 6.9378117,48.045685 4.4312757,47.961789 4.4312757,47.849503 c 0,-0.146817 -0.101427,-0.14279 4.292927,-0.170091 3.8850983,-0.02406 4.5417893,-0.09397 4.5417893,-0.48321 0,-0.09703 -0.08852,-0.210404 -0.19682,-0.25194 -0.108326,-0.04147 -1.66211,-0.08002 -3.4530093,-0.08546 -3.295361,-0.01063 -5.217727,-0.105933 -5.380185,-0.268355 -0.04897,-0.04891 -0.0182,-0.174383 0.06837,-0.278695 0.128648,-0.155005 0.523912,-0.190892 2.164198,-0.196434 3.8412383,-0.01329 6.5032903,-0.267012 5.5967473,-0.534064 -0.126668,-0.03735 -2.1620903,-0.127997 -4.5231983,-0.201446 -4.882626,-0.151974 -5.635071,-0.208556 -5.565101,-0.418547 0.03654,-0.109655 3.41021,-0.161106 13.6221253,-0.207919 11.42285,-0.05237 14.16489,-0.1058 13.708329,-0.267198 -0.02858,-0.01063 -5.268707,-0.0521 -11.644857,-0.09331 -6.376164,-0.0412 -11.6359243,-0.117895 -11.6883773,-0.170396 -0.267985,-0.268062 0.38601,-0.334706 3.499249,-0.35657 5.6570263,-0.03974 7.6932633,-0.11444 7.5314803,-0.276303 -0.101813,-0.101813 -2.184159,-0.169546 -7.2603073,-0.236149 -3.914696,-0.0513 -7.337012,-0.135547 -7.605143,-0.187091 -0.268132,-0.05157 -0.510773,-0.163511 -0.539206,-0.248803 -0.04063,-0.122015 1.006956,-0.157743 4.904867,-0.167499 2.726113,-0.0066 5.0965463,-0.05197 5.2676473,-0.10035 l 0.311086,-0.08799 -0.311086,-0.09822 c -0.171101,-0.05396 -1.179005,-0.12268 -2.2397823,-0.152693 -1.06079,-0.0299 -2.110692,-0.0832 -2.333116,-0.118161 -0.424131,-0.06672 -0.545743,-0.344833 -0.207576,-0.474598 0.108245,-0.04147 2.432032,-0.0755 5.1639463,-0.0755 2.804311,0 4.967136,-0.04798 4.967136,-0.110319 0,-0.180658 -0.725155,-0.23591 -8.3992033,-0.640024 -4.037842,-0.212636 -7.481447,-0.415331 -7.652459,-0.450447 -0.30513301,-0.0626 -0.30629101,-0.06726 -0.06222,-0.24762 0.216179,-0.159723 1.315029,-0.172736 8.399058,-0.09942 6.4186393,0.06646 8.1198793,0.0521 8.0069543,-0.06765 -0.17021,-0.180498 -4.978966,-0.360012 -9.8943763,-0.369369 -3.088455,-0.0053 -3.587615,-0.04187 -3.587615,-0.258918 0,-0.05596 2.097064,-0.120022 4.660142,-0.142232 3.3609623,-0.02911 4.7009403,-0.08121 4.8064873,-0.186917 0.313054,-0.313346 -0.787798,-0.428849 -3.230262,-0.338893 -1.7788163,0.06553 -2.3641993,0.04998 -2.4350443,-0.06473 -0.05129,-0.08294 -0.06706,-0.177109 -0.03504,-0.209141 0.03203,-0.03203 1.843465,-0.109655 4.0254193,-0.17255 2.181939,-0.06287 3.992368,-0.116965 4.023178,-0.120154 0.03084,-0.0027 -0.01396,-0.07576 -0.09955,-0.161372 C 15.537363,37.89124 14.798863,37.837781 13.042011,37.813883 6.3656517,37.723103 0.43420769,37.53677 0.19808069,37.410395 c -0.640074,-0.342561 0.01816,-0.37684 5.64242101,-0.293888 3.160089,0.04665 6.0255883,0.04041 6.3677893,-0.01382 0.608669,-0.09636 0.614066,-0.101015 0.248856,-0.212809 -0.205313,-0.06287 -0.977307,-0.08002 -1.715528,-0.03815 -1.4358113,0.08148 -6.7885673,-0.14501 -7.3058433,-0.309079 -0.304131,-0.0965 -0.29996,-0.103674 0.186652,-0.322637 0.463767,-0.208676 1.198209,-0.226792 10.7634293,-0.26559 5.646131,-0.02286 10.343717,-0.06965 10.439057,-0.103939 0.0953,-0.03429 0.137819,-0.09783 0.09437,-0.141262 -0.04346,-0.04346 -0.01661,-0.154088 0.05968,-0.245932 0.109654,-0.13225 0.946112,-0.171991 4.011866,-0.190971 2.130302,-0.01329 3.509317,-0.04147 3.064478,-0.06287 -1.062492,-0.05117 -1.368767,-0.128661 -1.368767,-0.346176 0,-0.389639 0.916007,-0.445622 6.716452,-0.410453 4.216129,0.02552 5.715432,-0.0027 5.675744,-0.105667 -0.07789,-0.202708 1.329456,-0.315792 3.547667,-0.285062 l 1.87061,0.02592 0.31976,-0.449411 c 1.8313,8.547483 1.94268,13.932756 -6.972933,20.394158 z M 13.63928,50.855896 c -1.26936,-0.05556 -1.555406,-0.102477 -1.555406,-0.254744 0,-0.158686 0.270229,-0.182212 1.804023,-0.157012 0.992207,0.01635 1.880435,0.05902 1.973821,0.09477 0.260765,0.100084 -0.07403,0.441555 -0.402293,0.410294 -0.145607,-0.01382 -0.96468,-0.05582 -1.820145,-0.09331 z M 6.0177727,49.51423 c -0.410966,-0.03243 -0.591055,-0.101413 -0.591055,-0.226446 0,-0.150672 0.39345,-0.179834 2.426441,-0.179834 2.3434883,0 2.4264403,0.008 2.4264403,0.24887 0,0.238634 -0.0755,0.247952 -1.8353843,0.226446 -1.009464,-0.01196 -2.101358,-0.04346 -2.426442,-0.06898 z M 4.1201787,38.531181 c -0.224498,-0.363242 0.228221,-0.443177 1.661585,-0.293355 0.521983,0.0545 0.76485,0.133579 0.76485,0.248869 0,0.130389 -0.268272,0.168921 -1.174764,0.168921 -0.648958,0 -1.209191,-0.05569 -1.251671,-0.124408 z"
     id="path898"
     inkscape:connector-curvature="0" />
  <g
     id="g102"
     stroke-width="0.027538"
     stroke-miterlimit="40"
     fill="#ffffff"
     transform="matrix(7.2627001,0,0,7.2627001,-692.34234,-698.77266)" />
  <path
     inkscape:connector-curvature="0"
     id="path902"
     d="m 39.017816,35.484127 2.137458,-2.720402 8.03167,-4.631161 3.07665,14.832674 -4.40447,7.707809 -5.116948,3.756748 -2.169843,-0.680103 z"
     style="fill:#1d232d;fill-opacity:1;stroke:none;stroke-width:0.500006;stroke-miterlimit:40" />
  <path
     sodipodi:nodetypes="cssscssssscscccsscccscccsscccccccsccccsccccscccscccscccscccsccssssscsssscssscscssssccsssscsssssssssssscsssssssssscscsssssssscsssssssssssssssssssssssss"
     inkscape:connector-curvature="0"
     id="path896"
     d="m 37.882205,35.00339 c 0.03429,0.149622 0.248789,1.587917 0.476592,3.196209 0.227815,1.608293 0.430536,2.81218 0.4505,2.675305 0.01994,-0.136876 -0.16088,-1.64858 -0.401867,-3.359363 l -0.438153,-3.11048 0.678848,-0.678847 c 0.373357,-0.373371 0.719746,-0.63795 0.769735,-0.587961 0.04998,0.04998 0.778095,4.246952 1.618009,9.326588 0.839913,5.079635 1.555047,9.349755 1.589179,9.489169 0.04838,0.197644 -0.156174,0.438937 -0.929126,1.09592 -0.545149,0.463354 -0.990758,0.937234 -0.99024,1.053082 4.65e-4,0.140571 0.507614,0.488182 1.524304,1.045121 2.242257,1.228303 -0.679459,-1.511292 -1.684466,-0.77008 C 39.072176,48.276517 37.290988,32.543367 37.882205,35.00339 Z m 5.492933,21.493201 c 0.228759,-0.252777 0.228653,-0.262028 -0.0053,-0.43689 -0.13132,-0.09822 -0.757387,-0.437488 -1.391164,-0.753852 l -1.152359,-0.575201 c -0.354616,-0.550492 2.03148,1.059582 2.548637,1.765943 z m -2.988172,-3.219257 c -0.02233,-0.114439 -0.07177,-0.357088 -0.109787,-0.539221 l -0.06925,-0.331157 c 0,0 0.953264,-0.173533 0.179156,0.870378 z m -0.802112,-1.190821 v -0.642257 c 0,-0.353234 -0.03456,-0.894847 -0.07696,-1.203581 l -0.07696,-0.561325 c 0.448918,1.454019 0.834198,2.316129 0.153888,2.407163 z m -0.219442,-5.032531 -0.05689,-0.387406 v 0 c 0.577341,-0.329721 0.603951,4.384187 0.05689,0.387406 z m -0.342893,-1.615723 c -0.03004,-0.18297 -0.114041,-0.750289 -0.186785,-1.260694 -0.0727,-0.510419 -0.152001,-0.947827 -0.176205,-0.972031 0.407157,0.91517 0.598009,6.001504 0.36299,2.232725 z m -0.404592,-2.661202 -0.07922,-0.640023 c -0.0436,-0.351998 -0.112313,-0.8781 -0.152865,-1.16913 l -0.07364,-0.529106 c 0.226513,1.698236 0.585887,3.224613 0.305743,2.338259 z m 0.555423,0.308854 c -0.0315,-0.121085 -0.05941,-0.0521 -0.06194,0.153184 -0.0027,0.205313 0.02326,0.304361 0.05742,0.22012 0.03403,-0.08427 0.03615,-0.252232 0.0053,-0.373304 z m -0.933578,-3.082076 -0.07018,-0.607925 c -0.03855,-0.33436 -0.09277,-0.63048 -0.120288,-0.658033 0,0 0.336553,2.230027 0.190493,1.265958 z m 0.808692,2.208681 c -0.03123,-0.119756 -0.05689,-0.0218 -0.05689,0.217767 0,0.239525 0.02565,0.337523 0.05689,0.217754 0.03137,-0.119756 0.03137,-0.315752 0,-0.435521 z m -0.124408,-0.871029 c -0.03123,-0.119756 -0.05689,-0.0218 -0.05689,0.217767 0,0.239525 0.02565,0.337523 0.05689,0.217754 0.03137,-0.119756 0.03137,-0.315752 0,-0.435521 z m -1.123168,-3.23312 c 0.10899,-0.07191 0.111382,-0.402439 0.0093,-1.339779 -0.0743,-0.684377 -0.150872,-1.265067 -0.170091,-1.290428 0.334998,0.916114 0.378394,2.025047 0.160494,2.630207 z m 5.081456,17.201044 c -1.026565,-0.576038 -1.856803,-1.082854 -1.84496,-1.126278 0.03163,-0.115901 1.752425,-1.549371 1.859966,-1.549371 0.05037,0 0.924235,0.485204 1.941963,1.078242 1.486911,0.866431 1.818671,1.108282 1.688791,1.231148 -0.49837,0.471435 -1.642081,1.422864 -1.705311,1.418597 -0.0407,-0.0027 -0.913883,-0.476299 -1.940449,-1.052338 z m 2.292709,-1.96978 c -0.92903,-0.559318 -1.701119,-1.061522 -1.715753,-1.115991 -0.02047,-0.07616 2.849294,-2.551919 4.105834,-3.542186 0.1686,-0.132914 0.47453,0.004 1.9843,0.888082 0.98173,0.574842 1.79666,1.093501 1.81096,1.152569 0.0378,0.155948 -4.0302,3.587483 -4.28308,3.61299 -0.11723,0.01196 -0.97324,-0.436133 -1.902261,-0.995464 z m -2.139179,-1.919087 c -0.03535,-0.188207 -0.750675,-4.50062 -1.589698,-9.58314 l -1.525474,-9.240938 0.983089,-0.910092 c 1.804568,-1.670563 3.092442,-2.804511 3.135882,-2.761074 0.11165,0.111648 3.236471,19.416212 3.152211,19.473937 -0.10567,0.07244 -2.935411,2.475334 -3.551953,3.016243 -0.483052,0.423772 -0.525412,0.42413 -0.604057,0.0053 z m 6.9123,-2.17932 c -0.97288,-0.563651 -1.7669,-1.05283 -1.76448,-1.087042 0.008,-0.104072 2.13861,-1.806056 2.22848,-1.779659 0.0461,0.01356 0.90042,0.480725 1.89852,1.038209 l 1.81473,1.013606 -1.057,0.921603 c -0.58136,0.506883 -1.12324,0.920819 -1.20419,0.919848 -0.081,-9.3e-4 -0.94317,-0.462914 -1.91606,-1.026565 z m 2.57771,-1.918834 c -0.92392,-0.516506 -1.70518,-0.962594 -1.73612,-0.991317 -0.031,-0.02871 0.53612,-0.62418 1.26016,-1.323244 2.00874,-1.939436 2.66784,-3.148281 2.95137,-5.413079 0.53856,-4.301833 2.98236,-7.535006 7.02305,-9.291578 3.02528,-1.315137 8.30723,-5.892807 13.64601,-11.826459 0.85548,-0.950804 2.17523,-2.375608 2.9328,-3.166237 4.7412,-4.94809 8.81866,-9.5216928 11.52929,-12.9321478 0.68664,-0.863931 1.27712,-1.59877601 1.31219,-1.63300201 0.0351,-0.03429 0.0288,0.217754 -0.014,0.55995601 -0.16584,1.328375 -1.8255,4.107512 -4.25295,7.121615 -2.45846,3.0526218 -8.51735,9.5278738 -13.01486,13.9092168 -3.19961,3.116966 -6.59651,5.606429 -10.7006,7.842065 -0.84796,0.461905 -1.72829,1.013819 -1.9563,1.226469 -1.46172,1.363238 -2.70274,5.325408 -3.13234,10.000385 -0.15555,1.692694 -0.57186,3.083126 -1.22269,4.083601 -0.44627,0.686038 -2.60556,2.800576 -2.84026,2.78141 -0.0577,-0.0053 -0.86091,-0.431162 -1.78481,-0.947654 z m -6.40107,-9.137052 -1.602381,-9.719976 0.8598,-0.852753 c 0.47288,-0.469016 0.895001,-0.854574 0.938031,-0.856794 0.0431,-0.0027 0.25021,0.877861 0.46041,1.955758 0.21021,1.077897 0.63974,3.275693 0.95455,4.883986 0.3148,1.608292 0.96402,4.939969 1.4427,7.403739 0.47868,2.463771 0.89757,4.571131 0.93088,4.683019 0.0419,0.140557 -0.30434,0.515522 -1.12002,1.213217 -0.6493,0.555384 -1.19878,1.009779 -1.22107,1.009779 -0.0223,0 -0.7616,-4.373992 -1.6429,-9.719975 z m 2.38371,-2.19446 -1.95488,-9.799059 0.77743,-0.709697 c 0.94087,-0.858894 1.44558,-1.12168 2.29246,-1.1936 1.12211,-0.0953 1.74272,0.114705 4.38509,1.483818 0.62047,0.321494 0.98932,0.424463 1.65526,0.462091 1.54226,0.08719 2.38701,-0.434949 3.66517,-2.265263 2.63893,-3.77892 6.61891,-7.959442 10.68123,-11.219437 2.9303,-2.351551 5.40993,-4.2447598 7.83764,-5.9841058 2.29955,-1.647516 4.03313,-2.802663 5.81899,-3.877384 3.45746,-2.08067101 6.63787,-3.27114701 7.41837,-2.77681101 0.13306,0.08427 -0.0477,0.386144 -0.79981,1.33575201 -1.47344,1.860285 -3.37209,4.090233 -5.6513,6.637421 -2.14012,2.3917168 -2.86208,3.1720448 -6.10377,6.5971868 -1.06876,1.129229 -2.4665,2.641092 -3.10611,3.359681 -1.68017,1.88768 -6.02999,6.200106 -7.85205,7.784554 -2.21138,1.922994 -3.63125,2.900262 -5.77613,3.975581 -1.02657,0.514658 -2.24788,1.22191 -2.71402,1.571648 -1.52586,1.144833 -2.94277,3.047345 -3.62703,4.870056 -0.37873,1.008861 -0.50072,1.529753 -0.7548,3.222899 -0.30155,2.009668 -0.83192,2.983812 -2.636,4.841638 -0.79157,0.815165 -1.47559,1.482117 -1.52005,1.482117 -0.0444,0 -0.9605,-4.409586 -2.03569,-9.799086 z M 86.948134,4.1509962 c 1.12972,-0.536084 1.70932,-2.161337 0.77077,-2.161337 -0.6335,0 -1.7512,0.893957 -1.97839,1.582361 -0.24494,0.742169 0.30655,1.006562 1.20762,0.578976 z"
     style="fill:#e8eaec;fill-opacity:1;stroke-width:0.124432" />
</svg>
