<?xml version="1.0" encoding="UTF-8" standalone="no"?>
<svg
   xmlns:dc="http://purl.org/dc/elements/1.1/"
   xmlns:cc="http://creativecommons.org/ns#"
   xmlns:rdf="http://www.w3.org/1999/02/22-rdf-syntax-ns#"
   xmlns:svg="http://www.w3.org/2000/svg"
   xmlns="http://www.w3.org/2000/svg"
   xmlns:sodipodi="http://sodipodi.sourceforge.net/DTD/sodipodi-0.dtd"
   xmlns:inkscape="http://www.inkscape.org/namespaces/inkscape"
   width="449.90375"
   height="208.73987"
   version="1.1"
   viewBox="0 0 119.0373 55.229917"
   id="svg84"
   sodipodi:docname="tutorial_git.svg"
   inkscape:version="1.0rc1 (09960d6f05, 2020-04-09)">
  <defs
     id="defs88" />
  <sodipodi:namedview
     inkscape:document-rotation="0"
     pagecolor="#ffffff"
     bordercolor="#666666"
     borderopacity="1"
     objecttolerance="10"
     gridtolerance="10"
     guidetolerance="10"
     inkscape:pageopacity="0"
     inkscape:pageshadow="2"
     inkscape:window-width="1920"
     inkscape:window-height="1017"
     id="namedview86"
     showgrid="false"
     inkscape:zoom="2.0424668"
     inkscape:cx="218.9321"
     inkscape:cy="131.84234"
     inkscape:window-x="292"
     inkscape:window-y="1432"
     inkscape:window-maximized="1"
     inkscape:current-layer="svg84" />
  <metadata
     id="metadata2">
    <rdf:RDF>
      <cc:Work
         rdf:about="">
        <dc:format>image/svg+xml</dc:format>
        <dc:type
           rdf:resource="http://purl.org/dc/dcmitype/StillImage" />
        <dc:title />
      </cc:Work>
    </rdf:RDF>
  </metadata>
  <g
     id="g102"
     stroke-width="0.027538"
     stroke-miterlimit="40"
     fill="#ffffff"
     transform="matrix(7.2627001,0,0,7.2627001,-664.03624,-703.62996)" />
  <path
     inkscape:connector-curvature="0"
     id="path858"
     d="m 58.937864,49.935318 c -0.202489,-0.06919 -0.517269,-0.230103 -0.699512,-0.357584 -0.451785,-0.31603 -19.96664,-19.871204 -20.166023,-20.20769 -0.524952,-0.885926 -0.48665,-2.163469 0.08965,-2.990303 0.105721,-0.151681 3.208229,-3.290985 6.894459,-6.976231 l 6.702239,-6.700447 2.502385,2.503374 2.502382,2.503374 -0.109324,0.361459 c -0.13959,0.461532 -0.139339,1.448813 5.56e-4,1.909692 0.241935,0.797425 0.866291,1.575763 1.602152,1.997282 l 0.349755,0.200349 -0.0022,6.049305 -0.0022,6.049306 -0.449452,0.257495 c -0.551082,0.315717 -1.010866,0.840561 -1.327178,1.514965 -0.206365,0.439991 -0.24293,0.60637 -0.265842,1.209671 -0.03181,0.837658 0.11152,1.378466 0.534075,2.015071 1.16402,1.75367 3.661279,2.005578 5.147601,0.519257 1.546638,-1.546668 1.254293,-4.052777 -0.61591,-5.279621 l -0.257716,-0.169059 -0.01884,-5.979743 c -0.01036,-3.288858 0.0064,-5.979742 0.03726,-5.979742 0.03086,0 1.075817,1.020115 2.322137,2.266922 l 2.266039,2.266921 -0.11403,0.323196 c -0.139356,0.394974 -0.160818,1.392551 -0.03966,1.843551 0.243332,0.905807 0.955696,1.747062 1.82426,2.154328 2.041206,0.95711 4.369504,-0.271613 4.744794,-2.503991 0.242073,-1.43995 -0.559227,-2.939318 -1.909265,-3.572552 -0.424819,-0.199261 -0.600356,-0.237612 -1.199435,-0.262056 -0.385981,-0.01575 -0.833301,0.0077 -0.994044,0.05222 l -0.292257,0.08085 -2.45177,-2.447597 c -2.166858,-2.163168 -2.447055,-2.468988 -2.411182,-2.631678 0.101999,-0.462625 0.126033,-1.250836 0.04908,-1.609655 -0.215457,-1.004651 -0.905048,-1.888103 -1.830988,-2.345727 -0.500881,-0.247549 -0.623461,-0.276881 -1.264684,-0.302637 -0.390527,-0.01569 -0.841562,0.0079 -1.002304,0.05243 l -0.292258,0.08095 -2.540025,-2.539558 -2.540027,-2.539556 2.098229,-2.1013384 c 1.154026,-1.155737 2.247335,-2.196868 2.429575,-2.313624 0.805199,-0.51587 1.807937,-0.571743 2.712922,-0.151165 0.463447,0.215379 1.031697,0.769359 10.445784,10.1834464 9.41409,9.414088 9.968069,9.98234 10.183449,10.445785 0.420557,0.904938 0.364714,1.907565 -0.151099,2.712922 -0.281347,0.439274 -19.916911,20.051248 -20.234878,20.210569 -0.694514,0.347986 -1.586647,0.425816 -2.256666,0.196865 z"
     style="fill:#de4c36;fill-opacity:1;stroke-width:0.999998" />
</svg>
