<svg width="449.9" height="208.74" version="1.1" viewBox="0 0 119.04 55.23" xmlns="http://www.w3.org/2000/svg">
 <path d="m82.082 44.546v-1.7565c0-0.98215 0.79327-1.7754 1.7565-1.7754h12.371c0.98215 0 1.7754 0.79326 1.7754 1.7754v1.7565c0 0.98215-0.79328 1.7754-1.7754 1.7754h-12.371c-0.96326 0-1.7565-0.79326-1.7565-1.7754z" fill="#7b8694" stroke="#000" stroke-width=".22665px"/>
 <g fill="none" stroke="#000" stroke-width=".22665px">
  <path d="m82.082 44.546h15.903"/>
  <path d="m82.082 42.789h15.903"/>
  <path d="m82.554 45.736 0.69884-0.5855 0.58552 0.5855 0.60441-0.5855 0.5855 0.5855 0.58552-0.5855 0.58552 0.5855 0.58552-0.5855 0.58552 0.5855 0.60439-0.5855 0.58552 0.5855 0.58551-0.5855 0.58551 0.5855 0.58552-0.5855 0.60439 0.5855 0.58552-0.5855 0.58551 0.5855 0.58552-0.5855 0.58551 0.5855 0.58551-0.5855 0.6044 0.5855 0.58552-0.5855 0.58551 0.5855 0.58551-0.5855 0.58552 0.5855 0.60439-0.5855 0.33998 0.22662"/>
  <path d="m82.554 41.599 0.69884 0.58554 0.58552-0.58554 0.60441 0.58554 0.5855-0.58554 0.58552 0.58554 0.58552-0.58554 0.58552 0.58554 0.58552-0.58554 0.60439 0.58554 0.58552-0.58554 0.58551 0.58554 0.58551-0.58554 0.58552 0.58554 0.60439-0.58554 0.58552 0.58554 0.58551-0.58554 0.58552 0.58554 0.58551-0.58554 0.58551 0.58554 0.6044-0.58554 0.58552 0.58554 0.58551-0.58554 0.58551 0.58554 0.58552-0.58554 0.60439 0.58554 0.33998-0.22662"/>
  <path d="m97.985 43.375-0.58552 0.5855-0.60439-0.5855-0.58552 0.5855-0.58551-0.5855-0.58551 0.5855-0.58552-0.5855-0.6044 0.5855-0.58551-0.5855-0.58551 0.5855-0.58552-0.5855-0.58551 0.5855-0.58552-0.5855-0.60439 0.5855-0.58552-0.5855-0.58551 0.5855-0.58551-0.5855-0.58552 0.5855-0.60439-0.5855-0.58552 0.5855-0.58552-0.5855-0.58552 0.5855-0.58552-0.5855-0.5855 0.5855-0.60441-0.5855-0.58552 0.5855-0.58552-0.5855-0.58551 0.5855"/>
 </g>
 <path d="m82.082 12.116v-1.7755c0-0.98215 0.79327-1.7565 1.7565-1.7565h12.371c0.98215 0 1.7754 0.77439 1.7754 1.7565v1.7755c0 0.98212-0.79328 1.7754-1.7754 1.7754h-12.371c-0.96326 0-1.7565-0.7933-1.7565-1.7754z" fill="#7b8694" stroke="#000" stroke-width=".22665px"/>
 <g fill="none" stroke="#000" stroke-width=".22665px">
  <path d="m82.082 12.116h15.903"/>
  <path d="m82.082 10.34h15.903"/>
  <path d="m82.554 13.306 0.69884-0.60438 0.58552 0.60438 0.60441-0.60438 0.5855 0.60438 0.58552-0.60438 0.58552 0.60438 0.58552-0.60438 0.58552 0.60438 0.60439-0.60438 0.58552 0.60438 0.58551-0.60438 0.58551 0.60438 0.58552-0.60438 0.60439 0.60438 0.58552-0.60438 0.58551 0.60438 0.58552-0.60438 0.58551 0.60438 0.58551-0.60438 0.6044 0.60438 0.58552-0.60438 0.58551 0.60438 0.58551-0.60438 0.58552 0.60438 0.60439-0.60438 0.33998 0.24553"/>
  <path d="m82.554 9.1694 0.69884 0.5855 0.58552-0.5855 0.60441 0.5855 0.5855-0.5855 0.58552 0.5855 0.58552-0.5855 0.58552 0.5855 0.58552-0.5855 0.60439 0.5855 0.58552-0.5855 0.58551 0.5855 0.58551-0.5855 0.58552 0.5855 0.60439-0.5855 0.58552 0.5855 0.58551-0.5855 0.58552 0.5855 0.58551-0.5855 0.58551 0.5855 0.6044-0.5855 0.58552 0.5855 0.58551-0.5855 0.58551 0.5855 0.58552-0.5855 0.60439 0.5855 0.33998-0.22662"/>
  <path d="m97.985 10.945-0.58552 0.5855-0.60439-0.5855-0.58552 0.5855-0.58551-0.5855-0.58551 0.5855-0.58552-0.5855-0.6044 0.5855-0.58551-0.5855-0.58551 0.5855-0.58552-0.5855-0.58551 0.5855-0.58552-0.5855-0.60439 0.5855-0.58552-0.5855-0.58551 0.5855-0.58551-0.5855-0.58552 0.5855-0.60439-0.5855-0.58552 0.5855-0.58552-0.5855-0.58552 0.5855-0.58552-0.5855-0.5855 0.5855-0.60441-0.5855-0.58552 0.5855-0.58552-0.5855-0.58551 0.5855"/>
 </g>
 <g stroke="#000">
  <rect transform="rotate(-90)" x="-28.652" y="27.775" width="2.361" height="60.002" ry=".81453" fill="#fbb227" stroke-width=".31257" style="paint-order:normal"/>
  <g stroke-width=".22665px">
   <path d="m88.561 13.891v10.615l-2.3609 1.171v3.5509l2.3609 1.171v10.615h2.3609v-10.615l0.58552-0.5855v-4.7219l-0.58552-0.5855v-10.615z" fill="#fbb227"/>
   <path d="m28.729 42.393s-1.0577-1.1332-1.5299-1.7943c-0.07554-0.11345-0.07554-0.28335-0.0191-0.41552 0.69884-1.5299 2.9276-5.0996 2.9276-5.0996 0.43442-0.77438 1.0577-1.0577 1.7565-0.77438 0.52886 0.22662 0.54774 1.1521 0.2833 1.5299 0 0-1.6999 2.7954-2.3232 4.2119-0.03772 0.09454-0.0191 0.1888 0.0191 0.28335 0.11336 0.30226 0.56663 0.7933 0.56663 0.7933z" fill="#d2d6dc"/>
   <path d="m19.096 13.438 0.88771 1.5299c0.49108 0.84994 1.5677 1.1332 2.4176 0.64217l10.709-6.1951c0.84994-0.49108 1.1333-1.5677 0.64218-2.4176l-0.88771-1.5299c-0.47219-0.84994-1.5488-1.1332-2.3987-0.64217l-10.709 6.1951c-0.84994 0.49108-1.1521 1.5677-0.66106 2.4176z" fill="#7b8694"/>
  </g>
 </g>
 <g fill="none" stroke="#000" stroke-width=".22665px">
  <path d="m19.096 13.438 13.769-7.9705"/>
  <path d="m19.984 14.968 13.769-7.9705"/>
  <path d="m18.926 12.173 0.9066 0.15127 0.20776-0.7933 0.81216 0.20771 0.20776-0.79327 0.81216 0.20771 0.20776-0.81218 0.81216 0.22662 0.20776-0.81218 0.81216 0.22662 0.20776-0.81215 0.81216 0.20771 0.20776-0.7933 0.81217 0.20771 0.20776-0.81215 0.81216 0.22662 0.20776-0.81218 0.81216 0.22662 0.20776-0.81218 0.81217 0.20771 0.20776-0.79327 0.81216 0.20771 0.20776-0.79327 0.81216 0.20771 0.20776-0.81215 0.81217 0.22662 0.1889-0.37775"/>
  <path d="m20.985 15.742 0.32112-0.84994 0.79328 0.20771 0.22667-0.81218 0.79328 0.22662 0.22667-0.81218 0.79328 0.22662 0.22667-0.81214 0.79327 0.20771 0.22667-0.7933 0.79327 0.20771 0.22667-0.79327 0.79327 0.20771 0.22667-0.81214 0.79327 0.22662 0.22667-0.81218 0.79328 0.22662 0.22667-0.81218 0.79328 0.20771 0.22667-0.7933 0.79327 0.20771 0.22667-0.81214 0.79328 0.22662 0.22667-0.81215 0.79327 0.22662 0.22667-0.81218 0.41552 0.020055"/>
  <path d="m33.469 6.4874-0.81216-0.20771-0.20776 0.81214-0.81217-0.22662-0.20776 0.81214-0.81217-0.22662-0.20776 0.81218-0.81217-0.20771-0.20776 0.79327-0.81217-0.20771-0.20776 0.79326-0.81216-0.20771-0.20776 0.81218-0.81216-0.22662-0.20776 0.81214-0.81216-0.22662-0.20776 0.81218-0.81216-0.20771-0.20776 0.79326-0.81216-0.20771-0.20776 0.81214-0.81216-0.22662-0.20776 0.81218-0.81216-0.22662-0.22667 0.81214-0.79328-0.20771-0.22667 0.7933-0.79328-0.20771"/>
 </g>
 <g stroke="#000">
  <g stroke-width=".22665px">
   <path d="m26.575 13.192s0.64217 1.4354 1.0766 2.1154c0.07554 0.11345 0.22667 0.1888 0.35889 0.1888 1.6999-0.07564 5.8362-0.77439 5.8362-0.77439 0.81216-0.09454 1.3032-0.45333 1.3599-1.2088 0.03772-0.5855-0.7555-1.0955-1.2844-0.96324 0 0-3.2298 0.50996-4.7785 0.52883-0.09445 0-0.16999-0.05673-0.24553-0.11312-0.24553-0.22662-0.50998-0.83106-0.50998-0.83106z" fill="#d2d6dc"/>
   <path d="m27.595 40.655v-26.424c0-0.1888 0.16999-0.33998 0.35889-0.33998h0.47219c0.1889 0 0.35889 0.15098 0.35889 0.33998v26.424c0 0.20771-0.16999 0.35888-0.35889 0.35888h-0.47219c-0.1889 0-0.35889-0.15098-0.35889-0.35888z" fill="#fbb227"/>
   <path d="m28.181 40.069c0.20776 0 0.35889 0.15098 0.35889 0.35889 0 0.1888-0.15108 0.35888-0.35889 0.35888-0.1889 0-0.33998-0.16989-0.33998-0.35888 0-0.20771 0.15108-0.35889 0.33998-0.35889z" fill="#fff"/>
   <path d="m28.181 14.118c0.20776 0 0.35889 0.16989 0.35889 0.35884 0 0.1888-0.15108 0.35884-0.35889 0.35884-0.1889 0-0.33998-0.16989-0.33998-0.35884 0-0.1888 0.15108-0.35884 0.33998-0.35884z" fill="#fff"/>
   <path d="m30.712 35.291c0 0.33993 0.26444 0.60438 0.6044 0.60438 0.33998 0 0.6044-0.26444 0.6044-0.60438 0-0.13236-0.03772-0.24553-0.11336-0.35889l2.7009-20.852c0.15108-0.11312 0.24553-0.28334 0.24553-0.49105 0-0.33998-0.26444-0.60441-0.6044-0.60441-0.33998 0-0.62328 0.26444-0.62328 0.60441 0 0.1888 0.0944 0.35884 0.24553 0.47215l-2.5876 20.625c-0.2833 0.07563-0.4722 0.32116-0.4722 0.60441z" fill="#fbb227"/>
  </g>
  <path d="m25.65 49.211-1.0766-1.3976c-0.58551-0.77439-0.43442-1.8888 0.33998-2.4743l9.8026-7.555c0.77438-0.5855 1.8888-0.43442 2.4743 0.33998l1.0766 1.3977c0.6044 0.77439 0.45329 1.8888-0.32112 2.4743l-9.8215 7.5361c-0.77439 0.60438-1.8699 0.45333-2.4743-0.32116z" fill="#7b8694" stroke-width=".24554px"/>
 </g>
 <g fill="none" stroke="#000" stroke-width=".22665px">
  <path d="m25.65 49.211 12.617-9.6893"/>
  <path d="m24.573 47.813 12.617-9.6893"/>
  <path d="m26.745 49.872 0.20776-0.9066 0.83105 0.11345 0.0944-0.83106 0.83106 0.11312 0.11336-0.83106 0.81216 0.11345 0.11336-0.83106 0.83105 0.11345 0.11336-0.83106 0.81217 0.11345 0.11336-0.83106 0.83105 0.11345 0.11336-0.83106 0.81217 0.11312 0.11336-0.83102 0.83105 0.11312 0.11336-0.83106 0.81216 0.11345 0.11336-0.83106 0.83105 0.11345 0.11336-0.83105 0.81216 0.11345 0.11336-0.83106 0.83105 0.11312 0.11336-0.83102 0.41552-0.03772"/>
  <path d="m24.233 46.586 0.92549 0.03772 0.11336-0.83106 0.81217 0.11312 0.11336-0.83102 0.83105 0.11317 0.11336-0.83102 0.81216 0.11312 0.11336-0.83105 0.83105 0.11345 0.11336-0.83106 0.81216 0.11345 0.11336-0.83106 0.83105 0.11345 0.11336-0.83106 0.81217 0.11317 0.11336-0.83103 0.83105 0.11345 0.09445-0.83102 0.83105 0.11312 0.11336-0.83105 0.83105 0.11345 0.09445-0.83105 0.83105 0.11345 0.11336-0.83106 0.83105 0.11345 0.13222-0.39661"/>
  <path d="m37.549 38.596-0.09445 0.81215-0.83105-0.09454-0.11336 0.81214-0.83105-0.09454-0.09445 0.81215-0.83105-0.09454-0.11336 0.81218-0.83105-0.09454-0.09445 0.81215-0.83105-0.09454-0.11336 0.81214-0.83105-0.09454-0.09445 0.81214-0.83106-0.09454-0.11336 0.81218-0.81216-0.09454-0.11336 0.81219-0.83105-0.09454-0.11336 0.81218-0.81216-0.09455-0.11336 0.81215-0.83105-0.09454-0.11336 0.81215-0.81217-0.09454-0.11336 0.81218-0.83106-0.09454-0.11336 0.81219"/>
 </g>
</svg>
