<?xml version="1.0" encoding="UTF-8"?>
<svg class="animated inactive" width="205.43" height="192.68" enable-background="new 0 0 198.44 105.83" version="1.1" viewBox="0 0 53.208 26.892" xml:space="preserve" xmlns="http://www.w3.org/2000/svg" xmlns:cc="http://creativecommons.org/ns#" xmlns:dc="http://purl.org/dc/elements/1.1/" xmlns:rdf="http://www.w3.org/1999/02/22-rdf-syntax-ns#"><metadata><rdf:RDF><cc:Work rdf:about=""><dc:format>image/svg+xml</dc:format><dc:type rdf:resource="http://purl.org/dc/dcmitype/StillImage"/><dc:title/></cc:Work></rdf:RDF></metadata>
  <filter id="blur-filter" x="-2" y="-2" width="200" height="200">
    <feGaussianBlur in="SourceGraphic" stdDeviation="2"/>
  </filter><g stroke-width=".25901"><path d="m27.614 21.823-1.265-22.771" fill="#6f8ce9" stroke="#6f8ce9" stroke-dasharray="0.259013, 0.518026"/><path d="m19.707-5.6917 15.181 10.753" fill="#e9e56f" stroke="#6f8ce9" stroke-dasharray="0.259013, 0.518026"/><path d="m10.536 18.66 20.241-6.9577 15.497 12.334" fill="none" stroke="#7b8694" stroke-dasharray="0.518026, 0.518026"/><path d="m30.776 11.703-0.63254-19.924" fill="none" stroke="#7b8694" stroke-dasharray="0.518026, 0.518026"/><path d="m21.288 15.182 13.599 13.915" fill="#6f8ce9" stroke="#6f8ce9" stroke-dasharray="0.259013, 0.518026"/></g><g fill="none" stroke="#a6aeb8" stroke-width=".25901"><path d="m23.029 34.811 22.941-10.943 1.6996-23.168-25.565 8.0507z"/><path d="m23 34.84-12.464-16.221-3.5482-21.349 15.207 11.539"/><path d="m6.8982-2.8786 23.347-5.5162 17.801 9.1539"/></g><circle cx="21.316" cy="15.022" r=".74216" fill="#6f8ce9"/><g fill="#e8eaec"><circle cx="30.087" cy="-8.2549" r=".74216"/><circle cx="7.1474" cy="-2.8574" r=".74216"/><circle cx="10.661" cy="18.733" r=".74216"/><circle cx="23.023" cy="34.567" r=".74216"/><circle cx="22.011" cy="8.8304" r=".74216"/><circle cx="47.53" cy=".95223" r=".74216"/><circle cx="45.942" cy="24.011" r=".74216"/></g><circle cx="27.06" cy="10.636" r=".74216" fill="#e9e56f"/><g fill="#6f8ce9"><circle cx="34.891" cy="29.06" r=".74216"/><circle cx="34.891" cy="5.0244" r=".74216"/><circle cx="19.735" cy="-5.8513" r=".74216"/></g><g fill="#e8eaec" stroke-width=".41844px"><g aria-label="C000"><path d="m20.422 36.41c-0.30149 0-0.73663 0.22068-0.73663 0.99772 0 0.74596 0.41649 0.98839 0.73663 0.98839 0.23 0 0.44446-0.12122 0.56568-0.32014l-0.15852-0.10257c-0.09014 0.14608-0.24554 0.23311-0.39474 0.23311-0.28595 0-0.53771-0.29527-0.53771-0.82055 0-0.51284 0.24554-0.8019 0.51906-0.8019 0.14919 0 0.29217 0.09014 0.36987 0.2269 0.0062 0.0093 0.01243 0.01865 0.01243 0.03108 0 0.0093-0.0031 0.01554-0.0031 0.02486 0 0.0031 0 0.01865 0.01554 0.02797l0.20514-0.09946c-0.10257-0.23311-0.33568-0.38541-0.59366-0.38541z"/><path d="m21.895 36.413c-0.30771 0-0.62474 0.37919-0.62474 0.99772 0 0.62785 0.32014 0.98839 0.62785 0.98839 0.27973 0 0.61231-0.3046 0.61231-0.97285 0-0.65893-0.31703-1.0133-0.61541-1.0133zm0.30149 0.44446-0.68068 0.88272c-0.02797-0.10878-0.04352-0.23-0.04352-0.36676 0-0.4973 0.2269-0.77082 0.4196-0.77082 0.10568 0 0.22068 0.08392 0.3046 0.25487zm0.07149 0.20514c0.02797 0.10878 0.04041 0.23933 0.04041 0.39163 0 0.54082-0.23311 0.74596-0.40406 0.74596-0.115 0-0.23311-0.09324-0.31703-0.26419z"/><path d="m23.449 36.413c-0.30771 0-0.62474 0.37919-0.62474 0.99772 0 0.62785 0.32014 0.98839 0.62785 0.98839 0.27973 0 0.61231-0.3046 0.61231-0.97285 0-0.65893-0.31703-1.0133-0.61541-1.0133zm0.30149 0.44446-0.68068 0.88272c-0.02797-0.10878-0.04351-0.23-0.04351-0.36676 0-0.4973 0.2269-0.77082 0.4196-0.77082 0.10568 0 0.22068 0.08392 0.3046 0.25487zm0.07149 0.20514c0.02797 0.10878 0.04041 0.23933 0.04041 0.39163 0 0.54082-0.23311 0.74596-0.40406 0.74596-0.115 0-0.23311-0.09324-0.31703-0.26419z"/><path d="m25.003 36.413c-0.30771 0-0.62474 0.37919-0.62474 0.99772 0 0.62785 0.32014 0.98839 0.62785 0.98839 0.27973 0 0.6123-0.3046 0.6123-0.97285 0-0.65893-0.31703-1.0133-0.61541-1.0133zm0.30149 0.44446-0.68068 0.88272c-0.02797-0.10878-0.04351-0.23-0.04351-0.36676 0-0.4973 0.2269-0.77082 0.4196-0.77082 0.10568 0 0.22068 0.08392 0.3046 0.25487zm0.07149 0.20514c0.02797 0.10878 0.04041 0.23933 0.04041 0.39163 0 0.54082-0.23311 0.74596-0.40406 0.74596-0.115 0-0.23311-0.09324-0.31703-0.26419z"/></g><g aria-label="C100"><path d="m43.733 26.05c-0.30149 0-0.73663 0.22068-0.73663 0.99772 0 0.74596 0.41649 0.98839 0.73663 0.98839 0.23 0 0.44446-0.12122 0.56568-0.32014l-0.15852-0.10257c-0.09014 0.14608-0.24554 0.23311-0.39474 0.23311-0.28595 0-0.53771-0.29528-0.53771-0.82055 0-0.51284 0.24554-0.8019 0.51906-0.8019 0.14919 0 0.29217 0.09014 0.36987 0.2269 0.0062 0.0093 0.01243 0.01865 0.01243 0.03108 0 0.0093-0.0031 0.01554-0.0031 0.02487 0 0.0031 0 0.01865 0.01554 0.02797l0.20514-0.09946c-0.10257-0.23311-0.33568-0.38541-0.59366-0.38541z"/><path d="m45.349 26.065h-0.14298l-0.4973 0.25798 0.04973 0.12122 0.38541-0.10878v1.4981h-0.36054v0.17095h0.9138v-0.17095h-0.34811z"/><path d="m46.76 26.053c-0.30771 0-0.62474 0.37919-0.62474 0.99772 0 0.62785 0.32014 0.98839 0.62785 0.98839 0.27973 0 0.61231-0.3046 0.61231-0.97285 0-0.65893-0.31703-1.0133-0.61541-1.0133zm0.30149 0.44446-0.68068 0.88272c-0.02797-0.10878-0.04351-0.23-0.04351-0.36676 0-0.4973 0.22689-0.77082 0.4196-0.77082 0.10568 0 0.22068 0.08392 0.3046 0.25487zm0.07149 0.20514c0.02797 0.10879 0.04041 0.23933 0.04041 0.39163 0 0.54082-0.23311 0.74596-0.40406 0.74596-0.115 0-0.23311-0.09324-0.31703-0.26419z"/><path d="m48.314 26.053c-0.30771 0-0.62474 0.37919-0.62474 0.99772 0 0.62785 0.32014 0.98839 0.62785 0.98839 0.27973 0 0.6123-0.3046 0.6123-0.97285 0-0.65893-0.31703-1.0133-0.61541-1.0133zm0.30149 0.44446-0.68068 0.88272c-0.02797-0.10878-0.04351-0.23-0.04351-0.36676 0-0.4973 0.2269-0.77082 0.4196-0.77082 0.10568 0 0.22068 0.08392 0.3046 0.25487zm0.07149 0.20514c0.02797 0.10879 0.04041 0.23933 0.04041 0.39163 0 0.54082-0.23311 0.74596-0.40406 0.74596-0.115 0-0.23311-0.09324-0.31703-0.26419z"/></g><g aria-label="C010"><path d="m4.8808 20.092c-0.30149 0-0.73663 0.22068-0.73663 0.99772 0 0.74596 0.41649 0.98839 0.73663 0.98839 0.23 0 0.44447-0.12122 0.56568-0.32014l-0.15852-0.10257c-0.090136 0.14608-0.24554 0.23311-0.39474 0.23311-0.28595 0-0.53771-0.29527-0.53771-0.82055 0-0.51284 0.24554-0.8019 0.51906-0.8019 0.14919 0 0.29217 0.09014 0.36987 0.2269 0.00622 0.0093 0.012433 0.01865 0.012433 0.03108 0 0.0093-0.00311 0.01554-0.00311 0.02486 0 0.0031 0 0.01865 0.015541 0.02797l0.20514-0.09946c-0.10257-0.2331-0.33568-0.3854-0.59366-0.3854z"/><path d="m6.3541 20.095c-0.30771 0-0.62474 0.37919-0.62474 0.99772 0 0.62785 0.32014 0.98839 0.62785 0.98839 0.27973 0 0.61231-0.3046 0.61231-0.97285 0-0.65893-0.31703-1.0133-0.61541-1.0133zm0.30149 0.44446-0.68068 0.88272c-0.027973-0.10879-0.043514-0.23-0.043514-0.36676 0-0.4973 0.2269-0.77082 0.4196-0.77082 0.10568 0 0.22068 0.08392 0.3046 0.25487zm0.071487 0.20514c0.027973 0.10878 0.040406 0.23933 0.040406 0.39163 0 0.54082-0.23311 0.74596-0.40406 0.74596-0.115 0-0.23311-0.09324-0.31703-0.26419z"/><path d="m8.0511 20.108h-0.14297l-0.4973 0.25798 0.04973 0.12122 0.38541-0.10878v1.4981h-0.36054v0.17095h0.9138v-0.17095h-0.34811z"/><path d="m9.4622 20.095c-0.30771 0-0.62474 0.37919-0.62474 0.99772 0 0.62785 0.32014 0.98839 0.62785 0.98839 0.27973 0 0.61231-0.3046 0.61231-0.97285 0-0.65893-0.31703-1.0133-0.61541-1.0133zm0.30149 0.44446-0.68068 0.88272c-0.027973-0.10879-0.043514-0.23-0.043514-0.36676 0-0.4973 0.22689-0.77082 0.4196-0.77082 0.10568 0 0.22068 0.08392 0.3046 0.25487zm0.071487 0.20514c0.027973 0.10878 0.040406 0.23933 0.040406 0.39163 0 0.54082-0.23311 0.74596-0.40406 0.74596-0.115 0-0.23311-0.09324-0.31703-0.26419z"/></g><g aria-label="C011"><path d="m0.73663-3.2189c-0.30149 0-0.73663 0.22068-0.73663 0.99772 0 0.74596 0.41649 0.98839 0.73663 0.98839 0.23 0 0.44447-0.12122 0.56568-0.32014l-0.15852-0.10257c-0.090136 0.14608-0.24554 0.23311-0.39474 0.23311-0.28595 0-0.53771-0.29527-0.53771-0.82055 0-0.51284 0.24554-0.8019 0.51906-0.8019 0.14919 0 0.29217 0.090136 0.36987 0.2269 0.00622 0.00932 0.012433 0.018649 0.012433 0.031081 0 0.00932-0.00311 0.015541-0.00311 0.024865 0 0.00311 0 0.018649 0.015541 0.027973l0.20514-0.099461c-0.10257-0.23311-0.33568-0.38541-0.59366-0.38541z"/><path d="m2.2099-3.2158c-0.30771 0-0.62474 0.37919-0.62474 0.99772 0 0.62785 0.32014 0.98839 0.62785 0.98839 0.27973 0 0.61231-0.3046 0.61231-0.97285 0-0.65893-0.31703-1.0133-0.61541-1.0133zm0.30149 0.44447-0.68068 0.88271c-0.027973-0.10879-0.043514-0.23-0.043514-0.36676 0-0.4973 0.22689-0.77082 0.4196-0.77082 0.10568 0 0.22068 0.08392 0.3046 0.25487zm0.071487 0.20514c0.027973 0.10879 0.040406 0.23933 0.040406 0.39163 0 0.54082-0.23311 0.74596-0.40406 0.74596-0.115 0-0.23311-0.093244-0.31703-0.26419z"/><path d="m3.9069-3.2033h-0.14297l-0.4973 0.25798 0.04973 0.12122 0.38541-0.10879v1.4981h-0.36054v0.17095h0.9138v-0.17095h-0.34811z"/><path d="m5.461-3.2033h-0.14297l-0.4973 0.25798 0.04973 0.12122 0.38541-0.10879v1.4981h-0.36054v0.17095h0.9138v-0.17095h-0.34811z"/></g><g aria-label="C111"><path d="m27.933-11.507c-0.30149 0-0.73663 0.22068-0.73663 0.99772 0 0.74596 0.41649 0.98839 0.73663 0.98839 0.23 0 0.44447-0.12122 0.56568-0.32014l-0.15852-0.10257c-0.09014 0.14608-0.24554 0.23311-0.39474 0.23311-0.28595 0-0.53771-0.29527-0.53771-0.82055 0-0.51284 0.24554-0.8019 0.51906-0.8019 0.14919 0 0.29217 0.09014 0.36987 0.2269 0.0062 0.0093 0.01243 0.01865 0.01243 0.03108 0 0.0093-0.0031 0.01554-0.0031 0.02487 0 0.0031 0 0.01865 0.01554 0.02797l0.20514-0.09946c-0.10257-0.23311-0.33568-0.38541-0.59366-0.38541z"/><path d="m29.549-11.492h-0.14298l-0.4973 0.25798 0.04973 0.12122 0.38541-0.10879v1.4981h-0.36054v0.17095h0.9138v-0.17095h-0.34811z"/><path d="m31.103-11.492h-0.14298l-0.4973 0.25798 0.04973 0.12122 0.38541-0.10879v1.4981h-0.36054v0.17095h0.9138v-0.17095h-0.34811z"/><path d="m32.657-11.492h-0.14298l-0.4973 0.25798 0.04973 0.12122 0.38541-0.10879v1.4981h-0.36054v0.17095h0.9138v-0.17095h-0.34811z"/></g><g aria-label="C101"><path d="m48.136-2.4418c-0.30149 0-0.73663 0.22068-0.73663 0.99772 0 0.74596 0.41649 0.98839 0.73663 0.98839 0.23 0 0.44446-0.12122 0.56568-0.32014l-0.15852-0.10257c-0.09014 0.14608-0.24554 0.23311-0.39474 0.23311-0.28595 0-0.53771-0.29527-0.53771-0.82055 0-0.51284 0.24554-0.8019 0.51906-0.8019 0.14919 0 0.29217 0.090136 0.36987 0.22689 0.0062 0.00932 0.01243 0.018649 0.01243 0.031081 0 0.00932-0.0031 0.015541-0.0031 0.024865 0 0.00311 0 0.018649 0.01554 0.027973l0.20514-0.099461c-0.10257-0.23311-0.33569-0.38541-0.59366-0.38541z"/><path d="m49.752-2.4263h-0.14298l-0.4973 0.25798 0.04973 0.12122 0.38541-0.10879v1.4981h-0.36054v0.17095h0.9138v-0.17095h-0.34811z"/><path d="m51.163-2.4387c-0.30771 0-0.62474 0.37919-0.62474 0.99772 0 0.62785 0.32014 0.98839 0.62785 0.98839 0.27973 0 0.61231-0.3046 0.61231-0.97285 0-0.65893-0.31703-1.0133-0.61541-1.0133zm0.30149 0.44447-0.68068 0.88271c-0.02797-0.10879-0.04351-0.23-0.04351-0.36676 0-0.4973 0.2269-0.77082 0.4196-0.77082 0.10568 0 0.22068 0.08392 0.3046 0.25487zm0.07149 0.20514c0.02797 0.10879 0.04041 0.23933 0.04041 0.39163 0 0.54082-0.23311 0.74596-0.40406 0.74596-0.115 0-0.23311-0.093244-0.31703-0.26419z"/><path d="m52.86-2.4263h-0.14298l-0.4973 0.25798 0.04973 0.12122 0.38541-0.10879v1.4981h-0.36055v0.17095h0.9138v-0.17095h-0.34811z"/></g><g aria-label="C110"><path d="m32.336 9.9908c-0.30149 0-0.73663 0.22068-0.73663 0.99772 0 0.74596 0.41649 0.98839 0.73663 0.98839 0.23 0 0.44447-0.12122 0.56568-0.32014l-0.15852-0.10257c-0.09014 0.14608-0.24554 0.23311-0.39474 0.23311-0.28595 0-0.53771-0.29527-0.53771-0.82055 0-0.51284 0.24554-0.8019 0.51906-0.8019 0.14919 0 0.29217 0.09014 0.36987 0.2269 0.0062 0.0093 0.01243 0.01865 0.01243 0.03108 0 0.0093-0.0031 0.01554-0.0031 0.02487 0 0.0031 0 0.01865 0.01554 0.02797l0.20514-0.09946c-0.10257-0.23311-0.33568-0.38541-0.59366-0.38541z"/><path d="m33.952 10.006h-0.14297l-0.4973 0.25798 0.04973 0.12122 0.38541-0.10878v1.4981h-0.36055v0.17095h0.9138v-0.17095h-0.34811z"/><path d="m35.507 10.006h-0.14297l-0.4973 0.25798 0.04973 0.12122 0.38541-0.10878v1.4981h-0.36055v0.17095h0.9138v-0.17095h-0.34811z"/><path d="m36.918 9.9939c-0.30771 0-0.62474 0.37919-0.62474 0.99772 0 0.62785 0.32014 0.98839 0.62785 0.98839 0.27973 0 0.61231-0.3046 0.61231-0.97285 0-0.65893-0.31703-1.0133-0.61541-1.0133zm0.30149 0.44447-0.68068 0.88272c-0.02797-0.10878-0.04351-0.23-0.04351-0.36676 0-0.4973 0.2269-0.77082 0.4196-0.77082 0.10568 0 0.22068 0.08392 0.3046 0.25487zm0.07149 0.20514c0.02797 0.10878 0.04041 0.23933 0.04041 0.39163 0 0.54082-0.23311 0.74596-0.40406 0.74596-0.115 0-0.23311-0.09324-0.31703-0.26419z"/></g><g aria-label="C001"><path d="m15.5 9.2137c-0.30149 0-0.73663 0.22068-0.73663 0.99772 0 0.74596 0.41649 0.98839 0.73663 0.98839 0.23 0 0.44446-0.12122 0.56568-0.32014l-0.15852-0.10257c-0.09014 0.14608-0.24554 0.23311-0.39474 0.23311-0.28595 0-0.53771-0.29527-0.53771-0.82055 0-0.51284 0.24554-0.8019 0.51906-0.8019 0.14919 0 0.29217 0.090136 0.36987 0.22689 0.0062 0.00932 0.01243 0.018649 0.01243 0.031082 0 0.00932-0.0031 0.015541-0.0031 0.024865 0 0.00311 0 0.018649 0.01554 0.027973l0.20514-0.099461c-0.10257-0.23311-0.33568-0.38541-0.59366-0.38541z"/><path d="m16.974 9.2168c-0.30771 0-0.62474 0.37919-0.62474 0.99772 0 0.62785 0.32014 0.98839 0.62785 0.98839 0.27973 0 0.61231-0.3046 0.61231-0.97285 0-0.65893-0.31703-1.0133-0.61541-1.0133zm0.30149 0.44447-0.68068 0.88271c-0.02797-0.10878-0.04351-0.23-0.04351-0.36676 0-0.4973 0.2269-0.77082 0.4196-0.77082 0.10568 0 0.22068 0.08392 0.3046 0.25487zm0.07149 0.20514c0.02797 0.10879 0.04041 0.23933 0.04041 0.39163 0 0.54082-0.23311 0.74596-0.40406 0.74596-0.115 0-0.23311-0.09325-0.31703-0.26419z"/><path d="m18.528 9.2168c-0.30771 0-0.62474 0.37919-0.62474 0.99772 0 0.62785 0.32014 0.98839 0.62785 0.98839 0.27973 0 0.61231-0.3046 0.61231-0.97285 0-0.65893-0.31703-1.0133-0.61541-1.0133zm0.30149 0.44447-0.68068 0.88271c-0.02797-0.10878-0.04351-0.23-0.04351-0.36676 0-0.4973 0.2269-0.77082 0.4196-0.77082 0.10568 0 0.22068 0.08392 0.3046 0.25487zm0.07149 0.20514c0.02797 0.10879 0.04041 0.23933 0.04041 0.39163 0 0.54082-0.23311 0.74596-0.40406 0.74596-0.115 0-0.23311-0.09325-0.31703-0.26419z"/><path d="m20.225 9.2293h-0.14298l-0.4973 0.25798 0.04973 0.12122 0.38541-0.10879v1.4981h-0.36055v0.17095h0.9138v-0.17095h-0.34811z"/></g></g></svg>
