<?xml version="1.0" encoding="UTF-8"?>
<svg width="111.68mm" height="49.248mm" version="1.1" viewBox="0 0 111.68 49.248" xmlns="http://www.w3.org/2000/svg" xmlns:cc="http://creativecommons.org/ns#" xmlns:dc="http://purl.org/dc/elements/1.1/" xmlns:rdf="http://www.w3.org/1999/02/22-rdf-syntax-ns#">
 <metadata>
  <rdf:RDF>
   <cc:Work rdf:about="">
    <dc:format>image/svg+xml</dc:format>
    <dc:type rdf:resource="http://purl.org/dc/dcmitype/StillImage"/>
    <dc:title/>
   </cc:Work>
  </rdf:RDF>
 </metadata>
 <g fill="#7b8694" stroke="#7b8694" stroke-miterlimit="40" stroke-width=".26458">
  <path d="m14.971 45.259h96.573" stroke-dasharray="0.79375, 0.79375"/>
  <g>
   <path d="m14.971 49.228v-3.9688"/>
   <path d="m17.617 47.905v-2.6458"/>
   <path d="m20.263 47.905v-2.6458"/>
   <path d="m22.909 47.905v-2.6458"/>
   <path d="m25.555 47.905v-2.6458"/>
   <path d="m28.201 49.228v-3.9688"/>
   <path d="m30.846 47.905v-2.6458"/>
   <path d="m33.492 47.905v-2.6458"/>
   <path d="m36.138 47.905v-2.6458"/>
   <path d="m38.784 47.905v-2.6458"/>
   <path d="m41.43 49.228v-3.9688"/>
   <path d="m44.076 47.905v-2.6458"/>
   <path d="m46.721 47.905v-2.6458"/>
   <path d="m49.367 47.905v-2.6458"/>
   <path d="m52.013 47.905v-2.6458"/>
   <path d="m54.659 49.228v-3.9688"/>
   <path d="m57.305 47.905v-2.6458"/>
   <path d="m59.951 47.905v-2.6458"/>
   <path d="m62.596 47.905v-2.6458"/>
   <path d="m65.242 47.905v-2.6458"/>
   <path d="m67.888 49.228v-3.9688"/>
   <path d="m70.534 47.905v-2.6458"/>
   <path d="m73.18 47.905v-2.6458"/>
   <path d="m75.826 47.905v-2.6458"/>
   <path d="m78.471 47.905v-2.6458"/>
   <path d="m81.117 49.228v-3.9688"/>
   <path d="m83.763 47.905v-2.6458"/>
   <path d="m86.409 47.905v-2.6458"/>
   <path d="m89.055 47.905v-2.6458"/>
   <path d="m91.701 47.905v-2.6458"/>
   <path d="m94.346 49.228v-3.9688"/>
   <path d="m96.992 47.905v-2.6458"/>
   <path d="m99.638 47.905v-2.6458"/>
   <path d="m102.28 47.905v-2.6458"/>
   <path d="m104.93 47.905v-2.6458"/>
   <path d="m107.58 49.228v-3.9688"/>
   <path d="m110.22 47.905v-2.6458"/>
  </g>
 </g>
 <g stroke-width=".26458">
  <path d="m14.971 37.322v7.9375h22.49l1.3229-3.9687-1.3229-3.9688z" fill="#2f3744" stroke="#7b8694" stroke-miterlimit="40"/>
  <g fill="#e8eaec" stroke-linecap="round" aria-label="Frames">
   <path d="m1.2103 49.072h0.31115v-1.089h0.92604v-0.25929h-0.92604v-0.82233h1.0927v-0.25929h-1.4039z"/>
   <path d="m2.9281 49.072h0.30374v-1.1557c0.12224-0.30374 0.30374-0.41487 0.45561-0.41487 0.074083 0 0.11483 0.01111 0.1741 0.02963l0.059267-0.2667c-0.059267-0.02593-0.11483-0.03704-0.19262-0.03704-0.20373 0-0.38894 0.14446-0.51118 0.37042h-0.011113l-0.025929-0.32597h-0.25188z"/>
   <path d="m4.0329 48.605c0 0.32226 0.22595 0.51118 0.5297 0.51118 0.22225 0 0.42228-0.11853 0.59637-0.25929h0.00741l0.025929 0.21484h0.25188v-1.1038c0-0.4482-0.18521-0.74083-0.626-0.74083-0.28893 0-0.54081 0.12594-0.7075 0.23336l0.12224 0.21114c0.14076-0.09631 0.32597-0.19262 0.5371-0.19262 0.29263 0 0.37042 0.22225 0.37042 0.45191-0.76676 0.0852-1.1075 0.28152-1.1075 0.67416zm0.30004-0.02222c0-0.22966 0.20373-0.37783 0.80751-0.45191v0.50006c-0.1741 0.15558-0.31856 0.24077-0.49265 0.24077-0.1778 0-0.31485-0.0852-0.31485-0.28892z"/>
   <path d="m6.0173 49.072h0.30374v-1.3039c0.16669-0.18521 0.31856-0.27781 0.45191-0.27781 0.22966 0 0.33708 0.14446 0.33708 0.48154v1.1001h0.30374v-1.3039c0.16669-0.18521 0.31115-0.27781 0.45191-0.27781 0.22595 0 0.33338 0.14446 0.33338 0.48154v1.1001h0.30374v-1.1409c0-0.45932-0.1778-0.70379-0.54822-0.70379-0.21855 0-0.40375 0.14076-0.59267 0.34449-0.074083-0.21484-0.22225-0.34449-0.49636-0.34449-0.21484 0-0.40375 0.13335-0.55933 0.30374h-0.011112l-0.025929-0.25929h-0.25188z"/>
   <path d="m8.9515 48.175c0 0.58896 0.38153 0.94086 0.86307 0.94086 0.24447 0 0.43709-0.0852 0.59267-0.18521l-0.10742-0.20003c-0.13335 0.0852-0.27781 0.14076-0.4482 0.14076-0.34449 0-0.57785-0.24448-0.60008-0.63341h1.215c0.0074-0.04445 0.01111-0.10372 0.01111-0.16669 0-0.51488-0.25929-0.84455-0.71861-0.84455-0.41116 0-0.80751 0.3593-0.80751 0.94827zm0.29633-0.13705c0.037042-0.36301 0.2667-0.57044 0.51858-0.57044 0.28152 0 0.4445 0.20373 0.4445 0.57044z"/>
   <path d="m10.722 48.868c0.17039 0.14076 0.41487 0.24818 0.67045 0.24818 0.42598 0 0.65934-0.24448 0.65934-0.5371 0-0.34078-0.28893-0.4482-0.54822-0.54451-0.20373-0.07779-0.40005-0.14446-0.40005-0.31115 0-0.13705 0.10372-0.25929 0.32967-0.25929 0.15928 0 0.28892 0.06668 0.41116 0.15928l0.14446-0.19262c-0.13706-0.11112-0.33338-0.20373-0.55933-0.20373-0.38894 0-0.6186 0.22225-0.6186 0.51118 0 0.30374 0.28152 0.42598 0.5371 0.51858 0.19632 0.07408 0.41116 0.15558 0.41116 0.34078 0 0.15558-0.11853 0.28152-0.3556 0.28152-0.21484 0-0.37412-0.0889-0.5297-0.21484z"/>
  </g>
  <path d="m14.971 37.322h96.573" fill="#7b8694" stroke="#7b8694" stroke-dasharray="0.79375, 0.79375" stroke-miterlimit="40"/>
  <g>
   <g fill="#e8eaec" stroke-linecap="round" aria-label="Pacman">
    <path d="m0.13229 42.457h0.31115v-0.96308h0.43709c0.5297 0 0.89641-0.24077 0.89641-0.75195 0-0.5334-0.3593-0.7149-0.89641-0.7149h-0.74824zm0.31115-1.215v-0.96679h0.39635c0.41857 0 0.62971 0.11483 0.62971 0.46672 0 0.34449-0.20373 0.50006-0.62971 0.50006z"/>
    <path d="m1.9782 41.99c0 0.32226 0.22595 0.51118 0.5297 0.51118 0.22225 0 0.42228-0.11853 0.59637-0.25929h0.00741l0.025929 0.21484h0.25188v-1.1038c0-0.4482-0.18521-0.74083-0.626-0.74083-0.28893 0-0.54081 0.12594-0.7075 0.23336l0.12224 0.21114c0.14076-0.09631 0.32597-0.19262 0.5371-0.19262 0.29263 0 0.37042 0.22225 0.37042 0.45191-0.76676 0.0852-1.1075 0.28152-1.1075 0.67416zm0.30004-0.02222c0-0.22966 0.20373-0.37782 0.80751-0.45191v0.50006c-0.1741 0.15558-0.31856 0.24077-0.49265 0.24077-0.1778 0-0.31485-0.0852-0.31485-0.28893z"/>
    <path d="m3.8293 41.561c0 0.59637 0.36671 0.94086 0.84455 0.94086 0.21484 0 0.42228-0.0889 0.58526-0.23336l-0.13705-0.20002c-0.10742 0.09631-0.25188 0.1815-0.42228 0.1815-0.32967 0-0.55563-0.27781-0.55563-0.68898 0-0.41487 0.23707-0.69638 0.56303-0.69638 0.14446 0 0.25559 0.06667 0.36301 0.15928l0.15187-0.19632c-0.12224-0.11483-0.28893-0.21484-0.52599-0.21484-0.46302 0-0.86678 0.34449-0.86678 0.94827z"/>
    <path d="m5.6483 42.457h0.30374v-1.3039c0.16669-0.18521 0.31856-0.27781 0.45191-0.27781 0.22966 0 0.33708 0.14446 0.33708 0.48154v1.1001h0.30374v-1.3039c0.16669-0.18521 0.31115-0.27781 0.45191-0.27781 0.22595 0 0.33338 0.14446 0.33338 0.48154v1.1001h0.30374v-1.1409c0-0.45932-0.1778-0.70379-0.54822-0.70379-0.21855 0-0.40375 0.14076-0.59267 0.34449-0.074083-0.21484-0.22225-0.34449-0.49636-0.34449-0.21484 0-0.40375 0.13335-0.55933 0.30374h-0.011112l-0.025929-0.25929h-0.25188z"/>
    <path d="m8.6269 41.99c0 0.32226 0.22595 0.51118 0.5297 0.51118 0.22225 0 0.42228-0.11853 0.59637-0.25929h0.00741l0.025929 0.21484h0.25188v-1.1038c0-0.4482-0.18521-0.74083-0.626-0.74083-0.28893 0-0.54081 0.12594-0.7075 0.23336l0.12224 0.21114c0.14076-0.09631 0.32597-0.19262 0.5371-0.19262 0.29263 0 0.37042 0.22225 0.37042 0.45191-0.76676 0.0852-1.1075 0.28152-1.1075 0.67416zm0.30004-0.02222c0-0.22966 0.20373-0.37782 0.80751-0.45191v0.50006c-0.1741 0.15558-0.31856 0.24077-0.49265 0.24077-0.1778 0-0.31485-0.0852-0.31485-0.28893z"/>
    <path d="m10.611 42.457h0.30374v-1.3039c0.1815-0.1815 0.30745-0.27781 0.49266-0.27781 0.23707 0 0.34078 0.14446 0.34078 0.48154v1.1001h0.30374v-1.1409c0-0.45932-0.17039-0.70379-0.54822-0.70379-0.24818 0-0.43339 0.13335-0.60378 0.30374h-0.01111l-0.02593-0.25929h-0.25188z"/>
   </g>
   <path d="m40.107 29.384-1.3229 3.9688 1.3229 3.9688h34.396l1.3229-3.9688-1.3229-3.9688z" fill="#2f3744" stroke="#7b8694" stroke-miterlimit="40"/>
   <g fill="#e8eaec" stroke-linecap="round" aria-label="Ghost">
    <path d="m3.1802 33.305c0 0.79269 0.45561 1.2594 1.0927 1.2594 0.32597 0 0.59637-0.12594 0.75565-0.28152v-1.0224h-0.7964v0.25559h0.51488v0.63341c-0.096308 0.0889-0.2667 0.14446-0.4408 0.14446-0.51858 0-0.80751-0.38523-0.80751-0.99642 0-0.60378 0.31485-0.9816 0.80751-0.9816 0.24077 0 0.39264 0.09631 0.51488 0.22595l0.1778-0.19632c-0.14446-0.14817-0.36671-0.30004-0.69638-0.30004-0.65193 0-1.1224 0.47784-1.1224 1.2594z"/>
    <path d="m5.5669 34.52h0.30374v-1.3039c0.1815-0.1815 0.30745-0.27781 0.49265-0.27781 0.23707 0 0.34078 0.14446 0.34078 0.48154v1.1001h0.30374v-1.1409c0-0.45932-0.17039-0.70379-0.54822-0.70379-0.24818 0-0.42968 0.13335-0.60008 0.29633l0.011112-0.37042v-0.71861h-0.30374z"/>
    <path d="m7.4521 33.623c0 0.59637 0.39264 0.94086 0.83344 0.94086 0.4408 0 0.83344-0.34449 0.83344-0.94086 0-0.60378-0.39264-0.94827-0.83344-0.94827-0.4408 0-0.83344 0.34449-0.83344 0.94827zm0.31485 0c0-0.41487 0.21114-0.69638 0.51858-0.69638 0.31115 0 0.51858 0.28152 0.51858 0.69638 0 0.41116-0.20743 0.68898-0.51858 0.68898-0.30745 0-0.51858-0.27781-0.51858-0.68898z"/>
    <path d="m9.3966 34.316c0.17039 0.14076 0.41487 0.24818 0.67045 0.24818 0.42598 0 0.65934-0.24448 0.65934-0.5371 0-0.34078-0.28893-0.4482-0.54822-0.54451-0.20373-0.07779-0.40005-0.14446-0.40005-0.31115 0-0.13705 0.10372-0.25929 0.32967-0.25929 0.15928 0 0.28892 0.06667 0.41116 0.15928l0.14446-0.19262c-0.13706-0.11112-0.33338-0.20373-0.55933-0.20373-0.38894 0-0.6186 0.22225-0.6186 0.51118 0 0.30374 0.28152 0.42598 0.5371 0.51858 0.19632 0.07408 0.41116 0.15558 0.41116 0.34078 0 0.15558-0.11853 0.28152-0.3556 0.28152-0.21484 0-0.37412-0.0889-0.5297-0.21484z"/>
    <path d="m11.204 33.964c0 0.3556 0.12965 0.60008 0.51488 0.60008 0.11112 0 0.23336-0.03334 0.33338-0.06668l-0.05927-0.22966c-0.05927 0.02222-0.14076 0.04815-0.20373 0.04815-0.20743 0-0.27781-0.12594-0.27781-0.34819v-1.0001h0.48525v-0.24818h-0.48525v-0.50377h-0.25559l-0.03704 0.50377-0.28152 0.01852v0.22966h0.2667z"/>
   </g>
   <path d="m14.971 29.384v7.9375h22.49l1.3229-3.9688-1.3229-3.9688z" fill="#2f3744" stroke="#7b8694" stroke-miterlimit="40"/>
  </g>
 </g>
 <g fill="#e8eaec" stroke-linecap="round" stroke-width=".26458">
  <g aria-label="Escaping">
   <path d="m20.086 42.457h1.4372v-0.263h-1.1261v-0.88159h0.91863v-0.263h-0.91863v-0.76306h1.089v-0.25929h-1.4002z"/>
   <path d="m21.799 42.253c0.17039 0.14076 0.41487 0.24818 0.67046 0.24818 0.42598 0 0.65934-0.24448 0.65934-0.5371 0-0.34078-0.28892-0.4482-0.54822-0.54451-0.20373-0.07779-0.40005-0.14446-0.40005-0.31115 0-0.13705 0.10372-0.25929 0.32967-0.25929 0.15928 0 0.28892 0.06667 0.41116 0.15928l0.14446-0.19262c-0.13706-0.11112-0.33338-0.20373-0.55933-0.20373-0.38894 0-0.6186 0.22225-0.6186 0.51118 0 0.30374 0.28152 0.42598 0.5371 0.51858 0.19632 0.07408 0.41116 0.15558 0.41116 0.34078 0 0.15558-0.11853 0.28152-0.3556 0.28152-0.21484 0-0.37412-0.0889-0.5297-0.21484z"/>
   <path d="m23.421 41.561c0 0.59637 0.36671 0.94086 0.84455 0.94086 0.21484 0 0.42228-0.0889 0.58526-0.23336l-0.13705-0.20002c-0.10742 0.09631-0.25188 0.1815-0.42228 0.1815-0.32967 0-0.55562-0.27781-0.55562-0.68898 0-0.41487 0.23707-0.69638 0.56303-0.69638 0.14446 0 0.25559 0.06667 0.36301 0.15928l0.15187-0.19632c-0.12224-0.11483-0.28892-0.21484-0.52599-0.21484-0.46302 0-0.86678 0.34449-0.86678 0.94827z"/>
   <path d="m25.115 41.99c0 0.32226 0.22595 0.51118 0.5297 0.51118 0.22225 0 0.42228-0.11853 0.59637-0.25929h0.0074l0.02593 0.21484h0.25188v-1.1038c0-0.4482-0.18521-0.74083-0.626-0.74083-0.28892 0-0.54081 0.12594-0.7075 0.23336l0.12224 0.21114c0.14076-0.09631 0.32597-0.19262 0.5371-0.19262 0.29263 0 0.37042 0.22225 0.37042 0.45191-0.76676 0.0852-1.1075 0.28152-1.1075 0.67416zm0.30004-0.02222c0-0.22966 0.20373-0.37782 0.80751-0.45191v0.50006c-0.1741 0.15558-0.31856 0.24077-0.49266 0.24077-0.1778 0-0.31485-0.0852-0.31485-0.28893z"/>
   <path d="m27.396 42.294c0.16669 0.12965 0.33338 0.20743 0.50006 0.20743 0.41116 0 0.77788-0.3593 0.77788-0.97049 0-0.55933-0.24818-0.91863-0.7112-0.91863-0.21114 0-0.41116 0.11483-0.57415 0.25188h-0.01111l-0.02593-0.20743h-0.25188v2.5596h0.30374v-0.60748zm0.0074-0.23707v-0.94456c0.1778-0.15928 0.32967-0.24448 0.48154-0.24448 0.34078 0 0.47413 0.2667 0.47413 0.66305 0 0.4445-0.21855 0.7149-0.51488 0.7149-0.11853 0-0.27781-0.05186-0.4408-0.18891z"/>
   <path d="m29.31 40.287c0.11853 0 0.21114-0.08149 0.21114-0.19632 0-0.11853-0.0926-0.19632-0.21114-0.19632-0.11853 0-0.21114 0.07779-0.21114 0.19632 0 0.11483 0.0926 0.19632 0.21114 0.19632zm-0.15558 2.1706h0.30374v-1.8002h-0.30374z"/>
   <path d="m30.066 42.457h0.30374v-1.3039c0.1815-0.1815 0.30745-0.27781 0.49266-0.27781 0.23707 0 0.34078 0.14446 0.34078 0.48154v1.1001h0.30374v-1.1409c0-0.45932-0.17039-0.70379-0.54822-0.70379-0.24818 0-0.43339 0.13335-0.60378 0.30374h-0.01111l-0.02593-0.25929h-0.25188z"/>
   <path d="m32.221 42.761c0-0.10372 0.05556-0.21114 0.18521-0.30374 0.07779 0.02222 0.16298 0.02963 0.23336 0.02963h0.31115c0.23336 0 0.36301 0.05556 0.36301 0.22225 0 0.18891-0.22595 0.36671-0.57044 0.36671-0.32597 0-0.52229-0.12224-0.52229-0.31485zm-0.2667 0.04075c0 0.31115 0.30374 0.48525 0.74454 0.48525 0.55933 0 0.91123-0.28892 0.91123-0.6223 0-0.30004-0.21114-0.42968-0.62971-0.42968h-0.34819c-0.24448 0-0.31856-0.08149-0.31856-0.19632 0-0.10001 0.05186-0.15928 0.11483-0.21484 0.08149 0.04075 0.1815 0.06297 0.2704 0.06297 0.36671 0 0.65934-0.24077 0.65934-0.626 0-0.15187-0.06297-0.28892-0.14817-0.37042h0.37042v-0.23336h-0.626c-0.06668-0.02593-0.15558-0.04445-0.25559-0.04445-0.36671 0-0.67786 0.24818-0.67786 0.64082 0 0.21484 0.11483 0.38894 0.23336 0.48525v0.01482c-0.0926 0.06297-0.19632 0.1815-0.19632 0.33338 0 0.14076 0.07038 0.23707 0.15928 0.29263v0.01482c-0.16298 0.11112-0.263 0.25559-0.263 0.40746zm0.74454-1.1187c-0.20743 0-0.38153-0.16669-0.38153-0.42968 0-0.263 0.17039-0.41857 0.38153-0.41857s0.38153 0.15558 0.38153 0.41857c0 0.263-0.1741 0.42968-0.38153 0.42968z"/>
  </g>
  <g aria-label="Chasing">
   <path d="m20.705 33.305c0 0.79269 0.45561 1.2594 1.0668 1.2594 0.30745 0 0.54822-0.12965 0.73713-0.3519l-0.1741-0.18891c-0.15558 0.1741-0.32597 0.2704-0.55562 0.2704-0.46302 0-0.75565-0.38523-0.75565-0.99642 0-0.60378 0.30745-0.9816 0.77047-0.9816 0.20003 0 0.3556 0.0889 0.48525 0.22595l0.1741-0.19632c-0.14446-0.15928-0.37412-0.30004-0.66305-0.30004-0.6223 0-1.0853 0.47784-1.0853 1.2594z"/>
   <path d="m22.925 34.52h0.30374v-1.3039c0.1815-0.1815 0.30745-0.27781 0.49266-0.27781 0.23707 0 0.34078 0.14446 0.34078 0.48154v1.1001h0.30374v-1.1409c0-0.45932-0.17039-0.70379-0.54822-0.70379-0.24818 0-0.42968 0.13335-0.60008 0.29633l0.01111-0.37042v-0.71861h-0.30374z"/>
   <path d="m24.855 34.053c0 0.32226 0.22595 0.51118 0.5297 0.51118 0.22225 0 0.42228-0.11853 0.59637-0.25929h0.0074l0.02593 0.21484h0.25188v-1.1038c0-0.4482-0.18521-0.74083-0.626-0.74083-0.28893 0-0.54081 0.12594-0.7075 0.23336l0.12224 0.21114c0.14076-0.09631 0.32597-0.19262 0.5371-0.19262 0.29263 0 0.37042 0.22225 0.37042 0.45191-0.76676 0.0852-1.1075 0.28152-1.1075 0.67416zm0.30004-0.02222c0-0.22966 0.20373-0.37782 0.80751-0.45191v0.50006c-0.1741 0.15558-0.31856 0.24077-0.49265 0.24077-0.1778 0-0.31486-0.0852-0.31486-0.28893z"/>
   <path d="m26.639 34.316c0.17039 0.14076 0.41487 0.24818 0.67045 0.24818 0.42598 0 0.65934-0.24448 0.65934-0.5371 0-0.34078-0.28893-0.4482-0.54822-0.54451-0.20373-0.07779-0.40005-0.14446-0.40005-0.31115 0-0.13705 0.10372-0.25929 0.32967-0.25929 0.15928 0 0.28892 0.06667 0.41116 0.15928l0.14446-0.19262c-0.13706-0.11112-0.33338-0.20373-0.55933-0.20373-0.38894 0-0.6186 0.22225-0.6186 0.51118 0 0.30374 0.28152 0.42598 0.5371 0.51858 0.19632 0.07408 0.41116 0.15558 0.41116 0.34078 0 0.15558-0.11853 0.28152-0.3556 0.28152-0.21484 0-0.37412-0.0889-0.5297-0.21484z"/>
   <path d="m28.55 32.349c0.11853 0 0.21114-0.08149 0.21114-0.19632 0-0.11853-0.0926-0.19632-0.21114-0.19632-0.11853 0-0.21114 0.07779-0.21114 0.19632 0 0.11483 0.0926 0.19632 0.21114 0.19632zm-0.15558 2.1706h0.30374v-1.8002h-0.30374z"/>
   <path d="m29.306 34.52h0.30374v-1.3039c0.1815-0.1815 0.30745-0.27781 0.49266-0.27781 0.23707 0 0.34078 0.14446 0.34078 0.48154v1.1001h0.30374v-1.1409c0-0.45932-0.17039-0.70379-0.54822-0.70379-0.24818 0-0.43339 0.13335-0.60378 0.30374h-0.01111l-0.02593-0.25929h-0.25188z"/>
   <path d="m31.462 34.823c0-0.10372 0.05556-0.21114 0.18521-0.30374 0.07779 0.02222 0.16298 0.02963 0.23336 0.02963h0.31115c0.23336 0 0.36301 0.05556 0.36301 0.22225 0 0.18891-0.22595 0.36671-0.57044 0.36671-0.32597 0-0.52229-0.12224-0.52229-0.31485zm-0.2667 0.04075c0 0.31115 0.30374 0.48525 0.74454 0.48525 0.55933 0 0.91123-0.28892 0.91123-0.6223 0-0.30004-0.21114-0.42968-0.62971-0.42968h-0.34819c-0.24448 0-0.31856-0.08149-0.31856-0.19632 0-0.10001 0.05186-0.15928 0.11483-0.21484 0.08149 0.04075 0.1815 0.06297 0.2704 0.06297 0.36671 0 0.65934-0.24077 0.65934-0.626 0-0.15187-0.06297-0.28892-0.14817-0.37042h0.37042v-0.23336h-0.626c-0.06668-0.02593-0.15558-0.04445-0.25559-0.04445-0.36671 0-0.67786 0.24818-0.67786 0.64082 0 0.21484 0.11483 0.38894 0.23336 0.48525v0.01482c-0.0926 0.06297-0.19632 0.1815-0.19632 0.33338 0 0.14076 0.07038 0.23707 0.15928 0.29263v0.01482c-0.16298 0.11112-0.263 0.25559-0.263 0.40746zm0.74454-1.1187c-0.20743 0-0.38153-0.16669-0.38153-0.42968 0-0.263 0.17039-0.41857 0.38153-0.41857s0.38153 0.15558 0.38153 0.41857c0 0.263-0.1741 0.42968-0.38153 0.42968z"/>
  </g>
  <g aria-label="Escaping">
   <path d="m50.513 34.52h1.4372v-0.263h-1.1261v-0.88159h0.91863v-0.263h-0.91863v-0.76306h1.089v-0.25929h-1.4002z"/>
   <path d="m52.226 34.316c0.17039 0.14076 0.41487 0.24818 0.67046 0.24818 0.42598 0 0.65934-0.24448 0.65934-0.5371 0-0.34078-0.28892-0.4482-0.54822-0.54451-0.20373-0.07779-0.40005-0.14446-0.40005-0.31115 0-0.13705 0.10372-0.25929 0.32967-0.25929 0.15928 0 0.28892 0.06667 0.41116 0.15928l0.14446-0.19262c-0.13705-0.11112-0.33338-0.20373-0.55933-0.20373-0.38894 0-0.6186 0.22225-0.6186 0.51118 0 0.30374 0.28152 0.42598 0.5371 0.51858 0.19632 0.07408 0.41116 0.15558 0.41116 0.34078 0 0.15558-0.11853 0.28152-0.3556 0.28152-0.21484 0-0.37412-0.0889-0.5297-0.21484z"/>
   <path d="m53.848 33.623c0 0.59637 0.36671 0.94086 0.84455 0.94086 0.21484 0 0.42228-0.0889 0.58526-0.23336l-0.13706-0.20002c-0.10742 0.09631-0.25188 0.1815-0.42228 0.1815-0.32967 0-0.55563-0.27781-0.55563-0.68898 0-0.41487 0.23707-0.69638 0.56303-0.69638 0.14446 0 0.25559 0.06667 0.36301 0.15928l0.15187-0.19632c-0.12224-0.11483-0.28892-0.21484-0.52599-0.21484-0.46302 0-0.86678 0.34449-0.86678 0.94827z"/>
   <path d="m55.542 34.053c0 0.32226 0.22596 0.51118 0.5297 0.51118 0.22225 0 0.42228-0.11853 0.59637-0.25929h0.0074l0.02593 0.21484h0.25188v-1.1038c0-0.4482-0.18521-0.74083-0.626-0.74083-0.28892 0-0.54081 0.12594-0.7075 0.23336l0.12224 0.21114c0.14076-0.09631 0.32597-0.19262 0.5371-0.19262 0.29263 0 0.37042 0.22225 0.37042 0.45191-0.76676 0.0852-1.1075 0.28152-1.1075 0.67416zm0.30004-0.02222c0-0.22966 0.20373-0.37782 0.80751-0.45191v0.50006c-0.1741 0.15558-0.31856 0.24077-0.49266 0.24077-0.1778 0-0.31485-0.0852-0.31485-0.28893z"/>
   <path d="m57.823 34.357c0.16669 0.12965 0.33338 0.20743 0.50006 0.20743 0.41116 0 0.77788-0.3593 0.77788-0.97049 0-0.55933-0.24818-0.91863-0.7112-0.91863-0.21114 0-0.41116 0.11483-0.57415 0.25188h-0.01111l-0.02593-0.20743h-0.25188v2.5596h0.30374v-0.60748zm0.0074-0.23707v-0.94456c0.1778-0.15928 0.32967-0.24448 0.48154-0.24448 0.34078 0 0.47413 0.2667 0.47413 0.66305 0 0.4445-0.21855 0.7149-0.51488 0.7149-0.11853 0-0.27781-0.05186-0.4408-0.18891z"/>
   <path d="m59.737 32.349c0.11853 0 0.21114-0.08149 0.21114-0.19632 0-0.11853-0.0926-0.19632-0.21114-0.19632-0.11853 0-0.21114 0.07779-0.21114 0.19632 0 0.11483 0.0926 0.19632 0.21114 0.19632zm-0.15558 2.1706h0.30374v-1.8002h-0.30374z"/>
   <path d="m60.493 34.52h0.30374v-1.3039c0.1815-0.1815 0.30745-0.27781 0.49265-0.27781 0.23707 0 0.34078 0.14446 0.34078 0.48154v1.1001h0.30374v-1.1409c0-0.45932-0.17039-0.70379-0.54822-0.70379-0.24818 0-0.43339 0.13335-0.60378 0.30374h-0.01111l-0.02593-0.25929h-0.25188z"/>
   <path d="m62.648 34.823c0-0.10372 0.05556-0.21114 0.18521-0.30374 0.07779 0.02222 0.16298 0.02963 0.23336 0.02963h0.31115c0.23336 0 0.36301 0.05556 0.36301 0.22225 0 0.18891-0.22596 0.36671-0.57044 0.36671-0.32597 0-0.52229-0.12224-0.52229-0.31485zm-0.2667 0.04075c0 0.31115 0.30374 0.48525 0.74454 0.48525 0.55933 0 0.91123-0.28892 0.91123-0.6223 0-0.30004-0.21114-0.42968-0.62971-0.42968h-0.34819c-0.24448 0-0.31856-0.08149-0.31856-0.19632 0-0.10001 0.05186-0.15928 0.11483-0.21484 0.08149 0.04075 0.1815 0.06297 0.2704 0.06297 0.36671 0 0.65934-0.24077 0.65934-0.626 0-0.15187-0.06297-0.28892-0.14817-0.37042h0.37042v-0.23336h-0.626c-0.06668-0.02593-0.15558-0.04445-0.25559-0.04445-0.36671 0-0.67786 0.24818-0.67786 0.64082 0 0.21484 0.11483 0.38894 0.23336 0.48525v0.01482c-0.0926 0.06297-0.19632 0.1815-0.19632 0.33338 0 0.14076 0.07038 0.23707 0.15928 0.29263v0.01482c-0.16298 0.11112-0.263 0.25559-0.263 0.40746zm0.74454-1.1187c-0.20743 0-0.38153-0.16669-0.38153-0.42968 0-0.263 0.17039-0.41857 0.38153-0.41857 0.21114 0 0.38153 0.15558 0.38153 0.41857 0 0.263-0.1741 0.42968-0.38153 0.42968z"/>
  </g>
 </g>
 <g stroke-width=".26458">
  <path d="m40.107 37.322-1.3229 3.9688 1.3229 3.9687h50.271l1.3229-3.9687-1.3229-3.9688z" fill="#2f3744" stroke="#7b8694" stroke-miterlimit="40"/>
  <g fill="#e8eaec" stroke-linecap="round" aria-label="Chasing">
   <path d="m58.805 41.242c0 0.79269 0.45561 1.2594 1.0668 1.2594 0.30745 0 0.54822-0.12965 0.73713-0.3519l-0.1741-0.18891c-0.15558 0.1741-0.32597 0.2704-0.55562 0.2704-0.46302 0-0.75565-0.38523-0.75565-0.99642 0-0.60378 0.30745-0.9816 0.77047-0.9816 0.20003 0 0.3556 0.0889 0.48525 0.22595l0.1741-0.19632c-0.14446-0.15928-0.37412-0.30004-0.66305-0.30004-0.6223 0-1.0853 0.47784-1.0853 1.2594z"/>
   <path d="m61.025 42.457h0.30374v-1.3039c0.1815-0.1815 0.30745-0.27781 0.49266-0.27781 0.23707 0 0.34078 0.14446 0.34078 0.48154v1.1001h0.30374v-1.1409c0-0.45932-0.17039-0.70379-0.54822-0.70379-0.24818 0-0.42968 0.13335-0.60008 0.29633l0.01111-0.37042v-0.71861h-0.30374z"/>
   <path d="m62.955 41.99c0 0.32226 0.22596 0.51118 0.5297 0.51118 0.22225 0 0.42228-0.11853 0.59637-0.25929h0.0074l0.02593 0.21484h0.25188v-1.1038c0-0.4482-0.18521-0.74083-0.626-0.74083-0.28893 0-0.54081 0.12594-0.7075 0.23336l0.12224 0.21114c0.14076-0.09631 0.32597-0.19262 0.5371-0.19262 0.29263 0 0.37042 0.22225 0.37042 0.45191-0.76676 0.0852-1.1075 0.28152-1.1075 0.67416zm0.30004-0.02222c0-0.22966 0.20373-0.37782 0.80751-0.45191v0.50006c-0.1741 0.15558-0.31856 0.24077-0.49265 0.24077-0.1778 0-0.31486-0.0852-0.31486-0.28893z"/>
   <path d="m64.739 42.253c0.17039 0.14076 0.41487 0.24818 0.67046 0.24818 0.42598 0 0.65934-0.24448 0.65934-0.5371 0-0.34078-0.28892-0.4482-0.54822-0.54451-0.20373-0.07779-0.40005-0.14446-0.40005-0.31115 0-0.13705 0.10372-0.25929 0.32967-0.25929 0.15928 0 0.28892 0.06667 0.41116 0.15928l0.14446-0.19262c-0.13706-0.11112-0.33338-0.20373-0.55933-0.20373-0.38894 0-0.6186 0.22225-0.6186 0.51118 0 0.30374 0.28152 0.42598 0.5371 0.51858 0.19632 0.07408 0.41116 0.15558 0.41116 0.34078 0 0.15558-0.11853 0.28152-0.3556 0.28152-0.21484 0-0.37412-0.0889-0.5297-0.21484z"/>
   <path d="m66.65 40.287c0.11853 0 0.21114-0.08149 0.21114-0.19632 0-0.11853-0.0926-0.19632-0.21114-0.19632-0.11853 0-0.21114 0.07779-0.21114 0.19632 0 0.11483 0.0926 0.19632 0.21114 0.19632zm-0.15558 2.1706h0.30374v-1.8002h-0.30374z"/>
   <path d="m67.406 42.457h0.30374v-1.3039c0.1815-0.1815 0.30745-0.27781 0.49266-0.27781 0.23707 0 0.34078 0.14446 0.34078 0.48154v1.1001h0.30374v-1.1409c0-0.45932-0.17039-0.70379-0.54822-0.70379-0.24818 0-0.43339 0.13335-0.60378 0.30374h-0.01111l-0.02593-0.25929h-0.25188z"/>
   <path d="m69.562 42.761c0-0.10372 0.05556-0.21114 0.18521-0.30374 0.07779 0.02222 0.16298 0.02963 0.23336 0.02963h0.31115c0.23336 0 0.36301 0.05556 0.36301 0.22225 0 0.18891-0.22595 0.36671-0.57044 0.36671-0.32597 0-0.52229-0.12224-0.52229-0.31485zm-0.2667 0.04075c0 0.31115 0.30374 0.48525 0.74454 0.48525 0.55933 0 0.91123-0.28892 0.91123-0.6223 0-0.30004-0.21114-0.42968-0.62971-0.42968h-0.34819c-0.24448 0-0.31856-0.08149-0.31856-0.19632 0-0.10001 0.05186-0.15928 0.11483-0.21484 0.08149 0.04075 0.1815 0.06297 0.2704 0.06297 0.36671 0 0.65934-0.24077 0.65934-0.626 0-0.15187-0.06297-0.28892-0.14817-0.37042h0.37042v-0.23336h-0.626c-0.06668-0.02593-0.15558-0.04445-0.25559-0.04445-0.36671 0-0.67786 0.24818-0.67786 0.64082 0 0.21484 0.11483 0.38894 0.23336 0.48525v0.01482c-0.09261 0.06297-0.19632 0.1815-0.19632 0.33338 0 0.14076 0.07038 0.23707 0.15928 0.29263v0.01482c-0.16298 0.11112-0.263 0.25559-0.263 0.40746zm0.74454-1.1187c-0.20743 0-0.38153-0.16669-0.38153-0.42968 0-0.263 0.17039-0.41857 0.38153-0.41857s0.38153 0.15558 0.38153 0.41857c0 0.263-0.1741 0.42968-0.38153 0.42968z"/>
  </g>
  <path d="m38.784 45.259v-44.979" fill="#2f3744" stroke="#7b8694" stroke-dasharray="0.264583, 0.264583" stroke-miterlimit="40"/>
  <g>
   <g fill="#e8eaec" stroke-linecap="round" aria-label="Power Pellet eaten">
    <path d="m39.487 2.7697h0.31115v-0.96308h0.43709c0.5297 0 0.89641-0.24077 0.89641-0.75195 0-0.5334-0.3593-0.7149-0.89641-0.7149h-0.74824zm0.31115-1.215v-0.96679h0.39635c0.41857 0 0.62971 0.11483 0.62971 0.46673 0 0.34449-0.20373 0.50006-0.62971 0.50006z"/>
    <path d="m41.361 1.8733c0 0.59637 0.39264 0.94086 0.83344 0.94086s0.83344-0.34449 0.83344-0.94086c0-0.60378-0.39264-0.94827-0.83344-0.94827s-0.83344 0.34449-0.83344 0.94827zm0.31485 0c0-0.41487 0.21114-0.69638 0.51858-0.69638 0.31115 0 0.51858 0.28152 0.51858 0.69638 0 0.41116-0.20743 0.68898-0.51858 0.68898-0.30745 0-0.51858-0.27781-0.51858-0.68898z"/>
    <path d="m43.776 2.7697h0.3556l0.25188-0.96308c0.04815-0.17039 0.0852-0.34078 0.12594-0.52229h0.01482c0.04445 0.1815 0.07779 0.34819 0.12224 0.51858l0.25929 0.96679h0.37042l0.48154-1.8002h-0.28892l-0.263 1.0409c-0.03704 0.17039-0.07038 0.33338-0.11112 0.50006h-0.01482c-0.040743-0.16669-0.081489-0.32967-0.12594-0.50006l-0.28152-1.0409h-0.29633l-0.27781 1.0409c-0.04445 0.16669-0.08149 0.33338-0.12224 0.50006h-0.01482c-0.033334-0.16669-0.066671-0.32967-0.10742-0.50006l-0.2667-1.0409h-0.31115z"/>
    <path d="m46.005 1.8733c0 0.58896 0.38153 0.94086 0.86307 0.94086 0.24448 0 0.43709-0.085196 0.59267-0.18521l-0.10742-0.20003c-0.13335 0.085196-0.27781 0.14076-0.4482 0.14076-0.34449 0-0.57785-0.24448-0.60008-0.63341h1.215c0.0074-0.04445 0.01111-0.10372 0.01111-0.16669 0-0.51488-0.25929-0.84455-0.71861-0.84455-0.41116 0-0.80751 0.3593-0.80751 0.94827zm0.29633-0.13705c0.03704-0.36301 0.2667-0.57044 0.51858-0.57044 0.28152 0 0.4445 0.20373 0.4445 0.57044z"/>
    <path d="m47.976 2.7697h0.30374v-1.1557c0.12224-0.30374 0.30374-0.41487 0.45561-0.41487 0.07408 0 0.11483 0.011112 0.1741 0.029633l0.05927-0.2667c-0.05927-0.025929-0.11483-0.037042-0.19262-0.037042-0.20373 0-0.38894 0.14446-0.51118 0.37042h-0.01111l-0.02593-0.32597h-0.25188z"/>
    <path d="m50.028 2.7697h0.31115v-0.96308h0.43709c0.5297 0 0.89641-0.24077 0.89641-0.75195 0-0.5334-0.3593-0.7149-0.89641-0.7149h-0.74824zm0.31115-1.215v-0.96679h0.39635c0.41857 0 0.62971 0.11483 0.62971 0.46673 0 0.34449-0.20373 0.50006-0.62971 0.50006z"/>
    <path d="m51.902 1.8733c0 0.58896 0.38153 0.94086 0.86307 0.94086 0.24448 0 0.43709-0.085196 0.59267-0.18521l-0.10742-0.20003c-0.13335 0.085196-0.27781 0.14076-0.4482 0.14076-0.34449 0-0.57785-0.24448-0.60008-0.63341h1.215c0.0074-0.04445 0.01111-0.10372 0.01111-0.16669 0-0.51488-0.25929-0.84455-0.71861-0.84455-0.41116 0-0.80751 0.3593-0.80751 0.94827zm0.29633-0.13705c0.03704-0.36301 0.2667-0.57044 0.51858-0.57044 0.28152 0 0.4445 0.20373 0.4445 0.57044z"/>
    <path d="m53.873 2.4067c0 0.263 0.0926 0.40746 0.32226 0.40746 0.08149 0 0.13335-0.011112 0.1741-0.029633l-0.04075-0.22966c-0.03334 0.00741-0.04816 0.00741-0.06668 0.00741-0.04445 0-0.08519-0.037042-0.08519-0.13335v-2.2966h-0.30374z"/>
    <path d="m54.82 2.4067c0 0.263 0.0926 0.40746 0.32226 0.40746 0.08149 0 0.13335-0.011112 0.1741-0.029633l-0.04075-0.22966c-0.03334 0.00741-0.04815 0.00741-0.06668 0.00741-0.04445 0-0.0852-0.037042-0.0852-0.13335v-2.2966h-0.30374z"/>
    <path d="m55.635 1.8733c0 0.58896 0.38153 0.94086 0.86307 0.94086 0.24448 0 0.43709-0.085196 0.59267-0.18521l-0.10742-0.20003c-0.13335 0.085196-0.27781 0.14076-0.4482 0.14076-0.34449 0-0.57785-0.24448-0.60008-0.63341h1.215c0.0074-0.04445 0.01111-0.10372 0.01111-0.16669 0-0.51488-0.25929-0.84455-0.71861-0.84455-0.41116 0-0.80751 0.3593-0.80751 0.94827zm0.29633-0.13705c0.03704-0.36301 0.2667-0.57044 0.51858-0.57044 0.28152 0 0.4445 0.20373 0.4445 0.57044z"/>
    <path d="m57.607 2.214c0 0.3556 0.12965 0.60008 0.51488 0.60008 0.11112 0 0.23336-0.033338 0.33338-0.066675l-0.05927-0.22966c-0.05927 0.022225-0.14076 0.048154-0.20373 0.048154-0.20743 0-0.27781-0.12594-0.27781-0.34819v-1.0001h0.48525v-0.24818h-0.48524v-0.50377h-0.25559l-0.03704 0.50377-0.28152 0.018521v0.22966h0.2667z"/>
    <path d="m59.418 1.8733c0 0.58896 0.38153 0.94086 0.86307 0.94086 0.24448 0 0.43709-0.085196 0.59267-0.18521l-0.10742-0.20003c-0.13335 0.085196-0.27781 0.14076-0.4482 0.14076-0.34449 0-0.57785-0.24448-0.60008-0.63341h1.215c0.0074-0.04445 0.01111-0.10372 0.01111-0.16669 0-0.51488-0.25929-0.84455-0.71861-0.84455-0.41116 0-0.80751 0.3593-0.80751 0.94827zm0.29633-0.13705c0.03704-0.36301 0.2667-0.57044 0.51858-0.57044 0.28152 0 0.4445 0.20373 0.4445 0.57044z"/>
    <path d="m61.25 2.3029c0 0.32226 0.22595 0.51118 0.5297 0.51118 0.22225 0 0.42228-0.11853 0.59637-0.25929h0.0074l0.02593 0.21484h0.25188v-1.1038c0-0.4482-0.18521-0.74083-0.626-0.74083-0.28893 0-0.54081 0.12594-0.7075 0.23336l0.12224 0.21114c0.14076-0.096308 0.32597-0.19262 0.5371-0.19262 0.29263 0 0.37042 0.22225 0.37042 0.45191-0.76676 0.085196-1.1075 0.28152-1.1075 0.67416zm0.30004-0.022225c0-0.22966 0.20373-0.37783 0.80751-0.45191v0.50006c-0.1741 0.15558-0.31856 0.24077-0.49265 0.24077-0.1778 0-0.31486-0.085196-0.31486-0.28893z"/>
    <path d="m63.286 2.214c0 0.3556 0.12965 0.60008 0.51488 0.60008 0.11112 0 0.23336-0.033338 0.33338-0.066675l-0.05927-0.22966c-0.05927 0.022225-0.14076 0.048154-0.20373 0.048154-0.20743 0-0.27781-0.12594-0.27781-0.34819v-1.0001h0.48525v-0.24818h-0.48524v-0.50377h-0.25559l-0.03704 0.50377-0.28152 0.018521v0.22966h0.2667z"/>
    <path d="m64.316 1.8733c0 0.58896 0.38153 0.94086 0.86307 0.94086 0.24448 0 0.43709-0.085196 0.59267-0.18521l-0.10742-0.20003c-0.13335 0.085196-0.27781 0.14076-0.4482 0.14076-0.34449 0-0.57785-0.24448-0.60008-0.63341h1.215c0.0074-0.04445 0.01111-0.10372 0.01111-0.16669 0-0.51488-0.25929-0.84455-0.71861-0.84455-0.41116 0-0.80751 0.3593-0.80751 0.94827zm0.29633-0.13705c0.03704-0.36301 0.2667-0.57044 0.51858-0.57044 0.28152 0 0.4445 0.20373 0.4445 0.57044z"/>
    <path d="m66.287 2.7697h0.30374v-1.3039c0.1815-0.1815 0.30745-0.27781 0.49266-0.27781 0.23707 0 0.34078 0.14446 0.34078 0.48154v1.1001h0.30374v-1.1409c0-0.45932-0.17039-0.70379-0.54822-0.70379-0.24818 0-0.43339 0.13335-0.60378 0.30374h-0.01111l-0.02593-0.25929h-0.25188z"/>
   </g>
   <g fill="#e8eaec" stroke-linecap="round" aria-label="Pacman hit the Ghost">
    <path d="m77.022 2.7697h0.31115v-0.96308h0.43709c0.5297 0 0.89641-0.24077 0.89641-0.75195 0-0.5334-0.3593-0.7149-0.89641-0.7149h-0.74824zm0.31115-1.215v-0.96679h0.39635c0.41857 0 0.62971 0.11483 0.62971 0.46673 0 0.34449-0.20373 0.50006-0.62971 0.50006z"/>
    <path d="m78.868 2.3029c0 0.32226 0.22595 0.51118 0.5297 0.51118 0.22225 0 0.42228-0.11853 0.59637-0.25929h0.0074l0.02593 0.21484h0.25188v-1.1038c0-0.4482-0.18521-0.74083-0.626-0.74083-0.28892 0-0.54081 0.12594-0.7075 0.23336l0.12224 0.21114c0.14076-0.096308 0.32597-0.19262 0.5371-0.19262 0.29263 0 0.37042 0.22225 0.37042 0.45191-0.76676 0.085196-1.1075 0.28152-1.1075 0.67416zm0.30004-0.022225c0-0.22966 0.20373-0.37783 0.80751-0.45191v0.50006c-0.1741 0.15558-0.31856 0.24077-0.49266 0.24077-0.1778 0-0.31485-0.085196-0.31485-0.28893z"/>
    <path d="m80.719 1.8733c0 0.59637 0.36671 0.94086 0.84455 0.94086 0.21484 0 0.42228-0.0889 0.58526-0.23336l-0.13706-0.20003c-0.10742 0.096308-0.25188 0.1815-0.42228 0.1815-0.32967 0-0.55562-0.27781-0.55562-0.68898 0-0.41487 0.23707-0.69638 0.56303-0.69638 0.14446 0 0.25559 0.066675 0.36301 0.15928l0.15187-0.19632c-0.12224-0.11483-0.28892-0.21484-0.52599-0.21484-0.46302 0-0.86678 0.34449-0.86678 0.94827z"/>
    <path d="m82.538 2.7697h0.30374v-1.3039c0.16669-0.18521 0.31856-0.27781 0.45191-0.27781 0.22966 0 0.33708 0.14446 0.33708 0.48154v1.1001h0.30374v-1.3039c0.16669-0.18521 0.31115-0.27781 0.45191-0.27781 0.22595 0 0.33338 0.14446 0.33338 0.48154v1.1001h0.30374v-1.1409c0-0.45932-0.1778-0.70379-0.54822-0.70379-0.21855 0-0.40376 0.14076-0.59267 0.34449-0.07408-0.21484-0.22225-0.34449-0.49636-0.34449-0.21484 0-0.40376 0.13335-0.55933 0.30374h-0.01111l-0.02593-0.25929h-0.25188z"/>
    <path d="m85.517 2.3029c0 0.32226 0.22595 0.51118 0.5297 0.51118 0.22225 0 0.42228-0.11853 0.59637-0.25929h0.0074l0.02593 0.21484h0.25188v-1.1038c0-0.4482-0.18521-0.74083-0.626-0.74083-0.28892 0-0.54081 0.12594-0.7075 0.23336l0.12224 0.21114c0.14076-0.096308 0.32597-0.19262 0.5371-0.19262 0.29263 0 0.37042 0.22225 0.37042 0.45191-0.76676 0.085196-1.1075 0.28152-1.1075 0.67416zm0.30004-0.022225c0-0.22966 0.20373-0.37783 0.80751-0.45191v0.50006c-0.1741 0.15558-0.31856 0.24077-0.49266 0.24077-0.1778 0-0.31485-0.085196-0.31485-0.28893z"/>
    <path d="m87.501 2.7697h0.30374v-1.3039c0.1815-0.1815 0.30745-0.27781 0.49265-0.27781 0.23707 0 0.34078 0.14446 0.34078 0.48154v1.1001h0.30374v-1.1409c0-0.45932-0.17039-0.70379-0.54822-0.70379-0.24818 0-0.43339 0.13335-0.60378 0.30374h-0.01111l-0.02593-0.25929h-0.25188z"/>
    <path d="m90.272 2.7697h0.30374v-1.3039c0.1815-0.1815 0.30745-0.27781 0.49265-0.27781 0.23707 0 0.34078 0.14446 0.34078 0.48154v1.1001h0.30374v-1.1409c0-0.45932-0.17039-0.70379-0.54822-0.70379-0.24818 0-0.42968 0.13335-0.60008 0.29633l0.01111-0.37042v-0.71861h-0.30374z"/>
    <path d="m92.446 0.59902c0.11853 0 0.21114-0.081492 0.21114-0.19632 0-0.11853-0.0926-0.19632-0.21114-0.19632-0.11853 0-0.21114 0.077788-0.21114 0.19632 0 0.11483 0.09261 0.19632 0.21114 0.19632zm-0.15558 2.1706h0.30374v-1.8002h-0.30374z"/>
    <path d="m93.254 2.214c0 0.3556 0.12965 0.60008 0.51488 0.60008 0.11113 0 0.23336-0.033338 0.33338-0.066675l-0.05927-0.22966c-0.05927 0.022225-0.14076 0.048154-0.20373 0.048154-0.20743 0-0.27781-0.12594-0.27781-0.34819v-1.0001h0.48525v-0.24818h-0.48524v-0.50377h-0.25559l-0.03704 0.50377-0.28152 0.018521v0.22966h0.2667z"/>
    <path d="m95.251 2.214c0 0.3556 0.12965 0.60008 0.51488 0.60008 0.11112 0 0.23336-0.033338 0.33338-0.066675l-0.05927-0.22966c-0.05927 0.022225-0.14076 0.048154-0.20373 0.048154-0.20743 0-0.27781-0.12594-0.27781-0.34819v-1.0001h0.48525v-0.24818h-0.48525v-0.50377h-0.25559l-0.03704 0.50377-0.28152 0.018521v0.22966h0.2667z"/>
    <path d="m96.45 2.7697h0.30374v-1.3039c0.1815-0.1815 0.30745-0.27781 0.49266-0.27781 0.23707 0 0.34078 0.14446 0.34078 0.48154v1.1001h0.30374v-1.1409c0-0.45932-0.17039-0.70379-0.54822-0.70379-0.24818 0-0.42968 0.13335-0.60008 0.29633l0.01111-0.37042v-0.71861h-0.30374z"/>
    <path d="m98.335 1.8733c0 0.58896 0.38153 0.94086 0.86307 0.94086 0.24448 0 0.43709-0.085196 0.59267-0.18521l-0.10742-0.20003c-0.13335 0.085196-0.27781 0.14076-0.4482 0.14076-0.34449 0-0.57785-0.24448-0.60008-0.63341h1.215c0.0074-0.04445 0.01111-0.10372 0.01111-0.16669 0-0.51488-0.25929-0.84455-0.71861-0.84455-0.41116 0-0.80751 0.3593-0.80751 0.94827zm0.29633-0.13705c0.03704-0.36301 0.2667-0.57044 0.51858-0.57044 0.28152 0 0.4445 0.20373 0.4445 0.57044z"/>
    <path d="m100.93 1.5547c0 0.79269 0.45561 1.2594 1.0927 1.2594 0.32597 0 0.59637-0.12594 0.75565-0.28152v-1.0224h-0.7964v0.25559h0.51488v0.63341c-0.0963 0.0889-0.2667 0.14446-0.44079 0.14446-0.51859 0-0.80751-0.38523-0.80751-0.99642 0-0.60378 0.31485-0.98161 0.80751-0.98161 0.24077 0 0.39264 0.096308 0.51488 0.22595l0.1778-0.19632c-0.14447-0.14817-0.36672-0.30004-0.69639-0.30004-0.65193 0-1.1224 0.47784-1.1224 1.2594z"/>
    <path d="m103.32 2.7697h0.30374v-1.3039c0.18151-0.1815 0.30745-0.27781 0.49266-0.27781 0.23706 0 0.34078 0.14446 0.34078 0.48154v1.1001h0.30374v-1.1409c0-0.45932-0.17039-0.70379-0.54821-0.70379-0.24818 0-0.42969 0.13335-0.60008 0.29633l0.0111-0.37042v-0.71861h-0.30374z"/>
    <path d="m105.2 1.8733c0 0.59637 0.39265 0.94086 0.83344 0.94086 0.4408 0 0.83344-0.34449 0.83344-0.94086 0-0.60378-0.39264-0.94827-0.83344-0.94827-0.44079 0-0.83344 0.34449-0.83344 0.94827zm0.31486 0c0-0.41487 0.21114-0.69638 0.51858-0.69638 0.31115 0 0.51859 0.28152 0.51859 0.69638 0 0.41116-0.20744 0.68898-0.51859 0.68898-0.30744 0-0.51858-0.27781-0.51858-0.68898z"/>
    <path d="m107.15 2.5659c0.17039 0.14076 0.41486 0.24818 0.67045 0.24818 0.42598 0 0.65934-0.24448 0.65934-0.5371 0-0.34078-0.28892-0.4482-0.54821-0.54451-0.20373-0.077788-0.40005-0.14446-0.40005-0.31115 0-0.13705 0.10371-0.25929 0.32967-0.25929 0.15928 0 0.28892 0.066675 0.41116 0.15928l0.14446-0.19262c-0.13705-0.11113-0.33337-0.20373-0.55933-0.20373-0.38893 0-0.61859 0.22225-0.61859 0.51118 0 0.30374 0.28151 0.42598 0.5371 0.51858 0.19632 0.074083 0.41117 0.15558 0.41117 0.34078 0 0.15558-0.11854 0.28152-0.35561 0.28152-0.21484 0-0.37412-0.0889-0.52969-0.21484z"/>
    <path d="m108.95 2.214c0 0.3556 0.12965 0.60008 0.51488 0.60008 0.11113 0 0.23337-0.033338 0.33338-0.066675l-0.0593-0.22966c-0.0593 0.022225-0.14076 0.048154-0.20373 0.048154-0.20743 0-0.27781-0.12594-0.27781-0.34819v-1.0001h0.48525v-0.24818h-0.48525v-0.50377h-0.25559l-0.037 0.50377-0.28152 0.018521v0.22966h0.2667z"/>
   </g>
   <path d="m77.148 29.384-1.3229 3.9688 1.3229 3.9688h34.396v-7.9375z" fill="#2f3744" stroke="#7b8694" stroke-miterlimit="40"/>
   <g fill="#e8eaec" stroke-linecap="round" aria-label="Going to central box">
    <path d="m79.149 33.305c0 0.79269 0.45561 1.2594 1.0927 1.2594 0.32597 0 0.59637-0.12594 0.75565-0.28152v-1.0224h-0.7964v0.25559h0.51488v0.63341c-0.09631 0.0889-0.2667 0.14446-0.4408 0.14446-0.51858 0-0.80751-0.38523-0.80751-0.99642 0-0.60378 0.31485-0.9816 0.80751-0.9816 0.24077 0 0.39264 0.09631 0.51488 0.22595l0.1778-0.19632c-0.14446-0.14817-0.36671-0.30004-0.69638-0.30004-0.65193 0-1.1224 0.47784-1.1224 1.2594z"/>
    <path d="m81.402 33.623c0 0.59637 0.39264 0.94086 0.83344 0.94086s0.83344-0.34449 0.83344-0.94086c0-0.60378-0.39264-0.94827-0.83344-0.94827s-0.83344 0.34449-0.83344 0.94827zm0.31485 0c0-0.41487 0.21114-0.69638 0.51858-0.69638 0.31115 0 0.51858 0.28152 0.51858 0.69638 0 0.41116-0.20743 0.68898-0.51858 0.68898-0.30745 0-0.51858-0.27781-0.51858-0.68898z"/>
    <path d="m83.702 32.349c0.11853 0 0.21114-0.08149 0.21114-0.19632 0-0.11853-0.0926-0.19632-0.21114-0.19632-0.11853 0-0.21114 0.07779-0.21114 0.19632 0 0.11483 0.0926 0.19632 0.21114 0.19632zm-0.15558 2.1706h0.30374v-1.8002h-0.30374z"/>
    <path d="m84.458 34.52h0.30374v-1.3039c0.1815-0.1815 0.30745-0.27781 0.49266-0.27781 0.23707 0 0.34078 0.14446 0.34078 0.48154v1.1001h0.30374v-1.1409c0-0.45932-0.17039-0.70379-0.54822-0.70379-0.24818 0-0.43339 0.13335-0.60378 0.30374h-0.01111l-0.02593-0.25929h-0.25188z"/>
    <path d="m86.614 34.823c0-0.10372 0.05556-0.21114 0.18521-0.30374 0.07779 0.02222 0.16298 0.02963 0.23336 0.02963h0.31115c0.23336 0 0.36301 0.05556 0.36301 0.22225 0 0.18891-0.22595 0.36671-0.57044 0.36671-0.32597 0-0.52229-0.12224-0.52229-0.31485zm-0.2667 0.04075c0 0.31115 0.30374 0.48525 0.74454 0.48525 0.55933 0 0.91123-0.28892 0.91123-0.6223 0-0.30004-0.21114-0.42968-0.62971-0.42968h-0.34819c-0.24448 0-0.31856-0.08149-0.31856-0.19632 0-0.10001 0.05186-0.15928 0.11483-0.21484 0.08149 0.04075 0.1815 0.06297 0.2704 0.06297 0.36671 0 0.65934-0.24077 0.65934-0.626 0-0.15187-0.06297-0.28892-0.14817-0.37042h0.37042v-0.23336h-0.626c-0.06668-0.02593-0.15558-0.04445-0.25559-0.04445-0.36671 0-0.67786 0.24818-0.67786 0.64082 0 0.21484 0.11483 0.38894 0.23336 0.48525v0.01482c-0.0926 0.06297-0.19632 0.1815-0.19632 0.33338 0 0.14076 0.07038 0.23707 0.15928 0.29263v0.01482c-0.16298 0.11112-0.263 0.25559-0.263 0.40746zm0.74454-1.1187c-0.20743 0-0.38153-0.16669-0.38153-0.42968 0-0.263 0.17039-0.41857 0.38153-0.41857s0.38153 0.15558 0.38153 0.41857c0 0.263-0.1741 0.42968-0.38153 0.42968z"/>
    <path d="m89.148 33.964c0 0.3556 0.12965 0.60008 0.51488 0.60008 0.11112 0 0.23336-0.03334 0.33338-0.06668l-0.05927-0.22966c-0.05927 0.02222-0.14076 0.04815-0.20373 0.04815-0.20743 0-0.27781-0.12594-0.27781-0.34819v-1.0001h0.48525v-0.24818h-0.48525v-0.50377h-0.25559l-0.03704 0.50377-0.28152 0.01852v0.22966h0.2667z"/>
    <path d="m90.178 33.623c0 0.59637 0.39264 0.94086 0.83344 0.94086 0.4408 0 0.83344-0.34449 0.83344-0.94086 0-0.60378-0.39264-0.94827-0.83344-0.94827-0.4408 0-0.83344 0.34449-0.83344 0.94827zm0.31486 0c0-0.41487 0.21114-0.69638 0.51858-0.69638 0.31115 0 0.51858 0.28152 0.51858 0.69638 0 0.41116-0.20743 0.68898-0.51858 0.68898-0.30745 0-0.51858-0.27781-0.51858-0.68898z"/>
    <path d="m92.934 33.623c0 0.59637 0.36671 0.94086 0.84455 0.94086 0.21484 0 0.42228-0.0889 0.58526-0.23336l-0.13705-0.20002c-0.10742 0.09631-0.25188 0.1815-0.42228 0.1815-0.32967 0-0.55562-0.27781-0.55562-0.68898 0-0.41487 0.23707-0.69638 0.56303-0.69638 0.14446 0 0.25559 0.06667 0.36301 0.15928l0.15187-0.19632c-0.12224-0.11483-0.28892-0.21484-0.52599-0.21484-0.46302 0-0.86678 0.34449-0.86678 0.94827z"/>
    <path d="m94.541 33.623c0 0.58896 0.38153 0.94086 0.86307 0.94086 0.24448 0 0.43709-0.0852 0.59267-0.18521l-0.10742-0.20002c-0.13335 0.0852-0.27781 0.14076-0.4482 0.14076-0.34449 0-0.57785-0.24448-0.60008-0.63341h1.215c0.0074-0.04445 0.01111-0.10372 0.01111-0.16669 0-0.51488-0.25929-0.84455-0.71861-0.84455-0.41116 0-0.80751 0.3593-0.80751 0.94827zm0.29633-0.13706c0.03704-0.36301 0.2667-0.57044 0.51858-0.57044 0.28152 0 0.4445 0.20373 0.4445 0.57044z"/>
    <path d="m96.512 34.52h0.30374v-1.3039c0.1815-0.1815 0.30745-0.27781 0.49266-0.27781 0.23707 0 0.34078 0.14446 0.34078 0.48154v1.1001h0.30374v-1.1409c0-0.45932-0.17039-0.70379-0.54822-0.70379-0.24818 0-0.43339 0.13335-0.60378 0.30374h-0.01111l-0.02593-0.25929h-0.25188z"/>
    <path d="m98.589 33.964c0 0.3556 0.12965 0.60008 0.51488 0.60008 0.11112 0 0.23336-0.03334 0.33338-0.06668l-0.05927-0.22966c-0.05927 0.02222-0.14076 0.04815-0.20373 0.04815-0.20743 0-0.27781-0.12594-0.27781-0.34819v-1.0001h0.48525v-0.24818h-0.48525v-0.50377h-0.25559l-0.03704 0.50377-0.28152 0.01852v0.22966h0.2667z"/>
    <path d="m99.789 34.52h0.30374v-1.1557c0.12224-0.30374 0.30374-0.41487 0.45561-0.41487 0.0741 0 0.11483 0.01111 0.1741 0.02963l0.0593-0.2667c-0.0593-0.02593-0.11483-0.03704-0.19262-0.03704-0.20373 0-0.38894 0.14446-0.51118 0.37042h-0.0111l-0.0259-0.32597h-0.25188z"/>
    <path d="m100.89 34.053c0 0.32226 0.22596 0.51118 0.5297 0.51118 0.22225 0 0.42228-0.11853 0.59637-0.25929h7e-3l0.0259 0.21484h0.25188v-1.1038c0-0.4482-0.18521-0.74083-0.626-0.74083-0.28893 0-0.54081 0.12594-0.7075 0.23336l0.12224 0.21114c0.14076-0.09631 0.32597-0.19262 0.5371-0.19262 0.29263 0 0.37042 0.22225 0.37042 0.45191-0.76676 0.0852-1.1076 0.28152-1.1076 0.67416zm0.30004-0.02222c0-0.22966 0.20373-0.37782 0.80751-0.45191v0.50006c-0.1741 0.15558-0.31856 0.24077-0.49265 0.24077-0.1778 0-0.31486-0.0852-0.31486-0.28893z"/>
    <path d="m102.88 34.157c0 0.263 0.0926 0.40746 0.32226 0.40746 0.0815 0 0.13335-0.01111 0.1741-0.02963l-0.0408-0.22966c-0.0333 0.0074-0.0481 0.0074-0.0667 0.0074-0.0444 0-0.0852-0.03704-0.0852-0.13335v-2.2966h-0.30374z"/>
    <path d="m104.57 34.52h0.24447l0.0259-0.1778h0.0111c0.15928 0.14076 0.34819 0.22225 0.51488 0.22225 0.41116 0 0.77787-0.3593 0.77787-0.9742 0-0.55562-0.24818-0.91493-0.7149-0.91493-0.20003 0-0.40005 0.10742-0.56304 0.25188l7e-3 -0.32597v-0.71861h-0.30374zm0.30374-0.40005v-0.94456c0.17039-0.15928 0.32967-0.24448 0.48154-0.24448 0.34079 0 0.47414 0.2667 0.47414 0.66305 0 0.4445-0.21855 0.7149-0.51488 0.7149-0.11854 0-0.28152-0.05186-0.4408-0.18891z"/>
    <path d="m106.49 33.623c0 0.59637 0.39264 0.94086 0.83343 0.94086 0.4408 0 0.83344-0.34449 0.83344-0.94086 0-0.60378-0.39264-0.94827-0.83344-0.94827-0.44079 0-0.83343 0.34449-0.83343 0.94827zm0.31485 0c0-0.41487 0.21114-0.69638 0.51858-0.69638 0.31115 0 0.51859 0.28152 0.51859 0.69638 0 0.41116-0.20744 0.68898-0.51859 0.68898-0.30744 0-0.51858-0.27781-0.51858-0.68898z"/>
    <path d="m108.32 34.52h0.31856l0.24447-0.41857c0.0593-0.11113 0.11854-0.21855 0.18151-0.32226h0.0148c0.0667 0.10372 0.13335 0.21484 0.19632 0.32226l0.263 0.41857h0.32967l-0.58526-0.90752 0.54452-0.8927h-0.31856l-0.21855 0.39635c-0.0556 0.09631-0.11112 0.20003-0.16298 0.30004h-0.0148c-0.063-0.10001-0.12224-0.20373-0.1778-0.30004l-0.24077-0.39635h-0.32967l0.54451 0.85937z"/>
   </g>
   <path d="m93.023 37.322-1.3229 3.9688 1.3229 3.9687h18.521v-7.9375z" fill="#2f3744" stroke="#7b8694" stroke-miterlimit="40"/>
   <g fill="#e8eaec" stroke-linecap="round" aria-label="Escaping">
    <path d="m94.963 42.457h1.4372v-0.263h-1.1261v-0.88159h0.91863v-0.263h-0.91863v-0.76306h1.089v-0.25929h-1.4002z"/>
    <path d="m96.676 42.253c0.17039 0.14076 0.41487 0.24818 0.67046 0.24818 0.42598 0 0.65934-0.24448 0.65934-0.5371 0-0.34078-0.28892-0.4482-0.54822-0.54451-0.20373-0.07779-0.40005-0.14446-0.40005-0.31115 0-0.13705 0.10372-0.25929 0.32967-0.25929 0.15928 0 0.28892 0.06667 0.41116 0.15928l0.14446-0.19262c-0.13705-0.11112-0.33338-0.20373-0.55933-0.20373-0.38894 0-0.6186 0.22225-0.6186 0.51118 0 0.30374 0.28152 0.42598 0.5371 0.51858 0.19632 0.07408 0.41116 0.15558 0.41116 0.34078 0 0.15558-0.11853 0.28152-0.3556 0.28152-0.21484 0-0.37412-0.0889-0.5297-0.21484z"/>
    <path d="m98.298 41.561c0 0.59637 0.36671 0.94086 0.84455 0.94086 0.21484 0 0.42228-0.0889 0.58526-0.23336l-0.13706-0.20002c-0.10742 0.09631-0.25188 0.1815-0.42228 0.1815-0.32967 0-0.55563-0.27781-0.55563-0.68898 0-0.41487 0.23707-0.69638 0.56303-0.69638 0.14446 0 0.25559 0.06667 0.36301 0.15928l0.15187-0.19632c-0.12224-0.11483-0.28892-0.21484-0.52599-0.21484-0.46302 0-0.86678 0.34449-0.86678 0.94827z"/>
    <path d="m99.992 41.99c0 0.32226 0.22595 0.51118 0.52969 0.51118 0.22225 0 0.42228-0.11853 0.59638-0.25929h7e-3l0.0259 0.21484h0.25189v-1.1038c0-0.4482-0.18521-0.74083-0.62601-0.74083-0.28892 0-0.54081 0.12594-0.70749 0.23336l0.12223 0.21114c0.14076-0.09631 0.32597-0.19262 0.53711-0.19262 0.29263 0 0.37042 0.22225 0.37042 0.45191-0.76677 0.0852-1.1076 0.28152-1.1076 0.67416zm0.30004-0.02222c0-0.22966 0.20373-0.37782 0.80751-0.45191v0.50006c-0.1741 0.15558-0.31856 0.24077-0.49266 0.24077-0.1778 0-0.31485-0.0852-0.31485-0.28893z"/>
    <path d="m102.27 42.294c0.16668 0.12965 0.33337 0.20743 0.50006 0.20743 0.41116 0 0.77787-0.3593 0.77787-0.97049 0-0.55933-0.24818-0.91863-0.7112-0.91863-0.21113 0-0.41116 0.11483-0.57414 0.25188h-0.0111l-0.0259-0.20743h-0.25188v2.5596h0.30374v-0.60748zm7e-3 -0.23707v-0.94456c0.1778-0.15928 0.32967-0.24448 0.48155-0.24448 0.34078 0 0.47413 0.2667 0.47413 0.66305 0 0.4445-0.21855 0.7149-0.51488 0.7149-0.11853 0-0.27781-0.05186-0.4408-0.18891z"/>
    <path d="m104.19 40.287c0.11854 0 0.21114-0.08149 0.21114-0.19632 0-0.11853-0.0926-0.19632-0.21114-0.19632-0.11853 0-0.21113 0.07779-0.21113 0.19632 0 0.11483 0.0926 0.19632 0.21113 0.19632zm-0.15557 2.1706h0.30374v-1.8002h-0.30374z"/>
    <path d="m104.94 42.457h0.30374v-1.3039c0.18151-0.1815 0.30745-0.27781 0.49266-0.27781 0.23707 0 0.34078 0.14446 0.34078 0.48154v1.1001h0.30374v-1.1409c0-0.45932-0.17039-0.70379-0.54821-0.70379-0.24818 0-0.43339 0.13335-0.60378 0.30374h-0.0111l-0.0259-0.25929h-0.25189z"/>
    <path d="m107.1 42.761c0-0.10372 0.0556-0.21114 0.1852-0.30374 0.0778 0.02222 0.16299 0.02963 0.23337 0.02963h0.31115c0.23336 0 0.36301 0.05556 0.36301 0.22225 0 0.18891-0.22596 0.36671-0.57045 0.36671-0.32596 0-0.52228-0.12224-0.52228-0.31485zm-0.2667 0.04075c0 0.31115 0.30374 0.48525 0.74453 0.48525 0.55933 0 0.91123-0.28892 0.91123-0.6223 0-0.30004-0.21114-0.42968-0.62971-0.42968h-0.34819c-0.24448 0-0.31856-0.08149-0.31856-0.19632 0-0.10001 0.0519-0.15928 0.11483-0.21484 0.0815 0.04075 0.1815 0.06297 0.2704 0.06297 0.36672 0 0.65935-0.24077 0.65935-0.626 0-0.15187-0.063-0.28892-0.14817-0.37042h0.37042v-0.23336h-0.62601c-0.0667-0.02593-0.15557-0.04445-0.25559-0.04445-0.36671 0-0.67786 0.24818-0.67786 0.64082 0 0.21484 0.11483 0.38894 0.23336 0.48525v0.01482c-0.0926 0.06297-0.19632 0.1815-0.19632 0.33338 0 0.14076 0.0704 0.23707 0.15928 0.29263v0.01482c-0.16298 0.11112-0.26299 0.25559-0.26299 0.40746zm0.74453-1.1187c-0.20743 0-0.38153-0.16669-0.38153-0.42968 0-0.263 0.1704-0.41857 0.38153-0.41857 0.21114 0 0.38153 0.15558 0.38153 0.41857 0 0.263-0.17409 0.42968-0.38153 0.42968z"/>
   </g>
   <g fill="#e8eaec" stroke-linecap="round" aria-label="Ghost">
    <path d="m3.1802 25.367c0 0.79269 0.45561 1.2594 1.0927 1.2594 0.32597 0 0.59637-0.12594 0.75565-0.28152v-1.0224h-0.7964v0.25559h0.51488v0.63341c-0.096308 0.0889-0.2667 0.14446-0.4408 0.14446-0.51858 0-0.80751-0.38523-0.80751-0.99642 0-0.60378 0.31485-0.9816 0.80751-0.9816 0.24077 0 0.39264 0.09631 0.51488 0.22595l0.1778-0.19632c-0.14446-0.14817-0.36671-0.30004-0.69638-0.30004-0.65193 0-1.1224 0.47784-1.1224 1.2594z"/>
    <path d="m5.5669 26.582h0.30374v-1.3039c0.1815-0.1815 0.30745-0.27781 0.49265-0.27781 0.23707 0 0.34078 0.14446 0.34078 0.48154v1.1001h0.30374v-1.1409c0-0.45932-0.17039-0.70379-0.54822-0.70379-0.24818 0-0.42968 0.13335-0.60008 0.29633l0.011112-0.37042v-0.71861h-0.30374z"/>
    <path d="m7.4521 25.686c0 0.59637 0.39264 0.94086 0.83344 0.94086 0.4408 0 0.83344-0.34449 0.83344-0.94086 0-0.60378-0.39264-0.94827-0.83344-0.94827-0.4408 0-0.83344 0.34449-0.83344 0.94827zm0.31485 0c0-0.41487 0.21114-0.69638 0.51858-0.69638 0.31115 0 0.51858 0.28152 0.51858 0.69638 0 0.41116-0.20743 0.68898-0.51858 0.68898-0.30745 0-0.51858-0.27781-0.51858-0.68898z"/>
    <path d="m9.3966 26.378c0.17039 0.14076 0.41487 0.24818 0.67045 0.24818 0.42598 0 0.65934-0.24448 0.65934-0.5371 0-0.34078-0.28893-0.4482-0.54822-0.54451-0.20373-0.07779-0.40005-0.14446-0.40005-0.31115 0-0.13705 0.10372-0.25929 0.32967-0.25929 0.15928 0 0.28892 0.06668 0.41116 0.15928l0.14446-0.19262c-0.13706-0.11112-0.33338-0.20373-0.55933-0.20373-0.38894 0-0.6186 0.22225-0.6186 0.51118 0 0.30374 0.28152 0.42598 0.5371 0.51858 0.19632 0.07408 0.41116 0.15558 0.41116 0.34078 0 0.15558-0.11853 0.28152-0.3556 0.28152-0.21484 0-0.37412-0.0889-0.5297-0.21484z"/>
    <path d="m11.204 26.027c0 0.3556 0.12965 0.60008 0.51488 0.60008 0.11112 0 0.23336-0.03334 0.33338-0.06668l-0.05927-0.22966c-0.05927 0.02223-0.14076 0.04815-0.20373 0.04815-0.20743 0-0.27781-0.12594-0.27781-0.34819v-1.0001h0.48525v-0.24818h-0.48525v-0.50377h-0.25559l-0.03704 0.50377-0.28152 0.01852v0.22966h0.2667z"/>
   </g>
   <path d="m40.107 21.447-1.3229 3.9688 1.3229 3.9687h50.271l1.3229-3.9687-1.3229-3.9688z" fill="#2f3744" stroke="#7b8694" stroke-miterlimit="40"/>
   <path d="m14.971 21.447v7.9375h22.49l1.3229-3.9687-1.3229-3.9688z" fill="#2f3744" stroke="#7b8694" stroke-miterlimit="40"/>
   <g fill="#e8eaec" stroke-linecap="round" aria-label="Chasing">
    <path d="m20.705 25.367c0 0.79269 0.45561 1.2594 1.0668 1.2594 0.30745 0 0.54822-0.12965 0.73713-0.3519l-0.1741-0.18891c-0.15558 0.1741-0.32597 0.2704-0.55562 0.2704-0.46302 0-0.75565-0.38523-0.75565-0.99642 0-0.60378 0.30745-0.9816 0.77047-0.9816 0.20003 0 0.3556 0.0889 0.48525 0.22595l0.1741-0.19632c-0.14446-0.15928-0.37412-0.30004-0.66305-0.30004-0.6223 0-1.0853 0.47784-1.0853 1.2594z"/>
    <path d="m22.925 26.582h0.30374v-1.3039c0.1815-0.1815 0.30745-0.27781 0.49266-0.27781 0.23707 0 0.34078 0.14446 0.34078 0.48154v1.1001h0.30374v-1.1409c0-0.45932-0.17039-0.70379-0.54822-0.70379-0.24818 0-0.42968 0.13335-0.60008 0.29633l0.01111-0.37042v-0.71861h-0.30374z"/>
    <path d="m24.855 26.115c0 0.32226 0.22595 0.51118 0.5297 0.51118 0.22225 0 0.42228-0.11853 0.59637-0.25929h0.0074l0.02593 0.21484h0.25188v-1.1038c0-0.4482-0.18521-0.74083-0.626-0.74083-0.28893 0-0.54081 0.12594-0.7075 0.23336l0.12224 0.21114c0.14076-0.09631 0.32597-0.19262 0.5371-0.19262 0.29263 0 0.37042 0.22225 0.37042 0.45191-0.76676 0.0852-1.1075 0.28152-1.1075 0.67416zm0.30004-0.02222c0-0.22966 0.20373-0.37783 0.80751-0.45191v0.50006c-0.1741 0.15558-0.31856 0.24077-0.49265 0.24077-0.1778 0-0.31486-0.0852-0.31486-0.28892z"/>
    <path d="m26.639 26.378c0.17039 0.14076 0.41487 0.24818 0.67045 0.24818 0.42598 0 0.65934-0.24448 0.65934-0.5371 0-0.34078-0.28893-0.4482-0.54822-0.54451-0.20373-0.07779-0.40005-0.14446-0.40005-0.31115 0-0.13705 0.10372-0.25929 0.32967-0.25929 0.15928 0 0.28892 0.06668 0.41116 0.15928l0.14446-0.19262c-0.13706-0.11112-0.33338-0.20373-0.55933-0.20373-0.38894 0-0.6186 0.22225-0.6186 0.51118 0 0.30374 0.28152 0.42598 0.5371 0.51858 0.19632 0.07408 0.41116 0.15558 0.41116 0.34078 0 0.15558-0.11853 0.28152-0.3556 0.28152-0.21484 0-0.37412-0.0889-0.5297-0.21484z"/>
    <path d="m28.55 24.412c0.11853 0 0.21114-0.08149 0.21114-0.19632 0-0.11853-0.0926-0.19632-0.21114-0.19632-0.11853 0-0.21114 0.07779-0.21114 0.19632 0 0.11483 0.0926 0.19632 0.21114 0.19632zm-0.15558 2.1706h0.30374v-1.8002h-0.30374z"/>
    <path d="m29.306 26.582h0.30374v-1.3039c0.1815-0.1815 0.30745-0.27781 0.49266-0.27781 0.23707 0 0.34078 0.14446 0.34078 0.48154v1.1001h0.30374v-1.1409c0-0.45932-0.17039-0.70379-0.54822-0.70379-0.24818 0-0.43339 0.13335-0.60378 0.30374h-0.01111l-0.02593-0.25929h-0.25188z"/>
    <path d="m31.462 26.886c0-0.10372 0.05556-0.21114 0.18521-0.30374 0.07779 0.02223 0.16298 0.02963 0.23336 0.02963h0.31115c0.23336 0 0.36301 0.05556 0.36301 0.22225 0 0.18891-0.22595 0.36671-0.57044 0.36671-0.32597 0-0.52229-0.12224-0.52229-0.31486zm-0.2667 0.04075c0 0.31115 0.30374 0.48525 0.74454 0.48525 0.55933 0 0.91123-0.28892 0.91123-0.6223 0-0.30004-0.21114-0.42968-0.62971-0.42968h-0.34819c-0.24448 0-0.31856-0.08149-0.31856-0.19632 0-0.10001 0.05186-0.15928 0.11483-0.21484 0.08149 0.04075 0.1815 0.06297 0.2704 0.06297 0.36671 0 0.65934-0.24077 0.65934-0.626 0-0.15187-0.06297-0.28892-0.14817-0.37042h0.37042v-0.23336h-0.626c-0.06668-0.02593-0.15558-0.04445-0.25559-0.04445-0.36671 0-0.67786 0.24818-0.67786 0.64082 0 0.21484 0.11483 0.38894 0.23336 0.48525v0.01482c-0.0926 0.06297-0.19632 0.1815-0.19632 0.33338 0 0.14076 0.07038 0.23707 0.15928 0.29263v0.01482c-0.16298 0.11112-0.263 0.25559-0.263 0.40746zm0.74454-1.1187c-0.20743 0-0.38153-0.16669-0.38153-0.42968s0.17039-0.41857 0.38153-0.41857 0.38153 0.15558 0.38153 0.41857-0.1741 0.42968-0.38153 0.42968z"/>
   </g>
   <g fill="#e8eaec" stroke-linecap="round" aria-label="Escaping">
    <path d="m58.451 26.582h1.4372v-0.263h-1.1261v-0.88159h0.91863v-0.263h-0.91863v-0.76306h1.089v-0.25929h-1.4002z"/>
    <path d="m60.164 26.378c0.17039 0.14076 0.41487 0.24818 0.67046 0.24818 0.42598 0 0.65934-0.24448 0.65934-0.5371 0-0.34078-0.28892-0.4482-0.54822-0.54451-0.20373-0.07779-0.40005-0.14446-0.40005-0.31115 0-0.13705 0.10372-0.25929 0.32967-0.25929 0.15928 0 0.28893 0.06668 0.41116 0.15928l0.14446-0.19262c-0.13705-0.11112-0.33338-0.20373-0.55933-0.20373-0.38894 0-0.6186 0.22225-0.6186 0.51118 0 0.30374 0.28152 0.42598 0.5371 0.51858 0.19632 0.07408 0.41116 0.15558 0.41116 0.34078 0 0.15558-0.11853 0.28152-0.3556 0.28152-0.21484 0-0.37412-0.0889-0.5297-0.21484z"/>
    <path d="m61.786 25.686c0 0.59637 0.36671 0.94086 0.84455 0.94086 0.21484 0 0.42228-0.0889 0.58526-0.23336l-0.13705-0.20002c-0.10742 0.09631-0.25188 0.1815-0.42228 0.1815-0.32967 0-0.55563-0.27781-0.55563-0.68898 0-0.41487 0.23707-0.69638 0.56303-0.69638 0.14446 0 0.25559 0.06668 0.36301 0.15928l0.15187-0.19632c-0.12224-0.11483-0.28893-0.21484-0.52599-0.21484-0.46302 0-0.86678 0.34449-0.86678 0.94827z"/>
    <path d="m63.48 26.115c0 0.32226 0.22595 0.51118 0.5297 0.51118 0.22225 0 0.42228-0.11853 0.59637-0.25929h0.0074l0.02593 0.21484h0.25188v-1.1038c0-0.4482-0.18521-0.74083-0.626-0.74083-0.28892 0-0.54081 0.12594-0.7075 0.23336l0.12224 0.21114c0.14076-0.09631 0.32597-0.19262 0.5371-0.19262 0.29263 0 0.37042 0.22225 0.37042 0.45191-0.76676 0.0852-1.1075 0.28152-1.1075 0.67416zm0.30004-0.02222c0-0.22966 0.20373-0.37783 0.80751-0.45191v0.50006c-0.1741 0.15558-0.31856 0.24077-0.49266 0.24077-0.1778 0-0.31485-0.0852-0.31485-0.28892z"/>
    <path d="m65.761 26.419c0.16669 0.12965 0.33338 0.20743 0.50006 0.20743 0.41116 0 0.77788-0.3593 0.77788-0.97049 0-0.55933-0.24818-0.91864-0.7112-0.91864-0.21114 0-0.41116 0.11483-0.57415 0.25188h-0.01111l-0.02593-0.20743h-0.25188v2.5596h0.30374v-0.60748zm0.0074-0.23707v-0.94456c0.1778-0.15928 0.32967-0.24448 0.48154-0.24448 0.34078 0 0.47413 0.2667 0.47413 0.66305 0 0.4445-0.21855 0.7149-0.51488 0.7149-0.11853 0-0.27781-0.05186-0.4408-0.18891z"/>
    <path d="m67.675 24.412c0.11853 0 0.21114-0.08149 0.21114-0.19632 0-0.11853-0.0926-0.19632-0.21114-0.19632-0.11853 0-0.21114 0.07779-0.21114 0.19632 0 0.11483 0.0926 0.19632 0.21114 0.19632zm-0.15558 2.1706h0.30374v-1.8002h-0.30374z"/>
    <path d="m68.431 26.582h0.30374v-1.3039c0.1815-0.1815 0.30745-0.27781 0.49265-0.27781 0.23707 0 0.34078 0.14446 0.34078 0.48154v1.1001h0.30374v-1.1409c0-0.45932-0.17039-0.70379-0.54822-0.70379-0.24818 0-0.43339 0.13335-0.60378 0.30374h-0.01111l-0.02593-0.25929h-0.25188z"/>
    <path d="m70.586 26.886c0-0.10372 0.05556-0.21114 0.18521-0.30374 0.07779 0.02223 0.16298 0.02963 0.23336 0.02963h0.31115c0.23336 0 0.36301 0.05556 0.36301 0.22225 0 0.18891-0.22595 0.36671-0.57044 0.36671-0.32597 0-0.52229-0.12224-0.52229-0.31486zm-0.2667 0.04075c0 0.31115 0.30374 0.48525 0.74454 0.48525 0.55933 0 0.91123-0.28892 0.91123-0.6223 0-0.30004-0.21114-0.42968-0.62971-0.42968h-0.34819c-0.24448 0-0.31856-0.08149-0.31856-0.19632 0-0.10001 0.05186-0.15928 0.11483-0.21484 0.08149 0.04075 0.1815 0.06297 0.2704 0.06297 0.36671 0 0.65934-0.24077 0.65934-0.626 0-0.15187-0.06297-0.28892-0.14817-0.37042h0.37042v-0.23336h-0.626c-0.06668-0.02593-0.15558-0.04445-0.25559-0.04445-0.36671 0-0.67786 0.24818-0.67786 0.64082 0 0.21484 0.11483 0.38894 0.23336 0.48525v0.01482c-0.0926 0.06297-0.19632 0.1815-0.19632 0.33338 0 0.14076 0.07038 0.23707 0.15928 0.29263v0.01482c-0.16298 0.11112-0.263 0.25559-0.263 0.40746zm0.74454-1.1187c-0.20743 0-0.38153-0.16669-0.38153-0.42968s0.17039-0.41857 0.38153-0.41857c0.21114 0 0.38153 0.15558 0.38153 0.41857s-0.1741 0.42968-0.38153 0.42968z"/>
   </g>
  </g>
  <path d="m91.701 45.259v-37.042" fill="#2f3744" stroke="#7b8694" stroke-dasharray="0.264583, 0.264583" stroke-miterlimit="40"/>
  <g>
   <g fill="#e8eaec" stroke-linecap="round" aria-label="Power pellet timeout">
    <path d="m92.426 10.707h0.31115v-0.96308h0.43709c0.5297 0 0.89641-0.24077 0.89641-0.75195 0-0.5334-0.3593-0.7149-0.89641-0.7149h-0.74824zm0.31115-1.215v-0.96679h0.39635c0.41857 0 0.62971 0.11483 0.62971 0.46673 0 0.34449-0.20373 0.50006-0.62971 0.50006z"/>
    <path d="m94.299 9.8107c0 0.59637 0.39264 0.94086 0.83344 0.94086 0.4408 0 0.83344-0.34449 0.83344-0.94086 0-0.60378-0.39264-0.94827-0.83344-0.94827-0.4408 0-0.83344 0.34449-0.83344 0.94827zm0.31486 0c0-0.41487 0.21114-0.69638 0.51858-0.69638 0.31115 0 0.51858 0.28152 0.51858 0.69638 0 0.41116-0.20743 0.68898-0.51858 0.68898-0.30745 0-0.51858-0.27781-0.51858-0.68898z"/>
    <path d="m96.715 10.707h0.3556l0.25188-0.96308c0.04815-0.17039 0.08519-0.34078 0.12594-0.52229h0.01482c0.04445 0.1815 0.07779 0.34819 0.12224 0.51858l0.25929 0.96679h0.37042l0.48154-1.8002h-0.28893l-0.263 1.0409c-0.037041 0.17039-0.070379 0.33338-0.11112 0.50006h-0.014816c-0.04075-0.16669-0.08149-0.32967-0.12594-0.50006l-0.28152-1.0409h-0.29633l-0.27781 1.0409c-0.04445 0.16669-0.08149 0.33338-0.12224 0.50006h-0.01482c-0.03334-0.16669-0.06668-0.32967-0.10742-0.50006l-0.2667-1.0409h-0.31115z"/>
    <path d="m98.944 9.8107c0 0.58896 0.38153 0.94086 0.86307 0.94086 0.24448 0 0.4371-0.0852 0.59266-0.18521l-0.10742-0.20003c-0.13335 0.0852-0.27781 0.14076-0.4482 0.14076-0.34449 0-0.57785-0.24448-0.60008-0.63341h1.215c7e-3 -0.04445 0.0111-0.10372 0.0111-0.16669 0-0.51488-0.25929-0.84455-0.71861-0.84455-0.41116 0-0.80751 0.3593-0.80751 0.94827zm0.29633-0.13705c0.03704-0.36301 0.2667-0.57044 0.51858-0.57044 0.28152 0 0.4445 0.20373 0.4445 0.57044z"/>
    <path d="m100.92 10.707h0.30374v-1.1557c0.12224-0.30374 0.30374-0.41487 0.45561-0.41487 0.0741 0 0.11483 0.011112 0.1741 0.029633l0.0593-0.2667c-0.0593-0.025929-0.11483-0.037042-0.19262-0.037042-0.20373 0-0.38894 0.14446-0.51118 0.37042h-0.0111l-0.0259-0.32597h-0.25188z"/>
    <path d="m103.24 10.544c0.16669 0.12965 0.33338 0.20743 0.50007 0.20743 0.41116 0 0.77787-0.3593 0.77787-0.97049 0-0.55933-0.24818-0.91863-0.7112-0.91863-0.21113 0-0.41116 0.11483-0.57414 0.25188h-0.0111l-0.0259-0.20743h-0.25188v2.5596h0.30374v-0.60748zm7e-3 -0.23707v-0.94456c0.1778-0.15928 0.32967-0.24448 0.48155-0.24448 0.34078 0 0.47413 0.2667 0.47413 0.66305 0 0.4445-0.21855 0.7149-0.51488 0.7149-0.11853 0-0.27781-0.05186-0.4408-0.18891z"/>
    <path d="m104.87 9.8107c0 0.58896 0.38153 0.94086 0.86307 0.94086 0.24448 0 0.43709-0.0852 0.59267-0.18521l-0.10742-0.20003c-0.13335 0.0852-0.27782 0.14076-0.44821 0.14076-0.34449 0-0.57785-0.24448-0.60007-0.63341h1.215c7e-3 -0.04445 0.0111-0.10372 0.0111-0.16669 0-0.51488-0.2593-0.84455-0.71861-0.84455-0.41117 0-0.80751 0.3593-0.80751 0.94827zm0.29633-0.13705c0.037-0.36301 0.2667-0.57044 0.51859-0.57044 0.28151 0 0.4445 0.20373 0.4445 0.57044z"/>
    <path d="m106.84 10.344c0 0.263 0.0926 0.40746 0.32227 0.40746 0.0815 0 0.13335-0.01111 0.17409-0.02963l-0.0407-0.22966c-0.0333 0.0074-0.0482 0.0074-0.0667 0.0074-0.0444 0-0.0852-0.03704-0.0852-0.13335v-2.2966h-0.30375z"/>
    <path d="m107.79 10.344c0 0.263 0.0926 0.40746 0.32226 0.40746 0.0815 0 0.13335-0.01111 0.1741-0.02963l-0.0408-0.22966c-0.0333 0.0074-0.0482 0.0074-0.0667 0.0074-0.0444 0-0.0852-0.03704-0.0852-0.13335v-2.2966h-0.30366z"/>
    <path d="m108.6 9.8107c0 0.58896 0.38153 0.94086 0.86307 0.94086 0.24447 0 0.43709-0.0852 0.59267-0.18521l-0.10743-0.20003c-0.13335 0.0852-0.27781 0.14076-0.4482 0.14076-0.34449 0-0.57785-0.24448-0.60008-0.63341h1.215c7e-3 -0.04445 0.0111-0.10372 0.0111-0.16669 0-0.51488-0.25929-0.84455-0.7186-0.84455-0.41117 0-0.80751 0.3593-0.80751 0.94827zm0.29633-0.13705c0.037-0.36301 0.2667-0.57044 0.51858-0.57044 0.28152 0 0.4445 0.20373 0.4445 0.57044z"/>
    <path d="m110.57 10.152c0 0.3556 0.12964 0.60008 0.51488 0.60008 0.11112 0 0.23336-0.03334 0.33337-0.06668l-0.0593-0.22966c-0.0593 0.02223-0.14076 0.04815-0.20373 0.04815-0.20744 0-0.27782-0.12594-0.27782-0.34819v-1.0001h0.48525v-0.24818h-0.48525v-0.50377h-0.25558l-0.0371 0.50377-0.28151 0.018521v0.22966h0.2667z"/>
    <path d="m92.459 14.818c0 0.3556 0.12965 0.60008 0.51488 0.60008 0.11113 0 0.23336-0.03334 0.33338-0.06668l-0.059267-0.22965c-0.05927 0.02222-0.14076 0.04815-0.20373 0.04815-0.20743 0-0.27781-0.12594-0.27781-0.34819v-1.0001h0.48525v-0.24818h-0.48525v-0.50377h-0.25559l-0.03704 0.50377-0.28152 0.01852v0.22966h0.2667z"/>
    <path d="m93.814 13.203c0.11853 0 0.21114-0.08149 0.21114-0.19632 0-0.11853-0.0926-0.19632-0.21114-0.19632-0.11853 0-0.21114 0.07779-0.21114 0.19632 0 0.11483 0.0926 0.19632 0.21114 0.19632zm-0.15558 2.1706h0.30374v-1.8002h-0.30374z"/>
    <path d="m94.57 15.374h0.30374v-1.3039c0.16669-0.18521 0.31856-0.27781 0.45191-0.27781 0.22966 0 0.33708 0.14446 0.33708 0.48154v1.1001h0.30374v-1.3039c0.16669-0.18521 0.31115-0.27781 0.45191-0.27781 0.22595 0 0.33338 0.14446 0.33338 0.48154v1.1001h0.30374v-1.1409c0-0.45932-0.1778-0.70379-0.54822-0.70379-0.21855 0-0.40376 0.14076-0.59267 0.34449-0.07408-0.21484-0.22225-0.34449-0.49636-0.34449-0.21484 0-0.40376 0.13335-0.55933 0.30374h-0.01111l-0.02593-0.25929h-0.25188z"/>
    <path d="m97.504 14.477c0 0.58896 0.38153 0.94086 0.86307 0.94086 0.24448 0 0.43709-0.0852 0.59267-0.18521l-0.10742-0.20002c-0.13335 0.0852-0.27781 0.14076-0.4482 0.14076-0.34449 0-0.57785-0.24448-0.60008-0.63341h1.215c0.0074-0.04445 0.01111-0.10372 0.01111-0.16669 0-0.51488-0.25929-0.84455-0.71861-0.84455-0.41116 0-0.80751 0.3593-0.80751 0.94827zm0.29633-0.13705c0.03704-0.36301 0.2667-0.57044 0.51858-0.57044 0.28152 0 0.4445 0.20373 0.4445 0.57044z"/>
    <path d="m99.342 14.477c0 0.59637 0.39264 0.94086 0.83344 0.94086 0.4408 0 0.83344-0.34449 0.83344-0.94086 0-0.60378-0.39264-0.94827-0.83344-0.94827-0.4408 0-0.83344 0.34449-0.83344 0.94827zm0.31486 0c0-0.41487 0.21114-0.69638 0.51858-0.69638 0.31115 0 0.51858 0.28152 0.51858 0.69638 0 0.41116-0.20743 0.68898-0.51858 0.68898-0.30745 0-0.51858-0.27781-0.51858-0.68898z"/>
    <path d="m101.46 14.714c0 0.45932 0.17039 0.70379 0.55192 0.70379 0.24818 0 0.42598-0.12965 0.59267-0.32597h0.0111l0.0259 0.28152h0.25189v-1.8002h-0.30375v1.2779c-0.17039 0.21114-0.30003 0.30374-0.48524 0.30374-0.23707 0-0.33708-0.14446-0.33708-0.48154v-1.1001h-0.30745z"/>
    <path d="m103.56 14.818c0 0.3556 0.12965 0.60008 0.51488 0.60008 0.11113 0 0.23336-0.03334 0.33338-0.06668l-0.0593-0.22966c-0.0593 0.02222-0.14076 0.04815-0.20373 0.04815-0.20743 0-0.27781-0.12594-0.27781-0.34819v-1.0001h0.48524v-0.24818h-0.48524v-0.50377h-0.25559l-0.037 0.50377-0.28152 0.01852v0.22966h0.2667z"/>
   </g>
   <path d="m93.023 21.447-1.3229 3.9688 1.3229 3.9687h18.521v-7.9375z" fill="#2f3744" stroke="#7b8694" stroke-miterlimit="40"/>
   <g fill="#e8eaec" stroke-linecap="round" aria-label="Chasing">
    <path d="m96.111 25.367c0 0.79269 0.45561 1.2594 1.0668 1.2594 0.30745 0 0.54822-0.12965 0.73713-0.3519l-0.1741-0.18891c-0.15558 0.1741-0.32597 0.2704-0.55562 0.2704-0.46302 0-0.75565-0.38523-0.75565-0.99642 0-0.60378 0.30745-0.9816 0.77047-0.9816 0.20002 0 0.3556 0.0889 0.48525 0.22595l0.1741-0.19632c-0.14446-0.15928-0.37412-0.30004-0.66305-0.30004-0.6223 0-1.0853 0.47784-1.0853 1.2594z"/>
    <path d="m98.332 26.582h0.30374v-1.3039c0.1815-0.1815 0.30745-0.27781 0.49266-0.27781 0.23707 0 0.34078 0.14446 0.34078 0.48154v1.1001h0.30374v-1.1409c0-0.45932-0.17039-0.70379-0.54822-0.70379-0.24818 0-0.42968 0.13335-0.60008 0.29633l0.01111-0.37042v-0.71861h-0.30374z"/>
    <path d="m100.26 26.115c0 0.32226 0.22596 0.51118 0.5297 0.51118 0.22225 0 0.42228-0.11853 0.59637-0.25929h7e-3l0.0259 0.21484h0.25188v-1.1038c0-0.4482-0.18521-0.74083-0.626-0.74083-0.28893 0-0.54081 0.12594-0.7075 0.23336l0.12224 0.21114c0.14076-0.09631 0.32597-0.19262 0.5371-0.19262 0.29263 0 0.37042 0.22225 0.37042 0.45191-0.76676 0.0852-1.1076 0.28152-1.1076 0.67416zm0.30004-0.02222c0-0.22966 0.20373-0.37783 0.80751-0.45191v0.50006c-0.1741 0.15558-0.31856 0.24077-0.49265 0.24077-0.1778 0-0.31486-0.0852-0.31486-0.28892z"/>
    <path d="m102.05 26.378c0.17039 0.14076 0.41487 0.24818 0.67046 0.24818 0.42598 0 0.65934-0.24448 0.65934-0.5371 0-0.34078-0.28893-0.4482-0.54822-0.54451-0.20373-0.07779-0.40005-0.14446-0.40005-0.31115 0-0.13705 0.10372-0.25929 0.32967-0.25929 0.15928 0 0.28893 0.06668 0.41116 0.15928l0.14447-0.19262c-0.13706-0.11112-0.33338-0.20373-0.55933-0.20373-0.38894 0-0.6186 0.22225-0.6186 0.51118 0 0.30374 0.28152 0.42598 0.53711 0.51858 0.19632 0.07408 0.41116 0.15558 0.41116 0.34078 0 0.15558-0.11853 0.28152-0.3556 0.28152-0.21484 0-0.37412-0.0889-0.5297-0.21484z"/>
    <path d="m103.96 24.412c0.11854 0 0.21114-0.08149 0.21114-0.19632 0-0.11853-0.0926-0.19632-0.21114-0.19632-0.11853 0-0.21113 0.07779-0.21113 0.19632 0 0.11483 0.0926 0.19632 0.21113 0.19632zm-0.15557 2.1706h0.30374v-1.8002h-0.30374z"/>
    <path d="m104.71 26.582h0.30374v-1.3039c0.18151-0.1815 0.30745-0.27781 0.49266-0.27781 0.23706 0 0.34078 0.14446 0.34078 0.48154v1.1001h0.30374v-1.1409c0-0.45932-0.17039-0.70379-0.54821-0.70379-0.24818 0-0.43339 0.13335-0.60378 0.30374h-0.0111l-0.0259-0.25929h-0.25188z"/>
    <path d="m106.87 26.886c0-0.10372 0.0556-0.21114 0.1852-0.30374 0.0778 0.02223 0.16299 0.02963 0.23337 0.02963h0.31115c0.23336 0 0.36301 0.05556 0.36301 0.22225 0 0.18891-0.22596 0.36671-0.57045 0.36671-0.32596 0-0.52228-0.12224-0.52228-0.31486zm-0.2667 0.04075c0 0.31115 0.30374 0.48525 0.74453 0.48525 0.55933 0 0.91123-0.28892 0.91123-0.6223 0-0.30004-0.21114-0.42968-0.62971-0.42968h-0.34819c-0.24448 0-0.31856-0.08149-0.31856-0.19632 0-0.10001 0.0519-0.15928 0.11483-0.21484 0.0815 0.04075 0.1815 0.06297 0.2704 0.06297 0.36672 0 0.65935-0.24077 0.65935-0.626 0-0.15187-0.063-0.28892-0.14817-0.37042h0.37042v-0.23336h-0.62601c-0.0667-0.02593-0.15557-0.04445-0.25559-0.04445-0.36671 0-0.67786 0.24818-0.67786 0.64082 0 0.21484 0.11483 0.38894 0.23336 0.48525v0.01482c-0.0926 0.06297-0.19632 0.1815-0.19632 0.33338 0 0.14076 0.0704 0.23707 0.15928 0.29263v0.01482c-0.16298 0.11112-0.26299 0.25559-0.26299 0.40746zm0.74453-1.1187c-0.20743 0-0.38153-0.16669-0.38153-0.42968s0.1704-0.41857 0.38153-0.41857c0.21114 0 0.38153 0.15558 0.38153 0.41857s-0.17409 0.42968-0.38153 0.42968z"/>
   </g>
  </g>
  <path d="m75.826 45.259v-44.979" fill="#2f3744" stroke="#7b8694" stroke-dasharray="0.264583, 0.264583" stroke-miterlimit="40"/>
 </g>
</svg>
