<?xml version="1.0" encoding="UTF-8"?>
<svg width="144.46mm" height="63.765mm" version="1.1" viewBox="0 0 144.46 63.765" xmlns="http://www.w3.org/2000/svg" xmlns:cc="http://creativecommons.org/ns#" xmlns:dc="http://purl.org/dc/elements/1.1/" xmlns:rdf="http://www.w3.org/1999/02/22-rdf-syntax-ns#">
 <metadata>
  <rdf:RDF>
   <cc:Work rdf:about="">
    <dc:format>image/svg+xml</dc:format>
    <dc:type rdf:resource="http://purl.org/dc/dcmitype/StillImage"/>
    <dc:title/>
   </cc:Work>
  </rdf:RDF>
 </metadata>
 <path d="m33.338 10.848h20.902" fill="none" stroke="#7893ea" stroke-linecap="square" stroke-width=".26458"/>
 <g transform="matrix(.0042365 0 0 .0043091 53.333 9.6259)" fill="#7893ea" stroke-width="123.85">
  <g fill="#7893ea" stroke-width="123.85">
   <path d="m486.41 221.41-364.07-208.5c-52.938-30.318-95.852-5.44-95.852 55.563v415.65c0 61.004 42.914 85.882 95.852 55.563l364.07-208.49c52.938-30.317 52.938-79.473 0-109.79z" fill="#7893ea" stroke-width="123.85"/>
  </g>
 </g>
 <rect x=".13229" y=".13229" width="33.073" height="21.167" fill="#1d232d" stroke="#535e70" stroke-linecap="round" stroke-width=".26458"/>
 <g fill="#d2d6dc" stroke="#7b8694" stroke-width=".26458">
  <path d="m19.792 5.7411 5.6171-0.84739-0.01962 7.5741-5.5975-1.1036z"/>
  <path d="m18.866 5.7411 5.6171-0.84739-0.01961 7.5741-5.5975-1.1036z"/>
  <path d="m17.941 5.7411 5.6171-0.84739-0.01961 7.5741-5.5975-1.1036z"/>
  <path d="m17.016 5.7411 5.6171-0.84739-0.01961 7.5741-5.5975-1.1036z"/>
  <path d="m16.091 5.7411 5.6171-0.84739-0.01961 7.5741-5.5975-1.1036z"/>
  <path d="m10 4.7866 3.4031-0.51339-0.01188 4.5888-3.3912-0.6686z"/>
  <path d="m9.4399 4.7866 3.4031-0.51339-0.01188 4.5888-3.3912-0.6686z"/>
  <path d="m8.8794 4.7866 3.4031-0.51339-0.01188 4.5888-3.3912-0.6686z"/>
  <path d="m8.319 4.7866 3.4031-0.51339-0.011882 4.5888-3.3912-0.6686z"/>
  <path d="m7.7585 4.7866 3.4031-0.51339-0.01188 4.5888-3.3912-0.6686z"/>
  <path d="m12.137 12.67 1.8992-0.28652-0.0066 2.5609-1.8926-0.37314z"/>
  <path d="m11.824 12.67 1.8992-0.28652-0.0066 2.5609-1.8926-0.37314z"/>
  <path d="m11.511 12.67 1.8992-0.28652-0.0066 2.5609-1.8926-0.37314z"/>
  <path d="m11.198 12.67 1.8992-0.28652-0.0066 2.5609-1.8926-0.37314z"/>
  <path d="m10.886 12.67 1.8992-0.28652-0.0066 2.5609-1.8926-0.37314z"/>
 </g>
 <g fill="#e8eaec" stroke-linecap="round" stroke-width=".26458" aria-label="Case-base">
  <path d="m8.9109 18.732c0 0.79269 0.45561 1.2594 1.0668 1.2594 0.30745 0 0.54822-0.12965 0.73713-0.3519l-0.1741-0.18891c-0.15558 0.1741-0.32597 0.2704-0.55563 0.2704-0.46302 0-0.75565-0.38523-0.75565-0.99642 0-0.60378 0.30745-0.9816 0.77047-0.9816 0.20003 0 0.3556 0.0889 0.48525 0.22595l0.1741-0.19632c-0.14446-0.15928-0.37412-0.30004-0.66305-0.30004-0.6223 0-1.0853 0.47784-1.0853 1.2594z"/>
  <path d="m11.042 19.48c0 0.32226 0.22595 0.51118 0.5297 0.51118 0.22225 0 0.42228-0.11853 0.59637-0.25929h0.0074l0.02593 0.21484h0.25188v-1.1038c0-0.4482-0.18521-0.74083-0.626-0.74083-0.28893 0-0.54081 0.12594-0.7075 0.23336l0.12224 0.21114c0.14076-0.09631 0.32597-0.19262 0.5371-0.19262 0.29263 0 0.37042 0.22225 0.37042 0.45191-0.76676 0.0852-1.1075 0.28152-1.1075 0.67416zm0.30004-0.02223c0-0.22966 0.20373-0.37782 0.80751-0.45191v0.50006c-0.1741 0.15558-0.31856 0.24077-0.49265 0.24077-0.1778 0-0.31486-0.0852-0.31486-0.28892z"/>
  <path d="m12.827 19.743c0.17039 0.14076 0.41487 0.24818 0.67045 0.24818 0.42598 0 0.65934-0.24448 0.65934-0.5371 0-0.34078-0.28893-0.4482-0.54822-0.54451-0.20373-0.07779-0.40005-0.14446-0.40005-0.31115 0-0.13705 0.10372-0.25929 0.32967-0.25929 0.15928 0 0.28893 0.06668 0.41116 0.15928l0.14446-0.19262c-0.13705-0.11112-0.33338-0.20373-0.55933-0.20373-0.38894 0-0.6186 0.22225-0.6186 0.51118 0 0.30374 0.28152 0.42598 0.5371 0.51858 0.19632 0.07408 0.41116 0.15558 0.41116 0.34078 0 0.15558-0.11853 0.28152-0.3556 0.28152-0.21484 0-0.37412-0.0889-0.5297-0.21484z"/>
  <path d="m14.449 19.051c0 0.58896 0.38153 0.94086 0.86307 0.94086 0.24448 0 0.43709-0.0852 0.59267-0.18521l-0.10742-0.20002c-0.13335 0.0852-0.27781 0.14076-0.4482 0.14076-0.34449 0-0.57785-0.24448-0.60008-0.63341h1.215c0.0074-0.04445 0.01111-0.10372 0.01111-0.16669 0-0.51488-0.25929-0.84455-0.71861-0.84455-0.41116 0-0.80751 0.3593-0.80751 0.94827zm0.29633-0.13706c0.03704-0.36301 0.2667-0.57044 0.51858-0.57044 0.28152 0 0.4445 0.20373 0.4445 0.57044z"/>
  <path d="m16.29 19.136h0.85196v-0.23336h-0.85196z"/>
  <path d="m17.592 19.947h0.24448l0.02593-0.1778h0.01111c0.15928 0.14076 0.34819 0.22225 0.51488 0.22225 0.41116 0 0.77788-0.3593 0.77788-0.9742 0-0.55562-0.24818-0.91493-0.7149-0.91493-0.20003 0-0.40005 0.10742-0.56303 0.25188l0.0074-0.32597v-0.71861h-0.30374zm0.30374-0.40005v-0.94456c0.17039-0.15928 0.32967-0.24448 0.48154-0.24448 0.34078 0 0.47413 0.2667 0.47413 0.66305 0 0.4445-0.21855 0.7149-0.51488 0.7149-0.11853 0-0.28152-0.05186-0.4408-0.18891z"/>
  <path d="m19.507 19.48c0 0.32226 0.22595 0.51118 0.5297 0.51118 0.22225 0 0.42228-0.11853 0.59637-0.25929h0.0074l0.02593 0.21484h0.25188v-1.1038c0-0.4482-0.18521-0.74083-0.626-0.74083-0.28892 0-0.54081 0.12594-0.7075 0.23336l0.12224 0.21114c0.14076-0.09631 0.32597-0.19262 0.5371-0.19262 0.29263 0 0.37042 0.22225 0.37042 0.45191-0.76676 0.0852-1.1075 0.28152-1.1075 0.67416zm0.30004-0.02223c0-0.22966 0.20373-0.37782 0.80751-0.45191v0.50006c-0.1741 0.15558-0.31856 0.24077-0.49266 0.24077-0.1778 0-0.31485-0.0852-0.31485-0.28892z"/>
  <path d="m21.291 19.743c0.17039 0.14076 0.41487 0.24818 0.67046 0.24818 0.42598 0 0.65934-0.24448 0.65934-0.5371 0-0.34078-0.28893-0.4482-0.54822-0.54451-0.20373-0.07779-0.40005-0.14446-0.40005-0.31115 0-0.13705 0.10372-0.25929 0.32967-0.25929 0.15928 0 0.28892 0.06668 0.41116 0.15928l0.14446-0.19262c-0.13706-0.11112-0.33338-0.20373-0.55933-0.20373-0.38894 0-0.6186 0.22225-0.6186 0.51118 0 0.30374 0.28152 0.42598 0.5371 0.51858 0.19632 0.07408 0.41116 0.15558 0.41116 0.34078 0 0.15558-0.11853 0.28152-0.3556 0.28152-0.21484 0-0.37412-0.0889-0.5297-0.21484z"/>
  <path d="m22.913 19.051c0 0.58896 0.38153 0.94086 0.86307 0.94086 0.24448 0 0.43709-0.0852 0.59267-0.18521l-0.10742-0.20002c-0.13335 0.0852-0.27781 0.14076-0.4482 0.14076-0.34449 0-0.57785-0.24448-0.60008-0.63341h1.215c0.0074-0.04445 0.01111-0.10372 0.01111-0.16669 0-0.51488-0.25929-0.84455-0.71861-0.84455-0.41116 0-0.80751 0.3593-0.80751 0.94827zm0.29633-0.13706c0.03704-0.36301 0.2667-0.57044 0.51858-0.57044 0.28152 0 0.4445 0.20373 0.4445 0.57044z"/>
 </g>
 <path d="m88.9 10.848h20.902" fill="none" stroke="#7893ea" stroke-linecap="square" stroke-width=".26458"/>
 <g>
  <g transform="matrix(.0042365 0 0 .0043091 108.9 9.6259)" fill="#7893ea" stroke-width="123.85">
   <g fill="#7893ea" stroke-width="123.85">
    <path d="m486.41 221.41-364.07-208.5c-52.938-30.318-95.852-5.44-95.852 55.563v415.65c0 61.004 42.914 85.882 95.852 55.563l364.07-208.49c52.938-30.317 52.938-79.473 0-109.79z" fill="#7893ea" stroke-width="123.85"/>
   </g>
  </g>
  <rect x="55.695" y=".13229" width="33.073" height="21.167" fill="#1d232d" stroke="#535e70" stroke-linecap="round" stroke-width=".26458"/>
  <path d="m68.675 15.056c-0.23345-0.21394-0.28516-0.3195-0.31274-0.63848-0.06057-0.70051 0.4663-1.1888 1.1694-1.0838l0.31526 0.04706 1.7752-1.781 0.0055-0.52355 0.0054-0.52355-1.7458-1.7807-1.0914 0.00942-0.88847 0.88558-0.88848 0.88558 0.04706 0.31526c0.10501 0.70314-0.38326 1.23-1.0838 1.1694-0.31898-0.0276-0.42454-0.07929-0.63848-0.31274-0.21694-0.23672-0.25632-0.33772-0.25632-0.65736 0-0.65246 0.4915-1.0727 1.1618-0.99329l0.3602 0.04267 1.7623-1.7673 0.0026-0.50267c0.0019-0.46307 0.02238-0.52262 0.25546-0.75572 0.23311-0.23311 0.29266-0.25324 0.75572-0.25546l0.50267-0.00254 0.88367-0.88117 0.88367-0.88116-0.04267-0.3602c-0.07939-0.67029 0.34083-1.1618 0.99329-1.1618 0.3221 0 0.42018 0.038958 0.66674 0.26492 0.27322 0.25039 0.28908 0.29079 0.28908 0.73638v0.47146l1.8073 1.8026 0.47604 0.00691c0.44717 0.00649 0.4921 0.024413 0.74092 0.29597 0.43571 0.47552 0.35056 1.1419-0.19269 1.508-0.73015 0.49209-1.6541-0.12592-1.521-1.0174l0.04706-0.31526-0.91098-0.89711-0.91098-0.89711-1.0423 0.01422-1.7446 1.7396 0.0047 0.54575 0.0047 0.54576 1.7583 1.7633 0.3602-0.04267c0.71168-0.084286 1.201 0.39254 1.1346 1.1058l-0.0367 0.39491 1.8093 1.8046 0.35252-0.04832c0.65248-0.08943 1.1516 0.36214 1.1522 1.0424 2.33e-4 0.28964-0.04272 0.38101-0.30018 0.63848-0.25746 0.25746-0.34883 0.30042-0.63848 0.30017-0.68101-5.56e-4 -1.1298-0.49754-1.0426-1.1545l0.04727-0.35635-1.7782-1.7731-1.0471-0.0108-1.8161 1.781 0.0445 0.38947c0.03739 0.3272 0.01516 0.43259-0.13906 0.65921-0.22911 0.33664-0.47268 0.46288-0.89594 0.46434-0.26662 0.0011-0.3838-0.04811-0.60975-0.25518zm0.93839-0.48854c0.1751-0.17509 0.11757-0.42785-0.12874-0.56564-0.18947-0.106-0.22146-0.1035-0.3676 0.02876-0.19088 0.17275-0.20521 0.37425-0.03843 0.541 0.15668 0.15668 0.37568 0.155 0.5348-0.0042zm6.5255 0.03289c0.14077-0.14078 0.11134-0.40816-0.06223-0.56524-0.31966-0.28929-0.78732 0.18887-0.49771 0.50888 0.15242 0.16842 0.42086 0.19545 0.55994 0.05637zm-9.7674-3.3511c0.11743-0.17923 0.11743-0.20773 0-0.38696-0.14454-0.22058-0.3654-0.2498-0.54333-0.07187-0.23613 0.23613-0.06445 0.6523 0.26909 0.6523 0.08111 0 0.20452-0.08706 0.27425-0.19348zm6.4882 0.07186c0.15662-0.15662 0.1544-0.33302-0.0065-0.51077-0.15893-0.17562-0.32035-0.17992-0.5043-0.01343-0.17562 0.15893-0.17992 0.32035-0.01344 0.5043 0.15719 0.1737 0.36263 0.1815 0.52422 0.01993zm-3.2704-3.2569c0.1833-0.16588 0.17966-0.35516-0.01016-0.52692-0.34863-0.31551-0.81885 0.15471-0.50334 0.50333 0.16772 0.18534 0.32668 0.19264 0.51347 0.023593zm6.5208 0.00649c0.22699-0.22699 0.06697-0.6523-0.24543-0.6523-0.14667 0-0.40687 0.21938-0.40687 0.34304 0 0.16242 0.24038 0.43088 0.38582 0.43088 0.07967 0 0.19959-0.054726 0.26648-0.12162zm-3.2805-3.2706c0.3319-0.26876 0.03085-0.72709-0.38987-0.59355-0.24475 0.077676-0.29164 0.42272-0.08067 0.59355 0.09627 0.077947 0.20214 0.14173 0.23527 0.14173 0.03315 0 0.139-0.063779 0.23526-0.14173z" fill="#7b8694" stroke-width=".28222"/>
  <g fill="#e8eaec" stroke-linecap="round" stroke-width=".26458" aria-label="Decision tree">
   <path d="m62.476 19.947h0.6223c0.73343 0 1.1335-0.45191 1.1335-1.2261 0-0.77047-0.40005-1.2039-1.1483-1.2039h-0.60748zm0.31115-0.25188v-1.9262h0.27411c0.57044 0 0.85196 0.34078 0.85196 0.95197 0 0.61489-0.28152 0.9742-0.85196 0.9742z"/>
   <path d="m64.589 19.051c0 0.58896 0.38153 0.94086 0.86307 0.94086 0.24448 0 0.43709-0.0852 0.59267-0.18521l-0.10742-0.20002c-0.13335 0.0852-0.27781 0.14076-0.4482 0.14076-0.34449 0-0.57785-0.24448-0.60008-0.63341h1.215c0.0074-0.04445 0.01111-0.10372 0.01111-0.16669 0-0.51488-0.25929-0.84455-0.71861-0.84455-0.41116 0-0.80751 0.3593-0.80751 0.94827zm0.29633-0.13706c0.03704-0.36301 0.2667-0.57044 0.51858-0.57044 0.28152 0 0.4445 0.20373 0.4445 0.57044z"/>
   <path d="m66.427 19.051c0 0.59637 0.36671 0.94086 0.84455 0.94086 0.21484 0 0.42228-0.0889 0.58526-0.23336l-0.13705-0.20002c-0.10742 0.09631-0.25188 0.1815-0.42228 0.1815-0.32967 0-0.55562-0.27781-0.55562-0.68898 0-0.41487 0.23707-0.69638 0.56303-0.69638 0.14446 0 0.25559 0.06668 0.36301 0.15928l0.15187-0.19632c-0.12224-0.11483-0.28892-0.21484-0.52599-0.21484-0.46302 0-0.86678 0.34449-0.86678 0.94827z"/>
   <path d="m68.401 17.776c0.11853 0 0.21114-0.08149 0.21114-0.19632 0-0.11853-0.0926-0.19632-0.21114-0.19632-0.11853 0-0.21114 0.07779-0.21114 0.19632 0 0.11483 0.0926 0.19632 0.21114 0.19632zm-0.15558 2.1706h0.30374v-1.8002h-0.30374z"/>
   <path d="m68.957 19.743c0.17039 0.14076 0.41487 0.24818 0.67046 0.24818 0.42598 0 0.65934-0.24448 0.65934-0.5371 0-0.34078-0.28892-0.4482-0.54822-0.54451-0.20373-0.07779-0.40005-0.14446-0.40005-0.31115 0-0.13705 0.10372-0.25929 0.32967-0.25929 0.15928 0 0.28892 0.06668 0.41116 0.15928l0.14446-0.19262c-0.13705-0.11112-0.33338-0.20373-0.55933-0.20373-0.38894 0-0.6186 0.22225-0.6186 0.51118 0 0.30374 0.28152 0.42598 0.5371 0.51858 0.19632 0.07408 0.41116 0.15558 0.41116 0.34078 0 0.15558-0.11853 0.28152-0.3556 0.28152-0.21484 0-0.37412-0.0889-0.5297-0.21484z"/>
   <path d="m70.868 17.776c0.11853 0 0.21114-0.08149 0.21114-0.19632 0-0.11853-0.0926-0.19632-0.21114-0.19632-0.11853 0-0.21114 0.07779-0.21114 0.19632 0 0.11483 0.0926 0.19632 0.21114 0.19632zm-0.15558 2.1706h0.30374v-1.8002h-0.30374z"/>
   <path d="m71.491 19.051c0 0.59637 0.39264 0.94086 0.83344 0.94086s0.83344-0.34449 0.83344-0.94086c0-0.60378-0.39264-0.94827-0.83344-0.94827s-0.83344 0.34449-0.83344 0.94827zm0.31485 0c0-0.41487 0.21114-0.69638 0.51858-0.69638 0.31115 0 0.51858 0.28152 0.51858 0.69638 0 0.41116-0.20743 0.68898-0.51858 0.68898-0.30745 0-0.51858-0.27781-0.51858-0.68898z"/>
   <path d="m73.635 19.947h0.30374v-1.3039c0.1815-0.1815 0.30745-0.27781 0.49266-0.27781 0.23707 0 0.34078 0.14446 0.34078 0.48154v1.1001h0.30374v-1.1409c0-0.45932-0.17039-0.70379-0.54822-0.70379-0.24818 0-0.43339 0.13335-0.60378 0.30374h-0.01111l-0.02593-0.25929h-0.25188z"/>
   <path d="m76.458 19.391c0 0.3556 0.12965 0.60008 0.51488 0.60008 0.11112 0 0.23336-0.03334 0.33338-0.06668l-0.05927-0.22966c-0.05927 0.02223-0.14076 0.04815-0.20373 0.04815-0.20743 0-0.27781-0.12594-0.27781-0.34819v-1.0001h0.48525v-0.24818h-0.48525v-0.50377h-0.25559l-0.03704 0.50377-0.28152 0.01852v0.22966h0.2667z"/>
   <path d="m77.658 19.947h0.30374v-1.1557c0.12224-0.30374 0.30374-0.41487 0.45561-0.41487 0.07408 0 0.11483 0.01111 0.1741 0.02963l0.05927-0.2667c-0.05927-0.02593-0.11483-0.03704-0.19262-0.03704-0.20373 0-0.38894 0.14446-0.51118 0.37042h-0.01111l-0.02593-0.32597h-0.25188z"/>
   <path d="m78.776 19.051c0 0.58896 0.38153 0.94086 0.86307 0.94086 0.24448 0 0.43709-0.0852 0.59267-0.18521l-0.10742-0.20002c-0.13335 0.0852-0.27781 0.14076-0.4482 0.14076-0.34449 0-0.57785-0.24448-0.60008-0.63341h1.215c0.0074-0.04445 0.01111-0.10372 0.01111-0.16669 0-0.51488-0.25929-0.84455-0.71861-0.84455-0.41116 0-0.80751 0.3593-0.80751 0.94827zm0.29633-0.13706c0.03704-0.36301 0.2667-0.57044 0.51858-0.57044 0.28152 0 0.4445 0.20373 0.4445 0.57044z"/>
   <path d="m80.614 19.051c0 0.58896 0.38153 0.94086 0.86307 0.94086 0.24448 0 0.43709-0.0852 0.59267-0.18521l-0.10742-0.20002c-0.13335 0.0852-0.27781 0.14076-0.4482 0.14076-0.34449 0-0.57785-0.24448-0.60008-0.63341h1.215c0.0074-0.04445 0.01111-0.10372 0.01111-0.16669 0-0.51488-0.25929-0.84455-0.71861-0.84455-0.41116 0-0.80751 0.3593-0.80751 0.94827zm0.29633-0.13706c0.03704-0.36301 0.2667-0.57044 0.51858-0.57044 0.28152 0 0.4445 0.20373 0.4445 0.57044z"/>
  </g>
 </g>
 <path d="m127.76 21.164v19.844" fill="none" stroke="#7893ea" stroke-linecap="square" stroke-width=".26458"/>
 <g>
  <rect x="111.26" y=".13229" width="33.073" height="21.167" fill="#1d232d" stroke="#535e70" stroke-linecap="round" stroke-width=".26458"/>
  <g fill="#e8eaec" stroke-linecap="round" stroke-width=".26458" aria-label="Decision tree Evolution">
   <path d="m118.04 15.449h0.6223c0.73343 0 1.1335-0.45191 1.1335-1.2261 0-0.77047-0.40005-1.2039-1.1483-1.2039h-0.60749zm0.31115-0.25188v-1.9262h0.27411c0.57044 0 0.85196 0.34078 0.85196 0.95197 0 0.61489-0.28152 0.9742-0.85196 0.9742z"/>
   <path d="m120.15 14.553c0 0.58896 0.38153 0.94086 0.86308 0.94086 0.24447 0 0.43709-0.0852 0.59266-0.18521l-0.10742-0.20002c-0.13335 0.0852-0.27781 0.14076-0.4482 0.14076-0.34449 0-0.57785-0.24448-0.60008-0.63341h1.215c7e-3 -0.04445 0.0111-0.10372 0.0111-0.16669 0-0.51488-0.25929-0.84455-0.71861-0.84455-0.41116 0-0.80751 0.3593-0.80751 0.94827zm0.29634-0.13705c0.037-0.36301 0.2667-0.57044 0.51858-0.57044 0.28152 0 0.4445 0.20373 0.4445 0.57044z"/>
   <path d="m121.99 14.553c0 0.59637 0.36671 0.94086 0.84455 0.94086 0.21484 0 0.42228-0.0889 0.58526-0.23336l-0.13705-0.20002c-0.10743 0.09631-0.25189 0.1815-0.42228 0.1815-0.32967 0-0.55563-0.27781-0.55563-0.68898 0-0.41487 0.23707-0.69638 0.56304-0.69638 0.14446 0 0.25559 0.06668 0.36301 0.15928l0.15187-0.19632c-0.12224-0.11483-0.28893-0.21484-0.52599-0.21484-0.46303 0-0.86678 0.34449-0.86678 0.94827z"/>
   <path d="m123.96 13.279c0.11854 0 0.21114-0.08149 0.21114-0.19632 0-0.11853-0.0926-0.19632-0.21114-0.19632-0.11853 0-0.21114 0.07779-0.21114 0.19632 0 0.11483 0.0926 0.19632 0.21114 0.19632zm-0.15557 2.1706h0.30374v-1.8002h-0.30374z"/>
   <path d="m124.52 15.245c0.1704 0.14076 0.41487 0.24818 0.67046 0.24818 0.42598 0 0.65934-0.24448 0.65934-0.5371 0-0.34078-0.28892-0.4482-0.54822-0.54451-0.20372-0.07779-0.40005-0.14446-0.40005-0.31115 0-0.13706 0.10372-0.25929 0.32968-0.25929 0.15927 0 0.28892 0.06668 0.41116 0.15928l0.14446-0.19262c-0.13705-0.11112-0.33337-0.20373-0.55933-0.20373-0.38894 0-0.6186 0.22225-0.6186 0.51118 0 0.30374 0.28152 0.42598 0.53711 0.51858 0.19632 0.07408 0.41116 0.15558 0.41116 0.34078 0 0.15558-0.11853 0.28152-0.3556 0.28152-0.21484 0-0.37412-0.0889-0.52969-0.21484z"/>
   <path d="m126.43 13.279c0.11853 0 0.21114-0.08149 0.21114-0.19632 0-0.11853-0.0926-0.19632-0.21114-0.19632s-0.21114 0.07779-0.21114 0.19632c0 0.11483 0.0926 0.19632 0.21114 0.19632zm-0.15558 2.1706h0.30374v-1.8002h-0.30374z"/>
   <path d="m127.05 14.553c0 0.59637 0.39264 0.94086 0.83343 0.94086 0.4408 0 0.83344-0.34449 0.83344-0.94086 0-0.60378-0.39264-0.94827-0.83344-0.94827-0.44079 0-0.83343 0.34449-0.83343 0.94827zm0.31485 0c0-0.41487 0.21114-0.69638 0.51858-0.69638 0.31115 0 0.51859 0.28152 0.51859 0.69638 0 0.41116-0.20744 0.68898-0.51859 0.68898-0.30744 0-0.51858-0.27781-0.51858-0.68898z"/>
   <path d="m129.2 15.449h0.30375v-1.3039c0.1815-0.1815 0.30744-0.27781 0.49265-0.27781 0.23707 0 0.34078 0.14446 0.34078 0.48154v1.1001h0.30375v-1.1409c0-0.45932-0.1704-0.70379-0.54822-0.70379-0.24818 0-0.43339 0.13335-0.60378 0.30374h-0.0111l-0.0259-0.25929h-0.25189z"/>
   <path d="m132.02 14.894c0 0.3556 0.12965 0.60008 0.51488 0.60008 0.11113 0 0.23337-0.03334 0.33338-0.06668l-0.0593-0.22966c-0.0593 0.02223-0.14076 0.04815-0.20373 0.04815-0.20743 0-0.27781-0.12594-0.27781-0.34819v-1.0001h0.48525v-0.24818h-0.48525v-0.50377h-0.25559l-0.037 0.50377-0.28152 0.01852v0.22966h0.2667z"/>
   <path d="m133.22 15.449h0.30374v-1.1557c0.12224-0.30374 0.30374-0.41487 0.45562-0.41487 0.0741 0 0.11482 0.01111 0.17409 0.02963l0.0593-0.2667c-0.0593-0.02593-0.11483-0.03704-0.19262-0.03704-0.20373 0-0.38894 0.14446-0.51117 0.37042h-0.0111l-0.0259-0.32597h-0.25188z"/>
   <path d="m134.34 14.553c0 0.58896 0.38153 0.94086 0.86308 0.94086 0.24447 0 0.43709-0.0852 0.59266-0.18521l-0.10742-0.20002c-0.13335 0.0852-0.27781 0.14076-0.4482 0.14076-0.34449 0-0.57785-0.24448-0.60008-0.63341h1.215c7e-3 -0.04445 0.0111-0.10372 0.0111-0.16669 0-0.51488-0.25929-0.84455-0.71861-0.84455-0.41116 0-0.80751 0.3593-0.80751 0.94827zm0.29634-0.13705c0.037-0.36301 0.2667-0.57044 0.51858-0.57044 0.28152 0 0.4445 0.20373 0.4445 0.57044z"/>
   <path d="m136.18 14.553c0 0.58896 0.38153 0.94086 0.86307 0.94086 0.24448 0 0.43709-0.0852 0.59267-0.18521l-0.10742-0.20002c-0.13335 0.0852-0.27781 0.14076-0.44821 0.14076-0.34448 0-0.57785-0.24448-0.60007-0.63341h1.215c7e-3 -0.04445 0.0111-0.10372 0.0111-0.16669 0-0.51488-0.25929-0.84455-0.71861-0.84455-0.41116 0-0.80751 0.3593-0.80751 0.94827zm0.29633-0.13705c0.037-0.36301 0.2667-0.57044 0.51859-0.57044 0.28151 0 0.4445 0.20373 0.4445 0.57044z"/>
   <path d="m120.69 20.116h1.4372v-0.263h-1.1261v-0.88159h0.91864v-0.263h-0.91864v-0.76306h1.089v-0.25929h-1.4002z"/>
   <path d="m122.99 20.116h0.3556l0.63711-1.8002h-0.30003l-0.34079 1.0224c-0.0519 0.1778-0.11112 0.3593-0.16298 0.5297h-0.0148c-0.0556-0.17039-0.11483-0.3519-0.16669-0.5297l-0.34078-1.0224h-0.31485z"/>
   <path d="m124.18 19.219c0 0.59637 0.39265 0.94086 0.83344 0.94086 0.4408 0 0.83344-0.34449 0.83344-0.94086 0-0.60378-0.39264-0.94827-0.83344-0.94827-0.44079 0-0.83344 0.34449-0.83344 0.94827zm0.31486 0c0-0.41487 0.21114-0.69638 0.51858-0.69638 0.31115 0 0.51859 0.28152 0.51859 0.69638 0 0.41116-0.20744 0.68898-0.51859 0.68898-0.30744 0-0.51858-0.27781-0.51858-0.68898z"/>
   <path d="m126.33 19.753c0 0.263 0.0926 0.40746 0.32227 0.40746 0.0815 0 0.13335-0.01111 0.17409-0.02963l-0.0407-0.22966c-0.0333 0.0074-0.0482 0.0074-0.0667 0.0074-0.0444 0-0.0852-0.03704-0.0852-0.13335v-2.2966h-0.30374z"/>
   <path d="m127.25 19.456c0 0.45932 0.17039 0.70379 0.55192 0.70379 0.24818 0 0.42598-0.12965 0.59267-0.32597h0.0111l0.0259 0.28152h0.25188v-1.8002h-0.30374v1.2779c-0.17039 0.21114-0.30004 0.30374-0.48524 0.30374-0.23707 0-0.33708-0.14446-0.33708-0.48154v-1.1001h-0.30745z"/>
   <path d="m129.35 19.56c0 0.3556 0.12965 0.60008 0.51488 0.60008 0.11113 0 0.23336-0.03334 0.33338-0.06668l-0.0593-0.22966c-0.0593 0.02222-0.14076 0.04815-0.20373 0.04815-0.20743 0-0.27781-0.12594-0.27781-0.34819v-1.0001h0.48524v-0.24818h-0.48524v-0.50377h-0.25559l-0.037 0.50377-0.28152 0.01852v0.22966h0.2667z"/>
   <path d="m130.7 17.945c0.11853 0 0.21114-0.08149 0.21114-0.19632 0-0.11853-0.0926-0.19632-0.21114-0.19632-0.11853 0-0.21114 0.07779-0.21114 0.19632 0 0.11483 0.0926 0.19632 0.21114 0.19632zm-0.15557 2.1706h0.30374v-1.8002h-0.30374z"/>
   <path d="m131.33 19.219c0 0.59637 0.39264 0.94086 0.83344 0.94086 0.44079 0 0.83344-0.34449 0.83344-0.94086 0-0.60378-0.39265-0.94827-0.83344-0.94827-0.4408 0-0.83344 0.34449-0.83344 0.94827zm0.31485 0c0-0.41487 0.21114-0.69638 0.51859-0.69638 0.31115 0 0.51858 0.28152 0.51858 0.69638 0 0.41116-0.20743 0.68898-0.51858 0.68898-0.30745 0-0.51859-0.27781-0.51859-0.68898z"/>
   <path d="m133.47 20.116h0.30374v-1.3039c0.1815-0.1815 0.30745-0.27781 0.49265-0.27781 0.23707 0 0.34079 0.14446 0.34079 0.48154v1.1001h0.30374v-1.1409c0-0.45932-0.17039-0.70379-0.54822-0.70379-0.24818 0-0.43338 0.13335-0.60378 0.30374h-0.0111l-0.0259-0.25929h-0.25188z"/>
  </g>
  <g stroke-width=".28222">
   <path d="m131.81 11.364c-0.0986 0.09863-0.16574 0.15576-0.23564 0.18862-0.0699 0.03286-0.14277 0.04143-0.25373 0.04134 0.22191 1.85e-4 0.29211-0.03269 0.48937-0.22996z" fill="#d54747"/>
   <path d="m127.04 6.2621c-0.20343 0.19867-0.1216 0.13199-0.33073 0.32039l0.6687 0.68213 0.66869 0.68213-5e-3 0.40153-4e-3 0.40101-0.68007 0.68213-0.68006 0.68264-0.24133-0.03617c-0.53873-0.080457-0.94245 0.29372-0.89607 0.83044 0.0211 0.24422 0.0607 0.32465 0.23926 0.48834 0.17313 0.15868 0.26288 0.19642 0.46716 0.19585 0.3243-0.0011 0.51073-0.09813 0.68626-0.35605 0.11818-0.17362 0.13564-0.25418 0.10697-0.50488l-0.0341-0.29869 1.3911-1.3643 0.40152 0.00413 0.40101 0.00466 0.6811 0.67903 0.68109 0.67955-0.0362 0.27285c-0.0668 0.50339 0.27713 0.88414 0.79892 0.8847 0.11096 9.3e-5 0.18383-0.0085 0.25373-0.04134 0.0699-0.03286 0.13701-0.08999 0.23564-0.18862 0.19728-0.19726 0.23014-0.26745 0.22996-0.48938-2.2e-4 -0.26059-0.0961-0.47755-0.25425-0.62063-0.0791-0.07154-0.17392-0.1246-0.28008-0.15555-0.10617-0.03095-0.22384-0.03935-0.34882-0.02223l-0.26975 0.03669-1.3865-1.3823 0.0284-0.30282c0.0508-0.54646-0.32443-0.91156-0.86971-0.84698l-0.27595 0.032557-0.67335-0.67541zm-0.79323 4.27c0.0383-3e-3 0.0809 0.01675 0.15348 0.05736 0.18871 0.10557 0.23285 0.29941 0.0987 0.43356-0.12191 0.12184-0.28974 0.12315-0.40979 0.0031-0.12777-0.12776-0.1168-0.28209 0.0294-0.41445 0.056-0.05064 0.0899-0.07659 0.12816-0.07958zm5.01 0.01601c0.0646-7e-3 0.13307 0.01177 0.1943 0.06718 0.13296 0.12035 0.15541 0.32519 0.0475 0.43305-0.10655 0.10659-0.31212 0.08563-0.42891-0.04341-0.16642-0.18389-7e-3 -0.4358 0.18707-0.45682z" fill="#e8eaec"/>
   <path d="m128.79 2.5807c-0.4999 0-0.82202 0.3763-0.76119 0.88987l0.0331 0.27595-1.3544 1.3503-0.38499 0.00159c-0.35479 0.00159-0.40017 0.017251-0.57877 0.19586-0.17855 0.1786-0.19416 0.2245-0.19586 0.57929l-2e-3 0.38499-1.3498 1.3539-0.27647-0.032557c-0.51356-0.060825-0.88987 0.26129-0.88987 0.76119 0 0.2449 0.0301 0.32196 0.19637 0.50333 0.16392 0.17887 0.24499 0.21861 0.48938 0.23978 0.53672 0.046403 0.9109-0.35734 0.83044-0.89607l-0.0362-0.24133 1.3612-1.357 0.41806-0.00362 0.41858-0.00362c0.20913-0.1884 0.1273-0.12173 0.33073-0.32039l-3e-3 -0.41858-4e-3 -0.41806 0.66818-0.66611 0.66817-0.66663 0.39946-0.00569 0.39946-0.00516 0.69763 0.68729 0.69815 0.6873-0.0362 0.24184c-0.10196 0.68305 0.60583 1.1563 1.1653 0.77928 0.41623-0.2805 0.48164-0.79115 0.1478-1.1555-0.19064-0.20808-0.2248-0.22204-0.56741-0.22686l-0.36484-0.00516-0.69246-0.6904-0.69247-0.69091v-0.36123c0-0.3414-0.0118-0.37195-0.22117-0.56379-0.18891-0.17312-0.26429-0.20309-0.51108-0.20309zm0.0909 0.50281c0.18895 0.065254 0.27082 0.30135 0.0801 0.45578-0.0738 0.059722-0.15492 0.10852-0.18035 0.10852-0.0254 0-0.10607-0.048771-0.17983-0.10852-0.16164-0.13089-0.12603-0.39525 0.0615-0.45475 0.0806-0.025585 0.15561-0.022781 0.21859-0.00106zm2.4055 2.4619c0.23932 0 0.36202 0.32579 0.1881 0.49971-0.0512 0.051244-0.14307 0.093533-0.20412 0.093533-0.11143 0-0.29559-0.20577-0.29559-0.33021 0-0.09475 0.19923-0.26303 0.31161-0.26303zm-5.023 0.01188c0.0676-0.00394 0.14045 0.019156 0.20723 0.079581 0.14546 0.13159 0.14819 0.2765 8e-3 0.40359-0.14313 0.12951-0.26475 0.12392-0.39326-0.018098-0.1813-0.20033-0.0244-0.45322 0.17828-0.46509zm2.5301 2.4836c0.0638 0.00159 0.12463 0.036073 0.18552 0.10335 0.12312 0.13618 0.12517 0.27171 5e-3 0.39171-0.1238 0.12382-0.28109 0.11757-0.40153-0.015505-0.12758-0.14094-0.12422-0.26425 0.0104-0.38602 0.0705-0.063794 0.13675-0.095232 0.2005-0.093533zm-4.979 0.00159c0.0732 0.00968 0.14307 0.057605 0.19843 0.14211 0.09 0.13732 0.09 0.15879 0 0.29611-0.0534 0.081537-0.14817 0.14831-0.21032 0.14831-0.25558 0-0.3871-0.31879-0.20619-0.49971 0.0682-0.068178 0.14489-0.096493 0.21808-0.086815z" fill="#7b8694"/>
  </g>
 </g>
 <path d="m55.43 53.181h-20.902" fill="none" stroke="#7893ea" stroke-linecap="square" stroke-width=".26458"/>
 <g transform="matrix(-.0042365 0 0 .0043091 35.434 51.959)" fill="#7893ea" stroke-width="123.85">
  <g fill="#7893ea" stroke-width="123.85">
   <path d="m486.41 221.41-364.07-208.5c-52.938-30.318-95.852-5.44-95.852 55.563v415.65c0 61.004 42.914 85.882 95.852 55.563l364.07-208.49c52.938-30.317 52.938-79.473 0-109.79z" fill="#7893ea" stroke-width="123.85"/>
  </g>
 </g>
 <rect x=".13229" y="42.466" width="33.073" height="21.167" fill="#1d232d" stroke="#535e70" stroke-linecap="round" stroke-width=".26458"/>
 <rect x="12.415" y="44.769" width="11.53" height="10.417" fill="none" stroke="#7b8694" stroke-width=".26458"/>
 <g stroke-width=".26458">
  <rect x="11.357" y="45.563" width="11.53" height="10.417" fill="#1d232d" stroke="#7b8694"/>
  <rect x="10.298" y="46.357" width="11.53" height="10.417" fill="#1d232d" stroke="#7b8694"/>
  <g fill="#e8eaec" stroke-linecap="round" aria-label="Case">
   <path d="m13.143 61.065c0 0.79269 0.45561 1.2594 1.0668 1.2594 0.30745 0 0.54822-0.12965 0.73713-0.3519l-0.1741-0.18891c-0.15558 0.1741-0.32597 0.2704-0.55562 0.2704-0.46302 0-0.75565-0.38523-0.75565-0.99642 0-0.60378 0.30745-0.9816 0.77047-0.9816 0.20003 0 0.3556 0.0889 0.48525 0.22595l0.1741-0.19632c-0.14446-0.15928-0.37412-0.30004-0.66305-0.30004-0.6223 0-1.0853 0.47784-1.0853 1.2594z"/>
   <path d="m15.275 61.814c0 0.32226 0.22596 0.51118 0.5297 0.51118 0.22225 0 0.42228-0.11853 0.59637-0.25929h0.0074l0.02593 0.21484h0.25188v-1.1038c0-0.4482-0.18521-0.74083-0.626-0.74083-0.28892 0-0.54081 0.12594-0.7075 0.23336l0.12224 0.21114c0.14076-0.09631 0.32597-0.19262 0.5371-0.19262 0.29263 0 0.37042 0.22225 0.37042 0.45191-0.76676 0.0852-1.1075 0.28152-1.1075 0.67416zm0.30004-0.02222c0-0.22966 0.20373-0.37782 0.80751-0.45191v0.50006c-0.1741 0.15558-0.31856 0.24077-0.49266 0.24077-0.1778 0-0.31485-0.0852-0.31485-0.28893z"/>
   <path d="m17.059 62.077c0.17039 0.14076 0.41487 0.24818 0.67046 0.24818 0.42598 0 0.65934-0.24448 0.65934-0.5371 0-0.34078-0.28892-0.4482-0.54822-0.54451-0.20373-0.07779-0.40005-0.14446-0.40005-0.31115 0-0.13705 0.10372-0.25929 0.32967-0.25929 0.15928 0 0.28892 0.06667 0.41116 0.15928l0.14446-0.19262c-0.13705-0.11112-0.33338-0.20373-0.55933-0.20373-0.38894 0-0.6186 0.22225-0.6186 0.51118 0 0.30374 0.28152 0.42598 0.5371 0.51858 0.19632 0.07408 0.41116 0.15558 0.41116 0.34078 0 0.15558-0.11853 0.28152-0.3556 0.28152-0.21484 0-0.37412-0.0889-0.5297-0.21484z"/>
   <path d="m18.681 61.384c0 0.58896 0.38153 0.94086 0.86307 0.94086 0.24448 0 0.43709-0.0852 0.59267-0.18521l-0.10742-0.20002c-0.13335 0.0852-0.27781 0.14076-0.4482 0.14076-0.34449 0-0.57785-0.24448-0.60008-0.63341h1.215c0.0074-0.04445 0.01111-0.10372 0.01111-0.16669 0-0.51488-0.25929-0.84455-0.71861-0.84455-0.41116 0-0.80751 0.3593-0.80751 0.94827zm0.29633-0.13706c0.03704-0.36301 0.2667-0.57044 0.51858-0.57044 0.28152 0 0.4445 0.20373 0.4445 0.57044z"/>
  </g>
 </g>
 <path d="m110.99 53.181h-20.902" fill="none" stroke="#7893ea" stroke-linecap="square" stroke-width=".26458"/>
 <g>
  <g transform="matrix(-.0042365 0 0 .0043091 90.997 51.959)" fill="#7893ea" stroke-width="123.85">
   <g fill="#7893ea" stroke-width="123.85">
    <path d="m486.41 221.41-364.07-208.5c-52.938-30.318-95.852-5.44-95.852 55.563v415.65c0 61.004 42.914 85.882 95.852 55.563l364.07-208.49c52.938-30.317 52.938-79.473 0-109.79z" fill="#7893ea" stroke-width="123.85"/>
   </g>
  </g>
  <rect x="55.695" y="42.466" width="33.073" height="21.167" fill="#1d232d" stroke="#535e70" stroke-linecap="round" stroke-width=".26458"/>
  <path d="m69.013 56.709c-0.28428-0.05224-0.52796-0.17235-0.69744-0.3438-0.20276-0.20515-0.29551-0.43493-0.31427-0.77859-0.0084-0.15299-0.0043-0.19976 0.03079-0.35391 0.19068-0.83834 1.1881-2.6365 2.6501-4.7776l0.16612-0.24328-0.0041-1.4235-0.0041-1.4235-0.40869-0.0084v-0.39974h3.2535v0.18432c0 0.10138 5e-5 0.18971 9.5e-5 0.19634 4.8e-5 0.0068-0.0883 0.0158-0.19633 0.02003l-0.19642 0.0079-0.0041 1.4235-0.0041 1.4235 0.16612 0.24327c1.4561 2.1324 2.46 3.9407 2.648 4.7693 0.10225 0.45076-0.01746 0.90526-0.30844 1.1712-0.16911 0.15457-0.40953 0.26588-0.67846 0.31417-0.17275 0.03116-5.9291 0.03037-6.0982 0zm6.0227-0.3935c0.37171-0.05376 0.60546-0.26362 0.67807-0.6087 0.06261-0.2976-0.05795-0.70378-0.43056-1.4505-0.47281-0.94745-1.2595-2.2459-2.1192-3.4978l-0.27246-0.39672-8e-3 -1.4985-8e-3 -1.4985h-1.6187l-8e-3 1.4985-8e-3 1.4985-0.28849 0.41963c-0.98665 1.4353-1.9485 3.0632-2.3073 3.9051-0.27297 0.64047-0.30769 0.9203-0.15345 1.2366 0.10178 0.2087 0.32527 0.35653 0.59364 0.3926 0.13706 0.01863 5.823 0.01807 5.9505-2.65e-4zm-2.3765-0.41664c-0.1803-0.02257-0.37051-0.16871-0.43508-0.33466-0.05313-0.13654-0.04959-0.30093 0.0092-0.4303 0.08705-0.19143 0.27452-0.31372 0.48107-0.31389 0.14178-8.5e-5 0.22554 0.02315 0.32308 0.09062 0.08882 0.06124 0.18835 0.19744 0.21578 0.29529 0.03024 0.10781 0.01212 0.30122-0.03717 0.39672-0.10493 0.20337-0.33199 0.32416-0.5569 0.29622zm-2.3267-0.72063c-0.3061-0.0924-0.3993-0.46572-0.17091-0.68467 0.11361-0.10888 0.28824-0.1371 0.43794-0.07073 0.102 0.04521 0.14558 0.08645 0.1968 0.1861 0.04864 0.09471 0.05549 0.23811 0.0158 0.33079-0.0781 0.18246-0.29997 0.29275-0.47963 0.23851zm1.3638-0.04899c-0.23157-0.03785-0.40061-0.23549-0.41268-0.4826-0.0052-0.10617-2.65e-4 -0.13541 0.03694-0.21824 0.04866-0.10846 0.14276-0.20783 0.2488-0.26283 0.10374-0.05379 0.32694-0.05399 0.43582 0 0.09234 0.04549 0.19348 0.14148 0.23519 0.22324 0.06792 0.13312 0.07224 0.3278 0.01016 0.45856-0.09409 0.19829-0.33061 0.31874-0.55425 0.28225zm1.2028-0.66051c-0.10709-0.05413-0.14798-0.12528-0.14063-0.2448 0.0069-0.11215 0.03859-0.16448 0.13172-0.2174 0.15887-0.09025 0.35799 0.0068 0.38707 0.18861 0.01371 0.08585-0.01283 0.16335-0.07747 0.22569-0.09484 0.09144-0.18577 0.10594-0.30069 0.04789zm-1.2817-0.50365c-0.29947-0.03037-0.56365-0.25056-0.64794-0.54054-0.03248-0.11173-0.03221-0.30903 2.64e-4 -0.42181 0.10454-0.35958 0.47205-0.59357 0.83984-0.5347 0.42955 0.06881 0.72428 0.50803 0.61707 0.91965-0.0974 0.37392-0.43553 0.61508-0.80954 0.5774zm1.5225-0.30867c-0.1022-0.03116-0.21007-0.11791-0.25485-0.20515-0.06184-0.12051-0.04547-0.30776 0.03678-0.42096 0.18475-0.25417 0.57412-0.20653 0.69982 0.08568 0.11044 0.25674-0.09501 0.55984-0.3755 0.55403-0.03634 0-0.08418-0.0068-0.10627-0.01326z" fill="#d2d6dc" stroke-width=".28222"/>
  <g fill="#e8eaec" stroke-linecap="round" stroke-width=".26458" aria-label="Experiment">
   <path d="m63.612 62.28h1.4372v-0.263h-1.1261v-0.88159h0.91863v-0.263h-0.91863v-0.76306h1.089v-0.25929h-1.4002z"/>
   <path d="m65.273 62.28h0.31856l0.24448-0.41857c0.05927-0.11113 0.11853-0.21855 0.1815-0.32226h0.01482c0.06668 0.10372 0.13335 0.21484 0.19632 0.32226l0.263 0.41857h0.32967l-0.58526-0.90752 0.54451-0.8927h-0.31856l-0.21855 0.39635c-0.05556 0.09631-0.11112 0.20002-0.16298 0.30004h-0.01482c-0.06297-0.10001-0.12224-0.20373-0.1778-0.30004l-0.24077-0.39635h-0.32967l0.54451 0.85937z"/>
   <path d="m67.471 62.117c0.16669 0.12965 0.33338 0.20743 0.50006 0.20743 0.41116 0 0.77788-0.3593 0.77788-0.97049 0-0.55933-0.24818-0.91863-0.7112-0.91863-0.21114 0-0.41116 0.11483-0.57415 0.25188h-0.01111l-0.02593-0.20743h-0.25188v2.5596h0.30374v-0.60748zm0.0074-0.23707v-0.94456c0.1778-0.15928 0.32967-0.24448 0.48154-0.24448 0.34078 0 0.47413 0.2667 0.47413 0.66305 0 0.4445-0.21855 0.7149-0.51488 0.7149-0.11853 0-0.27781-0.05186-0.4408-0.18891z"/>
   <path d="m69.096 61.384c0 0.58896 0.38153 0.94086 0.86307 0.94086 0.24448 0 0.43709-0.0852 0.59267-0.18521l-0.10742-0.20002c-0.13335 0.0852-0.27781 0.14076-0.4482 0.14076-0.34449 0-0.57785-0.24448-0.60008-0.63341h1.215c0.0074-0.04445 0.01111-0.10372 0.01111-0.16669 0-0.51488-0.25929-0.84455-0.71861-0.84455-0.41116 0-0.80751 0.3593-0.80751 0.94827zm0.29633-0.13706c0.03704-0.36301 0.2667-0.57044 0.51858-0.57044 0.28152 0 0.4445 0.20373 0.4445 0.57044z"/>
   <path d="m71.067 62.28h0.30374v-1.1557c0.12224-0.30374 0.30374-0.41487 0.45561-0.41487 0.07408 0 0.11483 0.01111 0.1741 0.02963l0.05927-0.2667c-0.05927-0.02593-0.11483-0.03704-0.19262-0.03704-0.20373 0-0.38894 0.14446-0.51118 0.37042h-0.01111l-0.02593-0.32597h-0.25188z"/>
   <path d="m72.51 60.11c0.11853 0 0.21114-0.08149 0.21114-0.19632 0-0.11853-0.0926-0.19632-0.21114-0.19632-0.11853 0-0.21114 0.07779-0.21114 0.19632 0 0.11483 0.0926 0.19632 0.21114 0.19632zm-0.15558 2.1706h0.30374v-1.8002h-0.30374z"/>
   <path d="m73.266 62.28h0.30374v-1.3039c0.16669-0.18521 0.31856-0.27781 0.45191-0.27781 0.22966 0 0.33708 0.14446 0.33708 0.48154v1.1001h0.30374v-1.3039c0.16669-0.18521 0.31115-0.27781 0.45191-0.27781 0.22596 0 0.33338 0.14446 0.33338 0.48154v1.1001h0.30374v-1.1409c0-0.45932-0.1778-0.70379-0.54822-0.70379-0.21855 0-0.40376 0.14076-0.59267 0.34449-0.07408-0.21484-0.22225-0.34449-0.49636-0.34449-0.21484 0-0.40376 0.13335-0.55933 0.30374h-0.01111l-0.02593-0.25929h-0.25188z"/>
   <path d="m76.201 61.384c0 0.58896 0.38153 0.94086 0.86307 0.94086 0.24448 0 0.43709-0.0852 0.59267-0.18521l-0.10742-0.20002c-0.13335 0.0852-0.27781 0.14076-0.4482 0.14076-0.34449 0-0.57785-0.24448-0.60008-0.63341h1.215c0.0074-0.04445 0.01111-0.10372 0.01111-0.16669 0-0.51488-0.25929-0.84455-0.71861-0.84455-0.41116 0-0.80751 0.3593-0.80751 0.94827zm0.29633-0.13706c0.03704-0.36301 0.2667-0.57044 0.51858-0.57044 0.28152 0 0.4445 0.20373 0.4445 0.57044z"/>
   <path d="m78.172 62.28h0.30374v-1.3039c0.1815-0.1815 0.30745-0.27781 0.49265-0.27781 0.23707 0 0.34078 0.14446 0.34078 0.48154v1.1001h0.30374v-1.1409c0-0.45932-0.17039-0.70379-0.54822-0.70379-0.24818 0-0.43339 0.13335-0.60378 0.30374h-0.01111l-0.02593-0.25929h-0.25188z"/>
   <path d="m80.249 61.725c0 0.3556 0.12965 0.60008 0.51488 0.60008 0.11112 0 0.23336-0.03334 0.33338-0.06667l-0.05927-0.22966c-0.05927 0.02223-0.14076 0.04815-0.20373 0.04815-0.20743 0-0.27781-0.12594-0.27781-0.34819v-1.0001h0.48525v-0.24818h-0.48525v-0.50377h-0.25559l-0.03704 0.50377-0.28152 0.01852v0.22966h0.2667z"/>
  </g>
  <rect x="111.26" y="42.466" width="33.073" height="21.167" fill="#1d232d" stroke="#535e70" stroke-linecap="round" stroke-width=".26458"/>
  <path d="m127.05 46.831c-0.49604 0-0.6268 0.04944-0.89363 0.33551-0.29828 0.31979-0.37114 0.33886-1.5846 0.41574l-1.2722 0.0806v8.6438h2.4578c1.6094 0 2.4332-0.03914 2.387-0.11399-0.0432-0.06999-0.95102-0.1145-2.3435-0.1145h-2.2732v-8.2197h0.62661c0.55099 0 0.62707 0.02794 0.62707 0.22849 0 0.18485-0.0759 0.22849-0.39892 0.22849h-0.39892v7.3633l2.244-0.0056c1.6409-0.0045 2.256-0.04225 2.2894-0.14275 0.0345-0.10358-0.48755-0.13719-2.1302-0.13719h-2.1751l-2.6e-4 -3.3962v-3.3962h5.5862v2.3117c3e-5 1.9787 0.0244 2.3117 0.17077 2.3117 0.1467 0 0.17123-0.34877 0.17123-2.4544v-2.4544h-0.39892c-0.32299 0-0.39938-0.04357-0.39938-0.22849 0-0.1979 0.0762-0.22849 0.57015-0.22849h0.57015v2.7914c0 2.3951 0.0247 2.8056 0.17539 2.8901 0.24938 0.1397 0.0852 0.48336-0.23093 0.48336-0.14239 0-0.33447-0.11419-0.42715-0.254-0.15005-0.22631-0.20213-0.23868-0.47434-0.11447-0.25222 0.11509-0.2857 0.17667-0.19113 0.35362 0.14712 0.27531-0.18144 0.60438-0.51601 0.51675-0.17033-0.04459-0.26647 0.01863-0.36837 0.24285-0.12272 0.26969-0.11268 0.30974 0.0921 0.36336 0.31438 0.0823 0.31621 0.60322 2e-3 0.68538-0.25086 0.0657-0.25685 0.08447-0.15318 0.47227 0.0584 0.21855 0.12718 0.25668 0.3744 0.20718 0.35125-0.07036 0.6314 0.25702 0.52016 0.60802-0.0433 0.13646 6e-3 0.25541 0.13697 0.33187 0.30869 0.17983 0.46651 0.15062 0.54656-0.10197 0.0472-0.14898 0.17264-0.22849 0.36051-0.22849 0.19211 0 0.30777 0.07617 0.34754 0.22849 0.0655 0.25098 0.0844 0.25739 0.46881 0.15429 0.21463-0.05749 0.25183-0.12471 0.19482-0.35219-0.0972-0.38794 0.11308-0.60647 0.50768-0.52744 0.26273 0.05261 0.33551 0.01749 0.40308-0.196 0.0597-0.18847 0.0237-0.30328-0.13097-0.41758-0.25105-0.1855-0.22307-0.47597 0.0689-0.71603 0.30917-0.25408 0.10863-0.73629-0.26702-0.64186-0.33729 0.08475-0.68484-0.24816-0.52433-0.50238 0.16937-0.26825 0.13219-0.34426-0.23186-0.47134l-0.34199-0.11907v-5.8849l-1.368-0.08156c-0.75238-0.04496-1.368-0.129-1.368-0.18632 0-0.05729-0.10276-0.2067-0.22815-0.33226-0.16838-0.16863-0.38016-0.22849-0.80942-0.22849zm0.0435 0.22846c0.38399 0 0.7659 0.27522 0.7659 0.55152 0 0.08436 0.21059 0.13344 0.57015 0.13344 0.55731 0 0.56968 0.0076 0.56968 0.34251v0.3425h-3.9896v-0.3425c0-0.33898 6e-3 -0.34251 0.62707-0.34251 0.54724 0 0.6266-0.02845 0.6266-0.22428 0-0.2807 0.3246-0.46067 0.83024-0.46067zm-0.26749 0.81246c-0.16702 0.0045-0.22075 0.05001-0.22075 0.15799 0 0.14399 0.0949 0.17729 0.42761 0.14972 0.23512-0.01947 0.42761-0.08693 0.42761-0.14972s-0.19249-0.13022-0.42761-0.14969c-0.0832-0.0071-0.15119-0.0099-0.20686-0.0085zm0.98294 2.3839c-1.396 0-1.7835 0.06632-1.5804 0.26972 0.0401 0.04002 0.75692 0.07278 1.5929 0.07278 1.2751 0 1.5198-0.02766 1.5198-0.17103 0-0.14371-0.24629-0.17148-1.5323-0.17148zm-2.8086 0.01326c-0.18139 0.0062-0.34316 0.10575-0.27628 0.21412 0.0934 0.15127 0.62754 0.14893 0.62754-0.0045 0-0.06474-0.0772-0.14735-0.17124-0.1835-0.0571-0.02172-0.11956-0.0298-0.18002-0.02766zm0.0727 1.2425c-0.15304 0-0.30973 0.05122-0.34848 0.11402-0.0411 0.0666 0.0747 0.11444 0.27814 0.11444 0.19179 0 0.34894-0.05168 0.34894-0.11444 0-0.06285-0.12555-0.11402-0.2786-0.11402zm2.736 0c-0.89851 0-1.5613 0.04707-1.6026 0.11402-0.0457 0.07402 0.49284 0.11444 1.5323 0.11444 0.99246 0 1.6026-0.04403 1.6026-0.11444 0-0.0705-0.58677-0.11402-1.5323-0.11402zm-2.8063 1.2559c-0.20345 0-0.31924 0.04736-0.27814 0.11399 0.0387 0.06282 0.19544 0.11402 0.34848 0.11402 0.15305 0 0.2786-0.05122 0.2786-0.11402 0-0.06279-0.15715-0.11399-0.34894-0.11399zm2.736 0c-1.0394 0-1.578 0.04002-1.5323 0.11399 0.0413 0.06697 0.7041 0.11402 1.6026 0.11402 0.94551 0 1.5323-0.04357 1.5323-0.11402 0-0.07067-0.61015-0.11399-1.6026-0.11399zm-2.6559 1.1415c-0.27873 0-0.4684 0.1366-0.35171 0.25352 0.11105 0.11117 0.54509 0.02977 0.5919-0.11077 0.0296-0.08904-0.0607-0.14275-0.24019-0.14275zm2.6221 0c-1.239 0-1.6758 0.06985-1.505 0.24096 0.0244 0.02455 0.67492 0.03869 1.4453 0.03203 0.93756-0.0085 1.4149-0.0556 1.4439-0.14275 0.0309-0.09291-0.36559-0.13022-1.3842-0.13022zm3.3223 0.0045c0.0707-0.01947 0.1222 0.07708 0.0773 0.25629-0.0773 0.30833 0.30522 0.71874 0.74507 0.7999 0.28457 0.05252 0.28434 0.05286 0.0282 0.13761-0.35543 0.11769-0.37631 0.9183-0.0268 1.0293 0.12631 0.04002 0.20036 0.12048 0.16429 0.1789-0.0402 0.06519-0.14527 0.06375-0.27119-0.0045-0.26578-0.14241-0.76457 0.35673-0.71777 0.71837 0.0297 0.22984 0.021 0.23348-0.12634 0.04775-0.20735-0.26125-1.1024-0.28459-1.1024-0.0289 0 0.09418-0.0572 0.17145-0.12726 0.17145-0.072 0-0.10101-0.10152-0.0667-0.23309 0.0839-0.32151-0.40628-0.843-0.71592-0.76194-0.26044 0.06819-0.31154-0.0876-0.0745-0.2266 0.0856-0.05015 0.17975-0.26111 0.20917-0.46857 0.0404-0.28496 2e-3 -0.40465-0.15595-0.48937-0.29222-0.15661-0.26463-0.34524 0.0342-0.23453 0.31049 0.11503 0.83015-0.36085 0.746-0.68312-0.0662-0.25346 0.0973-0.28984 0.19207-0.0427 0.0434 0.11337 0.22196 0.17148 0.52849 0.17148 0.30652 0 0.48553-0.05817 0.52896-0.17148 0.0392-0.10228 0.0885-0.15559 0.13096-0.16727zm-0.64883 0.95377c-0.1377-0.0045-0.28329 0.03381-0.42205 0.12466-0.36963 0.24251-0.38053 0.88403-0.0194 1.1373 0.3037 0.21299 0.3376 0.21516 0.71269 0.044 0.1612-0.07355 0.3241-0.25702 0.3619-0.40784 0.12246-0.48858-0.21998-0.88446-0.63309-0.89814zm9e-3 0.23636c0.34547 0.0076 0.55504 0.42548 0.2573 0.75495-0.22662 0.25078-0.25981 0.25685-0.53405 0.09689-0.26743-0.15601-0.25489-0.63805 0.0203-0.78559 0.0896-0.04801 0.17665-0.06802 0.25638-0.06621z" fill="#d2d6dc" stroke-width=".28222"/>
  <g fill="#e8eaec" stroke-linecap="round" stroke-width=".26458" aria-label="Plan">
   <path d="m124.61 62.28h0.31115v-0.96308h0.4371c0.52969 0 0.89641-0.24077 0.89641-0.75195 0-0.5334-0.35931-0.7149-0.89641-0.7149h-0.74825zm0.31115-1.215v-0.96679h0.39635c0.41857 0 0.62971 0.11483 0.62971 0.46672 0 0.34449-0.20373 0.50006-0.62971 0.50006z"/>
   <path d="m126.71 61.917c0 0.263 0.0926 0.40746 0.32226 0.40746 0.0815 0 0.13335-0.01111 0.1741-0.02963l-0.0408-0.22966c-0.0333 0.0074-0.0482 0.0074-0.0667 0.0074-0.0444 0-0.0852-0.03704-0.0852-0.13335v-2.2966h-0.30374z"/>
   <path d="m127.56 61.814c0 0.32226 0.22596 0.51118 0.5297 0.51118 0.22225 0 0.42228-0.11853 0.59637-0.25929h7e-3l0.0259 0.21484h0.25188v-1.1038c0-0.4482-0.18521-0.74083-0.626-0.74083-0.28893 0-0.54081 0.12594-0.7075 0.23336l0.12224 0.21114c0.14076-0.09631 0.32597-0.19262 0.5371-0.19262 0.29263 0 0.37042 0.22225 0.37042 0.45191-0.76676 0.0852-1.1076 0.28152-1.1076 0.67416zm0.30004-0.02222c0-0.22966 0.20373-0.37782 0.80751-0.45191v0.50006c-0.1741 0.15558-0.31856 0.24077-0.49265 0.24077-0.1778 0-0.31486-0.0852-0.31486-0.28893z"/>
   <path d="m129.55 62.28h0.30374v-1.3039c0.1815-0.1815 0.30745-0.27781 0.49265-0.27781 0.23707 0 0.34079 0.14446 0.34079 0.48154v1.1001h0.30374v-1.1409c0-0.45932-0.17039-0.70379-0.54822-0.70379-0.24818 0-0.43339 0.13335-0.60378 0.30374h-0.0111l-0.0259-0.25929h-0.25188z"/>
  </g>
  <g transform="matrix(0 .0042365 .0043091 0 126.54 40.101)" fill="#7893ea" stroke-width="123.85">
   <g fill="#7893ea" stroke-width="123.85">
    <path d="m486.41 221.41-364.07-208.5c-52.938-30.318-95.852-5.44-95.852 55.563v415.65c0 61.004 42.914 85.882 95.852 55.563l364.07-208.49c52.938-30.317 52.938-79.473 0-109.79z" fill="#7893ea" stroke-width="123.85"/>
   </g>
  </g>
 </g>
 <path d="m16.634 42.198v-19.844" fill="none" stroke="#7893ea" stroke-linecap="square" stroke-width=".26458"/>
 <g transform="matrix(0 -.0042365 .0043091 0 15.412 23.26)" fill="#7893ea" stroke-width="123.85">
  <g fill="#7893ea" stroke-width="123.85">
   <path d="m486.41 221.41-364.07-208.5c-52.938-30.318-95.852-5.44-95.852 55.563v415.65c0 61.004 42.914 85.882 95.852 55.563l364.07-208.49c52.938-30.317 52.938-79.473 0-109.79z" fill="#7893ea" stroke-width="123.85"/>
  </g>
 </g>
 <g fill="#e8eaec">
  <g stroke-linecap="round" stroke-width=".26458">
   <g aria-label="config">
    <path d="m12.819 48.812c0 0.51118 0.31432 0.80645 0.7239 0.80645 0.18415 0 0.36195-0.0762 0.50165-0.20002l-0.11748-0.17145c-0.09207 0.08255-0.2159 0.15558-0.36195 0.15558-0.28258 0-0.47625-0.23812-0.47625-0.59055 0-0.3556 0.2032-0.5969 0.4826-0.5969 0.12382 0 0.21908 0.05715 0.31115 0.13652l0.13018-0.16828c-0.10478-0.09842-0.24765-0.18415-0.45085-0.18415-0.39688 0-0.74295 0.29528-0.74295 0.8128z"/>
    <path d="m14.196 48.812c0 0.51118 0.33655 0.80645 0.71438 0.80645s0.71438-0.29528 0.71438-0.80645c0-0.51752-0.33655-0.8128-0.71438-0.8128s-0.71438 0.29528-0.71438 0.8128zm0.26988 0c0-0.3556 0.18098-0.5969 0.4445-0.5969 0.2667 0 0.4445 0.2413 0.4445 0.5969 0 0.35242-0.1778 0.59055-0.4445 0.59055-0.26352 0-0.4445-0.23812-0.4445-0.59055z"/>
    <path d="m16.034 49.58h0.26035v-1.1176c0.15558-0.15558 0.26352-0.23812 0.42228-0.23812 0.2032 0 0.2921 0.12382 0.2921 0.41275v0.94298h0.26035v-0.9779c0-0.3937-0.14605-0.60325-0.4699-0.60325-0.21272 0-0.37148 0.1143-0.51752 0.26035h-0.0095l-0.02222-0.22225h-0.2159z"/>
    <path d="m18.523 47.333c-0.06985-0.02857-0.16192-0.0508-0.25718-0.0508-0.30798 0-0.45085 0.19685-0.45085 0.51118v0.24448l-0.20955 0.01588v0.19685h0.20955v1.3303h0.26035v-1.3303h0.32702v-0.21272h-0.32702v-0.24448c0-0.19685 0.06985-0.29845 0.2159-0.29845 0.05715 0 0.11748 0.0127 0.17462 0.0381z"/>
    <path d="m18.834 47.72c0.1016 0 0.18098-0.06985 0.18098-0.16828 0-0.1016-0.07937-0.16828-0.18098-0.16828-0.1016 0-0.18098 0.06668-0.18098 0.16828 0 0.09842 0.07937 0.16828 0.18098 0.16828zm-0.13335 1.8606h0.26035v-1.543h-0.26035z"/>
    <path d="m19.593 49.841c0-0.0889 0.04763-0.18098 0.15875-0.26035 0.06668 0.01905 0.1397 0.0254 0.20002 0.0254h0.2667c0.20002 0 0.31115 0.04762 0.31115 0.1905 0 0.16192-0.19368 0.31432-0.48895 0.31432-0.2794 0-0.44768-0.10478-0.44768-0.26988zm-0.2286 0.03493c0 0.2667 0.26035 0.41592 0.63818 0.41592 0.47942 0 0.78105-0.24765 0.78105-0.5334 0-0.25718-0.18098-0.3683-0.53975-0.3683h-0.29845c-0.20955 0-0.27305-0.06985-0.27305-0.16828 0-0.08572 0.04445-0.13652 0.09843-0.18415 0.06985 0.03493 0.15558 0.05398 0.23178 0.05398 0.31432 0 0.56515-0.20638 0.56515-0.53658 0-0.13018-0.05397-0.24765-0.127-0.3175h0.3175v-0.20004h-0.53658c-0.05715-0.02222-0.13335-0.0381-0.21908-0.0381-0.31432 0-0.58102 0.21272-0.58102 0.54928 0 0.18415 0.09842 0.33338 0.20002 0.41592v0.0127c-0.07937 0.05397-0.16828 0.15558-0.16828 0.28575 0 0.12065 0.06033 0.2032 0.13652 0.25082v0.0127c-0.1397 0.09525-0.22542 0.21908-0.22542 0.34925zm0.63818-0.95885c-0.1778 0-0.32702-0.14288-0.32702-0.3683s0.14605-0.35878 0.32702-0.35878 0.32702 0.13335 0.32702 0.35878-0.14922 0.3683-0.32702 0.3683z"/>
   </g>
   <g aria-label="plan">
    <path d="m13.187 52.351c0.14288 0.11112 0.28575 0.1778 0.42862 0.1778 0.35242 0 0.66675-0.30798 0.66675-0.83185 0-0.47942-0.21272-0.7874-0.6096-0.7874-0.18098 0-0.35242 0.09843-0.49212 0.2159h-0.0095l-0.02223-0.1778h-0.2159v2.1939h0.26035v-0.5207zm0.0063-0.2032v-0.80962c0.1524-0.13652 0.28258-0.20955 0.41275-0.20955 0.2921 0 0.4064 0.2286 0.4064 0.56832 0 0.381-0.18732 0.61278-0.44132 0.61278-0.1016 0-0.23812-0.04445-0.37782-0.16192z"/>
    <path d="m14.694 52.18c0 0.22542 0.07938 0.34925 0.27622 0.34925 0.06985 0 0.1143-0.0095 0.14922-0.0254l-0.03493-0.19685c-0.02858 0.0063-0.04127 0.0063-0.05715 0.0063-0.0381 0-0.07302-0.03175-0.07302-0.1143v-1.9685h-0.26035z"/>
    <path d="m15.43 52.091c0 0.27622 0.19368 0.43815 0.45402 0.43815 0.1905 0 0.36195-0.1016 0.51117-0.22225h0.0064l0.02222 0.18415h0.2159v-0.94615c0-0.38418-0.15875-0.635-0.53658-0.635-0.24765 0-0.46355 0.10795-0.60642 0.20002l0.10478 0.18098c0.12065-0.08255 0.2794-0.1651 0.46037-0.1651 0.25082 0 0.3175 0.1905 0.3175 0.38735-0.65722 0.07303-0.94932 0.2413-0.94932 0.57785zm0.25718-0.01905c0-0.19685 0.17462-0.32385 0.69215-0.38735v0.42862c-0.14922 0.13335-0.27305 0.20638-0.42227 0.20638-0.1524 0-0.26988-0.07303-0.26988-0.24765z"/>
    <path d="m17.131 52.491h0.26035v-1.1176c0.15558-0.15558 0.26352-0.23812 0.42228-0.23812 0.2032 0 0.2921 0.12382 0.2921 0.41275v0.94298h0.26035v-0.9779c0-0.3937-0.14605-0.60325-0.4699-0.60325-0.21272 0-0.37148 0.1143-0.51752 0.26035h-0.0095l-0.02222-0.22225h-0.2159z"/>
   </g>
   <g aria-label="result">
    <path d="m12.933 55.401h0.26035v-0.9906c0.10478-0.26035 0.26035-0.3556 0.39052-0.3556 0.0635 0 0.09843 0.0095 0.14922 0.0254l0.0508-0.2286c-0.0508-0.02222-0.09842-0.03175-0.1651-0.03175-0.17462 0-0.33338 0.12382-0.43815 0.3175h-0.0095l-0.02223-0.2794h-0.2159z"/>
    <path d="m13.892 54.633c0 0.50482 0.32702 0.80645 0.73978 0.80645 0.20955 0 0.37465-0.07303 0.508-0.15875l-0.09207-0.17145c-0.1143 0.07303-0.23812 0.12065-0.38418 0.12065-0.29528 0-0.4953-0.20955-0.51435-0.54292h1.0414c0.0063-0.0381 0.0095-0.0889 0.0095-0.14288 0-0.44132-0.22225-0.7239-0.61595-0.7239-0.35242 0-0.69215 0.30798-0.69215 0.8128zm0.254-0.11748c0.03175-0.31115 0.2286-0.48895 0.4445-0.48895 0.2413 0 0.381 0.17462 0.381 0.48895z"/>
    <path d="m15.41 55.227c0.14605 0.12065 0.3556 0.21272 0.57468 0.21272 0.36512 0 0.56515-0.20955 0.56515-0.46038 0-0.2921-0.24765-0.38418-0.4699-0.46672-0.17462-0.06668-0.3429-0.12382-0.3429-0.2667 0-0.11748 0.0889-0.22225 0.28258-0.22225 0.13652 0 0.24765 0.05715 0.35242 0.13652l0.12382-0.1651c-0.11748-0.09525-0.28575-0.17462-0.47942-0.17462-0.33338 0-0.53022 0.1905-0.53022 0.43815 0 0.26035 0.2413 0.36512 0.46038 0.4445 0.16828 0.0635 0.35242 0.13335 0.35242 0.2921 0 0.13335-0.1016 0.2413-0.3048 0.2413-0.18415 0-0.32068-0.0762-0.45402-0.18415z"/>
    <path d="m16.892 54.836c0 0.3937 0.14605 0.60325 0.47308 0.60325 0.21272 0 0.36512-0.11112 0.508-0.2794h0.0095l0.02223 0.2413h0.2159v-1.543h-0.26035v1.0954c-0.14605 0.18098-0.25718 0.26035-0.41592 0.26035-0.2032 0-0.28892-0.12382-0.28892-0.41275v-0.94298h-0.26352z"/>
    <path d="m18.644 55.09c0 0.22542 0.07937 0.34925 0.27622 0.34925 0.06985 0 0.1143-0.0095 0.14922-0.0254l-0.03492-0.19685c-0.02858 0.0063-0.04128 0.0063-0.05715 0.0063-0.0381 0-0.07303-0.03175-0.07303-0.1143v-1.9685h-0.26035z"/>
    <path d="m19.501 54.925c0 0.3048 0.11112 0.51435 0.44132 0.51435 0.09525 0 0.20002-0.02858 0.28575-0.05715l-0.0508-0.19685c-0.0508 0.01905-0.12065 0.04127-0.17462 0.04127-0.1778 0-0.23812-0.10795-0.23812-0.29845v-0.85725h0.41592v-0.21272h-0.41592v-0.4318h-0.21908l-0.03175 0.4318-0.2413 0.01587v0.19685h0.2286z"/>
   </g>
  </g>
  <circle cx="11.642" cy="48.948" r=".26458"/>
  <circle cx="11.642" cy="51.858" r=".26458"/>
  <circle cx="11.642" cy="54.769" r=".26458"/>
 </g>
</svg>
