<?xml version="1.0" encoding="UTF-8"?>
<svg width="237mm" height="94.059mm" version="1.1" viewBox="0 0 237 94.059" xmlns="http://www.w3.org/2000/svg" xmlns:cc="http://creativecommons.org/ns#" xmlns:dc="http://purl.org/dc/elements/1.1/" xmlns:rdf="http://www.w3.org/1999/02/22-rdf-syntax-ns#">
 <metadata>
  <rdf:RDF>
   <cc:Work rdf:about="">
    <dc:format>image/svg+xml</dc:format>
    <dc:type rdf:resource="http://purl.org/dc/dcmitype/StillImage"/>
    <dc:title/>
   </cc:Work>
  </rdf:RDF>
 </metadata>
 <g stroke-linecap="square" stroke-width=".26458">
  <path d="m231.58 10.716h5.2917v-10.583h-233.63v10.583h7.4083" fill="none" stroke="#6f8ce9"/>
  <path d="m30.493 30.559v7.9375" fill="#6f8ce9" stroke="#a6aeb8"/>
  <path d="m30.493 30.559 13.229 7.9375" fill="none" stroke="#a6aeb8"/>
  <rect x="26.591" y="22.754" width="7.7391" height="7.6729" fill="#2f3744" stroke="#7b8694" stroke-linejoin="bevel" style="paint-order:normal"/>
  <path d="m17.264 46.434 12.435 7.4612" fill="none" stroke="#6f8ce9"/>
 </g>
 <g fill="#2f3744" stroke="#7b8694" stroke-linecap="square" stroke-linejoin="bevel" stroke-width=".26458">
  <rect x="26.591" y="38.629" width="7.7391" height="7.6729" style="paint-order:normal"/>
  <rect x="13.361" y="38.629" width="7.7391" height="7.6729" style="paint-order:normal"/>
  <rect x="39.82" y="38.629" width="7.7391" height="7.6729" style="paint-order:normal"/>
  <rect x="13.361" y="54.504" width="7.7391" height="7.6729" style="paint-order:normal"/>
  <rect x=".13229" y="54.504" width="7.7391" height="7.6729" style="paint-order:normal"/>
 </g>
 <path d="m24.54 69.453 5.9531-7.1438 5.5562 6.6675" fill="none" stroke="#6f8ce9" stroke-linecap="square" stroke-width=".26458"/>
 <g fill="#2f3744" stroke="#7b8694" stroke-linecap="square" stroke-linejoin="bevel" stroke-width=".26458">
  <rect x="26.591" y="54.504" width="7.7391" height="7.6729" style="paint-order:normal"/>
  <rect x="19.976" y="70.379" width="7.7391" height="7.6729" style="paint-order:normal"/>
  <rect x="33.205" y="70.379" width="7.7391" height="7.6729" style="paint-order:normal"/>
 </g>
 <path d="m17.264 46.434v7.9375" fill="#6f8ce9" stroke="#a6aeb8" stroke-linecap="square" stroke-width=".26458"/>
 <g fill="#47d58a" stroke-width="123.85">
  <g transform="matrix(.003914 .0016212 -.001649 .0039811 18.107 36.298)">
   <g fill="#47d58a" stroke-width="123.85">
    <path d="m486.41 221.41-364.07-208.5c-52.938-30.318-95.852-5.44-95.852 55.563v415.65c0 61.004 42.914 85.882 95.852 55.563l364.07-208.49c52.938-30.317 52.938-79.473 0-109.79z" fill="#6f8ce9" stroke-width="123.85"/>
   </g>
  </g>
  <g transform="matrix(-.003669 .0021183 .0021546 .0037318 29.808 52.288)">
   <g fill="#47d58a" stroke-width="123.85">
    <path d="m486.41 221.41-364.07-208.5c-52.938-30.318-95.852-5.44-95.852 55.563v415.65c0 61.004 42.914 85.882 95.852 55.563l364.07-208.49c52.938-30.317 52.938-79.473 0-109.79z" fill="#6f8ce9" stroke-width="123.85"/>
   </g>
  </g>
  <g transform="matrix(.0042003 .00055298 -.00056245 .0042722 24.088 67.939)">
   <g fill="#47d58a" stroke-width="123.85">
    <path d="m486.41 221.41-364.07-208.5c-52.938-30.318-95.852-5.44-95.852 55.563v415.65c0 61.004 42.914 85.882 95.852 55.563l364.07-208.49c52.938-30.317 52.938-79.473 0-109.79z" fill="#6f8ce9" stroke-width="123.85"/>
   </g>
  </g>
  <g transform="matrix(-.0042003 .00055298 .00056245 .0042722 37.091 67.939)">
   <g fill="#47d58a" stroke-width="123.85">
    <path d="m486.41 221.41-364.07-208.5c-52.938-30.318-95.852-5.44-95.852 55.563v415.65c0 61.004 42.914 85.882 95.852 55.563l364.07-208.49c52.938-30.317 52.938-79.473 0-109.79z" fill="#6f8ce9" stroke-width="123.85"/>
   </g>
  </g>
 </g>
 <g stroke-linecap="square" stroke-width=".26458">
  <path d="m4.0349 54.372 13.229-7.9375" fill="none" stroke="#a6aeb8"/>
  <path d="m18.587 37.703 11.906-7.1438" fill="none" stroke="#6f8ce9"/>
  <path d="m91.347 30.559v7.9375" fill="#6f8ce9" stroke="#a6aeb8"/>
  <path d="m91.347 30.559 13.229 7.9375" fill="none" stroke="#a6aeb8"/>
  <rect x="87.445" y="22.754" width="7.7391" height="7.6729" fill="#2f3744" stroke="#7b8694" stroke-linejoin="bevel" style="paint-order:normal"/>
  <path d="m78.118 46.434 12.435 7.4612" fill="none" stroke="#6f8ce9"/>
 </g>
 <g fill="#2f3744" stroke="#7b8694" stroke-linecap="square" stroke-linejoin="bevel" stroke-width=".26458">
  <rect x="87.445" y="38.629" width="7.7391" height="7.6729" style="paint-order:normal"/>
  <rect x="74.216" y="38.629" width="7.7391" height="7.6729" style="paint-order:normal"/>
  <rect x="100.67" y="38.629" width="7.7391" height="7.6729" style="paint-order:normal"/>
  <rect x="74.216" y="54.504" width="7.7391" height="7.6729" style="paint-order:normal"/>
  <rect x="60.986" y="54.504" width="7.7391" height="7.6729" style="paint-order:normal"/>
 </g>
 <path d="m85.394 69.453 5.9531-7.1438 5.5562 6.6675" fill="none" stroke="#6f8ce9" stroke-linecap="square" stroke-width=".26458"/>
 <g stroke-linecap="square" stroke-width=".26458">
  <rect x="87.445" y="54.504" width="7.7391" height="7.6729" fill="#2f3744" stroke="#7b8694" stroke-linejoin="bevel" style="paint-order:normal"/>
  <path d="m84.733 78.184v5.8208" fill="#6f8ce9" stroke="#6f8ce9"/>
  <rect x="80.83" y="70.379" width="7.7391" height="7.6729" fill="#2f3744" stroke="#7b8694" stroke-linejoin="bevel" style="paint-order:normal"/>
  <rect x="94.059" y="70.379" width="7.7391" height="7.6729" fill="#2f3744" stroke="#7b8694" stroke-linejoin="bevel" style="paint-order:normal"/>
  <path d="m78.118 46.434v7.9375" fill="#6f8ce9" stroke="#a6aeb8"/>
 </g>
 <g fill="#47d58a" stroke-width="123.85">
  <g transform="matrix(.003914 .0016212 -.001649 .0039811 78.961 36.298)">
   <g fill="#47d58a" stroke-width="123.85">
    <path d="m486.41 221.41-364.07-208.5c-52.938-30.318-95.852-5.44-95.852 55.563v415.65c0 61.004 42.914 85.882 95.852 55.563l364.07-208.49c52.938-30.317 52.938-79.473 0-109.79z" fill="#6f8ce9" stroke-width="123.85"/>
   </g>
  </g>
  <g transform="matrix(-.003669 .0021183 .0021546 .0037318 90.662 52.288)">
   <g fill="#47d58a" stroke-width="123.85">
    <path d="m486.41 221.41-364.07-208.5c-52.938-30.318-95.852-5.44-95.852 55.563v415.65c0 61.004 42.914 85.882 95.852 55.563l364.07-208.49c52.938-30.317 52.938-79.473 0-109.79z" fill="#6f8ce9" stroke-width="123.85"/>
   </g>
  </g>
  <g transform="matrix(.0042003 .00055298 -.00056245 .0042722 84.942 67.939)">
   <g fill="#47d58a" stroke-width="123.85">
    <path d="m486.41 221.41-364.07-208.5c-52.938-30.318-95.852-5.44-95.852 55.563v415.65c0 61.004 42.914 85.882 95.852 55.563l364.07-208.49c52.938-30.317 52.938-79.473 0-109.79z" fill="#6f8ce9" stroke-width="123.85"/>
   </g>
  </g>
  <g transform="matrix(-.0042003 .00055298 .00056245 .0042722 97.945 67.939)">
   <g fill="#47d58a" stroke-width="123.85">
    <path d="m486.41 221.41-364.07-208.5c-52.938-30.318-95.852-5.44-95.852 55.563v415.65c0 61.004 42.914 85.882 95.852 55.563l364.07-208.49c52.938-30.317 52.938-79.473 0-109.79z" fill="#6f8ce9" stroke-width="123.85"/>
   </g>
  </g>
 </g>
 <g stroke-linecap="square" stroke-width=".26458">
  <path d="m64.889 54.372 13.229-7.9375" fill="none" stroke="#a6aeb8"/>
  <path d="m79.441 37.703 11.906-7.1438" fill="none" stroke="#6f8ce9"/>
  <rect x="80.83" y="86.254" width="7.7391" height="7.6729" fill="#2f3744" stroke="#7b8694" stroke-linejoin="bevel" style="paint-order:normal"/>
 </g>
 <g transform="matrix(.003669 -.0021183 .0021546 .0037318 83.354 84.216)" fill="#47d58a" stroke-width="123.85">
  <g fill="#47d58a" stroke-width="123.85">
   <path d="m486.41 221.41-364.07-208.5c-52.938-30.318-95.852-5.44-95.852 55.563v415.65c0 61.004 42.914 85.882 95.852 55.563l364.07-208.49c52.938-30.317 52.938-79.473 0-109.79z" fill="#6f8ce9" stroke-width="123.85"/>
  </g>
 </g>
 <g stroke="#a6aeb8" stroke-linecap="square" stroke-width=".26458">
  <path d="m140.3 38.497 13.229-7.9375" fill="none"/>
  <path d="m153.52 30.559v7.9375" fill="#6f8ce9"/>
  <path d="m153.52 30.559 13.229 7.9375" fill="none"/>
 </g>
 <rect x="149.62" y="22.754" width="7.7391" height="7.6729" fill="#2f3744" stroke="#7b8694" stroke-linecap="square" stroke-linejoin="bevel" stroke-width=".26458" style="paint-order:normal"/>
 <path d="m140.3 46.434 13.229 7.9375" fill="none" stroke="#a6aeb8" stroke-linecap="square" stroke-width=".26458"/>
 <g fill="#2f3744" stroke="#7b8694" stroke-linecap="square" stroke-linejoin="bevel" stroke-width=".26458">
  <rect x="149.62" y="38.629" width="7.7391" height="7.6729" style="paint-order:normal"/>
  <rect x="136.39" y="38.629" width="7.7391" height="7.6729" style="paint-order:normal"/>
  <rect x="162.85" y="38.629" width="7.7391" height="7.6729" style="paint-order:normal"/>
  <rect x="136.39" y="54.504" width="7.7391" height="7.6729" style="paint-order:normal"/>
  <rect x="123.16" y="54.504" width="7.7391" height="7.6729" style="paint-order:normal"/>
 </g>
 <path d="m146.91 70.247 6.6146-7.9375 6.6146 7.9375" fill="none" stroke="#a6aeb8" stroke-linecap="square" stroke-width=".26458"/>
 <g stroke-linecap="square" stroke-width=".26458">
  <rect x="149.62" y="54.504" width="7.7391" height="7.6729" fill="#2f3744" stroke="#7b8694" stroke-linejoin="bevel" style="paint-order:normal"/>
  <path d="m146.91 78.184v7.9375" fill="#6f8ce9" stroke="#a6aeb8"/>
  <rect x="143.01" y="70.379" width="7.7391" height="7.6729" fill="#2f3744" stroke="#7b8694" stroke-linejoin="bevel" style="paint-order:normal"/>
  <rect x="156.24" y="70.379" width="7.7391" height="7.6729" fill="#2f3744" stroke="#7b8694" stroke-linejoin="bevel" style="paint-order:normal"/>
  <path d="m140.3 46.434v7.9375" fill="#6f8ce9" stroke="#a6aeb8"/>
 </g>
 <path d="m127.07 54.372 13.229-7.9375" fill="none" stroke="#a6aeb8" stroke-linecap="square" stroke-width=".26458"/>
 <rect x="143.01" y="86.254" width="7.7391" height="7.6729" fill="#2f3744" stroke="#7b8694" stroke-linecap="square" stroke-linejoin="bevel" stroke-width=".26458" style="paint-order:normal"/>
 <g transform="matrix(.057632 0 0 .057662 114.41 66.668)" fill-rule="evenodd">
  <path d="m587.56 383.42 12.25-6 0.5625 45.375-11.628 18.978-20.324-3.4566z" fill="#a96f00"/>
  <path d="m532.83 380.27 23.917-4.8431 43.25 1.875-12.812 6.25z" fill="#ffd179"/>
  <path d="m534.75 432.94 53.74 8.9272-0.70711-59.043-54.536-2.5633z" fill="#fbb227"/>
 </g>
 <g stroke-linecap="square" stroke-width=".26458">
  <path d="m213.06 30.559v7.9375" fill="#6f8ce9" stroke="#a6aeb8"/>
  <path d="m213.06 30.559 13.229 7.9375" fill="none" stroke="#a6aeb8"/>
  <rect x="209.15" y="22.754" width="7.7391" height="7.6729" fill="#2f3744" stroke="#7b8694" stroke-linejoin="bevel" style="paint-order:normal"/>
  <path d="m200.88 47.069 12.171 7.3025" fill="none" stroke="#6f8ce9"/>
 </g>
 <g fill="#2f3744" stroke="#7b8694" stroke-linecap="square" stroke-linejoin="bevel" stroke-width=".26458">
  <rect x="209.15" y="38.629" width="7.7391" height="7.6729" style="paint-order:normal"/>
  <rect x="195.92" y="38.629" width="7.7391" height="7.6729" style="paint-order:normal"/>
  <rect x="222.38" y="38.629" width="7.7391" height="7.6729" style="paint-order:normal"/>
  <rect x="195.92" y="54.504" width="7.7391" height="7.6729" style="paint-order:normal"/>
  <rect x="182.69" y="54.504" width="7.7391" height="7.6729" style="paint-order:normal"/>
 </g>
 <path d="m206.44 70.247 5.5563-6.6675" fill="none" stroke="#6f8ce9" stroke-linecap="square" stroke-width=".26458"/>
 <g stroke-linecap="square" stroke-width=".26458">
  <rect x="209.15" y="54.504" width="7.7391" height="7.6729" fill="#2f3744" stroke="#7b8694" stroke-linejoin="bevel" style="paint-order:normal"/>
  <path d="m206.44 80.301v5.8208" fill="#6f8ce9" stroke="#6f8ce9"/>
  <rect x="202.54" y="70.379" width="7.7391" height="7.6729" fill="#2f3744" stroke="#7b8694" stroke-linejoin="bevel" style="paint-order:normal"/>
  <rect x="215.77" y="70.379" width="7.7391" height="7.6729" fill="#2f3744" stroke="#7b8694" stroke-linejoin="bevel" style="paint-order:normal"/>
  <path d="m199.83 46.434v7.9375" fill="#6f8ce9" stroke="#a6aeb8"/>
 </g>
 <g fill="#47d58a" stroke-width="123.85">
  <g transform="matrix(-.003914 -.0016212 .001649 -.0039811 211.88 32.941)">
   <g fill="#47d58a" stroke-width="123.85">
    <path d="m486.41 221.41-364.07-208.5c-52.938-30.318-95.852-5.44-95.852 55.563v415.65c0 61.004 42.914 85.882 95.852 55.563l364.07-208.49c52.938-30.317 52.938-79.473 0-109.79z" fill="#6f8ce9" stroke-width="123.85"/>
   </g>
  </g>
  <g transform="matrix(.003669 -.0021183 -.0021546 -.0037318 201.16 48.88)">
   <g fill="#47d58a" stroke-width="123.85">
    <path d="m486.41 221.41-364.07-208.5c-52.938-30.318-95.852-5.44-95.852 55.563v415.65c0 61.004 42.914 85.882 95.852 55.563l364.07-208.49c52.938-30.317 52.938-79.473 0-109.79z" fill="#6f8ce9" stroke-width="123.85"/>
   </g>
  </g>
  <g transform="matrix(-.0042003 -.00055298 .00056245 -.0042722 212.51 65.097)">
   <g fill="#47d58a" stroke-width="123.85">
    <path d="m486.41 221.41-364.07-208.5c-52.938-30.318-95.852-5.44-95.852 55.563v415.65c0 61.004 42.914 85.882 95.852 55.563l364.07-208.49c52.938-30.317 52.938-79.473 0-109.79z" fill="#6f8ce9" stroke-width="123.85"/>
   </g>
  </g>
  <g transform="matrix(.0042003 -.00055298 -.00056245 -.0042722 213.53 65.097)">
   <g fill="#47d58a" stroke-width="123.85">
    <path d="m486.41 221.41-364.07-208.5c-52.938-30.318-95.852-5.44-95.852 55.563v415.65c0 61.004 42.914 85.882 95.852 55.563l364.07-208.49c52.938-30.317 52.938-79.473 0-109.79z" fill="#6f8ce9" stroke-width="123.85"/>
   </g>
  </g>
 </g>
 <g stroke-linecap="square" stroke-width=".26458">
  <path d="m186.6 54.372 13.229-7.9375" fill="none" stroke="#a6aeb8"/>
  <path d="m199.83 38.497 11.642-6.985" fill="none" stroke="#6f8ce9"/>
  <rect x="202.54" y="86.254" width="7.7391" height="7.6729" fill="#2f3744" stroke="#7b8694" stroke-linejoin="bevel" style="paint-order:normal"/>
 </g>
 <g transform="matrix(.003669 .0021183 .0021546 -.0037318 205.06 80.107)" fill="#47d58a" stroke-width="123.85">
  <g fill="#47d58a" stroke-width="123.85">
   <path d="m486.41 221.41-364.07-208.5c-52.938-30.318-95.852-5.44-95.852 55.563v415.65c0 61.004 42.914 85.882 95.852 55.563l364.07-208.49c52.938-30.317 52.938-79.473 0-109.79z" fill="#6f8ce9" stroke-width="123.85"/>
  </g>
 </g>
 <path d="m214.16 63.632 5.5121 6.6146" fill="none" stroke="#6f8ce9" stroke-linecap="square" stroke-width=".26458"/>
 <g>
  <rect x="12.634" y="5.9148" width="36.711" height="9.6017" fill="#2f3744" stroke="#7b8694" stroke-linecap="square" stroke-linejoin="bevel" stroke-width=".26458" style="paint-order:normal"/>
  <g transform="matrix(1.0015 0 0 .99852 19.618 33.538)" fill="#e8eaec" stroke-width=".28222px" aria-label="Selection">
   <path d="m3.2464-21.842c0.2413 0.24977 0.57997 0.41063 0.96943 0.41063 0.5842 0 0.94827-0.35137 0.94827-0.79163 0-0.41063-0.24977-0.60113-0.5715-0.74083l-0.39793-0.16933c-0.2159-0.09313-0.46143-0.19473-0.46143-0.46143 0-0.24977 0.20743-0.4064 0.5207-0.4064 0.254 0 0.46143 0.1016 0.63077 0.26247l0.18627-0.2286c-0.19473-0.2032-0.48683-0.3429-0.81703-0.3429-0.50377 0-0.8763 0.31327-0.8763 0.7366 0 0.4064 0.3048 0.60537 0.56303 0.71543l0.39793 0.17357c0.26247 0.11853 0.46567 0.20743 0.46567 0.49107 0 0.27093-0.2159 0.45297-0.57997 0.45297-0.2921 0-0.56727-0.1397-0.76623-0.34713z"/>
   <path d="m5.5125-22.507c0 0.6731 0.43603 1.0753 0.98637 1.0753 0.2794 0 0.49953-0.09737 0.67733-0.21167l-0.12277-0.2286c-0.1524 0.09737-0.3175 0.16087-0.51223 0.16087-0.3937 0-0.6604-0.2794-0.6858-0.7239h1.3885c0.00847-0.0508 0.0127-0.11853 0.0127-0.1905 0-0.58843-0.29633-0.9652-0.82127-0.9652-0.4699 0-0.92287 0.41063-0.92287 1.0837zm0.33867-0.15663c0.042333-0.41487 0.3048-0.65193 0.59267-0.65193 0.32173 0 0.508 0.23283 0.508 0.65193z"/>
   <path d="m7.765-21.897c0 0.30057 0.10583 0.46567 0.3683 0.46567 0.093133 0 0.1524-0.0127 0.19897-0.03387l-0.046567-0.26247c-0.0381 0.0085-0.055033 0.0085-0.0762 0.0085-0.0508 0-0.097367-0.04233-0.097367-0.1524v-2.6247h-0.34713z"/>
   <path d="m8.6957-22.507c0 0.6731 0.43603 1.0753 0.98637 1.0753 0.2794 0 0.49953-0.09737 0.67733-0.21167l-0.12277-0.2286c-0.1524 0.09737-0.3175 0.16087-0.51223 0.16087-0.3937 0-0.6604-0.2794-0.6858-0.7239h1.3885c0.0085-0.0508 0.0127-0.11853 0.0127-0.1905 0-0.58843-0.29633-0.9652-0.82127-0.9652-0.4699 0-0.92287 0.41063-0.92287 1.0837zm0.33867-0.15663c0.042333-0.41487 0.3048-0.65193 0.59267-0.65193 0.32173 0 0.508 0.23283 0.508 0.65193z"/>
   <path d="m10.796-22.507c0 0.68157 0.4191 1.0753 0.9652 1.0753 0.24553 0 0.4826-0.1016 0.66887-0.2667l-0.15663-0.2286c-0.12277 0.11007-0.28787 0.20743-0.4826 0.20743-0.37677 0-0.635-0.3175-0.635-0.7874 0-0.47413 0.27093-0.79587 0.64347-0.79587 0.1651 0 0.2921 0.0762 0.41487 0.18203l0.17357-0.22437c-0.1397-0.13123-0.3302-0.24553-0.60113-0.24553-0.52917 0-0.9906 0.3937-0.9906 1.0837z"/>
   <path d="m12.934-22.117c0 0.4064 0.14817 0.6858 0.58843 0.6858 0.127 0 0.2667-0.0381 0.381-0.0762l-0.06773-0.26247c-0.06773 0.0254-0.16087 0.05503-0.23283 0.05503-0.23707 0-0.3175-0.14393-0.3175-0.39793v-1.143h0.55457v-0.28363h-0.55457v-0.57573h-0.2921l-0.04233 0.57573-0.32173 0.02117v0.26247h0.3048z"/>
   <path d="m14.483-23.963c0.13547 0 0.2413-0.09313 0.2413-0.22437 0-0.13547-0.10583-0.22437-0.2413-0.22437-0.13547 0-0.2413 0.0889-0.2413 0.22437 0 0.13123 0.10583 0.22437 0.2413 0.22437zm-0.1778 2.4807h0.34713v-2.0574h-0.34713z"/>
   <path d="m15.195-22.507c0 0.68157 0.44873 1.0753 0.9525 1.0753s0.9525-0.3937 0.9525-1.0753c0-0.69003-0.44873-1.0837-0.9525-1.0837s-0.9525 0.3937-0.9525 1.0837zm0.35983 0c0-0.47413 0.2413-0.79587 0.59267-0.79587 0.3556 0 0.59267 0.32173 0.59267 0.79587 0 0.4699-0.23707 0.7874-0.59267 0.7874-0.35137 0-0.59267-0.3175-0.59267-0.7874z"/>
   <path d="m17.646-21.482h0.34713v-1.4901c0.20743-0.20743 0.35137-0.3175 0.56303-0.3175 0.27093 0 0.38947 0.1651 0.38947 0.55033v1.2573h0.34713v-1.3039c0-0.52493-0.19473-0.80433-0.62653-0.80433-0.28363 0-0.4953 0.1524-0.69003 0.34713h-0.0127l-0.02963-0.29633h-0.28787z"/>
  </g>
  <rect x="73.488" y="5.9148" width="36.711" height="9.6017" fill="#2f3744" stroke="#7b8694" stroke-linecap="square" stroke-linejoin="bevel" stroke-width=".26458" style="paint-order:normal"/>
  <g transform="matrix(1.0015 0 0 .99852 19.618 33.538)" fill="#e8eaec" stroke-width=".28222px" aria-label="Expansion">
   <path d="m63.329-21.482h1.6425v-0.30057h-1.2869v-1.0075h1.0499v-0.30057h-1.0499v-0.87207h1.2446v-0.29633h-1.6002z"/>
   <path d="m65.227-21.482h0.36407l0.2794-0.47837c0.06773-0.127 0.13547-0.24977 0.20743-0.3683h0.01693c0.0762 0.11853 0.1524 0.24553 0.22437 0.3683l0.30057 0.47837h0.37677l-0.66887-1.0372 0.6223-1.0202h-0.36407l-0.24977 0.45297c-0.0635 0.11007-0.127 0.2286-0.18627 0.3429h-0.01693c-0.07197-0.1143-0.1397-0.23283-0.2032-0.3429l-0.27517-0.45297h-0.37677l0.6223 0.98213z"/>
   <path d="m67.739-21.669c0.1905 0.14817 0.381 0.23707 0.5715 0.23707 0.4699 0 0.889-0.41063 0.889-1.1091 0-0.63923-0.28363-1.0499-0.8128-1.0499-0.2413 0-0.4699 0.13123-0.65617 0.28787h-0.0127l-0.02963-0.23707h-0.28787v2.9252h0.34713v-0.69427zm0.0085-0.27093v-1.0795c0.2032-0.18203 0.37677-0.2794 0.55033-0.2794 0.38947 0 0.54187 0.3048 0.54187 0.75777 0 0.508-0.24977 0.81703-0.58843 0.81703-0.13547 0-0.3175-0.05927-0.50377-0.2159z"/>
   <path d="m69.589-22.016c0 0.3683 0.25823 0.5842 0.60537 0.5842 0.254 0 0.4826-0.13547 0.68157-0.29633h0.0085l0.02963 0.24553h0.28787v-1.2615c0-0.51223-0.21167-0.84667-0.71543-0.84667-0.3302 0-0.61807 0.14393-0.80857 0.2667l0.1397 0.2413c0.16087-0.11007 0.37253-0.22013 0.61383-0.22013 0.33443 0 0.42333 0.254 0.42333 0.51647-0.8763 0.09737-1.2658 0.32173-1.2658 0.77047zm0.3429-0.0254c0-0.26247 0.23283-0.4318 0.92287-0.51647v0.5715c-0.19897 0.1778-0.36407 0.27517-0.56303 0.27517-0.2032 0-0.35983-0.09737-0.35983-0.3302z"/>
   <path d="m71.857-21.482h0.34713v-1.4901c0.20743-0.20743 0.35137-0.3175 0.56303-0.3175 0.27093 0 0.38947 0.1651 0.38947 0.55033v1.2573h0.34713v-1.3039c0-0.52493-0.19473-0.80433-0.62653-0.80433-0.28363 0-0.4953 0.1524-0.69003 0.34713h-0.0127l-0.02963-0.29633h-0.28787z"/>
   <path d="m73.943-21.715c0.19473 0.16087 0.47413 0.28363 0.76623 0.28363 0.48683 0 0.75353-0.2794 0.75353-0.61383 0-0.38947-0.3302-0.51223-0.62653-0.6223-0.23283-0.0889-0.4572-0.1651-0.4572-0.3556 0-0.15663 0.11853-0.29633 0.37677-0.29633 0.18203 0 0.3302 0.0762 0.4699 0.18203l0.1651-0.22013c-0.15663-0.127-0.381-0.23283-0.63923-0.23283-0.4445 0-0.70697 0.254-0.70697 0.5842 0 0.34713 0.32173 0.48683 0.61383 0.59267 0.22437 0.08467 0.4699 0.1778 0.4699 0.38947 0 0.1778-0.13547 0.32173-0.4064 0.32173-0.24553 0-0.42757-0.1016-0.60537-0.24553z"/>
   <path d="m76.127-23.963c0.13547 0 0.2413-0.09313 0.2413-0.22437 0-0.13547-0.10583-0.22437-0.2413-0.22437s-0.2413 0.0889-0.2413 0.22437c0 0.13123 0.10583 0.22437 0.2413 0.22437zm-0.1778 2.4807h0.34713v-2.0574h-0.34713z"/>
   <path d="m76.839-22.507c0 0.68157 0.44873 1.0753 0.9525 1.0753s0.9525-0.3937 0.9525-1.0753c0-0.69003-0.44873-1.0837-0.9525-1.0837s-0.9525 0.3937-0.9525 1.0837zm0.35983 0c0-0.47413 0.2413-0.79587 0.59267-0.79587 0.3556 0 0.59267 0.32173 0.59267 0.79587 0 0.4699-0.23707 0.7874-0.59267 0.7874-0.35137 0-0.59267-0.3175-0.59267-0.7874z"/>
   <path d="m79.29-21.482h0.34713v-1.4901c0.20743-0.20743 0.35137-0.3175 0.56303-0.3175 0.27093 0 0.38947 0.1651 0.38947 0.55033v1.2573h0.34713v-1.3039c0-0.52493-0.19473-0.80433-0.62653-0.80433-0.28363 0-0.4953 0.1524-0.69003 0.34713h-0.0127l-0.02963-0.29633h-0.28787z"/>
  </g>
  <rect x="134.34" y="5.9148" width="36.711" height="9.6017" fill="#2f3744" stroke="#7b8694" stroke-linecap="square" stroke-linejoin="bevel" stroke-width=".26458" style="paint-order:normal"/>
  <g transform="matrix(1.0015 0 0 .99852 19.618 33.538)" fill="#e8eaec" stroke-width=".28222px" aria-label="Simulation">
   <path d="m123.33-21.842c0.2413 0.24977 0.57996 0.41063 0.96943 0.41063 0.5842 0 0.94827-0.35137 0.94827-0.79163 0-0.41063-0.24977-0.60113-0.5715-0.74083l-0.39794-0.16933c-0.2159-0.09313-0.46143-0.19473-0.46143-0.46143 0-0.24977 0.20743-0.4064 0.5207-0.4064 0.254 0 0.46143 0.1016 0.63077 0.26247l0.18626-0.2286c-0.19473-0.2032-0.48683-0.3429-0.81703-0.3429-0.50377 0-0.8763 0.31327-0.8763 0.7366 0 0.4064 0.3048 0.60537 0.56303 0.71543l0.39794 0.17357c0.26246 0.11853 0.46566 0.20743 0.46566 0.49107 0 0.27093-0.2159 0.45297-0.57996 0.45297-0.2921 0-0.56727-0.1397-0.76624-0.34713z"/>
   <path d="m125.92-23.963c0.13546 0 0.2413-0.09313 0.2413-0.22437 0-0.13547-0.10584-0.22437-0.2413-0.22437-0.13547 0-0.2413 0.0889-0.2413 0.22437 0 0.13123 0.10583 0.22437 0.2413 0.22437zm-0.1778 2.4807h0.34713v-2.0574h-0.34713z"/>
   <path d="m126.79-21.482h0.34713v-1.4901c0.1905-0.21167 0.36407-0.3175 0.51647-0.3175 0.26247 0 0.38523 0.1651 0.38523 0.55033v1.2573h0.34714v-1.4901c0.1905-0.21167 0.3556-0.3175 0.51646-0.3175 0.25824 0 0.381 0.1651 0.381 0.55033v1.2573h0.34714v-1.3039c0-0.52493-0.2032-0.80433-0.62654-0.80433-0.24976 0-0.46143 0.16087-0.67733 0.3937-0.0847-0.24553-0.254-0.3937-0.56727-0.3937-0.24553 0-0.46143 0.1524-0.63923 0.34713h-0.0127l-0.0296-0.29633h-0.28787z"/>
   <path d="m130.26-22.236c0 0.52493 0.19474 0.80433 0.63077 0.80433 0.28363 0 0.48683-0.14817 0.67733-0.37253h0.0127l0.0296 0.32173h0.28786v-2.0574h-0.34713v1.4605c-0.19473 0.2413-0.3429 0.34713-0.55457 0.34713-0.27093 0-0.38523-0.1651-0.38523-0.55033v-1.2573h-0.35137z"/>
   <path d="m132.6-21.897c0 0.30057 0.10584 0.46567 0.3683 0.46567 0.0931 0 0.1524-0.0127 0.19897-0.03387l-0.0466-0.26247c-0.0381 0.0085-0.055 0.0085-0.0762 0.0085-0.0508 0-0.0974-0.04233-0.0974-0.1524v-2.6247h-0.34714z"/>
   <path d="m133.58-22.016c0 0.3683 0.25823 0.5842 0.60537 0.5842 0.25399 0 0.48259-0.13547 0.68156-0.29633h8e-3l0.0296 0.24553h0.28787v-1.2615c0-0.51223-0.21167-0.84667-0.71544-0.84667-0.33019 0-0.61806 0.14393-0.80856 0.2667l0.1397 0.2413c0.16087-0.11007 0.37253-0.22013 0.61383-0.22013 0.33443 0 0.42333 0.254 0.42333 0.51647-0.87629 0.09737-1.2658 0.32173-1.2658 0.77047zm0.3429-0.0254c0-0.26247 0.23283-0.4318 0.92286-0.51647v0.5715c-0.19896 0.1778-0.36406 0.27517-0.56303 0.27517-0.2032 0-0.35983-0.09737-0.35983-0.3302z"/>
   <path d="m135.91-22.117c0 0.4064 0.14817 0.6858 0.58843 0.6858 0.127 0 0.2667-0.0381 0.381-0.0762l-0.0677-0.26247c-0.0677 0.0254-0.16087 0.05503-0.23283 0.05503-0.23707 0-0.3175-0.14393-0.3175-0.39793v-1.143h0.55456v-0.28363h-0.55456v-0.57573h-0.2921l-0.0423 0.57573-0.32173 0.02117v0.26247h0.3048z"/>
   <path d="m137.46-23.963c0.13546 0 0.2413-0.09313 0.2413-0.22437 0-0.13547-0.10584-0.22437-0.2413-0.22437-0.13547 0-0.2413 0.0889-0.2413 0.22437 0 0.13123 0.10583 0.22437 0.2413 0.22437zm-0.1778 2.4807h0.34713v-2.0574h-0.34713z"/>
   <path d="m138.17-22.507c0 0.68157 0.44873 1.0753 0.9525 1.0753s0.9525-0.3937 0.9525-1.0753c0-0.69003-0.44873-1.0837-0.9525-1.0837s-0.9525 0.3937-0.9525 1.0837zm0.35983 0c0-0.47413 0.2413-0.79587 0.59267-0.79587 0.3556 0 0.59267 0.32173 0.59267 0.79587 0 0.4699-0.23707 0.7874-0.59267 0.7874-0.35137 0-0.59267-0.3175-0.59267-0.7874z"/>
   <path d="m140.62-21.482h0.34713v-1.4901c0.20743-0.20743 0.35137-0.3175 0.56303-0.3175 0.27094 0 0.38947 0.1651 0.38947 0.55033v1.2573h0.34713v-1.3039c0-0.52493-0.19473-0.80433-0.62653-0.80433-0.28363 0-0.4953 0.1524-0.69003 0.34713h-0.0127l-0.0296-0.29633h-0.28786z"/>
  </g>
  <rect x="195.2" y="5.9148" width="36.711" height="9.6017" fill="#2f3744" stroke="#7b8694" stroke-linecap="square" stroke-linejoin="bevel" stroke-width=".26458" style="paint-order:normal"/>
  <g transform="matrix(1.0015 0 0 .99852 19.618 33.538)" fill="#e8eaec" stroke-width=".28222px" aria-label="Backpropagation">
   <path d="m178.75-21.482h0.889c0.61807 0 1.0499-0.2667 1.0499-0.8128 0-0.381-0.23707-0.60113-0.64347-0.66463v-0.01693c0.3302-0.08467 0.48684-0.3302 0.48684-0.60537 0-0.48683-0.3937-0.67733-0.95674-0.67733h-0.8255zm0.3556-1.5917v-0.90593h0.42757c0.42757 0 0.65193 0.127 0.65193 0.42757 0 0.30903-0.19896 0.47837-0.66886 0.47837zm0 1.3123v-1.0499h0.4826c0.48684 0 0.75354 0.15663 0.75354 0.49953 0 0.37677-0.2794 0.55033-0.75354 0.55033z"/>
   <path d="m181.1-22.016c0 0.3683 0.25823 0.5842 0.60536 0.5842 0.254 0 0.4826-0.13547 0.68157-0.29633h8e-3l0.0296 0.24553h0.28787v-1.2615c0-0.51223-0.21167-0.84667-0.71544-0.84667-0.3302 0-0.61806 0.14393-0.80856 0.2667l0.1397 0.2413c0.16086-0.11007 0.37253-0.22013 0.61383-0.22013 0.33443 0 0.42333 0.254 0.42333 0.51647-0.8763 0.09737-1.2658 0.32173-1.2658 0.77047zm0.3429-0.0254c0-0.26247 0.23283-0.4318 0.92286-0.51647v0.5715c-0.19896 0.1778-0.36406 0.27517-0.56303 0.27517-0.2032 0-0.35983-0.09737-0.35983-0.3302z"/>
   <path d="m183.22-22.507c0 0.68157 0.4191 1.0753 0.9652 1.0753 0.24553 0 0.4826-0.1016 0.66887-0.2667l-0.15664-0.2286c-0.12276 0.11007-0.28786 0.20743-0.4826 0.20743-0.37676 0-0.635-0.3175-0.635-0.7874 0-0.47413 0.27094-0.79587 0.64347-0.79587 0.1651 0 0.2921 0.0762 0.41487 0.18203l0.17356-0.22437c-0.1397-0.13123-0.3302-0.24553-0.60113-0.24553-0.52917 0-0.9906 0.3937-0.9906 1.0837z"/>
   <path d="m185.29-21.482h0.3429v-0.54187l0.38523-0.44873 0.60113 0.9906h0.381l-0.78316-1.2319 0.69003-0.8255h-0.38523l-0.8763 1.0837h-0.0127v-2.0405h-0.3429z"/>
   <path d="m187.72-21.669c0.1905 0.14817 0.381 0.23707 0.5715 0.23707 0.4699 0 0.889-0.41063 0.889-1.1091 0-0.63923-0.28363-1.0499-0.8128-1.0499-0.2413 0-0.4699 0.13123-0.65616 0.28787h-0.0127l-0.0296-0.23707h-0.28786v2.9252h0.34713v-0.69427zm8e-3 -0.27093v-1.0795c0.2032-0.18203 0.37677-0.2794 0.55033-0.2794 0.38947 0 0.54187 0.3048 0.54187 0.75777 0 0.508-0.24977 0.81703-0.58843 0.81703-0.13547 0-0.3175-0.05927-0.50377-0.2159z"/>
   <path d="m189.73-21.482h0.34714v-1.3208c0.13969-0.34713 0.34713-0.47413 0.52069-0.47413 0.0847 0 0.13124 0.0127 0.19897 0.03387l0.0677-0.3048c-0.0677-0.02963-0.13123-0.04233-0.22013-0.04233-0.23283 0-0.4445 0.1651-0.5842 0.42333h-0.0127l-0.0296-0.37253h-0.28787z"/>
   <path d="m191.01-22.507c0 0.68157 0.44874 1.0753 0.9525 1.0753 0.50377 0 0.9525-0.3937 0.9525-1.0753 0-0.69003-0.44873-1.0837-0.9525-1.0837-0.50376 0-0.9525 0.3937-0.9525 1.0837zm0.35984 0c0-0.47413 0.2413-0.79587 0.59266-0.79587 0.3556 0 0.59267 0.32173 0.59267 0.79587 0 0.4699-0.23707 0.7874-0.59267 0.7874-0.35136 0-0.59266-0.3175-0.59266-0.7874z"/>
   <path d="m193.8-21.669c0.1905 0.14817 0.381 0.23707 0.5715 0.23707 0.4699 0 0.889-0.41063 0.889-1.1091 0-0.63923-0.28364-1.0499-0.8128-1.0499-0.2413 0-0.4699 0.13123-0.65617 0.28787h-0.0127l-0.0296-0.23707h-0.28787v2.9252h0.34713v-0.69427zm8e-3 -0.27093v-1.0795c0.2032-0.18203 0.37677-0.2794 0.55034-0.2794 0.38946 0 0.54186 0.3048 0.54186 0.75777 0 0.508-0.24976 0.81703-0.58843 0.81703-0.13547 0-0.3175-0.05927-0.50377-0.2159z"/>
   <path d="m195.65-22.016c0 0.3683 0.25823 0.5842 0.60536 0.5842 0.254 0 0.4826-0.13547 0.68157-0.29633h8e-3l0.0296 0.24553h0.28787v-1.2615c0-0.51223-0.21167-0.84667-0.71544-0.84667-0.3302 0-0.61806 0.14393-0.80856 0.2667l0.1397 0.2413c0.16086-0.11007 0.37253-0.22013 0.61383-0.22013 0.33443 0 0.42333 0.254 0.42333 0.51647-0.8763 0.09737-1.2658 0.32173-1.2658 0.77047zm0.3429-0.0254c0-0.26247 0.23283-0.4318 0.92286-0.51647v0.5715c-0.19896 0.1778-0.36406 0.27517-0.56303 0.27517-0.2032 0-0.35983-0.09737-0.35983-0.3302z"/>
   <path d="m198.07-21.135c0-0.11853 0.0635-0.2413 0.21167-0.34713 0.0889 0.0254 0.18626 0.03387 0.2667 0.03387h0.35559c0.2667 0 0.41487 0.0635 0.41487 0.254 0 0.2159-0.25823 0.4191-0.65193 0.4191-0.37253 0-0.5969-0.1397-0.5969-0.35983zm-0.3048 0.04657c0 0.3556 0.34713 0.55457 0.8509 0.55457 0.63923 0 1.0414-0.3302 1.0414-0.7112 0-0.3429-0.2413-0.49107-0.71967-0.49107h-0.39793c-0.2794 0-0.36407-0.09313-0.36407-0.22437 0-0.1143 0.0593-0.18203 0.13124-0.24553 0.0931 0.04657 0.20743 0.07197 0.30903 0.07197 0.4191 0 0.75353-0.27517 0.75353-0.71543 0-0.17357-0.072-0.3302-0.16933-0.42333h0.42333v-0.2667h-0.71543c-0.0762-0.02963-0.1778-0.0508-0.2921-0.0508-0.4191 0-0.7747 0.28363-0.7747 0.73237 0 0.24553 0.13123 0.4445 0.2667 0.55457v0.01693c-0.10583 0.07197-0.22437 0.20743-0.22437 0.381 0 0.16087 0.0804 0.27093 0.18204 0.33443v0.01693c-0.18627 0.127-0.30057 0.2921-0.30057 0.46567zm0.8509-1.2785c-0.23707 0-0.43603-0.1905-0.43603-0.49107 0-0.30057 0.19473-0.47837 0.43603-0.47837s0.43603 0.1778 0.43603 0.47837c0 0.30057-0.19897 0.49107-0.43603 0.49107z"/>
   <path d="m199.89-22.016c0 0.3683 0.25823 0.5842 0.60536 0.5842 0.254 0 0.4826-0.13547 0.68157-0.29633h8e-3l0.0296 0.24553h0.28787v-1.2615c0-0.51223-0.21167-0.84667-0.71544-0.84667-0.3302 0-0.61806 0.14393-0.80856 0.2667l0.1397 0.2413c0.16086-0.11007 0.37253-0.22013 0.61383-0.22013 0.33443 0 0.42333 0.254 0.42333 0.51647-0.8763 0.09737-1.2658 0.32173-1.2658 0.77047zm0.3429-0.0254c0-0.26247 0.23283-0.4318 0.92286-0.51647v0.5715c-0.19896 0.1778-0.36406 0.27517-0.56303 0.27517-0.2032 0-0.35983-0.09737-0.35983-0.3302z"/>
   <path d="m202.21-22.117c0 0.4064 0.14817 0.6858 0.58843 0.6858 0.127 0 0.2667-0.0381 0.381-0.0762l-0.0677-0.26247c-0.0677 0.0254-0.16087 0.05503-0.23284 0.05503-0.23706 0-0.3175-0.14393-0.3175-0.39793v-1.143h0.55457v-0.28363h-0.55457v-0.57573h-0.29209l-0.0423 0.57573-0.32173 0.02117v0.26247h0.3048z"/>
   <path d="m203.76-23.963c0.13547 0 0.2413-0.09313 0.2413-0.22437 0-0.13547-0.10583-0.22437-0.2413-0.22437-0.13546 0-0.2413 0.0889-0.2413 0.22437 0 0.13123 0.10584 0.22437 0.2413 0.22437zm-0.1778 2.4807h0.34714v-2.0574h-0.34714z"/>
   <path d="m204.47-22.507c0 0.68157 0.44873 1.0753 0.9525 1.0753s0.9525-0.3937 0.9525-1.0753c0-0.69003-0.44873-1.0837-0.9525-1.0837s-0.9525 0.3937-0.9525 1.0837zm0.35983 0c0-0.47413 0.2413-0.79587 0.59267-0.79587 0.3556 0 0.59267 0.32173 0.59267 0.79587 0 0.4699-0.23707 0.7874-0.59267 0.7874-0.35137 0-0.59267-0.3175-0.59267-0.7874z"/>
   <path d="m206.92-21.482h0.34713v-1.4901c0.20743-0.20743 0.35136-0.3175 0.56303-0.3175 0.27093 0 0.38947 0.1651 0.38947 0.55033v1.2573h0.34713v-1.3039c0-0.52493-0.19473-0.80433-0.62653-0.80433-0.28364 0-0.4953 0.1524-0.69003 0.34713h-0.0127l-0.0296-0.29633h-0.28786z"/>
  </g>
 </g>
 <path d="m49.543 10.716h22.49" fill="none" stroke="#6f8ce9" stroke-linecap="square" stroke-width=".26458"/>
 <g transform="matrix(.0042365 0 0 .0043091 71.126 9.4936)" fill="#47d58a" stroke-width="123.85">
  <g fill="#47d58a" stroke-width="123.85">
   <path d="m486.41 221.41-364.07-208.5c-52.938-30.318-95.852-5.44-95.852 55.563v415.65c0 61.004 42.914 85.882 95.852 55.563l364.07-208.49c52.938-30.317 52.938-79.473 0-109.79z" fill="#6f8ce9" stroke-width="123.85"/>
  </g>
 </g>
 <path d="m110.4 10.716h22.49" fill="none" stroke="#6f8ce9" stroke-linecap="square" stroke-width=".26458"/>
 <g transform="matrix(.0042365 0 0 .0043091 131.98 9.4936)" fill="#47d58a" stroke-width="123.85">
  <g fill="#47d58a" stroke-width="123.85">
   <path d="m486.41 221.41-364.07-208.5c-52.938-30.318-95.852-5.44-95.852 55.563v415.65c0 61.004 42.914 85.882 95.852 55.563l364.07-208.49c52.938-30.317 52.938-79.473 0-109.79z" fill="#6f8ce9" stroke-width="123.85"/>
  </g>
 </g>
 <path d="m171.25 10.716h22.49" fill="none" stroke="#6f8ce9" stroke-linecap="square" stroke-width=".26458"/>
 <g transform="matrix(.0042365 0 0 .0043091 192.83 9.4936)" fill="#47d58a" stroke-width="123.85">
  <g fill="#47d58a" stroke-width="123.85">
   <path d="m486.41 221.41-364.07-208.5c-52.938-30.318-95.852-5.44-95.852 55.563v415.65c0 61.004 42.914 85.882 95.852 55.563l364.07-208.49c52.938-30.317 52.938-79.473 0-109.79z" fill="#6f8ce9" stroke-width="123.85"/>
  </g>
 </g>
 <g transform="matrix(.0042365 0 0 .0043091 10.272 9.4936)" fill="#47d58a" stroke-width="123.85">
  <g fill="#47d58a" stroke-width="123.85">
   <path d="m486.41 221.41-364.07-208.5c-52.938-30.318-95.852-5.44-95.852 55.563v415.65c0 61.004 42.914 85.882 95.852 55.563l364.07-208.49c52.938-30.317 52.938-79.473 0-109.79z" fill="#6f8ce9" stroke-width="123.85"/>
  </g>
 </g>
</svg>
