<?xml version="1.0" encoding="UTF-8"?>
<svg width="166.21mm" height="73.977mm" version="1.1" viewBox="0 0 166.21 73.977" xmlns="http://www.w3.org/2000/svg" xmlns:cc="http://creativecommons.org/ns#" xmlns:dc="http://purl.org/dc/elements/1.1/" xmlns:rdf="http://www.w3.org/1999/02/22-rdf-syntax-ns#">
 <metadata>
  <rdf:RDF>
   <cc:Work rdf:about="">
    <dc:format>image/svg+xml</dc:format>
    <dc:type rdf:resource="http://purl.org/dc/dcmitype/StillImage"/>
    <dc:title/>
   </cc:Work>
  </rdf:RDF>
 </metadata>
 <path d="m77.788 14.71v2.1167h-68.792v4.4979" fill="none" stroke="#6f8ce9" stroke-linecap="square" stroke-width=".26458"/>
 <path d="m76.597 14.049h13.229" fill="#1d232d" stroke="#6f8ce9" stroke-linecap="round" stroke-width=".26458"/>
 <g fill="#6f8ce9">
  <circle cx="81.359" cy="14.578" r=".52917"/>
  <circle cx="83.211" cy="13.52" r=".52917"/>
  <circle cx="77.92" cy="14.578" r=".52917"/>
  <circle cx="85.064" cy="14.578" r=".52917"/>
  <circle cx="88.503" cy="14.578" r=".52917"/>
 </g>
 <g stroke="#6f8ce9" stroke-linecap="square" stroke-width=".26458">
  <path d="m83.211 10.477v3.175" fill="#7893ea"/>
  <path d="m88.503 14.71v2.1167h68.792v4.4979" fill="none"/>
  <ellipse transform="matrix(0,-1,-1,0,0,0)" cx="-16.827" cy="-157.29" rx=".66146" ry=".66146" fill="#1d232d" stroke-dashoffset="1.2" stroke-miterlimit="40"/>
  <path d="m85.064 14.71v4.7625h23.283v1.8521" fill="none"/>
  <ellipse transform="matrix(0,-1,-1,0,0,0)" cx="-19.473" cy="-108.35" rx=".66146" ry=".66146" fill="#1d232d" stroke-dashoffset="1.2" stroke-miterlimit="40"/>
  <ellipse transform="rotate(-90)" cx="-16.827" cy="8.9959" rx=".66146" ry=".66146" fill="#1d232d" stroke-dashoffset="1.2" stroke-miterlimit="40"/>
  <path d="m81.227 14.71v4.7625h-23.283v1.8521" fill="none"/>
 </g>
 <g>
  <g>
   <ellipse transform="rotate(-90)" cx="-19.473" cy="57.944" rx=".66146" ry=".66146" fill="#1d232d" stroke="#6f8ce9" stroke-dashoffset="1.2" stroke-linecap="square" stroke-miterlimit="40" stroke-width=".26458"/>
   <ellipse transform="matrix(-.42777 -.90389 .98869 -.14999 0 0)" cx="-18.445" cy="76.233" rx="5.4639" ry="8.8227" fill="#2f3744" stroke="#7b8694" stroke-width=".27035"/>
   <path d="m78.178 5.1562 9.4482 0.11291" fill="#e9e56f" fill-rule="evenodd" stroke="#e8eaec" stroke-width=".26458"/>
  </g>
  <g transform="matrix(.0042365 0 0 .0043091 87.069 4.0827)" fill="#e8eaec" stroke-width="123.85">
   <g fill="#e8eaec" stroke-width="123.85">
    <path d="m486.41 221.41-364.07-208.5c-52.938-30.318-95.852-5.44-95.852 55.563v415.65c0 61.004 42.914 85.882 95.852 55.563l364.07-208.49c52.938-30.317 52.938-79.473 0-109.79z" fill="#e8eaec" stroke-width="123.85"/>
   </g>
  </g>
  <g stroke-width=".26458">
   <rect x=".13229" y="21.566" width="17.774" height="8.8871" fill="#2f3744" stroke="#7b8694"/>
   <g fill="#e8eaec" stroke-linecap="round" aria-label="Walk to the door">
    <path d="m3.7118 24.897h0.36671l0.36301-1.4631c0.040746-0.18891 0.081492-0.36301 0.12224-0.55192h0.014817c0.033338 0.18891 0.074083 0.36301 0.11483 0.55192l0.36671 1.4631h0.37412l0.50377-2.4299h-0.30004l-0.25559 1.3224c-0.04445 0.25929-0.0889 0.52229-0.13705 0.78528h-0.014817c-0.059267-0.263-0.11853-0.5297-0.1741-0.78528l-0.33708-1.3224h-0.28152l-0.33708 1.3224c-0.059267 0.25929-0.11853 0.52229-0.17039 0.78528h-0.014817c-0.048154-0.263-0.096308-0.52229-0.14446-0.78528l-0.25559-1.3224h-0.31856z"/>
    <path d="m6.1736 24.43c0 0.32226 0.22595 0.51118 0.5297 0.51118 0.22225 0 0.42228-0.11853 0.59637-0.25929h0.00741l0.025929 0.21484h0.25188v-1.1038c0-0.4482-0.18521-0.74083-0.626-0.74083-0.28893 0-0.54081 0.12594-0.7075 0.23336l0.12224 0.21114c0.14076-0.09631 0.32597-0.19262 0.5371-0.19262 0.29263 0 0.37042 0.22225 0.37042 0.45191-0.76676 0.0852-1.1075 0.28152-1.1075 0.67416zm0.30004-0.02223c0-0.22966 0.20373-0.37782 0.80751-0.45191v0.50006c-0.1741 0.15558-0.31856 0.24077-0.49265 0.24077-0.1778 0-0.31485-0.0852-0.31485-0.28893z"/>
    <path d="m8.158 24.534c0 0.263 0.092604 0.40746 0.32226 0.40746 0.081492 0 0.13335-0.01111 0.1741-0.02963l-0.040746-0.22966c-0.033338 0.0074-0.048154 0.0074-0.066675 0.0074-0.04445 0-0.085196-0.03704-0.085196-0.13335v-2.2966h-0.30374z"/>
    <path d="m9.1058 24.897h0.30004v-0.47413l0.33708-0.39264 0.52599 0.86678h0.33338l-0.68527-1.0779 0.60378-0.72231h-0.33708l-0.76676 0.94827h-0.011113v-1.7854h-0.30004z"/>
    <path d="m11.733 24.341c0 0.3556 0.12965 0.60008 0.51488 0.60008 0.11112 0 0.23336-0.03334 0.33338-0.06668l-0.05927-0.22966c-0.05927 0.02222-0.14076 0.04815-0.20373 0.04815-0.20743 0-0.27781-0.12594-0.27781-0.34819v-1.0001h0.48525v-0.24818h-0.48524v-0.50377h-0.25559l-0.03704 0.50377-0.28152 0.01852v0.22966h0.2667z"/>
    <path d="m12.763 24c0 0.59637 0.39264 0.94086 0.83344 0.94086 0.4408 0 0.83344-0.34449 0.83344-0.94086 0-0.60378-0.39264-0.94827-0.83344-0.94827-0.4408 0-0.83344 0.34449-0.83344 0.94827zm0.31486 0c0-0.41487 0.21114-0.69638 0.51858-0.69638 0.31115 0 0.51858 0.28152 0.51858 0.69638 0 0.41116-0.20743 0.68898-0.51858 0.68898-0.30745 0-0.51858-0.27781-0.51858-0.68898z"/>
    <path d="m2.6102 29.007c0 0.3556 0.12965 0.60008 0.51488 0.60008 0.11113 0 0.23336-0.03334 0.33338-0.06668l-0.059267-0.22966c-0.059267 0.02222-0.14076 0.04815-0.20373 0.04815-0.20743 0-0.27781-0.12594-0.27781-0.34819v-1.0001h0.48525v-0.24818h-0.48525v-0.50376h-0.25559l-0.037042 0.50377-0.28152 0.01852v0.22966h0.2667z"/>
    <path d="m3.81 29.563h0.30374v-1.3039c0.1815-0.1815 0.30745-0.27781 0.49265-0.27781 0.23707 0 0.34078 0.14446 0.34078 0.48154v1.1001h0.30374v-1.1409c0-0.45932-0.17039-0.70379-0.54822-0.70379-0.24818 0-0.42968 0.13335-0.60008 0.29633l0.011113-0.37042v-0.71861h-0.30374z"/>
    <path d="m5.6951 28.667c0 0.58896 0.38153 0.94086 0.86307 0.94086 0.24448 0 0.43709-0.0852 0.59267-0.18521l-0.10742-0.20002c-0.13335 0.0852-0.27781 0.14076-0.4482 0.14076-0.34449 0-0.57785-0.24448-0.60008-0.63341h1.215c0.00741-0.04445 0.011113-0.10372 0.011113-0.16669 0-0.51488-0.25929-0.84455-0.71861-0.84455-0.41116 0-0.80751 0.3593-0.80751 0.94827zm0.29633-0.13706c0.037042-0.36301 0.2667-0.57044 0.51858-0.57044 0.28152 0 0.4445 0.20373 0.4445 0.57044z"/>
    <path d="m8.2816 28.667c0 0.60008 0.29263 0.94086 0.74454 0.94086 0.21114 0 0.40375-0.11853 0.54451-0.25559h0.011113l0.025929 0.21114h0.25188v-2.6374h-0.30745v0.69268l0.014817 0.30745c-0.15928-0.12965-0.29633-0.20743-0.50377-0.20743-0.41116 0-0.78158 0.36301-0.78158 0.94827zm0.31485-0.0037c0-0.41116 0.22966-0.68898 0.51858-0.68898 0.14817 0 0.28522 0.05186 0.43709 0.18891v0.94086c-0.14817 0.16669-0.29263 0.24818-0.45932 0.24818-0.31485 0-0.49636-0.25929-0.49636-0.68898z"/>
    <path d="m10.333 28.667c0 0.59637 0.39264 0.94086 0.83344 0.94086 0.4408 0 0.83344-0.34449 0.83344-0.94086 0-0.60378-0.39264-0.94827-0.83344-0.94827-0.4408 0-0.83344 0.34449-0.83344 0.94827zm0.31486 0c0-0.41487 0.21114-0.69638 0.51858-0.69638 0.31115 0 0.51858 0.28152 0.51858 0.69638 0 0.41116-0.20743 0.68898-0.51858 0.68898-0.30745 0-0.51858-0.27781-0.51858-0.68898z"/>
    <path d="m12.344 28.667c0 0.59637 0.39264 0.94086 0.83344 0.94086s0.83344-0.34449 0.83344-0.94086c0-0.60378-0.39264-0.94827-0.83344-0.94827s-0.83344 0.34449-0.83344 0.94827zm0.31485 0c0-0.41487 0.21114-0.69638 0.51858-0.69638 0.31115 0 0.51858 0.28152 0.51858 0.69638 0 0.41116-0.20743 0.68898-0.51858 0.68898-0.30745 0-0.51858-0.27781-0.51858-0.68898z"/>
    <path d="m14.488 29.563h0.30374v-1.1557c0.12224-0.30374 0.30374-0.41487 0.45561-0.41487 0.07408 0 0.11483 0.01111 0.1741 0.02963l0.05927-0.2667c-0.05927-0.02593-0.11483-0.03704-0.19262-0.03704-0.20373 0-0.38894 0.14446-0.51118 0.37042h-0.01111l-0.02593-0.32597h-0.25188z"/>
   </g>
   <path d="m52.52 35.48h10.583" fill="#1d232d" stroke="#6f8ce9" stroke-linecap="round"/>
   <path d="m57.811 36.406v6.35" fill="#7893ea" stroke="#6f8ce9" stroke-linecap="square"/>
  </g>
 </g>
 <g fill="#6f8ce9">
  <circle cx="57.811" cy="36.009" r=".52917"/>
  <circle cx="57.811" cy="34.951" r=".52917"/>
  <circle cx="54.372" cy="36.009" r=".52917"/>
  <circle cx="61.516" cy="36.009" r=".52917"/>
 </g>
 <path d="m57.811 31.908v3.175" fill="#7893ea" stroke="#6f8ce9" stroke-linecap="square" stroke-width=".26458"/>
 <ellipse transform="matrix(-.42777 -.90389 .98869 -.14999 0 0)" cx="-36.589" cy="42.692" rx="5.4639" ry="8.8227" fill="#2f3744" stroke="#7b8694" stroke-width=".27035"/>
 <g transform="matrix(.9998 0 0 .9998 -649.83 -356.53)" stroke-width=".63513">
  <g fill="none" stroke="#e8eaec" stroke-width=".26464">
   <path d="m705 382.36v-2h2"/>
   <path d="m710.8 382.36v-2h-2"/>
   <path d="m705 384.16v2h2"/>
   <path d="m710.8 384.16v2h-2"/>
  </g>
  <rect x="706.26" y="381.64" width="3.3438" height="3.3438" fill="#e8eaec"/>
 </g>
 <g stroke-width=".26458">
  <path d="m108.35 30.585v12.435" fill="#7893ea" stroke="#6f8ce9" stroke-linecap="square"/>
  <rect x="99.351" y="43.262" width="17.774" height="8.8871" fill="#2f3744" stroke="#7b8694"/>
  <g fill="#e8eaec" stroke-linecap="round" aria-label="Open the door">
   <path d="m102.2 46.637c0.60749 0 1.0372-0.48895 1.0372-1.2705 0-0.77417-0.42968-1.2483-1.0372-1.2483-0.61119 0-1.0409 0.47043-1.0409 1.2483 0 0.78158 0.42968 1.2705 1.0409 1.2705zm0-0.2704c-0.43709 0-0.72231-0.39264-0.72231-1.0001 0-0.60378 0.28522-0.9779 0.72231-0.9779 0.43339 0 0.71861 0.37412 0.71861 0.9779 0 0.60748-0.28522 1.0001-0.71861 1.0001z"/>
   <path d="m104.02 46.429c0.16669 0.12965 0.33337 0.20743 0.50006 0.20743 0.41116 0 0.77788-0.3593 0.77788-0.97049 0-0.55933-0.24818-0.91863-0.7112-0.91863-0.21114 0-0.41117 0.11483-0.57415 0.25188h-0.0111l-0.0259-0.20743h-0.25189v2.5596h0.30375v-0.60748zm7e-3 -0.23707v-0.94456c0.1778-0.15928 0.32967-0.24448 0.48154-0.24448 0.34078 0 0.47413 0.2667 0.47413 0.66305 0 0.4445-0.21854 0.7149-0.51488 0.7149-0.11853 0-0.27781-0.05186-0.44079-0.18891z"/>
   <path d="m105.64 45.696c0 0.58896 0.38153 0.94086 0.86307 0.94086 0.24448 0 0.43709-0.0852 0.59267-0.18521l-0.10742-0.20002c-0.13335 0.08519-0.27781 0.14076-0.44821 0.14076-0.34448 0-0.57785-0.24448-0.60007-0.63341h1.215c7e-3 -0.04445 0.0111-0.10372 0.0111-0.16669 0-0.51488-0.25929-0.84455-0.71861-0.84455-0.41116 0-0.80751 0.3593-0.80751 0.94827zm0.29633-0.13705c0.037-0.36301 0.2667-0.57044 0.51859-0.57044 0.28152 0 0.4445 0.20373 0.4445 0.57044z"/>
   <path d="m107.61 46.592h0.30374v-1.3039c0.1815-0.1815 0.30744-0.27781 0.49265-0.27781 0.23707 0 0.34079 0.14446 0.34079 0.48154v1.1001h0.30374v-1.1409c0-0.45932-0.17039-0.70379-0.54822-0.70379-0.24818 0-0.43339 0.13335-0.60378 0.30374h-0.0111l-0.0259-0.25929h-0.25188z"/>
   <path d="m110.43 46.037c0 0.3556 0.12964 0.60008 0.51488 0.60008 0.11112 0 0.23336-0.03334 0.33337-0.06667l-0.0593-0.22966c-0.0593 0.02222-0.14076 0.04815-0.20373 0.04815-0.20744 0-0.27782-0.12594-0.27782-0.34819v-1.0001h0.48525v-0.24818h-0.48525v-0.50377h-0.25558l-0.0371 0.50377-0.28151 0.01852v0.22966h0.2667z"/>
   <path d="m111.63 46.592h0.30375v-1.3039c0.1815-0.1815 0.30744-0.27781 0.49265-0.27781 0.23707 0 0.34078 0.14446 0.34078 0.48154v1.1001h0.30375v-1.1409c0-0.45932-0.1704-0.70379-0.54822-0.70379-0.24818 0-0.42968 0.13335-0.60008 0.29633l0.0111-0.37042v-0.71861h-0.30375z"/>
   <path d="m113.52 45.696c0 0.58896 0.38153 0.94086 0.86307 0.94086 0.24447 0 0.43709-0.0852 0.59267-0.18521l-0.10742-0.20002c-0.13336 0.08519-0.27782 0.14076-0.44821 0.14076-0.34449 0-0.57785-0.24448-0.60008-0.63341h1.215c7e-3 -0.04445 0.0111-0.10372 0.0111-0.16669 0-0.51488-0.2593-0.84455-0.71861-0.84455-0.41117 0-0.80751 0.3593-0.80751 0.94827zm0.29633-0.13705c0.037-0.36301 0.2667-0.57044 0.51858-0.57044 0.28152 0 0.4445 0.20373 0.4445 0.57044z"/>
   <path d="m104.57 50.362c0 0.60008 0.29263 0.94086 0.74454 0.94086 0.21113 0 0.40375-0.11853 0.54451-0.25559h0.0111l0.0259 0.21114h0.25188v-2.6374h-0.30744v0.69268l0.0148 0.30745c-0.15928-0.12965-0.29634-0.20743-0.50377-0.20743-0.41116 0-0.78158 0.36301-0.78158 0.94827zm0.31485-0.0037c0-0.41116 0.22966-0.68898 0.51859-0.68898 0.14816 0 0.28522 0.05186 0.43709 0.18891v0.94086c-0.14817 0.16669-0.29263 0.24818-0.45932 0.24818-0.31485 0-0.49636-0.25929-0.49636-0.68898z"/>
   <path d="m106.62 50.362c0 0.59637 0.39264 0.94086 0.83344 0.94086s0.83344-0.34449 0.83344-0.94086c0-0.60378-0.39264-0.94827-0.83344-0.94827s-0.83344 0.34449-0.83344 0.94827zm0.31486 0c0-0.41487 0.21113-0.69638 0.51858-0.69638 0.31115 0 0.51858 0.28152 0.51858 0.69638 0 0.41116-0.20743 0.68898-0.51858 0.68898-0.30745 0-0.51858-0.27781-0.51858-0.68898z"/>
   <path d="m108.64 50.362c0 0.59637 0.39264 0.94086 0.83344 0.94086 0.44079 0 0.83344-0.34449 0.83344-0.94086 0-0.60378-0.39265-0.94827-0.83344-0.94827-0.4408 0-0.83344 0.34449-0.83344 0.94827zm0.31485 0c0-0.41487 0.21114-0.69638 0.51859-0.69638 0.31115 0 0.51858 0.28152 0.51858 0.69638 0 0.41116-0.20743 0.68898-0.51858 0.68898-0.30745 0-0.51859-0.27781-0.51859-0.68898z"/>
   <path d="m110.78 51.259h0.30374v-1.1557c0.12224-0.30374 0.30374-0.41487 0.45561-0.41487 0.0741 0 0.11483 0.01111 0.1741 0.02963l0.0593-0.2667c-0.0593-0.02593-0.11483-0.03704-0.19262-0.03704-0.20373 0-0.38894 0.14446-0.51118 0.37042h-0.0111l-0.0259-0.32597h-0.25188z"/>
  </g>
  <path d="m102.55 21.521-4.3412 4.4661 4.3412 4.4661h11.328l4.3412-4.4661-4.3412-4.4661z" fill="#2f3744" fill-rule="evenodd" stroke="#7b8694"/>
  <g fill="#e8eaec" stroke-linecap="round" aria-label="Door is open?">
   <path d="m103.01 24.897h0.6223c0.73342 0 1.1335-0.45191 1.1335-1.2261 0-0.77047-0.40005-1.2039-1.1483-1.2039h-0.60748zm0.31115-0.25188v-1.9262h0.27411c0.57044 0 0.85195 0.34078 0.85195 0.95197 0 0.61489-0.28151 0.9742-0.85195 0.9742z"/>
   <path d="m105.12 24c0 0.59637 0.39264 0.94086 0.83344 0.94086 0.44079 0 0.83344-0.34449 0.83344-0.94086 0-0.60378-0.39265-0.94827-0.83344-0.94827-0.4408 0-0.83344 0.34449-0.83344 0.94827zm0.31485 0c0-0.41487 0.21114-0.69638 0.51859-0.69638 0.31115 0 0.51858 0.28152 0.51858 0.69638 0 0.41116-0.20743 0.68898-0.51858 0.68898-0.30745 0-0.51859-0.27781-0.51859-0.68898z"/>
   <path d="m107.13 24c0 0.59637 0.39264 0.94086 0.83344 0.94086 0.44079 0 0.83343-0.34449 0.83343-0.94086 0-0.60378-0.39264-0.94827-0.83343-0.94827-0.4408 0-0.83344 0.34449-0.83344 0.94827zm0.31485 0c0-0.41487 0.21114-0.69638 0.51859-0.69638 0.31115 0 0.51858 0.28152 0.51858 0.69638 0 0.41116-0.20743 0.68898-0.51858 0.68898-0.30745 0-0.51859-0.27781-0.51859-0.68898z"/>
   <path d="m109.28 24.897h0.30374v-1.1557c0.12224-0.30374 0.30374-0.41487 0.45561-0.41487 0.0741 0 0.11483 0.01111 0.1741 0.02963l0.0593-0.2667c-0.0593-0.02593-0.11482-0.03704-0.19261-0.03704-0.20373 0-0.38894 0.14446-0.51118 0.37042h-0.0111l-0.0259-0.32597h-0.25188z"/>
   <path d="m111.47 22.726c0.11854 0 0.21114-0.08149 0.21114-0.19632 0-0.11853-0.0926-0.19632-0.21114-0.19632-0.11853 0-0.21113 0.07779-0.21113 0.19632 0 0.11483 0.0926 0.19632 0.21113 0.19632zm-0.15557 2.1706h0.30374v-1.8002h-0.30374z"/>
   <path d="m112.02 24.693c0.17039 0.14076 0.41486 0.24818 0.67045 0.24818 0.42598 0 0.65934-0.24448 0.65934-0.5371 0-0.34078-0.28892-0.4482-0.54821-0.54451-0.20373-0.07779-0.40005-0.14446-0.40005-0.31115 0-0.13705 0.10371-0.25929 0.32967-0.25929 0.15928 0 0.28892 0.06668 0.41116 0.15928l0.14446-0.19262c-0.13705-0.11112-0.33337-0.20373-0.55933-0.20373-0.38893 0-0.61859 0.22225-0.61859 0.51118 0 0.30374 0.28151 0.42598 0.5371 0.51858 0.19632 0.07408 0.41116 0.15558 0.41116 0.34078 0 0.15558-0.11853 0.28152-0.3556 0.28152-0.21484 0-0.37412-0.0889-0.52969-0.21484z"/>
   <path d="m103.51 28.667c0 0.59637 0.39264 0.94086 0.83344 0.94086 0.44079 0 0.83344-0.34449 0.83344-0.94086 0-0.60378-0.39265-0.94827-0.83344-0.94827-0.4408 0-0.83344 0.34449-0.83344 0.94827zm0.31485 0c0-0.41487 0.21114-0.69638 0.51859-0.69638 0.31115 0 0.51858 0.28152 0.51858 0.69638 0 0.41116-0.20743 0.68898-0.51858 0.68898-0.30745 0-0.51859-0.27781-0.51859-0.68898z"/>
   <path d="m105.95 29.4c0.16669 0.12965 0.33338 0.20743 0.50006 0.20743 0.41117 0 0.77788-0.3593 0.77788-0.97049 0-0.55933-0.24818-0.91863-0.7112-0.91863-0.21114 0-0.41116 0.11483-0.57415 0.25188h-0.0111l-0.0259-0.20743h-0.25188v2.5596h0.30374v-0.60748zm7e-3 -0.23707v-0.94456c0.1778-0.15928 0.32967-0.24448 0.48154-0.24448 0.34079 0 0.47414 0.2667 0.47414 0.66305 0 0.4445-0.21855 0.7149-0.51488 0.7149-0.11854 0-0.27782-0.05186-0.4408-0.18891z"/>
   <path d="m107.58 28.667c0 0.58896 0.38152 0.94086 0.86307 0.94086 0.24447 0 0.43709-0.0852 0.59266-0.18521l-0.10742-0.20002c-0.13335 0.0852-0.27781 0.14076-0.4482 0.14076-0.34449 0-0.57785-0.24448-0.60008-0.63341h1.215c7e-3 -0.04445 0.0111-0.10372 0.0111-0.16669 0-0.51488-0.25929-0.84455-0.71861-0.84455-0.41116 0-0.8075 0.3593-0.8075 0.94827zm0.29633-0.13706c0.037-0.36301 0.2667-0.57044 0.51858-0.57044 0.28152 0 0.4445 0.20373 0.4445 0.57044z"/>
   <path d="m109.55 29.563h0.30374v-1.3039c0.18151-0.1815 0.30745-0.27781 0.49266-0.27781 0.23706 0 0.34078 0.14446 0.34078 0.48154v1.1001h0.30374v-1.1409c0-0.45932-0.17039-0.70379-0.54821-0.70379-0.24818 0-0.43339 0.13335-0.60378 0.30374h-0.0111l-0.0259-0.25929h-0.25188z"/>
   <path d="m111.84 28.83h0.2667c-0.0593-0.51858 0.5371-0.7149 0.5371-1.2002 0-0.36671-0.25188-0.59267-0.63341-0.59267-0.26299 0-0.46672 0.12965-0.6223 0.30745l0.1741 0.15928c0.11483-0.13335 0.26299-0.21484 0.42598-0.21484 0.23706 0 0.3593 0.16298 0.3593 0.3593 0 0.39264-0.58896 0.60378-0.50747 1.1816zm-0.0778 0.54822c0 0.13335 0.0963 0.22966 0.21855 0.22966 0.12224 0 0.22225-0.09631 0.22225-0.22966 0-0.14076-0.10001-0.23707-0.22225-0.23707s-0.21855 0.09631-0.21855 0.23707z"/>
  </g>
  <rect x="148.3" y="21.566" width="17.774" height="8.8871" fill="#2f3744" stroke="#7b8694"/>
  <g fill="#e8eaec" stroke-linecap="round" aria-label="Enter">
   <path d="m153.2 27.013h1.4372v-0.263h-1.1261v-0.88159h0.91863v-0.263h-0.91863v-0.76306h1.089v-0.25929h-1.4002z"/>
   <path d="m155.12 27.013h0.30374v-1.3039c0.18151-0.1815 0.30745-0.27781 0.49266-0.27781 0.23706 0 0.34078 0.14446 0.34078 0.48154v1.1001h0.30374v-1.1409c0-0.45932-0.17039-0.70379-0.54821-0.70379-0.24818 0-0.43339 0.13335-0.60378 0.30374h-0.0111l-0.0259-0.25929h-0.25188z"/>
   <path d="m157.19 26.458c0 0.3556 0.12964 0.60008 0.51488 0.60008 0.11112 0 0.23336-0.03334 0.33337-0.06668l-0.0593-0.22966c-0.0593 0.02222-0.14076 0.04815-0.20373 0.04815-0.20744 0-0.27782-0.12594-0.27782-0.34819v-1.0001h0.48525v-0.24817h-0.48525v-0.50377h-0.25558l-0.037 0.50377-0.28151 0.01852v0.22966h0.2667z"/>
   <path d="m158.22 26.117c0 0.58896 0.38153 0.94086 0.86307 0.94086 0.24448 0 0.43709-0.0852 0.59267-0.18521l-0.10742-0.20002c-0.13335 0.0852-0.27782 0.14076-0.44821 0.14076-0.34448 0-0.57785-0.24448-0.60007-0.63341h1.215c7e-3 -0.04445 0.0111-0.10372 0.0111-0.16669 0-0.51488-0.25929-0.84455-0.71861-0.84455-0.41116 0-0.80751 0.3593-0.80751 0.94827zm0.29633-0.13705c0.037-0.36301 0.2667-0.57044 0.51859-0.57044 0.28151 0 0.4445 0.20373 0.4445 0.57044z"/>
   <path d="m160.2 27.013h0.30374v-1.1557c0.12224-0.30374 0.30374-0.41487 0.45561-0.41487 0.0741 0 0.11483 0.01111 0.1741 0.02963l0.0593-0.2667c-0.0593-0.02593-0.11483-0.03704-0.19261-0.03704-0.20373 0-0.38894 0.14446-0.51118 0.37042h-0.0111l-0.0259-0.32597h-0.25188z"/>
  </g>
  <rect x="18.653" y="43.262" width="17.774" height="8.8871" fill="#2f3744" stroke="#7b8694"/>
  <g fill="#e8eaec" stroke-linecap="round" aria-label="Open">
   <path d="m24.429 49.018c0.60748 0 1.0372-0.48895 1.0372-1.2705 0-0.77417-0.42968-1.2483-1.0372-1.2483-0.61119 0-1.0409 0.47043-1.0409 1.2483 0 0.78158 0.42968 1.2705 1.0409 1.2705zm0-0.2704c-0.43709 0-0.72231-0.39264-0.72231-1.0001 0-0.60378 0.28522-0.9779 0.72231-0.9779 0.43339 0 0.71861 0.37412 0.71861 0.9779 0 0.60748-0.28522 1.0001-0.71861 1.0001z"/>
   <path d="m26.245 48.811c0.16669 0.12965 0.33338 0.20743 0.50006 0.20743 0.41116 0 0.77788-0.3593 0.77788-0.97049 0-0.55933-0.24818-0.91863-0.7112-0.91863-0.21114 0-0.41116 0.11483-0.57415 0.25188h-0.01111l-0.02593-0.20743h-0.25188v2.5596h0.30374v-0.60748zm0.0074-0.23707v-0.94456c0.1778-0.15928 0.32967-0.24448 0.48154-0.24448 0.34078 0 0.47413 0.2667 0.47413 0.66305 0 0.4445-0.21855 0.7149-0.51488 0.7149-0.11853 0-0.27781-0.05186-0.4408-0.18891z"/>
   <path d="m27.869 48.077c0 0.58896 0.38153 0.94086 0.86307 0.94086 0.24448 0 0.43709-0.0852 0.59267-0.18521l-0.10742-0.20002c-0.13335 0.0852-0.27781 0.14076-0.4482 0.14076-0.34449 0-0.57785-0.24448-0.60008-0.63341h1.215c0.0074-0.04445 0.01111-0.10372 0.01111-0.16669 0-0.51488-0.25929-0.84455-0.71861-0.84455-0.41116 0-0.80751 0.3593-0.80751 0.94827zm0.29633-0.13705c0.03704-0.36301 0.2667-0.57044 0.51858-0.57044 0.28152 0 0.4445 0.20373 0.4445 0.57044z"/>
   <path d="m29.84 48.974h0.30374v-1.3039c0.1815-0.1815 0.30745-0.27781 0.49265-0.27781 0.23707 0 0.34078 0.14446 0.34078 0.48154v1.1001h0.30374v-1.1409c0-0.45932-0.17039-0.70379-0.54822-0.70379-0.24818 0-0.43339 0.13335-0.60378 0.30374h-0.01111l-0.02593-0.25929h-0.25188z"/>
  </g>
  <path d="m53.843 56.647h7.9375" fill="#1d232d" stroke="#6f8ce9" stroke-linecap="round"/>
 </g>
 <g fill="#6f8ce9">
  <circle cx="55.959" cy="57.176" r=".52917"/>
  <circle cx="57.811" cy="56.118" r=".52917"/>
  <circle cx="59.664" cy="57.176" r=".52917"/>
 </g>
 <g stroke="#6f8ce9" stroke-linecap="square" stroke-width=".26458">
  <path d="m57.811 53.075v3.175" fill="#7893ea"/>
  <path d="m59.664 57.308v3.9688h10.451v3.4396" fill="none"/>
  <ellipse transform="rotate(-90)" cx="-61.277" cy="70.115" rx=".66146" ry=".66146" fill="#1d232d" stroke-dashoffset="1.2" stroke-miterlimit="40"/>
  <path d="m55.959 57.308v3.9688h-10.451v3.4396" fill="none"/>
 </g>
 <g>
  <ellipse transform="matrix(-.42777 -.90389 .98869 -.14999 0 0)" cx="-58.438" cy="33.238" rx="5.4639" ry="8.8227" fill="#2f3744" stroke="#7b8694" stroke-width=".27035"/>
  <path d="m52.778 47.754 9.4482 0.11291" fill="#e9e56f" fill-rule="evenodd" stroke="#e8eaec" stroke-width=".26458"/>
  <g transform="matrix(.0042365 0 0 .0043091 61.669 46.681)" fill="#e8eaec" stroke-width="123.85">
   <g fill="#e8eaec" stroke-width="123.85">
    <path d="m486.41 221.41-364.07-208.5c-52.938-30.318-95.852-5.44-95.852 55.563v415.65c0 61.004 42.914 85.882 95.852 55.563l364.07-208.49c52.938-30.317 52.938-79.473 0-109.79z" fill="#e8eaec" stroke-width="123.85"/>
   </g>
  </g>
  <rect x="79.507" y="43.262" width="17.774" height="8.8871" fill="#2f3744" stroke="#7b8694" stroke-width=".26458"/>
  <g fill="#e8eaec" stroke-linecap="round" stroke-width=".26458" aria-label="Kick the door">
   <path d="m85.283 46.592h0.31115v-0.77047l0.41487-0.49266 0.72602 1.2631h0.34449l-0.87789-1.5039 0.76306-0.92604h-0.3519l-1.0112 1.2187h-0.0074v-1.2187h-0.31115z"/>
   <path d="m87.548 44.422c0.11853 0 0.21114-0.08149 0.21114-0.19632 0-0.11853-0.0926-0.19632-0.21114-0.19632-0.11853 0-0.21114 0.07779-0.21114 0.19632 0 0.11483 0.0926 0.19632 0.21114 0.19632zm-0.15558 2.1706h0.30374v-1.8002h-0.30374z"/>
   <path d="m88.17 45.696c0 0.59637 0.36671 0.94086 0.84455 0.94086 0.21484 0 0.42228-0.0889 0.58526-0.23336l-0.13705-0.20003c-0.10742 0.09631-0.25188 0.1815-0.42228 0.1815-0.32967 0-0.55562-0.27781-0.55562-0.68898 0-0.41487 0.23707-0.69638 0.56303-0.69638 0.14446 0 0.25559 0.06667 0.36301 0.15928l0.15187-0.19632c-0.12224-0.11483-0.28892-0.21484-0.52599-0.21484-0.46302 0-0.86678 0.34449-0.86678 0.94827z"/>
   <path d="m89.989 46.592h0.30004v-0.47413l0.33708-0.39264 0.52599 0.86678h0.33338l-0.68527-1.0779 0.60378-0.72231h-0.33708l-0.76676 0.94827h-0.01111v-1.7854h-0.30004z"/>
   <path d="m81.985 50.703c0 0.3556 0.12965 0.60008 0.51488 0.60008 0.11112 0 0.23336-0.03334 0.33338-0.06668l-0.05927-0.22966c-0.05927 0.02222-0.14076 0.04815-0.20373 0.04815-0.20743 0-0.27781-0.12594-0.27781-0.34819v-1.0001h0.48525v-0.24818h-0.48525v-0.50377h-0.25559l-0.03704 0.50377-0.28152 0.01852v0.22966h0.2667z"/>
   <path d="m83.185 51.259h0.30374v-1.3039c0.1815-0.1815 0.30745-0.27781 0.49266-0.27781 0.23707 0 0.34078 0.14446 0.34078 0.48154v1.1001h0.30374v-1.1409c0-0.45932-0.17039-0.70379-0.54822-0.70379-0.24818 0-0.42968 0.13335-0.60008 0.29633l0.01111-0.37042v-0.71861h-0.30374z"/>
   <path d="m85.07 50.362c0 0.58896 0.38153 0.94086 0.86307 0.94086 0.24448 0 0.43709-0.0852 0.59267-0.18521l-0.10742-0.20002c-0.13335 0.08519-0.27781 0.14076-0.4482 0.14076-0.34449 0-0.57785-0.24448-0.60008-0.63341h1.215c0.0074-0.04445 0.01111-0.10372 0.01111-0.16669 0-0.51488-0.25929-0.84455-0.71861-0.84455-0.41116 0-0.80751 0.3593-0.80751 0.94827zm0.29633-0.13705c0.03704-0.36301 0.2667-0.57044 0.51858-0.57044 0.28152 0 0.4445 0.20373 0.4445 0.57044z"/>
   <path d="m87.657 50.362c0 0.60008 0.29263 0.94086 0.74454 0.94086 0.21114 0 0.40376-0.11853 0.54451-0.25559h0.01111l0.02593 0.21114h0.25188v-2.6374h-0.30744v0.69268l0.01482 0.30745c-0.15928-0.12965-0.29633-0.20743-0.50377-0.20743-0.41116 0-0.78158 0.36301-0.78158 0.94827zm0.31485-0.0037c0-0.41116 0.22966-0.68898 0.51858-0.68898 0.14817 0 0.28522 0.05186 0.43709 0.18891v0.94086c-0.14817 0.16669-0.29263 0.24818-0.45932 0.24818-0.31485 0-0.49636-0.25929-0.49636-0.68898z"/>
   <path d="m89.708 50.362c0 0.59637 0.39264 0.94086 0.83344 0.94086 0.4408 0 0.83344-0.34449 0.83344-0.94086 0-0.60378-0.39264-0.94827-0.83344-0.94827-0.4408 0-0.83344 0.34449-0.83344 0.94827zm0.31486 0c0-0.41487 0.21114-0.69638 0.51858-0.69638 0.31115 0 0.51858 0.28152 0.51858 0.69638 0 0.41116-0.20743 0.68898-0.51858 0.68898-0.30745 0-0.51858-0.27781-0.51858-0.68898z"/>
   <path d="m91.719 50.362c0 0.59637 0.39264 0.94086 0.83344 0.94086s0.83344-0.34449 0.83344-0.94086c0-0.60378-0.39264-0.94827-0.83344-0.94827s-0.83344 0.34449-0.83344 0.94827zm0.31485 0c0-0.41487 0.21114-0.69638 0.51858-0.69638 0.31115 0 0.51858 0.28152 0.51858 0.69638 0 0.41116-0.20743 0.68898-0.51858 0.68898-0.30745 0-0.51858-0.27781-0.51858-0.68898z"/>
   <path d="m93.863 51.259h0.30374v-1.1557c0.12224-0.30374 0.30374-0.41487 0.45561-0.41487 0.07408 0 0.11483 0.01111 0.1741 0.02963l0.05927-0.2667c-0.05927-0.02593-0.11483-0.03704-0.19262-0.03704-0.20373 0-0.38894 0.14446-0.51118 0.37042h-0.01111l-0.02593-0.32597h-0.25189z"/>
  </g>
 </g>
 <g stroke="#6f8ce9" stroke-linecap="square" stroke-width=".26458">
  <path d="m54.372 36.141v3.4396h-26.987v3.4396" fill="none"/>
  <ellipse transform="rotate(-90)" cx="-39.581" cy="27.368" rx=".66146" ry=".66146" fill="#1d232d" stroke-dashoffset="1.2" stroke-miterlimit="40"/>
  <path d="m61.631 36.141v3.4396h26.723v3.4396" fill="none"/>
 </g>
 <g stroke-width=".26458">
  <ellipse transform="matrix(0,-1,-1,0,0,0)" cx="-39.581" cy="-88.371" rx=".66146" ry=".66146" fill="#1d232d" stroke="#6f8ce9" stroke-dashoffset="1.2" stroke-linecap="square" stroke-miterlimit="40"/>
  <ellipse transform="matrix(0,-1,-1,0,0,0)" cx="-61.277" cy="-45.508" rx=".66146" ry=".66146" fill="#1d232d" stroke="#6f8ce9" stroke-dashoffset="1.2" stroke-linecap="square" stroke-miterlimit="40"/>
  <g>
   <rect x="36.645" y="64.957" width="17.774" height="8.8871" fill="#2f3744" stroke="#7b8694"/>
   <g fill="#e8eaec" stroke-linecap="round" aria-label="Unlock">
    <path d="m40.25 69.666c0 0.78158 0.37783 1.0483 0.87418 1.0483 0.49636 0 0.87418-0.2667 0.87418-1.0483v-1.4261h-0.29633v1.4335c0 0.58526-0.25559 0.77047-0.57785 0.77047-0.31485 0-0.56303-0.18521-0.56303-0.77047v-1.4335h-0.31115z"/>
    <path d="m42.616 70.67h0.30374v-1.3039c0.1815-0.1815 0.30745-0.27781 0.49266-0.27781 0.23707 0 0.34078 0.14446 0.34078 0.48154v1.1001h0.30374v-1.1409c0-0.45932-0.17039-0.70379-0.54822-0.70379-0.24818 0-0.43339 0.13335-0.60378 0.30374h-0.01111l-0.02593-0.25929h-0.25188z"/>
    <path d="m44.642 70.307c0 0.263 0.0926 0.40746 0.32226 0.40746 0.08149 0 0.13335-0.01111 0.1741-0.02963l-0.04074-0.22966c-0.03334 0.0074-0.04816 0.0074-0.06668 0.0074-0.04445 0-0.0852-0.03704-0.0852-0.13335v-2.2966h-0.30374z"/>
    <path d="m45.456 69.773c0 0.59637 0.39264 0.94086 0.83344 0.94086 0.4408 0 0.83344-0.34449 0.83344-0.94086 0-0.60378-0.39264-0.94827-0.83344-0.94827-0.4408 0-0.83344 0.34449-0.83344 0.94827zm0.31486 0c0-0.41487 0.21114-0.69638 0.51858-0.69638 0.31115 0 0.51858 0.28152 0.51858 0.69638 0 0.41116-0.20743 0.68898-0.51858 0.68898-0.30745 0-0.51858-0.27781-0.51858-0.68898z"/>
    <path d="m47.467 69.773c0 0.59637 0.36671 0.94086 0.84455 0.94086 0.21484 0 0.42228-0.0889 0.58526-0.23336l-0.13706-0.20002c-0.10742 0.09631-0.25188 0.1815-0.42228 0.1815-0.32967 0-0.55563-0.27781-0.55563-0.68898 0-0.41487 0.23707-0.69638 0.56303-0.69638 0.14446 0 0.25559 0.06668 0.36301 0.15928l0.15187-0.19632c-0.12224-0.11483-0.28892-0.21484-0.52599-0.21484-0.46302 0-0.86678 0.34449-0.86678 0.94827z"/>
    <path d="m49.286 70.67h0.30004v-0.47413l0.33708-0.39264 0.52599 0.86678h0.33338l-0.68527-1.0779 0.60378-0.72231h-0.33708l-0.76676 0.94827h-0.01111v-1.7854h-0.30004z"/>
   </g>
   <rect x="60.986" y="64.957" width="17.774" height="8.8871" fill="#2f3744" stroke="#7b8694"/>
  </g>
 </g>
 <g fill="#e8eaec" stroke-linecap="round" stroke-width=".26458">
  <g aria-label="Open">
   <path d="m66.762 70.714c0.60748 0 1.0372-0.48895 1.0372-1.2705 0-0.77417-0.42968-1.2483-1.0372-1.2483-0.61119 0-1.0409 0.47043-1.0409 1.2483 0 0.78158 0.42968 1.2705 1.0409 1.2705zm0-0.2704c-0.43709 0-0.72231-0.39264-0.72231-1.0001 0-0.60378 0.28522-0.9779 0.72231-0.9779 0.43339 0 0.71861 0.37412 0.71861 0.9779 0 0.60748-0.28522 1.0001-0.71861 1.0001z"/>
   <path d="m68.578 70.507c0.16669 0.12965 0.33338 0.20743 0.50006 0.20743 0.41116 0 0.77788-0.3593 0.77788-0.97049 0-0.55933-0.24818-0.91863-0.7112-0.91863-0.21114 0-0.41116 0.11483-0.57415 0.25188h-0.01111l-0.02593-0.20743h-0.25188v2.5596h0.30374v-0.60748zm0.0074-0.23707v-0.94456c0.1778-0.15928 0.32967-0.24448 0.48154-0.24448 0.34078 0 0.47413 0.2667 0.47413 0.66305 0 0.4445-0.21855 0.7149-0.51488 0.7149-0.11853 0-0.27781-0.05186-0.4408-0.18891z"/>
   <path d="m70.203 69.773c0 0.58896 0.38153 0.94086 0.86307 0.94086 0.24448 0 0.43709-0.08519 0.59267-0.18521l-0.10742-0.20002c-0.13335 0.0852-0.27781 0.14076-0.4482 0.14076-0.34449 0-0.57785-0.24448-0.60008-0.63341h1.215c0.0074-0.04445 0.01111-0.10372 0.01111-0.16669 0-0.51488-0.25929-0.84455-0.71861-0.84455-0.41116 0-0.80751 0.3593-0.80751 0.94827zm0.29633-0.13705c0.03704-0.36301 0.2667-0.57044 0.51858-0.57044 0.28152 0 0.4445 0.20373 0.4445 0.57044z"/>
   <path d="m72.174 70.67h0.30374v-1.3039c0.1815-0.1815 0.30745-0.27781 0.49265-0.27781 0.23707 0 0.34078 0.14446 0.34078 0.48154v1.1001h0.30374v-1.1409c0-0.45932-0.17039-0.70379-0.54822-0.70379-0.24818 0-0.43339 0.13335-0.60378 0.30374h-0.01111l-0.02593-0.25929h-0.25188z"/>
  </g>
  <g aria-label="FALSE">
   <path d="m110.66 36.274h0.31115v-1.089h0.92605v-0.25929h-0.92605v-0.82233h1.0927v-0.25929h-1.4039z"/>
   <path d="m112.63 35.285 0.11854-0.37042c0.0852-0.2704 0.16298-0.5371 0.24077-0.81862h0.0148c0.0778 0.28152 0.15558 0.54822 0.24078 0.81862l0.11482 0.37042zm1.0409 0.98901h0.32597l-0.82232-2.4299h-0.3482l-0.82232 2.4299h0.31485l0.23337-0.74083h0.88529z"/>
   <path d="m114.32 36.274h1.3705v-0.263h-1.0594v-2.1669h-0.31115z"/>
   <path d="m115.84 35.959c0.21113 0.21855 0.50747 0.3593 0.84825 0.3593 0.51118 0 0.82974-0.30745 0.82974-0.69268 0-0.3593-0.21855-0.52599-0.50007-0.64823l-0.34819-0.14817c-0.18891-0.08149-0.40375-0.17039-0.40375-0.40375 0-0.21855 0.1815-0.3556 0.45561-0.3556 0.22225 0 0.40375 0.0889 0.55192 0.22966l0.16298-0.20002c-0.17039-0.1778-0.42598-0.30004-0.7149-0.30004-0.4408 0-0.76676 0.27411-0.76676 0.64453 0 0.3556 0.2667 0.5297 0.49265 0.626l0.34819 0.15187c0.22966 0.10372 0.40746 0.1815 0.40746 0.42968 0 0.23707-0.18891 0.39635-0.50747 0.39635-0.25559 0-0.49636-0.12224-0.67046-0.30374z"/>
   <path d="m117.98 36.274h1.4372v-0.263h-1.1261v-0.88159h0.91863v-0.263h-0.91863v-0.76306h1.089v-0.25929h-1.4002z"/>
  </g>
  <g aria-label="Decorator as a conditional">
   <path d="m131.98 49.503h0.6223c0.73342 0 1.1335-0.45191 1.1335-1.2261 0-0.77047-0.40005-1.2039-1.1483-1.2039h-0.60748zm0.31115-0.25188v-1.9262h0.27411c0.57044 0 0.85196 0.34078 0.85196 0.95197 0 0.61489-0.28152 0.9742-0.85196 0.9742z"/>
   <path d="m134.1 48.606c0 0.58896 0.38153 0.94086 0.86307 0.94086 0.24448 0 0.43709-0.0852 0.59267-0.18521l-0.10742-0.20002c-0.13335 0.0852-0.27782 0.14076-0.44821 0.14076-0.34448 0-0.57785-0.24448-0.60007-0.63341h1.215c7e-3 -0.04445 0.0111-0.10372 0.0111-0.16669 0-0.51488-0.25929-0.84455-0.71861-0.84455-0.41116 0-0.80751 0.3593-0.80751 0.94827zm0.29633-0.13706c0.0371-0.36301 0.2667-0.57044 0.51859-0.57044 0.28151 0 0.4445 0.20373 0.4445 0.57044z"/>
   <path d="m135.93 48.606c0 0.59637 0.36671 0.94086 0.84455 0.94086 0.21484 0 0.42227-0.0889 0.58526-0.23336l-0.13706-0.20002c-0.10742 0.09631-0.25188 0.1815-0.42227 0.1815-0.32968 0-0.55563-0.27781-0.55563-0.68898 0-0.41487 0.23707-0.69638 0.56303-0.69638 0.14447 0 0.25559 0.06668 0.36301 0.15928l0.15187-0.19632c-0.12223-0.11483-0.28892-0.21484-0.52599-0.21484-0.46302 0-0.86677 0.34449-0.86677 0.94827z"/>
   <path d="m137.54 48.606c0 0.59637 0.39264 0.94086 0.83344 0.94086 0.44079 0 0.83344-0.34449 0.83344-0.94086 0-0.60378-0.39265-0.94827-0.83344-0.94827-0.4408 0-0.83344 0.34449-0.83344 0.94827zm0.31485 0c0-0.41487 0.21114-0.69638 0.51859-0.69638 0.31115 0 0.51858 0.28152 0.51858 0.69638 0 0.41116-0.20743 0.68898-0.51858 0.68898-0.30745 0-0.51859-0.27781-0.51859-0.68898z"/>
   <path d="m139.68 49.503h0.30374v-1.1557c0.12224-0.30374 0.30374-0.41487 0.45561-0.41487 0.0741 0 0.11483 0.01111 0.1741 0.02963l0.0593-0.2667c-0.0593-0.02593-0.11483-0.03704-0.19262-0.03704-0.20373 0-0.38894 0.14446-0.51118 0.37042h-0.0111l-0.0259-0.32597h-0.25188z"/>
   <path d="m140.79 49.036c0 0.32226 0.22595 0.51118 0.52969 0.51118 0.22225 0 0.42228-0.11853 0.59637-0.25929h7e-3l0.0259 0.21484h0.25188v-1.1038c0-0.4482-0.1852-0.74083-0.626-0.74083-0.28893 0-0.54081 0.12594-0.7075 0.23336l0.12224 0.21114c0.14076-0.09631 0.32597-0.19262 0.53711-0.19262 0.29263 0 0.37041 0.22225 0.37041 0.45191-0.76676 0.0852-1.1075 0.28152-1.1075 0.67416zm0.30003-0.02223c0-0.22966 0.20373-0.37782 0.80751-0.45191v0.50006c-0.17409 0.15558-0.31856 0.24077-0.49265 0.24077-0.1778 0-0.31486-0.0852-0.31486-0.28892z"/>
   <path d="m142.82 48.947c0 0.3556 0.12964 0.60008 0.51488 0.60008 0.11112 0 0.23336-0.03334 0.33337-0.06668l-0.0593-0.22966c-0.0593 0.02222-0.14076 0.04815-0.20373 0.04815-0.20744 0-0.27782-0.12594-0.27782-0.34819v-1.0001h0.48525v-0.24818h-0.48525v-0.50377h-0.25558l-0.0371 0.50377-0.28151 0.01852v0.22966h0.2667z"/>
   <path d="m143.85 48.606c0 0.59637 0.39264 0.94086 0.83344 0.94086 0.44079 0 0.83344-0.34449 0.83344-0.94086 0-0.60378-0.39265-0.94827-0.83344-0.94827-0.4408 0-0.83344 0.34449-0.83344 0.94827zm0.31485 0c0-0.41487 0.21114-0.69638 0.51859-0.69638 0.31115 0 0.51858 0.28152 0.51858 0.69638 0 0.41116-0.20743 0.68898-0.51858 0.68898-0.30745 0-0.51859-0.27781-0.51859-0.68898z"/>
   <path d="m146 49.503h0.30374v-1.1557c0.12224-0.30374 0.30374-0.41487 0.45561-0.41487 0.0741 0 0.11483 0.01111 0.1741 0.02963l0.0593-0.2667c-0.0593-0.02593-0.11483-0.03704-0.19262-0.03704-0.20373 0-0.38894 0.14446-0.51118 0.37042h-0.0111l-0.0259-0.32597h-0.25188z"/>
   <path d="m147.94 49.036c0 0.32226 0.22596 0.51118 0.5297 0.51118 0.22225 0 0.42227-0.11853 0.59637-0.25929h7e-3l0.0259 0.21484h0.25188v-1.1038c0-0.4482-0.18521-0.74083-0.626-0.74083-0.28893 0-0.54081 0.12594-0.7075 0.23336l0.12224 0.21114c0.14076-0.09631 0.32596-0.19262 0.5371-0.19262 0.29263 0 0.37042 0.22225 0.37042 0.45191-0.76676 0.0852-1.1076 0.28152-1.1076 0.67416zm0.30004-0.02223c0-0.22966 0.20373-0.37782 0.80751-0.45191v0.50006c-0.1741 0.15558-0.31856 0.24077-0.49266 0.24077-0.1778 0-0.31485-0.0852-0.31485-0.28892z"/>
   <path d="m149.73 49.299c0.17039 0.14076 0.41487 0.24818 0.67045 0.24818 0.42598 0 0.65935-0.24448 0.65935-0.5371 0-0.34078-0.28893-0.4482-0.54822-0.54451-0.20373-0.07779-0.40005-0.14446-0.40005-0.31115 0-0.13706 0.10372-0.25929 0.32967-0.25929 0.15928 0 0.28892 0.06667 0.41116 0.15928l0.14447-0.19262c-0.13706-0.11112-0.33338-0.20373-0.55933-0.20373-0.38894 0-0.6186 0.22225-0.6186 0.51118 0 0.30374 0.28152 0.42598 0.5371 0.51858 0.19632 0.07408 0.41117 0.15558 0.41117 0.34078 0 0.15558-0.11854 0.28152-0.3556 0.28152-0.21485 0-0.37412-0.0889-0.5297-0.21484z"/>
   <path d="m131.49 53.703c0 0.32226 0.22595 0.51118 0.5297 0.51118 0.22225 0 0.42227-0.11853 0.59637-0.25929h7e-3l0.0259 0.21484h0.25188v-1.1038c0-0.4482-0.18521-0.74083-0.62601-0.74083-0.28892 0-0.5408 0.12594-0.70749 0.23336l0.12224 0.21114c0.14075-0.09631 0.32596-0.19262 0.5371-0.19262 0.29263 0 0.37042 0.22225 0.37042 0.45191-0.76677 0.0852-1.1076 0.28152-1.1076 0.67416zm0.30004-0.02222c0-0.22966 0.20373-0.37782 0.80751-0.45191v0.50006c-0.1741 0.15558-0.31856 0.24077-0.49266 0.24077-0.1778 0-0.31485-0.08519-0.31485-0.28892z"/>
   <path d="m134.08 53.273c0 0.59637 0.36671 0.94086 0.84455 0.94086 0.21484 0 0.42227-0.0889 0.58526-0.23336l-0.13706-0.20002c-0.10742 0.09631-0.25188 0.1815-0.42227 0.1815-0.32967 0-0.55563-0.27781-0.55563-0.68898 0-0.41487 0.23707-0.69638 0.56304-0.69638 0.14446 0 0.25558 0.06668 0.363 0.15928l0.15188-0.19632c-0.12224-0.11483-0.28893-0.21484-0.526-0.21484-0.46302 0-0.86677 0.34449-0.86677 0.94827z"/>
   <path d="m135.69 53.273c0 0.59637 0.39265 0.94086 0.83344 0.94086 0.4408 0 0.83344-0.34449 0.83344-0.94086 0-0.60378-0.39264-0.94827-0.83344-0.94827-0.44079 0-0.83344 0.34449-0.83344 0.94827zm0.31486 0c0-0.41487 0.21114-0.69638 0.51858-0.69638 0.31115 0 0.51859 0.28152 0.51859 0.69638 0 0.41116-0.20744 0.68898-0.51859 0.68898-0.30744 0-0.51858-0.27781-0.51858-0.68898z"/>
   <path d="m137.83 54.169h0.30374v-1.3039c0.18151-0.1815 0.30745-0.27781 0.49266-0.27781 0.23707 0 0.34078 0.14446 0.34078 0.48154v1.1001h0.30374v-1.1409c0-0.45932-0.17039-0.70379-0.54821-0.70379-0.24818 0-0.43339 0.13335-0.60378 0.30374h-0.0111l-0.0259-0.25929h-0.25189z"/>
   <path d="m139.73 53.273c0 0.60008 0.29263 0.94086 0.74454 0.94086 0.21114 0 0.40376-0.11853 0.54452-0.25559h0.0111l0.0259 0.21114h0.25188v-2.6374h-0.30745v0.69268l0.0148 0.30745c-0.15928-0.12965-0.29633-0.20743-0.50377-0.20743-0.41116 0-0.78158 0.36301-0.78158 0.94827zm0.31486-0.0037c0-0.41116 0.22966-0.68898 0.51858-0.68898 0.14817 0 0.28522 0.05186 0.43709 0.18891v0.94086c-0.14816 0.16669-0.29263 0.24818-0.45931 0.24818-0.31486 0-0.49636-0.25929-0.49636-0.68898z"/>
   <path d="m142.07 51.999c0.11853 0 0.21114-0.08149 0.21114-0.19632 0-0.11853-0.0926-0.19632-0.21114-0.19632-0.11853 0-0.21114 0.07779-0.21114 0.19632 0 0.11483 0.0926 0.19632 0.21114 0.19632zm-0.15557 2.1706h0.30374v-1.8002h-0.30374z"/>
   <path d="m142.88 53.614c0 0.3556 0.12964 0.60008 0.51488 0.60008 0.11112 0 0.23336-0.03334 0.33337-0.06667l-0.0593-0.22966c-0.0593 0.02222-0.14076 0.04815-0.20373 0.04815-0.20744 0-0.27782-0.12594-0.27782-0.34819v-1.0001h0.48525v-0.24818h-0.48525v-0.50377h-0.25558l-0.037 0.50377-0.28151 0.01852v0.22966h0.2667z"/>
   <path d="m144.23 51.999c0.11853 0 0.21114-0.08149 0.21114-0.19632 0-0.11853-0.0926-0.19632-0.21114-0.19632-0.11853 0-0.21114 0.07779-0.21114 0.19632 0 0.11483 0.0926 0.19632 0.21114 0.19632zm-0.15558 2.1706h0.30375v-1.8002h-0.30375z"/>
   <path d="m144.86 53.273c0 0.59637 0.39264 0.94086 0.83344 0.94086 0.44079 0 0.83343-0.34449 0.83343-0.94086 0-0.60378-0.39264-0.94827-0.83343-0.94827-0.4408 0-0.83344 0.34449-0.83344 0.94827zm0.31485 0c0-0.41487 0.21114-0.69638 0.51859-0.69638 0.31115 0 0.51858 0.28152 0.51858 0.69638 0 0.41116-0.20743 0.68898-0.51858 0.68898-0.30745 0-0.51859-0.27781-0.51859-0.68898z"/>
   <path d="m147 54.169h0.30374v-1.3039c0.1815-0.1815 0.30744-0.27781 0.49265-0.27781 0.23707 0 0.34079 0.14446 0.34079 0.48154v1.1001h0.30374v-1.1409c0-0.45932-0.17039-0.70379-0.54822-0.70379-0.24818 0-0.43339 0.13335-0.60378 0.30374h-0.0111l-0.0259-0.25929h-0.25188z"/>
   <path d="m148.94 53.703c0 0.32226 0.22596 0.51118 0.5297 0.51118 0.22225 0 0.42227-0.11853 0.59637-0.25929h7e-3l0.0259 0.21484h0.25188v-1.1038c0-0.4482-0.18521-0.74083-0.626-0.74083-0.28893 0-0.54081 0.12594-0.7075 0.23336l0.12224 0.21114c0.14076-0.09631 0.32597-0.19262 0.5371-0.19262 0.29263 0 0.37042 0.22225 0.37042 0.45191-0.76676 0.0852-1.1076 0.28152-1.1076 0.67416zm0.30004-0.02222c0-0.22966 0.20373-0.37782 0.80751-0.45191v0.50006c-0.1741 0.15558-0.31856 0.24077-0.49265 0.24077-0.1778 0-0.31486-0.08519-0.31486-0.28892z"/>
   <path d="m150.92 53.806c0 0.263 0.0926 0.40746 0.32226 0.40746 0.0815 0 0.13335-0.01111 0.17409-0.02963l-0.0407-0.22966c-0.0333 0.0074-0.0482 0.0074-0.0667 0.0074-0.0444 0-0.0852-0.03704-0.0852-0.13335v-2.2966h-0.30374z"/>
  </g>
 </g>
 <path d="m139.96 44.608-22.49-15.875" fill="none" stroke="#6f8ce9" stroke-linecap="square" stroke-width=".26458"/>
 <g transform="matrix(.0040273 -.0013149 .0013374 .0040963 116.77 28.151)" fill="#47d58a" stroke-width="123.85">
  <g fill="#47d58a" stroke-width="123.85">
   <path d="m486.41 221.41-364.07-208.5c-52.938-30.318-95.852-5.44-95.852 55.563v415.65c0 61.004 42.914 85.882 95.852 55.563l364.07-208.49c52.938-30.317 52.938-79.473 0-109.79z" fill="#6f8ce9" stroke-width="123.85"/>
  </g>
 </g>
</svg>
