<?xml version="1.0" encoding="UTF-8"?>
<svg width="639.79" height="277.35" version="1.1" viewBox="0 0 169.28 73.384" xmlns="http://www.w3.org/2000/svg" xmlns:cc="http://creativecommons.org/ns#" xmlns:dc="http://purl.org/dc/elements/1.1/" xmlns:rdf="http://www.w3.org/1999/02/22-rdf-syntax-ns#">
 <metadata>
  <rdf:RDF>
   <cc:Work rdf:about="">
    <dc:format>image/svg+xml</dc:format>
    <dc:type rdf:resource="http://purl.org/dc/dcmitype/StillImage"/>
    <dc:title/>
   </cc:Work>
  </rdf:RDF>
 </metadata>
 <rect x="-.00027066" y="1.409" width="169.28" height="70.533" fill="#1d232d" style="paint-order:normal"/>
 <g transform="matrix(7.2628 0 0 7.2628 -684.21 -699.12)" fill="#7b8694" stroke-width=".13769">
  <path d="m94.596 96.26h1.1654v0.19408h-1.1654z"/>
  <path d="m96.538 96.26h1.1654v0.19408h-1.1654z"/>
  <path d="m98.481 96.26h1.1654v0.19408h-1.1654z"/>
  <path d="m100.42 96.26h1.1654v0.19408h-1.1654z"/>
  <path d="m102.37 96.26h1.1654v0.19408h-1.1654z"/>
  <path d="m104.31 96.26h1.1654v0.19408h-1.1654z"/>
  <path d="m106.25 96.26h1.1654v0.19408h-1.1654z"/>
  <path d="m108.19 96.26h1.1654v0.19408h-1.1654z"/>
  <path d="m110.13 96.26h1.1654v0.19408h-1.1654z"/>
  <path d="m112.08 96.26h1.1654v0.19408h-1.1654z"/>
  <path d="m114.02 96.26h1.1654v0.19408h-1.1654z"/>
  <path d="m115.96 96.26h1.1654v0.19408h-1.1654z"/>
  <path d="m115.96 106.17h1.1654v0.19405h-1.1654z"/>
  <path d="m114.02 106.17h1.1654v0.19405h-1.1654z"/>
  <path d="m112.08 106.17h1.1654v0.19405h-1.1654z"/>
  <path d="m110.13 106.17h1.1654v0.19405h-1.1654z"/>
  <path d="m108.19 106.17h1.1654v0.19405h-1.1654z"/>
  <path d="m106.25 106.17h1.1654v0.19405h-1.1654z"/>
  <path d="m104.31 106.17h1.1654v0.19405h-1.1654z"/>
  <path d="m102.37 106.17h1.1654v0.19405h-1.1654z"/>
  <path d="m100.42 106.17h1.1654v0.19405h-1.1654z"/>
  <path d="m98.481 106.17h1.1654v0.19405h-1.1654z"/>
  <path d="m96.538 106.17h1.1654v0.19405h-1.1654z"/>
  <path d="m94.596 106.17h1.1654v0.19405h-1.1654z"/>
 </g>
 <g>
  <circle cx="81.903" cy="32.687" r="3.1805"/>
  <circle cx="91.564" cy="32.5" r="3.1805"/>
  <path d="m71.203 52.2c-0.05995-0.02672-0.1801-0.11173-0.26698-0.18943l-0.15797-0.14123 0.0032-6.4698c0.0041-8.1861 0.03428-14.153 0.0784-15.399 0.04891-1.3907 0.11541-1.8195 0.47451-3.0648 0.45807-1.5884 1.3426-3.3414 2.3717-4.7002 0.74232-0.98021 2.073-2.2627 3.0854-2.9737 1.7021-1.1954 3.7397-2.0522 5.7338-2.411 2.6233-0.47198 5.4875-0.14571 8.011 0.91258 1.8109 0.75948 3.6202 2.0449 4.9469 3.5145 1.6636 1.8428 2.7273 3.8465 3.342 6.2952 0.18384 0.73239 0.25654 1.1819 0.31124 1.925 0.05883 0.79909 0.10356 7.1916 0.10614 15.179l0.0017 7.1648-0.15831 0.14592c-0.20758 0.1914-0.29108 0.23304-0.47254 0.23577-0.18368 0.0027-0.3534-0.07996-0.44324-0.2161-0.0624-0.09449-0.06904-0.24066-0.09338-2.0282-0.01466-1.0595-0.02871-5.2712-0.03177-9.3593-0.0061-8.7468-0.03177-10.879-0.13972-11.578-0.44295-2.8722-1.7077-5.3923-3.7122-7.3967-2.1851-2.1851-4.9691-3.4853-8.0885-3.7776-0.51421-0.04841-1.7393-0.04841-2.2535 0-1.6269 0.15242-3.0153 0.54604-4.5542 1.291-1.4972 0.72479-2.2648 1.2922-3.6439 2.6937-1.1357 1.1541-1.5949 1.7903-2.2515 3.1199-0.78899 1.5975-1.2134 3.0074-1.3459 4.4707-0.07891 0.87173-0.10538 3.91-0.10674 12.243l-0.0014 8.4997 1.2385-1.2197c0.68119-0.67081 1.3137-1.2694 1.4056-1.3303 0.19997-0.13245 0.40498-0.14607 0.58123-0.03882 0.17123 0.10442 0.56252 0.47763 2.0147 1.9218l1.2964 1.2892 1.5205-1.4955c0.83627-0.82253 1.608-1.5612 1.715-1.6415 0.24358-0.18282 0.36419-0.18852 0.60802-0.02874 0.09837 0.06444 0.8672 0.80049 1.7085 1.6356 0.84128 0.83512 1.5435 1.5184 1.5605 1.5184 0.01711 0 0.72716-0.6924 1.5781-1.5387 0.932-0.92692 1.6164-1.579 1.7215-1.6401 0.241-0.14017 0.36459-0.11445 0.67347 0.14007 0.13341 0.10992 0.8879 0.84615 1.6767 1.636l1.4341 1.4362 1.5463-1.5352c0.85048-0.84436 1.6268-1.5879 1.7252-1.6524 0.40816-0.26738 0.8275-0.05839 0.88374 0.44052 0.01667 0.14607 7e-3 0.16563-0.20914 0.40669-0.94092 1.0523-3.5171 3.5879-3.7647 3.7054-0.179 0.08496-0.3233 0.05042-0.54255-0.13018-0.09953-0.08193-0.85686-0.8125-1.683-1.6235l-1.502-1.4742-0.84237 0.83454c-2.3683 2.3463-2.5199 2.4798-2.7629 2.4342-0.18817-0.0353-0.51674-0.33212-2.0447-1.8471-0.7819-0.77521-1.4352-1.4095-1.4518-1.4095-0.01664 0-0.71819 0.68356-1.5591 1.519-0.84093 0.83546-1.6095 1.5715-1.7078 1.6356-0.18908 0.12323-0.30227 0.14294-0.4323 0.07528-0.16215-0.08435-0.50997-0.40775-1.7655-1.6416-0.70793-0.69572-1.375-1.34-1.4824-1.4318l-0.19528-0.16684-0.26178 0.25049c-0.14395 0.13775-0.86735 0.85746-1.6075 1.5993-1.15 1.1526-1.3675 1.3549-1.4953 1.3903-0.18237 0.05057-0.18721 0.05042-0.32289-0.0096zm10.218-15.434c-1.2763-0.20067-2.4699-1.0809-3.083-2.2734-0.33449-0.65073-0.45247-1.231-0.41688-2.0505 0.03176-0.72694 0.18272-1.253 0.53164-1.8504 0.60152-1.0299 1.6894-1.8085 2.8006-2.0042 0.29788-0.05249 1.2132-0.05314 1.5317-0.0013 0.75219 0.12288 1.5714 0.55744 2.1596 1.1457 0.8836 0.8836 1.298 2.0507 1.1883 3.3469-0.081 0.95702-0.47204 1.7778-1.1836 2.4844-0.59893 0.59472-1.2924 0.97324-2.1149 1.1544-0.30585 0.06736-1.1161 0.09504-1.4135 0.04841zm1.3772-1.2496c0.32677-0.08688 0.84197-0.35476 1.1117-0.57804 0.4254-0.35219 0.79156-0.91652 0.94863-1.4621 0.07192-0.24978 0.08318-0.37079 0.08257-0.88886-7.34e-4 -0.58628-0.0035-0.60658-0.11722-0.90539-0.2927-0.76784-0.81354-1.337-1.5511-1.6948-0.43704-0.21207-0.62967-0.25044-1.256-0.25014-0.61404 2.63e-4 -0.84366 0.0484-1.3004 0.27217-0.3651 0.17894-0.89665 0.66596-1.1612 1.0639-0.4385 0.65962-0.57857 1.4742-0.3893 2.2643 0.13372 0.55827 0.55571 1.2472 0.97239 1.5875 0.37074 0.30278 0.925 0.5583 1.3971 0.64405 0.25306 0.04588 1.011 0.01462 1.2629-0.05254zm-0.1197-1.8234c-0.36424-0.18151-0.62544-0.60343-0.62544-1.0102 0-0.81721 0.78903-1.3882 1.563-1.1311 0.27565 0.09156 0.57566 0.39272 0.68815 0.69082 0.22327 0.59168-0.10275 1.3235-0.66382 1.4901-0.10064 0.02974-0.31589 0.05435-0.47823 0.05435-0.24459 0-0.32753-0.01614-0.48369-0.09393zm8.4976 3.0878c-0.85403-0.12232-1.456-0.33565-2.0124-0.71318-0.6716-0.4557-1.3971-1.4767-1.6206-2.2807-0.20929-0.7529-0.16382-1.827 0.10885-2.5711 0.46861-1.2789 1.7187-2.3638 3.0093-2.6116 0.54316-0.10432 1.6931-0.04437 2.1707 0.11319 0.49488 0.16326 1.137 0.56602 1.5917 0.9984 0.63694 0.60568 1.1043 1.5867 1.228 2.5777 0.19528 1.5648-0.81568 3.3299-2.3493 4.1018-0.59224 0.29808-1.5387 0.46966-2.1263 0.38551zm0.95002-1.2289c0.93306-0.19775 1.7856-0.9273 2.1495-1.8395 0.31144-0.78058 0.26264-1.619-0.13957-2.3978-0.37588-0.72776-0.96386-1.2299-1.7242-1.4724-0.41466-0.13225-1.0916-0.16553-1.5035-0.07392-0.94583 0.2104-1.6492 0.79113-2.0949 1.7296l-0.16357 0.34442-0.01213 0.72386c-0.01362 0.82018 0.0017 0.91611 0.22013 1.3563 0.41163 0.83086 1.1656 1.4308 2.0452 1.6273 0.28946 0.06464 0.92232 0.06575 1.2226 2e-3zm0.35124-1.7659c-0.21434-0.0363-0.51505-0.1977-0.63766-0.34261-0.0515-0.06091-0.13603-0.20067-0.18782-0.31064-0.07846-0.16654-0.09408-0.25145-0.09362-0.50885 4.37e-4 -0.26435 0.01466-0.33585 0.09822-0.49518 0.29017-0.55298 1.0014-0.80485 1.5293-0.54159 0.24524 0.12232 0.47218 0.35355 0.58313 0.5942 0.06188 0.13427 0.07829 0.23864 0.0782 0.4971-1.49e-4 0.28382-0.01309 0.35148-0.09696 0.51116-0.10084 0.1917-0.31568 0.41052-0.49099 0.50007-0.11067 0.05657-0.44929 0.13634-0.54916 0.12943-0.03378-0.0027-0.13866-0.01714-0.23259-0.03328z" fill="#7893ea" stroke-width=".99999"/>
 </g>
</svg>
