<?xml version="1.0" encoding="UTF-8"?>
<svg width="88.372mm" height="55.081mm" version="1.1" viewBox="0 0 88.372 55.081" xmlns="http://www.w3.org/2000/svg" xmlns:cc="http://creativecommons.org/ns#" xmlns:dc="http://purl.org/dc/elements/1.1/" xmlns:rdf="http://www.w3.org/1999/02/22-rdf-syntax-ns#">
 <metadata>
  <rdf:RDF>
   <cc:Work rdf:about="">
    <dc:format>image/svg+xml</dc:format>
    <dc:type rdf:resource="http://purl.org/dc/dcmitype/StillImage"/>
    <dc:title/>
   </cc:Work>
  </rdf:RDF>
 </metadata>
 <g fill="#2f3744" stroke="#535e70" stroke-dashoffset="1.2" stroke-linecap="round" stroke-miterlimit="40">
  <g stroke-width=".13229">
   <path d="m13.034 5.2403v44.715"/>
   <path d="m18.325 5.2403v44.715"/>
   <path d="m23.617 5.2403v44.715"/>
   <path d="m28.909 5.2403v44.715"/>
   <path d="m34.2 5.2403v44.715"/>
   <path d="m39.492 5.2403v44.715"/>
   <path d="m44.784 5.2403v44.715"/>
   <path d="m50.075 5.2403v44.715"/>
   <path d="m55.367 5.2403v44.715"/>
   <path d="m60.659 5.2403v44.715"/>
   <path d="m65.95 5.2403v44.715"/>
   <path d="m4.6992 42.15h76.994"/>
   <path d="m4.6992 36.858h76.994"/>
   <path d="m4.6992 31.566h76.994"/>
   <path d="m4.6992 26.275h76.994"/>
   <path d="m4.6992 20.983h76.994"/>
   <path d="m4.6992 15.691h76.994"/>
   <path d="m4.6992 10.4h76.994"/>
   <path d="m4.6992 5.108h76.994"/>
  </g>
  <g stroke-width=".066146">
   <path d="m10.388 5.2403v42.069"/>
   <path d="m15.679 5.2403v42.069"/>
   <path d="m20.971 5.2403v42.069"/>
   <path d="m26.263 5.2403v42.069"/>
   <path d="m31.554 5.2403v42.069"/>
   <path d="m36.846 5.2403v42.069"/>
   <path d="m42.138 5.2403v42.069"/>
   <path d="m47.429 5.2403v42.069"/>
   <path d="m52.721 5.2403v42.069"/>
   <path d="m58.013 5.2403v42.069"/>
   <path d="m63.304 5.2403v42.069"/>
   <path d="m7.6096 7.7538h74.083"/>
   <path d="m7.6096 13.045h74.083"/>
   <path d="m7.6096 18.337h74.083"/>
   <path d="m7.6096 23.629h74.083"/>
   <path d="m7.6096 28.92h74.083"/>
   <path d="m7.6096 34.212h74.083"/>
   <path d="m7.6096 39.504h74.083"/>
   <path d="m7.6096 44.795h74.083"/>
  </g>
  <g stroke-width=".033073">
   <path d="m11.975 5.2403v42.069"/>
   <path d="m10.917 5.2403v42.069"/>
   <path d="m11.446 5.2403v42.069"/>
   <path d="m12.504 5.2403v42.069"/>
   <path d="m9.3294 5.2403v42.069"/>
   <path d="m8.2711 5.2403v42.069"/>
   <path d="m8.8002 5.2403v42.069"/>
   <path d="m9.8586 5.2403v42.069"/>
   <path d="m14.621 5.2403v42.069"/>
   <path d="m13.563 5.2403v42.069"/>
   <path d="m14.092 5.2403v42.069"/>
   <path d="m15.15 5.2403v42.069"/>
   <path d="m17.267 5.2403v42.069"/>
   <path d="m16.209 5.2403v42.069"/>
   <path d="m16.738 5.2403v42.069"/>
   <path d="m17.796 5.2403v42.069"/>
   <path d="m19.913 5.2403v42.069"/>
   <path d="m18.854 5.2403v42.069"/>
   <path d="m19.384 5.2403v42.069"/>
   <path d="m20.442 5.2403v42.069"/>
   <path d="m22.559 5.2403v42.069"/>
   <path d="m21.5 5.2403v42.069"/>
   <path d="m22.029 5.2403v42.069"/>
   <path d="m23.088 5.2403v42.069"/>
   <path d="m25.204 5.2403v42.069"/>
   <path d="m24.146 5.2403v42.069"/>
   <path d="m24.675 5.2403v42.069"/>
   <path d="m25.734 5.2403v42.069"/>
   <path d="m27.85 5.2403v42.069"/>
   <path d="m26.792 5.2403v42.069"/>
   <path d="m27.321 5.2403v42.069"/>
   <path d="m28.379 5.2403v42.069"/>
   <path d="m30.496 5.2403v42.069"/>
   <path d="m29.438 5.2403v42.069"/>
   <path d="m29.967 5.2403v42.069"/>
   <path d="m31.025 5.2403v42.069"/>
   <path d="m33.142 5.2403v42.069"/>
   <path d="m32.084 5.2403v42.069"/>
   <path d="m32.613 5.2403v42.069"/>
   <path d="m33.671 5.2403v42.069"/>
   <path d="m35.788 5.2403v42.069"/>
   <path d="m34.729 5.2403v42.069"/>
   <path d="m35.259 5.2403v42.069"/>
   <path d="m36.317 5.2403v42.069"/>
   <path d="m38.434 5.2403v42.069"/>
   <path d="m37.375 5.2403v42.069"/>
   <path d="m37.904 5.2403v42.069"/>
   <path d="m38.963 5.2403v42.069"/>
   <path d="m41.079 5.2403v42.069"/>
   <path d="m40.021 5.2403v42.069"/>
   <path d="m40.55 5.2403v42.069"/>
   <path d="m41.609 5.2403v42.069"/>
   <path d="m43.725 5.2403v42.069"/>
   <path d="m42.667 5.2403v42.069"/>
   <path d="m43.196 5.2403v42.069"/>
   <path d="m44.254 5.2403v42.069"/>
   <path d="m46.371 5.2403v42.069"/>
   <path d="m45.313 5.2403v42.069"/>
   <path d="m45.842 5.2403v42.069"/>
   <path d="m46.9 5.2403v42.069"/>
   <path d="m49.017 5.2403v42.069"/>
   <path d="m47.959 5.2403v42.069"/>
   <path d="m48.488 5.2403v42.069"/>
   <path d="m49.546 5.2403v42.069"/>
   <path d="m51.663 5.2403v42.069"/>
   <path d="m50.604 5.2403v42.069"/>
   <path d="m51.134 5.2403v42.069"/>
   <path d="m52.192 5.2403v42.069"/>
   <path d="m54.309 5.2403v42.069"/>
   <path d="m53.25 5.2403v42.069"/>
   <path d="m53.779 5.2403v42.069"/>
   <path d="m54.838 5.2403v42.069"/>
   <path d="m56.954 5.2403v42.069"/>
   <path d="m55.896 5.2403v42.069"/>
   <path d="m56.425 5.2403v42.069"/>
   <path d="m57.484 5.2403v42.069"/>
   <path d="m59.6 5.2403v42.069"/>
   <path d="m58.542 5.2403v42.069"/>
   <path d="m59.071 5.2403v42.069"/>
   <path d="m60.129 5.2403v42.069"/>
   <path d="m62.246 5.2403v42.069"/>
   <path d="m61.188 5.2403v42.069"/>
   <path d="m61.717 5.2403v42.069"/>
   <path d="m62.775 5.2403v42.069"/>
   <path d="m64.892 5.2403v42.069"/>
   <path d="m63.834 5.2403v42.069"/>
   <path d="m64.363 5.2403v42.069"/>
   <path d="m65.421 5.2403v42.069"/>
   <path d="m7.6096 5.6372h74.083"/>
   <path d="m7.6096 6.1663h74.083"/>
   <path d="m7.6096 6.6955h74.083"/>
   <path d="m7.6096 7.2247h74.083"/>
   <path d="m7.6096 8.283h74.083"/>
   <path d="m7.6096 8.8122h74.083"/>
   <path d="m7.6096 9.3413h74.083"/>
   <path d="m7.6096 9.8705h74.083"/>
   <path d="m7.6096 10.929h74.083"/>
   <path d="m7.6096 11.458h74.083"/>
   <path d="m7.6096 11.987h74.083"/>
   <path d="m7.6096 12.516h74.083"/>
   <path d="m7.6096 13.575h74.083"/>
   <path d="m7.6096 14.104h74.083"/>
   <path d="m7.6096 14.633h74.083"/>
   <path d="m7.6096 15.162h74.083"/>
   <path d="m7.6096 16.22h74.083"/>
   <path d="m7.6096 16.75h74.083"/>
   <path d="m7.6096 17.279h74.083"/>
   <path d="m7.6096 17.808h74.083"/>
   <path d="m7.6096 18.866h74.083"/>
   <path d="m7.6096 19.395h74.083"/>
   <path d="m7.6096 19.925h74.083"/>
   <path d="m7.6096 20.454h74.083"/>
   <path d="m7.6096 21.512h74.083"/>
   <path d="m7.6096 22.041h74.083"/>
   <path d="m7.6096 22.57h74.083"/>
   <path d="m7.6096 23.1h74.083"/>
   <path d="m7.6096 24.158h74.083"/>
   <path d="m7.6096 24.687h74.083"/>
   <path d="m7.6096 25.216h74.083"/>
   <path d="m7.6096 25.745h74.083"/>
   <path d="m7.6096 26.804h74.083"/>
   <path d="m7.6096 27.333h74.083"/>
   <path d="m7.6096 27.862h74.083"/>
   <path d="m7.6096 28.391h74.083"/>
   <path d="m7.6096 29.45h74.083"/>
   <path d="m7.6096 29.979h74.083"/>
   <path d="m7.6096 30.508h74.083"/>
   <path d="m7.6096 31.037h74.083"/>
   <path d="m7.6096 32.095h74.083"/>
   <path d="m7.6096 32.625h74.083"/>
   <path d="m7.6096 33.154h74.083"/>
   <path d="m7.6096 33.683h74.083"/>
   <path d="m7.6096 34.741h74.083"/>
   <path d="m7.6096 35.27h74.083"/>
   <path d="m7.6096 35.8h74.083"/>
   <path d="m7.6096 36.329h74.083"/>
   <path d="m7.6096 37.387h74.083"/>
   <path d="m7.6096 37.916h74.083"/>
   <path d="m7.6096 38.445h74.083"/>
   <path d="m7.6096 38.975h74.083"/>
   <path d="m7.6096 40.033h74.083"/>
   <path d="m7.6096 40.562h74.083"/>
   <path d="m7.6096 41.091h74.083"/>
   <path d="m7.6096 41.62h74.083"/>
   <path d="m7.6096 42.679h74.083"/>
   <path d="m7.6096 43.208h74.083"/>
   <path d="m7.6096 43.737h74.083"/>
   <path d="m7.6096 44.266h74.083"/>
   <path d="m7.6096 45.325h74.083"/>
   <path d="m7.6096 45.854h74.083"/>
   <path d="m7.6096 46.383h74.083"/>
   <path d="m7.6096 46.912h74.083"/>
  </g>
  <path d="m4.6992 47.441h76.994" stroke-width=".13229"/>
  <path d="m71.242 5.2403v44.715" stroke-width=".13229"/>
  <path d="m68.596 5.2403v42.069" stroke-width=".066146"/>
  <g stroke-width=".033073">
   <path d="m67.538 5.2403v42.069"/>
   <path d="m66.479 5.2403v42.069"/>
   <path d="m67.009 5.2403v42.069"/>
   <path d="m68.067 5.2403v42.069"/>
   <path d="m70.184 5.2403v42.069"/>
   <path d="m69.125 5.2403v42.069"/>
   <path d="m69.654 5.2403v42.069"/>
   <path d="m70.713 5.2403v42.069"/>
  </g>
  <path d="m76.534 5.2403v44.715" stroke-width=".13229"/>
  <path d="m73.888 5.2403v42.069" stroke-width=".066146"/>
  <g stroke-width=".033073">
   <path d="m72.829 5.2403v42.069"/>
   <path d="m71.771 5.2403v42.069"/>
   <path d="m72.3 5.2403v42.069"/>
   <path d="m73.359 5.2403v42.069"/>
   <path d="m75.475 5.2403v42.069"/>
   <path d="m74.417 5.2403v42.069"/>
   <path d="m74.946 5.2403v42.069"/>
   <path d="m76.004 5.2403v42.069"/>
  </g>
  <path d="m81.825 5.2403v44.715" stroke-width=".13229"/>
  <path d="m79.179 5.2403v42.069" stroke-width=".066146"/>
  <g stroke-width=".033073">
   <path d="m78.121 5.2403v42.069"/>
   <path d="m77.063 5.2403v42.069"/>
   <path d="m77.592 5.2403v42.069"/>
   <path d="m78.65 5.2403v42.069"/>
   <path d="m80.767 5.2403v42.069"/>
   <path d="m79.709 5.2403v42.069"/>
   <path d="m80.238 5.2403v42.069"/>
   <path d="m81.296 5.2403v42.069"/>
  </g>
 </g>
 <g fill="#d2d6dc">
  <path d="m7.5733 2.5661v47.491" stroke="#d2d6dc" stroke-dashoffset="1.2" stroke-linecap="round" stroke-miterlimit="40" stroke-width=".52917"/>
  <path d="m4.6514 47.662h76.99" stroke="#d2d6dc" stroke-dashoffset="1.2" stroke-linecap="round" stroke-miterlimit="40" stroke-width=".52917"/>
  <g transform="matrix(0 -.0042365 .0043091 0 6.3923 2.8077)" stroke-width="123.85">
   <g fill="#d2d6dc" stroke-width="123.85">
    <path d="m486.41 221.41-364.07-208.5c-52.938-30.318-95.852-5.44-95.852 55.563v415.65c0 61.004 42.914 85.882 95.852 55.563l364.07-208.49c52.938-30.317 52.938-79.473 0-109.79z" fill="#d2d6dc" stroke-width="123.85"/>
   </g>
  </g>
  <g transform="matrix(.0042365 0 0 .0043091 81.554 46.427)" stroke-width="123.85">
   <g fill="#d2d6dc" stroke-width="123.85">
    <path d="m486.41 221.41-364.07-208.5c-52.938-30.318-95.852-5.44-95.852 55.563v415.65c0 61.004 42.914 85.882 95.852 55.563l364.07-208.49c52.938-30.317 52.938-79.473 0-109.79z" fill="#d2d6dc" stroke-width="123.85"/>
   </g>
  </g>
 </g>
 <g fill="none" stroke-linecap="round" stroke-width=".26458">
  <path d="m7.5182 5.1568h10.848l10.583 42.333" stroke="#ff867f"/>
  <path d="m18.102 47.49 10.583-42.333h10.848l10.583 42.333" stroke="#e9e56f"/>
  <path d="m39.533 47.49 10.583-42.333h10.583l10.583 42.333" stroke="#6f8ce9"/>
  <path d="m60.699 47.49 10.583-42.333h10.583" stroke="#7893ea"/>
 </g>
 <g fill="#e8eaec">
  <g transform="matrix(0 -1.0015 .99852 0 0 0)" stroke-width=".28222px" aria-label="Membership">
   <path d="m-33.046 2.2606h0.24448v-1.1462c0-0.18415-0.01905-0.4318-0.03175-0.61595h0.0127l0.1651 0.46355 0.40005 1.089h0.1524l0.40005-1.089 0.1651-0.46355h0.0127c-0.0127 0.18415-0.03493 0.4318-0.03493 0.61595v1.1462h0.25082v-2.0828h-0.31115l-0.40005 1.1176-0.14605 0.42545h-0.0127l-0.14922-0.42545-0.40322-1.1176h-0.31432z"/>
   <path d="m-30.881 1.4922c0 0.50482 0.32702 0.80645 0.73978 0.80645 0.20955 0 0.37465-0.073025 0.508-0.15875l-0.09207-0.17145c-0.1143 0.073025-0.23812 0.12065-0.38418 0.12065-0.29528 0-0.4953-0.20955-0.51435-0.54292h1.0414c0.0063-0.0381 0.0095-0.0889 0.0095-0.14288 0-0.44133-0.22225-0.7239-0.61595-0.7239-0.35242 0-0.69215 0.30797-0.69215 0.8128zm0.254-0.11748c0.03175-0.31115 0.2286-0.48895 0.4445-0.48895 0.2413 0 0.381 0.17463 0.381 0.48895z"/>
   <path d="m-29.192 2.2606h0.26035v-1.1176c0.14288-0.15875 0.27305-0.23813 0.38735-0.23813 0.19685 0 0.28892 0.12383 0.28892 0.41275v0.94298h0.26035v-1.1176c0.14288-0.15875 0.2667-0.23813 0.38735-0.23813 0.19368 0 0.28575 0.12383 0.28575 0.41275v0.94298h0.26035v-0.9779c0-0.3937-0.1524-0.60325-0.4699-0.60325-0.18732 0-0.34608 0.12065-0.508 0.29527-0.0635-0.18415-0.1905-0.29527-0.42545-0.29527-0.18415 0-0.34608 0.1143-0.47942 0.26035h-0.0095l-0.02222-0.22225h-0.2159z"/>
   <path d="m-26.563 2.2606h0.20955l0.02222-0.1524h0.0095c0.13652 0.12065 0.29845 0.1905 0.44132 0.1905 0.35242 0 0.66675-0.30798 0.66675-0.83502 0-0.47625-0.21272-0.78423-0.61278-0.78423-0.17145 0-0.3429 0.092075-0.4826 0.2159l0.0063-0.2794v-0.61595h-0.26035zm0.26035-0.3429v-0.80962c0.14605-0.13653 0.28258-0.20955 0.41275-0.20955 0.2921 0 0.4064 0.2286 0.4064 0.56833 0 0.381-0.18732 0.61278-0.44132 0.61278-0.1016 0-0.2413-0.04445-0.37782-0.16192z"/>
   <path d="m-24.916 1.4922c0 0.50482 0.32702 0.80645 0.73978 0.80645 0.20955 0 0.37465-0.073025 0.508-0.15875l-0.09208-0.17145c-0.1143 0.073025-0.23812 0.12065-0.38418 0.12065-0.29528 0-0.4953-0.20955-0.51435-0.54292h1.0414c0.0064-0.0381 0.0095-0.0889 0.0095-0.14288 0-0.44133-0.22225-0.7239-0.61595-0.7239-0.35242 0-0.69215 0.30797-0.69215 0.8128zm0.254-0.11748c0.03175-0.31115 0.2286-0.48895 0.4445-0.48895 0.2413 0 0.381 0.17463 0.381 0.48895z"/>
   <path d="m-23.226 2.2606h0.26035v-0.9906c0.10478-0.26035 0.26035-0.3556 0.39052-0.3556 0.0635 0 0.09843 0.009525 0.14922 0.0254l0.0508-0.2286c-0.0508-0.022225-0.09842-0.03175-0.1651-0.03175-0.17462 0-0.33338 0.12382-0.43815 0.3175h-0.0095l-0.02222-0.2794h-0.2159z"/>
   <path d="m-22.325 2.086c0.14605 0.12065 0.3556 0.21272 0.57468 0.21272 0.36512 0 0.56515-0.20955 0.56515-0.46038 0-0.2921-0.24765-0.38418-0.4699-0.46672-0.17462-0.066675-0.3429-0.12382-0.3429-0.2667 0-0.11748 0.0889-0.22225 0.28258-0.22225 0.13652 0 0.24765 0.05715 0.35242 0.13653l0.12382-0.1651c-0.11748-0.09525-0.28575-0.17462-0.47942-0.17462-0.33338 0-0.53022 0.1905-0.53022 0.43815 0 0.26035 0.2413 0.36512 0.46038 0.4445 0.16828 0.0635 0.35242 0.13335 0.35242 0.2921 0 0.13335-0.1016 0.2413-0.3048 0.2413-0.18415 0-0.32068-0.0762-0.45402-0.18415z"/>
   <path d="m-20.82 2.2606h0.26035v-1.1176c0.15558-0.15558 0.26352-0.23813 0.42228-0.23813 0.2032 0 0.2921 0.12383 0.2921 0.41275v0.94298h0.26035v-0.9779c0-0.3937-0.14605-0.60325-0.4699-0.60325-0.21272 0-0.3683 0.1143-0.51435 0.254l0.0095-0.3175v-0.61595h-0.26035z"/>
   <path d="m-18.957 0.40005c0.1016 0 0.18098-0.06985 0.18098-0.16828 0-0.1016-0.07938-0.16828-0.18098-0.16828-0.1016 0-0.18098 0.066675-0.18098 0.16828 0 0.098425 0.07937 0.16828 0.18098 0.16828zm-0.13335 1.8606h0.26035v-1.5431h-0.26035z"/>
   <path d="m-18.055 2.1209c0.14288 0.11112 0.28575 0.1778 0.42862 0.1778 0.35242 0 0.66675-0.30798 0.66675-0.83185 0-0.47943-0.21272-0.7874-0.6096-0.7874-0.18098 0-0.35242 0.098425-0.49212 0.2159h-0.0095l-0.02222-0.1778h-0.2159v2.1939h0.26035v-0.5207zm0.0064-0.2032v-0.80962c0.1524-0.13653 0.28258-0.20955 0.41275-0.20955 0.2921 0 0.4064 0.2286 0.4064 0.56833 0 0.381-0.18732 0.61278-0.44132 0.61278-0.1016 0-0.23812-0.04445-0.37782-0.16192z"/>
  </g>
  <g transform="scale(1.0015 .99852)" aria-label="0">
   <path d="m1.9209 48.979c0.47043 0 0.75565-0.4408 0.75565-1.2335 0-0.79269-0.28522-1.2187-0.75565-1.2187-0.47413 0-0.75935 0.42598-0.75935 1.2187 0 0.79269 0.28522 1.2335 0.75935 1.2335zm0-0.24448c-0.27781 0-0.46302-0.29633-0.46302-0.98901 0-0.69268 0.18521-0.9742 0.46302-0.9742 0.27411 0 0.45932 0.28152 0.45932 0.9742 0 0.69268-0.18521 0.98901-0.45932 0.98901z" fill="#e8eaec" stroke-width=".28222px"/>
  </g>
  <g transform="scale(1.0015 .99852)" aria-label="1">
   <path d="m1.2912 6.5384h1.3335v-0.25188h-0.48895v-2.1114h-0.23336c-0.12965 0.077788-0.28522 0.13705-0.50006 0.1741v0.19632h0.42968v1.741h-0.54081z" fill="#e8eaec" stroke-width=".28222px"/>
  </g>
  <g transform="scale(1.0015 .99852)" stroke-width=".28222px" aria-label="Proximity">
   <path d="m38.108 54.499h0.2667v-0.8255h0.37465c0.45402 0 0.76835-0.20638 0.76835-0.64452 0-0.4572-0.30798-0.61278-0.76835-0.61278h-0.64135zm0.2667-1.0414v-0.82868h0.33972c0.35878 0 0.53975 0.09842 0.53975 0.40005 0 0.29528-0.17462 0.42862-0.53975 0.42862z"/>
   <path d="m39.903 54.499h0.26035v-0.9906c0.10478-0.26035 0.26035-0.3556 0.39052-0.3556 0.0635 0 0.09842 0.0095 0.14922 0.0254l0.0508-0.2286c-0.0508-0.02222-0.09842-0.03175-0.1651-0.03175-0.17462 0-0.33338 0.12382-0.43815 0.3175h-0.0095l-0.02222-0.2794h-0.2159z"/>
   <path d="m40.861 53.731c0 0.51118 0.33655 0.80645 0.71438 0.80645s0.71438-0.29528 0.71438-0.80645c0-0.51752-0.33655-0.8128-0.71438-0.8128s-0.71438 0.29528-0.71438 0.8128zm0.26988 0c0-0.3556 0.18098-0.5969 0.4445-0.5969 0.2667 0 0.4445 0.2413 0.4445 0.5969 0 0.35242-0.1778 0.59055-0.4445 0.59055-0.26352 0-0.4445-0.23812-0.4445-0.59055z"/>
   <path d="m42.428 54.499h0.27305l0.20955-0.35878c0.0508-0.09525 0.1016-0.18732 0.15558-0.27622h0.0127c0.05715 0.0889 0.1143 0.18415 0.16828 0.27622l0.22542 0.35878h0.28258l-0.50165-0.77788 0.46672-0.76518h-0.27305l-0.18732 0.33972c-0.04763 0.08255-0.09525 0.17145-0.1397 0.25718h-0.0127c-0.05398-0.08573-0.10478-0.17462-0.1524-0.25718l-0.20638-0.33972h-0.28258l0.46672 0.7366z"/>
   <path d="m44.191 52.638c0.1016 0 0.18098-0.06985 0.18098-0.16828 0-0.1016-0.07938-0.16828-0.18098-0.16828-0.1016 0-0.18098 0.06667-0.18098 0.16828 0 0.09842 0.07937 0.16828 0.18098 0.16828zm-0.13335 1.8606h0.26035v-1.543h-0.26035z"/>
   <path d="m44.839 54.499h0.26035v-1.1176c0.14288-0.15875 0.27305-0.23812 0.38735-0.23812 0.19685 0 0.28892 0.12382 0.28892 0.41275v0.94298h0.26035v-1.1176c0.14288-0.15875 0.2667-0.23812 0.38735-0.23812 0.19368 0 0.28575 0.12382 0.28575 0.41275v0.94298h0.26035v-0.9779c0-0.3937-0.1524-0.60325-0.4699-0.60325-0.18732 0-0.34608 0.12065-0.508 0.29528-0.0635-0.18415-0.1905-0.29528-0.42545-0.29528-0.18415 0-0.34608 0.1143-0.47942 0.26035h-0.0095l-0.02222-0.22225h-0.2159z"/>
   <path d="m47.602 52.638c0.1016 0 0.18098-0.06985 0.18098-0.16828 0-0.1016-0.07937-0.16828-0.18098-0.16828-0.1016 0-0.18098 0.06667-0.18098 0.16828 0 0.09842 0.07937 0.16828 0.18098 0.16828zm-0.13335 1.8606h0.26035v-1.543h-0.26035z"/>
   <path d="m48.294 54.023c0 0.3048 0.11112 0.51435 0.44132 0.51435 0.09525 0 0.20002-0.02857 0.28575-0.05715l-0.0508-0.19685c-0.0508 0.01905-0.12065 0.04127-0.17462 0.04127-0.1778 0-0.23812-0.10795-0.23812-0.29845v-0.85725h0.41592v-0.21272h-0.41592v-0.4318h-0.21908l-0.03175 0.4318-0.2413 0.01588v0.19685h0.2286z"/>
   <path d="m49.218 54.924-0.0508 0.20638c0.0508 0.01905 0.11112 0.03175 0.18098 0.03175 0.31115 0 0.4699-0.23178 0.57785-0.53658l0.58102-1.67h-0.254l-0.27622 0.85408c-0.04127 0.13652-0.08572 0.29528-0.13018 0.43498h-0.0127c-0.04763-0.14288-0.1016-0.30162-0.14922-0.43498l-0.31432-0.85408h-0.26988l0.61912 1.5462-0.03493 0.1143c-0.0635 0.1905-0.17462 0.3302-0.34925 0.3302-0.0381 0-0.08573-0.0127-0.11748-0.02223z"/>
  </g>
  <g transform="scale(1.0015 .99852)" aria-label="0">
   <path d="m9.8467 52.954c0.47043 0 0.75565-0.4408 0.75565-1.2335 0-0.79269-0.28522-1.2187-0.75565-1.2187-0.47413 0-0.75935 0.42598-0.75935 1.2187 0 0.79269 0.28522 1.2335 0.75935 1.2335zm0-0.24448c-0.27781 0-0.46302-0.29633-0.46302-0.98901 0-0.69268 0.18521-0.9742 0.46302-0.9742 0.27411 0 0.45932 0.28152 0.45932 0.9742 0 0.69268-0.18521 0.98901-0.45932 0.98901z" fill="#e8eaec" stroke-width=".28222px"/>
  </g>
  <g transform="scale(1.0015 .99852)" stroke-width=".28222px" aria-label="200 Units">
   <path d="m74.136 52.909h1.5261v-0.263h-0.68527c-0.12224 0-0.2667 0.01111-0.39635 0.02222 0.55933-0.58526 0.96308-1.0261 0.96308-1.4706 0-0.41857-0.2704-0.69638-0.7075-0.69638-0.30745 0-0.51858 0.14446-0.7149 0.3593l0.1741 0.1741c0.13705-0.15928 0.30745-0.28522 0.50377-0.28522 0.30004 0 0.4482 0.19262 0.4482 0.46302 0 0.38153-0.40005 0.80751-1.1113 1.515z"/>
   <path d="m76.747 52.954c0.47043 0 0.75565-0.4408 0.75565-1.2335 0-0.79269-0.28522-1.2187-0.75565-1.2187-0.47413 0-0.75936 0.42598-0.75936 1.2187 0 0.79269 0.28522 1.2335 0.75936 1.2335zm0-0.24448c-0.27781 0-0.46302-0.29633-0.46302-0.98901 0-0.69268 0.18521-0.9742 0.46302-0.9742 0.27411 0 0.45932 0.28152 0.45932 0.9742 0 0.69268-0.18521 0.98901-0.45932 0.98901z"/>
   <path d="m78.585 52.954c0.47043 0 0.75565-0.4408 0.75565-1.2335 0-0.79269-0.28522-1.2187-0.75565-1.2187-0.47413 0-0.75936 0.42598-0.75936 1.2187 0 0.79269 0.28522 1.2335 0.75936 1.2335zm0-0.24448c-0.27781 0-0.46302-0.29633-0.46302-0.98901 0-0.69268 0.18521-0.9742 0.46302-0.9742 0.27411 0 0.45932 0.28152 0.45932 0.9742 0 0.69268-0.18521 0.98901-0.45932 0.98901z"/>
   <path d="m80.557 51.906c0 0.78158 0.37782 1.0483 0.87418 1.0483s0.87418-0.2667 0.87418-1.0483v-1.4261h-0.29633v1.4335c0 0.58526-0.25559 0.77047-0.57785 0.77047-0.31486 0-0.56303-0.18521-0.56303-0.77047v-1.4335h-0.31115z"/>
   <path d="m82.922 52.909h0.30374v-1.3039c0.1815-0.1815 0.30745-0.27781 0.49265-0.27781 0.23707 0 0.34078 0.14446 0.34078 0.48154v1.1001h0.30374v-1.1409c0-0.45932-0.17039-0.70379-0.54822-0.70379-0.24818 0-0.43339 0.13335-0.60378 0.30374h-0.01111l-0.02593-0.25929h-0.25188z"/>
   <path d="m85.103 50.739c0.11853 0 0.21114-0.08149 0.21114-0.19632 0-0.11853-0.0926-0.19632-0.21114-0.19632-0.11853 0-0.21114 0.07779-0.21114 0.19632 0 0.11483 0.0926 0.19632 0.21114 0.19632zm-0.15558 2.1706h0.30374v-1.8002h-0.30374z"/>
   <path d="m85.911 52.354c0 0.3556 0.12965 0.60008 0.51488 0.60008 0.11112 0 0.23336-0.03334 0.33338-0.06667l-0.05927-0.22966c-0.05927 0.02222-0.14076 0.04816-0.20373 0.04816-0.20743 0-0.27781-0.12594-0.27781-0.34819v-1.0001h0.48525v-0.24818h-0.48525v-0.50377h-0.25559l-0.03704 0.50377-0.28152 0.01852v0.22966h0.2667z"/>
   <path d="m86.911 52.706c0.17039 0.14076 0.41487 0.24818 0.67046 0.24818 0.42598 0 0.65934-0.24448 0.65934-0.5371 0-0.34078-0.28892-0.4482-0.54822-0.54451-0.20373-0.07779-0.40005-0.14446-0.40005-0.31115 0-0.13705 0.10372-0.25929 0.32967-0.25929 0.15928 0 0.28892 0.06667 0.41116 0.15928l0.14446-0.19262c-0.13705-0.11112-0.33338-0.20373-0.55933-0.20373-0.38894 0-0.6186 0.22225-0.6186 0.51118 0 0.30374 0.28152 0.42598 0.5371 0.51858 0.19632 0.07408 0.41116 0.15558 0.41116 0.34078 0 0.15558-0.11853 0.28152-0.3556 0.28152-0.21484 0-0.37412-0.0889-0.5297-0.21484z"/>
  </g>
  <g transform="scale(1.0015 .99852)" stroke-width=".28222px" aria-label="Very close">
   <path d="m9.9167 2.2987h0.30798l0.6604-2.0828h-0.26988l-0.33338 1.124c-0.06985 0.24765-0.12382 0.4445-0.20002 0.68898h-0.0127c-0.0762-0.24448-0.127-0.44132-0.20003-0.68898l-0.33655-1.124h-0.2794z"/>
   <path d="m10.974 1.5303c0 0.50482 0.32702 0.80645 0.73978 0.80645 0.20955 0 0.37465-0.073025 0.508-0.15875l-0.09207-0.17145c-0.1143 0.073025-0.23812 0.12065-0.38418 0.12065-0.29528 0-0.4953-0.20955-0.51435-0.54292h1.0414c0.0063-0.0381 0.0095-0.0889 0.0095-0.14288 0-0.44132-0.22225-0.7239-0.61595-0.7239-0.35242 0-0.69215 0.30798-0.69215 0.8128zm0.254-0.11748c0.03175-0.31115 0.2286-0.48895 0.4445-0.48895 0.2413 0 0.381 0.17463 0.381 0.48895z"/>
   <path d="m12.664 2.2987h0.26035v-0.9906c0.10478-0.26035 0.26035-0.3556 0.39052-0.3556 0.0635 0 0.09843 0.009525 0.14922 0.0254l0.0508-0.2286c-0.0508-0.022225-0.09843-0.03175-0.1651-0.03175-0.17462 0-0.33338 0.12382-0.43815 0.3175h-0.0095l-0.02222-0.2794h-0.2159z"/>
   <path d="m13.725 2.7241-0.0508 0.20638c0.0508 0.01905 0.11112 0.03175 0.18098 0.03175 0.31115 0 0.4699-0.23178 0.57785-0.53657l0.58102-1.6701h-0.254l-0.27622 0.85408c-0.04128 0.13652-0.08573 0.29528-0.13018 0.43498h-0.0127c-0.04763-0.14288-0.1016-0.30162-0.14922-0.43498l-0.31432-0.85408h-0.26988l0.61912 1.5462-0.03493 0.1143c-0.0635 0.1905-0.17462 0.3302-0.34925 0.3302-0.0381 0-0.08573-0.0127-0.11748-0.022225z"/>
   <path d="m15.836 1.5303c0 0.51118 0.31432 0.80645 0.7239 0.80645 0.18415 0 0.36195-0.0762 0.50165-0.20002l-0.11748-0.17145c-0.09207 0.08255-0.2159 0.15558-0.36195 0.15558-0.28258 0-0.47625-0.23812-0.47625-0.59055 0-0.3556 0.2032-0.5969 0.4826-0.5969 0.12382 0 0.21908 0.05715 0.31115 0.13653l0.13018-0.16828c-0.10478-0.098425-0.24765-0.18415-0.45085-0.18415-0.39688 0-0.74295 0.29528-0.74295 0.8128z"/>
   <path d="m17.395 1.9875c0 0.22542 0.07937 0.34925 0.27622 0.34925 0.06985 0 0.1143-0.00953 0.14922-0.0254l-0.03492-0.19685c-0.02858 0.00635-0.04128 0.00635-0.05715 0.00635-0.0381 0-0.07303-0.03175-0.07303-0.1143v-1.9685h-0.26035z"/>
   <path d="m18.093 1.5303c0 0.51118 0.33655 0.80645 0.71438 0.80645s0.71438-0.29528 0.71438-0.80645c0-0.51752-0.33655-0.8128-0.71438-0.8128s-0.71438 0.29528-0.71438 0.8128zm0.26988 0c0-0.3556 0.18098-0.5969 0.4445-0.5969 0.2667 0 0.4445 0.2413 0.4445 0.5969 0 0.35242-0.1778 0.59055-0.4445 0.59055-0.26352 0-0.4445-0.23812-0.4445-0.59055z"/>
   <path d="m19.76 2.1241c0.14605 0.12065 0.3556 0.21272 0.57468 0.21272 0.36512 0 0.56515-0.20955 0.56515-0.46038 0-0.2921-0.24765-0.38418-0.4699-0.46672-0.17462-0.066675-0.3429-0.12382-0.3429-0.2667 0-0.11748 0.0889-0.22225 0.28258-0.22225 0.13652 0 0.24765 0.05715 0.35242 0.13653l0.12382-0.1651c-0.11748-0.09525-0.28575-0.17462-0.47942-0.17462-0.33338 0-0.53022 0.1905-0.53022 0.43815 0 0.26035 0.2413 0.36512 0.46038 0.4445 0.16828 0.0635 0.35242 0.13335 0.35242 0.2921 0 0.13335-0.1016 0.2413-0.3048 0.2413-0.18415 0-0.32068-0.0762-0.45402-0.18415z"/>
   <path d="m21.151 1.5303c0 0.50482 0.32702 0.80645 0.73978 0.80645 0.20955 0 0.37465-0.073025 0.508-0.15875l-0.09208-0.17145c-0.1143 0.073025-0.23812 0.12065-0.38418 0.12065-0.29528 0-0.4953-0.20955-0.51435-0.54292h1.0414c0.0064-0.0381 0.0095-0.0889 0.0095-0.14288 0-0.44132-0.22225-0.7239-0.61595-0.7239-0.35242 0-0.69215 0.30798-0.69215 0.8128zm0.254-0.11748c0.03175-0.31115 0.2286-0.48895 0.4445-0.48895 0.2413 0 0.381 0.17463 0.381 0.48895z"/>
  </g>
  <g transform="scale(1.0015 .99852)" stroke-width=".28222px" aria-label="Close">
   <path d="m30.419 1.2573c0 0.67945 0.39052 1.0795 0.9144 1.0795 0.26352 0 0.4699-0.11112 0.63182-0.30162l-0.14922-0.16192c-0.13335 0.14922-0.2794 0.23178-0.47625 0.23178-0.39688 0-0.6477-0.3302-0.6477-0.85408 0-0.51753 0.26352-0.84138 0.6604-0.84138 0.17145 0 0.3048 0.0762 0.41592 0.19368l0.14922-0.16828c-0.12382-0.13652-0.32068-0.25717-0.56832-0.25717-0.5334 0-0.93028 0.40957-0.93028 1.0795z"/>
   <path d="m32.322 1.9875c0 0.22542 0.07937 0.34925 0.27622 0.34925 0.06985 0 0.1143-0.00953 0.14922-0.0254l-0.03493-0.19685c-0.02857 0.00635-0.04127 0.00635-0.05715 0.00635-0.0381 0-0.07303-0.03175-0.07303-0.1143v-1.9685h-0.26035z"/>
   <path d="m33.02 1.5303c0 0.51118 0.33655 0.80645 0.71438 0.80645s0.71438-0.29528 0.71438-0.80645c0-0.51752-0.33655-0.8128-0.71438-0.8128s-0.71438 0.29528-0.71438 0.8128zm0.26988 0c0-0.3556 0.18098-0.5969 0.4445-0.5969 0.2667 0 0.4445 0.2413 0.4445 0.5969 0 0.35242-0.1778 0.59055-0.4445 0.59055-0.26352 0-0.4445-0.23812-0.4445-0.59055z"/>
   <path d="m34.687 2.1241c0.14605 0.12065 0.3556 0.21272 0.57468 0.21272 0.36512 0 0.56515-0.20955 0.56515-0.46038 0-0.2921-0.24765-0.38418-0.4699-0.46672-0.17462-0.066675-0.3429-0.12382-0.3429-0.2667 0-0.11748 0.0889-0.22225 0.28258-0.22225 0.13652 0 0.24765 0.05715 0.35242 0.13653l0.12382-0.1651c-0.11748-0.09525-0.28575-0.17462-0.47942-0.17462-0.33338 0-0.53022 0.1905-0.53022 0.43815 0 0.26035 0.2413 0.36512 0.46038 0.4445 0.16828 0.0635 0.35242 0.13335 0.35242 0.2921 0 0.13335-0.1016 0.2413-0.3048 0.2413-0.18415 0-0.32068-0.0762-0.45402-0.18415z"/>
   <path d="m36.077 1.5303c0 0.50482 0.32702 0.80645 0.73978 0.80645 0.20955 0 0.37465-0.073025 0.508-0.15875l-0.09208-0.17145c-0.1143 0.073025-0.23812 0.12065-0.38418 0.12065-0.29528 0-0.4953-0.20955-0.51435-0.54292h1.0414c0.0064-0.0381 0.0095-0.0889 0.0095-0.14288 0-0.44132-0.22225-0.7239-0.61595-0.7239-0.35242 0-0.69215 0.30798-0.69215 0.8128zm0.254-0.11748c0.03175-0.31115 0.2286-0.48895 0.4445-0.48895 0.2413 0 0.381 0.17463 0.381 0.48895z"/>
  </g>
  <g transform="scale(1.0015 .99852)" stroke-width=".28222px" aria-label="Far">
   <path d="m53.21 2.2987h0.2667v-0.93345h0.79375v-0.22225h-0.79375v-0.70485h0.93662v-0.22225h-1.2033z"/>
   <path d="m54.562 1.8986c0 0.27622 0.19368 0.43815 0.45402 0.43815 0.1905 0 0.36195-0.1016 0.51118-0.22225h0.0063l0.02223 0.18415h0.2159v-0.94615c0-0.38418-0.15875-0.635-0.53658-0.635-0.24765 0-0.46355 0.10795-0.60642 0.20002l0.10478 0.18098c0.12065-0.08255 0.2794-0.1651 0.46038-0.1651 0.25082 0 0.3175 0.1905 0.3175 0.38735-0.65722 0.073025-0.94932 0.2413-0.94932 0.57785zm0.25718-0.01905c0-0.19685 0.17462-0.32385 0.69215-0.38735v0.42862c-0.14922 0.13335-0.27305 0.20638-0.42228 0.20638-0.1524 0-0.26988-0.073025-0.26988-0.24765z"/>
   <path d="m56.263 2.2987h0.26035v-0.9906c0.10478-0.26035 0.26035-0.3556 0.39052-0.3556 0.0635 0 0.09842 0.009525 0.14922 0.0254l0.0508-0.2286c-0.0508-0.022225-0.09842-0.03175-0.1651-0.03175-0.17462 0-0.33338 0.12382-0.43815 0.3175h-0.0095l-0.02222-0.2794h-0.2159z"/>
  </g>
  <g transform="scale(1.0015 .99852)" stroke-width=".28222px" aria-label="Very far">
   <path d="m71.799 2.2987h0.30798l0.6604-2.0828h-0.26988l-0.33338 1.124c-0.06985 0.24765-0.12382 0.4445-0.20002 0.68898h-0.0127c-0.0762-0.24448-0.127-0.44132-0.20002-0.68898l-0.33655-1.124h-0.2794z"/>
   <path d="m72.857 1.5303c0 0.50482 0.32702 0.80645 0.73978 0.80645 0.20955 0 0.37465-0.073025 0.508-0.15875l-0.09208-0.17145c-0.1143 0.073025-0.23812 0.12065-0.38418 0.12065-0.29528 0-0.4953-0.20955-0.51435-0.54292h1.0414c0.0063-0.0381 0.0095-0.0889 0.0095-0.14288 0-0.44132-0.22225-0.7239-0.61595-0.7239-0.35242 0-0.69215 0.30798-0.69215 0.8128zm0.254-0.11748c0.03175-0.31115 0.2286-0.48895 0.4445-0.48895 0.2413 0 0.381 0.17463 0.381 0.48895z"/>
   <path d="m74.546 2.2987h0.26035v-0.9906c0.10478-0.26035 0.26035-0.3556 0.39052-0.3556 0.0635 0 0.09843 0.009525 0.14922 0.0254l0.0508-0.2286c-0.0508-0.022225-0.09842-0.03175-0.1651-0.03175-0.17462 0-0.33338 0.12382-0.43815 0.3175h-0.0095l-0.02222-0.2794h-0.2159z"/>
   <path d="m75.607 2.7241-0.0508 0.20638c0.0508 0.01905 0.11112 0.03175 0.18098 0.03175 0.31115 0 0.4699-0.23178 0.57785-0.53657l0.58102-1.6701h-0.254l-0.27622 0.85408c-0.04127 0.13652-0.08572 0.29528-0.13018 0.43498h-0.0127c-0.04763-0.14288-0.1016-0.30162-0.14922-0.43498l-0.31432-0.85408h-0.26988l0.61912 1.5462-0.03493 0.1143c-0.0635 0.1905-0.17462 0.3302-0.34925 0.3302-0.0381 0-0.08573-0.0127-0.11748-0.022225z"/>
   <path d="m78.585 0.0508c-0.06985-0.028575-0.16192-0.0508-0.25718-0.0508-0.30798 0-0.45085 0.19685-0.45085 0.51117v0.24448l-0.20955 0.015875v0.19685h0.20955v1.3303h0.26035v-1.3303h0.32702v-0.21272h-0.32702v-0.24448c0-0.19685 0.06985-0.29845 0.2159-0.29845 0.05715 0 0.11748 0.0127 0.17462 0.0381z"/>
   <path d="m78.625 1.8986c0 0.27622 0.19368 0.43815 0.45402 0.43815 0.1905 0 0.36195-0.1016 0.51118-0.22225h0.0063l0.02223 0.18415h0.2159v-0.94615c0-0.38418-0.15875-0.635-0.53658-0.635-0.24765 0-0.46355 0.10795-0.60642 0.20002l0.10478 0.18098c0.12065-0.08255 0.2794-0.1651 0.46038-0.1651 0.25082 0 0.3175 0.1905 0.3175 0.38735-0.65722 0.073025-0.94932 0.2413-0.94932 0.57785zm0.25718-0.01905c0-0.19685 0.17462-0.32385 0.69215-0.38735v0.42862c-0.14922 0.13335-0.27305 0.20638-0.42228 0.20638-0.1524 0-0.26988-0.073025-0.26988-0.24765z"/>
   <path d="m80.326 2.2987h0.26035v-0.9906c0.10478-0.26035 0.26035-0.3556 0.39052-0.3556 0.0635 0 0.09842 0.009525 0.14922 0.0254l0.0508-0.2286c-0.0508-0.022225-0.09843-0.03175-0.1651-0.03175-0.17462 0-0.33338 0.12382-0.43815 0.3175h-0.0095l-0.02223-0.2794h-0.2159z"/>
  </g>
 </g>
</svg>
