<?xml version="1.0" encoding="UTF-8"?>
<svg width="239.71mm" height="95.515mm" version="1.1" viewBox="0 0 239.71 95.515" xmlns="http://www.w3.org/2000/svg" xmlns:cc="http://creativecommons.org/ns#" xmlns:dc="http://purl.org/dc/elements/1.1/" xmlns:rdf="http://www.w3.org/1999/02/22-rdf-syntax-ns#">
 <metadata>
  <rdf:RDF>
   <cc:Work rdf:about="">
    <dc:format>image/svg+xml</dc:format>
    <dc:type rdf:resource="http://purl.org/dc/dcmitype/StillImage"/>
    <dc:title/>
   </cc:Work>
  </rdf:RDF>
 </metadata>
 <g stroke-width=".26458">
  <path d="m0.13229 47.757v10.583h33.073v-6.8792l-4.1341-3.7042z" fill="#2f3744" stroke="#7b8694" stroke-linecap="round"/>
  <g fill="#e8eaec" stroke-linecap="round" aria-label="Goal: Attack">
   <path d="m7.3115 53.128c0 0.79269 0.45561 1.2594 1.0927 1.2594 0.32597 0 0.59637-0.12594 0.75565-0.28152v-1.0224h-0.7964v0.25559h0.51488v0.63341c-0.096308 0.0889-0.2667 0.14446-0.4408 0.14446-0.51858 0-0.80751-0.38523-0.80751-0.99642 0-0.60378 0.31485-0.9816 0.80751-0.9816 0.24077 0 0.39264 0.09631 0.51488 0.22596l0.1778-0.19632c-0.14446-0.14817-0.36671-0.30004-0.69638-0.30004-0.65193 0-1.1224 0.47784-1.1224 1.2594z"/>
   <path d="m9.5649 53.447c0 0.59637 0.39264 0.94086 0.83344 0.94086 0.4408 0 0.83344-0.34449 0.83344-0.94086 0-0.60378-0.39264-0.94827-0.83344-0.94827-0.4408 0-0.83344 0.34449-0.83344 0.94827zm0.31485 0c0-0.41487 0.21114-0.69638 0.51858-0.69638 0.31115 0 0.51858 0.28152 0.51858 0.69638 0 0.41116-0.20743 0.68898-0.51858 0.68898-0.30745 0-0.51858-0.27781-0.51858-0.68898z"/>
   <path d="m11.57 53.876c0 0.32226 0.22596 0.51118 0.5297 0.51118 0.22225 0 0.42228-0.11853 0.59637-0.25929h0.0074l0.02593 0.21484h0.25188v-1.1038c0-0.4482-0.18521-0.74083-0.626-0.74083-0.28892 0-0.54081 0.12594-0.7075 0.23336l0.12224 0.21114c0.14076-0.09631 0.32597-0.19262 0.5371-0.19262 0.29263 0 0.37042 0.22225 0.37042 0.45191-0.76676 0.0852-1.1075 0.28152-1.1075 0.67416zm0.30004-0.02222c0-0.22966 0.20373-0.37782 0.80751-0.45191v0.50006c-0.1741 0.15558-0.31856 0.24077-0.49266 0.24077-0.1778 0-0.31485-0.0852-0.31485-0.28892z"/>
   <path d="m13.554 53.98c0 0.263 0.0926 0.40746 0.32226 0.40746 0.08149 0 0.13335-0.01111 0.1741-0.02963l-0.04075-0.22966c-0.03334 0.0074-0.04815 0.0074-0.06668 0.0074-0.04445 0-0.0852-0.03704-0.0852-0.13335v-2.2966h-0.30374z"/>
   <path d="m14.439 52.821c0 0.13705 0.10001 0.22966 0.22225 0.22966 0.11853 0 0.21855-0.0926 0.21855-0.22966 0-0.14076-0.10001-0.23336-0.21855-0.23336-0.12224 0-0.22225 0.0926-0.22225 0.23336zm0 1.3372c0 0.13335 0.10001 0.22966 0.22225 0.22966 0.11853 0 0.21855-0.09631 0.21855-0.22966 0-0.14076-0.10001-0.23707-0.21855-0.23707-0.12224 0-0.22225 0.09631-0.22225 0.23707z"/>
   <path d="m16.488 53.354 0.11853-0.37042c0.0852-0.2704 0.16298-0.5371 0.24077-0.81862h0.01482c0.07779 0.28152 0.15558 0.54822 0.24077 0.81862l0.11483 0.37042zm1.0409 0.98901h0.32597l-0.82233-2.4299h-0.34819l-0.82233 2.4299h0.31486l0.23336-0.74083h0.8853z"/>
   <path d="m18.157 53.787c0 0.3556 0.12965 0.60008 0.51488 0.60008 0.11112 0 0.23336-0.03334 0.33338-0.06668l-0.05927-0.22966c-0.05927 0.02222-0.14076 0.04815-0.20373 0.04815-0.20743 0-0.27781-0.12594-0.27781-0.34819v-1.0001h0.48525v-0.24817h-0.48524v-0.50377h-0.25559l-0.03704 0.50377-0.28152 0.01852v0.22966h0.2667z"/>
   <path d="m19.408 53.787c0 0.3556 0.12965 0.60008 0.51488 0.60008 0.11113 0 0.23336-0.03334 0.33338-0.06668l-0.05927-0.22966c-0.05927 0.02222-0.14076 0.04815-0.20373 0.04815-0.20743 0-0.27781-0.12594-0.27781-0.34819v-1.0001h0.48525v-0.24818h-0.48525v-0.50377h-0.25559l-0.03704 0.50377-0.28152 0.01852v0.22966h0.2667z"/>
   <path d="m20.454 53.876c0 0.32226 0.22596 0.51118 0.5297 0.51118 0.22225 0 0.42228-0.11853 0.59637-0.25929h0.0074l0.02593 0.21484h0.25188v-1.1038c0-0.4482-0.18521-0.74083-0.626-0.74083-0.28892 0-0.54081 0.12594-0.7075 0.23336l0.12224 0.21114c0.14076-0.09631 0.32597-0.19262 0.5371-0.19262 0.29263 0 0.37042 0.22225 0.37042 0.45191-0.76676 0.0852-1.1075 0.28152-1.1075 0.67416zm0.30004-0.02222c0-0.22966 0.20373-0.37782 0.80751-0.45191v0.50006c-0.1741 0.15558-0.31856 0.24077-0.49265 0.24077-0.1778 0-0.31486-0.0852-0.31486-0.28892z"/>
   <path d="m22.305 53.447c0 0.59637 0.36671 0.94086 0.84455 0.94086 0.21484 0 0.42228-0.0889 0.58526-0.23336l-0.13705-0.20002c-0.10742 0.09631-0.25188 0.1815-0.42228 0.1815-0.32967 0-0.55563-0.27781-0.55563-0.68898 0-0.41487 0.23707-0.69638 0.56303-0.69638 0.14446 0 0.25559 0.06668 0.36301 0.15928l0.15187-0.19632c-0.12224-0.11483-0.28893-0.21484-0.52599-0.21484-0.46302 0-0.86678 0.34449-0.86678 0.94827z"/>
   <path d="m24.124 54.343h0.30004v-0.47413l0.33708-0.39264 0.52599 0.86678h0.33338l-0.68527-1.0779 0.60378-0.72231h-0.33708l-0.76676 0.94827h-0.01111v-1.7854h-0.30004z"/>
  </g>
  <rect x="33.205" y="52.387" width="1.3229" height="4.2333" fill="#1d232d" stroke="#6f8ce9" stroke-dashoffset="1.2" stroke-linecap="square" stroke-miterlimit="40"/>
  <g stroke-linecap="round">
   <path d="m55.695 37.174v10.583h33.073v-6.8792l-4.1341-3.7042z" fill="#2f3744" stroke="#7b8694"/>
   <g fill="#e8eaec" aria-label="Reload Weapon">
    <path d="m60.483 41.578h0.40746c0.37783 0 0.58526 0.11483 0.58526 0.43339 0 0.31486-0.20743 0.47043-0.58526 0.47043h-0.40746zm1.3742 2.1818-0.6186-1.0594c0.32967-0.0852 0.54451-0.31115 0.54451-0.68898 0-0.50377-0.3556-0.68157-0.84825-0.68157h-0.76306v2.4299h0.31115v-1.0261h0.43709l0.58526 1.0261z"/>
    <path d="m62.118 42.863c0 0.58896 0.38153 0.94086 0.86307 0.94086 0.24448 0 0.43709-0.0852 0.59267-0.18521l-0.10742-0.20002c-0.13335 0.0852-0.27781 0.14076-0.4482 0.14076-0.34449 0-0.57785-0.24448-0.60008-0.63341h1.215c0.0074-0.04445 0.01111-0.10372 0.01111-0.16669 0-0.51488-0.25929-0.84455-0.71861-0.84455-0.41116 0-0.80751 0.3593-0.80751 0.94827zm0.29633-0.13705c0.03704-0.36301 0.2667-0.57044 0.51858-0.57044 0.28152 0 0.4445 0.20373 0.4445 0.57044z"/>
    <path d="m64.089 43.397c0 0.263 0.0926 0.40746 0.32226 0.40746 0.08149 0 0.13335-0.01111 0.1741-0.02963l-0.04075-0.22966c-0.03334 0.0074-0.04815 0.0074-0.06668 0.0074-0.04445 0-0.0852-0.03704-0.0852-0.13335v-2.2966h-0.30374z"/>
    <path d="m64.903 42.863c0 0.59637 0.39264 0.94086 0.83344 0.94086 0.4408 0 0.83344-0.34449 0.83344-0.94086 0-0.60378-0.39264-0.94827-0.83344-0.94827-0.4408 0-0.83344 0.34449-0.83344 0.94827zm0.31486 0c0-0.41487 0.21114-0.69638 0.51858-0.69638 0.31115 0 0.51858 0.28152 0.51858 0.69638 0 0.41116-0.20743 0.68898-0.51858 0.68898-0.30745 0-0.51858-0.27781-0.51858-0.68898z"/>
    <path d="m66.908 43.293c0 0.32226 0.22595 0.51118 0.5297 0.51118 0.22225 0 0.42228-0.11853 0.59637-0.25929h0.0074l0.02593 0.21484h0.25188v-1.1038c0-0.4482-0.18521-0.74083-0.626-0.74083-0.28892 0-0.54081 0.12594-0.7075 0.23336l0.12224 0.21114c0.14076-0.09631 0.32597-0.19262 0.5371-0.19262 0.29263 0 0.37042 0.22225 0.37042 0.45191-0.76676 0.0852-1.1075 0.28152-1.1075 0.67416zm0.30004-0.02222c0-0.22966 0.20373-0.37782 0.80751-0.45191v0.50006c-0.1741 0.15558-0.31856 0.24077-0.49266 0.24077-0.1778 0-0.31485-0.0852-0.31485-0.28892z"/>
    <path d="m68.763 42.863c0 0.60008 0.29263 0.94086 0.74454 0.94086 0.21114 0 0.40375-0.11853 0.54451-0.25559h0.01111l0.02593 0.21114h0.25188v-2.6374h-0.30745v0.69268l0.01482 0.30745c-0.15928-0.12965-0.29633-0.20743-0.50377-0.20743-0.41116 0-0.78158 0.36301-0.78158 0.94827zm0.31486-0.0037c0-0.41116 0.22966-0.68898 0.51858-0.68898 0.14817 0 0.28522 0.05186 0.43709 0.18891v0.94086c-0.14817 0.16669-0.29263 0.24818-0.45932 0.24818-0.31486 0-0.49636-0.25929-0.49636-0.68898z"/>
    <path d="m71.978 43.76h0.36671l0.36301-1.4631c0.04075-0.18891 0.08149-0.36301 0.12224-0.55192h0.01482c0.03334 0.18891 0.07408 0.36301 0.11483 0.55192l0.36671 1.4631h0.37412l0.50377-2.4299h-0.30004l-0.25559 1.3224c-0.04445 0.25929-0.0889 0.52229-0.13706 0.78528h-0.01482c-0.059266-0.263-0.11853-0.5297-0.1741-0.78528l-0.33708-1.3224h-0.28152l-0.33708 1.3224c-0.05927 0.25929-0.11853 0.52229-0.17039 0.78528h-0.01482c-0.04815-0.263-0.09631-0.52229-0.14446-0.78528l-0.25559-1.3224h-0.31856z"/>
    <path d="m74.453 42.863c0 0.58896 0.38153 0.94086 0.86307 0.94086 0.24448 0 0.43709-0.0852 0.59267-0.18521l-0.10742-0.20002c-0.13335 0.0852-0.27781 0.14076-0.4482 0.14076-0.34449 0-0.57785-0.24448-0.60008-0.63341h1.215c0.0074-0.04445 0.01111-0.10372 0.01111-0.16669 0-0.51488-0.25929-0.84455-0.71861-0.84455-0.41116 0-0.80751 0.3593-0.80751 0.94827zm0.29633-0.13705c0.03704-0.36301 0.2667-0.57044 0.51858-0.57044 0.28152 0 0.4445 0.20373 0.4445 0.57044z"/>
    <path d="m76.284 43.293c0 0.32226 0.22596 0.51118 0.5297 0.51118 0.22225 0 0.42228-0.11853 0.59637-0.25929h0.0074l0.02593 0.21484h0.25188v-1.1038c0-0.4482-0.18521-0.74083-0.626-0.74083-0.28893 0-0.54081 0.12594-0.7075 0.23336l0.12224 0.21114c0.14076-0.09631 0.32597-0.19262 0.5371-0.19262 0.29263 0 0.37042 0.22225 0.37042 0.45191-0.76676 0.0852-1.1075 0.28152-1.1075 0.67416zm0.30004-0.02222c0-0.22966 0.20373-0.37782 0.80751-0.45191v0.50006c-0.1741 0.15558-0.31856 0.24077-0.49265 0.24077-0.1778 0-0.31486-0.0852-0.31486-0.28892z"/>
    <path d="m78.565 43.597c0.16669 0.12965 0.33338 0.20743 0.50006 0.20743 0.41116 0 0.77788-0.3593 0.77788-0.97049 0-0.55933-0.24818-0.91863-0.7112-0.91863-0.21114 0-0.41116 0.11483-0.57415 0.25188h-0.01111l-0.02593-0.20743h-0.25188v2.5596h0.30374v-0.60748zm0.0074-0.23707v-0.94456c0.1778-0.15928 0.32967-0.24448 0.48154-0.24448 0.34078 0 0.47413 0.2667 0.47413 0.66305 0 0.4445-0.21855 0.7149-0.51488 0.7149-0.11853 0-0.27781-0.05186-0.4408-0.18891z"/>
    <path d="m80.19 42.863c0 0.59637 0.39264 0.94086 0.83344 0.94086s0.83344-0.34449 0.83344-0.94086c0-0.60378-0.39264-0.94827-0.83344-0.94827s-0.83344 0.34449-0.83344 0.94827zm0.31485 0c0-0.41487 0.21114-0.69638 0.51858-0.69638 0.31115 0 0.51858 0.28152 0.51858 0.69638 0 0.41116-0.20743 0.68898-0.51858 0.68898-0.30745 0-0.51858-0.27781-0.51858-0.68898z"/>
    <path d="m82.335 43.76h0.30374v-1.3039c0.1815-0.1815 0.30745-0.27781 0.49265-0.27781 0.23707 0 0.34078 0.14446 0.34078 0.48154v1.1001h0.30374v-1.1409c0-0.45932-0.17039-0.70379-0.54822-0.70379-0.24818 0-0.43339 0.13335-0.60378 0.30374h-0.01111l-0.02593-0.25929h-0.25188z"/>
   </g>
   <path d="m55.695 16.007v10.583h33.073v-6.8792l-4.1341-3.7042z" fill="#2f3744" stroke="#7b8694"/>
   <g fill="#e8eaec" aria-label="MoveTo">
    <path d="m66.339 22.593h0.28522v-1.3372c0-0.21484-0.02223-0.50377-0.03704-0.71861h0.01482l0.19262 0.54081 0.46673 1.2705h0.1778l0.46672-1.2705 0.19262-0.54081h0.01482c-0.01482 0.21484-0.04075 0.50377-0.04075 0.71861v1.3372h0.29263v-2.4299h-0.36301l-0.46673 1.3039-0.17039 0.49636h-0.01482l-0.1741-0.49636-0.47043-1.3039h-0.36671z"/>
    <path d="m68.864 21.697c0 0.59637 0.39264 0.94086 0.83344 0.94086s0.83344-0.34449 0.83344-0.94086c0-0.60378-0.39264-0.94827-0.83344-0.94827s-0.83344 0.34449-0.83344 0.94827zm0.31485 0c0-0.41487 0.21114-0.69638 0.51858-0.69638 0.31115 0 0.51858 0.28152 0.51858 0.69638 0 0.41116-0.20743 0.68898-0.51858 0.68898-0.30745 0-0.51858-0.27781-0.51858-0.68898z"/>
    <path d="m71.383 22.593h0.3556l0.63712-1.8002h-0.30004l-0.34078 1.0224c-0.05186 0.1778-0.11112 0.3593-0.16298 0.5297h-0.01482c-0.05556-0.17039-0.11483-0.3519-0.16668-0.5297l-0.34078-1.0224h-0.31486z"/>
    <path d="m72.576 21.697c0 0.58896 0.38153 0.94086 0.86307 0.94086 0.24448 0 0.43709-0.0852 0.59267-0.18521l-0.10742-0.20002c-0.13335 0.0852-0.27781 0.14076-0.4482 0.14076-0.34449 0-0.57785-0.24448-0.60008-0.63341h1.215c0.0074-0.04445 0.01111-0.10372 0.01111-0.16669 0-0.51488-0.25929-0.84455-0.71861-0.84455-0.41116 0-0.80751 0.3593-0.80751 0.94827zm0.29633-0.13705c0.03704-0.36301 0.2667-0.57044 0.51858-0.57044 0.28152 0 0.4445 0.20373 0.4445 0.57044z"/>
    <path d="m74.986 22.593h0.30745v-2.1706h0.73713v-0.25929h-1.7817v0.25929h0.73713z"/>
    <path d="m76.048 21.697c0 0.59637 0.39264 0.94086 0.83344 0.94086s0.83344-0.34449 0.83344-0.94086c0-0.60378-0.39264-0.94827-0.83344-0.94827s-0.83344 0.34449-0.83344 0.94827zm0.31485 0c0-0.41487 0.21114-0.69638 0.51858-0.69638 0.31115 0 0.51858 0.28152 0.51858 0.69638 0 0.41116-0.20743 0.68898-0.51858 0.68898-0.30745 0-0.51858-0.27781-0.51858-0.68898z"/>
   </g>
  </g>
  <rect x="88.768" y="20.637" width="1.3229" height="4.2333" fill="#1d232d" stroke="#6f8ce9" stroke-dashoffset="1.2" stroke-linecap="square" stroke-miterlimit="40"/>
  <path d="m55.695 58.341v10.583h33.073v-6.8792l-4.1341-3.7042z" fill="#2f3744" stroke="#7b8694" stroke-linecap="round"/>
  <g fill="#e8eaec" stroke-linecap="round" aria-label="DrawWeapon">
   <path d="m61.933 64.926h0.6223c0.73343 0 1.1335-0.45191 1.1335-1.2261 0-0.77047-0.40005-1.2039-1.1483-1.2039h-0.60748zm0.31115-0.25188v-1.9262h0.27411c0.57044 0 0.85196 0.34078 0.85196 0.95197 0 0.61489-0.28152 0.9742-0.85196 0.9742z"/>
   <path d="m64.179 64.926h0.30374v-1.1557c0.12224-0.30374 0.30374-0.41487 0.45561-0.41487 0.07408 0 0.11483 0.01111 0.1741 0.02963l0.05927-0.2667c-0.05927-0.02593-0.11483-0.03704-0.19262-0.03704-0.20373 0-0.38894 0.14446-0.51118 0.37042h-0.01111l-0.02593-0.32597h-0.25188z"/>
   <path d="m65.284 64.46c0 0.32226 0.22595 0.51118 0.5297 0.51118 0.22225 0 0.42228-0.11853 0.59637-0.25929h0.0074l0.02593 0.21484h0.25188v-1.1038c0-0.4482-0.18521-0.74083-0.626-0.74083-0.28893 0-0.54081 0.12594-0.7075 0.23336l0.12224 0.21114c0.14076-0.09631 0.32597-0.19262 0.5371-0.19262 0.29263 0 0.37042 0.22225 0.37042 0.45191-0.76676 0.0852-1.1075 0.28152-1.1075 0.67416zm0.30004-0.02223c0-0.22966 0.20373-0.37783 0.80751-0.45191v0.50006c-0.1741 0.15558-0.31856 0.24077-0.49266 0.24077-0.1778 0-0.31486-0.0852-0.31486-0.28892z"/>
   <path d="m67.554 64.926h0.3556l0.25188-0.96308c0.04815-0.17039 0.0852-0.34078 0.12594-0.52229h0.01482c0.04445 0.1815 0.07779 0.34819 0.12224 0.51858l0.25929 0.96679h0.37042l0.48154-1.8002h-0.28892l-0.263 1.0409c-0.03704 0.17039-0.07038 0.33338-0.11112 0.50006h-0.01482c-0.04075-0.16669-0.08149-0.32967-0.12594-0.50006l-0.28152-1.0409h-0.29633l-0.27781 1.0409c-0.04445 0.16669-0.08149 0.33338-0.12224 0.50006h-0.01482c-0.03334-0.16669-0.06667-0.32967-0.10742-0.50006l-0.2667-1.0409h-0.31115z"/>
   <path d="m70.216 64.926h0.36671l0.36301-1.4631c0.04075-0.18891 0.08149-0.36301 0.12224-0.55192h0.01482c0.03334 0.18891 0.07408 0.36301 0.11483 0.55192l0.36671 1.4631h0.37412l0.50377-2.4299h-0.30004l-0.25559 1.3224c-0.04445 0.25929-0.0889 0.52229-0.13706 0.78528h-0.01482c-0.05927-0.263-0.11853-0.5297-0.1741-0.78528l-0.33708-1.3224h-0.28152l-0.33708 1.3224c-0.05927 0.25929-0.11853 0.52229-0.17039 0.78528h-0.01482c-0.04815-0.263-0.09631-0.52229-0.14446-0.78528l-0.25559-1.3224h-0.31856z"/>
   <path d="m72.691 64.03c0 0.58896 0.38153 0.94086 0.86307 0.94086 0.24448 0 0.43709-0.0852 0.59267-0.18521l-0.10742-0.20002c-0.13335 0.0852-0.27781 0.14076-0.4482 0.14076-0.34449 0-0.57785-0.24448-0.60008-0.63341h1.215c0.0074-0.04445 0.01111-0.10372 0.01111-0.16669 0-0.51488-0.25929-0.84455-0.71861-0.84455-0.41116 0-0.80751 0.3593-0.80751 0.94827zm0.29633-0.13705c0.03704-0.36301 0.2667-0.57044 0.51858-0.57044 0.28152 0 0.4445 0.20373 0.4445 0.57044z"/>
   <path d="m74.523 64.46c0 0.32226 0.22595 0.51118 0.5297 0.51118 0.22225 0 0.42228-0.11853 0.59637-0.25929h0.0074l0.02593 0.21484h0.25188v-1.1038c0-0.4482-0.18521-0.74083-0.626-0.74083-0.28893 0-0.54081 0.12594-0.7075 0.23336l0.12224 0.21114c0.14076-0.09631 0.32597-0.19262 0.5371-0.19262 0.29263 0 0.37042 0.22225 0.37042 0.45191-0.76676 0.0852-1.1075 0.28152-1.1075 0.67416zm0.30004-0.02223c0-0.22966 0.20373-0.37783 0.80751-0.45191v0.50006c-0.1741 0.15558-0.31856 0.24077-0.49265 0.24077-0.1778 0-0.31486-0.0852-0.31486-0.28892z"/>
   <path d="m76.803 64.763c0.16669 0.12965 0.33338 0.20743 0.50006 0.20743 0.41116 0 0.77788-0.3593 0.77788-0.97049 0-0.55933-0.24818-0.91863-0.7112-0.91863-0.21114 0-0.41116 0.11483-0.57415 0.25188h-0.01111l-0.02593-0.20743h-0.25188v2.5596h0.30374v-0.60748zm0.0074-0.23707v-0.94456c0.1778-0.15928 0.32967-0.24448 0.48154-0.24448 0.34078 0 0.47413 0.2667 0.47413 0.66305 0 0.4445-0.21855 0.7149-0.51488 0.7149-0.11853 0-0.27781-0.05186-0.4408-0.18891z"/>
   <path d="m78.428 64.03c0 0.59637 0.39264 0.94086 0.83344 0.94086 0.4408 0 0.83344-0.34449 0.83344-0.94086 0-0.60378-0.39264-0.94827-0.83344-0.94827-0.4408 0-0.83344 0.34449-0.83344 0.94827zm0.31486 0c0-0.41487 0.21114-0.69638 0.51858-0.69638 0.31115 0 0.51858 0.28152 0.51858 0.69638 0 0.41116-0.20743 0.68898-0.51858 0.68898-0.30745 0-0.51858-0.27781-0.51858-0.68898z"/>
   <path d="m80.573 64.926h0.30374v-1.3039c0.1815-0.1815 0.30745-0.27781 0.49265-0.27781 0.23707 0 0.34078 0.14446 0.34078 0.48154v1.1001h0.30374v-1.1409c0-0.45932-0.17039-0.70379-0.54822-0.70379-0.24818 0-0.43339 0.13335-0.60378 0.30374h-0.011113l-0.02593-0.25929h-0.25188z"/>
  </g>
  <rect x="88.768" y="62.971" width="1.3229" height="4.2333" fill="#1d232d" stroke="#6f8ce9" stroke-dashoffset="1.2" stroke-linecap="square" stroke-miterlimit="40"/>
  <path d="m55.695 79.507v10.583h33.073v-6.8792l-4.1341-3.7042z" fill="#2f3744" stroke="#7b8694" stroke-linecap="round"/>
  <g fill="#e8eaec" stroke-linecap="round" aria-label="Attack">
   <path d="m67.685 85.104 0.11853-0.37042c0.0852-0.2704 0.16298-0.5371 0.24077-0.81862h0.01482c0.07779 0.28152 0.15558 0.54822 0.24077 0.81862l0.11483 0.37042zm1.0409 0.98901h0.32597l-0.82233-2.4299h-0.34819l-0.82233 2.4299h0.31486l0.23336-0.74083h0.8853z"/>
   <path d="m69.353 85.537c0 0.3556 0.12965 0.60008 0.51488 0.60008 0.11112 0 0.23336-0.03334 0.33338-0.06667l-0.05927-0.22966c-0.05927 0.02222-0.14076 0.04815-0.20373 0.04815-0.20743 0-0.27781-0.12594-0.27781-0.34819v-1.0001h0.48525v-0.24818h-0.48524v-0.50377h-0.25559l-0.03704 0.50377-0.28152 0.01852v0.22966h0.2667z"/>
   <path d="m70.605 85.537c0 0.3556 0.12965 0.60008 0.51488 0.60008 0.11112 0 0.23336-0.03334 0.33338-0.06667l-0.05927-0.22966c-0.05927 0.02222-0.14076 0.04815-0.20373 0.04815-0.20743 0-0.27781-0.12594-0.27781-0.34819v-1.0001h0.48525v-0.24818h-0.48525v-0.50377h-0.25559l-0.03704 0.50377-0.28152 0.01852v0.22966h0.2667z"/>
   <path d="m71.651 85.626c0 0.32226 0.22595 0.51118 0.5297 0.51118 0.22225 0 0.42228-0.11853 0.59637-0.25929h0.0074l0.02593 0.21484h0.25188v-1.1038c0-0.4482-0.18521-0.74083-0.626-0.74083-0.28892 0-0.54081 0.12594-0.7075 0.23336l0.12224 0.21114c0.14076-0.09631 0.32597-0.19262 0.5371-0.19262 0.29263 0 0.37042 0.22225 0.37042 0.45191-0.76676 0.0852-1.1075 0.28152-1.1075 0.67416zm0.30004-0.02223c0-0.22966 0.20373-0.37782 0.80751-0.45191v0.50006c-0.1741 0.15558-0.31856 0.24077-0.49266 0.24077-0.1778 0-0.31485-0.0852-0.31485-0.28892z"/>
   <path d="m73.502 85.197c0 0.59637 0.36671 0.94086 0.84455 0.94086 0.21484 0 0.42228-0.0889 0.58526-0.23336l-0.13706-0.20002c-0.10742 0.09631-0.25188 0.1815-0.42228 0.1815-0.32967 0-0.55563-0.27781-0.55563-0.68898 0-0.41487 0.23707-0.69638 0.56303-0.69638 0.14446 0 0.25559 0.06668 0.36301 0.15928l0.15187-0.19632c-0.12224-0.11483-0.28892-0.21484-0.52599-0.21484-0.46302 0-0.86678 0.34449-0.86678 0.94827z"/>
   <path d="m75.321 86.093h0.30004v-0.47413l0.33708-0.39264 0.52599 0.86678h0.33338l-0.68527-1.0779 0.60378-0.72231h-0.33708l-0.76676 0.94827h-0.01111v-1.7854h-0.30004z"/>
  </g>
 </g>
 <g fill="#1d232d" stroke-width=".26458">
  <g stroke="#6f8ce9" stroke-dashoffset="1.2" stroke-linecap="square" stroke-miterlimit="40">
   <rect x="54.372" y="41.804" width="1.3229" height="4.2333"/>
   <rect x="54.372" y="20.637" width="1.3229" height="4.2333"/>
   <rect x="54.372" y="62.971" width="1.3229" height="4.2333"/>
  </g>
  <rect x="54.372" y="84.137" width="1.3229" height="4.2333" stroke="#7893ea" stroke-dashoffset="1.2" stroke-linecap="square" stroke-miterlimit="40"/>
  <path d="m38.232 61.119v-13.229" stroke="#6f8ce9" stroke-linecap="round"/>
 </g>
 <g fill="#6f8ce9">
  <circle transform="rotate(-90)" cx="-56.356" cy="38.761" r=".52917"/>
  <circle transform="rotate(-90)" cx="-54.504" cy="37.703" r=".52917"/>
  <circle transform="rotate(-90)" cx="-59.796" cy="38.761" r=".52917"/>
  <circle transform="rotate(-90)" cx="-52.652" cy="38.761" r=".52917"/>
  <circle transform="rotate(-90)" cx="-49.212" cy="38.761" r=".52917"/>
 </g>
 <g stroke="#6f8ce9" stroke-linecap="square" stroke-width=".26458">
  <path d="m34.66 54.504h3.175" fill="#7893ea"/>
  <path d="m38.894 49.212h4.7625v-26.458h10.583" fill="none"/>
  <ellipse transform="scale(-1,1)" cx="-43.656" cy="22.754" rx=".66146" ry=".66146" fill="#1d232d" stroke-dashoffset="1.2" stroke-miterlimit="40"/>
  <path d="m38.894 52.652h7.4083v-8.7312h7.9375" fill="none"/>
  <ellipse transform="scale(-1,1)" cx="-46.302" cy="43.921" rx=".66146" ry=".66146" fill="#1d232d" stroke-dashoffset="1.2" stroke-miterlimit="40"/>
  <path d="m38.894 59.928h4.7625v26.458h10.583" fill="none"/>
  <ellipse transform="scale(-1)" cx="-43.656" cy="-86.386" rx=".66146" ry=".66146" fill="#1d232d" stroke-dashoffset="1.2" stroke-miterlimit="40"/>
  <path d="m38.894 56.489h7.4083v8.7312h7.9375" fill="none"/>
 </g>
 <g stroke-width=".26458">
  <ellipse transform="scale(-1)" cx="-46.302" cy="-65.22" rx=".66146" ry=".66146" fill="#1d232d" stroke="#6f8ce9" stroke-dashoffset="1.2" stroke-linecap="square" stroke-miterlimit="40"/>
  <path d="m105.97 16.007v10.583h33.073v-6.8792l-4.1341-3.7042z" fill="#2f3744" stroke="#7b8694" stroke-linecap="round"/>
  <g fill="#e8eaec" stroke-linecap="round" aria-label="DrawWeapon">
   <path d="m112.2 22.593h0.6223c0.73343 0 1.1335-0.45191 1.1335-1.2261 0-0.77047-0.40005-1.2039-1.1483-1.2039h-0.60749zm0.31115-0.25188v-1.9262h0.27411c0.57044 0 0.85196 0.34078 0.85196 0.95197 0 0.61489-0.28152 0.9742-0.85196 0.9742z"/>
   <path d="m114.45 22.593h0.30375v-1.1557c0.12223-0.30374 0.30374-0.41487 0.45561-0.41487 0.0741 0 0.11483 0.01111 0.1741 0.02963l0.0593-0.2667c-0.0593-0.02593-0.11483-0.03704-0.19261-0.03704-0.20373 0-0.38894 0.14446-0.51118 0.37042h-0.0111l-0.0259-0.32597h-0.25189z"/>
   <path d="m115.55 22.126c0 0.32226 0.22596 0.51118 0.5297 0.51118 0.22225 0 0.42227-0.11853 0.59637-0.25929h7e-3l0.0259 0.21484h0.25188v-1.1038c0-0.4482-0.18521-0.74083-0.626-0.74083-0.28893 0-0.54081 0.12594-0.7075 0.23336l0.12224 0.21114c0.14075-0.09631 0.32596-0.19262 0.5371-0.19262 0.29263 0 0.37042 0.22225 0.37042 0.45191-0.76677 0.0852-1.1076 0.28152-1.1076 0.67416zm0.30004-0.02222c0-0.22966 0.20373-0.37782 0.80751-0.45191v0.50006c-0.1741 0.15558-0.31856 0.24077-0.49266 0.24077-0.1778 0-0.31485-0.0852-0.31485-0.28892z"/>
   <path d="m117.82 22.593h0.3556l0.25188-0.96308c0.0481-0.17039 0.0852-0.34078 0.12594-0.52229h0.0148c0.0444 0.1815 0.0778 0.34819 0.12224 0.51858l0.25929 0.96679h0.37041l0.48155-1.8002h-0.28893l-0.263 1.0409c-0.037 0.17039-0.0704 0.33338-0.11112 0.50006h-0.0148c-0.0407-0.16669-0.0815-0.32967-0.12594-0.50006l-0.28152-1.0409h-0.29633l-0.27781 1.0409c-0.0445 0.16669-0.0815 0.33338-0.12224 0.50006h-0.0148c-0.0333-0.16669-0.0667-0.32967-0.10742-0.50006l-0.2667-1.0409h-0.31115z"/>
   <path d="m120.49 22.593h0.36671l0.36301-1.4631c0.0407-0.18891 0.0815-0.36301 0.12224-0.55192h0.0148c0.0333 0.18891 0.0741 0.36301 0.11483 0.55192l0.36672 1.4631h0.37412l0.50376-2.4299h-0.30003l-0.25559 1.3224c-0.0444 0.25929-0.0889 0.52229-0.13706 0.78528h-0.0148c-0.0593-0.263-0.11854-0.5297-0.1741-0.78528l-0.33708-1.3224h-0.28152l-0.33707 1.3224c-0.0593 0.25929-0.11854 0.52229-0.1704 0.78528h-0.0148c-0.0482-0.263-0.0963-0.52229-0.14447-0.78528l-0.25558-1.3224h-0.31856z"/>
   <path d="m122.96 21.697c0 0.58896 0.38153 0.94086 0.86307 0.94086 0.24448 0 0.43709-0.0852 0.59267-0.18521l-0.10742-0.20002c-0.13335 0.0852-0.27782 0.14076-0.44821 0.14076-0.34449 0-0.57785-0.24448-0.60007-0.63341h1.215c7e-3 -0.04445 0.0111-0.10372 0.0111-0.16669 0-0.51488-0.25929-0.84455-0.71861-0.84455-0.41116 0-0.80751 0.3593-0.80751 0.94827zm0.29633-0.13705c0.037-0.36301 0.2667-0.57044 0.51859-0.57044 0.28151 0 0.4445 0.20373 0.4445 0.57044z"/>
   <path d="m124.79 22.126c0 0.32226 0.22596 0.51118 0.5297 0.51118 0.22225 0 0.42227-0.11853 0.59637-0.25929h7e-3l0.0259 0.21484h0.25188v-1.1038c0-0.4482-0.18521-0.74083-0.626-0.74083-0.28893 0-0.54081 0.12594-0.7075 0.23336l0.12224 0.21114c0.14076-0.09631 0.32596-0.19262 0.5371-0.19262 0.29263 0 0.37042 0.22225 0.37042 0.45191-0.76676 0.0852-1.1076 0.28152-1.1076 0.67416zm0.30004-0.02222c0-0.22966 0.20373-0.37782 0.80751-0.45191v0.50006c-0.1741 0.15558-0.31856 0.24077-0.49266 0.24077-0.1778 0-0.31485-0.0852-0.31485-0.28892z"/>
   <path d="m127.07 22.43c0.16669 0.12965 0.33337 0.20743 0.50006 0.20743 0.41116 0 0.77788-0.3593 0.77788-0.97049 0-0.55933-0.24818-0.91863-0.7112-0.91863-0.21114 0-0.41117 0.11483-0.57415 0.25188h-0.0111l-0.0259-0.20743h-0.25189v2.5596h0.30375v-0.60748zm7e-3 -0.23707v-0.94456c0.1778-0.15928 0.32967-0.24448 0.48154-0.24448 0.34078 0 0.47413 0.2667 0.47413 0.66305 0 0.4445-0.21854 0.7149-0.51488 0.7149-0.11853 0-0.27781-0.05186-0.44079-0.18891z"/>
   <path d="m128.7 21.697c0 0.59637 0.39264 0.94086 0.83344 0.94086s0.83344-0.34449 0.83344-0.94086c0-0.60378-0.39264-0.94827-0.83344-0.94827s-0.83344 0.34449-0.83344 0.94827zm0.31486 0c0-0.41487 0.21113-0.69638 0.51858-0.69638 0.31115 0 0.51858 0.28152 0.51858 0.69638 0 0.41116-0.20743 0.68898-0.51858 0.68898-0.30745 0-0.51858-0.27781-0.51858-0.68898z"/>
   <path d="m130.84 22.593h0.30374v-1.3039c0.18151-0.1815 0.30745-0.27781 0.49266-0.27781 0.23706 0 0.34078 0.14446 0.34078 0.48154v1.1001h0.30374v-1.1409c0-0.45932-0.17039-0.70379-0.54821-0.70379-0.24818 0-0.43339 0.13335-0.60378 0.30374h-0.0111l-0.0259-0.25929h-0.25188z"/>
  </g>
  <rect x="139.04" y="20.637" width="1.3229" height="4.2333" fill="#1d232d" stroke="#6f8ce9" stroke-dashoffset="1.2" stroke-linecap="square" stroke-miterlimit="40"/>
  <rect x="104.64" y="20.637" width="1.3229" height="4.2333" fill="#1d232d" stroke="#6f8ce9" stroke-dashoffset="1.2" stroke-linecap="square" stroke-miterlimit="40"/>
  <path d="m105.97 31.882v10.583h33.073v-6.8792l-4.1341-3.7042z" fill="#2f3744" stroke="#7b8694" stroke-linecap="round"/>
  <g fill="#e8eaec" stroke-linecap="round" aria-label="Attack">
   <path d="m117.96 37.479 0.11853-0.37042c0.0852-0.2704 0.16299-0.5371 0.24077-0.81862h0.0148c0.0778 0.28152 0.15557 0.54822 0.24077 0.81862l0.11483 0.37042zm1.0409 0.98901h0.32597l-0.82233-2.4299h-0.34819l-0.82233 2.4299h0.31486l0.23336-0.74083h0.8853z"/>
   <path d="m119.62 37.912c0 0.3556 0.12964 0.60008 0.51488 0.60008 0.11112 0 0.23336-0.03334 0.33337-0.06668l-0.0593-0.22966c-0.0593 0.02222-0.14075 0.04815-0.20373 0.04815-0.20743 0-0.27781-0.12594-0.27781-0.34819v-1.0001h0.48525v-0.24818h-0.48525v-0.50377h-0.25559l-0.037 0.50377-0.28151 0.01852v0.22966h0.2667z"/>
   <path d="m120.88 37.912c0 0.3556 0.12965 0.60008 0.51488 0.60008 0.11112 0 0.23336-0.03334 0.33337-0.06668l-0.0593-0.22966c-0.0593 0.02222-0.14076 0.04815-0.20373 0.04815-0.20743 0-0.27781-0.12594-0.27781-0.34819v-1.0001h0.48524v-0.24818h-0.48524v-0.50377h-0.25559l-0.037 0.50377-0.28152 0.01852v0.22966h0.2667z"/>
   <path d="m121.92 38.001c0 0.32226 0.22596 0.51118 0.5297 0.51118 0.22225 0 0.42228-0.11853 0.59637-0.25929h7e-3l0.0259 0.21484h0.25188v-1.1038c0-0.4482-0.18521-0.74083-0.626-0.74083-0.28893 0-0.54081 0.12594-0.7075 0.23336l0.12224 0.21114c0.14076-0.09631 0.32597-0.19262 0.5371-0.19262 0.29263 0 0.37042 0.22225 0.37042 0.45191-0.76676 0.0852-1.1076 0.28152-1.1076 0.67416zm0.30004-0.02222c0-0.22966 0.20373-0.37782 0.80751-0.45191v0.50006c-0.1741 0.15558-0.31856 0.24077-0.49265 0.24077-0.1778 0-0.31486-0.0852-0.31486-0.28892z"/>
   <path d="m123.77 37.572c0 0.59637 0.36671 0.94086 0.84455 0.94086 0.21484 0 0.42227-0.0889 0.58526-0.23336l-0.13706-0.20002c-0.10742 0.09631-0.25188 0.1815-0.42227 0.1815-0.32967 0-0.55563-0.27781-0.55563-0.68898 0-0.41487 0.23707-0.69638 0.56303-0.69638 0.14447 0 0.25559 0.06668 0.36301 0.15928l0.15187-0.19632c-0.12223-0.11483-0.28892-0.21484-0.52599-0.21484-0.46302 0-0.86677 0.34449-0.86677 0.94827z"/>
   <path d="m125.59 38.468h0.30004v-0.47413l0.33708-0.39264 0.52599 0.86678h0.33338l-0.68527-1.0779 0.60378-0.72231h-0.33708l-0.76677 0.94827h-0.0111v-1.7854h-0.30004z"/>
  </g>
  <rect x="104.64" y="36.512" width="1.3229" height="4.2333" fill="#1d232d" stroke="#7893ea" stroke-dashoffset="1.2" stroke-linecap="square" stroke-miterlimit="40"/>
  <path d="m105.97 0.13229v10.583h33.073v-6.8792l-4.1341-3.7042z" fill="#2f3744" stroke="#7b8694" stroke-linecap="round"/>
  <g fill="#e8eaec" stroke-linecap="round" aria-label="Reload Weapon">
   <path d="m110.75 4.5362h0.40746c0.37783 0 0.58526 0.11483 0.58526 0.43339 0 0.31485-0.20743 0.47043-0.58526 0.47043h-0.40746zm1.3742 2.1818-0.6186-1.0594c0.32967-0.085196 0.54451-0.31115 0.54451-0.68898 0-0.50377-0.3556-0.68157-0.84825-0.68157h-0.76306v2.4299h0.31115v-1.0261h0.43709l0.58526 1.0261z"/>
   <path d="m112.39 5.8215c0 0.58896 0.38152 0.94086 0.86307 0.94086 0.24447 0 0.43709-0.085196 0.59266-0.18521l-0.10742-0.20003c-0.13335 0.085196-0.27781 0.14076-0.4482 0.14076-0.34449 0-0.57785-0.24448-0.60008-0.63341h1.215c7e-3 -0.04445 0.0111-0.10372 0.0111-0.16669 0-0.51488-0.25929-0.84455-0.71861-0.84455-0.41116 0-0.8075 0.3593-0.8075 0.94827zm0.29633-0.13705c0.037-0.36301 0.2667-0.57044 0.51858-0.57044 0.28152 0 0.4445 0.20373 0.4445 0.57044z"/>
   <path d="m114.36 6.3549c0 0.263 0.0926 0.40746 0.32226 0.40746 0.0815 0 0.13335-0.011113 0.1741-0.029633l-0.0407-0.22966c-0.0333 0.00741-0.0482 0.00741-0.0667 0.00741-0.0444 0-0.0852-0.037042-0.0852-0.13335v-2.2966h-0.30374z"/>
   <path d="m115.17 5.8215c0 0.59637 0.39264 0.94086 0.83344 0.94086 0.44079 0 0.83343-0.34449 0.83343-0.94086 0-0.60378-0.39264-0.94827-0.83343-0.94827-0.4408 0-0.83344 0.34449-0.83344 0.94827zm0.31485 0c0-0.41487 0.21114-0.69638 0.51859-0.69638 0.31115 0 0.51858 0.28152 0.51858 0.69638 0 0.41116-0.20743 0.68898-0.51858 0.68898-0.30745 0-0.51859-0.27781-0.51859-0.68898z"/>
   <path d="m117.18 6.2512c0 0.32226 0.22596 0.51118 0.5297 0.51118 0.22225 0 0.42227-0.11853 0.59637-0.25929h7e-3l0.0259 0.21484h0.25188v-1.1038c0-0.4482-0.18521-0.74083-0.626-0.74083-0.28893 0-0.54081 0.12594-0.7075 0.23336l0.12224 0.21114c0.14076-0.096308 0.32597-0.19262 0.5371-0.19262 0.29263 0 0.37042 0.22225 0.37042 0.45191-0.76676 0.085196-1.1076 0.28152-1.1076 0.67416zm0.30004-0.022225c0-0.22966 0.20373-0.37783 0.80751-0.45191v0.50006c-0.1741 0.15558-0.31856 0.24077-0.49265 0.24077-0.1778 0-0.31486-0.085196-0.31486-0.28893z"/>
   <path d="m119.03 5.8215c0 0.60008 0.29263 0.94086 0.74454 0.94086 0.21114 0 0.40375-0.11853 0.54451-0.25559h0.0111l0.0259 0.21114h0.25189v-2.6374h-0.30745v0.69268l0.0148 0.30745c-0.15928-0.12965-0.29634-0.20743-0.50377-0.20743-0.41116 0-0.78158 0.36301-0.78158 0.94827zm0.31486-0.0037c0-0.41116 0.22965-0.68898 0.51858-0.68898 0.14817 0 0.28522 0.051858 0.43709 0.18891v0.94086c-0.14817 0.16669-0.29263 0.24818-0.45932 0.24818-0.31485 0-0.49635-0.25929-0.49635-0.68898z"/>
   <path d="m122.25 6.7179h0.36671l0.36301-1.4631c0.0407-0.18891 0.0815-0.36301 0.12224-0.55192h0.0148c0.0333 0.18891 0.0741 0.36301 0.11482 0.55192l0.36672 1.4631h0.37412l0.50377-2.4299h-0.30004l-0.25559 1.3224c-0.0445 0.25929-0.0889 0.52229-0.13705 0.78528h-0.0148c-0.0593-0.263-0.11853-0.5297-0.1741-0.78528l-0.33708-1.3224h-0.28151l-0.33708 1.3224c-0.0593 0.25929-0.11854 0.52229-0.17039 0.78528h-0.0148c-0.0482-0.263-0.0963-0.52229-0.14446-0.78528l-0.25559-1.3224h-0.31856z"/>
   <path d="m124.72 5.8215c0 0.58896 0.38153 0.94086 0.86307 0.94086 0.24448 0 0.43709-0.085196 0.59267-0.18521l-0.10742-0.20003c-0.13335 0.085196-0.27781 0.14076-0.44821 0.14076-0.34448 0-0.57785-0.24448-0.60007-0.63341h1.215c7e-3 -0.04445 0.0111-0.10372 0.0111-0.16669 0-0.51488-0.25929-0.84455-0.71861-0.84455-0.41116 0-0.80751 0.3593-0.80751 0.94827zm0.29633-0.13705c0.0371-0.36301 0.2667-0.57044 0.51859-0.57044 0.28152 0 0.4445 0.20373 0.4445 0.57044z"/>
   <path d="m126.56 6.2512c0 0.32226 0.22596 0.51118 0.5297 0.51118 0.22225 0 0.42227-0.11853 0.59637-0.25929h7e-3l0.0259 0.21484h0.25188v-1.1038c0-0.4482-0.18521-0.74083-0.626-0.74083-0.28893 0-0.54081 0.12594-0.7075 0.23336l0.12224 0.21114c0.14076-0.096308 0.32597-0.19262 0.5371-0.19262 0.29263 0 0.37042 0.22225 0.37042 0.45191-0.76676 0.085196-1.1076 0.28152-1.1076 0.67416zm0.30004-0.022225c0-0.22966 0.20373-0.37783 0.80751-0.45191v0.50006c-0.1741 0.15558-0.31856 0.24077-0.49265 0.24077-0.1778 0-0.31486-0.085196-0.31486-0.28893z"/>
   <path d="m128.84 6.5549c0.16669 0.12965 0.33338 0.20743 0.50006 0.20743 0.41117 0 0.77788-0.3593 0.77788-0.97049 0-0.55933-0.24818-0.91863-0.7112-0.91863-0.21114 0-0.41116 0.11483-0.57415 0.25188h-0.0111l-0.0259-0.20743h-0.25188v2.5596h0.30374v-0.60748zm7e-3 -0.23707v-0.94456c0.1778-0.15928 0.32967-0.24448 0.48154-0.24448 0.34079 0 0.47414 0.2667 0.47414 0.66305 0 0.4445-0.21855 0.7149-0.51488 0.7149-0.11854 0-0.27782-0.051858-0.4408-0.18891z"/>
   <path d="m130.46 5.8215c0 0.59637 0.39264 0.94086 0.83344 0.94086s0.83344-0.34449 0.83344-0.94086c0-0.60378-0.39264-0.94827-0.83344-0.94827s-0.83344 0.34449-0.83344 0.94827zm0.31486 0c0-0.41487 0.21113-0.69638 0.51858-0.69638 0.31115 0 0.51858 0.28152 0.51858 0.69638 0 0.41116-0.20743 0.68898-0.51858 0.68898-0.30745 0-0.51858-0.27781-0.51858-0.68898z"/>
   <path d="m132.61 6.7179h0.30374v-1.3039c0.18151-0.1815 0.30745-0.27781 0.49266-0.27781 0.23707 0 0.34078 0.14446 0.34078 0.48154v1.1001h0.30374v-1.1409c0-0.45932-0.17039-0.70379-0.54821-0.70379-0.24818 0-0.43339 0.13335-0.60378 0.30374h-0.0111l-0.0259-0.25929h-0.25189z"/>
  </g>
  <rect x="104.64" y="4.7625" width="1.3229" height="4.2333" fill="#1d232d" stroke="#6f8ce9" stroke-dashoffset="1.2" stroke-linecap="square" stroke-miterlimit="40"/>
  <path d="m156.24 16.007v10.583h33.073v-6.8792l-4.1341-3.7042z" fill="#2f3744" stroke="#7b8694" stroke-linecap="round"/>
  <g fill="#e8eaec" stroke-linecap="round" aria-label="Reload Weapon">
   <path d="m161.02 20.411h0.40746c0.37783 0 0.58526 0.11483 0.58526 0.43339 0 0.31486-0.20743 0.47043-0.58526 0.47043h-0.40746zm1.3742 2.1818-0.6186-1.0594c0.32967-0.0852 0.54452-0.31115 0.54452-0.68898 0-0.50377-0.3556-0.68157-0.84826-0.68157h-0.76306v2.4299h0.31115v-1.0261h0.43709l0.58526 1.0261z"/>
   <path d="m162.66 21.697c0 0.58896 0.38153 0.94086 0.86307 0.94086 0.24447 0 0.43709-0.0852 0.59266-0.18521l-0.10742-0.20002c-0.13335 0.0852-0.27781 0.14076-0.4482 0.14076-0.34449 0-0.57785-0.24448-0.60008-0.63341h1.215c7e-3 -0.04445 0.0111-0.10372 0.0111-0.16669 0-0.51488-0.25929-0.84455-0.71861-0.84455-0.41116 0-0.8075 0.3593-0.8075 0.94827zm0.29633-0.13705c0.037-0.36301 0.2667-0.57044 0.51858-0.57044 0.28152 0 0.4445 0.20373 0.4445 0.57044z"/>
   <path d="m164.63 22.23c0 0.263 0.0926 0.40746 0.32226 0.40746 0.0815 0 0.13335-0.01111 0.1741-0.02963l-0.0408-0.22966c-0.0333 0.0074-0.0481 0.0074-0.0667 0.0074-0.0444 0-0.0852-0.03704-0.0852-0.13335v-2.2966h-0.30374z"/>
   <path d="m165.44 21.697c0 0.59637 0.39264 0.94086 0.83344 0.94086 0.44079 0 0.83343-0.34449 0.83343-0.94086 0-0.60378-0.39264-0.94827-0.83343-0.94827-0.4408 0-0.83344 0.34449-0.83344 0.94827zm0.31485 0c0-0.41487 0.21114-0.69638 0.51859-0.69638 0.31115 0 0.51858 0.28152 0.51858 0.69638 0 0.41116-0.20743 0.68898-0.51858 0.68898-0.30745 0-0.51859-0.27781-0.51859-0.68898z"/>
   <path d="m167.45 22.126c0 0.32226 0.22596 0.51118 0.5297 0.51118 0.22225 0 0.42228-0.11853 0.59637-0.25929h7e-3l0.0259 0.21484h0.25188v-1.1038c0-0.4482-0.18521-0.74083-0.626-0.74083-0.28893 0-0.54081 0.12594-0.7075 0.23336l0.12224 0.21114c0.14076-0.09631 0.32597-0.19262 0.5371-0.19262 0.29263 0 0.37042 0.22225 0.37042 0.45191-0.76676 0.0852-1.1076 0.28152-1.1076 0.67416zm0.30004-0.02222c0-0.22966 0.20373-0.37782 0.80751-0.45191v0.50006c-0.1741 0.15558-0.31856 0.24077-0.49265 0.24077-0.1778 0-0.31486-0.0852-0.31486-0.28892z"/>
   <path d="m169.3 21.697c0 0.60008 0.29263 0.94086 0.74454 0.94086 0.21114 0 0.40375-0.11853 0.54451-0.25559h0.0111l0.0259 0.21114h0.25189v-2.6374h-0.30745v0.69268l0.0148 0.30745c-0.15928-0.12965-0.29634-0.20743-0.50377-0.20743-0.41116 0-0.78158 0.36301-0.78158 0.94827zm0.31486-0.0037c0-0.41116 0.22965-0.68898 0.51858-0.68898 0.14817 0 0.28522 0.05186 0.43709 0.18891v0.94086c-0.14816 0.16669-0.29263 0.24818-0.45932 0.24818-0.31485 0-0.49635-0.25929-0.49635-0.68898z"/>
   <path d="m172.52 22.593h0.36671l0.36301-1.4631c0.0408-0.18891 0.0815-0.36301 0.12224-0.55192h0.0148c0.0333 0.18891 0.0741 0.36301 0.11483 0.55192l0.36671 1.4631h0.37412l0.50377-2.4299h-0.30004l-0.25559 1.3224c-0.0445 0.25929-0.0889 0.52229-0.13705 0.78528h-0.0148c-0.0593-0.263-0.11853-0.5297-0.1741-0.78528l-0.33708-1.3224h-0.28151l-0.33708 1.3224c-0.0593 0.25929-0.11854 0.52229-0.17039 0.78528h-0.0148c-0.0482-0.263-0.0963-0.52229-0.14446-0.78528l-0.25559-1.3224h-0.31856z"/>
   <path d="m174.99 21.697c0 0.58896 0.38153 0.94086 0.86307 0.94086 0.24448 0 0.4371-0.0852 0.59267-0.18521l-0.10742-0.20002c-0.13335 0.0852-0.27781 0.14076-0.44821 0.14076-0.34448 0-0.57785-0.24448-0.60007-0.63341h1.215c7e-3 -0.04445 0.0111-0.10372 0.0111-0.16669 0-0.51488-0.25929-0.84455-0.71861-0.84455-0.41116 0-0.80751 0.3593-0.80751 0.94827zm0.29634-0.13705c0.037-0.36301 0.2667-0.57044 0.51858-0.57044 0.28152 0 0.4445 0.20373 0.4445 0.57044z"/>
   <path d="m176.83 22.126c0 0.32226 0.22596 0.51118 0.5297 0.51118 0.22225 0 0.42228-0.11853 0.59637-0.25929h7e-3l0.0259 0.21484h0.25188v-1.1038c0-0.4482-0.18521-0.74083-0.626-0.74083-0.28893 0-0.54081 0.12594-0.7075 0.23336l0.12224 0.21114c0.14076-0.09631 0.32597-0.19262 0.5371-0.19262 0.29263 0 0.37042 0.22225 0.37042 0.45191-0.76676 0.0852-1.1076 0.28152-1.1076 0.67416zm0.30004-0.02222c0-0.22966 0.20373-0.37782 0.80751-0.45191v0.50006c-0.1741 0.15558-0.31856 0.24077-0.49265 0.24077-0.1778 0-0.31486-0.0852-0.31486-0.28892z"/>
   <path d="m179.11 22.43c0.16669 0.12965 0.33338 0.20743 0.50006 0.20743 0.41117 0 0.77788-0.3593 0.77788-0.97049 0-0.55933-0.24818-0.91863-0.7112-0.91863-0.21114 0-0.41116 0.11483-0.57415 0.25188h-0.0111l-0.0259-0.20743h-0.25188v2.5596h0.30374v-0.60748zm7e-3 -0.23707v-0.94456c0.1778-0.15928 0.32967-0.24448 0.48154-0.24448 0.34079 0 0.47414 0.2667 0.47414 0.66305 0 0.4445-0.21855 0.7149-0.51488 0.7149-0.11854 0-0.27782-0.05186-0.4408-0.18891z"/>
   <path d="m180.73 21.697c0 0.59637 0.39265 0.94086 0.83344 0.94086 0.4408 0 0.83344-0.34449 0.83344-0.94086 0-0.60378-0.39264-0.94827-0.83344-0.94827-0.44079 0-0.83344 0.34449-0.83344 0.94827zm0.31486 0c0-0.41487 0.21114-0.69638 0.51858-0.69638 0.31115 0 0.51859 0.28152 0.51859 0.69638 0 0.41116-0.20744 0.68898-0.51859 0.68898-0.30744 0-0.51858-0.27781-0.51858-0.68898z"/>
   <path d="m182.88 22.593h0.30374v-1.3039c0.18151-0.1815 0.30745-0.27781 0.49266-0.27781 0.23707 0 0.34078 0.14446 0.34078 0.48154v1.1001h0.30374v-1.1409c0-0.45932-0.17039-0.70379-0.54821-0.70379-0.24818 0-0.43339 0.13335-0.60378 0.30374h-0.0111l-0.0259-0.25929h-0.25189z"/>
  </g>
  <rect x="189.31" y="20.637" width="1.3229" height="4.2333" fill="#1d232d" stroke="#6f8ce9" stroke-dashoffset="1.2" stroke-linecap="square" stroke-miterlimit="40"/>
  <rect x="154.91" y="20.637" width="1.3229" height="4.2333" fill="#1d232d" stroke="#6f8ce9" stroke-dashoffset="1.2" stroke-linecap="square" stroke-miterlimit="40"/>
  <path d="m206.51 16.007v10.583h33.073v-6.8792l-4.1341-3.7042z" fill="#2f3744" stroke="#7b8694" stroke-linecap="round"/>
  <g fill="#e8eaec" stroke-linecap="round" aria-label="Attack">
   <path d="m218.5 21.604 0.11854-0.37042c0.0852-0.2704 0.16298-0.5371 0.24077-0.81862h0.0148c0.0778 0.28152 0.15558 0.54822 0.24077 0.81862l0.11483 0.37042zm1.0409 0.98901h0.32597l-0.82232-2.4299h-0.3482l-0.82232 2.4299h0.31485l0.23337-0.74083h0.88529z"/>
   <path d="m220.17 22.037c0 0.3556 0.12965 0.60008 0.51488 0.60008 0.11112 0 0.23336-0.03334 0.33337-0.06668l-0.0593-0.22966c-0.0593 0.02222-0.14076 0.04815-0.20373 0.04815-0.20744 0-0.27781-0.12594-0.27781-0.34819v-1.0001h0.48524v-0.24817h-0.48524v-0.50377h-0.25559l-0.037 0.50377-0.28152 0.01852v0.22966h0.2667z"/>
   <path d="m221.42 22.037c0 0.3556 0.12965 0.60008 0.51488 0.60008 0.11113 0 0.23337-0.03334 0.33338-0.06668l-0.0593-0.22966c-0.0593 0.02222-0.14076 0.04815-0.20373 0.04815-0.20743 0-0.27781-0.12594-0.27781-0.34819v-1.0001h0.48525v-0.24817h-0.48525v-0.50377h-0.25559l-0.037 0.50377-0.28152 0.01852v0.22966h0.2667z"/>
   <path d="m222.46 22.126c0 0.32226 0.22595 0.51118 0.52969 0.51118 0.22225 0 0.42228-0.11853 0.59638-0.25929h7e-3l0.0259 0.21484h0.25189v-1.1038c0-0.4482-0.18521-0.74083-0.62601-0.74083-0.28892 0-0.54081 0.12594-0.70749 0.23336l0.12223 0.21114c0.14076-0.09631 0.32597-0.19262 0.53711-0.19262 0.29263 0 0.37041 0.22225 0.37041 0.45191-0.76676 0.0852-1.1075 0.28152-1.1075 0.67416zm0.30004-0.02222c0-0.22966 0.20372-0.37782 0.8075-0.45191v0.50006c-0.17409 0.15558-0.31855 0.24077-0.49265 0.24077-0.1778 0-0.31485-0.0852-0.31485-0.28892z"/>
   <path d="m224.31 21.697c0 0.59637 0.36671 0.94086 0.84455 0.94086 0.21484 0 0.42228-0.0889 0.58526-0.23336l-0.13705-0.20002c-0.10742 0.09631-0.25189 0.1815-0.42228 0.1815-0.32967 0-0.55562-0.27781-0.55562-0.68898 0-0.41487 0.23706-0.69638 0.56303-0.69638 0.14446 0 0.25559 0.06668 0.36301 0.15928l0.15187-0.19632c-0.12224-0.11483-0.28893-0.21484-0.52599-0.21484-0.46302 0-0.86678 0.34449-0.86678 0.94827z"/>
   <path d="m226.13 22.593h0.30004v-0.47413l0.33707-0.39264 0.526 0.86678h0.33337l-0.68527-1.0779 0.60378-0.72231h-0.33708l-0.76676 0.94827h-0.0111v-1.7854h-0.30004z"/>
  </g>
  <rect x="205.18" y="20.637" width="1.3229" height="4.2333" fill="#1d232d" stroke="#7893ea" stroke-dashoffset="1.2" stroke-linecap="square" stroke-miterlimit="40"/>
  <path d="m105.97 47.757v10.583h33.073v-6.8792l-4.1341-3.7042z" fill="#2f3744" stroke="#7b8694" stroke-linecap="round"/>
  <g fill="#e8eaec" stroke-linecap="round" aria-label="Reload Weapon">
   <path d="m110.75 52.161h0.40746c0.37783 0 0.58526 0.11483 0.58526 0.43339 0 0.31486-0.20743 0.47043-0.58526 0.47043h-0.40746zm1.3742 2.1818-0.6186-1.0594c0.32967-0.0852 0.54451-0.31115 0.54451-0.68898 0-0.50377-0.3556-0.68157-0.84825-0.68157h-0.76306v2.4299h0.31115v-1.0261h0.43709l0.58526 1.0261z"/>
   <path d="m112.39 53.447c0 0.58896 0.38152 0.94086 0.86307 0.94086 0.24447 0 0.43709-0.08519 0.59266-0.18521l-0.10742-0.20002c-0.13335 0.0852-0.27781 0.14076-0.4482 0.14076-0.34449 0-0.57785-0.24448-0.60008-0.63341h1.215c7e-3 -0.04445 0.0111-0.10372 0.0111-0.16669 0-0.51488-0.25929-0.84455-0.71861-0.84455-0.41116 0-0.8075 0.3593-0.8075 0.94827zm0.29633-0.13705c0.037-0.36301 0.2667-0.57044 0.51858-0.57044 0.28152 0 0.4445 0.20373 0.4445 0.57044z"/>
   <path d="m114.36 53.98c0 0.263 0.0926 0.40746 0.32226 0.40746 0.0815 0 0.13335-0.01111 0.1741-0.02963l-0.0407-0.22966c-0.0333 0.0074-0.0482 0.0074-0.0667 0.0074-0.0444 0-0.0852-0.03704-0.0852-0.13335v-2.2966h-0.30374z"/>
   <path d="m115.17 53.447c0 0.59637 0.39264 0.94086 0.83344 0.94086 0.44079 0 0.83343-0.34449 0.83343-0.94086 0-0.60378-0.39264-0.94827-0.83343-0.94827-0.4408 0-0.83344 0.34449-0.83344 0.94827zm0.31485 0c0-0.41487 0.21114-0.69638 0.51859-0.69638 0.31115 0 0.51858 0.28152 0.51858 0.69638 0 0.41116-0.20743 0.68898-0.51858 0.68898-0.30745 0-0.51859-0.27781-0.51859-0.68898z"/>
   <path d="m117.18 53.876c0 0.32226 0.22596 0.51118 0.5297 0.51118 0.22225 0 0.42227-0.11853 0.59637-0.25929h7e-3l0.0259 0.21484h0.25188v-1.1038c0-0.4482-0.18521-0.74083-0.626-0.74083-0.28893 0-0.54081 0.12594-0.7075 0.23336l0.12224 0.21114c0.14076-0.09631 0.32597-0.19262 0.5371-0.19262 0.29263 0 0.37042 0.22225 0.37042 0.45191-0.76676 0.0852-1.1076 0.28152-1.1076 0.67416zm0.30004-0.02222c0-0.22966 0.20373-0.37782 0.80751-0.45191v0.50006c-0.1741 0.15558-0.31856 0.24077-0.49265 0.24077-0.1778 0-0.31486-0.0852-0.31486-0.28892z"/>
   <path d="m119.03 53.447c0 0.60008 0.29263 0.94086 0.74454 0.94086 0.21114 0 0.40375-0.11853 0.54451-0.25559h0.0111l0.0259 0.21114h0.25189v-2.6374h-0.30745v0.69268l0.0148 0.30745c-0.15928-0.12965-0.29634-0.20743-0.50377-0.20743-0.41116 0-0.78158 0.36301-0.78158 0.94827zm0.31486-0.0037c0-0.41116 0.22965-0.68898 0.51858-0.68898 0.14817 0 0.28522 0.05186 0.43709 0.18891v0.94086c-0.14817 0.16669-0.29263 0.24818-0.45932 0.24818-0.31485 0-0.49635-0.25929-0.49635-0.68898z"/>
   <path d="m122.25 54.343h0.36671l0.36301-1.4631c0.0407-0.18891 0.0815-0.36301 0.12224-0.55192h0.0148c0.0333 0.18891 0.0741 0.36301 0.11482 0.55192l0.36672 1.4631h0.37412l0.50377-2.4299h-0.30004l-0.25559 1.3224c-0.0445 0.25929-0.0889 0.52229-0.13705 0.78528h-0.0148c-0.0593-0.263-0.11853-0.5297-0.1741-0.78528l-0.33708-1.3224h-0.28151l-0.33708 1.3224c-0.0593 0.25929-0.11854 0.52229-0.17039 0.78528h-0.0148c-0.0482-0.263-0.0963-0.52229-0.14446-0.78528l-0.25559-1.3224h-0.31856z"/>
   <path d="m124.72 53.447c0 0.58896 0.38153 0.94086 0.86307 0.94086 0.24448 0 0.43709-0.08519 0.59267-0.18521l-0.10742-0.20002c-0.13335 0.0852-0.27781 0.14076-0.44821 0.14076-0.34448 0-0.57785-0.24448-0.60007-0.63341h1.215c7e-3 -0.04445 0.0111-0.10372 0.0111-0.16669 0-0.51488-0.25929-0.84455-0.71861-0.84455-0.41116 0-0.80751 0.3593-0.80751 0.94827zm0.29633-0.13705c0.0371-0.36301 0.2667-0.57044 0.51859-0.57044 0.28152 0 0.4445 0.20373 0.4445 0.57044z"/>
   <path d="m126.56 53.876c0 0.32226 0.22596 0.51118 0.5297 0.51118 0.22225 0 0.42227-0.11853 0.59637-0.25929h7e-3l0.0259 0.21484h0.25188v-1.1038c0-0.4482-0.18521-0.74083-0.626-0.74083-0.28893 0-0.54081 0.12594-0.7075 0.23336l0.12224 0.21114c0.14076-0.09631 0.32597-0.19262 0.5371-0.19262 0.29263 0 0.37042 0.22225 0.37042 0.45191-0.76676 0.0852-1.1076 0.28152-1.1076 0.67416zm0.30004-0.02222c0-0.22966 0.20373-0.37782 0.80751-0.45191v0.50006c-0.1741 0.15558-0.31856 0.24077-0.49265 0.24077-0.1778 0-0.31486-0.0852-0.31486-0.28892z"/>
   <path d="m128.84 54.18c0.16669 0.12965 0.33338 0.20743 0.50006 0.20743 0.41117 0 0.77788-0.3593 0.77788-0.97049 0-0.55933-0.24818-0.91863-0.7112-0.91863-0.21114 0-0.41116 0.11483-0.57415 0.25188h-0.0111l-0.0259-0.20743h-0.25188v2.5596h0.30374v-0.60748zm7e-3 -0.23707v-0.94456c0.1778-0.15928 0.32967-0.24448 0.48154-0.24448 0.34079 0 0.47414 0.2667 0.47414 0.66305 0 0.4445-0.21855 0.7149-0.51488 0.7149-0.11854 0-0.27782-0.05186-0.4408-0.18891z"/>
   <path d="m130.46 53.447c0 0.59637 0.39264 0.94086 0.83344 0.94086s0.83344-0.34449 0.83344-0.94086c0-0.60378-0.39264-0.94827-0.83344-0.94827s-0.83344 0.34449-0.83344 0.94827zm0.31486 0c0-0.41487 0.21113-0.69638 0.51858-0.69638 0.31115 0 0.51858 0.28152 0.51858 0.69638 0 0.41116-0.20743 0.68898-0.51858 0.68898-0.30745 0-0.51858-0.27781-0.51858-0.68898z"/>
   <path d="m132.61 54.343h0.30374v-1.3039c0.18151-0.1815 0.30745-0.27781 0.49266-0.27781 0.23707 0 0.34078 0.14446 0.34078 0.48154v1.1001h0.30374v-1.1409c0-0.45932-0.17039-0.70379-0.54821-0.70379-0.24818 0-0.43339 0.13335-0.60378 0.30374h-0.0111l-0.0259-0.25929h-0.25189z"/>
  </g>
  <rect x="139.04" y="52.387" width="1.3229" height="4.2333" fill="#1d232d" stroke="#6f8ce9" stroke-dashoffset="1.2" stroke-linecap="square" stroke-miterlimit="40"/>
  <rect x="104.64" y="52.387" width="1.3229" height="4.2333" fill="#1d232d" stroke="#6f8ce9" stroke-dashoffset="1.2" stroke-linecap="square" stroke-miterlimit="40"/>
  <path d="m105.97 68.924v10.583h33.073v-6.8792l-4.1341-3.7042z" fill="#2f3744" stroke="#7b8694" stroke-linecap="round"/>
  <g fill="#e8eaec" stroke-linecap="round" aria-label="MoveTo">
   <path d="m116.61 75.51h0.28522v-1.3372c0-0.21484-0.0222-0.50377-0.037-0.71861h0.0148l0.19262 0.54081 0.46673 1.2705h0.1778l0.46672-1.2705 0.19262-0.54081h0.0148c-0.0148 0.21484-0.0408 0.50377-0.0408 0.71861v1.3372h0.29263v-2.4299h-0.36301l-0.46672 1.3039-0.1704 0.49636h-0.0148l-0.1741-0.49636-0.47043-1.3039h-0.36671z"/>
   <path d="m119.13 74.613c0 0.59637 0.39264 0.94086 0.83344 0.94086 0.44079 0 0.83344-0.34449 0.83344-0.94086 0-0.60378-0.39265-0.94827-0.83344-0.94827-0.4408 0-0.83344 0.34449-0.83344 0.94827zm0.31485 0c0-0.41487 0.21114-0.69638 0.51859-0.69638 0.31115 0 0.51858 0.28152 0.51858 0.69638 0 0.41116-0.20743 0.68898-0.51858 0.68898-0.30745 0-0.51859-0.27781-0.51859-0.68898z"/>
   <path d="m121.65 75.51h0.3556l0.63711-1.8002h-0.30003l-0.34079 1.0224c-0.0519 0.1778-0.11112 0.3593-0.16298 0.5297h-0.0148c-0.0556-0.17039-0.11483-0.3519-0.16669-0.5297l-0.34078-1.0224h-0.31485z"/>
   <path d="m122.85 74.613c0 0.58896 0.38153 0.94086 0.86308 0.94086 0.24447 0 0.43709-0.0852 0.59266-0.18521l-0.10742-0.20002c-0.13335 0.0852-0.27781 0.14076-0.4482 0.14076-0.34449 0-0.57785-0.24448-0.60008-0.63341h1.215c7e-3 -0.04445 0.0111-0.10372 0.0111-0.16669 0-0.51488-0.25929-0.84455-0.71861-0.84455-0.41116 0-0.80751 0.3593-0.80751 0.94827zm0.29634-0.13705c0.037-0.36301 0.2667-0.57044 0.51858-0.57044 0.28152 0 0.4445 0.20373 0.4445 0.57044z"/>
   <path d="m125.26 75.51h0.30744v-2.1706h0.73713v-0.25929h-1.7817v0.25929h0.73713z"/>
   <path d="m126.32 74.613c0 0.59637 0.39265 0.94086 0.83344 0.94086 0.4408 0 0.83344-0.34449 0.83344-0.94086 0-0.60378-0.39264-0.94827-0.83344-0.94827-0.44079 0-0.83344 0.34449-0.83344 0.94827zm0.31486 0c0-0.41487 0.21114-0.69638 0.51858-0.69638 0.31115 0 0.51859 0.28152 0.51859 0.69638 0 0.41116-0.20744 0.68898-0.51859 0.68898-0.30744 0-0.51858-0.27781-0.51858-0.68898z"/>
  </g>
  <rect x="139.04" y="73.554" width="1.3229" height="4.2333" fill="#1d232d" stroke="#6f8ce9" stroke-dashoffset="1.2" stroke-linecap="square" stroke-miterlimit="40"/>
  <rect x="104.64" y="73.554" width="1.3229" height="4.2333" fill="#1d232d" stroke="#6f8ce9" stroke-dashoffset="1.2" stroke-linecap="square" stroke-miterlimit="40"/>
  <path d="m156.24 39.82v10.583h33.073v-6.8792l-4.1341-3.7042z" fill="#2f3744" stroke="#7b8694" stroke-linecap="round"/>
  <g fill="#e8eaec" stroke-linecap="round" aria-label="MoveTo">
   <path d="m166.88 46.405h0.28522v-1.3372c0-0.21484-0.0222-0.50377-0.037-0.71861h0.0148l0.19261 0.54081 0.46673 1.2705h0.1778l0.46672-1.2705 0.19262-0.54081h0.0148c-0.0148 0.21484-0.0408 0.50377-0.0408 0.71861v1.3372h0.29263v-2.4299h-0.36301l-0.46672 1.3039-0.1704 0.49636h-0.0148l-0.1741-0.49636-0.47043-1.3039h-0.36671z"/>
   <path d="m169.41 45.509c0 0.59637 0.39264 0.94086 0.83344 0.94086 0.44079 0 0.83344-0.34449 0.83344-0.94086 0-0.60378-0.39265-0.94827-0.83344-0.94827-0.4408 0-0.83344 0.34449-0.83344 0.94827zm0.31485 0c0-0.41487 0.21114-0.69638 0.51859-0.69638 0.31115 0 0.51858 0.28152 0.51858 0.69638 0 0.41116-0.20743 0.68898-0.51858 0.68898-0.30745 0-0.51859-0.27781-0.51859-0.68898z"/>
   <path d="m171.92 46.405h0.3556l0.63711-1.8002h-0.30003l-0.34079 1.0224c-0.0519 0.1778-0.11112 0.3593-0.16298 0.5297h-0.0148c-0.0556-0.17039-0.11483-0.3519-0.16668-0.5297l-0.34079-1.0224h-0.31485z"/>
   <path d="m173.12 45.509c0 0.58896 0.38153 0.94086 0.86308 0.94086 0.24447 0 0.43709-0.08519 0.59266-0.18521l-0.10742-0.20002c-0.13335 0.0852-0.27781 0.14076-0.4482 0.14076-0.34449 0-0.57785-0.24448-0.60008-0.63341h1.215c7e-3 -0.04445 0.0111-0.10372 0.0111-0.16669 0-0.51488-0.25929-0.84455-0.71861-0.84455-0.41116 0-0.80751 0.3593-0.80751 0.94827zm0.29634-0.13705c0.037-0.36301 0.2667-0.57044 0.51858-0.57044 0.28152 0 0.4445 0.20373 0.4445 0.57044z"/>
   <path d="m175.53 46.405h0.30744v-2.1706h0.73713v-0.25929h-1.7817v0.25929h0.73713z"/>
   <path d="m176.59 45.509c0 0.59637 0.39265 0.94086 0.83344 0.94086 0.4408 0 0.83344-0.34449 0.83344-0.94086 0-0.60378-0.39264-0.94827-0.83344-0.94827-0.44079 0-0.83344 0.34449-0.83344 0.94827zm0.31486 0c0-0.41487 0.21114-0.69638 0.51858-0.69638 0.31115 0 0.51859 0.28152 0.51859 0.69638 0 0.41116-0.20744 0.68898-0.51859 0.68898-0.30744 0-0.51858-0.27781-0.51858-0.68898z"/>
  </g>
  <rect x="189.31" y="44.45" width="1.3229" height="4.2333" fill="#1d232d" stroke="#6f8ce9" stroke-dashoffset="1.2" stroke-linecap="square" stroke-miterlimit="40"/>
  <rect x="154.91" y="44.45" width="1.3229" height="4.2333" fill="#1d232d" stroke="#6f8ce9" stroke-dashoffset="1.2" stroke-linecap="square" stroke-miterlimit="40"/>
  <path d="m156.24 55.695v10.583h33.073v-6.8792l-4.1341-3.7042z" fill="#2f3744" stroke="#7b8694" stroke-linecap="round"/>
  <g fill="#e8eaec" stroke-linecap="round" aria-label="Attack">
   <path d="m168.23 61.291 0.11853-0.37042c0.0852-0.2704 0.16299-0.5371 0.24077-0.81862h0.0148c0.0778 0.28152 0.15558 0.54822 0.24077 0.81862l0.11483 0.37042zm1.0409 0.98901h0.32597l-0.82233-2.4299h-0.34819l-0.82233 2.4299h0.31486l0.23336-0.74083h0.8853z"/>
   <path d="m169.89 61.725c0 0.3556 0.12964 0.60008 0.51488 0.60008 0.11112 0 0.23336-0.03334 0.33337-0.06668l-0.0593-0.22966c-0.0593 0.02222-0.14075 0.04815-0.20373 0.04815-0.20743 0-0.27781-0.12594-0.27781-0.34819v-1.0001h0.48525v-0.24818h-0.48525v-0.50377h-0.25559l-0.037 0.50377-0.28151 0.01852v0.22966h0.2667z"/>
   <path d="m171.15 61.725c0 0.3556 0.12965 0.60008 0.51488 0.60008 0.11113 0 0.23336-0.03334 0.33338-0.06668l-0.0593-0.22966c-0.0593 0.02222-0.14076 0.04815-0.20373 0.04815-0.20743 0-0.27781-0.12594-0.27781-0.34819v-1.0001h0.48524v-0.24818h-0.48524v-0.50377h-0.25559l-0.037 0.50377-0.28152 0.01852v0.22966h0.2667z"/>
   <path d="m172.19 61.814c0 0.32226 0.22596 0.51118 0.5297 0.51118 0.22225 0 0.42228-0.11853 0.59637-0.25929h7e-3l0.0259 0.21484h0.25188v-1.1038c0-0.4482-0.18521-0.74083-0.626-0.74083-0.28893 0-0.54081 0.12594-0.7075 0.23336l0.12224 0.21114c0.14076-0.09631 0.32597-0.19262 0.5371-0.19262 0.29263 0 0.37042 0.22225 0.37042 0.45191-0.76676 0.0852-1.1076 0.28152-1.1076 0.67416zm0.30004-0.02222c0-0.22966 0.20373-0.37782 0.80751-0.45191v0.50006c-0.17409 0.15558-0.31856 0.24077-0.49265 0.24077-0.1778 0-0.31486-0.0852-0.31486-0.28892z"/>
   <path d="m174.04 61.384c0 0.59637 0.36671 0.94086 0.84455 0.94086 0.21484 0 0.42227-0.0889 0.58526-0.23336l-0.13706-0.20002c-0.10742 0.09631-0.25188 0.1815-0.42227 0.1815-0.32967 0-0.55563-0.27781-0.55563-0.68898 0-0.41487 0.23707-0.69638 0.56304-0.69638 0.14446 0 0.25558 0.06668 0.363 0.15928l0.15188-0.19632c-0.12224-0.11483-0.28893-0.21484-0.526-0.21484-0.46302 0-0.86677 0.34449-0.86677 0.94827z"/>
   <path d="m175.86 62.28h0.30004v-0.47413l0.33708-0.39264 0.52599 0.86678h0.33338l-0.68527-1.0779 0.60378-0.72231h-0.33708l-0.76677 0.94827h-0.0111v-1.7854h-0.30004z"/>
  </g>
  <rect x="154.91" y="60.325" width="1.3229" height="4.2333" fill="#1d232d" stroke="#7893ea" stroke-dashoffset="1.2" stroke-linecap="square" stroke-miterlimit="40"/>
  <path d="m156.24 68.924v10.583h33.073v-6.8792l-4.1341-3.7042z" fill="#2f3744" stroke="#7b8694" stroke-linecap="round"/>
  <g fill="#e8eaec" stroke-linecap="round" aria-label="Reload Weapon">
   <path d="m161.02 73.328h0.40746c0.37783 0 0.58526 0.11483 0.58526 0.43339 0 0.31486-0.20743 0.47043-0.58526 0.47043h-0.40746zm1.3742 2.1818-0.6186-1.0594c0.32967-0.0852 0.54452-0.31115 0.54452-0.68898 0-0.50377-0.3556-0.68157-0.84826-0.68157h-0.76306v2.4299h0.31115v-1.0261h0.43709l0.58526 1.0261z"/>
   <path d="m162.66 74.613c0 0.58896 0.38153 0.94086 0.86307 0.94086 0.24447 0 0.43709-0.0852 0.59266-0.18521l-0.10742-0.20002c-0.13335 0.0852-0.27781 0.14076-0.4482 0.14076-0.34449 0-0.57785-0.24448-0.60008-0.63341h1.215c7e-3 -0.04445 0.0111-0.10372 0.0111-0.16669 0-0.51488-0.25929-0.84455-0.71861-0.84455-0.41116 0-0.8075 0.3593-0.8075 0.94827zm0.29633-0.13705c0.037-0.36301 0.2667-0.57044 0.51858-0.57044 0.28152 0 0.4445 0.20373 0.4445 0.57044z"/>
   <path d="m164.63 75.147c0 0.263 0.0926 0.40746 0.32226 0.40746 0.0815 0 0.13335-0.01111 0.1741-0.02963l-0.0408-0.22966c-0.0333 0.0074-0.0481 0.0074-0.0667 0.0074-0.0444 0-0.0852-0.03704-0.0852-0.13335v-2.2966h-0.30374z"/>
   <path d="m165.44 74.613c0 0.59637 0.39264 0.94086 0.83344 0.94086 0.44079 0 0.83343-0.34449 0.83343-0.94086 0-0.60378-0.39264-0.94827-0.83343-0.94827-0.4408 0-0.83344 0.34449-0.83344 0.94827zm0.31485 0c0-0.41487 0.21114-0.69638 0.51859-0.69638 0.31115 0 0.51858 0.28152 0.51858 0.69638 0 0.41116-0.20743 0.68898-0.51858 0.68898-0.30745 0-0.51859-0.27781-0.51859-0.68898z"/>
   <path d="m167.45 75.043c0 0.32226 0.22596 0.51118 0.5297 0.51118 0.22225 0 0.42228-0.11853 0.59637-0.25929h7e-3l0.0259 0.21484h0.25188v-1.1038c0-0.4482-0.18521-0.74083-0.626-0.74083-0.28893 0-0.54081 0.12594-0.7075 0.23336l0.12224 0.21114c0.14076-0.09631 0.32597-0.19262 0.5371-0.19262 0.29263 0 0.37042 0.22225 0.37042 0.45191-0.76676 0.0852-1.1076 0.28152-1.1076 0.67416zm0.30004-0.02222c0-0.22966 0.20373-0.37782 0.80751-0.45191v0.50006c-0.1741 0.15558-0.31856 0.24077-0.49265 0.24077-0.1778 0-0.31486-0.0852-0.31486-0.28892z"/>
   <path d="m169.3 74.613c0 0.60008 0.29263 0.94086 0.74454 0.94086 0.21114 0 0.40375-0.11853 0.54451-0.25559h0.0111l0.0259 0.21114h0.25189v-2.6374h-0.30745v0.69268l0.0148 0.30745c-0.15928-0.12965-0.29634-0.20743-0.50377-0.20743-0.41116 0-0.78158 0.36301-0.78158 0.94827zm0.31486-0.0037c0-0.41116 0.22965-0.68898 0.51858-0.68898 0.14817 0 0.28522 0.05186 0.43709 0.18891v0.94086c-0.14816 0.16669-0.29263 0.24818-0.45932 0.24818-0.31485 0-0.49635-0.25929-0.49635-0.68898z"/>
   <path d="m172.52 75.51h0.36671l0.36301-1.4631c0.0408-0.18891 0.0815-0.36301 0.12224-0.55192h0.0148c0.0333 0.18891 0.0741 0.36301 0.11483 0.55192l0.36671 1.4631h0.37412l0.50377-2.4299h-0.30004l-0.25559 1.3224c-0.0445 0.25929-0.0889 0.52229-0.13705 0.78528h-0.0148c-0.0593-0.263-0.11853-0.5297-0.1741-0.78528l-0.33708-1.3224h-0.28151l-0.33708 1.3224c-0.0593 0.25929-0.11854 0.52229-0.17039 0.78528h-0.0148c-0.0482-0.263-0.0963-0.52229-0.14446-0.78528l-0.25559-1.3224h-0.31856z"/>
   <path d="m174.99 74.613c0 0.58896 0.38153 0.94086 0.86307 0.94086 0.24448 0 0.4371-0.0852 0.59267-0.18521l-0.10742-0.20002c-0.13335 0.0852-0.27781 0.14076-0.44821 0.14076-0.34448 0-0.57785-0.24448-0.60007-0.63341h1.215c7e-3 -0.04445 0.0111-0.10372 0.0111-0.16669 0-0.51488-0.25929-0.84455-0.71861-0.84455-0.41116 0-0.80751 0.3593-0.80751 0.94827zm0.29634-0.13705c0.037-0.36301 0.2667-0.57044 0.51858-0.57044 0.28152 0 0.4445 0.20373 0.4445 0.57044z"/>
   <path d="m176.83 75.043c0 0.32226 0.22596 0.51118 0.5297 0.51118 0.22225 0 0.42228-0.11853 0.59637-0.25929h7e-3l0.0259 0.21484h0.25188v-1.1038c0-0.4482-0.18521-0.74083-0.626-0.74083-0.28893 0-0.54081 0.12594-0.7075 0.23336l0.12224 0.21114c0.14076-0.09631 0.32597-0.19262 0.5371-0.19262 0.29263 0 0.37042 0.22225 0.37042 0.45191-0.76676 0.0852-1.1076 0.28152-1.1076 0.67416zm0.30004-0.02222c0-0.22966 0.20373-0.37782 0.80751-0.45191v0.50006c-0.1741 0.15558-0.31856 0.24077-0.49265 0.24077-0.1778 0-0.31486-0.0852-0.31486-0.28892z"/>
   <path d="m179.11 75.347c0.16669 0.12965 0.33338 0.20743 0.50006 0.20743 0.41117 0 0.77788-0.3593 0.77788-0.97049 0-0.55933-0.24818-0.91863-0.7112-0.91863-0.21114 0-0.41116 0.11483-0.57415 0.25188h-0.0111l-0.0259-0.20743h-0.25188v2.5596h0.30374v-0.60748zm7e-3 -0.23707v-0.94456c0.1778-0.15928 0.32967-0.24448 0.48154-0.24448 0.34079 0 0.47414 0.2667 0.47414 0.66305 0 0.4445-0.21855 0.7149-0.51488 0.7149-0.11854 0-0.27782-0.05186-0.4408-0.18891z"/>
   <path d="m180.73 74.613c0 0.59637 0.39265 0.94086 0.83344 0.94086 0.4408 0 0.83344-0.34449 0.83344-0.94086 0-0.60378-0.39264-0.94827-0.83344-0.94827-0.44079 0-0.83344 0.34449-0.83344 0.94827zm0.31486 0c0-0.41487 0.21114-0.69638 0.51858-0.69638 0.31115 0 0.51859 0.28152 0.51859 0.69638 0 0.41116-0.20744 0.68898-0.51859 0.68898-0.30744 0-0.51858-0.27781-0.51858-0.68898z"/>
   <path d="m182.88 75.51h0.30374v-1.3039c0.18151-0.1815 0.30745-0.27781 0.49266-0.27781 0.23707 0 0.34078 0.14446 0.34078 0.48154v1.1001h0.30374v-1.1409c0-0.45932-0.17039-0.70379-0.54821-0.70379-0.24818 0-0.43339 0.13335-0.60378 0.30374h-0.0111l-0.0259-0.25929h-0.25189z"/>
  </g>
  <rect x="189.31" y="73.554" width="1.3229" height="4.2333" fill="#1d232d" stroke="#6f8ce9" stroke-dashoffset="1.2" stroke-linecap="square" stroke-miterlimit="40"/>
  <rect x="154.91" y="73.554" width="1.3229" height="4.2333" fill="#1d232d" stroke="#6f8ce9" stroke-dashoffset="1.2" stroke-linecap="square" stroke-miterlimit="40"/>
  <path d="m156.24 84.799v10.583h33.073v-6.8792l-4.1341-3.7042z" fill="#2f3744" stroke="#7b8694" stroke-linecap="round"/>
  <g fill="#e8eaec" stroke-linecap="round" aria-label="Attack">
   <path d="m168.23 90.396 0.11853-0.37042c0.0852-0.2704 0.16299-0.5371 0.24077-0.81862h0.0148c0.0778 0.28152 0.15558 0.54822 0.24077 0.81862l0.11483 0.37042zm1.0409 0.98901h0.32597l-0.82233-2.4299h-0.34819l-0.82233 2.4299h0.31486l0.23336-0.74083h0.8853z"/>
   <path d="m169.89 90.829c0 0.3556 0.12964 0.60008 0.51488 0.60008 0.11112 0 0.23336-0.03334 0.33337-0.06668l-0.0593-0.22966c-0.0593 0.02222-0.14075 0.04815-0.20373 0.04815-0.20743 0-0.27781-0.12594-0.27781-0.34819v-1.0001h0.48525v-0.24818h-0.48525v-0.50377h-0.25559l-0.037 0.50377-0.28151 0.01852v0.22966h0.2667z"/>
   <path d="m171.15 90.829c0 0.3556 0.12965 0.60008 0.51488 0.60008 0.11113 0 0.23336-0.03334 0.33338-0.06668l-0.0593-0.22966c-0.0593 0.02222-0.14076 0.04815-0.20373 0.04815-0.20743 0-0.27781-0.12594-0.27781-0.34819v-1.0001h0.48524v-0.24818h-0.48524v-0.50377h-0.25559l-0.037 0.50377-0.28152 0.01852v0.22966h0.2667z"/>
   <path d="m172.19 90.918c0 0.32226 0.22596 0.51118 0.5297 0.51118 0.22225 0 0.42228-0.11853 0.59637-0.25929h7e-3l0.0259 0.21484h0.25188v-1.1038c0-0.4482-0.18521-0.74083-0.626-0.74083-0.28893 0-0.54081 0.12594-0.7075 0.23336l0.12224 0.21114c0.14076-0.09631 0.32597-0.19262 0.5371-0.19262 0.29263 0 0.37042 0.22225 0.37042 0.45191-0.76676 0.0852-1.1076 0.28152-1.1076 0.67416zm0.30004-0.02222c0-0.22966 0.20373-0.37782 0.80751-0.45191v0.50006c-0.17409 0.15558-0.31856 0.24077-0.49265 0.24077-0.1778 0-0.31486-0.0852-0.31486-0.28892z"/>
   <path d="m174.04 90.488c0 0.59637 0.36671 0.94086 0.84455 0.94086 0.21484 0 0.42227-0.0889 0.58526-0.23336l-0.13706-0.20002c-0.10742 0.09631-0.25188 0.1815-0.42227 0.1815-0.32967 0-0.55563-0.27781-0.55563-0.68898 0-0.41487 0.23707-0.69638 0.56304-0.69638 0.14446 0 0.25558 0.06668 0.363 0.15928l0.15188-0.19632c-0.12224-0.11483-0.28893-0.21484-0.526-0.21484-0.46302 0-0.86677 0.34449-0.86677 0.94827z"/>
   <path d="m175.86 91.385h0.30004v-0.47413l0.33708-0.39264 0.52599 0.86678h0.33338l-0.68527-1.0779 0.60378-0.72231h-0.33708l-0.76677 0.94827h-0.0111v-1.7854h-0.30004z"/>
  </g>
  <rect x="154.91" y="89.429" width="1.3229" height="4.2333" fill="#1d232d" stroke="#7893ea" stroke-dashoffset="1.2" stroke-linecap="square" stroke-miterlimit="40"/>
  <path d="m206.51 39.82v10.583h33.073v-6.8792l-4.1341-3.7042z" fill="#2f3744" stroke="#7b8694" stroke-linecap="round"/>
  <g fill="#e8eaec" stroke-linecap="round" aria-label="Attack">
   <path d="m218.5 45.416 0.11854-0.37042c0.0852-0.2704 0.16298-0.5371 0.24077-0.81862h0.0148c0.0778 0.28152 0.15558 0.54822 0.24077 0.81862l0.11483 0.37042zm1.0409 0.98901h0.32597l-0.82232-2.4299h-0.3482l-0.82232 2.4299h0.31485l0.23337-0.74083h0.88529z"/>
   <path d="m220.17 45.85c0 0.3556 0.12965 0.60008 0.51488 0.60008 0.11112 0 0.23336-0.03334 0.33337-0.06668l-0.0593-0.22966c-0.0593 0.02222-0.14076 0.04815-0.20373 0.04815-0.20744 0-0.27781-0.12594-0.27781-0.34819v-1.0001h0.48524v-0.24818h-0.48524v-0.50377h-0.25559l-0.037 0.50377-0.28152 0.01852v0.22966h0.2667z"/>
   <path d="m221.42 45.85c0 0.3556 0.12965 0.60008 0.51488 0.60008 0.11113 0 0.23337-0.03334 0.33338-0.06668l-0.0593-0.22966c-0.0593 0.02222-0.14076 0.04815-0.20373 0.04815-0.20743 0-0.27781-0.12594-0.27781-0.34819v-1.0001h0.48525v-0.24818h-0.48525v-0.50377h-0.25559l-0.037 0.50377-0.28152 0.01852v0.22966h0.2667z"/>
   <path d="m222.46 45.939c0 0.32226 0.22595 0.51118 0.52969 0.51118 0.22225 0 0.42228-0.11853 0.59638-0.25929h7e-3l0.0259 0.21484h0.25189v-1.1038c0-0.4482-0.18521-0.74083-0.62601-0.74083-0.28892 0-0.54081 0.12594-0.70749 0.23336l0.12223 0.21114c0.14076-0.09631 0.32597-0.19262 0.53711-0.19262 0.29263 0 0.37041 0.22225 0.37041 0.45191-0.76676 0.0852-1.1075 0.28152-1.1075 0.67416zm0.30004-0.02222c0-0.22966 0.20372-0.37782 0.8075-0.45191v0.50006c-0.17409 0.15558-0.31855 0.24077-0.49265 0.24077-0.1778 0-0.31485-0.0852-0.31485-0.28892z"/>
   <path d="m224.31 45.509c0 0.59637 0.36671 0.94086 0.84455 0.94086 0.21484 0 0.42228-0.0889 0.58526-0.23336l-0.13705-0.20002c-0.10742 0.09631-0.25189 0.1815-0.42228 0.1815-0.32967 0-0.55562-0.27781-0.55562-0.68898 0-0.41487 0.23706-0.69638 0.56303-0.69638 0.14446 0 0.25559 0.06668 0.36301 0.15928l0.15187-0.19632c-0.12224-0.11483-0.28893-0.21484-0.52599-0.21484-0.46302 0-0.86678 0.34449-0.86678 0.94827z"/>
   <path d="m226.13 46.405h0.30004v-0.47413l0.33707-0.39264 0.526 0.86678h0.33337l-0.68527-1.0779 0.60378-0.72231h-0.33708l-0.76676 0.94827h-0.0111v-1.7854h-0.30004z"/>
  </g>
  <rect x="205.18" y="44.45" width="1.3229" height="4.2333" fill="#1d232d" stroke="#7893ea" stroke-dashoffset="1.2" stroke-linecap="square" stroke-miterlimit="40"/>
  <path d="m206.51 68.924v10.583h33.073v-6.8792l-4.1341-3.7042z" fill="#2f3744" stroke="#7b8694" stroke-linecap="round"/>
  <g fill="#e8eaec" stroke-linecap="round" aria-label="Attack">
   <path d="m218.5 74.521 0.11854-0.37042c0.0852-0.2704 0.16298-0.5371 0.24077-0.81862h0.0148c0.0778 0.28152 0.15558 0.54822 0.24077 0.81862l0.11483 0.37042zm1.0409 0.98901h0.32597l-0.82232-2.4299h-0.3482l-0.82232 2.4299h0.31485l0.23337-0.74083h0.88529z"/>
   <path d="m220.17 74.954c0 0.3556 0.12965 0.60008 0.51488 0.60008 0.11112 0 0.23336-0.03334 0.33337-0.06668l-0.0593-0.22966c-0.0593 0.02222-0.14076 0.04815-0.20373 0.04815-0.20744 0-0.27781-0.12594-0.27781-0.34819v-1.0001h0.48524v-0.24818h-0.48524v-0.50377h-0.25559l-0.037 0.50377-0.28152 0.01852v0.22966h0.2667z"/>
   <path d="m221.42 74.954c0 0.3556 0.12965 0.60008 0.51488 0.60008 0.11113 0 0.23337-0.03334 0.33338-0.06668l-0.0593-0.22966c-0.0593 0.02222-0.14076 0.04815-0.20373 0.04815-0.20743 0-0.27781-0.12594-0.27781-0.34819v-1.0001h0.48525v-0.24818h-0.48525v-0.50377h-0.25559l-0.037 0.50377-0.28152 0.01852v0.22966h0.2667z"/>
   <path d="m222.46 75.043c0 0.32226 0.22595 0.51118 0.52969 0.51118 0.22225 0 0.42228-0.11853 0.59638-0.25929h7e-3l0.0259 0.21484h0.25189v-1.1038c0-0.4482-0.18521-0.74083-0.62601-0.74083-0.28892 0-0.54081 0.12594-0.70749 0.23336l0.12223 0.21114c0.14076-0.09631 0.32597-0.19262 0.53711-0.19262 0.29263 0 0.37041 0.22225 0.37041 0.45191-0.76676 0.0852-1.1075 0.28152-1.1075 0.67416zm0.30004-0.02222c0-0.22966 0.20372-0.37782 0.8075-0.45191v0.50006c-0.17409 0.15558-0.31855 0.24077-0.49265 0.24077-0.1778 0-0.31485-0.0852-0.31485-0.28892z"/>
   <path d="m224.31 74.613c0 0.59637 0.36671 0.94086 0.84455 0.94086 0.21484 0 0.42228-0.0889 0.58526-0.23336l-0.13705-0.20002c-0.10742 0.09631-0.25189 0.1815-0.42228 0.1815-0.32967 0-0.55562-0.27781-0.55562-0.68898 0-0.41487 0.23706-0.69638 0.56303-0.69638 0.14446 0 0.25559 0.06668 0.36301 0.15928l0.15187-0.19632c-0.12224-0.11483-0.28893-0.21484-0.52599-0.21484-0.46302 0-0.86678 0.34449-0.86678 0.94827z"/>
   <path d="m226.13 75.51h0.30004v-0.47413l0.33707-0.39264 0.526 0.86678h0.33337l-0.68527-1.0779 0.60378-0.72231h-0.33708l-0.76676 0.94827h-0.0111v-1.7854h-0.30004z"/>
  </g>
  <rect x="205.18" y="73.554" width="1.3229" height="4.2333" fill="#1d232d" stroke="#7893ea" stroke-dashoffset="1.2" stroke-linecap="square" stroke-miterlimit="40"/>
  <path d="m93.795 29.369v-13.229" fill="#1d232d" stroke="#6f8ce9" stroke-linecap="round"/>
 </g>
 <g fill="#6f8ce9">
  <circle transform="rotate(-90)" cx="-22.754" cy="93.266" r=".52917"/>
  <circle transform="rotate(-90)" cx="-28.046" cy="94.324" r=".52917"/>
  <circle transform="rotate(-90)" cx="-22.754" cy="94.324" r=".52917"/>
  <circle transform="rotate(-90)" cx="-17.462" cy="94.324" r=".52917"/>
 </g>
 <g stroke="#6f8ce9" stroke-width=".26458">
  <g stroke-linecap="square">
   <path d="m90.223 22.754h3.175" fill="#7893ea"/>
   <path d="m94.192 22.754h10.319" fill="#7893ea"/>
   <path d="m94.192 17.462h5.0271v-10.583h5.2917" fill="none"/>
  </g>
  <g stroke-linecap="square">
   <ellipse transform="scale(-1,1)" cx="-99.219" cy="6.8791" rx=".66146" ry=".66146" fill="#1d232d" stroke-dashoffset="1.2" stroke-miterlimit="40"/>
   <path d="m94.192 28.046h5.0271v10.583h5.2917" fill="none"/>
   <ellipse transform="scale(-1)" cx="-99.219" cy="-38.629" rx=".66146" ry=".66146" fill="#1d232d" stroke-dashoffset="1.2" stroke-miterlimit="40"/>
  </g>
  <path d="m93.795 69.056v-7.9375" fill="#1d232d" stroke-linecap="round"/>
 </g>
 <g fill="#6f8ce9">
  <circle transform="rotate(-90)" cx="-65.087" cy="93.266" r=".52917"/>
  <circle transform="rotate(-90)" cx="-67.733" cy="94.324" r=".52917"/>
  <circle transform="rotate(-90)" cx="-62.442" cy="94.324" r=".52917"/>
 </g>
 <g stroke="#6f8ce9" stroke-width=".26458">
  <g stroke-linecap="square">
   <path d="m90.223 65.087h3.175" fill="#7893ea"/>
   <path d="m94.192 67.733h5.0271v7.9375h5.2917" fill="none"/>
   <ellipse transform="scale(-1)" cx="-99.219" cy="-75.671" rx=".66146" ry=".66146" fill="#1d232d" stroke-dashoffset="1.2" stroke-miterlimit="40"/>
   <path d="m94.192 62.442h5.0271v-7.9375h5.2917" fill="none"/>
   <ellipse transform="scale(-1,1)" cx="-99.219" cy="54.471" rx=".66146" ry=".66146" fill="#1d232d" stroke-dashoffset="1.2" stroke-miterlimit="40"/>
  </g>
  <path d="m144.07 58.473v-7.9375" fill="#1d232d" stroke-linecap="round"/>
 </g>
 <g fill="#6f8ce9">
  <circle transform="rotate(-90)" cx="-54.504" cy="143.54" r=".52917"/>
  <circle transform="rotate(-90)" cx="-57.15" cy="144.59" r=".52917"/>
  <circle transform="rotate(-90)" cx="-51.858" cy="144.59" r=".52917"/>
 </g>
 <g stroke="#6f8ce9" stroke-width=".26458">
  <g stroke-linecap="square">
   <path d="m140.49 54.504h3.175" fill="#7893ea"/>
   <path d="m144.46 57.15h5.0271v5.2917h5.2917" fill="none"/>
   <ellipse transform="scale(-1)" cx="-149.49" cy="-62.442" rx=".66146" ry=".66146" fill="#1d232d" stroke-dashoffset="1.2" stroke-miterlimit="40"/>
   <path d="m144.46 51.858h5.0271v-5.2917h5.2917" fill="none"/>
   <ellipse transform="scale(-1,1)" cx="-149.49" cy="46.534" rx=".66146" ry=".66146" fill="#1d232d" stroke-dashoffset="1.2" stroke-miterlimit="40"/>
  </g>
  <path d="m144.07 79.64v-5.2917" fill="#1d232d" stroke-linecap="round"/>
 </g>
 <g fill="#6f8ce9">
  <circle transform="rotate(-90)" cx="-75.671" cy="143.54" r=".52917"/>
  <circle transform="rotate(-90)" cx="-78.317" cy="144.59" r=".52917"/>
  <circle transform="rotate(-90)" cx="-75.671" cy="144.59" r=".52917"/>
 </g>
 <g stroke="#6f8ce9" stroke-linecap="square" stroke-width=".26458">
  <path d="m140.49 75.671h3.175" fill="#7893ea"/>
  <path d="m144.46 78.317h5.0271v13.229h5.2917" fill="none"/>
  <ellipse transform="scale(-1)" cx="-149.49" cy="-91.546" rx=".66146" ry=".66146" fill="#1d232d" stroke-dashoffset="1.2" stroke-miterlimit="40"/>
  <path d="m144.46 75.671h10.319" fill="none"/>
 </g>
 <g fill="#7893ea" stroke="#6f8ce9" stroke-linecap="square" stroke-width=".26458">
  <path d="m140.49 22.754h14.288"/>
  <path d="m190.76 22.754h14.288"/>
  <path d="m190.76 46.567h14.288"/>
  <path d="m190.76 75.671h14.288"/>
 </g>
 <g fill="none" stroke="#ff867f" stroke-linecap="square" stroke-width=".26458">
  <path d="m88.9 79.64-1.5875 1.5875"/>
  <path d="m87.312 79.64 1.5875 1.5875"/>
  <path d="m88.9 37.306-1.5875 1.5875"/>
  <path d="m87.312 37.306 1.5875 1.5875"/>
  <path d="m139.17 32.015-1.5875 1.5875"/>
  <path d="m137.58 32.015 1.5875 1.5875"/>
  <path d="m139.17 0.26457-1.5875 1.5875"/>
  <path d="m137.58 0.26457 1.5875 1.5875"/>
  <path d="m189.44 55.827-1.5875 1.5875"/>
  <path d="m187.85 55.827 1.5875 1.5875"/>
  <path d="m189.44 84.931-1.5875 1.5875"/>
  <path d="m187.85 84.931 1.5875 1.5875"/>
 </g>
</svg>
