<?xml version="1.0" encoding="UTF-8"?>
<svg width="81.095mm" height="31.089mm" version="1.1" viewBox="0 0 81.095 31.089" xmlns="http://www.w3.org/2000/svg" xmlns:cc="http://creativecommons.org/ns#" xmlns:dc="http://purl.org/dc/elements/1.1/" xmlns:rdf="http://www.w3.org/1999/02/22-rdf-syntax-ns#">
 <metadata>
  <rdf:RDF>
   <cc:Work rdf:about="">
    <dc:format>image/svg+xml</dc:format>
    <dc:type rdf:resource="http://purl.org/dc/dcmitype/StillImage"/>
    <dc:title/>
   </cc:Work>
  </rdf:RDF>
 </metadata>
 <g transform="translate(-119.74 -212.43)">
  <rect x="119.87" y="212.56" width="80.83" height="30.824" fill="#2f3744" stroke="#7b8694" stroke-linecap="round" stroke-width=".26458"/>
  <g stroke-width=".26458">
   <g fill="#e8eaec" stroke-linecap="round" aria-label="IMessageBus">
    <path d="m150.61 214.19v0.21855h0.42598v1.878h-0.45191v0.21484h1.1927v-0.21114h-0.48154v-1.8817h0.45561v-0.21855z"/>
    <path d="m152.28 214.19v2.3114h0.24448v-1.7298l0.46672 0.91493h0.0963l0.50006-0.92975v1.7447h0.24448v-2.3114h-0.19262l-0.58155 1.1298-0.57415-1.1298z"/>
    <path d="m154.94 214.77c-0.40375 0-0.77787 0.28893-0.77787 0.90382 0 0.56674 0.3519 0.86677 0.81121 0.86677 0.24448 0 0.46302-0.0889 0.60749-0.26299l-0.14817-0.14446c-0.10742 0.12594-0.2704 0.19261-0.43709 0.19261-0.22596 0-0.55563-0.12594-0.57415-0.63341h1.2002c0.0111-0.11483 7e-3 -0.22595-0.0111-0.32226-0.0778-0.45562-0.39264-0.60008-0.67046-0.60008zm-0.51117 0.71861c0.0556-0.40005 0.31115-0.51488 0.49265-0.51488 0.27411 0 0.47043 0.24077 0.4371 0.51488z"/>
    <path d="m157.44 215.03c-0.15558-0.17039-0.38153-0.263-0.63342-0.263-0.39264 0-0.64823 0.21855-0.64823 0.47043 0 0.29633 0.31856 0.40376 0.41117 0.43709 0.14446 0.0519 0.32967 0.0963 0.45561 0.15558 0.14076 0.0667 0.16669 0.15557 0.16669 0.21484 0 0.15928-0.19262 0.2667-0.43339 0.2667-0.28893 0-0.47414-0.1741-0.5297-0.23336-0.0111-0.0148-0.0111-0.0259-0.0111-0.0408 0-4e-3 4e-3 -0.0259-0.0148-0.0333l-0.15557 0.263c0.20002 0.18521 0.45931 0.2704 0.7149 0.2704 0.46302 0 0.70379-0.2741 0.70379-0.52969 0-0.11483-0.0482-0.27041-0.24817-0.38153-0.18892-0.10742-0.46303-0.14446-0.62231-0.22225-0.13705-0.0667-0.16668-0.14817-0.16668-0.20744 0-0.13335 0.16668-0.22965 0.3556-0.22965 0.24447 0 0.40746 0.14816 0.47043 0.23336 0.0111 0.0111 7e-3 0.0222 7e-3 0.0333 0 0.0222 0.0148 0.0296 0.0222 0.0296z"/>
    <path d="m159.29 215.03c-0.15557-0.17039-0.38153-0.263-0.63341-0.263-0.39264 0-0.64823 0.21855-0.64823 0.47043 0 0.29633 0.31856 0.40376 0.41116 0.43709 0.14446 0.0519 0.32967 0.0963 0.45561 0.15558 0.14076 0.0667 0.16669 0.15557 0.16669 0.21484 0 0.15928-0.19262 0.2667-0.43339 0.2667-0.28892 0-0.47413-0.1741-0.52969-0.23336-0.0111-0.0148-0.0111-0.0259-0.0111-0.0408 0-4e-3 4e-3 -0.0259-0.0148-0.0333l-0.15558 0.263c0.20003 0.18521 0.45932 0.2704 0.71491 0.2704 0.46302 0 0.70379-0.2741 0.70379-0.52969 0-0.11483-0.0482-0.27041-0.24818-0.38153-0.18891-0.10742-0.46302-0.14446-0.6223-0.22225-0.13705-0.0667-0.16669-0.14817-0.16669-0.20744 0-0.13335 0.16669-0.22965 0.3556-0.22965 0.24448 0 0.40746 0.14816 0.47043 0.23336 0.0111 0.0111 7e-3 0.0222 7e-3 0.0333 0 0.0222 0.0148 0.0296 0.0222 0.0296z"/>
    <path d="m159.88 215.01 0.12964 0.17039c0.14076-0.14446 0.32968-0.18891 0.48896-0.18891 0.20002 0 0.30003 0.0852 0.34819 0.16298 0.0556 0.0926 0.0519 0.20373 0.0519 0.29263v0.0593h-0.0519c-0.25189 0-0.51859 0-0.73343 0.0778-0.2667 0.0963-0.38523 0.29634-0.38523 0.48155 0 0.24818 0.21484 0.48154 0.56674 0.48154 0.20743 0 0.42227-0.0778 0.60748-0.22966v0.18521h0.25188v-1.0483c0-0.13706-4e-3 -0.2667-0.0815-0.40005-0.11112-0.18151-0.32597-0.27781-0.58896-0.27781-0.22596 0-0.4445 0.0704-0.60378 0.23336zm1.0298 0.70009v0.11483c0 0.0852 0 0.19632-0.11483 0.31855-0.063 0.063-0.22225 0.20003-0.4445 0.20003-0.22596 0-0.3556-0.14446-0.3556-0.29263 0-0.12594 0.0852-0.263 0.29633-0.31485 0.15558-0.037 0.38153-0.0259 0.55933-0.0259z"/>
    <path d="m161.86 215.33c0-0.20373 0.17039-0.37042 0.37412-0.37042 0.20743 0 0.37412 0.16669 0.37412 0.37042s-0.16669 0.37042-0.37412 0.37042-0.37412-0.16669-0.37412-0.37042zm0.38894-0.58156c-0.33708 0-0.62971 0.2667-0.62971 0.59638 0 0.1852 0.0926 0.3593 0.24818 0.45931-0.12224 0.10372-0.19262 0.21855-0.19262 0.32597 0 0.0704 0.0296 0.17039 0.13706 0.22595-0.18151 0.11483-0.27411 0.24078-0.27411 0.37413 0 0.1852 0.17039 0.40375 0.76306 0.40375 0.57414 0 0.78158-0.29263 0.78158-0.51858 0-0.14817-0.0852-0.29634-0.263-0.36672-0.1778-0.0741-0.38153-0.0481-0.57415-0.0481-0.12594 0-0.20743-0.0111-0.24077-0.0222-0.0667-0.0185-0.10371-0.0593-0.10371-0.11112 0-0.0889 0.10371-0.1741 0.12223-0.18891 0.0667 0.0259 0.14076 0.037 0.21485 0.037 0.33337 0 0.60748-0.2667 0.60748-0.57785 0-0.10372-0.0296-0.20373-0.0852-0.28893 0.0889-0.0519 0.19262-0.0815 0.29634-0.0815 0.0333 0 0.063 4e-3 0.0963 0.0111l-0.0296-0.21854c-0.17039-0.0148-0.34078 0.0407-0.47043 0.14816-0.10742-0.10371-0.24818-0.15928-0.40375-0.15928zm-0.25559 1.6558c0.063 7e-3 0.15187 0.0148 0.28152 0.0222 0.12594 4e-3 0.26299-7e-3 0.3593 7e-3 0.15558 0.0259 0.20373 0.12224 0.20373 0.19632 0 0.0741-0.0445 0.16299-0.15928 0.22596-0.12594 0.0667-0.2667 0.0741-0.38153 0.0741-0.0778 0-0.22225-4e-3 -0.34819-0.0556-0.13705-0.0556-0.16669-0.14817-0.16669-0.20744 0-0.12223 0.11483-0.21113 0.21114-0.26299z"/>
    <path d="m164.2 214.77c-0.40375 0-0.77788 0.28893-0.77788 0.90382 0 0.56674 0.3519 0.86677 0.81122 0.86677 0.24447 0 0.46302-0.0889 0.60748-0.26299l-0.14817-0.14446c-0.10742 0.12594-0.2704 0.19261-0.43709 0.19261-0.22595 0-0.55562-0.12594-0.57414-0.63341h1.2002c0.0111-0.11483 7e-3 -0.22595-0.0111-0.32226-0.0778-0.45562-0.39264-0.60008-0.67045-0.60008zm-0.51118 0.71861c0.0556-0.40005 0.31115-0.51488 0.49266-0.51488 0.27411 0 0.47043 0.24077 0.43709 0.51488z"/>
    <path d="m165.28 214.19v2.3077h0.65193c0.15558 0 0.31486 0 0.47414-0.0667 0.24818-0.10742 0.38523-0.33337 0.38523-0.57044 0-0.2704-0.1741-0.51117-0.42968-0.59637 0.20373-0.0852 0.34078-0.28893 0.34078-0.50747 0-0.20743-0.11853-0.40746-0.33708-0.50006-0.14446-0.063-0.28892-0.0667-0.42968-0.0667zm0.25559 0.22225h0.36301c0.10001 0 0.20372 0 0.30744 0.0408 0.15187 0.063 0.23336 0.19261 0.23336 0.32596s-0.0778 0.2593-0.22225 0.32227c-0.10742 0.0444-0.21854 0.0444-0.32226 0.0444h-0.3593zm0 0.95197h0.37782c0.11483 0 0.22966 4e-3 0.34449 0.0593 0.17039 0.0778 0.263 0.24447 0.263 0.41116s-0.0889 0.31856-0.24818 0.39264c-0.10002 0.0445-0.19632 0.0445-0.29634 0.0445h-0.44079z"/>
    <path d="m167.18 214.81v0.94456c0 0.14446 0 0.29263 0.0667 0.4445 0.0963 0.22225 0.30374 0.34449 0.52599 0.34449 0.21114 0 0.41116-0.11483 0.52229-0.30004l-4e-3 0.12594c0 0.0445 0 0.0889 7e-3 0.12965h0.28152c-0.0185-0.0482-0.0222-0.10372-0.0222-0.15187v-1.5372h-0.2667v0.92974c0 0.12965-0.0111 0.22966-0.0667 0.33338-0.0778 0.14446-0.22966 0.25188-0.39264 0.25188-0.12965 0-0.25559-0.0741-0.32227-0.20743-0.0593-0.11853-0.0593-0.25188-0.0593-0.36301v-0.94456z"/>
    <path d="m170.4 215.03c-0.15558-0.17039-0.38153-0.263-0.63341-0.263-0.39265 0-0.64823 0.21855-0.64823 0.47043 0 0.29633 0.31856 0.40376 0.41116 0.43709 0.14446 0.0519 0.32967 0.0963 0.45561 0.15558 0.14076 0.0667 0.16669 0.15557 0.16669 0.21484 0 0.15928-0.19262 0.2667-0.43339 0.2667-0.28892 0-0.47413-0.1741-0.52969-0.23336-0.0111-0.0148-0.0111-0.0259-0.0111-0.0408 0-4e-3 4e-3 -0.0259-0.0148-0.0333l-0.15558 0.263c0.20003 0.18521 0.45932 0.2704 0.71491 0.2704 0.46302 0 0.70379-0.2741 0.70379-0.52969 0-0.11483-0.0482-0.27041-0.24818-0.38153-0.18891-0.10742-0.46302-0.14446-0.6223-0.22225-0.13706-0.0667-0.16669-0.14817-0.16669-0.20744 0-0.13335 0.16669-0.22965 0.3556-0.22965 0.24448 0 0.40746 0.14816 0.47043 0.23336 0.0111 0.0111 7e-3 0.0222 7e-3 0.0333 0 0.0222 0.0148 0.0296 0.0222 0.0296z"/>
   </g>
   <path d="m120.07 217.98h80.433" fill="none" stroke="#7b8694" stroke-dashoffset="1.2" stroke-linecap="square"/>
   <g fill="#e8eaec" stroke-linecap="round" aria-label="+ Forward(context, delay): int + Intercept(type): int + Publish(message, scope, delay, expiration): int + Register(address): int + Send(message, delay, expiration): int + Subscribe(type, scope): int + Unsubscribe(type): int">
    <path d="m122.13 219.87v0.53975h-0.56198v0.19685h0.56198v0.59373h0.20002v-0.59373h0.54293v-0.19685h-0.54293v-0.53975z"/>
    <path d="m124.84 219.55v1.978h0.22542v-0.97155h0.73978v-0.1905h-0.73978v-0.6223h0.9144v-0.19367z"/>
    <path d="m127.65 220.81c0-0.50165-0.3175-0.762-0.6477-0.762-0.3683 0-0.6858 0.3175-0.6858 0.76835 0 0.44133 0.31433 0.75248 0.67945 0.75248 0.3429 0 0.65405-0.27623 0.65405-0.75883zm-0.66357-0.56832c0.20955 0 0.4318 0.18097 0.4318 0.57785 0 0.36512-0.20955 0.54927-0.4191 0.54927-0.23178 0-0.44133-0.2159-0.44133-0.57467 0-0.3556 0.20638-0.55245 0.42863-0.55245z"/>
    <path d="m128.09 220.08v1.451h0.2286v-0.70485c0-0.0889 3e-3 -0.18415 0.1016-0.33973 0.13335-0.20955 0.3048-0.24447 0.40957-0.24447 0.12065 0 0.19685 0.0572 0.23813 0.10795 0.019 0.0254 0.0286 0.0508 0.054 0.073l0.10795-0.21907c-0.0921-0.0953-0.22542-0.15875-0.38735-0.15875-0.21272 0-0.42862 0.10795-0.52387 0.31432l0.01-0.2794z"/>
    <path d="m129.41 220.07 0.2921 1.4542h0.20637l0.254-0.9398 0.26988 0.9398h0.21272c0.0984-0.47943 0.18098-0.9652 0.2413-1.451h-0.20955c6e-3 0.17463-0.01 0.33655-0.13652 1.162l-0.3048-1.0287h-0.1397l-0.25083 1.0319-0.20955-1.0478c-6e-3 -0.0222-6e-3 -0.0318 3e-3 -0.0572 3e-3 -0.0159 0.0127-0.0381 3e-3 -0.0635z"/>
    <path d="m131.23 220.25 0.11113 0.14605c0.12065-0.12383 0.28257-0.16193 0.4191-0.16193 0.17145 0 0.25717 0.073 0.29845 0.1397 0.0476 0.0794 0.0445 0.17463 0.0445 0.25083v0.0508h-0.0445c-0.2159 0-0.4445 0-0.62865 0.0667-0.2286 0.0825-0.3302 0.254-0.3302 0.41275 0 0.21273 0.18415 0.41275 0.48577 0.41275 0.1778 0 0.36195-0.0667 0.5207-0.19685v0.15875h0.2159v-0.89852c0-0.11748-3e-3 -0.2286-0.0699-0.3429-0.0952-0.15558-0.2794-0.23813-0.50482-0.23813-0.19368 0-0.381 0.0603-0.51753 0.20003zm0.88265 0.60007v0.0984c0 0.073 0 0.16827-0.0984 0.27305-0.054 0.054-0.1905 0.17145-0.381 0.17145-0.19368 0-0.3048-0.12383-0.3048-0.25083 0-0.10795 0.073-0.22542 0.254-0.26987 0.13335-0.0317 0.32702-0.0222 0.47942-0.0222z"/>
    <path d="m132.85 220.08v1.451h0.2286v-0.70485c0-0.0889 3e-3 -0.18415 0.1016-0.33973 0.13335-0.20955 0.3048-0.24447 0.40957-0.24447 0.12065 0 0.19685 0.0572 0.23813 0.10795 0.019 0.0254 0.0286 0.0508 0.054 0.073l0.10795-0.21907c-0.0921-0.0953-0.22542-0.15875-0.38735-0.15875-0.21272 0-0.42862 0.10795-0.52387 0.31432l0.01-0.2794z"/>
    <path d="m135.3 220.29c-0.0699-0.14922-0.22543-0.24765-0.42545-0.24765-0.27623 0-0.61278 0.19685-0.61278 0.7493 0 0.53658 0.29845 0.77153 0.57785 0.77153 0.18415 0 0.3556-0.10478 0.44768-0.2667v0.127c0 0.0349 3e-3 0.0699 0.0127 0.10477h0.2286c-0.0127-0.0413-0.0127-0.0889-0.0127-0.13335l-3e-3 -1.886c0-0.019 0-0.0254 0.0127-0.0444 6e-3 -0.01 0.0191-0.0254 0.0159-0.0476h-0.2413zm-0.41593-0.0603c0.127 0 0.31433 0.0667 0.37148 0.28257 0.019 0.0667 0.0254 0.14605 0.0254 0.30798 0 0.11112-6e-3 0.1905-0.0318 0.2667-0.054 0.17145-0.20638 0.27305-0.3556 0.27305-0.1651 0-0.40958-0.127-0.40958-0.60325 0-0.41593 0.23178-0.52705 0.40005-0.52705z"/>
    <path d="m136.95 219.41c-0.48895 0.2159-0.80327 0.71438-0.80327 1.2954 0 0.57785 0.3048 1.1049 0.80645 1.3684l0.10477-0.16828c-0.43497-0.25082-0.68897-0.71755-0.68897-1.2097 0-0.45403 0.21907-0.86043 0.59055-1.0763 6e-3 -6e-3 0.0159-0.0127 0.0286-0.0127 0.01 0 0.019 6e-3 0.0317 6e-3 6e-3 0 0.0159-3e-3 0.0286-6e-3z"/>
    <path d="m138.75 220.32c-0.1143-0.16828-0.30797-0.26988-0.54292-0.26988-0.42545 0-0.72708 0.32068-0.72708 0.75565 0 0.43815 0.30163 0.762 0.71438 0.762 0.20002 0 0.39687-0.0825 0.5334-0.23177l-0.13018-0.1524c-0.0984 0.11112-0.2413 0.17462-0.38417 0.17462-0.28258 0-0.49848-0.23495-0.49848-0.57467 0-0.3302 0.21273-0.53658 0.47943-0.53658 0.24765 0 0.36512 0.17145 0.37465 0.1905 0.0127 0.0222-6e-3 0.054 0.019 0.073z"/>
    <path d="m140.35 220.81c0-0.50165-0.3175-0.762-0.6477-0.762-0.3683 0-0.6858 0.3175-0.6858 0.76835 0 0.44133 0.31433 0.75248 0.67945 0.75248 0.3429 0 0.65405-0.27623 0.65405-0.75883zm-0.66357-0.56832c0.20955 0 0.4318 0.18097 0.4318 0.57785 0 0.36512-0.20955 0.54927-0.4191 0.54927-0.23178 0-0.44133-0.2159-0.44133-0.57467 0-0.3556 0.20638-0.55245 0.42863-0.55245z"/>
    <path d="m140.69 221.52h0.23177v-0.83502c0-0.0952 0.0127-0.16828 0.073-0.24765 0.054-0.073 0.19367-0.2032 0.34607-0.2032 0.073 0 0.14605 0.0318 0.19685 0.0921 0.0794 0.0952 0.0794 0.21908 0.0794 0.32068v0.87312h0.22542v-0.87947c0-0.11113 0-0.23178-0.0508-0.34925-0.073-0.16193-0.22225-0.254-0.38735-0.254-0.19685 0-0.37465 0.127-0.4826 0.28892v-0.254h-0.23177z"/>
    <path d="m142.66 219.69-0.0286 0.39052h-0.34607l-3e-3 0.18733h0.33973c-0.019 0.24765-0.0286 0.4953-0.0286 0.73977 0 0.13018 0 0.27623 0.0857 0.39688 0.0699 0.0953 0.18097 0.1524 0.3302 0.1524 0.17145 0 0.33972-0.073 0.46355-0.16193l-0.0699-0.18097c-0.12383 0.0921-0.23813 0.13335-0.32703 0.13335-0.10795 0-0.21907-0.0603-0.24447-0.23495 0-0.0127-0.01-0.0667-0.01-0.2794 0-0.18733 0.01-0.37783 0.0286-0.56515h0.47625v-0.1905h-0.47308s0.0222-0.26035 0.0381-0.3429c3e-3 -0.0318 0.0286-0.0508 0.0159-0.0857z"/>
    <path d="m144.47 220.04c-0.34607 0-0.66675 0.24765-0.66675 0.7747 0 0.48577 0.30163 0.74295 0.69533 0.74295 0.20955 0 0.39687-0.0762 0.5207-0.22543l-0.127-0.12382c-0.0921 0.10795-0.23178 0.1651-0.37465 0.1651-0.19368 0-0.47625-0.10795-0.49213-0.54293h1.0287c0.01-0.0984 6e-3 -0.19367-0.01-0.27622-0.0667-0.39053-0.33655-0.51435-0.57468-0.51435zm-0.43815 0.61595c0.0476-0.3429 0.2667-0.44133 0.42228-0.44133 0.23495 0 0.40322 0.20638 0.37465 0.44133z"/>
    <path d="m146.39 220.07-0.36195 0.53657-0.381-0.53657h-0.24765l0.49848 0.71437-0.508 0.7366h0.25717l0.37783-0.56197 0.40005 0.56197h0.26035l-0.5334-0.74295 0.4699-0.70802z"/>
    <path d="m147.42 219.69-0.0286 0.39052h-0.34608l-3e-3 0.18733h0.33972c-0.0191 0.24765-0.0286 0.4953-0.0286 0.73977 0 0.13018 0 0.27623 0.0857 0.39688 0.0699 0.0953 0.18098 0.1524 0.3302 0.1524 0.17145 0 0.33973-0.073 0.46355-0.16193l-0.0699-0.18097c-0.12382 0.0921-0.23812 0.13335-0.32702 0.13335-0.10795 0-0.21908-0.0603-0.24448-0.23495 0-0.0127-0.01-0.0667-0.01-0.2794 0-0.18733 0.01-0.37783 0.0286-0.56515h0.47625v-0.1905h-0.47307s0.0222-0.26035 0.0381-0.3429c3e-3 -0.0318 0.0286-0.0508 0.0159-0.0857z"/>
    <path d="m149.38 221.46c0-0.16193-0.10795-0.26353-0.21907-0.26353-0.10478 0-0.18415 0.0857-0.18415 0.18098 0 0.0857 0.0603 0.12065 0.0889 0.1397 0.0286 0.019 0.073 0.0476 0.073 0.1143 0 0.0508-0.0286 0.10477-0.0444 0.13017-0.0318 0.0508-0.0857 0.13018-0.16192 0.20003l0.11112 0.0952c0.22225-0.22543 0.33655-0.4318 0.33655-0.5969z"/>
    <path d="m152.76 220.29c-0.0699-0.14922-0.22543-0.24765-0.42545-0.24765-0.27623 0-0.61278 0.19685-0.61278 0.7493 0 0.53658 0.29845 0.77153 0.57785 0.77153 0.18415 0 0.3556-0.10478 0.44768-0.2667v0.127c0 0.0349 3e-3 0.0699 0.0127 0.10477h0.2286c-0.0127-0.0413-0.0127-0.0889-0.0127-0.13335l-3e-3 -1.886c0-0.019 0-0.0254 0.0127-0.0444 6e-3 -0.01 0.019-0.0254 0.0159-0.0476h-0.2413zm-0.41593-0.0603c0.127 0 0.31433 0.0667 0.37148 0.28257 0.019 0.0667 0.0254 0.14605 0.0254 0.30798 0 0.11112-6e-3 0.1905-0.0317 0.2667-0.054 0.17145-0.20638 0.27305-0.3556 0.27305-0.1651 0-0.40958-0.127-0.40958-0.60325 0-0.41593 0.23178-0.52705 0.40005-0.52705z"/>
    <path d="m153.99 220.04c-0.34607 0-0.66675 0.24765-0.66675 0.7747 0 0.48577 0.30163 0.74295 0.69533 0.74295 0.20955 0 0.39687-0.0762 0.5207-0.22543l-0.127-0.12382c-0.0921 0.10795-0.23178 0.1651-0.37465 0.1651-0.19368 0-0.47625-0.10795-0.49213-0.54293h1.0287c0.01-0.0984 6e-3 -0.19367-0.01-0.27622-0.0667-0.39053-0.33655-0.51435-0.57468-0.51435zm-0.43815 0.61595c0.0476-0.3429 0.2667-0.44133 0.42228-0.44133 0.23495 0 0.40322 0.20638 0.37465 0.44133z"/>
    <path d="m155.03 219.42v0.18415h0.41275v1.7431h-0.4318v0.18097h1.089v-0.18097h-0.42862v-1.9272z"/>
    <path d="m156.63 220.25 0.11112 0.14605c0.12065-0.12383 0.28258-0.16193 0.4191-0.16193 0.17145 0 0.25718 0.073 0.29845 0.1397 0.0476 0.0794 0.0445 0.17463 0.0445 0.25083v0.0508h-0.0445c-0.2159 0-0.4445 0-0.62865 0.0667-0.2286 0.0825-0.3302 0.254-0.3302 0.41275 0 0.21273 0.18415 0.41275 0.48578 0.41275 0.1778 0 0.36195-0.0667 0.5207-0.19685v0.15875h0.2159v-0.89852c0-0.11748-3e-3 -0.2286-0.0699-0.3429-0.0952-0.15558-0.2794-0.23813-0.50483-0.23813-0.19367 0-0.381 0.0603-0.51752 0.20003zm0.88265 0.60007v0.0984c0 0.073 0 0.16827-0.0984 0.27305-0.054 0.054-0.1905 0.17145-0.381 0.17145-0.19367 0-0.3048-0.12383-0.3048-0.25083 0-0.10795 0.073-0.22542 0.254-0.26987 0.13335-0.0317 0.32703-0.0222 0.47943-0.0222z"/>
    <path d="m158.08 220.08 0.59055 1.4446-0.0476 0.10477c-0.0254 0.0603-0.054 0.12065-0.0984 0.16828-0.0603 0.0667-0.13653 0.0952-0.2032 0.0952-0.10795 0-0.16193-0.073-0.17145-0.0857-0.01-0.0159-6e-3 -0.0381-0.0254-0.054l-0.11748 0.20637c0.0825 0.0794 0.19368 0.12065 0.31433 0.12065 0.13017 0 0.2667-0.0476 0.36195-0.15557 0.0635-0.073 0.0952-0.14923 0.127-0.23178l0.45085-1.197c0.054-0.13653 0.1016-0.27623 0.14605-0.4191h-0.23813c-0.0254 0.13335-0.0667 0.26035-0.11112 0.38735l-0.27623 0.77787-0.42545-1.07c-3e-3 -0.01-3e-3 -0.0159-3e-3 -0.0254 0-0.0222 0.0159-0.0381 0.0127-0.0667z"/>
    <path d="m159.77 219.61c0.4191 0.22542 0.6858 0.65722 0.6858 1.1303 0 0.47625-0.27305 0.92075-0.70167 1.1462l0.0603 0.19368c0.52705-0.25083 0.86678-0.77788 0.86678-1.3494 0-0.56515-0.33338-1.0795-0.8509-1.3176z"/>
    <path d="m162.05 220.37c0-0.0984-0.0825-0.18098-0.18733-0.18098-0.10477 0-0.18732 0.0825-0.18732 0.18098 0 0.1016 0.0826 0.18097 0.18732 0.18097 0.10478 0 0.18733-0.0794 0.18733-0.18097zm0 1.0128c0-0.0984-0.0825-0.18097-0.18733-0.18097-0.10477 0-0.18732 0.0825-0.18732 0.18097 0 0.1016 0.0826 0.18415 0.18732 0.18415 0.10478 0 0.18733-0.0825 0.18733-0.18415z"/>
    <path d="m164.62 220.07v0.18732h0.34925v1.0827h-0.3683v0.18097h0.9398v-0.18097h-0.33973v-1.27zm0.4699-0.62865c-0.0921 0-0.1651 0.073-0.1651 0.16192 0 0.0889 0.073 0.16193 0.1651 0.16193s0.1651-0.073 0.1651-0.16193c0-0.0889-0.073-0.16192-0.1651-0.16192z"/>
    <path d="m166.09 221.52h0.23178v-0.83502c0-0.0952 0.0127-0.16828 0.073-0.24765 0.054-0.073 0.19368-0.2032 0.34608-0.2032 0.073 0 0.14605 0.0318 0.19685 0.0921 0.0794 0.0952 0.0794 0.21908 0.0794 0.32068v0.87312h0.22543v-0.87947c0-0.11113 0-0.23178-0.0508-0.34925-0.073-0.16193-0.22225-0.254-0.38735-0.254-0.19685 0-0.37465 0.127-0.4826 0.28892v-0.254h-0.23178z"/>
    <path d="m168.06 219.69-0.0286 0.39052h-0.34607l-3e-3 0.18733h0.33973c-0.019 0.24765-0.0286 0.4953-0.0286 0.73977 0 0.13018 0 0.27623 0.0857 0.39688 0.0699 0.0953 0.18097 0.1524 0.3302 0.1524 0.17145 0 0.33972-0.073 0.46355-0.16193l-0.0699-0.18097c-0.12383 0.0921-0.23813 0.13335-0.32703 0.13335-0.10795 0-0.21907-0.0603-0.24447-0.23495 0-0.0127-0.01-0.0667-0.01-0.2794 0-0.18733 0.01-0.37783 0.0286-0.56515h0.47625v-0.1905h-0.47308s0.0222-0.26035 0.0381-0.3429c3e-3 -0.0318 0.0286-0.0508 0.0159-0.0857z"/>
    <path d="m122.13 223.23v0.53975h-0.56198v0.19685h0.56198v0.59372h0.20002v-0.59372h0.54293v-0.19685h-0.54293v-0.53975z"/>
    <path d="m124.88 222.91v0.18733h0.36513v1.6097h-0.38735v0.18415h1.0224v-0.18097h-0.41275v-1.6129h0.39052v-0.18733z"/>
    <path d="m126.4 224.89h0.23178v-0.83503c0-0.0952 0.0127-0.16827 0.073-0.24765 0.054-0.073 0.19368-0.2032 0.34608-0.2032 0.073 0 0.14605 0.0317 0.19685 0.0921 0.0794 0.0952 0.0794 0.21907 0.0794 0.32067v0.87313h0.22543v-0.87948c0-0.11112 0-0.23177-0.0508-0.34925-0.073-0.16192-0.22225-0.254-0.38735-0.254-0.19685 0-0.37465 0.127-0.4826 0.28893v-0.254h-0.23178z"/>
    <path d="m128.37 223.05-0.0286 0.39053h-0.34608l-3e-3 0.18732h0.33972c-0.019 0.24765-0.0286 0.4953-0.0286 0.73978 0 0.13017 0 0.27622 0.0857 0.39687 0.0699 0.0952 0.18098 0.1524 0.3302 0.1524 0.17145 0 0.33973-0.073 0.46355-0.16192l-0.0699-0.18098c-0.12382 0.0921-0.23812 0.13335-0.32702 0.13335-0.10795 0-0.21908-0.0603-0.24448-0.23495 0-0.0127-0.01-0.0667-0.01-0.2794 0-0.18732 0.01-0.37782 0.0286-0.56515h0.47625v-0.1905h-0.47307s0.0222-0.26035 0.0381-0.3429c3e-3 -0.0317 0.0286-0.0508 0.0159-0.0857z"/>
    <path d="m130.18 223.41c-0.34607 0-0.66675 0.24765-0.66675 0.7747 0 0.48578 0.30163 0.74295 0.69533 0.74295 0.20955 0 0.39687-0.0762 0.5207-0.22542l-0.127-0.12383c-0.0921 0.10795-0.23178 0.1651-0.37465 0.1651-0.19368 0-0.47625-0.10795-0.49213-0.54292h1.0287c0.01-0.0984 6e-3 -0.19368-0.01-0.27623-0.0667-0.39052-0.33655-0.51435-0.57468-0.51435zm-0.43815 0.61595c0.0476-0.3429 0.2667-0.44132 0.42228-0.44132 0.23495 0 0.40322 0.20637 0.37465 0.44132z"/>
    <path d="m131.26 223.44v1.451h0.2286v-0.70485c0-0.0889 3e-3 -0.18415 0.1016-0.33972 0.13335-0.20955 0.3048-0.24448 0.40957-0.24448 0.12065 0 0.19685 0.0572 0.23813 0.10795 0.019 0.0254 0.0286 0.0508 0.054 0.073l0.10795-0.21908c-0.0921-0.0953-0.22542-0.15875-0.38735-0.15875-0.21272 0-0.42862 0.10795-0.52387 0.31433l0.01-0.2794z"/>
    <path d="m133.98 223.68c-0.1143-0.16827-0.30797-0.26987-0.54292-0.26987-0.42545 0-0.72708 0.32067-0.72708 0.75565 0 0.43815 0.30163 0.762 0.71438 0.762 0.20002 0 0.39687-0.0825 0.5334-0.23178l-0.13018-0.1524c-0.0984 0.11113-0.2413 0.17463-0.38417 0.17463-0.28258 0-0.49848-0.23495-0.49848-0.57468 0-0.3302 0.21273-0.53657 0.47943-0.53657 0.24765 0 0.36512 0.17145 0.37465 0.1905 0.0127 0.0222-6e-3 0.054 0.019 0.073z"/>
    <path d="m134.94 223.41c-0.34607 0-0.66675 0.24765-0.66675 0.7747 0 0.48578 0.30163 0.74295 0.69533 0.74295 0.20955 0 0.39687-0.0762 0.5207-0.22542l-0.127-0.12383c-0.0921 0.10795-0.23178 0.1651-0.37465 0.1651-0.19368 0-0.47625-0.10795-0.49213-0.54292h1.0287c0.01-0.0984 6e-3 -0.19368-0.01-0.27623-0.0667-0.39052-0.33655-0.51435-0.57468-0.51435zm-0.43815 0.61595c0.0476-0.3429 0.2667-0.44132 0.42228-0.44132 0.23495 0 0.40322 0.20637 0.37465 0.44132z"/>
    <path d="m135.9 223.44 3e-3 1.978h0.23177v-0.72072c0.0984 0.14287 0.26035 0.23177 0.43498 0.23177 0.29845 0 0.6096-0.25082 0.6096-0.78105 0-0.51117-0.30163-0.73977-0.58738-0.73977-0.18732 0-0.36195 0.0952-0.46037 0.254v-0.22225zm0.60643 0.16192c0.127 0 0.43497 0.0667 0.43497 0.59373 0 0.4572-0.29845 0.53022-0.43497 0.53022-0.13653 0-0.27623-0.0699-0.33338-0.20002-0.0413-0.0984-0.0413-0.21908-0.0413-0.42863 0-0.12065 6e-3 -0.20955 0.0381-0.28575 0.0571-0.13017 0.1905-0.20955 0.33655-0.20955z"/>
    <path d="m137.9 223.05-0.0286 0.39053h-0.34608l-3e-3 0.18732h0.33972c-0.019 0.24765-0.0286 0.4953-0.0286 0.73978 0 0.13017 0 0.27622 0.0857 0.39687 0.0699 0.0952 0.18098 0.1524 0.3302 0.1524 0.17145 0 0.33973-0.073 0.46355-0.16192l-0.0699-0.18098c-0.12382 0.0921-0.23812 0.13335-0.32702 0.13335-0.10795 0-0.21908-0.0603-0.24448-0.23495 0-0.0127-0.01-0.0667-0.01-0.2794 0-0.18732 0.01-0.37782 0.0286-0.56515h0.47625v-0.1905h-0.47307s0.0222-0.26035 0.0381-0.3429c3e-3 -0.0317 0.0286-0.0508 0.0159-0.0857z"/>
    <path d="m140.13 222.78c-0.48895 0.2159-0.80328 0.71437-0.80328 1.2954 0 0.57785 0.3048 1.1049 0.80645 1.3684l0.10478-0.16827c-0.43498-0.25083-0.68898-0.71755-0.68898-1.2097 0-0.45402 0.21908-0.86042 0.59055-1.0763 6e-3 -6e-3 0.0159-0.0127 0.0286-0.0127 0.01 0 0.019 6e-3 0.0317 6e-3 6e-3 0 0.0159-3e-3 0.0286-6e-3z"/>
    <path d="m141.07 223.05-0.0286 0.39053h-0.34607l-3e-3 0.18732h0.33973c-0.019 0.24765-0.0286 0.4953-0.0286 0.73978 0 0.13017 0 0.27622 0.0857 0.39687 0.0699 0.0952 0.18097 0.1524 0.3302 0.1524 0.17145 0 0.33972-0.073 0.46355-0.16192l-0.0699-0.18098c-0.12383 0.0921-0.23813 0.13335-0.32703 0.13335-0.10795 0-0.21907-0.0603-0.24447-0.23495 0-0.0127-0.01-0.0667-0.01-0.2794 0-0.18732 0.01-0.37782 0.0286-0.56515h0.47625v-0.1905h-0.47308s0.0222-0.26035 0.0381-0.3429c3e-3 -0.0317 0.0286-0.0508 0.0159-0.0857z"/>
    <path d="m142.2 223.44 0.59055 1.4446-0.0476 0.10478c-0.0254 0.0603-0.054 0.12065-0.0984 0.16827-0.0603 0.0667-0.13652 0.0953-0.2032 0.0953-0.10795 0-0.16192-0.073-0.17145-0.0857-0.01-0.0159-6e-3 -0.0381-0.0254-0.054l-0.11747 0.20638c0.0825 0.0794 0.19367 0.12065 0.31432 0.12065 0.13018 0 0.2667-0.0476 0.36195-0.15558 0.0635-0.073 0.0953-0.14922 0.127-0.23177l0.45085-1.197c0.054-0.13652 0.1016-0.27622 0.14605-0.4191h-0.23812c-0.0254 0.13335-0.0667 0.26035-0.11113 0.38735l-0.27622 0.77788-0.42545-1.07c-3e-3 -0.01-3e-3 -0.0159-3e-3 -0.0254 0-0.0222 0.0159-0.0381 0.0127-0.0667z"/>
    <path d="m143.84 223.44 3e-3 1.978h0.23178v-0.72072c0.0984 0.14287 0.26035 0.23177 0.43497 0.23177 0.29845 0 0.6096-0.25082 0.6096-0.78105 0-0.51117-0.30162-0.73977-0.58737-0.73977-0.18733 0-0.36195 0.0952-0.46038 0.254v-0.22225zm0.60642 0.16192c0.127 0 0.43498 0.0667 0.43498 0.59373 0 0.4572-0.29845 0.53022-0.43498 0.53022-0.13652 0-0.27622-0.0699-0.33337-0.20002-0.0413-0.0984-0.0413-0.21908-0.0413-0.42863 0-0.12065 6e-3 -0.20955 0.0381-0.28575 0.0571-0.13017 0.1905-0.20955 0.33655-0.20955z"/>
    <path d="m146.06 223.41c-0.34607 0-0.66675 0.24765-0.66675 0.7747 0 0.48578 0.30163 0.74295 0.69533 0.74295 0.20955 0 0.39687-0.0762 0.5207-0.22542l-0.127-0.12383c-0.0921 0.10795-0.23178 0.1651-0.37465 0.1651-0.19368 0-0.47625-0.10795-0.49213-0.54292h1.0287c0.01-0.0984 6e-3 -0.19368-0.01-0.27623-0.0667-0.39052-0.33655-0.51435-0.57468-0.51435zm-0.43815 0.61595c0.0476-0.3429 0.2667-0.44132 0.42228-0.44132 0.23495 0 0.40322 0.20637 0.37465 0.44132z"/>
    <path d="m147.07 222.98c0.4191 0.22543 0.6858 0.65723 0.6858 1.1303 0 0.47625-0.27305 0.92075-0.70168 1.1462l0.0603 0.19367c0.52705-0.25082 0.86677-0.77787 0.86677-1.3494 0-0.56515-0.33337-1.0795-0.8509-1.3176z"/>
    <path d="m149.35 223.73c0-0.0984-0.0825-0.18097-0.18732-0.18097-0.10478 0-0.18733 0.0825-0.18733 0.18097 0 0.1016 0.0825 0.18098 0.18733 0.18098 0.10477 0 0.18732-0.0794 0.18732-0.18098zm0 1.0128c0-0.0984-0.0825-0.18098-0.18732-0.18098-0.10478 0-0.18733 0.0825-0.18733 0.18098 0 0.1016 0.0825 0.18415 0.18733 0.18415 0.10477 0 0.18732-0.0825 0.18732-0.18415z"/>
    <path d="m151.92 223.44v0.18733h0.34925v1.0827h-0.3683v0.18098h0.9398v-0.18098h-0.33972v-1.27zm0.4699-0.62865c-0.0921 0-0.1651 0.073-0.1651 0.16193 0 0.0889 0.073 0.16192 0.1651 0.16192s0.1651-0.073 0.1651-0.16192c0-0.0889-0.073-0.16193-0.1651-0.16193z"/>
    <path d="m153.39 224.89h0.23178v-0.83503c0-0.0952 0.0127-0.16827 0.073-0.24765 0.054-0.073 0.19368-0.2032 0.34608-0.2032 0.073 0 0.14605 0.0317 0.19685 0.0921 0.0794 0.0952 0.0794 0.21907 0.0794 0.32067v0.87313h0.22543v-0.87948c0-0.11112 0-0.23177-0.0508-0.34925-0.073-0.16192-0.22225-0.254-0.38735-0.254-0.19685 0-0.37465 0.127-0.4826 0.28893v-0.254h-0.23178z"/>
    <path d="m155.36 223.05-0.0286 0.39053h-0.34607l-3e-3 0.18732h0.33973c-0.0191 0.24765-0.0286 0.4953-0.0286 0.73978 0 0.13017 0 0.27622 0.0857 0.39687 0.0699 0.0952 0.18097 0.1524 0.3302 0.1524 0.17145 0 0.33972-0.073 0.46355-0.16192l-0.0699-0.18098c-0.12383 0.0921-0.23813 0.13335-0.32703 0.13335-0.10795 0-0.21907-0.0603-0.24447-0.23495 0-0.0127-0.01-0.0667-0.01-0.2794 0-0.18732 0.01-0.37782 0.0286-0.56515h0.47625v-0.1905h-0.47308s0.0222-0.26035 0.0381-0.3429c3e-3 -0.0317 0.0286-0.0508 0.0159-0.0857z"/>
    <path d="m122.13 226.6v0.53975h-0.56198v0.19685h0.56198v0.59373h0.20002v-0.59373h0.54293v-0.19685h-0.54293v-0.53975z"/>
    <path d="m124.78 226.28v1.978h0.23178v-0.87312h0.38735c0.12382 0 0.2413-3e-3 0.36195-0.0635 0.18415-0.0921 0.2794-0.28258 0.2794-0.4826 0-0.20003-0.0952-0.3937-0.28258-0.48895-0.12382-0.0667-0.24765-0.0699-0.37465-0.0699zm0.23178 0.20955h0.37147c0.0825 0 0.16193 3e-3 0.24448 0.0413 0.12065 0.0635 0.18732 0.1905 0.18732 0.3175s-0.0635 0.24448-0.1778 0.30163c-0.0762 0.0381-0.1524 0.0413-0.2286 0.0413h-0.40005z"/>
    <path d="m126.38 226.81v0.80963c0 0.12382 0 0.25082 0.0572 0.381 0.0825 0.1905 0.26035 0.29527 0.45085 0.29527 0.18098 0 0.35243-0.0984 0.44768-0.25717l-3e-3 0.10795c0 0.0381 0 0.0762 6e-3 0.11112h0.2413c-0.0159-0.0413-0.019-0.0889-0.019-0.13017v-1.3176h-0.2286v0.79693c0 0.11112-0.01 0.19685-0.0572 0.28575-0.0667 0.12382-0.19685 0.2159-0.33655 0.2159-0.11112 0-0.21907-0.0635-0.27622-0.1778-0.0508-0.1016-0.0508-0.2159-0.0508-0.31115v-0.80963z"/>
    <path d="m127.96 226.15v2.1114h0.14922l0.0794-0.1905c0.0952 0.14288 0.254 0.2286 0.42862 0.2286 0.29845 0 0.60643-0.254 0.60643-0.78105 0-0.50482-0.29845-0.73977-0.5842-0.73977-0.18415 0-0.3556 0.0984-0.44768 0.25717v-0.8128c0-0.019 3e-3 -0.0254 0.019-0.0381 6e-3 -3e-3 0.0222-0.0159 0.0191-0.0349zm0.60007 0.8255c0.13653 0 0.42545 0.0794 0.42545 0.59372 0 0.44133-0.28575 0.52388-0.42862 0.52388-0.0984 0-0.3175-0.0381-0.3556-0.3175-0.01-0.073-0.01-0.15875-0.01-0.28575 0-0.13018 6e-3 -0.22543 0.0381-0.3048 0.054-0.13018 0.18733-0.20955 0.3302-0.20955z"/>
    <path d="m129.63 226.15v0.18415h0.41275v1.7431h-0.4318v0.18097h1.089v-0.18097h-0.42863v-1.9272z"/>
    <path d="m131.29 226.81v0.18732h0.34925v1.0827h-0.3683v0.18097h0.9398v-0.18097h-0.33972v-1.27zm0.4699-0.62865c-0.0921 0-0.1651 0.073-0.1651 0.16192 0 0.0889 0.073 0.16193 0.1651 0.16193s0.1651-0.073 0.1651-0.16193c0-0.0889-0.073-0.16192-0.1651-0.16192z"/>
    <path d="m133.91 227c-0.13335-0.14605-0.32702-0.22542-0.54292-0.22542-0.33655 0-0.55563 0.18732-0.55563 0.40322 0 0.254 0.27305 0.34608 0.35243 0.37465 0.12382 0.0444 0.28257 0.0825 0.39052 0.13335 0.12065 0.0571 0.14288 0.13335 0.14288 0.18415 0 0.13653-0.1651 0.2286-0.37148 0.2286-0.24765 0-0.4064-0.14922-0.45402-0.20002-0.01-0.0127-0.01-0.0222-0.01-0.0349 0-3e-3 3e-3 -0.0222-0.0127-0.0286l-0.13335 0.22542c0.17145 0.15875 0.3937 0.23178 0.61278 0.23178 0.39687 0 0.60325-0.23495 0.60325-0.45403 0-0.0984-0.0413-0.23177-0.21273-0.32702-0.16192-0.0921-0.39687-0.12383-0.5334-0.1905-0.11747-0.0571-0.14287-0.127-0.14287-0.1778 0-0.1143 0.14287-0.19685 0.3048-0.19685 0.20955 0 0.34925 0.127 0.40322 0.20002 0.01 0.01 6e-3 0.019 6e-3 0.0286 0 0.0191 0.0127 0.0254 0.019 0.0254z"/>
    <path d="m134.34 228.26h0.23495v-0.83502c0-0.0953 0.01-0.16828 0.0699-0.24765 0.0572-0.073 0.19685-0.2032 0.34925-0.2032 0.073 0 0.14605 0.0317 0.19685 0.0921 0.0794 0.0953 0.0794 0.21908 0.0794 0.32068v0.87312h0.22543v-0.87947c0-0.11113-3e-3 -0.23178-0.054-0.34925-0.073-0.16193-0.21907-0.254-0.38417-0.254-0.19685 0-0.37783 0.127-0.4826 0.28892v-0.84137c0-0.01 0-0.019 0.01-0.0286 0.01-0.01 0.0222-0.019 0.0222-0.0349 0-3e-3 0-6e-3 -3e-3 -0.01h-0.26352z"/>
    <path d="m136.95 226.14c-0.48895 0.2159-0.80327 0.71438-0.80327 1.2954 0 0.57785 0.3048 1.1049 0.80645 1.3684l0.10477-0.16828c-0.43497-0.25082-0.68897-0.71755-0.68897-1.2097 0-0.45403 0.21907-0.86043 0.59055-1.0763 6e-3 -6e-3 0.0159-0.0127 0.0286-0.0127 0.01 0 0.019 6e-3 0.0317 6e-3 6e-3 0 0.0159-3e-3 0.0286-6e-3z"/>
    <path d="m137.42 228.26h0.20955v-0.9652c0-0.0698 6e-3 -0.13335 0.0476-0.20955 0.0508-0.0953 0.1143-0.13335 0.17463-0.13335 0.0508 0 0.10795 0.0317 0.13335 0.11113 0.019 0.0603 0.0159 0.13017 0.0159 0.1905v1.0065h0.21273v-0.95885c0-0.0762 6e-3 -0.13652 0.0603-0.2286 0.0254-0.0381 0.0794-0.13017 0.16828-0.13017 0.0476 0 0.0921 0.0286 0.1143 0.0825 0.0286 0.0603 0.0222 0.14287 0.0222 0.20955v1.0287h0.2159v-1.0319c0-0.12065 3e-3 -0.2413-0.0603-0.33972-0.054-0.0825-0.14605-0.1143-0.22543-0.1143-0.1397 0-0.26987 0.0825-0.32702 0.20955-0.0222-0.12065-0.12383-0.20955-0.254-0.20955-0.12065 0-0.23178 0.0762-0.29845 0.1778l3e-3 -0.14288h-0.21272z"/>
    <path d="m139.71 226.77c-0.34607 0-0.66675 0.24765-0.66675 0.7747 0 0.48577 0.30163 0.74295 0.69533 0.74295 0.20955 0 0.39687-0.0762 0.5207-0.22543l-0.127-0.12382c-0.0921 0.10795-0.23178 0.1651-0.37465 0.1651-0.19368 0-0.47625-0.10795-0.49213-0.54293h1.0287c0.01-0.0984 6e-3 -0.19367-0.01-0.27622-0.0667-0.39053-0.33655-0.51435-0.57468-0.51435zm-0.43815 0.61595c0.0476-0.3429 0.2667-0.44133 0.42228-0.44133 0.23495 0 0.40322 0.20638 0.37465 0.44133z"/>
    <path d="m141.85 227c-0.13335-0.14605-0.32703-0.22542-0.54293-0.22542-0.33655 0-0.55562 0.18732-0.55562 0.40322 0 0.254 0.27305 0.34608 0.35242 0.37465 0.12383 0.0444 0.28258 0.0825 0.39053 0.13335 0.12065 0.0571 0.14287 0.13335 0.14287 0.18415 0 0.13653-0.1651 0.2286-0.37147 0.2286-0.24765 0-0.4064-0.14922-0.45403-0.20002-0.01-0.0127-0.01-0.0222-0.01-0.0349 0-3e-3 3e-3 -0.0222-0.0127-0.0286l-0.13335 0.22542c0.17145 0.15875 0.3937 0.23178 0.61277 0.23178 0.39688 0 0.60325-0.23495 0.60325-0.45403 0-0.0984-0.0413-0.23177-0.21272-0.32702-0.16193-0.0921-0.39688-0.12383-0.5334-0.1905-0.11748-0.0571-0.14288-0.127-0.14288-0.1778 0-0.1143 0.14288-0.19685 0.3048-0.19685 0.20955 0 0.34925 0.127 0.40323 0.20002 0.01 0.01 6e-3 0.019 6e-3 0.0286 0 0.0191 0.0127 0.0254 0.019 0.0254z"/>
    <path d="m143.43 227c-0.13335-0.14605-0.32703-0.22542-0.54293-0.22542-0.33655 0-0.55562 0.18732-0.55562 0.40322 0 0.254 0.27305 0.34608 0.35242 0.37465 0.12383 0.0444 0.28258 0.0825 0.39053 0.13335 0.12065 0.0571 0.14287 0.13335 0.14287 0.18415 0 0.13653-0.1651 0.2286-0.37147 0.2286-0.24765 0-0.4064-0.14922-0.45403-0.20002-0.01-0.0127-0.01-0.0222-0.01-0.0349 0-3e-3 3e-3 -0.0222-0.0127-0.0286l-0.13335 0.22542c0.17145 0.15875 0.3937 0.23178 0.61277 0.23178 0.39688 0 0.60325-0.23495 0.60325-0.45403 0-0.0984-0.0413-0.23177-0.21272-0.32702-0.16193-0.0921-0.39688-0.12383-0.5334-0.1905-0.11748-0.0571-0.14288-0.127-0.14288-0.1778 0-0.1143 0.14288-0.19685 0.3048-0.19685 0.20955 0 0.34925 0.127 0.40323 0.20002 0.01 0.01 6e-3 0.019 6e-3 0.0286 0 0.0191 0.0127 0.0254 0.019 0.0254z"/>
    <path d="m143.93 226.98 0.11113 0.14605c0.12065-0.12383 0.28257-0.16193 0.4191-0.16193 0.17145 0 0.25717 0.073 0.29845 0.1397 0.0476 0.0794 0.0444 0.17463 0.0444 0.25083v0.0508h-0.0444c-0.2159 0-0.4445 0-0.62865 0.0667-0.2286 0.0825-0.3302 0.254-0.3302 0.41275 0 0.21273 0.18415 0.41275 0.48577 0.41275 0.1778 0 0.36195-0.0667 0.5207-0.19685v0.15875h0.2159v-0.89852c0-0.11748-3e-3 -0.2286-0.0699-0.3429-0.0952-0.15558-0.2794-0.23813-0.50482-0.23813-0.19368 0-0.381 0.0603-0.51753 0.20003zm0.88265 0.60007v0.0984c0 0.073 0 0.16827-0.0984 0.27305-0.054 0.054-0.1905 0.17145-0.381 0.17145-0.19368 0-0.3048-0.12383-0.3048-0.25083 0-0.10795 0.073-0.22542 0.254-0.26987 0.13335-0.0317 0.32702-0.0222 0.47942-0.0222z"/>
    <path d="m145.63 227.26c0-0.17462 0.14605-0.3175 0.32067-0.3175 0.1778 0 0.32068 0.14288 0.32068 0.3175 0 0.17463-0.14288 0.3175-0.32068 0.3175s-0.32067-0.14287-0.32067-0.3175zm0.33337-0.49847c-0.28892 0-0.53975 0.2286-0.53975 0.51117 0 0.15875 0.0794 0.30798 0.21273 0.3937-0.10478 0.0889-0.1651 0.18733-0.1651 0.2794 0 0.0603 0.0254 0.14605 0.11747 0.19368-0.15557 0.0984-0.23495 0.20637-0.23495 0.32067 0 0.15875 0.14605 0.34608 0.65405 0.34608 0.49213 0 0.66993-0.25083 0.66993-0.4445 0-0.127-0.073-0.254-0.22543-0.31433-0.1524-0.0635-0.32702-0.0413-0.49212-0.0413-0.10795 0-0.1778-0.01-0.20638-0.019-0.0571-0.0159-0.0889-0.0508-0.0889-0.0952 0-0.0762 0.0889-0.14923 0.10478-0.16193 0.0572 0.0222 0.12065 0.0318 0.18415 0.0318 0.28575 0 0.5207-0.2286 0.5207-0.4953 0-0.0889-0.0254-0.17462-0.073-0.24765 0.0762-0.0445 0.1651-0.0699 0.254-0.0699 0.0286 0 0.054 3e-3 0.0825 0.01l-0.0254-0.18733c-0.14605-0.0127-0.2921 0.0349-0.40322 0.127-0.0921-0.0889-0.21273-0.13652-0.34608-0.13652zm-0.21907 1.4192c0.054 6e-3 0.13017 0.0127 0.2413 0.019 0.10795 3e-3 0.22542-6e-3 0.30797 6e-3 0.13335 0.0222 0.17463 0.10478 0.17463 0.16828s-0.0381 0.1397-0.13653 0.19367c-0.10795 0.0572-0.2286 0.0635-0.32702 0.0635-0.0667 0-0.1905-3e-3 -0.29845-0.0476-0.11748-0.0476-0.14288-0.127-0.14288-0.1778 0-0.10478 0.0984-0.18098 0.18098-0.22543z"/>
    <path d="m147.64 226.77c-0.34607 0-0.66675 0.24765-0.66675 0.7747 0 0.48577 0.30163 0.74295 0.69533 0.74295 0.20955 0 0.39687-0.0762 0.5207-0.22543l-0.127-0.12382c-0.0921 0.10795-0.23178 0.1651-0.37465 0.1651-0.19368 0-0.47625-0.10795-0.49213-0.54293h1.0287c0.01-0.0984 6e-3 -0.19367-0.01-0.27622-0.0667-0.39053-0.33655-0.51435-0.57468-0.51435zm-0.43815 0.61595c0.0476-0.3429 0.2667-0.44133 0.42228-0.44133 0.23495 0 0.40322 0.20638 0.37465 0.44133z"/>
    <path d="m149.38 228.2c0-0.16193-0.10795-0.26353-0.21907-0.26353-0.10478 0-0.18415 0.0857-0.18415 0.18098 0 0.0857 0.0603 0.12065 0.0889 0.1397 0.0286 0.019 0.073 0.0476 0.073 0.1143 0 0.0508-0.0286 0.10477-0.0444 0.13017-0.0318 0.0508-0.0857 0.13018-0.16192 0.20003l0.11112 0.0953c0.22225-0.22543 0.33655-0.4318 0.33655-0.5969z"/>
    <path d="m152.96 227c-0.13335-0.14605-0.32702-0.22542-0.54292-0.22542-0.33655 0-0.55563 0.18732-0.55563 0.40322 0 0.254 0.27305 0.34608 0.35243 0.37465 0.12382 0.0444 0.28257 0.0825 0.39052 0.13335 0.12065 0.0571 0.14288 0.13335 0.14288 0.18415 0 0.13653-0.1651 0.2286-0.37148 0.2286-0.24765 0-0.4064-0.14922-0.45402-0.20002-0.01-0.0127-0.01-0.0222-0.01-0.0349 0-3e-3 3e-3 -0.0222-0.0127-0.0286l-0.13335 0.22542c0.17145 0.15875 0.3937 0.23178 0.61278 0.23178 0.39687 0 0.60325-0.23495 0.60325-0.45403 0-0.0984-0.0413-0.23177-0.21273-0.32702-0.16192-0.0921-0.39687-0.12383-0.5334-0.1905-0.11747-0.0571-0.14287-0.127-0.14287-0.1778 0-0.1143 0.14287-0.19685 0.3048-0.19685 0.20955 0 0.34925 0.127 0.40322 0.20002 0.01 0.01 6e-3 0.019 6e-3 0.0286 0 0.0191 0.0127 0.0254 0.019 0.0254z"/>
    <path d="m154.62 227.05c-0.1143-0.16828-0.30797-0.26988-0.54292-0.26988-0.42545 0-0.72708 0.32068-0.72708 0.75565 0 0.43815 0.30163 0.762 0.71438 0.762 0.20002 0 0.39687-0.0825 0.5334-0.23177l-0.13018-0.1524c-0.0984 0.11112-0.2413 0.17462-0.38417 0.17462-0.28258 0-0.49848-0.23495-0.49848-0.57467 0-0.3302 0.21273-0.53658 0.47943-0.53658 0.24765 0 0.36512 0.17145 0.37465 0.1905 0.0127 0.0222-6e-3 0.054 0.019 0.073z"/>
    <path d="m156.22 227.54c0-0.50165-0.3175-0.762-0.6477-0.762-0.3683 0-0.6858 0.3175-0.6858 0.76835 0 0.44133 0.31432 0.75248 0.67945 0.75248 0.3429 0 0.65405-0.27623 0.65405-0.75883zm-0.66358-0.56832c0.20955 0 0.4318 0.18097 0.4318 0.57785 0 0.36512-0.20955 0.54927-0.4191 0.54927-0.23177 0-0.44132-0.2159-0.44132-0.57467 0-0.3556 0.20637-0.55245 0.42862-0.55245z"/>
    <path d="m156.54 226.81 3e-3 1.978h0.23177v-0.72073c0.0984 0.14288 0.26035 0.23178 0.43498 0.23178 0.29845 0 0.6096-0.25083 0.6096-0.78105 0-0.51118-0.30163-0.73978-0.58738-0.73978-0.18732 0-0.36195 0.0952-0.46037 0.254v-0.22225zm0.60643 0.16193c0.127 0 0.43497 0.0667 0.43497 0.59372 0 0.4572-0.29845 0.53023-0.43497 0.53023-0.13653 0-0.27623-0.0698-0.33338-0.20003-0.0413-0.0984-0.0413-0.21907-0.0413-0.42862 0-0.12065 6e-3 -0.20955 0.0381-0.28575 0.0572-0.13018 0.1905-0.20955 0.33655-0.20955z"/>
    <path d="m158.76 226.77c-0.34607 0-0.66675 0.24765-0.66675 0.7747 0 0.48577 0.30163 0.74295 0.69533 0.74295 0.20955 0 0.39687-0.0762 0.5207-0.22543l-0.127-0.12382c-0.0921 0.10795-0.23178 0.1651-0.37465 0.1651-0.19368 0-0.47625-0.10795-0.49213-0.54293h1.0287c0.01-0.0984 6e-3 -0.19367-0.01-0.27622-0.0667-0.39053-0.33655-0.51435-0.57468-0.51435zm-0.43815 0.61595c0.0476-0.3429 0.2667-0.44133 0.42228-0.44133 0.23495 0 0.40322 0.20638 0.37465 0.44133z"/>
    <path d="m160.49 228.2c0-0.16193-0.10795-0.26353-0.21907-0.26353-0.10478 0-0.18415 0.0857-0.18415 0.18098 0 0.0857 0.0603 0.12065 0.0889 0.1397 0.0286 0.019 0.073 0.0476 0.073 0.1143 0 0.0508-0.0286 0.10477-0.0445 0.13017-0.0317 0.0508-0.0857 0.13018-0.16192 0.20003l0.11112 0.0953c0.22225-0.22543 0.33655-0.4318 0.33655-0.5969z"/>
    <path d="m163.88 227.02c-0.0699-0.14922-0.22542-0.24765-0.42545-0.24765-0.27622 0-0.61277 0.19685-0.61277 0.7493 0 0.53658 0.29845 0.77153 0.57785 0.77153 0.18415 0 0.3556-0.10478 0.44767-0.2667v0.127c0 0.0349 3e-3 0.0699 0.0127 0.10477h0.2286c-0.0127-0.0413-0.0127-0.0889-0.0127-0.13335l-3e-3 -1.886c0-0.0191 0-0.0254 0.0127-0.0445 6e-3 -0.01 0.019-0.0254 0.0159-0.0476h-0.2413zm-0.41592-0.0603c0.127 0 0.31432 0.0667 0.37147 0.28257 0.019 0.0667 0.0254 0.14605 0.0254 0.30798 0 0.11112-6e-3 0.1905-0.0317 0.2667-0.054 0.17145-0.20637 0.27305-0.3556 0.27305-0.1651 0-0.40957-0.127-0.40957-0.60325 0-0.41593 0.23177-0.52705 0.40005-0.52705z"/>
    <path d="m165.11 226.77c-0.34608 0-0.66675 0.24765-0.66675 0.7747 0 0.48577 0.30162 0.74295 0.69532 0.74295 0.20955 0 0.39688-0.0762 0.5207-0.22543l-0.127-0.12382c-0.0921 0.10795-0.23177 0.1651-0.37465 0.1651-0.19367 0-0.47625-0.10795-0.49212-0.54293h1.0287c0.01-0.0984 6e-3 -0.19367-0.01-0.27622-0.0667-0.39053-0.33655-0.51435-0.57467-0.51435zm-0.43815 0.61595c0.0476-0.3429 0.2667-0.44133 0.42227-0.44133 0.23495 0 0.40323 0.20638 0.37465 0.44133z"/>
    <path d="m166.14 226.15v0.18415h0.41275v1.7431h-0.4318v0.18097h1.089v-0.18097h-0.42863v-1.9272z"/>
    <path d="m167.75 226.98 0.11112 0.14605c0.12065-0.12383 0.28258-0.16193 0.4191-0.16193 0.17145 0 0.25718 0.073 0.29845 0.1397 0.0476 0.0794 0.0444 0.17463 0.0444 0.25083v0.0508h-0.0444c-0.2159 0-0.4445 0-0.62865 0.0667-0.2286 0.0825-0.3302 0.254-0.3302 0.41275 0 0.21273 0.18415 0.41275 0.48578 0.41275 0.1778 0 0.36195-0.0667 0.5207-0.19685v0.15875h0.2159v-0.89852c0-0.11748-3e-3 -0.2286-0.0699-0.3429-0.0952-0.15558-0.2794-0.23813-0.50483-0.23813-0.19367 0-0.381 0.0603-0.51752 0.20003zm0.88265 0.60007v0.0984c0 0.073 0 0.16827-0.0984 0.27305-0.054 0.054-0.1905 0.17145-0.381 0.17145-0.19367 0-0.3048-0.12383-0.3048-0.25083 0-0.10795 0.073-0.22542 0.254-0.26987 0.13335-0.0317 0.32703-0.0222 0.47943-0.0222z"/>
    <path d="m169.19 226.81 0.59055 1.4446-0.0476 0.10477c-0.0254 0.0603-0.054 0.12065-0.0984 0.16828-0.0603 0.0667-0.13653 0.0952-0.2032 0.0952-0.10795 0-0.16193-0.073-0.17145-0.0857-0.01-0.0159-6e-3 -0.0381-0.0254-0.054l-0.11748 0.20637c0.0826 0.0794 0.19368 0.12065 0.31433 0.12065 0.13017 0 0.2667-0.0476 0.36195-0.15557 0.0635-0.073 0.0952-0.14923 0.127-0.23178l0.45085-1.197c0.054-0.13653 0.1016-0.27623 0.14605-0.4191h-0.23813c-0.0254 0.13335-0.0667 0.26035-0.11112 0.38735l-0.27623 0.77787-0.42545-1.07c-3e-3 -0.01-3e-3 -0.0159-3e-3 -0.0254 0-0.0222 0.0159-0.0381 0.0127-0.0667z"/>
    <path d="m171.6 228.2c0-0.16193-0.10795-0.26353-0.21907-0.26353-0.10478 0-0.18415 0.0857-0.18415 0.18098 0 0.0857 0.0603 0.12065 0.0889 0.1397 0.0286 0.019 0.073 0.0476 0.073 0.1143 0 0.0508-0.0286 0.10477-0.0444 0.13017-0.0318 0.0508-0.0857 0.13018-0.16192 0.20003l0.11112 0.0953c0.22225-0.22543 0.33655-0.4318 0.33655-0.5969z"/>
    <path d="m174.63 226.77c-0.34607 0-0.66675 0.24765-0.66675 0.7747 0 0.48577 0.30163 0.74295 0.69533 0.74295 0.20955 0 0.39687-0.0762 0.5207-0.22543l-0.127-0.12382c-0.0921 0.10795-0.23178 0.1651-0.37465 0.1651-0.19368 0-0.47625-0.10795-0.49213-0.54293h1.0287c0.01-0.0984 6e-3 -0.19367-0.01-0.27622-0.0667-0.39053-0.33655-0.51435-0.57468-0.51435zm-0.43815 0.61595c0.0476-0.3429 0.2667-0.44133 0.42228-0.44133 0.23495 0 0.40322 0.20638 0.37465 0.44133z"/>
    <path d="m176.55 226.81-0.36195 0.53657-0.381-0.53657h-0.24765l0.49847 0.71437-0.508 0.7366h0.25718l0.37782-0.56197 0.40005 0.56197h0.26035l-0.5334-0.74295 0.4699-0.70802z"/>
    <path d="m177.17 226.81 3e-3 1.978h0.23178v-0.72073c0.0984 0.14288 0.26035 0.23178 0.43497 0.23178 0.29845 0 0.6096-0.25083 0.6096-0.78105 0-0.51118-0.30162-0.73978-0.58737-0.73978-0.18733 0-0.36195 0.0952-0.46038 0.254v-0.22225zm0.60642 0.16193c0.127 0 0.43498 0.0667 0.43498 0.59372 0 0.4572-0.29845 0.53023-0.43498 0.53023-0.13652 0-0.27622-0.0698-0.33337-0.20003-0.0413-0.0984-0.0413-0.21907-0.0413-0.42862 0-0.12065 6e-3 -0.20955 0.0381-0.28575 0.0571-0.13018 0.1905-0.20955 0.33655-0.20955z"/>
    <path d="m178.91 226.81v0.18732h0.34925v1.0827h-0.3683v0.18097h0.9398v-0.18097h-0.33973v-1.27zm0.4699-0.62865c-0.0921 0-0.1651 0.073-0.1651 0.16192 0 0.0889 0.073 0.16193 0.1651 0.16193s0.1651-0.073 0.1651-0.16193c0-0.0889-0.073-0.16192-0.1651-0.16192z"/>
    <path d="m180.48 226.81v1.451h0.2286v-0.70485c0-0.0889 3e-3 -0.18415 0.1016-0.33973 0.13335-0.20955 0.3048-0.24447 0.40958-0.24447 0.12065 0 0.19685 0.0571 0.23812 0.10795 0.019 0.0254 0.0286 0.0508 0.054 0.073l0.10795-0.21907c-0.0921-0.0952-0.22543-0.15875-0.38735-0.15875-0.21273 0-0.42863 0.10795-0.52388 0.31432l0.01-0.2794z"/>
    <path d="m182.03 226.98 0.11113 0.14605c0.12065-0.12383 0.28257-0.16193 0.4191-0.16193 0.17145 0 0.25717 0.073 0.29845 0.1397 0.0476 0.0794 0.0445 0.17463 0.0445 0.25083v0.0508h-0.0445c-0.2159 0-0.4445 0-0.62865 0.0667-0.2286 0.0825-0.3302 0.254-0.3302 0.41275 0 0.21273 0.18415 0.41275 0.48577 0.41275 0.1778 0 0.36195-0.0667 0.5207-0.19685v0.15875h0.2159v-0.89852c0-0.11748-3e-3 -0.2286-0.0699-0.3429-0.0952-0.15558-0.2794-0.23813-0.50482-0.23813-0.19368 0-0.381 0.0603-0.51753 0.20003zm0.88265 0.60007v0.0984c0 0.073 0 0.16827-0.0984 0.27305-0.054 0.054-0.1905 0.17145-0.381 0.17145-0.19368 0-0.3048-0.12383-0.3048-0.25083 0-0.10795 0.073-0.22542 0.254-0.26987 0.13335-0.0317 0.32702-0.0222 0.47942-0.0222z"/>
    <path d="m183.93 226.42-0.0286 0.39052h-0.34607l-3e-3 0.18733h0.33973c-0.019 0.24765-0.0286 0.4953-0.0286 0.73977 0 0.13018 0 0.27623 0.0857 0.39688 0.0699 0.0952 0.18097 0.1524 0.3302 0.1524 0.17145 0 0.33972-0.073 0.46355-0.16193l-0.0699-0.18097c-0.12383 0.0921-0.23813 0.13335-0.32703 0.13335-0.10795 0-0.21907-0.0603-0.24447-0.23495 0-0.0127-0.01-0.0667-0.01-0.2794 0-0.18733 0.01-0.37783 0.0286-0.56515h0.47625v-0.1905h-0.47308s0.0222-0.26035 0.0381-0.3429c3e-3 -0.0317 0.0286-0.0508 0.0159-0.0857z"/>
    <path d="m185.26 226.81v0.18732h0.34925v1.0827h-0.3683v0.18097h0.9398v-0.18097h-0.33972v-1.27zm0.4699-0.62865c-0.0921 0-0.1651 0.073-0.1651 0.16192 0 0.0889 0.073 0.16193 0.1651 0.16193s0.1651-0.073 0.1651-0.16193c0-0.0889-0.073-0.16192-0.1651-0.16192z"/>
    <path d="m187.97 227.54c0-0.50165-0.3175-0.762-0.6477-0.762-0.3683 0-0.6858 0.3175-0.6858 0.76835 0 0.44133 0.31433 0.75248 0.67945 0.75248 0.3429 0 0.65405-0.27623 0.65405-0.75883zm-0.66357-0.56832c0.20955 0 0.4318 0.18097 0.4318 0.57785 0 0.36512-0.20955 0.54927-0.4191 0.54927-0.23178 0-0.44133-0.2159-0.44133-0.57467 0-0.3556 0.20638-0.55245 0.42863-0.55245z"/>
    <path d="m188.32 228.26h0.23177v-0.83502c0-0.0953 0.0127-0.16828 0.073-0.24765 0.054-0.073 0.19367-0.2032 0.34607-0.2032 0.073 0 0.14605 0.0317 0.19685 0.0921 0.0794 0.0953 0.0794 0.21908 0.0794 0.32068v0.87312h0.22542v-0.87947c0-0.11113 0-0.23178-0.0508-0.34925-0.073-0.16193-0.22225-0.254-0.38735-0.254-0.19685 0-0.37465 0.127-0.4826 0.28892v-0.254h-0.23177z"/>
    <path d="m189.93 226.34c0.4191 0.22542 0.6858 0.65722 0.6858 1.1303 0 0.47625-0.27305 0.92075-0.70167 1.1462l0.0603 0.19368c0.52705-0.25083 0.86678-0.77788 0.86678-1.3494 0-0.56515-0.33338-1.0795-0.8509-1.3176z"/>
    <path d="m192.22 227.1c0-0.0984-0.0825-0.18098-0.18732-0.18098-0.10478 0-0.18733 0.0825-0.18733 0.18098 0 0.1016 0.0825 0.18097 0.18733 0.18097 0.10477 0 0.18732-0.0794 0.18732-0.18097zm0 1.0128c0-0.0984-0.0825-0.18097-0.18732-0.18097-0.10478 0-0.18733 0.0825-0.18733 0.18097 0 0.1016 0.0825 0.18415 0.18733 0.18415 0.10477 0 0.18732-0.0825 0.18732-0.18415z"/>
    <path d="m194.79 226.81v0.18732h0.34925v1.0827h-0.3683v0.18097h0.9398v-0.18097h-0.33972v-1.27zm0.4699-0.62865c-0.0921 0-0.1651 0.073-0.1651 0.16192 0 0.0889 0.073 0.16193 0.1651 0.16193s0.1651-0.073 0.1651-0.16193c0-0.0889-0.073-0.16192-0.1651-0.16192z"/>
    <path d="m196.25 228.26h0.23177v-0.83502c0-0.0953 0.0127-0.16828 0.073-0.24765 0.054-0.073 0.19367-0.2032 0.34607-0.2032 0.073 0 0.14605 0.0317 0.19685 0.0921 0.0794 0.0953 0.0794 0.21908 0.0794 0.32068v0.87312h0.22542v-0.87947c0-0.11113 0-0.23178-0.0508-0.34925-0.073-0.16193-0.22225-0.254-0.38735-0.254-0.19685 0-0.37465 0.127-0.4826 0.28892v-0.254h-0.23177z"/>
    <path d="m198.22 226.42-0.0286 0.39052h-0.34607l-3e-3 0.18733h0.33973c-0.019 0.24765-0.0286 0.4953-0.0286 0.73977 0 0.13018 0 0.27623 0.0857 0.39688 0.0699 0.0952 0.18097 0.1524 0.3302 0.1524 0.17145 0 0.33972-0.073 0.46355-0.16193l-0.0699-0.18097c-0.12383 0.0921-0.23813 0.13335-0.32703 0.13335-0.10795 0-0.21907-0.0603-0.24447-0.23495 0-0.0127-0.01-0.0667-0.01-0.2794 0-0.18733 0.01-0.37783 0.0286-0.56515h0.47625v-0.1905h-0.47308s0.0222-0.26035 0.0381-0.3429c3e-3 -0.0317 0.0286-0.0508 0.0159-0.0857z"/>
    <path d="m122.13 229.97v0.53975h-0.56198v0.19685h0.56198v0.59372h0.20002v-0.59372h0.54293v-0.19685h-0.54293v-0.53975z"/>
    <path d="m124.78 229.65v1.978h0.22225v-0.87313h0.38418l0.43815 0.87313h0.25082l-0.4572-0.87948c0.23813-0.0667 0.40323-0.2921 0.40323-0.55562 0-0.19685-0.0984-0.38418-0.28258-0.47625-0.12382-0.0635-0.24765-0.0667-0.37782-0.0667zm0.22225 0.20955h0.35878c0.0825 0 0.16192 3e-3 0.24447 0.0413 0.12383 0.0635 0.18733 0.1905 0.18733 0.3175s-0.0603 0.24447-0.17463 0.30162c-0.0762 0.0381-0.1524 0.0413-0.23177 0.0413h-0.38418z"/>
    <path d="m127.01 230.14c-0.34607 0-0.66675 0.24765-0.66675 0.7747 0 0.48578 0.30163 0.74295 0.69533 0.74295 0.20955 0 0.39687-0.0762 0.5207-0.22542l-0.127-0.12383c-0.0921 0.10795-0.23178 0.1651-0.37465 0.1651-0.19368 0-0.47625-0.10795-0.49213-0.54292h1.0287c0.01-0.0984 6e-3 -0.19368-0.01-0.27623-0.0667-0.39052-0.33655-0.51435-0.57468-0.51435zm-0.43815 0.61595c0.0476-0.3429 0.2667-0.44132 0.42228-0.44132 0.23495 0 0.40322 0.20637 0.37465 0.44132z"/>
    <path d="m128.17 230.63c0-0.17463 0.14605-0.3175 0.32067-0.3175 0.1778 0 0.32068 0.14287 0.32068 0.3175 0 0.17462-0.14288 0.3175-0.32068 0.3175s-0.32067-0.14288-0.32067-0.3175zm0.33337-0.49848c-0.28892 0-0.53975 0.2286-0.53975 0.51118 0 0.15875 0.0794 0.30797 0.21273 0.3937-0.10478 0.0889-0.1651 0.18732-0.1651 0.2794 0 0.0603 0.0254 0.14605 0.11747 0.19367-0.15557 0.0984-0.23495 0.20638-0.23495 0.32068 0 0.15875 0.14605 0.34607 0.65405 0.34607 0.49213 0 0.66993-0.25082 0.66993-0.4445 0-0.127-0.073-0.254-0.22543-0.31432-0.1524-0.0635-0.32702-0.0413-0.49212-0.0413-0.10795 0-0.1778-0.01-0.20638-0.019-0.0572-0.0159-0.0889-0.0508-0.0889-0.0952 0-0.0762 0.0889-0.14922 0.10478-0.16192 0.0572 0.0222 0.12065 0.0317 0.18415 0.0317 0.28575 0 0.5207-0.2286 0.5207-0.4953 0-0.0889-0.0254-0.17463-0.073-0.24765 0.0762-0.0445 0.1651-0.0699 0.254-0.0699 0.0286 0 0.054 3e-3 0.0825 0.01l-0.0254-0.18732c-0.14605-0.0127-0.2921 0.0349-0.40322 0.127-0.0921-0.0889-0.21273-0.13653-0.34608-0.13653zm-0.21907 1.4192c0.054 6e-3 0.13017 0.0127 0.2413 0.019 0.10795 3e-3 0.22542-6e-3 0.30797 6e-3 0.13335 0.0222 0.17463 0.10477 0.17463 0.16827s-0.0381 0.1397-0.13653 0.19368c-0.10795 0.0572-0.2286 0.0635-0.32702 0.0635-0.0667 0-0.1905-3e-3 -0.29845-0.0476-0.11748-0.0476-0.14288-0.127-0.14288-0.1778 0-0.10477 0.0984-0.18097 0.18098-0.22542z"/>
    <path d="m129.7 230.17v0.18733h0.34925v1.0827h-0.3683v0.18098h0.9398v-0.18098h-0.33972v-1.27zm0.4699-0.62865c-0.0921 0-0.1651 0.073-0.1651 0.16193 0 0.0889 0.073 0.16192 0.1651 0.16192s0.1651-0.073 0.1651-0.16192c0-0.0889-0.073-0.16193-0.1651-0.16193z"/>
    <path d="m132.32 230.37c-0.13335-0.14605-0.32702-0.22543-0.54292-0.22543-0.33655 0-0.55563 0.18733-0.55563 0.40323 0 0.254 0.27305 0.34607 0.35243 0.37465 0.12382 0.0444 0.28257 0.0825 0.39052 0.13335 0.12065 0.0572 0.14288 0.13335 0.14288 0.18415 0 0.13652-0.1651 0.2286-0.37148 0.2286-0.24765 0-0.4064-0.14923-0.45402-0.20003-0.01-0.0127-0.01-0.0222-0.01-0.0349 0-3e-3 3e-3 -0.0222-0.0127-0.0286l-0.13335 0.22543c0.17145 0.15875 0.3937 0.23177 0.61278 0.23177 0.39687 0 0.60325-0.23495 0.60325-0.45402 0-0.0984-0.0413-0.23178-0.21273-0.32703-0.16192-0.0921-0.39687-0.12382-0.5334-0.1905-0.11747-0.0572-0.14287-0.127-0.14287-0.1778 0-0.1143 0.14287-0.19685 0.3048-0.19685 0.20955 0 0.34925 0.127 0.40322 0.20003 0.01 0.01 6e-3 0.0191 6e-3 0.0286 0 0.019 0.0127 0.0254 0.0191 0.0254z"/>
    <path d="m133.13 229.79-0.0286 0.39053h-0.34608l-3e-3 0.18732h0.33972c-0.019 0.24765-0.0286 0.4953-0.0286 0.73978 0 0.13017 0 0.27622 0.0857 0.39687 0.0699 0.0952 0.18098 0.1524 0.3302 0.1524 0.17145 0 0.33973-0.073 0.46355-0.16192l-0.0699-0.18098c-0.12382 0.0921-0.23812 0.13335-0.32702 0.13335-0.10795 0-0.21908-0.0603-0.24448-0.23495 0-0.0127-0.01-0.0667-0.01-0.2794 0-0.18732 0.01-0.37782 0.0286-0.56515h0.47625v-0.1905h-0.47307s0.0222-0.26035 0.0381-0.3429c3e-3 -0.0318 0.0286-0.0508 0.0159-0.0857z"/>
    <path d="m134.94 230.14c-0.34607 0-0.66675 0.24765-0.66675 0.7747 0 0.48578 0.30163 0.74295 0.69533 0.74295 0.20955 0 0.39687-0.0762 0.5207-0.22542l-0.127-0.12383c-0.0921 0.10795-0.23178 0.1651-0.37465 0.1651-0.19368 0-0.47625-0.10795-0.49213-0.54292h1.0287c0.01-0.0984 6e-3 -0.19368-0.01-0.27623-0.0667-0.39052-0.33655-0.51435-0.57468-0.51435zm-0.43815 0.61595c0.0476-0.3429 0.2667-0.44132 0.42228-0.44132 0.23495 0 0.40322 0.20637 0.37465 0.44132z"/>
    <path d="m136.03 230.18v1.451h0.2286v-0.70485c0-0.0889 3e-3 -0.18415 0.1016-0.33972 0.13335-0.20955 0.3048-0.24448 0.40958-0.24448 0.12065 0 0.19685 0.0571 0.23812 0.10795 0.019 0.0254 0.0286 0.0508 0.054 0.073l0.10795-0.21908c-0.0921-0.0952-0.22543-0.15875-0.38735-0.15875-0.21273 0-0.42863 0.10795-0.52388 0.31433l0.01-0.2794z"/>
    <path d="m138.54 229.51c-0.48895 0.2159-0.80328 0.71437-0.80328 1.2954 0 0.57785 0.3048 1.1049 0.80645 1.3684l0.10478-0.16827c-0.43498-0.25083-0.68898-0.71755-0.68898-1.2097 0-0.45402 0.21908-0.86042 0.59055-1.0763 6e-3 -6e-3 0.0159-0.0127 0.0286-0.0127 0.01 0 0.019 6e-3 0.0317 6e-3 6e-3 0 0.0159-3e-3 0.0286-6e-3z"/>
    <path d="m139.17 230.34 0.11113 0.14605c0.12065-0.12382 0.28257-0.16192 0.4191-0.16192 0.17145 0 0.25717 0.073 0.29845 0.1397 0.0476 0.0794 0.0445 0.17462 0.0445 0.25082v0.0508h-0.0445c-0.2159 0-0.4445 0-0.62865 0.0667-0.2286 0.0825-0.3302 0.254-0.3302 0.41275 0 0.21272 0.18415 0.41275 0.48577 0.41275 0.1778 0 0.36195-0.0667 0.5207-0.19685v0.15875h0.2159v-0.89853c0-0.11747-3e-3 -0.2286-0.0699-0.3429-0.0952-0.15557-0.2794-0.23812-0.50482-0.23812-0.19368 0-0.381 0.0603-0.51753 0.20002zm0.88265 0.60008v0.0984c0 0.073 0 0.16828-0.0984 0.27305-0.054 0.054-0.1905 0.17145-0.381 0.17145-0.19368 0-0.3048-0.12382-0.3048-0.25082 0-0.10795 0.073-0.22543 0.254-0.26988 0.13335-0.0318 0.32702-0.0222 0.47942-0.0222z"/>
    <path d="m141.65 230.39c-0.0699-0.14923-0.22542-0.24765-0.42545-0.24765-0.27622 0-0.61277 0.19685-0.61277 0.7493 0 0.53657 0.29845 0.77152 0.57785 0.77152 0.18415 0 0.3556-0.10477 0.44767-0.2667v0.127c0 0.0349 3e-3 0.0699 0.0127 0.10478h0.2286c-0.0127-0.0413-0.0127-0.0889-0.0127-0.13335l-3e-3 -1.886c0-0.019 0-0.0254 0.0127-0.0444 6e-3 -0.01 0.019-0.0254 0.0159-0.0476h-0.2413zm-0.41592-0.0603c0.127 0 0.31432 0.0667 0.37147 0.28258 0.019 0.0667 0.0254 0.14605 0.0254 0.30797 0 0.11113-6e-3 0.1905-0.0318 0.2667-0.054 0.17145-0.20637 0.27305-0.3556 0.27305-0.1651 0-0.40957-0.127-0.40957-0.60325 0-0.41592 0.23177-0.52705 0.40005-0.52705z"/>
    <path d="m143.24 230.39c-0.0699-0.14923-0.22542-0.24765-0.42545-0.24765-0.27622 0-0.61277 0.19685-0.61277 0.7493 0 0.53657 0.29845 0.77152 0.57785 0.77152 0.18415 0 0.3556-0.10477 0.44767-0.2667v0.127c0 0.0349 3e-3 0.0699 0.0127 0.10478h0.2286c-0.0127-0.0413-0.0127-0.0889-0.0127-0.13335l-3e-3 -1.886c0-0.019 0-0.0254 0.0127-0.0444 6e-3 -0.01 0.0191-0.0254 0.0159-0.0476h-0.2413zm-0.41592-0.0603c0.127 0 0.31432 0.0667 0.37147 0.28258 0.0191 0.0667 0.0254 0.14605 0.0254 0.30797 0 0.11113-6e-3 0.1905-0.0318 0.2667-0.054 0.17145-0.20637 0.27305-0.3556 0.27305-0.1651 0-0.40957-0.127-0.40957-0.60325 0-0.41592 0.23177-0.52705 0.40005-0.52705z"/>
    <path d="m143.96 230.18v1.451h0.2286v-0.70485c0-0.0889 3e-3 -0.18415 0.1016-0.33972 0.13335-0.20955 0.3048-0.24448 0.40957-0.24448 0.12065 0 0.19685 0.0571 0.23813 0.10795 0.019 0.0254 0.0286 0.0508 0.054 0.073l0.10795-0.21908c-0.0921-0.0952-0.22542-0.15875-0.38735-0.15875-0.21272 0-0.42862 0.10795-0.52387 0.31433l0.01-0.2794z"/>
    <path d="m146.06 230.14c-0.34607 0-0.66675 0.24765-0.66675 0.7747 0 0.48578 0.30163 0.74295 0.69533 0.74295 0.20955 0 0.39687-0.0762 0.5207-0.22542l-0.127-0.12383c-0.0921 0.10795-0.23178 0.1651-0.37465 0.1651-0.19368 0-0.47625-0.10795-0.49213-0.54292h1.0287c0.01-0.0984 6e-3 -0.19368-0.01-0.27623-0.0667-0.39052-0.33655-0.51435-0.57468-0.51435zm-0.43815 0.61595c0.0476-0.3429 0.2667-0.44132 0.42228-0.44132 0.23495 0 0.40322 0.20637 0.37465 0.44132z"/>
    <path d="m148.2 230.37c-0.13335-0.14605-0.32702-0.22543-0.54292-0.22543-0.33655 0-0.55563 0.18733-0.55563 0.40323 0 0.254 0.27305 0.34607 0.35243 0.37465 0.12382 0.0444 0.28257 0.0825 0.39052 0.13335 0.12065 0.0572 0.14288 0.13335 0.14288 0.18415 0 0.13652-0.1651 0.2286-0.37148 0.2286-0.24765 0-0.4064-0.14923-0.45402-0.20003-0.01-0.0127-0.01-0.0222-0.01-0.0349 0-3e-3 3e-3 -0.0222-0.0127-0.0286l-0.13335 0.22543c0.17145 0.15875 0.3937 0.23177 0.61278 0.23177 0.39687 0 0.60325-0.23495 0.60325-0.45402 0-0.0984-0.0413-0.23178-0.21273-0.32703-0.16192-0.0921-0.39687-0.12382-0.5334-0.1905-0.11747-0.0572-0.14287-0.127-0.14287-0.1778 0-0.1143 0.14287-0.19685 0.3048-0.19685 0.20955 0 0.34925 0.127 0.40322 0.20003 0.01 0.01 6e-3 0.0191 6e-3 0.0286 0 0.019 0.0127 0.0254 0.0191 0.0254z"/>
    <path d="m149.78 230.37c-0.13335-0.14605-0.32703-0.22543-0.54293-0.22543-0.33655 0-0.55562 0.18733-0.55562 0.40323 0 0.254 0.27305 0.34607 0.35242 0.37465 0.12383 0.0444 0.28258 0.0825 0.39053 0.13335 0.12065 0.0572 0.14287 0.13335 0.14287 0.18415 0 0.13652-0.1651 0.2286-0.37147 0.2286-0.24765 0-0.4064-0.14923-0.45403-0.20003-0.01-0.0127-0.01-0.0222-0.01-0.0349 0-3e-3 3e-3 -0.0222-0.0127-0.0286l-0.13335 0.22543c0.17145 0.15875 0.3937 0.23177 0.61277 0.23177 0.39688 0 0.60325-0.23495 0.60325-0.45402 0-0.0984-0.0413-0.23178-0.21272-0.32703-0.16193-0.0921-0.39688-0.12382-0.5334-0.1905-0.11748-0.0572-0.14288-0.127-0.14288-0.1778 0-0.1143 0.14288-0.19685 0.3048-0.19685 0.20955 0 0.34925 0.127 0.40323 0.20003 0.01 0.01 6e-3 0.0191 6e-3 0.0286 0 0.019 0.0127 0.0254 0.019 0.0254z"/>
    <path d="m150.24 229.71c0.4191 0.22543 0.6858 0.65723 0.6858 1.1303 0 0.47625-0.27305 0.92075-0.70167 1.1462l0.0603 0.19367c0.52705-0.25082 0.86678-0.77787 0.86678-1.3494 0-0.56515-0.33338-1.0795-0.8509-1.3176z"/>
    <path d="m152.53 230.46c0-0.0984-0.0826-0.18097-0.18733-0.18097-0.10477 0-0.18732 0.0825-0.18732 0.18097 0 0.1016 0.0825 0.18098 0.18732 0.18098 0.10478 0 0.18733-0.0794 0.18733-0.18098zm0 1.0128c0-0.0984-0.0826-0.18098-0.18733-0.18098-0.10477 0-0.18732 0.0825-0.18732 0.18098 0 0.1016 0.0825 0.18415 0.18732 0.18415 0.10478 0 0.18733-0.0825 0.18733-0.18415z"/>
    <path d="m155.1 230.17v0.18733h0.34925v1.0827h-0.3683v0.18098h0.9398v-0.18098h-0.33973v-1.27zm0.4699-0.62865c-0.0921 0-0.1651 0.073-0.1651 0.16193 0 0.0889 0.073 0.16192 0.1651 0.16192s0.1651-0.073 0.1651-0.16192c0-0.0889-0.073-0.16193-0.1651-0.16193z"/>
    <path d="m156.57 231.62h0.23177v-0.83503c0-0.0952 0.0127-0.16827 0.073-0.24765 0.054-0.073 0.19367-0.2032 0.34607-0.2032 0.073 0 0.14605 0.0317 0.19685 0.0921 0.0794 0.0952 0.0794 0.21907 0.0794 0.32067v0.87313h0.22542v-0.87948c0-0.11112 0-0.23177-0.0508-0.34925-0.073-0.16192-0.22225-0.254-0.38735-0.254-0.19685 0-0.37465 0.127-0.4826 0.28893v-0.254h-0.23177z"/>
    <path d="m158.53 229.79-0.0286 0.39053h-0.34608l-3e-3 0.18732h0.33972c-0.019 0.24765-0.0286 0.4953-0.0286 0.73978 0 0.13017 0 0.27622 0.0857 0.39687 0.0699 0.0952 0.18098 0.1524 0.3302 0.1524 0.17145 0 0.33973-0.073 0.46355-0.16192l-0.0699-0.18098c-0.12382 0.0921-0.23812 0.13335-0.32702 0.13335-0.10795 0-0.21908-0.0603-0.24448-0.23495 0-0.0127-0.01-0.0667-0.01-0.2794 0-0.18732 0.01-0.37782 0.0286-0.56515h0.47625v-0.1905h-0.47307s0.0222-0.26035 0.0381-0.3429c3e-3 -0.0318 0.0286-0.0508 0.0159-0.0857z"/>
    <path d="m122.13 233.33v0.53975h-0.56198v0.19685h0.56198v0.59372h0.20002v-0.59372h0.54293v-0.19685h-0.54293v-0.53975z"/>
    <path d="m125.98 233.25c-0.13335-0.16193-0.3302-0.24765-0.5461-0.24765-0.35877 0-0.60325 0.23495-0.60325 0.508 0 0.1143 0.0444 0.26352 0.20955 0.38417 0.18415 0.13653 0.4699 0.2032 0.61913 0.29845 0.13017 0.0794 0.1651 0.18415 0.1651 0.27305 0 0.17145-0.14605 0.35878-0.4318 0.35878-0.2159 0-0.38418-0.10795-0.47308-0.21908-0.01-0.0127-0.01-0.019-0.01-0.0317 0-6e-3 0-0.0254-0.0127-0.0318l-0.13335 0.2286c0.15557 0.16828 0.37782 0.254 0.6223 0.254 0.4826 0 0.6604-0.32385 0.6604-0.5715 0-0.10477-0.0318-0.2413-0.15558-0.35877-0.17145-0.16193-0.45085-0.21908-0.63182-0.32385-0.1651-0.0984-0.20003-0.2159-0.20003-0.29528 0-0.1524 0.13018-0.28892 0.3556-0.28892 0.18415 0 0.32703 0.0825 0.40323 0.19367 0.01 0.0127 6e-3 0.019 6e-3 0.0318 0 0.019 0.01 0.0254 0.0159 0.0254z"/>
    <path d="m127.01 233.51c-0.34607 0-0.66675 0.24765-0.66675 0.7747 0 0.48578 0.30163 0.74295 0.69533 0.74295 0.20955 0 0.39687-0.0762 0.5207-0.22542l-0.127-0.12383c-0.0921 0.10795-0.23178 0.1651-0.37465 0.1651-0.19368 0-0.47625-0.10795-0.49213-0.54292h1.0287c0.01-0.0984 6e-3 -0.19368-0.01-0.27623-0.0667-0.39052-0.33655-0.51435-0.57468-0.51435zm-0.43815 0.61595c0.0476-0.3429 0.2667-0.44132 0.42228-0.44132 0.23495 0 0.40322 0.20637 0.37465 0.44132z"/>
    <path d="m127.99 234.99h0.23178v-0.83503c0-0.0952 0.0127-0.16827 0.073-0.24765 0.054-0.073 0.19368-0.2032 0.34608-0.2032 0.073 0 0.14605 0.0318 0.19685 0.0921 0.0794 0.0952 0.0794 0.21907 0.0794 0.32067v0.87313h0.22543v-0.87948c0-0.11112 0-0.23177-0.0508-0.34925-0.073-0.16192-0.22225-0.254-0.38735-0.254-0.19685 0-0.37465 0.127-0.4826 0.28893v-0.254h-0.23178z"/>
    <path d="m130.54 233.75c-0.0698-0.14923-0.22543-0.24765-0.42545-0.24765-0.27623 0-0.61278 0.19685-0.61278 0.7493 0 0.53657 0.29845 0.77152 0.57785 0.77152 0.18415 0 0.3556-0.10477 0.44768-0.2667v0.127c0 0.0349 3e-3 0.0699 0.0127 0.10478h0.2286c-0.0127-0.0413-0.0127-0.0889-0.0127-0.13335l-3e-3 -1.886c0-0.019 0-0.0254 0.0127-0.0444 6e-3 -0.01 0.019-0.0254 0.0159-0.0476h-0.2413zm-0.41593-0.0603c0.127 0 0.31433 0.0667 0.37148 0.28258 0.019 0.0667 0.0254 0.14605 0.0254 0.30797 0 0.11113-6e-3 0.1905-0.0317 0.2667-0.054 0.17145-0.20638 0.27305-0.3556 0.27305-0.1651 0-0.40958-0.127-0.40958-0.60325 0-0.41592 0.23178-0.52705 0.40005-0.52705z"/>
    <path d="m132.19 232.88c-0.48895 0.2159-0.80328 0.71437-0.80328 1.2954 0 0.57785 0.3048 1.1049 0.80645 1.3684l0.10478-0.16827c-0.43498-0.25083-0.68898-0.71755-0.68898-1.2097 0-0.45402 0.21908-0.86042 0.59055-1.0763 6e-3 -6e-3 0.0159-0.0127 0.0286-0.0127 0.01 0 0.019 6e-3 0.0317 6e-3 6e-3 0 0.0159-3e-3 0.0286-6e-3z"/>
    <path d="m132.65 234.99h0.20955v-0.9652c0-0.0699 6e-3 -0.13335 0.0476-0.20955 0.0508-0.0952 0.1143-0.13335 0.17463-0.13335 0.0508 0 0.10795 0.0317 0.13335 0.11112 0.019 0.0603 0.0159 0.13018 0.0159 0.1905v1.0065h0.21273v-0.95885c0-0.0762 6e-3 -0.13653 0.0603-0.2286 0.0254-0.0381 0.0794-0.13018 0.16828-0.13018 0.0476 0 0.0921 0.0286 0.1143 0.0825 0.0286 0.0603 0.0222 0.14288 0.0222 0.20955v1.0287h0.2159v-1.0319c0-0.12065 3e-3 -0.2413-0.0603-0.33973-0.054-0.0825-0.14605-0.1143-0.22543-0.1143-0.1397 0-0.26987 0.0825-0.32702 0.20955-0.0222-0.12065-0.12383-0.20955-0.254-0.20955-0.12065 0-0.23178 0.0762-0.29845 0.1778l3e-3 -0.14287h-0.21272z"/>
    <path d="m134.94 233.51c-0.34607 0-0.66675 0.24765-0.66675 0.7747 0 0.48578 0.30163 0.74295 0.69533 0.74295 0.20955 0 0.39687-0.0762 0.5207-0.22542l-0.127-0.12383c-0.0921 0.10795-0.23178 0.1651-0.37465 0.1651-0.19368 0-0.47625-0.10795-0.49213-0.54292h1.0287c0.01-0.0984 6e-3 -0.19368-0.01-0.27623-0.0667-0.39052-0.33655-0.51435-0.57468-0.51435zm-0.43815 0.61595c0.0476-0.3429 0.2667-0.44132 0.42228-0.44132 0.23495 0 0.40322 0.20637 0.37465 0.44132z"/>
    <path d="m137.08 233.73c-0.13335-0.14605-0.32703-0.22543-0.54293-0.22543-0.33655 0-0.55562 0.18733-0.55562 0.40323 0 0.254 0.27305 0.34607 0.35242 0.37465 0.12383 0.0445 0.28258 0.0826 0.39053 0.13335 0.12065 0.0572 0.14287 0.13335 0.14287 0.18415 0 0.13652-0.1651 0.2286-0.37147 0.2286-0.24765 0-0.4064-0.14923-0.45403-0.20003-0.01-0.0127-0.01-0.0222-0.01-0.0349 0-3e-3 3e-3 -0.0222-0.0127-0.0286l-0.13335 0.22543c0.17145 0.15875 0.3937 0.23177 0.61277 0.23177 0.39688 0 0.60325-0.23495 0.60325-0.45402 0-0.0984-0.0413-0.23178-0.21272-0.32703-0.16193-0.0921-0.39688-0.12382-0.5334-0.1905-0.11748-0.0572-0.14288-0.127-0.14288-0.1778 0-0.1143 0.14288-0.19685 0.3048-0.19685 0.20955 0 0.34925 0.127 0.40323 0.20003 0.01 0.01 6e-3 0.019 6e-3 0.0286 0 0.019 0.0127 0.0254 0.019 0.0254z"/>
    <path d="m138.67 233.73c-0.13335-0.14605-0.32702-0.22543-0.54292-0.22543-0.33655 0-0.55563 0.18733-0.55563 0.40323 0 0.254 0.27305 0.34607 0.35243 0.37465 0.12382 0.0445 0.28257 0.0826 0.39052 0.13335 0.12065 0.0572 0.14288 0.13335 0.14288 0.18415 0 0.13652-0.1651 0.2286-0.37148 0.2286-0.24765 0-0.4064-0.14923-0.45402-0.20003-0.01-0.0127-0.01-0.0222-0.01-0.0349 0-3e-3 3e-3 -0.0222-0.0127-0.0286l-0.13335 0.22543c0.17145 0.15875 0.3937 0.23177 0.61278 0.23177 0.39687 0 0.60325-0.23495 0.60325-0.45402 0-0.0984-0.0413-0.23178-0.21273-0.32703-0.16192-0.0921-0.39687-0.12382-0.5334-0.1905-0.11747-0.0572-0.14287-0.127-0.14287-0.1778 0-0.1143 0.14287-0.19685 0.3048-0.19685 0.20955 0 0.34925 0.127 0.40322 0.20003 0.01 0.01 6e-3 0.019 6e-3 0.0286 0 0.019 0.0127 0.0254 0.019 0.0254z"/>
    <path d="m139.17 233.71 0.11113 0.14605c0.12065-0.12382 0.28257-0.16192 0.4191-0.16192 0.17145 0 0.25717 0.073 0.29845 0.1397 0.0476 0.0794 0.0445 0.17462 0.0445 0.25082v0.0508h-0.0445c-0.2159 0-0.4445 0-0.62865 0.0667-0.2286 0.0825-0.3302 0.254-0.3302 0.41275 0 0.21272 0.18415 0.41275 0.48577 0.41275 0.1778 0 0.36195-0.0667 0.5207-0.19685v0.15875h0.2159v-0.89853c0-0.11747-3e-3 -0.2286-0.0699-0.3429-0.0952-0.15557-0.2794-0.23812-0.50482-0.23812-0.19368 0-0.381 0.0603-0.51753 0.20002zm0.88265 0.60008v0.0984c0 0.073 0 0.16828-0.0984 0.27305-0.054 0.054-0.1905 0.17145-0.381 0.17145-0.19368 0-0.3048-0.12382-0.3048-0.25082 0-0.10795 0.073-0.22543 0.254-0.26988 0.13335-0.0318 0.32702-0.0222 0.47942-0.0222z"/>
    <path d="m140.87 233.99c0-0.17463 0.14605-0.3175 0.32068-0.3175 0.1778 0 0.32067 0.14287 0.32067 0.3175 0 0.17462-0.14287 0.3175-0.32067 0.3175s-0.32068-0.14288-0.32068-0.3175zm0.33338-0.49848c-0.28893 0-0.53975 0.2286-0.53975 0.51118 0 0.15875 0.0794 0.30797 0.21272 0.3937-0.10477 0.0889-0.1651 0.18732-0.1651 0.2794 0 0.0603 0.0254 0.14605 0.11748 0.19367-0.15558 0.0984-0.23495 0.20638-0.23495 0.32068 0 0.15875 0.14605 0.34607 0.65405 0.34607 0.49212 0 0.66992-0.25082 0.66992-0.4445 0-0.127-0.073-0.254-0.22542-0.31432-0.1524-0.0635-0.32703-0.0413-0.49213-0.0413-0.10795 0-0.1778-0.01-0.20637-0.019-0.0572-0.0159-0.0889-0.0508-0.0889-0.0953 0-0.0762 0.0889-0.14922 0.10477-0.16192 0.0571 0.0222 0.12065 0.0317 0.18415 0.0317 0.28575 0 0.5207-0.2286 0.5207-0.4953 0-0.0889-0.0254-0.17463-0.073-0.24765 0.0762-0.0444 0.1651-0.0698 0.254-0.0698 0.0286 0 0.054 3e-3 0.0825 0.01l-0.0254-0.18732c-0.14605-0.0127-0.2921 0.0349-0.40323 0.127-0.0921-0.0889-0.21272-0.13653-0.34607-0.13653zm-0.21908 1.4192c0.054 6e-3 0.13018 0.0127 0.2413 0.019 0.10795 3e-3 0.22543-6e-3 0.30798 6e-3 0.13335 0.0222 0.17462 0.10477 0.17462 0.16827s-0.0381 0.1397-0.13652 0.19368c-0.10795 0.0572-0.2286 0.0635-0.32703 0.0635-0.0667 0-0.1905-3e-3 -0.29845-0.0476-0.11747-0.0476-0.14287-0.127-0.14287-0.1778 0-0.10477 0.0984-0.18097 0.18097-0.22542z"/>
    <path d="m142.88 233.51c-0.34608 0-0.66675 0.24765-0.66675 0.7747 0 0.48578 0.30162 0.74295 0.69532 0.74295 0.20955 0 0.39688-0.0762 0.5207-0.22542l-0.127-0.12383c-0.0921 0.10795-0.23177 0.1651-0.37465 0.1651-0.19367 0-0.47625-0.10795-0.49212-0.54292h1.0287c0.01-0.0984 6e-3 -0.19368-0.01-0.27623-0.0667-0.39052-0.33655-0.51435-0.57467-0.51435zm-0.43815 0.61595c0.0476-0.3429 0.2667-0.44132 0.42227-0.44132 0.23495 0 0.40323 0.20637 0.37465 0.44132z"/>
    <path d="m144.62 234.93c0-0.16192-0.10795-0.26352-0.21908-0.26352-0.10477 0-0.18415 0.0857-0.18415 0.18097 0 0.0857 0.0603 0.12065 0.0889 0.1397 0.0286 0.019 0.073 0.0476 0.073 0.1143 0 0.0508-0.0286 0.10478-0.0445 0.13018-0.0317 0.0508-0.0857 0.13017-0.16193 0.20002l0.11113 0.0952c0.22225-0.22542 0.33655-0.4318 0.33655-0.5969z"/>
    <path d="m148 233.75c-0.0699-0.14923-0.22543-0.24765-0.42545-0.24765-0.27623 0-0.61278 0.19685-0.61278 0.7493 0 0.53657 0.29845 0.77152 0.57785 0.77152 0.18415 0 0.3556-0.10477 0.44768-0.2667v0.127c0 0.0349 3e-3 0.0699 0.0127 0.10478h0.2286c-0.0127-0.0413-0.0127-0.0889-0.0127-0.13335l-3e-3 -1.886c0-0.019 0-0.0254 0.0127-0.0444 6e-3 -0.01 0.019-0.0254 0.0159-0.0476h-0.2413zm-0.41593-0.0603c0.127 0 0.31433 0.0667 0.37148 0.28258 0.019 0.0667 0.0254 0.14605 0.0254 0.30797 0 0.11113-6e-3 0.1905-0.0317 0.2667-0.054 0.17145-0.20638 0.27305-0.3556 0.27305-0.1651 0-0.40958-0.127-0.40958-0.60325 0-0.41592 0.23178-0.52705 0.40005-0.52705z"/>
    <path d="m149.23 233.51c-0.34608 0-0.66675 0.24765-0.66675 0.7747 0 0.48578 0.30162 0.74295 0.69532 0.74295 0.20955 0 0.39688-0.0762 0.5207-0.22542l-0.127-0.12383c-0.0921 0.10795-0.23177 0.1651-0.37465 0.1651-0.19367 0-0.47625-0.10795-0.49212-0.54292h1.0287c0.01-0.0984 6e-3 -0.19368-0.01-0.27623-0.0667-0.39052-0.33655-0.51435-0.57467-0.51435zm-0.43815 0.61595c0.0476-0.3429 0.2667-0.44132 0.42227-0.44132 0.23495 0 0.40323 0.20637 0.37465 0.44132z"/>
    <path d="m150.27 232.88v0.18415h0.41275v1.7431h-0.4318v0.18098h1.089v-0.18098h-0.42862v-1.9272z"/>
    <path d="m151.87 233.71 0.11113 0.14605c0.12065-0.12382 0.28257-0.16192 0.4191-0.16192 0.17145 0 0.25717 0.073 0.29845 0.1397 0.0476 0.0794 0.0444 0.17462 0.0444 0.25082v0.0508h-0.0444c-0.2159 0-0.4445 0-0.62865 0.0667-0.2286 0.0825-0.3302 0.254-0.3302 0.41275 0 0.21272 0.18415 0.41275 0.48577 0.41275 0.1778 0 0.36195-0.0667 0.5207-0.19685v0.15875h0.2159v-0.89853c0-0.11747-3e-3 -0.2286-0.0699-0.3429-0.0952-0.15557-0.2794-0.23812-0.50482-0.23812-0.19368 0-0.381 0.0603-0.51753 0.20002zm0.88265 0.60008v0.0984c0 0.073 0 0.16828-0.0984 0.27305-0.054 0.054-0.1905 0.17145-0.381 0.17145-0.19368 0-0.3048-0.12382-0.3048-0.25082 0-0.10795 0.073-0.22543 0.254-0.26988 0.13335-0.0318 0.32702-0.0222 0.47942-0.0222z"/>
    <path d="m153.32 233.54 0.59055 1.4446-0.0476 0.10478c-0.0254 0.0603-0.054 0.12065-0.0984 0.16827-0.0603 0.0667-0.13653 0.0952-0.2032 0.0952-0.10795 0-0.16193-0.073-0.17145-0.0857-0.01-0.0159-6e-3 -0.0381-0.0254-0.054l-0.11748 0.20638c0.0826 0.0794 0.19368 0.12065 0.31433 0.12065 0.13017 0 0.2667-0.0476 0.36195-0.15558 0.0635-0.073 0.0952-0.14922 0.127-0.23177l0.45085-1.197c0.054-0.13652 0.1016-0.27622 0.14605-0.4191h-0.23813c-0.0254 0.13335-0.0667 0.26035-0.11112 0.38735l-0.27623 0.77788-0.42545-1.07c-3e-3 -0.01-3e-3 -0.0159-3e-3 -0.0254 0-0.0222 0.0159-0.0381 0.0127-0.0667z"/>
    <path d="m155.73 234.93c0-0.16192-0.10795-0.26352-0.21907-0.26352-0.10478 0-0.18415 0.0857-0.18415 0.18097 0 0.0857 0.0603 0.12065 0.0889 0.1397 0.0286 0.019 0.073 0.0476 0.073 0.1143 0 0.0508-0.0286 0.10478-0.0444 0.13018-0.0318 0.0508-0.0857 0.13017-0.16192 0.20002l0.11112 0.0952c0.22225-0.22542 0.33655-0.4318 0.33655-0.5969z"/>
    <path d="m158.76 233.51c-0.34607 0-0.66675 0.24765-0.66675 0.7747 0 0.48578 0.30163 0.74295 0.69533 0.74295 0.20955 0 0.39687-0.0762 0.5207-0.22542l-0.127-0.12383c-0.0921 0.10795-0.23178 0.1651-0.37465 0.1651-0.19368 0-0.47625-0.10795-0.49213-0.54292h1.0287c0.01-0.0984 6e-3 -0.19368-0.01-0.27623-0.0667-0.39052-0.33655-0.51435-0.57468-0.51435zm-0.43815 0.61595c0.0476-0.3429 0.2667-0.44132 0.42228-0.44132 0.23495 0 0.40322 0.20637 0.37465 0.44132z"/>
    <path d="m160.67 233.54-0.36195 0.53658-0.381-0.53658h-0.24765l0.49847 0.71438-0.508 0.7366h0.25718l0.37782-0.56198 0.40005 0.56198h0.26035l-0.5334-0.74295 0.4699-0.70803z"/>
    <path d="m161.3 233.54 3e-3 1.978h0.23178v-0.72072c0.0984 0.14287 0.26035 0.23177 0.43497 0.23177 0.29845 0 0.6096-0.25082 0.6096-0.78105 0-0.51117-0.30162-0.73977-0.58737-0.73977-0.18733 0-0.36195 0.0953-0.46038 0.254v-0.22225zm0.60642 0.16192c0.127 0 0.43498 0.0667 0.43498 0.59373 0 0.4572-0.29845 0.53022-0.43498 0.53022-0.13652 0-0.27622-0.0699-0.33337-0.20002-0.0413-0.0984-0.0413-0.21908-0.0413-0.42863 0-0.12065 6e-3 -0.20955 0.0381-0.28575 0.0571-0.13017 0.1905-0.20955 0.33655-0.20955z"/>
    <path d="m163.04 233.54v0.18733h0.34925v1.0827h-0.3683v0.18098h0.9398v-0.18098h-0.33973v-1.27zm0.4699-0.62865c-0.0921 0-0.1651 0.073-0.1651 0.16193 0 0.0889 0.073 0.16192 0.1651 0.16192s0.1651-0.073 0.1651-0.16192c0-0.0889-0.073-0.16193-0.1651-0.16193z"/>
    <path d="m164.6 233.54v1.451h0.2286v-0.70485c0-0.0889 3e-3 -0.18415 0.1016-0.33972 0.13335-0.20955 0.3048-0.24448 0.40958-0.24448 0.12065 0 0.19685 0.0572 0.23812 0.10795 0.019 0.0254 0.0286 0.0508 0.054 0.073l0.10795-0.21908c-0.0921-0.0952-0.22543-0.15875-0.38735-0.15875-0.21273 0-0.42863 0.10795-0.52388 0.31433l0.01-0.2794z"/>
    <path d="m166.16 233.71 0.11113 0.14605c0.12065-0.12382 0.28257-0.16192 0.4191-0.16192 0.17145 0 0.25717 0.073 0.29845 0.1397 0.0476 0.0794 0.0445 0.17462 0.0445 0.25082v0.0508h-0.0445c-0.2159 0-0.4445 0-0.62865 0.0667-0.2286 0.0825-0.3302 0.254-0.3302 0.41275 0 0.21272 0.18415 0.41275 0.48577 0.41275 0.1778 0 0.36195-0.0667 0.5207-0.19685v0.15875h0.2159v-0.89853c0-0.11747-3e-3 -0.2286-0.0699-0.3429-0.0952-0.15557-0.2794-0.23812-0.50482-0.23812-0.19368 0-0.381 0.0603-0.51753 0.20002zm0.88265 0.60008v0.0984c0 0.073 0 0.16828-0.0984 0.27305-0.054 0.054-0.1905 0.17145-0.381 0.17145-0.19368 0-0.3048-0.12382-0.3048-0.25082 0-0.10795 0.073-0.22543 0.254-0.26988 0.13335-0.0318 0.32702-0.0222 0.47942-0.0222z"/>
    <path d="m168.06 233.15-0.0286 0.39053h-0.34607l-3e-3 0.18732h0.33973c-0.019 0.24765-0.0286 0.4953-0.0286 0.73978 0 0.13017 0 0.27622 0.0857 0.39687 0.0699 0.0952 0.18097 0.1524 0.3302 0.1524 0.17145 0 0.33972-0.073 0.46355-0.16192l-0.0699-0.18098c-0.12383 0.0921-0.23813 0.13335-0.32703 0.13335-0.10795 0-0.21907-0.0603-0.24447-0.23495 0-0.0127-0.01-0.0667-0.01-0.2794 0-0.18732 0.01-0.37782 0.0286-0.56515h0.47625v-0.1905h-0.47308s0.0222-0.26035 0.0381-0.3429c3e-3 -0.0318 0.0286-0.0508 0.0159-0.0857z"/>
    <path d="m169.39 233.54v0.18733h0.34925v1.0827h-0.3683v0.18098h0.9398v-0.18098h-0.33972v-1.27zm0.4699-0.62865c-0.0921 0-0.1651 0.073-0.1651 0.16193 0 0.0889 0.073 0.16192 0.1651 0.16192s0.1651-0.073 0.1651-0.16192c0-0.0889-0.073-0.16193-0.1651-0.16193z"/>
    <path d="m172.1 234.27c0-0.50165-0.3175-0.762-0.6477-0.762-0.3683 0-0.6858 0.3175-0.6858 0.76835 0 0.44132 0.31432 0.75247 0.67945 0.75247 0.3429 0 0.65405-0.27622 0.65405-0.75882zm-0.66358-0.56833c0.20955 0 0.4318 0.18098 0.4318 0.57785 0 0.36513-0.20955 0.54928-0.4191 0.54928-0.23177 0-0.44132-0.2159-0.44132-0.57468 0-0.3556 0.20637-0.55245 0.42862-0.55245z"/>
    <path d="m172.44 234.99h0.23177v-0.83503c0-0.0952 0.0127-0.16827 0.073-0.24765 0.054-0.073 0.19367-0.2032 0.34607-0.2032 0.073 0 0.14605 0.0318 0.19685 0.0921 0.0794 0.0952 0.0794 0.21907 0.0794 0.32067v0.87313h0.22542v-0.87948c0-0.11112 0-0.23177-0.0508-0.34925-0.073-0.16192-0.22225-0.254-0.38735-0.254-0.19685 0-0.37465 0.127-0.4826 0.28893v-0.254h-0.23177z"/>
    <path d="m174.06 233.08c0.4191 0.22543 0.6858 0.65723 0.6858 1.1303 0 0.47625-0.27305 0.92075-0.70168 1.1462l0.0603 0.19367c0.52705-0.25082 0.86677-0.77787 0.86677-1.3494 0-0.56515-0.33337-1.0795-0.8509-1.3176z"/>
    <path d="m176.34 233.83c0-0.0984-0.0825-0.18097-0.18732-0.18097-0.10478 0-0.18733 0.0825-0.18733 0.18097 0 0.1016 0.0825 0.18098 0.18733 0.18098 0.10477 0 0.18732-0.0794 0.18732-0.18098zm0 1.0128c0-0.0984-0.0825-0.18098-0.18732-0.18098-0.10478 0-0.18733 0.0825-0.18733 0.18098 0 0.1016 0.0825 0.18415 0.18733 0.18415 0.10477 0 0.18732-0.0825 0.18732-0.18415z"/>
    <path d="m178.91 233.54v0.18733h0.34925v1.0827h-0.3683v0.18098h0.9398v-0.18098h-0.33973v-1.27zm0.4699-0.62865c-0.0921 0-0.1651 0.073-0.1651 0.16193 0 0.0889 0.073 0.16192 0.1651 0.16192s0.1651-0.073 0.1651-0.16192c0-0.0889-0.073-0.16193-0.1651-0.16193z"/>
    <path d="m180.38 234.99h0.23177v-0.83503c0-0.0952 0.0127-0.16827 0.073-0.24765 0.054-0.073 0.19367-0.2032 0.34607-0.2032 0.073 0 0.14605 0.0318 0.19685 0.0921 0.0794 0.0952 0.0794 0.21907 0.0794 0.32067v0.87313h0.22542v-0.87948c0-0.11112 0-0.23177-0.0508-0.34925-0.073-0.16192-0.22225-0.254-0.38735-0.254-0.19685 0-0.37465 0.127-0.4826 0.28893v-0.254h-0.23177z"/>
    <path d="m182.35 233.15-0.0286 0.39053h-0.34608l-3e-3 0.18732h0.33972c-0.019 0.24765-0.0286 0.4953-0.0286 0.73978 0 0.13017 0 0.27622 0.0857 0.39687 0.0699 0.0952 0.18098 0.1524 0.3302 0.1524 0.17145 0 0.33973-0.073 0.46355-0.16192l-0.0699-0.18098c-0.12382 0.0921-0.23812 0.13335-0.32702 0.13335-0.10795 0-0.21908-0.0603-0.24448-0.23495 0-0.0127-0.01-0.0667-0.01-0.2794 0-0.18732 0.01-0.37782 0.0286-0.56515h0.47625v-0.1905h-0.47307s0.0222-0.26035 0.0381-0.3429c3e-3 -0.0318 0.0286-0.0508 0.0159-0.0857z"/>
    <path d="m122.13 236.7v0.53975h-0.56198v0.19685h0.56198v0.59373h0.20002v-0.59373h0.54293v-0.19685h-0.54293v-0.53975z"/>
    <path d="m125.98 236.62c-0.13335-0.16192-0.3302-0.24765-0.5461-0.24765-0.35877 0-0.60325 0.23495-0.60325 0.508 0 0.1143 0.0444 0.26353 0.20955 0.38418 0.18415 0.13652 0.4699 0.2032 0.61913 0.29845 0.13017 0.0794 0.1651 0.18415 0.1651 0.27305 0 0.17145-0.14605 0.35877-0.4318 0.35877-0.2159 0-0.38418-0.10795-0.47308-0.21907-0.01-0.0127-0.01-0.019-0.01-0.0317 0-6e-3 0-0.0254-0.0127-0.0318l-0.13335 0.2286c0.15557 0.16827 0.37782 0.254 0.6223 0.254 0.4826 0 0.6604-0.32385 0.6604-0.5715 0-0.10478-0.0318-0.2413-0.15558-0.35878-0.17145-0.16192-0.45085-0.21907-0.63182-0.32385-0.1651-0.0984-0.20003-0.2159-0.20003-0.29527 0-0.1524 0.13018-0.28893 0.3556-0.28893 0.18415 0 0.32703 0.0825 0.40323 0.19368 0.01 0.0127 6e-3 0.019 6e-3 0.0317 0 0.0191 0.01 0.0254 0.0159 0.0254z"/>
    <path d="m126.38 236.91v0.80963c0 0.12382 0 0.25082 0.0572 0.381 0.0825 0.1905 0.26035 0.29527 0.45085 0.29527 0.18098 0 0.35243-0.0984 0.44768-0.25717l-3e-3 0.10795c0 0.0381 0 0.0762 6e-3 0.11112h0.2413c-0.0159-0.0413-0.019-0.0889-0.019-0.13017v-1.3176h-0.2286v0.79693c0 0.11112-0.01 0.19685-0.0572 0.28575-0.0667 0.12382-0.19685 0.2159-0.33655 0.2159-0.11112 0-0.21907-0.0635-0.27622-0.1778-0.0508-0.1016-0.0508-0.2159-0.0508-0.31115v-0.80963z"/>
    <path d="m127.96 236.24v2.1114h0.14922l0.0794-0.1905c0.0952 0.14288 0.254 0.2286 0.42862 0.2286 0.29845 0 0.60643-0.254 0.60643-0.78105 0-0.50482-0.29845-0.73977-0.5842-0.73977-0.18415 0-0.3556 0.0984-0.44768 0.25717v-0.8128c0-0.019 3e-3 -0.0254 0.019-0.0381 6e-3 -3e-3 0.0222-0.0159 0.0191-0.0349zm0.60007 0.8255c0.13653 0 0.42545 0.0794 0.42545 0.59372 0 0.44133-0.28575 0.52388-0.42862 0.52388-0.0984 0-0.3175-0.0381-0.3556-0.3175-0.01-0.073-0.01-0.15875-0.01-0.28575 0-0.13018 6e-3 -0.22543 0.0381-0.3048 0.054-0.13018 0.18733-0.20955 0.3302-0.20955z"/>
    <path d="m130.73 237.1c-0.13335-0.14605-0.32702-0.22542-0.54292-0.22542-0.33655 0-0.55563 0.18732-0.55563 0.40322 0 0.254 0.27305 0.34608 0.35243 0.37465 0.12382 0.0445 0.28257 0.0825 0.39052 0.13335 0.12065 0.0572 0.14288 0.13335 0.14288 0.18415 0 0.13653-0.1651 0.2286-0.37148 0.2286-0.24765 0-0.4064-0.14922-0.45402-0.20002-0.01-0.0127-0.01-0.0222-0.01-0.0349 0-3e-3 3e-3 -0.0222-0.0127-0.0286l-0.13335 0.22542c0.17145 0.15875 0.3937 0.23178 0.61278 0.23178 0.39687 0 0.60325-0.23495 0.60325-0.45403 0-0.0984-0.0413-0.23177-0.21273-0.32702-0.16192-0.0921-0.39687-0.12383-0.5334-0.1905-0.11747-0.0572-0.14287-0.127-0.14287-0.1778 0-0.1143 0.14287-0.19685 0.3048-0.19685 0.20955 0 0.34925 0.127 0.40322 0.20002 0.01 0.01 6e-3 0.019 6e-3 0.0286 0 0.019 0.0127 0.0254 0.019 0.0254z"/>
    <path d="m132.4 237.15c-0.1143-0.16828-0.30797-0.26988-0.54292-0.26988-0.42545 0-0.72708 0.32068-0.72708 0.75565 0 0.43815 0.30163 0.762 0.71438 0.762 0.20002 0 0.39687-0.0825 0.5334-0.23177l-0.13018-0.1524c-0.0984 0.11112-0.2413 0.17462-0.38417 0.17462-0.28258 0-0.49848-0.23495-0.49848-0.57467 0-0.3302 0.21273-0.53658 0.47943-0.53658 0.24765 0 0.36512 0.17145 0.37465 0.1905 0.0127 0.0222-6e-3 0.054 0.0191 0.073z"/>
    <path d="m132.85 236.91v1.451h0.2286v-0.70485c0-0.0889 3e-3 -0.18415 0.1016-0.33973 0.13335-0.20955 0.3048-0.24447 0.40957-0.24447 0.12065 0 0.19685 0.0572 0.23813 0.10795 0.019 0.0254 0.0286 0.0508 0.054 0.073l0.10795-0.21907c-0.0921-0.0953-0.22542-0.15875-0.38735-0.15875-0.21272 0-0.42862 0.10795-0.52387 0.31432l0.01-0.2794z"/>
    <path d="m134.46 236.91v0.18732h0.34925v1.0827h-0.3683v0.18097h0.9398v-0.18097h-0.33972v-1.27zm0.4699-0.62865c-0.0921 0-0.1651 0.073-0.1651 0.16192 0 0.0889 0.073 0.16193 0.1651 0.16193s0.1651-0.073 0.1651-0.16193c0-0.0889-0.073-0.16192-0.1651-0.16192z"/>
    <path d="m135.9 236.24v2.1114h0.14923l0.0794-0.1905c0.0952 0.14288 0.254 0.2286 0.42863 0.2286 0.29845 0 0.60642-0.254 0.60642-0.78105 0-0.50482-0.29845-0.73977-0.5842-0.73977-0.18415 0-0.3556 0.0984-0.44767 0.25717v-0.8128c0-0.019 3e-3 -0.0254 0.019-0.0381 6e-3 -3e-3 0.0222-0.0159 0.0191-0.0349zm0.60008 0.8255c0.13652 0 0.42545 0.0794 0.42545 0.59372 0 0.44133-0.28575 0.52388-0.42863 0.52388-0.0984 0-0.3175-0.0381-0.3556-0.3175-0.01-0.073-0.01-0.15875-0.01-0.28575 0-0.13018 6e-3 -0.22543 0.0381-0.3048 0.054-0.13018 0.18732-0.20955 0.3302-0.20955z"/>
    <path d="m138.12 236.87c-0.34607 0-0.66675 0.24765-0.66675 0.7747 0 0.48577 0.30163 0.74295 0.69533 0.74295 0.20955 0 0.39687-0.0762 0.5207-0.22543l-0.127-0.12382c-0.0921 0.10795-0.23178 0.1651-0.37465 0.1651-0.19368 0-0.47625-0.10795-0.49213-0.54293h1.0287c0.01-0.0984 6e-3 -0.19367-0.01-0.27622-0.0667-0.39053-0.33655-0.51435-0.57468-0.51435zm-0.43815 0.61595c0.0476-0.3429 0.2667-0.44133 0.42228-0.44133 0.23495 0 0.40322 0.20638 0.37465 0.44133z"/>
    <path d="m140.13 236.24c-0.48895 0.2159-0.80328 0.71438-0.80328 1.2954 0 0.57785 0.3048 1.1049 0.80645 1.3684l0.10478-0.16828c-0.43498-0.25082-0.68898-0.71755-0.68898-1.2097 0-0.45403 0.21908-0.86043 0.59055-1.0763 6e-3 -6e-3 0.0159-0.0127 0.0286-0.0127 0.01 0 0.019 6e-3 0.0317 6e-3 6e-3 0 0.0159-3e-3 0.0286-6e-3z"/>
    <path d="m141.07 236.52-0.0286 0.39052h-0.34607l-3e-3 0.18733h0.33973c-0.019 0.24765-0.0286 0.4953-0.0286 0.73977 0 0.13018 0 0.27623 0.0857 0.39688 0.0699 0.0953 0.18097 0.1524 0.3302 0.1524 0.17145 0 0.33972-0.073 0.46355-0.16193l-0.0699-0.18097c-0.12383 0.0921-0.23813 0.13335-0.32703 0.13335-0.10795 0-0.21907-0.0603-0.24447-0.23495 0-0.0127-0.01-0.0667-0.01-0.2794 0-0.18733 0.01-0.37783 0.0286-0.56515h0.47625v-0.1905h-0.47308s0.0222-0.26035 0.0381-0.3429c3e-3 -0.0317 0.0286-0.0508 0.0159-0.0857z"/>
    <path d="m142.2 236.91 0.59055 1.4446-0.0476 0.10477c-0.0254 0.0603-0.054 0.12065-0.0984 0.16828-0.0603 0.0667-0.13652 0.0953-0.2032 0.0953-0.10795 0-0.16192-0.073-0.17145-0.0857-0.01-0.0159-6e-3 -0.0381-0.0254-0.054l-0.11747 0.20637c0.0825 0.0794 0.19367 0.12065 0.31432 0.12065 0.13018 0 0.2667-0.0476 0.36195-0.15557 0.0635-0.073 0.0953-0.14923 0.127-0.23178l0.45085-1.197c0.054-0.13653 0.1016-0.27623 0.14605-0.4191h-0.23812c-0.0254 0.13335-0.0667 0.26035-0.11113 0.38735l-0.27622 0.77787-0.42545-1.07c-3e-3 -0.01-3e-3 -0.0159-3e-3 -0.0254 0-0.0222 0.0159-0.0381 0.0127-0.0667z"/>
    <path d="m143.84 236.91 3e-3 1.978h0.23178v-0.72073c0.0984 0.14288 0.26035 0.23178 0.43497 0.23178 0.29845 0 0.6096-0.25083 0.6096-0.78105 0-0.51118-0.30162-0.73978-0.58737-0.73978-0.18733 0-0.36195 0.0952-0.46038 0.254v-0.22225zm0.60642 0.16193c0.127 0 0.43498 0.0667 0.43498 0.59372 0 0.4572-0.29845 0.53023-0.43498 0.53023-0.13652 0-0.27622-0.0699-0.33337-0.20003-0.0413-0.0984-0.0413-0.21907-0.0413-0.42862 0-0.12065 6e-3 -0.20955 0.0381-0.28575 0.0571-0.13018 0.1905-0.20955 0.33655-0.20955z"/>
    <path d="m146.06 236.87c-0.34607 0-0.66675 0.24765-0.66675 0.7747 0 0.48577 0.30163 0.74295 0.69533 0.74295 0.20955 0 0.39687-0.0762 0.5207-0.22543l-0.127-0.12382c-0.0921 0.10795-0.23178 0.1651-0.37465 0.1651-0.19368 0-0.47625-0.10795-0.49213-0.54293h1.0287c0.01-0.0984 6e-3 -0.19367-0.01-0.27622-0.0667-0.39053-0.33655-0.51435-0.57468-0.51435zm-0.43815 0.61595c0.0476-0.3429 0.2667-0.44133 0.42228-0.44133 0.23495 0 0.40322 0.20638 0.37465 0.44133z"/>
    <path d="m147.79 238.3c0-0.16193-0.10795-0.26353-0.21908-0.26353-0.10477 0-0.18415 0.0857-0.18415 0.18098 0 0.0857 0.0603 0.12065 0.0889 0.1397 0.0286 0.019 0.073 0.0476 0.073 0.1143 0 0.0508-0.0286 0.10477-0.0444 0.13017-0.0318 0.0508-0.0857 0.13018-0.16193 0.20003l0.11113 0.0952c0.22225-0.22543 0.33655-0.4318 0.33655-0.5969z"/>
    <path d="m151.37 237.1c-0.13335-0.14605-0.32703-0.22542-0.54293-0.22542-0.33655 0-0.55562 0.18732-0.55562 0.40322 0 0.254 0.27305 0.34608 0.35242 0.37465 0.12383 0.0445 0.28258 0.0825 0.39053 0.13335 0.12065 0.0572 0.14287 0.13335 0.14287 0.18415 0 0.13653-0.1651 0.2286-0.37147 0.2286-0.24765 0-0.4064-0.14922-0.45403-0.20002-0.01-0.0127-0.01-0.0222-0.01-0.0349 0-3e-3 3e-3 -0.0222-0.0127-0.0286l-0.13335 0.22542c0.17145 0.15875 0.3937 0.23178 0.61277 0.23178 0.39688 0 0.60325-0.23495 0.60325-0.45403 0-0.0984-0.0413-0.23177-0.21272-0.32702-0.16193-0.0921-0.39688-0.12383-0.5334-0.1905-0.11748-0.0572-0.14288-0.127-0.14288-0.1778 0-0.1143 0.14288-0.19685 0.3048-0.19685 0.20955 0 0.34925 0.127 0.40323 0.20002 0.01 0.01 6e-3 0.019 6e-3 0.0286 0 0.019 0.0127 0.0254 0.019 0.0254z"/>
    <path d="m153.03 237.15c-0.1143-0.16828-0.30797-0.26988-0.54292-0.26988-0.42545 0-0.72708 0.32068-0.72708 0.75565 0 0.43815 0.30163 0.762 0.71438 0.762 0.20002 0 0.39687-0.0825 0.5334-0.23177l-0.13018-0.1524c-0.0984 0.11112-0.2413 0.17462-0.38417 0.17462-0.28258 0-0.49848-0.23495-0.49848-0.57467 0-0.3302 0.21273-0.53658 0.47943-0.53658 0.24765 0 0.36512 0.17145 0.37465 0.1905 0.0127 0.0222-6e-3 0.054 0.019 0.073z"/>
    <path d="m154.63 237.64c0-0.50165-0.3175-0.762-0.6477-0.762-0.3683 0-0.6858 0.3175-0.6858 0.76835 0 0.44133 0.31433 0.75248 0.67945 0.75248 0.3429 0 0.65405-0.27623 0.65405-0.75883zm-0.66357-0.56832c0.20955 0 0.4318 0.18097 0.4318 0.57785 0 0.36512-0.20955 0.54927-0.4191 0.54927-0.23178 0-0.44133-0.2159-0.44133-0.57467 0-0.3556 0.20638-0.55245 0.42863-0.55245z"/>
    <path d="m154.95 236.91 3e-3 1.978h0.23177v-0.72073c0.0984 0.14288 0.26035 0.23178 0.43498 0.23178 0.29845 0 0.6096-0.25083 0.6096-0.78105 0-0.51118-0.30163-0.73978-0.58738-0.73978-0.18732 0-0.36195 0.0952-0.46037 0.254v-0.22225zm0.60643 0.16193c0.127 0 0.43497 0.0667 0.43497 0.59372 0 0.4572-0.29845 0.53023-0.43497 0.53023-0.13653 0-0.27623-0.0699-0.33338-0.20003-0.0413-0.0984-0.0413-0.21907-0.0413-0.42862 0-0.12065 6e-3 -0.20955 0.0381-0.28575 0.0572-0.13018 0.1905-0.20955 0.33655-0.20955z"/>
    <path d="m157.17 236.87c-0.34608 0-0.66675 0.24765-0.66675 0.7747 0 0.48577 0.30162 0.74295 0.69532 0.74295 0.20955 0 0.39688-0.0762 0.5207-0.22543l-0.127-0.12382c-0.0921 0.10795-0.23177 0.1651-0.37465 0.1651-0.19367 0-0.47625-0.10795-0.49212-0.54293h1.0287c0.01-0.0984 6e-3 -0.19367-0.01-0.27622-0.0667-0.39053-0.33655-0.51435-0.57467-0.51435zm-0.43815 0.61595c0.0476-0.3429 0.2667-0.44133 0.42227-0.44133 0.23495 0 0.40323 0.20638 0.37465 0.44133z"/>
    <path d="m158.18 236.44c0.4191 0.22542 0.6858 0.65722 0.6858 1.1303 0 0.47625-0.27305 0.92075-0.70168 1.1462l0.0603 0.19368c0.52705-0.25083 0.86677-0.77788 0.86677-1.3494 0-0.56515-0.33337-1.0795-0.8509-1.3176z"/>
    <path d="m160.47 237.2c0-0.0984-0.0825-0.18098-0.18732-0.18098-0.10478 0-0.18733 0.0825-0.18733 0.18098 0 0.1016 0.0825 0.18097 0.18733 0.18097 0.10477 0 0.18732-0.0794 0.18732-0.18097zm0 1.0128c0-0.0984-0.0825-0.18097-0.18732-0.18097-0.10478 0-0.18733 0.0825-0.18733 0.18097 0 0.1016 0.0825 0.18415 0.18733 0.18415 0.10477 0 0.18732-0.0825 0.18732-0.18415z"/>
    <path d="m163.04 236.91v0.18732h0.34925v1.0827h-0.3683v0.18097h0.9398v-0.18097h-0.33973v-1.27zm0.4699-0.62865c-0.0921 0-0.1651 0.073-0.1651 0.16192 0 0.0889 0.073 0.16193 0.1651 0.16193s0.1651-0.073 0.1651-0.16193c0-0.0889-0.073-0.16192-0.1651-0.16192z"/>
    <path d="m164.5 238.36h0.23177v-0.83502c0-0.0952 0.0127-0.16828 0.073-0.24765 0.054-0.073 0.19367-0.2032 0.34607-0.2032 0.073 0 0.14605 0.0318 0.19685 0.0921 0.0794 0.0952 0.0794 0.21908 0.0794 0.32068v0.87312h0.22542v-0.87947c0-0.11113 0-0.23178-0.0508-0.34925-0.073-0.16193-0.22225-0.254-0.38735-0.254-0.19685 0-0.37465 0.127-0.4826 0.28892v-0.254h-0.23177z"/>
    <path d="m166.47 236.52-0.0286 0.39052h-0.34608l-3e-3 0.18733h0.33972c-0.019 0.24765-0.0286 0.4953-0.0286 0.73977 0 0.13018 0 0.27623 0.0857 0.39688 0.0699 0.0953 0.18098 0.1524 0.3302 0.1524 0.17145 0 0.33973-0.073 0.46355-0.16193l-0.0699-0.18097c-0.12382 0.0921-0.23812 0.13335-0.32702 0.13335-0.10795 0-0.21908-0.0603-0.24448-0.23495 0-0.0127-0.01-0.0667-0.01-0.2794 0-0.18733 0.01-0.37783 0.0286-0.56515h0.47625v-0.1905h-0.47307s0.0222-0.26035 0.0381-0.3429c3e-3 -0.0317 0.0286-0.0508 0.0159-0.0857z"/>
    <path d="m122.13 240.07v0.53975h-0.56198v0.19685h0.56198v0.59372h0.20002v-0.59372h0.54293v-0.19685h-0.54293v-0.53975z"/>
    <path d="m124.76 239.74v1.2986c0 0.1397 3e-3 0.27305 0.0762 0.40957 0.10795 0.2032 0.3302 0.30798 0.56198 0.30798 0.2286 0 0.45085-0.1016 0.56197-0.31115 0.0762-0.13653 0.0794-0.27305 0.0794-0.4191v-1.2859h-0.20955v1.2922c0 0.1016-3e-3 0.20002-0.0508 0.30162-0.073 0.1524-0.22225 0.23178-0.37783 0.23178-0.15557 0-0.3048-0.0825-0.37465-0.23495-0.0476-0.0952-0.0476-0.19368-0.0476-0.2921v-1.197c0-0.0127 0-0.0254 0.0127-0.0413 6e-3 -0.01 0.0191-0.0254 0.0191-0.0444 0-3e-3 0-0.01-3e-3 -0.0159z"/>
    <path d="m126.4 241.72h0.23178v-0.83503c0-0.0952 0.0127-0.16827 0.073-0.24765 0.054-0.073 0.19368-0.2032 0.34608-0.2032 0.073 0 0.14605 0.0317 0.19685 0.0921 0.0794 0.0952 0.0794 0.21907 0.0794 0.32067v0.87313h0.22543v-0.87948c0-0.11112 0-0.23177-0.0508-0.34925-0.073-0.16192-0.22225-0.254-0.38735-0.254-0.19685 0-0.37465 0.127-0.4826 0.28893v-0.254h-0.23178z"/>
    <path d="m129.15 240.47c-0.13335-0.14605-0.32702-0.22543-0.54292-0.22543-0.33655 0-0.55563 0.18733-0.55563 0.40323 0 0.254 0.27305 0.34607 0.35243 0.37465 0.12382 0.0445 0.28257 0.0825 0.39052 0.13335 0.12065 0.0571 0.14288 0.13335 0.14288 0.18415 0 0.13652-0.1651 0.2286-0.37148 0.2286-0.24765 0-0.4064-0.14923-0.45402-0.20003-0.01-0.0127-0.01-0.0222-0.01-0.0349 0-3e-3 3e-3 -0.0222-0.0127-0.0286l-0.13335 0.22543c0.17145 0.15875 0.3937 0.23177 0.61278 0.23177 0.39687 0 0.60325-0.23495 0.60325-0.45402 0-0.0984-0.0413-0.23178-0.21273-0.32703-0.16192-0.0921-0.39687-0.12382-0.5334-0.1905-0.11747-0.0572-0.14287-0.127-0.14287-0.1778 0-0.1143 0.14287-0.19685 0.3048-0.19685 0.20955 0 0.34925 0.127 0.40322 0.20003 0.01 0.01 6e-3 0.019 6e-3 0.0286 0 0.019 0.0127 0.0254 0.019 0.0254z"/>
    <path d="m129.56 240.27v0.80962c0 0.12383 0 0.25083 0.0572 0.381 0.0825 0.1905 0.26035 0.29528 0.45085 0.29528 0.18098 0 0.35243-0.0984 0.44768-0.25718l-3e-3 0.10795c0 0.0381 0 0.0762 6e-3 0.11113h0.2413c-0.0159-0.0413-0.019-0.0889-0.019-0.13018v-1.3176h-0.2286v0.79692c0 0.11113-0.01 0.19685-0.0572 0.28575-0.0667 0.12383-0.19685 0.2159-0.33655 0.2159-0.11112 0-0.21907-0.0635-0.27622-0.1778-0.0508-0.1016-0.0508-0.2159-0.0508-0.31115v-0.80962z"/>
    <path d="m131.14 239.61v2.1114h0.14922l0.0794-0.1905c0.0952 0.14287 0.254 0.2286 0.42862 0.2286 0.29845 0 0.60643-0.254 0.60643-0.78105 0-0.50483-0.29845-0.73978-0.5842-0.73978-0.18415 0-0.3556 0.0984-0.44768 0.25718v-0.8128c0-0.0191 3e-3 -0.0254 0.019-0.0381 6e-3 -3e-3 0.0222-0.0159 0.019-0.0349zm0.60007 0.8255c0.13653 0 0.42545 0.0794 0.42545 0.59373 0 0.44132-0.28575 0.52387-0.42862 0.52387-0.0984 0-0.3175-0.0381-0.3556-0.3175-0.01-0.073-0.01-0.15875-0.01-0.28575 0-0.13017 6e-3 -0.22542 0.0381-0.3048 0.054-0.13017 0.18733-0.20955 0.3302-0.20955z"/>
    <path d="m133.91 240.47c-0.13335-0.14605-0.32702-0.22543-0.54292-0.22543-0.33655 0-0.55563 0.18733-0.55563 0.40323 0 0.254 0.27305 0.34607 0.35243 0.37465 0.12382 0.0445 0.28257 0.0825 0.39052 0.13335 0.12065 0.0571 0.14288 0.13335 0.14288 0.18415 0 0.13652-0.1651 0.2286-0.37148 0.2286-0.24765 0-0.4064-0.14923-0.45402-0.20003-0.01-0.0127-0.01-0.0222-0.01-0.0349 0-3e-3 3e-3 -0.0222-0.0127-0.0286l-0.13335 0.22543c0.17145 0.15875 0.3937 0.23177 0.61278 0.23177 0.39687 0 0.60325-0.23495 0.60325-0.45402 0-0.0984-0.0413-0.23178-0.21273-0.32703-0.16192-0.0921-0.39687-0.12382-0.5334-0.1905-0.11747-0.0572-0.14287-0.127-0.14287-0.1778 0-0.1143 0.14287-0.19685 0.3048-0.19685 0.20955 0 0.34925 0.127 0.40322 0.20003 0.01 0.01 6e-3 0.019 6e-3 0.0286 0 0.019 0.0127 0.0254 0.019 0.0254z"/>
    <path d="m135.57 240.51c-0.1143-0.16827-0.30797-0.26987-0.54292-0.26987-0.42545 0-0.72708 0.32067-0.72708 0.75565 0 0.43815 0.30163 0.762 0.71438 0.762 0.20002 0 0.39687-0.0825 0.5334-0.23178l-0.13018-0.1524c-0.0984 0.11113-0.2413 0.17463-0.38417 0.17463-0.28258 0-0.49848-0.23495-0.49848-0.57468 0-0.3302 0.21273-0.53657 0.47943-0.53657 0.24765 0 0.36512 0.17145 0.37465 0.1905 0.0127 0.0222-6e-3 0.054 0.019 0.073z"/>
    <path d="m136.03 240.27v1.451h0.2286v-0.70485c0-0.0889 3e-3 -0.18415 0.1016-0.33972 0.13335-0.20955 0.3048-0.24448 0.40958-0.24448 0.12065 0 0.19685 0.0572 0.23812 0.10795 0.019 0.0254 0.0286 0.0508 0.054 0.073l0.10795-0.21908c-0.0921-0.0952-0.22543-0.15875-0.38735-0.15875-0.21273 0-0.42863 0.10795-0.52388 0.31433l0.01-0.2794z"/>
    <path d="m137.64 240.27v0.18733h0.34925v1.0827h-0.3683v0.18098h0.9398v-0.18098h-0.33972v-1.27zm0.4699-0.62865c-0.0921 0-0.1651 0.073-0.1651 0.16193 0 0.0889 0.073 0.16192 0.1651 0.16192s0.1651-0.073 0.1651-0.16192c0-0.0889-0.073-0.16193-0.1651-0.16193z"/>
    <path d="m139.07 239.61v2.1114h0.14922l0.0794-0.1905c0.0952 0.14287 0.254 0.2286 0.42862 0.2286 0.29845 0 0.60643-0.254 0.60643-0.78105 0-0.50483-0.29845-0.73978-0.5842-0.73978-0.18415 0-0.3556 0.0984-0.44768 0.25718v-0.8128c0-0.0191 3e-3 -0.0254 0.019-0.0381 6e-3 -3e-3 0.0222-0.0159 0.019-0.0349zm0.60007 0.8255c0.13653 0 0.42545 0.0794 0.42545 0.59373 0 0.44132-0.28575 0.52387-0.42862 0.52387-0.0984 0-0.3175-0.0381-0.3556-0.3175-0.01-0.073-0.01-0.15875-0.01-0.28575 0-0.13017 6e-3 -0.22542 0.0381-0.3048 0.054-0.13017 0.18733-0.20955 0.3302-0.20955z"/>
    <path d="m141.29 240.24c-0.34608 0-0.66675 0.24765-0.66675 0.7747 0 0.48578 0.30162 0.74295 0.69532 0.74295 0.20955 0 0.39688-0.0762 0.5207-0.22542l-0.127-0.12383c-0.0921 0.10795-0.23177 0.1651-0.37465 0.1651-0.19367 0-0.47625-0.10795-0.49212-0.54292h1.0287c0.01-0.0984 6e-3 -0.19368-0.01-0.27623-0.0667-0.39052-0.33655-0.51435-0.57467-0.51435zm-0.43815 0.61595c0.0476-0.3429 0.2667-0.44132 0.42227-0.44132 0.23495 0 0.40323 0.20637 0.37465 0.44132z"/>
    <path d="m143.3 239.61c-0.48895 0.2159-0.80327 0.71437-0.80327 1.2954 0 0.57785 0.3048 1.1049 0.80645 1.3684l0.10477-0.16827c-0.43497-0.25083-0.68897-0.71755-0.68897-1.2097 0-0.45402 0.21907-0.86042 0.59055-1.0763 6e-3 -6e-3 0.0159-0.0127 0.0286-0.0127 0.01 0 0.0191 6e-3 0.0318 6e-3 6e-3 0 0.0159-3e-3 0.0286-6e-3z"/>
    <path d="m144.25 239.88-0.0286 0.39053h-0.34608l-3e-3 0.18732h0.33972c-0.019 0.24765-0.0286 0.4953-0.0286 0.73978 0 0.13017 0 0.27622 0.0857 0.39687 0.0699 0.0952 0.18098 0.1524 0.3302 0.1524 0.17145 0 0.33973-0.073 0.46355-0.16192l-0.0699-0.18098c-0.12382 0.0921-0.23812 0.13335-0.32702 0.13335-0.10795 0-0.21908-0.0603-0.24448-0.23495 0-0.0127-0.01-0.0667-0.01-0.2794 0-0.18732 0.01-0.37782 0.0286-0.56515h0.47625v-0.1905h-0.47307s0.0222-0.26035 0.0381-0.3429c3e-3 -0.0317 0.0286-0.0508 0.0159-0.0857z"/>
    <path d="m145.38 240.27 0.59055 1.4446-0.0476 0.10478c-0.0254 0.0603-0.054 0.12065-0.0984 0.16827-0.0603 0.0667-0.13653 0.0953-0.2032 0.0953-0.10795 0-0.16193-0.073-0.17145-0.0857-0.01-0.0159-6e-3 -0.0381-0.0254-0.054l-0.11748 0.20638c0.0826 0.0794 0.19368 0.12065 0.31433 0.12065 0.13017 0 0.2667-0.0476 0.36195-0.15558 0.0635-0.073 0.0952-0.14922 0.127-0.23177l0.45085-1.197c0.054-0.13652 0.1016-0.27622 0.14605-0.4191h-0.23813c-0.0254 0.13335-0.0667 0.26035-0.11112 0.38735l-0.27623 0.77788-0.42545-1.07c-3e-3 -0.01-3e-3 -0.0159-3e-3 -0.0254 0-0.0222 0.0159-0.0381 0.0127-0.0667z"/>
    <path d="m147.01 240.27 3e-3 1.978h0.23178v-0.72072c0.0984 0.14287 0.26035 0.23177 0.43497 0.23177 0.29845 0 0.6096-0.25082 0.6096-0.78105 0-0.51117-0.30162-0.73977-0.58737-0.73977-0.18733 0-0.36195 0.0952-0.46038 0.254v-0.22225zm0.60642 0.16192c0.127 0 0.43498 0.0667 0.43498 0.59373 0 0.4572-0.29845 0.53022-0.43498 0.53022-0.13652 0-0.27622-0.0699-0.33337-0.20002-0.0413-0.0984-0.0413-0.21908-0.0413-0.42863 0-0.12065 6e-3 -0.20955 0.0381-0.28575 0.0572-0.13017 0.1905-0.20955 0.33655-0.20955z"/>
    <path d="m149.23 240.24c-0.34608 0-0.66675 0.24765-0.66675 0.7747 0 0.48578 0.30162 0.74295 0.69532 0.74295 0.20955 0 0.39688-0.0762 0.5207-0.22542l-0.127-0.12383c-0.0921 0.10795-0.23177 0.1651-0.37465 0.1651-0.19367 0-0.47625-0.10795-0.49212-0.54292h1.0287c0.01-0.0984 6e-3 -0.19368-0.01-0.27623-0.0667-0.39052-0.33655-0.51435-0.57467-0.51435zm-0.43815 0.61595c0.0476-0.3429 0.2667-0.44132 0.42227-0.44132 0.23495 0 0.40323 0.20637 0.37465 0.44132z"/>
    <path d="m150.24 239.81c0.4191 0.22543 0.6858 0.65723 0.6858 1.1303 0 0.47625-0.27305 0.92075-0.70167 1.1462l0.0603 0.19367c0.52705-0.25082 0.86678-0.77787 0.86678-1.3494 0-0.56515-0.33338-1.0795-0.8509-1.3176z"/>
    <path d="m152.53 240.56c0-0.0984-0.0826-0.18097-0.18733-0.18097-0.10477 0-0.18732 0.0825-0.18732 0.18097 0 0.1016 0.0825 0.18098 0.18732 0.18098 0.10478 0 0.18733-0.0794 0.18733-0.18098zm0 1.0128c0-0.0984-0.0826-0.18098-0.18733-0.18098-0.10477 0-0.18732 0.0825-0.18732 0.18098 0 0.1016 0.0825 0.18415 0.18732 0.18415 0.10478 0 0.18733-0.0825 0.18733-0.18415z"/>
    <path d="m155.1 240.27v0.18733h0.34925v1.0827h-0.3683v0.18098h0.9398v-0.18098h-0.33973v-1.27zm0.4699-0.62865c-0.0921 0-0.1651 0.073-0.1651 0.16193 0 0.0889 0.073 0.16192 0.1651 0.16192s0.1651-0.073 0.1651-0.16192c0-0.0889-0.073-0.16193-0.1651-0.16193z"/>
    <path d="m156.57 241.72h0.23177v-0.83503c0-0.0952 0.0127-0.16827 0.073-0.24765 0.054-0.073 0.19367-0.2032 0.34607-0.2032 0.073 0 0.14605 0.0317 0.19685 0.0921 0.0794 0.0952 0.0794 0.21907 0.0794 0.32067v0.87313h0.22542v-0.87948c0-0.11112 0-0.23177-0.0508-0.34925-0.073-0.16192-0.22225-0.254-0.38735-0.254-0.19685 0-0.37465 0.127-0.4826 0.28893v-0.254h-0.23177z"/>
    <path d="m158.53 239.88-0.0286 0.39053h-0.34608l-3e-3 0.18732h0.33972c-0.019 0.24765-0.0286 0.4953-0.0286 0.73978 0 0.13017 0 0.27622 0.0857 0.39687 0.0699 0.0952 0.18098 0.1524 0.3302 0.1524 0.17145 0 0.33973-0.073 0.46355-0.16192l-0.0699-0.18098c-0.12382 0.0921-0.23812 0.13335-0.32702 0.13335-0.10795 0-0.21908-0.0603-0.24448-0.23495 0-0.0127-0.01-0.0667-0.01-0.2794 0-0.18732 0.01-0.37782 0.0286-0.56515h0.47625v-0.1905h-0.47307s0.0222-0.26035 0.0381-0.3429c3e-3 -0.0317 0.0286-0.0508 0.0159-0.0857z"/>
   </g>
  </g>
 </g>
</svg>
