<?xml version="1.0" encoding="UTF-8"?>
<svg width="149.75mm" height="120.65mm" version="1.1" viewBox="0 0 149.75 120.65" xmlns="http://www.w3.org/2000/svg" xmlns:cc="http://creativecommons.org/ns#" xmlns:dc="http://purl.org/dc/elements/1.1/" xmlns:rdf="http://www.w3.org/1999/02/22-rdf-syntax-ns#">
 <metadata>
  <rdf:RDF>
   <cc:Work rdf:about="">
    <dc:format>image/svg+xml</dc:format>
    <dc:type rdf:resource="http://purl.org/dc/dcmitype/StillImage"/>
    <dc:title/>
   </cc:Work>
  </rdf:RDF>
 </metadata>
 <g transform="translate(-63.812 65.431)">
  <rect x="124.8" y="-38.174" width="33.073" height="12.954" fill="#1d232d" stroke="#6f8ce9" stroke-linecap="round" stroke-width=".26458"/>
  <g fill="#e8eaec" stroke-linecap="round" stroke-width=".26458" aria-label="id Tech 1 Quake engine">
   <path d="m134.74-34.955c0.11853 0 0.21114-0.08149 0.21114-0.19632 0-0.11853-0.0926-0.19632-0.21114-0.19632s-0.21114 0.07779-0.21114 0.19632c0 0.11483 0.0926 0.19632 0.21114 0.19632zm-0.15558 2.1706h0.30375v-1.8002h-0.30375z"/>
   <path d="m135.36-33.68c0 0.60008 0.29263 0.94086 0.74454 0.94086 0.21114 0 0.40375-0.11853 0.54451-0.25559h0.0111l0.0259 0.21114h0.25189v-2.6374h-0.30745v0.69268l0.0148 0.30745c-0.15928-0.12965-0.29634-0.20743-0.50377-0.20743-0.41116 0-0.78158 0.36301-0.78158 0.94827zm0.31485-0.0037c0-0.41116 0.22966-0.68898 0.51859-0.68898 0.14817 0 0.28522 0.05186 0.43709 0.18891v0.94086c-0.14817 0.16669-0.29263 0.24818-0.45932 0.24818-0.31485 0-0.49636-0.25929-0.49636-0.68898z"/>
   <path d="m138.82-32.784h0.30745v-2.1706h0.73713v-0.25929h-1.7817v0.25929h0.73713z"/>
   <path d="m139.88-33.68c0 0.58896 0.38153 0.94086 0.86307 0.94086 0.24447 0 0.43709-0.0852 0.59267-0.18521l-0.10742-0.20002c-0.13335 0.0852-0.27782 0.14076-0.44821 0.14076-0.34449 0-0.57785-0.24448-0.60007-0.63341h1.215c7e-3 -0.04445 0.0111-0.10372 0.0111-0.16669 0-0.51488-0.2593-0.84455-0.71861-0.84455-0.41117 0-0.80751 0.3593-0.80751 0.94827zm0.29633-0.13705c0.037-0.36301 0.2667-0.57044 0.51859-0.57044 0.28151 0 0.4445 0.20373 0.4445 0.57044z"/>
   <path d="m141.72-33.68c0 0.59637 0.36672 0.94086 0.84455 0.94086 0.21485 0 0.42228-0.0889 0.58526-0.23336l-0.13705-0.20003c-0.10742 0.09631-0.25188 0.1815-0.42228 0.1815-0.32967 0-0.55562-0.27781-0.55562-0.68898 0-0.41487 0.23707-0.69638 0.56303-0.69638 0.14446 0 0.25559 0.06668 0.36301 0.15928l0.15187-0.19632c-0.12224-0.11483-0.28892-0.21484-0.52599-0.21484-0.46302 0-0.86678 0.34449-0.86678 0.94827z"/>
   <path d="m143.54-32.784h0.30374v-1.3039c0.18151-0.1815 0.30745-0.27781 0.49266-0.27781 0.23706 0 0.34078 0.14446 0.34078 0.48154v1.1001h0.30374v-1.1409c0-0.45932-0.17039-0.70379-0.54821-0.70379-0.24818 0-0.42969 0.13335-0.60008 0.29633l0.0111-0.37042v-0.71861h-0.30374z"/>
   <path d="m146.29-32.784h1.3335v-0.25188h-0.48895v-2.1114h-0.23337c-0.12964 0.07779-0.28522 0.13705-0.50006 0.1741v0.19632h0.42968v1.741h-0.5408z"/>
   <path d="m130.95-29.344c0-0.60378 0.28522-0.9779 0.71861-0.9779 0.43338 0 0.71861 0.37412 0.71861 0.9779 0 0.60748-0.28523 1.0001-0.71861 1.0001-0.43339 0-0.71861-0.39264-0.71861-1.0001zm1.7521 1.5372c-0.0667 0.01852-0.14817 0.03704-0.25559 0.03704-0.26299 0-0.48524-0.10372-0.59637-0.31856 0.51488-0.0889 0.85937-0.55563 0.85937-1.2557 0-0.77417-0.42969-1.2483-1.0409-1.2483-0.61119 0-1.0372 0.47043-1.0372 1.2483 0 0.7149 0.3556 1.1853 0.8853 1.2594 0.14075 0.33338 0.4482 0.57415 0.8964 0.57415 0.14447 0 0.27411-0.02963 0.3482-0.05556z"/>
   <path d="m133.17-28.777c0 0.45932 0.17039 0.70379 0.55192 0.70379 0.24818 0 0.42598-0.12965 0.59267-0.32597h0.0111l0.0259 0.28152h0.25188v-1.8002h-0.30374v1.2779c-0.17039 0.21114-0.30004 0.30374-0.48525 0.30374-0.23706 0-0.33708-0.14446-0.33708-0.48154v-1.1001h-0.30744z"/>
   <path d="m135.13-28.584c0 0.32226 0.22595 0.51118 0.5297 0.51118 0.22225 0 0.42227-0.11853 0.59637-0.25929h7e-3l0.0259 0.21484h0.25189v-1.1038c0-0.4482-0.18521-0.74083-0.62601-0.74083-0.28892 0-0.54081 0.12594-0.70749 0.23336l0.12223 0.21114c0.14076-0.09631 0.32597-0.19262 0.53711-0.19262 0.29263 0 0.37042 0.22225 0.37042 0.45191-0.76677 0.0852-1.1076 0.28152-1.1076 0.67416zm0.30004-0.02222c0-0.22966 0.20373-0.37783 0.80751-0.45191v0.50006c-0.1741 0.15558-0.31856 0.24077-0.49266 0.24077-0.1778 0-0.31485-0.0852-0.31485-0.28892z"/>
   <path d="m137.11-28.118h0.30004v-0.47413l0.33708-0.39264 0.52599 0.86678h0.33338l-0.68527-1.0779 0.60378-0.72231h-0.33708l-0.76677 0.94827h-0.0111v-1.7854h-0.30004z"/>
   <path d="m138.74-29.014c0 0.58896 0.38153 0.94086 0.86307 0.94086 0.24448 0 0.4371-0.0852 0.59267-0.18521l-0.10742-0.20002c-0.13335 0.0852-0.27781 0.14076-0.44821 0.14076-0.34448 0-0.57785-0.24448-0.60007-0.63341h1.215c7e-3 -0.04445 0.0111-0.10372 0.0111-0.16669 0-0.51488-0.25929-0.84455-0.71861-0.84455-0.41116 0-0.80751 0.3593-0.80751 0.94827zm0.29634-0.13705c0.037-0.36301 0.2667-0.57044 0.51858-0.57044 0.28152 0 0.4445 0.20373 0.4445 0.57044z"/>
   <path d="m141.32-29.014c0 0.58896 0.38153 0.94086 0.86307 0.94086 0.24448 0 0.4371-0.0852 0.59267-0.18521l-0.10742-0.20002c-0.13335 0.0852-0.27781 0.14076-0.4482 0.14076-0.34449 0-0.57786-0.24448-0.60008-0.63341h1.215c7e-3 -0.04445 0.0111-0.10372 0.0111-0.16669 0-0.51488-0.25929-0.84455-0.71861-0.84455-0.41116 0-0.80751 0.3593-0.80751 0.94827zm0.29634-0.13705c0.037-0.36301 0.2667-0.57044 0.51858-0.57044 0.28152 0 0.4445 0.20373 0.4445 0.57044z"/>
   <path d="m143.3-28.118h0.30374v-1.3039c0.1815-0.1815 0.30745-0.27781 0.49265-0.27781 0.23707 0 0.34079 0.14446 0.34079 0.48154v1.1001h0.30374v-1.1409c0-0.45932-0.17039-0.70379-0.54822-0.70379-0.24818 0-0.43338 0.13335-0.60378 0.30374h-0.0111l-0.0259-0.25929h-0.25188z"/>
   <path d="m145.45-27.814c0-0.10372 0.0556-0.21114 0.18521-0.30374 0.0778 0.02222 0.16298 0.02963 0.23336 0.02963h0.31115c0.23337 0 0.36301 0.05556 0.36301 0.22225 0 0.18891-0.22595 0.36671-0.57044 0.36671-0.32597 0-0.52229-0.12224-0.52229-0.31486zm-0.2667 0.04075c0 0.31115 0.30374 0.48525 0.74454 0.48525 0.55933 0 0.91123-0.28892 0.91123-0.6223 0-0.30004-0.21114-0.42968-0.62971-0.42968h-0.3482c-0.24447 0-0.31855-0.08149-0.31855-0.19632 0-0.10001 0.0519-0.15928 0.11483-0.21484 0.0815 0.04075 0.1815 0.06297 0.2704 0.06297 0.36671 0 0.65934-0.24077 0.65934-0.626 0-0.15187-0.063-0.28892-0.14816-0.37042h0.37041v-0.23336h-0.626c-0.0667-0.02593-0.15558-0.04445-0.25559-0.04445-0.36671 0-0.67786 0.24818-0.67786 0.64082 0 0.21484 0.11483 0.38894 0.23336 0.48525v0.01482c-0.0926 0.06297-0.19632 0.1815-0.19632 0.33338 0 0.14076 0.0704 0.23707 0.15928 0.29263v0.01482c-0.16299 0.11112-0.263 0.25559-0.263 0.40746zm0.74454-1.1187c-0.20743 0-0.38153-0.16669-0.38153-0.42968s0.17039-0.41857 0.38153-0.41857 0.38153 0.15558 0.38153 0.41857-0.1741 0.42968-0.38153 0.42968z"/>
   <path d="m147.34-30.288c0.11853 0 0.21113-0.08149 0.21113-0.19632 0-0.11853-0.0926-0.19632-0.21113-0.19632-0.11854 0-0.21114 0.07779-0.21114 0.19632 0 0.11483 0.0926 0.19632 0.21114 0.19632zm-0.15558 2.1706h0.30374v-1.8002h-0.30374z"/>
   <path d="m148.1-28.118h0.30375v-1.3039c0.1815-0.1815 0.30744-0.27781 0.49265-0.27781 0.23707 0 0.34078 0.14446 0.34078 0.48154v1.1001h0.30375v-1.1409c0-0.45932-0.1704-0.70379-0.54822-0.70379-0.24818 0-0.43339 0.13335-0.60378 0.30374h-0.0111l-0.0259-0.25929h-0.25189z"/>
   <path d="m149.99-29.014c0 0.58896 0.38153 0.94086 0.86307 0.94086 0.24448 0 0.4371-0.0852 0.59267-0.18521l-0.10742-0.20002c-0.13335 0.0852-0.27781 0.14076-0.4482 0.14076-0.34449 0-0.57786-0.24448-0.60008-0.63341h1.215c7e-3 -0.04445 0.0111-0.10372 0.0111-0.16669 0-0.51488-0.25929-0.84455-0.71861-0.84455-0.41116 0-0.80751 0.3593-0.80751 0.94827zm0.29634-0.13705c0.037-0.36301 0.2667-0.57044 0.51858-0.57044 0.28152 0 0.4445 0.20373 0.4445 0.57044z"/>
  </g>
  <g stroke="#6f8ce9" stroke-width=".26458">
   <path d="m142 13.42v-12.171" fill="#fff" fill-opacity=".070094" stroke-dashoffset="1.2" stroke-linecap="square"/>
   <path d="m123.63-5.0457h-23.812" fill="#fff" fill-opacity=".070094" stroke-dashoffset="1.2" stroke-linecap="square"/>
   <rect x="124.8" y="-11.715" width="33.073" height="12.954" fill="#1d232d" stroke-linecap="round"/>
  </g>
  <g fill="#e8eaec" stroke-linecap="round" stroke-width=".26458" aria-label="id Tech 2 Quake II engine">
   <path d="m134.74-8.4963c0.11853 0 0.21114-0.081492 0.21114-0.19632 0-0.11853-0.0926-0.19632-0.21114-0.19632s-0.21114 0.077788-0.21114 0.19632c0 0.11483 0.0926 0.19632 0.21114 0.19632zm-0.15558 2.1706h0.30375v-1.8002h-0.30375z"/>
   <path d="m135.36-7.2221c0 0.60008 0.29263 0.94086 0.74454 0.94086 0.21114 0 0.40375-0.11853 0.54451-0.25559h0.0111l0.0259 0.21114h0.25189v-2.6374h-0.30745v0.69268l0.0148 0.30745c-0.15928-0.12965-0.29634-0.20743-0.50377-0.20743-0.41116 0-0.78158 0.36301-0.78158 0.94827zm0.31485-0.0037c0-0.41116 0.22966-0.68898 0.51859-0.68898 0.14817 0 0.28522 0.051858 0.43709 0.18891v0.94086c-0.14817 0.16669-0.29263 0.24818-0.45932 0.24818-0.31485 0-0.49636-0.25929-0.49636-0.68898z"/>
   <path d="m138.82-6.3257h0.30745v-2.1706h0.73713v-0.25929h-1.7817v0.25929h0.73713z"/>
   <path d="m139.88-7.2221c0 0.58896 0.38153 0.94086 0.86307 0.94086 0.24447 0 0.43709-0.085196 0.59267-0.18521l-0.10742-0.20003c-0.13335 0.085196-0.27782 0.14076-0.44821 0.14076-0.34449 0-0.57785-0.24448-0.60007-0.63341h1.215c7e-3 -0.04445 0.0111-0.10372 0.0111-0.16669 0-0.51488-0.2593-0.84455-0.71861-0.84455-0.41117 0-0.80751 0.3593-0.80751 0.94827zm0.29633-0.13705c0.037-0.36301 0.2667-0.57044 0.51859-0.57044 0.28151 0 0.4445 0.20373 0.4445 0.57044z"/>
   <path d="m141.72-7.2221c0 0.59637 0.36672 0.94086 0.84455 0.94086 0.21485 0 0.42228-0.0889 0.58526-0.23336l-0.13705-0.20003c-0.10742 0.096308-0.25188 0.1815-0.42228 0.1815-0.32967 0-0.55562-0.27781-0.55562-0.68898 0-0.41487 0.23707-0.69638 0.56303-0.69638 0.14446 0 0.25559 0.066675 0.36301 0.15928l0.15187-0.19632c-0.12224-0.11483-0.28892-0.21484-0.52599-0.21484-0.46302 0-0.86678 0.34449-0.86678 0.94827z"/>
   <path d="m143.54-6.3257h0.30374v-1.3039c0.18151-0.1815 0.30745-0.27781 0.49266-0.27781 0.23706 0 0.34078 0.14446 0.34078 0.48154v1.1001h0.30374v-1.1409c0-0.45932-0.17039-0.70379-0.54821-0.70379-0.24818 0-0.42969 0.13335-0.60008 0.29633l0.0111-0.37042v-0.71861h-0.30374z"/>
   <path d="m146.15-6.3257h1.5261v-0.263h-0.68527c-0.12224 0-0.2667 0.011113-0.39635 0.022225 0.55933-0.58526 0.96309-1.0261 0.96309-1.4706 0-0.41857-0.27041-0.69638-0.7075-0.69638-0.30744 0-0.51858 0.14446-0.7149 0.3593l0.17409 0.1741c0.13706-0.15928 0.30745-0.28522 0.50377-0.28522 0.30004 0 0.4482 0.19262 0.4482 0.46302 0 0.38153-0.40005 0.80751-1.1112 1.515z"/>
   <path d="m129.62-2.8854c0-0.60378 0.28522-0.9779 0.71861-0.9779s0.71861 0.37412 0.71861 0.9779c0 0.60748-0.28522 1.0001-0.71861 1.0001s-0.71861-0.39264-0.71861-1.0001zm1.7521 1.5372c-0.0667 0.018521-0.14817 0.037042-0.25559 0.037042-0.26299 0-0.48524-0.10372-0.59637-0.31856 0.51488-0.0889 0.85937-0.55563 0.85937-1.2557 0-0.77417-0.42968-1.2483-1.0409-1.2483s-1.0372 0.47043-1.0372 1.2483c0 0.7149 0.3556 1.1853 0.8853 1.2594 0.14076 0.33338 0.4482 0.57415 0.89641 0.57415 0.14446 0 0.2741-0.029633 0.34819-0.055562z"/>
   <path d="m131.84-2.3186c0 0.45932 0.17039 0.70379 0.55192 0.70379 0.24818 0 0.42598-0.12965 0.59267-0.32597h0.0111l0.0259 0.28152h0.25188v-1.8002h-0.30374v1.2779c-0.17039 0.21114-0.30004 0.30374-0.48525 0.30374-0.23706 0-0.33707-0.14446-0.33707-0.48154v-1.1001h-0.30745z"/>
   <path d="m133.8-2.126c0 0.32226 0.22596 0.51118 0.5297 0.51118 0.22225 0 0.42227-0.11853 0.59637-0.25929h7e-3l0.0259 0.21484h0.25188v-1.1038c0-0.4482-0.18521-0.74083-0.62601-0.74083-0.28892 0-0.5408 0.12594-0.70749 0.23336l0.12224 0.21114c0.14075-0.096308 0.32596-0.19262 0.5371-0.19262 0.29263 0 0.37042 0.22225 0.37042 0.45191-0.76677 0.085196-1.1076 0.28152-1.1076 0.67416zm0.30004-0.022225c0-0.22966 0.20373-0.37783 0.80751-0.45191v0.50006c-0.1741 0.15558-0.31856 0.24077-0.49266 0.24077-0.1778 0-0.31485-0.085196-0.31485-0.28893z"/>
   <path d="m135.78-1.6593h0.30004v-0.47413l0.33708-0.39264 0.52599 0.86678h0.33338l-0.68527-1.0779 0.60378-0.72231h-0.33708l-0.76677 0.94827h-0.0111v-1.7854h-0.30004z"/>
   <path d="m137.41-2.5557c0 0.58896 0.38153 0.94086 0.86307 0.94086 0.24448 0 0.4371-0.085196 0.59267-0.18521l-0.10742-0.20003c-0.13335 0.085196-0.27781 0.14076-0.4482 0.14076-0.34449 0-0.57785-0.24448-0.60008-0.63341h1.215c7e-3 -0.04445 0.0111-0.10372 0.0111-0.16669 0-0.51488-0.25929-0.84455-0.71861-0.84455-0.41116 0-0.80751 0.3593-0.80751 0.94827zm0.29634-0.13705c0.037-0.36301 0.2667-0.57044 0.51858-0.57044 0.28152 0 0.4445 0.20373 0.4445 0.57044z"/>
   <path d="m140.15-1.6593h0.31115v-2.4299h-0.31115z"/>
   <path d="m141.1-1.6593h0.31115v-2.4299h-0.31115z"/>
   <path d="m142.65-2.5557c0 0.58896 0.38153 0.94086 0.86307 0.94086 0.24448 0 0.43709-0.085196 0.59267-0.18521l-0.10742-0.20003c-0.13335 0.085196-0.27781 0.14076-0.44821 0.14076-0.34448 0-0.57785-0.24448-0.60007-0.63341h1.215c7e-3 -0.04445 0.0111-0.10372 0.0111-0.16669 0-0.51488-0.25929-0.84455-0.71861-0.84455-0.41116 0-0.80751 0.3593-0.80751 0.94827zm0.29633-0.13705c0.037-0.36301 0.2667-0.57044 0.51859-0.57044 0.28152 0 0.4445 0.20373 0.4445 0.57044z"/>
   <path d="m144.62-1.6593h0.30374v-1.3039c0.1815-0.1815 0.30744-0.27781 0.49265-0.27781 0.23707 0 0.34079 0.14446 0.34079 0.48154v1.1001h0.30374v-1.1409c0-0.45932-0.17039-0.70379-0.54822-0.70379-0.24818 0-0.43339 0.13335-0.60378 0.30374h-0.0111l-0.0259-0.25929h-0.25188z"/>
   <path d="m146.78-1.3555c0-0.10372 0.0556-0.21114 0.18521-0.30374 0.0778 0.022225 0.16298 0.029633 0.23336 0.029633h0.31115c0.23337 0 0.36301 0.055563 0.36301 0.22225 0 0.18891-0.22595 0.36671-0.57044 0.36671-0.32597 0-0.52229-0.12224-0.52229-0.31485zm-0.2667 0.040746c0 0.31115 0.30374 0.48525 0.74454 0.48525 0.55933 0 0.91122-0.28893 0.91122-0.6223 0-0.30004-0.21113-0.42968-0.6297-0.42968h-0.3482c-0.24447 0-0.31855-0.081492-0.31855-0.19632 0-0.10001 0.0519-0.15928 0.11482-0.21484 0.0815 0.040746 0.18151 0.062971 0.27041 0.062971 0.36671 0 0.65934-0.24077 0.65934-0.626 0-0.15187-0.063-0.28893-0.14817-0.37042h0.37042v-0.23336h-0.626c-0.0667-0.025929-0.15558-0.04445-0.25559-0.04445-0.36671 0-0.67786 0.24818-0.67786 0.64082 0 0.21484 0.11482 0.38894 0.23336 0.48525v0.014817c-0.0926 0.062971-0.19632 0.1815-0.19632 0.33338 0 0.14076 0.0704 0.23707 0.15928 0.29263v0.014817c-0.16299 0.11113-0.263 0.25559-0.263 0.40746zm0.74454-1.1187c-0.20743 0-0.38153-0.16669-0.38153-0.42968s0.17039-0.41857 0.38153-0.41857 0.38153 0.15558 0.38153 0.41857-0.1741 0.42968-0.38153 0.42968z"/>
   <path d="m148.67-3.8299c0.11854 0 0.21114-0.081492 0.21114-0.19632 0-0.11853-0.0926-0.19632-0.21114-0.19632-0.11853 0-0.21113 0.077788-0.21113 0.19632 0 0.11483 0.0926 0.19632 0.21113 0.19632zm-0.15557 2.1706h0.30374v-1.8002h-0.30374z"/>
   <path d="m149.43-1.6593h0.30374v-1.3039c0.18151-0.1815 0.30745-0.27781 0.49266-0.27781 0.23707 0 0.34078 0.14446 0.34078 0.48154v1.1001h0.30374v-1.1409c0-0.45932-0.17039-0.70379-0.54821-0.70379-0.24818 0-0.43339 0.13335-0.60378 0.30374h-0.0111l-0.0259-0.25929h-0.25189z"/>
   <path d="m151.32-2.5557c0 0.58896 0.38153 0.94086 0.86307 0.94086 0.24448 0 0.43709-0.085196 0.59267-0.18521l-0.10742-0.20003c-0.13335 0.085196-0.27782 0.14076-0.44821 0.14076-0.34449 0-0.57785-0.24448-0.60007-0.63341h1.215c7e-3 -0.04445 0.0111-0.10372 0.0111-0.16669 0-0.51488-0.25929-0.84455-0.71861-0.84455-0.41116 0-0.80751 0.3593-0.80751 0.94827zm0.29633-0.13705c0.037-0.36301 0.2667-0.57044 0.51859-0.57044 0.28151 0 0.4445 0.20373 0.4445 0.57044z"/>
  </g>
  <path d="m142 39.878v-12.171" fill="#fff" fill-opacity=".070094" stroke="#6f8ce9" stroke-dashoffset="1.2" stroke-linecap="square" stroke-width=".26458"/>
  <g stroke-linecap="round" stroke-width=".26458">
   <rect x="124.8" y="14.743" width="33.073" height="12.954" fill="#1d232d" stroke="#6f8ce9"/>
   <g fill="#e8eaec" aria-label="id Tech 3 Quake III engine">
    <path d="m134.74 17.962c0.11853 0 0.21114-0.08149 0.21114-0.19632 0-0.11853-0.0926-0.19632-0.21114-0.19632s-0.21114 0.07779-0.21114 0.19632c0 0.11483 0.0926 0.19632 0.21114 0.19632zm-0.15558 2.1706h0.30375v-1.8002h-0.30375z"/>
    <path d="m135.36 19.236c0 0.60008 0.29263 0.94086 0.74454 0.94086 0.21114 0 0.40375-0.11853 0.54451-0.25559h0.0111l0.0259 0.21114h0.25189v-2.6374h-0.30745v0.69268l0.0148 0.30745c-0.15922-0.12965-0.29628-0.20743-0.50371-0.20743-0.41116 0-0.78158 0.36301-0.78158 0.94827zm0.31485-0.0037c0-0.41116 0.22966-0.68898 0.51859-0.68898 0.14817 0 0.28522 0.05186 0.43709 0.18891v0.94086c-0.14817 0.16669-0.29263 0.24818-0.45932 0.24818-0.31485 0-0.49636-0.25929-0.49636-0.68898z"/>
    <path d="m138.82 20.133h0.30745v-2.1706h0.73713v-0.25929h-1.7817v0.25929h0.73713z"/>
    <path d="m139.88 19.236c0 0.58896 0.38153 0.94086 0.86307 0.94086 0.24447 0 0.43709-0.0852 0.59267-0.18521l-0.10742-0.20003c-0.13335 0.0852-0.27782 0.14076-0.44821 0.14076-0.34449 0-0.57785-0.24448-0.60007-0.63341h1.215c7e-3 -0.04445 0.0111-0.10372 0.0111-0.16669 0-0.51488-0.2593-0.84455-0.71861-0.84455-0.41117 0-0.80751 0.3593-0.80751 0.94827zm0.29633-0.13705c0.037-0.36301 0.2667-0.57044 0.51859-0.57044 0.28151 0 0.4445 0.20373 0.4445 0.57044z"/>
    <path d="m141.72 19.236c0 0.59637 0.36672 0.94086 0.84455 0.94086 0.21485 0 0.42228-0.0889 0.58526-0.23336l-0.13705-0.20002c-0.10742 0.09631-0.25188 0.1815-0.42228 0.1815-0.32967 0-0.55562-0.27781-0.55562-0.68898 0-0.41487 0.23707-0.69638 0.56303-0.69638 0.14446 0 0.25559 0.06668 0.36301 0.15928l0.15187-0.19632c-0.12224-0.11483-0.28892-0.21484-0.52599-0.21484-0.46302 0-0.86678 0.34449-0.86678 0.94827z"/>
    <path d="m143.54 20.133h0.30374v-1.3039c0.18151-0.1815 0.30745-0.27781 0.49266-0.27781 0.23706 0 0.34078 0.14446 0.34078 0.48154v1.1001h0.30374v-1.1409c0-0.45932-0.17039-0.70379-0.54821-0.70379-0.24818 0-0.42969 0.13335-0.60008 0.29633l0.0111-0.37042v-0.71861h-0.30374z"/>
    <path d="m146.09 19.844c0.15927 0.1741 0.40005 0.33338 0.77787 0.33338 0.43339 0 0.77788-0.25559 0.77788-0.67416 0-0.32597-0.22596-0.5334-0.51118-0.60008v-0.01482c0.25559-0.09631 0.42968-0.27781 0.42968-0.56303 0-0.38153-0.29633-0.60008-0.70749-0.60008-0.27781 0-0.49636 0.12594-0.67786 0.29633l0.16298 0.19262c0.14076-0.14076 0.30744-0.24077 0.50377-0.24077 0.25188 0 0.40745 0.14446 0.40745 0.37412 0 0.24818-0.16668 0.4408-0.67045 0.4408v0.23336c0.56303 0 0.75565 0.18891 0.75565 0.47043 0 0.263-0.20373 0.43339-0.48895 0.43339-0.27781 0-0.46302-0.13335-0.60378-0.28152z"/>
    <path d="m129.15 23.573c0-0.60378 0.28522-0.9779 0.71861-0.9779 0.43338 0 0.71861 0.37412 0.71861 0.9779 0 0.60748-0.28523 1.0001-0.71861 1.0001-0.43339 0-0.71861-0.39264-0.71861-1.0001zm1.7521 1.5372c-0.0667 0.01852-0.14817 0.03704-0.25559 0.03704-0.26299 0-0.48524-0.10372-0.59637-0.31856 0.51488-0.0889 0.85937-0.55562 0.85937-1.2557 0-0.77417-0.42968-1.2483-1.0409-1.2483s-1.0372 0.47043-1.0372 1.2483c0 0.7149 0.3556 1.1853 0.8853 1.2594 0.14075 0.33338 0.4482 0.57415 0.89641 0.57415 0.14446 0 0.2741-0.02963 0.34819-0.05556z"/>
    <path d="m131.36 24.14c0 0.45932 0.17039 0.70379 0.55192 0.70379 0.24818 0 0.42598-0.12965 0.59267-0.32597h0.0111l0.0259 0.28152h0.25188v-1.8002h-0.30374v1.2779c-0.17039 0.21114-0.30004 0.30374-0.48525 0.30374-0.23706 0-0.33708-0.14446-0.33708-0.48154v-1.1001h-0.30744z"/>
    <path d="m133.32 24.332c0 0.32226 0.22595 0.51118 0.5297 0.51118 0.22225 0 0.42227-0.11853 0.59637-0.25929h7e-3l0.0259 0.21484h0.25188v-1.1038c0-0.4482-0.18521-0.74083-0.62601-0.74083-0.28892 0-0.5408 0.12594-0.70749 0.23336l0.12224 0.21114c0.14075-0.09631 0.32596-0.19262 0.5371-0.19262 0.29263 0 0.37042 0.22225 0.37042 0.45191-0.76677 0.0852-1.1076 0.28152-1.1076 0.67416zm0.30004-0.02222c0-0.22966 0.20373-0.37783 0.80751-0.45191v0.50006c-0.1741 0.15558-0.31856 0.24077-0.49266 0.24077-0.1778 0-0.31485-0.0852-0.31485-0.28892z"/>
    <path d="m135.3 24.799h0.30004v-0.47413l0.33708-0.39264 0.52599 0.86678h0.33338l-0.68527-1.0779 0.60378-0.72231h-0.33708l-0.76677 0.94827h-0.0111v-1.7854h-0.30004z"/>
    <path d="m136.94 23.903c0 0.58896 0.38153 0.94086 0.86307 0.94086 0.24448 0 0.4371-0.0852 0.59267-0.18521l-0.10742-0.20003c-0.13335 0.0852-0.27781 0.14076-0.4482 0.14076-0.34449 0-0.57786-0.24448-0.60008-0.63341h1.215c7e-3 -0.04445 0.0111-0.10372 0.0111-0.16669 0-0.51488-0.25929-0.84455-0.71861-0.84455-0.41116 0-0.80751 0.3593-0.80751 0.94827zm0.29634-0.13705c0.037-0.36301 0.2667-0.57044 0.51858-0.57044 0.28152 0 0.4445 0.20373 0.4445 0.57044z"/>
    <path d="m139.67 24.799h0.31115v-2.4299h-0.31115z"/>
    <path d="m140.63 24.799h0.31115v-2.4299h-0.31115z"/>
    <path d="m141.58 24.799h0.31115v-2.4299h-0.31115z"/>
    <path d="m143.13 23.903c0 0.58896 0.38153 0.94086 0.86307 0.94086 0.24448 0 0.43709-0.0852 0.59267-0.18521l-0.10742-0.20003c-0.13335 0.0852-0.27781 0.14076-0.44821 0.14076-0.34448 0-0.57785-0.24448-0.60007-0.63341h1.215c7e-3 -0.04445 0.0111-0.10372 0.0111-0.16669 0-0.51488-0.25929-0.84455-0.71861-0.84455-0.41116 0-0.80751 0.3593-0.80751 0.94827zm0.29633-0.13705c0.037-0.36301 0.26671-0.57044 0.51859-0.57044 0.28152 0 0.4445 0.20373 0.4445 0.57044z"/>
    <path d="m145.1 24.799h0.30374v-1.3039c0.1815-0.1815 0.30744-0.27781 0.49265-0.27781 0.23707 0 0.34079 0.14446 0.34079 0.48154v1.1001h0.30374v-1.1409c0-0.45932-0.17039-0.70379-0.54822-0.70379-0.24818 0-0.43339 0.13335-0.60378 0.30374h-0.0111l-0.0259-0.25929h-0.25188z"/>
    <path d="m147.26 25.103c0-0.10372 0.0556-0.21114 0.18521-0.30374 0.0778 0.02222 0.16298 0.02963 0.23336 0.02963h0.31115c0.23337 0 0.36301 0.05556 0.36301 0.22225 0 0.18891-0.22595 0.36671-0.57044 0.36671-0.32597 0-0.52229-0.12224-0.52229-0.31485zm-0.2667 0.04075c0 0.31115 0.30374 0.48525 0.74454 0.48525 0.55933 0 0.91122-0.28892 0.91122-0.6223 0-0.30004-0.21113-0.42968-0.6297-0.42968h-0.3482c-0.24447 0-0.31855-0.08149-0.31855-0.19632 0-0.10001 0.0519-0.15928 0.11482-0.21484 0.0815 0.04075 0.18151 0.06297 0.27041 0.06297 0.36671 0 0.65934-0.24077 0.65934-0.626 0-0.15187-0.063-0.28892-0.14817-0.37042h0.37042v-0.23336h-0.626c-0.0667-0.02593-0.15558-0.04445-0.25559-0.04445-0.36671 0-0.67786 0.24818-0.67786 0.64082 0 0.21484 0.11483 0.38894 0.23336 0.48525v0.01482c-0.0926 0.06297-0.19632 0.1815-0.19632 0.33338 0 0.14076 0.0704 0.23707 0.15928 0.29263v0.01482c-0.16299 0.11112-0.263 0.25559-0.263 0.40746zm0.74454-1.1187c-0.20743 0-0.38153-0.16669-0.38153-0.42968s0.17039-0.41857 0.38153-0.41857 0.38153 0.15558 0.38153 0.41857-0.1741 0.42968-0.38153 0.42968z"/>
    <path d="m149.15 22.628c0.11854 0 0.21114-0.08149 0.21114-0.19632 0-0.11853-0.0926-0.19632-0.21114-0.19632-0.11853 0-0.21113 0.07779-0.21113 0.19632 0 0.11483 0.0926 0.19632 0.21113 0.19632zm-0.15557 2.1706h0.30374v-1.8002h-0.30374z"/>
    <path d="m149.9 24.799h0.30374v-1.3039c0.18151-0.1815 0.30745-0.27781 0.49266-0.27781 0.23707 0 0.34078 0.14446 0.34078 0.48154v1.1001h0.30374v-1.1409c0-0.45932-0.17039-0.70379-0.54821-0.70379-0.24818 0-0.43339 0.13335-0.60378 0.30374h-0.0111l-0.0259-0.25929h-0.25189z"/>
    <path d="m151.8 23.903c0 0.58896 0.38153 0.94086 0.86307 0.94086 0.24448 0 0.4371-0.0852 0.59267-0.18521l-0.10742-0.20003c-0.13335 0.0852-0.27781 0.14076-0.44821 0.14076-0.34448 0-0.57785-0.24448-0.60007-0.63341h1.215c7e-3 -0.04445 0.0111-0.10372 0.0111-0.16669 0-0.51488-0.25929-0.84455-0.71861-0.84455-0.41116 0-0.80751 0.3593-0.80751 0.94827zm0.29633-0.13705c0.037-0.36301 0.26671-0.57044 0.51859-0.57044 0.28152 0 0.4445 0.20373 0.4445 0.57044z"/>
   </g>
   <rect x="124.8" y="41.201" width="33.073" height="12.954" fill="#1d232d" stroke="#6f8ce9"/>
   <g fill="#e8eaec" aria-label="id Tech 4 Doom 3 engine">
    <path d="m134.74 44.42c0.11853 0 0.21114-0.08149 0.21114-0.19632 0-0.11853-0.0926-0.19632-0.21114-0.19632s-0.21114 0.07779-0.21114 0.19632c0 0.11483 0.0926 0.19632 0.21114 0.19632zm-0.15558 2.1706h0.30375v-1.8002h-0.30375z"/>
    <path d="m135.36 45.695c0 0.60008 0.29263 0.94086 0.74454 0.94086 0.21114 0 0.40375-0.11853 0.54451-0.25559h0.0111l0.0259 0.21114h0.25189v-2.6374h-0.30745v0.69268l0.0148 0.30745c-0.15928-0.12965-0.29634-0.20743-0.50377-0.20743-0.41116 0-0.78158 0.36301-0.78158 0.94827zm0.31485-0.0037c0-0.41116 0.22966-0.68898 0.51859-0.68898 0.14817 0 0.28522 0.05186 0.43709 0.18891v0.94086c-0.14817 0.16669-0.29263 0.24818-0.45932 0.24818-0.31485 0-0.49636-0.25929-0.49636-0.68898z"/>
    <path d="m138.82 46.591h0.30745v-2.1706h0.73713v-0.25929h-1.7817v0.25929h0.73713z"/>
    <path d="m139.88 45.695c0 0.58896 0.38153 0.94086 0.86307 0.94086 0.24447 0 0.43709-0.0852 0.59267-0.18521l-0.10742-0.20003c-0.13335 0.0852-0.27782 0.14076-0.44821 0.14076-0.34449 0-0.57785-0.24448-0.60007-0.63341h1.215c7e-3 -0.04445 0.0111-0.10372 0.0111-0.16669 0-0.51488-0.2593-0.84455-0.71861-0.84455-0.41117 0-0.80751 0.3593-0.80751 0.94827zm0.29633-0.13705c0.037-0.36301 0.2667-0.57044 0.51859-0.57044 0.28151 0 0.4445 0.20373 0.4445 0.57044z"/>
    <path d="m141.72 45.695c0 0.59637 0.36672 0.94086 0.84455 0.94086 0.21485 0 0.42228-0.0889 0.58526-0.23336l-0.13705-0.20002c-0.10742 0.09631-0.25188 0.1815-0.42228 0.1815-0.32967 0-0.55562-0.27781-0.55562-0.68898 0-0.41487 0.23707-0.69638 0.56303-0.69638 0.14446 0 0.25559 0.06667 0.36301 0.15928l0.15187-0.19632c-0.12224-0.11483-0.28892-0.21484-0.52599-0.21484-0.46302 0-0.86678 0.34449-0.86678 0.94827z"/>
    <path d="m143.54 46.591h0.30374v-1.3039c0.18151-0.1815 0.30745-0.27781 0.49266-0.27781 0.23706 0 0.34078 0.14446 0.34078 0.48154v1.1001h0.30374v-1.1409c0-0.45932-0.17039-0.70379-0.54821-0.70379-0.24818 0-0.42969 0.13335-0.60008 0.29633l0.0111-0.37042v-0.71861h-0.30374z"/>
    <path d="m146.38 45.695 0.55192-0.80751c0.0667-0.11483 0.13335-0.21855 0.19262-0.33338h0.0148c-7e-3 0.12594-0.0185 0.32967-0.0185 0.45561v0.68527zm1.352 0h-0.32226v-1.4669h-0.34078l-1.0112 1.5113v0.20002h1.0631v0.65193h0.28893v-0.65193h0.32226z"/>
    <path d="m129.79 51.257h0.6223c0.73342 0 1.1335-0.45191 1.1335-1.2261 0-0.77047-0.40005-1.2039-1.1483-1.2039h-0.60748zm0.31115-0.25188v-1.9262h0.27411c0.57044 0 0.85195 0.34078 0.85195 0.95197 0 0.61489-0.28151 0.9742-0.85195 0.9742z"/>
    <path d="m131.9 50.361c0 0.59637 0.39264 0.94086 0.83344 0.94086 0.44079 0 0.83344-0.34449 0.83344-0.94086 0-0.60378-0.39265-0.94827-0.83344-0.94827-0.4408 0-0.83344 0.34449-0.83344 0.94827zm0.31485 0c0-0.41487 0.21114-0.69638 0.51859-0.69638 0.31115 0 0.51858 0.28152 0.51858 0.69638 0 0.41116-0.20743 0.68898-0.51858 0.68898-0.30745 0-0.51859-0.27781-0.51859-0.68898z"/>
    <path d="m133.91 50.361c0 0.59637 0.39264 0.94086 0.83344 0.94086 0.44079 0 0.83343-0.34449 0.83343-0.94086 0-0.60378-0.39264-0.94827-0.83343-0.94827-0.4408 0-0.83344 0.34449-0.83344 0.94827zm0.31485 0c0-0.41487 0.21114-0.69638 0.51859-0.69638 0.31115 0 0.51858 0.28152 0.51858 0.69638 0 0.41116-0.20743 0.68898-0.51858 0.68898-0.30745 0-0.51859-0.27781-0.51859-0.68898z"/>
    <path d="m136.05 51.257h0.30374v-1.3039c0.16669-0.18521 0.31856-0.27781 0.45191-0.27781 0.22966 0 0.33708 0.14446 0.33708 0.48154v1.1001h0.30374v-1.3039c0.16669-0.18521 0.31115-0.27781 0.45191-0.27781 0.22595 0 0.33337 0.14446 0.33337 0.48154v1.1001h0.30374v-1.1409c0-0.45932-0.1778-0.70379-0.54821-0.70379-0.21855 0-0.40376 0.14076-0.59267 0.34449-0.0741-0.21484-0.22225-0.34449-0.49636-0.34449-0.21484 0-0.40375 0.13335-0.55933 0.30374h-0.0111l-0.0259-0.25929h-0.25188z"/>
    <path d="m139.66 50.968c0.15928 0.1741 0.40005 0.33338 0.77788 0.33338 0.43339 0 0.77787-0.25559 0.77787-0.67416 0-0.32597-0.22595-0.5334-0.51117-0.60008v-0.01482c0.25559-0.09631 0.42968-0.27781 0.42968-0.56303 0-0.38153-0.29633-0.60008-0.70749-0.60008-0.27782 0-0.49636 0.12594-0.67787 0.29633l0.16299 0.19262c0.14076-0.14076 0.30744-0.24077 0.50376-0.24077 0.25189 0 0.40746 0.14446 0.40746 0.37412 0 0.24818-0.16668 0.4408-0.67045 0.4408v0.23336c0.56303 0 0.75565 0.18891 0.75565 0.47043 0 0.263-0.20373 0.43339-0.48895 0.43339-0.27781 0-0.46302-0.13335-0.60378-0.28152z"/>
    <path d="m142.32 50.361c0 0.58896 0.38153 0.94086 0.86307 0.94086 0.24447 0 0.43709-0.0852 0.59267-0.18521l-0.10742-0.20003c-0.13335 0.0852-0.27782 0.14076-0.44821 0.14076-0.34449 0-0.57785-0.24448-0.60007-0.63341h1.215c7e-3 -0.04445 0.0111-0.10372 0.0111-0.16669 0-0.51488-0.2593-0.84455-0.71861-0.84455-0.41117 0-0.80751 0.3593-0.80751 0.94827zm0.29633-0.13705c0.037-0.36301 0.2667-0.57044 0.51858-0.57044 0.28152 0 0.44451 0.20373 0.44451 0.57044z"/>
    <path d="m144.29 51.257h0.30374v-1.3039c0.18151-0.1815 0.30745-0.27781 0.49266-0.27781 0.23707 0 0.34078 0.14446 0.34078 0.48154v1.1001h0.30374v-1.1409c0-0.45932-0.17039-0.70379-0.54821-0.70379-0.24818 0-0.43339 0.13335-0.60378 0.30374h-0.0111l-0.0259-0.25929h-0.25189z"/>
    <path d="m146.44 51.561c0-0.10372 0.0556-0.21114 0.1852-0.30374 0.0778 0.02223 0.16299 0.02963 0.23337 0.02963h0.31115c0.23336 0 0.36301 0.05556 0.36301 0.22225 0 0.18891-0.22596 0.36671-0.57045 0.36671-0.32596 0-0.52228-0.12224-0.52228-0.31485zm-0.2667 0.04075c0 0.31115 0.30374 0.48525 0.74453 0.48525 0.55933 0 0.91123-0.28892 0.91123-0.6223 0-0.30004-0.21114-0.42968-0.62971-0.42968h-0.34819c-0.24448 0-0.31856-0.08149-0.31856-0.19632 0-0.10001 0.0519-0.15928 0.11483-0.21484 0.0815 0.04075 0.1815 0.06297 0.2704 0.06297 0.36672 0 0.65935-0.24077 0.65935-0.626 0-0.15187-0.063-0.28892-0.14817-0.37042h0.37042v-0.23337h-0.62601c-0.0667-0.02593-0.15557-0.04445-0.25559-0.04445-0.36671 0-0.67786 0.24818-0.67786 0.64082 0 0.21484 0.11483 0.38894 0.23336 0.48525v0.01482c-0.0926 0.06297-0.19632 0.1815-0.19632 0.33338 0 0.14076 0.0704 0.23707 0.15928 0.29263v0.01482c-0.16298 0.11112-0.26299 0.25559-0.26299 0.40746zm0.74453-1.1187c-0.20743 0-0.38153-0.16669-0.38153-0.42968s0.1704-0.41857 0.38153-0.41857c0.21114 0 0.38153 0.15558 0.38153 0.41857s-0.17409 0.42968-0.38153 0.42968z"/>
    <path d="m148.33 49.087c0.11853 0 0.21114-0.08149 0.21114-0.19632 0-0.11853-0.0926-0.19632-0.21114-0.19632-0.11853 0-0.21114 0.07779-0.21114 0.19632 0 0.11483 0.0926 0.19632 0.21114 0.19632zm-0.15558 2.1706h0.30375v-1.8002h-0.30375z"/>
    <path d="m149.09 51.257h0.30374v-1.3039c0.1815-0.1815 0.30745-0.27781 0.49265-0.27781 0.23707 0 0.34079 0.14446 0.34079 0.48154v1.1001h0.30374v-1.1409c0-0.45932-0.17039-0.70379-0.54822-0.70379-0.24818 0-0.43339 0.13335-0.60378 0.30374h-0.0111l-0.0259-0.25929h-0.25188z"/>
    <path d="m150.98 50.361c0 0.58896 0.38153 0.94086 0.86307 0.94086 0.24447 0 0.43709-0.0852 0.59267-0.18521l-0.10743-0.20003c-0.13335 0.0852-0.27781 0.14076-0.4482 0.14076-0.34449 0-0.57785-0.24448-0.60008-0.63341h1.215c7e-3 -0.04445 0.0111-0.10372 0.0111-0.16669 0-0.51488-0.25929-0.84455-0.7186-0.84455-0.41117 0-0.80751 0.3593-0.80751 0.94827zm0.29633-0.13705c0.037-0.36301 0.2667-0.57044 0.51858-0.57044 0.28152 0 0.4445 0.20373 0.4445 0.57044z"/>
   </g>
  </g>
  <g fill="none" stroke="#6f8ce9" stroke-dashoffset="1.2" stroke-linecap="square" stroke-miterlimit="40" stroke-width=".26458">
   <path d="m183.01-35.93v-2.9104h2.9104" style="paint-order:normal"/>
   <path d="m213.43-35.93v-2.9104h-2.9104" style="paint-order:normal"/>
   <path d="m183.01-27.199v2.9104h2.9104" style="paint-order:normal"/>
   <path d="m213.43-27.199v2.9104h-2.9104" style="paint-order:normal"/>
  </g>
  <rect x="183.54" y="-38.311" width="29.369" height="13.494" fill="#1d232d"/>
  <g fill="#e8eaec" stroke-linecap="round" stroke-width=".26458" aria-label="Quake">
   <path d="m193.87-31.335c0-0.60378 0.28522-0.9779 0.71861-0.9779 0.43338 0 0.7186 0.37412 0.7186 0.9779 0 0.60748-0.28522 1.0001-0.7186 1.0001-0.43339 0-0.71861-0.39264-0.71861-1.0001zm1.7521 1.5372c-0.0667 0.01852-0.14817 0.03704-0.25559 0.03704-0.26299 0-0.48524-0.10372-0.59637-0.31856 0.51488-0.0889 0.85937-0.55563 0.85937-1.2557 0-0.77417-0.42969-1.2483-1.0409-1.2483-0.61119 0-1.0372 0.47043-1.0372 1.2483 0 0.7149 0.3556 1.1853 0.88529 1.2594 0.14076 0.33338 0.44821 0.57415 0.89641 0.57415 0.14447 0 0.27411-0.02963 0.3482-0.05556z"/>
   <path d="m196.09-30.769c0 0.45932 0.17039 0.70379 0.55192 0.70379 0.24818 0 0.42598-0.12965 0.59267-0.32597h0.0111l0.0259 0.28152h0.25188v-1.8002h-0.30374v1.2779c-0.17039 0.21114-0.30004 0.30374-0.48525 0.30374-0.23706 0-0.33708-0.14446-0.33708-0.48154v-1.1001h-0.30744z"/>
   <path d="m198.05-30.576c0 0.32226 0.22595 0.51118 0.5297 0.51118 0.22225 0 0.42227-0.11853 0.59637-0.25929h7e-3l0.0259 0.21484h0.25189v-1.1038c0-0.4482-0.18521-0.74083-0.62601-0.74083-0.28892 0-0.54081 0.12594-0.70749 0.23336l0.12223 0.21114c0.14076-0.09631 0.32597-0.19262 0.53711-0.19262 0.29263 0 0.37042 0.22225 0.37042 0.45191-0.76677 0.0852-1.1076 0.28152-1.1076 0.67416zm0.30004-0.02222c0-0.22966 0.20373-0.37782 0.80751-0.45191v0.50006c-0.1741 0.15558-0.31856 0.24077-0.49266 0.24077-0.1778 0-0.31485-0.0852-0.31485-0.28892z"/>
   <path d="m200.03-30.109h0.30004v-0.47413l0.33708-0.39264 0.52599 0.86678h0.33338l-0.68527-1.0779 0.60378-0.72231h-0.33708l-0.76677 0.94827h-0.0111v-1.7854h-0.30004z"/>
   <path d="m201.66-31.006c0 0.58896 0.38153 0.94086 0.86307 0.94086 0.24448 0 0.43709-0.0852 0.59267-0.18521l-0.10742-0.20002c-0.13335 0.0852-0.27781 0.14076-0.44821 0.14076-0.34448 0-0.57785-0.24448-0.60007-0.63341h1.215c7e-3 -0.04445 0.0111-0.10372 0.0111-0.16669 0-0.51488-0.25929-0.84455-0.71861-0.84455-0.41116 0-0.80751 0.3593-0.80751 0.94827zm0.29633-0.13705c0.037-0.36301 0.2667-0.57044 0.51859-0.57044 0.28152 0 0.4445 0.20373 0.4445 0.57044z"/>
  </g>
  <g fill="none" stroke="#6f8ce9" stroke-dashoffset="1.2" stroke-linecap="square" stroke-miterlimit="40" stroke-width=".26458">
   <path d="m183.01-9.4717v-2.9104h2.9104" style="paint-order:normal"/>
   <path d="m213.43-9.4717v-2.9104h-2.9104" style="paint-order:normal"/>
   <path d="m183.01-0.74047v2.9104h2.9104" style="paint-order:normal"/>
   <path d="m213.43-0.74047v2.9104h-2.9104" style="paint-order:normal"/>
  </g>
  <rect x="183.54" y="-11.853" width="29.369" height="13.494" fill="#1d232d"/>
  <g fill="#e8eaec" stroke-linecap="round" stroke-width=".26458" aria-label="Quake II">
   <path d="m192.54-4.877c0-0.60378 0.28522-0.9779 0.71861-0.9779 0.43338 0 0.71861 0.37412 0.71861 0.9779 0 0.60748-0.28523 1.0001-0.71861 1.0001-0.43339 0-0.71861-0.39264-0.71861-1.0001zm1.7521 1.5372c-0.0667 0.018521-0.14817 0.037042-0.25559 0.037042-0.26299 0-0.48524-0.10372-0.59637-0.31856 0.51488-0.0889 0.85937-0.55563 0.85937-1.2557 0-0.77417-0.42968-1.2483-1.0409-1.2483s-1.0372 0.47043-1.0372 1.2483c0 0.7149 0.3556 1.1853 0.8853 1.2594 0.14075 0.33338 0.4482 0.57415 0.89641 0.57415 0.14446 0 0.2741-0.029633 0.34819-0.055563z"/>
   <path d="m194.76-4.3102c0 0.45932 0.17039 0.70379 0.55192 0.70379 0.24818 0 0.42598-0.12965 0.59267-0.32597h0.0111l0.0259 0.28152h0.25188v-1.8002h-0.30374v1.2779c-0.17039 0.21114-0.30004 0.30374-0.48525 0.30374-0.23706 0-0.33708-0.14446-0.33708-0.48154v-1.1001h-0.30744z"/>
   <path d="m196.72-4.1176c0 0.32226 0.22595 0.51118 0.5297 0.51118 0.22225 0 0.42227-0.11853 0.59637-0.25929h7e-3l0.0259 0.21484h0.25188v-1.1038c0-0.4482-0.18521-0.74083-0.62601-0.74083-0.28892 0-0.5408 0.12594-0.70749 0.23336l0.12224 0.21114c0.14075-0.096308 0.32596-0.19262 0.5371-0.19262 0.29263 0 0.37042 0.22225 0.37042 0.45191-0.76677 0.085196-1.1076 0.28152-1.1076 0.67416zm0.30004-0.022225c0-0.22966 0.20373-0.37783 0.80751-0.45191v0.50006c-0.1741 0.15558-0.31856 0.24077-0.49266 0.24077-0.1778 0-0.31485-0.085196-0.31485-0.28893z"/>
   <path d="m198.7-3.6509h0.30004v-0.47413l0.33708-0.39264 0.52599 0.86678h0.33338l-0.68527-1.0779 0.60378-0.72231h-0.33708l-0.76677 0.94827h-0.0111v-1.7854h-0.30004z"/>
   <path d="m200.34-4.5473c0 0.58896 0.38153 0.94086 0.86307 0.94086 0.24448 0 0.4371-0.085196 0.59267-0.18521l-0.10742-0.20003c-0.13335 0.085196-0.27781 0.14076-0.4482 0.14076-0.34449 0-0.57786-0.24448-0.60008-0.63341h1.215c7e-3 -0.04445 0.0111-0.10372 0.0111-0.16669 0-0.51488-0.25929-0.84455-0.71861-0.84455-0.41116 0-0.80751 0.3593-0.80751 0.94827zm0.29634-0.13705c0.037-0.36301 0.2667-0.57044 0.51858-0.57044 0.28152 0 0.4445 0.20373 0.4445 0.57044z"/>
   <path d="m203.07-3.6509h0.31115v-2.4299h-0.31115z"/>
   <path d="m204.02-3.6509h0.31115v-2.4299h-0.31115z"/>
  </g>
  <g fill="none" stroke="#6f8ce9" stroke-dashoffset="1.2" stroke-linecap="square" stroke-miterlimit="40" stroke-width=".26458">
   <path d="m183.01 16.987v-2.9104h2.9104" style="paint-order:normal"/>
   <path d="m213.43 16.987v-2.9104h-2.9104" style="paint-order:normal"/>
   <path d="m183.01 25.718v2.9104h2.9104" style="paint-order:normal"/>
   <path d="m213.43 25.718v2.9104h-2.9104" style="paint-order:normal"/>
  </g>
  <rect x="183.54" y="14.605" width="29.369" height="13.494" fill="#1d232d"/>
  <g fill="#e8eaec" stroke-linecap="round" stroke-width=".26458" aria-label="Quake 3 Arena">
   <path d="m187.71 21.581c0-0.60378 0.28522-0.9779 0.71861-0.9779 0.43338 0 0.7186 0.37412 0.7186 0.9779 0 0.60748-0.28522 1.0001-0.7186 1.0001-0.43339 0-0.71861-0.39264-0.71861-1.0001zm1.7521 1.5372c-0.0667 0.01852-0.14817 0.03704-0.25559 0.03704-0.26299 0-0.48525-0.10372-0.59637-0.31856 0.51488-0.0889 0.85937-0.55563 0.85937-1.2557 0-0.77417-0.42969-1.2483-1.0409-1.2483-0.61119 0-1.0372 0.47043-1.0372 1.2483 0 0.7149 0.3556 1.1853 0.88529 1.2594 0.14076 0.33338 0.44821 0.57415 0.89641 0.57415 0.14447 0 0.27411-0.02963 0.3482-0.05556z"/>
   <path d="m189.93 22.148c0 0.45932 0.17039 0.70379 0.55192 0.70379 0.24818 0 0.42598-0.12964 0.59267-0.32597h0.0111l0.0259 0.28152h0.25188v-1.8002h-0.30374v1.2779c-0.17039 0.21114-0.30004 0.30374-0.48525 0.30374-0.23706 0-0.33708-0.14446-0.33708-0.48154v-1.1001h-0.30744z"/>
   <path d="m191.88 22.341c0 0.32226 0.22595 0.51118 0.5297 0.51118 0.22225 0 0.42227-0.11853 0.59637-0.25929h7e-3l0.0259 0.21484h0.25189v-1.1038c0-0.4482-0.18521-0.74083-0.62601-0.74083-0.28892 0-0.54081 0.12594-0.70749 0.23336l0.12223 0.21114c0.14076-0.09631 0.32597-0.19262 0.53711-0.19262 0.29263 0 0.37042 0.22225 0.37042 0.45191-0.76677 0.0852-1.1076 0.28152-1.1076 0.67416zm0.30004-0.02222c0-0.22966 0.20373-0.37782 0.80751-0.45191v0.50006c-0.1741 0.15558-0.31856 0.24077-0.49266 0.24077-0.1778 0-0.31485-0.0852-0.31485-0.28892z"/>
   <path d="m193.87 22.807h0.30004v-0.47413l0.33708-0.39264 0.52599 0.86678h0.33338l-0.68527-1.0779 0.60378-0.72231h-0.33708l-0.76677 0.94827h-0.0111v-1.7854h-0.30004z"/>
   <path d="m195.5 21.911c0 0.58896 0.38153 0.94086 0.86307 0.94086 0.24448 0 0.43709-0.0852 0.59267-0.18521l-0.10742-0.20002c-0.13335 0.0852-0.27781 0.14076-0.44821 0.14076-0.34448 0-0.57785-0.24448-0.60007-0.63341h1.215c7e-3 -0.04445 0.0111-0.10372 0.0111-0.16669 0-0.51488-0.25929-0.84455-0.71861-0.84455-0.41116 0-0.80751 0.3593-0.80751 0.94827zm0.29633-0.13705c0.0371-0.36301 0.2667-0.57044 0.51859-0.57044 0.28151 0 0.4445 0.20373 0.4445 0.57044z"/>
   <path d="m198.01 22.519c0.15928 0.1741 0.40005 0.33338 0.77787 0.33338 0.43339 0 0.77788-0.25559 0.77788-0.67416 0-0.32597-0.22596-0.5334-0.51118-0.60008v-0.01482c0.25559-0.09631 0.42969-0.27781 0.42969-0.56303 0-0.38153-0.29634-0.60008-0.7075-0.60008-0.27781 0-0.49636 0.12594-0.67786 0.29633l0.16298 0.19262c0.14076-0.14076 0.30745-0.24077 0.50377-0.24077 0.25188 0 0.40746 0.14446 0.40746 0.37412 0 0.24818-0.16669 0.4408-0.67046 0.4408v0.23336c0.56304 0 0.75565 0.18891 0.75565 0.47043 0 0.263-0.20373 0.43339-0.48895 0.43339-0.27781 0-0.46302-0.13335-0.60378-0.28152z"/>
   <path d="m201.12 21.818 0.11854-0.37042c0.0852-0.2704 0.16298-0.5371 0.24077-0.81862h0.0148c0.0778 0.28152 0.15557 0.54822 0.24077 0.81862l0.11483 0.37042zm1.0409 0.98901h0.32596l-0.82232-2.4299h-0.34819l-0.82233 2.4299h0.31485l0.23337-0.74083h0.88529z"/>
   <path d="m202.79 22.807h0.30374v-1.1557c0.12224-0.30374 0.30374-0.41487 0.45561-0.41487 0.0741 0 0.11483 0.01111 0.1741 0.02963l0.0593-0.2667c-0.0593-0.02593-0.11483-0.03704-0.19261-0.03704-0.20373 0-0.38894 0.14446-0.51118 0.37042h-0.0111l-0.0259-0.32597h-0.25188z"/>
   <path d="m203.91 21.911c0 0.58896 0.38153 0.94086 0.86307 0.94086 0.24448 0 0.43709-0.0852 0.59267-0.18521l-0.10742-0.20002c-0.13335 0.0852-0.27781 0.14076-0.44821 0.14076-0.34448 0-0.57785-0.24448-0.60007-0.63341h1.215c7e-3 -0.04445 0.0111-0.10372 0.0111-0.16669 0-0.51488-0.25929-0.84455-0.71861-0.84455-0.41116 0-0.80751 0.3593-0.80751 0.94827zm0.29633-0.13705c0.037-0.36301 0.2667-0.57044 0.51859-0.57044 0.28151 0 0.4445 0.20373 0.4445 0.57044z"/>
   <path d="m205.88 22.807h0.30374v-1.3039c0.1815-0.1815 0.30744-0.27781 0.49265-0.27781 0.23707 0 0.34079 0.14446 0.34079 0.48154v1.1001h0.30374v-1.1409c0-0.45932-0.17039-0.70379-0.54822-0.70379-0.24818 0-0.43339 0.13335-0.60378 0.30374h-0.0111l-0.0259-0.25929h-0.25188z"/>
   <path d="m207.81 22.341c0 0.32226 0.22596 0.51118 0.5297 0.51118 0.22225 0 0.42228-0.11853 0.59637-0.25929h7e-3l0.0259 0.21484h0.25188v-1.1038c0-0.4482-0.1852-0.74083-0.626-0.74083-0.28893 0-0.54081 0.12594-0.7075 0.23336l0.12224 0.21114c0.14076-0.09631 0.32597-0.19262 0.5371-0.19262 0.29263 0 0.37042 0.22225 0.37042 0.45191-0.76676 0.0852-1.1076 0.28152-1.1076 0.67416zm0.30004-0.02222c0-0.22966 0.20373-0.37782 0.80751-0.45191v0.50006c-0.17409 0.15558-0.31856 0.24077-0.49265 0.24077-0.1778 0-0.31486-0.0852-0.31486-0.28892z"/>
  </g>
  <g fill="none" stroke="#6f8ce9" stroke-dashoffset="1.2" stroke-linecap="square" stroke-miterlimit="40" stroke-width=".26458">
   <path d="m183.01 43.445v-2.9104h2.9104" style="paint-order:normal"/>
   <path d="m213.43 43.445v-2.9104h-2.9104" style="paint-order:normal"/>
   <path d="m183.01 52.176v2.9104h2.9104" style="paint-order:normal"/>
   <path d="m213.43 52.176v2.9104h-2.9104" style="paint-order:normal"/>
  </g>
  <g>
   <rect x="183.54" y="41.064" width="29.369" height="13.494" fill="#1d232d"/>
   <g stroke-linecap="round" stroke-width=".26458">
    <g fill="#e8eaec" aria-label="Doom 3">
     <path d="m192.71 49.266h0.6223c0.73342 0 1.1335-0.45191 1.1335-1.2261 0-0.77047-0.40005-1.2039-1.1483-1.2039h-0.60748zm0.31115-0.25188v-1.9262h0.2741c0.57045 0 0.85196 0.34078 0.85196 0.95197 0 0.61489-0.28151 0.9742-0.85196 0.9742z"/>
     <path d="m194.82 48.369c0 0.59637 0.39264 0.94086 0.83344 0.94086 0.44079 0 0.83343-0.34449 0.83343-0.94086 0-0.60378-0.39264-0.94827-0.83343-0.94827-0.4408 0-0.83344 0.34449-0.83344 0.94827zm0.31485 0c0-0.41487 0.21114-0.69638 0.51859-0.69638 0.31115 0 0.51858 0.28152 0.51858 0.69638 0 0.41116-0.20743 0.68898-0.51858 0.68898-0.30745 0-0.51859-0.27781-0.51859-0.68898z"/>
     <path d="m196.83 48.369c0 0.59637 0.39264 0.94086 0.83344 0.94086 0.44079 0 0.83343-0.34449 0.83343-0.94086 0-0.60378-0.39264-0.94827-0.83343-0.94827-0.4408 0-0.83344 0.34449-0.83344 0.94827zm0.31485 0c0-0.41487 0.21114-0.69638 0.51859-0.69638 0.31115 0 0.51858 0.28152 0.51858 0.69638 0 0.41116-0.20743 0.68898-0.51858 0.68898-0.30745 0-0.51859-0.27781-0.51859-0.68898z"/>
     <path d="m198.97 49.266h0.30374v-1.3039c0.16669-0.18521 0.31856-0.27781 0.45191-0.27781 0.22965 0 0.33708 0.14446 0.33708 0.48154v1.1001h0.30374v-1.3039c0.16669-0.18521 0.31115-0.27781 0.45191-0.27781 0.22595 0 0.33337 0.14446 0.33337 0.48154v1.1001h0.30374v-1.1409c0-0.45932-0.1778-0.70379-0.54821-0.70379-0.21855 0-0.40376 0.14076-0.59267 0.34449-0.0741-0.21484-0.22225-0.34449-0.49636-0.34449-0.21484 0-0.40375 0.13335-0.55933 0.30374h-0.0111l-0.0259-0.25929h-0.25188z"/>
     <path d="m202.58 48.977c0.15928 0.1741 0.40005 0.33338 0.77788 0.33338 0.43339 0 0.77787-0.25559 0.77787-0.67416 0-0.32597-0.22595-0.5334-0.51117-0.60008v-0.01482c0.25559-0.09631 0.42968-0.27781 0.42968-0.56303 0-0.38153-0.29633-0.60008-0.70749-0.60008-0.27782 0-0.49636 0.12594-0.67787 0.29633l0.16299 0.19262c0.14075-0.14076 0.30744-0.24077 0.50376-0.24077 0.25189 0 0.40746 0.14446 0.40746 0.37412 0 0.24818-0.16669 0.4408-0.67045 0.4408v0.23336c0.56303 0 0.75565 0.18891 0.75565 0.47043 0 0.263-0.20373 0.43339-0.48895 0.43339-0.27781 0-0.46302-0.13335-0.60378-0.28152z"/>
    </g>
    <rect x="63.944" y="-11.715" width="33.073" height="12.954" fill="#1d232d" stroke="#6f8ce9"/>
    <g fill="#e8eaec" aria-label="GoldSrc">
     <path d="m74.296-5.1594c0 0.79269 0.45561 1.2594 1.0927 1.2594 0.32597 0 0.59637-0.12594 0.75565-0.28152v-1.0224h-0.7964v0.25559h0.51488v0.63341c-0.09631 0.0889-0.2667 0.14446-0.4408 0.14446-0.51858 0-0.80751-0.38523-0.80751-0.99642 0-0.60378 0.31485-0.9816 0.80751-0.9816 0.24077 0 0.39264 0.096308 0.51488 0.22595l0.1778-0.19632c-0.14446-0.14817-0.36671-0.30004-0.69638-0.30004-0.65193 0-1.1224 0.47784-1.1224 1.2594z"/>
     <path d="m76.549-4.8408c0 0.59637 0.39264 0.94086 0.83344 0.94086s0.83344-0.34449 0.83344-0.94086c0-0.60378-0.39264-0.94827-0.83344-0.94827s-0.83344 0.34449-0.83344 0.94827zm0.31485 0c0-0.41487 0.21114-0.69638 0.51858-0.69638 0.31115 0 0.51858 0.28152 0.51858 0.69638 0 0.41116-0.20743 0.68898-0.51858 0.68898-0.30745 0-0.51858-0.27781-0.51858-0.68898z"/>
     <path d="m78.694-4.3074c0 0.263 0.0926 0.40746 0.32226 0.40746 0.08149 0 0.13335-0.011113 0.1741-0.029633l-0.04075-0.22966c-0.03334 0.00741-0.04816 0.00741-0.06668 0.00741-0.04445 0-0.08519-0.037042-0.08519-0.13335v-2.2966h-0.30374z"/>
     <path d="m79.512-4.8408c0 0.60008 0.29263 0.94086 0.74454 0.94086 0.21114 0 0.40376-0.11853 0.54451-0.25559h0.01111l0.02593 0.21114h0.25188v-2.6374h-0.30745v0.69268l0.01482 0.30745c-0.15928-0.12965-0.29633-0.20743-0.50377-0.20743-0.41116 0-0.78158 0.36301-0.78158 0.94827zm0.31485-0.0037c0-0.41116 0.22966-0.68898 0.51858-0.68898 0.14817 0 0.28522 0.051858 0.43709 0.18891v0.94086c-0.14817 0.16669-0.29263 0.24818-0.45932 0.24818-0.31485 0-0.49636-0.25929-0.49636-0.68898z"/>
     <path d="m81.541-4.2593c0.21114 0.21855 0.50747 0.3593 0.84826 0.3593 0.51118 0 0.82973-0.30745 0.82973-0.69268 0-0.3593-0.21855-0.52599-0.50006-0.64823l-0.34819-0.14817c-0.18891-0.081492-0.40376-0.17039-0.40376-0.40375 0-0.21855 0.1815-0.3556 0.45561-0.3556 0.22225 0 0.40376 0.0889 0.55192 0.22966l0.16298-0.20003c-0.17039-0.1778-0.42598-0.30004-0.7149-0.30004-0.4408 0-0.76676 0.27411-0.76676 0.64453 0 0.3556 0.2667 0.5297 0.49266 0.626l0.34819 0.15187c0.22966 0.10372 0.40746 0.1815 0.40746 0.42968 0 0.23707-0.18891 0.39635-0.50747 0.39635-0.25559 0-0.49636-0.12224-0.67046-0.30374z"/>
     <path d="m83.657-3.9444h0.30374v-1.1557c0.12224-0.30374 0.30374-0.41487 0.45561-0.41487 0.07408 0 0.11483 0.011113 0.1741 0.029633l0.05927-0.2667c-0.05927-0.025929-0.11483-0.037042-0.19262-0.037042-0.20373 0-0.38894 0.14446-0.51118 0.37042h-0.01111l-0.02593-0.32597h-0.25188z"/>
     <path d="m84.775-4.8408c0 0.59637 0.36671 0.94086 0.84455 0.94086 0.21484 0 0.42228-0.0889 0.58526-0.23336l-0.13705-0.20003c-0.10742 0.096308-0.25188 0.1815-0.42228 0.1815-0.32967 0-0.55562-0.27781-0.55562-0.68898 0-0.41487 0.23707-0.69638 0.56303-0.69638 0.14446 0 0.25559 0.066675 0.36301 0.15928l0.15187-0.19632c-0.12224-0.11483-0.28892-0.21484-0.52599-0.21484-0.46302 0-0.86678 0.34449-0.86678 0.94827z"/>
    </g>
    <rect x="63.944" y="14.743" width="33.073" height="12.954" fill="#1d232d" stroke="#6f8ce9"/>
    <g fill="#e8eaec" aria-label="Source Engine">
     <path d="m69.336 22.199c0.21114 0.21855 0.50747 0.3593 0.84826 0.3593 0.51118 0 0.82973-0.30745 0.82973-0.69268 0-0.3593-0.21855-0.52599-0.50006-0.64823l-0.34819-0.14817c-0.18891-0.08149-0.40375-0.17039-0.40375-0.40375 0-0.21855 0.1815-0.3556 0.45561-0.3556 0.22225 0 0.40376 0.0889 0.55192 0.22966l0.16298-0.20002c-0.17039-0.1778-0.42598-0.30004-0.7149-0.30004-0.4408 0-0.76676 0.27411-0.76676 0.64453 0 0.3556 0.2667 0.5297 0.49266 0.626l0.34819 0.15187c0.22966 0.10372 0.40746 0.1815 0.40746 0.42968 0 0.23707-0.18891 0.39635-0.50747 0.39635-0.25559 0-0.49636-0.12224-0.67046-0.30374z"/>
     <path d="m71.318 21.618c0 0.59637 0.39264 0.94086 0.83344 0.94086s0.83344-0.34449 0.83344-0.94086c0-0.60378-0.39264-0.94827-0.83344-0.94827s-0.83344 0.34449-0.83344 0.94827zm0.31485 0c0-0.41487 0.21114-0.69638 0.51858-0.69638 0.31115 0 0.51858 0.28152 0.51858 0.69638 0 0.41116-0.20743 0.68898-0.51858 0.68898-0.30745 0-0.51858-0.27781-0.51858-0.68898z"/>
     <path d="m73.437 21.855c0 0.45932 0.17039 0.70379 0.55192 0.70379 0.24818 0 0.42598-0.12965 0.59267-0.32597h0.01111l0.02593 0.28152h0.25188v-1.8002h-0.30374v1.2779c-0.17039 0.21114-0.30004 0.30374-0.48525 0.30374-0.23707 0-0.33708-0.14446-0.33708-0.48154v-1.1001h-0.30745z"/>
     <path d="m75.481 22.514h0.30374v-1.1557c0.12224-0.30374 0.30374-0.41487 0.45561-0.41487 0.07408 0 0.11483 0.01111 0.1741 0.02963l0.05927-0.2667c-0.05927-0.02593-0.11483-0.03704-0.19262-0.03704-0.20373 0-0.38894 0.14446-0.51118 0.37042h-0.01111l-0.02593-0.32597h-0.25188z"/>
     <path d="m76.6 21.618c0 0.59637 0.36671 0.94086 0.84455 0.94086 0.21484 0 0.42228-0.0889 0.58526-0.23336l-0.13705-0.20002c-0.10742 0.09631-0.25188 0.1815-0.42228 0.1815-0.32967 0-0.55562-0.27781-0.55562-0.68898 0-0.41487 0.23707-0.69638 0.56303-0.69638 0.14446 0 0.25559 0.06668 0.36301 0.15928l0.15187-0.19632c-0.12224-0.11483-0.28892-0.21484-0.52599-0.21484-0.46302 0-0.86678 0.34449-0.86678 0.94827z"/>
     <path d="m78.206 21.618c0 0.58896 0.38153 0.94086 0.86307 0.94086 0.24448 0 0.43709-0.0852 0.59267-0.18521l-0.10742-0.20002c-0.13335 0.0852-0.27781 0.14076-0.4482 0.14076-0.34449 0-0.57785-0.24448-0.60008-0.63341h1.215c0.0074-0.04445 0.01111-0.10372 0.01111-0.16669 0-0.51488-0.25929-0.84455-0.71861-0.84455-0.41116 0-0.80751 0.3593-0.80751 0.94827zm0.29633-0.13705c0.03704-0.36301 0.2667-0.57044 0.51858-0.57044 0.28152 0 0.4445 0.20373 0.4445 0.57044z"/>
     <path d="m80.941 22.514h1.4372v-0.263h-1.1261v-0.88159h0.91863v-0.263h-0.91863v-0.76306h1.089v-0.25929h-1.4002z"/>
     <path d="m82.854 22.514h0.30374v-1.3039c0.1815-0.1815 0.30745-0.27781 0.49266-0.27781 0.23707 0 0.34078 0.14446 0.34078 0.48154v1.1001h0.30374v-1.1409c0-0.45932-0.17039-0.70379-0.54822-0.70379-0.24818 0-0.43339 0.13335-0.60378 0.30374h-0.01111l-0.02593-0.25929h-0.25188z"/>
     <path d="m85.009 22.818c0-0.10372 0.05556-0.21114 0.18521-0.30374 0.07779 0.02222 0.16298 0.02963 0.23336 0.02963h0.31115c0.23336 0 0.36301 0.05556 0.36301 0.22225 0 0.18891-0.22595 0.36671-0.57044 0.36671-0.32597 0-0.52229-0.12224-0.52229-0.31486zm-0.2667 0.04075c0 0.31115 0.30374 0.48525 0.74454 0.48525 0.55933 0 0.91123-0.28893 0.91123-0.6223 0-0.30004-0.21114-0.42968-0.62971-0.42968h-0.34819c-0.24448 0-0.31856-0.08149-0.31856-0.19632 0-0.10001 0.05186-0.15928 0.11483-0.21484 0.08149 0.04075 0.1815 0.06297 0.2704 0.06297 0.36671 0 0.65934-0.24077 0.65934-0.626 0-0.15187-0.06297-0.28893-0.14817-0.37042h0.37042v-0.23336h-0.626c-0.06668-0.02593-0.15558-0.04445-0.25559-0.04445-0.36671 0-0.67786 0.24818-0.67786 0.64082 0 0.21484 0.11483 0.38894 0.23336 0.48525v0.01482c-0.0926 0.06297-0.19632 0.1815-0.19632 0.33338 0 0.14076 0.07038 0.23707 0.15928 0.29263v0.01482c-0.16298 0.11112-0.263 0.25559-0.263 0.40746zm0.74454-1.1187c-0.20743 0-0.38153-0.16669-0.38153-0.42968s0.17039-0.41857 0.38153-0.41857c0.21114 0 0.38153 0.15558 0.38153 0.41857s-0.1741 0.42968-0.38153 0.42968z"/>
     <path d="m86.901 20.343c0.11853 0 0.21114-0.08149 0.21114-0.19632 0-0.11853-0.0926-0.19632-0.21114-0.19632-0.11853 0-0.21114 0.07779-0.21114 0.19632 0 0.11483 0.0926 0.19632 0.21114 0.19632zm-0.15558 2.1706h0.30374v-1.8002h-0.30374z"/>
     <path d="m87.657 22.514h0.30374v-1.3039c0.1815-0.1815 0.30745-0.27781 0.49266-0.27781 0.23707 0 0.34078 0.14446 0.34078 0.48154v1.1001h0.30374v-1.1409c0-0.45932-0.17039-0.70379-0.54822-0.70379-0.24818 0-0.43339 0.13335-0.60378 0.30374h-0.01111l-0.02593-0.25929h-0.25188z"/>
     <path d="m89.55 21.618c0 0.58896 0.38153 0.94086 0.86307 0.94086 0.24448 0 0.43709-0.0852 0.59267-0.18521l-0.10742-0.20002c-0.13335 0.0852-0.27781 0.14076-0.4482 0.14076-0.34449 0-0.57785-0.24448-0.60008-0.63341h1.215c0.0074-0.04445 0.01111-0.10372 0.01111-0.16669 0-0.51488-0.25929-0.84455-0.71861-0.84455-0.41116 0-0.80751 0.3593-0.80751 0.94827zm0.29633-0.13705c0.03704-0.36301 0.2667-0.57044 0.51858-0.57044 0.28152 0 0.4445 0.20373 0.4445 0.57044z"/>
    </g>
   </g>
  </g>
  <g fill="none" stroke="#6f8ce9" stroke-dashoffset="1.2" stroke-linecap="square" stroke-miterlimit="40" stroke-width=".26458">
   <path d="m65.002 43.445v-2.9104h2.9104" style="paint-order:normal"/>
   <path d="m95.429 43.445v-2.9104h-2.9104" style="paint-order:normal"/>
   <path d="m65.002 52.176v2.9104h2.9104" style="paint-order:normal"/>
   <path d="m95.429 52.176v2.9104h-2.9104" style="paint-order:normal"/>
  </g>
  <rect x="65.532" y="41.064" width="29.369" height="13.494" fill="#1d232d"/>
  <g fill="#e8eaec" stroke-linecap="round" stroke-width=".26458" aria-label="Half-Life">
   <path d="m74.17 49.266h0.31115v-1.1446h1.1298v1.1446h0.30745v-2.4299h-0.30745v1.0186h-1.1298v-1.0186h-0.31115z"/>
   <path d="m76.457 48.799c0 0.32226 0.22596 0.51118 0.5297 0.51118 0.22225 0 0.42228-0.11853 0.59637-0.25929h0.0074l0.02593 0.21484h0.25188v-1.1038c0-0.4482-0.18521-0.74083-0.626-0.74083-0.28892 0-0.54081 0.12594-0.7075 0.23336l0.12224 0.21114c0.14076-0.09631 0.32597-0.19262 0.5371-0.19262 0.29263 0 0.37042 0.22225 0.37042 0.45191-0.76676 0.0852-1.1075 0.28152-1.1075 0.67416zm0.30004-0.02222c0-0.22966 0.20373-0.37783 0.80751-0.45191v0.50006c-0.1741 0.15558-0.31856 0.24077-0.49266 0.24077-0.1778 0-0.31485-0.0852-0.31485-0.28892z"/>
   <path d="m78.442 48.903c0 0.263 0.09261 0.40746 0.32226 0.40746 0.08149 0 0.13335-0.01111 0.1741-0.02963l-0.04075-0.22966c-0.03334 0.0074-0.04815 0.0074-0.06668 0.0074-0.04445 0-0.0852-0.03704-0.0852-0.13335v-2.2966h-0.30374z"/>
   <path d="m80.267 46.643c-0.08149-0.03334-0.18891-0.05927-0.30004-0.05927-0.3593 0-0.52599 0.22966-0.52599 0.59637v0.28522l-0.24448 0.01852v0.22966h0.24448v1.552h0.30374v-1.552h0.38153v-0.24818h-0.38153v-0.28522c0-0.22966 0.08149-0.34819 0.25188-0.34819 0.06667 0 0.13705 0.01482 0.20373 0.04445z"/>
   <path d="m80.272 48.455h0.85196v-0.23336h-0.85196z"/>
   <path d="m81.593 49.266h1.3705v-0.263h-1.0594v-2.1669h-0.31115z"/>
   <path d="m83.51 47.095c0.11853 0 0.21114-0.08149 0.21114-0.19632 0-0.11853-0.0926-0.19632-0.21114-0.19632-0.11853 0-0.21114 0.07779-0.21114 0.19632 0 0.11483 0.0926 0.19632 0.21114 0.19632zm-0.15558 2.1706h0.30374v-1.8002h-0.30374z"/>
   <path d="m85.144 46.643c-0.08149-0.03334-0.18891-0.05927-0.30004-0.05927-0.3593 0-0.52599 0.22966-0.52599 0.59637v0.28522l-0.24448 0.01852v0.22966h0.24448v1.552h0.30374v-1.552h0.38153v-0.24818h-0.38153v-0.28522c0-0.22966 0.08149-0.34819 0.25188-0.34819 0.06667 0 0.13705 0.01482 0.20373 0.04445z"/>
   <path d="m85.181 48.369c0 0.58896 0.38153 0.94086 0.86307 0.94086 0.24448 0 0.43709-0.0852 0.59267-0.18521l-0.10742-0.20002c-0.13335 0.08519-0.27781 0.14076-0.4482 0.14076-0.34449 0-0.57785-0.24448-0.60008-0.63341h1.215c0.0074-0.04445 0.01111-0.10372 0.01111-0.16669 0-0.51488-0.25929-0.84455-0.71861-0.84455-0.41116 0-0.80751 0.3593-0.80751 0.94827zm0.29633-0.13705c0.03704-0.36301 0.2667-0.57044 0.51858-0.57044 0.28152 0 0.4445 0.20373 0.4445 0.57044z"/>
  </g>
  <path d="m123.84-23.622h41.97" fill="none" stroke-width="0"/>
  <g stroke="#6f8ce9" stroke-width=".26458">
   <g>
    <path d="m142-13.038v-12.171" fill="#fff" fill-opacity=".070094" stroke-dashoffset="1.2" stroke-linecap="square"/>
    <path d="m81.142 13.42v-12.171" fill="#fff" fill-opacity=".070094" stroke-dashoffset="1.2" stroke-linecap="square"/>
    <path d="m80.216 29.125v10.749" fill="none" stroke-linecap="round"/>
   </g>
   <rect transform="rotate(90)" x="27.835" y="-82.333" width="1.3229" height="4.2333" fill="#1d232d" stroke-dashoffset="1.2" stroke-linecap="square" stroke-miterlimit="40"/>
   <rect transform="rotate(90)" x="39.741" y="-82.333" width="1.3229" height="4.2333" fill="#1d232d" stroke-dashoffset="1.2" stroke-linecap="square" stroke-miterlimit="40"/>
   <path d="m159.43 21.617h22.126" fill="none" stroke-linecap="round"/>
   <rect x="157.87" y="19.5" width="1.3229" height="4.2333" fill="#1d232d" stroke-dashoffset="1.2" stroke-linecap="square" stroke-miterlimit="40"/>
   <rect x="181.95" y="19.5" width="1.3229" height="4.2333" fill="#1d232d" stroke-dashoffset="1.2" stroke-linecap="square" stroke-miterlimit="40"/>
   <path d="m159.43 48.075h22.126" fill="none" stroke-linecap="round"/>
   <rect x="157.87" y="45.958" width="1.3229" height="4.2333" fill="#1d232d" stroke-dashoffset="1.2" stroke-linecap="square" stroke-miterlimit="40"/>
   <rect x="181.95" y="45.958" width="1.3229" height="4.2333" fill="#1d232d" stroke-dashoffset="1.2" stroke-linecap="square" stroke-miterlimit="40"/>
   <path d="m159.43-4.8413h22.126" fill="none" stroke-linecap="round"/>
   <rect x="157.87" y="-6.9582" width="1.3229" height="4.2333" fill="#1d232d" stroke-dashoffset="1.2" stroke-linecap="square" stroke-miterlimit="40"/>
   <rect x="181.95" y="-6.9582" width="1.3229" height="4.2333" fill="#1d232d" stroke-dashoffset="1.2" stroke-linecap="square" stroke-miterlimit="40"/>
   <path d="m159.43-31.3h22.126" fill="none" stroke-linecap="round"/>
   <rect x="157.87" y="-33.417" width="1.3229" height="4.2333" fill="#1d232d" stroke-dashoffset="1.2" stroke-linecap="square" stroke-miterlimit="40"/>
   <rect x="181.95" y="-33.417" width="1.3229" height="4.2333" fill="#1d232d" stroke-dashoffset="1.2" stroke-linecap="square" stroke-miterlimit="40"/>
  </g>
  <g fill="#6f8ce9" stroke-miterlimit="40" stroke-width="61.925">
   <g transform="matrix(-.0042365 0 0 .0043091 99.651 -6.2297)">
    <g fill="#6f8ce9" stroke-miterlimit="40" stroke-width="61.924">
     <path d="m486.41 221.41-364.07-208.5c-52.938-30.318-95.852-5.44-95.852 55.563v415.65c0 61.004 42.914 85.882 95.852 55.563l364.07-208.49c52.938-30.317 52.938-79.473 0-109.79z" fill="#6f8ce9" stroke-miterlimit="40" stroke-width="61.924"/>
    </g>
   </g>
   <g transform="matrix(0 .0042365 -.0043091 0 82.352 12.363)">
    <g fill="#6f8ce9" stroke-miterlimit="40" stroke-width="61.924">
     <path d="m486.41 221.41-364.07-208.5c-52.938-30.318-95.852-5.44-95.852 55.563v415.65c0 61.004 42.914 85.882 95.852 55.563l364.07-208.49c52.938-30.317 52.938-79.473 0-109.79z" fill="#6f8ce9" stroke-miterlimit="40" stroke-width="61.924"/>
    </g>
   </g>
   <g transform="matrix(0 .0042365 -.0043091 0 143.21 12.363)">
    <g fill="#6f8ce9" stroke-miterlimit="40" stroke-width="61.924">
     <path d="m486.41 221.41-364.07-208.5c-52.938-30.318-95.852-5.44-95.852 55.563v415.65c0 61.004 42.914 85.882 95.852 55.563l364.07-208.49c52.938-30.317 52.938-79.473 0-109.79z" fill="#6f8ce9" stroke-miterlimit="40" stroke-width="61.924"/>
    </g>
   </g>
   <g transform="matrix(0 .0042365 -.0043091 0 143.21 -14.095)">
    <g fill="#6f8ce9" stroke-miterlimit="40" stroke-width="61.924">
     <path d="m486.41 221.41-364.07-208.5c-52.938-30.318-95.852-5.44-95.852 55.563v415.65c0 61.004 42.914 85.882 95.852 55.563l364.07-208.49c52.938-30.317 52.938-79.473 0-109.79z" fill="#6f8ce9" stroke-miterlimit="40" stroke-width="61.924"/>
    </g>
   </g>
   <g transform="matrix(0 .0042365 -.0043091 0 143.21 38.822)">
    <g fill="#6f8ce9" stroke-miterlimit="40" stroke-width="61.924">
     <path d="m486.41 221.41-364.07-208.5c-52.938-30.318-95.852-5.44-95.852 55.563v415.65c0 61.004 42.914 85.882 95.852 55.563l364.07-208.49c52.938-30.317 52.938-79.473 0-109.79z" fill="#6f8ce9" stroke-miterlimit="40" stroke-width="61.924"/>
    </g>
   </g>
  </g>
  <g>
   <rect x="124.8" y="-64.632" width="33.073" height="12.954" fill="#1d232d" stroke="#6f8ce9" stroke-linecap="round" stroke-width=".26458"/>
   <g fill="#e8eaec" stroke-linecap="round" stroke-width=".26458" aria-label="id Tech 0 Quake engine">
    <path d="m134.74-61.413c0.11853 0 0.21114-0.08149 0.21114-0.19632 0-0.11853-0.0926-0.19632-0.21114-0.19632s-0.21114 0.07779-0.21114 0.19632c0 0.11483 0.0926 0.19632 0.21114 0.19632zm-0.15558 2.1706h0.30375v-1.8002h-0.30375z"/>
    <path d="m135.36-60.139c0 0.60008 0.29263 0.94086 0.74454 0.94086 0.21114 0 0.40375-0.11853 0.54451-0.25559h0.0111l0.0259 0.21114h0.25189v-2.6374h-0.30745v0.69268l0.0148 0.30745c-0.15928-0.12965-0.29634-0.20743-0.50377-0.20743-0.41116 0-0.78158 0.36301-0.78158 0.94827zm0.31485-0.0037c0-0.41116 0.22966-0.68898 0.51859-0.68898 0.14817 0 0.28522 0.05186 0.43709 0.18891v0.94086c-0.14817 0.16669-0.29263 0.24818-0.45932 0.24818-0.31485 0-0.49636-0.25929-0.49636-0.68898z"/>
    <path d="m138.82-59.242h0.30745v-2.1706h0.73713v-0.25929h-1.7817v0.25929h0.73713z"/>
    <path d="m139.88-60.139c0 0.58896 0.38153 0.94086 0.86307 0.94086 0.24447 0 0.43709-0.0852 0.59267-0.18521l-0.10742-0.20002c-0.13335 0.0852-0.27782 0.14076-0.44821 0.14076-0.34449 0-0.57785-0.24448-0.60007-0.63341h1.215c7e-3 -0.04445 0.0111-0.10372 0.0111-0.16669 0-0.51488-0.2593-0.84455-0.71861-0.84455-0.41117 0-0.80751 0.3593-0.80751 0.94827zm0.29633-0.13705c0.037-0.36301 0.2667-0.57044 0.51859-0.57044 0.28151 0 0.4445 0.20373 0.4445 0.57044z"/>
    <path d="m141.72-60.139c0 0.59637 0.36672 0.94086 0.84455 0.94086 0.21485 0 0.42228-0.0889 0.58526-0.23336l-0.13705-0.20003c-0.10742 0.09631-0.25188 0.1815-0.42228 0.1815-0.32967 0-0.55562-0.27781-0.55562-0.68898 0-0.41487 0.23707-0.69638 0.56303-0.69638 0.14446 0 0.25559 0.06668 0.36301 0.15928l0.15187-0.19632c-0.12224-0.11483-0.28892-0.21484-0.52599-0.21484-0.46302 0-0.86678 0.34449-0.86678 0.94827z"/>
    <path d="m143.54-59.242h0.30374v-1.3039c0.18151-0.1815 0.30745-0.27781 0.49266-0.27781 0.23706 0 0.34078 0.14446 0.34078 0.48154v1.1001h0.30374v-1.1409c0-0.45932-0.17039-0.70379-0.54821-0.70379-0.24818 0-0.42969 0.13335-0.60008 0.29633l0.0111-0.37042v-0.71861h-0.30374z"/>
    <path d="m146.92-59.198c0.47043 0 0.75566-0.4408 0.75566-1.2335 0-0.79269-0.28523-1.2187-0.75566-1.2187-0.47413 0-0.75935 0.42598-0.75935 1.2187 0 0.79269 0.28522 1.2335 0.75935 1.2335zm0-0.24448c-0.27781 0-0.46302-0.29633-0.46302-0.98901 0-0.69268 0.18521-0.9742 0.46302-0.9742 0.27411 0 0.45932 0.28152 0.45932 0.9742 0 0.69268-0.18521 0.98901-0.45932 0.98901z"/>
    <path d="m130.95-55.802c0-0.60378 0.28522-0.9779 0.71861-0.9779 0.43338 0 0.71861 0.37412 0.71861 0.9779 0 0.60748-0.28523 1.0001-0.71861 1.0001-0.43339 0-0.71861-0.39264-0.71861-1.0001zm1.7521 1.5372c-0.0667 0.01852-0.14817 0.03704-0.25559 0.03704-0.26299 0-0.48524-0.10372-0.59637-0.31856 0.51488-0.0889 0.85937-0.55563 0.85937-1.2557 0-0.77417-0.42969-1.2483-1.0409-1.2483-0.61119 0-1.0372 0.47043-1.0372 1.2483 0 0.7149 0.3556 1.1853 0.8853 1.2594 0.14075 0.33338 0.4482 0.57415 0.8964 0.57415 0.14447 0 0.27411-0.02963 0.3482-0.05556z"/>
    <path d="m133.17-55.235c0 0.45932 0.17039 0.70379 0.55192 0.70379 0.24818 0 0.42598-0.12965 0.59267-0.32597h0.0111l0.0259 0.28152h0.25188v-1.8002h-0.30374v1.2779c-0.17039 0.21114-0.30004 0.30374-0.48525 0.30374-0.23706 0-0.33708-0.14446-0.33708-0.48154v-1.1001h-0.30744z"/>
    <path d="m135.13-55.043c0 0.32226 0.22595 0.51118 0.5297 0.51118 0.22225 0 0.42227-0.11853 0.59637-0.25929h7e-3l0.0259 0.21484h0.25189v-1.1038c0-0.4482-0.18521-0.74083-0.62601-0.74083-0.28892 0-0.54081 0.12594-0.70749 0.23336l0.12223 0.21114c0.14076-0.09631 0.32597-0.19262 0.53711-0.19262 0.29263 0 0.37042 0.22225 0.37042 0.45191-0.76677 0.0852-1.1076 0.28152-1.1076 0.67416zm0.30004-0.02222c0-0.22966 0.20373-0.37783 0.80751-0.45191v0.50006c-0.1741 0.15558-0.31856 0.24077-0.49266 0.24077-0.1778 0-0.31485-0.0852-0.31485-0.28892z"/>
    <path d="m137.11-54.576h0.30004v-0.47413l0.33708-0.39264 0.52599 0.86678h0.33338l-0.68527-1.0779 0.60378-0.72231h-0.33708l-0.76677 0.94827h-0.0111v-1.7854h-0.30004z"/>
    <path d="m138.74-55.472c0 0.58896 0.38153 0.94086 0.86307 0.94086 0.24448 0 0.4371-0.0852 0.59267-0.18521l-0.10742-0.20002c-0.13335 0.08519-0.27781 0.14076-0.44821 0.14076-0.34448 0-0.57785-0.24448-0.60007-0.63341h1.215c7e-3 -0.04445 0.0111-0.10372 0.0111-0.16669 0-0.51488-0.25929-0.84455-0.71861-0.84455-0.41116 0-0.80751 0.3593-0.80751 0.94827zm0.29634-0.13705c0.037-0.36301 0.2667-0.57044 0.51858-0.57044 0.28152 0 0.4445 0.20373 0.4445 0.57044z"/>
    <path d="m141.32-55.472c0 0.58896 0.38153 0.94086 0.86307 0.94086 0.24448 0 0.4371-0.0852 0.59267-0.18521l-0.10742-0.20002c-0.13335 0.08519-0.27781 0.14076-0.4482 0.14076-0.34449 0-0.57786-0.24448-0.60008-0.63341h1.215c7e-3 -0.04445 0.0111-0.10372 0.0111-0.16669 0-0.51488-0.25929-0.84455-0.71861-0.84455-0.41116 0-0.80751 0.3593-0.80751 0.94827zm0.29634-0.13705c0.037-0.36301 0.2667-0.57044 0.51858-0.57044 0.28152 0 0.4445 0.20373 0.4445 0.57044z"/>
    <path d="m143.3-54.576h0.30374v-1.3039c0.1815-0.1815 0.30745-0.27781 0.49265-0.27781 0.23707 0 0.34079 0.14446 0.34079 0.48154v1.1001h0.30374v-1.1409c0-0.45932-0.17039-0.70379-0.54822-0.70379-0.24818 0-0.43338 0.13335-0.60378 0.30374h-0.0111l-0.0259-0.25929h-0.25188z"/>
    <path d="m145.45-54.272c0-0.10372 0.0556-0.21114 0.18521-0.30374 0.0778 0.02222 0.16298 0.02963 0.23336 0.02963h0.31115c0.23337 0 0.36301 0.05556 0.36301 0.22225 0 0.18891-0.22595 0.36671-0.57044 0.36671-0.32597 0-0.52229-0.12224-0.52229-0.31486zm-0.2667 0.04075c0 0.31115 0.30374 0.48525 0.74454 0.48525 0.55933 0 0.91123-0.28892 0.91123-0.6223 0-0.30004-0.21114-0.42968-0.62971-0.42968h-0.3482c-0.24447 0-0.31855-0.08149-0.31855-0.19632 0-0.10001 0.0519-0.15928 0.11483-0.21484 0.0815 0.04075 0.1815 0.06297 0.2704 0.06297 0.36671 0 0.65934-0.24077 0.65934-0.626 0-0.15187-0.063-0.28892-0.14816-0.37042h0.37041v-0.23336h-0.626c-0.0667-0.02593-0.15558-0.04445-0.25559-0.04445-0.36671 0-0.67786 0.24818-0.67786 0.64082 0 0.21484 0.11483 0.38894 0.23336 0.48525v0.01482c-0.0926 0.06297-0.19632 0.1815-0.19632 0.33338 0 0.14076 0.0704 0.23707 0.15928 0.29263v0.01482c-0.16299 0.11112-0.263 0.25559-0.263 0.40746zm0.74454-1.1187c-0.20743 0-0.38153-0.16669-0.38153-0.42968s0.17039-0.41857 0.38153-0.41857 0.38153 0.15558 0.38153 0.41857-0.1741 0.42968-0.38153 0.42968z"/>
    <path d="m147.34-56.747c0.11853 0 0.21113-0.08149 0.21113-0.19632 0-0.11853-0.0926-0.19632-0.21113-0.19632-0.11854 0-0.21114 0.07779-0.21114 0.19632 0 0.11483 0.0926 0.19632 0.21114 0.19632zm-0.15558 2.1706h0.30374v-1.8002h-0.30374z"/>
    <path d="m148.1-54.576h0.30375v-1.3039c0.1815-0.1815 0.30744-0.27781 0.49265-0.27781 0.23707 0 0.34078 0.14446 0.34078 0.48154v1.1001h0.30375v-1.1409c0-0.45932-0.1704-0.70379-0.54822-0.70379-0.24818 0-0.43339 0.13335-0.60378 0.30374h-0.0111l-0.0259-0.25929h-0.25189z"/>
    <path d="m149.99-55.472c0 0.58896 0.38153 0.94086 0.86307 0.94086 0.24448 0 0.4371-0.0852 0.59267-0.18521l-0.10742-0.20002c-0.13335 0.08519-0.27781 0.14076-0.4482 0.14076-0.34449 0-0.57786-0.24448-0.60008-0.63341h1.215c7e-3 -0.04445 0.0111-0.10372 0.0111-0.16669 0-0.51488-0.25929-0.84455-0.71861-0.84455-0.41116 0-0.80751 0.3593-0.80751 0.94827zm0.29634-0.13705c0.037-0.36301 0.2667-0.57044 0.51858-0.57044 0.28152 0 0.4445 0.20373 0.4445 0.57044z"/>
   </g>
   <path d="m123.84-50.08h41.97" fill="none" stroke-width="0"/>
   <path d="m142-39.497v-12.171" fill="#fff" fill-opacity=".070094" stroke="#6f8ce9" stroke-dashoffset="1.2" stroke-linecap="square" stroke-width=".26458"/>
  </g>
  <g transform="matrix(0 .0042365 -.0043091 0 143.21 -40.553)" fill="#6f8ce9" stroke-miterlimit="40" stroke-width="61.925">
   <g fill="#6f8ce9" stroke-miterlimit="40" stroke-width="61.924">
    <path d="m486.41 221.41-364.07-208.5c-52.938-30.318-95.852-5.44-95.852 55.563v415.65c0 61.004 42.914 85.882 95.852 55.563l364.07-208.49c52.938-30.317 52.938-79.473 0-109.79z" fill="#6f8ce9" stroke-miterlimit="40" stroke-width="61.924"/>
   </g>
  </g>
  <g fill="none" stroke="#6f8ce9" stroke-dashoffset="1.2" stroke-linecap="square" stroke-miterlimit="40" stroke-width=".26458">
   <path d="m183.01-62.388v-2.9104h2.9104" style="paint-order:normal"/>
   <path d="m213.43-62.388v-2.9104h-2.9104" style="paint-order:normal"/>
   <path d="m183.01-53.657v2.9104h2.9104" style="paint-order:normal"/>
   <path d="m213.43-53.657v2.9104h-2.9104" style="paint-order:normal"/>
  </g>
  <rect x="183.54" y="-64.77" width="29.369" height="13.494" fill="#1d232d"/>
  <g fill="#e8eaec" stroke-linecap="round" stroke-width=".26458" aria-label="Doom">
   <path d="m194-56.568h0.6223c0.73343 0 1.1335-0.45191 1.1335-1.2261 0-0.77047-0.40005-1.2039-1.1483-1.2039h-0.60749zm0.31115-0.25188v-1.9262h0.27411c0.57044 0 0.85196 0.34078 0.85196 0.95197 0 0.61489-0.28152 0.9742-0.85196 0.9742z"/>
   <path d="m196.11-57.464c0 0.59637 0.39265 0.94086 0.83344 0.94086 0.4408 0 0.83344-0.34449 0.83344-0.94086 0-0.60378-0.39264-0.94827-0.83344-0.94827-0.44079 0-0.83344 0.34449-0.83344 0.94827zm0.31486 0c0-0.41487 0.21114-0.69638 0.51858-0.69638 0.31115 0 0.51859 0.28152 0.51859 0.69638 0 0.41116-0.20744 0.68898-0.51859 0.68898-0.30744 0-0.51858-0.27781-0.51858-0.68898z"/>
   <path d="m198.12-57.464c0 0.59637 0.39264 0.94086 0.83344 0.94086s0.83344-0.34449 0.83344-0.94086c0-0.60378-0.39264-0.94827-0.83344-0.94827s-0.83344 0.34449-0.83344 0.94827zm0.31486 0c0-0.41487 0.21113-0.69638 0.51858-0.69638 0.31115 0 0.51858 0.28152 0.51858 0.69638 0 0.41116-0.20743 0.68898-0.51858 0.68898-0.30745 0-0.51858-0.27781-0.51858-0.68898z"/>
   <path d="m200.27-56.568h0.30374v-1.3039c0.16669-0.18521 0.31856-0.27781 0.45191-0.27781 0.22966 0 0.33708 0.14446 0.33708 0.48154v1.1001h0.30374v-1.3039c0.16669-0.18521 0.31115-0.27781 0.45191-0.27781 0.22596 0 0.33338 0.14446 0.33338 0.48154v1.1001h0.30374v-1.1409c0-0.45932-0.1778-0.70379-0.54822-0.70379-0.21854 0-0.40375 0.14076-0.59267 0.34449-0.0741-0.21484-0.22225-0.34449-0.49635-0.34449-0.21485 0-0.40376 0.13335-0.55933 0.30374h-0.0111l-0.0259-0.25929h-0.25188z"/>
  </g>
  <g stroke="#6f8ce9" stroke-width=".26458">
   <path d="m159.43-57.758h22.126" fill="none" stroke-linecap="round"/>
   <rect x="157.87" y="-59.875" width="1.3229" height="4.2333" fill="#1d232d" stroke-dashoffset="1.2" stroke-linecap="square" stroke-miterlimit="40"/>
   <rect x="181.95" y="-59.875" width="1.3229" height="4.2333" fill="#1d232d" stroke-dashoffset="1.2" stroke-linecap="square" stroke-miterlimit="40"/>
  </g>
 </g>
</svg>
