<?xml version="1.0" encoding="UTF-8"?>
<svg width="639.79" height="277.35" version="1.1" viewBox="0 0 169.28 73.384" xmlns="http://www.w3.org/2000/svg" xmlns:cc="http://creativecommons.org/ns#" xmlns:dc="http://purl.org/dc/elements/1.1/" xmlns:rdf="http://www.w3.org/1999/02/22-rdf-syntax-ns#">
 <metadata>
  <rdf:RDF>
   <cc:Work rdf:about="">
    <dc:format>image/svg+xml</dc:format>
    <dc:type rdf:resource="http://purl.org/dc/dcmitype/StillImage"/>
    <dc:title/>
   </cc:Work>
  </rdf:RDF>
 </metadata>
 <g transform="matrix(7.2629 0 0 7.2628 -684.21 -699.11)" stroke-dashoffset="1.2" stroke-linecap="square" stroke-width=".26459">
  <rect x="94.208" y="96.454" width="23.308" height="9.7115" fill="#1d232d" style="paint-order:normal"/>
  <g fill="#7b8694">
   <path d="m94.596 96.26h1.1654v0.19408h-1.1654z"/>
   <path d="m96.538 96.26h1.1654v0.19408h-1.1654z"/>
   <path d="m98.481 96.26h1.1654v0.19408h-1.1654z"/>
   <path d="m100.42 96.26h1.1654v0.19408h-1.1654z"/>
   <path d="m102.37 96.26h1.1654v0.19408h-1.1654z"/>
   <path d="m104.31 96.26h1.1654v0.19408h-1.1654z"/>
   <path d="m106.25 96.26h1.1654v0.19408h-1.1654z"/>
   <path d="m108.19 96.26h1.1654v0.19408h-1.1654z"/>
   <path d="m110.13 96.26h1.1654v0.19408h-1.1654z"/>
   <path d="m112.08 96.26h1.1654v0.19408h-1.1654z"/>
   <path d="m114.02 96.26h1.1654v0.19408h-1.1654z"/>
   <path d="m115.96 96.26h1.1654v0.19408h-1.1654z"/>
   <path d="m115.96 106.17h1.1654v0.19405h-1.1654z"/>
   <path d="m114.02 106.17h1.1654v0.19405h-1.1654z"/>
   <path d="m112.08 106.17h1.1654v0.19405h-1.1654z"/>
   <path d="m110.13 106.17h1.1654v0.19405h-1.1654z"/>
   <path d="m108.19 106.17h1.1654v0.19405h-1.1654z"/>
   <path d="m106.25 106.17h1.1654v0.19405h-1.1654z"/>
   <path d="m104.31 106.17h1.1654v0.19405h-1.1654z"/>
   <path d="m102.37 106.17h1.1654v0.19405h-1.1654z"/>
   <path d="m100.42 106.17h1.1654v0.19405h-1.1654z"/>
   <path d="m98.481 106.17h1.1654v0.19405h-1.1654z"/>
   <path d="m96.538 106.17h1.1654v0.19405h-1.1654z"/>
   <path d="m94.596 106.17h1.1654v0.19405h-1.1654z"/>
  </g>
 </g>
 <g fill="#7b8694" stroke-linecap="round" stroke-width=".26459">
  <rect x="51.594" y="41.805" width="2.6459" height="1.3229"/>
  <rect x="54.24" y="36.513" width="2.6459" height="1.3229"/>
  <rect x="54.24" y="47.097" width="2.6459" height="1.3229"/>
 </g>
 <g stroke-width=".26459">
  <path d="m52.917 41.805v-4.591h1.3229" fill="none" stroke="#6f8ce9"/>
  <path d="m52.917 43.167v4.591h1.3229" fill="none" stroke="#6f8ce9"/>
  <rect x="56.886" y="31.222" width="2.6459" height="1.3229" fill="#7b8694" stroke-linecap="round"/>
  <rect x="56.886" y="41.805" width="2.6459" height="1.3229" fill="#7b8694" stroke-linecap="round"/>
  <path d="m55.563 36.513v-4.591h1.3229" fill="none" stroke="#6f8ce9"/>
  <path d="m55.563 37.876v4.591h1.3229" fill="none" stroke="#6f8ce9"/>
  <rect x="59.532" y="25.93" width="2.6459" height="1.3229" fill="#fbb227" stroke-linecap="round"/>
  <rect x="59.532" y="36.513" width="2.6459" height="1.3229" fill="#7b8694" stroke-linecap="round"/>
  <path d="m58.209 31.222v-4.591h1.3229" fill="none" stroke="#6f8ce9"/>
  <path d="m58.209 32.584v4.591h1.3229" fill="none" stroke="#6f8ce9"/>
  <rect x="62.178" y="31.222" width="2.6459" height="1.3229" fill="#7b8694" stroke-linecap="round"/>
  <rect x="62.178" y="41.805" width="2.6459" height="1.3229" fill="#7b8694" stroke-linecap="round"/>
  <path d="m60.855 36.513v-4.591h1.3229" fill="none" stroke="#6f8ce9"/>
  <path d="m60.855 37.876v4.591h1.3229" fill="none" stroke="#6f8ce9"/>
  <rect x="64.824" y="36.513" width="2.6459" height="1.3229" fill="#7b8694" stroke-linecap="round"/>
  <rect x="64.824" y="47.097" width="2.6459" height="1.3229" fill="#7b8694" stroke-linecap="round"/>
  <path d="m63.501 41.805v-4.591h1.3229" fill="none" stroke="#6f8ce9"/>
  <path d="m63.501 43.167v4.591h1.3229" fill="none" stroke="#6f8ce9"/>
  <rect x="67.469" y="41.805" width="2.6459" height="1.3229" fill="#7b8694" stroke-linecap="round"/>
  <path d="m66.146 47.097v-4.591h1.3229" fill="none" stroke="#6f8ce9"/>
  <rect x="70.115" y="36.513" width="2.6459" height="1.3229" fill="#7b8694" stroke-linecap="round"/>
  <rect x="70.115" y="47.097" width="2.6459" height="1.3229" fill="#fbb227" stroke-linecap="round"/>
  <path d="m68.792 41.805v-4.591h1.3229" fill="none" stroke="#6f8ce9"/>
  <path d="m68.792 43.167v4.591h1.3229" fill="none" stroke="#6f8ce9"/>
  <rect x="72.761" y="31.222" width="2.6459" height="1.3229" fill="#7b8694" stroke-linecap="round"/>
  <rect x="72.761" y="41.805" width="2.6459" height="1.3229" fill="#7b8694" stroke-linecap="round"/>
  <path d="m71.438 36.513v-4.591h1.3229" fill="none" stroke="#6f8ce9"/>
  <path d="m71.438 37.876v4.591h1.3229" fill="none" stroke="#6f8ce9"/>
  <rect x="75.407" y="25.93" width="2.6459" height="1.3229" fill="#7b8694" stroke-linecap="round"/>
  <rect x="75.407" y="36.513" width="2.6459" height="1.3229" fill="#7b8694" stroke-linecap="round"/>
  <path d="m74.084 31.222v-4.591h1.3229" fill="none" stroke="#6f8ce9"/>
  <path d="m74.084 32.584v4.591h1.3229" fill="none" stroke="#6f8ce9"/>
  <rect x="78.053" y="41.805" width="2.6459" height="1.3229" fill="#7b8694" stroke-linecap="round"/>
  <path d="m76.73 37.876v4.591h1.3229" fill="none" stroke="#6f8ce9"/>
  <rect x="80.699" y="36.513" width="2.6459" height="1.3229" fill="#7b8694" stroke-linecap="round"/>
  <rect x="80.699" y="47.097" width="2.6459" height="1.3229" fill="#7b8694" stroke-linecap="round"/>
  <path d="m79.376 41.805v-4.591h1.3229" fill="none" stroke="#6f8ce9"/>
  <path d="m79.376 43.167v4.591h1.3229" fill="none" stroke="#6f8ce9"/>
  <rect x="83.345" y="41.805" width="2.6459" height="1.3229" fill="#7b8694" stroke-linecap="round"/>
  <path d="m82.022 47.097v-4.591h1.3229" fill="none" stroke="#6f8ce9"/>
  <rect x="85.991" y="36.513" width="2.6459" height="1.3229" fill="#7b8694" stroke-linecap="round"/>
  <path d="m84.668 41.805v-4.591h1.3229" fill="none" stroke="#6f8ce9"/>
  <rect x="88.637" y="31.222" width="2.6459" height="1.3229" fill="#fbb227" stroke-linecap="round"/>
  <rect x="88.637" y="41.805" width="2.6459" height="1.3229" fill="#7b8694" stroke-linecap="round"/>
  <path d="m87.314 36.513v-4.591h1.3229" fill="none" stroke="#6f8ce9"/>
  <path d="m87.314 37.876v4.591h1.3229" fill="none" stroke="#6f8ce9"/>
  <rect x="91.547" y="36.513" width="2.6459" height="1.3229" fill="#7b8694" stroke-linecap="round"/>
  <rect x="91.547" y="47.097" width="2.6459" height="1.3229" fill="#7b8694" stroke-linecap="round"/>
  <path d="m90.224 41.805v-4.591h1.3229" fill="none" stroke="#6f8ce9"/>
  <path d="m90.224 43.167v4.591h1.3229" fill="none" stroke="#6f8ce9"/>
  <rect x="94.193" y="31.222" width="2.6459" height="1.3229" fill="#7b8694" stroke-linecap="round"/>
  <path d="m92.87 36.513v-4.591h1.323" fill="none" stroke="#6f8ce9"/>
  <rect x="96.839" y="36.513" width="2.6459" height="1.3229" fill="#7b8694" stroke-linecap="round"/>
  <path d="m95.516 32.584v4.591h1.323" fill="none" stroke="#6f8ce9"/>
  <rect x="99.485" y="31.222" width="2.6459" height="1.3229" fill="#7b8694" stroke-linecap="round"/>
  <rect x="99.485" y="41.805" width="2.6459" height="1.3229" fill="#7b8694" stroke-linecap="round"/>
  <path d="m98.162 36.513v-4.591h1.323" fill="none" stroke="#6f8ce9"/>
  <path d="m98.162 37.876v4.591h1.323" fill="none" stroke="#6f8ce9"/>
  <rect x="102.13" y="47.097" width="2.6459" height="1.3229" fill="#fbb227" stroke-linecap="round"/>
  <path d="m100.81 43.167v4.591h1.323" fill="none" stroke="#6f8ce9"/>
  <rect x="102.13" y="25.93" width="2.6459" height="1.3229" fill="#7b8694" stroke-linecap="round"/>
  <rect x="102.13" y="36.513" width="2.6459" height="1.3229" fill="#7b8694" stroke-linecap="round"/>
  <path d="m100.81 31.222v-4.591h1.323" fill="none" stroke="#6f8ce9"/>
  <path d="m100.81 32.584v4.591h1.323" fill="none" stroke="#6f8ce9"/>
  <rect x="104.78" y="31.222" width="2.6459" height="1.3229" fill="#7b8694" stroke-linecap="round"/>
  <rect x="104.78" y="41.805" width="2.6459" height="1.3229" fill="#7b8694" stroke-linecap="round"/>
  <path d="m103.45 36.513v-4.591h1.323" fill="none" stroke="#6f8ce9"/>
  <path d="m103.45 37.876v4.591h1.323" fill="none" stroke="#6f8ce9"/>
  <rect x="107.42" y="25.93" width="2.6459" height="1.3229" fill="#7b8694" stroke-linecap="round"/>
  <rect x="107.42" y="36.513" width="2.6459" height="1.3229" fill="#7b8694" stroke-linecap="round"/>
  <path d="m106.1 31.222v-4.591h1.323" fill="none" stroke="#6f8ce9"/>
  <path d="m106.1 32.584v4.591h1.323" fill="none" stroke="#6f8ce9"/>
  <rect x="110.07" y="31.222" width="2.6459" height="1.3229" fill="#7b8694" stroke-linecap="round"/>
  <rect x="110.07" y="41.805" width="2.6459" height="1.3229" fill="#7b8694" stroke-linecap="round"/>
  <path d="m108.75 36.513v-4.591h1.323" fill="none" stroke="#6f8ce9"/>
  <path d="m108.75 37.876v4.591h1.323" fill="none" stroke="#6f8ce9"/>
  <rect x="112.71" y="25.93" width="2.6459" height="1.3229" fill="#7b8694" stroke-linecap="round"/>
  <rect x="112.71" y="36.513" width="2.6459" height="1.3229" fill="#7b8694" stroke-linecap="round"/>
  <path d="m111.39 31.222v-4.591h1.323" fill="none" stroke="#6f8ce9"/>
  <path d="m111.39 32.584v4.591h1.323" fill="none" stroke="#6f8ce9"/>
  <rect x="78.318" y="20.638" width="2.6459" height="1.3229" fill="#7b8694" stroke-linecap="round"/>
  <rect x="78.318" y="31.222" width="2.6459" height="1.3229" fill="#7b8694" stroke-linecap="round"/>
  <path d="m76.995 25.93v-4.591h1.3229" fill="none" stroke="#6f8ce9"/>
  <path d="m76.995 27.292v4.591h1.3229" fill="none" stroke="#6f8ce9"/>
  <rect x="115.36" y="31.222" width="2.6459" height="1.3229" fill="#fbb227" stroke-linecap="round"/>
  <rect x="115.36" y="41.805" width="2.6459" height="1.3229" fill="#7b8694" stroke-linecap="round"/>
  <path d="m114.04 36.513v-4.591h1.323" fill="none" stroke="#6f8ce9"/>
  <path d="m114.04 37.876v4.591h1.323" fill="none" stroke="#6f8ce9"/>
 </g>
</svg>
