<?xml version="1.0" encoding="UTF-8"?>
<svg class="animated inactive" width="648.66" height="146" enable-background="new 0 0 198.44 105.83" version="1.1" viewBox="0 0 168.01 20.377" xml:space="preserve" xmlns="http://www.w3.org/2000/svg" xmlns:cc="http://creativecommons.org/ns#" xmlns:dc="http://purl.org/dc/elements/1.1/" xmlns:rdf="http://www.w3.org/1999/02/22-rdf-syntax-ns#"><metadata><rdf:RDF><cc:Work rdf:about=""><dc:format>image/svg+xml</dc:format><dc:type rdf:resource="http://purl.org/dc/dcmitype/StillImage"/><dc:title/></cc:Work></rdf:RDF></metadata>
  <filter id="blur-filter" x="-2" y="-2" width="200" height="200">
    <feGaussianBlur in="SourceGraphic" stdDeviation="2"/>
  </filter><g><g stroke-linecap="round" stroke-width=".25901"><g><path d="m0.12951-8.5898h26.937v17.747h-26.937z" fill="#2f3744" stroke="#7b8694"/><g fill="#e8eaec" aria-label="CPU"><path d="m10.47 0.49217c0 0.66514 0.3823 1.0568 0.89514 1.0568 0.25797 0 0.46-0.10878 0.61852-0.29527l-0.14608-0.15851c-0.13054 0.14608-0.27352 0.22689-0.46622 0.22689-0.38852 0-0.63406-0.32325-0.63406-0.83609 0-0.50663 0.25798-0.82365 0.64649-0.82365 0.16784 0 0.29838 0.074595 0.40716 0.1896l0.14608-0.16473c-0.12122-0.13365-0.31392-0.25176-0.55636-0.25176-0.52217 0-0.91068 0.40095-0.91068 1.0568z"/><path d="m12.349 1.5116h0.26108v-0.80811h0.36676c0.44446 0 0.75217-0.20203 0.75217-0.63095 0-0.44757-0.30149-0.59987-0.75217-0.59987h-0.62784zm0.26108-1.0195v-0.81122h0.33257c0.35122 0 0.52838 0.096352 0.52838 0.39162 0 0.28906-0.17095 0.4196-0.52838 0.4196z"/><path d="m14.112 0.66933c0 0.65582 0.31703 0.8796 0.73352 0.8796s0.73352-0.22379 0.73352-0.8796v-1.1966h-0.24865v1.2028c0 0.49108-0.21446 0.64649-0.48487 0.64649-0.26419 0-0.47244-0.15541-0.47244-0.64649v-1.2028h-0.26108z"/></g><path d="m0.12951 10.836h26.937v4.7968h-26.937z" fill="#2f3744" stroke="#7b8694"/><g fill="#e8eaec" aria-label="Memory"><path d="m8.0296 14.203h0.23933v-1.122c0-0.18027-0.018649-0.42271-0.031081-0.60298h0.012432l0.16162 0.45379 0.39162 1.0661h0.14919l0.39162-1.0661 0.16162-0.45379h0.012432c-0.012432 0.18027-0.034189 0.4227-0.034189 0.60298v1.122h0.24554v-2.0389h-0.3046l-0.39162 1.0941-0.14297 0.41649h-0.012433l-0.14608-0.41649-0.39473-1.0941h-0.3077z"/><path d="m10.148 13.451c0 0.49419 0.32014 0.78946 0.72419 0.78946 0.20514 0 0.36676-0.07149 0.4973-0.15541l-0.09014-0.16784c-0.11189 0.07149-0.23311 0.11811-0.37608 0.11811-0.28906 0-0.48487-0.20514-0.50352-0.53149h1.0195c0.0062-0.0373 0.0093-0.08703 0.0093-0.13987 0-0.43203-0.21757-0.70865-0.60298-0.70865-0.345 0-0.67757 0.30149-0.67757 0.79568zm0.24865-0.115c0.03108-0.3046 0.22378-0.47865 0.43514-0.47865 0.23622 0 0.37298 0.17095 0.37298 0.47865z"/><path d="m11.802 14.203h0.25487v-1.0941c0.13987-0.15541 0.2673-0.23311 0.37919-0.23311 0.1927 0 0.28284 0.12122 0.28284 0.40406v0.92312h0.25487v-1.0941c0.13987-0.15541 0.26108-0.23311 0.37919-0.23311 0.1896 0 0.27973 0.12122 0.27973 0.40406v0.92312h0.25487v-0.9573c0-0.38541-0.14919-0.59054-0.46-0.59054-0.18338 0-0.33879 0.11811-0.4973 0.28906-0.06216-0.18027-0.18649-0.28906-0.41649-0.28906-0.18027 0-0.33879 0.11189-0.46933 0.25487h-0.0093l-0.02176-0.21757h-0.21135z"/><path d="m14.264 13.451c0 0.50041 0.32946 0.78946 0.69933 0.78946s0.69933-0.28906 0.69933-0.78946c0-0.50662-0.32946-0.79568-0.69933-0.79568s-0.69933 0.28906-0.69933 0.79568zm0.26419 0c0-0.34811 0.17716-0.58433 0.43514-0.58433 0.26108 0 0.43514 0.23622 0.43514 0.58433 0 0.345-0.17406 0.57811-0.43514 0.57811-0.25798 0-0.43514-0.23311-0.43514-0.57811z"/><path d="m16.064 14.203h0.25487v-0.96974c0.10257-0.25487 0.25487-0.34811 0.3823-0.34811 0.06216 0 0.09635 0.0093 0.14608 0.02487l0.04973-0.22379c-0.04973-0.02176-0.09635-0.03108-0.16162-0.03108-0.17095 0-0.32635 0.12122-0.42892 0.31081h-0.0093l-0.02176-0.27352h-0.21135z"/><path d="m17.102 14.62-0.04973 0.20203c0.04973 0.01865 0.10878 0.03108 0.17716 0.03108 0.3046 0 0.46-0.22689 0.56568-0.52527l0.56879-1.6349h-0.24865l-0.27041 0.83609c-0.0404 0.13365-0.08392 0.28906-0.12743 0.42581h-0.01243c-0.04662-0.13987-0.09946-0.29527-0.14608-0.42581l-0.3077-0.83609h-0.26419l0.60609 1.5137-0.03419 0.11189c-0.06216 0.18649-0.17095 0.32324-0.34189 0.32324-0.0373 0-0.08392-0.01243-0.115-0.02176z"/></g></g><path d="m27.347 0.28876h23.307" fill="#d2d6dc" stroke="#6f8ce9" stroke-dashoffset="1.2" stroke-miterlimit="40"/></g><g transform="matrix(.0041473 0 0 .0042183 50.051 -.91957)" fill="#6f8ce9" stroke-width="123.85"><g fill="#6f8ce9" stroke-width="123.85"><path d="m486.41 221.41-364.07-208.5c-52.938-30.318-95.852-5.44-95.852 55.563v415.65c0 61.004 42.914 85.882 95.852 55.563l364.07-208.49c52.938-30.317 52.938-79.473 0-109.79z" fill="#6f8ce9" stroke-width="123.85"/></g></g><path d="m27.347 13.239h23.307" fill="#d2d6dc" stroke="#6f8ce9" stroke-dashoffset="1.2" stroke-linecap="round" stroke-miterlimit="40" stroke-width=".25901"/><g transform="matrix(.0041473 0 0 .0042183 50.051 12.031)" fill="#6f8ce9" stroke-width="123.85"><g fill="#6f8ce9" stroke-width="123.85"><path d="m486.41 221.41-364.07-208.5c-52.938-30.318-95.852-5.44-95.852 55.563v415.65c0 61.004 42.914 85.882 95.852 55.563l364.07-208.49c52.938-30.317 52.938-79.473 0-109.79z" fill="#6f8ce9" stroke-width="123.85"/></g></g><g stroke-linecap="round" stroke-width=".25901"><g><g fill="#e8eaec" aria-label="Draw calls"><path d="m32.641-0.81947h0.52217c0.61541 0 0.95109-0.37919 0.95109-1.0288 0-0.64649-0.33568-1.0101-0.96352-1.0101h-0.50973zm0.26108-0.21135v-1.6162h0.23c0.47865 0 0.71487 0.28595 0.71487 0.79879 0 0.51595-0.23622 0.81744-0.71487 0.81744z"/><path d="m34.525-0.81947h0.25487v-0.96974c0.10257-0.25487 0.25487-0.34811 0.3823-0.34811 0.06216 0 0.09635 0.00932 0.14608 0.024865l0.04973-0.22379c-0.04973-0.021757-0.09635-0.031081-0.16162-0.031081-0.17095 0-0.32635 0.12122-0.42892 0.31081h-0.0093l-0.021781-0.27352h-0.21135z"/><path d="m35.452-1.2111c0 0.27041 0.1896 0.42892 0.44446 0.42892 0.18649 0 0.35433-0.09946 0.50041-0.21757h0.0062l0.02176 0.18027h0.21135v-0.92622c0-0.37608-0.15541-0.62163-0.52527-0.62163-0.24243 0-0.45379 0.10568-0.59365 0.19581l0.10257 0.17716c0.11811-0.080811 0.27352-0.16162 0.45068-0.16162 0.24554 0 0.31081 0.18649 0.31081 0.37919-0.64338 0.071487-0.92933 0.23622-0.92933 0.56568zm0.25176-0.018649c0-0.1927 0.17095-0.31703 0.67757-0.37919v0.4196c-0.14608 0.13054-0.2673 0.20203-0.41338 0.20203-0.14919 0-0.26419-0.071487-0.26419-0.24243z"/><path d="m37.357-0.81947h0.29838l0.21135-0.80811c0.04041-0.14297 0.07149-0.28595 0.10568-0.43825h0.01243c0.0373 0.1523 0.06527 0.29216 0.10257 0.43514l0.21757 0.81122h0.31081l0.40406-1.5106h-0.24244l-0.22068 0.87338c-0.03108 0.14297-0.05905 0.27973-0.09324 0.4196h-0.01243c-0.03419-0.13987-0.06838-0.27662-0.10568-0.4196l-0.23622-0.87338h-0.24865l-0.23311 0.87338c-0.0373 0.13987-0.06838 0.27973-0.10257 0.4196h-0.01243c-0.02797-0.13987-0.05595-0.27662-0.09014-0.4196l-0.22379-0.87338h-0.26108z"/><path d="m39.865-1.5716c0 0.50041 0.3077 0.78947 0.70865 0.78947 0.18027 0 0.35433-0.074595 0.49108-0.19581l-0.115-0.16784c-0.09014 0.080811-0.21135 0.1523-0.35433 0.1523-0.27662 0-0.46622-0.23311-0.46622-0.57811 0-0.34811 0.19892-0.58433 0.47244-0.58433 0.12122 0 0.21446 0.055946 0.3046 0.13365l0.12743-0.16473c-0.10257-0.096352-0.24243-0.18027-0.44136-0.18027-0.38852 0-0.7273 0.28906-0.7273 0.79568z"/><path d="m41.286-1.2111c0 0.27041 0.1896 0.42892 0.44446 0.42892 0.18649 0 0.35433-0.09946 0.50041-0.21757h0.0062l0.02176 0.18027h0.21135v-0.92622c0-0.37608-0.15541-0.62163-0.52527-0.62163-0.24244 0-0.45379 0.10568-0.59365 0.19581l0.10257 0.17716c0.11811-0.080811 0.27352-0.16162 0.45068-0.16162 0.24554 0 0.31081 0.18649 0.31081 0.37919-0.64338 0.071487-0.92933 0.23622-0.92933 0.56568zm0.25176-0.018649c0-0.1927 0.17095-0.31703 0.67757-0.37919v0.4196c-0.14608 0.13054-0.2673 0.20203-0.41338 0.20203-0.14919 0-0.26419-0.071487-0.26419-0.24243z"/><path d="m42.951-1.1241c0 0.22068 0.0777 0.34189 0.27041 0.34189 0.06838 0 0.11189-0.009324 0.14608-0.024865l-0.03419-0.1927c-0.02797 0.006216-0.04041 0.006216-0.05595 0.006216-0.0373 0-0.07149-0.031081-0.07149-0.11189v-1.927h-0.25487z"/><path d="m43.746-1.1241c0 0.22068 0.0777 0.34189 0.27041 0.34189 0.06838 0 0.11189-0.009324 0.14608-0.024865l-0.03419-0.1927c-0.02797 0.006216-0.04041 0.006216-0.05595 0.006216-0.0373 0-0.07149-0.031081-0.07149-0.11189v-1.927h-0.25487z"/><path d="m44.374-0.99041c0.14297 0.11811 0.34811 0.20824 0.56257 0.20824 0.35744 0 0.55325-0.20514 0.55325-0.45068 0-0.28595-0.24243-0.37608-0.46-0.4569-0.17095-0.065271-0.33568-0.12122-0.33568-0.26108 0-0.115 0.08703-0.21757 0.27662-0.21757 0.13365 0 0.24243 0.055946 0.345 0.13365l0.12122-0.16162c-0.115-0.093244-0.27973-0.17095-0.46933-0.17095-0.32635 0-0.51906 0.18649-0.51906 0.42892 0 0.25487 0.23622 0.35743 0.45068 0.43514 0.16473 0.062163 0.345 0.13054 0.345 0.28595 0 0.13054-0.09946 0.23622-0.29838 0.23622-0.18027 0-0.31392-0.074595-0.44446-0.18027z"/></g><g fill="#e8eaec" aria-label="Textures, buffers"><path d="m28.701 12.034h0.25798v-1.8214h0.61852v-0.21757h-1.495v0.21757h0.61852z"/><path d="m29.592 11.282c0 0.49419 0.32014 0.78946 0.72419 0.78946 0.20514 0 0.36676-0.07149 0.4973-0.15541l-0.09014-0.16784c-0.11189 0.07149-0.23311 0.11811-0.37608 0.11811-0.28906 0-0.48487-0.20514-0.50352-0.53149h1.0195c0.0062-0.0373 0.0093-0.08703 0.0093-0.13987 0-0.43203-0.21757-0.70865-0.60298-0.70865-0.345 0-0.67757 0.30149-0.67757 0.79568zm0.24865-0.115c0.03108-0.3046 0.22378-0.47865 0.43514-0.47865 0.23622 0 0.37298 0.17095 0.37298 0.47865z"/><path d="m31.01 12.034h0.2673l0.20514-0.35122c0.04973-0.09324 0.09946-0.18338 0.1523-0.27041h0.01243c0.05595 0.08703 0.11189 0.18027 0.16473 0.27041l0.22068 0.35122h0.27662l-0.49108-0.76149 0.4569-0.74906h-0.2673l-0.18338 0.33257c-0.04662 0.08081-0.09324 0.16784-0.13676 0.25176h-0.01243c-0.05284-0.08392-0.10257-0.17095-0.14919-0.25176l-0.20203-0.33257h-0.27662l0.4569 0.72109z"/><path d="m32.649 11.568c0 0.29838 0.10878 0.50352 0.43203 0.50352 0.09324 0 0.19581-0.02797 0.27973-0.05595l-0.04973-0.1927c-0.04973 0.01865-0.11811 0.04041-0.17095 0.04041-0.17406 0-0.23311-0.10568-0.23311-0.29216v-0.8392h0.40716v-0.20824h-0.40716v-0.42271h-0.21446l-0.03108 0.42271-0.23622 0.01554v0.1927h0.22379z"/><path d="m33.616 11.481c0 0.38541 0.14297 0.59054 0.46311 0.59054 0.20824 0 0.35744-0.10878 0.4973-0.27352h0.0093l0.02176 0.23622h0.21135v-1.5106h-0.25487v1.0723c-0.14297 0.17716-0.25176 0.25487-0.40716 0.25487-0.19892 0-0.28284-0.12122-0.28284-0.40406v-0.92311h-0.25797z"/><path d="m35.332 12.034h0.25487v-0.96974c0.10257-0.25487 0.25487-0.34811 0.3823-0.34811 0.06216 0 0.09635 0.0093 0.14608 0.02487l0.04973-0.22379c-0.04973-0.02176-0.09635-0.03108-0.16162-0.03108-0.17095 0-0.32635 0.12122-0.42892 0.31081h-0.0093l-0.02176-0.27352h-0.21135z"/><path d="m36.27 11.282c0 0.49419 0.32014 0.78946 0.7242 0.78946 0.20514 0 0.36676-0.07149 0.4973-0.15541l-0.09013-0.16784c-0.11189 0.07149-0.23311 0.11811-0.37608 0.11811-0.28906 0-0.48487-0.20514-0.50352-0.53149h1.0195c0.0062-0.0373 0.0093-0.08703 0.0093-0.13987 0-0.43203-0.21757-0.70865-0.60298-0.70865-0.345 0-0.67757 0.30149-0.67757 0.79568zm0.24865-0.115c0.03108-0.3046 0.22378-0.47865 0.43514-0.47865 0.23622 0 0.37298 0.17095 0.37298 0.47865z"/><path d="m37.756 11.863c0.14297 0.11811 0.34811 0.20824 0.56257 0.20824 0.35744 0 0.55325-0.20514 0.55325-0.45068 0-0.28595-0.24243-0.37608-0.46-0.4569-0.17095-0.06527-0.33568-0.12122-0.33568-0.26108 0-0.115 0.08703-0.21757 0.27662-0.21757 0.13365 0 0.24244 0.05595 0.345 0.13365l0.12122-0.16162c-0.115-0.09324-0.27973-0.17095-0.46933-0.17095-0.32635 0-0.51906 0.18649-0.51906 0.42892 0 0.25487 0.23622 0.35744 0.45068 0.43514 0.16473 0.06216 0.345 0.13054 0.345 0.28595 0 0.13054-0.09946 0.23622-0.29838 0.23622-0.18027 0-0.31392-0.0746-0.44446-0.18027z"/><path d="m39.182 12.562c0.25176-0.10568 0.40716-0.31392 0.40716-0.58122 0-0.18649-0.08081-0.30149-0.21446-0.30149-0.10257 0-0.1896 0.06838-0.1896 0.18027 0 0.115 0.08392 0.17716 0.18338 0.17716 0.0093 0 0.02176 0 0.03108-0.0031 0 0.16784-0.10568 0.30149-0.27973 0.37919z"/><path d="m40.625 12.034h0.20514l0.02176-0.14919h0.0093c0.13365 0.11811 0.29216 0.18649 0.43203 0.18649 0.345 0 0.65271-0.30149 0.65271-0.81744 0-0.46622-0.20824-0.76771-0.59987-0.76771-0.16784 0-0.33568 0.09014-0.47244 0.21135l0.0062-0.27352v-0.60298h-0.25487zm0.25487-0.33568v-0.79257c0.14297-0.13365 0.27662-0.20514 0.40406-0.20514 0.28595 0 0.39784 0.22378 0.39784 0.55636 0 0.37298-0.18338 0.59987-0.43203 0.59987-0.09946 0-0.23622-0.04351-0.36987-0.15851z"/><path d="m42.327 11.481c0 0.38541 0.14297 0.59054 0.46311 0.59054 0.20824 0 0.35744-0.10878 0.4973-0.27352h0.0093l0.02176 0.23622h0.21135v-1.5106h-0.25487v1.0723c-0.14297 0.17716-0.25176 0.25487-0.40716 0.25487-0.19892 0-0.28284-0.12122-0.28284-0.40406v-0.92311h-0.25798z"/><path d="m45.662 9.8334c-0.06838-0.027973-0.15851-0.04973-0.25176-0.04973-0.30149 0-0.44136 0.1927-0.44136 0.50041v0.23933h-0.62784v-0.1927c0-0.19892 0.08703-0.3077 0.23622-0.3077 0.07459 0 0.13676 0.01243 0.20203 0.0404l0.05284-0.1927c-0.0746-0.034189-0.17716-0.055946-0.27662-0.055946-0.31392 0-0.46933 0.19581-0.46933 0.50973v0.19892l-0.20514 0.01554v0.1927h0.20514v1.3023h0.25487v-1.3023h0.62784v1.3023h0.25487v-1.3023h0.32014v-0.20824h-0.32014v-0.23933c0-0.1927 0.07149-0.29216 0.21446-0.29216 0.05284 0 0.11189 0.012433 0.17095 0.037298z"/><path d="m45.685 11.282c0 0.49419 0.32014 0.78946 0.7242 0.78946 0.20514 0 0.36676-0.07149 0.4973-0.15541l-0.09014-0.16784c-0.11189 0.07149-0.23311 0.11811-0.37608 0.11811-0.28906 0-0.48487-0.20514-0.50352-0.53149h1.0195c0.0062-0.0373 0.0093-0.08703 0.0093-0.13987 0-0.43203-0.21757-0.70865-0.60298-0.70865-0.345 0-0.67757 0.30149-0.67757 0.79568zm0.24865-0.115c0.03108-0.3046 0.22378-0.47865 0.43514-0.47865 0.23622 0 0.37298 0.17095 0.37298 0.47865z"/><path d="m47.339 12.034h0.25487v-0.96974c0.10257-0.25487 0.25487-0.34811 0.3823-0.34811 0.06216 0 0.09635 0.0093 0.14608 0.02487l0.04973-0.22379c-0.04973-0.02176-0.09635-0.03108-0.16162-0.03108-0.17095 0-0.32635 0.12122-0.42892 0.31081h-0.0093l-0.02176-0.27352h-0.21135z"/><path d="m48.222 11.863c0.14297 0.11811 0.34811 0.20824 0.56257 0.20824 0.35744 0 0.55325-0.20514 0.55325-0.45068 0-0.28595-0.24243-0.37608-0.46-0.4569-0.17095-0.06527-0.33568-0.12122-0.33568-0.26108 0-0.115 0.08703-0.21757 0.27662-0.21757 0.13365 0 0.24243 0.05595 0.345 0.13365l0.12122-0.16162c-0.115-0.09324-0.27973-0.17095-0.46933-0.17095-0.32635 0-0.51906 0.18649-0.51906 0.42892 0 0.25487 0.23622 0.35744 0.45068 0.43514 0.16473 0.06216 0.345 0.13054 0.345 0.28595 0 0.13054-0.09946 0.23622-0.29838 0.23622-0.18027 0-0.31392-0.0746-0.44446-0.18027z"/></g><path d="m56.497-8.5898-4.047 3.6262v30.304l4.047 3.6262h89.035l4.047-3.6262v-30.304l-4.047-3.6262z" fill="#1d232d" stroke="#2f3744"/></g><path d="m99.87 0.28876h1.8094" fill="#d2d6dc" stroke="#6f8ce9" stroke-dashoffset="1.2" stroke-miterlimit="40"/><g fill="#e8eaec" aria-label="GPU"><path d="m97.986-5.7427c0 0.79413 0.50766 1.2111 1.1459 1.2111 0.32998 0 0.6237-0.13779 0.79413-0.28647v-1.0878h-0.86665v0.43514h0.39162v0.40613c-0.05802 0.04714-0.15592 0.072523-0.2502 0.072523-0.44602 0-0.66721-0.28284-0.66721-0.76874 0-0.47503 0.26108-0.76149 0.6237-0.76149 0.20306 0 0.31548 0.068897 0.43514 0.17768l0.29372-0.32998c-0.15955-0.15955-0.4025-0.30822-0.73611-0.30822-0.64183 0-1.164 0.45689-1.164 1.2401z"/><path d="m100.41-4.5751h0.53667v-0.80138h0.32635c0.50041 0 0.92467-0.24658 0.92467-0.80138 0-0.57293-0.40975-0.76149-0.92467-0.76149h-0.86302zm0.53667-1.2256v-0.71435h0.29372c0.28284 0 0.43514 0.090654 0.43514 0.33723 0 0.24658-0.14142 0.37712-0.43514 0.37712z"/><path d="m102.59-5.6702c0 0.79413 0.32998 1.1386 0.9428 1.1386s0.93555-0.34448 0.93555-1.1386v-1.2692h-0.51492v1.3235c0 0.46415-0.15592 0.6237-0.42063 0.6237s-0.40975-0.15955-0.40975-0.6237v-1.3235h-0.53305z"/></g><path d="m68.789 0.28876h1.8094" fill="#d2d6dc" stroke="#6f8ce9" stroke-dashoffset="1.2" stroke-miterlimit="40"/><path d="m55.04-2.8916h13.728v6.3509h-13.728z" fill="#2f3744" stroke="#7b8694"/><g fill="#e8eaec" aria-label="Vertex Fetch"><path d="m58.103-0.042433h0.30149l0.64649-2.0389h-0.26419l-0.32635 1.1003c-0.06838 0.24243-0.12122 0.43514-0.19581 0.67446h-0.01243c-0.0746-0.23933-0.12432-0.43203-0.19581-0.67446l-0.32946-1.1003h-0.27352z"/><path d="m59.138-0.7946c0 0.49419 0.32014 0.78947 0.72419 0.78947 0.20514 0 0.36676-0.071487 0.4973-0.15541l-0.09014-0.16784c-0.11189 0.071487-0.23311 0.11811-0.37608 0.11811-0.28906 0-0.48487-0.20514-0.50352-0.53149h1.0195c0.0062-0.037298 0.0093-0.087028 0.0093-0.13987 0-0.43203-0.21757-0.70865-0.60298-0.70865-0.345 0-0.67757 0.30149-0.67757 0.79568zm0.24865-0.115c0.03108-0.3046 0.22379-0.47865 0.43514-0.47865 0.23622 0 0.37298 0.17095 0.37298 0.47865z"/><path d="m60.792-0.042433h0.25487v-0.96974c0.10257-0.25487 0.25487-0.34811 0.3823-0.34811 0.06216 0 0.09635 0.00932 0.14608 0.024865l0.04973-0.22379c-0.04973-0.021757-0.09635-0.031081-0.16162-0.031081-0.17095 0-0.32635 0.12122-0.42892 0.31081h-0.0093l-0.02176-0.27352h-0.21135z"/><path d="m61.916-0.50865c0 0.29838 0.10878 0.50352 0.43203 0.50352 0.09324 0 0.19581-0.027973 0.27973-0.055946l-0.04973-0.1927c-0.04973 0.018649-0.11811 0.040406-0.17095 0.040406-0.17406 0-0.23311-0.10568-0.23311-0.29216v-0.8392h0.40716v-0.20824h-0.40716v-0.42271h-0.21446l-0.03108 0.42271-0.23622 0.015541v0.1927h0.22378z"/><path d="m62.781-0.7946c0 0.49419 0.32014 0.78947 0.72419 0.78947 0.20514 0 0.36676-0.071487 0.4973-0.15541l-0.09014-0.16784c-0.11189 0.071487-0.23311 0.11811-0.37608 0.11811-0.28906 0-0.48487-0.20514-0.50352-0.53149h1.0195c0.0062-0.037298 0.0093-0.087028 0.0093-0.13987 0-0.43203-0.21757-0.70865-0.60298-0.70865-0.345 0-0.67757 0.30149-0.67757 0.79568zm0.24865-0.115c0.03108-0.3046 0.22379-0.47865 0.43514-0.47865 0.23622 0 0.37298 0.17095 0.37298 0.47865z"/><path d="m64.199-0.042433h0.2673l0.20514-0.35122c0.04973-0.093244 0.09946-0.18338 0.1523-0.27041h0.01243c0.05595 0.087028 0.11189 0.18027 0.16473 0.27041l0.22068 0.35122h0.27662l-0.49108-0.76149 0.4569-0.74906h-0.2673l-0.18338 0.33257c-0.04662 0.080811-0.09324 0.16784-0.13676 0.25176h-0.01243c-0.05284-0.08392-0.10257-0.17095-0.14919-0.25176l-0.20203-0.33257h-0.27662l0.4569 0.72109z"/><path d="m58.219 2.7852h0.26108v-0.91379h0.77703v-0.21757h-0.77703v-0.69h0.9169v-0.21757h-1.178z"/><path d="m59.566 2.0331c0 0.49419 0.32014 0.78946 0.72419 0.78946 0.20514 0 0.36676-0.071487 0.4973-0.15541l-0.09014-0.16784c-0.11189 0.071487-0.23311 0.11811-0.37608 0.11811-0.28906 0-0.48487-0.20514-0.50352-0.53149h1.0195c0.0062-0.037298 0.0093-0.087028 0.0093-0.13987 0-0.43203-0.21757-0.70865-0.60298-0.70865-0.345 0-0.67757 0.30149-0.67757 0.79568zm0.24865-0.115c0.03108-0.3046 0.22379-0.47865 0.43514-0.47865 0.23622 0 0.37298 0.17095 0.37298 0.47865z"/><path d="m61.221 2.319c0 0.29838 0.10878 0.50352 0.43203 0.50352 0.09324 0 0.19581-0.027973 0.27973-0.055946l-0.04973-0.1927c-0.04973 0.018649-0.11811 0.040406-0.17095 0.040406-0.17406 0-0.23311-0.10568-0.23311-0.29216v-0.8392h0.40716v-0.20824h-0.40716v-0.42271h-0.21446l-0.031081 0.42271-0.23622 0.015541v0.1927h0.22378z"/><path d="m62.086 2.0331c0 0.50041 0.3077 0.78946 0.70865 0.78946 0.18027 0 0.35433-0.074595 0.49108-0.19581l-0.115-0.16784c-0.09013 0.080811-0.21135 0.1523-0.35433 0.1523-0.27662 0-0.46622-0.23311-0.46622-0.57811 0-0.34811 0.19892-0.58433 0.47244-0.58433 0.12122 0 0.21446 0.055946 0.3046 0.13365l0.12743-0.16473c-0.10257-0.096352-0.24243-0.18027-0.44136-0.18027-0.38852 0-0.7273 0.28906-0.7273 0.79568z"/><path d="m63.612 2.7852h0.25487v-1.0941c0.1523-0.1523 0.25798-0.23311 0.41338-0.23311 0.19892 0 0.28595 0.12122 0.28595 0.40406v0.92311h0.25487v-0.9573c0-0.38541-0.14297-0.59054-0.46-0.59054-0.20824 0-0.36054 0.11189-0.50352 0.24865l0.0093-0.31081v-0.60298h-0.25487z"/></g><path d="m84.33 0.28876h1.8094" fill="#d2d6dc" stroke="#6f8ce9" stroke-dashoffset="1.2" stroke-miterlimit="40"/><g><path d="m70.58-2.8916h13.728v6.3509h-13.728z" fill="#2f3744" stroke="#7b8694"/><g fill="#e8eaec" aria-label="Vertex Shader"><path d="m73.903-0.042433h0.30149l0.64649-2.0389h-0.26419l-0.32635 1.1003c-0.06838 0.24243-0.12122 0.43514-0.19581 0.67446h-0.01243c-0.0746-0.23933-0.12432-0.43203-0.19581-0.67446l-0.32946-1.1003h-0.27352z"/><path d="m74.938-0.7946c0 0.49419 0.32014 0.78947 0.7242 0.78947 0.20514 0 0.36676-0.071487 0.4973-0.15541l-0.09014-0.16784c-0.11189 0.071487-0.23311 0.11811-0.37608 0.11811-0.28906 0-0.48487-0.20514-0.50352-0.53149h1.0195c0.0062-0.037298 0.0093-0.087028 0.0093-0.13987 0-0.43203-0.21757-0.70865-0.60298-0.70865-0.345 0-0.67757 0.30149-0.67757 0.79568zm0.24865-0.115c0.03108-0.3046 0.22378-0.47865 0.43514-0.47865 0.23622 0 0.37298 0.17095 0.37298 0.47865z"/><path d="m76.592-0.042433h0.25487v-0.96974c0.10257-0.25487 0.25487-0.34811 0.3823-0.34811 0.06216 0 0.09635 0.00932 0.14608 0.024865l0.04973-0.22379c-0.04973-0.021757-0.09635-0.031081-0.16162-0.031081-0.17095 0-0.32635 0.12122-0.42892 0.31081h-0.0093l-0.02176-0.27352h-0.21135z"/><path d="m77.716-0.50865c0 0.29838 0.10878 0.50352 0.43203 0.50352 0.09324 0 0.19581-0.027973 0.27973-0.055946l-0.04973-0.1927c-0.04973 0.018649-0.11811 0.040406-0.17095 0.040406-0.17406 0-0.23311-0.10568-0.23311-0.29216v-0.8392h0.40716v-0.20824h-0.40716v-0.42271h-0.21446l-0.03108 0.42271-0.23622 0.015541v0.1927h0.22379z"/><path d="m78.58-0.7946c0 0.49419 0.32014 0.78947 0.72419 0.78947 0.20514 0 0.36676-0.071487 0.4973-0.15541l-0.09014-0.16784c-0.11189 0.071487-0.23311 0.11811-0.37608 0.11811-0.28906 0-0.48487-0.20514-0.50352-0.53149h1.0195c0.0062-0.037298 0.0093-0.087028 0.0093-0.13987 0-0.43203-0.21757-0.70865-0.60298-0.70865-0.345 0-0.67757 0.30149-0.67757 0.79568zm0.24865-0.115c0.03108-0.3046 0.22379-0.47865 0.43514-0.47865 0.23622 0 0.37298 0.17095 0.37298 0.47865z"/><path d="m79.998-0.042433h0.2673l0.20514-0.35122c0.04973-0.093244 0.09946-0.18338 0.1523-0.27041h0.01243c0.05595 0.087028 0.11189 0.18027 0.16473 0.27041l0.22068 0.35122h0.27662l-0.49108-0.76149 0.4569-0.74906h-0.2673l-0.18338 0.33257c-0.04662 0.080811-0.09324 0.16784-0.13676 0.25176h-0.01243c-0.05284-0.08392-0.10257-0.17095-0.14919-0.25176l-0.20203-0.33257h-0.27662l0.4569 0.72109z"/><path d="m72.785 2.521c0.17716 0.18338 0.42581 0.30149 0.71176 0.30149 0.42892 0 0.69622-0.25797 0.69622-0.58122 0-0.30149-0.18338-0.44135-0.4196-0.54392l-0.29216-0.12433c-0.15852-0.068379-0.33879-0.14297-0.33879-0.33879 0-0.18338 0.1523-0.29838 0.3823-0.29838 0.18649 0 0.33879 0.074595 0.46311 0.1927l0.13676-0.16784c-0.14297-0.14919-0.35744-0.25176-0.59987-0.25176-0.36987 0-0.64338 0.23-0.64338 0.54081 0 0.29838 0.22379 0.44446 0.41338 0.52527l0.29216 0.12743c0.1927 0.087028 0.34189 0.1523 0.34189 0.36054 0 0.19892-0.15851 0.33257-0.42581 0.33257-0.21446 0-0.41649-0.10257-0.56257-0.25487z"/><path d="m74.561 2.7852h0.25487v-1.0941c0.1523-0.1523 0.25798-0.23311 0.41338-0.23311 0.19892 0 0.28595 0.12122 0.28595 0.40406v0.92311h0.25487v-0.9573c0-0.38541-0.14297-0.59054-0.46-0.59054-0.20824 0-0.36054 0.11189-0.50352 0.24865l0.0093-0.31081v-0.60298h-0.25487z"/><path d="m76.18 2.3936c0 0.27041 0.1896 0.42892 0.44446 0.42892 0.18649 0 0.35433-0.09946 0.50041-0.21757h0.0062l0.02176 0.18027h0.21135v-0.92622c0-0.37608-0.15541-0.62163-0.52527-0.62163-0.24243 0-0.45379 0.10568-0.59365 0.19581l0.10257 0.17716c0.11811-0.080811 0.27352-0.16162 0.45068-0.16162 0.24554 0 0.31081 0.18649 0.31081 0.37919-0.64338 0.071487-0.92933 0.23622-0.92933 0.56568zm0.25176-0.018649c0-0.1927 0.17095-0.31703 0.67757-0.37919v0.4196c-0.14608 0.13054-0.2673 0.20203-0.41338 0.20203-0.14919 0-0.26419-0.071487-0.26419-0.24243z"/><path d="m77.737 2.0331c0 0.50352 0.24554 0.78946 0.62473 0.78946 0.17716 0 0.33879-0.09946 0.4569-0.21446h0.0093l0.02176 0.17716h0.21135v-2.213h-0.25795v0.58122l0.012432 0.25797c-0.13365-0.10878-0.24865-0.17406-0.4227-0.17406-0.345 0-0.65582 0.3046-0.65582 0.79568zm0.26419-0.00311c0-0.345 0.1927-0.57811 0.43514-0.57811 0.12433 0 0.23933 0.043514 0.36676 0.15851v0.78946c-0.12432 0.13987-0.24554 0.20825-0.38541 0.20825-0.26419 0-0.41649-0.21757-0.41649-0.57811z"/><path d="m79.457 2.0331c0 0.49419 0.32014 0.78946 0.72419 0.78946 0.20514 0 0.36676-0.071487 0.4973-0.15541l-0.09014-0.16784c-0.11189 0.071487-0.23311 0.11811-0.37608 0.11811-0.28906 0-0.48487-0.20514-0.50352-0.53149h1.0195c0.0062-0.037298 0.0093-0.087028 0.0093-0.13987 0-0.43203-0.21757-0.70865-0.60298-0.70865-0.345 0-0.67757 0.30149-0.67757 0.79568zm0.24865-0.115c0.03108-0.3046 0.22379-0.47865 0.43514-0.47865 0.23622 0 0.37298 0.17095 0.37298 0.47865z"/><path d="m81.111 2.7852h0.25487v-0.96974c0.10257-0.25487 0.25487-0.34811 0.3823-0.34811 0.06216 0 0.09635 0.00932 0.14608 0.024865l0.04973-0.22379c-0.04973-0.021757-0.09635-0.031081-0.16162-0.031081-0.17095 0-0.32635 0.12122-0.42892 0.31081h-0.0093l-0.02176-0.27352h-0.21135z"/></g><path d="m86.121-2.8916h13.728v6.3509h-13.728z" fill="#2f3744" stroke="#7b8694"/><g fill="#e8eaec" aria-label="H/D/G Shaders"><path d="m89.14-0.042433h0.26108v-0.96041h0.94798v0.96041h0.25797v-2.0389h-0.25797v0.85474h-0.94798v-0.85474h-0.26108z"/><path d="m90.91 0.45487h0.1896l0.82676-2.7041h-0.18649z"/><path d="m92.236-0.042433h0.52217c0.61541 0 0.95109-0.37919 0.95109-1.0288 0-0.64649-0.33568-1.0101-0.96352-1.0101h-0.50973zm0.26108-0.21135v-1.6162h0.23c0.47865 0 0.71487 0.28595 0.71487 0.79879 0 0.51595-0.23622 0.81744-0.71487 0.81744z"/><path d="m93.854 0.45487h0.1896l0.82676-2.7041h-0.18649z"/><path d="m95.062-1.0619c0 0.66514 0.3823 1.0568 0.9169 1.0568 0.27352 0 0.50041-0.10568 0.63406-0.23622v-0.85784h-0.66825v0.21446h0.43203v0.53149c-0.08081 0.074595-0.22379 0.12122-0.36987 0.12122-0.43514 0-0.67757-0.32325-0.67757-0.83609 0-0.50663 0.26419-0.82365 0.67757-0.82365 0.20203 0 0.32946 0.080811 0.43203 0.1896l0.14919-0.16473c-0.12122-0.12433-0.3077-0.25176-0.58433-0.25176-0.54703 0-0.94176 0.40095-0.94176 1.0568z"/><path d="m87.689 2.521c0.17716 0.18338 0.42581 0.30149 0.71176 0.30149 0.42892 0 0.69622-0.25797 0.69622-0.58122 0-0.30149-0.18338-0.44135-0.4196-0.54392l-0.29216-0.12433c-0.15851-0.068379-0.33879-0.14297-0.33879-0.33879 0-0.18338 0.1523-0.29838 0.3823-0.29838 0.18649 0 0.33879 0.074595 0.46311 0.1927l0.13676-0.16784c-0.14297-0.14919-0.35744-0.25176-0.59987-0.25176-0.36987 0-0.64338 0.23-0.64338 0.54081 0 0.29838 0.22378 0.44446 0.41338 0.52527l0.29216 0.12743c0.1927 0.087028 0.34189 0.1523 0.34189 0.36054 0 0.19892-0.15852 0.33257-0.42581 0.33257-0.21446 0-0.41649-0.10257-0.56257-0.25487z"/><path d="m89.464 2.7852h0.25487v-1.0941c0.1523-0.1523 0.25797-0.23311 0.41338-0.23311 0.19892 0 0.28595 0.12122 0.28595 0.40406v0.92311h0.25487v-0.9573c0-0.38541-0.14297-0.59054-0.46-0.59054-0.20824 0-0.36054 0.11189-0.50352 0.24865l0.0093-0.31081v-0.60298h-0.25487z"/><path d="m91.083 2.3936c0 0.27041 0.1896 0.42892 0.44446 0.42892 0.18649 0 0.35433-0.09946 0.50041-0.21757h0.0062l0.02176 0.18027h0.21135v-0.92622c0-0.37608-0.15541-0.62163-0.52527-0.62163-0.24243 0-0.45379 0.10568-0.59365 0.19581l0.10257 0.17716c0.11811-0.080811 0.27352-0.16162 0.45068-0.16162 0.24554 0 0.31081 0.18649 0.31081 0.37919-0.64338 0.071487-0.92933 0.23622-0.92933 0.56568zm0.25176-0.018649c0-0.1927 0.17095-0.31703 0.67757-0.37919v0.4196c-0.14608 0.13054-0.2673 0.20203-0.41338 0.20203-0.14919 0-0.26419-0.071487-0.26419-0.24243z"/><path d="m92.64 2.0331c0 0.50352 0.24554 0.78946 0.62473 0.78946 0.17716 0 0.33879-0.09946 0.4569-0.21446h0.0093l0.02176 0.17716h0.21135v-2.213h-0.25798v0.58122l0.01243 0.25797c-0.13365-0.10878-0.24865-0.17406-0.42271-0.17406-0.345 0-0.65582 0.3046-0.65582 0.79568zm0.26419-0.00311c0-0.345 0.1927-0.57811 0.43514-0.57811 0.12432 0 0.23933 0.043514 0.36676 0.15851v0.78946c-0.12432 0.13987-0.24554 0.20825-0.38541 0.20825-0.26419 0-0.41649-0.21757-0.41649-0.57811z"/><path d="m94.361 2.0331c0 0.49419 0.32014 0.78946 0.72419 0.78946 0.20514 0 0.36676-0.071487 0.4973-0.15541l-0.09014-0.16784c-0.11189 0.071487-0.23311 0.11811-0.37608 0.11811-0.28906 0-0.48487-0.20514-0.50352-0.53149h1.0195c0.0062-0.037298 0.0093-0.087028 0.0093-0.13987 0-0.43203-0.21757-0.70865-0.60298-0.70865-0.345 0-0.67757 0.30149-0.67757 0.79568zm0.24865-0.115c0.03108-0.3046 0.22378-0.47865 0.43514-0.47865 0.23622 0 0.37298 0.17095 0.37298 0.47865z"/><path d="m96.015 2.7852h0.25487v-0.96974c0.10257-0.25487 0.25487-0.34811 0.3823-0.34811 0.06216 0 0.09635 0.00932 0.14608 0.024865l0.04973-0.22379c-0.04973-0.021757-0.09635-0.031081-0.16162-0.031081-0.17095 0-0.32635 0.12122-0.42892 0.31081h-0.0093l-0.02176-0.27352h-0.21135z"/><path d="m96.897 2.6143c0.14297 0.11811 0.34811 0.20824 0.56257 0.20824 0.35744 0 0.55325-0.20514 0.55325-0.45068 0-0.28595-0.24243-0.37608-0.46-0.4569-0.17095-0.065271-0.33568-0.12122-0.33568-0.26108 0-0.115 0.08703-0.21757 0.27662-0.21757 0.13365 0 0.24244 0.055946 0.345 0.13365l0.12122-0.16162c-0.115-0.093244-0.27973-0.17095-0.46933-0.17095-0.32635 0-0.51906 0.18649-0.51906 0.42892 0 0.25487 0.23622 0.35743 0.45068 0.43514 0.16473 0.062163 0.345 0.13054 0.345 0.28595 0 0.13054-0.09946 0.23622-0.29838 0.23622-0.18027 0-0.31392-0.074595-0.44446-0.18027z"/></g></g><path d="m115.41 0.28876h1.8094" fill="#d2d6dc" stroke="#6f8ce9" stroke-dashoffset="1.2" stroke-miterlimit="40"/><path d="m101.66-2.8916h13.728v6.3509h-13.728z" fill="#2f3744" stroke="#7b8694"/><g fill="#e8eaec" aria-label="Rasterizer"><path d="m102.55-0.57807h0.34189c0.31703 0 0.49109 0.096352 0.49109 0.36365 0 0.26419-0.17406 0.39473-0.49109 0.39473h-0.34189zm1.1531 1.8307-0.51905-0.88893c0.27662-0.071487 0.45689-0.26108 0.45689-0.57811 0-0.42271-0.29838-0.5719-0.71176-0.5719h-0.64028v2.0389h0.26109v-0.86095h0.36676l0.49108 0.86095z"/><path d="m103.96 0.861c0 0.27041 0.1896 0.42892 0.44447 0.42892 0.18648 0 0.35432-0.09946 0.5004-0.21757h6e-3l0.0218 0.18027h0.21135v-0.92622c0-0.37608-0.15541-0.62163-0.52527-0.62163-0.24244 0-0.45379 0.10568-0.59366 0.19581l0.10257 0.17716c0.11811-0.080811 0.27352-0.16162 0.45068-0.16162 0.24554 0 0.31081 0.18649 0.31081 0.37919-0.64338 0.071487-0.92933 0.23622-0.92933 0.56568zm0.25176-0.018649c0-0.1927 0.17095-0.31703 0.67757-0.37919v0.4196c-0.14608 0.13054-0.2673 0.20203-0.41338 0.20203-0.14919 0-0.26419-0.071487-0.26419-0.24243z"/><path d="m105.46 1.0817c0.14297 0.11811 0.34811 0.20824 0.56257 0.20824 0.35743 0 0.55325-0.20514 0.55325-0.45068 0-0.28595-0.24244-0.37608-0.46001-0.4569-0.17094-0.065271-0.33568-0.12122-0.33568-0.26108 0-0.115 0.087-0.21757 0.27663-0.21757 0.13365 0 0.24243 0.055946 0.345 0.13365l0.12122-0.16162c-0.115-0.093244-0.27973-0.17095-0.46933-0.17095-0.32635 0-0.51906 0.18649-0.51906 0.42892 0 0.25487 0.23622 0.35743 0.45068 0.43514 0.16473 0.062163 0.345 0.13054 0.345 0.28595 0 0.13054-0.0995 0.23622-0.29838 0.23622-0.18027 0-0.31392-0.074595-0.44446-0.18027z"/><path d="m106.97 0.7864c0 0.29838 0.10879 0.50352 0.43203 0.50352 0.0932 0 0.19581-0.027973 0.27973-0.055946l-0.0497-0.1927c-0.0497 0.018649-0.11811 0.040406-0.17094 0.040406-0.17406 0-0.23311-0.10568-0.23311-0.29216v-0.8392h0.40716v-0.20825h-0.40716v-0.42271h-0.21446l-0.0311 0.42271-0.23621 0.015541v0.1927h0.22378z"/><path d="m107.84 0.50045c0 0.49419 0.32014 0.78946 0.72419 0.78946 0.20514 0 0.36676-0.071487 0.49731-0.15541l-0.0901-0.16784c-0.11189 0.071487-0.23311 0.11811-0.37608 0.11811-0.28906 0-0.48487-0.20514-0.50352-0.53149h1.0195c6e-3 -0.037298 9e-3 -0.087028 9e-3 -0.13987 0-0.43203-0.21757-0.70865-0.60298-0.70865-0.345 0-0.67757 0.30149-0.67757 0.79568zm0.24865-0.115c0.0311-0.3046 0.22379-0.47865 0.43514-0.47865 0.23622 0 0.37297 0.17095 0.37297 0.47865z"/><path d="m109.49 1.2526h0.25486v-0.96974c0.10257-0.25487 0.25487-0.34811 0.3823-0.34811 0.0622 0 0.0964 0.0093244 0.14609 0.024865l0.0497-0.22379c-0.0497-0.021757-0.0964-0.031081-0.16163-0.031081-0.17094 0-0.32635 0.12122-0.42892 0.31081h-9e-3l-0.02205-0.27352h-0.21135z"/><path d="m110.7-0.56874c0.0995 0 0.17716-0.068379 0.17716-0.16473 0-0.09946-0.0777-0.16473-0.17716-0.16473-0.0995 0-0.17716 0.065271-0.17716 0.16473 0 0.096352 0.0777 0.16473 0.17716 0.16473zm-0.13054 1.8214h0.25486v-1.5106h-0.25486z"/><path d="m111.18 1.2526h1.1438v-0.20824h-0.82055l0.79568-1.1655v-0.13676h-1.0319v0.20824h0.70866l-0.79569 1.1655z"/><path d="m112.52 0.50045c0 0.49419 0.32013 0.78946 0.72419 0.78946 0.20514 0 0.36676-0.071487 0.4973-0.15541l-0.0901-0.16784c-0.1119 0.071487-0.23311 0.11811-0.37609 0.11811-0.28905 0-0.48487-0.20514-0.50351-0.53149h1.0195c6e-3 -0.037298 9e-3 -0.087028 9e-3 -0.13987 0-0.43203-0.21757-0.70865-0.60298-0.70865-0.345 0-0.67757 0.30149-0.67757 0.79568zm0.24865-0.115c0.0311-0.3046 0.22378-0.47865 0.43514-0.47865 0.23621 0 0.37297 0.17095 0.37297 0.47865z"/><path d="m114.17 1.2526h0.25487v-0.96974c0.10257-0.25487 0.25487-0.34811 0.3823-0.34811 0.0622 0 0.0964 0.0093244 0.14608 0.024865l0.0497-0.22379c-0.0497-0.021757-0.0964-0.031081-0.16162-0.031081-0.17095 0-0.32635 0.12122-0.42892 0.31081h-9e-3l-0.02205-0.27352h-0.21136z"/></g><path d="m130.95 0.28876h1.8094" fill="#d2d6dc" stroke="#6f8ce9" stroke-dashoffset="1.2" stroke-miterlimit="40"/><g><path d="m117.2-2.8916h13.728v6.3509h-13.728z" fill="#2f3744" stroke="#7b8694"/><g fill="#e8eaec" aria-label="Pixel Shader"><path d="m121.09-0.042433h0.26108v-0.80811h0.36676c0.44446 0 0.75217-0.20203 0.75217-0.63095 0-0.44757-0.30149-0.59987-0.75217-0.59987h-0.62784zm0.26108-1.0195v-0.81122h0.33257c0.35122 0 0.52838 0.096352 0.52838 0.39162 0 0.28906-0.17094 0.4196-0.52838 0.4196z"/><path d="m122.98-1.8638c0.0995 0 0.17717-0.068379 0.17717-0.16473 0-0.09946-0.0777-0.16473-0.17717-0.16473-0.0995 0-0.17716 0.065271-0.17716 0.16473 0 0.096352 0.0777 0.16473 0.17716 0.16473zm-0.13054 1.8214h0.25487v-1.5106h-0.25487z"/><path d="m123.4-0.042433h0.2673l0.20514-0.35122c0.0497-0.093244 0.0995-0.18338 0.1523-0.27041h0.0124c0.0559 0.087028 0.11189 0.18027 0.16473 0.27041l0.22068 0.35122h0.27662l-0.49108-0.76149 0.45689-0.74906h-0.2673l-0.18338 0.33257c-0.0466 0.080811-0.0932 0.16784-0.13676 0.25176h-0.0124c-0.0528-0.08392-0.10257-0.17095-0.14919-0.25176l-0.20203-0.33257h-0.27662l0.45689 0.72109z"/><path d="m124.83-0.7946c0 0.49419 0.32013 0.78947 0.72419 0.78947 0.20514 0 0.36676-0.071487 0.4973-0.15541l-0.0901-0.16784c-0.1119 0.071487-0.23311 0.11811-0.37609 0.11811-0.28905 0-0.48487-0.20514-0.50352-0.53149h1.0195c6e-3 -0.037298 9e-3 -0.087028 9e-3 -0.13987 0-0.43203-0.21757-0.70865-0.60298-0.70865-0.345 0-0.67757 0.30149-0.67757 0.79568zm0.24865-0.115c0.0311-0.3046 0.22378-0.47865 0.43513-0.47865 0.23622 0 0.37298 0.17095 0.37298 0.47865z"/><path d="m126.48-0.34703c0 0.22068 0.0777 0.34189 0.27041 0.34189 0.0684 0 0.11189-0.0093244 0.14608-0.024865l-0.0342-0.1927c-0.028 0.006216-0.0404 0.006216-0.0559 0.006216-0.0373 0-0.0715-0.031081-0.0715-0.11189v-1.927h-0.25487z"/><path d="m119.41 2.521c0.17717 0.18338 0.42582 0.30149 0.71176 0.30149 0.42893 0 0.69623-0.25797 0.69623-0.58122 0-0.30149-0.18338-0.44135-0.4196-0.54392l-0.29217-0.12433c-0.15851-0.068379-0.33878-0.14297-0.33878-0.33879 0-0.18338 0.1523-0.29838 0.3823-0.29838 0.18649 0 0.33878 0.074595 0.46311 0.1927l0.13676-0.16784c-0.14298-0.14919-0.35744-0.25176-0.59987-0.25176-0.36987 0-0.64338 0.23-0.64338 0.54081 0 0.29838 0.22378 0.44446 0.41338 0.52527l0.29216 0.12743c0.1927 0.087028 0.34189 0.1523 0.34189 0.36054 0 0.19892-0.15851 0.33257-0.42581 0.33257-0.21446 0-0.41649-0.10257-0.56257-0.25487z"/><path d="m121.18 2.7852h0.25486v-1.0941c0.1523-0.1523 0.25798-0.23311 0.41339-0.23311 0.19892 0 0.28594 0.12122 0.28594 0.40406v0.92311h0.25487v-0.9573c0-0.38541-0.14297-0.59054-0.46-0.59054-0.20825 0-0.36055 0.11189-0.50352 0.24865l9e-3 -0.31081v-0.60298h-0.25486z"/><path d="m122.8 2.3936c0 0.27041 0.1896 0.42892 0.44446 0.42892 0.18649 0 0.35433-0.09946 0.50041-0.21757h6e-3l0.0218 0.18027h0.21135v-0.92622c0-0.37608-0.15541-0.62163-0.52528-0.62163-0.24243 0-0.45378 0.10568-0.59365 0.19581l0.10257 0.17716c0.11811-0.080811 0.27352-0.16162 0.45068-0.16162 0.24554 0 0.31081 0.18649 0.31081 0.37919-0.64338 0.071487-0.92933 0.23622-0.92933 0.56568zm0.25176-0.018649c0-0.1927 0.17095-0.31703 0.67757-0.37919v0.4196c-0.14608 0.13054-0.2673 0.20203-0.41338 0.20203-0.14919 0-0.26419-0.071487-0.26419-0.24243z"/><path d="m124.36 2.0331c0 0.50352 0.24554 0.78946 0.62473 0.78946 0.17717 0 0.33879-0.09946 0.4569-0.21446h9e-3l0.0218 0.17716h0.21135v-2.213h-0.25797v0.58122l0.0124 0.25797c-0.13365-0.10878-0.24865-0.17406-0.4227-0.17406-0.34501 0-0.65582 0.3046-0.65582 0.79568zm0.26419-0.00311c0-0.345 0.1927-0.57811 0.43514-0.57811 0.12432 0 0.23932 0.043514 0.36676 0.15851v0.78946c-0.12433 0.13987-0.24554 0.20824-0.38541 0.20824-0.26419 0-0.41649-0.21757-0.41649-0.57811z"/><path d="m126.08 2.0331c0 0.49419 0.32014 0.78946 0.7242 0.78946 0.20513 0 0.36676-0.071487 0.4973-0.15541l-0.0901-0.16784c-0.11189 0.071487-0.23311 0.11811-0.37608 0.11811-0.28906 0-0.48487-0.20514-0.50352-0.53149h1.0195c6e-3 -0.037298 9e-3 -0.087028 9e-3 -0.13987 0-0.43203-0.21757-0.70865-0.60298-0.70865-0.345 0-0.67757 0.30149-0.67757 0.79568zm0.24865-0.115c0.0311-0.3046 0.22379-0.47865 0.43514-0.47865 0.23622 0 0.37298 0.17095 0.37298 0.47865z"/><path d="m127.73 2.7852h0.25487v-0.96974c0.10256-0.25487 0.25486-0.34811 0.3823-0.34811 0.0622 0 0.0964 0.00932 0.14608 0.024865l0.0497-0.22379c-0.0497-0.021757-0.0964-0.031081-0.16162-0.031081-0.17095 0-0.32636 0.12122-0.42893 0.31081h-9e-3l-0.0218-0.27352h-0.21135z"/></g><path d="m132.74-2.8916h13.728v6.3509h-13.728z" fill="#2f3744" stroke="#7b8694"/><g fill="#e8eaec" aria-label="ROP"><path d="m137.19-0.57807h0.3419c0.31703 0 0.49108 0.096352 0.49108 0.36365 0 0.26419-0.17405 0.39473-0.49108 0.39473h-0.3419zm1.1531 1.8307-0.51906-0.88893c0.27663-0.071487 0.4569-0.26108 0.4569-0.57811 0-0.42271-0.29838-0.5719-0.71176-0.5719h-0.64028v2.0389h0.26108v-0.86095h0.36676l0.49109 0.86095z"/><path d="m139.47 1.2899c0.50974 0 0.87028-0.41027 0.87028-1.0661 0-0.6496-0.36054-1.0474-0.87028-1.0474-0.51284 0-0.87338 0.39473-0.87338 1.0474 0 0.65582 0.36054 1.0661 0.87338 1.0661zm0-0.22689c-0.36676 0-0.60608-0.32946-0.60608-0.8392 0-0.50663 0.23932-0.82055 0.60608-0.82055 0.36365 0 0.60298 0.31392 0.60298 0.82055 0 0.50973-0.23933 0.8392-0.60298 0.8392z"/><path d="m140.76 1.2526h0.26108v-0.80811h0.36676c0.44446 0 0.75217-0.20203 0.75217-0.63095 0-0.44757-0.30149-0.59987-0.75217-0.59987h-0.62784zm0.26108-1.0195v-0.81122h0.33257c0.35122 0 0.52838 0.096352 0.52838 0.39162 0 0.28906-0.17094 0.4196-0.52838 0.4196z"/></g><path d="m55.04 7.7279h91.431v6.3509h-91.431z" fill="#2f3744" stroke="#7b8694"/><path d="m55.04 18.088h91.431v6.3509h-91.431z" fill="#2f3744" stroke="#7b8694"/><g fill="#e8eaec" aria-label="L1 &amp; L2 Caches"><path d="m91.437 12.39h1.15v-0.22068h-0.88892v-1.8183h-0.26108z"/><path d="m92.905 12.39h1.1189v-0.21135h-0.41027v-1.7716h-0.19581c-0.10878 0.06527-0.23933 0.115-0.4196 0.14608v0.16473h0.36054v1.4608h-0.45379z"/><path d="m95.175 11.846c0-0.15851 0.11189-0.27973 0.25487-0.39473 0.14297 0.21757 0.33568 0.43203 0.5346 0.60608-0.11811 0.10257-0.24865 0.16473-0.38852 0.16473-0.22378 0-0.40095-0.14919-0.40095-0.37608zm0.23933-1.0537c0-0.16784 0.09946-0.29527 0.25176-0.29527 0.13676 0 0.1927 0.10568 0.1927 0.22378 0 0.18027-0.16162 0.3046-0.34811 0.42892-0.05906-0.12432-0.09635-0.24554-0.09635-0.35744zm1.2588 1.4235c-0.11189-0.03108-0.24243-0.09946-0.3823-0.19581 0.16162-0.21446 0.27662-0.46311 0.35744-0.73041h-0.23933c-0.06216 0.23311-0.16162 0.43514-0.28595 0.60298-0.1927-0.16162-0.3823-0.36365-0.51595-0.5719 0.22689-0.16473 0.46-0.33568 0.46-0.60298 0-0.23933-0.14919-0.40406-0.40095-0.40406-0.28284 0-0.47244 0.21135-0.47244 0.48176 0 0.14919 0.04973 0.31081 0.13365 0.47865-0.20824 0.14297-0.40095 0.31392-0.40095 0.58744 0 0.32946 0.25176 0.56568 0.62163 0.56568 0.23933 0 0.43203-0.09324 0.58744-0.23311 0.16473 0.115 0.32635 0.1927 0.46933 0.23311z"/><path d="m97.617 12.39h1.15v-0.22068h-0.88893v-1.8183h-0.26108z"/><path d="m98.964 12.39h1.2806v-0.22068h-0.57501c-0.10257 0-0.22378 0.0093-0.33257 0.01865 0.46933-0.49108 0.80812-0.86095 0.80812-1.2339 0-0.35122-0.2269-0.58433-0.59366-0.58433-0.25798 0-0.43514 0.12122-0.59987 0.30149l0.14608 0.14608c0.115-0.13365 0.25798-0.23933 0.42271-0.23933 0.25176 0 0.37608 0.16162 0.37608 0.38852 0 0.32014-0.33568 0.67757-0.93244 1.2712z"/><path d="m101.16 11.371c0 0.66514 0.3823 1.0568 0.89515 1.0568 0.25797 0 0.46-0.10878 0.61851-0.29527l-0.14608-0.15852c-0.13054 0.14608-0.27351 0.22689-0.46622 0.22689-0.38851 0-0.63406-0.32325-0.63406-0.83609 0-0.50662 0.25798-0.82365 0.64649-0.82365 0.16784 0 0.29838 0.07459 0.40717 0.1896l0.14608-0.16473c-0.12122-0.13365-0.31392-0.25176-0.55635-0.25176-0.52217 0-0.91069 0.40095-0.91069 1.0568z"/><path d="m102.95 11.998c0 0.27041 0.1896 0.42892 0.44446 0.42892 0.18649 0 0.35433-0.09946 0.50041-0.21757h6e-3l0.0218 0.18027h0.21135v-0.92622c0-0.37608-0.15541-0.62163-0.52528-0.62163-0.24243 0-0.45378 0.10568-0.59365 0.19581l0.10257 0.17716c0.11811-0.08081 0.27352-0.16162 0.45068-0.16162 0.24554 0 0.31081 0.18649 0.31081 0.37919-0.64338 0.07149-0.92933 0.23622-0.92933 0.56568zm0.25176-0.01865c0-0.1927 0.17095-0.31703 0.67757-0.37919v0.4196c-0.14608 0.13054-0.2673 0.20203-0.41338 0.20203-0.14919 0-0.26419-0.07149-0.26419-0.24243z"/><path d="m104.5 11.638c0 0.50041 0.30771 0.78946 0.70866 0.78946 0.18027 0 0.35432-0.0746 0.49108-0.19581l-0.115-0.16784c-0.0901 0.08081-0.21135 0.1523-0.35433 0.1523-0.27662 0-0.46622-0.23311-0.46622-0.57811 0-0.34811 0.19892-0.58433 0.47244-0.58433 0.12122 0 0.21446 0.05595 0.3046 0.13365l0.12743-0.16473c-0.10257-0.09635-0.24244-0.18027-0.44136-0.18027-0.38851 0-0.7273 0.28906-0.7273 0.79568z"/><path d="m106.03 12.39h0.25486v-1.0941c0.1523-0.1523 0.25798-0.23311 0.41338-0.23311 0.19892 0 0.28595 0.12122 0.28595 0.40406v0.92312h0.25487v-0.9573c0-0.38541-0.14297-0.59054-0.46-0.59054-0.20825 0-0.36055 0.11189-0.50352 0.24865l9e-3 -0.31081v-0.60298h-0.25486z"/><path d="m107.61 11.638c0 0.49419 0.32014 0.78946 0.7242 0.78946 0.20513 0 0.36676-0.07149 0.4973-0.15541l-0.0901-0.16784c-0.11189 0.07149-0.23311 0.11811-0.37608 0.11811-0.28906 0-0.48487-0.20514-0.50352-0.53149h1.0195c6e-3 -0.0373 9e-3 -0.08703 9e-3 -0.13987 0-0.43203-0.21757-0.70865-0.60298-0.70865-0.345 0-0.67757 0.30149-0.67757 0.79568zm0.24865-0.115c0.0311-0.3046 0.22379-0.47865 0.43514-0.47865 0.23622 0 0.37298 0.17095 0.37298 0.47865z"/><path d="m109.09 12.219c0.14297 0.11811 0.34811 0.20824 0.56257 0.20824 0.35744 0 0.55325-0.20514 0.55325-0.45068 0-0.28595-0.24244-0.37608-0.46001-0.4569-0.17094-0.06527-0.33567-0.12122-0.33567-0.26108 0-0.115 0.087-0.21757 0.27662-0.21757 0.13365 0 0.24243 0.05595 0.345 0.13365l0.12122-0.16162c-0.115-0.09324-0.27973-0.17095-0.46933-0.17095-0.32635 0-0.51906 0.18649-0.51906 0.42892 0 0.25487 0.23622 0.35744 0.45068 0.43514 0.16473 0.06216 0.34501 0.13054 0.34501 0.28595 0 0.13054-0.0995 0.23622-0.29838 0.23622-0.18028 0-0.31393-0.0746-0.44447-0.18027z"/></g><g fill="#e8eaec" aria-label="DRAM"><path d="m97.222 22.233h0.52216c0.61541 0 0.95109-0.37919 0.95109-1.0288 0-0.64649-0.33568-1.0101-0.96352-1.0101h-0.50973zm0.26108-0.21135v-1.6162h0.23c0.47865 0 0.71487 0.28595 0.71487 0.79879 0 0.51595-0.23622 0.81744-0.71487 0.81744z"/><path d="m99.383 20.402h0.34189c0.31703 0 0.49108 0.09635 0.49108 0.36365 0 0.26419-0.17405 0.39473-0.49108 0.39473h-0.34189zm1.1531 1.8307-0.51906-0.88892c0.27663-0.07149 0.4569-0.26108 0.4569-0.57811 0-0.42271-0.29838-0.5719-0.71176-0.5719h-0.64028v2.0389h0.26108v-0.86095h0.36676l0.49109 0.86095z"/><path d="m101.14 21.403 0.0995-0.31081c0.0715-0.22689 0.13676-0.45068 0.20203-0.6869h0.0124c0.0653 0.23622 0.13055 0.46 0.20203 0.6869l0.0964 0.31081zm0.87339 0.82987h0.27351l-0.69-2.0389h-0.29217l-0.69 2.0389h0.26419l0.19581-0.62163h0.74285z"/><path d="m102.55 22.233h0.23933v-1.122c0-0.18027-0.0186-0.42271-0.0311-0.60298h0.0124l0.16162 0.45379 0.39163 1.0661h0.14919l0.39162-1.0661 0.16162-0.45379h0.0124c-0.0124 0.18027-0.0342 0.4227-0.0342 0.60298v1.122h0.24554v-2.0389h-0.3046l-0.39162 1.0941-0.14298 0.41649h-0.0124l-0.14608-0.41649-0.39473-1.0941h-0.30771z"/></g></g><path d="m146.75 0.28876h20.458" fill="#d2d6dc" stroke="#6f8ce9" stroke-dashoffset="1.2" stroke-miterlimit="40"/></g><g transform="matrix(.0041473 0 0 .0042183 165.83 -.91957)" fill="#6f8ce9" stroke-width="123.85"><g fill="#6f8ce9" stroke-width="123.85"><path d="m486.41 221.41-364.07-208.5c-52.938-30.318-95.852-5.44-95.852 55.563v415.65c0 61.004 42.914 85.882 95.852 55.563l364.07-208.49c52.938-30.317 52.938-79.473 0-109.79z" fill="#6f8ce9" stroke-width="123.85"/></g></g><g fill="#e8eaec" stroke-linecap="round" stroke-width=".25901" aria-label="Rendering Buffer"><path d="m151.45-2.6502h0.34189c0.31703 0 0.49109 0.096352 0.49109 0.36365 0 0.26419-0.17406 0.39473-0.49109 0.39473h-0.34189zm1.1531 1.8307-0.51906-0.88893c0.27662-0.071487 0.45689-0.26108 0.45689-0.57811 0-0.42271-0.29838-0.5719-0.71176-0.5719h-0.64027v2.0389h0.26108v-0.86095h0.36676l0.49108 0.86095z"/><path d="m152.82-1.5716c0 0.49419 0.32014 0.78947 0.72419 0.78947 0.20514 0 0.36676-0.071487 0.4973-0.15541l-0.0901-0.16784c-0.1119 0.071487-0.23311 0.11811-0.37609 0.11811-0.28905 0-0.48486-0.20514-0.50351-0.53149h1.0195c6e-3 -0.037297 9e-3 -0.087028 9e-3 -0.13987 0-0.43203-0.21757-0.70865-0.60298-0.70865-0.345 0-0.67757 0.30149-0.67757 0.79568zm0.24865-0.115c0.0311-0.3046 0.22378-0.47865 0.43514-0.47865 0.23621 0 0.37297 0.17095 0.37297 0.47865z"/><path d="m154.48-0.81947h0.25487v-1.0941c0.1523-0.1523 0.25798-0.23311 0.41338-0.23311 0.19892 0 0.28595 0.12122 0.28595 0.40406v0.92311h0.25487v-0.9573c0-0.38541-0.14298-0.59054-0.46001-0.59054-0.20824 0-0.36365 0.11189-0.50662 0.25487h-9e-3l-0.0217-0.21757h-0.21136z"/><path d="m156.07-1.5716c0 0.50352 0.24554 0.78947 0.62473 0.78947 0.17717 0 0.33879-0.09946 0.4569-0.21446h9e-3l0.0218 0.17716h0.21135v-2.213h-0.25797v0.58122l0.0124 0.25797c-0.13365-0.10878-0.24865-0.17406-0.42271-0.17406-0.345 0-0.65581 0.3046-0.65581 0.79568zm0.26419-0.00311c0-0.345 0.1927-0.57811 0.43514-0.57811 0.12432 0 0.23932 0.043514 0.36676 0.15851v0.78947c-0.12433 0.13987-0.24555 0.20824-0.38541 0.20824-0.26419 0-0.41649-0.21757-0.41649-0.57811z"/><path d="m157.79-1.5716c0 0.49419 0.32014 0.78947 0.7242 0.78947 0.20513 0 0.36675-0.071487 0.4973-0.15541l-0.0901-0.16784c-0.11189 0.071487-0.23311 0.11811-0.37608 0.11811-0.28906 0-0.48487-0.20514-0.50352-0.53149h1.0195c6e-3 -0.037297 9e-3 -0.087028 9e-3 -0.13987 0-0.43203-0.21757-0.70865-0.60298-0.70865-0.345 0-0.67757 0.30149-0.67757 0.79568zm0.24865-0.115c0.0311-0.3046 0.22379-0.47865 0.43514-0.47865 0.23622 0 0.37298 0.17095 0.37298 0.47865z"/><path d="m159.44-0.81947h0.25486v-0.96974c0.10257-0.25487 0.25487-0.34811 0.3823-0.34811 0.0622 0 0.0964 0.00932 0.14609 0.024865l0.0497-0.22379c-0.0497-0.021757-0.0964-0.031081-0.16163-0.031081-0.17094 0-0.32635 0.12122-0.42892 0.31081h-9e-3l-0.0218-0.27352h-0.21135z"/><path d="m160.65-2.6408c0.0995 0 0.17716-0.068379 0.17716-0.16473 0-0.09946-0.0777-0.16473-0.17716-0.16473-0.0995 0-0.17716 0.065271-0.17716 0.16473 0 0.096352 0.0777 0.16473 0.17716 0.16473zm-0.13054 1.8214h0.25486v-1.5106h-0.25486z"/><path d="m161.29-0.81947h0.25487v-1.0941c0.15229-0.1523 0.25797-0.23311 0.41338-0.23311 0.19892 0 0.28595 0.12122 0.28595 0.40406v0.92311h0.25486v-0.9573c0-0.38541-0.14297-0.59054-0.46-0.59054-0.20825 0-0.36365 0.11189-0.50663 0.25487h-9e-3l-0.0218-0.21757h-0.21135z"/><path d="m163.1-0.5646c0-0.087028 0.0466-0.17716 0.15541-0.25487 0.0653 0.018649 0.13676 0.024865 0.19581 0.024865h0.26108c0.19582 0 0.3046 0.046622 0.3046 0.18649 0 0.15851-0.18959 0.3077-0.47865 0.3077-0.27352 0-0.43825-0.10257-0.43825-0.26419zm-0.22378 0.034189c0 0.26108 0.25486 0.40717 0.62473 0.40717 0.46933 0 0.7646-0.24243 0.7646-0.52217 0-0.25176-0.17716-0.36054-0.52838-0.36054h-0.29216c-0.20514 0-0.2673-0.068379-0.2673-0.16473 0-0.083919 0.0435-0.13365 0.0964-0.18027 0.0684 0.034189 0.1523 0.052838 0.22689 0.052838 0.30771 0 0.55325-0.20203 0.55325-0.52527 0-0.12743-0.0528-0.24243-0.12433-0.31081h0.31082v-0.19581h-0.52528c-0.0559-0.021757-0.13054-0.037298-0.21446-0.037298-0.3077 0-0.56879 0.20824-0.56879 0.53771 0 0.18027 0.0964 0.32635 0.19582 0.40717v0.012433c-0.0777 0.052838-0.16473 0.1523-0.16473 0.27973 0 0.11811 0.059 0.19892 0.13364 0.24554v0.012432c-0.13675 0.093244-0.22067 0.21446-0.22067 0.34189zm0.62473-0.93866c-0.17405 0-0.32014-0.13987-0.32014-0.36054 0-0.22068 0.14298-0.35122 0.32014-0.35122 0.17717 0 0.32014 0.13054 0.32014 0.35122 0 0.22068-0.14608 0.36054-0.32014 0.36054z"/><path d="m153.94 3.0961h0.65271c0.45378 0 0.77081-0.19581 0.77081-0.59676 0-0.27973-0.17405-0.44135-0.47243-0.48798v-0.012432c0.24243-0.062163 0.35743-0.24243 0.35743-0.44446 0-0.35743-0.28906-0.4973-0.70244-0.4973h-0.60608zm0.26108-1.1687v-0.66514h0.31392c0.31392 0 0.47865 0.093244 0.47865 0.31392 0 0.22689-0.14608 0.35122-0.49108 0.35122zm0 0.96352v-0.77082h0.35433c0.35743 0 0.55325 0.115 0.55325 0.36676 0 0.27662-0.20514 0.40406-0.55325 0.40406z"/><path d="m155.71 2.5428c0 0.38541 0.14297 0.59054 0.46311 0.59054 0.20825 0 0.35744-0.10878 0.4973-0.27352h9e-3l0.0217 0.23622h0.21136v-1.5106h-0.25487v1.0723c-0.14297 0.17716-0.25176 0.25487-0.40717 0.25487-0.19892 0-0.28284-0.12122-0.28284-0.40406v-0.92311h-0.25797z"/><path d="m159.05 0.89549c-0.0684-0.027973-0.15851-0.04973-0.25176-0.04973-0.30149 0-0.44135 0.1927-0.44135 0.50041v0.23933h-0.62784v-0.1927c0-0.19892 0.087-0.3077 0.23621-0.3077 0.0746 0 0.13676 0.012432 0.20203 0.040406l0.0528-0.1927c-0.0746-0.034189-0.17716-0.055946-0.27662-0.055946-0.31392 0-0.46933 0.19581-0.46933 0.50973v0.19892l-0.20514 0.015541v0.1927h0.20514v1.3023h0.25487v-1.3023h0.62784v1.3023h0.25486v-1.3023h0.32014v-0.20824h-0.32014v-0.23933c0-0.1927 0.0715-0.29216 0.21447-0.29216 0.0528 0 0.11189 0.012433 0.17094 0.037297z"/><path d="m159.07 2.3439c0 0.49419 0.32013 0.78946 0.72419 0.78946 0.20514 0 0.36676-0.071487 0.4973-0.15541l-0.0901-0.16784c-0.1119 0.071487-0.23311 0.11811-0.37609 0.11811-0.28905 0-0.48487-0.20514-0.50352-0.53149h1.0195c6e-3 -0.037298 9e-3 -0.087028 9e-3 -0.13987 0-0.43203-0.21757-0.70865-0.60298-0.70865-0.345 0-0.67757 0.30149-0.67757 0.79568zm0.24865-0.115c0.0311-0.3046 0.22378-0.47865 0.43513-0.47865 0.23622 0 0.37298 0.17095 0.37298 0.47865z"/><path d="m160.73 3.0961h0.25487v-0.96974c0.10257-0.25487 0.25487-0.34811 0.3823-0.34811 0.0622 0 0.0964 0.00932 0.14608 0.024865l0.0497-0.22379c-0.0497-0.021757-0.0964-0.031081-0.16162-0.031081-0.17095 0-0.32635 0.12122-0.42892 0.31081h-9e-3l-0.0217-0.27352h-0.21136z"/></g><path d="m62.043 17.804v-13.206" fill="#d2d6dc" stroke="#6f8ce9" stroke-dashoffset="1.2" stroke-linecap="round" stroke-miterlimit="40" stroke-width=".25901"/><g transform="matrix(0 -.0025597 .0026035 0 61.321 4.9252)" fill="#6f8ce9" stroke-width="200.67"><g fill="#6f8ce9" stroke-width="200.67"><path d="m486.41 221.41-364.07-208.5c-52.938-30.318-95.852-5.44-95.852 55.563v415.65c0 61.004 42.914 85.882 95.852 55.563l364.07-208.49c52.938-30.317 52.938-79.473 0-109.79z" fill="#6f8ce9" stroke-width="200.67"/></g></g><path d="m93.124 6.3511v-1.8577" fill="#d2d6dc" stroke="#6f8ce9" stroke-dashoffset="1.2" stroke-linecap="round" stroke-miterlimit="40" stroke-width=".25901"/><g transform="matrix(0 -.0025597 .0026035 0 92.403 4.9252)" fill="#6f8ce9" stroke-width="200.67"><g fill="#6f8ce9" stroke-width="200.67"><path d="m486.41 221.41-364.07-208.5c-52.938-30.318-95.852-5.44-95.852 55.563v415.65c0 61.004 42.914 85.882 95.852 55.563l364.07-208.49c52.938-30.317 52.938-79.473 0-109.79z" fill="#6f8ce9" stroke-width="200.67"/></g></g><g transform="matrix(0 .0025597 .0026035 0 92.403 6.2303)" fill="#6f8ce9" stroke-width="200.67"><g fill="#6f8ce9" stroke-width="200.67"><path d="m486.41 221.41-364.07-208.5c-52.938-30.318-95.852-5.44-95.852 55.563v415.65c0 61.004 42.914 85.882 95.852 55.563l364.07-208.49c52.938-30.317 52.938-79.473 0-109.79z" fill="#6f8ce9" stroke-width="200.67"/></g></g><path d="m124.21 7.4558v-2.9624" fill="#d2d6dc" stroke="#6f8ce9" stroke-dashoffset="1.2" stroke-linecap="round" stroke-miterlimit="40" stroke-width=".25901"/><g transform="matrix(0 -.0025597 .0026035 0 123.48 4.9252)" fill="#6f8ce9" stroke-width="200.67"><g fill="#6f8ce9" stroke-width="200.67"><path d="m486.41 221.41-364.07-208.5c-52.938-30.318-95.852-5.44-95.852 55.563v415.65c0 61.004 42.914 85.882 95.852 55.563l364.07-208.49c52.938-30.317 52.938-79.473 0-109.79z" fill="#6f8ce9" stroke-width="200.67"/></g></g><g transform="matrix(0 .0025597 .0026035 0 127.89 16.591)" fill="#6f8ce9" stroke-width="200.67"><g fill="#6f8ce9" stroke-width="200.67"><path d="m486.41 221.41-364.07-208.5c-52.938-30.318-95.852-5.44-95.852 55.563v415.65c0 61.004 42.914 85.882 95.852 55.563l364.07-208.49c52.938-30.317 52.938-79.473 0-109.79z" fill="#6f8ce9" stroke-width="200.67"/></g></g><path d="m128.61 17.286v-12.688" fill="#d2d6dc" stroke="#6f8ce9" stroke-dashoffset="1.2" stroke-linecap="round" stroke-miterlimit="40" stroke-width=".25901"/><g transform="matrix(0 -.0025597 .0026035 0 127.89 4.9252)" fill="#6f8ce9" stroke-width="200.67"><g fill="#6f8ce9" stroke-width="200.67"><path d="m486.41 221.41-364.07-208.5c-52.938-30.318-95.852-5.44-95.852 55.563v415.65c0 61.004 42.914 85.882 95.852 55.563l364.07-208.49c52.938-30.317 52.938-79.473 0-109.79z" fill="#6f8ce9" stroke-width="200.67"/></g></g><g transform="matrix(0 .0025597 .0026035 0 138.77 16.591)" fill="#6f8ce9" stroke-width="200.67"><g fill="#6f8ce9" stroke-width="200.67"><path d="m486.41 221.41-364.07-208.5c-52.938-30.318-95.852-5.44-95.852 55.563v415.65c0 61.004 42.914 85.882 95.852 55.563l364.07-208.49c52.938-30.317 52.938-79.473 0-109.79z" fill="#6f8ce9" stroke-width="200.67"/></g></g><path d="m139.49 17.286v-12.688" fill="#d2d6dc" stroke="#6f8ce9" stroke-dashoffset="1.2" stroke-linecap="round" stroke-miterlimit="40" stroke-width=".25901"/><g transform="matrix(0 -.0025597 .0026035 0 138.77 4.9252)" fill="#6f8ce9" stroke-width="200.67"><g fill="#6f8ce9" stroke-width="200.67"><path d="m486.41 221.41-364.07-208.5c-52.938-30.318-95.852-5.44-95.852 55.563v415.65c0 61.004 42.914 85.882 95.852 55.563l364.07-208.49c52.938-30.317 52.938-79.473 0-109.79z" fill="#6f8ce9" stroke-width="200.67"/></g></g></g><path d="m65.658 3.5837v5.6982h9.3244v-4.6622" fill="none" stroke="#6f8ce9" stroke-dasharray="0.259011, 0.259011" stroke-width=".25901"/><g transform="matrix(0 -.0025597 .0026035 0 74.272 4.9252)" fill="#6f8ce9" stroke-width="200.67"><g fill="#6f8ce9" stroke-width="200.67"><path d="m486.41 221.41-364.07-208.5c-52.938-30.318-95.852-5.44-95.852 55.563v415.65c0 61.004 42.914 85.882 95.852 55.563l364.07-208.49c52.938-30.317 52.938-79.473 0-109.79z" fill="#6f8ce9" stroke-width="200.67"/></g></g><path d="m81.199 3.5837v5.6982h9.3244v-4.6622" fill="none" stroke="#6f8ce9" stroke-dasharray="0.259011, 0.259011" stroke-width=".25901"/><g transform="matrix(0 -.0025597 .0026035 0 89.813 4.9252)" fill="#6f8ce9" stroke-width="200.67"><g fill="#6f8ce9" stroke-width="200.67"><path d="m486.41 221.41-364.07-208.5c-52.938-30.318-95.852-5.44-95.852 55.563v415.65c0 61.004 42.914 85.882 95.852 55.563l364.07-208.49c52.938-30.317 52.938-79.473 0-109.79z" fill="#6f8ce9" stroke-width="200.67"/></g></g><path d="m96.74 3.5837v5.6982h9.3244v-4.6622" fill="none" stroke="#6f8ce9" stroke-dasharray="0.259011, 0.259011" stroke-width=".25901"/><g transform="matrix(0 -.0025597 .0026035 0 105.35 4.9252)" fill="#6f8ce9" stroke-width="200.67"><g fill="#6f8ce9" stroke-width="200.67"><path d="m486.41 221.41-364.07-208.5c-52.938-30.318-95.852-5.44-95.852 55.563v415.65c0 61.004 42.914 85.882 95.852 55.563l364.07-208.49c52.938-30.317 52.938-79.473 0-109.79z" fill="#6f8ce9" stroke-width="200.67"/></g></g></svg>
