<?xml version="1.0" encoding="UTF-8"?>
<svg width="639.79" height="277.35" version="1.1" viewBox="0 0 169.28 73.383" xmlns="http://www.w3.org/2000/svg" xmlns:cc="http://creativecommons.org/ns#" xmlns:dc="http://purl.org/dc/elements/1.1/" xmlns:rdf="http://www.w3.org/1999/02/22-rdf-syntax-ns#">
 <metadata>
  <rdf:RDF>
   <cc:Work rdf:about="">
    <dc:format>image/svg+xml</dc:format>
    <dc:type rdf:resource="http://purl.org/dc/dcmitype/StillImage"/>
   </cc:Work>
  </rdf:RDF>
 </metadata>
 <g transform="matrix(7.2627 0 0 7.2627 -684.21 -699.11)" stroke-width=".13769">
  <rect x="94.208" y="96.454" width="23.308" height="9.7115" fill="#1d232d" style="paint-order:normal"/>
  <g fill="#7b8694">
   <path d="m94.596 96.26h1.1654v0.19408h-1.1654z"/>
   <path d="m96.538 96.26h1.1654v0.19408h-1.1654z"/>
   <path d="m98.481 96.26h1.1654v0.19408h-1.1654z"/>
   <path d="m100.42 96.26h1.1654v0.19408h-1.1654z"/>
   <path d="m102.37 96.26h1.1654v0.19408h-1.1654z"/>
   <path d="m104.31 96.26h1.1654v0.19408h-1.1654z"/>
   <path d="m106.25 96.26h1.1654v0.19408h-1.1654z"/>
   <path d="m108.19 96.26h1.1654v0.19408h-1.1654z"/>
   <path d="m110.13 96.26h1.1654v0.19408h-1.1654z" fill="#7b8694"/>
   <path d="m112.08 96.26h1.1654v0.19408h-1.1654z"/>
   <path d="m114.02 96.26h1.1654v0.19408h-1.1654z"/>
   <path d="m115.96 96.26h1.1654v0.19408h-1.1654z"/>
   <path d="m115.96 106.17h1.1654v0.19405h-1.1654z"/>
   <path d="m114.02 106.17h1.1654v0.19405h-1.1654z"/>
   <path d="m112.08 106.17h1.1654v0.19405h-1.1654z"/>
   <path d="m110.13 106.17h1.1654v0.19405h-1.1654z"/>
   <path d="m108.19 106.17h1.1654v0.19405h-1.1654z"/>
   <path d="m106.25 106.17h1.1654v0.19405h-1.1654z"/>
   <path d="m104.31 106.17h1.1654v0.19405h-1.1654z"/>
   <path d="m102.37 106.17h1.1654v0.19405h-1.1654z"/>
   <path d="m100.42 106.17h1.1654v0.19405h-1.1654z"/>
   <path d="m98.481 106.17h1.1654v0.19405h-1.1654z"/>
   <path d="m96.538 106.17h1.1654v0.19405h-1.1654z"/>
   <path d="m94.596 106.17h1.1654v0.19405h-1.1654z"/>
  </g>
 </g>
 <path d="m53.329 57.336v-1.4481h62.618v2.8961h-62.618zm3.8354-11.084c0-8.0269 0.0077-8.4591 0.13693-8.4088 0.1973 0.07663 1.5463 0.41024 2.0693 0.51218l0.44514 0.08677 0.23802 0.71954c0.49468 1.4947 0.80743 3.1614 0.98698 5.2593 0.06579 0.7749 0.14652 1.6731 0.17841 1.9959l0.05805 0.58703 0.13507-0.97841c0.24413-1.7678 0.32153-3.3552 0.22308-4.5727-0.07818-0.96766-0.27734-2.1938-0.43926-2.7042-0.05341-0.16882-0.05263-0.16889 1.1546-0.14436l1.2083 0.02477 0.45474 1.0958c1.1979 2.887 1.9331 5.653 2.2695 8.5393 0.20264 1.7372 0.16324 4.5818-0.08507 6.1564l-0.04644 0.29351h-8.9875zm45.913 8.1683c-0.24839-1.5746-0.28763-4.4192-0.0851-6.1564 0.33647-2.8863 1.0716-5.6523 2.2695-8.5393l0.45474-1.0958 1.2083-0.02477c1.2072-0.02477 1.2082-0.02477 1.1546 0.14436-0.372 1.1721-0.5611 3.3446-0.43973 5.0524 0.0862 1.2101 0.31952 3.1935 0.36999 3.143 0.0132-0.01393 0.0627-0.58703 0.10952-1.274 0.19862-2.9322 0.58169-5.1236 1.1866-6.7878 0.11781-0.32385 0.21084-0.46094 0.33012-0.48609 0.0915-0.01935 0.37758-0.07431 0.63587-0.12199 0.43199-0.07996 1.498-0.35288 1.7379-0.44491 0.083-0.03174 0.10155 1.5197 0.10155 8.4228v8.4618h-8.9876zm-41.687-16.59c-1.2629-0.07663-3.2164-0.45397-3.9578-0.76374l-0.2689-0.11239v-1.7651c0-0.97081 0.02167-1.7651 0.04567-1.7651 0.02632 0 0.38524 0.21278 0.79998 0.47278 1.4959 0.93799 3.3737 1.7346 5.0772 2.1539 0.94502 0.2326 0.96142 0.24622 0.96373 0.80161 0.0015 0.37339-0.17416 0.65785-0.53029 0.85796-0.31851 0.17896-0.75747 0.20373-2.13 0.12005zm44.381-0.10256c-0.42657-0.26472-0.54438-0.45908-0.545-0.89895-2.9e-4 -0.21526 0.0263-0.43083 0.0573-0.47912 0.0317-0.04799 0.44492-0.1843 0.91851-0.30234 1.8517-0.4614 3.9975-1.41 5.5168-2.4389 0.15001-0.10155 0.30071-0.18453 0.33515-0.18453 0.0341 0 0.0588 0.79533 0.0542 1.7674l-8e-3 1.7674-0.26348 0.11007c-0.9322 0.38949-2.8121 0.70723-4.622 0.78114-1.1087 0.04567-1.184 0.0387-1.4436-0.12222zm-41.242-2.0194c-0.05109-0.09505-0.23956-0.17269-0.57023-0.23446-0.27184-0.05109-0.62952-0.13027-0.79491-0.17663l-0.30071-0.08437 0.93568-0.95317c4.2268-4.3058 7.5723-9.1305 9.639-13.901 0.17578-0.40544 0.30837-0.74826 0.29483-0.76172-0.01316-0.01393-0.17632 0.24784-0.36209 0.58068-0.53548 0.9601-1.6809 2.7635-2.5595 4.0298-2.1389 3.0827-4.5681 5.9451-7.6783 9.0475-1.3422 1.3389-1.5403 1.5083-1.7126 1.465-0.20473-0.05109-1.7146-0.70236-1.8971-0.81798-0.08537-0.05418-0.01316-0.32904 0.36333-1.3881 1.6894-4.7514 2.5818-8.7037 2.9118-12.897 0.12284-1.562 0.08646-1.6005-0.19382-0.20388-0.65398 3.2589-1.4163 6.024-2.5046 9.0836-0.72024 2.025-1.7619 4.6141-1.8564 4.6141-0.04489 0-0.3059-0.1603-0.58037-0.35621l-0.49917-0.35621v-21.641l54.908 0.0064 0.0186 10.817 0.0186 10.817-0.4994 0.35636c-0.27471 0.19598-0.53416 0.35636-0.57666 0.35636-0.13801 0-1.4294-3.2984-2.2526-5.753-0.88981-2.6534-1.469-4.8121-2.037-7.5924-0.35605-1.7427-0.39661-1.7651-0.26936-0.14838 0.33415 4.2453 1.3765 8.7829 3.0602 13.322 0.1675 0.45126 0.30434 0.8463 0.30434 0.87785 0 0.06424-1.6732 0.82492-1.9885 0.90405-0.18268 0.04567-0.36751-0.11533-1.9052-1.6601-4.3561-4.3758-7.8607-8.8976-10.198-13.157-0.35675-0.65034-0.23322-0.25473 0.27819 0.89058 2.0493 4.5894 5.2418 9.1594 9.2977 13.31l1.0847 1.1099-0.30016 0.08329c-0.16511 0.04567-0.51148 0.12338-0.76978 0.17238-0.28817 0.05496-0.51667 0.14761-0.59136 0.24065-0.11835 0.14714-0.14652 0.13747-0.97477-0.33276-9.2959-5.2774-15.301-12.255-18.183-21.13-0.21673-0.66729-0.51125-1.6969-0.65444-2.2881-0.14335-0.5912-0.27811-1.0755-0.29978-1.0763-0.0209-7.05e-4 -0.1747 0.53578-0.34011 1.1923-2.4691 9.8008-8.7632 17.606-18.787 23.296-0.46403 0.2634-0.8574 0.47897-0.87418 0.47897-0.01625 0-0.06502-0.06424-0.10666-0.14211z" fill="#2c57df" stroke-width=".99999"/>
</svg>
