<?xml version="1.0" encoding="UTF-8" standalone="no"?>
<svg
   width="203.8506mm"
   height="102.88552mm"
   version="1.1"
   viewBox="0 0 203.8506 102.88552"
   id="svg40665"
   sodipodi:docname="loop_cooperative_cs.svg"
   inkscape:version="1.2.2 (732a01da63, 2022-12-09)"
   xmlns:inkscape="http://www.inkscape.org/namespaces/inkscape"
   xmlns:sodipodi="http://sodipodi.sourceforge.net/DTD/sodipodi-0.dtd"
   xmlns="http://www.w3.org/2000/svg"
   xmlns:svg="http://www.w3.org/2000/svg"
   xmlns:rdf="http://www.w3.org/1999/02/22-rdf-syntax-ns#"
   xmlns:cc="http://creativecommons.org/ns#"
   xmlns:dc="http://purl.org/dc/elements/1.1/">
  <defs
     id="defs40669" />
  <sodipodi:namedview
     id="namedview40667"
     pagecolor="#ffffff"
     bordercolor="#000000"
     borderopacity="0.25"
     inkscape:showpageshadow="2"
     inkscape:pageopacity="0.0"
     inkscape:pagecheckerboard="0"
     inkscape:deskcolor="#d1d1d1"
     inkscape:document-units="mm"
     showgrid="false"
     inkscape:zoom="1.1105091"
     inkscape:cx="406.57028"
     inkscape:cy="211.61465"
     inkscape:window-width="1920"
     inkscape:window-height="1017"
     inkscape:window-x="-8"
     inkscape:window-y="-8"
     inkscape:window-maximized="1"
     inkscape:current-layer="svg40665" />
  <metadata
     id="metadata40347">
    <rdf:RDF>
      <cc:Work
         rdf:about="">
        <dc:format>image/svg+xml</dc:format>
        <dc:type
           rdf:resource="http://purl.org/dc/dcmitype/StillImage" />
      </cc:Work>
    </rdf:RDF>
  </metadata>
  <rect
     y="10.216801"
     x="77.24749"
     height="10.515591"
     width="43.656261"
     id="rect38478"
     style="fill:#1d232d;fill-opacity:1;stroke:#2f3744;stroke-width:0.264583;stroke-linecap:round;stroke-miterlimit:4;stroke-dasharray:none;stroke-opacity:1" />
  <g
     aria-label="Inicializace"
     id="text38482"
     style="font-size:3.70417px;line-height:1.25;font-family:'Small Fonts';-inkscape-font-specification:'Small Fonts';text-align:center;text-anchor:middle;fill:#e8eaec;stroke:#cf2f25;stroke-width:0.264583;stroke-linecap:round">
    <path
       d="m 90.579631,16.999302 h 0.31115 v -2.429936 h -0.31115 z"
       style="font-family:'Source Sans Pro';-inkscape-font-specification:'Source Sans Pro';stroke:none"
       id="path41210" />
    <path
       d="m 91.516784,16.999302 h 0.303742 v -1.303868 c 0.181504,-0.181504 0.307446,-0.277813 0.492654,-0.277813 0.237067,0 0.340784,0.144463 0.340784,0.481542 v 1.100139 h 0.303742 v -1.140884 c 0,-0.459318 -0.170392,-0.703793 -0.548217,-0.703793 -0.24818,0 -0.433388,0.13335 -0.60378,0.303742 h -0.01111 l -0.02593,-0.259292 h -0.251883 z"
       style="font-family:'Source Sans Pro';-inkscape-font-specification:'Source Sans Pro';stroke:none"
       id="path41212" />
    <path
       d="m 93.698543,14.828658 c 0.118534,0 0.211138,-0.08149 0.211138,-0.196321 0,-0.118533 -0.0926,-0.196321 -0.211138,-0.196321 -0.118533,0 -0.211137,0.07779 -0.211137,0.196321 0,0.11483 0.0926,0.196321 0.211137,0.196321 z m -0.155575,2.170644 h 0.303742 v -1.800227 h -0.303742 z"
       style="font-family:'Source Sans Pro';-inkscape-font-specification:'Source Sans Pro';stroke:none"
       id="path41214" />
    <path
       d="m 94.320845,16.102893 c 0,0.596371 0.366713,0.940859 0.844551,0.940859 0.214842,0 0.422275,-0.0889 0.585259,-0.233363 L 95.6136,16.610364 c -0.107421,0.09631 -0.251883,0.181504 -0.422275,0.181504 -0.329671,0 -0.555626,-0.277812 -0.555626,-0.688975 0,-0.414867 0.237067,-0.696384 0.563034,-0.696384 0.144463,0 0.255588,0.06668 0.363009,0.159279 l 0.151871,-0.196321 c -0.122238,-0.114829 -0.288925,-0.214842 -0.525992,-0.214842 -0.463021,0 -0.866776,0.344488 -0.866776,0.948268 z"
       style="font-family:'Source Sans Pro';-inkscape-font-specification:'Source Sans Pro';stroke:none"
       id="path41216" />
    <path
       d="m 96.298869,14.828658 c 0.118534,0 0.211138,-0.08149 0.211138,-0.196321 0,-0.118533 -0.0926,-0.196321 -0.211138,-0.196321 -0.118533,0 -0.211138,0.07779 -0.211138,0.196321 0,0.11483 0.0926,0.196321 0.211138,0.196321 z m -0.155575,2.170644 h 0.303742 v -1.800227 h -0.303742 z"
       style="font-family:'Source Sans Pro';-inkscape-font-specification:'Source Sans Pro';stroke:none"
       id="path41218" />
    <path
       d="m 96.965621,16.532576 c 0,0.322263 0.225954,0.511176 0.529696,0.511176 0.222251,0 0.422276,-0.118533 0.596372,-0.259292 h 0.0074 l 0.02593,0.214842 h 0.251884 v -1.103843 c 0,-0.448204 -0.185209,-0.740834 -0.626005,-0.740834 -0.288925,0 -0.540809,0.125942 -0.707496,0.233363 l 0.122237,0.211138 c 0.140759,-0.09631 0.325967,-0.192617 0.537105,-0.192617 0.292629,0 0.370417,0.22225 0.370417,0.451909 -0.766763,0.08519 -1.107547,0.281516 -1.107547,0.674158 z m 0.300038,-0.02222 c 0,-0.229658 0.203729,-0.377825 0.807509,-0.451908 v 0.500063 c -0.174096,0.155575 -0.318559,0.240771 -0.492655,0.240771 -0.1778,0 -0.314854,-0.0852 -0.314854,-0.288926 z"
       style="font-family:'Source Sans Pro';-inkscape-font-specification:'Source Sans Pro';stroke:none"
       id="path41220" />
    <path
       d="m 98.951053,16.636293 c 0,0.262996 0.0926,0.407459 0.322263,0.407459 0.08149,0 0.13335,-0.01111 0.174096,-0.02963 l -0.04075,-0.229659 c -0.03334,0.0074 -0.04815,0.0074 -0.06668,0.0074 -0.04445,0 -0.0852,-0.03704 -0.0852,-0.13335 v -2.296585 h -0.303742 z"
       style="font-family:'Source Sans Pro';-inkscape-font-specification:'Source Sans Pro';stroke:none"
       id="path41222" />
    <path
       d="m 100.05119,14.828658 c 0.11853,0 0.21114,-0.08149 0.21114,-0.196321 0,-0.118533 -0.0926,-0.196321 -0.21114,-0.196321 -0.118535,0 -0.211139,0.07779 -0.211139,0.196321 0,0.11483 0.0926,0.196321 0.211139,0.196321 z m -0.155577,2.170644 h 0.303747 v -1.800227 h -0.303747 z"
       style="font-family:'Source Sans Pro';-inkscape-font-specification:'Source Sans Pro';stroke:none"
       id="path41224" />
    <path
       d="m 100.61793,16.999302 h 1.36313 v -0.248179 h -0.9779 l 0.94827,-1.389064 v -0.162984 h -1.22979 v 0.24818 h 0.84455 l -0.94826,1.389063 z"
       style="font-family:'Source Sans Pro';-inkscape-font-specification:'Source Sans Pro';stroke:none"
       id="path41226" />
    <path
       d="m 102.20701,16.532576 c 0,0.322263 0.22595,0.511176 0.5297,0.511176 0.22225,0 0.42227,-0.118533 0.59637,-0.259292 h 0.007 l 0.0259,0.214842 h 0.25188 v -1.103843 c 0,-0.448204 -0.18521,-0.740834 -0.62601,-0.740834 -0.28892,0 -0.5408,0.125942 -0.70749,0.233363 l 0.12224,0.211138 c 0.14075,-0.09631 0.32596,-0.192617 0.5371,-0.192617 0.29263,0 0.37042,0.22225 0.37042,0.451909 -0.76677,0.08519 -1.10755,0.281516 -1.10755,0.674158 z m 0.30004,-0.02222 c 0,-0.229658 0.20373,-0.377825 0.80751,-0.451908 v 0.500063 c -0.1741,0.155575 -0.31856,0.240771 -0.49266,0.240771 -0.1778,0 -0.31485,-0.0852 -0.31485,-0.288926 z"
       style="font-family:'Source Sans Pro';-inkscape-font-specification:'Source Sans Pro';stroke:none"
       id="path41228" />
    <path
       d="m 104.05909,16.102893 c 0,0.596371 0.36672,0.940859 0.84455,0.940859 0.21485,0 0.42228,-0.0889 0.58526,-0.233363 l -0.13705,-0.200025 c -0.10742,0.09631 -0.25189,0.181504 -0.42228,0.181504 -0.32967,0 -0.55562,-0.277812 -0.55562,-0.688975 0,-0.414867 0.23706,-0.696384 0.56303,-0.696384 0.14446,0 0.25559,0.06668 0.36301,0.159279 l 0.15187,-0.196321 c -0.12224,-0.114829 -0.28892,-0.214842 -0.52599,-0.214842 -0.46302,0 -0.86678,0.344488 -0.86678,0.948268 z"
       style="font-family:'Source Sans Pro';-inkscape-font-specification:'Source Sans Pro';stroke:none"
       id="path41230" />
    <path
       d="m 105.6704,16.102893 c 0,0.588963 0.38153,0.940859 0.86308,0.940859 0.24447,0 0.43709,-0.0852 0.59266,-0.185209 l -0.10742,-0.200025 c -0.13335,0.0852 -0.27781,0.140759 -0.4482,0.140759 -0.34449,0 -0.57785,-0.244475 -0.60008,-0.633413 h 1.21497 c 0.007,-0.04445 0.0111,-0.103717 0.0111,-0.166688 0,-0.51488 -0.25929,-0.844551 -0.71861,-0.844551 -0.41116,0 -0.80751,0.359305 -0.80751,0.948268 z m 0.29634,-0.137055 c 0.037,-0.363008 0.2667,-0.570442 0.51858,-0.570442 0.28152,0 0.4445,0.20373 0.4445,0.570442 z"
       style="font-family:'Source Sans Pro';-inkscape-font-specification:'Source Sans Pro';stroke:none"
       id="path41232" />
  </g>
  <rect
     style="fill:#1d232d;fill-opacity:1;stroke:#2f3744;stroke-width:0.264583;stroke-linecap:round;stroke-miterlimit:4;stroke-dasharray:none;stroke-opacity:1"
     id="rect38484"
     width="28.553368"
     height="10.515591"
     x="0.1322915"
     y="49.904301" />
  <g
     aria-label="Herní logika"
     id="text38488"
     style="font-size:3.70417px;line-height:1.25;font-family:'Small Fonts';-inkscape-font-specification:'Small Fonts';text-align:center;text-anchor:middle;fill:#e8eaec;stroke:#cf2f25;stroke-width:0.264583;stroke-linecap:round">
    <path
       d="m 5.1387801,56.686802 h 0.3111502 v -1.144589 h 1.1297719 v 1.144589 H 6.8871483 V 54.256866 H 6.5797022 v 1.018647 H 5.4499303 V 54.256866 H 5.1387801 Z"
       style="font-family:'Source Sans Pro';-inkscape-font-specification:'Source Sans Pro';stroke:none"
       id="path41235" />
    <path
       d="m 7.3835048,55.790393 c 0,0.588963 0.3815295,0.940859 0.8630716,0.940859 0.2444752,0 0.4370921,-0.0852 0.5926672,-0.185209 L 8.7318227,56.346018 c -0.1333501,0.0852 -0.2778128,0.140759 -0.4482046,0.140759 -0.3444878,0 -0.5778505,-0.244475 -0.6000755,-0.633413 h 1.2149677 c 0.00741,-0.04445 0.011113,-0.103717 0.011113,-0.166688 0,-0.51488 -0.2592919,-0.844551 -0.718609,-0.844551 -0.4111629,0 -0.8075091,0.359305 -0.8075091,0.948268 z m 0.2963336,-0.137055 c 0.037042,-0.363008 0.2667003,-0.570442 0.5185838,-0.570442 0.2815169,0 0.4445004,0.20373 0.4445004,0.570442 z"
       style="font-family:'Source Sans Pro';-inkscape-font-specification:'Source Sans Pro';stroke:none"
       id="path41237" />
    <path
       d="m 9.3541245,56.686802 h 0.3037419 v -1.155701 c 0.1222376,-0.303742 0.303742,-0.414867 0.4556126,-0.414867 0.07408,0 0.11483,0.01111 0.174096,0.02963 l 0.05927,-0.2667 c -0.05927,-0.02593 -0.114829,-0.03704 -0.192617,-0.03704 -0.2037292,0 -0.3889377,0.144463 -0.5111753,0.370417 H 9.6319372 L 9.606008,54.886575 H 9.3541245 Z"
       style="font-family:'Source Sans Pro';-inkscape-font-specification:'Source Sans Pro';stroke:none"
       id="path41239" />
    <path
       d="m 10.639472,56.686802 h 0.303742 v -1.303868 c 0.181504,-0.181504 0.307446,-0.277813 0.492654,-0.277813 0.237067,0 0.340784,0.144463 0.340784,0.481542 v 1.100139 h 0.303742 v -1.140884 c 0,-0.459318 -0.170392,-0.703793 -0.548217,-0.703793 -0.248179,0 -0.433388,0.13335 -0.60378,0.303742 h -0.01111 l -0.02593,-0.259292 h -0.251884 z"
       style="font-family:'Source Sans Pro';-inkscape-font-specification:'Source Sans Pro';stroke:none"
       id="path41241" />
    <path
       d="m 12.665656,56.686802 h 0.303742 v -1.800227 h -0.303742 z m 0.563034,-2.644777 h -0.318559 l -0.333375,0.522288 h 0.233363 z"
       style="font-family:'Source Sans Pro';-inkscape-font-specification:'Source Sans Pro';stroke:none"
       id="path41243" />
    <path
       d="m 14.325124,56.323793 c 0,0.262996 0.0926,0.407459 0.322263,0.407459 0.08149,0 0.13335,-0.01111 0.174096,-0.02963 l -0.04075,-0.229659 c -0.03334,0.0074 -0.04815,0.0074 -0.06668,0.0074 -0.04445,0 -0.0852,-0.03704 -0.0852,-0.13335 v -2.296585 h -0.303742 z"
       style="font-family:'Source Sans Pro';-inkscape-font-specification:'Source Sans Pro';stroke:none"
       id="path41245" />
    <path
       d="m 15.136335,55.790393 c 0,0.596371 0.392642,0.940859 0.833438,0.940859 0.440796,0 0.833438,-0.344488 0.833438,-0.940859 0,-0.60378 -0.392642,-0.948268 -0.833438,-0.948268 -0.440796,0 -0.833438,0.344488 -0.833438,0.948268 z m 0.314854,0 c 0,-0.414867 0.211138,-0.696384 0.518584,-0.696384 0.31115,0 0.518584,0.281517 0.518584,0.696384 0,0.411163 -0.207434,0.688975 -0.518584,0.688975 -0.307446,0 -0.518584,-0.277812 -0.518584,-0.688975 z"
       style="font-family:'Source Sans Pro';-inkscape-font-specification:'Source Sans Pro';stroke:none"
       id="path41247" />
    <path
       d="m 17.40699,56.990544 c 0,-0.103717 0.05556,-0.211138 0.185208,-0.303742 0.07779,0.02222 0.162984,0.02963 0.233363,0.02963 h 0.31115 c 0.233363,0 0.363009,0.05556 0.363009,0.22225 0,0.188913 -0.225955,0.366713 -0.570442,0.366713 -0.325967,0 -0.522288,-0.122237 -0.522288,-0.314854 z m -0.266701,0.04075 c 0,0.31115 0.303742,0.485246 0.744539,0.485246 0.559329,0 0.911225,-0.288925 0.911225,-0.622301 0,-0.300037 -0.211137,-0.429683 -0.629709,-0.429683 h -0.348191 c -0.244476,0 -0.318559,-0.08149 -0.318559,-0.196321 0,-0.100013 0.05186,-0.15928 0.114829,-0.214842 0.08149,0.04075 0.181504,0.06297 0.270405,0.06297 0.366712,0 0.659342,-0.240771 0.659342,-0.626005 0,-0.151871 -0.06297,-0.288925 -0.148167,-0.370417 h 0.370417 v -0.233363 h -0.626005 c -0.06668,-0.02593 -0.155575,-0.04445 -0.255587,-0.04445 -0.366713,0 -0.677864,0.24818 -0.677864,0.640822 0,0.214842 0.11483,0.388938 0.233363,0.485246 v 0.01482 c -0.0926,0.06297 -0.196321,0.181504 -0.196321,0.333375 0,0.140758 0.07038,0.237067 0.159279,0.292629 v 0.01482 c -0.162983,0.111125 -0.262996,0.255588 -0.262996,0.407459 z m 0.744539,-1.11866 c -0.207434,0 -0.38153,-0.166687 -0.38153,-0.429683 0,-0.262996 0.170392,-0.418572 0.38153,-0.418572 0.211137,0 0.381529,0.155576 0.381529,0.418572 0,0.262996 -0.174096,0.429683 -0.381529,0.429683 z"
       style="font-family:'Source Sans Pro';-inkscape-font-specification:'Source Sans Pro';stroke:none"
       id="path41249" />
    <path
       d="m 19.299819,54.516158 c 0.118534,0 0.211138,-0.08149 0.211138,-0.196321 0,-0.118533 -0.0926,-0.196321 -0.211138,-0.196321 -0.118533,0 -0.211137,0.07779 -0.211137,0.196321 0,0.11483 0.0926,0.196321 0.211137,0.196321 z m -0.155575,2.170644 h 0.303742 v -1.800227 h -0.303742 z"
       style="font-family:'Source Sans Pro';-inkscape-font-specification:'Source Sans Pro';stroke:none"
       id="path41251" />
    <path
       d="m 20.055471,56.686802 h 0.300038 v -0.474134 l 0.33708,-0.392642 0.525992,0.866776 h 0.333375 l -0.685271,-1.077914 0.603779,-0.722313 h -0.337079 l -0.766763,0.948268 h -0.01111 v -1.78541 h -0.300038 z"
       style="font-family:'Source Sans Pro';-inkscape-font-specification:'Source Sans Pro';stroke:none"
       id="path41253" />
    <path
       d="m 21.763096,56.220076 c 0,0.322263 0.225955,0.511176 0.529697,0.511176 0.22225,0 0.422275,-0.118533 0.596371,-0.259292 h 0.0074 l 0.02593,0.214842 h 0.251884 v -1.103843 c 0,-0.448204 -0.185208,-0.740834 -0.626005,-0.740834 -0.288925,0 -0.540809,0.125942 -0.707496,0.233363 l 0.122237,0.211138 c 0.140759,-0.09631 0.325967,-0.192617 0.537105,-0.192617 0.29263,0 0.370417,0.22225 0.370417,0.451909 -0.766763,0.08519 -1.107547,0.281516 -1.107547,0.674158 z m 0.300038,-0.02222 c 0,-0.229658 0.203729,-0.377825 0.807509,-0.451908 v 0.500063 c -0.174096,0.155575 -0.318559,0.240771 -0.492655,0.240771 -0.1778,0 -0.314854,-0.0852 -0.314854,-0.288926 z"
       style="font-family:'Source Sans Pro';-inkscape-font-specification:'Source Sans Pro';stroke:none"
       id="path41255" />
  </g>
  <rect
     y="92.23764"
     x="77.24749"
     height="10.515591"
     width="43.656261"
     id="rect38490"
     style="fill:#1d232d;fill-opacity:1;stroke:#2f3744;stroke-width:0.264583;stroke-linecap:round;stroke-miterlimit:4;stroke-dasharray:none;stroke-opacity:1" />
  <g
     aria-label="Konec"
     id="text38494"
     style="font-size:3.70417px;line-height:1.25;font-family:'Small Fonts';-inkscape-font-specification:'Small Fonts';text-align:center;text-anchor:middle;fill:#ff867f;stroke:#cf2f25;stroke-width:0.264583;stroke-linecap:round">
    <path
       d="m 94.2875,99.020142 h 0.31115 v -0.770468 l 0.414867,-0.492654 0.726017,1.263122 h 0.344488 l -0.877888,-1.503893 0.763059,-0.926043 h -0.351896 l -1.011239,1.218672 h -0.0074 V 96.590206 H 94.2875 Z"
       style="font-family:'Source Sans Pro';-inkscape-font-specification:'Source Sans Pro';stroke:none"
       id="path41258" />
    <path
       d="m 96.239593,98.123732 c 0,0.596372 0.392642,0.94086 0.833438,0.94086 0.440796,0 0.833438,-0.344488 0.833438,-0.94086 0,-0.603779 -0.392642,-0.948267 -0.833438,-0.948267 -0.440796,0 -0.833438,0.344488 -0.833438,0.948267 z m 0.314854,0 c 0,-0.414867 0.211138,-0.696383 0.518584,-0.696383 0.31115,0 0.518584,0.281516 0.518584,0.696383 0,0.411163 -0.207434,0.688976 -0.518584,0.688976 -0.307446,0 -0.518584,-0.277813 -0.518584,-0.688976 z"
       style="font-family:'Source Sans Pro';-inkscape-font-specification:'Source Sans Pro';stroke:none"
       id="path41260" />
    <path
       d="m 98.380602,99.020142 h 0.303742 v -1.303868 c 0.181505,-0.181505 0.307447,-0.277813 0.492655,-0.277813 0.237067,0 0.340784,0.144463 0.340784,0.481542 v 1.100139 h 0.303742 v -1.140885 c 0,-0.459317 -0.170392,-0.703792 -0.548218,-0.703792 -0.248179,0 -0.433387,0.13335 -0.603779,0.303742 h -0.01111 l -0.02593,-0.259292 h -0.251884 z"
       style="font-family:'Source Sans Pro';-inkscape-font-specification:'Source Sans Pro';stroke:none"
       id="path41262" />
    <path
       d="m 100.27344,98.123732 c 0,0.588963 0.38153,0.94086 0.86307,0.94086 0.24447,0 0.43709,-0.0852 0.59267,-0.185209 l -0.10743,-0.200025 c -0.13335,0.0852 -0.27781,0.140758 -0.4482,0.140758 -0.34449,0 -0.57785,-0.244475 -0.60008,-0.633413 h 1.21497 c 0.007,-0.04445 0.0111,-0.103716 0.0111,-0.166687 0,-0.51488 -0.25929,-0.844551 -0.7186,-0.844551 -0.41117,0 -0.80751,0.359304 -0.80751,0.948267 z m 0.29633,-0.137054 c 0.037,-0.363008 0.2667,-0.570442 0.51858,-0.570442 0.28152,0 0.4445,0.203729 0.4445,0.570442 z"
       style="font-family:'Source Sans Pro';-inkscape-font-specification:'Source Sans Pro';stroke:none"
       id="path41264" />
    <path
       d="m 102.11071,98.123732 c 0,0.596372 0.36671,0.94086 0.84455,0.94086 0.21484,0 0.42227,-0.0889 0.58526,-0.233363 l -0.13706,-0.200025 c -0.10742,0.09631 -0.25188,0.181504 -0.42227,0.181504 -0.32967,0 -0.55563,-0.277813 -0.55563,-0.688976 0,-0.414867 0.23707,-0.696383 0.56303,-0.696383 0.14447,0 0.25559,0.06667 0.36301,0.159279 l 0.15187,-0.196321 c -0.12223,-0.114829 -0.28892,-0.214842 -0.52599,-0.214842 -0.46302,0 -0.86677,0.344488 -0.86677,0.948267 z"
       style="font-family:'Source Sans Pro';-inkscape-font-specification:'Source Sans Pro';stroke:none"
       id="path41266" />
  </g>
  <path
     sodipodi:nodetypes="cc"
     inkscape:connector-curvature="0"
     id="path38496"
     d="m 98.986783,20.888537 v 7.044558"
     style="fill:none;fill-opacity:1;stroke:#6f8ce9;stroke-width:0.264583;stroke-linecap:round;stroke-miterlimit:4;stroke-dasharray:none;stroke-opacity:1"
     inkscape:export-xdpi="96"
     inkscape:export-ydpi="96" />
  <g
     transform="matrix(0,0.00423654,-0.00430909,0,100.18273,47.506812)"
     id="g38500"
     style="fill:#47d58a;fill-opacity:1;stroke-width:123.849">
    <path
       id="path38498"
       d="M 486.413,221.412 122.347,12.916 C 69.409,-17.402 26.495,7.476 26.495,68.479 v 415.652 c 0,61.004 42.914,85.882 95.852,55.563 l 364.066,-208.49 c 52.938,-30.317 52.938,-79.473 0,-109.792 z"
       inkscape:connector-curvature="0"
       style="fill:#6f8ce9;fill-opacity:1;stroke-width:123.849" />
  </g>
  <path
     inkscape:export-ydpi="96"
     inkscape:export-xdpi="96"
     style="fill:none;fill-opacity:1;stroke:#6f8ce9;stroke-width:0.264583;stroke-linecap:round;stroke-miterlimit:4;stroke-dasharray:none;stroke-opacity:1"
     d="m 98.986783,82.536452 v 7.83831"
     id="path38502"
     inkscape:connector-curvature="0"
     sodipodi:nodetypes="cc" />
  <g
     style="fill:#47d58a;fill-opacity:1;stroke-width:123.849"
     id="g38506"
     transform="matrix(0,0.00423654,-0.00430909,0,100.18273,89.840142)">
    <path
       style="fill:#6f8ce9;fill-opacity:1;stroke-width:123.849"
       inkscape:connector-curvature="0"
       d="M 486.413,221.412 122.347,12.916 C 69.409,-17.402 26.495,7.476 26.495,68.479 v 415.652 c 0,61.004 42.914,85.882 95.852,55.563 l 364.066,-208.49 c 52.938,-30.317 52.938,-79.473 0,-109.792 z"
       id="path38504" />
  </g>
  <g
     aria-label="Ukončující signál"
     id="text38510"
     style="font-size:3.175px;line-height:1.25;font-family:'Small Fonts';-inkscape-font-specification:'Small Fonts';text-align:center;text-anchor:middle;fill:#e8eaec;stroke:#cf2f25;stroke-width:0.264583;stroke-linecap:round">
    <path
       d="m 107.92334,77.257632 c 0,0.669925 0.32385,0.898525 0.7493,0.898525 0.42545,0 0.7493,-0.2286 0.7493,-0.898525 v -1.222375 h -0.254 v 1.228725 c 0,0.50165 -0.21908,0.6604 -0.4953,0.6604 -0.26988,0 -0.4826,-0.15875 -0.4826,-0.6604 v -1.228725 h -0.2667 z"
       style="font-family:'Source Sans Pro';-inkscape-font-specification:'Source Sans Pro';stroke:none"
       id="path41269" />
    <path
       d="m 109.94898,78.118057 h 0.25718 v -0.4064 l 0.28892,-0.33655 0.45085,0.74295 h 0.28575 l -0.58737,-0.923925 0.51752,-0.619125 h -0.28892 l -0.65723,0.8128 h -0.01 v -1.53035 h -0.25718 z"
       style="font-family:'Source Sans Pro';-inkscape-font-specification:'Source Sans Pro';stroke:none"
       id="path41271" />
    <path
       d="m 111.34916,77.349707 c 0,0.511175 0.33655,0.80645 0.71438,0.80645 0.37782,0 0.71437,-0.295275 0.71437,-0.80645 0,-0.517525 -0.33655,-0.8128 -0.71437,-0.8128 -0.37783,0 -0.71438,0.295275 -0.71438,0.8128 z m 0.26988,0 c 0,-0.3556 0.18097,-0.5969 0.4445,-0.5969 0.2667,0 0.4445,0.2413 0.4445,0.5969 0,0.352425 -0.1778,0.59055 -0.4445,0.59055 -0.26353,0 -0.4445,-0.238125 -0.4445,-0.59055 z"
       style="font-family:'Source Sans Pro';-inkscape-font-specification:'Source Sans Pro';stroke:none"
       id="path41273" />
    <path
       d="m 113.18431,78.118057 h 0.26035 v -1.1176 c 0.15558,-0.155575 0.26353,-0.238125 0.42228,-0.238125 0.2032,0 0.2921,0.123825 0.2921,0.41275 v 0.942975 h 0.26035 v -0.9779 c 0,-0.3937 -0.14605,-0.60325 -0.4699,-0.60325 -0.21273,0 -0.37148,0.1143 -0.51753,0.26035 h -0.01 l -0.0222,-0.22225 h -0.2159 z"
       style="font-family:'Source Sans Pro';-inkscape-font-specification:'Source Sans Pro';stroke:none"
       id="path41275" />
    <path
       d="m 114.80674,77.349707 c 0,0.511175 0.31433,0.80645 0.7239,0.80645 0.18415,0 0.36195,-0.0762 0.50165,-0.200025 l -0.11747,-0.17145 c -0.0921,0.08255 -0.2159,0.155575 -0.36195,0.155575 -0.28258,0 -0.47625,-0.238125 -0.47625,-0.59055 0,-0.3556 0.2032,-0.5969 0.4826,-0.5969 0.12382,0 0.21907,0.05715 0.31115,0.136525 l 0.13017,-0.168275 c -0.10477,-0.09843 -0.24765,-0.18415 -0.45085,-0.18415 -0.39687,0 -0.74295,0.295275 -0.74295,0.8128 z m 0.63183,-1.050925 h 0.21272 l 0.30163,-0.447675 h -0.18733 l -0.21272,0.2921 h -0.0127 l -0.21273,-0.2921 h -0.1905 z"
       style="font-family:'Source Sans Pro';-inkscape-font-specification:'Source Sans Pro';stroke:none"
       id="path41277" />
    <path
       d="m 116.34661,77.552907 c 0,0.3937 0.14605,0.60325 0.47308,0.60325 0.21272,0 0.36512,-0.111125 0.508,-0.2794 h 0.01 l 0.0222,0.2413 h 0.2159 v -1.54305 h -0.26035 v 1.095375 c -0.14605,0.180975 -0.25718,0.26035 -0.41593,0.26035 -0.2032,0 -0.28892,-0.123825 -0.28892,-0.41275 v -0.942975 h -0.26353 z"
       style="font-family:'Source Sans Pro';-inkscape-font-specification:'Source Sans Pro';stroke:none"
       id="path41279" />
    <path
       d="m 118.09922,78.292682 c 0,0.187325 -0.0381,0.301625 -0.1905,0.301625 -0.054,0 -0.10795,-0.0127 -0.14605,-0.0254 l -0.054,0.19685 c 0.054,0.02223 0.13335,0.04128 0.2286,0.04128 0.30798,0 0.42228,-0.200025 0.42228,-0.51435 v -1.717675 h -0.26035 z m 0.13335,-2.035175 c 0.0984,0 0.1778,-0.06985 0.1778,-0.168275 0,-0.1016 -0.0794,-0.168275 -0.1778,-0.168275 -0.1016,0 -0.18098,0.06668 -0.18098,0.168275 0,0.09843 0.0794,0.168275 0.18098,0.168275 z"
       style="font-family:'Source Sans Pro';-inkscape-font-specification:'Source Sans Pro';stroke:none"
       id="path41281" />
    <path
       d="m 118.88026,78.118057 h 0.26035 v -1.54305 h -0.26035 z m 0.4826,-2.26695 h -0.27305 l -0.28575,0.447675 h 0.20003 z"
       style="font-family:'Source Sans Pro';-inkscape-font-specification:'Source Sans Pro';stroke:none"
       id="path41283" />
    <path
       d="m 119.54702,77.349707 c 0,0.511175 0.31432,0.80645 0.7239,0.80645 0.18415,0 0.36195,-0.0762 0.50165,-0.200025 l -0.11748,-0.17145 c -0.0921,0.08255 -0.2159,0.155575 -0.36195,0.155575 -0.28257,0 -0.47625,-0.238125 -0.47625,-0.59055 0,-0.3556 0.2032,-0.5969 0.4826,-0.5969 0.12383,0 0.21908,0.05715 0.31115,0.136525 l 0.13018,-0.168275 c -0.10478,-0.09843 -0.24765,-0.18415 -0.45085,-0.18415 -0.39688,0 -0.74295,0.295275 -0.74295,0.8128 z"
       style="font-family:'Source Sans Pro';-inkscape-font-specification:'Source Sans Pro';stroke:none"
       id="path41285" />
    <path
       d="m 121.10911,78.118057 h 0.26035 v -1.54305 h -0.26035 z m 0.4826,-2.26695 h -0.27305 l -0.28575,0.447675 h 0.20003 z"
       style="font-family:'Source Sans Pro';-inkscape-font-specification:'Source Sans Pro';stroke:none"
       id="path41287" />
    <path
       d="m 122.36006,77.943432 c 0.14605,0.12065 0.3556,0.212725 0.57468,0.212725 0.36512,0 0.56515,-0.20955 0.56515,-0.460375 0,-0.2921 -0.24765,-0.384175 -0.4699,-0.466725 -0.17463,-0.06668 -0.3429,-0.123825 -0.3429,-0.2667 0,-0.117475 0.0889,-0.22225 0.28257,-0.22225 0.13653,0 0.24765,0.05715 0.35243,0.136525 l 0.12382,-0.1651 c -0.11747,-0.09525 -0.28575,-0.174625 -0.47942,-0.174625 -0.33338,0 -0.53023,0.1905 -0.53023,0.43815 0,0.26035 0.2413,0.365125 0.46038,0.4445 0.16827,0.0635 0.35242,0.13335 0.35242,0.2921 0,0.13335 -0.1016,0.2413 -0.3048,0.2413 -0.18415,0 -0.32067,-0.0762 -0.45402,-0.18415 z"
       style="font-family:'Source Sans Pro';-inkscape-font-specification:'Source Sans Pro';stroke:none"
       id="path41289" />
    <path
       d="m 123.99519,76.257507 c 0.1016,0 0.18098,-0.06985 0.18098,-0.168275 0,-0.1016 -0.0794,-0.168275 -0.18098,-0.168275 -0.1016,0 -0.18097,0.06668 -0.18097,0.168275 0,0.09843 0.0794,0.168275 0.18097,0.168275 z m -0.13335,1.86055 h 0.26035 v -1.54305 h -0.26035 z"
       style="font-family:'Source Sans Pro';-inkscape-font-specification:'Source Sans Pro';stroke:none"
       id="path41291" />
    <path
       d="m 124.75402,78.378407 c 0,-0.0889 0.0476,-0.180975 0.15875,-0.26035 0.0667,0.01905 0.1397,0.0254 0.20002,0.0254 h 0.2667 c 0.20003,0 0.31115,0.04762 0.31115,0.1905 0,0.161925 -0.19367,0.314325 -0.48895,0.314325 -0.2794,0 -0.44767,-0.104775 -0.44767,-0.269875 z m -0.2286,0.03493 c 0,0.2667 0.26035,0.415925 0.63817,0.415925 0.47943,0 0.78105,-0.24765 0.78105,-0.5334 0,-0.257175 -0.18097,-0.3683 -0.53975,-0.3683 h -0.29845 c -0.20955,0 -0.27305,-0.06985 -0.27305,-0.168275 0,-0.08572 0.0445,-0.136525 0.0984,-0.18415 0.0699,0.03493 0.15557,0.05398 0.23177,0.05398 0.31433,0 0.56515,-0.206375 0.56515,-0.536575 0,-0.130175 -0.054,-0.24765 -0.127,-0.3175 h 0.3175 v -0.200025 h -0.53657 c -0.0572,-0.02223 -0.13335,-0.0381 -0.21908,-0.0381 -0.31432,0 -0.58102,0.212725 -0.58102,0.549275 0,0.18415 0.0984,0.333375 0.20002,0.415925 v 0.0127 c -0.0794,0.05397 -0.16827,0.155575 -0.16827,0.28575 0,0.12065 0.0603,0.2032 0.13652,0.250825 v 0.0127 c -0.1397,0.09525 -0.22542,0.219075 -0.22542,0.34925 z m 0.63817,-0.95885 c -0.1778,0 -0.32702,-0.142875 -0.32702,-0.3683 0,-0.225425 0.14605,-0.358775 0.32702,-0.358775 0.18098,0 0.32703,0.13335 0.32703,0.358775 0,0.225425 -0.14923,0.3683 -0.32703,0.3683 z"
       style="font-family:'Source Sans Pro';-inkscape-font-specification:'Source Sans Pro';stroke:none"
       id="path41293" />
    <path
       d="m 126.24309,78.118057 h 0.26035 v -1.1176 c 0.15558,-0.155575 0.26353,-0.238125 0.42228,-0.238125 0.2032,0 0.2921,0.123825 0.2921,0.41275 v 0.942975 h 0.26035 v -0.9779 c 0,-0.3937 -0.14605,-0.60325 -0.4699,-0.60325 -0.21273,0 -0.37148,0.1143 -0.51753,0.26035 h -0.01 l -0.0222,-0.22225 h -0.2159 z"
       style="font-family:'Source Sans Pro';-inkscape-font-specification:'Source Sans Pro';stroke:none"
       id="path41295" />
    <path
       d="m 127.90362,77.718007 c 0,0.276225 0.19367,0.43815 0.45402,0.43815 0.1905,0 0.36195,-0.1016 0.51118,-0.22225 h 0.006 l 0.0222,0.18415 h 0.2159 v -0.94615 c 0,-0.384175 -0.15875,-0.635 -0.53657,-0.635 -0.24765,0 -0.46355,0.10795 -0.60643,0.200025 l 0.10478,0.180975 c 0.12065,-0.08255 0.2794,-0.1651 0.46037,-0.1651 0.25083,0 0.3175,0.1905 0.3175,0.38735 -0.65722,0.07303 -0.94932,0.2413 -0.94932,0.57785 z m 0.25717,-0.01905 c 0,-0.19685 0.17463,-0.32385 0.69215,-0.38735 v 0.428625 c -0.14922,0.13335 -0.27305,0.206375 -0.42227,0.206375 -0.1524,0 -0.26988,-0.07303 -0.26988,-0.24765 z m 0.76518,-1.84785 h -0.27305 l -0.28575,0.447675 h 0.20002 z"
       style="font-family:'Source Sans Pro';-inkscape-font-specification:'Source Sans Pro';stroke:none"
       id="path41297" />
    <path
       d="m 129.60542,77.806907 c 0,0.225425 0.0794,0.34925 0.27622,0.34925 0.0699,0 0.1143,-0.0095 0.14923,-0.0254 l -0.0349,-0.19685 c -0.0286,0.0063 -0.0413,0.0063 -0.0571,0.0063 -0.0381,0 -0.073,-0.03175 -0.073,-0.1143 v -1.9685 h -0.26035 z"
       style="font-family:'Source Sans Pro';-inkscape-font-specification:'Source Sans Pro';stroke:none"
       id="path41299" />
  </g>
  <rect
     y="49.904301"
     x="42.465618"
     height="10.515591"
     width="28.553368"
     id="rect38512"
     style="fill:#1d232d;fill-opacity:1;stroke:#2f3744;stroke-width:0.264583;stroke-linecap:round;stroke-miterlimit:4;stroke-dasharray:none;stroke-opacity:1" />
  <g
     aria-label="Herní AI"
     id="text38516"
     style="font-size:3.70417px;line-height:1.25;font-family:'Small Fonts';-inkscape-font-specification:'Small Fonts';text-align:center;text-anchor:middle;fill:#e8eaec;stroke:#cf2f25;stroke-width:0.264583;stroke-linecap:round">
    <path
       d="m 50.180405,56.686802 h 0.31115 v -1.144589 h 1.129772 v 1.144589 h 0.307446 v -2.429936 h -0.307446 v 1.018647 h -1.129772 v -1.018647 h -0.31115 z"
       style="font-family:'Source Sans Pro';-inkscape-font-specification:'Source Sans Pro';stroke:none"
       id="path41302" />
    <path
       d="m 52.42513,55.790393 c 0,0.588963 0.381529,0.940859 0.863072,0.940859 0.244475,0 0.437092,-0.0852 0.592667,-0.185209 l -0.107421,-0.200025 c -0.13335,0.0852 -0.277813,0.140759 -0.448205,0.140759 -0.344488,0 -0.57785,-0.244475 -0.600075,-0.633413 h 1.214967 c 0.0074,-0.04445 0.01111,-0.103717 0.01111,-0.166688 0,-0.51488 -0.259292,-0.844551 -0.718609,-0.844551 -0.411163,0 -0.807509,0.359305 -0.807509,0.948268 z m 0.296334,-0.137055 c 0.03704,-0.363008 0.2667,-0.570442 0.518583,-0.570442 0.281517,0 0.444501,0.20373 0.444501,0.570442 z"
       style="font-family:'Source Sans Pro';-inkscape-font-specification:'Source Sans Pro';stroke:none"
       id="path41304" />
    <path
       d="m 54.39575,56.686802 h 0.303742 v -1.155701 c 0.122237,-0.303742 0.303741,-0.414867 0.455612,-0.414867 0.07408,0 0.11483,0.01111 0.174096,0.02963 l 0.05927,-0.2667 c -0.05927,-0.02593 -0.114829,-0.03704 -0.192617,-0.03704 -0.203729,0 -0.388938,0.144463 -0.511175,0.370417 h -0.01111 l -0.02593,-0.325967 H 54.39575 Z"
       style="font-family:'Source Sans Pro';-inkscape-font-specification:'Source Sans Pro';stroke:none"
       id="path41306" />
    <path
       d="m 55.681097,56.686802 h 0.303742 v -1.303868 c 0.181504,-0.181504 0.307446,-0.277813 0.492655,-0.277813 0.237066,0 0.340783,0.144463 0.340783,0.481542 v 1.100139 h 0.303742 v -1.140884 c 0,-0.459318 -0.170392,-0.703793 -0.548217,-0.703793 -0.248179,0 -0.433388,0.13335 -0.60378,0.303742 h -0.01111 l -0.02593,-0.259292 h -0.251884 z"
       style="font-family:'Source Sans Pro';-inkscape-font-specification:'Source Sans Pro';stroke:none"
       id="path41308" />
    <path
       d="m 57.707281,56.686802 h 0.303742 v -1.800227 h -0.303742 z m 0.563034,-2.644777 h -0.318559 l -0.333375,0.522288 h 0.233363 z"
       style="font-family:'Source Sans Pro';-inkscape-font-specification:'Source Sans Pro';stroke:none"
       id="path41310" />
    <path
       d="m 59.689012,55.697789 0.118533,-0.370417 c 0.0852,-0.270405 0.162984,-0.537105 0.240771,-0.818622 h 0.01482 c 0.07779,0.281517 0.155575,0.548217 0.240771,0.818622 l 0.114829,0.370417 z m 1.040871,0.989013 h 0.325967 l -0.822325,-2.429936 h -0.348192 l -0.822326,2.429936 h 0.314854 l 0.233363,-0.740834 h 0.885297 z"
       style="font-family:'Source Sans Pro';-inkscape-font-specification:'Source Sans Pro';stroke:none"
       id="path41312" />
    <path
       d="m 61.378114,56.686802 h 0.311151 v -2.429936 h -0.311151 z"
       style="font-family:'Source Sans Pro';-inkscape-font-specification:'Source Sans Pro';stroke:none"
       id="path41314" />
  </g>
  <rect
     style="fill:#1d232d;fill-opacity:1;stroke:#2f3744;stroke-width:0.264583;stroke-linecap:round;stroke-miterlimit:4;stroke-dasharray:none;stroke-opacity:1"
     id="rect38518"
     width="28.553368"
     height="10.515591"
     x="84.798958"
     y="49.904301" />
  <g
     aria-label="Fyzika"
     id="text38522"
     style="font-size:3.70417px;line-height:1.25;font-family:'Small Fonts';-inkscape-font-specification:'Small Fonts';text-align:center;text-anchor:middle;fill:#e8eaec;stroke:#cf2f25;stroke-width:0.264583;stroke-linecap:round">
    <path
       d="m 94.333801,56.686802 h 0.31115 v -1.089026 h 0.926043 v -0.259292 h -0.926043 v -0.822326 h 1.09273 v -0.259292 h -1.40388 z"
       style="font-family:'Source Sans Pro';-inkscape-font-specification:'Source Sans Pro';stroke:none"
       id="path41317" />
    <path
       d="m 95.945113,57.183161 -0.05927,0.240771 c 0.05927,0.02222 0.129646,0.03704 0.211137,0.03704 0.363009,0 0.548217,-0.270404 0.674159,-0.626004 l 0.677863,-1.948394 h -0.296333 l -0.322263,0.996422 c -0.04815,0.159279 -0.100013,0.344488 -0.151871,0.507471 h -0.01482 c -0.05556,-0.166687 -0.118533,-0.351896 -0.174096,-0.507471 l -0.366713,-0.996422 h -0.314854 l 0.722313,1.803931 -0.04075,0.13335 c -0.07408,0.22225 -0.203729,0.385234 -0.407458,0.385234 -0.04445,0 -0.100013,-0.01482 -0.137055,-0.02593 z"
       style="font-family:'Source Sans Pro';-inkscape-font-specification:'Source Sans Pro';stroke:none"
       id="path41319" />
    <path
       d="m 97.519389,56.686802 h 1.363134 v -0.248179 h -0.977901 l 0.948268,-1.389064 v -0.162984 h -1.229785 v 0.24818 h 0.844551 l -0.948267,1.389063 z"
       style="font-family:'Source Sans Pro';-inkscape-font-specification:'Source Sans Pro';stroke:none"
       id="path41321" />
    <path
       d="m 99.438146,54.516158 c 0.118533,0 0.211137,-0.08149 0.211137,-0.196321 0,-0.118533 -0.0926,-0.196321 -0.211137,-0.196321 -0.118534,0 -0.211138,0.07779 -0.211138,0.196321 0,0.11483 0.0926,0.196321 0.211138,0.196321 z m -0.155575,2.170644 h 0.303741 v -1.800227 h -0.303741 z"
       style="font-family:'Source Sans Pro';-inkscape-font-specification:'Source Sans Pro';stroke:none"
       id="path41323" />
    <path
       d="m 100.1938,56.686802 h 0.30004 v -0.474134 l 0.33707,-0.392642 0.526,0.866776 h 0.33337 l -0.68527,-1.077914 0.60378,-0.722313 h -0.33708 l -0.76676,0.948268 h -0.0111 v -1.78541 h -0.30004 z"
       style="font-family:'Source Sans Pro';-inkscape-font-specification:'Source Sans Pro';stroke:none"
       id="path41325" />
    <path
       d="m 101.90142,56.220076 c 0,0.322263 0.22596,0.511176 0.5297,0.511176 0.22225,0 0.42227,-0.118533 0.59637,-0.259292 h 0.007 l 0.0259,0.214842 h 0.25188 v -1.103843 c 0,-0.448204 -0.18521,-0.740834 -0.626,-0.740834 -0.28893,0 -0.54081,0.125942 -0.7075,0.233363 l 0.12224,0.211138 c 0.14076,-0.09631 0.32596,-0.192617 0.5371,-0.192617 0.29263,0 0.37042,0.22225 0.37042,0.451909 -0.76676,0.08519 -1.10755,0.281516 -1.10755,0.674158 z m 0.30004,-0.02222 c 0,-0.229658 0.20373,-0.377825 0.80751,-0.451908 v 0.500063 c -0.1741,0.155575 -0.31856,0.240771 -0.49266,0.240771 -0.1778,0 -0.31485,-0.0852 -0.31485,-0.288926 z"
       style="font-family:'Source Sans Pro';-inkscape-font-specification:'Source Sans Pro';stroke:none"
       id="path41327" />
  </g>
  <rect
     y="49.904301"
     x="127.1323"
     height="10.515591"
     width="28.553368"
     id="rect38524"
     style="fill:#1d232d;fill-opacity:1;stroke:#2f3744;stroke-width:0.264583;stroke-linecap:round;stroke-miterlimit:4;stroke-dasharray:none;stroke-opacity:1" />
  <g
     aria-label="Rendering"
     id="text38528"
     style="font-size:3.70417px;line-height:1.25;font-family:'Small Fonts';-inkscape-font-specification:'Small Fonts';text-align:center;text-anchor:middle;fill:#e8eaec;stroke:#cf2f25;stroke-width:0.264583;stroke-linecap:round">
    <path
       d="m 133.26352,54.505046 h 0.40746 c 0.37782,0 0.58526,0.114829 0.58526,0.433388 0,0.314854 -0.20744,0.470429 -0.58526,0.470429 h -0.40746 z m 1.37425,2.181756 -0.6186,-1.059393 c 0.32967,-0.0852 0.54451,-0.31115 0.54451,-0.688975 0,-0.503767 -0.3556,-0.681568 -0.84825,-0.681568 h -0.76306 v 2.429936 h 0.31115 v -1.026055 h 0.43709 l 0.58526,1.026055 z"
       style="font-family:'Source Sans Pro';-inkscape-font-specification:'Source Sans Pro';stroke:none"
       id="path41330" />
    <path
       d="m 134.89706,55.790393 c 0,0.588963 0.38153,0.940859 0.86307,0.940859 0.24448,0 0.43709,-0.0852 0.59267,-0.185209 l -0.10742,-0.200025 c -0.13335,0.0852 -0.27782,0.140759 -0.44821,0.140759 -0.34449,0 -0.57785,-0.244475 -0.60007,-0.633413 h 1.21496 c 0.007,-0.04445 0.0111,-0.103717 0.0111,-0.166688 0,-0.51488 -0.25929,-0.844551 -0.71861,-0.844551 -0.41116,0 -0.80751,0.359305 -0.80751,0.948268 z m 0.29633,-0.137055 c 0.037,-0.363008 0.2667,-0.570442 0.51859,-0.570442 0.28151,0 0.4445,0.20373 0.4445,0.570442 z"
       style="font-family:'Source Sans Pro';-inkscape-font-specification:'Source Sans Pro';stroke:none"
       id="path41332" />
    <path
       d="m 136.86768,56.686802 h 0.30374 v -1.303868 c 0.18151,-0.181504 0.30745,-0.277813 0.49266,-0.277813 0.23706,0 0.34078,0.144463 0.34078,0.481542 v 1.100139 h 0.30374 v -1.140884 c 0,-0.459318 -0.17039,-0.703793 -0.54822,-0.703793 -0.24818,0 -0.43338,0.13335 -0.60378,0.303742 h -0.0111 l -0.0259,-0.259292 h -0.25188 z"
       style="font-family:'Source Sans Pro';-inkscape-font-specification:'Source Sans Pro';stroke:none"
       id="path41334" />
    <path
       d="m 138.76422,55.790393 c 0,0.600075 0.29263,0.940859 0.74454,0.940859 0.21113,0 0.40375,-0.118533 0.54451,-0.255588 h 0.0111 l 0.0259,0.211138 h 0.25188 v -2.637369 h -0.30744 v 0.69268 l 0.0148,0.307446 c -0.15928,-0.129646 -0.29633,-0.207434 -0.50376,-0.207434 -0.41117,0 -0.78158,0.363009 -0.78158,0.948268 z m 0.31485,-0.0037 c 0,-0.411163 0.22966,-0.688976 0.51859,-0.688976 0.14816,0 0.28522,0.05186 0.43709,0.188913 v 0.940859 c -0.14817,0.166687 -0.29263,0.248179 -0.45932,0.248179 -0.31485,0 -0.49636,-0.259292 -0.49636,-0.688975 z"
       style="font-family:'Source Sans Pro';-inkscape-font-specification:'Source Sans Pro';stroke:none"
       id="path41336" />
    <path
       d="m 140.81633,55.790393 c 0,0.588963 0.38153,0.940859 0.86307,0.940859 0.24448,0 0.43709,-0.0852 0.59267,-0.185209 l -0.10742,-0.200025 c -0.13335,0.0852 -0.27782,0.140759 -0.44821,0.140759 -0.34449,0 -0.57785,-0.244475 -0.60007,-0.633413 h 1.21496 c 0.007,-0.04445 0.0111,-0.103717 0.0111,-0.166688 0,-0.51488 -0.2593,-0.844551 -0.71861,-0.844551 -0.41117,0 -0.80751,0.359305 -0.80751,0.948268 z m 0.29633,-0.137055 c 0.037,-0.363008 0.2667,-0.570442 0.51859,-0.570442 0.28151,0 0.4445,0.20373 0.4445,0.570442 z"
       style="font-family:'Source Sans Pro';-inkscape-font-specification:'Source Sans Pro';stroke:none"
       id="path41338" />
    <path
       d="m 142.78695,56.686802 h 0.30374 v -1.155701 c 0.12224,-0.303742 0.30374,-0.414867 0.45561,-0.414867 0.0741,0 0.11483,0.01111 0.1741,0.02963 l 0.0593,-0.2667 c -0.0593,-0.02593 -0.11483,-0.03704 -0.19262,-0.03704 -0.20373,0 -0.38894,0.144463 -0.51118,0.370417 h -0.0111 l -0.0259,-0.325967 h -0.25188 z"
       style="font-family:'Source Sans Pro';-inkscape-font-specification:'Source Sans Pro';stroke:none"
       id="path41340" />
    <path
       d="m 144.22787,54.516158 c 0.11853,0 0.21114,-0.08149 0.21114,-0.196321 0,-0.118533 -0.0926,-0.196321 -0.21114,-0.196321 -0.11853,0 -0.21114,0.07779 -0.21114,0.196321 0,0.11483 0.0926,0.196321 0.21114,0.196321 z m -0.15557,2.170644 h 0.30374 v -1.800227 h -0.30374 z"
       style="font-family:'Source Sans Pro';-inkscape-font-specification:'Source Sans Pro';stroke:none"
       id="path41342" />
    <path
       d="m 144.98352,56.686802 h 0.30374 v -1.303868 c 0.18151,-0.181504 0.30745,-0.277813 0.49266,-0.277813 0.23707,0 0.34078,0.144463 0.34078,0.481542 v 1.100139 h 0.30374 v -1.140884 c 0,-0.459318 -0.17039,-0.703793 -0.54821,-0.703793 -0.24818,0 -0.43339,0.13335 -0.60378,0.303742 h -0.0111 l -0.0259,-0.259292 h -0.25189 z"
       style="font-family:'Source Sans Pro';-inkscape-font-specification:'Source Sans Pro';stroke:none"
       id="path41344" />
    <path
       d="m 147.13935,56.990544 c 0,-0.103717 0.0556,-0.211138 0.18521,-0.303742 0.0778,0.02222 0.16298,0.02963 0.23336,0.02963 h 0.31115 c 0.23337,0 0.36301,0.05556 0.36301,0.22225 0,0.188913 -0.22595,0.366713 -0.57044,0.366713 -0.32597,0 -0.52229,-0.122237 -0.52229,-0.314854 z m -0.2667,0.04075 c 0,0.31115 0.30374,0.485246 0.74454,0.485246 0.55933,0 0.91123,-0.288925 0.91123,-0.622301 0,-0.300037 -0.21114,-0.429683 -0.62971,-0.429683 h -0.34819 c -0.24448,0 -0.31856,-0.08149 -0.31856,-0.196321 0,-0.100013 0.0519,-0.15928 0.11483,-0.214842 0.0815,0.04075 0.1815,0.06297 0.2704,0.06297 0.36671,0 0.65934,-0.240771 0.65934,-0.626005 0,-0.151871 -0.063,-0.288925 -0.14816,-0.370417 h 0.37041 v -0.233363 h -0.626 c -0.0667,-0.02593 -0.15558,-0.04445 -0.25559,-0.04445 -0.36671,0 -0.67786,0.24818 -0.67786,0.640822 0,0.214842 0.11483,0.388938 0.23336,0.485246 v 0.01482 c -0.0926,0.06297 -0.19632,0.181504 -0.19632,0.333375 0,0.140758 0.0704,0.237067 0.15928,0.292629 v 0.01482 c -0.16299,0.111125 -0.263,0.255588 -0.263,0.407459 z m 0.74454,-1.11866 c -0.20743,0 -0.38153,-0.166687 -0.38153,-0.429683 0,-0.262996 0.17039,-0.418572 0.38153,-0.418572 0.21114,0 0.38153,0.155576 0.38153,0.418572 0,0.262996 -0.1741,0.429683 -0.38153,0.429683 z"
       style="font-family:'Source Sans Pro';-inkscape-font-specification:'Source Sans Pro';stroke:none"
       id="path41346" />
  </g>
  <rect
     style="fill:#1d232d;fill-opacity:1;stroke:#2f3744;stroke-width:0.264583;stroke-linecap:round;stroke-miterlimit:4;stroke-dasharray:none;stroke-opacity:1"
     id="rect38530"
     width="28.553368"
     height="10.515591"
     x="169.46562"
     y="49.904301" />
  <g
     aria-label="Audio"
     id="text38534"
     style="font-size:3.70417px;line-height:1.25;font-family:'Small Fonts';-inkscape-font-specification:'Small Fonts';text-align:center;text-anchor:middle;fill:#e8eaec;stroke:#cf2f25;stroke-width:0.264583;stroke-linecap:round">
    <path
       d="m 179.60981,55.697789 0.11854,-0.370417 c 0.0852,-0.270405 0.16298,-0.537105 0.24077,-0.818622 h 0.0148 c 0.0778,0.281517 0.15557,0.548217 0.24077,0.818622 l 0.11483,0.370417 z m 1.04088,0.989013 h 0.32596 l -0.82232,-2.429936 h -0.34819 l -0.82233,2.429936 h 0.31485 l 0.23337,-0.740834 h 0.88529 z"
       style="font-family:'Source Sans Pro';-inkscape-font-specification:'Source Sans Pro';stroke:none"
       id="path41349" />
    <path
       d="m 181.23224,56.02746 c 0,0.459317 0.17039,0.703792 0.55192,0.703792 0.24818,0 0.42598,-0.129646 0.59267,-0.325967 h 0.0111 l 0.0259,0.281517 h 0.25188 v -1.800227 h -0.30374 v 1.277939 c -0.17039,0.211138 -0.30004,0.303742 -0.48524,0.303742 -0.23707,0 -0.33708,-0.144463 -0.33708,-0.481542 v -1.100139 h -0.30745 z"
       style="font-family:'Source Sans Pro';-inkscape-font-specification:'Source Sans Pro';stroke:none"
       id="path41351" />
    <path
       d="m 183.14359,55.790393 c 0,0.600075 0.29263,0.940859 0.74454,0.940859 0.21114,0 0.40376,-0.118533 0.54451,-0.255588 h 0.0111 l 0.0259,0.211138 h 0.25188 v -2.637369 h -0.30745 v 0.69268 l 0.0148,0.307446 c -0.15928,-0.129646 -0.29633,-0.207434 -0.50377,-0.207434 -0.41116,0 -0.78158,0.363009 -0.78158,0.948268 z m 0.31486,-0.0037 c 0,-0.411163 0.22966,-0.688976 0.51858,-0.688976 0.14817,0 0.28522,0.05186 0.43709,0.188913 v 0.940859 c -0.14816,0.166687 -0.29263,0.248179 -0.45931,0.248179 -0.31486,0 -0.49636,-0.259292 -0.49636,-0.688975 z"
       style="font-family:'Source Sans Pro';-inkscape-font-specification:'Source Sans Pro';stroke:none"
       id="path41353" />
    <path
       d="m 185.48463,54.516158 c 0.11853,0 0.21114,-0.08149 0.21114,-0.196321 0,-0.118533 -0.0926,-0.196321 -0.21114,-0.196321 -0.11853,0 -0.21114,0.07779 -0.21114,0.196321 0,0.11483 0.0926,0.196321 0.21114,0.196321 z m -0.15558,2.170644 h 0.30375 v -1.800227 h -0.30375 z"
       style="font-family:'Source Sans Pro';-inkscape-font-specification:'Source Sans Pro';stroke:none"
       id="path41355" />
    <path
       d="m 186.10693,55.790393 c 0,0.596371 0.39264,0.940859 0.83344,0.940859 0.4408,0 0.83344,-0.344488 0.83344,-0.940859 0,-0.60378 -0.39264,-0.948268 -0.83344,-0.948268 -0.4408,0 -0.83344,0.344488 -0.83344,0.948268 z m 0.31486,0 c 0,-0.414867 0.21113,-0.696384 0.51858,-0.696384 0.31115,0 0.51858,0.281517 0.51858,0.696384 0,0.411163 -0.20743,0.688975 -0.51858,0.688975 -0.30745,0 -0.51858,-0.277812 -0.51858,-0.688975 z"
       style="font-family:'Source Sans Pro';-inkscape-font-specification:'Source Sans Pro';stroke:none"
       id="path41357" />
  </g>
  <path
     sodipodi:nodetypes="cssc"
     inkscape:connector-curvature="0"
     d="m 65.076653,60.419902 c 0,3.21477 2.60606,5.82084 5.82083,5.82084 3.21477,0 5.82083,-2.60607 5.82083,-5.82084 0,-3.21476 -2.0769,-5.55625 -5.29166,-5.55625"
     style="fill:none;fill-opacity:1;stroke:#6f8ce9;stroke-width:0.264583;stroke-linecap:square;stroke-miterlimit:40;stroke-dasharray:none;stroke-dashoffset:1.2;stroke-opacity:1"
     id="path38536" />
  <g
     style="fill:#47d58a;fill-opacity:1;stroke-width:123.849"
     id="g38540"
     transform="matrix(-0.00408727,-0.00111466,0.00113375,-0.00415727,72.824573,56.256902)">
    <path
       style="fill:#6f8ce9;fill-opacity:1;stroke-width:123.849"
       inkscape:connector-curvature="0"
       d="M 486.413,221.412 122.347,12.916 C 69.409,-17.402 26.495,7.476 26.495,68.479 v 415.652 c 0,61.004 42.914,85.882 95.852,55.563 l 364.066,-208.49 c 52.938,-30.317 52.938,-79.473 0,-109.792 z"
       id="path38538" />
  </g>
  <path
     id="path38542"
     style="fill:none;fill-opacity:1;stroke:#6f8ce9;stroke-width:0.264583;stroke-linecap:square;stroke-miterlimit:40;stroke-dasharray:none;stroke-dashoffset:1.2;stroke-opacity:1"
     d="m 22.743316,60.419902 c 0,3.21477 2.606067,5.82084 5.820837,5.82084 3.21476,0 5.82083,-2.60607 5.82083,-5.82084 0,-3.21476 -2.0769,-5.55625 -5.29167,-5.55625"
     inkscape:connector-curvature="0"
     sodipodi:nodetypes="cssc" />
  <g
     transform="matrix(-0.00408727,-0.00111466,0.00113375,-0.00415727,30.491243,56.256902)"
     id="g38546"
     style="fill:#47d58a;fill-opacity:1;stroke-width:123.849">
    <path
       id="path38544"
       d="M 486.413,221.412 122.347,12.916 C 69.409,-17.402 26.495,7.476 26.495,68.479 v 415.652 c 0,61.004 42.914,85.882 95.852,55.563 l 364.066,-208.49 c 52.938,-30.317 52.938,-79.473 0,-109.792 z"
       inkscape:connector-curvature="0"
       style="fill:#6f8ce9;fill-opacity:1;stroke-width:123.849" />
  </g>
  <path
     sodipodi:nodetypes="cssc"
     inkscape:connector-curvature="0"
     d="m 107.40998,60.419902 c 0,3.21477 2.60607,5.82084 5.82083,5.82084 3.21477,0 5.82084,-2.60607 5.82084,-5.82084 0,-3.21476 -2.0769,-5.55625 -5.29167,-5.55625"
     style="fill:none;fill-opacity:1;stroke:#6f8ce9;stroke-width:0.264583;stroke-linecap:square;stroke-miterlimit:40;stroke-dasharray:none;stroke-dashoffset:1.2;stroke-opacity:1"
     id="path38548" />
  <g
     style="fill:#47d58a;fill-opacity:1;stroke-width:123.849"
     id="g38552"
     transform="matrix(-0.00408727,-0.00111466,0.00113375,-0.00415727,115.1579,56.256902)">
    <path
       style="fill:#6f8ce9;fill-opacity:1;stroke-width:123.849"
       inkscape:connector-curvature="0"
       d="M 486.413,221.412 122.347,12.916 C 69.409,-17.402 26.495,7.476 26.495,68.479 v 415.652 c 0,61.004 42.914,85.882 95.852,55.563 l 364.066,-208.49 c 52.938,-30.317 52.938,-79.473 0,-109.792 z"
       id="path38550" />
  </g>
  <path
     id="path38554"
     style="fill:none;fill-opacity:1;stroke:#6f8ce9;stroke-width:0.264583;stroke-linecap:square;stroke-miterlimit:40;stroke-dasharray:none;stroke-dashoffset:1.2;stroke-opacity:1"
     d="m 149.74331,60.419902 c 0,3.21477 2.60607,5.82084 5.82083,5.82084 3.21477,0 5.82084,-2.60607 5.82084,-5.82084 0,-3.21476 -2.0769,-5.55625 -5.29167,-5.55625"
     inkscape:connector-curvature="0"
     sodipodi:nodetypes="cssc" />
  <g
     transform="matrix(-0.00408727,-0.00111466,0.00113375,-0.00415727,157.49124,56.256902)"
     id="g38558"
     style="fill:#47d58a;fill-opacity:1;stroke-width:123.849">
    <path
       id="path38556"
       d="M 486.413,221.412 122.347,12.916 C 69.409,-17.402 26.495,7.476 26.495,68.479 v 415.652 c 0,61.004 42.914,85.882 95.852,55.563 l 364.066,-208.49 c 52.938,-30.317 52.938,-79.473 0,-109.792 z"
       inkscape:connector-curvature="0"
       style="fill:#6f8ce9;fill-opacity:1;stroke-width:123.849" />
  </g>
  <path
     sodipodi:nodetypes="cssc"
     inkscape:connector-curvature="0"
     d="m 192.07664,60.419902 c 0,3.21477 2.60607,5.82084 5.82084,5.82084 3.21476,0 5.82083,-2.60607 5.82083,-5.82084 0,-3.21476 -2.0769,-5.55625 -5.29167,-5.55625"
     style="fill:none;fill-opacity:1;stroke:#6f8ce9;stroke-width:0.264583;stroke-linecap:square;stroke-miterlimit:40;stroke-dasharray:none;stroke-dashoffset:1.2;stroke-opacity:1"
     id="path38560" />
  <g
     style="fill:#47d58a;fill-opacity:1;stroke-width:123.849"
     id="g38564"
     transform="matrix(-0.00408727,-0.00111466,0.00113375,-0.00415727,199.82457,56.256902)">
    <path
       style="fill:#6f8ce9;fill-opacity:1;stroke-width:123.849"
       inkscape:connector-curvature="0"
       d="M 486.413,221.412 122.347,12.916 C 69.409,-17.402 26.495,7.476 26.495,68.479 v 415.652 c 0,61.004 42.914,85.882 95.852,55.563 l 364.066,-208.49 c 52.938,-30.317 52.938,-79.473 0,-109.792 z"
       id="path38562" />
  </g>
  <circle
     transform="scale(1,-1)"
     r="0.52916664"
     cy="-81.851166"
     cx="98.943321"
     id="circle38566"
     style="fill:#6f8ce9;fill-opacity:1;stroke:none;stroke-width:0.264583;stroke-linecap:round;stroke-miterlimit:4;stroke-dasharray:none;stroke-opacity:1" />
  <path
     style="fill:#1d232d;fill-opacity:1;stroke:#6f8ce9;stroke-width:0.264583;stroke-linecap:round;stroke-miterlimit:4;stroke-dasharray:none;stroke-opacity:1"
     d="M 92.328733,82.380322 H 105.5579"
     id="path38568"
     inkscape:connector-curvature="0"
     sodipodi:nodetypes="cc" />
  <circle
     transform="scale(1,-1)"
     style="fill:#6f8ce9;fill-opacity:1;stroke:none;stroke-width:0.264583;stroke-linecap:round;stroke-miterlimit:4;stroke-dasharray:none;stroke-opacity:1"
     id="circle38570"
     cx="96.297478"
     cy="-81.851166"
     r="0.52916664" />
  <circle
     transform="scale(1,-1)"
     r="0.52916664"
     cy="-82.909485"
     cx="98.943321"
     id="circle38572"
     style="fill:#6f8ce9;fill-opacity:1;stroke:none;stroke-width:0.264583;stroke-linecap:round;stroke-miterlimit:4;stroke-dasharray:none;stroke-opacity:1" />
  <circle
     r="0.52916664"
     cy="-81.851166"
     cx="93.651649"
     id="circle38574"
     style="fill:#6f8ce9;fill-opacity:1;stroke:none;stroke-width:0.264583;stroke-linecap:round;stroke-miterlimit:4;stroke-dasharray:none;stroke-opacity:1"
     transform="scale(1,-1)" />
  <circle
     transform="scale(1,-1)"
     style="fill:#6f8ce9;fill-opacity:1;stroke:none;stroke-width:0.264583;stroke-linecap:round;stroke-miterlimit:4;stroke-dasharray:none;stroke-opacity:1"
     id="circle38576"
     cx="101.58915"
     cy="-81.851166"
     r="0.52916664" />
  <circle
     r="0.52916664"
     cy="-81.851166"
     cx="104.23498"
     id="circle38578"
     style="fill:#6f8ce9;fill-opacity:1;stroke:none;stroke-width:0.264583;stroke-linecap:round;stroke-miterlimit:4;stroke-dasharray:none;stroke-opacity:1"
     transform="scale(1,-1)" />
  <path
     style="fill:none;fill-opacity:1;stroke:#6f8ce9;stroke-width:0.264583;stroke-linecap:square;stroke-miterlimit:40;stroke-dasharray:none;stroke-dashoffset:1.2;stroke-opacity:1"
     d="m 14.27665,60.419902 v 11.90625 h 79.375003 v 9.26042"
     id="path38580"
     inkscape:connector-curvature="0"
     sodipodi:nodetypes="cccc" />
  <path
     sodipodi:nodetypes="cccc"
     inkscape:connector-curvature="0"
     id="path38582"
     d="m 56.609983,60.419902 v 9.26042 h 39.6875 v 11.90625"
     style="fill:none;fill-opacity:1;stroke:#6f8ce9;stroke-width:0.264583;stroke-linecap:square;stroke-miterlimit:40;stroke-dasharray:none;stroke-dashoffset:1.2;stroke-opacity:1" />
  <path
     style="fill:none;fill-opacity:1;stroke:#6f8ce9;stroke-width:0.264583;stroke-linecap:square;stroke-miterlimit:40;stroke-dasharray:none;stroke-dashoffset:1.2;stroke-opacity:1"
     d="m 98.943313,60.419902 v 11.90625 0 9.26042"
     id="path38584"
     inkscape:connector-curvature="0"
     sodipodi:nodetypes="cccc" />
  <path
     sodipodi:nodetypes="cccc"
     inkscape:connector-curvature="0"
     id="path38586"
     d="m 141.27665,60.419902 v 9.26042 h -39.6875 v 11.90625"
     style="fill:none;fill-opacity:1;stroke:#6f8ce9;stroke-width:0.264583;stroke-linecap:square;stroke-miterlimit:40;stroke-dasharray:none;stroke-dashoffset:1.2;stroke-opacity:1" />
  <path
     style="fill:none;fill-opacity:1;stroke:#6f8ce9;stroke-width:0.264583;stroke-linecap:square;stroke-miterlimit:40;stroke-dasharray:none;stroke-dashoffset:1.2;stroke-opacity:1"
     d="m 183.60998,60.419902 v 11.90625 h -79.375 v 9.26042"
     id="path38588"
     inkscape:connector-curvature="0"
     sodipodi:nodetypes="cccc" />
  <circle
     style="fill:#6f8ce9;fill-opacity:1;stroke:none;stroke-width:0.264583;stroke-linecap:round;stroke-miterlimit:4;stroke-dasharray:none;stroke-opacity:1"
     id="circle38590"
     cx="98.943321"
     cy="28.93449"
     r="0.52916664" />
  <path
     sodipodi:nodetypes="cc"
     inkscape:connector-curvature="0"
     id="path38592"
     d="M 92.328733,28.405323 H 105.5579"
     style="fill:#1d232d;fill-opacity:1;stroke:#6f8ce9;stroke-width:0.264583;stroke-linecap:round;stroke-miterlimit:4;stroke-dasharray:none;stroke-opacity:1" />
  <circle
     r="0.52916664"
     cy="28.93449"
     cx="96.297478"
     id="circle38594"
     style="fill:#6f8ce9;fill-opacity:1;stroke:none;stroke-width:0.264583;stroke-linecap:round;stroke-miterlimit:4;stroke-dasharray:none;stroke-opacity:1" />
  <circle
     style="fill:#6f8ce9;fill-opacity:1;stroke:none;stroke-width:0.264583;stroke-linecap:round;stroke-miterlimit:4;stroke-dasharray:none;stroke-opacity:1"
     id="circle38596"
     cx="98.943321"
     cy="27.876156"
     r="0.52916664" />
  <circle
     style="fill:#6f8ce9;fill-opacity:1;stroke:none;stroke-width:0.264583;stroke-linecap:round;stroke-miterlimit:4;stroke-dasharray:none;stroke-opacity:1"
     id="circle38598"
     cx="93.651649"
     cy="28.93449"
     r="0.52916664" />
  <circle
     r="0.52916664"
     cy="28.93449"
     cx="101.58915"
     id="circle38600"
     style="fill:#6f8ce9;fill-opacity:1;stroke:none;stroke-width:0.264583;stroke-linecap:round;stroke-miterlimit:4;stroke-dasharray:none;stroke-opacity:1" />
  <circle
     style="fill:#6f8ce9;fill-opacity:1;stroke:none;stroke-width:0.264583;stroke-linecap:round;stroke-miterlimit:4;stroke-dasharray:none;stroke-opacity:1"
     id="circle38602"
     cx="104.23498"
     cy="28.93449"
     r="0.52916664" />
  <path
     sodipodi:nodetypes="cccc"
     inkscape:connector-curvature="0"
     id="path38604"
     d="M 14.27665,48.513652 V 36.607406 H 93.651653 V 28.93449"
     style="fill:none;fill-opacity:1;stroke:#6f8ce9;stroke-width:0.264583;stroke-linecap:square;stroke-miterlimit:40;stroke-dasharray:none;stroke-dashoffset:1.2;stroke-opacity:1" />
  <path
     style="fill:none;fill-opacity:1;stroke:#6f8ce9;stroke-width:0.264583;stroke-linecap:square;stroke-miterlimit:40;stroke-dasharray:none;stroke-dashoffset:1.2;stroke-opacity:1"
     d="M 56.609983,48.513652 V 39.25324 h 39.6875 V 28.93449"
     id="path38606"
     inkscape:connector-curvature="0"
     sodipodi:nodetypes="cccc" />
  <path
     sodipodi:nodetypes="cccc"
     inkscape:connector-curvature="0"
     id="path38608"
     d="m 98.943313,48.513652 v -11.906246 0 -7.672916"
     style="fill:none;fill-opacity:1;stroke:#6f8ce9;stroke-width:0.264583;stroke-linecap:square;stroke-miterlimit:40;stroke-dasharray:none;stroke-dashoffset:1.2;stroke-opacity:1" />
  <path
     style="fill:none;fill-opacity:1;stroke:#6f8ce9;stroke-width:0.264583;stroke-linecap:square;stroke-miterlimit:40;stroke-dasharray:none;stroke-dashoffset:1.2;stroke-opacity:1"
     d="M 141.27665,48.513652 V 39.25324 h -39.6875 V 28.93449"
     id="path38610"
     inkscape:connector-curvature="0"
     sodipodi:nodetypes="cccc" />
  <path
     sodipodi:nodetypes="cccc"
     inkscape:connector-curvature="0"
     id="path38612"
     d="M 183.60998,48.513652 V 36.607406 h -79.375 V 28.93449"
     style="fill:none;fill-opacity:1;stroke:#6f8ce9;stroke-width:0.264583;stroke-linecap:square;stroke-miterlimit:40;stroke-dasharray:none;stroke-dashoffset:1.2;stroke-opacity:1" />
  <g
     style="fill:#47d58a;fill-opacity:1;stroke-width:123.849"
     id="g38616"
     transform="matrix(0,0.00423654,-0.00430909,0,57.849393,47.506812)">
    <path
       style="fill:#6f8ce9;fill-opacity:1;stroke-width:123.849"
       inkscape:connector-curvature="0"
       d="M 486.413,221.412 122.347,12.916 C 69.409,-17.402 26.495,7.476 26.495,68.479 v 415.652 c 0,61.004 42.914,85.882 95.852,55.563 l 364.066,-208.49 c 52.938,-30.317 52.938,-79.473 0,-109.792 z"
       id="path38614" />
  </g>
  <g
     transform="matrix(0,0.00423654,-0.00430909,0,15.516064,47.506812)"
     id="g38620"
     style="fill:#47d58a;fill-opacity:1;stroke-width:123.849">
    <path
       id="path38618"
       d="M 486.413,221.412 122.347,12.916 C 69.409,-17.402 26.495,7.476 26.495,68.479 v 415.652 c 0,61.004 42.914,85.882 95.852,55.563 l 364.066,-208.49 c 52.938,-30.317 52.938,-79.473 0,-109.792 z"
       inkscape:connector-curvature="0"
       style="fill:#6f8ce9;fill-opacity:1;stroke-width:123.849" />
  </g>
  <g
     style="fill:#47d58a;fill-opacity:1;stroke-width:123.849"
     id="g38624"
     transform="matrix(0,0.00423654,-0.00430909,0,142.51606,47.506812)">
    <path
       style="fill:#6f8ce9;fill-opacity:1;stroke-width:123.849"
       inkscape:connector-curvature="0"
       d="M 486.413,221.412 122.347,12.916 C 69.409,-17.402 26.495,7.476 26.495,68.479 v 415.652 c 0,61.004 42.914,85.882 95.852,55.563 l 364.066,-208.49 c 52.938,-30.317 52.938,-79.473 0,-109.792 z"
       id="path38622" />
  </g>
  <g
     transform="matrix(0,0.00423654,-0.00430909,0,184.84939,47.506812)"
     id="g38628"
     style="fill:#47d58a;fill-opacity:1;stroke-width:123.849">
    <path
       id="path38626"
       d="M 486.413,221.412 122.347,12.916 C 69.409,-17.402 26.495,7.476 26.495,68.479 v 415.652 c 0,61.004 42.914,85.882 95.852,55.563 l 364.066,-208.49 c 52.938,-30.317 52.938,-79.473 0,-109.792 z"
       inkscape:connector-curvature="0"
       style="fill:#6f8ce9;fill-opacity:1;stroke-width:123.849" />
  </g>
  <path
     inkscape:export-ydpi="96"
     inkscape:export-xdpi="96"
     style="fill:none;fill-opacity:1;stroke:#6f8ce9;stroke-width:0.264583;stroke-linecap:round;stroke-miterlimit:4;stroke-dasharray:none;stroke-opacity:1"
     d="m 98.986783,2.3677037 v 5.986224"
     id="path38630"
     inkscape:connector-curvature="0"
     sodipodi:nodetypes="cc" />
  <g
     style="fill:#6f8ce9;fill-opacity:1;stroke-width:123.849"
     id="g38634"
     transform="matrix(0,0.00423654,-0.00430909,0,100.18273,7.8193107)">
    <path
       style="fill:#6f8ce9;fill-opacity:1;stroke-width:123.849"
       inkscape:connector-curvature="0"
       d="M 486.413,221.412 122.347,12.916 C 69.409,-17.402 26.495,7.476 26.495,68.479 v 415.652 c 0,61.004 42.914,85.882 95.852,55.563 l 364.066,-208.49 c 52.938,-30.317 52.938,-79.473 0,-109.792 z"
       id="path38632" />
  </g>
  <circle
     style="fill:#1d232d;fill-opacity:1;stroke:#6f8ce9;stroke-width:0.336169;stroke-linecap:round;stroke-miterlimit:4;stroke-dasharray:none;stroke-opacity:1"
     id="circle38636"
     cx="98.992348"
     cy="1.8489342"
     r="1.6808497" />
  <circle
     r="0.67233986"
     cy="1.8489342"
     cx="98.992348"
     id="circle38638"
     style="fill:#6f8ce9;fill-opacity:1;stroke:none;stroke-width:0.336169;stroke-linecap:round;stroke-miterlimit:4;stroke-dasharray:none;stroke-opacity:1" />
</svg>
