<?xml version="1.0" encoding="UTF-8"?>
<svg width="57.15mm" height="94.948mm" version="1.1" viewBox="0 0 57.15 94.948" xmlns="http://www.w3.org/2000/svg" xmlns:cc="http://creativecommons.org/ns#" xmlns:dc="http://purl.org/dc/elements/1.1/" xmlns:rdf="http://www.w3.org/1999/02/22-rdf-syntax-ns#">
 <metadata>
  <rdf:RDF>
   <cc:Work rdf:about="">
    <dc:format>image/svg+xml</dc:format>
    <dc:type rdf:resource="http://purl.org/dc/dcmitype/StillImage"/>
    <dc:title/>
   </cc:Work>
  </rdf:RDF>
 </metadata>
 <g transform="translate(-208.74 -58.457)">
  <g stroke-linecap="round" stroke-width=".26458">
   <rect x="208.87" y="68.673" width="43.656" height="10.516" fill="#1d232d" stroke="#2f3744"/>
   <g fill="#e8eaec" aria-label="Initialization">
    <path d="m221.05 75.456h0.31115v-2.4299h-0.31115z"/>
    <path d="m221.98 75.456h0.30374v-1.3039c0.1815-0.1815 0.30745-0.27781 0.49265-0.27781 0.23707 0 0.34079 0.14446 0.34079 0.48154v1.1001h0.30374v-1.1409c0-0.45932-0.17039-0.70379-0.54822-0.70379-0.24818 0-0.43338 0.13335-0.60378 0.30374h-0.0111l-0.0259-0.25929h-0.25188z"/>
    <path d="m224.16 73.285c0.11854 0 0.21114-0.08149 0.21114-0.19632 0-0.11853-0.0926-0.19632-0.21114-0.19632-0.11853 0-0.21114 0.07779-0.21114 0.19632 0 0.11483 0.0926 0.19632 0.21114 0.19632zm-0.15557 2.1706h0.30374v-1.8002h-0.30374z"/>
    <path d="m224.97 74.9c0 0.3556 0.12964 0.60008 0.51488 0.60008 0.11112 0 0.23336-0.03334 0.33337-0.06668l-0.0593-0.22966c-0.0593 0.02223-0.14076 0.04815-0.20373 0.04815-0.20744 0-0.27782-0.12594-0.27782-0.34819v-1.0001h0.48525v-0.24818h-0.48525v-0.50377h-0.25558l-0.0371 0.50377-0.28151 0.01852v0.22966h0.2667z"/>
    <path d="m226.33 73.285c0.11853 0 0.21114-0.08149 0.21114-0.19632 0-0.11853-0.0926-0.19632-0.21114-0.19632-0.11853 0-0.21114 0.07779-0.21114 0.19632 0 0.11483 0.0926 0.19632 0.21114 0.19632zm-0.15558 2.1706h0.30375v-1.8002h-0.30375z"/>
    <path d="m227 74.989c0 0.32226 0.22595 0.51118 0.52969 0.51118 0.22225 0 0.42228-0.11853 0.59637-0.25929h7e-3l0.0259 0.21484h0.25189v-1.1038c0-0.4482-0.18521-0.74083-0.62601-0.74083-0.28892 0-0.54081 0.12594-0.7075 0.23336l0.12224 0.21114c0.14076-0.09631 0.32597-0.19262 0.53711-0.19262 0.29263 0 0.37041 0.22225 0.37041 0.45191-0.76676 0.0852-1.1075 0.28152-1.1075 0.67416zm0.30003-0.02223c0-0.22966 0.20373-0.37782 0.80751-0.45191v0.50006c-0.17409 0.15558-0.31855 0.24077-0.49265 0.24077-0.1778 0-0.31486-0.0852-0.31486-0.28893z"/>
    <path d="m228.98 75.093c0 0.263 0.0926 0.40746 0.32226 0.40746 0.0815 0 0.13335-0.01111 0.1741-0.02963l-0.0408-0.22966c-0.0333 0.0074-0.0481 0.0074-0.0667 0.0074-0.0445 0-0.0852-0.03704-0.0852-0.13335v-2.2966h-0.30374z"/>
    <path d="m230.08 73.285c0.11853 0 0.21114-0.08149 0.21114-0.19632 0-0.11853-0.0926-0.19632-0.21114-0.19632-0.11853 0-0.21114 0.07779-0.21114 0.19632 0 0.11483 0.0926 0.19632 0.21114 0.19632zm-0.15557 2.1706h0.30374v-1.8002h-0.30374z"/>
    <path d="m230.65 75.456h1.3631v-0.24818h-0.9779l0.94827-1.3891v-0.16298h-1.2298v0.24818h0.84455l-0.94826 1.3891z"/>
    <path d="m232.24 74.989c0 0.32226 0.22595 0.51118 0.5297 0.51118 0.22225 0 0.42227-0.11853 0.59637-0.25929h7e-3l0.0259 0.21484h0.25189v-1.1038c0-0.4482-0.18521-0.74083-0.62601-0.74083-0.28892 0-0.54081 0.12594-0.70749 0.23336l0.12223 0.21114c0.14076-0.09631 0.32597-0.19262 0.53711-0.19262 0.29263 0 0.37042 0.22225 0.37042 0.45191-0.76677 0.0852-1.1076 0.28152-1.1076 0.67416zm0.30004-0.02223c0-0.22966 0.20373-0.37782 0.80751-0.45191v0.50006c-0.1741 0.15558-0.31856 0.24077-0.49266 0.24077-0.1778 0-0.31485-0.0852-0.31485-0.28893z"/>
    <path d="m234.28 74.9c0 0.3556 0.12965 0.60008 0.51488 0.60008 0.11113 0 0.23336-0.03334 0.33338-0.06668l-0.0593-0.22966c-0.0593 0.02223-0.14076 0.04815-0.20373 0.04815-0.20743 0-0.27781-0.12594-0.27781-0.34819v-1.0001h0.48524v-0.24818h-0.48524v-0.50377h-0.25559l-0.037 0.50377-0.28152 0.01852v0.22966h0.2667z"/>
    <path d="m235.63 73.285c0.11854 0 0.21114-0.08149 0.21114-0.19632 0-0.11853-0.0926-0.19632-0.21114-0.19632-0.11853 0-0.21114 0.07779-0.21114 0.19632 0 0.11483 0.0926 0.19632 0.21114 0.19632zm-0.15557 2.1706h0.30374v-1.8002h-0.30374z"/>
    <path d="m236.25 74.559c0 0.59637 0.39264 0.94086 0.83344 0.94086 0.44079 0 0.83344-0.34449 0.83344-0.94086 0-0.60378-0.39265-0.94827-0.83344-0.94827-0.4408 0-0.83344 0.34449-0.83344 0.94827zm0.31485 0c0-0.41487 0.21114-0.69638 0.51859-0.69638 0.31115 0 0.51858 0.28152 0.51858 0.69638 0 0.41116-0.20743 0.68898-0.51858 0.68898-0.30745 0-0.51859-0.27781-0.51859-0.68898z"/>
    <path d="m238.4 75.456h0.30374v-1.3039c0.1815-0.1815 0.30745-0.27781 0.49265-0.27781 0.23707 0 0.34079 0.14446 0.34079 0.48154v1.1001h0.30374v-1.1409c0-0.45932-0.17039-0.70379-0.54822-0.70379-0.24818 0-0.43338 0.13335-0.60378 0.30374h-0.0111l-0.0259-0.25929h-0.25188z"/>
   </g>
   <rect x="208.87" y="87.194" width="43.656" height="10.516" fill="#1d232d" stroke="#2f3744"/>
   <g fill="#e8eaec" aria-label="Process Player Input">
    <path d="m214.98 93.977h0.31115v-0.96308h0.4371c0.52969 0 0.8964-0.24077 0.8964-0.75195 0-0.5334-0.3593-0.7149-0.8964-0.7149h-0.74825zm0.31115-1.215v-0.96679h0.39635c0.41857 0 0.62971 0.11483 0.62971 0.46672 0 0.34449-0.20373 0.50006-0.62971 0.50006z"/>
    <path d="m217.08 93.977h0.30374v-1.1557c0.12224-0.30374 0.30374-0.41487 0.45561-0.41487 0.0741 0 0.11483 0.01111 0.1741 0.02963l0.0593-0.2667c-0.0593-0.02593-0.11482-0.03704-0.19261-0.03704-0.20373 0-0.38894 0.14446-0.51118 0.37042h-0.0111l-0.0259-0.32597h-0.25188z"/>
    <path d="m218.2 93.08c0 0.59637 0.39264 0.94086 0.83344 0.94086s0.83344-0.34449 0.83344-0.94086c0-0.60378-0.39264-0.94827-0.83344-0.94827s-0.83344 0.34449-0.83344 0.94827zm0.31486 0c0-0.41487 0.21113-0.69638 0.51858-0.69638 0.31115 0 0.51858 0.28152 0.51858 0.69638 0 0.41116-0.20743 0.68898-0.51858 0.68898-0.30745 0-0.51858-0.27781-0.51858-0.68898z"/>
    <path d="m220.21 93.08c0 0.59637 0.36671 0.94086 0.84455 0.94086 0.21484 0 0.42228-0.0889 0.58526-0.23336l-0.13705-0.20002c-0.10743 0.09631-0.25189 0.1815-0.42228 0.1815-0.32967 0-0.55563-0.27781-0.55563-0.68898 0-0.41487 0.23707-0.69638 0.56304-0.69638 0.14446 0 0.25559 0.06668 0.36301 0.15928l0.15187-0.19632c-0.12224-0.11483-0.28893-0.21484-0.52599-0.21484-0.46303 0-0.86678 0.34449-0.86678 0.94827z"/>
    <path d="m221.81 93.08c0 0.58896 0.38152 0.94086 0.86307 0.94086 0.24447 0 0.43709-0.0852 0.59266-0.18521l-0.10742-0.20002c-0.13335 0.0852-0.27781 0.14076-0.4482 0.14076-0.34449 0-0.57785-0.24448-0.60008-0.63341h1.215c7e-3 -0.04445 0.0111-0.10372 0.0111-0.16669 0-0.51488-0.25929-0.84455-0.71861-0.84455-0.41116 0-0.8075 0.3593-0.8075 0.94827zm0.29633-0.13705c0.037-0.36301 0.2667-0.57044 0.51858-0.57044 0.28152 0 0.4445 0.20373 0.4445 0.57044z"/>
    <path d="m223.59 93.773c0.17039 0.14076 0.41486 0.24818 0.67045 0.24818 0.42598 0 0.65934-0.24448 0.65934-0.5371 0-0.34078-0.28892-0.4482-0.54821-0.54451-0.20373-0.07779-0.40006-0.14446-0.40006-0.31115 0-0.13705 0.10372-0.25929 0.32968-0.25929 0.15928 0 0.28892 0.06668 0.41116 0.15928l0.14446-0.19262c-0.13705-0.11112-0.33337-0.20373-0.55933-0.20373-0.38894 0-0.61859 0.22225-0.61859 0.51118 0 0.30374 0.28151 0.42598 0.5371 0.51858 0.19632 0.07408 0.41116 0.15558 0.41116 0.34078 0 0.15558-0.11853 0.28152-0.3556 0.28152-0.21484 0-0.37412-0.0889-0.52969-0.21484z"/>
    <path d="m225.14 93.773c0.17039 0.14076 0.41486 0.24818 0.67045 0.24818 0.42598 0 0.65934-0.24448 0.65934-0.5371 0-0.34078-0.28892-0.4482-0.54821-0.54451-0.20373-0.07779-0.40005-0.14446-0.40005-0.31115 0-0.13705 0.10371-0.25929 0.32967-0.25929 0.15928 0 0.28892 0.06668 0.41116 0.15928l0.14446-0.19262c-0.13705-0.11112-0.33337-0.20373-0.55933-0.20373-0.38893 0-0.61859 0.22225-0.61859 0.51118 0 0.30374 0.28151 0.42598 0.5371 0.51858 0.19632 0.07408 0.41116 0.15558 0.41116 0.34078 0 0.15558-0.11853 0.28152-0.3556 0.28152-0.21484 0-0.37412-0.0889-0.52969-0.21484z"/>
    <path d="m227.66 93.977h0.31115v-0.96308h0.43709c0.5297 0 0.89641-0.24077 0.89641-0.75195 0-0.5334-0.3593-0.7149-0.89641-0.7149h-0.74824zm0.31115-1.215v-0.96679h0.39635c0.41857 0 0.62971 0.11483 0.62971 0.46672 0 0.34449-0.20373 0.50006-0.62971 0.50006z"/>
    <path d="m229.75 93.614c0 0.263 0.0926 0.40746 0.32227 0.40746 0.0815 0 0.13335-0.01111 0.17409-0.02963l-0.0407-0.22966c-0.0333 0.0074-0.0482 0.0074-0.0667 0.0074-0.0445 0-0.0852-0.03704-0.0852-0.13335v-2.2966h-0.30375z"/>
    <path d="m230.61 93.51c0 0.32226 0.22595 0.51118 0.5297 0.51118 0.22225 0 0.42227-0.11853 0.59637-0.25929h7e-3l0.0259 0.21484h0.25188v-1.1038c0-0.4482-0.18521-0.74083-0.62601-0.74083-0.28892 0-0.5408 0.12594-0.70749 0.23336l0.12224 0.21114c0.14075-0.09631 0.32596-0.19262 0.5371-0.19262 0.29263 0 0.37042 0.22225 0.37042 0.45191-0.76677 0.08519-1.1076 0.28152-1.1076 0.67416zm0.30004-0.02222c0-0.22966 0.20373-0.37783 0.80751-0.45191v0.50006c-0.1741 0.15558-0.31856 0.24077-0.49266 0.24077-0.1778 0-0.31485-0.0852-0.31485-0.28892z"/>
    <path d="m232.47 94.473-0.0593 0.24077c0.0593 0.02222 0.12965 0.03704 0.21114 0.03704 0.36301 0 0.54821-0.2704 0.67416-0.626l0.67786-1.9484h-0.29633l-0.32227 0.99642c-0.0481 0.15928-0.10001 0.34449-0.15187 0.50747h-0.0148c-0.0556-0.16669-0.11854-0.3519-0.1741-0.50747l-0.36671-0.99642h-0.31486l0.72232 1.8039-0.0408 0.13335c-0.0741 0.22225-0.20373 0.38523-0.40746 0.38523-0.0445 0-0.10001-0.01482-0.13705-0.02593z"/>
    <path d="m234.18 93.08c0 0.58896 0.38153 0.94086 0.86307 0.94086 0.24448 0 0.43709-0.0852 0.59267-0.18521l-0.10742-0.20002c-0.13335 0.0852-0.27781 0.14076-0.44821 0.14076-0.34448 0-0.57785-0.24448-0.60007-0.63341h1.215c7e-3 -0.04445 0.0111-0.10372 0.0111-0.16669 0-0.51488-0.25929-0.84455-0.71861-0.84455-0.41116 0-0.80751 0.3593-0.80751 0.94827zm0.29633-0.13705c0.037-0.36301 0.2667-0.57044 0.51859-0.57044 0.28151 0 0.4445 0.20373 0.4445 0.57044z"/>
    <path d="m236.15 93.977h0.30375v-1.1557c0.12223-0.30374 0.30374-0.41487 0.45561-0.41487 0.0741 0 0.11483 0.01111 0.1741 0.02963l0.0593-0.2667c-0.0593-0.02593-0.11483-0.03704-0.19261-0.03704-0.20373 0-0.38894 0.14446-0.51118 0.37042h-0.0111l-0.0259-0.32597h-0.25189z"/>
    <path d="m238.2 93.977h0.31115v-2.4299h-0.31115z"/>
    <path d="m239.14 93.977h0.30374v-1.3039c0.1815-0.1815 0.30745-0.27781 0.49266-0.27781 0.23706 0 0.34078 0.14446 0.34078 0.48154v1.1001h0.30374v-1.1409c0-0.45932-0.17039-0.70379-0.54822-0.70379-0.24818 0-0.43338 0.13335-0.60378 0.30374h-0.0111l-0.0259-0.25929h-0.25188z"/>
    <path d="m241.46 93.814c0.16669 0.12965 0.33338 0.20743 0.50006 0.20743 0.41117 0 0.77788-0.3593 0.77788-0.97049 0-0.55933-0.24818-0.91863-0.7112-0.91863-0.21114 0-0.41116 0.11483-0.57415 0.25188h-0.0111l-0.0259-0.20743h-0.25188v2.5596h0.30374v-0.60748zm7e-3 -0.23707v-0.94456c0.1778-0.15928 0.32967-0.24448 0.48154-0.24448 0.34078 0 0.47414 0.2667 0.47414 0.66305 0 0.4445-0.21855 0.7149-0.51488 0.7149-0.11854 0-0.27782-0.05186-0.4408-0.18891z"/>
    <path d="m243.19 93.317c0 0.45932 0.17039 0.70379 0.55192 0.70379 0.24818 0 0.42598-0.12965 0.59266-0.32597h0.0111l0.0259 0.28152h0.25188v-1.8002h-0.30374v1.2779c-0.17039 0.21114-0.30004 0.30374-0.48525 0.30374-0.23707 0-0.33708-0.14446-0.33708-0.48154v-1.1001h-0.30744z"/>
    <path d="m245.29 93.421c0 0.3556 0.12965 0.60008 0.51488 0.60008 0.11113 0 0.23337-0.03334 0.33338-0.06668l-0.0593-0.22966c-0.0593 0.02222-0.14076 0.04815-0.20373 0.04815-0.20743 0-0.27781-0.12594-0.27781-0.34819v-1.0001h0.48525v-0.24818h-0.48525v-0.50377h-0.25559l-0.037 0.50377-0.28152 0.01852v0.22966h0.2667z"/>
   </g>
   <rect x="208.87" y="105.72" width="43.656" height="10.516" fill="#1d232d" stroke="#2f3744"/>
   <g fill="#e8eaec" aria-label="Perform Game Logic">
    <path d="m215.08 112.5h0.31115v-0.96308h0.4371c0.52969 0 0.89641-0.24077 0.89641-0.75195 0-0.5334-0.35931-0.7149-0.89641-0.7149h-0.74825zm0.31115-1.215v-0.96679h0.39635c0.41857 0 0.62971 0.11483 0.62971 0.46672 0 0.34449-0.20373 0.50007-0.62971 0.50007z"/>
    <path d="m216.95 111.6c0 0.58897 0.38153 0.94086 0.86307 0.94086 0.24448 0 0.4371-0.0852 0.59267-0.18521l-0.10742-0.20002c-0.13335 0.0852-0.27781 0.14076-0.44821 0.14076-0.34448 0-0.57785-0.24448-0.60007-0.63342h1.215c7e-3 -0.0444 0.0111-0.10371 0.0111-0.16668 0-0.51488-0.25929-0.84455-0.71861-0.84455-0.41116 0-0.80751 0.3593-0.80751 0.94826zm0.29634-0.13705c0.037-0.36301 0.2667-0.57044 0.51858-0.57044 0.28152 0 0.4445 0.20373 0.4445 0.57044z"/>
    <path d="m218.92 112.5h0.30374v-1.1557c0.12224-0.30374 0.30374-0.41487 0.45561-0.41487 0.0741 0 0.11483 0.0111 0.1741 0.0296l0.0593-0.2667c-0.0593-0.0259-0.11483-0.037-0.19262-0.037-0.20373 0-0.38894 0.14446-0.51118 0.37041h-0.0111l-0.0259-0.32596h-0.25188z"/>
    <path d="m221.09 109.87c-0.0815-0.0333-0.18891-0.0593-0.30003-0.0593-0.35931 0-0.526 0.22966-0.526 0.59638v0.28522l-0.24447 0.0185v0.22966h0.24447v1.552h0.30375v-1.552h0.38153v-0.24818h-0.38153v-0.28522c0-0.22966 0.0815-0.3482 0.25188-0.3482 0.0667 0 0.13705 0.0148 0.20373 0.0445z"/>
    <path d="m221.13 111.6c0 0.59638 0.39264 0.94086 0.83344 0.94086 0.44079 0 0.83343-0.34448 0.83343-0.94086 0-0.60378-0.39264-0.94826-0.83343-0.94826-0.4408 0-0.83344 0.34448-0.83344 0.94826zm0.31485 0c0-0.41486 0.21114-0.69638 0.51859-0.69638 0.31115 0 0.51858 0.28152 0.51858 0.69638 0 0.41117-0.20743 0.68898-0.51858 0.68898-0.30745 0-0.51859-0.27781-0.51859-0.68898z"/>
    <path d="m223.27 112.5h0.30374v-1.1557c0.12224-0.30374 0.30374-0.41487 0.45561-0.41487 0.0741 0 0.11483 0.0111 0.1741 0.0296l0.0593-0.2667c-0.0593-0.0259-0.11483-0.037-0.19261-0.037-0.20373 0-0.38894 0.14446-0.51118 0.37041h-0.0111l-0.0259-0.32596h-0.25188z"/>
    <path d="m224.56 112.5h0.30375v-1.3039c0.16668-0.1852 0.31855-0.27781 0.4519-0.27781 0.22966 0 0.33708 0.14446 0.33708 0.48154v1.1001h0.30375v-1.3039c0.16668-0.1852 0.31115-0.27781 0.4519-0.27781 0.22596 0 0.33338 0.14446 0.33338 0.48154v1.1001h0.30374v-1.1409c0-0.45932-0.1778-0.70379-0.54821-0.70379-0.21855 0-0.40376 0.14075-0.59267 0.34448-0.0741-0.21484-0.22225-0.34448-0.49636-0.34448-0.21484 0-0.40376 0.13335-0.55933 0.30374h-0.0111l-0.0259-0.25929h-0.25189z"/>
    <path d="m228.25 111.28c0 0.79269 0.45561 1.2594 1.0927 1.2594 0.32596 0 0.59637-0.12594 0.75565-0.28151v-1.0224h-0.7964v0.25558h0.51488v0.63342c-0.0963 0.0889-0.2667 0.14446-0.4408 0.14446-0.51858 0-0.8075-0.38524-0.8075-0.99642 0-0.60378 0.31485-0.98161 0.8075-0.98161 0.24078 0 0.39265 0.0963 0.51488 0.22596l0.1778-0.19632c-0.14446-0.14817-0.36671-0.30004-0.69638-0.30004-0.65193 0-1.1224 0.47784-1.1224 1.2594z"/>
    <path d="m230.55 112.03c0 0.32226 0.22595 0.51117 0.52969 0.51117 0.22225 0 0.42228-0.11853 0.59638-0.25929h7e-3l0.0259 0.21484h0.25189v-1.1038c0-0.4482-0.18521-0.74083-0.62601-0.74083-0.28892 0-0.54081 0.12594-0.70749 0.23336l0.12223 0.21114c0.14076-0.0963 0.32597-0.19262 0.53711-0.19262 0.29263 0 0.37042 0.22225 0.37042 0.45191-0.76677 0.0852-1.1076 0.28152-1.1076 0.67416zm0.30004-0.0222c0-0.22966 0.20373-0.37782 0.80751-0.45191v0.50007c-0.1741 0.15557-0.31856 0.24077-0.49266 0.24077-0.1778 0-0.31485-0.0852-0.31485-0.28893z"/>
    <path d="m232.53 112.5h0.30374v-1.3039c0.16669-0.1852 0.31856-0.27781 0.45191-0.27781 0.22966 0 0.33708 0.14446 0.33708 0.48154v1.1001h0.30374v-1.3039c0.16669-0.1852 0.31115-0.27781 0.45191-0.27781 0.22596 0 0.33338 0.14446 0.33338 0.48154v1.1001h0.30374v-1.1409c0-0.45932-0.1778-0.70379-0.54822-0.70379-0.21854 0-0.40375 0.14075-0.59267 0.34448-0.0741-0.21484-0.22225-0.34448-0.49635-0.34448-0.21485 0-0.40376 0.13335-0.55933 0.30374h-0.0111l-0.0259-0.25929h-0.25188z"/>
    <path d="m235.47 111.6c0 0.58897 0.38153 0.94086 0.86307 0.94086 0.24447 0 0.43709-0.0852 0.59267-0.18521l-0.10743-0.20002c-0.13335 0.0852-0.27781 0.14076-0.4482 0.14076-0.34449 0-0.57785-0.24448-0.60008-0.63342h1.215c7e-3 -0.0444 0.0111-0.10371 0.0111-0.16668 0-0.51488-0.2593-0.84455-0.71861-0.84455-0.41117 0-0.80751 0.3593-0.80751 0.94826zm0.29633-0.13705c0.037-0.36301 0.2667-0.57044 0.51858-0.57044 0.28152 0 0.4445 0.20373 0.4445 0.57044z"/>
    <path d="m238.2 112.5h1.3705v-0.26299h-1.0594v-2.1669h-0.31115z"/>
    <path d="m239.79 111.6c0 0.59638 0.39264 0.94086 0.83344 0.94086 0.44079 0 0.83343-0.34448 0.83343-0.94086 0-0.60378-0.39264-0.94826-0.83343-0.94826-0.4408 0-0.83344 0.34448-0.83344 0.94826zm0.31485 0c0-0.41486 0.21114-0.69638 0.51859-0.69638 0.31115 0 0.51858 0.28152 0.51858 0.69638 0 0.41117-0.20743 0.68898-0.51858 0.68898-0.30745 0-0.51859-0.27781-0.51859-0.68898z"/>
    <path d="m242.06 112.8c0-0.10371 0.0556-0.21113 0.18521-0.30374 0.0778 0.0222 0.16298 0.0296 0.23336 0.0296h0.31115c0.23337 0 0.36301 0.0556 0.36301 0.22225 0 0.18891-0.22595 0.36671-0.57044 0.36671-0.32597 0-0.52229-0.12224-0.52229-0.31486zm-0.2667 0.0408c0 0.31115 0.30374 0.48525 0.74454 0.48525 0.55933 0 0.91122-0.28893 0.91122-0.6223 0-0.30004-0.21113-0.42969-0.6297-0.42969h-0.3482c-0.24447 0-0.31855-0.0815-0.31855-0.19632 0-0.10001 0.0519-0.15928 0.11482-0.21484 0.0815 0.0408 0.18151 0.063 0.27041 0.063 0.36671 0 0.65934-0.24077 0.65934-0.626 0-0.15188-0.063-0.28893-0.14817-0.37042h0.37042v-0.23336h-0.626c-0.0667-0.0259-0.15558-0.0444-0.25559-0.0444-0.36671 0-0.67786 0.24818-0.67786 0.64082 0 0.21484 0.11483 0.38894 0.23336 0.48524v0.0148c-0.0926 0.063-0.19632 0.1815-0.19632 0.33338 0 0.14075 0.0704 0.23706 0.15928 0.29263v0.0148c-0.16299 0.11113-0.263 0.25559-0.263 0.40746zm0.74454-1.1187c-0.20743 0-0.38153-0.16669-0.38153-0.42968 0-0.263 0.17039-0.41857 0.38153-0.41857s0.38153 0.15557 0.38153 0.41857c0 0.26299-0.1741 0.42968-0.38153 0.42968z"/>
    <path d="m243.95 110.33c0.11854 0 0.21114-0.0815 0.21114-0.19632 0-0.11854-0.0926-0.19632-0.21114-0.19632-0.11853 0-0.21113 0.0778-0.21113 0.19632 0 0.11483 0.0926 0.19632 0.21113 0.19632zm-0.15557 2.1706h0.30374v-1.8002h-0.30374z"/>
    <path d="m244.57 111.6c0 0.59638 0.36672 0.94086 0.84455 0.94086 0.21485 0 0.42228-0.0889 0.58526-0.23336l-0.13705-0.20003c-0.10742 0.0963-0.25189 0.18151-0.42228 0.18151-0.32967 0-0.55562-0.27781-0.55562-0.68898 0-0.41486 0.23706-0.69638 0.56303-0.69638 0.14446 0 0.25559 0.0667 0.36301 0.15928l0.15187-0.19632c-0.12224-0.11483-0.28892-0.21484-0.52599-0.21484-0.46302 0-0.86678 0.34448-0.86678 0.94826z"/>
   </g>
   <rect x="208.87" y="124.24" width="43.656" height="10.516" fill="#1d232d" stroke="#2f3744"/>
   <g fill="#e8eaec" aria-label="Render Scene">
    <path d="m220.48 128.84h0.40746c0.37783 0 0.58526 0.11483 0.58526 0.43339 0 0.31486-0.20743 0.47043-0.58526 0.47043h-0.40746zm1.3742 2.1818-0.6186-1.0594c0.32967-0.0852 0.54452-0.31115 0.54452-0.68898 0-0.50376-0.35561-0.68156-0.84826-0.68156h-0.76306v2.4299h0.31115v-1.026h0.43709l0.58526 1.026z"/>
    <path d="m222.11 130.12c0 0.58896 0.38152 0.94086 0.86307 0.94086 0.24447 0 0.43709-0.0852 0.59266-0.18521l-0.10742-0.20002c-0.13335 0.0852-0.27781 0.14076-0.4482 0.14076-0.34449 0-0.57785-0.24448-0.60008-0.63342h1.215c7e-3 -0.0445 0.0111-0.10371 0.0111-0.16668 0-0.51488-0.25929-0.84456-0.71861-0.84456-0.41116 0-0.8075 0.35931-0.8075 0.94827zm0.29633-0.13705c0.037-0.36301 0.2667-0.57044 0.51858-0.57044 0.28152 0 0.4445 0.20372 0.4445 0.57044z"/>
    <path d="m224.09 131.02h0.30374v-1.3039c0.18151-0.1815 0.30745-0.27781 0.49266-0.27781 0.23706 0 0.34078 0.14446 0.34078 0.48154v1.1001h0.30374v-1.1409c0-0.45932-0.17039-0.7038-0.54821-0.7038-0.24818 0-0.43339 0.13335-0.60378 0.30375h-0.0111l-0.0259-0.2593h-0.25188z"/>
    <path d="m225.98 130.12c0 0.60008 0.29263 0.94086 0.74454 0.94086 0.21114 0 0.40376-0.11853 0.54451-0.25559h0.0111l0.0259 0.21114h0.25188v-2.6374h-0.30745v0.69268l0.0148 0.30745c-0.15928-0.12965-0.29633-0.20744-0.50377-0.20744-0.41116 0-0.78158 0.36301-0.78158 0.94827zm0.31486-4e-3c0-0.41117 0.22966-0.68898 0.51858-0.68898 0.14817 0 0.28522 0.0519 0.43709 0.18891v0.94086c-0.14816 0.16669-0.29263 0.24818-0.45931 0.24818-0.31486 0-0.49636-0.25929-0.49636-0.68897z"/>
    <path d="m228.03 130.12c0 0.58896 0.38152 0.94086 0.86307 0.94086 0.24447 0 0.43709-0.0852 0.59266-0.18521l-0.10742-0.20002c-0.13335 0.0852-0.27781 0.14076-0.4482 0.14076-0.34449 0-0.57785-0.24448-0.60008-0.63342h1.215c7e-3 -0.0445 0.0111-0.10371 0.0111-0.16668 0-0.51488-0.25929-0.84456-0.71861-0.84456-0.41116 0-0.8075 0.35931-0.8075 0.94827zm0.29633-0.13705c0.037-0.36301 0.2667-0.57044 0.51858-0.57044 0.28152 0 0.4445 0.20372 0.4445 0.57044z"/>
    <path d="m230 131.02h0.30374v-1.1557c0.12224-0.30374 0.30375-0.41487 0.45562-0.41487 0.0741 0 0.11483 0.0111 0.17409 0.0296l0.0593-0.2667c-0.0593-0.0259-0.11483-0.037-0.19262-0.037-0.20373 0-0.38894 0.14447-0.51117 0.37042h-0.0111l-0.0259-0.32597h-0.25188z"/>
    <path d="m231.88 130.7c0.21114 0.21854 0.50747 0.3593 0.84825 0.3593 0.51118 0 0.82974-0.30745 0.82974-0.69268 0-0.3593-0.21855-0.52599-0.50007-0.64823l-0.34819-0.14817c-0.18891-0.0815-0.40375-0.17039-0.40375-0.40375 0-0.21855 0.1815-0.3556 0.45561-0.3556 0.22225 0 0.40376 0.0889 0.55192 0.22966l0.16299-0.20003c-0.1704-0.1778-0.42598-0.30003-0.71491-0.30003-0.4408 0-0.76676 0.2741-0.76676 0.64452 0 0.3556 0.2667 0.5297 0.49265 0.62601l0.34819 0.15187c0.22966 0.10371 0.40746 0.1815 0.40746 0.42968 0 0.23707-0.18891 0.39635-0.50747 0.39635-0.25559 0-0.49636-0.12224-0.67045-0.30375z"/>
    <path d="m233.86 130.12c0 0.59637 0.36671 0.94086 0.84455 0.94086 0.21484 0 0.42228-0.0889 0.58526-0.23336l-0.13706-0.20003c-0.10742 0.0963-0.25188 0.18151-0.42227 0.18151-0.32967 0-0.55563-0.27782-0.55563-0.68898 0-0.41487 0.23707-0.69638 0.56304-0.69638 0.14446 0 0.25559 0.0667 0.36301 0.15928l0.15187-0.19632c-0.12224-0.11483-0.28893-0.21485-0.526-0.21485-0.46302 0-0.86677 0.34449-0.86677 0.94827z"/>
    <path d="m235.47 130.12c0 0.58896 0.38153 0.94086 0.86308 0.94086 0.24447 0 0.43709-0.0852 0.59266-0.18521l-0.10742-0.20002c-0.13335 0.0852-0.27781 0.14076-0.4482 0.14076-0.34449 0-0.57785-0.24448-0.60008-0.63342h1.215c7e-3 -0.0445 0.0111-0.10371 0.0111-0.16668 0-0.51488-0.25929-0.84456-0.71861-0.84456-0.41116 0-0.80751 0.35931-0.80751 0.94827zm0.29634-0.13705c0.037-0.36301 0.2667-0.57044 0.51858-0.57044 0.28152 0 0.4445 0.20372 0.4445 0.57044z"/>
    <path d="m237.44 131.02h0.30374v-1.3039c0.18151-0.1815 0.30745-0.27781 0.49266-0.27781 0.23706 0 0.34078 0.14446 0.34078 0.48154v1.1001h0.30374v-1.1409c0-0.45932-0.17039-0.7038-0.54821-0.7038-0.24818 0-0.43339 0.13335-0.60378 0.30375h-0.0111l-0.0259-0.2593h-0.25188z"/>
    <path d="m239.33 130.12c0 0.58896 0.38153 0.94086 0.86307 0.94086 0.24447 0 0.43709-0.0852 0.59267-0.18521l-0.10742-0.20002c-0.13335 0.0852-0.27782 0.14076-0.44821 0.14076-0.34449 0-0.57785-0.24448-0.60007-0.63342h1.215c7e-3 -0.0445 0.0111-0.10371 0.0111-0.16668 0-0.51488-0.2593-0.84456-0.71861-0.84456-0.41117 0-0.80751 0.35931-0.80751 0.94827zm0.29633-0.13705c0.037-0.36301 0.2667-0.57044 0.51859-0.57044 0.28151 0 0.4445 0.20372 0.4445 0.57044z"/>
   </g>
   <rect x="208.87" y="142.76" width="43.656" height="10.516" fill="#1d232d" stroke="#2f3744"/>
   <g fill="#ff867f" aria-label="Shutdown">
    <path d="m222.59 149.22c0.21114 0.21855 0.50747 0.3593 0.84826 0.3593 0.51117 0 0.82973-0.30744 0.82973-0.69268 0-0.3593-0.21854-0.52599-0.50006-0.64822l-0.34819-0.14817c-0.18892-0.0815-0.40376-0.17039-0.40376-0.40376 0-0.21854 0.18151-0.3556 0.45561-0.3556 0.22225 0 0.40376 0.0889 0.55193 0.22966l0.16298-0.20002c-0.17039-0.1778-0.42598-0.30004-0.71491-0.30004-0.44079 0-0.76676 0.27411-0.76676 0.64452 0 0.3556 0.2667 0.5297 0.49266 0.62601l0.34819 0.15187c0.22966 0.10372 0.40746 0.1815 0.40746 0.42968 0 0.23707-0.18892 0.39635-0.50747 0.39635-0.25559 0-0.49636-0.12224-0.67046-0.30374z"/>
    <path d="m224.71 149.54h0.30374v-1.3039c0.18151-0.18151 0.30745-0.27782 0.49266-0.27782 0.23707 0 0.34078 0.14447 0.34078 0.48155v1.1001h0.30375v-1.1409c0-0.45932-0.1704-0.70379-0.54822-0.70379-0.24818 0-0.42969 0.13335-0.60008 0.29633l0.0111-0.37042v-0.7186h-0.30374z"/>
    <path d="m226.7 148.88c0 0.45932 0.17039 0.70379 0.55192 0.70379 0.24818 0 0.42598-0.12964 0.59267-0.32596h0.0111l0.0259 0.28151h0.25188v-1.8002h-0.30374v1.2779c-0.17039 0.21113-0.30004 0.30374-0.48525 0.30374-0.23706 0-0.33708-0.14446-0.33708-0.48154v-1.1001h-0.30744z"/>
    <path d="m228.8 148.98c0 0.3556 0.12964 0.60007 0.51488 0.60007 0.11112 0 0.23336-0.0333 0.33337-0.0667l-0.0593-0.22966c-0.0593 0.0222-0.14076 0.0482-0.20373 0.0482-0.20744 0-0.27782-0.12595-0.27782-0.3482v-1.0001h0.48525v-0.24818h-0.48525v-0.50377h-0.25558l-0.037 0.50377-0.28151 0.0185v0.22966h0.2667z"/>
    <path d="m229.83 148.64c0 0.60007 0.29263 0.94085 0.74454 0.94085 0.21114 0 0.40376-0.11853 0.54452-0.25558h0.0111l0.0259 0.21113h0.25188v-2.6374h-0.30745v0.69268l0.0148 0.30744c-0.15928-0.12964-0.29633-0.20743-0.50377-0.20743-0.41116 0-0.78158 0.36301-0.78158 0.94827zm0.31486-4e-3c0-0.41116 0.22966-0.68897 0.51858-0.68897 0.14817 0 0.28522 0.0519 0.43709 0.18891v0.94086c-0.14816 0.16669-0.29263 0.24818-0.45931 0.24818-0.31486 0-0.49636-0.2593-0.49636-0.68898z"/>
    <path d="m231.88 148.64c0 0.59637 0.39264 0.94085 0.83343 0.94085 0.4408 0 0.83344-0.34448 0.83344-0.94085 0-0.60378-0.39264-0.94827-0.83344-0.94827-0.44079 0-0.83343 0.34449-0.83343 0.94827zm0.31485 0c0-0.41487 0.21114-0.69639 0.51858-0.69639 0.31115 0 0.51859 0.28152 0.51859 0.69639 0 0.41116-0.20744 0.68897-0.51859 0.68897-0.30744 0-0.51858-0.27781-0.51858-0.68897z"/>
    <path d="m234.3 149.54h0.3556l0.25188-0.96308c0.0482-0.17039 0.0852-0.34078 0.12594-0.52229h0.0148c0.0445 0.18151 0.0778 0.34819 0.12224 0.51859l0.25929 0.96678h0.37042l0.48154-1.8002h-0.28893l-0.26299 1.0409c-0.037 0.17039-0.0704 0.33338-0.11113 0.50006h-0.0148c-0.0407-0.16668-0.0815-0.32967-0.12594-0.50006l-0.28151-1.0409h-0.29634l-0.27781 1.0409c-0.0444 0.16669-0.0815 0.33338-0.12224 0.50006h-0.0148c-0.0333-0.16668-0.0667-0.32967-0.10743-0.50006l-0.2667-1.0409h-0.31115z"/>
    <path d="m236.68 149.54h0.30374v-1.3039c0.1815-0.18151 0.30745-0.27782 0.49265-0.27782 0.23707 0 0.34079 0.14447 0.34079 0.48155v1.1001h0.30374v-1.1409c0-0.45932-0.17039-0.70379-0.54822-0.70379-0.24818 0-0.43339 0.13335-0.60378 0.30374h-0.0111l-0.0259-0.25929h-0.25188z"/>
   </g>
  </g>
  <path d="m230.61 79.345v5.9862" fill="none" stroke="#6f8ce9" stroke-linecap="round" stroke-width=".26458"/>
  <g transform="matrix(0 .0042365 -.0043091 0 231.81 84.797)" fill="#6f8ce9" stroke-width="123.85">
   <path d="m486.41 221.41-364.07-208.5c-52.938-30.318-95.852-5.44-95.852 55.563v415.65c0 61.004 42.914 85.882 95.852 55.563l364.07-208.49c52.938-30.317 52.938-79.473 0-109.79z" fill="#6f8ce9" stroke-width="123.85"/>
  </g>
  <path d="m230.61 97.866v5.9862" fill="none" stroke="#6f8ce9" stroke-linecap="round" stroke-width=".26458"/>
  <g transform="matrix(0 .0042365 -.0043091 0 231.81 103.32)" fill="#6f8ce9" stroke-width="123.85">
   <path d="m486.41 221.41-364.07-208.5c-52.938-30.318-95.852-5.44-95.852 55.563v415.65c0 61.004 42.914 85.882 95.852 55.563l364.07-208.49c52.938-30.317 52.938-79.473 0-109.79z" fill="#6f8ce9" stroke-width="123.85"/>
  </g>
  <path d="m230.61 116.39v5.9862" fill="none" stroke="#6f8ce9" stroke-linecap="round" stroke-width=".26458"/>
  <g transform="matrix(0 .0042365 -.0043091 0 231.81 121.84)" fill="#6f8ce9" stroke-width="123.85">
   <path d="m486.41 221.41-364.07-208.5c-52.938-30.318-95.852-5.44-95.852 55.563v415.65c0 61.004 42.914 85.882 95.852 55.563l364.07-208.49c52.938-30.317 52.938-79.473 0-109.79z" fill="#6f8ce9" stroke-width="123.85"/>
  </g>
  <path d="m230.61 134.91v5.9862" fill="none" stroke="#6f8ce9" stroke-linecap="round" stroke-width=".26458"/>
  <g transform="matrix(0 .0042365 -.0043091 0 231.81 140.36)" fill="#6f8ce9" stroke-width="123.85">
   <path d="m486.41 221.41-364.07-208.5c-52.938-30.318-95.852-5.44-95.852 55.563v415.65c0 61.004 42.914 85.882 95.852 55.563l364.07-208.49c52.938-30.317 52.938-79.473 0-109.79z" fill="#6f8ce9" stroke-width="123.85"/>
  </g>
  <g fill="#e8eaec" stroke-linecap="round" stroke-width=".26458" aria-label="Termination signal">
   <path d="m233.57 139.22h0.26352v-1.8606h0.63183v-0.22225h-1.5272v0.22225h0.63183z"/>
   <path d="m234.48 138.45c0 0.50482 0.32703 0.80645 0.73978 0.80645 0.20955 0 0.37465-0.073 0.508-0.15875l-0.0921-0.17145c-0.1143 0.073-0.23812 0.12065-0.38417 0.12065-0.29528 0-0.4953-0.20955-0.51435-0.54293h1.0414c6e-3 -0.0381 0.01-0.0889 0.01-0.14287 0-0.44133-0.22225-0.7239-0.61595-0.7239-0.35242 0-0.69215 0.30797-0.69215 0.8128zm0.254-0.11748c0.0318-0.31115 0.2286-0.48895 0.4445-0.48895 0.2413 0 0.381 0.17463 0.381 0.48895z"/>
   <path d="m236.17 139.22h0.26035v-0.9906c0.10478-0.26035 0.26035-0.3556 0.39053-0.3556 0.0635 0 0.0984 0.01 0.14922 0.0254l0.0508-0.2286c-0.0508-0.0222-0.0984-0.0317-0.1651-0.0317-0.17462 0-0.33337 0.12382-0.43815 0.3175h-0.01l-0.0222-0.2794h-0.2159z"/>
   <path d="m237.27 139.22h0.26035v-1.1176c0.14288-0.15875 0.27305-0.23813 0.38735-0.23813 0.19685 0 0.28893 0.12383 0.28893 0.41275v0.94298h0.26035v-1.1176c0.14287-0.15875 0.2667-0.23813 0.38735-0.23813 0.19367 0 0.28575 0.12383 0.28575 0.41275v0.94298h0.26035v-0.9779c0-0.3937-0.1524-0.60325-0.4699-0.60325-0.18733 0-0.34608 0.12065-0.508 0.29527-0.0635-0.18415-0.1905-0.29527-0.42545-0.29527-0.18415 0-0.34608 0.1143-0.47943 0.26035h-0.01l-0.0222-0.22225h-0.2159z"/>
   <path d="m240.03 137.36c0.1016 0 0.18097-0.0699 0.18097-0.16828 0-0.1016-0.0794-0.16827-0.18097-0.16827-0.1016 0-0.18098 0.0667-0.18098 0.16827 0 0.0984 0.0794 0.16828 0.18098 0.16828zm-0.13335 1.8606h0.26035v-1.543h-0.26035z"/>
   <path d="m240.68 139.22h0.26035v-1.1176c0.15557-0.15558 0.26352-0.23813 0.42227-0.23813 0.2032 0 0.2921 0.12383 0.2921 0.41275v0.94298h0.26035v-0.9779c0-0.3937-0.14605-0.60325-0.4699-0.60325-0.21272 0-0.37147 0.1143-0.51752 0.26035h-0.01l-0.0222-0.22225h-0.2159z"/>
   <path d="m242.34 138.82c0 0.27622 0.19368 0.43815 0.45403 0.43815 0.1905 0 0.36195-0.1016 0.51117-0.22225h6e-3l0.0222 0.18415h0.2159v-0.94615c0-0.38418-0.15875-0.635-0.53658-0.635-0.24765 0-0.46355 0.10795-0.60642 0.20002l0.10477 0.18098c0.12065-0.0826 0.2794-0.1651 0.46038-0.1651 0.25082 0 0.3175 0.1905 0.3175 0.38735-0.65723 0.073-0.94933 0.2413-0.94933 0.57785zm0.25718-0.019c0-0.19685 0.17462-0.32385 0.69215-0.38735v0.42862c-0.14923 0.13335-0.27305 0.20638-0.42228 0.20638-0.1524 0-0.26987-0.073-0.26987-0.24765z"/>
   <path d="m244.09 138.74c0 0.3048 0.11112 0.51435 0.44132 0.51435 0.0952 0 0.20003-0.0286 0.28575-0.0572l-0.0508-0.19685c-0.0508 0.0191-0.12065 0.0413-0.17462 0.0413-0.1778 0-0.23813-0.10795-0.23813-0.29845v-0.85725h0.41593v-0.21272h-0.41593v-0.4318h-0.21907l-0.0317 0.4318-0.2413 0.0159v0.19685h0.2286z"/>
   <path d="m245.25 137.36c0.1016 0 0.18098-0.0699 0.18098-0.16828 0-0.1016-0.0794-0.16827-0.18098-0.16827-0.1016 0-0.18097 0.0667-0.18097 0.16827 0 0.0984 0.0794 0.16828 0.18097 0.16828zm-0.13335 1.8606h0.26035v-1.543h-0.26035z"/>
   <path d="m245.78 138.45c0 0.51117 0.33655 0.80645 0.71438 0.80645 0.37782 0 0.71437-0.29528 0.71437-0.80645 0-0.51753-0.33655-0.8128-0.71437-0.8128-0.37783 0-0.71438 0.29527-0.71438 0.8128zm0.26988 0c0-0.3556 0.18097-0.5969 0.4445-0.5969 0.2667 0 0.4445 0.2413 0.4445 0.5969 0 0.35242-0.1778 0.59055-0.4445 0.59055-0.26353 0-0.4445-0.23813-0.4445-0.59055z"/>
   <path d="m247.62 139.22h0.26035v-1.1176c0.15557-0.15558 0.26352-0.23813 0.42227-0.23813 0.2032 0 0.2921 0.12383 0.2921 0.41275v0.94298h0.26035v-0.9779c0-0.3937-0.14605-0.60325-0.4699-0.60325-0.21272 0-0.37147 0.1143-0.51752 0.26035h-0.01l-0.0222-0.22225h-0.2159z"/>
   <path d="m249.82 139.05c0.14605 0.12065 0.3556 0.21273 0.57468 0.21273 0.36512 0 0.56515-0.20955 0.56515-0.46038 0-0.2921-0.24765-0.38417-0.4699-0.46672-0.17463-0.0667-0.3429-0.12383-0.3429-0.2667 0-0.11748 0.0889-0.22225 0.28257-0.22225 0.13653 0 0.24765 0.0572 0.35243 0.13652l0.12382-0.1651c-0.11747-0.0952-0.28575-0.17462-0.47942-0.17462-0.33338 0-0.53023 0.1905-0.53023 0.43815 0 0.26035 0.2413 0.36512 0.46038 0.4445 0.16827 0.0635 0.35242 0.13335 0.35242 0.2921 0 0.13335-0.1016 0.2413-0.3048 0.2413-0.18415 0-0.32067-0.0762-0.45402-0.18415z"/>
   <path d="m251.46 137.36c0.1016 0 0.18097-0.0699 0.18097-0.16828 0-0.1016-0.0794-0.16827-0.18097-0.16827-0.1016 0-0.18098 0.0667-0.18098 0.16827 0 0.0984 0.0794 0.16828 0.18098 0.16828zm-0.13335 1.8606h0.26035v-1.543h-0.26035z"/>
   <path d="m252.22 139.48c0-0.0889 0.0476-0.18098 0.15875-0.26035 0.0667 0.019 0.1397 0.0254 0.20002 0.0254h0.2667c0.20003 0 0.31115 0.0476 0.31115 0.1905 0 0.16192-0.19367 0.31432-0.48895 0.31432-0.2794 0-0.44767-0.10477-0.44767-0.26987zm-0.2286 0.0349c0 0.2667 0.26035 0.41593 0.63817 0.41593 0.47943 0 0.78105-0.24765 0.78105-0.5334 0-0.25718-0.18097-0.3683-0.53975-0.3683h-0.29845c-0.20955 0-0.27305-0.0699-0.27305-0.16828 0-0.0857 0.0445-0.13652 0.0984-0.18415 0.0699 0.0349 0.15557 0.054 0.23177 0.054 0.31433 0 0.56515-0.20638 0.56515-0.53658 0-0.13017-0.054-0.24765-0.127-0.3175h0.3175v-0.20002h-0.53657c-0.0572-0.0222-0.13335-0.0381-0.21908-0.0381-0.31432 0-0.58102 0.21272-0.58102 0.54927 0 0.18415 0.0984 0.33338 0.20002 0.41593v0.0127c-0.0794 0.054-0.16827 0.15557-0.16827 0.28575 0 0.12065 0.0603 0.2032 0.13652 0.25082v0.0127c-0.1397 0.0952-0.22542 0.21908-0.22542 0.34925zm0.63817-0.95885c-0.1778 0-0.32702-0.14287-0.32702-0.3683 0-0.22542 0.14605-0.35877 0.32702-0.35877 0.18098 0 0.32703 0.13335 0.32703 0.35877 0 0.22543-0.14923 0.3683-0.32703 0.3683z"/>
   <path d="m253.71 139.22h0.26035v-1.1176c0.15557-0.15558 0.26352-0.23813 0.42227-0.23813 0.2032 0 0.2921 0.12383 0.2921 0.41275v0.94298h0.26035v-0.9779c0-0.3937-0.14605-0.60325-0.4699-0.60325-0.21272 0-0.37147 0.1143-0.51752 0.26035h-0.01l-0.0222-0.22225h-0.2159z"/>
   <path d="m255.37 138.82c0 0.27622 0.19367 0.43815 0.45402 0.43815 0.1905 0 0.36195-0.1016 0.51118-0.22225h6e-3l0.0222 0.18415h0.2159v-0.94615c0-0.38418-0.15875-0.635-0.53657-0.635-0.24765 0-0.46355 0.10795-0.60643 0.20002l0.10478 0.18098c0.12065-0.0826 0.2794-0.1651 0.46037-0.1651 0.25083 0 0.3175 0.1905 0.3175 0.38735-0.65722 0.073-0.94932 0.2413-0.94932 0.57785zm0.25717-0.019c0-0.19685 0.17463-0.32385 0.69215-0.38735v0.42862c-0.14922 0.13335-0.27305 0.20638-0.42227 0.20638-0.1524 0-0.26988-0.073-0.26988-0.24765z"/>
   <path d="m257.07 138.91c0 0.22542 0.0794 0.34925 0.27623 0.34925 0.0698 0 0.1143-0.01 0.14922-0.0254l-0.0349-0.19685c-0.0286 6e-3 -0.0413 6e-3 -0.0571 6e-3 -0.0381 0-0.073-0.0318-0.073-0.1143v-1.9685h-0.26035z"/>
  </g>
  <path d="m252.53 129.46h13.229v-37.042h-12.435" fill="none" stroke="#6f8ce9" stroke-dashoffset="1.2" stroke-linecap="square" stroke-miterlimit="40" stroke-width=".26458"/>
  <g transform="matrix(-.0042365 0 0 -.0043091 254.89 93.612)" fill="#6f8ce9" stroke-width="123.85">
   <path d="m486.41 221.41-364.07-208.5c-52.938-30.318-95.852-5.44-95.852 55.563v415.65c0 61.004 42.914 85.882 95.852 55.563l364.07-208.49c52.938-30.317 52.938-79.473 0-109.79z" fill="#6f8ce9" stroke-width="123.85"/>
  </g>
  <path d="m230.61 60.824v5.9862" fill="none" stroke="#6f8ce9" stroke-linecap="round" stroke-width=".26458"/>
  <g>
   <g transform="matrix(0 .0042365 -.0043091 0 231.81 66.276)" fill="#6f8ce9" stroke-width="123.85">
    <path d="m486.41 221.41-364.07-208.5c-52.938-30.318-95.852-5.44-95.852 55.563v415.65c0 61.004 42.914 85.882 95.852 55.563l364.07-208.49c52.938-30.317 52.938-79.473 0-109.79z" fill="#6f8ce9" stroke-width="123.85"/>
   </g>
   <circle cx="230.62" cy="60.305" r="1.6808" fill="#1d232d" stroke="#6f8ce9" stroke-linecap="round" stroke-width=".33617"/>
   <circle cx="230.62" cy="60.305" r=".67234" fill="#6f8ce9"/>
  </g>
 </g>
</svg>
