<?xml version="1.0" encoding="UTF-8"?>
<svg width="96.089mm" height="33.556mm" version="1.1" viewBox="0 0 96.089 33.556" xmlns="http://www.w3.org/2000/svg" xmlns:cc="http://creativecommons.org/ns#" xmlns:dc="http://purl.org/dc/elements/1.1/" xmlns:rdf="http://www.w3.org/1999/02/22-rdf-syntax-ns#">
 <metadata>
  <rdf:RDF>
   <cc:Work rdf:about="">
    <dc:format>image/svg+xml</dc:format>
    <dc:type rdf:resource="http://purl.org/dc/dcmitype/StillImage"/>
    <dc:title/>
   </cc:Work>
  </rdf:RDF>
 </metadata>
 <g stroke-dashoffset="1.2" stroke-linecap="square">
  <g stroke-width=".026458">
   <path d="m33.957 12.324v-2.6458h2.6458z" fill="#a6aeb8"/>
   <path d="m36.603 12.324v-2.6458l-2.6458 2.6458z" fill="#e8eaec"/>
   <path d="m33.957 14.969v-2.6458h2.6458z" fill="#a6aeb8"/>
   <path d="m36.603 14.969v-2.6458l-2.6458 2.6458z" fill="#e8eaec"/>
   <path d="m36.603 14.969v-2.6458h2.6458z" fill="#a6aeb8"/>
   <path d="m39.249 14.969v-2.6458l-2.6458 2.6458z" fill="#e8eaec"/>
   <path d="m36.603 12.324v-2.6458h2.6458z" fill="#a6aeb8"/>
   <path d="m39.249 12.324v-2.6458l-2.6458 2.6458z" fill="#e8eaec"/>
   <path d="m39.249 12.324v-2.6458h2.6458z" fill="#a6aeb8"/>
   <path d="m41.894 12.324v-2.6458l-2.6458 2.6458z" fill="#e8eaec"/>
   <path d="m41.894 12.324v-2.6458h2.6458z" fill="#a6aeb8"/>
   <path d="m44.54 12.324v-2.6458l-2.6458 2.6458z" fill="#e8eaec"/>
   <path d="m44.54 12.324v-2.6458h2.6458z" fill="#a6aeb8"/>
   <path d="m47.186 12.324v-2.6458l-2.6458 2.6458z" fill="#e8eaec"/>
   <path d="m47.186 12.324v-2.6458h2.6458z" fill="#a6aeb8"/>
   <path d="m49.832 12.324v-2.6458l-2.6458 2.6458z" fill="#e8eaec"/>
   <path d="m49.832 12.324v-2.6458h2.6458z" fill="#a6aeb8"/>
   <path d="m52.478 12.324v-2.6458l-2.6458 2.6458z" fill="#e8eaec"/>
   <path d="m52.478 12.324v-2.6458h2.6458z" fill="#a6aeb8"/>
   <path d="m55.124 12.324v-2.6458l-2.6458 2.6458z" fill="#e8eaec"/>
   <path d="m55.124 12.324v-2.6458h2.6458z" fill="#a6aeb8"/>
   <path d="m57.769 12.324v-2.6458l-2.6458 2.6458z" fill="#e8eaec"/>
   <path d="m57.769 12.324v-2.6458h2.6458z" fill="#a6aeb8"/>
   <path d="m60.415 12.324v-2.6458l-2.6458 2.6458z" fill="#e8eaec"/>
   <path d="m60.415 12.324v-2.6458h2.6458z" fill="#a6aeb8"/>
   <path d="m63.061 12.324v-2.6458l-2.6458 2.6458z" fill="#e8eaec"/>
   <path d="m63.061 12.324v-2.6458h2.6458z" fill="#a6aeb8"/>
   <path d="m65.707 12.324v-2.6458l-2.6458 2.6458z" fill="#e8eaec"/>
   <path d="m65.707 12.324v-2.6458h2.6458z" fill="#a6aeb8"/>
   <path d="m68.353 12.324v-2.6458l-2.6458 2.6458z" fill="#e8eaec"/>
   <path d="m68.353 12.324v-2.6458h2.6458z" fill="#a6aeb8"/>
   <path d="m70.999 12.324v-2.6458l-2.6458 2.6458z" fill="#e8eaec"/>
   <path d="m70.999 12.324v-2.6458h2.6458z" fill="#a6aeb8"/>
   <path d="m73.644 12.324v-2.6458l-2.6458 2.6458z" fill="#e8eaec"/>
   <path d="m73.644 12.324v-2.6458h2.6458z" fill="#a6aeb8"/>
   <path d="m76.29 12.324v-2.6458l-2.6458 2.6458z" fill="#e8eaec"/>
   <path d="m76.29 12.324v-2.6458h2.6458z" fill="#a6aeb8"/>
   <path d="m78.936 12.324v-2.6458l-2.6458 2.6458z" fill="#e8eaec"/>
   <path d="m78.936 12.324v-2.6458h2.6458z" fill="#a6aeb8"/>
   <path d="m81.582 12.324v-2.6458l-2.6458 2.6458z" fill="#e8eaec"/>
   <path d="m81.582 12.324v-2.6458h2.6458z" fill="#a6aeb8"/>
   <path d="m84.228 12.324v-2.6458l-2.6458 2.6458z" fill="#e8eaec"/>
   <path d="m84.228 12.324v-2.6458h2.6458z" fill="#a6aeb8"/>
   <path d="m86.874 12.324v-2.6458l-2.6458 2.6458z" fill="#e8eaec"/>
   <path d="m84.228 14.969v-2.6458h2.6458z" fill="#a6aeb8"/>
   <path d="m86.874 14.969v-2.6458l-2.6458 2.6458z" fill="#e8eaec"/>
   <path d="m81.582 14.969v-2.6458h2.6458z" fill="#a6aeb8"/>
   <path d="m84.228 14.969v-2.6458l-2.6458 2.6458z" fill="#e8eaec"/>
   <path d="m78.936 14.969v-2.6458h2.6458z" fill="#a6aeb8"/>
   <path d="m81.582 14.969v-2.6458l-2.6458 2.6458z" fill="#e8eaec"/>
   <path d="m76.29 14.969v-2.6458h2.6458z" fill="#a6aeb8"/>
   <path d="m78.936 14.969v-2.6458l-2.6458 2.6458z" fill="#e8eaec"/>
   <path d="m73.644 14.969v-2.6458h2.6458z" fill="#a6aeb8"/>
   <path d="m76.29 14.969v-2.6458l-2.6458 2.6458z" fill="#e8eaec"/>
   <path d="m70.999 14.969v-2.6458h2.6458z" fill="#a6aeb8"/>
   <path d="m73.644 14.969v-2.6458l-2.6458 2.6458z" fill="#e8eaec"/>
   <path d="m68.353 14.969v-2.6458h2.6458z" fill="#a6aeb8"/>
   <path d="m70.999 14.969v-2.6458l-2.6458 2.6458z" fill="#e8eaec"/>
   <path d="m65.707 14.969v-2.6458h2.6458z" fill="#a6aeb8"/>
   <path d="m68.353 14.969v-2.6458l-2.6458 2.6458z" fill="#e8eaec"/>
   <path d="m63.061 14.969v-2.6458h2.6458z" fill="#a6aeb8"/>
   <path d="m65.707 14.969v-2.6458l-2.6458 2.6458z" fill="#e8eaec"/>
   <path d="m60.415 14.969v-2.6458h2.6458z" fill="#a6aeb8"/>
   <path d="m63.061 14.969v-2.6458l-2.6458 2.6458z" fill="#e8eaec"/>
   <path d="m57.769 14.969v-2.6458h2.6458z" fill="#a6aeb8"/>
   <path d="m60.415 14.969v-2.6458l-2.6458 2.6458z" fill="#e8eaec"/>
   <path d="m55.124 14.969v-2.6458h2.6458z" fill="#a6aeb8"/>
   <path d="m57.769 14.969v-2.6458l-2.6458 2.6458z" fill="#e8eaec"/>
   <path d="m52.478 14.969v-2.6458h2.6458z" fill="#a6aeb8"/>
   <path d="m55.124 14.969v-2.6458l-2.6458 2.6458z" fill="#e8eaec"/>
   <path d="m49.832 14.969v-2.6458h2.6458z" fill="#a6aeb8"/>
   <path d="m52.478 14.969v-2.6458l-2.6458 2.6458z" fill="#e8eaec"/>
   <path d="m47.186 14.969v-2.6458h2.6458z" fill="#a6aeb8"/>
   <path d="m49.832 14.969v-2.6458l-2.6458 2.6458z" fill="#e8eaec"/>
   <path d="m44.54 14.969v-2.6458h2.6458z" fill="#a6aeb8"/>
   <path d="m47.186 14.969v-2.6458l-2.6458 2.6458z" fill="#e8eaec"/>
   <path d="m41.894 14.969v-2.6458h2.6458z" fill="#a6aeb8"/>
   <path d="m44.54 14.969v-2.6458l-2.6458 2.6458z" fill="#e8eaec"/>
   <path d="m39.249 14.969v-2.6458h2.6458z" fill="#a6aeb8"/>
   <path d="m41.894 14.969v-2.6458l-2.6458 2.6458z" fill="#e8eaec"/>
   <path d="m41.894 9.6778v-2.6458h2.6458z" fill="#a6aeb8"/>
   <path d="m44.54 9.6778v-2.6458l-2.6458 2.6458z" fill="#e8eaec"/>
   <path d="m55.124 9.6778v-2.6458h2.6458z" fill="#a6aeb8"/>
   <path d="m57.769 9.6778v-2.6458l-2.6458 2.6458z" fill="#e8eaec"/>
   <path d="m63.061 9.6778v-3.4396h2.6458z" fill="#a6aeb8"/>
   <path d="m65.707 9.6778v-3.4396l-2.6458 3.4396z" fill="#e8eaec"/>
  </g>
  <path d="m68.353 9.6778v-5.2917h5.2917z" fill="#a6aeb8" stroke-width=".052917"/>
  <path d="m73.644 9.6778v-5.2917l-5.2917 5.2917z" fill="#e8eaec" stroke-width=".052917"/>
  <g stroke-width=".026458">
   <path d="m57.769 4.3861v-2.6458h2.6458z" fill="#a6aeb8"/>
   <path d="m60.415 4.3861v-2.6458l-2.6458 2.6458z" fill="#e8eaec"/>
   <path d="m55.124 4.3861v-2.6458h2.6458z" fill="#a6aeb8"/>
   <path d="m57.769 4.3861v-2.6458l-2.6458 2.6458z" fill="#e8eaec"/>
   <path d="m52.478 4.3861v-2.6458h2.6458z" fill="#a6aeb8"/>
   <path d="m55.124 4.3861v-2.6458l-2.6458 2.6458z" fill="#e8eaec"/>
   <path d="m49.832 4.3861v-2.6458h2.6458z" fill="#a6aeb8"/>
   <path d="m52.478 4.3861v-2.6458l-2.6458 2.6458z" fill="#e8eaec"/>
  </g>
 </g>
 <g fill="none">
  <g stroke="#e8eaec" stroke-dashoffset="1.2" stroke-linecap="square" stroke-width=".13229">
   <rect x="33.957" y="28.199" width="52.917" height="5.2917"/>
   <rect x="41.894" y="25.553" width="2.6458" height="2.6458"/>
   <rect x="55.124" y="25.553" width="2.6458" height="2.6458"/>
   <rect x="68.353" y="22.907" width=".52917" height="5.2917"/>
   <rect x="63.061" y="24.759" width="2.6458" height="3.4396"/>
   <rect x="55.124" y="20.261" width="2.6458" height="2.6458"/>
   <rect x="57.769" y="20.261" width="2.6458" height="2.6458"/>
   <rect x="52.478" y="20.261" width="2.6458" height="2.6458"/>
   <rect x="49.832" y="20.261" width="2.6458" height="2.6458"/>
  </g>
  <path d="m95.957 3.7249h-15.776" stroke="#7893ea" stroke-linecap="round" stroke-width=".26458"/>
 </g>
 <g transform="matrix(.0021183 -.003669 -.0037318 -.0021545 79.9 5.0755)" fill="#7893ea" stroke-width="123.85">
  <g fill="#7893ea" stroke-width="123.85">
   <path d="m486.41 221.41-364.07-208.5c-52.938-30.318-95.852-5.44-95.852 55.563v415.65c0 61.004 42.914 85.882 95.852 55.563l364.07-208.49c52.938-30.317 52.938-79.473 0-109.79z" fill="#7893ea" stroke-width="123.85"/>
  </g>
 </g>
 <g fill="#e8eaec">
  <g stroke-linecap="round" stroke-width=".26458" aria-label="presentation model">
   <path d="m0.42863 13.19c0.16669 0.12964 0.33338 0.20743 0.50006 0.20743 0.41116 0 0.77788-0.3593 0.77788-0.97049 0-0.55933-0.24818-0.91864-0.7112-0.91864-0.21114 0-0.41116 0.11483-0.57415 0.25188h-0.011113l-0.025929-0.20743h-0.25188v2.5596h0.30374v-0.60748zm0.007408-0.23707v-0.94456c0.1778-0.15928 0.32967-0.24448 0.48154-0.24448 0.34078 0 0.47413 0.2667 0.47413 0.66305 0 0.4445-0.21855 0.7149-0.51488 0.7149-0.11853 0-0.27781-0.05186-0.4408-0.18891z"/>
   <path d="m2.1869 13.353h0.30374v-1.1557c0.12224-0.30374 0.30374-0.41487 0.45561-0.41487 0.074083 0 0.11483 0.01111 0.1741 0.02963l0.059267-0.2667c-0.059267-0.02593-0.11483-0.03704-0.19262-0.03704-0.20373 0-0.38894 0.14446-0.51118 0.37042h-0.011113l-0.025929-0.32597h-0.25188z"/>
   <path d="m3.3052 12.457c0 0.58896 0.38153 0.94086 0.86307 0.94086 0.24448 0 0.43709-0.0852 0.59267-0.18521l-0.10742-0.20003c-0.13335 0.0852-0.27781 0.14076-0.4482 0.14076-0.34449 0-0.57785-0.24448-0.60008-0.63341h1.215c0.00741-0.04445 0.011113-0.10372 0.011113-0.16669 0-0.51488-0.25929-0.84455-0.71861-0.84455-0.41116 0-0.80751 0.3593-0.80751 0.94827zm0.29633-0.13705c0.037042-0.36301 0.2667-0.57044 0.51858-0.57044 0.28152 0 0.4445 0.20373 0.4445 0.57044z"/>
   <path d="m5.0761 13.149c0.17039 0.14076 0.41487 0.24818 0.67045 0.24818 0.42598 0 0.65934-0.24448 0.65934-0.5371 0-0.34078-0.28893-0.4482-0.54822-0.54451-0.20373-0.07779-0.40005-0.14446-0.40005-0.31115 0-0.13705 0.10372-0.25929 0.32967-0.25929 0.15928 0 0.28893 0.06668 0.41116 0.15928l0.14446-0.19262c-0.13705-0.11112-0.33338-0.20373-0.55933-0.20373-0.38894 0-0.6186 0.22225-0.6186 0.51118 0 0.30374 0.28152 0.42598 0.5371 0.51858 0.19632 0.07408 0.41116 0.15558 0.41116 0.34078 0 0.15558-0.11853 0.28152-0.3556 0.28152-0.21484 0-0.37412-0.0889-0.5297-0.21484z"/>
   <path d="m6.6983 12.457c0 0.58896 0.38153 0.94086 0.86307 0.94086 0.24448 0 0.43709-0.0852 0.59267-0.18521l-0.10742-0.20003c-0.13335 0.0852-0.27781 0.14076-0.4482 0.14076-0.34449 0-0.57785-0.24448-0.60008-0.63341h1.215c0.00741-0.04445 0.011113-0.10372 0.011113-0.16669 0-0.51488-0.25929-0.84455-0.71861-0.84455-0.41116 0-0.80751 0.3593-0.80751 0.94827zm0.29633-0.13705c0.037042-0.36301 0.2667-0.57044 0.51858-0.57044 0.28152 0 0.4445 0.20373 0.4445 0.57044z"/>
   <path d="m8.6692 13.353h0.30374v-1.3039c0.1815-0.1815 0.30745-0.27781 0.49265-0.27781 0.23707 0 0.34078 0.14446 0.34078 0.48154v1.1001h0.30374v-1.1409c0-0.45932-0.17039-0.70379-0.54822-0.70379-0.24818 0-0.43339 0.13335-0.60378 0.30374h-0.011112l-0.025929-0.25929h-0.25188z"/>
   <path d="m10.747 12.797c0 0.3556 0.12965 0.60008 0.51488 0.60008 0.11113 0 0.23336-0.03334 0.33338-0.06668l-0.05927-0.22966c-0.05927 0.02223-0.14076 0.04816-0.20373 0.04816-0.20743 0-0.27781-0.12594-0.27781-0.34819v-1.0001h0.48525v-0.24818h-0.48525v-0.50377h-0.25559l-0.03704 0.50377-0.28152 0.01852v0.22966h0.2667z"/>
   <path d="m11.793 12.886c0 0.32226 0.22596 0.51118 0.5297 0.51118 0.22225 0 0.42228-0.11853 0.59637-0.25929h0.0074l0.02593 0.21484h0.25188v-1.1038c0-0.4482-0.18521-0.74083-0.626-0.74083-0.28892 0-0.54081 0.12594-0.7075 0.23336l0.12224 0.21114c0.14076-0.09631 0.32597-0.19262 0.5371-0.19262 0.29263 0 0.37042 0.22225 0.37042 0.45191-0.76676 0.0852-1.1075 0.28152-1.1075 0.67416zm0.30004-0.02222c0-0.22966 0.20373-0.37783 0.80751-0.45191v0.50006c-0.1741 0.15558-0.31856 0.24077-0.49265 0.24077-0.1778 0-0.31486-0.0852-0.31486-0.28892z"/>
   <path d="m13.829 12.797c0 0.3556 0.12965 0.60008 0.51488 0.60008 0.11112 0 0.23336-0.03334 0.33338-0.06668l-0.05927-0.22966c-0.05927 0.02223-0.14076 0.04816-0.20373 0.04816-0.20743 0-0.27781-0.12594-0.27781-0.34819v-1.0001h0.48525v-0.24818h-0.48525v-0.50377h-0.25559l-0.03704 0.50377-0.28152 0.01852v0.22966h0.2667z"/>
   <path d="m15.184 11.182c0.11853 0 0.21114-0.08149 0.21114-0.19632 0-0.11853-0.0926-0.19632-0.21114-0.19632-0.11853 0-0.21114 0.07779-0.21114 0.19632 0 0.11483 0.0926 0.19632 0.21114 0.19632zm-0.15558 2.1706h0.30374v-1.8002h-0.30374z"/>
   <path d="m15.807 12.457c0 0.59637 0.39264 0.94086 0.83344 0.94086 0.4408 0 0.83344-0.34449 0.83344-0.94086 0-0.60378-0.39264-0.94827-0.83344-0.94827-0.4408 0-0.83344 0.34449-0.83344 0.94827zm0.31486 0c0-0.41487 0.21114-0.69638 0.51858-0.69638 0.31115 0 0.51858 0.28152 0.51858 0.69638 0 0.41116-0.20743 0.68898-0.51858 0.68898-0.30745 0-0.51858-0.27781-0.51858-0.68898z"/>
   <path d="m17.951 13.353h0.30374v-1.3039c0.1815-0.1815 0.30745-0.27781 0.49266-0.27781 0.23707 0 0.34078 0.14446 0.34078 0.48154v1.1001h0.30374v-1.1409c0-0.45932-0.17039-0.70379-0.54822-0.70379-0.24818 0-0.43339 0.13335-0.60378 0.30374h-0.01111l-0.02593-0.25929h-0.25188z"/>
   <path d="m20.722 13.353h0.30374v-1.3039c0.16669-0.18521 0.31856-0.27781 0.45191-0.27781 0.22966 0 0.33708 0.14446 0.33708 0.48154v1.1001h0.30374v-1.3039c0.16669-0.18521 0.31115-0.27781 0.45191-0.27781 0.22595 0 0.33338 0.14446 0.33338 0.48154v1.1001h0.30374v-1.1409c0-0.45932-0.1778-0.70379-0.54822-0.70379-0.21855 0-0.40376 0.14076-0.59267 0.34449-0.07408-0.21484-0.22225-0.34449-0.49636-0.34449-0.21484 0-0.40376 0.13335-0.55933 0.30374h-0.01111l-0.02593-0.25929h-0.25188z"/>
   <path d="m23.656 12.457c0 0.59637 0.39264 0.94086 0.83344 0.94086 0.4408 0 0.83344-0.34449 0.83344-0.94086 0-0.60378-0.39264-0.94827-0.83344-0.94827-0.4408 0-0.83344 0.34449-0.83344 0.94827zm0.31486 0c0-0.41487 0.21114-0.69638 0.51858-0.69638 0.31115 0 0.51858 0.28152 0.51858 0.69638 0 0.41116-0.20743 0.68898-0.51858 0.68898-0.30745 0-0.51858-0.27781-0.51858-0.68898z"/>
   <path d="m25.671 12.457c0 0.60008 0.29263 0.94086 0.74454 0.94086 0.21114 0 0.40376-0.11853 0.54451-0.25559h0.01111l0.02593 0.21114h0.25188v-2.6374h-0.30745v0.69268l0.01482 0.30745c-0.15928-0.12965-0.29633-0.20743-0.50377-0.20743-0.41116 0-0.78158 0.36301-0.78158 0.94827zm0.31486-0.0037c0-0.41116 0.22966-0.68898 0.51858-0.68898 0.14817 0 0.28522 0.05186 0.43709 0.18891v0.94086c-0.14817 0.16669-0.29263 0.24818-0.45932 0.24818-0.31485 0-0.49636-0.25929-0.49636-0.68898z"/>
   <path d="m27.722 12.457c0 0.58896 0.38153 0.94086 0.86307 0.94086 0.24448 0 0.43709-0.0852 0.59267-0.18521l-0.10742-0.20003c-0.13335 0.0852-0.27781 0.14076-0.4482 0.14076-0.34449 0-0.57785-0.24448-0.60008-0.63341h1.215c0.0074-0.04445 0.01111-0.10372 0.01111-0.16669 0-0.51488-0.25929-0.84455-0.71861-0.84455-0.41116 0-0.80751 0.3593-0.80751 0.94827zm0.29633-0.13705c0.03704-0.36301 0.2667-0.57044 0.51858-0.57044 0.28152 0 0.4445 0.20373 0.4445 0.57044z"/>
   <path d="m29.693 12.99c0 0.263 0.0926 0.40746 0.32226 0.40746 0.08149 0 0.13335-0.01111 0.1741-0.02963l-0.04075-0.22966c-0.03334 0.0074-0.04815 0.0074-0.06668 0.0074-0.04445 0-0.0852-0.03704-0.0852-0.13335v-2.2966h-0.30374z"/>
  </g>
  <g stroke-linecap="round" stroke-width=".26458" aria-label="physics model">
   <path d="m8.7718 31.711c0.16669 0.12964 0.33338 0.20743 0.50006 0.20743 0.41116 0 0.77788-0.3593 0.77788-0.97049 0-0.55933-0.24818-0.91863-0.7112-0.91863-0.21114 0-0.41116 0.11483-0.57415 0.25188h-0.011112l-0.025929-0.20743h-0.25188v2.5596h0.30374v-0.60748zm0.00741-0.23707v-0.94456c0.1778-0.15928 0.32967-0.24448 0.48154-0.24448 0.34078 0 0.47413 0.2667 0.47413 0.66305 0 0.4445-0.21855 0.7149-0.51488 0.7149-0.11853 0-0.27781-0.05186-0.4408-0.18891z"/>
   <path d="m10.53 31.874h0.30374v-1.3039c0.1815-0.1815 0.30745-0.27781 0.49265-0.27781 0.23707 0 0.34078 0.14446 0.34078 0.48154v1.1001h0.30374v-1.1409c0-0.45932-0.17039-0.70379-0.54822-0.70379-0.24818 0-0.42968 0.13335-0.60008 0.29633l0.01111-0.37042v-0.71861h-0.30374z"/>
   <path d="m12.426 32.37-0.05927 0.24077c0.05927 0.02222 0.12965 0.03704 0.21114 0.03704 0.36301 0 0.54822-0.2704 0.67416-0.626l0.67787-1.9484h-0.29633l-0.32226 0.99642c-0.04815 0.15928-0.10001 0.34449-0.15187 0.50747h-0.01482c-0.05556-0.16669-0.11853-0.3519-0.1741-0.50747l-0.36671-0.99642h-0.31486l0.72231 1.8039-0.04074 0.13335c-0.07408 0.22225-0.20373 0.38523-0.40746 0.38523-0.04445 0-0.10001-0.01482-0.13705-0.02593z"/>
   <path d="m14.078 31.67c0.17039 0.14076 0.41487 0.24818 0.67045 0.24818 0.42598 0 0.65934-0.24448 0.65934-0.5371 0-0.34078-0.28893-0.4482-0.54822-0.54451-0.20373-0.07779-0.40005-0.14446-0.40005-0.31115 0-0.13705 0.10372-0.25929 0.32967-0.25929 0.15928 0 0.28892 0.06668 0.41116 0.15928l0.14446-0.19262c-0.13706-0.11112-0.33338-0.20373-0.55933-0.20373-0.38894 0-0.6186 0.22225-0.6186 0.51118 0 0.30374 0.28152 0.42598 0.5371 0.51858 0.19632 0.07408 0.41116 0.15558 0.41116 0.34078 0 0.15558-0.11853 0.28152-0.3556 0.28152-0.21484 0-0.37412-0.0889-0.5297-0.21484z"/>
   <path d="m15.989 29.703c0.11853 0 0.21114-0.08149 0.21114-0.19632 0-0.11853-0.0926-0.19632-0.21114-0.19632-0.11853 0-0.21114 0.07779-0.21114 0.19632 0 0.11483 0.0926 0.19632 0.21114 0.19632zm-0.15558 2.1706h0.30374v-1.8002h-0.30374z"/>
   <path d="m16.611 30.977c0 0.59637 0.36671 0.94086 0.84455 0.94086 0.21484 0 0.42228-0.0889 0.58526-0.23336l-0.13705-0.20002c-0.10742 0.09631-0.25188 0.1815-0.42228 0.1815-0.32967 0-0.55563-0.27781-0.55563-0.68898 0-0.41487 0.23707-0.69638 0.56303-0.69638 0.14446 0 0.25559 0.06668 0.36301 0.15928l0.15187-0.19632c-0.12224-0.11483-0.28892-0.21484-0.52599-0.21484-0.46302 0-0.86678 0.34449-0.86678 0.94827z"/>
   <path d="m18.23 31.67c0.17039 0.14076 0.41487 0.24818 0.67046 0.24818 0.42598 0 0.65934-0.24448 0.65934-0.5371 0-0.34078-0.28892-0.4482-0.54822-0.54451-0.20373-0.07779-0.40005-0.14446-0.40005-0.31115 0-0.13705 0.10372-0.25929 0.32967-0.25929 0.15928 0 0.28892 0.06668 0.41116 0.15928l0.14446-0.19262c-0.13705-0.11112-0.33338-0.20373-0.55933-0.20373-0.38894 0-0.6186 0.22225-0.6186 0.51118 0 0.30374 0.28152 0.42598 0.5371 0.51858 0.19632 0.07408 0.41116 0.15558 0.41116 0.34078 0 0.15558-0.11853 0.28152-0.3556 0.28152-0.21484 0-0.37412-0.0889-0.5297-0.21484z"/>
   <path d="m20.731 31.874h0.30374v-1.3039c0.16669-0.18521 0.31856-0.27781 0.45191-0.27781 0.22966 0 0.33708 0.14446 0.33708 0.48154v1.1001h0.30374v-1.3039c0.16669-0.18521 0.31115-0.27781 0.45191-0.27781 0.22596 0 0.33338 0.14446 0.33338 0.48154v1.1001h0.30374v-1.1409c0-0.45932-0.1778-0.70379-0.54822-0.70379-0.21855 0-0.40375 0.14076-0.59267 0.34449-0.07408-0.21484-0.22225-0.34449-0.49636-0.34449-0.21484 0-0.40375 0.13335-0.55933 0.30374h-0.01111l-0.025932-0.25929h-0.25188z"/>
   <path d="m23.665 30.977c0 0.59637 0.39264 0.94086 0.83344 0.94086s0.83344-0.34449 0.83344-0.94086c0-0.60378-0.39264-0.94827-0.83344-0.94827s-0.83344 0.34449-0.83344 0.94827zm0.31485 0c0-0.41487 0.21114-0.69638 0.51858-0.69638 0.31115 0 0.51858 0.28152 0.51858 0.69638 0 0.41116-0.20743 0.68898-0.51858 0.68898-0.30745 0-0.51858-0.27781-0.51858-0.68898z"/>
   <path d="m25.68 30.977c0 0.60008 0.29263 0.94086 0.74454 0.94086 0.21114 0 0.40376-0.11853 0.54451-0.25559h0.01111l0.02593 0.21114h0.25188v-2.6374h-0.30745v0.69268l0.01482 0.30745c-0.15928-0.12965-0.29633-0.20743-0.50377-0.20743-0.41116 0-0.78158 0.36301-0.78158 0.94827zm0.31486-0.0037c0-0.41116 0.22966-0.68898 0.51858-0.68898 0.14817 0 0.28522 0.05186 0.43709 0.18891v0.94086c-0.14817 0.16669-0.29263 0.24818-0.45932 0.24818-0.31486 0-0.49636-0.25929-0.49636-0.68898z"/>
   <path d="m27.731 30.977c0 0.58896 0.38153 0.94086 0.86307 0.94086 0.24448 0 0.43709-0.0852 0.59267-0.18521l-0.10742-0.20003c-0.13335 0.0852-0.27781 0.14076-0.4482 0.14076-0.34449 0-0.57785-0.24448-0.60008-0.63341h1.215c0.0074-0.04445 0.01111-0.10372 0.01111-0.16669 0-0.51488-0.25929-0.84455-0.71861-0.84455-0.41116 0-0.80751 0.3593-0.80751 0.94827zm0.29633-0.13705c0.03704-0.36301 0.2667-0.57044 0.51858-0.57044 0.28152 0 0.4445 0.20373 0.4445 0.57044z"/>
   <path d="m29.702 31.511c0 0.263 0.0926 0.40746 0.32226 0.40746 0.08149 0 0.13335-0.01111 0.1741-0.02963l-0.04075-0.22966c-0.03334 0.0074-0.04815 0.0074-0.06668 0.0074-0.04445 0-0.0852-0.03704-0.0852-0.13335v-2.2966h-0.30374z"/>
  </g>
  <circle cx="43.217" cy="26.876" r=".26458"/>
 </g>
 <path d="m42.9 26.865h-3.0214" fill="none" stroke="#7893ea" stroke-linecap="round" stroke-width=".26458"/>
 <g transform="matrix(-.0021183 0 0 -.0021546 40.165 27.471)" fill="#7893ea" stroke-width="123.85">
  <g fill="#7893ea" stroke-width="123.85">
   <path d="m486.41 221.41-364.07-208.5c-52.938-30.318-95.852-5.44-95.852 55.563v415.65c0 61.004 42.914 85.882 95.852 55.563l364.07-208.49c52.938-30.317 52.938-79.473 0-109.79z" fill="#7893ea" stroke-width="123.85"/>
  </g>
 </g>
 <circle transform="scale(-1,1)" cx="-56.447" cy="26.876" r=".26458" fill="#e8eaec"/>
 <path d="m56.764 26.865h3.0214" fill="none" stroke="#7893ea" stroke-linecap="round" stroke-width=".26458"/>
 <g transform="matrix(.0021183 0 0 -.0021546 59.499 27.471)" fill="#7893ea" stroke-width="123.85">
  <g fill="#7893ea" stroke-width="123.85">
   <path d="m486.41 221.41-364.07-208.5c-52.938-30.318-95.852-5.44-95.852 55.563v415.65c0 61.004 42.914 85.882 95.852 55.563l364.07-208.49c52.938-30.317 52.938-79.473 0-109.79z" fill="#7893ea" stroke-width="123.85"/>
  </g>
 </g>
 <rect x="73.115" y="22.907" width=".52917" height="5.2917" fill="none" stroke="#e8eaec" stroke-dashoffset="1.2" stroke-linecap="square" stroke-width=".13229"/>
 <g fill="#e8eaec" stroke-linecap="round" stroke-width=".26458" aria-label="indices">
  <path d="m83.38 0.59902c0.11853 0 0.21114-0.081492 0.21114-0.19632 0-0.11853-0.0926-0.19632-0.21114-0.19632-0.11853 0-0.21114 0.077788-0.21114 0.19632 0 0.11483 0.0926 0.19632 0.21114 0.19632zm-0.15558 2.1706h0.30374v-1.8002h-0.30374z"/>
  <path d="m84.136 2.7697h0.30374v-1.3039c0.1815-0.1815 0.30745-0.27781 0.49265-0.27781 0.23707 0 0.34078 0.14446 0.34078 0.48154v1.1001h0.30374v-1.1409c0-0.45932-0.17039-0.70379-0.54822-0.70379-0.24818 0-0.43339 0.13335-0.60378 0.30374h-0.01111l-0.02593-0.25929h-0.25188z"/>
  <path d="m86.033 1.8733c0 0.60008 0.29263 0.94086 0.74454 0.94086 0.21114 0 0.40376-0.11853 0.54451-0.25559h0.01111l0.02593 0.21114h0.25188v-2.6374h-0.30745v0.69268l0.01482 0.30745c-0.15928-0.12965-0.29634-0.20743-0.50377-0.20743-0.41116 0-0.78158 0.36301-0.78158 0.94827zm0.31485-0.0037c0-0.41116 0.22966-0.68898 0.51858-0.68898 0.14817 0 0.28522 0.051858 0.43709 0.18891v0.94086c-0.14817 0.16669-0.29263 0.24818-0.45932 0.24818-0.31485 0-0.49636-0.25929-0.49636-0.68898z"/>
  <path d="m88.372 0.59902c0.11853 0 0.21114-0.081492 0.21114-0.19632 0-0.11853-0.0926-0.19632-0.21114-0.19632-0.11853 0-0.21114 0.077788-0.21114 0.19632 0 0.11483 0.0926 0.19632 0.21114 0.19632zm-0.15558 2.1706h0.30374v-1.8002h-0.30374z"/>
  <path d="m88.995 1.8733c0 0.59637 0.36671 0.94086 0.84455 0.94086 0.21484 0 0.42228-0.0889 0.58526-0.23336l-0.13705-0.20003c-0.10742 0.096308-0.25188 0.1815-0.42228 0.1815-0.32967 0-0.55563-0.27781-0.55563-0.68898 0-0.41487 0.23707-0.69638 0.56303-0.69638 0.14446 0 0.25559 0.066675 0.36301 0.15928l0.15187-0.19632c-0.12224-0.11483-0.28893-0.21484-0.52599-0.21484-0.46302 0-0.86678 0.34449-0.86678 0.94827z"/>
  <path d="m90.601 1.8733c0 0.58896 0.38153 0.94086 0.86307 0.94086 0.24448 0 0.43709-0.085196 0.59267-0.18521l-0.10742-0.20003c-0.13335 0.085196-0.27781 0.14076-0.4482 0.14076-0.34449 0-0.57785-0.24448-0.60008-0.63341h1.215c0.0074-0.04445 0.01111-0.10372 0.01111-0.16669 0-0.51488-0.25929-0.84455-0.71861-0.84455-0.41116 0-0.80751 0.3593-0.80751 0.94827zm0.29633-0.13705c0.03704-0.36301 0.2667-0.57044 0.51858-0.57044 0.28152 0 0.4445 0.20373 0.4445 0.57044z"/>
  <path d="m92.372 2.5659c0.17039 0.14076 0.41487 0.24818 0.67046 0.24818 0.42598 0 0.65934-0.24448 0.65934-0.5371 0-0.34078-0.28892-0.4482-0.54822-0.54451-0.20373-0.077788-0.40005-0.14446-0.40005-0.31115 0-0.13705 0.10372-0.25929 0.32967-0.25929 0.15928 0 0.28892 0.066675 0.41116 0.15928l0.14446-0.19262c-0.13705-0.11113-0.33338-0.20373-0.55933-0.20373-0.38894 0-0.6186 0.22225-0.6186 0.51118 0 0.30374 0.28152 0.42598 0.5371 0.51858 0.19632 0.074083 0.41116 0.15558 0.41116 0.34078 0 0.15558-0.11853 0.28152-0.3556 0.28152-0.21484 0-0.37412-0.0889-0.5297-0.21484z"/>
 </g>
 <g fill="#7893ea" stroke-width=".49031">
  <g transform="matrix(.0062948 0 0 .0062948 64.757 -1.0709)">
   <path d="m301.43 312.42 372.68-76v103.93l-372.68 76z"/>
   <rect x="301.43" y="312.34" width="60" height="388.5"/>
   <ellipse transform="matrix(.77274 -.20706 .24886 .92877 273.33 240.34)" cx="-165" cy="470.36" rx="125" ry="78"/>
   <rect x="614.11" y="248.88" width="60" height="388.5"/>
   <ellipse transform="matrix(.77274 -.20706 .24886 .92877 586.02 176.87)" cx="-165" cy="470.36" rx="125" ry="78"/>
  </g>
  <g transform="matrix(.0062948 0 0 .0062948 49.94 3.1624)">
   <path d="m301.43 312.42 372.68-76v103.93l-372.68 76z"/>
   <rect x="301.43" y="312.34" width="60" height="388.5"/>
   <ellipse transform="matrix(.77274 -.20706 .24886 .92877 273.33 240.34)" cx="-165" cy="470.36" rx="125" ry="78"/>
   <rect x="614.11" y="248.88" width="60" height="388.5"/>
   <ellipse transform="matrix(.77274 -.20706 .24886 .92877 586.02 176.87)" cx="-165" cy="470.36" rx="125" ry="78"/>
  </g>
  <g transform="matrix(.0062948 0 0 .0062948 59.994 -.80631)">
   <path d="m301.43 312.42 372.68-76v103.93l-372.68 76z"/>
   <rect x="301.43" y="312.34" width="60" height="388.5"/>
   <ellipse transform="matrix(.77274 -.20706 .24886 .92877 273.33 240.34)" cx="-165" cy="470.36" rx="125" ry="78"/>
   <rect x="614.11" y="248.88" width="60" height="388.5"/>
   <ellipse transform="matrix(.77274 -.20706 .24886 .92877 586.02 176.87)" cx="-165" cy="470.36" rx="125" ry="78"/>
  </g>
 </g>
</svg>
