<?xml version="1.0" encoding="UTF-8" standalone="no"?>
<svg
   xmlns:dc="http://purl.org/dc/elements/1.1/"
   xmlns:cc="http://creativecommons.org/ns#"
   xmlns:rdf="http://www.w3.org/1999/02/22-rdf-syntax-ns#"
   xmlns:svg="http://www.w3.org/2000/svg"
   xmlns="http://www.w3.org/2000/svg"
   xmlns:sodipodi="http://sodipodi.sourceforge.net/DTD/sodipodi-0.dtd"
   xmlns:inkscape="http://www.inkscape.org/namespaces/inkscape"
   width="639.7851"
   height="277.34772"
   version="1.1"
   viewBox="0 0 169.27686 73.382683"
   id="svg70"
   sodipodi:docname="chapter_audio_gamesound.svg"
   inkscape:version="1.0rc1 (09960d6f05, 2020-04-09)">
  <defs
     id="defs74" />
  <sodipodi:namedview
     inkscape:document-rotation="0"
     pagecolor="#ffffff"
     bordercolor="#666666"
     borderopacity="1"
     objecttolerance="10"
     gridtolerance="10"
     guidetolerance="10"
     inkscape:pageopacity="0"
     inkscape:pageshadow="2"
     inkscape:window-width="1920"
     inkscape:window-height="1017"
     id="namedview72"
     showgrid="false"
     inkscape:zoom="1.4442421"
     inkscape:cx="318.92772"
     inkscape:cy="216.58455"
     inkscape:window-x="339"
     inkscape:window-y="1432"
     inkscape:window-maximized="1"
     inkscape:current-layer="svg70" />
  <metadata
     id="metadata2">
    <rdf:RDF>
      <cc:Work
         rdf:about="">
        <dc:format>image/svg+xml</dc:format>
        <dc:type
           rdf:resource="http://purl.org/dc/dcmitype/StillImage" />
        <dc:title></dc:title>
      </cc:Work>
    </rdf:RDF>
  </metadata>
  <rect
     id="rect4"
     style="stroke-width:1;paint-order:normal"
     fill="#1d232d"
     height="70.531715"
     width="169.27902"
     y="1.4089831"
     x="-0.0010970702" />
  <g
     transform="matrix(7.2627,0,0,7.2627,-684.20554,-699.1075)"
     id="g54"
     fill="#7b8694"
     style="stroke-width:0.13769">
    <path
       inkscape:connector-curvature="0"
       id="path6"
       d="m 94.596,96.26 h 1.1654 v 0.19408 H 94.596 Z" />
    <path
       inkscape:connector-curvature="0"
       id="path8"
       d="m 96.538,96.26 h 1.1654 v 0.19408 H 96.538 Z" />
    <path
       inkscape:connector-curvature="0"
       id="path10"
       d="m 98.481,96.26 h 1.1654 v 0.19408 H 98.481 Z" />
    <path
       style="fill:#7b8694;fill-opacity:1"
       inkscape:connector-curvature="0"
       id="path12"
       d="m 100.42,96.26 h 1.1654 v 0.19408 H 100.42 Z" />
    <path
       inkscape:connector-curvature="0"
       id="path14"
       d="m 102.37,96.26 h 1.1654 v 0.19408 H 102.37 Z" />
    <path
       inkscape:connector-curvature="0"
       id="path16"
       d="m 104.31,96.26 h 1.1654 v 0.19408 H 104.31 Z" />
    <path
       inkscape:connector-curvature="0"
       id="path18"
       d="m 106.25,96.26 h 1.1654 v 0.19408 H 106.25 Z" />
    <path
       inkscape:connector-curvature="0"
       id="path20"
       d="m 108.19,96.26 h 1.1654 v 0.19408 H 108.19 Z" />
    <path
       inkscape:connector-curvature="0"
       id="path22"
       d="m 110.13,96.26 h 1.1654 v 0.19408 H 110.13 Z" />
    <path
       inkscape:connector-curvature="0"
       id="path24"
       d="m 112.08,96.26 h 1.1654 v 0.19408 H 112.08 Z" />
    <path
       inkscape:connector-curvature="0"
       id="path26"
       d="m 114.02,96.26 h 1.1654 v 0.19408 H 114.02 Z" />
    <path
       inkscape:connector-curvature="0"
       id="path28"
       d="m 115.96,96.26 h 1.1654 v 0.19408 H 115.96 Z" />
    <path
       inkscape:connector-curvature="0"
       id="path30"
       d="m 115.96,106.17 h 1.1654 v 0.19405 H 115.96 Z" />
    <path
       inkscape:connector-curvature="0"
       id="path32"
       d="m 114.02,106.17 h 1.1654 v 0.19405 H 114.02 Z" />
    <path
       inkscape:connector-curvature="0"
       id="path34"
       d="m 112.08,106.17 h 1.1654 v 0.19405 H 112.08 Z" />
    <path
       inkscape:connector-curvature="0"
       id="path36"
       d="m 110.13,106.17 h 1.1654 v 0.19405 H 110.13 Z" />
    <path
       inkscape:connector-curvature="0"
       id="path38"
       d="m 108.19,106.17 h 1.1654 v 0.19405 H 108.19 Z" />
    <path
       inkscape:connector-curvature="0"
       id="path40"
       d="m 106.25,106.17 h 1.1654 v 0.19405 H 106.25 Z" />
    <path
       inkscape:connector-curvature="0"
       id="path42"
       d="m 104.31,106.17 h 1.1654 v 0.19405 H 104.31 Z" />
    <path
       inkscape:connector-curvature="0"
       id="path44"
       d="m 102.37,106.17 h 1.1654 v 0.19405 H 102.37 Z" />
    <path
       inkscape:connector-curvature="0"
       id="path46"
       d="m 100.42,106.17 h 1.1654 v 0.19405 H 100.42 Z" />
    <path
       inkscape:connector-curvature="0"
       id="path48"
       d="m 98.481,106.17 h 1.1654 v 0.19405 H 98.481 Z" />
    <path
       inkscape:connector-curvature="0"
       id="path50"
       d="m 96.538,106.17 h 1.1654 v 0.19405 H 96.538 Z" />
    <path
       inkscape:connector-curvature="0"
       id="path52"
       d="m 94.596,106.17 h 1.1654 v 0.19405 H 94.596 Z" />
  </g>
  <path
     style="fill:#7b8694;stroke-width:0.176327;fill-opacity:1"
     d="m 93.353041,48.936447 v -5.100396 l 4.320006,-4.332679 c 3.252473,-3.262017 4.321613,-4.439612 4.326483,-4.765399 0.005,-0.340022 -1.72464,-2.151232 -8.075209,-8.455587 -5.831456,-5.801248 -6.237946,-6.205578 -0.57128,-0.620219 v -5.023166 -5.023165 l 9.521799,9.520577 c 5.23699,5.23632 9.5019,9.569351 9.47757,9.628956 -0.0243,0.05958 -4.30914,4.420073 -9.5218,9.689921 l -9.477569,9.581554 z m -0.54233,-33.8949 -0.42747,-0.484896 0.4849,0.42747 c 0.45321,0.399534 0.56576,0.542328 0.42747,0.542328 -0.0316,0 -0.24979,-0.218207 -0.4849,-0.484902 z"
     id="path1156"
     inkscape:connector-curvature="0"
     sodipodi:nodetypes="ccssccccsssccsssss" />
  <path
     style="fill:#7893ea;stroke-width:0.176327;fill-opacity:1"
     d="m 64.659158,50.396679 -6.035876,-3.395882 0.0408,-11.697478 0.0408,-11.697479 5.995116,-3.395162 5.995116,-3.395155 0.0456,9.229763 c 0.0251,5.076379 0.0251,13.396209 0,18.488522 l -0.0456,9.258752 z m 0.83423,-7.715892 c 0.788883,-0.788877 0.197793,-2.115924 -0.94247,-2.115924 -0.72419,0 -1.23222,0.508887 -1.23222,1.234288 0,1.113145 1.38265,1.673679 2.17469,0.881636 z m -0.36526,-6.253081 c 0.818693,-0.423364 0.967703,-1.304848 0.33453,-1.978834 -0.75558,-0.804279 -2.14396,-0.293133 -2.14396,0.789311 0,0.712312 0.49218,1.274379 1.25773,1.436313 0.0291,0.006 0.27733,-0.104908 0.5517,-0.24679 z m 0.36526,-6.795108 c 0.788883,-0.788878 0.197793,-2.115925 -0.94247,-2.115925 -0.72419,0 -1.23222,0.508887 -1.23222,1.234288 0,1.113145 1.38265,1.67368 2.17469,0.881637 z m 13.446058,8.332572 1.71806,-1.718057 1.718053,1.718057 1.71806,1.718056 h -3.436113 -3.436113 z m -0.0395,-6.299031 c -0.914493,-0.91831 -1.618713,-1.713645 -1.564943,-1.767419 0.0538,-0.05378 1.578733,-0.07613 3.388803,-0.04971 l 3.291033,0.04805 -1.72609,1.71935 -1.726093,1.719349 z"
     id="path1152"
     inkscape:connector-curvature="0" />
  <path
     sodipodi:nodetypes="sssssccssscccsssccsssssscsss"
     style="fill:#7b8694;stroke-width:0.176327;fill-opacity:1"
     d="m 103.75633,57.227754 c 0.22776,-0.242451 0.4538,-0.440818 0.50229,-0.440818 0.0485,0 -0.0982,0.198367 -0.32597,0.440818 -0.22777,0.242452 -0.4538,0.440819 -0.50229,0.440819 -0.0485,0 0.0982,-0.198367 0.32597,-0.440819 z m 0.52897,-5.824691 v -5.276559 l 5.46614,-5.476279 c 4.16436,-4.17209 5.46614,-5.578175 5.46614,-5.904149 0,-0.325974 -1.30178,-1.732058 -5.46614,-5.904149 l -5.46614,-5.476279 7.4e-4,-5.374296 7.3e-4,-5.374296 11.01801,11.020426 c 6.05991,6.061238 10.99896,11.060105 10.97567,11.108594 -0.0233,0.04852 -4.9817,5.003379 -11.01869,11.010857 l -10.9764,10.922696 z m -1.93959,-3.520636 c 0.91748,-0.921302 1.70781,-1.675106 1.7563,-1.675106 0.0485,0 -0.6625,0.753804 -1.57997,1.675106 -0.91748,0.921309 -1.70782,1.675106 -1.75631,1.675106 -0.0485,0 0.6625,-0.753797 1.57998,-1.675106 z m -1.67684,-27.991891 -3.348476,-3.394289 3.394296,3.348466 c 1.86686,1.841658 3.39429,3.369091 3.39429,3.394295 0,0.125454 -0.329,-0.194782 -3.44011,-3.348472 z"
     id="path1150"
     inkscape:connector-curvature="0" />
  <path
     style="fill:#2f3744;stroke-width:0.176327;fill-opacity:1"
     d="m 103.50443,58.978426 c -0.1524,-0.152391 -0.27708,-0.449722 -0.27708,-0.660725 0,-0.272526 3.3577,-3.741634 11.59233,-11.976975 L 126.41201,34.747389 114.81968,23.150107 c -6.37578,-6.378501 -11.59233,-11.717071 -11.59233,-11.863484 0,-0.146413 0.12352,-0.442557 0.27448,-0.658092 0.67983,-0.970584 0.43006,-1.189937 13.26035,11.645438 9.22879,9.232435 12.03256,12.135777 12.03256,12.459818 0,0.323862 -2.80752,3.235374 -12.02666,12.472108 -12.7019,12.726148 -12.4943,12.541889 -13.26365,11.772531 z M 64.175095,52.449033 c -4.070866,-2.280311 -7.46174,-4.240652 -7.535274,-4.35631 -0.07353,-0.115664 -0.134915,-5.891153 -0.1364,-12.834421 -0.0025,-11.806092 0.01729,-12.641352 0.305872,-12.889995 0.654665,-0.564073 14.614587,-8.329946 15.10267,-8.401579 1.040174,-0.152665 0.987158,-1.297405 0.987158,21.314705 0,19.874008 -0.01354,20.757797 -0.322457,21.037361 -0.177351,0.160501 -0.474902,0.288315 -0.661225,0.284036 -0.186323,-0.004 -3.669479,-1.873486 -7.740344,-4.153797 z m 6.78443,-17.08581 c 0,-11.7276 -0.06236,-18.602486 -0.168754,-18.602486 -0.09281,0 -2.8898,1.541608 -6.215522,3.42579 l -6.046769,3.425791 -0.04054,11.69424 -0.04054,11.694239 6.123815,3.467122 c 3.368097,1.906915 6.183325,3.47402 6.25606,3.48245 0.07273,0.0085 0.132245,-8.355783 0.132245,-18.587146 z m -7.117459,7.304769 c -0.308077,-0.242338 -0.464597,-0.535044 -0.464597,-0.868841 0,-0.546427 0.690228,-1.234288 1.238533,-1.234288 0.565466,0 1.112492,0.606918 1.112492,1.234288 0,0.394915 -0.129994,0.6892 -0.401576,0.909113 -0.520395,0.421392 -0.911421,0.410783 -1.484852,-0.04025 z m -0.08121,-6.566746 c -0.530492,-0.564686 -0.49313,-1.243251 0.09388,-1.704988 0.759045,-0.597068 1.667379,-0.245963 1.90843,0.737683 0.09078,0.370417 0.01689,0.575782 -0.333036,0.925714 -0.559073,0.559075 -1.168848,0.574269 -1.669272,0.04158 z m 0.08121,-6.481444 c -0.308077,-0.242338 -0.464597,-0.535044 -0.464597,-0.868841 0,-0.54642 0.690228,-1.234288 1.238533,-1.234288 0.565466,0 1.112492,0.606918 1.112492,1.234288 0,0.394915 -0.129994,0.689201 -0.401576,0.909113 -0.520395,0.421392 -0.911421,0.410783 -1.484852,-0.04025 z m 29.04158,26.814723 c -0.443105,-0.178688 -0.676055,-0.756862 -0.460283,-1.142421 0.08239,-0.147219 4.662412,-4.83648 10.177837,-10.420586 L 112.62924,34.718593 102.46216,24.545902 C 96.870265,18.95092 92.295078,14.253609 92.295078,14.107429 c 0,-0.558722 0.542385,-1.07154 1.07393,-1.015387 0.746199,0.07883 21.672242,20.98314 21.672242,21.649736 0,0.358748 -2.15457,2.602532 -10.71525,11.158936 -5.893383,5.89044 -10.793065,10.704868 -10.888183,10.698717 -0.09512,-0.006 -0.344495,-0.08036 -0.554171,-0.164906 z m -8.517075,-5.45478 c -0.100391,-0.187585 -0.182529,-0.484802 -0.182529,-0.660478 0,-0.185832 3.18855,-3.508594 7.62439,-7.945314 l 7.624385,-7.625904 -7.624385,-7.631842 c -4.193415,-4.197515 -7.62439,-7.750925 -7.62439,-7.896465 0,-0.499377 0.535051,-1.048389 1.021732,-1.048389 0.388352,0 1.913387,1.440632 8.541857,8.069095 6.342049,6.342055 8.069099,8.163547 8.069099,8.51036 0,0.346926 -1.72563,2.165386 -8.071424,8.505628 -7.268574,7.262218 -8.127363,8.064371 -8.633813,8.064371 -0.375556,0 -0.62303,-0.113312 -0.744922,-0.341062 z M 42.276208,46.126611 C 41.96866,45.992827 41.629531,45.71988 41.522588,45.520053 41.385735,45.26434 41.342455,42.174893 41.37646,35.088784 l 0.04832,-10.067949 0.658637,-0.603512 0.658636,-0.603512 h 3.95427 3.95427 l 0.456492,0.542508 0.456491,0.542507 v 10.116971 c 0,7.038973 -0.05956,10.247697 -0.195771,10.546641 -0.107674,0.23632 -0.389122,0.51777 -0.625441,0.625444 -0.661383,0.301343 -7.750476,0.250041 -8.466148,-0.06124 z m 32.854328,-5.884203 c -0.600011,-0.663004 -0.380344,-1.055333 1.859312,-3.320763 l 2.151131,-2.175895 -2.239295,-2.263157 c -1.231611,-1.244737 -2.239295,-2.395195 -2.239295,-2.556576 0,-0.397794 0.627513,-0.998727 1.042905,-0.998727 0.192757,0 1.330178,0.956256 2.651126,2.228862 l 2.313529,2.228863 2.225633,-2.228863 c 1.494552,-1.496724 2.352335,-2.228862 2.611352,-2.228862 0.463765,0 0.969357,0.514498 0.969357,0.986438 0,0.201599 -0.866923,1.206191 -2.115923,2.451934 -1.163757,1.160728 -2.115922,2.179081 -2.115922,2.263011 0,0.08392 0.991838,1.130139 2.204086,2.324921 1.665102,1.641118 2.204086,2.28115 2.204086,2.617314 0,0.492519 -0.574519,0.993955 -1.138825,0.993955 -0.219425,0 -1.213579,-0.856619 -2.602566,-2.242524 l -2.247516,-2.242532 -2.266424,2.242532 c -2.323963,2.299457 -2.715268,2.529452 -3.266751,1.920069 z"
     id="path1144"
     inkscape:connector-curvature="0" />
</svg>
