<?xml version="1.0" encoding="UTF-8" standalone="no"?>
<svg
   xmlns:dc="http://purl.org/dc/elements/1.1/"
   xmlns:cc="http://creativecommons.org/ns#"
   xmlns:rdf="http://www.w3.org/1999/02/22-rdf-syntax-ns#"
   xmlns:svg="http://www.w3.org/2000/svg"
   xmlns="http://www.w3.org/2000/svg"
   xmlns:sodipodi="http://sodipodi.sourceforge.net/DTD/sodipodi-0.dtd"
   xmlns:inkscape="http://www.inkscape.org/namespaces/inkscape"
   width="639.7851"
   height="277.34772"
   version="1.1"
   viewBox="0 0 169.27686 73.382683"
   id="svg70"
   sodipodi:docname="chapter_digital_sound.svg"
   inkscape:version="1.0rc1 (09960d6f05, 2020-04-09)">
  <defs
     id="defs74" />
  <sodipodi:namedview
     inkscape:document-rotation="0"
     pagecolor="#ffffff"
     bordercolor="#666666"
     borderopacity="1"
     objecttolerance="10"
     gridtolerance="10"
     guidetolerance="10"
     inkscape:pageopacity="0"
     inkscape:pageshadow="2"
     inkscape:window-width="1920"
     inkscape:window-height="1017"
     id="namedview72"
     showgrid="false"
     inkscape:zoom="1.4442421"
     inkscape:cx="294.06007"
     inkscape:cy="215.83819"
     inkscape:window-x="339"
     inkscape:window-y="1432"
     inkscape:window-maximized="1"
     inkscape:current-layer="svg70" />
  <metadata
     id="metadata2">
    <rdf:RDF>
      <cc:Work
         rdf:about="">
        <dc:format>image/svg+xml</dc:format>
        <dc:type
           rdf:resource="http://purl.org/dc/dcmitype/StillImage" />
        <dc:title></dc:title>
      </cc:Work>
    </rdf:RDF>
  </metadata>
  <rect
     id="rect4"
     style="stroke-width:1;paint-order:normal"
     fill="#1d232d"
     height="70.531715"
     width="169.27902"
     y="1.4089831"
     x="-0.0010970702" />
  <g
     transform="matrix(7.2627,0,0,7.2627,-684.20554,-699.1075)"
     id="g54"
     fill="#7b8694"
     style="stroke-width:0.13769">
    <path
       inkscape:connector-curvature="0"
       id="path6"
       d="m 94.596,96.26 h 1.1654 v 0.19408 H 94.596 Z" />
    <path
       inkscape:connector-curvature="0"
       id="path8"
       d="m 96.538,96.26 h 1.1654 v 0.19408 H 96.538 Z" />
    <path
       inkscape:connector-curvature="0"
       id="path10"
       d="m 98.481,96.26 h 1.1654 v 0.19408 H 98.481 Z" />
    <path
       inkscape:connector-curvature="0"
       id="path12"
       d="m 100.42,96.26 h 1.1654 v 0.19408 H 100.42 Z" />
    <path
       inkscape:connector-curvature="0"
       id="path14"
       d="m 102.37,96.26 h 1.1654 v 0.19408 H 102.37 Z" />
    <path
       inkscape:connector-curvature="0"
       id="path16"
       d="m 104.31,96.26 h 1.1654 v 0.19408 H 104.31 Z" />
    <path
       inkscape:connector-curvature="0"
       id="path18"
       d="m 106.25,96.26 h 1.1654 v 0.19408 H 106.25 Z" />
    <path
       inkscape:connector-curvature="0"
       id="path20"
       d="m 108.19,96.26 h 1.1654 v 0.19408 H 108.19 Z" />
    <path
       inkscape:connector-curvature="0"
       id="path22"
       d="m 110.13,96.26 h 1.1654 v 0.19408 H 110.13 Z" />
    <path
       inkscape:connector-curvature="0"
       id="path24"
       d="m 112.08,96.26 h 1.1654 v 0.19408 H 112.08 Z" />
    <path
       inkscape:connector-curvature="0"
       id="path26"
       d="m 114.02,96.26 h 1.1654 v 0.19408 H 114.02 Z" />
    <path
       inkscape:connector-curvature="0"
       id="path28"
       d="m 115.96,96.26 h 1.1654 v 0.19408 H 115.96 Z" />
    <path
       inkscape:connector-curvature="0"
       id="path30"
       d="m 115.96,106.17 h 1.1654 v 0.19405 H 115.96 Z" />
    <path
       inkscape:connector-curvature="0"
       id="path32"
       d="m 114.02,106.17 h 1.1654 v 0.19405 H 114.02 Z" />
    <path
       inkscape:connector-curvature="0"
       id="path34"
       d="m 112.08,106.17 h 1.1654 v 0.19405 H 112.08 Z" />
    <path
       inkscape:connector-curvature="0"
       id="path36"
       d="m 110.13,106.17 h 1.1654 v 0.19405 H 110.13 Z" />
    <path
       inkscape:connector-curvature="0"
       id="path38"
       d="m 108.19,106.17 h 1.1654 v 0.19405 H 108.19 Z" />
    <path
       inkscape:connector-curvature="0"
       id="path40"
       d="m 106.25,106.17 h 1.1654 v 0.19405 H 106.25 Z" />
    <path
       inkscape:connector-curvature="0"
       id="path42"
       d="m 104.31,106.17 h 1.1654 v 0.19405 H 104.31 Z" />
    <path
       inkscape:connector-curvature="0"
       id="path44"
       d="m 102.37,106.17 h 1.1654 v 0.19405 H 102.37 Z" />
    <path
       inkscape:connector-curvature="0"
       id="path46"
       d="m 100.42,106.17 h 1.1654 v 0.19405 H 100.42 Z" />
    <path
       inkscape:connector-curvature="0"
       id="path48"
       d="m 98.481,106.17 h 1.1654 v 0.19405 H 98.481 Z" />
    <path
       inkscape:connector-curvature="0"
       id="path50"
       d="m 96.538,106.17 h 1.1654 v 0.19405 H 96.538 Z" />
    <path
       inkscape:connector-curvature="0"
       id="path52"
       d="m 94.596,106.17 h 1.1654 v 0.19405 H 94.596 Z" />
  </g>
  <g
     transform="matrix(5.114093,0,0,5.114093,17.237131,4.7342287)"
     fill="#2f3744"
     stroke="#535e70"
     stroke-dashoffset="1.2"
     stroke-linecap="round"
     stroke-miterlimit="40"
     id="g124">
    <g
       stroke-width="0.020854"
       id="g60">
      <path
         inkscape:connector-curvature="0"
         d="m 5.693,2.1623 v 8.3315"
         id="path52-6" />
      <path
         inkscape:connector-curvature="0"
         d="m 6.5272,2.1623 v 8.3315"
         id="path54" />
      <path
         inkscape:connector-curvature="0"
         d="m 7.3614,2.1623 v 8.3315"
         id="path56" />
      <path
         inkscape:connector-curvature="0"
         d="m 8.1956,2.1623 v 8.3315"
         id="path58" />
    </g>
    <path
       style="stroke-width:0.02084997;stroke-miterlimit:40;stroke-dasharray:none"
       inkscape:connector-curvature="0"
       d="m 9.0297,2.1623 v 8.3315"
       stroke-width="0.041709"
       id="path62" />
    <g
       stroke-width="0.020854"
       id="g72">
      <path
         inkscape:connector-curvature="0"
         d="m 9.8639,2.1623 v 8.3315"
         id="path64" />
      <path
         inkscape:connector-curvature="0"
         d="m 10.698,2.1623 v 8.3315"
         id="path66" />
      <path
         inkscape:connector-curvature="0"
         d="m 11.532,2.1623 v 8.3315"
         id="path68" />
      <path
         inkscape:connector-curvature="0"
         d="m 12.366,2.1623 v 8.3315"
         id="path70" />
    </g>
    <path
       style="stroke-width:0.02084997;stroke-miterlimit:40;stroke-dasharray:none"
       inkscape:connector-curvature="0"
       d="m 13.201,2.1623 v 8.3315"
       stroke-width="0.041709"
       id="path74" />
    <g
       stroke-width="0.020854"
       id="g84">
      <path
         inkscape:connector-curvature="0"
         d="m 14.035,2.1623 v 8.3315"
         id="path76" />
      <path
         inkscape:connector-curvature="0"
         d="m 14.869,2.1623 v 8.3315"
         id="path78" />
      <path
         inkscape:connector-curvature="0"
         d="m 15.703,2.1623 v 8.3315"
         id="path80" />
      <path
         inkscape:connector-curvature="0"
         d="m 16.537,2.1623 v 8.3315"
         id="path82" />
    </g>
    <path
       style="stroke-width:0.02084997;stroke-miterlimit:40;stroke-dasharray:none"
       inkscape:connector-curvature="0"
       d="m 17.371,2.1623 v 8.3315"
       stroke-width="0.041709"
       id="path86" />
    <g
       stroke-width="0.020854"
       id="g104">
      <path
         inkscape:connector-curvature="0"
         d="m 4.8798,9.6606 h 16.65"
         id="path88" />
      <path
         inkscape:connector-curvature="0"
         d="m 4.8798,8.8265 h 16.65"
         id="path90" />
      <path
         inkscape:connector-curvature="0"
         d="m 4.8798,7.9923 h 16.65"
         id="path92" />
      <path
         inkscape:connector-curvature="0"
         d="m 4.8798,7.1581 h 16.65"
         id="path94" />
      <path
         style="stroke-width:0.02084997;stroke-miterlimit:40;stroke-dasharray:none"
         inkscape:connector-curvature="0"
         d="m 4.8798,5.4898 h 16.65"
         id="path96" />
      <path
         inkscape:connector-curvature="0"
         d="m 4.8798,4.6556 h 16.65"
         id="path98" />
      <path
         inkscape:connector-curvature="0"
         d="m 4.8798,3.8214 h 16.65"
         id="path100" />
      <path
         inkscape:connector-curvature="0"
         d="m 4.8798,2.9872 h 16.65"
         id="path102" />
    </g>
    <path
       style="stroke-width:0.02084997;stroke-miterlimit:40;stroke-dasharray:none"
       inkscape:connector-curvature="0"
       d="m 4.8589,2.1623 v 8.3315"
       stroke-width="0.041709"
       id="path106" />
    <g
       stroke-width="0.020854"
       id="g122">
      <path
         inkscape:connector-curvature="0"
         d="m 4.8798,2.1531 h 16.65"
         id="path108" />
      <path
         inkscape:connector-curvature="0"
         d="m 4.8798,10.495 h 16.65"
         id="path110" />
      <path
         inkscape:connector-curvature="0"
         d="m 4.8798,6.3239 h 16.65"
         id="path112" />
      <path
         inkscape:connector-curvature="0"
         d="m 18.206,2.1623 v 8.3315"
         id="path114" />
      <path
         inkscape:connector-curvature="0"
         d="m 19.04,2.1623 v 8.3315"
         id="path116" />
      <path
         inkscape:connector-curvature="0"
         d="m 19.874,2.1623 v 8.3315"
         id="path118" />
      <path
         inkscape:connector-curvature="0"
         d="m 20.708,2.1623 v 8.3315"
         id="path120" />
    </g>
  </g>
  <path
     style="stroke:#7893ea;stroke-opacity:1"
     inkscape:connector-curvature="0"
     d="m 42.014884,37.217925 v -7.484473 h 4.440013 v -5.586126 h 4.089743 v -4.006685 h 4.066474 V 16.62465 h 4.550632 v -0.888013 h 8.604934 v 0.951429 h 4.144007 v 3.361696 h 4.33323 v 4.994526 h 4.26081 v 6.129752 h 4.2758 v 6.548085 h 4.24587 v 6.697925 h 4.25974 v 5.504811 h 4.29201 v 4.524591 h 4.186253 v 2.938863 h 8.64743 v -2.241148 h 4.20742 v -4.440003 h 4.27084 v -5.13762 h 4.20742 v -4.244032 h 2.2131 v -4.260807 h 2.16779"
     fill="none"
     stroke="#e9e56f"
     stroke-linecap="round"
     stroke-width="0.541278"
     id="path126" />
  <path
     style="stroke-width:0.10662868;stroke-miterlimit:40;stroke-dasharray:none"
     inkscape:connector-curvature="0"
     d="M 127.40491,15.792433 V 58.400499"
     fill="#2f3744"
     stroke="#535e70"
     stroke-dashoffset="1.2"
     stroke-linecap="round"
     stroke-miterlimit="40"
     stroke-width="0.213304"
     id="path128" />
  <g
     transform="matrix(5.114093,0,0,5.114093,17.237131,4.7342287)"
     fill="#d2d6dc"
     id="g170">
    <circle
       cx="4.8586001"
       cy="6.3245001"
       r="0.12513"
       id="circle130" />
    <circle
       cx="5.6928"
       cy="4.9481001"
       r="0.12513"
       id="circle132" />
    <circle
       cx="6.527"
       cy="3.822"
       r="0.12513"
       id="circle134" />
    <circle
       cx="7.3611002"
       cy="2.9877999"
       r="0.12513"
       id="circle136" />
    <circle
       cx="8.1953001"
       cy="2.3622"
       r="0.12513"
       id="circle138" />
    <circle
       cx="9.8636999"
       cy="2.3622"
       r="0.12513"
       id="circle140" />
    <circle
       cx="10.698"
       cy="2.9877999"
       r="0.12513"
       id="circle142" />
    <circle
       cx="11.532"
       cy="3.9470999"
       r="0.12513"
       id="circle144" />
    <circle
       cx="12.366"
       cy="5.1567001"
       r="0.12513"
       id="circle146" />
    <circle
       cx="13.2"
       cy="6.4496999"
       r="0.12513"
       id="circle148" />
    <circle
       cx="14.035"
       cy="7.7426"
       r="0.12513"
       id="circle150" />
    <circle
       cx="14.869"
       cy="8.8270998"
       r="0.12513"
       id="circle152" />
    <circle
       cx="15.703"
       cy="9.7447004"
       r="0.12513"
       id="circle154" />
    <circle
       cx="16.537001"
       cy="10.287"
       r="0.12513"
       id="circle156" />
    <circle
       cx="18.205"
       cy="10.287"
       r="0.12513"
       id="circle158" />
    <circle
       cx="19.040001"
       cy="9.8697996"
       r="0.12513"
       id="circle160" />
    <circle
       cx="19.874001"
       cy="9.0355997"
       r="0.12513"
       id="circle162" />
    <circle
       cx="20.708"
       cy="7.9512"
       r="0.12513"
       id="circle164" />
    <circle
       cx="21.125"
       cy="7.1587"
       r="0.12513"
       id="circle166" />
    <circle
       cx="21.542"
       cy="6.3245001"
       r="0.12513"
       id="circle168" />
  </g>
  <path
     style="stroke-width:5.11409"
     inkscape:connector-curvature="0"
     d="M 42.192857,37.07524 V 29.98711"
     fill="#47d58a"
     id="path172" />
</svg>
