<?xml version="1.0" encoding="UTF-8"?>
<svg width="539.82" height="233.14" version="1.1" viewBox="0 0 142.83 61.687" xmlns="http://www.w3.org/2000/svg" xmlns:cc="http://creativecommons.org/ns#" xmlns:dc="http://purl.org/dc/elements/1.1/" xmlns:rdf="http://www.w3.org/1999/02/22-rdf-syntax-ns#">
 <metadata>
  <rdf:RDF>
   <cc:Work rdf:about="">
    <dc:format>image/svg+xml</dc:format>
    <dc:type rdf:resource="http://purl.org/dc/dcmitype/StillImage"/>
    <dc:title/>
   </cc:Work>
  </rdf:RDF>
 </metadata>
 <g fill="#e8eaec" stroke-linecap="round" stroke-width=".26459" aria-label="time">
  <path d="m76.49 61.041c0 0.30481 0.11113 0.51437 0.44134 0.51437 0.09525 0 0.20003-0.02858 0.28576-0.05715l-0.0508-0.19686c-0.0508 0.01905-0.12065 0.04128-0.17463 0.04128-0.17781 0-0.23813-0.10795-0.23813-0.29846v-0.85728h0.41594v-0.21274h-0.41594v-0.43182h-0.21908l-0.03175 0.43182-0.24131 0.01587v0.19686h0.22861z"/>
  <path d="m77.652 59.656c0.1016 0 0.18098-0.06985 0.18098-0.16828 0-0.1016-0.07938-0.16828-0.18098-0.16828-0.1016 0-0.18098 0.06668-0.18098 0.16828 0 0.09843 0.07938 0.16828 0.18098 0.16828zm-0.13336 1.8606h0.26036v-1.5431h-0.26036z"/>
  <path d="m78.3 61.517h0.26036v-1.1176c0.14288-0.15876 0.27306-0.23813 0.38736-0.23813 0.19686 0 0.28894 0.12383 0.28894 0.41276v0.94301h0.26036v-1.1176c0.14288-0.15876 0.26671-0.23813 0.38736-0.23813 0.19368 0 0.28576 0.12383 0.28576 0.41276v0.94301h0.26036v-0.97793c0-0.39371-0.15241-0.60327-0.46992-0.60327-0.18733 0-0.34609 0.12065-0.50802 0.29528-0.0635-0.18416-0.19051-0.29528-0.42546-0.29528-0.18416 0-0.34609 0.1143-0.47944 0.26036h-0.0095l-0.02223-0.22226h-0.21591z"/>
  <path d="m80.815 60.748c0 0.50484 0.32704 0.80648 0.7398 0.80648 0.20956 0 0.37466-0.07303 0.50802-0.15876l-0.09208-0.17146c-0.1143 0.07303-0.23813 0.12065-0.38419 0.12065-0.29528 0-0.49532-0.20956-0.51437-0.54294h1.0414c0.0063-0.0381 0.0095-0.0889 0.0095-0.14288 0-0.44134-0.22226-0.72392-0.61597-0.72392-0.35244 0-0.69217 0.30798-0.69217 0.81283zm0.25401-0.11748c0.03175-0.31116 0.22861-0.48897 0.44452-0.48897 0.24131 0 0.38101 0.17463 0.38101 0.48897z"/>
 </g>
 <g fill="#2f3744" stroke="#535e70" stroke-dashoffset="1.2" stroke-linecap="round" stroke-miterlimit="40">
  <g stroke-width=".1323">
   <path d="m26.229 0.92489v52.923"/>
   <path d="m31.521 1.0531v52.654"/>
   <path d="m36.813 1.0531v52.654"/>
   <path d="m42.105 1.0531v52.654"/>
   <path d="m47.396 1.0531v52.654"/>
   <path d="m52.688 1.0531v52.654"/>
   <path d="m57.98 1.0531v52.654"/>
   <path d="m63.272 1.0531v52.654"/>
   <path d="m68.564 1.0531v52.654"/>
   <path d="m73.856 1.0531v52.654"/>
   <path d="m79.148 1.0531v52.654"/>
   <path d="m84.439 1.0531v52.654"/>
   <path d="m89.731 1.0531v52.654"/>
   <path d="m95.023 1.0531v52.654"/>
   <path d="m100.32 1.0531v52.654"/>
   <path d="m105.61 1.0531v52.654"/>
   <path d="m110.9 1.0531v52.654"/>
   <path d="m116.19 1.0531v52.654"/>
   <path d="m121.48 1.0531v52.654"/>
   <path d="m126.77 1.0531v52.654"/>
   <path d="m26.362 48.547h105.57"/>
   <path d="m26.362 43.256h105.57"/>
   <path d="m26.362 37.964h105.57"/>
   <path d="m26.362 32.672h105.57"/>
   <path d="m26.362 27.38h105.57"/>
   <path d="m26.362 22.088h105.57"/>
   <path d="m26.362 16.796h105.57"/>
   <path d="m26.362 11.504h105.57"/>
   <path d="m26.362 6.2126h105.57"/>
   <path d="m26.233 0.92077h105.83"/>
  </g>
  <g stroke-width=".066148">
   <path d="m28.875 1.0531v52.654"/>
   <path d="m34.167 1.0531v52.654"/>
   <path d="m39.459 1.0531v52.654"/>
   <path d="m44.751 1.0531v52.654"/>
   <path d="m50.042 1.0531v52.654"/>
   <path d="m55.334 1.0531v52.654"/>
   <path d="m60.626 1.0531v52.654"/>
   <path d="m65.918 1.0531v52.654"/>
   <path d="m71.21 1.0531v52.654"/>
   <path d="m76.502 1.0531v52.654"/>
   <path d="m81.793 1.0531v52.654"/>
   <path d="m87.085 1.0531v52.654"/>
   <path d="m92.377 1.0531v52.654"/>
   <path d="m97.669 1.0531v52.654"/>
   <path d="m102.96 1.0531v52.654"/>
   <path d="m108.25 1.0531v52.654"/>
   <path d="m113.54 1.0531v52.654"/>
   <path d="m118.84 1.0531v52.654"/>
   <path d="m124.13 1.0531v52.654"/>
   <path d="m26.362 3.5667h105.57"/>
   <path d="m26.362 8.8585h105.57"/>
   <path d="m26.362 14.15h105.57"/>
   <path d="m26.362 19.442h105.57"/>
   <path d="m26.362 24.734h105.57"/>
   <path d="m26.362 30.026h105.57"/>
   <path d="m26.362 35.318h105.57"/>
   <path d="m26.362 40.61h105.57"/>
   <path d="m26.362 45.901h105.57"/>
   <path d="m26.362 51.193h105.57"/>
  </g>
  <path d="m132.07 0.92077v52.923" stroke-width=".1323"/>
  <path d="m129.42 1.0531v52.654" stroke-width=".066148"/>
  <g stroke-width=".033074">
   <path d="m27.817 1.0531v52.654"/>
   <path d="m26.758 1.0531v52.654"/>
   <path d="m27.288 1.0531v52.654"/>
   <path d="m28.346 1.0531v52.654"/>
   <path d="m30.463 1.0531v52.654"/>
   <path d="m29.404 1.0531v52.654"/>
   <path d="m29.934 1.0531v52.654"/>
   <path d="m30.992 1.0531v52.654"/>
   <path d="m33.109 1.0531v52.654"/>
   <path d="m32.05 1.0531v52.654"/>
   <path d="m32.58 1.0531v52.654"/>
   <path d="m33.638 1.0531v52.654"/>
   <path d="m35.755 1.0531v52.654"/>
   <path d="m34.696 1.0531v52.654"/>
   <path d="m35.225 1.0531v52.654"/>
   <path d="m36.284 1.0531v52.654"/>
   <path d="m38.401 1.0531v52.654"/>
   <path d="m37.342 1.0531v52.654"/>
   <path d="m37.871 1.0531v52.654"/>
   <path d="m38.93 1.0531v52.654"/>
   <path d="m41.046 1.0531v52.654"/>
   <path d="m39.988 1.0531v52.654"/>
   <path d="m40.517 1.0531v52.654"/>
   <path d="m41.576 1.0531v52.654"/>
   <path d="m43.692 1.0531v52.654"/>
   <path d="m42.634 1.0531v52.654"/>
   <path d="m43.163 1.0531v52.654"/>
   <path d="m44.221 1.0531v52.654"/>
   <path d="m46.338 1.0531v52.654"/>
   <path d="m45.28 1.0531v52.654"/>
   <path d="m45.809 1.0531v52.654"/>
   <path d="m46.867 1.0531v52.654"/>
   <path d="m48.984 1.0531v52.654"/>
   <path d="m47.926 1.0531v52.654"/>
   <path d="m48.455 1.0531v52.654"/>
   <path d="m49.513 1.0531v52.654"/>
   <path d="m51.63 1.0531v52.654"/>
   <path d="m50.572 1.0531v52.654"/>
   <path d="m51.101 1.0531v52.654"/>
   <path d="m52.159 1.0531v52.654"/>
   <path d="m54.276 1.0531v52.654"/>
   <path d="m53.217 1.0531v52.654"/>
   <path d="m53.747 1.0531v52.654"/>
   <path d="m54.805 1.0531v52.654"/>
   <path d="m56.922 1.0531v52.654"/>
   <path d="m55.863 1.0531v52.654"/>
   <path d="m56.393 1.0531v52.654"/>
   <path d="m57.451 1.0531v52.654"/>
   <path d="m59.568 1.0531v52.654"/>
   <path d="m58.509 1.0531v52.654"/>
   <path d="m59.039 1.0531v52.654"/>
   <path d="m60.097 1.0531v52.654"/>
   <path d="m62.214 1.0531v52.654"/>
   <path d="m61.155 1.0531v52.654"/>
   <path d="m61.684 1.0531v52.654"/>
   <path d="m62.743 1.0531v52.654"/>
   <path d="m64.86 1.0531v52.654"/>
   <path d="m63.801 1.0531v52.654"/>
   <path d="m64.33 1.0531v52.654"/>
   <path d="m65.389 1.0531v52.654"/>
   <path d="m67.505 1.0531v52.654"/>
   <path d="m66.447 1.0531v52.654"/>
   <path d="m66.976 1.0531v52.654"/>
   <path d="m68.035 1.0531v52.654"/>
   <path d="m70.151 1.0531v52.654"/>
   <path d="m69.093 1.0531v52.654"/>
   <path d="m69.622 1.0531v52.654"/>
   <path d="m70.681 1.0531v52.654"/>
   <path d="m72.797 1.0531v52.654"/>
   <path d="m71.739 1.0531v52.654"/>
   <path d="m72.268 1.0531v52.654"/>
   <path d="m73.326 1.0531v52.654"/>
   <path d="m75.443 1.0531v52.654"/>
   <path d="m74.385 1.0531v52.654"/>
   <path d="m74.914 1.0531v52.654"/>
   <path d="m75.972 1.0531v52.654"/>
   <path d="m78.089 1.0531v52.654"/>
   <path d="m77.031 1.0531v52.654"/>
   <path d="m77.56 1.0531v52.654"/>
   <path d="m78.618 1.0531v52.654"/>
   <path d="m80.735 1.0531v52.654"/>
   <path d="m79.677 1.0531v52.654"/>
   <path d="m80.206 1.0531v52.654"/>
   <path d="m81.264 1.0531v52.654"/>
   <path d="m83.381 1.0531v52.654"/>
   <path d="m82.323 1.0531v52.654"/>
   <path d="m82.852 1.0531v52.654"/>
   <path d="m83.91 1.0531v52.654"/>
   <path d="m86.027 1.0531v52.654"/>
   <path d="m84.969 1.0531v52.654"/>
   <path d="m85.498 1.0531v52.654"/>
   <path d="m86.556 1.0531v52.654"/>
   <path d="m88.673 1.0531v52.654"/>
   <path d="m87.614 1.0531v52.654"/>
   <path d="m88.144 1.0531v52.654"/>
   <path d="m89.202 1.0531v52.654"/>
   <path d="m91.319 1.0531v52.654"/>
   <path d="m90.26 1.0531v52.654"/>
   <path d="m90.79 1.0531v52.654"/>
   <path d="m91.848 1.0531v52.654"/>
   <path d="m93.965 1.0531v52.654"/>
   <path d="m92.906 1.0531v52.654"/>
   <path d="m93.435 1.0531v52.654"/>
   <path d="m94.494 1.0531v52.654"/>
   <path d="m96.611 1.0531v52.654"/>
   <path d="m95.552 1.0531v52.654"/>
   <path d="m96.082 1.0531v52.654"/>
   <path d="m97.14 1.0531v52.654"/>
   <path d="m99.257 1.0531v52.654"/>
   <path d="m98.198 1.0531v52.654"/>
   <path d="m98.728 1.0531v52.654"/>
   <path d="m99.786 1.0531v52.654"/>
   <path d="m101.9 1.0531v52.654"/>
   <path d="m100.84 1.0531v52.654"/>
   <path d="m101.37 1.0531v52.654"/>
   <path d="m102.43 1.0531v52.654"/>
   <path d="m104.55 1.0531v52.654"/>
   <path d="m103.49 1.0531v52.654"/>
   <path d="m104.02 1.0531v52.654"/>
   <path d="m105.08 1.0531v52.654"/>
   <path d="m107.19 1.0531v52.654"/>
   <path d="m106.14 1.0531v52.654"/>
   <path d="m106.67 1.0531v52.654"/>
   <path d="m107.72 1.0531v52.654"/>
   <path d="m109.84 1.0531v52.654"/>
   <path d="m108.78 1.0531v52.654"/>
   <path d="m109.31 1.0531v52.654"/>
   <path d="m110.37 1.0531v52.654"/>
   <path d="m112.49 1.0531v52.654"/>
   <path d="m111.43 1.0531v52.654"/>
   <path d="m111.96 1.0531v52.654"/>
   <path d="m113.02 1.0531v52.654"/>
   <path d="m115.13 1.0531v52.654"/>
   <path d="m114.07 1.0531v52.654"/>
   <path d="m114.6 1.0531v52.654"/>
   <path d="m115.66 1.0531v52.654"/>
   <path d="m117.78 1.0531v52.654"/>
   <path d="m116.72 1.0531v52.654"/>
   <path d="m117.25 1.0531v52.654"/>
   <path d="m118.31 1.0531v52.654"/>
   <path d="m120.42 1.0531v52.654"/>
   <path d="m119.37 1.0531v52.654"/>
   <path d="m119.89 1.0531v52.654"/>
   <path d="m120.95 1.0531v52.654"/>
   <path d="m123.07 1.0531v52.654"/>
   <path d="m122.01 1.0531v52.654"/>
   <path d="m122.54 1.0531v52.654"/>
   <path d="m123.6 1.0531v52.654"/>
   <path d="m125.72 1.0531v52.654"/>
   <path d="m124.66 1.0531v52.654"/>
   <path d="m125.19 1.0531v52.654"/>
   <path d="m126.25 1.0531v52.654"/>
   <path d="m128.36 1.0531v52.654"/>
   <path d="m127.3 1.0531v52.654"/>
   <path d="m127.83 1.0531v52.654"/>
   <path d="m128.89 1.0531v52.654"/>
   <path d="m131.01 1.0531v52.654"/>
   <path d="m129.95 1.0531v52.654"/>
   <path d="m130.48 1.0531v52.654"/>
   <path d="m131.54 1.0531v52.654"/>
   <path d="m26.362 1.45h105.57"/>
   <path d="m26.362 1.9791h105.57"/>
   <path d="m26.362 2.5083h105.57"/>
   <path d="m26.362 3.0375h105.57"/>
   <path d="m26.362 4.0959h105.57"/>
   <path d="m26.362 4.6251h105.57"/>
   <path d="m26.362 5.1542h105.57"/>
   <path d="m26.362 5.6834h105.57"/>
   <path d="m26.362 6.7418h105.57"/>
   <path d="m26.362 7.271h105.57"/>
   <path d="m26.362 7.8002h105.57"/>
   <path d="m26.362 8.3293h105.57"/>
   <path d="m26.362 9.3877h105.57"/>
   <path d="m26.362 9.9169h105.57"/>
   <path d="m26.362 10.446h105.57"/>
   <path d="m26.362 10.975h105.57"/>
   <path d="m26.362 12.034h105.57"/>
   <path d="m26.362 12.563h105.57"/>
   <path d="m26.362 13.092h105.57"/>
   <path d="m26.362 13.621h105.57"/>
   <path d="m26.362 14.68h105.57"/>
   <path d="m26.362 15.209h105.57"/>
   <path d="m26.362 15.738h105.57"/>
   <path d="m26.362 16.267h105.57"/>
   <path d="m26.362 17.325h105.57"/>
   <path d="m26.362 17.855h105.57"/>
   <path d="m26.362 18.384h105.57"/>
   <path d="m26.362 18.913h105.57"/>
   <path d="m26.362 19.971h105.57"/>
   <path d="m26.362 20.501h105.57"/>
   <path d="m26.362 21.03h105.57"/>
   <path d="m26.362 21.559h105.57"/>
   <path d="m26.362 22.617h105.57"/>
   <path d="m26.362 23.147h105.57"/>
   <path d="m26.362 23.676h105.57"/>
   <path d="m26.362 24.205h105.57"/>
   <path d="m26.362 25.263h105.57"/>
   <path d="m26.362 25.792h105.57"/>
   <path d="m26.362 26.322h105.57"/>
   <path d="m26.362 26.851h105.57"/>
   <path d="m26.362 27.909h105.57"/>
   <path d="m26.362 28.438h105.57"/>
   <path d="m26.362 28.968h105.57"/>
   <path d="m26.362 29.497h105.57"/>
   <path d="m26.362 30.555h105.57"/>
   <path d="m26.362 31.084h105.57"/>
   <path d="m26.362 31.613h105.57"/>
   <path d="m26.362 32.143h105.57"/>
   <path d="m26.362 33.201h105.57"/>
   <path d="m26.362 33.73h105.57"/>
   <path d="m26.362 34.259h105.57"/>
   <path d="m26.362 34.789h105.57"/>
   <path d="m26.362 35.847h105.57"/>
   <path d="m26.362 36.376h105.57"/>
   <path d="m26.362 36.905h105.57"/>
   <path d="m26.362 37.434h105.57"/>
   <path d="m26.362 38.493h105.57"/>
   <path d="m26.362 39.022h105.57"/>
   <path d="m26.362 39.551h105.57"/>
   <path d="m26.362 40.08h105.57"/>
   <path d="m26.362 41.139h105.57"/>
   <path d="m26.362 41.668h105.57"/>
   <path d="m26.362 42.197h105.57"/>
   <path d="m26.362 42.726h105.57"/>
   <path d="m26.362 43.785h105.57"/>
   <path d="m26.362 44.314h105.57"/>
   <path d="m26.362 44.843h105.57"/>
   <path d="m26.362 45.372h105.57"/>
   <path d="m26.362 46.431h105.57"/>
   <path d="m26.362 46.96h105.57"/>
   <path d="m26.362 47.489h105.57"/>
   <path d="m26.362 48.018h105.57"/>
   <path d="m26.362 49.077h105.57"/>
   <path d="m26.362 49.606h105.57"/>
   <path d="m26.362 50.135h105.57"/>
   <path d="m26.362 50.664h105.57"/>
   <path d="m26.362 51.722h105.57"/>
   <path d="m26.362 52.252h105.57"/>
   <path d="m26.362 52.781h105.57"/>
   <path d="m26.362 53.31h105.57"/>
  </g>
  <path d="m26.233 53.839h105.83" stroke-width=".1323"/>
 </g>
 <path d="m26.229 27.253s13.891-26.459 26.459-26.459c18.191 0 33.074 52.918 52.918 52.918 15.545 0 26.459-26.459 26.459-26.459" fill="none" stroke="#535e70" stroke-linecap="round" stroke-width=".26459"/>
 <g fill="#d2d6dc">
  <circle cx="26.229" cy="27.253" r=".79378"/>
  <circle cx="31.521" cy="18.521" r=".79378"/>
  <circle cx="36.813" cy="11.377" r=".79378"/>
  <circle cx="42.105" cy="6.0856" r=".79378"/>
  <circle cx="47.396" cy="2.1167" r=".79378"/>
  <circle cx="52.688" cy=".79378" r=".79378"/>
  <circle cx="57.98" cy="2.1167" r=".79378"/>
  <circle cx="63.272" cy="6.0856" r=".79378"/>
  <circle cx="68.564" cy="12.171" r=".79378"/>
  <circle cx="73.856" cy="19.844" r=".79378"/>
  <circle cx="79.148" cy="28.047" r=".79378"/>
  <circle cx="84.439" cy="36.249" r=".79378"/>
  <circle cx="89.731" cy="43.129" r=".79378"/>
  <circle cx="95.023" cy="48.95" r=".79378"/>
  <circle cx="100.31" cy="52.389" r=".79378"/>
  <circle cx="105.61" cy="53.712" r=".79378"/>
  <circle cx="110.9" cy="52.389" r=".79378"/>
  <circle cx="116.19" cy="49.743" r=".79378"/>
  <circle cx="121.48" cy="44.451" r=".79378"/>
  <circle cx="126.77" cy="37.572" r=".79378"/>
  <circle cx="129.42" cy="32.545" r=".79378"/>
  <circle cx="132.07" cy="27.253" r=".79378"/>
 </g>
 <g stroke-width=".26459">
  <g fill="#e8eaec" stroke-linecap="round" aria-label="0.000 3.670 6.102 9.458 1.000 9.458 6.102 3.670 0.000">
   <path d="m0.83929 3.6688c0.40324 0 0.64772-0.37784 0.64772-1.0573s-0.24448-1.0446-0.64772-1.0446c-0.40641 0-0.6509 0.36514-0.6509 1.0446s0.24448 1.0573 0.6509 1.0573zm0-0.20956c-0.23813 0-0.39689-0.25401-0.39689-0.84775s0.15876-0.83505 0.39689-0.83505c0.23496 0 0.39371 0.24131 0.39371 0.83505s-0.15876 0.84775-0.39371 0.84775z"/>
   <path d="m1.8302 3.4719c0 0.1143 0.085728 0.19686 0.19051 0.19686 0.1016 0 0.18733-0.082553 0.18733-0.19686 0-0.12065-0.085728-0.20321-0.18733-0.20321-0.10478 0-0.19051 0.082553-0.19051 0.20321z"/>
   <path d="m3.202 3.6688c0.40324 0 0.64772-0.37784 0.64772-1.0573s-0.24448-1.0446-0.64772-1.0446c-0.40641 0-0.6509 0.36514-0.6509 1.0446s0.24448 1.0573 0.6509 1.0573zm0-0.20956c-0.23813 0-0.39689-0.25401-0.39689-0.84775s0.15876-0.83505 0.39689-0.83505c0.23496 0 0.39371 0.24131 0.39371 0.83505s-0.15876 0.84775-0.39371 0.84775z"/>
   <path d="m4.7772 3.6688c0.40324 0 0.64772-0.37784 0.64772-1.0573s-0.24448-1.0446-0.64772-1.0446c-0.40641 0-0.6509 0.36514-0.6509 1.0446s0.24448 1.0573 0.6509 1.0573zm0-0.20956c-0.23813 0-0.39689-0.25401-0.39689-0.84775s0.15876-0.83505 0.39689-0.83505c0.23496 0 0.39371 0.24131 0.39371 0.83505s-0.15876 0.84775-0.39371 0.84775z"/>
   <path d="m6.3523 3.6688c0.40324 0 0.64772-0.37784 0.64772-1.0573s-0.24448-1.0446-0.64772-1.0446c-0.40641 0-0.6509 0.36514-0.6509 1.0446s0.24448 1.0573 0.6509 1.0573zm0-0.20956c-0.23813 0-0.39689-0.25401-0.39689-0.84775s0.15876-0.83505 0.39689-0.83505c0.23496 0 0.39371 0.24131 0.39371 0.83505s-0.15876 0.84775-0.39371 0.84775z"/>
   <path d="m0.13124 7.3829c0.13653 0.14923 0.34291 0.28576 0.66677 0.28576 0.37149 0 0.66677-0.21908 0.66677-0.57787 0-0.27941-0.19368-0.45722-0.43817-0.51437v-0.012701c0.21908-0.082553 0.36831-0.23813 0.36831-0.48262 0-0.32704-0.25401-0.51437-0.60645-0.51437-0.23813 0-0.42546 0.10795-0.58105 0.25401l0.1397 0.16511c0.12065-0.12065 0.26353-0.20638 0.43181-0.20638 0.21591 0 0.34926 0.12383 0.34926 0.32069 0 0.21273-0.14288 0.37784-0.57469 0.37784v0.20003c0.48262 0 0.64772 0.16193 0.64772 0.40324 0 0.22543-0.17463 0.37149-0.41911 0.37149-0.23813 0-0.39689-0.1143-0.51754-0.24131z"/>
   <path d="m1.8302 7.4718c0 0.1143 0.085728 0.19686 0.19051 0.19686 0.1016 0 0.18733-0.082553 0.18733-0.19686 0-0.12065-0.085728-0.20321-0.18733-0.20321-0.10478 0-0.19051 0.082553-0.19051 0.20321z"/>
   <path d="m3.2623 7.4623c-0.25718 0-0.41276-0.21273-0.44452-0.60645 0.13653-0.19051 0.29529-0.26671 0.42229-0.26671 0.25083 0 0.37466 0.16511 0.37466 0.42864 0 0.26671-0.15241 0.44452-0.35244 0.44452zm0.56199-1.6796c-0.1143-0.12383-0.26988-0.21591-0.48897-0.21591-0.40324 0-0.77155 0.31434-0.77155 1.1272 0 0.6509 0.30164 0.97476 0.69852 0.97476 0.32704 0 0.6001-0.26353 0.6001-0.6509 0-0.41594-0.22861-0.6255-0.57787-0.6255-0.16511 0-0.34609 0.098428-0.47309 0.25401 0.0127-0.64137 0.25083-0.86045 0.53342-0.86045 0.127 0 0.25083 0.060327 0.33339 0.15876z"/>
   <path d="m4.5486 7.6306h0.26988c0.034926-0.7906 0.13335-1.251 0.6128-1.8638v-0.16193h-1.305v0.22543h1.0097c-0.40006 0.55564-0.55247 1.0383-0.5874 1.8003z"/>
   <path d="m6.3523 7.6687c0.40324 0 0.64772-0.37784 0.64772-1.0573 0-0.67947-0.24448-1.0446-0.64772-1.0446-0.40641 0-0.6509 0.36514-0.6509 1.0446 0 0.67947 0.24448 1.0573 0.6509 1.0573zm0-0.20956c-0.23813 0-0.39689-0.25401-0.39689-0.84775s0.15876-0.83505 0.39689-0.83505c0.23496 0 0.39371 0.24131 0.39371 0.83505s-0.15876 0.84775-0.39371 0.84775z"/>
   <path d="m0.89962 11.462c-0.25718 0-0.41276-0.21273-0.44452-0.60645 0.13653-0.19051 0.29529-0.26671 0.42229-0.26671 0.25083 0 0.37466 0.16511 0.37466 0.42864 0 0.26671-0.15241 0.44452-0.35244 0.44452zm0.56199-1.6796c-0.1143-0.12383-0.26988-0.21591-0.48897-0.21591-0.40324 0-0.77155 0.31434-0.77155 1.1272 0 0.6509 0.30164 0.97476 0.69852 0.97476 0.32704 0 0.6001-0.26353 0.6001-0.6509 0-0.41594-0.22861-0.6255-0.57787-0.6255-0.16511 0-0.34609 0.09843-0.47309 0.25401 0.0127-0.64137 0.25083-0.86046 0.53342-0.86046 0.127 0 0.25083 0.060327 0.33339 0.15876z"/>
   <path d="m1.8302 11.472c0 0.1143 0.085728 0.19686 0.19051 0.19686 0.1016 0 0.18733-0.08255 0.18733-0.19686 0-0.12065-0.085728-0.20321-0.18733-0.20321-0.10478 0-0.19051 0.08255-0.19051 0.20321z"/>
   <path d="m2.6623 11.63h1.143v-0.21591h-0.41911v-1.8098h-0.20003c-0.11113 0.066677-0.24448 0.11748-0.42864 0.14923v0.16828h0.36831v1.4923h-0.46357z"/>
   <path d="m4.7772 11.669c0.40324 0 0.64772-0.37784 0.64772-1.0573 0-0.67947-0.24448-1.0446-0.64772-1.0446-0.40641 0-0.6509 0.36514-0.6509 1.0446 0 0.67947 0.24448 1.0573 0.6509 1.0573zm0-0.20956c-0.23813 0-0.39689-0.25401-0.39689-0.84775 0-0.59375 0.15876-0.83505 0.39689-0.83505 0.23496 0 0.39371 0.24131 0.39371 0.83505 0 0.59374-0.15876 0.84775-0.39371 0.84775z"/>
   <path d="m5.6887 11.63h1.3081v-0.22543h-0.5874c-0.10478 0-0.22861 0.0095-0.33974 0.01905 0.47944-0.50167 0.82553-0.8795 0.82553-1.2605 0-0.35879-0.23178-0.59692-0.60645-0.59692-0.26353 0-0.44452 0.12383-0.6128 0.30799l0.14923 0.14923c0.11748-0.13653 0.26353-0.24448 0.43182-0.24448 0.25718 0 0.38419 0.16511 0.38419 0.39689 0 0.32704-0.34291 0.69217-0.95253 1.2986z"/>
   <path d="m0.79484 14.646c-0.25083 0-0.37466-0.1651-0.37466-0.42864 0-0.26671 0.15558-0.44452 0.35244-0.44452 0.25718 0 0.41276 0.20956 0.44769 0.60327-0.13653 0.19368-0.29529 0.26988-0.42546 0.26988zm-0.58422 0.80965c0.11113 0.12066 0.27306 0.21273 0.48897 0.21273 0.40324 0 0.77155-0.31434 0.77155-1.1272 0-0.6509-0.29846-0.97476-0.69852-0.97476-0.32386 0-0.59692 0.26353-0.59692 0.6509 0 0.41594 0.22543 0.6255 0.57469 0.6255 0.16828 0 0.34926-0.09843 0.47627-0.26036-0.00953 0.64772-0.25083 0.86998-0.53659 0.86998-0.127 0-0.25083-0.0635-0.33339-0.16193z"/>
   <path d="m1.8302 15.472c0 0.1143 0.085728 0.19686 0.19051 0.19686 0.1016 0 0.18733-0.08255 0.18733-0.19686 0-0.12065-0.085728-0.20321-0.18733-0.20321-0.10478 0-0.19051 0.08255-0.19051 0.20321z"/>
   <path d="m2.7416 14.862 0.47309-0.69217c0.057152-0.09843 0.1143-0.18733 0.16511-0.28576h0.0127c-0.00635 0.10795-0.015875 0.28258-0.015875 0.39054v0.5874zm1.1589 0h-0.27623v-1.2573h-0.29211l-0.8668 1.2954v0.17146h0.91126v0.55882h0.24766v-0.55882h0.27623z"/>
   <path d="m4.0659 15.392c0.1397 0.1397 0.33974 0.27624 0.6636 0.27624 0.35244 0 0.68265-0.24766 0.68265-0.68582s-0.28258-0.63502-0.62867-0.63502c-0.12383 0-0.21591 0.03175-0.31116 0.08255l0.053977-0.6001h0.78425v-0.22543h-1.0129l-0.066677 0.97476 0.1397 0.0889c0.12065-0.07938 0.20638-0.12383 0.34609-0.12383 0.26036 0 0.43182 0.16511 0.43182 0.44452 0 0.28258-0.19686 0.46357-0.44452 0.46357-0.23813 0-0.39054-0.11113-0.51119-0.23178z"/>
   <path d="m5.9269 15.087c0-0.18416 0.12065-0.33339 0.28258-0.44134 0.29211 0.11748 0.54929 0.21273 0.54929 0.47309 0 0.20956-0.16193 0.35561-0.39689 0.35561-0.24766 0-0.43499-0.16193-0.43499-0.38736zm0.57152-0.562c-0.24448-0.095253-0.46674-0.19686-0.46674-0.43816 0-0.19686 0.1397-0.32704 0.32704-0.32704 0.22226 0 0.35244 0.15876 0.35244 0.35879 0 0.14923-0.076203 0.28576-0.21273 0.40641zm-0.80648 0.5874c0 0.32069 0.28258 0.55564 0.6636 0.55564 0.39371 0 0.65407-0.23813 0.65407-0.53977 0-0.27306-0.17146-0.41594-0.35244-0.52072v-0.0127c0.12383-0.09525 0.27941-0.27624 0.27941-0.48897 0-0.31434-0.21908-0.53977-0.57152-0.53977-0.32704 0-0.57469 0.20956-0.57469 0.52072 0 0.21273 0.13335 0.36196 0.28258 0.46674v0.0127c-0.19051 0.1016-0.38101 0.28258-0.38101 0.54612z"/>
   <path d="m0.29952 19.63h1.143v-0.21591h-0.41911v-1.8098h-0.20003c-0.11113 0.06668-0.24448 0.11748-0.42864 0.14923v0.16828h0.36831v1.4923h-0.46357z"/>
   <path d="m1.8302 19.472c0 0.1143 0.085728 0.19686 0.19051 0.19686 0.1016 0 0.18733-0.08255 0.18733-0.19686 0-0.12066-0.085728-0.20321-0.18733-0.20321-0.10478 0-0.19051 0.08255-0.19051 0.20321z"/>
   <path d="m3.202 19.668c0.40324 0 0.64772-0.37784 0.64772-1.0573 0-0.67947-0.24448-1.0446-0.64772-1.0446-0.40641 0-0.6509 0.36514-0.6509 1.0446 0 0.67947 0.24448 1.0573 0.6509 1.0573zm0-0.20956c-0.23813 0-0.39689-0.25401-0.39689-0.84775 0-0.59375 0.15876-0.83505 0.39689-0.83505 0.23496 0 0.39371 0.24131 0.39371 0.83505 0 0.59374-0.15876 0.84775-0.39371 0.84775z"/>
   <path d="m4.7772 19.668c0.40324 0 0.64772-0.37784 0.64772-1.0573 0-0.67947-0.24448-1.0446-0.64772-1.0446-0.40641 0-0.6509 0.36514-0.6509 1.0446 0 0.67947 0.24448 1.0573 0.6509 1.0573zm0-0.20956c-0.23813 0-0.39689-0.25401-0.39689-0.84775 0-0.59375 0.15876-0.83505 0.39689-0.83505 0.23496 0 0.39371 0.24131 0.39371 0.83505 0 0.59374-0.15876 0.84775-0.39371 0.84775z"/>
   <path d="m6.3523 19.668c0.40324 0 0.64772-0.37784 0.64772-1.0573 0-0.67947-0.24448-1.0446-0.64772-1.0446-0.40641 0-0.6509 0.36514-0.6509 1.0446 0 0.67947 0.24448 1.0573 0.6509 1.0573zm0-0.20956c-0.23813 0-0.39689-0.25401-0.39689-0.84775 0-0.59375 0.15876-0.83505 0.39689-0.83505 0.23496 0 0.39371 0.24131 0.39371 0.83505 0 0.59374-0.15876 0.84775-0.39371 0.84775z"/>
   <path d="m0.79484 22.646c-0.25083 0-0.37466-0.16511-0.37466-0.42864 0-0.26671 0.15558-0.44452 0.35244-0.44452 0.25718 0 0.41276 0.20956 0.44769 0.60327-0.13653 0.19368-0.29529 0.26988-0.42546 0.26988zm-0.58422 0.80965c0.11113 0.12065 0.27306 0.21273 0.48897 0.21273 0.40324 0 0.77155-0.31434 0.77155-1.1272 0-0.6509-0.29846-0.97476-0.69852-0.97476-0.32386 0-0.59692 0.26353-0.59692 0.6509 0 0.41594 0.22543 0.6255 0.57469 0.6255 0.16828 0 0.34926-0.09843 0.47627-0.26036-0.00953 0.64772-0.25083 0.86998-0.53659 0.86998-0.127 0-0.25083-0.0635-0.33339-0.16193z"/>
   <path d="m1.8302 23.471c0 0.1143 0.085728 0.19686 0.19051 0.19686 0.1016 0 0.18733-0.08255 0.18733-0.19686 0-0.12065-0.085728-0.20321-0.18733-0.20321-0.10478 0-0.19051 0.08255-0.19051 0.20321z"/>
   <path d="m2.7416 22.862 0.47309-0.69217c0.057152-0.09843 0.1143-0.18733 0.16511-0.28576h0.0127c-0.00635 0.10795-0.015875 0.28258-0.015875 0.39054v0.5874zm1.1589 0h-0.27623v-1.2573h-0.29211l-0.8668 1.2954v0.17146h0.91126v0.55882h0.24766v-0.55882h0.27623z"/>
   <path d="m4.0659 23.392c0.1397 0.1397 0.33974 0.27624 0.6636 0.27624 0.35244 0 0.68265-0.24766 0.68265-0.68582s-0.28258-0.63502-0.62867-0.63502c-0.12383 0-0.21591 0.03175-0.31116 0.08255l0.053977-0.6001h0.78425v-0.22543h-1.0129l-0.066677 0.97476 0.1397 0.0889c0.12065-0.07938 0.20638-0.12383 0.34609-0.12383 0.26036 0 0.43182 0.16511 0.43182 0.44452 0 0.28258-0.19686 0.46357-0.44452 0.46357-0.23813 0-0.39054-0.11113-0.51119-0.23178z"/>
   <path d="m5.9269 23.087c0-0.18416 0.12065-0.33339 0.28258-0.44134 0.29211 0.11748 0.54929 0.21273 0.54929 0.47309 0 0.20956-0.16193 0.35561-0.39689 0.35561-0.24766 0-0.43499-0.16193-0.43499-0.38736zm0.57152-0.562c-0.24448-0.095253-0.46674-0.19686-0.46674-0.43816 0-0.19686 0.1397-0.32704 0.32704-0.32704 0.22226 0 0.35244 0.15876 0.35244 0.35879 0 0.14923-0.076203 0.28576-0.21273 0.40641zm-0.80648 0.5874c0 0.32069 0.28258 0.55564 0.6636 0.55564 0.39371 0 0.65407-0.23813 0.65407-0.53977 0-0.27306-0.17146-0.41594-0.35244-0.52072v-0.0127c0.12383-0.09525 0.27941-0.27624 0.27941-0.48897 0-0.31434-0.21908-0.53977-0.57152-0.53977-0.32704 0-0.57469 0.20956-0.57469 0.52072 0 0.21273 0.13335 0.36196 0.28258 0.46674v0.0127c-0.19051 0.1016-0.38101 0.28259-0.38101 0.54612z"/>
   <path d="m0.89962 27.462c-0.25718 0-0.41276-0.21273-0.44452-0.60645 0.13653-0.19051 0.29529-0.26671 0.42229-0.26671 0.25083 0 0.37466 0.16511 0.37466 0.42864 0 0.26671-0.15241 0.44452-0.35244 0.44452zm0.56199-1.6796c-0.1143-0.12383-0.26988-0.21591-0.48897-0.21591-0.40324 0-0.77155 0.31434-0.77155 1.1272 0 0.6509 0.30164 0.97476 0.69852 0.97476 0.32704 0 0.6001-0.26354 0.6001-0.6509 0-0.41594-0.22861-0.6255-0.57787-0.6255-0.16511 0-0.34609 0.09843-0.47309 0.25401 0.0127-0.64137 0.25083-0.86046 0.53342-0.86046 0.127 0 0.25083 0.06033 0.33339 0.15876z"/>
   <path d="m1.8302 27.471c0 0.1143 0.085728 0.19686 0.19051 0.19686 0.1016 0 0.18733-0.08255 0.18733-0.19686 0-0.12065-0.085728-0.20321-0.18733-0.20321-0.10478 0-0.19051 0.08255-0.19051 0.20321z"/>
   <path d="m2.6623 27.63h1.143v-0.21591h-0.41911v-1.8098h-0.20003c-0.11113 0.06668-0.24448 0.11748-0.42864 0.14923v0.16828h0.36831v1.4923h-0.46357z"/>
   <path d="m4.7772 27.668c0.40324 0 0.64772-0.37784 0.64772-1.0573 0-0.67947-0.24448-1.0446-0.64772-1.0446-0.40641 0-0.6509 0.36514-0.6509 1.0446 0 0.67947 0.24448 1.0573 0.6509 1.0573zm0-0.20956c-0.23813 0-0.39689-0.25401-0.39689-0.84775 0-0.59375 0.15876-0.83505 0.39689-0.83505 0.23496 0 0.39371 0.24131 0.39371 0.83505 0 0.59374-0.15876 0.84775-0.39371 0.84775z"/>
   <path d="m5.6887 27.63h1.3081v-0.22543h-0.5874c-0.10478 0-0.22861 0.0095-0.33974 0.01905 0.47944-0.50167 0.82553-0.8795 0.82553-1.2605 0-0.35879-0.23178-0.59692-0.60645-0.59692-0.26353 0-0.44452 0.12383-0.6128 0.30798l0.14923 0.14923c0.11748-0.13653 0.26353-0.24448 0.43182-0.24448 0.25718 0 0.38419 0.16511 0.38419 0.39689 0 0.32704-0.34291 0.69217-0.95253 1.2986z"/>
   <path d="m0.13124 31.382c0.13653 0.14923 0.34291 0.28576 0.66677 0.28576 0.37149 0 0.66677-0.21908 0.66677-0.57787 0-0.27941-0.19368-0.45722-0.43817-0.51437v-0.0127c0.21908-0.08255 0.36831-0.23813 0.36831-0.48262 0-0.32704-0.25401-0.51437-0.60645-0.51437-0.23813 0-0.42546 0.10795-0.58105 0.25401l0.1397 0.16511c0.12065-0.12065 0.26353-0.20638 0.43181-0.20638 0.21591 0 0.34926 0.12383 0.34926 0.32069 0 0.21273-0.14288 0.37784-0.57469 0.37784v0.20003c0.48262 0 0.64772 0.16193 0.64772 0.40324 0 0.22543-0.17463 0.37149-0.41911 0.37149-0.23813 0-0.39689-0.1143-0.51754-0.24131z"/>
   <path d="m1.8302 31.471c0 0.1143 0.085728 0.19686 0.19051 0.19686 0.1016 0 0.18733-0.08255 0.18733-0.19686 0-0.12065-0.085728-0.20321-0.18733-0.20321-0.10478 0-0.19051 0.08255-0.19051 0.20321z"/>
   <path d="m3.2623 31.462c-0.25718 0-0.41276-0.21273-0.44452-0.60645 0.13653-0.19051 0.29529-0.26671 0.42229-0.26671 0.25083 0 0.37466 0.1651 0.37466 0.42864 0 0.26671-0.15241 0.44452-0.35244 0.44452zm0.56199-1.6796c-0.1143-0.12383-0.26988-0.21591-0.48897-0.21591-0.40324 0-0.77155 0.31434-0.77155 1.1272 0 0.6509 0.30164 0.97476 0.69852 0.97476 0.32704 0 0.6001-0.26353 0.6001-0.6509 0-0.41594-0.22861-0.6255-0.57787-0.6255-0.16511 0-0.34609 0.09843-0.47309 0.25401 0.0127-0.64137 0.25083-0.86046 0.53342-0.86046 0.127 0 0.25083 0.06033 0.33339 0.15876z"/>
   <path d="m4.5486 31.63h0.26988c0.034926-0.7906 0.13335-1.251 0.6128-1.8638v-0.16193h-1.305v0.22543h1.0097c-0.40006 0.55564-0.55247 1.0383-0.5874 1.8003z"/>
   <path d="m6.3523 31.668c0.40324 0 0.64772-0.37784 0.64772-1.0573 0-0.67947-0.24448-1.0446-0.64772-1.0446-0.40641 0-0.6509 0.36514-0.6509 1.0446 0 0.67947 0.24448 1.0573 0.6509 1.0573zm0-0.20956c-0.23813 0-0.39689-0.25401-0.39689-0.84776 0-0.59374 0.15876-0.83505 0.39689-0.83505 0.23496 0 0.39371 0.24131 0.39371 0.83505 0 0.59375-0.15876 0.84776-0.39371 0.84776z"/>
   <path d="m0.83929 35.668c0.40324 0 0.64772-0.37784 0.64772-1.0573s-0.24448-1.0446-0.64772-1.0446c-0.40641 0-0.6509 0.36514-0.6509 1.0446s0.24448 1.0573 0.6509 1.0573zm0-0.20956c-0.23813 0-0.39689-0.25401-0.39689-0.84775s0.15876-0.83505 0.39689-0.83505c0.23496 0 0.39371 0.24131 0.39371 0.83505s-0.15876 0.84775-0.39371 0.84775z"/>
   <path d="m1.8302 35.471c0 0.1143 0.085728 0.19686 0.19051 0.19686 0.1016 0 0.18733-0.08255 0.18733-0.19686 0-0.12065-0.085728-0.20321-0.18733-0.20321-0.10478 0-0.19051 0.08255-0.19051 0.20321z"/>
   <path d="m3.202 35.668c0.40324 0 0.64772-0.37784 0.64772-1.0573s-0.24448-1.0446-0.64772-1.0446c-0.40641 0-0.6509 0.36514-0.6509 1.0446s0.24448 1.0573 0.6509 1.0573zm0-0.20956c-0.23813 0-0.39689-0.25401-0.39689-0.84775s0.15876-0.83505 0.39689-0.83505c0.23496 0 0.39371 0.24131 0.39371 0.83505s-0.15876 0.84775-0.39371 0.84775z"/>
   <path d="m4.7772 35.668c0.40324 0 0.64772-0.37784 0.64772-1.0573s-0.24448-1.0446-0.64772-1.0446c-0.40641 0-0.6509 0.36514-0.6509 1.0446s0.24448 1.0573 0.6509 1.0573zm0-0.20956c-0.23813 0-0.39689-0.25401-0.39689-0.84775s0.15876-0.83505 0.39689-0.83505c0.23496 0 0.39371 0.24131 0.39371 0.83505s-0.15876 0.84775-0.39371 0.84775z"/>
   <path d="m6.3523 35.668c0.40324 0 0.64772-0.37784 0.64772-1.0573s-0.24448-1.0446-0.64772-1.0446c-0.40641 0-0.6509 0.36514-0.6509 1.0446s0.24448 1.0573 0.6509 1.0573zm0-0.20956c-0.23813 0-0.39689-0.25401-0.39689-0.84775s0.15876-0.83505 0.39689-0.83505c0.23496 0 0.39371 0.24131 0.39371 0.83505s-0.15876 0.84775-0.39371 0.84775z"/>
  </g>
  <g fill="#e8eaec" stroke-linecap="round" aria-label="-3.670 -6.102 -9.458 -1.000 -9.458 -6.102 -3.670 0.000">
   <path d="m12.915 2.9353h0.73028v-0.20003h-0.73028z"/>
   <path d="m13.854 3.383c0.13653 0.14923 0.34291 0.28576 0.66677 0.28576 0.37149 0 0.66677-0.21908 0.66677-0.57787 0-0.27941-0.19368-0.45722-0.43816-0.51437v-0.0127c0.21908-0.082553 0.36831-0.23813 0.36831-0.48262 0-0.32704-0.25401-0.51437-0.60645-0.51437-0.23813 0-0.42546 0.10795-0.58104 0.25401l0.1397 0.16511c0.12065-0.12065 0.26353-0.20638 0.43182-0.20638 0.21591 0 0.34926 0.12383 0.34926 0.32069 0 0.21273-0.14288 0.37784-0.5747 0.37784v0.20003c0.48262 0 0.64772 0.16193 0.64772 0.40324 0 0.22543-0.17463 0.37149-0.41911 0.37149-0.23813 0-0.39689-0.1143-0.51754-0.24131z"/>
   <path d="m15.553 3.4719c0 0.1143 0.08573 0.19686 0.19051 0.19686 0.1016 0 0.18733-0.082553 0.18733-0.19686 0-0.12065-0.08573-0.20321-0.18733-0.20321-0.10478 0-0.19051 0.082553-0.19051 0.20321z"/>
   <path d="m16.985 3.4624c-0.25718 0-0.41276-0.21273-0.44452-0.60645 0.13653-0.19051 0.29528-0.26671 0.42229-0.26671 0.25083 0 0.37466 0.16511 0.37466 0.42864 0 0.26671-0.1524 0.44452-0.35244 0.44452zm0.562-1.6796c-0.1143-0.12383-0.26988-0.21591-0.48897-0.21591-0.40324 0-0.77155 0.31434-0.77155 1.1272 0 0.6509 0.30164 0.97476 0.69852 0.97476 0.32704 0 0.6001-0.26353 0.6001-0.6509 0-0.41594-0.22861-0.6255-0.57787-0.6255-0.16511 0-0.34609 0.098428-0.47309 0.25401 0.0127-0.64137 0.25083-0.86045 0.53342-0.86045 0.127 0 0.25083 0.060327 0.33339 0.15876z"/>
   <path d="m18.271 3.6307h0.26988c0.03493-0.7906 0.13335-1.251 0.6128-1.8638v-0.16193h-1.305v0.22543h1.0097c-0.40006 0.55564-0.55247 1.0383-0.5874 1.8003z"/>
   <path d="m20.075 3.6688c0.40324 0 0.64772-0.37784 0.64772-1.0573s-0.24448-1.0446-0.64772-1.0446c-0.40641 0-0.6509 0.36514-0.6509 1.0446s0.24448 1.0573 0.6509 1.0573zm0-0.20956c-0.23813 0-0.39689-0.25401-0.39689-0.84775s0.15876-0.83505 0.39689-0.83505c0.23496 0 0.39371 0.24131 0.39371 0.83505s-0.15876 0.84775-0.39371 0.84775z"/>
   <path d="m12.915 6.9352h0.73028v-0.20003h-0.73028z"/>
   <path d="m14.622 7.4623c-0.25718 0-0.41276-0.21273-0.44452-0.60645 0.13653-0.19051 0.29529-0.26671 0.42229-0.26671 0.25083 0 0.37466 0.16511 0.37466 0.42864 0 0.26671-0.1524 0.44452-0.35244 0.44452zm0.56199-1.6796c-0.1143-0.12383-0.26988-0.21591-0.48897-0.21591-0.40324 0-0.77155 0.31434-0.77155 1.1272 0 0.6509 0.30164 0.97476 0.69852 0.97476 0.32704 0 0.6001-0.26353 0.6001-0.6509 0-0.41594-0.22861-0.6255-0.57787-0.6255-0.16511 0-0.34609 0.098428-0.47309 0.25401 0.0127-0.64137 0.25083-0.86045 0.53342-0.86045 0.127 0 0.25083 0.060327 0.33339 0.15876z"/>
   <path d="m15.553 7.4718c0 0.1143 0.08573 0.19686 0.19051 0.19686 0.1016 0 0.18733-0.082553 0.18733-0.19686 0-0.12065-0.08573-0.20321-0.18733-0.20321-0.10478 0-0.19051 0.082553-0.19051 0.20321z"/>
   <path d="m16.385 7.6306h1.143v-0.21591h-0.41911v-1.8098h-0.20003c-0.11113 0.066677-0.24448 0.11748-0.42864 0.14923v0.16828h0.36831v1.4923h-0.46357z"/>
   <path d="m18.5 7.6687c0.40324 0 0.64772-0.37784 0.64772-1.0573 0-0.67947-0.24448-1.0446-0.64772-1.0446-0.40641 0-0.6509 0.36514-0.6509 1.0446 0 0.67947 0.24448 1.0573 0.6509 1.0573zm0-0.20956c-0.23813 0-0.39689-0.25401-0.39689-0.84775s0.15876-0.83505 0.39689-0.83505c0.23496 0 0.39371 0.24131 0.39371 0.83505s-0.15876 0.84775-0.39371 0.84775z"/>
   <path d="m19.411 7.6306h1.3081v-0.22543h-0.5874c-0.10478 0-0.22861 0.00953-0.33974 0.019051 0.47944-0.50167 0.82553-0.87951 0.82553-1.2605 0-0.35879-0.23178-0.59692-0.60645-0.59692-0.26354 0-0.44452 0.12383-0.6128 0.30799l0.14923 0.14923c0.11748-0.13653 0.26354-0.24448 0.43182-0.24448 0.25718 0 0.38419 0.16511 0.38419 0.39689 0 0.32704-0.34291 0.69217-0.95253 1.2986z"/>
   <path d="m12.915 10.935h0.73028v-0.20003h-0.73028z"/>
   <path d="m14.517 10.646c-0.25083 0-0.37466-0.16511-0.37466-0.42864 0-0.26671 0.15558-0.44452 0.35244-0.44452 0.25718 0 0.41276 0.20956 0.44769 0.60327-0.13653 0.19368-0.29528 0.26988-0.42546 0.26988zm-0.58422 0.80965c0.11113 0.12065 0.27306 0.21273 0.48897 0.21273 0.40324 0 0.77155-0.31434 0.77155-1.1272 0-0.6509-0.29846-0.97476-0.69852-0.97476-0.32386 0-0.59692 0.26353-0.59692 0.6509 0 0.41594 0.22543 0.6255 0.5747 0.6255 0.16828 0 0.34926-0.09843 0.47627-0.26036-0.0095 0.64772-0.25083 0.86998-0.53659 0.86998-0.127 0-0.25083-0.0635-0.33339-0.16193z"/>
   <path d="m15.553 11.472c0 0.1143 0.08573 0.19686 0.19051 0.19686 0.1016 0 0.18733-0.08255 0.18733-0.19686 0-0.12065-0.08573-0.20321-0.18733-0.20321-0.10478 0-0.19051 0.08255-0.19051 0.20321z"/>
   <path d="m16.464 10.862 0.47309-0.69217c0.05715-0.09843 0.1143-0.18733 0.1651-0.28576h0.0127c-0.0064 0.10795-0.01588 0.28258-0.01588 0.39054v0.5874zm1.1589 0h-0.27623v-1.2573h-0.29211l-0.8668 1.2954v0.17146h0.91126v0.55882h0.24766v-0.55882h0.27623z"/>
   <path d="m17.789 11.392c0.1397 0.1397 0.33974 0.27623 0.6636 0.27623 0.35244 0 0.68265-0.24766 0.68265-0.68582 0-0.43817-0.28258-0.63502-0.62867-0.63502-0.12383 0-0.21591 0.03175-0.31116 0.08255l0.05398-0.6001h0.78425v-0.22543h-1.0129l-0.06668 0.97476 0.1397 0.0889c0.12065-0.07938 0.20638-0.12383 0.34609-0.12383 0.26036 0 0.43182 0.16511 0.43182 0.44452 0 0.28258-0.19686 0.46357-0.44452 0.46357-0.23813 0-0.39054-0.11113-0.51119-0.23178z"/>
   <path d="m19.649 11.088c0-0.18416 0.12065-0.33339 0.28258-0.44134 0.29211 0.11748 0.54929 0.21273 0.54929 0.47309 0 0.20956-0.16193 0.35561-0.39689 0.35561-0.24766 0-0.43499-0.16193-0.43499-0.38736zm0.57152-0.56199c-0.24448-0.09525-0.46674-0.19686-0.46674-0.43817 0-0.19686 0.1397-0.32704 0.32704-0.32704 0.22226 0 0.35244 0.15876 0.35244 0.35879 0 0.14923-0.0762 0.28576-0.21273 0.40641zm-0.80648 0.5874c0 0.32069 0.28258 0.55564 0.6636 0.55564 0.39371 0 0.65407-0.23813 0.65407-0.53977 0-0.27306-0.17146-0.41594-0.35244-0.52072v-0.0127c0.12383-0.09525 0.27941-0.27624 0.27941-0.48897 0-0.31434-0.21908-0.53977-0.57152-0.53977-0.32704 0-0.5747 0.20956-0.5747 0.52072 0 0.21273 0.13336 0.36196 0.28258 0.46674v0.0127c-0.19051 0.1016-0.38101 0.28258-0.38101 0.54612z"/>
   <path d="m12.915 14.935h0.73028v-0.20003h-0.73028z"/>
   <path d="m14.022 15.63h1.143v-0.21591h-0.41912v-1.8098h-0.20003c-0.11113 0.06668-0.24448 0.11748-0.42864 0.14923v0.16828h0.36831v1.4923h-0.46357z"/>
   <path d="m15.553 15.472c0 0.1143 0.08573 0.19686 0.19051 0.19686 0.1016 0 0.18733-0.08255 0.18733-0.19686 0-0.12065-0.08573-0.20321-0.18733-0.20321-0.10478 0-0.19051 0.08255-0.19051 0.20321z"/>
   <path d="m16.925 15.668c0.40324 0 0.64772-0.37784 0.64772-1.0573 0-0.67947-0.24448-1.0446-0.64772-1.0446-0.40641 0-0.6509 0.36514-0.6509 1.0446 0 0.67947 0.24448 1.0573 0.6509 1.0573zm0-0.20956c-0.23813 0-0.39689-0.25401-0.39689-0.84776 0-0.59374 0.15876-0.83505 0.39689-0.83505 0.23496 0 0.39371 0.24131 0.39371 0.83505 0 0.59375-0.15876 0.84776-0.39371 0.84776z"/>
   <path d="m18.5 15.668c0.40324 0 0.64772-0.37784 0.64772-1.0573 0-0.67947-0.24448-1.0446-0.64772-1.0446-0.40641 0-0.6509 0.36514-0.6509 1.0446 0 0.67947 0.24448 1.0573 0.6509 1.0573zm0-0.20956c-0.23813 0-0.39689-0.25401-0.39689-0.84776 0-0.59374 0.15876-0.83505 0.39689-0.83505 0.23496 0 0.39371 0.24131 0.39371 0.83505 0 0.59375-0.15876 0.84776-0.39371 0.84776z"/>
   <path d="m20.075 15.668c0.40324 0 0.64772-0.37784 0.64772-1.0573 0-0.67947-0.24448-1.0446-0.64772-1.0446-0.40641 0-0.6509 0.36514-0.6509 1.0446 0 0.67947 0.24448 1.0573 0.6509 1.0573zm0-0.20956c-0.23813 0-0.39689-0.25401-0.39689-0.84776 0-0.59374 0.15876-0.83505 0.39689-0.83505 0.23496 0 0.39371 0.24131 0.39371 0.83505 0 0.59375-0.15876 0.84776-0.39371 0.84776z"/>
   <path d="m12.915 18.935h0.73028v-0.20003h-0.73028z"/>
   <path d="m14.517 18.646c-0.25083 0-0.37466-0.16511-0.37466-0.42864 0-0.26671 0.15558-0.44452 0.35244-0.44452 0.25718 0 0.41276 0.20956 0.44769 0.60327-0.13653 0.19368-0.29528 0.26988-0.42546 0.26988zm-0.58422 0.80965c0.11113 0.12065 0.27306 0.21273 0.48897 0.21273 0.40324 0 0.77155-0.31434 0.77155-1.1272 0-0.6509-0.29846-0.97476-0.69852-0.97476-0.32386 0-0.59692 0.26353-0.59692 0.6509 0 0.41594 0.22543 0.6255 0.5747 0.6255 0.16828 0 0.34926-0.09843 0.47627-0.26036-0.0095 0.64772-0.25083 0.86998-0.53659 0.86998-0.127 0-0.25083-0.0635-0.33339-0.16193z"/>
   <path d="m15.553 19.472c0 0.1143 0.08573 0.19686 0.19051 0.19686 0.1016 0 0.18733-0.08255 0.18733-0.19686 0-0.12066-0.08573-0.20321-0.18733-0.20321-0.10478 0-0.19051 0.08255-0.19051 0.20321z"/>
   <path d="m16.464 18.862 0.47309-0.69217c0.05715-0.09843 0.1143-0.18733 0.1651-0.28576h0.0127c-0.0064 0.10795-0.01588 0.28258-0.01588 0.39054v0.5874zm1.1589 0h-0.27623v-1.2573h-0.29211l-0.8668 1.2954v0.17146h0.91126v0.55882h0.24766v-0.55882h0.27623z"/>
   <path d="m17.789 19.392c0.1397 0.1397 0.33974 0.27623 0.6636 0.27623 0.35244 0 0.68265-0.24766 0.68265-0.68582 0-0.43817-0.28258-0.63502-0.62867-0.63502-0.12383 0-0.21591 0.03175-0.31116 0.08255l0.05398-0.6001h0.78425v-0.22543h-1.0129l-0.06668 0.97476 0.1397 0.0889c0.12065-0.07938 0.20638-0.12383 0.34609-0.12383 0.26036 0 0.43182 0.16511 0.43182 0.44452 0 0.28258-0.19686 0.46357-0.44452 0.46357-0.23813 0-0.39054-0.11113-0.51119-0.23178z"/>
   <path d="m19.649 19.087c0-0.18416 0.12065-0.33339 0.28258-0.44134 0.29211 0.11748 0.54929 0.21273 0.54929 0.47309 0 0.20956-0.16193 0.35561-0.39689 0.35561-0.24766 0-0.43499-0.16193-0.43499-0.38736zm0.57152-0.56199c-0.24448-0.09525-0.46674-0.19686-0.46674-0.43816 0-0.19686 0.1397-0.32704 0.32704-0.32704 0.22226 0 0.35244 0.15876 0.35244 0.35879 0 0.14923-0.0762 0.28576-0.21273 0.40641zm-0.80648 0.5874c0 0.32069 0.28258 0.55564 0.6636 0.55564 0.39371 0 0.65407-0.23813 0.65407-0.53977 0-0.27306-0.17146-0.41594-0.35244-0.52072v-0.0127c0.12383-0.09525 0.27941-0.27623 0.27941-0.48897 0-0.31434-0.21908-0.53977-0.57152-0.53977-0.32704 0-0.5747 0.20956-0.5747 0.52072 0 0.21273 0.13336 0.36196 0.28258 0.46674v0.0127c-0.19051 0.1016-0.38101 0.28258-0.38101 0.54612z"/>
   <path d="m12.915 22.935h0.73028v-0.20003h-0.73028z"/>
   <path d="m14.622 23.462c-0.25718 0-0.41276-0.21273-0.44452-0.60645 0.13653-0.19051 0.29529-0.26671 0.42229-0.26671 0.25083 0 0.37466 0.1651 0.37466 0.42864 0 0.26671-0.1524 0.44452-0.35244 0.44452zm0.56199-1.6796c-0.1143-0.12383-0.26988-0.21591-0.48897-0.21591-0.40324 0-0.77155 0.31434-0.77155 1.1272 0 0.6509 0.30164 0.97476 0.69852 0.97476 0.32704 0 0.6001-0.26353 0.6001-0.6509 0-0.41594-0.22861-0.6255-0.57787-0.6255-0.16511 0-0.34609 0.09843-0.47309 0.25401 0.0127-0.64137 0.25083-0.86046 0.53342-0.86046 0.127 0 0.25083 0.06033 0.33339 0.15876z"/>
   <path d="m15.553 23.471c0 0.1143 0.08573 0.19686 0.19051 0.19686 0.1016 0 0.18733-0.08255 0.18733-0.19686 0-0.12065-0.08573-0.20321-0.18733-0.20321-0.10478 0-0.19051 0.08255-0.19051 0.20321z"/>
   <path d="m16.385 23.63h1.143v-0.21591h-0.41911v-1.8098h-0.20003c-0.11113 0.06668-0.24448 0.11748-0.42864 0.14923v0.16828h0.36831v1.4923h-0.46357z"/>
   <path d="m18.5 23.668c0.40324 0 0.64772-0.37784 0.64772-1.0573 0-0.67947-0.24448-1.0446-0.64772-1.0446-0.40641 0-0.6509 0.36514-0.6509 1.0446 0 0.67947 0.24448 1.0573 0.6509 1.0573zm0-0.20956c-0.23813 0-0.39689-0.25401-0.39689-0.84776 0-0.59374 0.15876-0.83505 0.39689-0.83505 0.23496 0 0.39371 0.24131 0.39371 0.83505 0 0.59375-0.15876 0.84776-0.39371 0.84776z"/>
   <path d="m19.411 23.63h1.3081v-0.22543h-0.5874c-0.10478 0-0.22861 0.0095-0.33974 0.01905 0.47944-0.50167 0.82553-0.8795 0.82553-1.2605 0-0.35879-0.23178-0.59692-0.60645-0.59692-0.26354 0-0.44452 0.12383-0.6128 0.30799l0.14923 0.14923c0.11748-0.13653 0.26354-0.24448 0.43182-0.24448 0.25718 0 0.38419 0.16511 0.38419 0.39689 0 0.32704-0.34291 0.69217-0.95253 1.2986z"/>
   <path d="m12.915 26.935h0.73028v-0.20003h-0.73028z"/>
   <path d="m13.854 27.382c0.13653 0.14923 0.34291 0.28576 0.66677 0.28576 0.37149 0 0.66677-0.21908 0.66677-0.57787 0-0.27941-0.19368-0.45722-0.43816-0.51437v-0.0127c0.21908-0.08255 0.36831-0.23813 0.36831-0.48262 0-0.32704-0.25401-0.51437-0.60645-0.51437-0.23813 0-0.42546 0.10795-0.58104 0.25401l0.1397 0.16511c0.12065-0.12065 0.26353-0.20638 0.43182-0.20638 0.21591 0 0.34926 0.12383 0.34926 0.32069 0 0.21273-0.14288 0.37784-0.5747 0.37784v0.20003c0.48262 0 0.64772 0.16193 0.64772 0.40324 0 0.22543-0.17463 0.37149-0.41911 0.37149-0.23813 0-0.39689-0.1143-0.51754-0.24131z"/>
   <path d="m15.553 27.471c0 0.1143 0.08573 0.19686 0.19051 0.19686 0.1016 0 0.18733-0.08255 0.18733-0.19686 0-0.12065-0.08573-0.20321-0.18733-0.20321-0.10478 0-0.19051 0.08255-0.19051 0.20321z"/>
   <path d="m16.985 27.462c-0.25718 0-0.41276-0.21273-0.44452-0.60645 0.13653-0.19051 0.29528-0.26671 0.42229-0.26671 0.25083 0 0.37466 0.16511 0.37466 0.42864 0 0.26671-0.1524 0.44452-0.35244 0.44452zm0.562-1.6796c-0.1143-0.12383-0.26988-0.21591-0.48897-0.21591-0.40324 0-0.77155 0.31434-0.77155 1.1272 0 0.6509 0.30164 0.97476 0.69852 0.97476 0.32704 0 0.6001-0.26354 0.6001-0.6509 0-0.41594-0.22861-0.6255-0.57787-0.6255-0.16511 0-0.34609 0.09843-0.47309 0.25401 0.0127-0.64137 0.25083-0.86046 0.53342-0.86046 0.127 0 0.25083 0.06033 0.33339 0.15876z"/>
   <path d="m18.271 27.63h0.26988c0.03493-0.7906 0.13335-1.251 0.6128-1.8638v-0.16193h-1.305v0.22543h1.0097c-0.40006 0.55564-0.55247 1.0383-0.5874 1.8003z"/>
   <path d="m20.075 27.668c0.40324 0 0.64772-0.37784 0.64772-1.0573 0-0.67947-0.24448-1.0446-0.64772-1.0446-0.40641 0-0.6509 0.36514-0.6509 1.0446 0 0.67947 0.24448 1.0573 0.6509 1.0573zm0-0.20956c-0.23813 0-0.39689-0.25401-0.39689-0.84775 0-0.59375 0.15876-0.83505 0.39689-0.83505 0.23496 0 0.39371 0.24131 0.39371 0.83505 0 0.59374-0.15876 0.84775-0.39371 0.84775z"/>
   <path d="m14.069 31.668c0.40324 0 0.64772-0.37784 0.64772-1.0573 0-0.67947-0.24448-1.0446-0.64772-1.0446-0.40641 0-0.6509 0.36514-0.6509 1.0446 0 0.67947 0.24448 1.0573 0.6509 1.0573zm0-0.20956c-0.23813 0-0.39689-0.25401-0.39689-0.84776 0-0.59374 0.15876-0.83505 0.39689-0.83505 0.23496 0 0.39371 0.24131 0.39371 0.83505 0 0.59375-0.15876 0.84776-0.39371 0.84776z"/>
   <path d="m15.06 31.471c0 0.1143 0.08573 0.19686 0.19051 0.19686 0.1016 0 0.18733-0.08255 0.18733-0.19686 0-0.12065-0.08573-0.20321-0.18733-0.20321-0.10478 0-0.19051 0.08255-0.19051 0.20321z"/>
   <path d="m16.432 31.668c0.40324 0 0.64772-0.37784 0.64772-1.0573 0-0.67947-0.24448-1.0446-0.64772-1.0446-0.40641 0-0.6509 0.36514-0.6509 1.0446 0 0.67947 0.24448 1.0573 0.6509 1.0573zm0-0.20956c-0.23813 0-0.39689-0.25401-0.39689-0.84776 0-0.59374 0.15876-0.83505 0.39689-0.83505 0.23496 0 0.39371 0.24131 0.39371 0.83505 0 0.59375-0.15876 0.84776-0.39371 0.84776z"/>
   <path d="m18.007 31.668c0.40324 0 0.64772-0.37784 0.64772-1.0573 0-0.67947-0.24448-1.0446-0.64772-1.0446-0.40641 0-0.6509 0.36514-0.6509 1.0446 0 0.67947 0.24448 1.0573 0.6509 1.0573zm0-0.20956c-0.23813 0-0.39689-0.25401-0.39689-0.84776 0-0.59374 0.15876-0.83505 0.39689-0.83505 0.23496 0 0.39371 0.24131 0.39371 0.83505 0 0.59375-0.15876 0.84776-0.39371 0.84776z"/>
   <path d="m19.582 31.668c0.40324 0 0.64772-0.37784 0.64772-1.0573 0-0.67947-0.24448-1.0446-0.64772-1.0446-0.40641 0-0.6509 0.36514-0.6509 1.0446 0 0.67947 0.24448 1.0573 0.6509 1.0573zm0-0.20956c-0.23813 0-0.39689-0.25401-0.39689-0.84776 0-0.59374 0.15876-0.83505 0.39689-0.83505 0.23496 0 0.39371 0.24131 0.39371 0.83505 0 0.59375-0.15876 0.84776-0.39371 0.84776z"/>
  </g>
  <path d="m137.36 53.448v-52.654" fill="#2f3744" stroke="#d2d6dc" stroke-linecap="square" stroke-miterlimit="40"/>
 </g>
 <g stroke-width=".26459">
  <path d="m136.03 2.1167 1.323-1.5876 1.323 1.5876" fill="none" stroke="#d2d6dc" stroke-linecap="square" stroke-miterlimit="40"/>
  <path d="m136.03 52.389 1.323 1.323 1.323-1.323" fill="none" stroke="#d2d6dc" stroke-linecap="square" stroke-miterlimit="40"/>
  <g transform="rotate(-90)" fill="#e8eaec" stroke-linecap="round" aria-label="Amplitude">
   <path d="m-33.597 141.2 0.1016-0.31751c0.07303-0.23178 0.1397-0.46039 0.20638-0.7017h0.0127c0.06668 0.24131 0.13336 0.46992 0.20638 0.7017l0.09843 0.31751zm0.89221 0.84776h0.27941l-0.70487-2.0829h-0.29846l-0.70488 2.0829h0.26988l0.20003-0.63502h0.75885z"/>
   <path d="m-32.168 142.05h0.26036v-1.1176c0.14288-0.15876 0.27306-0.23813 0.38736-0.23813 0.19686 0 0.28894 0.12383 0.28894 0.41276v0.94301h0.26036v-1.1176c0.14288-0.15876 0.26671-0.23813 0.38736-0.23813 0.19368 0 0.28576 0.12383 0.28576 0.41276v0.94301h0.26036v-0.97794c0-0.39371-0.1524-0.60327-0.46992-0.60327-0.18733 0-0.34609 0.12066-0.50802 0.29529-0.0635-0.18416-0.19051-0.29529-0.42546-0.29529-0.18416 0-0.34609 0.11431-0.47944 0.26036h-0.0095l-0.02223-0.22225h-0.21591z"/>
   <path d="m-29.284 141.91c0.14288 0.11113 0.28576 0.17781 0.42864 0.17781 0.35244 0 0.66677-0.30799 0.66677-0.83188 0-0.47944-0.21273-0.78743-0.60962-0.78743-0.18098 0-0.35244 0.0984-0.49214 0.21591h-0.0095l-0.02223-0.1778h-0.21591v2.194h0.26036v-0.52072zm0.0064-0.2032v-0.80966c0.15241-0.13653 0.28258-0.20955 0.41276-0.20955 0.29211 0 0.40641 0.2286 0.40641 0.56834 0 0.38101-0.18733 0.6128-0.44134 0.6128-0.1016 0-0.23813-0.0444-0.37784-0.16193z"/>
   <path d="m-27.777 141.74c0 0.22543 0.07938 0.34926 0.27623 0.34926 0.06985 0 0.1143-0.01 0.14923-0.0254l-0.03493-0.19686c-0.02858 6e-3 -0.04128 6e-3 -0.05715 6e-3 -0.0381 0-0.07303-0.0318-0.07303-0.1143v-1.9686h-0.26036z"/>
   <path d="m-26.831 140.19c0.1016 0 0.18098-0.0698 0.18098-0.16828 0-0.1016-0.07938-0.16828-0.18098-0.16828-0.1016 0-0.18098 0.0667-0.18098 0.16828 0 0.0984 0.07938 0.16828 0.18098 0.16828zm-0.13336 1.8606h0.26036v-1.5431h-0.26036z"/>
   <path d="m-26.139 141.57c0 0.30481 0.11113 0.51437 0.44134 0.51437 0.09525 0 0.20003-0.0286 0.28576-0.0572l-0.0508-0.19686c-0.0508 0.0191-0.12065 0.0413-0.17463 0.0413-0.17781 0-0.23813-0.10796-0.23813-0.29846v-0.85728h0.41594v-0.21273h-0.41594v-0.43182h-0.21908l-0.03175 0.43182-0.24131 0.0159v0.19686h0.22861z"/>
   <path d="m-25.151 141.48c0 0.39371 0.14606 0.60327 0.47309 0.60327 0.21273 0 0.36514-0.11113 0.50802-0.27941h0.0095l0.02223 0.24131h0.21591v-1.5431h-0.26036v1.0954c-0.14606 0.18098-0.25718 0.26036-0.41594 0.26036-0.20321 0-0.28894-0.12383-0.28894-0.41277v-0.943h-0.26353z"/>
   <path d="m-23.51 141.28c0 0.51437 0.25083 0.80648 0.6382 0.80648 0.18098 0 0.34609-0.1016 0.46674-0.21908h0.0095l0.02223 0.18098h0.21591v-2.2607h-0.26353v0.59375l0.0127 0.26353c-0.13653-0.11113-0.25401-0.17781-0.43182-0.17781-0.35244 0-0.66995 0.31116-0.66995 0.81283zm0.26988-3e-3c0-0.35244 0.19686-0.59057 0.44452-0.59057 0.127 0 0.24448 0.0445 0.37466 0.16193v0.80647c-0.127 0.14288-0.25083 0.21274-0.39371 0.21274-0.26988 0-0.42546-0.22226-0.42546-0.59057z"/>
   <path d="m-21.752 141.28c0 0.50484 0.32704 0.80648 0.7398 0.80648 0.20956 0 0.37466-0.073 0.50802-0.15876l-0.09208-0.17145c-0.1143 0.073-0.23813 0.12065-0.38419 0.12065-0.29528 0-0.49532-0.20955-0.51437-0.54294h1.0414c0.0063-0.0381 0.0095-0.0889 0.0095-0.14288 0-0.44134-0.22226-0.72393-0.61597-0.72393-0.35244 0-0.69217 0.30799-0.69217 0.81283zm0.25401-0.11748c0.03175-0.31116 0.22861-0.48896 0.44452-0.48896 0.24131 0 0.38101 0.17463 0.38101 0.48896z"/>
  </g>
  <path d="m26.536 56.825h105.57" fill="#2f3744" stroke="#d2d6dc" stroke-linecap="square" stroke-miterlimit="40"/>
  <path d="m130.79 55.503 1.5876 1.323-1.5876 1.323" fill="none" stroke="#d2d6dc" stroke-linecap="square" stroke-miterlimit="40"/>
 </g>
</svg>
