<?xml version="1.0" encoding="UTF-8"?>
<svg width="406.03" height="221.17" version="1.1" viewBox="0 0 107.43 58.519" xmlns="http://www.w3.org/2000/svg" xmlns:cc="http://creativecommons.org/ns#" xmlns:dc="http://purl.org/dc/elements/1.1/" xmlns:rdf="http://www.w3.org/1999/02/22-rdf-syntax-ns#">
 <metadata>
  <rdf:RDF>
   <cc:Work rdf:about="">
    <dc:format>image/svg+xml</dc:format>
    <dc:type rdf:resource="http://purl.org/dc/dcmitype/StillImage"/>
    <dc:title/>
   </cc:Work>
  </rdf:RDF>
 </metadata>
 <g transform="translate(-113.77 -63.632)" fill="#2f3744" stroke="#535e70" stroke-dashoffset="1.2" stroke-linecap="round" stroke-miterlimit="40" stroke-width=".13229">
  <path d="m125.15 69.156v52.851"/>
  <path d="m135.73 69.156v52.851"/>
  <path d="m146.32 69.156v52.851"/>
  <path d="m156.9 69.156v52.851"/>
  <path d="m167.48 69.156v52.851"/>
  <path d="m178.07 69.156v52.851"/>
  <path d="m188.65 69.156v52.851"/>
  <path d="m114.7 116.72h105.62"/>
  <path d="m114.7 111.43h105.62"/>
  <path d="m114.7 106.14h105.62"/>
  <path d="m114.7 100.85h105.62"/>
  <path d="m114.7 90.264h105.62"/>
  <path d="m114.7 84.972h105.62"/>
  <path d="m114.7 79.681h105.62"/>
  <path d="m114.7 74.389h105.62"/>
  <path d="m114.57 69.156v52.851"/>
  <path d="m114.7 69.097h105.62"/>
  <path d="m114.7 122.01h105.62"/>
  <path d="m114.7 95.556h105.62"/>
  <path d="m199.23 69.156v52.851"/>
  <path d="m209.82 69.156v52.851"/>
  <path d="m220.4 69.156v52.851"/>
 </g>
 <path d="m0.79309 31.927s13.891-26.458 26.458-26.458c18.19 0 33.073 52.917 52.917 52.917 15.544 0 26.458-26.458 26.458-26.458" fill="none" stroke="#535e70" stroke-linecap="round" stroke-width=".26458"/>
 <g transform="translate(-113.77 -63.632)" fill="#d2d6dc">
  <circle cx="114.56" cy="95.559" r=".79375"/>
  <circle cx="125.15" cy="79.684" r=".79375"/>
  <circle cx="135.73" cy="70.424" r=".79375"/>
  <circle cx="146.31" cy="70.424" r=".79375"/>
  <circle cx="156.9" cy="80.478" r=".79375"/>
  <circle cx="167.48" cy="96.353" r=".79375"/>
  <circle cx="178.06" cy="111.43" r=".79375"/>
  <circle cx="188.65" cy="120.69" r=".79375"/>
  <circle cx="199.23" cy="120.69" r=".79375"/>
  <circle cx="209.81" cy="112.76" r=".79375"/>
  <circle cx="220.4" cy="95.559" r=".79375"/>
 </g>
 <g transform="translate(-113.77 -63.632)" fill="#e8eaec" stroke-linecap="round" stroke-width=".26458" aria-label="Low sample rate, high bit depth">
  <path d="m114.35 66.646h1.5663v-0.30057h-1.2107v-2.4765h-0.3556z"/>
  <path d="m116.16 65.622c0 0.68157 0.44874 1.0753 0.9525 1.0753 0.50377 0 0.9525-0.3937 0.9525-1.0753 0-0.69003-0.44873-1.0837-0.9525-1.0837-0.50376 0-0.9525 0.3937-0.9525 1.0837zm0.35984 0c0-0.47413 0.2413-0.79587 0.59266-0.79587 0.3556 0 0.59267 0.32173 0.59267 0.79587 0 0.4699-0.23707 0.7874-0.59267 0.7874-0.35136 0-0.59266-0.3175-0.59266-0.7874z"/>
  <path d="m118.92 66.646h0.4064l0.28787-1.1007c0.055-0.19473 0.0974-0.38947 0.14393-0.5969h0.0169c0.0508 0.20743 0.0889 0.39793 0.1397 0.59267l0.29634 1.1049h0.42333l0.55033-2.0574h-0.3302l-0.30056 1.1896c-0.0423 0.19473-0.0804 0.381-0.127 0.5715h-0.0169c-0.0466-0.1905-0.0931-0.37677-0.14393-0.5715l-0.32173-1.1896h-0.33867l-0.3175 1.1896c-0.0508 0.1905-0.0931 0.381-0.1397 0.5715h-0.0169c-0.0381-0.1905-0.0762-0.37677-0.12277-0.5715l-0.3048-1.1896h-0.3556z"/>
  <path d="m122.26 66.413c0.19473 0.16087 0.47413 0.28363 0.76623 0.28363 0.48683 0 0.75353-0.2794 0.75353-0.61383 0-0.38947-0.3302-0.51223-0.62653-0.6223-0.23283-0.0889-0.4572-0.1651-0.4572-0.3556 0-0.15663 0.11853-0.29633 0.37677-0.29633 0.18203 0 0.3302 0.0762 0.46989 0.18203l0.1651-0.22013c-0.15663-0.127-0.38099-0.23283-0.63923-0.23283-0.4445 0-0.70696 0.254-0.70696 0.5842 0 0.34713 0.32173 0.48683 0.61383 0.59267 0.22437 0.08467 0.4699 0.1778 0.4699 0.38947 0 0.1778-0.13547 0.32173-0.4064 0.32173-0.24553 0-0.42757-0.1016-0.60537-0.24553z"/>
  <path d="m124.17 66.113c0 0.3683 0.25824 0.5842 0.60537 0.5842 0.254 0 0.4826-0.13547 0.68157-0.29633h8e-3l0.0296 0.24553h0.28786v-1.2615c0-0.51223-0.21166-0.84667-0.71543-0.84667-0.3302 0-0.61807 0.14393-0.80857 0.2667l0.1397 0.2413c0.16087-0.11007 0.37254-0.22013 0.61384-0.22013 0.33443 0 0.42333 0.254 0.42333 0.51647-0.8763 0.09737-1.2658 0.32173-1.2658 0.77047zm0.3429-0.0254c0-0.26247 0.23284-0.4318 0.92287-0.51647v0.5715c-0.19897 0.1778-0.36407 0.27517-0.56303 0.27517-0.2032 0-0.35984-0.09737-0.35984-0.3302z"/>
  <path d="m126.44 66.646h0.34713v-1.4901c0.1905-0.21167 0.36407-0.3175 0.51647-0.3175 0.26246 0 0.38523 0.1651 0.38523 0.55033v1.2573h0.34713v-1.4901c0.1905-0.21167 0.3556-0.3175 0.51647-0.3175 0.25823 0 0.381 0.1651 0.381 0.55033v1.2573h0.34713v-1.3039c0-0.52493-0.2032-0.80433-0.62653-0.80433-0.24977 0-0.46143 0.16087-0.67733 0.3937-0.0847-0.24553-0.254-0.3937-0.56727-0.3937-0.24553 0-0.46143 0.1524-0.63923 0.34713h-0.0127l-0.0296-0.29633h-0.28786z"/>
  <path d="m130.28 66.46c0.1905 0.14817 0.381 0.23707 0.5715 0.23707 0.4699 0 0.889-0.41063 0.889-1.1091 0-0.63923-0.28363-1.0499-0.8128-1.0499-0.2413 0-0.4699 0.13123-0.65617 0.28787h-0.0127l-0.0296-0.23707h-0.28787v2.9252h0.34714v-0.69427zm8e-3 -0.27093v-1.0795c0.2032-0.18203 0.37676-0.2794 0.55033-0.2794 0.38947 0 0.54187 0.3048 0.54187 0.75777 0 0.508-0.24977 0.81703-0.58844 0.81703-0.13546 0-0.3175-0.05927-0.50376-0.2159z"/>
  <path d="m132.29 66.231c0 0.30057 0.10583 0.46567 0.3683 0.46567 0.0931 0 0.1524-0.0127 0.19896-0.03387l-0.0466-0.26247c-0.0381 0.0085-0.055 0.0085-0.0762 0.0085-0.0508 0-0.0974-0.04233-0.0974-0.1524v-2.6247h-0.34713z"/>
  <path d="m133.22 65.622c0 0.6731 0.43603 1.0753 0.98636 1.0753 0.2794 0 0.49954-0.09737 0.67734-0.21167l-0.12277-0.2286c-0.1524 0.09737-0.3175 0.16087-0.51223 0.16087-0.3937 0-0.6604-0.2794-0.6858-0.7239h1.3885c8e-3 -0.0508 0.0127-0.11853 0.0127-0.1905 0-0.58843-0.29633-0.9652-0.82127-0.9652-0.4699 0-0.92286 0.41063-0.92286 1.0837zm0.33866-0.15663c0.0423-0.41487 0.3048-0.65193 0.59267-0.65193 0.32173 0 0.508 0.23283 0.508 0.65193z"/>
  <path d="m136.33 66.646h0.34713v-1.3208c0.1397-0.34713 0.34714-0.47413 0.5207-0.47413 0.0847 0 0.13124 0.0127 0.19897 0.03387l0.0677-0.3048c-0.0677-0.02963-0.13123-0.04233-0.22013-0.04233-0.23283 0-0.4445 0.1651-0.5842 0.42333h-0.0127l-0.0296-0.37253h-0.28787z"/>
  <path d="m137.59 66.113c0 0.3683 0.25823 0.5842 0.60536 0.5842 0.254 0 0.4826-0.13547 0.68157-0.29633h8e-3l0.0296 0.24553h0.28787v-1.2615c0-0.51223-0.21167-0.84667-0.71544-0.84667-0.3302 0-0.61806 0.14393-0.80856 0.2667l0.1397 0.2413c0.16086-0.11007 0.37253-0.22013 0.61383-0.22013 0.33443 0 0.42333 0.254 0.42333 0.51647-0.8763 0.09737-1.2658 0.32173-1.2658 0.77047zm0.3429-0.0254c0-0.26247 0.23283-0.4318 0.92286-0.51647v0.5715c-0.19896 0.1778-0.36406 0.27517-0.56303 0.27517-0.2032 0-0.35983-0.09737-0.35983-0.3302z"/>
  <path d="m139.92 66.011c0 0.4064 0.14817 0.6858 0.58843 0.6858 0.127 0 0.2667-0.0381 0.381-0.0762l-0.0677-0.26247c-0.0677 0.0254-0.16087 0.05503-0.23283 0.05503-0.23707 0-0.3175-0.14393-0.3175-0.39793v-1.143h0.55456v-0.28363h-0.55456v-0.57573h-0.2921l-0.0423 0.57573-0.32173 0.02117v0.26247h0.3048z"/>
  <path d="m141.09 65.622c0 0.6731 0.43604 1.0753 0.98637 1.0753 0.2794 0 0.49953-0.09737 0.67733-0.21167l-0.12276-0.2286c-0.1524 0.09737-0.3175 0.16087-0.51224 0.16087-0.3937 0-0.6604-0.2794-0.6858-0.7239h1.3885c8e-3 -0.0508 0.0127-0.11853 0.0127-0.1905 0-0.58843-0.29634-0.9652-0.82127-0.9652-0.4699 0-0.92287 0.41063-0.92287 1.0837zm0.33867-0.15663c0.0423-0.41487 0.3048-0.65193 0.59267-0.65193 0.32173 0 0.508 0.23283 0.508 0.65193z"/>
  <path d="m143.28 67.366c0.3429-0.14393 0.55457-0.42757 0.55457-0.79163 0-0.254-0.11007-0.41063-0.2921-0.41063-0.1397 0-0.25823 0.09313-0.25823 0.24553 0 0.15663 0.1143 0.2413 0.24976 0.2413 0.0127 0 0.0296 0 0.0423-0.0042 0 0.2286-0.14394 0.41063-0.381 0.51647z"/>
  <path d="m145.25 66.646h0.34714v-1.4901c0.20743-0.20743 0.35136-0.3175 0.56303-0.3175 0.27093 0 0.38947 0.1651 0.38947 0.55033v1.2573h0.34713v-1.3039c0-0.52493-0.19473-0.80433-0.62653-0.80433-0.28364 0-0.49107 0.1524-0.6858 0.33867l0.0127-0.42333v-0.82127h-0.34714z"/>
  <path d="m147.73 64.166c0.13546 0 0.2413-0.09313 0.2413-0.22437 0-0.13547-0.10584-0.22437-0.2413-0.22437-0.13547 0-0.2413 0.0889-0.2413 0.22437 0 0.13123 0.10583 0.22437 0.2413 0.22437zm-0.1778 2.4807h0.34713v-2.0574h-0.34713z"/>
  <path d="m148.74 66.993c0-0.11853 0.0635-0.2413 0.21167-0.34713 0.0889 0.0254 0.18626 0.03387 0.2667 0.03387h0.35559c0.2667 0 0.41487 0.0635 0.41487 0.254 0 0.2159-0.25823 0.4191-0.65193 0.4191-0.37253 0-0.5969-0.1397-0.5969-0.35983zm-0.3048 0.04657c0 0.3556 0.34713 0.55457 0.8509 0.55457 0.63923 0 1.0414-0.3302 1.0414-0.7112 0-0.3429-0.2413-0.49107-0.71967-0.49107h-0.39793c-0.2794 0-0.36407-0.09313-0.36407-0.22437 0-0.1143 0.0593-0.18203 0.13124-0.24553 0.0931 0.04657 0.20743 0.07197 0.30903 0.07197 0.4191 0 0.75353-0.27517 0.75353-0.71543 0-0.17357-0.072-0.3302-0.16933-0.42333h0.42333v-0.2667h-0.71543c-0.0762-0.02963-0.1778-0.0508-0.2921-0.0508-0.4191 0-0.7747 0.28363-0.7747 0.73237 0 0.24553 0.13123 0.4445 0.2667 0.55457v0.01693c-0.10583 0.07197-0.22437 0.20743-0.22437 0.381 0 0.16087 0.0804 0.27093 0.18204 0.33443v0.01693c-0.18627 0.127-0.30057 0.2921-0.30057 0.46567zm0.8509-1.2785c-0.23707 0-0.43603-0.1905-0.43603-0.49107s0.19473-0.47837 0.43603-0.47837 0.43603 0.1778 0.43603 0.47837-0.19897 0.49107-0.43603 0.49107z"/>
  <path d="m150.73 66.646h0.34714v-1.4901c0.20743-0.20743 0.35136-0.3175 0.56303-0.3175 0.27093 0 0.38947 0.1651 0.38947 0.55033v1.2573h0.34713v-1.3039c0-0.52493-0.19473-0.80433-0.62653-0.80433-0.28364 0-0.49107 0.1524-0.6858 0.33867l0.0127-0.42333v-0.82127h-0.34714z"/>
  <path d="m153.89 66.646h0.2794l0.0296-0.2032h0.0127c0.18203 0.16087 0.39793 0.254 0.58843 0.254 0.4699 0 0.889-0.41063 0.889-1.1134 0-0.635-0.28363-1.0456-0.81703-1.0456-0.2286 0-0.4572 0.12277-0.64347 0.28787l8e-3 -0.37253v-0.82127h-0.34713zm0.34713-0.4572v-1.0795c0.19473-0.18203 0.37677-0.2794 0.55033-0.2794 0.38947 0 0.54187 0.3048 0.54187 0.75777 0 0.508-0.24977 0.81703-0.58843 0.81703-0.13547 0-0.32174-0.05927-0.50377-0.2159z"/>
  <path d="m156.41 64.166c0.13547 0 0.2413-0.09313 0.2413-0.22437 0-0.13547-0.10583-0.22437-0.2413-0.22437s-0.2413 0.0889-0.2413 0.22437c0 0.13123 0.10583 0.22437 0.2413 0.22437zm-0.1778 2.4807h0.34713v-2.0574h-0.34713z"/>
  <path d="m157.34 66.011c0 0.4064 0.14817 0.6858 0.58843 0.6858 0.127 0 0.2667-0.0381 0.381-0.0762l-0.0677-0.26247c-0.0677 0.0254-0.16087 0.05503-0.23283 0.05503-0.23707 0-0.3175-0.14393-0.3175-0.39793v-1.143h0.55456v-0.28363h-0.55456v-0.57573h-0.2921l-0.0423 0.57573-0.32174 0.02117v0.26247h0.3048z"/>
  <path d="m159.41 65.622c0 0.6858 0.33443 1.0753 0.8509 1.0753 0.2413 0 0.46143-0.13547 0.6223-0.2921h0.0127l0.0296 0.2413h0.28787v-3.0141h-0.35137v0.79163l0.0169 0.35137c-0.18204-0.14817-0.33867-0.23707-0.57574-0.23707-0.4699 0-0.89323 0.41487-0.89323 1.0837zm0.35983-0.0042c0-0.4699 0.26247-0.7874 0.59267-0.7874 0.16933 0 0.32597 0.05927 0.49953 0.2159v1.0753c-0.16933 0.1905-0.33443 0.28363-0.52493 0.28363-0.35983 0-0.56727-0.29633-0.56727-0.7874z"/>
  <path d="m161.76 65.622c0 0.6731 0.43604 1.0753 0.98637 1.0753 0.2794 0 0.49953-0.09737 0.67733-0.21167l-0.12277-0.2286c-0.1524 0.09737-0.3175 0.16087-0.51223 0.16087-0.3937 0-0.6604-0.2794-0.6858-0.7239h1.3885c8e-3 -0.0508 0.0127-0.11853 0.0127-0.1905 0-0.58843-0.29633-0.9652-0.82126-0.9652-0.4699 0-0.92287 0.41063-0.92287 1.0837zm0.33867-0.15663c0.0423-0.41487 0.3048-0.65193 0.59267-0.65193 0.32173 0 0.50799 0.23283 0.50799 0.65193z"/>
  <path d="m164.35 66.46c0.1905 0.14817 0.381 0.23707 0.5715 0.23707 0.4699 0 0.889-0.41063 0.889-1.1091 0-0.63923-0.28364-1.0499-0.8128-1.0499-0.2413 0-0.4699 0.13123-0.65617 0.28787h-0.0127l-0.0296-0.23707h-0.28787v2.9252h0.34713v-0.69427zm8e-3 -0.27093v-1.0795c0.2032-0.18203 0.37677-0.2794 0.55034-0.2794 0.38946 0 0.54186 0.3048 0.54186 0.75777 0 0.508-0.24976 0.81703-0.58843 0.81703-0.13547 0-0.3175-0.05927-0.50377-0.2159z"/>
  <path d="m166.42 66.011c0 0.4064 0.14817 0.6858 0.58844 0.6858 0.12699 0 0.26669-0.0381 0.38099-0.0762l-0.0677-0.26247c-0.0677 0.0254-0.16087 0.05503-0.23283 0.05503-0.23707 0-0.3175-0.14393-0.3175-0.39793v-1.143h0.55456v-0.28363h-0.55456v-0.57573h-0.2921l-0.0423 0.57573-0.32174 0.02117v0.26247h0.3048z"/>
  <path d="m167.79 66.646h0.34713v-1.4901c0.20743-0.20743 0.35137-0.3175 0.56303-0.3175 0.27094 0 0.38947 0.1651 0.38947 0.55033v1.2573h0.34713v-1.3039c0-0.52493-0.19473-0.80433-0.62653-0.80433-0.28363 0-0.49107 0.1524-0.6858 0.33867l0.0127-0.42333v-0.82127h-0.34713z"/>
 </g>
</svg>
