<?xml version="1.0" encoding="UTF-8"?>
<svg width="406.03" height="223.67" version="1.1" viewBox="0 0 107.43 59.179" xmlns="http://www.w3.org/2000/svg" xmlns:cc="http://creativecommons.org/ns#" xmlns:dc="http://purl.org/dc/elements/1.1/" xmlns:rdf="http://www.w3.org/1999/02/22-rdf-syntax-ns#">
 <metadata>
  <rdf:RDF>
   <cc:Work rdf:about="">
    <dc:format>image/svg+xml</dc:format>
    <dc:type rdf:resource="http://purl.org/dc/dcmitype/StillImage"/>
    <dc:title/>
   </cc:Work>
  </rdf:RDF>
 </metadata>
 <g transform="translate(-113.77 -.13227)" fill="#2f3744" stroke="#535e70" stroke-dashoffset="1.2" stroke-linecap="round" stroke-miterlimit="40" stroke-width=".13229">
  <path d="m119.86 5.6561v52.851"/>
  <path d="m125.15 5.6561v52.851"/>
  <path d="m130.44 5.6561v52.851"/>
  <path d="m135.73 5.6561v52.851"/>
  <path d="m141.02 5.6561v52.851"/>
  <path d="m146.32 5.6561v52.851"/>
  <path d="m151.61 5.6561v52.851"/>
  <path d="m156.9 5.6561v52.851"/>
  <path d="m162.19 5.6561v52.851"/>
  <path d="m167.48 5.6561v52.851"/>
  <path d="m172.77 5.6561v52.851"/>
  <path d="m178.07 5.6561v52.851"/>
  <path d="m183.36 5.6561v52.851"/>
  <path d="m188.65 5.6561v52.851"/>
  <path d="m193.94 5.6561v52.851"/>
  <path d="m114.7 53.222h105.62"/>
  <path d="m114.7 47.931h105.62"/>
  <path d="m114.7 42.639h105.62"/>
  <path d="m114.7 37.347h105.62"/>
  <path d="m114.7 26.764h105.62"/>
  <path d="m114.7 21.472h105.62"/>
  <path d="m114.7 16.181h105.62"/>
  <path d="m114.7 10.889h105.62"/>
  <path d="m114.57 5.6561v52.851"/>
  <path d="m114.7 5.5975h105.62"/>
  <path d="m114.7 58.514h105.62"/>
  <path d="m114.7 32.056h105.62"/>
  <path d="m199.23 5.6561v52.851"/>
  <path d="m204.52 5.6561v52.851"/>
  <path d="m209.82 5.6561v52.851"/>
  <path d="m215.11 5.6561v52.851"/>
  <path d="m220.4 5.6561v52.851"/>
 </g>
 <path d="m0.79309 31.928s13.891-26.458 26.458-26.458c18.19 0 33.073 52.917 52.917 52.917 15.544 0 26.458-26.458 26.458-26.458" fill="none" stroke="#535e70" stroke-linecap="round" stroke-width=".26458"/>
 <g transform="translate(-113.77 -.13227)" fill="#d2d6dc">
  <circle cx="114.56" cy="32.06" r=".79375"/>
  <circle cx="119.86" cy="23.328" r=".79375"/>
  <circle cx="125.15" cy="16.185" r=".79375"/>
  <circle cx="130.44" cy="10.893" r=".79375"/>
  <circle cx="135.73" cy="6.9242" r=".79375"/>
  <circle cx="141.02" cy="5.6013" r=".79375"/>
  <circle cx="146.31" cy="6.9242" r=".79375"/>
  <circle cx="151.61" cy="10.893" r=".79375"/>
  <circle cx="156.9" cy="16.978" r=".79375"/>
  <circle cx="162.19" cy="24.651" r=".79375"/>
  <circle cx="167.48" cy="32.853" r=".79375"/>
  <circle cx="172.77" cy="41.055" r=".79375"/>
  <circle cx="178.06" cy="47.935" r=".79375"/>
  <circle cx="183.36" cy="53.755" r=".79375"/>
  <circle cx="188.65" cy="57.195" r=".79375"/>
  <circle cx="193.94" cy="58.518" r=".79375"/>
  <circle cx="199.23" cy="57.195" r=".79375"/>
  <circle cx="204.52" cy="54.549" r=".79375"/>
  <circle cx="209.81" cy="49.257" r=".79375"/>
  <circle cx="215.11" cy="42.378" r=".79375"/>
  <circle cx="217.75" cy="37.351" r=".79375"/>
  <circle cx="220.4" cy="32.06" r=".79375"/>
 </g>
 <g transform="translate(-113.77 -.13227)" fill="#e8eaec" stroke-linecap="round" stroke-width=".26458" aria-label="High sample rate, High bit depth">
  <path d="m114.35 3.1464h0.3556v-1.3081h1.2912v1.3081h0.35137v-2.7771h-0.35137v1.1642h-1.2912v-1.1642h-0.3556z"/>
  <path d="m117.25 0.66569c0.13547 0 0.2413-0.093133 0.2413-0.22437 0-0.13547-0.10583-0.22437-0.2413-0.22437-0.13546 0-0.2413 0.0889-0.2413 0.22437 0 0.13123 0.10584 0.22437 0.2413 0.22437zm-0.1778 2.4807h0.34714v-2.0574h-0.34714z"/>
  <path d="m118.26 3.4936c0-0.11853 0.0635-0.2413 0.21167-0.34713 0.0889 0.0254 0.18627 0.033867 0.2667 0.033867h0.3556c0.2667 0 0.41487 0.0635 0.41487 0.254 0 0.2159-0.25824 0.4191-0.65194 0.4191-0.37253 0-0.5969-0.1397-0.5969-0.35983zm-0.30479 0.046567c0 0.3556 0.34713 0.55457 0.85089 0.55457 0.63924 0 1.0414-0.3302 1.0414-0.7112 0-0.3429-0.2413-0.49107-0.71966-0.49107h-0.39794c-0.2794 0-0.36406-0.093133-0.36406-0.22437 0-0.1143 0.0593-0.18203 0.13123-0.24553 0.0931 0.046567 0.20743 0.071967 0.30903 0.071967 0.4191 0 0.75354-0.27517 0.75354-0.71543 0-0.17357-0.072-0.3302-0.16934-0.42333h0.42334v-0.2667h-0.71544c-0.0762-0.029633-0.1778-0.0508-0.2921-0.0508-0.4191 0-0.7747 0.28363-0.7747 0.73237 0 0.24553 0.13124 0.4445 0.2667 0.55457v0.016933c-0.10583 0.071967-0.22436 0.20743-0.22436 0.381 0 0.16087 0.0804 0.27093 0.18203 0.33443v0.016933c-0.18627 0.127-0.30056 0.2921-0.30056 0.46567zm0.85089-1.2785c-0.23706 0-0.43603-0.1905-0.43603-0.49107s0.19473-0.47837 0.43603-0.47837 0.43604 0.1778 0.43604 0.47837-0.19897 0.49107-0.43604 0.49107z"/>
  <path d="m120.24 3.1464h0.34713v-1.4901c0.20744-0.20743 0.35137-0.3175 0.56304-0.3175 0.27093 0 0.38946 0.1651 0.38946 0.55033v1.2573h0.34713v-1.3039c0-0.52493-0.19473-0.80433-0.62653-0.80433-0.28363 0-0.49106 0.1524-0.6858 0.33867l0.0127-0.42333v-0.82127h-0.34713z"/>
  <path d="m123.17 2.9136c0.19473 0.16087 0.47413 0.28363 0.76623 0.28363 0.48684 0 0.75354-0.2794 0.75354-0.61383 0-0.38947-0.3302-0.51223-0.62654-0.6223-0.23283-0.0889-0.4572-0.1651-0.4572-0.3556 0-0.15663 0.11854-0.29633 0.37677-0.29633 0.18203 0 0.3302 0.0762 0.4699 0.18203l0.1651-0.22013c-0.15663-0.127-0.381-0.23283-0.63923-0.23283-0.4445 0-0.70697 0.254-0.70697 0.5842 0 0.34713 0.32173 0.48683 0.61383 0.59267 0.22437 0.084667 0.4699 0.1778 0.4699 0.38947 0 0.1778-0.13546 0.32173-0.4064 0.32173-0.24553 0-0.42756-0.1016-0.60536-0.24553z"/>
  <path d="m125.08 2.613c0 0.3683 0.25823 0.5842 0.60536 0.5842 0.254 0 0.4826-0.13547 0.68157-0.29633h8e-3l0.0296 0.24553h0.28787v-1.2615c0-0.51223-0.21167-0.84667-0.71544-0.84667-0.3302 0-0.61806 0.14393-0.80856 0.2667l0.1397 0.2413c0.16087-0.11007 0.37253-0.22013 0.61383-0.22013 0.33443 0 0.42333 0.254 0.42333 0.51647-0.87629 0.097367-1.2658 0.32173-1.2658 0.77047zm0.3429-0.0254c0-0.26247 0.23283-0.4318 0.92286-0.51647v0.5715c-0.19896 0.1778-0.36406 0.27517-0.56303 0.27517-0.2032 0-0.35983-0.097367-0.35983-0.3302z"/>
  <path d="m127.35 3.1464h0.34714v-1.4901c0.1905-0.21167 0.36406-0.3175 0.51646-0.3175 0.26247 0 0.38524 0.1651 0.38524 0.55033v1.2573h0.34713v-1.4901c0.1905-0.21167 0.3556-0.3175 0.51646-0.3175 0.25824 0 0.381 0.1651 0.381 0.55033v1.2573h0.34714v-1.3039c0-0.52493-0.2032-0.80433-0.62654-0.80433-0.24976 0-0.46143 0.16087-0.67733 0.3937-0.0847-0.24553-0.254-0.3937-0.56726-0.3937-0.24554 0-0.46144 0.1524-0.63924 0.34713h-0.0127l-0.0296-0.29633h-0.28787z"/>
  <path d="m131.19 2.9602c0.1905 0.14817 0.381 0.23707 0.5715 0.23707 0.4699 0 0.88899-0.41063 0.88899-1.1091 0-0.63923-0.28363-1.0499-0.81279-1.0499-0.2413 0-0.4699 0.13123-0.65617 0.28787h-0.0127l-0.0296-0.23707h-0.28787v2.9252h0.34713v-0.69427zm8e-3 -0.27093v-1.0795c0.2032-0.18203 0.37677-0.2794 0.55034-0.2794 0.38946 0 0.54186 0.3048 0.54186 0.75777 0 0.508-0.24976 0.81703-0.58843 0.81703-0.13547 0-0.3175-0.059267-0.50377-0.2159z"/>
  <path d="m133.2 2.7316c0 0.30057 0.10584 0.46567 0.3683 0.46567 0.0931 0 0.1524-0.0127 0.19897-0.033867l-0.0466-0.26247c-0.0381 0.00847-0.055 0.00847-0.0762 0.00847-0.0508 0-0.0974-0.042333-0.0974-0.1524v-2.6247h-0.34714z"/>
  <path d="m134.13 2.122c0 0.6731 0.43603 1.0753 0.98637 1.0753 0.2794 0 0.49953-0.097367 0.67733-0.21167l-0.12277-0.2286c-0.1524 0.097367-0.3175 0.16087-0.51223 0.16087-0.3937 0-0.6604-0.2794-0.6858-0.7239h1.3885c8e-3 -0.0508 0.0127-0.11853 0.0127-0.1905 0-0.58843-0.29633-0.9652-0.82126-0.9652-0.4699 0-0.92287 0.41063-0.92287 1.0837zm0.33867-0.15663c0.0423-0.41487 0.3048-0.65193 0.59266-0.65193 0.32174 0 0.508 0.23283 0.508 0.65193z"/>
  <path d="m137.24 3.1464h0.34713v-1.3208c0.1397-0.34713 0.34713-0.47413 0.5207-0.47413 0.0847 0 0.13123 0.0127 0.19896 0.033867l0.0677-0.3048c-0.0677-0.029633-0.13124-0.042333-0.22014-0.042333-0.23283 0-0.44449 0.1651-0.58419 0.42333h-0.0127l-0.0296-0.37253h-0.28786z"/>
  <path d="m138.5 2.613c0 0.3683 0.25824 0.5842 0.60537 0.5842 0.254 0 0.4826-0.13547 0.68157-0.29633h8e-3l0.0296 0.24553h0.28786v-1.2615c0-0.51223-0.21166-0.84667-0.71543-0.84667-0.3302 0-0.61807 0.14393-0.80857 0.2667l0.1397 0.2413c0.16087-0.11007 0.37254-0.22013 0.61384-0.22013 0.33443 0 0.42333 0.254 0.42333 0.51647-0.8763 0.097367-1.2658 0.32173-1.2658 0.77047zm0.3429-0.0254c0-0.26247 0.23284-0.4318 0.92287-0.51647v0.5715c-0.19897 0.1778-0.36407 0.27517-0.56303 0.27517-0.2032 0-0.35984-0.097367-0.35984-0.3302z"/>
  <path d="m140.83 2.5114c0 0.4064 0.14817 0.6858 0.58844 0.6858 0.127 0 0.2667-0.0381 0.381-0.0762l-0.0677-0.26247c-0.0677 0.0254-0.16086 0.055033-0.23283 0.055033-0.23707 0-0.3175-0.14393-0.3175-0.39793v-1.143h0.55457v-0.28363h-0.55457v-0.57573h-0.2921l-0.0423 0.57573-0.32174 0.021167v0.26247h0.3048z"/>
  <path d="m142 2.122c0 0.6731 0.43603 1.0753 0.98636 1.0753 0.2794 0 0.49954-0.097367 0.67734-0.21167l-0.12277-0.2286c-0.1524 0.097367-0.3175 0.16087-0.51223 0.16087-0.3937 0-0.6604-0.2794-0.6858-0.7239h1.3885c8e-3 -0.0508 0.0127-0.11853 0.0127-0.1905 0-0.58843-0.29633-0.9652-0.82127-0.9652-0.4699 0-0.92286 0.41063-0.92286 1.0837zm0.33866-0.15663c0.0423-0.41487 0.3048-0.65193 0.59267-0.65193 0.32173 0 0.508 0.23283 0.508 0.65193z"/>
  <path d="m144.19 3.8661c0.3429-0.14393 0.55456-0.42757 0.55456-0.79163 0-0.254-0.11006-0.41063-0.2921-0.41063-0.1397 0-0.25823 0.093133-0.25823 0.24553 0 0.15663 0.1143 0.2413 0.24977 0.2413 0.0127 0 0.0296 0 0.0423-0.00423 0 0.2286-0.14393 0.41063-0.381 0.51647z"/>
  <path d="m146.18 3.1464h0.3556v-1.3081h1.2912v1.3081h0.35137v-2.7771h-0.35137v1.1642h-1.2912v-1.1642h-0.3556z"/>
  <path d="m149.07 0.66569c0.13547 0 0.2413-0.093133 0.2413-0.22437 0-0.13547-0.10583-0.22437-0.2413-0.22437s-0.2413 0.0889-0.2413 0.22437c0 0.13123 0.10583 0.22437 0.2413 0.22437zm-0.1778 2.4807h0.34713v-2.0574h-0.34713z"/>
  <path d="m150.08 3.4936c0-0.11853 0.0635-0.2413 0.21167-0.34713 0.0889 0.0254 0.18627 0.033867 0.2667 0.033867h0.3556c0.2667 0 0.41487 0.0635 0.41487 0.254 0 0.2159-0.25824 0.4191-0.65194 0.4191-0.37253 0-0.5969-0.1397-0.5969-0.35983zm-0.3048 0.046567c0 0.3556 0.34714 0.55457 0.8509 0.55457 0.63924 0 1.0414-0.3302 1.0414-0.7112 0-0.3429-0.2413-0.49107-0.71966-0.49107h-0.39794c-0.2794 0-0.36406-0.093133-0.36406-0.22437 0-0.1143 0.0593-0.18203 0.13123-0.24553 0.0931 0.046567 0.20743 0.071967 0.30903 0.071967 0.4191 0 0.75354-0.27517 0.75354-0.71543 0-0.17357-0.072-0.3302-0.16934-0.42333h0.42334v-0.2667h-0.71544c-0.0762-0.029633-0.1778-0.0508-0.2921-0.0508-0.4191 0-0.7747 0.28363-0.7747 0.73237 0 0.24553 0.13124 0.4445 0.2667 0.55457v0.016933c-0.10583 0.071967-0.22436 0.20743-0.22436 0.381 0 0.16087 0.0804 0.27093 0.18203 0.33443v0.016933c-0.18627 0.127-0.30057 0.2921-0.30057 0.46567zm0.8509-1.2785c-0.23706 0-0.43603-0.1905-0.43603-0.49107s0.19473-0.47837 0.43603-0.47837 0.43604 0.1778 0.43604 0.47837-0.19897 0.49107-0.43604 0.49107z"/>
  <path d="m152.07 3.1464h0.34713v-1.4901c0.20743-0.20743 0.35137-0.3175 0.56303-0.3175 0.27094 0 0.38947 0.1651 0.38947 0.55033v1.2573h0.34713v-1.3039c0-0.52493-0.19473-0.80433-0.62653-0.80433-0.28363 0-0.49107 0.1524-0.6858 0.33867l0.0127-0.42333v-0.82127h-0.34713z"/>
  <path d="m155.23 3.1464h0.2794l0.0296-0.2032h0.0127c0.18203 0.16087 0.39793 0.254 0.58843 0.254 0.4699 0 0.889-0.41063 0.889-1.1134 0-0.635-0.28363-1.0456-0.81703-1.0456-0.2286 0-0.4572 0.12277-0.64347 0.28787l8e-3 -0.37253v-0.82127h-0.34713zm0.34713-0.4572v-1.0795c0.19473-0.18203 0.37677-0.2794 0.55033-0.2794 0.38947 0 0.54187 0.3048 0.54187 0.75777 0 0.508-0.24977 0.81703-0.58843 0.81703-0.13547 0-0.32174-0.059267-0.50377-0.2159z"/>
  <path d="m157.75 0.66569c0.13547 0 0.2413-0.093133 0.2413-0.22437 0-0.13547-0.10583-0.22437-0.2413-0.22437-0.13546 0-0.2413 0.0889-0.2413 0.22437 0 0.13123 0.10584 0.22437 0.2413 0.22437zm-0.1778 2.4807h0.34714v-2.0574h-0.34714z"/>
  <path d="m158.68 2.5114c0 0.4064 0.14816 0.6858 0.58843 0.6858 0.127 0 0.2667-0.0381 0.381-0.0762l-0.0677-0.26247c-0.0677 0.0254-0.16087 0.055033-0.23284 0.055033-0.23706 0-0.3175-0.14393-0.3175-0.39793v-1.143h0.55457v-0.28363h-0.55457v-0.57573h-0.2921l-0.0423 0.57573-0.32173 0.021167v0.26247h0.3048z"/>
  <path d="m160.75 2.122c0 0.6858 0.33443 1.0753 0.8509 1.0753 0.2413 0 0.46143-0.13547 0.6223-0.2921h0.0127l0.0296 0.2413h0.28787v-3.0141h-0.35137v0.79163l0.0169 0.35137c-0.18204-0.14817-0.33867-0.23707-0.57574-0.23707-0.4699 0-0.89323 0.41487-0.89323 1.0837zm0.35983-0.00423c0-0.4699 0.26247-0.7874 0.59267-0.7874 0.16933 0 0.32597 0.059267 0.49953 0.2159v1.0753c-0.16933 0.1905-0.33443 0.28363-0.52493 0.28363-0.35983 0-0.56727-0.29633-0.56727-0.7874z"/>
  <path d="m163.09 2.122c0 0.6731 0.43604 1.0753 0.98637 1.0753 0.2794 0 0.49953-0.097367 0.67733-0.21167l-0.12276-0.2286c-0.1524 0.097367-0.3175 0.16087-0.51224 0.16087-0.3937 0-0.6604-0.2794-0.6858-0.7239h1.3885c8e-3 -0.0508 0.0127-0.11853 0.0127-0.1905 0-0.58843-0.29634-0.9652-0.82127-0.9652-0.4699 0-0.92287 0.41063-0.92287 1.0837zm0.33867-0.15663c0.0423-0.41487 0.3048-0.65193 0.59267-0.65193 0.32173 0 0.508 0.23283 0.508 0.65193z"/>
  <path d="m165.69 2.9602c0.1905 0.14817 0.381 0.23707 0.5715 0.23707 0.4699 0 0.889-0.41063 0.889-1.1091 0-0.63923-0.28364-1.0499-0.8128-1.0499-0.2413 0-0.4699 0.13123-0.65617 0.28787h-0.0127l-0.0296-0.23707h-0.28787v2.9252h0.34713v-0.69427zm8e-3 -0.27093v-1.0795c0.2032-0.18203 0.37677-0.2794 0.55034-0.2794 0.38946 0 0.54186 0.3048 0.54186 0.75777 0 0.508-0.24976 0.81703-0.58843 0.81703-0.13547 0-0.3175-0.059267-0.50377-0.2159z"/>
  <path d="m167.75 2.5114c0 0.4064 0.14817 0.6858 0.58844 0.6858 0.127 0 0.2667-0.0381 0.381-0.0762l-0.0677-0.26247c-0.0677 0.0254-0.16086 0.055033-0.23283 0.055033-0.23707 0-0.3175-0.14393-0.3175-0.39793v-1.143h0.55457v-0.28363h-0.55457v-0.57573h-0.2921l-0.0423 0.57573-0.32174 0.021167v0.26247h0.3048z"/>
  <path d="m169.13 3.1464h0.34713v-1.4901c0.20743-0.20743 0.35137-0.3175 0.56303-0.3175 0.27094 0 0.38947 0.1651 0.38947 0.55033v1.2573h0.34713v-1.3039c0-0.52493-0.19473-0.80433-0.62653-0.80433-0.28363 0-0.49107 0.1524-0.6858 0.33867l0.0127-0.42333v-0.82127h-0.34713z"/>
 </g>
</svg>
