<?xml version="1.0" encoding="UTF-8"?>
<svg width="73.835mm" height="24.745mm" version="1.1" viewBox="0 0 73.835 24.745" xmlns="http://www.w3.org/2000/svg" xmlns:cc="http://creativecommons.org/ns#" xmlns:dc="http://purl.org/dc/elements/1.1/" xmlns:rdf="http://www.w3.org/1999/02/22-rdf-syntax-ns#">
 <metadata>
  <rdf:RDF>
   <cc:Work rdf:about="">
    <dc:format>image/svg+xml</dc:format>
    <dc:type rdf:resource="http://purl.org/dc/dcmitype/StillImage"/>
    <dc:title/>
   </cc:Work>
  </rdf:RDF>
 </metadata>
 <rect transform="rotate(-90)" x="-24.613" y=".13229" width="7.9375" height="66.146" fill="#2f3744" stroke="#7b8694" stroke-linecap="round" stroke-width=".26458"/>
 <g fill="#009244" stroke="#7b8694" stroke-linecap="round" stroke-width=".26458">
  <path d="m6.7469 16.676v7.9375"/>
  <path d="m13.361 16.676v7.9375"/>
  <path d="m19.976 16.676v7.9375"/>
  <path d="m26.591 16.676v7.9375"/>
  <path d="m33.205 16.676v7.9375"/>
  <path d="m39.82 16.676v7.9375"/>
  <path d="m46.434 16.676v7.9375"/>
  <path d="m53.049 16.676v7.9375"/>
  <path d="m59.664 16.676v7.9375"/>
 </g>
 <g fill="#e8eaec" stroke-linecap="round" stroke-width=".26458">
  <g stroke="#cf2f25" aria-label="1">
   <path d="m2.932 21.938h1.3335v-0.25188h-0.48895v-2.1114h-0.23336c-0.12965 0.07779-0.28522 0.13705-0.50006 0.1741v0.19632h0.42968v1.741h-0.54081z" fill="#e8eaec" stroke="none"/>
  </g>
  <g stroke="#cf2f25" aria-label="0">
   <path d="m10.176 21.983c0.47043 0 0.75565-0.4408 0.75565-1.2335 0-0.79269-0.28522-1.2187-0.75565-1.2187-0.47413 0-0.75935 0.42598-0.75935 1.2187 0 0.79269 0.28522 1.2335 0.75935 1.2335zm0-0.24448c-0.27781 0-0.46302-0.29633-0.46302-0.98901s0.18521-0.9742 0.46302-0.9742c0.27411 0 0.45932 0.28152 0.45932 0.9742s-0.18521 0.98901-0.45932 0.98901z" fill="#e8eaec" stroke="none"/>
  </g>
  <g stroke="#cf2f25" aria-label="1">
   <path d="m16.161 21.938h1.3335v-0.25188h-0.48895v-2.1114h-0.23336c-0.12964 0.07779-0.28522 0.13705-0.50006 0.1741v0.19632h0.42968v1.741h-0.54081z" fill="#e8eaec" stroke="none"/>
  </g>
  <g stroke="#cf2f25" aria-label="1">
   <path d="m22.776 21.938h1.3335v-0.25188h-0.48895v-2.1114h-0.23336c-0.12964 0.07779-0.28522 0.13705-0.50006 0.1741v0.19632h0.42968v1.741h-0.54081z" fill="#e8eaec" stroke="none"/>
  </g>
  <g stroke="#cf2f25" aria-label="1">
   <path d="m29.39 21.938h1.3335v-0.25188h-0.48895v-2.1114h-0.23336c-0.12965 0.07779-0.28522 0.13705-0.50006 0.1741v0.19632h0.42968v1.741h-0.54081z" fill="#e8eaec" stroke="none"/>
  </g>
  <g stroke="#cf2f25" aria-label="1">
   <path d="m36.005 21.938h1.3335v-0.25188h-0.48895v-2.1114h-0.23336c-0.12965 0.07779-0.28522 0.13705-0.50006 0.1741v0.19632h0.42968v1.741h-0.54081z" fill="#e8eaec" stroke="none"/>
  </g>
  <g stroke="#cf2f25" aria-label="0">
   <path d="m43.249 21.983c0.47043 0 0.75565-0.4408 0.75565-1.2335 0-0.79269-0.28522-1.2187-0.75565-1.2187-0.47413 0-0.75936 0.42598-0.75936 1.2187 0 0.79269 0.28522 1.2335 0.75936 1.2335zm0-0.24448c-0.27781 0-0.46302-0.29633-0.46302-0.98901s0.18521-0.9742 0.46302-0.9742c0.27411 0 0.45932 0.28152 0.45932 0.9742s-0.18521 0.98901-0.45932 0.98901z" fill="#e8eaec" stroke="none"/>
  </g>
  <g stroke="#cf2f25" aria-label="0">
   <path d="m49.864 21.983c0.47043 0 0.75565-0.4408 0.75565-1.2335 0-0.79269-0.28522-1.2187-0.75565-1.2187-0.47413 0-0.75936 0.42598-0.75936 1.2187 0 0.79269 0.28522 1.2335 0.75936 1.2335zm0-0.24448c-0.27781 0-0.46302-0.29633-0.46302-0.98901s0.18521-0.9742 0.46302-0.9742c0.27411 0 0.45932 0.28152 0.45932 0.9742s-0.18521 0.98901-0.45932 0.98901z" fill="#e8eaec" stroke="none"/>
  </g>
  <g stroke="#cf2f25" aria-label="0">
   <path d="m56.478 21.983c0.47043 0 0.75565-0.4408 0.75565-1.2335 0-0.79269-0.28522-1.2187-0.75565-1.2187-0.47413 0-0.75936 0.42598-0.75936 1.2187 0 0.79269 0.28522 1.2335 0.75936 1.2335zm0-0.24448c-0.27781 0-0.46302-0.29633-0.46302-0.98901s0.18521-0.9742 0.46302-0.9742c0.27411 0 0.45932 0.28152 0.45932 0.9742s-0.18521 0.98901-0.45932 0.98901z" fill="#e8eaec" stroke="none"/>
  </g>
  <g stroke="#cf2f25" aria-label="0">
   <path d="m63.093 21.983c0.47043 0 0.75565-0.4408 0.75565-1.2335 0-0.79269-0.28522-1.2187-0.75565-1.2187-0.47413 0-0.75936 0.42598-0.75936 1.2187 0 0.79269 0.28522 1.2335 0.75936 1.2335zm0-0.24448c-0.27781 0-0.46302-0.29633-0.46302-0.98901s0.18521-0.9742 0.46302-0.9742c0.27411 0 0.45932 0.28152 0.45932 0.9742s-0.18521 0.98901-0.45932 0.98901z" fill="#e8eaec" stroke="none"/>
  </g>
  <g transform="rotate(-45)" aria-label="NPC">
   <path d="m-8.2496 13.489h0.29263v-1.2705c0-0.25559-0.022225-0.51488-0.037042-0.75936h0.014817l0.263 0.50006 0.87789 1.5298h0.31856v-2.4299h-0.29263v1.2557c0 0.25559 0.025929 0.5297 0.040746 0.77417h-0.014817l-0.263-0.50377-0.88159-1.5261h-0.31856z"/>
   <path d="m-5.8694 13.489h0.31115v-0.96308h0.43709c0.5297 0 0.89641-0.24077 0.89641-0.75195 0-0.5334-0.3593-0.7149-0.89641-0.7149h-0.74824zm0.31115-1.215v-0.96679h0.39635c0.41857 0 0.62971 0.11483 0.62971 0.46673 0 0.34449-0.20373 0.50006-0.62971 0.50006z"/>
   <path d="m-3.8976 12.274c0 0.79269 0.45561 1.2594 1.0668 1.2594 0.30745 0 0.54822-0.12965 0.73713-0.3519l-0.1741-0.18891c-0.15558 0.1741-0.32597 0.2704-0.55563 0.2704-0.46302 0-0.75565-0.38523-0.75565-0.99642 0-0.60378 0.30745-0.9816 0.77047-0.9816 0.20003 0 0.3556 0.0889 0.48525 0.22596l0.1741-0.19632c-0.14446-0.15928-0.37412-0.30004-0.66305-0.30004-0.6223 0-1.0853 0.47784-1.0853 1.2594z"/>
  </g>
  <g transform="rotate(-45)" aria-label="DEAD">
   <path d="m-3.5724 18.166h0.6223c0.73343 0 1.1335-0.45191 1.1335-1.2261 0-0.77047-0.40005-1.2039-1.1483-1.2039h-0.60748zm0.31115-0.25188v-1.9262h0.27411c0.57044 0 0.85196 0.34078 0.85196 0.95197 0 0.61489-0.28152 0.9742-0.85196 0.9742z"/>
   <path d="m-1.3079 18.166h1.4372v-0.263h-1.1261v-0.88159h0.91863v-0.263h-0.91863v-0.76306h1.089v-0.25929h-1.4002z"/>
   <path d="m0.92749 17.177 0.11853-0.37042c0.085196-0.2704 0.16298-0.5371 0.24077-0.81862h0.014817c0.077788 0.28152 0.15558 0.54822 0.24077 0.81862l0.11483 0.37042zm1.0409 0.98901h0.32597l-0.82233-2.4299h-0.34819l-0.82233 2.4299h0.31485l0.23336-0.74083h0.8853z"/>
   <path d="m2.6133 18.166h0.6223c0.73343 0 1.1335-0.45191 1.1335-1.2261 0-0.77047-0.40005-1.2039-1.1483-1.2039h-0.60748zm0.31115-0.25188v-1.9262h0.27411c0.57044 0 0.85196 0.34078 0.85196 0.95197 0 0.61489-0.28152 0.9742-0.85196 0.9742z"/>
  </g>
  <g transform="rotate(-45)" aria-label="HAS_MANA">
   <path d="m1.1048 22.843h0.31115v-1.1446h1.1298v1.1446h0.30745v-2.4299h-0.30745v1.0186h-1.1298v-1.0186h-0.31115z"/>
   <path d="m3.8033 21.854 0.11853-0.37042c0.085196-0.2704 0.16298-0.5371 0.24077-0.81862h0.014817c0.077788 0.28152 0.15558 0.54822 0.24077 0.81862l0.11483 0.37042zm1.0409 0.98901h0.32597l-0.82233-2.4299h-0.34819l-0.82233 2.4299h0.31485l0.23336-0.74083h0.8853z"/>
   <path d="m5.315 22.529c0.21114 0.21855 0.50747 0.3593 0.84826 0.3593 0.51118 0 0.82973-0.30745 0.82973-0.69268 0-0.3593-0.21855-0.52599-0.50006-0.64823l-0.34819-0.14817c-0.18891-0.08149-0.40375-0.17039-0.40375-0.40376 0-0.21855 0.1815-0.3556 0.45561-0.3556 0.22225 0 0.40375 0.0889 0.55192 0.22966l0.16298-0.20003c-0.17039-0.1778-0.42598-0.30004-0.7149-0.30004-0.4408 0-0.76676 0.27411-0.76676 0.64452 0 0.3556 0.2667 0.5297 0.49265 0.626l0.34819 0.15187c0.22966 0.10372 0.40746 0.1815 0.40746 0.42968 0 0.23707-0.18891 0.39635-0.50747 0.39635-0.25559 0-0.49636-0.12224-0.67045-0.30374z"/>
   <path d="m7.1718 23.106v0.20373h1.7632v-0.20373z"/>
   <path d="m9.3017 22.843h0.28522v-1.3372c0-0.21484-0.022225-0.50377-0.037042-0.71861h0.014817l0.19262 0.54081 0.46673 1.2705h0.1778l0.46673-1.2705 0.19262-0.54081h0.01482c-0.01482 0.21484-0.04075 0.50377-0.04075 0.71861v1.3372h0.29263v-2.4299h-0.36301l-0.46672 1.3039-0.17039 0.49636h-0.01482l-0.17409-0.49636-0.47043-1.3039h-0.36671z"/>
   <path d="m12.282 21.854 0.11853-0.37042c0.0852-0.2704 0.16298-0.5371 0.24077-0.81862h0.01482c0.07779 0.28152 0.15558 0.54822 0.24077 0.81862l0.11483 0.37042zm1.0409 0.98901h0.32597l-0.82233-2.4299h-0.34819l-0.82232 2.4299h0.31485l0.23336-0.74083h0.8853z"/>
   <path d="m13.968 22.843h0.29263v-1.2705c0-0.25559-0.02222-0.51488-0.03704-0.75936h0.01482l0.263 0.50006 0.87789 1.5298h0.31856v-2.4299h-0.29263v1.2557c0 0.25559 0.02593 0.5297 0.04075 0.77417h-0.01482l-0.263-0.50377-0.88159-1.5261h-0.31856z"/>
   <path d="m16.652 21.854 0.11853-0.37042c0.0852-0.2704 0.16298-0.5371 0.24077-0.81862h0.01482c0.07779 0.28152 0.15558 0.54822 0.24077 0.81862l0.11483 0.37042zm1.0409 0.98901h0.32597l-0.82233-2.4299h-0.34819l-0.82233 2.4299h0.31486l0.23336-0.74083h0.8853z"/>
  </g>
  <g transform="rotate(-45)" aria-label="COLLIDABLE">
   <path d="m5.6413 26.306c0 0.79269 0.45561 1.2594 1.0668 1.2594 0.30745 0 0.54822-0.12965 0.73713-0.3519l-0.1741-0.18891c-0.15558 0.1741-0.32597 0.2704-0.55563 0.2704-0.46302 0-0.75565-0.38523-0.75565-0.99642 0-0.60378 0.30745-0.9816 0.77047-0.9816 0.20003 0 0.3556 0.0889 0.48525 0.22595l0.1741-0.19632c-0.14446-0.15928-0.37412-0.30004-0.66305-0.30004-0.6223 0-1.0853 0.47784-1.0853 1.2594z"/>
   <path d="m8.6717 27.565c0.60748 0 1.0372-0.48895 1.0372-1.2705 0-0.77417-0.42968-1.2483-1.0372-1.2483-0.61119 0-1.0409 0.47043-1.0409 1.2483 0 0.78158 0.42968 1.2705 1.0409 1.2705zm0-0.2704c-0.43709 0-0.72231-0.39264-0.72231-1.0001 0-0.60378 0.28522-0.9779 0.72231-0.9779 0.43339 0 0.71861 0.37412 0.71861 0.9779 0 0.60748-0.28522 1.0001-0.71861 1.0001z"/>
   <path d="m10.21 27.52h1.3705v-0.263h-1.0594v-2.1669h-0.31115z"/>
   <path d="m11.989 27.52h1.3705v-0.263h-1.0594v-2.1669h-0.31115z"/>
   <path d="m13.769 27.52h0.31115v-2.4299h-0.31115z"/>
   <path d="m14.724 27.52h0.6223c0.73343 0 1.1335-0.45191 1.1335-1.2261 0-0.77047-0.40005-1.2039-1.1483-1.2039h-0.60748zm0.31115-0.25188v-1.9262h0.27411c0.57044 0 0.85196 0.34078 0.85196 0.95197 0 0.61489-0.28152 0.9742-0.85196 0.9742z"/>
   <path d="m17.256 26.531 0.11853-0.37042c0.0852-0.2704 0.16298-0.5371 0.24077-0.81862h0.01482c0.07779 0.28152 0.15558 0.54822 0.24077 0.81862l0.11483 0.37042zm1.0409 0.98901h0.32597l-0.82233-2.4299h-0.34819l-0.82233 2.4299h0.31486l0.23336-0.74083h0.8853z"/>
   <path d="m18.942 27.52h0.77788c0.54081 0 0.91863-0.23336 0.91863-0.7112 0-0.33338-0.20743-0.52599-0.56303-0.58155v-0.01482c0.28892-0.07408 0.42598-0.28892 0.42598-0.5297 0-0.42598-0.34449-0.59267-0.83714-0.59267h-0.72231zm0.31115-1.3928v-0.79269h0.37412c0.37412 0 0.57044 0.11112 0.57044 0.37412 0 0.2704-0.1741 0.41857-0.58526 0.41857zm0 1.1483v-0.91863h0.42228c0.42598 0 0.65934 0.13705 0.65934 0.43709 0 0.32967-0.24448 0.48154-0.65934 0.48154z"/>
   <path d="m21.105 27.52h1.3705v-0.263h-1.0594v-2.1669h-0.31115z"/>
   <path d="m22.885 27.52h1.4372v-0.263h-1.1261v-0.88159h0.91863v-0.263h-0.91863v-0.76306h1.089v-0.25929h-1.4002z"/>
  </g>
  <g transform="rotate(-45)" aria-label="KILLABLE">
   <path d="m10.459 32.198h0.31115v-0.77047l0.41487-0.49266 0.72602 1.2631h0.34449l-0.87789-1.5039 0.76306-0.92604h-0.3519l-1.0112 1.2187h-0.0074v-1.2187h-0.31115z"/>
   <path d="m12.586 32.198h0.31115v-2.4299h-0.31115z"/>
   <path d="m13.541 32.198h1.3705v-0.263h-1.0594v-2.1669h-0.31115z"/>
   <path d="m15.321 32.198h1.3705v-0.263h-1.0594v-2.1669h-0.31115z"/>
   <path d="m17.419 31.209 0.11853-0.37042c0.08519-0.2704 0.16298-0.5371 0.24077-0.81862h0.01482c0.07779 0.28152 0.15558 0.54822 0.24077 0.81862l0.11483 0.37042zm1.0409 0.98901h0.32597l-0.82233-2.4299h-0.34819l-0.82233 2.4299h0.31486l0.23336-0.74083h0.8853z"/>
   <path d="m19.105 32.198h0.77788c0.54081 0 0.91863-0.23336 0.91863-0.7112 0-0.33338-0.20743-0.52599-0.56303-0.58155v-0.01482c0.28892-0.07408 0.42598-0.28892 0.42598-0.5297 0-0.42598-0.34449-0.59267-0.83714-0.59267h-0.72231zm0.31115-1.3928v-0.79269h0.37412c0.37412 0 0.57044 0.11112 0.57044 0.37412 0 0.2704-0.1741 0.41857-0.58526 0.41857zm0 1.1483v-0.91863h0.42228c0.42598 0 0.65934 0.13705 0.65934 0.43709 0 0.32967-0.24448 0.48154-0.65934 0.48154z"/>
   <path d="m21.268 32.198h1.3705v-0.263h-1.0594v-2.1669h-0.31115z"/>
   <path d="m23.048 32.198h1.4372v-0.263h-1.1261v-0.88159h0.91863v-0.263h-0.91863v-0.76306h1.089v-0.25929h-1.4002z"/>
  </g>
  <g transform="rotate(-45)" aria-label="ARMED">
   <path d="m15.44 35.886 0.11853-0.37042c0.0852-0.2704 0.16298-0.5371 0.24077-0.81862h0.01482c0.07779 0.28152 0.15558 0.54822 0.24077 0.81862l0.11483 0.37042zm1.0409 0.98901h0.32597l-0.82233-2.4299h-0.34819l-0.82233 2.4299h0.31486l0.23336-0.74083h0.8853z"/>
   <path d="m17.437 34.693h0.40746c0.37783 0 0.58526 0.11483 0.58526 0.43339 0 0.31485-0.20743 0.47043-0.58526 0.47043h-0.40746zm1.3742 2.1818-0.6186-1.0594c0.32967-0.0852 0.54451-0.31115 0.54451-0.68898 0-0.50377-0.3556-0.68157-0.84826-0.68157h-0.76306v2.4299h0.31115v-1.0261h0.43709l0.58526 1.0261z"/>
   <path d="m19.26 36.875h0.28522v-1.3372c0-0.21484-0.02222-0.50377-0.03704-0.71861h0.01482l0.19262 0.54081 0.46672 1.2705h0.1778l0.46673-1.2705 0.19262-0.54081h0.01482c-0.01482 0.21484-0.04075 0.50377-0.04075 0.71861v1.3372h0.29263v-2.4299h-0.36301l-0.46672 1.3039-0.17039 0.49636h-0.014821l-0.1741-0.49636-0.47043-1.3039h-0.36671z"/>
   <path d="m21.937 36.875h1.4372v-0.263h-1.1261v-0.88159h0.91863v-0.263h-0.91863v-0.76306h1.089v-0.25929h-1.4002z"/>
   <path d="m23.869 36.875h0.6223c0.73342 0 1.1335-0.45191 1.1335-1.2261 0-0.77047-0.40005-1.2039-1.1483-1.2039h-0.60748zm0.31115-0.25188v-1.9262h0.27411c0.57044 0 0.85196 0.34078 0.85196 0.95197 0 0.61489-0.28152 0.9742-0.85196 0.9742z"/>
  </g>
  <g transform="rotate(-45)" aria-label="HAS_ITEMS">
   <path d="m19.814 41.552h0.31115v-1.1446h1.1298v1.1446h0.30745v-2.4299h-0.30745v1.0186h-1.1298v-1.0186h-0.31115z"/>
   <path d="m22.512 40.563 0.11853-0.37042c0.0852-0.2704 0.16298-0.5371 0.24077-0.81862h0.01482c0.07779 0.28152 0.15558 0.54822 0.24077 0.81862l0.11483 0.37042zm1.0409 0.98901h0.32597l-0.82233-2.4299h-0.34819l-0.82233 2.4299h0.31486l0.23336-0.74083h0.8853z"/>
   <path d="m24.024 41.237c0.21114 0.21855 0.50747 0.3593 0.84826 0.3593 0.51118 0 0.82973-0.30745 0.82973-0.69268 0-0.3593-0.21855-0.52599-0.50006-0.64823l-0.34819-0.14817c-0.18891-0.08149-0.40376-0.17039-0.40376-0.40376 0-0.21855 0.1815-0.3556 0.45561-0.3556 0.22225 0 0.40376 0.0889 0.55192 0.22966l0.16298-0.20003c-0.17039-0.1778-0.42598-0.30004-0.7149-0.30004-0.4408 0-0.76676 0.27411-0.76676 0.64452 0 0.3556 0.2667 0.5297 0.49266 0.626l0.34819 0.15187c0.22966 0.10372 0.40746 0.1815 0.40746 0.42968 0 0.23707-0.18891 0.39635-0.50747 0.39635-0.25559 0-0.49636-0.12224-0.67046-0.30374z"/>
   <path d="m25.881 41.815v0.20373h1.7632v-0.20373z"/>
   <path d="m28.011 41.552h0.31115v-2.4299h-0.31115z"/>
   <path d="m29.473 41.552h0.30745v-2.1706h0.73713v-0.25929h-1.7817v0.25929h0.73713z"/>
   <path d="m30.933 41.552h1.4372v-0.263h-1.1261v-0.88159h0.91863v-0.263h-0.91863v-0.76306h1.089v-0.25929h-1.4002z"/>
   <path d="m32.865 41.552h0.28522v-1.3372c0-0.21484-0.02223-0.50377-0.03704-0.71861h0.01482l0.19262 0.54081 0.46672 1.2705h0.1778l0.46673-1.2705 0.19262-0.54081h0.01482c-0.01482 0.21484-0.04075 0.50377-0.04075 0.71861v1.3372h0.29263v-2.4299h-0.36301l-0.46672 1.3039-0.17039 0.49636h-0.01482l-0.1741-0.49636-0.47043-1.3039h-0.36671z"/>
   <path d="m35.368 41.237c0.21114 0.21855 0.50747 0.3593 0.84825 0.3593 0.51118 0 0.82974-0.30745 0.82974-0.69268 0-0.3593-0.21855-0.52599-0.50006-0.64823l-0.34819-0.14817c-0.18891-0.08149-0.40376-0.17039-0.40376-0.40376 0-0.21855 0.1815-0.3556 0.45561-0.3556 0.22225 0 0.40375 0.0889 0.55192 0.22966l0.16298-0.20003c-0.17039-0.1778-0.42598-0.30004-0.7149-0.30004-0.4408 0-0.76676 0.27411-0.76676 0.64452 0 0.3556 0.2667 0.5297 0.49265 0.626l0.34819 0.15187c0.22966 0.10372 0.40746 0.1815 0.40746 0.42968 0 0.23707-0.18891 0.39635-0.50747 0.39635-0.25559 0-0.49636-0.12224-0.67046-0.30374z"/>
  </g>
  <g transform="rotate(-45)" aria-label="HAS_ARMOR">
   <path d="m24.491 46.229h0.31115v-1.1446h1.1298v1.1446h0.30745v-2.4299h-0.30745v1.0186h-1.1298v-1.0186h-0.31115z"/>
   <path d="m27.189 45.24 0.11853-0.37042c0.0852-0.2704 0.16298-0.5371 0.24077-0.81862h0.01482c0.07779 0.28152 0.15558 0.54822 0.24077 0.81862l0.11483 0.37042zm1.0409 0.98901h0.32597l-0.82232-2.4299h-0.34819l-0.82233 2.4299h0.31485l0.23336-0.74083h0.8853z"/>
   <path d="m28.701 45.914c0.21114 0.21855 0.50747 0.3593 0.84826 0.3593 0.51118 0 0.82973-0.30745 0.82973-0.69268 0-0.3593-0.21855-0.52599-0.50006-0.64823l-0.34819-0.14817c-0.18891-0.08149-0.40375-0.17039-0.40375-0.40376 0-0.21855 0.1815-0.3556 0.45561-0.3556 0.22225 0 0.40376 0.0889 0.55192 0.22966l0.16298-0.20002c-0.17039-0.1778-0.42598-0.30004-0.7149-0.30004-0.4408 0-0.76676 0.27411-0.76676 0.64452 0 0.3556 0.2667 0.5297 0.49266 0.626l0.34819 0.15187c0.22966 0.10372 0.40746 0.1815 0.40746 0.42968 0 0.23707-0.18891 0.39635-0.50747 0.39635-0.25559 0-0.49636-0.12224-0.67046-0.30374z"/>
   <path d="m30.558 46.492v0.20373h1.7632v-0.20373z"/>
   <path d="m32.991 45.24 0.11853-0.37042c0.0852-0.2704 0.16298-0.5371 0.24077-0.81862h0.01482c0.07779 0.28152 0.15558 0.54822 0.24077 0.81862l0.11483 0.37042zm1.0409 0.98901h0.32597l-0.82232-2.4299h-0.34819l-0.82233 2.4299h0.31485l0.23336-0.74083h0.8853z"/>
   <path d="m34.988 44.047h0.40746c0.37782 0 0.58526 0.11483 0.58526 0.43339 0 0.31485-0.20743 0.47043-0.58526 0.47043h-0.40746zm1.3742 2.1818-0.6186-1.0594c0.32967-0.0852 0.54451-0.31115 0.54451-0.68898 0-0.50377-0.3556-0.68157-0.84826-0.68157h-0.76306v2.4299h0.31115v-1.0261h0.43709l0.58526 1.0261z"/>
   <path d="m36.812 46.229h0.28522v-1.3372c0-0.21484-0.02222-0.50377-0.03704-0.71861h0.01482l0.19262 0.54081 0.46672 1.2705h0.1778l0.46673-1.2705 0.19262-0.54081h0.01482c-0.01482 0.21484-0.04075 0.50377-0.04075 0.71861v1.3372h0.29263v-2.4299h-0.36301l-0.46672 1.3039-0.17039 0.49636h-0.01482l-0.1741-0.49636-0.47043-1.3039h-0.36671z"/>
   <path d="m40.388 46.273c0.60748 0 1.0372-0.48895 1.0372-1.2705 0-0.77417-0.42968-1.2483-1.0372-1.2483-0.61119 0-1.0409 0.47043-1.0409 1.2483 0 0.78158 0.42968 1.2705 1.0409 1.2705zm0-0.2704c-0.43709 0-0.72231-0.39264-0.72231-1.0001 0-0.60378 0.28522-0.9779 0.72231-0.9779 0.43339 0 0.71861 0.37412 0.71861 0.9779 0 0.60748-0.28522 1.0001-0.71861 1.0001z"/>
   <path d="m42.238 44.047h0.40746c0.37782 0 0.58526 0.11483 0.58526 0.43339 0 0.31485-0.20743 0.47043-0.58526 0.47043h-0.40746zm1.3742 2.1818-0.6186-1.0594c0.32967-0.0852 0.54451-0.31115 0.54451-0.68898 0-0.50377-0.3556-0.68157-0.84826-0.68157h-0.76306v2.4299h0.31115v-1.0261h0.43709l0.58526 1.0261z"/>
  </g>
  <g transform="rotate(-45)" aria-label="IMMORTAL">
   <path d="m29.168 50.906h0.31115v-2.4299h-0.31115z"/>
   <path d="m30.123 50.906h0.28522v-1.3372c0-0.21484-0.02222-0.50377-0.03704-0.71861h0.01482l0.19262 0.54081 0.46672 1.2705h0.1778l0.46672-1.2705 0.19262-0.54081h0.01482c-0.01482 0.21484-0.04075 0.50377-0.04075 0.71861v1.3372h0.29263v-2.4299h-0.36301l-0.46672 1.3039-0.17039 0.49636h-0.01482l-0.1741-0.49636-0.47043-1.3039h-0.36671z"/>
   <path d="m32.8 50.906h0.28522v-1.3372c0-0.21484-0.02223-0.50377-0.03704-0.71861h0.01482l0.19262 0.54081 0.46673 1.2705h0.1778l0.46672-1.2705 0.19262-0.54081h0.01482c-0.01482 0.21484-0.04075 0.50377-0.04075 0.71861v1.3372h0.29263v-2.4299h-0.36301l-0.46673 1.3039-0.17039 0.49636h-0.01482l-0.1741-0.49636-0.47043-1.3039h-0.36671z"/>
   <path d="m36.377 50.95c0.60748 0 1.0372-0.48895 1.0372-1.2705 0-0.77417-0.42968-1.2483-1.0372-1.2483-0.61119 0-1.0409 0.47043-1.0409 1.2483 0 0.78158 0.42968 1.2705 1.0409 1.2705zm0-0.2704c-0.43709 0-0.72231-0.39264-0.72231-1.0001 0-0.60378 0.28522-0.9779 0.72231-0.9779 0.43339 0 0.71861 0.37412 0.71861 0.9779 0 0.60748-0.28522 1.0001-0.71861 1.0001z"/>
   <path d="m38.226 48.724h0.40746c0.37782 0 0.58526 0.11483 0.58526 0.43339 0 0.31485-0.20743 0.47043-0.58526 0.47043h-0.40746zm1.3742 2.1818-0.6186-1.0594c0.32967-0.08519 0.54451-0.31115 0.54451-0.68898 0-0.50377-0.3556-0.68157-0.84826-0.68157h-0.76306v2.4299h0.31115v-1.0261h0.43709l0.58526 1.0261z"/>
   <path d="m40.484 50.906h0.30745v-2.1706h0.73713v-0.25929h-1.7817v0.25929h0.73713z"/>
   <path d="m42.104 49.917 0.11853-0.37042c0.0852-0.2704 0.16298-0.5371 0.24077-0.81862h0.01482c0.07779 0.28152 0.15558 0.54822 0.24077 0.81862l0.11483 0.37042zm1.0409 0.98901h0.32597l-0.82233-2.4299h-0.34819l-0.82232 2.4299h0.31485l0.23336-0.74083h0.8853z"/>
   <path d="m43.789 50.906h1.3705v-0.263h-1.0594v-2.1669h-0.31115z"/>
  </g>
  <g transform="rotate(-45)" aria-label="SLEEPING">
   <path d="m33.671 55.268c0.21114 0.21855 0.50747 0.3593 0.84826 0.3593 0.51118 0 0.82973-0.30745 0.82973-0.69268 0-0.3593-0.21855-0.52599-0.50006-0.64823l-0.34819-0.14817c-0.18891-0.08149-0.40376-0.17039-0.40376-0.40376 0-0.21855 0.1815-0.3556 0.45561-0.3556 0.22225 0 0.40375 0.0889 0.55192 0.22966l0.16298-0.20002c-0.17039-0.1778-0.42598-0.30004-0.7149-0.30004-0.4408 0-0.76676 0.27411-0.76676 0.64453 0 0.3556 0.2667 0.5297 0.49265 0.626l0.34819 0.15187c0.22966 0.10372 0.40746 0.1815 0.40746 0.42968 0 0.23707-0.18891 0.39635-0.50747 0.39635-0.25559 0-0.49636-0.12224-0.67046-0.30374z"/>
   <path d="m35.806 55.583h1.3705v-0.263h-1.0594v-2.1669h-0.31115z"/>
   <path d="m37.586 55.583h1.4372v-0.263h-1.1261v-0.88159h0.91863v-0.263h-0.91863v-0.76306h1.089v-0.25929h-1.4002z"/>
   <path d="m39.517 55.583h1.4372v-0.263h-1.1261v-0.88159h0.91863v-0.263h-0.91863v-0.76306h1.089v-0.25929h-1.4002z"/>
   <path d="m41.449 55.583h0.31115v-0.96308h0.43709c0.5297 0 0.89641-0.24077 0.89641-0.75195 0-0.5334-0.3593-0.7149-0.89641-0.7149h-0.74824zm0.31115-1.215v-0.96679h0.39635c0.41857 0 0.62971 0.11483 0.62971 0.46672 0 0.34449-0.20373 0.50006-0.62971 0.50006z"/>
   <path d="m43.561 55.583h0.31115v-2.4299h-0.31115z"/>
   <path d="m44.516 55.583h0.29263v-1.2705c0-0.25559-0.02222-0.51488-0.03704-0.75936h0.01482l0.263 0.50006 0.87789 1.5298h0.31856v-2.4299h-0.29263v1.2557c0 0.25559 0.02593 0.5297 0.04075 0.77417h-0.01482l-0.263-0.50377-0.88159-1.5261h-0.31856z"/>
   <path d="m46.756 54.368c0 0.79269 0.45561 1.2594 1.0927 1.2594 0.32597 0 0.59637-0.12594 0.75565-0.28152v-1.0224h-0.7964v0.25559h0.51488v0.63341c-0.09631 0.0889-0.2667 0.14446-0.4408 0.14446-0.51858 0-0.80751-0.38523-0.80751-0.99642 0-0.60378 0.31486-0.9816 0.80751-0.9816 0.24077 0 0.39264 0.09631 0.51488 0.22595l0.1778-0.19632c-0.14446-0.14817-0.36671-0.30004-0.69638-0.30004-0.65193 0-1.1224 0.47784-1.1224 1.2594z"/>
  </g>
 </g>
</svg>
