<?xml version="1.0" encoding="UTF-8"?>
<svg width="448.71" height="104.91" version="1.1" viewBox="0 0 118.72 27.757" xmlns="http://www.w3.org/2000/svg" xmlns:cc="http://creativecommons.org/ns#" xmlns:dc="http://purl.org/dc/elements/1.1/" xmlns:rdf="http://www.w3.org/1999/02/22-rdf-syntax-ns#">
 <metadata>
  <rdf:RDF>
   <cc:Work rdf:about="">
    <dc:format>image/svg+xml</dc:format>
    <dc:type rdf:resource="http://purl.org/dc/dcmitype/StillImage"/>
    <dc:title/>
   </cc:Work>
  </rdf:RDF>
 </metadata>
 <rect x=".13229" y="5.4274" width="10.232" height="10.232" fill="#1d232d" stroke="#a6aeb8" stroke-width=".26458"/>
 <path d="m5.2483 10.576v10.93" fill="none" stroke="#6f8ce9" stroke-width=".26458"/>
 <g>
  <rect x="26.799" y="15.868" width="25.894" height="2.4014" fill="#1d232d" stroke="#7b8694" stroke-width=".26458"/>
  <rect x="34.63" y="5.4274" width="10.232" height="10.232" fill="#1d232d" stroke="#a6aeb8" stroke-width=".26458"/>
  <circle cx="5.2484" cy="10.543" r=".52205" fill="#6f8ce9"/>
  <circle cx="39.746" cy="15.764" r=".52205" fill="#6f8ce9"/>
 </g>
 <g stroke-width=".26458">
  <path d="m39.746 15.797v7.276" fill="none" stroke="#6f8ce9"/>
  <path d="m39.746 15.742v-7.276" fill="none" stroke="#6f8ce9"/>
  <rect transform="rotate(-27)" x="48.008" y="48.635" width="25.894" height="2.4014" fill="#1d232d" stroke="#7b8694"/>
  <rect transform="rotate(-27)" x="55.839" y="38.195" width="10.232" height="10.232" fill="#1d232d" stroke="#a6aeb8"/>
  <path d="m73.821 10.62-4.9623-9.7391" fill="none" stroke="#6f8ce9"/>
 </g>
 <circle transform="rotate(-27)" cx="60.955" cy="43.311" r=".52205" fill="#6f8ce9"/>
 <g fill="none" stroke="#6f8ce9" stroke-width=".26458">
  <path d="m74.101 10.805 9.739-4.9622"/>
  <path d="m73.965 10.983v10.93"/>
  <path d="m110.53 18.907v4.9836"/>
  <path d="m101.57 18.198h-4.9827"/>
 </g>
 <g>
  <g transform="matrix(.090281 0 0 .089752 83.859 -27.17)" stroke-width="2.9393">
   <path d="m325.3 432.66-15 20h-110v53.207c1.6223 0.59201 3.1998 1.4111 4.7617 2.3144 5.4694 0.58839 15.435 1.6021 28.492 2.7031 5.4399-2.7854 10.825-5.9844 16.711-5.9844 8.4325 0 15.84 5.9714 23.852 8.6992 4.5221 0.20945 9.0536 0.38336 13.535 0.50782 5.8529-1.4028 11.615-4.1103 17.613-4.207 6.3732-0.10276 12.595 2.2109 18.85 3.748 12.281-0.88752 21.837-2.727 26.186-5.9883 20-15 30-75 30-75z" fill="#1d232d" fill-rule="evenodd" stroke="#7b8694"/>
   <path d="m170.26 514.9s16.025-10 25-10 16.029 9.7364 25 10c10.536 0.30963 19.459-10 30-10s19.479 9.345 30 10c8.4819 0.52807 16.503-4.863 25-5 10.137-0.16345 19.893 5.793 30 5 10.509-0.82452 19.486-10.747 30-10 7.4348 0.52838 20 10 20 10" fill="none" stroke="#6f8ce9"/>
   <rect x="340.3" y="447.66" width="15" height="14" fill="#1d232d" stroke="#7b8694" stroke-linecap="round"/>
  </g>
  <g stroke-width=".26458">
   <path d="m109.81 13.521v-12.157l-7.5075 10.012h7.5075" fill="#1d232d" fill-rule="evenodd" stroke="#7b8694"/>
   <path d="m107.78 18.575v-3.1425" fill="none" stroke="#6f8ce9"/>
   <path d="m109.77 7.4454h4.9826" fill="none" stroke="#6f8ce9"/>
  </g>
 </g>
 <g fill="#e8eaec">
  <g stroke-width="201.8">
   <g transform="matrix(0 .0026001 -.0026446 0 5.9835 20.675)">
    <g fill="#e8eaec" stroke-width="201.8">
     <path d="m486.41 221.41-364.07-208.5c-52.938-30.318-95.852-5.44-95.852 55.563v415.65c0 61.004 42.914 85.882 95.852 55.563l364.07-208.49c52.938-30.317 52.938-79.473 0-109.79z" fill="#e8eaec" stroke-width="201.8"/>
    </g>
   </g>
   <g transform="matrix(0 .0026001 -.0026446 0 40.466 22.527)">
    <g fill="#e8eaec" stroke-width="201.8">
     <path d="m486.41 221.41-364.07-208.5c-52.938-30.318-95.852-5.44-95.852 55.563v415.65c0 61.004 42.914 85.882 95.852 55.563l364.07-208.49c52.938-30.317 52.938-79.473 0-109.79z" fill="#e8eaec" stroke-width="201.8"/>
    </g>
   </g>
   <g transform="matrix(0 .0026001 -.0026446 0 74.696 21.391)">
    <g fill="#e8eaec" stroke-width="201.8">
     <path d="m486.41 221.41-364.07-208.5c-52.938-30.318-95.852-5.44-95.852 55.563v415.65c0 61.004 42.914 85.882 95.852 55.563l364.07-208.49c52.938-30.317 52.938-79.473 0-109.79z" fill="#e8eaec" stroke-width="201.8"/>
    </g>
   </g>
   <g transform="matrix(0 .0026001 -.0026446 0 111.26 22.892)">
    <g fill="#e8eaec" stroke-width="201.8">
     <path d="m486.41 221.41-364.07-208.5c-52.938-30.318-95.852-5.44-95.852 55.563v415.65c0 61.004 42.914 85.882 95.852 55.563l364.07-208.49c52.938-30.317 52.938-79.473 0-109.79z" fill="#e8eaec" stroke-width="201.8"/>
    </g>
   </g>
   <g transform="matrix(0 -.0026001 -.0026446 0 40.466 9.4122)">
    <g fill="#e8eaec" stroke-width="201.8">
     <path d="m486.41 221.41-364.07-208.5c-52.938-30.318-95.852-5.44-95.852 55.563v415.65c0 61.004 42.914 85.882 95.852 55.563l364.07-208.49c52.938-30.317 52.938-79.473 0-109.79z" fill="#e8eaec" stroke-width="201.8"/>
    </g>
   </g>
   <g transform="matrix(0 -.0026001 -.0026446 0 108.51 16.027)">
    <g fill="#e8eaec" stroke-width="201.8">
     <path d="m486.41 221.41-364.07-208.5c-52.938-30.318-95.852-5.44-95.852 55.563v415.65c0 61.004 42.914 85.882 95.852 55.563l364.07-208.49c52.938-30.317 52.938-79.473 0-109.79z" fill="#e8eaec" stroke-width="201.8"/>
    </g>
   </g>
   <g transform="matrix(.0026001 0 0 -.0026446 114.69 8.1702)">
    <g fill="#e8eaec" stroke-width="201.8">
     <path d="m486.41 221.41-364.07-208.5c-52.938-30.318-95.852-5.44-95.852 55.563v415.65c0 61.004 42.914 85.882 95.852 55.563l364.07-208.49c52.938-30.317 52.938-79.473 0-109.79z" fill="#e8eaec" stroke-width="201.8"/>
    </g>
   </g>
   <g transform="matrix(-.0026001 0 0 -.0026446 97.074 18.908)">
    <g fill="#e8eaec" stroke-width="201.8">
     <path d="m486.41 221.41-364.07-208.5c-52.938-30.318-95.852-5.44-95.852 55.563v415.65c0 61.004 42.914 85.882 95.852 55.563l364.07-208.49c52.938-30.317 52.938-79.473 0-109.79z" fill="#e8eaec" stroke-width="201.8"/>
    </g>
   </g>
   <g transform="matrix(-.00099501 -.0024022 -.0024433 .001012 69.746 .9935)">
    <g fill="#e8eaec" stroke-width="201.8">
     <path d="m486.41 221.41-364.07-208.5c-52.938-30.318-95.852-5.44-95.852 55.563v415.65c0 61.004 42.914 85.882 95.852 55.563l364.07-208.49c52.938-30.317 52.938-79.473 0-109.79z" fill="#e8eaec" stroke-width="201.8"/>
    </g>
   </g>
   <g transform="matrix(-.0022495 -.001304 -.0013263 .002288 84.914 5.3796)">
    <g fill="#e8eaec" stroke-width="201.8">
     <path d="m486.41 221.41-364.07-208.5c-52.938-30.318-95.852-5.44-95.852 55.563v415.65c0 61.004 42.914 85.882 95.852 55.563l364.07-208.49c52.938-30.317 52.938-79.473 0-109.79z" fill="#e8eaec" stroke-width="201.8"/>
    </g>
   </g>
  </g>
  <g stroke-linecap="round" stroke-width=".26458">
   <g aria-label="1 force">
    <path d="m1.272 27.586h1.143v-0.2159h-0.4191v-1.8097h-0.20002c-0.11112 0.066674-0.24447 0.11747-0.42862 0.14922v0.16827h0.3683v1.4922h-0.46355z"/>
    <path d="m4.2478 25.339c-0.069849-0.02858-0.16192-0.0508-0.25717-0.0508-0.30797 0-0.45085 0.19685-0.45085 0.51117v0.24447l-0.20955 0.01587v0.19685h0.20955v1.3303h0.26035v-1.3303h0.32702v-0.21272h-0.32702v-0.24447c0-0.19685 0.069849-0.29845 0.2159-0.29845 0.05715 0 0.11747 0.0127 0.17462 0.0381z"/>
    <path d="m4.2802 26.818c0 0.51117 0.33655 0.80644 0.71437 0.80644 0.37782 0 0.71437-0.29527 0.71437-0.80644 0-0.51752-0.33655-0.81279-0.71437-0.81279-0.37782 0-0.71437 0.29527-0.71437 0.81279zm0.26987 0c0-0.3556 0.18097-0.5969 0.4445-0.5969 0.2667 0 0.4445 0.2413 0.4445 0.5969 0 0.35242-0.1778 0.59054-0.4445 0.59054-0.26352 0-0.4445-0.23812-0.4445-0.59054z"/>
    <path d="m6.1184 27.586h0.26035v-0.99059c0.10477-0.26035 0.26035-0.3556 0.39052-0.3556 0.063499 0 0.098424 0.0095 0.14922 0.0254l0.0508-0.2286c-0.0508-0.02222-0.098424-0.03175-0.1651-0.03175-0.17462 0-0.33337 0.12382-0.43815 0.3175h-0.00952l-0.022225-0.2794h-0.2159z"/>
    <path d="m7.0769 26.818c0 0.51117 0.31432 0.80644 0.72389 0.80644 0.18415 0 0.36195-0.0762 0.50165-0.20002l-0.11747-0.17145c-0.092074 0.08255-0.2159 0.15557-0.36195 0.15557-0.28257 0-0.47625-0.23812-0.47625-0.59054 0-0.3556 0.2032-0.5969 0.4826-0.5969 0.12382 0 0.21907 0.05715 0.31115 0.13652l0.13017-0.16827c-0.10477-0.09842-0.24765-0.18415-0.45085-0.18415-0.39687 0-0.74294 0.29527-0.74294 0.81279z"/>
    <path d="m8.4535 26.818c0 0.50482 0.32702 0.80644 0.73977 0.80644 0.20955 0 0.37465-0.07302 0.508-0.15875l-0.092074-0.17145c-0.1143 0.07302-0.23812 0.12065-0.38417 0.12065-0.29527 0-0.4953-0.20955-0.51435-0.54292h1.0414c0.00635-0.0381 0.00952-0.0889 0.00952-0.14287 0-0.44132-0.22225-0.72389-0.61594-0.72389-0.35242 0-0.69214 0.30797-0.69214 0.81279zm0.254-0.11747c0.03175-0.31115 0.2286-0.48895 0.4445-0.48895 0.2413 0 0.381 0.17462 0.381 0.48895z"/>
   </g>
   <g aria-label="2 forces">
    <path d="m35.544 27.586h1.3081v-0.22542h-0.58737c-0.10477 0-0.2286 0.0095-0.33972 0.01905 0.47942-0.50164 0.82549-0.87947 0.82549-1.2605 0-0.35877-0.23177-0.59689-0.60642-0.59689-0.26352 0-0.4445 0.12382-0.61277 0.30797l0.14922 0.14922c0.11747-0.13652 0.26352-0.24447 0.4318-0.24447 0.25717 0 0.38417 0.1651 0.38417 0.39687 0 0.32702-0.3429 0.69214-0.95249 1.2986z"/>
    <path d="m38.643 25.339c-0.06985-0.02858-0.16192-0.0508-0.25717-0.0508-0.30797 0-0.45085 0.19685-0.45085 0.51117v0.24447l-0.20955 0.01587v0.19685h0.20955v1.3303h0.26035v-1.3303h0.32702v-0.21272h-0.32702v-0.24447c0-0.19685 0.06985-0.29845 0.2159-0.29845 0.05715 0 0.11747 0.0127 0.17462 0.0381z"/>
    <path d="m38.676 26.818c0 0.51117 0.33655 0.80644 0.71437 0.80644 0.37782 0 0.71437-0.29527 0.71437-0.80644 0-0.51752-0.33655-0.81279-0.71437-0.81279-0.37782 0-0.71437 0.29527-0.71437 0.81279zm0.26987 0c0-0.3556 0.18097-0.5969 0.4445-0.5969 0.2667 0 0.4445 0.2413 0.4445 0.5969 0 0.35242-0.1778 0.59054-0.4445 0.59054-0.26352 0-0.4445-0.23812-0.4445-0.59054z"/>
    <path d="m40.514 27.586h0.26035v-0.99059c0.10477-0.26035 0.26035-0.3556 0.39052-0.3556 0.0635 0 0.09842 0.0095 0.14922 0.0254l0.0508-0.2286c-0.0508-0.02222-0.09842-0.03175-0.1651-0.03175-0.17462 0-0.33337 0.12382-0.43815 0.3175h-0.0095l-0.02222-0.2794h-0.2159z"/>
    <path d="m41.472 26.818c0 0.51117 0.31432 0.80644 0.72389 0.80644 0.18415 0 0.36195-0.0762 0.50164-0.20002l-0.11747-0.17145c-0.09207 0.08255-0.2159 0.15557-0.36195 0.15557-0.28257 0-0.47625-0.23812-0.47625-0.59054 0-0.3556 0.2032-0.5969 0.4826-0.5969 0.12382 0 0.21907 0.05715 0.31115 0.13652l0.13017-0.16827c-0.10477-0.09842-0.24765-0.18415-0.45085-0.18415-0.39687 0-0.74294 0.29527-0.74294 0.81279z"/>
    <path d="m42.849 26.818c0 0.50482 0.32702 0.80644 0.73977 0.80644 0.20955 0 0.37465-0.07302 0.508-0.15875l-0.09207-0.17145c-0.1143 0.07302-0.23812 0.12065-0.38417 0.12065-0.29527 0-0.4953-0.20955-0.51435-0.54292h1.0414c0.0063-0.0381 0.0095-0.0889 0.0095-0.14287 0-0.44132-0.22225-0.72389-0.61594-0.72389-0.35242 0-0.69214 0.30797-0.69214 0.81279zm0.254-0.11747c0.03175-0.31115 0.2286-0.48895 0.4445-0.48895 0.2413 0 0.381 0.17462 0.381 0.48895z"/>
    <path d="m44.367 27.412c0.14605 0.12065 0.3556 0.21272 0.57467 0.21272 0.36512 0 0.56514-0.20955 0.56514-0.46037 0-0.2921-0.24765-0.38417-0.4699-0.46672-0.17462-0.06668-0.3429-0.12382-0.3429-0.2667 0-0.11747 0.0889-0.22225 0.28257-0.22225 0.13652 0 0.24765 0.05715 0.35242 0.13652l0.12382-0.1651c-0.11747-0.09525-0.28575-0.17462-0.47942-0.17462-0.33337 0-0.53022 0.1905-0.53022 0.43815 0 0.26035 0.2413 0.36512 0.46037 0.4445 0.16827 0.0635 0.35242 0.13335 0.35242 0.2921 0 0.13335-0.1016 0.2413-0.3048 0.2413-0.18415 0-0.32067-0.0762-0.45402-0.18415z"/>
   </g>
   <g aria-label="3 forces">
    <path d="m69.895 27.339c0.13652 0.14922 0.3429 0.28575 0.66674 0.28575 0.37147 0 0.66674-0.21907 0.66674-0.57784 0-0.2794-0.19367-0.4572-0.43814-0.51434v-0.0127c0.21907-0.08255 0.3683-0.23812 0.3683-0.4826 0-0.32702-0.254-0.51434-0.60642-0.51434-0.23812 0-0.42545 0.10795-0.58102 0.254l0.1397 0.1651c0.12065-0.12065 0.26352-0.20637 0.4318-0.20637 0.2159 0 0.34925 0.12382 0.34925 0.32067 0 0.21272-0.14287 0.37782-0.57467 0.37782v0.20002c0.4826 0 0.64769 0.16192 0.64769 0.40322 0 0.22542-0.17462 0.37147-0.4191 0.37147-0.23812 0-0.39687-0.1143-0.51752-0.2413z"/>
    <path d="m73.039 25.339c-0.06985-0.02858-0.16192-0.0508-0.25717-0.0508-0.30797 0-0.45085 0.19685-0.45085 0.51117v0.24447l-0.20955 0.01587v0.19685h0.20955v1.3303h0.26035v-1.3303h0.32702v-0.21272h-0.32702v-0.24447c0-0.19685 0.06985-0.29845 0.2159-0.29845 0.05715 0 0.11747 0.0127 0.17462 0.0381z"/>
    <path d="m73.071 26.818c0 0.51117 0.33655 0.80644 0.71437 0.80644 0.37782 0 0.71437-0.29527 0.71437-0.80644 0-0.51752-0.33655-0.81279-0.71437-0.81279-0.37782 0-0.71437 0.29527-0.71437 0.81279zm0.26987 0c0-0.3556 0.18097-0.5969 0.4445-0.5969 0.2667 0 0.4445 0.2413 0.4445 0.5969 0 0.35242-0.1778 0.59054-0.4445 0.59054-0.26352 0-0.4445-0.23812-0.4445-0.59054z"/>
    <path d="m74.909 27.586h0.26035v-0.99059c0.10477-0.26035 0.26035-0.3556 0.39052-0.3556 0.0635 0 0.09842 0.0095 0.14922 0.0254l0.0508-0.2286c-0.0508-0.02222-0.09843-0.03175-0.1651-0.03175-0.17462 0-0.33337 0.12382-0.43815 0.3175h-0.0095l-0.02222-0.2794h-0.21593z"/>
    <path d="m75.868 26.818c0 0.51117 0.31432 0.80644 0.72389 0.80644 0.18415 0 0.36195-0.0762 0.50165-0.20002l-0.11747-0.17145c-0.09207 0.08255-0.2159 0.15557-0.36195 0.15557-0.28257 0-0.47624-0.23812-0.47624-0.59054 0-0.3556 0.2032-0.5969 0.4826-0.5969 0.12382 0 0.21907 0.05715 0.31115 0.13652l0.13017-0.16827c-0.10477-0.09842-0.24765-0.18415-0.45085-0.18415-0.39687 0-0.74294 0.29527-0.74294 0.81279z"/>
    <path d="m77.244 26.818c0 0.50482 0.32702 0.80644 0.73977 0.80644 0.20955 0 0.37465-0.07302 0.508-0.15875l-0.09207-0.17145c-0.1143 0.07302-0.23812 0.12065-0.38417 0.12065-0.29527 0-0.4953-0.20955-0.51434-0.54292h1.0414c0.0063-0.0381 0.0095-0.0889 0.0095-0.14287 0-0.44132-0.22225-0.72389-0.61594-0.72389-0.35242 0-0.69214 0.30797-0.69214 0.81279zm0.254-0.11747c0.03175-0.31115 0.2286-0.48895 0.4445-0.48895 0.2413 0 0.381 0.17462 0.381 0.48895z"/>
    <path d="m78.762 27.412c0.14605 0.12065 0.3556 0.21272 0.57467 0.21272 0.36512 0 0.56514-0.20955 0.56514-0.46037 0-0.2921-0.24765-0.38417-0.4699-0.46672-0.17462-0.06668-0.3429-0.12382-0.3429-0.2667 0-0.11747 0.0889-0.22225 0.28257-0.22225 0.13652 0 0.24765 0.05715 0.35242 0.13652l0.12382-0.1651c-0.11747-0.09525-0.28575-0.17462-0.47942-0.17462-0.33337 0-0.53022 0.1905-0.53022 0.43815 0 0.26035 0.2413 0.36512 0.46037 0.4445 0.16827 0.0635 0.35242 0.13335 0.35242 0.2921 0 0.13335-0.1016 0.2413-0.3048 0.2413-0.18415 0-0.32067-0.0762-0.45402-0.18415z"/>
   </g>
   <g aria-label="4 forces">
    <path d="m104.54 26.818 0.47307-0.69214c0.0571-0.09842 0.1143-0.18732 0.16509-0.28575h0.0127c-6e-3 0.10795-0.0159 0.28257-0.0159 0.39052v0.58737zm1.1589 0h-0.27622v-1.2573h-0.2921l-0.86677 1.2954v0.17145h0.91122v0.55879h0.24765v-0.55879h0.27622z"/>
    <path d="m107.43 25.339c-0.0699-0.02858-0.16192-0.0508-0.25717-0.0508-0.30797 0-0.45085 0.19685-0.45085 0.51117v0.24447l-0.20954 0.01587v0.19685h0.20954v1.3303h0.26035v-1.3303h0.32702v-0.21272h-0.32702v-0.24447c0-0.19685 0.0699-0.29845 0.2159-0.29845 0.0571 0 0.11747 0.0127 0.17462 0.0381z"/>
    <path d="m107.47 26.818c0 0.51117 0.33654 0.80644 0.71436 0.80644 0.37783 0 0.71437-0.29527 0.71437-0.80644 0-0.51752-0.33654-0.81279-0.71437-0.81279-0.37782 0-0.71436 0.29527-0.71436 0.81279zm0.26987 0c0-0.3556 0.18097-0.5969 0.44449-0.5969 0.2667 0 0.4445 0.2413 0.4445 0.5969 0 0.35242-0.1778 0.59054-0.4445 0.59054-0.26352 0-0.44449-0.23812-0.44449-0.59054z"/>
    <path d="m109.3 27.586h0.26035v-0.99059c0.10478-0.26035 0.26035-0.3556 0.39052-0.3556 0.0635 0 0.0984 0.0095 0.14923 0.0254l0.0508-0.2286c-0.0508-0.02222-0.0984-0.03175-0.1651-0.03175-0.17463 0-0.33337 0.12382-0.43815 0.3175h-0.01l-0.0222-0.2794h-0.2159z"/>
    <path d="m110.26 26.818c0 0.51117 0.31432 0.80644 0.72389 0.80644 0.18415 0 0.36195-0.0762 0.50165-0.20002l-0.11748-0.17145c-0.0921 0.08255-0.2159 0.15557-0.36194 0.15557-0.28258 0-0.47625-0.23812-0.47625-0.59054 0-0.3556 0.2032-0.5969 0.4826-0.5969 0.12382 0 0.21907 0.05715 0.31114 0.13652l0.13018-0.16827c-0.10478-0.09842-0.24765-0.18415-0.45085-0.18415-0.39687 0-0.74294 0.29527-0.74294 0.81279z"/>
    <path d="m111.64 26.818c0 0.50482 0.32702 0.80644 0.73976 0.80644 0.20955 0 0.37465-0.07302 0.508-0.15875l-0.0921-0.17145c-0.11429 0.07302-0.23812 0.12065-0.38417 0.12065-0.29527 0-0.49529-0.20955-0.51434-0.54292h1.0414c6e-3 -0.0381 0.01-0.0889 0.01-0.14287 0-0.44132-0.22225-0.72389-0.61594-0.72389-0.35242 0-0.69214 0.30797-0.69214 0.81279zm0.25399-0.11747c0.0318-0.31115 0.2286-0.48895 0.4445-0.48895 0.2413 0 0.38099 0.17462 0.38099 0.48895z"/>
    <path d="m113.16 27.412c0.14605 0.12065 0.3556 0.21272 0.57467 0.21272 0.36512 0 0.56514-0.20955 0.56514-0.46037 0-0.2921-0.24764-0.38417-0.46989-0.46672-0.17463-0.06668-0.3429-0.12382-0.3429-0.2667 0-0.11747 0.0889-0.22225 0.28257-0.22225 0.13653 0 0.24765 0.05715 0.35242 0.13652l0.12383-0.1651c-0.11748-0.09525-0.28575-0.17462-0.47942-0.17462-0.33337 0-0.53022 0.1905-0.53022 0.43815 0 0.26035 0.2413 0.36512 0.46037 0.4445 0.16827 0.0635 0.35242 0.13335 0.35242 0.2921 0 0.13335-0.1016 0.2413-0.3048 0.2413-0.18414 0-0.32067-0.0762-0.45402-0.18415z"/>
   </g>
  </g>
 </g>
</svg>
