<?xml version="1.0" encoding="UTF-8"?>
<svg width="261.43" height="106.73" version="1.1" viewBox="0 0 69.17 28.239" xmlns="http://www.w3.org/2000/svg" xmlns:cc="http://creativecommons.org/ns#" xmlns:dc="http://purl.org/dc/elements/1.1/" xmlns:rdf="http://www.w3.org/1999/02/22-rdf-syntax-ns#">
 <metadata>
  <rdf:RDF>
   <cc:Work rdf:about="">
    <dc:format>image/svg+xml</dc:format>
    <dc:type rdf:resource="http://purl.org/dc/dcmitype/StillImage"/>
    <dc:title/>
   </cc:Work>
  </rdf:RDF>
 </metadata>
 <g fill="#1d232d" stroke-linecap="round" stroke-width=".13229">
  <g stroke="#7b8694">
   <rect x=".95665" y="24.964" width="1.7098" height="2.1372"/>
   <rect x="2.6664" y="22.4" width="2.1372" height="4.7019"/>
   <rect x="4.8036" y="20.263" width="2.1372" height="6.8391"/>
   <rect x="6.941" y="18.022" width="2.1367" height="9.0797"/>
   <rect x="9.0778" y="16.082" width="2.1376" height="11.019"/>
   <rect x="11.216" y="14.479" width="2.1364" height="12.622"/>
   <rect x="13.352" y="13.034" width="2.1373" height="14.068"/>
   <rect x="15.49" y="11.747" width="2.1373" height="15.355"/>
   <rect x="19.764" y="9.5764" width="2.1372" height="17.525"/>
   <rect x="21.901" y="8.7593" width="2.1373" height="18.342"/>
   <rect x="24.038" y="8.0082" width="2.1375" height="19.094"/>
   <rect x="26.176" y="7.5337" width="2.1374" height="19.568"/>
   <rect x="28.313" y="7.255" width="2.1377" height="19.847"/>
  </g>
  <rect x="30.45" y="7.2005" width="2.1376" height="19.901" stroke="#a6aeb8"/>
  <g stroke="#7b8694">
   <rect x="32.588" y="7.1723" width="2.1366" height="19.929"/>
   <rect x="34.725" y="7.3725" width="2.1371" height="19.729"/>
   <rect x="36.862" y="7.626" width="2.1376" height="19.476"/>
   <rect x="38.999" y="8.1869" width="2.1379" height="18.915"/>
   <rect x="41.136" y="8.8684" width="2.1375" height="18.233"/>
   <rect x="43.273" y="9.7632" width="2.1377" height="17.339"/>
   <rect x="45.411" y="10.859" width="2.1372" height="16.243"/>
   <rect x="47.548" y="12.141" width="2.1372" height="14.96"/>
   <rect x="49.685" y="13.557" width="2.1376" height="13.545"/>
   <rect x="51.822" y="15.133" width="2.1372" height="11.968"/>
   <rect x="53.96" y="17.044" width="2.1363" height="10.057"/>
   <rect x="56.097" y="19.047" width="2.1376" height="8.055"/>
   <rect x="58.234" y="21.184" width="2.1377" height="5.9179"/>
   <rect x="60.371" y="23.311" width="2.1378" height="3.7909"/>
   <rect x="62.51" y="25.708" width="2.1337" height="1.3922"/>
   <rect x="17.627" y="10.478" width="2.1373" height="16.624"/>
  </g>
 </g>
 <g>
  <path d="m0.91196 27.182s5.0731-6.0731 7.9611-8.7626c1.9399-1.8065 4.0214-3.4823 6.2513-4.9156 2.6804-1.7228 5.4825-3.3449 8.4954-4.3813 2.7251-0.93742 5.6137-1.5949 8.4955-1.6029 2.9693-0.0085 5.9587 0.62542 8.7625 1.6029 2.859 0.99663 5.5008 2.5867 8.0145 4.2744 2.5938 1.7414 4.9379 3.8433 7.2131 5.9842 2.5785 2.4263 7.2665 7.7474 7.2665 7.7474" fill="none" stroke="#6f8ce9" stroke-width=".26458"/>
  <path d="m67.7 27.236h-66.681v-25.486" fill="none" stroke="#a6aeb8" stroke-width=".52917"/>
  <g fill="#e8eaec" aria-label="x">
   <path d="m66.942 23.348-0.36195 0.53658-0.381-0.53658h-0.24765l0.49848 0.71438-0.508 0.7366h0.25718l0.37782-0.56198 0.40005 0.56198h0.26035l-0.5334-0.74295 0.4699-0.70802z" fill="#e8eaec" stroke-width=".42744px"/>
  </g>
  <g fill="#e8eaec" aria-label="y">
   <path d="m3.1013 0.69678 0.59055 1.4446-0.047625 0.10478c-0.0254 0.060325-0.053975 0.12065-0.098425 0.16828-0.060325 0.066675-0.13652 0.09525-0.2032 0.09525-0.10795 0-0.16192-0.073025-0.17145-0.085725-0.00953-0.015875-0.00635-0.0381-0.0254-0.053975l-0.11748 0.20638c0.08255 0.079375 0.19368 0.12065 0.31432 0.12065 0.13018 0 0.2667-0.047625 0.36195-0.15558 0.0635-0.073025 0.09525-0.14922 0.127-0.23178l0.45085-1.197c0.053975-0.13653 0.1016-0.27623 0.14605-0.4191h-0.23812c-0.0254 0.13335-0.066675 0.26035-0.11112 0.38735l-0.27622 0.77788-0.42545-1.07c-0.00317-0.009525-0.00317-0.015875-0.00317-0.0254 0-0.022225 0.015875-0.0381 0.0127-0.066675z" fill="#e8eaec" stroke-width=".42744px"/>
  </g>
 </g>
 <g fill="#6f8ce9">
  <circle cx="58.145" cy="21.452" r=".42744"/>
  <circle cx="60.283" cy="23.646" r=".42744"/>
  <circle cx="4.7151" cy="22.734" r=".42744"/>
  <circle cx="6.8523" cy="20.517" r=".42744"/>
  <circle cx="8.9894" cy="18.366" r=".42744"/>
  <circle cx="13.264" cy="14.764" r=".42744"/>
  <circle cx="17.538" cy="12.048" r=".42744"/>
  <circle cx="21.813" cy="9.8574" r=".42744"/>
  <circle cx="26.087" cy="8.2946" r=".42744"/>
  <circle cx="30.362" cy="7.5847" r=".42744"/>
  <circle cx="34.636" cy="7.6792" r=".42744"/>
  <circle cx="38.91" cy="8.5529" r=".42744"/>
  <circle cx="43.185" cy="10.062" r=".42744"/>
  <circle cx="47.459" cy="12.476" r=".42744"/>
  <circle cx="51.734" cy="15.486" r=".42744"/>
  <circle cx="56.008" cy="19.315" r=".42744"/>
  <circle cx="53.871" cy="17.291" r=".42744"/>
  <circle cx="49.596" cy="13.871" r=".42744"/>
  <circle cx="45.322" cy="11.193" r=".42744"/>
  <circle cx="41.048" cy="9.1503" r=".42744"/>
  <circle cx="36.773" cy="8.0121" r=".42744"/>
  <circle cx="32.499" cy="7.4783" r=".42744"/>
  <circle cx="28.224" cy="7.8303" r=".42744"/>
  <circle cx="23.95" cy="9.056" r=".42744"/>
  <circle cx="19.676" cy="10.766" r=".42744"/>
  <circle cx="15.401" cy="13.33" r=".42744"/>
  <circle cx="11.127" cy="16.389" r=".42744"/>
  <circle cx="2.5777" cy="25.259" r=".42744"/>
  <circle cx="62.42" cy="26.019" r=".42744"/>
 </g>
 <g transform="matrix(0 -.0035871 .0036486 0 -1.4927e-7 1.8872)" fill="#e8eaec" stroke-width="201.8">
  <g fill="#e8eaec" stroke-width="201.8">
   <path d="m486.41 221.41-364.07-208.5c-52.938-30.318-95.852-5.44-95.852 55.563v415.65c0 61.004 42.914 85.882 95.852 55.563l364.07-208.49c52.938-30.317 52.938-79.473 0-109.79z" fill="#e8eaec" stroke-width="201.8"/>
  </g>
 </g>
 <g transform="matrix(-.0017936 -.0031066 .0031597 -.0018243 67.542 28.398)" fill="#e8eaec" stroke-width="201.8">
  <g fill="#e8eaec" stroke-width="201.8">
   <path d="m486.41 221.41-364.07-208.5c-52.938-30.318-95.852-5.44-95.852 55.563v415.65c0 61.004 42.914 85.882 95.852 55.563l364.07-208.49c52.938-30.317 52.938-79.473 0-109.79z" fill="#e8eaec" stroke-width="201.8"/>
  </g>
 </g>
</svg>
