<?xml version="1.0" encoding="UTF-8"?>
<svg width="129.7" height="73.428" version="1.1" viewBox="0 0 34.317 19.428" xmlns="http://www.w3.org/2000/svg" xmlns:cc="http://creativecommons.org/ns#" xmlns:dc="http://purl.org/dc/elements/1.1/" xmlns:rdf="http://www.w3.org/1999/02/22-rdf-syntax-ns#">
 <metadata>
  <rdf:RDF>
   <cc:Work rdf:about="">
    <dc:format>image/svg+xml</dc:format>
    <dc:type rdf:resource="http://purl.org/dc/dcmitype/StillImage"/>
    <dc:title/>
   </cc:Work>
  </rdf:RDF>
 </metadata>
 <g fill="#7b8694" shape-rendering="auto">
  <path d="m17.157 10.56h-0.03204l0.0026 0.10025h0.03205l0.26771 0.0071 0.0026-0.10078-0.26977-0.0066h-0.0026zm-0.33952 0.0082-0.29816 0.02275 0.0071 0.10076 0.2961-0.02275h0.0026l-0.0026-0.10076h-0.0052zm0.91624 0.01799-0.0071 0.10025 0.09766 0.0077 0.2 0.0254 0.01243-0.09975-0.20206-0.02593h-0.0026zm-1.5173 0.04133-0.06149 0.0077h-0.0026l-0.23617 0.04239 0.01746 0.09922 0.23358-0.04186h0.0026l0.05943-0.0071zm2.1214 0.03979-0.01746 0.09872 0.14883 0.02686 0.1447 0.03307 0.02222-0.09819-0.14677-0.03358zm-2.7192 0.07443-0.108 0.0254h-0.0026l-0.18399 0.05218 0.02741 0.09716 0.1819-0.05167 0.10748-0.02487zm3.313 0.06096-0.02738 0.09665 0.185 0.0527h0.0026l0.09872 0.03358 0.03254-0.0956-0.10128-0.0341h-0.0026zm-3.8985 0.10853-0.14211 0.04805h-0.0026l-0.14108 0.05583 0.03667 0.09353 0.14161-0.05583 0.14005-0.04702zm4.4773 0.08215-0.0372 0.09303 0.21344 0.08425h0.0026l0.06199 0.02842 0.04135-0.092-0.06408-0.02895zm-5.0442 0.14058-0.16743 0.07596-0.10544 0.05427 0.04601 0.0894 0.10282-0.05273h0.0026l0.16537-0.0744zm5.6023 0.10179-0.04598 0.0894 0.23202 0.11888 0.03204 0.01852 0.05064-0.08734-0.03461-0.01958zm-6.146 0.17312-0.1845 0.10544-0.07543 0.04858 0.05427 0.08475 0.07337-0.04702 0.18294-0.10491zm6.6793 0.11991-0.05374 0.08525 0.24236 0.15555h0.0026l0.0077 5e-3 0.05839-0.08165-0.0098-0.0066zm-7.1955 0.20257-0.19482 0.13848-0.04961 0.03876 0.06252 0.07959 0.04755-0.03773 0.19482-0.13848zm7.6979 0.13848-0.03876 0.0553-0.02011 0.0254 0.23514 0.185 0.06199-0.07956-0.23667-0.18606h-0.0026zm-8.1831 0.23101-0.19844 0.17209-0.02789 0.02686 0.06974 0.07287 0.02593-0.0254h0.0026l0.19741-0.17106zm8.6534 0.15502-0.06511 0.07649 0.01693 0.01508h0.0026l0.19844 0.18966 0.06977-0.07287-0.2005-0.19122h-0.0026zm-9.1009 0.25633-0.19844 0.20826-0.0098 0.01138 0.07596 0.06615 0.0082-0.0098v-0.0026l0.19691-0.20619zm9.5334 0.17259-0.07184 0.06977 0.03204 0.03358v0.0026l0.16434 0.18915 0.07596-0.06565-0.16537-0.19119h-0.0026zm-9.9427 0.27906-0.18656 0.2377 0.07959 0.06202 0.18653-0.2377zm10.334 0.18759-0.07856 0.06202 0.04445 0.0558 0.0026 0.0026 0.13073 0.18397 0.08215-0.0584-0.13229-0.18603zm-10.698 0.29766-0.01296 0.01852-0.15089 0.23564 0.08475 0.05427 0.14986-0.23308 0.0026-0.0026 0.01138-0.01641zm11.045 0.20257-0.08372 0.05374 0.05374 0.08424 0.09972 0.17312 0.08734-0.05014-0.10075-0.17518h-0.0026zm-11.364 0.31679-0.02487 0.04339v0.0026l-0.11523 0.22429 0.08991 0.04548 0.11369-0.2217v-0.0026l0.02381-0.04136zm11.665 0.21291-0.08993 0.04598 0.05789 0.11266 0.0026 0.0026 0.06977 0.15555 0.09197-0.04135-0.07131-0.15812zm-11.934 0.3328-0.03307 0.0744-0.08112 0.20516 0.09353 0.0372 0.08009-0.20307 0.0336-0.0739zm12.185 0.22273-0.09456 0.03667 0.05943 0.15142 0.04392 0.13023 0.09562-0.03257-0.04495-0.13229zm-12.402 0.34624-0.03823 0.1116-0.05014 0.17778 0.09663 0.02739 0.04961-0.17518 0.03773-0.1111zm12.598 0.22995-0.09716 0.02739 0.0548 0.19225v0.0026l0.0217 0.09509 0.09819-0.02275-0.02223-0.09716v-0.0026zm-12.762 0.35658-0.03723 0.15762-0.02487 0.13848 0.09922 0.01799 0.02434-0.13642 0.0367-0.15711zm12.905 0.23564-0.09872 0.01746 0.04342 0.24443v0.0026l0.0061 0.04858 0.09975-0.01296-0.0061-0.05117v-0.0026zm-13.015 0.36381-0.02685 0.21291v0.0026l-0.0066 0.08731 0.10025 0.0071 0.0061-0.08422 0.02686-0.21344zm13.103 0.23874-0.10025 0.0077 0.02275 0.30129 0.10025-0.0071zm-13.158 0.36796-0.0071 0.28112v0.0217l0.10076-0.0026v-0.01905l0.0071-0.27856zm13.189 0.23821-0.10078 0.0026v0.04032l-0.0071 0.29972 0.10078 0.0026 0.0071-0.30232h-0.05014 0.05014zm-13.087 0.3659-0.10076 0.0026v0.01402l0.02223 0.28782 0.10025-0.0071-0.0217-0.28782zm12.958 0.278-0.0048 0.06305-0.02945 0.23411 0.09975 0.01296 0.02995-0.23461 0.0053-0.06615zm-12.9 0.31835-0.10025 0.01297 0.0093 0.07234v0.0026l0.0403 0.22582 0.09922-0.01799-0.03979-0.22323v-0.0026zm12.817 0.27491-0.02011 0.11526-0.04083 0.17775 0.09819 0.02275 0.04083-0.17775v-0.0026l0.02117-0.11785zm-12.706 0.3137-0.09819 0.02276 0.02739 0.11782v0.0026l0.04961 0.17415 0.09663-0.02738-0.04908-0.17158v-0.0026zm12.569 0.26975-0.04289 0.15452-0.04445 0.13126 0.09509 0.03254 0.04442-0.13176 0.04495-0.15711zm-12.404 0.30595-0.09456 0.03254 0.05114 0.15246h0.10853l-0.01455-0.0367z" color="#000000" color-rendering="auto" image-rendering="auto" solid-color="#000000" style="isolation:auto;mix-blend-mode:normal;text-decoration-color:#000000;text-decoration-line:none;text-decoration-style:solid;text-indent:0;text-transform:none;white-space:normal"/>
  <path d="m17.157 7.5998-0.04601 0.0027 0.0037 0.14571 0.04239-0.0027h0.0052l0.38757 0.0098 0.0037-0.14571-0.39119-0.0098h-0.0026zm-0.49197 0.01244-0.43202 0.03307 0.01085 0.14521 0.42892-0.03257h0.0037l-0.0037-0.14571h-0.0063zm1.3276 0.02646-0.01138 0.14521 0.14211 0.01085 0.28938 0.0367 0.01852-0.1447-0.29353-0.0372h-0.0052zm-2.1978 0.05993-0.0894 0.01138h-0.0052l-0.34261 0.06099 0.02593 0.14367 0.33849-0.06048h0.0052l0.08578-0.01085zm3.0727 0.05686-0.02593 0.14314 0.21601 0.03876 0.20929 0.04858 0.03257-0.14264-0.21241-0.04908h-0.0052zm-3.9394 0.108-0.15605 0.0372h-0.0052l-0.26718 0.07546 0.03979 0.14055 0.26356-0.07493 0.15605-0.03617zm4.7993 0.08837-0.03979 0.14055 0.26821 0.07596h0.0052l0.14261 0.04858 0.04704-0.13849-0.14677-0.04961h-0.0052zm-5.6468 0.15762-0.2067 0.06975h-0.0026l-0.0026 0.0026-0.20466 0.08062 0.05323 0.13539 0.20463-0.08059 0.2031-0.06824zm6.485 0.11885-0.05376 0.13486 0.30904 0.12144 0.0032 0.0026 0.08993 0.04083 0.05993-0.13333-0.0925-0.04186h-0.0052zm-7.3067 0.2036-0.24236 0.10957-0.0026 0.0026h-0.0026l-0.15296 0.07853 0.06665 0.12973 0.14939-0.07705h0.0026l0.23972-0.10801zm8.1154 0.14727-0.06615 0.12973 0.33589 0.17209h0.0026l0.0026 0.0026 0.04601 0.02686 0.07287-0.1266-0.04961-0.02842-0.0026-0.0026h-0.0026zm-8.9024 0.25117-0.26768 0.15243-0.0052 0.0052-0.10904 0.06977 0.07856 0.12301 0.10594-0.06821 0.0026-0.0026h0.0026l0.26406-0.15195zm9.675 0.17312-0.07803 0.12401 0.3509 0.22479 0.0026 0.0026 0.01085 0.0082 0.08475-0.11885-0.01402-0.0098-0.0026-0.0027-0.0026-0.0026zm-10.423 0.29404-0.28216 0.2-0.0052 0.0052-0.07183 0.0563 0.09044 0.11472 0.06874-0.05424 0.28266-0.20103zm11.151 0.2-0.05686 0.08009-0.02892 0.0367 0.0052 0.0052 0.34002 0.26768 0.09044-0.11526-0.34365-0.26922v-0.0026l-0.0026-0.0026zm-11.854 0.33486-0.28734 0.24908-0.0052 0.0052-0.0403 0.03823 0.10076 0.10594 0.03773-0.0367 0.0026-0.0026 0.28578-0.24752zm12.535 0.22426-0.09459 0.11113 0.0254 0.0217 0.0026 0.0026 0.28837 0.2744 0.10025-0.10544-0.29044-0.27697-0.0026-0.0026zm-13.183 0.37156-0.28734 0.30182-0.0052 0.0052-0.01402 0.01561 0.1101 0.0961 0.01191-0.01402 0.0052-0.0052 0.28472-0.29869zm13.81 0.24961-0.10438 0.10128 0.04702 0.04908 0.0026 0.0026 0.2377 0.27443 0.11007-0.09562-0.23977-0.277-0.0052-0.0052zm-14.402 0.40463-0.27078 0.34418 0.11523 0.08991 0.27028-0.34365zm14.97 0.27131-0.11422 0.09044 0.06408 0.08112 0.0026 0.0026 0.18966 0.26718 0.11885-0.08475-0.19172-0.26977-0.0026-0.0026zm-15.498 0.43202-0.01852 0.02688v0.0026h-0.0027l-0.2186 0.34105 0.12248 0.07906 0.21704-0.33796 0.0026-0.0032 0.01693-0.02381zm16.001 0.2925-0.12198 0.07906 0.07805 0.12195 0.14417 0.25064 0.1266-0.07287-0.14574-0.25374-0.0052-0.0052zm-16.462 0.4594-0.03617 0.06305-0.0052 0.0052-0.16643 0.32505 0.12973 0.06615 0.16484-0.32195 0.0026-0.0026 0.0027-0.0026 0.03463-0.05943zm16.897 0.30851-0.1297 0.06668 0.08372 0.16328 0.0026 0.0026 0.10179 0.22585 0.13282-0.06048-0.10335-0.22839v-0.0026l-0.0026-0.0026zm-17.288 0.48266-0.04805 0.10697-0.0026 0.0026-0.11732 0.29819 0.13539 0.05321 0.11629-0.29404 0.04805-0.10748zm17.65 0.32195-0.13695 0.05374 0.08631 0.21913 0.06408 0.1881 0.13798-0.04651-0.06461-0.19172v-0.0052zm-17.965 0.50179-0.0558 0.16174v0.0052l-0.07287 0.25736 0.14055 0.03979 0.07184-0.25374 0.05477-0.16124zm18.249 0.33333-0.14058 0.03979 0.07906 0.27853v0.0052l0.03154 0.13745 0.14261-0.03307-0.03254-0.14055v-0.0052zm-18.488 0.51624-0.05323 0.22792v0.0052l-0.03564 0.20101 0.14364 0.0254 0.03516-0.19688 0.05271-0.22789zm18.694 0.34161-0.14314 0.0254 0.06305 0.35396v0.0026l0.0093 0.0708 0.1447-0.01852-0.0098-0.0739v-0.0052zm-18.853 0.52658-0.03927 0.30851v0.0052l-0.0098 0.1266 0.14521 0.01085 0.0093-0.12248 0.03927-0.30851zm18.981 0.34624-0.14521 0.01138 0.03307 0.43615 0.14573-0.01085zm-19.06 0.5333-0.0098 0.40619v0.03568l0.14624-0.0037-0.0026-0.02688v-0.0052l0.01032-0.40307zm19.105 0.34468-0.14523 0.0037v0.06309l-0.01085 0.43358 0.14574 0.0037 0.01138-0.43771-0.07287-0.0026 0.07287-0.0026zm-18.957 0.53021-0.14574 0.0037v0.02478l0.03151 0.41704 0.14574-0.01085-0.03151-0.41704zm18.771 0.40207-0.0061 0.09197-0.04339 0.33902 0.1452 0.01852 0.04289-0.33952v-0.0052l0.0071-0.09559zm-18.687 0.46147-0.1447 0.01852 0.01349 0.10491v0.0052l0.05839 0.32711 0.14367-0.02593-0.05789-0.32348v-0.0052zm18.567 0.39791-0.02895 0.16693-0.05943 0.25787 0.14211 0.03255 0.05943-0.25734v-0.0052l0.03051-0.17053zm-18.405 0.45477-0.14211 0.03307 0.01244 0.05374h0.14986z" color="#000000" color-rendering="auto" image-rendering="auto" solid-color="#000000" style="isolation:auto;mix-blend-mode:normal;text-decoration-color:#000000;text-decoration-line:none;text-decoration-style:solid;text-indent:0;text-transform:none;white-space:normal"/>
  <path d="m17.156 4.1669-0.06305 0.0027 5e-3 0.19791 0.05789-0.0027h0.0052l0.52711 0.01349 0.0048-0.19844-0.53177-0.01296h-0.0026zm-0.66869 0.0164-0.58757 0.04495 0.01508 0.19791 0.58291-0.04442h0.0048l-0.0048-0.19844h-0.0079zm1.804 0.03564-0.01508 0.19794 0.19275 0.01455 0.39328 0.05011 0.0254-0.19688-0.39844-0.05064h-0.0052zm-2.9875 0.08165-0.12092 0.01561h-0.0058l-0.46562 0.08268 0.03514 0.19534 0.45993-0.08218h0.0052l0.11679-0.01455zm4.1766 0.07752-0.03464 0.19482 0.29353 0.05271 0.28422 0.06511 0.04445-0.19326-0.28888-0.06668h-0.0058zm-5.3543 0.14677-0.21186 0.05011h-0.0052l-0.36278 0.10284 0.05424 0.19122 0.35815-0.10181 0.21186-0.04911zm6.5232 0.11988-0.05424 0.19069 0.36534 0.10388h0.0052l0.19482 0.06562 0.06358-0.1881-0.19947-0.06718h-0.0052zm-7.6751 0.21445-0.2806 0.09459h-0.0026l-0.0026 0.0027-0.27803 0.10954 0.07287 0.1845 0.27803-0.10957 0.27594-0.093zm8.8146 0.16177-0.07287 0.18294 0.42014 0.16537 0.0042 0.0026 0.12195 0.0553 0.08165-0.18087-0.1261-0.05736h-0.0052zm-9.9313 0.27647-0.32917 0.14933-0.0026 0.0026h-0.0026l-0.20775 0.10697 0.09097 0.17624 0.20307-0.10441 0.0037-0.0026 0.32558-0.14677zm11.031 0.2-0.08993 0.17672 0.45631 0.23358 0.0026 0.0027 0.0026 0.0026 0.06255 0.0367 0.09922-0.17209-0.06718-0.03876-0.0026-0.0026-0.0026-0.0027zm-12.1 0.34158-0.36381 0.20722-0.0026 0.0027-0.0026 0.0026-0.1483 0.09456 0.10697 0.16693 0.14417-0.0925 0.0026-0.0026h0.0026l0.35915-0.20619zm13.151 0.23511-0.10647 0.16849 0.477 0.30592 0.0032 0.0027 0.01508 0.01085 0.11523-0.16174-0.01905-0.01296-0.0026-0.0027-0.0026-0.0026zm-14.168 0.4-0.38344 0.27181-0.0026 0.0026-0.0026 0.0027-0.09769 0.07649 0.12248 0.15605 0.09353-0.0739 0.38397-0.27337zm15.157 0.27181-0.07752 0.10904-0.03929 0.04961 0.0026 0.0027 0.0026 0.0026 0.46253 0.36381 0.12298-0.15605-0.46716-0.3664-0.0026-0.0027-0.0026-0.0026zm-16.111 0.45528-0.39119 0.33849-0.0053 0.0053-0.0553 0.0522 0.13695 0.14364 0.05114-0.04961 0.0032-0.0026 0.38863-0.3364zm17.036 0.30438-0.12867 0.15142 0.03411 0.02945 0.0032 0.0026 0.39119 0.37312 0.13695-0.14317-0.39482-0.37619-0.0026-0.0027-0.0026-0.0026zm-17.919 0.50542-0.39069 0.40979-0.0053 0.0053-0.01852 0.0217 0.14986 0.13023 0.01561-0.01852 0.0053-0.0053 0.38759-0.4062zm18.77 0.33899-0.14161 0.13745 0.06358 0.06668 0.0026 0.0032 0.32298 0.3731 0.14986-0.1302-0.32608-0.37622-0.0052-0.0052zm-19.575 0.54984-0.36743 0.46768 0.15608 0.12248 0.36743-0.46768zm20.347 0.36846-0.15505 0.12301 0.08734 0.11057 0.0026 0.0037 0.2584 0.36278 0.16121-0.11523-0.26043-0.3664-0.0052-0.0052zm-21.065 0.58757-0.02487 0.03617-0.0026 0.0026-0.0026 0.0027-0.29716 0.46356 0.16693 0.10697 0.29456-0.4594 0.0027-0.0042 0.02328-0.03204zm21.748 0.39791-0.1659 0.10697 0.10644 0.16537 0.19587 0.34108 0.17209-0.09872-0.19844-0.34521-0.0052-0.0052zm-22.375 0.62374-0.04911 0.08581-0.0052 0.0052-0.22582 0.44184 0.17622 0.09044 0.22429-0.43771 0.0052-0.0052 0.04702-0.08115zm22.966 0.41964-0.17674 0.09044 0.11369 0.2217 0.0026 0.0042 0.13849 0.30644 0.18087-0.08165-0.1405-0.31054v-0.0026l-0.0026-0.0026zm-23.498 0.65578-0.06511 0.14574-0.0027 0.0026v0.0026l-0.15968 0.40514 0.18447 0.07287 0.15762-0.40051 0.06564-0.14571zm23.991 0.43821-0.18606 0.07236 0.11732 0.29816 0.08681 0.2558 0.18759-0.06355-0.08837-0.26046v-0.0052zm-24.418 0.68163-0.07546 0.21963v0.0052l-0.09922 0.34934 0.19069 0.05427 0.09819-0.34521 0.0739-0.2191zm24.804 0.45321-0.19069 0.05374 0.10748 0.37828v0.0063l0.04292 0.18706 0.19326-0.04443-0.04392-0.19172v-0.0052zm-25.128 0.70176-0.07234 0.30957v0.0052l-0.04858 0.27284 0.19534 0.03514 0.04805-0.26819 0.07133-0.30957zm25.409 0.46409-0.19534 0.0341 0.08628 0.4811v0.0063l0.01191 0.09613 0.19691-0.0254-0.01297-0.10078v-0.0058zm-25.625 0.71624-0.05321 0.41911v0.0052l-0.01349 0.17156 0.19791 0.01508 0.01244-0.1664 0.05324-0.41961zm25.798 0.47025-0.19738 0.01508 0.04495 0.59326 0.19791-0.01508zm-25.905 0.72452-0.01402 0.55243v0.0052l0.0026 0.04186 0.19844-0.0053-0.0026-0.0367v-0.0052l0.01402-0.54778zm25.967 0.46819-0.19794 0.0053 0.0026 0.07908v0.0052l-0.01508 0.58963 0.19844 0.0053 0.01508-0.59482-0.09922-0.0026 0.09922-0.0032zm-25.766 0.72092-0.19794 0.0053v0.03206l0.04289 0.56638 0.19794-0.01455-0.04289-0.56688zm25.513 0.54674-0.0087 0.12504-0.0584 0.46044 0.19691 0.0254 0.0584-0.46147v-0.0052l0.0098-0.13023zm-25.399 0.62683-0.19741 0.02593 0.01852 0.14211v0.0052l0.05117 0.28888h0.20154l-0.05686-0.31885v-0.0063z" color="#000000" color-rendering="auto" image-rendering="auto" solid-color="#000000" style="isolation:auto;mix-blend-mode:normal;text-decoration-color:#000000;text-decoration-line:none;text-decoration-style:solid;text-indent:0;text-transform:none;white-space:normal"/>
 </g>
 <g fill="none" stroke-width=".26459">
  <path d="m26.438 15.077-2.8798-8.9334" stroke="#e9e56f"/>
  <path d="m26.256 14.821-6.6039-6.6699" stroke="#6f8ce9"/>
  <path d="m23.585 5.7977-7.6985-5.3695" stroke="#e9e56f"/>
  <path d="m19.608 8.0396-9.0277 2.569" stroke="#6f8ce9"/>
  <path d="m26.23 14.858-8.4521-4.0817" stroke="#ff867f"/>
 </g>
 <path d="m17.158 12.578h-0.02222l0.0026 0.06977h0.02011l0.18603 0.0048 0.0026-0.06977-0.18759-0.0048zm-0.23567 0.0056-0.20722 0.01614 0.0053 0.06977 0.20569-0.01561h0.0026l-0.0026-0.07027h-0.0026zm0.63615 0.01296-0.0056 0.06924 0.06821 0.0053 0.13851 0.01799 0.0093-0.06975-0.14058-0.01746zm-1.0532 0.02842-0.04289 0.0058-0.16383 0.02895 0.01243 0.06924 0.16227-0.02892 0.04133-0.0053zm1.4723 0.02741-0.01244 0.06871 0.10335 0.01852 0.10028 0.02328 0.01614-0.06821-0.10181-0.02381zm-1.8878 0.05167-0.07493 0.01799-0.12766 0.03617 0.01905 0.06718 0.1261-0.03567 0.07493-0.01746zm2.3001 0.04236-0.01905 0.06771 0.12817 0.03617 0.06874 0.02328 0.02223-0.06615-0.0703-0.02381zm-2.7063 0.07546-0.09869 0.03358-0.09819 0.03876 0.02593 0.06512 0.09766-0.03876 0.09766-0.03254zm3.1079 0.05736-0.02593 0.06459 0.1483 0.05789h0.0026l0.04289 0.01905 0.02895-0.06358-0.04495-0.02011zm-3.5017 0.09766-0.11576 0.0522-0.07337 0.03773 0.03204 0.06199 0.07131-0.03667h0.0026l0.11473-0.05167zm3.8892 0.07027-0.03204 0.06202 0.16124 0.08268 0.0217 0.01296 0.03514-0.06046-0.02381-0.01402zm-4.2659 0.12041-0.12867 0.07287-0.0522 0.03307 0.03773 0.05892 0.05114-0.03257 0.1266-0.07287zm4.636 0.08321-0.03723 0.0589 0.16796 0.108 0.0058 0.0037 0.04032-0.05683-0.0066-0.0048zm-4.9946 0.14055-0.13539 0.09612-0.03411 0.02688 0.04289 0.0553 0.03307-0.02646 0.13539-0.09613zm5.3434 0.09612-0.02739 0.03823-0.01402 0.01746 0.1628 0.12817 0.04339-0.05477-0.16484-0.1292zm-5.6804 0.16021-0.13745 0.11938-0.01958 0.01852 0.04855 0.05064 0.01799-0.01746 0.13695-0.11888zm6.0065 0.108-0.04498 0.05271 0.01191 0.01032 0.13798 0.13179 0.04808-0.05064-0.13902-0.13282zm-6.317 0.17725-0.13798 0.14521-0.0066 0.0071 0.05321 0.04601 0.0058-0.0061 0.13695-0.14317zm6.6173 0.12041-0.04961 0.04805 0.02223 0.02328v0.0026l0.11369 0.13126 0.05271-0.04548-0.11472-0.1328zm-6.9015 0.19328-0.12917 0.16484 0.05477 0.04342 0.1297-0.16486zm7.1738 0.1302-0.05477 0.04342 0.03101 0.03876v0.0026l0.09094 0.12764 0.05686-0.04083-0.092-0.1292zm-7.4265 0.20672-0.0087 0.01296-0.10491 0.16381 0.0589 0.03773 0.10388-0.16227 0.0082-0.01138zm7.6673 0.14055-0.05839 0.03773 0.03773 0.05839 0.06924 0.11988 0.06046-0.03461-0.06977-0.12145zm-7.888 0.22016-0.01746 0.02998-0.08012 0.15552 0.06202 0.03204 0.07906-0.15449 0.0164-0.02844zm8.0968 0.1478-0.06199 0.03151 0.03979 0.07856v0.0026l0.04855 0.108 0.06408-0.02895-0.04961-0.10956zm-8.2844 0.23098-0.02275 0.05167-0.05583 0.14314 0.06461 0.0254 0.0558-0.14108 0.02328-0.05117zm8.4585 0.15452-0.06615 0.02593 0.04135 0.10491 0.03101 0.08991 0.06615-0.02223-0.03101-0.09197zm-8.6089 0.2403-0.02646 0.07752-0.03514 0.12351 0.06718 0.01905 0.03463-0.12198 0.02593-0.077zm8.7448 0.15968-0.06718 0.01905 0.03773 0.13332v0.0026l0.01561 0.06564 0.06821-0.01561-0.01561-0.06771zm-8.8585 0.24755-0.02593 0.10904-0.01693 0.0961 0.06874 0.01244 0.01693-0.09456 0.02487-0.10904zm8.9577 0.16328-0.06874 0.01244 0.03051 0.16952v0.0026l0.0042 0.03411 0.06924-0.0093-0.0048-0.03516zm-9.0342 0.25324-0.01852 0.14727-0.0048 0.06046 0.06924 5e-3 0.0048-0.0584 0.01852-0.1483zm9.0957 0.16537-0.06975 0.0053 0.01561 0.20929 0.06975-0.0053zm-9.1334 0.2558-0.0048 0.19431v0.01508l0.06977-0.0026v-0.01297l0.0048-0.19328zm9.1552 0.16484-0.0703 0.0026v0.02791l-0.0053 0.20776 0.06977 0.0026 0.0053-0.20982h-0.03514 0.03514zm-9.0843 0.25427-0.06977 0.0026v0.0098l0.01508 0.19947 0.06977-0.0053-0.01508-0.19947zm8.9949 0.19222-0.0032 0.04445-0.02064 0.16227 0.06924 0.0087 0.02064-0.16227 0.0037-0.04599zm-8.9546 0.2217-0.06975 0.0087 0.0066 0.05014 0.02789 0.15658 0.06874-0.01243-0.02791-0.15505v-0.0026zm8.8968 0.19018-0.01349 0.08009-0.02842 0.12351 0.06771 0.01614 0.02842-0.12351 0.01508-0.08218zm-8.8192 0.21807-0.06821 0.01614 0.01852 0.08165 0.03461 0.12092 0.06718-0.01905-0.03411-0.11938zm8.7247 0.18706-0.02998 0.1075-0.03101 0.09147 0.06615 0.02222 0.03101-0.09147 0.03101-0.10906zm-8.6105 0.21291-0.06562 0.02223 0.03567 0.10594 0.03617 0.09147 0.06458-0.02593-0.03567-0.09147zm8.4792 0.18138-0.05011 0.12766-0.02947 0.06459 0.06358 0.02895 0.02945-0.06461 0.05117-0.12867zm-8.3273 0.20569-0.06408 0.02895 0.0558 0.12298 0.03463 0.06668 0.06199-0.03204-0.03358-0.06511v-0.0026zm8.1593 0.17518-0.07234 0.14108-0.02381 0.04135 0.06046 0.03461 0.02487-0.04289 0.07287-0.14264zm-7.9722 0.19688-0.06149 0.03464 0.01693 0.02998h0.08165z" color="#000000" color-rendering="auto" fill="#7b8694" image-rendering="auto" shape-rendering="auto" solid-color="#000000" style="isolation:auto;mix-blend-mode:normal;text-decoration-color:#000000;text-decoration-line:none;text-decoration-style:solid;text-indent:0;text-transform:none;white-space:normal"/>
 <path d="m17.156-3.3069e-4 -0.08374 0.00265 0.0066 0.26147 0.07702-0.00265h0.0058l0.69661 0.017463 0.0058-0.26147-0.7023-0.017463h-0.0032zm-0.88317 0.022225-0.77619 0.058897 0.01958 0.26096 0.76947-0.058395h0.0066l-0.0061-0.26147h-0.0103zm2.3828 0.047017-0.02011 0.26096 0.25427 0.01905 0.51986 0.066147 0.03307-0.25993-0.52608-0.067179h-0.0069zm-3.9461 0.10748-0.16021 0.020109h-0.0069l-0.61445 0.10957 0.04601 0.25787 0.6077-0.10851h0.0074l0.15402-0.01905zm5.516 0.10285-0.04599 0.25684 0.3881 0.069243 0.37519 0.086838 0.0589-0.2553-0.38138-0.088372h-0.0068zm-7.0715 0.19328-0.28009 0.066147h-0.0064l-0.47956 0.13642 0.07181 0.25218 0.47234-0.13486 0.2806-0.064612zm8.6156 0.15865-0.07133 0.25218 0.48163 0.13642h0.0069l0.25684 0.086838 0.08424-0.24805-0.26303-0.088901h-0.0069zm-10.137 0.28319-0.37053 0.12507h-0.0032l-0.0032 0.00265-0.36743 0.14468 0.09613 0.24339 0.36741-0.14468 0.36434-0.12301zm11.642 0.21342-0.09613 0.24133 0.5545 0.2186 0.0058 0.00265 0.16121 0.073397 0.108-0.23927-0.1669-0.07546h-0.0064zm-13.117 0.36537-0.43511 0.19688-0.0026 0.00265h-0.0032l-0.2744 0.14058 0.11988 0.23308 0.26768-0.13798 5e-3 -0.0026 0.42996-0.19431zm14.569 0.26406-0.11936 0.23307 0.60307 0.30851 0.0032 0.0027 0.0026 0.0026 0.08319 0.04808 0.13076-0.22688-0.0889-0.05114-0.0032-0.0027-0.0026-0.0026zm-15.982 0.45115-0.4806 0.2739-0.0032 0.0027-0.0026 0.0026-0.19534 0.12504 0.14108 0.22067 0.19018-0.12248 0.0032-0.0026h0.0026l0.4749-0.27234zm17.369 0.3111-0.14055 0.2222 0.63046 0.4036 0.0042 0.0032 0.01958 0.01455 0.15193-0.21342-0.02487-0.01746-0.0026-0.0026-0.0032-0.0027zm-18.712 0.52761-0.50642 0.35918-0.0026 0.0026-0.0032 0.0027-0.12869 0.10128 0.16177 0.20619 0.12351-0.09769 0.50745-0.36069zm20.019 0.35918-0.10232 0.14364-0.0522 0.06615 0.0032 0.0027 0.0026 0.0026 0.61083 0.48009 0.16227-0.20619-0.61652-0.48369-0.0026-0.0027-0.0026-0.0026zm-21.28 0.60101-0.51624 0.44752-0.0026 0.0026-0.0026 0.0027-0.07237 0.06924 0.18037 0.18966 0.06821-0.06512 0.0037-0.0032 0.51314-0.44496zm22.502 0.40254-0.17002 0.2 0.04498 0.03876 0.0037 0.0032 0.51677 0.49248 0.18034-0.18913-0.52089-0.49713-0.0026-0.0026-0.0026-0.0027zm-23.667 0.66666-0.51624 0.54209-0.0026 0.0027-0.0026 0.0026-0.0254 0.02842 0.19791 0.17209 0.02117-0.02487 0.0026-0.0027 0.0026-0.0026 0.51161-0.5364zm24.791 0.44803-0.18759 0.1819 0.08424 0.08837 0.0032 0.0037 0.42686 0.49248 0.19791-0.17103-0.43046-0.49766-0.0026-0.0027-0.0026-0.0026zm-25.855 0.72658-0.48525 0.61808 0.20619 0.16174 0.48525-0.61755zm26.875 0.48682-0.20463 0.16224 0.11472 0.14574 0.0042 0.0053 0.34055 0.47906 0.21342-0.15193-0.34415-0.48422-0.0026-0.0027-0.0026-0.0026zm-27.821 0.77619-0.03307 0.04752-0.0053 0.0053-0.39222 0.61186 0.22067 0.14214 0.38863-0.60723 0.0037-5e-3 0.03098-0.04236zm28.724 0.52502-0.2191 0.14108 0.14058 0.21913 0.2589 0.45009 0.22686-0.13023-0.262-0.45578-0.0026-0.0026-0.0026-0.0032zm-29.552 0.82427-0.06512 0.11316-0.0026 0.0027-0.0026 0.0032-0.29869 0.58291 0.23255 0.11938 0.2961-0.57775 0.0026-0.0032 0.0027-0.0026 0.06202-0.10748zm30.333 0.55397-0.23308 0.11938 0.15039 0.293 0.0026 0.0058 0.18241 0.40463 0.23876-0.108-0.18553-0.41032v-0.0032l-0.0026-0.0032zm-31.035 0.86613-0.08628 0.19275-0.0026 0.0032v0.0026l-0.21085 0.53434 0.24339 0.09612 0.20826-0.52814 0.08734-0.19275zm31.686 0.57878-0.24599 0.0961 0.15505 0.39328 0.1147 0.33746 0.24805-0.08374-0.11679-0.34365v-0.0064zm-32.25 0.90074-0.09975 0.28938v0.0064l-0.13073 0.462 0.25168 0.07184 0.12917-0.45631 0.09769-0.28941zm32.761 0.59789-0.25268 0.07131 0.14261 0.49973v0.0068l0.05686 0.24702 0.25527-0.0589-0.05839-0.25271v-0.0074zm-33.188 0.92709-0.0956 0.40929v0.0058l-0.06408 0.36066 0.25787 0.04598 0.06305-0.35399 0.09456-0.40876zm33.56 0.61289-0.25787 0.04548 0.11369 0.63512v0.0074l0.01614 0.12713 0.25993-0.0336-0.01693-0.1328v-0.0069zm-33.845 0.94569-0.0708 0.55399v0.0069l-0.01693 0.22686 0.26099 0.01958 0.0164-0.22014 0.07028-0.55399zm34.074 0.62117-0.26099 0.02011 0.05945 0.78395 0.26147-0.02011zm-34.215 0.95707-0.01852 0.73021v0.0068l0.0026 0.05527 0.26202-0.0066-0.0026-0.04858v-0.0069l0.01852-0.72346zm34.296 0.61908-0.26149 0.0066 0.0026 0.10441v0.0068l-0.01958 0.77876 0.26199 0.0061 0.01958-0.78498-0.13073-0.0032 0.13073-0.0042zm-34.031 0.95191-0.26149 0.0066v0.04154l0.05686 0.74877 0.26149-0.01958-0.05686-0.74828zm33.697 0.72193-0.01191 0.16486-0.06924 0.54518h0.26459l0.06461-0.51317v-0.0058l0.01349-0.17206z" color="#000000" color-rendering="auto" fill="#7b8694" image-rendering="auto" shape-rendering="auto" solid-color="#000000" style="isolation:auto;mix-blend-mode:normal;text-decoration-color:#000000;text-decoration-line:none;text-decoration-style:solid;text-indent:0;text-transform:none;white-space:normal"/>
 <path d="m17.693 10.555-4.525 8.2234" fill="none" stroke="#ff867f" stroke-width=".26459"/>
 <g>
  <g stroke-linecap="round" stroke-width=".16934">
   <circle cx="26.244" cy="14.821" r=".28223" fill="#e9e56f" stroke="#e9e56f"/>
   <circle cx="17.545" cy="10.769" r=".28223" fill="#ff867f" stroke="#ff867f"/>
   <circle cx="19.596" cy="8.1068" r=".28223" fill="#6f8ce9" stroke="#6f8ce9"/>
   <circle cx="23.432" cy="5.8412" r=".28223" fill="#e9e56f" stroke="#e9e56f"/>
  </g>
  <g stroke-width="201.8">
   <g transform="matrix(-.00088194 .0018227 -.0018539 -.00089705 14.096 18.24)" fill="#ff867f">
    <g fill="#ff867f" stroke-width="201.8">
     <path d="m486.41 221.41-364.07-208.5c-52.938-30.318-95.852-5.44-95.852 55.563v415.65c0 61.004 42.914 85.882 95.852 55.563l364.07-208.49c52.938-30.317 52.938-79.473 0-109.79z" fill="#ff867f" stroke-width="201.8"/>
    </g>
   </g>
   <g transform="matrix(-.0018329 -.00086061 .00087535 -.0018642 18.581 11.783)" fill="#ff867f">
    <g fill="#ff867f" stroke-width="201.8">
     <path d="m486.41 221.41-364.07-208.5c-52.938-30.318-95.852-5.44-95.852 55.563v415.65c0 61.004 42.914 85.882 95.852 55.563l364.07-208.49c52.938-30.317 52.938-79.473 0-109.79z" fill="#ff867f" stroke-width="201.8"/>
    </g>
   </g>
   <g transform="matrix(-.0019454 .0005616 -.00057121 -.0019787 11.652 10.908)" fill="#6f8ce9">
    <g fill="#6f8ce9" stroke-width="201.8">
     <path d="m486.41 221.41-364.07-208.5c-52.938-30.318-95.852-5.44-95.852 55.563v415.65c0 61.004 42.914 85.882 95.852 55.563l364.07-208.49c52.938-30.317 52.938-79.473 0-109.79z" fill="#6f8ce9" stroke-width="201.8"/>
    </g>
   </g>
   <g transform="matrix(-.0014324 -.0014312 .0014557 -.0014569 20.166 9.4503)" fill="#6f8ce9">
    <g fill="#6f8ce9" stroke-width="201.8">
     <path d="m486.41 221.41-364.07-208.5c-52.938-30.318-95.852-5.44-95.852 55.563v415.65c0 61.004 42.914 85.882 95.852 55.563l364.07-208.49c52.938-30.317 52.938-79.473 0-109.79z" fill="#6f8ce9" stroke-width="201.8"/>
    </g>
   </g>
   <g transform="matrix(-.0015975 -.0012441 .0012654 -.0016249 16.253 1.3862)" fill="#e9e56f">
    <g fill="#e9e56f" stroke-width="201.8">
     <path d="m486.41 221.41-364.07-208.5c-52.938-30.318-95.852-5.44-95.852 55.563v415.65c0 61.004 42.914 85.882 95.852 55.563l364.07-208.49c52.938-30.317 52.938-79.473 0-109.79z" fill="#e9e56f" stroke-width="201.8"/>
    </g>
   </g>
   <g transform="matrix(-.00058699 -.0019379 .0019711 -.00059703 23.307 7.271)" fill="#e9e56f">
    <g fill="#e9e56f" stroke-width="201.8">
     <path d="m486.41 221.41-364.07-208.5c-52.938-30.318-95.852-5.44-95.852 55.563v415.65c0 61.004 42.914 85.882 95.852 55.563l364.07-208.49c52.938-30.317 52.938-79.473 0-109.79z" fill="#e9e56f" stroke-width="201.8"/>
    </g>
   </g>
  </g>
 </g>
</svg>
