<?xml version="1.0" encoding="UTF-8"?>
<svg width="261.43" height="106.08" version="1.1" viewBox="0 0 69.17 28.065" xmlns="http://www.w3.org/2000/svg" xmlns:cc="http://creativecommons.org/ns#" xmlns:dc="http://purl.org/dc/elements/1.1/" xmlns:rdf="http://www.w3.org/1999/02/22-rdf-syntax-ns#">
 <metadata>
  <rdf:RDF>
   <cc:Work rdf:about="">
    <dc:format>image/svg+xml</dc:format>
    <dc:type rdf:resource="http://purl.org/dc/dcmitype/StillImage"/>
    <dc:title/>
   </cc:Work>
  </rdf:RDF>
 </metadata>
 <g fill="none">
  <path d="m0.91687 27.035s5.0731-6.0731 7.9611-8.7625c1.9399-1.8066 4.0214-3.4823 6.2513-4.9156 2.6804-1.7227 5.4825-3.3449 8.4954-4.3813 2.7251-0.93737 5.6137-1.5949 8.4955-1.6029 2.9693-0.00847 5.9587 0.62542 8.7625 1.6029 2.859 0.99666 5.5008 2.5867 8.0145 4.2744 2.5938 1.7414 4.9379 3.8433 7.2131 5.9842 2.5785 2.4263 7.2665 7.7474 7.2665 7.7474" stroke="#e8eaec" stroke-width=".26458"/>
  <path d="m67.705 27.089h-66.681v-25.486" stroke="#a6aeb8" stroke-width=".52917"/>
  <g stroke="#6f8ce9" stroke-width=".26458">
   <path d="m1.0772 27.089 11.915-15.334"/>
   <path d="m24.073 8.8502 11.787-3.9884"/>
   <path d="m24.159 14.96v-6.0911"/>
  </g>
 </g>
 <g fill="#e8eaec">
  <g>
   <g aria-label="g">
    <path d="m25.587 14.252c0-0.17462 0.14605-0.3175 0.32068-0.3175 0.1778 0 0.32068 0.14288 0.32068 0.3175s-0.14288 0.3175-0.32068 0.3175-0.32068-0.14288-0.32068-0.3175zm0.33338-0.49848c-0.28892 0-0.53975 0.2286-0.53975 0.51118 0 0.15875 0.07937 0.30798 0.21272 0.3937-0.10478 0.0889-0.1651 0.18732-0.1651 0.2794 0 0.06033 0.0254 0.14605 0.11748 0.19368-0.15558 0.09842-0.23495 0.20638-0.23495 0.32068 0 0.15875 0.14605 0.34608 0.65405 0.34608 0.49212 0 0.66992-0.25082 0.66992-0.4445 0-0.127-0.07303-0.254-0.22542-0.31432-0.1524-0.0635-0.32702-0.04127-0.49212-0.04127-0.10795 0-0.1778-0.0095-0.20638-0.01905-0.05715-0.01588-0.0889-0.0508-0.0889-0.09525 0-0.0762 0.0889-0.14922 0.10478-0.16192 0.05715 0.02222 0.12065 0.03175 0.18415 0.03175 0.28575 0 0.5207-0.2286 0.5207-0.4953 0-0.0889-0.0254-0.17462-0.07302-0.24765 0.0762-0.04445 0.1651-0.06985 0.254-0.06985 0.02858 0 0.05398 0.0032 0.08255 0.0095l-0.0254-0.18732c-0.14605-0.0127-0.2921 0.03492-0.40322 0.127-0.09208-0.0889-0.21272-0.13652-0.34608-0.13652zm-0.21908 1.4192c0.05397 0.0064 0.13018 0.0127 0.2413 0.01905 0.10795 0.0032 0.22542-0.0063 0.30798 0.0064 0.13335 0.02222 0.17462 0.10478 0.17462 0.16828s-0.0381 0.1397-0.13652 0.19368c-0.10795 0.05715-0.2286 0.0635-0.32702 0.0635-0.06668 0-0.1905-0.0032-0.29845-0.04763-0.11748-0.04763-0.14288-0.127-0.14288-0.1778 0-0.10478 0.09842-0.18098 0.18098-0.22542z" fill="#e8eaec" stroke-width=".42744px"/>
   </g>
   <g aria-label="v">
    <path d="m37.71 3.9665 0.57468 1.4637h0.18098l0.35242-0.82868c0.08572-0.2032 0.16828-0.41275 0.2159-0.635h-0.20638c-0.0381 0.21272-0.1143 0.41275-0.19685 0.60325l-0.23178 0.53975-0.4191-1.0604c-0.0032-0.00635-0.0064-0.0127-0.0064-0.01905 0-0.01905 0.01588-0.0381 0.0095-0.0635z" fill="#e8eaec" stroke-width=".42744px"/>
   </g>
   <g aria-label="x">
    <path d="m66.947 23.201-0.36195 0.53658-0.381-0.53658h-0.24765l0.49848 0.71438-0.508 0.7366h0.25718l0.37782-0.56198 0.40005 0.56198h0.26035l-0.5334-0.74295 0.4699-0.70802z" fill="#e8eaec" stroke-width=".42744px"/>
   </g>
   <g aria-label="y">
    <path d="m3.1062 0.55023 0.59055 1.4446-0.047625 0.10478c-0.0254 0.060325-0.053975 0.12065-0.098425 0.16828-0.060325 0.066675-0.13652 0.09525-0.2032 0.09525-0.10795 0-0.16192-0.073025-0.17145-0.085725-0.00953-0.015875-0.00635-0.0381-0.0254-0.053975l-0.11748 0.20638c0.08255 0.079375 0.19368 0.12065 0.31432 0.12065 0.13018 0 0.2667-0.047625 0.36195-0.15558 0.0635-0.073025 0.09525-0.14922 0.127-0.23178l0.45085-1.197c0.053975-0.13652 0.1016-0.27622 0.14605-0.4191h-0.23812c-0.0254 0.13335-0.066675 0.26035-0.11112 0.38735l-0.27622 0.77787-0.42545-1.07c-0.00318-0.009525-0.00318-0.015875-0.00318-0.0254 0-0.022225 0.015875-0.0381 0.0127-0.066675z" fill="#e8eaec" stroke-width=".42744px"/>
   </g>
   <g stroke-width=".42744px" aria-label="vy">
    <path d="m2.6597 16.362 0.57468 1.4637h0.18098l0.35242-0.82868c0.085725-0.2032 0.16828-0.41275 0.2159-0.635h-0.20638c-0.0381 0.21272-0.1143 0.41275-0.19685 0.60325l-0.23178 0.53975-0.4191-1.0604c-0.00318-0.0064-0.00635-0.0127-0.00635-0.01905 0-0.01905 0.015875-0.0381 0.00953-0.0635z"/>
    <path d="m4.2662 16.366 0.59055 1.4446-0.047625 0.10478c-0.0254 0.06032-0.053975 0.12065-0.098425 0.16828-0.060325 0.06668-0.13652 0.09525-0.2032 0.09525-0.10795 0-0.16192-0.07302-0.17145-0.08573-0.00953-0.01587-0.00635-0.0381-0.0254-0.05397l-0.11748 0.20638c0.08255 0.07938 0.19368 0.12065 0.31432 0.12065 0.13018 0 0.2667-0.04763 0.36195-0.15558 0.0635-0.07303 0.09525-0.14922 0.127-0.23178l0.45085-1.197c0.053975-0.13652 0.1016-0.27622 0.14605-0.4191h-0.23812c-0.0254 0.13335-0.066675 0.26035-0.11112 0.38735l-0.27622 0.77788-0.42545-1.07c-0.00317-0.0095-0.00317-0.01588-0.00317-0.0254 0-0.02222 0.015875-0.0381 0.0127-0.06668z"/>
   </g>
   <g stroke-width=".42744px" aria-label="vx">
    <path d="m11.636 24.056 0.57468 1.4637h0.18098l0.35242-0.82868c0.08573-0.2032 0.16828-0.41275 0.2159-0.635h-0.20638c-0.0381 0.21272-0.1143 0.41275-0.19685 0.60325l-0.23178 0.53975-0.4191-1.0604c-0.0032-0.0063-0.0063-0.0127-0.0063-0.01905 0-0.01905 0.01587-0.0381 0.0095-0.0635z"/>
    <path d="m14.249 24.056-0.36195 0.53658-0.381-0.53658h-0.24765l0.49848 0.71438-0.508 0.7366h0.25718l0.37782-0.56198 0.40005 0.56198h0.26035l-0.5334-0.74295 0.4699-0.70802z"/>
   </g>
   <g stroke-width=".42744px" aria-label="v0">
    <path d="m13.346 8.2409 0.57468 1.4637h0.18098l0.35242-0.82868c0.08573-0.2032 0.16828-0.41275 0.2159-0.635h-0.20638c-0.0381 0.21272-0.1143 0.41275-0.19685 0.60325l-0.23178 0.53975-0.4191-1.0604c-0.0032-0.00635-0.0064-0.0127-0.0064-0.01905 0-0.01905 0.01588-0.0381 0.0095-0.0635z"/>
    <path d="m15.606 7.7011c-0.31432 0-0.63818 0.38735-0.63818 1.0192 0 0.64135 0.32702 1.0096 0.64135 1.0096 0.28575 0 0.62548-0.31115 0.62548-0.99378 0-0.6731-0.32385-1.035-0.62865-1.035zm0.30798 0.45402-0.69532 0.9017c-0.02858-0.11112-0.04445-0.23495-0.04445-0.37465 0-0.508 0.23178-0.7874 0.42862-0.7874 0.10795 0 0.22542 0.085725 0.31115 0.26035zm0.07303 0.20955c0.02858 0.11112 0.04127 0.24448 0.04127 0.40005 0 0.55245-0.23812 0.762-0.41275 0.762-0.11748 0-0.23812-0.09525-0.32385-0.26988z"/>
   </g>
  </g>
  <g stroke="#e8eaec" stroke-linecap="round" stroke-width=".16392">
   <circle transform="rotate(-27)" cx="17.534" cy="18.806" r=".2732"/>
   <circle transform="rotate(-27)" cx="13.236" cy="18.415" r=".2732"/>
   <circle transform="rotate(-27)" cx="8.619" cy="18.649" r=".2732"/>
   <circle transform="rotate(-27)" cx="3.7751" cy="19.329" r=".2732"/>
   <circle transform="rotate(-27)" cx="-1.4328" cy="20.723" r=".2732"/>
   <circle transform="rotate(-27)" cx="-7.0044" cy="22.831" r=".2732"/>
  </g>
  <g stroke-width="201.8">
   <g transform="matrix(0 -.0035871 .0036486 0 -1.4927e-7 1.8868)">
    <g fill="#e8eaec" stroke-width="201.8">
     <path d="m486.41 221.41-364.07-208.5c-52.938-30.318-95.852-5.44-95.852 55.563v415.65c0 61.004 42.914 85.882 95.852 55.563l364.07-208.49c52.938-30.317 52.938-79.473 0-109.79z" fill="#e8eaec" stroke-width="201.8"/>
    </g>
   </g>
   <g transform="matrix(-.0017936 -.0031065 .0031597 -.0018243 67.542 28.224)">
    <g fill="#e8eaec" stroke-width="201.8">
     <path d="m486.41 221.41-364.07-208.5c-52.938-30.318-95.852-5.44-95.852 55.563v415.65c0 61.004 42.914 85.882 95.852 55.563l364.07-208.49c52.938-30.317 52.938-79.473 0-109.79z" fill="#e8eaec" stroke-width="201.8"/>
    </g>
   </g>
   <g transform="matrix(0 .0026001 -.0026446 0 24.88 14.424)">
    <g fill="#e8eaec" stroke-width="201.8">
     <path d="m486.41 221.41-364.07-208.5c-52.938-30.318-95.852-5.44-95.852 55.563v415.65c0 61.004 42.914 85.882 95.852 55.563l364.07-208.49c52.938-30.317 52.938-79.473 0-109.79z" fill="#e8eaec" stroke-width="201.8"/>
    </g>
   </g>
   <g transform="matrix(.0011927 .0023104 -.00235 .0012131 13.197 11.117)">
    <g fill="#e8eaec" stroke-width="201.8">
     <path d="m486.41 221.41-364.07-208.5c-52.938-30.318-95.852-5.44-95.852 55.563v415.65c0 61.004 42.914 85.882 95.852 55.563l364.07-208.49c52.938-30.317 52.938-79.473 0-109.79z" fill="#e8eaec" stroke-width="201.8"/>
    </g>
   </g>
   <g transform="matrix(-.00034761 .0025768 -.0026209 -.00035357 36.478 4.4675)">
    <g fill="#e8eaec" stroke-width="201.8">
     <path d="m486.41 221.41-364.07-208.5c-52.938-30.318-95.852-5.44-95.852 55.563v415.65c0 61.004 42.914 85.882 95.852 55.563l364.07-208.49c52.938-30.317 52.938-79.473 0-109.79z" fill="#e8eaec" stroke-width="201.8"/>
    </g>
   </g>
  </g>
 </g>
 <path d="m12.407 27.089h-11.383v-9.6112" fill="none" stroke="#6f8ce9" stroke-width=".52917"/>
 <g transform="matrix(.0026001 0 0 -.0026446 11.852 27.808)" fill="#e8eaec" stroke-width="201.8">
  <g fill="#e8eaec" stroke-width="201.8">
   <path d="m486.41 221.41-364.07-208.5c-52.938-30.318-95.852-5.44-95.852 55.563v415.65c0 61.004 42.914 85.882 95.852 55.563l364.07-208.49c52.938-30.317 52.938-79.473 0-109.79z" fill="#e8eaec" stroke-width="201.8"/>
  </g>
 </g>
 <g transform="matrix(0 -.0026001 -.0026446 0 1.7725 18.036)" fill="#e8eaec" stroke-width="201.8">
  <g fill="#e8eaec" stroke-width="201.8">
   <path d="m486.41 221.41-364.07-208.5c-52.938-30.318-95.852-5.44-95.852 55.563v415.65c0 61.004 42.914 85.882 95.852 55.563l364.07-208.49c52.938-30.317 52.938-79.473 0-109.79z" fill="#e8eaec" stroke-width="201.8"/>
  </g>
 </g>
</svg>
