<?xml version="1.0" encoding="UTF-8"?>
<svg width="235.13" height="179.45" version="1.1" viewBox="0 0 62.213 47.479" xmlns="http://www.w3.org/2000/svg" xmlns:cc="http://creativecommons.org/ns#" xmlns:dc="http://purl.org/dc/elements/1.1/" xmlns:rdf="http://www.w3.org/1999/02/22-rdf-syntax-ns#">
 <metadata>
  <rdf:RDF>
   <cc:Work rdf:about="">
    <dc:format>image/svg+xml</dc:format>
    <dc:type rdf:resource="http://purl.org/dc/dcmitype/StillImage"/>
    <dc:title/>
   </cc:Work>
  </rdf:RDF>
 </metadata>
 <g fill="none">
  <g stroke-width=".26459">
   <path d="m7.5656 43.583h52.974" stroke="#a6aeb8"/>
   <path d="m10.155 46.158v-43.373" stroke="#a6aeb8"/>
   <path d="m0.11758 18.83c4.4484 8.8063 9.4183 12.831 18.711 11.012 5.6762-1.6202 10.634-6.196 14.034-10.233 3.0994-3.7194 5.5036-8.0131 7.6015-12.376 1.122-2.3337 2.0883-4.7415 2.9487-7.1892" stroke="#e9e56f"/>
   <path d="m8.4987 35.884 37.325-19.393" stroke="#e8eaec"/>
  </g>
  <path d="m52.013 28.721-15.739-5.9933" stroke="#a6aeb8" stroke-dasharray="0.132295, 0.26459" stroke-width=".1323"/>
 </g>
 <g fill="#e8eaec">
  <g stroke-width=".42745px" aria-label="r(t)">
   <path d="m2.4613 1.9753v1.451h0.22861v-0.70487c0-0.088902 0.00318-0.18415 0.1016-0.33973 0.13335-0.20956 0.30481-0.24448 0.40959-0.24448 0.12065 0 0.19685 0.057151 0.23813 0.10795 0.01905 0.025401 0.028576 0.050801 0.053976 0.073027l0.10795-0.21908c-0.092077-0.095252-0.22543-0.15875-0.38736-0.15875-0.21273 0-0.42864 0.10795-0.52389 0.31433l0.00953-0.27941z"/>
   <path d="m4.9759 1.3085c-0.48896 0.21591-0.8033 0.71439-0.8033 1.2954 0 0.57786 0.30481 1.1049 0.80647 1.3685l0.10478-0.16828c-0.43499-0.25083-0.68899-0.71757-0.68899-1.2097 0-0.45404 0.21908-0.86045 0.59056-1.0764 0.00635-0.00635 0.015875-0.0127 0.028576-0.0127 0.00953 0 0.019051 0.00635 0.031751 0.00635 0.00635 0 0.015875-0.00318 0.028576-0.00635z"/>
   <path d="m5.9189 1.5848-0.028576 0.39053h-0.34608l-0.00317 0.18733h0.33973c-0.01905 0.24766-0.028576 0.49531-0.028576 0.73979 0 0.13018 0 0.27623 0.085727 0.39688 0.069852 0.095252 0.18098 0.1524 0.33021 0.1524 0.17145 0 0.33973-0.073027 0.46356-0.16193l-0.069856-0.18098c-0.12383 0.092077-0.23813 0.13335-0.32703 0.13335-0.10795 0-0.21908-0.060326-0.24448-0.23496 0-0.0127-0.00953-0.066677-0.00953-0.27941 0-0.18733 0.00953-0.37783 0.028576-0.56516h0.47626v-0.1905h-0.47308s0.022226-0.26036 0.038101-0.34291c0.00318-0.031751 0.028576-0.050801 0.015875-0.085727z"/>
   <path d="m7.154 1.5086c0.41911 0.22543 0.68582 0.65724 0.68582 1.1303 0 0.47626-0.27306 0.92077-0.70169 1.1462l0.060327 0.19368c0.52706-0.25083 0.8668-0.77789 0.8668-1.3494 0-0.56516-0.33338-1.0795-0.85092-1.3177z"/>
  </g>
  <g aria-label="t">
   <path d="m59.961 45.612-0.02858 0.39054h-0.34608l-0.0032 0.18733h0.33973c-0.01905 0.24766-0.02858 0.49531-0.02858 0.73979 0 0.13018 0 0.27623 0.08573 0.39688 0.06985 0.09525 0.18098 0.1524 0.33021 0.1524 0.17145 0 0.33973-0.07303 0.46356-0.16193l-0.06985-0.18098c-0.12383 0.09208-0.23813 0.13335-0.32703 0.13335-0.10795 0-0.21908-0.06033-0.24448-0.23496 0-0.0127-0.0095-0.06668-0.0095-0.27941 0-0.18733 0.0095-0.37784 0.02858-0.56516h0.47626v-0.1905h-0.47309s0.02222-0.26036 0.0381-0.34291c0.0032-0.03175 0.02858-0.0508 0.01588-0.08573z" fill="#e8eaec" stroke-width=".42745px"/>
  </g>
  <g stroke-width=".42745px" aria-label="t2">
   <path d="m42.436 45.612-0.02858 0.39054h-0.34608l-0.0032 0.18733h0.33973c-0.01905 0.24766-0.02858 0.49531-0.02858 0.73979 0 0.13018 0 0.27623 0.08573 0.39688 0.06985 0.09525 0.18098 0.1524 0.33021 0.1524 0.17145 0 0.33973-0.07303 0.46356-0.16193l-0.06985-0.18098c-0.12383 0.09208-0.23813 0.13335-0.32703 0.13335-0.10795 0-0.21908-0.06033-0.24448-0.23496 0-0.0127-0.0095-0.06668-0.0095-0.27941 0-0.18733 0.0095-0.37784 0.02858-0.56516h0.47626v-0.1905h-0.47309s0.02222-0.26036 0.0381-0.34291c0.0032-0.03175 0.02858-0.0508 0.01588-0.08573z"/>
   <path d="m43.671 45.781 0.16193 0.13018c0.01905-0.02858 0.0095-0.04763 0.02858-0.07303 0.04763-0.07303 0.1651-0.18098 0.33656-0.18098 0.21273 0 0.38101 0.16193 0.38101 0.37466 0 0.24131-0.2032 0.41594-0.34608 0.54611-0.22543 0.20321-0.40958 0.40641-0.57469 0.73344v0.1397h1.1621v-0.21908c-0.02223-0.0095-0.0381 0.0063-0.04445 0.0127-0.0127 0.0127-0.01905 0.0127-0.03175 0.0127h-0.83187c0.1651-0.28576 0.39688-0.48261 0.53976-0.61597 0.14288-0.13653 0.34608-0.33973 0.34608-0.62549 0-0.30798-0.25083-0.55564-0.57152-0.55564-0.22543 0-0.43816 0.12065-0.55564 0.32068z"/>
  </g>
  <g stroke-width=".42745px" aria-label="t1">
   <path d="m21.491 45.612-0.02858 0.39054h-0.34608l-0.0032 0.18733h0.33973c-0.01905 0.24766-0.02858 0.49531-0.02858 0.73979 0 0.13018 0 0.27623 0.08573 0.39688 0.06985 0.09525 0.18098 0.1524 0.33021 0.1524 0.17145 0 0.33973-0.07303 0.46356-0.16193l-0.06985-0.18098c-0.12383 0.09208-0.23813 0.13335-0.32703 0.13335-0.10795 0-0.21908-0.06033-0.24448-0.23496 0-0.0127-0.0095-0.06668-0.0095-0.27941 0-0.18733 0.0095-0.37784 0.02858-0.56516h0.47626v-0.1905h-0.47309s0.02223-0.26036 0.0381-0.34291c0.0032-0.03175 0.02858-0.0508 0.01588-0.08573z"/>
   <path d="m23.424 45.473h-0.14605l-0.50801 0.26353 0.0508 0.12383 0.39371-0.11113v1.5304h-0.36831v0.17463h0.93348v-0.17463h-0.35561z"/>
  </g>
 </g>
 <g>
  <path d="m21.732 39.361h18.888" fill="none" stroke="#a6aeb8" stroke-width=".26459"/>
  <g fill="#e8eaec" stroke-width=".42745px" aria-label="∆t">
   <path d="m28.579 38.474 0.80307-2.2061h0.32402l0.80617 2.2061zm0.96431-1.8899-0.57052 1.6232h1.1426z"/>
   <path d="m31.095 36.636-0.02858 0.39054h-0.34608l-0.0032 0.18733h0.33973c-0.01905 0.24766-0.02858 0.49531-0.02858 0.73979 0 0.13018 0 0.27623 0.08573 0.39688 0.06985 0.09525 0.18098 0.1524 0.33021 0.1524 0.17146 0 0.33973-0.07303 0.46356-0.16193l-0.06985-0.18098c-0.12383 0.09208-0.23813 0.13335-0.32703 0.13335-0.10795 0-0.21908-0.06033-0.24448-0.23496 0-0.0127-0.0095-0.06668-0.0095-0.27941 0-0.18733 0.0095-0.37784 0.02858-0.56516h0.47626v-0.1905h-0.47309s0.02223-0.26036 0.0381-0.34291c0.0032-0.03175 0.02858-0.0508 0.01588-0.08573z"/>
  </g>
  <path d="m14.857 28.085v-8.3862" fill="none" stroke="#a6aeb8" stroke-width=".26459"/>
 </g>
 <g fill="#e8eaec" stroke-width=".42745px">
  <g aria-label="∆r">
   <path d="m15.327 24.706 0.80307-2.2061h0.32402l0.80617 2.2061zm0.96431-1.8899-0.57052 1.6232h1.1426z"/>
   <path d="m17.561 23.259v1.451h0.2286v-0.70487c0-0.0889 0.0032-0.18416 0.1016-0.33973 0.13335-0.20956 0.30481-0.24448 0.40958-0.24448 0.12065 0 0.19686 0.05715 0.23813 0.10795 0.01905 0.0254 0.02858 0.0508 0.05398 0.07303l0.10795-0.21908c-0.09208-0.09525-0.22543-0.15875-0.38736-0.15875-0.21273 0-0.42864 0.10795-0.52389 0.31433l0.0095-0.27941z"/>
  </g>
  <g aria-label="r(t2)">
   <path d="m43.436 4.1126v1.451h0.2286v-0.70487c0-0.088902 0.0032-0.18415 0.1016-0.33973 0.13335-0.20956 0.30481-0.24448 0.40958-0.24448 0.12065 0 0.19686 0.057151 0.23813 0.10795 0.01905 0.025401 0.02858 0.050801 0.05398 0.073027l0.10795-0.21908c-0.09208-0.095252-0.22543-0.15875-0.38736-0.15875-0.21273 0-0.42864 0.10795-0.52389 0.31433l0.0095-0.27941z"/>
   <path d="m45.95 3.4458c-0.48896 0.21591-0.8033 0.71439-0.8033 1.2954 0 0.57786 0.30481 1.1049 0.80647 1.3685l0.10478-0.16828c-0.43499-0.25083-0.68899-0.71757-0.68899-1.2097 0-0.45404 0.21908-0.86045 0.59056-1.0764 0.0063-0.00635 0.01588-0.0127 0.02858-0.0127 0.0095 0 0.01905 0.00635 0.03175 0.00635 0.0064 0 0.01588-0.00318 0.02858-0.00635z"/>
   <path d="m46.893 3.7221-0.02858 0.39053h-0.34608l-0.0032 0.18733h0.33973c-0.01905 0.24766-0.02858 0.49531-0.02858 0.73979 0 0.13018 0 0.27623 0.08573 0.39688 0.06985 0.095252 0.18098 0.1524 0.33021 0.1524 0.17145 0 0.33973-0.073027 0.46356-0.16193l-0.06985-0.18098c-0.12383 0.092077-0.23813 0.13335-0.32703 0.13335-0.10795 0-0.21908-0.060326-0.24448-0.23496 0-0.0127-0.0095-0.066677-0.0095-0.27941 0-0.18733 0.0095-0.37783 0.02858-0.56516h0.47626v-0.1905h-0.47309s0.02222-0.26036 0.0381-0.34291c0.0032-0.031751 0.02858-0.050801 0.01588-0.085727z"/>
   <path d="m48.128 3.8903 0.16193 0.13018c0.01905-0.028576 0.0095-0.047626 0.02858-0.073027 0.04763-0.073027 0.1651-0.18098 0.33656-0.18098 0.21273 0 0.38101 0.16193 0.38101 0.37466 0 0.24131-0.2032 0.41594-0.34608 0.54611-0.22543 0.20321-0.40958 0.40641-0.57469 0.73344v0.1397h1.1621v-0.21908c-0.02223-0.00953-0.0381 0.00635-0.04445 0.0127-0.0127 0.0127-0.01905 0.0127-0.03175 0.0127h-0.83187c0.1651-0.28576 0.39688-0.48261 0.53976-0.61597 0.14288-0.13653 0.34608-0.33973 0.34608-0.62549 0-0.30798-0.25083-0.55564-0.57151-0.55564-0.22543 0-0.43816 0.12065-0.55564 0.32068z"/>
   <path d="m49.716 3.6458c0.41911 0.22543 0.68582 0.65724 0.68582 1.1303 0 0.47626-0.27306 0.92077-0.70169 1.1462l0.06033 0.19368c0.52706-0.25083 0.8668-0.77789 0.8668-1.3494 0-0.56516-0.33338-1.0795-0.85092-1.3177z"/>
  </g>
  <g aria-label="approx r(t2)">
   <path d="m43.407 19.669 0.11113 0.14605c0.12065-0.12383 0.28258-0.16193 0.41911-0.16193 0.17146 0 0.25718 0.07303 0.29846 0.1397 0.04763 0.07938 0.04445 0.17463 0.04445 0.25083v0.0508h-0.04445c-0.21591 0-0.44451 0-0.62867 0.06668-0.22861 0.08255-0.33021 0.25401-0.33021 0.41276 0 0.21273 0.18415 0.41276 0.48579 0.41276 0.1778 0 0.36196-0.06668 0.52071-0.19686v0.15875h0.2159v-0.89855c0-0.11748-0.0032-0.22861-0.06985-0.34291-0.09525-0.15558-0.27941-0.23813-0.50484-0.23813-0.19368 0-0.38101 0.06033-0.51754 0.20003zm0.88267 0.60009v0.09843c0 0.07303 0 0.16828-0.09843 0.27306-0.05398 0.05398-0.1905 0.17146-0.38101 0.17146-0.19368 0-0.30481-0.12383-0.30481-0.25083 0-0.10795 0.07303-0.22543 0.25401-0.26988 0.13335-0.03175 0.32703-0.02223 0.47944-0.02223z"/>
   <path d="m44.896 19.501 0.0032 1.9781h0.23178v-0.72074c0.09843 0.14288 0.26036 0.23178 0.43499 0.23178 0.29846 0 0.60962-0.25083 0.60962-0.78107 0-0.51119-0.30163-0.73979-0.58739-0.73979-0.18733 0-0.36196 0.09525-0.46039 0.25401v-0.22226zm0.60644 0.16193c0.127 0 0.43499 0.06668 0.43499 0.59374 0 0.45721-0.29846 0.53024-0.43499 0.53024-0.13653 0-0.27623-0.06985-0.33338-0.20003-0.04128-0.09843-0.04128-0.21908-0.04128-0.42864 0-0.12065 0.0063-0.20956 0.0381-0.28576 0.05715-0.13018 0.1905-0.20956 0.33656-0.20956z"/>
   <path d="m46.484 19.501 0.0032 1.9781h0.23178v-0.72074c0.09843 0.14288 0.26036 0.23178 0.43499 0.23178 0.29846 0 0.60962-0.25083 0.60962-0.78107 0-0.51119-0.30163-0.73979-0.58739-0.73979-0.18733 0-0.36196 0.09525-0.46039 0.25401v-0.22226zm0.60644 0.16193c0.127 0 0.43499 0.06668 0.43499 0.59374 0 0.45721-0.29846 0.53024-0.43499 0.53024-0.13653 0-0.27623-0.06985-0.33338-0.20003-0.04128-0.09843-0.04128-0.21908-0.04128-0.42864 0-0.12065 0.0063-0.20956 0.0381-0.28576 0.05715-0.13018 0.1905-0.20956 0.33656-0.20956z"/>
   <path d="m48.198 19.501v1.451h0.2286v-0.70487c0-0.0889 0.0032-0.18416 0.1016-0.33973 0.13335-0.20956 0.30481-0.24448 0.40958-0.24448 0.12065 0 0.19686 0.05715 0.23813 0.10795 0.01905 0.0254 0.02858 0.0508 0.05398 0.07303l0.10795-0.21908c-0.09208-0.09525-0.22543-0.15875-0.38736-0.15875-0.21273 0-0.42864 0.10795-0.52389 0.31433l0.0095-0.27941z"/>
   <path d="m50.932 20.231c0-0.50166-0.31751-0.76202-0.64772-0.76202-0.36831 0-0.68582 0.31751-0.68582 0.76837 0 0.44134 0.31433 0.75249 0.67947 0.75249 0.34291 0 0.65407-0.27623 0.65407-0.75884zm-0.66359-0.56834c0.20956 0 0.43181 0.18098 0.43181 0.57786 0 0.36514-0.20956 0.54929-0.41911 0.54929-0.23178 0-0.44134-0.2159-0.44134-0.57469 0-0.35561 0.20638-0.55246 0.42864-0.55246z"/>
   <path d="m52.208 19.498-0.36196 0.53659-0.38101-0.53659h-0.24766l0.49849 0.71439-0.50801 0.73662h0.25718l0.37784-0.56199 0.40006 0.56199h0.26036l-0.53341-0.74297 0.46991-0.70804z"/>
   <path d="m54.548 19.501v1.451h0.22861v-0.70487c0-0.0889 0.0032-0.18416 0.1016-0.33973 0.13335-0.20956 0.30481-0.24448 0.40958-0.24448 0.12065 0 0.19686 0.05715 0.23813 0.10795 0.01905 0.0254 0.02858 0.0508 0.05398 0.07303l0.10795-0.21908c-0.09208-0.09525-0.22543-0.15875-0.38736-0.15875-0.21273 0-0.42864 0.10795-0.52389 0.31433l0.0095-0.27941z"/>
   <path d="m57.063 18.834c-0.48896 0.2159-0.8033 0.71439-0.8033 1.2954 0 0.57786 0.30481 1.1049 0.80647 1.3685l0.10478-0.16828c-0.43499-0.25083-0.68899-0.71757-0.68899-1.2097 0-0.45404 0.21908-0.86045 0.59056-1.0764 0.0064-0.0063 0.01588-0.0127 0.02858-0.0127 0.0095 0 0.01905 0.0064 0.03175 0.0064 0.0064 0 0.01588-0.0032 0.02858-0.0064z"/>
   <path d="m58.006 19.11-0.02858 0.39054h-0.34608l-0.0032 0.18733h0.33973c-0.01905 0.24766-0.02858 0.49531-0.02858 0.73979 0 0.13018 0 0.27623 0.08573 0.39688 0.06985 0.09525 0.18098 0.1524 0.33021 0.1524 0.17146 0 0.33973-0.07303 0.46356-0.16193l-0.06985-0.18098c-0.12383 0.09208-0.23813 0.13335-0.32703 0.13335-0.10795 0-0.21908-0.06033-0.24448-0.23496 0-0.0127-0.0095-0.06668-0.0095-0.27941 0-0.18733 0.0095-0.37784 0.02857-0.56516h0.47626v-0.1905h-0.47309s0.02222-0.26036 0.0381-0.34291c0.0032-0.03175 0.02858-0.0508 0.01588-0.08573z"/>
   <path d="m59.241 19.279 0.16193 0.13018c0.01905-0.02858 0.0095-0.04763 0.02858-0.07303 0.04763-0.07303 0.1651-0.18098 0.33656-0.18098 0.21273 0 0.38101 0.16193 0.38101 0.37466 0 0.24131-0.2032 0.41594-0.34608 0.54611-0.22543 0.2032-0.40959 0.40641-0.57469 0.73344v0.1397h1.1621v-0.21908c-0.02222-0.0095-0.0381 0.0064-0.04445 0.0127-0.0127 0.0127-0.01905 0.0127-0.03175 0.0127h-0.83187c0.1651-0.28576 0.39688-0.48261 0.53976-0.61596 0.14288-0.13653 0.34608-0.33973 0.34608-0.62549 0-0.30798-0.25083-0.55564-0.57152-0.55564-0.22543 0-0.43816 0.12065-0.55564 0.32068z"/>
   <path d="m60.829 19.034c0.41911 0.22543 0.68582 0.65724 0.68582 1.1303 0 0.47626-0.27306 0.92077-0.70169 1.1462l0.06033 0.19368c0.52706-0.25083 0.8668-0.77789 0.8668-1.3494 0-0.56516-0.33338-1.0795-0.85092-1.3177z"/>
  </g>
  <g aria-label="∆r/∆t=v(t1)">
   <path d="m44.528 31.525 0.80307-2.2061h0.32402l0.80617 2.2061zm0.96431-1.8899-0.57052 1.6232h1.1426z"/>
   <path d="m46.762 30.077v1.451h0.2286v-0.70487c0-0.0889 0.0032-0.18415 0.1016-0.33973 0.13335-0.20956 0.30481-0.24448 0.40958-0.24448 0.12065 0 0.19686 0.05715 0.23813 0.10795 0.01905 0.0254 0.02858 0.0508 0.05398 0.07303l0.10795-0.21908c-0.09208-0.09525-0.22543-0.15875-0.38736-0.15875-0.21273 0-0.42864 0.10795-0.52389 0.31433l0.0095-0.27941z"/>
   <path d="m48.235 31.566 0.18733 0.09525 0.99698-2.1495-0.18733-0.09525z"/>
   <path d="m49.613 31.525 0.80307-2.2061h0.32402l0.80617 2.2061zm0.96431-1.8899-0.57052 1.6232h1.1426z"/>
   <path d="m52.129 29.687-0.02858 0.39054h-0.34608l-0.0032 0.18733h0.33973c-0.01905 0.24766-0.02858 0.49531-0.02858 0.73979 0 0.13018 0 0.27623 0.08573 0.39688 0.06985 0.09525 0.18098 0.1524 0.33021 0.1524 0.17145 0 0.33973-0.07303 0.46356-0.16193l-0.06985-0.18098c-0.12383 0.09208-0.23813 0.13335-0.32703 0.13335-0.10795 0-0.21908-0.06033-0.24448-0.23496 0-0.0127-0.0095-0.06668-0.0095-0.27941 0-0.18733 0.0095-0.37784 0.02858-0.56516h0.47626v-0.1905h-0.47309s0.02222-0.26036 0.0381-0.34291c0.0032-0.03175 0.02858-0.0508 0.01588-0.08573z"/>
   <path d="m53.26 30.134v0.19368h1.305v-0.19368zm0 0.65724v0.19368h1.305v-0.19368z"/>
   <path d="m54.831 30.074 0.57469 1.4637h0.18098l0.35243-0.8287c0.08573-0.2032 0.16828-0.41276 0.2159-0.63502h-0.20638c-0.0381 0.21273-0.1143 0.41276-0.19686 0.60327l-0.23178 0.53976-0.41911-1.0605c-0.0032-0.0064-0.0064-0.0127-0.0064-0.01905 0-0.01905 0.01588-0.0381 0.0095-0.0635z"/>
   <path d="m57.536 29.411c-0.48896 0.2159-0.8033 0.71439-0.8033 1.2954 0 0.57786 0.30481 1.1049 0.80647 1.3685l0.10478-0.16828c-0.43499-0.25083-0.68899-0.71757-0.68899-1.2097 0-0.45404 0.21908-0.86045 0.59056-1.0764 0.0064-0.0064 0.01588-0.0127 0.02858-0.0127 0.0095 0 0.01905 0.0064 0.03175 0.0064 0.0064 0 0.01588-0.0032 0.02858-0.0064z"/>
   <path d="m58.479 29.687-0.02858 0.39054h-0.34608l-0.0032 0.18733h0.33973c-0.01905 0.24766-0.02857 0.49531-0.02857 0.73979 0 0.13018 0 0.27623 0.08573 0.39688 0.06985 0.09525 0.18098 0.1524 0.33021 0.1524 0.17145 0 0.33973-0.07303 0.46356-0.16193l-0.06985-0.18098c-0.12383 0.09208-0.23813 0.13335-0.32703 0.13335-0.10795 0-0.21908-0.06033-0.24448-0.23496 0-0.0127-0.0095-0.06668-0.0095-0.27941 0-0.18733 0.0095-0.37784 0.02858-0.56516h0.47626v-0.1905h-0.47309s0.02223-0.26036 0.0381-0.34291c0.0032-0.03175 0.02858-0.0508 0.01588-0.08573z"/>
   <path d="m60.413 29.547h-0.14605l-0.50801 0.26353 0.0508 0.12383 0.39371-0.11113v1.5304h-0.36831v0.17463h0.93347v-0.17463h-0.35561z"/>
   <path d="m61.302 29.611c0.41911 0.22543 0.68582 0.65724 0.68582 1.1303 0 0.47626-0.27306 0.92077-0.70169 1.1462l0.06033 0.19368c0.52706-0.25083 0.8668-0.7779 0.8668-1.3494 0-0.56516-0.33338-1.0795-0.85092-1.3177z"/>
  </g>
  <g aria-label="r(t1)">
   <path d="m22.063 30.615v1.451h0.22861v-0.70487c0-0.0889 0.0032-0.18415 0.1016-0.33973 0.13335-0.20956 0.30481-0.24448 0.40958-0.24448 0.12065 0 0.19686 0.05715 0.23813 0.10795 0.01905 0.0254 0.02858 0.0508 0.05398 0.07303l0.10795-0.21908c-0.09208-0.09525-0.22543-0.15875-0.38736-0.15875-0.21273 0-0.42864 0.10795-0.52389 0.31433l0.0095-0.27941z"/>
   <path d="m24.577 29.948c-0.48896 0.2159-0.8033 0.71439-0.8033 1.2954 0 0.57786 0.30481 1.1049 0.80647 1.3685l0.10478-0.16828c-0.43499-0.25083-0.68899-0.71757-0.68899-1.2097 0-0.45404 0.21908-0.86045 0.59056-1.0764 0.0064-0.0063 0.01588-0.0127 0.02858-0.0127 0.0095 0 0.01905 0.0064 0.03175 0.0064 0.0064 0 0.01588-0.0032 0.02858-0.0064z"/>
   <path d="m25.52 30.224-0.02858 0.39054h-0.34608l-0.0032 0.18733h0.33973c-0.01905 0.24766-0.02858 0.49531-0.02858 0.73979 0 0.13018 0 0.27623 0.08573 0.39688 0.06985 0.09525 0.18098 0.1524 0.33021 0.1524 0.17145 0 0.33973-0.07303 0.46356-0.16193l-0.06985-0.18098c-0.12383 0.09208-0.23813 0.13335-0.32703 0.13335-0.10795 0-0.21908-0.06033-0.24448-0.23496 0-0.0127-0.0095-0.06668-0.0095-0.27941 0-0.18733 0.0095-0.37784 0.02858-0.56516h0.47626v-0.1905h-0.47309s0.02222-0.26036 0.0381-0.34291c0.0032-0.03175 0.02858-0.0508 0.01587-0.08573z"/>
   <path d="m27.454 30.084h-0.14605l-0.50801 0.26353 0.0508 0.12383 0.39371-0.11113v1.5304h-0.36831v0.17463h0.93347v-0.17463h-0.35561z"/>
   <path d="m28.343 30.148c0.41911 0.22543 0.68582 0.65724 0.68582 1.1303 0 0.47626-0.27306 0.92077-0.70169 1.1462l0.06033 0.19368c0.52706-0.25083 0.8668-0.7779 0.8668-1.3494 0-0.56516-0.33338-1.0795-0.85092-1.3177z"/>
  </g>
 </g>
 <path d="m20.675 46.137v-16.721h-12.038" fill="none" stroke="#6f8ce9" stroke-dasharray="0.132295, 0.396885" stroke-linecap="square" stroke-width=".1323"/>
 <circle cx="20.626" cy="29.432" r=".42745" fill="#e8eaec"/>
 <path d="m41.27 46.383v-40.357" fill="none" stroke="#6f8ce9" stroke-dasharray="0.132295, 0.396885" stroke-linecap="square" stroke-width=".1323"/>
 <circle cx="41.172" cy="6.0199" r=".42745" fill="#e8eaec"/>
 <path d="m41.344 18.849h-32.756" fill="none" stroke="#6f8ce9" stroke-dasharray="0.132295, 0.396885" stroke-linecap="square" stroke-width=".1323"/>
 <g fill="#e8eaec">
  <circle cx="41.246" cy="18.817" r=".42745"/>
  <g stroke-width="201.8">
   <g transform="matrix(0 -.0035872 -.0036486 0 11.143 3.3393)">
    <g fill="#e8eaec" stroke-width="201.8">
     <path d="m486.41 221.41-364.07-208.5c-52.938-30.318-95.852-5.44-95.852 55.563v415.65c0 61.004 42.914 85.882 95.852 55.563l364.07-208.49c52.938-30.317 52.938-79.473 0-109.79z" fill="#e8eaec" stroke-width="201.8"/>
    </g>
   </g>
   <g transform="matrix(.0035872 0 0 -.0036486 59.68 44.588)">
    <g fill="#e8eaec" stroke-width="201.8">
     <path d="m486.41 221.41-364.07-208.5c-52.938-30.318-95.852-5.44-95.852 55.563v415.65c0 61.004 42.914 85.882 95.852 55.563l364.07-208.49c52.938-30.317 52.938-79.473 0-109.79z" fill="#e8eaec" stroke-width="201.8"/>
    </g>
   </g>
   <g transform="matrix(0 .0026002 -.0026447 0 15.577 27.937)">
    <g fill="#e8eaec" stroke-width="201.8">
     <path d="m486.41 221.41-364.07-208.5c-52.938-30.318-95.852-5.44-95.852 55.563v415.65c0 61.004 42.914 85.882 95.852 55.563l364.07-208.49c52.938-30.317 52.938-79.473 0-109.79z" fill="#e8eaec" stroke-width="201.8"/>
    </g>
   </g>
   <g transform="matrix(0 -.0026002 -.0026447 0 15.577 20.378)">
    <g fill="#e8eaec" stroke-width="201.8">
     <path d="m486.41 221.41-364.07-208.5c-52.938-30.318-95.852-5.44-95.852 55.563v415.65c0 61.004 42.914 85.882 95.852 55.563l364.07-208.49c52.938-30.317 52.938-79.473 0-109.79z" fill="#e8eaec" stroke-width="201.8"/>
    </g>
   </g>
   <g transform="matrix(.0013001 .0022518 -.0022904 .0013224 21.936 38.505)">
    <g fill="#e8eaec" stroke-width="201.8">
     <path d="m486.41 221.41-364.07-208.5c-52.938-30.318-95.852-5.44-95.852 55.563v415.65c0 61.004 42.914 85.882 95.852 55.563l364.07-208.49c52.938-30.317 52.938-79.473 0-109.79z" fill="#e8eaec" stroke-width="201.8"/>
    </g>
   </g>
   <g transform="matrix(-.0013001 .0022518 .0022904 .0013224 39.971 38.505)">
    <g fill="#e8eaec" stroke-width="201.8">
     <path d="m486.41 221.41-364.07-208.5c-52.938-30.318-95.852-5.44-95.852 55.563v415.65c0 61.004 42.914 85.882 95.852 55.563l364.07-208.49c52.938-30.317 52.938-79.473 0-109.79z" fill="#e8eaec" stroke-width="201.8"/>
    </g>
   </g>
  </g>
 </g>
</svg>
