<?xml version="1.0" encoding="UTF-8"?>
<svg width="129.16mm" height="67.176mm" version="1.1" viewBox="0 0 129.16 67.176" xmlns="http://www.w3.org/2000/svg" xmlns:cc="http://creativecommons.org/ns#" xmlns:dc="http://purl.org/dc/elements/1.1/" xmlns:rdf="http://www.w3.org/1999/02/22-rdf-syntax-ns#">
 <metadata>
  <rdf:RDF>
   <cc:Work rdf:about="">
    <dc:format>image/svg+xml</dc:format>
    <dc:type rdf:resource="http://purl.org/dc/dcmitype/StillImage"/>
    <dc:title/>
   </cc:Work>
  </rdf:RDF>
 </metadata>
 <g transform="translate(-39.843 -25.9)">
  <path d="m63.035 91.092c1.4e-5 -22.859 18.531-41.389 41.389-41.389 22.859-7e-6 41.389 18.094 41.389 43.241" fill="none" stroke="#6f8ce9" stroke-linecap="round" stroke-width=".26458"/>
  <g fill="#6f8ce9" fill-rule="evenodd" stroke="#e9e56f" stroke-width=".52917">
   <path d="m143.78 80.558-4.0308 1.0801"/>
   <path d="m139.72 70.732-3.6139 2.0865"/>
   <path d="m133.25 62.294-2.9508 2.9508"/>
   <path d="m124.81 55.818-2.0865 3.6139"/>
  </g>
  <g fill="#f6c9a0" fill-rule="evenodd" stroke="#6f8ce9" stroke-width=".52917">
   <path d="m114.99 51.746-1.0801 4.0308"/>
   <path d="m104.44 50.355v4.173"/>
   <path d="m93.901 51.741 1.0801 4.0308"/>
  </g>
  <path d="m84.075 55.808 2.0866 3.6139" fill="#6f8ce9" fill-rule="evenodd" stroke="#6f8ce9" stroke-width=".52917"/>
  <path d="m75.637 62.279 2.9508 2.9508" fill="#f6c9a0" fill-rule="evenodd" stroke="#6f8ce9" stroke-width=".52917"/>
  <g fill="#6f8ce9" fill-rule="evenodd">
   <g stroke="#6f8ce9" stroke-width=".52917">
    <path d="m69.161 70.714 3.614 2.0865"/>
    <path d="m65.089 80.538 4.0308 1.08"/>
    <path d="m63.698 91.081 4.1731-2.6e-5"/>
   </g>
   <g stroke="#e9e56f" stroke-width=".26458">
    <path d="m144.67 84.697-3.1395 0.49734"/>
    <path d="m144.28 82.599-3.1091 0.66111"/>
    <path d="m143.18 78.479-3.023 0.98234"/>
    <path d="m142.46 76.468-2.9673 1.1394"/>
    <path d="m141.65 74.497-2.9038 1.293"/>
    <path d="m140.73 72.571-2.832 1.4433"/>
    <path d="m138.6 68.877-2.6657 1.7313"/>
    <path d="m137.39 67.119-2.5713 1.8686"/>
    <path d="m136.09 65.426-2.4703 2.0005"/>
    <path d="m134.7 63.804-2.362 2.1271"/>
    <path d="m131.69 60.788-2.1268 2.3622"/>
    <path d="m130.06 59.403-2.0001 2.4704"/>
    <path d="m128.37 58.104-1.8683 2.5717"/>
    <path d="m126.61 56.896-1.731 2.6659"/>
    <path d="m122.92 54.763-1.4429 2.8322"/>
    <path d="m120.99 53.845-1.2925 2.9039"/>
    <path d="m119.02 53.028-1.139 2.9676"/>
    <path d="m117.01 52.316-0.98198 3.0231"/>
   </g>
  </g>
  <g fill="#f6c9a0" fill-rule="evenodd" stroke="#6f8ce9" stroke-width=".26458">
   <path d="m112.89 51.213-0.66071 3.1091"/>
   <path d="m110.79 50.824-0.49692 3.1395"/>
   <path d="m108.68 50.546-0.33217 3.1613"/>
   <path d="m106.55 50.379-0.16608 3.1743"/>
   <path d="m102.28 50.379 0.1665 3.1742"/>
   <path d="m100.16 50.547 0.33258 3.1611"/>
   <path d="m98.042 50.825 0.49734 3.1395"/>
   <path d="m95.945 51.214 0.66113 3.1091"/>
   <path d="m91.824 52.318 0.98236 3.0229"/>
   <path d="m89.813 53.031 1.1394 2.9673"/>
  </g>
  <g fill="#6f8ce9" fill-rule="evenodd" stroke="#6f8ce9" stroke-width=".26458">
   <path d="m87.842 53.847 1.293 2.9039"/>
   <path d="m85.917 54.766 1.4433 2.832"/>
   <path d="m82.223 56.899 1.7313 2.6657"/>
   <path d="m80.465 58.108 1.8686 2.5713"/>
   <path d="m78.772 59.407 2.0005 2.4703"/>
  </g>
  <path d="m77.15 60.793 2.1271 2.362" fill="#f6c9a0" fill-rule="evenodd" stroke="#6f8ce9" stroke-width=".26458"/>
  <path d="m74.134 63.809 2.3622 2.1267" fill="#f6c9a0" fill-rule="evenodd" stroke="#6f8ce9" stroke-width=".26458"/>
  <g fill="#6f8ce9">
   <g fill-rule="evenodd" stroke="#6f8ce9" stroke-width=".26458">
    <path d="m72.748 65.431 2.4704 2"/>
    <path d="m71.449 67.124 2.5717 1.8683"/>
    <path d="m70.241 68.883 2.6659 1.731"/>
    <path d="m68.109 72.577 2.8321 1.4429"/>
    <path d="m67.19 74.503 2.9039 1.2925"/>
    <path d="m66.374 76.474 2.9676 1.1391"/>
    <path d="m65.662 78.485 3.0231 0.98197"/>
    <path d="m64.558 82.605 3.1091 0.66074"/>
    <path d="m64.17 84.703 3.1395 0.49689"/>
    <path d="m63.891 86.819 3.1612 0.33216"/>
    <path d="m63.724 88.945 3.1742 0.16608"/>
   </g>
   <g stroke-width="1.0667px">
    <g transform="matrix(.26458 0 0 .26458 292 -205.25)" aria-label="1960">
     <path d="m-840.66 1121.8h5.4853v-1.0361h-2.0113v-8.685h-0.95992c-0.5333 0.3199-1.1732 0.5637-2.057 0.7161v0.8076h1.7675v7.1613h-2.2246z"/>
     <path d="m-830.72 1117c-1.2037 0-1.798-0.7923-1.798-2.057 0-1.2799 0.74661-2.1332 1.6913-2.1332 1.2342 0 1.9808 1.0057 2.1484 2.895-0.65519 0.9295-1.417 1.2952-2.0418 1.2952zm-2.8036 3.8854c0.5333 0.579 1.3104 1.0209 2.3465 1.0209 1.9351 0 3.7026-1.5085 3.7026-5.4091 0-3.1236-1.4323-4.6778-3.3521-4.6778-1.5542 0-2.8645 1.2647-2.8645 3.1236 0 1.996 1.0818 3.0017 2.7579 3.0017 0.80755 0 1.6761-0.4724 2.2855-1.2495-0.0457 3.1084-1.2037 4.1749-2.575 4.1749-0.60948 0-1.2037-0.3047-1.5999-0.777z"/>
     <path d="m-822.66 1121c-1.2342 0-1.9808-1.0209-2.1332-2.9103 0.65518-0.9142 1.417-1.2799 2.0265-1.2799 1.2037 0 1.798 0.7923 1.798 2.057 0 1.2799-0.73137 2.1332-1.6913 2.1332zm2.6969-8.0604c-0.54852-0.5942-1.2951-1.0361-2.3465-1.0361-1.9351 0-3.7026 1.5085-3.7026 5.4091 0 3.1236 1.4475 4.6778 3.3521 4.6778 1.5694 0 2.8798-1.2647 2.8798-3.1236 0-1.996-1.0971-3.0017-2.7731-3.0017-0.79232 0-1.6608 0.4724-2.2703 1.219 0.061-3.0779 1.2037-4.1292 2.5598-4.1292 0.60948 0 1.2037 0.2895 1.5999 0.7618z"/>
     <path d="m-815.39 1122c1.9351 0 3.1083-1.8132 3.1083-5.0739s-1.1732-5.013-3.1083-5.013c-1.9503 0-3.1236 1.7523-3.1236 5.013s1.1732 5.0739 3.1236 5.0739zm0-1.0057c-1.1428 0-1.9046-1.2189-1.9046-4.0682s0.76184-4.0073 1.9046-4.0073c1.1275 0 1.8894 1.158 1.8894 4.0073s-0.76185 4.0682-1.8894 4.0682z"/>
    </g>
    <g transform="matrix(.26458 0 0 .26458 292 -205.25)" aria-label="1970">
     <path d="m-823.82 1056.8h5.4853v-1.0361h-2.0113v-8.685h-0.95993c-0.53329 0.3199-1.1732 0.5637-2.057 0.7161v0.8076h1.7675v7.1613h-2.2246z"/>
     <path d="m-813.88 1052c-1.2037 0-1.798-0.7923-1.798-2.057 0-1.2799 0.7466-2.1332 1.6913-2.1332 1.2342 0 1.9808 1.0057 2.1484 2.895-0.65518 0.9295-1.417 1.2952-2.0417 1.2952zm-2.8036 3.8854c0.53329 0.579 1.3104 1.0209 2.3465 1.0209 1.9351 0 3.7026-1.5085 3.7026-5.4091 0-3.1236-1.4323-4.6778-3.3521-4.6778-1.5542 0-2.8645 1.2647-2.8645 3.1236 0 1.996 1.0818 3.0017 2.7579 3.0017 0.80756 0 1.6761-0.4724 2.2855-1.2495-0.0457 3.1084-1.2037 4.1749-2.575 4.1749-0.60947 0-1.2037-0.3047-1.5999-0.777z"/>
     <path d="m-807.21 1056.8h1.2951c0.1676-3.794 0.63995-6.0033 2.9407-8.944v-0.7771h-6.2624v1.0818h4.8453c-1.9198 2.6664-2.6512 4.9825-2.8188 8.6393z"/>
     <path d="m-798.55 1056.9c1.9351 0 3.1083-1.8132 3.1083-5.0739s-1.1732-5.013-3.1083-5.013c-1.9503 0-3.1236 1.7523-3.1236 5.013s1.1732 5.0739 3.1236 5.0739zm0-1.0057c-1.1428 0-1.9046-1.2189-1.9046-4.0682s0.76184-4.0073 1.9046-4.0073c1.1275 0 1.8894 1.158 1.8894 4.0073s-0.76184 4.0682-1.8894 4.0682z"/>
    </g>
    <g transform="matrix(.26458 0 0 .26458 292 -205.25)" aria-label="1980">
     <path d="m-777.57 1012h5.4853v-1.0361h-2.0113v-8.685h-0.95992c-0.53329 0.3199-1.1732 0.5637-2.057 0.7161v0.8076h1.7675v7.1613h-2.2246z"/>
     <path d="m-767.64 1007.3c-1.2037 0-1.798-0.7923-1.798-2.057 0-1.2799 0.74661-2.1332 1.6913-2.1332 1.2342 0 1.9808 1.0057 2.1484 2.895-0.65518 0.9295-1.417 1.2952-2.0417 1.2952zm-2.8036 3.8854c0.53329 0.579 1.3104 1.0209 2.3465 1.0209 1.9351 0 3.7026-1.5085 3.7026-5.4091 0-3.1236-1.4323-4.6778-3.3521-4.6778-1.5542 0-2.8645 1.2647-2.8645 3.1236 0 1.996 1.0818 3.0017 2.7579 3.0017 0.80756 0 1.6761-0.4724 2.2855-1.2495-0.0457 3.1084-1.2037 4.1749-2.575 4.1749-0.60948 0-1.2037-0.3047-1.5999-0.777z"/>
     <path d="m-761.91 1009.4c0-0.8837 0.579-1.5999 1.3561-2.1179 1.4018 0.5637 2.636 1.0208 2.636 2.2703 0 1.0056-0.77708 1.7065-1.9046 1.7065-1.1885 0-2.0875-0.7771-2.0875-1.8589zm2.7426-2.6969c-1.1732-0.4571-2.2398-0.9447-2.2398-2.1027 0-0.9447 0.67042-1.5694 1.5694-1.5694 1.0666 0 1.6913 0.7618 1.6913 1.7217 0 0.7162-0.36569 1.3714-1.0209 1.9504zm-3.8702 2.8188c0 1.5389 1.3561 2.6665 3.1845 2.6665 1.8894 0 3.1388-1.1428 3.1388-2.5903 0-1.3104-0.82279-1.9961-1.6913-2.4989v-0.061c0.59424-0.4571 1.3408-1.3256 1.3408-2.3465 0-1.5085-1.0514-2.5903-2.7426-2.5903-1.5694 0-2.7579 1.0057-2.7579 2.4989 0 1.0208 0.63995 1.737 1.3561 2.2398v0.061c-0.91422 0.4876-1.8284 1.3561-1.8284 2.6208z"/>
     <path d="m-752.31 1012.2c1.9351 0 3.1083-1.8132 3.1083-5.0739s-1.1732-5.013-3.1083-5.013c-1.9503 0-3.1236 1.7523-3.1236 5.013s1.1732 5.0739 3.1236 5.0739zm0-1.0057c-1.1428 0-1.9046-1.2189-1.9046-4.0682s0.76185-4.0073 1.9046-4.0073c1.1275 0 1.8894 1.158 1.8894 4.0073s-0.76184 4.0682-1.8894 4.0682z"/>
    </g>
    <g transform="matrix(.26458 0 0 .26458 292 -205.25)" aria-label="1990">
     <path d="m-723.09 997.71h5.4853v-1.0361h-2.0113v-8.685h-0.95992c-0.53329 0.31997-1.1732 0.56376-2.057 0.71613v0.80756h1.7675v7.1613h-2.2246z"/>
     <path d="m-713.15 992.99c-1.2037 0-1.798-0.79232-1.798-2.057 0-1.2799 0.74661-2.1332 1.6913-2.1332 1.2342 0 1.9808 1.0056 2.1484 2.895-0.65518 0.92945-1.417 1.2951-2.0417 1.2951zm-2.8036 3.8854c0.53329 0.579 1.3104 1.0209 2.3465 1.0209 1.9351 0 3.7026-1.5084 3.7026-5.4091 0-3.1236-1.4323-4.6777-3.3521-4.6777-1.5542 0-2.8645 1.2647-2.8645 3.1236 0 1.996 1.0818 3.0017 2.7579 3.0017 0.80756 0 1.6761-0.47235 2.2855-1.2494-0.0457 3.1083-1.2037 4.1749-2.575 4.1749-0.60948 0-1.2037-0.30473-1.5999-0.77708z"/>
     <path d="m-705.59 992.99c-1.2037 0-1.798-0.79232-1.798-2.057 0-1.2799 0.74661-2.1332 1.6913-2.1332 1.2342 0 1.9808 1.0056 2.1484 2.895-0.65518 0.92945-1.417 1.2951-2.0417 1.2951zm-2.8036 3.8854c0.53329 0.579 1.3104 1.0209 2.3465 1.0209 1.9351 0 3.7026-1.5084 3.7026-5.4091 0-3.1236-1.4323-4.6777-3.3521-4.6777-1.5542 0-2.8645 1.2647-2.8645 3.1236 0 1.996 1.0818 3.0017 2.7579 3.0017 0.80756 0 1.6761-0.47235 2.2855-1.2494-0.0457 3.1083-1.2037 4.1749-2.575 4.1749-0.60948 0-1.2037-0.30473-1.5999-0.77708z"/>
     <path d="m-697.82 997.89c1.9351 0 3.1083-1.8132 3.1083-5.0739 0-3.2607-1.1732-5.0129-3.1083-5.0129-1.9503 0-3.1236 1.7522-3.1236 5.0129 0 3.2607 1.1732 5.0739 3.1236 5.0739zm0-1.0056c-1.1428 0-1.9046-1.219-1.9046-4.0683s0.76185-4.0073 1.9046-4.0073c1.1275 0 1.8894 1.158 1.8894 4.0073s-0.76184 4.0683-1.8894 4.0683z"/>
    </g>
   </g>
  </g>
  <g fill="#e9e56f" stroke-width="1.0667px">
   <g transform="matrix(.26458 0 0 .26458 292 -205.25)" aria-label="2020">
    <path d="m-603.15 1121.8h6.2776v-1.0819h-2.8188c-0.50282 0-1.097 0.046-1.6304 0.091 2.3008-2.4075 3.9616-4.2207 3.9616-6.0491 0-1.7218-1.1123-2.8645-2.9102-2.8645-1.2647 0-2.1332 0.5942-2.9407 1.478l0.71613 0.7161c0.56377-0.6552 1.2647-1.1733 2.0722-1.1733 1.2342 0 1.8437 0.7924 1.8437 1.9047 0 1.5694-1.6456 3.3216-4.5711 6.2318z"/>
    <path d="m-592.41 1121.9c1.9351 0 3.1083-1.8132 3.1083-5.0739s-1.1732-5.0129-3.1083-5.0129c-1.9503 0-3.1236 1.7522-3.1236 5.0129s1.1732 5.0739 3.1236 5.0739zm0-1.0056c-1.1428 0-1.9046-1.219-1.9046-4.0683s0.76184-4.0073 1.9046-4.0073c1.1275 0 1.8894 1.158 1.8894 4.0073s-0.76184 4.0683-1.8894 4.0683z"/>
    <path d="m-588.03 1121.8h6.2776v-1.0819h-2.8188c-0.50281 0-1.097 0.046-1.6303 0.091 2.3008-2.4075 3.9616-4.2207 3.9616-6.0491 0-1.7218-1.1123-2.8645-2.9102-2.8645-1.2647 0-2.1332 0.5942-2.9407 1.478l0.71613 0.7161c0.56377-0.6552 1.2647-1.1733 2.0722-1.1733 1.2342 0 1.8437 0.7924 1.8437 1.9047 0 1.5694-1.6456 3.3216-4.5711 6.2318z"/>
    <path d="m-577.29 1121.9c1.9351 0 3.1083-1.8132 3.1083-5.0739s-1.1732-5.0129-3.1083-5.0129c-1.9503 0-3.1236 1.7522-3.1236 5.0129s1.1732 5.0739 3.1236 5.0739zm0-1.0056c-1.1428 0-1.9046-1.219-1.9046-4.0683s0.76184-4.0073 1.9046-4.0073c1.1275 0 1.8894 1.158 1.8894 4.0073s-0.76185 4.0683-1.8894 4.0683z"/>
   </g>
   <g transform="matrix(.26458 0 0 .26458 292 -205.25)" aria-label="2010">
    <path d="m-626.19 1056.8h6.2776v-1.0818h-2.8188c-0.50282 0-1.097 0.046-1.6304 0.091 2.3008-2.4074 3.9616-4.2206 3.9616-6.049 0-1.7218-1.1123-2.8646-2.9102-2.8646-1.2647 0-2.1332 0.5943-2.9407 1.478l0.71613 0.7161c0.56377-0.6551 1.2647-1.1732 2.0722-1.1732 1.2342 0 1.8437 0.7923 1.8437 1.9046 0 1.5694-1.6456 3.3217-4.5711 6.2319z"/>
    <path d="m-615.44 1056.9c1.9351 0 3.1083-1.8132 3.1083-5.0739s-1.1732-5.013-3.1083-5.013c-1.9503 0-3.1236 1.7523-3.1236 5.013s1.1732 5.0739 3.1236 5.0739zm0-1.0057c-1.1428 0-1.9046-1.2189-1.9046-4.0682s0.76184-4.0073 1.9046-4.0073c1.1275 0 1.8894 1.158 1.8894 4.0073s-0.76184 4.0682-1.8894 4.0682z"/>
    <path d="m-610.47 1056.8h5.4853v-1.0361h-2.0113v-8.685h-0.95992c-0.5333 0.3199-1.1732 0.5637-2.057 0.7161v0.8076h1.7675v7.1613h-2.2246z"/>
    <path d="m-600.32 1056.9c1.9351 0 3.1083-1.8132 3.1083-5.0739s-1.1732-5.013-3.1083-5.013c-1.9503 0-3.1236 1.7523-3.1236 5.013s1.1732 5.0739 3.1236 5.0739zm0-1.0057c-1.1428 0-1.9046-1.2189-1.9046-4.0682s0.76184-4.0073 1.9046-4.0073c1.1275 0 1.8894 1.158 1.8894 4.0073s-0.76185 4.0682-1.8894 4.0682z"/>
   </g>
   <g transform="matrix(.26458 0 0 .26458 292 -205.25)" aria-label="2000">
    <path d="m-672.43 1012h6.2776v-1.0818h-2.8188c-0.50282 0-1.0971 0.046-1.6304 0.091 2.3008-2.4074 3.9616-4.2206 3.9616-6.049 0-1.7218-1.1123-2.8646-2.9102-2.8646-1.2647 0-2.1332 0.5943-2.9407 1.478l0.71614 0.7161c0.56376-0.6551 1.2647-1.1732 2.0722-1.1732 1.2342 0 1.8437 0.7923 1.8437 1.9046 0 1.5694-1.6456 3.3217-4.5711 6.2319z"/>
    <path d="m-661.69 1012.2c1.9351 0 3.1083-1.8132 3.1083-5.0739s-1.1732-5.013-3.1083-5.013c-1.9503 0-3.1236 1.7523-3.1236 5.013s1.1732 5.0739 3.1236 5.0739zm0-1.0057c-1.1428 0-1.9046-1.2189-1.9046-4.0682s0.76184-4.0073 1.9046-4.0073c1.1275 0 1.8894 1.158 1.8894 4.0073s-0.76185 4.0682-1.8894 4.0682z"/>
    <path d="m-654.13 1012.2c1.9351 0 3.1083-1.8132 3.1083-5.0739s-1.1732-5.013-3.1083-5.013c-1.9503 0-3.1236 1.7523-3.1236 5.013s1.1732 5.0739 3.1236 5.0739zm0-1.0057c-1.1428 0-1.9046-1.2189-1.9046-4.0682s0.76185-4.0073 1.9046-4.0073c1.1275 0 1.8894 1.158 1.8894 4.0073s-0.76185 4.0682-1.8894 4.0682z"/>
    <path d="m-646.57 1012.2c1.9351 0 3.1083-1.8132 3.1083-5.0739s-1.1732-5.013-3.1083-5.013c-1.9503 0-3.1236 1.7523-3.1236 5.013s1.1732 5.0739 3.1236 5.0739zm0-1.0057c-1.1428 0-1.9046-1.2189-1.9046-4.0682s0.76185-4.0073 1.9046-4.0073c1.1275 0 1.8894 1.158 1.8894 4.0073s-0.76185 4.0682-1.8894 4.0682z"/>
   </g>
  </g>
  <path d="m110.23 71.112c11.112 4.7625 13.758 12.7 14.552 20.373" fill="none" stroke="#e9e56f" stroke-linecap="round" stroke-width=".26458"/>
  <path d="m44.221 90.634c1.3e-5 -33.249 26.954-60.202 60.202-60.202 33.249-1.3e-5 60.202 26.954 60.202 60.202" fill="none" stroke="#6f8ce9" stroke-linecap="round" stroke-width=".26458"/>
  <g fill="#6f8ce9">
   <path d="m42.658 90.498c0.15785-0.14912 0.26079-0.35975 0.26351-0.60325 0.0041-0.36526-0.21306-0.59535-0.48833-0.59842-0.25674-0.0031-0.37759 0.15197-0.46718 0.35214l-0.10865 0.24763c-0.05974 0.13434-0.12498 0.28714-0.29173 0.28527-0.15616-0.0016-0.25265-0.13253-0.25046-0.32839 0.0018-0.15881 0.06675-0.2878 0.16851-0.39254l-0.14163-0.11806c-0.12841 0.12034-0.21779 0.30199-0.2201 0.50844-0.0035 0.31497 0.18974 0.55008 0.45442 0.55304 0.2541 0.0031 0.38062-0.18634 0.45125-0.34702l0.1113-0.24759c0.07594-0.16327 0.13295-0.2897 0.31028-0.28772 0.1694 0.0016 0.2817 0.13815 0.27916 0.36578-2e-3 0.18263-0.09131 0.35369-0.22239 0.47665z"/>
   <path d="m42.796 88.773c0.09662-0.11592 0.1562-0.23308 0.16023-0.35212 0.0099-0.29365-0.23781-0.56424-0.67431-0.57901-0.39947-0.01355-0.66208 0.15504-0.67327 0.48572-0.0051 0.15079 0.07207 0.29642 0.16601 0.41613l-2.7e-4 0.0079-0.14877 0.01349-0.0061 0.1799 1.828 0.0619 0.0074-0.21693-0.43386-0.01463zm-0.16913-0.01101-0.6746-0.02286c-0.10946-0.13084-0.16663-0.24136-0.16296-0.34982 0.0082-0.24339 0.20194-0.33217 0.485-0.32259 0.31746 0.01077 0.50529 0.17337 0.49813 0.385-0.0029 0.08466-0.04375 0.19715-0.14558 0.31024z"/>
   <path d="m42.622 87.602c0.22992 0.01294 0.37378-0.14069 0.38598-0.3574 0.0089-0.15857-0.06761-0.30604-0.16105-0.4359l2.91e-4 -0.0054 0.15432-0.0098 0.01012-0.17971-0.78756-0.04431c-0.31978-0.01797-0.536 0.10239-0.5537 0.41688-0.0116 0.20614 0.06814 0.3909 0.13809 0.51415l0.15555-0.07874c-0.06306-0.10429-0.12434-0.2403-0.11586-0.39094 0.01175-0.20878 0.17344-0.25535 0.3373-0.24613 0.02999 0.55048 0.15638 0.8015 0.43652 0.81727zm-0.0038-0.21497c-0.16386-0.0092-0.26139-0.16052-0.29-0.59427l0.35678 0.02006c0.10401 0.13046 0.15899 0.23694 0.152 0.36115-0.0071 0.12685-0.07342 0.22122-0.21878 0.21304z"/>
   <path d="m42.394 86.252c0.42492 0.03254 0.69037-0.20998 0.71643-0.55044 0.01171-0.15308-0.04031-0.30573-0.13436-0.42973l-0.15 0.08674c0.06276 0.08179 0.11559 0.18937 0.10629 0.31078-0.01798 0.2349-0.22825 0.38074-0.5212 0.35831-0.2956-0.02262-0.48325-0.20689-0.46548-0.43914 0.0079-0.10293 0.06145-0.17848 0.13328-0.24996l-0.1316-0.11891c-0.08848 0.08083-0.16883 0.19414-0.18176 0.36305-0.02526 0.32991 0.19818 0.63638 0.62838 0.6693z"/>
   <path d="m42.484 85.095c0.41893 0.04036 0.69539-0.20688 0.7284-0.5494 0.01676-0.17389-0.03063-0.31674-0.09111-0.43426l-0.14964 0.06267c0.05145 0.10069 0.08107 0.20726 0.0694 0.32845-0.02362 0.24504-0.21351 0.39427-0.49168 0.38341l0.08329-0.86421c-0.03111-0.0083-0.07301-0.01503-0.1178-0.01937-0.36623-0.03533-0.6185 0.12653-0.65 0.45324-0.02819 0.29246 0.20021 0.59902 0.61914 0.6394zm-0.07717-0.22018c-0.25567-0.0512-0.38747-0.22881-0.3702-0.40797 0.0193-0.20025 0.17539-0.30221 0.43623-0.27706z"/>
   <path d="m43.281 83.578 0.03214-0.26007-1.0058-0.3857c-0.1304-0.04547-0.2503-0.08961-0.38071-0.13507l0.0013-0.01053c0.1369-7e-3 0.26394-0.02069 0.40149-0.03308l1.0698-0.13182 0.03279-0.26533-1.6792-0.57027-0.0263 0.21279 0.91543 0.29718c0.17999 0.05423 0.36261 0.10883 0.54491 0.16603l-0.0013 0.01053c-0.19171 0.01897-0.38605 0.03765-0.57218 0.05462l-0.96738 0.12314-0.02467 0.19966 0.90829 0.35496c0.17869 0.06476 0.36002 0.12984 0.54199 0.18968l-0.0013 0.01053c-0.19074 0.01109-0.37885 0.02254-0.56959 0.03362l-0.96023 0.06539-0.02792 0.22592z"/>
   <path d="m43.175 81.783c0.22768 0.03455 0.38536-0.10488 0.4179-0.31948 0.0238-0.15703-0.03851-0.31105-0.11931-0.44913l7.67e-4 -0.0054 0.15457 0.0047 0.02698-0.17796-0.77989-0.11825c-0.31666-0.04803-0.54326 0.05152-0.59048 0.36292-0.03096 0.20413 0.03104 0.39559 0.08908 0.52486l0.16227-0.06375c-0.05296-0.10977-0.10117-0.25094-0.07855-0.40011 0.03135-0.20674 0.1967-0.23789 0.35896-0.21329-0.02195 0.55086 0.08025 0.81266 0.35766 0.85472zm0.01644-0.21436c-0.16226-0.02463-0.24512-0.18442-0.23278-0.61894l0.3533 0.05361c0.09127 0.13967 0.13598 0.25086 0.11733 0.37387-0.01905 0.12561-0.09392 0.21332-0.23786 0.1915z"/>
   <path d="m43.724 80.432 0.03651-0.21396-0.81409-0.13893c-0.19926-0.12262-0.25572-0.26384-0.23746-0.37081 0.0089-0.05221 0.02163-0.07955 0.0418-0.11908l-0.18074-0.07383c-0.02539 0.03866-0.0399 0.07646-0.04925 0.13123-0.02449 0.14351 0.055 0.29134 0.19948 0.40461l-0.0013 0.0078-0.23273-0.0209-0.03028 0.17743z"/>
   <path d="m43.383 79.342 0.02742-0.14836-0.9786-0.21051-0.24371-0.05043-0.03993 0.21604 0.24563 0.04005zm0.37031 0.15191c0.0937 0.01736 0.17437-0.04044 0.19025-0.12634 0.0154-0.08329-0.03928-0.16608-0.13299-0.18341-0.09891-0.01828-0.17958 0.03951-0.19497 0.12278-0.01588 0.0859 0.0388 0.16868 0.13772 0.18697z"/>
   <path d="m45.271 73.585 0.06318-0.21318-0.65985-0.19556 0.08875-0.29947c0.10756-0.36291 0.01705-0.66305-0.33317-0.76685-0.36546-0.10831-0.56277 0.10102-0.67183 0.469l-0.15193 0.51266zm-0.76924-0.45989-0.66239-0.1963 0.08048-0.27156c0.08499-0.28678 0.20654-0.40812 0.44764-0.33667 0.23602 0.06995 0.30124 0.24112 0.21475 0.53298z"/>
   <path d="m45.045 72.105c0.40562 0.13072 0.72599-0.06081 0.82261-0.36063 0.09662-0.29981-0.05162-0.64237-0.45723-0.7731-0.41066-0.13234-0.73103 0.05919-0.82765 0.359-0.09662 0.29981 0.05162 0.64238 0.46227 0.77472zm0.06902-0.21415c-0.28217-0.09094-0.42736-0.29625-0.35997-0.50536 0.0682-0.21163 0.30515-0.291 0.58732-0.20006 0.27965 0.09013 0.42314 0.29211 0.35493 0.50373-0.06739 0.20911-0.30263 0.29181-0.58228 0.20169z"/>
   <path d="m46.13 70.845 0.07145-0.20495-0.87981-0.30669c-0.07978-0.16517-0.11514-0.2728-0.07158-0.39778 0.05576-0.15996 0.17764-0.19597 0.40509-0.11668l0.74234 0.25878 0.07145-0.20496-0.76984-0.26836c-0.30994-0.10804-0.51498-0.05059-0.60385 0.20438-0.05838 0.16746-0.01196 0.3238 0.06293 0.47886l-0.0026 0.0078-0.18106-0.04346-0.05925 0.16996z"/>
   <path d="m46.847 69.469c-0.06941-0.02596-0.12738-0.09009-0.15687-0.20005 0.03436-0.04648 0.06067-0.10164 0.0783-0.14875l0.07796-0.20823c0.05847-0.15618 0.12813-0.22902 0.23969-0.18725 0.12643 0.04733 0.18881 0.24309 0.1025 0.47364-0.08167 0.21815-0.21266 0.3189-0.34157 0.27065zm-0.03955 0.18869c0.20823 0.07795 0.40084-0.0817 0.51128-0.3767 0.14014-0.37432 0.03494-0.68221-0.18817-0.76574-0.2008-0.07514-0.34046 0.03362-0.44533 0.31377l-0.08724 0.23302c-0.06125 0.16361-0.13435 0.19278-0.2112 0.16401-0.06693-0.02503-0.0936-0.0746-0.11501-0.13067 0.04768-0.04431 0.08762-0.1057 0.10989-0.16519 0.09188-0.24542 4e-3 -0.50157-0.25375-0.59809-0.10164-0.03804-0.20914-0.03029-0.28502 0.0062l0.09281-0.2479-0.15618-0.05849-0.15684 0.41894c-0.03406 0.03811-0.06873 0.09298-0.09378 0.15992-0.09188 0.24542-0.0037 0.51583 0.25903 0.6142 0.14378 0.05384 0.28906 0.02061 0.38321-0.03463l0.0099 0.0039c0.01894 0.07775 0.07228 0.17686 0.17392 0.2149 0.0942 0.03525 0.17629 0.0123 0.23574-0.03331l0.0099 0.0039c0.03354 0.13691 0.10516 0.24004 0.20679 0.27808zm-0.56211-0.77854c-0.05197 0.13882-0.20714 0.21358-0.38315 0.14768-0.17601-0.06592-0.23743-0.2189-0.18453-0.3602 0.0529-0.1413 0.1997-0.21636 0.37571-0.15047 0.176 0.06593 0.24394 0.22416 0.19197 0.36298z"/>
   <path d="m48.985 63.361c0.20742-0.06422 0.39268-0.20793 0.50247-0.4253 0.16469-0.32605 0.07121-0.6283-0.17451-0.75241-0.22918-0.11575-0.40591-0.03006-0.57458 0.11013l-0.20668 0.17436c-0.11284 0.09425-0.23876 0.20264-0.38761 0.12746-0.1394-0.07042-0.16834-0.23034-0.08003-0.40518 0.0716-0.14176 0.18678-0.22889 0.3243-0.27805l-0.07507-0.1684c-0.16831 0.05144-0.32862 0.17505-0.4217 0.35934-0.14201 0.28116-0.07219 0.57739 0.16408 0.69673 0.22682 0.11456 0.42379 5.29e-4 0.55802-0.11256l0.20905-0.17316c0.14014-0.11308 0.24704-0.20142 0.40534-0.12147 0.15121 0.07639 0.19195 0.24819 0.08932 0.45138-0.08234 0.16303-0.23788 0.27722-0.40974 0.3298z"/>
   <path d="m49.869 61.873c0.13785-0.06135 0.24302-0.14023 0.29917-0.24528 0.13849-0.25913 0.03556-0.61127-0.34963-0.81713-0.35251-0.1884-0.66255-0.15301-0.81851 0.1388-0.07112 0.13307-0.06612 0.2978-0.03464 0.44668l-0.0037 7e-3 -0.13946-0.05353-0.08484 0.15874 1.6131 0.86214 0.10231-0.19142-0.38286-0.20462zm-0.14691-0.08452-0.5953-0.31816c-0.04049-0.1657-0.04303-0.29012 0.0081-0.38583 0.11478-0.21477 0.32778-0.20899 0.57758-0.07545 0.28014 0.14972 0.37694 0.37854 0.27713 0.5653-0.03993 0.07468-0.12626 0.15762-0.26753 0.21418z"/>
   <path d="m50.23 60.746c0.20058 0.11313 0.39749 0.03881 0.50412-0.15024 0.07802-0.13834 0.07446-0.30445 0.04797-0.46222l0.0026-0.0047 0.14282 0.05926 0.08843-0.15678-0.68706-0.38751c-0.27897-0.15734-0.52613-0.1448-0.68087 0.12956-0.10143 0.17984-0.11146 0.38082-0.10312 0.52229l0.17433-0.0024c-0.01053-0.12142-0.0054-0.27051 0.06867-0.40192 0.10273-0.18214 0.26837-0.15254 0.41131-0.07189-0.21615 0.50716-0.21359 0.78819 0.0308 0.92602zm0.0915-0.19455c-0.14294-0.08062-0.16365-0.25944 0.0022-0.66125l0.31125 0.17555c0.03571 0.16298 0.03803 0.2828-0.02309 0.39116-0.06242 0.11067-0.16356 0.16607-0.29036 0.09454z"/>
   <path d="m50.622 59.433c0.36685 0.21688 0.71212 0.11658 0.88589-0.17736 0.07813-0.13216 0.09888-0.29208 0.06929-0.44488l-0.17288 0.01154c0.02018 0.1011 0.02005 0.22095-0.04192 0.32577-0.11989 0.2028-0.37295 0.24075-0.62588 0.09123-0.2552-0.15088-0.34216-0.39908-0.22362-0.5996 0.05254-0.08887 0.13396-0.13298 0.22999-0.16537l-0.06554-0.16482c-0.11509 0.03347-0.23723 0.0996-0.32344 0.24542-0.16838 0.28483-0.10331 0.65847 0.2681 0.87804z"/>
   <path d="m51.214 58.435c0.35793 0.2214 0.71521 0.1218 0.89623-0.17085 0.0919-0.14857 0.11253-0.29766 0.11023-0.4298l-0.16194-0.0099c0.0016 0.11307-0.01889 0.22175-0.08294 0.3253-0.1295 0.20936-0.36579 0.25928-0.61052 0.12659l0.45671-0.73838c-0.02423-0.02122-0.05885-0.04571-0.09712-0.06941-0.31291-0.19355-0.61073-0.15989-0.78339 0.11925-0.15456 0.24988-0.08518 0.62582 0.27275 0.84721zm0.0281-0.23161c-0.20669-0.15896-0.24642-0.37652-0.15174-0.52959 0.10582-0.17109 0.2909-0.19355 0.51377-0.0557z"/>
   <path d="m52.8 57.119 0.12163-0.18613-1.4536-0.94987-0.12163 0.18612z"/>
   <path d="m53.167 56.559 0.12186-0.17962-0.77104-0.5231c-0.03451-0.18015-0.04094-0.29326 0.03337-0.40279 0.09511-0.14019 0.22215-0.14356 0.42148-0.0083l0.65056 0.44136 0.12186-0.17962-0.67466-0.45772c-0.27162-0.18427-0.48455-0.18159-0.63613 0.04183-0.09957 0.14676-0.09501 0.30979-0.06262 0.47891l-0.0045 0.0062-0.16374-0.08869-0.10105 0.14895z"/>
   <path d="m54.145 55.138 0.14712-0.20719-0.7853-1.116-0.12413 0.17481 0.45468 0.62153c0.08214 0.10378 0.16337 0.2134 0.2412 0.31412l-0.0061 0.0086c-0.12226-0.03812-0.25254-0.07868-0.37759-0.12203l-0.73666-0.22442-0.13026 0.18344z"/>
   <path d="m54.367 54.253c0.18498 0.13717 0.38959 0.08787 0.51887-0.08648 0.0946-0.12757 0.11169-0.29284 0.105-0.45268l0.0032-0.0039 0.13436 0.07654 0.10721-0.14459-0.63362-0.46983c-0.25727-0.19077-0.50408-0.20901-0.69169 0.044-0.12298 0.16585-0.15789 0.36404-0.16718 0.50544l0.17322 0.01968c0.0046-0.12179 0.02818-0.26909 0.11804-0.39029 0.12455-0.16797 0.28523-0.11802 0.41706-0.02029-0.27745 0.47639-0.30981 0.75556-0.08443 0.92269zm0.11495-0.18168c-0.13183-0.09775-0.13016-0.27776 0.0843-0.65586l0.28704 0.21284c0.0152 0.16614 0.0026 0.28534-0.07149 0.38526-0.07568 0.10206-0.18292 0.14447-0.29986 0.05779z"/>
   <path d="m54.921 52.995c0.33852 0.26322 0.65912 0.24763 0.85735-7e-3 0.09261-0.11911 0.11024-0.27976 0.09466-0.41929l0.0049-0.0062 0.13048 0.07799 0.11049-0.14209-1.4878-1.1569-0.13486 0.17344 0.39076 0.30384 0.17994 0.1265c-0.143 0.033-0.247 0.07615-0.33799 0.1932-0.18035 0.23195-0.13805 0.60014 0.19211 0.85686zm0.13602-0.17924c-0.23195-0.18036-0.28793-0.43177-0.1612-0.59476 0.065-0.08359 0.15436-0.13816 0.2983-0.16371l0.53076 0.41271c0.02904 0.1567 0.01164 0.27394-0.06147 0.36797-0.13811 0.17762-0.364 0.16628-0.6064-0.02222z"/>
   <path d="m55.832 51.829c0.32635 0.26576 0.6935 0.21314 0.91078-0.05369 0.11032-0.13547 0.15002-0.28063 0.16481-0.41197l-0.15931-0.03075c-0.01297 0.11234-0.04736 0.21746-0.12425 0.31187-0.15544 0.19089-0.39621 0.20988-0.62175 0.04671l0.54824-0.67322c-0.02129-0.02417-0.05245-0.05299-0.08735-0.08137-0.2853-0.23232-0.58497-0.23742-0.79223 0.01712-0.18553 0.22782-0.16528 0.60958 0.16106 0.87534zm0.05777-0.22604c-0.18443-0.18433-0.19574-0.40519-0.08208-0.54475 0.12703-0.156 0.31346-0.15438 0.51666 0.01108z"/>
   <path d="m57.223 51.145 0.14004-0.16583-0.63096-0.53285c-0.10947-0.20678-0.08646-0.35711-0.01643-0.44002 0.03415-0.04044 0.05901-0.05756 0.09645-0.08139l-0.11828-0.15532c-0.04148 0.02037-0.07317 0.04563-0.10903 0.08808-0.09393 0.11123-0.10045 0.27895-0.03345 0.44987l-0.0051 0.0062-0.18992-0.13613-0.11613 0.13751z"/>
   <path d="m57.598 50.476c0.15584-0.02564 0.32855-0.10675 0.44864-0.24436 0.20015-0.22935 0.17817-0.46986 0.02062-0.60735-0.18348-0.16012-0.37707-0.055-0.55075 0.03935-0.13761 0.07313-0.26575 0.14751-0.35549 0.06918-0.07379-0.06438-0.09087-0.17767 0.01529-0.29933 0.07484-0.08576 0.17165-0.12424 0.27894-0.14653l-0.03583-0.16828c-0.12423 0.02161-0.26633 0.08377-0.3725 0.20542-0.18275 0.2094-0.17099 0.43748-0.01543 0.57323 0.16354 0.14272 0.36162 0.04857 0.53157-0.04555 0.13213-0.07088 0.27695-0.14827 0.37667-0.06128 0.08376 0.07313 0.09588 0.19609-0.01551 0.32373-0.10095 0.11568-0.22365 0.15966-0.36456 0.18425z"/>
   <path d="m61.876 46.175 0.16185-0.15246-0.47188-0.50096 0.22736-0.21417c0.27553-0.25953 0.34831-0.56445 0.09785-0.83035-0.26135-0.27746-0.53718-0.19582-0.81657 0.06732l-0.38921 0.36662zm-0.43345-0.78444-0.4737-0.50289 0.20617-0.1942c0.21773-0.20509 0.38382-0.24881 0.55624-0.06577 0.16879 0.1792 0.13904 0.35994-0.08254 0.56866z"/>
   <path d="m62.615 45.026c0.15413 0.1711 0.36446 0.16332 0.52572 0.01805 0.118-0.10629 0.16751-0.2649 0.19262-0.4229l4e-3 -0.0039 0.11652 0.10167 0.13373-0.12047-0.52795-0.58607c-0.21437-0.23796-0.45266-0.30475-0.6867-0.09392-0.1534 0.13819-0.2269 0.32553-0.26402 0.46228l0.16588 0.05361c0.02867-0.11846 0.08094-0.25818 0.19304-0.35916 0.15537-0.13996 0.30296-0.05918 0.41281 0.06275-0.36635 0.41196-0.45339 0.67918-0.2656 0.88766zm0.14867-0.15531c-0.10984-0.12193-0.07254-0.29804 0.21259-0.62615l0.23917 0.2655c-0.01803 0.16587-0.05398 0.28019-0.14641 0.36346-0.0944 0.08504-0.20792 0.10536-0.30536-0.0031z"/>
   <path d="m63.405 43.906c0.27876 0.32235 0.63799 0.33715 0.89628 0.11379 0.11613-0.10042 0.1867-0.24543 0.20727-0.39969l-0.16758-0.04408c-0.01305 0.10227-0.05131 0.21584-0.14341 0.29548-0.17819 0.15409-0.43018 0.10955-0.62237-0.1127-0.19392-0.22424-0.19736-0.48722-0.02117-0.63958 0.07809-0.06755 0.16932-0.08343 0.27066-0.08359l-0.0097-0.1771c-0.11975-0.0046-0.25659 0.0189-0.38473 0.12973-0.25027 0.21643-0.30749 0.59136-0.02527 0.91771z"/>
   <path d="m64.315 43.203 0.46681-0.39082-0.10705-0.12787-0.46681 0.39082z"/>
   <path d="m65.411 43.041 0.15914-0.12734-0.59704-0.74608c-0.09592-0.11987-0.23732-0.27115-0.34152-0.3844l0.0083-7e-3 0.34893 0.21574 0.82768 0.5005 0.0992-0.07939-0.30687-0.91726-0.13399-0.38774 0.0083-7e-3c0.08766 0.12648 0.20219 0.29926 0.29811 0.41913l0.59704 0.74608 0.16327-0.13065-1.0849-1.3558-0.20254 0.16208 0.32175 0.93586 0.12655 0.35302-0.0083 7e-3 -0.31875-0.19921-0.84463-0.51744-0.2046 0.16373z"/>
   <path d="m66.648 41.634c0.13908 0.18355 0.3493 0.19363 0.5223 0.06252 0.12658-0.09591 0.18936-0.24975 0.22777-0.40506l0.0042-0.0031 0.10749 0.11117 0.14346-0.1087-0.47638-0.6287c-0.19343-0.25528-0.42521-0.34202-0.67627-0.15178-0.16456 0.12469-0.25367 0.30512-0.30225 0.43824l0.16074 0.06747c0.03861-0.1156 0.10253-0.25038 0.22278-0.34151 0.16667-0.12629 0.30689-0.03331 0.406 0.09753-0.39995 0.37944-0.50932 0.63832-0.33987 0.86195zm0.1613-0.14214c-0.09911-0.1308-0.04702-0.30312 0.26489-0.60588l0.21581 0.28482c-0.03202 0.16374-0.07753 0.27462-0.17669 0.34975-0.10127 0.07677-0.2161 0.08735-0.30402-0.02866z"/>
   <path d="m67.982 41.047 0.17593-0.12712-0.5457-0.75522c0.02916-0.18109 0.0618-0.28958 0.16908-0.3671 0.13731-0.09922 0.25785-0.05895 0.39892 0.13629l0.46043 0.63722 0.17593-0.12712-0.47748-0.66081c-0.19223-0.26604-0.39324-0.33633-0.61208-0.17821-0.14375 0.10387-0.19522 0.25862-0.2226 0.42863l-0.0064 0.0046-0.12354-0.13933-0.14589 0.10542z"/>
   <path d="m72.064 38.025c0.20982 0.05593 0.44311 0.03285 0.65173-0.09275 0.31293-0.18844 0.3946-0.49408 0.25259-0.72991-0.13246-0.21995-0.32769-0.24144-0.54509-0.21249l-0.26777 0.03765c-0.14569 0.01975-0.30998 0.04454-0.39601-0.09832-0.08056-0.13379-0.01998-0.2846 0.14782-0.38565 0.13606-0.08193 0.27994-0.09442 0.42253-0.0629l0.02604-0.18253c-0.16986-0.04602-0.37138-0.02665-0.54825 0.07987-0.26984 0.1625-0.36834 0.45047-0.23179 0.67722 0.13109 0.21768 0.35854 0.22594 0.53236 0.20161l0.26914-0.0354c0.17882-0.02115 0.31634-0.03912 0.40783 0.11284 0.08739 0.14512 0.03046 0.31227-0.16455 0.4297-0.15646 0.09422-0.34892 0.10814-0.5224 0.0612z"/>
   <path d="m73.229 37.042c0.16277 0.28503 0.35514 0.37634 0.59189 0.24114 0.154-0.08795 0.21839-0.2314 0.25226-0.4123l0.0069-0.0039 0.11585 0.16551 0.1563-0.08927-0.63795-1.1171-0.18848 0.10764 0.45287 0.79301c-0.03091 0.1914-0.07855 0.29481-0.19348 0.36044-0.14711 0.08401-0.26036 0.02982-0.37982-0.17936l-0.38986-0.68268-0.19078 0.10895z"/>
   <path d="m74.864 36.528c0.14883 0.02494 0.28005 0.0172 0.38486-0.03935 0.25852-0.13962 0.3671-0.49005 0.15956-0.87435-0.18993-0.35169-0.46798-0.49333-0.75911-0.33611-0.13276 0.07166-0.21954 0.21181-0.27548 0.35333l-7e-3 0.0039-0.08674-0.12162-0.15838 0.08553 0.86912 1.6094 0.19098-0.10314-0.20627-0.38197zm-0.07584-0.15157-0.32073-0.59391c0.05771-0.16052 0.12427-0.26566 0.21977-0.31723 0.21427-0.11571 0.38868 7e-3 0.52326 0.25591 0.15093 0.27949 0.10534 0.52372-0.08099 0.62434-0.07453 0.04028-0.19229 0.06174-0.3413 0.03091z"/>
   <path d="m75.652 35.511c0.19153 0.37476 0.54874 0.4746 0.85515 0.318 0.15556-0.0795 0.25042-0.19635 0.31689-0.31058l-0.1334-0.09235c-0.05715 0.09758-0.131 0.17991-0.23942 0.23532-0.2192 0.11203-0.4472 0.03238-0.58782-0.2079l0.77309-0.39511c-0.0097-0.03068-0.02666-0.06964-0.04714-0.10968-0.16744-0.32763-0.43964-0.45307-0.73191-0.3037-0.26163 0.13372-0.39698 0.49124-0.20544 0.866zm0.14399-0.18358c-0.09448-0.24303-0.0158-0.44971 0.14447-0.53162 0.17913-0.09155 0.34909-0.01495 0.46835 0.21842z"/>
   <path d="m77.2 35.446 0.19504-0.09524-0.36237-0.74211c-0.01675-0.23337 0.06496-0.36164 0.16248-0.40926 0.04758-0.02324 0.07722-0.02889 0.12108-0.03556l-0.04557-0.18983c-0.04619 0.0016-0.08535 0.01224-0.1353 0.03656-0.13082 0.06391-0.20445 0.21472-0.2121 0.39814l-0.0071 0.0039-0.11886-0.20118-0.16174 0.07898z"/>
   <path d="m78.521 34.809 0.1859-0.08355-0.39171-0.87159c-0.06293-0.14003-0.16205-0.32184-0.23465-0.45753l0.0097-0.0046 0.28397 0.29607 0.67639 0.69141 0.11589-0.05206-0.06797-0.96484-0.03288-0.40892 0.0097-0.0046c0.05328 0.14437 0.12101 0.34028 0.18395 0.48032l0.39171 0.87158 0.19074-0.08572-0.71181-1.5838-0.23661 0.10633 0.07774 0.98657 0.03434 0.37344-0.0097 0.0046-0.25887-0.27252-0.68857-0.71205-0.23902 0.10742z"/>
   <path d="m80.07 33.756c0.08875 0.21249 0.28977 0.27483 0.49006 0.19118 0.14655-0.0612 0.2458-0.19446 0.32183-0.33522l0.0049-0.0023 0.07627 0.13452 0.16609-0.06941-0.304-0.72786c-0.12347-0.29558-0.32619-0.43753-0.61685-0.31613-0.19052 0.07957-0.32192 0.23198-0.40225 0.34873l0.13875 0.10556c0.06629-0.10227 0.16189-0.21678 0.30112-0.27493 0.19296-0.08059 0.30546 0.04454 0.36871 0.19597-0.48214 0.26735-0.65278 0.49066-0.54464 0.74956zm0.19172-0.09729c-0.06325-0.15143 0.03028-0.30524 0.40801-0.52037l0.13772 0.32973c-0.07195 0.15054-0.14374 0.2465-0.25854 0.29445-0.11724 0.04896-0.23108 0.03052-0.28718-0.10381z"/>
   <path d="m81.509 33.523 0.20181-0.07991-0.30404-0.76785c0.0013-0.23397 0.09266-0.35555 0.19357-0.3955 0.04922-0.01952 0.07922-0.02285 0.12347-0.02611l-0.03079-0.19279c-0.0462-0.0016-0.08604 0.0054-0.13772 0.02603-0.13536 0.05361-0.22041 0.1983-0.24218 0.38058l-0.0074 0.0031-0.10298-0.20975-0.16735 0.06623z"/>
   <path d="m81.918 31.699c0.07915-0.03013 0.12025-0.10814 0.09102-0.18482-0.03016-0.07915-0.1118-0.10752-0.19095-0.07739-0.07915 0.03013-0.12119 0.10568-0.09102 0.18483 0.02922 0.07669 0.1118 0.10752 0.19095 0.07739zm0.44855 1.489 0.20282-0.07731-0.45816-1.2021-0.20282 0.07731z"/>
   <path d="m82.668 32.386c0.14494 0.40076 0.49252 0.53683 0.78873 0.4297 0.29621-0.10713 0.47634-0.43405 0.3314-0.83481-0.14674-0.40574-0.49432-0.54181-0.79053-0.43468-0.29621 0.10713-0.47634 0.43405-0.3296 0.83979zm0.21158-0.07654c-0.10083-0.27879-0.02736-0.51928 0.17924-0.594 0.20909-0.07561 0.41691 0.06314 0.51773 0.34193 0.09993 0.2763 0.02805 0.51341-0.18104 0.58902-0.2066 0.07476-0.41601-0.06066-0.51594-0.33695z"/>
   <path d="m84.845 32.296 0.52871-0.17161c0.36758-0.11931 0.5729-0.36127 0.4675-0.68605-0.07352-0.22659-0.25703-0.31175-0.51098-0.27107l-0.0031-0.01007c0.18004-0.1141 0.2258-0.29036 0.17269-0.45401-0.09398-0.28954-0.3649-0.32684-0.69975-0.21815l-0.49095 0.15934zm-0.09577-1.0153-0.17487-0.53879 0.25429-0.08253c0.25428-0.08253 0.41224-0.05028 0.47026 0.12845 0.05965 0.18379-0.02596 0.32291-0.30545 0.41361zm0.25332 0.78049-0.20266-0.62439 0.28702-0.09315c0.28953-0.09398 0.47838-0.05229 0.54457 0.15164 0.07274 0.22408-0.05996 0.38123-0.34192 0.47275z"/>
   <path d="m86.305 31.83 0.20775-0.0629-0.23919-0.79046c0.02077-0.23305 0.12189-0.34662 0.22576-0.37805 0.05067-0.01534 0.08084-0.01619 0.1252-0.0158l-0.01463-0.19468c-0.04594-0.0054-0.0862-0.0016-0.13941 0.01449-0.13934 0.04214-0.23612 0.17931-0.27297 0.35915l-0.0078 0.0023-0.0852-0.21758-0.17228 0.05213z"/>
   <path d="m86.896 30.982c0.1156 0.41018 0.45244 0.57101 0.75562 0.48556 0.30319-0.08546 0.50646-0.3985 0.39086-0.80868-0.11705-0.41528-0.45388-0.57611-0.75706-0.49066-0.30318 0.08545-0.50646 0.3985-0.38941 0.81378zm0.21655-0.06104c-0.08042-0.28534 0.01021-0.5199 0.22169-0.5795 0.214-0.06035 0.41125 0.0931 0.49167 0.37844 0.07971 0.2828-0.0091 0.51409-0.22312 0.57441-0.21146 0.05957-0.41053-0.09055-0.49024-0.37335z"/>
   <path d="m88.372 31.084c0.14312 0.06678 0.3315 0.09722 0.50829 0.05136 0.29465-0.07646 0.4122-0.28742 0.35969-0.48983-0.06112-0.23572-0.28028-0.25818-0.47691-0.27826-0.15487-0.01727-0.30263-0.02812-0.33254-0.14344-0.02463-0.0948 0.02519-0.19796 0.18151-0.23851 0.11018-0.02859 0.21181-0.0054 0.31298 0.03641l0.06538-0.15916c-0.11474-0.05229-0.26716-0.0811-0.42344-0.04052-0.26903 0.0698-0.38801 0.26473-0.33616 0.46458 0.05446 0.2101 0.27116 0.24414 0.46457 0.26233 0.14908 0.01604 0.31232 0.03385 0.34555 0.16194 0.02789 0.10761-0.03145 0.216-0.19545 0.25853-0.14861 0.03858-0.27473 0.0054-0.40495-0.05353z"/>
   <path d="m89.549 30.796c0.02262 0.09257 0.10833 0.14249 0.1932 0.12179 0.08228-0.02006 0.1354-0.10388 0.11282-0.19646-0.02387-0.09772-0.10959-0.14764-0.19188-0.12756-0.08487 0.02069-0.13798 0.10451-0.11413 0.20223z"/>
   <path d="m91.314 30.522 0.21773-0.04509-0.13954-0.67392 0.30586-0.06329c0.37066-0.07677 0.59238-0.29836 0.51832-0.65606-0.07731-0.37325-0.35501-0.4482-0.73085-0.37038l-0.52358 0.10842zm0.04168-0.89525-0.14008-0.67652 0.27735-0.0574c0.29289-0.06066 0.45728-0.01085 0.50826 0.23535 0.04989 0.24106-0.07011 0.37944-0.36818 0.44116z"/>
   <path d="m92.78 30.226 0.21338-0.03974-0.15136-0.81187c0.04609-0.22939 0.15905-0.33122 0.26574-0.35111 0.05206-0.0097 0.08212-7e-3 0.12618-0.0023l7e-3 -0.19512c-0.04501-0.01046-0.08552-0.011-0.14016-7.68e-4 -0.14312 0.02665-0.25431 0.15242-0.31059 0.32716l-0.0078 0.0016-0.06089-0.22559-0.17694 0.033z"/>
   <path d="m93.531 28.513c0.08346-0.01449 0.13873-0.08312 0.12473-0.16398-0.01447-0.08346-0.08914-0.12694-0.17261-0.11249-0.08346 0.01449-0.13918 0.08052-0.12472 0.16398 0.01402 0.08085 0.08914 0.12694 0.1726 0.11248zm0.15513 1.5474 0.21387-0.03703-0.21951-1.2676-0.21387 0.03703z"/>
   <path d="m94.328 29.95 0.21448-0.03339-0.14324-0.92066c0.10821-0.1481 0.18656-0.22994 0.31734-0.25029 0.16739-0.02603 0.2565 0.06453 0.29353 0.30258l0.12086 0.77681 0.21447-0.03339-0.12534-0.80558c-0.05043-0.32432-0.19764-0.47822-0.46442-0.43672-0.17524 0.02727-0.29136 0.14177-0.39296 0.2808l-0.0078 0.0016-0.04679-0.18024-0.17786 0.02766z"/>
   <path d="m95.579 29.111c0.05663 0.42239 0.34903 0.63157 0.68746 0.58621 0.15217-0.02037 0.29065-0.10304 0.39237-0.22083l-0.11606-0.12867c-0.06693 0.07841-0.16117 0.15246-0.28185 0.16864-0.2335 0.0313-0.4199-0.14403-0.45892-0.43524-0.03935-0.29384 0.10181-0.51573 0.33268-0.54667 0.10232-0.01371 0.18735 0.02301 0.27223 0.07836l0.08893-0.15346c-0.09747-0.06972-0.22503-0.12474-0.39293-0.10223-0.32794 0.04392-0.58121 0.32626-0.5239 0.75389z"/>
   <path d="m96.73 28.959c0.04756 0.41818 0.34685 0.63723 0.68876 0.59835 0.17358-0.01975 0.30347-0.09578 0.40586-0.17935l-0.09242-0.13335c-0.0878 0.07127-0.18589 0.12238-0.30688 0.13613-0.24459 0.02781-0.43002-0.12693-0.4772-0.40129l0.86265-0.09809c0.0016-0.03215-5.3e-4 -0.07452-0.0054-0.11925-0.0416-0.36558-0.25229-0.57871-0.57841-0.54163-0.29194 0.03323-0.54434 0.3203-0.49679 0.73848zm0.19934-0.12124c-0.0031-0.26073 0.14331-0.42655 0.32215-0.4469 0.19988-0.0227 0.33205 0.10877 0.36166 0.36914z"/>
   <path d="m98.585 28.759c0.03501 0.42472 0.33492 0.64699 0.64884 0.62109 0.31392-0.02587 0.57332-0.29431 0.53827-0.71903-0.03548-0.42999-0.33535-0.65226-0.64927-0.62636-0.31392 0.02587-0.57332 0.29431-0.53783 0.7243zm0.22423-0.01852c-0.02439-0.29545 0.10945-0.50835 0.32841-0.52642 0.22159-0.01828 0.38586 0.17002 0.41024 0.46547 0.02418 0.29282-0.10725 0.50287-0.32884 0.52115-0.21896 0.01805-0.38564-0.16738-0.4098-0.4602z"/>
   <path d="m100.67 27.368c-0.0597-0.01999-0.13744-0.03354-0.21669-0.02843-0.25622 0.0165-0.36452 0.18798-0.34764 0.44949l0.0131 0.20339-0.17348 0.02448 0.01053 0.16377 0.17434-0.01123 0.0714 1.1068 0.2166-0.01394-0.0714-1.1068 0.27207-0.01759-0.0115-0.17698-0.27206 0.01759-0.0132-0.20339c-0.0105-0.16377 0.0421-0.25205 0.16359-0.2599 0.0476-0.0031 0.0984 0.0039 0.14733 0.02231z"/>
   <path d="m101.48 29.202 0.22219-0.0084-0.0262-0.68772 0.31212-0.01185c0.37825-0.01441 0.63357-0.19627 0.61968-0.56129-0.0145-0.38089-0.27598-0.50074-0.65952-0.48616l-0.5343 0.0203zm0.18919-0.87604-0.0263-0.69036 0.28302-0.01077c0.2989-0.01139 0.45279 0.06492 0.46234 0.31618 9e-3 0.24599-0.1319 0.36262-0.43608 0.37418z"/>
   <path d="m102.81 28.514c7e-3 0.42082 0.28331 0.66791 0.62737 0.66243 0.17468-0.0031 0.31134-0.06585 0.42136-0.13907l-0.079-0.1417c-0.0943 0.06236-0.19691 0.10373-0.31865 0.10567-0.24614 0.0039-0.41566-0.1681-0.43596-0.44576l0.8681-0.01379c5e-3 -0.03184 7e-3 -0.07421 6e-3 -0.11922-6e-3 -0.36789-0.19487-0.60049-0.52305-0.59527-0.29378 0.0046-0.57288 0.26591-0.56619 0.68673zm0.21018-0.1013c0.0223-0.2598 0.18407-0.41062 0.36404-0.41348 0.20115-0.0031 0.31991 0.14051 0.32409 0.40253z"/>
   <path d="m104.23 29.138 0.21706 3.71e-4 2e-3 -0.82586c0.0877-0.2169 0.21756-0.29609 0.32608-0.29591 0.0529 9.3e-5 0.082 0.0081 0.12438 0.02138l0.0427-0.19051c-0.0423-0.01859-0.082-0.02665-0.1376-0.02673-0.14558-2.48e-4 -0.27811 0.10276-0.36573 0.26408l-8e-3 -1.5e-5 -0.0181-0.23297-0.17999-3.01e-4z"/>
   <path d="m104.99 28.994c0.11996 0.10272 0.29328 0.18257 0.4759 0.1858 0.30435 0.0054 0.47417-0.16633 0.47788-0.37542 5e-3 -0.24348-0.20077-0.32388-0.38481-0.39598-0.14458-0.05818-0.284-0.10828-0.28189-0.22738 2e-3 -0.09792 0.0774-0.18395 0.23882-0.18109 0.1138 0.0023 0.20558 0.05128 0.29175 0.11901l0.10565-0.13579c-0.0965-0.08113-0.23561-0.14978-0.39705-0.15264-0.27789-0.0046-0.44479 0.15098-0.44845 0.3574-4e-3 0.21702 0.19576 0.30792 0.3772 0.37731 0.13934 0.05539 0.2918 0.11636 0.28946 0.24869-2e-3 0.11115-0.0883 0.19964-0.25763 0.19664-0.1535-0.0031-0.26618-0.06825-0.37574-0.1602z"/>
   <path d="m106.4 27.619c0.0847 0.0023 0.15266-0.05337 0.15527-0.13542 2e-3 -0.08466-0.0617-0.14232-0.14635-0.14502-0.0847-0.0023-0.15257 0.05074-0.15526 0.13542-2e-3 0.08201 0.0617 0.14232 0.14634 0.14502zm-0.16044 1.5468 0.21695 7e-3 0.0409-1.2858-0.21694-7e-3z"/>
   <path d="m106.84 28.851c-0.011 0.23002 0.14379 0.3726 0.3606 0.38299 0.15863 0.0077 0.30546-0.07019 0.43454-0.16467l5e-3 2.56e-4 0.0112 0.15424 0.17979 0.0086 0.0378-0.7879c0.0153-0.31992-0.10685-0.53512-0.42147-0.55021-0.20624-0.0099-0.39033 0.07143-0.51298 0.14236l0.08 0.15489c0.10376-0.06391 0.23926-0.12634 0.38996-0.11911 0.20887 0.01 0.25679 0.17131 0.24893 0.33523-0.55021 0.03455-0.80017 0.16304-0.81361 0.4433zm0.21492-0.0054c8e-3 -0.16393 0.15835-0.26272 0.59185-0.29494l-0.0171 0.35694c-0.12959 0.10508-0.23562 0.16095-0.35988 0.155-0.12692-0.0062-0.22183-0.07158-0.21485-0.217z"/>
   <path d="m109.85 29.377 0.44257 0.04338c0.52161 0.05113 0.83762-0.2424 0.89157-0.79298 0.0537-0.54794-0.20061-0.88404-0.73275-0.9362l-0.43204-0.0423zm0.23885-0.15745 0.13424-1.3699 0.19494 0.01913c0.40569 0.03974 0.58216 0.30174 0.53956 0.73642-0.0428 0.4373-0.26811 0.67322-0.6738 0.63346z"/>
   <path d="m111.43 28.893c-0.0521 0.42296 0.19634 0.70157 0.50898 0.74006 0.31263 0.0385 0.62118-0.17157 0.67324-0.59454 0.0527-0.42823-0.19569-0.70683-0.50833-0.74532-0.31263-0.0385-0.62118 0.17157-0.67389 0.5998zm0.22331 0.0275c0.0363-0.29424 0.21054-0.47547 0.42859-0.44864 0.22069 0.02719 0.34323 0.24494 0.30701 0.53918-0.0359 0.29161-0.20727 0.47054-0.42795 0.44338-0.21805-0.0268-0.34354-0.24231-0.30765-0.53392z"/>
   <path d="m112.87 29.073c-0.0619 0.42164 0.17989 0.70597 0.49153 0.75175 0.31165 0.04578 0.62503-0.157 0.68697-0.57864 0.0627-0.42688-0.17912-0.71121-0.49076-0.75699-0.31165-0.04578-0.62503 0.157-0.68774 0.58387zm0.2226 0.03269c0.0431-0.29332 0.22161-0.47042 0.43897-0.43849 0.21999 0.0323 0.33742 0.25289 0.29433 0.54621-0.0427 0.2907-0.21822 0.46556-0.43821 0.43325-0.21736-0.03192-0.33778-0.25028-0.29509-0.54097z"/>
   <path d="m114.29 29.931 0.21372 0.03788 0.16264-0.91743c0.14039-0.10952 0.2588-0.15573 0.35263-0.1391 0.1616 0.02866 0.21916 0.14369 0.17711 0.38087l-0.13722 0.77409 0.21372 0.03788 0.16264-0.91743c0.14039-0.10953 0.25358-0.15667 0.35262-0.13911 0.15899 0.0282 0.21656 0.14323 0.17451 0.3804l-0.13723 0.77409 0.21372 0.03788 0.14231-0.80276c0.0573-0.32319-0.0373-0.51738-0.29795-0.56358-0.15378-0.02727-0.30165 0.04865-0.45998 0.16846-0.0253-0.16041-0.11341-0.27011-0.30629-0.3043-0.15116-0.0268-0.30072 0.04346-0.43144 0.14395l-8e-3 -0.0016 0.0141-0.18568-0.17724-0.03145z"/>
   <path d="m120.09 31.168 0.21439 0.05895 0.21691-0.78863 0.77843 0.21411-0.21692 0.78864 0.21184 0.05825 0.4605-1.6742-0.21184-0.05825-0.19304 0.70186-0.77842-0.21411 0.19305-0.70185-0.2144-0.05895z"/>
   <path d="m121.76 31.288c-0.0666 0.22043 0.0489 0.39638 0.25663 0.45918 0.15202 0.04594 0.31336 0.0062 0.46155-0.05407l5e-3 0.0016-0.0267 0.15232 0.1723 0.05206 0.22824-0.75506c0.0927-0.30659 0.0265-0.54505-0.27502-0.63619-0.19763-0.05973-0.39597-0.02564-0.5322 0.01332l0.04 0.1697c0.1162-0.0368 0.2628-0.06438 0.40723-0.02069 0.20016 0.0605 0.20742 0.22861 0.15993 0.3857-0.5421-0.10027-0.8158-0.03641-0.89699 0.23214zm0.20983 0.04687c0.0475-0.1571 0.21748-0.21632 0.6458-0.14215l-0.1034 0.34206c-0.15125 0.07042-0.26769 0.09883-0.38677 0.06283-0.12163-0.03672-0.19776-0.12338-0.15563-0.26273z"/>
   <path d="m123.1 31.777c-0.0574 0.17897-0.0259 0.29747 0.13041 0.34757 0.0555 0.01774 0.0932 0.02154 0.12494 0.01782l0.0224-0.16517c-0.0243-0.0023-0.0344-0.0054-0.0469-0.0095-0.0303-0.0097-0.0499-0.04377-0.0289-0.10932l0.50097-1.5628-0.20669-0.06624z"/>
   <path d="m124.85 30.653c-0.0477-0.04098-0.11468-0.08288-0.19-0.108-0.24358-0.08121-0.40849 0.0368-0.49138 0.2854l-0.0645 0.19336-0.16992-0.04268-0.0519 0.15569 0.16573 0.05523-0.3508 1.0522 0.20591 0.06864 0.3508-1.0521 0.25865 0.08623 0.0561-0.16824-0.25865-0.08623 0.0645-0.19336c0.0519-0.15569 0.13394-0.21762 0.24945-0.1791 0.0452 0.01511 0.0896 0.04106 0.12806 0.07615z"/>
   <path d="m124.45 31.886 0.57504 0.19994 0.0548-0.15752-0.57505-0.19994z"/>
   <path d="m125.15 32.745 0.91941 0.33747 0.0648-0.17642-0.71067-0.26086 0.53356-1.4537-0.20873-0.07662z"/>
   <path d="m127 31.777c0.079 0.03044 0.16173-1.25e-4 0.19122-0.07669 0.0304-0.07905-0.0114-0.1547-0.0904-0.18514-0.079-0.03045-0.16077-0.0023-0.19121 0.07669-0.0295 0.07662 0.0113 0.1547 0.0904 0.18513zm-0.6611 1.4076 0.20256 0.078 0.46224-1.2005-0.20256-0.07799z"/>
   <path d="m128.22 31.911c-0.0452-0.04369-0.10975-0.0893-0.18352-0.11868-0.23854-0.095-0.40992 0.0134-0.50688 0.25684l-0.0755 0.18935-0.1672-0.05237-0.0607 0.15246 0.1623 0.06461-0.41037 1.0304 0.20165 0.08031 0.41037-1.0304 0.25329 0.10089 0.0656-0.16477-0.25329-0.10088 0.0755-0.18936c0.0607-0.15246 0.14617-0.20961 0.25929-0.16456 0.0442 0.01766 0.0871 0.04609 0.12349 0.08338z"/>
   <path d="m127.8 33.071c-0.1623 0.38832-8e-3 0.72547 0.30976 0.85817 0.16119 0.0674 0.31166 0.0643 0.44179 0.04121l-0.0157-0.16149c-0.11141 0.01944-0.22197 0.01627-0.33431-0.03068-0.22713-0.09494-0.31361-0.32043-0.22108-0.58299l0.80105 0.33482c0.0171-0.02727 0.0359-0.06531 0.0532-0.10684 0.14189-0.33946 0.0618-0.62828-0.24105-0.75486-0.27109-0.11331-0.63142 0.01433-0.79373 0.40268zm0.23315-0.0087c0.12446-0.22913 0.33304-0.3026 0.49911-0.23319 0.18562 0.07758 0.23693 0.25682 0.13587 0.4986z"/>
   <path d="m131.93 35.65 0.23295 0.12002 0.70949-0.81062c0.0877-0.10666 0.17058-0.20392 0.25829-0.31059l9e-3 0.0046c-0.0407 0.13092-0.0717 0.25484-0.1077 0.38818l-0.24595 1.0495 0.23765 0.12244 1.1153-1.3787-0.19058-0.09821-0.59518 0.75637c-0.11311 0.15016-0.22743 0.30267-0.34409 0.45398l-9e-3 -0.0046c0.0484-0.18646 0.0981-0.37528 0.14644-0.55581l0.2187-0.95036-0.17883-0.09214-0.64695 0.7297c-0.12251 0.14531-0.24624 0.29298-0.36526 0.44307l-9e-3 -0.0046c0.0555-0.18282 0.10978-0.3633 0.16527-0.54612l0.27046-0.92368-0.20235-0.10426z"/>
   <path d="m133.8 35.906c-0.20594 0.3731-0.0793 0.72421 0.19652 0.87643 0.27577 0.15222 0.64037 0.07228 0.84632-0.30081 0.20849-0.37773 0.0818-0.72884-0.19395-0.88106-0.27577-0.15222-0.64038-0.07228-0.84889 0.30544zm0.19699 0.10873c0.14326-0.25955 0.37256-0.36276 0.56491-0.25659 0.19466 0.10745 0.22722 0.3552 0.084 0.61475-0.14199 0.25723-0.3677 0.3594-0.56236 0.25196-0.19235-0.10617-0.2285-0.35289-0.0865-0.61012z"/>
   <path d="m134.83 37.213 0.18798 0.10852 0.41291-0.71523c0.18416-0.1443 0.33619-0.14823 0.43018-0.09397 0.0459 0.02649 0.0671 0.04787 0.0971 0.08054l0.13197-0.14388c-0.0274-0.03718-0.0578-0.06391-0.10597-0.09174-0.12608-0.07282-0.29231-0.04958-0.44869 0.04663l-7e-3 -0.0039 0.10041-0.211-0.15588-0.08999z"/>
   <path d="m135.76 37.454c-0.0961 0.16153-0.092 0.28408 0.0491 0.36797 0.05 0.02975 0.0859 0.04191 0.11775 0.0454l0.0589-0.15593c-0.0232-0.0077-0.0323-0.01301-0.0437-0.01983-0.0273-0.01627-0.0388-0.05384-4e-3 -0.11302l0.83893-1.4105-0.18655-0.11096z"/>
   <path d="m136.47 37.43c-0.2256 0.36466-0.17589 0.68178 0.0987 0.85168 0.12831 0.07937 0.28993 0.07976 0.42699 0.04942l7e-3 0.0039-0.0636 0.13806 0.15308 0.0947 0.99154-1.6027-0.18684-0.11558-0.26041 0.42094-0.10659 0.19241c-0.048-0.13868-0.10209-0.23747-0.22815-0.31546-0.24986-0.15458-0.61144-0.07321-0.83149 0.28242zm0.19273 0.11612c0.15458-0.24986 0.3986-0.33234 0.57418-0.22372 0.09 0.0557 0.15382 0.13874 0.19459 0.27913l-0.35372 0.57176c-0.15271 0.04563-0.27114 0.04083-0.37244-0.02185-0.19133-0.11838-0.20415-0.34419-0.0426-0.60531z"/>
   <path d="m138.18 38.503c-0.23579 0.355-0.13827 0.71529 0.12412 0.88957s0.63231 0.12445 0.8681-0.23054c0.23871-0.3594 0.14119-0.7197-0.1212-0.89398-0.26238-0.17427-0.63231-0.12445-0.87102 0.23495zm0.18741 0.12448c0.16403-0.24695 0.40101-0.33105 0.58402-0.2095 0.18522 0.12302 0.19739 0.3726 0.0334 0.61956-0.16256 0.24475-0.39587 0.32811-0.58109 0.20509-0.18301-0.12155-0.19885-0.3704-0.0363-0.61515z"/>
   <path d="m140.68 38.704c-0.0344-0.05268-0.087-0.11155-0.15238-0.15666-0.2113-0.14588-0.40256-0.0785-0.55144 0.13715l-0.1158 0.16772-0.15129-0.08836-0.0932 0.13505 0.14377 0.09926-0.63013 0.91269 0.17862 0.12332 0.63012-0.9127 0.22437 0.1549 0.10076-0.14595-0.22436-0.1549 0.11579-0.16772c0.0932-0.13506 0.18929-0.17168 0.28949-0.1025 0.0392 0.02704 0.0746 0.06437 0.10176 0.10885z"/>
   <path d="m140.33 40.759 0.21087 0.15557 0.82946-0.68736c0.10358-0.09135 0.20086-0.17418 0.30443-0.26552l9e-3 0.0062c-0.061 0.12278-0.1114 0.24017-0.16811 0.36609l-0.40984 0.99695 0.21513 0.15872 1.3206-1.1836-0.17254-0.12729-0.70798 0.652c-0.13556 0.13025-0.27269 0.26262-0.41195 0.39343l-9e-3 -0.0062c0.0775-0.17637 0.15655-0.35488 0.23303-0.52542l0.36717-0.90343-0.16188-0.11943-0.75484 0.61742c-0.14408 0.12396-0.28974 0.25006-0.43113 0.37929l-9e-3 -0.0062c0.0839-0.17166 0.1662-0.34119 0.25007-0.51285l0.41404-0.86886-0.18319-0.13514z"/>
   <path d="m141.95 41.547c-0.14174 0.1815-0.0976 0.38728 0.0735 0.52088 0.12517 0.09775 0.28996 0.11897 0.44991 0.11626l4e-3 0.0031-0.0799 0.1324 0.14187 0.11079 0.4855-0.62169c0.19713-0.25243 0.22152-0.4987-0.0267-0.69257-0.16273-0.12708-0.35998-0.16694-0.50111-0.17975l-0.024 0.17268c0.12164 0.0077 0.26831 0.03486 0.38722 0.12775 0.16481 0.1287 0.11087 0.28809 0.01 0.41743-0.46932-0.28926-0.74759-0.32857-0.92029-0.10744zm0.17875 0.11945c0.10101-0.12934 0.28093-0.12318 0.65356 0.10065l-0.21994 0.28163c-0.16648 0.01108-0.28531-0.0046-0.38336-0.08108-0.10015-0.0782-0.13986-0.18646-0.0503-0.30121z"/>
   <path d="m142.86 42.688 0.16861 0.13668 0.52008-0.64153c0.20454-0.1136 0.3553-0.0936 0.43961-0.02525 0.0411 0.03331 0.0587 0.05787 0.0833 0.0948l0.15292-0.12138c-0.0212-0.04106-0.0471-0.07228-0.0902-0.10725-0.1131-0.09168-0.28091-0.09483-0.45045-0.0244l-6e-3 -0.0046 0.1323-0.19261-0.13983-0.11335z"/>
   <path d="m143.89 42.701c-0.27396 0.32644-0.23148 0.68346 0.0301 0.90297 0.11761 0.09869 0.27199 0.14532 0.42756 0.14112l0.0169-0.17245c-0.10304 0.0031-0.22125-0.01635-0.31452-0.09463-0.18045-0.15144-0.17651-0.40731 0.0124-0.63237 0.19058-0.22709 0.44967-0.27228 0.62809-0.12255 0.0791 0.06639 0.10928 0.1539 0.12554 0.25394l0.17332-0.03773c-0.0142-0.119-0.0595-0.25032-0.18923-0.35922-0.25344-0.2127-0.6327-0.2096-0.91006 0.12089z"/>
   <path d="m144.47 44.031 0.16392 0.14228 0.54135-0.62368c0.20824-0.10666 0.35825-0.0816 0.4402-0.01046 0.04 0.03471 0.0568 0.0598 0.0801 0.09754l0.15691-0.11616c-0.0198-0.04176-0.0446-0.07375-0.0866-0.11021-0.10994-0.09543-0.27756-0.10422-0.44937-0.03959l-6e-3 -0.0054 0.13869-0.18806-0.13592-0.11798z"/>
   <path d="m145.29 44.301c-0.15403 0.17119-0.1243 0.37954 0.037 0.52473 0.11806 0.10623 0.28097 0.13888 0.44073 0.14731l4e-3 0.0039-0.0889 0.12652 0.1338 0.1204 0.52761-0.58638c0.21423-0.23809 0.25572-0.48206 0.0215-0.69275-0.15348-0.1381-0.34748-0.19159-0.48737-0.21421l-0.0359 0.17059c0.1208 0.01611 0.26521 0.05345 0.37738 0.1544 0.15545 0.13988 0.0905 0.29511-0.0192 0.41711-0.44803-0.32124-0.72289-0.37984-0.91057-0.17126zm0.17 0.13161c0.10978-0.122 0.28882-0.10333 0.64496 0.14591l-0.23902 0.26564c-0.16684-5.56e-4 -0.2843-0.0244-0.37678-0.10758-0.0944-0.08498-0.12653-0.19574-0.0291-0.30397z"/>
   <path d="m147.17 46.247c-0.0417-0.01751-0.0968-0.044-0.1295-0.07491-0.10781-0.10172-0.0846-0.20352 0.0244-0.31904l0.49048-0.51982 0.25413 0.23978 0.12171-0.12899-0.25414-0.23979 0.24706-0.26183-0.13091-0.12353-0.26632 0.24367-0.34269-0.32335 0.13988-0.14825c0.11263-0.11936 0.21311-0.14101 0.30167-0.05748 0.0346 0.03269 0.064 0.07491 0.0841 0.12301l0.1491-0.08859c-0.026-0.05733-0.0691-0.12345-0.12688-0.17794-0.18675-0.17621-0.38601-0.13859-0.56586 0.05198l-0.13987 0.14824-0.13615-0.11027-0.11262 0.11937 0.12706 0.11989-0.76114 0.80668 0.15787 0.14896 0.76114-0.80668 0.33499 0.31608-0.48865 0.51789c-0.17439 0.18483-0.2269 0.37548-0.0267 0.5644 0.0578 0.05446 0.13764 0.09711 0.20597 0.12884z"/>
   <path d="m149.5 48.881 0.29887 0.3293c0.35223 0.38809 0.78348 0.38275 1.1931 0.01092 0.40769-0.37002 0.44489-0.78984 0.0855-1.1858l-0.2917-0.32145zm0.28272 0.04369 1.0192-0.92505 0.13164 0.14504c0.27395 0.30185 0.22883 0.61448-0.0946 0.90801-0.32537 0.29531-0.6507 0.3189-0.92466 0.01704z"/>
   <path d="m150.57 50.075 0.14263 0.16361 0.62252-0.5427c0.22101-0.07677 0.36609-0.03122 0.43741 0.05059 0.0348 0.0399 0.048 0.06709 0.0658 0.1077l0.17149-0.09332c-0.0139-0.04408-0.0339-0.07924-0.0705-0.12114-0.0957-0.10974-0.26046-0.14166-0.43957-0.1014l-5e-3 -0.0062 0.1634-0.16704-0.11828-0.13568z"/>
   <path d="m151.34 50.455c-0.17626 0.1482-0.17567 0.35867-0.0359 0.5248 0.10221 0.12156 0.25902 0.17645 0.41608 0.20693l3e-3 0.0039-0.10558 0.11299 0.11584 0.13777 0.60374-0.50764c0.24514-0.20613 0.32002-0.442 0.11731-0.68309-0.13288-0.15803-0.3176-0.23787-0.45301-0.27964l-0.0593 0.16395c0.11741 0.03269 0.25526 0.08971 0.35236 0.20519 0.13458 0.16005 0.0488 0.3048-0.0769 0.41042-0.39922-0.3802-0.66332-0.4763-0.87807-0.29572zm0.15014 0.15388c0.12561-0.10562 0.30034-0.06236 0.61853 0.23384l-0.2735 0.22997c-0.16516-0.0237-0.2782-0.06352-0.35826-0.15872-0.0818-0.09725-0.0982-0.21139 0.0133-0.30508z"/>
   <path d="m151.88 51.967c0.0577-0.04648 0.14243-0.06368 0.25207-0.033 0.0225 0.0533 0.0565 0.10402 0.0881 0.14319l0.13941 0.17322c0.10455 0.12991 0.13171 0.22697 0.0389 0.30166-0.10517 0.08464-0.30539 0.0385-0.45974-0.15325-0.14605-0.18147-0.16595-0.34552-0.0587-0.43182zm-0.14218-0.13022c-0.17322 0.13941-0.13404 0.3865 0.0634 0.63189 0.2506 0.31137 0.5691 0.37782 0.75469 0.22845 0.16703-0.13443 0.14461-0.31006-0.0429-0.54307l-0.15601-0.19383c-0.10953-0.1361-0.0974-0.21385-0.0335-0.2653 0.0557-0.04478 0.1119-0.04245 0.17105-0.0323 0.0139 0.0636 0.0462 0.12926 0.0861 0.17875 0.1643 0.20414 0.42945 0.25917 0.64391 0.08657 0.0845-0.06802 0.13262-0.16451 0.13982-0.24845l0.16596 0.2062 0.12991-0.10455-0.28048-0.3485c-0.0154-0.04873-0.0449-0.10652-0.0898-0.16219-0.1643-0.20415-0.44187-0.26616-0.66045-0.09024-0.1196 0.09625-0.16507 0.23818-0.16557 0.34732l-8e-3 7e-3c-0.0765-0.02332-0.189-0.02797-0.27355 0.04005-0.0784 0.06306-0.10044 0.14539-0.0915 0.21978l-8e-3 7e-3c-0.13489-0.04098-0.26013-0.03192-0.34467 0.03618zm0.95633-0.08673c-0.0929-0.11548-0.0782-0.28708 0.0682-0.40492 0.14641-0.11783 0.30936-0.09268 0.40395 0.02487 0.0946 0.11753 0.0843 0.2821-0.062 0.39994-0.14641 0.11783-0.3172 0.0956-0.41014-0.01991z"/>
   <path d="m153.26 52.306c-0.33783 0.25979-0.36193 0.63227-0.16991 0.88197 0.19201 0.2497 0.55819 0.32206 0.89602 0.06229 0.34203-0.26301 0.36613-0.6355 0.17412-0.88519-0.19202-0.2497-0.5582-0.32206-0.90023-0.05903zm0.13716 0.17836c0.23501-0.18072 0.48646-0.18375 0.62038-0.0096 0.13554 0.17626 0.0664 0.4164-0.16858 0.59712-0.23291 0.17911-0.48065 0.18262-0.61619 0.0062-0.13392-0.17415-0.0686-0.41478 0.16439-0.59388z"/>
   <path d="m153.68 53.914 0.12825 0.17511 0.75168-0.55056c0.18128 0.02797 0.28998 0.05996 0.36818 0.16671 0.10011 0.13667 0.0606 0.25746-0.13371 0.3998l-0.63423 0.46453 0.12825 0.17511 0.65773-0.48173c0.26479-0.19395 0.33378-0.39541 0.17425-0.61322-0.10479-0.14308-0.25988-0.19354-0.43005-0.21982l-5e-3 -0.0062 0.13854-0.12444-0.10637-0.14521z"/>
   <path d="m155.55 55.312 0.26627-0.07962c0.19384-0.05888 0.38251-0.12069 0.57991-0.18845l6e-3 0.0088c-0.1346 0.1595-0.26048 0.31302-0.38554 0.47241l-0.17207 0.21722zm-0.16307 1.013 0.13158 0.19222 1.101-1.4657-0.14054-0.20532-1.7648 0.4959 0.12709 0.18567 0.53105-0.16142 0.35733 0.52204z"/>
   <path d="m155.5 56.894c0.062-0.04052 0.14805-0.04919 0.2541-0.0078 0.017 0.05523 0.0459 0.10911 0.0734 0.15122l0.12151 0.18621c0.0911 0.13965 0.10851 0.23894 9e-3 0.30404-0.11305 0.07375-0.3077 8e-3 -0.44223-0.19818-0.12729-0.19507-0.13081-0.36029-0.0156-0.43552zm-0.12854-0.1437c-0.18621 0.12151-0.17177 0.37127 2.7e-4 0.63506 0.21842 0.33473 0.52875 0.4325 0.72826 0.3023 0.17955-0.11717 0.17469-0.29415 0.0112-0.54465l-0.13598-0.20837c-0.0955-0.14631-0.0756-0.22246-7e-3 -0.26731 0.0599-0.03904 0.11557-0.03114 0.17342-0.01519 8e-3 0.06469 0.0332 0.13321 0.0679 0.18641 0.14321 0.21946 0.40157 0.30056 0.63212 0.15012 0.0909-0.05934 0.14832-0.15052 0.16381-0.23333l0.14466 0.22167 0.13965-0.09113-0.24447-0.37463c-0.0105-0.05005-0.0342-0.11046-0.0732-0.17031-0.1432-0.21946-0.41324-0.30875-0.64821-0.15542-0.12858 0.0839-0.18792 0.22061-0.19926 0.32916l-9e-3 0.0054c-0.0738-0.03083-0.18529-0.04664-0.27617 0.0127-0.0842 0.055-0.11439 0.1347-0.11293 0.2096l-9e-3 0.0054c-0.13015-0.05415-0.25566-0.05756-0.34655 0.0016zm0.96022 0.0087c-0.081-0.12414-0.0493-0.29342 0.10814-0.39612 0.1574-0.10271 0.31704-0.06151 0.3995 0.06484 0.0824 0.12636 0.0558 0.28908-0.1015 0.39178-0.15739 0.10271-0.32513 0.0636-0.40614-0.0605z"/>
   <path d="m156.83 57.367c-0.35726 0.22247-0.42661 0.58683-0.24471 0.87894 0.0923 0.1483 0.21678 0.23296 0.33622 0.28955l0.0808-0.14072c-0.10206-0.04873-0.19033-0.11535-0.25469-0.21871-0.13013-0.20896-0.07-0.44287 0.15756-0.60326l0.45893 0.73699c0.0298-0.0123 0.0671-0.03246 0.10531-0.05624 0.31233-0.19449 0.41436-0.4763 0.24087-0.75493-0.15532-0.24941-0.52299-0.35411-0.88025-0.13164zm0.19507 0.12799c0.2342-0.11465 0.44677-0.05369 0.54192 0.0991 0.10634 0.17076 0.0443 0.34658-0.17813 0.4851z"/>
   <path d="m161.02 64.586c-0.5171 0.23126-0.68863 0.66463-0.50275 1.0802 0.0951 0.21263 0.25614 0.35228 0.40409 0.4108l0.66692-0.29826-0.23235-0.51951-0.16673 0.07452 0.15022 0.33587-0.4132 0.1848c-0.0861-0.03687-0.17205-0.13184-0.22284-0.2454-0.15129-0.33828 0.0157-0.63915 0.41441-0.81746 0.39386-0.17615 0.73219-0.08098 0.87592 0.24039 0.0703 0.15706 0.0517 0.28423 3e-3 0.40179l0.17994 0.05872c0.0545-0.13747 0.0887-0.32675-8e-3 -0.54181-0.1902-0.42528-0.63915-0.59274-1.149-0.36472z"/>
   <path d="m161.04 66.799 0.085 0.20261 1.4304-0.59986 0.20371 0.48577 0.17087-0.07166-0.49238-1.1741-0.17087 0.07166 0.2037 0.48577z"/>
   <path d="m162.14 67.611 0.27732-0.01804c0.20211-0.0141 0.39981-0.03207 0.60737-0.05399l4e-3 0.0098c-0.16687 0.12536-0.32387 0.24686-0.4814 0.37425l-0.21629 0.17326zm-0.38543 0.95088 0.0853 0.21677 1.4008-1.1825-0.0911-0.23155-1.831 0.08878 0.0824 0.20938 0.5537-0.03858 0.23157 0.58872z"/>
   <path d="m162.23 69.271c-0.0704 0.1489-0.1214 0.34426-0.0304 0.59847 0.099 0.27664 0.38612 0.46627 0.73005 0.3432 0.34392-0.12307 0.41908-0.40017 0.32187-0.67182-0.0348-0.0972-0.0856-0.16055-0.15219-0.22105l0.48619-0.12618 0.22027 0.61558 0.17696-0.06329-0.28449-0.79503-0.78384 0.22144-0.0305 0.13463c0.0962 0.07243 0.15516 0.12722 0.1944 0.23687 0.0731 0.20437-8e-3 0.38532-0.22763 0.4638-0.22181 0.07937-0.41916-0.02432-0.48872-0.21871-0.0668-0.18692-0.0225-0.33776 0.0384-0.46635z"/>
   <path d="m163.91 75.322 0.10615 0.43184c0.1251 0.50896 0.50694 0.70948 1.0442 0.57743 0.53466-0.13142 0.76716-0.48295 0.63952-1.0022l-0.10362-0.42156zm0.22786 0.17296 1.3366-0.32856 0.0468 0.19021c0.0973 0.39585-0.0912 0.64934-0.5153 0.75359-0.42669 0.10488-0.72405-0.0292-0.82135-0.42503z"/>
   <path d="m164.89 76.652c-0.41626 0.09134-0.59657 0.41816-0.52906 0.72584 0.0675 0.30767 0.36811 0.52896 0.78436 0.43762 0.42143-0.09247 0.60175-0.4193 0.53423-0.72697-0.0675-0.30767-0.3681-0.52896-0.78953-0.43649zm0.0483 0.21977c0.28957-0.06352 0.51841 0.04067 0.56549 0.2553 0.0476 0.21718-0.11707 0.40509-0.40664 0.46862-0.28699 0.06298-0.51267-0.03928-0.56032-0.25644-0.0471-0.21459 0.11448-0.40451 0.40147-0.46749z"/>
   <path d="m165.2 78.071c-0.41829 0.08153-0.60623 0.40402-0.54597 0.7132 0.0603 0.30917 0.35556 0.53747 0.77385 0.45594 0.42349-0.08254 0.61143-0.40504 0.55117-0.71421-0.0603-0.30917-0.35556-0.53747-0.77905-0.45493zm0.0431 0.22084c0.29098-0.05671 0.5173 0.05291 0.55934 0.26853 0.0425 0.21824-0.12656 0.40222-0.41755 0.45894-0.28839 0.05624-0.5116-0.05128-0.55414-0.26954-0.042-0.21565 0.12396-0.40172 0.41235-0.45792z"/>
   <path d="m164.87 79.698 0.0352 0.21418 0.91941-0.15108c0.14992 0.09607 0.23281 0.19244 0.24826 0.28647 0.0267 0.16194-0.0628 0.25443-0.3005 0.29349l-0.77575 0.12747 0.0352 0.21417 0.91941-0.15108c0.14992 0.09608 0.23195 0.18722 0.24826 0.28647 0.0262 0.15933-0.0632 0.25182-0.30092 0.29088l-0.77576 0.12747 0.0352 0.21418 0.80448-0.13219c0.32388-0.05322 0.47567-0.20692 0.43275-0.46811-0.0253-0.15411-0.14604-0.26839-0.31158-0.378 0.1429-0.07716 0.21716-0.19663 0.18539-0.38992-0.0249-0.15149-0.14081-0.26924-0.27899-0.35921l-2e-3 -0.0078 0.17984-0.04834-0.0292-0.17761z"/>
   <path d="m165.28 82.404 0.12815 1.019 0.18647-0.02347-0.1004-0.7984 0.62505-0.0786 0.0819 0.65132 0.18647-0.02347-0.0819-0.65132 0.54102-0.06802 0.0971 0.77213 0.18384-0.0231-0.12485-0.99274z"/>
   <path d="m165.85 83.755c-0.25266 0.02711-0.41649 0.13784-0.38713 0.41155 8e-3 0.07896 0.0414 0.16327 0.0728 0.23179l0.15865-0.05957c-0.0203-0.04044-0.0449-0.09634-0.0497-0.14109-0.0158-0.14738 0.0683-0.20698 0.22623-0.22393l0.71061-0.07623 0.0369 0.34478 0.17634-0.01889-0.037-0.34478 0.35793-0.03843-0.0194-0.1816-0.36076 0.01209-0.0346-0.19861-0.16318 0.01752 0.0203 0.18949z"/>
   <path d="m166.17 84.473c-0.41919 0.03749-0.64538 0.33143-0.61473 0.67417 0.0156 0.17401 0.0884 0.30569 0.16953 0.41005l0.13553-0.08919c-0.0691-0.08949-0.11786-0.18877-0.1287-0.31006-0.0219-0.24519 0.13723-0.42685 0.41265-0.46741l0.0773 0.86476c0.0321 0.0024 0.0745 0.0016 0.11935-0.0024 0.36647-0.03277 0.58461-0.2383 0.55538-0.56522-0.0262-0.29265-0.30712-0.55189-0.72632-0.51441zm0.11641 0.2022c0.26073 0.0031 0.42299 0.15353 0.43902 0.33281 0.0179 0.20037-0.11672 0.32934-0.37773 0.35267z"/>
   <path d="m165.65 85.933 0.0154 0.2165 0.82377-0.05864c0.22272 0.07173 0.31114 0.19543 0.31885 0.30369 4e-3 0.05283-2e-3 0.08241-0.0123 0.1256l0.19311 0.02866c0.0155-0.04354 0.0206-0.08373 0.0167-0.13918-0.0104-0.14521-0.12272-0.26989-0.28998-0.34555l-5.3e-4 -0.0079 0.23103-0.03502-0.0128-0.17955z"/>
   <path d="m165.71 86.851 0.0113 0.21676 0.93048-0.04849c0.13627 0.12278 0.20968 0.20908 0.21657 0.34124 9e-3 0.16918-0.0904 0.24856-0.33098 0.2611l-0.78509 0.0409 0.0113 0.21676 0.81417-0.04238c0.32778-0.01704 0.49591-0.14776 0.48186-0.41739-9e-3 -0.17711-0.11127-0.30432-0.2392-0.41958l-5.3e-4 -0.0079 0.18407-0.02812-9e-3 -0.17975z"/>
   <path d="m166.11 88.224c-0.23019 7e-3 -0.36036 0.1722-0.35395 0.38915 5e-3 0.15876 0.0936 0.29912 0.19781 0.4205l1.6e-4 0.0054-0.15292 0.0231 5e-3 0.17991 0.78845-0.02331c0.32015-0.0094 0.52526-0.14793 0.51594-0.46278-6e-3 -0.20638-0.10137-0.38364-0.18162-0.50042l-0.14823 0.09177c0.0717 0.09851 0.14447 0.22877 0.14892 0.37957 6e-3 0.20902-0.15092 0.26928-0.31497 0.27413-0.077-0.54589-0.22447-0.78516-0.50492-0.77687zm0.0222 0.21385c0.16405-0.0047 0.27418 0.13754 0.33984 0.56724l-0.35718 0.01053c-0.1148-0.12108-0.17871-0.22246-0.18239-0.34682-4e-3 -0.127 0.0542-0.2267 0.19973-0.23099z"/>
   <path d="m166.08 89.648c-0.18792 0.0024-0.29026 0.07003-0.28808 0.23414 7.9e-4 0.05826 9e-3 0.09518 0.0229 0.12412l0.16371-0.0313c-5e-3 -0.02379-5e-3 -0.03432-6e-3 -0.04757-5.2e-4 -0.03176 0.0256-0.0612 0.0945-0.06213l1.641-0.02186-3e-3 -0.21704z"/>
  </g>
  <path d="m39.975 90.481c2.1e-5 -35.594 28.855-64.449 64.449-64.449 35.594-1.4e-5 64.449 28.855 64.449 64.449" fill="none" stroke="#6f8ce9" stroke-linecap="round" stroke-width=".26458"/>
  <g>
   <path d="m145.12 88.939-3.1742 0.16648" fill="#6f8ce9" fill-rule="evenodd" stroke="#e9e56f" stroke-width=".26458"/>
   <path d="m144.95 86.812-3.1611 0.33261" fill="#6f8ce9" fill-rule="evenodd" stroke="#e9e56f" stroke-width=".26458"/>
   <g transform="matrix(0 .0021183 .0021546 0 124.18 91.027)" fill="#e9e56f" stroke-width="123.85">
    <g fill="#e9e56f" stroke-width="123.85">
     <path d="m486.41 221.41-364.07-208.5c-52.938-30.318-95.852-5.44-95.852 55.563v415.65c0 61.004 42.914 85.882 95.852 55.563l364.07-208.49c52.938-30.317 52.938-79.473 0-109.79z" fill="#e9e56f" stroke-width="123.85"/>
    </g>
   </g>
   <g>
    <g transform="matrix(.26282 .030497 -.030497 .26282 316.08 -96.113)" fill="#e9e56f" stroke-dashoffset="1.2" stroke-linecap="square" aria-label="Era of game engines">
     <path d="m-686.24 714.84 3.3635 1.5188 0.27792-0.61549-2.6354-1.19 0.93165-2.0632 2.1499 0.97079 0.27793-0.6155-2.1499-0.97079 0.80638-1.7858 2.5487 1.1508 0.27401-0.60682-3.2768-1.4797z"/>
     <path d="m-681.77 716.9 0.70002 0.34398 1.3088-2.6635c0.62569-0.56159 1.1698-0.61214 1.5198-0.44015 0.17073 0.0839 0.25205 0.15565 0.36766 0.26545l0.43862-0.54753c-0.10722-0.12687-0.22269-0.2154-0.40196-0.3035-0.46952-0.23072-1.06-0.10753-1.5976 0.27479l-0.0256-0.0126 0.30939-0.7806-0.5805-0.28525z"/>
     <path d="m-678.66 717.09c-0.39043 0.72962-0.10772 1.4311 0.57997 1.7991 0.5032 0.26926 1.0997 0.24322 1.6644 0.13546l0.0168 9e-3 -0.20158 0.51784 0.57028 0.30516 1.3373-2.4992c0.54301-1.0148 0.47821-1.9017-0.51978-2.4357-0.65415-0.35004-1.377-0.37006-1.8846-0.3288l0.021 0.62613c0.43537-0.0475 0.97138-0.0412 1.4494 0.21461 0.66253 0.35453 0.56939 0.95196 0.29115 1.4719-1.8392-0.73606-2.8486-0.70444-3.3243 0.18453zm0.70624 0.31318c0.27823-0.51996 0.919-0.6086 2.3758-0.0448l-0.60584 1.1322c-0.58265 0.14131-1.0129 0.15918-1.4071-0.0517-0.40255-0.21541-0.60964-0.57434-0.36281-1.0356z"/>
     <path d="m-672.17 719.41c-0.80988 1.2997-0.42198 2.5837 0.53868 3.1823 0.96065 0.5986 2.2842 0.38105 3.0941-0.91867 0.81994-1.3158 0.43204-2.5998-0.52861-3.1984-0.96066-0.5986-2.2842-0.38105-3.1041 0.93481zm0.68619 0.42758c0.56339-0.90415 1.4058-1.231 2.0759-0.81344 0.67811 0.42255 0.74788 1.3178 0.18449 2.2219-0.55837 0.89607-1.3877 1.2198-2.0658 0.79729-0.67004-0.41752-0.75292-1.3097-0.19455-2.2058z"/>
     <path d="m-663.09 720.03c-0.12471-0.18859-0.31515-0.39896-0.55094-0.55966-0.76241-0.51962-1.4482-0.27337-1.9786 0.50475l-0.41248 0.60521-0.54553-0.31426-0.33213 0.48731 0.51875 0.35356-2.2445 3.2933 0.6445 0.43926 2.2445-3.2933 0.80956 0.55176 0.35891-0.52661-0.80956-0.55176 0.41248-0.6052c0.33213-0.48731 0.67646-0.62098 1.038-0.37456 0.14147 0.0964 0.26938 0.22964 0.368 0.38895z"/>
     <path d="m-665.12 727.86c0.16342-0.2103 0.44534-0.34055 0.85413-0.32402 0.12269 0.16763 0.28376 0.31689 0.42646 0.42779l0.63087 0.49028c0.47316 0.36771 0.64847 0.68465 0.38582 1.0226-0.29767 0.38303-1.036 0.38749-1.7344-0.15532-0.66092-0.51362-0.86636-1.0708-0.56285-1.4614zm-0.60496-0.33763c-0.49028 0.63087-0.14875 1.4625 0.74499 2.157 1.1341 0.88134 2.3028 0.85001 2.8281 0.17407 0.47277-0.60834 0.24896-1.2039-0.59972-1.8634l-0.70598-0.54865c-0.49569-0.38522-0.51749-0.66719-0.33655-0.90001 0.15759-0.20278 0.35612-0.24123 0.57135-0.25466 0.10103 0.21102 0.26879 0.41367 0.44904 0.55375 0.74353 0.57783 1.7162 0.55075 2.3232-0.23033 0.2393-0.30793 0.32759-0.68504 0.28325-0.98451l0.75104 0.58367 0.36772-0.47316-1.2693-0.9864c-0.0943-0.15763-0.2454-0.33526-0.44818-0.49285-0.74353-0.57783-1.7655-0.56492-2.3842 0.23119-0.33852 0.4356-0.38002 0.96953-0.29144 1.3516l-0.0234 0.03c-0.28699-0.0182-0.68405 0.0587-0.92335 0.3666-0.2218 0.28539-0.23085 0.59156-0.13815 0.8443l-0.0233 0.03c-0.50556-0.0315-0.93597 0.10381-1.1753 0.41174zm3.2723-1.095c-0.42059-0.32686-0.51093-0.93915-0.0965-1.4724 0.4144-0.53324 1.005-0.58019 1.4331-0.2475 0.42809 0.33269 0.52843 0.91662 0.11402 1.4499-0.4144 0.53324-1.03 0.59688-1.4506 0.27003z"/>
     <path d="m-660.65 728.86c-0.54372 0.62383-0.42506 1.3708 0.16291 1.8832 0.43023 0.37498 1.0174 0.48301 1.5919 0.50427l0.0143 0.0125-0.31229 0.45963 0.48759 0.42498 1.8624-2.1368c0.75621-0.86762 0.89141-1.7466 0.0381-2.4903-0.55929-0.48747-1.2594-0.66865-1.7633-0.74194l-0.11961 0.61495c0.43497 0.0511 0.95598 0.17711 1.3647 0.53334 0.56646 0.49372 0.34206 1.0552-0.0454 1.4998-1.628-1.1288-2.6189-1.3237-3.2814-0.56364zm0.6183 0.4632c0.38748-0.44456 1.0318-0.38765 2.3256 0.48764l-0.8437 0.968c-0.5995 7e-3 -1.0229-0.0714-1.3599-0.36512-0.34418-0.29999-0.46574-0.69614-0.12201-1.0905z"/>
     <path d="m-657.59 733.12 0.54516 0.5578 2.3945-2.3402c0.6393-0.0263 1.0819 0.0864 1.3213 0.3313 0.41219 0.42176 0.33969 0.87831-0.27934 1.4833l-2.0204 1.9745 0.54515 0.55781 2.3945-2.3402c0.6393-0.0263 1.0686 0.0728 1.3213 0.3313 0.40554 0.41495 0.33304 0.87151-0.28599 1.4765l-2.0204 1.9745 0.54515 0.55781 2.0952-2.0476c0.84352-0.82438 0.97337-1.5897 0.30855-2.2699-0.39224-0.40135-0.98315-0.48885-1.6964-0.47013 0.26159-0.52164 0.23375-1.0264-0.25822-1.5298-0.3856-0.39455-0.96955-0.50214-1.5617-0.48203l-0.0199-0.0204 0.42964-0.51299-0.45208-0.46257z"/>
     <path d="m-650.62 737.11c-1.165 0.96435-1.2364 2.2952-0.44794 3.2478 0.4003 0.4836 0.88421 0.72512 1.3368 0.8691l0.21979-0.54c-0.38687-0.12429-0.73332-0.31907-1.0123-0.65612-0.56406-0.68143-0.46256-1.5433 0.2704-2.2241l1.9894 2.4033c0.10006-0.0581 0.22336-0.14784 0.34792-0.25094 1.0185-0.84305 1.246-1.8958 0.49397-2.8043-0.67322-0.81332-2.0329-1.009-3.198-0.0447zm0.75631 0.36177c0.77872-0.52111 1.5651-0.40647 1.9775 0.0918 0.46094 0.55687 0.32481 1.2128-0.40058 1.8133z"/>
     <path d="m-646.36 742.46c-1.2461 0.85706-1.4354 2.1764-0.73465 3.1952 0.35576 0.51724 0.81631 0.80079 1.2543 0.9844l0.26688-0.51835c-0.3743-0.15815-0.70208-0.38294-0.95003-0.74344-0.5013-0.72884-0.32365-1.5783 0.46689-2.1913l1.768 2.5705c0.10482-0.049 0.2356-0.12742 0.36883-0.21906 1.0893-0.74925 1.4095-1.7776 0.74111-2.7494-0.59832-0.8699-1.9353-1.1856-3.1814-0.32855zm0.7212 0.42752c0.82192-0.44988 1.595-0.26584 1.9615 0.26707 0.40966 0.59561 0.2158 1.2369-0.56006 1.7705z"/>
     <path d="m-645.43 747.96 0.39852 0.67046 2.8781-1.7107c0.63879 0.1625 1.0166 0.31414 1.2596 0.72296 0.31104 0.52329 0.12824 0.94177-0.61581 1.384l-2.4284 1.4434 0.39852 0.67046 2.5183-1.4969c1.0139-0.60264 1.33-1.2995 0.83424-2.1335-0.32562-0.54782-0.86297-0.78168-1.4626-0.93424l-0.0146-0.0245 0.53832-0.39744-0.33047-0.55599z"/>
     <path d="m-643.37 753.11c0.23731-0.12088 0.54786-0.11896 0.91086 0.0697 0.0398 0.20389 0.12216 0.40746 0.20419 0.5685l0.36265 0.71194c0.272 0.53395 0.29597 0.89535-0.0854 1.0896-0.43225 0.22019-1.1024-0.0896-1.5039-0.8778-0.37993-0.74584-0.32905-1.3375 0.11167-1.562zm-0.40408-0.56274c-0.71194 0.36265-0.75626 1.2606-0.2425 2.2691 0.65192 1.2798 1.7232 1.7482 2.486 1.3597 0.68651-0.34971 0.73706-0.98392 0.2492-1.9416l-0.40583-0.79669c-0.28494-0.55938-0.18483-0.82388 0.0779-0.95771 0.22884-0.11657 0.42489-0.067 0.62542 0.0123 2e-3 0.23395 0.0675 0.48869 0.17108 0.69211 0.42742 0.83907 1.3194 1.228 2.2008 0.779 0.3475-0.17701 0.5877-0.48084 0.67486-0.77075l0.43173 0.84755 0.53396-0.272-0.72963-1.4324c-0.0184-0.18278-0.0796-0.40778-0.19619-0.63662-0.42742-0.83907-1.3579-1.2618-2.2563-0.80411-0.49158 0.2504-0.75609 0.71606-0.8383 1.0995l-0.0339 0.0173c-0.25202-0.13849-0.64412-0.23765-0.99161-0.0606-0.32207 0.16406-0.46041 0.43735-0.48392 0.70552l-0.0339 0.0173c-0.44423-0.2434-0.89134-0.30386-1.2388-0.12685zm3.4274 0.39973c-0.24177-0.47463-0.0633-1.0672 0.53847-1.3738 0.60176-0.30654 1.1563-0.098 1.4024 0.38511 0.24609 0.4831 0.0887 1.0543-0.51305 1.3608-0.60175 0.30654-1.1861 0.10247-1.4278-0.37216z"/>
     <path d="m-635.46 754.82c0.12581 0.27716 0.41465 0.40719 0.68314 0.28531 0.27716-0.12581 0.36075-0.4249 0.23494-0.70206s-0.40599-0.41112-0.68314-0.28531c-0.2685 0.12188-0.36075 0.4249-0.23494 0.70206zm-5.2406 1.9402 0.3224 0.71022 4.2093-1.9108-0.32239-0.71022z"/>
     <path d="m-639.74 758.89 0.28977 0.72413 3.1085-1.2439c0.60587 0.25956 0.95562 0.46794 1.1323 0.90948 0.22616 0.56519-0.0193 0.95027-0.82291 1.2718l-2.6228 1.0495 0.28977 0.72413 2.7199-1.0884c1.095-0.43819 1.5153-1.0776 1.1549-1.9784-0.23677-0.59167-0.73137-0.906-1.3002-1.1497l-0.0106-0.0265 0.59343-0.30918-0.24029-0.6005z"/>
     <path d="m-635.78 762.68c-1.4336 0.48167-1.9782 1.6982-1.5843 2.8703 0.19994 0.59509 0.56484 0.99427 0.93552 1.2912l0.39904-0.42506c-0.31644-0.25491-0.56983-0.56112-0.70918-0.97587-0.28173-0.83853 0.12251-1.6065 1.0511-1.9787l0.99362 2.9574c0.11426-0.0183 0.26155-0.0578 0.41483-0.10927 1.2533-0.42108 1.8437-1.3218 1.4681-2.4399-0.33626-1.0008-1.535-1.6717-2.9686-1.1901zm0.57595 0.60923c0.91391-0.20671 1.6066 0.18267 1.8126 0.79578 0.23023 0.68525-0.13239 1.2486-1.025 1.5485z"/>
     <path d="m-636.04 767.59c-0.22739 0.51998-0.32023 1.1994-0.14001 1.8304 0.30039 1.0518 1.0686 1.4556 1.7911 1.2493 0.84144-0.24031 0.90294-1.0294 0.9579-1.7376 0.0484-0.55789 0.0746-1.0896 0.48617-1.2072 0.3384-0.0966 0.71336 0.0733 0.87269 0.63116 0.11232 0.39328 0.0391 0.76041-0.10334 1.1275l0.57746 0.22087c0.17774-0.41677 0.26795-0.96681 0.10862-1.5247-0.27426-0.96033-0.98497-1.3707-1.6984-1.1669-0.74997 0.21419-0.85328 0.99548-0.9017 1.6919-0.0445 0.53698-0.0942 1.1249-0.55151 1.2555-0.38413 0.10971-0.77868-0.0942-0.94585-0.67951-0.1515-0.53047-0.0443-0.98644 0.15695-1.4594z"/>
    </g>
    <path d="m145.08 90.946-4.1727-0.0512" fill="#6f8ce9" fill-rule="evenodd" stroke="#e9e56f" stroke-width=".52917"/>
    <path d="m145.12 92.882-3.1745-0.16073" fill="#6f8ce9" fill-rule="evenodd" stroke="#e9e56f" stroke-width=".26458"/>
   </g>
  </g>
 </g>
</svg>
