<?xml version="1.0" encoding="UTF-8"?>
<svg width="135.2mm" height="81.227mm" version="1.1" viewBox="0 0 135.2 81.227" xmlns="http://www.w3.org/2000/svg" xmlns:cc="http://creativecommons.org/ns#" xmlns:dc="http://purl.org/dc/elements/1.1/" xmlns:rdf="http://www.w3.org/1999/02/22-rdf-syntax-ns#">
 <metadata>
  <rdf:RDF>
   <cc:Work rdf:about="">
    <dc:format>image/svg+xml</dc:format>
    <dc:type rdf:resource="http://purl.org/dc/dcmitype/StillImage"/>
    <dc:title/>
   </cc:Work>
  </rdf:RDF>
 </metadata>
 <g fill="none" stroke="#7893ea" stroke-linecap="round" stroke-width=".26458">
  <path d="m84.799 46.699v3.9688h-11.906v14.552h-9.2604v6.6146"/>
  <path d="m121.84 17.595v5.2917h-44.979v29.633h14.552v1.8521"/>
  <path d="m74.216 16.272v10.583h18.521v10.583"/>
  <path d="m82.153 16.272v2.6458h19.844v-17.198h19.844v6.6146"/>
  <path d="m66.278 16.272v5.2917h-21.167v7.9375"/>
  <path d="m45.111 38.761v5.2917h-26.458v6.6146"/>
  <path d="m53.049 38.761v6.6146h-17.198v19.844h-14.552v6.6146"/>
  <path d="m37.174 38.761v3.9688h-6.6146v-42.333h-17.198v5.2917"/>
  <path d="m92.736 46.699v2.6458h-26.458v-23.813h-52.388v7.1438"/>
  <path d="m100.67 46.699v3.9688h13.229v15.875"/>
  <path d="m113.9 17.595v7.9375h7.9375v6.6146"/>
  <path d="m129.78 17.595v10.583h-70.115v19.844h-2.6458v3.7042"/>
 </g>
 <g>
  <rect x="60.986" y=".13229" width="26.458" height="16.007" fill="#2f3744" stroke="#7b8694" stroke-linecap="round" stroke-width=".26458"/>
  <g fill="#e8eaec" stroke-linecap="round" stroke-width=".26458" aria-label="Game Entities">
   <path d="m63.64 3.9155c0 0.79269 0.45561 1.2594 1.0927 1.2594 0.32597 0 0.59637-0.12594 0.75565-0.28152v-1.0224h-0.7964v0.25559h0.51488v0.63341c-0.09631 0.0889-0.2667 0.14446-0.4408 0.14446-0.51858 0-0.80751-0.38523-0.80751-0.99642 0-0.60378 0.31486-0.9816 0.80751-0.9816 0.24077 0 0.39264 0.096308 0.51488 0.22595l0.1778-0.19632c-0.14446-0.14817-0.36671-0.30004-0.69638-0.30004-0.65193 0-1.1224 0.47784-1.1224 1.2594z"/>
   <path d="m65.938 4.6637c0 0.32226 0.22595 0.51118 0.5297 0.51118 0.22225 0 0.42228-0.11853 0.59637-0.25929h0.0074l0.02593 0.21484h0.25188v-1.1038c0-0.4482-0.18521-0.74083-0.626-0.74083-0.28893 0-0.54081 0.12594-0.7075 0.23336l0.12224 0.21114c0.14076-0.096309 0.32597-0.19262 0.5371-0.19262 0.29263 0 0.37042 0.22225 0.37042 0.45191-0.76676 0.085196-1.1075 0.28152-1.1075 0.67416zm0.30004-0.022225c0-0.22966 0.20373-0.37783 0.80751-0.45191v0.50006c-0.1741 0.15558-0.31856 0.24077-0.49265 0.24077-0.1778 0-0.31486-0.085196-0.31486-0.28893z"/>
   <path d="m67.922 5.1304h0.30374v-1.3039c0.16669-0.18521 0.31856-0.27781 0.45191-0.27781 0.22966 0 0.33708 0.14446 0.33708 0.48154v1.1001h0.30374v-1.3039c0.16669-0.18521 0.31115-0.27781 0.45191-0.27781 0.22595 0 0.33338 0.14446 0.33338 0.48154v1.1001h0.30374v-1.1409c0-0.45932-0.1778-0.70379-0.54822-0.70379-0.21855 0-0.40376 0.14076-0.59267 0.34449-0.07408-0.21484-0.22225-0.34449-0.49636-0.34449-0.21484 0-0.40376 0.13335-0.55933 0.30374h-0.01111l-0.02593-0.25929h-0.25188z"/>
   <path d="m70.856 4.234c0 0.58896 0.38153 0.94086 0.86307 0.94086 0.24448 0 0.43709-0.085196 0.59267-0.18521l-0.10742-0.20003c-0.13335 0.085196-0.27781 0.14076-0.4482 0.14076-0.34449 0-0.57785-0.24448-0.60008-0.63341h1.215c0.0074-0.04445 0.01111-0.10372 0.01111-0.16669 0-0.51488-0.25929-0.84455-0.71861-0.84455-0.41116 0-0.80751 0.3593-0.80751 0.94827zm0.29633-0.13705c0.03704-0.36301 0.2667-0.57044 0.51858-0.57044 0.28152 0 0.4445 0.20373 0.4445 0.57044z"/>
   <path d="m73.591 5.1304h1.4372v-0.263h-1.1261v-0.88159h0.91863v-0.263h-0.91863v-0.76306h1.089v-0.25929h-1.4002z"/>
   <path d="m75.504 5.1304h0.30374v-1.3039c0.1815-0.1815 0.30745-0.27781 0.49266-0.27781 0.23707 0 0.34078 0.14446 0.34078 0.48154v1.1001h0.30374v-1.1409c0-0.45932-0.17039-0.70379-0.54822-0.70379-0.24818 0-0.43339 0.13335-0.60378 0.30374h-0.01111l-0.02593-0.25929h-0.25188z"/>
   <path d="m77.582 4.5748c0 0.3556 0.12965 0.60008 0.51488 0.60008 0.11112 0 0.23336-0.033338 0.33338-0.066675l-0.05927-0.22966c-0.05927 0.022225-0.14076 0.048154-0.20373 0.048154-0.20743 0-0.27781-0.12594-0.27781-0.34819v-1.0001h0.48525v-0.24818h-0.48524v-0.50377h-0.25559l-0.03704 0.50377-0.28152 0.018521v0.22966h0.2667z"/>
   <path d="m78.937 2.9598c0.11853 0 0.21114-0.081492 0.21114-0.19632 0-0.11853-0.0926-0.19632-0.21114-0.19632-0.11853 0-0.21114 0.077788-0.21114 0.19632 0 0.11483 0.0926 0.19632 0.21114 0.19632zm-0.15558 2.1706h0.30374v-1.8002h-0.30374z"/>
   <path d="m79.745 4.5748c0 0.3556 0.12965 0.60008 0.51488 0.60008 0.11112 0 0.23336-0.033338 0.33338-0.066675l-0.05927-0.22966c-0.05927 0.022225-0.14076 0.048154-0.20373 0.048154-0.20743 0-0.27781-0.12594-0.27781-0.34819v-1.0001h0.48525v-0.24818h-0.48525v-0.50377h-0.25559l-0.03704 0.50377-0.28152 0.018521v0.22966h0.2667z"/>
   <path d="m81.1 2.9598c0.11853 0 0.21114-0.081492 0.21114-0.19632 0-0.11853-0.0926-0.19632-0.21114-0.19632-0.11853 0-0.21114 0.077788-0.21114 0.19632 0 0.11483 0.09261 0.19632 0.21114 0.19632zm-0.15558 2.1706h0.30374v-1.8002h-0.30374z"/>
   <path d="m81.723 4.234c0 0.58896 0.38153 0.94086 0.86307 0.94086 0.24448 0 0.43709-0.085196 0.59267-0.18521l-0.10742-0.20003c-0.13335 0.085196-0.27781 0.14076-0.4482 0.14076-0.34449 0-0.57785-0.24448-0.60008-0.63341h1.215c0.0074-0.04445 0.01111-0.10372 0.01111-0.16669 0-0.51488-0.25929-0.84455-0.71861-0.84455-0.41116 0-0.80751 0.3593-0.80751 0.94827zm0.29633-0.13705c0.03704-0.36301 0.2667-0.57044 0.51858-0.57044 0.28152 0 0.4445 0.20373 0.4445 0.57044z"/>
   <path d="m83.494 4.9267c0.17039 0.14076 0.41487 0.24818 0.67046 0.24818 0.42598 0 0.65934-0.24448 0.65934-0.5371 0-0.34078-0.28892-0.4482-0.54822-0.54451-0.20373-0.077787-0.40005-0.14446-0.40005-0.31115 0-0.13705 0.10372-0.25929 0.32967-0.25929 0.15928 0 0.28892 0.066675 0.41116 0.15928l0.14446-0.19262c-0.13705-0.11113-0.33338-0.20373-0.55933-0.20373-0.38894 0-0.6186 0.22225-0.6186 0.51118 0 0.30374 0.28152 0.42598 0.5371 0.51858 0.19632 0.074083 0.41116 0.15558 0.41116 0.34078 0 0.15558-0.11853 0.28152-0.3556 0.28152-0.21484 0-0.37412-0.0889-0.5297-0.21484z"/>
  </g>
  <rect transform="rotate(90)" x="9.6573" y="-68.924" width="5.2917" height="5.2917" fill="#7893ea"/>
 </g>
 <path d="m60.986 8.3344h26.458" fill="none" stroke="#a6aeb8" stroke-linecap="round" stroke-width=".26458"/>
 <g>
  <rect transform="rotate(90)" x="9.6573" y="-76.861" width="5.2917" height="5.2917" fill="#7893ea"/>
  <rect transform="rotate(90)" x="9.6573" y="-84.799" width="5.2917" height="5.2917" fill="#7893ea"/>
  <rect x="31.882" y="29.236" width="26.458" height="9.525" fill="#2f3744" stroke="#7b8694" stroke-linecap="round" stroke-width=".26458"/>
  <g fill="#e8eaec" stroke-linecap="round" stroke-width=".26458" aria-label="Entity">
   <path d="m40.869 35.028h1.4372v-0.263h-1.1261v-0.88159h0.91863v-0.263h-0.91863v-0.76306h1.089v-0.25929h-1.4002z"/>
   <path d="m42.783 35.028h0.30374v-1.3039c0.1815-0.1815 0.30745-0.27781 0.49265-0.27781 0.23707 0 0.34078 0.14446 0.34078 0.48154v1.1001h0.30374v-1.1409c0-0.45932-0.17039-0.70379-0.54822-0.70379-0.24818 0-0.43339 0.13335-0.60378 0.30374h-0.01111l-0.02593-0.25929h-0.25188z"/>
   <path d="m44.86 34.473c0 0.3556 0.12965 0.60008 0.51488 0.60008 0.11112 0 0.23336-0.03334 0.33338-0.06668l-0.05927-0.22966c-0.05927 0.02222-0.14076 0.04815-0.20373 0.04815-0.20743 0-0.27781-0.12594-0.27781-0.34819v-1.0001h0.48525v-0.24818h-0.48525v-0.50377h-0.25559l-0.03704 0.50377-0.28152 0.01852v0.22966h0.2667z"/>
   <path d="m46.215 32.858c0.11853 0 0.21114-0.08149 0.21114-0.19632 0-0.11853-0.0926-0.19632-0.21114-0.19632-0.11853 0-0.21114 0.07779-0.21114 0.19632 0 0.11483 0.0926 0.19632 0.21114 0.19632zm-0.15558 2.1706h0.30374v-1.8002h-0.30374z"/>
   <path d="m47.023 34.473c0 0.3556 0.12965 0.60008 0.51488 0.60008 0.11112 0 0.23336-0.03334 0.33338-0.06668l-0.05927-0.22966c-0.05927 0.02222-0.14076 0.04815-0.20373 0.04815-0.20743 0-0.27781-0.12594-0.27781-0.34819v-1.0001h0.48525v-0.24818h-0.48525v-0.50377h-0.25559l-0.03704 0.50377-0.28152 0.01852v0.22966h0.2667z"/>
   <path d="m48.101 35.525-0.05927 0.24077c0.05927 0.02222 0.12965 0.03704 0.21114 0.03704 0.36301 0 0.54822-0.2704 0.67416-0.626l0.67787-1.9484h-0.29633l-0.32226 0.99642c-0.04815 0.15928-0.10001 0.34449-0.15187 0.50747h-0.01482c-0.055559-0.16669-0.11853-0.3519-0.17409-0.50747l-0.36671-0.99642h-0.31485l0.72231 1.8039-0.04075 0.13335c-0.07408 0.22225-0.20373 0.38523-0.40746 0.38523-0.04445 0-0.10001-0.01482-0.13705-0.02593z"/>
  </g>
 </g>
 <g fill="#1d232d" stroke="#7893ea" stroke-dashoffset="1.2" stroke-linecap="square" stroke-miterlimit="40" stroke-width=".26458">
  <rect transform="rotate(90)" x="15.605" y="-68.395" width="1.3229" height="4.2333"/>
  <rect transform="rotate(90)" x="15.605" y="-76.332" width="1.3229" height="4.2333"/>
  <rect transform="rotate(90)" x="15.605" y="-84.27" width="1.3229" height="4.2333"/>
  <rect transform="rotate(90)" x="38.359" y="-39.291" width="1.3229" height="4.2333"/>
  <rect transform="rotate(90)" x="38.359" y="-47.228" width="1.3229" height="4.2333"/>
  <rect transform="rotate(90)" x="38.359" y="-55.166" width="1.3229" height="4.2333"/>
  <rect transform="rotate(90)" x="28.57" y="-47.228" width="1.3229" height="4.2333"/>
 </g>
 <rect x="79.507" y="37.174" width="26.458" height="9.525" fill="#2f3744" stroke="#7b8694" stroke-linecap="round" stroke-width=".26458"/>
 <g fill="#e8eaec" stroke-linecap="round" stroke-width=".26458" aria-label="Entity">
  <path d="m88.494 42.966h1.4372v-0.263h-1.1261v-0.88159h0.91863v-0.263h-0.91863v-0.76306h1.089v-0.25929h-1.4002z"/>
  <path d="m90.408 42.966h0.30374v-1.3039c0.1815-0.1815 0.30745-0.27781 0.49265-0.27781 0.23707 0 0.34078 0.14446 0.34078 0.48154v1.1001h0.30374v-1.1409c0-0.45932-0.17039-0.70379-0.54822-0.70379-0.24818 0-0.43339 0.13335-0.60378 0.30374h-0.01111l-0.02593-0.25929h-0.25188z"/>
  <path d="m92.485 42.41c0 0.3556 0.12965 0.60008 0.51488 0.60008 0.11112 0 0.23336-0.03334 0.33338-0.06668l-0.05927-0.22966c-0.05927 0.02222-0.14076 0.04815-0.20373 0.04815-0.20743 0-0.27781-0.12594-0.27781-0.34819v-1.0001h0.48525v-0.24818h-0.48525v-0.50377h-0.25559l-0.03704 0.50377-0.28152 0.01852v0.22966h0.2667z"/>
  <path d="m93.84 40.795c0.11853 0 0.21114-0.08149 0.21114-0.19632 0-0.11853-0.0926-0.19632-0.21114-0.19632-0.11853 0-0.21114 0.07779-0.21114 0.19632 0 0.11483 0.0926 0.19632 0.21114 0.19632zm-0.15558 2.1706h0.30374v-1.8002h-0.30374z"/>
  <path d="m94.648 42.41c0 0.3556 0.12965 0.60008 0.51488 0.60008 0.11112 0 0.23336-0.03334 0.33338-0.06668l-0.05927-0.22966c-0.05927 0.02222-0.14076 0.04815-0.20373 0.04815-0.20743 0-0.27781-0.12594-0.27781-0.34819v-1.0001h0.48525v-0.24818h-0.48525v-0.50377h-0.25559l-0.03704 0.50377-0.28152 0.01852v0.22966h0.2667z"/>
  <path d="m95.726 43.462-0.05927 0.24077c0.05927 0.02222 0.12965 0.03704 0.21114 0.03704 0.36301 0 0.54822-0.2704 0.67416-0.626l0.67786-1.9484h-0.29633l-0.32226 0.99642c-0.04816 0.15928-0.10001 0.34449-0.15187 0.50747h-0.01482c-0.05556-0.16669-0.11853-0.3519-0.1741-0.50747l-0.36671-0.99642h-0.31485l0.72231 1.8039-0.04075 0.13335c-0.07408 0.22225-0.20373 0.38523-0.40746 0.38523-0.04445 0-0.10001-0.01482-0.13705-0.02593z"/>
 </g>
 <g fill="#1d232d" stroke="#7893ea" stroke-dashoffset="1.2" stroke-linecap="square" stroke-miterlimit="40" stroke-width=".26458">
  <rect transform="rotate(90)" x="46.297" y="-86.916" width="1.3229" height="4.2333"/>
  <rect transform="rotate(90)" x="46.297" y="-94.853" width="1.3229" height="4.2333"/>
  <rect transform="rotate(90)" x="46.297" y="-102.79" width="1.3229" height="4.2333"/>
  <rect transform="rotate(90)" x="36.507" y="-94.853" width="1.3229" height="4.2333"/>
 </g>
 <rect x="108.61" y="8.0698" width="26.458" height="9.525" fill="#2f3744" stroke="#7b8694" stroke-linecap="round" stroke-width=".26458"/>
 <g fill="#e8eaec" stroke-linecap="round" stroke-width=".26458" aria-label="Entity">
  <path d="m117.6 13.862h1.4372v-0.263h-1.1261v-0.88159h0.91863v-0.263h-0.91863v-0.76306h1.089v-0.25929h-1.4002z"/>
  <path d="m119.51 13.862h0.30374v-1.3039c0.1815-0.1815 0.30744-0.27781 0.49265-0.27781 0.23707 0 0.34079 0.14446 0.34079 0.48154v1.1001h0.30374v-1.1409c0-0.45932-0.17039-0.70379-0.54822-0.70379-0.24818 0-0.43339 0.13335-0.60378 0.30374h-0.0111l-0.0259-0.25929h-0.25188z"/>
  <path d="m121.59 13.306c0 0.3556 0.12965 0.60008 0.51488 0.60008 0.11113 0 0.23336-0.03334 0.33338-0.06668l-0.0593-0.22966c-0.0593 0.02223-0.14076 0.04815-0.20373 0.04815-0.20743 0-0.27781-0.12594-0.27781-0.34819v-1.0001h0.48524v-0.24817h-0.48524v-0.50377h-0.25559l-0.037 0.50377-0.28152 0.01852v0.22966h0.2667z"/>
  <path d="m122.94 11.691c0.11854 0 0.21114-0.08149 0.21114-0.19632 0-0.11853-0.0926-0.19632-0.21114-0.19632-0.11853 0-0.21113 0.07779-0.21113 0.19632 0 0.11483 0.0926 0.19632 0.21113 0.19632zm-0.15557 2.1706h0.30374v-1.8002h-0.30374z"/>
  <path d="m123.75 13.306c0 0.3556 0.12964 0.60008 0.51488 0.60008 0.11112 0 0.23336-0.03334 0.33337-0.06668l-0.0593-0.22966c-0.0593 0.02223-0.14076 0.04815-0.20373 0.04815-0.20744 0-0.27782-0.12594-0.27782-0.34819v-1.0001h0.48525v-0.24817h-0.48525v-0.50377h-0.25558l-0.037 0.50377-0.28152 0.01852v0.22966h0.2667z"/>
  <path d="m124.83 14.358-0.0593 0.24077c0.0593 0.02222 0.12965 0.03704 0.21114 0.03704 0.36301 0 0.54822-0.2704 0.67416-0.626l0.67786-1.9484h-0.29633l-0.32227 0.99642c-0.0482 0.15928-0.10001 0.34449-0.15187 0.50747h-0.0148c-0.0556-0.16669-0.11854-0.3519-0.1741-0.50747l-0.36671-0.99642h-0.31486l0.72232 1.8039-0.0407 0.13335c-0.0741 0.22225-0.20373 0.38523-0.40746 0.38523-0.0445 0-0.10001-0.01482-0.13705-0.02593z"/>
 </g>
 <g fill="#1d232d" stroke="#7893ea" stroke-dashoffset="1.2" stroke-linecap="square" stroke-miterlimit="40" stroke-width=".26458">
  <rect transform="rotate(90)" x="17.193" y="-116.02" width="1.3229" height="4.2333"/>
  <rect transform="rotate(90)" x="17.193" y="-123.96" width="1.3229" height="4.2333"/>
  <rect transform="rotate(90)" x="17.193" y="-131.89" width="1.3229" height="4.2333"/>
  <rect transform="rotate(90)" x="7.4031" y="-123.96" width="1.3229" height="4.2333"/>
 </g>
 <g stroke-width=".26458">
  <rect x=".13229" y="5.424" width="26.458" height="9.525" fill="#2f3744" stroke="#7b8694" stroke-linecap="round"/>
  <g fill="#e8eaec" stroke-linecap="round" aria-label="State">
   <path d="m9.4481 11.166c0.21114 0.21855 0.50747 0.3593 0.84826 0.3593 0.51118 0 0.82973-0.30745 0.82973-0.69268 0-0.3593-0.21855-0.52599-0.50006-0.64823l-0.34819-0.14817c-0.18891-0.081492-0.40375-0.17039-0.40375-0.40375 0-0.21855 0.1815-0.3556 0.45561-0.3556 0.22225 0 0.40376 0.0889 0.55192 0.22966l0.16298-0.20003c-0.17039-0.1778-0.42598-0.30004-0.7149-0.30004-0.4408 0-0.76676 0.27411-0.76676 0.64453 0 0.3556 0.2667 0.5297 0.49266 0.626l0.34819 0.15187c0.22966 0.10372 0.40746 0.1815 0.40746 0.42968 0 0.23707-0.18891 0.39635-0.50747 0.39635-0.25559 0-0.49636-0.12224-0.67045-0.30374z"/>
   <path d="m11.616 10.925c0 0.3556 0.12965 0.60008 0.51488 0.60008 0.11113 0 0.23336-0.03334 0.33338-0.06668l-0.05927-0.22966c-0.05927 0.02223-0.14076 0.04815-0.20373 0.04815-0.20743 0-0.27781-0.12594-0.27781-0.34819v-1.0001h0.48525v-0.24818h-0.48524v-0.50377h-0.25559l-0.03704 0.50377-0.28152 0.018521v0.22966h0.2667z"/>
   <path d="m12.662 11.014c0 0.32226 0.22596 0.51118 0.5297 0.51118 0.22225 0 0.42228-0.11853 0.59637-0.25929h0.0074l0.02593 0.21484h0.25188v-1.1038c0-0.4482-0.18521-0.74083-0.626-0.74083-0.28892 0-0.54081 0.12594-0.7075 0.23336l0.12224 0.21114c0.14076-0.096308 0.32597-0.19262 0.5371-0.19262 0.29263 0 0.37042 0.22225 0.37042 0.45191-0.76676 0.0852-1.1075 0.28152-1.1075 0.67416zm0.30004-0.02223c0-0.22966 0.20373-0.37782 0.80751-0.45191v0.50006c-0.1741 0.15558-0.31856 0.24077-0.49265 0.24077-0.1778 0-0.31486-0.0852-0.31486-0.28892z"/>
   <path d="m14.698 10.925c0 0.3556 0.12965 0.60008 0.51488 0.60008 0.11112 0 0.23336-0.03334 0.33338-0.06668l-0.05927-0.22966c-0.05927 0.02223-0.14076 0.04815-0.20373 0.04815-0.20743 0-0.27781-0.12594-0.27781-0.34819v-1.0001h0.48525v-0.24818h-0.48524v-0.50377h-0.25559l-0.03704 0.50377-0.28152 0.018521v0.22966h0.2667z"/>
   <path d="m15.728 10.584c0 0.58896 0.38153 0.94086 0.86307 0.94086 0.24448 0 0.43709-0.0852 0.59267-0.18521l-0.10742-0.20002c-0.13335 0.0852-0.27781 0.14076-0.4482 0.14076-0.34449 0-0.57785-0.24448-0.60008-0.63341h1.215c0.0074-0.04445 0.01111-0.10372 0.01111-0.16669 0-0.51488-0.25929-0.84455-0.71861-0.84455-0.41116 0-0.80751 0.3593-0.80751 0.94827zm0.29633-0.13705c0.03704-0.36301 0.2667-0.57044 0.51858-0.57044 0.28152 0 0.4445 0.20373 0.4445 0.57044z"/>
  </g>
  <rect transform="rotate(90)" x="4.7573" y="-15.478" width="1.3229" height="4.2333" fill="#1d232d" stroke="#7893ea" stroke-dashoffset="1.2" stroke-linecap="square" stroke-miterlimit="40"/>
  <rect x="5.424" y="50.403" width="26.458" height="9.525" fill="#2f3744" stroke="#7b8694" stroke-linecap="round"/>
  <g fill="#e8eaec" stroke-linecap="round" aria-label="Mesh">
   <path d="m14.917 56.46h0.28522v-1.3372c0-0.21484-0.02223-0.50377-0.03704-0.71861h0.01482l0.19262 0.54081 0.46673 1.2705h0.1778l0.46672-1.2705 0.19262-0.54081h0.01482c-0.01482 0.21484-0.04075 0.50377-0.04075 0.71861v1.3372h0.29263v-2.4299h-0.36301l-0.46673 1.3039-0.17039 0.49636h-0.01482l-0.1741-0.49636-0.47043-1.3039h-0.36671z"/>
   <path d="m17.442 55.563c0 0.58896 0.38153 0.94086 0.86307 0.94086 0.24448 0 0.43709-0.0852 0.59267-0.18521l-0.10742-0.20002c-0.13335 0.08519-0.27781 0.14076-0.4482 0.14076-0.34449 0-0.57785-0.24448-0.60008-0.63341h1.215c0.0074-0.04445 0.01111-0.10372 0.01111-0.16669 0-0.51488-0.25929-0.84455-0.71861-0.84455-0.41116 0-0.80751 0.3593-0.80751 0.94827zm0.29633-0.13705c0.03704-0.36301 0.2667-0.57044 0.51858-0.57044 0.28152 0 0.4445 0.20373 0.4445 0.57044z"/>
   <path d="m19.213 56.256c0.17039 0.14076 0.41487 0.24818 0.67045 0.24818 0.42598 0 0.65934-0.24448 0.65934-0.5371 0-0.34078-0.28893-0.4482-0.54822-0.54451-0.20373-0.07779-0.40005-0.14446-0.40005-0.31115 0-0.13705 0.10372-0.25929 0.32967-0.25929 0.15928 0 0.28893 0.06668 0.41116 0.15928l0.14446-0.19262c-0.13705-0.11112-0.33338-0.20373-0.55933-0.20373-0.38894 0-0.6186 0.22225-0.6186 0.51118 0 0.30374 0.28152 0.42598 0.5371 0.51858 0.19632 0.07408 0.41116 0.15558 0.41116 0.34078 0 0.15558-0.11853 0.28152-0.3556 0.28152-0.21484 0-0.37412-0.0889-0.5297-0.21484z"/>
   <path d="m20.969 56.46h0.30374v-1.3039c0.1815-0.1815 0.30745-0.27781 0.49265-0.27781 0.23707 0 0.34078 0.14446 0.34078 0.48154v1.1001h0.30374v-1.1409c0-0.45932-0.17039-0.70379-0.54822-0.70379-0.24818 0-0.42968 0.13335-0.60008 0.29633l0.01111-0.37042v-0.71861h-0.30374z"/>
  </g>
  <rect transform="rotate(90)" x="49.736" y="-20.77" width="1.3229" height="4.2333" fill="#1d232d" stroke="#7893ea" stroke-dashoffset="1.2" stroke-linecap="square" stroke-miterlimit="40"/>
  <rect x="43.789" y="51.726" width="26.458" height="9.525" fill="#2f3744" stroke="#7b8694" stroke-linecap="round"/>
  <g fill="#e8eaec" stroke-linecap="round" aria-label="Logic">
   <path d="m53.221 57.783h1.3705v-0.263h-1.0594v-2.1669h-0.31115z"/>
   <path d="m54.805 56.886c0 0.59637 0.39264 0.94086 0.83344 0.94086 0.4408 0 0.83344-0.34449 0.83344-0.94086 0-0.60378-0.39264-0.94827-0.83344-0.94827-0.4408 0-0.83344 0.34449-0.83344 0.94827zm0.31486 0c0-0.41487 0.21114-0.69638 0.51858-0.69638 0.31115 0 0.51858 0.28152 0.51858 0.69638 0 0.41116-0.20743 0.68898-0.51858 0.68898-0.30745 0-0.51858-0.27781-0.51858-0.68898z"/>
   <path d="m57.079 58.086c0-0.10372 0.05556-0.21114 0.18521-0.30374 0.07779 0.02222 0.16298 0.02963 0.23336 0.02963h0.31115c0.23336 0 0.36301 0.05556 0.36301 0.22225 0 0.18891-0.22596 0.36671-0.57044 0.36671-0.32597 0-0.52229-0.12224-0.52229-0.31486zm-0.2667 0.04075c0 0.31115 0.30374 0.48525 0.74454 0.48525 0.55933 0 0.91122-0.28892 0.91122-0.6223 0-0.30004-0.21114-0.42968-0.62971-0.42968h-0.34819c-0.24448 0-0.31856-0.08149-0.31856-0.19632 0-0.10001 0.05186-0.15928 0.11483-0.21484 0.08149 0.04075 0.1815 0.06297 0.2704 0.06297 0.36671 0 0.65934-0.24077 0.65934-0.626 0-0.15187-0.06297-0.28892-0.14817-0.37042h0.37042v-0.23336h-0.626c-0.06667-0.02593-0.15558-0.04445-0.25559-0.04445-0.36671 0-0.67786 0.24818-0.67786 0.64082 0 0.21484 0.11483 0.38894 0.23336 0.48525v0.01482c-0.0926 0.06297-0.19632 0.1815-0.19632 0.33338 0 0.14076 0.07038 0.23707 0.15928 0.29263v0.01482c-0.16298 0.11113-0.263 0.25559-0.263 0.40746zm0.74454-1.1187c-0.20743 0-0.38153-0.16669-0.38153-0.42968s0.17039-0.41857 0.38153-0.41857c0.21114 0 0.38153 0.15558 0.38153 0.41857s-0.1741 0.42968-0.38153 0.42968z"/>
   <path d="m58.972 55.612c0.11853 0 0.21114-0.08149 0.21114-0.19632 0-0.11853-0.0926-0.19632-0.21114-0.19632-0.11853 0-0.21114 0.07779-0.21114 0.19632 0 0.11483 0.0926 0.19632 0.21114 0.19632zm-0.15558 2.1706h0.30374v-1.8002h-0.30374z"/>
   <path d="m59.594 56.886c0 0.59637 0.36671 0.94086 0.84455 0.94086 0.21484 0 0.42228-0.0889 0.58526-0.23336l-0.13705-0.20003c-0.10742 0.09631-0.25188 0.1815-0.42228 0.1815-0.32967 0-0.55562-0.27781-0.55562-0.68898 0-0.41487 0.23707-0.69638 0.56303-0.69638 0.14446 0 0.25559 0.06668 0.36301 0.15928l0.15187-0.19632c-0.12224-0.11483-0.28892-0.21484-0.52599-0.21484-0.46302 0-0.86678 0.34449-0.86678 0.94827z"/>
  </g>
  <rect transform="rotate(90)" x="51.059" y="-59.134" width="1.3229" height="4.2333" fill="#1d232d" stroke="#7893ea" stroke-dashoffset="1.2" stroke-linecap="square" stroke-miterlimit="40"/>
  <rect x="8.0698" y="71.57" width="26.458" height="9.525" fill="#2f3744" stroke="#7b8694" stroke-linecap="round"/>
  <g fill="#e8eaec" stroke-linecap="round" aria-label="State">
   <path d="m17.386 77.311c0.21114 0.21855 0.50747 0.3593 0.84826 0.3593 0.51118 0 0.82973-0.30745 0.82973-0.69268 0-0.3593-0.21855-0.52599-0.50006-0.64823l-0.34819-0.14817c-0.18891-0.08149-0.40376-0.17039-0.40376-0.40376 0-0.21855 0.1815-0.3556 0.45561-0.3556 0.22225 0 0.40376 0.0889 0.55192 0.22966l0.16298-0.20003c-0.17039-0.1778-0.42598-0.30004-0.7149-0.30004-0.4408 0-0.76676 0.27411-0.76676 0.64452 0 0.3556 0.2667 0.5297 0.49266 0.626l0.34819 0.15187c0.22966 0.10372 0.40746 0.1815 0.40746 0.42968 0 0.23707-0.18891 0.39635-0.50747 0.39635-0.25559 0-0.49636-0.12224-0.67046-0.30374z"/>
   <path d="m19.554 77.071c0 0.3556 0.12965 0.60008 0.51488 0.60008 0.11113 0 0.23336-0.03334 0.33338-0.06668l-0.05927-0.22966c-0.05927 0.02222-0.14076 0.04815-0.20373 0.04815-0.20743 0-0.27781-0.12594-0.27781-0.34819v-1.0001h0.48525v-0.24818h-0.48524v-0.50376h-0.25559l-0.03704 0.50377-0.28152 0.01852v0.22966h0.2667z"/>
   <path d="m20.599 77.16c0 0.32226 0.22596 0.51118 0.5297 0.51118 0.22225 0 0.42228-0.11853 0.59637-0.25929h0.0074l0.02593 0.21484h0.25188v-1.1038c0-0.4482-0.18521-0.74083-0.626-0.74083-0.28892 0-0.54081 0.12594-0.7075 0.23336l0.12224 0.21114c0.14076-0.09631 0.32597-0.19262 0.5371-0.19262 0.29263 0 0.37042 0.22225 0.37042 0.45191-0.76676 0.0852-1.1075 0.28152-1.1075 0.67416zm0.30004-0.02222c0-0.22966 0.20373-0.37783 0.80751-0.45191v0.50006c-0.1741 0.15558-0.31856 0.24077-0.49265 0.24077-0.1778 0-0.31486-0.0852-0.31486-0.28892z"/>
   <path d="m22.636 77.071c0 0.3556 0.12965 0.60008 0.51488 0.60008 0.11112 0 0.23336-0.03334 0.33338-0.06668l-0.05927-0.22966c-0.05927 0.02222-0.14076 0.04815-0.20373 0.04815-0.20743 0-0.27781-0.12594-0.27781-0.34819v-1.0001h0.48525v-0.24818h-0.48524v-0.50376h-0.25559l-0.03704 0.50377-0.28152 0.01852v0.22966h0.2667z"/>
   <path d="m23.666 76.73c0 0.58896 0.38153 0.94086 0.86307 0.94086 0.24448 0 0.43709-0.0852 0.59267-0.18521l-0.10742-0.20003c-0.13335 0.0852-0.27781 0.14076-0.4482 0.14076-0.34449 0-0.57785-0.24448-0.60008-0.63341h1.215c0.0074-0.04445 0.01111-0.10372 0.01111-0.16669 0-0.51488-0.25929-0.84455-0.71861-0.84455-0.41116 0-0.80751 0.3593-0.80751 0.94827zm0.29633-0.13705c0.03704-0.36301 0.2667-0.57044 0.51858-0.57044 0.28152 0 0.4445 0.20373 0.4445 0.57044z"/>
  </g>
  <rect transform="rotate(90)" x="70.903" y="-23.416" width="1.3229" height="4.2333" fill="#1d232d" stroke="#7893ea" stroke-dashoffset="1.2" stroke-linecap="square" stroke-miterlimit="40"/>
  <rect x="50.403" y="71.57" width="26.458" height="9.525" fill="#2f3744" stroke="#7b8694" stroke-linecap="round"/>
  <g fill="#e8eaec" stroke-linecap="round" aria-label="State">
   <path d="m59.719 77.311c0.21114 0.21855 0.50747 0.3593 0.84826 0.3593 0.51118 0 0.82973-0.30745 0.82973-0.69268 0-0.3593-0.21855-0.52599-0.50006-0.64823l-0.34819-0.14817c-0.18891-0.08149-0.40375-0.17039-0.40375-0.40376 0-0.21855 0.1815-0.3556 0.45561-0.3556 0.22225 0 0.40375 0.0889 0.55192 0.22966l0.16298-0.20003c-0.17039-0.1778-0.42598-0.30004-0.7149-0.30004-0.4408 0-0.76676 0.27411-0.76676 0.64452 0 0.3556 0.2667 0.5297 0.49265 0.626l0.34819 0.15187c0.22966 0.10372 0.40746 0.1815 0.40746 0.42968 0 0.23707-0.18891 0.39635-0.50747 0.39635-0.25559 0-0.49636-0.12224-0.67046-0.30374z"/>
   <path d="m61.887 77.071c0 0.3556 0.12965 0.60008 0.51488 0.60008 0.11112 0 0.23336-0.03334 0.33338-0.06668l-0.05927-0.22966c-0.05927 0.02222-0.14076 0.04815-0.20373 0.04815-0.20743 0-0.27781-0.12594-0.27781-0.34819v-1.0001h0.48525v-0.24818h-0.48524v-0.50376h-0.25559l-0.03704 0.50377-0.28152 0.01852v0.22966h0.2667z"/>
   <path d="m62.933 77.16c0 0.32226 0.22595 0.51118 0.5297 0.51118 0.22225 0 0.42228-0.11853 0.59637-0.25929h0.0074l0.02593 0.21484h0.25188v-1.1038c0-0.4482-0.18521-0.74083-0.626-0.74083-0.28892 0-0.54081 0.12594-0.7075 0.23336l0.12224 0.21114c0.14076-0.09631 0.32597-0.19262 0.5371-0.19262 0.29263 0 0.37042 0.22225 0.37042 0.45191-0.76676 0.0852-1.1075 0.28152-1.1075 0.67416zm0.30004-0.02222c0-0.22966 0.20373-0.37783 0.80751-0.45191v0.50006c-0.1741 0.15558-0.31856 0.24077-0.49266 0.24077-0.1778 0-0.31485-0.0852-0.31485-0.28892z"/>
   <path d="m64.969 77.071c0 0.3556 0.12965 0.60008 0.51488 0.60008 0.11112 0 0.23336-0.03334 0.33338-0.06668l-0.05927-0.22966c-0.05927 0.02222-0.14076 0.04815-0.20373 0.04815-0.20743 0-0.27781-0.12594-0.27781-0.34819v-1.0001h0.48525v-0.24818h-0.48524v-0.50376h-0.25559l-0.03704 0.50377-0.28152 0.01852v0.22966h0.2667z"/>
   <path d="m65.999 76.73c0 0.58896 0.38153 0.94086 0.86307 0.94086 0.24448 0 0.43709-0.0852 0.59267-0.18521l-0.10742-0.20003c-0.13335 0.0852-0.27781 0.14076-0.4482 0.14076-0.34449 0-0.57785-0.24448-0.60008-0.63341h1.215c0.0074-0.04445 0.01111-0.10372 0.01111-0.16669 0-0.51488-0.25929-0.84455-0.71861-0.84455-0.41116 0-0.80751 0.3593-0.80751 0.94827zm0.29633-0.13705c0.03704-0.36301 0.2667-0.57044 0.51858-0.57044 0.28152 0 0.4445 0.20373 0.4445 0.57044z"/>
  </g>
  <rect transform="rotate(90)" x="70.903" y="-65.749" width="1.3229" height="4.2333" fill="#1d232d" stroke="#7893ea" stroke-dashoffset="1.2" stroke-linecap="square" stroke-miterlimit="40"/>
  <rect x="100.67" y="66.278" width="26.458" height="9.525" fill="#2f3744" stroke="#7b8694" stroke-linecap="round"/>
  <g fill="#e8eaec" stroke-linecap="round" aria-label="Logic">
   <path d="m110.11 72.335h1.3706v-0.263h-1.0594v-2.1669h-0.31115z"/>
   <path d="m111.69 71.438c0 0.59637 0.39264 0.94086 0.83344 0.94086s0.83344-0.34449 0.83344-0.94086c0-0.60378-0.39264-0.94827-0.83344-0.94827s-0.83344 0.34449-0.83344 0.94827zm0.31486 0c0-0.41487 0.21113-0.69638 0.51858-0.69638 0.31115 0 0.51858 0.28152 0.51858 0.69638 0 0.41116-0.20743 0.68898-0.51858 0.68898-0.30745 0-0.51858-0.27781-0.51858-0.68898z"/>
   <path d="m113.96 72.638c0-0.10372 0.0556-0.21114 0.18521-0.30374 0.0778 0.02222 0.16298 0.02963 0.23336 0.02963h0.31115c0.23336 0 0.36301 0.05556 0.36301 0.22225 0 0.18891-0.22596 0.36671-0.57045 0.36671-0.32596 0-0.52228-0.12224-0.52228-0.31486zm-0.2667 0.04075c0 0.31115 0.30374 0.48525 0.74453 0.48525 0.55933 0 0.91123-0.28892 0.91123-0.6223 0-0.30004-0.21114-0.42968-0.62971-0.42968h-0.34819c-0.24448 0-0.31856-0.08149-0.31856-0.19632 0-0.10001 0.0519-0.15928 0.11483-0.21484 0.0815 0.04075 0.1815 0.06297 0.2704 0.06297 0.36672 0 0.65935-0.24077 0.65935-0.626 0-0.15187-0.063-0.28892-0.14817-0.37042h0.37042v-0.23336h-0.62601c-0.0667-0.02593-0.15557-0.04445-0.25559-0.04445-0.36671 0-0.67786 0.24818-0.67786 0.64082 0 0.21484 0.11483 0.38894 0.23336 0.48525v0.01482c-0.0926 0.06297-0.19632 0.1815-0.19632 0.33338 0 0.14076 0.0704 0.23707 0.15928 0.29263v0.01482c-0.16298 0.11113-0.26299 0.25559-0.26299 0.40746zm0.74453-1.1187c-0.20743 0-0.38152-0.16669-0.38152-0.42968s0.17039-0.41857 0.38152-0.41857c0.21114 0 0.38153 0.15558 0.38153 0.41857s-0.17409 0.42968-0.38153 0.42968z"/>
   <path d="m115.86 70.164c0.11853 0 0.21114-0.08149 0.21114-0.19632 0-0.11853-0.0926-0.19632-0.21114-0.19632-0.11853 0-0.21114 0.07779-0.21114 0.19632 0 0.11483 0.0926 0.19632 0.21114 0.19632zm-0.15557 2.1706h0.30374v-1.8002h-0.30374z"/>
   <path d="m116.48 71.438c0 0.59637 0.36671 0.94086 0.84455 0.94086 0.21484 0 0.42227-0.0889 0.58526-0.23336l-0.13706-0.20002c-0.10742 0.09631-0.25188 0.1815-0.42227 0.1815-0.32967 0-0.55563-0.27781-0.55563-0.68898 0-0.41487 0.23707-0.69638 0.56304-0.69638 0.14446 0 0.25558 0.06668 0.36301 0.15928l0.15187-0.19632c-0.12224-0.11483-0.28893-0.21484-0.526-0.21484-0.46302 0-0.86677 0.34449-0.86677 0.94827z"/>
  </g>
  <rect transform="rotate(90)" x="65.611" y="-116.02" width="1.3229" height="4.2333" fill="#1d232d" stroke="#7893ea" stroke-dashoffset="1.2" stroke-linecap="square" stroke-miterlimit="40"/>
  <rect x="108.61" y="31.882" width="26.458" height="9.525" fill="#2f3744" stroke="#7b8694" stroke-linecap="round"/>
  <g fill="#e8eaec" stroke-linecap="round" aria-label="State">
   <path d="m117.93 37.624c0.21113 0.21855 0.50747 0.3593 0.84825 0.3593 0.51118 0 0.82973-0.30745 0.82973-0.69268 0-0.3593-0.21854-0.52599-0.50006-0.64823l-0.34819-0.14817c-0.18891-0.08149-0.40376-0.17039-0.40376-0.40376 0-0.21855 0.18151-0.3556 0.45562-0.3556 0.22225 0 0.40375 0.0889 0.55192 0.22966l0.16298-0.20002c-0.17039-0.1778-0.42598-0.30004-0.7149-0.30004-0.4408 0-0.76677 0.27411-0.76677 0.64452 0 0.3556 0.2667 0.5297 0.49266 0.626l0.34819 0.15187c0.22966 0.10372 0.40746 0.1815 0.40746 0.42968 0 0.23707-0.18891 0.39635-0.50747 0.39635-0.25559 0-0.49636-0.12224-0.67046-0.30374z"/>
   <path d="m120.1 37.383c0 0.3556 0.12965 0.60008 0.51488 0.60008 0.11113 0 0.23337-0.03334 0.33338-0.06668l-0.0593-0.22966c-0.0593 0.02222-0.14076 0.04815-0.20373 0.04815-0.20743 0-0.27781-0.12594-0.27781-0.34819v-1.0001h0.48525v-0.24818h-0.48525v-0.50377h-0.25559l-0.037 0.50377-0.28152 0.01852v0.22966h0.2667z"/>
   <path d="m121.14 37.472c0 0.32226 0.22595 0.51118 0.52969 0.51118 0.22225 0 0.42228-0.11853 0.59638-0.25929h7e-3l0.0259 0.21484h0.25189v-1.1038c0-0.4482-0.18521-0.74083-0.62601-0.74083-0.28892 0-0.54081 0.12594-0.70749 0.23336l0.12223 0.21114c0.14076-0.09631 0.32597-0.19262 0.53711-0.19262 0.29263 0 0.37041 0.22225 0.37041 0.45191-0.76676 0.0852-1.1075 0.28152-1.1075 0.67416zm0.30004-0.02222c0-0.22966 0.20373-0.37782 0.8075-0.45191v0.50006c-0.17409 0.15558-0.31855 0.24077-0.49265 0.24077-0.1778 0-0.31485-0.0852-0.31485-0.28892z"/>
   <path d="m123.18 37.383c0 0.3556 0.12965 0.60008 0.51488 0.60008 0.11112 0 0.23336-0.03334 0.33337-0.06668l-0.0593-0.22966c-0.0593 0.02222-0.14076 0.04815-0.20373 0.04815-0.20743 0-0.27781-0.12594-0.27781-0.34819v-1.0001h0.48524v-0.24818h-0.48524v-0.50377h-0.25559l-0.037 0.50377-0.28152 0.01852v0.22966h0.2667z"/>
   <path d="m124.21 37.042c0 0.58896 0.38153 0.94086 0.86307 0.94086 0.24448 0 0.4371-0.0852 0.59267-0.18521l-0.10742-0.20002c-0.13335 0.0852-0.27781 0.14076-0.4482 0.14076-0.34449 0-0.57786-0.24448-0.60008-0.63341h1.215c7e-3 -0.04445 0.0111-0.10372 0.0111-0.16669 0-0.51488-0.25929-0.84455-0.71861-0.84455-0.41116 0-0.80751 0.3593-0.80751 0.94827zm0.29634-0.13705c0.037-0.36301 0.2667-0.57044 0.51858-0.57044 0.28152 0 0.4445 0.20373 0.4445 0.57044z"/>
  </g>
  <rect transform="rotate(90)" x="31.216" y="-123.96" width="1.3229" height="4.2333" fill="#1d232d" stroke="#7893ea" stroke-dashoffset="1.2" stroke-linecap="square" stroke-miterlimit="40"/>
  <rect x="78.184" y="54.372" width="26.458" height="9.525" fill="#2f3744" stroke="#7b8694" stroke-linecap="round"/>
  <g fill="#e8eaec" stroke-linecap="round" aria-label="Mesh">
   <path d="m87.678 60.428h0.28522v-1.3372c0-0.21484-0.02223-0.50377-0.03704-0.71861h0.01482l0.19262 0.54081 0.46673 1.2705h0.1778l0.46672-1.2705 0.19262-0.54081h0.01482c-0.01482 0.21484-0.04075 0.50377-0.04075 0.71861v1.3372h0.29263v-2.4299h-0.36301l-0.46673 1.3039-0.17039 0.49636h-0.01482l-0.1741-0.49636-0.47043-1.3039h-0.36671z"/>
   <path d="m90.203 59.532c0 0.58896 0.38153 0.94086 0.86307 0.94086 0.24448 0 0.43709-0.0852 0.59267-0.18521l-0.10742-0.20002c-0.13335 0.08519-0.27781 0.14076-0.4482 0.14076-0.34449 0-0.57785-0.24448-0.60008-0.63341h1.215c0.0074-0.04445 0.01111-0.10372 0.01111-0.16669 0-0.51488-0.25929-0.84455-0.71861-0.84455-0.41116 0-0.80751 0.3593-0.80751 0.94827zm0.29633-0.13705c0.03704-0.36301 0.2667-0.57044 0.51858-0.57044 0.28152 0 0.4445 0.20373 0.4445 0.57044z"/>
   <path d="m91.974 60.225c0.17039 0.14076 0.41487 0.24818 0.67045 0.24818 0.42598 0 0.65934-0.24448 0.65934-0.5371 0-0.34078-0.28893-0.4482-0.54822-0.54451-0.20373-0.07779-0.40005-0.14446-0.40005-0.31115 0-0.13705 0.10372-0.25929 0.32967-0.25929 0.15928 0 0.28893 0.06668 0.41116 0.15928l0.14446-0.19262c-0.13705-0.11112-0.33338-0.20373-0.55933-0.20373-0.38894 0-0.6186 0.22225-0.6186 0.51118 0 0.30374 0.28152 0.42598 0.5371 0.51858 0.19632 0.07408 0.41116 0.15558 0.41116 0.34078 0 0.15558-0.11853 0.28152-0.3556 0.28152-0.21484 0-0.37412-0.0889-0.5297-0.21484z"/>
   <path d="m93.729 60.428h0.30374v-1.3039c0.1815-0.1815 0.30745-0.27781 0.49265-0.27781 0.23707 0 0.34078 0.14446 0.34078 0.48154v1.1001h0.30374v-1.1409c0-0.45932-0.17039-0.70379-0.54822-0.70379-0.24818 0-0.42968 0.13335-0.60008 0.29633l0.01111-0.37042v-0.71861h-0.30374z"/>
  </g>
  <rect transform="rotate(90)" x="53.705" y="-93.53" width="1.3229" height="4.2333" fill="#1d232d" stroke="#7893ea" stroke-dashoffset="1.2" stroke-linecap="square" stroke-miterlimit="40"/>
  <rect x=".66147" y="32.676" width="26.458" height="9.525" fill="#2f3744" stroke="#7b8694" stroke-linecap="round"/>
  <g fill="#e8eaec" stroke-linecap="round" aria-label="Mesh">
   <path d="m10.155 38.733h0.28522v-1.3372c0-0.21484-0.02223-0.50377-0.03704-0.71861h0.01482l0.19262 0.54081 0.46673 1.2705h0.1778l0.46672-1.2705 0.19262-0.54081h0.01482c-0.01482 0.21484-0.04075 0.50377-0.04075 0.71861v1.3372h0.29263v-2.4299h-0.36301l-0.46673 1.3039-0.17039 0.49636h-0.01482l-0.17409-0.49636-0.47043-1.3039h-0.36671z"/>
   <path d="m12.68 37.836c0 0.58896 0.38153 0.94086 0.86307 0.94086 0.24448 0 0.43709-0.0852 0.59267-0.18521l-0.10742-0.20003c-0.13335 0.0852-0.27781 0.14076-0.4482 0.14076-0.34449 0-0.57785-0.24448-0.60008-0.63341h1.215c0.0074-0.04445 0.01111-0.10372 0.01111-0.16669 0-0.51488-0.25929-0.84455-0.71861-0.84455-0.41116 0-0.80751 0.3593-0.80751 0.94827zm0.29633-0.13705c0.03704-0.36301 0.2667-0.57044 0.51858-0.57044 0.28152 0 0.4445 0.20373 0.4445 0.57044z"/>
   <path d="m14.451 38.529c0.17039 0.14076 0.41487 0.24818 0.67045 0.24818 0.42598 0 0.65934-0.24448 0.65934-0.5371 0-0.34078-0.28893-0.4482-0.54822-0.54451-0.20373-0.07779-0.40005-0.14446-0.40005-0.31115 0-0.13705 0.10372-0.25929 0.32967-0.25929 0.15928 0 0.28893 0.06668 0.41116 0.15928l0.14446-0.19262c-0.13705-0.11112-0.33338-0.20373-0.55933-0.20373-0.38894 0-0.6186 0.22225-0.6186 0.51118 0 0.30374 0.28152 0.42598 0.5371 0.51858 0.19632 0.07408 0.41116 0.15558 0.41116 0.34078 0 0.15558-0.11853 0.28152-0.3556 0.28152-0.21484 0-0.37412-0.0889-0.5297-0.21484z"/>
   <path d="m16.206 38.733h0.30374v-1.3039c0.1815-0.1815 0.30745-0.27781 0.49265-0.27781 0.23707 0 0.34078 0.14446 0.34078 0.48154v1.1001h0.30374v-1.1409c0-0.45932-0.17039-0.70379-0.54822-0.70379-0.24818 0-0.42968 0.13335-0.60008 0.29633l0.01111-0.37042v-0.71861h-0.30374z"/>
  </g>
  <rect transform="rotate(90)" x="32.009" y="-16.007" width="1.3229" height="4.2333" fill="#1d232d" stroke="#7893ea" stroke-dashoffset="1.2" stroke-linecap="square" stroke-miterlimit="40"/>
 </g>
</svg>
