<?xml version="1.0" encoding="UTF-8"?>
<svg width="639.79" height="277.35" version="1.1" viewBox="0 0 169.28 73.384" xmlns="http://www.w3.org/2000/svg" xmlns:cc="http://creativecommons.org/ns#" xmlns:dc="http://purl.org/dc/elements/1.1/" xmlns:rdf="http://www.w3.org/1999/02/22-rdf-syntax-ns#">
 <metadata>
  <rdf:RDF>
   <cc:Work rdf:about="">
    <dc:format>image/svg+xml</dc:format>
    <dc:type rdf:resource="http://purl.org/dc/dcmitype/StillImage"/>
    <dc:title/>
   </cc:Work>
  </rdf:RDF>
 </metadata>
 <g transform="translate(-41.325 4.4912)">
  <g transform="matrix(7.2628 0 0 7.2628 -642.89 -703.61)" stroke-dashoffset="1.2" stroke-linecap="square" stroke-width=".13769">
   <rect x="94.208" y="96.454" width="23.308" height="9.7115" fill="#1d232d" style="paint-order:normal"/>
   <g fill="#7b8694">
    <path d="m94.596 96.26h1.1654v0.19408h-1.1654z"/>
    <path d="m96.538 96.26h1.1654v0.19408h-1.1654z"/>
    <path d="m98.481 96.26h1.1654v0.19408h-1.1654z"/>
    <path d="m100.42 96.26h1.1654v0.19408h-1.1654z"/>
    <path d="m102.37 96.26h1.1654v0.19408h-1.1654z"/>
    <path d="m104.31 96.26h1.1654v0.19408h-1.1654z"/>
    <path d="m106.25 96.26h1.1654v0.19408h-1.1654z"/>
    <path d="m108.19 96.26h1.1654v0.19408h-1.1654z"/>
    <path d="m110.13 96.26h1.1654v0.19408h-1.1654z"/>
    <path d="m112.08 96.26h1.1654v0.19408h-1.1654z"/>
    <path d="m114.02 96.26h1.1654v0.19408h-1.1654z"/>
    <path d="m115.96 96.26h1.1654v0.19408h-1.1654z"/>
    <path d="m115.96 106.17h1.1654v0.19405h-1.1654z"/>
    <path d="m114.02 106.17h1.1654v0.19405h-1.1654z"/>
    <path d="m112.08 106.17h1.1654v0.19405h-1.1654z"/>
    <path d="m110.13 106.17h1.1654v0.19405h-1.1654z"/>
    <path d="m108.19 106.17h1.1654v0.19405h-1.1654z"/>
    <path d="m106.25 106.17h1.1654v0.19405h-1.1654z"/>
    <path d="m104.31 106.17h1.1654v0.19405h-1.1654z"/>
    <path d="m102.37 106.17h1.1654v0.19405h-1.1654z"/>
    <path d="m100.42 106.17h1.1654v0.19405h-1.1654z"/>
    <path d="m98.481 106.17h1.1654v0.19405h-1.1654z"/>
    <path d="m96.538 106.17h1.1654v0.19405h-1.1654z"/>
    <path d="m94.596 106.17h1.1654v0.19405h-1.1654z"/>
   </g>
  </g>
  <g fill="#f0f" fill-rule="evenodd" stroke="#6f8ce9" stroke-width=".37213">
   <path d="m92.713 22.096 33.315-17.652"/>
   <path d="m93.869 23.278 33.394-18.125"/>
   <path d="m95.078 24.539 33.525-18.729"/>
   <path d="m96.103 25.826 33.84-19.254"/>
   <path d="m97.521 27.061 33.998-19.806"/>
   <path d="m98.783 28.427 33.946-20.384"/>
   <path d="m100.12 29.898 33.972-21.093"/>
   <path d="m101.54 31.316 33.998-21.75"/>
   <path d="m102.96 32.945 34.103-22.669"/>
   <path d="m104.48 34.547 34.103-23.378"/>
   <path d="m105.98 36.202 34.287-24.219"/>
   <path d="m107.64 37.857 34.34-25.033"/>
   <path d="m109.42 39.643 34.287-25.874"/>
   <path d="m111.21 41.692 34.156-26.951"/>
   <path d="m113.08 43.662 34.156-28.002"/>
   <path d="m114.89 45.711 34.156-29.079"/>
   <path d="m116.89 47.865 34.235-30.234"/>
   <path d="m119.2 50.203 33.762-31.522"/>
   <path d="m121.27 52.409 33.788-32.651"/>
   <path d="m123.58 54.957 33.624-34.058"/>
   <path d="m125.98 57.742 33.36-35.672"/>
   <path d="m92.798 22.042 33.218 35.663"/>
   <path d="m94.971 20.927 33.589 34"/>
   <path d="m97.117 19.757 33.729 32.7"/>
   <path d="m99.183 18.688 33.864 31.517"/>
   <path d="m101.1 17.653 34.056 30.231"/>
   <path d="m103.07 16.636 34.13 29.068"/>
   <path d="m104.88 15.661 34.217 27.991"/>
   <path d="m106.75 14.682 34.23 26.991"/>
   <path d="m108.5 13.743 34.294 26.012"/>
   <path d="m110.25 12.824 34.245 25.085"/>
   <path d="m111.87 11.983 34.248 24.212"/>
   <path d="m113.46 11.129 34.235 23.424"/>
   <path d="m115.01 10.275 34.181 22.631"/>
   <path d="m116.6 9.4204 34.05 21.948"/>
   <path d="m118.05 8.66 33.929 21.244"/>
   <path d="m119.43 7.9251 33.93 20.541"/>
   <path d="m120.87 7.1693 33.755 19.911"/>
   <path d="m122.14 6.4764 33.777 19.258"/>
   <path d="m123.62 5.718 33.473 18.72"/>
   <path d="m124.91 5.0547 33.348 18.194"/>
   <path d="m125.93 4.4899 33.407 17.649"/>
  </g>
 </g>
</svg>
