<?xml version="1.0" encoding="UTF-8"?>
<svg class="animated inactive" width="264.94" height="212.9" enable-background="new 0 0 198.44 105.83" version="1.1" viewBox="0 0 68.623 29.713" xml:space="preserve" xmlns="http://www.w3.org/2000/svg" xmlns:cc="http://creativecommons.org/ns#" xmlns:dc="http://purl.org/dc/elements/1.1/" xmlns:rdf="http://www.w3.org/1999/02/22-rdf-syntax-ns#"><metadata><rdf:RDF><cc:Work rdf:about=""><dc:format>image/svg+xml</dc:format><dc:type rdf:resource="http://purl.org/dc/dcmitype/StillImage"/><dc:title/></cc:Work></rdf:RDF></metadata>
  <filter id="blur-filter" x="-2" y="-2" width="200" height="200">
    <feGaussianBlur in="SourceGraphic" stdDeviation="2"/>
  </filter><g fill="none"><path d="m15.397 20.277 23.311-8.0294 17.872 14.246" stroke="#7b8694" stroke-dasharray="0.518027, 0.518027" stroke-width=".25901"/><path d="m41.122 17.047-6.3249-4.8897v-11.604" stroke="#6f8ce9" stroke-width=".27628px"/><g stroke="#a6aeb8" stroke-width=".25901"><path d="m29.788 38.995 26.834-12.626 1.961-26.731-29.862 9.2889z"/><path d="m29.754 39.029-14.381-18.715-4.094-24.633 17.546 13.314"/><path d="m11.176-4.4911 26.938-6.3646 20.539 10.562"/></g><path d="m34.845 12.206 8.782-3.1382" stroke="#6f8ce9" stroke-width=".25901"/></g><path d="m38.708 12.247-0.60301-23.052" fill="#e9e56f" stroke="#7b8694" stroke-dasharray="0.518027, 0.518027" stroke-width=".25901"/><g fill="#6f8ce9" stroke-width="237.94"><g transform="matrix(.00049783 -.0021005 .0021365 .00050636 40.233 17.223)"><g fill="#6f8ce9" stroke-width="237.94"><path d="m486.41 221.41-364.07-208.5c-52.938-30.318-95.852-5.44-95.852 55.563v415.65c0 61.004 42.914 85.882 95.852 55.563l364.07-208.49c52.938-30.317 52.938-79.473 0-109.79z" fill="#6f8ce9" stroke-width="237.94"/></g></g><g transform="matrix(-.0017404 -.001277 .0012989 -.0017702 43.597 9.7908)"><g fill="#6f8ce9" stroke-width="237.94"><path d="m486.41 221.41-364.07-208.5c-52.938-30.318-95.852-5.44-95.852 55.563v415.65c0 61.004 42.914 85.882 95.852 55.563l364.07-208.49c52.938-30.317 52.938-79.473 0-109.79z" fill="#6f8ce9" stroke-width="237.94"/></g></g><g transform="matrix(-1.4632e-6 -.0021587 .0021956 -1.4877e-6 34.197 1.1175)"><g fill="#6f8ce9" stroke-width="237.94"><path d="m486.41 221.41-364.07-208.5c-52.938-30.318-95.852-5.44-95.852 55.563v415.65c0 61.004 42.914 85.882 95.852 55.563l364.07-208.49c52.938-30.317 52.938-79.473 0-109.79z" fill="#6f8ce9" stroke-width="237.94"/></g></g></g><g fill="#e8eaec" stroke-linecap="round" stroke-width=".25901"><g aria-label="near plane"><path d="m16.544 11.765h0.25487v-1.0941c0.1523-0.1523 0.25798-0.23311 0.41338-0.23311 0.19892 0 0.28595 0.12122 0.28595 0.40406v0.92312h0.25487v-0.95731c0-0.38541-0.14298-0.59055-0.46001-0.59055-0.20825 0-0.36366 0.11189-0.50663 0.25487h-0.0093l-0.02176-0.21757h-0.21136z"/><path d="m18.132 11.013c0 0.4942 0.32014 0.78947 0.7242 0.78947 0.20514 0 0.36676-0.07149 0.4973-0.15541l-0.09014-0.16784c-0.11189 0.07149-0.23311 0.11811-0.37609 0.11811-0.28906 0-0.48487-0.20514-0.50352-0.5315h1.0195c0.0062-0.0373 0.0093-0.08703 0.0093-0.13987 0-0.43203-0.21757-0.70866-0.60298-0.70866-0.34501 0-0.67758 0.30149-0.67758 0.79569zm0.24865-0.115c0.03108-0.3046 0.22379-0.47866 0.43514-0.47866 0.23622 0 0.37298 0.17095 0.37298 0.47866z"/><path d="m19.669 11.374c0 0.27041 0.1896 0.42893 0.44447 0.42893 0.18649 0 0.35433-0.09946 0.50041-0.21757h0.0062l0.02176 0.18027h0.21135v-0.92623c0-0.37609-0.15541-0.62163-0.52528-0.62163-0.24244 0-0.45379 0.10568-0.59366 0.19581l0.10257 0.17716c0.11811-0.08081 0.27352-0.16162 0.45068-0.16162 0.24554 0 0.31082 0.18649 0.31082 0.3792-0.64339 0.07149-0.92934 0.23622-0.92934 0.56568zm0.25176-0.01865c0-0.19271 0.17095-0.31703 0.67758-0.3792v0.4196c-0.14608 0.13054-0.2673 0.20203-0.41338 0.20203-0.14919 0-0.26419-0.07149-0.26419-0.24244z"/><path d="m21.334 11.765h0.25487v-0.96974c0.10257-0.25487 0.25487-0.34811 0.3823-0.34811 0.06216 0 0.09635 0.0093 0.14608 0.02487l0.04973-0.22379c-0.04973-0.02176-0.09635-0.03108-0.16162-0.03108-0.17095 0-0.32636 0.12122-0.42893 0.31082h-0.0093l-0.02176-0.27352h-0.21136z"/><path d="m16.793 15.255c0.13987 0.10879 0.27973 0.17406 0.4196 0.17406 0.34501 0 0.65271-0.30149 0.65271-0.81434 0-0.46933-0.20825-0.77082-0.59677-0.77082-0.17716 0-0.345 0.09635-0.48176 0.21136h-0.0093l-0.02176-0.17406h-0.21136v2.1477h0.25487v-0.50974zm0.0062-0.19892v-0.79258c0.14919-0.13365 0.27663-0.20514 0.40406-0.20514 0.28595 0 0.39784 0.22379 0.39784 0.55636 0 0.37298-0.18338 0.59988-0.43203 0.59988-0.09946 0-0.23311-0.04351-0.36987-0.15852z"/><path d="m18.269 15.087c0 0.22068 0.0777 0.3419 0.27041 0.3419 0.06838 0 0.11189-0.0093 0.14608-0.02487l-0.03419-0.19271c-0.02797 0.0062-0.04041 0.0062-0.05595 0.0062-0.0373 0-0.07149-0.03108-0.07149-0.11189v-1.9271h-0.25487z"/><path d="m18.989 15c0 0.27041 0.1896 0.42893 0.44447 0.42893 0.18649 0 0.35433-0.09946 0.50041-0.21757h0.0062l0.02176 0.18027h0.21136v-0.92623c0-0.37609-0.15541-0.62163-0.52528-0.62163-0.24244 0-0.45379 0.10568-0.59366 0.19581l0.10257 0.17716c0.11811-0.08081 0.27352-0.16162 0.45068-0.16162 0.24554 0 0.31082 0.18649 0.31082 0.3792-0.64339 0.07149-0.92934 0.23622-0.92934 0.56568zm0.25176-0.01865c0-0.19271 0.17095-0.31703 0.67758-0.3792v0.4196c-0.14608 0.13054-0.2673 0.20203-0.41339 0.20203-0.14919 0-0.26419-0.07149-0.26419-0.24244z"/><path d="m20.654 15.392h0.25487v-1.0941c0.1523-0.1523 0.25798-0.23311 0.41339-0.23311 0.19892 0 0.28595 0.12122 0.28595 0.40406v0.92312h0.25487v-0.95731c0-0.38541-0.14298-0.59055-0.46001-0.59055-0.20825 0-0.36366 0.11189-0.50663 0.25487h-0.0093l-0.02176-0.21757h-0.21136z"/><path d="m22.242 14.639c0 0.4942 0.32014 0.78947 0.7242 0.78947 0.20514 0 0.36676-0.07149 0.49731-0.15541l-0.09014-0.16784c-0.11189 0.07149-0.23311 0.11811-0.37609 0.11811-0.28906 0-0.48487-0.20514-0.50352-0.5315h1.0195c0.0062-0.0373 0.0093-0.08703 0.0093-0.13987 0-0.43203-0.21757-0.70866-0.60298-0.70866-0.34501 0-0.67758 0.30149-0.67758 0.79569zm0.24865-0.115c0.03108-0.3046 0.22379-0.47866 0.43514-0.47866 0.23622 0 0.37298 0.17095 0.37298 0.47866z"/></g><g aria-label="far plane"><path d="m50.597 4.1255c-0.06838-0.027973-0.15852-0.049731-0.25176-0.049731-0.30149 0-0.44136 0.19271-0.44136 0.50041v0.23933l-0.20514 0.015541v0.19271h0.20514v1.3023h0.25487v-1.3023h0.32014v-0.20825h-0.32014v-0.23933c0-0.19271 0.06838-0.29217 0.21136-0.29217 0.05595 0 0.115 0.012433 0.17095 0.037298z"/><path d="m50.635 5.9344c0 0.27041 0.1896 0.42893 0.44447 0.42893 0.18649 0 0.35433-0.099461 0.50041-0.21757h0.0062l0.02176 0.18027h0.21136v-0.92623c0-0.37609-0.15541-0.62163-0.52528-0.62163-0.24244 0-0.45379 0.10568-0.59366 0.19581l0.10257 0.17717c0.11811-0.080812 0.27352-0.16162 0.45068-0.16162 0.24554 0 0.31082 0.18649 0.31082 0.3792-0.64339 0.071488-0.92934 0.23622-0.92934 0.56569zm0.25176-0.018649c0-0.19271 0.17095-0.31703 0.67758-0.3792v0.4196c-0.14608 0.13054-0.2673 0.20203-0.41338 0.20203-0.14919 0-0.26419-0.071488-0.26419-0.24244z"/><path d="m52.3 6.3261h0.25487v-0.96975c0.10257-0.25487 0.25487-0.34811 0.3823-0.34811 0.06216 0 0.09635 0.00932 0.14608 0.024865l0.04973-0.22379c-0.04973-0.021757-0.09635-0.031082-0.16162-0.031082-0.17095 0-0.32636 0.12122-0.42893 0.31082h-0.0093l-0.02178-0.27352h-0.21136z"/><path d="m50.109 9.8155c0.13987 0.10879 0.27974 0.17406 0.4196 0.17406 0.34501 0 0.65271-0.30149 0.65271-0.81434 0-0.46933-0.20825-0.77082-0.59677-0.77082-0.17716 0-0.34501 0.096353-0.48176 0.21135h-0.0093l-0.02176-0.17406h-0.21138v2.1477h0.25487v-0.50974zm0.0062-0.19892v-0.79258c0.14919-0.13365 0.27663-0.20514 0.40406-0.20514 0.28595 0 0.39784 0.22379 0.39784 0.55636 0 0.37298-0.18338 0.59987-0.43203 0.59987-0.09946 0-0.23311-0.043514-0.36987-0.15852z"/><path d="m51.584 9.6477c0 0.22068 0.0777 0.3419 0.27041 0.3419 0.06838 0 0.11189-0.00932 0.14608-0.024865l-0.034189-0.19271c-0.02797 0.00622-0.04041 0.00622-0.05595 0.00622-0.0373 0-0.07149-0.031082-0.07149-0.11189v-1.9271h-0.25487z"/><path d="m52.305 9.5606c0 0.27041 0.1896 0.42893 0.44447 0.42893 0.18649 0 0.35433-0.099461 0.50041-0.21757h0.0062l0.02176 0.18027h0.21136v-0.92623c0-0.37609-0.15541-0.62163-0.52528-0.62163-0.24244 0-0.45379 0.10568-0.59366 0.19581l0.10257 0.17717c0.11811-0.080812 0.27352-0.16162 0.45068-0.16162 0.24554 0 0.31082 0.18649 0.31082 0.3792-0.64339 0.071488-0.92934 0.23622-0.92934 0.56569zm0.25176-0.018649c0-0.19271 0.17095-0.31703 0.67758-0.3792v0.4196c-0.14608 0.13054-0.2673 0.20203-0.41338 0.20203-0.14919 0-0.26419-0.071488-0.26419-0.24244z"/><path d="m53.97 9.9523h0.25487v-1.0941c0.1523-0.1523 0.25798-0.23311 0.41338-0.23311 0.19892 0 0.28595 0.12122 0.28595 0.40406v0.92312h0.25487v-0.95731c0-0.38541-0.14298-0.59055-0.46001-0.59055-0.20825 0-0.36365 0.11189-0.50663 0.25487h-0.0093l-0.02176-0.21757h-0.21136z"/><path d="m55.558 9.2001c0 0.4942 0.32014 0.78947 0.7242 0.78947 0.20514 0 0.36676-0.071488 0.49731-0.15541l-0.09014-0.16784c-0.11189 0.071488-0.23311 0.11811-0.37609 0.11811-0.28906 0-0.48487-0.20514-0.50352-0.5315h1.0195c0.0062-0.037298 0.0093-0.087029 0.0093-0.13987 0-0.43203-0.21757-0.70866-0.60298-0.70866-0.34501 0-0.67758 0.30149-0.67758 0.79569zm0.24865-0.115c0.03108-0.3046 0.22379-0.47866 0.43514-0.47866 0.23622 0 0.37298 0.17095 0.37298 0.47866z"/></g><g stroke="#cf2f25" aria-label="x"><path d="m41.36 19.795h0.2673l0.20514-0.35122c0.04973-0.09324 0.09946-0.18338 0.1523-0.27041h0.01243c0.05595 0.08703 0.11189 0.18027 0.16473 0.27041l0.22068 0.35122h0.27663l-0.49109-0.7615 0.4569-0.74907h-0.2673l-0.18338 0.33257c-0.04662 0.08081-0.09325 0.16784-0.13676 0.25176h-0.01243c-0.05284-0.08392-0.10257-0.17095-0.14919-0.25176l-0.20203-0.33257h-0.27663l0.4569 0.72109z" fill="#e8eaec" stroke="none"/></g><g stroke="#cf2f25" aria-label="y"><path d="m32.404 1.5623-0.04973 0.20203c0.04973 0.018649 0.10878 0.031082 0.17716 0.031082 0.3046 0 0.46001-0.2269 0.56568-0.52528l0.56879-1.6349h-0.24865l-0.27041 0.8361c-0.04041 0.13365-0.08392 0.28906-0.12744 0.42582h-0.01243c-0.046625-0.13987-0.099464-0.29528-0.14609-0.42582l-0.30771-0.8361h-0.26419l0.60609 1.5137-0.03419 0.11189c-0.06216 0.18649-0.17095 0.32325-0.3419 0.32325-0.0373 0-0.08392-0.012433-0.115-0.021757z" fill="#e8eaec" stroke="none"/></g><g stroke="#cf2f25" aria-label="z"><path d="m44.003 11.247h1.1438v-0.20825h-0.82056l0.79569-1.1656v-0.13676h-1.0319v0.20825h0.70866l-0.79569 1.1656z" fill="#e8eaec" stroke="none"/></g><g aria-label="(1, -1, 1)"><path d="m55.71 30.702 0.15852-0.0746c-0.23933-0.39474-0.35744-0.86407-0.35744-1.3365 0-0.47244 0.11811-0.94177 0.35744-1.3365l-0.15852-0.0746c-0.25798 0.41649-0.41028 0.86407-0.41028 1.4111 0 0.54704 0.1523 0.99461 0.41028 1.4111z"/><path d="m56.231 30.155h1.1189v-0.21136h-0.41028v-1.7717h-0.19581c-0.10879 0.06527-0.23933 0.115-0.4196 0.14608v0.16473h0.36055v1.4608h-0.45379z"/><path d="m57.736 30.684c0.25176-0.10568 0.40717-0.31392 0.40717-0.58123 0-0.18649-0.08081-0.30149-0.21446-0.30149-0.10257 0-0.1896 0.06838-0.1896 0.18027 0 0.115 0.08392 0.17716 0.18338 0.17716 0.0093 0 0.02176 0 0.03108-0.0031 0 0.16784-0.10568 0.30149-0.27973 0.3792z"/><path d="m59.051 29.475h0.71488v-0.19581h-0.71488z"/><path d="m60.134 30.155h1.1189v-0.21136h-0.41028v-1.7717h-0.19581c-0.10879 0.06527-0.23933 0.115-0.4196 0.14608v0.16473h0.36055v1.4608h-0.45379z"/><path d="m61.639 30.684c0.25176-0.10568 0.40717-0.31392 0.40717-0.58123 0-0.18649-0.08081-0.30149-0.21446-0.30149-0.10257 0-0.1896 0.06838-0.1896 0.18027 0 0.115 0.08392 0.17716 0.18338 0.17716 0.0093 0 0.02176 0 0.03108-0.0031 0 0.16784-0.10568 0.30149-0.27973 0.3792z"/><path d="m63.073 30.155h1.1189v-0.21136h-0.41028v-1.7717h-0.19581c-0.10879 0.06527-0.23933 0.115-0.4196 0.14608v0.16473h0.36055v1.4608h-0.45379z"/><path d="m64.487 30.628 0.15852 0.0746c0.25798-0.41649 0.41028-0.86407 0.41028-1.4111 0-0.54704-0.1523-0.99461-0.41028-1.4111l-0.15852 0.0746c0.23933 0.39474 0.35744 0.86407 0.35744 1.3365 0 0.47244-0.11811 0.94177-0.35744 1.3365z"/></g><g aria-label="(1, 1, 1)"><path d="m60.113 2.4699 0.15852-0.074596c-0.23933-0.39474-0.35744-0.86407-0.35744-1.3365 0-0.47244 0.11811-0.94177 0.35744-1.3365l-0.15852-0.074596c-0.25798 0.41649-0.41028 0.86407-0.41028 1.4111 0 0.54704 0.1523 0.99461 0.41028 1.4111z"/><path d="m60.634 1.9228h1.1189v-0.21135h-0.41028v-1.7717h-0.19581c-0.10878 0.065271-0.23933 0.115-0.4196 0.14608v0.16473h0.36055v1.4608h-0.45379z"/><path d="m62.139 2.4512c0.25176-0.10568 0.40717-0.31392 0.40717-0.58123 0-0.18649-0.08081-0.30149-0.21446-0.30149-0.10257 0-0.1896 0.06838-0.1896 0.18027 0 0.115 0.08392 0.17717 0.18338 0.17717 0.0093 0 0.02176 0 0.03108-0.00311 0 0.16784-0.10568 0.30149-0.27973 0.3792z"/><path d="m63.572 1.9228h1.1189v-0.21135h-0.41028v-1.7717h-0.19581c-0.10879 0.065271-0.23933 0.115-0.4196 0.14608v0.16473h0.36055v1.4608h-0.45379z"/><path d="m65.077 2.4512c0.25176-0.10568 0.40717-0.31392 0.40717-0.58123 0-0.18649-0.08081-0.30149-0.21446-0.30149-0.10257 0-0.1896 0.06838-0.1896 0.18027 0 0.115 0.08392 0.17717 0.18338 0.17717 0.0093 0 0.02176 0 0.03108-0.00311 0 0.16784-0.10568 0.30149-0.27974 0.3792z"/><path d="m66.511 1.9228h1.1189v-0.21135h-0.41028v-1.7717h-0.19581c-0.10878 0.065271-0.23933 0.115-0.4196 0.14608v0.16473h0.36055v1.4608h-0.45379z"/><path d="m67.925 2.3953 0.15852 0.074596c0.25798-0.41649 0.41028-0.86407 0.41028-1.4111 0-0.54704-0.1523-0.99461-0.41028-1.4111l-0.15852 0.074596c0.23933 0.39474 0.35744 0.86407 0.35744 1.3365 0 0.47244-0.11811 0.94177-0.35744 1.3365z"/></g><g aria-label="(-1, 1, 1)"><path d="m41.723-9.7038 0.15852-0.074596c-0.23933-0.39474-0.35744-0.86407-0.35744-1.3365s0.11811-0.94177 0.35744-1.3365l-0.15852-0.0746c-0.25798 0.41649-0.41028 0.86407-0.41028 1.4111s0.1523 0.99461 0.41028 1.4111z"/><path d="m42.126-10.931h0.71488v-0.19581h-0.71488z"/><path d="m43.209-10.251h1.1189v-0.21135h-0.41028v-1.7717h-0.19581c-0.10878 0.06527-0.23933 0.115-0.4196 0.14608v0.16473h0.36055v1.4608h-0.45379z"/><path d="m44.714-9.7224c0.25176-0.10568 0.40717-0.31392 0.40717-0.58123 0-0.18649-0.08081-0.30149-0.21446-0.30149-0.10257 0-0.1896 0.06838-0.1896 0.18027 0 0.115 0.08392 0.17717 0.18338 0.17717 0.0093 0 0.02176 0 0.03108-0.0031 0 0.16784-0.10568 0.30149-0.27974 0.3792z"/><path d="m46.148-10.251h1.1189v-0.21135h-0.41028v-1.7717h-0.19581c-0.10879 0.06527-0.23933 0.115-0.4196 0.14608v0.16473h0.36055v1.4608h-0.45379z"/><path d="m47.652-9.7224c0.25176-0.10568 0.40717-0.31392 0.40717-0.58123 0-0.18649-0.08081-0.30149-0.21446-0.30149-0.10257 0-0.1896 0.06838-0.1896 0.18027 0 0.115 0.08392 0.17717 0.18338 0.17717 0.0093 0 0.02176 0 0.03108-0.0031 0 0.16784-0.10568 0.30149-0.27973 0.3792z"/><path d="m49.086-10.251h1.1189v-0.21135h-0.41028v-1.7717h-0.19581c-0.10879 0.06527-0.23933 0.115-0.4196 0.14608v0.16473h0.36055v1.4608h-0.45379z"/><path d="m50.5-9.7784 0.15852 0.074596c0.25798-0.41649 0.41028-0.86407 0.41028-1.4111s-0.1523-0.99461-0.41028-1.4111l-0.15852 0.0746c0.23933 0.39474 0.35744 0.86407 0.35744 1.3365s-0.11811 0.94177-0.35744 1.3365z"/></g><g aria-label="(-1, 1, -1)"><path d="m0.53978-0.8973 0.15852-0.074596c-0.23933-0.39474-0.35744-0.86407-0.35744-1.3365 0-0.47244 0.11811-0.94177 0.35744-1.3365l-0.15852-0.074596c-0.25798 0.41649-0.41028 0.86407-0.41028 1.4111 0 0.54704 0.1523 0.99461 0.41028 1.4111z"/><path d="m0.94302-2.125h0.71488v-0.19581h-0.71488z"/><path d="m2.0264-1.4443h1.1189v-0.21135h-0.41028v-1.7717h-0.19581c-0.10879 0.065271-0.23933 0.115-0.4196 0.14608v0.16473h0.36055v1.4608h-0.45379z"/><path d="m3.531-0.91595c0.25176-0.10568 0.40717-0.31392 0.40717-0.58123 0-0.18649-0.080812-0.30149-0.21446-0.30149-0.10257 0-0.1896 0.06838-0.1896 0.18027 0 0.115 0.08392 0.17717 0.18338 0.17717 0.00932 0 0.021757 0 0.031082-0.00311 0 0.16784-0.10568 0.30149-0.27973 0.3792z"/><path d="m4.9645-1.4443h1.1189v-0.21135h-0.41028v-1.7717h-0.19581c-0.10879 0.065271-0.23933 0.115-0.4196 0.14608v0.16473h0.36055v1.4608h-0.45379z"/><path d="m6.4692-0.91595c0.25176-0.10568 0.40717-0.31392 0.40717-0.58123 0-0.18649-0.080812-0.30149-0.21446-0.30149-0.10257 0-0.1896 0.06838-0.1896 0.18027 0 0.115 0.08392 0.17717 0.18338 0.17717 0.00932 0 0.021757 0 0.031082-0.00311 0 0.16784-0.10568 0.30149-0.27973 0.3792z"/><path d="m7.7846-2.125h0.71488v-0.19581h-0.71488z"/><path d="m8.868-1.4443h1.1189v-0.21135h-0.41028v-1.7717h-0.19581c-0.10879 0.065271-0.23933 0.115-0.4196 0.14608v0.16473h0.36055v1.4608h-0.45379z"/><path d="m10.282-0.97189 0.15852 0.074596c0.25798-0.41649 0.41028-0.86407 0.41028-1.4111 0-0.54704-0.1523-0.99461-0.41028-1.4111l-0.15852 0.074596c0.23933 0.39474 0.35744 0.86407 0.35744 1.3365 0 0.47244-0.11811 0.94177-0.35744 1.3365z"/></g><g aria-label="(-1, -1, -1)"><path d="m3.6479 23.191 0.15852-0.07459c-0.23933-0.39474-0.35744-0.86407-0.35744-1.3365 0-0.47244 0.11811-0.94177 0.35744-1.3365l-0.15852-0.0746c-0.25798 0.41649-0.41028 0.86407-0.41028 1.4111s0.1523 0.99461 0.41028 1.4111z"/><path d="m4.0512 21.963h0.71488v-0.19581h-0.71488z"/><path d="m5.1345 22.644h1.1189v-0.21136h-0.41028v-1.7717h-0.19581c-0.10879 0.06527-0.23933 0.115-0.4196 0.14608v0.16473h0.36055v1.4608h-0.45379z"/><path d="m6.6392 23.172c0.25176-0.10568 0.40717-0.31392 0.40717-0.58122 0-0.18649-0.080812-0.30149-0.21446-0.30149-0.10257 0-0.1896 0.06838-0.1896 0.18027 0 0.115 0.08392 0.17716 0.18338 0.17716 0.00932 0 0.021757 0 0.031082-0.0031 0 0.16784-0.10568 0.30149-0.27973 0.3792z"/><path d="m7.9546 21.963h0.71488v-0.19581h-0.71488z"/><path d="m9.0379 22.644h1.1189v-0.21136h-0.41028v-1.7717h-0.19581c-0.10879 0.06527-0.23933 0.115-0.4196 0.14608v0.16473h0.36055v1.4608h-0.45379z"/><path d="m10.543 23.172c0.25176-0.10568 0.40717-0.31392 0.40717-0.58122 0-0.18649-0.08081-0.30149-0.21446-0.30149-0.10257 0-0.1896 0.06838-0.1896 0.18027 0 0.115 0.08392 0.17716 0.18338 0.17716 0.0093 0 0.02176 0 0.03108-0.0031 0 0.16784-0.10568 0.30149-0.27974 0.3792z"/><path d="m11.858 21.963h0.71488v-0.19581h-0.71488z"/><path d="m12.941 22.644h1.1189v-0.21136h-0.41028v-1.7717h-0.19581c-0.10879 0.06527-0.23933 0.115-0.4196 0.14608v0.16473h0.36055v1.4608h-0.45379z"/><path d="m14.356 23.116 0.15852 0.07459c0.25798-0.41649 0.41028-0.86407 0.41028-1.4111s-0.1523-0.99461-0.41028-1.4111l-0.15852 0.0746c0.23933 0.39474 0.35744 0.86407 0.35744 1.3365 0 0.47244-0.11811 0.94177-0.35744 1.3365z"/></g><g aria-label="(1, -1, -1)"><path d="m25.146 42.358 0.15852-0.0746c-0.23933-0.39474-0.35744-0.86407-0.35744-1.3365s0.11811-0.94177 0.35744-1.3365l-0.15852-0.0746c-0.25798 0.41649-0.41028 0.86407-0.41028 1.4111s0.1523 0.99461 0.41028 1.4111z"/><path d="m25.667 41.811h1.1189v-0.21135h-0.41028v-1.7717h-0.19581c-0.10878 0.06527-0.23933 0.115-0.4196 0.14608v0.16473h0.36055v1.4608h-0.45379z"/><path d="m27.172 42.339c0.25176-0.10568 0.40717-0.31392 0.40717-0.58123 0-0.18649-0.08081-0.30149-0.21446-0.30149-0.10257 0-0.1896 0.06838-0.1896 0.18027 0 0.115 0.08392 0.17717 0.18338 0.17717 0.0093 0 0.02176 0 0.03108-0.0031 0 0.16784-0.10568 0.30149-0.27974 0.3792z"/><path d="m28.487 41.13h0.71488v-0.19581h-0.71488z"/><path d="m29.571 41.811h1.1189v-0.21135h-0.41028v-1.7717h-0.19581c-0.10878 0.06527-0.23933 0.115-0.4196 0.14608v0.16473h0.36055v1.4608h-0.45379z"/><path d="m31.075 42.339c0.25176-0.10568 0.40717-0.31392 0.40717-0.58123 0-0.18649-0.08081-0.30149-0.21446-0.30149-0.10257 0-0.1896 0.06838-0.1896 0.18027 0 0.115 0.08392 0.17717 0.18338 0.17717 0.0093 0 0.02176 0 0.03108-0.0031 0 0.16784-0.10568 0.30149-0.27973 0.3792z"/><path d="m32.391 41.13h0.71488v-0.19581h-0.71488z"/><path d="m33.474 41.811h1.1189v-0.21135h-0.41028v-1.7717h-0.19581c-0.10879 0.06527-0.23933 0.115-0.4196 0.14608v0.16473h0.36055v1.4608h-0.45379z"/><path d="m34.889 42.283 0.15852 0.0746c0.25798-0.41649 0.41028-0.86407 0.41028-1.4111s-0.1523-0.99461-0.41028-1.4111l-0.15852 0.0746c0.23933 0.39474 0.35744 0.86407 0.35744 1.3365s-0.11811 0.94177-0.35744 1.3365z"/></g></g></svg>
