<?xml version="1.0" encoding="UTF-8"?>
<svg class="animated inactive" width="199.95" height="161.41" enable-background="new 0 0 198.44 105.83" version="1.1" viewBox="0 0 51.79 22.527" xml:space="preserve" xmlns="http://www.w3.org/2000/svg" xmlns:cc="http://creativecommons.org/ns#" xmlns:dc="http://purl.org/dc/elements/1.1/" xmlns:rdf="http://www.w3.org/1999/02/22-rdf-syntax-ns#"><metadata><rdf:RDF><cc:Work rdf:about=""><dc:format>image/svg+xml</dc:format><dc:type rdf:resource="http://purl.org/dc/dcmitype/StillImage"/><dc:title/></cc:Work></rdf:RDF></metadata>
  <filter id="blur-filter" x="-2" y="-2" width="200" height="200">
    <feGaussianBlur in="SourceGraphic" stdDeviation="2"/>
  </filter><g fill="#f0f" fill-rule="evenodd" stroke="#535e70" stroke-width=".12951"><path d="m2.0879 6.7412 23.71-12.569"/><path d="m2.9106 7.5829 23.766-12.906"/><path d="m3.7708 8.4807 23.86-13.336"/><path d="m4.5 9.3972 24.084-13.71"/><path d="m5.5097 10.276 24.196-14.103"/><path d="m6.4073 11.249 24.159-14.514"/><path d="m7.3609 12.296 24.178-15.019"/><path d="m8.3707 13.306 24.196-15.487"/><path d="m9.3804 14.466 24.271-16.141"/><path d="m10.465 15.607 24.271-16.646"/><path d="m11.531 16.785 24.402-17.245"/><path d="m12.709 17.963 24.439-17.825"/><path d="m13.98 19.235 24.402-18.423"/><path d="m15.252 20.694 24.308-19.19"/><path d="m16.579 22.097 24.308-19.938"/><path d="m17.87 23.556 24.308-20.705"/><path d="m19.291 25.09 24.365-21.528"/><path d="m20.936 26.754 24.028-22.444"/><path d="m22.413 28.325 24.047-23.249"/><path d="m24.059 30.14 23.93-24.25"/><path d="m25.761 32.122 23.742-25.4"/><path d="m2.1479 6.7024 23.641 25.393"/><path d="m3.6949 5.9089 23.905 24.209"/><path d="m5.222 5.0757 24.005 23.283"/><path d="m6.6925 4.3144 24.101 22.441"/><path d="m8.0582 3.5779 24.238 21.526"/><path d="m9.4597 2.8538 24.29 20.697"/><path d="m10.749 2.1595 24.352 19.931"/><path d="m12.081 1.4618 24.361 19.218"/><path d="m13.326 0.79346 24.407 18.521"/><path d="m14.567 0.1393 24.372 17.862"/><path d="m15.724-0.45968 24.374 17.24"/><path d="m16.851-1.0676 24.365 16.679"/><path d="m17.955-1.6759 24.326 16.114"/><path d="m19.085-2.2843 24.233 15.628"/><path d="m20.123-2.8257 24.147 15.127"/><path d="m21.102-3.3489 24.148 14.626"/><path d="m22.124-3.8871 24.023 14.177"/><path d="m23.029-4.3805 24.039 13.712"/><path d="m24.087-4.9205 23.822 13.329"/><path d="m24.999-5.3928 23.734 12.955"/><path d="m25.73-5.7949 23.776 12.567"/></g><g transform="matrix(.18244 0 0 .18239 6.6734 -131.14)" fill="none" stroke="#6f8ce9" stroke-width="1.4199"><path d="m16.794 786.31-17.147-50.381 44.548 47.906 11.667 47.73z"/><path d="m43.487 782.95 137.18-85.383-8.8388 49.851-116.32 84.676"/><path d="m-0.35355 736.11 130.81-69.12 50.028 30.582"/><path d="m171.83 747.6-42.78-31.643 1.2374-48.614"/><path d="m129.05 716.31-112.43 69.473"/></g><g transform="matrix(.27628 0 0 .27628 -5.8274 -244.57)" fill-rule="evenodd"><path d="m48.312 929.05 5.8125-3.8438 1.25 1.2188 1.0938 1.125 1.0938 1.6875 1.0312 1.4062 0.5625 1.25-5.6875 4z" fill="#e8eaec"/><path d="m50.625 936.67 3.6562 4.7188 3.9688-2.9375-3.5625-4.9688z" fill="#a6aeb8"/><path d="m50.562 936.64-7.0938-9.625 4.1875-2.625 7.2812 9.2812z" fill="#535e70"/></g><g fill="#e8eaec" stroke-linecap="round" stroke-width=".25902" aria-label="near plane"><path d="m0.12951 22.361h0.25487v-1.0941c0.1523-0.1523 0.25798-0.23311 0.41339-0.23311 0.19892 0 0.28595 0.12122 0.28595 0.40406v0.92313h0.25487v-0.95732c0-0.38541-0.14298-0.59055-0.46001-0.59055-0.20825 0-0.36366 0.11189-0.50663 0.25487h-0.009325l-0.021757-0.21757h-0.21136z"/><path d="m1.7174 21.609c0 0.4942 0.32014 0.78948 0.72421 0.78948 0.20514 0 0.36677-0.07149 0.49731-0.15541l-0.090137-0.16784c-0.11189 0.07149-0.23311 0.11811-0.37609 0.11811-0.28906 0-0.48488-0.20514-0.50353-0.5315h1.0195c0.00622-0.0373 0.00932-0.08703 0.00932-0.13987 0-0.43204-0.21757-0.70866-0.60299-0.70866-0.34501 0-0.67758 0.30149-0.67758 0.79569zm0.24865-0.115c0.031082-0.3046 0.22379-0.47866 0.43515-0.47866 0.23622 0 0.37298 0.17095 0.37298 0.47866z"/><path d="m3.2542 21.97c0 0.27041 0.1896 0.42893 0.44447 0.42893 0.18649 0 0.35433-0.09946 0.50042-0.21757h0.00622l0.021757 0.18027h0.21136v-0.92624c0-0.37609-0.15541-0.62164-0.52528-0.62164-0.24244 0-0.45379 0.10568-0.59366 0.19582l0.10257 0.17717c0.11811-0.08081 0.27352-0.16162 0.45069-0.16162 0.24555 0 0.31082 0.18649 0.31082 0.3792-0.64339 0.07149-0.92935 0.23622-0.92935 0.56569zm0.25176-0.01865c0-0.19271 0.17095-0.31704 0.67758-0.3792v0.4196c-0.14608 0.13054-0.2673 0.20203-0.41339 0.20203-0.14919 0-0.2642-0.07149-0.2642-0.24244z"/><path d="m4.9193 22.361h0.25487v-0.96975c0.10257-0.25487 0.25487-0.34812 0.38231-0.34812 0.062164 0 0.096354 0.0093 0.14608 0.02487l0.049731-0.22379c-0.049731-0.02176-0.096354-0.03108-0.16163-0.03108-0.17095 0-0.32636 0.12122-0.42893 0.31082h-0.00932l-0.021757-0.27352h-0.21136z"/><path d="m6.8738 22.224c0.13987 0.10879 0.27974 0.17406 0.4196 0.17406 0.34501 0 0.65272-0.30149 0.65272-0.81434 0-0.46934-0.20825-0.77083-0.59677-0.77083-0.17717 0-0.34501 0.09635-0.48177 0.21136h-0.00932l-0.021762-0.17406h-0.21136v2.1478h0.25487v-0.50974zm0.00622-0.19892v-0.79259c0.14919-0.13365 0.27663-0.20514 0.40406-0.20514 0.28595 0 0.39785 0.22379 0.39785 0.55636 0 0.37298-0.18338 0.59988-0.43204 0.59988-0.099462 0-0.23311-0.04351-0.36987-0.15852z"/><path d="m8.3492 22.057c0 0.22068 0.077704 0.3419 0.27041 0.3419 0.06838 0 0.11189-0.0093 0.14608-0.02487l-0.03419-0.19271c-0.027974 0.0062-0.040406 0.0062-0.055947 0.0062-0.037298 0-0.071488-0.03108-0.071488-0.11189v-1.9271h-0.25487z"/><path d="m9.0698 21.97c0 0.27041 0.1896 0.42893 0.44447 0.42893 0.18649 0 0.35433-0.09946 0.50042-0.21757h0.0062l0.02176 0.18027h0.21136v-0.92624c0-0.37609-0.15541-0.62164-0.52528-0.62164-0.24244 0-0.45379 0.10568-0.59366 0.19582l0.10257 0.17717c0.11811-0.08081 0.27352-0.16162 0.45069-0.16162 0.24555 0 0.31082 0.18649 0.31082 0.3792-0.64339 0.07149-0.92935 0.23622-0.92935 0.56569zm0.25176-0.01865c0-0.19271 0.17095-0.31704 0.67758-0.3792v0.4196c-0.14608 0.13054-0.2673 0.20203-0.41339 0.20203-0.14919 0-0.2642-0.07149-0.2642-0.24244z"/><path d="m10.735 22.361h0.25487v-1.0941c0.1523-0.1523 0.25798-0.23311 0.41339-0.23311 0.19892 0 0.28595 0.12122 0.28595 0.40406v0.92313h0.25487v-0.95732c0-0.38541-0.14298-0.59055-0.46001-0.59055-0.20825 0-0.36366 0.11189-0.50663 0.25487h-0.0093l-0.02176-0.21757h-0.21136z"/><path d="m12.323 21.609c0 0.4942 0.32014 0.78948 0.72421 0.78948 0.20514 0 0.36676-0.07149 0.49731-0.15541l-0.09014-0.16784c-0.11189 0.07149-0.23311 0.11811-0.37609 0.11811-0.28906 0-0.48488-0.20514-0.50353-0.5315h1.0195c0.0062-0.0373 0.0093-0.08703 0.0093-0.13987 0-0.43204-0.21757-0.70866-0.60299-0.70866-0.34501 0-0.67758 0.30149-0.67758 0.79569zm0.24865-0.115c0.03108-0.3046 0.22379-0.47866 0.43514-0.47866 0.23622 0 0.37298 0.17095 0.37298 0.47866z"/></g><g fill="#e8eaec" stroke-linecap="round" stroke-width=".25902" aria-label="far plane"><path d="m41.272-1.3376c-0.06838-0.027974-0.15852-0.049731-0.25176-0.049731-0.30149 0-0.44136 0.19271-0.44136 0.50042v0.23933l-0.20514 0.015541v0.19271h0.20514v1.3023h0.25487v-1.3023h0.32014v-0.20825h-0.32014v-0.23933c0-0.19271 0.06838-0.29217 0.21136-0.29217 0.05595 0 0.115 0.012433 0.17095 0.037298z"/><path d="m41.311 0.4714c0 0.27041 0.1896 0.42893 0.44447 0.42893 0.18649 0 0.35433-0.099462 0.50042-0.21757h0.0062l0.02176 0.18027h0.21136v-0.92624c0-0.37609-0.15541-0.62164-0.52528-0.62164-0.24244 0-0.45379 0.10568-0.59366 0.19582l0.10257 0.17717c0.11811-0.080813 0.27352-0.16163 0.45069-0.16163 0.24555 0 0.31082 0.18649 0.31082 0.3792-0.64339 0.071488-0.92935 0.23622-0.92935 0.56569zm0.25176-0.018649c0-0.19271 0.17095-0.31703 0.67758-0.3792v0.4196c-0.14608 0.13054-0.2673 0.20203-0.41339 0.20203-0.14919 0-0.2642-0.071488-0.2642-0.24244z"/><path d="m42.976 0.86303h0.25487v-0.96975c0.10257-0.25487 0.25487-0.34812 0.38231-0.34812 0.06216 0 0.09635 0.009325 0.14608 0.024865l0.04973-0.22379c-0.04973-0.021757-0.09635-0.031082-0.16163-0.031082-0.17095 0-0.32636 0.12122-0.42893 0.31082h-0.0093l-0.02176-0.27352h-0.21138z"/><path d="m44.931 0.72627c0.13987 0.10879 0.27974 0.17406 0.4196 0.17406 0.34501 0 0.65272-0.30149 0.65272-0.81434 0-0.46934-0.20825-0.77083-0.59677-0.77083-0.17717 0-0.34501 0.096354-0.48177 0.21136h-0.0093l-0.02176-0.17406h-0.21138v2.1478h0.25487v-0.50974zm0.0062-0.19892v-0.79259c0.14919-0.13365 0.27663-0.20514 0.40406-0.20514 0.28595 0 0.39785 0.22379 0.39785 0.55636 0 0.37298-0.18338 0.59988-0.43204 0.59988-0.09946 0-0.23311-0.043514-0.36987-0.15852z"/><path d="m46.406 0.55843c0 0.22068 0.07771 0.3419 0.27041 0.3419 0.06838 0 0.1119-0.009325 0.14608-0.024865l-0.03419-0.19271c-0.02797 0.006216-0.04041 0.006216-0.05595 0.006216-0.0373 0-0.07149-0.031082-0.07149-0.11189v-1.9271h-0.25487z"/><path d="m47.127 0.4714c0 0.27041 0.1896 0.42893 0.44447 0.42893 0.18649 0 0.35433-0.099462 0.50042-0.21757h0.0062l0.02176 0.18027h0.21136v-0.92624c0-0.37609-0.15541-0.62164-0.52528-0.62164-0.24244 0-0.45379 0.10568-0.59366 0.19582l0.10257 0.17717c0.11811-0.080813 0.27352-0.16163 0.45069-0.16163 0.24555 0 0.31082 0.18649 0.31082 0.3792-0.64339 0.071488-0.92935 0.23622-0.92935 0.56569zm0.25176-0.018649c0-0.19271 0.17095-0.31703 0.67758-0.3792v0.4196c-0.14608 0.13054-0.2673 0.20203-0.41339 0.20203-0.14919 0-0.2642-0.071488-0.2642-0.24244z"/><path d="m48.792 0.86303h0.25487v-1.0941c0.1523-0.1523 0.25798-0.23311 0.41339-0.23311 0.19892 0 0.28595 0.12122 0.28595 0.40406v0.92313h0.25487v-0.95732c0-0.38541-0.14298-0.59055-0.46001-0.59055-0.20825 0-0.36366 0.11189-0.50663 0.25487h-0.0093l-0.02176-0.21757h-0.21136z"/><path d="m50.38 0.11085c0 0.4942 0.32014 0.78948 0.72421 0.78948 0.20514 0 0.36677-0.071488 0.49731-0.15541l-0.090137-0.16784c-0.1119 0.071488-0.23311 0.11811-0.37609 0.11811-0.28906 0-0.48488-0.20514-0.50352-0.5315h1.0195c0.0062-0.037298 0.0093-0.087029 0.0093-0.13987 0-0.43204-0.21757-0.70867-0.60299-0.70867-0.34501 0-0.67758 0.30149-0.67758 0.79569zm0.24866-0.115c0.03108-0.3046 0.22379-0.47866 0.43514-0.47866 0.23622 0 0.37298 0.17095 0.37298 0.47866z"/></g></svg>
