<?xml version="1.0" encoding="UTF-8"?>
<svg class="animated inactive" width="203.99" height="186.43" enable-background="new 0 0 198.44 105.83" version="1.1" viewBox="0 0 52.836 26.02" xml:space="preserve" xmlns="http://www.w3.org/2000/svg" xmlns:cc="http://creativecommons.org/ns#" xmlns:dc="http://purl.org/dc/elements/1.1/" xmlns:rdf="http://www.w3.org/1999/02/22-rdf-syntax-ns#"><metadata><rdf:RDF><cc:Work rdf:about=""><dc:format>image/svg+xml</dc:format><dc:type rdf:resource="http://purl.org/dc/dcmitype/StillImage"/><dc:title/></cc:Work></rdf:RDF></metadata>
  <filter id="blur-filter" x="-2" y="-2" width="200" height="200">
    <feGaussianBlur in="SourceGraphic" stdDeviation="2"/>
  </filter><g fill="#f0f" fill-rule="evenodd" stroke="#535e70" stroke-width=".12951"><path d="m5.3746 11.729 23.71-12.569"/><path d="m6.1973 12.571 23.766-12.905"/><path d="m7.0575 13.468 23.86-13.336"/><path d="m7.7867 14.385 24.084-13.71"/><path d="m8.7964 15.264 24.196-14.102"/><path d="m9.694 16.237 24.159-14.514"/><path d="m10.648 17.284 24.177-15.019"/><path d="m11.657 18.294 24.196-15.487"/><path d="m12.667 19.454 24.271-16.141"/><path d="m13.752 20.595 24.271-16.646"/><path d="m14.817 21.773 24.402-17.245"/><path d="m15.995 22.951 24.439-17.824"/><path d="m17.267 24.223 24.402-18.423"/><path d="m18.538 25.682 24.308-19.19"/><path d="m19.866 27.085 24.308-19.938"/><path d="m21.156 28.544 24.308-20.705"/><path d="m22.577 30.077 24.364-21.528"/><path d="m24.223 31.742 24.028-22.444"/><path d="m25.7 33.313 24.047-23.248"/><path d="m27.346 35.127 23.93-24.25"/><path d="m29.047 37.11 23.742-25.4"/><path d="m5.4346 11.69 23.641 25.393"/><path d="m6.9816 10.897 23.905 24.209"/><path d="m8.5087 10.064 24.004 23.283"/><path d="m9.9791 9.3023 24.101 22.441"/><path d="m11.345 8.5658 24.237 21.525"/><path d="m12.746 7.8417 24.29 20.697"/><path d="m14.035 7.1473 24.352 19.931"/><path d="m15.368 6.4497 24.361 19.218"/><path d="m16.612 5.7813 24.406 18.521"/><path d="m17.853 5.1272 24.372 17.861"/><path d="m19.011 4.5282 24.374 17.24"/><path d="m20.137 3.9203 24.364 16.679"/><path d="m21.241 3.312 24.326 16.114"/><path d="m22.372 2.7036 24.233 15.628"/><path d="m23.409 2.1622 24.147 15.126"/><path d="m24.388 1.639 24.148 14.626"/><path d="m25.41 1.1008 24.023 14.177"/><path d="m26.315 0.6074 24.039 13.712"/><path d="m27.374 0.067414 23.822 13.329"/><path d="m28.285-0.40486 23.734 12.955"/><path d="m29.017-0.80698 23.776 12.567"/></g><g transform="matrix(.27628 0 0 .27628 -1.2708 -240.46)" fill="none" stroke="#6f8ce9" stroke-width=".9375"><path d="m69.011 928.68 81.195-4.3069 25.701-62.157"/><path d="m61.872 917.96 36-87.291 78.035 31.145-108.96 61.464"/><path d="m98.006 831.6 2.7965 58.164 49.405 34.339"/><path d="m100.94 889.9-37.387 33.162"/><path d="m61.385 917.48 5.6596 5.823 2.1307 5.8563-5.4598-5.9894z"/></g><g transform="matrix(.27628 0 0 .27628 .065196 -241.14)" fill-rule="evenodd"><path d="m48.312 929.05 5.8125-3.8438 1.25 1.2188 1.0938 1.125 1.0938 1.6875 1.0312 1.4062 0.5625 1.25-5.6875 4z" fill="#e8eaec"/><path d="m50.625 936.67 3.6562 4.7188 3.9688-2.9375-3.5625-4.9688z" fill="#a6aeb8"/><path d="m50.562 936.64-7.0938-9.625 4.1875-2.625 7.2812 9.2812z" fill="#535e70"/></g><g fill="#e8eaec" stroke-linecap="round" stroke-width=".25901" aria-label="near plane"><path d="m0.12951 9.9951h0.25487v-1.0941c0.1523-0.1523 0.25798-0.23311 0.41338-0.23311 0.19892 0 0.28595 0.12122 0.28595 0.40406v0.92312h0.25487v-0.95731c0-0.38541-0.14297-0.59055-0.46001-0.59055-0.20825 0-0.36365 0.11189-0.50663 0.25487h-0.009324l-0.021758-0.21757h-0.21135z"/><path d="m1.7174 9.2429c0 0.4942 0.32014 0.78947 0.7242 0.78947 0.20514 0 0.36676-0.071487 0.4973-0.15541l-0.090136-0.16784c-0.11189 0.071487-0.23311 0.11811-0.37609 0.11811-0.28906 0-0.48487-0.20514-0.50352-0.53149h1.0195c0.00622-0.037298 0.00932-0.087028 0.00932-0.13987 0-0.43203-0.21757-0.70866-0.60298-0.70866-0.345 0-0.67758 0.30149-0.67758 0.79569zm0.24865-0.115c0.031081-0.3046 0.22379-0.47866 0.43514-0.47866 0.23622 0 0.37298 0.17095 0.37298 0.47866z"/><path d="m3.2541 9.6035c0 0.27041 0.1896 0.42892 0.44447 0.42892 0.18649 0 0.35433-0.09946 0.50041-0.21757h0.00622l0.021757 0.18027h0.21135v-0.92623c0-0.37609-0.15541-0.62163-0.52528-0.62163-0.24244 0-0.45379 0.10568-0.59366 0.19581l0.10257 0.17716c0.11811-0.080812 0.27352-0.16162 0.45068-0.16162 0.24554 0 0.31082 0.18649 0.31082 0.37919-0.64339 0.071487-0.92934 0.23622-0.92934 0.56568zm0.25176-0.018649c0-0.19271 0.17095-0.31703 0.67758-0.37919v0.4196c-0.14608 0.13054-0.2673 0.20203-0.41338 0.20203-0.14919 0-0.26419-0.071487-0.26419-0.24244z"/><path d="m4.9192 9.9951h0.25487v-0.96974c0.10257-0.25487 0.25487-0.34811 0.3823-0.34811 0.062163 0 0.096353 0.00932 0.14608 0.024865l0.04973-0.22379c-0.04973-0.021757-0.096353-0.031082-0.16162-0.031082-0.17095 0-0.32636 0.12122-0.42892 0.31082h-0.00932l-0.021761-0.27352h-0.21135z"/><path d="m6.8737 9.8583c0.13987 0.10879 0.27973 0.17406 0.4196 0.17406 0.345 0 0.65271-0.30149 0.65271-0.81433 0-0.46933-0.20825-0.77082-0.59676-0.77082-0.17716 0-0.345 0.096353-0.48176 0.21135h-0.00932l-0.021762-0.17406h-0.21135v2.1477h0.25487v-0.50974zm0.00622-0.19892v-0.79258c0.14919-0.13365 0.27662-0.20514 0.40406-0.20514 0.28595 0 0.39784 0.22379 0.39784 0.55636 0 0.37298-0.18338 0.59987-0.43203 0.59987-0.099461 0-0.23311-0.043514-0.36987-0.15852z"/><path d="m8.3491 9.6905c0 0.22068 0.077704 0.3419 0.27041 0.3419 0.068379 0 0.11189-0.0093 0.14608-0.02487l-0.03419-0.1927c-0.027973 0.00622-0.040406 0.00622-0.055947 0.00622-0.037298 0-0.071487-0.031082-0.071487-0.11189v-1.9271h-0.25487z"/><path d="m9.0698 9.6035c0 0.27041 0.1896 0.42892 0.44447 0.42892 0.18649 0 0.35433-0.09946 0.50041-0.21757h0.0062l0.02176 0.18027h0.21135v-0.92623c0-0.37609-0.15541-0.62163-0.52528-0.62163-0.24244 0-0.45379 0.10568-0.59366 0.19581l0.10258 0.17716c0.11811-0.080812 0.27352-0.16162 0.45068-0.16162 0.24554 0 0.31082 0.18649 0.31082 0.37919-0.64339 0.071487-0.92934 0.23622-0.92934 0.56568zm0.25176-0.018649c0-0.19271 0.17095-0.31703 0.67758-0.37919v0.4196c-0.14608 0.13054-0.2673 0.20203-0.41338 0.20203-0.14919 0-0.26419-0.071487-0.26419-0.24244z"/><path d="m10.735 9.9951h0.25487v-1.0941c0.1523-0.1523 0.25798-0.23311 0.41338-0.23311 0.19892 0 0.28595 0.12122 0.28595 0.40406v0.92312h0.25487v-0.95731c0-0.38541-0.14297-0.59055-0.46001-0.59055-0.20825 0-0.36365 0.11189-0.50663 0.25487h-0.0093l-0.02176-0.21757h-0.21135z"/><path d="m12.323 9.2429c0 0.4942 0.32014 0.78947 0.7242 0.78947 0.20514 0 0.36676-0.071487 0.4973-0.15541l-0.09014-0.16784c-0.11189 0.071487-0.23311 0.11811-0.37609 0.11811-0.28906 0-0.48487-0.20514-0.50352-0.53149h1.0195c0.0062-0.037298 0.0093-0.087028 0.0093-0.13987 0-0.43203-0.21757-0.70866-0.60298-0.70866-0.345 0-0.67758 0.30149-0.67758 0.79569zm0.24865-0.115c0.03108-0.3046 0.22379-0.47866 0.43514-0.47866 0.23622 0 0.37298 0.17095 0.37298 0.47866z"/></g><g fill="#e8eaec" stroke-linecap="round" stroke-width=".25901" aria-label="far plane"><path d="m30.135-3.602c-0.06838-0.027973-0.15852-0.04973-0.25176-0.04973-0.30149 0-0.44136 0.19271-0.44136 0.50041v0.23933l-0.20514 0.015541v0.19271h0.20514v1.3023h0.25487v-1.3023h0.32014v-0.20825h-0.32014v-0.23933c0-0.19271 0.06838-0.29217 0.21135-0.29217 0.05595 0 0.115 0.012433 0.17095 0.037298z"/><path d="m30.173-1.7931c0 0.27041 0.1896 0.42892 0.44446 0.42892 0.18649 0 0.35433-0.099461 0.50041-0.21757h0.0062l0.02176 0.18027h0.21135v-0.92623c0-0.37609-0.15541-0.62163-0.52528-0.62163-0.24244 0-0.45379 0.10568-0.59366 0.19581l0.10257 0.17716c0.11811-0.080812 0.27352-0.16162 0.45068-0.16162 0.24554 0 0.31082 0.18649 0.31082 0.37919-0.64339 0.071487-0.92934 0.23622-0.92934 0.56568zm0.25176-0.018649c0-0.19271 0.17095-0.31703 0.67758-0.37919v0.4196c-0.14608 0.13054-0.2673 0.20203-0.41338 0.20203-0.14919 0-0.26419-0.071487-0.26419-0.24244z"/><path d="m31.838-1.4015h0.25487v-0.96974c0.10257-0.25487 0.25487-0.34811 0.3823-0.34811 0.06216 0 0.09635 0.00932 0.14608 0.024865l0.04973-0.22379c-0.04973-0.021757-0.09635-0.031081-0.16162-0.031081-0.17095 0-0.32636 0.12122-0.42892 0.31082h-0.0093l-0.02176-0.27352h-0.21135z"/><path d="m33.793-1.5382c0.13987 0.10879 0.27973 0.17406 0.4196 0.17406 0.345 0 0.65271-0.30149 0.65271-0.81434 0-0.46933-0.20825-0.77082-0.59676-0.77082-0.17716 0-0.345 0.096353-0.48176 0.21135h-0.0093l-0.02176-0.17406h-0.21135v2.1477h0.25487v-0.50974zm0.0062-0.19892v-0.79258c0.14919-0.13365 0.27663-0.20514 0.40406-0.20514 0.28595 0 0.39784 0.22379 0.39784 0.55636 0 0.37298-0.18338 0.59987-0.43203 0.59987-0.09946 0-0.23311-0.043514-0.36987-0.15852z"/><path d="m35.268-1.706c0 0.22068 0.0777 0.3419 0.27041 0.3419 0.06838 0 0.11189-0.00932 0.14608-0.024865l-0.03419-0.19271c-0.02797 0.00622-0.04041 0.00622-0.05595 0.00622-0.0373 0-0.07149-0.031081-0.07149-0.11189v-1.9271h-0.25487z"/><path d="m35.989-1.7931c0 0.27041 0.1896 0.42892 0.44446 0.42892 0.18649 0 0.35433-0.099461 0.50041-0.21757h0.0062l0.02176 0.18027h0.21135v-0.92623c0-0.37609-0.15541-0.62163-0.52528-0.62163-0.24244 0-0.45379 0.10568-0.59366 0.19581l0.10257 0.17716c0.11811-0.080812 0.27352-0.16162 0.45068-0.16162 0.24554 0 0.31082 0.18649 0.31082 0.37919-0.64339 0.071487-0.92934 0.23622-0.92934 0.56568zm0.25176-0.018649c0-0.19271 0.17095-0.31703 0.67758-0.37919v0.4196c-0.14608 0.13054-0.2673 0.20203-0.41338 0.20203-0.14919 0-0.26419-0.071487-0.26419-0.24244z"/><path d="m37.654-1.4015h0.25487v-1.0941c0.1523-0.1523 0.25798-0.23311 0.41338-0.23311 0.19892 0 0.28595 0.12122 0.28595 0.40406v0.92312h0.25487v-0.95731c0-0.38541-0.14298-0.59055-0.46001-0.59055-0.20825 0-0.36365 0.11189-0.50663 0.25487h-0.0093l-0.02176-0.21757h-0.21135z"/><path d="m39.242-2.1536c0 0.4942 0.32014 0.78947 0.7242 0.78947 0.20514 0 0.36676-0.071487 0.4973-0.15541l-0.09014-0.16784c-0.11189 0.071487-0.23311 0.11811-0.37609 0.11811-0.28906 0-0.48487-0.20514-0.50352-0.53149h1.0195c0.0062-0.037298 0.0093-0.087028 0.0093-0.13987 0-0.43203-0.21757-0.70866-0.60298-0.70866-0.345 0-0.67758 0.30149-0.67758 0.79569zm0.24865-0.115c0.03108-0.3046 0.22379-0.47866 0.43514-0.47866 0.23622 0 0.37298 0.17095 0.37298 0.47866z"/></g></svg>
