<?xml version="1.0" encoding="UTF-8"?>
<svg width="59.02mm" height="59.002mm" version="1.1" viewBox="0 0 59.02 59.002" xmlns="http://www.w3.org/2000/svg" xmlns:cc="http://creativecommons.org/ns#" xmlns:dc="http://purl.org/dc/elements/1.1/" xmlns:rdf="http://www.w3.org/1999/02/22-rdf-syntax-ns#">
 <metadata>
  <rdf:RDF>
   <cc:Work rdf:about="">
    <dc:format>image/svg+xml</dc:format>
    <dc:type rdf:resource="http://purl.org/dc/dcmitype/StillImage"/>
    <dc:title/>
   </cc:Work>
  </rdf:RDF>
 </metadata>
 <g stroke-width=".26458">
  <path d="m12.303 12.656c4.4253-4.4253 10.093-6.5057 16.025-6.6379 5.9324-0.13229 12.129 1.6835 16.555 6.1088" fill="none" stroke="#ff867f"/>
  <path d="m28.443 59.002v-56.885" fill="#2586e0" stroke="#7b8694"/>
  <path d="m47.081 14.699c4.3637 4.3637 5.4751 8.5399 5.4751 15.199" fill="none" stroke="#47d58a"/>
 </g>
 <g stroke-width=".26458">
  <path d="m48.555 50.671-40.224-40.224" fill="#2586e0" stroke="#7b8694"/>
  <path d="m48.555 10.447-40.224 40.224" fill="#2586e0" stroke="#7b8694"/>
  <g transform="scale(.99996 1)" fill="#e8eaec" stroke="#cf2f25" stroke-linecap="round" aria-label="i">
   <path d="m25.976 2.838c0.13547 0 0.2413-0.093133 0.2413-0.22437 0-0.13547-0.10583-0.22437-0.2413-0.22437-0.13547 0-0.2413 0.0889-0.2413 0.22437 0 0.13123 0.10583 0.22437 0.2413 0.22437zm-0.1778 2.4807h0.34713v-2.0574h-0.34713z" fill="#e8eaec" stroke="none"/>
  </g>
  <g transform="scale(.99996 1)" fill="#e8eaec" stroke="#cf2f25" stroke-linecap="round" aria-label="j">
   <path d="m45.646 10.843c0 0.24977-0.0508 0.40217-0.254 0.40217-0.07197 0-0.14393-0.01693-0.19473-0.03387l-0.07197 0.26247c0.07197 0.02963 0.1778 0.05503 0.3048 0.05503 0.41063 0 0.56303-0.2667 0.56303-0.6858v-2.2902h-0.34713zm0.1778-2.7136c0.13123 0 0.23707-0.093133 0.23707-0.22437 0-0.13547-0.10583-0.22437-0.23707-0.22437-0.13547 0-0.2413 0.0889-0.2413 0.22437 0 0.13123 0.10583 0.22437 0.2413 0.22437z" fill="#e8eaec" stroke="none"/>
  </g>
  <path d="m0 30.559h56.885" fill="#2586e0" stroke="#7b8694"/>
 </g>
 <g fill="#e8eaec" stroke-linecap="round" stroke-width=".26458">
  <g transform="scale(.99996 1)" stroke="#cf2f25" aria-label="1">
   <path d="m53.567 28.866h1.524v-0.28787h-0.5588v-2.413h-0.2667c-0.14817 0.0889-0.32597 0.15663-0.5715 0.19897v0.22437h0.49107v1.9897h-0.61807z" fill="#e8eaec" stroke="none"/>
  </g>
  <g transform="scale(.99996 1)" stroke="#cf2f25" aria-label="k">
   <path d="m47.494 47.386h0.3429v-0.54187l0.38523-0.44873 0.60113 0.9906h0.381l-0.78317-1.2319 0.69003-0.8255h-0.38523l-0.8763 1.0837h-0.0127v-2.0405h-0.3429z" fill="#e8eaec" stroke="none"/>
  </g>
  <g transform="scale(.99996 1)" aria-label="-i">
   <path d="m30.652 56.247h0.97367v-0.2667h-0.97367z"/>
   <path d="m32.318 54.694c0.13547 0 0.2413-0.09313 0.2413-0.22437 0-0.13547-0.10583-0.22437-0.2413-0.22437-0.13547 0-0.2413 0.0889-0.2413 0.22437 0 0.13123 0.10583 0.22437 0.2413 0.22437zm-0.1778 2.4807h0.34713v-2.0574h-0.34713z"/>
  </g>
  <g transform="scale(.99996 1)" aria-label="-j">
   <path d="m11.865 51.221h0.97367v-0.2667h-0.97367z"/>
   <path d="m13.358 52.381c0 0.24977-0.0508 0.40217-0.254 0.40217-0.07197 0-0.14393-0.01693-0.19473-0.03387l-0.07197 0.26247c0.07197 0.02963 0.1778 0.05503 0.3048 0.05503 0.41063 0 0.56303-0.2667 0.56303-0.6858v-2.2902h-0.34713zm0.1778-2.7136c0.13123 0 0.23707-0.09313 0.23707-0.22437 0-0.13547-0.10583-0.22437-0.23707-0.22437-0.13547 0-0.2413 0.0889-0.2413 0.22437 0 0.13123 0.10583 0.22437 0.2413 0.22437z"/>
  </g>
  <g transform="scale(.99996 1)" aria-label="-1">
   <path d="m1.5462 33.494h0.97367v-0.2667h-0.97367z"/>
   <path d="m3.0217 34.422h1.524v-0.28787h-0.5588v-2.413h-0.2667c-0.14817 0.0889-0.32597 0.15663-0.5715 0.19897v0.22437h0.49107v1.9897h-0.61807z"/>
  </g>
  <g transform="scale(.99996 1)" stroke="#cf2f25" aria-label="0">
   <path d="m34.443 34.472c0.53763 0 0.8636-0.50377 0.8636-1.4097 0-0.90593-0.32597-1.3928-0.8636-1.3928-0.54187 0-0.86783 0.48683-0.86783 1.3928 0 0.90593 0.32597 1.4097 0.86783 1.4097zm0-0.2794c-0.3175 0-0.52917-0.33867-0.52917-1.1303 0-0.79163 0.21167-1.1134 0.52917-1.1134 0.31327 0 0.52493 0.32173 0.52493 1.1134 0 0.79163-0.21167 1.1303-0.52493 1.1303z" fill="#e8eaec" stroke="none"/>
  </g>
 </g>
 <g fill="#d2d6dc" stroke-width="123.85">
  <g transform="matrix(0 -.0042365 .0043091 0 27.254 2.2289)">
   <g fill="#d2d6dc" stroke-width="123.85">
    <path d="m486.41 221.41-364.07-208.5c-52.938-30.318-95.852-5.44-95.852 55.563v415.65c0 61.004 42.914 85.882 95.852 55.563l364.07-208.49c52.938-30.317 52.938-79.473 0-109.79z" fill="#d2d6dc" stroke-width="123.85"/>
   </g>
  </g>
  <g transform="matrix(.0029957 -.0029957 .003047 .003047 47.647 9.6894)">
   <g fill="#d2d6dc" stroke-width="123.85">
    <path d="m486.41 221.41-364.07-208.5c-52.938-30.318-95.852-5.44-95.852 55.563v415.65c0 61.004 42.914 85.882 95.852 55.563l364.07-208.49c52.938-30.317 52.938-79.473 0-109.79z" fill="#d2d6dc" stroke-width="123.85"/>
   </g>
  </g>
  <g transform="matrix(.0042365 0 0 .0043091 56.791 29.385)">
   <g fill="#d2d6dc" stroke-width="123.85">
    <path d="m486.41 221.41-364.07-208.5c-52.938-30.318-95.852-5.44-95.852 55.563v415.65c0 61.004 42.914 85.882 95.852 55.563l364.07-208.49c52.938-30.317 52.938-79.473 0-109.79z" fill="#d2d6dc" stroke-width="123.85"/>
   </g>
  </g>
  <g transform="matrix(.0029957 .0029957 -.003047 .003047 49.331 49.778)">
   <g fill="#d2d6dc" stroke-width="123.85">
    <path d="m486.41 221.41-364.07-208.5c-52.938-30.318-95.852-5.44-95.852 55.563v415.65c0 61.004 42.914 85.882 95.852 55.563l364.07-208.49c52.938-30.317 52.938-79.473 0-109.79z" fill="#d2d6dc" stroke-width="123.85"/>
   </g>
  </g>
 </g>
 <g transform="scale(.99996 1)" fill="#e8eaec" stroke-linecap="round" stroke-width=".26458" aria-label="-k">
  <path d="m4.7213 15.504h0.97367v-0.2667h-0.97367z"/>
  <path d="m6.2095 16.431h0.3429v-0.54187l0.38523-0.44873 0.60113 0.9906h0.381l-0.78317-1.2319 0.69003-0.8255h-0.38523l-0.8763 1.0837h-0.0127v-2.0405h-0.3429z"/>
 </g>
 <g fill="#d2d6dc">
  <circle cx="28.443" cy="6.0854" r="1.0583"/>
  <circle transform="rotate(45)" cx="41.712" cy="-22.974" r="1.0583"/>
  <circle transform="rotate(90)" cx="30.546" cy="-52.906" r="1.0583"/>
  <circle transform="rotate(135)" cx="1.486" cy="-66.175" r="1.0583"/>
  <circle transform="rotate(-45)" cx="-1.489" cy="17.251" r="1.0583"/>
 </g>
 <path d="m29.236 9.7896c11.69 0 20.373 8.4183 20.373 20.108" fill="none" stroke="#6f8ce9" stroke-width=".26458"/>
 <path d="m28.443 12.7c9.4981 0 17.198 7.6998 17.198 17.198 0 4.7491-0.86662 8.2548-3.9788 11.367" fill="none" stroke="#e9e56f" stroke-width=".26458"/>
 <g stroke-width="247.7">
  <g transform="matrix(-.00054077 -.0020481 .0020832 -.00055004 12.147 12.915)" fill="#ff867f">
   <g fill="#ff867f" stroke-width="247.7">
    <path d="m486.41 221.41-364.07-208.5c-52.938-30.318-95.852-5.44-95.852 55.563v415.65c0 61.004 42.914 85.882 95.852 55.563l364.07-208.49c52.938-30.317 52.938-79.473 0-109.79z" fill="#ff867f" stroke-width="247.7"/>
   </g>
  </g>
  <g transform="matrix(.001136 -.0017879 .0018185 .0011555 28.615 9.8411)" fill="#6f8ce9">
   <g fill="#6f8ce9" stroke-width="247.7">
    <path d="m486.41 221.41-364.07-208.5c-52.938-30.318-95.852-5.44-95.852 55.563v415.65c0 61.004 42.914 85.882 95.852 55.563l364.07-208.49c52.938-30.317 52.938-79.473 0-109.79z" fill="#6f8ce9" stroke-width="247.7"/>
   </g>
  </g>
  <g transform="matrix(.0020812 -.00039441 .00040116 .0021169 46.631 14.304)" fill="#47d58a">
   <g fill="#47d58a" stroke-width="247.7">
    <path d="m486.41 221.41-364.07-208.5c-52.938-30.318-95.852-5.44-95.852 55.563v415.65c0 61.004 42.914 85.882 95.852 55.563l364.07-208.49c52.938-30.317 52.938-79.473 0-109.79z" fill="#47d58a" stroke-width="247.7"/>
   </g>
  </g>
  <g transform="matrix(.0021077 .00021132 -.00021494 .0021438 41.552 40.417)" fill="#e9e56f">
   <g fill="#e9e56f" stroke-width="247.7">
    <path d="m486.41 221.41-364.07-208.5c-52.938-30.318-95.852-5.44-95.852 55.563v415.65c0 61.004 42.914 85.882 95.852 55.563l364.07-208.49c52.938-30.317 52.938-79.473 0-109.79z" fill="#e9e56f" stroke-width="247.7"/>
   </g>
  </g>
 </g>
</svg>
