<?xml version="1.0" encoding="UTF-8"?>
<svg width="111.7mm" height="61.771mm" version="1.1" viewBox="0 0 111.7 61.771" xmlns="http://www.w3.org/2000/svg" xmlns:cc="http://creativecommons.org/ns#" xmlns:dc="http://purl.org/dc/elements/1.1/" xmlns:rdf="http://www.w3.org/1999/02/22-rdf-syntax-ns#">
 <metadata>
  <rdf:RDF>
   <cc:Work rdf:about="">
    <dc:format>image/svg+xml</dc:format>
    <dc:type rdf:resource="http://purl.org/dc/dcmitype/StillImage"/>
    <dc:title/>
   </cc:Work>
  </rdf:RDF>
 </metadata>
 <g transform="translate(-54.518 -208)">
  <ellipse cx="110.37" cy="241.06" rx="55.719" ry="28.573" fill="#1d232d" stroke="#6f8ce9" stroke-width=".26458"/>
  <g fill="none" stroke="#6f8ce9" stroke-width=".26458">
   <ellipse cx="89.639" cy="244.61" rx="22.189" ry="10.366"/>
   <ellipse cx="126.19" cy="244.33" rx="31.433" ry="14.684"/>
   <ellipse cx="99.728" cy="242.2" rx="39.328" ry="15.489"/>
   <ellipse cx="110.37" cy="241.06" rx="52.931" ry="21.247"/>
  </g>
  <g fill="#e8eaec" stroke-width=".41424px">
   <g aria-label="Identity">
    <path d="m98.3 241.94h0.2667v-2.0828h-0.2667z"/>
    <path d="m98.991 241.17c0 0.51435 0.25082 0.80645 0.63818 0.80645 0.18098 0 0.34608-0.1016 0.46672-0.21908h0.01l0.0222 0.18098h0.2159v-2.2606h-0.26352v0.59372l0.0127 0.26353c-0.13653-0.11113-0.254-0.1778-0.4318-0.1778-0.35242 0-0.66992 0.31115-0.66992 0.8128zm0.26988-3e-3c0-0.35242 0.19685-0.59055 0.4445-0.59055 0.127 0 0.24448 0.0445 0.37465 0.16193v0.80645c-0.127 0.14287-0.25083 0.21272-0.3937 0.21272-0.26988 0-0.42545-0.22225-0.42545-0.59055z"/>
    <path d="m100.75 241.17c0 0.50482 0.32703 0.80645 0.73978 0.80645 0.20955 0 0.37465-0.073 0.508-0.15875l-0.0921-0.17145c-0.1143 0.073-0.23812 0.12065-0.38417 0.12065-0.29528 0-0.4953-0.20955-0.51435-0.54293h1.0414c6e-3 -0.0381 0.01-0.0889 0.01-0.14287 0-0.44133-0.22225-0.7239-0.61595-0.7239-0.35242 0-0.69215 0.30797-0.69215 0.8128zm0.254-0.11748c0.0318-0.31115 0.2286-0.48895 0.4445-0.48895 0.2413 0 0.381 0.17463 0.381 0.48895z"/>
    <path d="m102.44 241.94h0.26035v-1.1176c0.15557-0.15558 0.26352-0.23813 0.42227-0.23813 0.2032 0 0.2921 0.12383 0.2921 0.41275v0.94298h0.26035v-0.9779c0-0.3937-0.14605-0.60325-0.4699-0.60325-0.21272 0-0.37147 0.1143-0.51752 0.26035h-0.01l-0.0222-0.22225h-0.2159z"/>
    <path d="m104.22 241.47c0 0.3048 0.11112 0.51435 0.44132 0.51435 0.0953 0 0.20003-0.0286 0.28575-0.0572l-0.0508-0.19685c-0.0508 0.019-0.12065 0.0413-0.17462 0.0413-0.1778 0-0.23813-0.10795-0.23813-0.29845v-0.85725h0.41593v-0.21272h-0.41593v-0.4318h-0.21907l-0.0318 0.4318-0.2413 0.0159v0.19685h0.2286z"/>
    <path d="m105.38 240.08c0.1016 0 0.18097-0.0699 0.18097-0.16828 0-0.1016-0.0794-0.16827-0.18097-0.16827-0.1016 0-0.18098 0.0667-0.18098 0.16827 0 0.0984 0.0794 0.16828 0.18098 0.16828zm-0.13335 1.8606h0.26035v-1.543h-0.26035z"/>
    <path d="m106.07 241.47c0 0.3048 0.11112 0.51435 0.44132 0.51435 0.0953 0 0.20003-0.0286 0.28575-0.0572l-0.0508-0.19685c-0.0508 0.019-0.12065 0.0413-0.17462 0.0413-0.1778 0-0.23813-0.10795-0.23813-0.29845v-0.85725h0.41593v-0.21272h-0.41593v-0.4318h-0.21907l-0.0318 0.4318-0.2413 0.0159v0.19685h0.2286z"/>
    <path d="m107 242.37-0.0508 0.20637c0.0508 0.019 0.11112 0.0317 0.18097 0.0317 0.31115 0 0.4699-0.23177 0.57785-0.53657l0.58103-1.67h-0.254l-0.27623 0.85407c-0.0413 0.13653-0.0857 0.29528-0.13017 0.43498h-0.0127c-0.0476-0.14288-0.1016-0.30163-0.14923-0.43498l-0.31432-0.85407h-0.26988l0.61913 1.5462-0.0349 0.1143c-0.0635 0.1905-0.17462 0.3302-0.34925 0.3302-0.0381 0-0.0857-0.0127-0.11747-0.0222z"/>
   </g>
   <g aria-label="Rotation">
    <path d="m97.508 246.69h0.34925c0.32385 0 0.50165 0.0984 0.50165 0.37147 0 0.26988-0.1778 0.40323-0.50165 0.40323h-0.34925zm1.1779 1.8701-0.53022-0.90805c0.28258-0.073 0.46672-0.2667 0.46672-0.59055 0-0.4318-0.3048-0.5842-0.72708-0.5842h-0.65405v2.0828h0.2667v-0.87947h0.37465l0.50165 0.87947z"/>
    <path d="m98.91 247.79c0 0.51118 0.33655 0.80645 0.71438 0.80645 0.37783 0 0.71438-0.29527 0.71438-0.80645 0-0.51752-0.33655-0.8128-0.71438-0.8128-0.37782 0-0.71438 0.29528-0.71438 0.8128zm0.26988 0c0-0.3556 0.18098-0.5969 0.4445-0.5969 0.2667 0 0.4445 0.2413 0.4445 0.5969 0 0.35243-0.1778 0.59055-0.4445 0.59055-0.26352 0-0.4445-0.23812-0.4445-0.59055z"/>
    <path d="m100.79 248.08c0 0.3048 0.11113 0.51435 0.44133 0.51435 0.0952 0 0.20002-0.0286 0.28575-0.0572l-0.0508-0.19685c-0.0508 0.0191-0.12065 0.0413-0.17463 0.0413-0.1778 0-0.23812-0.10795-0.23812-0.29845v-0.85725h0.41592v-0.21273h-0.41592v-0.4318h-0.21908l-0.0318 0.4318-0.2413 0.0159v0.19685h0.2286z"/>
    <path d="m101.69 248.16c0 0.27623 0.19367 0.43815 0.45402 0.43815 0.1905 0 0.36195-0.1016 0.51118-0.22225h6e-3l0.0222 0.18415h0.2159v-0.94615c0-0.38417-0.15875-0.635-0.53657-0.635-0.24765 0-0.46355 0.10795-0.60643 0.20003l0.10478 0.18097c0.12065-0.0825 0.2794-0.1651 0.46037-0.1651 0.25083 0 0.3175 0.1905 0.3175 0.38735-0.65722 0.073-0.94932 0.2413-0.94932 0.57785zm0.25717-0.019c0-0.19685 0.17463-0.32385 0.69215-0.38735v0.42863c-0.14922 0.13335-0.27305 0.20637-0.42227 0.20637-0.1524 0-0.26988-0.073-0.26988-0.24765z"/>
    <path d="m103.43 248.08c0 0.3048 0.11113 0.51435 0.44133 0.51435 0.0952 0 0.20002-0.0286 0.28575-0.0572l-0.0508-0.19685c-0.0508 0.0191-0.12065 0.0413-0.17463 0.0413-0.1778 0-0.23812-0.10795-0.23812-0.29845v-0.85725h0.41592v-0.21273h-0.41592v-0.4318h-0.21908l-0.0318 0.4318-0.2413 0.0159v0.19685h0.2286z"/>
    <path d="m104.6 246.7c0.1016 0 0.18097-0.0699 0.18097-0.16827 0-0.1016-0.0794-0.16828-0.18097-0.16828-0.1016 0-0.18098 0.0667-0.18098 0.16828 0 0.0984 0.0794 0.16827 0.18098 0.16827zm-0.13335 1.8606h0.26035v-1.543h-0.26035z"/>
    <path d="m105.13 247.79c0 0.51118 0.33655 0.80645 0.71438 0.80645 0.37782 0 0.71437-0.29527 0.71437-0.80645 0-0.51752-0.33655-0.8128-0.71437-0.8128-0.37783 0-0.71438 0.29528-0.71438 0.8128zm0.26988 0c0-0.3556 0.18097-0.5969 0.4445-0.5969 0.2667 0 0.4445 0.2413 0.4445 0.5969 0 0.35243-0.1778 0.59055-0.4445 0.59055-0.26353 0-0.4445-0.23812-0.4445-0.59055z"/>
    <path d="m106.97 248.56h0.26035v-1.1176c0.15558-0.15557 0.26353-0.23812 0.42228-0.23812 0.2032 0 0.2921 0.12382 0.2921 0.41275v0.94297h0.26035v-0.9779c0-0.3937-0.14605-0.60325-0.4699-0.60325-0.21273 0-0.37148 0.1143-0.51753 0.26035h-0.01l-0.0222-0.22225h-0.2159z"/>
   </g>
   <g aria-label="Isotropic Scaling">
    <path d="m117.88 242.47h0.2667v-2.0828h-0.2667z"/>
    <path d="m118.51 242.3c0.14605 0.12065 0.3556 0.21272 0.57468 0.21272 0.36512 0 0.56515-0.20955 0.56515-0.46037 0-0.2921-0.24765-0.38418-0.4699-0.46673-0.17463-0.0667-0.3429-0.12382-0.3429-0.2667 0-0.11747 0.0889-0.22225 0.28257-0.22225 0.13653 0 0.24765 0.0572 0.35243 0.13653l0.12382-0.1651c-0.11747-0.0952-0.28575-0.17463-0.47942-0.17463-0.33338 0-0.53023 0.1905-0.53023 0.43815 0 0.26035 0.2413 0.36513 0.46038 0.4445 0.16827 0.0635 0.35242 0.13335 0.35242 0.2921 0 0.13335-0.1016 0.2413-0.3048 0.2413-0.18415 0-0.32067-0.0762-0.45402-0.18415z"/>
    <path d="m119.9 241.7c0 0.51118 0.33655 0.80645 0.71438 0.80645 0.37782 0 0.71437-0.29527 0.71437-0.80645 0-0.51752-0.33655-0.8128-0.71437-0.8128-0.37783 0-0.71438 0.29528-0.71438 0.8128zm0.26988 0c0-0.3556 0.18097-0.5969 0.4445-0.5969 0.2667 0 0.4445 0.2413 0.4445 0.5969 0 0.35243-0.1778 0.59055-0.4445 0.59055-0.26353 0-0.4445-0.23812-0.4445-0.59055z"/>
    <path d="m121.78 242c0 0.3048 0.11112 0.51435 0.44132 0.51435 0.0952 0 0.20003-0.0286 0.28575-0.0572l-0.0508-0.19685c-0.0508 0.0191-0.12065 0.0413-0.17462 0.0413-0.1778 0-0.23813-0.10795-0.23813-0.29845v-0.85725h0.41593v-0.21273h-0.41593v-0.4318h-0.21907l-0.0317 0.4318-0.2413 0.0159v0.19685h0.2286z"/>
    <path d="m122.81 242.47h0.26035v-0.9906c0.10478-0.26035 0.26035-0.3556 0.39053-0.3556 0.0635 0 0.0984 0.01 0.14922 0.0254l0.0508-0.2286c-0.0508-0.0222-0.0984-0.0318-0.1651-0.0318-0.17462 0-0.33337 0.12383-0.43815 0.3175h-0.01l-0.0222-0.2794h-0.2159z"/>
    <path d="m123.77 241.7c0 0.51118 0.33655 0.80645 0.71438 0.80645 0.37782 0 0.71437-0.29527 0.71437-0.80645 0-0.51752-0.33655-0.8128-0.71437-0.8128-0.37783 0-0.71438 0.29528-0.71438 0.8128zm0.26988 0c0-0.3556 0.18097-0.5969 0.4445-0.5969 0.2667 0 0.4445 0.2413 0.4445 0.5969 0 0.35243-0.1778 0.59055-0.4445 0.59055-0.26353 0-0.4445-0.23812-0.4445-0.59055z"/>
    <path d="m125.86 242.33c0.14287 0.11113 0.28575 0.1778 0.42862 0.1778 0.35243 0 0.66675-0.30797 0.66675-0.83185 0-0.47942-0.21272-0.7874-0.6096-0.7874-0.18097 0-0.35242 0.0984-0.49212 0.2159h-0.01l-0.0222-0.1778h-0.2159v2.1939h0.26035v-0.5207zm6e-3 -0.2032v-0.80962c0.1524-0.13653 0.28257-0.20955 0.41275-0.20955 0.2921 0 0.4064 0.2286 0.4064 0.56832 0 0.381-0.18733 0.61278-0.44133 0.61278-0.1016 0-0.23812-0.0444-0.37782-0.16193z"/>
    <path d="m127.5 240.61c0.1016 0 0.18098-0.0699 0.18098-0.16827 0-0.1016-0.0794-0.16828-0.18098-0.16828-0.1016 0-0.18097 0.0667-0.18097 0.16828 0 0.0984 0.0794 0.16827 0.18097 0.16827zm-0.13335 1.8606h0.26035v-1.543h-0.26035z"/>
    <path d="m128.04 241.7c0 0.51118 0.31432 0.80645 0.7239 0.80645 0.18415 0 0.36195-0.0762 0.50165-0.20002l-0.11748-0.17145c-0.0921 0.0825-0.2159 0.15557-0.36195 0.15557-0.28257 0-0.47625-0.23812-0.47625-0.59055 0-0.3556 0.2032-0.5969 0.4826-0.5969 0.12383 0 0.21908 0.0572 0.31115 0.13653l0.13018-0.16828c-0.10478-0.0984-0.24765-0.18415-0.45085-0.18415-0.39688 0-0.74295 0.29528-0.74295 0.8128z"/>
    <path d="m117.73 246.17c0.18097 0.18732 0.43497 0.30797 0.72707 0.30797 0.43815 0 0.7112-0.26352 0.7112-0.59372 0-0.30798-0.18732-0.45085-0.42862-0.55563l-0.29845-0.127c-0.16193-0.0699-0.34608-0.14605-0.34608-0.34607 0-0.18733 0.15558-0.3048 0.39053-0.3048 0.1905 0 0.34607 0.0762 0.47307 0.19685l0.1397-0.17145c-0.14605-0.1524-0.36512-0.25718-0.61277-0.25718-0.37783 0-0.65723 0.23495-0.65723 0.55245 0 0.3048 0.2286 0.45403 0.42228 0.53658l0.29845 0.13017c0.19685 0.0889 0.34925 0.15558 0.34925 0.3683 0 0.2032-0.16193 0.33973-0.43498 0.33973-0.21907 0-0.42545-0.10478-0.57467-0.26035z"/>
    <path d="m119.43 245.67c0 0.51118 0.31433 0.80645 0.7239 0.80645 0.18415 0 0.36195-0.0762 0.50165-0.20002l-0.11747-0.17145c-0.0921 0.0825-0.2159 0.15557-0.36195 0.15557-0.28258 0-0.47625-0.23812-0.47625-0.59055 0-0.3556 0.2032-0.5969 0.4826-0.5969 0.12382 0 0.21907 0.0572 0.31115 0.13653l0.13017-0.16828c-0.10477-0.0984-0.24765-0.18415-0.45085-0.18415-0.39687 0-0.74295 0.29528-0.74295 0.8128z"/>
    <path d="m120.88 246.04c0 0.27623 0.19368 0.43815 0.45403 0.43815 0.1905 0 0.36195-0.1016 0.51117-0.22225h6e-3l0.0222 0.18415h0.2159v-0.94615c0-0.38417-0.15875-0.635-0.53658-0.635-0.24765 0-0.46355 0.10795-0.60642 0.20003l0.10477 0.18097c0.12065-0.0825 0.2794-0.1651 0.46038-0.1651 0.25082 0 0.3175 0.1905 0.3175 0.38735-0.65723 0.073-0.94933 0.2413-0.94933 0.57785zm0.25718-0.019c0-0.19685 0.17462-0.32385 0.69215-0.38735v0.42863c-0.14923 0.13335-0.27305 0.20637-0.42228 0.20637-0.1524 0-0.26987-0.073-0.26987-0.24765z"/>
    <path d="m122.58 246.13c0 0.22543 0.0794 0.34925 0.27622 0.34925 0.0699 0 0.1143-0.01 0.14923-0.0254l-0.0349-0.19685c-0.0286 6e-3 -0.0413 6e-3 -0.0571 6e-3 -0.0381 0-0.073-0.0318-0.073-0.1143v-1.9685h-0.26035z"/>
    <path d="m123.53 244.58c0.1016 0 0.18098-0.0699 0.18098-0.16827 0-0.1016-0.0794-0.16828-0.18098-0.16828-0.1016 0-0.18097 0.0667-0.18097 0.16828 0 0.0984 0.0794 0.16827 0.18097 0.16827zm-0.13335 1.8606h0.26035v-1.543h-0.26035z"/>
    <path d="m124.18 246.44h0.26035v-1.1176c0.15557-0.15557 0.26352-0.23812 0.42227-0.23812 0.2032 0 0.2921 0.12382 0.2921 0.41275v0.94297h0.26035v-0.9779c0-0.3937-0.14605-0.60325-0.4699-0.60325-0.21272 0-0.37147 0.1143-0.51752 0.26035h-0.01l-0.0222-0.22225h-0.2159z"/>
    <path d="m126.02 246.7c0-0.0889 0.0476-0.18097 0.15875-0.26035 0.0667 0.019 0.1397 0.0254 0.20003 0.0254h0.2667c0.20002 0 0.31115 0.0476 0.31115 0.1905 0 0.16193-0.19368 0.31433-0.48895 0.31433-0.2794 0-0.44768-0.10478-0.44768-0.26988zm-0.2286 0.0349c0 0.2667 0.26035 0.41592 0.63818 0.41592 0.47942 0 0.78105-0.24765 0.78105-0.5334 0-0.25717-0.18098-0.3683-0.53975-0.3683h-0.29845c-0.20955 0-0.27305-0.0699-0.27305-0.16827 0-0.0857 0.0444-0.13653 0.0984-0.18415 0.0699 0.0349 0.15558 0.054 0.23178 0.054 0.31432 0 0.56515-0.20637 0.56515-0.53657 0-0.13018-0.054-0.24765-0.127-0.3175h0.3175v-0.20003h-0.53658c-0.0572-0.0222-0.13335-0.0381-0.21907-0.0381-0.31433 0-0.58103 0.21273-0.58103 0.54928 0 0.18415 0.0984 0.33337 0.20003 0.41592v0.0127c-0.0794 0.054-0.16828 0.15558-0.16828 0.28575 0 0.12065 0.0603 0.2032 0.13653 0.25083v0.0127c-0.1397 0.0952-0.22543 0.21907-0.22543 0.34925zm0.63818-0.95885c-0.1778 0-0.32703-0.14288-0.32703-0.3683 0-0.22543 0.14605-0.35878 0.32703-0.35878 0.18097 0 0.32702 0.13335 0.32702 0.35878 0 0.22542-0.14922 0.3683-0.32702 0.3683z"/>
   </g>
   <g aria-label="Scaling Reflection Shear">
    <path d="m141.28 240.35c0.18097 0.18732 0.43497 0.30797 0.72707 0.30797 0.43815 0 0.7112-0.26352 0.7112-0.59372 0-0.30798-0.18732-0.45085-0.42862-0.55563l-0.29845-0.127c-0.16193-0.0699-0.34608-0.14605-0.34608-0.34607 0-0.18733 0.15558-0.3048 0.39053-0.3048 0.1905 0 0.34607 0.0762 0.47307 0.19685l0.1397-0.17145c-0.14605-0.1524-0.36512-0.25718-0.61277-0.25718-0.37783 0-0.65723 0.23495-0.65723 0.55245 0 0.3048 0.2286 0.45403 0.42228 0.53658l0.29845 0.13017c0.19685 0.0889 0.34925 0.15558 0.34925 0.3683 0 0.2032-0.16193 0.33973-0.43498 0.33973-0.21907 0-0.42545-0.10478-0.57467-0.26035z"/>
    <path d="m142.98 239.85c0 0.51118 0.31432 0.80645 0.7239 0.80645 0.18415 0 0.36195-0.0762 0.50165-0.20002l-0.11748-0.17145c-0.0921 0.0825-0.2159 0.15557-0.36195 0.15557-0.28257 0-0.47625-0.23812-0.47625-0.59055 0-0.3556 0.2032-0.5969 0.4826-0.5969 0.12383 0 0.21908 0.0572 0.31115 0.13653l0.13018-0.16828c-0.10478-0.0984-0.24765-0.18415-0.45085-0.18415-0.39688 0-0.74295 0.29528-0.74295 0.8128z"/>
    <path d="m144.43 240.22c0 0.27623 0.19368 0.43815 0.45403 0.43815 0.1905 0 0.36195-0.1016 0.51117-0.22225h6e-3l0.0222 0.18415h0.2159v-0.94615c0-0.38417-0.15875-0.635-0.53658-0.635-0.24765 0-0.46355 0.10795-0.60642 0.20003l0.10477 0.18097c0.12065-0.0825 0.2794-0.1651 0.46038-0.1651 0.25082 0 0.3175 0.1905 0.3175 0.38735-0.65723 0.073-0.94933 0.2413-0.94933 0.57785zm0.25718-0.019c0-0.19685 0.17462-0.32385 0.69215-0.38735v0.42863c-0.14923 0.13335-0.27305 0.20637-0.42228 0.20637-0.1524 0-0.26987-0.073-0.26987-0.24765z"/>
    <path d="m146.13 240.31c0 0.22543 0.0794 0.34925 0.27623 0.34925 0.0699 0 0.1143-0.01 0.14922-0.0254l-0.0349-0.19685c-0.0286 6e-3 -0.0413 6e-3 -0.0571 6e-3 -0.0381 0-0.073-0.0318-0.073-0.1143v-1.9685h-0.26035z"/>
    <path d="m147.08 238.76c0.1016 0 0.18098-0.0699 0.18098-0.16827 0-0.1016-0.0794-0.16828-0.18098-0.16828-0.1016 0-0.18097 0.0667-0.18097 0.16828 0 0.0984 0.0794 0.16827 0.18097 0.16827zm-0.13335 1.8606h0.26035v-1.543h-0.26035z"/>
    <path d="m147.72 240.62h0.26035v-1.1176c0.15558-0.15557 0.26353-0.23812 0.42228-0.23812 0.2032 0 0.2921 0.12382 0.2921 0.41275v0.94297h0.26035v-0.9779c0-0.3937-0.14605-0.60325-0.4699-0.60325-0.21273 0-0.37148 0.1143-0.51753 0.26035h-0.01l-0.0222-0.22225h-0.2159z"/>
    <path d="m149.57 240.88c0-0.0889 0.0476-0.18097 0.15875-0.26035 0.0667 0.019 0.1397 0.0254 0.20003 0.0254h0.2667c0.20002 0 0.31115 0.0476 0.31115 0.1905 0 0.16193-0.19368 0.31433-0.48895 0.31433-0.2794 0-0.44768-0.10478-0.44768-0.26988zm-0.2286 0.0349c0 0.2667 0.26035 0.41592 0.63818 0.41592 0.47942 0 0.78105-0.24765 0.78105-0.5334 0-0.25717-0.18098-0.3683-0.53975-0.3683h-0.29845c-0.20955 0-0.27305-0.0699-0.27305-0.16827 0-0.0857 0.0444-0.13653 0.0984-0.18415 0.0699 0.0349 0.15558 0.054 0.23178 0.054 0.31432 0 0.56515-0.20637 0.56515-0.53657 0-0.13018-0.054-0.24765-0.127-0.3175h0.3175v-0.20003h-0.53658c-0.0571-0.0222-0.13335-0.0381-0.21907-0.0381-0.31433 0-0.58103 0.21273-0.58103 0.54928 0 0.18415 0.0984 0.33337 0.20003 0.41592v0.0127c-0.0794 0.054-0.16828 0.15558-0.16828 0.28575 0 0.12065 0.0603 0.2032 0.13653 0.25083v0.0127c-0.1397 0.0952-0.22543 0.21907-0.22543 0.34925zm0.63818-0.95885c-0.1778 0-0.32703-0.14288-0.32703-0.3683 0-0.22543 0.14605-0.35878 0.32703-0.35878 0.18097 0 0.32702 0.13335 0.32702 0.35878 0 0.22542-0.14922 0.3683-0.32702 0.3683z"/>
    <path d="m141.69 242.72h0.34925c0.32385 0 0.50165 0.0984 0.50165 0.37147 0 0.26988-0.1778 0.40323-0.50165 0.40323h-0.34925zm1.1779 1.8701-0.53023-0.90805c0.28258-0.073 0.46673-0.2667 0.46673-0.59055 0-0.4318-0.3048-0.5842-0.72708-0.5842h-0.65405v2.0828h0.2667v-0.87947h0.37465l0.50165 0.87947z"/>
    <path d="m143.09 243.82c0 0.50483 0.32702 0.80645 0.73977 0.80645 0.20955 0 0.37465-0.073 0.508-0.15875l-0.0921-0.17145c-0.1143 0.073-0.23813 0.12065-0.38418 0.12065-0.29527 0-0.4953-0.20955-0.51435-0.54292h1.0414c6e-3 -0.0381 0.01-0.0889 0.01-0.14288 0-0.44132-0.22225-0.7239-0.61595-0.7239-0.35243 0-0.69215 0.30798-0.69215 0.8128zm0.254-0.11747c0.0317-0.31115 0.2286-0.48895 0.4445-0.48895 0.2413 0 0.381 0.17462 0.381 0.48895z"/>
    <path d="m145.54 242.34c-0.0698-0.0286-0.16192-0.0508-0.25717-0.0508-0.30798 0-0.45085 0.19685-0.45085 0.51118v0.24447l-0.20955 0.0159v0.19685h0.20955v1.3303h0.26035v-1.3303h0.32702v-0.21273h-0.32702v-0.24447c0-0.19685 0.0699-0.29845 0.2159-0.29845 0.0572 0 0.11747 0.0127 0.17462 0.0381z"/>
    <path d="m145.71 244.28c0 0.22543 0.0794 0.34925 0.27623 0.34925 0.0699 0 0.1143-0.01 0.14922-0.0254l-0.0349-0.19685c-0.0286 6e-3 -0.0413 6e-3 -0.0571 6e-3 -0.0381 0-0.073-0.0318-0.073-0.1143v-1.9685h-0.26035z"/>
    <path d="m146.41 243.82c0 0.50483 0.32702 0.80645 0.73977 0.80645 0.20955 0 0.37465-0.073 0.508-0.15875l-0.0921-0.17145c-0.1143 0.073-0.23813 0.12065-0.38418 0.12065-0.29527 0-0.4953-0.20955-0.51435-0.54292h1.0414c6e-3 -0.0381 0.01-0.0889 0.01-0.14288 0-0.44132-0.22225-0.7239-0.61595-0.7239-0.35243 0-0.69215 0.30798-0.69215 0.8128zm0.254-0.11747c0.0318-0.31115 0.2286-0.48895 0.4445-0.48895 0.2413 0 0.381 0.17462 0.381 0.48895z"/>
    <path d="m147.99 243.82c0 0.51118 0.31433 0.80645 0.7239 0.80645 0.18415 0 0.36195-0.0762 0.50165-0.20002l-0.11747-0.17145c-0.0921 0.0825-0.2159 0.15557-0.36195 0.15557-0.28258 0-0.47625-0.23812-0.47625-0.59055 0-0.3556 0.2032-0.5969 0.4826-0.5969 0.12382 0 0.21907 0.0572 0.31115 0.13653l0.13017-0.16828c-0.10477-0.0984-0.24765-0.18415-0.45085-0.18415-0.39687 0-0.74295 0.29528-0.74295 0.8128z"/>
    <path d="m149.59 244.11c0 0.3048 0.11112 0.51435 0.44132 0.51435 0.0953 0 0.20003-0.0286 0.28575-0.0572l-0.0508-0.19685c-0.0508 0.0191-0.12065 0.0413-0.17462 0.0413-0.1778 0-0.23813-0.10795-0.23813-0.29845v-0.85725h0.41593v-0.21273h-0.41593v-0.4318h-0.21907l-0.0318 0.4318-0.2413 0.0159v0.19685h0.2286z"/>
    <path d="m150.75 242.73c0.1016 0 0.18097-0.0699 0.18097-0.16827 0-0.1016-0.0794-0.16828-0.18097-0.16828-0.1016 0-0.18098 0.0667-0.18098 0.16828 0 0.0984 0.0794 0.16827 0.18098 0.16827zm-0.13335 1.8606h0.26035v-1.543h-0.26035z"/>
    <path d="m151.29 243.82c0 0.51118 0.33655 0.80645 0.71437 0.80645 0.37783 0 0.71438-0.29527 0.71438-0.80645 0-0.51752-0.33655-0.8128-0.71438-0.8128-0.37782 0-0.71437 0.29528-0.71437 0.8128zm0.26987 0c0-0.3556 0.18098-0.5969 0.4445-0.5969 0.2667 0 0.4445 0.2413 0.4445 0.5969 0 0.35243-0.1778 0.59055-0.4445 0.59055-0.26352 0-0.4445-0.23812-0.4445-0.59055z"/>
    <path d="m153.12 244.59h0.26035v-1.1176c0.15558-0.15557 0.26353-0.23812 0.42228-0.23812 0.2032 0 0.2921 0.12382 0.2921 0.41275v0.94297h0.26035v-0.9779c0-0.3937-0.14605-0.60325-0.4699-0.60325-0.21273 0-0.37148 0.1143-0.51753 0.26035h-0.01l-0.0222-0.22225h-0.2159z"/>
    <path d="m141.28 248.29c0.18097 0.18732 0.43497 0.30797 0.72707 0.30797 0.43815 0 0.7112-0.26352 0.7112-0.59372 0-0.30798-0.18732-0.45085-0.42862-0.55563l-0.29845-0.127c-0.16193-0.0699-0.34608-0.14605-0.34608-0.34607 0-0.18733 0.15558-0.3048 0.39053-0.3048 0.1905 0 0.34607 0.0762 0.47307 0.19685l0.1397-0.17145c-0.14605-0.1524-0.36512-0.25718-0.61277-0.25718-0.37783 0-0.65723 0.23495-0.65723 0.55245 0 0.3048 0.2286 0.45403 0.42228 0.53658l0.29845 0.13017c0.19685 0.0889 0.34925 0.15558 0.34925 0.3683 0 0.2032-0.16193 0.33973-0.43498 0.33973-0.21907 0-0.42545-0.10478-0.57467-0.26035z"/>
    <path d="m143.09 248.56h0.26035v-1.1176c0.15557-0.15557 0.26352-0.23812 0.42227-0.23812 0.2032 0 0.2921 0.12382 0.2921 0.41275v0.94297h0.26035v-0.9779c0-0.3937-0.14605-0.60325-0.4699-0.60325-0.21272 0-0.3683 0.1143-0.51435 0.254l0.01-0.3175v-0.61595h-0.26035z"/>
    <path d="m144.71 247.79c0 0.50483 0.32703 0.80645 0.73978 0.80645 0.20955 0 0.37465-0.073 0.508-0.15875l-0.0921-0.17145c-0.1143 0.073-0.23812 0.12065-0.38417 0.12065-0.29528 0-0.4953-0.20955-0.51435-0.54292h1.0414c6e-3 -0.0381 0.01-0.0889 0.01-0.14288 0-0.44132-0.22225-0.7239-0.61595-0.7239-0.35242 0-0.69215 0.30798-0.69215 0.8128zm0.254-0.11747c0.0318-0.31115 0.2286-0.48895 0.4445-0.48895 0.2413 0 0.381 0.17462 0.381 0.48895z"/>
    <path d="m146.28 248.16c0 0.27623 0.19368 0.43815 0.45403 0.43815 0.1905 0 0.36195-0.1016 0.51117-0.22225h6e-3l0.0222 0.18415h0.2159v-0.94615c0-0.38417-0.15875-0.635-0.53658-0.635-0.24765 0-0.46355 0.10795-0.60642 0.20003l0.10477 0.18097c0.12065-0.0825 0.2794-0.1651 0.46038-0.1651 0.25082 0 0.3175 0.1905 0.3175 0.38735-0.65723 0.073-0.94933 0.2413-0.94933 0.57785zm0.25718-0.019c0-0.19685 0.17462-0.32385 0.69215-0.38735v0.42863c-0.14923 0.13335-0.27305 0.20637-0.42228 0.20637-0.1524 0-0.26987-0.073-0.26987-0.24765z"/>
    <path d="m147.98 248.56h0.26035v-0.9906c0.10477-0.26035 0.26035-0.3556 0.39052-0.3556 0.0635 0 0.0984 0.01 0.14923 0.0254l0.0508-0.2286c-0.0508-0.0222-0.0984-0.0318-0.1651-0.0318-0.17463 0-0.33338 0.12383-0.43815 0.3175h-0.01l-0.0222-0.2794h-0.2159z"/>
   </g>
   <g aria-label="Translation">
    <path d="m75.451 245.38h0.26352v-1.8606h0.63182v-0.22225h-1.5272v0.22225h0.63182z"/>
    <path d="m76.538 245.38h0.26035v-0.9906c0.10478-0.26035 0.26035-0.3556 0.39052-0.3556 0.0635 0 0.09843 0.01 0.14922 0.0254l0.0508-0.2286c-0.0508-0.0222-0.09843-0.0317-0.1651-0.0317-0.17462 0-0.33338 0.12383-0.43815 0.3175h-0.0095l-0.02222-0.2794h-0.2159z"/>
    <path d="m77.485 244.98c0 0.27623 0.19368 0.43815 0.45402 0.43815 0.1905 0 0.36195-0.1016 0.51118-0.22225h0.0063l0.02223 0.18415h0.2159v-0.94615c0-0.38417-0.15875-0.635-0.53658-0.635-0.24765 0-0.46355 0.10795-0.60642 0.20003l0.10478 0.18097c0.12065-0.0825 0.2794-0.1651 0.46038-0.1651 0.25082 0 0.3175 0.1905 0.3175 0.38735-0.65722 0.073-0.94932 0.2413-0.94932 0.57785zm0.25718-0.019c0-0.19685 0.17462-0.32385 0.69215-0.38735v0.42863c-0.14922 0.13335-0.27305 0.20637-0.42228 0.20637-0.1524 0-0.26988-0.073-0.26988-0.24765z"/>
    <path d="m79.186 245.38h0.26035v-1.1176c0.15558-0.15557 0.26352-0.23812 0.42228-0.23812 0.2032 0 0.2921 0.12382 0.2921 0.41275v0.94297h0.26035v-0.9779c0-0.3937-0.14605-0.60325-0.4699-0.60325-0.21272 0-0.37148 0.1143-0.51752 0.26035h-0.0095l-0.02223-0.22225h-0.2159z"/>
    <path d="m80.751 245.21c0.14605 0.12065 0.3556 0.21272 0.57468 0.21272 0.36512 0 0.56515-0.20955 0.56515-0.46037 0-0.2921-0.24765-0.38418-0.4699-0.46673-0.17462-0.0667-0.3429-0.12382-0.3429-0.2667 0-0.11747 0.0889-0.22225 0.28258-0.22225 0.13652 0 0.24765 0.0571 0.35242 0.13653l0.12382-0.1651c-0.11748-0.0953-0.28575-0.17463-0.47942-0.17463-0.33338 0-0.53022 0.1905-0.53022 0.43815 0 0.26035 0.2413 0.36513 0.46038 0.4445 0.16828 0.0635 0.35242 0.13335 0.35242 0.2921 0 0.13335-0.1016 0.2413-0.3048 0.2413-0.18415 0-0.32068-0.0762-0.45402-0.18415z"/>
    <path d="m82.256 245.07c0 0.22543 0.07937 0.34925 0.27622 0.34925 0.06985 0 0.1143-0.01 0.14922-0.0254l-0.03493-0.19685c-0.02858 6e-3 -0.04127 6e-3 -0.05715 6e-3 -0.0381 0-0.07303-0.0317-0.07303-0.1143v-1.9685h-0.26035z"/>
    <path d="m82.992 244.98c0 0.27623 0.19368 0.43815 0.45402 0.43815 0.1905 0 0.36195-0.1016 0.51118-0.22225h0.0063l0.02223 0.18415h0.2159v-0.94615c0-0.38417-0.15875-0.635-0.53658-0.635-0.24765 0-0.46355 0.10795-0.60642 0.20003l0.10478 0.18097c0.12065-0.0825 0.2794-0.1651 0.46038-0.1651 0.25082 0 0.3175 0.1905 0.3175 0.38735-0.65722 0.073-0.94932 0.2413-0.94932 0.57785zm0.25718-0.019c0-0.19685 0.17462-0.32385 0.69215-0.38735v0.42863c-0.14922 0.13335-0.27305 0.20637-0.42228 0.20637-0.1524 0-0.26988-0.073-0.26988-0.24765z"/>
    <path d="m84.737 244.91c0 0.3048 0.11112 0.51435 0.44132 0.51435 0.09525 0 0.20002-0.0286 0.28575-0.0572l-0.0508-0.19685c-0.0508 0.019-0.12065 0.0413-0.17462 0.0413-0.1778 0-0.23812-0.10795-0.23812-0.29845v-0.85725h0.41592v-0.21273h-0.41592v-0.4318h-0.21908l-0.03175 0.4318-0.2413 0.0159v0.19685h0.2286z"/>
    <path d="m85.899 243.52c0.1016 0 0.18098-0.0699 0.18098-0.16827 0-0.1016-0.07937-0.16828-0.18098-0.16828-0.1016 0-0.18098 0.0667-0.18098 0.16828 0 0.0984 0.07937 0.16827 0.18098 0.16827zm-0.13335 1.8606h0.26035v-1.543h-0.26035z"/>
    <path d="m86.433 244.61c0 0.51118 0.33655 0.80645 0.71438 0.80645s0.71438-0.29527 0.71438-0.80645c0-0.51752-0.33655-0.8128-0.71438-0.8128s-0.71438 0.29528-0.71438 0.8128zm0.26988 0c0-0.3556 0.18098-0.5969 0.4445-0.5969 0.2667 0 0.4445 0.2413 0.4445 0.5969 0 0.35243-0.1778 0.59055-0.4445 0.59055-0.26352 0-0.4445-0.23812-0.4445-0.59055z"/>
    <path d="m88.271 245.38h0.26035v-1.1176c0.15558-0.15557 0.26352-0.23812 0.42228-0.23812 0.2032 0 0.2921 0.12382 0.2921 0.41275v0.94297h0.26035v-0.9779c0-0.3937-0.14605-0.60325-0.4699-0.60325-0.21272 0-0.37148 0.1143-0.51752 0.26035h-0.0095l-0.02222-0.22225h-0.2159z"/>
   </g>
   <g aria-label="Projective">
    <path d="m103.77 210.19h0.2667v-0.8255h0.37465c0.45403 0 0.76835-0.20637 0.76835-0.64452 0-0.4572-0.30797-0.61278-0.76835-0.61278h-0.64135zm0.2667-1.0414v-0.82867h0.33973c0.35877 0 0.53975 0.0984 0.53975 0.40005 0 0.29527-0.17463 0.42862-0.53975 0.42862z"/>
    <path d="m105.56 210.19h0.26035v-0.9906c0.10478-0.26035 0.26035-0.3556 0.39053-0.3556 0.0635 0 0.0984 0.01 0.14922 0.0254l0.0508-0.2286c-0.0508-0.0222-0.0984-0.0318-0.1651-0.0318-0.17462 0-0.33337 0.12383-0.43815 0.3175h-0.01l-0.0222-0.2794h-0.2159z"/>
    <path d="m106.52 209.42c0 0.51118 0.33655 0.80645 0.71438 0.80645 0.37782 0 0.71437-0.29527 0.71437-0.80645 0-0.51752-0.33655-0.8128-0.71437-0.8128-0.37783 0-0.71438 0.29528-0.71438 0.8128zm0.26988 0c0-0.3556 0.18097-0.5969 0.4445-0.5969 0.2667 0 0.4445 0.2413 0.4445 0.5969 0 0.35243-0.1778 0.59055-0.4445 0.59055-0.26353 0-0.4445-0.23812-0.4445-0.59055z"/>
    <path d="m108.36 210.37c0 0.18732-0.0381 0.30162-0.1905 0.30162-0.054 0-0.10795-0.0127-0.14605-0.0254l-0.054 0.19685c0.054 0.0222 0.13335 0.0413 0.2286 0.0413 0.30798 0 0.42228-0.20003 0.42228-0.51435v-1.7177h-0.26035zm0.13335-2.0352c0.0984 0 0.1778-0.0699 0.1778-0.16827 0-0.1016-0.0794-0.16828-0.1778-0.16828-0.1016 0-0.18098 0.0667-0.18098 0.16828 0 0.0984 0.0794 0.16827 0.18098 0.16827z"/>
    <path d="m109.03 209.42c0 0.50483 0.32702 0.80645 0.73977 0.80645 0.20955 0 0.37465-0.073 0.508-0.15875l-0.0921-0.17145c-0.1143 0.073-0.23813 0.12065-0.38418 0.12065-0.29527 0-0.4953-0.20955-0.51435-0.54292h1.0414c6e-3 -0.0381 0.01-0.0889 0.01-0.14288 0-0.44132-0.22225-0.7239-0.61595-0.7239-0.35243 0-0.69215 0.30798-0.69215 0.8128zm0.254-0.11747c0.0317-0.31115 0.2286-0.48895 0.4445-0.48895 0.2413 0 0.381 0.17462 0.381 0.48895z"/>
    <path d="m110.6 209.42c0 0.51118 0.31432 0.80645 0.7239 0.80645 0.18415 0 0.36195-0.0762 0.50165-0.20002l-0.11748-0.17145c-0.0921 0.0825-0.2159 0.15557-0.36195 0.15557-0.28257 0-0.47625-0.23812-0.47625-0.59055 0-0.3556 0.2032-0.5969 0.4826-0.5969 0.12383 0 0.21908 0.0572 0.31115 0.13653l0.13018-0.16828c-0.10478-0.0984-0.24765-0.18415-0.45085-0.18415-0.39688 0-0.74295 0.29528-0.74295 0.8128z"/>
    <path d="m112.21 209.72c0 0.3048 0.11112 0.51435 0.44132 0.51435 0.0952 0 0.20003-0.0286 0.28575-0.0571l-0.0508-0.19685c-0.0508 0.019-0.12065 0.0413-0.17462 0.0413-0.1778 0-0.23813-0.10795-0.23813-0.29845v-0.85725h0.41593v-0.21273h-0.41593v-0.4318h-0.21907l-0.0318 0.4318-0.2413 0.0159v0.19685h0.2286z"/>
    <path d="m113.37 208.33c0.1016 0 0.18098-0.0699 0.18098-0.16827 0-0.1016-0.0794-0.16828-0.18098-0.16828-0.1016 0-0.18097 0.0667-0.18097 0.16828 0 0.0984 0.0794 0.16827 0.18097 0.16827zm-0.13335 1.8606h0.26035v-1.543h-0.26035z"/>
    <path d="m114.35 210.19h0.3048l0.5461-1.543h-0.25717l-0.2921 0.8763c-0.0444 0.1524-0.0952 0.30798-0.1397 0.45403h-0.0127c-0.0476-0.14605-0.0984-0.30163-0.14288-0.45403l-0.2921-0.8763h-0.26987z"/>
    <path d="m115.37 209.42c0 0.50483 0.32702 0.80645 0.73977 0.80645 0.20955 0 0.37465-0.073 0.508-0.15875l-0.0921-0.17145c-0.1143 0.073-0.23813 0.12065-0.38418 0.12065-0.29527 0-0.4953-0.20955-0.51435-0.54292h1.0414c6e-3 -0.0381 0.01-0.0889 0.01-0.14288 0-0.44132-0.22225-0.7239-0.61595-0.7239-0.35243 0-0.69215 0.30798-0.69215 0.8128zm0.254-0.11747c0.0318-0.31115 0.2286-0.48895 0.4445-0.48895 0.2413 0 0.381 0.17462 0.381 0.48895z"/>
   </g>
   <g aria-label="Affine">
    <path d="m107.03 217.28 0.1016-0.3175c0.073-0.23177 0.1397-0.46037 0.20637-0.70167h0.0127c0.0667 0.2413 0.13335 0.4699 0.20638 0.70167l0.0984 0.3175zm0.89217 0.84773h0.2794l-0.70485-2.0828h-0.29845l-0.70485 2.0828h0.26988l0.20002-0.635h0.75883z"/>
    <path d="m110.08 215.88c-0.0699-0.0286-0.16192-0.0508-0.25717-0.0508-0.30798 0-0.45085 0.19685-0.45085 0.51117v0.24448h-0.64135v-0.19685c0-0.2032 0.0889-0.31433 0.2413-0.31433 0.0762 0 0.1397 0.0127 0.20637 0.0413l0.054-0.19685c-0.0762-0.0349-0.18098-0.0572-0.28258-0.0572-0.32067 0-0.47942 0.20002-0.47942 0.5207v0.2032l-0.20955 0.0159v0.19685h0.20955v1.3303h0.26035v-1.3303h0.64135v1.3303h0.26035v-1.3303h0.32702v-0.21272h-0.32702v-0.24448c0-0.19685 0.073-0.29845 0.21907-0.29845 0.054 0 0.1143 0.0127 0.17463 0.0381z"/>
    <path d="m110.38 216.27c0.1016 0 0.18098-0.0699 0.18098-0.16828 0-0.1016-0.0794-0.16827-0.18098-0.16827-0.1016 0-0.18097 0.0667-0.18097 0.16827 0 0.0984 0.0794 0.16828 0.18097 0.16828zm-0.13335 1.8606h0.26035v-1.543h-0.26035z"/>
    <path d="m111.03 218.13h0.26035v-1.1176c0.15557-0.15558 0.26352-0.23813 0.42227-0.23813 0.2032 0 0.2921 0.12383 0.2921 0.41275v0.94298h0.26035v-0.9779c0-0.3937-0.14605-0.60325-0.4699-0.60325-0.21272 0-0.37147 0.1143-0.51752 0.26035h-0.01l-0.0222-0.22225h-0.2159z"/>
    <path d="m112.65 217.36c0 0.50482 0.32702 0.80645 0.73977 0.80645 0.20955 0 0.37465-0.073 0.508-0.15875l-0.0921-0.17145c-0.1143 0.073-0.23813 0.12065-0.38418 0.12065-0.29527 0-0.4953-0.20955-0.51435-0.54293h1.0414c6e-3 -0.0381 0.01-0.0889 0.01-0.14287 0-0.44133-0.22225-0.7239-0.61595-0.7239-0.35243 0-0.69215 0.30797-0.69215 0.8128zm0.254-0.11748c0.0317-0.31115 0.2286-0.48895 0.4445-0.48895 0.2413 0 0.381 0.17463 0.381 0.48895z"/>
   </g>
   <g aria-label="Similitudes">
    <path d="m91.271 225c0.18098 0.18732 0.43498 0.30797 0.72708 0.30797 0.43815 0 0.7112-0.26352 0.7112-0.59372 0-0.30798-0.18732-0.45085-0.42862-0.55563l-0.29845-0.127c-0.16192-0.0699-0.34608-0.14605-0.34608-0.34607 0-0.18733 0.15558-0.3048 0.39052-0.3048 0.1905 0 0.34608 0.0762 0.47308 0.19685l0.1397-0.17145c-0.14605-0.1524-0.36512-0.25718-0.61278-0.25718-0.37782 0-0.65722 0.23495-0.65722 0.55245 0 0.3048 0.2286 0.45403 0.42228 0.53658l0.29845 0.13017c0.19685 0.0889 0.34925 0.15558 0.34925 0.3683 0 0.2032-0.16192 0.33973-0.43498 0.33973-0.21908 0-0.42545-0.10478-0.57468-0.26035z"/>
    <path d="m93.219 223.41c0.1016 0 0.18098-0.0699 0.18098-0.16827 0-0.1016-0.07937-0.16828-0.18098-0.16828-0.1016 0-0.18098 0.0667-0.18098 0.16828 0 0.0984 0.07937 0.16827 0.18098 0.16827zm-0.13335 1.8606h0.26035v-1.543h-0.26035z"/>
    <path d="m93.867 225.27h0.26035v-1.1176c0.14288-0.15875 0.27305-0.23812 0.38735-0.23812 0.19685 0 0.28892 0.12382 0.28892 0.41275v0.94297h0.26035v-1.1176c0.14288-0.15875 0.2667-0.23812 0.38735-0.23812 0.19368 0 0.28575 0.12382 0.28575 0.41275v0.94297h0.26035v-0.9779c0-0.3937-0.1524-0.60325-0.4699-0.60325-0.18732 0-0.34608 0.12065-0.508 0.29528-0.0635-0.18415-0.1905-0.29528-0.42545-0.29528-0.18415 0-0.34608 0.1143-0.47942 0.26035h-0.0095l-0.02222-0.22225h-0.2159z"/>
    <path d="m96.629 223.41c0.1016 0 0.18098-0.0699 0.18098-0.16827 0-0.1016-0.07937-0.16828-0.18098-0.16828-0.1016 0-0.18098 0.0667-0.18098 0.16828 0 0.0984 0.07937 0.16827 0.18098 0.16827zm-0.13335 1.8606h0.26035v-1.543h-0.26035z"/>
    <path d="m97.277 224.96c0 0.22543 0.07937 0.34925 0.27622 0.34925 0.06985 0 0.1143-0.01 0.14922-0.0254l-0.03493-0.19685c-0.02858 6e-3 -0.04127 6e-3 -0.05715 6e-3 -0.0381 0-0.07303-0.0317-0.07303-0.1143v-1.9685h-0.26035z"/>
    <path d="m98.223 223.41c0.1016 0 0.18098-0.0699 0.18098-0.16827 0-0.1016-0.07937-0.16828-0.18098-0.16828-0.1016 0-0.18098 0.0667-0.18098 0.16828 0 0.0984 0.07937 0.16827 0.18098 0.16827zm-0.13335 1.8606h0.26035v-1.543h-0.26035z"/>
    <path d="m98.915 224.8c0 0.3048 0.11112 0.51435 0.44132 0.51435 0.09525 0 0.20002-0.0286 0.28575-0.0572l-0.0508-0.19685c-0.0508 0.019-0.12065 0.0413-0.17462 0.0413-0.1778 0-0.23812-0.10795-0.23812-0.29845v-0.85725h0.41592v-0.21273h-0.41592v-0.4318h-0.21908l-0.03175 0.4318-0.2413 0.0159v0.19685h0.2286z"/>
    <path d="m99.903 224.71c0 0.3937 0.14605 0.60325 0.47308 0.60325 0.21272 0 0.36512-0.11112 0.508-0.2794h0.01l0.0222 0.2413h0.2159v-1.543h-0.26035v1.0954c-0.14605 0.18097-0.25718 0.26035-0.41593 0.26035-0.2032 0-0.28892-0.12383-0.28892-0.41275v-0.94298h-0.26353z"/>
    <path d="m101.54 224.51c0 0.51435 0.25083 0.80645 0.63818 0.80645 0.18097 0 0.34607-0.1016 0.46672-0.21907h0.01l0.0222 0.18097h0.2159v-2.2606h-0.26352v0.59373l0.0127 0.26352c-0.13653-0.11112-0.254-0.1778-0.4318-0.1778-0.35243 0-0.66993 0.31115-0.66993 0.8128zm0.26988-3e-3c0-0.35243 0.19685-0.59055 0.4445-0.59055 0.127 0 0.24447 0.0445 0.37465 0.16192v0.80645c-0.127 0.14288-0.25083 0.21273-0.3937 0.21273-0.26988 0-0.42545-0.22225-0.42545-0.59055z"/>
    <path d="m103.3 224.51c0 0.50483 0.32702 0.80645 0.73977 0.80645 0.20955 0 0.37465-0.073 0.508-0.15875l-0.0921-0.17145c-0.1143 0.073-0.23813 0.12065-0.38418 0.12065-0.29527 0-0.4953-0.20955-0.51435-0.54292h1.0414c6e-3 -0.0381 0.01-0.0889 0.01-0.14288 0-0.44132-0.22225-0.7239-0.61595-0.7239-0.35243 0-0.69215 0.30798-0.69215 0.8128zm0.254-0.11747c0.0317-0.31115 0.2286-0.48895 0.4445-0.48895 0.2413 0 0.381 0.17462 0.381 0.48895z"/>
    <path d="m104.82 225.1c0.14605 0.12065 0.3556 0.21272 0.57467 0.21272 0.36513 0 0.56515-0.20955 0.56515-0.46037 0-0.2921-0.24765-0.38418-0.4699-0.46673-0.17462-0.0667-0.3429-0.12382-0.3429-0.2667 0-0.11747 0.0889-0.22225 0.28258-0.22225 0.13652 0 0.24765 0.0572 0.35242 0.13653l0.12383-0.1651c-0.11748-0.0953-0.28575-0.17463-0.47943-0.17463-0.33337 0-0.53022 0.1905-0.53022 0.43815 0 0.26035 0.2413 0.36513 0.46037 0.4445 0.16828 0.0635 0.35243 0.13335 0.35243 0.2921 0 0.13335-0.1016 0.2413-0.3048 0.2413-0.18415 0-0.32068-0.0762-0.45403-0.18415z"/>
   </g>
   <g aria-label="Linear">
    <path d="m129.52 228.45h1.1748v-0.22543h-0.90805v-1.8574h-0.2667z"/>
    <path d="m131.16 226.59c0.1016 0 0.18097-0.0699 0.18097-0.16828 0-0.1016-0.0794-0.16827-0.18097-0.16827-0.1016 0-0.18098 0.0667-0.18098 0.16827 0 0.0984 0.0794 0.16828 0.18098 0.16828zm-0.13335 1.8606h0.26035v-1.543h-0.26035z"/>
    <path d="m131.81 228.45h0.26035v-1.1176c0.15558-0.15558 0.26353-0.23813 0.42228-0.23813 0.2032 0 0.2921 0.12383 0.2921 0.41275v0.94298h0.26035v-0.9779c0-0.3937-0.14605-0.60325-0.4699-0.60325-0.21273 0-0.37148 0.1143-0.51753 0.26035h-0.01l-0.0222-0.22225h-0.2159z"/>
    <path d="m133.43 227.68c0 0.50482 0.32703 0.80645 0.73978 0.80645 0.20955 0 0.37465-0.073 0.508-0.15875l-0.0921-0.17145c-0.1143 0.073-0.23812 0.12065-0.38417 0.12065-0.29528 0-0.4953-0.20955-0.51435-0.54293h1.0414c6e-3 -0.0381 0.01-0.0889 0.01-0.14287 0-0.44133-0.22225-0.7239-0.61595-0.7239-0.35242 0-0.69215 0.30797-0.69215 0.8128zm0.254-0.11748c0.0318-0.31115 0.2286-0.48895 0.4445-0.48895 0.2413 0 0.381 0.17463 0.381 0.48895z"/>
    <path d="m135 228.05c0 0.27622 0.19368 0.43815 0.45403 0.43815 0.1905 0 0.36195-0.1016 0.51117-0.22225h6e-3l0.0222 0.18415h0.2159v-0.94615c0-0.38418-0.15875-0.635-0.53658-0.635-0.24765 0-0.46355 0.10795-0.60642 0.20002l0.10477 0.18098c0.12065-0.0825 0.2794-0.1651 0.46038-0.1651 0.25082 0 0.3175 0.1905 0.3175 0.38735-0.65723 0.073-0.94933 0.2413-0.94933 0.57785zm0.25718-0.019c0-0.19685 0.17462-0.32385 0.69215-0.38735v0.42862c-0.14923 0.13335-0.27305 0.20638-0.42228 0.20638-0.1524 0-0.26987-0.073-0.26987-0.24765z"/>
    <path d="m136.7 228.45h0.26035v-0.9906c0.10477-0.26035 0.26035-0.3556 0.39052-0.3556 0.0635 0 0.0984 0.01 0.14923 0.0254l0.0508-0.2286c-0.0508-0.0222-0.0984-0.0318-0.1651-0.0318-0.17463 0-0.33338 0.12382-0.43815 0.3175h-0.01l-0.0222-0.2794h-0.2159z"/>
   </g>
   <g aria-label="Euclidean">
    <path d="m81.631 233.21h1.2319v-0.22542h-0.9652v-0.75565h0.7874v-0.22543h-0.7874v-0.65405h0.93345v-0.22225h-1.2002z"/>
    <path d="m83.249 232.65c0 0.3937 0.14605 0.60325 0.47308 0.60325 0.21272 0 0.36512-0.11112 0.508-0.2794h0.0095l0.02223 0.2413h0.2159v-1.543h-0.26035v1.0954c-0.14605 0.18097-0.25718 0.26035-0.41592 0.26035-0.2032 0-0.28892-0.12383-0.28892-0.41275v-0.94298h-0.26352z"/>
    <path d="m84.887 232.44c0 0.51118 0.31432 0.80645 0.7239 0.80645 0.18415 0 0.36195-0.0762 0.50165-0.20002l-0.11748-0.17145c-0.09207 0.0825-0.2159 0.15557-0.36195 0.15557-0.28258 0-0.47625-0.23812-0.47625-0.59055 0-0.3556 0.2032-0.5969 0.4826-0.5969 0.12382 0 0.21908 0.0571 0.31115 0.13653l0.13018-0.16828c-0.10478-0.0984-0.24765-0.18415-0.45085-0.18415-0.39688 0-0.74295 0.29528-0.74295 0.8128z"/>
    <path d="m86.446 232.9c0 0.22543 0.07937 0.34925 0.27622 0.34925 0.06985 0 0.1143-0.01 0.14922-0.0254l-0.03493-0.19685c-0.02858 6e-3 -0.04127 6e-3 -0.05715 6e-3 -0.0381 0-0.07303-0.0317-0.07303-0.1143v-1.9685h-0.26035z"/>
    <path d="m87.392 231.35c0.1016 0 0.18098-0.0699 0.18098-0.16827 0-0.1016-0.07937-0.16828-0.18098-0.16828-0.1016 0-0.18098 0.0667-0.18098 0.16828 0 0.0984 0.07937 0.16827 0.18098 0.16827zm-0.13335 1.8606h0.26035v-1.543h-0.26035z"/>
    <path d="m87.928 232.44c0 0.51435 0.25082 0.80645 0.63818 0.80645 0.18098 0 0.34608-0.1016 0.46672-0.21907h0.0095l0.02222 0.18097h0.2159v-2.2606h-0.26352v0.59373l0.0127 0.26352c-0.13652-0.11112-0.254-0.1778-0.4318-0.1778-0.35242 0-0.66992 0.31115-0.66992 0.8128zm0.26988-3e-3c0-0.35243 0.19685-0.59055 0.4445-0.59055 0.127 0 0.24448 0.0445 0.37465 0.16192v0.80645c-0.127 0.14288-0.25082 0.21273-0.3937 0.21273-0.26988 0-0.42545-0.22225-0.42545-0.59055z"/>
    <path d="m89.686 232.44c0 0.50483 0.32702 0.80645 0.73978 0.80645 0.20955 0 0.37465-0.073 0.508-0.15875l-0.09208-0.17145c-0.1143 0.073-0.23812 0.12065-0.38418 0.12065-0.29528 0-0.4953-0.20955-0.51435-0.54292h1.0414c0.0063-0.0381 0.0095-0.0889 0.0095-0.14288 0-0.44132-0.22225-0.7239-0.61595-0.7239-0.35242 0-0.69215 0.30798-0.69215 0.8128zm0.254-0.11747c0.03175-0.31115 0.2286-0.48895 0.4445-0.48895 0.2413 0 0.381 0.17462 0.381 0.48895z"/>
    <path d="m91.256 232.81c0 0.27623 0.19368 0.43815 0.45402 0.43815 0.1905 0 0.36195-0.1016 0.51118-0.22225h0.0064l0.02222 0.18415h0.2159v-0.94615c0-0.38417-0.15875-0.635-0.53658-0.635-0.24765 0-0.46355 0.10795-0.60642 0.20003l0.10478 0.18097c0.12065-0.0825 0.2794-0.1651 0.46038-0.1651 0.25082 0 0.3175 0.1905 0.3175 0.38735-0.65722 0.073-0.94932 0.2413-0.94932 0.57785zm0.25718-0.019c0-0.19685 0.17462-0.32385 0.69215-0.38735v0.42863c-0.14922 0.13335-0.27305 0.20637-0.42228 0.20637-0.1524 0-0.26988-0.073-0.26988-0.24765z"/>
    <path d="m92.957 233.21h0.26035v-1.1176c0.15558-0.15557 0.26352-0.23812 0.42228-0.23812 0.2032 0 0.2921 0.12382 0.2921 0.41275v0.94297h0.26035v-0.9779c0-0.3937-0.14605-0.60325-0.4699-0.60325-0.21272 0-0.37148 0.1143-0.51752 0.26035h-0.0095l-0.02222-0.22225h-0.2159z"/>
   </g>
   <g aria-label="Perspective">
    <path d="m102.72 267.61h0.2667v-0.8255h0.37465c0.45402 0 0.76835-0.20638 0.76835-0.64453 0-0.4572-0.30798-0.61277-0.76835-0.61277h-0.64135zm0.2667-1.0414v-0.82868h0.33972c0.35878 0 0.53975 0.0984 0.53975 0.40005 0 0.29528-0.17462 0.42863-0.53975 0.42863z"/>
    <path d="m104.33 266.84c0 0.50482 0.32702 0.80645 0.73977 0.80645 0.20955 0 0.37465-0.073 0.508-0.15875l-0.0921-0.17145c-0.1143 0.073-0.23813 0.12065-0.38418 0.12065-0.29527 0-0.4953-0.20955-0.51435-0.54293h1.0414c6e-3 -0.0381 0.01-0.0889 0.01-0.14287 0-0.44133-0.22225-0.7239-0.61595-0.7239-0.35243 0-0.69215 0.30797-0.69215 0.8128zm0.254-0.11748c0.0318-0.31115 0.2286-0.48895 0.4445-0.48895 0.2413 0 0.381 0.17463 0.381 0.48895z"/>
    <path d="m106.02 267.61h0.26035v-0.9906c0.10477-0.26035 0.26035-0.3556 0.39052-0.3556 0.0635 0 0.0984 0.01 0.14923 0.0254l0.0508-0.2286c-0.0508-0.0222-0.0984-0.0318-0.1651-0.0318-0.17463 0-0.33338 0.12382-0.43815 0.3175h-0.01l-0.0222-0.2794h-0.2159z"/>
    <path d="m106.92 267.43c0.14605 0.12065 0.3556 0.21273 0.57467 0.21273 0.36513 0 0.56515-0.20955 0.56515-0.46038 0-0.2921-0.24765-0.38417-0.4699-0.46672-0.17462-0.0667-0.3429-0.12383-0.3429-0.2667 0-0.11748 0.0889-0.22225 0.28258-0.22225 0.13652 0 0.24765 0.0571 0.35242 0.13652l0.12383-0.1651c-0.11748-0.0952-0.28575-0.17462-0.47943-0.17462-0.33337 0-0.53022 0.1905-0.53022 0.43815 0 0.26035 0.2413 0.36512 0.46037 0.4445 0.16828 0.0635 0.35243 0.13335 0.35243 0.2921 0 0.13335-0.1016 0.2413-0.3048 0.2413-0.18415 0-0.32068-0.0762-0.45403-0.18415z"/>
    <path d="m108.68 267.47c0.14288 0.11112 0.28575 0.1778 0.42863 0.1778 0.35242 0 0.66675-0.30798 0.66675-0.83185 0-0.47943-0.21273-0.7874-0.6096-0.7874-0.18098 0-0.35243 0.0984-0.49213 0.2159h-0.01l-0.0222-0.1778h-0.2159v2.1939h0.26035v-0.5207zm6e-3 -0.2032v-0.80963c0.1524-0.13652 0.28258-0.20955 0.41275-0.20955 0.2921 0 0.4064 0.2286 0.4064 0.56833 0 0.381-0.18732 0.61277-0.44132 0.61277-0.1016 0-0.23813-0.0444-0.37783-0.16192z"/>
    <path d="m110.07 266.84c0 0.50482 0.32703 0.80645 0.73978 0.80645 0.20955 0 0.37465-0.073 0.508-0.15875l-0.0921-0.17145c-0.1143 0.073-0.23812 0.12065-0.38417 0.12065-0.29528 0-0.4953-0.20955-0.51435-0.54293h1.0414c6e-3 -0.0381 0.01-0.0889 0.01-0.14287 0-0.44133-0.22225-0.7239-0.61595-0.7239-0.35242 0-0.69215 0.30797-0.69215 0.8128zm0.254-0.11748c0.0318-0.31115 0.2286-0.48895 0.4445-0.48895 0.2413 0 0.381 0.17463 0.381 0.48895z"/>
    <path d="m111.65 266.84c0 0.51117 0.31433 0.80645 0.7239 0.80645 0.18415 0 0.36195-0.0762 0.50165-0.20003l-0.11747-0.17145c-0.0921 0.0826-0.2159 0.15558-0.36195 0.15558-0.28258 0-0.47625-0.23813-0.47625-0.59055 0-0.3556 0.2032-0.5969 0.4826-0.5969 0.12382 0 0.21907 0.0571 0.31115 0.13652l0.13017-0.16827c-0.10477-0.0984-0.24765-0.18415-0.45085-0.18415-0.39687 0-0.74295 0.29527-0.74295 0.8128z"/>
    <path d="m113.25 267.13c0 0.3048 0.11113 0.51435 0.44133 0.51435 0.0952 0 0.20002-0.0286 0.28575-0.0571l-0.0508-0.19685c-0.0508 0.0191-0.12065 0.0413-0.17463 0.0413-0.1778 0-0.23812-0.10795-0.23812-0.29845v-0.85725h0.41592v-0.21272h-0.41592v-0.4318h-0.21908l-0.0318 0.4318-0.2413 0.0159v0.19685h0.2286z"/>
    <path d="m114.41 265.75c0.1016 0 0.18097-0.0699 0.18097-0.16828 0-0.1016-0.0794-0.16827-0.18097-0.16827-0.1016 0-0.18098 0.0667-0.18098 0.16827 0 0.0984 0.0794 0.16828 0.18098 0.16828zm-0.13335 1.8606h0.26035v-1.543h-0.26035z"/>
    <path d="m115.39 267.61h0.3048l0.5461-1.543h-0.25717l-0.2921 0.8763c-0.0444 0.1524-0.0952 0.30797-0.1397 0.45402h-0.0127c-0.0476-0.14605-0.0984-0.30162-0.14288-0.45402l-0.2921-0.8763h-0.26987z"/>
    <path d="m116.42 266.84c0 0.50482 0.32703 0.80645 0.73978 0.80645 0.20955 0 0.37465-0.073 0.508-0.15875l-0.0921-0.17145c-0.1143 0.073-0.23812 0.12065-0.38417 0.12065-0.29528 0-0.4953-0.20955-0.51435-0.54293h1.0414c6e-3 -0.0381 0.01-0.0889 0.01-0.14287 0-0.44133-0.22225-0.7239-0.61595-0.7239-0.35242 0-0.69215 0.30797-0.69215 0.8128zm0.254-0.11748c0.0318-0.31115 0.2286-0.48895 0.4445-0.48895 0.2413 0 0.381 0.17463 0.381 0.48895z"/>
   </g>
  </g>
 </g>
</svg>
