<?xml version="1.0" encoding="UTF-8"?>
<svg width="639.79" height="277.35" version="1.1" viewBox="0 0 169.28 73.382" xmlns="http://www.w3.org/2000/svg" xmlns:cc="http://creativecommons.org/ns#" xmlns:dc="http://purl.org/dc/elements/1.1/" xmlns:rdf="http://www.w3.org/1999/02/22-rdf-syntax-ns#">
 <metadata>
  <rdf:RDF>
   <cc:Work rdf:about="">
    <dc:format>image/svg+xml</dc:format>
    <dc:type rdf:resource="http://purl.org/dc/dcmitype/StillImage"/>
    <dc:title/>
   </cc:Work>
  </rdf:RDF>
 </metadata>
 <g transform="translate(-56.782 12.183)">
  <g transform="matrix(7.2626 0 0 7.2626 -627.41 -711.28)" stroke-width=".13769">
   <rect x="94.208" y="96.454" width="23.308" height="9.7115" fill="#1d232d" style="paint-order:normal"/>
   <g fill="#7b8694">
    <path d="m94.596 96.26h1.1654v0.19408h-1.1654z"/>
    <path d="m96.538 96.26h1.1654v0.19408h-1.1654z"/>
    <path d="m98.481 96.26h1.1654v0.19408h-1.1654z"/>
    <path d="m100.42 96.26h1.1654v0.19408h-1.1654z"/>
    <path d="m102.37 96.26h1.1654v0.19408h-1.1654z"/>
    <path d="m104.31 96.26h1.1654v0.19408h-1.1654z"/>
    <path d="m106.25 96.26h1.1654v0.19408h-1.1654z"/>
    <path d="m108.19 96.26h1.1654v0.19408h-1.1654z"/>
    <path d="m110.13 96.26h1.1654v0.19408h-1.1654z" fill="#7b8694"/>
    <path d="m112.08 96.26h1.1654v0.19408h-1.1654z"/>
    <path d="m114.02 96.26h1.1654v0.19408h-1.1654z"/>
    <path d="m115.96 96.26h1.1654v0.19408h-1.1654z"/>
    <path d="m115.96 106.17h1.1654v0.19405h-1.1654z"/>
    <path d="m114.02 106.17h1.1654v0.19405h-1.1654z"/>
    <path d="m112.08 106.17h1.1654v0.19405h-1.1654z"/>
    <path d="m110.13 106.17h1.1654v0.19405h-1.1654z"/>
    <path d="m108.19 106.17h1.1654v0.19405h-1.1654z"/>
    <path d="m106.25 106.17h1.1654v0.19405h-1.1654z"/>
    <path d="m104.31 106.17h1.1654v0.19405h-1.1654z"/>
    <path d="m102.37 106.17h1.1654v0.19405h-1.1654z"/>
    <path d="m100.42 106.17h1.1654v0.19405h-1.1654z"/>
    <path d="m98.481 106.17h1.1654v0.19405h-1.1654z"/>
    <path d="m96.538 106.17h1.1654v0.19405h-1.1654z"/>
    <path d="m94.596 106.17h1.1654v0.19405h-1.1654z"/>
   </g>
  </g>
  <g fill="#ff867f">
   <path transform="matrix(.22477 -.13367 .078159 .13142 81.057 -30.661)" d="m73.143 404.25-20.354 11.751v-23.503z"/>
   <path transform="matrix(.16516 -.20275 .11855 .096572 71.521 -7.5552)" d="m73.143 404.25-20.354 11.751v-23.503z"/>
   <path transform="matrix(.16516 -.20275 .11855 .096572 75.963 -4.6672)" d="m73.143 404.25-20.354 11.751v-23.503z"/>
   <path transform="matrix(.24843 -.081678 .047759 .14526 100.17 -41.757)" d="m73.143 404.25-20.354 11.751v-23.503z"/>
   <path transform="matrix(.24843 -.081678 .047759 .14526 100.73 -46.899)" d="m73.143 404.25-20.354 11.751v-23.503z"/>
   <path transform="matrix(.24843 -.081678 .047759 .14526 91.487 -44.63)" d="m73.143 404.25-20.354 11.751v-23.503z"/>
   <path transform="matrix(.21011 -.1557 .091039 .12285 72.877 -18.493)" d="m73.143 404.25-20.354 11.751v-23.503z"/>
   <path transform="matrix(.21011 -.1557 .091039 .12285 69.625 -23.819)" d="m73.143 404.25-20.354 11.751v-23.503z"/>
   <path transform="matrix(.163 -.2045 .11957 .095308 69.051 .75144)" d="m73.143 404.25-20.354 11.751v-23.503z"/>
   <path transform="matrix(.163 -.2045 .11957 .095308 72.929 6.5051)" d="m73.143 404.25-20.354 11.751v-23.503z"/>
   <path transform="matrix(.24466 -.092363 .054006 .14305 101.45 -35.8)" d="m73.143 404.25-20.354 11.751v-23.503z"/>
   <path transform="matrix(.24466 -.092363 .054006 .14305 105.43 -41.235)" d="m73.143 404.25-20.354 11.751v-23.503z"/>
   <path transform="matrix(.24466 -.092363 .054006 .14305 105.99 -46.545)" d="m73.143 404.25-20.354 11.751v-23.503z"/>
   <path transform="matrix(.25636 -.051625 .030186 .1499 119.88 -42.59)" d="m73.143 404.25-20.354 11.751v-23.503z"/>
   <path transform="matrix(.25636 -.051625 .030186 .1499 122.26 -47.065)" d="m73.143 404.25-20.354 11.751v-23.503z"/>
   <path transform="matrix(.25636 -.051625 .030186 .1499 123.74 -52.31)" d="m73.143 404.25-20.354 11.751v-23.503z"/>
   <path transform="matrix(.25636 -.051625 .030186 .1499 91.59 -45.435)" d="m73.143 404.25-20.354 11.751v-23.503z"/>
   <path transform="matrix(.25636 -.051625 .030186 .1499 81.111 -46.919)" d="m73.143 404.25-20.354 11.751v-23.503z"/>
   <path transform="matrix(.26149 -.0032657 .0019095 .1529 100.19 -55.34)" d="m73.143 404.25-20.354 11.751v-23.503z"/>
   <path transform="matrix(.25835 .040529 -.023698 .15106 120.47 -60.162)" d="m73.143 404.25-20.354 11.751v-23.503z"/>
   <path transform="matrix(.25835 .040529 -.023698 .15106 99.805 -60.166)" d="m73.143 404.25-20.354 11.751v-23.503z"/>
   <path transform="matrix(.14595 -.21699 .12688 .085341 62.379 18.005)" d="m73.143 404.25-20.354 11.751v-23.503z"/>
   <path transform="matrix(.14595 -.21699 .12688 .085341 59.5 8.3957)" d="m73.143 404.25-20.354 11.751v-23.503z"/>
   <path transform="matrix(.2146 -.14945 .087387 .12548 67.238 -19.489)" d="m73.143 404.25-20.354 11.751v-23.503z"/>
   <path transform="matrix(.2146 -.14945 .087387 .12548 64.215 -23.519)" d="m73.143 404.25-20.354 11.751v-23.503z"/>
   <path transform="matrix(.2146 -.14945 .087387 .12548 58.573 -26.243)" d="m73.143 404.25-20.354 11.751v-23.503z"/>
   <path transform="matrix(.2146 -.14945 .087387 .12548 53.931 -27.298)" d="m73.143 404.25-20.354 11.751v-23.503z"/>
   <path transform="matrix(.17806 -.19152 .11199 .10412 55.796 -1.5256)" d="m73.143 404.25-20.354 11.751v-23.503z"/>
   <path transform="matrix(.17806 -.19152 .11199 .10412 59.432 6.5841)" d="m73.143 404.25-20.354 11.751v-23.503z"/>
   <path transform="matrix(.17806 -.19152 .11199 .10412 50.93 4.1785)" d="m73.143 404.25-20.354 11.751v-23.503z"/>
   <path transform="matrix(.21222 -.1528 .089345 .12409 52.248 -19.382)" d="m73.143 404.25-20.354 11.751v-23.503z"/>
   <path transform="matrix(.21222 -.1528 .089345 .12409 51.164 -11.584)" d="m73.143 404.25-20.354 11.751v-23.503z"/>
   <path transform="matrix(.21222 -.1528 .089345 .12409 45.066 -20.311)" d="m73.143 404.25-20.354 11.751v-23.503z"/>
   <path transform="matrix(.1411 -.22018 .12874 .082505 32.755 8.2099)" d="m73.143 404.25-20.354 11.751v-23.503z"/>
   <path transform="matrix(.1411 -.22018 .12874 .082505 37.263 17.192)" d="m73.143 404.25-20.354 11.751v-23.503z"/>
   <path transform="matrix(.1411 -.22018 .12874 .082505 45.262 23.561)" d="m73.143 404.25-20.354 11.751v-23.503z"/>
   <path transform="matrix(.1411 -.22018 .12874 .082505 50.11 23.796)" d="m73.143 404.25-20.354 11.751v-23.503z"/>
   <path transform="matrix(.1411 -.22018 .12874 .082505 54.829 25.852)" d="m73.143 404.25-20.354 11.751v-23.503z"/>
   <path transform="matrix(.2607 .020572 -.012029 .15244 145.84 -50.295)" d="m73.143 404.25-20.354 11.751v-23.503z"/>
   <path transform="matrix(.2607 .020572 -.012029 .15244 149.42 -57.153)" d="m73.143 404.25-20.354 11.751v-23.503z"/>
   <path transform="matrix(.24929 .078997 -.046191 .14577 170.13 -53.487)" d="m73.143 404.25-20.354 11.751v-23.503z"/>
   <path transform="matrix(.23059 .12334 -.072121 .13483 178.23 -46.032)" d="m73.143 404.25-20.354 11.751v-23.503z"/>
   <path transform="matrix(.19831 .17047 -.099675 .11596 186.22 -35.551)" d="m73.143 404.25-20.354 11.751v-23.503z"/>
   <path transform="matrix(.19831 .17047 -.099675 .11596 194.82 -33.142)" d="m73.143 404.25-20.354 11.751v-23.503z"/>
   <path transform="matrix(.17286 .19623 -.11474 .10107 207.25 -35.588)" d="m73.143 404.25-20.354 11.751v-23.503z"/>
   <path transform="matrix(.25996 -.028383 .016596 .15201 128.58 -41.301)" d="m73.143 404.25-20.354 11.751v-23.503z"/>
   <path transform="matrix(.21841 -.14381 .08409 .12771 93.299 -22.586)" d="m73.143 404.25-20.354 11.751v-23.503z"/>
   <path transform="matrix(.1916 .17798 -.10407 .11203 203.34 -33.02)" d="m73.143 404.25-20.354 11.751v-23.503z"/>
   <path transform="matrix(.13351 .22486 -.13148 .078064 224.83 -22.209)" d="m73.143 404.25-20.354 11.751v-23.503z"/>
   <path transform="matrix(.13351 .22486 -.13148 .078064 222.76 -16.061)" d="m73.143 404.25-20.354 11.751v-23.503z"/>
   <path transform="matrix(.046155 .2574 -.15051 .026988 230.46 2.4733)" d="m73.143 404.25-20.354 11.751v-23.503z"/>
   <path transform="matrix(.19411 .17524 -.10246 .1135 206.37 -42.075)" d="m73.143 404.25-20.354 11.751v-23.503z"/>
  </g>
  <circle transform="rotate(255)" cx="-71.919" cy="135.48" r="8.2668" fill="#1d232d" stroke="#7b8694" stroke-width=".28716"/>
 </g>
</svg>
