<?xml version="1.0" encoding="UTF-8"?>
<svg width="302.45" height="242.39" version="1.1" viewBox="0 0 80.023 64.134" xmlns="http://www.w3.org/2000/svg" xmlns:cc="http://creativecommons.org/ns#" xmlns:dc="http://purl.org/dc/elements/1.1/" xmlns:rdf="http://www.w3.org/1999/02/22-rdf-syntax-ns#">
 <metadata>
  <rdf:RDF>
   <cc:Work rdf:about="">
    <dc:format>image/svg+xml</dc:format>
    <dc:type rdf:resource="http://purl.org/dc/dcmitype/StillImage"/>
    <dc:title/>
   </cc:Work>
  </rdf:RDF>
 </metadata>
 <path transform="matrix(.22711 .23611 -.13806 .13279 45.444 -64.586)" d="m73.143 404.25-20.354 11.751v-23.503z" fill="#6f8ce9"/>
 <path d="m6.6287 6.8639s10.943 11.794 15.605 12.749c5.9819 1.2262 12.57-1.2824 17.756-4.5053 3.0601-1.9015 3.4234-8.0644 7.023-8.2156 5.3362-0.22413 6.1384 10.323 11.396 11.263 6.1101 1.0932 16.961-7.6855 16.961-7.6855" fill="none" stroke="#6f8ce9" stroke-dasharray="0.264586, 0.529172" stroke-width=".26459"/>
 <path d="m6.6586 6.971 15.575 12.642 17.756-4.5053 7.023-8.2156 11.396 11.263 16.961-7.6855" fill="none" stroke="#a6aeb8" stroke-width=".26459"/>
 <g fill="#a6aeb8">
  <circle cx="22.161" cy="19.572" r=".93158"/>
  <circle cx="40.057" cy="15.075" r=".93158"/>
  <circle cx="47.085" cy="7.1101" r=".93158"/>
  <circle cx="58.285" cy="17.913" r=".93158"/>
  <circle cx="75.084" cy="10.55" r=".93158"/>
 </g>
 <g fill="#e8eaec" stroke-width=".37479px" aria-label="radius = 1">
  <path d="m21.675 10.167h0.26035v-0.99061c0.10478-0.26035 0.26035-0.3556 0.39053-0.3556 0.0635 0 0.09843 0.00953 0.14923 0.0254l0.0508-0.2286c-0.0508-0.022225-0.09843-0.03175-0.1651-0.03175-0.17463 0-0.33338 0.12383-0.43815 0.3175h-0.0095l-0.02223-0.2794h-0.2159z"/>
  <path d="m22.622 9.7668c0 0.27623 0.19368 0.43815 0.45403 0.43815 0.1905 0 0.36195-0.1016 0.51118-0.22225h0.0063l0.02223 0.18415h0.21595v-0.94616c0-0.38418-0.15875-0.63501-0.53658-0.63501-0.24765 0-0.46356 0.10795-0.60643 0.20003l0.10478 0.18098c0.12065-0.082551 0.2794-0.1651 0.46038-0.1651 0.25083 0 0.3175 0.1905 0.3175 0.38735-0.65723 0.073026-0.94933 0.2413-0.94933 0.57786zm0.25718-0.01905c0-0.19685 0.17463-0.32385 0.69216-0.38735v0.42863c-0.14923 0.13335-0.27305 0.20638-0.42228 0.20638-0.1524 0-0.26988-0.073026-0.26988-0.24765z"/>
  <path d="m24.212 9.3985c0 0.51435 0.25083 0.80646 0.63818 0.80646 0.18098 0 0.34608-0.1016 0.46673-0.21908h0.0095l0.02223 0.18098h0.2159v-2.2606h-0.26353v0.59373l0.0127 0.26353c-0.13651-0.11113-0.25398-0.1778-0.43178-0.1778-0.35243 0-0.66993 0.31115-0.66993 0.81281zm0.26988-0.00318c0-0.35243 0.19685-0.59056 0.4445-0.59056 0.127 0 0.24448 0.04445 0.37465 0.16193v0.80646c-0.127 0.14288-0.25083 0.21273-0.3937 0.21273-0.26988 0-0.42545-0.22225-0.42545-0.59056z"/>
  <path d="m26.217 8.3063c0.1016 0 0.18098-0.069851 0.18098-0.16828 0-0.1016-0.07938-0.16828-0.18098-0.16828-0.1016 0-0.18098 0.066676-0.18098 0.16828 0 0.098426 0.07938 0.16828 0.18098 0.16828zm-0.13335 1.8606h0.26035v-1.5431h-0.26035z"/>
  <path d="m26.843 9.6017c0 0.3937 0.14605 0.60326 0.47308 0.60326 0.21273 0 0.36513-0.11113 0.508-0.2794h0.0095l0.02222 0.2413h0.2159v-1.5431h-0.26032v1.0954c-0.14605 0.18098-0.25718 0.26035-0.41593 0.26035-0.2032 0-0.28893-0.12383-0.28893-0.41275v-0.94298h-0.26353z"/>
  <path d="m28.424 9.9923c0.14605 0.12065 0.3556 0.21273 0.57468 0.21273 0.36513 0 0.56516-0.20955 0.56516-0.46038 0-0.2921-0.24765-0.38418-0.4699-0.46673-0.17463-0.066676-0.3429-0.12383-0.3429-0.2667 0-0.11748 0.0889-0.22225 0.28258-0.22225 0.13653 0 0.24765 0.057151 0.35243 0.13653l0.12383-0.1651c-0.11748-0.095251-0.28575-0.17463-0.47943-0.17463-0.33338 0-0.53023 0.1905-0.53023 0.43815 0 0.26035 0.2413 0.36513 0.46038 0.4445 0.16828 0.063501 0.35243 0.13335 0.35243 0.2921 0 0.13335-0.1016 0.2413-0.3048 0.2413-0.18415 0-0.32068-0.076201-0.45403-0.18415z"/>
  <path d="m30.415 8.8778h1.3621v-0.19685h-1.3621zm0 0.67946h1.3621v-0.19685h-1.3621z"/>
  <path d="m32.772 10.167h1.143v-0.2159h-0.4191v-1.8098h-0.20003c-0.11113 0.066676-0.24448 0.11748-0.42863 0.14923v0.16828h0.3683v1.4923h-0.46356z"/>
 </g>
 <path transform="matrix(.22711 .23611 -.13806 .13279 45.444 -46.641)" d="m73.143 404.25-20.354 11.751v-23.503z" fill="#6f8ce9"/>
 <g fill="#1d232d" stroke="#a6aeb8" stroke-width=".26459">
  <circle cx="22.161" cy="37.518" r="2.8524"/>
  <circle cx="40.151" cy="33.02" r="2.8524"/>
  <circle cx="47.131" cy="25.056" r="2.8524"/>
  <circle cx="58.328" cy="35.831" r="2.8524"/>
  <circle cx="75.1" cy="28.382" r="2.8524"/>
  <circle cx="22.161" cy="59.211" r="4.7905"/>
  <circle cx="39.964" cy="54.713" r="4.7905"/>
  <circle cx="46.991" cy="46.796" r="4.7905"/>
  <circle cx="58.235" cy="57.524" r="4.7905"/>
  <circle cx="75.1" cy="50.028" r="4.7905"/>
 </g>
 <path d="m6.6287 24.809s11.009 9.541 15.671 10.497c5.9819 1.2262 11.344-0.68623 16.531-3.909 3.0601-1.9015 3.7921-5.4333 7.3874-5.6648 3.4811-0.22413 4.6146 8.1031 9.8719 9.0438 6.1101 1.0932 17.856-7.2549 17.856-7.2549" fill="none" stroke="#6f8ce9" stroke-dasharray="0.264586, 0.529172" stroke-width=".26459"/>
 <path d="m6.6586 24.916 15.575 12.642 17.756-4.5053 7.023-8.2156 11.396 11.263 16.961-7.6856" fill="none" stroke="#a6aeb8" stroke-width=".26459"/>
 <g fill="#a6aeb8">
  <circle cx="22.161" cy="37.518" r=".93158"/>
  <circle cx="40.057" cy="33.02" r=".93158"/>
  <circle cx="47.085" cy="25.056" r=".93158"/>
  <circle cx="58.285" cy="35.858" r=".93158"/>
  <circle cx="75.084" cy="28.495" r=".93158"/>
 </g>
 <g fill="#e8eaec" stroke-width=".37479px" aria-label="radius = 10">
  <path d="m19.801 28.112h0.26035v-0.99061c0.10478-0.26035 0.26035-0.3556 0.39053-0.3556 0.0635 0 0.09843 0.0095 0.14923 0.0254l0.0508-0.2286c-0.0508-0.02223-0.09843-0.03175-0.1651-0.03175-0.17463 0-0.33338 0.12383-0.43815 0.3175h-0.0095l-0.02223-0.2794h-0.2159z"/>
  <path d="m20.748 27.712c0 0.27623 0.19368 0.43815 0.45403 0.43815 0.1905 0 0.36195-0.1016 0.51118-0.22225h0.0064l0.02222 0.18415h0.2159v-0.94616c0-0.38418-0.15875-0.63501-0.53658-0.63501-0.24765 0-0.46355 0.10795-0.60643 0.20003l0.10478 0.18098c0.12065-0.08255 0.2794-0.1651 0.46038-0.1651 0.25083 0 0.3175 0.1905 0.3175 0.38735-0.65723 0.07303-0.94933 0.2413-0.94933 0.57786zm0.25718-0.01905c0-0.19685 0.17463-0.32385 0.69216-0.38735v0.42863c-0.14923 0.13335-0.27305 0.20638-0.42228 0.20638-0.1524 0-0.26988-0.07303-0.26988-0.24765z"/>
  <path d="m22.338 27.344c0 0.51436 0.25083 0.80646 0.63818 0.80646 0.18098 0 0.34608-0.1016 0.46673-0.21908h0.0095l0.02222 0.18098h0.2159v-2.2606h-0.2635v0.59373l0.0127 0.26353c-0.13653-0.11113-0.254-0.1778-0.4318-0.1778-0.35243 0-0.66993 0.31115-0.66993 0.81281zm0.26988-0.0032c0-0.35243 0.19685-0.59056 0.4445-0.59056 0.127 0 0.24448 0.04445 0.37465 0.16193v0.80646c-0.127 0.14288-0.25083 0.21273-0.3937 0.21273-0.26988 0-0.42545-0.22225-0.42545-0.59056z"/>
  <path d="m24.343 26.252c0.1016 0 0.18098-0.06985 0.18098-0.16828 0-0.1016-0.07938-0.16828-0.18098-0.16828-0.1016 0-0.18098 0.06668-0.18098 0.16828 0 0.09843 0.07937 0.16828 0.18098 0.16828zm-0.13335 1.8606h0.26035v-1.5431h-0.26035z"/>
  <path d="m24.969 27.547c0 0.3937 0.14605 0.60326 0.47308 0.60326 0.21273 0 0.36513-0.11113 0.508-0.2794h0.0095l0.02222 0.2413h0.2159v-1.5431h-0.26035v1.0954c-0.14605 0.18098-0.25718 0.26035-0.41593 0.26035-0.2032 0-0.28893-0.12383-0.28893-0.41275v-0.94298h-0.2635z"/>
  <path d="m26.55 27.938c0.14605 0.12065 0.3556 0.21273 0.57468 0.21273 0.36513 0 0.56516-0.20955 0.56516-0.46038 0-0.2921-0.24765-0.38418-0.4699-0.46673-0.17463-0.06668-0.3429-0.12383-0.3429-0.2667 0-0.11748 0.0889-0.22225 0.28258-0.22225 0.13653 0 0.24765 0.05715 0.35243 0.13653l0.12383-0.1651c-0.11748-0.09525-0.28575-0.17463-0.47943-0.17463-0.33338 0-0.53023 0.1905-0.53023 0.43815 0 0.26035 0.2413 0.36513 0.46038 0.4445 0.16828 0.0635 0.35243 0.13335 0.35243 0.2921 0 0.13335-0.1016 0.2413-0.3048 0.2413-0.18415 0-0.32068-0.0762-0.45403-0.18415z"/>
  <path d="m28.541 26.823h1.3621v-0.19685h-1.3621zm0 0.67946h1.3621v-0.19685h-1.3621z"/>
  <path d="m30.898 28.112h1.143v-0.2159h-0.4191v-1.8098h-0.20003c-0.11113 0.06668-0.24448 0.11748-0.42863 0.14923v0.16828h0.3683v1.4923h-0.46355z"/>
  <path d="m33.013 28.15c0.40323 0 0.64771-0.37783 0.64771-1.0573 0-0.67946-0.24448-1.0446-0.64771-1.0446-0.4064 0-0.65088 0.36513-0.65088 1.0446 0 0.67946 0.24448 1.0573 0.65088 1.0573zm0-0.20955c-0.23813 0-0.39688-0.254-0.39688-0.84773s0.15875-0.83503 0.39688-0.83503c0.23495 0 0.3937 0.2413 0.3937 0.83503s-0.15875 0.84773-0.3937 0.84773z"/>
 </g>
 <path transform="matrix(.22711 .23611 -.13806 .13279 45.444 -24.948)" d="m73.143 404.25-20.354 11.751v-23.503z" fill="#6f8ce9"/>
 <path d="m6.6287 46.503s7.7886 10.32 12.451 11.276c5.9819 1.2262 14.585-1.7324 19.772-4.9552 3.0601-1.9014 4.5757-9.4083 8.1753-9.5595 5.3361-0.2241 6.224 9.5155 11.481 10.456 6.1101 1.0933 16.034-5.9629 16.034-5.9629" fill="none" stroke="#6f8ce9" stroke-dasharray="0.264586, 0.529172" stroke-width=".26459"/>
 <path d="m6.6586 46.61 15.575 12.642 17.756-4.5053 7.023-8.2156 11.396 11.263 16.961-7.6856" fill="none" stroke="#a6aeb8" stroke-width=".26459"/>
 <g fill="#a6aeb8">
  <circle cx="22.161" cy="59.211" r=".93158"/>
  <circle cx="40.057" cy="54.713" r=".93158"/>
  <circle cx="47.085" cy="46.749" r=".93158"/>
  <circle cx="58.285" cy="57.552" r=".93158"/>
  <circle cx="75.084" cy="50.188" r=".93158"/>
 </g>
 <g fill="#e8eaec" stroke-width=".37479px" aria-label="radius = 20">
  <path d="m19.801 48.307h0.26035v-0.99061c0.10478-0.26035 0.26035-0.3556 0.39053-0.3556 0.0635 0 0.09843 0.0095 0.14923 0.0254l0.0508-0.2286c-0.0508-0.02222-0.09843-0.03175-0.1651-0.03175-0.17463 0-0.33338 0.12383-0.43815 0.3175h-0.0095l-0.02223-0.2794h-0.2159z"/>
  <path d="m20.748 47.907c0 0.27623 0.19368 0.43815 0.45403 0.43815 0.1905 0 0.36195-0.1016 0.51118-0.22225h0.0064l0.02222 0.18415h0.2159v-0.94616c0-0.38418-0.15875-0.63501-0.53658-0.63501-0.24765 0-0.46355 0.10795-0.60643 0.20003l0.10478 0.18098c0.12065-0.08255 0.2794-0.1651 0.46038-0.1651 0.25083 0 0.3175 0.1905 0.3175 0.38735-0.65723 0.07303-0.94933 0.2413-0.94933 0.57786zm0.25718-0.01905c0-0.19685 0.17463-0.32385 0.69216-0.38735v0.42863c-0.14923 0.13335-0.27305 0.20638-0.42228 0.20638-0.1524 0-0.26988-0.07303-0.26988-0.24765z"/>
  <path d="m22.338 47.538c0 0.51436 0.25083 0.80646 0.63818 0.80646 0.18098 0 0.34608-0.1016 0.46673-0.21908h0.0095l0.02222 0.18098h0.2159v-2.2606h-0.2635v0.59373l0.0127 0.26353c-0.13653-0.11113-0.254-0.1778-0.4318-0.1778-0.35243 0-0.66993 0.31115-0.66993 0.81281zm0.26988-0.0032c0-0.35243 0.19685-0.59056 0.4445-0.59056 0.127 0 0.24448 0.04445 0.37465 0.16193v0.80646c-0.127 0.14288-0.25083 0.21273-0.3937 0.21273-0.26988 0-0.42545-0.22225-0.42545-0.59056z"/>
  <path d="m24.343 46.446c0.1016 0 0.18098-0.06985 0.18098-0.16828 0-0.1016-0.07938-0.16828-0.18098-0.16828-0.1016 0-0.18098 0.06667-0.18098 0.16828 0 0.09843 0.07937 0.16828 0.18098 0.16828zm-0.13335 1.8606h0.26035v-1.5431h-0.26035z"/>
  <path d="m24.969 47.741c0 0.3937 0.14605 0.60326 0.47308 0.60326 0.21273 0 0.36513-0.11113 0.508-0.2794h0.0095l0.02222 0.2413h0.2159v-1.5431h-0.26035v1.0954c-0.14605 0.18098-0.25718 0.26035-0.41593 0.26035-0.2032 0-0.28893-0.12383-0.28893-0.41275v-0.94298h-0.2635z"/>
  <path d="m26.55 48.132c0.14605 0.12065 0.3556 0.21273 0.57468 0.21273 0.36513 0 0.56516-0.20955 0.56516-0.46038 0-0.2921-0.24765-0.38418-0.4699-0.46673-0.17463-0.06668-0.3429-0.12383-0.3429-0.2667 0-0.11748 0.0889-0.22225 0.28258-0.22225 0.13653 0 0.24765 0.05715 0.35243 0.13653l0.12383-0.1651c-0.11748-0.09525-0.28575-0.17463-0.47943-0.17463-0.33338 0-0.53023 0.1905-0.53023 0.43815 0 0.26035 0.2413 0.36513 0.46038 0.4445 0.16828 0.0635 0.35243 0.13335 0.35243 0.2921 0 0.13335-0.1016 0.2413-0.3048 0.2413-0.18415 0-0.32068-0.0762-0.45403-0.18415z"/>
  <path d="m28.541 47.018h1.3621v-0.19685h-1.3621zm0 0.67946h1.3621v-0.19685h-1.3621z"/>
  <path d="m30.774 48.307h1.3081v-0.22543h-0.58738c-0.10478 0-0.2286 0.0095-0.33973 0.01905 0.47943-0.50166 0.82551-0.87948 0.82551-1.2605 0-0.35878-0.23178-0.59691-0.60643-0.59691-0.26353 0-0.4445 0.12383-0.61278 0.30798l0.14923 0.14923c0.11748-0.13653 0.26353-0.24448 0.4318-0.24448 0.25718 0 0.38418 0.1651 0.38418 0.39688 0 0.32703-0.3429 0.69216-0.95251 1.2986z"/>
  <path d="m33.013 48.345c0.40323 0 0.64771-0.37783 0.64771-1.0573s-0.24448-1.0446-0.64771-1.0446c-0.4064 0-0.65088 0.36513-0.65088 1.0446s0.24448 1.0573 0.65088 1.0573zm0-0.20955c-0.23813 0-0.39688-0.254-0.39688-0.84773s0.15875-0.83503 0.39688-0.83503c0.23495 0 0.3937 0.2413 0.3937 0.83503s-0.15875 0.84773-0.3937 0.84773z"/>
 </g>
</svg>
