<?xml version="1.0" encoding="UTF-8"?>
<svg width="324.78" height="186.5" version="1.1" viewBox="0 0 85.929 49.344" xmlns="http://www.w3.org/2000/svg" xmlns:cc="http://creativecommons.org/ns#" xmlns:dc="http://purl.org/dc/elements/1.1/" xmlns:rdf="http://www.w3.org/1999/02/22-rdf-syntax-ns#">
 <metadata>
  <rdf:RDF>
   <cc:Work rdf:about="">
    <dc:format>image/svg+xml</dc:format>
    <dc:type rdf:resource="http://purl.org/dc/dcmitype/StillImage"/>
    <dc:title/>
   </cc:Work>
  </rdf:RDF>
 </metadata>
 <path transform="matrix(.43567 -.00030735 .00017971 .25474 -23.069 -83.048)" d="m73.143 404.25-20.354 11.751v-23.503z" fill="#6f8ce9"/>
 <g fill="none">
  <g stroke-width=".26458">
   <path d="m2.5981 19.974h40.398" stroke="#e8eaec"/>
   <path d="m66.229 19.636h19.516" stroke="#a6aeb8"/>
   <circle cx="66.295" cy="19.633" r="19.501" stroke="#a6aeb8"/>
  </g>
  <path d="m2.5981 19.974 45.905-13.128" stroke="#e9e56f" stroke-width=".52916"/>
 </g>
 <g>
  <circle cx="2.7038" cy="20.018" r=".87444" fill="#e8eaec"/>
  <g>
   <circle cx="66.299" cy="19.631" r=".82999" fill="#a6aeb8" stroke="#a6aeb8" stroke-width=".74378"/>
   <circle cx="52" cy="6.0131" r="1.7427" fill="#a6aeb8" stroke="#a6aeb8" stroke-width="1.5617"/>
   <g fill="#e8eaec" stroke-width=".49841px" aria-label="radius">
    <path d="m70.544 23.822h0.26035v-0.99058c0.10477-0.26035 0.26035-0.3556 0.39052-0.3556 0.0635 0 0.09842 0.0095 0.14922 0.0254l0.0508-0.2286c-0.0508-0.02222-0.09842-0.03175-0.1651-0.03175-0.17462 0-0.33337 0.12382-0.43814 0.3175h-0.0095l-0.02222-0.2794h-0.2159z"/>
    <path d="m71.491 23.422c0 0.27622 0.19367 0.43814 0.45402 0.43814 0.1905 0 0.36194-0.1016 0.51117-0.22225h0.0063l0.02222 0.18415h0.2159v-0.94614c0-0.38417-0.15875-0.63499-0.53657-0.63499-0.24765 0-0.46354 0.10795-0.60642 0.20002l0.10477 0.18097c0.12065-0.08255 0.2794-0.1651 0.46037-0.1651 0.25082 0 0.3175 0.1905 0.3175 0.38734-0.65722 0.07302-0.94931 0.2413-0.94931 0.57784zm0.25717-0.01905c0-0.19685 0.17462-0.32384 0.69214-0.38734v0.42862c-0.14922 0.13335-0.27305 0.20637-0.42227 0.20637-0.1524 0-0.26987-0.07302-0.26987-0.24765z"/>
    <path d="m73.081 23.053c0 0.51434 0.25082 0.80644 0.63816 0.80644 0.18097 0 0.34607-0.1016 0.46672-0.21907h0.0095l0.02222 0.18097h0.2159v-2.2606h-0.26352v0.59372l0.0127 0.26352c-0.13652-0.11112-0.254-0.1778-0.43179-0.1778-0.35242 0-0.66992 0.31114-0.66992 0.81279zm0.26987-0.0032c0-0.35242 0.19685-0.59054 0.44449-0.59054 0.127 0 0.24447 0.04445 0.37464 0.16192v0.80644c-0.127 0.14287-0.25082 0.21272-0.39369 0.21272-0.26987 0-0.42544-0.22225-0.42544-0.59054z"/>
    <path d="m75.086 21.961c0.1016 0 0.18097-0.06985 0.18097-0.16827 0-0.1016-0.07937-0.16827-0.18097-0.16827-0.1016 0-0.18097 0.06667-0.18097 0.16827 0 0.09842 0.07937 0.16827 0.18097 0.16827zm-0.13335 1.8605h0.26035v-1.543h-0.26035z"/>
    <path d="m75.712 23.257c0 0.39369 0.14605 0.60324 0.47307 0.60324 0.21272 0 0.36512-0.11112 0.50799-0.2794h0.0095l0.02223 0.2413h0.2159v-1.543h-0.26035v1.0954c-0.14605 0.18097-0.25717 0.26035-0.41592 0.26035-0.2032 0-0.28892-0.12382-0.28892-0.41274v-0.94296h-0.26352z"/>
    <path d="m77.293 23.647c0.14605 0.12065 0.35559 0.21272 0.57466 0.21272 0.36512 0 0.56514-0.20955 0.56514-0.46037 0-0.2921-0.24765-0.38417-0.46989-0.46672-0.17462-0.06667-0.3429-0.12382-0.3429-0.2667 0-0.11747 0.0889-0.22225 0.28257-0.22225 0.13652 0 0.24765 0.05715 0.35242 0.13652l0.12382-0.1651c-0.11747-0.09525-0.28574-0.17462-0.47942-0.17462-0.33337 0-0.53022 0.1905-0.53022 0.43814 0 0.26035 0.2413 0.36512 0.46037 0.44449 0.16827 0.0635 0.35242 0.13335 0.35242 0.2921 0 0.13335-0.1016 0.2413-0.3048 0.2413-0.18415 0-0.32067-0.0762-0.45402-0.18415z"/>
   </g>
  </g>
 </g>
 <path d="m60.11 4.9915c-1.9012 0.80414-3.6133 1.9677-5.0511 3.4056-1.4378 1.4378-2.6014 3.1499-3.4055 5.0511" fill="none" stroke="#a6aeb8" stroke-width=".26458"/>
 <g fill="#e8eaec" stroke-width=".49841px">
  <g aria-label="current velocity">
   <path d="m12.583 23.053c0 0.51117 0.31432 0.80644 0.72389 0.80644 0.18415 0 0.36194-0.0762 0.50164-0.20002l-0.11747-0.17145c-0.09207 0.08255-0.2159 0.15557-0.36194 0.15557-0.28257 0-0.47624-0.23812-0.47624-0.59054 0-0.35559 0.2032-0.59689 0.48259-0.59689 0.12382 0 0.21907 0.05715 0.31114 0.13652l0.13017-0.16827c-0.10477-0.09842-0.24765-0.18415-0.45084-0.18415-0.39687 0-0.74294 0.29527-0.74294 0.81279z"/>
   <path d="m14.12 23.257c0 0.39369 0.14605 0.60324 0.47307 0.60324 0.21272 0 0.36512-0.11112 0.50799-0.2794h0.0095l0.02222 0.2413h0.2159v-1.543h-0.26035v1.0954c-0.14605 0.18097-0.25717 0.26035-0.41592 0.26035-0.2032 0-0.28892-0.12382-0.28892-0.41274v-0.94296h-0.26352z"/>
   <path d="m15.872 23.822h0.26035v-0.99058c0.10477-0.26035 0.26035-0.3556 0.39052-0.3556 0.0635 0 0.09842 0.0095 0.14922 0.0254l0.0508-0.2286c-0.0508-0.02222-0.09842-0.03175-0.1651-0.03175-0.17462 0-0.33337 0.12382-0.43814 0.3175h-0.0095l-0.02222-0.2794h-0.2159z"/>
   <path d="m16.976 23.822h0.26035v-0.99058c0.10477-0.26035 0.26035-0.3556 0.39052-0.3556 0.0635 0 0.09842 0.0095 0.14922 0.0254l0.0508-0.2286c-0.0508-0.02222-0.09842-0.03175-0.1651-0.03175-0.17462 0-0.33337 0.12382-0.43814 0.3175h-0.0095l-0.02222-0.2794h-0.2159z"/>
   <path d="m17.935 23.053c0 0.50482 0.32702 0.80644 0.73976 0.80644 0.20955 0 0.37464-0.07302 0.50799-0.15875l-0.09207-0.17145c-0.1143 0.07302-0.23812 0.12065-0.38417 0.12065-0.29527 0-0.49529-0.20955-0.51434-0.54292h1.0414c0.0063-0.0381 0.0095-0.0889 0.0095-0.14287 0-0.44132-0.22225-0.72389-0.61594-0.72389-0.35242 0-0.69214 0.30797-0.69214 0.81279zm0.254-0.11747c0.03175-0.31114 0.2286-0.48894 0.44449-0.48894 0.2413 0 0.38099 0.17462 0.38099 0.48894z"/>
   <path d="m19.624 23.822h0.26035v-1.1176c0.15557-0.15557 0.26352-0.23812 0.42227-0.23812 0.2032 0 0.2921 0.12382 0.2921 0.41274v0.94296h0.26035v-0.97788c0-0.39369-0.14605-0.60324-0.46989-0.60324-0.21272 0-0.37147 0.1143-0.51752 0.26035h-0.0095l-0.02222-0.22225h-0.2159z"/>
   <path d="m21.405 23.346c0 0.3048 0.11112 0.51434 0.44132 0.51434 0.09525 0 0.20002-0.02857 0.28575-0.05715l-0.0508-0.19685c-0.0508 0.01905-0.12065 0.04127-0.17462 0.04127-0.1778 0-0.23812-0.10795-0.23812-0.29845v-0.85723h0.41592v-0.21272h-0.41592v-0.43179h-0.21907l-0.03175 0.43179-0.2413 0.01588v0.19685h0.2286z"/>
   <path d="m23.405 23.822h0.3048l0.54609-1.543h-0.25717l-0.2921 0.87629c-0.04445 0.1524-0.09525 0.30797-0.1397 0.45402h-0.0127c-0.04762-0.14605-0.09842-0.30162-0.14287-0.45402l-0.2921-0.87629h-0.26987z"/>
   <path d="m24.427 23.053c0 0.50482 0.32702 0.80644 0.73976 0.80644 0.20955 0 0.37464-0.07302 0.50799-0.15875l-0.09207-0.17145c-0.1143 0.07302-0.23812 0.12065-0.38417 0.12065-0.29527 0-0.49529-0.20955-0.51434-0.54292h1.0414c0.0064-0.0381 0.0095-0.0889 0.0095-0.14287 0-0.44132-0.22225-0.72389-0.61594-0.72389-0.35242 0-0.69214 0.30797-0.69214 0.81279zm0.254-0.11747c0.03175-0.31114 0.2286-0.48894 0.44449-0.48894 0.2413 0 0.38099 0.17462 0.38099 0.48894z"/>
   <path d="m26.117 23.511c0 0.22542 0.07937 0.34924 0.27622 0.34924 0.06985 0 0.1143-0.0095 0.14922-0.0254l-0.03492-0.19685c-0.02858 0.0064-0.04128 0.0064-0.05715 0.0064-0.0381 0-0.07302-0.03175-0.07302-0.1143v-1.9685h-0.26035z"/>
   <path d="m26.815 23.053c0 0.51117 0.33654 0.80644 0.71436 0.80644s0.71436-0.29527 0.71436-0.80644c0-0.51752-0.33654-0.81279-0.71436-0.81279s-0.71436 0.29527-0.71436 0.81279zm0.26987 0c0-0.35559 0.18097-0.59689 0.44449-0.59689 0.2667 0 0.44449 0.2413 0.44449 0.59689 0 0.35242-0.1778 0.59054-0.44449 0.59054-0.26352 0-0.44449-0.23812-0.44449-0.59054z"/>
   <path d="m28.539 23.053c0 0.51117 0.31432 0.80644 0.72389 0.80644 0.18415 0 0.36194-0.0762 0.50164-0.20002l-0.11747-0.17145c-0.09207 0.08255-0.2159 0.15557-0.36194 0.15557-0.28257 0-0.47624-0.23812-0.47624-0.59054 0-0.35559 0.2032-0.59689 0.48259-0.59689 0.12382 0 0.21907 0.05715 0.31114 0.13652l0.13017-0.16827c-0.10477-0.09842-0.24765-0.18415-0.45084-0.18415-0.39687 0-0.74294 0.29527-0.74294 0.81279z"/>
   <path d="m30.231 21.961c0.1016 0 0.18097-0.06985 0.18097-0.16827 0-0.1016-0.07937-0.16827-0.18097-0.16827-0.1016 0-0.18097 0.06667-0.18097 0.16827 0 0.09842 0.07937 0.16827 0.18097 0.16827zm-0.13335 1.8605h0.26035v-1.543h-0.26035z"/>
   <path d="m30.923 23.346c0 0.3048 0.11112 0.51434 0.44132 0.51434 0.09525 0 0.20002-0.02857 0.28574-0.05715l-0.0508-0.19685c-0.0508 0.01905-0.12065 0.04127-0.17462 0.04127-0.1778 0-0.23812-0.10795-0.23812-0.29845v-0.85724h0.41592v-0.21272h-0.41592v-0.43179h-0.21907l-0.03175 0.43179-0.2413 0.01588v0.19685h0.2286z"/>
   <path d="m31.847 24.247-0.0508 0.20637c0.0508 0.01905 0.11112 0.03175 0.18097 0.03175 0.31114 0 0.46989-0.23177 0.57784-0.53657l0.58102-1.67h-0.254l-0.27622 0.85406c-0.04127 0.13652-0.08572 0.29527-0.13017 0.43497h-0.0127c-0.04762-0.14287-0.1016-0.30162-0.14922-0.43497l-0.31432-0.85406h-0.26987l0.61912 1.5462-0.03492 0.1143c-0.0635 0.1905-0.17462 0.3302-0.34924 0.3302-0.0381 0-0.08572-0.0127-0.11747-0.02223z"/>
  </g>
  <g transform="rotate(-16.619)" aria-label="steering force">
   <path d="m5.0843 18.575c0.14605 0.12065 0.35559 0.21272 0.57467 0.21272 0.36512 0 0.56514-0.20955 0.56514-0.46037 0-0.2921-0.24765-0.38417-0.46989-0.46672-0.17462-0.06667-0.34289-0.12382-0.34289-0.2667 0-0.11747 0.088899-0.22225 0.28257-0.22225 0.13652 0 0.24765 0.05715 0.35242 0.13652l0.12382-0.1651c-0.11747-0.095248-0.28575-0.17462-0.47942-0.17462-0.33337 0-0.53022 0.1905-0.53022 0.43814 0 0.26035 0.2413 0.36512 0.46037 0.44449 0.16827 0.0635 0.35242 0.13335 0.35242 0.2921 0 0.13335-0.1016 0.2413-0.3048 0.2413-0.18415 0-0.32067-0.0762-0.45402-0.18415z"/>
   <path d="m6.6334 18.273c0 0.3048 0.11112 0.51434 0.44132 0.51434 0.095249 0 0.20002-0.02857 0.28575-0.05715l-0.050799-0.19685c-0.050799 0.01905-0.12065 0.04127-0.17462 0.04127-0.1778 0-0.23812-0.10795-0.23812-0.29845v-0.85723h0.41592v-0.21272h-0.41592v-0.43179h-0.21907l-0.03175 0.43179-0.2413 0.01588v0.19685h0.2286z"/>
   <path d="m7.5165 17.981c0 0.50482 0.32702 0.80644 0.73976 0.80644 0.20955 0 0.37464-0.07302 0.50799-0.15875l-0.092073-0.17145c-0.1143 0.07302-0.23812 0.12065-0.38417 0.12065-0.29527 0-0.49529-0.20955-0.51434-0.54292h1.0414c0.00635-0.0381 0.00952-0.0889 0.00952-0.14287 0-0.44132-0.22225-0.72389-0.61594-0.72389-0.35242 0-0.69214 0.30797-0.69214 0.81279zm0.254-0.11747c0.03175-0.31114 0.2286-0.48894 0.44449-0.48894 0.2413 0 0.38099 0.17462 0.38099 0.48894z"/>
   <path d="m9.0915 17.981c0 0.50482 0.32702 0.80644 0.73976 0.80644 0.20955 0 0.37464-0.07302 0.50799-0.15875l-0.09207-0.17145c-0.1143 0.07302-0.23812 0.12065-0.38417 0.12065-0.29527 0-0.49529-0.20955-0.51434-0.54292h1.0414c0.0064-0.0381 0.0095-0.0889 0.0095-0.14287 0-0.44132-0.22225-0.72389-0.61594-0.72389-0.35242 0-0.69214 0.30797-0.69214 0.81279zm0.254-0.11747c0.03175-0.31114 0.2286-0.48894 0.44449-0.48894 0.2413 0 0.38099 0.17462 0.38099 0.48894z"/>
   <path d="m10.781 18.75h0.26035v-0.99058c0.10477-0.26035 0.26035-0.3556 0.39052-0.3556 0.0635 0 0.09842 0.0095 0.14922 0.0254l0.0508-0.2286c-0.0508-0.02222-0.09842-0.03175-0.1651-0.03175-0.17462 0-0.33337 0.12382-0.43814 0.3175h-0.0095l-0.02223-0.2794h-0.2159z"/>
   <path d="m12.018 16.889c0.1016 0 0.18097-0.06985 0.18097-0.16827 0-0.1016-0.07937-0.16827-0.18097-0.16827-0.1016 0-0.18097 0.06667-0.18097 0.16827 0 0.09842 0.07937 0.16827 0.18097 0.16827zm-0.13335 1.8605h0.26035v-1.543h-0.26035z"/>
   <path d="m12.666 18.75h0.26035v-1.1176c0.15557-0.15557 0.26352-0.23812 0.42227-0.23812 0.2032 0 0.2921 0.12382 0.2921 0.41274v0.94296h0.26034v-0.97788c0-0.39369-0.14605-0.60324-0.46989-0.60324-0.21272 0-0.37147 0.1143-0.51752 0.26035h-0.0095l-0.02222-0.22225h-0.2159z"/>
   <path d="m14.513 19.01c0-0.0889 0.04762-0.18097 0.15875-0.26035 0.06667 0.01905 0.1397 0.0254 0.20002 0.0254h0.2667c0.20002 0 0.31114 0.04762 0.31114 0.1905 0 0.16192-0.19367 0.31432-0.48894 0.31432-0.2794 0-0.44767-0.10477-0.44767-0.26987zm-0.2286 0.03492c0 0.2667 0.26035 0.41592 0.63816 0.41592 0.47942 0 0.78104-0.24765 0.78104-0.53339 0-0.25717-0.18097-0.36829-0.53974-0.36829h-0.29844c-0.20955 0-0.27305-0.06985-0.27305-0.16827 0-0.08572 0.04445-0.13652 0.09842-0.18415 0.06985 0.03492 0.15557 0.05397 0.23177 0.05397 0.31432 0 0.56514-0.20637 0.56514-0.53657 0-0.13017-0.05397-0.24765-0.127-0.3175h0.3175v-0.20002h-0.53657c-0.05715-0.02222-0.13335-0.0381-0.21907-0.0381-0.31432 0-0.58102 0.21272-0.58102 0.54927 0 0.18415 0.09842 0.33337 0.20002 0.41592v0.0127c-0.07937 0.05398-0.16827 0.15557-0.16827 0.28575 0 0.12065 0.06032 0.2032 0.13652 0.25082v0.0127c-0.1397 0.09525-0.22542 0.21907-0.22542 0.34924zm0.63816-0.95884c-0.1778 0-0.32702-0.14287-0.32702-0.36829 0-0.22542 0.14605-0.35877 0.32702-0.35877s0.32702 0.13335 0.32702 0.35877c0 0.22542-0.14922 0.36829-0.32702 0.36829z"/>
   <path d="m17.393 16.502c-0.06985-0.02857-0.16192-0.0508-0.25717-0.0508-0.30797 0-0.45084 0.19685-0.45084 0.51117v0.24447l-0.20955 0.01588v0.19685h0.20955v1.3303h0.26035v-1.3303h0.32702v-0.21272h-0.32702v-0.24447c0-0.19685 0.06985-0.29844 0.2159-0.29844 0.05715 0 0.11747 0.0127 0.17462 0.0381z"/>
   <path d="m17.426 17.981c0 0.51117 0.33654 0.80644 0.71436 0.80644s0.71436-0.29527 0.71436-0.80644c0-0.51752-0.33654-0.81279-0.71436-0.81279s-0.71436 0.29527-0.71436 0.81279zm0.26987 0c0-0.35559 0.18097-0.59689 0.44449-0.59689 0.2667 0 0.44449 0.2413 0.44449 0.59689 0 0.35242-0.1778 0.59054-0.44449 0.59054-0.26352 0-0.44449-0.23812-0.44449-0.59054z"/>
   <path d="m19.264 18.75h0.26035v-0.99058c0.10477-0.26035 0.26035-0.3556 0.39052-0.3556 0.0635 0 0.09842 0.0095 0.14922 0.0254l0.0508-0.2286c-0.0508-0.02222-0.09842-0.03175-0.1651-0.03175-0.17462 0-0.33337 0.12382-0.43814 0.3175h-0.0095l-0.02222-0.2794h-0.2159z"/>
   <path d="m20.222 17.981c0 0.51117 0.31432 0.80644 0.72389 0.80644 0.18415 0 0.36194-0.0762 0.50164-0.20002l-0.11747-0.17145c-0.09207 0.08255-0.2159 0.15557-0.36194 0.15557-0.28257 0-0.47624-0.23812-0.47624-0.59054 0-0.35559 0.2032-0.59689 0.48259-0.59689 0.12382 0 0.21907 0.05715 0.31114 0.13652l0.13017-0.16827c-0.10477-0.09842-0.24765-0.18415-0.45084-0.18415-0.39687 0-0.74294 0.29527-0.74294 0.81279z"/>
   <path d="m21.599 17.981c0 0.50482 0.32702 0.80644 0.73976 0.80644 0.20955 0 0.37464-0.07302 0.50799-0.15875l-0.09207-0.17145c-0.1143 0.07302-0.23812 0.12065-0.38417 0.12065-0.29527 0-0.49529-0.20955-0.51434-0.54292h1.0414c0.0063-0.0381 0.0095-0.0889 0.0095-0.14287 0-0.44132-0.22225-0.72389-0.61594-0.72389-0.35242 0-0.69214 0.30797-0.69214 0.81279zm0.254-0.11747c0.03175-0.31114 0.2286-0.48894 0.44449-0.48894 0.2413 0 0.38099 0.17462 0.38099 0.48894z"/>
  </g>
  <g aria-label="distance">
   <path d="m28.171 48.488c0 0.54602 0.26627 0.85611 0.67747 0.85611 0.19212 0 0.36738-0.10786 0.49546-0.23256h0.01011l0.02359 0.19212h0.22919v-2.3998h-0.27975v0.63028l0.01348 0.27975c-0.14493-0.11797-0.26964-0.18875-0.45839-0.18875-0.37413 0-0.71118 0.33031-0.71118 0.86285zm0.28649-0.0034c0-0.37412 0.20897-0.62691 0.47187-0.62691 0.13482 0 0.25953 0.04719 0.39772 0.1719v0.85611c-0.13482 0.15167-0.26627 0.22582-0.41794 0.22582-0.28649 0-0.45165-0.23594-0.45165-0.62691z"/>
   <path d="m30.3 47.328c0.10786 0 0.19212-0.07415 0.19212-0.17864 0-0.10786-0.08426-0.17864-0.19212-0.17864-0.10786 0-0.19212 0.07078-0.19212 0.17864 0 0.10449 0.08426 0.17864 0.19212 0.17864zm-0.14156 1.9751h0.27638v-1.6381h-0.27638z"/>
   <path d="m30.806 49.118c0.15504 0.12808 0.3775 0.22582 0.61006 0.22582 0.38761 0 0.59995-0.22245 0.59995-0.48872 0-0.31009-0.2629-0.40783-0.49883-0.49546-0.18538-0.07078-0.36401-0.13145-0.36401-0.28312 0-0.12471 0.09437-0.23594 0.29997-0.23594 0.14493 0 0.2629 0.06067 0.37413 0.14493l0.13145-0.17527c-0.12471-0.10112-0.30334-0.18538-0.50894-0.18538-0.3539 0-0.56287 0.20223-0.56287 0.46513 0 0.27638 0.25616 0.38761 0.48872 0.47187 0.17864 0.06741 0.37412 0.14156 0.37412 0.31009 0 0.14156-0.10786 0.25616-0.32357 0.25616-0.19549 0-0.34042-0.08089-0.48198-0.19549z"/>
   <path d="m32.451 48.798c0 0.32357 0.11797 0.54602 0.4685 0.54602 0.10112 0 0.21234-0.03034 0.30334-0.06067l-0.05393-0.20897c-0.05393 0.02022-0.12808 0.04382-0.18538 0.04382-0.18875 0-0.25279-0.1146-0.25279-0.31683v-0.91004h0.44154v-0.22582h-0.44154v-0.45839h-0.23256l-0.0337 0.45839-0.25616 0.01685v0.20897h0.24268z"/>
   <path d="m33.402 48.878c0 0.29323 0.2056 0.46513 0.48198 0.46513 0.20223 0 0.38424-0.10786 0.54265-0.23594h0.0067l0.02359 0.19549h0.22919v-1.0044c0-0.40783-0.16852-0.6741-0.56962-0.6741-0.2629 0-0.49209 0.1146-0.64376 0.21234l0.11123 0.19212c0.12808-0.08763 0.2966-0.17527 0.48872-0.17527 0.26627 0 0.33705 0.20223 0.33705 0.4112-0.69769 0.07752-1.0078 0.25616-1.0078 0.61343zm0.27301-0.02022c0-0.20897 0.18538-0.34379 0.73477-0.4112v0.45502c-0.15841 0.14156-0.28986 0.21908-0.44828 0.21908-0.16178 0-0.28649-0.07752-0.28649-0.2629z"/>
   <path d="m35.208 49.303h0.27638v-1.1864c0.16515-0.16516 0.27975-0.25279 0.44828-0.25279 0.21571 0 0.31009 0.13145 0.31009 0.43816v1.001h0.27638v-1.0381c0-0.41794-0.15504-0.6404-0.49883-0.6404-0.22582 0-0.39435 0.12134-0.54939 0.27638h-0.01011l-0.02359-0.23594h-0.22919z"/>
   <path d="m36.93 48.488c0 0.54265 0.33368 0.85611 0.76847 0.85611 0.19549 0 0.38424-0.08089 0.53254-0.21234l-0.12471-0.18201c-0.09774 0.08763-0.22919 0.16516-0.38424 0.16516-0.29997 0-0.50558-0.25279-0.50558-0.62691 0-0.3775 0.21571-0.63365 0.51232-0.63365 0.13145 0 0.23256 0.06067 0.33031 0.14493l0.13819-0.17864c-0.11123-0.10449-0.2629-0.19549-0.47861-0.19549-0.42131 0-0.7887 0.31346-0.7887 0.86285z"/>
   <path d="m38.391 48.488c0 0.53591 0.34716 0.85611 0.78533 0.85611 0.22245 0 0.39772-0.07752 0.53928-0.16852l-0.09775-0.18201c-0.12134 0.07752-0.25279 0.12808-0.40783 0.12808-0.31346 0-0.5258-0.22245-0.54602-0.57636h1.1055c0.0067-0.04045 0.01011-0.09437 0.01011-0.15167 0-0.4685-0.23594-0.76847-0.65388-0.76847-0.37412 0-0.73477 0.32694-0.73477 0.86285zm0.26964-0.12471c0.03371-0.33031 0.24268-0.51906 0.47187-0.51906 0.25616 0 0.40446 0.18538 0.40446 0.51906z"/>
  </g>
  <g transform="rotate(-45)" aria-label="jitter">
   <path d="m28.866 49.611c0 0.18732-0.0381 0.30162-0.1905 0.30162-0.05397 0-0.10795-0.0127-0.14605-0.0254l-0.05397 0.19685c0.05397 0.02222 0.13335 0.04127 0.2286 0.04127 0.30797 0 0.42227-0.20002 0.42227-0.51434v-1.7176h-0.26035zm0.13335-2.0351c0.09842 0 0.1778-0.06985 0.1778-0.16827 0-0.1016-0.07937-0.16827-0.1778-0.16827-0.1016 0-0.18097 0.06667-0.18097 0.16827 0 0.09842 0.07937 0.16827 0.18097 0.16827z"/>
   <path d="m29.777 47.576c0.1016 0 0.18097-0.06985 0.18097-0.16827 0-0.1016-0.07937-0.16827-0.18097-0.16827-0.1016 0-0.18097 0.06667-0.18097 0.16827 0 0.09842 0.07937 0.16827 0.18097 0.16827zm-0.13335 1.8605h0.26035v-1.543h-0.26035z"/>
   <path d="m30.469 48.96c0 0.3048 0.11112 0.51434 0.44132 0.51434 0.09525 0 0.20002-0.02857 0.28574-0.05715l-0.0508-0.19685c-0.0508 0.01905-0.12065 0.04127-0.17462 0.04127-0.1778 0-0.23812-0.10795-0.23812-0.29845v-0.85724h0.41592v-0.21272h-0.41592v-0.43179h-0.21907l-0.03175 0.43179-0.2413 0.01588v0.19685h0.2286z"/>
   <path d="m31.542 48.96c0 0.3048 0.11112 0.51434 0.44132 0.51434 0.09525 0 0.20002-0.02857 0.28574-0.05715l-0.0508-0.19685c-0.0508 0.01905-0.12065 0.04127-0.17462 0.04127-0.1778 0-0.23812-0.10795-0.23812-0.29845v-0.85724h0.41592v-0.21272h-0.41592v-0.43179h-0.21907l-0.03175 0.43179-0.2413 0.01588v0.19685h0.2286z"/>
   <path d="m32.425 48.668c0 0.50482 0.32702 0.80644 0.73976 0.80644 0.20955 0 0.37464-0.07302 0.50799-0.15875l-0.09207-0.17145c-0.1143 0.07302-0.23812 0.12065-0.38417 0.12065-0.29527 0-0.49529-0.20955-0.51434-0.54292h1.0414c0.0063-0.0381 0.0095-0.0889 0.0095-0.14287 0-0.44132-0.22225-0.72389-0.61594-0.72389-0.35242 0-0.69214 0.30797-0.69214 0.81279zm0.254-0.11747c0.03175-0.31114 0.2286-0.48894 0.44449-0.48894 0.2413 0 0.38099 0.17462 0.38099 0.48894z"/>
   <path d="m34.115 49.436h0.26035v-0.99058c0.10477-0.26035 0.26035-0.35559 0.39052-0.35559 0.0635 0 0.09842 0.0095 0.14922 0.0254l0.0508-0.2286c-0.0508-0.02222-0.09842-0.03175-0.1651-0.03175-0.17462 0-0.33337 0.12382-0.43814 0.3175h-0.0095l-0.02222-0.2794h-0.21593z"/>
  </g>
 </g>
 <path d="m3.8365 43.167v2.3363h63.081v-2.3363" fill="none" stroke="#a6aeb8" stroke-width=".26458"/>
 <g fill="#e8eaec" stroke-width="201.8">
  <g transform="matrix(.0047704 0 0 -.004852 42.788 21.325)">
   <g fill="#e8eaec" stroke-width="201.8">
    <path d="m486.41 221.41-364.07-208.5c-52.938-30.318-95.852-5.44-95.852 55.563v415.65c0 61.004 42.914 85.882 95.852 55.563l364.07-208.49c52.938-30.317 52.938-79.473 0-109.79z" fill="#e8eaec" stroke-width="201.8"/>
   </g>
  </g>
  <g transform="matrix(.0046191 -.0011918 -.0012122 -.0046982 47.443 8.5399)">
   <g fill="#e8eaec" stroke-width="201.8">
    <path d="m486.41 221.41-364.07-208.5c-52.938-30.318-95.852-5.44-95.852 55.563v415.65c0 61.004 42.914 85.882 95.852 55.563l364.07-208.49c52.938-30.317 52.938-79.473 0-109.79z" fill="#e8eaec" stroke-width="201.8"/>
   </g>
  </g>
  <g transform="matrix(-.00027128 .0029014 .0029511 .00027592 59.537 4.233)">
   <g fill="#e8eaec" stroke-width="201.8">
    <path d="m486.41 221.41-364.07-208.5c-52.938-30.318-95.852-5.44-95.852 55.563v415.65c0 61.004 42.914 85.882 95.852 55.563l364.07-208.49c52.938-30.317 52.938-79.473 0-109.79z" fill="#e8eaec" stroke-width="201.8"/>
   </g>
  </g>
  <g transform="matrix(-.00069074 .002831 .0028795 .00070257 51.004 12.824)">
   <g fill="#e8eaec" stroke-width="201.8">
    <path d="m486.41 221.41-364.07-208.5c-52.938-30.318-95.852-5.44-95.852 55.563v415.65c0 61.004 42.914 85.882 95.852 55.563l364.07-208.49c52.938-30.317 52.938-79.473 0-109.79z" fill="#e8eaec" stroke-width="201.8"/>
   </g>
  </g>
 </g>
</svg>
