<?xml version="1.0" encoding="UTF-8"?>
<svg width="355.3" height="201.89" version="1.1" viewBox="0 0 94.009 53.419" xmlns="http://www.w3.org/2000/svg" xmlns:cc="http://creativecommons.org/ns#" xmlns:dc="http://purl.org/dc/elements/1.1/" xmlns:rdf="http://www.w3.org/1999/02/22-rdf-syntax-ns#">
 <metadata>
  <rdf:RDF>
   <cc:Work rdf:about="">
    <dc:format>image/svg+xml</dc:format>
    <dc:type rdf:resource="http://purl.org/dc/dcmitype/StillImage"/>
    <dc:title/>
   </cc:Work>
  </rdf:RDF>
 </metadata>
 <path d="m44.769 52.144 14.112-24.65" fill="none" stroke="#e8eaec" stroke-width=".26459"/>
 <path transform="matrix(.26207 -.50093 .2929 .15324 -128.8 -5.3287)" d="m73.143 404.25-20.354 11.751v-23.503z" fill="#6f8ce9"/>
 <path d="m4.7528 27.338h52.423" fill="none" stroke="#e8eaec" stroke-width=".26459"/>
 <circle cx="87.41" cy="27.161" r="6.4677" fill="#1d232d" stroke="#a6aeb8" stroke-width=".26459"/>
 <g fill="none">
  <path d="m4.8001 27.258 7.0561-12.325 3.5281-6.1626 1.764-3.0814" stroke="#e8eaec" stroke-width=".26459"/>
  <path d="m4.8154 27.376 31.332-11.628" stroke="#e9e56f" stroke-width=".52918"/>
  <path d="m20.982 38.473 20.042 13.384" stroke="#e8eaec" stroke-dasharray="0.26459, 0.793769" stroke-linecap="square" stroke-width=".26459"/>
  <path d="m4.551 27.65 17.41 11.502" stroke="#e8eaec" stroke-width=".26459"/>
 </g>
 <circle cx="4.7042" cy="27.452" r=".84888" fill="#e8eaec"/>
 <path d="m18.78 2.4261 17.411 11.502" fill="none" stroke="#e8eaec" stroke-width=".26459"/>
 <g fill="#e8eaec">
  <g stroke-width=".64677px">
   <g aria-label="target">
    <path d="m83.21 35.658c0 0.30481 0.11113 0.51436 0.44134 0.51436 0.09525 0 0.20003-0.02858 0.28576-0.05715l-0.0508-0.19686c-0.0508 0.01905-0.12065 0.04128-0.17463 0.04128-0.1778 0-0.23813-0.10795-0.23813-0.29846v-0.85727h0.41594v-0.21274h-0.41594v-0.43181h-0.21908l-0.03175 0.43181-0.24131 0.01588v0.19686h0.22861z"/>
    <path d="m84.106 35.734c0 0.27623 0.19368 0.43816 0.45404 0.43816 0.1905 0 0.36196-0.1016 0.51119-0.22226h0.0063l0.02222 0.18415h0.21591v-0.94617c0-0.38418-0.15875-0.63502-0.53659-0.63502-0.24766 0-0.46356 0.10795-0.60644 0.20003l0.10478 0.18098c0.12065-0.08255 0.27941-0.1651 0.46039-0.1651 0.25083 0 0.31751 0.1905 0.31751 0.38736-0.65724 0.07303-0.94935 0.24131-0.94935 0.57786zm0.25718-0.01905c0-0.19686 0.17463-0.32386 0.69217-0.38736v0.42864c-0.14923 0.13335-0.27306 0.20638-0.42228 0.20638-0.1524 0-0.26988-0.07303-0.26988-0.24766z"/>
    <path d="m85.807 36.134h0.26036v-0.99062c0.10478-0.26036 0.26036-0.35561 0.39054-0.35561 0.0635 0 0.09843 0.0095 0.14923 0.0254l0.0508-0.22861c-0.0508-0.02222-0.09843-0.03175-0.1651-0.03175-0.17463 0-0.33338 0.12383-0.43816 0.31751h-0.0095l-0.02223-0.27941h-0.21591z"/>
    <path d="m86.991 36.395c0-0.0889 0.04763-0.18098 0.15875-0.26036 0.06668 0.01905 0.1397 0.0254 0.20003 0.0254h0.26671c0.20003 0 0.31116 0.04763 0.31116 0.1905 0 0.16193-0.19368 0.31433-0.48896 0.31433-0.27941 0-0.44769-0.10478-0.44769-0.26988zm-0.22861 0.03493c0 0.26671 0.26036 0.41594 0.63819 0.41594 0.47944 0 0.78107-0.24766 0.78107-0.53341 0-0.25718-0.18098-0.36831-0.53976-0.36831h-0.29846c-0.20956 0-0.27306-0.06985-0.27306-0.16828 0-0.08573 0.04445-0.13653 0.09843-0.18415 0.06985 0.03493 0.15558 0.05398 0.23178 0.05398 0.31433 0 0.56516-0.20638 0.56516-0.53659 0-0.13018-0.05398-0.24766-0.127-0.31751h0.31751v-0.20003h-0.53659c-0.05715-0.02222-0.13335-0.0381-0.21908-0.0381-0.31433 0-0.58104 0.21273-0.58104 0.54929 0 0.18416 0.09843 0.33338 0.20003 0.41594v0.0127c-0.07938 0.05398-0.16828 0.15558-0.16828 0.28576 0 0.12065 0.06033 0.2032 0.13653 0.25083v0.0127c-0.1397 0.09525-0.22543 0.21908-0.22543 0.34926zm0.63819-0.95888c-0.1778 0-0.32703-0.14288-0.32703-0.36831 0-0.22543 0.14605-0.35878 0.32703-0.35878 0.18098 0 0.32703 0.13335 0.32703 0.35878 0 0.22543-0.14923 0.36831-0.32703 0.36831z"/>
    <path d="m88.322 35.366c0 0.50484 0.32703 0.80647 0.73979 0.80647 0.20956 0 0.37466-0.07303 0.50801-0.15875l-0.09208-0.17145c-0.1143 0.07303-0.23813 0.12065-0.38418 0.12065-0.29528 0-0.49531-0.20956-0.51436-0.54294h1.0414c0.0064-0.0381 0.0095-0.0889 0.0095-0.14288 0-0.44134-0.22226-0.72392-0.61597-0.72392-0.35243 0-0.69217 0.30798-0.69217 0.81282zm0.25401-0.11748c0.03175-0.31116 0.22861-0.48896 0.44451-0.48896 0.24131 0 0.38101 0.17463 0.38101 0.48896z"/>
    <path d="m90.013 35.658c0 0.30481 0.11113 0.51436 0.44134 0.51436 0.09525 0 0.20003-0.02858 0.28576-0.05715l-0.0508-0.19686c-0.0508 0.01905-0.12065 0.04128-0.17463 0.04128-0.1778 0-0.23813-0.10795-0.23813-0.29846v-0.85727h0.41594v-0.21274h-0.41594v-0.43181h-0.21908l-0.03175 0.43181-0.24131 0.01588v0.19686h0.2286z"/>
   </g>
   <g transform="rotate(-60)" aria-label="-current velocity">
    <path d="m-19.519 67.147h0.73027v-0.20003h-0.73027z"/>
    <path d="m-18.517 67.074c0 0.51119 0.31433 0.80647 0.72392 0.80647 0.18416 0 0.36196-0.0762 0.50166-0.20003l-0.11748-0.17146c-0.09208 0.08255-0.21591 0.15558-0.36196 0.15558-0.28258 0-0.47626-0.23813-0.47626-0.59056 0-0.35561 0.2032-0.59692 0.48261-0.59692 0.12383 0 0.21908 0.05715 0.31116 0.13653l0.13018-0.16828c-0.10478-0.09843-0.24766-0.18416-0.45086-0.18416-0.39688 0-0.74297 0.29528-0.74297 0.81282z"/>
    <path d="m-16.98 67.277c0 0.39371 0.14605 0.60326 0.47309 0.60326 0.21273 0 0.36513-0.11113 0.50801-0.27941h0.0095l0.02222 0.24131h0.21591v-1.5431h-0.26036v1.0954c-0.14605 0.18098-0.25718 0.26036-0.41594 0.26036-0.20321 0-0.28893-0.12383-0.28893-0.41276v-0.943h-0.26353z"/>
    <path d="m-15.227 67.842h0.26036v-0.99062c0.10478-0.26036 0.26036-0.35561 0.39054-0.35561 0.0635 0 0.09843 0.0095 0.14923 0.0254l0.0508-0.22861c-0.0508-0.02223-0.09843-0.03175-0.1651-0.03175-0.17463 0-0.33338 0.12383-0.43816 0.31751h-0.0095l-0.02223-0.27941h-0.2159z"/>
    <path d="m-14.124 67.842h0.26036v-0.99062c0.10478-0.26036 0.26036-0.35561 0.39054-0.35561 0.0635 0 0.09843 0.0095 0.14923 0.0254l0.0508-0.22861c-0.0508-0.02223-0.09843-0.03175-0.1651-0.03175-0.17463 0-0.33338 0.12383-0.43816 0.31751h-0.0095l-0.02223-0.27941h-0.21591z"/>
    <path d="m-13.165 67.074c0 0.50484 0.32703 0.80647 0.73979 0.80647 0.20956 0 0.37466-0.07303 0.50801-0.15875l-0.09208-0.17145c-0.1143 0.07303-0.23813 0.12065-0.38418 0.12065-0.29528 0-0.49531-0.20956-0.51436-0.54294h1.0414c0.0064-0.0381 0.0095-0.0889 0.0095-0.14288 0-0.44134-0.22226-0.72392-0.61596-0.72392-0.35243 0-0.69217 0.30798-0.69217 0.81282zm0.25401-0.11748c0.03175-0.31116 0.2286-0.48896 0.44451-0.48896 0.24131 0 0.38101 0.17463 0.38101 0.48896z"/>
    <path d="m-11.476 67.842h0.26036v-1.1176c0.15558-0.15558 0.26353-0.23813 0.42228-0.23813 0.20321 0 0.29211 0.12383 0.29211 0.41276v0.943h0.26036v-0.97792c0-0.39371-0.14605-0.60326-0.46991-0.60326-0.21273 0-0.37148 0.1143-0.51754 0.26036h-0.0095l-0.02223-0.22226h-0.21591z"/>
    <path d="m-9.6948 67.366c0 0.30481 0.11113 0.51436 0.44134 0.51436 0.095252 0 0.20003-0.02858 0.28576-0.05715l-0.050801-0.19686c-0.050801 0.01905-0.12065 0.04128-0.17463 0.04128-0.1778 0-0.23813-0.10795-0.23813-0.29846v-0.85727h0.41594v-0.21273h-0.41594v-0.43182h-0.21908l-0.031751 0.43181-0.24131 0.01587v0.19686h0.22861z"/>
    <path d="m-7.6943 67.842h0.30481l0.54611-1.5431h-0.25718l-0.29211 0.87632c-0.044451 0.1524-0.095252 0.30798-0.1397 0.45404h-0.0127c-0.047626-0.14605-0.098427-0.30163-0.14288-0.45404l-0.29211-0.87632h-0.26988z"/>
    <path d="m-6.6723 67.074c0 0.50484 0.32703 0.80647 0.73979 0.80647 0.20956 0 0.37466-0.07303 0.50801-0.15875l-0.092077-0.17145c-0.1143 0.07303-0.23813 0.12065-0.38418 0.12065-0.29528 0-0.49531-0.20956-0.51436-0.54294h1.0414c0.00635-0.0381 0.00953-0.0889 0.00953-0.14288 0-0.44134-0.22226-0.72392-0.61597-0.72392-0.35243 0-0.69217 0.30798-0.69217 0.81282zm0.25401-0.11748c0.031751-0.31116 0.22861-0.48896 0.44451-0.48896 0.24131 0 0.38101 0.17463 0.38101 0.48896z"/>
    <path d="m-4.9828 67.531c0 0.22543 0.079377 0.34926 0.27623 0.34926 0.069852 0 0.1143-0.0095 0.14923-0.0254l-0.034926-0.19686c-0.028576 0.0064-0.041276 0.0064-0.057151 0.0064-0.038101 0-0.073027-0.03175-0.073027-0.1143v-1.9686h-0.26036z"/>
    <path d="m-4.2847 67.074c0 0.51119 0.33656 0.80647 0.71439 0.80647s0.71439-0.29528 0.71439-0.80647c0-0.51754-0.33656-0.81282-0.71439-0.81282s-0.71439 0.29528-0.71439 0.81282zm0.26988 0c0-0.35561 0.18098-0.59692 0.44451-0.59692 0.26671 0 0.44451 0.24131 0.44451 0.59692 0 0.35243-0.1778 0.59056-0.44451 0.59056-0.26353 0-0.44451-0.23813-0.44451-0.59056z"/>
    <path d="m-2.5608 67.074c0 0.51119 0.31433 0.80647 0.72392 0.80647 0.18415 0 0.36196-0.0762 0.50166-0.20003l-0.11748-0.17146c-0.092077 0.08255-0.21591 0.15558-0.36196 0.15558-0.28258 0-0.47626-0.23813-0.47626-0.59056 0-0.35561 0.20321-0.59692 0.48261-0.59692 0.12383 0 0.21908 0.05715 0.31116 0.13653l0.13018-0.16828c-0.10478-0.09843-0.24766-0.18416-0.45086-0.18416-0.39688 0-0.74297 0.29528-0.74297 0.81282z"/>
    <path d="m-0.86821 65.982c0.1016 0 0.18098-0.06985 0.18098-0.16828 0-0.1016-0.079377-0.16828-0.18098-0.16828s-0.18098 0.06668-0.18098 0.16828c0 0.09843 0.079377 0.16828 0.18098 0.16828zm-0.13335 1.8606h0.26036v-1.5431h-0.26036z"/>
    <path d="m-0.17574 67.366c0 0.30481 0.11113 0.51436 0.44134 0.51436 0.095252 0 0.20003-0.02858 0.28576-0.05715l-0.050801-0.19686c-0.050801 0.01905-0.12065 0.04128-0.17463 0.04128-0.1778 0-0.23813-0.10795-0.23813-0.29846v-0.85727h0.41594v-0.21273h-0.41594v-0.43182h-0.21908l-0.031751 0.43181-0.24131 0.01587v0.19686h0.22861z"/>
    <path d="m0.74785 68.268-0.050801 0.20638c0.050801 0.01905 0.11113 0.03175 0.18098 0.03175 0.31116 0 0.46991-0.23178 0.57786-0.53659l0.58104-1.6701h-0.25401l-0.27623 0.8541c-0.041276 0.13653-0.085727 0.29528-0.13018 0.43498h-0.0127c-0.047626-0.14288-0.1016-0.30163-0.14923-0.43498l-0.31433-0.8541h-0.26988l0.61914 1.5463-0.034926 0.1143c-0.063502 0.1905-0.17463 0.33021-0.34926 0.33021-0.038101 0-0.085727-0.0127-0.11748-0.02223z"/>
   </g>
   <g transform="rotate(33.467)" aria-label="steering force">
    <path d="m17.475-10.146c0.14605 0.12065 0.35561 0.21273 0.57469 0.21273 0.36514 0 0.56516-0.20956 0.56516-0.46039 0-0.29211-0.24766-0.38418-0.46991-0.46674-0.17463-0.06668-0.34291-0.12383-0.34291-0.26671 0-0.11748 0.0889-0.22226 0.28258-0.22226 0.13653 0 0.24766 0.05715 0.35243 0.13653l0.12383-0.1651c-0.11748-0.09525-0.28576-0.17463-0.47944-0.17463-0.33338 0-0.53024 0.1905-0.53024 0.43816 0 0.26036 0.24131 0.36513 0.46039 0.44451 0.16828 0.0635 0.35243 0.13335 0.35243 0.29211 0 0.13335-0.1016 0.24131-0.30481 0.24131-0.18416 0-0.32068-0.0762-0.45404-0.18415z"/>
    <path d="m19.024-10.447c0 0.30481 0.11113 0.51436 0.44134 0.51436 0.09525 0 0.20003-0.028576 0.28576-0.057151l-0.0508-0.19686c-0.0508 0.01905-0.12065 0.04128-0.17463 0.04128-0.1778 0-0.23813-0.10795-0.23813-0.29846v-0.85728h0.41594v-0.21273h-0.41594v-0.43181h-0.21908l-0.03175 0.43181-0.24131 0.01587v0.19686h0.22861z"/>
    <path d="m19.908-10.739c0 0.50484 0.32703 0.80647 0.73979 0.80647 0.20956 0 0.37466-0.073026 0.50801-0.15875l-0.09208-0.17145c-0.1143 0.07303-0.23813 0.12065-0.38418 0.12065-0.29528 0-0.49531-0.20956-0.51436-0.54294h1.0414c0.0063-0.0381 0.0095-0.0889 0.0095-0.14288 0-0.44134-0.22226-0.72392-0.61596-0.72392-0.35243 0-0.69217 0.30798-0.69217 0.81282zm0.25401-0.11748c0.03175-0.31116 0.2286-0.48896 0.44451-0.48896 0.24131 0 0.38101 0.17463 0.38101 0.48896z"/>
    <path d="m21.483-10.739c0 0.50484 0.32703 0.80647 0.73979 0.80647 0.20956 0 0.37466-0.073026 0.50801-0.15875l-0.09208-0.17145c-0.1143 0.07303-0.23813 0.12065-0.38418 0.12065-0.29528 0-0.49531-0.20956-0.51436-0.54294h1.0414c0.0064-0.0381 0.0095-0.0889 0.0095-0.14288 0-0.44134-0.22226-0.72392-0.61596-0.72392-0.35243 0-0.69217 0.30798-0.69217 0.81282zm0.25401-0.11748c0.03175-0.31116 0.22861-0.48896 0.44451-0.48896 0.24131 0 0.38101 0.17463 0.38101 0.48896z"/>
    <path d="m23.172-9.9709h0.26036v-0.99063c0.10478-0.26036 0.26036-0.35561 0.39054-0.35561 0.0635 0 0.09843 0.0095 0.14923 0.0254l0.0508-0.22861c-0.0508-0.02222-0.09843-0.03175-0.1651-0.03175-0.17463 0-0.33338 0.12383-0.43816 0.31751h-0.0095l-0.02223-0.27941h-0.21592z"/>
    <path d="m24.409-11.832c0.1016 0 0.18098-0.06985 0.18098-0.16828 0-0.1016-0.07938-0.16828-0.18098-0.16828-0.1016 0-0.18098 0.06668-0.18098 0.16828 0 0.09843 0.07938 0.16828 0.18098 0.16828zm-0.13335 1.8606h0.26036v-1.5431h-0.26036z"/>
    <path d="m25.057-9.9709h0.26036v-1.1176c0.15558-0.15558 0.26353-0.23813 0.42229-0.23813 0.2032 0 0.29211 0.12383 0.29211 0.41276v0.943h0.26036v-0.97792c0-0.39371-0.14605-0.60326-0.46991-0.60326-0.21273 0-0.37148 0.1143-0.51754 0.26036h-0.0095l-0.02223-0.22226h-0.2159z"/>
    <path d="m26.905-9.7106c0-0.088902 0.04763-0.18098 0.15875-0.26036 0.06668 0.01905 0.1397 0.025401 0.20003 0.025401h0.26671c0.20003 0 0.31116 0.047626 0.31116 0.1905 0 0.16193-0.19368 0.31433-0.48896 0.31433-0.27941 0-0.44769-0.10478-0.44769-0.26988zm-0.2286 0.034926c0 0.26671 0.26036 0.41594 0.63819 0.41594 0.47944 0 0.78107-0.24766 0.78107-0.53341 0-0.25718-0.18098-0.36831-0.53976-0.36831h-0.29846c-0.20956 0-0.27306-0.06985-0.27306-0.16828 0-0.08573 0.04445-0.13653 0.09843-0.18415 0.06985 0.03493 0.15558 0.05398 0.23178 0.05398 0.31433 0 0.56516-0.20638 0.56516-0.53659 0-0.13018-0.05398-0.24766-0.127-0.31751h0.31751v-0.20003h-0.53659c-0.05715-0.02223-0.13335-0.0381-0.21908-0.0381-0.31433 0-0.58104 0.21273-0.58104 0.54929 0 0.18416 0.09843 0.33338 0.20003 0.41594v0.0127c-0.07938 0.05398-0.16828 0.15558-0.16828 0.28576 0 0.12065 0.06033 0.20321 0.13653 0.25083v0.0127c-0.1397 0.095252-0.22543 0.21908-0.22543 0.34926zm0.63819-0.95887c-0.1778 0-0.32703-0.14288-0.32703-0.36831 0-0.22543 0.14605-0.35878 0.32703-0.35878 0.18098 0 0.32703 0.13335 0.32703 0.35878 0 0.22543-0.14923 0.36831-0.32703 0.36831z"/>
    <path d="m29.785-12.219c-0.06985-0.02858-0.16193-0.0508-0.25718-0.0508-0.30798 0-0.45086 0.19686-0.45086 0.51119v0.24448l-0.20956 0.01587v0.19686h0.20956v1.3304h0.26036v-1.3304h0.32703v-0.21273h-0.32703v-0.24448c0-0.19686 0.06985-0.29846 0.21591-0.29846 0.05715 0 0.11748 0.0127 0.17463 0.0381z"/>
    <path d="m29.817-10.739c0 0.51119 0.33656 0.80647 0.71439 0.80647 0.37784 0 0.71439-0.29528 0.71439-0.80647 0-0.51754-0.33656-0.81282-0.71439-0.81282-0.37783 0-0.71439 0.29528-0.71439 0.81282zm0.26988 0c0-0.35561 0.18098-0.59692 0.44451-0.59692 0.26671 0 0.44451 0.24131 0.44451 0.59692 0 0.35243-0.1778 0.59056-0.44451 0.59056-0.26353 0-0.44451-0.23813-0.44451-0.59056z"/>
    <path d="m31.656-9.9709h0.26036v-0.99063c0.10478-0.26036 0.26036-0.35561 0.39054-0.35561 0.0635 0 0.09843 0.0095 0.14923 0.0254l0.0508-0.22861c-0.0508-0.02222-0.09843-0.03175-0.1651-0.03175-0.17463 0-0.33338 0.12383-0.43816 0.31751h-0.0095l-0.02223-0.27941h-0.2159z"/>
    <path d="m32.614-10.739c0 0.51119 0.31433 0.80647 0.72392 0.80647 0.18416 0 0.36196-0.076202 0.50166-0.20003l-0.11748-0.17145c-0.09208 0.08255-0.2159 0.15558-0.36196 0.15558-0.28258 0-0.47626-0.23813-0.47626-0.59056 0-0.35561 0.2032-0.59692 0.48261-0.59692 0.12383 0 0.21908 0.05715 0.31116 0.13653l0.13018-0.16828c-0.10478-0.09843-0.24766-0.18415-0.45086-0.18415-0.39688 0-0.74297 0.29528-0.74297 0.81282z"/>
    <path d="m33.991-10.739c0 0.50484 0.32703 0.80647 0.73979 0.80647 0.20956 0 0.37466-0.073026 0.50801-0.15875l-0.09208-0.17145c-0.1143 0.07303-0.23813 0.12065-0.38418 0.12065-0.29528 0-0.49531-0.20956-0.51436-0.54294h1.0414c0.0064-0.0381 0.0095-0.0889 0.0095-0.14288 0-0.44134-0.22226-0.72392-0.61597-0.72392-0.35243 0-0.69217 0.30798-0.69217 0.81282zm0.25401-0.11748c0.03175-0.31116 0.22861-0.48896 0.44451-0.48896 0.24131 0 0.38101 0.17463 0.38101 0.48896z"/>
   </g>
   <g transform="rotate(34.42)" aria-label="steering force">
    <path d="m19.936 25.099c0.14605 0.12065 0.35561 0.21273 0.57469 0.21273 0.36513 0 0.56516-0.20956 0.56516-0.46039 0-0.29211-0.24766-0.38418-0.46991-0.46674-0.17463-0.06668-0.34291-0.12383-0.34291-0.26671 0-0.11748 0.0889-0.22226 0.28258-0.22226 0.13653 0 0.24766 0.05715 0.35243 0.13653l0.12383-0.1651c-0.11748-0.09525-0.28576-0.17463-0.47944-0.17463-0.33338 0-0.53024 0.1905-0.53024 0.43816 0 0.26036 0.24131 0.36514 0.46039 0.44451 0.16828 0.0635 0.35243 0.13335 0.35243 0.29211 0 0.13335-0.1016 0.24131-0.30481 0.24131-0.18416 0-0.32068-0.0762-0.45404-0.18416z"/>
    <path d="m21.485 24.797c0 0.30481 0.11113 0.51436 0.44134 0.51436 0.09525 0 0.20003-0.02858 0.28576-0.05715l-0.0508-0.19686c-0.0508 0.01905-0.12065 0.04128-0.17463 0.04128-0.1778 0-0.23813-0.10795-0.23813-0.29846v-0.85727h0.41594v-0.21273h-0.41594v-0.43181h-0.21908l-0.03175 0.43181-0.24131 0.01588v0.19686h0.22861z"/>
    <path d="m22.368 24.505c0 0.50484 0.32703 0.80647 0.73979 0.80647 0.20956 0 0.37466-0.07303 0.50801-0.15875l-0.09208-0.17145c-0.1143 0.07303-0.23813 0.12065-0.38418 0.12065-0.29528 0-0.49531-0.20956-0.51436-0.54294h1.0414c0.0063-0.0381 0.0095-0.0889 0.0095-0.14288 0-0.44134-0.22226-0.72392-0.61596-0.72392-0.35243 0-0.69217 0.30798-0.69217 0.81282zm0.25401-0.11748c0.03175-0.31116 0.22861-0.48896 0.44451-0.48896 0.24131 0 0.38101 0.17463 0.38101 0.48896z"/>
    <path d="m23.944 24.505c0 0.50484 0.32703 0.80647 0.73979 0.80647 0.20956 0 0.37466-0.07303 0.50801-0.15875l-0.09208-0.17145c-0.1143 0.07303-0.23813 0.12065-0.38418 0.12065-0.29528 0-0.49531-0.20956-0.51436-0.54294h1.0414c0.0064-0.0381 0.0095-0.0889 0.0095-0.14288 0-0.44134-0.22226-0.72392-0.61597-0.72392-0.35243 0-0.69217 0.30798-0.69217 0.81282zm0.25401-0.11748c0.03175-0.31116 0.22861-0.48896 0.44451-0.48896 0.24131 0 0.38101 0.17463 0.38101 0.48896z"/>
    <path d="m25.633 25.273h0.26036v-0.99062c0.10478-0.26036 0.26036-0.35561 0.39053-0.35561 0.0635 0 0.09843 0.0095 0.14923 0.0254l0.0508-0.22861c-0.0508-0.02223-0.09843-0.03175-0.1651-0.03175-0.17463 0-0.33338 0.12383-0.43816 0.31751h-0.0095l-0.02223-0.27941h-0.2159z"/>
    <path d="m26.87 23.413c0.1016 0 0.18098-0.06985 0.18098-0.16828 0-0.1016-0.07938-0.16828-0.18098-0.16828-0.1016 0-0.18098 0.06668-0.18098 0.16828 0 0.09843 0.07938 0.16828 0.18098 0.16828zm-0.13335 1.8606h0.26036v-1.5431h-0.26036z"/>
    <path d="m27.518 25.273h0.26036v-1.1176c0.15558-0.15558 0.26353-0.23813 0.42229-0.23813 0.2032 0 0.29211 0.12383 0.29211 0.41276v0.943h0.26036v-0.97792c0-0.39371-0.14605-0.60326-0.46991-0.60326-0.21273 0-0.37148 0.1143-0.51754 0.26036h-0.0095l-0.02223-0.22226h-0.2159z"/>
    <path d="m29.366 25.534c0-0.0889 0.04763-0.18098 0.15875-0.26036 0.06668 0.01905 0.1397 0.0254 0.20003 0.0254h0.26671c0.20003 0 0.31116 0.04763 0.31116 0.1905 0 0.16193-0.19368 0.31433-0.48896 0.31433-0.27941 0-0.44769-0.10478-0.44769-0.26988zm-0.22861 0.03493c0 0.26671 0.26036 0.41594 0.63819 0.41594 0.47944 0 0.78107-0.24766 0.78107-0.53341 0-0.25718-0.18098-0.36831-0.53976-0.36831h-0.29846c-0.20956 0-0.27306-0.06985-0.27306-0.16828 0-0.08573 0.04445-0.13653 0.09843-0.18416 0.06985 0.03493 0.15558 0.05398 0.23178 0.05398 0.31433 0 0.56516-0.20638 0.56516-0.53659 0-0.13018-0.05398-0.24766-0.127-0.31751h0.31751v-0.20003h-0.53659c-0.05715-0.02222-0.13335-0.0381-0.21908-0.0381-0.31433 0-0.58104 0.21273-0.58104 0.54929 0 0.18416 0.09843 0.33338 0.20003 0.41594v0.0127c-0.07938 0.05398-0.16828 0.15558-0.16828 0.28576 0 0.12065 0.06033 0.2032 0.13653 0.25083v0.0127c-0.1397 0.09525-0.22543 0.21908-0.22543 0.34926zm0.63819-0.95888c-0.1778 0-0.32703-0.14288-0.32703-0.36831s0.14605-0.35878 0.32703-0.35878 0.32703 0.13335 0.32703 0.35878-0.14923 0.36831-0.32703 0.36831z"/>
    <path d="m32.246 23.025c-0.06985-0.02858-0.16193-0.0508-0.25718-0.0508-0.30798 0-0.45086 0.19686-0.45086 0.51119v0.24448l-0.20956 0.01588v0.19686h0.20956v1.3304h0.26036v-1.3304h0.32703v-0.21273h-0.32703v-0.24448c0-0.19686 0.06985-0.29846 0.21591-0.29846 0.05715 0 0.11748 0.0127 0.17463 0.0381z"/>
    <path d="m32.278 24.505c0 0.51119 0.33656 0.80647 0.71439 0.80647 0.37783 0 0.71439-0.29528 0.71439-0.80647 0-0.51754-0.33656-0.81282-0.71439-0.81282-0.37784 0-0.71439 0.29528-0.71439 0.81282zm0.26988 0c0-0.35561 0.18098-0.59692 0.44451-0.59692 0.26671 0 0.44451 0.24131 0.44451 0.59692 0 0.35243-0.1778 0.59056-0.44451 0.59056-0.26353 0-0.44451-0.23813-0.44451-0.59056z"/>
    <path d="m34.116 25.273h0.26036v-0.99062c0.10478-0.26036 0.26036-0.35561 0.39053-0.35561 0.0635 0 0.09843 0.0095 0.14923 0.0254l0.0508-0.22861c-0.0508-0.02223-0.09843-0.03175-0.1651-0.03175-0.17463 0-0.33338 0.12383-0.43816 0.31751h-0.0095l-0.02223-0.27941h-0.2159z"/>
    <path d="m35.075 24.505c0 0.51119 0.31433 0.80647 0.72392 0.80647 0.18415 0 0.36196-0.0762 0.50166-0.20003l-0.11748-0.17145c-0.09208 0.08255-0.2159 0.15558-0.36196 0.15558-0.28258 0-0.47626-0.23813-0.47626-0.59056 0-0.35561 0.2032-0.59692 0.48261-0.59692 0.12383 0 0.21908 0.05715 0.31116 0.13653l0.13018-0.16828c-0.10478-0.09843-0.24766-0.18416-0.45086-0.18416-0.39688 0-0.74297 0.29528-0.74297 0.81282z"/>
    <path d="m36.452 24.505c0 0.50484 0.32703 0.80647 0.73979 0.80647 0.20956 0 0.37466-0.07303 0.50801-0.15875l-0.09208-0.17145c-0.1143 0.07303-0.23813 0.12065-0.38418 0.12065-0.29528 0-0.49531-0.20956-0.51436-0.54294h1.0414c0.0063-0.0381 0.0095-0.0889 0.0095-0.14288 0-0.44134-0.22226-0.72392-0.61596-0.72392-0.35243 0-0.69217 0.30798-0.69217 0.81282zm0.25401-0.11748c0.03175-0.31116 0.22861-0.48896 0.44451-0.48896 0.24131 0 0.38101 0.17463 0.38101 0.48896z"/>
   </g>
   <g transform="rotate(-60)" aria-label="current velocity">
    <path d="m-17.73 14.554c0 0.51119 0.31433 0.80647 0.72392 0.80647 0.18416 0 0.36196-0.0762 0.50166-0.20003l-0.11748-0.17146c-0.09208 0.08255-0.21591 0.15558-0.36196 0.15558-0.28258 0-0.47626-0.23813-0.47626-0.59056 0-0.35561 0.2032-0.59692 0.48261-0.59692 0.12383 0 0.21908 0.05715 0.31116 0.13653l0.13018-0.16828c-0.10478-0.09843-0.24766-0.18415-0.45086-0.18415-0.39688 0-0.74297 0.29528-0.74297 0.81282z"/>
    <path d="m-16.193 14.757c0 0.39371 0.14605 0.60327 0.47309 0.60327 0.21273 0 0.36513-0.11113 0.50801-0.27941h0.0095l0.02223 0.24131h0.21591v-1.5431h-0.26036v1.0954c-0.14605 0.18098-0.25718 0.26036-0.41594 0.26036-0.20321 0-0.28893-0.12383-0.28893-0.41276v-0.943h-0.26353z"/>
    <path d="m-14.441 15.322h0.26036v-0.99062c0.10478-0.26036 0.26036-0.35561 0.39054-0.35561 0.0635 0 0.09843 0.0095 0.14923 0.0254l0.0508-0.2286c-0.0508-0.02223-0.09843-0.03175-0.1651-0.03175-0.17463 0-0.33338 0.12383-0.43816 0.31751h-0.0095l-0.02223-0.27941h-0.2159z"/>
    <path d="m-13.337 15.322h0.26036v-0.99062c0.10478-0.26036 0.26036-0.35561 0.39054-0.35561 0.0635 0 0.09843 0.0095 0.14923 0.0254l0.0508-0.2286c-0.0508-0.02223-0.09843-0.03175-0.1651-0.03175-0.17463 0-0.33338 0.12383-0.43816 0.31751h-0.0095l-0.02222-0.27941h-0.21591z"/>
    <path d="m-12.379 14.554c0 0.50484 0.32703 0.80647 0.73979 0.80647 0.20956 0 0.37466-0.07303 0.50801-0.15875l-0.09208-0.17146c-0.1143 0.07303-0.23813 0.12065-0.38418 0.12065-0.29528 0-0.49531-0.20956-0.51436-0.54294h1.0414c0.0063-0.0381 0.0095-0.0889 0.0095-0.14288 0-0.44134-0.22226-0.72392-0.61596-0.72392-0.35243 0-0.69217 0.30798-0.69217 0.81282zm0.25401-0.11748c0.03175-0.31116 0.22861-0.48896 0.44451-0.48896 0.24131 0 0.38101 0.17463 0.38101 0.48896z"/>
    <path d="m-10.689 15.322h0.26036v-1.1176c0.15558-0.15558 0.26353-0.23813 0.42229-0.23813 0.2032 0 0.29211 0.12383 0.29211 0.41276v0.943h0.26036v-0.97792c0-0.39371-0.14605-0.60326-0.46991-0.60326-0.21273 0-0.37148 0.1143-0.51754 0.26036h-0.0095l-0.02223-0.22226h-0.21591z"/>
    <path d="m-8.9084 14.846c0 0.30481 0.11113 0.51436 0.44134 0.51436 0.095252 0 0.20003-0.02858 0.28576-0.05715l-0.050801-0.19686c-0.050801 0.01905-0.12065 0.04128-0.17463 0.04128-0.1778 0-0.23813-0.10795-0.23813-0.29846v-0.85727h0.41594v-0.21273h-0.41594v-0.43181h-0.21908l-0.031751 0.43181-0.24131 0.01587v0.19686h0.22861z"/>
    <path d="m-6.9079 15.322h0.30481l0.54611-1.5431h-0.25718l-0.29211 0.87632c-0.044451 0.1524-0.095252 0.30798-0.1397 0.45404h-0.0127c-0.047626-0.14605-0.098427-0.30163-0.14288-0.45404l-0.29211-0.87632h-0.26988z"/>
    <path d="m-5.8859 14.554c0 0.50484 0.32703 0.80647 0.73979 0.80647 0.20956 0 0.37466-0.07303 0.50801-0.15875l-0.092077-0.17146c-0.1143 0.07303-0.23813 0.12065-0.38418 0.12065-0.29528 0-0.49531-0.20956-0.51436-0.54294h1.0414c0.00635-0.0381 0.00953-0.0889 0.00953-0.14288 0-0.44134-0.22226-0.72392-0.61597-0.72392-0.35243 0-0.69217 0.30798-0.69217 0.81282zm0.25401-0.11748c0.031751-0.31116 0.22861-0.48896 0.44451-0.48896 0.24131 0 0.38101 0.17463 0.38101 0.48896z"/>
    <path d="m-4.1964 15.011c0 0.22543 0.079377 0.34926 0.27623 0.34926 0.069852 0 0.1143-0.0095 0.14923-0.0254l-0.034926-0.19686c-0.028576 0.0064-0.041276 0.0064-0.057152 0.0064-0.038101 0-0.073027-0.03175-0.073027-0.1143v-1.9685h-0.26036z"/>
    <path d="m-3.4983 14.554c0 0.51119 0.33656 0.80647 0.71439 0.80647 0.37783 0 0.71439-0.29528 0.71439-0.80647 0-0.51754-0.33656-0.81282-0.71439-0.81282-0.37783 0-0.71439 0.29528-0.71439 0.81282zm0.26988 0c0-0.35561 0.18098-0.59692 0.44451-0.59692 0.26671 0 0.44451 0.24131 0.44451 0.59692 0 0.35243-0.1778 0.59056-0.44451 0.59056-0.26353 0-0.44451-0.23813-0.44451-0.59056z"/>
    <path d="m-1.7744 14.554c0 0.51119 0.31433 0.80647 0.72392 0.80647 0.18415 0 0.36196-0.0762 0.50166-0.20003l-0.11748-0.17146c-0.092077 0.08255-0.21591 0.15558-0.36196 0.15558-0.28258 0-0.47626-0.23813-0.47626-0.59056 0-0.35561 0.20321-0.59692 0.48261-0.59692 0.12383 0 0.21908 0.05715 0.31116 0.13653l0.13018-0.16828c-0.10478-0.09843-0.24766-0.18415-0.45086-0.18415-0.39688 0-0.74297 0.29528-0.74297 0.81282z"/>
    <path d="m-0.081809 13.461c0.1016 0 0.18098-0.06985 0.18098-0.16828 0-0.1016-0.079377-0.16828-0.18098-0.16828s-0.18098 0.06668-0.18098 0.16828c0 0.09843 0.079377 0.16828 0.18098 0.16828zm-0.13335 1.8606h0.26036v-1.5431h-0.26036z"/>
    <path d="m0.61066 14.846c0 0.30481 0.11113 0.51436 0.44134 0.51436 0.095252 0 0.20003-0.02858 0.28576-0.05715l-0.050801-0.19686c-0.050801 0.01905-0.12065 0.04128-0.17463 0.04128-0.1778 0-0.23813-0.10795-0.23813-0.29846v-0.85728h0.41594v-0.21273h-0.41594v-0.43181h-0.21908l-0.031751 0.43181-0.24131 0.01587v0.19686h0.22861z"/>
    <path d="m1.5343 15.747-0.050801 0.20638c0.050801 0.01905 0.11113 0.03175 0.18098 0.03175 0.31116 0 0.46991-0.23178 0.57786-0.53659l0.58104-1.6701h-0.25401l-0.27623 0.8541c-0.041276 0.13653-0.085727 0.29528-0.13018 0.43499h-0.0127c-0.047627-0.14288-0.1016-0.30163-0.14923-0.43499l-0.31433-0.8541h-0.26988l0.61914 1.5463-0.034926 0.1143c-0.063501 0.1905-0.17463 0.33021-0.34926 0.33021-0.038101 0-0.085727-0.0127-0.11748-0.02223z"/>
   </g>
   <g transform="rotate(-20.562)" aria-label="new velocity">
    <path d="m3.6318 25.95h0.26036v-1.1176c0.15558-0.15558 0.26353-0.23813 0.42229-0.23813 0.20321 0 0.29211 0.12383 0.29211 0.41276v0.943h0.26036v-0.97792c0-0.39371-0.14605-0.60326-0.46991-0.60326-0.21273 0-0.37148 0.1143-0.51754 0.26036h-0.00953l-0.022221-0.22226h-0.21591z"/>
    <path d="m5.2539 25.182c0 0.50484 0.32703 0.80647 0.73979 0.80647 0.20956 0 0.37466-0.07303 0.50801-0.15875l-0.092077-0.17145c-0.1143 0.07303-0.23813 0.12065-0.38418 0.12065-0.29528 0-0.49531-0.20956-0.51436-0.54294h1.0414c0.00635-0.0381 0.00953-0.0889 0.00953-0.14288 0-0.44134-0.22226-0.72392-0.61597-0.72392-0.35243 0-0.69217 0.30798-0.69217 0.81282zm0.25401-0.11748c0.031751-0.31116 0.22861-0.48896 0.44451-0.48896 0.24131 0 0.38101 0.17463 0.38101 0.48896z"/>
    <path d="m7.2064 25.95h0.30481l0.21591-0.82552c0.041276-0.14605 0.073027-0.29211 0.10795-0.44769h0.0127c0.038101 0.15558 0.066677 0.29846 0.10478 0.44451l0.22226 0.8287h0.31751l0.41276-1.5431h-0.24766l-0.22543 0.8922c-0.031751 0.14605-0.060327 0.28576-0.095252 0.42864h-0.0127c-0.034927-0.14288-0.069852-0.28258-0.10795-0.42864l-0.24131-0.8922h-0.25401l-0.23813 0.8922c-0.038101 0.14288-0.069852 0.28576-0.10478 0.42864h-0.0127c-0.028576-0.14288-0.057152-0.28258-0.092078-0.42864l-0.22861-0.8922h-0.26671z"/>
    <path d="m10.216 25.95h0.30481l0.54611-1.5431h-0.25718l-0.29211 0.87632c-0.04445 0.1524-0.09525 0.30798-0.1397 0.45404h-0.0127c-0.04763-0.14605-0.09843-0.30163-0.14288-0.45404l-0.29211-0.87632h-0.26988z"/>
    <path d="m11.238 25.182c0 0.50484 0.32703 0.80647 0.73979 0.80647 0.20956 0 0.37466-0.07303 0.50801-0.15875l-0.09208-0.17145c-0.1143 0.07303-0.23813 0.12065-0.38418 0.12065-0.29528 0-0.49531-0.20956-0.51436-0.54294h1.0414c0.0064-0.0381 0.0095-0.0889 0.0095-0.14288 0-0.44134-0.22226-0.72392-0.61597-0.72392-0.35243 0-0.69217 0.30798-0.69217 0.81282zm0.25401-0.11748c0.03175-0.31116 0.22861-0.48896 0.44451-0.48896 0.24131 0 0.38101 0.17463 0.38101 0.48896z"/>
    <path d="m12.928 25.639c0 0.22543 0.07938 0.34926 0.27623 0.34926 0.06985 0 0.1143-0.0095 0.14923-0.0254l-0.03492-0.19686c-0.02858 0.0064-0.04128 0.0064-0.05715 0.0064-0.0381 0-0.07303-0.03175-0.07303-0.1143v-1.9686h-0.26036z"/>
    <path d="m13.626 25.182c0 0.51119 0.33656 0.80647 0.71439 0.80647s0.71439-0.29528 0.71439-0.80647c0-0.51754-0.33656-0.81282-0.71439-0.81282s-0.71439 0.29528-0.71439 0.81282zm0.26988 0c0-0.35561 0.18098-0.59692 0.44451-0.59692 0.26671 0 0.44451 0.24131 0.44451 0.59692 0 0.35243-0.1778 0.59056-0.44451 0.59056-0.26353 0-0.44451-0.23813-0.44451-0.59056z"/>
    <path d="m15.35 25.182c0 0.51119 0.31433 0.80647 0.72392 0.80647 0.18415 0 0.36196-0.0762 0.50166-0.20003l-0.11748-0.17145c-0.09208 0.08255-0.2159 0.15558-0.36196 0.15558-0.28258 0-0.47626-0.23813-0.47626-0.59056 0-0.35561 0.2032-0.59692 0.48261-0.59692 0.12383 0 0.21908 0.05715 0.31116 0.13653l0.13018-0.16828c-0.10478-0.09843-0.24766-0.18416-0.45086-0.18416-0.39688 0-0.74297 0.29528-0.74297 0.81282z"/>
    <path d="m17.042 24.09c0.1016 0 0.18098-0.06985 0.18098-0.16828 0-0.1016-0.07938-0.16828-0.18098-0.16828-0.1016 0-0.18098 0.06668-0.18098 0.16828 0 0.09843 0.07938 0.16828 0.18098 0.16828zm-0.13335 1.8606h0.26036v-1.5431h-0.26036z"/>
    <path d="m17.735 25.474c0 0.30481 0.11113 0.51436 0.44134 0.51436 0.09525 0 0.20003-0.02858 0.28576-0.05715l-0.050801-0.19686c-0.0508 0.01905-0.12065 0.04128-0.17463 0.04128-0.1778 0-0.23813-0.10795-0.23813-0.29846v-0.85727h0.41594v-0.21273h-0.41594v-0.43181h-0.21908l-0.03175 0.43181-0.24131 0.01588v0.19685h0.22861z"/>
    <path d="m18.658 26.376-0.0508 0.20638c0.0508 0.01905 0.11113 0.03175 0.18098 0.03175 0.31116 0 0.46991-0.23178 0.57786-0.53659l0.58104-1.6701h-0.25401l-0.27623 0.8541c-0.04128 0.13653-0.08573 0.29528-0.13018 0.43499h-0.0127c-0.04763-0.14288-0.1016-0.30163-0.14923-0.43499l-0.31433-0.8541h-0.26988l0.61914 1.5463-0.03493 0.1143c-0.0635 0.1905-0.17463 0.33021-0.34926 0.33021-0.0381 0-0.08573-0.0127-0.11748-0.02223z"/>
   </g>
   <g aria-label="desired velocity">
    <path d="m22.393 25.283c0 0.51436 0.25083 0.80647 0.63819 0.80647 0.18098 0 0.34608-0.1016 0.46674-0.21908h0.0095l0.02222 0.18098h0.21591v-2.2607h-0.26353v0.59374l0.0127 0.26353c-0.13653-0.11113-0.25401-0.1778-0.43181-0.1778-0.35243 0-0.66994 0.31116-0.66994 0.81282zm0.26988-0.0032c0-0.35243 0.19686-0.59056 0.44451-0.59056 0.127 0 0.24448 0.04445 0.37466 0.16193v0.80647c-0.127 0.14288-0.25083 0.21273-0.39371 0.21273-0.26988 0-0.42546-0.22226-0.42546-0.59056z"/>
    <path d="m24.151 25.283c0 0.50484 0.32703 0.80647 0.73979 0.80647 0.20956 0 0.37466-0.07303 0.50801-0.15875l-0.09208-0.17145c-0.1143 0.07303-0.23813 0.12065-0.38418 0.12065-0.29528 0-0.49531-0.20956-0.51436-0.54294h1.0414c0.0064-0.0381 0.0095-0.0889 0.0095-0.14288 0-0.44134-0.22226-0.72392-0.61597-0.72392-0.35243 0-0.69217 0.30798-0.69217 0.81282zm0.25401-0.11748c0.03175-0.31116 0.22861-0.48896 0.44451-0.48896 0.24131 0 0.38101 0.17463 0.38101 0.48896z"/>
    <path d="m25.669 25.877c0.14605 0.12065 0.35561 0.21273 0.57469 0.21273 0.36513 0 0.56516-0.20956 0.56516-0.46039 0-0.29211-0.24766-0.38418-0.46991-0.46674-0.17463-0.06668-0.34291-0.12383-0.34291-0.26671 0-0.11748 0.0889-0.22226 0.28258-0.22226 0.13653 0 0.24766 0.05715 0.35243 0.13653l0.12383-0.1651c-0.11748-0.09525-0.28576-0.17463-0.47944-0.17463-0.33338 0-0.53024 0.1905-0.53024 0.43816 0 0.26036 0.24131 0.36514 0.46039 0.44451 0.16828 0.0635 0.35243 0.13335 0.35243 0.29211 0 0.13335-0.1016 0.24131-0.30481 0.24131-0.18415 0-0.32068-0.0762-0.45404-0.18416z"/>
    <path d="m27.307 24.191c0.1016 0 0.18098-0.06985 0.18098-0.16828 0-0.1016-0.07938-0.16828-0.18098-0.16828-0.1016 0-0.18098 0.06668-0.18098 0.16828 0 0.09843 0.07938 0.16828 0.18098 0.16828zm-0.13335 1.8606h0.26036v-1.5431h-0.26036z"/>
    <path d="m27.955 26.052h0.26036v-0.99062c0.10478-0.26036 0.26036-0.35561 0.39054-0.35561 0.0635 0 0.09843 0.0095 0.14923 0.0254l0.0508-0.22861c-0.0508-0.02223-0.09843-0.03175-0.1651-0.03175-0.17463 0-0.33338 0.12383-0.43816 0.31751h-0.0095l-0.02223-0.27941h-0.2159z"/>
    <path d="m28.913 25.283c0 0.50484 0.32703 0.80647 0.73979 0.80647 0.20956 0 0.37466-0.07303 0.50801-0.15875l-0.09208-0.17145c-0.1143 0.07303-0.23813 0.12065-0.38418 0.12065-0.29528 0-0.49531-0.20956-0.51436-0.54294h1.0414c0.0063-0.0381 0.0095-0.0889 0.0095-0.14288 0-0.44134-0.22226-0.72392-0.61597-0.72392-0.35243 0-0.69217 0.30798-0.69217 0.81282zm0.25401-0.11748c0.03175-0.31116 0.22861-0.48896 0.44451-0.48896 0.24131 0 0.38101 0.17463 0.38101 0.48896z"/>
    <path d="m30.492 25.283c0 0.51436 0.25083 0.80647 0.63819 0.80647 0.18098 0 0.34608-0.1016 0.46674-0.21908h0.0095l0.02223 0.18098h0.21591v-2.2607h-0.26353v0.59374l0.0127 0.26353c-0.13653-0.11113-0.25401-0.1778-0.43181-0.1778-0.35243 0-0.66994 0.31116-0.66994 0.81282zm0.26988-0.0032c0-0.35243 0.19686-0.59056 0.44451-0.59056 0.127 0 0.24448 0.04445 0.37466 0.16193v0.80647c-0.127 0.14288-0.25083 0.21273-0.39371 0.21273-0.26988 0-0.42546-0.22226-0.42546-0.59056z"/>
    <path d="m33.336 26.052h0.30481l0.54611-1.5431h-0.25718l-0.29211 0.87632c-0.04445 0.1524-0.09525 0.30798-0.1397 0.45404h-0.0127c-0.04763-0.14605-0.09843-0.30163-0.14288-0.45404l-0.29211-0.87632h-0.26988z"/>
    <path d="m34.358 25.283c0 0.50484 0.32703 0.80647 0.73979 0.80647 0.20956 0 0.37466-0.07303 0.50801-0.15875l-0.09208-0.17145c-0.1143 0.07303-0.23813 0.12065-0.38418 0.12065-0.29528 0-0.49531-0.20956-0.51436-0.54294h1.0414c0.0063-0.0381 0.0095-0.0889 0.0095-0.14288 0-0.44134-0.22226-0.72392-0.61596-0.72392-0.35243 0-0.69217 0.30798-0.69217 0.81282zm0.25401-0.11748c0.03175-0.31116 0.22861-0.48896 0.44451-0.48896 0.24131 0 0.38101 0.17463 0.38101 0.48896z"/>
    <path d="m36.048 25.741c0 0.22543 0.07938 0.34926 0.27623 0.34926 0.06985 0 0.1143-0.0095 0.14923-0.0254l-0.03493-0.19686c-0.02858 0.0063-0.04128 0.0063-0.05715 0.0063-0.0381 0-0.07303-0.03175-0.07303-0.1143v-1.9686h-0.26036z"/>
    <path d="m36.746 25.283c0 0.51119 0.33656 0.80647 0.71439 0.80647 0.37783 0 0.71439-0.29528 0.71439-0.80647 0-0.51754-0.33656-0.81282-0.71439-0.81282-0.37784 0-0.71439 0.29528-0.71439 0.81282zm0.26988 0c0-0.35561 0.18098-0.59692 0.44451-0.59692 0.26671 0 0.44451 0.24131 0.44451 0.59692 0 0.35243-0.1778 0.59056-0.44451 0.59056-0.26353 0-0.44451-0.23813-0.44451-0.59056z"/>
    <path d="m38.47 25.283c0 0.51119 0.31433 0.80647 0.72392 0.80647 0.18416 0 0.36196-0.0762 0.50166-0.20003l-0.11748-0.17145c-0.09208 0.08255-0.2159 0.15558-0.36196 0.15558-0.28258 0-0.47626-0.23813-0.47626-0.59056 0-0.35561 0.2032-0.59692 0.48261-0.59692 0.12383 0 0.21908 0.05715 0.31116 0.13653l0.13018-0.16828c-0.10478-0.09843-0.24766-0.18416-0.45086-0.18416-0.39688 0-0.74297 0.29528-0.74297 0.81282z"/>
    <path d="m40.162 24.191c0.1016 0 0.18098-0.06985 0.18098-0.16828 0-0.1016-0.07938-0.16828-0.18098-0.16828-0.1016 0-0.18098 0.06668-0.18098 0.16828 0 0.09843 0.07938 0.16828 0.18098 0.16828zm-0.13335 1.8606h0.26036v-1.5431h-0.26036z"/>
    <path d="m40.855 25.576c0 0.30481 0.11113 0.51436 0.44134 0.51436 0.09525 0 0.20003-0.02858 0.28576-0.05715l-0.0508-0.19686c-0.0508 0.01905-0.12065 0.04128-0.17463 0.04128-0.1778 0-0.23813-0.10795-0.23813-0.29846v-0.85728h0.41594v-0.21273h-0.41594v-0.43181h-0.21908l-0.03175 0.43181-0.24131 0.01588v0.19686h0.22861z"/>
    <path d="m41.778 26.477-0.0508 0.20638c0.0508 0.01905 0.11113 0.03175 0.18098 0.03175 0.31116 0 0.46991-0.23178 0.57786-0.53659l0.58104-1.6701h-0.25401l-0.27623 0.8541c-0.04128 0.13653-0.08573 0.29528-0.13018 0.43499h-0.0127c-0.04763-0.14288-0.1016-0.30163-0.14923-0.43499l-0.31433-0.8541h-0.26988l0.61914 1.5463-0.03493 0.1143c-0.0635 0.1905-0.17463 0.33021-0.34926 0.33021-0.0381 0-0.08573-0.0127-0.11748-0.02222z"/>
   </g>
  </g>
  <g stroke-width="201.8">
   <g transform="matrix(.0061902 0 0 -.0062962 55.631 29.046)">
    <g fill="#e8eaec" stroke-width="201.8">
     <path d="m486.41 221.41-364.07-208.5c-52.938-30.318-95.852-5.44-95.852 55.563v415.65c0 61.004 42.914 85.882 95.852 55.563l364.07-208.49c52.938-30.317 52.938-79.473 0-109.79z" fill="#e8eaec" stroke-width="201.8"/>
    </g>
   </g>
   <g transform="matrix(.005133 .00346 .0035193 -.0052209 19.981 39.859)">
    <g fill="#e8eaec" stroke-width="201.8">
     <path d="m486.41 221.41-364.07-208.5c-52.938-30.318-95.852-5.44-95.852 55.563v415.65c0 61.004 42.914 85.882 95.852 55.563l364.07-208.49c52.938-30.317 52.938-79.473 0-109.79z" fill="#e8eaec" stroke-width="201.8"/>
    </g>
   </g>
   <g transform="matrix(.005133 .00346 .0035193 -.0052209 39.464 52.89)">
    <g fill="#e8eaec" stroke-width="201.8">
     <path d="m486.41 221.41-364.07-208.5c-52.938-30.318-95.852-5.44-95.852 55.563v415.65c0 61.004 42.914 85.882 95.852 55.563l364.07-208.49c52.938-30.317 52.938-79.473 0-109.79z" fill="#e8eaec" stroke-width="201.8"/>
    </g>
   </g>
   <g transform="matrix(-.0033514 .0052045 .0052936 .0034088 44.226 49.593)">
    <g fill="#e8eaec" stroke-width="201.8">
     <path d="m486.41 221.41-364.07-208.5c-52.938-30.318-95.852-5.44-95.852 55.563v415.65c0 61.004 42.914 85.882 95.852 55.563l364.07-208.49c52.938-30.317 52.938-79.473 0-109.79z" fill="#e8eaec" stroke-width="201.8"/>
    </g>
   </g>
   <g transform="matrix(.0028444 -.005498 -.0055922 -.0028931 18.556 6.9407)">
    <g fill="#e8eaec" stroke-width="201.8">
     <path d="m486.41 221.41-364.07-208.5c-52.938-30.318-95.852-5.44-95.852 55.563v415.65c0 61.004 42.914 85.882 95.852 55.563l364.07-208.49c52.938-30.317 52.938-79.473 0-109.79z" fill="#e8eaec" stroke-width="201.8"/>
    </g>
   </g>
   <g transform="matrix(.0058152 -.0021218 -.0021581 -.0059148 34.912 18.123)">
    <g fill="#e8eaec" stroke-width="201.8">
     <path d="m486.41 221.41-364.07-208.5c-52.938-30.318-95.852-5.44-95.852 55.563v415.65c0 61.004 42.914 85.882 95.852 55.563l364.07-208.49c52.938-30.317 52.938-79.473 0-109.79z" fill="#e8eaec" stroke-width="201.8"/>
    </g>
   </g>
   <g transform="matrix(.0031711 .00206 .0020952 -.0032254 34.095 13.829)">
    <g fill="#e8eaec" stroke-width="201.8">
     <path d="m486.41 221.41-364.07-208.5c-52.938-30.318-95.852-5.44-95.852 55.563v415.65c0 61.004 42.914 85.882 95.852 55.563l364.07-208.49c52.938-30.317 52.938-79.473 0-109.79z" fill="#e8eaec" stroke-width="201.8"/>
    </g>
   </g>
  </g>
 </g>
 <path d="m58.885 27.329h28.512" fill="none" stroke="#a6aeb8" stroke-dasharray="0.26459, 0.793769" stroke-linecap="square" stroke-width=".26459"/>
 <circle cx="87.484" cy="27.243" r=".83002" fill="#a6aeb8" stroke="#a6aeb8" stroke-width=".74381"/>
</svg>
