<?xml version="1.0" encoding="UTF-8" standalone="no"?>
<svg
   xmlns:dc="http://purl.org/dc/elements/1.1/"
   xmlns:cc="http://creativecommons.org/ns#"
   xmlns:rdf="http://www.w3.org/1999/02/22-rdf-syntax-ns#"
   xmlns:svg="http://www.w3.org/2000/svg"
   xmlns="http://www.w3.org/2000/svg"
   xmlns:sodipodi="http://sodipodi.sourceforge.net/DTD/sodipodi-0.dtd"
   xmlns:inkscape="http://www.inkscape.org/namespaces/inkscape"
   inkscape:version="1.0rc1 (09960d6f05, 2020-04-09)"
   sodipodi:docname="chapter_assets_generic.svg"
   id="svg282"
   viewBox="0 0 169.27781 73.383662"
   version="1.1"
   height="277.34772"
   width="639.7851">
  <defs
     id="defs286" />
  <sodipodi:namedview
     inkscape:document-rotation="0"
     inkscape:current-layer="svg282"
     inkscape:window-maximized="1"
     inkscape:window-y="-8"
     inkscape:window-x="-8"
     inkscape:cy="176.84433"
     inkscape:cx="375.59151"
     inkscape:zoom="1.4142136"
     showgrid="false"
     id="namedview284"
     inkscape:window-height="1377"
     inkscape:window-width="2560"
     inkscape:pageshadow="2"
     inkscape:pageopacity="0"
     guidetolerance="10"
     gridtolerance="10"
     objecttolerance="10"
     borderopacity="1"
     bordercolor="#666666"
     pagecolor="#ffffff" />
  <metadata
     id="metadata2">
    <rdf:RDF>
      <cc:Work
         rdf:about="">
        <dc:format>image/svg+xml</dc:format>
        <dc:type
           rdf:resource="http://purl.org/dc/dcmitype/StillImage" />
        <dc:title />
      </cc:Work>
    </rdf:RDF>
  </metadata>
  <g
     id="g68"
     stroke-width="0.13769"
     transform="matrix(7.2627969,0,0,7.2627969,-684.21384,-699.11683)"
     style="font-weight:bold;font-size:2.9879px;line-height:1.25;font-family:'Segoe UI';-inkscape-font-specification:'Segoe UI Bold';fill:#a0f1c6;fill-opacity:1;stroke:none;stroke-linecap:square;stroke-miterlimit:4;stroke-dasharray:none;stroke-dashoffset:1.2;stroke-opacity:1">
    <rect
       id="rect4-6"
       style="stroke:none;paint-order:normal"
       fill="#1d232d"
       height="9.7115002"
       width="23.308001"
       y="96.454002"
       x="94.208" />
    <g
       id="g54"
       fill="#7b8694"
       style="stroke:none">
      <path
         id="path6"
         d="m 94.596,96.26 h 1.1654 v 0.19408 H 94.596 Z"
         inkscape:connector-curvature="0"
         style="stroke:none" />
      <path
         id="path8"
         d="m 96.538,96.26 h 1.1654 v 0.19408 H 96.538 Z"
         inkscape:connector-curvature="0"
         style="stroke:none" />
      <path
         id="path10"
         d="m 98.481,96.26 h 1.1654 v 0.19408 H 98.481 Z"
         inkscape:connector-curvature="0"
         style="stroke:none" />
      <path
         id="path12"
         d="m 100.42,96.26 h 1.1654 v 0.19408 H 100.42 Z"
         inkscape:connector-curvature="0"
         style="stroke:none" />
      <path
         id="path14"
         d="m 102.37,96.26 h 1.1654 v 0.19408 H 102.37 Z"
         inkscape:connector-curvature="0"
         style="stroke:none" />
      <path
         id="path16"
         d="m 104.31,96.26 h 1.1654 v 0.19408 H 104.31 Z"
         inkscape:connector-curvature="0"
         style="stroke:none" />
      <path
         id="path18"
         d="m 106.25,96.26 h 1.1654 v 0.19408 H 106.25 Z"
         inkscape:connector-curvature="0"
         style="stroke:none" />
      <path
         id="path20"
         d="m 108.19,96.26 h 1.1654 v 0.19408 H 108.19 Z"
         inkscape:connector-curvature="0"
         style="stroke:none" />
      <path
         id="path22"
         d="m 110.13,96.26 h 1.1654 v 0.19408 H 110.13 Z"
         inkscape:connector-curvature="0"
         style="stroke:none" />
      <path
         id="path24"
         d="m 112.08,96.26 h 1.1654 v 0.19408 H 112.08 Z"
         inkscape:connector-curvature="0"
         style="stroke:none" />
      <path
         id="path26"
         d="m 114.02,96.26 h 1.1654 v 0.19408 H 114.02 Z"
         inkscape:connector-curvature="0"
         style="stroke:none" />
      <path
         id="path28"
         d="m 115.96,96.26 h 1.1654 v 0.19408 H 115.96 Z"
         inkscape:connector-curvature="0"
         style="stroke:none" />
      <path
         id="path30"
         d="m 115.96,106.17 h 1.1654 v 0.19405 H 115.96 Z"
         inkscape:connector-curvature="0"
         style="stroke:none" />
      <path
         id="path32"
         d="m 114.02,106.17 h 1.1654 v 0.19405 H 114.02 Z"
         inkscape:connector-curvature="0"
         style="stroke:none" />
      <path
         id="path34"
         d="m 112.08,106.17 h 1.1654 v 0.19405 H 112.08 Z"
         inkscape:connector-curvature="0"
         style="stroke:none" />
      <path
         id="path36"
         d="m 110.13,106.17 h 1.1654 v 0.19405 H 110.13 Z"
         inkscape:connector-curvature="0"
         style="stroke:none" />
      <path
         id="path38"
         d="m 108.19,106.17 h 1.1654 v 0.19405 H 108.19 Z"
         inkscape:connector-curvature="0"
         style="stroke:none" />
      <path
         id="path40"
         d="m 106.25,106.17 h 1.1654 v 0.19405 H 106.25 Z"
         inkscape:connector-curvature="0"
         style="stroke:none" />
      <path
         id="path42"
         d="m 104.31,106.17 h 1.1654 v 0.19405 H 104.31 Z"
         inkscape:connector-curvature="0"
         style="stroke:none" />
      <path
         id="path44"
         d="m 102.37,106.17 h 1.1654 v 0.19405 H 102.37 Z"
         inkscape:connector-curvature="0"
         style="stroke:none" />
      <path
         id="path46"
         d="m 100.42,106.17 h 1.1654 v 0.19405 H 100.42 Z"
         inkscape:connector-curvature="0"
         style="stroke:none" />
      <path
         id="path48"
         d="m 98.481,106.17 h 1.1654 v 0.19405 H 98.481 Z"
         inkscape:connector-curvature="0"
         style="stroke:none" />
      <path
         id="path50"
         d="m 96.538,106.17 h 1.1654 v 0.19405 H 96.538 Z"
         inkscape:connector-curvature="0"
         style="stroke:none" />
      <path
         id="path52"
         d="m 94.596,106.17 h 1.1654 v 0.19405 H 94.596 Z"
         inkscape:connector-curvature="0"
         style="stroke:none" />
    </g>
  </g>
  <rect
     y="18.591663"
     x="44.812973"
     height="37.461117"
     width="37.461117"
     id="rect1793"
     style="fill:#1d232d;fill-opacity:1;stroke:#7b8694;stroke-width:0.416234;stroke-linecap:square;stroke-miterlimit:4;stroke-dasharray:none;stroke-dashoffset:1.2;stroke-opacity:1" />
  <path
     style="fill:none;fill-opacity:1;stroke:#e8eaec;stroke-width:0.416234;stroke-linecap:square;stroke-miterlimit:4;stroke-dasharray:none;stroke-dashoffset:1.2;stroke-opacity:1"
     d="m 52.62007,24.025189 c -0.394504,0 -0.712123,0.316866 -0.712123,0.711369 v 25.100897 c 0,0.394504 0.317687,0.71212 0.712123,0.71212 h 21.272672 c 0.394503,0 0.712119,-0.317692 0.712119,-0.71212 V 29.737872 h -5.33544 c -0.394504,0 -0.712121,-0.317691 -0.712121,-0.71212 V 24.02525 Z m 15.997384,-0.05712 6.054304,5.714494 z"
     id="path1279"
     inkscape:connector-curvature="0"
     sodipodi:nodetypes="sssssscsscsccc" />
  <rect
     style="fill:#1d232d;fill-opacity:1;stroke:#7b8694;stroke-width:0.416234;stroke-linecap:square;stroke-miterlimit:4;stroke-dasharray:none;stroke-dashoffset:1.2;stroke-opacity:1"
     id="rect1791"
     width="37.461117"
     height="37.461117"
     x="86.436462"
     y="18.591663" />
  <path
     d="m 99.453937,35.917203 q -1.174401,0 -1.174401,-1.651143 0,-0.856562 0.316541,-1.304378 0.318831,-0.450097 0.922085,-0.450097 1.146878,0 1.146878,1.678686 0,0.835914 -0.31425,1.281417 -0.31195,0.445515 -0.896853,0.445515 z m 0.03211,-2.852168 q -0.470218,0 -0.470218,1.182658 0,1.113764 0.461043,1.113764 0.449575,0 0.449575,-1.148221 0,-1.148201 -0.4404,-1.148201 z"
     style="font-weight:bold;font-size:2.9879px;line-height:1.25;font-family:'Segoe UI';-inkscape-font-specification:'Segoe UI Bold';fill:#7893ea;fill-opacity:1;stroke:none;stroke-width:0.416235;stroke-linecap:square;stroke-miterlimit:4;stroke-dasharray:none;stroke-dashoffset:1.2;stroke-opacity:1"
     id="path1302"
     inkscape:connector-curvature="0" />
  <path
     d="m 102.16057,35.917203 q -1.1744,0 -1.1744,-1.651143 0,-0.856562 0.31653,-1.304378 0.31883,-0.450097 0.92209,-0.450097 1.14688,0 1.14688,1.678686 0,0.835914 -0.31425,1.281417 -0.31195,0.445515 -0.89685,0.445515 z m 0.0321,-2.852168 q -0.47022,0 -0.47022,1.182658 0,1.113764 0.46104,1.113764 0.44958,0 0.44958,-1.148221 0,-1.148201 -0.4404,-1.148201 z"
     style="font-weight:bold;font-size:2.9879px;line-height:1.25;font-family:'Segoe UI';-inkscape-font-specification:'Segoe UI Bold';fill:#7893ea;fill-opacity:1;stroke:none;stroke-width:0.416235;stroke-linecap:square;stroke-miterlimit:4;stroke-dasharray:none;stroke-dashoffset:1.2;stroke-opacity:1"
     id="path1304"
     inkscape:connector-curvature="0" />
  <path
     d="m 104.8672,35.917203 q -1.17441,0 -1.17441,-1.651143 0,-0.856562 0.31654,-1.304378 0.31883,-0.450097 0.92209,-0.450097 1.14688,0 1.14688,1.678686 0,0.835914 -0.31425,1.281417 -0.31195,0.445515 -0.89685,0.445515 z m 0.0321,-2.852168 q -0.47023,0 -0.47023,1.182658 0,1.113764 0.46105,1.113764 0.44958,0 0.44958,-1.148221 0,-1.148201 -0.4404,-1.148201 z"
     style="font-weight:bold;font-size:2.9879px;line-height:1.25;font-family:'Segoe UI';-inkscape-font-specification:'Segoe UI Bold';fill:#7893ea;fill-opacity:1;stroke:none;stroke-width:0.416235;stroke-linecap:square;stroke-miterlimit:4;stroke-dasharray:none;stroke-dashoffset:1.2;stroke-opacity:1"
     id="path1306"
     inkscape:connector-curvature="0" />
  <path
     d="m 108.14955,32.493216 v 3.366567 h -0.72253 v -2.549041 q -0.0596,0.05288 -0.14221,0.101059 -0.0803,0.04595 -0.17203,0.08499 -0.0918,0.03668 -0.19038,0.06423 -0.0986,0.02534 -0.19497,0.03668 v -0.610839 q 0.28213,-0.08264 0.53215,-0.211269 0.25002,-0.128605 0.45187,-0.282462 z"
     style="font-weight:bold;font-size:2.9879px;line-height:1.25;font-family:'Segoe UI';-inkscape-font-specification:'Segoe UI Bold';fill:#7893ea;fill-opacity:1;stroke:none;stroke-width:0.416235;stroke-linecap:square;stroke-miterlimit:4;stroke-dasharray:none;stroke-dashoffset:1.2;stroke-opacity:1"
     id="path1308"
     inkscape:connector-curvature="0" />
  <path
     d="m 110.28045,35.917203 q -1.1744,0 -1.1744,-1.651143 0,-0.856562 0.31654,-1.304378 0.31883,-0.450097 0.92208,-0.450097 1.14688,0 1.14688,1.678686 0,0.835914 -0.31424,1.281417 -0.31195,0.445515 -0.89686,0.445515 z m 0.0321,-2.852168 q -0.47022,0 -0.47022,1.182658 0,1.113764 0.46105,1.113764 0.44957,0 0.44957,-1.148221 0,-1.148201 -0.4404,-1.148201 z"
     style="font-weight:bold;font-size:2.9879px;line-height:1.25;font-family:'Segoe UI';-inkscape-font-specification:'Segoe UI Bold';fill:#7893ea;fill-opacity:1;stroke:none;stroke-width:0.416235;stroke-linecap:square;stroke-miterlimit:4;stroke-dasharray:none;stroke-dashoffset:1.2;stroke-opacity:1"
     id="path1310"
     inkscape:connector-curvature="0" />
  <path
     d="m 99.453937,41.796073 q -1.174401,0 -1.174401,-1.651143 0,-0.856563 0.316541,-1.304378 0.318831,-0.450098 0.922085,-0.450098 1.146878,0 1.146878,1.678703 0,0.835895 -0.31425,1.281396 -0.31195,0.44552 -0.896853,0.44552 z m 0.03211,-2.852168 q -0.470218,0 -0.470218,1.182658 0,1.113761 0.461043,1.113761 0.449575,0 0.449575,-1.148202 0,-1.148217 -0.4404,-1.148217 z"
     style="font-weight:bold;font-size:2.9879px;line-height:1.25;font-family:'Segoe UI';-inkscape-font-specification:'Segoe UI Bold';fill:#7893ea;fill-opacity:1;stroke:none;stroke-width:0.416235;stroke-linecap:square;stroke-miterlimit:4;stroke-dasharray:none;stroke-dashoffset:1.2;stroke-opacity:1"
     id="path1312"
     inkscape:connector-curvature="0" />
  <path
     d="m 102.7363,38.372084 v 3.366566 h -0.72254 v -2.549038 q -0.0596,0.05288 -0.1422,0.101059 -0.0803,0.04595 -0.17203,0.08499 -0.0918,0.03667 -0.19038,0.06438 -0.0986,0.02518 -0.19497,0.03667 v -0.610838 q 0.28213,-0.08264 0.53215,-0.211284 0.25002,-0.128604 0.45187,-0.282464 z"
     style="font-weight:bold;font-size:2.9879px;line-height:1.25;font-family:'Segoe UI';-inkscape-font-specification:'Segoe UI Bold';fill:#7893ea;fill-opacity:1;stroke:none;stroke-width:0.416235;stroke-linecap:square;stroke-miterlimit:4;stroke-dasharray:none;stroke-dashoffset:1.2;stroke-opacity:1"
     id="path1314"
     inkscape:connector-curvature="0" />
  <path
     d="m 105.44293,38.372084 v 3.366566 h -0.72254 v -2.549038 q -0.0596,0.05288 -0.14222,0.101059 -0.0803,0.04595 -0.17203,0.08499 -0.0918,0.03667 -0.19038,0.06438 -0.0986,0.02518 -0.19497,0.03667 v -0.610838 q 0.28213,-0.08264 0.53215,-0.211284 0.25002,-0.128604 0.45187,-0.282464 z"
     style="font-weight:bold;font-size:2.9879px;line-height:1.25;font-family:'Segoe UI';-inkscape-font-specification:'Segoe UI Bold';fill:#7893ea;fill-opacity:1;stroke:none;stroke-width:0.416235;stroke-linecap:square;stroke-miterlimit:4;stroke-dasharray:none;stroke-dashoffset:1.2;stroke-opacity:1"
     id="path1316"
     inkscape:connector-curvature="0" />
  <path
     d="m 107.57382,41.796073 q -1.1744,0 -1.1744,-1.651143 0,-0.856563 0.31654,-1.304378 0.31883,-0.450098 0.92208,-0.450098 1.14688,0 1.14688,1.678703 0,0.835895 -0.31424,1.281396 -0.31195,0.44552 -0.89686,0.44552 z m 0.0321,-2.852168 q -0.47022,0 -0.47022,1.182658 0,1.113761 0.46105,1.113761 0.44957,0 0.44957,-1.148202 0,-1.148217 -0.4404,-1.148217 z"
     style="font-weight:bold;font-size:2.9879px;line-height:1.25;font-family:'Segoe UI';-inkscape-font-specification:'Segoe UI Bold';fill:#7893ea;fill-opacity:1;stroke:none;stroke-width:0.416235;stroke-linecap:square;stroke-miterlimit:4;stroke-dasharray:none;stroke-dashoffset:1.2;stroke-opacity:1"
     id="path1318"
     inkscape:connector-curvature="0" />
  <path
     d="m 110.85618,38.372084 v 3.366566 h -0.72253 v -2.549038 q -0.0596,0.05288 -0.14221,0.101059 -0.0803,0.04595 -0.17203,0.08499 -0.0918,0.03667 -0.19038,0.06438 -0.0986,0.02518 -0.19497,0.03667 v -0.610838 q 0.28213,-0.08264 0.53215,-0.211284 0.25002,-0.128604 0.45187,-0.282464 z"
     style="font-weight:bold;font-size:2.9879px;line-height:1.25;font-family:'Segoe UI';-inkscape-font-specification:'Segoe UI Bold';fill:#7893ea;fill-opacity:1;stroke:none;stroke-width:0.416235;stroke-linecap:square;stroke-miterlimit:4;stroke-dasharray:none;stroke-dashoffset:1.2;stroke-opacity:1"
     id="path1320"
     inkscape:connector-curvature="0" />
  <path
     d="m 99.453937,47.674939 q -1.174401,0 -1.174401,-1.651137 0,-0.856572 0.316541,-1.304375 0.318831,-0.450101 0.922085,-0.450101 1.146878,0 1.146878,1.678692 0,0.835902 -0.31425,1.28141 -0.31195,0.445511 -0.896853,0.445511 z m 0.03211,-2.852171 q -0.470218,0 -0.470218,1.182662 0,1.113772 0.461043,1.113772 0.449575,0 0.449575,-1.148219 0,-1.148215 -0.4404,-1.148215 z"
     style="font-weight:bold;font-size:2.9879px;line-height:1.25;font-family:'Segoe UI';-inkscape-font-specification:'Segoe UI Bold';fill:#7893ea;fill-opacity:1;stroke:none;stroke-width:0.416235;stroke-linecap:square;stroke-miterlimit:4;stroke-dasharray:none;stroke-dashoffset:1.2;stroke-opacity:1"
     id="path1322"
     inkscape:connector-curvature="0" />
  <path
     d="m 102.7363,44.250954 v 3.366571 h -0.72254 v -2.54904 q -0.0596,0.05282 -0.1422,0.101045 -0.0803,0.04593 -0.17203,0.08497 -0.0918,0.03674 -0.19038,0.06429 -0.0986,0.02526 -0.19497,0.03674 v -0.610849 q 0.28213,-0.08268 0.53215,-0.211273 0.25002,-0.128604 0.45187,-0.282461 z"
     style="font-weight:bold;font-size:2.9879px;line-height:1.25;font-family:'Segoe UI';-inkscape-font-specification:'Segoe UI Bold';fill:#7893ea;fill-opacity:1;stroke:none;stroke-width:0.416235;stroke-linecap:square;stroke-miterlimit:4;stroke-dasharray:none;stroke-dashoffset:1.2;stroke-opacity:1"
     id="path1324"
     inkscape:connector-curvature="0" />
  <path
     d="m 105.44293,44.250954 v 3.366571 h -0.72254 v -2.54904 q -0.0596,0.05282 -0.14222,0.101045 -0.0803,0.04593 -0.17203,0.08497 -0.0918,0.03674 -0.19038,0.06429 -0.0986,0.02526 -0.19497,0.03674 v -0.610849 q 0.28213,-0.08268 0.53215,-0.211273 0.25002,-0.128604 0.45187,-0.282461 z"
     style="font-weight:bold;font-size:2.9879px;line-height:1.25;font-family:'Segoe UI';-inkscape-font-specification:'Segoe UI Bold';fill:#7893ea;fill-opacity:1;stroke:none;stroke-width:0.416235;stroke-linecap:square;stroke-miterlimit:4;stroke-dasharray:none;stroke-dashoffset:1.2;stroke-opacity:1"
     id="path1326"
     inkscape:connector-curvature="0" />
  <path
     d="m 107.57382,47.674939 q -1.1744,0 -1.1744,-1.651137 0,-0.856572 0.31654,-1.304375 0.31883,-0.450101 0.92208,-0.450101 1.14688,0 1.14688,1.678692 0,0.835902 -0.31424,1.28141 -0.31195,0.445511 -0.89686,0.445511 z m 0.0321,-2.852171 q -0.47022,0 -0.47022,1.182662 0,1.113772 0.46105,1.113772 0.44957,0 0.44957,-1.148219 0,-1.148215 -0.4404,-1.148215 z"
     style="font-weight:bold;font-size:2.9879px;line-height:1.25;font-family:'Segoe UI';-inkscape-font-specification:'Segoe UI Bold';fill:#7893ea;fill-opacity:1;stroke:none;stroke-width:0.416235;stroke-linecap:square;stroke-miterlimit:4;stroke-dasharray:none;stroke-dashoffset:1.2;stroke-opacity:1"
     id="path1328"
     inkscape:connector-curvature="0" />
  <path
     d="m 110.85618,44.250954 v 3.366571 h -0.72253 v -2.54904 q -0.0596,0.05282 -0.14221,0.101045 -0.0803,0.04593 -0.17203,0.08497 -0.0918,0.03674 -0.19038,0.06429 -0.0986,0.02526 -0.19497,0.03674 v -0.610849 q 0.28213,-0.08268 0.53215,-0.211273 0.25002,-0.128604 0.45187,-0.282461 z"
     style="font-weight:bold;font-size:2.9879px;line-height:1.25;font-family:'Segoe UI';-inkscape-font-specification:'Segoe UI Bold';fill:#7893ea;fill-opacity:1;stroke:none;stroke-width:0.416235;stroke-linecap:square;stroke-miterlimit:4;stroke-dasharray:none;stroke-dashoffset:1.2;stroke-opacity:1"
     id="path1330"
     inkscape:connector-curvature="0" />
  <path
     sodipodi:nodetypes="sssssscsscsccc"
     inkscape:connector-curvature="0"
     id="path1281"
     d="m 94.243517,24.025189 c -0.394503,0 -0.712123,0.316866 -0.712123,0.711369 v 25.100897 c 0,0.394504 0.317694,0.71212 0.712123,0.71212 H 115.5162 c 0.3945,0 0.71212,-0.317692 0.71212,-0.71212 V 29.737881 h -5.33541 c -0.39451,0 -0.71212,-0.317693 -0.71212,-0.71212 V 24.02525 Z m 15.997393,-0.05712 6.0543,5.714494 z"
     style="fill:none;fill-opacity:1;stroke:#e8eaec;stroke-width:0.416234;stroke-linecap:square;stroke-miterlimit:4;stroke-dasharray:none;stroke-dashoffset:1.2;stroke-opacity:1" />
  <path
     inkscape:connector-curvature="0"
     id="path944"
     d="m 67.235927,45.439507 c -0.192859,-0.05412 -0.529645,-0.26974 -0.748425,-0.479431 -0.39759,-0.380974 -0.397888,-0.381651 -0.397888,-1.031811 V 43.2777 h -3.486542 -3.486543 l -0.193752,-0.272147 c -0.106527,-0.149639 -0.223071,-0.272146 -0.258779,-0.272146 -0.03614,0 -0.140015,0.127021 -0.231707,0.282218 l -0.166695,0.282216 -0.873427,-0.03833 c -0.949705,-0.04134 -1.399691,-0.204429 -1.825977,-0.660863 l -0.226834,-0.242909 -0.02558,-4.647907 -0.02558,-4.647908 0.209996,-0.311755 c 0.648314,-0.962462 2.403306,-1.082212 3.29792,-0.225022 0.397427,0.380825 0.397806,0.381651 0.397806,1.031713 v 0.650567 h 2.352533 2.352536 l 0.193753,0.272145 c 0.106527,0.149639 0.223071,0.272147 0.258765,0.272147 0.03601,0 0.138973,-0.125207 0.229393,-0.27831 l 0.164434,-0.278308 2.009764,0.02856 c 1.948935,0.0278 2.022001,0.03607 2.414474,0.255612 0.222625,0.124693 0.498148,0.365568 0.612391,0.535048 l 0.207654,0.308222 v 4.554516 4.554524 l -0.207654,0.308222 c -0.433433,0.643499 -1.603161,0.965423 -2.547004,0.70107 z m 1.322997,-0.532868 c 0.185561,-0.05186 0.461084,-0.197815 0.612388,-0.325058 l 0.274914,-0.23141 V 40.51136 36.672549 l -0.476273,0.182108 c -0.569317,0.217731 -1.57146,0.192629 -2.041195,-0.05111 l -0.294839,-0.153022 v 3.862253 3.86226 l 0.231491,0.214576 c 0.382321,0.35437 1.08532,0.486045 1.693447,0.31709 z m -10.23266,-2.740343 0.358119,-0.521745 0.358511,0.545495 0.358498,0.545496 3.321486,-0.0233 3.3215,-0.02329 0.02328,-3.651474 0.02328,-3.651472 h 0.212012 c 0.163243,0 0.244945,0.0838 0.355127,0.36429 0.111401,0.28357 0.230056,0.403747 0.535426,0.542338 0.664232,0.301458 1.553524,0.203002 2.012932,-0.222768 0.320692,-0.297248 0.307765,-0.609979 -0.03682,-0.900217 -0.427869,-0.36008 -0.84553,-0.425168 -2.55235,-0.398185 l -1.568468,0.0248 -0.358498,0.521744 -0.358511,0.521746 -0.35774,-0.544368 -0.357753,-0.544367 h -3.434335 c -3.157214,0 -3.471355,-0.01428 -3.889207,-0.172713 l -0.454562,-0.172714 v 3.831063 3.831063 l 0.218185,0.20503 c 0.316712,0.297549 0.844611,0.460718 1.413755,0.437042 0.497089,-0.02105 0.498591,-0.02179 0.85602,-0.542412 z m 0.99218,-1.292699 c -0.07959,-0.207436 0.03154,-0.408257 0.226821,-0.408257 0.21457,0 0.324752,0.250727 0.184439,0.419756 -0.136482,0.164446 -0.345949,0.158584 -0.41126,-0.01205 z m 1.150739,0.005 c -0.164677,-0.198417 -0.04738,-0.432007 0.199546,-0.396909 0.149639,0.02105 0.204581,0.08966 0.204581,0.254634 0,0.264707 -0.234116,0.347155 -0.404059,0.142349 z m 1.117249,-0.005 c -0.07959,-0.207436 0.03235,-0.408257 0.226835,-0.408257 0.21457,0 0.324753,0.250727 0.18444,0.419756 -0.136496,0.164446 -0.345964,0.158584 -0.411275,-0.01205 z m 1.15074,0.005 c -0.164664,-0.198417 -0.04738,-0.432007 0.199546,-0.396909 0.149639,0.02105 0.204581,0.08966 0.204581,0.254634 0,0.264707 -0.234117,0.347155 -0.404046,0.142349 z m 1.117265,-0.005 c -0.07959,-0.207436 0.03235,-0.408257 0.226821,-0.408257 0.214584,0 0.324766,0.250727 0.184439,0.419756 -0.136482,0.164446 -0.34595,0.158584 -0.411193,-0.01205 z m 1.150739,0.005 C 64.840512,40.68018 64.9578,40.44659 65.20472,40.481688 c 0.149639,0.02105 0.204581,0.08966 0.204581,0.254634 0,0.264707 -0.234117,0.347155 -0.404044,0.142349 z m -6.807205,-0.548201 c -0.161672,-0.194809 -0.0421,-0.427873 0.201793,-0.393075 0.232533,0.03307 0.329937,0.331371 0.146336,0.447714 -0.170091,0.107773 -0.219836,0.09996 -0.34821,-0.05412 z m -0.603224,-1.180518 c -0.07215,-0.187293 0.02558,-0.408257 0.180081,-0.408257 0.181649,0 0.361352,0.244712 0.299127,0.407054 -0.06836,0.177222 -0.411258,0.178124 -0.479208,0.0012 z m 2.797241,-0.979027 -0.198179,-0.210969 0.317538,-0.307845 0.317539,-0.307847 -0.319569,-0.327312 -0.319569,-0.327313 0.210971,-0.198191 0.210956,-0.198191 0.307847,0.317543 0.307846,0.317541 0.327309,-0.31957 0.327311,-0.319572 0.198193,0.210968 0.198192,0.210967 -0.317538,0.307847 -0.317538,0.307846 0.319568,0.327313 0.319569,0.327312 -0.21097,0.198191 -0.210971,0.198191 -0.307846,-0.317542 -0.307831,-0.317541 -0.327324,0.31957 -0.327312,0.319571 z m -2.194058,-0.10845 c -0.161659,-0.194734 -0.0421,-0.427873 0.201807,-0.393075 0.232533,0.03307 0.329937,0.331371 0.146336,0.447714 -0.170092,0.107773 -0.219849,0.09996 -0.348143,-0.05412 z m 1.08769,-0.717231 c 0,-0.258844 0.254176,-0.384056 0.427652,-0.210592 0.173462,0.173465 0.04805,0.427648 -0.210591,0.427648 -0.168508,0 -0.217143,-0.04885 -0.217143,-0.217132 z m -0.635009,-3.688189 c 0,-0.470112 -0.03235,-0.579015 -0.229081,-0.760912 -0.216534,-0.200595 -0.834837,-0.414721 -1.194621,-0.413593 -0.617642,0.0019 -1.388659,0.487022 -1.388659,0.873724 0,0.26899 0.375864,0.639368 0.76295,0.751706 0.154146,0.0451 0.678364,0.085 1.164843,0.08951 l 0.884527,0.0083 z"
     style="fill:#7893ea;fill-opacity:1;stroke-width:0.0907199" />
</svg>
