<?xml version="1.0" encoding="UTF-8"?>
<svg width="59.882mm" height="83.873mm" version="1.1" viewBox="0 0 59.882 83.873" xmlns="http://www.w3.org/2000/svg" xmlns:cc="http://creativecommons.org/ns#" xmlns:dc="http://purl.org/dc/elements/1.1/" xmlns:rdf="http://www.w3.org/1999/02/22-rdf-syntax-ns#">
 <metadata>
  <rdf:RDF>
   <cc:Work rdf:about="">
    <dc:format>image/svg+xml</dc:format>
    <dc:type rdf:resource="http://purl.org/dc/dcmitype/StillImage"/>
    <dc:title/>
   </cc:Work>
  </rdf:RDF>
 </metadata>
 <g transform="translate(-142.75 -129.72)">
  <g>
   <rect x="143.41" y="130.38" width="33.073" height="7.9375" fill="#2f3744"/>
   <g fill="#e8eaec" stroke-linecap="round" stroke-width=".26458" aria-label="Local Header">
    <path d="m151.53 135.77h1.1748v-0.22543h-0.90805v-1.8574h-0.2667z"/>
    <path d="m152.89 135c0 0.51117 0.33655 0.80645 0.71437 0.80645 0.37783 0 0.71438-0.29528 0.71438-0.80645 0-0.51753-0.33655-0.8128-0.71438-0.8128-0.37782 0-0.71437 0.29527-0.71437 0.8128zm0.26987 0c0-0.3556 0.18098-0.5969 0.4445-0.5969 0.2667 0 0.4445 0.2413 0.4445 0.5969 0 0.35242-0.1778 0.59055-0.4445 0.59055-0.26352 0-0.4445-0.23813-0.4445-0.59055z"/>
    <path d="m154.61 135c0 0.51117 0.31433 0.80645 0.7239 0.80645 0.18415 0 0.36195-0.0762 0.50165-0.20003l-0.11747-0.17145c-0.0921 0.0825-0.2159 0.15558-0.36195 0.15558-0.28258 0-0.47625-0.23813-0.47625-0.59055 0-0.3556 0.2032-0.5969 0.4826-0.5969 0.12382 0 0.21907 0.0572 0.31115 0.13652l0.13017-0.16827c-0.10477-0.0984-0.24765-0.18415-0.45085-0.18415-0.39687 0-0.74295 0.29527-0.74295 0.8128z"/>
    <path d="m156.06 135.37c0 0.27622 0.19367 0.43815 0.45402 0.43815 0.1905 0 0.36195-0.1016 0.51118-0.22225h6e-3l0.0222 0.18415h0.2159v-0.94615c0-0.38418-0.15875-0.635-0.53657-0.635-0.24765 0-0.46355 0.10795-0.60643 0.20002l0.10478 0.18098c0.12065-0.0825 0.2794-0.1651 0.46037-0.1651 0.25083 0 0.3175 0.1905 0.3175 0.38735-0.65722 0.073-0.94932 0.2413-0.94932 0.57785zm0.25717-0.019c0-0.19685 0.17463-0.32385 0.69215-0.38735v0.42862c-0.14922 0.13335-0.27305 0.20638-0.42227 0.20638-0.1524 0-0.26988-0.073-0.26988-0.24765z"/>
    <path d="m157.77 135.46c0 0.22542 0.0794 0.34925 0.27622 0.34925 0.0699 0 0.1143-0.01 0.14923-0.0254l-0.0349-0.19685c-0.0286 6e-3 -0.0413 6e-3 -0.0571 6e-3 -0.0381 0-0.073-0.0318-0.073-0.1143v-1.9685h-0.26035z"/>
    <path d="m159.23 135.77h0.2667v-0.98108h0.96838v0.98108h0.26352v-2.0828h-0.26352v0.87312h-0.96838v-0.87312h-0.2667z"/>
    <path d="m161.15 135c0 0.50482 0.32702 0.80645 0.73977 0.80645 0.20955 0 0.37465-0.073 0.508-0.15875l-0.0921-0.17145c-0.1143 0.073-0.23813 0.12065-0.38418 0.12065-0.29527 0-0.4953-0.20955-0.51435-0.54293h1.0414c6e-3 -0.0381 0.01-0.0889 0.01-0.14287 0-0.44133-0.22225-0.7239-0.61595-0.7239-0.35243 0-0.69215 0.30797-0.69215 0.8128zm0.254-0.11748c0.0317-0.31115 0.2286-0.48895 0.4445-0.48895 0.2413 0 0.381 0.17463 0.381 0.48895z"/>
    <path d="m162.72 135.37c0 0.27622 0.19367 0.43815 0.45402 0.43815 0.1905 0 0.36195-0.1016 0.51118-0.22225h6e-3l0.0222 0.18415h0.2159v-0.94615c0-0.38418-0.15875-0.635-0.53657-0.635-0.24765 0-0.46355 0.10795-0.60643 0.20002l0.10478 0.18098c0.12065-0.0825 0.2794-0.1651 0.46037-0.1651 0.25083 0 0.3175 0.1905 0.3175 0.38735-0.65722 0.073-0.94932 0.2413-0.94932 0.57785zm0.25717-0.019c0-0.19685 0.17463-0.32385 0.69215-0.38735v0.42862c-0.14922 0.13335-0.27305 0.20638-0.42227 0.20638-0.1524 0-0.26988-0.073-0.26988-0.24765z"/>
    <path d="m164.31 135c0 0.51435 0.25082 0.80645 0.63817 0.80645 0.18098 0 0.34608-0.1016 0.46673-0.21908h0.01l0.0222 0.18098h0.2159v-2.2606h-0.26353v0.59372l0.0127 0.26353c-0.13652-0.11113-0.254-0.1778-0.4318-0.1778-0.35242 0-0.66992 0.31115-0.66992 0.8128zm0.26987-3e-3c0-0.35242 0.19685-0.59055 0.4445-0.59055 0.127 0 0.24448 0.0444 0.37465 0.16193v0.80645c-0.127 0.14287-0.25082 0.21272-0.3937 0.21272-0.26987 0-0.42545-0.22225-0.42545-0.59055z"/>
    <path d="m166.07 135c0 0.50482 0.32702 0.80645 0.73977 0.80645 0.20955 0 0.37465-0.073 0.508-0.15875l-0.0921-0.17145c-0.1143 0.073-0.23813 0.12065-0.38418 0.12065-0.29527 0-0.4953-0.20955-0.51435-0.54293h1.0414c6e-3 -0.0381 0.01-0.0889 0.01-0.14287 0-0.44133-0.22225-0.7239-0.61595-0.7239-0.35243 0-0.69215 0.30797-0.69215 0.8128zm0.254-0.11748c0.0317-0.31115 0.2286-0.48895 0.4445-0.48895 0.2413 0 0.381 0.17463 0.381 0.48895z"/>
    <path d="m167.76 135.77h0.26035v-0.9906c0.10478-0.26035 0.26035-0.3556 0.39053-0.3556 0.0635 0 0.0984 0.01 0.14922 0.0254l0.0508-0.2286c-0.0508-0.0222-0.0984-0.0318-0.1651-0.0318-0.17462 0-0.33337 0.12382-0.43815 0.3175h-0.01l-0.0222-0.2794h-0.2159z"/>
   </g>
   <rect x="143.41" y="138.85" width="33.073" height="5.2917" fill="#2f3744"/>
   <g fill="#e8eaec" stroke-linecap="round" stroke-width=".26458" aria-label="(opt) Extra Field">
    <path d="m150.1 143.21 0.16192-0.0762c-0.24447-0.40322-0.36512-0.88265-0.36512-1.3652s0.12065-0.96202 0.36512-1.3652l-0.16192-0.0762c-0.26353 0.42545-0.4191 0.88265-0.4191 1.4414s0.15557 1.016 0.4191 1.4414z"/>
    <path d="m150.52 141.88c0 0.51118 0.33655 0.80645 0.71437 0.80645 0.37783 0 0.71438-0.29527 0.71438-0.80645 0-0.51752-0.33655-0.8128-0.71438-0.8128-0.37782 0-0.71437 0.29528-0.71437 0.8128zm0.26987 0c0-0.3556 0.18098-0.5969 0.4445-0.5969 0.2667 0 0.4445 0.2413 0.4445 0.5969 0 0.35243-0.1778 0.59055-0.4445 0.59055-0.26352 0-0.4445-0.23812-0.4445-0.59055z"/>
    <path d="m152.62 142.51c0.14288 0.11113 0.28575 0.1778 0.42863 0.1778 0.35242 0 0.66675-0.30797 0.66675-0.83185 0-0.47942-0.21273-0.7874-0.6096-0.7874-0.18098 0-0.35243 0.0984-0.49213 0.2159h-0.01l-0.0222-0.1778h-0.2159v2.1939h0.26035v-0.5207zm6e-3 -0.2032v-0.80962c0.1524-0.13653 0.28258-0.20955 0.41275-0.20955 0.2921 0 0.4064 0.2286 0.4064 0.56832 0 0.381-0.18732 0.61278-0.44132 0.61278-0.1016 0-0.23813-0.0445-0.37783-0.16193z"/>
    <path d="m154.17 142.17c0 0.3048 0.11112 0.51435 0.44132 0.51435 0.0952 0 0.20003-0.0286 0.28575-0.0572l-0.0508-0.19685c-0.0508 0.019-0.12065 0.0413-0.17462 0.0413-0.1778 0-0.23813-0.10795-0.23813-0.29845v-0.85725h0.41593v-0.21273h-0.41593v-0.4318h-0.21907l-0.0317 0.4318-0.2413 0.0159v0.19685h0.2286z"/>
    <path d="m155.06 143.13 0.16192 0.0762c0.26353-0.42545 0.4191-0.88265 0.4191-1.4414s-0.15557-1.016-0.4191-1.4414l-0.16192 0.0762c0.24447 0.40323 0.36512 0.88265 0.36512 1.3652s-0.12065 0.96203-0.36512 1.3652z"/>
    <path d="m156.81 142.65h1.2319v-0.22542h-0.9652v-0.75565h0.7874v-0.22543h-0.7874v-0.65405h0.93345v-0.22225h-1.2002z"/>
    <path d="m158.23 142.65h0.27305l0.20955-0.35877c0.0508-0.0952 0.1016-0.18733 0.15558-0.27623h0.0127c0.0572 0.0889 0.1143 0.18415 0.16827 0.27623l0.22543 0.35877h0.28257l-0.50165-0.77787 0.46673-0.76518h-0.27305l-0.18733 0.33973c-0.0476 0.0825-0.0952 0.17145-0.1397 0.25717h-0.0127c-0.054-0.0857-0.10477-0.17462-0.1524-0.25717l-0.20637-0.33973h-0.28258l0.46673 0.7366z"/>
    <path d="m159.91 142.17c0 0.3048 0.11113 0.51435 0.44133 0.51435 0.0952 0 0.20002-0.0286 0.28575-0.0572l-0.0508-0.19685c-0.0508 0.019-0.12065 0.0413-0.17463 0.0413-0.1778 0-0.23812-0.10795-0.23812-0.29845v-0.85725h0.41592v-0.21273h-0.41592v-0.4318h-0.21908l-0.0317 0.4318-0.2413 0.0159v0.19685h0.2286z"/>
    <path d="m160.94 142.65h0.26035v-0.9906c0.10478-0.26035 0.26035-0.3556 0.39053-0.3556 0.0635 0 0.0984 0.01 0.14922 0.0254l0.0508-0.2286c-0.0508-0.0222-0.0984-0.0317-0.1651-0.0317-0.17462 0-0.33337 0.12383-0.43815 0.3175h-0.01l-0.0222-0.2794h-0.2159z"/>
    <path d="m161.88 142.25c0 0.27623 0.19367 0.43815 0.45402 0.43815 0.1905 0 0.36195-0.1016 0.51118-0.22225h6e-3l0.0222 0.18415h0.2159v-0.94615c0-0.38417-0.15875-0.635-0.53657-0.635-0.24765 0-0.46355 0.10795-0.60643 0.20003l0.10478 0.18097c0.12065-0.0825 0.2794-0.1651 0.46037-0.1651 0.25083 0 0.3175 0.1905 0.3175 0.38735-0.65722 0.073-0.94932 0.2413-0.94932 0.57785zm0.25717-0.019c0-0.19685 0.17463-0.32385 0.69215-0.38735v0.42863c-0.14922 0.13335-0.27305 0.20637-0.42227 0.20637-0.1524 0-0.26988-0.073-0.26988-0.24765z"/>
    <path d="m164.24 142.65h0.2667v-0.93345h0.79375v-0.22225h-0.79375v-0.70485h0.93663v-0.22225h-1.2033z"/>
    <path d="m165.91 140.79c0.1016 0 0.18097-0.0699 0.18097-0.16827 0-0.1016-0.0794-0.16828-0.18097-0.16828-0.1016 0-0.18098 0.0667-0.18098 0.16828 0 0.0984 0.0794 0.16827 0.18098 0.16827zm-0.13335 1.8606h0.26035v-1.543h-0.26035z"/>
    <path d="m166.44 141.88c0 0.50483 0.32702 0.80645 0.73977 0.80645 0.20955 0 0.37465-0.073 0.508-0.15875l-0.0921-0.17145c-0.1143 0.073-0.23813 0.12065-0.38418 0.12065-0.29527 0-0.4953-0.20955-0.51435-0.54292h1.0414c6e-3 -0.0381 0.01-0.0889 0.01-0.14288 0-0.44132-0.22225-0.7239-0.61595-0.7239-0.35243 0-0.69215 0.30798-0.69215 0.8128zm0.254-0.11747c0.0317-0.31115 0.2286-0.48895 0.4445-0.48895 0.2413 0 0.381 0.17462 0.381 0.48895z"/>
    <path d="m168.13 142.34c0 0.22543 0.0794 0.34925 0.27623 0.34925 0.0699 0 0.1143-0.01 0.14922-0.0254l-0.0349-0.19685c-0.0286 6e-3 -0.0413 6e-3 -0.0572 6e-3 -0.0381 0-0.073-0.0317-0.073-0.1143v-1.9685h-0.26035z"/>
    <path d="m168.83 141.88c0 0.51435 0.25083 0.80645 0.63818 0.80645 0.18097 0 0.34607-0.1016 0.46672-0.21907h0.01l0.0222 0.18097h0.2159v-2.2606h-0.26352v0.59373l0.0127 0.26352c-0.13653-0.11112-0.254-0.1778-0.4318-0.1778-0.35243 0-0.66993 0.31115-0.66993 0.8128zm0.26988-3e-3c0-0.35243 0.19685-0.59055 0.4445-0.59055 0.127 0 0.24447 0.0445 0.37465 0.16192v0.80645c-0.127 0.14288-0.25083 0.21273-0.3937 0.21273-0.26988 0-0.42545-0.22225-0.42545-0.59055z"/>
   </g>
  </g>
  <rect x="142.88" y="129.85" width="34.131" height="83.608" fill="none" stroke="#2f3744" stroke-dashoffset="1.2" stroke-linecap="square" stroke-width=".26458"/>
  <g>
   <rect x="143.41" y="144.67" width="33.073" height="7.9375" fill="#2f3744"/>
   <g fill="#e8eaec" stroke-linecap="round" stroke-width=".26458" aria-label="File #1 DATA">
    <path d="m152.25 150.06h0.2667v-0.93345h0.79375v-0.22225h-0.79375v-0.70485h0.93662v-0.22225h-1.2033z"/>
    <path d="m153.92 148.2c0.1016 0 0.18098-0.0699 0.18098-0.16827 0-0.1016-0.0794-0.16828-0.18098-0.16828-0.1016 0-0.18097 0.0667-0.18097 0.16828 0 0.0984 0.0794 0.16827 0.18097 0.16827zm-0.13335 1.8606h0.26035v-1.543h-0.26035z"/>
    <path d="m154.57 149.75c0 0.22543 0.0794 0.34925 0.27623 0.34925 0.0699 0 0.1143-0.01 0.14922-0.0254l-0.0349-0.19685c-0.0286 6e-3 -0.0413 6e-3 -0.0572 6e-3 -0.0381 0-0.073-0.0318-0.073-0.1143v-1.9685h-0.26035z"/>
    <path d="m155.27 149.29c0 0.50483 0.32703 0.80645 0.73978 0.80645 0.20955 0 0.37465-0.073 0.508-0.15875l-0.0921-0.17145c-0.1143 0.073-0.23812 0.12065-0.38417 0.12065-0.29528 0-0.4953-0.20955-0.51435-0.54292h1.0414c6e-3 -0.0381 0.01-0.0889 0.01-0.14288 0-0.44132-0.22225-0.7239-0.61595-0.7239-0.35242 0-0.69215 0.30798-0.69215 0.8128zm0.254-0.11747c0.0317-0.31115 0.2286-0.48895 0.4445-0.48895 0.2413 0 0.381 0.17462 0.381 0.48895z"/>
    <path d="m157.62 150.06h0.17145l0.0794-0.6477h0.4191l-0.0762 0.6477h0.16827l0.0794-0.6477h0.2921v-0.18097h-0.26988l0.0572-0.4699h0.27623v-0.18415h-0.25718l0.0762-0.58103h-0.16827l-0.0762 0.58103h-0.42228l0.073-0.58103h-0.16828l-0.073 0.58103h-0.2921v0.18415h0.26987l-0.0572 0.4699h-0.27622v0.18097h0.254zm0.27305-0.82867 0.0572-0.4699h0.4191l-0.0571 0.4699z"/>
    <path d="m159.16 150.06h1.143v-0.2159h-0.4191v-1.8098h-0.20003c-0.11112 0.0667-0.24447 0.11748-0.42862 0.14923v0.16827h0.3683v1.4922h-0.46355z"/>
    <path d="m161.4 150.06h0.5334c0.62865 0 0.97155-0.38735 0.97155-1.0509 0-0.6604-0.3429-1.0319-0.98425-1.0319h-0.5207zm0.2667-0.2159v-1.651h0.23495c0.48895 0 0.73025 0.2921 0.73025 0.81598 0 0.52705-0.2413 0.83502-0.73025 0.83502z"/>
    <path d="m163.57 149.21 0.1016-0.3175c0.073-0.23178 0.1397-0.46038 0.20638-0.70168h0.0127c0.0667 0.2413 0.13335 0.4699 0.20637 0.70168l0.0984 0.3175zm0.89218 0.84772h0.2794l-0.70485-2.0828h-0.29845l-0.70485 2.0828h0.26987l0.20003-0.635h0.75882z"/>
    <path d="m165.33 150.06h0.26352v-1.8606h0.63183v-0.22225h-1.5272v0.22225h0.63183z"/>
    <path d="m166.71 149.21 0.1016-0.3175c0.073-0.23178 0.1397-0.46038 0.20637-0.70168h0.0127c0.0667 0.2413 0.13335 0.4699 0.20638 0.70168l0.0984 0.3175zm0.89217 0.84772h0.2794l-0.70485-2.0828h-0.29845l-0.70485 2.0828h0.26988l0.20002-0.635h0.75883z"/>
   </g>
   <rect x="143.41" y="153.14" width="33.073" height="5.2917" fill="#2f3744"/>
   <g fill="#e8eaec" stroke-linecap="round" stroke-width=".26458" aria-label="(opt) Data Descriptor">
    <path d="m146.72 157.5 0.16192-0.0762c-0.24447-0.40323-0.36512-0.88265-0.36512-1.3652s0.12065-0.96203 0.36512-1.3652l-0.16192-0.0762c-0.26353 0.42545-0.4191 0.88265-0.4191 1.4414s0.15557 1.016 0.4191 1.4414z"/>
    <path d="m147.15 156.17c0 0.51117 0.33655 0.80645 0.71438 0.80645 0.37782 0 0.71437-0.29528 0.71437-0.80645 0-0.51753-0.33655-0.8128-0.71437-0.8128-0.37783 0-0.71438 0.29527-0.71438 0.8128zm0.26988 0c0-0.3556 0.18097-0.5969 0.4445-0.5969 0.2667 0 0.4445 0.2413 0.4445 0.5969 0 0.35242-0.1778 0.59055-0.4445 0.59055-0.26353 0-0.4445-0.23813-0.4445-0.59055z"/>
    <path d="m149.24 156.8c0.14287 0.11112 0.28575 0.1778 0.42862 0.1778 0.35243 0 0.66675-0.30798 0.66675-0.83185 0-0.47943-0.21272-0.7874-0.6096-0.7874-0.18097 0-0.35242 0.0984-0.49212 0.2159h-0.01l-0.0222-0.1778h-0.2159v2.1939h0.26035v-0.5207zm6e-3 -0.2032v-0.80963c0.1524-0.13652 0.28257-0.20955 0.41275-0.20955 0.2921 0 0.4064 0.2286 0.4064 0.56833 0 0.381-0.18733 0.61277-0.44133 0.61277-0.1016 0-0.23812-0.0445-0.37782-0.16192z"/>
    <path d="m150.79 156.46c0 0.3048 0.11112 0.51435 0.44132 0.51435 0.0953 0 0.20003-0.0286 0.28575-0.0572l-0.0508-0.19685c-0.0508 0.019-0.12065 0.0413-0.17462 0.0413-0.1778 0-0.23813-0.10795-0.23813-0.29845v-0.85725h0.41593v-0.21272h-0.41593v-0.4318h-0.21907l-0.0318 0.4318-0.2413 0.0159v0.19685h0.2286z"/>
    <path d="m151.68 157.42 0.16193 0.0762c0.26352-0.42545 0.4191-0.88265 0.4191-1.4414s-0.15558-1.016-0.4191-1.4414l-0.16193 0.0762c0.24448 0.40322 0.36513 0.88265 0.36513 1.3652s-0.12065 0.96202-0.36513 1.3652z"/>
    <path d="m153.44 156.94h0.5334c0.62865 0 0.97155-0.38735 0.97155-1.0509 0-0.6604-0.3429-1.0319-0.98425-1.0319h-0.5207zm0.2667-0.2159v-1.651h0.23495c0.48895 0 0.73025 0.2921 0.73025 0.81597 0 0.52705-0.2413 0.83503-0.73025 0.83503z"/>
    <path d="m155.29 156.54c0 0.27622 0.19368 0.43815 0.45403 0.43815 0.1905 0 0.36195-0.1016 0.51117-0.22225h6e-3l0.0222 0.18415h0.2159v-0.94615c0-0.38418-0.15875-0.635-0.53658-0.635-0.24765 0-0.46355 0.10795-0.60642 0.20002l0.10477 0.18098c0.12065-0.0825 0.2794-0.1651 0.46038-0.1651 0.25082 0 0.3175 0.1905 0.3175 0.38735-0.65723 0.073-0.94933 0.2413-0.94933 0.57785zm0.25718-0.019c0-0.19685 0.17462-0.32385 0.69215-0.38735v0.42862c-0.14923 0.13335-0.27305 0.20638-0.42228 0.20638-0.1524 0-0.26987-0.073-0.26987-0.24765z"/>
    <path d="m157.03 156.46c0 0.3048 0.11112 0.51435 0.44132 0.51435 0.0952 0 0.20003-0.0286 0.28575-0.0572l-0.0508-0.19685c-0.0508 0.019-0.12065 0.0413-0.17462 0.0413-0.1778 0-0.23813-0.10795-0.23813-0.29845v-0.85725h0.41593v-0.21272h-0.41593v-0.4318h-0.21907l-0.0317 0.4318-0.2413 0.0159v0.19685h0.2286z"/>
    <path d="m157.93 156.54c0 0.27622 0.19368 0.43815 0.45403 0.43815 0.1905 0 0.36195-0.1016 0.51117-0.22225h6e-3l0.0222 0.18415h0.2159v-0.94615c0-0.38418-0.15875-0.635-0.53658-0.635-0.24765 0-0.46355 0.10795-0.60642 0.20002l0.10477 0.18098c0.12065-0.0825 0.2794-0.1651 0.46038-0.1651 0.25082 0 0.3175 0.1905 0.3175 0.38735-0.65723 0.073-0.94933 0.2413-0.94933 0.57785zm0.25718-0.019c0-0.19685 0.17462-0.32385 0.69215-0.38735v0.42862c-0.14923 0.13335-0.27305 0.20638-0.42228 0.20638-0.1524 0-0.26987-0.073-0.26987-0.24765z"/>
    <path d="m160.28 156.94h0.5334c0.62865 0 0.97155-0.38735 0.97155-1.0509 0-0.6604-0.3429-1.0319-0.98425-1.0319h-0.5207zm0.2667-0.2159v-1.651h0.23495c0.48895 0 0.73025 0.2921 0.73025 0.81597 0 0.52705-0.2413 0.83503-0.73025 0.83503z"/>
    <path d="m162.09 156.17c0 0.50482 0.32703 0.80645 0.73978 0.80645 0.20955 0 0.37465-0.073 0.508-0.15875l-0.0921-0.17145c-0.1143 0.073-0.23812 0.12065-0.38417 0.12065-0.29528 0-0.4953-0.20955-0.51435-0.54293h1.0414c6e-3 -0.0381 0.01-0.0889 0.01-0.14287 0-0.44133-0.22225-0.7239-0.61595-0.7239-0.35242 0-0.69215 0.30797-0.69215 0.8128zm0.254-0.11748c0.0317-0.31115 0.2286-0.48895 0.4445-0.48895 0.2413 0 0.381 0.17463 0.381 0.48895z"/>
    <path d="m163.61 156.76c0.14605 0.12065 0.3556 0.21273 0.57468 0.21273 0.36512 0 0.56515-0.20955 0.56515-0.46038 0-0.2921-0.24765-0.38417-0.4699-0.46672-0.17463-0.0667-0.3429-0.12383-0.3429-0.2667 0-0.11748 0.0889-0.22225 0.28257-0.22225 0.13653 0 0.24765 0.0571 0.35243 0.13652l0.12382-0.1651c-0.11747-0.0952-0.28575-0.17462-0.47942-0.17462-0.33338 0-0.53023 0.1905-0.53023 0.43815 0 0.26035 0.2413 0.36512 0.46038 0.4445 0.16827 0.0635 0.35242 0.13335 0.35242 0.2921 0 0.13335-0.1016 0.2413-0.3048 0.2413-0.18415 0-0.32067-0.0762-0.45402-0.18415z"/>
    <path d="m165 156.17c0 0.51117 0.31433 0.80645 0.7239 0.80645 0.18415 0 0.36195-0.0762 0.50165-0.20003l-0.11747-0.17145c-0.0921 0.0825-0.2159 0.15558-0.36195 0.15558-0.28258 0-0.47625-0.23813-0.47625-0.59055 0-0.3556 0.2032-0.5969 0.4826-0.5969 0.12382 0 0.21907 0.0572 0.31115 0.13652l0.13017-0.16827c-0.10477-0.0984-0.24765-0.18415-0.45085-0.18415-0.39687 0-0.74295 0.29527-0.74295 0.8128z"/>
    <path d="m166.56 156.94h0.26035v-0.9906c0.10477-0.26035 0.26035-0.3556 0.39052-0.3556 0.0635 0 0.0984 0.01 0.14923 0.0254l0.0508-0.2286c-0.0508-0.0222-0.0984-0.0317-0.1651-0.0317-0.17463 0-0.33338 0.12382-0.43815 0.3175h-0.01l-0.0222-0.2794h-0.2159z"/>
    <path d="m167.8 155.08c0.1016 0 0.18097-0.0699 0.18097-0.16828 0-0.1016-0.0794-0.16827-0.18097-0.16827-0.1016 0-0.18098 0.0667-0.18098 0.16827 0 0.0984 0.0794 0.16828 0.18098 0.16828zm-0.13335 1.8606h0.26035v-1.543h-0.26035z"/>
    <path d="m168.7 156.8c0.14288 0.11112 0.28575 0.1778 0.42863 0.1778 0.35242 0 0.66675-0.30798 0.66675-0.83185 0-0.47943-0.21273-0.7874-0.6096-0.7874-0.18098 0-0.35243 0.0984-0.49213 0.2159h-0.01l-0.0222-0.1778h-0.2159v2.1939h0.26035v-0.5207zm6e-3 -0.2032v-0.80963c0.1524-0.13652 0.28258-0.20955 0.41275-0.20955 0.2921 0 0.4064 0.2286 0.4064 0.56833 0 0.381-0.18732 0.61277-0.44132 0.61277-0.1016 0-0.23813-0.0445-0.37783-0.16192z"/>
    <path d="m170.25 156.46c0 0.3048 0.11112 0.51435 0.44132 0.51435 0.0952 0 0.20003-0.0286 0.28575-0.0572l-0.0508-0.19685c-0.0508 0.019-0.12065 0.0413-0.17462 0.0413-0.1778 0-0.23813-0.10795-0.23813-0.29845v-0.85725h0.41593v-0.21272h-0.41593v-0.4318h-0.21907l-0.0317 0.4318-0.2413 0.0159v0.19685h0.2286z"/>
    <path d="m171.14 156.17c0 0.51117 0.33655 0.80645 0.71438 0.80645 0.37782 0 0.71437-0.29528 0.71437-0.80645 0-0.51753-0.33655-0.8128-0.71437-0.8128-0.37783 0-0.71438 0.29527-0.71438 0.8128zm0.26988 0c0-0.3556 0.18097-0.5969 0.4445-0.5969 0.2667 0 0.4445 0.2413 0.4445 0.5969 0 0.35242-0.1778 0.59055-0.4445 0.59055-0.26353 0-0.4445-0.23813-0.4445-0.59055z"/>
    <path d="m172.97 156.94h0.26035v-0.9906c0.10477-0.26035 0.26035-0.3556 0.39052-0.3556 0.0635 0 0.0984 0.01 0.14923 0.0254l0.0508-0.2286c-0.0508-0.0222-0.0984-0.0317-0.1651-0.0317-0.17463 0-0.33338 0.12382-0.43815 0.3175h-0.01l-0.0222-0.2794h-0.2159z"/>
   </g>
   <rect x="143.41" y="158.96" width="33.073" height="7.9375" fill="#2f3744"/>
   <g fill="#e8eaec" stroke-linecap="round" stroke-width=".26458" aria-label="Local Header">
    <path d="m151.53 164.35h1.1748v-0.22542h-0.90805v-1.8574h-0.2667z"/>
    <path d="m152.89 163.58c0 0.51118 0.33655 0.80645 0.71437 0.80645 0.37783 0 0.71438-0.29527 0.71438-0.80645 0-0.51752-0.33655-0.8128-0.71438-0.8128-0.37782 0-0.71437 0.29528-0.71437 0.8128zm0.26987 0c0-0.3556 0.18098-0.5969 0.4445-0.5969 0.2667 0 0.4445 0.2413 0.4445 0.5969 0 0.35243-0.1778 0.59055-0.4445 0.59055-0.26352 0-0.4445-0.23812-0.4445-0.59055z"/>
    <path d="m154.61 163.58c0 0.51118 0.31433 0.80645 0.7239 0.80645 0.18415 0 0.36195-0.0762 0.50165-0.20002l-0.11747-0.17145c-0.0921 0.0825-0.2159 0.15557-0.36195 0.15557-0.28258 0-0.47625-0.23812-0.47625-0.59055 0-0.3556 0.2032-0.5969 0.4826-0.5969 0.12382 0 0.21907 0.0571 0.31115 0.13653l0.13017-0.16828c-0.10477-0.0984-0.24765-0.18415-0.45085-0.18415-0.39687 0-0.74295 0.29528-0.74295 0.8128z"/>
    <path d="m156.06 163.95c0 0.27623 0.19367 0.43815 0.45402 0.43815 0.1905 0 0.36195-0.1016 0.51118-0.22225h6e-3l0.0222 0.18415h0.2159v-0.94615c0-0.38417-0.15875-0.635-0.53657-0.635-0.24765 0-0.46355 0.10795-0.60643 0.20003l0.10478 0.18097c0.12065-0.0825 0.2794-0.1651 0.46037-0.1651 0.25083 0 0.3175 0.1905 0.3175 0.38735-0.65722 0.073-0.94932 0.2413-0.94932 0.57785zm0.25717-0.019c0-0.19685 0.17463-0.32385 0.69215-0.38735v0.42863c-0.14922 0.13335-0.27305 0.20637-0.42227 0.20637-0.1524 0-0.26988-0.073-0.26988-0.24765z"/>
    <path d="m157.77 164.03c0 0.22543 0.0794 0.34925 0.27622 0.34925 0.0699 0 0.1143-0.01 0.14923-0.0254l-0.0349-0.19685c-0.0286 6e-3 -0.0413 6e-3 -0.0571 6e-3 -0.0381 0-0.073-0.0317-0.073-0.1143v-1.9685h-0.26035z"/>
    <path d="m159.23 164.35h0.2667v-0.98107h0.96838v0.98107h0.26352v-2.0828h-0.26352v0.87313h-0.96838v-0.87313h-0.2667z"/>
    <path d="m161.15 163.58c0 0.50483 0.32702 0.80645 0.73977 0.80645 0.20955 0 0.37465-0.073 0.508-0.15875l-0.0921-0.17145c-0.1143 0.073-0.23813 0.12065-0.38418 0.12065-0.29527 0-0.4953-0.20955-0.51435-0.54292h1.0414c6e-3 -0.0381 0.01-0.0889 0.01-0.14288 0-0.44132-0.22225-0.7239-0.61595-0.7239-0.35243 0-0.69215 0.30798-0.69215 0.8128zm0.254-0.11747c0.0317-0.31115 0.2286-0.48895 0.4445-0.48895 0.2413 0 0.381 0.17462 0.381 0.48895z"/>
    <path d="m162.72 163.95c0 0.27623 0.19367 0.43815 0.45402 0.43815 0.1905 0 0.36195-0.1016 0.51118-0.22225h6e-3l0.0222 0.18415h0.2159v-0.94615c0-0.38417-0.15875-0.635-0.53657-0.635-0.24765 0-0.46355 0.10795-0.60643 0.20003l0.10478 0.18097c0.12065-0.0825 0.2794-0.1651 0.46037-0.1651 0.25083 0 0.3175 0.1905 0.3175 0.38735-0.65722 0.073-0.94932 0.2413-0.94932 0.57785zm0.25717-0.019c0-0.19685 0.17463-0.32385 0.69215-0.38735v0.42863c-0.14922 0.13335-0.27305 0.20637-0.42227 0.20637-0.1524 0-0.26988-0.073-0.26988-0.24765z"/>
    <path d="m164.31 163.58c0 0.51435 0.25082 0.80645 0.63817 0.80645 0.18098 0 0.34608-0.1016 0.46673-0.21907h0.01l0.0222 0.18097h0.2159v-2.2606h-0.26353v0.59373l0.0127 0.26352c-0.13652-0.11112-0.254-0.1778-0.4318-0.1778-0.35242 0-0.66992 0.31115-0.66992 0.8128zm0.26987-3e-3c0-0.35243 0.19685-0.59055 0.4445-0.59055 0.127 0 0.24448 0.0445 0.37465 0.16192v0.80645c-0.127 0.14288-0.25082 0.21273-0.3937 0.21273-0.26987 0-0.42545-0.22225-0.42545-0.59055z"/>
    <path d="m166.07 163.58c0 0.50483 0.32702 0.80645 0.73977 0.80645 0.20955 0 0.37465-0.073 0.508-0.15875l-0.0921-0.17145c-0.1143 0.073-0.23813 0.12065-0.38418 0.12065-0.29527 0-0.4953-0.20955-0.51435-0.54292h1.0414c6e-3 -0.0381 0.01-0.0889 0.01-0.14288 0-0.44132-0.22225-0.7239-0.61595-0.7239-0.35243 0-0.69215 0.30798-0.69215 0.8128zm0.254-0.11747c0.0317-0.31115 0.2286-0.48895 0.4445-0.48895 0.2413 0 0.381 0.17462 0.381 0.48895z"/>
    <path d="m167.76 164.35h0.26035v-0.9906c0.10478-0.26035 0.26035-0.3556 0.39053-0.3556 0.0635 0 0.0984 0.01 0.14922 0.0254l0.0508-0.2286c-0.0508-0.0222-0.0984-0.0317-0.1651-0.0317-0.17462 0-0.33337 0.12383-0.43815 0.3175h-0.01l-0.0222-0.2794h-0.2159z"/>
   </g>
   <rect x="143.41" y="167.42" width="33.073" height="5.2917" fill="#2f3744"/>
   <g fill="#e8eaec" stroke-linecap="round" stroke-width=".26458" aria-label="(opt) Extra Field">
    <path d="m150.1 171.78 0.16192-0.0762c-0.24447-0.40323-0.36512-0.88265-0.36512-1.3652s0.12065-0.96203 0.36512-1.3652l-0.16192-0.0762c-0.26353 0.42545-0.4191 0.88265-0.4191 1.4414s0.15557 1.016 0.4191 1.4414z"/>
    <path d="m150.52 170.46c0 0.51117 0.33655 0.80645 0.71437 0.80645 0.37783 0 0.71438-0.29528 0.71438-0.80645 0-0.51753-0.33655-0.8128-0.71438-0.8128-0.37782 0-0.71437 0.29527-0.71437 0.8128zm0.26987 0c0-0.3556 0.18098-0.5969 0.4445-0.5969 0.2667 0 0.4445 0.2413 0.4445 0.5969 0 0.35242-0.1778 0.59055-0.4445 0.59055-0.26352 0-0.4445-0.23813-0.4445-0.59055z"/>
    <path d="m152.62 171.09c0.14288 0.11112 0.28575 0.1778 0.42863 0.1778 0.35242 0 0.66675-0.30798 0.66675-0.83185 0-0.47943-0.21273-0.7874-0.6096-0.7874-0.18098 0-0.35243 0.0984-0.49213 0.2159h-0.01l-0.0222-0.1778h-0.2159v2.1939h0.26035v-0.5207zm6e-3 -0.2032v-0.80963c0.1524-0.13652 0.28258-0.20955 0.41275-0.20955 0.2921 0 0.4064 0.2286 0.4064 0.56833 0 0.381-0.18732 0.61277-0.44132 0.61277-0.1016 0-0.23813-0.0444-0.37783-0.16192z"/>
    <path d="m154.17 170.75c0 0.3048 0.11112 0.51435 0.44132 0.51435 0.0952 0 0.20003-0.0286 0.28575-0.0571l-0.0508-0.19685c-0.0508 0.019-0.12065 0.0413-0.17462 0.0413-0.1778 0-0.23813-0.10795-0.23813-0.29845v-0.85725h0.41593v-0.21272h-0.41593v-0.4318h-0.21907l-0.0317 0.4318-0.2413 0.0159v0.19685h0.2286z"/>
    <path d="m155.06 171.71 0.16192 0.0762c0.26353-0.42545 0.4191-0.88265 0.4191-1.4414s-0.15557-1.016-0.4191-1.4414l-0.16192 0.0762c0.24447 0.40322 0.36512 0.88265 0.36512 1.3652s-0.12065 0.96202-0.36512 1.3652z"/>
    <path d="m156.81 171.22h1.2319v-0.22543h-0.9652v-0.75565h0.7874v-0.22542h-0.7874v-0.65405h0.93345v-0.22225h-1.2002z"/>
    <path d="m158.23 171.22h0.27305l0.20955-0.35878c0.0508-0.0952 0.1016-0.18732 0.15558-0.27622h0.0127c0.0572 0.0889 0.1143 0.18415 0.16827 0.27622l0.22543 0.35878h0.28257l-0.50165-0.77788 0.46673-0.76517h-0.27305l-0.18733 0.33972c-0.0476 0.0825-0.0952 0.17145-0.1397 0.25718h-0.0127c-0.054-0.0857-0.10477-0.17463-0.1524-0.25718l-0.20637-0.33972h-0.28258l0.46673 0.7366z"/>
    <path d="m159.91 170.75c0 0.3048 0.11113 0.51435 0.44133 0.51435 0.0952 0 0.20002-0.0286 0.28575-0.0571l-0.0508-0.19685c-0.0508 0.019-0.12065 0.0413-0.17463 0.0413-0.1778 0-0.23812-0.10795-0.23812-0.29845v-0.85725h0.41592v-0.21272h-0.41592v-0.4318h-0.21908l-0.0317 0.4318-0.2413 0.0159v0.19685h0.2286z"/>
    <path d="m160.94 171.22h0.26035v-0.9906c0.10478-0.26035 0.26035-0.3556 0.39053-0.3556 0.0635 0 0.0984 0.01 0.14922 0.0254l0.0508-0.2286c-0.0508-0.0222-0.0984-0.0318-0.1651-0.0318-0.17462 0-0.33337 0.12382-0.43815 0.3175h-0.01l-0.0222-0.2794h-0.2159z"/>
    <path d="m161.88 170.82c0 0.27622 0.19367 0.43815 0.45402 0.43815 0.1905 0 0.36195-0.1016 0.51118-0.22225h6e-3l0.0222 0.18415h0.2159v-0.94615c0-0.38418-0.15875-0.635-0.53657-0.635-0.24765 0-0.46355 0.10795-0.60643 0.20002l0.10478 0.18098c0.12065-0.0825 0.2794-0.1651 0.46037-0.1651 0.25083 0 0.3175 0.1905 0.3175 0.38735-0.65722 0.073-0.94932 0.2413-0.94932 0.57785zm0.25717-0.0191c0-0.19685 0.17463-0.32385 0.69215-0.38735v0.42862c-0.14922 0.13335-0.27305 0.20638-0.42227 0.20638-0.1524 0-0.26988-0.073-0.26988-0.24765z"/>
    <path d="m164.24 171.22h0.2667v-0.93345h0.79375v-0.22225h-0.79375v-0.70485h0.93663v-0.22225h-1.2033z"/>
    <path d="m165.91 169.36c0.1016 0 0.18097-0.0699 0.18097-0.16828 0-0.1016-0.0794-0.16827-0.18097-0.16827-0.1016 0-0.18098 0.0667-0.18098 0.16827 0 0.0984 0.0794 0.16828 0.18098 0.16828zm-0.13335 1.8606h0.26035v-1.543h-0.26035z"/>
    <path d="m166.44 170.46c0 0.50482 0.32702 0.80645 0.73977 0.80645 0.20955 0 0.37465-0.073 0.508-0.15875l-0.0921-0.17145c-0.1143 0.073-0.23813 0.12065-0.38418 0.12065-0.29527 0-0.4953-0.20955-0.51435-0.54293h1.0414c6e-3 -0.0381 0.01-0.0889 0.01-0.14287 0-0.44133-0.22225-0.7239-0.61595-0.7239-0.35243 0-0.69215 0.30797-0.69215 0.8128zm0.254-0.11748c0.0317-0.31115 0.2286-0.48895 0.4445-0.48895 0.2413 0 0.381 0.17463 0.381 0.48895z"/>
    <path d="m168.13 170.91c0 0.22542 0.0794 0.34925 0.27623 0.34925 0.0699 0 0.1143-0.01 0.14922-0.0254l-0.0349-0.19685c-0.0286 6e-3 -0.0413 6e-3 -0.0572 6e-3 -0.0381 0-0.073-0.0318-0.073-0.1143v-1.9685h-0.26035z"/>
    <path d="m168.83 170.46c0 0.51435 0.25083 0.80645 0.63818 0.80645 0.18097 0 0.34607-0.1016 0.46672-0.21908h0.01l0.0222 0.18098h0.2159v-2.2606h-0.26352v0.59372l0.0127 0.26353c-0.13653-0.11113-0.254-0.1778-0.4318-0.1778-0.35243 0-0.66993 0.31115-0.66993 0.8128zm0.26988-3e-3c0-0.35242 0.19685-0.59055 0.4445-0.59055 0.127 0 0.24447 0.0444 0.37465 0.16193v0.80645c-0.127 0.14287-0.25083 0.21272-0.3937 0.21272-0.26988 0-0.42545-0.22225-0.42545-0.59055z"/>
   </g>
   <rect x="143.41" y="173.24" width="33.073" height="7.9375" fill="#2f3744"/>
   <g fill="#e8eaec" stroke-linecap="round" stroke-width=".26458" aria-label="File #2 DATA">
    <path d="m152.25 178.63h0.2667v-0.93345h0.79375v-0.22225h-0.79375v-0.70485h0.93662v-0.22225h-1.2033z"/>
    <path d="m153.92 176.77c0.1016 0 0.18098-0.0699 0.18098-0.16827 0-0.1016-0.0794-0.16828-0.18098-0.16828-0.1016 0-0.18097 0.0667-0.18097 0.16828 0 0.0984 0.0794 0.16827 0.18097 0.16827zm-0.13335 1.8606h0.26035v-1.543h-0.26035z"/>
    <path d="m154.57 178.32c0 0.22543 0.0794 0.34925 0.27623 0.34925 0.0699 0 0.1143-0.01 0.14922-0.0254l-0.0349-0.19685c-0.0286 6e-3 -0.0413 6e-3 -0.0572 6e-3 -0.0381 0-0.073-0.0317-0.073-0.1143v-1.9685h-0.26035z"/>
    <path d="m155.27 177.86c0 0.50483 0.32703 0.80645 0.73978 0.80645 0.20955 0 0.37465-0.073 0.508-0.15875l-0.0921-0.17145c-0.1143 0.073-0.23812 0.12065-0.38417 0.12065-0.29528 0-0.4953-0.20955-0.51435-0.54292h1.0414c6e-3 -0.0381 0.01-0.0889 0.01-0.14288 0-0.44132-0.22225-0.7239-0.61595-0.7239-0.35242 0-0.69215 0.30798-0.69215 0.8128zm0.254-0.11747c0.0317-0.31115 0.2286-0.48895 0.4445-0.48895 0.2413 0 0.381 0.17462 0.381 0.48895z"/>
    <path d="m157.62 178.63h0.17145l0.0794-0.6477h0.4191l-0.0762 0.6477h0.16827l0.0794-0.6477h0.2921v-0.18097h-0.26988l0.0572-0.4699h0.27623v-0.18415h-0.25718l0.0762-0.58103h-0.16827l-0.0762 0.58103h-0.42228l0.073-0.58103h-0.16828l-0.073 0.58103h-0.2921v0.18415h0.26987l-0.0572 0.4699h-0.27622v0.18097h0.254zm0.27305-0.82867 0.0572-0.4699h0.4191l-0.0571 0.4699z"/>
    <path d="m159.04 178.63h1.3081v-0.22542h-0.58737c-0.10478 0-0.2286 0.01-0.33973 0.019 0.47943-0.50165 0.8255-0.87948 0.8255-1.2605 0-0.35877-0.23177-0.5969-0.60642-0.5969-0.26353 0-0.4445 0.12383-0.61278 0.30798l0.14923 0.14922c0.11747-0.13652 0.26352-0.24447 0.4318-0.24447 0.25717 0 0.38417 0.1651 0.38417 0.39687 0 0.32703-0.3429 0.69215-0.9525 1.2986z"/>
    <path d="m161.4 178.63h0.5334c0.62865 0 0.97155-0.38735 0.97155-1.0509 0-0.6604-0.3429-1.0319-0.98425-1.0319h-0.5207zm0.2667-0.2159v-1.651h0.23495c0.48895 0 0.73025 0.2921 0.73025 0.81598 0 0.52705-0.2413 0.83502-0.73025 0.83502z"/>
    <path d="m163.57 177.79 0.1016-0.3175c0.073-0.23178 0.1397-0.46038 0.20638-0.70168h0.0127c0.0667 0.2413 0.13335 0.4699 0.20637 0.70168l0.0984 0.3175zm0.89218 0.84772h0.2794l-0.70485-2.0828h-0.29845l-0.70485 2.0828h0.26987l0.20003-0.635h0.75882z"/>
    <path d="m165.33 178.63h0.26352v-1.8606h0.63183v-0.22225h-1.5272v0.22225h0.63183z"/>
    <path d="m166.71 177.79 0.1016-0.3175c0.073-0.23178 0.1397-0.46038 0.20637-0.70168h0.0127c0.0667 0.2413 0.13335 0.4699 0.20638 0.70168l0.0984 0.3175zm0.89217 0.84772h0.2794l-0.70485-2.0828h-0.29845l-0.70485 2.0828h0.26988l0.20002-0.635h0.75883z"/>
   </g>
   <rect x="143.41" y="181.71" width="33.073" height="5.2917" fill="#2f3744"/>
   <g fill="#e8eaec" stroke-linecap="round" stroke-width=".26458" aria-label="(opt) Data Descriptor">
    <path d="m146.72 186.07 0.16192-0.0762c-0.24447-0.40323-0.36512-0.88265-0.36512-1.3652s0.12065-0.96203 0.36512-1.3652l-0.16192-0.0762c-0.26353 0.42545-0.4191 0.88265-0.4191 1.4414s0.15557 1.016 0.4191 1.4414z"/>
    <path d="m147.15 184.74c0 0.51117 0.33655 0.80645 0.71438 0.80645 0.37782 0 0.71437-0.29528 0.71437-0.80645 0-0.51753-0.33655-0.8128-0.71437-0.8128-0.37783 0-0.71438 0.29527-0.71438 0.8128zm0.26988 0c0-0.3556 0.18097-0.5969 0.4445-0.5969 0.2667 0 0.4445 0.2413 0.4445 0.5969 0 0.35242-0.1778 0.59055-0.4445 0.59055-0.26353 0-0.4445-0.23813-0.4445-0.59055z"/>
    <path d="m149.24 185.37c0.14287 0.11112 0.28575 0.1778 0.42862 0.1778 0.35243 0 0.66675-0.30798 0.66675-0.83185 0-0.47943-0.21272-0.7874-0.6096-0.7874-0.18097 0-0.35242 0.0984-0.49212 0.2159h-0.01l-0.0222-0.1778h-0.2159v2.1939h0.26035v-0.5207zm6e-3 -0.2032v-0.80963c0.1524-0.13652 0.28257-0.20955 0.41275-0.20955 0.2921 0 0.4064 0.2286 0.4064 0.56833 0 0.381-0.18733 0.61277-0.44133 0.61277-0.1016 0-0.23812-0.0444-0.37782-0.16192z"/>
    <path d="m150.79 185.04c0 0.3048 0.11112 0.51435 0.44132 0.51435 0.0953 0 0.20003-0.0286 0.28575-0.0572l-0.0508-0.19685c-0.0508 0.019-0.12065 0.0413-0.17462 0.0413-0.1778 0-0.23813-0.10795-0.23813-0.29845v-0.85725h0.41593v-0.21272h-0.41593v-0.4318h-0.21907l-0.0318 0.4318-0.2413 0.0159v0.19685h0.2286z"/>
    <path d="m151.68 186 0.16193 0.0762c0.26352-0.42545 0.4191-0.88265 0.4191-1.4414s-0.15558-1.016-0.4191-1.4414l-0.16193 0.0762c0.24448 0.40322 0.36513 0.88265 0.36513 1.3652s-0.12065 0.96202-0.36513 1.3652z"/>
    <path d="m153.44 185.51h0.5334c0.62865 0 0.97155-0.38735 0.97155-1.0509 0-0.6604-0.3429-1.0319-0.98425-1.0319h-0.5207zm0.2667-0.2159v-1.651h0.23495c0.48895 0 0.73025 0.2921 0.73025 0.81597 0 0.52705-0.2413 0.83503-0.73025 0.83503z"/>
    <path d="m155.29 185.11c0 0.27622 0.19368 0.43815 0.45403 0.43815 0.1905 0 0.36195-0.1016 0.51117-0.22225h6e-3l0.0222 0.18415h0.2159v-0.94615c0-0.38418-0.15875-0.635-0.53658-0.635-0.24765 0-0.46355 0.10795-0.60642 0.20002l0.10477 0.18098c0.12065-0.0825 0.2794-0.1651 0.46038-0.1651 0.25082 0 0.3175 0.1905 0.3175 0.38735-0.65723 0.073-0.94933 0.2413-0.94933 0.57785zm0.25718-0.019c0-0.19685 0.17462-0.32385 0.69215-0.38735v0.42862c-0.14923 0.13335-0.27305 0.20638-0.42228 0.20638-0.1524 0-0.26987-0.073-0.26987-0.24765z"/>
    <path d="m157.03 185.04c0 0.3048 0.11112 0.51435 0.44132 0.51435 0.0952 0 0.20003-0.0286 0.28575-0.0572l-0.0508-0.19685c-0.0508 0.019-0.12065 0.0413-0.17462 0.0413-0.1778 0-0.23813-0.10795-0.23813-0.29845v-0.85725h0.41593v-0.21272h-0.41593v-0.4318h-0.21907l-0.0317 0.4318-0.2413 0.0159v0.19685h0.2286z"/>
    <path d="m157.93 185.11c0 0.27622 0.19368 0.43815 0.45403 0.43815 0.1905 0 0.36195-0.1016 0.51117-0.22225h6e-3l0.0222 0.18415h0.2159v-0.94615c0-0.38418-0.15875-0.635-0.53658-0.635-0.24765 0-0.46355 0.10795-0.60642 0.20002l0.10477 0.18098c0.12065-0.0825 0.2794-0.1651 0.46038-0.1651 0.25082 0 0.3175 0.1905 0.3175 0.38735-0.65723 0.073-0.94933 0.2413-0.94933 0.57785zm0.25718-0.019c0-0.19685 0.17462-0.32385 0.69215-0.38735v0.42862c-0.14923 0.13335-0.27305 0.20638-0.42228 0.20638-0.1524 0-0.26987-0.073-0.26987-0.24765z"/>
    <path d="m160.28 185.51h0.5334c0.62865 0 0.97155-0.38735 0.97155-1.0509 0-0.6604-0.3429-1.0319-0.98425-1.0319h-0.5207zm0.2667-0.2159v-1.651h0.23495c0.48895 0 0.73025 0.2921 0.73025 0.81597 0 0.52705-0.2413 0.83503-0.73025 0.83503z"/>
    <path d="m162.09 184.74c0 0.50482 0.32703 0.80645 0.73978 0.80645 0.20955 0 0.37465-0.073 0.508-0.15875l-0.0921-0.17145c-0.1143 0.073-0.23812 0.12065-0.38417 0.12065-0.29528 0-0.4953-0.20955-0.51435-0.54293h1.0414c6e-3 -0.0381 0.01-0.0889 0.01-0.14287 0-0.44133-0.22225-0.7239-0.61595-0.7239-0.35242 0-0.69215 0.30797-0.69215 0.8128zm0.254-0.11748c0.0317-0.31115 0.2286-0.48895 0.4445-0.48895 0.2413 0 0.381 0.17463 0.381 0.48895z"/>
    <path d="m163.61 185.34c0.14605 0.12065 0.3556 0.21273 0.57468 0.21273 0.36512 0 0.56515-0.20955 0.56515-0.46038 0-0.2921-0.24765-0.38417-0.4699-0.46672-0.17463-0.0667-0.3429-0.12383-0.3429-0.2667 0-0.11748 0.0889-0.22225 0.28257-0.22225 0.13653 0 0.24765 0.0572 0.35243 0.13652l0.12382-0.1651c-0.11747-0.0952-0.28575-0.17462-0.47942-0.17462-0.33338 0-0.53023 0.1905-0.53023 0.43815 0 0.26035 0.2413 0.36512 0.46038 0.4445 0.16827 0.0635 0.35242 0.13335 0.35242 0.2921 0 0.13335-0.1016 0.2413-0.3048 0.2413-0.18415 0-0.32067-0.0762-0.45402-0.18415z"/>
    <path d="m165 184.74c0 0.51117 0.31433 0.80645 0.7239 0.80645 0.18415 0 0.36195-0.0762 0.50165-0.20003l-0.11747-0.17145c-0.0921 0.0825-0.2159 0.15558-0.36195 0.15558-0.28258 0-0.47625-0.23813-0.47625-0.59055 0-0.3556 0.2032-0.5969 0.4826-0.5969 0.12382 0 0.21907 0.0572 0.31115 0.13652l0.13017-0.16827c-0.10477-0.0984-0.24765-0.18415-0.45085-0.18415-0.39687 0-0.74295 0.29527-0.74295 0.8128z"/>
    <path d="m166.56 185.51h0.26035v-0.9906c0.10477-0.26035 0.26035-0.3556 0.39052-0.3556 0.0635 0 0.0984 0.01 0.14923 0.0254l0.0508-0.2286c-0.0508-0.0222-0.0984-0.0318-0.1651-0.0318-0.17463 0-0.33338 0.12382-0.43815 0.3175h-0.01l-0.0222-0.2794h-0.2159z"/>
    <path d="m167.8 183.65c0.1016 0 0.18097-0.0699 0.18097-0.16828 0-0.1016-0.0794-0.16827-0.18097-0.16827-0.1016 0-0.18098 0.0667-0.18098 0.16827 0 0.0984 0.0794 0.16828 0.18098 0.16828zm-0.13335 1.8606h0.26035v-1.543h-0.26035z"/>
    <path d="m168.7 185.37c0.14288 0.11112 0.28575 0.1778 0.42863 0.1778 0.35242 0 0.66675-0.30798 0.66675-0.83185 0-0.47943-0.21273-0.7874-0.6096-0.7874-0.18098 0-0.35243 0.0984-0.49213 0.2159h-0.01l-0.0222-0.1778h-0.2159v2.1939h0.26035v-0.5207zm6e-3 -0.2032v-0.80963c0.1524-0.13652 0.28258-0.20955 0.41275-0.20955 0.2921 0 0.4064 0.2286 0.4064 0.56833 0 0.381-0.18732 0.61277-0.44132 0.61277-0.1016 0-0.23813-0.0444-0.37783-0.16192z"/>
    <path d="m170.25 185.04c0 0.3048 0.11112 0.51435 0.44132 0.51435 0.0952 0 0.20003-0.0286 0.28575-0.0572l-0.0508-0.19685c-0.0508 0.019-0.12065 0.0413-0.17462 0.0413-0.1778 0-0.23813-0.10795-0.23813-0.29845v-0.85725h0.41593v-0.21272h-0.41593v-0.4318h-0.21907l-0.0317 0.4318-0.2413 0.0159v0.19685h0.2286z"/>
    <path d="m171.14 184.74c0 0.51117 0.33655 0.80645 0.71438 0.80645 0.37782 0 0.71437-0.29528 0.71437-0.80645 0-0.51753-0.33655-0.8128-0.71437-0.8128-0.37783 0-0.71438 0.29527-0.71438 0.8128zm0.26988 0c0-0.3556 0.18097-0.5969 0.4445-0.5969 0.2667 0 0.4445 0.2413 0.4445 0.5969 0 0.35242-0.1778 0.59055-0.4445 0.59055-0.26353 0-0.4445-0.23813-0.4445-0.59055z"/>
    <path d="m172.97 185.51h0.26035v-0.9906c0.10477-0.26035 0.26035-0.3556 0.39052-0.3556 0.0635 0 0.0984 0.01 0.14923 0.0254l0.0508-0.2286c-0.0508-0.0222-0.0984-0.0318-0.1651-0.0318-0.17463 0-0.33338 0.12382-0.43815 0.3175h-0.01l-0.0222-0.2794h-0.2159z"/>
   </g>
   <rect x="143.41" y="187.53" width="33.073" height="7.9375" fill="#2f3744"/>
   <g fill="#e8eaec" stroke-linecap="round" stroke-width=".26458" aria-label="...">
    <path d="m158.95 191.7c0 0.1143 0.0857 0.19685 0.1905 0.19685 0.1016 0 0.18732-0.0825 0.18732-0.19685 0-0.12065-0.0857-0.2032-0.18732-0.2032-0.10478 0-0.1905 0.0825-0.1905 0.2032z"/>
    <path d="m159.74 191.7c0 0.1143 0.0857 0.19685 0.1905 0.19685 0.1016 0 0.18733-0.0825 0.18733-0.19685 0-0.12065-0.0857-0.2032-0.18733-0.2032-0.10477 0-0.1905 0.0825-0.1905 0.2032z"/>
    <path d="m160.53 191.7c0 0.1143 0.0857 0.19685 0.1905 0.19685 0.1016 0 0.18733-0.0825 0.18733-0.19685 0-0.12065-0.0857-0.2032-0.18733-0.2032-0.10477 0-0.1905 0.0825-0.1905 0.2032z"/>
   </g>
   <rect x="143.41" y="196" width="33.073" height="5.2917" fill="#2f3744"/>
   <g fill="#e8eaec" stroke-linecap="round" stroke-width=".26458" aria-label="File Header 1">
    <path d="m151.6 199.8h0.2667v-0.93345h0.79375v-0.22225h-0.79375v-0.70485h0.93663v-0.22225h-1.2033z"/>
    <path d="m153.26 197.94c0.1016 0 0.18097-0.0699 0.18097-0.16827 0-0.1016-0.0794-0.16828-0.18097-0.16828-0.1016 0-0.18098 0.0667-0.18098 0.16828 0 0.0984 0.0794 0.16827 0.18098 0.16827zm-0.13335 1.8606h0.26035v-1.543h-0.26035z"/>
    <path d="m153.91 199.49c0 0.22543 0.0794 0.34925 0.27622 0.34925 0.0699 0 0.1143-0.01 0.14923-0.0254l-0.0349-0.19685c-0.0286 6e-3 -0.0413 6e-3 -0.0572 6e-3 -0.0381 0-0.073-0.0317-0.073-0.1143v-1.9685h-0.26035z"/>
    <path d="m154.61 199.03c0 0.50483 0.32703 0.80645 0.73978 0.80645 0.20955 0 0.37465-0.073 0.508-0.15875l-0.0921-0.17145c-0.1143 0.073-0.23812 0.12065-0.38417 0.12065-0.29528 0-0.4953-0.20955-0.51435-0.54292h1.0414c6e-3 -0.0381 0.01-0.0889 0.01-0.14288 0-0.44132-0.22225-0.7239-0.61595-0.7239-0.35242 0-0.69215 0.30798-0.69215 0.8128zm0.254-0.11747c0.0317-0.31115 0.2286-0.48895 0.4445-0.48895 0.2413 0 0.381 0.17462 0.381 0.48895z"/>
    <path d="m156.95 199.8h0.2667v-0.98107h0.96838v0.98107h0.26352v-2.0828h-0.26352v0.87313h-0.96838v-0.87313h-0.2667z"/>
    <path d="m158.88 199.03c0 0.50483 0.32702 0.80645 0.73977 0.80645 0.20955 0 0.37465-0.073 0.508-0.15875l-0.0921-0.17145c-0.1143 0.073-0.23813 0.12065-0.38418 0.12065-0.29527 0-0.4953-0.20955-0.51435-0.54292h1.0414c6e-3 -0.0381 0.01-0.0889 0.01-0.14288 0-0.44132-0.22225-0.7239-0.61595-0.7239-0.35243 0-0.69215 0.30798-0.69215 0.8128zm0.254-0.11747c0.0317-0.31115 0.2286-0.48895 0.4445-0.48895 0.2413 0 0.381 0.17462 0.381 0.48895z"/>
    <path d="m160.45 199.4c0 0.27623 0.19367 0.43815 0.45402 0.43815 0.1905 0 0.36195-0.1016 0.51118-0.22225h6e-3l0.0222 0.18415h0.2159v-0.94615c0-0.38417-0.15875-0.635-0.53657-0.635-0.24765 0-0.46355 0.10795-0.60643 0.20003l0.10478 0.18097c0.12065-0.0826 0.2794-0.1651 0.46037-0.1651 0.25083 0 0.3175 0.1905 0.3175 0.38735-0.65722 0.073-0.94932 0.2413-0.94932 0.57785zm0.25717-0.019c0-0.19685 0.17463-0.32385 0.69215-0.38735v0.42863c-0.14922 0.13335-0.27305 0.20637-0.42227 0.20637-0.1524 0-0.26988-0.073-0.26988-0.24765z"/>
    <path d="m162.04 199.03c0 0.51435 0.25082 0.80645 0.63817 0.80645 0.18098 0 0.34608-0.1016 0.46673-0.21907h0.01l0.0222 0.18097h0.2159v-2.2606h-0.26353v0.59373l0.0127 0.26352c-0.13652-0.11112-0.254-0.1778-0.4318-0.1778-0.35242 0-0.66992 0.31115-0.66992 0.8128zm0.26987-3e-3c0-0.35243 0.19685-0.59055 0.4445-0.59055 0.127 0 0.24448 0.0444 0.37465 0.16192v0.80645c-0.127 0.14288-0.25082 0.21273-0.3937 0.21273-0.26987 0-0.42545-0.22225-0.42545-0.59055z"/>
    <path d="m163.79 199.03c0 0.50483 0.32702 0.80645 0.73977 0.80645 0.20955 0 0.37465-0.073 0.508-0.15875l-0.0921-0.17145c-0.1143 0.073-0.23813 0.12065-0.38418 0.12065-0.29527 0-0.4953-0.20955-0.51435-0.54292h1.0414c6e-3 -0.0381 0.01-0.0889 0.01-0.14288 0-0.44132-0.22225-0.7239-0.61595-0.7239-0.35243 0-0.69215 0.30798-0.69215 0.8128zm0.254-0.11747c0.0317-0.31115 0.2286-0.48895 0.4445-0.48895 0.2413 0 0.381 0.17462 0.381 0.48895z"/>
    <path d="m165.48 199.8h0.26035v-0.9906c0.10478-0.26035 0.26035-0.3556 0.39053-0.3556 0.0635 0 0.0984 0.01 0.14922 0.0254l0.0508-0.2286c-0.0508-0.0222-0.0984-0.0317-0.1651-0.0317-0.17462 0-0.33337 0.12383-0.43815 0.3175h-0.01l-0.0222-0.2794h-0.2159z"/>
    <path d="m167.22 199.8h1.143v-0.2159h-0.4191v-1.8098h-0.20003c-0.11112 0.0667-0.24447 0.11748-0.42862 0.14923v0.16827h0.3683v1.4922h-0.46355z"/>
   </g>
   <rect x="143.41" y="201.82" width="33.073" height="5.2917" fill="#2f3744"/>
   <g fill="#e8eaec" stroke-linecap="round" stroke-width=".26458" aria-label="File Header 2">
    <path d="m151.6 205.62h0.2667v-0.93345h0.79375v-0.22225h-0.79375v-0.70485h0.93663v-0.22225h-1.2033z"/>
    <path d="m153.26 203.76c0.1016 0 0.18097-0.0699 0.18097-0.16827 0-0.1016-0.0794-0.16828-0.18097-0.16828-0.1016 0-0.18098 0.0667-0.18098 0.16828 0 0.0984 0.0794 0.16827 0.18098 0.16827zm-0.13335 1.8606h0.26035v-1.543h-0.26035z"/>
    <path d="m153.91 205.31c0 0.22543 0.0794 0.34925 0.27622 0.34925 0.0699 0 0.1143-0.01 0.14923-0.0254l-0.0349-0.19685c-0.0286 6e-3 -0.0413 6e-3 -0.0572 6e-3 -0.0381 0-0.073-0.0318-0.073-0.1143v-1.9685h-0.26035z"/>
    <path d="m154.61 204.85c0 0.50483 0.32703 0.80645 0.73978 0.80645 0.20955 0 0.37465-0.073 0.508-0.15875l-0.0921-0.17145c-0.1143 0.073-0.23812 0.12065-0.38417 0.12065-0.29528 0-0.4953-0.20955-0.51435-0.54292h1.0414c6e-3 -0.0381 0.01-0.0889 0.01-0.14288 0-0.44132-0.22225-0.7239-0.61595-0.7239-0.35242 0-0.69215 0.30798-0.69215 0.8128zm0.254-0.11747c0.0317-0.31115 0.2286-0.48895 0.4445-0.48895 0.2413 0 0.381 0.17462 0.381 0.48895z"/>
    <path d="m156.95 205.62h0.2667v-0.98107h0.96838v0.98107h0.26352v-2.0828h-0.26352v0.87313h-0.96838v-0.87313h-0.2667z"/>
    <path d="m158.88 204.85c0 0.50483 0.32702 0.80645 0.73977 0.80645 0.20955 0 0.37465-0.073 0.508-0.15875l-0.0921-0.17145c-0.1143 0.073-0.23813 0.12065-0.38418 0.12065-0.29527 0-0.4953-0.20955-0.51435-0.54292h1.0414c6e-3 -0.0381 0.01-0.0889 0.01-0.14288 0-0.44132-0.22225-0.7239-0.61595-0.7239-0.35243 0-0.69215 0.30798-0.69215 0.8128zm0.254-0.11747c0.0317-0.31115 0.2286-0.48895 0.4445-0.48895 0.2413 0 0.381 0.17462 0.381 0.48895z"/>
    <path d="m160.45 205.22c0 0.27623 0.19367 0.43815 0.45402 0.43815 0.1905 0 0.36195-0.1016 0.51118-0.22225h6e-3l0.0222 0.18415h0.2159v-0.94615c0-0.38417-0.15875-0.635-0.53657-0.635-0.24765 0-0.46355 0.10795-0.60643 0.20003l0.10478 0.18097c0.12065-0.0826 0.2794-0.1651 0.46037-0.1651 0.25083 0 0.3175 0.1905 0.3175 0.38735-0.65722 0.073-0.94932 0.2413-0.94932 0.57785zm0.25717-0.019c0-0.19685 0.17463-0.32385 0.69215-0.38735v0.42863c-0.14922 0.13335-0.27305 0.20637-0.42227 0.20637-0.1524 0-0.26988-0.073-0.26988-0.24765z"/>
    <path d="m162.04 204.85c0 0.51435 0.25082 0.80645 0.63817 0.80645 0.18098 0 0.34608-0.1016 0.46673-0.21907h0.01l0.0222 0.18097h0.2159v-2.2606h-0.26353v0.59373l0.0127 0.26352c-0.13652-0.11112-0.254-0.1778-0.4318-0.1778-0.35242 0-0.66992 0.31115-0.66992 0.8128zm0.26987-3e-3c0-0.35243 0.19685-0.59055 0.4445-0.59055 0.127 0 0.24448 0.0444 0.37465 0.16192v0.80645c-0.127 0.14288-0.25082 0.21273-0.3937 0.21273-0.26987 0-0.42545-0.22225-0.42545-0.59055z"/>
    <path d="m163.79 204.85c0 0.50483 0.32702 0.80645 0.73977 0.80645 0.20955 0 0.37465-0.073 0.508-0.15875l-0.0921-0.17145c-0.1143 0.073-0.23813 0.12065-0.38418 0.12065-0.29527 0-0.4953-0.20955-0.51435-0.54292h1.0414c6e-3 -0.0381 0.01-0.0889 0.01-0.14288 0-0.44132-0.22225-0.7239-0.61595-0.7239-0.35243 0-0.69215 0.30798-0.69215 0.8128zm0.254-0.11747c0.0317-0.31115 0.2286-0.48895 0.4445-0.48895 0.2413 0 0.381 0.17462 0.381 0.48895z"/>
    <path d="m165.48 205.62h0.26035v-0.9906c0.10478-0.26035 0.26035-0.3556 0.39053-0.3556 0.0635 0 0.0984 0.01 0.14922 0.0254l0.0508-0.2286c-0.0508-0.0222-0.0984-0.0317-0.1651-0.0317-0.17462 0-0.33337 0.12383-0.43815 0.3175h-0.01l-0.0222-0.2794h-0.2159z"/>
    <path d="m167.09 205.62h1.3081v-0.22542h-0.58737c-0.10478 0-0.2286 0.01-0.33973 0.019 0.47943-0.50165 0.8255-0.87948 0.8255-1.2605 0-0.35877-0.23177-0.5969-0.60642-0.5969-0.26353 0-0.4445 0.12383-0.61278 0.30798l0.14923 0.14922c0.11747-0.13652 0.26352-0.24447 0.4318-0.24447 0.25717 0 0.38417 0.1651 0.38417 0.39687 0 0.32703-0.3429 0.69215-0.9525 1.2986z"/>
   </g>
   <rect x="143.41" y="207.64" width="33.073" height="5.2917" fill="#2f3744"/>
   <g fill="#e8eaec" stroke-linecap="round" stroke-width=".26458" aria-label="File Header ...">
    <path d="m151.2 211.44h0.2667v-0.93345h0.79375v-0.22225h-0.79375v-0.70485h0.93662v-0.22225h-1.2033z"/>
    <path d="m152.87 209.58c0.1016 0 0.18098-0.0699 0.18098-0.16827 0-0.1016-0.0794-0.16828-0.18098-0.16828-0.1016 0-0.18097 0.0667-0.18097 0.16828 0 0.0984 0.0794 0.16827 0.18097 0.16827zm-0.13335 1.8606h0.26035v-1.543h-0.26035z"/>
    <path d="m153.52 211.13c0 0.22543 0.0794 0.34925 0.27623 0.34925 0.0699 0 0.1143-0.01 0.14922-0.0254l-0.0349-0.19685c-0.0286 6e-3 -0.0413 6e-3 -0.0572 6e-3 -0.0381 0-0.073-0.0318-0.073-0.1143v-1.9685h-0.26035z"/>
    <path d="m154.22 210.67c0 0.50483 0.32702 0.80645 0.73977 0.80645 0.20955 0 0.37465-0.073 0.508-0.15875l-0.0921-0.17145c-0.1143 0.073-0.23813 0.12065-0.38418 0.12065-0.29527 0-0.4953-0.20955-0.51435-0.54292h1.0414c6e-3 -0.0381 0.01-0.0889 0.01-0.14288 0-0.44132-0.22225-0.7239-0.61595-0.7239-0.35243 0-0.69215 0.30798-0.69215 0.8128zm0.254-0.11747c0.0317-0.31115 0.2286-0.48895 0.4445-0.48895 0.2413 0 0.381 0.17462 0.381 0.48895z"/>
    <path d="m156.56 211.44h0.2667v-0.98107h0.96837v0.98107h0.26353v-2.0828h-0.26353v0.87313h-0.96837v-0.87313h-0.2667z"/>
    <path d="m158.48 210.67c0 0.50483 0.32703 0.80645 0.73978 0.80645 0.20955 0 0.37465-0.073 0.508-0.15875l-0.0921-0.17145c-0.1143 0.073-0.23812 0.12065-0.38417 0.12065-0.29528 0-0.4953-0.20955-0.51435-0.54292h1.0414c6e-3 -0.0381 0.01-0.0889 0.01-0.14288 0-0.44132-0.22225-0.7239-0.61595-0.7239-0.35242 0-0.69215 0.30798-0.69215 0.8128zm0.254-0.11747c0.0318-0.31115 0.2286-0.48895 0.4445-0.48895 0.2413 0 0.381 0.17462 0.381 0.48895z"/>
    <path d="m160.05 211.04c0 0.27623 0.19368 0.43815 0.45403 0.43815 0.1905 0 0.36195-0.1016 0.51117-0.22225h6e-3l0.0222 0.18415h0.2159v-0.94615c0-0.38417-0.15875-0.635-0.53658-0.635-0.24765 0-0.46355 0.10795-0.60642 0.20003l0.10477 0.18097c0.12065-0.0825 0.2794-0.1651 0.46038-0.1651 0.25082 0 0.3175 0.1905 0.3175 0.38735-0.65723 0.073-0.94933 0.2413-0.94933 0.57785zm0.25718-0.019c0-0.19685 0.17462-0.32385 0.69215-0.38735v0.42863c-0.14923 0.13335-0.27305 0.20637-0.42228 0.20637-0.1524 0-0.26987-0.073-0.26987-0.24765z"/>
    <path d="m161.64 210.67c0 0.51435 0.25083 0.80645 0.63818 0.80645 0.18097 0 0.34607-0.1016 0.46672-0.21907h0.01l0.0222 0.18097h0.2159v-2.2606h-0.26352v0.59373l0.0127 0.26352c-0.13653-0.11112-0.254-0.1778-0.4318-0.1778-0.35243 0-0.66993 0.31115-0.66993 0.8128zm0.26988-3e-3c0-0.35243 0.19685-0.59055 0.4445-0.59055 0.127 0 0.24447 0.0444 0.37465 0.16192v0.80645c-0.127 0.14288-0.25083 0.21273-0.3937 0.21273-0.26988 0-0.42545-0.22225-0.42545-0.59055z"/>
    <path d="m163.4 210.67c0 0.50483 0.32703 0.80645 0.73978 0.80645 0.20955 0 0.37465-0.073 0.508-0.15875l-0.0921-0.17145c-0.1143 0.073-0.23812 0.12065-0.38417 0.12065-0.29528 0-0.4953-0.20955-0.51435-0.54292h1.0414c6e-3 -0.0381 0.01-0.0889 0.01-0.14288 0-0.44132-0.22225-0.7239-0.61595-0.7239-0.35242 0-0.69215 0.30798-0.69215 0.8128zm0.254-0.11747c0.0318-0.31115 0.2286-0.48895 0.4445-0.48895 0.2413 0 0.381 0.17462 0.381 0.48895z"/>
    <path d="m165.09 211.44h0.26035v-0.9906c0.10477-0.26035 0.26035-0.3556 0.39052-0.3556 0.0635 0 0.0984 0.01 0.14923 0.0254l0.0508-0.2286c-0.0508-0.0222-0.0984-0.0318-0.1651-0.0318-0.17463 0-0.33338 0.12383-0.43815 0.3175h-0.01l-0.0222-0.2794h-0.2159z"/>
    <path d="m166.78 211.28c0 0.1143 0.0857 0.19685 0.1905 0.19685 0.1016 0 0.18733-0.0825 0.18733-0.19685 0-0.12065-0.0857-0.2032-0.18733-0.2032-0.10477 0-0.1905 0.0826-0.1905 0.2032z"/>
    <path d="m167.57 211.28c0 0.1143 0.0857 0.19685 0.1905 0.19685 0.1016 0 0.18733-0.0825 0.18733-0.19685 0-0.12065-0.0857-0.2032-0.18733-0.2032-0.10477 0-0.1905 0.0826-0.1905 0.2032z"/>
    <path d="m168.35 211.28c0 0.1143 0.0857 0.19685 0.1905 0.19685 0.1016 0 0.18733-0.0825 0.18733-0.19685 0-0.12065-0.0857-0.2032-0.18733-0.2032-0.10477 0-0.1905 0.0826-0.1905 0.2032z"/>
   </g>
  </g>
  <g fill="none" stroke="#e8eaec" stroke-dashoffset="1.2" stroke-linecap="square" stroke-width=".26458">
   <path d="m180.45 129.85h2.6458v28.575h-2.6458"/>
   <path d="m180.45 158.96h2.6458v28.046h-2.6458"/>
   <path d="m180.45 195.73h2.6458v17.727h-2.6458"/>
  </g>
  <g fill="#e8eaec" stroke-linecap="round" stroke-width=".26458">
   <g aria-label="File #1 DATA">
    <path d="m186.65 144.77h0.2667v-0.93345h0.79375v-0.22225h-0.79375v-0.70485h0.93663v-0.22225h-1.2033z"/>
    <path d="m188.32 142.91c0.1016 0 0.18098-0.0699 0.18098-0.16827 0-0.1016-0.0794-0.16828-0.18098-0.16828-0.1016 0-0.18097 0.0667-0.18097 0.16828 0 0.0984 0.0794 0.16827 0.18097 0.16827zm-0.13335 1.8606h0.26035v-1.543h-0.26035z"/>
    <path d="m188.96 144.46c0 0.22543 0.0794 0.34925 0.27622 0.34925 0.0699 0 0.1143-0.01 0.14923-0.0254l-0.0349-0.19685c-0.0286 6e-3 -0.0413 6e-3 -0.0572 6e-3 -0.0381 0-0.073-0.0317-0.073-0.1143v-1.9685h-0.26035z"/>
    <path d="m189.66 144c0 0.50483 0.32703 0.80645 0.73978 0.80645 0.20955 0 0.37465-0.073 0.508-0.15875l-0.0921-0.17145c-0.1143 0.073-0.23812 0.12065-0.38417 0.12065-0.29528 0-0.4953-0.20955-0.51435-0.54292h1.0414c6e-3 -0.0381 0.01-0.0889 0.01-0.14288 0-0.44132-0.22225-0.7239-0.61595-0.7239-0.35242 0-0.69215 0.30798-0.69215 0.8128zm0.254-0.11747c0.0318-0.31115 0.2286-0.48895 0.4445-0.48895 0.2413 0 0.381 0.17462 0.381 0.48895z"/>
    <path d="m192.02 144.77h0.17145l0.0794-0.6477h0.4191l-0.0762 0.6477h0.16827l0.0794-0.6477h0.2921v-0.18097h-0.26988l0.0572-0.4699h0.27623v-0.18415h-0.25718l0.0762-0.58103h-0.16827l-0.0762 0.58103h-0.42228l0.073-0.58103h-0.16828l-0.073 0.58103h-0.2921v0.18415h0.26987l-0.0572 0.4699h-0.27622v0.18097h0.254zm0.27305-0.82867 0.0571-0.4699h0.4191l-0.0572 0.4699z"/>
    <path d="m193.56 144.77h1.143v-0.2159h-0.4191v-1.8098h-0.20002c-0.11113 0.0667-0.24448 0.11748-0.42863 0.14923v0.16827h0.3683v1.4922h-0.46355z"/>
    <path d="m195.8 144.77h0.5334c0.62865 0 0.97155-0.38735 0.97155-1.0509 0-0.6604-0.3429-1.0319-0.98425-1.0319h-0.5207zm0.2667-0.2159v-1.651h0.23495c0.48895 0 0.73025 0.2921 0.73025 0.81598 0 0.52705-0.2413 0.83502-0.73025 0.83502z"/>
    <path d="m197.97 143.92 0.1016-0.3175c0.073-0.23178 0.1397-0.46038 0.20638-0.70168h0.0127c0.0667 0.2413 0.13335 0.4699 0.20637 0.70168l0.0984 0.3175zm0.89218 0.84772h0.2794l-0.70485-2.0828h-0.29845l-0.70485 2.0828h0.26987l0.20003-0.635h0.75882z"/>
    <path d="m199.72 144.77h0.26352v-1.8606h0.63183v-0.22225h-1.5272v0.22225h0.63183z"/>
    <path d="m201.11 143.92 0.1016-0.3175c0.073-0.23178 0.1397-0.46038 0.20637-0.70168h0.0127c0.0667 0.2413 0.13335 0.4699 0.20638 0.70168l0.0984 0.3175zm0.89217 0.84772h0.2794l-0.70485-2.0828h-0.29845l-0.70485 2.0828h0.26988l0.20002-0.635h0.75883z"/>
   </g>
   <g aria-label="File #2 DATA">
    <path d="m186.65 172.55h0.2667v-0.93345h0.79375v-0.22225h-0.79375v-0.70485h0.93663v-0.22225h-1.2033z"/>
    <path d="m188.32 170.69c0.1016 0 0.18098-0.0699 0.18098-0.16827 0-0.1016-0.0794-0.16828-0.18098-0.16828-0.1016 0-0.18097 0.0667-0.18097 0.16828 0 0.0984 0.0794 0.16827 0.18097 0.16827zm-0.13335 1.8606h0.26035v-1.543h-0.26035z"/>
    <path d="m188.96 172.24c0 0.22543 0.0794 0.34925 0.27622 0.34925 0.0699 0 0.1143-0.01 0.14923-0.0254l-0.0349-0.19685c-0.0286 6e-3 -0.0413 6e-3 -0.0572 6e-3 -0.0381 0-0.073-0.0317-0.073-0.1143v-1.9685h-0.26035z"/>
    <path d="m189.66 171.78c0 0.50483 0.32703 0.80645 0.73978 0.80645 0.20955 0 0.37465-0.073 0.508-0.15875l-0.0921-0.17145c-0.1143 0.073-0.23812 0.12065-0.38417 0.12065-0.29528 0-0.4953-0.20955-0.51435-0.54292h1.0414c6e-3 -0.0381 0.01-0.0889 0.01-0.14288 0-0.44132-0.22225-0.7239-0.61595-0.7239-0.35242 0-0.69215 0.30798-0.69215 0.8128zm0.254-0.11747c0.0318-0.31115 0.2286-0.48895 0.4445-0.48895 0.2413 0 0.381 0.17462 0.381 0.48895z"/>
    <path d="m192.02 172.55h0.17145l0.0794-0.6477h0.4191l-0.0762 0.6477h0.16827l0.0794-0.6477h0.2921v-0.18097h-0.26988l0.0572-0.4699h0.27623v-0.18415h-0.25718l0.0762-0.58103h-0.16827l-0.0762 0.58103h-0.42228l0.073-0.58103h-0.16828l-0.073 0.58103h-0.2921v0.18415h0.26987l-0.0572 0.4699h-0.27622v0.18097h0.254zm0.27305-0.82867 0.0571-0.4699h0.4191l-0.0572 0.4699z"/>
    <path d="m193.43 172.55h1.3081v-0.22542h-0.58738c-0.10477 0-0.2286 0.01-0.33972 0.019 0.47942-0.50165 0.8255-0.87948 0.8255-1.2605 0-0.35877-0.23178-0.5969-0.60643-0.5969-0.26352 0-0.4445 0.12383-0.61277 0.30798l0.14922 0.14922c0.11748-0.13652 0.26353-0.24447 0.4318-0.24447 0.25718 0 0.38418 0.1651 0.38418 0.39687 0 0.32703-0.3429 0.69215-0.9525 1.2986z"/>
    <path d="m195.8 172.55h0.5334c0.62865 0 0.97155-0.38735 0.97155-1.0509 0-0.6604-0.3429-1.0319-0.98425-1.0319h-0.5207zm0.2667-0.2159v-1.651h0.23495c0.48895 0 0.73025 0.2921 0.73025 0.81598 0 0.52705-0.2413 0.83502-0.73025 0.83502z"/>
    <path d="m197.97 171.7 0.1016-0.3175c0.073-0.23178 0.1397-0.46038 0.20638-0.70168h0.0127c0.0667 0.2413 0.13335 0.4699 0.20637 0.70168l0.0984 0.3175zm0.89218 0.84772h0.2794l-0.70485-2.0828h-0.29845l-0.70485 2.0828h0.26987l0.20003-0.635h0.75882z"/>
    <path d="m199.72 172.55h0.26352v-1.8606h0.63183v-0.22225h-1.5272v0.22225h0.63183z"/>
    <path d="m201.11 171.7 0.1016-0.3175c0.073-0.23178 0.1397-0.46038 0.20637-0.70168h0.0127c0.0667 0.2413 0.13335 0.4699 0.20638 0.70168l0.0984 0.3175zm0.89217 0.84772h0.2794l-0.70485-2.0828h-0.29845l-0.70485 2.0828h0.26988l0.20002-0.635h0.75883z"/>
   </g>
   <g aria-label="Dir structure">
    <path d="m186.31 205.09h0.5334c0.62865 0 0.97155-0.38735 0.97155-1.0509 0-0.6604-0.3429-1.0319-0.98425-1.0319h-0.5207zm0.2667-0.2159v-1.651h0.23495c0.48895 0 0.73025 0.2921 0.73025 0.81597 0 0.52705-0.2413 0.83503-0.73025 0.83503z"/>
    <path d="m188.37 203.23c0.1016 0 0.18098-0.0699 0.18098-0.16828 0-0.1016-0.0794-0.16827-0.18098-0.16827-0.1016 0-0.18097 0.0667-0.18097 0.16827 0 0.0984 0.0794 0.16828 0.18097 0.16828zm-0.13335 1.8606h0.26035v-1.543h-0.26035z"/>
    <path d="m189.02 205.09h0.26035v-0.9906c0.10477-0.26035 0.26035-0.3556 0.39052-0.3556 0.0635 0 0.0984 0.01 0.14923 0.0254l0.0508-0.2286c-0.0508-0.0222-0.0984-0.0318-0.1651-0.0318-0.17463 0-0.33338 0.12382-0.43815 0.3175h-0.01l-0.0222-0.2794h-0.2159z"/>
    <path d="m190.59 204.92c0.14605 0.12065 0.3556 0.21273 0.57467 0.21273 0.36513 0 0.56515-0.20955 0.56515-0.46038 0-0.2921-0.24765-0.38417-0.4699-0.46672-0.17462-0.0667-0.3429-0.12383-0.3429-0.2667 0-0.11748 0.0889-0.22225 0.28258-0.22225 0.13652 0 0.24765 0.0572 0.35242 0.13652l0.12383-0.1651c-0.11748-0.0952-0.28575-0.17462-0.47943-0.17462-0.33337 0-0.53022 0.1905-0.53022 0.43815 0 0.26035 0.2413 0.36512 0.46037 0.4445 0.16828 0.0635 0.35243 0.13335 0.35243 0.2921 0 0.13335-0.1016 0.2413-0.3048 0.2413-0.18415 0-0.32068-0.0762-0.45403-0.18415z"/>
    <path d="m192.14 204.62c0 0.3048 0.11113 0.51435 0.44133 0.51435 0.0952 0 0.20002-0.0286 0.28575-0.0572l-0.0508-0.19685c-0.0508 0.019-0.12065 0.0413-0.17463 0.0413-0.1778 0-0.23812-0.10795-0.23812-0.29845v-0.85725h0.41592v-0.21272h-0.41592v-0.4318h-0.21908l-0.0317 0.4318-0.2413 0.0159v0.19685h0.2286z"/>
    <path d="m193.17 205.09h0.26035v-0.9906c0.10478-0.26035 0.26035-0.3556 0.39053-0.3556 0.0635 0 0.0984 0.01 0.14922 0.0254l0.0508-0.2286c-0.0508-0.0222-0.0984-0.0318-0.1651-0.0318-0.17462 0-0.33337 0.12382-0.43815 0.3175h-0.01l-0.0222-0.2794h-0.2159z"/>
    <path d="m194.25 204.53c0 0.3937 0.14605 0.60325 0.47307 0.60325 0.21273 0 0.36513-0.11113 0.508-0.2794h0.01l0.0222 0.2413h0.2159v-1.543h-0.26035v1.0954c-0.14605 0.18098-0.25717 0.26035-0.41592 0.26035-0.2032 0-0.28893-0.12382-0.28893-0.41275v-0.94297h-0.26352z"/>
    <path d="m195.89 204.32c0 0.51117 0.31432 0.80645 0.7239 0.80645 0.18415 0 0.36195-0.0762 0.50165-0.20003l-0.11748-0.17145c-0.0921 0.0825-0.2159 0.15558-0.36195 0.15558-0.28257 0-0.47625-0.23813-0.47625-0.59055 0-0.3556 0.2032-0.5969 0.4826-0.5969 0.12383 0 0.21908 0.0572 0.31115 0.13652l0.13018-0.16827c-0.10478-0.0984-0.24765-0.18415-0.45085-0.18415-0.39688 0-0.74295 0.29527-0.74295 0.8128z"/>
    <path d="m197.49 204.62c0 0.3048 0.11113 0.51435 0.44133 0.51435 0.0952 0 0.20002-0.0286 0.28575-0.0572l-0.0508-0.19685c-0.0508 0.019-0.12065 0.0413-0.17463 0.0413-0.1778 0-0.23812-0.10795-0.23812-0.29845v-0.85725h0.41592v-0.21272h-0.41592v-0.4318h-0.21908l-0.0317 0.4318-0.2413 0.0159v0.19685h0.2286z"/>
    <path d="m198.48 204.53c0 0.3937 0.14605 0.60325 0.47307 0.60325 0.21273 0 0.36513-0.11113 0.508-0.2794h0.01l0.0222 0.2413h0.2159v-1.543h-0.2608v1.0954c-0.14605 0.18098-0.25717 0.26035-0.41592 0.26035-0.2032 0-0.28893-0.12382-0.28893-0.41275v-0.94297h-0.26352z"/>
    <path d="m200.23 205.09h0.26035v-0.9906c0.10477-0.26035 0.26035-0.3556 0.39052-0.3556 0.0635 0 0.0984 0.01 0.14923 0.0254l0.0508-0.2286c-0.0508-0.0222-0.0984-0.0318-0.1651-0.0318-0.17463 0-0.33338 0.12382-0.43815 0.3175h-0.01l-0.0222-0.2794h-0.2159z"/>
    <path d="m201.19 204.32c0 0.50482 0.32703 0.80645 0.73978 0.80645 0.20955 0 0.37465-0.073 0.508-0.15875l-0.0921-0.17145c-0.1143 0.073-0.23812 0.12065-0.38417 0.12065-0.29528 0-0.4953-0.20955-0.51435-0.54293h1.0414c6e-3 -0.0381 0.01-0.0889 0.01-0.14287 0-0.44133-0.22225-0.7239-0.61595-0.7239-0.35242 0-0.69215 0.30797-0.69215 0.8128zm0.254-0.11748c0.0317-0.31115 0.2286-0.48895 0.4445-0.48895 0.2413 0 0.381 0.17463 0.381 0.48895z"/>
   </g>
  </g>
 </g>
</svg>
