<?xml version="1.0" encoding="UTF-8"?>
<svg width="639.79" height="277.35" version="1.1" viewBox="0 0 169.28 73.384" xmlns="http://www.w3.org/2000/svg" xmlns:cc="http://creativecommons.org/ns#" xmlns:dc="http://purl.org/dc/elements/1.1/" xmlns:rdf="http://www.w3.org/1999/02/22-rdf-syntax-ns#">
 <metadata>
  <rdf:RDF>
   <cc:Work rdf:about="">
    <dc:format>image/svg+xml</dc:format>
    <dc:type rdf:resource="http://purl.org/dc/dcmitype/StillImage"/>
    <dc:title/>
   </cc:Work>
  </rdf:RDF>
 </metadata>
 <g transform="matrix(7.2628 0 0 7.2628 -684.21 -699.12)" stroke-dashoffset="1.2" stroke-linecap="square" stroke-width=".26459">
  <rect x="94.208" y="96.454" width="23.308" height="9.7115" fill="#1d232d" style="paint-order:normal"/>
  <g fill="#7b8694">
   <path d="m94.596 96.26h1.1654v0.19408h-1.1654z"/>
   <path d="m96.538 96.26h1.1654v0.19408h-1.1654z"/>
   <path d="m98.481 96.26h1.1654v0.19408h-1.1654z"/>
   <path d="m100.42 96.26h1.1654v0.19408h-1.1654z"/>
   <path d="m102.37 96.26h1.1654v0.19408h-1.1654z"/>
   <path d="m104.31 96.26h1.1654v0.19408h-1.1654z"/>
   <path d="m106.25 96.26h1.1654v0.19408h-1.1654z"/>
   <path d="m108.19 96.26h1.1654v0.19408h-1.1654z"/>
   <path d="m110.13 96.26h1.1654v0.19408h-1.1654z"/>
   <path d="m112.08 96.26h1.1654v0.19408h-1.1654z"/>
   <path d="m114.02 96.26h1.1654v0.19408h-1.1654z"/>
   <path d="m115.96 96.26h1.1654v0.19408h-1.1654z"/>
   <path d="m115.96 106.17h1.1654v0.19405h-1.1654z"/>
   <path d="m114.02 106.17h1.1654v0.19405h-1.1654z"/>
   <path d="m112.08 106.17h1.1654v0.19405h-1.1654z"/>
   <path d="m110.13 106.17h1.1654v0.19405h-1.1654z"/>
   <path d="m108.19 106.17h1.1654v0.19405h-1.1654z"/>
   <path d="m106.25 106.17h1.1654v0.19405h-1.1654z"/>
   <path d="m104.31 106.17h1.1654v0.19405h-1.1654z"/>
   <path d="m102.37 106.17h1.1654v0.19405h-1.1654z"/>
   <path d="m100.42 106.17h1.1654v0.19405h-1.1654z"/>
   <path d="m98.481 106.17h1.1654v0.19405h-1.1654z"/>
   <path d="m96.538 106.17h1.1654v0.19405h-1.1654z"/>
   <path d="m94.596 106.17h1.1654v0.19405h-1.1654z"/>
  </g>
 </g>
 <path d="m62.899 58.377c-0.48226-0.83482-0.89903-1.4946-0.92615-1.4663-0.02712 0.02836-0.42093 0.69671-0.87512 1.4852-0.4542 0.78846-0.84706 1.4324-0.87304 1.431-0.04158-0.0024-1.7092-2.8712-1.7699-3.0448-0.0146-0.04167 0.64331-0.06752 1.7167-0.06752 0.95718 0 1.7403-0.01152 1.7403-0.02539 0-0.01393-0.38229-0.68613-0.84952-1.4937-0.46724-0.80761-0.84952-1.4811-0.84952-1.4967 0-0.01559 0.7839-0.02832 1.742-0.02832 1.3652 0 1.7344-0.01914 1.7068-0.0885-0.01933-0.04866-0.40512-0.72563-0.85725-1.5044l-0.82205-1.4158 1.7346-0.01896c0.95402-0.01051 1.7346-0.03886 1.7346-0.06313 0-0.02433-0.38228-0.70676-0.84952-1.5165-0.46723-0.80979-0.84952-1.4896-0.84952-1.5108 0-0.0212 0.78099-0.047 1.7355-0.0574l1.7355-0.01892-0.85062-1.476c-0.46787-0.81181-0.85062-1.4888-0.85062-1.5044 0-0.01559 0.7805-0.02834 1.7344-0.02834 0.95394 0 1.7344-0.01567 1.7344-0.03486 0-0.01914-0.38295-0.69611-0.85101-1.5044l-0.851-1.4695 1.7359-0.01894c0.95476-0.01051 1.7359-0.03812 1.7359-0.06165 0-0.02347-0.38228-0.70401-0.84952-1.5123-0.46721-0.80823-0.84952-1.4887-0.84952-1.5122 0-0.02347 0.78056-0.05119 1.7346-0.06165l1.7346-0.01894-0.84965-1.4748c-0.46734-0.81111-0.84967-1.4881-0.84967-1.5044 0-0.01627 0.78049-0.0296 1.7344-0.0296 0.95394 0 1.7344-0.01327 1.7344-0.0296 0-0.01627-0.38235-0.69325-0.84965-1.5044l-0.84966-1.4748 1.7417-0.01892c1.3452-0.01467 1.7339-0.03886 1.7075-0.10618-0.01866-0.048-0.40248-0.72438-0.85268-1.5031l-0.81852-1.4159 1.7376-0.01894c1.6024-0.01746 1.734-0.02832 1.6914-0.13938-0.02533-0.06626-0.41088-0.7506-0.85662-1.5208-0.44572-0.77026-0.8104-1.4164-0.8104-1.4358 0-0.01946 0.78051-0.0354 1.7344-0.0354 0.95394 0 1.7344-0.01393 1.7344-0.03106 0-0.01706-0.38228-0.69066-0.84952-1.4969-0.46727-0.80622-0.84952-1.4772-0.84952-1.491 0-0.01379 0.78391-0.02519 1.742-0.02519 1.3651 0 1.7345-0.01914 1.7071-0.0885-0.01932-0.04866-0.40368-0.72563-0.8543-1.5044l-0.81937-1.4159 1.7387-0.01894c1.5257-0.0166 1.7337-0.03219 1.6972-0.12714-0.02267-0.05952-0.40828-0.743-0.85661-1.5189-0.44834-0.77589-0.8151-1.4275-0.8151-1.448 0-0.02053 0.78049-0.03733 1.7344-0.03733 0.95393 0 1.7344-0.01273 1.7344-0.02832s-0.38255-0.68958-0.85016-1.4978c-0.46761-0.80822-0.83871-1.481-0.82468-1.495 0.01399-0.01399 0.82451-0.017 1.8011-0.0065l1.7756 0.01892-0.84268 1.4513c-0.46348 0.79819-0.84361 1.4746-0.84475 1.5031-0.0012 0.02854 0.7791 0.06039 1.7339 0.07079l1.7359 0.01894-0.851 1.4695c-0.46807 0.80825-0.851 1.5011-0.851 1.5398 0 0.04453 0.63338 0.07023 1.7304 0.07023h1.7304l-0.84546 1.4671c-0.46501 0.80692-0.84545 1.4913-0.84545 1.5208 0 0.02952 0.77719 0.06219 1.7271 0.07263l1.7271 0.01894-0.84045 1.4513c-0.46228 0.79819-0.84123 1.4746-0.84217 1.5031-0.0012 0.02854 0.77865 0.06039 1.7324 0.07079l1.7341 0.01894-0.84919 1.4697c-0.46708 0.80834-0.84921 1.5007-0.84921 1.5385 0 0.04213 0.66661 0.07613 1.7199 0.08775l1.7199 0.01894-0.83497 1.4438c-0.45928 0.79408-0.83499 1.4705-0.83499 1.5031 0 0.03259 0.77693 0.06785 1.7265 0.07826l1.7265 0.01894-0.84042 1.4513c-0.46221 0.79819-0.84095 1.4746-0.84161 1.5031-5.8e-4 0.02854 0.77813 0.06039 1.7307 0.07079l1.7319 0.01894-0.81885 1.4159c-0.45034 0.77873-0.8349 1.4557-0.8545 1.5044-0.028 0.06935 0.34089 0.08849 1.7063 0.08849 0.95811 0 1.742 0.01327 1.742 0.02952 0 0.01626-0.38228 0.68788-0.84951 1.4925-0.4672 0.80462-0.84952 1.4916-0.84952 1.5267 0 0.03546 0.76441 0.07209 1.7259 0.08264l1.7259 0.01894-0.86995 1.5032-0.86996 1.5031 1.7606 0.01886 1.7606 0.01894-0.81937 1.4159c-0.45068 0.77872-0.83508 1.4557-0.8543 1.5044-0.0273 0.06934 0.34202 0.0885 1.7071 0.0885 0.95811 0 1.742 0.01139 1.742 0.02519s-0.38228 0.68482-0.84952 1.491c-0.46721 0.80622-0.84952 1.4952-0.84952 1.531 0 0.03746 0.73455 0.07326 1.7242 0.08411l1.7243 0.01894-1.7208 2.9733 3.5032 0.07079-0.81854 1.4159c-0.45021 0.77873-0.83393 1.4551-0.85271 1.5031-0.0267 0.06739 0.36249 0.09155 1.7085 0.1062l1.7426 0.01894-0.85688 1.4867c-0.47127 0.81761-0.87919 1.5264-0.90644 1.5749-0.03 0.05339-0.39535-0.51337-0.92419-1.4336-0.48107-0.83704-0.88338-1.5219-0.89408-1.5219-0.0114 0-0.40881 0.67696-0.88476 1.5044-0.47594 0.8274-0.87042 1.5113-0.87666 1.5198-6e-3 0.0085-0.33629-0.54901-0.73344-1.2389-0.39714-0.68988-0.79683-1.3776-0.88822-1.5284l-0.16617-0.27402-0.87023 1.5129c-0.4786 0.8321-0.87534 1.5199-0.88161 1.5284-6e-3 0.0085-0.33629-0.54901-0.73341-1.2389-0.39715-0.68988-0.79684-1.3776-0.88824-1.5284l-0.16618-0.27402-0.87023 1.5129c-0.47867 0.83211-0.87563 1.5201-0.88222 1.529-0.0066 0.0088-0.38415-0.62831-0.83901-1.4159-0.45488-0.78756-0.85484-1.4747-0.88884-1.5269-0.04333-0.06681-0.31936 0.35284-0.9308 1.4159-0.47794 0.83096-0.87424 1.5179-0.88061 1.5265-0.0066 0.0086-0.40622-0.66858-0.8886-1.5049-0.48234-0.8363-0.89885-1.4964-0.92554-1.4669-0.02666 0.02946-0.42901 0.71274-0.89409 1.5183l-0.84556 1.465-0.87573-1.5183c-0.48167-0.83508-0.89801-1.4942-0.92522-1.4647-0.02733 0.02946-0.41135 0.68061-0.85356 1.447-0.44228 0.76634-0.83475 1.4035-0.87222 1.4159-0.03733 0.01239-0.44988-0.63866-0.91648-1.4468-0.46661-0.8081-0.87052-1.4452-0.89762-1.4159-0.02733 0.02932-0.41695 0.69054-0.8664 1.4693-0.44941 0.77873-0.84311 1.4127-0.87489 1.4089-0.03199-4e-3 -0.43894-0.66436-0.90491-1.4678-0.46594-0.80342-0.86866-1.4374-0.89494-1.4088-0.02666 0.02854-0.41548 0.68905-0.86492 1.4678-0.44941 0.77873-0.84311 1.4132-0.87488 1.4099-0.03199-0.0035-0.43874-0.66402-0.90441-1.4683-0.46567-0.80428-0.86838-1.4387-0.89495-1.4099-0.02666 0.02886-0.41601 0.68957-0.86542 1.4683-0.44941 0.77873-0.84311 1.4132-0.87489 1.4099-0.03199-0.0035-0.43874-0.66402-0.9044-1.4683-0.46568-0.80428-0.86853-1.4387-0.89525-1.4099-0.02666 0.02886-0.42921 0.71168-0.8944 1.5174l-0.8458 1.465-0.8753-1.5176c-0.4814-0.83467-0.89806-1.4939-0.92586-1.465-0.028 0.02892-0.43008 0.71233-0.8939 1.5187l-0.84332 1.4661-0.87594-1.5187c-0.48174-0.83528-0.89869-1.495-0.92652-1.4661-0.028 0.02892-0.43008 0.71238-0.89395 1.5188l-0.84339 1.4663-0.87682-1.5179c-0.48227-0.83484-0.89916-1.4947-0.92644-1.4663-0.02733 0.0284-0.42914 0.71142-0.89301 1.5179l-0.84339 1.4663zm6.0804-1.7188c-0.01266-0.03106-0.38675-0.68618-0.83057-1.4559-0.64438-1.1175-0.8241-1.3807-0.89192-1.3064-0.10339 0.11336-1.593 2.7048-1.593 2.7713 0 0.026 0.75129 0.04732 1.6695 0.04732 0.91825 0 1.6589-0.02539 1.6459-0.0564zm7.0793-0.0035c-0.01267-0.03285-0.38702-0.68774-0.83114-1.4553-0.64038-1.1067-0.8249-1.3764-0.89136-1.303-0.10152 0.11214-1.593 2.7078-1.593 2.7724 0 0.02513 0.75129 0.04566 1.6695 0.04566 0.91824 0 1.6589-0.02693 1.6459-0.05979zm7.0793 0.0012c-0.01266-0.03227-0.38622-0.68791-0.82945-1.457-0.64738-1.1234-0.82264-1.3798-0.89135-1.3041-0.10266 0.11306-1.5947 2.7087-1.5947 2.7741 0 0.02513 0.75129 0.04566 1.6695 0.04566 0.91825 0 1.6589-0.0264 1.6459-0.05866zm7.0793 0c-0.01267-0.03227-0.38722-0.68965-0.83165-1.4609-0.73892-1.2822-0.81641-1.3908-0.90586-1.2687-0.13718 0.18721-1.578 2.6945-1.578 2.746 0 0.02327 0.75129 0.04219 1.6695 0.04219s1.6589-0.0264 1.6459-0.05866zm7.0911 0.02933c0-0.01613-0.37175-0.67319-0.82621-1.4602-0.75378-1.3055-0.83478-1.4193-0.92358-1.2981-0.13678 0.18676-1.5775 2.694-1.5775 2.7454 0 0.02319 0.74864 0.04219 1.6637 0.04219 0.915 0 1.6636-0.01313 1.6636-0.02926zm7.0793 0c0-0.11729-1.6594-2.8699-1.7028-2.8247-0.0685 0.07124-1.549 2.6179-1.6016 2.7549-0.032 0.08319 0.23003 0.09907 1.6332 0.09907 0.91917 0 1.6712-0.01313 1.6712-0.02926zm-37.166-3.054c0-0.07979-1.6414-2.8632-1.6871-2.8609-0.026 0.0012-0.42008 0.6544-0.87556 1.4513l-0.82817 1.4488h1.6954c0.93247 0 1.6954-0.0176 1.6954-0.0392zm10.599-0.04932c-0.09399-0.23459-1.5978-2.7749-1.652-2.7907-0.03399-0.0099-0.43474 0.63381-0.89027 1.4306l-0.82818 1.4486h1.703c1.3341 0 1.6953-0.0192 1.6675-0.0885zm3.5397 0c-0.09426-0.2353-1.5979-2.7749-1.652-2.7903-0.03399-0.0098-0.43448 0.63402-0.88957 1.4306l-0.82748 1.4483h1.7023c1.3335 0 1.6946-0.0192 1.6668-0.0885zm10.639 0.04886c0-0.03046-1.5981-2.8342-1.6626-2.9168-0.0086-0.01014-0.39968 0.65088-0.87057 1.469l-0.85616 1.4874h1.6946c0.93205 0 1.6947-0.0178 1.6947-0.0396zm3.5279-0.02866c-0.01267-0.03752-0.38942-0.70303-0.83649-1.4789-0.67648-1.1739-0.82618-1.3912-0.89196-1.2945-0.04333 0.06385-0.43288 0.72937-0.86541 1.4789l-0.78636 1.3628h1.7019c1.0612 0 1.693-0.02573 1.6783-0.06824zm10.631 0.029c0-0.0216-0.37362-0.68733-0.83022-1.4795-0.6924-1.2011-0.84336-1.4208-0.9095-1.3235-0.0436 0.06418-0.43253 0.72992-0.86425 1.4795l-0.78498 1.3628h1.6945c0.93195 0 1.6945-0.01766 1.6945-0.03926zm-26.547-3.0521c0-0.0456-1.4225-2.5449-1.5971-2.8062-0.07486-0.11194-0.18824 0.05013-0.90784 1.2969-0.45228 0.78369-0.82231 1.4545-0.82231 1.4907 0 0.03872 0.68547 0.0658 1.6636 0.0658 0.915 0 1.6636-0.02126 1.6636-0.04732zm14.159 0c0-0.0466-1.4293-2.5598-1.5955-2.8055-0.07532-0.11118-0.18904 0.05139-0.9089 1.2981-0.45261 0.78386-0.82291 1.4543-0.82291 1.4899 0 0.0372 0.70688 0.06466 1.6637 0.06466 0.91499 0 1.6636-0.0212 1.6636-0.04712zm-23.027-3.1207c-0.01533-0.0292-0.38975-0.68537-0.83191-1.4582-0.72789-1.2722-0.81296-1.3927-0.89973-1.2743-0.13578 0.18532-1.576 2.6923-1.576 2.7433 0 0.02327 0.75052 0.04219 1.6678 0.04219 0.91731 0 1.6552-0.02393 1.6398-0.05307zm3.5397 0c-0.01533-0.0292-0.38975-0.68537-0.83191-1.4582-0.72788-1.2722-0.81296-1.3927-0.89973-1.2743-0.13578 0.18532-1.576 2.6923-1.576 2.7433 0 0.02327 0.75051 0.04219 1.6678 0.04219 0.9173 0 1.6552-0.02393 1.6398-0.05307zm3.5475-0.0035c-0.01267-0.03098-0.38808-0.68715-0.83363-1.4582-0.73368-1.2697-0.81906-1.3895-0.90584-1.271-0.13578 0.18532-1.576 2.6923-1.576 2.7433 0 0.02327 0.75129 0.04219 1.6695 0.04219 0.91824 0 1.6589-0.02533 1.6459-0.05632zm17.698-0.0035c-0.12645-0.32015-1.6514-2.8358-1.6932-2.7931-0.07293 0.07466-1.6223 2.7608-1.6223 2.8127 0 0.02207 0.75129 0.0402 1.6695 0.0402 0.91824 0 1.6589-0.02693 1.6459-0.05979zm3.5397 0.0012c-0.13707-0.34074-1.6488-2.8395-1.6915-2.7959-0.07406 0.07576-1.624 2.7617-1.624 2.8144 0 0.02213 0.75131 0.04019 1.6695 0.04019 0.91826 0 1.6589-0.0264 1.6459-0.05866zm3.5397 0c-0.13598-0.33805-1.6485-2.8395-1.6906-2.7959-0.0739 0.07685-1.6249 2.7636-1.6249 2.8149 0 0.02179 0.7513 0.03966 1.6695 0.03966 0.91826 0 1.6589-0.0264 1.646-0.05866zm-26.536-3.0215c0-0.04766-1.5568-2.7429-1.6294-2.821-0.06872-0.07394-0.08759-0.04513-1.0169 1.565l-0.74578 1.292h1.6961c0.93283 0 1.6961-0.01619 1.6961-0.03599zm21.218-0.05253c-0.10999-0.27465-1.6032-2.7774-1.6532-2.771-0.06333 8e-3 -0.07379 0.02453-1.0708 1.7445l-0.64632 1.115h1.7029c1.3341 0 1.6952-0.0192 1.6675-0.0885zm-23.014-3.0637c-0.03466-0.09035-1.5842-2.7878-1.6373-2.8504-0.01-0.01139-0.34382 0.5462-0.74277 1.2389-0.39895 0.69268-0.78784 1.363-0.86427 1.4895l-0.13885 0.23008h1.7124c1.5063 0 1.7074-0.01299 1.6709-0.10807zm24.804 0.06079c0-0.04539-1.4221-2.5442-1.5964-2.8052-0.07392-0.1106-0.19078 0.0568-0.90784 1.3008-0.45268 0.78528-0.82301 1.4556-0.82301 1.4897 0 0.03406 0.74864 0.06193 1.6636 0.06193 0.91501 0 1.6636-0.02126 1.6636-0.04733zm-21.238-6.1422c0-0.01673-0.37035-0.67217-0.82302-1.4565-0.5276-0.91419-0.84748-1.4016-0.89118-1.3579-0.03733 0.03752-0.42881 0.69293-0.86964 1.4565l-0.80146 1.3884h1.6927c0.93095 0 1.6926-0.01367 1.6926-0.0304zm3.5397 0c0-0.01673-0.37035-0.67217-0.82301-1.4565-0.5276-0.91419-0.84749-1.4016-0.89119-1.3579-0.03734 0.03752-0.42881 0.69293-0.86964 1.4565l-0.80146 1.3884h1.6927c0.93096 0 1.6926-0.01367 1.6926-0.0304zm3.5397 0c0-0.01673-0.37035-0.67217-0.82302-1.4565-0.5276-0.91419-0.84747-1.4016-0.89117-1.3579-0.03733 0.03752-0.42881 0.69293-0.86964 1.4565l-0.80146 1.3884h1.6927c0.93095 0 1.6926-0.01367 1.6926-0.0304zm3.5397-0.0051c0-0.01974-0.37075-0.67473-0.8239-1.4557-0.5208-0.89749-0.84863-1.3951-0.89118-1.3526-0.03666 0.03706-0.42794 0.69206-0.86877 1.4557l-0.80145 1.3884h1.6926c0.93096 0 1.6927-0.01613 1.6927-0.03573zm3.5187-0.05273c-0.11125-0.27309-1.5952-2.7569-1.6488-2.7598-0.03533-0.0016-0.43581 0.63815-0.89021 1.4224l-0.82616 1.4259h1.7006c1.3325 0 1.6928-0.01912 1.6645-0.0885zm3.5397 0c-0.11125-0.27309-1.5952-2.7569-1.6488-2.7598-0.03533-0.0016-0.43581 0.63815-0.89022 1.4224l-0.82616 1.4259h1.7006c1.3325 0 1.6928-0.01912 1.6645-0.0885zm-12.368-2.9988c0-0.03686-1.2068-2.1552-1.5592-2.7369l-0.11879-0.19608-0.82466 1.4246c-0.45354 0.78353-0.82466 1.4532-0.82466 1.4881 0 0.03566 0.72979 0.06346 1.6636 0.06346 0.915 0 1.6636-0.0194 1.6636-0.04319zm7.0793 0c0-0.03693-1.2071-2.1558-1.5601-2.7384l-0.11979-0.19762-0.80604 1.3994c-0.44328 0.76969-0.81632 1.44-0.8289 1.4896-0.018 0.07111 0.32962 0.09016 1.6459 0.09016 0.91785 0 1.6688-0.0194 1.6688-0.04319zm-8.8794-3.1193c-0.12732-0.33187-1.6328-2.8481-1.6765-2.8022-0.10065 0.10567-1.6205 2.7765-1.6205 2.8477 0 0.04792 0.57259 0.07285 1.6712 0.07285 1.533 0 1.6674-0.0098 1.6258-0.1184zm10.617-0.0051c-0.05333-0.13975-1.5209-2.7112-1.5988-2.8017-0.04999-0.05812-1.6962 2.7087-1.6962 2.851 0 0.05019 0.54733 0.07461 1.6712 0.07461 1.5625 0 1.6681-8e-3 1.6238-0.12389zm-7.0471-6.0755c0-0.03213-1.6038-2.846-1.6624-2.9167-0.01934-0.02359-1.5674 2.6621-1.6327 2.8331-0.04399 0.11583 0.06133 0.12388 1.6239 0.12388 0.91918 0 1.6712-0.01814 1.6712-0.04033zm3.5397 0c0-0.03213-1.6038-2.846-1.6624-2.9167-0.01932-0.02359-1.5674 2.6621-1.6327 2.8331-0.04399 0.11583 0.06133 0.12388 1.6239 0.12388 0.91918 0 1.6712-0.01814 1.6712-0.04033z" fill="#7893ea"/>
</svg>
