<?xml version="1.0" encoding="UTF-8"?>
<svg width="43.392mm" height="43.392mm" version="1.1" viewBox="0 0 43.392 43.392" xmlns="http://www.w3.org/2000/svg" xmlns:cc="http://creativecommons.org/ns#" xmlns:dc="http://purl.org/dc/elements/1.1/" xmlns:rdf="http://www.w3.org/1999/02/22-rdf-syntax-ns#">
 <metadata>
  <rdf:RDF>
   <cc:Work rdf:about="">
    <dc:format>image/svg+xml</dc:format>
    <dc:type rdf:resource="http://purl.org/dc/dcmitype/StillImage"/>
    <dc:title/>
   </cc:Work>
  </rdf:RDF>
 </metadata>
 <g fill="#e8eaec">
  <rect width="1.0583" height="1.0585"/>
  <rect x="1.0583" width="1.0583" height="1.0585"/>
  <rect x="2.1167" width="1.0583" height="1.0585"/>
  <rect x="3.175" width="1.0583" height="1.0585"/>
  <rect x="4.2333" width="1.0583" height="1.0585"/>
  <rect x="5.2917" width="1.0583" height="1.0585"/>
  <rect x="6.35" width="1.0583" height="1.0585"/>
  <rect x="7.4083" width="1.0583" height="1.0585"/>
  <rect x="8.4667" width="1.0583" height="1.0585"/>
  <rect x="9.525" width="1.0583" height="1.0585"/>
  <rect x="10.583" width="1.0583" height="1.0585"/>
  <rect x="11.642" width="1.0583" height="1.0585"/>
  <rect x="12.7" width="1.0583" height="1.0585"/>
  <rect x="13.758" width="1.0583" height="1.0585"/>
  <rect x="14.817" width="1.0583" height="1.0585"/>
  <rect x="15.875" width="1.0583" height="1.0585"/>
  <rect x="16.933" width="1.0583" height="1.0585"/>
  <rect x="17.992" width="1.0583" height="1.0585"/>
  <rect x="19.05" width="1.0583" height="1.0585"/>
  <rect x="20.108" width="1.0583" height="1.0585"/>
  <rect x="21.167" width="1.0583" height="1.0585"/>
  <rect x="21.167" width="1.0583" height="1.0585"/>
  <rect y="10.583" width="1.0583" height="1.0585"/>
  <rect x="1.0583" y="10.583" width="1.0583" height="1.0585"/>
  <rect x="2.1167" y="10.583" width="1.0583" height="1.0585"/>
  <rect x="3.175" y="10.583" width="1.0583" height="1.0585"/>
  <rect x="4.2333" y="10.583" width="1.0583" height="1.0585"/>
  <rect x="5.2917" y="10.583" width="1.0583" height="1.0585"/>
  <rect x="6.35" y="10.583" width="1.0583" height="1.0585"/>
  <rect x="7.4083" y="10.583" width="1.0583" height="1.0585"/>
  <rect x="8.4667" y="10.583" width="1.0583" height="1.0585"/>
  <rect x="9.525" y="10.583" width="1.0583" height="1.0585"/>
  <rect x="10.583" y="10.583" width="1.0583" height="1.0585"/>
  <rect x="11.642" y="10.583" width="1.0583" height="1.0585"/>
  <rect x="12.7" y="10.583" width="1.0583" height="1.0585"/>
  <rect x="13.758" y="10.583" width="1.0583" height="1.0585"/>
  <rect x="14.817" y="10.583" width="1.0583" height="1.0585"/>
  <rect x="15.875" y="10.583" width="1.0583" height="1.0585"/>
  <rect x="16.933" y="10.583" width="1.0583" height="1.0585"/>
  <rect x="17.992" y="10.583" width="1.0583" height="1.0585"/>
  <rect x="19.05" y="10.583" width="1.0583" height="1.0585"/>
  <rect x="20.108" y="10.583" width="1.0583" height="1.0585"/>
  <rect x="21.167" y="10.583" width="1.0583" height="1.0585"/>
  <rect x="21.167" y="10.583" width="1.0583" height="1.0585"/>
  <rect x="1.0583" y="9.525" width="1.0583" height="1.0585"/>
  <rect x="2.1167" y="9.525" width="1.0583" height="1.0585"/>
  <rect x="3.175" y="9.525" width="1.0583" height="1.0585"/>
  <rect x="4.2333" y="9.525" width="1.0583" height="1.0585"/>
  <rect x="7.4083" y="9.525" width="1.0583" height="1.0585"/>
  <rect x="9.525" y="9.525" width="1.0583" height="1.0585"/>
  <rect x="11.642" y="9.525" width="1.0583" height="1.0585"/>
  <rect x="13.758" y="9.525" width="1.0583" height="1.0585"/>
  <rect x="15.875" y="9.525" width="1.0583" height="1.0585"/>
  <rect x="16.933" y="9.525" width="1.0583" height="1.0585"/>
  <rect x="19.05" y="9.525" width="1.0583" height="1.0585"/>
  <rect x="17.992" y="9.525" width="1.0583" height="1.0585"/>
  <rect x="21.167" y="9.525" width="1.0583" height="1.0585"/>
  <rect x="21.167" y="8.4667" width="1.0583" height="1.0585"/>
  <rect x="19.05" y="8.4667" width="1.0583" height="1.0585"/>
  <rect x="17.992" y="8.4667" width="1.0583" height="1.0585"/>
  <rect x="16.933" y="8.4667" width="1.0583" height="1.0585"/>
  <rect x="12.7" y="9.525" width="1.0583" height="1.0585"/>
  <rect x="12.7" y="8.4667" width="1.0583" height="1.0585"/>
  <rect x="8.4667" y="9.525" width="1.0583" height="1.0585"/>
  <rect x="8.4667" y="8.4667" width="1.0583" height="1.0585"/>
  <rect x="5.2917" y="9.525" width="1.0583" height="1.0585"/>
  <rect x="4.2333" y="8.4667" width="1.0583" height="1.0585"/>
  <rect x="3.175" y="8.4667" width="1.0583" height="1.0585"/>
  <rect x="2.1167" y="8.4667" width="1.0583" height="1.0585"/>
  <rect x="2.1167" y="7.4083" width="1.0583" height="1.0585"/>
  <rect x="1.0583" y="8.4667" width="1.0583" height="1.0585"/>
  <rect x="8.4667" y="7.4083" width="1.0583" height="1.0585"/>
  <rect x="11.642" y="8.4667" width="1.0583" height="1.0585"/>
  <rect x="9.525" y="8.4667" width="1.0583" height="1.0585"/>
  <rect x="16.933" y="7.4083" width="1.0583" height="1.0585"/>
  <rect x="17.992" y="7.4083" width="1.0583" height="1.0585"/>
  <rect x="21.167" y="7.4083" width="1.0583" height="1.0585"/>
  <rect x="2.1167" y="6.35" width="1.0583" height="1.0585"/>
  <rect x="3.175" y="7.4083" width="1.0583" height="1.0585"/>
  <rect x="2.1167" y="5.2917" width="1.0583" height="1.0585"/>
  <rect x="8.4667" y="6.35" width="1.0583" height="1.0585"/>
  <rect x="12.7" y="7.4083" width="1.0583" height="1.0585"/>
  <rect x="16.933" y="6.35" width="1.0583" height="1.0585"/>
  <rect x="21.167" y="6.35" width="1.0583" height="1.0585"/>
  <rect y="21.167" width="1.0583" height="1.0585"/>
  <rect x="2.1167" y="21.167" width="1.0583" height="1.0585"/>
  <rect x="4.2333" y="21.167" width="1.0583" height="1.0585"/>
  <rect x="6.35" y="21.167" width="1.0583" height="1.0585"/>
  <rect x="8.4667" y="21.167" width="1.0583" height="1.0585"/>
  <rect x="10.583" y="21.167" width="1.0583" height="1.0585"/>
  <rect x="12.7" y="21.167" width="1.0583" height="1.0585"/>
  <rect x="14.817" y="21.167" width="1.0583" height="1.0585"/>
  <rect x="16.933" y="21.167" width="1.0583" height="1.0585"/>
  <rect x="19.05" y="21.167" width="1.0583" height="1.0585"/>
  <rect x="21.167" y="21.167" width="1.0583" height="1.0585"/>
  <rect x="23.283" y="21.167" width="1.0583" height="1.0585"/>
  <rect x="25.4" y="21.167" width="1.0583" height="1.0585"/>
  <rect x="27.517" y="21.167" width="1.0583" height="1.0585"/>
  <rect x="29.633" y="21.167" width="1.0583" height="1.0585"/>
  <rect x="31.75" y="21.167" width="1.0583" height="1.0585"/>
  <rect x="33.867" y="21.167" width="1.0583" height="1.0585"/>
  <rect x="35.983" y="21.167" width="1.0583" height="1.0585"/>
  <rect x="38.1" y="21.167" width="1.0583" height="1.0585"/>
  <rect x="40.217" y="21.167" width="1.0583" height="1.0585"/>
  <rect x="42.333" y="21.167" width="1.0583" height="1.0585"/>
  <rect x="42.333" y="21.167" width="1.0583" height="1.0585"/>
  <rect x="2.1167" y="20.108" width="1.0583" height="1.0585"/>
  <rect x="4.2333" y="20.108" width="1.0583" height="1.0585"/>
  <rect x="6.35" y="20.108" width="1.0583" height="1.0585"/>
  <rect x="8.4667" y="20.108" width="1.0583" height="1.0585"/>
  <rect x="14.817" y="20.108" width="1.0583" height="1.0585"/>
  <rect x="19.05" y="20.108" width="1.0583" height="1.0585"/>
  <rect x="23.283" y="20.108" width="1.0583" height="1.0585"/>
  <rect x="27.517" y="20.108" width="1.0583" height="1.0585"/>
  <rect x="31.75" y="20.108" width="1.0583" height="1.0585"/>
  <rect x="33.867" y="20.108" width="1.0583" height="1.0585"/>
  <rect x="38.1" y="20.108" width="1.0583" height="1.0585"/>
  <rect x="35.983" y="20.108" width="1.0583" height="1.0585"/>
  <rect x="42.333" y="20.108" width="1.0583" height="1.0585"/>
  <rect x="42.333" y="19.05" width="1.0583" height="1.0585"/>
  <rect x="38.1" y="19.05" width="1.0583" height="1.0585"/>
  <rect x="35.983" y="19.05" width="1.0583" height="1.0585"/>
  <rect x="33.867" y="19.05" width="1.0583" height="1.0585"/>
  <rect x="25.4" y="20.108" width="1.0583" height="1.0585"/>
  <rect x="25.4" y="19.05" width="1.0583" height="1.0585"/>
  <rect x="16.933" y="20.108" width="1.0583" height="1.0585"/>
  <rect x="16.933" y="19.05" width="1.0583" height="1.0585"/>
  <rect x="10.583" y="20.108" width="1.0583" height="1.0585"/>
  <rect x="8.4667" y="19.05" width="1.0583" height="1.0585"/>
  <rect x="6.35" y="19.05" width="1.0583" height="1.0585"/>
  <rect x="4.2333" y="19.05" width="1.0583" height="1.0585"/>
  <rect x="4.2333" y="17.992" width="1.0583" height="1.0585"/>
  <rect x="2.1167" y="19.05" width="1.0583" height="1.0585"/>
  <rect x="16.933" y="17.992" width="1.0583" height="1.0585"/>
  <rect x="23.283" y="19.05" width="1.0583" height="1.0585"/>
  <rect x="19.05" y="19.05" width="1.0583" height="1.0585"/>
  <rect x="33.867" y="17.992" width="1.0583" height="1.0585"/>
  <rect x="35.983" y="17.992" width="1.0583" height="1.0585"/>
  <rect x="42.333" y="17.992" width="1.0583" height="1.0585"/>
  <rect x="4.2333" y="16.933" width="1.0583" height="1.0585"/>
  <rect x="6.35" y="17.992" width="1.0583" height="1.0585"/>
  <rect x="4.2333" y="15.875" width="1.0583" height="1.0585"/>
  <rect x="16.933" y="16.933" width="1.0583" height="1.0585"/>
  <rect x="25.4" y="17.992" width="1.0583" height="1.0585"/>
  <rect x="33.867" y="16.933" width="1.0583" height="1.0585"/>
  <rect x="42.333" y="16.933" width="1.0583" height="1.0585"/>
  <rect y="31.75" width="1.0583" height="1.0585"/>
  <rect x="2.1167" y="31.75" width="1.0583" height="1.0585"/>
  <rect x="4.2333" y="31.75" width="1.0583" height="1.0585"/>
  <rect x="6.35" y="31.75" width="1.0583" height="1.0585"/>
  <rect x="8.4667" y="31.75" width="1.0583" height="1.0585"/>
  <rect x="10.583" y="31.75" width="1.0583" height="1.0585"/>
  <rect x="12.7" y="31.75" width="1.0583" height="1.0585"/>
  <rect x="14.817" y="31.75" width="1.0583" height="1.0585"/>
  <rect x="16.933" y="31.75" width="1.0583" height="1.0585"/>
  <rect x="19.05" y="31.75" width="1.0583" height="1.0585"/>
  <rect x="21.167" y="31.75" width="1.0583" height="1.0585"/>
  <rect x="23.283" y="31.75" width="1.0583" height="1.0585"/>
  <rect x="25.4" y="31.75" width="1.0583" height="1.0585"/>
  <rect x="27.517" y="31.75" width="1.0583" height="1.0585"/>
  <rect x="29.633" y="31.75" width="1.0583" height="1.0585"/>
  <rect x="31.75" y="31.75" width="1.0583" height="1.0585"/>
  <rect x="33.867" y="31.75" width="1.0583" height="1.0585"/>
  <rect x="35.983" y="31.75" width="1.0583" height="1.0585"/>
  <rect x="38.1" y="31.75" width="1.0583" height="1.0585"/>
  <rect x="40.217" y="31.75" width="1.0583" height="1.0585"/>
  <rect x="42.333" y="31.75" width="1.0583" height="1.0585"/>
  <rect x="42.333" y="31.75" width="1.0583" height="1.0585"/>
  <rect x="2.1167" y="30.692" width="1.0583" height="1.0585"/>
  <rect x="4.2333" y="30.692" width="1.0583" height="1.0585"/>
  <rect x="6.35" y="30.692" width="1.0583" height="1.0585"/>
  <rect x="8.4667" y="30.692" width="1.0583" height="1.0585"/>
  <rect x="14.817" y="30.692" width="1.0583" height="1.0585"/>
  <rect x="19.05" y="30.692" width="1.0583" height="1.0585"/>
  <rect x="23.283" y="30.692" width="1.0583" height="1.0585"/>
  <rect x="27.517" y="30.692" width="1.0583" height="1.0585"/>
  <rect x="31.75" y="30.692" width="1.0583" height="1.0585"/>
  <rect x="33.867" y="30.692" width="1.0583" height="1.0585"/>
  <rect x="38.1" y="30.692" width="1.0583" height="1.0585"/>
  <rect x="35.983" y="30.692" width="1.0583" height="1.0585"/>
  <rect x="42.333" y="30.692" width="1.0583" height="1.0585"/>
  <rect x="42.333" y="29.633" width="1.0583" height="1.0585"/>
  <rect x="38.1" y="29.633" width="1.0583" height="1.0585"/>
  <rect x="35.983" y="29.633" width="1.0583" height="1.0585"/>
  <rect x="33.867" y="29.633" width="1.0583" height="1.0585"/>
  <rect x="25.4" y="30.692" width="1.0583" height="1.0585"/>
  <rect x="25.4" y="29.633" width="1.0583" height="1.0585"/>
  <rect x="16.933" y="30.692" width="1.0583" height="1.0585"/>
  <rect x="16.933" y="29.633" width="1.0583" height="1.0585"/>
  <rect x="10.583" y="30.692" width="1.0583" height="1.0585"/>
  <rect x="8.4667" y="29.633" width="1.0583" height="1.0585"/>
  <rect x="6.35" y="29.633" width="1.0583" height="1.0585"/>
  <rect x="4.2333" y="29.633" width="1.0583" height="1.0585"/>
  <rect x="4.2333" y="28.575" width="1.0583" height="1.0585"/>
  <rect x="2.1167" y="29.633" width="1.0583" height="1.0585"/>
  <rect x="16.933" y="28.575" width="1.0583" height="1.0585"/>
  <rect x="23.283" y="29.633" width="1.0583" height="1.0585"/>
  <rect x="19.05" y="29.633" width="1.0583" height="1.0585"/>
  <rect x="33.867" y="28.575" width="1.0583" height="1.0585"/>
  <rect x="35.983" y="28.575" width="1.0583" height="1.0585"/>
  <rect x="42.333" y="28.575" width="1.0583" height="1.0585"/>
  <rect x="4.2333" y="27.517" width="1.0583" height="1.0585"/>
  <rect x="6.35" y="28.575" width="1.0583" height="1.0585"/>
  <rect x="4.2333" y="26.458" width="1.0583" height="1.0585"/>
  <rect x="16.933" y="27.517" width="1.0583" height="1.0585"/>
  <rect x="25.4" y="28.575" width="1.0583" height="1.0585"/>
  <rect x="33.867" y="27.517" width="1.0583" height="1.0585"/>
  <rect x="42.333" y="27.517" width="1.0583" height="1.0585"/>
  <rect x="1.0583" y="31.75" width="1.0583" height="1.0585"/>
  <rect x="1.0583" y="30.692" width="1.0583" height="1.0585"/>
  <rect x="3.175" y="30.692" width="1.0583" height="1.0585"/>
  <rect x="3.175" y="31.75" width="1.0583" height="1.0585"/>
  <rect x="3.175" y="29.633" width="1.0583" height="1.0585"/>
  <rect x="3.175" y="28.575" width="1.0583" height="1.0585"/>
  <rect x="5.2917" y="31.75" width="1.0583" height="1.0585"/>
  <rect x="5.2917" y="30.692" width="1.0583" height="1.0585"/>
  <rect x="5.2917" y="29.633" width="1.0583" height="1.0585"/>
  <rect x="5.2917" y="28.575" width="1.0583" height="1.0585"/>
  <rect x="5.2917" y="27.517" width="1.0583" height="1.0585"/>
  <rect x="7.4083" y="31.75" width="1.0583" height="1.0585"/>
  <rect x="7.4083" y="30.692" width="1.0583" height="1.0585"/>
  <rect x="7.4083" y="29.633" width="1.0583" height="1.0585"/>
  <rect x="9.525" y="31.75" width="1.0583" height="1.0585"/>
  <rect x="11.642" y="31.75" width="1.0583" height="1.0585"/>
  <rect x="13.758" y="31.75" width="1.0583" height="1.0585"/>
  <rect x="15.875" y="31.75" width="1.0583" height="1.0585"/>
  <rect x="15.875" y="30.692" width="1.0583" height="1.0585"/>
  <rect x="15.875" y="29.633" width="1.0583" height="1.0585"/>
  <rect x="15.875" y="28.575" width="1.0583" height="1.0585"/>
  <rect x="17.992" y="31.75" width="1.0583" height="1.0585"/>
  <rect x="17.992" y="30.692" width="1.0583" height="1.0585"/>
  <rect x="20.108" y="31.75" width="1.0583" height="1.0585"/>
  <rect x="22.225" y="31.75" width="1.0583" height="1.0585"/>
  <rect x="22.225" y="30.692" width="1.0583" height="1.0585"/>
  <rect x="24.342" y="31.75" width="1.0583" height="1.0585"/>
  <rect x="24.342" y="30.692" width="1.0583" height="1.0585"/>
  <rect x="24.342" y="29.633" width="1.0583" height="1.0585"/>
  <rect x="26.458" y="31.75" width="1.0583" height="1.0585"/>
  <rect x="28.575" y="31.75" width="1.0583" height="1.0585"/>
  <rect x="30.692" y="31.75" width="1.0583" height="1.0585"/>
  <rect x="32.808" y="31.75" width="1.0583" height="1.0585"/>
  <rect x="32.808" y="30.692" width="1.0583" height="1.0585"/>
  <rect x="32.808" y="29.633" width="1.0583" height="1.0585"/>
  <rect x="34.925" y="31.75" width="1.0583" height="1.0585"/>
  <rect x="34.925" y="30.692" width="1.0583" height="1.0585"/>
  <rect x="34.925" y="29.633" width="1.0583" height="1.0585"/>
  <rect x="37.042" y="31.75" width="1.0583" height="1.0585"/>
  <rect x="37.042" y="30.692" width="1.0583" height="1.0585"/>
  <rect x="39.158" y="31.75" width="1.0583" height="1.0585"/>
  <rect x="41.275" y="31.75" width="1.0583" height="1.0585"/>
  <rect x="41.275" y="30.692" width="1.0583" height="1.0585"/>
  <rect x="41.275" y="29.633" width="1.0583" height="1.0585"/>
  <rect x="41.275" y="28.575" width="1.0583" height="1.0585"/>
  <rect x="41.275" y="28.575" width="1.0583" height="1.0585"/>
  <rect y="42.333" width="1.0583" height="1.0585"/>
  <rect x="2.1167" y="42.333" width="1.0583" height="1.0585"/>
  <rect x="4.2333" y="42.333" width="1.0583" height="1.0585"/>
  <rect x="6.35" y="42.333" width="1.0583" height="1.0585"/>
  <rect x="8.4667" y="42.333" width="1.0583" height="1.0585"/>
  <rect x="10.583" y="42.333" width="1.0583" height="1.0585"/>
  <rect x="12.7" y="42.333" width="1.0583" height="1.0585"/>
  <rect x="14.817" y="42.333" width="1.0583" height="1.0585"/>
  <rect x="16.933" y="42.333" width="1.0583" height="1.0585"/>
  <rect x="19.05" y="42.333" width="1.0583" height="1.0585"/>
  <rect x="21.167" y="42.333" width="1.0583" height="1.0585"/>
  <rect x="23.283" y="42.333" width="1.0583" height="1.0585"/>
  <rect x="25.4" y="42.333" width="1.0583" height="1.0585"/>
  <rect x="27.517" y="42.333" width="1.0583" height="1.0585"/>
  <rect x="29.633" y="42.333" width="1.0583" height="1.0585"/>
  <rect x="31.75" y="42.333" width="1.0583" height="1.0585"/>
  <rect x="33.867" y="42.333" width="1.0583" height="1.0585"/>
  <rect x="35.983" y="42.333" width="1.0583" height="1.0585"/>
  <rect x="38.1" y="42.333" width="1.0583" height="1.0585"/>
  <rect x="40.217" y="42.333" width="1.0583" height="1.0585"/>
  <rect x="42.333" y="42.333" width="1.0583" height="1.0585"/>
  <rect x="42.333" y="42.333" width="1.0583" height="1.0585"/>
  <rect x="2.1167" y="41.275" width="1.0583" height="1.0585"/>
  <rect x="4.2333" y="41.275" width="1.0583" height="1.0585"/>
  <rect x="6.35" y="41.275" width="1.0583" height="1.0585"/>
  <rect x="8.4667" y="41.275" width="1.0583" height="1.0585"/>
  <rect x="14.817" y="41.275" width="1.0583" height="1.0585"/>
  <rect x="19.05" y="41.275" width="1.0583" height="1.0585"/>
  <rect x="23.283" y="41.275" width="1.0583" height="1.0585"/>
  <rect x="27.517" y="41.275" width="1.0583" height="1.0585"/>
  <rect x="31.75" y="41.275" width="1.0583" height="1.0585"/>
  <rect x="33.867" y="41.275" width="1.0583" height="1.0585"/>
  <rect x="38.1" y="41.275" width="1.0583" height="1.0585"/>
  <rect x="35.983" y="41.275" width="1.0583" height="1.0585"/>
  <rect x="42.333" y="41.275" width="1.0583" height="1.0585"/>
  <rect x="42.333" y="40.217" width="1.0583" height="1.0585"/>
  <rect x="39.158" y="41.275" width="1.0583" height="1.0585"/>
  <rect x="35.983" y="40.217" width="1.0583" height="1.0585"/>
  <rect x="33.867" y="40.217" width="1.0583" height="1.0585"/>
  <rect x="25.4" y="41.275" width="1.0583" height="1.0585"/>
  <rect x="25.4" y="40.217" width="1.0583" height="1.0585"/>
  <rect x="16.933" y="41.275" width="1.0583" height="1.0585"/>
  <rect x="16.933" y="40.217" width="1.0583" height="1.0585"/>
  <rect x="10.583" y="41.275" width="1.0583" height="1.0585"/>
  <rect x="9.525" y="41.275" width="1.0583" height="1.0585"/>
  <rect x="6.35" y="40.217" width="1.0583" height="1.0585"/>
  <rect x="4.2333" y="40.217" width="1.0583" height="1.0585"/>
  <rect x="4.2333" y="39.158" width="1.0583" height="1.0585"/>
  <rect x="2.1167" y="40.217" width="1.0583" height="1.0585"/>
  <rect x="16.933" y="39.158" width="1.0583" height="1.0585"/>
  <rect x="23.283" y="40.217" width="1.0583" height="1.0585"/>
  <rect x="20.108" y="41.275" width="1.0583" height="1.0585"/>
  <rect x="33.867" y="39.158" width="1.0583" height="1.0585"/>
  <rect x="35.983" y="39.158" width="1.0583" height="1.0585"/>
  <rect x="42.333" y="39.158" width="1.0583" height="1.0585"/>
  <rect x="4.2333" y="38.1" width="1.0583" height="1.0585"/>
  <rect x="6.35" y="39.158" width="1.0583" height="1.0585"/>
  <rect x="15.875" y="39.158" width="1.0583" height="1.0585"/>
  <rect x="26.458" y="41.275" width="1.0583" height="1.0585"/>
  <rect x="34.925" y="39.158" width="1.0583" height="1.0585"/>
  <rect x="41.275" y="39.158" width="1.0583" height="1.0585"/>
  <rect x="1.0583" y="42.333" width="1.0583" height="1.0585"/>
  <rect x="1.0583" y="41.275" width="1.0583" height="1.0585"/>
  <rect x="3.175" y="41.275" width="1.0583" height="1.0585"/>
  <rect x="3.175" y="42.333" width="1.0583" height="1.0585"/>
  <rect x="3.175" y="40.217" width="1.0583" height="1.0585"/>
  <rect x="3.175" y="39.158" width="1.0583" height="1.0585"/>
  <rect x="5.2917" y="42.333" width="1.0583" height="1.0585"/>
  <rect x="5.2917" y="41.275" width="1.0583" height="1.0585"/>
  <rect x="5.2917" y="40.217" width="1.0583" height="1.0585"/>
  <rect x="5.2917" y="39.158" width="1.0583" height="1.0585"/>
  <rect x="5.2917" y="38.1" width="1.0583" height="1.0585"/>
  <rect x="7.4083" y="42.333" width="1.0583" height="1.0585"/>
  <rect x="7.4083" y="41.275" width="1.0583" height="1.0585"/>
  <rect x="7.4083" y="40.217" width="1.0583" height="1.0585"/>
  <rect x="9.525" y="42.333" width="1.0583" height="1.0585"/>
  <rect x="11.642" y="42.333" width="1.0583" height="1.0585"/>
  <rect x="13.758" y="42.333" width="1.0583" height="1.0585"/>
  <rect x="15.875" y="42.333" width="1.0583" height="1.0585"/>
  <rect x="15.875" y="41.275" width="1.0583" height="1.0585"/>
  <rect x="15.875" y="40.217" width="1.0583" height="1.0585"/>
  <rect x="14.817" y="40.217" width="1.0583" height="1.0585"/>
  <rect x="17.992" y="42.333" width="1.0583" height="1.0585"/>
  <rect x="17.992" y="41.275" width="1.0583" height="1.0585"/>
  <rect x="20.108" y="42.333" width="1.0583" height="1.0585"/>
  <rect x="22.225" y="42.333" width="1.0583" height="1.0585"/>
  <rect x="22.225" y="41.275" width="1.0583" height="1.0585"/>
  <rect x="24.342" y="42.333" width="1.0583" height="1.0585"/>
  <rect x="24.342" y="41.275" width="1.0583" height="1.0585"/>
  <rect x="24.342" y="40.217" width="1.0583" height="1.0585"/>
  <rect x="26.458" y="42.333" width="1.0583" height="1.0585"/>
  <rect x="28.575" y="42.333" width="1.0583" height="1.0585"/>
  <rect x="30.692" y="42.333" width="1.0583" height="1.0585"/>
  <rect x="32.808" y="42.333" width="1.0583" height="1.0585"/>
  <rect x="32.808" y="41.275" width="1.0583" height="1.0585"/>
  <rect x="32.808" y="40.217" width="1.0583" height="1.0585"/>
  <rect x="34.925" y="42.333" width="1.0583" height="1.0585"/>
  <rect x="34.925" y="41.275" width="1.0583" height="1.0585"/>
  <rect x="34.925" y="40.217" width="1.0583" height="1.0585"/>
  <rect x="37.042" y="42.333" width="1.0583" height="1.0585"/>
  <rect x="37.042" y="41.275" width="1.0583" height="1.0585"/>
  <rect x="39.158" y="42.333" width="1.0583" height="1.0585"/>
  <rect x="41.275" y="42.333" width="1.0583" height="1.0585"/>
  <rect x="41.275" y="41.275" width="1.0583" height="1.0585"/>
  <rect x="41.275" y="40.217" width="1.0583" height="1.0585"/>
  <rect x="40.217" y="40.217" width="1.0583" height="1.0585"/>
  <rect x="40.217" y="41.275" width="1.0583" height="1.0585"/>
 </g>
</svg>
