<?xml version="1.0" encoding="UTF-8"?>
<svg width="639.79" height="277.35" version="1.1" viewBox="0 0 169.28 73.384" xmlns="http://www.w3.org/2000/svg" xmlns:cc="http://creativecommons.org/ns#" xmlns:dc="http://purl.org/dc/elements/1.1/" xmlns:rdf="http://www.w3.org/1999/02/22-rdf-syntax-ns#">
 <metadata>
  <rdf:RDF>
   <cc:Work rdf:about="">
    <dc:format>image/svg+xml</dc:format>
    <dc:type rdf:resource="http://purl.org/dc/dcmitype/StillImage"/>
    <dc:title/>
   </cc:Work>
  </rdf:RDF>
 </metadata>
 <rect x="-.00027066" y="1.409" width="169.28" height="70.533" fill="#1d232d" style="paint-order:normal"/>
 <g transform="matrix(7.2628 0 0 7.2628 -684.21 -699.12)" fill="#7b8694" stroke-width=".13769">
  <path d="m94.596 96.26h1.1654v0.19408h-1.1654z"/>
  <path d="m96.538 96.26h1.1654v0.19408h-1.1654z"/>
  <path d="m98.481 96.26h1.1654v0.19408h-1.1654z"/>
  <path d="m100.42 96.26h1.1654v0.19408h-1.1654z"/>
  <path d="m102.37 96.26h1.1654v0.19408h-1.1654z"/>
  <path d="m104.31 96.26h1.1654v0.19408h-1.1654z"/>
  <path d="m106.25 96.26h1.1654v0.19408h-1.1654z"/>
  <path d="m108.19 96.26h1.1654v0.19408h-1.1654z"/>
  <path d="m110.13 96.26h1.1654v0.19408h-1.1654z"/>
  <path d="m112.08 96.26h1.1654v0.19408h-1.1654z"/>
  <path d="m114.02 96.26h1.1654v0.19408h-1.1654z"/>
  <path d="m115.96 96.26h1.1654v0.19408h-1.1654z"/>
  <path d="m115.96 106.17h1.1654v0.19405h-1.1654z"/>
  <path d="m114.02 106.17h1.1654v0.19405h-1.1654z"/>
  <path d="m112.08 106.17h1.1654v0.19405h-1.1654z"/>
  <path d="m110.13 106.17h1.1654v0.19405h-1.1654z"/>
  <path d="m108.19 106.17h1.1654v0.19405h-1.1654z"/>
  <path d="m106.25 106.17h1.1654v0.19405h-1.1654z"/>
  <path d="m104.31 106.17h1.1654v0.19405h-1.1654z"/>
  <path d="m102.37 106.17h1.1654v0.19405h-1.1654z"/>
  <path d="m100.42 106.17h1.1654v0.19405h-1.1654z"/>
  <path d="m98.481 106.17h1.1654v0.19405h-1.1654z"/>
  <path d="m96.538 106.17h1.1654v0.19405h-1.1654z"/>
  <path d="m94.596 106.17h1.1654v0.19405h-1.1654z"/>
 </g>
 <g transform="matrix(7.2005 0 0 7.2005 -872.32 -593.93)" fill="none" stroke="#a6aeb8" stroke-linecap="round" stroke-width=".068595">
  <path d="m129.49 86.392 0.62898-0.94346 1.7297-0.94346h2.3586l-1.1007 0.94346-1.258-0.94346-0.78621 1.5724v2.3587l0.78621 0.62897 1.258-0.31449 0.62898 1.8869 0.62898-0.47173v-0.94346l1.1007-0.15723 0.15725-0.94346 0.62898-0.94346-0.62898-1.4152-1.4152-1.258-0.31448 2.2014 2.3586 0.47173-1.8869 0.94346 1.1007 0.94346-2.3587-0.31449 0.78622-2.0442-1.8869 0.78622-0.94344 0.94346-1.4152-0.47173z"/>
  <path d="m129.49 86.392 1.5724-0.31448 2.0442-0.62898 2.5159 0.31449-1.7297 0.94346 0.47175 1.4152-2.3587-0.62897 1.1007-2.0442 0.78621 1.258"/>
  <path d="m131.85 84.505 0.15725 2.9876-2.5159-1.1007 1.5724 2.0442 2.0442 0.31448-1.1007-1.2579"/>
  <path d="m130.12 85.449 0.94347 0.62898 2.8304 0.62897"/>
  <path d="m133.11 88.751 1.258-0.62897 1.2579-2.3587"/>
 </g>
 <g transform="matrix(7.2005 0 0 7.2005 -872.32 -593.93)" fill="#7893ea">
  <circle cx="130.12" cy="85.449" r=".2485"/>
  <circle cx="131.85" cy="84.505" r=".2485"/>
  <circle cx="134.21" cy="84.505" r=".2485"/>
  <circle cx="135.63" cy="85.763" r=".38188"/>
  <circle cx="132.01" cy="87.493" r=".38188"/>
  <circle cx="131.07" cy="86.078" r=".38188"/>
  <circle cx="133.11" cy="85.449" r=".38188"/>
  <circle cx="133.9" cy="86.707" r=".52227"/>
  <circle cx="129.65" cy="87.965" r=".2485"/>
  <circle cx="131.85" cy="89.065" r=".2485"/>
  <circle cx="134.37" cy="90.166" r=".2485"/>
  <circle cx="133.74" cy="90.638" r=".2485"/>
  <circle cx="134.37" cy="89.222" r=".2485"/>
  <circle cx="135.47" cy="89.065" r=".2485"/>
  <circle cx="135.63" cy="88.122" r=".2485"/>
  <circle cx="136.26" cy="87.178" r=".2485"/>
  <circle cx="134.37" cy="88.122" r=".32572"/>
  <circle cx="133.11" cy="88.751" r=".32572"/>
  <circle cx="131.07" cy="88.436" r=".32572"/>
  <circle cx="129.5" cy="86.392" r=".32572"/>
 </g>
</svg>
