<?xml version="1.0" encoding="UTF-8" standalone="no"?>
<svg
   xmlns:dc="http://purl.org/dc/elements/1.1/"
   xmlns:cc="http://creativecommons.org/ns#"
   xmlns:rdf="http://www.w3.org/1999/02/22-rdf-syntax-ns#"
   xmlns:svg="http://www.w3.org/2000/svg"
   xmlns="http://www.w3.org/2000/svg"
   xmlns:sodipodi="http://sodipodi.sourceforge.net/DTD/sodipodi-0.dtd"
   xmlns:inkscape="http://www.inkscape.org/namespaces/inkscape"
   width="639.78516"
   height="277.34772"
   viewBox="0 0 169.27648 73.381586"
   version="1.1"
   id="svg8"
   inkscape:version="1.0rc1 (09960d6f05, 2020-04-09)"
   sodipodi:docname="chapter_patterns_simulation.svg">
  <defs
     id="defs2" />
  <sodipodi:namedview
     units="px"
     id="base"
     pagecolor="#303030"
     bordercolor="#666666"
     borderopacity="1.0"
     inkscape:pageopacity="0"
     inkscape:pageshadow="2"
     inkscape:zoom="1.979899"
     inkscape:cx="263.77704"
     inkscape:cy="158.58687"
     inkscape:document-units="mm"
     inkscape:current-layer="layer1"
     inkscape:document-rotation="0"
     showgrid="true"
     fit-margin-top="0"
     fit-margin-left="0"
     fit-margin-right="0"
     fit-margin-bottom="0"
     inkscape:window-width="2560"
     inkscape:window-height="1377"
     inkscape:window-x="-8"
     inkscape:window-y="-8"
     inkscape:window-maximized="1">
    <inkscape:grid
       originy="84.031888"
       originx="73.498983"
       id="grid1543"
       type="xygrid" />
  </sodipodi:namedview>
  <metadata
     id="metadata5">
    <rdf:RDF>
      <cc:Work
         rdf:about="">
        <dc:format>image/svg+xml</dc:format>
        <dc:type
           rdf:resource="http://purl.org/dc/dcmitype/StillImage" />
        <dc:title />
      </cc:Work>
    </rdf:RDF>
  </metadata>
  <g
     inkscape:label="Layer 1"
     inkscape:groupmode="layer"
     id="layer1"
     transform="translate(-46.306233,2.9692215)">
    <g
       style="font-weight:bold;font-size:2.9879px;line-height:1.25;font-family:'Segoe UI';-inkscape-font-specification:'Segoe UI Bold';fill:#a0f1c6;fill-opacity:1;stroke:none;stroke-linecap:square;stroke-miterlimit:4;stroke-dasharray:none;stroke-dashoffset:1.2;stroke-opacity:1"
       transform="matrix(7.2625913,0,0,7.2625913,-637.88797,-702.06626)"
       stroke-width="0.13769"
       id="g68">
      <rect
         x="94.208"
         y="96.454002"
         width="23.308001"
         height="9.7115002"
         fill="#1d232d"
         style="stroke:none;paint-order:normal"
         id="rect4-6" />
      <g
         style="stroke:none"
         fill="#7b8694"
         id="g54">
        <path
           style="stroke:none"
           inkscape:connector-curvature="0"
           d="m 94.596,96.26 h 1.1654 v 0.19408 H 94.596 Z"
           id="path6-4" />
        <path
           style="stroke:none"
           inkscape:connector-curvature="0"
           d="m 96.538,96.26 h 1.1654 v 0.19408 H 96.538 Z"
           id="path8" />
        <path
           style="stroke:none"
           inkscape:connector-curvature="0"
           d="m 98.481,96.26 h 1.1654 v 0.19408 H 98.481 Z"
           id="path10" />
        <path
           style="stroke:none"
           inkscape:connector-curvature="0"
           d="m 100.42,96.26 h 1.1654 v 0.19408 H 100.42 Z"
           id="path12" />
        <path
           style="stroke:none"
           inkscape:connector-curvature="0"
           d="m 102.37,96.26 h 1.1654 v 0.19408 H 102.37 Z"
           id="path14" />
        <path
           style="stroke:none"
           inkscape:connector-curvature="0"
           d="m 104.31,96.26 h 1.1654 v 0.19408 H 104.31 Z"
           id="path16" />
        <path
           style="stroke:none"
           inkscape:connector-curvature="0"
           d="m 106.25,96.26 h 1.1654 v 0.19408 H 106.25 Z"
           id="path18" />
        <path
           style="stroke:none"
           inkscape:connector-curvature="0"
           d="m 108.19,96.26 h 1.1654 v 0.19408 H 108.19 Z"
           id="path20" />
        <path
           style="stroke:none"
           inkscape:connector-curvature="0"
           d="m 110.13,96.26 h 1.1654 v 0.19408 H 110.13 Z"
           id="path22" />
        <path
           style="stroke:none"
           inkscape:connector-curvature="0"
           d="m 112.08,96.26 h 1.1654 v 0.19408 H 112.08 Z"
           id="path24" />
        <path
           style="stroke:none"
           inkscape:connector-curvature="0"
           d="m 114.02,96.26 h 1.1654 v 0.19408 H 114.02 Z"
           id="path26" />
        <path
           style="stroke:none"
           inkscape:connector-curvature="0"
           d="m 115.96,96.26 h 1.1654 v 0.19408 H 115.96 Z"
           id="path28" />
        <path
           style="stroke:none"
           inkscape:connector-curvature="0"
           d="m 115.96,106.17 h 1.1654 v 0.19405 H 115.96 Z"
           id="path30" />
        <path
           style="stroke:none"
           inkscape:connector-curvature="0"
           d="m 114.02,106.17 h 1.1654 v 0.19405 H 114.02 Z"
           id="path32" />
        <path
           style="stroke:none"
           inkscape:connector-curvature="0"
           d="m 112.08,106.17 h 1.1654 v 0.19405 H 112.08 Z"
           id="path34" />
        <path
           style="stroke:none"
           inkscape:connector-curvature="0"
           d="m 110.13,106.17 h 1.1654 v 0.19405 H 110.13 Z"
           id="path36" />
        <path
           style="stroke:none"
           inkscape:connector-curvature="0"
           d="m 108.19,106.17 h 1.1654 v 0.19405 H 108.19 Z"
           id="path38" />
        <path
           style="stroke:none"
           inkscape:connector-curvature="0"
           d="m 106.25,106.17 h 1.1654 v 0.19405 H 106.25 Z"
           id="path40" />
        <path
           style="stroke:none"
           inkscape:connector-curvature="0"
           d="m 104.31,106.17 h 1.1654 v 0.19405 H 104.31 Z"
           id="path42" />
        <path
           style="stroke:none"
           inkscape:connector-curvature="0"
           d="m 102.37,106.17 h 1.1654 v 0.19405 H 102.37 Z"
           id="path44" />
        <path
           style="stroke:none"
           inkscape:connector-curvature="0"
           d="m 100.42,106.17 h 1.1654 v 0.19405 H 100.42 Z"
           id="path46" />
        <path
           style="stroke:none"
           inkscape:connector-curvature="0"
           d="m 98.481,106.17 h 1.1654 v 0.19405 H 98.481 Z"
           id="path48" />
        <path
           style="stroke:none"
           inkscape:connector-curvature="0"
           d="m 96.538,106.17 h 1.1654 v 0.19405 H 96.538 Z"
           id="path50" />
        <path
           style="stroke:none"
           inkscape:connector-curvature="0"
           d="m 94.596,106.17 h 1.1654 v 0.19405 H 94.596 Z"
           id="path52" />
      </g>
    </g>
    <path
       inkscape:connector-curvature="0"
       id="path5182"
       d="m 120.3251,45.36746 c -0.0424,-0.0661 -0.0987,-0.45433 -0.125,-0.863574 l -0.0479,-0.744123 -0.77547,-0.268225 c -0.4265,-0.14746 -0.98307,-0.383904 -1.23681,-0.525898 l -0.46127,-0.258055 -0.5473,0.541577 c -0.44217,0.437592 -0.59039,0.530729 -0.77188,0.485177 -0.30127,-0.07542 -2.56487,-2.373357 -2.56487,-2.603488 0,-0.09873 0.23814,-0.420346 0.52903,-0.714546 l 0.52908,-0.534628 -0.25806,-0.461321 c -0.14152,-0.253818 -0.37839,-0.810226 -0.52585,-1.236758 l -0.26823,-0.775522 -0.74412,-0.04788 c -0.40933,-0.02542 -0.79789,-0.08263 -0.86362,-0.125002 -0.17161,-0.111019 -0.17161,-3.654129 0,-3.765063 0.0657,-0.04237 0.45438,-0.09873 0.86362,-0.125002 l 0.74412,-0.04788 0.26823,-0.775522 c 0.14746,-0.42649 0.3839,-0.983067 0.52585,-1.236775 l 0.25806,-0.461287 -0.52908,-0.534661 c -0.2911,-0.294031 -0.52903,-0.615604 -0.52903,-0.714551 0,-0.230088 2.26372,-2.527881 2.56487,-2.603458 0.18136,-0.04555 0.32967,0.04771 0.77188,0.485177 l 0.5473,0.541552 0.46127,-0.257801 c 0.25382,-0.141698 0.81031,-0.378439 1.23681,-0.525899 l 0.77547,-0.268055 0.0479,-0.744098 c 0.0254,-0.409286 0.0826,-0.797878 0.125,-0.863629 0.11102,-0.171401 3.65413,-0.171401 3.76506,0 0.0428,0.06555 0.0987,0.454364 0.125,0.863629 l 0.0479,0.744098 0.77547,0.268055 c 0.42654,0.147333 0.98311,0.384117 1.23681,0.525899 l 0.46132,0.257801 0.54725,-0.541552 c 0.44217,-0.437545 0.59044,-0.530742 0.77188,-0.485177 0.30128,0.07559 2.56491,2.37337 2.56491,2.603458 0,0.0989 -0.23813,0.420516 -0.52907,0.714551 l -0.52908,0.534661 0.25763,0.461287 c 0.14153,0.253649 0.3784,0.810285 0.5259,1.236775 l 0.26823,0.775522 0.74408,0.04788 c 0.40933,0.02542 0.79789,0.08263 0.86361,0.125002 0.17119,0.111019 0.17119,3.654171 0,3.765063 -0.0657,0.04237 -0.45433,0.09873 -0.86361,0.125002 l -0.74408,0.04788 -0.26823,0.775522 c -0.14746,0.426532 -0.3839,0.983067 -0.5259,1.236758 l -0.25763,0.461321 0.54158,0.547255 c 0.43755,0.442211 0.53073,0.590434 0.48518,0.77192 -0.0754,0.301276 -2.37339,2.564886 -2.60348,2.564886 -0.0987,0 -0.42035,-0.23814 -0.71455,-0.529077 l -0.53462,-0.529076 -0.46132,0.258055 c -0.25382,0.141528 -0.81027,0.378396 -1.23681,0.525898 l -0.77547,0.268225 -0.0479,0.744123 c -0.0254,0.409329 -0.0826,0.797852 -0.125,0.863616 -0.0572,0.08856 -0.54335,0.119494 -1.88253,0.119494 -1.33917,0 -1.82516,-0.02966 -1.88253,-0.119494 z"
       style="fill:#7893ea;fill-opacity:1;stroke-width:0.0446211" />
    <path
       inkscape:connector-curvature="0"
       id="path5180"
       d="m 123.25926,43.868536 c 0,-0.804505 0.0657,-0.883998 0.90111,-1.093916 0.71951,-0.180512 1.45969,-0.492182 2.03923,-0.857993 0.56895,-0.359329 0.75548,-0.327548 1.31363,0.224156 l 0.48365,0.477648 0.73904,-0.743458 0.73908,-0.743402 -0.47878,-0.471533 c -0.55476,-0.54645 -0.58789,-0.739928 -0.22501,-1.314768 0.36569,-0.579544 0.6773,-1.319726 0.85803,-2.039229 0.20975,-0.835607 0.28941,-0.901117 1.09391,-0.901117 h 0.66239 v -1.05167 -1.051586 h -0.66239 c -0.8045,0 -0.88404,-0.06568 -1.09391,-0.901116 -0.18051,-0.719504 -0.49217,-1.459686 -0.85803,-2.039229 -0.35932,-0.568929 -0.32754,-0.755488 0.22416,-1.31365 l 0.47764,-0.483647 -0.74341,-0.739055 -0.7434,-0.739051 -0.47157,0.478758 c -0.54641,0.554776 -0.73989,0.587879 -1.31477,0.224962 -0.57955,-0.365854 -1.31973,-0.677283 -2.03923,-0.858015 -0.83557,-0.209876 -0.90112,-0.289454 -0.90112,-1.093929 v -0.662384 h -1.05163 -1.05162 v 0.662384 c 0,0.804488 -0.0657,0.884053 -0.90112,1.093929 -0.7195,0.180639 -1.45969,0.492174 -2.03923,0.858015 -0.56895,0.359158 -0.75548,0.327378 -1.31362,-0.223945 l -0.4837,-0.477656 -0.73899,0.743432 -0.73908,0.743415 0.47878,0.471546 c 0.55475,0.54642 0.58789,0.739923 0.225,1.314763 -0.36568,0.579544 -0.6773,1.319726 -0.85802,2.03923 -0.20975,0.835564 -0.28941,0.901116 -1.09392,0.901116 h -0.66238 v 1.051628 1.051628 h 0.66238 c 0.80451,0 0.88404,0.06568 1.09392,0.901159 0.18051,0.719504 0.49217,1.459643 0.85802,2.039187 0.36272,0.574882 0.32967,0.76836 -0.225,1.314768 l -0.47878,0.471533 0.73908,0.743402 0.73899,0.743458 0.4837,-0.477648 c 0.55814,-0.551238 0.74467,-0.583019 1.31362,-0.224157 0.57954,0.365684 1.31973,0.67727 2.03923,0.857994 0.83556,0.209749 0.90112,0.289411 0.90112,1.093959 v 0.662384 h 1.05162 1.05163 z"
       style="fill:#0a2c9d;fill-opacity:1;stroke-width:0.0446211" />
    <path
       inkscape:connector-curvature="0"
       id="path5178"
       d="m 121.44279,41.379414 c -1.43626,-0.200851 -2.4303,-0.703868 -3.494,-1.767572 -1.23579,-1.235741 -1.78135,-2.518051 -1.79156,-4.211045 -0.008,-1.068704 0.13517,-1.697105 0.60391,-2.676909 0.62056,-1.297607 1.51227,-2.188791 2.81738,-2.815738 0.96069,-0.461516 1.59875,-0.609409 2.62911,-0.609409 1.03387,0 1.66511,0.147333 2.65826,0.619909 2.03279,0.967559 3.36947,3.072488 3.39006,5.338712 0.0127,1.121375 -0.12585,1.727741 -0.622,2.772547 -0.54535,1.148451 -1.60096,2.20402 -2.74941,2.74941 -1.16714,0.554289 -2.32572,0.756242 -3.44175,0.600095 z"
       style="fill:#7893ea;fill-opacity:1;stroke-width:0.0446211" />
    <path
       inkscape:connector-curvature="0"
       id="path5176"
       d="m 123.75461,40.239268 c 0.90166,-0.310175 1.35023,-0.592891 2.04855,-1.290996 1.06811,-1.067688 1.51032,-2.120375 1.51032,-3.595315 0,-1.483626 -0.49251,-2.635171 -1.57329,-3.678578 -2.06554,-1.994118 -5.20068,-1.936512 -7.19788,0.132205 -1.00548,1.041501 -1.44053,2.112536 -1.44053,3.546373 0,1.420109 0.43281,2.498093 1.4135,3.520229 0.80773,0.841921 1.72736,1.3457 2.83191,1.551509 0.61387,0.114408 1.80202,0.02119 2.40742,-0.185597 z"
       style="fill:#0a2c9d;fill-opacity:1;stroke-width:0.0446211" />
    <path
       inkscape:connector-curvature="0"
       id="path5174"
       d="m 121.64656,38.311312 c -1.42858,-0.287717 -2.43423,-1.509814 -2.43423,-2.958355 0,-0.852684 0.26949,-1.496084 0.88437,-2.110925 0.6148,-0.614798 1.2582,-0.884337 2.11093,-0.884337 0.85273,0 1.49608,0.269496 2.11093,0.884337 0.61479,0.614841 0.88433,1.258241 0.88433,2.110925 0,1.874947 -1.74172,3.323785 -3.55633,2.958355 z"
       style="fill:#7893ea;fill-opacity:1;stroke-width:0.0446211" />
    <path
       style="fill:#7893ea;fill-opacity:1;stroke-width:0.0446211"
       d="m 97.875199,36.276795 c -0.0127,-0.07729 0.0826,-0.457529 0.21483,-0.845675 l 0.24068,-0.705805 -0.61382,-0.544568 c -0.33772,-0.299454 -0.76133,-0.730885 -0.94141,-0.959169 l -0.32755,-0.414922 -0.71289,0.290895 c -0.57599,0.235088 -0.74858,0.264411 -0.89879,0.152884 -0.24958,-0.184961 -1.46142,-3.174231 -1.37333,-3.386845 0.0381,-0.09123 0.38094,-0.297209 0.76222,-0.457703 l 0.69336,-0.291445 -0.0619,-0.524958 c -0.0339,-0.288649 -0.0381,-0.893358 -0.0127,-1.343853 l 0.0491,-0.819133 -0.66916,-0.328989 c -0.36865,-0.18013 -0.70552,-0.381701 -0.75001,-0.445977 -0.11611,-0.168266 1.2398,-3.441651 1.44078,-3.478465 0.0771,-0.01398 0.4576,0.08267 0.84574,0.215003 l 0.70581,0.240513 0.54459,-0.613841 c 0.29958,-0.33759 0.73086,-0.761322 0.95913,-0.941397 l 0.41483,-0.327421 -0.28432,-0.696431 c -0.15636,-0.383057 -0.25297,-0.771195 -0.21526,-0.862612 0.0881,-0.212588 3.058771,-1.469164 3.365891,-1.423744 0.18518,0.02712 0.28645,0.170257 0.52747,0.743627 l 0.29831,0.70977 0.52484,-0.06165 c 0.28856,-0.0339 0.89345,-0.03941 1.34388,-0.01271 l 0.81904,0.04911 0.32882,-0.669134 c 0.18008,-0.368396 0.38178,-0.70552 0.44598,-0.750051 0.16822,-0.115849 3.44158,1.240017 3.47849,1.440825 0.0127,0.07695 -0.0826,0.457559 -0.21484,0.845726 l -0.24068,0.705779 0.61387,0.544416 c 0.33772,0.299327 0.76128,0.731097 0.94141,0.959169 l 0.32755,0.41471 0.71285,-0.290895 c 0.57594,-0.235046 0.74857,-0.264411 0.89879,-0.152884 0.24958,0.185131 1.46142,3.174261 1.37337,3.386832 -0.0381,0.09136 -0.38094,0.297378 -0.76226,0.45769 l -0.6934,0.291489 0.0614,0.524763 c 0.0339,0.288479 0.0381,0.893413 0.0127,1.343883 l -0.0491,0.819136 0.66912,0.328989 c 0.36865,0.18013 0.70556,0.381659 0.75005,0.445978 0.11568,0.168096 -1.24023,3.441523 -1.44083,3.478465 -0.0767,0.01398 -0.45755,-0.08263 -0.84573,-0.215004 l -0.70573,-0.240512 -0.54459,0.613845 c -0.29958,0.337632 -0.7309,0.761322 -0.95917,0.941363 l -0.41441,0.32759 0.29068,0.712851 c 0.23518,0.575993 0.26441,0.748589 0.15297,0.898829 -0.18475,0.249495 -3.17425,1.461393 -3.38683,1.37334 -0.0911,-0.03771 -0.29704,-0.380853 -0.45768,-0.76225 l -0.29153,-0.693393 -0.52497,0.06187 c -0.28856,0.03347 -0.8934,0.03941 -1.34392,0.01271 l -0.81908,-0.04894 -0.32882,0.669156 c -0.18009,0.368438 -0.38179,0.705499 -0.44598,0.750042 -0.0869,0.05992 -0.54772,-0.09754 -1.784981,-0.610019 -1.23722,-0.512479 -1.67486,-0.725859 -1.6935,-0.83081 z"
       id="path841"
       inkscape:connector-curvature="0" />
    <path
       style="fill:#0a2c9d;fill-opacity:1;stroke-width:0.0446211"
       d="m 101.15961,36.014824 c 0.30763,-0.743266 0.39873,-0.791572 1.25112,-0.665803 0.73383,0.108561 1.53693,0.103857 2.21237,-0.01229 0.66314,-0.114239 0.82332,-0.01356 1.12786,0.709796 l 0.26398,0.626375 0.96731,-0.404032 0.9673,-0.40399 -0.26187,-0.618862 c -0.30339,-0.717148 -0.26017,-0.908579 0.29535,-1.300793 0.55963,-0.395473 1.13078,-0.960075 1.57312,-1.555649 0.51352,-0.691736 0.61221,-0.72177 1.35549,-0.413905 l 0.61196,0.253479 0.40254,-0.971618 0.40255,-0.971538 -0.61196,-0.253479 c -0.74327,-0.307886 -0.79162,-0.398989 -0.66581,-1.251148 0.10847,-0.733813 0.10381,-1.536915 -0.0127,-2.21235 -0.11441,-0.66313 -0.0127,-0.823328 0.7098,-1.127875 l 0.62636,-0.26403 -0.40382,-0.967288 -0.40382,-0.967279 -0.61891,0.261869 c -0.7171,0.303438 -0.90854,0.260006 -1.30079,-0.2953 -0.39535,-0.559785 -0.96006,-1.130765 -1.55562,-1.573082 -0.69167,-0.513657 -0.72175,-0.612264 -0.41399,-1.355501 l 0.25339,-0.611964 -0.97158,-0.402422 -0.97159,-0.402422 -0.25339,0.611959 c -0.30806,0.74325 -0.39916,0.791628 -1.25116,0.665817 -0.73383,-0.108434 -1.53689,-0.1039 -2.21233,0.01229 -0.6631,0.114112 -0.82328,0.01356 -1.12794,-0.709601 l -0.26399,-0.626401 -0.967253,0.404033 -0.967308,0.403989 0.26187,0.618871 c 0.3034,0.717122 0.26018,0.908579 -0.29534,1.300789 -0.55963,0.395472 -1.13078,0.960075 -1.57308,1.555653 -0.51352,0.691694 -0.61221,0.721766 -1.35549,0.413905 l -0.61196,-0.253479 -0.40255,0.97158 -0.40254,0.971576 0.61195,0.253479 c 0.74328,0.307886 0.79163,0.398989 0.66582,1.251187 -0.10848,0.733813 -0.10381,1.536881 0.0127,2.212312 0.11526,0.669931 0.008,0.836031 -0.71103,1.128582 l -0.62276,0.25242 0.39831,0.969648 0.39831,0.969668 0.62963,-0.25619 c 0.72662,-0.295683 0.91112,-0.253649 1.29943,0.295598 0.39535,0.559628 0.9601,1.130752 1.55566,1.57306 0.69171,0.513543 0.72175,0.612226 0.41399,1.355531 l -0.25339,0.611964 0.971578,0.402422 0.971583,0.402422 z"
       id="path843"
       inkscape:connector-curvature="0" />
    <path
       style="fill:#7893ea;fill-opacity:1;stroke-width:0.0446211"
       d="m 100.43397,33.020041 c -1.250061,-0.73519 -1.975971,-1.580323 -2.551611,-2.970118 -0.66883,-1.61459 -0.68213,-3.008067 -0.0437,-4.576098 0.40128,-0.990597 0.77434,-1.51619 1.58232,-2.242037 1.069931,-0.961351 2.234771,-1.443457 3.680471,-1.523238 1.06418,-0.05873 1.71025,0.04881 2.66217,0.443097 0.95518,0.395642 1.48201,0.77333 2.21872,1.589997 1.50778,1.67182 1.93715,4.128044 1.08896,6.229647 -0.41738,1.040877 -0.77747,1.54806 -1.63566,2.323467 -0.94332,0.852336 -2.32254,1.423587 -3.59231,1.48797 -1.2904,0.06547 -2.43805,-0.19136 -3.40937,-0.762687 z"
       id="path845"
       inkscape:connector-curvature="0" />
    <path
       style="fill:#0a2c9d;fill-opacity:1;stroke-width:0.0446211"
       d="m 103.00612,32.851377 c 0.95171,0.05848 1.47431,-0.03093 2.38665,-0.408778 1.39536,-0.577666 2.20678,-1.380993 2.77119,-2.74366 0.56777,-1.370693 0.55344,-2.623057 -0.0458,-4.000635 -1.14523,-2.632778 -4.06376,-3.779318 -6.70058,-2.632367 -1.32751,0.577438 -2.139301,1.40046 -2.688001,2.725152 -0.54344,1.31201 -0.55611,2.473567 -0.0424,3.793191 0.42403,1.086938 1.080898,1.904299 2.022601,2.517135 0.52336,0.340599 1.65673,0.709178 2.29517,0.749805 z"
       id="path847"
       inkscape:connector-curvature="0" />
    <path
       style="fill:#7893ea;fill-opacity:1;stroke-width:0.0446211"
       d="m 101.79631,30.263465 c -1.20972,-0.812509 -1.67116,-2.326424 -1.11684,-3.664705 0.32628,-0.787777 0.82154,-1.279069 1.6249,-1.611803 0.80328,-0.332717 1.50083,-0.335514 2.28864,-0.0093 0.78786,0.326319 1.27909,0.821509 1.61185,1.624837 0.33263,0.80331 0.3356,1.500885 0.008,2.288661 -0.71752,1.732224 -2.88111,2.404248 -4.41775,1.372214 z"
       id="path849"
       inkscape:connector-curvature="0" />
    <path
       inkscape:connector-curvature="0"
       id="path851"
       d="m 138.68943,50.99738 c -0.0254,-0.14407 0.15382,-0.8529 0.40043,-1.576463 l 0.44865,-1.315721 -1.14425,-1.015152 c -0.62955,-0.558226 -1.41922,-1.362477 -1.75491,-1.78803 l -0.6106,-0.773475 -1.32892,0.542267 c -1.07375,0.438241 -1.39545,0.492903 -1.67549,0.285005 -0.46527,-0.344794 -2.72429,-5.917226 -2.56009,-6.313572 0.0712,-0.170045 0.71014,-0.554039 1.42087,-0.853222 l 1.29252,-0.543297 -0.11525,-0.978597 c -0.0631,-0.538085 -0.0712,-1.66535 -0.0254,-2.505135 l 0.0915,-1.526983 -1.24744,-0.613282 c -0.68721,-0.33581 -1.31519,-0.711545 -1.39811,-0.831369 -0.21653,-0.31365 2.31118,-6.415735 2.68585,-6.484364 0.14364,-0.02627 0.85302,0.154113 1.57655,0.400812 l 1.31574,0.448351 1.01519,-1.144286 c 0.55848,-0.62932 1.36244,-1.419215 1.78795,-1.754902 l 0.77332,-0.610358 -0.53001,-1.298251 c -0.29153,-0.714075 -0.47157,-1.437621 -0.40128,-1.608035 0.16441,-0.396278 5.70201,-2.738732 6.27452,-2.654062 0.34534,0.05055 0.53399,0.317379 0.98327,1.386227 l 0.55612,1.323115 0.97836,-0.114917 c 0.53793,-0.06318 1.66554,-0.07348 2.50517,-0.02373 l 1.5268,0.09157 0.61298,-1.24736 c 0.3356,-0.686744 0.71171,-1.315191 0.83137,-1.398205 0.31356,-0.215978 6.41562,2.311572 6.48443,2.685909 0.0254,0.143435 -0.15382,0.852955 -0.40043,1.576556 l -0.44869,1.315671 1.14434,1.014873 c 0.62954,0.557988 1.41913,1.36287 1.75494,1.788025 l 0.61061,0.773081 1.32883,-0.542268 c 1.07366,-0.438159 1.39545,-0.492902 1.6755,-0.285004 0.46522,0.34509 2.72428,5.917286 2.56012,6.313547 -0.0712,0.170299 -0.71009,0.554356 -1.42095,0.8532 l -1.29261,0.543378 0.11441,0.978233 c 0.0631,0.537767 0.0712,1.665451 0.0254,2.50519 l -0.0915,1.526991 1.24735,0.613282 c 0.68721,0.335811 1.31527,0.711469 1.3982,0.831366 0.21568,0.313352 -2.31195,6.415501 -2.68589,6.484362 -0.1428,0.02627 -0.85294,-0.154028 -1.5766,-0.400811 l -1.31557,-0.448351 -1.01519,1.144294 c -0.55848,0.629397 -1.36252,1.419215 -1.78803,1.754839 l -0.77252,0.610676 0.54188,1.328857 c 0.43839,1.073734 0.49289,1.395476 0.28517,1.675545 -0.3445,0.465096 -5.91726,2.724249 -6.31354,2.560106 -0.16992,-0.0703 -0.55374,-0.709965 -0.85319,-1.420943 l -0.54344,-1.292585 -0.97862,0.115341 c -0.53793,0.06242 -1.66541,0.07348 -2.50525,0.02373 l -1.52689,-0.09123 -0.61298,1.247403 c -0.3356,0.686825 -0.71171,1.315153 -0.83137,1.398188 -0.16187,0.111697 -1.02103,-0.181825 -3.32747,-1.137163 -2.30635,-0.955334 -3.12217,-1.353107 -3.15692,-1.54875 z"
       style="fill:#7893ea;fill-opacity:1;stroke-width:0.0446211" />
    <path
       inkscape:connector-curvature="0"
       id="path853"
       d="m 144.81208,50.509029 c 0.57344,-1.385557 0.74327,-1.475605 2.33224,-1.241156 1.36799,0.202376 2.86509,0.193604 4.12418,-0.02288 1.23621,-0.21297 1.53481,-0.02542 2.10249,1.323162 l 0.49213,1.167655 1.80321,-0.753174 1.80316,-0.753097 -0.48814,-1.153646 c -0.56556,-1.33687 -0.48501,-1.693724 0.55056,-2.424867 1.04324,-0.73722 2.10791,-1.789721 2.93251,-2.899956 0.9573,-1.289496 1.14124,-1.345484 2.52682,-0.77158 l 1.14078,0.47252 0.75044,-1.811234 0.75039,-1.811085 -1.14078,-0.472525 c -1.38558,-0.573942 -1.47571,-0.743771 -1.24117,-2.332319 0.20212,-1.367934 0.19365,-2.865035 -0.0254,-4.124141 -0.21314,-1.236173 -0.0254,-1.534801 1.32316,-2.102522 l 1.16764,-0.492191 -0.75281,-1.803165 -0.75276,-1.803145 -1.15375,0.488161 c -1.33676,0.565649 -1.69363,0.484686 -2.42483,-0.550488 -0.737,-1.043518 -1.78969,-2.107909 -2.89992,-2.932452 -1.28935,-0.957529 -1.34545,-1.14135 -0.77171,-2.526848 l 0.47234,-1.14079 -1.81118,-0.750174 -1.81117,-0.750173 -0.47234,1.140782 c -0.57429,1.385527 -0.74412,1.475706 -2.33237,1.241177 -1.36794,-0.202122 -2.86496,-0.19369 -4.12409,0.02288 -1.23612,0.212715 -1.53469,0.02542 -2.10266,-1.322798 l -0.49209,-1.167701 -1.80312,0.753173 -1.80321,0.753098 0.48819,1.153663 c 0.56556,1.336819 0.485,1.693723 -0.55056,2.424858 -1.04324,0.73722 -2.10796,1.789721 -2.93247,2.899964 -0.95726,1.289416 -1.14125,1.345476 -2.52682,0.771581 l -1.14078,-0.472525 -0.7504,1.811166 -0.75043,1.811158 1.14078,0.47252 c 1.38557,0.573946 1.4757,0.743776 1.24121,2.332395 -0.20213,1.367934 -0.19365,2.864968 0.0254,4.124069 0.21483,1.248848 0.017,1.558484 -1.32549,2.103841 l -1.16091,0.47055 0.74251,1.80756 0.74252,1.807607 1.1737,-0.477581 c 1.35456,-0.551195 1.69846,-0.472834 2.42233,0.551039 0.73701,1.04323 1.78978,2.107887 2.90001,2.932414 1.28943,0.957317 1.34544,1.141278 0.77171,2.526907 l -0.47234,1.140786 1.81117,0.750173 1.81118,0.750174 z"
       style="fill:#0a2c9d;fill-opacity:1;stroke-width:0.0446211" />
    <path
       inkscape:connector-curvature="0"
       id="path855"
       d="m 143.45934,44.926317 c -2.33029,-1.370498 -3.68349,-2.945948 -4.75656,-5.536729 -1.2468,-3.00983 -1.27159,-5.607471 -0.0814,-8.530507 0.74802,-1.846616 1.44346,-2.826399 2.94967,-4.179481 1.99448,-1.792098 4.16596,-2.690812 6.86096,-2.839539 1.98376,-0.109494 3.18811,0.09102 4.96263,0.825997 1.78062,0.737533 2.76271,1.4416 4.13604,2.963986 2.81073,3.116514 3.61112,7.695269 2.02999,11.612961 -0.77806,1.940347 -1.44934,2.885811 -3.04912,4.331281 -1.7585,1.588878 -4.32956,2.653773 -6.69659,2.773792 -2.40551,0.122036 -4.54486,-0.356743 -6.35557,-1.421761 z"
       style="fill:#7893ea;fill-opacity:1;stroke-width:0.0446211" />
    <path
       inkscape:connector-curvature="0"
       id="path857"
       d="m 148.25421,44.611905 c 1.77414,0.109027 2.74835,-0.05767 4.4491,-0.762022 2.60115,-1.076852 4.11371,-2.574373 5.16589,-5.114581 1.05837,-2.55517 1.03167,-4.889756 -0.0852,-7.457761 -2.13491,-4.907878 -7.57546,-7.045194 -12.49089,-4.907111 -2.47466,1.076424 -3.98799,2.610658 -5.0108,5.080076 -1.01307,2.445774 -1.03671,4.611086 -0.0788,7.071055 0.79048,2.026212 2.015,3.54989 3.77049,4.692308 0.97561,0.634925 3.08836,1.322009 4.27851,1.397743 z"
       style="fill:#0a2c9d;fill-opacity:1;stroke-width:0.0446211" />
    <path
       inkscape:connector-curvature="0"
       id="path859"
       d="m 145.99896,39.787663 c -2.25508,-1.514636 -3.11531,-4.336793 -2.08194,-6.831543 0.60823,-1.468528 1.53147,-2.384366 3.02903,-3.00463 1.49744,-0.620235 2.7978,-0.625447 4.26639,-0.01737 1.46867,0.608307 2.3844,1.531416 3.00471,3.028933 0.62005,1.497486 0.6256,2.797868 0.017,4.266397 -1.33757,3.229114 -5.37081,4.481864 -8.23531,2.558005 z"
       style="fill:#7893ea;fill-opacity:1;stroke-width:0.0446211" />
    <path
       inkscape:connector-curvature="0"
       id="path861"
       d="m 107.29348,47.672392 c -0.0212,-0.03814 -0.0212,-0.251275 -0.008,-0.473414 l 0.0254,-0.40399 -0.40001,-0.195724 c -0.22034,-0.107502 -0.50416,-0.271742 -0.63153,-0.364963 l -0.23136,-0.169495 -0.33052,0.255598 c -0.26737,0.206571 -0.35297,0.246953 -0.44784,0.210385 -0.15763,-0.06047 -1.22494,-1.44791 -1.20968,-1.571887 0.008,-0.05335 0.15593,-0.210724 0.33221,-0.349921 l 0.32034,-0.253055 -0.1089,-0.265471 c -0.058,-0.1464 -0.15,-0.461524 -0.20297,-0.700516 l -0.0945,-0.435172 -0.39747,-0.07496 c -0.21907,-0.04068 -0.4245,-0.0972 -0.45708,-0.124324 -0.0852,-0.0711 0.14873,-1.979775 0.24873,-2.028191 0.0381,-0.01864 0.25128,-0.02331 0.47348,-0.01017 l 0.40383,0.02331 0.19534,-0.399964 c 0.10763,-0.220047 0.27161,-0.504195 0.36483,-0.631515 l 0.1695,-0.231402 -0.24958,-0.322972 c -0.13729,-0.177672 -0.24407,-0.366574 -0.23772,-0.419838 0.017,-0.123985 1.38642,-1.212215 1.55363,-1.233037 0.10085,-0.01271 0.17458,0.04746 0.3839,0.312293 l 0.25891,0.327887 0.26526,-0.108392 c 0.14618,-0.05949 0.46157,-0.150087 0.70098,-0.201571 l 0.43543,-0.09314 0.075,-0.397634 c 0.0424,-0.218817 0.0975,-0.424354 0.12416,-0.456956 0.0712,-0.08496 1.97974,0.149027 2.02821,0.24869 0.0212,0.03814 0.0212,0.251276 0.008,0.47344 l -0.0254,0.40399 0.40001,0.195639 c 0.22034,0.107502 0.5042,0.271869 0.63153,0.364964 l 0.23136,0.169409 0.33052,-0.255597 c 0.26738,-0.206571 0.35297,-0.246953 0.44789,-0.210385 0.15763,0.06055 1.22489,1.447927 1.20972,1.571874 -0.008,0.05343 -0.15593,0.210808 -0.33221,0.349921 l -0.32034,0.253055 0.1089,0.265343 c 0.058,0.146316 0.15,0.461555 0.20339,0.700533 l 0.0945,0.435177 0.39747,0.07496 c 0.21865,0.04068 0.4245,0.09716 0.45712,0.124324 0.0848,0.07114 -0.14915,1.979766 -0.24873,2.028191 -0.0381,0.01864 -0.25127,0.02331 -0.47348,0.01017 l -0.40382,-0.0233 -0.19534,0.400007 c -0.10763,0.220046 -0.27162,0.504195 -0.36484,0.631489 l -0.16949,0.231487 0.25551,0.330641 c 0.20636,0.267123 0.24704,0.353057 0.21059,0.447847 -0.0606,0.15729 -1.4479,1.22491 -1.57189,1.209715 -0.0534,-0.0064 -0.21059,-0.156105 -0.35,-0.332252 l -0.25297,-0.320344 -0.26526,0.108392 c -0.14619,0.05949 -0.46149,0.150045 -0.70099,0.201571 l -0.43547,0.09314 -0.075,0.397676 c -0.0424,0.21886 -0.097,0.424355 -0.12416,0.456957 -0.0381,0.04403 -0.30043,0.02839 -1.02196,-0.05996 -0.72146,-0.08843 -0.98125,-0.136527 -1.00625,-0.188689 z"
       style="fill:#7893ea;fill-opacity:1;stroke-width:0.0446211" />
    <path
       inkscape:connector-curvature="0"
       id="path863"
       d="m 108.97309,47.058747 c 0.053,-0.433351 0.0936,-0.471864 0.55768,-0.529781 0.39958,-0.0497 0.81882,-0.168731 1.15518,-0.32759 0.33009,-0.155935 0.42861,-0.126443 0.69281,0.207504 l 0.22882,0.289284 0.44721,-0.351658 0.44721,-0.351616 -0.2267,-0.285683 c -0.26271,-0.330938 -0.2678,-0.437423 -0.0339,-0.723097 0.23518,-0.288056 0.45205,-0.666176 0.59692,-1.041831 0.16822,-0.436312 0.21526,-0.46627 0.64883,-0.413142 l 0.35678,0.04373 0.0695,-0.566586 0.0695,-0.566429 -0.35679,-0.04373 c -0.43335,-0.05314 -0.47187,-0.09377 -0.52984,-0.557649 -0.0496,-0.399499 -0.16865,-0.818815 -0.32924,-1.154706 -0.15636,-0.330133 -0.12755,-0.4283 0.20763,-0.692825 l 0.28899,-0.228945 -0.3517,-0.447274 -0.35128,-0.44727 -0.2856,0.226783 c -0.33094,0.262674 -0.43734,0.267801 -0.72306,0.03432 -0.28772,-0.235428 -0.6662,-0.452012 -1.04184,-0.596892 -0.43632,-0.168223 -0.46615,-0.215512 -0.41314,-0.64882 l 0.0436,-0.356743 -0.56653,-0.06945 -0.5665,-0.06945 -0.0436,0.356743 c -0.0534,0.433461 -0.0936,0.47189 -0.55768,0.529776 -0.39958,0.04979 -0.81883,0.16869 -1.15515,0.327591 -0.33009,0.15585 -0.42865,0.126442 -0.69285,-0.207419 l -0.22881,-0.289285 -0.44722,0.351659 -0.44721,0.351616 0.2267,0.285725 c 0.26272,0.330938 0.2678,0.437418 0.0339,0.723093 -0.23517,0.288055 -0.452,0.666184 -0.59687,1.041831 -0.16823,0.436274 -0.21526,0.466274 -0.64883,0.413142 l -0.35678,-0.04373 -0.0695,0.56656 -0.0695,0.566564 0.35679,0.04373 c 0.43339,0.05314 0.47191,0.09377 0.52988,0.55767 0.0496,0.399499 0.16865,0.818798 0.32924,1.154685 0.15763,0.333607 0.12543,0.436079 -0.20805,0.693427 l -0.28899,0.222419 0.34916,0.449304 0.34873,0.449308 0.29196,-0.2253 c 0.33729,-0.260132 0.43966,-0.264877 0.72242,-0.0339 0.28772,0.235343 0.6662,0.452003 1.04184,0.596883 0.43632,0.168181 0.46615,0.21547 0.41315,0.648837 l -0.0441,0.35687 0.56649,0.06945 0.56653,0.06941 z"
       style="fill:#0a2c9d;fill-opacity:1;stroke-width:0.0446211" />
    <path
       inkscape:connector-curvature="0"
       id="path865"
       d="m 108.159,45.597896 c -0.76043,-0.203054 -1.26269,-0.539687 -1.76541,-1.182952 -0.58424,-0.747263 -0.7934,-1.474067 -0.68861,-2.386316 0.0661,-0.576285 0.18517,-0.905311 0.50209,-1.402125 0.41992,-0.658024 0.95925,-1.0792 1.70371,-1.330721 0.54802,-0.185046 0.90154,-0.222462 1.45651,-0.154621 0.55691,0.06826 0.88726,0.189367 1.39104,0.509508 1.03112,0.65549 1.61214,1.87768 1.47354,3.099827 -0.0674,0.604955 -0.18178,0.922427 -0.51814,1.452448 -0.3695,0.582646 -1.00803,1.081544 -1.66274,1.299488 -0.66527,0.221572 -1.30278,0.253733 -1.89364,0.09589 z"
       style="fill:#7893ea;fill-opacity:1;stroke-width:0.0446211" />
    <path
       inkscape:connector-curvature="0"
       id="path867"
       d="m 109.47966,45.136418 c 0.5062,-0.107502 0.76646,-0.230301 1.18879,-0.560158 0.6459,-0.50461 0.95362,-1.042454 1.05104,-1.836984 0.0979,-0.799191 -0.0911,-1.452088 -0.6051,-2.085374 -0.98095,-1.210635 -2.67364,-1.38668 -3.88612,-0.404202 -0.61043,0.49464 -0.91557,1.042857 -1.01023,1.815238 -0.0936,0.764992 0.0682,1.374248 0.53005,1.989351 0.37967,0.506903 0.84163,0.83901 1.42308,1.022827 0.32288,0.102205 0.96929,0.130426 1.30909,0.05907 z"
       style="fill:#0a2c9d;fill-opacity:1;stroke-width:0.0446211" />
    <path
       inkscape:connector-curvature="0"
       id="path869"
       d="m 108.47143,43.95861 c -0.75057,-0.249369 -1.21159,-0.974105 -1.11591,-1.754419 0.0563,-0.459339 0.24407,-0.788124 0.61581,-1.078713 0.37162,-0.290556 0.7362,-0.39327 1.19553,-0.33704 0.45937,0.05632 0.78815,0.243987 1.07875,0.615803 0.29068,0.371828 0.39322,0.736182 0.33644,1.195744 -0.12373,1.010013 -1.15781,1.675452 -2.11118,1.358739 z"
       style="fill:#7893ea;fill-opacity:1;stroke-width:0.0446211" />
  </g>
</svg>
