<?xml version="1.0" encoding="UTF-8"?>
<svg width="146.84mm" height="75.251mm" version="1.1" viewBox="0 0 146.84 75.251" xmlns="http://www.w3.org/2000/svg" xmlns:cc="http://creativecommons.org/ns#" xmlns:dc="http://purl.org/dc/elements/1.1/" xmlns:rdf="http://www.w3.org/1999/02/22-rdf-syntax-ns#">
 <metadata>
  <rdf:RDF>
   <cc:Work rdf:about="">
    <dc:format>image/svg+xml</dc:format>
    <dc:type rdf:resource="http://purl.org/dc/dcmitype/StillImage"/>
    <dc:title/>
   </cc:Work>
  </rdf:RDF>
 </metadata>
 <circle cx="23.994" cy="23.994" r="23.994" fill="#2f3744" fill-opacity=".6215"/>
 <circle cx="112.65" cy="41.058" r="34.193" fill="#2f3744" fill-opacity=".6215"/>
 <g fill="#e8eaec" stroke-linecap="round" stroke-width=".26458">
  <g aria-label="player">
   <path d="m5.8384 24.494c0.14817 0.1397 0.3175 0.22013 0.49953 0.22013 0.45297 0 0.88477-0.41487 0.88477-1.1345 0-0.6477-0.31327-1.0668-0.82127-1.0668-0.22013 0-0.4318 0.11007-0.5969 0.25823h-0.016933l-0.042333-0.20743h-0.508v2.8787h0.6223v-0.61383zm0.021167-0.42333v-0.85937c0.12277-0.13123 0.23283-0.1905 0.35983-0.1905 0.24977 0 0.36407 0.1905 0.36407 0.56727 0 0.4318-0.17357 0.61807-0.38947 0.61807-0.10583 0-0.22437-0.03387-0.33443-0.13547z"/>
   <path d="m7.6599 24.012c0 0.42333 0.14393 0.70273 0.5715 0.70273 0.1397 0 0.24553-0.02117 0.31327-0.0508l-0.0762-0.46143c-0.033867 0.0085-0.0508 0.0085-0.0762 0.0085-0.0508 0-0.11007-0.04233-0.11007-0.17357v-2.3411h-0.6223z"/>
   <path d="m8.7908 24.08c0 0.3556 0.2413 0.635 0.6223 0.635 0.23707 0 0.43603-0.11007 0.61383-0.2667h0.0127l0.04657 0.2159h0.508v-1.2023c0-0.64347-0.29633-0.94827-0.83397-0.94827-0.3302 0-0.63077 0.1143-0.89747 0.27517l0.22013 0.41063c0.2032-0.11853 0.381-0.1905 0.5588-0.1905 0.22437 0 0.3175 0.11853 0.3302 0.3048-0.82973 0.08467-1.1811 0.32597-1.1811 0.76623zm0.59267-0.04657c0-0.16087 0.14393-0.28787 0.58843-0.34713v0.3683c-0.11007 0.11007-0.2032 0.1778-0.34713 0.1778-0.14817 0-0.2413-0.0635-0.2413-0.19897z"/>
   <path d="m11.171 24.969-0.11007 0.47413c0.08467 0.0254 0.16933 0.04233 0.29633 0.04233 0.4953 0 0.71967-0.27093 0.91863-0.8001l0.72813-2.1209h-0.5969l-0.254 0.9017c-0.0508 0.19897-0.09737 0.39793-0.14393 0.5969h-0.01693c-0.055037-0.20743-0.10584-0.4064-0.1651-0.5969l-0.30057-0.9017h-0.62653l0.80857 2.0447-0.02963 0.11007c-0.05503 0.1651-0.16087 0.27517-0.3683 0.27517-0.04657 0-0.1016-0.01693-0.1397-0.0254z"/>
   <path d="m13.176 23.614c0 0.69427 0.46143 1.1007 1.0626 1.1007 0.24977 0 0.52917-0.0889 0.74507-0.23707l-0.20743-0.37677c-0.1524 0.09313-0.29633 0.1397-0.45297 0.1397-0.2794 0-0.49107-0.1397-0.5461-0.4572h1.2573c0.0127-0.0508 0.0254-0.1524 0.0254-0.26247 0-0.5715-0.29633-1.0075-0.89323-1.0075-0.50377 0-0.9906 0.4191-0.9906 1.1007zm0.5969-0.2159c0.04233-0.2794 0.21167-0.41063 0.4064-0.41063 0.24977 0 0.35137 0.16933 0.35137 0.41063z"/>
   <path d="m15.49 24.664h0.6223v-1.2192c0.11007-0.28363 0.3048-0.38523 0.46143-0.38523 0.0889 0 0.1524 0.0127 0.2286 0.03387l0.1016-0.53763c-0.05927-0.0254-0.13123-0.04233-0.24977-0.04233-0.2159 0-0.4445 0.13547-0.5969 0.4191h-0.01693l-0.04233-0.3683h-0.508z"/>
  </g>
  <g transform="scale(.99364 1.0064)" aria-label="full simulation">
   <path d="m9.0081 8.3277c-0.11322-0.041172-0.29849-0.092636-0.5095-0.092636-0.68963 0-0.9418 0.4426-0.9418 0.98297v0.13895l-0.33967 0.025732v0.56096h0.33967v1.9608h0.75653v-1.9608h0.45803v-0.59184h-0.45803v-0.15439c0-0.26247 0.10808-0.3654 0.29335-0.3654 0.082343 0 0.17498 0.020586 0.26247 0.051465z"/>
   <path d="m9.1413 10.937c0 0.63816 0.23674 1.0293 0.79255 1.0293 0.34996 0 0.5867-0.15954 0.80285-0.41686h0.01544l0.05661 0.35511h0.61758v-2.5526h-0.75653v1.688c-0.14925 0.20071-0.26247 0.28306-0.45289 0.28306-0.2213 0-0.31908-0.11837-0.31908-0.48377v-1.4873h-0.75653z"/>
   <path d="m12.092 11.112c0 0.51465 0.17498 0.85431 0.69477 0.85431 0.16983 0 0.2985-0.02573 0.38084-0.06176l-0.09264-0.56096c-0.04117 0.01029-0.06176 0.01029-0.09264 0.01029-0.06176 0-0.13381-0.05147-0.13381-0.211v-2.846h-0.75653z"/>
   <path d="m13.56 11.112c0 0.51465 0.17498 0.85431 0.69477 0.85431 0.16983 0 0.2985-0.02573 0.38084-0.06176l-0.09264-0.56096c-0.04117 0.01029-0.06176 0.01029-0.09264 0.01029-0.06176 0-0.13381-0.05147-0.13381-0.211v-2.846h-0.75653z"/>
   <path d="m15.876 11.611c0.25732 0.211 0.64331 0.3551 0.97783 0.3551 0.68448 0 1.0499-0.36025 1.0499-0.82343 0-0.46833-0.3654-0.64845-0.68962-0.76682-0.26247-0.09778-0.49921-0.15954-0.49921-0.32423 0-0.12866 0.09264-0.20071 0.2882-0.20071 0.18013 0 0.3551 0.082343 0.54038 0.21615l0.33967-0.45289c-0.2213-0.16469-0.5095-0.32423-0.90063-0.32423-0.59184 0-0.97783 0.32423-0.97783 0.7977 0 0.42201 0.3654 0.63302 0.67419 0.75138 0.26247 0.10293 0.51979 0.18013 0.51979 0.34996 0 0.13381-0.09778 0.21615-0.32423 0.21615-0.21615 0-0.42716-0.09264-0.65875-0.26762z"/>
   <path d="m18.76 8.9762c0.25732 0 0.43745-0.16469 0.43745-0.39628s-0.18013-0.39113-0.43745-0.39113c-0.25218 0-0.43745 0.15954-0.43745 0.39113s0.18527 0.39628 0.43745 0.39628zm-0.37569 2.9283h0.75653v-2.5526h-0.75653z"/>
   <path d="m19.802 11.905h0.75653v-1.7241c0.15954-0.16469 0.30879-0.24703 0.4323-0.24703 0.21615 0 0.31393 0.11322 0.31393 0.48377v1.4873h0.75653v-1.7241c0.16469-0.16469 0.30879-0.24703 0.43745-0.24703 0.21615 0 0.31393 0.11322 0.31393 0.48377v1.4873h0.75653v-1.5851c0-0.63816-0.24703-1.0293-0.7977-1.0293-0.33967 0-0.5764 0.19557-0.80285 0.42716-0.12866-0.27276-0.34481-0.42716-0.70506-0.42716-0.33452 0-0.56096 0.18013-0.77197 0.39113h-0.02059l-0.05146-0.32937h-0.61758z"/>
   <path d="m24.189 10.937c0 0.63816 0.23674 1.0293 0.79256 1.0293 0.34996 0 0.5867-0.15954 0.80285-0.41686h0.01544l0.05661 0.35511h0.61758v-2.5526h-0.75653v1.688c-0.14925 0.20071-0.26247 0.28306-0.45289 0.28306-0.2213 0-0.31908-0.11837-0.31908-0.48377v-1.4873h-0.75653z"/>
   <path d="m27.139 11.112c0 0.51465 0.17498 0.85431 0.69477 0.85431 0.16983 0 0.2985-0.02573 0.38084-0.06176l-0.09264-0.56096c-0.04117 0.01029-0.06176 0.01029-0.09264 0.01029-0.06176 0-0.13381-0.05147-0.13381-0.211v-2.846h-0.75653z"/>
   <path d="m28.514 11.194c0 0.4323 0.29335 0.77197 0.75653 0.77197 0.2882 0 0.53009-0.13381 0.74624-0.32423h0.01544l0.05661 0.26247h0.61758v-1.4616c0-0.78226-0.36025-1.1528-1.0139-1.1528-0.40142 0-0.76682 0.13895-1.091 0.33452l0.26762 0.49921c0.24703-0.1441 0.46318-0.23159 0.67933-0.23159 0.27276 0 0.38598 0.1441 0.40142 0.37054-1.0087 0.10293-1.4359 0.39628-1.4359 0.93151zm0.7205-0.05661c0-0.19556 0.17498-0.34996 0.71536-0.42201v0.44774c-0.13381 0.13381-0.24703 0.21615-0.42201 0.21615-0.18013 0-0.29335-0.0772-0.29335-0.24188z"/>
   <path d="m31.454 10.978c0 0.59184 0.24703 0.98812 0.88004 0.98812 0.24703 0 0.4323-0.05146 0.56611-0.09264l-0.11837-0.55067c-0.0669 0.02573-0.15954 0.05147-0.24188 0.05147-0.20071 0-0.32937-0.11837-0.32937-0.40657v-1.0241h0.61243v-0.59184h-0.61243v-0.67933h-0.62787l-0.08749 0.67933-0.39113 0.030879v0.56096h0.34996z"/>
   <path d="m33.697 8.9762c0.25732 0 0.43745-0.16469 0.43745-0.39628s-0.18013-0.39113-0.43745-0.39113c-0.25218 0-0.43745 0.15954-0.43745 0.39113s0.18527 0.39628 0.43745 0.39628zm-0.37569 2.9283h0.75653v-2.5526h-0.75653z"/>
   <path d="m34.589 10.628c0 0.84917 0.59699 1.3381 1.2454 1.3381 0.64331 0 1.2403-0.48891 1.2403-1.3381 0-0.84917-0.59699-1.3381-1.2403-1.3381-0.64845 0-1.2454 0.48891-1.2454 1.3381zm0.77712 0c0-0.4426 0.15439-0.72565 0.46833-0.72565 0.30879 0 0.46833 0.28306 0.46833 0.72565 0 0.4426-0.15954 0.72565-0.46833 0.72565-0.31393 0-0.46833-0.28306-0.46833-0.72565z"/>
   <path d="m37.593 11.905h0.75653v-1.7241c0.16469-0.15954 0.28306-0.24703 0.47347-0.24703 0.21615 0 0.31393 0.11322 0.31393 0.48377v1.4873h0.75653v-1.5851c0-0.63816-0.23674-1.0293-0.79256-1.0293-0.34481 0-0.60214 0.18013-0.81829 0.38598h-0.02059l-0.05147-0.32423h-0.61758z"/>
  </g>
  <g transform="scale(.98975 1.0104)" aria-label="simplified simulation">
   <path d="m83.748 41.701c0.32244 0.2644 0.80611 0.44497 1.2253 0.44497 0.8577 0 1.3156-0.45142 1.3156-1.0318 0-0.58685-0.45787-0.81256-0.86415-0.96088-0.32889-0.12253-0.62554-0.19991-0.62554-0.40628 0-0.16122 0.11608-0.2515 0.36114-0.2515 0.22571 0 0.44497 0.10318 0.67713 0.27085l0.42562-0.5675c-0.2773-0.20636-0.63844-0.40628-1.1285-0.40628-0.74162 0-1.2253 0.40628-1.2253 0.99957 0 0.52881 0.45787 0.79321 0.8448 0.94153 0.32889 0.12898 0.65133 0.22571 0.65133 0.43852 0 0.16767-0.12253 0.27085-0.40628 0.27085-0.27085 0-0.53525-0.11608-0.82545-0.33534z"/>
   <path d="m87.362 38.399c0.32244 0 0.54815-0.20636 0.54815-0.49656 0-0.2902-0.22571-0.49011-0.54815-0.49011-0.31599 0-0.54815 0.19991-0.54815 0.49011 0 0.2902 0.23216 0.49656 0.54815 0.49656zm-0.47077 3.6694h0.94798v-3.1986h-0.94798z"/>
   <path d="m88.667 42.068h0.94798v-2.1604c0.19991-0.20636 0.38693-0.30954 0.5417-0.30954 0.27085 0 0.39338 0.14188 0.39338 0.60619v1.8637h0.94798v-2.1604c0.20636-0.20636 0.38693-0.30954 0.54815-0.30954 0.27085 0 0.39338 0.14188 0.39338 0.60619v1.8637h0.94798v-1.9862c0-0.79966-0.30954-1.2898-0.99957-1.2898-0.42562 0-0.72227 0.24506-1.006 0.53525-0.16122-0.34179-0.43207-0.53525-0.88349-0.53525-0.41918 0-0.70292 0.22571-0.96733 0.49011h-0.0258l-0.06449-0.41273h-0.77386z"/>
   <path d="m95.112 41.81c0.22571 0.21281 0.48366 0.33534 0.76096 0.33534 0.69003 0 1.3478-0.63199 1.3478-1.7283 0-0.98667-0.47722-1.6251-1.2511-1.6251-0.33534 0-0.65778 0.16767-0.90929 0.39338h-0.0258l-0.06449-0.31599h-0.77386v4.3852h0.94798v-0.93508zm0.03224-0.64488v-1.3091c0.18702-0.19992 0.35469-0.2902 0.54815-0.2902 0.38048 0 0.5546 0.2902 0.5546 0.86415 0 0.65778-0.2644 0.94153-0.5933 0.94153-0.16122 0-0.34179-0.05159-0.50946-0.20636z"/>
   <path d="m97.887 41.075c0 0.64488 0.21926 1.0705 0.87059 1.0705 0.21281 0 0.37403-0.03225 0.47722-0.07739l-0.11608-0.70292c-0.05159 0.0129-0.07739 0.0129-0.11608 0.0129-0.07739 0-0.16767-0.06449-0.16767-0.2644v-3.5662h-0.94798z"/>
   <path d="m100.2 38.399c0.32245 0 0.54816-0.20636 0.54816-0.49656 0-0.2902-0.22571-0.49011-0.54816-0.49011-0.31599 0-0.54815 0.19991-0.54815 0.49011 0 0.2902 0.23216 0.49656 0.54815 0.49656zm-0.47076 3.6694h0.94798v-3.1986h-0.94798z"/>
   <path d="m103.48 37.586c-0.14188-0.05159-0.37404-0.11608-0.63844-0.11608-0.86415 0-1.1801 0.5546-1.1801 1.2317v0.17412l-0.42562 0.03224v0.70292h0.42562v2.457h0.94798v-2.457h0.57395v-0.74162h-0.57395v-0.19346c0-0.32889 0.13543-0.45787 0.36759-0.45787 0.10318 0 0.21926 0.0258 0.32889 0.06449z"/>
   <path d="m104.18 38.399c0.32244 0 0.54815-0.20636 0.54815-0.49656 0-0.2902-0.22571-0.49011-0.54815-0.49011-0.31599 0-0.54815 0.19991-0.54815 0.49011 0 0.2902 0.23216 0.49656 0.54815 0.49656zm-0.47076 3.6694h0.94798v-3.1986h-0.94798z"/>
   <path d="m105.3 40.469c0 1.0576 0.70293 1.6767 1.6187 1.6767 0.38049 0 0.80611-0.13543 1.135-0.36114l-0.31599-0.57395c-0.23216 0.14188-0.45142 0.21281-0.69003 0.21281-0.42562 0-0.74807-0.21281-0.8319-0.69648h1.9153c0.0193-0.07739 0.0387-0.23216 0.0387-0.39983 0-0.8706-0.45142-1.5348-1.3607-1.5348-0.76741 0-1.509 0.63844-1.509 1.6767zm0.90929-0.32889c0.0645-0.42562 0.32244-0.62554 0.61909-0.62554 0.38048 0 0.53525 0.25795 0.53525 0.62554z"/>
   <path d="m108.65 40.469c0 1.0447 0.51591 1.6767 1.3091 1.6767 0.30954 0 0.62554-0.16767 0.85125-0.39338h0.0258l0.0645 0.31599h0.77386v-4.5206h-0.94798v1.0899l0.0387 0.49011c-0.21926-0.20636-0.43208-0.33534-0.78676-0.33534-0.67713 0-1.3285 0.63199-1.3285 1.6767zm0.97378-0.0129c0-0.60619 0.27085-0.88994 0.57395-0.88994 0.17412 0 0.36113 0.05159 0.5288 0.20636v1.3091c-0.15477 0.21281-0.31599 0.2902-0.52235 0.2902-0.36759 0-0.5804-0.28375-0.5804-0.91574z"/>
   <path d="m113.57 41.701c0.32244 0.2644 0.8061 0.44497 1.2253 0.44497 0.8577 0 1.3156-0.45142 1.3156-1.0318 0-0.58685-0.45786-0.81256-0.86414-0.96088-0.32889-0.12253-0.62554-0.19991-0.62554-0.40628 0-0.16122 0.11608-0.2515 0.36114-0.2515 0.22571 0 0.44497 0.10318 0.67713 0.27085l0.42562-0.5675c-0.2773-0.20636-0.63844-0.40628-1.1286-0.40628-0.74162 0-1.2253 0.40628-1.2253 0.99957 0 0.52881 0.45787 0.79321 0.8448 0.94153 0.32889 0.12898 0.65133 0.22571 0.65133 0.43852 0 0.16767-0.12253 0.27085-0.40628 0.27085-0.27085 0-0.53525-0.11608-0.82545-0.33534z"/>
   <path d="m117.19 38.399c0.32244 0 0.54815-0.20636 0.54815-0.49656 0-0.2902-0.22571-0.49011-0.54815-0.49011-0.31599 0-0.54815 0.19991-0.54815 0.49011 0 0.2902 0.23216 0.49656 0.54815 0.49656zm-0.47077 3.6694h0.94799v-3.1986h-0.94799z"/>
   <path d="m118.49 42.068h0.94798v-2.1604c0.19992-0.20636 0.38693-0.30954 0.5417-0.30954 0.27086 0 0.39338 0.14188 0.39338 0.60619v1.8637h0.94799v-2.1604c0.20636-0.20636 0.38693-0.30954 0.54815-0.30954 0.27085 0 0.39338 0.14188 0.39338 0.60619v1.8637h0.94798v-1.9862c0-0.79966-0.30955-1.2898-0.99957-1.2898-0.42563 0-0.72227 0.24506-1.006 0.53525-0.16123-0.34179-0.43208-0.53525-0.8835-0.53525-0.41917 0-0.70292 0.22571-0.96732 0.49011h-0.0258l-0.0645-0.41273h-0.77386z"/>
   <path d="m123.99 40.856c0 0.79966 0.29665 1.2898 0.99312 1.2898 0.43853 0 0.73517-0.19992 1.006-0.52236h0.0194l0.0709 0.44497h0.77386v-3.1986h-0.94798v2.1152c-0.18702 0.2515-0.32889 0.35469-0.5675 0.35469-0.2773 0-0.39983-0.14832-0.39983-0.60619v-1.8637h-0.94798z"/>
   <path d="m127.69 41.075c0 0.64488 0.21926 1.0705 0.87059 1.0705 0.21282 0 0.37404-0.03225 0.47722-0.07739l-0.11608-0.70292c-0.0516 0.0129-0.0774 0.0129-0.11608 0.0129-0.0774 0-0.16767-0.06449-0.16767-0.2644v-3.5662h-0.94798z"/>
   <path d="m129.41 41.178c0 0.5417 0.36758 0.96733 0.94798 0.96733 0.36113 0 0.66423-0.16767 0.93508-0.40628h0.0194l0.0709 0.32889h0.77386v-1.8315c0-0.98022-0.45142-1.4445-1.2704-1.4445-0.50301 0-0.96087 0.17412-1.3672 0.41918l0.33534 0.62554c0.30954-0.18057 0.5804-0.2902 0.85125-0.2902 0.34179 0 0.48366 0.18057 0.50301 0.46432-1.264 0.12898-1.7992 0.49656-1.7992 1.1672zm0.90284-0.07094c0-0.24506 0.21926-0.43852 0.89639-0.52881v0.56105c-0.16767 0.16767-0.30955 0.27085-0.52881 0.27085-0.22571 0-0.36758-0.09673-0.36758-0.3031z"/>
   <path d="m133.09 40.907c0 0.74162 0.30955 1.2382 1.1028 1.2382 0.30954 0 0.5417-0.06449 0.70937-0.11608l-0.14832-0.69003c-0.0838 0.03225-0.19992 0.06449-0.3031 0.06449-0.2515 0-0.41273-0.14832-0.41273-0.50946v-1.2833h0.76742v-0.74162h-0.76742v-0.85125h-0.78676l-0.10963 0.85125-0.49011 0.03869v0.70292h0.43852z"/>
   <path d="m135.9 38.399c0.32245 0 0.54815-0.20636 0.54815-0.49656 0-0.2902-0.2257-0.49011-0.54815-0.49011-0.31599 0-0.54815 0.19991-0.54815 0.49011 0 0.2902 0.23216 0.49656 0.54815 0.49656zm-0.47076 3.6694h0.94798v-3.1986h-0.94798z"/>
   <path d="m137.02 40.469c0 1.0641 0.74807 1.6767 1.5606 1.6767 0.80611 0 1.5542-0.61264 1.5542-1.6767 0-1.0641-0.74807-1.6767-1.5542-1.6767-0.81255 0-1.5606 0.61264-1.5606 1.6767zm0.97378 0c0-0.5546 0.19346-0.90929 0.58684-0.90929 0.38693 0 0.58685 0.35469 0.58685 0.90929 0 0.5546-0.19992 0.90929-0.58685 0.90929-0.39338 0-0.58684-0.35469-0.58684-0.90929z"/>
   <path d="m140.79 42.068h0.94798v-2.1604c0.20636-0.19992 0.35468-0.30954 0.59329-0.30954 0.27085 0 0.39338 0.14188 0.39338 0.60619v1.8637h0.94798v-1.9862c0-0.79966-0.29664-1.2898-0.99312-1.2898-0.43207 0-0.75452 0.22571-1.0254 0.48366h-0.0258l-0.0645-0.40628h-0.77386z"/>
  </g>
 </g>
</svg>
