<?xml version="1.0" encoding="UTF-8" standalone="no"?>
<svg
   xmlns:dc="http://purl.org/dc/elements/1.1/"
   xmlns:cc="http://creativecommons.org/ns#"
   xmlns:rdf="http://www.w3.org/1999/02/22-rdf-syntax-ns#"
   xmlns:svg="http://www.w3.org/2000/svg"
   xmlns="http://www.w3.org/2000/svg"
   xmlns:sodipodi="http://sodipodi.sourceforge.net/DTD/sodipodi-0.dtd"
   xmlns:inkscape="http://www.inkscape.org/namespaces/inkscape"
   inkscape:version="1.0rc1 (09960d6f05, 2020-04-09)"
   sodipodi:docname="chapter_speedrunning.svg"
   id="svg282"
   viewBox="0 0 169.27781 73.383662"
   version="1.1"
   height="277.34772"
   width="639.7851">
  <defs
     id="defs286" />
  <sodipodi:namedview
     inkscape:document-rotation="0"
     inkscape:current-layer="svg282"
     inkscape:window-maximized="1"
     inkscape:window-y="-8"
     inkscape:window-x="-8"
     inkscape:cy="249.7407"
     inkscape:cx="278.44698"
     inkscape:zoom="1.4142136"
     showgrid="false"
     id="namedview284"
     inkscape:window-height="1377"
     inkscape:window-width="2560"
     inkscape:pageshadow="2"
     inkscape:pageopacity="0"
     guidetolerance="10"
     gridtolerance="10"
     objecttolerance="10"
     borderopacity="1"
     bordercolor="#666666"
     pagecolor="#ffffff" />
  <metadata
     id="metadata2">
    <rdf:RDF>
      <cc:Work
         rdf:about="">
        <dc:format>image/svg+xml</dc:format>
        <dc:type
           rdf:resource="http://purl.org/dc/dcmitype/StillImage" />
        <dc:title />
      </cc:Work>
    </rdf:RDF>
  </metadata>
  <g
     id="text1296"
     style="font-weight:bold;font-size:2.9879px;line-height:1.25;font-family:'Segoe UI';-inkscape-font-specification:'Segoe UI Bold';fill:#a0f1c6;fill-opacity:1;stroke:#009244;stroke-width:0.264199;stroke-linecap:square;stroke-miterlimit:4;stroke-dasharray:0.528399, 1.0568;stroke-dashoffset:0;stroke-opacity:1"
     transform="matrix(0.20918753,0,0,0.20943205,64.300851,-22.738745)"
     aria-label="00010 01101 01101">
    <g
       style="stroke:none"
       id="g82"
       stroke-width="0.13769"
       transform="matrix(34.719072,0,0,34.678536,-3578.1994,-3229.5825)">
      <rect
         id="rect4-4"
         style="stroke:none;paint-order:normal"
         fill="#1d232d"
         height="9.7115002"
         width="23.308001"
         y="96.454002"
         x="94.208" />
      <g
         style="stroke:none"
         id="g64"
         fill="#7b8694">
        <path
           style="stroke:none"
           inkscape:connector-curvature="0"
           id="path6"
           d="m 94.596,96.26 h 1.1654 v 0.19408 H 94.596 Z" />
        <path
           style="stroke:none"
           inkscape:connector-curvature="0"
           id="path8"
           d="m 96.538,96.26 h 1.1654 v 0.19408 H 96.538 Z" />
        <path
           style="stroke:none"
           inkscape:connector-curvature="0"
           id="path10"
           d="m 98.481,96.26 h 1.1654 v 0.19408 H 98.481 Z" />
        <path
           style="stroke:none"
           inkscape:connector-curvature="0"
           id="path12"
           d="m 100.42,96.26 h 1.1654 v 0.19408 H 100.42 Z" />
        <path
           style="stroke:none"
           inkscape:connector-curvature="0"
           id="path14"
           d="m 102.37,96.26 h 1.1654 v 0.19408 H 102.37 Z" />
        <path
           style="stroke:none"
           inkscape:connector-curvature="0"
           id="path16"
           d="m 104.31,96.26 h 1.1654 v 0.19408 H 104.31 Z" />
        <path
           style="stroke:none"
           inkscape:connector-curvature="0"
           id="path18"
           d="m 106.25,96.26 h 1.1654 v 0.19408 H 106.25 Z" />
        <path
           style="stroke:none"
           inkscape:connector-curvature="0"
           id="path20"
           d="m 108.19,96.26 h 1.1654 v 0.19408 H 108.19 Z" />
        <path
           inkscape:connector-curvature="0"
           style="fill:#7b8694;fill-opacity:1;stroke:none"
           id="path22-8"
           d="m 110.13,96.26 h 1.1654 v 0.19408 H 110.13 Z" />
        <path
           style="stroke:none"
           inkscape:connector-curvature="0"
           id="path24-9"
           d="m 112.08,96.26 h 1.1654 v 0.19408 H 112.08 Z" />
        <path
           style="stroke:none"
           inkscape:connector-curvature="0"
           id="path26-1"
           d="m 114.02,96.26 h 1.1654 v 0.19408 H 114.02 Z" />
        <path
           style="stroke:none"
           inkscape:connector-curvature="0"
           id="path28-9"
           d="m 115.96,96.26 h 1.1654 v 0.19408 H 115.96 Z" />
        <path
           style="stroke:none"
           inkscape:connector-curvature="0"
           id="path30"
           d="m 115.96,106.17 h 1.1654 v 0.19405 H 115.96 Z" />
        <path
           style="stroke:none"
           inkscape:connector-curvature="0"
           id="path32"
           d="m 114.02,106.17 h 1.1654 v 0.19405 H 114.02 Z" />
        <path
           style="stroke:none"
           inkscape:connector-curvature="0"
           id="path34"
           d="m 112.08,106.17 h 1.1654 v 0.19405 H 112.08 Z" />
        <path
           style="stroke:none"
           inkscape:connector-curvature="0"
           id="path36"
           d="m 110.13,106.17 h 1.1654 v 0.19405 H 110.13 Z" />
        <path
           style="stroke:none"
           inkscape:connector-curvature="0"
           id="path38"
           d="m 108.19,106.17 h 1.1654 v 0.19405 H 108.19 Z" />
        <path
           style="stroke:none"
           inkscape:connector-curvature="0"
           id="path40"
           d="m 106.25,106.17 h 1.1654 v 0.19405 H 106.25 Z" />
        <path
           style="stroke:none"
           inkscape:connector-curvature="0"
           id="path42"
           d="m 104.31,106.17 h 1.1654 v 0.19405 H 104.31 Z" />
        <path
           style="stroke:none"
           inkscape:connector-curvature="0"
           id="path44"
           d="m 102.37,106.17 h 1.1654 v 0.19405 H 102.37 Z" />
        <path
           style="stroke:none"
           inkscape:connector-curvature="0"
           id="path46"
           d="m 100.42,106.17 h 1.1654 v 0.19405 H 100.42 Z" />
        <path
           style="stroke:none"
           inkscape:connector-curvature="0"
           id="path48"
           d="m 98.481,106.17 h 1.1654 v 0.19405 H 98.481 Z" />
        <path
           style="stroke:none"
           inkscape:connector-curvature="0"
           id="path50"
           d="m 96.538,106.17 h 1.1654 v 0.19405 H 96.538 Z" />
        <path
           style="stroke:none"
           inkscape:connector-curvature="0"
           id="path52"
           d="m 94.596,106.17 h 1.1654 v 0.19405 H 94.596 Z" />
      </g>
    </g>
    <g
       id="g30"
       stroke-miterlimit="40"
       transform="matrix(21.508077,0,0,21.482965,-2763.6578,-1617.703)"
       style="stroke:none;stroke-width:0.339122;stroke-linecap:square;stroke-miterlimit:40;stroke-dashoffset:1.2">
      <circle
         id="circle4"
         r="0"
         cy="82.565002"
         cx="140.85001"
         style="fill:#e9e56f;stroke:none;stroke-width:0.936682" />
      <circle
         id="circle6"
         r="0"
         cy="82.565002"
         cx="140.74001"
         style="fill:#a56b36;stroke:none;stroke-width:0.794332" />
      <circle
         id="circle8"
         r="0"
         cy="82.300003"
         cx="139.95"
         style="fill:#a56b36;stroke:none;stroke-width:0.794332" />
      <rect
         id="rect10-6"
         height="2.6458001"
         width="3.5278001"
         y="89.830002"
         x="129.50999"
         style="fill:#a0f1c6;stroke:none;stroke-width:1.14096" />
      <rect
         id="rect12-0"
         height="1.7639"
         width="4.4096999"
         y="88.066002"
         x="128.62"
         style="fill:#a0f1c6;stroke:none;stroke-width:1.15385" />
      <rect
         id="rect14-1"
         height="2.6458001"
         width="3.5278001"
         y="89.830002"
         x="-136.56"
         transform="scale(-1,1)"
         style="fill:#47d58a;stroke:none;stroke-width:1.14096" />
      <rect
         id="rect16-1"
         height="2.6458001"
         width="26.458"
         y="91.594002"
         x="119.81"
         style="fill:#a56b36;stroke:none;stroke-width:1.7114" />
      <rect
         id="rect18-6"
         height="1.7639"
         width="4.4096999"
         y="88.066002"
         x="-137.44"
         transform="scale(-1,1)"
         style="fill:#47d58a;stroke:none;stroke-width:1.15385" />
      <rect
         id="rect20-3"
         height="0.17639001"
         width="7.0556002"
         y="89.830002"
         x="-136.56"
         transform="scale(-1,1)"
         style="fill:#009244;stroke:none;stroke-width:0.416625" />
      <path
         id="path22"
         d="m 134.67,83.776 c 0,1.2321 -0.62869,1.8118 -1.7146,1.8118 -0.78912,0 -1.1431,-0.81119 -1.1431,-1.8118 0,-1.0007 0.35395,-1.8118 1.1431,-1.8118 1.0288,0 1.7146,0.57979 1.7146,1.8118"
         inkscape:connector-curvature="0"
         style="fill:#a56b36;stroke:none;stroke-width:0.624463" />
      <path
         id="path24"
         d="m 134.38,83.776 a 1.4288,1.8118 0 0 1 -1.4288,1.8118 1.4288,1.8118 0 0 1 -1.4288,-1.8118 1.4288,1.8118 0 0 1 1.4288,-1.8118 1.4288,1.8118 0 0 1 1.4288,1.8118 z"
         inkscape:connector-curvature="0"
         style="fill:#e9e56f;stroke:none;stroke-width:0.624463" />
      <path
         id="path26"
         d="m 134.09,83.776 a 1.2117,1.5365 0 0 1 -1.2117,1.5365 1.2117,1.5365 0 0 1 -1.2117,-1.5365 1.2117,1.5365 0 0 1 1.2117,-1.5365 1.2117,1.5365 0 0 1 1.2117,1.5365"
         inkscape:connector-curvature="0"
         style="fill:#a56b36;stroke:none;stroke-width:0.529555" />
      <path
         id="path28"
         d="m 252.9,339.13 -9.7702,-1.9403 -7.1372,6.9485 -1.1738,-9.8916 -8.8139,-4.6407 9.0447,-4.1731 1.6899,-9.8166 6.7638,7.3125 9.8583,-1.4263 -4.8645,8.6924 z"
         transform="matrix(0.055206,0.018758,-0.014792,0.070004,124.46,56.154)"
         inkscape:connector-curvature="0"
         style="fill:#e9e56f;stroke:none;stroke-width:9.70273" />
    </g>
  </g>
</svg>
