<?xml version="1.0" encoding="UTF-8"?>
<svg width="649.64" height="320" version="1.1" viewBox="0 0 171.89 84.67" xmlns="http://www.w3.org/2000/svg" xmlns:cc="http://creativecommons.org/ns#" xmlns:dc="http://purl.org/dc/elements/1.1/" xmlns:rdf="http://www.w3.org/1999/02/22-rdf-syntax-ns#">
 <metadata>
  <rdf:RDF>
   <cc:Work rdf:about="">
    <dc:format>image/svg+xml</dc:format>
    <dc:type rdf:resource="http://purl.org/dc/dcmitype/StillImage"/>
    <dc:title/>
   </cc:Work>
  </rdf:RDF>
 </metadata>
 <rect x="-.00034381" y="1.7764e-15" width="171.89" height="38.366" fill="#2f3744" fill-opacity=".50196"/>
 <path d="m14.278 12.452-3.6949 2.1332-3.6949-2.1332v-4.2664l3.6949-2.1332 3.6949 2.1332z" fill="#1d232d" stroke="#6f8ce9" stroke-linecap="round" stroke-width=".26459"/>
 <path d="m30.678 10.452h-14.983" fill="none" stroke="#7b8694" stroke-linecap="round" stroke-width=".26459"/>
 <g transform="matrix(-.004405 0 0 -.0044804 16.696 11.657)" fill="#7b8694" stroke-width="59.559">
  <g fill="#7b8694" stroke-width="59.559">
   <path d="m486.41 221.41-364.07-208.5c-52.938-30.318-95.852-5.44-95.852 55.563v415.65c0 61.004 42.914 85.882 95.852 55.563l364.07-208.49c52.938-30.317 52.938-79.473 0-109.79z" fill="#7b8694" stroke-width="59.559"/>
  </g>
 </g>
 <path d="m38.092 12.452-3.6949 2.1332-3.6949-2.1332v-4.2664l3.6949-2.1332 3.6949 2.1332z" fill="#1d232d" stroke="#6f8ce9" stroke-linecap="round" stroke-width=".26459"/>
 <g fill="#e8eaec" stroke-linecap="round" stroke-width=".26459">
  <g aria-label="#cab">
   <path d="m7.2744 5.1839h0.20003l0.092608-0.75568h0.48897l-0.088903 0.75568h0.19633l0.092608-0.75568h0.3408v-0.21115h-0.31487l0.066678-0.54824h0.32228v-0.21485h-0.30005l0.088904-0.67789h-0.19633l-0.088904 0.67789h-0.49267l0.085199-0.67789h-0.19633l-0.085199 0.67789h-0.3408v0.21485h0.31487l-0.066678 0.54824h-0.32227v0.21115h0.29634zm0.31857-0.96682 0.066678-0.54824h0.48897l-0.066678 0.54824z"/>
   <path d="m8.9491 4.2875c0 0.59639 0.36673 0.94089 0.84458 0.94089 0.21485 0 0.42229-0.088903 0.58528-0.23337l-0.13706-0.20003c-0.10742 0.096312-0.25189 0.18151-0.42229 0.18151-0.32968 0-0.55565-0.27782-0.55565-0.689 0-0.41488 0.23708-0.69641 0.56306-0.69641 0.14447 0 0.2556 0.066678 0.36302 0.15929l0.15188-0.19633c-0.12224-0.11483-0.28894-0.21485-0.52601-0.21485-0.46304 0-0.86681 0.3445-0.86681 0.9483z"/>
   <path d="m10.643 4.7172c0 0.32227 0.22596 0.51119 0.52972 0.51119 0.22226 0 0.42229-0.11854 0.59639-0.2593h0.0074l0.02593 0.21485h0.25189v-1.1039c0-0.44822-0.18522-0.74086-0.62603-0.74086-0.28894 0-0.54083 0.12595-0.70752 0.23337l0.12224 0.21115c0.14076-0.096312 0.32598-0.19262 0.53712-0.19262 0.29264 0 0.37043 0.22226 0.37043 0.45193-0.76679 0.085199-1.1076 0.28153-1.1076 0.67418zm0.30005-0.022226c0-0.22967 0.20374-0.37784 0.80754-0.45193v0.50008c-0.1741 0.15558-0.31857 0.24078-0.49267 0.24078-0.17781 0-0.31487-0.085199-0.31487-0.28894z"/>
   <path d="m12.628 5.1839h0.24448l0.02593-0.17781h0.01111c0.15928 0.14076 0.3482 0.22226 0.5149 0.22226 0.41118 0 0.7779-0.35932 0.7779-0.97423 0-0.55565-0.24819-0.91496-0.71493-0.91496-0.20003 0-0.40006 0.10742-0.56306 0.25189l0.0074-0.32598v-0.71864h-0.30375zm0.30375-0.40007v-0.9446c0.1704-0.15929 0.32968-0.24448 0.48156-0.24448 0.3408 0 0.47415 0.26671 0.47415 0.66307 0 0.44452-0.21855 0.71493-0.5149 0.71493-0.11854 0-0.28153-0.05186-0.44081-0.18892z"/>
  </g>
  <g aria-label="#06c">
   <path d="m31.088 5.1839h0.20003l0.09261-0.75568h0.48897l-0.0889 0.75568h0.19633l0.09261-0.75568h0.34079v-0.21115h-0.31487l0.06668-0.54824h0.32228v-0.21485h-0.30005l0.0889-0.67789h-0.19633l-0.0889 0.67789h-0.49267l0.0852-0.67789h-0.19633l-0.0852 0.67789h-0.3408v0.21485h0.31487l-0.06668 0.54824h-0.32228v0.21115h0.29634zm0.31857-0.96682 0.06668-0.54824h0.48897l-0.06668 0.54824z"/>
   <path d="m33.514 5.2284c0.47045 0 0.75568-0.44081 0.75568-1.2335s-0.28523-1.2187-0.75568-1.2187c-0.47415 0-0.75938 0.426-0.75938 1.2187s0.28523 1.2335 0.75938 1.2335zm0-0.24448c-0.27782 0-0.46304-0.29634-0.46304-0.98905 0-0.69271 0.18522-0.97423 0.46304-0.97423 0.27412 0 0.45933 0.28153 0.45933 0.97423 0 0.69271-0.18522 0.98905-0.45933 0.98905z"/>
   <path d="m35.423 4.9876c-0.30005 0-0.48156-0.24819-0.5186-0.70752 0.15929-0.22226 0.3445-0.31116 0.49267-0.31116 0.29264 0 0.43711 0.19262 0.43711 0.50008 0 0.31116-0.17781 0.5186-0.41118 0.5186zm0.65566-1.9596c-0.13336-0.14447-0.31487-0.25189-0.57046-0.25189-0.47045 0-0.90015 0.36673-0.90015 1.315 0 0.75938 0.35191 1.1372 0.81495 1.1372 0.38154 0 0.70011-0.30746 0.70011-0.75938 0-0.48526-0.26671-0.72975-0.67418-0.72975-0.19262 0-0.40377 0.11483-0.55194 0.29634 0.01482-0.74827 0.29264-1.0039 0.62232-1.0039 0.14817 0 0.29264 0.070382 0.38895 0.18522z"/>
   <path d="m36.438 4.2875c0 0.59639 0.36673 0.94089 0.84458 0.94089 0.21485 0 0.42229-0.088903 0.58528-0.23337l-0.13706-0.20003c-0.10742 0.096312-0.25189 0.18151-0.42229 0.18151-0.32968 0-0.55565-0.27782-0.55565-0.689 0-0.41488 0.23708-0.69641 0.56306-0.69641 0.14447 0 0.2556 0.066678 0.36302 0.15929l0.15188-0.19633c-0.12224-0.11483-0.28894-0.21485-0.52601-0.21485-0.46304 0-0.86681 0.3445-0.86681 0.9483z"/>
  </g>
  <g stroke="#cf2f25" aria-label="A">
   <path d="m13.388 15.043 0.11854-0.37043c0.0852-0.27041 0.16299-0.53712 0.24078-0.81865h0.01482c0.07779 0.28153 0.15558 0.54824 0.24078 0.81865l0.11483 0.37043zm1.0409 0.98905h0.32598l-0.82236-2.43h-0.3482l-0.82236 2.43h0.31487l0.23337-0.74086h0.88533z" fill="#e8eaec" stroke="none"/>
  </g>
  <g stroke="#cf2f25" aria-label="B">
   <path d="m36.898 16.032h0.7779c0.54083 0 0.91867-0.23337 0.91867-0.71123 0-0.33339-0.20744-0.52601-0.56306-0.58158v-0.01482c0.28894-0.07409 0.426-0.28894 0.426-0.52972 0-0.426-0.3445-0.59269-0.83717-0.59269h-0.72234zm0.31116-1.3928v-0.79272h0.37414c0.37414 0 0.57046 0.11113 0.57046 0.37414 0 0.27041-0.1741 0.41859-0.58528 0.41859zm0 1.1483v-0.91867h0.42229c0.426 0 0.65937 0.13706 0.65937 0.43711 0 0.32968-0.24448 0.48156-0.65937 0.48156z" fill="#e8eaec" stroke="none"/>
  </g>
 </g>
 <g>
  <g transform="matrix(-.004405 0 0 -.0044804 106.66 11.657)" fill="#6f8ce9" stroke-width="59.559">
   <g fill="#6f8ce9" stroke-width="59.559">
    <path d="m486.41 221.41-364.07-208.5c-52.938-30.318-95.852-5.44-95.852 55.563v415.65c0 61.004 42.914 85.882 95.852 55.563l364.07-208.49c52.938-30.317 52.938-79.473 0-109.79z" fill="#6f8ce9" stroke-width="59.559"/>
   </g>
  </g>
  <path d="m38.092 32.297-3.6949 2.1332-3.6949-2.1332v-4.2664l3.6949-2.1332 3.6949 2.1332z" fill="#1d232d" stroke="#6f8ce9" stroke-linecap="round" stroke-width=".26459"/>
  <g fill="#e8eaec" stroke-linecap="round" stroke-width=".26459" aria-label="BA">
   <path d="m36.898 35.877h0.7779c0.54083 0 0.91867-0.23337 0.91867-0.71123 0-0.33339-0.20744-0.52601-0.56306-0.58158v-0.01482c0.28894-0.07409 0.426-0.28894 0.426-0.52972 0-0.426-0.3445-0.59269-0.83717-0.59269h-0.72234zm0.31116-1.3928v-0.79272h0.37414c0.37414 0 0.57046 0.11113 0.57046 0.37414 0 0.27041-0.1741 0.41859-0.58528 0.41859zm0 1.1483v-0.91867h0.42229c0.426 0 0.65937 0.13706 0.65937 0.43711 0 0.32968-0.24448 0.48156-0.65937 0.48156z"/>
   <path d="m39.365 34.888 0.11854-0.37043c0.0852-0.27041 0.16299-0.53712 0.24078-0.81865h0.01482c0.07779 0.28153 0.15558 0.54824 0.24078 0.81865l0.11483 0.37043zm1.0409 0.98905h0.32598l-0.82236-2.43h-0.3482l-0.82236 2.43h0.31487l0.23337-0.74086h0.88533z"/>
  </g>
 </g>
 <path d="m54.491 30.296h-14.983" fill="none" stroke="#7b8694" stroke-linecap="round" stroke-width=".26459"/>
 <g>
  <g transform="matrix(-.004405 0 0 -.0044804 40.51 31.501)" fill="#7b8694" stroke-width="59.559">
   <g fill="#7b8694" stroke-width="59.559">
    <path d="m486.41 221.41-364.07-208.5c-52.938-30.318-95.852-5.44-95.852 55.563v415.65c0 61.004 42.914 85.882 95.852 55.563l364.07-208.49c52.938-30.317 52.938-79.473 0-109.79z" fill="#7b8694" stroke-width="59.559"/>
   </g>
  </g>
  <g stroke-width=".26459">
   <g stroke-linecap="round">
    <path d="m61.905 32.297-3.6948 2.1332-3.6949-2.1332v-4.2664l3.6949-2.1332 3.6948 2.1332z" fill="#1d232d" stroke="#6f8ce9"/>
    <g fill="#e8eaec" aria-label="#a8c">
     <path d="m55.166 25.028h0.20003l0.09261-0.75568h0.48897l-0.0889 0.75568h0.19633l0.09261-0.75568h0.3408v-0.21115h-0.31487l0.06668-0.54824h0.32228v-0.21485h-0.30005l0.0889-0.67789h-0.19633l-0.0889 0.67789h-0.49267l0.0852-0.67789h-0.19634l-0.0852 0.67789h-0.3408v0.21485h0.31487l-0.06668 0.54824h-0.32228v0.21115h0.29634zm0.31857-0.96682 0.06668-0.54824h0.48897l-0.06668 0.54824z"/>
     <path d="m56.885 24.562c0 0.32228 0.22596 0.5112 0.52972 0.5112 0.22226 0 0.42229-0.11854 0.59639-0.2593h0.0074l0.02593 0.21485h0.25189v-1.1039c0-0.44822-0.18522-0.74086-0.62603-0.74086-0.28894 0-0.54083 0.12595-0.70752 0.23337l0.12224 0.21114c0.14076-0.09631 0.32598-0.19262 0.53712-0.19262 0.29264 0 0.37043 0.22226 0.37043 0.45193-0.76679 0.0852-1.1076 0.28153-1.1076 0.67418zm0.30005-0.02223c0-0.22967 0.20374-0.37784 0.80754-0.45192v0.50008c-0.1741 0.15558-0.31857 0.24078-0.49267 0.24078-0.17781 0-0.31487-0.0852-0.31487-0.28894z"/>
     <path d="m58.992 24.395c0-0.21485 0.14076-0.38895 0.32968-0.5149 0.3408 0.13706 0.64085 0.24819 0.64085 0.55194 0 0.24448-0.18892 0.41488-0.46304 0.41488-0.28894 0-0.50749-0.18892-0.50749-0.45193zm0.66678-0.65566c-0.28523-0.11113-0.54453-0.22967-0.54453-0.5112 0-0.22967 0.16299-0.38154 0.38154-0.38154 0.2593 0 0.41118 0.18522 0.41118 0.41859 0 0.1741-0.0889 0.33339-0.24819 0.47415zm-0.9409 0.6853c0 0.37414 0.32968 0.64825 0.7742 0.64825 0.45934 0 0.76309-0.27782 0.76309-0.62973 0-0.31857-0.20003-0.48526-0.41118-0.60751v-0.01482c0.14447-0.11113 0.32598-0.32228 0.32598-0.57046 0-0.36673-0.2556-0.62973-0.66678-0.62973-0.38154 0-0.67048 0.24448-0.67048 0.60751 0 0.24819 0.15558 0.42229 0.32968 0.54453v0.01482c-0.22226 0.11854-0.44452 0.32968-0.44452 0.63714z"/>
     <path d="m60.574 24.132c0 0.59639 0.36673 0.9409 0.84458 0.9409 0.21485 0 0.42229-0.0889 0.58528-0.23337l-0.13706-0.20003c-0.10742 0.09631-0.25189 0.18151-0.42229 0.18151-0.32968 0-0.55565-0.27782-0.55565-0.689 0-0.41488 0.23708-0.69641 0.56306-0.69641 0.14447 0 0.2556 0.06668 0.36302 0.15928l0.15188-0.19633c-0.12224-0.11483-0.28894-0.21485-0.52601-0.21485-0.46304 0-0.86681 0.3445-0.86681 0.9483z"/>
    </g>
    <g fill="#e8eaec" aria-label="BB">
     <path d="m60.711 35.877h0.7779c0.54083 0 0.91867-0.23337 0.91867-0.71123 0-0.33339-0.20744-0.52601-0.56306-0.58158v-0.01482c0.28894-0.07409 0.426-0.28894 0.426-0.52972 0-0.426-0.3445-0.59269-0.83717-0.59269h-0.72234zm0.31116-1.3928v-0.79272h0.37414c0.37414 0 0.57046 0.11113 0.57046 0.37414 0 0.27041-0.1741 0.41859-0.58528 0.41859zm0 1.1483v-0.91867h0.42229c0.426 0 0.65937 0.13706 0.65937 0.43711 0 0.32968-0.24448 0.48156-0.65937 0.48156z"/>
     <path d="m62.874 35.877h0.7779c0.54083 0 0.91867-0.23337 0.91867-0.71123 0-0.33339-0.20744-0.52601-0.56306-0.58158v-0.01482c0.28894-0.07409 0.426-0.28894 0.426-0.52972 0-0.426-0.3445-0.59269-0.83717-0.59269h-0.72234zm0.31116-1.3928v-0.79272h0.37414c0.37414 0 0.57046 0.11113 0.57046 0.37414 0 0.27041-0.1741 0.41859-0.58528 0.41859zm0 1.1483v-0.91867h0.42229c0.426 0 0.65937 0.13706 0.65937 0.43711 0 0.32968-0.24448 0.48156-0.65937 0.48156z"/>
    </g>
   </g>
   <path d="m80.965 27.678c-1.4503 0-2.6178 1.1675-2.6178 2.6178 0 1.4503 1.1675 2.6178 2.6178 2.6178h5.8211c1.4503 0 2.6178-1.1675 2.6178-2.6178 0-1.4503-1.1675-2.6178-2.6178-2.6178z" fill="#1d232d" stroke="#7893ea"/>
  </g>
 </g>
 <path d="m78.304 30.296h-14.983" fill="none" stroke="#6f8ce9" stroke-linecap="round" stroke-width=".26459"/>
 <g transform="matrix(-.004405 0 0 -.0044804 64.323 31.501)" fill="#6f8ce9" stroke-width="59.559">
  <g fill="#6f8ce9" stroke-width="59.559">
   <path d="m486.41 221.41-364.07-208.5c-52.938-30.318-95.852-5.44-95.852 55.563v415.65c0 61.004 42.914 85.882 95.852 55.563l364.07-208.49c52.938-30.317 52.938-79.473 0-109.79z" fill="#6f8ce9" stroke-width="59.559"/>
  </g>
 </g>
 <g fill="#e8eaec" stroke-linecap="round" stroke-width=".26459" aria-label="dev">
  <path d="m81.11 30.529c0 0.6001 0.29264 0.9409 0.74457 0.9409 0.21114 0 0.40377-0.11854 0.54453-0.2556h0.01111l0.02593 0.21115h0.25189v-2.6375h-0.30746v0.69271l0.01482 0.30746c-0.15928-0.12965-0.29634-0.20744-0.50379-0.20744-0.41118 0-0.78161 0.36302-0.78161 0.9483zm0.31487-0.0037c0-0.41118 0.22967-0.689 0.5186-0.689 0.14817 0 0.28523 0.05186 0.43711 0.18892v0.9409c-0.14817 0.16669-0.29264 0.24819-0.45934 0.24819-0.31487 0-0.49638-0.2593-0.49638-0.689z"/>
  <path d="m83.161 30.529c0 0.58898 0.38154 0.9409 0.8631 0.9409 0.24448 0 0.43711-0.0852 0.59269-0.18522l-0.10742-0.20003c-0.13336 0.0852-0.27782 0.14076-0.44822 0.14076-0.3445 0-0.57787-0.24448-0.6001-0.63344h1.215c0.0074-0.04445 0.01111-0.10372 0.01111-0.16669 0-0.5149-0.2593-0.84458-0.71864-0.84458-0.41118 0-0.80754 0.35932-0.80754 0.9483zm0.29634-0.13706c0.03704-0.36302 0.26671-0.57046 0.5186-0.57046 0.28153 0 0.44452 0.20374 0.44452 0.57046z"/>
  <path d="m85.543 31.426h0.35561l0.63714-1.8003h-0.30005l-0.3408 1.0224c-0.05186 0.17781-0.11113 0.35932-0.16299 0.52972h-0.01482c-0.05557-0.1704-0.11483-0.35191-0.16669-0.52972l-0.34079-1.0224h-0.31487z"/>
 </g>
 <path d="m34.381 25.646v-9.6907" fill="none" stroke="#7b8694" stroke-linecap="round" stroke-width=".26459"/>
 <g>
  <g transform="matrix(0 -.004405 .0044804 0 33.176 16.956)" fill="#7b8694" stroke-width="59.559">
   <g fill="#7b8694" stroke-width="59.559">
    <path d="m486.41 221.41-364.07-208.5c-52.938-30.318-95.852-5.44-95.852 55.563v415.65c0 61.004 42.914 85.882 95.852 55.563l364.07-208.49c52.938-30.317 52.938-79.473 0-109.79z" fill="#7b8694" stroke-width="59.559"/>
   </g>
  </g>
  <g fill="#e8eaec" stroke-linecap="round" stroke-width=".26459" aria-label="#468">
   <path d="m31.352 25.028h0.20003l0.09261-0.75568h0.48897l-0.0889 0.75568h0.19633l0.09261-0.75568h0.3408v-0.21115h-0.31487l0.06668-0.54824h0.32228v-0.21485h-0.30005l0.0889-0.67789h-0.19633l-0.0889 0.67789h-0.49267l0.0852-0.67789h-0.19633l-0.0852 0.67789h-0.3408v0.21485h0.31487l-0.06668 0.54824h-0.32228v0.21115h0.29634zm0.31857-0.96682 0.06668-0.54824h0.48897l-0.06668 0.54824z"/>
   <path d="m33.242 24.132 0.55194-0.80754c0.06668-0.11483 0.13336-0.21855 0.19262-0.33339h0.01482c-0.0074 0.12595-0.01852 0.32968-0.01852 0.45563v0.6853zm1.3521 0h-0.32228v-1.4669h-0.3408l-1.0113 1.5114v0.20003h1.0631v0.65196h0.28894v-0.65196h0.32228z"/>
   <path d="m35.687 24.832c-0.30005 0-0.48156-0.24819-0.5186-0.70752 0.15929-0.22226 0.3445-0.31116 0.49267-0.31116 0.29264 0 0.43711 0.19262 0.43711 0.50008 0 0.31116-0.17781 0.5186-0.41118 0.5186zm0.65566-1.9596c-0.13336-0.14447-0.31487-0.25189-0.57046-0.25189-0.47045 0-0.90015 0.36673-0.90015 1.315 0 0.75938 0.35191 1.1372 0.81495 1.1372 0.38154 0 0.70011-0.30746 0.70011-0.75938 0-0.48526-0.26671-0.72975-0.67418-0.72975-0.19262 0-0.40377 0.11483-0.55194 0.29634 0.01482-0.74827 0.29264-1.0039 0.62232-1.0039 0.14817 0 0.29264 0.07038 0.38895 0.18522z"/>
   <path d="m36.958 24.395c0-0.21485 0.14076-0.38895 0.32968-0.5149 0.3408 0.13706 0.64084 0.24819 0.64084 0.55194 0 0.24448-0.18892 0.41488-0.46304 0.41488-0.28894 0-0.50749-0.18892-0.50749-0.45193zm0.66678-0.65566c-0.28523-0.11113-0.54453-0.22967-0.54453-0.5112 0-0.22967 0.16299-0.38154 0.38154-0.38154 0.2593 0 0.41118 0.18522 0.41118 0.41859 0 0.1741-0.0889 0.33339-0.24819 0.47415zm-0.9409 0.6853c0 0.37414 0.32968 0.64825 0.7742 0.64825 0.45933 0 0.76309-0.27782 0.76309-0.62973 0-0.31857-0.20003-0.48526-0.41118-0.60751v-0.01482c0.14447-0.11113 0.32598-0.32228 0.32598-0.57046 0-0.36673-0.2556-0.62973-0.66678-0.62973-0.38154 0-0.67048 0.24448-0.67048 0.60751 0 0.24819 0.15558 0.42229 0.32968 0.54453v0.01482c-0.22226 0.11854-0.44452 0.32968-0.44452 0.63714z"/>
  </g>
  <g fill="#e8eaec" stroke-linecap="round" stroke-width=".26459" aria-label="git merge dev master">
   <path d="m88.949 41.093c0-0.20374 0.1704-0.37043 0.37414-0.37043 0.20744 0 0.37414 0.16669 0.37414 0.37043s-0.16669 0.37043-0.37414 0.37043c-0.20744 0-0.37414-0.16669-0.37414-0.37043zm0.38895-0.58158c-0.33709 0-0.62973 0.26671-0.62973 0.59639 0 0.18522 0.09261 0.35932 0.24819 0.45933-0.12224 0.10372-0.19262 0.21856-0.19262 0.32598 0 0.07038 0.02963 0.1704 0.13706 0.22596-0.18151 0.11483-0.27412 0.24078-0.27412 0.37414 0 0.18522 0.1704 0.40377 0.76309 0.40377 0.57417 0 0.78161-0.29264 0.78161-0.5186 0-0.14817-0.0852-0.29634-0.26301-0.36673-0.17781-0.07409-0.38154-0.04816-0.57417-0.04816-0.12595 0-0.20744-0.01111-0.24078-0.02222-0.06668-0.01852-0.10372-0.05927-0.10372-0.11113 0-0.0889 0.10372-0.1741 0.12224-0.18892 0.06668 0.02593 0.14076 0.03704 0.21485 0.03704 0.33339 0 0.60751-0.26671 0.60751-0.57787 0-0.10372-0.02963-0.20374-0.0852-0.28894 0.0889-0.05186 0.19262-0.08149 0.29634-0.08149 0.03334 0 0.06297 0.0037 0.09631 0.01111l-0.02963-0.21855c-0.1704-0.01482-0.3408 0.04075-0.47045 0.14817-0.10742-0.10372-0.24819-0.15928-0.40377-0.15928zm-0.2556 1.6558c0.06297 0.0074 0.15188 0.01482 0.28153 0.02223 0.12595 0.0037 0.26301-0.0074 0.35932 0.0074 0.15558 0.02593 0.20374 0.12224 0.20374 0.19633 0 0.07409-0.04445 0.16299-0.15928 0.22596-0.12595 0.06668-0.26671 0.07409-0.38154 0.07409-0.07779 0-0.22226-0.0037-0.34821-0.05556-0.13706-0.05557-0.16669-0.14817-0.16669-0.20744 0-0.12224 0.11483-0.21114 0.21114-0.26301z"/>
   <path d="m90.731 40.563v0.21856h0.40747v1.2632h-0.4297v0.21115h1.0965v-0.21115h-0.39636v-1.4817zm0.54824-0.73345c-0.10742 0-0.19262 0.0852-0.19262 0.18892s0.0852 0.18892 0.19262 0.18892c0.10742 0 0.19262-0.0852 0.19262-0.18892 0-0.10372-0.0852-0.18892-0.19262-0.18892z"/>
   <path d="m92.887 40.111-0.03334 0.45563h-0.40377l-0.0037 0.21855h0.39636c-0.02223 0.28894-0.03334 0.57787-0.03334 0.8631 0 0.15188 0 0.32228 0.10002 0.46304 0.0815 0.11113 0.21115 0.17781 0.38525 0.17781 0.20003 0 0.39636-0.0852 0.54083-0.18892l-0.0815-0.21115c-0.14447 0.10742-0.27782 0.15558-0.38154 0.15558-0.12595 0-0.2556-0.07038-0.28523-0.27412 0-0.01482-0.01111-0.07779-0.01111-0.32598 0-0.21855 0.01111-0.44081 0.03334-0.65937h0.55565v-0.22226h-0.55194s0.02593-0.30375 0.04445-0.40006c0.0037-0.03704 0.03334-0.05927 0.01852-0.10002z"/>
   <path d="m96.032 42.256h0.24448v-1.1261c0-0.08149 0.0074-0.15558 0.05557-0.24448 0.05927-0.11113 0.13336-0.15558 0.20374-0.15558 0.05927 0 0.12595 0.03704 0.15558 0.12965 0.02223 0.07038 0.01852 0.15188 0.01852 0.22226v1.1743h0.24819v-1.1187c0-0.0889 0.0074-0.15928 0.07038-0.26671 0.02963-0.04445 0.09261-0.15188 0.19633-0.15188 0.05557 0 0.10742 0.03334 0.13336 0.09631 0.03334 0.07038 0.02593 0.16669 0.02593 0.24448v1.2002h0.25189v-1.2039c0-0.14076 0.0037-0.28153-0.07038-0.39636-0.06297-0.09631-0.1704-0.13336-0.26301-0.13336-0.16299 0-0.31487 0.09631-0.38154 0.24448-0.02593-0.14076-0.14447-0.24448-0.29634-0.24448-0.14076 0-0.27041 0.0889-0.3482 0.20744l0.0037-0.16669h-0.24819z"/>
   <path d="m98.703 40.526c-0.40377 0-0.7779 0.28894-0.7779 0.90385 0 0.56676 0.35191 0.86681 0.81124 0.86681 0.24448 0 0.46304-0.0889 0.60751-0.26301l-0.14817-0.14447c-0.10742 0.12595-0.27042 0.19262-0.43711 0.19262-0.22596 0-0.55565-0.12595-0.57417-0.63344h1.2002c0.01111-0.11483 0.0074-0.22596-0.01111-0.32228-0.07779-0.45563-0.39266-0.6001-0.67048-0.6001zm-0.5112 0.71864c0.05557-0.40006 0.31116-0.5149 0.49267-0.5149 0.27412 0 0.47045 0.24078 0.43711 0.5149z"/>
   <path d="m99.966 40.567v1.6929h0.26671v-0.82236c0-0.10372 4e-3 -0.21485 0.11854-0.39636 0.15558-0.24448 0.35562-0.28523 0.47786-0.28523 0.14076 0 0.22966 0.06668 0.27782 0.12595 0.0222 0.02963 0.0333 0.05927 0.063 0.0852l0.12595-0.2556c-0.10742-0.11113-0.26301-0.18522-0.45193-0.18522-0.24818 0-0.50008 0.12595-0.61121 0.36673l0.0111-0.32598z"/>
   <path d="m101.91 41.093c0-0.20374 0.1704-0.37043 0.37414-0.37043 0.20744 0 0.37413 0.16669 0.37413 0.37043s-0.16669 0.37043-0.37413 0.37043c-0.20745 0-0.37414-0.16669-0.37414-0.37043zm0.38895-0.58158c-0.33709 0-0.62973 0.26671-0.62973 0.59639 0 0.18522 0.0926 0.35932 0.24819 0.45933-0.12224 0.10372-0.19263 0.21856-0.19263 0.32598 0 0.07038 0.0296 0.1704 0.13706 0.22596-0.18151 0.11483-0.27411 0.24078-0.27411 0.37414 0 0.18522 0.17039 0.40377 0.76308 0.40377 0.57417 0 0.78161-0.29264 0.78161-0.5186 0-0.14817-0.0852-0.29634-0.263-0.36673-0.17781-0.07409-0.38155-0.04816-0.57417-0.04816-0.12595 0-0.20744-0.01111-0.24078-0.02222-0.0667-0.01852-0.10372-0.05927-0.10372-0.11113 0-0.0889 0.10372-0.1741 0.12224-0.18892 0.0667 0.02593 0.14076 0.03704 0.21485 0.03704 0.33339 0 0.60751-0.26671 0.60751-0.57787 0-0.10372-0.0296-0.20374-0.0852-0.28894 0.0889-0.05186 0.19262-0.08149 0.29634-0.08149 0.0333 0 0.063 0.0037 0.0963 0.01111l-0.0296-0.21855c-0.1704-0.01482-0.3408 0.04075-0.47045 0.14817-0.10742-0.10372-0.24819-0.15928-0.40377-0.15928zm-0.25559 1.6558c0.063 0.0074 0.15187 0.01482 0.28152 0.02223 0.12595 0.0037 0.26301-0.0074 0.35932 0.0074 0.15558 0.02593 0.20374 0.12224 0.20374 0.19633 0 0.07409-0.0444 0.16299-0.15929 0.22596-0.12594 0.06668-0.26671 0.07409-0.38154 0.07409-0.0778 0-0.22226-0.0037-0.34821-0.05556-0.13706-0.05557-0.16669-0.14817-0.16669-0.20744 0-0.12224 0.11483-0.21114 0.21115-0.26301z"/>
   <path d="m104.26 40.526c-0.40377 0-0.77791 0.28894-0.77791 0.90385 0 0.56676 0.35191 0.86681 0.81125 0.86681 0.24448 0 0.46304-0.0889 0.6075-0.26301l-0.14817-0.14447c-0.10742 0.12595-0.27041 0.19262-0.43711 0.19262-0.22596 0-0.55564-0.12595-0.57417-0.63344h1.2002c0.0111-0.11483 7e-3 -0.22596-0.0111-0.32228-0.0778-0.45563-0.39266-0.6001-0.67048-0.6001zm-0.5112 0.71864c0.0556-0.40006 0.31117-0.5149 0.49268-0.5149 0.27412 0 0.47044 0.24078 0.43711 0.5149z"/>
   <path d="m108.38 40.811c-0.0815-0.1741-0.263-0.28894-0.49637-0.28894-0.32228 0-0.71493 0.22967-0.71493 0.87422 0 0.62603 0.3482 0.90015 0.67418 0.90015 0.21485 0 0.41488-0.12224 0.52231-0.31116v0.14817c0 0.04075 4e-3 0.08149 0.0148 0.12224h0.26671c-0.0148-0.04816-0.0148-0.10372-0.0148-0.15558l-4e-3 -2.2004c0-0.02223 0-0.02963 0.0148-0.05186 7e-3 -0.01111 0.0222-0.02963 0.0185-0.05556h-0.28153zm-0.48526-0.07038c0.14817 0 0.36673 0.07779 0.4334 0.32968 0.0222 0.07779 0.0296 0.1704 0.0296 0.35932 0 0.12965-7e-3 0.22226-0.037 0.31116-0.063 0.20003-0.24078 0.31857-0.41489 0.31857-0.19262 0-0.47785-0.14817-0.47785-0.70382 0-0.48526 0.27041-0.61492 0.46674-0.61492z"/>
   <path d="m109.82 40.526c-0.40377 0-0.7779 0.28894-0.7779 0.90385 0 0.56676 0.35191 0.86681 0.81124 0.86681 0.24449 0 0.46304-0.0889 0.60751-0.26301l-0.14817-0.14447c-0.10743 0.12595-0.27042 0.19262-0.43711 0.19262-0.22597 0-0.55565-0.12595-0.57417-0.63344h1.2002c0.0111-0.11483 7e-3 -0.22596-0.0111-0.32228-0.0778-0.45563-0.39265-0.6001-0.67048-0.6001zm-0.51119 0.71864c0.0556-0.40006 0.31116-0.5149 0.49267-0.5149 0.27412 0 0.47045 0.24078 0.43711 0.5149z"/>
   <path d="m110.86 40.563 0.67049 1.7077h0.21114l0.41118-0.96682c0.10002-0.23708 0.19633-0.48156 0.25189-0.74086h-0.24078c-0.0445 0.24819-0.13335 0.48156-0.22967 0.70382l-0.27041 0.62973-0.48897-1.2372c-4e-3 -0.0074-7e-3 -0.01482-7e-3 -0.02223 0-0.02222 0.0185-0.04445 0.0111-0.07409z"/>
   <path d="m114.55 42.256h0.24448v-1.1261c0-0.08149 7e-3 -0.15558 0.0556-0.24448 0.0593-0.11113 0.13336-0.15558 0.20374-0.15558 0.0593 0 0.12595 0.03704 0.15558 0.12965 0.0222 0.07038 0.0185 0.15188 0.0185 0.22226v1.1743h0.24819v-1.1187c0-0.0889 7e-3 -0.15928 0.0704-0.26671 0.0296-0.04445 0.0926-0.15188 0.19632-0.15188 0.0556 0 0.10743 0.03334 0.13336 0.09631 0.0333 0.07038 0.0259 0.16669 0.0259 0.24448v1.2002h0.25189v-1.2039c0-0.14076 4e-3 -0.28153-0.0704-0.39636-0.063-0.09631-0.1704-0.13336-0.26301-0.13336-0.16299 0-0.31486 0.09631-0.38154 0.24448-0.0259-0.14076-0.14447-0.24448-0.29634-0.24448-0.14077 0-0.27042 0.0889-0.34821 0.20744l4e-3 -0.16669h-0.24818z"/>
   <path d="m116.6 40.763 0.12965 0.1704c0.14076-0.14447 0.32968-0.18892 0.48897-0.18892 0.20003 0 0.30005 0.0852 0.3482 0.16299 0.0556 0.09261 0.0519 0.20374 0.0519 0.29264v0.05927h-0.0519c-0.25189 0-0.5186 0-0.73345 0.07779-0.26671 0.09631-0.38525 0.29634-0.38525 0.48156 0 0.24819 0.21485 0.48156 0.56676 0.48156 0.20744 0 0.42229-0.07779 0.60751-0.22967v0.18522h0.25189v-1.0483c0-0.13706-4e-3 -0.26671-0.0815-0.40006-0.11113-0.18151-0.32598-0.27782-0.58899-0.27782-0.22596 0-0.44452 0.07038-0.6038 0.23337zm1.0298 0.70012v0.11483c0 0.0852 0 0.19633-0.11484 0.31857-0.063 0.06297-0.22226 0.20003-0.44451 0.20003-0.22597 0-0.35562-0.14447-0.35562-0.29264 0-0.12595 0.0852-0.26301 0.29635-0.31487 0.15558-0.03704 0.38154-0.02593 0.55935-0.02593z"/>
   <path d="m119.72 40.789c-0.15558-0.1704-0.38155-0.26301-0.63344-0.26301-0.39266 0-0.64825 0.21855-0.64825 0.47045 0 0.29634 0.31857 0.40377 0.41117 0.43711 0.14447 0.05186 0.32969 0.09631 0.45563 0.15558 0.14077 0.06668 0.1667 0.15558 0.1667 0.21485 0 0.15928-0.19263 0.26671-0.43341 0.26671-0.28893 0-0.47415-0.1741-0.52971-0.23337-0.0111-0.01482-0.0111-0.02593-0.0111-0.04075 0-0.0037 4e-3 -0.02593-0.0148-0.03334l-0.15558 0.26301c0.20003 0.18522 0.45933 0.27041 0.71493 0.27041 0.46304 0 0.70382-0.27412 0.70382-0.52972 0-0.11483-0.0482-0.27042-0.24819-0.38154-0.18892-0.10742-0.46304-0.14447-0.62232-0.22226-0.13706-0.06668-0.1667-0.14817-0.1667-0.20744 0-0.13336 0.1667-0.22967 0.35561-0.22967 0.24449 0 0.40748 0.14817 0.47045 0.23337 0.0111 0.01111 7e-3 0.02223 7e-3 0.03334 0 0.02223 0.0148 0.02963 0.0222 0.02963z"/>
   <path d="m120.67 40.111-0.0333 0.45563h-0.40377l-4e-3 0.21855h0.39636c-0.0222 0.28894-0.0333 0.57787-0.0333 0.8631 0 0.15188 0 0.32228 0.10002 0.46304 0.0815 0.11113 0.21114 0.17781 0.38525 0.17781 0.20003 0 0.39636-0.0852 0.54083-0.18892l-0.0815-0.21115c-0.14447 0.10742-0.27782 0.15558-0.38154 0.15558-0.12595 0-0.2556-0.07038-0.28524-0.27412 0-0.01482-0.0111-0.07779-0.0111-0.32598 0-0.21855 0.0111-0.44081 0.0333-0.65937h0.55565v-0.22226h-0.55195s0.0259-0.30375 0.0445-0.40006c4e-3 -0.03704 0.0333-0.05927 0.0185-0.10002z"/>
   <path d="m122.78 40.526c-0.40377 0-0.77791 0.28894-0.77791 0.90385 0 0.56676 0.35191 0.86681 0.81125 0.86681 0.24448 0 0.46304-0.0889 0.6075-0.26301l-0.14817-0.14447c-0.10742 0.12595-0.27041 0.19262-0.43711 0.19262-0.22596 0-0.55564-0.12595-0.57416-0.63344h1.2002c0.0111-0.11483 7e-3 -0.22596-0.0111-0.32228-0.0778-0.45563-0.39266-0.6001-0.67048-0.6001zm-0.5112 0.71864c0.0556-0.40006 0.31117-0.5149 0.49268-0.5149 0.27412 0 0.47044 0.24078 0.43711 0.5149z"/>
   <path d="m124.04 40.567v1.6929h0.26671v-0.82236c0-0.10372 4e-3 -0.21485 0.11854-0.39636 0.15558-0.24448 0.35561-0.28523 0.47785-0.28523 0.14077 0 0.22967 0.06668 0.27783 0.12595 0.0222 0.02963 0.0333 0.05927 0.063 0.0852l0.12594-0.2556c-0.10742-0.11113-0.263-0.18522-0.45192-0.18522-0.24819 0-0.50008 0.12595-0.61121 0.36673l0.0111-0.32598z"/>
  </g>
  <g transform="matrix(0 .004405 -.0044804 0 87.233 42.54)" fill="#6f8ce9" stroke-width="59.559">
   <g fill="#6f8ce9" stroke-width="59.559">
    <path d="m486.41 221.41-364.07-208.5c-52.938-30.318-95.852-5.44-95.852 55.563v415.65c0 61.004 42.914 85.882 95.852 55.563l364.07-208.49c52.938-30.317 52.938-79.473 0-109.79z" fill="#6f8ce9" stroke-width="59.559"/>
   </g>
  </g>
  <path d="m85.993 43.658v-4.7627" fill="#1d232d" stroke="#6f8ce9" stroke-linecap="square" stroke-width=".26459"/>
  <rect transform="matrix(.70711 .70711 .70711 -.70711 0 0)" x="87.372" y="33.125" width="1.1134" height="1.1134" fill="#6f8ce9"/>
 </g>
 <rect x="-.00034381" y="44.981" width="171.89" height="39.689" fill="#2f3744" fill-opacity=".50196"/>
 <path d="m54.491 10.452h-14.983" fill="none" stroke="#7b8694" stroke-linecap="round" stroke-width=".26459"/>
 <g>
  <g transform="matrix(-.004405 0 0 -.0044804 40.51 11.657)" fill="#7b8694" stroke-width="59.559">
   <g fill="#7b8694" stroke-width="59.559">
    <path d="m486.41 221.41-364.07-208.5c-52.938-30.318-95.852-5.44-95.852 55.563v415.65c0 61.004 42.914 85.882 95.852 55.563l364.07-208.49c52.938-30.317 52.938-79.473 0-109.79z" fill="#7b8694" stroke-width="59.559"/>
   </g>
  </g>
  <path d="m61.905 12.452-3.6948 2.1332-3.6949-2.1332v-4.2664l3.6949-2.1332 3.6948 2.1332z" fill="#1d232d" stroke="#6f8ce9" stroke-linecap="round" stroke-width=".26459"/>
  <g fill="#e8eaec" stroke-linecap="round" stroke-width=".26459" aria-label="#ba1">
   <path d="m54.901 5.1839h0.20003l0.09261-0.75568h0.48897l-0.0889 0.75568h0.19633l0.09261-0.75568h0.3408v-0.21115h-0.31487l0.06668-0.54824h0.32228v-0.21485h-0.30005l0.0889-0.67789h-0.19633l-0.0889 0.67789h-0.49267l0.0852-0.67789h-0.19633l-0.0852 0.67789h-0.3408v0.21485h0.31487l-0.06668 0.54824h-0.32228v0.21115h0.29634zm0.31857-0.96682 0.06668-0.54824h0.48897l-0.06668 0.54824z"/>
   <path d="m56.709 5.1839h0.24448l0.02593-0.17781h0.01111c0.15928 0.14076 0.3482 0.22226 0.5149 0.22226 0.41118 0 0.7779-0.35932 0.7779-0.97423 0-0.55565-0.24819-0.91496-0.71493-0.91496-0.20003 0-0.40007 0.10742-0.56306 0.25189l0.0074-0.32598v-0.71864h-0.30375zm0.30375-0.40007v-0.9446c0.1704-0.15929 0.32968-0.24448 0.48156-0.24448 0.3408 0 0.47415 0.26671 0.47415 0.66307 0 0.44452-0.21855 0.71493-0.5149 0.71493-0.11854 0-0.28153-0.05186-0.44081-0.18892z"/>
   <path d="m58.624 4.7172c0 0.32227 0.22596 0.51119 0.52972 0.51119 0.22226 0 0.42229-0.11854 0.59639-0.2593h0.0074l0.02593 0.21485h0.25189v-1.1039c0-0.44822-0.18522-0.74086-0.62603-0.74086-0.28894 0-0.54083 0.12595-0.70752 0.23337l0.12224 0.21115c0.14076-0.096312 0.32598-0.19262 0.53712-0.19262 0.29264 0 0.37043 0.22226 0.37043 0.45193-0.76679 0.085199-1.1076 0.28153-1.1076 0.67418zm0.30005-0.022226c0-0.22967 0.20374-0.37784 0.80754-0.45193v0.50008c-0.1741 0.15558-0.31857 0.24078-0.49267 0.24078-0.17781 0-0.31487-0.085199-0.31487-0.28894z"/>
   <path d="m60.598 5.1839h1.3336v-0.25189h-0.48897v-2.1115h-0.23337c-0.12965 0.07779-0.28523 0.13706-0.50008 0.1741v0.19633h0.4297v1.741h-0.54083z"/>
  </g>
 </g>
 <path d="m78.304 10.452h-14.983" fill="none" stroke="#7b8694" stroke-linecap="round" stroke-width=".26459"/>
 <g transform="matrix(-.004405 0 0 -.0044804 64.323 11.657)" fill="#7b8694" stroke-width="59.559">
  <g fill="#7b8694" stroke-width="59.559">
   <path d="m486.41 221.41-364.07-208.5c-52.938-30.318-95.852-5.44-95.852 55.563v415.65c0 61.004 42.914 85.882 95.852 55.563l364.07-208.49c52.938-30.317 52.938-79.473 0-109.79z" fill="#7b8694" stroke-width="59.559"/>
  </g>
 </g>
 <path d="m85.719 12.452-3.6948 2.1332-3.6949-2.1332v-4.2664l3.6949-2.1332 3.6949 2.1332z" fill="#1d232d" stroke="#6f8ce9" stroke-linecap="round" stroke-width=".26459"/>
 <g fill="#e8eaec" stroke-linecap="round" stroke-width=".26459">
  <g aria-label="#cc2">
   <path d="m78.979 5.1839h0.20003l0.09261-0.75568h0.48897l-0.0889 0.75568h0.19633l0.09261-0.75568h0.3408v-0.21115h-0.31487l0.06668-0.54824h0.32228v-0.21485h-0.30005l0.0889-0.67789h-0.19634l-0.0889 0.67789h-0.49267l0.0852-0.67789h-0.19633l-0.0852 0.67789h-0.3408v0.21485h0.31487l-0.06668 0.54824h-0.32227v0.21115h0.29634zm0.31857-0.96682 0.06668-0.54824h0.48897l-0.06668 0.54824z"/>
   <path d="m80.654 4.2875c0 0.59639 0.36673 0.94089 0.84458 0.94089 0.21485 0 0.42229-0.088903 0.58528-0.23337l-0.13706-0.20003c-0.10742 0.096312-0.25189 0.18151-0.42229 0.18151-0.32968 0-0.55565-0.27782-0.55565-0.689 0-0.41488 0.23708-0.69641 0.56306-0.69641 0.14447 0 0.2556 0.066678 0.36302 0.15929l0.15188-0.19633c-0.12224-0.11483-0.28894-0.21485-0.52601-0.21485-0.46304 0-0.86681 0.3445-0.86681 0.9483z"/>
   <path d="m82.26 4.2875c0 0.59639 0.36673 0.94089 0.84458 0.94089 0.21485 0 0.42229-0.088903 0.58528-0.23337l-0.13706-0.20003c-0.10742 0.096312-0.25189 0.18151-0.42229 0.18151-0.32968 0-0.55565-0.27782-0.55565-0.689 0-0.41488 0.23708-0.69641 0.56306-0.69641 0.14447 0 0.2556 0.066678 0.36302 0.15929l0.15188-0.19633c-0.12224-0.11483-0.28894-0.21485-0.52601-0.21485-0.46304 0-0.86681 0.3445-0.86681 0.9483z"/>
   <path d="m83.924 5.1839h1.5262v-0.26301h-0.6853c-0.12224 0-0.26671 0.011113-0.39636 0.022226 0.55935-0.58528 0.96312-1.0261 0.96312-1.4706 0-0.41859-0.27042-0.69641-0.70752-0.69641-0.30746 0-0.5186 0.14447-0.71493 0.35932l0.1741 0.1741c0.13706-0.15929 0.30746-0.28523 0.50379-0.28523 0.30005 0 0.44822 0.19262 0.44822 0.46304 0 0.38154-0.40006 0.80754-1.1113 1.5151z"/>
  </g>
  <g stroke="#cf2f25" aria-label="C">
   <path d="m60.57 14.817c0 0.79272 0.45563 1.2595 1.0668 1.2595 0.30746 0 0.54824-0.12965 0.73716-0.35191l-0.1741-0.18892c-0.15558 0.1741-0.32598 0.27041-0.55565 0.27041-0.46304 0-0.75568-0.38525-0.75568-0.99646 0-0.6038 0.30746-0.98164 0.7705-0.98164 0.20003 0 0.35561 0.0889 0.48526 0.22596l0.1741-0.19633c-0.14447-0.15928-0.37414-0.30005-0.66307-0.30005-0.62232 0-1.0854 0.47786-1.0854 1.2595z" fill="#e8eaec" stroke="none"/>
  </g>
  <g stroke="#cf2f25" aria-label="D">
   <path d="m84.525 16.032h0.62232c0.73345 0 1.1335-0.45193 1.1335-1.2261 0-0.7705-0.40006-1.2039-1.1483-1.2039h-0.60751zm0.31116-0.25189v-1.9262h0.27412c0.57046 0 0.85199 0.3408 0.85199 0.95201 0 0.61492-0.28153 0.97423-0.85199 0.97423z" fill="#e8eaec" stroke="none"/>
  </g>
 </g>
 <path d="m102.12 10.452h-14.983" fill="none" stroke="#7b8694" stroke-linecap="round" stroke-width=".26459"/>
 <g>
  <g transform="matrix(-.004405 0 0 -.0044804 88.136 11.657)" fill="#7b8694" stroke-width="59.559">
   <g fill="#7b8694" stroke-width="59.559">
    <path d="m486.41 221.41-364.07-208.5c-52.938-30.318-95.852-5.44-95.852 55.563v415.65c0 61.004 42.914 85.882 95.852 55.563l364.07-208.49c52.938-30.317 52.938-79.473 0-109.79z" fill="#7b8694" stroke-width="59.559"/>
   </g>
  </g>
  <g stroke-linecap="round" stroke-width=".26459">
   <path d="m109.53 12.452-3.6948 2.1332-3.6948-2.1332v-4.2664l3.6948-2.1332 3.6948 2.1332z" fill="#1d232d" stroke="#6f8ce9"/>
   <g fill="#e8eaec" aria-label="#6a8">
    <path d="m102.79 5.1839h0.20003l0.0926-0.75568h0.48897l-0.0889 0.75568h0.19632l0.0926-0.75568h0.3408v-0.21115h-0.31487l0.0667-0.54824h0.32228v-0.21485h-0.30005l0.0889-0.67789h-0.19633l-0.0889 0.67789h-0.49268l0.0852-0.67789h-0.19632l-0.0852 0.67789h-0.3408v0.21485h0.31487l-0.0667 0.54824h-0.32228v0.21115h0.29635zm0.31857-0.96682 0.0667-0.54824h0.48897l-0.0667 0.54824z"/>
    <path d="m105.29 4.9876c-0.30005 0-0.48156-0.24819-0.5186-0.70752 0.15928-0.22226 0.3445-0.31116 0.49267-0.31116 0.29264 0 0.43711 0.19262 0.43711 0.50008 0 0.31116-0.17781 0.5186-0.41118 0.5186zm0.65567-1.9596c-0.13336-0.14447-0.31487-0.25189-0.57047-0.25189-0.47045 0-0.90015 0.36673-0.90015 1.315 0 0.75938 0.35191 1.1372 0.81495 1.1372 0.38155 0 0.70012-0.30746 0.70012-0.75938 0-0.48526-0.26671-0.72975-0.67419-0.72975-0.19262 0-0.40377 0.11483-0.55194 0.29634 0.0148-0.74827 0.29264-1.0039 0.62232-1.0039 0.14818 0 0.29265 0.070382 0.38896 0.18522z"/>
    <path d="m106.35 4.7172c0 0.32227 0.22597 0.51119 0.52972 0.51119 0.22226 0 0.42229-0.11854 0.59639-0.2593h7e-3l0.0259 0.21485h0.25189v-1.1039c0-0.44822-0.18521-0.74086-0.62602-0.74086-0.28894 0-0.54083 0.12595-0.70753 0.23337l0.12225 0.21115c0.14076-0.096312 0.32597-0.19262 0.53712-0.19262 0.29264 0 0.37043 0.22226 0.37043 0.45193-0.76679 0.085199-1.1076 0.28153-1.1076 0.67418zm0.30005-0.022226c0-0.22967 0.20374-0.37784 0.80754-0.45193v0.50008c-0.1741 0.15558-0.31857 0.24078-0.49267 0.24078-0.17781 0-0.31487-0.085199-0.31487-0.28894z"/>
    <path d="m108.46 4.5505c0-0.21485 0.14077-0.38895 0.32969-0.5149 0.34079 0.13706 0.64084 0.24819 0.64084 0.55194 0 0.24448-0.18892 0.41488-0.46304 0.41488-0.28893 0-0.50749-0.18892-0.50749-0.45193zm0.66678-0.65566c-0.28523-0.11113-0.54453-0.22967-0.54453-0.51119 0-0.22967 0.16298-0.38154 0.38154-0.38154 0.2593 0 0.41118 0.18522 0.41118 0.41859 0 0.1741-0.0889 0.33339-0.24819 0.47415zm-0.9409 0.6853c0 0.37414 0.32969 0.64825 0.7742 0.64825 0.45934 0 0.76309-0.27782 0.76309-0.62973 0-0.31857-0.20003-0.48526-0.41118-0.60751v-0.014817c0.14447-0.11113 0.32598-0.32228 0.32598-0.57046 0-0.36673-0.25559-0.62973-0.66677-0.62973-0.38155 0-0.67048 0.24448-0.67048 0.60751 0 0.24819 0.15558 0.42229 0.32968 0.54453v0.014817c-0.22226 0.11854-0.44452 0.32968-0.44452 0.63714z"/>
   </g>
   <g fill="#e8eaec" stroke="#cf2f25" aria-label="E">
    <path d="m108.34 16.032h1.4373v-0.26301h-1.1261v-0.88163h0.91867v-0.26301h-0.91867v-0.76309h1.0891v-0.2593h-1.4002z" fill="#e8eaec" stroke="none"/>
   </g>
  </g>
 </g>
 <path d="m125.93 10.452h-14.983" fill="none" stroke="#6f8ce9" stroke-linecap="round" stroke-width=".26459"/>
 <g>
  <g transform="matrix(-.004405 0 0 -.0044804 111.95 11.657)" fill="#6f8ce9" stroke-width="59.559">
   <g fill="#6f8ce9" stroke-width="59.559">
    <path d="m486.41 221.41-364.07-208.5c-52.938-30.318-95.852-5.44-95.852 55.563v415.65c0 61.004 42.914 85.882 95.852 55.563l364.07-208.49c52.938-30.317 52.938-79.473 0-109.79z" fill="#6f8ce9" stroke-width="59.559"/>
   </g>
  </g>
  <g stroke-width=".26459">
   <path d="m128.59 7.8337c-1.4503 0-2.6178 1.1675-2.6178 2.6178 0 1.4503 1.1675 2.6178 2.6178 2.6178h11.113c1.4503 0 2.6178-1.1675 2.6178-2.6178 0-1.4503-1.1675-2.6178-2.6178-2.6178z" fill="#1d232d" stroke="#7893ea"/>
   <g fill="#e8eaec" stroke-linecap="round" aria-label="master">
    <path d="m129.13 11.581h0.30375v-1.3039c0.1667-0.18522 0.31857-0.27782 0.45193-0.27782 0.22966 0 0.33709 0.14447 0.33709 0.48156v1.1002h0.30375v-1.3039c0.1667-0.18522 0.31117-0.27782 0.45193-0.27782 0.22596 0 0.33339 0.14447 0.33339 0.48156v1.1002h0.30375v-1.1409c0-0.45933-0.17781-0.70382-0.54824-0.70382-0.21855 0-0.40377 0.14076-0.59269 0.3445-0.0741-0.21485-0.22226-0.3445-0.49637-0.3445-0.21485 0-0.40377 0.13336-0.55936 0.30375h-0.0111l-0.0259-0.2593h-0.25189z"/>
    <path d="m132.11 11.115c0 0.32228 0.22596 0.5112 0.52971 0.5112 0.22226 0 0.42229-0.11854 0.5964-0.2593h7e-3l0.0259 0.21485h0.25189v-1.1039c0-0.44822-0.18522-0.74086-0.62603-0.74086-0.28894 0-0.54083 0.12595-0.70752 0.23337l0.12224 0.21115c0.14076-0.09631 0.32598-0.19262 0.53712-0.19262 0.29264 0 0.37044 0.22226 0.37044 0.45193-0.7668 0.0852-1.1076 0.28153-1.1076 0.67418zm0.30005-0.02223c0-0.22967 0.20373-0.37784 0.80754-0.45193v0.50008c-0.17411 0.15558-0.31858 0.24078-0.49268 0.24078-0.1778 0-0.31486-0.0852-0.31486-0.28894z"/>
    <path d="m133.89 11.378c0.1704 0.14076 0.41488 0.24819 0.67048 0.24819 0.426 0 0.65937-0.24448 0.65937-0.53712 0-0.3408-0.28894-0.44822-0.54824-0.54453-0.20374-0.07779-0.40006-0.14447-0.40006-0.31116 0-0.13706 0.10372-0.2593 0.32968-0.2593 0.15929 0 0.28894 0.066677 0.41118 0.15929l0.14447-0.19262c-0.13706-0.11113-0.33339-0.20374-0.55935-0.20374-0.38896 0-0.61862 0.22226-0.61862 0.51119 0 0.30375 0.28152 0.426 0.53712 0.5186 0.19633 0.07409 0.41118 0.15558 0.41118 0.3408 0 0.15558-0.11854 0.28153-0.35561 0.28153-0.21485 0-0.37414-0.0889-0.52972-0.21485z"/>
    <path d="m135.7 11.026c0 0.35561 0.12965 0.6001 0.51489 0.6001 0.11113 0 0.23338-0.03334 0.33339-0.06668l-0.0593-0.22967c-0.0593 0.02223-0.14076 0.04816-0.20373 0.04816-0.20744 0-0.27783-0.12595-0.27783-0.3482v-1.0002h0.48527v-0.24819h-0.48527v-0.50379h-0.25559l-0.037 0.50379-0.28152 0.018521v0.22967h0.26671z"/>
    <path d="m136.73 10.685c0 0.58898 0.38154 0.9409 0.8631 0.9409 0.24449 0 0.43711-0.0852 0.59269-0.18522l-0.10742-0.20003c-0.13336 0.0852-0.27783 0.14076-0.44823 0.14076-0.3445 0-0.57787-0.24448-0.60009-0.63344h1.215c7e-3 -0.04445 0.0111-0.10372 0.0111-0.16669 0-0.5149-0.2593-0.84458-0.71863-0.84458-0.41118 0-0.80754 0.35932-0.80754 0.9483zm0.29634-0.13706c0.037-0.36302 0.26671-0.57046 0.5186-0.57046 0.28153 0 0.44452 0.20374 0.44452 0.57046z"/>
    <path d="m138.7 11.581h0.30375v-1.1557c0.12224-0.30375 0.30375-0.41488 0.45563-0.41488 0.0741 0 0.11483 0.01111 0.1741 0.02963l0.0593-0.26671c-0.0593-0.02593-0.11483-0.037043-0.19262-0.037043-0.20374 0-0.38895 0.14447-0.5112 0.37043h-0.0111l-0.0259-0.32598h-0.25189z"/>
   </g>
   <path d="m14.278 57.963-3.6949 2.1332-3.6949-2.1332v-4.2664l3.6949-2.1332 3.6949 2.1332z" fill="#1d232d" stroke="#6f8ce9" stroke-linecap="round"/>
  </g>
 </g>
 <path d="m30.678 55.962h-14.983" fill="none" stroke="#7b8694" stroke-linecap="round" stroke-width=".26459"/>
 <g transform="matrix(-.004405 0 0 -.0044804 16.696 57.167)" fill="#7b8694" stroke-width="59.559">
  <g fill="#7b8694" stroke-width="59.559">
   <path d="m486.41 221.41-364.07-208.5c-52.938-30.318-95.852-5.44-95.852 55.563v415.65c0 61.004 42.914 85.882 95.852 55.563l364.07-208.49c52.938-30.317 52.938-79.473 0-109.79z" fill="#7b8694" stroke-width="59.559"/>
  </g>
 </g>
 <path d="m38.092 57.963-3.6949 2.1332-3.6949-2.1332v-4.2664l3.6949-2.1332 3.6949 2.1332z" fill="#1d232d" stroke="#6f8ce9" stroke-linecap="round" stroke-width=".26459"/>
 <g fill="#e8eaec" stroke-linecap="round" stroke-width=".26459">
  <g aria-label="#cab">
   <path d="m7.2744 50.694h0.20003l0.092608-0.75568h0.48897l-0.088903 0.75568h0.19633l0.092608-0.75568h0.3408v-0.21114h-0.31487l0.066678-0.54824h0.32228v-0.21485h-0.30005l0.088903-0.67789h-0.19633l-0.088903 0.67789h-0.49267l0.085199-0.67789h-0.19633l-0.085199 0.67789h-0.3408v0.21485h0.31487l-0.066678 0.54824h-0.32227v0.21114h0.29634zm0.31857-0.96682 0.066677-0.54824h0.48897l-0.066678 0.54824z"/>
   <path d="m8.9491 49.798c0 0.59639 0.36673 0.9409 0.84458 0.9409 0.21485 0 0.42229-0.0889 0.58528-0.23337l-0.13706-0.20003c-0.10742 0.09631-0.25189 0.18151-0.42229 0.18151-0.32968 0-0.55565-0.27782-0.55565-0.689 0-0.41488 0.23708-0.69641 0.56306-0.69641 0.14447 0 0.2556 0.06668 0.36302 0.15929l0.15188-0.19633c-0.12224-0.11483-0.28894-0.21485-0.52601-0.21485-0.46304 0-0.86681 0.3445-0.86681 0.9483z"/>
   <path d="m10.643 50.227c0 0.32228 0.22596 0.5112 0.52972 0.5112 0.22226 0 0.42229-0.11854 0.59639-0.2593h0.0074l0.02593 0.21485h0.25189v-1.1039c0-0.44822-0.18522-0.74086-0.62603-0.74086-0.28894 0-0.54083 0.12595-0.70752 0.23337l0.12224 0.21114c0.14076-0.09631 0.32598-0.19262 0.53712-0.19262 0.29264 0 0.37043 0.22226 0.37043 0.45193-0.76679 0.0852-1.1076 0.28153-1.1076 0.67418zm0.30005-0.02222c0-0.22967 0.20374-0.37784 0.80754-0.45193v0.50008c-0.1741 0.15558-0.31857 0.24078-0.49267 0.24078-0.17781 0-0.31487-0.0852-0.31487-0.28894z"/>
   <path d="m12.628 50.694h0.24448l0.02593-0.17781h0.01111c0.15928 0.14076 0.3482 0.22226 0.5149 0.22226 0.41118 0 0.7779-0.35932 0.7779-0.97423 0-0.55565-0.24819-0.91496-0.71493-0.91496-0.20003 0-0.40006 0.10742-0.56306 0.25189l0.0074-0.32598v-0.71864h-0.30375zm0.30375-0.40006v-0.9446c0.1704-0.15928 0.32968-0.24448 0.48156-0.24448 0.3408 0 0.47415 0.26671 0.47415 0.66307 0 0.44452-0.21855 0.71493-0.5149 0.71493-0.11854 0-0.28153-0.05186-0.44081-0.18892z"/>
  </g>
  <g aria-label="#06c">
   <path d="m31.088 50.694h0.20003l0.09261-0.75568h0.48897l-0.0889 0.75568h0.19633l0.09261-0.75568h0.3408v-0.21114h-0.31487l0.06668-0.54824h0.32228v-0.21485h-0.30005l0.0889-0.67789h-0.19633l-0.0889 0.67789h-0.49267l0.0852-0.67789h-0.19633l-0.0852 0.67789h-0.3408v0.21485h0.31487l-0.06668 0.54824h-0.32228v0.21114h0.29634zm0.31857-0.96682 0.06668-0.54824h0.48897l-0.06668 0.54824z"/>
   <path d="m33.514 50.739c0.47045 0 0.75568-0.44081 0.75568-1.2335s-0.28523-1.2187-0.75568-1.2187c-0.47415 0-0.75938 0.426-0.75938 1.2187s0.28523 1.2335 0.75938 1.2335zm0-0.24448c-0.27782 0-0.46304-0.29634-0.46304-0.98905s0.18522-0.97423 0.46304-0.97423c0.27412 0 0.45933 0.28153 0.45933 0.97423s-0.18522 0.98905-0.45933 0.98905z"/>
   <path d="m35.423 50.498c-0.30005 0-0.48156-0.24819-0.5186-0.70752 0.15929-0.22226 0.3445-0.31116 0.49267-0.31116 0.29264 0 0.43711 0.19262 0.43711 0.50008 0 0.31116-0.17781 0.5186-0.41118 0.5186zm0.65566-1.9596c-0.13336-0.14447-0.31487-0.25189-0.57046-0.25189-0.47045 0-0.90015 0.36673-0.90015 1.315 0 0.75938 0.35191 1.1372 0.81495 1.1372 0.38154 0 0.70011-0.30746 0.70011-0.75938 0-0.48526-0.26671-0.72975-0.67418-0.72975-0.19262 0-0.40377 0.11483-0.55194 0.29634 0.01482-0.74827 0.29264-1.0039 0.62232-1.0039 0.14817 0 0.29264 0.07038 0.38895 0.18522z"/>
   <path d="m36.438 49.798c0 0.59639 0.36673 0.9409 0.84458 0.9409 0.21485 0 0.42229-0.0889 0.58528-0.23337l-0.13706-0.20003c-0.10742 0.09631-0.25189 0.18151-0.42229 0.18151-0.32968 0-0.55565-0.27782-0.55565-0.689 0-0.41488 0.23708-0.69641 0.56306-0.69641 0.14447 0 0.2556 0.06668 0.36302 0.15929l0.15188-0.19633c-0.12224-0.11483-0.28894-0.21485-0.52601-0.21485-0.46304 0-0.86681 0.3445-0.86681 0.9483z"/>
  </g>
  <g stroke="#cf2f25" aria-label="A">
   <path d="m13.388 60.553 0.11854-0.37043c0.0852-0.27042 0.16299-0.53712 0.24078-0.81865h0.01482c0.07779 0.28153 0.15558 0.54824 0.24078 0.81865l0.11483 0.37043zm1.0409 0.98905h0.32598l-0.82236-2.43h-0.3482l-0.82236 2.43h0.31487l0.23337-0.74086h0.88533z" fill="#e8eaec" stroke="none"/>
  </g>
  <g stroke="#cf2f25" aria-label="B">
   <path d="m36.898 61.542h0.7779c0.54083 0 0.91867-0.23337 0.91867-0.71123 0-0.33339-0.20744-0.52601-0.56306-0.58158v-0.01482c0.28894-0.07409 0.426-0.28894 0.426-0.52972 0-0.426-0.3445-0.59269-0.83717-0.59269h-0.72234zm0.31116-1.3928v-0.79272h0.37414c0.37414 0 0.57046 0.11113 0.57046 0.37414 0 0.27041-0.1741 0.41859-0.58528 0.41859zm0 1.1483v-0.91867h0.42229c0.426 0 0.65937 0.13706 0.65937 0.43711 0 0.32968-0.24448 0.48156-0.65937 0.48156z" fill="#e8eaec" stroke="none"/>
  </g>
 </g>
 <g>
  <g transform="matrix(-.004405 0 0 -.0044804 106.66 57.431)" fill="#6f8ce9" stroke-width="59.559">
   <g fill="#6f8ce9" stroke-width="59.559">
    <path d="m486.41 221.41-364.07-208.5c-52.938-30.318-95.852-5.44-95.852 55.563v415.65c0 61.004 42.914 85.882 95.852 55.563l364.07-208.49c52.938-30.317 52.938-79.473 0-109.79z" fill="#6f8ce9" stroke-width="59.559"/>
   </g>
  </g>
  <path d="m38.092 77.807-3.6949 2.1332-3.6949-2.1332v-4.2664l3.6949-2.1332 3.6949 2.1332z" fill="#1d232d" stroke="#6f8ce9" stroke-linecap="round" stroke-width=".26459"/>
  <g fill="#e8eaec" stroke-linecap="round" stroke-width=".26459" aria-label="BA">
   <path d="m36.898 81.387h0.7779c0.54083 0 0.91867-0.23337 0.91867-0.71123 0-0.33339-0.20744-0.52601-0.56306-0.58158v-0.01482c0.28894-0.07409 0.426-0.28894 0.426-0.52972 0-0.426-0.3445-0.59269-0.83717-0.59269h-0.72234zm0.31116-1.3928v-0.79272h0.37414c0.37414 0 0.57046 0.11113 0.57046 0.37414 0 0.27041-0.1741 0.41859-0.58528 0.41859zm0 1.1483v-0.91867h0.42229c0.426 0 0.65937 0.13706 0.65937 0.43711 0 0.32968-0.24448 0.48156-0.65937 0.48156z"/>
   <path d="m39.365 80.398 0.11854-0.37043c0.0852-0.27042 0.16299-0.53712 0.24078-0.81865h0.01482c0.07779 0.28153 0.15558 0.54824 0.24078 0.81865l0.11483 0.37043zm1.0409 0.98905h0.32598l-0.82236-2.43h-0.3482l-0.82236 2.43h0.31487l0.23337-0.74086h0.88533z"/>
  </g>
 </g>
 <path d="m54.491 75.806h-14.983" fill="none" stroke="#7b8694" stroke-linecap="round" stroke-width=".26459"/>
 <g>
  <g transform="matrix(-.004405 0 0 -.0044804 40.51 77.011)" fill="#7b8694" stroke-width="59.559">
   <g fill="#7b8694" stroke-width="59.559">
    <path d="m486.41 221.41-364.07-208.5c-52.938-30.318-95.852-5.44-95.852 55.563v415.65c0 61.004 42.914 85.882 95.852 55.563l364.07-208.49c52.938-30.317 52.938-79.473 0-109.79z" fill="#7b8694" stroke-width="59.559"/>
   </g>
  </g>
  <g stroke-width=".26459">
   <g stroke-linecap="round">
    <path d="m61.905 77.807-3.6948 2.1332-3.6949-2.1332v-4.2664l3.6949-2.1332 3.6948 2.1332z" fill="#1d232d" stroke="#6f8ce9"/>
    <g fill="#e8eaec" aria-label="#a8c">
     <path d="m55.166 70.539h0.20003l0.09261-0.75568h0.48897l-0.0889 0.75568h0.19633l0.09261-0.75568h0.3408v-0.21114h-0.31487l0.06668-0.54824h0.32228v-0.21485h-0.30005l0.0889-0.67789h-0.19633l-0.0889 0.67789h-0.49267l0.0852-0.67789h-0.19634l-0.0852 0.67789h-0.3408v0.21485h0.31487l-0.06668 0.54824h-0.32228v0.21114h0.29634zm0.31857-0.96682 0.06668-0.54824h0.48897l-0.06668 0.54824z"/>
     <path d="m56.885 70.072c0 0.32228 0.22596 0.5112 0.52972 0.5112 0.22226 0 0.42229-0.11854 0.59639-0.2593h0.0074l0.02593 0.21485h0.25189v-1.1039c0-0.44822-0.18522-0.74086-0.62603-0.74086-0.28894 0-0.54083 0.12595-0.70752 0.23337l0.12224 0.21114c0.14076-0.09631 0.32598-0.19262 0.53712-0.19262 0.29264 0 0.37043 0.22226 0.37043 0.45193-0.76679 0.0852-1.1076 0.28153-1.1076 0.67418zm0.30005-0.02222c0-0.22967 0.20374-0.37784 0.80754-0.45193v0.50008c-0.1741 0.15558-0.31857 0.24078-0.49267 0.24078-0.17781 0-0.31487-0.0852-0.31487-0.28894z"/>
     <path d="m58.992 69.905c0-0.21485 0.14076-0.38895 0.32968-0.5149 0.3408 0.13706 0.64085 0.24819 0.64085 0.55194 0 0.24448-0.18892 0.41488-0.46304 0.41488-0.28894 0-0.50749-0.18892-0.50749-0.45193zm0.66678-0.65566c-0.28523-0.11113-0.54453-0.22967-0.54453-0.5112 0-0.22967 0.16299-0.38154 0.38154-0.38154 0.2593 0 0.41118 0.18522 0.41118 0.41859 0 0.1741-0.0889 0.33339-0.24819 0.47415zm-0.9409 0.6853c0 0.37414 0.32968 0.64825 0.7742 0.64825 0.45934 0 0.76309-0.27782 0.76309-0.62973 0-0.31857-0.20003-0.48526-0.41118-0.60751v-0.01482c0.14447-0.11113 0.32598-0.32228 0.32598-0.57046 0-0.36673-0.2556-0.62973-0.66678-0.62973-0.38154 0-0.67048 0.24448-0.67048 0.60751 0 0.24819 0.15558 0.42229 0.32968 0.54453v0.01482c-0.22226 0.11854-0.44452 0.32968-0.44452 0.63714z"/>
     <path d="m60.574 69.642c0 0.59639 0.36673 0.9409 0.84458 0.9409 0.21485 0 0.42229-0.0889 0.58528-0.23337l-0.13706-0.20003c-0.10742 0.09631-0.25189 0.18151-0.42229 0.18151-0.32968 0-0.55565-0.27782-0.55565-0.689 0-0.41488 0.23708-0.69641 0.56306-0.69641 0.14447 0 0.2556 0.06668 0.36302 0.15929l0.15188-0.19633c-0.12224-0.11483-0.28894-0.21485-0.52601-0.21485-0.46304 0-0.86681 0.3445-0.86681 0.9483z"/>
    </g>
    <g fill="#e8eaec" aria-label="BB">
     <path d="m60.711 81.387h0.7779c0.54083 0 0.91867-0.23337 0.91867-0.71123 0-0.33339-0.20744-0.52601-0.56306-0.58158v-0.01482c0.28894-0.07409 0.426-0.28894 0.426-0.52972 0-0.426-0.3445-0.59269-0.83717-0.59269h-0.72234zm0.31116-1.3928v-0.79272h0.37414c0.37414 0 0.57046 0.11113 0.57046 0.37414 0 0.27041-0.1741 0.41859-0.58528 0.41859zm0 1.1483v-0.91867h0.42229c0.426 0 0.65937 0.13706 0.65937 0.43711 0 0.32968-0.24448 0.48156-0.65937 0.48156z"/>
     <path d="m62.874 81.387h0.7779c0.54083 0 0.91867-0.23337 0.91867-0.71123 0-0.33339-0.20744-0.52601-0.56306-0.58158v-0.01482c0.28894-0.07409 0.426-0.28894 0.426-0.52972 0-0.426-0.3445-0.59269-0.83717-0.59269h-0.72234zm0.31116-1.3928v-0.79272h0.37414c0.37414 0 0.57046 0.11113 0.57046 0.37414 0 0.27041-0.1741 0.41859-0.58528 0.41859zm0 1.1483v-0.91867h0.42229c0.426 0 0.65937 0.13706 0.65937 0.43711 0 0.32968-0.24448 0.48156-0.65937 0.48156z"/>
    </g>
   </g>
   <path d="m80.965 73.188c-1.4503 0-2.6178 1.1675-2.6178 2.6178 0 1.4503 1.1675 2.6178 2.6178 2.6178h5.8211c1.4503 0 2.6178-1.1675 2.6178-2.6178 0-1.4503-1.1675-2.6178-2.6178-2.6178z" fill="#1d232d" stroke="#7893ea"/>
  </g>
 </g>
 <path d="m78.304 75.806h-14.983" fill="none" stroke="#6f8ce9" stroke-linecap="round" stroke-width=".26459"/>
 <g transform="matrix(-.004405 0 0 -.0044804 64.323 77.011)" fill="#6f8ce9" stroke-width="59.559">
  <g fill="#6f8ce9" stroke-width="59.559">
   <path d="m486.41 221.41-364.07-208.5c-52.938-30.318-95.852-5.44-95.852 55.563v415.65c0 61.004 42.914 85.882 95.852 55.563l364.07-208.49c52.938-30.317 52.938-79.473 0-109.79z" fill="#6f8ce9" stroke-width="59.559"/>
  </g>
 </g>
 <g fill="#e8eaec" stroke-linecap="round" stroke-width=".26459" aria-label="dev">
  <path d="m81.11 76.039c0 0.6001 0.29264 0.9409 0.74457 0.9409 0.21114 0 0.40377-0.11854 0.54453-0.2556h0.01111l0.02593 0.21114h0.25189v-2.6375h-0.30746v0.69271l0.01482 0.30746c-0.15928-0.12965-0.29634-0.20744-0.50379-0.20744-0.41118 0-0.78161 0.36302-0.78161 0.9483zm0.31487-0.0037c0-0.41118 0.22967-0.689 0.5186-0.689 0.14817 0 0.28523 0.05186 0.43711 0.18892v0.9409c-0.14817 0.16669-0.29264 0.24819-0.45934 0.24819-0.31487 0-0.49638-0.2593-0.49638-0.689z"/>
  <path d="m83.161 76.039c0 0.58899 0.38154 0.9409 0.8631 0.9409 0.24448 0 0.43711-0.0852 0.59269-0.18522l-0.10742-0.20003c-0.13336 0.0852-0.27782 0.14076-0.44822 0.14076-0.3445 0-0.57787-0.24448-0.6001-0.63344h1.215c0.0074-0.04445 0.01111-0.10372 0.01111-0.16669 0-0.5149-0.2593-0.84458-0.71864-0.84458-0.41118 0-0.80754 0.35932-0.80754 0.9483zm0.29634-0.13706c0.03704-0.36302 0.26671-0.57046 0.5186-0.57046 0.28153 0 0.44452 0.20374 0.44452 0.57046z"/>
  <path d="m85.543 76.936h0.35561l0.63714-1.8003h-0.30005l-0.3408 1.0224c-0.05186 0.17781-0.11113 0.35932-0.16299 0.52972h-0.01482c-0.05557-0.1704-0.11483-0.35191-0.16669-0.52972l-0.3408-1.0224h-0.31487z"/>
 </g>
 <path d="m34.381 71.156v-9.6907" fill="none" stroke="#7b8694" stroke-linecap="round" stroke-width=".26459"/>
 <g transform="matrix(0 -.004405 .0044804 0 33.176 62.467)" fill="#7b8694" stroke-width="59.559">
  <g fill="#7b8694" stroke-width="59.559">
   <path d="m486.41 221.41-364.07-208.5c-52.938-30.318-95.852-5.44-95.852 55.563v415.65c0 61.004 42.914 85.882 95.852 55.563l364.07-208.49c52.938-30.317 52.938-79.473 0-109.79z" fill="#7b8694" stroke-width="59.559"/>
  </g>
 </g>
 <g fill="#e8eaec" stroke-linecap="round" stroke-width=".26459" aria-label="#468">
  <path d="m31.352 70.539h0.20003l0.09261-0.75568h0.48897l-0.0889 0.75568h0.19633l0.09261-0.75568h0.3408v-0.21114h-0.31487l0.06668-0.54824h0.32228v-0.21485h-0.30005l0.0889-0.67789h-0.19633l-0.0889 0.67789h-0.49267l0.0852-0.67789h-0.19633l-0.0852 0.67789h-0.3408v0.21485h0.31487l-0.06668 0.54824h-0.32228v0.21114h0.29634zm0.31857-0.96682 0.06668-0.54824h0.48897l-0.06668 0.54824z"/>
  <path d="m33.242 69.642 0.55194-0.80754c0.06668-0.11483 0.13336-0.21855 0.19262-0.33339h0.01482c-0.0074 0.12595-0.01852 0.32968-0.01852 0.45563v0.6853zm1.3521 0h-0.32228v-1.4669h-0.3408l-1.0113 1.5114v0.20003h1.0631v0.65196h0.28894v-0.65196h0.32228z"/>
  <path d="m35.687 70.342c-0.30005 0-0.48156-0.24819-0.5186-0.70752 0.15929-0.22226 0.3445-0.31116 0.49267-0.31116 0.29264 0 0.43711 0.19262 0.43711 0.50008 0 0.31116-0.17781 0.5186-0.41118 0.5186zm0.65566-1.9596c-0.13336-0.14447-0.31487-0.25189-0.57046-0.25189-0.47045 0-0.90015 0.36673-0.90015 1.315 0 0.75938 0.35191 1.1372 0.81495 1.1372 0.38154 0 0.70011-0.30746 0.70011-0.75938 0-0.48526-0.26671-0.72975-0.67418-0.72975-0.19262 0-0.40377 0.11483-0.55194 0.29634 0.01482-0.74827 0.29264-1.0039 0.62232-1.0039 0.14817 0 0.29264 0.07038 0.38895 0.18522z"/>
  <path d="m36.958 69.905c0-0.21485 0.14076-0.38895 0.32968-0.5149 0.3408 0.13706 0.64084 0.24819 0.64084 0.55194 0 0.24448-0.18892 0.41488-0.46304 0.41488-0.28894 0-0.50749-0.18892-0.50749-0.45193zm0.66678-0.65566c-0.28523-0.11113-0.54453-0.22967-0.54453-0.5112 0-0.22967 0.16299-0.38154 0.38154-0.38154 0.2593 0 0.41118 0.18522 0.41118 0.41859 0 0.1741-0.0889 0.33339-0.24819 0.47415zm-0.9409 0.6853c0 0.37414 0.32968 0.64825 0.7742 0.64825 0.45933 0 0.76309-0.27782 0.76309-0.62973 0-0.31857-0.20003-0.48526-0.41118-0.60751v-0.01482c0.14447-0.11113 0.32598-0.32228 0.32598-0.57046 0-0.36673-0.2556-0.62973-0.66678-0.62973-0.38154 0-0.67048 0.24448-0.67048 0.60751 0 0.24819 0.15558 0.42229 0.32968 0.54453v0.01482c-0.22226 0.11854-0.44452 0.32968-0.44452 0.63714z"/>
 </g>
 <path d="m54.491 55.962h-14.983" fill="none" stroke="#7b8694" stroke-linecap="round" stroke-width=".26459"/>
 <g>
  <g transform="matrix(-.004405 0 0 -.0044804 40.51 57.167)" fill="#7b8694" stroke-width="59.559">
   <g fill="#7b8694" stroke-width="59.559">
    <path d="m486.41 221.41-364.07-208.5c-52.938-30.318-95.852-5.44-95.852 55.563v415.65c0 61.004 42.914 85.882 95.852 55.563l364.07-208.49c52.938-30.317 52.938-79.473 0-109.79z" fill="#7b8694" stroke-width="59.559"/>
   </g>
  </g>
  <path d="m61.905 57.963-3.6948 2.1332-3.6949-2.1332v-4.2664l3.6949-2.1332 3.6948 2.1332z" fill="#1d232d" stroke="#6f8ce9" stroke-linecap="round" stroke-width=".26459"/>
  <g fill="#e8eaec" stroke-linecap="round" stroke-width=".26459" aria-label="#ba1">
   <path d="m54.901 50.694h0.20003l0.09261-0.75568h0.48897l-0.0889 0.75568h0.19633l0.09261-0.75568h0.3408v-0.21114h-0.31487l0.06668-0.54824h0.32228v-0.21485h-0.30005l0.0889-0.67789h-0.19633l-0.0889 0.67789h-0.49267l0.0852-0.67789h-0.19633l-0.0852 0.67789h-0.3408v0.21485h0.31487l-0.06668 0.54824h-0.32228v0.21114h0.29634zm0.31857-0.96682 0.06668-0.54824h0.48897l-0.06668 0.54824z"/>
   <path d="m56.709 50.694h0.24448l0.02593-0.17781h0.01111c0.15928 0.14076 0.3482 0.22226 0.5149 0.22226 0.41118 0 0.7779-0.35932 0.7779-0.97423 0-0.55565-0.24819-0.91496-0.71493-0.91496-0.20003 0-0.40007 0.10742-0.56306 0.25189l0.0074-0.32598v-0.71864h-0.30375zm0.30375-0.40006v-0.9446c0.1704-0.15928 0.32968-0.24448 0.48156-0.24448 0.3408 0 0.47415 0.26671 0.47415 0.66307 0 0.44452-0.21855 0.71493-0.5149 0.71493-0.11854 0-0.28153-0.05186-0.44081-0.18892z"/>
   <path d="m58.624 50.227c0 0.32228 0.22596 0.5112 0.52972 0.5112 0.22226 0 0.42229-0.11854 0.59639-0.2593h0.0074l0.02593 0.21485h0.25189v-1.1039c0-0.44822-0.18522-0.74086-0.62603-0.74086-0.28894 0-0.54083 0.12595-0.70752 0.23337l0.12224 0.21114c0.14076-0.09631 0.32598-0.19262 0.53712-0.19262 0.29264 0 0.37043 0.22226 0.37043 0.45193-0.76679 0.0852-1.1076 0.28153-1.1076 0.67418zm0.30005-0.02222c0-0.22967 0.20374-0.37784 0.80754-0.45193v0.50008c-0.1741 0.15558-0.31857 0.24078-0.49267 0.24078-0.17781 0-0.31487-0.0852-0.31487-0.28894z"/>
   <path d="m60.598 50.694h1.3336v-0.25189h-0.48897v-2.1115h-0.23337c-0.12965 0.07779-0.28523 0.13706-0.50008 0.1741v0.19633h0.4297v1.741h-0.54083z"/>
  </g>
 </g>
 <path d="m78.304 55.962h-14.983" fill="none" stroke="#7b8694" stroke-linecap="round" stroke-width=".26459"/>
 <g transform="matrix(-.004405 0 0 -.0044804 64.323 57.167)" fill="#7b8694" stroke-width="59.559">
  <g fill="#7b8694" stroke-width="59.559">
   <path d="m486.41 221.41-364.07-208.5c-52.938-30.318-95.852-5.44-95.852 55.563v415.65c0 61.004 42.914 85.882 95.852 55.563l364.07-208.49c52.938-30.317 52.938-79.473 0-109.79z" fill="#7b8694" stroke-width="59.559"/>
  </g>
 </g>
 <path d="m85.719 57.963-3.6948 2.1332-3.6949-2.1332v-4.2664l3.6949-2.1332 3.6949 2.1332z" fill="#1d232d" stroke="#6f8ce9" stroke-linecap="round" stroke-width=".26459"/>
 <g fill="#e8eaec" stroke-linecap="round" stroke-width=".26459">
  <g aria-label="#cc2">
   <path d="m78.979 50.694h0.20003l0.09261-0.75568h0.48897l-0.0889 0.75568h0.19633l0.09261-0.75568h0.3408v-0.21114h-0.31487l0.06668-0.54824h0.32228v-0.21485h-0.30005l0.0889-0.67789h-0.19634l-0.0889 0.67789h-0.49267l0.0852-0.67789h-0.19633l-0.0852 0.67789h-0.3408v0.21485h0.31487l-0.06668 0.54824h-0.32227v0.21114h0.29634zm0.31857-0.96682 0.06668-0.54824h0.48897l-0.06668 0.54824z"/>
   <path d="m80.654 49.798c0 0.59639 0.36673 0.9409 0.84458 0.9409 0.21485 0 0.42229-0.0889 0.58528-0.23337l-0.13706-0.20003c-0.10742 0.09631-0.25189 0.18151-0.42229 0.18151-0.32968 0-0.55565-0.27782-0.55565-0.689 0-0.41488 0.23708-0.69641 0.56306-0.69641 0.14447 0 0.2556 0.06668 0.36302 0.15929l0.15188-0.19633c-0.12224-0.11483-0.28894-0.21485-0.52601-0.21485-0.46304 0-0.86681 0.3445-0.86681 0.9483z"/>
   <path d="m82.26 49.798c0 0.59639 0.36673 0.9409 0.84458 0.9409 0.21485 0 0.42229-0.0889 0.58528-0.23337l-0.13706-0.20003c-0.10742 0.09631-0.25189 0.18151-0.42229 0.18151-0.32968 0-0.55565-0.27782-0.55565-0.689 0-0.41488 0.23708-0.69641 0.56306-0.69641 0.14447 0 0.2556 0.06668 0.36302 0.15929l0.15188-0.19633c-0.12224-0.11483-0.28894-0.21485-0.52601-0.21485-0.46304 0-0.86681 0.3445-0.86681 0.9483z"/>
   <path d="m83.924 50.694h1.5262v-0.26301h-0.6853c-0.12224 0-0.26671 0.01111-0.39636 0.02223 0.55935-0.58528 0.96312-1.0261 0.96312-1.4706 0-0.41859-0.27042-0.69641-0.70752-0.69641-0.30746 0-0.5186 0.14447-0.71493 0.35932l0.1741 0.1741c0.13706-0.15929 0.30746-0.28523 0.50379-0.28523 0.30005 0 0.44822 0.19262 0.44822 0.46304 0 0.38154-0.40006 0.80754-1.1113 1.5151z"/>
  </g>
  <g stroke="#cf2f25" aria-label="C">
   <path d="m60.57 60.327c0 0.79272 0.45563 1.2595 1.0668 1.2595 0.30746 0 0.54824-0.12965 0.73716-0.35191l-0.1741-0.18892c-0.15558 0.1741-0.32598 0.27041-0.55565 0.27041-0.46304 0-0.75568-0.38525-0.75568-0.99646 0-0.6038 0.30746-0.98164 0.7705-0.98164 0.20003 0 0.35561 0.0889 0.48526 0.22596l0.1741-0.19633c-0.14447-0.15928-0.37414-0.30005-0.66307-0.30005-0.62232 0-1.0854 0.47786-1.0854 1.2595z" fill="#e8eaec" stroke="none"/>
  </g>
  <g stroke="#cf2f25" aria-label="D">
   <path d="m84.525 61.542h0.62232c0.73345 0 1.1335-0.45192 1.1335-1.2261 0-0.7705-0.40006-1.2039-1.1483-1.2039h-0.60751zm0.31116-0.25189v-1.9262h0.27412c0.57046 0 0.85199 0.3408 0.85199 0.95201 0 0.61492-0.28153 0.97423-0.85199 0.97423z" fill="#e8eaec" stroke="none"/>
  </g>
 </g>
 <path d="m102.12 55.962h-14.983" fill="none" stroke="#7b8694" stroke-linecap="round" stroke-width=".26459"/>
 <g>
  <g transform="matrix(-.004405 0 0 -.0044804 88.136 57.167)" fill="#7b8694" stroke-width="59.559">
   <g fill="#7b8694" stroke-width="59.559">
    <path d="m486.41 221.41-364.07-208.5c-52.938-30.318-95.852-5.44-95.852 55.563v415.65c0 61.004 42.914 85.882 95.852 55.563l364.07-208.49c52.938-30.317 52.938-79.473 0-109.79z" fill="#7b8694" stroke-width="59.559"/>
   </g>
  </g>
  <g stroke-linecap="round" stroke-width=".26459">
   <path d="m109.53 57.963-3.6948 2.1332-3.6948-2.1332v-4.2664l3.6948-2.1332 3.6948 2.1332z" fill="#1d232d" stroke="#6f8ce9"/>
   <g fill="#e8eaec" aria-label="#6a8">
    <path d="m102.79 50.694h0.20003l0.0926-0.75568h0.48897l-0.0889 0.75568h0.19632l0.0926-0.75568h0.3408v-0.21114h-0.31487l0.0667-0.54824h0.32228v-0.21485h-0.30005l0.0889-0.67789h-0.19633l-0.0889 0.67789h-0.49268l0.0852-0.67789h-0.19632l-0.0852 0.67789h-0.3408v0.21485h0.31487l-0.0667 0.54824h-0.32228v0.21114h0.29635zm0.31857-0.96682 0.0667-0.54824h0.48897l-0.0667 0.54824z"/>
    <path d="m105.29 50.498c-0.30005 0-0.48156-0.24819-0.5186-0.70752 0.15928-0.22226 0.3445-0.31116 0.49267-0.31116 0.29264 0 0.43711 0.19262 0.43711 0.50008 0 0.31116-0.17781 0.5186-0.41118 0.5186zm0.65567-1.9596c-0.13336-0.14447-0.31487-0.25189-0.57047-0.25189-0.47045 0-0.90015 0.36673-0.90015 1.315 0 0.75938 0.35191 1.1372 0.81495 1.1372 0.38155 0 0.70012-0.30746 0.70012-0.75938 0-0.48526-0.26671-0.72975-0.67419-0.72975-0.19262 0-0.40377 0.11483-0.55194 0.29634 0.0148-0.74827 0.29264-1.0039 0.62232-1.0039 0.14818 0 0.29265 0.07038 0.38896 0.18522z"/>
    <path d="m106.35 50.227c0 0.32228 0.22597 0.5112 0.52972 0.5112 0.22226 0 0.42229-0.11854 0.59639-0.2593h7e-3l0.0259 0.21485h0.25189v-1.1039c0-0.44822-0.18521-0.74086-0.62602-0.74086-0.28894 0-0.54083 0.12595-0.70753 0.23337l0.12225 0.21114c0.14076-0.09631 0.32597-0.19262 0.53712-0.19262 0.29264 0 0.37043 0.22226 0.37043 0.45193-0.76679 0.0852-1.1076 0.28153-1.1076 0.67418zm0.30005-0.02222c0-0.22967 0.20374-0.37784 0.80754-0.45193v0.50008c-0.1741 0.15558-0.31857 0.24078-0.49267 0.24078-0.17781 0-0.31487-0.0852-0.31487-0.28894z"/>
    <path d="m108.46 50.061c0-0.21485 0.14077-0.38895 0.32969-0.5149 0.34079 0.13706 0.64084 0.24819 0.64084 0.55194 0 0.24448-0.18892 0.41488-0.46304 0.41488-0.28893 0-0.50749-0.18892-0.50749-0.45193zm0.66678-0.65566c-0.28523-0.11113-0.54453-0.22967-0.54453-0.5112 0-0.22967 0.16298-0.38154 0.38154-0.38154 0.2593 0 0.41118 0.18522 0.41118 0.41859 0 0.1741-0.0889 0.33339-0.24819 0.47415zm-0.9409 0.6853c0 0.37414 0.32969 0.64825 0.7742 0.64825 0.45934 0 0.76309-0.27782 0.76309-0.62973 0-0.31857-0.20003-0.48526-0.41118-0.60751v-0.01482c0.14447-0.11113 0.32598-0.32228 0.32598-0.57046 0-0.36673-0.25559-0.62973-0.66677-0.62973-0.38155 0-0.67048 0.24448-0.67048 0.60751 0 0.24819 0.15558 0.42229 0.32968 0.54453v0.01482c-0.22226 0.11854-0.44452 0.32968-0.44452 0.63714z"/>
   </g>
   <g fill="#e8eaec" stroke="#cf2f25" aria-label="E">
    <path d="m108.34 61.542h1.4373v-0.26301h-1.1261v-0.88162h0.91867v-0.26301h-0.91867v-0.76309h1.0891v-0.2593h-1.4002z" fill="#e8eaec" stroke="none"/>
   </g>
  </g>
 </g>
 <path d="m149.74 55.962h-14.983" fill="none" stroke="#6f8ce9" stroke-linecap="round" stroke-width=".26459"/>
 <g>
  <g transform="matrix(-.004405 0 0 -.0044804 135.76 57.167)" fill="#6f8ce9" stroke-width="59.559">
   <g fill="#6f8ce9" stroke-width="59.559">
    <path d="m486.41 221.41-364.07-208.5c-52.938-30.318-95.852-5.44-95.852 55.563v415.65c0 61.004 42.914 85.882 95.852 55.563l364.07-208.49c52.938-30.317 52.938-79.473 0-109.79z" fill="#6f8ce9" stroke-width="59.559"/>
   </g>
  </g>
  <path d="m152.41 53.344c-1.4503 0-2.6178 1.1675-2.6178 2.6178s1.1675 2.6178 2.6178 2.6178h11.113c1.4503 0 2.6178-1.1675 2.6178-2.6178s-1.1675-2.6178-2.6178-2.6178z" fill="#1d232d" stroke="#7893ea" stroke-width=".26459"/>
  <g fill="#e8eaec" stroke-linecap="round" stroke-width=".26459" aria-label="master">
   <path d="m152.94 57.091h0.30376v-1.3039c0.16669-0.18522 0.31857-0.27782 0.45192-0.27782 0.22967 0 0.3371 0.14447 0.3371 0.48156v1.1002h0.30375v-1.3039c0.16669-0.18522 0.31116-0.27782 0.45192-0.27782 0.22597 0 0.33339 0.14447 0.33339 0.48156v1.1002h0.30376v-1.1409c0-0.45934-0.17781-0.70382-0.54824-0.70382-0.21856 0-0.40377 0.14076-0.59269 0.3445-0.0741-0.21485-0.22226-0.3445-0.49638-0.3445-0.21485 0-0.40377 0.13336-0.55935 0.30375h-0.0111l-0.0259-0.2593h-0.2519z"/>
   <path d="m155.92 56.625c0 0.32228 0.22597 0.5112 0.52972 0.5112 0.22226 0 0.42229-0.11854 0.59639-0.2593h7e-3l0.0259 0.21485h0.25189v-1.1039c0-0.44822-0.18521-0.74086-0.62602-0.74086-0.28894 0-0.54083 0.12595-0.70753 0.23337l0.12225 0.21115c0.14076-0.09631 0.32597-0.19262 0.53712-0.19262 0.29264 0 0.37043 0.22226 0.37043 0.45193-0.76679 0.0852-1.1076 0.28153-1.1076 0.67418zm0.30005-0.02223c0-0.22967 0.20374-0.37784 0.80754-0.45193v0.50008c-0.1741 0.15558-0.31857 0.24078-0.49267 0.24078-0.17781 0-0.31487-0.0852-0.31487-0.28894z"/>
   <path d="m157.71 56.888c0.1704 0.14076 0.41488 0.24819 0.67048 0.24819 0.42599 0 0.65937-0.24448 0.65937-0.53712 0-0.3408-0.28894-0.44822-0.54824-0.54453-0.20374-0.07779-0.40007-0.14447-0.40007-0.31116 0-0.13706 0.10372-0.2593 0.32969-0.2593 0.15928 0 0.28893 0.06668 0.41117 0.15928l0.14447-0.19262c-0.13706-0.11113-0.33339-0.20374-0.55935-0.20374-0.38895 0-0.61862 0.22226-0.61862 0.5112 0 0.30375 0.28153 0.426 0.53713 0.5186 0.19633 0.07409 0.41117 0.15558 0.41117 0.3408 0 0.15558-0.11853 0.28153-0.35561 0.28153-0.21485 0-0.37413-0.0889-0.52972-0.21485z"/>
   <path d="m159.52 56.536c0 0.35561 0.12965 0.6001 0.5149 0.6001 0.11113 0 0.23337-0.03334 0.33339-0.06668l-0.0593-0.22967c-0.0593 0.02223-0.14076 0.04816-0.20374 0.04816-0.20744 0-0.27782-0.12595-0.27782-0.3482v-1.0002h0.48526v-0.24819h-0.48526v-0.50379h-0.2556l-0.037 0.50379-0.28153 0.01852v0.22967h0.26671z"/>
   <path d="m160.55 56.195c0 0.58898 0.38155 0.9409 0.86311 0.9409 0.24448 0 0.43711-0.0852 0.59269-0.18522l-0.10743-0.20003c-0.13335 0.0852-0.27782 0.14076-0.44822 0.14076-0.3445 0-0.57787-0.24448-0.6001-0.63344h1.215c7e-3 -0.04445 0.0111-0.10372 0.0111-0.16669 0-0.5149-0.2593-0.84458-0.71864-0.84458-0.41118 0-0.80754 0.35932-0.80754 0.9483zm0.29635-0.13706c0.037-0.36302 0.26671-0.57046 0.5186-0.57046 0.28153 0 0.44452 0.20374 0.44452 0.57046z"/>
   <path d="m162.52 57.091h0.30376v-1.1557c0.12224-0.30375 0.30375-0.41488 0.45563-0.41488 0.0741 0 0.11483 0.01111 0.1741 0.02963l0.0593-0.26671c-0.0593-0.02593-0.11483-0.03704-0.19263-0.03704-0.20373 0-0.38895 0.14447-0.51119 0.37043h-0.0111l-0.0259-0.32598h-0.2519z"/>
  </g>
  <g transform="matrix(-.004405 0 0 -.0044804 130.47 57.431)" fill="#6f8ce9" stroke-width="59.559">
   <g fill="#6f8ce9" stroke-width="59.559">
    <path d="m486.41 221.41-364.07-208.5c-52.938-30.318-95.852-5.44-95.852 55.563v415.65c0 61.004 42.914 85.882 95.852 55.563l364.07-208.49c52.938-30.317 52.938-79.473 0-109.79z" fill="#6f8ce9" stroke-width="59.559"/>
   </g>
  </g>
 </g>
 <path d="m125.93 55.962h-14.983" fill="none" stroke="#7b8694" stroke-linecap="round" stroke-width=".26459"/>
 <g>
  <g transform="matrix(-.004405 0 0 -.0044804 111.95 57.167)" fill="#7b8694" stroke-width="59.559">
   <g fill="#7b8694" stroke-width="59.559">
    <path d="m486.41 221.41-364.07-208.5c-52.938-30.318-95.852-5.44-95.852 55.563v415.65c0 61.004 42.914 85.882 95.852 55.563l364.07-208.49c52.938-30.317 52.938-79.473 0-109.79z" fill="#7b8694" stroke-width="59.559"/>
   </g>
  </g>
  <g stroke-linecap="round" stroke-width=".26459">
   <path d="m133.35 57.963-3.6948 2.1332-3.6948-2.1332v-4.2664l3.6948-2.1332 3.6948 2.1332z" fill="#1d232d" stroke="#6f8ce9"/>
   <g fill="#e8eaec" aria-label="#78c">
    <path d="m126.61 50.694h0.20003l0.0926-0.75568h0.48897l-0.0889 0.75568h0.19633l0.0926-0.75568h0.3408v-0.21114h-0.31487l0.0667-0.54824h0.32227v-0.21485h-0.30005l0.0889-0.67789h-0.19633l-0.0889 0.67789h-0.49267l0.0852-0.67789h-0.19633l-0.0852 0.67789h-0.34079v0.21485h0.31486l-0.0667 0.54824h-0.32227v0.21114h0.29634zm0.31857-0.96682 0.0667-0.54824h0.48897l-0.0667 0.54824z"/>
    <path d="m128.77 50.694h0.31486c0.0408-0.92237 0.15558-1.4595 0.71493-2.1744v-0.18892h-1.5225v0.26301h1.178c-0.46674 0.64825-0.64455 1.2113-0.68529 2.1003z"/>
    <path d="m130.37 50.061c0-0.21485 0.14077-0.38895 0.32969-0.5149 0.34079 0.13706 0.64084 0.24819 0.64084 0.55194 0 0.24448-0.18892 0.41488-0.46304 0.41488-0.28893 0-0.50749-0.18892-0.50749-0.45193zm0.66678-0.65566c-0.28523-0.11113-0.54453-0.22967-0.54453-0.5112 0-0.22967 0.16299-0.38154 0.38154-0.38154 0.2593 0 0.41118 0.18522 0.41118 0.41859 0 0.1741-0.0889 0.33339-0.24819 0.47415zm-0.94089 0.6853c0 0.37414 0.32968 0.64825 0.7742 0.64825 0.45933 0 0.76308-0.27782 0.76308-0.62973 0-0.31857-0.20003-0.48526-0.41117-0.60751v-0.01482c0.14446-0.11113 0.32597-0.32228 0.32597-0.57046 0-0.36673-0.25559-0.62973-0.66677-0.62973-0.38155 0-0.67048 0.24448-0.67048 0.60751 0 0.24819 0.15558 0.42229 0.32968 0.54453v0.01482c-0.22226 0.11854-0.44451 0.32968-0.44451 0.63714z"/>
    <path d="m131.96 49.798c0 0.59639 0.36673 0.9409 0.84458 0.9409 0.21485 0 0.4223-0.0889 0.58529-0.23337l-0.13706-0.20003c-0.10743 0.09631-0.2519 0.18151-0.4223 0.18151-0.32968 0-0.55564-0.27782-0.55564-0.689 0-0.41488 0.23707-0.69641 0.56305-0.69641 0.14447 0 0.2556 0.06668 0.36303 0.15929l0.15187-0.19633c-0.12224-0.11483-0.28893-0.21485-0.52601-0.21485-0.46304 0-0.86681 0.3445-0.86681 0.9483z"/>
   </g>
   <g fill="#e8eaec" aria-label="EBB">
    <path d="m132.15 61.542h1.4373v-0.26301h-1.1261v-0.88162h0.91867v-0.26301h-0.91867v-0.76309h1.0891v-0.2593h-1.4002z"/>
    <path d="m134.08 61.542h0.7779c0.54083 0 0.91867-0.23337 0.91867-0.71123 0-0.33339-0.20744-0.52601-0.56305-0.58158v-0.01482c0.28893-0.07409 0.42599-0.28894 0.42599-0.52972 0-0.426-0.3445-0.59269-0.83717-0.59269h-0.72234zm0.31116-1.3928v-0.79272h0.37414c0.37413 0 0.57046 0.11113 0.57046 0.37414 0 0.27041-0.1741 0.41859-0.58528 0.41859zm0 1.1483v-0.91867h0.42229c0.426 0 0.65937 0.13706 0.65937 0.43711 0 0.32968-0.24449 0.48156-0.65937 0.48156z"/>
    <path d="m136.25 61.542h0.7779c0.54083 0 0.91867-0.23337 0.91867-0.71123 0-0.33339-0.20744-0.52601-0.56305-0.58158v-0.01482c0.28893-0.07409 0.42599-0.28894 0.42599-0.52972 0-0.426-0.3445-0.59269-0.83717-0.59269h-0.72234zm0.31116-1.3928v-0.79272h0.37413c0.37414 0 0.57047 0.11113 0.57047 0.37414 0 0.27041-0.1741 0.41859-0.58528 0.41859zm0 1.1483v-0.91867h0.42229c0.426 0 0.65937 0.13706 0.65937 0.43711 0 0.32968-0.24449 0.48156-0.65937 0.48156z"/>
   </g>
  </g>
 </g>
 <path d="m125.95 57.946-62.973 15.082" fill="none" stroke="#7b8694" stroke-linecap="square" stroke-width=".26459" style="paint-order:normal"/>
 <g transform="matrix(-.0042297 .0012303 -.0012514 -.0043021 64.494 73.886)" fill="#7b8694" stroke-width="59.559">
  <g fill="#7b8694" stroke-width="59.559">
   <path d="m486.41 221.41-364.07-208.5c-52.938-30.318-95.852-5.44-95.852 55.563v415.65c0 61.004 42.914 85.882 95.852 55.563l364.07-208.49c52.938-30.317 52.938-79.473 0-109.79z" fill="#7b8694" stroke-width="59.559"/>
  </g>
 </g>
 <g fill="#e8eaec" stroke-linecap="round" stroke-width=".26459" aria-label="merge commit">
  <path d="m135.22 68.998h0.30375v-1.3039c0.1667-0.18522 0.31858-0.27782 0.45193-0.27782 0.22967 0 0.33709 0.14447 0.33709 0.48156v1.1002h0.30376v-1.3039c0.16669-0.18522 0.31116-0.27782 0.45192-0.27782 0.22596 0 0.33339 0.14447 0.33339 0.48156v1.1002h0.30375v-1.1409c0-0.45933-0.1778-0.70382-0.54823-0.70382-0.21856 0-0.40377 0.14076-0.59269 0.3445-0.0741-0.21485-0.22226-0.3445-0.49638-0.3445-0.21485 0-0.40377 0.13336-0.55935 0.30375h-0.0111l-0.0259-0.2593h-0.25189z"/>
  <path d="m138.15 68.102c0 0.58898 0.38154 0.94089 0.8631 0.94089 0.24449 0 0.43711-0.0852 0.59269-0.18522l-0.10742-0.20003c-0.13336 0.0852-0.27783 0.14076-0.44823 0.14076-0.3445 0-0.57787-0.24448-0.60009-0.63344h1.215c7e-3 -0.04445 0.0111-0.10372 0.0111-0.16669 0-0.5149-0.2593-0.84458-0.71863-0.84458-0.41118 0-0.80754 0.35932-0.80754 0.9483zm0.29634-0.13706c0.037-0.36302 0.26671-0.57046 0.51861-0.57046 0.28152 0 0.44451 0.20374 0.44451 0.57046z"/>
  <path d="m140.12 68.998h0.30375v-1.1557c0.12224-0.30375 0.30375-0.41488 0.45563-0.41488 0.0741 0 0.11483 0.01111 0.1741 0.02963l0.0593-0.26671c-0.0593-0.02593-0.11483-0.03704-0.19262-0.03704-0.20374 0-0.38895 0.14447-0.5112 0.37043h-0.0111l-0.0259-0.32598h-0.25189z"/>
  <path d="m141.5 69.302c0-0.10372 0.0556-0.21115 0.18522-0.30375 0.0778 0.02223 0.16299 0.02963 0.23337 0.02963h0.31116c0.23337 0 0.36302 0.05557 0.36302 0.22226 0 0.18892-0.22596 0.36673-0.57046 0.36673-0.32598 0-0.52231-0.12224-0.52231-0.31487zm-0.26671 0.04075c0 0.31116 0.30375 0.48526 0.74457 0.48526 0.55935 0 0.91126-0.28894 0.91126-0.62232 0-0.30005-0.21115-0.4297-0.62974-0.4297h-0.3482c-0.24449 0-0.31857-0.0815-0.31857-0.19633 0-0.10002 0.0519-0.15929 0.11483-0.21485 0.0815 0.04075 0.18151 0.06297 0.27042 0.06297 0.36672 0 0.65936-0.24078 0.65936-0.62603 0-0.15188-0.063-0.28894-0.14817-0.37043h0.37043v-0.23337h-0.62603c-0.0667-0.02593-0.15558-0.04445-0.25559-0.04445-0.36673 0-0.67789 0.24819-0.67789 0.64085 0 0.21485 0.11483 0.38895 0.23337 0.48526v0.01482c-0.0926 0.06297-0.19633 0.18151-0.19633 0.33339 0 0.14076 0.0704 0.23708 0.15929 0.29264v0.01482c-0.16299 0.11113-0.26301 0.2556-0.26301 0.40747zm0.74457-1.1187c-0.20745 0-0.38155-0.16669-0.38155-0.4297s0.1704-0.41859 0.38155-0.41859c0.21114 0 0.38154 0.15558 0.38154 0.41859s-0.1741 0.4297-0.38154 0.4297z"/>
  <path d="m143.06 68.102c0 0.58898 0.38155 0.94089 0.86311 0.94089 0.24448 0 0.43711-0.0852 0.59269-0.18522l-0.10743-0.20003c-0.13335 0.0852-0.27782 0.14076-0.44822 0.14076-0.3445 0-0.57787-0.24448-0.6001-0.63344h1.215c7e-3 -0.04445 0.0111-0.10372 0.0111-0.16669 0-0.5149-0.2593-0.84458-0.71864-0.84458-0.41117 0-0.80754 0.35932-0.80754 0.9483zm0.29635-0.13706c0.037-0.36302 0.26671-0.57046 0.5186-0.57046 0.28153 0 0.44452 0.20374 0.44452 0.57046z"/>
  <path d="m145.64 68.102c0 0.59639 0.36673 0.94089 0.84459 0.94089 0.21485 0 0.42229-0.0889 0.58528-0.23337l-0.13706-0.20003c-0.10743 0.09631-0.2519 0.18151-0.42229 0.18151-0.32969 0-0.55565-0.27782-0.55565-0.689 0-0.41488 0.23707-0.69641 0.56305-0.69641 0.14447 0 0.2556 0.06668 0.36303 0.15929l0.15187-0.19633c-0.12224-0.11483-0.28893-0.21485-0.52601-0.21485-0.46304 0-0.86681 0.3445-0.86681 0.9483z"/>
  <path d="m147.25 68.102c0 0.59639 0.39265 0.94089 0.83347 0.94089 0.44081 0 0.83347-0.3445 0.83347-0.94089 0-0.6038-0.39266-0.9483-0.83347-0.9483-0.44082 0-0.83347 0.3445-0.83347 0.9483zm0.31486 0c0-0.41488 0.21115-0.69641 0.51861-0.69641 0.31116 0 0.5186 0.28153 0.5186 0.69641 0 0.41118-0.20744 0.689-0.5186 0.689-0.30746 0-0.51861-0.27782-0.51861-0.689z"/>
  <path d="m149.39 68.998h0.30375v-1.3039c0.16669-0.18522 0.31857-0.27782 0.45193-0.27782 0.22966 0 0.33709 0.14447 0.33709 0.48156v1.1002h0.30375v-1.3039c0.1667-0.18522 0.31116-0.27782 0.45193-0.27782 0.22596 0 0.33339 0.14447 0.33339 0.48156v1.1002h0.30375v-1.1409c0-0.45933-0.17781-0.70382-0.54824-0.70382-0.21855 0-0.40377 0.14076-0.59269 0.3445-0.0741-0.21485-0.22226-0.3445-0.49638-0.3445-0.21485 0-0.40377 0.13336-0.55935 0.30375h-0.0111l-0.0259-0.2593h-0.25189z"/>
  <path d="m152.46 68.998h0.30375v-1.3039c0.1667-0.18522 0.31857-0.27782 0.45193-0.27782 0.22967 0 0.33709 0.14447 0.33709 0.48156v1.1002h0.30376v-1.3039c0.16669-0.18522 0.31116-0.27782 0.45192-0.27782 0.22596 0 0.33339 0.14447 0.33339 0.48156v1.1002h0.30375v-1.1409c0-0.45933-0.1778-0.70382-0.54824-0.70382-0.21855 0-0.40377 0.14076-0.59269 0.3445-0.0741-0.21485-0.22225-0.3445-0.49637-0.3445-0.21485 0-0.40377 0.13336-0.55935 0.30375h-0.0111l-0.0259-0.2593h-0.25189z"/>
  <path d="m155.68 66.827c0.11854 0 0.21115-0.08149 0.21115-0.19633 0-0.11854-0.0926-0.19633-0.21115-0.19633-0.11854 0-0.21114 0.07779-0.21114 0.19633 0 0.11483 0.0926 0.19633 0.21114 0.19633zm-0.15558 2.1707h0.30375v-1.8003h-0.30375z"/>
  <path d="m156.49 68.442c0 0.35561 0.12965 0.6001 0.5149 0.6001 0.11113 0 0.23337-0.03334 0.33339-0.06668l-0.0593-0.22967c-0.0593 0.02223-0.14077 0.04816-0.20374 0.04816-0.20744 0-0.27782-0.12595-0.27782-0.3482v-1.0002h0.48526v-0.24819h-0.48526v-0.50379h-0.2556l-0.037 0.50379-0.28153 0.01852v0.22967h0.26671z"/>
 </g>
 <path d="m157.43 70.024s-24.872 1.5876-29.105-2.6459c-2.0581-2.0581 0-5.2919 0-5.2919" fill="none" stroke="#e9e56f" stroke-linecap="square" stroke-width=".26459" style="paint-order:normal"/>
 <g>
  <g transform="matrix(.0020211 -.0039139 .0039809 .0020558 126.99 61.947)" fill="#e9e56f" stroke-width="59.559">
   <g fill="#e9e56f" stroke-width="59.559">
    <path d="m486.41 221.41-364.07-208.5c-52.938-30.318-95.852-5.44-95.852 55.563v415.65c0 61.004 42.914 85.882 95.852 55.563l364.07-208.49c52.938-30.317 52.938-79.473 0-109.79z" fill="#e9e56f" stroke-width="59.559"/>
   </g>
  </g>
  <rect x="7.9375" y="53.713" width="1.323" height="1.323" fill="#6f8ce9"/>
  <rect x="31.751" y="53.713" width="1.323" height="1.323" fill="#6f8ce9"/>
  <rect x="33.074" y="53.713" width="1.323" height="1.323" fill="#e9e56f"/>
  <rect x="55.564" y="53.713" width="1.323" height="1.323" fill="#6f8ce9"/>
  <rect x="56.887" y="53.713" width="1.323" height="1.323" fill="#6f8ce9"/>
  <rect x="58.21" y="53.713" width="1.323" height="1.323" fill="#e9e56f"/>
 </g>
 <g fill="#6f8ce9">
  <rect x="79.378" y="53.713" width="1.323" height="1.323"/>
  <rect x="80.701" y="53.713" width="1.323" height="1.323"/>
  <rect x="82.024" y="53.713" width="1.323" height="1.323"/>
  <rect x="103.19" y="53.713" width="1.323" height="1.323"/>
  <rect x="104.51" y="53.713" width="1.323" height="1.323"/>
  <rect x="105.84" y="53.713" width="1.323" height="1.323"/>
  <rect x="127" y="53.713" width="1.323" height="1.323"/>
  <rect x="128.33" y="53.713" width="1.323" height="1.323"/>
  <rect x="129.65" y="53.713" width="1.323" height="1.323"/>
 </g>
 <g>
  <rect x="83.347" y="53.713" width="1.323" height="1.323" fill="#e9e56f"/>
  <rect x="107.16" y="53.713" width="1.323" height="1.323" fill="#6f8ce9"/>
  <rect x="107.16" y="55.036" width="1.323" height="1.323" fill="#e9e56f"/>
 </g>
 <g fill="#6f8ce9">
  <rect x="130.97" y="53.713" width="1.323" height="1.323"/>
  <rect x="130.97" y="55.036" width="1.323" height="1.323"/>
  <rect x="31.751" y="73.557" width="1.323" height="1.323"/>
  <rect x="33.074" y="73.557" width="1.323" height="1.323"/>
 </g>
 <g>
  <rect x="31.751" y="74.88" width="1.323" height="1.323" fill="#e9e56f"/>
  <rect x="55.564" y="74.88" width="1.323" height="1.323" fill="#6f8ce9"/>
  <rect x="56.887" y="74.88" width="1.323" height="1.323" fill="#e9e56f"/>
 </g>
 <g fill="#6f8ce9">
  <rect x="56.887" y="73.557" width="1.323" height="1.323"/>
  <rect x="55.564" y="73.557" width="1.323" height="1.323"/>
  <rect x="128.33" y="55.036" width="1.323" height="1.323"/>
  <rect x="127" y="55.036" width="1.323" height="1.323"/>
  <rect x="7.9375" y="8.2024" width="1.323" height="1.323"/>
  <rect x="31.751" y="8.2024" width="1.323" height="1.323"/>
 </g>
 <g>
  <rect x="33.074" y="8.2024" width="1.323" height="1.323" fill="#e9e56f"/>
  <rect x="55.564" y="8.2024" width="1.323" height="1.323" fill="#6f8ce9"/>
  <rect x="56.887" y="8.2024" width="1.323" height="1.323" fill="#6f8ce9"/>
  <rect x="58.21" y="8.2024" width="1.323" height="1.323" fill="#e9e56f"/>
 </g>
 <g fill="#6f8ce9">
  <rect x="79.378" y="8.2024" width="1.323" height="1.323"/>
  <rect x="80.701" y="8.2024" width="1.323" height="1.323"/>
  <rect x="82.024" y="8.2024" width="1.323" height="1.323"/>
  <rect x="103.19" y="8.2024" width="1.323" height="1.323"/>
  <rect x="104.51" y="8.2024" width="1.323" height="1.323"/>
  <rect x="105.84" y="8.2024" width="1.323" height="1.323"/>
 </g>
 <g>
  <rect x="83.347" y="8.2024" width="1.323" height="1.323" fill="#e9e56f"/>
  <rect x="107.16" y="8.2024" width="1.323" height="1.323" fill="#6f8ce9"/>
  <rect x="107.16" y="9.5254" width="1.323" height="1.323" fill="#e9e56f"/>
  <rect x="31.751" y="28.047" width="1.323" height="1.323" fill="#6f8ce9"/>
  <rect x="33.074" y="28.047" width="1.323" height="1.323" fill="#6f8ce9"/>
  <rect x="31.751" y="29.37" width="1.323" height="1.323" fill="#e9e56f"/>
  <rect x="55.564" y="29.37" width="1.323" height="1.323" fill="#6f8ce9"/>
  <rect x="56.887" y="29.37" width="1.323" height="1.323" fill="#e9e56f"/>
  <rect x="56.887" y="28.047" width="1.323" height="1.323" fill="#6f8ce9"/>
  <rect x="55.564" y="28.047" width="1.323" height="1.323" fill="#6f8ce9"/>
 </g>
</svg>
