<?xml version="1.0" encoding="UTF-8"?>
<svg width="649.64" height="230" version="1.1" viewBox="0 0 171.89 60.853" xmlns="http://www.w3.org/2000/svg" xmlns:cc="http://creativecommons.org/ns#" xmlns:dc="http://purl.org/dc/elements/1.1/" xmlns:rdf="http://www.w3.org/1999/02/22-rdf-syntax-ns#">
 <metadata>
  <rdf:RDF>
   <cc:Work rdf:about="">
    <dc:format>image/svg+xml</dc:format>
    <dc:type rdf:resource="http://purl.org/dc/dcmitype/StillImage"/>
    <dc:title/>
   </cc:Work>
  </rdf:RDF>
 </metadata>
 <path d="m11.669 20.918-3.6948 2.1332-3.6948-2.1332 1e-7 -4.2664 3.6948-2.1332 3.6948 2.1332z" fill="#1d232d" stroke="#6f8ce9" stroke-linecap="round" stroke-width=".26459"/>
 <path d="m28.069 18.917h-14.983" fill="none" stroke="#7b8694" stroke-linecap="round" stroke-width=".26459"/>
 <g transform="matrix(-.0044049 0 0 -.0044804 14.087 20.122)" fill="#7b8694" stroke-width="59.559">
  <g fill="#7b8694" stroke-width="59.559">
   <path d="m486.41 221.41-364.07-208.5c-52.938-30.318-95.852-5.44-95.852 55.563v415.65c0 61.004 42.914 85.882 95.852 55.563l364.07-208.49c52.938-30.317 52.938-79.473 0-109.79z" fill="#7b8694" stroke-width="59.559"/>
  </g>
 </g>
 <path d="m35.483 20.918-3.6948 2.1332-3.6948-2.1332v-4.2664l3.6948-2.1332 3.6948 2.1332z" fill="#1d232d" stroke="#6f8ce9" stroke-linecap="round" stroke-width=".26459"/>
 <path d="m51.882 18.917h-14.983" fill="none" stroke="#7b8694" stroke-linecap="round" stroke-width=".26459"/>
 <g transform="matrix(-.0044049 0 0 -.0044804 37.901 20.122)" fill="#7b8694" stroke-width="59.559">
  <g fill="#7b8694" stroke-width="59.559">
   <path d="m486.41 221.41-364.07-208.5c-52.938-30.318-95.852-5.44-95.852 55.563v415.65c0 61.004 42.914 85.882 95.852 55.563l364.07-208.49c52.938-30.317 52.938-79.473 0-109.79z" fill="#7b8694" stroke-width="59.559"/>
  </g>
 </g>
 <path d="m59.296 20.918-3.6948 2.1332-3.6948-2.1332v-4.2664l3.6948-2.1332 3.6948 2.1332z" fill="#1d232d" stroke="#6f8ce9" stroke-linecap="round" stroke-width=".26459"/>
 <path d="m75.695 18.917h-14.983" fill="none" stroke="#7b8694" stroke-linecap="round" stroke-width=".26459"/>
 <g transform="matrix(-.0044049 0 0 -.0044804 61.714 20.122)" fill="#7b8694" stroke-width="59.559">
  <g fill="#7b8694" stroke-width="59.559">
   <path d="m486.41 221.41-364.07-208.5c-52.938-30.318-95.852-5.44-95.852 55.563v415.65c0 61.004 42.914 85.882 95.852 55.563l364.07-208.49c52.938-30.317 52.938-79.473 0-109.79z" fill="#7b8694" stroke-width="59.559"/>
  </g>
 </g>
 <path d="m83.109 20.918-3.6948 2.1332-3.6948-2.1332v-4.2664l3.6948-2.1332 3.6948 2.1332z" fill="#1d232d" stroke="#6f8ce9" stroke-linecap="round" stroke-width=".26459"/>
 <path d="m99.509 18.917h-14.983" fill="none" stroke="#7b8694" stroke-linecap="round" stroke-width=".26459"/>
 <g>
  <g transform="matrix(-.0044049 0 0 -.0044804 85.527 20.122)" fill="#7b8694" stroke-width="59.559">
   <g fill="#7b8694" stroke-width="59.559">
    <path d="m486.41 221.41-364.07-208.5c-52.938-30.318-95.852-5.44-95.852 55.563v415.65c0 61.004 42.914 85.882 95.852 55.563l364.07-208.49c52.938-30.317 52.938-79.473 0-109.79z" fill="#7b8694" stroke-width="59.559"/>
   </g>
  </g>
  <path d="m106.92 20.918-3.6948 2.1332-3.6948-2.1332v-4.2664l3.6948-2.1332 3.6948 2.1332z" fill="#1d232d" stroke="#6f8ce9" stroke-linecap="round" stroke-width=".26459"/>
  <path d="m99.533 10.02v2.1497l3.6948 2.1332 3.6948-2.1332v-2.1497z" fill="#e9e56f"/>
 </g>
 <path d="m123.32 18.917h-14.983" fill="none" stroke="#7b8694" stroke-linecap="round" stroke-width=".26459"/>
 <g>
  <g transform="matrix(-.0044049 0 0 -.0044804 109.34 20.122)" fill="#7b8694" stroke-width="59.559">
   <g fill="#7b8694" stroke-width="59.559">
    <path d="m486.41 221.41-364.07-208.5c-52.938-30.318-95.852-5.44-95.852 55.563v415.65c0 61.004 42.914 85.882 95.852 55.563l364.07-208.49c52.938-30.317 52.938-79.473 0-109.79z" fill="#7b8694" stroke-width="59.559"/>
   </g>
  </g>
  <path d="m130.74 20.918-3.6948 2.1332-3.6948-2.1332v-4.2664l3.6948-2.1332 3.6948 2.1332z" fill="#1d232d" stroke="#6f8ce9" stroke-linecap="round" stroke-width=".26459"/>
  <path d="m35.483 46.054-3.6948 2.1332-3.6948-2.1332v-4.2664l3.6948-2.1332 3.6948 2.1332z" fill="#1d232d" stroke="#6f8ce9" stroke-linecap="round" stroke-width=".26459"/>
 </g>
 <path d="m51.882 44.053h-14.983" fill="none" stroke="#7b8694" stroke-linecap="round" stroke-width=".26459"/>
 <g transform="matrix(-.0044049 0 0 -.0044804 37.901 45.258)" fill="#7b8694" stroke-width="59.559">
  <g fill="#7b8694" stroke-width="59.559">
   <path d="m486.41 221.41-364.07-208.5c-52.938-30.318-95.852-5.44-95.852 55.563v415.65c0 61.004 42.914 85.882 95.852 55.563l364.07-208.49c52.938-30.317 52.938-79.473 0-109.79z" fill="#7b8694" stroke-width="59.559"/>
  </g>
 </g>
 <path d="m59.296 46.054-3.6948 2.1332-3.6948-2.1332v-4.2664l3.6948-2.1332 3.6948 2.1332z" fill="#1d232d" stroke="#6f8ce9" stroke-linecap="round" stroke-width=".26459"/>
 <path d="m75.695 44.053h-14.983" fill="none" stroke="#7b8694" stroke-linecap="round" stroke-width=".26459"/>
 <g>
  <g transform="matrix(-.0044049 0 0 -.0044804 61.714 45.258)" fill="#7b8694" stroke-width="59.559">
   <g fill="#7b8694" stroke-width="59.559">
    <path d="m486.41 221.41-364.07-208.5c-52.938-30.318-95.852-5.44-95.852 55.563v415.65c0 61.004 42.914 85.882 95.852 55.563l364.07-208.49c52.938-30.317 52.938-79.473 0-109.79z" fill="#7b8694" stroke-width="59.559"/>
   </g>
  </g>
  <path d="m83.109 46.054-3.6948 2.1332-3.6948-2.1332v-4.2664l3.6948-2.1332 3.6948 2.1332z" fill="#1d232d" stroke="#6f8ce9" stroke-linecap="round" stroke-width=".26459"/>
  <path d="m75.72 52.669v-2.1497l3.6948-2.1332 3.6948 2.1332v2.1497z" fill="#e9e56f"/>
 </g>
 <path d="m31.772 39.403v-14.983" fill="none" stroke="#7b8694" stroke-linecap="round" stroke-width=".26459"/>
 <g transform="matrix(0 -.0044049 .0044804 0 30.567 25.422)" fill="#7b8694" stroke-width="59.559">
  <g fill="#7b8694" stroke-width="59.559">
   <path d="m486.41 221.41-364.07-208.5c-52.938-30.318-95.852-5.44-95.852 55.563v415.65c0 61.004 42.914 85.882 95.852 55.563l364.07-208.49c52.938-30.317 52.938-79.473 0-109.79z" fill="#7b8694" stroke-width="59.559"/>
  </g>
 </g>
 <path d="m79.399 23.236v14.983" fill="none" stroke="#7b8694" stroke-linecap="round" stroke-width=".26459"/>
 <g transform="matrix(0 .0044049 .0044804 0 78.194 37.218)" fill="#7b8694" stroke-width="59.559">
  <g fill="#7b8694" stroke-width="59.559">
   <path d="m486.41 221.41-364.07-208.5c-52.938-30.318-95.852-5.44-95.852 55.563v415.65c0 61.004 42.914 85.882 95.852 55.563l364.07-208.49c52.938-30.317 52.938-79.473 0-109.79z" fill="#7b8694" stroke-width="59.559"/>
  </g>
 </g>
 <path d="m154.55 20.918-3.6948 2.1332-3.6948-2.1332v-4.2664l3.6948-2.1332 3.6948 2.1332z" fill="#1d232d" stroke="#6f8ce9" stroke-linecap="round" stroke-width=".26459"/>
 <g fill="#e9e56f">
  <path d="m51.906 52.669v-2.1497l3.6948-2.1332 3.6948 2.1332v2.1497z"/>
  <path d="m51.906 10.02v2.1497l3.6948 2.1332 3.6948-2.1332v-2.1497z"/>
  <path d="m75.72 10.02v2.1497l3.6948 2.1332 3.6948-2.1332v-2.1497z"/>
  <path d="m123.35 10.02v2.1497l3.6948 2.1332 3.6948-2.1332v-2.1497z"/>
  <path d="m147.16 10.02v2.1497l3.6948 2.1332 3.6948-2.1332v-2.1497z"/>
 </g>
 <g fill="#e8eaec" stroke-linecap="round" stroke-width=".26459">
  <g aria-label="HEAD~3">
   <path d="m50.307 6.3142v2.3078h0.26671v-1.0965h0.90385v1.1002h0.2593v-2.2263c0-0.040747 0.02963-0.040747 0.02963-0.066677 0-0.00741-0.0037-0.011113-0.0037-0.018522h-0.28153v0.98905h-0.90755v-0.89644c0-0.040747 0.02593-0.044452 0.02593-0.074086 0-0.00741-0.0037-0.011113-0.0037-0.018522z"/>
   <path d="m52.174 6.3142v2.3078h1.4076v-0.22967h-1.1594v-0.85569h0.96312v-0.23708h-0.96312v-0.75568h1.1669v-0.22967z"/>
   <path d="m53.863 8.6257h0.2556l0.22596-0.67789h0.72975l0.2556 0.67418h0.27041l-0.89274-2.3485h-0.02964zm1.1557-0.87792h-0.62603l0.30005-0.87792z"/>
   <path d="m55.859 6.3142v2.3115h0.49638c0.18151 0 0.33709-0.00741 0.50008-0.092607 0.32968-0.1704 0.51119-0.56305 0.51119-1.0668 0-0.44452-0.13336-0.83347-0.4297-1.0261-0.16669-0.11113-0.33339-0.12595-0.53712-0.12595zm0.24448 0.22226h0.28153c0.14447 0 0.28894 0.00741 0.4334 0.12595 0.21485 0.17781 0.28523 0.50749 0.28523 0.83717 0 0.44081-0.14447 0.6927-0.32968 0.81865-0.14447 0.096312-0.28894 0.10372-0.4334 0.10372h-0.23708z"/>
   <path d="m57.852 7.3588c0.09261-0.15558 0.20374-0.22967 0.30746-0.22967 0.22596 0 0.30005 0.29634 0.6038 0.29634 0.22967 0 0.41488-0.19633 0.51119-0.3408l-0.1704-0.14076c-0.10742 0.14447-0.19262 0.23708-0.31487 0.23708-0.21114 0-0.30746-0.27782-0.61491-0.27782-0.20744 0-0.40006 0.14817-0.50749 0.33339z"/>
   <path d="m60.886 6.892c0-0.31487-0.26671-0.58528-0.63344-0.58528-0.20744 0-0.41118 0.088903-0.55564 0.24819l0.14447 0.15928c0.10742-0.11483 0.2556-0.17781 0.40006-0.17781 0.23708 0 0.40006 0.16669 0.40006 0.36302 0 0.13706-0.0852 0.29264-0.24819 0.36302-0.04075 0.014817-0.14447 0.055565-0.36302 0.055565v0.20744c0.03704-0.0037 0.07779-0.00741 0.11854-0.00741 0.31116 0 0.54083 0.16299 0.54083 0.44081 0 0.25189-0.19262 0.47045-0.46304 0.47045-0.21485 0-0.3445-0.14076-0.36302-0.15928-0.02963-0.033339-0.01482-0.070382-0.04816-0.10372l-0.19262 0.23337c0.15188 0.1741 0.37413 0.26301 0.6038 0.26301 0.44452 0 0.71122-0.31487 0.71122-0.67418 0-0.27412-0.15558-0.50749-0.39636-0.59639 0.20744-0.07779 0.3445-0.27412 0.3445-0.50008z"/>
  </g>
  <g aria-label="HEAD~2">
   <path d="m74.12 6.3142v2.3078h0.26671v-1.0965h0.90385v1.1002h0.2593v-2.2263c0-0.040747 0.02963-0.040747 0.02963-0.066677 0-0.00741-0.0037-0.011113-0.0037-0.018522h-0.28153v0.98905h-0.90755v-0.89644c0-0.040747 0.02593-0.044452 0.02593-0.074086 0-0.00741-0.0037-0.011113-0.0037-0.018522z"/>
   <path d="m75.987 6.3142v2.3078h1.4076v-0.22967h-1.1594v-0.85569h0.96312v-0.23708h-0.96312v-0.75568h1.1669v-0.22967z"/>
   <path d="m77.676 8.6257h0.2556l0.22596-0.67789h0.72975l0.2556 0.67418h0.27041l-0.89274-2.3485h-0.02963zm1.1557-0.87792h-0.62603l0.30005-0.87792z"/>
   <path d="m79.673 6.3142v2.3115h0.49638c0.18151 0 0.33709-0.00741 0.50008-0.092607 0.32968-0.1704 0.51119-0.56305 0.51119-1.0668 0-0.44452-0.13335-0.83347-0.4297-1.0261-0.16669-0.11113-0.33339-0.12595-0.53712-0.12595zm0.24448 0.22226h0.28153c0.14447 0 0.28894 0.00741 0.4334 0.12595 0.21485 0.17781 0.28523 0.50749 0.28523 0.83717 0 0.44081-0.14447 0.6927-0.32968 0.81865-0.14447 0.096312-0.28894 0.10372-0.4334 0.10372h-0.23708z"/>
   <path d="m81.666 7.3588c0.09261-0.15558 0.20374-0.22967 0.30746-0.22967 0.22596 0 0.30005 0.29634 0.6038 0.29634 0.22967 0 0.41488-0.19633 0.51119-0.3408l-0.1704-0.14076c-0.10742 0.14447-0.19262 0.23708-0.31486 0.23708-0.21115 0-0.30746-0.27782-0.61491-0.27782-0.20744 0-0.40006 0.14817-0.50749 0.33339z"/>
   <path d="m83.466 6.6735 0.18892 0.15188c0.02223-0.033339 0.01111-0.055565 0.03334-0.085199 0.05556-0.085199 0.19262-0.21115 0.39266-0.21115 0.24819 0 0.44452 0.18892 0.44452 0.43711 0 0.28153-0.23708 0.48526-0.40377 0.63714-0.26301 0.23708-0.47786 0.47415-0.67048 0.85569v0.16299h1.3558v-0.2556c-0.02593-0.011113-0.04445 0.00741-0.05186 0.014817-0.01482 0.014817-0.02223 0.014817-0.03704 0.014817h-0.97053c0.19262-0.33339 0.46304-0.56305 0.62973-0.71863 0.16669-0.15928 0.40377-0.39636 0.40377-0.72975 0-0.35932-0.29264-0.64825-0.66677-0.64825-0.263 0-0.51119 0.14076-0.64825 0.37413z"/>
  </g>
  <g aria-label="HEAD~1">
   <path d="m97.933 6.3142v2.3078h0.26671v-1.0965h0.90385v1.1002h0.2593v-2.2263c0-0.040747 0.02963-0.040747 0.02963-0.066677 0-0.00741-0.0037-0.011113-0.0037-0.018522h-0.28153v0.98905h-0.90755v-0.89644c0-0.040747 0.02593-0.044452 0.02593-0.074086 0-0.00741-0.0037-0.011113-0.0037-0.018522z"/>
   <path d="m99.8 6.3142v2.3078h1.4076v-0.22967h-1.1594v-0.85569h0.96312v-0.23708h-0.96312v-0.75568h1.1669v-0.22967z"/>
   <path d="m101.49 8.6257h0.25559l0.22597-0.67789h0.72974l0.2556 0.67418h0.27041l-0.89273-2.3485h-0.0296zm1.1557-0.87792h-0.62603l0.30005-0.87792z"/>
   <path d="m103.49 6.3142v2.3115h0.49637c0.18151 0 0.33709-0.00741 0.50008-0.092607 0.32968-0.1704 0.5112-0.56305 0.5112-1.0668 0-0.44452-0.13336-0.83347-0.4297-1.0261-0.1667-0.11113-0.33339-0.12595-0.53713-0.12595zm0.24448 0.22226h0.28153c0.14446 0 0.28893 0.00741 0.4334 0.12595 0.21485 0.17781 0.28523 0.50749 0.28523 0.83717 0 0.44081-0.14447 0.6927-0.32968 0.81865-0.14447 0.096312-0.28894 0.10372-0.43341 0.10372h-0.23707z"/>
   <path d="m105.48 7.3588c0.0926-0.15558 0.20374-0.22967 0.30746-0.22967 0.22596 0 0.30004 0.29634 0.6038 0.29634 0.22966 0 0.41488-0.19633 0.51119-0.3408l-0.1704-0.14076c-0.10742 0.14447-0.19262 0.23708-0.31486 0.23708-0.21115 0-0.30746-0.27782-0.61492-0.27782-0.20744 0-0.40006 0.14817-0.50749 0.33339z"/>
   <path d="m108.09 6.3142h-0.17039l-0.59269 0.30746 0.0593 0.14447 0.45933-0.12965v1.7855h-0.4297v0.20374h1.0891v-0.20374h-0.41489z"/>
  </g>
  <g aria-label="HEAD">
   <path d="m123.6 6.3142v2.3078h0.26671v-1.0965h0.90385v1.1002h0.2593v-2.2263c0-0.040747 0.0296-0.040747 0.0296-0.066677 0-0.00741-4e-3 -0.011113-4e-3 -0.018522h-0.28153v0.98905h-0.90755v-0.89644c0-0.040747 0.0259-0.044452 0.0259-0.074086 0-0.00741-4e-3 -0.011113-4e-3 -0.018522z"/>
   <path d="m125.47 6.3142v2.3078h1.4076v-0.22967h-1.1594v-0.85569h0.96312v-0.23708h-0.96312v-0.75568h1.1669v-0.22967z"/>
   <path d="m127.15 8.6257h0.25559l0.22597-0.67789h0.72974l0.2556 0.67418h0.27041l-0.89273-2.3485h-0.0296zm1.1557-0.87792h-0.62603l0.30005-0.87792z"/>
   <path d="m129.15 6.3142v2.3115h0.49638c0.18151 0 0.33709-0.00741 0.50008-0.092607 0.32968-0.1704 0.51119-0.56305 0.51119-1.0668 0-0.44452-0.13335-0.83347-0.42969-1.0261-0.1667-0.11113-0.33339-0.12595-0.53713-0.12595zm0.24449 0.22226h0.28152c0.14447 0 0.28894 0.00741 0.43341 0.12595 0.21485 0.17781 0.28523 0.50749 0.28523 0.83717 0 0.44081-0.14447 0.6927-0.32968 0.81865-0.14447 0.096312-0.28894 0.10372-0.43341 0.10372h-0.23707z"/>
  </g>
  <g aria-label="HEAD~3^2">
   <path d="m72.268 53.941v2.3078h0.26671v-1.0965h0.90385v1.1002h0.2593v-2.2263c0-0.04075 0.02963-0.04075 0.02963-0.06668 0-0.0074-0.0037-0.01111-0.0037-0.01852h-0.28153v0.98905h-0.90755v-0.89644c0-0.04075 0.02593-0.04445 0.02593-0.07409 0-0.0074-0.0037-0.01111-0.0037-0.01852z"/>
   <path d="m74.135 53.941v2.3078h1.4076v-0.22967h-1.1594v-0.85569h0.96312v-0.23708h-0.96312v-0.75568h1.1669v-0.22967z"/>
   <path d="m75.824 56.252h0.2556l0.22596-0.67789h0.72975l0.2556 0.67418h0.27041l-0.89274-2.3485h-0.02963zm1.1557-0.87792h-0.62603l0.30005-0.87792z"/>
   <path d="m77.821 53.941v2.3115h0.49638c0.18151 0 0.33709-0.0074 0.50008-0.09261 0.32968-0.1704 0.51119-0.56305 0.51119-1.0668 0-0.44452-0.13336-0.83347-0.4297-1.0261-0.16669-0.11113-0.33339-0.12595-0.53712-0.12595zm0.24448 0.22226h0.28153c0.14447 0 0.28894 0.0074 0.4334 0.12595 0.21485 0.17781 0.28523 0.50749 0.28523 0.83717 0 0.44081-0.14447 0.6927-0.32968 0.81865-0.14447 0.09631-0.28894 0.10372-0.4334 0.10372h-0.23708z"/>
   <path d="m79.814 54.985c0.09261-0.15558 0.20374-0.22967 0.30746-0.22967 0.22596 0 0.30005 0.29634 0.6038 0.29634 0.22967 0 0.41488-0.19633 0.51119-0.3408l-0.1704-0.14076c-0.10742 0.14447-0.19262 0.23708-0.31487 0.23708-0.21114 0-0.30746-0.27782-0.61491-0.27782-0.20744 0-0.40006 0.14817-0.50749 0.33339z"/>
   <path d="m82.847 54.519c0-0.31486-0.26671-0.58528-0.63344-0.58528-0.20744 0-0.41118 0.0889-0.55564 0.24819l0.14447 0.15928c0.10742-0.11483 0.2556-0.17781 0.40006-0.17781 0.23708 0 0.40006 0.16669 0.40006 0.36302 0 0.13706-0.0852 0.29264-0.24819 0.36302-0.04075 0.01482-0.14447 0.05557-0.36302 0.05557v0.20744c0.03704-0.0037 0.07779-0.0074 0.11854-0.0074 0.31116 0 0.54083 0.16299 0.54083 0.44081 0 0.25189-0.19262 0.47045-0.46304 0.47045-0.21485 0-0.3445-0.14076-0.36302-0.15928-0.02963-0.03334-0.01482-0.07038-0.04816-0.10372l-0.19262 0.23337c0.15188 0.1741 0.37413 0.26301 0.6038 0.26301 0.44452 0 0.71122-0.31487 0.71122-0.67418 0-0.27412-0.15558-0.50749-0.39636-0.59639 0.20744-0.07779 0.3445-0.27412 0.3445-0.50008z"/>
   <path d="m83.525 54.893 0.18522 0.0889 0.40377-0.64825 0.35932 0.64825 0.20003-0.09261-0.50378-0.9483h-0.0815z"/>
   <path d="m85.318 54.3 0.18892 0.15188c0.02223-0.03334 0.01111-0.05557 0.03334-0.0852 0.05557-0.0852 0.19262-0.21114 0.39266-0.21114 0.24819 0 0.44452 0.18892 0.44452 0.43711 0 0.28153-0.23708 0.48526-0.40377 0.63714-0.263 0.23708-0.47786 0.47415-0.67048 0.85569v0.16299h1.3558v-0.2556c-0.02593-0.01111-0.04445 0.0074-0.05186 0.01482-0.01482 0.01482-0.02223 0.01482-0.03704 0.01482h-0.97053c0.19262-0.33339 0.46304-0.56305 0.62973-0.71863 0.16669-0.15928 0.40377-0.39636 0.40377-0.72975 0-0.35932-0.29264-0.64825-0.66677-0.64825-0.26301 0-0.51119 0.14076-0.64825 0.37414z"/>
  </g>
  <g aria-label="HEAD~4^2">
   <path d="m48.455 53.941v2.3078h0.26671v-1.0965h0.90385v1.1002h0.2593v-2.2263c0-0.04075 0.02963-0.04075 0.02963-0.06668 0-0.0074-0.0037-0.01111-0.0037-0.01852h-0.28153v0.98905h-0.90755v-0.89644c0-0.04075 0.02593-0.04445 0.02593-0.07409 0-0.0074-0.0037-0.01111-0.0037-0.01852z"/>
   <path d="m50.322 53.941v2.3078h1.4076v-0.22967h-1.1594v-0.85569h0.96312v-0.23708h-0.96312v-0.75568h1.1669v-0.22967z"/>
   <path d="m52.011 56.252h0.2556l0.22596-0.67789h0.72975l0.2556 0.67418h0.27041l-0.89274-2.3485h-0.02963zm1.1557-0.87792h-0.62603l0.30005-0.87792z"/>
   <path d="m54.007 53.941v2.3115h0.49638c0.18151 0 0.33709-0.0074 0.50008-0.09261 0.32968-0.1704 0.51119-0.56305 0.51119-1.0668 0-0.44452-0.13336-0.83347-0.4297-1.0261-0.16669-0.11113-0.33339-0.12595-0.53712-0.12595zm0.24448 0.22226h0.28153c0.14447 0 0.28894 0.0074 0.4334 0.12595 0.21485 0.17781 0.28523 0.50749 0.28523 0.83717 0 0.44081-0.14447 0.6927-0.32968 0.81865-0.14447 0.09631-0.28894 0.10372-0.4334 0.10372h-0.23708z"/>
   <path d="m56 54.985c0.09261-0.15558 0.20374-0.22967 0.30746-0.22967 0.22596 0 0.30005 0.29634 0.6038 0.29634 0.22967 0 0.41488-0.19633 0.51119-0.3408l-0.1704-0.14076c-0.10742 0.14447-0.19262 0.23708-0.31487 0.23708-0.21114 0-0.30746-0.27782-0.61491-0.27782-0.20744 0-0.40006 0.14817-0.50749 0.33339z"/>
   <path d="m58.675 53.941-0.98164 1.478v0.19262h0.92978v0.63714h0.26671v-0.63344h0.30005v-0.22967h-0.30005v-1.4447zm-0.04816 0.41118v1.0335h-0.67789z"/>
   <path d="m59.712 54.893 0.18522 0.0889 0.40377-0.64825 0.35932 0.64825 0.20003-0.09261-0.50378-0.9483h-0.0815z"/>
   <path d="m61.505 54.3 0.18892 0.15188c0.02223-0.03334 0.01111-0.05557 0.03334-0.0852 0.05556-0.0852 0.19262-0.21114 0.39266-0.21114 0.24819 0 0.44452 0.18892 0.44452 0.43711 0 0.28153-0.23708 0.48526-0.40377 0.63714-0.263 0.23708-0.47786 0.47415-0.67048 0.85569v0.16299h1.3558v-0.2556c-0.02593-0.01111-0.04445 0.0074-0.05186 0.01482-0.01482 0.01482-0.02223 0.01482-0.03704 0.01482h-0.97053c0.19262-0.33339 0.46304-0.56305 0.62973-0.71863 0.16669-0.15928 0.40377-0.39636 0.40377-0.72975 0-0.35932-0.29264-0.64825-0.66677-0.64825-0.263 0-0.51119 0.14076-0.64825 0.37414z"/>
  </g>
  <g aria-label="HEAD@{1}">
   <path d="m143.71 6.3142v2.3078h0.26671v-1.0965h0.90384v1.1002h0.25931v-2.2263c0-0.040747 0.0296-0.040747 0.0296-0.066677 0-0.00741-4e-3 -0.011113-4e-3 -0.018522h-0.28153v0.98905h-0.90755v-0.89644c0-0.040747 0.0259-0.044452 0.0259-0.074086 0-0.00741-4e-3 -0.011113-4e-3 -0.018522z"/>
   <path d="m145.57 6.3142v2.3078h1.4076v-0.22967h-1.1594v-0.85569h0.96312v-0.23708h-0.96312v-0.75568h1.1669v-0.22967z"/>
   <path d="m147.26 8.6257h0.2556l0.22596-0.67789h0.72975l0.2556 0.67418h0.27041l-0.89274-2.3485h-0.0296zm1.1558-0.87792h-0.62603l0.30005-0.87792z"/>
   <path d="m149.26 6.3142v2.3115h0.49638c0.18151 0 0.33709-0.00741 0.50008-0.092607 0.32968-0.1704 0.51119-0.56305 0.51119-1.0668 0-0.44452-0.13335-0.83347-0.4297-1.0261-0.16669-0.11113-0.33338-0.12595-0.53712-0.12595zm0.24449 0.22226h0.28152c0.14447 0 0.28894 0.00741 0.43341 0.12595 0.21484 0.17781 0.28523 0.50749 0.28523 0.83717 0 0.44081-0.14447 0.6927-0.32969 0.81865-0.14446 0.096312-0.28893 0.10372-0.4334 0.10372h-0.23707z"/>
   <path d="m152.52 8.5108-0.0963-0.17781c-0.11854 0.07779-0.2556 0.12224-0.40007 0.12224-0.35931 0-0.78531-0.28153-0.78531-1.0039 0-0.66677 0.3445-0.97423 0.66678-0.97423 0.27782 0 0.49637 0.22596 0.49637 0.50008h-0.0556c-0.14077 0-0.28894 0-0.43711 0.059269-0.22967 0.092607-0.35191 0.28894-0.35191 0.48897 0 0.26671 0.21856 0.48156 0.48156 0.48156 0.14447 0 0.27782-0.062973 0.37043-0.1741v0.14076h0.22596v-0.74827c0-0.17781-4e-3 -0.35561-0.0852-0.53342-0.11853-0.26301-0.36672-0.41118-0.63343-0.41118-0.40377 0-0.88903 0.3408-0.88903 1.1817 0 0.8594 0.51489 1.2039 0.97423 1.2039 0.18521 0 0.36672-0.055565 0.5186-0.15558zm-0.11113-1.3484v0.070382c0 0.14817 4e-3 0.28894-0.0519 0.40006-0.0593 0.11113-0.16669 0.1704-0.27412 0.1704-0.16299 0-0.29264-0.12965-0.29264-0.28894 0-0.096312 0.0445-0.19633 0.14447-0.26301 0.12595-0.088903 0.28153-0.088903 0.41488-0.088903z"/>
   <path d="m152.96 7.5736v0.20744h0.0778c0.063 0 0.15928-0.0037 0.23337 0.074086 0.0741 0.070382 0.0963 0.17781 0.0963 0.33709 0 0.11483-0.0111 0.22596-0.0111 0.37043 0 0.13335 0.0111 0.38895 0.20373 0.53712 0.16299 0.12224 0.35191 0.11113 0.58158 0.11113h0.13335v-0.20744h-0.13706c-0.15187 0-0.27041 0.00741-0.37043-0.062973-0.13335-0.088903-0.15187-0.25189-0.15187-0.37784 0-0.10002 0.0111-0.19633 0.0111-0.31116 0-0.38895-0.1704-0.52971-0.31116-0.57787 0.11483-0.048156 0.20744-0.13706 0.26301-0.24819 0.0481-0.10002 0.0593-0.21115 0.0593-0.29634 0-0.092607-0.0111-0.1741-0.0111-0.26301 0-0.074086 7e-3 -0.2556 0.14817-0.3445 0.10002-0.062973 0.21115-0.044452 0.37414-0.044452h0.12965v-0.21114h-0.11484c-0.19632 0-0.4334-0.014817-0.61121 0.14817-0.16298 0.14817-0.18521 0.35561-0.18521 0.49638 0 0.088903 0.0111 0.1741 0.0111 0.26301 0 0.092607-0.0111 0.22226-0.0963 0.31487-0.0815 0.085199-0.18151 0.085199-0.24819 0.085199z"/>
   <path d="m155.72 6.3142h-0.1704l-0.59269 0.30746 0.0593 0.14447 0.45934-0.12965v1.7855h-0.4297v0.20374h1.0891v-0.20374h-0.41488z"/>
   <path d="m158.13 7.5736h-0.0704c-0.0667 0-0.17039 0-0.24818-0.085199-0.0889-0.092607-0.0963-0.22226-0.0963-0.31487 0-0.088903 7e-3 -0.1741 7e-3 -0.26301 0-0.14076-0.0185-0.3482-0.18151-0.49638-0.1778-0.16299-0.41488-0.14817-0.61491-0.14817h-0.11113v0.21115h0.12595c0.16298 0 0.27782-0.018522 0.37413 0.044452 0.14447 0.088903 0.15188 0.27041 0.15188 0.3445 0 0.088903-0.0111 0.1704-0.0111 0.26301 0 0.085199 7e-3 0.19633 0.0556 0.29634 0.0556 0.11113 0.15187 0.20003 0.26671 0.24819-0.14077 0.048156-0.31487 0.18892-0.31487 0.57787 0 0.11483 0.0111 0.21115 0.0111 0.31116 0 0.12595-0.0185 0.28894-0.15187 0.37784-0.10002 0.070382-0.21485 0.062973-0.36673 0.062973h-0.13706v0.20744h0.13336c0.22966 0 0.41858 0.011113 0.57787-0.11113 0.19633-0.14817 0.20744-0.40377 0.20744-0.53712 0-0.14447-0.0148-0.2556-0.0148-0.37043 0-0.15928 0.0259-0.26671 0.0963-0.33709 0.0778-0.07779 0.17411-0.074086 0.23708-0.074086h0.0741z"/>
  </g>
  <g stroke="#cf2f25" aria-label="A">
   <path d="m10.779 23.508 0.11854-0.37043c0.0852-0.27041 0.16299-0.53712 0.24078-0.81865h0.01482c0.07779 0.28153 0.15558 0.54824 0.24078 0.81865l0.11483 0.37043zm1.0409 0.98905h0.32598l-0.82235-2.43h-0.3482l-0.82235 2.43h0.31486l0.23337-0.74086h0.88533z" fill="#e8eaec" stroke="none"/>
  </g>
  <g stroke="#cf2f25" aria-label="B">
   <path d="m34.289 24.498h0.7779c0.54083 0 0.91867-0.23337 0.91867-0.71123 0-0.33339-0.20744-0.52601-0.56305-0.58158v-0.01482c0.28894-0.07409 0.42599-0.28894 0.42599-0.52972 0-0.426-0.3445-0.59269-0.83717-0.59269h-0.72234zm0.31116-1.3928v-0.79272h0.37414c0.37413 0 0.57046 0.11113 0.57046 0.37413 0 0.27041-0.1741 0.41859-0.58528 0.41859zm0 1.1483v-0.91867h0.42229c0.426 0 0.65937 0.13706 0.65937 0.43711 0 0.32968-0.24448 0.48156-0.65937 0.48156z" fill="#e8eaec" stroke="none"/>
  </g>
  <g stroke="#cf2f25" aria-label="C">
   <path d="m57.961 23.283c0 0.79272 0.45563 1.2595 1.0668 1.2595 0.30746 0 0.54824-0.12965 0.73716-0.35191l-0.1741-0.18892c-0.15558 0.1741-0.32598 0.27041-0.55564 0.27041-0.46304 0-0.75568-0.38525-0.75568-0.99646 0-0.6038 0.30746-0.98164 0.77049-0.98164 0.20003 0 0.35561 0.0889 0.48526 0.22596l0.1741-0.19633c-0.14447-0.15928-0.37414-0.30005-0.66307-0.30005-0.62232 0-1.0854 0.47786-1.0854 1.2595z" fill="#e8eaec" stroke="none"/>
  </g>
  <g stroke="#cf2f25" aria-label="D">
   <path d="m81.915 24.498h0.62232c0.73345 0 1.1335-0.45192 1.1335-1.2261 0-0.77049-0.40006-1.2039-1.1483-1.2039h-0.6075zm0.31116-0.25189v-1.9262h0.27412c0.57046 0 0.85199 0.3408 0.85199 0.952 0 0.61491-0.28153 0.97423-0.85199 0.97423z" fill="#e8eaec" stroke="none"/>
  </g>
  <g stroke="#cf2f25" aria-label="E">
   <path d="m105.73 24.498h1.4373v-0.26301h-1.1261v-0.88162h0.91866v-0.263h-0.91866v-0.76309h1.0891v-0.2593h-1.4002z" fill="#e8eaec" stroke="none"/>
  </g>
  <g stroke="#cf2f25" aria-label="F">
   <path d="m129.54 24.498h0.31116v-1.0891h0.92608v-0.2593h-0.92608v-0.82235h1.0928v-0.2593h-1.4039z" fill="#e8eaec" stroke="none"/>
  </g>
  <g stroke="#cf2f25" aria-label="G">
   <path d="m153.21 23.283c0 0.79272 0.45563 1.2595 1.0928 1.2595 0.32598 0 0.59639-0.12595 0.75567-0.28153v-1.0224h-0.79642v0.2556h0.5149v0.63344c-0.0963 0.0889-0.26671 0.14447-0.44081 0.14447-0.51861 0-0.80754-0.38525-0.80754-0.99646 0-0.6038 0.31486-0.98164 0.80754-0.98164 0.24078 0 0.39265 0.09631 0.51489 0.22596l0.17781-0.19633c-0.14447-0.14817-0.36673-0.30005-0.69641-0.30005-0.65195 0-1.1224 0.47786-1.1224 1.2595z" fill="#e8eaec" stroke="none"/>
  </g>
  <g aria-label="BA">
   <path d="m34.289 49.634h0.7779c0.54083 0 0.91867-0.23337 0.91867-0.71122 0-0.33339-0.20744-0.52601-0.56305-0.58158v-0.01482c0.28894-0.07409 0.42599-0.28894 0.42599-0.52972 0-0.426-0.3445-0.59269-0.83717-0.59269h-0.72234zm0.31116-1.3928v-0.79272h0.37414c0.37413 0 0.57046 0.11113 0.57046 0.37414 0 0.27041-0.1741 0.41859-0.58528 0.41859zm0 1.1483v-0.91867h0.42229c0.426 0 0.65937 0.13706 0.65937 0.43711 0 0.32968-0.24448 0.48156-0.65937 0.48156z"/>
   <path d="m36.756 48.645 0.11854-0.37043c0.0852-0.27041 0.16299-0.53712 0.24078-0.81865h0.01482c0.07779 0.28153 0.15558 0.54824 0.24078 0.81865l0.11483 0.37043zm1.0409 0.98905h0.32598l-0.82236-2.43h-0.3482l-0.82236 2.43h0.31487l0.23337-0.74086h0.88533z"/>
  </g>
  <g aria-label="BB">
   <path d="m58.102 49.634h0.7779c0.54083 0 0.91867-0.23337 0.91867-0.71122 0-0.33339-0.20744-0.52601-0.56305-0.58158v-0.01482c0.28894-0.07409 0.426-0.28894 0.426-0.52972 0-0.426-0.3445-0.59269-0.83717-0.59269h-0.72234zm0.31116-1.3928v-0.79272h0.37413c0.37413 0 0.57046 0.11113 0.57046 0.37414 0 0.27041-0.1741 0.41859-0.58528 0.41859zm0 1.1483v-0.91867h0.42229c0.42599 0 0.65936 0.13706 0.65936 0.43711 0 0.32968-0.24448 0.48156-0.65936 0.48156z"/>
   <path d="m60.265 49.634h0.7779c0.54083 0 0.91867-0.23337 0.91867-0.71122 0-0.33339-0.20744-0.52601-0.56305-0.58158v-0.01482c0.28894-0.07409 0.42599-0.28894 0.42599-0.52972 0-0.426-0.3445-0.59269-0.83717-0.59269h-0.72234zm0.31116-1.3928v-0.79272h0.37413c0.37414 0 0.57046 0.11113 0.57046 0.37414 0 0.27041-0.1741 0.41859-0.58528 0.41859zm0 1.1483v-0.91867h0.42229c0.426 0 0.65937 0.13706 0.65937 0.43711 0 0.32968-0.24448 0.48156-0.65937 0.48156z"/>
  </g>
  <g aria-label="BC">
   <path d="m81.915 49.634h0.7779c0.54083 0 0.91867-0.23337 0.91867-0.71122 0-0.33339-0.20744-0.52601-0.56305-0.58158v-0.01482c0.28894-0.07409 0.426-0.28894 0.426-0.52972 0-0.426-0.3445-0.59269-0.83717-0.59269h-0.72234zm0.31116-1.3928v-0.79272h0.37413c0.37413 0 0.57046 0.11113 0.57046 0.37414 0 0.27041-0.1741 0.41859-0.58528 0.41859zm0 1.1483v-0.91867h0.42229c0.42599 0 0.65936 0.13706 0.65936 0.43711 0 0.32968-0.24448 0.48156-0.65936 0.48156z"/>
   <path d="m83.938 48.419c0 0.79272 0.45563 1.2595 1.0668 1.2595 0.30746 0 0.54824-0.12965 0.73716-0.35191l-0.1741-0.18892c-0.15558 0.1741-0.32598 0.27041-0.55564 0.27041-0.46304 0-0.75568-0.38525-0.75568-0.99646 0-0.6038 0.30746-0.98164 0.7705-0.98164 0.20003 0 0.35561 0.0889 0.48526 0.22596l0.1741-0.19633c-0.14447-0.15928-0.37413-0.30005-0.66307-0.30005-0.62232 0-1.0854 0.47786-1.0854 1.2595z"/>
  </g>
 </g>
</svg>
