<?xml version="1.0" encoding="UTF-8"?>
<svg width="649.64" height="315" version="1.1" viewBox="0 0 171.89 83.343" xmlns="http://www.w3.org/2000/svg" xmlns:cc="http://creativecommons.org/ns#" xmlns:dc="http://purl.org/dc/elements/1.1/" xmlns:rdf="http://www.w3.org/1999/02/22-rdf-syntax-ns#">
 <metadata>
  <rdf:RDF>
   <cc:Work rdf:about="">
    <dc:format>image/svg+xml</dc:format>
    <dc:type rdf:resource="http://purl.org/dc/dcmitype/StillImage"/>
    <dc:title/>
   </cc:Work>
  </rdf:RDF>
 </metadata>
 <rect x="2.8422e-14" y="-.0021662" width="171.89" height="43.658" fill="#2f3744" fill-opacity=".50196"/>
 <path d="m51.322 13.773-3.6948 2.1332-3.6948-2.1332v-4.2664l3.6948-2.1332 3.6948 2.1332z" fill="#1d232d" stroke="#6f8ce9" stroke-linecap="round" stroke-width=".26459"/>
 <path d="m67.721 11.772h-14.983" fill="none" stroke="#7b8694" stroke-linecap="round" stroke-width=".26459"/>
 <g transform="matrix(-.0044049 0 0 -.0044804 53.739 12.977)" fill="#7b8694" stroke-width="59.559">
  <g fill="#7b8694" stroke-width="59.559">
   <path d="m486.41 221.41-364.07-208.5c-52.938-30.318-95.852-5.44-95.852 55.563v415.65c0 61.004 42.914 85.882 95.852 55.563l364.07-208.49c52.938-30.317 52.938-79.473 0-109.79z" fill="#7b8694" stroke-width="59.559"/>
  </g>
 </g>
 <path d="m75.135 13.773-3.6948 2.1332-3.6948-2.1332v-4.2664l3.6948-2.1332 3.6948 2.1332z" fill="#1d232d" stroke="#6f8ce9" stroke-linecap="round" stroke-width=".26459"/>
 <g fill="#e8eaec" stroke-linecap="round" stroke-width=".26459">
  <g aria-label="#cab">
   <path d="m44.318 6.5047h0.20003l0.09261-0.75568h0.48897l-0.0889 0.75568h0.19633l0.09261-0.75568h0.3408v-0.21115h-0.31487l0.06668-0.54824h0.32228v-0.21485h-0.30005l0.0889-0.67789h-0.19633l-0.0889 0.67789h-0.49267l0.0852-0.67789h-0.19633l-0.0852 0.67789h-0.3408v0.21485h0.31486l-0.06668 0.54824h-0.32227v0.21115h0.29634zm0.31857-0.96682 0.06668-0.54824h0.48897l-0.06668 0.54824z"/>
   <path d="m45.992 5.6083c0 0.59639 0.36673 0.94089 0.84458 0.94089 0.21485 0 0.42229-0.088903 0.58528-0.23337l-0.13706-0.20003c-0.10742 0.096312-0.25189 0.18151-0.42229 0.18151-0.32968 0-0.55564-0.27782-0.55564-0.689 0-0.41488 0.23708-0.69641 0.56305-0.69641 0.14447 0 0.2556 0.066677 0.36302 0.15928l0.15188-0.19633c-0.12224-0.11483-0.28894-0.21485-0.52601-0.21485-0.46304 0-0.86681 0.3445-0.86681 0.9483z"/>
   <path d="m47.686 6.038c0 0.32227 0.22596 0.51119 0.52972 0.51119 0.22226 0 0.42229-0.11854 0.59639-0.2593h0.0074l0.02593 0.21485h0.25189v-1.1039c0-0.44822-0.18522-0.74086-0.62603-0.74086-0.28894 0-0.54083 0.12595-0.70752 0.23337l0.12224 0.21115c0.14076-0.096312 0.32598-0.19262 0.53712-0.19262 0.29264 0 0.37043 0.22226 0.37043 0.45192-0.76679 0.085199-1.1076 0.28153-1.1076 0.67418zm0.30005-0.022226c0-0.22967 0.20374-0.37784 0.80754-0.45192v0.50008c-0.1741 0.15558-0.31857 0.24078-0.49267 0.24078-0.17781 0-0.31487-0.085199-0.31487-0.28894z"/>
   <path d="m49.671 6.5047h0.24448l0.02593-0.17781h0.01111c0.15928 0.14076 0.3482 0.22226 0.5149 0.22226 0.41118 0 0.7779-0.35932 0.7779-0.97423 0-0.55564-0.24819-0.91496-0.71493-0.91496-0.20003 0-0.40006 0.10742-0.56305 0.25189l0.007412-0.32598v-0.71863h-0.30375zm0.30375-0.40006v-0.9446c0.1704-0.15928 0.32968-0.24448 0.48156-0.24448 0.3408 0 0.47415 0.26671 0.47415 0.66307 0 0.44452-0.21855 0.71493-0.5149 0.71493-0.11854 0-0.28153-0.05186-0.44081-0.18892z"/>
  </g>
  <g aria-label="#06c">
   <path d="m68.131 6.5047h0.20003l0.09261-0.75568h0.48897l-0.0889 0.75568h0.19633l0.09261-0.75568h0.3408v-0.21115h-0.31486l0.06668-0.54824h0.32227v-0.21485h-0.30005l0.0889-0.67789h-0.19634l-0.0889 0.67789h-0.49267l0.0852-0.67789h-0.19633l-0.0852 0.67789h-0.3408v0.21485h0.31486l-0.06668 0.54824h-0.32227v0.21115h0.29634zm0.31857-0.96682 0.06668-0.54824h0.48897l-0.06668 0.54824z"/>
   <path d="m70.558 6.5492c0.47045 0 0.75568-0.44081 0.75568-1.2335 0-0.79272-0.28523-1.2187-0.75568-1.2187-0.47415 0-0.75938 0.42599-0.75938 1.2187 0 0.79272 0.28523 1.2335 0.75938 1.2335zm0-0.24448c-0.27782 0-0.46304-0.29634-0.46304-0.98905 0-0.6927 0.18522-0.97423 0.46304-0.97423 0.27412 0 0.45933 0.28153 0.45933 0.97423 0 0.6927-0.18522 0.98905-0.45933 0.98905z"/>
   <path d="m72.466 6.3084c-0.30005 0-0.48156-0.24819-0.5186-0.70752 0.15928-0.22226 0.3445-0.31116 0.49267-0.31116 0.29264 0 0.43711 0.19262 0.43711 0.50008 0 0.31116-0.17781 0.5186-0.41118 0.5186zm0.65566-1.9596c-0.13336-0.14447-0.31487-0.25189-0.57046-0.25189-0.47045 0-0.90014 0.36673-0.90014 1.315 0 0.75938 0.35191 1.1372 0.81495 1.1372 0.38154 0 0.70011-0.30746 0.70011-0.75938 0-0.48526-0.26671-0.72975-0.67418-0.72975-0.19262 0-0.40377 0.11483-0.55194 0.29634 0.01482-0.74827 0.29264-1.0039 0.62232-1.0039 0.14817 0 0.29264 0.070382 0.38895 0.18522z"/>
   <path d="m73.481 5.6083c0 0.59639 0.36673 0.94089 0.84458 0.94089 0.21485 0 0.42229-0.088903 0.58528-0.23337l-0.13706-0.20003c-0.10742 0.096312-0.25189 0.18151-0.42229 0.18151-0.32968 0-0.55564-0.27782-0.55564-0.689 0-0.41488 0.23708-0.69641 0.56305-0.69641 0.14447 0 0.2556 0.066677 0.36302 0.15928l0.15188-0.19633c-0.12224-0.11483-0.28894-0.21485-0.52601-0.21485-0.46304 0-0.86681 0.3445-0.86681 0.9483z"/>
  </g>
  <g stroke="#cf2f25" aria-label="A">
   <path d="m50.431 16.364 0.11854-0.37043c0.0852-0.27041 0.16299-0.53712 0.24078-0.81865h0.01482c0.07779 0.28153 0.15558 0.54824 0.24078 0.81865l0.11483 0.37043zm1.0409 0.98905h0.32598l-0.82235-2.43h-0.3482l-0.82236 2.43h0.31487l0.23337-0.74086h0.88533z" fill="#e8eaec" stroke="none"/>
  </g>
  <g stroke="#cf2f25" aria-label="B">
   <path d="m73.941 17.353h0.7779c0.54083 0 0.91867-0.23337 0.91867-0.71122 0-0.33339-0.20744-0.52601-0.56305-0.58158v-0.01482c0.28894-0.07409 0.426-0.28894 0.426-0.52971 0-0.426-0.3445-0.59269-0.83717-0.59269h-0.72234zm0.31116-1.3928v-0.79272h0.37413c0.37413 0 0.57046 0.11113 0.57046 0.37414 0 0.27041-0.1741 0.41859-0.58528 0.41859zm0 1.1483v-0.91867h0.42229c0.42599 0 0.65936 0.13706 0.65936 0.43711 0 0.32968-0.24448 0.48156-0.65936 0.48156z" fill="#e8eaec" stroke="none"/>
  </g>
 </g>
 <path d="m94.195 9.1544c-1.4503 0-2.6178 1.1675-2.6178 2.6178s1.1675 2.6178 2.6178 2.6178h11.113c1.4503 0 2.6178-1.1675 2.6178-2.6178s-1.1675-2.6178-2.6178-2.6178z" fill="#1d232d" stroke="#7893ea" stroke-width=".26459"/>
 <path d="m91.534 11.772h-14.983" fill="none" stroke="#6f8ce9" stroke-linecap="round" stroke-width=".26459"/>
 <g>
  <g transform="matrix(-.0044049 0 0 -.0044804 77.553 12.977)" fill="#6f8ce9" stroke-width="59.559">
   <g fill="#6f8ce9" stroke-width="59.559">
    <path d="m486.41 221.41-364.07-208.5c-52.938-30.318-95.852-5.44-95.852 55.563v415.65c0 61.004 42.914 85.882 95.852 55.563l364.07-208.49c52.938-30.317 52.938-79.473 0-109.79z" fill="#6f8ce9" stroke-width="59.559"/>
   </g>
  </g>
  <g stroke-linecap="round" stroke-width=".26459">
   <g fill="#e8eaec" aria-label="master">
    <path d="m94.734 12.902h0.30375v-1.3039c0.16669-0.18522 0.31857-0.27782 0.45192-0.27782 0.22967 0 0.33709 0.14447 0.33709 0.48156v1.1002h0.30375v-1.3039c0.16669-0.18522 0.31116-0.27782 0.45192-0.27782 0.22596 0 0.33339 0.14447 0.33339 0.48156v1.1002h0.30375v-1.1409c0-0.45933-0.17781-0.70382-0.54824-0.70382-0.21855 0-0.40377 0.14076-0.59269 0.3445-0.07409-0.21485-0.22226-0.3445-0.49638-0.3445-0.21485 0-0.40377 0.13336-0.55935 0.30375h-0.01111l-0.02593-0.2593h-0.25189z"/>
    <path d="m97.712 12.435c0 0.32227 0.22596 0.51119 0.52972 0.51119 0.22226 0 0.42229-0.11854 0.59639-0.2593h0.0074l0.02593 0.21485h0.25189v-1.1039c0-0.44822-0.18522-0.74086-0.62603-0.74086-0.28894 0-0.54083 0.12595-0.70752 0.23337l0.12224 0.21114c0.14076-0.09631 0.32598-0.19262 0.53712-0.19262 0.29264 0 0.37043 0.22226 0.37043 0.45192-0.76679 0.0852-1.1076 0.28153-1.1076 0.67418zm0.30005-0.02223c0-0.22967 0.20374-0.37784 0.80754-0.45192v0.50008c-0.1741 0.15558-0.31857 0.24078-0.49267 0.24078-0.17781 0-0.31486-0.0852-0.31486-0.28894z"/>
    <path d="m99.497 12.698c0.1704 0.14076 0.41488 0.24819 0.67048 0.24819 0.42599 0 0.65937-0.24448 0.65937-0.53712 0-0.3408-0.28894-0.44822-0.54824-0.54453-0.20374-0.07779-0.40006-0.14447-0.40006-0.31116 0-0.13706 0.10372-0.2593 0.32968-0.2593 0.15928 0 0.28893 0.06668 0.41117 0.15928l0.14447-0.19262c-0.13706-0.11113-0.33338-0.20374-0.55935-0.20374-0.38895 0-0.61862 0.22226-0.61862 0.51119 0 0.30375 0.28153 0.426 0.53712 0.5186 0.19633 0.07409 0.41118 0.15558 0.41118 0.3408 0 0.15558-0.11854 0.28153-0.35562 0.28153-0.21485 0-0.37413-0.0889-0.52971-0.21485z"/>
    <path d="m101.3 12.346c0 0.35561 0.12965 0.6001 0.5149 0.6001 0.11113 0 0.23337-0.03334 0.33339-0.06668l-0.0593-0.22967c-0.0593 0.02223-0.14077 0.04816-0.20374 0.04816-0.20744 0-0.27782-0.12595-0.27782-0.3482v-1.0002h0.48526v-0.24819h-0.48526v-0.50378h-0.2556l-0.037 0.50378-0.28153 0.01852v0.22967h0.26671z"/>
    <path d="m102.33 12.006c0 0.58898 0.38154 0.94089 0.8631 0.94089 0.24448 0 0.43711-0.0852 0.59269-0.18522l-0.10743-0.20003c-0.13335 0.0852-0.27782 0.14076-0.44822 0.14076-0.3445 0-0.57787-0.24448-0.60009-0.63344h1.215c7e-3 -0.04445 0.0111-0.10372 0.0111-0.16669 0-0.5149-0.2593-0.84458-0.71863-0.84458-0.41118 0-0.80754 0.35932-0.80754 0.9483zm0.29634-0.13706c0.037-0.36302 0.26671-0.57046 0.51861-0.57046 0.28152 0 0.44451 0.20374 0.44451 0.57046z"/>
    <path d="m104.31 12.902h0.30376v-1.1557c0.12224-0.30375 0.30375-0.41488 0.45563-0.41488 0.0741 0 0.11483 0.01111 0.1741 0.02964l0.0593-0.26671c-0.0593-0.02593-0.11484-0.03704-0.19263-0.03704-0.20373 0-0.38895 0.14447-0.51119 0.37043h-0.0111l-0.0259-0.32598h-0.2519z"/>
   </g>
   <path d="m75.135 36.264-3.6948 2.1332-3.6948-2.1332v-4.2664l3.6948-2.1332 3.6948 2.1332z" fill="#1d232d" stroke="#6f8ce9"/>
   <g fill="#e8eaec" aria-label="BA">
    <path d="m73.941 39.843h0.7779c0.54083 0 0.91867-0.23337 0.91867-0.71123 0-0.33339-0.20744-0.52601-0.56305-0.58158v-0.01482c0.28894-0.07409 0.426-0.28894 0.426-0.52972 0-0.426-0.3445-0.59269-0.83717-0.59269h-0.72234zm0.31116-1.3928v-0.79272h0.37413c0.37413 0 0.57046 0.11113 0.57046 0.37413 0 0.27041-0.1741 0.41859-0.58528 0.41859zm0 1.1483v-0.91867h0.42229c0.42599 0 0.65936 0.13706 0.65936 0.43711 0 0.32968-0.24448 0.48156-0.65936 0.48156z"/>
    <path d="m76.408 38.854 0.11854-0.37043c0.0852-0.27041 0.16299-0.53712 0.24078-0.81865h0.01482c0.07779 0.28153 0.15558 0.54824 0.24078 0.81865l0.11483 0.37043zm1.0409 0.98905h0.32598l-0.82236-2.43h-0.3482l-0.82235 2.43h0.31486l0.23337-0.74086h0.88533z"/>
   </g>
  </g>
 </g>
 <path d="m91.534 34.263h-14.983" fill="none" stroke="#7b8694" stroke-linecap="round" stroke-width=".26459"/>
 <g>
  <g transform="matrix(-.0044049 0 0 -.0044804 77.553 35.468)" fill="#7b8694" stroke-width="59.559">
   <g fill="#7b8694" stroke-width="59.559">
    <path d="m486.41 221.41-364.07-208.5c-52.938-30.318-95.852-5.44-95.852 55.563v415.65c0 61.004 42.914 85.882 95.852 55.563l364.07-208.49c52.938-30.317 52.938-79.473 0-109.79z" fill="#7b8694" stroke-width="59.559"/>
   </g>
  </g>
  <g stroke-width=".26459">
   <g stroke-linecap="round">
    <path d="m98.948 36.264-3.6948 2.1332-3.6948-2.1332v-4.2664l3.6948-2.1332 3.6948 2.1332z" fill="#1d232d" stroke="#6f8ce9"/>
    <g fill="#e8eaec" aria-label="#a8c">
     <path d="m92.209 28.995h0.20003l0.09261-0.75568h0.48897l-0.0889 0.75568h0.19633l0.09261-0.75568h0.3408v-0.21115h-0.31486l0.06668-0.54824h0.32227v-0.21485h-0.30005l0.0889-0.67789h-0.19633l-0.0889 0.67789h-0.49267l0.0852-0.67789h-0.19634l-0.0852 0.67789h-0.3408v0.21485h0.31486l-0.06668 0.54824h-0.32227v0.21115h0.29634zm0.31857-0.96682 0.06668-0.54824h0.48897l-0.06668 0.54824z"/>
     <path d="m93.928 28.528c0 0.32227 0.22596 0.51119 0.52972 0.51119 0.22226 0 0.42229-0.11854 0.59639-0.2593h0.0074l0.02593 0.21485h0.25189v-1.1039c0-0.44822-0.18522-0.74086-0.62603-0.74086-0.28894 0-0.54083 0.12595-0.70752 0.23337l0.12224 0.21114c0.14076-0.09631 0.32598-0.19262 0.53712-0.19262 0.29264 0 0.37043 0.22226 0.37043 0.45192-0.76679 0.0852-1.1076 0.28153-1.1076 0.67418zm0.30005-0.02223c0-0.22967 0.20374-0.37784 0.80754-0.45192v0.50008c-0.1741 0.15558-0.31857 0.24078-0.49267 0.24078-0.17781 0-0.31487-0.0852-0.31487-0.28894z"/>
     <path d="m96.035 28.362c0-0.21485 0.14076-0.38895 0.32968-0.5149 0.3408 0.13706 0.64084 0.24819 0.64084 0.55194 0 0.24448-0.18892 0.41488-0.46304 0.41488-0.28894 0-0.50749-0.18892-0.50749-0.45192zm0.66677-0.65566c-0.28523-0.11113-0.54453-0.22967-0.54453-0.51119 0-0.22967 0.16299-0.38154 0.38154-0.38154 0.2593 0 0.41118 0.18522 0.41118 0.41859 0 0.1741-0.0889 0.33339-0.24819 0.47415zm-0.94089 0.6853c0 0.37413 0.32968 0.64825 0.7742 0.64825 0.45933 0 0.76309-0.27782 0.76309-0.62973 0-0.31857-0.20003-0.48526-0.41118-0.6075v-0.01482c0.14447-0.11113 0.32598-0.32227 0.32598-0.57046 0-0.36673-0.2556-0.62973-0.66677-0.62973-0.38154 0-0.67048 0.24448-0.67048 0.6075 0 0.24819 0.15558 0.42229 0.32968 0.54453v0.01482c-0.22226 0.11854-0.44452 0.32968-0.44452 0.63714z"/>
     <path d="m97.617 28.099c0 0.59639 0.36673 0.94089 0.84458 0.94089 0.21485 0 0.42229-0.0889 0.58528-0.23337l-0.13706-0.20003c-0.10742 0.09631-0.25189 0.18151-0.42229 0.18151-0.32968 0-0.55564-0.27782-0.55564-0.689 0-0.41488 0.23708-0.69641 0.56305-0.69641 0.14447 0 0.2556 0.06668 0.36302 0.15928l0.15188-0.19633c-0.12224-0.11483-0.28894-0.21485-0.52601-0.21485-0.46304 0-0.86681 0.3445-0.86681 0.9483z"/>
    </g>
    <g fill="#e8eaec" aria-label="BB">
     <path d="m97.754 39.843h0.7779c0.54083 0 0.91867-0.23337 0.91867-0.71123 0-0.33339-0.20744-0.52601-0.56305-0.58158v-0.01482c0.28894-0.07409 0.426-0.28894 0.426-0.52972 0-0.426-0.3445-0.59269-0.83717-0.59269h-0.72234zm0.31116-1.3928v-0.79272h0.37413c0.37413 0 0.57046 0.11113 0.57046 0.37413 0 0.27041-0.1741 0.41859-0.58528 0.41859zm0 1.1483v-0.91867h0.42229c0.426 0 0.65936 0.13706 0.65936 0.43711 0 0.32968-0.24448 0.48156-0.65936 0.48156z"/>
     <path d="m99.918 39.843h0.7779c0.54083 0 0.91867-0.23337 0.91867-0.71123 0-0.33339-0.20744-0.52601-0.56306-0.58158v-0.01482c0.28894-0.07409 0.426-0.28894 0.426-0.52972 0-0.426-0.3445-0.59269-0.83717-0.59269h-0.72234zm0.31116-1.3928v-0.79272h0.37413c0.37414 0 0.57047 0.11113 0.57047 0.37413 0 0.27041-0.17411 0.41859-0.58528 0.41859zm0 1.1483v-0.91867h0.42229c0.42599 0 0.65937 0.13706 0.65937 0.43711 0 0.32968-0.24449 0.48156-0.65937 0.48156z"/>
    </g>
   </g>
   <path d="m118.01 31.645c-1.4503 0-2.6178 1.1675-2.6178 2.6178s1.1675 2.6178 2.6178 2.6178h5.821c1.4503 0 2.6178-1.1675 2.6178-2.6178s-1.1675-2.6178-2.6178-2.6178z" fill="#1d232d" stroke="#7893ea"/>
  </g>
 </g>
 <path d="m115.35 34.263h-14.983" fill="none" stroke="#6f8ce9" stroke-linecap="round" stroke-width=".26459"/>
 <g transform="matrix(-.0044049 0 0 -.0044804 101.37 35.468)" fill="#6f8ce9" stroke-width="59.559">
  <g fill="#6f8ce9" stroke-width="59.559">
   <path d="m486.41 221.41-364.07-208.5c-52.938-30.318-95.852-5.44-95.852 55.563v415.65c0 61.004 42.914 85.882 95.852 55.563l364.07-208.49c52.938-30.317 52.938-79.473 0-109.79z" fill="#6f8ce9" stroke-width="59.559"/>
  </g>
 </g>
 <g fill="#e8eaec" stroke-linecap="round" stroke-width=".26459" aria-label="dev">
  <path d="m118.15 34.496c0 0.6001 0.29264 0.94089 0.74457 0.94089 0.21114 0 0.40377-0.11854 0.54453-0.2556h0.0111l0.0259 0.21114h0.2519v-2.6375h-0.30746v0.6927l0.0148 0.30746c-0.15929-0.12965-0.29635-0.20744-0.50379-0.20744-0.41118 0-0.78161 0.36302-0.78161 0.9483zm0.31487-0.0037c0-0.41118 0.22967-0.689 0.5186-0.689 0.14817 0 0.28523 0.05186 0.43711 0.18892v0.94089c-0.14817 0.16669-0.29264 0.24819-0.45933 0.24819-0.31487 0-0.49638-0.2593-0.49638-0.689z"/>
  <path d="m120.2 34.496c0 0.58898 0.38154 0.94089 0.8631 0.94089 0.24448 0 0.43711-0.0852 0.59269-0.18522l-0.10743-0.20003c-0.13335 0.0852-0.27782 0.14076-0.44822 0.14076-0.3445 0-0.57787-0.24448-0.60009-0.63344h1.215c7e-3 -0.04445 0.0111-0.10372 0.0111-0.16669 0-0.5149-0.2593-0.84458-0.71863-0.84458-0.41118 0-0.80754 0.35932-0.80754 0.9483zm0.29634-0.13706c0.0371-0.36302 0.26671-0.57046 0.5186-0.57046 0.28153 0 0.44452 0.20374 0.44452 0.57046z"/>
  <path d="m122.59 35.392h0.35561l0.63714-1.8003h-0.30005l-0.34079 1.0224c-0.0519 0.17781-0.11113 0.35932-0.16299 0.52972h-0.0148c-0.0556-0.1704-0.11483-0.35191-0.16669-0.52972l-0.3408-1.0224h-0.31486z"/>
 </g>
 <path d="m71.424 29.613v-12.337" fill="none" stroke="#7b8694" stroke-linecap="round" stroke-width=".26459"/>
 <g>
  <g transform="matrix(0 -.0044049 .0044804 0 70.22 18.277)" fill="#7b8694" stroke-width="59.559">
   <g fill="#7b8694" stroke-width="59.559">
    <path d="m486.41 221.41-364.07-208.5c-52.938-30.318-95.852-5.44-95.852 55.563v415.65c0 61.004 42.914 85.882 95.852 55.563l364.07-208.49c52.938-30.317 52.938-79.473 0-109.79z" fill="#7b8694" stroke-width="59.559"/>
   </g>
  </g>
  <g fill="#e8eaec" stroke-linecap="round" stroke-width=".26459" aria-label="#468">
   <path d="m68.396 28.995h0.20003l0.09261-0.75568h0.48897l-0.0889 0.75568h0.19633l0.09261-0.75568h0.3408v-0.21115h-0.31486l0.06668-0.54824h0.32227v-0.21485h-0.30006l0.0889-0.67789h-0.19633l-0.0889 0.67789h-0.49267l0.0852-0.67789h-0.19633l-0.0852 0.67789h-0.3408v0.21485h0.31486l-0.06668 0.54824h-0.32227v0.21115h0.29634zm0.31857-0.96682 0.06668-0.54824h0.48897l-0.06668 0.54824z"/>
   <path d="m70.285 28.099 0.55194-0.80754c0.06668-0.11483 0.13336-0.21855 0.19262-0.33339h0.01482c-0.0074 0.12595-0.01852 0.32968-0.01852 0.45563v0.6853zm1.3521 0h-0.32227v-1.4669h-0.3408l-1.0113 1.5114v0.20003h1.0631v0.65196h0.28894v-0.65196h0.32227z"/>
   <path d="m72.73 28.799c-0.30005 0-0.48156-0.24819-0.5186-0.70752 0.15928-0.22226 0.3445-0.31116 0.49267-0.31116 0.29264 0 0.43711 0.19262 0.43711 0.50008 0 0.31116-0.17781 0.5186-0.41118 0.5186zm0.65566-1.9596c-0.13336-0.14447-0.31487-0.25189-0.57046-0.25189-0.47045 0-0.90014 0.36673-0.90014 1.315 0 0.75938 0.35191 1.1372 0.81495 1.1372 0.38154 0 0.70011-0.30746 0.70011-0.75938 0-0.48526-0.26671-0.72975-0.67418-0.72975-0.19262 0-0.40377 0.11483-0.55194 0.29634 0.01482-0.74827 0.29264-1.0039 0.62232-1.0039 0.14817 0 0.29264 0.07038 0.38895 0.18522z"/>
   <path d="m74.001 28.362c0-0.21485 0.14076-0.38895 0.32968-0.5149 0.3408 0.13706 0.64084 0.24819 0.64084 0.55194 0 0.24448-0.18892 0.41488-0.46304 0.41488-0.28894 0-0.50749-0.18892-0.50749-0.45192zm0.66677-0.65566c-0.28523-0.11113-0.54453-0.22967-0.54453-0.51119 0-0.22967 0.16299-0.38154 0.38154-0.38154 0.2593 0 0.41118 0.18522 0.41118 0.41859 0 0.1741-0.0889 0.33339-0.24819 0.47415zm-0.94089 0.6853c0 0.37413 0.32968 0.64825 0.7742 0.64825 0.45933 0 0.76308-0.27782 0.76308-0.62973 0-0.31857-0.20003-0.48526-0.41118-0.6075v-0.01482c0.14447-0.11113 0.32598-0.32227 0.32598-0.57046 0-0.36673-0.2556-0.62973-0.66677-0.62973-0.38154 0-0.67048 0.24448-0.67048 0.6075 0 0.24819 0.15558 0.42229 0.32968 0.54453v0.01482c-0.22226 0.11854-0.44452 0.32968-0.44452 0.63714z"/>
  </g>
  <g fill="#e8eaec" stroke-linecap="round" stroke-width=".26459" aria-label="git merge dev master">
   <path d="m88.949 48.764c0-0.20374 0.1704-0.37043 0.37413-0.37043 0.20744 0 0.37414 0.16669 0.37414 0.37043 0 0.20374-0.16669 0.37043-0.37414 0.37043-0.20744 0-0.37413-0.16669-0.37413-0.37043zm0.38895-0.58158c-0.33709 0-0.62973 0.26671-0.62973 0.59639 0 0.18522 0.09261 0.35932 0.24819 0.45933-0.12224 0.10372-0.19262 0.21855-0.19262 0.32598 0 0.07038 0.02964 0.1704 0.13706 0.22596-0.18151 0.11483-0.27412 0.24078-0.27412 0.37414 0 0.18522 0.1704 0.40377 0.76309 0.40377 0.57417 0 0.78161-0.29264 0.78161-0.5186 0-0.14817-0.0852-0.29634-0.263-0.36672-0.17781-0.07409-0.38154-0.04816-0.57417-0.04816-0.12595 0-0.20744-0.01111-0.24078-0.02223-0.06668-0.01852-0.10372-0.05927-0.10372-0.11113 0-0.0889 0.10372-0.1741 0.12224-0.18892 0.06668 0.02593 0.14076 0.03704 0.21485 0.03704 0.33339 0 0.6075-0.26671 0.6075-0.57787 0-0.10372-0.02963-0.20374-0.0852-0.28894 0.0889-0.05186 0.19262-0.08149 0.29634-0.08149 0.03334 0 0.06297 0.0037 0.09631 0.01111l-0.02963-0.21855c-0.1704-0.01482-0.3408 0.04075-0.47045 0.14817-0.10742-0.10372-0.24819-0.15928-0.40377-0.15928zm-0.2556 1.6558c0.06297 0.0074 0.15188 0.01482 0.28153 0.02223 0.12595 0.0037 0.263-0.0074 0.35932 0.0074 0.15558 0.02593 0.20374 0.12224 0.20374 0.19633 0 0.07409-0.04445 0.16299-0.15928 0.22596-0.12595 0.06668-0.26671 0.07409-0.38154 0.07409-0.07779 0-0.22226-0.0037-0.3482-0.05557-0.13706-0.05556-0.16669-0.14817-0.16669-0.20744 0-0.12224 0.11483-0.21114 0.21114-0.26301z"/>
   <path d="m90.731 48.234v0.21855h0.40747v1.2632h-0.4297v0.21115h1.0965v-0.21115h-0.39636v-1.4817zm0.54824-0.73345c-0.10742 0-0.19262 0.0852-0.19262 0.18892 0 0.10372 0.0852 0.18892 0.19262 0.18892s0.19262-0.0852 0.19262-0.18892-0.0852-0.18892-0.19262-0.18892z"/>
   <path d="m92.887 47.782-0.03334 0.45563h-0.40377l-0.0037 0.21855h0.39636c-0.02222 0.28894-0.03334 0.57787-0.03334 0.8631 0 0.15188 0 0.32227 0.10002 0.46304 0.08149 0.11113 0.21114 0.17781 0.38525 0.17781 0.20003 0 0.39636-0.0852 0.54083-0.18892l-0.0815-0.21114c-0.14447 0.10742-0.27782 0.15558-0.38154 0.15558-0.12595 0-0.2556-0.07038-0.28523-0.27412 0-0.01482-0.01111-0.07779-0.01111-0.32598 0-0.21855 0.01111-0.44081 0.03334-0.65936h0.55564v-0.22226h-0.55194s0.02593-0.30375 0.04445-0.40006c0.0037-0.03704 0.03334-0.05927 0.01852-0.10002z"/>
   <path d="m96.032 49.927h0.24448v-1.1261c0-0.08149 0.0074-0.15558 0.05557-0.24448 0.05927-0.11113 0.13336-0.15558 0.20374-0.15558 0.05927 0 0.12595 0.03704 0.15558 0.12965 0.02223 0.07038 0.01852 0.15188 0.01852 0.22226v1.1743h0.24819v-1.1187c0-0.0889 0.0074-0.15928 0.07038-0.26671 0.02963-0.04445 0.09261-0.15188 0.19633-0.15188 0.05557 0 0.10742 0.03334 0.13336 0.09631 0.03334 0.07038 0.02593 0.16669 0.02593 0.24448v1.2002h0.25189v-1.2039c0-0.14076 0.0037-0.28153-0.07038-0.39636-0.06297-0.09631-0.1704-0.13335-0.26301-0.13335-0.16299 0-0.31486 0.09631-0.38154 0.24448-0.02593-0.14076-0.14447-0.24448-0.29634-0.24448-0.14076 0-0.27041 0.0889-0.3482 0.20744l0.0037-0.16669h-0.24819z"/>
   <path d="m98.703 48.197c-0.40377 0-0.7779 0.28894-0.7779 0.90385 0 0.56676 0.35191 0.86681 0.81124 0.86681 0.24448 0 0.46304-0.0889 0.6075-0.263l-0.14817-0.14447c-0.10742 0.12595-0.27041 0.19262-0.43711 0.19262-0.22596 0-0.55564-0.12595-0.57417-0.63344h1.2002c0.01111-0.11483 0.0074-0.22596-0.01111-0.32227-0.07779-0.45563-0.39266-0.6001-0.67048-0.6001zm-0.51119 0.71863c0.05557-0.40006 0.31116-0.5149 0.49267-0.5149 0.27412 0 0.47045 0.24078 0.43711 0.5149z"/>
   <path d="m99.966 48.238v1.6929h0.26671v-0.82236c0-0.10372 4e-3 -0.21485 0.11854-0.39636 0.15558-0.24448 0.35561-0.28523 0.47786-0.28523 0.14076 0 0.22966 0.06668 0.27782 0.12595 0.0222 0.02963 0.0333 0.05927 0.063 0.0852l0.12595-0.2556c-0.10743-0.11113-0.26301-0.18522-0.45193-0.18522-0.24818 0-0.50008 0.12595-0.61121 0.36672l0.0111-0.32598z"/>
   <path d="m101.91 48.764c0-0.20374 0.17039-0.37043 0.37413-0.37043 0.20744 0 0.37413 0.16669 0.37413 0.37043 0 0.20374-0.16669 0.37043-0.37413 0.37043s-0.37413-0.16669-0.37413-0.37043zm0.38895-0.58158c-0.33709 0-0.62973 0.26671-0.62973 0.59639 0 0.18522 0.0926 0.35932 0.24818 0.45933-0.12224 0.10372-0.19262 0.21855-0.19262 0.32598 0 0.07038 0.0296 0.1704 0.13706 0.22596-0.18151 0.11483-0.27412 0.24078-0.27412 0.37414 0 0.18522 0.1704 0.40377 0.76309 0.40377 0.57416 0 0.7816-0.29264 0.7816-0.5186 0-0.14817-0.0852-0.29634-0.263-0.36672-0.17781-0.07409-0.38154-0.04816-0.57417-0.04816-0.12594 0-0.20744-0.01111-0.24078-0.02223-0.0667-0.01852-0.10372-0.05927-0.10372-0.11113 0-0.0889 0.10372-0.1741 0.12225-0.18892 0.0667 0.02593 0.14076 0.03704 0.21484 0.03704 0.33339 0 0.60751-0.26671 0.60751-0.57787 0-0.10372-0.0296-0.20374-0.0852-0.28894 0.0889-0.05186 0.19262-0.08149 0.29634-0.08149 0.0333 0 0.063 0.0037 0.0963 0.01111l-0.0296-0.21855c-0.1704-0.01482-0.34079 0.04075-0.47044 0.14817-0.10743-0.10372-0.24819-0.15928-0.40377-0.15928zm-0.2556 1.6558c0.063 0.0074 0.15188 0.01482 0.28153 0.02223 0.12594 0.0037 0.263-0.0074 0.35931 0.0074 0.15559 0.02593 0.20374 0.12224 0.20374 0.19633 0 0.07409-0.0444 0.16299-0.15928 0.22596-0.12595 0.06668-0.26671 0.07409-0.38155 0.07409-0.0778 0-0.22225-0.0037-0.3482-0.05557-0.13706-0.05556-0.16669-0.14817-0.16669-0.20744 0-0.12224 0.11483-0.21114 0.21114-0.26301z"/>
   <path d="m104.26 48.197c-0.40377 0-0.77791 0.28894-0.77791 0.90385 0 0.56676 0.35191 0.86681 0.81125 0.86681 0.24448 0 0.46303-0.0889 0.6075-0.263l-0.14817-0.14447c-0.10743 0.12595-0.27041 0.19262-0.43711 0.19262-0.22596 0-0.55564-0.12595-0.57416-0.63344h1.2002c0.0111-0.11483 7e-3 -0.22596-0.0111-0.32227-0.0778-0.45563-0.39266-0.6001-0.67048-0.6001zm-0.5112 0.71863c0.0556-0.40006 0.31117-0.5149 0.49268-0.5149 0.27411 0 0.47044 0.24078 0.4371 0.5149z"/>
   <path d="m108.38 48.482c-0.0815-0.1741-0.263-0.28894-0.49637-0.28894-0.32228 0-0.71493 0.22967-0.71493 0.87422 0 0.62603 0.3482 0.90014 0.67418 0.90014 0.21485 0 0.41488-0.12224 0.52231-0.31116v0.14817c0 0.04075 4e-3 0.08149 0.0148 0.12224h0.26671c-0.0148-0.04816-0.0148-0.10372-0.0148-0.15558l-4e-3 -2.2004c0-0.02223 0-0.02963 0.0148-0.05186 7e-3 -0.01111 0.0222-0.02964 0.0185-0.05557h-0.28153zm-0.48526-0.07038c0.14817 0 0.36673 0.07779 0.4334 0.32968 0.0222 0.07779 0.0296 0.1704 0.0296 0.35932 0 0.12965-7e-3 0.22226-0.0371 0.31116-0.063 0.20003-0.24077 0.31857-0.41488 0.31857-0.19262 0-0.47785-0.14817-0.47785-0.70382 0-0.48526 0.27041-0.61491 0.46674-0.61491z"/>
   <path d="m109.82 48.197c-0.40377 0-0.77791 0.28894-0.77791 0.90385 0 0.56676 0.35191 0.86681 0.81125 0.86681 0.24448 0 0.46303-0.0889 0.6075-0.263l-0.14817-0.14447c-0.10743 0.12595-0.27041 0.19262-0.43711 0.19262-0.22596 0-0.55564-0.12595-0.57416-0.63344h1.2002c0.0111-0.11483 7e-3 -0.22596-0.0111-0.32227-0.0778-0.45563-0.39266-0.6001-0.67048-0.6001zm-0.5112 0.71863c0.0556-0.40006 0.31117-0.5149 0.49268-0.5149 0.27411 0 0.47044 0.24078 0.4371 0.5149z"/>
   <path d="m110.86 48.234 0.67047 1.7077h0.21115l0.41118-0.96682c0.10001-0.23708 0.19632-0.48156 0.25189-0.74086h-0.24078c-0.0444 0.24819-0.13336 0.48156-0.22967 0.70382l-0.27041 0.62973-0.48897-1.2372c-4e-3 -0.0074-7e-3 -0.01482-7e-3 -0.02222 0-0.02223 0.0185-0.04445 0.0111-0.07409z"/>
   <path d="m114.55 49.927h0.24448v-1.1261c0-0.08149 7e-3 -0.15558 0.0556-0.24448 0.0593-0.11113 0.13335-0.15558 0.20373-0.15558 0.0593 0 0.12595 0.03704 0.15558 0.12965 0.0222 0.07038 0.0185 0.15188 0.0185 0.22226v1.1743h0.24819v-1.1187c0-0.0889 7e-3 -0.15928 0.0704-0.26671 0.0296-0.04445 0.0926-0.15188 0.19633-0.15188 0.0556 0 0.10743 0.03334 0.13336 0.09631 0.0333 0.07038 0.0259 0.16669 0.0259 0.24448v1.2002h0.25189v-1.2039c0-0.14076 4e-3 -0.28153-0.0704-0.39636-0.063-0.09631-0.1704-0.13335-0.26301-0.13335-0.16299 0-0.31486 0.09631-0.38154 0.24448-0.0259-0.14076-0.14447-0.24448-0.29634-0.24448-0.14077 0-0.27042 0.0889-0.34821 0.20744l4e-3 -0.16669h-0.24819z"/>
   <path d="m116.6 48.434 0.12965 0.1704c0.14076-0.14447 0.32968-0.18892 0.48896-0.18892 0.20004 0 0.30005 0.0852 0.34821 0.16299 0.0556 0.09261 0.0519 0.20374 0.0519 0.29264v0.05927h-0.0519c-0.2519 0-0.5186 0-0.73345 0.07779-0.26671 0.09631-0.38525 0.29634-0.38525 0.48156 0 0.24819 0.21485 0.48156 0.56676 0.48156 0.20744 0 0.42229-0.07779 0.6075-0.22967v0.18522h0.25189v-1.0483c0-0.13706-4e-3 -0.26671-0.0815-0.40006-0.11113-0.18151-0.32598-0.27782-0.58898-0.27782-0.22597 0-0.44452 0.07038-0.6038 0.23337zm1.0298 0.70011v0.11483c0 0.0852 0 0.19633-0.11483 0.31857-0.063 0.06297-0.22226 0.20003-0.44452 0.20003-0.22596 0-0.35561-0.14447-0.35561-0.29264 0-0.12595 0.0852-0.263 0.29634-0.31487 0.15558-0.03704 0.38155-0.02593 0.55935-0.02593z"/>
   <path d="m119.72 48.46c-0.15558-0.1704-0.38155-0.263-0.63344-0.263-0.39266 0-0.64825 0.21855-0.64825 0.47045 0 0.29634 0.31857 0.40377 0.41118 0.43711 0.14446 0.05186 0.32968 0.09631 0.45562 0.15558 0.14077 0.06668 0.1667 0.15558 0.1667 0.21485 0 0.15928-0.19263 0.26671-0.43341 0.26671-0.28893 0-0.47415-0.1741-0.52971-0.23337-0.0111-0.01482-0.0111-0.02593-0.0111-0.04075 0-0.0037 4e-3 -0.02593-0.0148-0.03334l-0.15558 0.263c0.20003 0.18522 0.45933 0.27041 0.71493 0.27041 0.46304 0 0.70382-0.27412 0.70382-0.52972 0-0.11483-0.0482-0.27041-0.24819-0.38154-0.18892-0.10742-0.46304-0.14447-0.62232-0.22226-0.13706-0.06668-0.1667-0.14817-0.1667-0.20744 0-0.13335 0.1667-0.22967 0.35561-0.22967 0.24449 0 0.40748 0.14817 0.47045 0.23337 0.0111 0.01111 7e-3 0.02222 7e-3 0.03334 0 0.02223 0.0148 0.02963 0.0222 0.02963z"/>
   <path d="m120.67 47.782-0.0333 0.45563h-0.40377l-4e-3 0.21855h0.39636c-0.0222 0.28894-0.0333 0.57787-0.0333 0.8631 0 0.15188 0 0.32227 0.10001 0.46304 0.0815 0.11113 0.21115 0.17781 0.38525 0.17781 0.20003 0 0.39636-0.0852 0.54083-0.18892l-0.0815-0.21114c-0.14447 0.10742-0.27782 0.15558-0.38154 0.15558-0.12595 0-0.2556-0.07038-0.28523-0.27412 0-0.01482-0.0111-0.07779-0.0111-0.32598 0-0.21855 0.0111-0.44081 0.0333-0.65936h0.55565v-0.22226h-0.55194s0.0259-0.30375 0.0444-0.40006c4e-3 -0.03704 0.0333-0.05927 0.0185-0.10002z"/>
   <path d="m122.78 48.197c-0.40377 0-0.77791 0.28894-0.77791 0.90385 0 0.56676 0.35191 0.86681 0.81125 0.86681 0.24448 0 0.46303-0.0889 0.6075-0.263l-0.14817-0.14447c-0.10743 0.12595-0.27041 0.19262-0.43711 0.19262-0.22596 0-0.55564-0.12595-0.57416-0.63344h1.2002c0.0111-0.11483 7e-3 -0.22596-0.0111-0.32227-0.0778-0.45563-0.39266-0.6001-0.67048-0.6001zm-0.5112 0.71863c0.0556-0.40006 0.31117-0.5149 0.49268-0.5149 0.27411 0 0.47044 0.24078 0.4371 0.5149z"/>
   <path d="m124.04 48.238v1.6929h0.26671v-0.82236c0-0.10372 4e-3 -0.21485 0.11854-0.39636 0.15558-0.24448 0.35561-0.28523 0.47786-0.28523 0.14076 0 0.22966 0.06668 0.27782 0.12595 0.0222 0.02963 0.0333 0.05927 0.063 0.0852l0.12595-0.2556c-0.10743-0.11113-0.26301-0.18522-0.45193-0.18522-0.24819 0-0.50008 0.12595-0.61121 0.36672l0.0111-0.32598z"/>
  </g>
  <g transform="matrix(0 .0044049 -.0044804 0 87.233 52.593)" fill="#6f8ce9" stroke-width="59.559">
   <g fill="#6f8ce9" stroke-width="59.559">
    <path d="m486.41 221.41-364.07-208.5c-52.938-30.318-95.852-5.44-95.852 55.563v415.65c0 61.004 42.914 85.882 95.852 55.563l364.07-208.49c52.938-30.317 52.938-79.473 0-109.79z" fill="#6f8ce9" stroke-width="59.559"/>
   </g>
  </g>
  <path d="m85.993 54.239v-10.055" fill="#1d232d" stroke="#6f8ce9" stroke-linecap="square" stroke-width=".26459"/>
  <rect transform="matrix(.70711 .70711 .70711 -.70711 0 0)" x="91.113" y="29.385" width="1.1134" height="1.1134" fill="#6f8ce9"/>
 </g>
</svg>
