<?xml version="1.0" encoding="UTF-8"?>
<svg width="649.64" height="350" version="1.1" viewBox="0 0 171.89 92.604" xmlns="http://www.w3.org/2000/svg" xmlns:cc="http://creativecommons.org/ns#" xmlns:dc="http://purl.org/dc/elements/1.1/" xmlns:rdf="http://www.w3.org/1999/02/22-rdf-syntax-ns#">
 <metadata>
  <rdf:RDF>
   <cc:Work rdf:about="">
    <dc:format>image/svg+xml</dc:format>
    <dc:type rdf:resource="http://purl.org/dc/dcmitype/StillImage"/>
    <dc:title/>
   </cc:Work>
  </rdf:RDF>
 </metadata>
 <rect x="7.1054e-15" y="-.001721" width="171.89" height="52.919" fill="#2f3744" fill-opacity=".50196"/>
 <path d="m40.738 20.388-3.6948 2.1332-3.6948-2.1332v-4.2664l3.6948-2.1332 3.6948 2.1332z" fill="#1d232d" stroke="#6f8ce9" stroke-linecap="round" stroke-width=".26459"/>
 <path d="m57.137 18.388h-14.983" fill="none" stroke="#7b8694" stroke-linecap="round" stroke-width=".26459"/>
 <g transform="matrix(-.0044049 0 0 -.0044804 43.156 19.593)" fill="#7b8694" stroke-width="59.559">
  <g fill="#7b8694" stroke-width="59.559">
   <path d="m486.41 221.41-364.07-208.5c-52.938-30.318-95.852-5.44-95.852 55.563v415.65c0 61.004 42.914 85.882 95.852 55.563l364.07-208.49c52.938-30.317 52.938-79.473 0-109.79z" fill="#7b8694" stroke-width="59.559"/>
  </g>
 </g>
 <path d="m64.551 20.388-3.6948 2.1332-3.6948-2.1332v-4.2664l3.6948-2.1332 3.6948 2.1332z" fill="#1d232d" stroke="#6f8ce9" stroke-linecap="round" stroke-width=".26459"/>
 <g fill="#e8eaec" stroke-linecap="round" stroke-width=".26459">
  <g aria-label="#cab">
   <path d="m33.734 13.12h0.20003l0.09261-0.75568h0.48897l-0.0889 0.75568h0.19633l0.09261-0.75568h0.3408v-0.21114h-0.31486l0.06668-0.54824h0.32227v-0.21485h-0.30005l0.0889-0.67789h-0.19633l-0.0889 0.67789h-0.49267l0.0852-0.67789h-0.19633l-0.0852 0.67789h-0.3408v0.21485h0.31486l-0.06668 0.54824h-0.32227v0.21114h0.29634zm0.31857-0.96682 0.06668-0.54824h0.48897l-0.06668 0.54824z"/>
   <path d="m35.409 12.224c0 0.59639 0.36673 0.94089 0.84458 0.94089 0.21485 0 0.42229-0.0889 0.58528-0.23337l-0.13706-0.20003c-0.10742 0.09631-0.25189 0.18151-0.42229 0.18151-0.32968 0-0.55564-0.27782-0.55564-0.689 0-0.41488 0.23708-0.69641 0.56305-0.69641 0.14447 0 0.2556 0.06668 0.36302 0.15928l0.15188-0.19633c-0.12224-0.11483-0.28894-0.21485-0.52601-0.21485-0.46304 0-0.86681 0.3445-0.86681 0.9483z"/>
   <path d="m37.103 12.653c0 0.32227 0.22596 0.51119 0.52972 0.51119 0.22226 0 0.42229-0.11854 0.59639-0.2593h0.0074l0.02593 0.21485h0.25189v-1.1039c0-0.44822-0.18522-0.74086-0.62603-0.74086-0.28894 0-0.54083 0.12595-0.70752 0.23337l0.12224 0.21114c0.14076-0.09631 0.32598-0.19262 0.53712-0.19262 0.29264 0 0.37043 0.22226 0.37043 0.45192-0.76679 0.0852-1.1076 0.28153-1.1076 0.67418zm0.30005-0.02223c0-0.22967 0.20374-0.37784 0.80754-0.45192v0.50008c-0.1741 0.15558-0.31857 0.24078-0.49267 0.24078-0.17781 0-0.31487-0.0852-0.31487-0.28894z"/>
   <path d="m39.087 13.12h0.24448l0.02593-0.17781h0.01111c0.15928 0.14076 0.3482 0.22226 0.5149 0.22226 0.41118 0 0.7779-0.35932 0.7779-0.97423 0-0.55564-0.24819-0.91496-0.71493-0.91496-0.20003 0-0.40006 0.10742-0.56305 0.25189l0.0074-0.32598v-0.71863h-0.30375zm0.30375-0.40006v-0.9446c0.1704-0.15928 0.32968-0.24448 0.48156-0.24448 0.3408 0 0.47415 0.26671 0.47415 0.66307 0 0.44452-0.21855 0.71493-0.5149 0.71493-0.11854 0-0.28153-0.05186-0.44081-0.18892z"/>
  </g>
  <g aria-label="#06c">
   <path d="m57.547 13.12h0.20003l0.09261-0.75568h0.48896l-0.0889 0.75568h0.19633l0.09261-0.75568h0.3408v-0.21114h-0.31486l0.06668-0.54824h0.32227v-0.21485h-0.30005l0.0889-0.67789h-0.19633l-0.0889 0.67789h-0.49267l0.0852-0.67789h-0.19633l-0.0852 0.67789h-0.3408v0.21485h0.31486l-0.06668 0.54824h-0.32227v0.21114h0.29634zm0.31857-0.96682 0.06668-0.54824h0.48897l-0.06668 0.54824z"/>
   <path d="m59.974 13.164c0.47045 0 0.75568-0.44081 0.75568-1.2335s-0.28523-1.2187-0.75568-1.2187c-0.47415 0-0.75938 0.426-0.75938 1.2187s0.28523 1.2335 0.75938 1.2335zm0-0.24448c-0.27782 0-0.46304-0.29634-0.46304-0.98905s0.18522-0.97423 0.46304-0.97423c0.27412 0 0.45933 0.28153 0.45933 0.97423s-0.18522 0.98905-0.45933 0.98905z"/>
   <path d="m61.882 12.924c-0.30005 0-0.48156-0.24819-0.5186-0.70752 0.15928-0.22226 0.3445-0.31116 0.49267-0.31116 0.29264 0 0.43711 0.19262 0.43711 0.50008 0 0.31116-0.17781 0.5186-0.41118 0.5186zm0.65566-1.9596c-0.13336-0.14447-0.31486-0.25189-0.57046-0.25189-0.47045 0-0.90014 0.36673-0.90014 1.315 0 0.75938 0.35191 1.1372 0.81495 1.1372 0.38154 0 0.70011-0.30746 0.70011-0.75938 0-0.48526-0.26671-0.72975-0.67418-0.72975-0.19262 0-0.40377 0.11483-0.55194 0.29634 0.01482-0.74827 0.29264-1.0039 0.62232-1.0039 0.14817 0 0.29264 0.07038 0.38895 0.18522z"/>
   <path d="m62.897 12.224c0 0.59639 0.36672 0.94089 0.84458 0.94089 0.21485 0 0.42229-0.0889 0.58528-0.23337l-0.13706-0.20003c-0.10742 0.09631-0.25189 0.18151-0.42229 0.18151-0.32968 0-0.55564-0.27782-0.55564-0.689 0-0.41488 0.23708-0.69641 0.56305-0.69641 0.14447 0 0.2556 0.06668 0.36302 0.15928l0.15188-0.19633c-0.12224-0.11483-0.28894-0.21485-0.52601-0.21485-0.46304 0-0.86681 0.3445-0.86681 0.9483z"/>
  </g>
  <g stroke="#cf2f25" aria-label="A">
   <path d="m39.848 22.979 0.11854-0.37043c0.0852-0.27041 0.16299-0.53712 0.24078-0.81865h0.01482c0.07779 0.28153 0.15558 0.54824 0.24078 0.81865l0.11483 0.37043zm1.0409 0.98905h0.32598l-0.82236-2.43h-0.3482l-0.82236 2.43h0.31487l0.23337-0.74086h0.88533z" fill="#e8eaec" stroke="none"/>
  </g>
  <g stroke="#cf2f25" aria-label="B">
   <path d="m63.357 23.968h0.7779c0.54083 0 0.91867-0.23337 0.91867-0.71122 0-0.33339-0.20744-0.52601-0.56305-0.58158v-0.01482c0.28894-0.07409 0.426-0.28894 0.426-0.52972 0-0.42599-0.3445-0.59269-0.83717-0.59269h-0.72234zm0.31116-1.3928v-0.79272h0.37413c0.37413 0 0.57046 0.11113 0.57046 0.37414 0 0.27041-0.1741 0.41858-0.58528 0.41858zm0 1.1483v-0.91867h0.42229c0.426 0 0.65936 0.13706 0.65936 0.43711 0 0.32968-0.24448 0.48156-0.65936 0.48156z" fill="#e8eaec" stroke="none"/>
  </g>
 </g>
 <g stroke-width=".26459">
  <path d="m64.551 45.525-3.6948 2.1332-3.6948-2.1332v-4.2664l3.6948-2.1332 3.6948 2.1332z" fill="#1d232d" stroke="#6f8ce9" stroke-linecap="round"/>
  <g fill="#e8eaec" stroke-linecap="round" aria-label="BA">
   <path d="m63.357 49.105h0.7779c0.54083 0 0.91867-0.23337 0.91867-0.71122 0-0.33339-0.20744-0.52601-0.56305-0.58158v-0.01482c0.28894-0.07409 0.426-0.28894 0.426-0.52972 0-0.42599-0.3445-0.59269-0.83717-0.59269h-0.72234zm0.31116-1.3928v-0.79272h0.37413c0.37413 0 0.57046 0.11113 0.57046 0.37413 0 0.27041-0.1741 0.41859-0.58528 0.41859zm0 1.1483v-0.91867h0.42229c0.426 0 0.65936 0.13706 0.65936 0.43711 0 0.32968-0.24448 0.48156-0.65936 0.48156z"/>
   <path d="m65.824 48.116 0.11854-0.37043c0.0852-0.27041 0.16299-0.53712 0.24078-0.81865h0.01482c0.07779 0.28153 0.15558 0.54824 0.24078 0.81865l0.11483 0.37043zm1.0409 0.98905h0.32598l-0.82235-2.43h-0.3482l-0.82236 2.43h0.31486l0.23337-0.74086h0.88533z"/>
  </g>
  <path d="m83.611 40.906c-1.4503 0-2.6178 1.1675-2.6178 2.6178s1.1675 2.6178 2.6178 2.6178h11.113c1.4503 0 2.6178-1.1675 2.6178-2.6178s-1.1675-2.6178-2.6178-2.6178z" fill="#1d232d" stroke="#7893ea"/>
 </g>
 <path d="m80.95 43.524h-14.983" fill="none" stroke="#6f8ce9" stroke-linecap="round" stroke-width=".26459"/>
 <g transform="matrix(-.0044049 0 0 -.0044804 66.969 44.729)" fill="#6f8ce9" stroke-width="59.559">
  <g fill="#6f8ce9" stroke-width="59.559">
   <path d="m486.41 221.41-364.07-208.5c-52.938-30.318-95.852-5.44-95.852 55.563v415.65c0 61.004 42.914 85.882 95.852 55.563l364.07-208.49c52.938-30.317 52.938-79.473 0-109.79z" fill="#6f8ce9" stroke-width="59.559"/>
  </g>
 </g>
 <g fill="#e8eaec" stroke-linecap="round" stroke-width=".26459" aria-label="feature">
  <path d="m84.763 42.031c-0.08149-0.03334-0.18892-0.05927-0.30005-0.05927-0.35932 0-0.52601 0.22967-0.52601 0.59639v0.28523l-0.24448 0.01852v0.22967h0.24448v1.5521h0.30375v-1.5521h0.38154v-0.24818h-0.38154v-0.28523c0-0.22967 0.08149-0.3482 0.25189-0.3482 0.06668 0 0.13706 0.01482 0.20374 0.04445z"/>
  <path d="m84.801 43.757c0 0.58898 0.38154 0.94089 0.8631 0.94089 0.24448 0 0.43711-0.0852 0.59269-0.18522l-0.10742-0.20003c-0.13335 0.0852-0.27782 0.14076-0.44822 0.14076-0.3445 0-0.57787-0.24448-0.6001-0.63344h1.215c0.0074-0.04445 0.01111-0.10372 0.01111-0.16669 0-0.5149-0.2593-0.84458-0.71863-0.84458-0.41118 0-0.80754 0.35932-0.80754 0.9483zm0.29634-0.13706c0.03704-0.36302 0.26671-0.57046 0.5186-0.57046 0.28153 0 0.44452 0.20374 0.44452 0.57046z"/>
  <path d="m86.633 44.187c0 0.32227 0.22596 0.51119 0.52972 0.51119 0.22226 0 0.42229-0.11854 0.59639-0.2593h0.0074l0.02593 0.21485h0.25189v-1.1039c0-0.44822-0.18522-0.74086-0.62603-0.74086-0.28894 0-0.54083 0.12595-0.70752 0.23337l0.12224 0.21114c0.14076-0.09631 0.32598-0.19262 0.53712-0.19262 0.29264 0 0.37043 0.22226 0.37043 0.45192-0.76679 0.0852-1.1076 0.28153-1.1076 0.67418zm0.30005-0.02222c0-0.22967 0.20374-0.37784 0.80754-0.45192v0.50008c-0.1741 0.15558-0.31857 0.24078-0.49267 0.24078-0.17781 0-0.31486-0.0852-0.31486-0.28894z"/>
  <path d="m88.669 44.098c0 0.35561 0.12965 0.6001 0.5149 0.6001 0.11113 0 0.23337-0.03334 0.33339-0.06668l-0.05927-0.22967c-0.05927 0.02223-0.14076 0.04816-0.20374 0.04816-0.20744 0-0.27782-0.12595-0.27782-0.3482v-1.0002h0.48526v-0.24819h-0.48526v-0.50378h-0.2556l-0.03704 0.50378-0.28153 0.01852v0.22967h0.26671z"/>
  <path d="m89.821 43.994c0 0.45933 0.1704 0.70382 0.55194 0.70382 0.24819 0 0.426-0.12965 0.59269-0.32598h0.01111l0.02593 0.28153h0.25189v-1.8003h-0.30375v1.278c-0.1704 0.21114-0.30005 0.30375-0.48526 0.30375-0.23708 0-0.33709-0.14447-0.33709-0.48156v-1.1002h-0.30746z"/>
  <path d="m91.866 44.654h0.30375v-1.1557c0.12224-0.30375 0.30375-0.41488 0.45563-0.41488 0.07409 0 0.11483 0.01111 0.1741 0.02963l0.05927-0.26671c-0.05927-0.02593-0.11483-0.03704-0.19262-0.03704-0.20374 0-0.38895 0.14447-0.51119 0.37043h-0.01111l-0.02593-0.32598h-0.25189z"/>
  <path d="m92.984 43.757c0 0.58898 0.38154 0.94089 0.8631 0.94089 0.24448 0 0.43711-0.0852 0.59269-0.18522l-0.10742-0.20003c-0.13336 0.0852-0.27782 0.14076-0.44822 0.14076-0.3445 0-0.57787-0.24448-0.6001-0.63344h1.215c0.0074-0.04445 0.01111-0.10372 0.01111-0.16669 0-0.5149-0.2593-0.84458-0.71863-0.84458-0.41118 0-0.80754 0.35932-0.80754 0.9483zm0.29634-0.13706c0.03704-0.36302 0.26671-0.57046 0.5186-0.57046 0.28153 0 0.44452 0.20374 0.44452 0.57046z"/>
 </g>
 <path d="m60.841 38.874v-14.983" fill="none" stroke="#7b8694" stroke-linecap="round" stroke-width=".26459"/>
 <g transform="matrix(0 -.0044049 .0044804 0 59.636 24.892)" fill="#7b8694" stroke-width="59.559">
  <g fill="#7b8694" stroke-width="59.559">
   <path d="m486.41 221.41-364.07-208.5c-52.938-30.318-95.852-5.44-95.852 55.563v415.65c0 61.004 42.914 85.882 95.852 55.563l364.07-208.49c52.938-30.317 52.938-79.473 0-109.79z" fill="#7b8694" stroke-width="59.559"/>
  </g>
 </g>
 <g fill="#e8eaec" stroke-linecap="round" stroke-width=".26459" aria-label="#468">
  <path d="m57.812 38.256h0.20003l0.09261-0.75568h0.48897l-0.0889 0.75568h0.19633l0.09261-0.75568h0.3408v-0.21114h-0.31486l0.06668-0.54824h0.32227v-0.21485h-0.30006l0.0889-0.67789h-0.19633l-0.0889 0.67789h-0.49267l0.0852-0.67789h-0.19633l-0.0852 0.67789h-0.3408v0.21485h0.31486l-0.06668 0.54824h-0.32227v0.21114h0.29634zm0.31857-0.96682 0.06668-0.54824h0.48897l-0.06668 0.54824z"/>
  <path d="m59.701 37.36 0.55194-0.80754c0.06668-0.11483 0.13336-0.21855 0.19262-0.33339h0.01482c-0.0074 0.12595-0.01852 0.32968-0.01852 0.45563v0.6853zm1.3521 0h-0.32227v-1.4669h-0.3408l-1.0113 1.5114v0.20003h1.0631v0.65196h0.28894v-0.65196h0.32227z"/>
  <path d="m62.147 38.06c-0.30005 0-0.48156-0.24819-0.5186-0.70752 0.15928-0.22226 0.3445-0.31116 0.49267-0.31116 0.29264 0 0.43711 0.19262 0.43711 0.50008 0 0.31116-0.17781 0.5186-0.41118 0.5186zm0.65566-1.9596c-0.13336-0.14447-0.31486-0.25189-0.57046-0.25189-0.47045 0-0.90014 0.36673-0.90014 1.315 0 0.75938 0.35191 1.1372 0.81495 1.1372 0.38154 0 0.70011-0.30746 0.70011-0.75938 0-0.48526-0.26671-0.72975-0.67418-0.72975-0.19262 0-0.40377 0.11483-0.55194 0.29634 0.01482-0.74827 0.29264-1.0039 0.62232-1.0039 0.14817 0 0.29264 0.07038 0.38895 0.18522z"/>
  <path d="m63.418 37.623c0-0.21485 0.14076-0.38895 0.32968-0.5149 0.3408 0.13706 0.64084 0.24819 0.64084 0.55194 0 0.24448-0.18892 0.41488-0.46304 0.41488-0.28894 0-0.50749-0.18892-0.50749-0.45192zm0.66677-0.65566c-0.28523-0.11113-0.54453-0.22967-0.54453-0.51119 0-0.22967 0.16299-0.38154 0.38154-0.38154 0.2593 0 0.41118 0.18522 0.41118 0.41858 0 0.1741-0.0889 0.33339-0.24819 0.47415zm-0.94089 0.6853c0 0.37414 0.32968 0.64825 0.7742 0.64825 0.45933 0 0.76309-0.27782 0.76309-0.62973 0-0.31857-0.20003-0.48526-0.41118-0.6075v-0.01482c0.14447-0.11113 0.32598-0.32227 0.32598-0.57046 0-0.36672-0.2556-0.62973-0.66677-0.62973-0.38154 0-0.67048 0.24448-0.67048 0.6075 0 0.24819 0.15558 0.42229 0.32968 0.54453v0.01482c-0.22226 0.11854-0.44452 0.32968-0.44452 0.63714z"/>
 </g>
 <path d="m80.95 18.388h-14.983" fill="none" stroke="#7b8694" stroke-linecap="round" stroke-width=".26459"/>
 <g>
  <g transform="matrix(-.0044049 0 0 -.0044804 66.969 19.593)" fill="#7b8694" stroke-width="59.559">
   <g fill="#7b8694" stroke-width="59.559">
    <path d="m486.41 221.41-364.07-208.5c-52.938-30.318-95.852-5.44-95.852 55.563v415.65c0 61.004 42.914 85.882 95.852 55.563l364.07-208.49c52.938-30.317 52.938-79.473 0-109.79z" fill="#7b8694" stroke-width="59.559"/>
   </g>
  </g>
  <path d="m88.364 20.388-3.6948 2.1332-3.6948-2.1332v-4.2664l3.6948-2.1332 3.6948 2.1332z" fill="#1d232d" stroke="#6f8ce9" stroke-linecap="round" stroke-width=".26459"/>
  <g fill="#e8eaec" stroke-linecap="round" stroke-width=".26459" aria-label="#ba1">
   <path d="m81.361 13.12h0.20003l0.09261-0.75568h0.48897l-0.0889 0.75568h0.19633l0.09261-0.75568h0.3408v-0.21114h-0.31487l0.06668-0.54824h0.32227v-0.21485h-0.30005l0.0889-0.67789h-0.19634l-0.0889 0.67789h-0.49267l0.0852-0.67789h-0.19633l-0.0852 0.67789h-0.3408v0.21485h0.31487l-0.06668 0.54824h-0.32227v0.21114h0.29634zm0.31857-0.96682 0.06668-0.54824h0.48897l-0.06668 0.54824z"/>
   <path d="m83.169 13.12h0.24448l0.02593-0.17781h0.01111c0.15928 0.14076 0.3482 0.22226 0.5149 0.22226 0.41118 0 0.7779-0.35932 0.7779-0.97423 0-0.55564-0.24819-0.91496-0.71493-0.91496-0.20003 0-0.40006 0.10742-0.56305 0.25189l0.0074-0.32598v-0.71863h-0.30375zm0.30375-0.40006v-0.9446c0.1704-0.15928 0.32968-0.24448 0.48156-0.24448 0.3408 0 0.47415 0.26671 0.47415 0.66307 0 0.44452-0.21855 0.71493-0.5149 0.71493-0.11854 0-0.28153-0.05186-0.44081-0.18892z"/>
   <path d="m85.084 12.653c0 0.32227 0.22596 0.51119 0.52972 0.51119 0.22226 0 0.42229-0.11854 0.59639-0.2593h0.0074l0.02593 0.21485h0.25189v-1.1039c0-0.44822-0.18522-0.74086-0.62603-0.74086-0.28894 0-0.54083 0.12595-0.70752 0.23337l0.12224 0.21114c0.14076-0.09631 0.32598-0.19262 0.53712-0.19262 0.29264 0 0.37043 0.22226 0.37043 0.45192-0.76679 0.0852-1.1076 0.28153-1.1076 0.67418zm0.30005-0.02223c0-0.22967 0.20374-0.37784 0.80754-0.45192v0.50008c-0.1741 0.15558-0.31857 0.24078-0.49267 0.24078-0.17781 0-0.31487-0.0852-0.31487-0.28894z"/>
   <path d="m87.057 13.12h1.3335v-0.25189h-0.48897v-2.1115h-0.23337c-0.12965 0.07779-0.28523 0.13706-0.50008 0.1741v0.19633h0.4297v1.741h-0.54083z"/>
  </g>
 </g>
 <path d="m104.76 18.388h-14.983" fill="none" stroke="#7b8694" stroke-linecap="round" stroke-width=".26459"/>
 <g transform="matrix(-.0044049 0 0 -.0044804 90.782 19.593)" fill="#7b8694" stroke-width="59.559">
  <g fill="#7b8694" stroke-width="59.559">
   <path d="m486.41 221.41-364.07-208.5c-52.938-30.318-95.852-5.44-95.852 55.563v415.65c0 61.004 42.914 85.882 95.852 55.563l364.07-208.49c52.938-30.317 52.938-79.473 0-109.79z" fill="#7b8694" stroke-width="59.559"/>
  </g>
 </g>
 <g fill="#e8eaec" stroke-linecap="round" stroke-width=".26459">
  <g aria-label="#cc2">
   <path d="m105.44 13.12h0.20003l0.0926-0.75568h0.48896l-0.0889 0.75568h0.19633l0.0926-0.75568h0.34079v-0.21114h-0.31486l0.0667-0.54824h0.32228v-0.21485h-0.30005l0.0889-0.67789h-0.19633l-0.0889 0.67789h-0.49267l0.0852-0.67789h-0.19633l-0.0852 0.67789h-0.34079v0.21485h0.31486l-0.0667 0.54824h-0.32227v0.21114h0.29634zm0.31857-0.96682 0.0667-0.54824h0.48897l-0.0667 0.54824z"/>
   <path d="m107.11 12.224c0 0.59639 0.36672 0.94089 0.84458 0.94089 0.21485 0 0.42229-0.0889 0.58528-0.23337l-0.13706-0.20003c-0.10743 0.09631-0.25189 0.18151-0.42229 0.18151-0.32969 0-0.55565-0.27782-0.55565-0.689 0-0.41488 0.23708-0.69641 0.56306-0.69641 0.14446 0 0.25559 0.06668 0.36302 0.15928l0.15187-0.19633c-0.12224-0.11483-0.28893-0.21485-0.52601-0.21485-0.46303 0-0.8668 0.3445-0.8668 0.9483z"/>
   <path d="m108.72 12.224c0 0.59639 0.36672 0.94089 0.84458 0.94089 0.21485 0 0.42229-0.0889 0.58528-0.23337l-0.13706-0.20003c-0.10743 0.09631-0.25189 0.18151-0.42229 0.18151-0.32968 0-0.55565-0.27782-0.55565-0.689 0-0.41488 0.23708-0.69641 0.56306-0.69641 0.14446 0 0.25559 0.06668 0.36302 0.15928l0.15187-0.19633c-0.12224-0.11483-0.28893-0.21485-0.52601-0.21485-0.46303 0-0.8668 0.3445-0.8668 0.9483z"/>
   <path d="m110.38 13.12h1.5262v-0.263h-0.6853c-0.12224 0-0.26671 0.01111-0.39636 0.02223 0.55935-0.58528 0.96312-1.0261 0.96312-1.4706 0-0.41859-0.27041-0.69641-0.70752-0.69641-0.30746 0-0.5186 0.14447-0.71493 0.35932l0.1741 0.1741c0.13706-0.15928 0.30746-0.28523 0.50379-0.28523 0.30005 0 0.44822 0.19262 0.44822 0.46304 0 0.38154-0.40007 0.80754-1.1113 1.5151z"/>
  </g>
  <g stroke="#cf2f25" aria-label="C">
   <path d="m87.03 22.753c0 0.79272 0.45563 1.2595 1.0668 1.2595 0.30746 0 0.54824-0.12965 0.73716-0.35191l-0.1741-0.18892c-0.15558 0.1741-0.32598 0.27041-0.55564 0.27041-0.46304 0-0.75568-0.38525-0.75568-0.99646 0-0.6038 0.30746-0.98164 0.77049-0.98164 0.20003 0 0.35561 0.0889 0.48526 0.22596l0.1741-0.19633c-0.14447-0.15928-0.37414-0.30005-0.66307-0.30005-0.62232 0-1.0854 0.47786-1.0854 1.2595z" fill="#e8eaec" stroke="none"/>
  </g>
  <g aria-label="CBA">
   <path d="m110.84 22.753c0 0.79272 0.45563 1.2595 1.0668 1.2595 0.30746 0 0.54824-0.12965 0.73716-0.35191l-0.17411-0.18892c-0.15558 0.1741-0.32597 0.27041-0.55564 0.27041-0.46304 0-0.75568-0.38525-0.75568-0.99646 0-0.6038 0.30746-0.98164 0.7705-0.98164 0.20003 0 0.35561 0.0889 0.48526 0.22596l0.1741-0.19633c-0.14447-0.15928-0.37413-0.30005-0.66307-0.30005-0.62232 0-1.0854 0.47786-1.0854 1.2595z"/>
   <path d="m113.08 23.968h0.77791c0.54082 0 0.91866-0.23337 0.91866-0.71122 0-0.33339-0.20744-0.52601-0.56305-0.58158v-0.01482c0.28893-0.07409 0.42599-0.28894 0.42599-0.52972 0-0.42599-0.3445-0.59269-0.83717-0.59269h-0.72234zm0.31116-1.3928v-0.79272h0.37414c0.37413 0 0.57046 0.11113 0.57046 0.37414 0 0.27041-0.1741 0.41858-0.58528 0.41858zm0 1.1483v-0.91867h0.4223c0.42599 0 0.65936 0.13706 0.65936 0.43711 0 0.32968-0.24448 0.48156-0.65936 0.48156z"/>
   <path d="m115.55 22.979 0.11854-0.37043c0.0852-0.27041 0.16299-0.53712 0.24078-0.81865h0.0148c0.0778 0.28153 0.15558 0.54824 0.24078 0.81865l0.11484 0.37043zm1.0409 0.98905h0.32598l-0.82236-2.43h-0.3482l-0.82236 2.43h0.31487l0.23337-0.74086h0.88533z"/>
  </g>
 </g>
 <path d="m128.58 18.388h-14.983" fill="none" stroke="#6f8ce9" stroke-linecap="round" stroke-width=".26459"/>
 <g>
  <g transform="matrix(-.0044049 0 0 -.0044804 114.6 19.593)" fill="#6f8ce9" stroke-width="59.559">
   <g fill="#6f8ce9" stroke-width="59.559">
    <path d="m486.41 221.41-364.07-208.5c-52.938-30.318-95.852-5.44-95.852 55.563v415.65c0 61.004 42.914 85.882 95.852 55.563l364.07-208.49c52.938-30.317 52.938-79.473 0-109.79z" fill="#6f8ce9" stroke-width="59.559"/>
   </g>
  </g>
  <g stroke-width=".26459">
   <path d="m112.18 20.388-3.6948 2.1332-3.6948-2.1332v-4.2664l3.6948-2.1332 3.6948 2.1332z" fill="#1d232d" stroke="#6f8ce9" stroke-linecap="round"/>
   <path d="m131.24 15.77c-1.4502 0-2.6178 1.1675-2.6178 2.6178s1.1675 2.6178 2.6178 2.6178h11.113c1.4503 0 2.6178-1.1675 2.6178-2.6178s-1.1675-2.6178-2.6178-2.6178z" fill="#1d232d" stroke="#7893ea"/>
   <g fill="#e8eaec" stroke-linecap="round" aria-label="master">
    <path d="m131.78 19.517h0.30375v-1.3039c0.1667-0.18522 0.31857-0.27782 0.45193-0.27782 0.22966 0 0.33709 0.14447 0.33709 0.48156v1.1002h0.30375v-1.3039c0.16669-0.18522 0.31116-0.27782 0.45192-0.27782 0.22597 0 0.33339 0.14447 0.33339 0.48156v1.1002h0.30375v-1.1409c0-0.45933-0.1778-0.70382-0.54823-0.70382-0.21856 0-0.40377 0.14076-0.59269 0.3445-0.0741-0.21485-0.22226-0.3445-0.49638-0.3445-0.21485 0-0.40376 0.13336-0.55935 0.30375h-0.0111l-0.0259-0.2593h-0.25189z"/>
    <path d="m134.76 19.051c0 0.32227 0.22596 0.51119 0.52971 0.51119 0.22226 0 0.42229-0.11854 0.5964-0.2593h7e-3l0.0259 0.21485h0.25189v-1.1039c0-0.44822-0.18522-0.74086-0.62603-0.74086-0.28893 0-0.54083 0.12595-0.70752 0.23337l0.12224 0.21114c0.14077-0.09631 0.32598-0.19262 0.53713-0.19262 0.29263 0 0.37043 0.22226 0.37043 0.45192-0.76679 0.0852-1.1076 0.28153-1.1076 0.67418zm0.30005-0.02223c0-0.22967 0.20373-0.37784 0.80754-0.45192v0.50008c-0.17411 0.15558-0.31857 0.24078-0.49268 0.24078-0.1778 0-0.31486-0.0852-0.31486-0.28894z"/>
    <path d="m136.54 19.314c0.1704 0.14076 0.41488 0.24819 0.67048 0.24819 0.42599 0 0.65936-0.24448 0.65936-0.53712 0-0.3408-0.28893-0.44822-0.54823-0.54453-0.20374-0.07779-0.40007-0.14447-0.40007-0.31116 0-0.13706 0.10372-0.2593 0.32969-0.2593 0.15928 0 0.28893 0.06668 0.41117 0.15928l0.14447-0.19262c-0.13706-0.11113-0.33339-0.20374-0.55935-0.20374-0.38895 0-0.61862 0.22226-0.61862 0.51119 0 0.30375 0.28153 0.426 0.53713 0.5186 0.19633 0.07409 0.41117 0.15558 0.41117 0.3408 0 0.15558-0.11853 0.28153-0.35561 0.28153-0.21485 0-0.37413-0.0889-0.52971-0.21485z"/>
    <path d="m138.35 18.962c0 0.35561 0.12965 0.6001 0.5149 0.6001 0.11113 0 0.23337-0.03334 0.33338-0.06668l-0.0593-0.22967c-0.0593 0.02223-0.14077 0.04816-0.20374 0.04816-0.20744 0-0.27782-0.12595-0.27782-0.3482v-1.0002h0.48526v-0.24819h-0.48526v-0.50378h-0.2556l-0.037 0.50378-0.28153 0.01852v0.22967h0.26671z"/>
    <path d="m139.38 18.621c0 0.58898 0.38154 0.94089 0.8631 0.94089 0.24448 0 0.43711-0.0852 0.59269-0.18522l-0.10743-0.20003c-0.13335 0.0852-0.27782 0.14076-0.44822 0.14076-0.3445 0-0.57787-0.24448-0.60009-0.63344h1.215c7e-3 -0.04445 0.0111-0.10372 0.0111-0.16669 0-0.5149-0.2593-0.84458-0.71863-0.84458-0.41118 0-0.80754 0.35932-0.80754 0.9483zm0.29634-0.13706c0.037-0.36302 0.26671-0.57046 0.5186-0.57046 0.28153 0 0.44452 0.20374 0.44452 0.57046z"/>
    <path d="m141.35 19.517h0.30376v-1.1557c0.12224-0.30375 0.30375-0.41488 0.45562-0.41488 0.0741 0 0.11484 0.01111 0.17411 0.02963l0.0593-0.26671c-0.0593-0.02593-0.11484-0.03704-0.19263-0.03704-0.20373 0-0.38895 0.14447-0.51119 0.37043h-0.0111l-0.0259-0.32598h-0.2519z"/>
   </g>
   <g fill="#fff" stroke-linecap="round" aria-label="AFTER MERGE">
    <path d="m4.6748 5.1949 0.059269-0.22226c0.066677-0.24078 0.13335-0.52231 0.18892-0.7779h0.014817c0.066677 0.25189 0.12965 0.53712 0.19633 0.7779l0.059269 0.22226zm0.7779 1.0002h0.57787l-0.75938-2.4152h-0.65196l-0.75938 2.4152h0.55564l0.14817-0.57417h0.74086z"/>
    <path d="m6.2799 6.195h0.54824v-0.93719h0.83347v-0.45933h-0.83347v-0.55935h0.97794v-0.45933h-1.5262z"/>
    <path d="m8.6931 6.195h0.54453v-1.9559h0.66307v-0.45933h-1.8744v0.45933h0.66677z"/>
    <path d="m10.274 6.195h1.5521v-0.45933h-1.0039v-0.55564h0.82235v-0.45563h-0.82235v-0.48526h0.96682v-0.45933h-1.5151z"/>
    <path d="m12.848 4.2132h0.27782c0.28523 0 0.44081 0.081495 0.44081 0.31857 0 0.23708-0.15558 0.35932-0.44081 0.35932h-0.27782zm1.3706 1.9818-0.54453-0.96682c0.2556-0.11483 0.4297-0.3408 0.4297-0.69641 0-0.57417-0.42229-0.75197-0.93348-0.75197h-0.87051v2.4152h0.54824v-0.87051h0.29634l0.46304 0.87051z"/>
    <path d="m15.353 6.195h0.50378v-0.88533c0-0.23708-0.04445-0.58898-0.07038-0.82235h0.01482l0.19262 0.55935 0.37043 0.93719h0.21855l0.37413-0.93719 0.19633-0.55935h0.01482c-0.02593 0.23337-0.07038 0.58528-0.07038 0.82235v0.88533h0.51119v-2.4152h-0.57787l-0.39266 1.0854-0.14447 0.42229h-0.01482l-0.14447-0.42229-0.40377-1.0854h-0.57787z"/>
    <path d="m18.174 6.195h1.5521v-0.45933h-1.0039v-0.55564h0.82236v-0.45563h-0.82236v-0.48526h0.96682v-0.45933h-1.5151z"/>
    <path d="m20.748 4.2132h0.27782c0.28523 0 0.44081 0.081495 0.44081 0.31857 0 0.23708-0.15558 0.35932-0.44081 0.35932h-0.27782zm1.3706 1.9818-0.54453-0.96682c0.2556-0.11483 0.4297-0.3408 0.4297-0.69641 0-0.57417-0.42229-0.75197-0.93348-0.75197h-0.87051v2.4152h0.54824v-0.87051h0.29634l0.46304 0.87051z"/>
    <path d="m22.364 5.0022c0 0.81124 0.5186 1.2372 1.1706 1.2372 0.33709 0 0.63714-0.14076 0.81124-0.29264v-1.1113h-0.88533v0.44452h0.40006v0.41488c-0.05927 0.048156-0.15928 0.074086-0.2556 0.074086-0.45563 0-0.68159-0.28894-0.68159-0.78531 0-0.48526 0.26671-0.7779 0.63714-0.7779 0.20744 0 0.32227 0.070382 0.44452 0.18151l0.30005-0.33709c-0.16299-0.16299-0.41118-0.31487-0.75197-0.31487-0.65566 0-1.1891 0.46674-1.1891 1.2669z"/>
    <path d="m24.838 6.195h1.5521v-0.45933h-1.0039v-0.55564h0.82236v-0.45563h-0.82236v-0.48526h0.96682v-0.45933h-1.5151z"/>
   </g>
  </g>
 </g>
 <path d="m104.73 20.455-39.254 20.139" fill="none" stroke="#7b8694" stroke-linecap="square" stroke-width=".26459" style="paint-order:normal"/>
 <g transform="matrix(-.0037624 .0022908 -.00233 -.0038269 67.2 41.043)" fill="#7b8694" stroke-width="59.559">
  <g fill="#7b8694" stroke-width="59.559">
   <path d="m486.41 221.41-364.07-208.5c-52.938-30.318-95.852-5.44-95.852 55.563v415.65c0 61.004 42.914 85.882 95.852 55.563l364.07-208.49c52.938-30.317 52.938-79.473 0-109.79z" fill="#7b8694" stroke-width="59.559"/>
  </g>
 </g>
</svg>
