<?xml version="1.0" encoding="UTF-8"?>
<svg width="649.64" height="320" version="1.1" viewBox="0 0 171.89 84.663" xmlns="http://www.w3.org/2000/svg" xmlns:cc="http://creativecommons.org/ns#" xmlns:dc="http://purl.org/dc/elements/1.1/" xmlns:rdf="http://www.w3.org/1999/02/22-rdf-syntax-ns#">
 <metadata>
  <rdf:RDF>
   <cc:Work rdf:about="">
    <dc:format>image/svg+xml</dc:format>
    <dc:type rdf:resource="http://purl.org/dc/dcmitype/StillImage"/>
    <dc:title/>
   </cc:Work>
  </rdf:RDF>
 </metadata>
 <rect y="-.003401" width="171.85" height="21.167" fill="#2f3744" fill-opacity=".50196"/>
 <g stroke-width=".26459">
  <path d="m100.58 8.0948c-1.4503 0-2.6178 1.1675-2.6178 2.6178 0 1.4502 1.1675 2.6178 2.6178 2.6178h16.405c1.4503 0 2.6178-1.1675 2.6178-2.6178 0-1.4502-1.1675-2.6178-2.6178-2.6178z" fill="#1d232d" stroke="#7893ea"/>
  <path d="m33.895 12.714-3.6948 2.1332-3.6948-2.1332v-4.2664l3.6948-2.1332 3.6948 2.1332z" fill="#1d232d" stroke="#6f8ce9" stroke-linecap="round"/>
  <path d="m50.294 10.713h-14.983" fill="none" stroke="#7b8694" stroke-linecap="round"/>
 </g>
 <g transform="matrix(-.0044049 0 0 -.0044804 36.313 11.918)" fill="#7b8694" stroke-width="59.559">
  <g fill="#7b8694" stroke-width="59.559">
   <path d="m486.41 221.41-364.07-208.5c-52.938-30.318-95.852-5.44-95.852 55.563v415.65c0 61.004 42.914 85.882 95.852 55.563l364.07-208.49c52.938-30.317 52.938-79.473 0-109.79z" fill="#7b8694" stroke-width="59.559"/>
  </g>
 </g>
 <path d="m57.708 12.714-3.6948 2.1332-3.6948-2.1332v-4.2664l3.6948-2.1332 3.6948 2.1332z" fill="#1d232d" stroke="#6f8ce9" stroke-linecap="round" stroke-width=".26459"/>
 <path d="m74.108 10.713h-14.983" fill="none" stroke="#7b8694" stroke-linecap="round" stroke-width=".26459"/>
 <g transform="matrix(-.0044049 0 0 -.0044804 60.126 11.918)" fill="#7b8694" stroke-width="59.559">
  <g fill="#7b8694" stroke-width="59.559">
   <path d="m486.41 221.41-364.07-208.5c-52.938-30.318-95.852-5.44-95.852 55.563v415.65c0 61.004 42.914 85.882 95.852 55.563l364.07-208.49c52.938-30.317 52.938-79.473 0-109.79z" fill="#7b8694" stroke-width="59.559"/>
  </g>
 </g>
 <path d="m81.522 12.714-3.6948 2.1332-3.6948-2.1332v-4.2664l3.6948-2.1332 3.6948 2.1332z" fill="#1d232d" stroke="#6f8ce9" stroke-linecap="round" stroke-width=".26459"/>
 <path d="m97.921 10.713h-14.983" fill="none" stroke="#6f8ce9" stroke-linecap="round" stroke-width=".26459"/>
 <g transform="matrix(-.0044049 0 0 -.0044804 83.94 11.918)" fill="#6f8ce9" stroke-width="59.559">
  <g fill="#6f8ce9" stroke-width="59.559">
   <path d="m486.41 221.41-364.07-208.5c-52.938-30.318-95.852-5.44-95.852 55.563v415.65c0 61.004 42.914 85.882 95.852 55.563l364.07-208.49c52.938-30.317 52.938-79.473 0-109.79z" fill="#6f8ce9" stroke-width="59.559"/>
  </g>
 </g>
 <g fill="#e8eaec" stroke-linecap="round" stroke-width=".26459" aria-label="master">
  <path d="m103.5 11.842h0.30376v-1.3039c0.16669-0.18522 0.31857-0.27782 0.45192-0.27782 0.22967 0 0.33709 0.14447 0.33709 0.48156v1.1002h0.30376v-1.3039c0.16669-0.18522 0.31116-0.27782 0.45192-0.27782 0.22596 0 0.33339 0.14447 0.33339 0.48156v1.1002h0.30375v-1.1409c0-0.45933-0.17781-0.70382-0.54824-0.70382-0.21855 0-0.40377 0.14076-0.59268 0.3445-0.0741-0.21485-0.22226-0.3445-0.49638-0.3445-0.21485 0-0.40377 0.13335-0.55935 0.30375h-0.0111l-0.0259-0.2593h-0.2519z"/>
  <path d="m106.48 11.376c0 0.32227 0.22597 0.51119 0.52972 0.51119 0.22226 0 0.42229-0.11854 0.59639-0.2593h7e-3l0.0259 0.21485h0.25189v-1.1039c0-0.44822-0.18521-0.74086-0.62602-0.74086-0.28894 0-0.54083 0.12595-0.70752 0.23337l0.12224 0.21114c0.14076-0.09631 0.32598-0.19262 0.53712-0.19262 0.29264 0 0.37043 0.22226 0.37043 0.45192-0.76679 0.0852-1.1076 0.28153-1.1076 0.67418zm0.30005-0.02223c0-0.22967 0.20374-0.37784 0.80754-0.45192v0.50008c-0.1741 0.15558-0.31857 0.24078-0.49267 0.24078-0.17781 0-0.31487-0.0852-0.31487-0.28894z"/>
  <path d="m108.27 11.639c0.17039 0.14076 0.41488 0.24819 0.67047 0.24819 0.426 0 0.65937-0.24448 0.65937-0.53712 0-0.3408-0.28894-0.44822-0.54824-0.54453-0.20373-0.07779-0.40006-0.14447-0.40006-0.31116 0-0.13706 0.10372-0.2593 0.32968-0.2593 0.15929 0 0.28894 0.06668 0.41118 0.15928l0.14447-0.19262c-0.13706-0.11113-0.33339-0.20374-0.55935-0.20374-0.38895 0-0.61862 0.22226-0.61862 0.51119 0 0.30375 0.28153 0.42599 0.53712 0.5186 0.19633 0.07409 0.41118 0.15558 0.41118 0.3408 0 0.15558-0.11854 0.28153-0.35561 0.28153-0.21485 0-0.37414-0.0889-0.52972-0.21485z"/>
  <path d="m110.07 11.287c0 0.35561 0.12966 0.6001 0.5149 0.6001 0.11113 0 0.23337-0.03334 0.33339-0.06668l-0.0593-0.22967c-0.0593 0.02223-0.14076 0.04816-0.20374 0.04816-0.20744 0-0.27782-0.12595-0.27782-0.3482v-1.0002h0.48526v-0.24819h-0.48526v-0.50378h-0.2556l-0.037 0.50378-0.28152 0.01852v0.22967h0.2667z"/>
  <path d="m111.1 10.946c0 0.58898 0.38155 0.94089 0.86311 0.94089 0.24448 0 0.4371-0.0852 0.59268-0.18522l-0.10742-0.20003c-0.13336 0.0852-0.27782 0.14076-0.44822 0.14076-0.3445 0-0.57787-0.24448-0.6001-0.63344h1.215c7e-3 -0.04445 0.0111-0.10372 0.0111-0.16669 0-0.5149-0.2593-0.84458-0.71863-0.84458-0.41118 0-0.80754 0.35932-0.80754 0.9483zm0.29635-0.13706c0.037-0.36302 0.26671-0.57046 0.5186-0.57046 0.28153 0 0.44452 0.20374 0.44452 0.57046z"/>
  <path d="m113.07 11.842h0.30375v-1.1557c0.12224-0.30375 0.30375-0.41488 0.45563-0.41488 0.0741 0 0.11483 0.01111 0.1741 0.02963l0.0593-0.26671c-0.0593-0.02593-0.11483-0.037043-0.19262-0.037043-0.20374 0-0.38895 0.14447-0.5112 0.37043h-0.0111l-0.0259-0.32598h-0.25189z"/>
 </g>
 <path d="m130.91 14.235v-7.0448" fill="none" stroke="#7b8694" stroke-linecap="round" stroke-width=".26459"/>
 <g fill="#e8eaec" stroke-linecap="round" stroke-width=".26459">
  <g aria-label="#cab">
   <path d="m26.891 5.4451h0.20003l0.09261-0.75568h0.48897l-0.0889 0.75568h0.19633l0.09261-0.75568h0.3408v-0.21115h-0.31487l0.066677-0.54824h0.32227v-0.21485h-0.30005l0.0889-0.67789h-0.19633l-0.0889 0.67789h-0.49267l0.0852-0.67789h-0.19633l-0.0852 0.67789h-0.3408v0.21485h0.31486l-0.06668 0.54824h-0.32227v0.21115h0.29634zm0.31857-0.96682 0.06668-0.54824h0.48897l-0.06668 0.54824z"/>
   <path d="m28.566 4.5487c0 0.59639 0.36673 0.94089 0.84458 0.94089 0.21485 0 0.42229-0.088903 0.58528-0.23337l-0.13706-0.20003c-0.10742 0.096312-0.25189 0.18151-0.42229 0.18151-0.32968 0-0.55564-0.27782-0.55564-0.689 0-0.41488 0.23708-0.69641 0.56305-0.69641 0.14447 0 0.2556 0.066677 0.36302 0.15928l0.15188-0.19633c-0.12224-0.11483-0.28894-0.21485-0.52601-0.21485-0.46304 0-0.86681 0.3445-0.86681 0.9483z"/>
   <path d="m30.26 4.9784c0 0.32227 0.22596 0.51119 0.52972 0.51119 0.22226 0 0.42229-0.11854 0.59639-0.2593h0.0074l0.02593 0.21485h0.25189v-1.1039c0-0.44822-0.18522-0.74086-0.62603-0.74086-0.28894 0-0.54083 0.12595-0.70752 0.23337l0.12224 0.21115c0.14076-0.096312 0.32598-0.19262 0.53712-0.19262 0.29264 0 0.37043 0.22226 0.37043 0.45192-0.76679 0.085199-1.1076 0.28153-1.1076 0.67418zm0.30005-0.022226c0-0.22967 0.20374-0.37784 0.80754-0.45192v0.50008c-0.1741 0.15558-0.31857 0.24078-0.49267 0.24078-0.17781 0-0.31487-0.085199-0.31487-0.28894z"/>
   <path d="m32.244 5.4451h0.24448l0.02593-0.17781h0.01111c0.15928 0.14076 0.3482 0.22226 0.5149 0.22226 0.41118 0 0.7779-0.35932 0.7779-0.97423 0-0.55564-0.24819-0.91496-0.71493-0.91496-0.20003 0-0.40006 0.10742-0.56305 0.25189l0.0074-0.32598v-0.71863h-0.30374zm0.30375-0.40006v-0.9446c0.1704-0.15928 0.32968-0.24448 0.48156-0.24448 0.3408 0 0.47415 0.26671 0.47415 0.66307 0 0.44452-0.21855 0.71493-0.5149 0.71493-0.11854 0-0.28153-0.05186-0.44081-0.18892z"/>
  </g>
  <g aria-label="#06c">
   <path d="m50.705 5.4451h0.20003l0.09261-0.75568h0.48897l-0.0889 0.75568h0.19633l0.09261-0.75568h0.3408v-0.21115h-0.31486l0.06668-0.54824h0.32227v-0.21485h-0.30005l0.0889-0.67789h-0.19633l-0.0889 0.67789h-0.49267l0.0852-0.67789h-0.19634l-0.0852 0.67789h-0.34079v0.21485h0.31486l-0.06668 0.54824h-0.32227v0.21115h0.29634zm0.31857-0.96682 0.06668-0.54824h0.48897l-0.06668 0.54824z"/>
   <path d="m53.131 5.4896c0.47045 0 0.75568-0.44081 0.75568-1.2335s-0.28523-1.2187-0.75568-1.2187c-0.47415 0-0.75938 0.42599-0.75938 1.2187s0.28523 1.2335 0.75938 1.2335zm0-0.24448c-0.27782 0-0.46304-0.29634-0.46304-0.98905s0.18522-0.97423 0.46304-0.97423c0.27412 0 0.45933 0.28153 0.45933 0.97423s-0.18522 0.98905-0.45933 0.98905z"/>
   <path d="m55.039 5.2488c-0.30005 0-0.48156-0.24819-0.5186-0.70752 0.15928-0.22226 0.3445-0.31116 0.49267-0.31116 0.29264 0 0.43711 0.19262 0.43711 0.50008 0 0.31116-0.17781 0.5186-0.41118 0.5186zm0.65566-1.9596c-0.13336-0.14447-0.31487-0.25189-0.57046-0.25189-0.47045 0-0.90014 0.36673-0.90014 1.315 0 0.75938 0.35191 1.1372 0.81495 1.1372 0.38154 0 0.70011-0.30746 0.70011-0.75938 0-0.48526-0.26671-0.72975-0.67418-0.72975-0.19262 0-0.40377 0.11483-0.55194 0.29634 0.01482-0.74827 0.29264-1.0039 0.62232-1.0039 0.14817 0 0.29264 0.070382 0.38895 0.18522z"/>
   <path d="m56.055 4.5487c0 0.59639 0.36673 0.94089 0.84458 0.94089 0.21485 0 0.42229-0.088903 0.58528-0.23337l-0.13706-0.20003c-0.10742 0.096312-0.25189 0.18151-0.42229 0.18151-0.32968 0-0.55564-0.27782-0.55564-0.689 0-0.41488 0.23708-0.69641 0.56305-0.69641 0.14447 0 0.2556 0.066677 0.36302 0.15928l0.15188-0.19633c-0.12224-0.11483-0.28894-0.21485-0.52601-0.21485-0.46304 0-0.86681 0.3445-0.86681 0.9483z"/>
  </g>
  <g aria-label="#ba1">
   <path d="m74.518 5.4451h0.20003l0.09261-0.75568h0.48897l-0.0889 0.75568h0.19633l0.09261-0.75568h0.3408v-0.21115h-0.31487l0.06668-0.54824h0.32227v-0.21485h-0.30005l0.0889-0.67789h-0.19634l-0.0889 0.67789h-0.49267l0.0852-0.67789h-0.19633l-0.0852 0.67789h-0.3408v0.21485h0.31487l-0.06668 0.54824h-0.32227v0.21115h0.29634zm0.31857-0.96682 0.06668-0.54824h0.48897l-0.06668 0.54824z"/>
   <path d="m76.326 5.4451h0.24448l0.02593-0.17781h0.01111c0.15928 0.14076 0.3482 0.22226 0.5149 0.22226 0.41118 0 0.7779-0.35932 0.7779-0.97423 0-0.55564-0.24819-0.91496-0.71493-0.91496-0.20003 0-0.40006 0.10742-0.56305 0.25189l0.0074-0.32598v-0.71863h-0.30374zm0.30375-0.40006v-0.9446c0.1704-0.15928 0.32968-0.24448 0.48156-0.24448 0.3408 0 0.47415 0.26671 0.47415 0.66307 0 0.44452-0.21855 0.71493-0.5149 0.71493-0.11854 0-0.28153-0.05186-0.44081-0.18892z"/>
   <path d="m78.241 4.9784c0 0.32227 0.22596 0.51119 0.52972 0.51119 0.22226 0 0.42229-0.11854 0.59639-0.2593h0.0074l0.02593 0.21485h0.25189v-1.1039c0-0.44822-0.18522-0.74086-0.62603-0.74086-0.28894 0-0.54083 0.12595-0.70752 0.23337l0.12224 0.21115c0.14076-0.096312 0.32598-0.19262 0.53712-0.19262 0.29264 0 0.37043 0.22226 0.37043 0.45192-0.76679 0.085199-1.1076 0.28153-1.1076 0.67418zm0.30005-0.022226c0-0.22967 0.20374-0.37784 0.80754-0.45192v0.50008c-0.1741 0.15558-0.31857 0.24078-0.49267 0.24078-0.17781 0-0.31487-0.085199-0.31487-0.28894z"/>
   <path d="m80.214 5.4451h1.3335v-0.25189h-0.48897v-2.1115h-0.23337c-0.12965 0.07779-0.28523 0.13706-0.50008 0.1741v0.19633h0.4297v1.741h-0.54083z"/>
  </g>
 </g>
 <g>
  <path d="m74.132 19.328v-2.1497l3.6948-2.1332 3.6948 2.1332v2.1497z" fill="#e9e56f"/>
  <g fill="#e8eaec" stroke-linecap="round" stroke-width=".26459" aria-label="git reset .">
   <path d="m88.709 26.272c0-0.20374 0.1704-0.37043 0.37413-0.37043 0.20744 0 0.37414 0.16669 0.37414 0.37043 0 0.20374-0.16669 0.37043-0.37414 0.37043s-0.37413-0.16669-0.37413-0.37043zm0.38895-0.58158c-0.33709 0-0.62973 0.26671-0.62973 0.59639 0 0.18522 0.09261 0.35932 0.24819 0.45933-0.12224 0.10372-0.19262 0.21855-0.19262 0.32598 0 0.07038 0.02963 0.1704 0.13706 0.22596-0.18151 0.11483-0.27412 0.24078-0.27412 0.37413 0 0.18522 0.1704 0.40377 0.76309 0.40377 0.57417 0 0.78161-0.29264 0.78161-0.5186 0-0.14817-0.0852-0.29634-0.263-0.36673-0.17781-0.07409-0.38154-0.04816-0.57417-0.04816-0.12595 0-0.20744-0.01111-0.24078-0.02223-0.06668-0.01852-0.10372-0.05927-0.10372-0.11113 0-0.0889 0.10372-0.1741 0.12224-0.18892 0.06668 0.02593 0.14076 0.03704 0.21485 0.03704 0.33339 0 0.6075-0.26671 0.6075-0.57787 0-0.10372-0.02963-0.20374-0.0852-0.28894 0.0889-0.05186 0.19262-0.0815 0.29634-0.0815 0.03334 0 0.06297 0.0037 0.09631 0.01111l-0.029632-0.21854c-0.1704-0.01482-0.3408 0.04075-0.47045 0.14817-0.10742-0.10372-0.24819-0.15928-0.40377-0.15928zm-0.2556 1.6558c0.06297 0.0074 0.15188 0.01482 0.28153 0.02222 0.12595 0.0037 0.263-0.0074 0.35932 0.0074 0.15558 0.02593 0.20374 0.12224 0.20374 0.19633 0 0.07409-0.04445 0.16299-0.15928 0.22596-0.12595 0.06668-0.26671 0.07409-0.38154 0.07409-0.07779 0-0.22226-0.0037-0.3482-0.05556-0.13706-0.05556-0.16669-0.14817-0.16669-0.20744 0-0.12224 0.11483-0.21114 0.21114-0.263z"/>
   <path d="m90.49 25.743v0.21855h0.40747v1.2632h-0.4297v0.21114h1.0965v-0.21114h-0.39636v-1.4817zm0.54824-0.73345c-0.10742 0-0.19262 0.0852-0.19262 0.18892s0.0852 0.18892 0.19262 0.18892 0.19262-0.0852 0.19262-0.18892c0-0.10372-0.0852-0.18892-0.19262-0.18892z"/>
   <path d="m92.646 25.291-0.03334 0.45563h-0.40377l-0.0037 0.21855h0.39636c-0.02223 0.28894-0.03334 0.57787-0.03334 0.8631 0 0.15188 0 0.32227 0.10002 0.46304 0.08149 0.11113 0.21114 0.17781 0.38525 0.17781 0.20003 0 0.39636-0.0852 0.54083-0.18892l-0.0815-0.21114c-0.14447 0.10742-0.27782 0.15558-0.38154 0.15558-0.12595 0-0.2556-0.07038-0.28523-0.27412 0-0.01482-0.01111-0.07779-0.01111-0.32598 0-0.21855 0.01111-0.44081 0.03334-0.65936h0.55564v-0.22226h-0.55194s0.02593-0.30375 0.04445-0.40006c0.0037-0.03704 0.03334-0.05927 0.01852-0.10002z"/>
   <path d="m96.021 25.746v1.6929h0.26671v-0.82235c0-0.10372 0.0037-0.21485 0.11854-0.39636 0.15558-0.24448 0.35561-0.28523 0.47786-0.28523 0.14076 0 0.22967 0.06668 0.27782 0.12595 0.02223 0.02963 0.03334 0.05927 0.06297 0.0852l0.12595-0.2556c-0.10742-0.11113-0.26301-0.18522-0.45192-0.18522-0.24819 0-0.50008 0.12595-0.61121 0.36672l0.01111-0.32598z"/>
   <path d="m98.462 25.705c-0.40377 0-0.7779 0.28894-0.7779 0.90385 0 0.56676 0.35191 0.86681 0.81124 0.86681 0.24448 0 0.46304-0.0889 0.60751-0.263l-0.14817-0.14447c-0.10742 0.12595-0.27041 0.19262-0.43711 0.19262-0.22596 0-0.55564-0.12595-0.57417-0.63344h1.2002c0.01111-0.11483 0.0074-0.22596-0.01111-0.32227-0.07779-0.45563-0.39266-0.6001-0.67048-0.6001zm-0.51119 0.71863c0.05557-0.40006 0.31116-0.5149 0.49267-0.5149 0.27412 0 0.47045 0.24078 0.43711 0.5149z"/>
   <path d="m100.96 25.968c-0.15558-0.1704-0.38154-0.263-0.63343-0.263-0.39266 0-0.64825 0.21855-0.64825 0.47045 0 0.29634 0.31857 0.40377 0.41117 0.43711 0.14447 0.05186 0.32969 0.09631 0.45563 0.15558 0.14077 0.06668 0.1667 0.15558 0.1667 0.21485 0 0.15928-0.19263 0.26671-0.43341 0.26671-0.28893 0-0.47415-0.1741-0.52971-0.23337-0.01111-0.01482-0.01111-0.02593-0.01111-0.04075 0-0.0037 0.0037-0.02593-0.01482-0.03334l-0.15558 0.263c0.20003 0.18522 0.45933 0.27041 0.71493 0.27041 0.46303 0 0.70381-0.27412 0.70381-0.52972 0-0.11483-0.0482-0.27041-0.24818-0.38154-0.18892-0.10742-0.46304-0.14447-0.62233-0.22226-0.13706-0.06668-0.16669-0.14817-0.16669-0.20744 0-0.13336 0.16669-0.22967 0.35561-0.22967 0.24449 0 0.40748 0.14817 0.47045 0.23337 0.0111 0.01111 7e-3 0.02223 7e-3 0.03334 0 0.02222 0.0148 0.02963 0.0222 0.02963z"/>
   <path d="m102.17 25.705c-0.40377 0-0.77791 0.28894-0.77791 0.90385 0 0.56676 0.35191 0.86681 0.81124 0.86681 0.24449 0 0.46304-0.0889 0.60751-0.263l-0.14817-0.14447c-0.10743 0.12595-0.27042 0.19262-0.43711 0.19262-0.22596 0-0.55564-0.12595-0.57417-0.63344h1.2002c0.0111-0.11483 7e-3 -0.22596-0.0111-0.32227-0.0778-0.45563-0.39265-0.6001-0.67047-0.6001zm-0.5112 0.71863c0.0556-0.40006 0.31116-0.5149 0.49267-0.5149 0.27412 0 0.47045 0.24078 0.43711 0.5149z"/>
   <path d="m103.76 25.291-0.0333 0.45563h-0.40377l-4e-3 0.21855h0.39636c-0.0222 0.28894-0.0333 0.57787-0.0333 0.8631 0 0.15188 0 0.32227 0.10002 0.46304 0.0815 0.11113 0.21115 0.17781 0.38525 0.17781 0.20003 0 0.39636-0.0852 0.54083-0.18892l-0.0815-0.21114c-0.14447 0.10742-0.27782 0.15558-0.38154 0.15558-0.12595 0-0.2556-0.07038-0.28523-0.27412 0-0.01482-0.0111-0.07779-0.0111-0.32598 0-0.21855 0.0111-0.44081 0.0333-0.65936h0.55565v-0.22226h-0.55194s0.0259-0.30375 0.0444-0.40006c4e-3 -0.03704 0.0333-0.05927 0.0185-0.10002z"/>
   <path d="m107.87 27.265c0-0.11483-0.0963-0.21114-0.21855-0.21114-0.12224 0-0.21855 0.09631-0.21855 0.21114 0 0.11854 0.0963 0.21485 0.21855 0.21485 0.12224 0 0.21855-0.09631 0.21855-0.21485z"/>
  </g>
  <g transform="matrix(0 .0044049 -.0044804 0 87.005 29.307)" fill="#6f8ce9" stroke-width="59.559">
   <g fill="#6f8ce9" stroke-width="59.559">
    <path d="m486.41 221.41-364.07-208.5c-52.938-30.318-95.852-5.44-95.852 55.563v415.65c0 61.004 42.914 85.882 95.852 55.563l364.07-208.49c52.938-30.317 52.938-79.473 0-109.79z" fill="#6f8ce9" stroke-width="59.559"/>
   </g>
  </g>
 </g>
 <rect x=".041084" y="31.748" width="171.85" height="21.167" fill="#2f3744" fill-opacity=".50196"/>
 <g stroke-width=".26459">
  <path d="m100.58 39.846c-1.4503 0-2.6178 1.1675-2.6178 2.6178 0 1.4502 1.1675 2.6178 2.6178 2.6178h16.405c1.4503 0 2.6178-1.1675 2.6178-2.6178 0-1.4502-1.1675-2.6178-2.6178-2.6178z" fill="#1d232d" stroke="#7893ea"/>
  <path d="m33.895 44.465-3.6948 2.1332-3.6948-2.1332v-4.2664l3.6948-2.1332 3.6948 2.1332z" fill="#1d232d" stroke="#6f8ce9" stroke-linecap="round"/>
  <path d="m50.294 42.464h-14.983" fill="none" stroke="#7b8694" stroke-linecap="round"/>
 </g>
 <g transform="matrix(-.0044049 0 0 -.0044804 36.313 43.669)" fill="#7b8694" stroke-width="59.559">
  <g fill="#7b8694" stroke-width="59.559">
   <path d="m486.41 221.41-364.07-208.5c-52.938-30.318-95.852-5.44-95.852 55.563v415.65c0 61.004 42.914 85.882 95.852 55.563l364.07-208.49c52.938-30.317 52.938-79.473 0-109.79z" fill="#7b8694" stroke-width="59.559"/>
  </g>
 </g>
 <path d="m57.708 44.465-3.6948 2.1332-3.6948-2.1332v-4.2664l3.6948-2.1332 3.6948 2.1332z" fill="#1d232d" stroke="#6f8ce9" stroke-linecap="round" stroke-width=".26459"/>
 <path d="m74.108 42.464h-14.983" fill="none" stroke="#7b8694" stroke-linecap="round" stroke-width=".26459"/>
 <g transform="matrix(-.0044049 0 0 -.0044804 60.126 43.669)" fill="#7b8694" stroke-width="59.559">
  <g fill="#7b8694" stroke-width="59.559">
   <path d="m486.41 221.41-364.07-208.5c-52.938-30.318-95.852-5.44-95.852 55.563v415.65c0 61.004 42.914 85.882 95.852 55.563l364.07-208.49c52.938-30.317 52.938-79.473 0-109.79z" fill="#7b8694" stroke-width="59.559"/>
  </g>
 </g>
 <path d="m81.522 44.465-3.6948 2.1332-3.6948-2.1332v-4.2664l3.6948-2.1332 3.6948 2.1332z" fill="#1d232d" stroke="#6f8ce9" stroke-linecap="round" stroke-width=".26459"/>
 <path d="m97.921 42.464h-14.983" fill="none" stroke="#6f8ce9" stroke-linecap="round" stroke-width=".26459"/>
 <g transform="matrix(-.0044049 0 0 -.0044804 83.94 43.669)" fill="#6f8ce9" stroke-width="59.559">
  <g fill="#6f8ce9" stroke-width="59.559">
   <path d="m486.41 221.41-364.07-208.5c-52.938-30.318-95.852-5.44-95.852 55.563v415.65c0 61.004 42.914 85.882 95.852 55.563l364.07-208.49c52.938-30.317 52.938-79.473 0-109.79z" fill="#6f8ce9" stroke-width="59.559"/>
  </g>
 </g>
 <g fill="#e8eaec" stroke-linecap="round" stroke-width=".26459" aria-label="master">
  <path d="m103.5 43.594h0.30376v-1.3039c0.16669-0.18522 0.31857-0.27782 0.45192-0.27782 0.22967 0 0.33709 0.14447 0.33709 0.48156v1.1002h0.30376v-1.3039c0.16669-0.18522 0.31116-0.27782 0.45192-0.27782 0.22596 0 0.33339 0.14447 0.33339 0.48156v1.1002h0.30375v-1.1409c0-0.45933-0.17781-0.70382-0.54824-0.70382-0.21855 0-0.40377 0.14076-0.59268 0.3445-0.0741-0.21485-0.22226-0.3445-0.49638-0.3445-0.21485 0-0.40377 0.13336-0.55935 0.30375h-0.0111l-0.0259-0.2593h-0.2519z"/>
  <path d="m106.48 43.127c0 0.32227 0.22597 0.51119 0.52972 0.51119 0.22226 0 0.42229-0.11854 0.59639-0.2593h7e-3l0.0259 0.21485h0.25189v-1.1039c0-0.44822-0.18521-0.74086-0.62602-0.74086-0.28894 0-0.54083 0.12595-0.70752 0.23337l0.12224 0.21114c0.14076-0.09631 0.32598-0.19262 0.53712-0.19262 0.29264 0 0.37043 0.22226 0.37043 0.45192-0.76679 0.0852-1.1076 0.28153-1.1076 0.67418zm0.30005-0.02222c0-0.22967 0.20374-0.37784 0.80754-0.45192v0.50008c-0.1741 0.15558-0.31857 0.24078-0.49267 0.24078-0.17781 0-0.31487-0.0852-0.31487-0.28894z"/>
  <path d="m108.27 43.39c0.17039 0.14076 0.41488 0.24819 0.67047 0.24819 0.426 0 0.65937-0.24448 0.65937-0.53712 0-0.3408-0.28894-0.44822-0.54824-0.54453-0.20373-0.07779-0.40006-0.14447-0.40006-0.31116 0-0.13706 0.10372-0.2593 0.32968-0.2593 0.15929 0 0.28894 0.06668 0.41118 0.15928l0.14447-0.19262c-0.13706-0.11113-0.33339-0.20374-0.55935-0.20374-0.38895 0-0.61862 0.22226-0.61862 0.51119 0 0.30375 0.28153 0.426 0.53712 0.5186 0.19633 0.07409 0.41118 0.15558 0.41118 0.3408 0 0.15558-0.11854 0.28153-0.35561 0.28153-0.21485 0-0.37414-0.0889-0.52972-0.21485z"/>
  <path d="m110.07 43.038c0 0.35561 0.12966 0.6001 0.5149 0.6001 0.11113 0 0.23337-0.03334 0.33339-0.06668l-0.0593-0.22967c-0.0593 0.02223-0.14076 0.04816-0.20374 0.04816-0.20744 0-0.27782-0.12595-0.27782-0.3482v-1.0002h0.48526v-0.24819h-0.48526v-0.50378h-0.2556l-0.037 0.50378-0.28152 0.01852v0.22967h0.2667z"/>
  <path d="m111.1 42.697c0 0.58898 0.38155 0.94089 0.86311 0.94089 0.24448 0 0.4371-0.0852 0.59268-0.18522l-0.10742-0.20003c-0.13336 0.0852-0.27782 0.14076-0.44822 0.14076-0.3445 0-0.57787-0.24448-0.6001-0.63344h1.215c7e-3 -0.04445 0.0111-0.10372 0.0111-0.16669 0-0.5149-0.2593-0.84458-0.71863-0.84458-0.41118 0-0.80754 0.35932-0.80754 0.9483zm0.29635-0.13706c0.037-0.36302 0.26671-0.57046 0.5186-0.57046 0.28153 0 0.44452 0.20374 0.44452 0.57046z"/>
  <path d="m113.07 43.594h0.30375v-1.1557c0.12224-0.30375 0.30375-0.41488 0.45563-0.41488 0.0741 0 0.11483 0.01111 0.1741 0.02963l0.0593-0.26671c-0.0593-0.02593-0.11483-0.03704-0.19262-0.03704-0.20374 0-0.38895 0.14447-0.5112 0.37043h-0.0111l-0.0259-0.32598h-0.25189z"/>
 </g>
 <path d="m130.91 45.986v-7.0448" fill="none" stroke="#7b8694" stroke-linecap="round" stroke-width=".26459"/>
 <g fill="#e8eaec" stroke-linecap="round" stroke-width=".26459">
  <g aria-label="#cab">
   <path d="m26.891 37.196h0.20003l0.09261-0.75568h0.48897l-0.0889 0.75568h0.19633l0.09261-0.75568h0.3408v-0.21114h-0.31486l0.06668-0.54824h0.32227v-0.21485h-0.30005l0.0889-0.67789h-0.19633l-0.0889 0.67789h-0.49267l0.0852-0.67789h-0.19633l-0.0852 0.67789h-0.3408v0.21485h0.31486l-0.06668 0.54824h-0.32227v0.21114h0.29634zm0.31857-0.96682 0.06668-0.54824h0.48897l-0.06668 0.54824z"/>
   <path d="m28.566 36.3c0 0.59639 0.36673 0.94089 0.84458 0.94089 0.21485 0 0.42229-0.0889 0.58528-0.23337l-0.13706-0.20003c-0.10742 0.09631-0.25189 0.18151-0.42229 0.18151-0.32968 0-0.55564-0.27782-0.55564-0.689 0-0.41488 0.23708-0.69641 0.56305-0.69641 0.14447 0 0.2556 0.06668 0.36302 0.15928l0.15188-0.19633c-0.12224-0.11483-0.28894-0.21485-0.52601-0.21485-0.46304 0-0.86681 0.3445-0.86681 0.9483z"/>
   <path d="m30.26 36.729c0 0.32228 0.22596 0.51119 0.52972 0.51119 0.22226 0 0.42229-0.11854 0.59639-0.2593h0.0074l0.02593 0.21485h0.25189v-1.1039c0-0.44822-0.18522-0.74086-0.62603-0.74086-0.28894 0-0.54083 0.12595-0.70752 0.23337l0.12224 0.21114c0.14076-0.09631 0.32598-0.19262 0.53712-0.19262 0.29264 0 0.37043 0.22226 0.37043 0.45192-0.76679 0.0852-1.1076 0.28153-1.1076 0.67418zm0.30005-0.02222c0-0.22967 0.20374-0.37784 0.80754-0.45192v0.50008c-0.1741 0.15558-0.31857 0.24078-0.49267 0.24078-0.17781 0-0.31487-0.0852-0.31487-0.28894z"/>
   <path d="m32.244 37.196h0.24448l0.02593-0.17781h0.01111c0.15928 0.14076 0.3482 0.22226 0.5149 0.22226 0.41118 0 0.7779-0.35932 0.7779-0.97423 0-0.55564-0.24819-0.91496-0.71493-0.91496-0.20003 0-0.40006 0.10742-0.56305 0.25189l0.0074-0.32598v-0.71863h-0.30375zm0.30375-0.40006v-0.9446c0.1704-0.15928 0.32968-0.24448 0.48156-0.24448 0.3408 0 0.47415 0.26671 0.47415 0.66307 0 0.44452-0.21855 0.71493-0.5149 0.71493-0.11854 0-0.28153-0.05186-0.44081-0.18892z"/>
  </g>
  <g aria-label="#06c">
   <path d="m50.705 37.196h0.20003l0.09261-0.75568h0.48897l-0.0889 0.75568h0.19633l0.09261-0.75568h0.3408v-0.21114h-0.31486l0.06668-0.54824h0.32227v-0.21485h-0.30005l0.0889-0.67789h-0.19633l-0.0889 0.67789h-0.49267l0.0852-0.67789h-0.19634l-0.0852 0.67789h-0.3408v0.21485h0.31486l-0.06668 0.54824h-0.32227v0.21114h0.29634zm0.31857-0.96682 0.06668-0.54824h0.48897l-0.06668 0.54824z"/>
   <path d="m53.131 37.241c0.47045 0 0.75568-0.44081 0.75568-1.2335s-0.28523-1.2187-0.75568-1.2187c-0.47415 0-0.75938 0.426-0.75938 1.2187s0.28523 1.2335 0.75938 1.2335zm0-0.24448c-0.27782 0-0.46304-0.29634-0.46304-0.98905s0.18522-0.97423 0.46304-0.97423c0.27412 0 0.45933 0.28153 0.45933 0.97423s-0.18522 0.98905-0.45933 0.98905z"/>
   <path d="m55.039 37c-0.30005 0-0.48156-0.24819-0.5186-0.70752 0.15928-0.22226 0.3445-0.31116 0.49267-0.31116 0.29264 0 0.43711 0.19262 0.43711 0.50008 0 0.31116-0.17781 0.5186-0.41118 0.5186zm0.65566-1.9596c-0.13336-0.14447-0.31487-0.25189-0.57046-0.25189-0.47045 0-0.90014 0.36673-0.90014 1.315 0 0.75938 0.35191 1.1372 0.81495 1.1372 0.38154 0 0.70011-0.30746 0.70011-0.75938 0-0.48526-0.26671-0.72975-0.67418-0.72975-0.19262 0-0.40377 0.11483-0.55194 0.29634 0.01482-0.74827 0.29264-1.0039 0.62232-1.0039 0.14817 0 0.29264 0.07038 0.38895 0.18522z"/>
   <path d="m56.055 36.3c0 0.59639 0.36673 0.94089 0.84458 0.94089 0.21485 0 0.42229-0.0889 0.58528-0.23337l-0.13706-0.20003c-0.10742 0.09631-0.25189 0.18151-0.42229 0.18151-0.32968 0-0.55564-0.27782-0.55564-0.689 0-0.41488 0.23708-0.69641 0.56305-0.69641 0.14447 0 0.2556 0.06668 0.36302 0.15928l0.15188-0.19633c-0.12224-0.11483-0.28894-0.21485-0.52601-0.21485-0.46304 0-0.86681 0.3445-0.86681 0.9483z"/>
  </g>
  <g aria-label="#ba1">
   <path d="m74.518 37.196h0.20003l0.09261-0.75568h0.48897l-0.0889 0.75568h0.19633l0.09261-0.75568h0.3408v-0.21114h-0.31487l0.06668-0.54824h0.32227v-0.21485h-0.30005l0.0889-0.67789h-0.19634l-0.0889 0.67789h-0.49267l0.0852-0.67789h-0.19633l-0.0852 0.67789h-0.3408v0.21485h0.31487l-0.06668 0.54824h-0.32227v0.21114h0.29634zm0.31857-0.96682 0.06668-0.54824h0.48897l-0.06668 0.54824z"/>
   <path d="m76.326 37.196h0.24448l0.02593-0.17781h0.01111c0.15928 0.14076 0.3482 0.22226 0.5149 0.22226 0.41118 0 0.7779-0.35932 0.7779-0.97423 0-0.55564-0.24819-0.91496-0.71493-0.91496-0.20003 0-0.40006 0.10742-0.56305 0.25189l0.0074-0.32598v-0.71863h-0.30374zm0.30375-0.40006v-0.9446c0.1704-0.15928 0.32968-0.24448 0.48156-0.24448 0.3408 0 0.47415 0.26671 0.47415 0.66307 0 0.44452-0.21855 0.71493-0.5149 0.71493-0.11854 0-0.28153-0.05186-0.44081-0.18892z"/>
   <path d="m78.241 36.729c0 0.32228 0.22596 0.51119 0.52972 0.51119 0.22226 0 0.42229-0.11854 0.59639-0.2593h0.0074l0.02593 0.21485h0.25189v-1.1039c0-0.44822-0.18522-0.74086-0.62603-0.74086-0.28894 0-0.54083 0.12595-0.70752 0.23337l0.12224 0.21114c0.14076-0.09631 0.32598-0.19262 0.53712-0.19262 0.29264 0 0.37043 0.22226 0.37043 0.45192-0.76679 0.0852-1.1076 0.28153-1.1076 0.67418zm0.30005-0.02222c0-0.22967 0.20374-0.37784 0.80754-0.45192v0.50008c-0.1741 0.15558-0.31857 0.24078-0.49267 0.24078-0.17781 0-0.31487-0.0852-0.31487-0.28894z"/>
   <path d="m80.214 37.196h1.3335v-0.25189h-0.48897v-2.1115h-0.23337c-0.12965 0.07779-0.28523 0.13706-0.50008 0.1741v0.19633h0.4297v1.741h-0.54083z"/>
  </g>
 </g>
 <path d="m74.132 51.079v-2.1497l3.6948-2.1332 3.6948 2.1332v2.1497z" fill="#e9e56f"/>
 <path d="m85.765 29.366v-7.9378" fill="#1d232d" stroke="#6f8ce9" stroke-linecap="square" stroke-width=".26459"/>
 <g fill="#6f8ce9">
  <rect transform="matrix(.70711 .70711 .70711 -.70711 0 0)" x="75.047" y="45.127" width="1.1134" height="1.1134"/>
  <rect x="27.819" y="8.199" width="2.1167" height="2.1167"/>
  <rect x="51.632" y="8.199" width="2.1167" height="2.1167"/>
  <rect x="75.446" y="8.199" width="2.1167" height="2.1167"/>
 </g>
 <rect x="54.401" y="8.3223" width="1.8702" height="1.8702" fill="none" stroke="#e9e56f" stroke-linecap="square" stroke-width=".26459"/>
 <rect x="78.215" y="8.3223" width="1.8702" height="1.8702" fill="none" stroke="#6f8ce9" stroke-linecap="square" stroke-width=".26459"/>
 <path d="m76.504 10.946 1.0584 1.8332-2.1167-1e-6z" fill="#e9e56f" style="paint-order:normal"/>
 <g fill="#6f8ce9">
  <rect x="27.819" y="39.95" width="2.1167" height="2.1167"/>
  <rect x="51.632" y="39.95" width="2.1167" height="2.1167"/>
  <rect x="75.446" y="39.95" width="2.1167" height="2.1167"/>
 </g>
 <rect x="54.401" y="40.073" width="1.8702" height="1.8702" fill="none" stroke="#e9e56f" stroke-linecap="square" stroke-width=".26459"/>
 <rect x="78.215" y="40.073" width="1.8702" height="1.8702" fill="none" stroke="#6f8ce9" stroke-linecap="square" stroke-width=".26459"/>
 <path d="m76.504 42.697 1.0584 1.8332h-2.1167z" fill="#e9e56f" style="paint-order:normal"/>
 <g fill="#1d232d" stroke-linecap="round" stroke-width=".26459">
  <rect x="121.75" y="6.876" width="7.4086" height="7.4086" stroke="#6f8ce9"/>
  <rect x="132.33" y="6.876" width="7.4086" height="7.4086" stroke="#7b8694" stroke-dasharray="0.264593, 0.529185"/>
  <rect x="121.75" y="38.627" width="7.4086" height="7.4086" stroke="#6f8ce9"/>
  <rect x="132.33" y="38.627" width="7.4086" height="7.4086" stroke="#7b8694" stroke-dasharray="0.264593, 0.529185"/>
 </g>
 <rect x="133.66" y="8.199" width="2.1167" height="2.1167" fill="#6f8ce9"/>
 <rect x="136.43" y="8.3223" width="1.8702" height="1.8702" fill="none" stroke="#6f8ce9" stroke-linecap="square" stroke-width=".26459"/>
 <path d="m134.71 10.946 1.0584 1.8332-2.1167-1e-6z" fill="#6f8ce9" style="paint-order:normal"/>
 <path transform="matrix(.2752 0 0 .27566 -755.65 -102.5)" d="m3245 412.6 2.9434 5.0982h-5.8868z" fill="none" stroke="#e9e56f" stroke-linecap="square" stroke-width=".96066" style="paint-order:normal"/>
 <rect x="133.66" y="39.95" width="2.1167" height="2.1167" fill="#6f8ce9"/>
 <rect x="136.43" y="40.073" width="1.8702" height="1.8702" fill="none" stroke="#6f8ce9" stroke-linecap="square" stroke-width=".26459"/>
 <path d="m134.71 42.697 1.0584 1.8332h-2.1167z" fill="#6f8ce9" style="paint-order:normal"/>
 <path transform="matrix(.2752 0 0 .27566 -755.65 -70.751)" d="m3245 412.6 2.9434 5.0982h-5.8868z" fill="none" stroke="#e9e56f" stroke-linecap="square" stroke-width=".96066" style="paint-order:normal"/>
 <g fill="#e8eaec" stroke="#cf2f25" stroke-linecap="round" stroke-width=".26459">
  <g aria-label="A">
   <path d="m33.005 15.304 0.11854-0.37043c0.0852-0.27041 0.16299-0.53712 0.24078-0.81865h0.01482c0.07779 0.28153 0.15558 0.54824 0.24078 0.81865l0.11483 0.37043zm1.0409 0.98905h0.32598l-0.82236-2.43h-0.3482l-0.82236 2.43h0.31487l0.23337-0.74086h0.88533z" fill="#e8eaec" stroke="none"/>
  </g>
  <g aria-label="B">
   <path d="m56.515 16.293h0.7779c0.54083 0 0.91867-0.23337 0.91867-0.71123 0-0.33339-0.20744-0.52601-0.56305-0.58158v-0.01482c0.28894-0.07409 0.426-0.28894 0.426-0.52972 0-0.426-0.3445-0.59269-0.83717-0.59269h-0.72234zm0.31116-1.3928v-0.79272h0.37413c0.37413 0 0.57046 0.11113 0.57046 0.37413 0 0.27041-0.1741 0.41859-0.58528 0.41859zm0 1.1483v-0.91867h0.42229c0.42599 0 0.65936 0.13706 0.65936 0.43711 0 0.32968-0.24448 0.48156-0.65936 0.48156z" fill="#e8eaec" stroke="none"/>
  </g>
  <g aria-label="C">
   <path d="m80.187 15.078c0 0.79272 0.45563 1.2595 1.0668 1.2595 0.30746 0 0.54824-0.12965 0.73716-0.35191l-0.1741-0.18892c-0.15558 0.1741-0.32598 0.27041-0.55564 0.27041-0.46304 0-0.75568-0.38525-0.75568-0.99646 0-0.6038 0.30746-0.98164 0.77049-0.98164 0.20003 0 0.35561 0.0889 0.48526 0.22596l0.1741-0.19633c-0.14447-0.15928-0.37414-0.30005-0.66307-0.30005-0.62232 0-1.0854 0.47786-1.0854 1.2595z" fill="#e8eaec" stroke="none"/>
  </g>
  <g aria-label="A">
   <path d="m33.005 47.055 0.11854-0.37043c0.0852-0.27041 0.16299-0.53712 0.24078-0.81865h0.01482c0.07779 0.28153 0.15558 0.54824 0.24078 0.81865l0.11483 0.37043zm1.0409 0.98905h0.32598l-0.82236-2.43h-0.3482l-0.82236 2.43h0.31487l0.23337-0.74086h0.88533z" fill="#e8eaec" stroke="none"/>
  </g>
  <g aria-label="B">
   <path d="m56.515 48.045h0.7779c0.54083 0 0.91867-0.23337 0.91867-0.71122 0-0.33339-0.20744-0.52601-0.56305-0.58158v-0.01482c0.28894-0.07409 0.426-0.28894 0.426-0.52972 0-0.42599-0.3445-0.59269-0.83717-0.59269h-0.72234zm0.31116-1.3928v-0.79272h0.37413c0.37413 0 0.57046 0.11113 0.57046 0.37413 0 0.27041-0.1741 0.41859-0.58528 0.41859zm0 1.1483v-0.91867h0.42229c0.42599 0 0.65936 0.13706 0.65936 0.43711 0 0.32968-0.24448 0.48156-0.65936 0.48156z" fill="#e8eaec" stroke="none"/>
  </g>
  <g aria-label="C">
   <path d="m80.187 46.83c0 0.79272 0.45563 1.2595 1.0668 1.2595 0.30746 0 0.54824-0.12965 0.73716-0.35191l-0.1741-0.18892c-0.15558 0.1741-0.32598 0.27041-0.55564 0.27041-0.46304 0-0.75568-0.38525-0.75568-0.99646 0-0.6038 0.30746-0.98164 0.77049-0.98164 0.20003 0 0.35561 0.0889 0.48526 0.22596l0.1741-0.19633c-0.14447-0.15928-0.37414-0.30005-0.66307-0.30005-0.62232 0-1.0854 0.47785-1.0854 1.2595z" fill="#e8eaec" stroke="none"/>
  </g>
 </g>
 <rect x="123.07" y="8.199" width="2.1167" height="2.1167" fill="#6f8ce9"/>
 <rect x="125.84" y="8.3223" width="1.8702" height="1.8702" fill="none" stroke="#6f8ce9" stroke-linecap="square" stroke-width=".26459"/>
 <path d="m124.13 10.946 1.0584 1.8332-2.1167-1e-6z" fill="#6f8ce9" style="paint-order:normal"/>
 <path transform="matrix(.2752 0 0 .27566 -766.24 -102.5)" d="m3245 412.6 2.9434 5.0982h-5.8868z" fill="none" stroke="#e9e56f" stroke-linecap="square" stroke-width=".96066" style="paint-order:normal"/>
 <rect x="123.07" y="39.95" width="2.1167" height="2.1167" fill="#6f8ce9"/>
 <rect x="125.84" y="40.073" width="1.8702" height="1.8702" fill="none" stroke="#6f8ce9" stroke-linecap="square" stroke-width=".26459"/>
 <path d="m124.13 42.697 1.0584 1.8332h-2.1167z" fill="#6f8ce9" style="paint-order:normal"/>
</svg>
