<?xml version="1.0" encoding="UTF-8"?>
<svg width="352.86" height="141.97" version="1.1" viewBox="0 0 93.36 37.561" xmlns="http://www.w3.org/2000/svg" xmlns:cc="http://creativecommons.org/ns#" xmlns:dc="http://purl.org/dc/elements/1.1/" xmlns:rdf="http://www.w3.org/1999/02/22-rdf-syntax-ns#">
 <metadata>
  <rdf:RDF>
   <cc:Work rdf:about="">
    <dc:format>image/svg+xml</dc:format>
    <dc:type rdf:resource="http://purl.org/dc/dcmitype/StillImage"/>
    <dc:title/>
   </cc:Work>
  </rdf:RDF>
 </metadata>
 <g stroke-width=".26458">
  <path d="m74.206 5.4184c-1.4502 0-2.6177 1.1675-2.6177 2.6177s1.1675 2.6177 2.6177 2.6177h16.404c1.4502 0 2.6177-1.1675 2.6177-2.6177s-1.1675-2.6177-2.6177-2.6177z" fill="#1d232d" stroke="#7893ea"/>
  <path d="m7.5217 10.037-3.6947 2.1331-3.6947-2.1331 2e-8 -4.2663 3.6947-2.1331 3.6947 2.1331z" fill="#1d232d" stroke="#6f8ce9" stroke-linecap="round"/>
  <path d="m23.92 8.0363h-14.982" fill="none" stroke="#7b8694" stroke-linecap="round"/>
 </g>
 <g transform="matrix(-.0044048 0 0 -.0044802 9.9394 9.2411)" fill="#7b8694" stroke-width="59.559">
  <g fill="#7b8694" stroke-width="59.559">
   <path d="m486.41 221.41-364.07-208.5c-52.938-30.318-95.852-5.44-95.852 55.563v415.65c0 61.004 42.914 85.882 95.852 55.563l364.07-208.49c52.938-30.317 52.938-79.473 0-109.79z" fill="#7b8694" stroke-width="59.559"/>
  </g>
 </g>
 <path d="m31.334 10.037-3.6947 2.1331-3.6947-2.1331v-4.2663l3.6947-2.1331 3.6947 2.1331z" fill="#1d232d" stroke="#6f8ce9" stroke-linecap="round" stroke-width=".26458"/>
 <path d="m47.733 8.0363h-14.982" fill="none" stroke="#7b8694" stroke-linecap="round" stroke-width=".26458"/>
 <g transform="matrix(-.0044048 0 0 -.0044802 33.752 9.2411)" fill="#7b8694" stroke-width="59.559">
  <g fill="#7b8694" stroke-width="59.559">
   <path d="m486.41 221.41-364.07-208.5c-52.938-30.318-95.852-5.44-95.852 55.563v415.65c0 61.004 42.914 85.882 95.852 55.563l364.07-208.49c52.938-30.317 52.938-79.473 0-109.79z" fill="#7b8694" stroke-width="59.559"/>
  </g>
 </g>
 <path d="m55.147 10.037-3.6947 2.1331-3.6947-2.1331v-4.2663l3.6947-2.1331 3.6947 2.1331z" fill="#1d232d" stroke="#6f8ce9" stroke-linecap="round" stroke-width=".26458"/>
 <path d="m71.546 8.0363h-14.982" fill="none" stroke="#6f8ce9" stroke-linecap="round" stroke-width=".26458"/>
 <g transform="matrix(-.0044048 0 0 -.0044802 57.565 9.2411)" fill="#6f8ce9" stroke-width="59.559">
  <g fill="#6f8ce9" stroke-width="59.559">
   <path d="m486.41 221.41-364.07-208.5c-52.938-30.318-95.852-5.44-95.852 55.563v415.65c0 61.004 42.914 85.882 95.852 55.563l364.07-208.49c52.938-30.317 52.938-79.473 0-109.79z" fill="#6f8ce9" stroke-width="59.559"/>
  </g>
 </g>
 <g fill="#e8eaec" stroke-linecap="round" stroke-width=".26458">
  <g aria-label="master">
   <path d="m77.126 9.1658h0.30374v-1.3039c0.16669-0.18521 0.31856-0.27781 0.45191-0.27781 0.22966 0 0.33708 0.14446 0.33708 0.48154v1.1001h0.30374v-1.3039c0.16669-0.18521 0.31115-0.27781 0.45191-0.27781 0.22596 0 0.33338 0.14446 0.33338 0.48154v1.1001h0.30374v-1.1409c0-0.45932-0.1778-0.70379-0.54822-0.70379-0.21855 0-0.40375 0.14076-0.59267 0.34449-0.07408-0.21484-0.22225-0.34449-0.49636-0.34449-0.21484 0-0.40375 0.13335-0.55933 0.30374h-0.01111l-0.02593-0.25929h-0.25188z"/>
   <path d="m80.105 8.6991c0 0.32226 0.22595 0.51118 0.5297 0.51118 0.22225 0 0.42228-0.11853 0.59637-0.25929h0.0074l0.02593 0.21484h0.25188v-1.1038c0-0.4482-0.18521-0.74083-0.626-0.74083-0.28892 0-0.54081 0.12594-0.7075 0.23336l0.12224 0.21114c0.14076-0.096308 0.32597-0.19262 0.5371-0.19262 0.29263 0 0.37042 0.22225 0.37042 0.45191-0.76676 0.085196-1.1075 0.28152-1.1075 0.67416zm0.30004-0.022225c0-0.22966 0.20373-0.37783 0.80751-0.45191v0.50006c-0.1741 0.15558-0.31856 0.24077-0.49266 0.24077-0.1778 0-0.31485-0.085196-0.31485-0.28893z"/>
   <path d="m81.889 8.9621c0.17039 0.14076 0.41487 0.24818 0.67046 0.24818 0.42598 0 0.65934-0.24448 0.65934-0.5371 0-0.34078-0.28892-0.4482-0.54822-0.54451-0.20373-0.077788-0.40005-0.14446-0.40005-0.31115 0-0.13705 0.10372-0.25929 0.32967-0.25929 0.15928 0 0.28892 0.066675 0.41116 0.15928l0.14446-0.19262c-0.13705-0.11113-0.33338-0.20373-0.55933-0.20373-0.38894 0-0.6186 0.22225-0.6186 0.51118 0 0.30374 0.28152 0.42598 0.5371 0.51858 0.19632 0.074083 0.41116 0.15558 0.41116 0.34078 0 0.15558-0.11853 0.28152-0.3556 0.28152-0.21484 0-0.37412-0.0889-0.5297-0.21484z"/>
   <path d="m83.697 8.6102c0 0.3556 0.12965 0.60008 0.51488 0.60008 0.11112 0 0.23336-0.033338 0.33338-0.066675l-0.05927-0.22966c-0.05927 0.022225-0.14076 0.048154-0.20373 0.048154-0.20743 0-0.27781-0.12594-0.27781-0.34819v-1.0001h0.48525v-0.24818h-0.48524v-0.50377h-0.25559l-0.03704 0.50377-0.28152 0.018521v0.22966h0.2667z"/>
   <path d="m84.727 8.2694c0 0.58896 0.38153 0.94086 0.86307 0.94086 0.24448 0 0.43709-0.085196 0.59267-0.18521l-0.10742-0.20003c-0.13335 0.085196-0.27781 0.14076-0.4482 0.14076-0.34449 0-0.57785-0.24448-0.60008-0.63341h1.215c0.0074-0.04445 0.01111-0.10372 0.01111-0.16669 0-0.51488-0.25929-0.84455-0.71861-0.84455-0.41116 0-0.80751 0.3593-0.80751 0.94827zm0.29633-0.13705c0.03704-0.36301 0.2667-0.57044 0.51858-0.57044 0.28152 0 0.4445 0.20373 0.4445 0.57044z"/>
   <path d="m86.698 9.1658h0.30374v-1.1557c0.12224-0.30374 0.30374-0.41487 0.45561-0.41487 0.07408 0 0.11483 0.011113 0.1741 0.029633l0.05927-0.2667c-0.05927-0.025929-0.11483-0.037042-0.19262-0.037042-0.20373 0-0.38894 0.14446-0.51118 0.37042h-0.01111l-0.02593-0.32597h-0.25188z"/>
  </g>
  <g aria-label="#d28">
   <path d="m0.51809 2.7687h0.20003l0.092604-0.75565h0.48895l-0.0889 0.75565h0.19632l0.092604-0.75565h0.34078v-0.21114h-0.31485l0.066675-0.54822h0.32226v-0.21484h-0.30004l0.0889-0.67786h-0.19632l-0.0889 0.67786h-0.49265l0.085196-0.67786h-0.19632l-0.085196 0.67786h-0.34078v0.21484h0.31485l-0.066675 0.54822h-0.32226v0.21114h0.29633zm0.31856-0.96679 0.066675-0.54822h0.48895l-0.066675 0.54822z"/>
   <path d="m2.1964 1.8723c0 0.60008 0.29263 0.94086 0.74454 0.94086 0.21114 0 0.40375-0.11853 0.54451-0.25559h0.011112l0.025929 0.21114h0.25188v-2.6374h-0.30745v0.69268l0.014817 0.30745c-0.15928-0.12965-0.29633-0.20743-0.50377-0.20743-0.41116 0-0.78158 0.36301-0.78158 0.94827zm0.31485-0.0037c0-0.41116 0.22966-0.68898 0.51858-0.68898 0.14817 0 0.28522 0.051858 0.43709 0.18891v0.94086c-0.14817 0.16669-0.29263 0.24818-0.45932 0.24818-0.31485 0-0.49636-0.25929-0.49636-0.68898z"/>
   <path d="m4.2252 2.7687h1.5261v-0.263h-0.68527c-0.12224 0-0.2667 0.011112-0.39635 0.022225 0.55933-0.58526 0.96308-1.0261 0.96308-1.4706 0-0.41857-0.2704-0.69638-0.7075-0.69638-0.30745 0-0.51858 0.14446-0.7149 0.3593l0.1741 0.1741c0.13705-0.15928 0.30745-0.28522 0.50377-0.28522 0.30004 0 0.4482 0.19262 0.4482 0.46302 0 0.38153-0.40005 0.80751-1.1113 1.515z"/>
   <path d="m6.3406 2.1353c0-0.21484 0.14076-0.38894 0.32967-0.51488 0.34078 0.13705 0.64082 0.24818 0.64082 0.55192 0 0.24448-0.18891 0.41487-0.46302 0.41487-0.28893 0-0.50747-0.18891-0.50747-0.45191zm0.66675-0.65564c-0.28522-0.11113-0.54451-0.22966-0.54451-0.51118 0-0.22966 0.16298-0.38153 0.38153-0.38153 0.25929 0 0.41116 0.18521 0.41116 0.41857 0 0.1741-0.0889 0.33338-0.24818 0.47413zm-0.94086 0.68527c0 0.37412 0.32967 0.64823 0.77417 0.64823 0.45932 0 0.76306-0.27781 0.76306-0.62971 0-0.31856-0.20003-0.48525-0.41116-0.60748v-0.014817c0.14446-0.11113 0.32597-0.32226 0.32597-0.57044 0-0.36671-0.25559-0.62971-0.66675-0.62971-0.38153 0-0.67045 0.24448-0.67045 0.60748 0 0.24818 0.15558 0.42228 0.32967 0.54451v0.014817c-0.22225 0.11853-0.4445 0.32967-0.4445 0.63712z"/>
  </g>
  <g aria-label="#107">
   <path d="m24.331 2.7687h0.20002l0.09261-0.75565h0.48895l-0.0889 0.75565h0.19632l0.0926-0.75565h0.34078v-0.21114h-0.31486l0.06668-0.54822h0.32226v-0.21484h-0.30004l0.0889-0.67786h-0.19632l-0.0889 0.67786h-0.49265l0.0852-0.67786h-0.19632l-0.0852 0.67786h-0.34078v0.21484h0.31486l-0.06668 0.54822h-0.32226v0.21114h0.29633zm0.31856-0.96679 0.06668-0.54822h0.48895l-0.06668 0.54822z"/>
   <path d="m26.127 2.7687h1.3335v-0.25188h-0.48895v-2.1114h-0.23336c-0.12965 0.077788-0.28522 0.13705-0.50006 0.1741v0.19632h0.42968v1.741h-0.54081z"/>
   <path d="m28.595 2.8132c0.47043 0 0.75565-0.4408 0.75565-1.2335 0-0.79269-0.28522-1.2187-0.75565-1.2187-0.47413 0-0.75935 0.42598-0.75935 1.2187 0 0.79269 0.28522 1.2335 0.75935 1.2335zm0-0.24448c-0.27781 0-0.46302-0.29633-0.46302-0.98901 0-0.69268 0.18521-0.9742 0.46302-0.9742 0.27411 0 0.45932 0.28152 0.45932 0.9742 0 0.69268-0.18521 0.98901-0.45932 0.98901z"/>
   <path d="m30.166 2.7687h0.31485c0.040746-0.92234 0.15558-1.4594 0.7149-2.1743v-0.18891h-1.5224v0.263h1.1779c-0.46672 0.64823-0.64452 1.2113-0.68527 2.1003z"/>
  </g>
  <g aria-label="#1b8">
   <path d="m48.143 2.7687h0.20002l0.0926-0.75565h0.48895l-0.0889 0.75565h0.19632l0.0926-0.75565h0.34079v-0.21114h-0.31485l0.06667-0.54822h0.32226v-0.21484h-0.30004l0.0889-0.67786h-0.19632l-0.0889 0.67786h-0.49265l0.0852-0.67786h-0.19632l-0.0852 0.67786h-0.34078v0.21484h0.31485l-0.06668 0.54822h-0.32226v0.21114h0.29633zm0.31856-0.96679 0.06668-0.54822h0.48895l-0.06668 0.54822z"/>
   <path d="m49.94 2.7687h1.3335v-0.25188h-0.48895v-2.1114h-0.23336c-0.12965 0.077788-0.28522 0.13705-0.50006 0.1741v0.19632h0.42968v1.741h-0.54081z"/>
   <path d="m51.789 2.7687h0.24448l0.02593-0.1778h0.01111c0.15928 0.14076 0.34819 0.22225 0.51488 0.22225 0.41116 0 0.77788-0.3593 0.77788-0.9742 0-0.55563-0.24818-0.91493-0.7149-0.91493-0.20002 0-0.40005 0.10742-0.56303 0.25188l0.0074-0.32597v-0.71861h-0.30373zm0.30374-0.40005v-0.94456c0.17039-0.15928 0.32967-0.24448 0.48154-0.24448 0.34078 0 0.47413 0.2667 0.47413 0.66305 0 0.4445-0.21855 0.7149-0.51488 0.7149-0.11853 0-0.28152-0.051858-0.4408-0.18891z"/>
   <path d="m53.966 2.1353c0-0.21484 0.14076-0.38894 0.32967-0.51488 0.34078 0.13705 0.64082 0.24818 0.64082 0.55192 0 0.24448-0.18891 0.41487-0.46302 0.41487-0.28892 0-0.50747-0.18891-0.50747-0.45191zm0.66675-0.65564c-0.28522-0.11113-0.54451-0.22966-0.54451-0.51118 0-0.22966 0.16298-0.38153 0.38153-0.38153 0.25929 0 0.41116 0.18521 0.41116 0.41857 0 0.1741-0.0889 0.33338-0.24818 0.47413zm-0.94086 0.68527c0 0.37412 0.32967 0.64823 0.77417 0.64823 0.45932 0 0.76306-0.27781 0.76306-0.62971 0-0.31856-0.20002-0.48525-0.41116-0.60748v-0.014817c0.14446-0.11113 0.32597-0.32226 0.32597-0.57044 0-0.36671-0.25559-0.62971-0.66675-0.62971-0.38153 0-0.67045 0.24448-0.67045 0.60748 0 0.24818 0.15558 0.42228 0.32967 0.54451v0.014817c-0.22225 0.11853-0.4445 0.32967-0.4445 0.63712z"/>
  </g>
 </g>
 <path d="m27.6 28.608v-14.982" fill="none" stroke="#7b8694" stroke-linecap="round" stroke-width=".26458"/>
 <g transform="matrix(0 -.0044048 .0044802 0 26.395 14.627)" fill="#7b8694" stroke-width="59.559">
  <g fill="#7b8694" stroke-width="59.559">
   <path d="m486.41 221.41-364.07-208.5c-52.938-30.318-95.852-5.44-95.852 55.563v415.65c0 61.004 42.914 85.882 95.852 55.563l364.07-208.49c52.938-30.317 52.938-79.473 0-109.79z" fill="#7b8694" stroke-width="59.559"/>
  </g>
 </g>
 <path d="m50.394 29.231c-1.4502 0-2.6177 1.1675-2.6177 2.6177s1.1675 2.6177 2.6177 2.6177h16.404c1.4502 0 2.6177-1.1675 2.6177-2.6177s-1.1675-2.6177-2.6177-2.6177z" fill="#1d232d" stroke="#7893ea" stroke-width=".26458"/>
 <path d="m47.733 31.849h-14.982" fill="none" stroke="#6f8ce9" stroke-linecap="round" stroke-width=".26458"/>
 <g>
  <g transform="matrix(-.0044048 0 0 -.0044802 33.752 33.054)" fill="#6f8ce9" stroke-width="59.559">
   <g fill="#6f8ce9" stroke-width="59.559">
    <path d="m486.41 221.41-364.07-208.5c-52.938-30.318-95.852-5.44-95.852 55.563v415.65c0 61.004 42.914 85.882 95.852 55.563l364.07-208.49c52.938-30.317 52.938-79.473 0-109.79z" fill="#6f8ce9" stroke-width="59.559"/>
   </g>
  </g>
  <g stroke-linecap="round" stroke-width=".26458">
   <g fill="#e8eaec" aria-label="feature">
    <path d="m54.258 30.356c-0.08149-0.03334-0.18891-0.05927-0.30004-0.05927-0.3593 0-0.52599 0.22966-0.52599 0.59637v0.28522l-0.24448 0.01852v0.22966h0.24448v1.552h0.30374v-1.552h0.38153v-0.24818h-0.38153v-0.28522c0-0.22966 0.08149-0.34819 0.25188-0.34819 0.06668 0 0.13706 0.01482 0.20373 0.04445z"/>
    <path d="m54.296 32.082c0 0.58896 0.38153 0.94086 0.86307 0.94086 0.24448 0 0.43709-0.0852 0.59267-0.18521l-0.10742-0.20002c-0.13335 0.0852-0.27781 0.14076-0.4482 0.14076-0.34449 0-0.57785-0.24448-0.60008-0.63341h1.215c0.0074-0.04445 0.01111-0.10372 0.01111-0.16669 0-0.51488-0.25929-0.84455-0.71861-0.84455-0.41116 0-0.80751 0.3593-0.80751 0.94827zm0.29633-0.13705c0.03704-0.36301 0.2667-0.57044 0.51858-0.57044 0.28152 0 0.4445 0.20373 0.4445 0.57044z"/>
    <path d="m56.127 32.512c0 0.32226 0.22596 0.51118 0.5297 0.51118 0.22225 0 0.42228-0.11853 0.59637-0.25929h0.0074l0.02593 0.21484h0.25188v-1.1038c0-0.4482-0.18521-0.74083-0.626-0.74083-0.28893 0-0.54081 0.12594-0.7075 0.23336l0.12224 0.21114c0.14076-0.09631 0.32597-0.19262 0.5371-0.19262 0.29263 0 0.37042 0.22225 0.37042 0.45191-0.76676 0.0852-1.1075 0.28152-1.1075 0.67416zm0.30004-0.02222c0-0.22966 0.20373-0.37782 0.80751-0.45191v0.50006c-0.1741 0.15558-0.31856 0.24077-0.49265 0.24077-0.1778 0-0.31486-0.0852-0.31486-0.28892z"/>
    <path d="m58.163 32.423c0 0.3556 0.12965 0.60008 0.51488 0.60008 0.11112 0 0.23336-0.03334 0.33338-0.06668l-0.05927-0.22966c-0.05927 0.02222-0.14076 0.04815-0.20373 0.04815-0.20743 0-0.27781-0.12594-0.27781-0.34819v-1.0001h0.48525v-0.24818h-0.48525v-0.50377h-0.25559l-0.03704 0.50377-0.28152 0.01852v0.22966h0.2667z"/>
    <path d="m59.315 32.319c0 0.45932 0.17039 0.70379 0.55192 0.70379 0.24818 0 0.42598-0.12965 0.59267-0.32597h0.01111l0.02593 0.28152h0.25188v-1.8002h-0.30374v1.2779c-0.17039 0.21114-0.30004 0.30374-0.48525 0.30374-0.23707 0-0.33708-0.14446-0.33708-0.48154v-1.1001h-0.30745z"/>
    <path d="m61.36 32.978h0.30374v-1.1557c0.12224-0.30374 0.30374-0.41487 0.45561-0.41487 0.07408 0 0.11483 0.01111 0.1741 0.02963l0.05927-0.2667c-0.05927-0.02593-0.11483-0.03704-0.19262-0.03704-0.20373 0-0.38894 0.14446-0.51118 0.37042h-0.011115l-0.02593-0.32597h-0.25188z"/>
    <path d="m62.478 32.082c0 0.58896 0.38153 0.94086 0.86307 0.94086 0.24448 0 0.43709-0.0852 0.59267-0.18521l-0.10742-0.20002c-0.13335 0.0852-0.27781 0.14076-0.4482 0.14076-0.34449 0-0.57785-0.24448-0.60008-0.63341h1.215c0.0074-0.04445 0.01111-0.10372 0.01111-0.16669 0-0.51488-0.25929-0.84455-0.71861-0.84455-0.41116 0-0.80751 0.3593-0.80751 0.94827zm0.29633-0.13705c0.03704-0.36301 0.2667-0.57044 0.51858-0.57044 0.28152 0 0.4445 0.20373 0.4445 0.57044z"/>
   </g>
   <path d="m31.334 33.849-3.6947 2.1331-3.6947-2.1331v-4.2663l3.6947-2.1331 3.6947 2.1331z" fill="#1d232d" stroke="#6f8ce9"/>
   <g fill="#e8eaec" aria-label="#ece">
    <path d="m24.331 26.581h0.20002l0.09261-0.75565h0.48895l-0.0889 0.75565h0.19632l0.0926-0.75565h0.34078v-0.21114h-0.31486l0.06668-0.54822h0.32226v-0.21484h-0.30004l0.0889-0.67786h-0.19632l-0.0889 0.67786h-0.49265l0.0852-0.67786h-0.19632l-0.0852 0.67786h-0.34078v0.21484h0.31486l-0.06668 0.54822h-0.32226v0.21114h0.29633zm0.31856-0.96679 0.06668-0.54822h0.48895l-0.06668 0.54822z"/>
    <path d="m26.005 25.685c0 0.58896 0.38153 0.94086 0.86307 0.94086 0.24448 0 0.43709-0.0852 0.59267-0.18521l-0.10742-0.20003c-0.13335 0.0852-0.27781 0.14076-0.4482 0.14076-0.34449 0-0.57785-0.24448-0.60008-0.63341h1.215c0.0074-0.04445 0.01111-0.10372 0.01111-0.16669 0-0.51488-0.25929-0.84455-0.71861-0.84455-0.41116 0-0.80751 0.3593-0.80751 0.94827zm0.29633-0.13705c0.03704-0.36301 0.2667-0.57044 0.51858-0.57044 0.28152 0 0.4445 0.20373 0.4445 0.57044z"/>
    <path d="m27.843 25.685c0 0.59637 0.36671 0.94086 0.84455 0.94086 0.21484 0 0.42228-0.0889 0.58526-0.23336l-0.13706-0.20002c-0.10742 0.09631-0.25188 0.1815-0.42228 0.1815-0.32967 0-0.55563-0.27781-0.55563-0.68898 0-0.41487 0.23707-0.69638 0.56303-0.69638 0.14446 0 0.25559 0.06668 0.36301 0.15928l0.15187-0.19632c-0.12224-0.11483-0.28892-0.21484-0.52599-0.21484-0.46302 0-0.86678 0.34449-0.86678 0.94827z"/>
    <path d="m29.449 25.685c0 0.58896 0.38153 0.94086 0.86307 0.94086 0.24448 0 0.43709-0.0852 0.59267-0.18521l-0.10742-0.20003c-0.13335 0.0852-0.27781 0.14076-0.4482 0.14076-0.34449 0-0.57785-0.24448-0.60008-0.63341h1.215c0.0074-0.04445 0.01111-0.10372 0.01111-0.16669 0-0.51488-0.25929-0.84455-0.71861-0.84455-0.41116 0-0.80751 0.3593-0.80751 0.94827zm0.29633-0.13705c0.03704-0.36301 0.2667-0.57044 0.51858-0.57044 0.28152 0 0.4445 0.20373 0.4445 0.57044z"/>
   </g>
  </g>
  <rect x="1.4458" y="5.5225" width="2.1167" height="2.1167" fill="#6f8ce9"/>
  <rect x="25.258" y="5.5225" width="2.1167" height="2.1167" fill="#6f8ce9"/>
  <rect x="27.904" y="5.5225" width="2.1167" height="2.1167" fill="#e9e56f"/>
  <rect x="49.071" y="5.5225" width="2.1167" height="2.1167" fill="#6f8ce9"/>
  <rect x="51.717" y="5.5225" width="2.1167" height="2.1167" fill="#6f8ce9"/>
  <rect x="49.071" y="8.1684" width="2.1167" height="2.1167" fill="#e9e56f"/>
  <rect x="25.258" y="29.335" width="2.1167" height="2.1167" fill="#6f8ce9"/>
  <rect x="27.904" y="29.335" width="2.1167" height="2.1167" fill="#6f8ce9"/>
  <ellipse cx="26.317" cy="33.039" rx="1.0583" ry="1.0583" fill="#e9e56f" style="paint-order:normal"/>
 </g>
 <g fill="#e8eaec" stroke-linecap="round" stroke-width=".26458">
  <g aria-label="BA">
   <path d="m30.14 37.429h0.77788c0.54081 0 0.91863-0.23336 0.91863-0.7112 0-0.33338-0.20743-0.52599-0.56303-0.58156v-0.01482c0.28892-0.07408 0.42598-0.28892 0.42598-0.5297 0-0.42598-0.34449-0.59267-0.83714-0.59267h-0.72231zm0.31115-1.3928v-0.79269h0.37412c0.37412 0 0.57044 0.11112 0.57044 0.37412 0 0.2704-0.1741 0.41857-0.58526 0.41857zm0 1.1483v-0.91863h0.42228c0.42598 0 0.65934 0.13705 0.65934 0.43709 0 0.32967-0.24448 0.48154-0.65934 0.48154z"/>
   <path d="m32.607 36.44 0.11853-0.37042c0.0852-0.2704 0.16298-0.5371 0.24077-0.81862h0.01482c0.07779 0.28152 0.15558 0.54822 0.24077 0.81862l0.11483 0.37042zm1.0409 0.98901h0.32597l-0.82233-2.4299h-0.34819l-0.82233 2.4299h0.31486l0.23336-0.74083h0.8853z"/>
  </g>
  <g stroke="#cf2f25" aria-label="B">
   <path d="m30.14 13.617h0.77788c0.54081 0 0.91863-0.23336 0.91863-0.7112 0-0.33338-0.20743-0.52599-0.56303-0.58156v-0.01482c0.28892-0.07408 0.42598-0.28892 0.42598-0.5297 0-0.42598-0.34449-0.59267-0.83714-0.59267h-0.72231zm0.31115-1.3928v-0.79269h0.37412c0.37412 0 0.57044 0.11112 0.57044 0.37412 0 0.2704-0.1741 0.41857-0.58526 0.41857zm0 1.1483v-0.91863h0.42228c0.42598 0 0.65934 0.13705 0.65934 0.43709 0 0.32967-0.24448 0.48154-0.65934 0.48154z" fill="#e8eaec" stroke="none"/>
  </g>
  <g stroke="#cf2f25" aria-label="A">
   <path d="m6.6316 12.628 0.11853-0.37042c0.085196-0.2704 0.16298-0.5371 0.24077-0.81862h0.014817c0.077788 0.28152 0.15558 0.54822 0.24077 0.81862l0.11483 0.37042zm1.0409 0.98901h0.32597l-0.82233-2.4299h-0.34819l-0.82233 2.4299h0.31485l0.23336-0.74083h0.8853z" fill="#e8eaec" stroke="none"/>
  </g>
  <g stroke="#cf2f25" aria-label="C">
   <path d="m53.812 12.402c0 0.79269 0.45561 1.2594 1.0668 1.2594 0.30745 0 0.54822-0.12965 0.73713-0.3519l-0.1741-0.18891c-0.15558 0.1741-0.32597 0.2704-0.55563 0.2704-0.46302 0-0.75565-0.38523-0.75565-0.99642 0-0.60378 0.30745-0.9816 0.77047-0.9816 0.20002 0 0.3556 0.0889 0.48525 0.22595l0.1741-0.19632c-0.14446-0.15928-0.37412-0.30004-0.66305-0.30004-0.6223 0-1.0853 0.47784-1.0853 1.2594z" fill="#e8eaec" stroke="none"/>
  </g>
 </g>
</svg>
