<?xml version="1.0" encoding="UTF-8"?>
<svg width="650" height="332" version="1.1" viewBox="0 0 171.99 87.84" xmlns="http://www.w3.org/2000/svg" xmlns:cc="http://creativecommons.org/ns#" xmlns:dc="http://purl.org/dc/elements/1.1/" xmlns:rdf="http://www.w3.org/1999/02/22-rdf-syntax-ns#">
 <metadata>
  <rdf:RDF>
   <cc:Work rdf:about="">
    <dc:format>image/svg+xml</dc:format>
    <dc:type rdf:resource="http://purl.org/dc/dcmitype/StillImage"/>
    <dc:title/>
   </cc:Work>
  </rdf:RDF>
 </metadata>
 <rect x=".095985" y="-.0029483" width="171.89" height="39.689" fill="#2f3744" fill-opacity=".50196"/>
 <path d="m14.279 12.979-3.6948 2.1332-3.6948-2.1332v-4.2664l3.6948-2.1332 3.6948 2.1332z" fill="#1d232d" stroke="#6f8ce9" stroke-linecap="round" stroke-width=".26459"/>
 <path d="m30.678 10.978h-14.983" fill="none" stroke="#7b8694" stroke-linecap="round" stroke-width=".26459"/>
 <g transform="matrix(-.0044049 0 0 -.0044804 16.696 12.183)" fill="#7b8694" stroke-width="59.559">
  <g fill="#7b8694" stroke-width="59.559">
   <path d="m486.41 221.41-364.07-208.5c-52.938-30.318-95.852-5.44-95.852 55.563v415.65c0 61.004 42.914 85.882 95.852 55.563l364.07-208.49c52.938-30.317 52.938-79.473 0-109.79z" fill="#7b8694" stroke-width="59.559"/>
  </g>
 </g>
 <path d="m38.092 12.979-3.6948 2.1332-3.6948-2.1332v-4.2664l3.6948-2.1332 3.6948 2.1332z" fill="#1d232d" stroke="#6f8ce9" stroke-linecap="round" stroke-width=".26459"/>
 <path d="m54.491 10.978h-14.983" fill="none" stroke="#7b8694" stroke-linecap="round" stroke-width=".26459"/>
 <g transform="matrix(-.0044049 0 0 -.0044804 40.51 12.183)" fill="#7b8694" stroke-width="59.559">
  <g fill="#7b8694" stroke-width="59.559">
   <path d="m486.41 221.41-364.07-208.5c-52.938-30.318-95.852-5.44-95.852 55.563v415.65c0 61.004 42.914 85.882 95.852 55.563l364.07-208.49c52.938-30.317 52.938-79.473 0-109.79z" fill="#7b8694" stroke-width="59.559"/>
  </g>
 </g>
 <path d="m61.905 12.979-3.6948 2.1332-3.6948-2.1332v-4.2664l3.6948-2.1332 3.6948 2.1332z" fill="#1d232d" stroke="#6f8ce9" stroke-linecap="round" stroke-width=".26459"/>
 <g fill="#e8eaec" stroke-linecap="round" stroke-width=".26459">
  <g aria-label="#cab">
   <path d="m7.2747 5.7101h0.20003l0.092608-0.75568h0.48897l-0.088903 0.75568h0.19633l0.092608-0.75568h0.3408v-0.21115h-0.31487l0.066677-0.54824h0.32227v-0.21485h-0.30005l0.088903-0.67789h-0.19633l-0.088903 0.67789h-0.49267l0.085199-0.67789h-0.19633l-0.085199 0.67789h-0.3408v0.21485h0.31487l-0.066677 0.54824h-0.32227v0.21115h0.29634zm0.31857-0.96682 0.066677-0.54824h0.48897l-0.066677 0.54824z"/>
   <path d="m8.9494 4.8137c0 0.59639 0.36673 0.94089 0.84458 0.94089 0.21485 0 0.42229-0.088903 0.58528-0.23337l-0.13706-0.20003c-0.10742 0.096312-0.25189 0.18151-0.42229 0.18151-0.32968 0-0.55564-0.27782-0.55564-0.689 0-0.41488 0.23708-0.69641 0.56305-0.69641 0.14447 0 0.2556 0.066677 0.36302 0.15928l0.15188-0.19633c-0.12224-0.11483-0.28894-0.21485-0.52601-0.21485-0.46304 0-0.86681 0.3445-0.86681 0.9483z"/>
   <path d="m10.643 5.2434c0 0.32227 0.22596 0.51119 0.52972 0.51119 0.22226 0 0.42229-0.11854 0.59639-0.2593h0.0074l0.02593 0.21485h0.25189v-1.1039c0-0.44822-0.18522-0.74086-0.62603-0.74086-0.28894 0-0.54083 0.12595-0.70752 0.23337l0.12224 0.21115c0.14076-0.096312 0.32598-0.19262 0.53712-0.19262 0.29264 0 0.37043 0.22226 0.37043 0.45192-0.76679 0.085199-1.1076 0.28153-1.1076 0.67418zm0.30005-0.022226c0-0.22967 0.20374-0.37784 0.80754-0.45192v0.50008c-0.1741 0.15558-0.31857 0.24078-0.49267 0.24078-0.17781 0-0.31486-0.085199-0.31486-0.28894z"/>
   <path d="m12.628 5.7101h0.24448l0.02593-0.17781h0.01111c0.15928 0.14076 0.3482 0.22226 0.5149 0.22226 0.41118 0 0.7779-0.35932 0.7779-0.97423 0-0.55564-0.24819-0.91496-0.71493-0.91496-0.20003 0-0.40006 0.10742-0.56305 0.25189l0.0074-0.32598v-0.71863h-0.30374zm0.30375-0.40006v-0.9446c0.1704-0.15928 0.32968-0.24448 0.48156-0.24448 0.3408 0 0.47415 0.26671 0.47415 0.66307 0 0.44452-0.21855 0.71493-0.5149 0.71493-0.11854 0-0.28153-0.05186-0.44081-0.18892z"/>
  </g>
  <g aria-label="#06c">
   <path d="m31.088 5.7101h0.20003l0.09261-0.75568h0.48897l-0.0889 0.75568h0.19633l0.09261-0.75568h0.3408v-0.21115h-0.31486l0.06668-0.54824h0.32227v-0.21485h-0.30005l0.0889-0.67789h-0.19633l-0.0889 0.67789h-0.49267l0.0852-0.67789h-0.19633l-0.0852 0.67789h-0.3408v0.21485h0.31486l-0.06668 0.54824h-0.32227v0.21115h0.29634zm0.31857-0.96682 0.06668-0.54824h0.48897l-0.06668 0.54824z"/>
   <path d="m33.515 5.7546c0.47045 0 0.75568-0.44081 0.75568-1.2335 0-0.79272-0.28523-1.2187-0.75568-1.2187-0.47415 0-0.75938 0.42599-0.75938 1.2187 0 0.79272 0.28523 1.2335 0.75938 1.2335zm0-0.24448c-0.27782 0-0.46304-0.29634-0.46304-0.98905 0-0.6927 0.18522-0.97423 0.46304-0.97423 0.27412 0 0.45933 0.28153 0.45933 0.97423 0 0.6927-0.18522 0.98905-0.45933 0.98905z"/>
   <path d="m35.423 5.5138c-0.30005 0-0.48156-0.24819-0.5186-0.70752 0.15928-0.22226 0.3445-0.31116 0.49267-0.31116 0.29264 0 0.43711 0.19262 0.43711 0.50008 0 0.31116-0.17781 0.5186-0.41118 0.5186zm0.65566-1.9596c-0.13336-0.14447-0.31487-0.25189-0.57046-0.25189-0.47045 0-0.90014 0.36673-0.90014 1.315 0 0.75938 0.35191 1.1372 0.81495 1.1372 0.38154 0 0.70011-0.30746 0.70011-0.75938 0-0.48526-0.26671-0.72975-0.67418-0.72975-0.19262 0-0.40377 0.11483-0.55194 0.29634 0.01482-0.74827 0.29264-1.0039 0.62232-1.0039 0.14817 0 0.29264 0.070382 0.38895 0.18522z"/>
   <path d="m36.438 4.8137c0 0.59639 0.36673 0.94089 0.84458 0.94089 0.21485 0 0.42229-0.088903 0.58528-0.23337l-0.13706-0.20003c-0.10742 0.096312-0.25189 0.18151-0.42229 0.18151-0.32968 0-0.55564-0.27782-0.55564-0.689 0-0.41488 0.23708-0.69641 0.56305-0.69641 0.14447 0 0.2556 0.066677 0.36302 0.15928l0.15188-0.19633c-0.12224-0.11483-0.28894-0.21485-0.52601-0.21485-0.46304 0-0.86681 0.3445-0.86681 0.9483z"/>
  </g>
  <g aria-label="#ba1">
   <path d="m54.901 5.7101h0.20003l0.09261-0.75568h0.48897l-0.0889 0.75568h0.19633l0.09261-0.75568h0.34079v-0.21115h-0.31487l0.06668-0.54824h0.32227v-0.21485h-0.30005l0.0889-0.67789h-0.19633l-0.0889 0.67789h-0.49267l0.0852-0.67789h-0.19633l-0.0852 0.67789h-0.3408v0.21485h0.31487l-0.06668 0.54824h-0.32227v0.21115h0.29634zm0.31857-0.96682 0.06668-0.54824h0.48897l-0.06668 0.54824z"/>
   <path d="m56.709 5.7101h0.24448l0.02593-0.17781h0.01111c0.15928 0.14076 0.3482 0.22226 0.5149 0.22226 0.41118 0 0.7779-0.35932 0.7779-0.97423 0-0.55564-0.24819-0.91496-0.71493-0.91496-0.20003 0-0.40006 0.10742-0.56305 0.25189l0.0074-0.32598v-0.71863h-0.30374zm0.30375-0.40006v-0.9446c0.1704-0.15928 0.32968-0.24448 0.48156-0.24448 0.3408 0 0.47415 0.26671 0.47415 0.66307 0 0.44452-0.21855 0.71493-0.5149 0.71493-0.11854 0-0.28153-0.05186-0.44081-0.18892z"/>
   <path d="m58.625 5.2434c0 0.32227 0.22596 0.51119 0.52971 0.51119 0.22226 0 0.42229-0.11854 0.59639-0.2593h0.0074l0.02593 0.21485h0.2519v-1.1039c0-0.44822-0.18522-0.74086-0.62603-0.74086-0.28894 0-0.54083 0.12595-0.70752 0.23337l0.12224 0.21115c0.14076-0.096312 0.32598-0.19262 0.53712-0.19262 0.29264 0 0.37043 0.22226 0.37043 0.45192-0.76679 0.085199-1.1076 0.28153-1.1076 0.67418zm0.30005-0.022226c0-0.22967 0.20374-0.37784 0.80754-0.45192v0.50008c-0.1741 0.15558-0.31857 0.24078-0.49267 0.24078-0.17781 0-0.31486-0.085199-0.31486-0.28894z"/>
   <path d="m60.598 5.7101h1.3335v-0.25189h-0.48897v-2.1115h-0.23337c-0.12965 0.07779-0.28523 0.13706-0.50008 0.1741v0.19633h0.4297v1.741h-0.54083z"/>
  </g>
 </g>
 <path d="m78.305 10.978h-14.983" fill="none" stroke="#7b8694" stroke-linecap="round" stroke-width=".26459"/>
 <g transform="matrix(-.0044049 0 0 -.0044804 64.323 12.183)" fill="#7b8694" stroke-width="59.559">
  <g fill="#7b8694" stroke-width="59.559">
   <path d="m486.41 221.41-364.07-208.5c-52.938-30.318-95.852-5.44-95.852 55.563v415.65c0 61.004 42.914 85.882 95.852 55.563l364.07-208.49c52.938-30.317 52.938-79.473 0-109.79z" fill="#7b8694" stroke-width="59.559"/>
  </g>
 </g>
 <path d="m85.719 12.979-3.6948 2.1332-3.6948-2.1332v-4.2664l3.6948-2.1332 3.6948 2.1332z" fill="#1d232d" stroke="#6f8ce9" stroke-linecap="round" stroke-width=".26459"/>
 <g fill="#e8eaec" stroke-linecap="round" stroke-width=".26459">
  <g aria-label="#cc2">
   <path d="m78.979 5.7101h0.20003l0.09261-0.75568h0.48897l-0.0889 0.75568h0.19633l0.09261-0.75568h0.3408v-0.21115h-0.31487l0.06668-0.54824h0.32227v-0.21485h-0.30005l0.0889-0.67789h-0.19634l-0.0889 0.67789h-0.49267l0.0852-0.67789h-0.19633l-0.0852 0.67789h-0.3408v0.21485h0.31487l-0.06668 0.54824h-0.32227v0.21115h0.29634zm0.31857-0.96682 0.06668-0.54824h0.48897l-0.06668 0.54824z"/>
   <path d="m80.654 4.8137c0 0.59639 0.36673 0.94089 0.84458 0.94089 0.21485 0 0.42229-0.088903 0.58528-0.23337l-0.13706-0.20003c-0.10742 0.096312-0.25189 0.18151-0.42229 0.18151-0.32968 0-0.55564-0.27782-0.55564-0.689 0-0.41488 0.23708-0.69641 0.56305-0.69641 0.14447 0 0.2556 0.066677 0.36302 0.15928l0.15188-0.19633c-0.12224-0.11483-0.28894-0.21485-0.52601-0.21485-0.46304 0-0.86681 0.3445-0.86681 0.9483z"/>
   <path d="m82.26 4.8137c0 0.59639 0.36672 0.94089 0.84458 0.94089 0.21485 0 0.42229-0.088903 0.58528-0.23337l-0.13706-0.20003c-0.10742 0.096312-0.25189 0.18151-0.42229 0.18151-0.32968 0-0.55564-0.27782-0.55564-0.689 0-0.41488 0.23708-0.69641 0.56305-0.69641 0.14447 0 0.2556 0.066677 0.36302 0.15928l0.15188-0.19633c-0.12224-0.11483-0.28894-0.21485-0.52601-0.21485-0.46304 0-0.86681 0.3445-0.86681 0.9483z"/>
   <path d="m83.924 5.7101h1.5262v-0.26301h-0.6853c-0.12224 0-0.26671 0.011113-0.39636 0.022226 0.55935-0.58528 0.96312-1.0261 0.96312-1.4706 0-0.41859-0.27041-0.69641-0.70752-0.69641-0.30746 0-0.5186 0.14447-0.71493 0.35932l0.1741 0.1741c0.13706-0.15928 0.30746-0.28523 0.50378-0.28523 0.30005 0 0.44822 0.19262 0.44822 0.46304 0 0.38154-0.40006 0.80754-1.1113 1.5151z"/>
  </g>
  <g stroke="#cf2f25" aria-label="A">
   <path d="m13.388 15.569 0.11854-0.37043c0.0852-0.27041 0.16299-0.53712 0.24078-0.81865h0.01482c0.07779 0.28153 0.15558 0.54824 0.24078 0.81865l0.11483 0.37043zm1.0409 0.98905h0.32598l-0.82235-2.43h-0.3482l-0.82236 2.43h0.31487l0.23337-0.74086h0.88533z" fill="#e8eaec" stroke="none"/>
  </g>
  <g stroke="#cf2f25" aria-label="B">
   <path d="m36.898 16.558h0.7779c0.54083 0 0.91867-0.23337 0.91867-0.71123 0-0.33339-0.20744-0.52601-0.56305-0.58158v-0.01482c0.28894-0.07409 0.42599-0.28894 0.42599-0.52972 0-0.42599-0.3445-0.59269-0.83717-0.59269h-0.72234zm0.31116-1.3928v-0.79272h0.37414c0.37413 0 0.57046 0.11113 0.57046 0.37413 0 0.27041-0.1741 0.41859-0.58528 0.41859zm0 1.1483v-0.91867h0.42229c0.426 0 0.65937 0.13706 0.65937 0.43711 0 0.32968-0.24448 0.48156-0.65937 0.48156z" fill="#e8eaec" stroke="none"/>
  </g>
  <g stroke="#cf2f25" aria-label="C">
   <path d="m60.571 15.343c0 0.79272 0.45563 1.2595 1.0668 1.2595 0.30746 0 0.54824-0.12965 0.73716-0.35191l-0.1741-0.18892c-0.15558 0.1741-0.32598 0.27041-0.55564 0.27041-0.46304 0-0.75568-0.38525-0.75568-0.99646 0-0.6038 0.30746-0.98164 0.7705-0.98164 0.20003 0 0.35561 0.0889 0.48526 0.22596l0.1741-0.19633c-0.14447-0.15928-0.37413-0.30005-0.66307-0.30005-0.62232 0-1.0854 0.47785-1.0854 1.2595z" fill="#e8eaec" stroke="none"/>
  </g>
  <g stroke="#cf2f25" aria-label="D">
   <path d="m84.525 16.558h0.62232c0.73345 0 1.1335-0.45192 1.1335-1.2261 0-0.7705-0.40006-1.2039-1.1483-1.2039h-0.6075zm0.31116-0.25189v-1.9262h0.27412c0.57046 0 0.85199 0.3408 0.85199 0.952 0 0.61491-0.28153 0.97423-0.85199 0.97423z" fill="#e8eaec" stroke="none"/>
  </g>
 </g>
 <path d="m102.12 10.978h-14.983" fill="none" stroke="#7b8694" stroke-linecap="round" stroke-width=".26459"/>
 <g>
  <g transform="matrix(-.0044049 0 0 -.0044804 88.136 12.183)" fill="#7b8694" stroke-width="59.559">
   <g fill="#7b8694" stroke-width="59.559">
    <path d="m486.41 221.41-364.07-208.5c-52.938-30.318-95.852-5.44-95.852 55.563v415.65c0 61.004 42.914 85.882 95.852 55.563l364.07-208.49c52.938-30.317 52.938-79.473 0-109.79z" fill="#7b8694" stroke-width="59.559"/>
   </g>
  </g>
  <g stroke-linecap="round" stroke-width=".26459">
   <path d="m109.53 12.979-3.6948 2.1332-3.6948-2.1332v-4.2664l3.6948-2.1332 3.6948 2.1332z" fill="#1d232d" stroke="#6f8ce9"/>
   <g fill="#e8eaec" aria-label="#6a8">
    <path d="m102.79 5.7101h0.20003l0.0926-0.75568h0.48896l-0.0889 0.75568h0.19633l0.0926-0.75568h0.34079v-0.21115h-0.31486l0.0667-0.54824h0.32228v-0.21485h-0.30005l0.0889-0.67789h-0.19633l-0.0889 0.67789h-0.49267l0.0852-0.67789h-0.19633l-0.0852 0.67789h-0.3408v0.21485h0.31486l-0.0667 0.54824h-0.32227v0.21115h0.29634zm0.31857-0.96682 0.0667-0.54824h0.48897l-0.0667 0.54824z"/>
    <path d="m105.29 5.5138c-0.30005 0-0.48156-0.24819-0.5186-0.70752 0.15928-0.22226 0.3445-0.31116 0.49267-0.31116 0.29264 0 0.43711 0.19262 0.43711 0.50008 0 0.31116-0.17781 0.5186-0.41118 0.5186zm0.65566-1.9596c-0.13335-0.14447-0.31486-0.25189-0.57046-0.25189-0.47045 0-0.90014 0.36673-0.90014 1.315 0 0.75938 0.3519 1.1372 0.81494 1.1372 0.38154 0 0.70011-0.30746 0.70011-0.75938 0-0.48526-0.26671-0.72975-0.67418-0.72975-0.19262 0-0.40377 0.11483-0.55194 0.29634 0.0148-0.74827 0.29264-1.0039 0.62232-1.0039 0.14818 0 0.29264 0.070382 0.38895 0.18522z"/>
    <path d="m106.35 5.2434c0 0.32227 0.22596 0.51119 0.52971 0.51119 0.22226 0 0.42229-0.11854 0.5964-0.2593h7e-3l0.0259 0.21485h0.2519v-1.1039c0-0.44822-0.18522-0.74086-0.62603-0.74086-0.28894 0-0.54083 0.12595-0.70752 0.23337l0.12224 0.21115c0.14076-0.096312 0.32598-0.19262 0.53712-0.19262 0.29264 0 0.37043 0.22226 0.37043 0.45192-0.76679 0.085199-1.1076 0.28153-1.1076 0.67418zm0.30005-0.022226c0-0.22967 0.20373-0.37784 0.80753-0.45192v0.50008c-0.1741 0.15558-0.31857 0.24078-0.49267 0.24078-0.1778 0-0.31486-0.085199-0.31486-0.28894z"/>
    <path d="m108.46 5.0767c0-0.21485 0.14077-0.38895 0.32969-0.5149 0.34079 0.13706 0.64084 0.24819 0.64084 0.55194 0 0.24448-0.18892 0.41488-0.46304 0.41488-0.28893 0-0.50749-0.18892-0.50749-0.45192zm0.66678-0.65566c-0.28523-0.11113-0.54453-0.22967-0.54453-0.51119 0-0.22967 0.16298-0.38154 0.38154-0.38154 0.2593 0 0.41118 0.18522 0.41118 0.41859 0 0.1741-0.0889 0.33339-0.24819 0.47415zm-0.94089 0.6853c0 0.37413 0.32968 0.64825 0.77419 0.64825 0.45934 0 0.76309-0.27782 0.76309-0.62973 0-0.31857-0.20003-0.48526-0.41118-0.60751v-0.014817c0.14447-0.11113 0.32598-0.32227 0.32598-0.57046 0-0.36673-0.2556-0.62973-0.66677-0.62973-0.38155 0-0.67048 0.24448-0.67048 0.60751 0 0.24819 0.15558 0.42229 0.32968 0.54453v0.014817c-0.22226 0.11854-0.44451 0.32968-0.44451 0.63714z"/>
   </g>
   <g fill="#e8eaec" stroke="#cf2f25" aria-label="E">
    <path d="m108.34 16.558h1.4373v-0.263h-1.1261v-0.88162h0.91866v-0.263h-0.91866v-0.76309h1.0891v-0.2593h-1.4002z" fill="#e8eaec" stroke="none"/>
   </g>
  </g>
  <path d="m125.96 19.593v-2.1497l3.6948-2.1332 3.6948 2.1332v2.1497z" fill="#e9e56f"/>
 </g>
 <path d="m125.93 10.978h-14.983" fill="none" stroke="#7b8694" stroke-linecap="round" stroke-width=".26459"/>
 <g>
  <g transform="matrix(-.0044049 0 0 -.0044804 111.95 12.183)" fill="#7b8694" stroke-width="59.559">
   <g fill="#7b8694" stroke-width="59.559">
    <path d="m486.41 221.41-364.07-208.5c-52.938-30.318-95.852-5.44-95.852 55.563v415.65c0 61.004 42.914 85.882 95.852 55.563l364.07-208.49c52.938-30.317 52.938-79.473 0-109.79z" fill="#7b8694" stroke-width="59.559"/>
   </g>
  </g>
  <g stroke-width=".26459">
   <g stroke-linecap="round">
    <path d="m133.35 12.979-3.6948 2.1332-3.6948-2.1332v-4.2664l3.6948-2.1332 3.6948 2.1332z" fill="#1d232d" stroke="#6f8ce9"/>
    <g fill="#e8eaec" aria-label="#dd2">
     <path d="m126.61 5.7101h0.20003l0.0926-0.75568h0.48897l-0.0889 0.75568h0.19633l0.0926-0.75568h0.3408v-0.21115h-0.31487l0.0667-0.54824h0.32228v-0.21485h-0.30005l0.0889-0.67789h-0.19633l-0.0889 0.67789h-0.49267l0.0852-0.67789h-0.19633l-0.0852 0.67789h-0.3408v0.21485h0.31487l-0.0667 0.54824h-0.32227v0.21115h0.29634zm0.31857-0.96682 0.0667-0.54824h0.48897l-0.0667 0.54824z"/>
     <path d="m128.28 4.8137c0 0.6001 0.29264 0.94089 0.74456 0.94089 0.21115 0 0.40377-0.11854 0.54454-0.2556h0.0111l0.0259 0.21115h0.25189v-2.6375h-0.30745v0.6927l0.0148 0.30746c-0.15928-0.12965-0.29634-0.20744-0.50378-0.20744-0.41118 0-0.78161 0.36302-0.78161 0.9483zm0.31487-0.0037c0-0.41118 0.22966-0.689 0.5186-0.689 0.14817 0 0.28523 0.05186 0.43711 0.18892v0.94089c-0.14818 0.16669-0.29264 0.24819-0.45934 0.24819-0.31486 0-0.49637-0.2593-0.49637-0.689z"/>
     <path d="m130.34 4.8137c0 0.6001 0.29264 0.94089 0.74456 0.94089 0.21115 0 0.40377-0.11854 0.54454-0.2556h0.0111l0.0259 0.21115h0.25189v-2.6375h-0.30746v0.6927l0.0148 0.30746c-0.15928-0.12965-0.29634-0.20744-0.50378-0.20744-0.41118 0-0.78161 0.36302-0.78161 0.9483zm0.31486-0.0037c0-0.41118 0.22967-0.689 0.51861-0.689 0.14817 0 0.28523 0.05186 0.4371 0.18892v0.94089c-0.14817 0.16669-0.29264 0.24819-0.45933 0.24819-0.31486 0-0.49638-0.2593-0.49638-0.689z"/>
     <path d="m132.37 5.7101h1.5262v-0.26301h-0.6853c-0.12224 0-0.26671 0.011113-0.39636 0.022226 0.55935-0.58528 0.96312-1.0261 0.96312-1.4706 0-0.41859-0.27041-0.69641-0.70752-0.69641-0.30746 0-0.5186 0.14447-0.71493 0.35932l0.1741 0.1741c0.13706-0.15928 0.30746-0.28523 0.50379-0.28523 0.30005 0 0.44822 0.19262 0.44822 0.46304 0 0.38154-0.40007 0.80754-1.1113 1.5151z"/>
    </g>
    <g fill="#e8eaec" stroke="#cf2f25" aria-label="F">
     <path d="m132.15 16.558h0.31117v-1.0891h0.92607v-0.2593h-0.92607v-0.82236h1.0928v-0.2593h-1.4039z" fill="#e8eaec" stroke="none"/>
    </g>
   </g>
   <path d="m152.41 8.3599c-1.4503 0-2.6178 1.1675-2.6178 2.6178 0 1.4503 1.1675 2.6178 2.6178 2.6178h11.113c1.4503 0 2.6178-1.1675 2.6178-2.6178 0-1.4503-1.1675-2.6178-2.6178-2.6178z" fill="#1d232d" stroke="#7893ea"/>
  </g>
 </g>
 <path d="m149.74 10.978h-14.983" fill="none" stroke="#6f8ce9" stroke-linecap="round" stroke-width=".26459"/>
 <g>
  <g transform="matrix(-.0044049 0 0 -.0044804 135.76 12.183)" fill="#6f8ce9" stroke-width="59.559">
   <g fill="#6f8ce9" stroke-width="59.559">
    <path d="m486.41 221.41-364.07-208.5c-52.938-30.318-95.852-5.44-95.852 55.563v415.65c0 61.004 42.914 85.882 95.852 55.563l364.07-208.49c52.938-30.317 52.938-79.473 0-109.79z" fill="#6f8ce9" stroke-width="59.559"/>
   </g>
  </g>
  <g stroke-linecap="round" stroke-width=".26459">
   <g fill="#e8eaec" aria-label="master">
    <path d="m152.94 12.107h0.30375v-1.3039c0.16669-0.18522 0.31857-0.27782 0.45193-0.27782 0.22966 0 0.33709 0.14447 0.33709 0.48156v1.1002h0.30375v-1.3039c0.16669-0.18522 0.31116-0.27782 0.45192-0.27782 0.22597 0 0.33339 0.14447 0.33339 0.48156v1.1002h0.30375v-1.1409c0-0.45933-0.1778-0.70382-0.54823-0.70382-0.21856 0-0.40377 0.14076-0.59269 0.3445-0.0741-0.21485-0.22226-0.3445-0.49638-0.3445-0.21485 0-0.40377 0.13336-0.55935 0.30375h-0.0111l-0.0259-0.2593h-0.25189z"/>
    <path d="m155.92 11.641c0 0.32227 0.22596 0.51119 0.52971 0.51119 0.22226 0 0.42229-0.11854 0.5964-0.2593h7e-3l0.0259 0.21485h0.2519v-1.1039c0-0.44822-0.18522-0.74086-0.62603-0.74086-0.28893 0-0.54083 0.12595-0.70752 0.23337l0.12224 0.21114c0.14076-0.09631 0.32598-0.19262 0.53712-0.19262 0.29264 0 0.37043 0.22226 0.37043 0.45192-0.76679 0.0852-1.1076 0.28153-1.1076 0.67418zm0.30005-0.02223c0-0.22967 0.20373-0.37784 0.80753-0.45192v0.50008c-0.1741 0.15558-0.31857 0.24078-0.49267 0.24078-0.1778 0-0.31486-0.0852-0.31486-0.28894z"/>
    <path d="m157.71 11.904c0.1704 0.14076 0.41488 0.24819 0.67048 0.24819 0.42599 0 0.65936-0.24448 0.65936-0.53712 0-0.3408-0.28893-0.44822-0.54823-0.54453-0.20374-0.07779-0.40007-0.14447-0.40007-0.31116 0-0.13706 0.10372-0.2593 0.32969-0.2593 0.15928 0 0.28893 0.06668 0.41117 0.15928l0.14447-0.19262c-0.13706-0.11113-0.33339-0.20374-0.55935-0.20374-0.38895 0-0.61862 0.22226-0.61862 0.51119 0 0.30375 0.28153 0.42599 0.53713 0.5186 0.19632 0.07409 0.41117 0.15558 0.41117 0.3408 0 0.15558-0.11853 0.28153-0.35561 0.28153-0.21485 0-0.37413-0.0889-0.52971-0.21485z"/>
    <path d="m159.51 11.552c0 0.35561 0.12965 0.6001 0.5149 0.6001 0.11113 0 0.23337-0.03334 0.33338-0.06668l-0.0593-0.22967c-0.0593 0.02223-0.14076 0.04816-0.20373 0.04816-0.20744 0-0.27782-0.12595-0.27782-0.3482v-1.0002h0.48526v-0.24819h-0.48526v-0.50379h-0.2556l-0.037 0.50378-0.28153 0.01852v0.22967h0.26671z"/>
    <path d="m160.54 11.211c0 0.58898 0.38154 0.94089 0.8631 0.94089 0.24448 0 0.43711-0.0852 0.59269-0.18522l-0.10743-0.20003c-0.13335 0.0852-0.27782 0.14076-0.44822 0.14076-0.3445 0-0.57787-0.24448-0.60009-0.63344h1.215c7e-3 -0.04445 0.0111-0.10372 0.0111-0.16669 0-0.5149-0.2593-0.84458-0.71864-0.84458-0.41117 0-0.80753 0.35932-0.80753 0.9483zm0.29634-0.13706c0.037-0.36302 0.26671-0.57046 0.5186-0.57046 0.28153 0 0.44452 0.20374 0.44452 0.57046z"/>
    <path d="m162.52 12.107h0.30375v-1.1557c0.12225-0.30375 0.30376-0.41488 0.45563-0.41488 0.0741 0 0.11484 0.01111 0.17411 0.02963l0.0593-0.26671c-0.0593-0.02593-0.11483-0.03704-0.19262-0.03704-0.20374 0-0.38895 0.14447-0.51119 0.37043h-0.0111l-0.0259-0.32598h-0.25198z"/>
   </g>
   <path d="m38.092 32.823-3.6948 2.1332-3.6948-2.1332v-4.2664l3.6948-2.1332 3.6948 2.1332z" fill="#1d232d" stroke="#6f8ce9"/>
   <g fill="#e8eaec" aria-label="BA">
    <path d="m36.898 36.403h0.7779c0.54083 0 0.91867-0.23337 0.91867-0.71123 0-0.33339-0.20744-0.52601-0.56305-0.58158v-0.01482c0.28894-0.07409 0.42599-0.28894 0.42599-0.52972 0-0.426-0.3445-0.59269-0.83717-0.59269h-0.72234zm0.31116-1.3928v-0.79272h0.37414c0.37413 0 0.57046 0.11113 0.57046 0.37413 0 0.27041-0.1741 0.41859-0.58528 0.41859zm0 1.1483v-0.91867h0.42229c0.426 0 0.65937 0.13706 0.65937 0.43711 0 0.32968-0.24448 0.48156-0.65937 0.48156z"/>
    <path d="m39.365 35.414 0.11854-0.37043c0.0852-0.27041 0.16299-0.53712 0.24078-0.81865h0.01482c0.07779 0.28153 0.15558 0.54824 0.24078 0.81865l0.11483 0.37043zm1.0409 0.98905h0.32598l-0.82236-2.43h-0.3482l-0.82236 2.43h0.31487l0.23337-0.74086h0.88533z"/>
   </g>
  </g>
 </g>
 <path d="m54.491 30.822h-14.983" fill="none" stroke="#7b8694" stroke-linecap="round" stroke-width=".26459"/>
 <g>
  <g transform="matrix(-.0044049 0 0 -.0044804 40.51 32.027)" fill="#7b8694" stroke-width="59.559">
   <g fill="#7b8694" stroke-width="59.559">
    <path d="m486.41 221.41-364.07-208.5c-52.938-30.318-95.852-5.44-95.852 55.563v415.65c0 61.004 42.914 85.882 95.852 55.563l364.07-208.49c52.938-30.317 52.938-79.473 0-109.79z" fill="#7b8694" stroke-width="59.559"/>
   </g>
  </g>
  <g stroke-width=".26459">
   <g stroke-linecap="round">
    <path d="m61.905 32.823-3.6948 2.1332-3.6948-2.1332v-4.2664l3.6948-2.1332 3.6948 2.1332z" fill="#1d232d" stroke="#6f8ce9"/>
    <g fill="#e8eaec" aria-label="#a8c">
     <path d="m55.166 25.555h0.20003l0.09261-0.75568h0.48897l-0.0889 0.75568h0.19633l0.09261-0.75568h0.3408v-0.21114h-0.31487l0.06668-0.54824h0.32227v-0.21485h-0.30005l0.0889-0.67789h-0.19633l-0.0889 0.67789h-0.49267l0.0852-0.67789h-0.19633l-0.0852 0.67789h-0.3408v0.21485h0.31487l-0.06668 0.54824h-0.32228v0.21114h0.29634zm0.31857-0.96682 0.06668-0.54824h0.48897l-0.06668 0.54824z"/>
     <path d="m56.885 25.088c0 0.32227 0.22596 0.51119 0.52972 0.51119 0.22226 0 0.42229-0.11854 0.59639-0.2593h0.0074l0.02593 0.21485h0.25189v-1.1039c0-0.44822-0.18522-0.74086-0.62603-0.74086-0.28894 0-0.54083 0.12595-0.70752 0.23337l0.12224 0.21114c0.14076-0.09631 0.32598-0.19262 0.53712-0.19262 0.29264 0 0.37043 0.22226 0.37043 0.45192-0.76679 0.0852-1.1076 0.28153-1.1076 0.67418zm0.30005-0.02223c0-0.22967 0.20374-0.37784 0.80754-0.45192v0.50008c-0.1741 0.15558-0.31857 0.24078-0.49267 0.24078-0.17781 0-0.31486-0.0852-0.31486-0.28894z"/>
     <path d="m58.992 24.921c0-0.21485 0.14076-0.38895 0.32968-0.5149 0.3408 0.13706 0.64084 0.24819 0.64084 0.55194 0 0.24448-0.18892 0.41488-0.46304 0.41488-0.28894 0-0.50749-0.18892-0.50749-0.45192zm0.66677-0.65566c-0.28523-0.11113-0.54453-0.22967-0.54453-0.51119 0-0.22967 0.16299-0.38154 0.38154-0.38154 0.2593 0 0.41118 0.18522 0.41118 0.41859 0 0.1741-0.0889 0.33339-0.24819 0.47415zm-0.94089 0.6853c0 0.37413 0.32968 0.64825 0.7742 0.64825 0.45933 0 0.76309-0.27782 0.76309-0.62973 0-0.31857-0.20003-0.48526-0.41118-0.6075v-0.01482c0.14447-0.11113 0.32598-0.32227 0.32598-0.57046 0-0.36673-0.2556-0.62973-0.66677-0.62973-0.38154 0-0.67048 0.24448-0.67048 0.6075 0 0.24819 0.15558 0.42229 0.32968 0.54453v0.01482c-0.22226 0.11854-0.44452 0.32968-0.44452 0.63714z"/>
     <path d="m60.574 24.658c0 0.59639 0.36672 0.94089 0.84458 0.94089 0.21485 0 0.42229-0.0889 0.58528-0.23337l-0.13706-0.20003c-0.10742 0.09631-0.25189 0.18151-0.42229 0.18151-0.32968 0-0.55564-0.27782-0.55564-0.689 0-0.41488 0.23708-0.69641 0.56305-0.69641 0.14447 0 0.2556 0.06668 0.36302 0.15928l0.15188-0.19633c-0.12224-0.11483-0.28894-0.21485-0.52601-0.21485-0.46304 0-0.86681 0.3445-0.86681 0.9483z"/>
    </g>
    <g fill="#e8eaec" aria-label="BB">
     <path d="m60.711 36.403h0.7779c0.54083 0 0.91867-0.23337 0.91867-0.71123 0-0.33339-0.20744-0.52601-0.56305-0.58158v-0.01482c0.28894-0.07409 0.42599-0.28894 0.42599-0.52972 0-0.426-0.3445-0.59269-0.83717-0.59269h-0.72234zm0.31116-1.3928v-0.79272h0.37413c0.37414 0 0.57046 0.11113 0.57046 0.37413 0 0.27041-0.1741 0.41859-0.58528 0.41859zm0 1.1483v-0.91867h0.42229c0.426 0 0.65937 0.13706 0.65937 0.43711 0 0.32968-0.24448 0.48156-0.65937 0.48156z"/>
     <path d="m62.875 36.403h0.7779c0.54083 0 0.91867-0.23337 0.91867-0.71123 0-0.33339-0.20744-0.52601-0.56305-0.58158v-0.01482c0.28894-0.07409 0.42599-0.28894 0.42599-0.52972 0-0.426-0.3445-0.59269-0.83717-0.59269h-0.72234zm0.31116-1.3928v-0.79272h0.37414c0.37413 0 0.57046 0.11113 0.57046 0.37413 0 0.27041-0.1741 0.41859-0.58528 0.41859zm0 1.1483v-0.91867h0.42229c0.42599 0 0.65936 0.13706 0.65936 0.43711 0 0.32968-0.24448 0.48156-0.65936 0.48156z"/>
    </g>
   </g>
   <path d="m80.965 28.204c-1.4502 0-2.6178 1.1675-2.6178 2.6178s1.1675 2.6178 2.6178 2.6178h5.821c1.4503 0 2.6178-1.1675 2.6178-2.6178s-1.1675-2.6178-2.6178-2.6178z" fill="#1d232d" stroke="#7893ea"/>
  </g>
 </g>
 <path d="m78.305 30.822h-14.983" fill="none" stroke="#6f8ce9" stroke-linecap="round" stroke-width=".26459"/>
 <g transform="matrix(-.0044049 0 0 -.0044804 64.323 32.027)" fill="#6f8ce9" stroke-width="59.559">
  <g fill="#6f8ce9" stroke-width="59.559">
   <path d="m486.41 221.41-364.07-208.5c-52.938-30.318-95.852-5.44-95.852 55.563v415.65c0 61.004 42.914 85.882 95.852 55.563l364.07-208.49c52.938-30.317 52.938-79.473 0-109.79z" fill="#6f8ce9" stroke-width="59.559"/>
  </g>
 </g>
 <g fill="#e8eaec" stroke-linecap="round" stroke-width=".26459" aria-label="dev">
  <path d="m81.11 31.055c0 0.6001 0.29264 0.94089 0.74456 0.94089 0.21114 0 0.40377-0.11854 0.54453-0.2556h0.01111l0.02593 0.21114h0.25189v-2.6375h-0.30746v0.6927l0.01482 0.30746c-0.15928-0.12965-0.29634-0.20744-0.50378-0.20744-0.41118 0-0.78161 0.36302-0.78161 0.9483zm0.31486-0.0037c0-0.41118 0.22967-0.689 0.5186-0.689 0.14817 0 0.28523 0.05186 0.43711 0.18892v0.94089c-0.14817 0.16669-0.29264 0.24819-0.45933 0.24819-0.31487 0-0.49638-0.2593-0.49638-0.689z"/>
  <path d="m83.161 31.055c0 0.58898 0.38154 0.94089 0.8631 0.94089 0.24448 0 0.43711-0.0852 0.59269-0.18522l-0.10742-0.20003c-0.13336 0.0852-0.27782 0.14076-0.44822 0.14076-0.3445 0-0.57787-0.24448-0.6001-0.63344h1.215c0.0074-0.04445 0.01111-0.10372 0.01111-0.16669 0-0.5149-0.2593-0.84458-0.71863-0.84458-0.41118 0-0.80754 0.35932-0.80754 0.9483zm0.29634-0.13706c0.03704-0.36302 0.26671-0.57046 0.5186-0.57046 0.28153 0 0.44452 0.20374 0.44452 0.57046z"/>
  <path d="m85.543 31.952h0.35561l0.63714-1.8003h-0.30005l-0.3408 1.0224c-0.05186 0.17781-0.11113 0.35932-0.16299 0.52972h-0.01482c-0.05557-0.1704-0.11483-0.35191-0.16669-0.52972l-0.3408-1.0224h-0.31487z"/>
 </g>
 <path d="m34.381 26.172v-9.6907" fill="none" stroke="#7b8694" stroke-linecap="round" stroke-width=".26459"/>
 <g transform="matrix(0 -.0044049 .0044804 0 33.177 17.483)" fill="#7b8694" stroke-width="59.559">
  <g fill="#7b8694" stroke-width="59.559">
   <path d="m486.41 221.41-364.07-208.5c-52.938-30.318-95.852-5.44-95.852 55.563v415.65c0 61.004 42.914 85.882 95.852 55.563l364.07-208.49c52.938-30.317 52.938-79.473 0-109.79z" fill="#7b8694" stroke-width="59.559"/>
  </g>
 </g>
 <g fill="#e8eaec" stroke-linecap="round" stroke-width=".26459" aria-label="#468">
  <path d="m31.353 25.555h0.20003l0.09261-0.75568h0.48897l-0.0889 0.75568h0.19633l0.09261-0.75568h0.3408v-0.21114h-0.31486l0.06668-0.54824h0.32227v-0.21485h-0.30005l0.0889-0.67789h-0.19633l-0.0889 0.67789h-0.49267l0.0852-0.67789h-0.19633l-0.0852 0.67789h-0.3408v0.21485h0.31486l-0.06668 0.54824h-0.32227v0.21114h0.29634zm0.31857-0.96682 0.06668-0.54824h0.48897l-0.06668 0.54824z"/>
  <path d="m33.242 24.658 0.55194-0.80754c0.06668-0.11483 0.13336-0.21855 0.19262-0.33339h0.01482c-0.0074 0.12595-0.01852 0.32968-0.01852 0.45563v0.6853zm1.3521 0h-0.32227v-1.4669h-0.3408l-1.0113 1.5114v0.20003h1.0631v0.65196h0.28894v-0.65196h0.32227z"/>
  <path d="m35.687 25.358c-0.30005 0-0.48156-0.24819-0.5186-0.70752 0.15928-0.22226 0.3445-0.31116 0.49267-0.31116 0.29264 0 0.43711 0.19262 0.43711 0.50008 0 0.31116-0.17781 0.5186-0.41118 0.5186zm0.65566-1.9596c-0.13336-0.14447-0.31487-0.25189-0.57046-0.25189-0.47045 0-0.90014 0.36673-0.90014 1.315 0 0.75938 0.35191 1.1372 0.81495 1.1372 0.38154 0 0.70011-0.30746 0.70011-0.75938 0-0.48526-0.26671-0.72975-0.67418-0.72975-0.19262 0-0.40377 0.11483-0.55194 0.29634 0.01482-0.74827 0.29264-1.0039 0.62232-1.0039 0.14817 0 0.29264 0.07038 0.38895 0.18522z"/>
  <path d="m36.958 24.921c0-0.21485 0.14076-0.38895 0.32968-0.5149 0.3408 0.13706 0.64084 0.24819 0.64084 0.55194 0 0.24448-0.18892 0.41488-0.46304 0.41488-0.28894 0-0.50749-0.18892-0.50749-0.45192zm0.66677-0.65566c-0.28523-0.11113-0.54453-0.22967-0.54453-0.51119 0-0.22967 0.16299-0.38154 0.38154-0.38154 0.2593 0 0.41118 0.18522 0.41118 0.41859 0 0.1741-0.0889 0.33339-0.24819 0.47415zm-0.94089 0.6853c0 0.37413 0.32968 0.64825 0.7742 0.64825 0.45933 0 0.76308-0.27782 0.76308-0.62973 0-0.31857-0.20003-0.48526-0.41118-0.6075v-0.01482c0.14447-0.11113 0.32598-0.32227 0.32598-0.57046 0-0.36673-0.2556-0.62973-0.66677-0.62973-0.38154 0-0.67048 0.24448-0.67048 0.6075 0 0.24819 0.15558 0.42229 0.32968 0.54453v0.01482c-0.22226 0.11854-0.44452 0.32968-0.44452 0.63714z"/>
 </g>
</svg>
