<?xml version="1.0" encoding="UTF-8"?>
<svg width="807.5" height="400" version="1.1" viewBox="0 0 213.66 105.83" xmlns="http://www.w3.org/2000/svg" xmlns:cc="http://creativecommons.org/ns#" xmlns:dc="http://purl.org/dc/elements/1.1/" xmlns:rdf="http://www.w3.org/1999/02/22-rdf-syntax-ns#">
 <metadata>
  <rdf:RDF>
   <cc:Work rdf:about="">
    <dc:format>image/svg+xml</dc:format>
    <dc:type rdf:resource="http://purl.org/dc/dcmitype/StillImage"/>
    <dc:title/>
   </cc:Work>
  </rdf:RDF>
 </metadata>
 <rect x="46.966" y="-.0038854" width="166.69" height="105.84" fill="#2f3744" fill-opacity=".50196"/>
 <g stroke-linecap="round" stroke-width=".26459">
  <path d="m0.1323 8.9923v10.584h22.491v-6.8795l-4.1343-3.7043z" fill="#2f3744" stroke="#7b8694"/>
  <g fill="#e8eaec" aria-label="untracked">
   <path d="m3.2481 14.921c0 0.45934 0.1704 0.70382 0.55194 0.70382 0.24819 0 0.426-0.12965 0.59269-0.32598h0.011113l0.02593 0.28153h0.25189v-1.8003h-0.30375v1.278c-0.1704 0.21115-0.30005 0.30375-0.48527 0.30375-0.23708 0-0.33709-0.14447-0.33709-0.48156v-1.1002h-0.30746z"/>
   <path d="m5.2926 15.581h0.30375v-1.3039c0.18151-0.18151 0.30746-0.27782 0.49267-0.27782 0.23708 0 0.3408 0.14447 0.3408 0.48156v1.1002h0.30375v-1.1409c0-0.45934-0.1704-0.70382-0.54824-0.70382-0.24819 0-0.43341 0.13336-0.6038 0.30376h-0.011113l-0.02593-0.2593h-0.25189z"/>
   <path d="m7.3702 15.025c0 0.35561 0.12965 0.6001 0.5149 0.6001 0.11113 0 0.23337-0.03334 0.33339-0.06668l-0.059269-0.22967c-0.059269 0.02223-0.14076 0.04816-0.20374 0.04816-0.20744 0-0.27782-0.12595-0.27782-0.34821v-1.0002h0.48527v-0.24819h-0.48527v-0.50379h-0.2556l-0.037043 0.50379-0.28153 0.01852v0.22967h0.26671z"/>
   <path d="m8.57 15.581h0.30375v-1.1557c0.12224-0.30375 0.30375-0.41488 0.45563-0.41488 0.074086 0 0.11483 0.01111 0.1741 0.02964l0.059269-0.26671c-0.059269-0.02593-0.11483-0.03704-0.19262-0.03704-0.20374 0-0.38895 0.14447-0.5112 0.37043h-0.011113l-0.02593-0.32598h-0.25189z"/>
   <path d="m9.6749 15.114c0 0.32228 0.22596 0.5112 0.52972 0.5112 0.22226 0 0.42229-0.11854 0.5964-0.2593h0.0074l0.02593 0.21485h0.25189v-1.1039c0-0.44822-0.18522-0.74086-0.62603-0.74086-0.28894 0-0.54083 0.12595-0.70753 0.23337l0.12224 0.21115c0.14076-0.09631 0.32598-0.19262 0.53713-0.19262 0.29264 0 0.37043 0.22226 0.37043 0.45193-0.76679 0.0852-1.1076 0.28153-1.1076 0.67419zm0.30005-0.02223c0-0.22967 0.20374-0.37784 0.80754-0.45193v0.50008c-0.1741 0.15558-0.31857 0.24078-0.49268 0.24078-0.17781 0-0.31487-0.0852-0.31487-0.28894z"/>
   <path d="m11.526 14.684c0 0.5964 0.36673 0.9409 0.84458 0.9409 0.21485 0 0.42229-0.0889 0.58528-0.23337l-0.13706-0.20003c-0.10742 0.09631-0.25189 0.18151-0.42229 0.18151-0.32968 0-0.55565-0.27782-0.55565-0.689 0-0.41488 0.23708-0.69641 0.56306-0.69641 0.14447 0 0.2556 0.06668 0.36302 0.15929l0.15188-0.19633c-0.12224-0.11483-0.28894-0.21485-0.52601-0.21485-0.46304 0-0.86681 0.3445-0.86681 0.94831z"/>
   <path d="m13.345 15.581h0.30005v-0.47415l0.33709-0.39266 0.52601 0.86681h0.33339l-0.6853-1.078 0.6038-0.72234h-0.33709l-0.7668 0.94831h-0.01111v-1.7855h-0.30005z"/>
   <path d="m14.977 14.684c0 0.58899 0.38154 0.9409 0.86311 0.9409 0.24448 0 0.43711-0.0852 0.59269-0.18522l-0.10742-0.20003c-0.13336 0.0852-0.27782 0.14076-0.44822 0.14076-0.3445 0-0.57787-0.24448-0.6001-0.63344h1.215c0.0074-0.04445 0.01111-0.10372 0.01111-0.1667 0-0.5149-0.2593-0.84458-0.71864-0.84458-0.41118 0-0.80754 0.35932-0.80754 0.94831zm0.29634-0.13706c0.03704-0.36302 0.26671-0.57046 0.5186-0.57046 0.28153 0 0.44452 0.20374 0.44452 0.57046z"/>
   <path d="m16.818 14.684c0 0.6001 0.29264 0.9409 0.74457 0.9409 0.21115 0 0.40377-0.11854 0.54454-0.2556h0.01111l0.02593 0.21115h0.25189v-2.6375h-0.30746v0.69271l0.01482 0.30746c-0.15928-0.12965-0.29634-0.20744-0.50379-0.20744-0.41118 0-0.78161 0.36302-0.78161 0.94831zm0.31487-0.0037c0-0.41118 0.22967-0.689 0.5186-0.689 0.14817 0 0.28523 0.05186 0.43711 0.18892v0.9409c-0.14817 0.16669-0.29264 0.24819-0.45934 0.24819-0.31487 0-0.49638-0.2593-0.49638-0.689z"/>
  </g>
  <path d="m60.989 8.9923v10.584h22.491v-6.8795l-4.1343-3.7043z" fill="#2f3744" stroke="#7b8694"/>
  <g fill="#e8eaec" aria-label="staged">
   <path d="m66.622 14.984c0.1704 0.14076 0.41488 0.24819 0.67048 0.24819 0.426 0 0.65937-0.24448 0.65937-0.53713 0-0.3408-0.28894-0.44822-0.54824-0.54454-0.20374-0.07779-0.40007-0.14447-0.40007-0.31116 0-0.13706 0.10372-0.2593 0.32968-0.2593 0.15929 0 0.28894 0.06668 0.41118 0.15928l0.14447-0.19262c-0.13706-0.11113-0.33339-0.20374-0.55935-0.20374-0.38895 0-0.61862 0.22226-0.61862 0.5112 0 0.30375 0.28153 0.426 0.53713 0.5186 0.19633 0.07409 0.41118 0.15558 0.41118 0.3408 0 0.15558-0.11854 0.28153-0.35561 0.28153-0.21485 0-0.37414-0.0889-0.52972-0.21485z"/>
   <path d="m68.43 14.632c0 0.35562 0.12965 0.6001 0.5149 0.6001 0.11113 0 0.23337-0.03334 0.33339-0.06668l-0.05927-0.22967c-0.05927 0.02223-0.14076 0.04816-0.20374 0.04816-0.20744 0-0.27782-0.12595-0.27782-0.34821v-1.0002h0.48527v-0.24819h-0.48527v-0.50379h-0.2556l-0.03704 0.50379-0.28153 0.01852v0.22967h0.26671z"/>
   <path d="m69.475 14.721c0 0.32228 0.22596 0.5112 0.52972 0.5112 0.22226 0 0.42229-0.11854 0.5964-0.2593h0.0074l0.02593 0.21485h0.25189v-1.1039c0-0.44822-0.18522-0.74086-0.62603-0.74086-0.28894 0-0.54083 0.12595-0.70752 0.23337l0.12224 0.21115c0.14076-0.09631 0.32598-0.19262 0.53713-0.19262 0.29264 0 0.37043 0.22226 0.37043 0.45193-0.76679 0.0852-1.1076 0.28153-1.1076 0.67419zm0.30005-0.02223c0-0.22967 0.20374-0.37784 0.80754-0.45193v0.50008c-0.1741 0.15558-0.31857 0.24078-0.49268 0.24078-0.17781 0-0.31487-0.0852-0.31487-0.28894z"/>
   <path d="m71.589 15.492c0-0.10372 0.05557-0.21115 0.18522-0.30376 0.07779 0.02223 0.16299 0.02964 0.23337 0.02964h0.31116c0.23337 0 0.36302 0.05556 0.36302 0.22226 0 0.18892-0.22596 0.36673-0.57046 0.36673-0.32598 0-0.52231-0.12224-0.52231-0.31487zm-0.26671 0.04075c0 0.31116 0.30375 0.48527 0.74457 0.48527 0.55935 0 0.91126-0.28894 0.91126-0.62233 0-0.30005-0.21115-0.4297-0.62974-0.4297h-0.34821c-0.24448 0-0.31857-0.0815-0.31857-0.19633 0-0.10002 0.05186-0.15929 0.11483-0.21485 0.08149 0.04075 0.18151 0.06297 0.27042 0.06297 0.36673 0 0.65937-0.24078 0.65937-0.62603 0-0.15188-0.06297-0.28894-0.14817-0.37043h0.37043v-0.23337h-0.62603c-0.06668-0.02593-0.15558-0.04445-0.2556-0.04445-0.36673 0-0.67789 0.24819-0.67789 0.64085 0 0.21485 0.11483 0.38895 0.23337 0.48527v0.01482c-0.09261 0.06297-0.19633 0.18151-0.19633 0.33339 0 0.14076 0.07038 0.23708 0.15929 0.29264v0.01482c-0.16299 0.11113-0.26301 0.2556-0.26301 0.40748zm0.74457-1.1187c-0.20744 0-0.38154-0.1667-0.38154-0.4297 0-0.26301 0.1704-0.41859 0.38154-0.41859s0.38154 0.15558 0.38154 0.41859c0 0.26301-0.1741 0.4297-0.38154 0.4297z"/>
   <path d="m73.142 14.292c0 0.58899 0.38154 0.9409 0.86311 0.9409 0.24448 0 0.43711-0.0852 0.59269-0.18522l-0.10742-0.20003c-0.13336 0.0852-0.27782 0.14076-0.44822 0.14076-0.3445 0-0.57787-0.24448-0.6001-0.63344h1.215c0.0074-0.04445 0.01111-0.10372 0.01111-0.16669 0-0.5149-0.2593-0.84458-0.71864-0.84458-0.41118 0-0.80754 0.35932-0.80754 0.94831zm0.29635-0.13706c0.03704-0.36302 0.26671-0.57046 0.5186-0.57046 0.28153 0 0.44452 0.20374 0.44452 0.57046z"/>
   <path d="m74.984 14.292c0 0.6001 0.29264 0.9409 0.74457 0.9409 0.21115 0 0.40377-0.11854 0.54454-0.2556h0.01111l0.02593 0.21115h0.25189v-2.6375h-0.30745v0.69271l0.01482 0.30746c-0.15929-0.12965-0.29634-0.20744-0.50379-0.20744-0.41118 0-0.78161 0.36302-0.78161 0.94831zm0.31487-0.0037c0-0.41118 0.22967-0.689 0.5186-0.689 0.14817 0 0.28523 0.05186 0.43711 0.18892v0.9409c-0.14817 0.16669-0.29264 0.24819-0.45934 0.24819-0.31487 0-0.49638-0.2593-0.49638-0.689z"/>
  </g>
  <path d="m121.85 8.9923v10.584h22.491v-6.8795l-4.1343-3.7043z" fill="#2f3744" stroke="#7b8694"/>
  <g fill="#e8eaec" aria-label="committed">
   <path d="m124.21 14.684c0 0.5964 0.36673 0.9409 0.84459 0.9409 0.21485 0 0.42229-0.0889 0.58528-0.23337l-0.13706-0.20003c-0.10743 0.09631-0.25189 0.18151-0.42229 0.18151-0.32969 0-0.55565-0.27782-0.55565-0.689 0-0.41488 0.23708-0.69641 0.56306-0.69641 0.14446 0 0.25559 0.06668 0.36302 0.15929l0.15188-0.19633c-0.12225-0.11483-0.28894-0.21485-0.52602-0.21485-0.46304 0-0.86681 0.3445-0.86681 0.94831z"/>
   <path d="m125.81 14.684c0 0.5964 0.39266 0.9409 0.83347 0.9409 0.44082 0 0.83348-0.3445 0.83348-0.9409 0-0.6038-0.39266-0.94831-0.83348-0.94831-0.44081 0-0.83347 0.3445-0.83347 0.94831zm0.31487 0c0-0.41488 0.21115-0.69641 0.5186-0.69641 0.31117 0 0.51861 0.28153 0.51861 0.69641 0 0.41118-0.20744 0.689-0.51861 0.689-0.30745 0-0.5186-0.27782-0.5186-0.689z"/>
   <path d="m127.96 15.581h0.30375v-1.3039c0.1667-0.18522 0.31857-0.27782 0.45193-0.27782 0.22967 0 0.33709 0.14447 0.33709 0.48156v1.1002h0.30376v-1.3039c0.16669-0.18522 0.31116-0.27782 0.45192-0.27782 0.22597 0 0.33339 0.14447 0.33339 0.48156v1.1002h0.30376v-1.1409c0-0.45934-0.17781-0.70382-0.54824-0.70382-0.21856 0-0.40377 0.14076-0.59269 0.3445-0.0741-0.21485-0.22226-0.3445-0.49638-0.3445-0.21485 0-0.40377 0.13336-0.55936 0.30376h-0.0111l-0.0259-0.2593h-0.25189z"/>
   <path d="m131.03 15.581h0.30375v-1.3039c0.1667-0.18522 0.31857-0.27782 0.45193-0.27782 0.22967 0 0.33709 0.14447 0.33709 0.48156v1.1002h0.30376v-1.3039c0.16669-0.18522 0.31116-0.27782 0.45192-0.27782 0.22597 0 0.33339 0.14447 0.33339 0.48156v1.1002h0.30376v-1.1409c0-0.45934-0.17781-0.70382-0.54824-0.70382-0.21856 0-0.40377 0.14076-0.59269 0.3445-0.0741-0.21485-0.22226-0.3445-0.49638-0.3445-0.21485 0-0.40377 0.13336-0.55936 0.30376h-0.0111l-0.0259-0.2593h-0.25189z"/>
   <path d="m134.25 13.41c0.11854 0 0.21115-0.0815 0.21115-0.19633 0-0.11854-0.0926-0.19633-0.21115-0.19633-0.11854 0-0.21115 0.07779-0.21115 0.19633 0 0.11483 0.0926 0.19633 0.21115 0.19633zm-0.15558 2.1707h0.30375v-1.8003h-0.30375z"/>
   <path d="m135.06 15.025c0 0.35561 0.12965 0.6001 0.5149 0.6001 0.11113 0 0.23337-0.03334 0.33339-0.06668l-0.0593-0.22967c-0.0593 0.02223-0.14077 0.04816-0.20374 0.04816-0.20744 0-0.27782-0.12595-0.27782-0.34821v-1.0002h0.48526v-0.24819h-0.48523v-0.50379h-0.2556l-0.037 0.50379-0.28153 0.01852v0.22967h0.26671z"/>
   <path d="m136.31 15.025c0 0.35561 0.12965 0.6001 0.5149 0.6001 0.11113 0 0.23338-0.03334 0.33339-0.06668l-0.0593-0.22967c-0.0593 0.02223-0.14076 0.04816-0.20373 0.04816-0.20745 0-0.27783-0.12595-0.27783-0.34821v-1.0002h0.48527v-0.24819h-0.48527v-0.50379h-0.2556l-0.037 0.50379-0.28153 0.01852v0.22967h0.26671z"/>
   <path d="m137.34 14.684c0 0.58899 0.38154 0.9409 0.8631 0.9409 0.24449 0 0.43711-0.0852 0.5927-0.18522l-0.10743-0.20003c-0.13336 0.0852-0.27782 0.14076-0.44822 0.14076-0.3445 0-0.57788-0.24448-0.6001-0.63344h1.215c7e-3 -0.04445 0.0111-0.10372 0.0111-0.1667 0-0.5149-0.25931-0.84458-0.71864-0.84458-0.41118 0-0.80754 0.35932-0.80754 0.94831zm0.29634-0.13706c0.037-0.36302 0.26671-0.57046 0.51861-0.57046 0.28153 0 0.44452 0.20374 0.44452 0.57046z"/>
   <path d="m139.18 14.684c0 0.6001 0.29264 0.9409 0.74457 0.9409 0.21115 0 0.40377-0.11854 0.54454-0.2556h0.0111l0.0259 0.21115h0.25189v-2.6375h-0.30746v0.69271l0.0148 0.30746c-0.15928-0.12965-0.29634-0.20744-0.50379-0.20744-0.41118 0-0.78161 0.36302-0.78161 0.94831zm0.31487-0.0037c0-0.41118 0.22967-0.689 0.5186-0.689 0.14818 0 0.28524 0.05186 0.43711 0.18892v0.9409c-0.14817 0.16669-0.29264 0.24819-0.45933 0.24819-0.31487 0-0.49638-0.2593-0.49638-0.689z"/>
  </g>
  <path d="m182.7 8.9923v10.584h22.491v-6.8795l-4.1343-3.7043z" fill="#2f3744" stroke="#7b8694"/>
  <g fill="#e8eaec" aria-label="modified">
   <path d="m186.74 15.603h0.30375v-1.3039c0.1667-0.18522 0.31858-0.27782 0.45193-0.27782 0.22967 0 0.33709 0.14447 0.33709 0.48156v1.1002h0.30376v-1.3039c0.16669-0.18522 0.31116-0.27782 0.45193-0.27782 0.22596 0 0.33338 0.14447 0.33338 0.48156v1.1002h0.30376v-1.1409c0-0.45934-0.17781-0.70382-0.54824-0.70382-0.21856 0-0.40377 0.14076-0.59269 0.3445-0.0741-0.21485-0.22226-0.3445-0.49638-0.3445-0.21485 0-0.40377 0.13336-0.55935 0.30375h-0.0111l-0.0259-0.2593h-0.25189z"/>
   <path d="m189.68 14.707c0 0.5964 0.39266 0.9409 0.83348 0.9409 0.44081 0 0.83347-0.3445 0.83347-0.9409 0-0.6038-0.39266-0.94831-0.83347-0.94831-0.44082 0-0.83348 0.3445-0.83348 0.94831zm0.31487 0c0-0.41488 0.21115-0.69641 0.51861-0.69641 0.31116 0 0.5186 0.28153 0.5186 0.69641 0 0.41118-0.20744 0.689-0.5186 0.689-0.30746 0-0.51861-0.27782-0.51861-0.689z"/>
   <path d="m191.69 14.707c0 0.6001 0.29264 0.9409 0.74457 0.9409 0.21114 0 0.40377-0.11854 0.54453-0.2556h0.0111l0.0259 0.21115h0.25189v-2.6375h-0.30746v0.69271l0.0148 0.30746c-0.15929-0.12965-0.29635-0.20744-0.50379-0.20744-0.41118 0-0.78161 0.36302-0.78161 0.94831zm0.31487-0.0037c0-0.41118 0.22966-0.689 0.5186-0.689 0.14817 0 0.28523 0.05186 0.43711 0.18892v0.9409c-0.14817 0.1667-0.29264 0.24819-0.45933 0.24819-0.31487 0-0.49638-0.2593-0.49638-0.689z"/>
   <path d="m194.03 13.432c0.11854 0 0.21115-0.0815 0.21115-0.19633 0-0.11854-0.0926-0.19633-0.21115-0.19633-0.11854 0-0.21114 0.07779-0.21114 0.19633 0 0.11483 0.0926 0.19633 0.21114 0.19633zm-0.15558 2.1707h0.30375v-1.8003h-0.30375z"/>
   <path d="m195.66 12.98c-0.0815-0.03334-0.18892-0.05927-0.30005-0.05927-0.35932 0-0.52601 0.22967-0.52601 0.5964v0.28523l-0.24448 0.01852v0.22967h0.24448v1.5521h0.30375v-1.5521h0.38155v-0.24819h-0.38155v-0.28523c0-0.22967 0.0815-0.34821 0.2519-0.34821 0.0667 0 0.13706 0.01482 0.20374 0.04445z"/>
   <path d="m196.03 13.432c0.11854 0 0.21115-0.0815 0.21115-0.19633 0-0.11854-0.0926-0.19633-0.21115-0.19633-0.11854 0-0.21115 0.07779-0.21115 0.19633 0 0.11483 0.0926 0.19633 0.21115 0.19633zm-0.15558 2.1707h0.30375v-1.8003h-0.30375z"/>
   <path d="m196.65 14.707c0 0.58899 0.38155 0.9409 0.86311 0.9409 0.24449 0 0.43711-0.0852 0.59269-0.18522l-0.10742-0.20003c-0.13336 0.0852-0.27783 0.14076-0.44823 0.14076-0.3445 0-0.57787-0.24448-0.6001-0.63344h1.215c7e-3 -0.04445 0.0111-0.10372 0.0111-0.16669 0-0.5149-0.2593-0.84458-0.71863-0.84458-0.41118 0-0.80755 0.35932-0.80755 0.94831zm0.29635-0.13706c0.037-0.36302 0.26671-0.57047 0.51861-0.57047 0.28152 0 0.44451 0.20374 0.44451 0.57047z"/>
   <path d="m198.49 14.707c0 0.6001 0.29264 0.9409 0.74457 0.9409 0.21114 0 0.40377-0.11854 0.54453-0.2556h0.0111l0.0259 0.21115h0.25189v-2.6375h-0.30746v0.69271l0.0148 0.30746c-0.15929-0.12965-0.29635-0.20744-0.50379-0.20744-0.41118 0-0.78161 0.36302-0.78161 0.94831zm0.31487-0.0037c0-0.41118 0.22966-0.689 0.5186-0.689 0.14817 0 0.28523 0.05186 0.43711 0.18892v0.9409c-0.14817 0.1667-0.29264 0.24819-0.45934 0.24819-0.31486 0-0.49637-0.2593-0.49637-0.689z"/>
  </g>
 </g>
 <g fill="#fff" stroke="#7b8694" stroke-dasharray="0.529189, 0.529189" stroke-width=".26459">
  <path d="m11.245 19.714v82.818" style="paint-order:normal"/>
  <path d="m72.102 19.714v82.818" style="paint-order:normal"/>
  <path d="m132.96 19.714v82.818" style="paint-order:normal"/>
  <path d="m193.82 19.714v82.818" style="paint-order:normal"/>
 </g>
 <g transform="matrix(.004405 0 0 -.0044804 69.959 32.556)" fill="#6f8ce9" stroke-width="59.559">
  <g fill="#6f8ce9" stroke-width="59.559">
   <path d="m486.41 221.41-364.07-208.5c-52.938-30.318-95.852-5.44-95.852 55.563v415.65c0 61.004 42.914 85.882 95.852 55.563l364.07-208.49c52.938-30.317 52.938-79.473 0-109.79z" fill="#6f8ce9" stroke-width="59.559"/>
  </g>
 </g>
 <path d="m10.948 31.351h59.435" fill="none" stroke="#6f8ce9" stroke-linecap="round" stroke-width=".26459"/>
 <rect transform="matrix(.70711 .70711 .70711 -.70711 0 0)" x="29.558" y="-14.778" width="1.1134" height="1.1134" fill="#6f8ce9"/>
 <path d="m71.293 39.289h-59.435" fill="none" stroke="#6f8ce9" stroke-linecap="round" stroke-width=".26459"/>
 <g>
  <rect transform="matrix(.70711 .70711 .70711 -.70711 0 0)" x="78.203" y="22.641" width="1.1134" height="1.1134" fill="#6f8ce9"/>
  <g fill="#e8eaec" stroke-linecap="round" stroke-width=".26459" aria-label="git add">
   <path d="m33.782 29.1c0-0.20374 0.1704-0.37043 0.37414-0.37043 0.20744 0 0.37414 0.16669 0.37414 0.37043 0 0.20374-0.1667 0.37043-0.37414 0.37043s-0.37414-0.1667-0.37414-0.37043zm0.38895-0.58158c-0.33709 0-0.62974 0.26671-0.62974 0.5964 0 0.18522 0.09261 0.35932 0.24819 0.45934-0.12224 0.10372-0.19262 0.21855-0.19262 0.32598 0 0.07038 0.02963 0.1704 0.13706 0.22596-0.18151 0.11483-0.27412 0.24078-0.27412 0.37414 0 0.18522 0.1704 0.40377 0.76309 0.40377 0.57417 0 0.78161-0.29264 0.78161-0.5186 0-0.14817-0.0852-0.29635-0.26301-0.36673-0.17781-0.07409-0.38154-0.04816-0.57417-0.04816-0.12595 0-0.20744-0.01111-0.24078-0.02223-0.06668-0.01852-0.10372-0.05927-0.10372-0.11113 0-0.0889 0.10372-0.1741 0.12224-0.18892 0.06668 0.02593 0.14076 0.03704 0.21485 0.03704 0.33339 0 0.60751-0.26671 0.60751-0.57787 0-0.10372-0.02963-0.20374-0.0852-0.28894 0.0889-0.05186 0.19262-0.08149 0.29634-0.08149 0.03334 0 0.06297 0.0037 0.09631 0.01111l-0.02963-0.21856c-0.1704-0.01482-0.3408 0.04075-0.47045 0.14817-0.10743-0.10371-0.24819-0.15928-0.40377-0.15928zm-0.2556 1.6558c0.06297 0.0074 0.15188 0.01482 0.28153 0.02223 0.12595 0.0037 0.26301-0.0074 0.35932 0.0074 0.15558 0.02593 0.20374 0.12224 0.20374 0.19633 0 0.07409-0.04445 0.16299-0.15928 0.22596-0.12595 0.06668-0.26671 0.07409-0.38154 0.07409-0.07779 0-0.22226-0.0037-0.34821-0.05556-0.13706-0.05557-0.1667-0.14817-0.1667-0.20744 0-0.12224 0.11483-0.21115 0.21115-0.26301z"/>
   <path d="m35.564 28.57v0.21856h0.40748v1.2632h-0.4297v0.21115h1.0965v-0.21115h-0.39636v-1.4817zm0.54824-0.73346c-0.10742 0-0.19262 0.0852-0.19262 0.18892 0 0.10372 0.0852 0.18892 0.19262 0.18892 0.10742 0 0.19262-0.0852 0.19262-0.18892 0-0.10372-0.0852-0.18892-0.19262-0.18892z"/>
   <path d="m37.72 28.118-0.03334 0.45563h-0.40377l-0.0037 0.21856h0.39636c-0.02223 0.28894-0.03334 0.57787-0.03334 0.86311 0 0.15188 0 0.32228 0.10002 0.46304 0.0815 0.11113 0.21115 0.17781 0.38525 0.17781 0.20003 0 0.39636-0.0852 0.54083-0.18892l-0.08149-0.21115c-0.14447 0.10743-0.27782 0.15558-0.38154 0.15558-0.12595 0-0.2556-0.07038-0.28523-0.27412 0-0.01482-0.01111-0.07779-0.01111-0.32598 0-0.21856 0.01111-0.44081 0.03334-0.65937h0.55565v-0.22226h-0.55194s0.02593-0.30375 0.04445-0.40007c0.0037-0.03704 0.03334-0.05927 0.01852-0.10002z"/>
   <path d="m41.061 28.77 0.12965 0.1704c0.14076-0.14447 0.32968-0.18892 0.48897-0.18892 0.20003 0 0.30005 0.0852 0.34821 0.16299 0.05556 0.09261 0.05186 0.20374 0.05186 0.29264v0.05927h-0.05186c-0.25189 0-0.5186 0-0.73346 0.07779-0.26671 0.09631-0.38525 0.29634-0.38525 0.48156 0 0.24819 0.21485 0.48156 0.56676 0.48156 0.20744 0 0.42229-0.07779 0.60751-0.22967v0.18522h0.25189v-1.0483c0-0.13706-0.0037-0.26671-0.08149-0.40007-0.11113-0.18151-0.32598-0.27782-0.58899-0.27782-0.22596 0-0.44452 0.07038-0.6038 0.23337zm1.0298 0.70012v0.11483c0 0.0852 0 0.19633-0.11483 0.31857-0.06297 0.06297-0.22226 0.20003-0.44452 0.20003-0.22596 0-0.35561-0.14447-0.35561-0.29264 0-0.12595 0.0852-0.26301 0.29634-0.31487 0.15558-0.03704 0.38154-0.02593 0.55935-0.02593z"/>
   <path d="m43.954 28.819c-0.0815-0.1741-0.26301-0.28894-0.49638-0.28894-0.32228 0-0.71493 0.22967-0.71493 0.87422 0 0.62603 0.34821 0.90015 0.67419 0.90015 0.21485 0 0.41488-0.12224 0.52231-0.31116v0.14817c0 0.04075 0.0037 0.08149 0.01482 0.12224h0.26671c-0.01482-0.04816-0.01482-0.10372-0.01482-0.15558l-0.0037-2.2004c0-0.02223 0-0.02964 0.01482-0.05186 0.0074-0.01111 0.02223-0.02963 0.01852-0.05556h-0.28153zm-0.48527-0.07038c0.14817 0 0.36673 0.07779 0.43341 0.32968 0.02223 0.07779 0.02963 0.1704 0.02963 0.35932 0 0.12965-0.0074 0.22226-0.03704 0.31116-0.06297 0.20003-0.24078 0.31857-0.41488 0.31857-0.19262 0-0.47786-0.14817-0.47786-0.70382 0-0.48527 0.27042-0.61492 0.46674-0.61492z"/>
   <path d="m45.807 28.819c-0.08149-0.1741-0.26301-0.28894-0.49638-0.28894-0.32228 0-0.71493 0.22967-0.71493 0.87422 0 0.62603 0.34821 0.90015 0.67419 0.90015 0.21485 0 0.41488-0.12224 0.52231-0.31116v0.14817c0 0.04075 0.0037 0.08149 0.01482 0.12224h0.26671c-0.01482-0.04816-0.01482-0.10372-0.01482-0.15558l-0.0037-2.2004c0-0.02223 0-0.02964 0.01482-0.05186 0.0074-0.01111 0.02223-0.02963 0.01852-0.05556h-0.28153zm-0.48526-0.07038c0.14817 0 0.36673 0.07779 0.4334 0.32968 0.02223 0.07779 0.02963 0.1704 0.02963 0.35932 0 0.12965-0.0074 0.22226-0.03704 0.31116-0.06297 0.20003-0.24078 0.31857-0.41488 0.31857-0.19262 0-0.47786-0.14817-0.47786-0.70382 0-0.48527 0.27042-0.61492 0.46674-0.61492z"/>
  </g>
  <g fill="#e8eaec" stroke-linecap="round" stroke-width=".26459" aria-label="git reset">
   <path d="m31.936 37.038c0-0.20374 0.1704-0.37043 0.37414-0.37043 0.20744 0 0.37414 0.1667 0.37414 0.37043 0 0.20374-0.1667 0.37043-0.37414 0.37043s-0.37414-0.16669-0.37414-0.37043zm0.38895-0.58158c-0.33709 0-0.62974 0.26671-0.62974 0.5964 0 0.18522 0.09261 0.35932 0.24819 0.45934-0.12224 0.10372-0.19262 0.21856-0.19262 0.32598 0 0.07038 0.02964 0.1704 0.13706 0.22596-0.18151 0.11483-0.27412 0.24078-0.27412 0.37414 0 0.18522 0.1704 0.40377 0.76309 0.40377 0.57417 0 0.78161-0.29264 0.78161-0.5186 0-0.14817-0.0852-0.29634-0.26301-0.36673-0.17781-0.07409-0.38154-0.04816-0.57417-0.04816-0.12595 0-0.20744-0.01111-0.24078-0.02223-0.06668-0.01852-0.10372-0.05927-0.10372-0.11113 0-0.0889 0.10372-0.1741 0.12224-0.18892 0.06668 0.02593 0.14076 0.03704 0.21485 0.03704 0.33339 0 0.60751-0.26671 0.60751-0.57787 0-0.10372-0.02963-0.20374-0.0852-0.28894 0.0889-0.05186 0.19262-0.08149 0.29634-0.08149 0.03334 0 0.06297 0.0037 0.09631 0.01111l-0.02963-0.21856c-0.1704-0.01482-0.3408 0.04075-0.47045 0.14817-0.10743-0.10372-0.24819-0.15929-0.40377-0.15929zm-0.2556 1.6558c0.06297 0.0074 0.15188 0.01482 0.28153 0.02223 0.12595 0.0037 0.26301-0.0074 0.35932 0.0074 0.15558 0.02593 0.20374 0.12224 0.20374 0.19633 0 0.07409-0.04445 0.16299-0.15929 0.22596-0.12595 0.06668-0.26671 0.07409-0.38154 0.07409-0.07779 0-0.22226-0.0037-0.34821-0.05557-0.13706-0.05557-0.1667-0.14817-0.1667-0.20744 0-0.12224 0.11483-0.21115 0.21115-0.26301z"/>
   <path d="m33.718 36.508v0.21856h0.40748v1.2632h-0.4297v0.21115h1.0965v-0.21115h-0.39636v-1.4817zm0.54824-0.73346c-0.10742 0-0.19262 0.0852-0.19262 0.18892s0.0852 0.18892 0.19262 0.18892c0.10743 0 0.19262-0.0852 0.19262-0.18892 0-0.10372-0.0852-0.18892-0.19262-0.18892z"/>
   <path d="m35.874 36.056-0.03334 0.45563h-0.40377l-0.0037 0.21856h0.39636c-0.02223 0.28894-0.03334 0.57787-0.03334 0.86311 0 0.15188 0 0.32228 0.10002 0.46304 0.0815 0.11113 0.21115 0.17781 0.38525 0.17781 0.20003 0 0.39636-0.0852 0.54083-0.18892l-0.08149-0.21115c-0.14447 0.10742-0.27782 0.15558-0.38154 0.15558-0.12595 0-0.2556-0.07038-0.28523-0.27412 0-0.01482-0.01111-0.07779-0.01111-0.32598 0-0.21856 0.01111-0.44081 0.03334-0.65937h0.55565v-0.22226h-0.55194s0.02593-0.30376 0.04445-0.40007c0.0037-0.03704 0.03334-0.05927 0.01852-0.10002z"/>
   <path d="m39.248 36.512v1.6929h0.26671v-0.82236c0-0.10372 0.0037-0.21485 0.11854-0.39636 0.15558-0.24448 0.35562-0.28523 0.47786-0.28523 0.14076 0 0.22967 0.06668 0.27782 0.12595 0.02223 0.02963 0.03334 0.05927 0.06297 0.0852l0.12595-0.2556c-0.10743-0.11113-0.26301-0.18522-0.45193-0.18522-0.24819 0-0.50008 0.12595-0.61121 0.36673l0.01111-0.32598z"/>
   <path d="m41.69 36.471c-0.40377 0-0.77791 0.28894-0.77791 0.90386 0 0.56676 0.35191 0.86681 0.81125 0.86681 0.24448 0 0.46304-0.0889 0.60751-0.26301l-0.14817-0.14447c-0.10743 0.12595-0.27042 0.19262-0.43711 0.19262-0.22596 0-0.55565-0.12595-0.57417-0.63344h1.2002c0.01111-0.11483 0.0074-0.22596-0.01111-0.32228-0.07779-0.45563-0.39266-0.6001-0.67048-0.6001zm-0.5112 0.71864c0.05557-0.40007 0.31116-0.5149 0.49267-0.5149 0.27412 0 0.47045 0.24078 0.43711 0.5149z"/>
   <path d="m44.186 36.734c-0.15558-0.1704-0.38154-0.26301-0.63344-0.26301-0.39266 0-0.64826 0.21856-0.64826 0.47045 0 0.29635 0.31857 0.40377 0.41118 0.43711 0.14447 0.05186 0.32968 0.09631 0.45563 0.15558 0.14076 0.06668 0.1667 0.15558 0.1667 0.21485 0 0.15929-0.19262 0.26671-0.43341 0.26671-0.28894 0-0.47415-0.1741-0.52972-0.23337-0.01111-0.01482-0.01111-0.02593-0.01111-0.04075 0-0.0037 0.0037-0.02593-0.01482-0.03334l-0.15558 0.26301c0.20003 0.18522 0.45934 0.27042 0.71493 0.27042 0.46304 0 0.70382-0.27412 0.70382-0.52972 0-0.11483-0.04816-0.27042-0.24819-0.38154-0.18892-0.10743-0.46304-0.14447-0.62233-0.22226-0.13706-0.06668-0.16669-0.14817-0.16669-0.20744 0-0.13336 0.16669-0.22967 0.35562-0.22967 0.24448 0 0.40748 0.14817 0.47045 0.23337 0.01111 0.01111 0.0074 0.02223 0.0074 0.03334 0 0.02223 0.01482 0.02963 0.02223 0.02963z"/>
   <path d="m45.394 36.471c-0.40377 0-0.77791 0.28894-0.77791 0.90386 0 0.56676 0.35191 0.86681 0.81125 0.86681 0.24448 0 0.46304-0.0889 0.60751-0.26301l-0.14817-0.14447c-0.10742 0.12595-0.27042 0.19262-0.43711 0.19262-0.22596 0-0.55565-0.12595-0.57417-0.63344h1.2002c0.01111-0.11483 0.0074-0.22596-0.01111-0.32228-0.07779-0.45563-0.39266-0.6001-0.67048-0.6001zm-0.5112 0.71864c0.05556-0.40007 0.31116-0.5149 0.49267-0.5149 0.27412 0 0.47045 0.24078 0.43711 0.5149z"/>
   <path d="m46.987 36.056-0.03334 0.45563h-0.40377l-0.0037 0.21856h0.39636c-0.02223 0.28894-0.03334 0.57787-0.03334 0.86311 0 0.15188 0 0.32228 0.10002 0.46304 0.0815 0.11113 0.21115 0.17781 0.38525 0.17781 0.20003 0 0.39636-0.0852 0.54083-0.18892l-0.08149-0.21115c-0.14447 0.10742-0.27782 0.15558-0.38154 0.15558-0.12595 0-0.2556-0.07038-0.28523-0.27412 0-0.01482-0.01111-0.07779-0.01111-0.32598 0-0.21856 0.01111-0.44081 0.03334-0.65937h0.55565v-0.22226h-0.55194s0.02593-0.30376 0.04445-0.40007c0.0037-0.03704 0.03334-0.05927 0.01852-0.10002z"/>
  </g>
  <g transform="matrix(-.004405 0 0 -.0044804 13.654 40.494)" fill="#6f8ce9" stroke-width="59.559">
   <g fill="#6f8ce9" stroke-width="59.559">
    <path d="m486.41 221.41-364.07-208.5c-52.938-30.318-95.852-5.44-95.852 55.563v415.65c0 61.004 42.914 85.882 95.852 55.563l364.07-208.49c52.938-30.317 52.938-79.473 0-109.79z" fill="#6f8ce9" stroke-width="59.559"/>
   </g>
  </g>
  <g transform="matrix(.004405 0 0 -.0044804 130.82 48.431)" fill="#6f8ce9" stroke-width="59.559">
   <g fill="#6f8ce9" stroke-width="59.559">
    <path d="m486.41 221.41-364.07-208.5c-52.938-30.318-95.852-5.44-95.852 55.563v415.65c0 61.004 42.914 85.882 95.852 55.563l364.07-208.49c52.938-30.317 52.938-79.473 0-109.79z" fill="#6f8ce9" stroke-width="59.559"/>
   </g>
  </g>
 </g>
 <path d="m71.805 47.226h59.435" fill="none" stroke="#6f8ce9" stroke-linecap="round" stroke-width=".26459"/>
 <g>
  <rect transform="matrix(.70711 .70711 .70711 -.70711 0 0)" x="83.816" y="17.028" width="1.1134" height="1.1134" fill="#6f8ce9"/>
  <g fill="#e8eaec" stroke-linecap="round" stroke-width=".26459" aria-label="git commit">
   <path d="m93.322 44.976c0-0.20374 0.1704-0.37043 0.37414-0.37043 0.20744 0 0.37414 0.1667 0.37414 0.37043 0 0.20374-0.16669 0.37043-0.37414 0.37043s-0.37414-0.16669-0.37414-0.37043zm0.38895-0.58158c-0.33709 0-0.62973 0.26671-0.62973 0.5964 0 0.18522 0.09261 0.35932 0.24819 0.45934-0.12224 0.10372-0.19262 0.21856-0.19262 0.32598 0 0.07038 0.02963 0.1704 0.13706 0.22596-0.18151 0.11483-0.27412 0.24078-0.27412 0.37414 0 0.18522 0.1704 0.40377 0.76309 0.40377 0.57417 0 0.78161-0.29264 0.78161-0.5186 0-0.14817-0.0852-0.29634-0.26301-0.36673-0.17781-0.07409-0.38154-0.04816-0.57417-0.04816-0.12595 0-0.20744-0.01111-0.24078-0.02223-0.06668-0.01852-0.10372-0.05927-0.10372-0.11113 0-0.0889 0.10372-0.1741 0.12224-0.18892 0.06668 0.02593 0.14076 0.03704 0.21485 0.03704 0.33339 0 0.60751-0.26671 0.60751-0.57787 0-0.10372-0.02963-0.20374-0.0852-0.28894 0.0889-0.05186 0.19262-0.08149 0.29635-0.08149 0.03334 0 0.06297 0.0037 0.09631 0.01111l-0.02963-0.21856c-0.1704-0.01482-0.3408 0.04075-0.47045 0.14817-0.10742-0.10372-0.24819-0.15929-0.40377-0.15929zm-0.2556 1.6558c0.06297 0.0074 0.15188 0.01482 0.28153 0.02223 0.12595 0.0037 0.26301-0.0074 0.35932 0.0074 0.15558 0.02593 0.20374 0.12224 0.20374 0.19633 0 0.07409-0.04445 0.16299-0.15929 0.22596-0.12595 0.06668-0.26671 0.07409-0.38154 0.07409-0.07779 0-0.22226-0.0037-0.34821-0.05557-0.13706-0.05557-0.16669-0.14817-0.16669-0.20744 0-0.12224 0.11483-0.21115 0.21115-0.26301z"/>
   <path d="m95.104 44.446v0.21855h0.40748v1.2632h-0.4297v0.21115h1.0965v-0.21115h-0.39636v-1.4817zm0.54824-0.73346c-0.10742 0-0.19262 0.0852-0.19262 0.18892 0 0.10372 0.0852 0.18892 0.19262 0.18892s0.19262-0.0852 0.19262-0.18892c0-0.10372-0.0852-0.18892-0.19262-0.18892z"/>
   <path d="m97.26 43.994-0.03334 0.45563h-0.40377l-0.0037 0.21856h0.39636c-0.02223 0.28894-0.03334 0.57787-0.03334 0.86311 0 0.15188 0 0.32228 0.10002 0.46304 0.08149 0.11113 0.21115 0.17781 0.38525 0.17781 0.20003 0 0.39636-0.0852 0.54083-0.18892l-0.0815-0.21115c-0.14447 0.10742-0.27782 0.15558-0.38154 0.15558-0.12595 0-0.2556-0.07038-0.28523-0.27412 0-0.01482-0.01111-0.07779-0.01111-0.32598 0-0.21856 0.01111-0.44081 0.03334-0.65937h0.55565v-0.22226h-0.55194s0.02593-0.30376 0.04445-0.40007c0.0037-0.03704 0.03334-0.05927 0.01852-0.10002z"/>
   <path d="m101.96 44.728c-0.13336-0.19633-0.35932-0.31487-0.63344-0.31487-0.49638 0-0.84829 0.37414-0.84829 0.88163 0 0.5112 0.35191 0.88904 0.83347 0.88904 0.23337 0 0.46304-0.09631 0.62233-0.27042l-0.15188-0.17781c-0.11483 0.12965-0.28153 0.20374-0.44822 0.20374-0.32969 0-0.58158-0.27412-0.58158-0.67048 0-0.38525 0.24819-0.62603 0.55935-0.62603 0.28894 0 0.426 0.20003 0.43711 0.22226 0.0148 0.02593-7e-3 0.06297 0.0222 0.0852z"/>
   <path d="m103.82 45.302c0-0.58528-0.37044-0.88904-0.75569-0.88904-0.4297 0-0.80013 0.37043-0.80013 0.89644 0 0.5149 0.36673 0.87792 0.79273 0.87792 0.40006 0 0.76309-0.32228 0.76309-0.88533zm-0.77421-0.66307c0.24449 0 0.50379 0.21115 0.50379 0.67419 0 0.426-0.24449 0.64085-0.48897 0.64085-0.27042 0-0.5149-0.25189-0.5149-0.67048 0-0.41488 0.24078-0.64455 0.50008-0.64455z"/>
   <path d="m104.11 46.139h0.24448v-1.1261c0-0.0815 7e-3 -0.15558 0.0556-0.24448 0.0593-0.11113 0.13335-0.15558 0.20374-0.15558 0.0593 0 0.12594 0.03704 0.15558 0.12965 0.0222 0.07038 0.0185 0.15188 0.0185 0.22226v1.1743h0.24819v-1.1187c0-0.0889 7e-3 -0.15929 0.0704-0.26671 0.0296-0.04445 0.0926-0.15188 0.19633-0.15188 0.0556 0 0.10742 0.03334 0.13335 0.09631 0.0333 0.07038 0.0259 0.1667 0.0259 0.24448v1.2002h0.25189v-1.2039c0-0.14076 4e-3 -0.28153-0.0704-0.39636-0.063-0.09631-0.1704-0.13336-0.26301-0.13336-0.16299 0-0.31487 0.09631-0.38154 0.24448-0.0259-0.14076-0.14447-0.24448-0.29635-0.24448-0.14076 0-0.27042 0.0889-0.34821 0.20744l4e-3 -0.16669h-0.24819z"/>
   <path d="m105.96 46.139h0.24448v-1.1261c0-0.0815 7e-3 -0.15558 0.0556-0.24448 0.0593-0.11113 0.13335-0.15558 0.20374-0.15558 0.0593 0 0.12594 0.03704 0.15558 0.12965 0.0222 0.07038 0.0185 0.15188 0.0185 0.22226v1.1743h0.24819v-1.1187c0-0.0889 7e-3 -0.15929 0.0704-0.26671 0.0296-0.04445 0.0926-0.15188 0.19633-0.15188 0.0556 0 0.10743 0.03334 0.13336 0.09631 0.0333 0.07038 0.0259 0.1667 0.0259 0.24448v1.2002h0.25189v-1.2039c0-0.14076 4e-3 -0.28153-0.0704-0.39636-0.063-0.09631-0.1704-0.13336-0.26301-0.13336-0.16299 0-0.31487 0.09631-0.38154 0.24448-0.0259-0.14076-0.14447-0.24448-0.29635-0.24448-0.14076 0-0.27042 0.0889-0.34821 0.20744l4e-3 -0.16669h-0.24819z"/>
   <path d="m108.07 44.446v0.21855h0.40747v1.2632h-0.4297v0.21115h1.0965v-0.21115h-0.39636v-1.4817zm0.54824-0.73346c-0.10743 0-0.19263 0.0852-0.19263 0.18892 0 0.10372 0.0852 0.18892 0.19263 0.18892 0.10742 0 0.19262-0.0852 0.19262-0.18892 0-0.10372-0.0852-0.18892-0.19262-0.18892z"/>
   <path d="m110.22 43.994-0.0333 0.45563h-0.40377l-4e-3 0.21856h0.39636c-0.0222 0.28894-0.0333 0.57787-0.0333 0.86311 0 0.15188 0 0.32228 0.10002 0.46304 0.0815 0.11113 0.21114 0.17781 0.38525 0.17781 0.20003 0 0.39636-0.0852 0.54083-0.18892l-0.0815-0.21115c-0.14447 0.10742-0.27782 0.15558-0.38154 0.15558-0.12595 0-0.2556-0.07038-0.28524-0.27412 0-0.01482-0.0111-0.07779-0.0111-0.32598 0-0.21856 0.0111-0.44081 0.0333-0.65937h0.55565v-0.22226h-0.55195s0.0259-0.30376 0.0445-0.40007c4e-3 -0.03704 0.0333-0.05927 0.0185-0.10002z"/>
  </g>
  <g transform="matrix(.004405 0 0 -.0044804 191.67 56.369)" fill="#6f8ce9" stroke-width="59.559">
   <g fill="#6f8ce9" stroke-width="59.559">
    <path d="m486.41 221.41-364.07-208.5c-52.938-30.318-95.852-5.44-95.852 55.563v415.65c0 61.004 42.914 85.882 95.852 55.563l364.07-208.49c52.938-30.317 52.938-79.473 0-109.79z" fill="#6f8ce9" stroke-width="59.559"/>
   </g>
  </g>
 </g>
 <path d="m132.66 55.164h59.435" fill="none" stroke="#6f8ce9" stroke-linecap="round" stroke-width=".26459"/>
 <rect transform="matrix(.70711 .70711 .70711 -.70711 0 0)" x="132.46" y="54.448" width="1.1134" height="1.1134" fill="#6f8ce9"/>
 <g fill="#e8eaec" stroke-linecap="round" stroke-width=".26459" aria-label="modify/delete">
  <path d="m150.02 54.077h0.24449v-1.1261c0-0.08149 7e-3 -0.15558 0.0556-0.24448 0.0593-0.11113 0.13336-0.15558 0.20374-0.15558 0.0593 0 0.12595 0.03704 0.15558 0.12965 0.0222 0.07038 0.0185 0.15188 0.0185 0.22226v1.1743h0.24819v-1.1187c0-0.0889 7e-3 -0.15929 0.0704-0.26671 0.0296-0.04445 0.0926-0.15188 0.19633-0.15188 0.0556 0 0.10743 0.03334 0.13336 0.09631 0.0333 0.07038 0.0259 0.16669 0.0259 0.24448v1.2002h0.25189v-1.2039c0-0.14076 4e-3 -0.28153-0.0704-0.39636-0.063-0.09631-0.1704-0.13336-0.26301-0.13336-0.16299 0-0.31486 0.09631-0.38154 0.24448-0.0259-0.14076-0.14447-0.24448-0.29635-0.24448-0.14076 0-0.27041 0.0889-0.3482 0.20744l4e-3 -0.16669h-0.24819z"/>
  <path d="m153.44 53.24c0-0.58528-0.37043-0.88904-0.75568-0.88904-0.4297 0-0.80014 0.37043-0.80014 0.89645 0 0.5149 0.36673 0.87792 0.79273 0.87792 0.40006 0 0.76309-0.32228 0.76309-0.88533zm-0.7742-0.66307c0.24448 0 0.50378 0.21115 0.50378 0.67419 0 0.426-0.24448 0.64085-0.48897 0.64085-0.27041 0-0.5149-0.25189-0.5149-0.67048 0-0.41488 0.24078-0.64455 0.50009-0.64455z"/>
  <path d="m154.96 52.632c-0.0815-0.1741-0.263-0.28894-0.49638-0.28894-0.32227 0-0.71493 0.22967-0.71493 0.87422 0 0.62603 0.34821 0.90015 0.67419 0.90015 0.21485 0 0.41488-0.12224 0.52231-0.31116v0.14817c0 0.04075 4e-3 0.0815 0.0148 0.12224h0.26671c-0.0148-0.04816-0.0148-0.10372-0.0148-0.15558l-4e-3 -2.2004c0-0.02223 0-0.02964 0.0148-0.05186 7e-3 -0.01111 0.0222-0.02963 0.0185-0.05556h-0.28153zm-0.48526-0.07038c0.14817 0 0.36673 0.07779 0.4334 0.32968 0.0222 0.07779 0.0296 0.1704 0.0296 0.35932 0 0.12965-7e-3 0.22226-0.037 0.31116-0.063 0.20003-0.24078 0.31857-0.41488 0.31857-0.19262 0-0.47786-0.14817-0.47786-0.70382 0-0.48527 0.27042-0.61492 0.46675-0.61492z"/>
  <path d="m155.83 52.384v0.21856h0.40747v1.2632h-0.4297v0.21115h1.0965v-0.21115h-0.39636v-1.4817zm0.54824-0.73346c-0.10743 0-0.19263 0.0852-0.19263 0.18892 0 0.10372 0.0852 0.18892 0.19263 0.18892 0.10742 0 0.19262-0.0852 0.19262-0.18892s-0.0852-0.18892-0.19262-0.18892z"/>
  <path d="m158.56 51.595c-0.23707 0-0.45933 0.10002-0.57787 0.29264-0.0889 0.14076-0.0926 0.28153-0.0926 0.43341v0.16669h-0.37043v0.21115h0.37043v1.378h0.2556v-1.378h0.55194v-0.21115h-0.55194v-0.13336c0-0.12224-4e-3 -0.25189 0.0593-0.36302 0.0704-0.12595 0.20374-0.18892 0.3408-0.18892 0.16299 0 0.30005 0.0852 0.37043 0.19262 0.0111 0.01852 0.0111 0.02963 0.0111 0.04445 0 0.02593 0.0185 0.03334 0.0296 0.03334l0.12225-0.24819c-0.12225-0.14447-0.30746-0.22967-0.51861-0.22967z"/>
  <path d="m159.31 52.388 0.68901 1.6855-0.0556 0.12224c-0.0296 0.07038-0.063 0.14076-0.11483 0.19633-0.0704 0.07779-0.15929 0.11113-0.23708 0.11113-0.12594 0-0.18892-0.0852-0.20003-0.10002-0.0111-0.01852-7e-3 -0.04445-0.0296-0.06297l-0.13706 0.24078c0.0963 0.09261 0.22596 0.14076 0.36672 0.14076 0.15188 0 0.31117-0.05557 0.4223-0.18151 0.0741-0.0852 0.11113-0.1741 0.14817-0.27042l0.52601-1.3965c0.063-0.15928 0.11854-0.32228 0.1704-0.48897h-0.27782c-0.0296 0.15558-0.0778 0.30375-0.12965 0.45193l-0.32228 0.90756-0.49638-1.2484c-4e-3 -0.01111-4e-3 -0.01852-4e-3 -0.02964 0-0.02593 0.0185-0.04445 0.0148-0.07779z"/>
  <path d="m161.23 54.125 0.21856 0.11113 1.1632-2.5078-0.21855-0.11113z"/>
  <path d="m164.22 52.632c-0.0815-0.1741-0.263-0.28894-0.49637-0.28894-0.32228 0-0.71494 0.22967-0.71494 0.87422 0 0.62603 0.34821 0.90015 0.67419 0.90015 0.21485 0 0.41488-0.12224 0.52231-0.31116v0.14817c0 0.04075 4e-3 0.0815 0.0148 0.12224h0.26672c-0.0148-0.04816-0.0148-0.10372-0.0148-0.15558l-4e-3 -2.2004c0-0.02223 0-0.02964 0.0148-0.05186 7e-3 -0.01111 0.0222-0.02963 0.0185-0.05556h-0.28153zm-0.48526-0.07038c0.14817 0 0.36673 0.07779 0.4334 0.32968 0.0222 0.07779 0.0296 0.1704 0.0296 0.35932 0 0.12965-7e-3 0.22226-0.037 0.31116-0.063 0.20003-0.24078 0.31857-0.41488 0.31857-0.19262 0-0.47786-0.14817-0.47786-0.70382 0-0.48527 0.27042-0.61492 0.46675-0.61492z"/>
  <path d="m165.65 52.347c-0.40378 0-0.77791 0.28894-0.77791 0.90385 0 0.56676 0.35191 0.86681 0.81124 0.86681 0.24449 0 0.46304-0.0889 0.60751-0.26301l-0.14817-0.14447c-0.10743 0.12595-0.27042 0.19262-0.43711 0.19262-0.22596 0-0.55565-0.12595-0.57417-0.63344h1.2002c0.0111-0.11483 7e-3 -0.22596-0.0111-0.32228-0.0778-0.45563-0.39266-0.6001-0.67048-0.6001zm-0.5112 0.71864c0.0556-0.40007 0.31116-0.5149 0.49267-0.5149 0.27412 0 0.47045 0.24078 0.43711 0.5149z"/>
  <path d="m166.86 51.617v0.21485h0.48156v2.0337h-0.50378v0.21115h1.2706v-0.21115h-0.50008v-2.2485z"/>
  <path d="m169.36 52.347c-0.40377 0-0.7779 0.28894-0.7779 0.90385 0 0.56676 0.35191 0.86681 0.81124 0.86681 0.24449 0 0.46304-0.0889 0.60751-0.26301l-0.14817-0.14447c-0.10743 0.12595-0.27042 0.19262-0.43711 0.19262-0.22596 0-0.55565-0.12595-0.57417-0.63344h1.2002c0.0111-0.11483 7e-3 -0.22596-0.0111-0.32228-0.0778-0.45563-0.39266-0.6001-0.67049-0.6001zm-0.51119 0.71864c0.0556-0.40007 0.31116-0.5149 0.49267-0.5149 0.27412 0 0.47045 0.24078 0.43711 0.5149z"/>
  <path d="m170.95 51.932-0.0333 0.45563h-0.40377l-4e-3 0.21855h0.39636c-0.0222 0.28894-0.0333 0.57787-0.0333 0.86311 0 0.15188 0 0.32228 0.10002 0.46304 0.0815 0.11113 0.21115 0.17781 0.38525 0.17781 0.20003 0 0.39636-0.0852 0.54083-0.18892l-0.0815-0.21115c-0.14446 0.10742-0.27782 0.15558-0.38154 0.15558-0.12595 0-0.2556-0.07038-0.28523-0.27412 0-0.01482-0.0111-0.07779-0.0111-0.32598 0-0.21855 0.0111-0.44081 0.0333-0.65937h0.55565v-0.22226h-0.55194s0.0259-0.30375 0.0445-0.40007c4e-3 -0.03704 0.0333-0.05927 0.0185-0.10002z"/>
  <path d="m173.06 52.347c-0.40378 0-0.77791 0.28894-0.77791 0.90385 0 0.56676 0.35191 0.86681 0.81124 0.86681 0.24449 0 0.46304-0.0889 0.60751-0.26301l-0.14817-0.14447c-0.10743 0.12595-0.27042 0.19262-0.43711 0.19262-0.22596 0-0.55565-0.12595-0.57417-0.63344h1.2002c0.0111-0.11483 7e-3 -0.22596-0.0111-0.32228-0.0778-0.45563-0.39266-0.6001-0.67048-0.6001zm-0.5112 0.71864c0.0556-0.40007 0.31116-0.5149 0.49267-0.5149 0.27412 0 0.47045 0.24078 0.43711 0.5149z"/>
 </g>
 <path d="m193.72 63.102h-120.03" fill="none" stroke="#6f8ce9" stroke-linecap="round" stroke-width=".26459"/>
 <g>
  <rect transform="rotate(135)" x="-92.896" y="-182.14" width="1.1134" height="1.1134" fill="#6f8ce9"/>
  <g fill="#e8eaec" stroke-linecap="round" stroke-width=".26459" aria-label="git add">
   <path d="m126.79 60.851c0-0.20374 0.1704-0.37043 0.37414-0.37043 0.20744 0 0.37414 0.16669 0.37414 0.37043 0 0.20374-0.1667 0.37043-0.37414 0.37043s-0.37414-0.1667-0.37414-0.37043zm0.38896-0.58158c-0.3371 0-0.62974 0.26671-0.62974 0.5964 0 0.18522 0.0926 0.35932 0.24819 0.45934-0.12224 0.10372-0.19262 0.21856-0.19262 0.32598 0 0.07038 0.0296 0.1704 0.13706 0.22596-0.18151 0.11483-0.27412 0.24078-0.27412 0.37414 0 0.18522 0.1704 0.40377 0.76309 0.40377 0.57417 0 0.78161-0.29264 0.78161-0.5186 0-0.14817-0.0852-0.29635-0.26301-0.36673-0.1778-0.07409-0.38154-0.04816-0.57417-0.04816-0.12594 0-0.20744-0.01111-0.24078-0.02223-0.0667-0.01852-0.10372-0.05927-0.10372-0.11113 0-0.0889 0.10372-0.1741 0.12224-0.18892 0.0667 0.02593 0.14077 0.03704 0.21485 0.03704 0.33339 0 0.60751-0.26671 0.60751-0.57787 0-0.10372-0.0296-0.20374-0.0852-0.28894 0.0889-0.05186 0.19263-0.0815 0.29635-0.0815 0.0333 0 0.063 0.0037 0.0963 0.01111l-0.0296-0.21855c-0.1704-0.01482-0.3408 0.04075-0.47045 0.14817-0.10743-0.10372-0.24819-0.15928-0.40377-0.15928zm-0.2556 1.6558c0.063 0.0074 0.15188 0.01482 0.28153 0.02223 0.12594 0.0037 0.263-0.0074 0.35932 0.0074 0.15558 0.02593 0.20373 0.12224 0.20373 0.19633 0 0.07409-0.0444 0.16299-0.15928 0.22596-0.12595 0.06668-0.26671 0.07409-0.38155 0.07409-0.0778 0-0.22226-0.0037-0.3482-0.05557-0.13706-0.05557-0.1667-0.14817-0.1667-0.20744 0-0.12224 0.11484-0.21115 0.21115-0.26301z"/>
   <path d="m128.57 60.322v0.21856h0.40748v1.2632h-0.4297v0.21115h1.0965v-0.21115h-0.39636v-1.4817zm0.54824-0.73346c-0.10742 0-0.19262 0.0852-0.19262 0.18892 0 0.10372 0.0852 0.18892 0.19262 0.18892 0.10743 0 0.19263-0.0852 0.19263-0.18892 0-0.10372-0.0852-0.18892-0.19263-0.18892z"/>
   <path d="m130.73 59.87-0.0333 0.45563h-0.40377l-4e-3 0.21856h0.39636c-0.0222 0.28894-0.0333 0.57787-0.0333 0.86311 0 0.15188 0 0.32228 0.10001 0.46304 0.0815 0.11113 0.21115 0.17781 0.38525 0.17781 0.20003 0 0.39636-0.0852 0.54083-0.18892l-0.0815-0.21115c-0.14447 0.10742-0.27783 0.15558-0.38155 0.15558-0.12595 0-0.2556-0.07038-0.28523-0.27412 0-0.01482-0.0111-0.07779-0.0111-0.32598 0-0.21856 0.0111-0.44081 0.0333-0.65937h0.55564v-0.22226h-0.55194s0.0259-0.30375 0.0444-0.40007c4e-3 -0.03704 0.0333-0.05927 0.0185-0.10002z"/>
   <path d="m134.07 60.522 0.12965 0.1704c0.14077-0.14447 0.32969-0.18892 0.48897-0.18892 0.20004 0 0.30005 0.0852 0.34821 0.16299 0.0556 0.09261 0.0519 0.20374 0.0519 0.29264v0.05927h-0.0519c-0.25189 0-0.5186 0-0.73346 0.07779-0.26671 0.09631-0.38524 0.29635-0.38524 0.48156 0 0.24819 0.21485 0.48156 0.56676 0.48156 0.20744 0 0.42229-0.07779 0.6075-0.22967v0.18522h0.2519v-1.0483c0-0.13706-4e-3 -0.26671-0.0815-0.40007-0.11113-0.18151-0.32598-0.27782-0.58898-0.27782-0.22597 0-0.44452 0.07038-0.60381 0.23337zm1.0298 0.70012v0.11483c0 0.0852 0 0.19633-0.11483 0.31857-0.063 0.06297-0.22226 0.20003-0.44452 0.20003-0.22596 0-0.35561-0.14447-0.35561-0.29264 0-0.12595 0.0852-0.26301 0.29634-0.31487 0.15558-0.03704 0.38155-0.02593 0.55935-0.02593z"/>
   <path d="m136.97 60.57c-0.0815-0.1741-0.26301-0.28894-0.49638-0.28894-0.32228 0-0.71494 0.22967-0.71494 0.87422 0 0.62603 0.34821 0.90015 0.67419 0.90015 0.21485 0 0.41488-0.12224 0.52231-0.31116v0.14817c0 0.04075 4e-3 0.0815 0.0148 0.12224h0.26671c-0.0148-0.04816-0.0148-0.10372-0.0148-0.15558l-4e-3 -2.2004c0-0.02223 0-0.02963 0.0148-0.05186 7e-3 -0.01111 0.0222-0.02963 0.0185-0.05556h-0.28152zm-0.48527-0.07038c0.14817 0 0.36673 0.07779 0.43341 0.32968 0.0222 0.07779 0.0296 0.1704 0.0296 0.35932 0 0.12965-7e-3 0.22226-0.037 0.31116-0.063 0.20003-0.24078 0.31857-0.41489 0.31857-0.19262 0-0.47785-0.14817-0.47785-0.70382 0-0.48527 0.27041-0.61492 0.46674-0.61492z"/>
   <path d="m138.82 60.57c-0.0815-0.1741-0.26301-0.28894-0.49638-0.28894-0.32228 0-0.71494 0.22967-0.71494 0.87422 0 0.62603 0.34821 0.90015 0.67419 0.90015 0.21485 0 0.41488-0.12224 0.52231-0.31116v0.14817c0 0.04075 4e-3 0.0815 0.0148 0.12224h0.26671c-0.0148-0.04816-0.0148-0.10372-0.0148-0.15558l-4e-3 -2.2004c0-0.02223 0-0.02963 0.0148-0.05186 7e-3 -0.01111 0.0222-0.02963 0.0185-0.05556h-0.28152zm-0.48527-0.07038c0.14817 0 0.36673 0.07779 0.43341 0.32968 0.0222 0.07779 0.0296 0.1704 0.0296 0.35932 0 0.12965-7e-3 0.22226-0.037 0.31116-0.063 0.20003-0.24078 0.31857-0.41489 0.31857-0.19262 0-0.47785-0.14817-0.47785-0.70382 0-0.48527 0.27041-0.61492 0.46674-0.61492z"/>
  </g>
  <g transform="matrix(-.004405 0 0 -.0044804 74.51 64.307)" fill="#6f8ce9" stroke-width="59.559">
   <g fill="#6f8ce9" stroke-width="59.559">
    <path d="m486.41 221.41-364.07-208.5c-52.938-30.318-95.852-5.44-95.852 55.563v415.65c0 61.004 42.914 85.882 95.852 55.563l364.07-208.49c52.938-30.317 52.938-79.473 0-109.79z" fill="#6f8ce9" stroke-width="59.559"/>
   </g>
  </g>
  <g fill="#fff" stroke-linecap="round" stroke-width=".26459" aria-label="TRACKED">
   <path d="m51.078 6.1929h0.54454v-1.9559h0.66307v-0.45934h-1.8744v0.45934h0.66678z"/>
   <path d="m53.207 4.2111h0.27782c0.28523 0 0.44081 0.081495 0.44081 0.31857s-0.15558 0.35932-0.44081 0.35932h-0.27782zm1.3706 1.9818-0.54454-0.96683c0.2556-0.11483 0.4297-0.3408 0.4297-0.69641 0-0.57417-0.42229-0.75198-0.93349-0.75198h-0.87052v2.4152h0.54824v-0.87052h0.29634l0.46304 0.87052z"/>
   <path d="m55.409 5.1927 0.05927-0.22226c0.06668-0.24078 0.13336-0.52231 0.18892-0.77791h0.01482c0.06668 0.25189 0.12965 0.53713 0.19633 0.77791l0.05927 0.22226zm0.77791 1.0002h0.57787l-0.75939-2.4152h-0.65196l-0.75939 2.4152h0.55565l0.14817-0.57417h0.74086z"/>
   <path d="m56.863 5.0001c0 0.81125 0.5112 1.2372 1.1372 1.2372 0.30005 0 0.56676-0.12224 0.76679-0.35561l-0.30005-0.32968c-0.11854 0.12965-0.2593 0.21485-0.45934 0.21485-0.35191 0-0.58528-0.28894-0.58528-0.78532 0-0.48527 0.26301-0.77791 0.6001-0.77791 0.1704 0 0.28523 0.070382 0.40748 0.18151l0.30005-0.33709c-0.16299-0.16669-0.41488-0.31487-0.71493-0.31487-0.62233 0-1.152 0.46674-1.152 1.2669z"/>
   <path d="m59.126 6.1929h0.54824v-0.64826l0.28153-0.37043 0.58528 1.0187h0.6001l-0.86681-1.4521 0.72975-0.96312h-0.5964l-0.72234 0.98905h-0.011113v-0.98905h-0.54824z"/>
   <path d="m61.398 6.1929h1.5521v-0.45934h-1.0039v-0.55565h0.82236v-0.45563h-0.82236v-0.48527h0.96683v-0.45934h-1.5151z"/>
   <path d="m63.424 6.1929h0.71493c0.70753 0 1.1817-0.38895 1.1817-1.2187 0-0.82977-0.47415-1.1965-1.215-1.1965h-0.6816zm0.54824-0.44081v-1.5336h0.10372c0.40748 0 0.6853 0.17781 0.6853 0.75568s-0.27782 0.77791-0.6853 0.77791z"/>
  </g>
  <g transform="matrix(-.004405 0 0 -.0044804 135.01 72.245)" fill="#6f8ce9" stroke-width="59.559">
   <g fill="#6f8ce9" stroke-width="59.559">
    <path d="m486.41 221.41-364.07-208.5c-52.938-30.318-95.852-5.44-95.852 55.563v415.65c0 61.004 42.914 85.882 95.852 55.563l364.07-208.49c52.938-30.317 52.938-79.473 0-109.79z" fill="#6f8ce9" stroke-width="59.559"/>
   </g>
  </g>
 </g>
 <path d="m194.02 71.04h-59.435" fill="none" stroke="#6f8ce9" stroke-linecap="round" stroke-width=".26459"/>
 <rect transform="rotate(135)" x="-87.314" y="-187.78" width="1.1134" height="1.1134" fill="#6f8ce9"/>
 <g fill="#e8eaec" stroke-linecap="round" stroke-width=".26459" aria-label="git restore">
  <path d="m152.19 68.789c0-0.20374 0.1704-0.37043 0.37414-0.37043 0.20744 0 0.37413 0.16669 0.37413 0.37043 0 0.20374-0.16669 0.37043-0.37413 0.37043s-0.37414-0.1667-0.37414-0.37043zm0.38895-0.58158c-0.33709 0-0.62973 0.26671-0.62973 0.5964 0 0.18522 0.0926 0.35932 0.24819 0.45934-0.12224 0.10372-0.19263 0.21856-0.19263 0.32598 0 0.07038 0.0296 0.1704 0.13706 0.22596-0.18151 0.11483-0.27411 0.24078-0.27411 0.37414 0 0.18522 0.17039 0.40377 0.76309 0.40377 0.57416 0 0.78161-0.29264 0.78161-0.5186 0-0.14817-0.0852-0.29635-0.26301-0.36673-0.17781-0.07409-0.38155-0.04816-0.57417-0.04816-0.12595 0-0.20744-0.01111-0.24078-0.02223-0.0667-0.01852-0.10372-0.05927-0.10372-0.11113 0-0.0889 0.10372-0.1741 0.12224-0.18892 0.0667 0.02593 0.14077 0.03704 0.21485 0.03704 0.33339 0 0.60751-0.26671 0.60751-0.57787 0-0.10372-0.0296-0.20374-0.0852-0.28894 0.0889-0.05186 0.19263-0.0815 0.29635-0.0815 0.0333 0 0.063 0.0037 0.0963 0.01111l-0.0296-0.21856c-0.17039-0.01482-0.34079 0.04075-0.47044 0.14817-0.10743-0.10372-0.24819-0.15928-0.40378-0.15928zm-0.25559 1.6558c0.063 0.0074 0.15187 0.01482 0.28152 0.02223 0.12595 0.0037 0.26301-0.0074 0.35932 0.0074 0.15559 0.02593 0.20374 0.12224 0.20374 0.19633 0 0.07409-0.0445 0.16299-0.15928 0.22596-0.12595 0.06668-0.26672 0.07409-0.38155 0.07409-0.0778 0-0.22226-0.0037-0.34821-0.05557-0.13706-0.05557-0.16669-0.14817-0.16669-0.20744 0-0.12224 0.11483-0.21115 0.21115-0.26301z"/>
  <path d="m153.98 68.26v0.21856h0.40747v1.2632h-0.4297v0.21115h1.0965v-0.21115h-0.39636v-1.4817zm0.54824-0.73346c-0.10743 0-0.19263 0.0852-0.19263 0.18892 0 0.10372 0.0852 0.18892 0.19263 0.18892 0.10742 0 0.19262-0.0852 0.19262-0.18892 0-0.10372-0.0852-0.18892-0.19262-0.18892z"/>
  <path d="m156.13 67.808-0.0333 0.45563h-0.40377l-4e-3 0.21856h0.39636c-0.0222 0.28894-0.0333 0.57787-0.0333 0.86311 0 0.15188 0 0.32228 0.10002 0.46304 0.0815 0.11113 0.21115 0.17781 0.38525 0.17781 0.20003 0 0.39636-0.0852 0.54083-0.18892l-0.0815-0.21115c-0.14446 0.10742-0.27782 0.15558-0.38154 0.15558-0.12595 0-0.2556-0.07038-0.28523-0.27412 0-0.01482-0.0111-0.07779-0.0111-0.32598 0-0.21856 0.0111-0.44081 0.0333-0.65937h0.55565v-0.22226h-0.55194s0.0259-0.30375 0.0444-0.40007c4e-3 -0.03704 0.0333-0.05927 0.0185-0.10002z"/>
  <path d="m159.51 68.263v1.6929h0.26671v-0.82236c0-0.10372 4e-3 -0.21485 0.11854-0.39636 0.15558-0.24448 0.35561-0.28523 0.47786-0.28523 0.14076 0 0.22966 0.06668 0.27782 0.12595 0.0222 0.02963 0.0333 0.05927 0.063 0.0852l0.12595-0.2556c-0.10743-0.11113-0.26301-0.18522-0.45193-0.18522-0.24819 0-0.50008 0.12595-0.61121 0.36673l0.0111-0.32598z"/>
  <path d="m161.95 68.222c-0.40377 0-0.7779 0.28894-0.7779 0.90385 0 0.56676 0.35191 0.86681 0.81124 0.86681 0.24449 0 0.46304-0.0889 0.60751-0.26301l-0.14817-0.14447c-0.10743 0.12595-0.27042 0.19262-0.43711 0.19262-0.22596 0-0.55565-0.12595-0.57417-0.63344h1.2002c0.0111-0.11483 7e-3 -0.22596-0.0111-0.32228-0.0778-0.45563-0.39266-0.6001-0.67049-0.6001zm-0.51119 0.71864c0.0556-0.40007 0.31116-0.5149 0.49267-0.5149 0.27412 0 0.47045 0.24078 0.43711 0.5149z"/>
  <path d="m164.44 68.485c-0.15558-0.1704-0.38155-0.26301-0.63344-0.26301-0.39266 0-0.64826 0.21856-0.64826 0.47045 0 0.29635 0.31857 0.40377 0.41118 0.43711 0.14447 0.05186 0.32969 0.09631 0.45563 0.15558 0.14077 0.06668 0.1667 0.15558 0.1667 0.21485 0 0.15929-0.19263 0.26671-0.43341 0.26671-0.28893 0-0.47415-0.1741-0.52972-0.23337-0.0111-0.01482-0.0111-0.02593-0.0111-0.04075 0-0.0037 4e-3 -0.02593-0.0148-0.03334l-0.15558 0.26301c0.20004 0.18522 0.45934 0.27042 0.71494 0.27042 0.46304 0 0.70382-0.27412 0.70382-0.52972 0-0.11483-0.0482-0.27042-0.24819-0.38154-0.18892-0.10742-0.46304-0.14447-0.62233-0.22226-0.13706-0.06668-0.16669-0.14817-0.16669-0.20744 0-0.13336 0.16669-0.22967 0.35561-0.22967 0.24449 0 0.40748 0.14817 0.47045 0.23337 0.0111 0.01111 7e-3 0.02223 7e-3 0.03334 0 0.02223 0.0148 0.02963 0.0222 0.02963z"/>
  <path d="m165.39 67.808-0.0333 0.45563h-0.40377l-4e-3 0.21856h0.39636c-0.0222 0.28894-0.0333 0.57787-0.0333 0.86311 0 0.15188 0 0.32228 0.10002 0.46304 0.0815 0.11113 0.21115 0.17781 0.38525 0.17781 0.20003 0 0.39636-0.0852 0.54083-0.18892l-0.0815-0.21115c-0.14446 0.10742-0.27782 0.15558-0.38154 0.15558-0.12595 0-0.2556-0.07038-0.28523-0.27412 0-0.01482-0.0111-0.07779-0.0111-0.32598 0-0.21856 0.0111-0.44081 0.0333-0.65937h0.55565v-0.22226h-0.55194s0.0259-0.30375 0.0445-0.40007c4e-3 -0.03704 0.0333-0.05927 0.0185-0.10002z"/>
  <path d="m168.25 69.115c0-0.58528-0.37043-0.88904-0.75568-0.88904-0.4297 0-0.80014 0.37043-0.80014 0.89645 0 0.5149 0.36673 0.87792 0.79273 0.87792 0.40006 0 0.76309-0.32228 0.76309-0.88533zm-0.7742-0.66307c0.24448 0 0.50378 0.21115 0.50378 0.67419 0 0.426-0.24448 0.64085-0.48897 0.64085-0.27041 0-0.5149-0.25189-0.5149-0.67048 0-0.41488 0.24078-0.64455 0.50009-0.64455z"/>
  <path d="m168.77 68.263v1.6929h0.26671v-0.82236c0-0.10372 4e-3 -0.21485 0.11854-0.39636 0.15558-0.24448 0.35561-0.28523 0.47785-0.28523 0.14077 0 0.22967 0.06668 0.27783 0.12595 0.0222 0.02963 0.0333 0.05927 0.063 0.0852l0.12595-0.2556c-0.10743-0.11113-0.26301-0.18522-0.45193-0.18522-0.24819 0-0.50008 0.12595-0.61121 0.36673l0.0111-0.32598z"/>
  <path d="m171.21 68.222c-0.40377 0-0.7779 0.28894-0.7779 0.90385 0 0.56676 0.35191 0.86681 0.81124 0.86681 0.24449 0 0.46304-0.0889 0.60751-0.26301l-0.14817-0.14447c-0.10743 0.12595-0.27042 0.19262-0.43711 0.19262-0.22596 0-0.55565-0.12595-0.57417-0.63344h1.2002c0.0111-0.11483 7e-3 -0.22596-0.0111-0.32228-0.0778-0.45563-0.39266-0.6001-0.67049-0.6001zm-0.51119 0.71864c0.0556-0.40007 0.31116-0.5149 0.49267-0.5149 0.27412 0 0.47045 0.24078 0.43711 0.5149z"/>
 </g>
</svg>
