<?xml version="1.0" encoding="UTF-8"?>
<svg width="649.64" height="325" version="1.1" viewBox="0 0 171.89 85.99" xmlns="http://www.w3.org/2000/svg" xmlns:cc="http://creativecommons.org/ns#" xmlns:dc="http://purl.org/dc/elements/1.1/" xmlns:rdf="http://www.w3.org/1999/02/22-rdf-syntax-ns#">
 <metadata>
  <rdf:RDF>
   <cc:Work rdf:about="">
    <dc:format>image/svg+xml</dc:format>
    <dc:type rdf:resource="http://purl.org/dc/dcmitype/StillImage"/>
    <dc:title/>
   </cc:Work>
  </rdf:RDF>
 </metadata>
 <rect y="-.00081958" width="171.89" height="23.813" fill="#2f3744" fill-opacity=".50196"/>
 <g stroke-linecap="round" stroke-width=".26459">
  <g fill="#fff" aria-label="REMOTE">
   <path d="m4.7156 4.4787h0.27782c0.28523 0 0.44081 0.081495 0.44081 0.31857 0 0.23708-0.15558 0.35932-0.44081 0.35932h-0.27782zm1.3706 1.9818-0.54453-0.96682c0.2556-0.11483 0.4297-0.3408 0.4297-0.69641 0-0.57417-0.42229-0.75197-0.93348-0.75197h-0.87051v2.4152h0.54824v-0.87051h0.29634l0.46304 0.87051z"/>
   <path d="m6.4464 6.4605h1.5521v-0.45933h-1.0039v-0.55564h0.82235v-0.45563h-0.82235v-0.48526h0.96682v-0.45933h-1.5151z"/>
   <path d="m8.4721 6.4605h0.50378v-0.88533c0-0.23708-0.044452-0.58898-0.070382-0.82235h0.014817l0.19262 0.55935 0.37043 0.93719h0.21855l0.37413-0.93719 0.19633-0.55935h0.01482c-0.02593 0.23337-0.07038 0.58528-0.07038 0.82235v0.88533h0.51119v-2.4152h-0.57788l-0.39266 1.0854-0.14447 0.42229h-0.014817l-0.14447-0.42229-0.40377-1.0854h-0.57787z"/>
   <path d="m12.275 6.505c0.65196 0 1.0965-0.47415 1.0965-1.2632 0-0.78531-0.44452-1.2409-1.0965-1.2409-0.64825 0-1.0965 0.45192-1.0965 1.2409 0 0.78902 0.44822 1.2632 1.0965 1.2632zm0-0.47045c-0.32598 0-0.53712-0.30746-0.53712-0.79272 0-0.48156 0.21114-0.77049 0.53712-0.77049 0.32968 0 0.53712 0.28894 0.53712 0.77049 0 0.48526-0.20744 0.79272-0.53712 0.79272z"/>
   <path d="m14.228 6.4605h0.54453v-1.9559h0.66307v-0.45933h-1.8744v0.45933h0.66677z"/>
   <path d="m15.808 6.4605h1.5521v-0.45933h-1.0039v-0.55564h0.82235v-0.45563h-0.82235v-0.48526h0.96682v-0.45933h-1.5151z"/>
  </g>
  <path d="m40.738 16.95-3.6948 2.1332-3.6948-2.1332v-4.2664l3.6948-2.1332 3.6948 2.1332z" fill="#1d232d" stroke="#6f8ce9"/>
  <path d="m57.137 14.949h-14.983" fill="none" stroke="#7b8694"/>
 </g>
 <g transform="matrix(-.0044049 0 0 -.0044804 43.156 16.154)" fill="#7b8694" stroke-width="59.559">
  <g fill="#7b8694" stroke-width="59.559">
   <path d="m486.41 221.41-364.07-208.5c-52.938-30.318-95.852-5.44-95.852 55.563v415.65c0 61.004 42.914 85.882 95.852 55.563l364.07-208.49c52.938-30.317 52.938-79.473 0-109.79z" fill="#7b8694" stroke-width="59.559"/>
  </g>
 </g>
 <path d="m64.551 16.95-3.6948 2.1332-3.6948-2.1332v-4.2664l3.6948-2.1332 3.6948 2.1332z" fill="#1d232d" stroke="#6f8ce9" stroke-linecap="round" stroke-width=".26459"/>
 <path d="m80.95 14.949h-14.983" fill="none" stroke="#7b8694" stroke-linecap="round" stroke-width=".26459"/>
 <g transform="matrix(-.0044049 0 0 -.0044804 66.969 16.154)" fill="#7b8694" stroke-width="59.559">
  <g fill="#7b8694" stroke-width="59.559">
   <path d="m486.41 221.41-364.07-208.5c-52.938-30.318-95.852-5.44-95.852 55.563v415.65c0 61.004 42.914 85.882 95.852 55.563l364.07-208.49c52.938-30.317 52.938-79.473 0-109.79z" fill="#7b8694" stroke-width="59.559"/>
  </g>
 </g>
 <path d="m88.364 16.95-3.6948 2.1332-3.6948-2.1332v-4.2664l3.6948-2.1332 3.6948 2.1332z" fill="#1d232d" stroke="#6f8ce9" stroke-linecap="round" stroke-width=".26459"/>
 <g fill="#e8eaec" stroke-linecap="round" stroke-width=".26459">
  <g aria-label="#cab">
   <path d="m33.734 9.6812h0.20003l0.09261-0.75568h0.48897l-0.0889 0.75568h0.19633l0.09261-0.75568h0.3408v-0.21115h-0.31487l0.066677-0.54824h0.32227v-0.21485h-0.30005l0.0889-0.67789h-0.19633l-0.0889 0.67789h-0.49267l0.0852-0.67789h-0.19633l-0.0852 0.67789h-0.3408v0.21485h0.31486l-0.06668 0.54824h-0.32227v0.21115h0.29634zm0.31857-0.96682 0.06668-0.54824h0.48897l-0.06668 0.54824z"/>
   <path d="m35.409 8.7847c0 0.59639 0.36673 0.94089 0.84458 0.94089 0.21485 0 0.42229-0.088903 0.58528-0.23337l-0.13706-0.20003c-0.10742 0.096312-0.25189 0.18151-0.42229 0.18151-0.32968 0-0.55564-0.27782-0.55564-0.689 0-0.41488 0.23708-0.69641 0.56305-0.69641 0.14447 0 0.2556 0.066677 0.36302 0.15928l0.15188-0.19633c-0.12224-0.11483-0.28894-0.21485-0.52601-0.21485-0.46304 0-0.86681 0.3445-0.86681 0.9483z"/>
   <path d="m37.103 9.2144c0 0.32227 0.22596 0.51119 0.52972 0.51119 0.22226 0 0.42229-0.11854 0.59639-0.2593h0.0074l0.02593 0.21485h0.25189v-1.1039c0-0.44822-0.18522-0.74086-0.62603-0.74086-0.28894 0-0.54083 0.12595-0.70752 0.23337l0.12224 0.21115c0.14076-0.096312 0.32598-0.19262 0.53712-0.19262 0.29264 0 0.37043 0.22226 0.37043 0.45192-0.76679 0.085199-1.1076 0.28153-1.1076 0.67418zm0.30005-0.022226c0-0.22967 0.20374-0.37784 0.80754-0.45192v0.50008c-0.1741 0.15558-0.31857 0.24078-0.49267 0.24078-0.17781 0-0.31487-0.085199-0.31487-0.28894z"/>
   <path d="m39.087 9.6812h0.24448l0.02593-0.17781h0.01111c0.15928 0.14076 0.3482 0.22226 0.5149 0.22226 0.41118 0 0.7779-0.35932 0.7779-0.97423 0-0.55564-0.24819-0.91496-0.71493-0.91496-0.20003 0-0.40006 0.10742-0.56305 0.25189l0.0074-0.32598v-0.71863h-0.30374zm0.30375-0.40006v-0.9446c0.1704-0.15928 0.32968-0.24448 0.48156-0.24448 0.3408 0 0.47415 0.26671 0.47415 0.66307 0 0.44452-0.21855 0.71493-0.5149 0.71493-0.11854 0-0.28153-0.05186-0.44081-0.18892z"/>
  </g>
  <g aria-label="#06c">
   <path d="m57.547 9.6812h0.20003l0.09261-0.75568h0.48896l-0.0889 0.75568h0.19633l0.09261-0.75568h0.3408v-0.21115h-0.31486l0.06668-0.54824h0.32227v-0.21485h-0.30005l0.0889-0.67789h-0.19633l-0.0889 0.67789h-0.49267l0.0852-0.67789h-0.19633l-0.0852 0.67789h-0.3408v0.21485h0.31486l-0.066677 0.54824h-0.32227v0.21115h0.29634zm0.31857-0.96682 0.06668-0.54824h0.48897l-0.06668 0.54824z"/>
   <path d="m59.974 9.7256c0.47045 0 0.75568-0.44081 0.75568-1.2335s-0.28523-1.2187-0.75568-1.2187c-0.47415 0-0.75938 0.42599-0.75938 1.2187s0.28523 1.2335 0.75938 1.2335zm0-0.24448c-0.27782 0-0.46304-0.29634-0.46304-0.98905s0.18522-0.97423 0.46304-0.97423c0.27412 0 0.45933 0.28153 0.45933 0.97423s-0.18522 0.98905-0.45933 0.98905z"/>
   <path d="m61.882 9.4848c-0.30005 0-0.48156-0.24819-0.5186-0.70752 0.15928-0.22226 0.3445-0.31116 0.49267-0.31116 0.29264 0 0.43711 0.19262 0.43711 0.50008 0 0.31116-0.17781 0.5186-0.41118 0.5186zm0.65566-1.9596c-0.13336-0.14447-0.31486-0.25189-0.57046-0.25189-0.47045 0-0.90014 0.36673-0.90014 1.315 0 0.75938 0.35191 1.1372 0.81495 1.1372 0.38154 0 0.70011-0.30746 0.70011-0.75938 0-0.48526-0.26671-0.72975-0.67418-0.72975-0.19262 0-0.40377 0.11483-0.55194 0.29634 0.01482-0.74827 0.29264-1.0039 0.62232-1.0039 0.14817 0 0.29264 0.070382 0.38895 0.18522z"/>
   <path d="m62.897 8.7847c0 0.59639 0.36672 0.94089 0.84458 0.94089 0.21485 0 0.42229-0.088903 0.58528-0.23337l-0.13706-0.20003c-0.10742 0.096312-0.25189 0.18151-0.42229 0.18151-0.32968 0-0.55564-0.27782-0.55564-0.689 0-0.41488 0.23708-0.69641 0.56305-0.69641 0.14447 0 0.2556 0.066677 0.36302 0.15928l0.15188-0.19633c-0.12224-0.11483-0.28894-0.21485-0.52601-0.21485-0.46304 0-0.86681 0.3445-0.86681 0.9483z"/>
  </g>
  <g aria-label="#ba1">
   <path d="m81.361 9.6812h0.20003l0.09261-0.75568h0.48897l-0.0889 0.75568h0.19633l0.09261-0.75568h0.3408v-0.21115h-0.31487l0.06668-0.54824h0.32227v-0.21485h-0.30005l0.0889-0.67789h-0.19634l-0.0889 0.67789h-0.49267l0.0852-0.67789h-0.19633l-0.0852 0.67789h-0.3408v0.21485h0.31487l-0.06668 0.54824h-0.32227v0.21115h0.29634zm0.31857-0.96682 0.06668-0.54824h0.48897l-0.06668 0.54824z"/>
   <path d="m83.169 9.6812h0.24448l0.02593-0.17781h0.01111c0.15928 0.14076 0.3482 0.22226 0.5149 0.22226 0.41118 0 0.7779-0.35932 0.7779-0.97423 0-0.55564-0.24819-0.91496-0.71493-0.91496-0.20003 0-0.40006 0.10742-0.56305 0.25189l0.0074-0.32598v-0.71863h-0.30374zm0.30375-0.40006v-0.9446c0.1704-0.15928 0.32968-0.24448 0.48156-0.24448 0.3408 0 0.47415 0.26671 0.47415 0.66307 0 0.44452-0.21855 0.71493-0.5149 0.71493-0.11854 0-0.28153-0.05186-0.44081-0.18892z"/>
   <path d="m85.084 9.2144c0 0.32227 0.22596 0.51119 0.52972 0.51119 0.22226 0 0.42229-0.11854 0.59639-0.2593h0.0074l0.02593 0.21485h0.25189v-1.1039c0-0.44822-0.18522-0.74086-0.62603-0.74086-0.28894 0-0.54083 0.12595-0.70752 0.23337l0.12224 0.21115c0.14076-0.096312 0.32598-0.19262 0.53712-0.19262 0.29264 0 0.37043 0.22226 0.37043 0.45192-0.76679 0.085199-1.1076 0.28153-1.1076 0.67418zm0.30005-0.022226c0-0.22967 0.20374-0.37784 0.80754-0.45192v0.50008c-0.1741 0.15558-0.31857 0.24078-0.49267 0.24078-0.17781 0-0.31487-0.085199-0.31487-0.28894z"/>
   <path d="m87.057 9.6812h1.3335v-0.25189h-0.48897v-2.1115h-0.23337c-0.12965 0.07779-0.28523 0.13706-0.50008 0.1741v0.19633h0.4297v1.741h-0.54083z"/>
  </g>
 </g>
 <path d="m104.76 14.949h-14.983" fill="none" stroke="#7b8694" stroke-linecap="round" stroke-width=".26459"/>
 <g transform="matrix(-.0044049 0 0 -.0044804 90.782 16.154)" fill="#7b8694" stroke-width="59.559">
  <g fill="#7b8694" stroke-width="59.559">
   <path d="m486.41 221.41-364.07-208.5c-52.938-30.318-95.852-5.44-95.852 55.563v415.65c0 61.004 42.914 85.882 95.852 55.563l364.07-208.49c52.938-30.317 52.938-79.473 0-109.79z" fill="#7b8694" stroke-width="59.559"/>
  </g>
 </g>
 <path d="m112.18 16.95-3.6948 2.1332-3.6948-2.1332v-4.2664l3.6948-2.1332 3.6948 2.1332z" fill="#1d232d" stroke="#6f8ce9" stroke-linecap="round" stroke-width=".26459"/>
 <g fill="#e8eaec" stroke-linecap="round" stroke-width=".26459">
  <g aria-label="#cc2">
   <path d="m105.44 9.6812h0.20004l0.0926-0.75568h0.48897l-0.0889 0.75568h0.19633l0.0926-0.75568h0.3408v-0.21115h-0.31487l0.0667-0.54824h0.32227v-0.21485h-0.30004l0.0889-0.67789h-0.19633l-0.0889 0.67789h-0.49267l0.0852-0.67789h-0.19633l-0.0852 0.67789h-0.3408v0.21485h0.31487l-0.0667 0.54824h-0.32227v0.21115h0.29634zm0.31857-0.96682 0.0667-0.54824h0.48897l-0.0667 0.54824z"/>
   <path d="m107.11 8.7847c0 0.59639 0.36673 0.94089 0.84458 0.94089 0.21485 0 0.42229-0.088903 0.58528-0.23337l-0.13705-0.20003c-0.10743 0.096312-0.2519 0.18151-0.4223 0.18151-0.32968 0-0.55564-0.27782-0.55564-0.689 0-0.41488 0.23708-0.69641 0.56305-0.69641 0.14447 0 0.2556 0.066677 0.36302 0.15928l0.15188-0.19633c-0.12224-0.11483-0.28893-0.21485-0.52601-0.21485-0.46304 0-0.86681 0.3445-0.86681 0.9483z"/>
   <path d="m108.72 8.7847c0 0.59639 0.36672 0.94089 0.84458 0.94089 0.21485 0 0.42229-0.088903 0.58528-0.23337l-0.13706-0.20003c-0.10743 0.096312-0.2519 0.18151-0.42229 0.18151-0.32969 0-0.55565-0.27782-0.55565-0.689 0-0.41488 0.23708-0.69641 0.56305-0.69641 0.14447 0 0.2556 0.066677 0.36303 0.15928l0.15187-0.19633c-0.12224-0.11483-0.28893-0.21485-0.52601-0.21485-0.46304 0-0.8668 0.3445-0.8668 0.9483z"/>
   <path d="m110.38 9.6812h1.5262v-0.26301h-0.6853c-0.12224 0-0.26671 0.011113-0.39636 0.022226 0.55935-0.58528 0.96312-1.0261 0.96312-1.4706 0-0.41859-0.27041-0.69641-0.70752-0.69641-0.30746 0-0.5186 0.14447-0.71493 0.35932l0.1741 0.1741c0.13706-0.15928 0.30746-0.28523 0.50379-0.28523 0.30004 0 0.44822 0.19262 0.44822 0.46304 0 0.38154-0.40007 0.80754-1.1113 1.5151z"/>
  </g>
  <g stroke="#cf2f25" aria-label="A">
   <path d="m39.848 19.54 0.11854-0.37043c0.0852-0.27041 0.16299-0.53712 0.24078-0.81865h0.01482c0.07779 0.28153 0.15558 0.54824 0.24078 0.81865l0.11483 0.37043zm1.0409 0.98905h0.32598l-0.82236-2.43h-0.3482l-0.82236 2.43h0.31487l0.23337-0.74086h0.88533z" fill="#e8eaec" stroke="none"/>
  </g>
  <g stroke="#cf2f25" aria-label="B">
   <path d="m63.357 20.529h0.7779c0.54083 0 0.91867-0.23337 0.91867-0.71123 0-0.33339-0.20744-0.52601-0.56305-0.58158v-0.01482c0.28894-0.07409 0.426-0.28894 0.426-0.52972 0-0.426-0.3445-0.59269-0.83717-0.59269h-0.72234zm0.31116-1.3928v-0.79272h0.37413c0.37413 0 0.57046 0.11113 0.57046 0.37413 0 0.27041-0.1741 0.41859-0.58528 0.41859zm0 1.1483v-0.91867h0.42229c0.42599 0 0.65936 0.13706 0.65936 0.43711 0 0.32968-0.24448 0.48156-0.65936 0.48156z" fill="#e8eaec" stroke="none"/>
  </g>
  <g stroke="#cf2f25" aria-label="C">
   <path d="m87.03 19.314c0 0.79272 0.45563 1.2595 1.0668 1.2595 0.30746 0 0.54824-0.12965 0.73716-0.35191l-0.1741-0.18892c-0.15558 0.1741-0.32598 0.27041-0.55564 0.27041-0.46304 0-0.75568-0.38525-0.75568-0.99646 0-0.6038 0.30746-0.98164 0.77049-0.98164 0.20003 0 0.35561 0.0889 0.48526 0.22596l0.1741-0.19633c-0.14447-0.15928-0.37414-0.30005-0.66307-0.30005-0.62232 0-1.0854 0.47786-1.0854 1.2595z" fill="#e8eaec" stroke="none"/>
  </g>
  <g stroke="#cf2f25" aria-label="D">
   <path d="m110.98 20.529h0.62233c0.73345 0 1.1335-0.45192 1.1335-1.2261 0-0.77049-0.40006-1.2039-1.1483-1.2039h-0.60751zm0.31116-0.25189v-1.9262h0.27412c0.57046 0 0.85199 0.3408 0.85199 0.952 0 0.61491-0.28153 0.97423-0.85199 0.97423z" fill="#e8eaec" stroke="none"/>
  </g>
 </g>
 <path d="m131.24 12.331c-1.4502 0-2.6178 1.1675-2.6178 2.6178 0 1.4502 1.1675 2.6178 2.6178 2.6178h11.113c1.4503 0 2.6178-1.1675 2.6178-2.6178 0-1.4502-1.1675-2.6178-2.6178-2.6178z" fill="#1d232d" stroke="#7893ea" stroke-width=".26459"/>
 <path d="m128.58 14.949h-14.983" fill="none" stroke="#6f8ce9" stroke-linecap="round" stroke-width=".26459"/>
 <g transform="matrix(-.0044049 0 0 -.0044804 114.6 16.154)" fill="#6f8ce9" stroke-width="59.559">
  <g fill="#6f8ce9" stroke-width="59.559">
   <path d="m486.41 221.41-364.07-208.5c-52.938-30.318-95.852-5.44-95.852 55.563v415.65c0 61.004 42.914 85.882 95.852 55.563l364.07-208.49c52.938-30.317 52.938-79.473 0-109.79z" fill="#6f8ce9" stroke-width="59.559"/>
  </g>
 </g>
 <g fill="#e8eaec" stroke-linecap="round" stroke-width=".26459" aria-label="master">
  <path d="m131.78 16.078h0.30375v-1.3039c0.1667-0.18522 0.31857-0.27782 0.45193-0.27782 0.22966 0 0.33709 0.14447 0.33709 0.48156v1.1002h0.30375v-1.3039c0.16669-0.18522 0.31116-0.27782 0.45192-0.27782 0.22597 0 0.33339 0.14447 0.33339 0.48156v1.1002h0.30375v-1.1409c0-0.45933-0.1778-0.70382-0.54823-0.70382-0.21856 0-0.40377 0.14076-0.59269 0.3445-0.0741-0.21485-0.22226-0.3445-0.49638-0.3445-0.21485 0-0.40376 0.13336-0.55935 0.30375h-0.0111l-0.0259-0.2593h-0.25189z"/>
  <path d="m134.76 15.612c0 0.32227 0.22596 0.51119 0.52971 0.51119 0.22226 0 0.42229-0.11854 0.5964-0.2593h7e-3l0.0259 0.21485h0.25189v-1.1039c0-0.44822-0.18522-0.74086-0.62603-0.74086-0.28893 0-0.54083 0.12595-0.70752 0.23337l0.12224 0.21114c0.14077-0.09631 0.32598-0.19262 0.53713-0.19262 0.29263 0 0.37043 0.22226 0.37043 0.45192-0.76679 0.0852-1.1076 0.28153-1.1076 0.67418zm0.30005-0.02223c0-0.22967 0.20373-0.37784 0.80754-0.45192v0.50008c-0.17411 0.15558-0.31857 0.24078-0.49268 0.24078-0.1778 0-0.31486-0.0852-0.31486-0.28894z"/>
  <path d="m136.54 15.875c0.1704 0.14076 0.41488 0.24819 0.67048 0.24819 0.42599 0 0.65936-0.24448 0.65936-0.53712 0-0.3408-0.28893-0.44822-0.54823-0.54453-0.20374-0.07779-0.40007-0.14447-0.40007-0.31116 0-0.13706 0.10372-0.2593 0.32969-0.2593 0.15928 0 0.28893 0.06668 0.41117 0.15928l0.14447-0.19262c-0.13706-0.11113-0.33339-0.20374-0.55935-0.20374-0.38895 0-0.61862 0.22226-0.61862 0.51119 0 0.30375 0.28153 0.42599 0.53713 0.5186 0.19633 0.07409 0.41117 0.15558 0.41117 0.3408 0 0.15558-0.11853 0.28153-0.35561 0.28153-0.21485 0-0.37413-0.0889-0.52971-0.21485z"/>
  <path d="m138.35 15.523c0 0.35561 0.12965 0.6001 0.5149 0.6001 0.11113 0 0.23337-0.03334 0.33338-0.06668l-0.0593-0.22967c-0.0593 0.02223-0.14077 0.04816-0.20374 0.04816-0.20744 0-0.27782-0.12595-0.27782-0.3482v-1.0002h0.48526v-0.24819h-0.48526v-0.50378h-0.2556l-0.037 0.50378-0.28153 0.01852v0.22967h0.26671z"/>
  <path d="m139.38 15.182c0 0.58898 0.38154 0.94089 0.8631 0.94089 0.24448 0 0.43711-0.0852 0.59269-0.18522l-0.10743-0.20003c-0.13335 0.0852-0.27782 0.14076-0.44822 0.14076-0.3445 0-0.57787-0.24448-0.60009-0.63344h1.215c7e-3 -0.04445 0.0111-0.10372 0.0111-0.16669 0-0.5149-0.2593-0.84458-0.71863-0.84458-0.41118 0-0.80754 0.35932-0.80754 0.9483zm0.29634-0.13706c0.037-0.36302 0.26671-0.57046 0.5186-0.57046 0.28153 0 0.44452 0.20374 0.44452 0.57046z"/>
  <path d="m141.35 16.078h0.30376v-1.1557c0.12224-0.30375 0.30375-0.41488 0.45562-0.41488 0.0741 0 0.11484 0.01111 0.17411 0.02963l0.0593-0.26671c-0.0593-0.02593-0.11484-0.03704-0.19263-0.03704-0.20373 0-0.38895 0.14447-0.51119 0.37043h-0.0111l-0.0259-0.32598h-0.2519z"/>
 </g>
 <rect y="25.929" width="171.89" height="24.343" fill="#2f3744" fill-opacity=".50196"/>
 <g stroke-linecap="round" stroke-width=".26459">
  <g fill="#fff" aria-label="CLIENT">
   <path d="m4.0525 31.198c0 0.81124 0.51119 1.2372 1.1372 1.2372 0.30005 0 0.56676-0.12224 0.76679-0.35561l-0.30005-0.32968c-0.11854 0.12965-0.2593 0.21485-0.45933 0.21485-0.35191 0-0.58528-0.28894-0.58528-0.78531 0-0.48526 0.26301-0.7779 0.6001-0.7779 0.1704 0 0.28523 0.07038 0.40747 0.18151l0.30005-0.33709c-0.16299-0.16669-0.41488-0.31487-0.71493-0.31487-0.62232 0-1.152 0.46674-1.152 1.2669z"/>
   <path d="m6.3161 32.391h1.5002v-0.45933h-0.95201v-1.9559h-0.54824z"/>
   <path d="m8.2262 32.391h0.54824v-2.4152h-0.54824z"/>
   <path d="m9.3403 32.391h1.5521v-0.45933h-1.0039v-0.55564h0.82235v-0.45563h-0.82235v-0.48526h0.96682v-0.45933h-1.5151z"/>
   <path d="m11.366 32.391h0.52231v-0.85569c0-0.28523-0.04445-0.6075-0.07038-0.87422h0.01482l0.23708 0.52601 0.62973 1.2039h0.55935v-2.4152h-0.5186v0.85199c0 0.28523 0.04445 0.62603 0.07038 0.88162h-0.01482l-0.24078-0.53342-0.62973-1.2002h-0.55935z"/>
   <path d="m14.3 32.391h0.54453v-1.9559h0.66307v-0.45933h-1.8744v0.45933h0.66677z"/>
  </g>
  <path d="m40.738 41.557-3.6948 2.1332-3.6948-2.1332v-4.2664l3.6948-2.1332 3.6948 2.1332z" fill="#1d232d" stroke="#6f8ce9"/>
  <path d="m57.137 39.556h-14.983" fill="none" stroke="#7b8694"/>
 </g>
 <g transform="matrix(-.0044049 0 0 -.0044804 43.156 40.761)" fill="#7b8694" stroke-width="59.559">
  <g fill="#7b8694" stroke-width="59.559">
   <path d="m486.41 221.41-364.07-208.5c-52.938-30.318-95.852-5.44-95.852 55.563v415.65c0 61.004 42.914 85.882 95.852 55.563l364.07-208.49c52.938-30.317 52.938-79.473 0-109.79z" fill="#7b8694" stroke-width="59.559"/>
  </g>
 </g>
 <path d="m64.551 41.557-3.6948 2.1332-3.6948-2.1332v-4.2664l3.6948-2.1332 3.6948 2.1332z" fill="#1d232d" stroke="#6f8ce9" stroke-linecap="round" stroke-width=".26459"/>
 <path d="m80.95 39.556h-14.983" fill="none" stroke="#7b8694" stroke-linecap="round" stroke-width=".26459"/>
 <g transform="matrix(-.0044049 0 0 -.0044804 66.969 40.761)" fill="#7b8694" stroke-width="59.559">
  <g fill="#7b8694" stroke-width="59.559">
   <path d="m486.41 221.41-364.07-208.5c-52.938-30.318-95.852-5.44-95.852 55.563v415.65c0 61.004 42.914 85.882 95.852 55.563l364.07-208.49c52.938-30.317 52.938-79.473 0-109.79z" fill="#7b8694" stroke-width="59.559"/>
  </g>
 </g>
 <path d="m88.364 41.557-3.6948 2.1332-3.6948-2.1332v-4.2664l3.6948-2.1332 3.6948 2.1332z" fill="#1d232d" stroke="#6f8ce9" stroke-linecap="round" stroke-width=".26459"/>
 <g fill="#e8eaec" stroke-linecap="round" stroke-width=".26459">
  <g aria-label="#cab">
   <path d="m33.734 34.288h0.20003l0.09261-0.75568h0.48897l-0.0889 0.75568h0.19633l0.09261-0.75568h0.3408v-0.21114h-0.31486l0.06668-0.54824h0.32226v-0.21485h-0.30005l0.0889-0.67789h-0.19633l-0.0889 0.67789h-0.49267l0.0852-0.67789h-0.19633l-0.0852 0.67789h-0.3408v0.21485h0.31486l-0.06668 0.54824h-0.32227v0.21114h0.29634zm0.31857-0.96682 0.06668-0.54824h0.48897l-0.06668 0.54824z"/>
   <path d="m35.409 33.392c0 0.59639 0.36673 0.94089 0.84458 0.94089 0.21485 0 0.42229-0.0889 0.58528-0.23337l-0.13706-0.20003c-0.10742 0.09631-0.25189 0.18151-0.42229 0.18151-0.32968 0-0.55564-0.27782-0.55564-0.689 0-0.41488 0.23708-0.69641 0.56305-0.69641 0.14447 0 0.2556 0.06668 0.36302 0.15928l0.15188-0.19633c-0.12224-0.11483-0.28894-0.21485-0.52601-0.21485-0.46304 0-0.86681 0.3445-0.86681 0.9483z"/>
   <path d="m37.103 33.822c0 0.32227 0.22596 0.51119 0.52972 0.51119 0.22226 0 0.42229-0.11854 0.59639-0.2593h0.0074l0.02593 0.21485h0.25189v-1.1039c0-0.44822-0.18522-0.74086-0.62603-0.74086-0.28894 0-0.54083 0.12595-0.70752 0.23337l0.12224 0.21114c0.14076-0.09631 0.32598-0.19262 0.53712-0.19262 0.29264 0 0.37043 0.22226 0.37043 0.45192-0.76679 0.0852-1.1076 0.28153-1.1076 0.67418zm0.30005-0.02222c0-0.22967 0.20374-0.37784 0.80754-0.45192v0.50008c-0.1741 0.15558-0.31857 0.24078-0.49267 0.24078-0.17781 0-0.31487-0.0852-0.31487-0.28894z"/>
   <path d="m39.087 34.288h0.24448l0.02593-0.17781h0.01111c0.15928 0.14076 0.3482 0.22226 0.5149 0.22226 0.41118 0 0.7779-0.35932 0.7779-0.97423 0-0.55564-0.24819-0.91496-0.71493-0.91496-0.20003 0-0.40006 0.10742-0.56305 0.25189l0.0074-0.32598v-0.71863h-0.30375zm0.30375-0.40006v-0.9446c0.1704-0.15928 0.32968-0.24448 0.48156-0.24448 0.3408 0 0.47415 0.26671 0.47415 0.66307 0 0.44452-0.21855 0.71493-0.5149 0.71493-0.11854 0-0.28153-0.05186-0.44081-0.18892z"/>
  </g>
  <g aria-label="#06c">
   <path d="m57.547 34.288h0.20003l0.09261-0.75568h0.48896l-0.0889 0.75568h0.19633l0.09261-0.75568h0.3408v-0.21114h-0.31486l0.06668-0.54824h0.32227v-0.21485h-0.30005l0.0889-0.67789h-0.19633l-0.0889 0.67789h-0.49267l0.0852-0.67789h-0.19633l-0.0852 0.67789h-0.3408v0.21485h0.31486l-0.06668 0.54824h-0.32227v0.21114h0.29634zm0.31857-0.96682 0.06668-0.54824h0.48897l-0.06668 0.54824z"/>
   <path d="m59.974 34.333c0.47045 0 0.75568-0.44081 0.75568-1.2335s-0.28523-1.2187-0.75568-1.2187c-0.47415 0-0.75938 0.426-0.75938 1.2187s0.28523 1.2335 0.75938 1.2335zm0-0.24448c-0.27782 0-0.46304-0.29634-0.46304-0.98905s0.18522-0.97423 0.46304-0.97423c0.27412 0 0.45933 0.28153 0.45933 0.97423s-0.18522 0.98905-0.45933 0.98905z"/>
   <path d="m61.882 34.092c-0.30005 0-0.48156-0.24819-0.5186-0.70752 0.15928-0.22226 0.3445-0.31116 0.49267-0.31116 0.29264 0 0.43711 0.19262 0.43711 0.50008 0 0.31116-0.17781 0.5186-0.41118 0.5186zm0.65566-1.9596c-0.13336-0.14447-0.31486-0.25189-0.57046-0.25189-0.47045 0-0.90014 0.36673-0.90014 1.315 0 0.75938 0.35191 1.1372 0.81495 1.1372 0.38154 0 0.70011-0.30746 0.70011-0.75938 0-0.48526-0.26671-0.72975-0.67418-0.72975-0.19262 0-0.40377 0.11483-0.55194 0.29634 0.01482-0.74827 0.29264-1.0039 0.62232-1.0039 0.14817 0 0.29264 0.07038 0.38895 0.18522z"/>
   <path d="m62.897 33.392c0 0.59639 0.36672 0.94089 0.84458 0.94089 0.21485 0 0.42229-0.0889 0.58528-0.23337l-0.13706-0.20003c-0.10742 0.09631-0.25189 0.18151-0.42229 0.18151-0.32968 0-0.55564-0.27782-0.55564-0.689 0-0.41488 0.23708-0.69641 0.56305-0.69641 0.14447 0 0.2556 0.06668 0.36302 0.15928l0.15188-0.19633c-0.12224-0.11483-0.28894-0.21485-0.52601-0.21485-0.46304 0-0.86681 0.3445-0.86681 0.9483z"/>
  </g>
  <g aria-label="#ba1">
   <path d="m81.361 34.288h0.20003l0.09261-0.75568h0.48897l-0.0889 0.75568h0.19633l0.09261-0.75568h0.3408v-0.21114h-0.31487l0.06668-0.54824h0.32227v-0.21485h-0.30005l0.0889-0.67789h-0.19634l-0.0889 0.67789h-0.49267l0.0852-0.67789h-0.19633l-0.0852 0.67789h-0.3408v0.21485h0.31487l-0.06668 0.54824h-0.32227v0.21114h0.29634zm0.31857-0.96682 0.06668-0.54824h0.48897l-0.06668 0.54824z"/>
   <path d="m83.169 34.288h0.24448l0.02593-0.17781h0.01111c0.15928 0.14076 0.3482 0.22226 0.5149 0.22226 0.41118 0 0.7779-0.35932 0.7779-0.97423 0-0.55564-0.24819-0.91496-0.71493-0.91496-0.20003 0-0.40006 0.10742-0.56305 0.25189l0.0074-0.32598v-0.71863h-0.30375zm0.30375-0.40006v-0.9446c0.1704-0.15928 0.32968-0.24448 0.48156-0.24448 0.3408 0 0.47415 0.26671 0.47415 0.66307 0 0.44452-0.21855 0.71493-0.5149 0.71493-0.11854 0-0.28153-0.05186-0.44081-0.18892z"/>
   <path d="m85.084 33.822c0 0.32227 0.22596 0.51119 0.52972 0.51119 0.22226 0 0.42229-0.11854 0.59639-0.2593h0.0074l0.02593 0.21485h0.25189v-1.1039c0-0.44822-0.18522-0.74086-0.62603-0.74086-0.28894 0-0.54083 0.12595-0.70752 0.23337l0.12224 0.21114c0.14076-0.09631 0.32598-0.19262 0.53712-0.19262 0.29264 0 0.37043 0.22226 0.37043 0.45192-0.76679 0.0852-1.1076 0.28153-1.1076 0.67418zm0.30005-0.02222c0-0.22967 0.20374-0.37784 0.80754-0.45192v0.50008c-0.1741 0.15558-0.31857 0.24078-0.49267 0.24078-0.17781 0-0.31487-0.0852-0.31487-0.28894z"/>
   <path d="m87.057 34.288h1.3335v-0.25189h-0.48897v-2.1115h-0.23337c-0.12965 0.07779-0.28523 0.13706-0.50008 0.1741v0.19633h0.4297v1.741h-0.54083z"/>
  </g>
  <g stroke="#cf2f25" aria-label="A">
   <path d="m39.848 44.148 0.11854-0.37043c0.0852-0.27041 0.16299-0.53712 0.24078-0.81865h0.01482c0.07779 0.28153 0.15558 0.54824 0.24078 0.81865l0.11483 0.37043zm1.0409 0.98905h0.32598l-0.82236-2.43h-0.3482l-0.82236 2.43h0.31487l0.23337-0.74086h0.88533z" fill="#e8eaec" stroke="none"/>
  </g>
  <g stroke="#cf2f25" aria-label="B">
   <path d="m63.357 45.137h0.7779c0.54083 0 0.91867-0.23337 0.91867-0.71123 0-0.33339-0.20744-0.52601-0.56305-0.58158v-0.01482c0.28894-0.07409 0.426-0.28894 0.426-0.52972 0-0.42599-0.3445-0.59269-0.83717-0.59269h-0.72234zm0.31116-1.3928v-0.79272h0.37413c0.37413 0 0.57046 0.11113 0.57046 0.37413 0 0.27041-0.1741 0.41859-0.58528 0.41859zm0 1.1483v-0.91867h0.42229c0.42599 0 0.65936 0.13706 0.65936 0.43711 0 0.32968-0.24448 0.48156-0.65936 0.48156z" fill="#e8eaec" stroke="none"/>
  </g>
  <g stroke="#cf2f25" aria-label="C">
   <path d="m87.03 43.922c0 0.79272 0.45563 1.2595 1.0668 1.2595 0.30746 0 0.54824-0.12965 0.73716-0.35191l-0.1741-0.18892c-0.15558 0.1741-0.32598 0.27041-0.55564 0.27041-0.46304 0-0.75568-0.38525-0.75568-0.99646 0-0.6038 0.30746-0.98164 0.77049-0.98164 0.20003 0 0.35561 0.0889 0.48526 0.22596l0.1741-0.19633c-0.14447-0.15928-0.37414-0.30005-0.66307-0.30005-0.62232 0-1.0854 0.47785-1.0854 1.2595z" fill="#e8eaec" stroke="none"/>
  </g>
 </g>
 <path d="m107.96 39.459c-1.4378-0.18929-2.7478 0.81585-2.9371 2.2537-0.18929 1.4378 0.81585 2.7478 2.2537 2.9371l9.7471 1.2832c1.4378 0.18929 2.7478-0.81586 2.9371-2.2537 0.18932-1.4378-0.81582-2.7478-2.2537-2.9371z" fill="#1d232d" stroke="#7893ea" stroke-width=".26459"/>
 <path d="m104.98 41.707-14.854-1.9556" fill="none" stroke="#6f8ce9" stroke-linecap="round" stroke-width=".26459"/>
 <g>
  <g transform="matrix(-.0043673 -.00057496 .00058481 -.004442 90.964 41.077)" fill="#6f8ce9" stroke-width="59.559">
   <g fill="#6f8ce9" stroke-width="59.559">
    <path d="m486.41 221.41-364.07-208.5c-52.938-30.318-95.852-5.44-95.852 55.563v415.65c0 61.004 42.914 85.882 95.852 55.563l364.07-208.49c52.938-30.317 52.938-79.473 0-109.79z" fill="#6f8ce9" stroke-width="59.559"/>
   </g>
  </g>
  <g transform="rotate(7.5)" fill="#e8eaec" stroke-linecap="round" stroke-width=".26459" aria-label="master">
   <path d="m111.89 28.733h0.30376v-1.3039c0.16669-0.18522 0.31857-0.27782 0.45192-0.27782 0.22967 0 0.33709 0.14447 0.33709 0.48156v1.1002h0.30376v-1.3039c0.16669-0.18522 0.31116-0.27782 0.45192-0.27782 0.22596 0 0.33339 0.14447 0.33339 0.48156v1.1002h0.30375v-1.1409c0-0.45933-0.17781-0.70382-0.54824-0.70382-0.21855 0-0.40376 0.14076-0.59268 0.3445-0.0741-0.21485-0.22226-0.3445-0.49638-0.3445-0.21485 0-0.40377 0.13336-0.55935 0.30375h-0.0111l-0.0259-0.2593h-0.2519z"/>
   <path d="m114.87 28.267c0 0.32227 0.22596 0.51119 0.52971 0.51119 0.22226 0 0.42229-0.11854 0.59639-0.2593h7e-3l0.0259 0.21485h0.25189v-1.1039c0-0.44822-0.18521-0.74086-0.62602-0.74086-0.28894 0-0.54083 0.12595-0.70752 0.23337l0.12224 0.21114c0.14076-0.09631 0.32598-0.19262 0.53712-0.19262 0.29264 0 0.37043 0.22226 0.37043 0.45192-0.76679 0.0852-1.1076 0.28153-1.1076 0.67418zm0.30004-0.02223c0-0.22967 0.20374-0.37784 0.80754-0.45192v0.50008c-0.1741 0.15558-0.31857 0.24078-0.49267 0.24078-0.17781 0-0.31487-0.0852-0.31487-0.28894z"/>
   <path d="m116.65 28.53c0.17039 0.14076 0.41488 0.24819 0.67047 0.24819 0.426 0 0.65937-0.24448 0.65937-0.53712 0-0.3408-0.28894-0.44822-0.54824-0.54453-0.20373-0.07779-0.40006-0.14447-0.40006-0.31116 0-0.13706 0.10372-0.2593 0.32968-0.2593 0.15929 0 0.28894 0.06668 0.41118 0.15928l0.14447-0.19262c-0.13706-0.11113-0.33339-0.20374-0.55935-0.20374-0.38895 0-0.61862 0.22226-0.61862 0.51119 0 0.30375 0.28153 0.42599 0.53712 0.5186 0.19633 0.07409 0.41118 0.15558 0.41118 0.3408 0 0.15558-0.11854 0.28153-0.35561 0.28153-0.21485 0-0.37414-0.0889-0.52972-0.21485z"/>
   <path d="m118.46 28.178c0 0.35561 0.12966 0.6001 0.5149 0.6001 0.11113 0 0.23337-0.03334 0.33339-0.06668l-0.0593-0.22967c-0.0593 0.02223-0.14076 0.04816-0.20374 0.04816-0.20744 0-0.27782-0.12595-0.27782-0.3482v-1.0002h0.48526v-0.24819h-0.48526v-0.50378h-0.2556l-0.037 0.50378-0.28152 0.01852v0.22967h0.2667z"/>
   <path d="m119.49 27.837c0 0.58898 0.38155 0.94089 0.86311 0.94089 0.24448 0 0.4371-0.0852 0.59268-0.18522l-0.10742-0.20003c-0.13336 0.0852-0.27782 0.14076-0.44822 0.14076-0.3445 0-0.57787-0.24448-0.6001-0.63344h1.215c7e-3 -0.04445 0.0111-0.10372 0.0111-0.16669 0-0.5149-0.2593-0.84458-0.71863-0.84458-0.41118 0-0.80754 0.35932-0.80754 0.9483zm0.29635-0.13706c0.037-0.36302 0.26671-0.57046 0.5186-0.57046 0.28153 0 0.44452 0.20374 0.44452 0.57046z"/>
   <path d="m121.46 28.733h0.30375v-1.1557c0.12224-0.30375 0.30375-0.41488 0.45563-0.41488 0.0741 0 0.11483 0.01111 0.1741 0.02963l0.0593-0.26671c-0.0593-0.02593-0.11483-0.03704-0.19262-0.03704-0.20374 0-0.38895 0.14447-0.5112 0.37043h-0.0111l-0.0259-0.32598h-0.25189z"/>
  </g>
  <path d="m80.975 48.172v-2.1497l3.6948-2.1332 3.6948 2.1332v2.1497z" fill="#e9e56f"/>
  <path d="m107.01 32.387c-1.4378 0.1893-2.443 1.4992-2.2537 2.9371 0.18931 1.4378 1.4992 2.443 2.9371 2.2537l19.784-2.6046c1.4378-0.1893 2.443-1.4992 2.2537-2.9371-0.18927-1.4378-1.4992-2.443-2.9371-2.2537z" fill="#1d232d" stroke="#7893ea" stroke-width=".26459"/>
 </g>
 <path d="m104.72 35.33-14.854 1.9556" fill="none" stroke="#6f8ce9" stroke-linecap="round" stroke-width=".26459"/>
 <g>
  <g transform="matrix(-.0043673 .00057496 -.00058481 -.004442 91.014 38.35)" fill="#6f8ce9" stroke-width="59.559">
   <g fill="#6f8ce9" stroke-width="59.559">
    <path d="m486.41 221.41-364.07-208.5c-52.938-30.318-95.852-5.44-95.852 55.563v415.65c0 61.004 42.914 85.882 95.852 55.563l364.07-208.49c52.938-30.317 52.938-79.473 0-109.79z" fill="#6f8ce9" stroke-width="59.559"/>
   </g>
  </g>
  <g transform="rotate(-7.5)" fill="#e8eaec" stroke-linecap="round" stroke-width=".26459" aria-label="origin/master">
   <path d="m101.48 48.725c0 0.59639 0.39265 0.94089 0.83346 0.94089s0.83347-0.3445 0.83347-0.94089c0-0.6038-0.39266-0.9483-0.83347-0.9483s-0.83346 0.3445-0.83346 0.9483zm0.31486 0c0-0.41488 0.21115-0.69641 0.5186-0.69641 0.31116 0 0.51861 0.28153 0.51861 0.69641 0 0.41118-0.20745 0.689-0.51861 0.689-0.30745 0-0.5186-0.27782-0.5186-0.689z"/>
   <path d="m103.63 49.622h0.30375v-1.1557c0.12224-0.30375 0.30375-0.41488 0.45563-0.41488 0.0741 0 0.11483 0.01111 0.1741 0.02963l0.0593-0.26671c-0.0593-0.02593-0.11483-0.03704-0.19262-0.03704-0.20374 0-0.38895 0.14447-0.51119 0.37043h-0.0111l-0.0259-0.32598h-0.25189z"/>
   <path d="m105.07 47.451c0.11854 0 0.21115-0.0815 0.21115-0.19633 0-0.11854-0.0926-0.19633-0.21115-0.19633-0.11853 0-0.21114 0.07779-0.21114 0.19633 0 0.11483 0.0926 0.19633 0.21114 0.19633zm-0.15558 2.1707h0.30376v-1.8003h-0.30376z"/>
   <path d="m105.96 49.925c0-0.10372 0.0556-0.21114 0.18521-0.30375 0.0778 0.02223 0.16299 0.02963 0.23337 0.02963h0.31117c0.23337 0 0.36302 0.05557 0.36302 0.22226 0 0.18892-0.22597 0.36673-0.57047 0.36673-0.32597 0-0.5223-0.12224-0.5223-0.31487zm-0.26671 0.04075c0 0.31116 0.30375 0.48526 0.74456 0.48526 0.55935 0 0.91126-0.28894 0.91126-0.62232 0-0.30005-0.21114-0.4297-0.62973-0.4297h-0.3482c-0.24449 0-0.31857-0.08149-0.31857-0.19633 0-0.10002 0.0519-0.15928 0.11483-0.21485 0.0815 0.04075 0.18151 0.06297 0.27041 0.06297 0.36673 0 0.65937-0.24078 0.65937-0.62603 0-0.15188-0.063-0.28894-0.14817-0.37043h0.37043v-0.23337h-0.62603c-0.0667-0.02593-0.15558-0.04445-0.2556-0.04445-0.36672 0-0.67788 0.24819-0.67788 0.64084 0 0.21485 0.11483 0.38895 0.23337 0.48526v0.01482c-0.0926 0.06297-0.19633 0.18151-0.19633 0.33339 0 0.14076 0.0704 0.23708 0.15928 0.29264v0.01482c-0.16299 0.11113-0.263 0.2556-0.263 0.40747zm0.74456-1.1187c-0.20744 0-0.38154-0.16669-0.38154-0.4297 0-0.263 0.1704-0.41859 0.38154-0.41859 0.21115 0 0.38155 0.15558 0.38155 0.41859 0 0.26301-0.17411 0.4297-0.38155 0.4297z"/>
   <path d="m107.85 47.451c0.11854 0 0.21114-0.0815 0.21114-0.19633 0-0.11854-0.0926-0.19633-0.21114-0.19633s-0.21115 0.07779-0.21115 0.19633c0 0.11483 0.0926 0.19633 0.21115 0.19633zm-0.15558 2.1707h0.30375v-1.8003h-0.30375z"/>
   <path d="m108.61 49.622h0.30376v-1.3039c0.18151-0.18151 0.30745-0.27782 0.49267-0.27782 0.23707 0 0.34079 0.14447 0.34079 0.48156v1.1002h0.30376v-1.1409c0-0.45933-0.1704-0.70382-0.54824-0.70382-0.24819 0-0.4334 0.13336-0.6038 0.30375h-0.0111l-0.0259-0.2593h-0.2519z"/>
   <path d="m110.37 50.214h0.22596l0.98535-3.2227h-0.22226z"/>
   <path d="m111.93 49.622h0.30375v-1.3039c0.1667-0.18522 0.31857-0.27782 0.45193-0.27782 0.22966 0 0.33709 0.14447 0.33709 0.48156v1.1002h0.30375v-1.3039c0.16669-0.18522 0.31116-0.27782 0.45193-0.27782 0.22596 0 0.33338 0.14447 0.33338 0.48156v1.1002h0.30376v-1.1409c0-0.45933-0.17781-0.70382-0.54824-0.70382-0.21856 0-0.40377 0.14076-0.59269 0.3445-0.0741-0.21485-0.22226-0.3445-0.49638-0.3445-0.21484 0-0.40376 0.13336-0.55934 0.30375h-0.0111l-0.0259-0.2593h-0.25189z"/>
   <path d="m114.91 49.155c0 0.32227 0.22596 0.51119 0.52971 0.51119 0.22226 0 0.42229-0.11854 0.5964-0.2593h7e-3l0.0259 0.21485h0.25189v-1.1039c0-0.44822-0.18522-0.74086-0.62603-0.74086-0.28893 0-0.54083 0.12595-0.70752 0.23337l0.12224 0.21114c0.14077-0.09631 0.32598-0.19262 0.53713-0.19262 0.29264 0 0.37043 0.22226 0.37043 0.45192-0.76679 0.0852-1.1076 0.28153-1.1076 0.67418zm0.30005-0.02223c0-0.22967 0.20373-0.37784 0.80754-0.45192v0.50008c-0.17411 0.15558-0.31857 0.24078-0.49268 0.24078-0.1778 0-0.31486-0.0852-0.31486-0.28894z"/>
   <path d="m116.69 49.418c0.1704 0.14076 0.41488 0.24819 0.67048 0.24819 0.42599 0 0.65936-0.24448 0.65936-0.53712 0-0.3408-0.28893-0.44822-0.54823-0.54453-0.20374-0.07779-0.40007-0.14447-0.40007-0.31116 0-0.13706 0.10372-0.2593 0.32969-0.2593 0.15928 0 0.28893 0.06668 0.41117 0.15928l0.14447-0.19262c-0.13706-0.11113-0.33339-0.20374-0.55935-0.20374-0.38895 0-0.61862 0.22226-0.61862 0.51119 0 0.30375 0.28153 0.42599 0.53713 0.5186 0.19633 0.07409 0.41117 0.15558 0.41117 0.3408 0 0.15558-0.11853 0.28153-0.35561 0.28153-0.21485 0-0.37413-0.0889-0.52971-0.21485z"/>
   <path d="m118.5 49.066c0 0.35561 0.12965 0.6001 0.5149 0.6001 0.11113 0 0.23337-0.03334 0.33338-0.06668l-0.0593-0.22967c-0.0593 0.02223-0.14076 0.04816-0.20373 0.04816-0.20744 0-0.27782-0.12595-0.27782-0.3482v-1.0002h0.48526v-0.24819h-0.48526v-0.50378h-0.2556l-0.037 0.50378-0.28153 0.01852v0.22967h0.26671z"/>
   <path d="m119.53 48.725c0 0.58898 0.38154 0.94089 0.8631 0.94089 0.24448 0 0.43711-0.0852 0.59269-0.18522l-0.10743-0.20003c-0.13335 0.0852-0.27782 0.14076-0.44822 0.14076-0.3445 0-0.57787-0.24448-0.60009-0.63344h1.215c7e-3 -0.04445 0.0111-0.10372 0.0111-0.16669 0-0.5149-0.2593-0.84458-0.71863-0.84458-0.41118 0-0.80754 0.35932-0.80754 0.9483zm0.29634-0.13706c0.0371-0.36302 0.26671-0.57046 0.5186-0.57046 0.28153 0 0.44452 0.20374 0.44452 0.57046z"/>
   <path d="m121.5 49.622h0.30376v-1.1557c0.12224-0.30375 0.30375-0.41488 0.45562-0.41488 0.0741 0 0.11484 0.01111 0.17411 0.02963l0.0593-0.26671c-0.0593-0.02593-0.11483-0.03704-0.19262-0.03704-0.20374 0-0.38895 0.14447-0.51119 0.37043h-0.0111l-0.0259-0.32598h-0.25189z"/>
  </g>
  <g fill="#e8eaec" stroke-linecap="round" stroke-width=".26459" aria-label="git pull">
   <path d="m89.152 53.528c0-0.20374 0.1704-0.37043 0.37414-0.37043 0.20744 0 0.37413 0.16669 0.37413 0.37043 0 0.20374-0.16669 0.37043-0.37413 0.37043s-0.37414-0.16669-0.37414-0.37043zm0.38895-0.58158c-0.33709 0-0.62973 0.26671-0.62973 0.59639 0 0.18522 0.09261 0.35932 0.24819 0.45933-0.12224 0.10372-0.19262 0.21855-0.19262 0.32598 0 0.07038 0.02963 0.1704 0.13706 0.22596-0.18151 0.11483-0.27412 0.24078-0.27412 0.37414 0 0.18522 0.1704 0.40377 0.76309 0.40377 0.57417 0 0.78161-0.29264 0.78161-0.5186 0-0.14817-0.0852-0.29634-0.263-0.36672-0.17781-0.07409-0.38154-0.04816-0.57417-0.04816-0.12595 0-0.20744-0.01111-0.24078-0.02223-0.06668-0.01852-0.10372-0.05927-0.10372-0.11113 0-0.0889 0.10372-0.1741 0.12224-0.18892 0.06668 0.02593 0.14076 0.03704 0.21485 0.03704 0.33339 0 0.6075-0.26671 0.6075-0.57787 0-0.10372-0.02963-0.20374-0.0852-0.28894 0.0889-0.05186 0.19262-0.08149 0.29634-0.08149 0.03334 0 0.06297 0.0037 0.09631 0.01111l-0.02963-0.21855c-0.1704-0.01482-0.3408 0.04075-0.47045 0.14817-0.10742-0.10372-0.24819-0.15928-0.40377-0.15928zm-0.2556 1.6558c0.06297 0.0074 0.15188 0.01482 0.28153 0.02223 0.12595 0.0037 0.263-0.0074 0.35932 0.0074 0.15558 0.02593 0.20374 0.12224 0.20374 0.19633 0 0.07409-0.04445 0.16299-0.15928 0.22596-0.12595 0.06668-0.26671 0.07409-0.38154 0.07409-0.07779 0-0.22226-0.0037-0.3482-0.05557-0.13706-0.05556-0.16669-0.14817-0.16669-0.20744 0-0.12224 0.11483-0.21114 0.21114-0.26301z"/>
   <path d="m90.933 52.998v0.21855h0.40747v1.2632h-0.4297v0.21115h1.0965v-0.21115h-0.39636v-1.4817zm0.54824-0.73345c-0.10742 0-0.19262 0.0852-0.19262 0.18892 0 0.10372 0.0852 0.18892 0.19262 0.18892 0.10742 0 0.19262-0.0852 0.19262-0.18892s-0.0852-0.18892-0.19262-0.18892z"/>
   <path d="m93.089 52.546-0.03334 0.45563h-0.40377l-0.0037 0.21855h0.39636c-0.02223 0.28894-0.03334 0.57787-0.03334 0.8631 0 0.15188 0 0.32227 0.10002 0.46304 0.0815 0.11113 0.21114 0.17781 0.38525 0.17781 0.20003 0 0.39636-0.0852 0.54083-0.18892l-0.0815-0.21114c-0.14447 0.10742-0.27782 0.15558-0.38154 0.15558-0.12595 0-0.2556-0.07038-0.28523-0.27412 0-0.01482-0.01111-0.07779-0.01111-0.32598 0-0.21855 0.01111-0.44081 0.03334-0.65937h0.55564v-0.22226h-0.55194s0.02593-0.30375 0.04445-0.40006c0.0037-0.03704 0.03334-0.05927 0.01852-0.10002z"/>
   <path d="m96.316 53.002 0.0037 2.3078h0.27041v-0.84088c0.11483 0.16669 0.30375 0.27041 0.50749 0.27041 0.3482 0 0.71122-0.29264 0.71122-0.91126 0-0.59639-0.35191-0.8631-0.6853-0.8631-0.21855 0-0.42229 0.11113-0.53712 0.29634v-0.2593zm0.70752 0.18892c0.14817 0 0.50749 0.07779 0.50749 0.6927 0 0.53342-0.3482 0.61862-0.50749 0.61862s-0.32227-0.08149-0.38895-0.23337c-0.04816-0.11483-0.04816-0.2556-0.04816-0.50008 0-0.14076 0.0074-0.24448 0.04445-0.33339 0.06668-0.15188 0.22226-0.24448 0.39266-0.24448z"/>
   <path d="m98.179 53.002v0.9446c0 0.14447 0 0.29264 0.06668 0.44452 0.09631 0.22226 0.30375 0.3445 0.52601 0.3445 0.21114 0 0.41118-0.11483 0.52231-0.30005l-0.0037 0.12595c0 0.04445 0 0.0889 0.0074 0.12965h0.28153c-0.01852-0.04816-0.02223-0.10372-0.02223-0.15188v-1.5373h-0.26671v0.92978c0 0.12965-0.01111 0.22967-0.06668 0.33339-0.07779 0.14447-0.22967 0.25189-0.39266 0.25189-0.12965 0-0.2556-0.07409-0.32227-0.20744-0.05927-0.11854-0.05927-0.25189-0.05927-0.36302v-0.9446z"/>
   <path d="m100.11 52.231v0.21485h0.48155v2.0337h-0.50378v0.21115h1.2706v-0.21115h-0.50008v-2.2485z"/>
   <path d="m101.96 52.231v0.21485h0.48155v2.0337h-0.50378v0.21115h1.2706v-0.21115h-0.50008v-2.2485z"/>
  </g>
  <g transform="matrix(0 .0044049 -.0044804 0 87.498 55.504)" fill="#6f8ce9" stroke-width="59.559">
   <g fill="#6f8ce9" stroke-width="59.559">
    <path d="m486.41 221.41-364.07-208.5c-52.938-30.318-95.852-5.44-95.852 55.563v415.65c0 61.004 42.914 85.882 95.852 55.563l364.07-208.49c52.938-30.317 52.938-79.473 0-109.79z" fill="#6f8ce9" stroke-width="59.559"/>
   </g>
  </g>
  <path d="m86.257 56.093v-5.2919" fill="#1d232d" stroke="#6f8ce9" stroke-linecap="square" stroke-width=".26459"/>
  <rect transform="matrix(.70711 .70711 .70711 -.70711 0 0)" x="95.979" y="24.894" width="1.1134" height="1.1134" fill="#6f8ce9"/>
 </g>
 <rect y="57.68" width="171.89" height="28.311" fill="#2f3744" fill-opacity=".50196"/>
 <g stroke-linecap="round" stroke-width=".26459">
  <g fill="#fff" aria-label="CLIENT">
   <path d="m4.0525 63.214c0 0.81124 0.51119 1.2372 1.1372 1.2372 0.30005 0 0.56676-0.12224 0.76679-0.35561l-0.30005-0.32968c-0.11854 0.12965-0.2593 0.21485-0.45933 0.21485-0.35191 0-0.58528-0.28894-0.58528-0.78531 0-0.48526 0.26301-0.7779 0.6001-0.7779 0.1704 0 0.28523 0.07038 0.40747 0.18151l0.30005-0.33709c-0.16299-0.16669-0.41488-0.31486-0.71493-0.31486-0.62232 0-1.152 0.46674-1.152 1.2669z"/>
   <path d="m6.3161 64.406h1.5002v-0.45933h-0.95201v-1.9559h-0.54824z"/>
   <path d="m8.2262 64.406h0.54824v-2.4152h-0.54824z"/>
   <path d="m9.3403 64.406h1.5521v-0.45933h-1.0039v-0.55564h0.82235v-0.45563h-0.82235v-0.48526h0.96682v-0.45933h-1.5151z"/>
   <path d="m11.366 64.406h0.52231v-0.85569c0-0.28523-0.04445-0.6075-0.07038-0.87422h0.01482l0.23708 0.52601 0.62973 1.2039h0.55935v-2.4152h-0.5186v0.85199c0 0.28523 0.04445 0.62603 0.07038 0.88162h-0.01482l-0.24078-0.53342-0.62973-1.2002h-0.55935z"/>
   <path d="m14.3 64.406h0.54453v-1.9559h0.66307v-0.45933h-1.8744v0.45933h0.66677z"/>
  </g>
  <path d="m40.473 76.748-3.6948 2.1332-3.6948-2.1332v-4.2664l3.6948-2.1332 3.6948 2.1332z" fill="#1d232d" stroke="#6f8ce9"/>
  <path d="m56.873 74.747h-14.983" fill="none" stroke="#7b8694"/>
 </g>
 <g transform="matrix(-.0044049 0 0 -.0044804 42.891 75.952)" fill="#7b8694" stroke-width="59.559">
  <g fill="#7b8694" stroke-width="59.559">
   <path d="m486.41 221.41-364.07-208.5c-52.938-30.318-95.852-5.44-95.852 55.563v415.65c0 61.004 42.914 85.882 95.852 55.563l364.07-208.49c52.938-30.317 52.938-79.473 0-109.79z" fill="#7b8694" stroke-width="59.559"/>
  </g>
 </g>
 <path d="m64.287 76.748-3.6948 2.1332-3.6948-2.1332v-4.2664l3.6948-2.1332 3.6948 2.1332z" fill="#1d232d" stroke="#6f8ce9" stroke-linecap="round" stroke-width=".26459"/>
 <path d="m80.686 74.747h-14.983" fill="none" stroke="#7b8694" stroke-linecap="round" stroke-width=".26459"/>
 <g transform="matrix(-.0044049 0 0 -.0044804 66.704 75.952)" fill="#7b8694" stroke-width="59.559">
  <g fill="#7b8694" stroke-width="59.559">
   <path d="m486.41 221.41-364.07-208.5c-52.938-30.318-95.852-5.44-95.852 55.563v415.65c0 61.004 42.914 85.882 95.852 55.563l364.07-208.49c52.938-30.317 52.938-79.473 0-109.79z" fill="#7b8694" stroke-width="59.559"/>
  </g>
 </g>
 <path d="m88.1 76.748-3.6948 2.1332-3.6948-2.1332v-4.2664l3.6948-2.1332 3.6948 2.1332z" fill="#1d232d" stroke="#6f8ce9" stroke-linecap="round" stroke-width=".26459"/>
 <g fill="#e8eaec" stroke-linecap="round" stroke-width=".26459">
  <g aria-label="#cab">
   <path d="m33.469 69.479h0.20003l0.09261-0.75568h0.48897l-0.0889 0.75568h0.19633l0.09261-0.75568h0.3408v-0.21114h-0.31486l0.06668-0.54824h0.32227v-0.21485h-0.30005l0.0889-0.67789h-0.19633l-0.0889 0.67789h-0.49267l0.0852-0.67789h-0.19633l-0.0852 0.67789h-0.3408v0.21485h0.31486l-0.06668 0.54824h-0.32227v0.21114h0.29634zm0.31857-0.96682 0.06668-0.54824h0.48897l-0.06668 0.54824z"/>
   <path d="m35.144 68.583c0 0.59639 0.36673 0.94089 0.84458 0.94089 0.21485 0 0.42229-0.0889 0.58528-0.23337l-0.13706-0.20003c-0.10742 0.09631-0.25189 0.18151-0.42229 0.18151-0.32968 0-0.55564-0.27782-0.55564-0.689 0-0.41488 0.23708-0.69641 0.56305-0.69641 0.14447 0 0.2556 0.06668 0.36302 0.15928l0.15188-0.19633c-0.12224-0.11483-0.28894-0.21485-0.52601-0.21485-0.46304 0-0.86681 0.3445-0.86681 0.9483z"/>
   <path d="m36.838 69.012c0 0.32227 0.22596 0.51119 0.52972 0.51119 0.22226 0 0.42229-0.11854 0.59639-0.2593h0.0074l0.02593 0.21485h0.25189v-1.1039c0-0.44822-0.18522-0.74086-0.62603-0.74086-0.28894 0-0.54083 0.12595-0.70752 0.23337l0.12224 0.21114c0.14076-0.09631 0.32598-0.19262 0.53712-0.19262 0.29264 0 0.37043 0.22226 0.37043 0.45192-0.76679 0.0852-1.1076 0.28153-1.1076 0.67418zm0.30005-0.02223c0-0.22967 0.20374-0.37784 0.80754-0.45192v0.50008c-0.1741 0.15558-0.31857 0.24078-0.49267 0.24078-0.17781 0-0.31487-0.0852-0.31487-0.28894z"/>
   <path d="m38.823 69.479h0.24448l0.02593-0.17781h0.01111c0.15928 0.14076 0.3482 0.22226 0.5149 0.22226 0.41118 0 0.7779-0.35932 0.7779-0.97423 0-0.55564-0.24819-0.91496-0.71493-0.91496-0.20003 0-0.40006 0.10742-0.56305 0.25189l0.0074-0.32598v-0.71863h-0.30375zm0.30375-0.40006v-0.9446c0.1704-0.15928 0.32968-0.24448 0.48156-0.24448 0.3408 0 0.47415 0.26671 0.47415 0.66307 0 0.44452-0.21855 0.71493-0.5149 0.71493-0.11854 0-0.28153-0.05186-0.44081-0.18892z"/>
  </g>
  <g aria-label="#06c">
   <path d="m57.283 69.479h0.20003l0.09261-0.75568h0.48897l-0.0889 0.75568h0.19633l0.09261-0.75568h0.3408v-0.21114h-0.31486l0.06668-0.54824h0.32227v-0.21485h-0.30005l0.0889-0.67789h-0.19633l-0.0889 0.67789h-0.49267l0.0852-0.67789h-0.19633l-0.0852 0.67789h-0.3408v0.21485h0.31486l-0.06668 0.54824h-0.32227v0.21114h0.29634zm0.31857-0.96682 0.06668-0.54824h0.48897l-0.06668 0.54824z"/>
   <path d="m59.709 69.524c0.47045 0 0.75568-0.44081 0.75568-1.2335s-0.28523-1.2187-0.75568-1.2187c-0.47415 0-0.75938 0.426-0.75938 1.2187s0.28523 1.2335 0.75938 1.2335zm0-0.24448c-0.27782 0-0.46304-0.29634-0.46304-0.98905s0.18522-0.97423 0.46304-0.97423c0.27412 0 0.45933 0.28153 0.45933 0.97423s-0.18522 0.98905-0.45933 0.98905z"/>
   <path d="m61.617 69.283c-0.30005 0-0.48156-0.24819-0.5186-0.70752 0.15928-0.22226 0.3445-0.31116 0.49267-0.31116 0.29264 0 0.43711 0.19262 0.43711 0.50008 0 0.31116-0.17781 0.5186-0.41118 0.5186zm0.65566-1.9596c-0.13336-0.14447-0.31487-0.25189-0.57046-0.25189-0.47045 0-0.90014 0.36673-0.90014 1.315 0 0.75938 0.35191 1.1372 0.81495 1.1372 0.38154 0 0.70011-0.30746 0.70011-0.75938 0-0.48526-0.26671-0.72975-0.67418-0.72975-0.19262 0-0.40377 0.11483-0.55194 0.29634 0.01482-0.74827 0.29264-1.0039 0.62232-1.0039 0.14817 0 0.29264 0.07038 0.38895 0.18522z"/>
   <path d="m62.633 68.583c0 0.59639 0.36673 0.94089 0.84458 0.94089 0.21485 0 0.42229-0.0889 0.58528-0.23337l-0.13706-0.20003c-0.10742 0.09631-0.25189 0.18151-0.42229 0.18151-0.32968 0-0.55564-0.27782-0.55564-0.689 0-0.41488 0.23708-0.69641 0.56305-0.69641 0.14447 0 0.2556 0.06668 0.36302 0.15928l0.15188-0.19633c-0.12224-0.11483-0.28894-0.21485-0.52601-0.21485-0.46304 0-0.86681 0.3445-0.86681 0.9483z"/>
  </g>
  <g aria-label="#ba1">
   <path d="m81.096 69.479h0.20003l0.09261-0.75568h0.48897l-0.0889 0.75568h0.19633l0.09261-0.75568h0.3408v-0.21114h-0.31486l0.06668-0.54824h0.32227v-0.21485h-0.30005l0.0889-0.67789h-0.19633l-0.0889 0.67789h-0.49267l0.0852-0.67789h-0.19633l-0.0852 0.67789h-0.3408v0.21485h0.31486l-0.06668 0.54824h-0.32227v0.21114h0.29634zm0.31857-0.96682 0.06668-0.54824h0.48897l-0.06668 0.54824z"/>
   <path d="m82.904 69.479h0.24448l0.02593-0.17781h0.01111c0.15928 0.14076 0.3482 0.22226 0.5149 0.22226 0.41118 0 0.7779-0.35932 0.7779-0.97423 0-0.55564-0.24819-0.91496-0.71493-0.91496-0.20003 0-0.40006 0.10742-0.56305 0.25189l0.0074-0.32598v-0.71863h-0.30374zm0.30375-0.40006v-0.9446c0.1704-0.15928 0.32968-0.24448 0.48156-0.24448 0.3408 0 0.47415 0.26671 0.47415 0.66307 0 0.44452-0.21855 0.71493-0.5149 0.71493-0.11854 0-0.28153-0.05186-0.44081-0.18892z"/>
   <path d="m84.819 69.012c0 0.32227 0.22596 0.51119 0.52972 0.51119 0.22226 0 0.42229-0.11854 0.59639-0.2593h0.0074l0.02593 0.21485h0.25189v-1.1039c0-0.44822-0.18522-0.74086-0.62603-0.74086-0.28894 0-0.54083 0.12595-0.70752 0.23337l0.12224 0.21114c0.14076-0.09631 0.32598-0.19262 0.53712-0.19262 0.29264 0 0.37043 0.22226 0.37043 0.45192-0.76679 0.0852-1.1076 0.28153-1.1076 0.67418zm0.30005-0.02223c0-0.22967 0.20374-0.37784 0.80754-0.45192v0.50008c-0.1741 0.15558-0.31857 0.24078-0.49267 0.24078-0.17781 0-0.31487-0.0852-0.31487-0.28894z"/>
   <path d="m86.793 69.479h1.3335v-0.25189h-0.48897v-2.1115h-0.23337c-0.12965 0.07779-0.28523 0.13706-0.50008 0.1741v0.19633h0.4297v1.741h-0.54083z"/>
  </g>
 </g>
 <path d="m104.5 74.747h-14.983" fill="none" stroke="#7b8694" stroke-linecap="round" stroke-width=".26459"/>
 <g transform="matrix(-.0044049 0 0 -.0044804 90.518 75.952)" fill="#7b8694" stroke-width="59.559">
  <g fill="#7b8694" stroke-width="59.559">
   <path d="m486.41 221.41-364.07-208.5c-52.938-30.318-95.852-5.44-95.852 55.563v415.65c0 61.004 42.914 85.882 95.852 55.563l364.07-208.49c52.938-30.317 52.938-79.473 0-109.79z" fill="#7b8694" stroke-width="59.559"/>
  </g>
 </g>
 <path d="m111.91 76.748-3.6948 2.1332-3.6948-2.1332v-4.2664l3.6948-2.1332 3.6948 2.1332z" fill="#1d232d" stroke="#6f8ce9" stroke-linecap="round" stroke-width=".26459"/>
 <g fill="#e8eaec" stroke-linecap="round" stroke-width=".26459">
  <g aria-label="#cc2">
   <path d="m105.17 69.479h0.20003l0.0926-0.75568h0.48897l-0.0889 0.75568h0.19633l0.0926-0.75568h0.34079v-0.21114h-0.31486l0.0667-0.54824h0.32227v-0.21485h-0.30005l0.0889-0.67789h-0.19632l-0.0889 0.67789h-0.49267l0.0852-0.67789h-0.19633l-0.0852 0.67789h-0.34079v0.21485h0.31486l-0.0667 0.54824h-0.32228v0.21114h0.29635zm0.31857-0.96682 0.0667-0.54824h0.48896l-0.0667 0.54824z"/>
   <path d="m106.85 68.583c0 0.59639 0.36673 0.94089 0.84458 0.94089 0.21485 0 0.42229-0.0889 0.58528-0.23337l-0.13706-0.20003c-0.10742 0.09631-0.25189 0.18151-0.42229 0.18151-0.32968 0-0.55565-0.27782-0.55565-0.689 0-0.41488 0.23708-0.69641 0.56306-0.69641 0.14447 0 0.2556 0.06668 0.36302 0.15928l0.15188-0.19633c-0.12225-0.11483-0.28894-0.21485-0.52601-0.21485-0.46304 0-0.86681 0.3445-0.86681 0.9483z"/>
   <path d="m108.45 68.583c0 0.59639 0.36673 0.94089 0.84458 0.94089 0.21485 0 0.42229-0.0889 0.58528-0.23337l-0.13706-0.20003c-0.10742 0.09631-0.25189 0.18151-0.42229 0.18151-0.32968 0-0.55564-0.27782-0.55564-0.689 0-0.41488 0.23707-0.69641 0.56305-0.69641 0.14447 0 0.2556 0.06668 0.36302 0.15928l0.15188-0.19633c-0.12224-0.11483-0.28894-0.21485-0.52601-0.21485-0.46304 0-0.86681 0.3445-0.86681 0.9483z"/>
   <path d="m110.12 69.479h1.5262v-0.263h-0.68529c-0.12225 0-0.26671 0.01111-0.39636 0.02223 0.55935-0.58528 0.96311-1.0261 0.96311-1.4706 0-0.41859-0.27041-0.69641-0.70752-0.69641-0.30745 0-0.5186 0.14447-0.71493 0.35932l0.17411 0.1741c0.13705-0.15928 0.30745-0.28523 0.50378-0.28523 0.30005 0 0.44822 0.19262 0.44822 0.46304 0 0.38154-0.40006 0.80754-1.1113 1.5151z"/>
  </g>
  <g stroke="#cf2f25" aria-label="A">
   <path d="m39.583 79.338 0.11854-0.37043c0.0852-0.27041 0.16299-0.53712 0.24078-0.81865h0.01482c0.07779 0.28153 0.15558 0.54824 0.24078 0.81865l0.11483 0.37043zm1.0409 0.98905h0.32598l-0.82236-2.43h-0.3482l-0.82236 2.43h0.31487l0.23337-0.74086h0.88533z" fill="#e8eaec" stroke="none"/>
  </g>
  <g stroke="#cf2f25" aria-label="B">
   <path d="m63.093 80.327h0.7779c0.54083 0 0.91867-0.23337 0.91867-0.71122 0-0.33339-0.20744-0.52601-0.56305-0.58158v-0.01482c0.28894-0.07409 0.426-0.28894 0.426-0.52972 0-0.426-0.3445-0.59269-0.83717-0.59269h-0.72234zm0.31116-1.3928v-0.79272h0.37413c0.37413 0 0.57046 0.11113 0.57046 0.37413 0 0.27041-0.1741 0.41859-0.58528 0.41859zm0 1.1483v-0.91867h0.42229c0.42599 0 0.65936 0.13706 0.65936 0.43711 0 0.32968-0.24448 0.48156-0.65936 0.48156z" fill="#e8eaec" stroke="none"/>
  </g>
  <g stroke="#cf2f25" aria-label="C">
   <path d="m86.765 79.112c0 0.79272 0.45563 1.2595 1.0668 1.2595 0.30746 0 0.54824-0.12965 0.73716-0.35191l-0.1741-0.18892c-0.15558 0.1741-0.32598 0.27041-0.55564 0.27041-0.46304 0-0.75568-0.38525-0.75568-0.99646 0-0.6038 0.30746-0.98164 0.77049-0.98164 0.20003 0 0.35561 0.0889 0.48526 0.22596l0.1741-0.19633c-0.14447-0.15928-0.37414-0.30005-0.66307-0.30005-0.62232 0-1.0854 0.47786-1.0854 1.2595z" fill="#e8eaec" stroke="none"/>
  </g>
  <g stroke="#cf2f25" aria-label="D">
   <path d="m110.72 80.327h0.62232c0.73345 0 1.1335-0.45192 1.1335-1.2261 0-0.77049-0.40007-1.2039-1.1483-1.2039h-0.6075zm0.31116-0.25189v-1.9262h0.27412c0.57046 0 0.85199 0.3408 0.85199 0.952 0 0.61491-0.28153 0.97423-0.85199 0.97423z" fill="#e8eaec" stroke="none"/>
  </g>
 </g>
 <path d="m104.52 83.362v-2.1497l3.6948-2.1332 3.6948 2.1332v2.1497z" fill="#e9e56f"/>
 <path d="m131.25 75.179c-1.4378-0.1893-2.7478 0.81585-2.9371 2.2537-0.18929 1.4378 0.81585 2.7478 2.2537 2.9371l9.7471 1.2832c1.4378 0.1893 2.7478-0.81586 2.9371-2.2537 0.18932-1.4378-0.81582-2.7478-2.2537-2.9371z" fill="#1d232d" stroke="#7893ea" stroke-width=".26459"/>
 <path d="m128.27 77.427-14.854-1.9556" fill="none" stroke="#6f8ce9" stroke-linecap="round" stroke-width=".26459"/>
 <g>
  <g transform="matrix(-.0043673 -.00057496 .00058481 -.004442 114.25 76.797)" fill="#6f8ce9" stroke-width="59.559">
   <g fill="#6f8ce9" stroke-width="59.559">
    <path d="m486.41 221.41-364.07-208.5c-52.938-30.318-95.852-5.44-95.852 55.563v415.65c0 61.004 42.914 85.882 95.852 55.563l364.07-208.49c52.938-30.317 52.938-79.473 0-109.79z" fill="#6f8ce9" stroke-width="59.559"/>
   </g>
  </g>
  <g transform="rotate(7.5)" fill="#e8eaec" stroke-linecap="round" stroke-width=".26459" aria-label="master">
   <path d="m139.64 61.109h0.30375v-1.3039c0.1667-0.18522 0.31857-0.27782 0.45193-0.27782 0.22966 0 0.33709 0.14447 0.33709 0.48156v1.1002h0.30375v-1.3039c0.16669-0.18522 0.31116-0.27782 0.45192-0.27782 0.22597 0 0.33339 0.14447 0.33339 0.48156v1.1002h0.30375v-1.1409c0-0.45933-0.1778-0.70382-0.54823-0.70382-0.21856 0-0.40377 0.14076-0.59269 0.3445-0.0741-0.21485-0.22226-0.3445-0.49638-0.3445-0.21485 0-0.40376 0.13336-0.55935 0.30375h-0.0111l-0.0259-0.2593h-0.25189z"/>
   <path d="m142.61 60.642c0 0.32228 0.22596 0.51119 0.52971 0.51119 0.22226 0 0.42229-0.11854 0.5964-0.2593h7e-3l0.0259 0.21485h0.25189v-1.1039c0-0.44822-0.18522-0.74086-0.62603-0.74086-0.28893 0-0.54083 0.12595-0.70752 0.23337l0.12224 0.21114c0.14076-0.09631 0.32598-0.19262 0.53712-0.19262 0.29264 0 0.37043 0.22226 0.37043 0.45192-0.76679 0.0852-1.1076 0.28153-1.1076 0.67418zm0.30005-0.02222c0-0.22967 0.20373-0.37784 0.80753-0.45192v0.50008c-0.1741 0.15558-0.31856 0.24078-0.49267 0.24078-0.1778 0-0.31486-0.0852-0.31486-0.28894z"/>
   <path d="m144.4 60.905c0.1704 0.14076 0.41488 0.24819 0.67048 0.24819 0.42599 0 0.65936-0.24448 0.65936-0.53712 0-0.3408-0.28893-0.44822-0.54823-0.54453-0.20374-0.07779-0.40007-0.14447-0.40007-0.31116 0-0.13706 0.10372-0.2593 0.32969-0.2593 0.15928 0 0.28893 0.06668 0.41117 0.15928l0.14447-0.19262c-0.13706-0.11113-0.33339-0.20374-0.55935-0.20374-0.38895 0-0.61862 0.22226-0.61862 0.51119 0 0.30375 0.28153 0.426 0.53713 0.5186 0.19632 0.07409 0.41117 0.15558 0.41117 0.3408 0 0.15558-0.11853 0.28153-0.35561 0.28153-0.21485 0-0.37413-0.0889-0.52971-0.21485z"/>
   <path d="m146.21 60.553c0 0.35561 0.12965 0.6001 0.5149 0.6001 0.11113 0 0.23337-0.03334 0.33338-0.06668l-0.0593-0.22967c-0.0593 0.02223-0.14076 0.04816-0.20373 0.04816-0.20744 0-0.27782-0.12595-0.27782-0.3482v-1.0002h0.48526v-0.24819h-0.48526v-0.50378h-0.2556l-0.037 0.50378-0.28153 0.01852v0.22967h0.26671z"/>
   <path d="m147.24 60.212c0 0.58898 0.38154 0.94089 0.8631 0.94089 0.24448 0 0.43711-0.0852 0.59269-0.18522l-0.10743-0.20003c-0.13335 0.0852-0.27782 0.14076-0.44822 0.14076-0.3445 0-0.57787-0.24448-0.60009-0.63344h1.215c7e-3 -0.04445 0.0111-0.10372 0.0111-0.16669 0-0.5149-0.2593-0.84458-0.71864-0.84458-0.41117 0-0.80753 0.35932-0.80753 0.9483zm0.29634-0.13706c0.037-0.36302 0.26671-0.57046 0.5186-0.57046 0.28153 0 0.44452 0.20374 0.44452 0.57046z"/>
   <path d="m149.21 61.109h0.30376v-1.1557c0.12224-0.30375 0.30375-0.41488 0.45562-0.41488 0.0741 0 0.11484 0.01111 0.17411 0.02963l0.0593-0.26671c-0.0593-0.02593-0.11484-0.03704-0.19263-0.03704-0.20373 0-0.38895 0.14447-0.51119 0.37043h-0.0111l-0.0259-0.32598h-0.2519z"/>
  </g>
  <path d="m130.3 68.107c-1.4378 0.1893-2.443 1.4992-2.2537 2.9371 0.18931 1.4378 1.4992 2.443 2.9371 2.2537l19.784-2.6046c1.4378-0.1893 2.443-1.4992 2.2537-2.9371-0.18926-1.4378-1.4992-2.443-2.9371-2.2537z" fill="#1d232d" stroke="#7893ea" stroke-width=".26459"/>
 </g>
 <path d="m128 71.05-14.854 1.9556" fill="none" stroke="#6f8ce9" stroke-linecap="round" stroke-width=".26459"/>
 <g transform="matrix(-.0043673 .00057496 -.00058481 -.004442 114.3 74.07)" fill="#6f8ce9" stroke-width="59.559">
  <g fill="#6f8ce9" stroke-width="59.559">
   <path d="m486.41 221.41-364.07-208.5c-52.938-30.318-95.852-5.44-95.852 55.563v415.65c0 61.004 42.914 85.882 95.852 55.563l364.07-208.49c52.938-30.317 52.938-79.473 0-109.79z" fill="#6f8ce9" stroke-width="59.559"/>
  </g>
 </g>
 <g transform="rotate(-7.5)" fill="#e8eaec" stroke-linecap="round" stroke-width=".26459" aria-label="origin/master">
  <path d="m119.91 87.179c0 0.59639 0.39265 0.94089 0.83347 0.94089 0.44081 0 0.83346-0.3445 0.83346-0.94089 0-0.6038-0.39265-0.9483-0.83346-0.9483-0.44082 0-0.83347 0.3445-0.83347 0.9483zm0.31486 0c0-0.41488 0.21115-0.69641 0.51861-0.69641 0.31116 0 0.5186 0.28153 0.5186 0.69641 0 0.41118-0.20744 0.689-0.5186 0.689-0.30746 0-0.51861-0.27782-0.51861-0.689z"/>
  <path d="m122.05 88.075h0.30376v-1.1557c0.12224-0.30375 0.30375-0.41488 0.45562-0.41488 0.0741 0 0.11484 0.01111 0.17411 0.02963l0.0593-0.26671c-0.0593-0.02593-0.11484-0.03704-0.19263-0.03704-0.20373 0-0.38895 0.14447-0.51119 0.37043h-0.0111l-0.0259-0.32598h-0.2519z"/>
  <path d="m123.5 85.905c0.11853 0 0.21114-0.0815 0.21114-0.19633 0-0.11854-0.0926-0.19633-0.21114-0.19633s-0.21115 0.07779-0.21115 0.19633c0 0.11483 0.0926 0.19633 0.21115 0.19633zm-0.15558 2.1707h0.30375v-1.8003h-0.30375z"/>
  <path d="m124.38 88.379c0-0.10372 0.0556-0.21114 0.18522-0.30375 0.0778 0.02223 0.16299 0.02963 0.23337 0.02963h0.31116c0.23337 0 0.36302 0.05557 0.36302 0.22226 0 0.18892-0.22596 0.36673-0.57046 0.36673-0.32598 0-0.52231-0.12224-0.52231-0.31487zm-0.26671 0.04075c0 0.31116 0.30375 0.48526 0.74457 0.48526 0.55935 0 0.91125-0.28894 0.91125-0.62232 0-0.30005-0.21114-0.4297-0.62973-0.4297h-0.3482c-0.24449 0-0.31857-0.0815-0.31857-0.19633 0-0.10002 0.0519-0.15928 0.11483-0.21485 0.0815 0.04075 0.18151 0.06297 0.27042 0.06297 0.36672 0 0.65936-0.24078 0.65936-0.62603 0-0.15188-0.063-0.28894-0.14817-0.37043h0.37043v-0.23337h-0.62603c-0.0667-0.02593-0.15558-0.04445-0.25559-0.04445-0.36673 0-0.67789 0.24819-0.67789 0.64084 0 0.21485 0.11483 0.38895 0.23337 0.48526v0.01482c-0.0926 0.06297-0.19633 0.18151-0.19633 0.33339 0 0.14076 0.0704 0.23708 0.15929 0.29264v0.01482c-0.16299 0.11113-0.26301 0.2556-0.26301 0.40747zm0.74457-1.1187c-0.20744 0-0.38155-0.16669-0.38155-0.4297 0-0.263 0.1704-0.41859 0.38155-0.41859 0.21114 0 0.38154 0.15558 0.38154 0.41859 0 0.26301-0.1741 0.4297-0.38154 0.4297z"/>
  <path d="m126.27 85.905c0.11854 0 0.21115-0.0815 0.21115-0.19633 0-0.11854-0.0926-0.19633-0.21115-0.19633-0.11854 0-0.21114 0.07779-0.21114 0.19633 0 0.11483 0.0926 0.19633 0.21114 0.19633zm-0.15558 2.1707h0.30375v-1.8003h-0.30375z"/>
  <path d="m127.03 88.075h0.30375v-1.3039c0.18151-0.18151 0.30746-0.27782 0.49267-0.27782 0.23708 0 0.3408 0.14447 0.3408 0.48156v1.1002h0.30375v-1.1409c0-0.45933-0.1704-0.70382-0.54824-0.70382-0.24819 0-0.4334 0.13336-0.6038 0.30375h-0.0111l-0.0259-0.2593h-0.25189z"/>
  <path d="m128.79 88.668h0.22597l0.98534-3.2227h-0.22226z"/>
  <path d="m130.35 88.075h0.30376v-1.3039c0.16669-0.18522 0.31857-0.27782 0.45192-0.27782 0.22967 0 0.33709 0.14447 0.33709 0.48156v1.1002h0.30375v-1.3039c0.1667-0.18522 0.31117-0.27782 0.45193-0.27782 0.22596 0 0.33339 0.14447 0.33339 0.48156v1.1002h0.30375v-1.1409c0-0.45933-0.17781-0.70382-0.54824-0.70382-0.21855 0-0.40377 0.14076-0.59269 0.3445-0.0741-0.21485-0.22225-0.3445-0.49637-0.3445-0.21485 0-0.40377 0.13336-0.55935 0.30375h-0.0111l-0.0259-0.2593h-0.2519z"/>
  <path d="m133.33 87.608c0 0.32227 0.22597 0.51119 0.52972 0.51119 0.22226 0 0.42229-0.11854 0.59639-0.2593h7e-3l0.0259 0.21485h0.25189v-1.1039c0-0.44822-0.18521-0.74086-0.62603-0.74086-0.28893 0-0.54082 0.12595-0.70752 0.23337l0.12268 0.21114c0.14077-0.09631 0.32598-0.19262 0.53713-0.19262 0.29264 0 0.37043 0.22226 0.37043 0.45192-0.76679 0.0852-1.1076 0.28153-1.1076 0.67418zm0.30005-0.02223c0-0.22967 0.20374-0.37784 0.80754-0.45192v0.50008c-0.1741 0.15558-0.31857 0.24078-0.49267 0.24078-0.17781 0-0.31487-0.0852-0.31487-0.28894z"/>
  <path d="m135.11 87.871c0.1704 0.14076 0.41489 0.24819 0.67048 0.24819 0.426 0 0.65937-0.24448 0.65937-0.53712 0-0.3408-0.28894-0.44822-0.54824-0.54453-0.20374-0.07779-0.40006-0.14447-0.40006-0.31116 0-0.13706 0.10372-0.2593 0.32968-0.2593 0.15928 0 0.28893 0.06668 0.41118 0.15928l0.14446-0.19262c-0.13705-0.11113-0.33338-0.20374-0.55934-0.20374-0.38896 0-0.61862 0.22226-0.61862 0.51119 0 0.30375 0.28152 0.42599 0.53712 0.5186 0.19633 0.07409 0.41118 0.15558 0.41118 0.3408 0 0.15558-0.11854 0.28153-0.35561 0.28153-0.21485 0-0.37414-0.0889-0.52972-0.21485z"/>
  <path d="m136.92 87.52c0 0.35561 0.12965 0.6001 0.5149 0.6001 0.11113 0 0.23337-0.03334 0.33339-0.06668l-0.0593-0.22967c-0.0593 0.02223-0.14077 0.04816-0.20374 0.04816-0.20744 0-0.27782-0.12595-0.27782-0.3482v-1.0002h0.48526v-0.24819h-0.48526v-0.50378h-0.2556l-0.037 0.50378-0.28153 0.01852v0.22967h0.26671z"/>
  <path d="m137.95 87.179c0 0.58898 0.38154 0.94089 0.8631 0.94089 0.24449 0 0.43711-0.0852 0.59269-0.18522l-0.10742-0.20003c-0.13336 0.0852-0.27783 0.14076-0.44822 0.14076-0.3445 0-0.57787-0.24448-0.6001-0.63344h1.215c7e-3 -0.04445 0.0111-0.10372 0.0111-0.16669 0-0.5149-0.2593-0.84458-0.71863-0.84458-0.41118 0-0.80754 0.35932-0.80754 0.9483zm0.29635-0.13706c0.037-0.36302 0.26671-0.57046 0.5186-0.57046 0.28152 0 0.44451 0.20374 0.44451 0.57046z"/>
  <path d="m139.92 88.075h0.30375v-1.1557c0.12224-0.30375 0.30375-0.41488 0.45563-0.41488 0.0741 0 0.11483 0.01111 0.1741 0.02963l0.0593-0.26671c-0.0593-0.02593-0.11484-0.03704-0.19263-0.03704-0.20373 0-0.38895 0.14447-0.51119 0.37043h-0.0111l-0.0259-0.32598h-0.25189z"/>
 </g>
</svg>
