<?xml version="1.0" encoding="UTF-8"?>
<svg width="649.64" height="325" version="1.1" viewBox="0 0 171.89 85.994" xmlns="http://www.w3.org/2000/svg" xmlns:cc="http://creativecommons.org/ns#" xmlns:dc="http://purl.org/dc/elements/1.1/" xmlns:rdf="http://www.w3.org/1999/02/22-rdf-syntax-ns#">
 <metadata>
  <rdf:RDF>
   <cc:Work rdf:about="">
    <dc:format>image/svg+xml</dc:format>
    <dc:type rdf:resource="http://purl.org/dc/dcmitype/StillImage"/>
    <dc:title/>
   </cc:Work>
  </rdf:RDF>
 </metadata>
 <rect x="-.0013745" width="171.89" height="23.814" fill="#2f3744" fill-opacity=".50196"/>
 <g stroke-linecap="round" stroke-width=".2646">
  <g fill="#fff" aria-label="REMOTE">
   <path d="m4.7143 4.4796h0.27783c0.28524 0 0.44082 0.081496 0.44082 0.31857 0 0.23708-0.15558 0.35932-0.44082 0.35932h-0.27783zm1.3706 1.9818-0.54454-0.96684c0.2556-0.11484 0.42971-0.3408 0.42971-0.69642 0-0.57418-0.4223-0.75199-0.9335-0.75199h-0.87052v2.4152h0.54825v-0.87052h0.29635l0.46304 0.87052z"/>
   <path d="m6.4451 6.4614h1.5521v-0.45934h-1.0039v-0.55565h0.82237v-0.45564h-0.82237v-0.48527h0.96684v-0.45934h-1.5151z"/>
   <path d="m8.4709 6.4614h0.50379v-0.88534c0-0.23708-0.044452-0.58899-0.070383-0.82237h0.014817l0.19263 0.55936 0.37044 0.9372h0.21856l0.37414-0.9372 0.19633-0.55936h0.01482c-0.02593 0.23337-0.07038 0.58529-0.07038 0.82237v0.88534h0.5112v-2.4152h-0.57788l-0.39267 1.0854-0.14447 0.4223h-0.014817l-0.14447-0.4223-0.40378-1.0854h-0.57788z"/>
   <path d="m12.274 6.5059c0.65197 0 1.0965-0.47416 1.0965-1.2632 0-0.78532-0.44452-1.241-1.0965-1.241-0.64826 0-1.0965 0.45193-1.0965 1.241s0.44823 1.2632 1.0965 1.2632zm0-0.47045c-0.32598 0-0.53713-0.30746-0.53713-0.79273 0-0.48157 0.21115-0.77051 0.53713-0.77051 0.32969 0 0.53713 0.28894 0.53713 0.77051 0 0.48527-0.20744 0.79273-0.53713 0.79273z"/>
   <path d="m14.227 6.4614h0.54454v-1.9559h0.66308v-0.45934h-1.8744v0.45934h0.66678z"/>
   <path d="m15.807 6.4614h1.5521v-0.45934h-1.0039v-0.55565h0.82237v-0.45564h-0.82237v-0.48527h0.96684v-0.45934h-1.5151z"/>
  </g>
  <path d="m38.091 16.951-3.6949 2.1332-3.6949-2.1332v-4.2665l3.6949-2.1332 3.6949 2.1332z" fill="#1d232d" stroke="#6f8ce9"/>
  <path d="m54.491 14.95h-14.983" fill="none" stroke="#7b8694"/>
 </g>
 <g transform="matrix(-.004405 0 0 -.0044805 40.509 16.155)" fill="#7b8694" stroke-width="59.559">
  <g fill="#7b8694" stroke-width="59.559">
   <path d="m486.41 221.41-364.07-208.5c-52.938-30.318-95.852-5.44-95.852 55.563v415.65c0 61.004 42.914 85.882 95.852 55.563l364.07-208.49c52.938-30.317 52.938-79.473 0-109.79z" fill="#7b8694" stroke-width="59.559"/>
  </g>
 </g>
 <path d="m61.905 16.951-3.6949 2.1332-3.6949-2.1332v-4.2665l3.6949-2.1332 3.6949 2.1332z" fill="#1d232d" stroke="#6f8ce9" stroke-linecap="round" stroke-width=".2646"/>
 <path d="m78.304 14.95h-14.983" fill="none" stroke="#7b8694" stroke-linecap="round" stroke-width=".2646"/>
 <g transform="matrix(-.004405 0 0 -.0044805 64.323 16.155)" fill="#7b8694" stroke-width="59.559">
  <g fill="#7b8694" stroke-width="59.559">
   <path d="m486.41 221.41-364.07-208.5c-52.938-30.318-95.852-5.44-95.852 55.563v415.65c0 61.004 42.914 85.882 95.852 55.563l364.07-208.49c52.938-30.317 52.938-79.473 0-109.79z" fill="#7b8694" stroke-width="59.559"/>
  </g>
 </g>
 <path d="m85.719 16.951-3.6949 2.1332-3.6949-2.1332v-4.2665l3.6949-2.1332 3.6949 2.1332z" fill="#1d232d" stroke="#6f8ce9" stroke-linecap="round" stroke-width=".2646"/>
 <g fill="#e8eaec" stroke-linecap="round" stroke-width=".2646">
  <g aria-label="#cab">
   <path d="m31.087 9.6821h0.20004l0.09261-0.75569h0.48898l-0.08891 0.75569h0.19633l0.09261-0.75569h0.3408v-0.21115h-0.31487l0.06668-0.54825h0.32228v-0.21485h-0.30005l0.0889-0.6779h-0.19633l-0.0889 0.6779h-0.49268l0.0852-0.6779h-0.19633l-0.0852 0.6779h-0.3408v0.21485h0.31487l-0.06668 0.54825h-0.32228v0.21115h0.29635zm0.31858-0.96684 0.06668-0.54825h0.48898l-0.06668 0.54825z"/>
   <path d="m32.762 8.7857c0 0.5964 0.36673 0.94091 0.84459 0.94091 0.21485 0 0.4223-0.088905 0.58529-0.23337l-0.13706-0.20004c-0.10743 0.096313-0.2519 0.18151-0.4223 0.18151-0.32969 0-0.55565-0.27783-0.55565-0.68901 0-0.41489 0.23708-0.69642 0.56306-0.69642 0.14447 0 0.2556 0.066678 0.36303 0.15929l0.15188-0.19633c-0.12224-0.11484-0.28894-0.21485-0.52602-0.21485-0.46304 0-0.86682 0.34451-0.86682 0.94832z"/>
   <path d="m34.456 9.2154c0 0.32228 0.22597 0.5112 0.52972 0.5112 0.22226 0 0.4223-0.11854 0.5964-0.25931h0.0074l0.02593 0.21485h0.2519v-1.1039c0-0.44823-0.18522-0.74087-0.62604-0.74087-0.28894 0-0.54084 0.12595-0.70753 0.23337l0.12224 0.21115c0.14076-0.096313 0.32598-0.19263 0.53713-0.19263 0.29264 0 0.37044 0.22226 0.37044 0.45193-0.7668 0.0852-1.1076 0.28153-1.1076 0.67419zm0.30005-0.022226c0-0.22967 0.20374-0.37784 0.80755-0.45193v0.50009c-0.1741 0.15558-0.31858 0.24078-0.49268 0.24078-0.17781 0-0.31487-0.0852-0.31487-0.28894z"/>
   <path d="m36.44 9.6821h0.24449l0.02593-0.17781h0.01111c0.15929 0.14077 0.34821 0.22226 0.51491 0.22226 0.41118 0 0.77792-0.35932 0.77792-0.97425 0-0.55565-0.24819-0.91498-0.71494-0.91498-0.20004 0-0.40007 0.10743-0.56306 0.2519l0.0074-0.32598v-0.71865h-0.30374zm0.30376-0.40007v-0.94461c0.1704-0.15929 0.32969-0.24449 0.48157-0.24449 0.3408 0 0.47416 0.26671 0.47416 0.66308 0 0.44452-0.21856 0.71494-0.51491 0.71494-0.11854 0-0.28153-0.051861-0.44082-0.18892z"/>
  </g>
  <g aria-label="#06c">
   <path d="m54.901 9.6821h0.20004l0.09261-0.75569h0.48898l-0.08891 0.75569h0.19633l0.09261-0.75569h0.3408v-0.21115h-0.31487l0.06668-0.54825h0.32228v-0.21485h-0.30005l0.0889-0.6779h-0.19633l-0.0889 0.6779h-0.49268l0.0852-0.6779h-0.19633l-0.0852 0.6779h-0.3408v0.21485h0.31487l-0.06668 0.54825h-0.32228v0.21115h0.29635zm0.31858-0.96684 0.06668-0.54825h0.48898l-0.06668 0.54825z"/>
   <path d="m57.328 9.7266c0.47045 0 0.75569-0.44082 0.75569-1.2336 0-0.79273-0.28524-1.2187-0.75569-1.2187-0.47416 0-0.75939 0.426-0.75939 1.2187 0 0.79273 0.28524 1.2336 0.75939 1.2336zm0-0.24449c-0.27783 0-0.46304-0.29635-0.46304-0.98906 0-0.69272 0.18522-0.97425 0.46304-0.97425 0.27412 0 0.45934 0.28153 0.45934 0.97425 0 0.69272-0.18522 0.98906-0.45934 0.98906z"/>
   <path d="m59.236 9.4858c-0.30005 0-0.48157-0.24819-0.51861-0.70753 0.15929-0.22226 0.34451-0.31117 0.49268-0.31117 0.29264 0 0.43712 0.19263 0.43712 0.50009 0 0.31117-0.17781 0.51861-0.41118 0.51861zm0.65567-1.9596c-0.13336-0.14447-0.31487-0.2519-0.57047-0.2519-0.47045 0-0.90016 0.36673-0.90016 1.315 0 0.75939 0.35192 1.1372 0.81496 1.1372 0.38155 0 0.70012-0.30746 0.70012-0.75939 0-0.48527-0.26671-0.72976-0.67419-0.72976-0.19263 0-0.40378 0.11484-0.55195 0.29635 0.01482-0.74828 0.29264-1.0039 0.62233-1.0039 0.14817 0 0.29264 0.070383 0.38896 0.18522z"/>
   <path d="m60.251 8.7857c0 0.5964 0.36673 0.94091 0.84459 0.94091 0.21485 0 0.4223-0.088905 0.58529-0.23337l-0.13706-0.20004c-0.10743 0.096313-0.2519 0.18151-0.4223 0.18151-0.32969 0-0.55565-0.27783-0.55565-0.68901 0-0.41489 0.23708-0.69642 0.56306-0.69642 0.14447 0 0.2556 0.066678 0.36303 0.15929l0.15188-0.19633c-0.12224-0.11484-0.28894-0.21485-0.52602-0.21485-0.46304 0-0.86682 0.34451-0.86682 0.94832z"/>
  </g>
  <g aria-label="#ba1">
   <path d="m78.715 9.6821h0.20004l0.09261-0.75569h0.48898l-0.08891 0.75569h0.19633l0.09261-0.75569h0.3408v-0.21115h-0.31487l0.06668-0.54825h0.32228v-0.21485h-0.30005l0.0889-0.6779h-0.19633l-0.0889 0.6779h-0.49268l0.0852-0.6779h-0.19633l-0.0852 0.6779h-0.3408v0.21485h0.31487l-0.06668 0.54825h-0.32228v0.21115h0.29635zm0.31858-0.96684 0.06668-0.54825h0.48898l-0.06668 0.54825z"/>
   <path d="m80.523 9.6821h0.24449l0.02593-0.17781h0.01111c0.15929 0.14077 0.34821 0.22226 0.51491 0.22226 0.41118 0 0.77792-0.35932 0.77792-0.97425 0-0.55565-0.24819-0.91498-0.71494-0.91498-0.20004 0-0.40007 0.10743-0.56306 0.2519l0.0074-0.32598v-0.71865h-0.30375zm0.30376-0.40007v-0.94461c0.1704-0.15929 0.32969-0.24449 0.48157-0.24449 0.3408 0 0.47416 0.26671 0.47416 0.66308 0 0.44452-0.21856 0.71494-0.51491 0.71494-0.11854 0-0.28153-0.051861-0.44082-0.18892z"/>
   <path d="m82.438 9.2154c0 0.32228 0.22597 0.5112 0.52972 0.5112 0.22226 0 0.4223-0.11854 0.5964-0.25931h0.0074l0.02593 0.21485h0.2519v-1.1039c0-0.44823-0.18522-0.74087-0.62604-0.74087-0.28894 0-0.54084 0.12595-0.70753 0.23337l0.12224 0.21115c0.14077-0.096313 0.32598-0.19263 0.53713-0.19263 0.29264 0 0.37044 0.22226 0.37044 0.45193-0.7668 0.0852-1.1076 0.28153-1.1076 0.67419zm0.30005-0.022226c0-0.22967 0.20374-0.37784 0.80755-0.45193v0.50009c-0.1741 0.15558-0.31858 0.24078-0.49268 0.24078-0.17781 0-0.31487-0.0852-0.31487-0.28894z"/>
   <path d="m84.411 9.6821h1.3336v-0.2519h-0.48898v-2.1115h-0.23338c-0.12965 0.077792-0.28524 0.13706-0.50009 0.1741v0.19633h0.4297v1.741h-0.54084z"/>
  </g>
 </g>
 <path d="m102.12 14.95h-14.983" fill="none" stroke="#7b8694" stroke-linecap="round" stroke-width=".2646"/>
 <g transform="matrix(-.004405 0 0 -.0044805 88.136 16.155)" fill="#7b8694" stroke-width="59.559">
  <g fill="#7b8694" stroke-width="59.559">
   <path d="m486.41 221.41-364.07-208.5c-52.938-30.318-95.852-5.44-95.852 55.563v415.65c0 61.004 42.914 85.882 95.852 55.563l364.07-208.49c52.938-30.317 52.938-79.473 0-109.79z" fill="#7b8694" stroke-width="59.559"/>
  </g>
 </g>
 <path d="m109.53 16.951-3.6949 2.1332-3.6949-2.1332v-4.2665l3.6949-2.1332 3.6949 2.1332z" fill="#1d232d" stroke="#6f8ce9" stroke-linecap="round" stroke-width=".2646"/>
 <g fill="#e8eaec" stroke-linecap="round" stroke-width=".2646">
  <g aria-label="#cc2">
   <path d="m102.79 9.6821h0.20004l0.0926-0.75569h0.48897l-0.0889 0.75569h0.19633l0.0926-0.75569h0.3408v-0.21115h-0.31487l0.0667-0.54825h0.32228v-0.21485h-0.30006l0.0889-0.6779h-0.19633l-0.0889 0.6779h-0.49268l0.0852-0.6779h-0.19633l-0.0852 0.6779h-0.3408v0.21485h0.31487l-0.0667 0.54825h-0.32228v0.21115h0.29635zm0.31858-0.96684 0.0667-0.54825h0.48897l-0.0667 0.54825z"/>
   <path d="m104.47 8.7857c0 0.5964 0.36673 0.94091 0.8446 0.94091 0.21485 0 0.42229-0.088905 0.58528-0.23337l-0.13706-0.20004c-0.10742 0.096313-0.25189 0.18151-0.42229 0.18151-0.32969 0-0.55566-0.27783-0.55566-0.68901 0-0.41489 0.23708-0.69642 0.56306-0.69642 0.14447 0 0.25561 0.066678 0.36303 0.15929l0.15188-0.19633c-0.12224-0.11484-0.28894-0.21485-0.52602-0.21485-0.46304 0-0.86682 0.34451-0.86682 0.94832z"/>
   <path d="m106.07 8.7857c0 0.5964 0.36673 0.94091 0.84459 0.94091 0.21486 0 0.4223-0.088905 0.58529-0.23337l-0.13706-0.20004c-0.10743 0.096313-0.2519 0.18151-0.4223 0.18151-0.32968 0-0.55565-0.27783-0.55565-0.68901 0-0.41489 0.23708-0.69642 0.56306-0.69642 0.14447 0 0.2556 0.066678 0.36303 0.15929l0.15188-0.19633c-0.12225-0.11484-0.28894-0.21485-0.52602-0.21485-0.46305 0-0.86682 0.34451-0.86682 0.94832z"/>
   <path d="m107.74 9.6821h1.5262v-0.26301h-0.6853c-0.12225 0-0.26672 0.011113-0.39637 0.022226 0.55936-0.58529 0.96313-1.0261 0.96313-1.4706 0-0.41859-0.27042-0.69642-0.70753-0.69642-0.30746 0-0.51861 0.14447-0.71494 0.35932l0.1741 0.1741c0.13706-0.15929 0.30747-0.28524 0.5038-0.28524 0.30005 0 0.44822 0.19263 0.44822 0.46304 0 0.38155-0.40007 0.80755-1.1113 1.5151z"/>
  </g>
  <g stroke="#cf2f25" aria-label="A">
   <path d="m37.201 19.542 0.11854-0.37044c0.0852-0.27042 0.16299-0.53713 0.24078-0.81866h0.01482c0.07779 0.28153 0.15558 0.54824 0.24078 0.81866l0.11484 0.37044zm1.0409 0.98906h0.32598l-0.82237-2.4301h-0.34821l-0.82237 2.4301h0.31487l0.23338-0.74087h0.88534z" fill="#e8eaec" stroke="none"/>
  </g>
  <g stroke="#cf2f25" aria-label="B">
   <path d="m60.711 20.531h0.77792c0.54084 0 0.91868-0.23338 0.91868-0.71124 0-0.33339-0.20744-0.52602-0.56306-0.58158v-0.01482c0.28894-0.07409 0.426-0.28894 0.426-0.52972 0-0.426-0.34451-0.5927-0.83719-0.5927h-0.72235zm0.31117-1.3928v-0.79273h0.37414c0.37414 0 0.57047 0.11113 0.57047 0.37414 0 0.27042-0.1741 0.41859-0.58529 0.41859zm0 1.1484v-0.91868h0.4223c0.426 0 0.65938 0.13706 0.65938 0.43711 0 0.32969-0.24449 0.48157-0.65938 0.48157z" fill="#e8eaec" stroke="none"/>
  </g>
  <g stroke="#cf2f25" aria-label="C">
   <path d="m84.384 19.316c0 0.79273 0.45564 1.2595 1.0669 1.2595 0.30746 0 0.54825-0.12965 0.73717-0.35191l-0.1741-0.18892c-0.15558 0.1741-0.32598 0.27042-0.55565 0.27042-0.46304 0-0.75569-0.38525-0.75569-0.99647 0-0.60381 0.30746-0.98166 0.77051-0.98166 0.20004 0 0.35562 0.0889 0.48527 0.22597l0.1741-0.19633c-0.14447-0.15929-0.37414-0.30005-0.66308-0.30005-0.62233 0-1.0854 0.47786-1.0854 1.2595z" fill="#e8eaec" stroke="none"/>
  </g>
  <g stroke="#cf2f25" aria-label="D">
   <path d="m108.34 20.531h0.62233c0.73346 0 1.1335-0.45193 1.1335-1.2261 0-0.77051-0.40007-1.2039-1.1484-1.2039h-0.60751zm0.31116-0.2519v-1.9263h0.27413c0.57047 0 0.852 0.3408 0.852 0.95202 0 0.61492-0.28153 0.97425-0.852 0.97425z" fill="#e8eaec" stroke="none"/>
  </g>
 </g>
 <path d="m128.59 12.332c-1.4503 0-2.6178 1.1676-2.6178 2.6178 0 1.4503 1.1675 2.6178 2.6178 2.6178h11.113c1.4503 0 2.6178-1.1676 2.6178-2.6178 0-1.4503-1.1675-2.6178-2.6178-2.6178z" fill="#1d232d" stroke="#7893ea" stroke-width=".2646"/>
 <path d="m125.93 14.95h-14.983" fill="none" stroke="#6f8ce9" stroke-linecap="round" stroke-width=".2646"/>
 <g transform="matrix(-.004405 0 0 -.0044805 111.95 16.155)" fill="#6f8ce9" stroke-width="59.559">
  <g fill="#6f8ce9" stroke-width="59.559">
   <path d="m486.41 221.41-364.07-208.5c-52.938-30.318-95.852-5.44-95.852 55.563v415.65c0 61.004 42.914 85.882 95.852 55.563l364.07-208.49c52.938-30.317 52.938-79.473 0-109.79z" fill="#6f8ce9" stroke-width="59.559"/>
  </g>
 </g>
 <g fill="#e8eaec" stroke-linecap="round" stroke-width=".2646" aria-label="master">
  <path d="m129.13 16.08h0.30376v-1.3039c0.16669-0.18522 0.31857-0.27783 0.45193-0.27783 0.22967 0 0.3371 0.14447 0.3371 0.48157v1.1002h0.30375v-1.3039c0.1667-0.18522 0.31117-0.27783 0.45194-0.27783 0.22596 0 0.33339 0.14447 0.33339 0.48157v1.1002h0.30376v-1.1409c0-0.45934-0.17781-0.70383-0.54825-0.70383-0.21856 0-0.40377 0.14077-0.5927 0.34451-0.0741-0.21485-0.22226-0.34451-0.49638-0.34451-0.21485 0-0.40378 0.13336-0.55936 0.30376h-0.0111l-0.0259-0.25931h-0.2519z"/>
  <path d="m132.11 15.613c0 0.32228 0.22597 0.5112 0.52972 0.5112 0.22226 0 0.4223-0.11854 0.59641-0.25931h7e-3l0.0259 0.21485h0.2519v-1.1039c0-0.44823-0.18522-0.74087-0.62604-0.74087-0.28894 0-0.54083 0.12595-0.70753 0.23338l0.12225 0.21115c0.14076-0.09631 0.32598-0.19263 0.53713-0.19263 0.29264 0 0.37043 0.22226 0.37043 0.45193-0.7668 0.0852-1.1076 0.28153-1.1076 0.67419zm0.30005-0.02223c0-0.22967 0.20374-0.37784 0.80755-0.45193v0.50009c-0.1741 0.15558-0.31857 0.24078-0.49268 0.24078-0.17781 0-0.31487-0.0852-0.31487-0.28894z"/>
  <path d="m133.89 15.876c0.1704 0.14076 0.41489 0.24819 0.67049 0.24819 0.426 0 0.65937-0.24449 0.65937-0.53713 0-0.3408-0.28894-0.44823-0.54824-0.54454-0.20374-0.07779-0.40007-0.14447-0.40007-0.31117 0-0.13706 0.10372-0.2593 0.32969-0.2593 0.15928 0 0.28894 0.06668 0.41118 0.15929l0.14447-0.19263c-0.13706-0.11113-0.33339-0.20374-0.55936-0.20374-0.38896 0-0.61863 0.22226-0.61863 0.5112 0 0.30376 0.28154 0.426 0.53714 0.51861 0.19633 0.07409 0.41118 0.15558 0.41118 0.3408 0 0.15558-0.11854 0.28153-0.35562 0.28153-0.21485 0-0.37414-0.08891-0.52972-0.21485z"/>
  <path d="m135.7 15.524c0 0.35562 0.12965 0.60011 0.5149 0.60011 0.11113 0 0.23338-0.03334 0.3334-0.06668l-0.0593-0.22967c-0.0593 0.02223-0.14077 0.04816-0.20374 0.04816-0.20745 0-0.27783-0.12595-0.27783-0.34821v-1.0002h0.48527v-0.24819h-0.48527v-0.50379h-0.2556l-0.037 0.50379-0.28154 0.01852v0.22967h0.26672z"/>
  <path d="m136.73 15.183c0 0.58899 0.38155 0.94091 0.86312 0.94091 0.24449 0 0.43711-0.0852 0.5927-0.18522l-0.10743-0.20004c-0.13336 0.0852-0.27783 0.14077-0.44823 0.14077-0.3445 0-0.57788-0.24449-0.6001-0.63345h1.215c7e-3 -0.04445 0.0111-0.10372 0.0111-0.1667 0-0.51491-0.25931-0.84459-0.71865-0.84459-0.41118 0-0.80755 0.35932-0.80755 0.94832zm0.29635-0.13706c0.0371-0.36303 0.26672-0.57047 0.51861-0.57047 0.28153 0 0.44453 0.20374 0.44453 0.57047z"/>
  <path d="m138.7 16.08h0.30376v-1.1558c0.12224-0.30376 0.30375-0.41489 0.45563-0.41489 0.0741 0 0.11484 0.01111 0.17411 0.02964l0.0593-0.26671c-0.0593-0.02593-0.11484-0.03704-0.19263-0.03704-0.20374 0-0.38896 0.14447-0.5112 0.37044h-0.0111l-0.0259-0.32598h-0.2519z"/>
 </g>
 <rect x="-.0013745" y="25.93" width="171.89" height="24.343" fill="#2f3744" fill-opacity=".50196"/>
 <g stroke-linecap="round" stroke-width=".2646">
  <g fill="#fff" aria-label="CLIENT">
   <path d="m4.0512 31.199c0 0.81125 0.5112 1.2373 1.1372 1.2373 0.30005 0 0.56677-0.12224 0.7668-0.35562l-0.30005-0.32969c-0.11854 0.12965-0.25931 0.21485-0.45934 0.21485-0.35191 0-0.58529-0.28894-0.58529-0.78532 0-0.48527 0.26301-0.77792 0.60011-0.77792 0.1704 0 0.28524 0.07038 0.40748 0.18151l0.30005-0.3371c-0.16299-0.1667-0.41489-0.31487-0.71494-0.31487-0.62233 0-1.1521 0.46675-1.1521 1.2669z"/>
   <path d="m6.3149 32.392h1.5003v-0.45934h-0.95202v-1.9559h-0.54825z"/>
   <path d="m8.2249 32.392h0.54825v-2.4152h-0.54825z"/>
   <path d="m9.3391 32.392h1.5521v-0.45934h-1.0039v-0.55565h0.82237v-0.45564h-0.82237v-0.48527h0.96684v-0.45934h-1.5151z"/>
   <path d="m11.365 32.392h0.52231v-0.85571c0-0.28524-0.04445-0.60752-0.07038-0.87423h0.01482l0.23708 0.52602 0.62974 1.2039h0.55936v-2.4152h-0.51861v0.852c0 0.28524 0.04445 0.62604 0.07038 0.88164h-0.01482l-0.24078-0.53343-0.62974-1.2002h-0.55936z"/>
   <path d="m14.299 32.392h0.54454v-1.9559h0.66308v-0.45934h-1.8744v0.45934h0.66678z"/>
  </g>
  <path d="m38.091 41.558-3.6949 2.1332-3.6949-2.1332v-4.2665l3.6949-2.1332 3.6949 2.1332z" fill="#1d232d" stroke="#6f8ce9"/>
  <path d="m54.491 39.557h-14.983" fill="none" stroke="#7b8694"/>
 </g>
 <g transform="matrix(-.004405 0 0 -.0044805 40.509 40.762)" fill="#7b8694" stroke-width="59.559">
  <g fill="#7b8694" stroke-width="59.559">
   <path d="m486.41 221.41-364.07-208.5c-52.938-30.318-95.852-5.44-95.852 55.563v415.65c0 61.004 42.914 85.882 95.852 55.563l364.07-208.49c52.938-30.317 52.938-79.473 0-109.79z" fill="#7b8694" stroke-width="59.559"/>
  </g>
 </g>
 <path d="m61.905 41.558-3.6949 2.1332-3.6949-2.1332v-4.2665l3.6949-2.1332 3.6949 2.1332z" fill="#1d232d" stroke="#6f8ce9" stroke-linecap="round" stroke-width=".2646"/>
 <path d="m78.304 39.557h-14.983" fill="none" stroke="#7b8694" stroke-linecap="round" stroke-width=".2646"/>
 <g transform="matrix(-.004405 0 0 -.0044805 64.323 40.762)" fill="#7b8694" stroke-width="59.559">
  <g fill="#7b8694" stroke-width="59.559">
   <path d="m486.41 221.41-364.07-208.5c-52.938-30.318-95.852-5.44-95.852 55.563v415.65c0 61.004 42.914 85.882 95.852 55.563l364.07-208.49c52.938-30.317 52.938-79.473 0-109.79z" fill="#7b8694" stroke-width="59.559"/>
  </g>
 </g>
 <path d="m85.719 41.558-3.6949 2.1332-3.6949-2.1332v-4.2665l3.6949-2.1332 3.6949 2.1332z" fill="#1d232d" stroke="#6f8ce9" stroke-linecap="round" stroke-width=".2646"/>
 <g fill="#e8eaec" stroke-linecap="round" stroke-width=".2646">
  <g aria-label="#cab">
   <path d="m31.087 34.29h0.20004l0.09261-0.75569h0.48898l-0.08891 0.75569h0.19633l0.09261-0.75569h0.3408v-0.21115h-0.31487l0.06668-0.54824h0.32228v-0.21485h-0.30005l0.0889-0.6779h-0.19633l-0.0889 0.6779h-0.49268l0.0852-0.6779h-0.19633l-0.0852 0.6779h-0.3408v0.21485h0.31487l-0.06668 0.54824h-0.32228v0.21115h0.29635zm0.31858-0.96684 0.06668-0.54824h0.48898l-0.06668 0.54824z"/>
   <path d="m32.762 33.393c0 0.5964 0.36673 0.94091 0.84459 0.94091 0.21485 0 0.4223-0.0889 0.58529-0.23338l-0.13706-0.20004c-0.10743 0.09631-0.2519 0.18151-0.4223 0.18151-0.32969 0-0.55565-0.27783-0.55565-0.68901 0-0.41489 0.23708-0.69642 0.56306-0.69642 0.14447 0 0.2556 0.06668 0.36303 0.15929l0.15188-0.19633c-0.12224-0.11484-0.28894-0.21485-0.52602-0.21485-0.46304 0-0.86682 0.34451-0.86682 0.94832z"/>
   <path d="m34.456 33.823c0 0.32228 0.22597 0.5112 0.52972 0.5112 0.22226 0 0.4223-0.11854 0.5964-0.2593h0.0074l0.02593 0.21485h0.2519v-1.1039c0-0.44823-0.18522-0.74087-0.62604-0.74087-0.28894 0-0.54084 0.12595-0.70753 0.23338l0.12224 0.21115c0.14076-0.09631 0.32598-0.19263 0.53713-0.19263 0.29264 0 0.37044 0.22226 0.37044 0.45193-0.7668 0.0852-1.1076 0.28153-1.1076 0.67419zm0.30005-0.02223c0-0.22967 0.20374-0.37784 0.80755-0.45193v0.50009c-0.1741 0.15558-0.31858 0.24078-0.49268 0.24078-0.17781 0-0.31487-0.0852-0.31487-0.28894z"/>
   <path d="m36.44 34.29h0.24449l0.02593-0.17781h0.01111c0.15929 0.14077 0.34821 0.22226 0.51491 0.22226 0.41118 0 0.77792-0.35932 0.77792-0.97425 0-0.55565-0.24819-0.91498-0.71494-0.91498-0.20004 0-0.40007 0.10743-0.56306 0.2519l0.0074-0.32598v-0.71865h-0.30374zm0.30376-0.40007v-0.94461c0.1704-0.15929 0.32969-0.24449 0.48157-0.24449 0.3408 0 0.47416 0.26671 0.47416 0.66308 0 0.44452-0.21856 0.71494-0.51491 0.71494-0.11854 0-0.28153-0.05186-0.44082-0.18892z"/>
  </g>
  <g aria-label="#06c">
   <path d="m54.901 34.29h0.20004l0.09261-0.75569h0.48898l-0.08891 0.75569h0.19633l0.09261-0.75569h0.3408v-0.21115h-0.31487l0.06668-0.54824h0.32228v-0.21485h-0.30005l0.0889-0.6779h-0.19633l-0.0889 0.6779h-0.49268l0.0852-0.6779h-0.19633l-0.0852 0.6779h-0.3408v0.21485h0.31487l-0.06668 0.54824h-0.32228v0.21115h0.29635zm0.31858-0.96684 0.06668-0.54824h0.48898l-0.06668 0.54824z"/>
   <path d="m57.328 34.334c0.47045 0 0.75569-0.44082 0.75569-1.2336s-0.28524-1.2187-0.75569-1.2187c-0.47416 0-0.75939 0.426-0.75939 1.2187s0.28524 1.2336 0.75939 1.2336zm0-0.24449c-0.27783 0-0.46304-0.29635-0.46304-0.98906 0-0.69272 0.18522-0.97425 0.46304-0.97425 0.27412 0 0.45934 0.28153 0.45934 0.97425 0 0.69272-0.18522 0.98906-0.45934 0.98906z"/>
   <path d="m59.236 34.093c-0.30005 0-0.48157-0.24819-0.51861-0.70753 0.15929-0.22226 0.34451-0.31117 0.49268-0.31117 0.29264 0 0.43712 0.19263 0.43712 0.50009 0 0.31117-0.17781 0.51861-0.41118 0.51861zm0.65567-1.9596c-0.13336-0.14447-0.31487-0.2519-0.57047-0.2519-0.47045 0-0.90016 0.36673-0.90016 1.315 0 0.75939 0.35192 1.1372 0.81496 1.1372 0.38155 0 0.70012-0.30746 0.70012-0.75939 0-0.48527-0.26671-0.72976-0.67419-0.72976-0.19263 0-0.40378 0.11484-0.55195 0.29635 0.01482-0.74828 0.29264-1.0039 0.62233-1.0039 0.14817 0 0.29264 0.07038 0.38896 0.18522z"/>
   <path d="m60.251 33.393c0 0.5964 0.36673 0.94091 0.84459 0.94091 0.21485 0 0.4223-0.0889 0.58529-0.23338l-0.13706-0.20004c-0.10743 0.09631-0.2519 0.18151-0.4223 0.18151-0.32969 0-0.55565-0.27783-0.55565-0.68901 0-0.41489 0.23708-0.69642 0.56306-0.69642 0.14447 0 0.2556 0.06668 0.36303 0.15929l0.15188-0.19633c-0.12224-0.11484-0.28894-0.21485-0.52602-0.21485-0.46304 0-0.86682 0.34451-0.86682 0.94832z"/>
  </g>
  <g aria-label="#ba1">
   <path d="m78.715 34.29h0.20004l0.09261-0.75569h0.48898l-0.08891 0.75569h0.19633l0.09261-0.75569h0.3408v-0.21115h-0.31487l0.06668-0.54824h0.32228v-0.21485h-0.30005l0.0889-0.6779h-0.19633l-0.0889 0.6779h-0.49268l0.0852-0.6779h-0.19633l-0.0852 0.6779h-0.3408v0.21485h0.31487l-0.06668 0.54824h-0.32228v0.21115h0.29635zm0.31858-0.96684 0.06668-0.54824h0.48898l-0.06668 0.54824z"/>
   <path d="m80.523 34.29h0.24449l0.02593-0.17781h0.01111c0.15929 0.14077 0.34821 0.22226 0.51491 0.22226 0.41118 0 0.77792-0.35932 0.77792-0.97425 0-0.55565-0.24819-0.91498-0.71494-0.91498-0.20004 0-0.40007 0.10743-0.56306 0.2519l0.0074-0.32598v-0.71865h-0.30375zm0.30376-0.40007v-0.94461c0.1704-0.15929 0.32969-0.24449 0.48157-0.24449 0.3408 0 0.47416 0.26671 0.47416 0.66308 0 0.44452-0.21856 0.71494-0.51491 0.71494-0.11854 0-0.28153-0.05186-0.44082-0.18892z"/>
   <path d="m82.438 33.823c0 0.32228 0.22597 0.5112 0.52972 0.5112 0.22226 0 0.4223-0.11854 0.5964-0.2593h0.0074l0.02593 0.21485h0.2519v-1.1039c0-0.44823-0.18522-0.74087-0.62604-0.74087-0.28894 0-0.54084 0.12595-0.70753 0.23338l0.12224 0.21115c0.14077-0.09631 0.32598-0.19263 0.53713-0.19263 0.29264 0 0.37044 0.22226 0.37044 0.45193-0.7668 0.0852-1.1076 0.28153-1.1076 0.67419zm0.30005-0.02223c0-0.22967 0.20374-0.37784 0.80755-0.45193v0.50009c-0.1741 0.15558-0.31858 0.24078-0.49268 0.24078-0.17781 0-0.31487-0.0852-0.31487-0.28894z"/>
   <path d="m84.411 34.29h1.3336v-0.2519h-0.48898v-2.1115h-0.23338c-0.12965 0.07779-0.28524 0.13706-0.50009 0.1741v0.19633h0.4297v1.741h-0.54084z"/>
  </g>
  <g stroke="#cf2f25" aria-label="A">
   <path d="m37.201 44.149 0.11854-0.37044c0.0852-0.27042 0.16299-0.53713 0.24078-0.81866h0.01482c0.07779 0.28153 0.15558 0.54824 0.24078 0.81866l0.11484 0.37044zm1.0409 0.98906h0.32598l-0.82237-2.4301h-0.34821l-0.82237 2.4301h0.31487l0.23338-0.74087h0.88534z" fill="#e8eaec" stroke="none"/>
  </g>
  <g stroke="#cf2f25" aria-label="B">
   <path d="m60.711 45.138h0.77792c0.54084 0 0.91868-0.23337 0.91868-0.71124 0-0.33339-0.20744-0.52602-0.56306-0.58158v-0.01482c0.28894-0.07409 0.426-0.28894 0.426-0.52972 0-0.426-0.34451-0.5927-0.83719-0.5927h-0.72235zm0.31117-1.3928v-0.79273h0.37414c0.37414 0 0.57047 0.11113 0.57047 0.37414 0 0.27042-0.1741 0.41859-0.58529 0.41859zm0 1.1484v-0.91868h0.4223c0.426 0 0.65938 0.13706 0.65938 0.43712 0 0.32969-0.24449 0.48157-0.65938 0.48157z" fill="#e8eaec" stroke="none"/>
  </g>
  <g stroke="#cf2f25" aria-label="C">
   <path d="m84.384 43.923c0 0.79273 0.45564 1.2595 1.0669 1.2595 0.30746 0 0.54825-0.12965 0.73717-0.35192l-0.1741-0.18892c-0.15558 0.1741-0.32598 0.27042-0.55565 0.27042-0.46304 0-0.75569-0.38525-0.75569-0.99647 0-0.60381 0.30746-0.98166 0.77051-0.98166 0.20004 0 0.35562 0.08891 0.48527 0.22597l0.1741-0.19633c-0.14447-0.15929-0.37414-0.30005-0.66308-0.30005-0.62233 0-1.0854 0.47786-1.0854 1.2595z" fill="#e8eaec" stroke="none"/>
  </g>
 </g>
 <path d="m105.32 39.46c-1.4379-0.1893-2.7478 0.81587-2.9371 2.2537-0.18929 1.4379 0.81586 2.7478 2.2537 2.9371l9.7472 1.2832c1.4379 0.1893 2.7478-0.81587 2.9371-2.2537 0.18932-1.4379-0.81583-2.7478-2.2537-2.9371z" fill="#1d232d" stroke="#7893ea" stroke-width=".2646"/>
 <path d="m102.34 41.708-14.855-1.9556" fill="none" stroke="#6f8ce9" stroke-linecap="round" stroke-width=".2646"/>
 <g>
  <g transform="matrix(-.0043673 -.00057497 .00058482 -.0044421 88.318 41.078)" fill="#6f8ce9" stroke-width="59.559">
   <g fill="#6f8ce9" stroke-width="59.559">
    <path d="m486.41 221.41-364.07-208.5c-52.938-30.318-95.852-5.44-95.852 55.563v415.65c0 61.004 42.914 85.882 95.852 55.563l364.07-208.49c52.938-30.317 52.938-79.473 0-109.79z" fill="#6f8ce9" stroke-width="59.559"/>
   </g>
  </g>
  <g transform="rotate(7.5)" fill="#e8eaec" stroke-linecap="round" stroke-width=".2646" aria-label="master">
   <path d="m109.26 29.08h0.30376v-1.3039c0.16669-0.18522 0.31857-0.27783 0.45193-0.27783 0.22967 0 0.3371 0.14447 0.3371 0.48157v1.1002h0.30375v-1.3039c0.1667-0.18522 0.31117-0.27783 0.45194-0.27783 0.22596 0 0.33339 0.14447 0.33339 0.48157v1.1002h0.30376v-1.1409c0-0.45934-0.17781-0.70383-0.54825-0.70383-0.21856 0-0.40377 0.14076-0.5927 0.3445-0.0741-0.21485-0.22226-0.3445-0.49638-0.3445-0.21485 0-0.40378 0.13336-0.55936 0.30376h-0.0111l-0.0259-0.2593h-0.2519z"/>
   <path d="m112.24 28.614c0 0.32228 0.22596 0.5112 0.52972 0.5112 0.22226 0 0.4223-0.11854 0.5964-0.2593h7e-3l0.0259 0.21485h0.2519v-1.1039c0-0.44823-0.18522-0.74087-0.62604-0.74087-0.28894 0-0.54083 0.12595-0.70753 0.23337l0.12224 0.21115c0.14077-0.09631 0.32599-0.19263 0.53714-0.19263 0.29264 0 0.37043 0.22226 0.37043 0.45193-0.7668 0.0852-1.1076 0.28153-1.1076 0.67419zm0.30005-0.02223c0-0.22967 0.20374-0.37784 0.80755-0.45193v0.50009c-0.1741 0.15558-0.31857 0.24078-0.49268 0.24078-0.17781 0-0.31487-0.0852-0.31487-0.28894z"/>
   <path d="m114.03 28.877c0.1704 0.14077 0.41489 0.24819 0.67049 0.24819 0.426 0 0.65937-0.24449 0.65937-0.53713 0-0.3408-0.28894-0.44823-0.54824-0.54454-0.20374-0.07779-0.40007-0.14447-0.40007-0.31117 0-0.13706 0.10372-0.2593 0.32969-0.2593 0.15928 0 0.28894 0.06668 0.41118 0.15929l0.14447-0.19263c-0.13706-0.11113-0.33339-0.20374-0.55936-0.20374-0.38896 0-0.61863 0.22226-0.61863 0.5112 0 0.30376 0.28153 0.426 0.53714 0.51861 0.19633 0.07409 0.41118 0.15558 0.41118 0.3408 0 0.15558-0.11854 0.28153-0.35562 0.28153-0.21485 0-0.37414-0.08891-0.52972-0.21485z"/>
   <path d="m115.83 28.525c0 0.35562 0.12965 0.60011 0.5149 0.60011 0.11113 0 0.23338-0.03334 0.3334-0.06668l-0.0593-0.22967c-0.0593 0.02223-0.14077 0.04816-0.20374 0.04816-0.20745 0-0.27783-0.12595-0.27783-0.34821v-1.0002h0.48527v-0.24819h-0.48527v-0.50379h-0.2556l-0.037 0.50379-0.28153 0.01852v0.22967h0.26672z"/>
   <path d="m116.86 28.184c0 0.58899 0.38155 0.94091 0.86312 0.94091 0.24449 0 0.43711-0.0852 0.5927-0.18522l-0.10743-0.20004c-0.13336 0.0852-0.27783 0.14076-0.44823 0.14076-0.3445 0-0.57788-0.24449-0.6001-0.63344h1.215c7e-3 -0.04445 0.0111-0.10372 0.0111-0.1667 0-0.51491-0.25931-0.84459-0.71865-0.84459-0.41118 0-0.80755 0.35932-0.80755 0.94832zm0.29635-0.13706c0.037-0.36303 0.26671-0.57047 0.51861-0.57047 0.28153 0 0.44452 0.20374 0.44452 0.57047z"/>
   <path d="m118.84 29.08h0.30376v-1.1558c0.12224-0.30376 0.30375-0.41489 0.45563-0.41489 0.0741 0 0.11484 0.01111 0.17411 0.02964l0.0593-0.26671c-0.0593-0.02593-0.11484-0.03704-0.19263-0.03704-0.20374 0-0.38896 0.14447-0.5112 0.37044h-0.0111l-0.0259-0.32598h-0.25189z"/>
  </g>
  <path d="m78.329 48.173v-2.1497l3.6949-2.1332 3.6949 2.1332v2.1497z" fill="#e9e56f"/>
  <path d="m104.37 32.389c-1.4378 0.1893-2.443 1.4993-2.2537 2.9371 0.18932 1.4379 1.4993 2.443 2.9371 2.2537l19.785-2.6047c1.4378-0.1893 2.443-1.4993 2.2537-2.9371-0.18927-1.4379-1.4992-2.443-2.9371-2.2537z" fill="#1d232d" stroke="#7893ea" stroke-width=".2646"/>
 </g>
 <path d="m102.07 35.332-14.855 1.9556" fill="none" stroke="#6f8ce9" stroke-linecap="round" stroke-width=".2646"/>
 <g>
  <g transform="matrix(-.0043673 .00057497 -.00058482 -.0044421 88.368 38.351)" fill="#6f8ce9" stroke-width="59.559">
   <g fill="#6f8ce9" stroke-width="59.559">
    <path d="m486.41 221.41-364.07-208.5c-52.938-30.318-95.852-5.44-95.852 55.563v415.65c0 61.004 42.914 85.882 95.852 55.563l364.07-208.49c52.938-30.317 52.938-79.473 0-109.79z" fill="#6f8ce9" stroke-width="59.559"/>
   </g>
  </g>
  <g stroke-width=".2646">
   <g transform="rotate(-7.5)" fill="#e8eaec" stroke-linecap="round" aria-label="origin/master">
    <path d="m98.859 48.381c0 0.5964 0.39266 0.94091 0.83348 0.94091 0.44081 0 0.83348-0.34451 0.83348-0.94091 0-0.60381-0.39267-0.94832-0.83348-0.94832-0.44082 0-0.83348 0.34451-0.83348 0.94832zm0.31487 0c0-0.41489 0.21115-0.69642 0.51861-0.69642 0.31116 0 0.51861 0.28153 0.51861 0.69642 0 0.41118-0.20745 0.68901-0.51861 0.68901-0.30746 0-0.51861-0.27783-0.51861-0.68901z"/>
    <path d="m101 49.277h0.30376v-1.1558c0.12224-0.30376 0.30376-0.41489 0.45564-0.41489 0.0741 0 0.11483 0.01111 0.1741 0.02964l0.0593-0.26671c-0.0593-0.02593-0.11483-0.03704-0.19262-0.03704-0.20374 0-0.38896 0.14447-0.51121 0.37044h-0.0111l-0.0259-0.32598h-0.2519z"/>
    <path d="m102.45 47.106c0.11854 0 0.21115-0.0815 0.21115-0.19633 0-0.11854-0.0926-0.19633-0.21115-0.19633-0.11854 0-0.21115 0.07779-0.21115 0.19633 0 0.11484 0.0926 0.19633 0.21115 0.19633zm-0.15558 2.1708h0.30375v-1.8003h-0.30375z"/>
    <path d="m103.33 49.581c0-0.10372 0.0556-0.21115 0.18522-0.30376 0.0778 0.02223 0.16299 0.02963 0.23337 0.02963h0.31117c0.23337 0 0.36303 0.05557 0.36303 0.22226 0 0.18892-0.22597 0.36673-0.57048 0.36673-0.32598 0-0.52231-0.12224-0.52231-0.31487zm-0.26671 0.04075c0 0.31117 0.30375 0.48527 0.74457 0.48527 0.55936 0 0.91127-0.28894 0.91127-0.62233 0-0.30005-0.21114-0.42971-0.62974-0.42971h-0.34821c-0.24448 0-0.31857-0.0815-0.31857-0.19633 0-0.10002 0.0519-0.15929 0.11483-0.21485 0.0815 0.04075 0.18152 0.06297 0.27042 0.06297 0.36673 0 0.65938-0.24078 0.65938-0.62604 0-0.15188-0.063-0.28894-0.14818-0.37044h0.37044v-0.23338h-0.62604c-0.0667-0.02593-0.15558-0.04445-0.2556-0.04445-0.36673 0-0.6779 0.24819-0.6779 0.64085 0 0.21485 0.11484 0.38896 0.23338 0.48527v0.01482c-0.0926 0.06297-0.19633 0.18151-0.19633 0.33339 0 0.14077 0.0704 0.23708 0.15929 0.29264v0.01482c-0.163 0.11113-0.26301 0.2556-0.26301 0.40748zm0.74457-1.1187c-0.20744 0-0.38155-0.1667-0.38155-0.42971 0-0.26301 0.1704-0.41859 0.38155-0.41859s0.38155 0.15558 0.38155 0.41859c0 0.26301-0.1741 0.42971-0.38155 0.42971z"/>
    <path d="m105.23 47.106c0.11854 0 0.21115-0.0815 0.21115-0.19633 0-0.11854-0.0926-0.19633-0.21115-0.19633-0.11854 0-0.21115 0.07779-0.21115 0.19633 0 0.11484 0.0926 0.19633 0.21115 0.19633zm-0.15558 2.1708h0.30375v-1.8003h-0.30375z"/>
    <path d="m105.98 49.277h0.30375v-1.3039c0.18152-0.18151 0.30747-0.27783 0.49268-0.27783 0.23708 0 0.34081 0.14447 0.34081 0.48157v1.1002h0.30375v-1.1409c0-0.45934-0.1704-0.70383-0.54824-0.70383-0.24819 0-0.43341 0.13336-0.60381 0.30376h-0.0111l-0.0259-0.25931h-0.25189z"/>
    <path d="m107.74 49.87h0.22596l0.98536-3.2228h-0.22226z"/>
    <path d="m109.3 49.277h0.30376v-1.3039c0.16669-0.18522 0.31857-0.27783 0.45193-0.27783 0.22967 0 0.33709 0.14447 0.33709 0.48157v1.1002h0.30376v-1.3039c0.1667-0.18522 0.31117-0.27783 0.45193-0.27783 0.22597 0 0.3334 0.14447 0.3334 0.48157v1.1002h0.30375v-1.1409c0-0.45934-0.17781-0.70383-0.54824-0.70383-0.21856 0-0.40378 0.14077-0.5927 0.34451-0.0741-0.21485-0.22226-0.34451-0.49638-0.34451-0.21486 0-0.40378 0.13336-0.55936 0.30376h-0.0111l-0.0259-0.25931h-0.25189z"/>
    <path d="m112.28 48.81c0 0.32228 0.22596 0.5112 0.52972 0.5112 0.22226 0 0.4223-0.11854 0.5964-0.25931h7e-3l0.0259 0.21485h0.2519v-1.1039c0-0.44823-0.18522-0.74087-0.62604-0.74087-0.28894 0-0.54084 0.12595-0.70753 0.23338l0.12224 0.21115c0.14077-0.09631 0.32599-0.19263 0.53713-0.19263 0.29265 0 0.37044 0.22226 0.37044 0.45193-0.7668 0.0852-1.1076 0.28153-1.1076 0.67419zm0.30005-0.02223c0-0.22967 0.20374-0.37784 0.80755-0.45193v0.50009c-0.1741 0.15558-0.31857 0.24078-0.49268 0.24078-0.17781 0-0.31487-0.0852-0.31487-0.28894z"/>
    <path d="m114.07 49.073c0.1704 0.14076 0.41489 0.24819 0.67049 0.24819 0.426 0 0.65937-0.24449 0.65937-0.53713 0-0.3408-0.28894-0.44823-0.54824-0.54454-0.20374-0.07779-0.40007-0.14447-0.40007-0.31117 0-0.13706 0.10372-0.2593 0.32968-0.2593 0.15929 0 0.28894 0.06668 0.41119 0.15929l0.14447-0.19263c-0.13706-0.11113-0.33339-0.20374-0.55936-0.20374-0.38896 0-0.61863 0.22226-0.61863 0.5112 0 0.30376 0.28153 0.426 0.53713 0.51861 0.19633 0.07409 0.41119 0.15558 0.41119 0.3408 0 0.15558-0.11854 0.28153-0.35562 0.28153-0.21485 0-0.37414-0.0889-0.52972-0.21485z"/>
    <path d="m115.87 48.721c0 0.35562 0.12965 0.60011 0.5149 0.60011 0.11113 0 0.23338-0.03334 0.33339-0.06668l-0.0593-0.22967c-0.0593 0.02223-0.14076 0.04816-0.20374 0.04816-0.20744 0-0.27782-0.12595-0.27782-0.34821v-1.0002h0.48527v-0.24819h-0.48527v-0.50379h-0.2556l-0.0371 0.50379-0.28153 0.01852v0.22967h0.26672z"/>
    <path d="m116.9 48.381c0 0.58899 0.38155 0.94091 0.86312 0.94091 0.24448 0 0.43711-0.0852 0.59269-0.18522l-0.10742-0.20004c-0.13336 0.0852-0.27783 0.14077-0.44823 0.14077-0.34451 0-0.57788-0.24449-0.60011-0.63345h1.215c7e-3 -0.04445 0.0111-0.10372 0.0111-0.1667 0-0.51491-0.25931-0.84459-0.71865-0.84459-0.41118 0-0.80755 0.35932-0.80755 0.94832zm0.29635-0.13706c0.037-0.36303 0.26671-0.57047 0.51861-0.57047 0.28153 0 0.44452 0.20374 0.44452 0.57047z"/>
    <path d="m118.87 49.277h0.30375v-1.1558c0.12225-0.30376 0.30376-0.41489 0.45564-0.41489 0.0741 0 0.11483 0.01111 0.1741 0.02964l0.0593-0.26671c-0.0593-0.02593-0.11483-0.03704-0.19262-0.03704-0.20374 0-0.38896 0.14447-0.5112 0.37044h-0.0111l-0.0259-0.32598h-0.25189z"/>
   </g>
   <g transform="translate(-10.584)" fill="#e8eaec" stroke-linecap="round" aria-label="git fetch">
    <path d="m99.603 53.53c0-0.20374 0.1704-0.37044 0.37414-0.37044 0.20744 0 0.37414 0.1667 0.37414 0.37044s-0.1667 0.37044-0.37414 0.37044c-0.20744 0-0.37414-0.1667-0.37414-0.37044zm0.38896-0.58158c-0.3371 0-0.62974 0.26671-0.62974 0.5964 0 0.18522 0.09261 0.35932 0.24819 0.45934-0.12224 0.10372-0.19263 0.21856-0.19263 0.32598 0 0.07038 0.02963 0.1704 0.13706 0.22597-0.18151 0.11484-0.27412 0.24078-0.27412 0.37414 0 0.18522 0.1704 0.40378 0.7631 0.40378 0.57417 0 0.78162-0.29264 0.78162-0.51861 0-0.14817-0.0852-0.29635-0.26301-0.36673-0.17781-0.07409-0.38155-0.04816-0.57418-0.04816-0.12595 0-0.20744-0.01111-0.24078-0.02223-0.06668-0.01852-0.10372-0.05927-0.10372-0.11113 0-0.08891 0.10372-0.1741 0.12224-0.18892 0.06668 0.02593 0.14076 0.03704 0.21485 0.03704 0.3334 0 0.60752-0.26671 0.60752-0.57788 0-0.10372-0.0296-0.20374-0.0852-0.28894 0.0889-0.05186 0.19262-0.0815 0.29635-0.0815 0.0333 0 0.063 0.0037 0.0963 0.01111l-0.0296-0.21856c-0.1704-0.01482-0.3408 0.04075-0.47045 0.14817-0.10743-0.10372-0.24819-0.15929-0.40377-0.15929zm-0.2556 1.6558c0.06297 0.0074 0.15188 0.01482 0.28154 0.02223 0.12594 0.0037 0.26301-0.0074 0.35932 0.0074 0.15558 0.02593 0.20374 0.12224 0.20374 0.19633 0 0.07409-0.0444 0.16299-0.15929 0.22597-0.12595 0.06668-0.26671 0.07409-0.38155 0.07409-0.07779 0-0.22226-0.0037-0.34821-0.05557-0.13706-0.05557-0.1667-0.14817-0.1667-0.20744 0-0.12224 0.11484-0.21115 0.21115-0.26301z"/>
    <path d="m101.39 53v0.21856h0.40747v1.2632h-0.4297v0.21115h1.0965v-0.21115h-0.39637v-1.4817zm0.54824-0.73346c-0.10743 0-0.19263 0.0852-0.19263 0.18892 0 0.10372 0.0852 0.18892 0.19263 0.18892s0.19263-0.0852 0.19263-0.18892-0.0852-0.18892-0.19263-0.18892z"/>
    <path d="m103.54 52.548-0.0333 0.45564h-0.40377l-4e-3 0.21856h0.39637c-0.0222 0.28894-0.0333 0.57788-0.0333 0.86312 0 0.15188 0 0.32228 0.10002 0.46304 0.0815 0.11113 0.21115 0.17781 0.38525 0.17781 0.20004 0 0.39637-0.0852 0.54084-0.18892l-0.0815-0.21115c-0.14447 0.10743-0.27782 0.15558-0.38155 0.15558-0.12594 0-0.2556-0.07038-0.28523-0.27412 0-0.01482-0.0111-0.07779-0.0111-0.32598 0-0.21856 0.0111-0.44082 0.0333-0.65938h0.55566v-0.22226h-0.55195s0.0259-0.30376 0.0444-0.40007c4e-3 -0.03704 0.0333-0.05927 0.0185-0.10002z"/>
    <path d="m107.82 52.211c-0.23708 0-0.45934 0.10002-0.57788 0.29264-0.0889 0.14077-0.0926 0.28153-0.0926 0.43341v0.1667h-0.37044v0.21115h0.37044v1.378h0.2556v-1.378h0.55195v-0.21115h-0.55195v-0.13336c0-0.12224-4e-3 -0.2519 0.0593-0.36303 0.0704-0.12595 0.20374-0.18892 0.3408-0.18892 0.16299 0 0.30005 0.0852 0.37044 0.19263 0.0111 0.01852 0.0111 0.02963 0.0111 0.04445 0 0.02593 0.0185 0.03334 0.0296 0.03334l0.12225-0.24819c-0.12225-0.14447-0.30746-0.22967-0.51861-0.22967z"/>
    <path d="m109.36 52.963c-0.40378 0-0.77792 0.28894-0.77792 0.90386 0 0.56677 0.35192 0.86682 0.81126 0.86682 0.24449 0 0.46304-0.0889 0.60751-0.26301l-0.14817-0.14447c-0.10743 0.12595-0.27042 0.19263-0.43712 0.19263-0.22596 0-0.55565-0.12595-0.57417-0.63344h1.2002c0.0111-0.11484 7e-3 -0.22597-0.0111-0.32228-0.0778-0.45564-0.39266-0.60011-0.67049-0.60011zm-0.5112 0.71865c0.0556-0.40007 0.31116-0.51491 0.49268-0.51491 0.27412 0 0.47045 0.24078 0.43711 0.51491z"/>
    <path d="m110.95 52.548-0.0333 0.45564h-0.40377l-4e-3 0.21856h0.39637c-0.0222 0.28894-0.0333 0.57788-0.0333 0.86312 0 0.15188 0 0.32228 0.10002 0.46304 0.0815 0.11113 0.21115 0.17781 0.38525 0.17781 0.20004 0 0.39637-0.0852 0.54084-0.18892l-0.0815-0.21115c-0.14447 0.10743-0.27782 0.15558-0.38155 0.15558-0.12594 0-0.2556-0.07038-0.28523-0.27412 0-0.01482-0.0111-0.07779-0.0111-0.32598 0-0.21856 0.0111-0.44082 0.0333-0.65938h0.55566v-0.22226h-0.55195s0.0259-0.30376 0.0444-0.40007c4e-3 -0.03704 0.0333-0.05927 0.0185-0.10002z"/>
    <path d="m113.79 53.281c-0.13336-0.19633-0.35932-0.31487-0.63344-0.31487-0.49639 0-0.8483 0.37414-0.8483 0.88164 0 0.5112 0.35191 0.88905 0.83348 0.88905 0.23337 0 0.46304-0.09631 0.62233-0.27042l-0.15188-0.17781c-0.11483 0.12965-0.28153 0.20374-0.44823 0.20374-0.32968 0-0.58158-0.27412-0.58158-0.67049 0-0.38525 0.24819-0.62604 0.55936-0.62604 0.28894 0 0.426 0.20004 0.43711 0.22226 0.0148 0.02593-7e-3 0.06298 0.0222 0.0852z"/>
    <path d="m114.21 54.693h0.27413v-0.97425c0-0.11113 0.0111-0.19633 0.0815-0.28894 0.0667-0.0852 0.22967-0.23708 0.40748-0.23708 0.0852 0 0.1704 0.03704 0.22967 0.10743 0.0926 0.11113 0.0926 0.2556 0.0926 0.37414v1.0187h0.26301v-1.0261c0-0.12965-4e-3 -0.27042-0.063-0.40748-0.0852-0.18892-0.2556-0.29635-0.44823-0.29635-0.22967 0-0.44082 0.14818-0.56306 0.3371v-0.98166c0-0.01111 0-0.02223 0.0111-0.03334s0.0259-0.02223 0.0259-0.04075c0-0.0037 0-0.0074-4e-3 -0.01111h-0.30747z"/>
   </g>
   <path d="m86.257 56.095v-5.2919" fill="#1d232d" stroke="#6f8ce9" stroke-linecap="square"/>
  </g>
  <rect transform="matrix(.70711 .70711 .70711 -.70711 0 0)" x="95.98" y="24.893" width="1.1134" height="1.1134" fill="#6f8ce9"/>
 </g>
 <rect x="-.0013745" y="57.682" width="171.89" height="28.312" fill="#2f3744" fill-opacity=".50196"/>
 <g stroke-linecap="round" stroke-width=".2646">
  <g fill="#fff" aria-label="CLIENT">
   <path d="m4.0512 63.215c0 0.81126 0.5112 1.2373 1.1372 1.2373 0.30005 0 0.56677-0.12224 0.7668-0.35562l-0.30005-0.32969c-0.11854 0.12965-0.25931 0.21485-0.45934 0.21485-0.35191 0-0.58529-0.28894-0.58529-0.78532 0-0.48527 0.26301-0.77792 0.60011-0.77792 0.1704 0 0.28524 0.07038 0.40748 0.18151l0.30005-0.3371c-0.16299-0.1667-0.41489-0.31487-0.71494-0.31487-0.62233 0-1.1521 0.46675-1.1521 1.2669z"/>
   <path d="m6.3149 64.408h1.5003v-0.45934h-0.95202v-1.9559h-0.54825z"/>
   <path d="m8.2249 64.408h0.54825v-2.4152h-0.54825z"/>
   <path d="m9.3391 64.408h1.5521v-0.45934h-1.0039v-0.55565h0.82237v-0.45564h-0.82237v-0.48527h0.96684v-0.45934h-1.5151z"/>
   <path d="m11.365 64.408h0.52231v-0.85571c0-0.28524-0.04445-0.60752-0.07038-0.87423h0.01482l0.23708 0.52602 0.62974 1.2039h0.55936v-2.4152h-0.51861v0.852c0 0.28524 0.04445 0.62604 0.07038 0.88164h-0.01482l-0.24078-0.53343-0.62974-1.2002h-0.55936z"/>
   <path d="m14.299 64.408h0.54454v-1.9559h0.66308v-0.45934h-1.8744v0.45934h0.66678z"/>
  </g>
  <path d="m37.827 76.75-3.6949 2.1332-3.6949-2.1332v-4.2665l3.6949-2.1332 3.6949 2.1332z" fill="#1d232d" stroke="#6f8ce9"/>
  <path d="m54.226 74.749h-14.983" fill="none" stroke="#7b8694"/>
 </g>
 <g transform="matrix(-.004405 0 0 -.0044805 40.244 75.954)" fill="#7b8694" stroke-width="59.559">
  <g fill="#7b8694" stroke-width="59.559">
   <path d="m486.41 221.41-364.07-208.5c-52.938-30.318-95.852-5.44-95.852 55.563v415.65c0 61.004 42.914 85.882 95.852 55.563l364.07-208.49c52.938-30.317 52.938-79.473 0-109.79z" fill="#7b8694" stroke-width="59.559"/>
  </g>
 </g>
 <path d="m61.64 76.75-3.6949 2.1332-3.6949-2.1332v-4.2665l3.6949-2.1332 3.6949 2.1332z" fill="#1d232d" stroke="#6f8ce9" stroke-linecap="round" stroke-width=".2646"/>
 <path d="m78.04 74.749h-14.983" fill="none" stroke="#7b8694" stroke-linecap="round" stroke-width=".2646"/>
 <g transform="matrix(-.004405 0 0 -.0044805 64.058 75.954)" fill="#7b8694" stroke-width="59.559">
  <g fill="#7b8694" stroke-width="59.559">
   <path d="m486.41 221.41-364.07-208.5c-52.938-30.318-95.852-5.44-95.852 55.563v415.65c0 61.004 42.914 85.882 95.852 55.563l364.07-208.49c52.938-30.317 52.938-79.473 0-109.79z" fill="#7b8694" stroke-width="59.559"/>
  </g>
 </g>
 <path d="m85.454 76.75-3.6949 2.1332-3.6949-2.1332v-4.2665l3.6949-2.1332 3.6949 2.1332z" fill="#1d232d" stroke="#6f8ce9" stroke-linecap="round" stroke-width=".2646"/>
 <g fill="#e8eaec" stroke-linecap="round" stroke-width=".2646">
  <g aria-label="#cab">
   <path d="m30.823 69.481h0.20004l0.09261-0.75569h0.48898l-0.0889 0.75569h0.19633l0.09261-0.75569h0.3408v-0.21115h-0.31487l0.06668-0.54825h0.32228v-0.21485h-0.30005l0.0889-0.6779h-0.19633l-0.0889 0.6779h-0.49268l0.0852-0.6779h-0.19633l-0.0852 0.6779h-0.3408v0.21485h0.31487l-0.06668 0.54825h-0.32228v0.21115h0.29635zm0.31858-0.96684 0.06668-0.54825h0.48898l-0.06668 0.54825z"/>
   <path d="m32.497 68.585c0 0.5964 0.36673 0.94091 0.84459 0.94091 0.21485 0 0.4223-0.08891 0.58529-0.23338l-0.13706-0.20004c-0.10743 0.09631-0.2519 0.18151-0.4223 0.18151-0.32969 0-0.55565-0.27783-0.55565-0.68901 0-0.41489 0.23708-0.69642 0.56306-0.69642 0.14447 0 0.2556 0.06668 0.36303 0.15929l0.15188-0.19633c-0.12224-0.11484-0.28894-0.21485-0.52602-0.21485-0.46304 0-0.86682 0.34451-0.86682 0.94832z"/>
   <path d="m34.191 69.014c0 0.32228 0.22597 0.5112 0.52972 0.5112 0.22226 0 0.4223-0.11854 0.5964-0.2593h0.0074l0.02593 0.21485h0.2519v-1.1039c0-0.44823-0.18522-0.74087-0.62604-0.74087-0.28894 0-0.54084 0.12595-0.70753 0.23338l0.12224 0.21115c0.14076-0.09631 0.32598-0.19263 0.53713-0.19263 0.29264 0 0.37044 0.22226 0.37044 0.45193-0.7668 0.0852-1.1076 0.28153-1.1076 0.67419zm0.30005-0.02223c0-0.22967 0.20374-0.37784 0.80755-0.45193v0.50009c-0.1741 0.15558-0.31858 0.24078-0.49268 0.24078-0.17781 0-0.31487-0.0852-0.31487-0.28894z"/>
   <path d="m36.176 69.481h0.24449l0.02593-0.17781h0.01111c0.15929 0.14077 0.34821 0.22226 0.51491 0.22226 0.41118 0 0.77792-0.35932 0.77792-0.97425 0-0.55565-0.24819-0.91498-0.71494-0.91498-0.20004 0-0.40007 0.10743-0.56306 0.2519l0.0074-0.32598v-0.71865h-0.30376zm0.30376-0.40007v-0.94461c0.1704-0.15929 0.32969-0.24449 0.48157-0.24449 0.3408 0 0.47416 0.26671 0.47416 0.66308 0 0.44452-0.21856 0.71494-0.51491 0.71494-0.11854 0-0.28153-0.05186-0.44082-0.18892z"/>
  </g>
  <g aria-label="#06c">
   <path d="m54.636 69.481h0.20004l0.09261-0.75569h0.48898l-0.08891 0.75569h0.19633l0.09261-0.75569h0.3408v-0.21115h-0.31487l0.06668-0.54825h0.32228v-0.21485h-0.30005l0.0889-0.6779h-0.19633l-0.0889 0.6779h-0.49268l0.0852-0.6779h-0.19633l-0.0852 0.6779h-0.3408v0.21485h0.31487l-0.06668 0.54825h-0.32228v0.21115h0.29635zm0.31858-0.96684 0.06668-0.54825h0.48898l-0.06668 0.54825z"/>
   <path d="m57.063 69.526c0.47045 0 0.75569-0.44082 0.75569-1.2336s-0.28524-1.2187-0.75569-1.2187c-0.47416 0-0.75939 0.426-0.75939 1.2187s0.28524 1.2336 0.75939 1.2336zm0-0.24449c-0.27783 0-0.46304-0.29635-0.46304-0.98906s0.18522-0.97425 0.46304-0.97425c0.27412 0 0.45934 0.28153 0.45934 0.97425s-0.18522 0.98906-0.45934 0.98906z"/>
   <path d="m58.971 69.285c-0.30005 0-0.48157-0.24819-0.51861-0.70753 0.15929-0.22226 0.34451-0.31117 0.49268-0.31117 0.29264 0 0.43712 0.19263 0.43712 0.50009 0 0.31117-0.17781 0.51861-0.41118 0.51861zm0.65567-1.9596c-0.13336-0.14447-0.31487-0.2519-0.57047-0.2519-0.47045 0-0.90016 0.36673-0.90016 1.315 0 0.75939 0.35192 1.1372 0.81496 1.1372 0.38155 0 0.70012-0.30746 0.70012-0.75939 0-0.48527-0.26671-0.72976-0.67419-0.72976-0.19263 0-0.40378 0.11484-0.55195 0.29635 0.01482-0.74828 0.29264-1.0039 0.62233-1.0039 0.14817 0 0.29264 0.07038 0.38896 0.18522z"/>
   <path d="m59.986 68.585c0 0.5964 0.36673 0.94091 0.84459 0.94091 0.21485 0 0.4223-0.08891 0.58529-0.23338l-0.13706-0.20004c-0.10743 0.09631-0.2519 0.18151-0.4223 0.18151-0.32969 0-0.55565-0.27783-0.55565-0.68901 0-0.41489 0.23708-0.69642 0.56306-0.69642 0.14447 0 0.2556 0.06668 0.36303 0.15929l0.15188-0.19633c-0.12224-0.11484-0.28894-0.21485-0.52602-0.21485-0.46304 0-0.86682 0.34451-0.86682 0.94832z"/>
  </g>
  <g aria-label="#ba1">
   <path d="m78.45 69.481h0.20004l0.09261-0.75569h0.48898l-0.0889 0.75569h0.19633l0.09261-0.75569h0.3408v-0.21115h-0.31487l0.06668-0.54825h0.32228v-0.21485h-0.30005l0.08891-0.6779h-0.19633l-0.08891 0.6779h-0.49268l0.0852-0.6779h-0.19633l-0.0852 0.6779h-0.34081v0.21485h0.31487l-0.06668 0.54825h-0.32228v0.21115h0.29635zm0.31858-0.96684 0.06668-0.54825h0.48898l-0.06668 0.54825z"/>
   <path d="m80.258 69.481h0.24449l0.02593-0.17781h0.01111c0.15929 0.14077 0.34821 0.22226 0.51491 0.22226 0.41118 0 0.77792-0.35932 0.77792-0.97425 0-0.55565-0.24819-0.91498-0.71494-0.91498-0.20004 0-0.40007 0.10743-0.56306 0.2519l0.0074-0.32598v-0.71865h-0.30376zm0.30376-0.40007v-0.94461c0.1704-0.15929 0.32969-0.24449 0.48157-0.24449 0.3408 0 0.47416 0.26671 0.47416 0.66308 0 0.44452-0.21856 0.71494-0.51491 0.71494-0.11854 0-0.28153-0.05186-0.44082-0.18892z"/>
   <path d="m82.173 69.014c0 0.32228 0.22597 0.5112 0.52972 0.5112 0.22226 0 0.4223-0.11854 0.5964-0.2593h0.0074l0.02593 0.21485h0.2519v-1.1039c0-0.44823-0.18522-0.74087-0.62604-0.74087-0.28894 0-0.54084 0.12595-0.70753 0.23338l0.12224 0.21115c0.14076-0.09631 0.32598-0.19263 0.53713-0.19263 0.29264 0 0.37044 0.22226 0.37044 0.45193-0.7668 0.0852-1.1076 0.28153-1.1076 0.67419zm0.30005-0.02223c0-0.22967 0.20374-0.37784 0.80755-0.45193v0.50009c-0.1741 0.15558-0.31858 0.24078-0.49268 0.24078-0.17781 0-0.31487-0.0852-0.31487-0.28894z"/>
   <path d="m84.147 69.481h1.3336v-0.2519h-0.48898v-2.1115h-0.23337c-0.12965 0.07779-0.28524 0.13706-0.50009 0.1741v0.19633h0.42971v1.741h-0.54084z"/>
  </g>
 </g>
 <path d="m101.85 74.749h-14.983" fill="none" stroke="#7b8694" stroke-linecap="round" stroke-width=".2646"/>
 <g transform="matrix(-.004405 0 0 -.0044805 87.872 75.954)" fill="#7b8694" stroke-width="59.559">
  <g fill="#7b8694" stroke-width="59.559">
   <path d="m486.41 221.41-364.07-208.5c-52.938-30.318-95.852-5.44-95.852 55.563v415.65c0 61.004 42.914 85.882 95.852 55.563l364.07-208.49c52.938-30.317 52.938-79.473 0-109.79z" fill="#7b8694" stroke-width="59.559"/>
  </g>
 </g>
 <path d="m109.27 76.75-3.6949 2.1332-3.6949-2.1332v-4.2665l3.6949-2.1332 3.6949 2.1332z" fill="#1d232d" stroke="#6f8ce9" stroke-linecap="round" stroke-width=".2646"/>
 <g fill="#e8eaec" stroke-linecap="round" stroke-width=".2646">
  <g aria-label="#cc2">
   <path d="m102.53 69.481h0.20003l0.0926-0.75569h0.48898l-0.0889 0.75569h0.19633l0.0926-0.75569h0.3408v-0.21115h-0.31487l0.0667-0.54825h0.32228v-0.21485h-0.30005l0.0889-0.6779h-0.19633l-0.0889 0.6779h-0.49268l0.0852-0.6779h-0.19634l-0.0852 0.6779h-0.3408v0.21485h0.31487l-0.0667 0.54825h-0.32228v0.21115h0.29634zm0.31857-0.96684 0.0667-0.54825h0.48897l-0.0667 0.54825z"/>
   <path d="m104.2 68.585c0 0.5964 0.36674 0.94091 0.8446 0.94091 0.21485 0 0.42229-0.08891 0.58529-0.23338l-0.13706-0.20004c-0.10743 0.09631-0.2519 0.18151-0.4223 0.18151-0.32969 0-0.55566-0.27783-0.55566-0.68901 0-0.41489 0.23708-0.69642 0.56307-0.69642 0.14447 0 0.2556 0.06668 0.36302 0.15929l0.15188-0.19633c-0.12224-0.11484-0.28894-0.21485-0.52602-0.21485-0.46304 0-0.86682 0.34451-0.86682 0.94832z"/>
   <path d="m105.81 68.585c0 0.5964 0.36673 0.94091 0.8446 0.94091 0.21485 0 0.42229-0.08891 0.58528-0.23338l-0.13706-0.20004c-0.10742 0.09631-0.25189 0.18151-0.42229 0.18151-0.32969 0-0.55566-0.27783-0.55566-0.68901 0-0.41489 0.23708-0.69642 0.56306-0.69642 0.14447 0 0.25561 0.06668 0.36303 0.15929l0.15188-0.19633c-0.12224-0.11484-0.28894-0.21485-0.52602-0.21485-0.46304 0-0.86682 0.34451-0.86682 0.94832z"/>
   <path d="m107.47 69.481h1.5262v-0.26301h-0.6853c-0.12225 0-0.26672 0.01111-0.39637 0.02223 0.55936-0.58529 0.96314-1.0261 0.96314-1.4706 0-0.41859-0.27042-0.69642-0.70754-0.69642-0.30746 0-0.51861 0.14447-0.71494 0.35932l0.17411 0.1741c0.13706-0.15929 0.30746-0.28524 0.50379-0.28524 0.30005 0 0.44823 0.19263 0.44823 0.46304 0 0.38155-0.40007 0.80755-1.1113 1.5151z"/>
  </g>
  <g stroke="#cf2f25" aria-label="A">
   <path d="m36.936 79.34 0.11854-0.37044c0.0852-0.27042 0.16299-0.53713 0.24078-0.81866h0.01482c0.07779 0.28153 0.15558 0.54825 0.24078 0.81866l0.11484 0.37044zm1.0409 0.98906h0.32598l-0.82237-2.4301h-0.34821l-0.82237 2.4301h0.31487l0.23338-0.74087h0.88534z" fill="#e8eaec" stroke="none"/>
  </g>
  <g stroke="#cf2f25" aria-label="B">
   <path d="m60.446 80.33h0.77792c0.54084 0 0.91868-0.23338 0.91868-0.71124 0-0.33339-0.20744-0.52602-0.56306-0.58158v-0.01482c0.28894-0.07409 0.426-0.28894 0.426-0.52972 0-0.426-0.3445-0.5927-0.83718-0.5927h-0.72235zm0.31117-1.3928v-0.79273h0.37414c0.37414 0 0.57047 0.11113 0.57047 0.37414 0 0.27042-0.1741 0.41859-0.58529 0.41859zm0 1.1484v-0.91868h0.4223c0.426 0 0.65938 0.13706 0.65938 0.43712 0 0.32969-0.24449 0.48157-0.65938 0.48157z" fill="#e8eaec" stroke="none"/>
  </g>
  <g stroke="#cf2f25" aria-label="C">
   <path d="m84.119 79.114c0 0.79273 0.45564 1.2595 1.0669 1.2595 0.30746 0 0.54824-0.12965 0.73717-0.35191l-0.1741-0.18892c-0.15558 0.1741-0.32598 0.27042-0.55565 0.27042-0.46304 0-0.75569-0.38525-0.75569-0.99647 0-0.60381 0.30746-0.98166 0.77051-0.98166 0.20004 0 0.35562 0.0889 0.48527 0.22597l0.1741-0.19633c-0.14447-0.15929-0.37414-0.30005-0.66308-0.30005-0.62233 0-1.0854 0.47786-1.0854 1.2595z" fill="#e8eaec" stroke="none"/>
  </g>
  <g stroke="#cf2f25" aria-label="D">
   <path d="m108.07 80.33h0.62233c0.73346 0 1.1335-0.45193 1.1335-1.2261 0-0.77051-0.40007-1.2039-1.1484-1.2039h-0.60751zm0.31116-0.2519v-1.9263h0.27413c0.57047 0 0.852 0.3408 0.852 0.95202 0 0.61492-0.28153 0.97425-0.852 0.97425z" fill="#e8eaec" stroke="none"/>
  </g>
 </g>
 <path d="m78.064 83.365v-2.1497l3.6949-2.1332 3.6949 2.1332v2.1497z" fill="#e9e56f"/>
 <path d="m128.33 72.131c-1.4503 0-2.6178 1.1676-2.6178 2.6178 0 1.4503 1.1675 2.6178 2.6178 2.6178h21.697c1.4503 0 2.6178-1.1676 2.6178-2.6178 0-1.4503-1.1675-2.6178-2.6178-2.6178z" fill="#1d232d" stroke="#7893ea" stroke-width=".2646"/>
 <path d="m125.67 74.749h-14.983" fill="none" stroke="#6f8ce9" stroke-linecap="round" stroke-width=".2646"/>
 <g>
  <g transform="matrix(-.004405 0 0 -.0044805 111.69 75.954)" fill="#6f8ce9" stroke-width="59.559">
   <g fill="#6f8ce9" stroke-width="59.559">
    <path d="m486.41 221.41-364.07-208.5c-52.938-30.318-95.852-5.44-95.852 55.563v415.65c0 61.004 42.914 85.882 95.852 55.563l364.07-208.49c52.938-30.317 52.938-79.473 0-109.79z" fill="#6f8ce9" stroke-width="59.559"/>
   </g>
  </g>
  <g fill="#e8eaec" stroke-linecap="round" stroke-width=".2646" aria-label="origin/master">
   <path d="m128.73 74.982c0 0.5964 0.39266 0.94091 0.83348 0.94091s0.83348-0.3445 0.83348-0.94091c0-0.60381-0.39266-0.94832-0.83348-0.94832s-0.83348 0.34451-0.83348 0.94832zm0.31487 0c0-0.41489 0.21115-0.69642 0.51861-0.69642 0.31117 0 0.51861 0.28153 0.51861 0.69642 0 0.41118-0.20744 0.68901-0.51861 0.68901-0.30746 0-0.51861-0.27783-0.51861-0.68901z"/>
   <path d="m130.88 75.878h0.30376v-1.1558c0.12224-0.30376 0.30376-0.41489 0.45563-0.41489 0.0741 0 0.11484 0.01111 0.17411 0.02963l0.0593-0.26671c-0.0593-0.02593-0.11484-0.03704-0.19263-0.03704-0.20374 0-0.38896 0.14447-0.5112 0.37044h-0.0111l-0.0259-0.32598h-0.2519z"/>
   <path d="m132.32 73.708c0.11854 0 0.21115-0.0815 0.21115-0.19633 0-0.11854-0.0926-0.19633-0.21115-0.19633-0.11854 0-0.21115 0.07779-0.21115 0.19633 0 0.11484 0.0926 0.19633 0.21115 0.19633zm-0.15559 2.1708h0.30376v-1.8003h-0.30376z"/>
   <path d="m133.21 76.182c0-0.10372 0.0556-0.21115 0.18521-0.30376 0.0778 0.02223 0.163 0.02964 0.23338 0.02964h0.31117c0.23337 0 0.36302 0.05556 0.36302 0.22226 0 0.18892-0.22596 0.36673-0.57047 0.36673-0.32598 0-0.52231-0.12224-0.52231-0.31487zm-0.26672 0.04075c0 0.31117 0.30376 0.48527 0.74458 0.48527 0.55936 0 0.91127-0.28894 0.91127-0.62233 0-0.30005-0.21115-0.42971-0.62974-0.42971h-0.34821c-0.24449 0-0.31857-0.0815-0.31857-0.19633 0-0.10002 0.0519-0.15929 0.11483-0.21485 0.0815 0.04075 0.18151 0.06297 0.27042 0.06297 0.36673 0 0.65937-0.24078 0.65937-0.62604 0-0.15188-0.063-0.28894-0.14817-0.37044h0.37044v-0.23337h-0.62604c-0.0667-0.02593-0.15558-0.04445-0.2556-0.04445-0.36673 0-0.6779 0.24819-0.6779 0.64086 0 0.21485 0.11484 0.38896 0.23338 0.48527v0.01482c-0.0926 0.06297-0.19634 0.18151-0.19634 0.33339 0 0.14076 0.0704 0.23708 0.15929 0.29264v0.01482c-0.16299 0.11113-0.26301 0.2556-0.26301 0.40748zm0.74458-1.1187c-0.20745 0-0.38155-0.1667-0.38155-0.42971 0-0.26301 0.1704-0.41859 0.38155-0.41859s0.38155 0.15558 0.38155 0.41859c0 0.26301-0.17411 0.42971-0.38155 0.42971z"/>
   <path d="m135.1 73.708c0.11854 0 0.21115-0.0815 0.21115-0.19633 0-0.11854-0.0926-0.19633-0.21115-0.19633-0.11854 0-0.21115 0.07779-0.21115 0.19633 0 0.11484 0.0926 0.19633 0.21115 0.19633zm-0.15559 2.1708h0.30376v-1.8003h-0.30376z"/>
   <path d="m135.86 75.878h0.30376v-1.3039c0.18152-0.18151 0.30746-0.27783 0.49268-0.27783 0.23708 0 0.3408 0.14447 0.3408 0.48157v1.1002h0.30376v-1.1409c0-0.45934-0.1704-0.70383-0.54825-0.70383-0.24819 0-0.43341 0.13336-0.60381 0.30376h-0.0111l-0.0259-0.2593h-0.2519z"/>
   <path d="m137.62 76.471h0.22597l0.98536-3.2228h-0.22226z"/>
   <path d="m139.18 75.878h0.30376v-1.3039c0.1667-0.18522 0.31858-0.27783 0.45193-0.27783 0.22967 0 0.3371 0.14447 0.3371 0.48157v1.1002h0.30376v-1.3039c0.16669-0.18522 0.31116-0.27783 0.45193-0.27783 0.22597 0 0.33339 0.14447 0.33339 0.48157v1.1002h0.30376v-1.1409c0-0.45934-0.17781-0.70383-0.54825-0.70383-0.21855 0-0.40377 0.14077-0.59269 0.34451-0.0741-0.21485-0.22226-0.34451-0.49639-0.34451-0.21485 0-0.40377 0.13336-0.55936 0.30376h-0.0111l-0.0259-0.2593h-0.2519z"/>
   <path d="m142.16 75.412c0 0.32228 0.22597 0.5112 0.52973 0.5112 0.22226 0 0.42229-0.11854 0.5964-0.2593h7e-3l0.0259 0.21485h0.25189v-1.1039c0-0.44823-0.18521-0.74087-0.62603-0.74087-0.28894 0-0.54084 0.12595-0.70753 0.23338l0.12224 0.21115c0.14076-0.09631 0.32598-0.19263 0.53713-0.19263 0.29265 0 0.37044 0.22226 0.37044 0.45193-0.76681 0.0852-1.1076 0.28153-1.1076 0.67419zm0.30006-0.02223c0-0.22967 0.20374-0.37784 0.80755-0.45193v0.50009c-0.17411 0.15558-0.31858 0.24078-0.49268 0.24078-0.17781 0-0.31487-0.0852-0.31487-0.28894z"/>
   <path d="m143.94 75.675c0.1704 0.14077 0.41489 0.24819 0.67049 0.24819 0.426 0 0.65938-0.24449 0.65938-0.53713 0-0.3408-0.28894-0.44823-0.54825-0.54454-0.20374-0.07779-0.40007-0.14447-0.40007-0.31117 0-0.13706 0.10372-0.2593 0.32969-0.2593 0.15929 0 0.28894 0.06668 0.41118 0.15929l0.14447-0.19263c-0.13706-0.11113-0.33339-0.20374-0.55935-0.20374-0.38896 0-0.61863 0.22226-0.61863 0.5112 0 0.30376 0.28153 0.426 0.53713 0.51861 0.19633 0.07409 0.41118 0.15558 0.41118 0.3408 0 0.15558-0.11854 0.28153-0.35561 0.28153-0.21486 0-0.37414-0.08891-0.52973-0.21485z"/>
   <path d="m145.75 75.323c0 0.35562 0.12965 0.60011 0.51491 0.60011 0.11113 0 0.23337-0.03334 0.33339-0.06668l-0.0593-0.22967c-0.0593 0.02223-0.14076 0.04816-0.20374 0.04816-0.20744 0-0.27783-0.12595-0.27783-0.34821v-1.0002h0.48528v-0.24819h-0.48528v-0.50379h-0.2556l-0.037 0.50379-0.28153 0.01852v0.22967h0.26671z"/>
   <path d="m146.78 74.982c0 0.58899 0.38155 0.94091 0.86311 0.94091 0.24449 0 0.43712-0.0852 0.5927-0.18522l-0.10743-0.20004c-0.13335 0.0852-0.27782 0.14076-0.44822 0.14076-0.34451 0-0.57788-0.24449-0.60011-0.63344h1.215c7e-3 -0.04445 0.0111-0.10372 0.0111-0.1667 0-0.51491-0.2593-0.8446-0.71864-0.8446-0.41119 0-0.80755 0.35932-0.80755 0.94832zm0.29635-0.13706c0.037-0.36303 0.26671-0.57047 0.51861-0.57047 0.28153 0 0.44452 0.20374 0.44452 0.57047z"/>
   <path d="m148.75 75.878h0.30376v-1.1558c0.12224-0.30376 0.30376-0.41489 0.45564-0.41489 0.0741 0 0.11483 0.01111 0.1741 0.02963l0.0593-0.26671c-0.0593-0.02593-0.11483-0.03704-0.19263-0.03704-0.20374 0-0.38895 0.14447-0.5112 0.37044h-0.0111l-0.0259-0.32598h-0.2519z"/>
  </g>
  <path d="m101.07 60.224c-1.4503 0-2.6178 1.1676-2.6178 2.6178 0 1.4503 1.1675 2.6178 2.6178 2.6178h11.113c1.4503 0 2.6178-1.1676 2.6178-2.6178 0-1.4503-1.1675-2.6178-2.6178-2.6178z" fill="#1d232d" stroke="#7893ea" stroke-width=".2646"/>
 </g>
 <path d="m99.222 64.633-12.825 7.0771" fill="none" stroke="#6f8ce9" stroke-linecap="round" stroke-width=".2646"/>
 <g>
  <g transform="matrix(-.0035373 .0026252 -.0026702 -.0035978 88.103 72.056)" fill="#6f8ce9" stroke-width="59.559">
   <g fill="#6f8ce9" stroke-width="59.559">
    <path d="m486.41 221.41-364.07-208.5c-52.938-30.318-95.852-5.44-95.852 55.563v415.65c0 61.004 42.914 85.882 95.852 55.563l364.07-208.49c52.938-30.317 52.938-79.473 0-109.79z" fill="#6f8ce9" stroke-width="59.559"/>
   </g>
  </g>
  <g fill="#e8eaec" stroke-linecap="round" stroke-width=".2646" aria-label="master">
   <path d="m101.61 63.972h0.30376v-1.3039c0.1667-0.18522 0.31858-0.27783 0.45193-0.27783 0.22967 0 0.3371 0.14447 0.3371 0.48157v1.1002h0.30376v-1.3039c0.16669-0.18522 0.31116-0.27783 0.45193-0.27783 0.22597 0 0.33339 0.14447 0.33339 0.48157v1.1002h0.30376v-1.1409c0-0.45934-0.17781-0.70383-0.54825-0.70383-0.21855 0-0.40377 0.14077-0.59269 0.34451-0.0741-0.21485-0.22226-0.34451-0.49639-0.34451-0.21485 0-0.40377 0.13336-0.55936 0.30376h-0.0111l-0.0259-0.25931h-0.2519z"/>
   <path d="m104.59 63.505c0 0.32228 0.22597 0.5112 0.52973 0.5112 0.22226 0 0.42229-0.11854 0.5964-0.2593h7e-3l0.0259 0.21485h0.25189v-1.1039c0-0.44823-0.18521-0.74087-0.62603-0.74087-0.28894 0-0.54084 0.12595-0.70754 0.23338l0.12225 0.21115c0.14076-0.09631 0.32598-0.19263 0.53713-0.19263 0.29264 0 0.37044 0.22226 0.37044 0.45193-0.76681 0.0852-1.1076 0.28153-1.1076 0.67419zm0.30006-0.02223c0-0.22967 0.20374-0.37784 0.80755-0.45193v0.50009c-0.17411 0.15558-0.31858 0.24078-0.49268 0.24078-0.17781 0-0.31487-0.0852-0.31487-0.28894z"/>
   <path d="m106.38 63.768c0.1704 0.14076 0.41489 0.24819 0.67049 0.24819 0.426 0 0.65938-0.24449 0.65938-0.53713 0-0.3408-0.28894-0.44823-0.54825-0.54454-0.20374-0.07779-0.40007-0.14447-0.40007-0.31117 0-0.13706 0.10372-0.2593 0.32969-0.2593 0.15929 0 0.28894 0.06668 0.41118 0.15929l0.14447-0.19263c-0.13706-0.11113-0.33339-0.20374-0.55936-0.20374-0.38895 0-0.61862 0.22226-0.61862 0.5112 0 0.30376 0.28153 0.426 0.53713 0.51861 0.19633 0.07409 0.41118 0.15558 0.41118 0.3408 0 0.15558-0.11854 0.28153-0.35562 0.28153-0.21485 0-0.37414-0.0889-0.52972-0.21485z"/>
   <path d="m108.18 63.416c0 0.35562 0.12965 0.60011 0.51491 0.60011 0.11113 0 0.23337-0.03334 0.33339-0.06668l-0.0593-0.22967c-0.0593 0.02223-0.14077 0.04816-0.20374 0.04816-0.20744 0-0.27783-0.12595-0.27783-0.34821v-1.0002h0.48527v-0.24819h-0.48527v-0.50379h-0.2556l-0.037 0.50379-0.28153 0.01852v0.22967h0.26671z"/>
   <path d="m109.21 63.075c0 0.58899 0.38154 0.94091 0.86311 0.94091 0.24449 0 0.43712-0.0852 0.5927-0.18522l-0.10743-0.20004c-0.13335 0.0852-0.27782 0.14077-0.44822 0.14077-0.34451 0-0.57788-0.24449-0.60011-0.63345h1.215c7e-3 -0.04445 0.0111-0.10372 0.0111-0.1667 0-0.51491-0.2593-0.84459-0.71864-0.84459-0.41119 0-0.80755 0.35932-0.80755 0.94832zm0.29634-0.13706c0.0371-0.36303 0.26672-0.57047 0.51862-0.57047 0.28153 0 0.44452 0.20374 0.44452 0.57047z"/>
   <path d="m111.19 63.972h0.30376v-1.1558c0.12224-0.30376 0.30376-0.41489 0.45564-0.41489 0.0741 0 0.11483 0.01111 0.1741 0.02963l0.0593-0.26671c-0.0593-0.02593-0.11483-0.03704-0.19263-0.03704-0.20374 0-0.38895 0.14447-0.5112 0.37044h-0.0111l-0.0259-0.32598h-0.2519z"/>
  </g>
  <g transform="matrix(0 .004405 -.0044805 0 87.498 55.506)" fill="#6f8ce9" stroke-width="59.559">
   <g fill="#6f8ce9" stroke-width="59.559">
    <path d="m486.41 221.41-364.07-208.5c-52.938-30.318-95.852-5.44-95.852 55.563v415.65c0 61.004 42.914 85.882 95.852 55.563l364.07-208.49c52.938-30.317 52.938-79.473 0-109.79z" fill="#6f8ce9" stroke-width="59.559"/>
   </g>
  </g>
 </g>
</svg>
