<?xml version="1.0" encoding="UTF-8"?>
<svg width="649.48" height="319" version="1.1" viewBox="0 0 171.85 84.406" xmlns="http://www.w3.org/2000/svg" xmlns:cc="http://creativecommons.org/ns#" xmlns:dc="http://purl.org/dc/elements/1.1/" xmlns:rdf="http://www.w3.org/1999/02/22-rdf-syntax-ns#">
 <metadata>
  <rdf:RDF>
   <cc:Work rdf:about="">
    <dc:format>image/svg+xml</dc:format>
    <dc:type rdf:resource="http://purl.org/dc/dcmitype/StillImage"/>
    <dc:title/>
   </cc:Work>
  </rdf:RDF>
 </metadata>
 <rect y="-.00010991" width="171.85" height="23.02" fill="#2f3744" fill-opacity=".5"/>
 <g stroke-width=".2646">
  <path d="m95.25 8.3628c-1.4503 0-2.6178 1.1675-2.6178 2.6178 0 1.4503 1.1675 2.6178 2.6178 2.6178h16.405c1.4503 0 2.6178-1.1675 2.6178-2.6178 0-1.4503-1.1675-2.6178-2.6178-2.6178z" fill="#1d232d" stroke="#7893ea"/>
  <path d="m28.563 12.982-3.6949 2.1332-3.6949-2.1332v-4.2665l3.6949-2.1332 3.6949 2.1332z" fill="#1d232d" stroke="#6f8ce9" stroke-linecap="round"/>
  <path d="m44.962 10.981h-14.983" fill="none" stroke="#7b8694" stroke-linecap="round"/>
 </g>
 <g transform="matrix(-.004405 0 0 -.0044804 30.98 12.186)" fill="#7b8694" stroke-width="59.559">
  <g fill="#7b8694" stroke-width="59.559">
   <path d="m486.41 221.41-364.07-208.5c-52.938-30.318-95.852-5.44-95.852 55.563v415.65c0 61.004 42.914 85.882 95.852 55.563l364.07-208.49c52.938-30.317 52.938-79.473 0-109.79z" fill="#7b8694" stroke-width="59.559"/>
  </g>
 </g>
 <path d="m52.376 12.982-3.6949 2.1332-3.6949-2.1332v-4.2665l3.6949-2.1332 3.6949 2.1332z" fill="#1d232d" stroke="#6f8ce9" stroke-linecap="round" stroke-width=".2646"/>
 <path d="m68.776 10.981h-14.983" fill="none" stroke="#7b8694" stroke-linecap="round" stroke-width=".2646"/>
 <g transform="matrix(-.004405 0 0 -.0044804 54.794 12.186)" fill="#7b8694" stroke-width="59.559">
  <g fill="#7b8694" stroke-width="59.559">
   <path d="m486.41 221.41-364.07-208.5c-52.938-30.318-95.852-5.44-95.852 55.563v415.65c0 61.004 42.914 85.882 95.852 55.563l364.07-208.49c52.938-30.317 52.938-79.473 0-109.79z" fill="#7b8694" stroke-width="59.559"/>
  </g>
 </g>
 <path d="m76.19 12.982-3.6949 2.1332-3.6949-2.1332v-4.2665l3.6949-2.1332 3.6949 2.1332z" fill="#1d232d" stroke="#6f8ce9" stroke-linecap="round" stroke-width=".2646"/>
 <path d="m92.589 10.981h-14.983" fill="none" stroke="#6f8ce9" stroke-linecap="round" stroke-width=".2646"/>
 <g transform="matrix(-.004405 0 0 -.0044804 78.608 12.186)" fill="#6f8ce9" stroke-width="59.559">
  <g fill="#6f8ce9" stroke-width="59.559">
   <path d="m486.41 221.41-364.07-208.5c-52.938-30.318-95.852-5.44-95.852 55.563v415.65c0 61.004 42.914 85.882 95.852 55.563l364.07-208.49c52.938-30.317 52.938-79.473 0-109.79z" fill="#6f8ce9" stroke-width="59.559"/>
  </g>
 </g>
 <g fill="#e8eaec" stroke-linecap="round" stroke-width=".2646" aria-label="master">
  <path d="m98.17 12.11h0.30376v-1.3039c0.1667-0.18522 0.31857-0.27783 0.45193-0.27783 0.22967 0 0.3371 0.14447 0.3371 0.48156v1.1002h0.30376v-1.3039c0.1667-0.18522 0.31116-0.27783 0.45193-0.27783 0.22597 0 0.33339 0.14447 0.33339 0.48156v1.1002h0.30376v-1.1409c0-0.45934-0.17781-0.70383-0.54824-0.70383-0.21856 0-0.40378 0.14076-0.5927 0.3445-0.07409-0.21485-0.22226-0.3445-0.49638-0.3445-0.21485 0-0.40377 0.13336-0.55936 0.30376h-0.01111l-0.02593-0.2593h-0.2519z"/>
  <path d="m101.15 11.644c0 0.32228 0.22597 0.5112 0.52972 0.5112 0.22226 0 0.4223-0.11854 0.5964-0.2593h7e-3l0.0259 0.21485h0.2519v-1.1039c0-0.44823-0.18522-0.74087-0.62604-0.74087-0.28894 0-0.54083 0.12595-0.70753 0.23337l0.12225 0.21115c0.14076-0.09631 0.32598-0.19263 0.53713-0.19263 0.29264 0 0.37043 0.22226 0.37043 0.45193-0.7668 0.0852-1.1076 0.28153-1.1076 0.67419zm0.30005-0.02223c0-0.22967 0.20374-0.37784 0.80755-0.45193v0.50009c-0.1741 0.15558-0.31857 0.24078-0.49268 0.24078-0.17781 0-0.31487-0.0852-0.31487-0.28894z"/>
  <path d="m102.93 11.907c0.1704 0.14076 0.41488 0.24819 0.67048 0.24819 0.426 0 0.65938-0.24449 0.65938-0.53713 0-0.3408-0.28894-0.44823-0.54825-0.54454-0.20374-0.07779-0.40007-0.14447-0.40007-0.31116 0-0.13706 0.10373-0.2593 0.32969-0.2593 0.15929 0 0.28894 0.06668 0.41118 0.15929l0.14447-0.19263c-0.13706-0.11113-0.33339-0.20374-0.55935-0.20374-0.38896 0-0.61863 0.22226-0.61863 0.5112 0 0.30376 0.28153 0.426 0.53713 0.51861 0.19633 0.07409 0.41118 0.15558 0.41118 0.3408 0 0.15558-0.11854 0.28153-0.35561 0.28153-0.21486 0-0.37414-0.0889-0.52973-0.21485z"/>
  <path d="m104.74 11.555c0 0.35562 0.12965 0.6001 0.5149 0.6001 0.11113 0 0.23338-0.03334 0.3334-0.06668l-0.0593-0.22967c-0.0593 0.02223-0.14077 0.04816-0.20374 0.04816-0.20745 0-0.27783-0.12595-0.27783-0.34821v-1.0002h0.48527v-0.24819h-0.48527v-0.50379h-0.2556l-0.037 0.50379-0.28153 0.01852v0.22967h0.26671z"/>
  <path d="m105.77 11.214c0 0.58899 0.38155 0.9409 0.86311 0.9409 0.24449 0 0.43712-0.0852 0.5927-0.18522l-0.10743-0.20004c-0.13335 0.0852-0.27782 0.14076-0.44822 0.14076-0.34451 0-0.57788-0.24449-0.60011-0.63344h1.215c7e-3 -0.04445 0.0111-0.10372 0.0111-0.1667 0-0.5149-0.2593-0.84459-0.71864-0.84459-0.41118 0-0.80755 0.35932-0.80755 0.94831zm0.29635-0.13706c0.037-0.36303 0.26671-0.57047 0.51861-0.57047 0.28153 0 0.44452 0.20374 0.44452 0.57047z"/>
  <path d="m107.74 12.11h0.30376v-1.1558c0.12224-0.30376 0.30376-0.41489 0.45563-0.41489 0.0741 0 0.11484 0.01111 0.17411 0.02964l0.0593-0.26671c-0.0593-0.02593-0.11484-0.03704-0.19263-0.03704-0.20374 0-0.38895 0.14447-0.5112 0.37044h-0.0111l-0.0259-0.32598h-0.2519z"/>
 </g>
 <path d="m125.58 14.503v-7.0449" fill="none" stroke="#7b8694" stroke-linecap="round" stroke-width=".2646"/>
 <g fill="#e8eaec" stroke-linecap="round" stroke-width=".2646">
  <g aria-label="#cab">
   <path d="m21.559 5.7131h0.20004l0.09261-0.75569h0.48897l-0.0889 0.75569h0.19633l0.09261-0.75569h0.3408v-0.21115h-0.31487l0.06668-0.54824h0.32228v-0.21485h-0.30005l0.0889-0.6779h-0.19633l-0.08891 0.6779h-0.49268l0.0852-0.6779h-0.19633l-0.0852 0.6779h-0.3408v0.21485h0.31487l-0.06668 0.54824h-0.32228v0.21115h0.29635zm0.31857-0.96684 0.06668-0.54824h0.48897l-0.06668 0.54824z"/>
   <path d="m23.233 4.8166c0 0.5964 0.36673 0.9409 0.84459 0.9409 0.21485 0 0.4223-0.088904 0.58529-0.23337l-0.13706-0.20003c-0.10743 0.096313-0.2519 0.18151-0.4223 0.18151-0.32969 0-0.55565-0.27783-0.55565-0.68901 0-0.41489 0.23708-0.69642 0.56306-0.69642 0.14447 0 0.2556 0.066678 0.36303 0.15929l0.15188-0.19633c-0.12224-0.11483-0.28894-0.21485-0.52602-0.21485-0.46304 0-0.86682 0.3445-0.86682 0.94831z"/>
   <path d="m24.927 5.2463c0 0.32228 0.22597 0.5112 0.52972 0.5112 0.22226 0 0.4223-0.11854 0.5964-0.2593h0.0074l0.02593 0.21485h0.2519v-1.1039c0-0.44823-0.18522-0.74087-0.62604-0.74087-0.28894 0-0.54084 0.12595-0.70753 0.23337l0.12224 0.21115c0.14077-0.096313 0.32598-0.19263 0.53713-0.19263 0.29264 0 0.37044 0.22226 0.37044 0.45193-0.7668 0.0852-1.1076 0.28153-1.1076 0.67419zm0.30005-0.022226c0-0.22967 0.20374-0.37784 0.80755-0.45193v0.50009c-0.1741 0.15558-0.31857 0.24078-0.49268 0.24078-0.17781 0-0.31487-0.0852-0.31487-0.28894z"/>
   <path d="m26.912 5.7131h0.24449l0.02593-0.17781h0.01111c0.15929 0.14077 0.34821 0.22226 0.5149 0.22226 0.41118 0 0.77791-0.35932 0.77791-0.97424 0-0.55565-0.24819-0.91497-0.71494-0.91497-0.20004 0-0.40007 0.10743-0.56306 0.2519l0.0074-0.32598v-0.71864h-0.30374zm0.30376-0.40007v-0.94461c0.1704-0.15929 0.32969-0.24449 0.48156-0.24449 0.3408 0 0.47416 0.26671 0.47416 0.66308 0 0.44452-0.21856 0.71494-0.5149 0.71494-0.11854 0-0.28153-0.051861-0.44082-0.18892z"/>
  </g>
  <g aria-label="#06c">
   <path d="m45.372 5.7131h0.20004l0.09261-0.75569h0.48897l-0.0889 0.75569h0.19632l0.09261-0.75569h0.3408v-0.21115h-0.31487l0.06668-0.54824h0.32228v-0.21485h-0.30005l0.0889-0.6779h-0.19633l-0.0889 0.6779h-0.49268l0.0852-0.6779h-0.19633l-0.0852 0.6779h-0.3408v0.21485h0.31487l-0.06668 0.54824h-0.32228v0.21115h0.29635zm0.31857-0.96684 0.06668-0.54824h0.48897l-0.06668 0.54824z"/>
   <path d="m47.799 5.7575c0.47045 0 0.75569-0.44082 0.75569-1.2335s-0.28524-1.2187-0.75569-1.2187c-0.47416 0-0.75939 0.426-0.75939 1.2187s0.28524 1.2335 0.75939 1.2335zm0-0.24449c-0.27783 0-0.46304-0.29635-0.46304-0.98906 0-0.69271 0.18522-0.97424 0.46304-0.97424 0.27412 0 0.45934 0.28153 0.45934 0.97424 0 0.69271-0.18522 0.98906-0.45934 0.98906z"/>
   <path d="m49.707 5.5167c-0.30005 0-0.48157-0.24819-0.51861-0.70753 0.15929-0.22226 0.3445-0.31117 0.49268-0.31117 0.29264 0 0.43711 0.19263 0.43711 0.50009 0 0.31117-0.17781 0.51861-0.41118 0.51861zm0.65567-1.9596c-0.13336-0.14447-0.31487-0.2519-0.57047-0.2519-0.47045 0-0.90016 0.36673-0.90016 1.315 0 0.75939 0.35191 1.1372 0.81496 1.1372 0.38155 0 0.70012-0.30746 0.70012-0.75939 0-0.48527-0.26671-0.72976-0.67419-0.72976-0.19263 0-0.40377 0.11483-0.55195 0.29635 0.01482-0.74828 0.29264-1.0039 0.62233-1.0039 0.14817 0 0.29264 0.070383 0.38896 0.18522z"/>
   <path d="m50.722 4.8166c0 0.5964 0.36673 0.9409 0.84459 0.9409 0.21485 0 0.4223-0.088904 0.58529-0.23337l-0.13706-0.20003c-0.10743 0.096313-0.2519 0.18151-0.4223 0.18151-0.32969 0-0.55565-0.27783-0.55565-0.68901 0-0.41489 0.23708-0.69642 0.56306-0.69642 0.14447 0 0.2556 0.066678 0.36303 0.15929l0.15188-0.19633c-0.12224-0.11483-0.28894-0.21485-0.52602-0.21485-0.46304 0-0.86682 0.3445-0.86682 0.94831z"/>
  </g>
  <g aria-label="#ba1">
   <path d="m69.186 5.7131h0.20004l0.09261-0.75569h0.48897l-0.0889 0.75569h0.19633l0.09261-0.75569h0.3408v-0.21115h-0.31487l0.06668-0.54824h0.32228v-0.21485h-0.30005l0.0889-0.6779h-0.19633l-0.0889 0.6779h-0.49268l0.0852-0.6779h-0.19633l-0.0852 0.6779h-0.3408v0.21485h0.31487l-0.06668 0.54824h-0.32228v0.21115h0.29635zm0.31857-0.96684 0.06668-0.54824h0.48898l-0.06668 0.54824z"/>
   <path d="m70.994 5.7131h0.24449l0.02593-0.17781h0.01111c0.15929 0.14077 0.34821 0.22226 0.5149 0.22226 0.41118 0 0.77791-0.35932 0.77791-0.97424 0-0.55565-0.24819-0.91497-0.71494-0.91497-0.20004 0-0.40007 0.10743-0.56306 0.2519l0.0074-0.32598v-0.71864h-0.30374zm0.30376-0.40007v-0.94461c0.1704-0.15929 0.32969-0.24449 0.48156-0.24449 0.3408 0 0.47416 0.26671 0.47416 0.66308 0 0.44452-0.21856 0.71494-0.5149 0.71494-0.11854 0-0.28153-0.051861-0.44082-0.18892z"/>
   <path d="m72.909 5.2463c0 0.32228 0.22596 0.5112 0.52972 0.5112 0.22226 0 0.4223-0.11854 0.5964-0.2593h0.0074l0.02593 0.21485h0.2519v-1.1039c0-0.44823-0.18522-0.74087-0.62604-0.74087-0.28894 0-0.54084 0.12595-0.70753 0.23337l0.12224 0.21115c0.14077-0.096313 0.32599-0.19263 0.53714-0.19263 0.29264 0 0.37044 0.22226 0.37044 0.45193-0.7668 0.0852-1.1076 0.28153-1.1076 0.67419zm0.30005-0.022226c0-0.22967 0.20374-0.37784 0.80755-0.45193v0.50009c-0.1741 0.15558-0.31858 0.24078-0.49268 0.24078-0.17781 0-0.31487-0.0852-0.31487-0.28894z"/>
   <path d="m74.883 5.7131h1.3336v-0.2519h-0.48898v-2.1115h-0.23337c-0.12965 0.077791-0.28524 0.13706-0.50009 0.1741v0.19633h0.4297v1.741h-0.54084z"/>
  </g>
 </g>
 <g>
  <path d="m68.8 19.596v-2.1497l3.6949-2.1332 3.6949 2.1332v2.1497z" fill="#e9e56f"/>
  <g fill="#e8eaec" stroke-linecap="round" stroke-width=".2646" aria-label="git add .">
   <path d="m88.222 26.54c0-0.20374 0.1704-0.37044 0.37414-0.37044 0.20744 0 0.37414 0.1667 0.37414 0.37044s-0.1667 0.37044-0.37414 0.37044c-0.20744 0-0.37414-0.1667-0.37414-0.37044zm0.38896-0.58158c-0.3371 0-0.62974 0.26671-0.62974 0.5964 0 0.18522 0.09261 0.35932 0.24819 0.45934-0.12224 0.10372-0.19263 0.21856-0.19263 0.32598 0 0.07038 0.02963 0.1704 0.13706 0.22597-0.18151 0.11484-0.27412 0.24078-0.27412 0.37414 0 0.18522 0.1704 0.40377 0.7631 0.40377 0.57418 0 0.78162-0.29264 0.78162-0.51861 0-0.14817-0.0852-0.29635-0.26301-0.36673-0.17781-0.07409-0.38155-0.04816-0.57417-0.04816-0.12595 0-0.20744-0.01111-0.24078-0.02223-0.06668-0.01852-0.10372-0.05927-0.10372-0.11113 0-0.0889 0.10372-0.1741 0.12224-0.18892 0.06668 0.02593 0.14076 0.03704 0.21485 0.03704 0.33339 0 0.60751-0.26671 0.60751-0.57788 0-0.10372-0.02963-0.20374-0.0852-0.28894 0.0889-0.05186 0.19263-0.0815 0.29635-0.0815 0.03334 0 0.06297 0.0037 0.09631 0.01111l-0.02963-0.21856c-0.1704-0.01482-0.3408 0.04075-0.47045 0.14817-0.10743-0.10372-0.24819-0.15929-0.40377-0.15929zm-0.2556 1.6558c0.06297 0.0074 0.15188 0.01482 0.28153 0.02223 0.12595 0.0037 0.26301-0.0074 0.35932 0.0074 0.15558 0.02593 0.20374 0.12224 0.20374 0.19633 0 0.07409-0.04445 0.16299-0.15929 0.22596-0.12595 0.06668-0.26671 0.07409-0.38155 0.07409-0.07779 0-0.22226-0.0037-0.34821-0.05556-0.13706-0.05557-0.1667-0.14817-0.1667-0.20744 0-0.12224 0.11484-0.21115 0.21115-0.26301z"/>
   <path d="m90.004 26.011v0.21856h0.40748v1.2632h-0.4297v0.21115h1.0965v-0.21115h-0.39637v-1.4817zm0.54824-0.73346c-0.10743 0-0.19263 0.0852-0.19263 0.18892s0.0852 0.18892 0.19263 0.18892 0.19263-0.0852 0.19263-0.18892c0-0.10372-0.0852-0.18892-0.19263-0.18892z"/>
   <path d="m92.16 25.559-0.03334 0.45564h-0.40377l-0.0037 0.21856h0.39637c-0.02223 0.28894-0.03334 0.57788-0.03334 0.86311 0 0.15188 0 0.32228 0.10002 0.46304 0.0815 0.11113 0.21115 0.17781 0.38525 0.17781 0.20004 0 0.39637-0.0852 0.54084-0.18892l-0.0815-0.21115c-0.14447 0.10743-0.27783 0.15558-0.38155 0.15558-0.12595 0-0.2556-0.07038-0.28524-0.27412 0-0.01482-0.01111-0.07779-0.01111-0.32598 0-0.21856 0.01111-0.44082 0.03334-0.65937h0.55565v-0.22226h-0.55195s0.02593-0.30376 0.04445-0.40007c0.0037-0.03704 0.03334-0.05927 0.01852-0.10002z"/>
   <path d="m95.501 26.211 0.12965 0.1704c0.14076-0.14447 0.32969-0.18892 0.48897-0.18892 0.20004 0 0.30005 0.0852 0.34821 0.16299 0.05557 0.09261 0.05186 0.20374 0.05186 0.29264v0.05927h-0.05186c-0.2519 0-0.51861 0-0.73346 0.07779-0.26671 0.09631-0.38525 0.29635-0.38525 0.48156 0 0.24819 0.21485 0.48157 0.56677 0.48157 0.20744 0 0.4223-0.07779 0.60751-0.22967v0.18522h0.2519v-1.0483c0-0.13706-0.0037-0.26671-0.0815-0.40007-0.11113-0.18151-0.32598-0.27783-0.58899-0.27783-0.22597 0-0.44452 0.07038-0.60381 0.23337zm1.0298 0.70012v0.11484c0 0.0852 0 0.19633-0.11484 0.31857-0.06297 0.06297-0.22226 0.20004-0.44452 0.20004-0.22596 0-0.35562-0.14447-0.35562-0.29264 0-0.12595 0.0852-0.26301 0.29635-0.31487 0.15558-0.03704 0.38155-0.02593 0.55936-0.02593z"/>
   <path d="m98.395 26.259c-0.0815-0.1741-0.26301-0.28894-0.49638-0.28894-0.32228 0-0.71494 0.22967-0.71494 0.87423 0 0.62604 0.34821 0.90016 0.67419 0.90016 0.21485 0 0.41489-0.12224 0.52231-0.31117v0.14817c0 0.04075 0.0037 0.0815 0.01482 0.12224h0.26671c-0.01482-0.04816-0.01482-0.10372-0.01482-0.15558l-0.0037-2.2004c0-0.02223 0-0.02963 0.01482-0.05186 0.0074-0.01111 0.02223-0.02963 0.01852-0.05557h-0.28153zm-0.48527-0.07038c0.14817 0 0.36673 0.07779 0.43341 0.32969 0.02223 0.07779 0.02963 0.1704 0.02963 0.35932 0 0.12965-0.0074 0.22226-0.03704 0.31116-0.06297 0.20004-0.24078 0.31857-0.41489 0.31857-0.19263 0-0.47786-0.14817-0.47786-0.70383 0-0.48527 0.27042-0.61492 0.46675-0.61492z"/>
   <path d="m100.25 26.259c-0.0815-0.1741-0.26301-0.28894-0.49638-0.28894-0.32228 0-0.71494 0.22967-0.71494 0.87423 0 0.62604 0.34821 0.90016 0.67419 0.90016 0.21485 0 0.41489-0.12224 0.52231-0.31117v0.14817c0 0.04075 4e-3 0.0815 0.0148 0.12224h0.26671c-0.0148-0.04816-0.0148-0.10372-0.0148-0.15558l-4e-3 -2.2004c0-0.02223 0-0.02963 0.0148-0.05186 7e-3 -0.01111 0.0222-0.02963 0.0185-0.05557h-0.28153zm-0.48527-0.07038c0.14817 0 0.36673 0.07779 0.43341 0.32969 0.0222 0.07779 0.0296 0.1704 0.0296 0.35932 0 0.12965-7e-3 0.22226-0.037 0.31116-0.063 0.20004-0.24078 0.31857-0.41489 0.31857-0.19263 0-0.47786-0.14817-0.47786-0.70383 0-0.48527 0.27042-0.61492 0.46675-0.61492z"/>
   <path d="m103.68 27.533c0-0.11484-0.0963-0.21115-0.21856-0.21115-0.12224 0-0.21856 0.09631-0.21856 0.21115 0 0.11854 0.0963 0.21485 0.21856 0.21485 0.12224 0 0.21856-0.09631 0.21856-0.21485z"/>
  </g>
  <g transform="matrix(0 .004405 -.0044804 0 86.965 28.252)" fill="#6f8ce9" stroke-width="59.559">
   <g fill="#6f8ce9" stroke-width="59.559">
    <path d="m486.41 221.41-364.07-208.5c-52.938-30.318-95.852-5.44-95.852 55.563v415.65c0 61.004 42.914 85.882 95.852 55.563l364.07-208.49c52.938-30.317 52.938-79.473 0-109.79z" fill="#6f8ce9" stroke-width="59.559"/>
   </g>
  </g>
 </g>
 <rect y="30.693" width="171.85" height="23.02" fill="#2f3744" fill-opacity=".5"/>
 <g stroke-width=".2646">
  <path d="m95.25 39.056c-1.4503 0-2.6178 1.1675-2.6178 2.6178 0 1.4503 1.1675 2.6178 2.6178 2.6178h16.405c1.4503 0 2.6178-1.1675 2.6178-2.6178 0-1.4503-1.1675-2.6178-2.6178-2.6178z" fill="#1d232d" stroke="#7893ea"/>
  <path d="m28.563 43.675-3.6949 2.1332-3.6949-2.1332v-4.2665l3.6949-2.1332 3.6949 2.1332z" fill="#1d232d" stroke="#6f8ce9" stroke-linecap="round"/>
  <path d="m44.962 41.674h-14.983" fill="none" stroke="#7b8694" stroke-linecap="round"/>
 </g>
 <g transform="matrix(-.004405 0 0 -.0044804 30.98 42.879)" fill="#7b8694" stroke-width="59.559">
  <g fill="#7b8694" stroke-width="59.559">
   <path d="m486.41 221.41-364.07-208.5c-52.938-30.318-95.852-5.44-95.852 55.563v415.65c0 61.004 42.914 85.882 95.852 55.563l364.07-208.49c52.938-30.317 52.938-79.473 0-109.79z" fill="#7b8694" stroke-width="59.559"/>
  </g>
 </g>
 <path d="m52.376 43.675-3.6949 2.1332-3.6949-2.1332v-4.2665l3.6949-2.1332 3.6949 2.1332z" fill="#1d232d" stroke="#6f8ce9" stroke-linecap="round" stroke-width=".2646"/>
 <path d="m68.776 41.674h-14.983" fill="none" stroke="#7b8694" stroke-linecap="round" stroke-width=".2646"/>
 <g transform="matrix(-.004405 0 0 -.0044804 54.794 42.879)" fill="#7b8694" stroke-width="59.559">
  <g fill="#7b8694" stroke-width="59.559">
   <path d="m486.41 221.41-364.07-208.5c-52.938-30.318-95.852-5.44-95.852 55.563v415.65c0 61.004 42.914 85.882 95.852 55.563l364.07-208.49c52.938-30.317 52.938-79.473 0-109.79z" fill="#7b8694" stroke-width="59.559"/>
  </g>
 </g>
 <path d="m76.19 43.675-3.6949 2.1332-3.6949-2.1332v-4.2665l3.6949-2.1332 3.6949 2.1332z" fill="#1d232d" stroke="#6f8ce9" stroke-linecap="round" stroke-width=".2646"/>
 <path d="m92.589 41.674h-14.983" fill="none" stroke="#6f8ce9" stroke-linecap="round" stroke-width=".2646"/>
 <g transform="matrix(-.004405 0 0 -.0044804 78.608 42.879)" fill="#6f8ce9" stroke-width="59.559">
  <g fill="#6f8ce9" stroke-width="59.559">
   <path d="m486.41 221.41-364.07-208.5c-52.938-30.318-95.852-5.44-95.852 55.563v415.65c0 61.004 42.914 85.882 95.852 55.563l364.07-208.49c52.938-30.317 52.938-79.473 0-109.79z" fill="#6f8ce9" stroke-width="59.559"/>
  </g>
 </g>
 <g fill="#e8eaec" stroke-linecap="round" stroke-width=".2646" aria-label="master">
  <path d="m98.17 42.804h0.30376v-1.3039c0.1667-0.18522 0.31857-0.27783 0.45193-0.27783 0.22967 0 0.3371 0.14447 0.3371 0.48157v1.1002h0.30376v-1.3039c0.1667-0.18522 0.31116-0.27783 0.45193-0.27783 0.22597 0 0.33339 0.14447 0.33339 0.48157v1.1002h0.30376v-1.1409c0-0.45934-0.17781-0.70383-0.54824-0.70383-0.21856 0-0.40378 0.14076-0.5927 0.3445-0.07409-0.21485-0.22226-0.3445-0.49638-0.3445-0.21485 0-0.40377 0.13336-0.55936 0.30376h-0.01111l-0.02593-0.2593h-0.2519z"/>
  <path d="m101.15 42.337c0 0.32228 0.22597 0.5112 0.52972 0.5112 0.22226 0 0.4223-0.11854 0.5964-0.2593h7e-3l0.0259 0.21485h0.2519v-1.1039c0-0.44823-0.18522-0.74087-0.62604-0.74087-0.28894 0-0.54083 0.12595-0.70753 0.23337l0.12225 0.21115c0.14076-0.09631 0.32598-0.19263 0.53713-0.19263 0.29264 0 0.37043 0.22226 0.37043 0.45193-0.7668 0.0852-1.1076 0.28153-1.1076 0.67419zm0.30005-0.02223c0-0.22967 0.20374-0.37784 0.80755-0.45193v0.50009c-0.1741 0.15558-0.31857 0.24078-0.49268 0.24078-0.17781 0-0.31487-0.0852-0.31487-0.28894z"/>
  <path d="m102.93 42.6c0.1704 0.14076 0.41488 0.24819 0.67048 0.24819 0.426 0 0.65938-0.24449 0.65938-0.53713 0-0.3408-0.28894-0.44823-0.54825-0.54454-0.20374-0.07779-0.40007-0.14447-0.40007-0.31117 0-0.13706 0.10373-0.2593 0.32969-0.2593 0.15929 0 0.28894 0.06668 0.41118 0.15929l0.14447-0.19263c-0.13706-0.11113-0.33339-0.20374-0.55935-0.20374-0.38896 0-0.61863 0.22226-0.61863 0.5112 0 0.30376 0.28153 0.426 0.53713 0.51861 0.19633 0.07409 0.41118 0.15558 0.41118 0.3408 0 0.15558-0.11854 0.28153-0.35561 0.28153-0.21486 0-0.37414-0.0889-0.52973-0.21485z"/>
  <path d="m104.74 42.248c0 0.35562 0.12965 0.6001 0.5149 0.6001 0.11113 0 0.23338-0.03334 0.3334-0.06668l-0.0593-0.22967c-0.0593 0.02223-0.14077 0.04816-0.20374 0.04816-0.20745 0-0.27783-0.12595-0.27783-0.34821v-1.0002h0.48527v-0.24819h-0.48527v-0.50379h-0.2556l-0.037 0.50379-0.28153 0.01852v0.22967h0.26671z"/>
  <path d="m105.77 41.907c0 0.58899 0.38155 0.9409 0.86311 0.9409 0.24449 0 0.43712-0.0852 0.5927-0.18522l-0.10743-0.20004c-0.13335 0.0852-0.27782 0.14076-0.44822 0.14076-0.34451 0-0.57788-0.24449-0.60011-0.63344h1.215c7e-3 -0.04445 0.0111-0.10372 0.0111-0.1667 0-0.5149-0.2593-0.84459-0.71864-0.84459-0.41118 0-0.80755 0.35932-0.80755 0.94831zm0.29635-0.13706c0.037-0.36303 0.26671-0.57047 0.51861-0.57047 0.28153 0 0.44452 0.20374 0.44452 0.57047z"/>
  <path d="m107.74 42.804h0.30376v-1.1558c0.12224-0.30376 0.30376-0.41489 0.45563-0.41489 0.0741 0 0.11484 0.01111 0.17411 0.02964l0.0593-0.26671c-0.0593-0.02593-0.11484-0.03704-0.19263-0.03704-0.20374 0-0.38895 0.14447-0.5112 0.37044h-0.0111l-0.0259-0.32598h-0.2519z"/>
 </g>
 <path d="m125.58 45.196v-7.0449" fill="none" stroke="#7b8694" stroke-linecap="round" stroke-width=".2646"/>
 <g fill="#e8eaec" stroke-linecap="round" stroke-width=".2646">
  <g aria-label="#cab">
   <path d="m21.559 36.406h0.20004l0.09261-0.75569h0.48897l-0.0889 0.75569h0.19633l0.09261-0.75569h0.3408v-0.21115h-0.31487l0.06668-0.54824h0.32228v-0.21485h-0.30005l0.0889-0.6779h-0.19633l-0.08891 0.6779h-0.49268l0.0852-0.6779h-0.19633l-0.0852 0.6779h-0.3408v0.21485h0.31487l-0.06668 0.54824h-0.32228v0.21115h0.29635zm0.31857-0.96684 0.06668-0.54824h0.48897l-0.06668 0.54824z"/>
   <path d="m23.233 35.51c0 0.5964 0.36673 0.9409 0.84459 0.9409 0.21485 0 0.4223-0.0889 0.58529-0.23337l-0.13706-0.20004c-0.10743 0.09631-0.2519 0.18151-0.4223 0.18151-0.32969 0-0.55565-0.27783-0.55565-0.68901 0-0.41489 0.23708-0.69642 0.56306-0.69642 0.14447 0 0.2556 0.06668 0.36303 0.15929l0.15188-0.19633c-0.12224-0.11484-0.28894-0.21485-0.52602-0.21485-0.46304 0-0.86682 0.3445-0.86682 0.94831z"/>
   <path d="m24.927 35.939c0 0.32228 0.22597 0.5112 0.52972 0.5112 0.22226 0 0.4223-0.11854 0.5964-0.2593h0.0074l0.02593 0.21485h0.2519v-1.1039c0-0.44823-0.18522-0.74087-0.62604-0.74087-0.28894 0-0.54084 0.12595-0.70753 0.23337l0.12224 0.21115c0.14077-0.09631 0.32598-0.19263 0.53713-0.19263 0.29264 0 0.37044 0.22226 0.37044 0.45193-0.7668 0.0852-1.1076 0.28153-1.1076 0.67419zm0.30005-0.02223c0-0.22967 0.20374-0.37784 0.80755-0.45193v0.50009c-0.1741 0.15558-0.31857 0.24078-0.49268 0.24078-0.17781 0-0.31487-0.0852-0.31487-0.28894z"/>
   <path d="m26.912 36.406h0.24449l0.02593-0.17781h0.01111c0.15929 0.14077 0.34821 0.22226 0.5149 0.22226 0.41118 0 0.77791-0.35932 0.77791-0.97424 0-0.55565-0.24819-0.91497-0.71494-0.91497-0.20004 0-0.40007 0.10743-0.56306 0.2519l0.0074-0.32598v-0.71864h-0.30376zm0.30376-0.40007v-0.94461c0.1704-0.15929 0.32969-0.24449 0.48156-0.24449 0.3408 0 0.47416 0.26671 0.47416 0.66308 0 0.44452-0.21856 0.71494-0.5149 0.71494-0.11854 0-0.28153-0.05186-0.44082-0.18892z"/>
  </g>
  <g aria-label="#06c">
   <path d="m45.372 36.406h0.20004l0.09261-0.75569h0.48897l-0.0889 0.75569h0.19632l0.09261-0.75569h0.3408v-0.21115h-0.31487l0.06668-0.54824h0.32228v-0.21485h-0.30005l0.0889-0.6779h-0.19633l-0.0889 0.6779h-0.49268l0.0852-0.6779h-0.19633l-0.0852 0.6779h-0.3408v0.21485h0.31487l-0.06668 0.54824h-0.32228v0.21115h0.29635zm0.31857-0.96684 0.06668-0.54824h0.48897l-0.06668 0.54824z"/>
   <path d="m47.799 36.451c0.47045 0 0.75569-0.44082 0.75569-1.2335s-0.28524-1.2187-0.75569-1.2187c-0.47416 0-0.75939 0.426-0.75939 1.2187s0.28524 1.2335 0.75939 1.2335zm0-0.24449c-0.27783 0-0.46304-0.29635-0.46304-0.98906 0-0.69271 0.18522-0.97424 0.46304-0.97424 0.27412 0 0.45934 0.28153 0.45934 0.97424 0 0.69271-0.18522 0.98906-0.45934 0.98906z"/>
   <path d="m49.707 36.21c-0.30005 0-0.48157-0.24819-0.51861-0.70753 0.15929-0.22226 0.3445-0.31117 0.49268-0.31117 0.29264 0 0.43711 0.19263 0.43711 0.50009 0 0.31116-0.17781 0.51861-0.41118 0.51861zm0.65567-1.9596c-0.13336-0.14447-0.31487-0.2519-0.57047-0.2519-0.47045 0-0.90016 0.36673-0.90016 1.315 0 0.75939 0.35191 1.1372 0.81496 1.1372 0.38155 0 0.70012-0.30746 0.70012-0.75939 0-0.48527-0.26671-0.72976-0.67419-0.72976-0.19263 0-0.40377 0.11483-0.55195 0.29635 0.01482-0.74828 0.29264-1.0039 0.62233-1.0039 0.14817 0 0.29264 0.07038 0.38896 0.18522z"/>
   <path d="m50.722 35.51c0 0.5964 0.36673 0.9409 0.84459 0.9409 0.21485 0 0.4223-0.0889 0.58529-0.23337l-0.13706-0.20004c-0.10743 0.09631-0.2519 0.18151-0.4223 0.18151-0.32969 0-0.55565-0.27783-0.55565-0.68901 0-0.41489 0.23708-0.69642 0.56306-0.69642 0.14447 0 0.2556 0.06668 0.36303 0.15929l0.15188-0.19633c-0.12224-0.11484-0.28894-0.21485-0.52602-0.21485-0.46304 0-0.86682 0.3445-0.86682 0.94831z"/>
  </g>
  <g aria-label="#ba1">
   <path d="m69.186 36.406h0.20004l0.09261-0.75569h0.48897l-0.0889 0.75569h0.19633l0.09261-0.75569h0.3408v-0.21115h-0.31487l0.06668-0.54824h0.32228v-0.21485h-0.30005l0.0889-0.6779h-0.19633l-0.0889 0.6779h-0.49268l0.0852-0.6779h-0.19633l-0.0852 0.6779h-0.3408v0.21485h0.31487l-0.06668 0.54824h-0.32228v0.21115h0.29635zm0.31857-0.96684 0.06668-0.54824h0.48898l-0.06668 0.54824z"/>
   <path d="m70.994 36.406h0.24449l0.02593-0.17781h0.01111c0.15929 0.14077 0.34821 0.22226 0.5149 0.22226 0.41118 0 0.77791-0.35932 0.77791-0.97424 0-0.55565-0.24819-0.91497-0.71494-0.91497-0.20004 0-0.40007 0.10743-0.56306 0.2519l0.0074-0.32598v-0.71864h-0.30376zm0.30376-0.40007v-0.94461c0.1704-0.15929 0.32969-0.24449 0.48156-0.24449 0.3408 0 0.47416 0.26671 0.47416 0.66308 0 0.44452-0.21856 0.71494-0.5149 0.71494-0.11854 0-0.28153-0.05186-0.44082-0.18892z"/>
   <path d="m72.909 35.939c0 0.32228 0.22596 0.5112 0.52972 0.5112 0.22226 0 0.4223-0.11854 0.5964-0.2593h0.0074l0.02593 0.21485h0.2519v-1.1039c0-0.44823-0.18522-0.74087-0.62604-0.74087-0.28894 0-0.54084 0.12595-0.70753 0.23337l0.12224 0.21115c0.14076-0.09631 0.32598-0.19263 0.53713-0.19263 0.29264 0 0.37044 0.22226 0.37044 0.45193-0.76679 0.0852-1.1076 0.28153-1.1076 0.67419zm0.30005-0.02223c0-0.22967 0.20374-0.37784 0.80755-0.45193v0.50009c-0.1741 0.15558-0.31858 0.24078-0.49268 0.24078-0.17781 0-0.31487-0.0852-0.31487-0.28894z"/>
   <path d="m74.883 36.406h1.3336v-0.2519h-0.48898v-2.1115h-0.23337c-0.12965 0.07779-0.28524 0.13706-0.50009 0.1741v0.19633h0.4297v1.741h-0.54084z"/>
  </g>
 </g>
 <path d="m68.8 50.29v-2.1497l3.6949-2.1332 3.6949 2.1332v2.1497z" fill="#e9e56f"/>
 <path d="m85.725 28.312v-5.2919" fill="#1d232d" stroke="#6f8ce9" stroke-linecap="square" stroke-width=".2646"/>
 <g fill="#6f8ce9">
  <rect transform="matrix(.70711 .70711 .70711 -.70711 0 0)" x="76.333" y="43.788" width="1.1134" height="1.1134"/>
  <rect x="22.486" y="8.467" width="2.1168" height="2.1168"/>
  <rect x="46.3" y="8.467" width="2.1168" height="2.1168"/>
  <rect x="70.114" y="8.467" width="2.1168" height="2.1168"/>
 </g>
 <rect x="49.069" y="8.5903" width="1.8702" height="1.8702" fill="none" stroke="#e9e56f" stroke-linecap="square" stroke-width=".2646"/>
 <rect x="72.883" y="8.5903" width="1.8702" height="1.8702" fill="none" stroke="#6f8ce9" stroke-linecap="square" stroke-width=".2646"/>
 <path d="m71.172 11.214 1.0584 1.8332h-2.1168z" fill="#e9e56f" style="paint-order:normal"/>
 <g fill="#6f8ce9">
  <rect x="22.486" y="39.16" width="2.1168" height="2.1168"/>
  <rect x="46.3" y="39.16" width="2.1168" height="2.1168"/>
  <rect x="70.114" y="39.16" width="2.1168" height="2.1168"/>
 </g>
 <rect x="49.069" y="39.283" width="1.8702" height="1.8702" fill="none" stroke="#e9e56f" stroke-linecap="square" stroke-width=".2646"/>
 <rect x="72.883" y="39.283" width="1.8702" height="1.8702" fill="none" stroke="#6f8ce9" stroke-linecap="square" stroke-width=".2646"/>
 <path d="m71.172 41.907 1.0584 1.8332-2.1168-1e-6z" fill="#e9e56f" style="paint-order:normal"/>
 <g fill="#1d232d" stroke-linecap="round" stroke-width=".2646">
  <rect x="116.42" y="7.144" width="7.4087" height="7.4087" stroke="#6f8ce9"/>
  <rect x="127" y="7.144" width="7.4087" height="7.4087" stroke="#7b8694" stroke-dasharray="0.264596, 0.529193"/>
  <rect x="116.42" y="37.837" width="7.4087" height="7.4087" stroke="#6f8ce9"/>
  <rect x="127" y="37.837" width="7.4087" height="7.4087" stroke="#7b8694" stroke-dasharray="0.264596, 0.529193"/>
 </g>
 <rect x="128.32" y="8.467" width="2.1168" height="2.1168" fill="#6f8ce9"/>
 <rect x="131.09" y="8.5903" width="1.8702" height="1.8702" fill="none" stroke="#6f8ce9" stroke-linecap="square" stroke-width=".2646"/>
 <path d="m129.38 11.214 1.0584 1.8332h-2.1168z" fill="#6f8ce9" style="paint-order:normal"/>
 <path transform="matrix(.2752 0 0 .27566 -761 -102.24)" d="m3245 412.6 2.9434 5.0982h-5.8868z" fill="none" stroke="#e9e56f" stroke-linecap="square" stroke-width=".96066" style="paint-order:normal"/>
 <rect x="128.32" y="39.16" width="2.1168" height="2.1168" fill="#6f8ce9"/>
 <rect x="131.09" y="39.283" width="1.8702" height="1.8702" fill="none" stroke="#6f8ce9" stroke-linecap="square" stroke-width=".2646"/>
 <path d="m129.38 41.907 1.0584 1.8332-2.1168-1e-6z" fill="#6f8ce9" style="paint-order:normal"/>
 <path transform="matrix(.2752 0 0 .27566 -761 -71.543)" d="m3245 412.6 2.9434 5.0982h-5.8868z" fill="none" stroke="#e9e56f" stroke-linecap="square" stroke-width=".96066" style="paint-order:normal"/>
 <rect x="117.74" y="39.16" width="2.1168" height="2.1168" fill="#6f8ce9"/>
 <rect x="120.51" y="39.283" width="1.8702" height="1.8702" fill="none" stroke="#6f8ce9" stroke-linecap="square" stroke-width=".2646"/>
 <path d="m118.8 41.907 1.0584 1.8332-2.1168-1e-6z" fill="#6f8ce9" style="paint-order:normal"/>
 <path transform="matrix(.2752 0 0 .27566 -771.58 -71.543)" d="m3245 412.6 2.9434 5.0982h-5.8868z" fill="none" stroke="#e9e56f" stroke-linecap="square" stroke-width=".96066" style="paint-order:normal"/>
 <g fill="#e8eaec" stroke="#cf2f25" stroke-linecap="round" stroke-width=".2646">
  <g aria-label="A">
   <path d="m27.672 15.572 0.11854-0.37044c0.0852-0.27042 0.16299-0.53713 0.24078-0.81866h0.01482c0.07779 0.28153 0.15558 0.54824 0.24078 0.81866l0.11484 0.37044zm1.0409 0.98906h0.32598l-0.82236-2.4301h-0.34821l-0.82237 2.4301h0.31487l0.23337-0.74087h0.88534z" fill="#e8eaec" stroke="none"/>
  </g>
  <g aria-label="B">
   <path d="m51.182 16.562h0.77791c0.54084 0 0.91868-0.23337 0.91868-0.71124 0-0.33339-0.20744-0.52602-0.56306-0.58158v-0.01482c0.28894-0.07409 0.426-0.28894 0.426-0.52972 0-0.426-0.3445-0.5927-0.83718-0.5927h-0.72235zm0.31116-1.3928v-0.79273h0.37414c0.37414 0 0.57047 0.11113 0.57047 0.37414 0 0.27042-0.1741 0.41859-0.58529 0.41859zm0 1.1483v-0.91868h0.4223c0.426 0 0.65938 0.13706 0.65938 0.43711 0 0.32969-0.24449 0.48156-0.65938 0.48156z" fill="#e8eaec" stroke="none"/>
  </g>
  <g aria-label="C">
   <path d="m74.855 15.346c0 0.79273 0.45564 1.2595 1.0669 1.2595 0.30746 0 0.54824-0.12965 0.73716-0.35191l-0.1741-0.18892c-0.15558 0.1741-0.32598 0.27042-0.55565 0.27042-0.46304 0-0.75569-0.38525-0.75569-0.99647 0-0.60381 0.30746-0.98165 0.7705-0.98165 0.20004 0 0.35562 0.0889 0.48527 0.22596l0.1741-0.19633c-0.14447-0.15929-0.37414-0.30005-0.66308-0.30005-0.62233 0-1.0854 0.47786-1.0854 1.2595z" fill="#e8eaec" stroke="none"/>
  </g>
  <g aria-label="A">
   <path d="m27.672 46.266 0.11854-0.37044c0.0852-0.27042 0.16299-0.53713 0.24078-0.81866h0.01482c0.07779 0.28153 0.15558 0.54824 0.24078 0.81866l0.11484 0.37044zm1.0409 0.98906h0.32598l-0.82236-2.4301h-0.34821l-0.82237 2.4301h0.31487l0.23337-0.74087h0.88534z" fill="#e8eaec" stroke="none"/>
  </g>
  <g aria-label="B">
   <path d="m51.182 47.255h0.77791c0.54084 0 0.91868-0.23337 0.91868-0.71124 0-0.33339-0.20744-0.52602-0.56306-0.58158v-0.01482c0.28894-0.07409 0.426-0.28894 0.426-0.52972 0-0.426-0.3445-0.5927-0.83718-0.5927h-0.72235zm0.31116-1.3928v-0.79273h0.37414c0.37414 0 0.57047 0.11113 0.57047 0.37414 0 0.27042-0.1741 0.41859-0.58529 0.41859zm0 1.1483v-0.91868h0.4223c0.426 0 0.65938 0.13706 0.65938 0.43711 0 0.32969-0.24449 0.48157-0.65938 0.48157z" fill="#e8eaec" stroke="none"/>
  </g>
  <g aria-label="C">
   <path d="m74.855 46.04c0 0.79273 0.45564 1.2595 1.0669 1.2595 0.30746 0 0.54824-0.12965 0.73716-0.35191l-0.1741-0.18892c-0.15558 0.1741-0.32598 0.27042-0.55565 0.27042-0.46304 0-0.75569-0.38525-0.75569-0.99647 0-0.60381 0.30746-0.98165 0.7705-0.98165 0.20004 0 0.35562 0.0889 0.48527 0.22596l0.1741-0.19633c-0.14447-0.15929-0.37414-0.30005-0.66308-0.30005-0.62233 0-1.0854 0.47786-1.0854 1.2595z" fill="#e8eaec" stroke="none"/>
  </g>
 </g>
 <rect x="117.74" y="8.467" width="2.1168" height="2.1168" fill="#6f8ce9"/>
 <rect x="120.51" y="8.5903" width="1.8702" height="1.8702" fill="none" stroke="#6f8ce9" stroke-linecap="square" stroke-width=".2646"/>
 <path d="m118.8 11.214 1.0584 1.8332h-2.1168z" fill="#6f8ce9" style="paint-order:normal"/>
</svg>
