<?xml version="1.0" encoding="UTF-8"?>
<svg width="286.67" height="144.74" version="1.1" viewBox="0 0 75.847 38.295" xmlns="http://www.w3.org/2000/svg" xmlns:cc="http://creativecommons.org/ns#" xmlns:dc="http://purl.org/dc/elements/1.1/" xmlns:rdf="http://www.w3.org/1999/02/22-rdf-syntax-ns#">
 <metadata>
  <rdf:RDF>
   <cc:Work rdf:about="">
    <dc:format>image/svg+xml</dc:format>
    <dc:type rdf:resource="http://purl.org/dc/dcmitype/StillImage"/>
    <dc:title/>
   </cc:Work>
  </rdf:RDF>
 </metadata>
 <g fill="none">
  <path d="m54.588 9.8834c5.1697-2.5981 10.712-5.3836 15.382-7.7307" stroke="#6f8ce9" stroke-width=".52917"/>
  <path d="m70.357 34.682v-31.845" stroke="#7b8694" stroke-dasharray="0.529169, 0.264585" stroke-width=".26458"/>
  <path d="m7.1537 33.635c10.414-5.2336 21.061-10.584 29.582-14.867" stroke="#6f8ce9" stroke-width=".52917"/>
  <path d="m0.059147 38.177 75.729-38.059" stroke="#a6aeb8" stroke-width=".26458"/>
  <path d="m7.4379 34.682h48.544" stroke="#7b8694" stroke-dasharray="0.529169, 0.264585" stroke-width=".26458"/>
 </g>
 <g>
  <circle transform="rotate(-27)" cx="-9.3074" cy="34.112" r=".50231" fill="#e8eaec"/>
  <g fill="#e8eaec" aria-label="A">
   <path d="m6.9042 31.52h0.2921l0.25824-0.7747h0.83397l0.2921 0.77047h0.30904l-1.0202-2.684h-0.033867zm1.3208-1.0033h-0.71544l0.3429-1.0033z" fill="#e8eaec" stroke-width=".95619px"/>
  </g>
  <rect x="55.022" y="19.394" width="15.34" height="15.34" fill="#1d232d" stroke="#7b8694" stroke-linecap="square" stroke-linejoin="round" stroke-width=".26458" style="paint-order:normal"/>
 </g>
 <path d="m55.017 29.685v-19.029" fill="none" stroke="#7b8694" stroke-dasharray="0.529169, 0.264585" stroke-width=".26458"/>
 <path d="m66.09 19.391h-28.738" fill="none" stroke="#7b8694" stroke-dasharray="0.529169, 0.264585" stroke-width=".26458"/>
 <g fill="#e8eaec">
  <g>
   <g aria-label="B">
    <path d="m33.844 15.286v2.6374h0.74507c0.1778 0 0.35984 0 0.54187-0.0762 0.28364-0.12277 0.44027-0.381 0.44027-0.65194 0-0.30904-0.19897-0.5842-0.49107-0.68157 0.23284-0.09737 0.38947-0.3302 0.38947-0.57997 0-0.23707-0.13547-0.46567-0.38524-0.5715-0.1651-0.07197-0.3302-0.0762-0.49107-0.0762zm0.2921 0.254h0.41487c0.1143 0 0.23284 0 0.35137 0.04657 0.17357 0.07197 0.2667 0.22014 0.2667 0.37254 0 0.1524-0.0889 0.29634-0.254 0.3683-0.12277 0.0508-0.24977 0.0508-0.3683 0.0508h-0.41064zm0 1.088h0.4318c0.13123 0 0.26247 0.0042 0.3937 0.06773 0.19473 0.0889 0.30057 0.2794 0.30057 0.4699s-0.1016 0.36407-0.28364 0.44874c-0.1143 0.0508-0.22437 0.0508-0.33867 0.0508h-0.50377z" fill="#e8eaec" stroke-width=".95619px"/>
   </g>
   <g aria-label="C">
    <path d="m50.348 7.4981c-0.41064 0-1.0033 0.30057-1.0033 1.3589 0 1.016 0.56727 1.3462 1.0033 1.3462 0.31327 0 0.60537-0.1651 0.77047-0.43604l-0.2159-0.1397c-0.12277 0.19897-0.33444 0.3175-0.53764 0.3175-0.38947 0-0.73237-0.40217-0.73237-1.1176 0-0.6985 0.33444-1.0922 0.70697-1.0922 0.2032 0 0.39794 0.12277 0.50377 0.30904 0.0085 0.0127 0.01693 0.0254 0.01693 0.042334 0 0.0127-0.0042 0.021167-0.0042 0.033867 0 0.00423 0 0.0254 0.02117 0.0381l0.27937-0.13547c-0.1397-0.3175-0.4572-0.52494-0.80857-0.52494z" fill="#e8eaec" stroke-width=".95619px"/>
   </g>
   <g aria-label="D">
    <path d="m64.934 0.52894v2.6416h0.56727c0.20743 0 0.38524-0.00847 0.5715-0.10583 0.37677-0.19473 0.5842-0.64347 0.5842-1.2192 0-0.508-0.1524-0.95251-0.49107-1.1726-0.1905-0.127-0.381-0.14393-0.61384-0.14393zm0.2794 0.254h0.32174c0.1651 0 0.3302 0.008467 0.4953 0.14393 0.24554 0.2032 0.32597 0.57997 0.32597 0.95674 0 0.50377-0.1651 0.79164-0.37677 0.93557-0.1651 0.11007-0.3302 0.11853-0.4953 0.11853h-0.27094z" fill="#e8eaec" stroke-width=".95619px"/>
   </g>
  </g>
  <circle transform="rotate(-27)" cx="24.535" cy="34.131" r=".50231"/>
  <circle transform="rotate(-27)" cx="44.131" cy="34.503" r=".50231"/>
  <circle transform="rotate(-27)" cx="61.335" cy="34.539" r=".50231"/>
 </g>
</svg>
