<?xml version="1.0" encoding="UTF-8"?>
<svg width="639.79" height="277.35" version="1.1" viewBox="0 0 169.28 73.384" xmlns="http://www.w3.org/2000/svg" xmlns:cc="http://creativecommons.org/ns#" xmlns:dc="http://purl.org/dc/elements/1.1/" xmlns:rdf="http://www.w3.org/1999/02/22-rdf-syntax-ns#">
 <metadata>
  <rdf:RDF>
   <cc:Work rdf:about="">
    <dc:format>image/svg+xml</dc:format>
    <dc:type rdf:resource="http://purl.org/dc/dcmitype/StillImage"/>
    <dc:title/>
   </cc:Work>
  </rdf:RDF>
 </metadata>
 <g transform="matrix(7.2628 0 0 7.2628 -684.21 -699.12)" stroke-width=".13769">
  <rect x="94.208" y="96.454" width="23.308" height="9.7115" fill="#1d232d" style="paint-order:normal"/>
  <g fill="#7b8694">
   <path d="m94.596 96.26h1.1654v0.19408h-1.1654z"/>
   <path d="m96.538 96.26h1.1654v0.19408h-1.1654z"/>
   <path d="m98.481 96.26h1.1654v0.19408h-1.1654z"/>
   <path d="m100.42 96.26h1.1654v0.19408h-1.1654z"/>
   <path d="m102.37 96.26h1.1654v0.19408h-1.1654z"/>
   <path d="m104.31 96.26h1.1654v0.19408h-1.1654z"/>
   <path d="m106.25 96.26h1.1654v0.19408h-1.1654z"/>
   <path d="m108.19 96.26h1.1654v0.19408h-1.1654z"/>
   <path d="m110.13 96.26h1.1654v0.19408h-1.1654z" fill="#7b8694"/>
   <path d="m112.08 96.26h1.1654v0.19408h-1.1654z"/>
   <path d="m114.02 96.26h1.1654v0.19408h-1.1654z"/>
   <path d="m115.96 96.26h1.1654v0.19408h-1.1654z"/>
   <path d="m115.96 106.17h1.1654v0.19405h-1.1654z"/>
   <path d="m114.02 106.17h1.1654v0.19405h-1.1654z"/>
   <path d="m112.08 106.17h1.1654v0.19405h-1.1654z"/>
   <path d="m110.13 106.17h1.1654v0.19405h-1.1654z"/>
   <path d="m108.19 106.17h1.1654v0.19405h-1.1654z"/>
   <path d="m106.25 106.17h1.1654v0.19405h-1.1654z"/>
   <path d="m104.31 106.17h1.1654v0.19405h-1.1654z"/>
   <path d="m102.37 106.17h1.1654v0.19405h-1.1654z"/>
   <path d="m100.42 106.17h1.1654v0.19405h-1.1654z"/>
   <path d="m98.481 106.17h1.1654v0.19405h-1.1654z"/>
   <path d="m96.538 106.17h1.1654v0.19405h-1.1654z"/>
   <path d="m94.596 106.17h1.1654v0.19405h-1.1654z"/>
  </g>
 </g>
 <g>
  <path d="m103.85 47.289 10.385 14.969-0.1463-29.742-9.9953-14.822z" fill="#1d232d" fill-rule="evenodd" stroke="#7b8694" stroke-width=".35233"/>
  <g stroke="#e8eaec" stroke-linecap="round" stroke-width=".35233">
   <path d="m85.663 38.707h3.9737c0.58411 0 1.0544 0.47018 1.0544 1.0544 0 0.58417-0.47024 1.0544-1.0544 1.0544h-3.9737c0.05045-0.97022 0-1.3192 0-2.1088z" fill="#fff"/>
   <path d="m101.55 38.707h3.9737c0.58411 0 1.0544 0.47018 1.0544 1.0544 0 0.58417-0.47024 1.0544-1.0544 1.0544h-3.9737c0.0504-0.97022 0-1.3192 0-2.1088z" fill="#1d232d"/>
   <path d="m69.772 38.707h3.9737c0.58411 0 1.0544 0.47018 1.0544 1.0544 0 0.58417-0.47024 1.0544-1.0544 1.0544h-3.9737c0.05045-0.97022 0-1.3192 0-2.1088z" fill="#fff"/>
   <path d="m53.882 38.707h3.9737c0.58411 0 1.0544 0.47018 1.0544 1.0544 0 0.58417-0.47024 1.0544-1.0544 1.0544h-3.9737c0.05045-0.97022 0-1.3192 0-2.1088z" fill="#fff"/>
  </g>
  <path d="m102.8 42.53c0.63131 0.15981 2.7758 0.06949 4.4281-0.27392l0.58705-0.71966-1.839-0.67526 1.7238-0.18383-8e-3 -1.1827 1.337 0.37571-0.55762-1.3034 1.0449-0.09117c-5.9688-7.6816 4.3434 4.3788-7.3613-4.1928l5.4391 4.4041c-3.9134-1.5135-10.457-4.4167-2.5033-0.22798-6.8134-0.32767-10.216-1.1187-1.1486 1.4522-8.7254 0.75079-2.1407 0.40346 2.1673 1.6869-3.2262 0.47192-3.863 0.79166-3.3097 0.93166z" fill="#e9e56f"/>
 </g>
</svg>
