<?xml version="1.0" encoding="UTF-8"?>
<svg width="276.45" height="240.59" version="1.1" viewBox="0 0 73.147 63.659" xmlns="http://www.w3.org/2000/svg" xmlns:cc="http://creativecommons.org/ns#" xmlns:dc="http://purl.org/dc/elements/1.1/" xmlns:rdf="http://www.w3.org/1999/02/22-rdf-syntax-ns#">
 <metadata>
  <rdf:RDF>
   <cc:Work rdf:about="">
    <dc:format>image/svg+xml</dc:format>
    <dc:type rdf:resource="http://purl.org/dc/dcmitype/StillImage"/>
    <dc:title/>
   </cc:Work>
  </rdf:RDF>
 </metadata>
 <g fill="none" stroke="#7b8694" stroke-dasharray="0.198445, 0.595334" stroke-linecap="square" stroke-width=".19844">
  <path d="m55.844 32.52h-45.605"/>
  <path d="m26.079 54.39 17.359-29.324"/>
  <path d="m39.515 61.697 16.427-29.079"/>
 </g>
 <g>
  <rect x="33.747" y="29.523" width="14.646" height="14.646" fill="#1d232d" stroke="#e9e56f" stroke-linecap="round" stroke-width=".26459"/>
  <path d="m50.499 12.365h-40.358" fill="none" stroke="#7b8694" stroke-dasharray="0.198445, 0.595334" stroke-linecap="square" stroke-width=".19844"/>
  <rect transform="rotate(30)" x="50.095" y="-14.509" width="14.646" height="14.646" fill="#1d232d" stroke="#6f8ce9" stroke-linecap="round" stroke-width=".26459"/>
 </g>
 <g fill="none" stroke-width=".52919">
  <path d="m7.8729 1.0594v53.181" stroke="#a6aeb8"/>
  <path d="m1.4574 47.233h66.507" stroke="#a6aeb8"/>
  <path d="m8.9164 44.376v-15.048" stroke="#e9e56f"/>
  <path d="m3.5041 54.533 30.201-53.486" stroke="#a6aeb8"/>
  <path d="m0.12547 42.915 38.037 20.511" stroke="#a6aeb8"/>
  <path d="m10.144 32.413v-20.324" stroke="#6f8ce9"/>
  <path d="m33.708 46.261h14.706" stroke="#e9e56f"/>
  <path d="m42.848 45.123h20.402" stroke="#6f8ce9"/>
  <path d="m15.989 34.557 10.027-17.81" stroke="#e9e56f"/>
  <path d="m26.645 15.701 7.2621-12.812" stroke="#6f8ce9"/>
  <path d="m19.973 52.494 18.357 9.825" stroke="#e9e56f"/>
  <path d="m25.945 54.423 13.408 7.115" stroke="#6f8ce9"/>
 </g>
 <g transform="matrix(-.0017936 -.0031067 .0031599 -.0018243 67.964 48.413)" fill="#e8eaec" stroke-width="201.8">
  <g fill="#e8eaec" stroke-width="201.8">
   <path d="m486.41 221.41-364.07-208.5c-52.938-30.318-95.852-5.44-95.852 55.563v415.65c0 61.004 42.914 85.882 95.852 55.563l364.07-208.49c52.938-30.317 52.938-79.473 0-109.79z" fill="#e8eaec" stroke-width="201.8"/>
  </g>
 </g>
 <g transform="matrix(0 -.0035873 .0036487 0 6.8999 1.8873)" fill="#e8eaec" stroke-width="201.8">
  <g fill="#e8eaec" stroke-width="201.8">
   <path d="m486.41 221.41-364.07-208.5c-52.938-30.318-95.852-5.44-95.852 55.563v415.65c0 61.004 42.914 85.882 95.852 55.563l364.07-208.49c52.938-30.317 52.938-79.473 0-109.79z" fill="#e8eaec" stroke-width="201.8"/>
  </g>
 </g>
 <path d="m27.281 16.371 28.273-7.5758" fill="none" stroke="#47d58a" stroke-dasharray="0.264593, 0.793779" stroke-linecap="square" stroke-width=".26459"/>
 <g fill="#e8eaec" stroke-linecap="round" stroke-width=".26459" aria-label="not colliding">
  <path d="m54.948 7.9356h0.28929v-1.2418c0.17287-0.17287 0.29282-0.26459 0.46921-0.26459 0.22579 0 0.32457 0.13759 0.32457 0.45863v1.0478h0.28929v-1.0866c0-0.43746-0.16228-0.6703-0.52213-0.6703-0.23637 0-0.41276 0.127-0.57505 0.28929h-0.01058l-0.0247-0.24695h-0.2399z"/>
  <path d="m56.751 7.0818c0 0.56799 0.37396 0.89609 0.79378 0.89609s0.79378-0.32809 0.79378-0.89609c0-0.57505-0.37396-0.90314-0.79378-0.90314s-0.79378 0.32809-0.79378 0.90314zm0.29987 0c0-0.39512 0.20109-0.66325 0.49391-0.66325 0.29634 0 0.49391 0.26812 0.49391 0.66325 0 0.3916-0.19756 0.65619-0.49391 0.65619-0.29282 0-0.49391-0.26459-0.49391-0.65619z"/>
  <path d="m58.842 7.4064c0 0.33868 0.12348 0.57152 0.49038 0.57152 0.10584 0 0.22226-0.031751 0.31751-0.063502l-0.05645-0.21873c-0.05645 0.021167-0.13406 0.045863-0.19404 0.045863-0.19756 0-0.26459-0.11995-0.26459-0.33162v-0.95253h0.46216v-0.23637h-0.46216v-0.47979h-0.24342l-0.03528 0.47979-0.26812 0.017639v0.21873h0.25401z"/>
  <path d="m60.568 7.0818c0 0.56799 0.34926 0.89609 0.80436 0.89609 0.20462 0 0.40218-0.08467 0.55741-0.22226l-0.13053-0.19051c-0.10231 0.091725-0.2399 0.17287-0.40218 0.17287-0.31398 0-0.52918-0.26459-0.52918-0.65619 0-0.39512 0.22579-0.66325 0.53624-0.66325 0.13759 0 0.24342 0.063502 0.34573 0.1517l0.14464-0.18698c-0.11642-0.10936-0.27518-0.20462-0.50096-0.20462-0.44099 0-0.82553 0.32809-0.82553 0.90314z"/>
  <path d="m62.098 7.0818c0 0.56799 0.37396 0.89609 0.79378 0.89609s0.79378-0.32809 0.79378-0.89609c0-0.57505-0.37396-0.90314-0.79378-0.90314s-0.79378 0.32809-0.79378 0.90314zm0.29987 0c0-0.39512 0.20109-0.66325 0.49391-0.66325 0.29634 0 0.49391 0.26812 0.49391 0.66325 0 0.3916-0.19756 0.65619-0.49391 0.65619-0.29282 0-0.49391-0.26459-0.49391-0.65619z"/>
  <path d="m64.14 7.5898c0 0.25048 0.0882 0.38807 0.30693 0.38807 0.07761 0 0.127-0.010584 0.16581-0.028223l-0.03881-0.21873c-0.03175 0.00706-0.04586 0.00706-0.0635 0.00706-0.04233 0-0.08114-0.035279-0.08114-0.127v-2.1873h-0.28929z"/>
  <path d="m65.043 7.5898c0 0.25048 0.0882 0.38807 0.30693 0.38807 0.07761 0 0.127-0.010584 0.16581-0.028223l-0.038807-0.21873c-0.03175 0.00706-0.04586 0.00706-0.0635 0.00706-0.04233 0-0.08114-0.035279-0.08114-0.127v-2.1873h-0.28929z"/>
  <path d="m66.094 5.8682c0.11289 0 0.20109-0.077614 0.20109-0.18698 0-0.11289-0.0882-0.18698-0.20109-0.18698-0.11289 0-0.20109 0.074086-0.20109 0.18698 0 0.10936 0.0882 0.18698 0.20109 0.18698zm-0.14817 2.0673h0.28929v-1.7146h-0.28929z"/>
  <path d="m66.69 7.0818c0 0.57152 0.2787 0.89609 0.70911 0.89609 0.20109 0 0.38454-0.11289 0.5186-0.24343h0.01058l0.0247 0.20109h0.2399v-2.5119h-0.29282v0.65972l0.01411 0.29282c-0.1517-0.12348-0.28223-0.19756-0.4798-0.19756-0.3916 0-0.74439 0.34573-0.74439 0.90314zm0.29987-0.00353c0-0.3916 0.21873-0.65619 0.49391-0.65619 0.14112 0 0.27165 0.049391 0.41629 0.17992v0.89609c-0.14112 0.15876-0.2787 0.23637-0.43746 0.23637-0.29987 0-0.47274-0.24695-0.47274-0.65619z"/>
  <path d="m68.919 5.8682c0.11289 0 0.20109-0.077614 0.20109-0.18698 0-0.11289-0.0882-0.18698-0.20109-0.18698-0.11289 0-0.20109 0.074086-0.20109 0.18698 0 0.10936 0.0882 0.18698 0.20109 0.18698zm-0.14817 2.0673h0.28929v-1.7146h-0.28929z"/>
  <path d="m69.639 7.9356h0.28929v-1.2418c0.17287-0.17287 0.29282-0.26459 0.46921-0.26459 0.22578 0 0.32457 0.13759 0.32457 0.45863v1.0478h0.28929v-1.0866c0-0.43746-0.16228-0.6703-0.52213-0.6703-0.23637 0-0.41276 0.127-0.57505 0.28929h-0.01058l-0.0247-0.24695h-0.2399z"/>
  <path d="m71.691 8.2249c0-0.098781 0.05292-0.20109 0.1764-0.28929 0.07409 0.021167 0.15523 0.028223 0.22226 0.028223h0.29634c0.22226 0 0.34573 0.052919 0.34573 0.21167 0 0.17992-0.2152 0.34926-0.5433 0.34926-0.31046 0-0.49743-0.11642-0.49743-0.29987zm-0.25401 0.038807c0 0.29634 0.28929 0.46215 0.70911 0.46215 0.53271 0 0.86786-0.27518 0.86786-0.59269 0-0.28576-0.20109-0.40924-0.59974-0.40924h-0.33162c-0.23284 0-0.3034-0.077614-0.3034-0.18698 0-0.095253 0.04939-0.1517 0.10936-0.20462 0.07761 0.038807 0.17287 0.059974 0.25754 0.059974 0.34926 0 0.62797-0.22931 0.62797-0.59622 0-0.14464-0.05997-0.27518-0.14112-0.35279h0.35279v-0.22226h-0.59622c-0.0635-0.024695-0.14817-0.042335-0.24342-0.042335-0.34926 0-0.64561 0.23637-0.64561 0.61033 0 0.20462 0.10936 0.37043 0.22226 0.46215v0.014112c-0.0882 0.059974-0.18698 0.17287-0.18698 0.31751 0 0.13406 0.06703 0.22579 0.1517 0.2787v0.014112c-0.15523 0.10584-0.25048 0.24343-0.25048 0.38807zm0.70911-1.0654c-0.19756 0-0.36337-0.15876-0.36337-0.40924s0.16228-0.39865 0.36337-0.39865 0.36337 0.14817 0.36337 0.39865-0.16581 0.40924-0.36337 0.40924z"/>
 </g>
 <g fill="none" stroke-linecap="square">
  <g stroke="#7b8694">
   <g stroke-dasharray="0.198445, 0.595334" stroke-width=".19844">
    <path d="m33.827 44.19-17.85-9.6603"/>
    <path d="m25.987 16.738 22.306 12.545"/>
    <path d="m43.34 25.066v19.762"/>
    <path d="m63.298 19.819v25.303"/>
    <path d="m50.597 12.611-17.04-9.8379"/>
    <path d="m43.34 25.066-16.722-9.4151"/>
   </g>
   <path d="m33.631 44.043v2.4028" stroke-dasharray="0.132296, 0.396889" stroke-width=".1323"/>
   <path d="m48.44 44.289v2.0105" stroke-dasharray="0.132296, 0.396889" stroke-width=".1323"/>
   <g stroke-dasharray="0.198445, 0.595334" stroke-width=".19844">
    <path d="m19.9 52.625 13.73-23.146"/>
    <path d="m38.142 62.432 10.151-18.291"/>
    <path d="m33.631 29.43h-24.862"/>
    <path d="m33.778 44.19h-24.715"/>
   </g>
  </g>
  <circle cx="26.507" cy="16.072" r="3.6755" stroke="#e8eaec" stroke-width=".52919"/>
 </g>
</svg>
