<?xml version="1.0" encoding="UTF-8"?>
<svg width="203.26" height="129.97" version="1.1" viewBox="0 0 53.783 34.386" xmlns="http://www.w3.org/2000/svg" xmlns:cc="http://creativecommons.org/ns#" xmlns:dc="http://purl.org/dc/elements/1.1/" xmlns:rdf="http://www.w3.org/1999/02/22-rdf-syntax-ns#">
 <metadata>
  <rdf:RDF>
   <cc:Work rdf:about="">
    <dc:format>image/svg+xml</dc:format>
    <dc:type rdf:resource="http://purl.org/dc/dcmitype/StillImage"/>
    <dc:title/>
   </cc:Work>
  </rdf:RDF>
 </metadata>
 <g stroke-width=".2646px">
  <path d="m27.024 12.62 23.152 1.323-21.168 6.6149z" fill="#121824" stroke="#e9e56f"/>
  <path d="m23.716 2.0363-5.2919 27.783 25.137-6.6149z" fill="#1d232d" stroke="#6f8ce9"/>
  <path d="m29.008 20.558-21.168 6.6149-3.969-15.876 23.152 1.323" fill="#121824" stroke="#e9e56f"/>
 </g>
 <g fill="#e9e56f">
  <circle transform="rotate(-27)" cx="-1.757" cy="11.779" r=".57848"/>
  <circle transform="rotate(-27)" cx="-5.3108" cy="27.873" r=".57848"/>
  <circle transform="rotate(-27)" cx="38.084" cy="35.101" r=".57848"/>
 </g>
 <g fill="#6f8ce9">
  <circle transform="rotate(-27)" cx="2.8412" cy="35.12" r=".57848"/>
  <circle transform="rotate(-27)" cx="20.169" cy="12.767" r=".57848"/>
  <circle transform="rotate(-27)" cx="28.374" cy="40.548" r=".57848"/>
 </g>
 <circle transform="rotate(-27)" cx="16.436" cy="31.443" r=".57848" fill="#e9e56f"/>
 <g fill="#e8eaec">
  <g aria-label="B">
   <path d="m5.9651 28.575v2.6375h0.7451c0.17781 0 0.35985 0 0.54189-0.0762 0.28365-0.12277 0.44029-0.38102 0.44029-0.65197 0-0.30905-0.19898-0.58423-0.49109-0.6816 0.23285-0.09737 0.38949-0.33022 0.38949-0.58 0-0.23708-0.13547-0.46569-0.38525-0.57153-0.16511-0.07197-0.33022-0.0762-0.49109-0.0762zm0.29212 0.25401h0.41489c0.11431 0 0.23285 0 0.35138 0.04657 0.17358 0.07197 0.26671 0.22014 0.26671 0.37255 0 0.15241-0.088905 0.29635-0.25401 0.36832-0.12277 0.0508-0.24978 0.0508-0.36832 0.0508h-0.41065zm0 1.088h0.43182c0.13124 0 0.26248 0.0042 0.39372 0.06774 0.19474 0.08891 0.30058 0.27942 0.30058 0.46992 0 0.19051-0.10161 0.36409-0.28365 0.44876-0.11431 0.0508-0.22438 0.0508-0.33868 0.0508h-0.50379z" fill="#e8eaec" stroke-width=".65149px"/>
  </g>
  <g aria-label="A">
   <path d="m0 11.108h0.29211l0.25825-0.77474h0.83401l0.29211 0.77051h0.30905l-1.0203-2.6841h-0.033868zm1.3209-1.0034h-0.71547l0.34292-1.0034z" fill="#e8eaec" stroke-width=".65149px"/>
  </g>
  <g aria-label="C">
   <path d="m52.974 11.884c-0.41065 0-1.0034 0.30058-1.0034 1.359 0 1.0161 0.5673 1.3463 1.0034 1.3463 0.31328 0 0.6054-0.16511 0.77051-0.43606l-0.21591-0.13971c-0.12277 0.19898-0.33445 0.31752-0.53766 0.31752-0.38949 0-0.7324-0.40219-0.7324-1.1177 0-0.69854 0.33445-1.0923 0.707-1.0923 0.20321 0 0.39795 0.12277 0.50379 0.30905 0.0085 0.0127 0.01693 0.0254 0.01693 0.04234 0 0.0127-0.0042 0.02117-0.0042 0.03387 0 0.0042 0 0.0254 0.02117 0.0381l0.27938-0.13548c-0.13971-0.31752-0.45722-0.52496-0.80861-0.52496z" fill="#e8eaec" stroke-width=".65149px"/>
  </g>
  <g aria-label="X">
   <path d="m20.327 31.75-0.54189 0.99912-0.5546-0.99912h-0.31752l0.70277 1.2955-0.7197 1.342h0.32598l0.56306-1.0415 0.58846 1.0415h0.33022l-0.7451-1.3505 0.66467-1.287z" fill="#e8eaec" stroke-width=".65149px"/>
  </g>
  <g aria-label="Y">
   <path d="m43.982 25.135 0.81284 1.6003v1.0372h0.32175v-1.0372l0.7451-1.6003h-0.31328l-0.58423 1.2785-0.64773-1.2785z" fill="#e8eaec" stroke-width=".65149px"/>
  </g>
  <g aria-label="Z">
   <path d="m26.481-0.0013411v0.26671h1.2785l-1.3293 2.1676v0.20744h1.7442v-0.28788c-0.0508-0.00847-0.06774 0.025401-0.12701 0.025401h-1.2447l1.3039-2.1676 0.0042-0.21168z" fill="#e8eaec" stroke-width=".65149px"/>
  </g>
  <g aria-label="R">
   <path d="m29.548 21.166v2.6375h0.29635v-1.1642h0.51226l0.58423 1.1642h0.33445l-0.60963-1.1727c0.31752-0.0889 0.53766-0.38949 0.53766-0.74087 0-0.26248-0.13124-0.51226-0.37679-0.63503-0.16511-0.08467-0.33022-0.0889-0.50379-0.0889zm0.29635 0.27941h0.47839c0.11007 0 0.21591 0.0042 0.32598 0.05504 0.16511 0.08467 0.24978 0.25401 0.24978 0.42336s-0.08044 0.32598-0.23284 0.40219c-0.10161 0.0508-0.20321 0.05504-0.30905 0.05504h-0.51226z" fill="#e8eaec" stroke-width=".65149px"/>
  </g>
  <g aria-label="Q">
   <path d="m28.782 9.7655c0.18628 0 0.41489 0.11007 0.54189 0.42335 0.09314 0.22438 0.10584 0.48262 0.10584 0.70277 0 0.87634-0.40642 1.0372-0.6308 1.0372-0.30905 0-0.66467-0.29635-0.66467-1.1304 0-0.77474 0.35985-1.033 0.64773-1.033zm0.93561 1.0923c0-0.24978-0.01693-0.57576-0.16088-0.85941-0.16934-0.34292-0.47416-0.49956-0.76204-0.49956-0.39372 0-0.94832 0.30482-0.94832 1.342 0 0.93985 0.44876 1.2955 0.82978 1.3547 0 0.24131 0.0635 0.42336 0.25401 0.51649 0.16511 0.08044 0.35138 0.0635 0.6562 0.0635l0.0042-0.28788c-0.13124 0.0085-0.24555 0.0254-0.34292 0.0254-0.26248 0-0.30482-0.17358-0.30905-0.32175 0.24131-0.04233 0.47416-0.20321 0.62233-0.49532 0.13971-0.27941 0.15664-0.60963 0.15664-0.83824z" fill="#e8eaec" stroke-width=".65149px"/>
  </g>
 </g>
 <path d="m27.024 12.62 1.9845 7.9379" fill="#1d232d" stroke="#e9e56f" stroke-dasharray="0.793791, 0.793791" stroke-width=".2646"/>
 <circle transform="rotate(-27)" cx="18.389" cy="23.529" r=".57848" fill="#e9e56f"/>
</svg>
