<?xml version="1.0" encoding="UTF-8"?>
<svg width="639.79" height="277.35" version="1.1" viewBox="0 0 169.28 73.384" xmlns="http://www.w3.org/2000/svg" xmlns:cc="http://creativecommons.org/ns#" xmlns:dc="http://purl.org/dc/elements/1.1/" xmlns:rdf="http://www.w3.org/1999/02/22-rdf-syntax-ns#">
 <metadata>
  <rdf:RDF>
   <cc:Work rdf:about="">
    <dc:format>image/svg+xml</dc:format>
    <dc:type rdf:resource="http://purl.org/dc/dcmitype/StillImage"/>
    <dc:title/>
   </cc:Work>
  </rdf:RDF>
 </metadata>
 <g transform="matrix(.20919 0 0 .20943 80.545 81.004)" fill="#a0f1c6" stroke-dashoffset="1.2" stroke-linecap="square" stroke-width=".26459" aria-label="00010 01101 01101">
  <g transform="matrix(34.719 0 0 34.679 -3655.9 -3724.9)" stroke-dashoffset="1.2" stroke-linecap="square" stroke-width=".26459">
   <rect x="94.208" y="96.454" width="23.308" height="9.7115" fill="#1d232d" style="paint-order:normal"/>
   <g fill="#7b8694">
    <path d="m94.596 96.26h1.1654v0.19408h-1.1654z"/>
    <path d="m96.538 96.26h1.1654v0.19408h-1.1654z"/>
    <path d="m98.481 96.26h1.1654v0.19408h-1.1654z"/>
    <path d="m100.42 96.26h1.1654v0.19408h-1.1654z"/>
    <path d="m102.37 96.26h1.1654v0.19408h-1.1654z"/>
    <path d="m104.31 96.26h1.1654v0.19408h-1.1654z"/>
    <path d="m106.25 96.26h1.1654v0.19408h-1.1654z"/>
    <path d="m108.19 96.26h1.1654v0.19408h-1.1654z"/>
    <path d="m110.13 96.26h1.1654v0.19408h-1.1654z"/>
    <path d="m112.08 96.26h1.1654v0.19408h-1.1654z"/>
    <path d="m114.02 96.26h1.1654v0.19408h-1.1654z"/>
    <path d="m115.96 96.26h1.1654v0.19408h-1.1654z"/>
    <path d="m115.96 106.17h1.1654v0.19405h-1.1654z"/>
    <path d="m114.02 106.17h1.1654v0.19405h-1.1654z"/>
    <path d="m112.08 106.17h1.1654v0.19405h-1.1654z"/>
    <path d="m110.13 106.17h1.1654v0.19405h-1.1654z"/>
    <path d="m108.19 106.17h1.1654v0.19405h-1.1654z"/>
    <path d="m106.25 106.17h1.1654v0.19405h-1.1654z"/>
    <path d="m104.31 106.17h1.1654v0.19405h-1.1654z"/>
    <path d="m102.37 106.17h1.1654v0.19405h-1.1654z"/>
    <path d="m100.42 106.17h1.1654v0.19405h-1.1654z"/>
    <path d="m98.481 106.17h1.1654v0.19405h-1.1654z"/>
    <path d="m96.538 106.17h1.1654v0.19405h-1.1654z"/>
    <path d="m94.596 106.17h1.1654v0.19405h-1.1654z"/>
   </g>
  </g>
  <path d="m-59.123-174.51-20.828-96.263 30.713-27.856 72.37-20.099 82.254 38.082 2.1181 108.25-95.669 47.955z" fill="#f1f3fd"/>
  <path d="m9.1649-109.22c-1.9674-0.22041-4.4631-1.0481-6.2287-2.0663-0.76107-0.43892-10.82-8.2969-22.353-17.462-40.091-31.861-49.712-39.523-50.38-40.122-1.9648-1.7622-3.9152-5.0769-4.6382-7.8827-0.18801-0.72962-2.8312-23.598-5.8739-50.82s-5.6333-50.115-5.7571-50.875c-0.83107-5.1033 1.7078-11.366 6.036-14.889 2.4962-2.032 3.3583-2.3356 27.403-9.6522 12.47-3.7943 33.401-10.168 46.515-14.163 13.114-3.9951 24.561-7.4564 25.439-7.6918 2.0049-0.53744 5.4578-0.58543 7.4682-0.1042 0.7706 0.18441 10.398 3.6506 21.395 7.7024 10.996 4.0518 29.478 10.849 41.069 15.104 11.591 4.2556 21.844 8.1193 22.783 8.5861 4.9228 2.4466 8.2784 7.128 9.0804 12.668 0.22546 1.5577-0.0751 7.1056-2.988 55.085-2.2538 37.126-3.3404 53.805-3.5729 54.841-0.68976 3.0729-3.0196 7.0166-5.2234 8.8417-1.483 1.2282-2.8695 2.0651-10.286 6.2093-3.8638 2.1588-12.054 6.7462-18.201 10.194-52.474 29.433-61.978 34.745-62.934 35.183-2.4214 1.1076-5.9135 1.632-8.7524 1.3143zm-19.398-33.661c0.9516-0.15978 2.5913-1.5499 3.174-2.6908 1.5808-3.0949 1.4249-8.87-0.37513-13.904-2.6565-7.4283-7.9977-13.188-12.486-13.464-1.1154-0.0688-1.4717 6e-3 -2.4471 0.52292-2.1593 1.1413-3.2078 3.3741-3.3788 7.195-0.41751 9.3336 6.5026 21.126 13.152 22.411 0.52165 0.10104 1.092 0.15536 1.2676 0.12125 0.17557-0.0316 0.66773-0.12062 1.0935-0.19198zm49.8-3.0109c5.1256-1.5046 9.9304-6.7803 12.279-13.482 0.92924-2.652 1.2275-4.4696 1.2035-7.3359-0.01895-2.1749-0.10547-2.7985-0.59238-4.2242-1.342-3.932-3.7345-5.7955-7.3695-5.74-7.0214 0.10673-14.493 9.1784-15.592 18.93-0.65566 5.8187 1.5271 10.635 5.3736 11.857 1.2905 0.40987 3.2906 0.40798 4.6979-5e-3zm46.631-21.857c2.0766-0.8378 3.5609-1.8401 5.3879-3.6382 4.4766-4.4058 7.1531-10.635 7.1449-16.63-0.0051-3.6682-0.78626-6.0984-2.5879-8.0507-5.1592-5.5906-15.476 0.13893-19.509 10.834-1.1736 3.1125-1.5903 5.5294-1.4707 8.5301 0.07326 1.8423 0.23051 2.9358 0.56586 3.9337 0.9096 2.7068 2.7536 4.6695 5.0946 5.4221 1.3532 0.43513 3.742 0.2564 5.3738-0.40166zm-130.06-4.7021c0.53895-0.35493 1.0004-0.95956 1.4902-1.9535l0.70945-1.4398-0.01389-3.2998c-0.01263-2.9708-0.07256-3.4907-0.59965-5.2136-1.3084-4.2766-3.1837-7.585-5.6451-9.9584-1.9123-1.844-3.4147-2.5634-5.0993-2.4417-1.6074 0.1162-2.4145 0.73068-3.2875 2.5037l-0.68185 1.3846 0.01516 3.4054c0.01389 3.0795 0.07105 3.5885 0.59857 5.3191 1.4291 4.6883 4.037 8.8694 6.7924 10.89 2.1683 1.5898 4.1126 1.8632 5.7217 0.80452zm32.216-3.2666c4.5804-2.0836 4.827-11.484 0.52228-19.929-2.1132-4.1457-5.1639-7.5937-7.9837-9.0233-1.9604-0.99391-3.985-1.131-5.4183-0.36692-5.0379 2.6859-4.2556 14.409 1.5337 22.984 1.0805 1.6004 3.5582 4.2052 4.8476 5.0961 2.2665 1.5661 4.7409 2.0377 6.4981 1.2384zm-35.739-24.507c2.0214-1.2163 3.103-5.198 2.6459-9.7407-0.65202-6.4798-3.4163-12.785-7.2084-16.441-2.5681-2.4763-4.7542-3.1002-6.6502-1.8978-5.077 3.2196-2.749 18.375 3.9158 25.491 2.7918 2.9809 5.2158 3.8409 7.2968 2.5887zm86.035-1.5703c4.6623-1.098 9.3792-5.766 11.988-11.864 1.7794-4.1593 2.37-9.0456 1.5058-12.459-0.74004-2.9229-2.1508-4.8849-4.2546-5.9169-1.0573-0.51849-1.44-0.58922-3.1209-0.57659-1.5494 0.0126-2.1717 0.11936-3.2526 0.5627-2.1981 0.90133-3.6533 1.8802-5.4705 3.6795-2.9286 2.8999-5.0551 6.564-6.4148 11.053-0.52165 1.7228-0.58165 2.2531-0.59744 5.3158-0.01895 3.0416 0.03789 3.5547 0.47934 4.8412 0.93442 2.7024 2.7894 4.6731 5.0171 5.33 1.4017 0.41365 2.4722 0.4225 4.1205 0.0316zm-52.298-8.203c3.6794-1.8387 4.4875-8.8778 1.8699-16.289-3.6644-10.375-12.199-16.576-16.336-11.87-1.3809 1.5709-1.9463 3.619-1.9463 7.0493 0 11.543 9.9487 24.339 16.412 21.109zm100.92-11.873c4.9985-1.8963 9.9799-8.0983 11.798-14.688 0.81285-2.9469 0.95419-6.8941 0.33472-9.3419-0.70587-2.7883-1.9314-4.5794-3.845-5.6197-2.3313-1.2674-4.9248-1.1303-8.1053 0.42818-1.7786 0.87165-2.2918 1.2629-4.2576 3.246-3.2441 3.2726-5.1547 6.6056-6.4298 11.217-0.38271 1.3843-0.46102 2.2382-0.46229 5.0671-0.0015 2.9819 0.05684 3.5576 0.46544 4.6609 0.9953 2.6802 2.5015 4.3956 4.5862 5.2231 1.4296 0.56775 4.1456 0.47933 5.9159-0.19262zm-137.98-10.606c1.1194-0.68958 2.2103-2.6026 2.5566-4.4833 0.49961-2.7131 0.0581-7.0784-1.0561-10.443-1.2673-3.8271-4.0585-8.3852-6.4499-10.533-4.8221-4.3304-9.382-2.9707-10.364 3.0905-0.30289 1.8697-0.28242 3.1252 0.09119 5.601 0.82265 5.4515 3.6779 11.193 7.2535 14.585 3.0502 2.894 5.6553 3.6075 7.9686 2.1823zm67.484-30.26c3.927-0.46292 7.0715-1.3523 9.7926-2.7696 2.6778-1.3946 4.0448-2.9435 4.0448-4.5831 0-1.7395-1.1111-3.0077-3.7144-4.2395-2.9911-1.4153-6.603-2.0414-11.72-2.0312-7.2706 0.0126-13.938 1.8407-16.932 4.6378-1.3223 1.2354-1.6952 1.9076-1.6952 3.0553 0 1.0852 0.39661 1.8698 1.3807 2.7331 3.2539 2.8536 10.84 4.1408 18.843 3.1972zm6.28-18.683c7.0902-1.5202 11.161-4.2991 10.449-7.1325-0.25514-1.0142-1.6357-2.2613-3.4241-3.0924-9.067-4.2134-27.746-1.4-29.499 4.443-0.73138 2.4383 2.4005 4.7921 7.7847 5.8506 2.6843 0.52797 2.7243 0.52986 7.7702 0.45724 3.907-0.0568 5.1822-0.15347 6.9187-0.52607zm47.247-0.31956c4.622-0.97705 7.3075-2.766 7.5235-5.012 0.18757-1.9512-1.3454-3.6514-4.6801-5.1904-7.5079-3.4648-20.647-2.7708-24.206 1.2787-0.3505 0.39913-0.75166 1.105-0.89072 1.5687-0.22988 0.76713-0.20083 0.95002 0.32903 2.0313 0.90588 1.8493 3.1114 3.3221 6.6371 4.4319 1.6752 0.52734 4.3985 1.0964 6.1468 1.2842 1.8504 0.19893 7.4885-0.0442 9.1406-0.39219zm-91.07-1.3649c5.4257-1.0588 9.3443-3.4519 10.072-6.1506 0.67259-2.495-1.8894-4.9039-6.5353-6.1447-1.8645-0.49765-2.4674-0.55575-5.9083-0.56333-3.199-6e-3 -4.1966 0.0701-6.0404 0.46987-6.8387 1.4809-10.879 4.956-9.5255 8.1924 0.91827 2.1952 4.571 3.9957 9.3115 4.5901 2.1831 0.27345 6.1285 0.0935 8.6261-0.39408zm43.697-14.284c4.5518-0.42565 8.5909-1.8104 10.554-3.6176 1.2042-1.1087 1.6011-1.8267 1.6001-2.8943-0.0047-4.7327-12.183-6.9308-20.996-3.7897-3.184 1.1348-5.3439 2.8666-5.7226 4.5881-0.51534 2.3426 2.8587 4.7948 7.5599 5.4946 3.2022 0.47681 3.9874 0.50144 7.0048 0.21914z" fill="#6f8ce9"/>
 </g>
</svg>
