<?xml version="1.0" encoding="UTF-8"?>
<svg width="33.323mm" height="31.327mm" version="1.1" viewBox="0 0 33.323 31.327" xmlns="http://www.w3.org/2000/svg" xmlns:cc="http://creativecommons.org/ns#" xmlns:dc="http://purl.org/dc/elements/1.1/" xmlns:rdf="http://www.w3.org/1999/02/22-rdf-syntax-ns#">
 <metadata>
  <rdf:RDF>
   <cc:Work rdf:about="">
    <dc:format>image/svg+xml</dc:format>
    <dc:type rdf:resource="http://purl.org/dc/dcmitype/StillImage"/>
    <dc:title/>
   </cc:Work>
  </rdf:RDF>
 </metadata>
 <path d="m15.82 17.735c2.65e-4 -0.02461 0.03654-0.06167 0.08133-0.08289 0.11478-0.05435 0.17833-0.15462 0.1927-0.30411l0.01243-0.12941h1.1091l0.01244 0.12941c0.01429 0.14949 0.07789 0.24977 0.1927 0.30411 0.04477 0.02117 0.08102 0.05816 0.08133 0.08289 0 0.04162-0.05633 0.04463-0.84103 0.04463-0.7847 0-0.84151-0.0029-0.841-0.04463zm-1.667-0.71607c-0.03836-0.04239-0.0422-0.19852-0.0422-1.7174 0-1.5863 0.0026-1.6729 0.04662-1.713 0.04273-0.03866 0.25347-0.0422 2.508-0.0422 2.3521 0 2.4632 0.0026 2.5036 0.04662 0.03836 0.04241 0.0422 0.19854 0.0422 1.7174 0 1.5863-0.0026 1.6729-0.04665 1.713-0.0427 0.03865-0.25344 0.0422-2.508 0.0422-2.3521 0-2.4632-0.0026-2.5036-0.04665zm4.8542-1.917v-1.3516h-4.6924v2.7032h4.6924z" fill="#e9e56f" opacity=".91" stroke-width=".28222"/>
 <g fill="#6f8ce9" stroke-width=".28222">
  <path d="m15.82 31.282c2.65e-4 -0.02461 0.03654-0.06167 0.08133-0.08289 0.11478-0.05434 0.17833-0.15462 0.1927-0.30411l0.01243-0.12941h1.1091l0.01244 0.12941c0.01429 0.14949 0.07789 0.24977 0.1927 0.30411 0.04477 0.02117 0.08102 0.05816 0.08133 0.08289 0 0.04162-0.05633 0.04463-0.84103 0.04463-0.7847 0-0.84151-0.0029-0.841-0.04463zm-1.667-0.71607c-0.03836-0.04239-0.0422-0.19852-0.0422-1.7174 0-1.5863 0.0026-1.6729 0.04662-1.713 0.04273-0.03865 0.25347-0.0422 2.508-0.0422 2.3521 0 2.4632 0.0026 2.5036 0.04662 0.03836 0.04241 0.0422 0.19854 0.0422 1.7174 0 1.5863-0.0026 1.6729-0.04665 1.713-0.0427 0.03866-0.25344 0.0422-2.508 0.0422-2.3521 0-2.4632-0.0026-2.5036-0.04665zm4.8542-1.917v-1.3516h-4.6924v2.7032h4.6924z" opacity=".91"/>
  <path d="m1.7092 17.735c2.65e-4 -0.02461 0.03654-0.06167 0.08131-0.08289 0.1148-0.05435 0.17836-0.15462 0.1927-0.30411l0.01243-0.12941h1.1091l0.01243 0.12941c0.01429 0.14949 0.07789 0.24977 0.1927 0.30411 0.04477 0.02117 0.08101 0.05816 0.08131 0.08289 0 0.04162-0.0563 0.04463-0.841 0.04463-0.7847 0-0.84153-0.0029-0.841-0.04463zm-1.667-0.71607c-0.038391-0.04239-0.042228-0.19852-0.042228-1.7174 0-1.5863 0.00265-1.6729 0.046646-1.713 0.04273-0.03866 0.25347-0.0422 2.508-0.0422 2.3521 0 2.4632 0.0026 2.5036 0.04662 0.03839 0.04241 0.04223 0.19854 0.04223 1.7174 0 1.5863-0.0026 1.6729-0.04665 1.713-0.04273 0.03865-0.25347 0.0422-2.508 0.0422-2.3521 0-2.4632-0.0026-2.5036-0.04665zm4.8542-1.917v-1.3516h-4.6924v2.7032h4.6924z" opacity=".91"/>
  <path d="m29.931 17.735c0-0.02461 0.03656-0.06167 0.08133-0.08289 0.1148-0.05435 0.17833-0.15462 0.1927-0.30411l0.01243-0.12941h1.1091l0.01243 0.12941c0.01429 0.14949 0.07789 0.24977 0.1927 0.30411 0.04479 0.02117 0.08104 0.05816 0.08133 0.08289 0 0.04162-0.0563 0.04463-0.841 0.04463-0.7847 0-0.84153-0.0029-0.84103-0.04463zm-1.667-0.71607c-0.03836-0.04239-0.0422-0.19852-0.0422-1.7174 0-1.5863 0.0026-1.6729 0.04665-1.713 0.0427-0.03866 0.25344-0.0422 2.508-0.0422 2.3521 0 2.4632 0.0026 2.5036 0.04662 0.03836 0.04241 0.0422 0.19854 0.0422 1.7174 0 1.5863-0.0026 1.6729-0.04662 1.713-0.04273 0.03865-0.25347 0.0422-2.508 0.0422-2.3521 0-2.4632-0.0026-2.5036-0.04665zm4.8542-1.917v-1.3516h-4.6924v2.7032h4.6924z" opacity=".91"/>
  <path d="m15.82 4.1887c2.65e-4 -0.02461 0.03654-0.06167 0.08133-0.08289 0.11478-0.05434 0.17833-0.15462 0.1927-0.30411l0.01243-0.12941h1.1091l0.01244 0.12941c0.01429 0.14949 0.07789 0.24977 0.1927 0.30411 0.04477 0.02117 0.08102 0.05816 0.08133 0.08289 0 0.04162-0.05633 0.04463-0.84103 0.04463-0.7847 0-0.84151-0.0029-0.841-0.04463zm-1.667-0.71607c-0.03836-0.04239-0.0422-0.19852-0.0422-1.7174 0-1.5863 0.0026-1.6729 0.04662-1.713 0.04273-0.03866 0.25347-0.0422 2.508-0.0422 2.3521 0 2.4632 0.0026 2.5036 0.04662 0.03836 0.04241 0.0422 0.19854 0.0422 1.7174 0 1.5863-0.0026 1.6729-0.04665 1.713-0.0427 0.03866-0.25344 0.0422-2.508 0.0422-2.3521 0-2.4632-0.0026-2.5036-0.04665zm4.8542-1.917v-1.3516h-4.6924v2.7032h4.6924z" opacity=".91"/>
 </g>
 <g fill="none" stroke="#6f8ce9" stroke-width=".26458">
  <path d="m19.473 15.381h8.4667"/>
  <path d="m5.3622 15.381h8.4667"/>
  <path d="m16.722 4.7978v8.4667"/>
  <path d="m16.722 18.062v8.4667"/>
  <path d="m7.3877 6.8232 6.5513 6.5513"/>
  <path d="m26.075 6.8232-6.5513 6.5513"/>
  <path d="m7.3877 24.381 6.5513-6.5513"/>
  <path d="m26.075 24.381-6.5513-6.5513"/>
 </g>
 <g fill="#6f8ce9" stroke-width=".28222">
  <path d="m3.6847 7.2931c2.64e-4 -0.02461 0.03656-0.06167 0.08133-0.08287 0.1148-0.05437 0.17833-0.15465 0.1927-0.30414l0.01243-0.12941h1.1091l0.01243 0.12941c0.01429 0.14949 0.07789 0.24977 0.1927 0.30414 0.04479 0.02117 0.08104 0.05813 0.08133 0.08287 0 0.04162-0.0563 0.04463-0.841 0.04463-0.7847 0-0.84153-0.0029-0.84103-0.04463zm-1.667-0.71607c-0.03837-0.04239-0.0422-0.19852-0.0422-1.7174 0-1.5863 0.0027-1.6729 0.04665-1.713 0.0427-0.03866 0.25344-0.0422 2.508-0.0422 2.3521 0 2.4632 0.0026 2.5036 0.04665 0.03836 0.04239 0.0422 0.19852 0.0422 1.7174 0 1.5863-0.0026 1.6729-0.04662 1.713-0.04273 0.03866-0.25347 0.0422-2.508 0.0422-2.3521 0-2.4632-0.0026-2.5036-0.04665zm4.8542-1.917v-1.3516h-4.6924v2.7032h4.6924z" opacity=".91"/>
  <path d="m27.956 7.2931c2.65e-4 -0.02461 0.03654-0.06167 0.08131-0.08287 0.1148-0.05437 0.17836-0.15465 0.1927-0.30414l0.01244-0.12941h1.1091l0.01244 0.12941c0.01429 0.14949 0.07789 0.24977 0.1927 0.30414 0.04477 0.02117 0.08102 0.05813 0.08131 0.08287 0 0.04162-0.0563 0.04463-0.841 0.04463-0.7847 0-0.84153-0.0029-0.841-0.04463zm-1.667-0.71607c-0.03839-0.04239-0.04223-0.19852-0.04223-1.7174 0-1.5863 0.0026-1.6729 0.04665-1.713 0.04273-0.03866 0.25347-0.0422 2.508-0.0422 2.3521 0 2.4632 0.0026 2.5036 0.04665 0.03839 0.04239 0.04223 0.19852 0.04223 1.7174 0 1.5863-0.0026 1.6729-0.04665 1.713-0.04273 0.03866-0.25347 0.0422-2.508 0.0422-2.3521 0-2.4632-0.0026-2.5036-0.04665zm4.8542-1.917v-1.3516h-4.6924v2.7032h4.6924z" opacity=".91"/>
  <path d="m3.6847 28.742c2.64e-4 -0.02461 0.03656-0.06167 0.08133-0.08289 0.1148-0.05435 0.17833-0.15462 0.1927-0.30411l0.01243-0.12941h1.1091l0.01243 0.12941c0.01429 0.14949 0.07789 0.24977 0.1927 0.30411 0.04479 0.02117 0.08104 0.05816 0.08133 0.08289 0 0.04162-0.0563 0.04464-0.841 0.04464-0.7847 0-0.84153-0.0029-0.84103-0.04464zm-1.667-0.71607c-0.03837-0.04239-0.0422-0.19852-0.0422-1.7174 0-1.5863 0.0027-1.6729 0.04665-1.713 0.0427-0.03865 0.25344-0.0422 2.508-0.0422 2.3521 0 2.4632 0.0026 2.5036 0.04662 0.03836 0.04241 0.0422 0.19854 0.0422 1.7174 0 1.5863-0.0026 1.6729-0.04662 1.713-0.04273 0.03866-0.25347 0.0422-2.508 0.0422-2.3521 0-2.4632-0.0026-2.5036-0.04665zm4.8542-1.917v-1.3516h-4.6924v2.7032h4.6924z" opacity=".91"/>
  <path d="m27.956 28.742c2.65e-4 -0.02461 0.03654-0.06167 0.08131-0.08289 0.1148-0.05435 0.17836-0.15462 0.1927-0.30411l0.01244-0.12941h1.1091l0.01244 0.12941c0.01429 0.14949 0.07789 0.24977 0.1927 0.30411 0.04477 0.02117 0.08102 0.05816 0.08131 0.08289 0 0.04162-0.0563 0.04464-0.841 0.04464-0.7847 0-0.84153-0.0029-0.841-0.04464zm-1.667-0.71607c-0.03839-0.04239-0.04223-0.19852-0.04223-1.7174 0-1.5863 0.0026-1.6729 0.04665-1.713 0.04273-0.03865 0.25347-0.0422 2.508-0.0422 2.3521 0 2.4632 0.0026 2.5036 0.04662 0.03839 0.04241 0.04223 0.19854 0.04223 1.7174 0 1.5863-0.0026 1.6729-0.04665 1.713-0.04273 0.03866-0.25347 0.0422-2.508 0.0422-2.3521 0-2.4632-0.0026-2.5036-0.04665zm4.8542-1.917v-1.3516h-4.6924v2.7032h4.6924z" opacity=".91"/>
 </g>
</svg>
