<?xml version="1.0" encoding="UTF-8"?>
<svg width="33.323mm" height="21.167mm" version="1.1" viewBox="0 0 33.323 21.167" xmlns="http://www.w3.org/2000/svg" xmlns:cc="http://creativecommons.org/ns#" xmlns:dc="http://purl.org/dc/elements/1.1/" xmlns:rdf="http://www.w3.org/1999/02/22-rdf-syntax-ns#">
 <metadata>
  <rdf:RDF>
   <cc:Work rdf:about="">
    <dc:format>image/svg+xml</dc:format>
    <dc:type rdf:resource="http://purl.org/dc/dcmitype/StillImage"/>
    <dc:title/>
   </cc:Work>
  </rdf:RDF>
 </metadata>
 <g fill="#e9e56f" stroke-width=".28222">
  <path d="m15.82 4.1887c0-0.024606 0.03657-0.061674 0.08133-0.082894 0.1148-0.054345 0.17833-0.15462 0.1927-0.30411l0.01243-0.12941h1.1091l0.01243 0.12941c0.01429 0.14949 0.07789 0.24977 0.1927 0.30411 0.04479 0.021167 0.08102 0.058155 0.08133 0.082894 0 0.041619-0.0563 0.044635-0.841 0.044635-0.7847 0-0.84153-0.00291-0.84103-0.044635zm-1.667-0.71607c-0.03836-0.042386-0.0422-0.19852-0.0422-1.7174 0-1.5863 0.0026-1.6729 0.04665-1.713 0.0427-0.038656 0.25344-0.042201 2.508-0.042201 2.3521 0 2.4632 0.00265 2.5036 0.04662 0.03836 0.042413 0.0422 0.19854 0.0422 1.7174 0 1.5863-0.0026 1.6729-0.04662 1.713-0.04273 0.038656-0.25347 0.042201-2.508 0.042201-2.3521 0-2.4632-0.00265-2.5036-0.046646zm4.8542-1.917v-1.3516h-4.6924v2.7032h4.6924z" opacity=".91"/>
  <path d="m15.82 21.122c0-0.02461 0.03657-0.06168 0.08133-0.08289 0.1148-0.05435 0.17833-0.15462 0.1927-0.30411l0.01243-0.12941h1.1091l0.01243 0.12941c0.01429 0.14949 0.07789 0.24977 0.1927 0.30411 0.04479 0.02117 0.08102 0.05815 0.08133 0.08289 0 0.04162-0.0563 0.04463-0.841 0.04463-0.7847 0-0.84153-0.0029-0.84103-0.04463zm-1.667-0.71607c-0.03836-0.04239-0.0422-0.19852-0.0422-1.7174 0-1.5863 0.0026-1.6729 0.04665-1.713 0.0427-0.03866 0.25344-0.0422 2.508-0.0422 2.3521 0 2.4632 0.0026 2.5036 0.04662 0.03836 0.04241 0.0422 0.19854 0.0422 1.7174 0 1.5863-0.0026 1.6729-0.04662 1.713-0.04273 0.03865-0.25347 0.0422-2.508 0.0422-2.3521 0-2.4632-0.0026-2.5036-0.04665zm4.8542-1.917v-1.3516h-4.6924v2.7032h4.6924z" opacity=".91"/>
  <path d="m1.7092 12.655c0-0.02461 0.03654-0.06167 0.08133-0.08289 0.11478-0.05434 0.17833-0.15462 0.1927-0.30411l0.01243-0.12941h1.1091l0.01244 0.12941c0.01429 0.14949 0.07789 0.24977 0.1927 0.30411 0.04477 0.02117 0.08102 0.05816 0.08133 0.08289 0 0.04162-0.05633 0.04464-0.84103 0.04464-0.7847 0-0.84153-0.0029-0.84101-0.04464zm-1.667-0.71607c-0.03836-0.04239-0.0422-0.19852-0.0422-1.7174 0-1.5863 0.0026-1.6729 0.04662-1.713 0.04273-0.03866 0.25347-0.0422 2.508-0.0422 2.3521 0 2.4632 0.0026 2.5036 0.04662 0.03836 0.04241 0.0422 0.19854 0.0422 1.7174 0 1.5863-0.0026 1.6729-0.04665 1.713-0.0427 0.03866-0.25347 0.0422-2.508 0.0422-2.3521 0-2.4632-0.0026-2.5036-0.04665zm4.8542-1.917v-1.3516h-4.6924v2.7032h4.6924z" opacity=".91"/>
  <path d="m29.931 12.655c2.65e-4 -0.02461 0.03654-0.06167 0.08131-0.08289 0.1148-0.05434 0.17836-0.15462 0.1927-0.30411l0.01243-0.12941h1.1091l0.01244 0.12941c0.01429 0.14949 0.07789 0.24977 0.1927 0.30411 0.04477 0.02117 0.08102 0.05816 0.08131 0.08289 0 0.04162-0.0563 0.04464-0.841 0.04464-0.7847 0-0.84153-0.0029-0.841-0.04464zm-1.667-0.71607c-0.03839-0.04239-0.04223-0.19852-0.04223-1.7174 0-1.5863 0.0026-1.6729 0.04665-1.713 0.04273-0.03866 0.25347-0.0422 2.508-0.0422 2.3521 0 2.4632 0.0026 2.5036 0.04662 0.03836 0.04241 0.04223 0.19854 0.04223 1.7174 0 1.5863-0.0026 1.6729-0.04665 1.713-0.04273 0.03866-0.25347 0.0422-2.508 0.0422-2.3521 0-2.4632-0.0026-2.5035-0.04665zm4.8542-1.917v-1.3516h-4.6924v2.7032h4.6924z" opacity=".91"/>
 </g>
 <g fill="none" stroke="#6f8ce9" stroke-width=".26458">
  <path d="m16.651 16.369v-11.571"/>
  <path d="m5.7855 10.583h21.731"/>
  <path d="m29.216 8.3368-9.7044-6.3021"/>
  <path d="m13.694 18.779-9.7044-6.3021"/>
  <path d="m4.0861 8.3368 9.7044-6.3021"/>
  <path d="m19.608 18.779 9.7044-6.3021"/>
 </g>
</svg>
