<?xml version="1.0" encoding="UTF-8" standalone="no"?>
<svg
   xmlns:dc="http://purl.org/dc/elements/1.1/"
   xmlns:cc="http://creativecommons.org/ns#"
   xmlns:rdf="http://www.w3.org/1999/02/22-rdf-syntax-ns#"
   xmlns:svg="http://www.w3.org/2000/svg"
   xmlns="http://www.w3.org/2000/svg"
   xmlns:sodipodi="http://sodipodi.sourceforge.net/DTD/sodipodi-0.dtd"
   xmlns:inkscape="http://www.inkscape.org/namespaces/inkscape"
   inkscape:version="1.0rc1 (09960d6f05, 2020-04-09)"
   sodipodi:docname="chapter_engines_scripting.svg"
   id="svg60"
   viewBox="0 0 26.485 13.256"
   version="1.1"
   height="50.1"
   width="100.1">
  <metadata
     id="metadata66">
    <rdf:RDF>
      <cc:Work
         rdf:about="">
        <dc:format>image/svg+xml</dc:format>
        <dc:type
           rdf:resource="http://purl.org/dc/dcmitype/StillImage" />
      </cc:Work>
    </rdf:RDF>
  </metadata>
  <defs
     id="defs64" />
  <sodipodi:namedview
     inkscape:current-layer="g54"
     inkscape:window-maximized="1"
     inkscape:window-y="-8"
     inkscape:window-x="-8"
     inkscape:cy="30.335245"
     inkscape:cx="51.301662"
     inkscape:zoom="9.4305696"
     showgrid="false"
     id="namedview62"
     inkscape:window-height="1377"
     inkscape:window-width="2560"
     inkscape:pageshadow="2"
     inkscape:pageopacity="0"
     guidetolerance="10"
     gridtolerance="10"
     objecttolerance="10"
     borderopacity="1"
     bordercolor="#666666"
     pagecolor="#ffffff" />
  <g
     id="g58"
     transform="translate(-119.81 -81.063)">
    <rect
       id="rect2"
       style="paint-order:normal"
       fill="#1d232d"
       height="10.583"
       width="23.812"
       y="82.386"
       x="121.13" />
    <g
       id="g48"
       fill="#7b8694">
      <rect
         id="rect4"
         height=".26458"
         width="1.5875"
         y="82.121"
         x="121.66" />
      <rect
         id="rect6"
         height=".26458"
         width="1.5875"
         y="82.121"
         x="123.77" />
      <rect
         id="rect8"
         height=".26458"
         width="1.5875"
         y="82.121"
         x="125.89" />
      <rect
         id="rect10"
         height=".26458"
         width="1.5875"
         y="82.121"
         x="128.01" />
      <rect
         id="rect12"
         height=".26458"
         width="1.5875"
         y="82.121"
         x="130.12" />
      <rect
         id="rect14"
         height=".26458"
         width="1.5875"
         y="82.121"
         x="132.24" />
      <rect
         id="rect16"
         height=".26458"
         width="1.5875"
         y="82.121"
         x="134.36" />
      <rect
         id="rect18"
         height=".26458"
         width="1.5875"
         y="82.121"
         x="136.47" />
      <rect
         id="rect20"
         height=".26458"
         width="1.5875"
         y="82.121"
         x="138.59" />
      <rect
         id="rect22"
         height=".26458"
         width="1.5875"
         y="82.121"
         x="140.71" />
      <rect
         id="rect24"
         height=".26458"
         width="1.5875"
         y="82.121"
         x="142.82" />
      <rect
         id="rect26"
         height=".26458"
         width="1.5875"
         y="92.969"
         x="121.66" />
      <rect
         id="rect28"
         height=".26458"
         width="1.5875"
         y="92.969"
         x="123.77" />
      <rect
         id="rect30"
         height=".26458"
         width="1.5875"
         y="92.969"
         x="125.89" />
      <rect
         id="rect32"
         height=".26458"
         width="1.5875"
         y="92.969"
         x="128.01" />
      <rect
         id="rect34"
         height=".26458"
         width="1.5875"
         y="92.969"
         x="130.12" />
      <rect
         id="rect36"
         height=".26458"
         width="1.5875"
         y="92.969"
         x="132.24" />
      <rect
         id="rect38"
         height=".26458"
         width="1.5875"
         y="92.969"
         x="134.36" />
      <rect
         id="rect40"
         height=".26458"
         width="1.5875"
         y="92.969"
         x="136.47" />
      <rect
         id="rect42"
         height=".26458"
         width="1.5875"
         y="92.969"
         x="138.59" />
      <rect
         id="rect44"
         height=".26458"
         width="1.5875"
         y="92.969"
         x="140.71" />
      <rect
         id="rect46"
         height=".26458"
         width="1.5875"
         y="92.969"
         x="142.82" />
    </g>
    <g
       style="fill:#e8eaec;fill-opacity:1"
       id="g54"
       aria-label="{ }"
       stroke-width="2"
       stroke-miterlimit="40"
       stroke-linecap="square"
       stroke-dashoffset="1.2"
       fill="#47d58a">
      <path
         style="fill:#e8eaec;fill-opacity:1"
         id="path50"
         d="m127.12 87.398v0.47414h0.1778c0.14393 0 0.36406-0.0085 0.5334 0.16933 0.16933 0.16087 0.22013 0.4064 0.22013 0.77047 0 0.26247-0.0254 0.51647-0.0254 0.84667 0 0.3048 0.0254 0.889 0.46567 1.2277 0.37254 0.2794 0.80434 0.254 1.3293 0.254h0.3048v-0.47414h-0.31326c-0.34714 0-0.61807 0.01693-0.84667-0.14393-0.30481-0.2032-0.34714-0.57574-0.34714-0.8636 0-0.2286 0.0254-0.44874 0.0254-0.7112 0-0.889-0.38947-1.2107-0.7112-1.3208 0.26247-0.11007 0.47413-0.31327 0.60113-0.56727 0.11007-0.2286 0.13547-0.4826 0.13547-0.67734 0-0.21167-0.0254-0.39794-0.0254-0.60114 0-0.16933 0.0169-0.5842 0.33867-0.7874 0.2286-0.14393 0.4826-0.1016 0.85514-0.1016h0.29633v-0.4826h-0.26247c-0.44873 0-0.9906-0.03387-1.397 0.33867-0.37254 0.33867-0.42334 0.8128-0.42334 1.1345 0 0.2032 0.0254 0.39794 0.0254 0.60114 0 0.21167-0.0254 0.508-0.22013 0.71967-0.18627 0.19473-0.41487 0.19473-0.56727 0.19473z" />
      <path
         style="fill:#e8eaec;fill-opacity:1"
         id="path52"
         d="m138.94 87.398h-0.16087c-0.1524 0-0.38946 0-0.56726-0.19473-0.20321-0.21167-0.22014-0.508-0.22014-0.71967 0-0.2032 0.0169-0.39794 0.0169-0.60114 0-0.32174-0.0423-0.79587-0.41486-1.1345-0.40641-0.37254-0.94827-0.33867-1.4055-0.33867h-0.254v0.4826h0.28787c0.37254 0 0.635-0.04233 0.85514 0.1016 0.3302 0.2032 0.34713 0.61807 0.34713 0.7874 0 0.2032-0.0254 0.38947-0.0254 0.60114 0 0.19473 0.0169 0.44874 0.127 0.67734 0.127 0.254 0.34714 0.4572 0.60961 0.56727-0.32174 0.11007-0.71967 0.4318-0.71967 1.3208 0 0.26247 0.0254 0.4826 0.0254 0.7112 0 0.28787-0.0423 0.6604-0.34714 0.8636-0.2286 0.16087-0.49107 0.14393-0.8382 0.14393h-0.31327v0.47414h0.3048c0.52494 0 0.95674 0.0254 1.3208-0.254 0.44873-0.33867 0.47413-0.92287 0.47413-1.2277 0-0.3302-0.0339-0.5842-0.0339-0.84667 0-0.36407 0.0593-0.6096 0.22014-0.77047 0.1778-0.1778 0.39793-0.16933 0.54187-0.16933h0.16933z" />
    </g>
    <path
       id="path56"
       stroke-width="2"
       stroke-miterlimit="40"
       stroke-linecap="square"
       stroke-dashoffset="1.2"
       fill="#7b8694"
       d="m132.36 87.031v-1.3229h1.3229v1.3229h1.3229v1.3229h-1.3229v1.3229h-1.3229v-1.3229h-1.3229v-1.3229z" />
  </g>
</svg>
