<?xml version="1.0" encoding="UTF-8"?>
<svg width="94.902mm" height="74.829mm" version="1.1" viewBox="0 0 94.902 74.829" xmlns="http://www.w3.org/2000/svg" xmlns:cc="http://creativecommons.org/ns#" xmlns:dc="http://purl.org/dc/elements/1.1/" xmlns:rdf="http://www.w3.org/1999/02/22-rdf-syntax-ns#">
 <metadata>
  <rdf:RDF>
   <cc:Work rdf:about="">
    <dc:format>image/svg+xml</dc:format>
    <dc:type rdf:resource="http://purl.org/dc/dcmitype/StillImage"/>
    <dc:title/>
   </cc:Work>
  </rdf:RDF>
 </metadata>
 <g fill="#e8eaec" stroke-linecap="round" stroke-width=".26458">
  <g aria-label="10^-30">
   <path d="m5.9473 65.405h0.9525v-0.17992h-0.34925v-1.5081h-0.16669c-0.092604 0.05556-0.20373 0.0979-0.35719 0.12435v0.14023h0.30692v1.2435h-0.38629z"/>
   <path d="m7.7096 65.437c0.33602 0 0.53975-0.31485 0.53975-0.88106 0-0.56621-0.20373-0.87048-0.53975-0.87048-0.33867 0-0.5424 0.30427-0.5424 0.87048 0 0.56621 0.20373 0.88106 0.5424 0.88106zm0-0.17462c-0.19844 0-0.33073-0.21167-0.33073-0.70644 0-0.49477 0.13229-0.69585 0.33073-0.69585 0.19579 0 0.32808 0.20108 0.32808 0.69585 0 0.49477-0.13229 0.70644-0.32808 0.70644z"/>
   <path d="m8.5221 64.654h0.1905l0.17198-0.46567 0.13229-0.3519h0.010583l0.12965 0.3519 0.17198 0.46567h0.1905l-0.40217-1.0213h-0.19315z"/>
   <path d="m9.7845 64.826h0.60854v-0.16669h-0.60854z"/>
   <path d="m10.566 65.199c0.11377 0.12435 0.28575 0.23812 0.55562 0.23812 0.30956 0 0.55562-0.18256 0.55562-0.48154 0-0.23283-0.1614-0.381-0.36512-0.42862v-0.010583c0.18256-0.06879 0.30692-0.19844 0.30692-0.40217 0-0.27252-0.21167-0.42862-0.50535-0.42862-0.19844 0-0.35454 0.08996-0.48419 0.21167l0.11642 0.13758c0.10054-0.10054 0.2196-0.17198 0.35983-0.17198 0.17992 0 0.29104 0.10319 0.29104 0.26723 0 0.17727-0.11906 0.31485-0.4789 0.31485v0.16669c0.40217 0 0.53975 0.13494 0.53975 0.33602 0 0.18785-0.14552 0.30956-0.34925 0.30956-0.19844 0-0.33073-0.09525-0.43127-0.20108z"/>
   <path d="m12.469 65.437c0.33602 0 0.53975-0.31485 0.53975-0.88106 0-0.56621-0.20373-0.87048-0.53975-0.87048-0.33867 0-0.5424 0.30427-0.5424 0.87048 0 0.56621 0.20373 0.88106 0.5424 0.88106zm0-0.17462c-0.19844 0-0.33073-0.21167-0.33073-0.70644 0-0.49477 0.13229-0.69585 0.33073-0.69585 0.19579 0 0.32808 0.20108 0.32808 0.69585 0 0.49477-0.13229 0.70644-0.32808 0.70644z"/>
  </g>
  <g aria-label="10^-24">
   <path d="m5.9049 54.822h0.9525v-0.17992h-0.34925v-1.5081h-0.16669c-0.092604 0.05556-0.20373 0.0979-0.35719 0.12435v0.14023h0.30692v1.2435h-0.38629z"/>
   <path d="m7.6672 54.853c0.33602 0 0.53975-0.31485 0.53975-0.88106 0-0.56621-0.20373-0.87048-0.53975-0.87048-0.33867 0-0.5424 0.30427-0.5424 0.87048 0 0.56621 0.20373 0.88106 0.5424 0.88106zm0-0.17462c-0.19844 0-0.33073-0.21167-0.33073-0.70644 0-0.49477 0.13229-0.69585 0.33073-0.69585 0.19579 0 0.32808 0.20108 0.32808 0.69585 0 0.49477-0.13229 0.70644-0.32808 0.70644z"/>
   <path d="m8.4798 54.07h0.1905l0.17198-0.46567 0.13229-0.3519h0.010583l0.12965 0.3519 0.17198 0.46567h0.1905l-0.40217-1.0213h-0.19315z"/>
   <path d="m9.7421 54.242h0.60854v-0.16669h-0.60854z"/>
   <path d="m10.561 54.822h1.0901v-0.18785h-0.48948c-0.08731 0-0.1905 0.0079-0.2831 0.01588 0.39952-0.41804 0.68792-0.7329 0.68792-1.0504 0-0.29898-0.19314-0.49742-0.50535-0.49742-0.2196 0-0.37042 0.10319-0.51064 0.25665l0.12435 0.12435c0.09789-0.11377 0.2196-0.20373 0.35983-0.20373 0.21431 0 0.32015 0.13758 0.32015 0.33073 0 0.27252-0.28575 0.57679-0.79375 1.0821z"/>
   <path d="m12.043 54.181 0.39423-0.57679c0.04763-0.08202 0.09525-0.1561 0.13758-0.23812h0.01058c-0.0053 0.08996-0.01323 0.23548-0.01323 0.32544v0.48948zm0.96573 0h-0.23019v-1.0477h-0.24342l-0.72231 1.0795v0.14288h0.75935v0.46567h0.20637v-0.46567h0.23019z"/>
  </g>
  <g aria-label="10^-18">
   <path d="m5.9393 44.238h0.9525v-0.17992h-0.34925v-1.5081h-0.16669c-0.092604 0.05556-0.20373 0.0979-0.35719 0.12435v0.14023h0.30692v1.2435h-0.38629z"/>
   <path d="m7.7017 44.27c0.33602 0 0.53975-0.31485 0.53975-0.88106 0-0.56621-0.20373-0.87048-0.53975-0.87048-0.33867 0-0.5424 0.30427-0.5424 0.87048 0 0.56621 0.20373 0.88106 0.5424 0.88106zm0-0.17462c-0.19844 0-0.33073-0.21167-0.33073-0.70644 0-0.49477 0.13229-0.69585 0.33073-0.69585 0.19579 0 0.32808 0.20108 0.32808 0.69585 0 0.49477-0.13229 0.70644-0.32808 0.70644z"/>
   <path d="m8.5142 43.487h0.1905l0.17198-0.46567 0.13229-0.3519h0.010583l0.12965 0.3519 0.17198 0.46567h0.1905l-0.40217-1.0213h-0.19315z"/>
   <path d="m9.7765 43.659h0.60854v-0.16669h-0.60854z"/>
   <path d="m10.699 44.238h0.9525v-0.17992h-0.34925v-1.5081h-0.16669c-0.0926 0.05556-0.20373 0.0979-0.35719 0.12435v0.14023h0.30692v1.2435h-0.38629z"/>
   <path d="m12.107 43.786c0-0.15346 0.10054-0.27781 0.23548-0.36777 0.24342 0.0979 0.45773 0.17727 0.45773 0.39423 0 0.17462-0.13494 0.29633-0.33073 0.29633-0.20638 0-0.36248-0.13494-0.36248-0.32279zm0.47625-0.46831c-0.20373-0.07937-0.38894-0.16404-0.38894-0.36512 0-0.16404 0.11642-0.27252 0.27252-0.27252 0.18521 0 0.29369 0.13229 0.29369 0.29898 0 0.12435-0.0635 0.23812-0.17727 0.33867zm-0.67204 0.48948c0 0.26723 0.23548 0.46302 0.55298 0.46302 0.32808 0 0.54504-0.19844 0.54504-0.44979 0-0.22754-0.14288-0.3466-0.29369-0.43392v-0.01058c0.10319-0.07937 0.23283-0.23019 0.23283-0.40746 0-0.26194-0.18256-0.44979-0.47625-0.44979-0.27252 0-0.4789 0.17462-0.4789 0.43392 0 0.17727 0.11112 0.30162 0.23548 0.38894v0.01058c-0.15875 0.08467-0.3175 0.23548-0.3175 0.45508z"/>
  </g>
  <g aria-label="10^-12">
   <path d="m5.9499 33.655h0.9525v-0.17992h-0.34925v-1.5081h-0.16669c-0.092604 0.05556-0.20373 0.0979-0.35719 0.12435v0.14023h0.30692v1.2435h-0.38629z"/>
   <path d="m7.7123 33.687c0.33602 0 0.53975-0.31485 0.53975-0.88106 0-0.56621-0.20373-0.87048-0.53975-0.87048-0.33867 0-0.5424 0.30427-0.5424 0.87048 0 0.56621 0.20373 0.88106 0.5424 0.88106zm0-0.17462c-0.19844 0-0.33073-0.21167-0.33073-0.70644 0-0.49477 0.13229-0.69585 0.33073-0.69585 0.19579 0 0.32808 0.20108 0.32808 0.69585 0 0.49477-0.13229 0.70644-0.32808 0.70644z"/>
   <path d="m8.5248 32.904h0.1905l0.17198-0.46567 0.13229-0.3519h0.010583l0.12965 0.3519 0.17198 0.46567h0.1905l-0.40217-1.0213h-0.19315z"/>
   <path d="m9.7871 33.076h0.60854v-0.16669h-0.60854z"/>
   <path d="m10.709 33.655h0.9525v-0.17992h-0.34925v-1.5081h-0.16669c-0.0926 0.05556-0.20373 0.0979-0.35719 0.12435v0.14023h0.30692v1.2435h-0.38629z"/>
   <path d="m11.919 33.655h1.0901v-0.18785h-0.48948c-0.08731 0-0.1905 0.0079-0.2831 0.01588 0.39952-0.41804 0.68792-0.7329 0.68792-1.0504 0-0.29898-0.19315-0.49742-0.50535-0.49742-0.2196 0-0.37042 0.10319-0.51064 0.25664l0.12435 0.12435c0.0979-0.11377 0.2196-0.20373 0.35983-0.20373 0.21431 0 0.32014 0.13758 0.32014 0.33073 0 0.27252-0.28575 0.57679-0.79375 1.0821z"/>
  </g>
  <g aria-label="10^-6">
   <path d="m7.2492 23.072h0.9525v-0.17992h-0.34925v-1.5081h-0.16669c-0.092604 0.05556-0.20373 0.0979-0.35719 0.12435v0.14023h0.30692v1.2435h-0.38629z"/>
   <path d="m9.0116 23.103c0.33602 0 0.53975-0.31485 0.53975-0.88106 0-0.56621-0.20373-0.87048-0.53975-0.87048-0.33867 0-0.5424 0.30427-0.5424 0.87048 0 0.56621 0.20373 0.88106 0.5424 0.88106zm0-0.17462c-0.19844 0-0.33073-0.21167-0.33073-0.70644 0-0.49477 0.13229-0.69585 0.33073-0.69585 0.19579 0 0.32808 0.20108 0.32808 0.69585 0 0.49477-0.13229 0.70644-0.32808 0.70644z"/>
   <path d="m9.8241 22.32h0.1905l0.17198-0.46567 0.13229-0.3519h0.01058l0.12965 0.3519 0.17198 0.46567h0.1905l-0.40217-1.0213h-0.19314z"/>
   <path d="m11.086 22.492h0.60854v-0.16669h-0.60854z"/>
   <path d="m12.509 22.931c-0.21431 0-0.34396-0.17727-0.37042-0.50535 0.11377-0.15875 0.24606-0.22225 0.3519-0.22225 0.20902 0 0.31221 0.13758 0.31221 0.35719 0 0.22225-0.127 0.37042-0.29369 0.37042zm0.46831-1.3996c-0.09525-0.10319-0.2249-0.17992-0.40746-0.17992-0.33602 0-0.64294 0.26194-0.64294 0.93927 0 0.5424 0.25135 0.81227 0.58208 0.81227 0.27252 0 0.50006-0.2196 0.50006-0.5424 0-0.3466-0.1905-0.52123-0.48154-0.52123-0.13758 0-0.2884 0.08202-0.39423 0.21167 0.01058-0.53446 0.20902-0.71702 0.4445-0.71702 0.10583 0 0.20902 0.05027 0.27781 0.13229z"/>
  </g>
  <g stroke="#cf2f25" aria-label="1">
   <path d="m12.056 12.488h0.9525v-0.17992h-0.34925v-1.5081h-0.16669c-0.0926 0.05556-0.20373 0.0979-0.35719 0.12435v0.14023h0.30692v1.2435h-0.38629z" fill="#e8eaec" stroke="none"/>
  </g>
  <g aria-label="10^6">
   <path d="m8.0709 1.905h0.9525v-0.17992h-0.34925v-1.5081h-0.16669c-0.092604 0.055562-0.20373 0.097896-0.35719 0.12435v0.14023h0.30692v1.2435h-0.38629z"/>
   <path d="m9.8333 1.9367c0.33602 0 0.53975-0.31485 0.53975-0.88106 0-0.56621-0.20373-0.87048-0.53975-0.87048-0.33867 0-0.5424 0.30427-0.5424 0.87048 0 0.56621 0.20373 0.88106 0.5424 0.88106zm0-0.17462c-0.19844 0-0.33073-0.21167-0.33073-0.70644 0-0.49477 0.13229-0.69585 0.33073-0.69585 0.19579 0 0.32808 0.20108 0.32808 0.69585 0 0.49477-0.13229 0.70644-0.32808 0.70644z"/>
   <path d="m10.646 1.1536h0.1905l0.17198-0.46567 0.13229-0.3519h0.01058l0.12964 0.3519 0.17198 0.46567h0.1905l-0.40216-1.0213h-0.19315z"/>
   <path d="m12.509 1.7648c-0.21431 0-0.34396-0.17727-0.37042-0.50535 0.11377-0.15875 0.24606-0.22225 0.3519-0.22225 0.20902 0 0.31221 0.13758 0.31221 0.35719 0 0.22225-0.127 0.37042-0.29369 0.37042zm0.46831-1.3996c-0.09525-0.10319-0.2249-0.17992-0.40746-0.17992-0.33602 0-0.64294 0.26194-0.64294 0.93927 0 0.5424 0.25135 0.81227 0.58208 0.81227 0.27252 0 0.50006-0.2196 0.50006-0.5424 0-0.3466-0.1905-0.52123-0.48154-0.52123-0.13758 0-0.2884 0.082021-0.39423 0.21167 0.01058-0.53446 0.20902-0.71702 0.4445-0.71702 0.10583 0 0.20902 0.050271 0.27781 0.13229z"/>
  </g>
  <g transform="rotate(-90)" aria-label="Precision">
   <path d="m-37.384 1.9632h0.22225v-0.68792h0.31221c0.37835 0 0.64029-0.17198 0.64029-0.5371 0-0.381-0.25664-0.51065-0.64029-0.51065h-0.53446zm0.22225-0.86783v-0.69056h0.2831c0.29898 0 0.44979 0.082021 0.44979 0.33337 0 0.24606-0.14552 0.35719-0.44979 0.35719z"/>
   <path d="m-35.888 1.9632h0.21696v-0.8255c0.08731-0.21696 0.21696-0.29633 0.32544-0.29633 0.05292 0 0.08202 0.007937 0.12435 0.021167l0.04233-0.1905c-0.04233-0.018521-0.08202-0.026458-0.13758-0.026458-0.14552 0-0.27781 0.10319-0.36512 0.26458h-0.0079l-0.01852-0.23283h-0.17992z"/>
   <path d="m-35.089 1.3229c0 0.42069 0.27252 0.67204 0.61648 0.67204 0.17462 0 0.31221-0.060854 0.42333-0.13229l-0.07673-0.14287c-0.09525 0.060854-0.19844 0.10054-0.32014 0.10054-0.24606 0-0.41275-0.17462-0.42862-0.45244h0.86783c0.0053-0.03175 0.0079-0.074083 0.0079-0.11906 0-0.36777-0.18521-0.60325-0.51329-0.60325-0.29369 0-0.57679 0.25665-0.57679 0.67733zm0.21167-0.097896c0.02646-0.25929 0.1905-0.40746 0.37042-0.40746 0.20108 0 0.3175 0.14552 0.3175 0.40746z"/>
   <path d="m-33.777 1.3229c0 0.42598 0.26194 0.67204 0.60325 0.67204 0.15346 0 0.30162-0.0635 0.41804-0.16669l-0.0979-0.14287c-0.07673 0.068792-0.17992 0.12965-0.30162 0.12965-0.23548 0-0.39688-0.19844-0.39688-0.49212 0-0.29633 0.16933-0.49742 0.40217-0.49742 0.10319 0 0.18256 0.047625 0.25929 0.11377l0.10848-0.14023c-0.08731-0.082021-0.20638-0.15346-0.37571-0.15346-0.33073 0-0.61912 0.24606-0.61912 0.67733z"/>
   <path d="m-32.366 0.41275c0.08467 0 0.15081-0.058208 0.15081-0.14023 0-0.084667-0.06615-0.14023-0.15081-0.14023-0.08467 0-0.15081 0.055562-0.15081 0.14023 0 0.082021 0.06615 0.14023 0.15081 0.14023zm-0.11112 1.5505h0.21696v-1.2859h-0.21696z"/>
   <path d="m-31.969 1.8177c0.12171 0.10054 0.29633 0.17727 0.4789 0.17727 0.30427 0 0.47096-0.17462 0.47096-0.38365 0-0.24342-0.20638-0.32015-0.39158-0.38894-0.14552-0.055562-0.28575-0.10319-0.28575-0.22225 0-0.097896 0.07408-0.18521 0.23548-0.18521 0.11377 0 0.20638 0.047625 0.29369 0.11377l0.10319-0.13758c-0.0979-0.079375-0.23812-0.14552-0.39952-0.14552-0.27781 0-0.44185 0.15875-0.44185 0.36512 0 0.21696 0.20108 0.30427 0.38364 0.37042 0.14023 0.052917 0.29369 0.11112 0.29369 0.24342 0 0.11112-0.08467 0.20108-0.254 0.20108-0.15346 0-0.26723-0.0635-0.37835-0.15346z"/>
   <path d="m-30.604 0.41275c0.08467 0 0.15081-0.058208 0.15081-0.14023 0-0.084667-0.06615-0.14023-0.15081-0.14023-0.08467 0-0.15081 0.055562-0.15081 0.14023 0 0.082021 0.06615 0.14023 0.15081 0.14023zm-0.11112 1.5505h0.21696v-1.2859h-0.21696z"/>
   <path d="m-30.159 1.3229c0 0.42598 0.28046 0.67204 0.59531 0.67204s0.59531-0.24606 0.59531-0.67204c0-0.43127-0.28046-0.67733-0.59531-0.67733s-0.59531 0.24606-0.59531 0.67733zm0.2249 0c0-0.29633 0.15081-0.49742 0.37042-0.49742 0.22225 0 0.37042 0.20108 0.37042 0.49742 0 0.29369-0.14817 0.49212-0.37042 0.49212-0.2196 0-0.37042-0.19844-0.37042-0.49212z"/>
   <path d="m-28.627 1.9632h0.21696v-0.93133c0.12964-0.12965 0.2196-0.19844 0.3519-0.19844 0.16933 0 0.24342 0.10319 0.24342 0.34396v0.78581h0.21696v-0.81492c0-0.32808-0.12171-0.50271-0.39158-0.50271-0.17727 0-0.30956 0.09525-0.43127 0.21696h-0.0079l-0.01852-0.18521h-0.17992z"/>
  </g>
  <g aria-label="10^-12">
   <path d="m14.149 70.432h0.9525v-0.17992h-0.34925v-1.5081h-0.16669c-0.0926 0.05556-0.20373 0.09789-0.35719 0.12435v0.14023h0.30692v1.2435h-0.38629z"/>
   <path d="m15.912 70.464c0.33602 0 0.53975-0.31485 0.53975-0.88106 0-0.56621-0.20373-0.87048-0.53975-0.87048-0.33867 0-0.5424 0.30427-0.5424 0.87048 0 0.56621 0.20373 0.88106 0.5424 0.88106zm0-0.17462c-0.19844 0-0.33073-0.21167-0.33073-0.70644s0.13229-0.69585 0.33073-0.69585c0.19579 0 0.32808 0.20108 0.32808 0.69585s-0.13229 0.70644-0.32808 0.70644z"/>
   <path d="m16.724 69.681h0.1905l0.17198-0.46567 0.13229-0.3519h0.01058l0.12964 0.3519 0.17198 0.46567h0.1905l-0.40217-1.0213h-0.19315z"/>
   <path d="m17.987 69.853h0.60854v-0.16669h-0.60854z"/>
   <path d="m18.909 70.432h0.9525v-0.17992h-0.34925v-1.5081h-0.16669c-0.0926 0.05556-0.20373 0.09789-0.35719 0.12435v0.14023h0.30692v1.2435h-0.38629z"/>
   <path d="m20.118 70.432h1.0901v-0.18785h-0.48948c-0.08731 0-0.1905 0.0079-0.2831 0.01587 0.39952-0.41804 0.68792-0.7329 0.68792-1.0504 0-0.29898-0.19315-0.49742-0.50535-0.49742-0.2196 0-0.37042 0.10319-0.51064 0.25664l0.12435 0.12435c0.0979-0.11377 0.2196-0.20373 0.35983-0.20373 0.21431 0 0.32014 0.13758 0.32014 0.33073 0 0.27252-0.28575 0.57679-0.79375 1.0821z"/>
  </g>
  <g aria-label="10^-8">
   <path d="m24.997 70.432h0.9525v-0.17992h-0.34925v-1.5081h-0.16669c-0.0926 0.05556-0.20373 0.09789-0.35719 0.12435v0.14023h0.30692v1.2435h-0.38629z"/>
   <path d="m26.76 70.464c0.33602 0 0.53975-0.31485 0.53975-0.88106 0-0.56621-0.20373-0.87048-0.53975-0.87048-0.33867 0-0.5424 0.30427-0.5424 0.87048 0 0.56621 0.20373 0.88106 0.5424 0.88106zm0-0.17462c-0.19844 0-0.33073-0.21167-0.33073-0.70644s0.13229-0.69585 0.33073-0.69585c0.19579 0 0.32808 0.20108 0.32808 0.69585s-0.13229 0.70644-0.32808 0.70644z"/>
   <path d="m27.572 69.681h0.1905l0.17198-0.46567 0.13229-0.3519h0.01058l0.12965 0.3519 0.17198 0.46567h0.1905l-0.40217-1.0213h-0.19314z"/>
   <path d="m28.834 69.853h0.60854v-0.16669h-0.60854z"/>
   <path d="m29.852 69.98c0-0.15346 0.10054-0.27781 0.23548-0.36777 0.24342 0.0979 0.45773 0.17727 0.45773 0.39423 0 0.17462-0.13494 0.29633-0.33073 0.29633-0.20638 0-0.36248-0.13494-0.36248-0.32279zm0.47625-0.46831c-0.20373-0.07937-0.38894-0.16404-0.38894-0.36512 0-0.16404 0.11642-0.27252 0.27252-0.27252 0.18521 0 0.29369 0.13229 0.29369 0.29898 0 0.12435-0.0635 0.23812-0.17727 0.33867zm-0.67204 0.48948c0 0.26723 0.23548 0.46302 0.55298 0.46302 0.32808 0 0.54504-0.19844 0.54504-0.44979 0-0.22754-0.14287-0.3466-0.29369-0.43392v-0.01058c0.10319-0.07937 0.23283-0.23019 0.23283-0.40746 0-0.26194-0.18256-0.44979-0.47625-0.44979-0.27252 0-0.4789 0.17462-0.4789 0.43392 0 0.17727 0.11112 0.30162 0.23548 0.38894v0.01058c-0.15875 0.08467-0.3175 0.23548-0.3175 0.45508z"/>
  </g>
  <g aria-label="10^-4">
   <path d="m35.581 70.432h0.9525v-0.17992h-0.34925v-1.5081h-0.16669c-0.0926 0.05556-0.20373 0.09789-0.35719 0.12435v0.14023h0.30692v1.2435h-0.38629z"/>
   <path d="m37.343 70.464c0.33602 0 0.53975-0.31485 0.53975-0.88106 0-0.56621-0.20373-0.87048-0.53975-0.87048-0.33867 0-0.5424 0.30427-0.5424 0.87048 0 0.56621 0.20373 0.88106 0.5424 0.88106zm0-0.17462c-0.19844 0-0.33073-0.21167-0.33073-0.70644s0.13229-0.69585 0.33073-0.69585c0.19579 0 0.32808 0.20108 0.32808 0.69585s-0.13229 0.70644-0.32808 0.70644z"/>
   <path d="m38.155 69.681h0.1905l0.17198-0.46567 0.13229-0.3519h0.01058l0.12965 0.3519 0.17198 0.46567h0.1905l-0.40217-1.0213h-0.19315z"/>
   <path d="m39.418 69.853h0.60854v-0.16669h-0.60854z"/>
   <path d="m40.406 69.792 0.39423-0.57679c0.04762-0.08202 0.09525-0.1561 0.13758-0.23812h0.01058c-0.0053 0.08996-0.01323 0.23548-0.01323 0.32544v0.48948zm0.96573 0h-0.23019v-1.0477h-0.24342l-0.72231 1.0795v0.14288h0.75935v0.46567h0.20638v-0.46567h0.23019z"/>
  </g>
  <g stroke="#cf2f25" aria-label="1">
   <path d="m48.545 70.432h0.9525v-0.17992h-0.34925v-1.5081h-0.16669c-0.0926 0.05556-0.20373 0.09789-0.35719 0.12435v0.14023h0.30692v1.2435h-0.38629z" fill="#e8eaec" stroke="none"/>
  </g>
  <g aria-label="10^4">
   <path d="m57.276 70.432h0.9525v-0.17992h-0.34925v-1.5081h-0.16669c-0.0926 0.05556-0.20373 0.09789-0.35719 0.12435v0.14023h0.30692v1.2435h-0.38629z"/>
   <path d="m59.039 70.464c0.33602 0 0.53975-0.31485 0.53975-0.88106 0-0.56621-0.20373-0.87048-0.53975-0.87048-0.33867 0-0.5424 0.30427-0.5424 0.87048 0 0.56621 0.20373 0.88106 0.5424 0.88106zm0-0.17462c-0.19844 0-0.33073-0.21167-0.33073-0.70644s0.13229-0.69585 0.33073-0.69585c0.19579 0 0.32808 0.20108 0.32808 0.69585s-0.13229 0.70644-0.32808 0.70644z"/>
   <path d="m59.851 69.681h0.1905l0.17198-0.46567 0.13229-0.3519h0.01058l0.12965 0.3519 0.17198 0.46567h0.1905l-0.40217-1.0213h-0.19315z"/>
   <path d="m61.28 69.792 0.39423-0.57679c0.04762-0.08202 0.09525-0.1561 0.13758-0.23812h0.01058c-0.0053 0.08996-0.01323 0.23548-0.01323 0.32544v0.48948zm0.96573 0h-0.23019v-1.0477h-0.24342l-0.72231 1.0795v0.14288h0.75935v0.46567h0.20638v-0.46567h0.23019z"/>
  </g>
  <g aria-label="10^8">
   <path d="m67.86 70.432h0.9525v-0.17992h-0.34925v-1.5081h-0.16669c-0.0926 0.05556-0.20373 0.09789-0.35719 0.12435v0.14023h0.30692v1.2435h-0.38629z"/>
   <path d="m69.622 70.464c0.33602 0 0.53975-0.31485 0.53975-0.88106 0-0.56621-0.20373-0.87048-0.53975-0.87048-0.33867 0-0.5424 0.30427-0.5424 0.87048 0 0.56621 0.20373 0.88106 0.5424 0.88106zm0-0.17462c-0.19844 0-0.33073-0.21167-0.33073-0.70644s0.13229-0.69585 0.33073-0.69585c0.19579 0 0.32808 0.20108 0.32808 0.69585s-0.13229 0.70644-0.32808 0.70644z"/>
   <path d="m70.435 69.681h0.1905l0.17198-0.46567 0.13229-0.3519h0.01058l0.12964 0.3519 0.17198 0.46567h0.1905l-0.40217-1.0213h-0.19315z"/>
   <path d="m71.893 69.98c0-0.15346 0.10054-0.27781 0.23548-0.36777 0.24342 0.0979 0.45773 0.17727 0.45773 0.39423 0 0.17462-0.13494 0.29633-0.33073 0.29633-0.20638 0-0.36248-0.13494-0.36248-0.32279zm0.47625-0.46831c-0.20373-0.07937-0.38894-0.16404-0.38894-0.36512 0-0.16404 0.11642-0.27252 0.27252-0.27252 0.18521 0 0.29369 0.13229 0.29369 0.29898 0 0.12435-0.0635 0.23812-0.17727 0.33867zm-0.67204 0.48948c0 0.26723 0.23548 0.46302 0.55298 0.46302 0.32808 0 0.54504-0.19844 0.54504-0.44979 0-0.22754-0.14288-0.3466-0.29369-0.43392v-0.01058c0.10319-0.07937 0.23283-0.23019 0.23283-0.40746 0-0.26194-0.18256-0.44979-0.47625-0.44979-0.27252 0-0.4789 0.17462-0.4789 0.43392 0 0.17727 0.11112 0.30162 0.23548 0.38894v0.01058c-0.15875 0.08467-0.3175 0.23548-0.3175 0.45508z"/>
  </g>
  <g aria-label="10^12">
   <path d="m77.914 70.432h0.9525v-0.17992h-0.34925v-1.5081h-0.16669c-0.0926 0.05556-0.20373 0.09789-0.35719 0.12435v0.14023h0.30692v1.2435h-0.38629z"/>
   <path d="m79.676 70.464c0.33602 0 0.53975-0.31485 0.53975-0.88106 0-0.56621-0.20373-0.87048-0.53975-0.87048-0.33867 0-0.5424 0.30427-0.5424 0.87048 0 0.56621 0.20373 0.88106 0.5424 0.88106zm0-0.17462c-0.19844 0-0.33073-0.21167-0.33073-0.70644s0.13229-0.69585 0.33073-0.69585c0.19579 0 0.32808 0.20108 0.32808 0.69585s-0.13229 0.70644-0.32808 0.70644z"/>
   <path d="m80.489 69.681h0.1905l0.17198-0.46567 0.13229-0.3519h0.01058l0.12965 0.3519 0.17198 0.46567h0.1905l-0.40217-1.0213h-0.19314z"/>
   <path d="m81.852 70.432h0.9525v-0.17992h-0.34925v-1.5081h-0.16669c-0.0926 0.05556-0.20373 0.09789-0.35719 0.12435v0.14023h0.30692v1.2435h-0.38629z"/>
   <path d="m83.061 70.432h1.0901v-0.18785h-0.48948c-0.08731 0-0.1905 0.0079-0.2831 0.01587 0.39952-0.41804 0.68792-0.7329 0.68792-1.0504 0-0.29898-0.19315-0.49742-0.50535-0.49742-0.2196 0-0.37042 0.10319-0.51064 0.25664l0.12435 0.12435c0.0979-0.11377 0.2196-0.20373 0.35983-0.20373 0.21431 0 0.32014 0.13758 0.32014 0.33073 0 0.27252-0.28575 0.57679-0.79375 1.0821z"/>
  </g>
  <g aria-label="Value">
   <path d="m44.121 74.665h0.25665l0.55033-1.7357h-0.2249l-0.27781 0.93662c-0.05821 0.20638-0.10319 0.37042-0.16669 0.57414h-0.01058c-0.0635-0.20373-0.10583-0.36777-0.16669-0.57414l-0.28046-0.93662h-0.23283z"/>
   <path d="m45.019 74.332c0 0.23019 0.1614 0.36512 0.37835 0.36512 0.15875 0 0.30162-0.08467 0.42598-0.18521h0.0053l0.01852 0.15346h0.17992v-0.78846c0-0.32014-0.13229-0.52917-0.44714-0.52917-0.20638 0-0.38629 0.08996-0.50535 0.16669l0.08731 0.15081c0.10054-0.06879 0.23283-0.13758 0.38364-0.13758 0.20902 0 0.26458 0.15875 0.26458 0.32279-0.54769 0.06085-0.7911 0.20108-0.7911 0.48154zm0.21431-0.01588c0-0.16404 0.14552-0.26988 0.57679-0.32279v0.35719c-0.12435 0.11112-0.22754 0.17198-0.3519 0.17198-0.127 0-0.2249-0.06085-0.2249-0.20638z"/>
   <path d="m46.436 74.406c0 0.18785 0.06614 0.29104 0.23019 0.29104 0.05821 0 0.09525-0.0079 0.12435-0.02117l-0.0291-0.16404c-0.02381 0.0053-0.0344 0.0053-0.04762 0.0053-0.03175 0-0.06085-0.02646-0.06085-0.09525v-1.6404h-0.21696z"/>
   <path d="m47.095 74.194c0 0.32808 0.12171 0.50271 0.39423 0.50271 0.17727 0 0.30427-0.0926 0.42333-0.23283h0.0079l0.01852 0.20108h0.17992v-1.2859h-0.21696v0.91281c-0.12171 0.15081-0.21431 0.21696-0.3466 0.21696-0.16933 0-0.24077-0.10319-0.24077-0.34396v-0.78581h-0.2196z"/>
   <path d="m48.46 74.025c0 0.42069 0.27252 0.67204 0.61648 0.67204 0.17462 0 0.31221-0.06085 0.42333-0.13229l-0.07673-0.14288c-0.09525 0.06085-0.19844 0.10054-0.32015 0.10054-0.24606 0-0.41275-0.17462-0.42862-0.45244h0.86783c0.0053-0.03175 0.0079-0.07408 0.0079-0.11906 0-0.36777-0.18521-0.60325-0.51329-0.60325-0.29369 0-0.57679 0.25665-0.57679 0.67733zm0.21167-0.0979c0.02646-0.25929 0.1905-0.40746 0.37042-0.40746 0.20108 0 0.3175 0.14552 0.3175 0.40746z"/>
  </g>
 </g>
 <g fill="#ff867f" stroke-linecap="round" stroke-width=".26458" aria-label="float 32b">
  <path d="m83.311 3.2068c-0.05821-0.023813-0.13494-0.042333-0.21431-0.042333-0.25665 0-0.37571 0.16404-0.37571 0.42598v0.20373l-0.17462 0.013229v0.16404h0.17462v1.1086h0.21696v-1.1086h0.27252v-0.17727h-0.27252v-0.20373c0-0.16404 0.05821-0.24871 0.17992-0.24871 0.04763 0 0.0979 0.010583 0.14552 0.03175z"/>
  <path d="m83.46 4.8207c0 0.18785 0.06614 0.29104 0.23019 0.29104 0.05821 0 0.09525-0.00794 0.12435-0.021167l-0.0291-0.16404c-0.02381 0.00529-0.0344 0.00529-0.04762 0.00529-0.03175 0-0.06085-0.026458-0.06085-0.09525v-1.6404h-0.21696z"/>
  <path d="m84.041 4.4397c0 0.42598 0.28046 0.67204 0.59531 0.67204s0.59531-0.24606 0.59531-0.67204c0-0.43127-0.28046-0.67733-0.59531-0.67733s-0.59531 0.24606-0.59531 0.67733zm0.2249 0c0-0.29633 0.15081-0.49742 0.37042-0.49742 0.22225 0 0.37042 0.20108 0.37042 0.49742 0 0.29369-0.14817 0.49212-0.37042 0.49212-0.2196 0-0.37042-0.19844-0.37042-0.49212z"/>
  <path d="m85.473 4.7466c0 0.23019 0.1614 0.36512 0.37835 0.36512 0.15875 0 0.30162-0.084667 0.42598-0.18521h0.0053l0.01852 0.15346h0.17992v-0.78846c0-0.32015-0.13229-0.52917-0.44714-0.52917-0.20638 0-0.38629 0.089958-0.50535 0.16669l0.08731 0.15081c0.10054-0.068791 0.23283-0.13758 0.38365-0.13758 0.20902 0 0.26458 0.15875 0.26458 0.32279-0.54769 0.060854-0.7911 0.20108-0.7911 0.48154zm0.21431-0.015875c0-0.16404 0.14552-0.26987 0.57679-0.32279v0.35719c-0.12435 0.11112-0.22754 0.17198-0.3519 0.17198-0.127 0-0.2249-0.060854-0.2249-0.20637z"/>
  <path d="m86.928 4.6831c0 0.254 0.0926 0.42862 0.36777 0.42862 0.07937 0 0.16669-0.023813 0.23812-0.047625l-0.04233-0.16404c-0.04233 0.015875-0.10054 0.034396-0.14552 0.034396-0.14817 0-0.19844-0.089958-0.19844-0.24871v-0.71437h0.3466v-0.17727h-0.34661v-0.35983h-0.18256l-0.02646 0.35983-0.20108 0.013229v0.16404h0.1905z"/>
  <path d="m88.169 4.8736c0.11377 0.12435 0.28575 0.23812 0.55562 0.23812 0.30956 0 0.55562-0.18256 0.55562-0.48154 0-0.23283-0.1614-0.381-0.36512-0.42862v-0.010583c0.18256-0.068792 0.30692-0.19844 0.30692-0.40217 0-0.27252-0.21167-0.42862-0.50535-0.42862-0.19844 0-0.35454 0.089958-0.48419 0.21167l0.11642 0.13758c0.10054-0.10054 0.2196-0.17198 0.35983-0.17198 0.17992 0 0.29104 0.10319 0.29104 0.26723 0 0.17727-0.11906 0.31485-0.4789 0.31485v0.16669c0.40217 0 0.53975 0.13494 0.53975 0.33602 0 0.18785-0.14552 0.30956-0.34925 0.30956-0.19844 0-0.33073-0.09525-0.43127-0.20108z"/>
  <path d="m89.519 5.08h1.0901v-0.18785h-0.48948c-0.08731 0-0.1905 0.00794-0.2831 0.015875 0.39952-0.41804 0.68792-0.73289 0.68792-1.0504 0-0.29898-0.19314-0.49742-0.50535-0.49742-0.2196 0-0.37042 0.10319-0.51064 0.25665l0.12435 0.12435c0.09789-0.11377 0.2196-0.20373 0.35983-0.20373 0.21431 0 0.32015 0.13758 0.32015 0.33073 0 0.27252-0.28575 0.57679-0.79375 1.0821z"/>
  <path d="m90.942 5.08h0.17462l0.01852-0.127h0.0079c0.11377 0.10054 0.24871 0.15875 0.36777 0.15875 0.29369 0 0.55562-0.25665 0.55562-0.69585 0-0.39687-0.17727-0.65352-0.51064-0.65352-0.14288 0-0.28575 0.076729-0.40217 0.17992l0.0053-0.23283v-0.51329h-0.21693zm0.21696-0.28575v-0.67469c0.12171-0.11377 0.23548-0.17462 0.34396-0.17462 0.24342 0 0.33867 0.1905 0.33867 0.4736 0 0.3175-0.1561 0.51065-0.36777 0.51065-0.08467 0-0.20108-0.037042-0.31485-0.13494z"/>
 </g>
 <g fill="#e9e56f" stroke-linecap="round" stroke-width=".26458" aria-label="double 64b">
  <path d="m82.592 20.315c0 0.42862 0.20902 0.67204 0.53181 0.67204 0.15081 0 0.2884-0.08467 0.38894-0.18256h0.0079l0.01852 0.15081h0.17992v-1.8838h-0.2196v0.49477l0.01058 0.2196c-0.11377-0.0926-0.21167-0.14817-0.35983-0.14817-0.29369 0-0.55827 0.25929-0.55827 0.67733zm0.2249-0.0026c0-0.29369 0.16404-0.49212 0.37042-0.49212 0.10583 0 0.20373 0.03704 0.31221 0.13494v0.67204c-0.10583 0.11906-0.20902 0.17727-0.32808 0.17727-0.2249 0-0.35454-0.18521-0.35454-0.49212z"/>
  <path d="m84.057 20.315c0 0.42598 0.28046 0.67204 0.59531 0.67204s0.59531-0.24606 0.59531-0.67204c0-0.43127-0.28046-0.67733-0.59531-0.67733s-0.59531 0.24606-0.59531 0.67733zm0.2249 0c0-0.29633 0.15081-0.49742 0.37042-0.49742 0.22225 0 0.37042 0.20108 0.37042 0.49742 0 0.29369-0.14817 0.49212-0.37042 0.49212-0.2196 0-0.37042-0.19844-0.37042-0.49212z"/>
  <path d="m85.57 20.484c0 0.32808 0.12171 0.50271 0.39423 0.50271 0.17727 0 0.30427-0.0926 0.42333-0.23283h0.0079l0.01852 0.20108h0.17992v-1.2859h-0.21696v0.91281c-0.12171 0.15081-0.21431 0.21696-0.3466 0.21696-0.16933 0-0.24077-0.10319-0.24077-0.34396v-0.78581h-0.2196z"/>
  <path d="m87.03 20.955h0.17462l0.01852-0.127h0.0079c0.11377 0.10054 0.24871 0.15875 0.36777 0.15875 0.29369 0 0.55562-0.25664 0.55562-0.69585 0-0.39688-0.17727-0.65352-0.51065-0.65352-0.14287 0-0.28575 0.07673-0.40217 0.17992l0.0053-0.23283v-0.51329h-0.21696zm0.21696-0.28575v-0.67469c0.12171-0.11377 0.23548-0.17462 0.34396-0.17462 0.24342 0 0.33867 0.1905 0.33867 0.4736 0 0.3175-0.1561 0.51064-0.36777 0.51064-0.08467 0-0.20108-0.03704-0.31485-0.13494z"/>
  <path d="m88.498 20.696c0 0.18785 0.06615 0.29104 0.23019 0.29104 0.05821 0 0.09525-0.0079 0.12435-0.02117l-0.0291-0.16404c-0.02381 0.0053-0.03439 0.0053-0.04762 0.0053-0.03175 0-0.06085-0.02646-0.06085-0.09525v-1.6404h-0.21696z"/>
  <path d="m89.08 20.315c0 0.42069 0.27252 0.67204 0.61648 0.67204 0.17462 0 0.31221-0.06085 0.42333-0.13229l-0.07673-0.14288c-0.09525 0.06085-0.19844 0.10054-0.32014 0.10054-0.24606 0-0.41275-0.17462-0.42862-0.45244h0.86783c0.0053-0.03175 0.0079-0.07408 0.0079-0.11906 0-0.36777-0.18521-0.60325-0.51329-0.60325-0.29369 0-0.57679 0.25664-0.57679 0.67733zm0.21167-0.0979c0.02646-0.25929 0.1905-0.40746 0.37042-0.40746 0.20108 0 0.3175 0.14552 0.3175 0.40746z"/>
  <path d="m91.512 20.815c-0.21431 0-0.34396-0.17727-0.37042-0.50535 0.11377-0.15875 0.24606-0.22225 0.3519-0.22225 0.20902 0 0.31221 0.13758 0.31221 0.35719 0 0.22225-0.127 0.37042-0.29369 0.37042zm0.46831-1.3996c-0.09525-0.10319-0.2249-0.17992-0.40746-0.17992-0.33602 0-0.64294 0.26194-0.64294 0.93927 0 0.5424 0.25135 0.81227 0.58208 0.81227 0.27252 0 0.50006-0.2196 0.50006-0.5424 0-0.3466-0.1905-0.52123-0.48154-0.52123-0.13758 0-0.2884 0.08202-0.39423 0.21167 0.01058-0.53446 0.20902-0.71702 0.4445-0.71702 0.10583 0 0.20902 0.05027 0.27781 0.13229z"/>
  <path d="m92.391 20.315 0.39423-0.57679c0.04762-0.08202 0.09525-0.1561 0.13758-0.23812h0.01058c-0.0053 0.08996-0.01323 0.23548-0.01323 0.32544v0.48948zm0.96573 0h-0.23019v-1.0477h-0.24342l-0.72231 1.0795v0.14288h0.75935v0.46567h0.20638v-0.46567h0.23019z"/>
  <path d="m93.645 20.955h0.17462l0.01852-0.127h0.0079c0.11377 0.10054 0.24871 0.15875 0.36777 0.15875 0.29369 0 0.55562-0.25664 0.55562-0.69585 0-0.39688-0.17727-0.65352-0.51064-0.65352-0.14288 0-0.28575 0.07673-0.40217 0.17992l0.0053-0.23283v-0.51329h-0.21696zm0.21696-0.28575v-0.67469c0.12171-0.11377 0.23548-0.17462 0.34396-0.17462 0.24342 0 0.33867 0.1905 0.33867 0.4736 0 0.3175-0.1561 0.51064-0.36777 0.51064-0.08467 0-0.20108-0.03704-0.31485-0.13494z"/>
 </g>
 <g fill="#2f3744" stroke="#535e70" stroke-dashoffset="1.2" stroke-linecap="round" stroke-miterlimit="40">
  <g stroke-width=".13229">
   <path d="m22.64 1.2832v65.881"/>
   <path d="m27.932 1.2832v65.881"/>
   <path d="m33.223 1.2832v65.881"/>
   <path d="m38.515 1.2832v65.881"/>
   <path d="m43.807 1.2832v65.881"/>
   <path d="m49.098 1.2832v65.881"/>
   <path d="m54.39 1.2832v65.881"/>
   <path d="m59.682 1.2832v65.881"/>
   <path d="m64.973 1.2832v65.881"/>
   <path d="m70.265 1.2832v65.881"/>
   <path d="m75.557 1.2832v65.881"/>
   <path d="m80.848 1.2832v65.881"/>
   <path d="m14.306 59.359h66.41"/>
   <path d="m14.306 54.068h66.41"/>
   <path d="m14.306 48.776h66.41"/>
   <path d="m14.306 43.484h66.41"/>
   <path d="m14.306 38.193h66.41"/>
   <path d="m14.306 32.901h66.41"/>
   <path d="m14.306 27.609h66.41"/>
   <path d="m14.306 22.318h66.41"/>
   <path d="m14.306 17.026h66.41"/>
   <path d="m14.306 11.734h66.41"/>
  </g>
  <g stroke-width=".066146">
   <path d="m19.994 1.2832v63.235"/>
   <path d="m25.286 1.2832v63.235"/>
   <path d="m30.578 1.2832v63.235"/>
   <path d="m35.869 1.2832v63.235"/>
   <path d="m41.161 1.2832v63.235"/>
   <path d="m46.453 1.2832v63.235"/>
   <path d="m51.744 1.2832v63.235"/>
   <path d="m57.036 1.2832v63.235"/>
   <path d="m62.328 1.2832v63.235"/>
   <path d="m67.619 1.2832v63.235"/>
   <path d="m72.911 1.2832v63.235"/>
   <path d="m78.203 1.2832v63.235"/>
   <path d="m17.216 14.38h63.5"/>
   <path d="m17.216 19.672h63.5"/>
   <path d="m17.216 24.963h63.5"/>
   <path d="m17.216 30.255h63.5"/>
   <path d="m17.216 35.547h63.5"/>
   <path d="m17.216 40.838h63.5"/>
   <path d="m17.216 46.13h63.5"/>
   <path d="m17.216 51.422h63.5"/>
   <path d="m17.216 56.713h63.5"/>
   <path d="m17.216 62.005h63.5"/>
  </g>
  <g stroke-width=".033073">
   <path d="m21.582 1.2832v63.235"/>
   <path d="m20.523 1.2832v63.235"/>
   <path d="m21.053 1.2832v63.235"/>
   <path d="m22.111 1.2832v63.235"/>
   <path d="m18.936 1.2832v63.235"/>
   <path d="m17.878 1.2832v63.235"/>
   <path d="m18.407 1.2832v63.235"/>
   <path d="m19.465 1.2832v63.235"/>
   <path d="m24.228 1.2832v63.235"/>
   <path d="m23.169 1.2832v63.235"/>
   <path d="m23.698 1.2832v63.235"/>
   <path d="m24.757 1.2832v63.235"/>
   <path d="m26.873 1.2832v63.235"/>
   <path d="m25.815 1.2832v63.235"/>
   <path d="m26.344 1.2832v63.235"/>
   <path d="m27.403 1.2832v63.235"/>
   <path d="m29.519 1.2832v63.235"/>
   <path d="m28.461 1.2832v63.235"/>
   <path d="m28.99 1.2832v63.235"/>
   <path d="m30.048 1.2832v63.235"/>
   <path d="m32.165 1.2832v63.235"/>
   <path d="m31.107 1.2832v63.235"/>
   <path d="m31.636 1.2832v63.235"/>
   <path d="m32.694 1.2832v63.235"/>
   <path d="m34.811 1.2832v63.235"/>
   <path d="m33.753 1.2832v63.235"/>
   <path d="m34.282 1.2832v63.235"/>
   <path d="m35.34 1.2832v63.235"/>
   <path d="m37.457 1.2832v63.235"/>
   <path d="m36.398 1.2832v63.235"/>
   <path d="m36.928 1.2832v63.235"/>
   <path d="m37.986 1.2832v63.235"/>
   <path d="m40.103 1.2832v63.235"/>
   <path d="m39.044 1.2832v63.235"/>
   <path d="m39.573 1.2832v63.235"/>
   <path d="m40.632 1.2832v63.235"/>
   <path d="m42.748 1.2832v63.235"/>
   <path d="m41.69 1.2832v63.235"/>
   <path d="m42.219 1.2832v63.235"/>
   <path d="m43.278 1.2832v63.235"/>
   <path d="m45.394 1.2832v63.235"/>
   <path d="m44.336 1.2832v63.235"/>
   <path d="m44.865 1.2832v63.235"/>
   <path d="m45.923 1.2832v63.235"/>
   <path d="m48.04 1.2832v63.235"/>
   <path d="m46.982 1.2832v63.235"/>
   <path d="m47.511 1.2832v63.235"/>
   <path d="m48.569 1.2832v63.235"/>
   <path d="m50.686 1.2832v63.235"/>
   <path d="m49.628 1.2832v63.235"/>
   <path d="m50.157 1.2832v63.235"/>
   <path d="m51.215 1.2832v63.235"/>
   <path d="m53.332 1.2832v63.235"/>
   <path d="m52.273 1.2832v63.235"/>
   <path d="m52.803 1.2832v63.235"/>
   <path d="m53.861 1.2832v63.235"/>
   <path d="m55.978 1.2832v63.235"/>
   <path d="m54.919 1.2832v63.235"/>
   <path d="m55.448 1.2832v63.235"/>
   <path d="m56.507 1.2832v63.235"/>
   <path d="m58.623 1.2832v63.235"/>
   <path d="m57.565 1.2832v63.235"/>
   <path d="m58.094 1.2832v63.235"/>
   <path d="m59.153 1.2832v63.235"/>
   <path d="m61.269 1.2832v63.235"/>
   <path d="m60.211 1.2832v63.235"/>
   <path d="m60.74 1.2832v63.235"/>
   <path d="m61.798 1.2832v63.235"/>
   <path d="m63.915 1.2832v63.235"/>
   <path d="m62.857 1.2832v63.235"/>
   <path d="m63.386 1.2832v63.235"/>
   <path d="m64.444 1.2832v63.235"/>
   <path d="m66.561 1.2832v63.235"/>
   <path d="m65.503 1.2832v63.235"/>
   <path d="m66.032 1.2832v63.235"/>
   <path d="m67.09 1.2832v63.235"/>
   <path d="m69.207 1.2832v63.235"/>
   <path d="m68.148 1.2832v63.235"/>
   <path d="m68.678 1.2832v63.235"/>
   <path d="m69.736 1.2832v63.235"/>
   <path d="m71.853 1.2832v63.235"/>
   <path d="m70.794 1.2832v63.235"/>
   <path d="m71.323 1.2832v63.235"/>
   <path d="m72.382 1.2832v63.235"/>
   <path d="m74.498 1.2832v63.235"/>
   <path d="m73.44 1.2832v63.235"/>
   <path d="m73.969 1.2832v63.235"/>
   <path d="m75.028 1.2832v63.235"/>
   <path d="m77.144 1.2832v63.235"/>
   <path d="m76.086 1.2832v63.235"/>
   <path d="m76.615 1.2832v63.235"/>
   <path d="m77.673 1.2832v63.235"/>
   <path d="m79.79 1.2832v63.235"/>
   <path d="m78.732 1.2832v63.235"/>
   <path d="m79.261 1.2832v63.235"/>
   <path d="m80.319 1.2832v63.235"/>
   <path d="m17.216 12.263h63.5"/>
   <path d="m17.216 12.793h63.5"/>
   <path d="m17.216 13.322h63.5"/>
   <path d="m17.216 13.851h63.5"/>
   <path d="m17.216 14.909h63.5"/>
   <path d="m17.216 15.438h63.5"/>
   <path d="m17.216 15.968h63.5"/>
   <path d="m17.216 16.497h63.5"/>
   <path d="m17.216 17.555h63.5"/>
   <path d="m17.216 18.084h63.5"/>
   <path d="m17.216 18.613h63.5"/>
   <path d="m17.216 19.143h63.5"/>
   <path d="m17.216 20.201h63.5"/>
   <path d="m17.216 20.73h63.5"/>
   <path d="m17.216 21.259h63.5"/>
   <path d="m17.216 21.788h63.5"/>
   <path d="m17.216 22.847h63.5"/>
   <path d="m17.216 23.376h63.5"/>
   <path d="m17.216 23.905h63.5"/>
   <path d="m17.216 24.434h63.5"/>
   <path d="m17.216 25.493h63.5"/>
   <path d="m17.216 26.022h63.5"/>
   <path d="m17.216 26.551h63.5"/>
   <path d="m17.216 27.08h63.5"/>
   <path d="m17.216 28.138h63.5"/>
   <path d="m17.216 28.668h63.5"/>
   <path d="m17.216 29.197h63.5"/>
   <path d="m17.216 29.726h63.5"/>
   <path d="m17.216 30.784h63.5"/>
   <path d="m17.216 31.313h63.5"/>
   <path d="m17.216 31.843h63.5"/>
   <path d="m17.216 32.372h63.5"/>
   <path d="m17.216 33.43h63.5"/>
   <path d="m17.216 33.959h63.5"/>
   <path d="m17.216 34.488h63.5"/>
   <path d="m17.216 35.018h63.5"/>
   <path d="m17.216 36.076h63.5"/>
   <path d="m17.216 36.605h63.5"/>
   <path d="m17.216 37.134h63.5"/>
   <path d="m17.216 37.663h63.5"/>
   <path d="m17.216 38.722h63.5"/>
   <path d="m17.216 39.251h63.5"/>
   <path d="m17.216 39.78h63.5"/>
   <path d="m17.216 40.309h63.5"/>
   <path d="m17.216 41.368h63.5"/>
   <path d="m17.216 41.897h63.5"/>
   <path d="m17.216 42.426h63.5"/>
   <path d="m17.216 42.955h63.5"/>
   <path d="m17.216 44.013h63.5"/>
   <path d="m17.216 44.543h63.5"/>
   <path d="m17.216 45.072h63.5"/>
   <path d="m17.216 45.601h63.5"/>
   <path d="m17.216 46.659h63.5"/>
   <path d="m17.216 47.188h63.5"/>
   <path d="m17.216 47.718h63.5"/>
   <path d="m17.216 48.247h63.5"/>
   <path d="m17.216 49.305h63.5"/>
   <path d="m17.216 49.834h63.5"/>
   <path d="m17.216 50.363h63.5"/>
   <path d="m17.216 50.893h63.5"/>
   <path d="m17.216 51.951h63.5"/>
   <path d="m17.216 52.48h63.5"/>
   <path d="m17.216 53.009h63.5"/>
   <path d="m17.216 53.538h63.5"/>
   <path d="m17.216 54.597h63.5"/>
   <path d="m17.216 55.126h63.5"/>
   <path d="m17.216 55.655h63.5"/>
   <path d="m17.216 56.184h63.5"/>
   <path d="m17.216 57.243h63.5"/>
   <path d="m17.216 57.772h63.5"/>
   <path d="m17.216 58.301h63.5"/>
   <path d="m17.216 58.83h63.5"/>
   <path d="m17.216 59.888h63.5"/>
   <path d="m17.216 60.418h63.5"/>
   <path d="m17.216 60.947h63.5"/>
   <path d="m17.216 61.476h63.5"/>
   <path d="m17.216 62.534h63.5"/>
   <path d="m17.216 63.063h63.5"/>
   <path d="m17.216 63.593h63.5"/>
   <path d="m17.216 64.122h63.5"/>
  </g>
 </g>
 <path d="m17.348 1.2832v65.881" fill="#d2d6dc" stroke="#d2d6dc" stroke-dashoffset="1.2" stroke-linecap="round" stroke-miterlimit="40" stroke-width=".52917"/>
 <path d="m14.57 64.651h66.146" fill="#d2d6dc" stroke="#d2d6dc" stroke-dashoffset="1.2" stroke-linecap="round" stroke-miterlimit="40" stroke-width=".52917"/>
 <g fill="#2f3744" stroke-dashoffset="1.2" stroke-linecap="round" stroke-miterlimit="40">
  <g stroke="#535e70">
   <path d="m14.306 6.4426h66.41" stroke-width=".13229"/>
   <path d="m17.216 9.0884h63.5" stroke-width=".066146"/>
   <g stroke-width=".033073">
    <path d="m17.216 6.9717h63.5"/>
    <path d="m17.216 7.5009h63.5"/>
    <path d="m17.216 8.0301h63.5"/>
    <path d="m17.216 8.5592h63.5"/>
    <path d="m17.216 9.6176h63.5"/>
    <path d="m17.216 10.147h63.5"/>
    <path d="m17.216 10.676h63.5"/>
    <path d="m17.216 11.205h63.5"/>
   </g>
   <path d="m14.306 1.1509h66.41" stroke-width=".13229"/>
   <path d="m17.216 3.7967h63.5" stroke-width=".066146"/>
   <g stroke-width=".033073">
    <path d="m17.216 1.6801h63.5"/>
    <path d="m17.216 2.2092h63.5"/>
    <path d="m17.216 2.7384h63.5"/>
    <path d="m17.216 3.2676h63.5"/>
    <path d="m17.216 4.3259h63.5"/>
    <path d="m17.216 4.8551h63.5"/>
    <path d="m17.216 5.3842h63.5"/>
    <path d="m17.216 5.9134h63.5"/>
   </g>
  </g>
  <path d="m14.877 11.664h65.88" stroke="#6f8ce9" stroke-width=".26458"/>
 </g>
 <path d="m17.207 48.648 63.671-46.706" fill="none" stroke="#ff867f" stroke-width=".26458"/>
 <path d="m17.207 65.052 63.671-46.706" fill="none" stroke="#e9e56f" stroke-width=".26458"/>
</svg>
