<?xml version="1.0" encoding="UTF-8"?>
<svg width="14.565mm" height="14.574mm" version="1.1" viewBox="0 0 14.565 14.574" xmlns="http://www.w3.org/2000/svg" xmlns:cc="http://creativecommons.org/ns#" xmlns:dc="http://purl.org/dc/elements/1.1/" xmlns:rdf="http://www.w3.org/1999/02/22-rdf-syntax-ns#">
 <metadata>
  <rdf:RDF>
   <cc:Work rdf:about="">
    <dc:format>image/svg+xml</dc:format>
    <dc:type rdf:resource="http://purl.org/dc/dcmitype/StillImage"/>
    <dc:title/>
   </cc:Work>
  </rdf:RDF>
 </metadata>
 <g fill-opacity=".44706">
  <path d="m2.0789 7.2981v5.1972h5.1972v-5.1972" fill="#fff"/>
  <path d="m2.0789 7.2981 2.0789-2.0789h5.1972l-2.0789 2.0789z" fill="#8b8b8b"/>
  <path d="m7.276 12.495v-5.1972l2.0789-2.0789v5.1972z" fill="#c6c6c6"/>
  <path d="m7.276 7.2981v5.1972h5.1972v-5.1972" fill="#fff"/>
  <path d="m0 9.377v5.1972h5.1972v-5.1972" fill="#fff"/>
  <path d="m7.276 7.2981 2.0789-2.0789h5.1972l-2.0789 2.0789z" fill="#8b8b8b"/>
  <path d="m0 9.377 2.0789-2.0789h5.1972l-2.0789 2.0789z" fill="#8b8b8b"/>
  <path d="m5.1972 14.574v-5.1972l2.0789-2.0789v5.1972z" fill="#c6c6c6"/>
  <path d="m5.1972 9.377v5.1972h5.1972v-5.1972" fill="#fff"/>
  <path d="m5.1972 9.377 2.0789-2.0789h5.1972l-2.0789 2.0789z" fill="#8b8b8b"/>
  <path d="m10.394 14.574v-5.1972l2.0789-2.0789v5.1972z" fill="#c6c6c6"/>
  <path d="m2.0789 2.1009v5.1972h5.1972v-5.1972" fill="#fff"/>
  <path d="m2.0789 2.1009 2.0789-2.0789h5.1972l-2.0789 2.0789z" fill="#8b8b8b"/>
  <path d="m7.276 7.2981v-5.1972l2.0789-2.0789v5.1972z" fill="#c6c6c6"/>
  <path d="m7.276 2.1009v5.1972h5.1972v-5.1972" fill="#fff"/>
  <path d="m0 4.1798v5.1972h5.1972v-5.1972" fill="#fff"/>
  <path d="m7.276 2.1009 2.0789-2.0789h5.1972l-2.0789 2.0789z" fill="#8b8b8b"/>
  <path d="m0 4.1798 2.0789-2.0789h5.1972l-2.0789 2.0789z" fill="#8b8b8b"/>
  <path d="m5.1972 9.377v-5.1972l2.0789-2.0789v5.1972z" fill="#c6c6c6"/>
 </g>
 <path d="m6.2366 5.7389v2.5987h2.5987v-2.5987" fill="#8da4ff" fill-opacity=".61215"/>
 <path d="m6.2366 5.7389 1.0394-1.0394h2.5986l-1.0394 1.0394z" fill="#177dff" fill-opacity=".44706"/>
 <path d="m8.8353 8.3375v-2.5987l1.0394-1.0394v2.5987z" fill="#001cd4" fill-opacity=".44706"/>
 <path d="m8.8353 5.7389v2.5987h2.5985v-2.5987" fill="#8da4ff" fill-opacity=".61215"/>
 <path d="m5.1972 6.7783v2.5987h2.5986v-2.5987" fill="#8da4ff" fill-opacity=".61215"/>
 <g fill-opacity=".44706">
  <path d="m8.8353 5.7389 1.0394-1.0394h2.5986l-1.0394 1.0394z" fill="#177dff"/>
  <path d="m11.434 8.3375v-2.5987l1.0394-1.0394v2.5987z" fill="#001cd4"/>
  <path d="m5.1972 6.7783 1.0394-1.0394h2.5987l-1.0394 1.0394z" fill="#177dff"/>
  <path d="m7.7958 9.377v-2.5987l1.0394-1.0394v2.5987z" fill="#001cd4"/>
 </g>
 <path d="m7.7958 6.7783v2.5987h2.5985v-2.5987" fill="#8da4ff" fill-opacity=".61215"/>
 <path d="m7.7958 6.7783 1.0394-1.0394h2.5985l-1.0394 1.0394z" fill="#177dff" fill-opacity=".44706"/>
 <path d="m10.394 9.377v-2.5987l1.0394-1.0394v2.5987z" fill="#001cd4" fill-opacity=".44706"/>
 <path d="m6.2366 3.1403v2.5985h2.5987v-2.5985" fill="#8da4ff" fill-opacity=".61215"/>
 <path d="m6.2366 3.1403 1.0394-1.0394h2.5986l-1.0394 1.0394z" fill="#177dff" fill-opacity=".44706"/>
 <path d="m8.8353 5.7389v-2.5985l1.0394-1.0394v2.5985z" fill="#001cd4" fill-opacity=".44706"/>
 <path d="m8.8353 3.1403v2.5985h2.5985v-2.5985" fill="#8da4ff" fill-opacity=".61215"/>
 <path d="m5.1972 4.1798v2.5985h2.5986v-2.5985" fill="#8da4ff" fill-opacity=".61215"/>
 <g fill-opacity=".44706">
  <path d="m8.8353 3.1403 1.0394-1.0394h2.5986l-1.0394 1.0394z" fill="#177dff"/>
  <path d="m11.434 5.7389v-2.5985l1.0394-1.0394v2.5985z" fill="#001cd4"/>
  <path d="m5.1972 4.1798 1.0394-1.0394h2.5987l-1.0394 1.0394z" fill="#177dff"/>
  <path d="m7.7958 6.7783v-2.5985l1.0394-1.0394v2.5985z" fill="#001cd4"/>
 </g>
 <path d="m8.3073 4.9642v1.2993h1.2993v-1.2993" fill="#fbff8d" fill-opacity=".61215"/>
 <path d="m8.3073 4.9642 0.51964-0.51967h1.2993l-0.51967 0.51967z" fill="#f7ff17" fill-opacity=".44706"/>
 <path d="m9.6066 6.2635v-1.2993l0.51967-0.51967v1.2993z" fill="#cdd400" fill-opacity=".44706"/>
 <path d="m9.6066 4.9642v1.2993h1.2992v-1.2993" fill="#fbff8d" fill-opacity=".61215"/>
 <path d="m7.7875 5.484v1.2993h1.2993v-1.2993" fill="#fbff8d" fill-opacity=".61215"/>
 <g fill-opacity=".44706">
  <path d="m9.6066 4.9642 0.51967-0.51967h1.2993l-0.51977 0.51967z" fill="#f7ff17"/>
  <path d="m10.906 6.2635v-1.2993l0.51977-0.51967v1.2993z" fill="#cdd400"/>
  <path d="m7.7875 5.484 0.51977-0.51977h1.2993l-0.51975 0.51977z" fill="#f7ff17"/>
  <path d="m9.0868 6.7833v-1.2993l0.51975-0.51977v1.2993z" fill="#cdd400"/>
 </g>
 <path d="m9.0868 5.484v1.2993h1.2993v-1.2993" fill="#fbff8d" fill-opacity=".61215"/>
 <path d="m9.0868 5.484 0.51975-0.51977h1.2992l-0.51964 0.51977z" fill="#f7ff17" fill-opacity=".44706"/>
 <path d="m10.386 6.7833v-1.2993l0.51964-0.51977v1.2993z" fill="#cdd400" fill-opacity=".44706"/>
 <path d="m8.3073 3.665v1.2992h1.2993v-1.2992" fill="#fbff8d" fill-opacity=".61215"/>
 <path d="m8.3073 3.665 0.51964-0.51977h1.2993l-0.51967 0.51977z" fill="#f7ff17" fill-opacity=".44706"/>
 <path d="m9.6066 4.9642v-1.2992l0.51967-0.51977v1.2993z" fill="#cdd400" fill-opacity=".44706"/>
 <path d="m9.6066 3.665v1.2992h1.2992v-1.2992" fill="#fbff8d" fill-opacity=".61215"/>
 <path d="m7.7875 4.1846v1.2993h1.2993v-1.2993" fill="#fbff8d" fill-opacity=".61215"/>
 <g fill-opacity=".44706">
  <path d="m9.6066 3.665 0.51967-0.51977h1.2993l-0.51977 0.51977z" fill="#f7ff17"/>
  <path d="m10.906 4.9642v-1.2992l0.51977-0.51977v1.2993z" fill="#cdd400"/>
  <path d="m7.7875 4.1846 0.51977-0.51967h1.2993l-0.51975 0.51967z" fill="#f7ff17"/>
  <path d="m9.0868 5.484v-1.2993l0.51975-0.51967v1.2992z" fill="#cdd400"/>
 </g>
 <path d="m9.0868 4.1846v1.2993h1.2993v-1.2993" fill="#fbff8d" fill-opacity=".61215"/>
 <g fill-opacity=".44706">
  <path d="m9.0868 4.1846 0.51975-0.51967h1.2992l-0.51964 0.51967z" fill="#f7ff17"/>
  <path d="m10.386 5.484v-1.2993l0.51964-0.51967v1.2992z" fill="#cdd400"/>
  <path d="m12.474 12.482v-5.1972l2.0789-2.0789v5.1972z" fill="#c6c6c6"/>
  <path d="m12.486 7.276v-5.1972l2.0789-2.0789v5.1972z" fill="#c6c6c6"/>
 </g>
</svg>
