<?xml version="1.0" encoding="UTF-8"?>
<svg width="164.17mm" height="75.963mm" version="1.1" viewBox="0 0 164.17 75.963" xmlns="http://www.w3.org/2000/svg" xmlns:cc="http://creativecommons.org/ns#" xmlns:dc="http://purl.org/dc/elements/1.1/" xmlns:rdf="http://www.w3.org/1999/02/22-rdf-syntax-ns#">
 <metadata>
  <rdf:RDF>
   <cc:Work rdf:about="">
    <dc:format>image/svg+xml</dc:format>
    <dc:type rdf:resource="http://purl.org/dc/dcmitype/StillImage"/>
    <dc:title/>
   </cc:Work>
  </rdf:RDF>
 </metadata>
 <g stroke="#7b8694" stroke-width=".26458">
  <path d="m93.709 64.447 42.333 11.343v-48.385l-42.333-11.343z" fill="#2f3744"/>
  <path d="m136.04 75.66 27.781-16.04v-48.254l-27.781 16.04" fill="#1d232d"/>
  <path d="m163.82 11.556-42.598-11.414-27.517 15.887 42.46 11.377z" fill="#2f3744"/>
 </g>
 <g fill="none" stroke-width=".26458">
  <g stroke="#7b8694">
   <path d="m93.709 40.9 42.333 11.343 27.896-16.106"/>
   <path d="m114.61 70.004v-48.419l27.517-15.887"/>
   <path d="m106.41 8.6204 42.598 11.414v48.382"/>
   <path d="m114.61 34.55 21.431 5.7425 12.965-7.4851"/>
   <path d="m125.46 49.366v-24.871l12.7-7.3323"/>
   <path d="m143.45 48.043v-24.606l-21.96-5.8843"/>
   <path d="m130.75 38.783v-12.7l7.1438-4.1245"/>
   <path d="m140.01 37.989v-12.7l-10.848-2.9067"/>
  </g>
  <g stroke="#6f8ce9">
   <path d="m36.031 32.376 11.282-15.923"/>
   <path d="m43.408 32.376 3.9058-15.923"/>
   <path d="m50.894 32.376-3.5806-15.923"/>
   <path d="m58.402 32.376-11.089-15.923"/>
   <path d="m17.478 53.601 11.282-15.923"/>
   <path d="m24.855 53.601 3.9058-15.923"/>
   <path d="m32.341 53.601-3.5806-15.923"/>
   <path d="m39.849 53.601-11.089-15.923"/>
   <path d="m10.057 53.601 18.704-15.923"/>
   <path d="m2.6354 53.601 26.125-15.923"/>
   <path d="m47.27 53.601-18.51-15.923"/>
   <path d="m54.692 53.601-25.931-15.923"/>
  </g>
 </g>
 <g fill="#2f3744" stroke="#7b8694" stroke-linecap="round" stroke-linejoin="bevel" stroke-width=".26458">
  <rect x="14.975" y="53.601" width="5.3046" height="5.3077" style="paint-order:normal"/>
  <rect x="22.401" y="53.601" width="5.3046" height="5.3077" style="paint-order:normal"/>
  <rect x="29.828" y="53.601" width="5.3046" height="5.3077" style="paint-order:normal"/>
  <rect x="37.254" y="53.601" width="5.3046" height="5.3077" style="paint-order:normal"/>
  <rect x="7.5536" y="53.601" width="5.3046" height="5.3077" style="paint-order:normal"/>
  <rect x=".13229" y="53.601" width="5.3046" height="5.3077" style="paint-order:normal"/>
  <rect x="44.66" y="53.601" width="5.3046" height="5.3077" style="paint-order:normal"/>
  <rect x="52.081" y="53.601" width="5.3046" height="5.3077" style="paint-order:normal"/>
  <rect x="55.807" y="32.376" width="5.3046" height="5.3077" style="paint-order:normal"/>
 </g>
 <g fill="none" stroke="#6f8ce9" stroke-width=".26458">
  <path d="m28.61 32.376 18.704-15.923"/>
  <path d="m21.189 32.376 26.125-15.923"/>
  <path d="m65.824 32.376-18.51-15.923"/>
  <path d="m73.245 32.376-25.931-15.923"/>
 </g>
 <g fill="#2f3744" stroke="#7b8694" stroke-linecap="round" stroke-linejoin="bevel" stroke-width=".26458">
  <rect x="44.535" y="11.145" width="5.3046" height="5.3077" style="paint-order:normal"/>
  <rect x="33.528" y="32.376" width="5.3046" height="5.3077" style="paint-order:normal"/>
  <rect x="40.954" y="32.376" width="5.3046" height="5.3077" style="paint-order:normal"/>
  <rect x="48.381" y="32.376" width="5.3046" height="5.3077" style="paint-order:normal"/>
  <rect x="26.107" y="32.376" width="5.3046" height="5.3077" style="paint-order:normal"/>
  <rect x="18.686" y="32.376" width="5.3046" height="5.3077" style="paint-order:normal"/>
  <rect x="63.213" y="32.376" width="5.3046" height="5.3077" style="paint-order:normal"/>
  <rect x="70.634" y="32.376" width="5.3046" height="5.3077" style="paint-order:normal"/>
 </g>
 <g fill="#e8eaec" stroke-linecap="round" stroke-width=".26458">
  <g transform="scale(.99949 1.0005)" stroke="#cf2f25" aria-label="0">
   <path d="m21.265 33.575c-0.4191 0-0.8509 0.51647-0.8509 1.3589 0 0.85513 0.43603 1.3462 0.85513 1.3462 0.381 0 0.83397-0.41487 0.83397-1.325 0-0.89747-0.4318-1.3801-0.8382-1.3801zm0.41063 0.60537-0.9271 1.2023c-0.0381-0.14817-0.05927-0.31327-0.05927-0.49953 0-0.67733 0.30903-1.0499 0.5715-1.0499 0.14393 0 0.30057 0.1143 0.41487 0.34713zm0.09737 0.2794c0.0381 0.14817 0.05503 0.32597 0.05503 0.5334 0 0.7366-0.3175 1.016-0.55033 1.016-0.15663 0-0.3175-0.127-0.4318-0.35983z" fill="#e8eaec" stroke="none"/>
  </g>
  <g transform="scale(.99949 1.0005)" stroke="#cf2f25" aria-label="1">
   <path d="m28.871 33.592h-0.19473l-0.67733 0.35137 0.06773 0.1651 0.52493-0.14817v2.0405h-0.49107v0.23283h1.2446v-0.23283h-0.47413z" fill="#e8eaec" stroke="none"/>
  </g>
  <g transform="scale(.99949 1.0005)" stroke="#cf2f25" aria-label="2">
   <path d="m35.352 34.002 0.2159 0.17357c0.0254-0.0381 0.0127-0.0635 0.0381-0.09737 0.0635-0.09737 0.22013-0.2413 0.44873-0.2413 0.28363 0 0.508 0.2159 0.508 0.49953 0 0.32173-0.27093 0.55457-0.46143 0.72813-0.30057 0.27093-0.5461 0.54187-0.76623 0.9779v0.18627h1.5494v-0.2921c-0.02963-0.0127-0.0508 0.0085-0.05927 0.01693-0.01693 0.01693-0.0254 0.01693-0.04233 0.01693h-1.1091c0.22013-0.381 0.52917-0.64347 0.71967-0.82126 0.1905-0.18203 0.46143-0.45297 0.46143-0.83397 0-0.41063-0.33443-0.74083-0.762-0.74083-0.30057 0-0.5842 0.16087-0.74083 0.42757z" fill="#e8eaec" stroke="none"/>
  </g>
  <g transform="scale(.99949 1.0005)" stroke="#cf2f25" aria-label="3">
   <path d="m44.174 34.252c0-0.35983-0.3048-0.66887-0.7239-0.66887-0.23707 0-0.4699 0.1016-0.635 0.28363l0.1651 0.18203c0.12277-0.13123 0.2921-0.2032 0.4572-0.2032 0.27093 0 0.4572 0.1905 0.4572 0.41487 0 0.15663-0.09737 0.33443-0.28363 0.41487-0.04657 0.01693-0.1651 0.0635-0.41487 0.0635v0.23707c0.04233-0.0042 0.0889-0.0085 0.13547-0.0085 0.3556 0 0.61807 0.18627 0.61807 0.50377 0 0.28787-0.22013 0.53763-0.52917 0.53763-0.24553 0-0.3937-0.16087-0.41487-0.18203-0.03387-0.0381-0.01693-0.08043-0.05503-0.11853l-0.22013 0.2667c0.17357 0.19897 0.42757 0.30057 0.69003 0.30057 0.508 0 0.8128-0.35983 0.8128-0.77047 0-0.31327-0.1778-0.57997-0.45297-0.68157 0.23707-0.0889 0.3937-0.31327 0.3937-0.5715z" fill="#e8eaec" stroke="none"/>
  </g>
  <g transform="scale(.99949 1.0005)" stroke="#cf2f25" aria-label="4">
   <path d="m51.176 33.592-1.1218 1.6891v0.22013h1.0626v0.72813h0.3048v-0.7239h0.3429v-0.26247h-0.3429v-1.651zm-0.05503 0.4699v1.1811h-0.7747z" fill="#e8eaec" stroke="none"/>
  </g>
  <g transform="scale(.99949 1.0005)" stroke="#cf2f25" aria-label="5">
   <path d="m57.976 33.592-0.09313 1.342 0.1905 0.0762c0.127-0.16087 0.31327-0.24977 0.4953-0.24977 0.27517 0 0.53763 0.21167 0.53763 0.63077 0 0.4064-0.24977 0.62653-0.5334 0.62653s-0.4699-0.2159-0.4826-0.2413c-0.01693-0.03387 0.0042-0.0762-0.03387-0.1016l-0.26247 0.19897c0.1778 0.25823 0.4699 0.4064 0.78317 0.4064 0.4572 0 0.83397-0.30903 0.83397-0.88053 0-0.56727-0.3556-0.88053-0.8001-0.88053-0.14393 0-0.2921 0.03387-0.42757 0.1016l0.0381-0.762h1.0922v-0.2667z" fill="#e8eaec" stroke="none"/>
  </g>
  <g transform="scale(.99949 1.0005)" stroke="#cf2f25" aria-label="6">
   <path d="m66.154 33.562c-0.3175 0-0.65617 0.19473-0.82127 0.65617-0.0889 0.24977-0.11007 0.5588-0.11007 0.8128 0 0.30903 0.02963 0.63923 0.19897 0.89323 0.1524 0.23283 0.38947 0.35137 0.6223 0.35137 0.40217 0 0.75353-0.33867 0.75353-0.88477 0-0.5461-0.35137-0.8636-0.7239-0.8636-0.2286 0-0.4445 0.12277-0.5588 0.3175 0.01693-0.9017 0.44873-1.0202 0.63923-1.0202 0.17357 0 0.2921 0.09313 0.30903 0.11007 0.0254 0.02963 0.0254 0.06773 0.0635 0.09737l0.2032-0.2286c-0.1524-0.1524-0.36407-0.2413-0.57573-0.2413zm-0.11007 1.2277c0.21167 0 0.46567 0.1651 0.46567 0.61807 0 0.41063-0.2286 0.60537-0.45297 0.60537-0.32173 0-0.56303-0.37677-0.52917-0.87207 0.11853-0.2159 0.32173-0.35137 0.51647-0.35137z" fill="#e8eaec" stroke="none"/>
  </g>
  <g transform="scale(.99949 1.0005)" stroke="#cf2f25" aria-label="7">
   <path d="m72.682 33.592v0.28363h1.1303c-0.13547 0.31327-0.26247 0.62653-0.38523 0.94403-0.1778 0.46567-0.34713 0.93557-0.50377 1.4097h0.33443c0.127-0.41487 0.2667-0.8255 0.4191-1.2319 0.1524-0.4191 0.32173-0.82973 0.49953-1.2404v-0.1651z" fill="#e8eaec" stroke="none"/>
  </g>
  <g transform="scale(.99949 1.0005)" aria-label="10">
   <path d="m1.8042 55.012h-0.19473l-0.67733 0.35137 0.067733 0.1651 0.52493-0.14817v2.0405h-0.49107v0.23283h1.2446v-0.23283h-0.47413z"/>
   <path d="m3.7261 54.995c-0.4191 0-0.8509 0.51647-0.8509 1.3589 0 0.85513 0.43603 1.3462 0.85513 1.3462 0.381 0 0.83397-0.41487 0.83397-1.325 0-0.89747-0.4318-1.3801-0.8382-1.3801zm0.41063 0.60537-0.9271 1.2023c-0.0381-0.14817-0.059267-0.31327-0.059267-0.49953 0-0.67733 0.30903-1.0499 0.5715-1.0499 0.14393 0 0.30057 0.1143 0.41487 0.34713zm0.097367 0.2794c0.0381 0.14817 0.055033 0.32597 0.055033 0.5334 0 0.7366-0.3175 1.016-0.55033 1.016-0.15663 0-0.3175-0.127-0.4318-0.35983z"/>
  </g>
  <g transform="scale(.99949 1.0005)" aria-label="11">
   <path d="m9.2163 55.012h-0.19473l-0.67733 0.35137 0.067733 0.1651 0.52493-0.14817v2.0405h-0.49107v0.23283h1.2446v-0.23283h-0.47413z"/>
   <path d="m11.333 55.012h-0.19473l-0.67733 0.35137 0.06773 0.1651 0.52493-0.14817v2.0405h-0.49107v0.23283h1.2446v-0.23283h-0.47413z"/>
  </g>
  <g transform="scale(.99949 1.0005)" aria-label="12">
   <path d="m16.628 55.012h-0.19473l-0.67733 0.35137 0.06773 0.1651 0.52493-0.14817v2.0405h-0.49107v0.23283h1.2446v-0.23283h-0.47413z"/>
   <path d="m17.814 55.422 0.2159 0.17357c0.0254-0.0381 0.0127-0.0635 0.0381-0.09737 0.0635-0.09737 0.22013-0.2413 0.44873-0.2413 0.28363 0 0.508 0.2159 0.508 0.49953 0 0.32173-0.27093 0.55457-0.46143 0.72813-0.30057 0.27093-0.5461 0.54187-0.76623 0.9779v0.18627h1.5494v-0.2921c-0.02963-0.0127-0.0508 0.0085-0.05927 0.01693-0.01693 0.01693-0.0254 0.01693-0.04233 0.01693h-1.1091c0.22013-0.381 0.52917-0.64347 0.71967-0.82127 0.1905-0.18203 0.46143-0.45297 0.46143-0.83397 0-0.41063-0.33443-0.74083-0.762-0.74083-0.30057 0-0.5842 0.16087-0.74083 0.42757z"/>
  </g>
  <g transform="scale(.99949 1.0005)" aria-label="13">
   <path d="m24.041 55.012h-0.19473l-0.67733 0.35137 0.06773 0.1651 0.52493-0.14817v2.0405h-0.49107v0.23283h1.2446v-0.23283h-0.47413z"/>
   <path d="m26.636 55.672c0-0.35983-0.3048-0.66887-0.7239-0.66887-0.23707 0-0.4699 0.1016-0.635 0.28363l0.1651 0.18203c0.12277-0.13123 0.2921-0.2032 0.4572-0.2032 0.27093 0 0.4572 0.1905 0.4572 0.41487 0 0.15663-0.09737 0.33443-0.28363 0.41487-0.04657 0.01693-0.1651 0.0635-0.41487 0.0635v0.23707c0.04233-0.0042 0.0889-0.0085 0.13547-0.0085 0.3556 0 0.61807 0.18627 0.61807 0.50377 0 0.28787-0.22013 0.53763-0.52917 0.53763-0.24553 0-0.3937-0.16087-0.41487-0.18203-0.03387-0.0381-0.01693-0.08043-0.05503-0.11853l-0.22013 0.2667c0.17357 0.19897 0.42757 0.30057 0.69003 0.30057 0.508 0 0.8128-0.35983 0.8128-0.77047 0-0.31327-0.1778-0.57997-0.45297-0.68157 0.23707-0.0889 0.3937-0.31327 0.3937-0.5715z"/>
  </g>
  <g transform="scale(.99949 1.0005)" aria-label="14">
   <path d="m31.453 55.012h-0.19473l-0.67733 0.35137 0.06773 0.1651 0.52493-0.14817v2.0405h-0.49107v0.23283h1.2446v-0.23283h-0.47413z"/>
   <path d="m33.637 55.012-1.1218 1.6891v0.22013h1.0626v0.72813h0.3048v-0.7239h0.3429v-0.26247h-0.3429v-1.651zm-0.05503 0.4699v1.1811h-0.7747z"/>
  </g>
  <g transform="scale(.99949 1.0005)" aria-label="15">
   <path d="m38.865 55.012h-0.19473l-0.67733 0.35137 0.06773 0.1651 0.52493-0.14817v2.0405h-0.49107v0.23283h1.2446v-0.23283h-0.47413z"/>
   <path d="m40.173 55.012-0.09313 1.342 0.1905 0.0762c0.127-0.16087 0.31327-0.24977 0.4953-0.24977 0.27517 0 0.53763 0.21167 0.53763 0.63077 0 0.4064-0.24977 0.62653-0.5334 0.62653-0.28363 0-0.4699-0.2159-0.4826-0.2413-0.01693-0.03387 0.0042-0.0762-0.03387-0.1016l-0.26247 0.19897c0.1778 0.25823 0.4699 0.4064 0.78317 0.4064 0.4572 0 0.83397-0.30903 0.83397-0.88053 0-0.56727-0.3556-0.88053-0.8001-0.88053-0.14393 0-0.2921 0.03387-0.42757 0.1016l0.0381-0.762h1.0922v-0.2667z"/>
  </g>
  <g transform="scale(.99949 1.0005)" aria-label="16">
   <path d="m46.277 55.012h-0.19473l-0.67733 0.35137 0.06773 0.1651 0.52493-0.14817v2.0405h-0.49107v0.23283h1.2446v-0.23283h-0.47413z"/>
   <path d="m48.351 54.982c-0.3175 0-0.65617 0.19473-0.82127 0.65617-0.0889 0.24977-0.11007 0.5588-0.11007 0.8128 0 0.30903 0.02963 0.63923 0.19897 0.89323 0.1524 0.23283 0.38947 0.35137 0.6223 0.35137 0.40217 0 0.75353-0.33867 0.75353-0.88477 0-0.5461-0.35137-0.8636-0.7239-0.8636-0.2286 0-0.4445 0.12277-0.5588 0.3175 0.01693-0.9017 0.44873-1.0202 0.63923-1.0202 0.17357 0 0.2921 0.09313 0.30903 0.11007 0.0254 0.02963 0.0254 0.06773 0.0635 0.09737l0.2032-0.2286c-0.1524-0.1524-0.36407-0.2413-0.57573-0.2413zm-0.11007 1.2277c0.21167 0 0.46567 0.1651 0.46567 0.61807 0 0.41063-0.2286 0.60537-0.45297 0.60537-0.32173 0-0.56303-0.37677-0.52917-0.87207 0.11853-0.2159 0.32173-0.35137 0.51647-0.35137z"/>
  </g>
  <g transform="scale(.99949 1.0005)" aria-label="17">
   <path d="m53.689 55.012h-0.19473l-0.67733 0.35137 0.06773 0.1651 0.52493-0.14817v2.0405h-0.49107v0.23283h1.2446v-0.23283h-0.47413z"/>
   <path d="m54.879 55.012v0.28363h1.1303c-0.13547 0.31327-0.26247 0.62653-0.38523 0.94403-0.1778 0.46567-0.34713 0.93557-0.50377 1.4097h0.33443c0.127-0.41487 0.2667-0.8255 0.4191-1.2319 0.1524-0.4191 0.32173-0.82973 0.49953-1.2404v-0.1651z"/>
  </g>
 </g>
 <path d="m125.46 31.106 10.583 2.8358 7.4083-4.2772" fill="none" stroke="#7b8694" stroke-width=".26458"/>
 <g fill="#e8eaec" stroke-linecap="round" stroke-width=".26458">
  <g transform="scale(.99949 1.0005)" stroke="#cf2f25" aria-label="0">
   <path d="m104.65 30.93c-0.4191 0-0.8509 0.51647-0.8509 1.3589 0 0.85513 0.43603 1.3462 0.85513 1.3462 0.381 0 0.83397-0.41487 0.83397-1.325 0-0.89747-0.4318-1.3801-0.8382-1.3801zm0.41063 0.60537-0.9271 1.2023c-0.0381-0.14817-0.0593-0.31327-0.0593-0.49953 0-0.67733 0.30903-1.0499 0.5715-1.0499 0.14393 0 0.30056 0.1143 0.41486 0.34713zm0.0974 0.2794c0.0381 0.14817 0.055 0.32597 0.055 0.5334 0 0.7366-0.3175 1.016-0.55033 1.016-0.15663 0-0.3175-0.127-0.4318-0.35983z" fill="#e8eaec" stroke="none"/>
  </g>
  <g transform="scale(.99949 1.0005)" stroke="#cf2f25" aria-label="2">
   <path d="m103.12 55.158 0.2159 0.17357c0.0254-0.0381 0.0127-0.0635 0.0381-0.09737 0.0635-0.09737 0.22014-0.2413 0.44874-0.2413 0.28363 0 0.50799 0.2159 0.50799 0.49953 0 0.32173-0.27093 0.55457-0.46143 0.72813-0.30056 0.27093-0.5461 0.54187-0.76623 0.9779v0.18627h1.5494v-0.2921c-0.0296-0.0127-0.0508 0.0085-0.0593 0.01693-0.0169 0.01693-0.0254 0.01693-0.0423 0.01693h-1.1091c0.22013-0.381 0.52916-0.64347 0.71966-0.82127 0.1905-0.18203 0.46143-0.45297 0.46143-0.83397 0-0.41063-0.33443-0.74083-0.76199-0.74083-0.30057 0-0.5842 0.16087-0.74084 0.42757z" fill="#e8eaec" stroke="none"/>
  </g>
  <g transform="scale(.99949 1.0005)" stroke="#cf2f25" aria-label="3">
   <path d="m125.44 60.697c0-0.35983-0.3048-0.66887-0.7239-0.66887-0.23707 0-0.4699 0.1016-0.635 0.28363l0.1651 0.18203c0.12277-0.13123 0.2921-0.2032 0.4572-0.2032 0.27093 0 0.4572 0.1905 0.4572 0.41487 0 0.15663-0.0974 0.33443-0.28363 0.41487-0.0466 0.01693-0.1651 0.0635-0.41487 0.0635v0.23707c0.0423-0.0042 0.0889-0.0085 0.13547-0.0085 0.3556 0 0.61806 0.18627 0.61806 0.50377 0 0.28787-0.22013 0.53763-0.52916 0.53763-0.24554 0-0.3937-0.16087-0.41487-0.18203-0.0339-0.0381-0.0169-0.08043-0.055-0.11853l-0.22014 0.2667c0.17357 0.19897 0.42757 0.30057 0.69004 0.30057 0.50799 0 0.81279-0.35983 0.81279-0.77047 0-0.31327-0.1778-0.57997-0.45296-0.68157 0.23706-0.0889 0.3937-0.31327 0.3937-0.5715z" fill="#e8eaec" stroke="none"/>
  </g>
  <g transform="scale(.99949 1.0005)" stroke="#cf2f25" aria-label="4">
   <path d="m123.44 5.8246-1.1218 1.6891v0.22013h1.0626v0.72813h0.3048v-0.7239h0.3429v-0.26247h-0.3429v-1.651zm-0.055 0.4699v1.1811h-0.7747z" fill="#e8eaec" stroke="none"/>
  </g>
  <g transform="scale(.99949 1.0005)" stroke="#cf2f25" aria-label="5">
   <path d="m144.27 12.436-0.0931 1.342 0.1905 0.0762c0.127-0.16087 0.31326-0.24977 0.4953-0.24977 0.27516 0 0.53763 0.21167 0.53763 0.63077 0 0.4064-0.24977 0.62653-0.5334 0.62653s-0.4699-0.2159-0.4826-0.2413c-0.0169-0.03387 4e-3 -0.0762-0.0339-0.1016l-0.26247 0.19897c0.1778 0.25823 0.4699 0.4064 0.78316 0.4064 0.4572 0 0.83397-0.30903 0.83397-0.88053 0-0.56727-0.3556-0.88053-0.8001-0.88053-0.14393 0-0.2921 0.03387-0.42757 0.1016l0.0381-0.762h1.0922v-0.2667z" fill="#e8eaec" stroke="none"/>
  </g>
  <g transform="scale(.99949 1.0005)" stroke="#cf2f25" aria-label="6">
   <path d="m156.42 27.744c-0.3175 0-0.65617 0.19473-0.82127 0.65617-0.0889 0.24977-0.11006 0.5588-0.11006 0.8128 0 0.30903 0.0296 0.63923 0.19896 0.89323 0.1524 0.23283 0.38947 0.35137 0.6223 0.35137 0.40217 0 0.75353-0.33867 0.75353-0.88477 0-0.5461-0.35136-0.8636-0.72389-0.8636-0.2286 0-0.4445 0.12277-0.5588 0.3175 0.0169-0.9017 0.44873-1.0202 0.63923-1.0202 0.17357 0 0.2921 0.09313 0.30903 0.11007 0.0254 0.02963 0.0254 0.06773 0.0635 0.09737l0.2032-0.2286c-0.1524-0.1524-0.36406-0.2413-0.57573-0.2413zm-0.11007 1.2277c0.21167 0 0.46567 0.1651 0.46567 0.61807 0 0.41063-0.2286 0.60537-0.45297 0.60537-0.32173 0-0.56303-0.37677-0.52916-0.87207 0.11853-0.2159 0.32173-0.35137 0.51646-0.35137z" fill="#e8eaec" stroke="none"/>
  </g>
  <g transform="scale(.99949 1.0005)" stroke="#cf2f25" aria-label="7">
   <path d="m155.54 51.574v0.28363h1.1303c-0.13546 0.31327-0.26246 0.62653-0.38523 0.94403-0.1778 0.46567-0.34713 0.93557-0.50377 1.4097h0.33444c0.127-0.41487 0.2667-0.8255 0.4191-1.2319 0.15239-0.4191 0.32173-0.82973 0.49953-1.2404v-0.1651z" fill="#e8eaec" stroke="none"/>
  </g>
  <g transform="scale(.99949 1.0005)" aria-label="10">
   <path d="m119.14 28.567h-0.19474l-0.67733 0.35137 0.0677 0.1651 0.52493-0.14817v2.0405h-0.49107v0.23283h1.2446v-0.23283h-0.47413z"/>
   <path d="m121.06 28.55c-0.4191 0-0.8509 0.51647-0.8509 1.3589 0 0.85513 0.43603 1.3462 0.85513 1.3462 0.381 0 0.83397-0.41487 0.83397-1.325 0-0.89747-0.4318-1.3801-0.8382-1.3801zm0.41063 0.60537-0.9271 1.2023c-0.0381-0.14817-0.0593-0.31327-0.0593-0.49953 0-0.67733 0.30903-1.0499 0.5715-1.0499 0.14393 0 0.30056 0.1143 0.41486 0.34713zm0.0974 0.2794c0.0381 0.14817 0.055 0.32597 0.055 0.5334 0 0.7366-0.3175 1.016-0.55033 1.016-0.15663 0-0.3175-0.127-0.4318-0.35983z"/>
  </g>
  <g transform="scale(.99949 1.0005)" aria-label="12">
   <path d="m119.14 40.996h-0.19474l-0.67733 0.35137 0.0677 0.1651 0.52493-0.14817v2.0405h-0.49107v0.23283h1.2446v-0.23283h-0.47413z"/>
   <path d="m120.33 41.407 0.2159 0.17357c0.0254-0.0381 0.0127-0.0635 0.0381-0.09737 0.0635-0.09737 0.22013-0.2413 0.44873-0.2413 0.28364 0 0.508 0.2159 0.508 0.49953 0 0.32173-0.27093 0.55457-0.46143 0.72813-0.30057 0.27093-0.5461 0.54187-0.76623 0.9779v0.18627h1.5494v-0.2921c-0.0296-0.0127-0.0508 0.0085-0.0593 0.01693-0.0169 0.01693-0.0254 0.01693-0.0423 0.01693h-1.1091c0.22014-0.381 0.52917-0.64347 0.71967-0.82127 0.1905-0.18203 0.46143-0.45297 0.46143-0.83397 0-0.41063-0.33443-0.74083-0.762-0.74083-0.30056 0-0.5842 0.16087-0.74083 0.42757z"/>
  </g>
  <g transform="scale(.99949 1.0005)" aria-label="13">
   <path d="m129.73 43.64h-0.19473l-0.67734 0.35137 0.0677 0.1651 0.52493-0.14817v2.0405h-0.49107v0.23283h1.2446v-0.23283h-0.47413z"/>
   <path d="m132.32 44.301c0-0.35983-0.3048-0.66887-0.7239-0.66887-0.23706 0-0.4699 0.1016-0.635 0.28363l0.1651 0.18203c0.12277-0.13123 0.2921-0.2032 0.4572-0.2032 0.27094 0 0.4572 0.1905 0.4572 0.41487 0 0.15663-0.0974 0.33443-0.28363 0.41487-0.0466 0.01693-0.1651 0.0635-0.41487 0.0635v0.23707c0.0423-0.0042 0.0889-0.0085 0.13547-0.0085 0.3556 0 0.61807 0.18627 0.61807 0.50377 0 0.28787-0.22014 0.53763-0.52917 0.53763-0.24553 0-0.3937-0.16087-0.41487-0.18203-0.0339-0.0381-0.0169-0.08043-0.055-0.11853l-0.22013 0.2667c0.17356 0.19897 0.42756 0.30057 0.69003 0.30057 0.508 0 0.8128-0.35983 0.8128-0.77047 0-0.31327-0.1778-0.57997-0.45297-0.68157 0.23707-0.0889 0.3937-0.31327 0.3937-0.5715z"/>
  </g>
 </g>
</svg>
