<?xml version="1.0" encoding="UTF-8"?>
<svg width="784.83" height="169" version="1.1" viewBox="0 0 207.65 44.716" xmlns="http://www.w3.org/2000/svg" xmlns:cc="http://creativecommons.org/ns#" xmlns:dc="http://purl.org/dc/elements/1.1/" xmlns:rdf="http://www.w3.org/1999/02/22-rdf-syntax-ns#">
 <metadata>
  <rdf:RDF>
   <cc:Work rdf:about="">
    <dc:format>image/svg+xml</dc:format>
    <dc:type rdf:resource="http://purl.org/dc/dcmitype/StillImage"/>
    <dc:title/>
   </cc:Work>
  </rdf:RDF>
 </metadata>
 <g stroke-width=".26459">
  <g stroke-linecap="round">
   <path d="m4.2618 0.1323-4.1342 3.7043v13.23l4.1342 3.7043h19.514l4.1342-3.7043v-13.23l-4.1342-3.7043z" fill="#2f3744" stroke="#7b8694"/>
   <g fill="#e8eaec" aria-label="SOURCE">
    <path d="m7.6909 11.382c0.21273 0.19686 0.49849 0.29846 0.76837 0.29846 0.49214 0 0.7779-0.29846 0.7779-0.64137 0-0.29211-0.15876-0.46039-0.40959-0.56199l-0.26353-0.10795c-0.18098-0.07303-0.31751-0.11748-0.31751-0.24448 0-0.11748 0.10478-0.18733 0.26353-0.18733 0.16511 0 0.29528 0.060327 0.43181 0.16511l0.23496-0.29528c-0.17781-0.17781-0.42864-0.27306-0.66677-0.27306-0.42864 0-0.73662 0.27306-0.73662 0.61597 0 0.30164 0.20321 0.47944 0.41911 0.56517l0.26671 0.1143c0.18098 0.0762 0.29846 0.11748 0.29846 0.24766 0 0.12383-0.095253 0.20003-0.28893 0.20003-0.17146 0-0.36196-0.0889-0.50802-0.21591z"/>
    <path d="m10.427 11.68c0.55882 0 0.93983-0.40641 0.93983-1.0827 0-0.67312-0.38101-1.0637-0.93983-1.0637-0.55564 0-0.93983 0.38736-0.93983 1.0637 0 0.6763 0.38419 1.0827 0.93983 1.0827zm0-0.40324c-0.27941 0-0.46039-0.26353-0.46039-0.67947 0-0.41276 0.18098-0.66042 0.46039-0.66042 0.28258 0 0.46039 0.24766 0.46039 0.66042 0 0.41594-0.17781 0.67947-0.46039 0.67947z"/>
    <path d="m11.746 10.683c0 0.69535 0.28893 0.99698 0.82553 0.99698s0.81918-0.30164 0.81918-0.99698v-1.1113h-0.45086v1.1589c0 0.40641-0.13653 0.54612-0.36831 0.54612s-0.35879-0.1397-0.35879-0.54612v-1.1589h-0.46674z"/>
    <path d="m14.328 9.9434h0.23813c0.24448 0 0.37784 0.069852 0.37784 0.27306 0 0.20321-0.13335 0.30798-0.37784 0.30798h-0.23813zm1.1748 1.6987-0.46674-0.8287c0.21908-0.09843 0.36831-0.29211 0.36831-0.59692 0-0.49214-0.36196-0.64455-0.80012-0.64455h-0.74615v2.0702h0.46991v-0.74615h0.25401l0.39689 0.74615z"/>
    <path d="m15.713 10.62c0 0.69535 0.43816 1.0605 0.97476 1.0605 0.25718 0 0.48579-0.10478 0.65725-0.30481l-0.25718-0.28258c-0.1016 0.11113-0.22226 0.18416-0.39371 0.18416-0.30163 0-0.50167-0.24766-0.50167-0.67312 0-0.41594 0.22543-0.66677 0.51437-0.66677 0.14606 0 0.24448 0.060327 0.34926 0.15558l0.25718-0.28893c-0.1397-0.14288-0.35561-0.26988-0.6128-0.26988-0.53342 0-0.98746 0.40006-0.98746 1.0859z"/>
    <path d="m17.653 11.642h1.3304v-0.39371h-0.86045v-0.47626h0.70487v-0.39054h-0.70487v-0.41594h0.8287v-0.39371h-1.2986z"/>
   </g>
   <path d="m57.18 0.1323-4.1342 3.7043v13.23l4.1342 3.7043h19.514l4.1342-3.7043v-13.23l-4.1342-3.7043z" fill="#2f3744" stroke="#7b8694"/>
   <g fill="#e8eaec" aria-label="ATTENUATION, OCCLUSION">
    <path d="m57.414 8.4034 0.0508-0.19051c0.05715-0.20638 0.1143-0.44769 0.16193-0.66677h0.0127c0.05715 0.21591 0.11113 0.46039 0.16828 0.66677l0.0508 0.19051zm0.66677 0.85728h0.49532l-0.6509-2.0702h-0.55882l-0.6509 2.0702h0.47626l0.127-0.49214h0.63502z"/>
    <path d="m59.073 9.2607h0.46674v-1.6765h0.56834v-0.39371h-1.6066v0.39371h0.57152z"/>
    <path d="m60.834 9.2607h0.46674v-1.6765h0.56834v-0.39371h-1.6066v0.39371h0.57152z"/>
    <path d="m62.189 9.2607h1.3304v-0.39371h-0.86045v-0.47627h0.70487v-0.39054h-0.70487v-0.41594h0.8287v-0.39371h-1.2986z"/>
    <path d="m63.925 9.2607h0.44769v-0.73345c0-0.24448-0.0381-0.52072-0.06033-0.74932h0.0127l0.20321 0.45086 0.53977 1.0319h0.47944v-2.0702h-0.44451v0.73027c0 0.24448 0.0381 0.53659 0.06033 0.75567h-0.0127l-0.20638-0.45721-0.53977-1.0287h-0.47944z"/>
    <path d="m66.024 8.3018c0 0.69535 0.28893 0.99698 0.82553 0.99698s0.81918-0.30163 0.81918-0.99698v-1.1113h-0.45086v1.1589c0 0.40641-0.13653 0.54612-0.36831 0.54612-0.23178 0-0.35879-0.1397-0.35879-0.54612v-1.1589h-0.46674z"/>
    <path d="m68.533 8.4034 0.0508-0.19051c0.05715-0.20638 0.1143-0.44769 0.16193-0.66677h0.0127c0.05715 0.21591 0.11113 0.46039 0.16828 0.66677l0.0508 0.19051zm0.66677 0.85728h0.49532l-0.6509-2.0702h-0.55882l-0.6509 2.0702h0.47626l0.127-0.49214h0.63502z"/>
    <path d="m70.192 9.2607h0.46674v-1.6765h0.56834v-0.39371h-1.6066v0.39371h0.57152z"/>
    <path d="m71.546 9.2607h0.46992v-2.0702h-0.46992z"/>
    <path d="m73.343 9.2988c0.55882 0 0.93983-0.40641 0.93983-1.0827 0-0.67312-0.38101-1.0637-0.93983-1.0637-0.55564 0-0.93983 0.38736-0.93983 1.0637 0 0.6763 0.38419 1.0827 0.93983 1.0827zm0-0.40324c-0.27941 0-0.46039-0.26353-0.46039-0.67947 0-0.41276 0.18098-0.66042 0.46039-0.66042 0.28258 0 0.46039 0.24766 0.46039 0.66042 0 0.41594-0.17781 0.67947-0.46039 0.67947z"/>
    <path d="m74.672 9.2607h0.44769v-0.73345c0-0.24448-0.0381-0.52072-0.06033-0.74932h0.0127l0.20321 0.45086 0.53977 1.0319h0.47944v-2.0702h-0.44451v0.73027c0 0.24448 0.0381 0.53659 0.06033 0.75567h-0.0127l-0.20638-0.45721-0.53977-1.0287h-0.47944z"/>
    <path d="m76.78 9.8767c0.37149-0.11113 0.57152-0.37466 0.57152-0.72392 0-0.27623-0.1143-0.44134-0.32386-0.44134-0.16193 0-0.29211 0.10478-0.29211 0.26671 0 0.16828 0.13336 0.26353 0.28258 0.26353h0.0254c0 0.16193-0.127 0.30481-0.35879 0.38736z"/>
    <path d="m60.038 13.299c0.55882 0 0.93983-0.40641 0.93983-1.0827 0-0.67312-0.38101-1.0637-0.93983-1.0637-0.55564 0-0.93983 0.38736-0.93983 1.0637 0 0.6763 0.38419 1.0827 0.93983 1.0827zm0-0.40324c-0.27941 0-0.46039-0.26353-0.46039-0.67947 0-0.41276 0.18098-0.66042 0.46039-0.66042 0.28258 0 0.46039 0.24766 0.46039 0.66042 0 0.41594-0.1778 0.67947-0.46039 0.67947z"/>
    <path d="m61.268 12.238c0 0.69535 0.43816 1.0605 0.97476 1.0605 0.25718 0 0.48579-0.10478 0.65725-0.30481l-0.25718-0.28258c-0.1016 0.11113-0.22226 0.18416-0.39371 0.18416-0.30164 0-0.50167-0.24766-0.50167-0.67312 0-0.41594 0.22543-0.66677 0.51437-0.66677 0.14606 0 0.24448 0.06033 0.34926 0.15558l0.25718-0.28893c-0.1397-0.14288-0.35561-0.26988-0.61279-0.26988-0.53342 0-0.98746 0.40006-0.98746 1.0859z"/>
    <path d="m62.992 12.238c0 0.69535 0.43816 1.0605 0.97476 1.0605 0.25718 0 0.48579-0.10478 0.65724-0.30481l-0.25718-0.28258c-0.1016 0.11113-0.22226 0.18416-0.39371 0.18416-0.30164 0-0.50167-0.24766-0.50167-0.67312 0-0.41594 0.22543-0.66677 0.51437-0.66677 0.14606 0 0.24448 0.06033 0.34926 0.15558l0.25718-0.28893c-0.1397-0.14288-0.35561-0.26988-0.61279-0.26988-0.53342 0-0.98746 0.40006-0.98746 1.0859z"/>
    <path d="m64.933 13.261h1.2859v-0.39371h-0.816v-1.6765h-0.46992z"/>
    <path d="m66.442 12.302c0 0.69535 0.28893 0.99698 0.82553 0.99698s0.81918-0.30164 0.81918-0.99698v-1.1113h-0.45086v1.1589c0 0.40641-0.13653 0.54612-0.36831 0.54612s-0.35879-0.1397-0.35879-0.54612v-1.1589h-0.46674z"/>
    <path d="m68.39 13c0.21273 0.19686 0.49849 0.29846 0.76837 0.29846 0.49214 0 0.7779-0.29846 0.7779-0.64137 0-0.29211-0.15876-0.46039-0.40959-0.56199l-0.26353-0.10795c-0.18098-0.07303-0.31751-0.11748-0.31751-0.24448 0-0.11748 0.10478-0.18733 0.26353-0.18733 0.1651 0 0.29528 0.06033 0.43181 0.1651l0.23496-0.29528c-0.17781-0.17781-0.42864-0.27306-0.66677-0.27306-0.42864 0-0.73662 0.27306-0.73662 0.61597 0 0.30163 0.20321 0.47944 0.41911 0.56517l0.26671 0.1143c0.18098 0.0762 0.29846 0.11748 0.29846 0.24766 0 0.12383-0.09525 0.20003-0.28893 0.20003-0.17146 0-0.36196-0.0889-0.50802-0.21591z"/>
    <path d="m70.284 13.261h0.46992v-2.0702h-0.46992z"/>
    <path d="m72.081 13.299c0.55882 0 0.93983-0.40641 0.93983-1.0827 0-0.67312-0.38101-1.0637-0.93983-1.0637-0.55564 0-0.93983 0.38736-0.93983 1.0637 0 0.6763 0.38419 1.0827 0.93983 1.0827zm0-0.40324c-0.27941 0-0.46039-0.26353-0.46039-0.67947 0-0.41276 0.18098-0.66042 0.46039-0.66042 0.28258 0 0.46039 0.24766 0.46039 0.66042 0 0.41594-0.17781 0.67947-0.46039 0.67947z"/>
    <path d="m73.41 13.261h0.44769v-0.73345c0-0.24448-0.0381-0.52072-0.06033-0.74932h0.0127l0.20321 0.45086 0.53977 1.0319h0.47944v-2.0702h-0.44451v0.73027c0 0.24448 0.0381 0.53659 0.06033 0.75567h-0.0127l-0.20638-0.45721-0.53977-1.0287h-0.47944z"/>
   </g>
  </g>
  <rect x="49.077" y="8.4721" width="3.9689" height="3.9689" fill="#2f3744" stroke="#7b8694" stroke-linecap="square" stroke-miterlimit="40"/>
 </g>
 <path d="m32.009 10.457h16.03" fill="none" stroke="#7893ea" stroke-dashoffset="1.2" stroke-linecap="square" stroke-width=".26459"/>
 <g>
  <g transform="matrix(.0031775 0 0 -.0032319 47.228 11.323)" fill="#47d58a" stroke-width="82.566">
   <g fill="#47d58a" stroke-width="82.566">
    <path d="m486.41 221.41-364.07-208.5c-52.938-30.318-95.852-5.44-95.852 55.563v415.65c0 61.004 42.914 85.882 95.852 55.563l364.07-208.49c52.938-30.317 52.938-79.473 0-109.79z" fill="#7893ea" stroke-width="82.566"/>
   </g>
  </g>
  <g stroke-width=".26459">
   <rect x="27.91" y="8.4721" width="3.9689" height="3.9689" fill="#2f3744" stroke="#7b8694" stroke-linecap="square" stroke-miterlimit="40"/>
   <path d="m57.18 23.946-4.1342 3.7043v13.23l4.1342 3.7043h19.514l4.1342-3.7043v-13.23l-4.1342-3.7043z" fill="#2f3744" stroke="#7b8694" stroke-linecap="round"/>
   <g fill="#e8eaec" stroke-linecap="round" aria-label="REVERB">
    <path d="m62.299 33.757h0.23813c0.24448 0 0.37784 0.06985 0.37784 0.27306 0 0.20321-0.13335 0.30798-0.37784 0.30798h-0.23813zm1.1748 1.6987-0.46674-0.8287c0.21908-0.09843 0.36831-0.29211 0.36831-0.59692 0-0.49214-0.36196-0.64455-0.80012-0.64455h-0.74615v2.0702h0.46992v-0.74615h0.25401l0.39689 0.74615z"/>
    <path d="m63.782 35.455h1.3304v-0.39371h-0.86045v-0.47626h0.70487v-0.39054h-0.70487v-0.41594h0.8287v-0.39371h-1.2986z"/>
    <path d="m65.877 35.455h0.56199l0.6255-2.0702h-0.47944l-0.24448 0.96523c-0.06033 0.22543-0.1016 0.43499-0.1651 0.6636h-0.0127c-0.0635-0.22861-0.10478-0.43816-0.16511-0.6636l-0.25083-0.96523h-0.49532z"/>
    <path d="m67.28 35.455h1.3304v-0.39371h-0.86045v-0.47626h0.70487v-0.39054h-0.70487v-0.41594h0.8287v-0.39371h-1.2986z"/>
    <path d="m69.486 33.757h0.23813c0.24448 0 0.37784 0.06985 0.37784 0.27306 0 0.20321-0.13336 0.30798-0.37784 0.30798h-0.23813zm1.1748 1.6987-0.46674-0.8287c0.21908-0.09843 0.36831-0.29211 0.36831-0.59692 0-0.49214-0.36196-0.64455-0.80012-0.64455h-0.74615v2.0702h0.46992v-0.74615h0.25401l0.39689 0.74615z"/>
    <path d="m70.97 35.455h0.76838c0.45086 0 0.80648-0.18733 0.80648-0.60962 0-0.27623-0.15558-0.43181-0.45086-0.48579v-0.0127c0.24131-0.0635 0.34926-0.26353 0.34926-0.44769 0-0.39689-0.33339-0.51437-0.7652-0.51437h-0.70805zm0.46992-1.2351v-0.47309h0.22226c0.21591 0 0.32386 0.0635 0.32386 0.21908 0 0.15558-0.1016 0.25401-0.33021 0.25401zm0 0.87315v-0.54294h0.26036c0.25718 0 0.38736 0.07938 0.38736 0.26036 0 0.18733-0.13336 0.28258-0.38736 0.28258z"/>
   </g>
   <rect x="49.077" y="32.285" width="3.9689" height="3.9689" fill="#2f3744" stroke="#7b8694" stroke-linecap="square" stroke-miterlimit="40"/>
  </g>
  <g transform="matrix(.0031775 0 0 -.0032319 47.228 35.137)" fill="#47d58a" stroke-width="82.566">
   <g fill="#47d58a" stroke-width="82.566">
    <path d="m486.41 221.41-364.07-208.5c-52.938-30.318-95.852-5.44-95.852 55.563v415.65c0 61.004 42.914 85.882 95.852 55.563l364.07-208.49c52.938-30.317 52.938-79.473 0-109.79z" fill="#7893ea" stroke-width="82.566"/>
   </g>
  </g>
  <g stroke-width=".26459">
   <path d="m110.1 0.1323-4.1342 3.7043v13.23l4.1342 3.7043h19.514l4.1342-3.7043v-13.23l-4.1342-3.7043z" fill="#2f3744" stroke="#7b8694" stroke-linecap="round"/>
   <g fill="#e8eaec" stroke-linecap="round" aria-label="HRTF">
    <path d="m116.55 11.642h0.46991v-0.86363h0.7144v0.86363h0.46674v-2.0702h-0.46674v0.79695h-0.7144v-0.79695h-0.46991z"/>
    <path d="m119.16 9.9434h0.23813c0.24449 0 0.37784 0.069852 0.37784 0.27306 0 0.20321-0.13335 0.30798-0.37784 0.30798h-0.23813zm1.1748 1.6987-0.46674-0.8287c0.21908-0.09843 0.36831-0.29211 0.36831-0.59692 0-0.49214-0.36196-0.64455-0.80013-0.64455h-0.74614v2.0702h0.46991v-0.74615h0.25401l0.39689 0.74615z"/>
    <path d="m120.98 11.642h0.46674v-1.6765h0.56834v-0.39371h-1.6066v0.39371h0.57152z"/>
    <path d="m122.34 11.642h0.46992v-0.8033h0.71439v-0.39371h-0.71439v-0.47944h0.83822v-0.39371h-1.3081z"/>
   </g>
   <rect x="102" y="8.4721" width="3.9689" height="3.9689" fill="#2f3744" stroke="#7b8694" stroke-linecap="square" stroke-miterlimit="40"/>
  </g>
 </g>
 <path d="m84.927 10.457h16.03" fill="none" stroke="#7893ea" stroke-dashoffset="1.2" stroke-linecap="square" stroke-width=".26459"/>
 <g>
  <g transform="matrix(.0031775 0 0 -.0032319 100.15 11.323)" fill="#47d58a" stroke-width="82.566">
   <g fill="#47d58a" stroke-width="82.566">
    <path d="m486.41 221.41-364.07-208.5c-52.938-30.318-95.852-5.44-95.852 55.563v415.65c0 61.004 42.914 85.882 95.852 55.563l364.07-208.49c52.938-30.317 52.938-79.473 0-109.79z" fill="#7893ea" stroke-width="82.566"/>
   </g>
  </g>
  <g stroke-width=".26459">
   <rect x="80.828" y="8.4721" width="3.9689" height="3.9689" fill="#2f3744" stroke="#7b8694" stroke-linecap="square" stroke-miterlimit="40"/>
   <path d="m110.1 23.946-4.1342 3.7043v13.23l4.1342 3.7043h19.514l4.1342-3.7043v-13.23l-4.1342-3.7043z" fill="#2f3744" stroke="#7b8694" stroke-linecap="round"/>
   <g fill="#e8eaec" stroke-linecap="round" aria-label="AMBISONICS MIXING">
    <path d="m111.9 32.217 0.0508-0.19051c0.0571-0.20638 0.1143-0.44769 0.16193-0.66677h0.0127c0.0572 0.21591 0.11112 0.46039 0.16828 0.66677l0.0508 0.19051zm0.66677 0.85728h0.49532l-0.6509-2.0702h-0.55881l-0.6509 2.0702h0.47627l0.127-0.49214h0.63502z"/>
    <path d="m113.28 33.074h0.43182v-0.75885c0-0.20321-0.0381-0.50484-0.0603-0.70487h0.0127l0.16511 0.47944 0.31751 0.8033h0.18733l0.32068-0.8033 0.16828-0.47944h0.0127c-0.0222 0.20003-0.0603 0.50167-0.0603 0.70487v0.75885h0.43816v-2.0702h-0.49532l-0.33656 0.9303-0.12382 0.36196h-0.0127l-0.12382-0.36196-0.34609-0.9303h-0.49532z"/>
    <path d="m115.7 33.074h0.76837c0.45087 0 0.80648-0.18733 0.80648-0.60962 0-0.27623-0.15558-0.43181-0.45087-0.48579v-0.0127c0.24131-0.0635 0.34926-0.26353 0.34926-0.44769 0-0.39689-0.33338-0.51437-0.7652-0.51437h-0.70804zm0.46991-1.2351v-0.47309h0.22226c0.21591 0 0.32386 0.0635 0.32386 0.21908 0 0.15558-0.1016 0.25401-0.33021 0.25401zm0 0.87315v-0.54294h0.26036c0.25718 0 0.38736 0.07938 0.38736 0.26036 0 0.18733-0.13335 0.28258-0.38736 0.28258z"/>
    <path d="m117.62 33.074h0.46991v-2.0702h-0.46991z"/>
    <path d="m118.44 32.814c0.21273 0.19686 0.49849 0.29846 0.76837 0.29846 0.49214 0 0.7779-0.29846 0.7779-0.64137 0-0.29211-0.15875-0.46039-0.40959-0.56199l-0.26353-0.10795c-0.18098-0.07303-0.31751-0.11748-0.31751-0.24448 0-0.11748 0.10478-0.18733 0.26353-0.18733 0.16511 0 0.29529 0.06033 0.43182 0.16511l0.23495-0.29528c-0.1778-0.1778-0.42863-0.27306-0.66677-0.27306-0.42864 0-0.73662 0.27306-0.73662 0.61597 0 0.30164 0.20321 0.47944 0.41911 0.56517l0.26671 0.1143c0.18098 0.0762 0.29846 0.11748 0.29846 0.24766 0 0.12383-0.0952 0.20003-0.28893 0.20003-0.17146 0-0.36197-0.0889-0.50802-0.21591z"/>
    <path d="m121.17 33.112c0.55882 0 0.93983-0.40641 0.93983-1.0827 0-0.67312-0.38101-1.0637-0.93983-1.0637-0.55564 0-0.93983 0.38736-0.93983 1.0637 0 0.6763 0.38419 1.0827 0.93983 1.0827zm0-0.40324c-0.27941 0-0.46039-0.26353-0.46039-0.67947 0-0.41276 0.18098-0.66042 0.46039-0.66042 0.28258 0 0.46039 0.24766 0.46039 0.66042 0 0.41594-0.17781 0.67947-0.46039 0.67947z"/>
    <path d="m122.5 33.074h0.44769v-0.73345c0-0.24448-0.0381-0.52072-0.0603-0.74932h0.0127l0.20321 0.45086 0.53976 1.0319h0.47944v-2.0702h-0.44454v0.73027c0 0.24448 0.0381 0.53659 0.0603 0.75567h-0.0127l-0.20639-0.45722-0.53976-1.0287h-0.47944z"/>
    <path d="m124.61 33.074h0.46992v-2.0702h-0.46992z"/>
    <path d="m125.47 32.052c0 0.69535 0.43817 1.0605 0.97476 1.0605 0.25718 0 0.48579-0.10478 0.65725-0.30481l-0.25719-0.28258c-0.1016 0.11113-0.22225 0.18416-0.39371 0.18416-0.30163 0-0.50167-0.24766-0.50167-0.67312 0-0.41594 0.22544-0.66677 0.51437-0.66677 0.14606 0 0.24448 0.06033 0.34926 0.15558l0.25719-0.28893c-0.13971-0.14288-0.35562-0.26988-0.6128-0.26988-0.53342 0-0.98746 0.40006-0.98746 1.0859z"/>
    <path d="m127.19 32.814c0.21273 0.19686 0.49849 0.29846 0.76837 0.29846 0.49214 0 0.7779-0.29846 0.7779-0.64137 0-0.29211-0.15875-0.46039-0.40959-0.56199l-0.26353-0.10795c-0.18098-0.07303-0.31751-0.11748-0.31751-0.24448 0-0.11748 0.10478-0.18733 0.26353-0.18733 0.16511 0 0.29529 0.06033 0.43182 0.16511l0.23495-0.29528c-0.1778-0.1778-0.42864-0.27306-0.66677-0.27306-0.42864 0-0.73662 0.27306-0.73662 0.61597 0 0.30164 0.20321 0.47944 0.41911 0.56517l0.26671 0.1143c0.18098 0.0762 0.29846 0.11748 0.29846 0.24766 0 0.12383-0.0953 0.20003-0.28893 0.20003-0.17146 0-0.36197-0.0889-0.50802-0.21591z"/>
    <path d="m115.15 37.074h0.43181v-0.75885c0-0.20321-0.0381-0.50484-0.0603-0.70487h0.0127l0.16511 0.47944 0.31751 0.8033h0.18733l0.32068-0.8033 0.16828-0.47944h0.0127c-0.0222 0.20003-0.0603 0.50167-0.0603 0.70487v0.75885h0.43816v-2.0702h-0.49531l-0.33656 0.9303-0.12383 0.36196h-0.0127l-0.12383-0.36196-0.34609-0.9303h-0.49531z"/>
    <path d="m117.57 37.074h0.46991v-2.0702h-0.46991z"/>
    <path d="m118.31 37.074h0.49849l0.19368-0.42229c0.0476-0.10795 0.0921-0.21273 0.14288-0.33974h0.0127c0.054 0.127 0.1016 0.23178 0.15558 0.33974l0.20321 0.42229h0.52071l-0.57152-1.0414 0.5366-1.0287h-0.49849l-0.16511 0.39054c-0.0413 0.09525-0.0825 0.20321-0.13018 0.33339h-0.0127c-0.0603-0.13018-0.10478-0.23813-0.1524-0.33339l-0.17781-0.39054h-0.52389l0.53977 1.0065z"/>
    <path d="m120.32 37.074h0.46991v-2.0702h-0.46991z"/>
    <path d="m121.27 37.074h0.44769v-0.73345c0-0.24448-0.0381-0.52072-0.0603-0.74932h0.0127l0.20321 0.45086 0.53976 1.0319h0.47944v-2.0702h-0.44451v0.73027c0 0.24448 0.0381 0.53659 0.0603 0.75567h-0.0127l-0.20639-0.45722-0.53976-1.0287h-0.47944z"/>
    <path d="m123.28 36.051c0 0.69535 0.44452 1.0605 1.0033 1.0605 0.28893 0 0.54611-0.12065 0.69534-0.25083v-0.95253h-0.75885v0.38101h0.34291v0.35561c-0.0508 0.04128-0.13652 0.0635-0.21908 0.0635-0.39053 0-0.58422-0.24766-0.58422-0.67312 0-0.41594 0.22861-0.66677 0.54612-0.66677 0.17781 0 0.27624 0.06033 0.38101 0.15558l0.25719-0.28893c-0.13971-0.1397-0.35244-0.26988-0.64455-0.26988-0.56199 0-1.0192 0.40006-1.0192 1.0859z"/>
   </g>
   <rect x="102" y="32.285" width="3.9689" height="3.9689" fill="#2f3744" stroke="#7b8694" stroke-linecap="square" stroke-miterlimit="40"/>
  </g>
 </g>
 <path d="m84.927 34.27h16.03" fill="none" stroke="#7893ea" stroke-dashoffset="1.2" stroke-linecap="square" stroke-width=".26459"/>
 <g transform="matrix(.0031775 0 0 -.0032319 100.15 35.137)" fill="#47d58a" stroke-width="82.566">
  <g fill="#47d58a" stroke-width="82.566">
   <path d="m486.41 221.41-364.07-208.5c-52.938-30.318-95.852-5.44-95.852 55.563v415.65c0 61.004 42.914 85.882 95.852 55.563l364.07-208.49c52.938-30.317 52.938-79.473 0-109.79z" fill="#7893ea" stroke-width="82.566"/>
  </g>
 </g>
 <rect x="80.828" y="32.285" width="3.9689" height="3.9689" fill="#2f3744" stroke="#7b8694" stroke-linecap="square" stroke-miterlimit="40" stroke-width=".26459"/>
 <path d="m190.76 10.457h16.03" fill="none" stroke="#7893ea" stroke-dashoffset="1.2" stroke-linecap="square" stroke-width=".26459"/>
 <g>
  <g transform="matrix(.0031775 0 0 -.0032319 205.98 11.323)" fill="#47d58a" stroke-width="82.566">
   <g fill="#47d58a" stroke-width="82.566">
    <path d="m486.41 221.41-364.07-208.5c-52.938-30.318-95.852-5.44-95.852 55.563v415.65c0 61.004 42.914 85.882 95.852 55.563l364.07-208.49c52.938-30.317 52.938-79.473 0-109.79z" fill="#7893ea" stroke-width="82.566"/>
   </g>
  </g>
  <g stroke-width=".26459">
   <rect x="186.66" y="8.4721" width="3.9689" height="3.9689" fill="#2f3744" stroke="#7b8694" stroke-linecap="square" stroke-miterlimit="40"/>
   <g stroke-linecap="round">
    <g fill="#e8eaec" aria-label="audio out">
     <path d="m194.4 7.641c0 0.27623 0.19368 0.43816 0.45404 0.43816 0.19051 0 0.36196-0.1016 0.51119-0.22226h6e-3l0.0222 0.18416h0.2159v-0.94618c0-0.38419-0.15875-0.63502-0.53659-0.63502-0.24766 0-0.46356 0.10795-0.60644 0.20003l0.10478 0.18098c0.12065-0.082553 0.2794-0.16511 0.46039-0.16511 0.25083 0 0.31751 0.19051 0.31751 0.38736-0.65725 0.073027-0.94936 0.24131-0.94936 0.57787zm0.25718-0.019051c0-0.19686 0.17463-0.32386 0.69218-0.38736v0.42864c-0.14923 0.13335-0.27306 0.20638-0.42229 0.20638-0.15241 0-0.26989-0.073027-0.26989-0.24766z"/>
     <path d="m196.08 7.4759c0 0.39371 0.14605 0.60327 0.47309 0.60327 0.21273 0 0.36513-0.11113 0.50801-0.27941h0.01l0.0222 0.24131h0.21591v-1.5431h-0.26036v1.0954c-0.14605 0.18098-0.25718 0.26036-0.41594 0.26036-0.2032 0-0.28893-0.12383-0.28893-0.41276v-0.943h-0.26353z"/>
     <path d="m197.72 7.2727c0 0.51437 0.25084 0.80648 0.6382 0.80648 0.18098 0 0.34608-0.1016 0.46674-0.21908h0.01l0.0222 0.18098h0.21591v-2.2607h-0.26354v0.59374l0.0127 0.26353c-0.13653-0.11113-0.254-0.17781-0.43181-0.17781-0.35244 0-0.66995 0.31116-0.66995 0.81283zm0.26989-0.00318c0-0.35244 0.19685-0.59057 0.44451-0.59057 0.12701 0 0.24448 0.044451 0.37466 0.16193v0.80648c-0.127 0.14288-0.25083 0.21273-0.39371 0.21273-0.26988 0-0.42546-0.22226-0.42546-0.59057z"/>
     <path d="m199.73 6.1805c0.10161 0 0.18099-0.069852 0.18099-0.16828 0-0.1016-0.0794-0.16828-0.18099-0.16828-0.1016 0-0.18098 0.066677-0.18098 0.16828 0 0.098428 0.0794 0.16828 0.18098 0.16828zm-0.13335 1.8606h0.26036v-1.5431h-0.26036z"/>
     <path d="m200.26 7.2727c0 0.51119 0.33656 0.80648 0.7144 0.80648 0.37783 0 0.71439-0.29528 0.71439-0.80648 0-0.51754-0.33656-0.81283-0.71439-0.81283-0.37784 0-0.7144 0.29528-0.7144 0.81283zm0.26988 0c0-0.35561 0.18098-0.59692 0.44452-0.59692 0.26671 0 0.44451 0.24131 0.44451 0.59692 0 0.35244-0.1778 0.59057-0.44451 0.59057-0.26354 0-0.44452-0.23813-0.44452-0.59057z"/>
     <path d="m202.63 7.2727c0 0.51119 0.33656 0.80648 0.7144 0.80648 0.37783 0 0.7144-0.29528 0.7144-0.80648 0-0.51754-0.33657-0.81283-0.7144-0.81283-0.37784 0-0.7144 0.29528-0.7144 0.81283zm0.26988 0c0-0.35561 0.18098-0.59692 0.44452-0.59692 0.26671 0 0.44451 0.24131 0.44451 0.59692 0 0.35244-0.1778 0.59057-0.44451 0.59057-0.26354 0-0.44452-0.23813-0.44452-0.59057z"/>
     <path d="m204.44 7.4759c0 0.39371 0.14605 0.60327 0.47309 0.60327 0.21273 0 0.36513-0.11113 0.50801-0.27941h0.01l0.0222 0.24131h0.2159v-1.5431h-0.26036v1.0954c-0.14605 0.18098-0.25718 0.26036-0.41593 0.26036-0.20321 0-0.28894-0.12383-0.28894-0.41276v-0.943h-0.26353z"/>
     <path d="m206.24 7.5648c0 0.30481 0.11113 0.51437 0.44134 0.51437 0.0952 0 0.20003-0.028576 0.28576-0.057152l-0.0508-0.19686c-0.0508 0.019051-0.12065 0.041276-0.17463 0.041276-0.1778 0-0.23813-0.10795-0.23813-0.29846v-0.85728h0.41594v-0.21273h-0.41594v-0.43181h-0.21908l-0.0317 0.43181-0.24131 0.015875v0.19686h0.22861z"/>
    </g>
    <path d="m163.02 0.1323-4.1342 3.7043v13.23l4.1342 3.7043h19.514l4.1342-3.7043v-13.23l-4.1342-3.7043z" fill="#2f3744" stroke="#7b8694"/>
    <g fill="#e8eaec" aria-label="MIXER">
     <path d="m168.76 11.642h0.43181v-0.75885c0-0.20321-0.0381-0.50484-0.0603-0.70487h0.0127l0.1651 0.47944 0.31751 0.8033h0.18733l0.32069-0.8033 0.16828-0.47944h0.0127c-0.0222 0.20003-0.0603 0.50167-0.0603 0.70487v0.75885h0.43817v-2.0702h-0.49532l-0.33656 0.9303-0.12383 0.36196h-0.0127l-0.12383-0.36196-0.34608-0.9303h-0.49532z"/>
     <path d="m171.18 11.642h0.46992v-2.0702h-0.46992z"/>
     <path d="m171.93 11.642h0.49849l0.19368-0.42229c0.0476-0.10795 0.0921-0.21273 0.14288-0.33974h0.0127c0.054 0.127 0.10161 0.23178 0.15558 0.33974l0.20321 0.42229h0.52072l-0.57152-1.0414 0.53659-1.0287h-0.49849l-0.16511 0.39054c-0.0413 0.095253-0.0825 0.20321-0.13017 0.33339h-0.0127c-0.0603-0.13018-0.10478-0.23813-0.15241-0.33339l-0.17781-0.39054h-0.52389l0.53977 1.0065z"/>
     <path d="m173.94 11.642h1.3304v-0.39371h-0.86045v-0.47626h0.70487v-0.39054h-0.70487v-0.41594h0.8287v-0.39371h-1.2986z"/>
     <path d="m176.14 9.9434h0.23813c0.24448 0 0.37784 0.069852 0.37784 0.27306 0 0.20321-0.13336 0.30798-0.37784 0.30798h-0.23813zm1.1748 1.6987-0.46674-0.8287c0.21908-0.09843 0.36831-0.29211 0.36831-0.59692 0-0.49214-0.36196-0.64455-0.80013-0.64455h-0.74615v2.0702h0.46992v-0.74615h0.25401l0.39688 0.74615z"/>
    </g>
   </g>
   <rect x="154.91" y="8.4721" width="3.9689" height="3.9689" fill="#2f3744" stroke="#7b8694" stroke-linecap="square" stroke-miterlimit="40"/>
  </g>
 </g>
 <path d="m137.85 10.457h16.03" fill="none" stroke="#7893ea" stroke-dashoffset="1.2" stroke-linecap="square" stroke-width=".26459"/>
 <g>
  <g transform="matrix(.0031775 0 0 -.0032319 153.06 11.323)" fill="#47d58a" stroke-width="82.566">
   <g fill="#47d58a" stroke-width="82.566">
    <path d="m486.41 221.41-364.07-208.5c-52.938-30.318-95.852-5.44-95.852 55.563v415.65c0 61.004 42.914 85.882 95.852 55.563l364.07-208.49c52.938-30.317 52.938-79.473 0-109.79z" fill="#7893ea" stroke-width="82.566"/>
   </g>
  </g>
  <rect x="133.75" y="8.4721" width="3.9689" height="3.9689" fill="#2f3744" stroke="#7b8694" stroke-linecap="square" stroke-miterlimit="40" stroke-width=".26459"/>
  <rect x="133.75" y="32.285" width="3.9689" height="3.9689" fill="#2f3744" stroke="#7b8694" stroke-linecap="square" stroke-miterlimit="40" stroke-width=".26459"/>
 </g>
 <path d="m137.72 34.402h9.2607v-23.813" fill="none" stroke="#7893ea" stroke-linecap="square" stroke-width=".26459"/>
 <path d="m47.489 34.402h-7.6732v-23.813" fill="none" stroke="#7893ea" stroke-linecap="square" stroke-width=".26459"/>
</svg>
