<?xml version="1.0" encoding="UTF-8" standalone="no"?>
<svg
   xmlns:dc="http://purl.org/dc/elements/1.1/"
   xmlns:cc="http://creativecommons.org/ns#"
   xmlns:rdf="http://www.w3.org/1999/02/22-rdf-syntax-ns#"
   xmlns:svg="http://www.w3.org/2000/svg"
   xmlns="http://www.w3.org/2000/svg"
   xmlns:sodipodi="http://sodipodi.sourceforge.net/DTD/sodipodi-0.dtd"
   xmlns:inkscape="http://www.inkscape.org/namespaces/inkscape"
   width="639.7851"
   height="277.34772"
   version="1.1"
   viewBox="0 0 169.27686 73.382683"
   id="svg70"
   sodipodi:docname="chapter_audio_tech.svg"
   inkscape:version="1.0rc1 (09960d6f05, 2020-04-09)">
  <defs
     id="defs74" />
  <sodipodi:namedview
     inkscape:document-rotation="0"
     pagecolor="#ffffff"
     bordercolor="#666666"
     borderopacity="1"
     objecttolerance="10"
     gridtolerance="10"
     guidetolerance="10"
     inkscape:pageopacity="0"
     inkscape:pageshadow="2"
     inkscape:window-width="1920"
     inkscape:window-height="1017"
     id="namedview72"
     showgrid="false"
     inkscape:zoom="2.0424668"
     inkscape:cx="302.12562"
     inkscape:cy="116.85411"
     inkscape:window-x="339"
     inkscape:window-y="1432"
     inkscape:window-maximized="1"
     inkscape:current-layer="svg70" />
  <metadata
     id="metadata2">
    <rdf:RDF>
      <cc:Work
         rdf:about="">
        <dc:format>image/svg+xml</dc:format>
        <dc:type
           rdf:resource="http://purl.org/dc/dcmitype/StillImage" />
        <dc:title></dc:title>
      </cc:Work>
    </rdf:RDF>
  </metadata>
  <rect
     id="rect4"
     style="stroke-width:1;paint-order:normal"
     fill="#1d232d"
     height="70.531715"
     width="169.27902"
     y="1.4089831"
     x="-0.0010970702" />
  <g
     transform="matrix(7.2627,0,0,7.2627,-684.20554,-699.1075)"
     id="g54"
     fill="#7b8694"
     style="stroke-width:0.13769">
    <path
       inkscape:connector-curvature="0"
       id="path6"
       d="m 94.596,96.26 h 1.1654 v 0.19408 H 94.596 Z" />
    <path
       inkscape:connector-curvature="0"
       id="path8"
       d="m 96.538,96.26 h 1.1654 v 0.19408 H 96.538 Z" />
    <path
       inkscape:connector-curvature="0"
       id="path10"
       d="m 98.481,96.26 h 1.1654 v 0.19408 H 98.481 Z" />
    <path
       inkscape:connector-curvature="0"
       id="path12"
       d="m 100.42,96.26 h 1.1654 v 0.19408 H 100.42 Z" />
    <path
       inkscape:connector-curvature="0"
       id="path14"
       d="m 102.37,96.26 h 1.1654 v 0.19408 H 102.37 Z" />
    <path
       inkscape:connector-curvature="0"
       id="path16"
       d="m 104.31,96.26 h 1.1654 v 0.19408 H 104.31 Z" />
    <path
       inkscape:connector-curvature="0"
       id="path18"
       d="m 106.25,96.26 h 1.1654 v 0.19408 H 106.25 Z" />
    <path
       inkscape:connector-curvature="0"
       id="path20"
       d="m 108.19,96.26 h 1.1654 v 0.19408 H 108.19 Z" />
    <path
       inkscape:connector-curvature="0"
       id="path22"
       d="m 110.13,96.26 h 1.1654 v 0.19408 H 110.13 Z" />
    <path
       inkscape:connector-curvature="0"
       id="path24"
       d="m 112.08,96.26 h 1.1654 v 0.19408 H 112.08 Z" />
    <path
       inkscape:connector-curvature="0"
       id="path26"
       d="m 114.02,96.26 h 1.1654 v 0.19408 H 114.02 Z" />
    <path
       inkscape:connector-curvature="0"
       id="path28"
       d="m 115.96,96.26 h 1.1654 v 0.19408 H 115.96 Z" />
    <path
       inkscape:connector-curvature="0"
       id="path30"
       d="m 115.96,106.17 h 1.1654 v 0.19405 H 115.96 Z" />
    <path
       inkscape:connector-curvature="0"
       id="path32"
       d="m 114.02,106.17 h 1.1654 v 0.19405 H 114.02 Z" />
    <path
       inkscape:connector-curvature="0"
       id="path34"
       d="m 112.08,106.17 h 1.1654 v 0.19405 H 112.08 Z" />
    <path
       inkscape:connector-curvature="0"
       id="path36"
       d="m 110.13,106.17 h 1.1654 v 0.19405 H 110.13 Z" />
    <path
       inkscape:connector-curvature="0"
       id="path38"
       d="m 108.19,106.17 h 1.1654 v 0.19405 H 108.19 Z" />
    <path
       inkscape:connector-curvature="0"
       id="path40"
       d="m 106.25,106.17 h 1.1654 v 0.19405 H 106.25 Z" />
    <path
       inkscape:connector-curvature="0"
       id="path42"
       d="m 104.31,106.17 h 1.1654 v 0.19405 H 104.31 Z" />
    <path
       inkscape:connector-curvature="0"
       id="path44"
       d="m 102.37,106.17 h 1.1654 v 0.19405 H 102.37 Z" />
    <path
       inkscape:connector-curvature="0"
       id="path46"
       d="m 100.42,106.17 h 1.1654 v 0.19405 H 100.42 Z" />
    <path
       inkscape:connector-curvature="0"
       id="path48"
       d="m 98.481,106.17 h 1.1654 v 0.19405 H 98.481 Z" />
    <path
       inkscape:connector-curvature="0"
       id="path50"
       d="m 96.538,106.17 h 1.1654 v 0.19405 H 96.538 Z" />
    <path
       inkscape:connector-curvature="0"
       id="path52"
       d="m 94.596,106.17 h 1.1654 v 0.19405 H 94.596 Z" />
  </g>
  <path
     sodipodi:nodetypes="cc"
     inkscape:connector-curvature="0"
     id="path5532"
     d="M 84.36723,6.3829376 V 26.376747"
     style="fill:none;fill-opacity:1;stroke:#7893ea;stroke-width:0.451579;stroke-linecap:square;stroke-miterlimit:21.1429;stroke-dasharray:none;stroke-dashoffset:1.2;stroke-opacity:1" />
  <path
     id="path5365"
     style="opacity:1;fill:#2f3744;fill-opacity:1;stroke:#7b8694;stroke-width:0.451579;stroke-linecap:round;stroke-miterlimit:21.1429;stroke-dasharray:none;stroke-opacity:1"
     d="m 114.61203,35.929045 -3.75305,-4.188662 H 59.924817 l -3.753043,4.188662 v 19.770501 l 3.753043,4.188669 h 50.934163 l 3.75305,-4.188669 z"
     inkscape:connector-curvature="0"
     sodipodi:nodetypes="ccccccccc" />
  <rect
     y="-107.77091"
     x="27.719257"
     height="4.0211186"
     width="4.0211186"
     id="rect5371"
     style="fill:#2f3744;fill-opacity:1;stroke:#7b8694;stroke-width:0.451579;stroke-linecap:square;stroke-miterlimit:21.1429;stroke-dasharray:none;stroke-dashoffset:0;stroke-opacity:1"
     transform="rotate(90)" />
  <rect
     style="fill:#2f3744;fill-opacity:1;stroke:#7b8694;stroke-width:0.451579;stroke-linecap:square;stroke-miterlimit:21.1429;stroke-dasharray:none;stroke-dashoffset:0;stroke-opacity:1"
     id="rect5373"
     width="4.0211186"
     height="4.0211186"
     x="27.719257"
     y="-102.40941"
     transform="rotate(90)" />
  <rect
     y="-97.047913"
     x="27.719257"
     height="4.0211186"
     width="4.0211186"
     id="rect5375"
     style="fill:#2f3744;fill-opacity:1;stroke:#7b8694;stroke-width:0.451579;stroke-linecap:square;stroke-miterlimit:21.1429;stroke-dasharray:none;stroke-dashoffset:0;stroke-opacity:1"
     transform="rotate(90)" />
  <rect
     style="fill:#2f3744;fill-opacity:1;stroke:#7b8694;stroke-width:0.451579;stroke-linecap:square;stroke-miterlimit:21.1429;stroke-dasharray:none;stroke-dashoffset:0;stroke-opacity:1"
     id="rect5395"
     width="4.0211186"
     height="4.0211186"
     x="27.719257"
     y="-91.686417"
     transform="rotate(90)" />
  <rect
     y="-86.324944"
     x="27.719257"
     height="4.0211186"
     width="4.0211186"
     id="rect5397"
     style="fill:#2f3744;fill-opacity:1;stroke:#7b8694;stroke-width:0.451579;stroke-linecap:square;stroke-miterlimit:21.1429;stroke-dasharray:none;stroke-dashoffset:0;stroke-opacity:1"
     transform="rotate(90)" />
  <rect
     style="fill:#2f3744;fill-opacity:1;stroke:#7b8694;stroke-width:0.451579;stroke-linecap:square;stroke-miterlimit:21.1429;stroke-dasharray:none;stroke-dashoffset:0;stroke-opacity:1"
     id="rect5399"
     width="4.0211186"
     height="4.0211186"
     x="27.719257"
     y="-80.96344"
     transform="rotate(90)" />
  <rect
     y="-75.601944"
     x="27.719257"
     height="4.0211186"
     width="4.0211186"
     id="rect5401"
     style="fill:#2f3744;fill-opacity:1;stroke:#7b8694;stroke-width:0.451579;stroke-linecap:square;stroke-miterlimit:21.1429;stroke-dasharray:none;stroke-dashoffset:0;stroke-opacity:1"
     transform="rotate(90)" />
  <rect
     style="fill:#2f3744;fill-opacity:1;stroke:#7b8694;stroke-width:0.451579;stroke-linecap:square;stroke-miterlimit:21.1429;stroke-dasharray:none;stroke-dashoffset:0;stroke-opacity:1"
     id="rect5403"
     width="4.0211186"
     height="4.0211186"
     x="27.719257"
     y="-70.24044"
     transform="rotate(90)" />
  <rect
     y="-64.878944"
     x="27.719257"
     height="4.0211186"
     width="4.0211186"
     id="rect5405"
     style="fill:#2f3744;fill-opacity:1;stroke:#7b8694;stroke-width:0.451579;stroke-linecap:square;stroke-miterlimit:21.1429;stroke-dasharray:none;stroke-dashoffset:0;stroke-opacity:1"
     transform="rotate(90)" />
  <rect
     style="fill:#2f3744;fill-opacity:1;stroke:#7b8694;stroke-width:0.451579;stroke-linecap:square;stroke-miterlimit:21.1429;stroke-dasharray:none;stroke-dashoffset:0;stroke-opacity:1"
     id="rect5407"
     width="4.0211186"
     height="4.0211186"
     x="59.888229"
     y="-86.324944"
     transform="rotate(90)" />
  <g
     id="g5481"
     transform="matrix(0,0.00321934,-0.00327447,0,106.69146,25.89319)"
     style="opacity:1;fill:#7893ea;fill-opacity:1;stroke-width:139.085;stroke-miterlimit:21.1429;stroke-dasharray:none"
     inkscape:export-xdpi="96"
     inkscape:export-ydpi="96">
    <g
       id="g5479"
       style="fill:#7893ea;fill-opacity:1;stroke-width:139.085;stroke-miterlimit:21.1429;stroke-dasharray:none">
      <path
         id="path5477"
         d="M 486.413,221.412 122.347,12.916 C 69.409,-17.402 26.495,7.476 26.495,68.479 v 415.652 c 0,61.004 42.914,85.882 95.852,55.563 l 364.066,-208.49 c 52.938,-30.317 52.938,-79.473 0,-109.792 z"
         inkscape:connector-curvature="0"
         style="fill:#7893ea;fill-opacity:1;stroke-width:139.085;stroke-miterlimit:21.1429;stroke-dasharray:none" />
    </g>
  </g>
  <g
     inkscape:export-ydpi="96"
     inkscape:export-xdpi="96"
     style="opacity:1;fill:#7893ea;fill-opacity:1;stroke-width:139.085;stroke-miterlimit:21.1429;stroke-dasharray:none"
     transform="matrix(0,0.00321934,-0.00327447,0,101.32998,25.89319)"
     id="g5487">
    <g
       style="fill:#7893ea;fill-opacity:1;stroke-width:139.085;stroke-miterlimit:21.1429;stroke-dasharray:none"
       id="g5485">
      <path
         style="fill:#7893ea;fill-opacity:1;stroke-width:139.085;stroke-miterlimit:21.1429;stroke-dasharray:none"
         inkscape:connector-curvature="0"
         d="M 486.413,221.412 122.347,12.916 C 69.409,-17.402 26.495,7.476 26.495,68.479 v 415.652 c 0,61.004 42.914,85.882 95.852,55.563 l 364.066,-208.49 c 52.938,-30.317 52.938,-79.473 0,-109.792 z"
         id="path5483" />
    </g>
  </g>
  <g
     id="g5493"
     transform="matrix(0,0.00321934,-0.00327447,0,95.968478,25.89319)"
     style="opacity:1;fill:#7893ea;fill-opacity:1;stroke-width:139.085;stroke-miterlimit:21.1429;stroke-dasharray:none"
     inkscape:export-xdpi="96"
     inkscape:export-ydpi="96">
    <g
       id="g5491"
       style="fill:#7893ea;fill-opacity:1;stroke-width:139.085;stroke-miterlimit:21.1429;stroke-dasharray:none">
      <path
         id="path5489"
         d="M 486.413,221.412 122.347,12.916 C 69.409,-17.402 26.495,7.476 26.495,68.479 v 415.652 c 0,61.004 42.914,85.882 95.852,55.563 l 364.066,-208.49 c 52.938,-30.317 52.938,-79.473 0,-109.792 z"
         inkscape:connector-curvature="0"
         style="fill:#7893ea;fill-opacity:1;stroke-width:139.085;stroke-miterlimit:21.1429;stroke-dasharray:none" />
    </g>
  </g>
  <g
     inkscape:export-ydpi="96"
     inkscape:export-xdpi="96"
     style="opacity:1;fill:#7893ea;fill-opacity:1;stroke-width:139.085;stroke-miterlimit:21.1429;stroke-dasharray:none"
     transform="matrix(0,0.00321934,-0.00327447,0,90.606992,25.89319)"
     id="g5499">
    <g
       style="fill:#7893ea;fill-opacity:1;stroke-width:139.085;stroke-miterlimit:21.1429;stroke-dasharray:none"
       id="g5497">
      <path
         style="fill:#7893ea;fill-opacity:1;stroke-width:139.085;stroke-miterlimit:21.1429;stroke-dasharray:none"
         inkscape:connector-curvature="0"
         d="M 486.413,221.412 122.347,12.916 C 69.409,-17.402 26.495,7.476 26.495,68.479 v 415.652 c 0,61.004 42.914,85.882 95.852,55.563 l 364.066,-208.49 c 52.938,-30.317 52.938,-79.473 0,-109.792 z"
         id="path5495" />
    </g>
  </g>
  <g
     id="g5505"
     transform="matrix(0,0.00321934,-0.00327447,0,85.2455,25.89319)"
     style="opacity:1;fill:#7893ea;fill-opacity:1;stroke-width:139.085;stroke-miterlimit:21.1429;stroke-dasharray:none"
     inkscape:export-xdpi="96"
     inkscape:export-ydpi="96">
    <g
       id="g5503"
       style="fill:#7893ea;fill-opacity:1;stroke-width:139.085;stroke-miterlimit:21.1429;stroke-dasharray:none">
      <path
         id="path5501"
         d="M 486.413,221.412 122.347,12.916 C 69.409,-17.402 26.495,7.476 26.495,68.479 v 415.652 c 0,61.004 42.914,85.882 95.852,55.563 l 364.066,-208.49 c 52.938,-30.317 52.938,-79.473 0,-109.792 z"
         inkscape:connector-curvature="0"
         style="fill:#7893ea;fill-opacity:1;stroke-width:139.085;stroke-miterlimit:21.1429;stroke-dasharray:none" />
    </g>
  </g>
  <g
     inkscape:export-ydpi="96"
     inkscape:export-xdpi="96"
     style="opacity:1;fill:#7893ea;fill-opacity:1;stroke-width:139.085;stroke-miterlimit:21.1429;stroke-dasharray:none"
     transform="matrix(0,0.00321934,-0.00327447,0,79.884014,25.89319)"
     id="g5512">
    <g
       style="fill:#7893ea;fill-opacity:1;stroke-width:139.085;stroke-miterlimit:21.1429;stroke-dasharray:none"
       id="g5510">
      <path
         style="fill:#7893ea;fill-opacity:1;stroke-width:139.085;stroke-miterlimit:21.1429;stroke-dasharray:none"
         inkscape:connector-curvature="0"
         d="M 486.413,221.412 122.347,12.916 C 69.409,-17.402 26.495,7.476 26.495,68.479 v 415.652 c 0,61.004 42.914,85.882 95.852,55.563 l 364.066,-208.49 c 52.938,-30.317 52.938,-79.473 0,-109.792 z"
         id="path5508" />
    </g>
  </g>
  <g
     id="g5518"
     transform="matrix(0,0.00321934,-0.00327447,0,74.522515,25.89319)"
     style="opacity:1;fill:#7893ea;fill-opacity:1;stroke-width:139.085;stroke-miterlimit:21.1429;stroke-dasharray:none"
     inkscape:export-xdpi="96"
     inkscape:export-ydpi="96">
    <g
       id="g5516"
       style="fill:#7893ea;fill-opacity:1;stroke-width:139.085;stroke-miterlimit:21.1429;stroke-dasharray:none">
      <path
         id="path5514"
         d="M 486.413,221.412 122.347,12.916 C 69.409,-17.402 26.495,7.476 26.495,68.479 v 415.652 c 0,61.004 42.914,85.882 95.852,55.563 l 364.066,-208.49 c 52.938,-30.317 52.938,-79.473 0,-109.792 z"
         inkscape:connector-curvature="0"
         style="fill:#7893ea;fill-opacity:1;stroke-width:139.085;stroke-miterlimit:21.1429;stroke-dasharray:none" />
    </g>
  </g>
  <g
     inkscape:export-ydpi="96"
     inkscape:export-xdpi="96"
     style="opacity:1;fill:#7893ea;fill-opacity:1;stroke-width:139.085;stroke-miterlimit:21.1429;stroke-dasharray:none"
     transform="matrix(0,0.00321934,-0.00327447,0,69.161029,25.89319)"
     id="g5524">
    <g
       style="fill:#7893ea;fill-opacity:1;stroke-width:139.085;stroke-miterlimit:21.1429;stroke-dasharray:none"
       id="g5522">
      <path
         style="fill:#7893ea;fill-opacity:1;stroke-width:139.085;stroke-miterlimit:21.1429;stroke-dasharray:none"
         inkscape:connector-curvature="0"
         d="M 486.413,221.412 122.347,12.916 C 69.409,-17.402 26.495,7.476 26.495,68.479 v 415.652 c 0,61.004 42.914,85.882 95.852,55.563 l 364.066,-208.49 c 52.938,-30.317 52.938,-79.473 0,-109.792 z"
         id="path5520" />
    </g>
  </g>
  <g
     id="g5530"
     transform="matrix(0,0.00321934,-0.00327447,0,63.799537,25.89319)"
     style="opacity:1;fill:#7893ea;fill-opacity:1;stroke-width:139.085;stroke-miterlimit:21.1429;stroke-dasharray:none"
     inkscape:export-xdpi="96"
     inkscape:export-ydpi="96">
    <g
       id="g5528"
       style="fill:#7893ea;fill-opacity:1;stroke-width:139.085;stroke-miterlimit:21.1429;stroke-dasharray:none">
      <path
         id="path5526"
         d="M 486.413,221.412 122.347,12.916 C 69.409,-17.402 26.495,7.476 26.495,68.479 v 415.652 c 0,61.004 42.914,85.882 95.852,55.563 l 364.066,-208.49 c 52.938,-30.317 52.938,-79.473 0,-109.792 z"
         inkscape:connector-curvature="0"
         style="fill:#7893ea;fill-opacity:1;stroke-width:139.085;stroke-miterlimit:21.1429;stroke-dasharray:none" />
    </g>
  </g>
  <path
     style="fill:none;fill-opacity:1;stroke:#7893ea;stroke-width:0.451579;stroke-linecap:square;stroke-miterlimit:21.1429;stroke-dasharray:none;stroke-dashoffset:1.2;stroke-opacity:1"
     d="M 89.72873,13.0848 V 26.376747"
     id="path5534"
     inkscape:connector-curvature="0"
     sodipodi:nodetypes="cc" />
  <path
     sodipodi:nodetypes="cc"
     inkscape:connector-curvature="0"
     id="path5536"
     d="M 95.090215,13.0848 V 26.376747"
     style="fill:none;fill-opacity:1;stroke:#7893ea;stroke-width:0.451579;stroke-linecap:square;stroke-miterlimit:21.1429;stroke-dasharray:none;stroke-dashoffset:1.2;stroke-opacity:1" />
  <path
     style="fill:none;fill-opacity:1;stroke:#7893ea;stroke-width:0.451579;stroke-linecap:square;stroke-miterlimit:21.1429;stroke-dasharray:none;stroke-dashoffset:1.2;stroke-opacity:1"
     d="M 100.45171,13.0848 V 26.376747"
     id="path5538"
     inkscape:connector-curvature="0"
     sodipodi:nodetypes="cc" />
  <path
     sodipodi:nodetypes="cc"
     inkscape:connector-curvature="0"
     id="path5540"
     d="M 105.8132,13.0848 V 26.376747"
     style="fill:none;fill-opacity:1;stroke:#7893ea;stroke-width:0.451579;stroke-linecap:square;stroke-miterlimit:21.1429;stroke-dasharray:none;stroke-dashoffset:1.2;stroke-opacity:1" />
  <path
     style="fill:none;fill-opacity:1;stroke:#7893ea;stroke-width:0.451579;stroke-linecap:square;stroke-miterlimit:21.1429;stroke-dasharray:none;stroke-dashoffset:1.2;stroke-opacity:1"
     d="M 79.005745,13.0848 V 26.376747"
     id="path5542"
     inkscape:connector-curvature="0"
     sodipodi:nodetypes="cc" />
  <path
     sodipodi:nodetypes="cc"
     inkscape:connector-curvature="0"
     id="path5544"
     d="M 73.644252,13.0848 V 26.376747"
     style="fill:none;fill-opacity:1;stroke:#7893ea;stroke-width:0.451579;stroke-linecap:square;stroke-miterlimit:21.1429;stroke-dasharray:none;stroke-dashoffset:1.2;stroke-opacity:1" />
  <path
     style="fill:none;fill-opacity:1;stroke:#7893ea;stroke-width:0.451579;stroke-linecap:square;stroke-miterlimit:21.1429;stroke-dasharray:none;stroke-dashoffset:1.2;stroke-opacity:1"
     d="M 68.28276,13.0848 V 26.376747"
     id="path5546"
     inkscape:connector-curvature="0"
     sodipodi:nodetypes="cc" />
  <path
     sodipodi:nodetypes="cc"
     inkscape:connector-curvature="0"
     id="path5548"
     d="M 62.921268,13.0848 V 26.376747"
     style="fill:none;fill-opacity:1;stroke:#7893ea;stroke-width:0.451579;stroke-linecap:square;stroke-miterlimit:21.1429;stroke-dasharray:none;stroke-dashoffset:1.2;stroke-opacity:1" />
  <path
     style="fill:#e9e56f;fill-opacity:1;stroke:#7893ea;stroke-width:0.451579;stroke-linecap:square;stroke-miterlimit:21.1429;stroke-dasharray:none;stroke-dashoffset:0;stroke-opacity:1"
     d="M 62.921056,13.085066 H 105.81299"
     id="path5552"
     inkscape:connector-curvature="0" />
  <path
     sodipodi:nodetypes="cssssc"
     inkscape:connector-curvature="0"
     id="path2046"
     d="m 72.939407,50.864443 c 0,0 1.909537,-9.547669 4.773838,-9.547669 3.341681,0 1.432144,9.547669 4.773839,9.547669 3.34168,0 1.432144,-9.547669 4.773824,-9.547669 3.341688,0 2.386923,9.547669 4.773838,9.547669 2.386916,0 1.90953,-9.547669 4.773839,-9.547669"
     style="fill:none;fill-opacity:1;stroke:#e8eaec;stroke-width:0.477384;stroke-linecap:round;stroke-miterlimit:4;stroke-dasharray:none;stroke-dashoffset:0;stroke-opacity:1" />
</svg>
