<?xml version="1.0" encoding="UTF-8"?>
<svg width="163.12mm" height="104.38mm" version="1.1" viewBox="0 0 163.12 104.38" xmlns="http://www.w3.org/2000/svg" xmlns:cc="http://creativecommons.org/ns#" xmlns:dc="http://purl.org/dc/elements/1.1/" xmlns:rdf="http://www.w3.org/1999/02/22-rdf-syntax-ns#">
 <metadata>
  <rdf:RDF>
   <cc:Work rdf:about="">
    <dc:format>image/svg+xml</dc:format>
    <dc:type rdf:resource="http://purl.org/dc/dcmitype/StillImage"/>
    <dc:title/>
   </cc:Work>
  </rdf:RDF>
 </metadata>
 <g transform="translate(-58.704 -167.35)">
  <g stroke-linecap="round">
   <rect x="122.34" y="227.81" width="35.851" height="16.007" fill="#2f3744" stroke="#7b8694" stroke-width=".26458"/>
   <g fill="#e8eaec" stroke-width=".26458" aria-label="MovableObject">
    <path d="m128.29 234.47v2.3114h0.24447v-1.7298l0.46673 0.91493h0.0963l0.50006-0.92974v1.7447h0.24448v-2.3114h-0.19262l-0.58156 1.1298-0.57414-1.1298z"/>
    <path d="m131.7 235.94c0-0.58526-0.37041-0.88901-0.75565-0.88901-0.42968 0-0.8001 0.37042-0.8001 0.89641 0 0.51488 0.36672 0.87789 0.7927 0.87789 0.40005 0 0.76305-0.32226 0.76305-0.88529zm-0.77417-0.66305c0.24448 0 0.50377 0.21114 0.50377 0.67416 0 0.42598-0.24448 0.64082-0.48895 0.64082-0.2704 0-0.51488-0.25188-0.51488-0.67046 0-0.41486 0.24077-0.64452 0.50006-0.64452z"/>
    <path d="m131.99 235.08 0.67046 1.7076h0.21114l0.41116-0.96678c0.10001-0.23707 0.19632-0.48155 0.25188-0.74084h-0.24077c-0.0445 0.24818-0.13335 0.48154-0.22966 0.70379l-0.2704 0.62971-0.48895-1.2372c-4e-3 -7e-3 -7e-3 -0.0148-7e-3 -0.0222 0-0.0222 0.0185-0.0445 0.0111-0.0741z"/>
    <path d="m134.03 235.28 0.12965 0.17039c0.14076-0.14446 0.32967-0.18891 0.48895-0.18891 0.20002 0 0.30004 0.0852 0.34819 0.16298 0.0556 0.0926 0.0519 0.20373 0.0519 0.29263v0.0593h-0.0519c-0.25188 0-0.51858 0-0.73343 0.0778-0.2667 0.0963-0.38523 0.29634-0.38523 0.48155 0 0.24817 0.21484 0.48154 0.56674 0.48154 0.20743 0 0.42227-0.0778 0.60748-0.22966v0.18521h0.25189v-1.0483c0-0.13706-4e-3 -0.2667-0.0815-0.40005-0.11112-0.18151-0.32596-0.27782-0.58896-0.27782-0.22595 0-0.4445 0.0704-0.60378 0.23337zm1.0298 0.70009v0.11482c0 0.0852 0 0.19633-0.11483 0.31856-0.063 0.063-0.22225 0.20003-0.4445 0.20003-0.22595 0-0.3556-0.14446-0.3556-0.29263 0-0.12594 0.0852-0.263 0.29633-0.31486 0.15558-0.037 0.38153-0.0259 0.55933-0.0259z"/>
    <path d="m135.77 234.31v2.4633h0.17409l0.0926-0.22225c0.11112 0.16668 0.29633 0.2667 0.50006 0.2667 0.34819 0 0.7075-0.29634 0.7075-0.91123 0-0.58896-0.3482-0.86307-0.68157-0.86307-0.21484 0-0.41487 0.11483-0.52229 0.30004v-0.94827c0-0.0222 4e-3 -0.0296 0.0222-0.0444 7e-3 -4e-3 0.0259-0.0185 0.0222-0.0408zm0.70009 0.96309c0.15927 0 0.49635 0.0926 0.49635 0.69268 0 0.51488-0.33337 0.61119-0.50006 0.61119-0.11483 0-0.37042-0.0444-0.41487-0.37042-0.0111-0.0852-0.0111-0.18521-0.0111-0.33338 0-0.15187 7e-3 -0.26299 0.0445-0.3556 0.063-0.15187 0.21855-0.24447 0.38524-0.24447z"/>
    <path d="m137.71 234.32v0.21484h0.48154v2.0336h-0.50377v0.21114h1.2705v-0.21114h-0.50006v-2.2484z"/>
    <path d="m140.21 235.05c-0.40376 0-0.77788 0.28893-0.77788 0.90382 0 0.56674 0.3519 0.86677 0.81121 0.86677 0.24448 0 0.46303-0.0889 0.60749-0.26299l-0.14817-0.14447c-0.10742 0.12595-0.2704 0.19262-0.43709 0.19262-0.22595 0-0.55563-0.12594-0.57415-0.63341h1.2002c0.0111-0.11483 7e-3 -0.22596-0.0111-0.32226-0.0778-0.45562-0.39264-0.60008-0.67045-0.60008zm-0.51118 0.71861c0.0556-0.40005 0.31115-0.51488 0.49266-0.51488 0.2741 0 0.47043 0.24077 0.43709 0.51488z"/>
    <path d="m142.85 235.63c0-0.21484-0.0148-0.50006-0.14076-0.74824-0.15187-0.29633-0.41487-0.43339-0.66675-0.43339-0.34449 0-0.82973 0.2667-0.82973 1.1742 0 0.90752 0.47783 1.1927 0.83344 1.1927 0.24817 0 0.51487-0.14076 0.66675-0.44821 0.12223-0.24817 0.13705-0.5334 0.13705-0.73713zm-0.81862-0.94085c0.16298 0 0.36301 0.0963 0.47043 0.36671 0.0778 0.19262 0.0889 0.41487 0.0889 0.60748 0 0.15187-7e-3 0.38894-0.10372 0.58526-0.10742 0.22596-0.28522 0.31486-0.44079 0.31486-0.2593 0-0.57786-0.24078-0.57786-0.9742 0-0.68898 0.32227-0.90011 0.56304-0.90011z"/>
    <path d="m143.18 234.31v2.4633h0.17409l0.0926-0.22225c0.11112 0.16668 0.29633 0.2667 0.50006 0.2667 0.34819 0 0.7075-0.29634 0.7075-0.91123 0-0.58896-0.3482-0.86307-0.68157-0.86307-0.21484 0-0.41487 0.11483-0.52229 0.30004v-0.94827c0-0.0222 4e-3 -0.0296 0.0222-0.0444 7e-3 -4e-3 0.0259-0.0185 0.0222-0.0408zm0.70009 0.96309c0.15927 0 0.49635 0.0926 0.49635 0.69268 0 0.51488-0.33337 0.61119-0.50006 0.61119-0.11483 0-0.37042-0.0444-0.41487-0.37042-0.0111-0.0852-0.0111-0.18521-0.0111-0.33338 0-0.15187 7e-3 -0.26299 0.0444-0.3556 0.063-0.15187 0.21855-0.24447 0.38524-0.24447z"/>
    <path d="m145.28 235.08v0.22225h0.63341v1.4039c0 0.0926-4e-3 0.18151-0.0444 0.27041-0.063 0.13705-0.19632 0.21484-0.34078 0.21484-0.20373 0-0.31486-0.14817-0.32968-0.17039-0.0148-0.0259-7e-3 -0.0482-0.0333-0.0667l-0.17039 0.22966c0.12223 0.15187 0.30744 0.23707 0.51488 0.23707 0.24447 0 0.47783-0.11483 0.59266-0.33708 0.0741-0.14446 0.0778-0.28152 0.0778-0.42598v-1.578zm0.77046-0.73342c-0.10742 0-0.19261 0.0852-0.19261 0.18891 0 0.10372 0.0852 0.18891 0.19261 0.18891 0.10372 0 0.18892-0.0852 0.18892-0.18891 0-0.10372-0.0852-0.18891-0.18892-0.18891z"/>
    <path d="m147.62 235.05c-0.40376 0-0.77788 0.28893-0.77788 0.90382 0 0.56674 0.3519 0.86677 0.81121 0.86677 0.24448 0 0.46303-0.0889 0.60749-0.26299l-0.14817-0.14447c-0.10742 0.12595-0.2704 0.19262-0.43709 0.19262-0.22596 0-0.55563-0.12594-0.57415-0.63341h1.2002c0.0111-0.11483 7e-3 -0.22596-0.0111-0.32226-0.0778-0.45562-0.39264-0.60008-0.67045-0.60008zm-0.51118 0.71861c0.0556-0.40005 0.31115-0.51488 0.49266-0.51488 0.2741 0 0.47043 0.24077 0.43709 0.51488z"/>
    <path d="m150.21 235.37c-0.13335-0.19632-0.35931-0.31486-0.63342-0.31486-0.49635 0-0.84825 0.37413-0.84825 0.8816 0 0.51117 0.3519 0.889 0.83344 0.889 0.23336 0 0.46302-0.0963 0.6223-0.27041l-0.15187-0.1778c-0.11483 0.12965-0.28152 0.20373-0.44821 0.20373-0.32967 0-0.58155-0.27411-0.58155-0.67045 0-0.38524 0.24818-0.62601 0.55933-0.62601 0.28892 0 0.42598 0.20003 0.43709 0.22225 0.0148 0.0259-7e-3 0.063 0.0222 0.0852z"/>
    <path d="m151.06 234.63-0.0333 0.45562h-0.40376l-4e-3 0.21854h0.39634c-0.0222 0.28893-0.0333 0.57785-0.0333 0.86307 0 0.15187 0 0.32227 0.10001 0.46302 0.0815 0.11113 0.21114 0.17781 0.38523 0.17781 0.20003 0 0.39635-0.0852 0.54081-0.18892l-0.0815-0.21114c-0.14446 0.10743-0.27781 0.15558-0.38153 0.15558-0.12594 0-0.25559-0.0704-0.28522-0.27411 0-0.0148-0.0111-0.0778-0.0111-0.32597 0-0.21854 0.0111-0.44079 0.0333-0.65934h0.55563v-0.22225h-0.55192s0.0259-0.30374 0.0445-0.40005c4e-3 -0.037 0.0333-0.0593 0.0185-0.10001z"/>
   </g>
   <rect x="111.75" y="256.91" width="33.205" height="14.684" fill="#2f3744" stroke="#7b8694" stroke-width=".26458"/>
   <g fill="#e8eaec" stroke-width=".26458" aria-label="Mage">
    <path d="m124.72 258.55v2.3114h0.24448v-1.7298l0.46672 0.91493h0.0963l0.50006-0.92974v1.7447h0.24448v-2.3114h-0.19261l-0.58155 1.1298-0.57415-1.1298z"/>
    <path d="m126.76 259.36 0.12965 0.1704c0.14076-0.14447 0.32967-0.18892 0.48895-0.18892 0.20003 0 0.30004 0.0852 0.34819 0.16299 0.0556 0.0926 0.0519 0.20373 0.0519 0.29263v0.0593h-0.0519c-0.25188 0-0.51858 0-0.73342 0.0778-0.2667 0.0963-0.38524 0.29633-0.38524 0.48154 0 0.24818 0.21484 0.48154 0.56674 0.48154 0.20743 0 0.42228-0.0778 0.60748-0.22965v0.1852h0.25189v-1.0483c0-0.13705-4e-3 -0.2667-0.0815-0.40005-0.11113-0.1815-0.32597-0.27781-0.58897-0.27781-0.22595 0-0.4445 0.0704-0.60378 0.23336zm1.0298 0.70009v0.11483c0 0.0852 0 0.19632-0.11483 0.31856-0.063 0.063-0.22225 0.20003-0.4445 0.20003-0.22595 0-0.3556-0.14447-0.3556-0.29263 0-0.12595 0.0852-0.263 0.29634-0.31486 0.15557-0.037 0.38153-0.0259 0.55933-0.0259z"/>
    <path d="m128.74 259.69c0-0.20373 0.1704-0.37042 0.37413-0.37042 0.20743 0 0.37412 0.16669 0.37412 0.37042 0 0.20372-0.16669 0.37041-0.37412 0.37041-0.20744 0-0.37413-0.16669-0.37413-0.37041zm0.38894-0.58156c-0.33708 0-0.62971 0.2667-0.62971 0.59637 0 0.18521 0.0926 0.35931 0.24818 0.45932-0.12223 0.10372-0.19261 0.21855-0.19261 0.32597 0 0.0704 0.0296 0.17039 0.13705 0.22595-0.1815 0.11483-0.27411 0.24077-0.27411 0.37412 0 0.18521 0.17039 0.40376 0.76306 0.40376 0.57415 0 0.78158-0.29263 0.78158-0.51859 0-0.14816-0.0852-0.29633-0.26299-0.36671-0.17781-0.0741-0.38153-0.0482-0.57415-0.0482-0.12594 0-0.20743-0.0111-0.24077-0.0222-0.0667-0.0185-0.10372-0.0593-0.10372-0.11112 0-0.0889 0.10372-0.1741 0.12224-0.18892 0.0667 0.0259 0.14076 0.037 0.21484 0.037 0.33338 0 0.60748-0.2667 0.60748-0.57785 0-0.10371-0.0296-0.20373-0.0852-0.28892 0.0889-0.0519 0.19262-0.0815 0.29633-0.0815 0.0333 0 0.063 4e-3 0.0963 0.0111l-0.0296-0.21855c-0.17039-0.0148-0.34079 0.0408-0.47043 0.14817-0.10742-0.10372-0.24818-0.15928-0.40376-0.15928zm-0.25558 1.6558c0.063 7e-3 0.15187 0.0148 0.28151 0.0222 0.12594 4e-3 0.263-7e-3 0.35931 7e-3 0.15557 0.0259 0.20373 0.12224 0.20373 0.19632 0 0.0741-0.0444 0.16298-0.15928 0.22595-0.12595 0.0667-0.2667 0.0741-0.38153 0.0741-0.0778 0-0.22225-4e-3 -0.34819-0.0556-0.13706-0.0556-0.16669-0.14816-0.16669-0.20743 0-0.12224 0.11483-0.21114 0.21114-0.263z"/>
    <path d="m131.08 259.12c-0.40375 0-0.77787 0.28892-0.77787 0.90382 0 0.56673 0.35189 0.86677 0.81121 0.86677 0.24448 0 0.46302-0.0889 0.60749-0.263l-0.14817-0.14446c-0.10742 0.12594-0.27041 0.19262-0.43709 0.19262-0.22596 0-0.55563-0.12594-0.57415-0.63341h1.2002c0.0111-0.11483 7e-3 -0.22596-0.0111-0.32227-0.0778-0.45561-0.39264-0.60007-0.67046-0.60007zm-0.51117 0.71861c0.0556-0.40005 0.31115-0.51488 0.49265-0.51488 0.27411 0 0.47043 0.24077 0.4371 0.51488z"/>
   </g>
  </g>
  <g>
   <g stroke-width=".26458">
    <path d="m111.95 262.34h32.808" fill="none" stroke="#7b8694" stroke-dashoffset="1.2" stroke-linecap="square"/>
    <g fill="#e8eaec" stroke-linecap="round" aria-label="+ mana: int">
     <path d="m113.74 263.96v0.53975h-0.56197v0.19685h0.56197v0.59372h0.20003v-0.59372h0.54292v-0.19685h-0.54292v-0.53975z"/>
     <path d="m116.33 265.62h0.20955v-0.9652c0-0.0699 6e-3 -0.13335 0.0476-0.20955 0.0508-0.0952 0.1143-0.13335 0.17462-0.13335 0.0508 0 0.10795 0.0318 0.13335 0.11112 0.019 0.0603 0.0159 0.13018 0.0159 0.1905v1.0065h0.21272v-0.95885c0-0.0762 6e-3 -0.13653 0.0603-0.2286 0.0254-0.0381 0.0794-0.13018 0.16827-0.13018 0.0476 0 0.0921 0.0286 0.1143 0.0826 0.0286 0.0603 0.0222 0.14288 0.0222 0.20955v1.0287h0.2159v-1.0319c0-0.12065 3e-3 -0.2413-0.0603-0.33973-0.054-0.0826-0.14605-0.1143-0.22542-0.1143-0.1397 0-0.26988 0.0826-0.32703 0.20955-0.0222-0.12065-0.12382-0.20955-0.254-0.20955-0.12065 0-0.23177 0.0762-0.29845 0.1778l3e-3 -0.14287h-0.21273z"/>
     <path d="m118.09 264.34 0.11112 0.14605c0.12065-0.12382 0.28258-0.16192 0.4191-0.16192 0.17145 0 0.25718 0.073 0.29845 0.1397 0.0476 0.0794 0.0444 0.17462 0.0444 0.25082v0.0508h-0.0444c-0.2159 0-0.4445 0-0.62865 0.0667-0.2286 0.0825-0.3302 0.254-0.3302 0.41275 0 0.21272 0.18415 0.41275 0.48578 0.41275 0.1778 0 0.36195-0.0667 0.5207-0.19685v0.15875h0.2159v-0.89853c0-0.11747-3e-3 -0.2286-0.0699-0.3429-0.0953-0.15557-0.2794-0.23812-0.50483-0.23812-0.19367 0-0.381 0.0603-0.51752 0.20002zm0.88265 0.60008v0.0984c0 0.073 0 0.16828-0.0984 0.27305-0.054 0.054-0.1905 0.17145-0.381 0.17145-0.19367 0-0.3048-0.12382-0.3048-0.25082 0-0.10795 0.073-0.22543 0.254-0.26988 0.13335-0.0317 0.32703-0.0222 0.47943-0.0222z"/>
     <path d="m119.61 265.62h0.23177v-0.83503c0-0.0952 0.0127-0.16827 0.073-0.24765 0.054-0.073 0.19367-0.2032 0.34607-0.2032 0.073 0 0.14605 0.0318 0.19685 0.0921 0.0794 0.0953 0.0794 0.21907 0.0794 0.32067v0.87313h0.22542v-0.87948c0-0.11112 0-0.23177-0.0508-0.34925-0.073-0.16192-0.22225-0.254-0.38735-0.254-0.19685 0-0.37465 0.127-0.4826 0.28893v-0.254h-0.23177z"/>
     <path d="m121.27 264.34 0.11112 0.14605c0.12065-0.12382 0.28258-0.16192 0.4191-0.16192 0.17145 0 0.25718 0.073 0.29845 0.1397 0.0476 0.0794 0.0444 0.17462 0.0444 0.25082v0.0508h-0.0444c-0.2159 0-0.4445 0-0.62865 0.0667-0.2286 0.0825-0.3302 0.254-0.3302 0.41275 0 0.21272 0.18415 0.41275 0.48578 0.41275 0.1778 0 0.36195-0.0667 0.5207-0.19685v0.15875h0.2159v-0.89853c0-0.11747-3e-3 -0.2286-0.0699-0.3429-0.0953-0.15557-0.2794-0.23812-0.50483-0.23812-0.19367 0-0.381 0.0603-0.51752 0.20002zm0.88265 0.60008v0.0984c0 0.073 0 0.16828-0.0984 0.27305-0.054 0.054-0.1905 0.17145-0.381 0.17145-0.19367 0-0.3048-0.12382-0.3048-0.25082 0-0.10795 0.073-0.22543 0.254-0.26988 0.13335-0.0317 0.32703-0.0222 0.47943-0.0222z"/>
     <path d="m123.51 264.46c0-0.0984-0.0825-0.18097-0.18732-0.18097-0.10478 0-0.18733 0.0826-0.18733 0.18097 0 0.1016 0.0825 0.18098 0.18733 0.18098 0.10477 0 0.18732-0.0794 0.18732-0.18098zm0 1.0128c0-0.0984-0.0825-0.18098-0.18732-0.18098-0.10478 0-0.18733 0.0825-0.18733 0.18098 0 0.1016 0.0825 0.18415 0.18733 0.18415 0.10477 0 0.18732-0.0825 0.18732-0.18415z"/>
     <path d="m126.08 264.17v0.18733h0.34925v1.0827h-0.3683v0.18098h0.9398v-0.18098h-0.33973v-1.27zm0.4699-0.62865c-0.0921 0-0.1651 0.073-0.1651 0.16193 0 0.0889 0.073 0.16192 0.1651 0.16192s0.1651-0.073 0.1651-0.16192c0-0.0889-0.073-0.16193-0.1651-0.16193z"/>
     <path d="m127.55 265.62h0.23177v-0.83503c0-0.0952 0.0127-0.16827 0.073-0.24765 0.054-0.073 0.19367-0.2032 0.34607-0.2032 0.073 0 0.14605 0.0318 0.19685 0.0921 0.0794 0.0953 0.0794 0.21907 0.0794 0.32067v0.87313h0.22542v-0.87948c0-0.11112 0-0.23177-0.0508-0.34925-0.073-0.16192-0.22225-0.254-0.38735-0.254-0.19685 0-0.37465 0.127-0.4826 0.28893v-0.254h-0.23177z"/>
     <path d="m129.51 263.78-0.0286 0.39053h-0.34607l-3e-3 0.18732h0.33973c-0.019 0.24765-0.0286 0.4953-0.0286 0.73978 0 0.13017 0 0.27622 0.0857 0.39687 0.0699 0.0953 0.18097 0.1524 0.3302 0.1524 0.17145 0 0.33972-0.073 0.46355-0.16192l-0.0699-0.18098c-0.12383 0.0921-0.23813 0.13335-0.32703 0.13335-0.10795 0-0.21907-0.0603-0.24447-0.23495 0-0.0127-0.01-0.0667-0.01-0.2794 0-0.18732 0.01-0.37782 0.0286-0.56515h0.47625v-0.1905h-0.47308s0.0222-0.26035 0.0381-0.3429c3e-3 -0.0317 0.0286-0.0508 0.0159-0.0857z"/>
    </g>
    <g fill="#e8eaec" stroke-linecap="round" aria-label="+ castSpell(): void">
     <path d="m113.74 268.72v0.53975h-0.56197v0.19685h0.56197v0.59372h0.20003v-0.59372h0.54292v-0.19685h-0.54292v-0.53975z"/>
     <path d="m117.67 269.17c-0.1143-0.16827-0.30798-0.26987-0.54293-0.26987-0.42545 0-0.72707 0.32067-0.72707 0.75565 0 0.43815 0.30162 0.762 0.71437 0.762 0.20003 0 0.39688-0.0826 0.5334-0.23178l-0.13017-0.1524c-0.0984 0.11113-0.2413 0.17463-0.38418 0.17463-0.28257 0-0.49847-0.23495-0.49847-0.57468 0-0.3302 0.21272-0.53657 0.47942-0.53657 0.24765 0 0.36513 0.17145 0.37465 0.1905 0.0127 0.0222-6e-3 0.054 0.0191 0.073z"/>
     <path d="m118.09 269.1 0.11112 0.14605c0.12065-0.12382 0.28258-0.16192 0.4191-0.16192 0.17145 0 0.25718 0.073 0.29845 0.1397 0.0476 0.0794 0.0444 0.17462 0.0444 0.25082v0.0508h-0.0444c-0.2159 0-0.4445 0-0.62865 0.0667-0.2286 0.0826-0.3302 0.254-0.3302 0.41275 0 0.21272 0.18415 0.41275 0.48578 0.41275 0.1778 0 0.36195-0.0667 0.5207-0.19685v0.15875h0.2159v-0.89853c0-0.11747-3e-3 -0.2286-0.0699-0.3429-0.0953-0.15557-0.2794-0.23812-0.50483-0.23812-0.19367 0-0.381 0.0603-0.51752 0.20002zm0.88265 0.60008v0.0984c0 0.073 0 0.16828-0.0984 0.27305-0.054 0.054-0.1905 0.17145-0.381 0.17145-0.19367 0-0.3048-0.12382-0.3048-0.25082 0-0.10795 0.073-0.22543 0.254-0.26988 0.13335-0.0317 0.32703-0.0222 0.47943-0.0222z"/>
     <path d="m120.76 269.12c-0.13335-0.14605-0.32703-0.22543-0.54293-0.22543-0.33655 0-0.55562 0.18733-0.55562 0.40323 0 0.254 0.27305 0.34607 0.35242 0.37465 0.12383 0.0444 0.28258 0.0825 0.39053 0.13335 0.12065 0.0571 0.14287 0.13335 0.14287 0.18415 0 0.13652-0.1651 0.2286-0.37147 0.2286-0.24765 0-0.4064-0.14923-0.45403-0.20003-0.01-0.0127-0.01-0.0222-0.01-0.0349 0-3e-3 3e-3 -0.0222-0.0127-0.0286l-0.13335 0.22543c0.17145 0.15875 0.3937 0.23177 0.61277 0.23177 0.39688 0 0.60325-0.23495 0.60325-0.45402 0-0.0984-0.0413-0.23178-0.21272-0.32703-0.16193-0.0921-0.39688-0.12382-0.5334-0.1905-0.11748-0.0571-0.14288-0.127-0.14288-0.1778 0-0.1143 0.14288-0.19685 0.3048-0.19685 0.20955 0 0.34925 0.127 0.40323 0.20003 0.01 0.01 6e-3 0.019 6e-3 0.0286 0 0.019 0.0127 0.0254 0.019 0.0254z"/>
     <path d="m121.58 268.54-0.0286 0.39053h-0.34607l-3e-3 0.18732h0.33973c-0.019 0.24765-0.0286 0.4953-0.0286 0.73978 0 0.13017 0 0.27622 0.0857 0.39687 0.0699 0.0953 0.18097 0.1524 0.3302 0.1524 0.17145 0 0.33972-0.073 0.46355-0.16192l-0.0699-0.18098c-0.12383 0.0921-0.23813 0.13335-0.32703 0.13335-0.10795 0-0.21907-0.0603-0.24447-0.23495 0-0.0127-0.01-0.0667-0.01-0.2794 0-0.18732 0.01-0.37782 0.0286-0.56515h0.47625v-0.1905h-0.47308s0.0222-0.26035 0.0381-0.3429c3e-3 -0.0317 0.0286-0.0508 0.0159-0.0857z"/>
     <path d="m123.95 268.64c-0.13335-0.16193-0.3302-0.24765-0.5461-0.24765-0.35878 0-0.60325 0.23495-0.60325 0.508 0 0.1143 0.0444 0.26352 0.20955 0.38417 0.18415 0.13653 0.4699 0.2032 0.61912 0.29845 0.13018 0.0794 0.1651 0.18415 0.1651 0.27305 0 0.17145-0.14605 0.35878-0.4318 0.35878-0.2159 0-0.38417-0.10795-0.47307-0.21908-0.01-0.0127-0.01-0.0191-0.01-0.0318 0-6e-3 0-0.0254-0.0127-0.0317l-0.13335 0.2286c0.15558 0.16828 0.37783 0.254 0.6223 0.254 0.4826 0 0.6604-0.32385 0.6604-0.5715 0-0.10477-0.0318-0.2413-0.15557-0.35877-0.17145-0.16193-0.45085-0.21908-0.63183-0.32385-0.1651-0.0984-0.20002-0.2159-0.20002-0.29528 0-0.1524 0.13017-0.28892 0.3556-0.28892 0.18415 0 0.32702 0.0825 0.40322 0.19367 0.01 0.0127 6e-3 0.019 6e-3 0.0317 0 0.019 0.01 0.0254 0.0159 0.0254z"/>
     <path d="m124.34 268.93 3e-3 1.978h0.23177v-0.72072c0.0984 0.14287 0.26035 0.23177 0.43498 0.23177 0.29845 0 0.6096-0.25082 0.6096-0.78105 0-0.51117-0.30163-0.73977-0.58738-0.73977-0.18732 0-0.36195 0.0952-0.46037 0.254v-0.22225zm0.60643 0.16192c0.127 0 0.43497 0.0667 0.43497 0.59373 0 0.4572-0.29845 0.53022-0.43497 0.53022-0.13653 0-0.27623-0.0698-0.33338-0.20002-0.0413-0.0984-0.0413-0.21908-0.0413-0.42863 0-0.12065 6e-3 -0.20955 0.0381-0.28575 0.0571-0.13017 0.1905-0.20955 0.33655-0.20955z"/>
     <path d="m126.56 268.9c-0.34608 0-0.66675 0.24765-0.66675 0.7747 0 0.48578 0.30162 0.74295 0.69532 0.74295 0.20955 0 0.39688-0.0762 0.5207-0.22542l-0.127-0.12383c-0.0921 0.10795-0.23177 0.1651-0.37465 0.1651-0.19367 0-0.47625-0.10795-0.49212-0.54292h1.0287c0.01-0.0984 6e-3 -0.19368-0.01-0.27623-0.0667-0.39052-0.33655-0.51435-0.57467-0.51435zm-0.43815 0.61595c0.0476-0.3429 0.2667-0.44132 0.42227-0.44132 0.23495 0 0.40323 0.20637 0.37465 0.44132z"/>
     <path d="m127.6 268.27v0.18415h0.41275v1.7431h-0.4318v0.18098h1.089v-0.18098h-0.42862v-1.9272z"/>
     <path d="m129.18 268.27v0.18415h0.41275v1.7431h-0.4318v0.18098h1.089v-0.18098h-0.42862v-1.9272z"/>
     <path d="m131.75 268.26c-0.48895 0.2159-0.80327 0.71437-0.80327 1.2954 0 0.57785 0.3048 1.1049 0.80645 1.3684l0.10477-0.16827c-0.43497-0.25083-0.68897-0.71755-0.68897-1.2097 0-0.45402 0.21907-0.86042 0.59055-1.0763 6e-3 -6e-3 0.0159-0.0127 0.0286-0.0127 0.01 0 0.019 6e-3 0.0317 6e-3 6e-3 0 0.0159-3e-3 0.0286-6e-3z"/>
     <path d="m132.34 268.46c0.4191 0.22543 0.6858 0.65723 0.6858 1.1303 0 0.47625-0.27305 0.92075-0.70167 1.1462l0.0603 0.19367c0.52705-0.25082 0.86678-0.77787 0.86678-1.3494 0-0.56515-0.33338-1.0795-0.8509-1.3176z"/>
     <path d="m134.62 269.22c0-0.0984-0.0825-0.18097-0.18732-0.18097-0.10478 0-0.18733 0.0825-0.18733 0.18097 0 0.1016 0.0825 0.18098 0.18733 0.18098 0.10477 0 0.18732-0.0794 0.18732-0.18098zm0 1.0128c0-0.0984-0.0825-0.18098-0.18732-0.18098-0.10478 0-0.18733 0.0826-0.18733 0.18098 0 0.1016 0.0825 0.18415 0.18733 0.18415 0.10477 0 0.18732-0.0826 0.18732-0.18415z"/>
     <path d="m136.98 268.93 0.57468 1.4637h0.18097l0.35243-0.82868c0.0857-0.2032 0.16827-0.41275 0.2159-0.635h-0.20638c-0.0381 0.21273-0.1143 0.41275-0.19685 0.60325l-0.23177 0.53975-0.4191-1.0604c-3e-3 -6e-3 -6e-3 -0.0127-6e-3 -0.019 0-0.019 0.0159-0.0381 0.01-0.0635z"/>
     <path d="m139.9 269.66c0-0.50165-0.3175-0.762-0.6477-0.762-0.3683 0-0.6858 0.3175-0.6858 0.76835 0 0.44132 0.31432 0.75247 0.67945 0.75247 0.3429 0 0.65405-0.27622 0.65405-0.75882zm-0.66358-0.56833c0.20955 0 0.4318 0.18098 0.4318 0.57785 0 0.36513-0.20955 0.54928-0.4191 0.54928-0.23177 0-0.44132-0.2159-0.44132-0.57468 0-0.3556 0.20637-0.55245 0.42862-0.55245z"/>
     <path d="m140.37 268.93v0.18733h0.34925v1.0827h-0.3683v0.18098h0.9398v-0.18098h-0.33973v-1.27zm0.4699-0.62865c-0.0921 0-0.1651 0.073-0.1651 0.16193 0 0.0889 0.073 0.16192 0.1651 0.16192s0.1651-0.073 0.1651-0.16192c0-0.0889-0.073-0.16193-0.1651-0.16193z"/>
     <path d="m142.8 269.14c-0.0699-0.14923-0.22542-0.24765-0.42545-0.24765-0.27622 0-0.61277 0.19685-0.61277 0.7493 0 0.53657 0.29845 0.77152 0.57785 0.77152 0.18415 0 0.3556-0.10477 0.44767-0.2667v0.127c0 0.0349 3e-3 0.0699 0.0127 0.10478h0.2286c-0.0127-0.0413-0.0127-0.0889-0.0127-0.13335l-3e-3 -1.886c0-0.019 0-0.0254 0.0127-0.0444 6e-3 -0.01 0.019-0.0254 0.0159-0.0476h-0.2413zm-0.41592-0.0603c0.127 0 0.31432 0.0667 0.37147 0.28258 0.019 0.0667 0.0254 0.14605 0.0254 0.30797 0 0.11113-6e-3 0.1905-0.0317 0.2667-0.054 0.17145-0.20637 0.27305-0.3556 0.27305-0.1651 0-0.40957-0.127-0.40957-0.60325 0-0.41592 0.23177-0.52705 0.40005-0.52705z"/>
    </g>
    <path d="m111.95 267.1h32.808" fill="none" stroke="#7b8694" stroke-dashoffset="1.2" stroke-linecap="square"/>
   </g>
   <rect x="150.12" y="256.91" width="33.205" height="14.684" fill="#2f3744" stroke="#7b8694" stroke-linecap="round" stroke-width=".26458"/>
   <g stroke-width=".26458">
    <g fill="#e8eaec" stroke-linecap="round" aria-label="Dragon">
     <path d="m161.28 258.55v2.3114h0.49636c0.1815 0 0.33708-7e-3 0.50006-0.0926 0.32967-0.17039 0.51118-0.56303 0.51118-1.0668 0-0.4445-0.13335-0.83343-0.42969-1.026-0.16669-0.11113-0.33337-0.12594-0.5371-0.12594zm0.24447 0.22225h0.28152c0.14446 0 0.28893 7e-3 0.43339 0.12594 0.21484 0.1778 0.28522 0.50747 0.28522 0.83714 0 0.4408-0.14446 0.69268-0.32967 0.81862-0.14446 0.0963-0.28893 0.10372-0.43339 0.10372h-0.23707z"/>
     <path d="m163.3 259.16v1.6928h0.26671v-0.82233c0-0.10371 4e-3 -0.21484 0.11853-0.39634 0.15557-0.24448 0.3556-0.28522 0.47784-0.28522 0.14075 0 0.22965 0.0667 0.27781 0.12594 0.0222 0.0296 0.0333 0.0593 0.063 0.0852l0.12594-0.25558c-0.10742-0.11113-0.26299-0.18521-0.45191-0.18521-0.24818 0-0.50006 0.12594-0.61118 0.36671l0.0111-0.32597z"/>
     <path d="m165.12 259.36 0.12965 0.1704c0.14076-0.14447 0.32967-0.18892 0.48895-0.18892 0.20002 0 0.30004 0.0852 0.34819 0.16299 0.0556 0.0926 0.0519 0.20373 0.0519 0.29263v0.0593h-0.0519c-0.25188 0-0.51858 0-0.73343 0.0778-0.2667 0.0963-0.38523 0.29633-0.38523 0.48154 0 0.24818 0.21484 0.48154 0.56674 0.48154 0.20743 0 0.42227-0.0778 0.60748-0.22965v0.1852h0.25189v-1.0483c0-0.13705-4e-3 -0.2667-0.0815-0.40005-0.11113-0.1815-0.32597-0.27781-0.58897-0.27781-0.22595 0-0.4445 0.0704-0.60378 0.23336zm1.0298 0.70009v0.11483c0 0.0852 0 0.19632-0.11483 0.31856-0.063 0.063-0.22225 0.20003-0.4445 0.20003-0.22595 0-0.3556-0.14447-0.3556-0.29263 0-0.12595 0.0852-0.263 0.29634-0.31486 0.15557-0.037 0.38152-0.0259 0.55932-0.0259z"/>
     <path d="m167.1 259.69c0-0.20373 0.17039-0.37042 0.37412-0.37042 0.20744 0 0.37413 0.16669 0.37413 0.37042 0 0.20372-0.16669 0.37041-0.37413 0.37041-0.20743 0-0.37412-0.16669-0.37412-0.37041zm0.38894-0.58156c-0.33708 0-0.62971 0.2667-0.62971 0.59637 0 0.18521 0.0926 0.35931 0.24818 0.45932-0.12224 0.10372-0.19262 0.21855-0.19262 0.32597 0 0.0704 0.0296 0.17039 0.13706 0.22595-0.18151 0.11483-0.27411 0.24077-0.27411 0.37412 0 0.18521 0.17039 0.40376 0.76306 0.40376 0.57415 0 0.78158-0.29263 0.78158-0.51859 0-0.14816-0.0852-0.29633-0.263-0.36671-0.1778-0.0741-0.38153-0.0482-0.57414-0.0482-0.12594 0-0.20744-0.0111-0.24077-0.0222-0.0667-0.0185-0.10372-0.0593-0.10372-0.11112 0-0.0889 0.10372-0.1741 0.12224-0.18892 0.0667 0.0259 0.14076 0.037 0.21484 0.037 0.33337 0 0.60748-0.2667 0.60748-0.57785 0-0.10371-0.0296-0.20373-0.0852-0.28892 0.0889-0.0519 0.19261-0.0815 0.29633-0.0815 0.0333 0 0.063 4e-3 0.0963 0.0111l-0.0296-0.21855c-0.1704-0.0148-0.34079 0.0408-0.47043 0.14817-0.10743-0.10372-0.24818-0.15928-0.40376-0.15928zm-0.25559 1.6558c0.063 7e-3 0.15187 0.0148 0.28152 0.0222 0.12594 4e-3 0.263-7e-3 0.3593 7e-3 0.15558 0.0259 0.20373 0.12224 0.20373 0.19632 0 0.0741-0.0445 0.16298-0.15928 0.22595-0.12594 0.0667-0.2667 0.0741-0.38152 0.0741-0.0778 0-0.22226-4e-3 -0.3482-0.0556-0.13705-0.0556-0.16668-0.14816-0.16668-0.20743 0-0.12224 0.11482-0.21114 0.21113-0.263z"/>
     <path d="m170.2 260.02c0-0.58526-0.37042-0.889-0.75566-0.889-0.42968 0-0.8001 0.37042-0.8001 0.89641 0 0.51488 0.36672 0.87789 0.7927 0.87789 0.40005 0 0.76306-0.32226 0.76306-0.8853zm-0.77418-0.66304c0.24448 0 0.50377 0.21113 0.50377 0.67416 0 0.42597-0.24447 0.64082-0.48895 0.64082-0.2704 0-0.51488-0.25189-0.51488-0.67046 0-0.41487 0.24077-0.64452 0.50006-0.64452z"/>
     <path d="m170.6 260.85h0.2704v-0.97419c0-0.11113 0.0148-0.19632 0.0852-0.28893 0.063-0.0852 0.22595-0.23706 0.40375-0.23706 0.0852 0 0.17039 0.037 0.22966 0.10742 0.0926 0.11112 0.0926 0.25558 0.0926 0.37412v1.0186h0.263v-1.026c0-0.12965 0-0.2704-0.0593-0.40746-0.0852-0.18891-0.25929-0.29633-0.45191-0.29633-0.22966 0-0.43709 0.14816-0.56303 0.33708v-0.29634h-0.2704z"/>
    </g>
    <path d="m150.32 262.34h32.808" fill="none" stroke="#7b8694" stroke-dashoffset="1.2" stroke-linecap="square"/>
    <g fill="#e8eaec" stroke-linecap="round" aria-label="+ firepower: int">
     <path d="m152.11 263.96v0.53975h-0.56198v0.19685h0.56198v0.59372h0.20002v-0.59372h0.54293v-0.19685h-0.54293v-0.53975z"/>
     <path d="m155.67 263.49c-0.2032 0-0.3937 0.0857-0.4953 0.25082-0.0762 0.12065-0.0794 0.2413-0.0794 0.37148v0.14287h-0.3175v0.18098h0.3175v1.1811h0.21908v-1.1811h0.47307v-0.18098h-0.47307v-0.1143c0-0.10477-3e-3 -0.2159 0.0508-0.31115 0.0603-0.10795 0.17462-0.16192 0.2921-0.16192 0.1397 0 0.25717 0.073 0.3175 0.1651 0.01 0.0159 0.01 0.0254 0.01 0.0381 0 0.0222 0.0159 0.0286 0.0254 0.0286l0.10478-0.21272c-0.10478-0.12383-0.26353-0.19685-0.4445-0.19685z"/>
     <path d="m156.51 264.17v0.18733h0.34925v1.0827h-0.3683v0.18098h0.9398v-0.18098h-0.33972v-1.27zm0.4699-0.62865c-0.0921 0-0.1651 0.073-0.1651 0.16193 0 0.0889 0.073 0.16192 0.1651 0.16192s0.1651-0.073 0.1651-0.16192c0-0.0889-0.073-0.16193-0.1651-0.16193z"/>
     <path d="m158.07 264.17v1.451h0.2286v-0.70485c0-0.0889 3e-3 -0.18415 0.1016-0.33972 0.13335-0.20955 0.3048-0.24448 0.40957-0.24448 0.12065 0 0.19685 0.0572 0.23813 0.10795 0.019 0.0254 0.0286 0.0508 0.054 0.073l0.10795-0.21908c-0.0921-0.0953-0.22542-0.15875-0.38735-0.15875-0.21272 0-0.42862 0.10795-0.52387 0.31433l0.01-0.2794z"/>
     <path d="m160.16 264.13c-0.34607 0-0.66675 0.24765-0.66675 0.7747 0 0.48578 0.30163 0.74295 0.69533 0.74295 0.20955 0 0.39687-0.0762 0.5207-0.22542l-0.127-0.12383c-0.0921 0.10795-0.23178 0.1651-0.37465 0.1651-0.19368 0-0.47625-0.10795-0.49213-0.54292h1.0287c0.01-0.0984 6e-3 -0.19368-0.01-0.27623-0.0667-0.39052-0.33655-0.51435-0.57468-0.51435zm-0.43815 0.61595c0.0476-0.3429 0.2667-0.44132 0.42228-0.44132 0.23495 0 0.40322 0.20637 0.37465 0.44132z"/>
     <path d="m161.12 264.17 3e-3 1.978h0.23178v-0.72072c0.0984 0.14287 0.26035 0.23177 0.43497 0.23177 0.29845 0 0.6096-0.25082 0.6096-0.78105 0-0.51117-0.30162-0.73977-0.58737-0.73977-0.18733 0-0.36195 0.0953-0.46038 0.254v-0.22225zm0.60642 0.16192c0.127 0 0.43498 0.0667 0.43498 0.59373 0 0.4572-0.29845 0.53022-0.43498 0.53022-0.13652 0-0.27622-0.0699-0.33337-0.20002-0.0413-0.0984-0.0413-0.21908-0.0413-0.42863 0-0.12065 6e-3 -0.20955 0.0381-0.28575 0.0572-0.13017 0.1905-0.20955 0.33655-0.20955z"/>
     <path d="m163.98 264.9c0-0.50165-0.3175-0.762-0.6477-0.762-0.3683 0-0.6858 0.3175-0.6858 0.76835 0 0.44132 0.31433 0.75247 0.67945 0.75247 0.3429 0 0.65405-0.27622 0.65405-0.75882zm-0.66357-0.56833c0.20955 0 0.4318 0.18098 0.4318 0.57785 0 0.36513-0.20955 0.54928-0.4191 0.54928-0.23178 0-0.44133-0.2159-0.44133-0.57468 0-0.3556 0.20638-0.55245 0.42863-0.55245z"/>
     <path d="m164.15 264.17 0.2921 1.4542h0.20637l0.254-0.9398 0.26988 0.9398h0.21272c0.0984-0.47942 0.18098-0.9652 0.2413-1.451h-0.20955c6e-3 0.17462-0.01 0.33655-0.13652 1.162l-0.3048-1.0287h-0.1397l-0.25083 1.0319-0.20955-1.0478c-6e-3 -0.0222-6e-3 -0.0317 3e-3 -0.0571 3e-3 -0.0159 0.0127-0.0381 3e-3 -0.0635z"/>
     <path d="m166.51 264.13c-0.34607 0-0.66675 0.24765-0.66675 0.7747 0 0.48578 0.30163 0.74295 0.69533 0.74295 0.20955 0 0.39687-0.0762 0.5207-0.22542l-0.127-0.12383c-0.0921 0.10795-0.23178 0.1651-0.37465 0.1651-0.19368 0-0.47625-0.10795-0.49213-0.54292h1.0287c0.01-0.0984 6e-3 -0.19368-0.01-0.27623-0.0667-0.39052-0.33655-0.51435-0.57468-0.51435zm-0.43815 0.61595c0.0476-0.3429 0.2667-0.44132 0.42228-0.44132 0.23495 0 0.40322 0.20637 0.37465 0.44132z"/>
     <path d="m167.6 264.17v1.451h0.2286v-0.70485c0-0.0889 3e-3 -0.18415 0.1016-0.33972 0.13335-0.20955 0.3048-0.24448 0.40957-0.24448 0.12065 0 0.19685 0.0572 0.23813 0.10795 0.019 0.0254 0.0286 0.0508 0.054 0.073l0.10795-0.21908c-0.0921-0.0953-0.22542-0.15875-0.38735-0.15875-0.21272 0-0.42862 0.10795-0.52387 0.31433l0.01-0.2794z"/>
     <path d="m169.81 264.46c0-0.0984-0.0825-0.18097-0.18733-0.18097-0.10477 0-0.18732 0.0826-0.18732 0.18097 0 0.1016 0.0825 0.18098 0.18732 0.18098 0.10478 0 0.18733-0.0794 0.18733-0.18098zm0 1.0128c0-0.0984-0.0825-0.18098-0.18733-0.18098-0.10477 0-0.18732 0.0825-0.18732 0.18098 0 0.1016 0.0825 0.18415 0.18732 0.18415 0.10478 0 0.18733-0.0825 0.18733-0.18415z"/>
     <path d="m172.38 264.17v0.18733h0.34925v1.0827h-0.3683v0.18098h0.9398v-0.18098h-0.33972v-1.27zm0.4699-0.62865c-0.0921 0-0.1651 0.073-0.1651 0.16193 0 0.0889 0.073 0.16192 0.1651 0.16192s0.1651-0.073 0.1651-0.16192c0-0.0889-0.073-0.16193-0.1651-0.16193z"/>
     <path d="m173.85 265.62h0.23178v-0.83503c0-0.0952 0.0127-0.16827 0.073-0.24765 0.054-0.073 0.19368-0.2032 0.34608-0.2032 0.073 0 0.14605 0.0318 0.19685 0.0921 0.0794 0.0953 0.0794 0.21907 0.0794 0.32067v0.87313h0.22543v-0.87948c0-0.11112 0-0.23177-0.0508-0.34925-0.073-0.16192-0.22225-0.254-0.38735-0.254-0.19685 0-0.37465 0.127-0.4826 0.28893v-0.254h-0.23178z"/>
     <path d="m175.82 263.78-0.0286 0.39053h-0.34608l-3e-3 0.18732h0.33972c-0.019 0.24765-0.0286 0.4953-0.0286 0.73978 0 0.13017 0 0.27622 0.0857 0.39687 0.0699 0.0953 0.18098 0.1524 0.3302 0.1524 0.17145 0 0.33973-0.073 0.46355-0.16192l-0.0699-0.18098c-0.12382 0.0921-0.23812 0.13335-0.32702 0.13335-0.10795 0-0.21908-0.0603-0.24448-0.23495 0-0.0127-0.01-0.0667-0.01-0.2794 0-0.18732 0.01-0.37782 0.0286-0.56515h0.47625v-0.1905h-0.47307s0.0222-0.26035 0.0381-0.3429c3e-3 -0.0317 0.0286-0.0508 0.0159-0.0857z"/>
    </g>
    <g fill="#e8eaec" stroke-linecap="round" aria-label="+ fire(): void">
     <path d="m152.11 268.72v0.53975h-0.56198v0.19685h0.56198v0.59372h0.20002v-0.59372h0.54293v-0.19685h-0.54293v-0.53975z"/>
     <path d="m155.67 268.25c-0.2032 0-0.3937 0.0857-0.4953 0.25082-0.0762 0.12065-0.0794 0.2413-0.0794 0.37148v0.14287h-0.3175v0.18098h0.3175v1.1811h0.21908v-1.1811h0.47307v-0.18098h-0.47307v-0.1143c0-0.10477-3e-3 -0.2159 0.0508-0.31115 0.0603-0.10795 0.17462-0.16192 0.2921-0.16192 0.1397 0 0.25717 0.073 0.3175 0.1651 0.01 0.0159 0.01 0.0254 0.01 0.0381 0 0.0222 0.0159 0.0286 0.0254 0.0286l0.10478-0.21272c-0.10478-0.12383-0.26353-0.19685-0.4445-0.19685z"/>
     <path d="m156.51 268.93v0.18733h0.34925v1.0827h-0.3683v0.18098h0.9398v-0.18098h-0.33972v-1.27zm0.4699-0.62865c-0.0921 0-0.1651 0.073-0.1651 0.16193 0 0.0889 0.073 0.16192 0.1651 0.16192s0.1651-0.073 0.1651-0.16192c0-0.0889-0.073-0.16193-0.1651-0.16193z"/>
     <path d="m158.07 268.93v1.451h0.2286v-0.70485c0-0.0889 3e-3 -0.18415 0.1016-0.33972 0.13335-0.20955 0.3048-0.24448 0.40957-0.24448 0.12065 0 0.19685 0.0571 0.23813 0.10795 0.019 0.0254 0.0286 0.0508 0.054 0.073l0.10795-0.21908c-0.0921-0.0952-0.22542-0.15875-0.38735-0.15875-0.21272 0-0.42862 0.10795-0.52387 0.31433l0.01-0.2794z"/>
     <path d="m160.16 268.9c-0.34607 0-0.66675 0.24765-0.66675 0.7747 0 0.48578 0.30163 0.74295 0.69533 0.74295 0.20955 0 0.39687-0.0762 0.5207-0.22542l-0.127-0.12383c-0.0921 0.10795-0.23178 0.1651-0.37465 0.1651-0.19368 0-0.47625-0.10795-0.49213-0.54292h1.0287c0.01-0.0984 6e-3 -0.19368-0.01-0.27623-0.0667-0.39052-0.33655-0.51435-0.57468-0.51435zm-0.43815 0.61595c0.0476-0.3429 0.2667-0.44132 0.42228-0.44132 0.23495 0 0.40322 0.20637 0.37465 0.44132z"/>
     <path d="m162.17 268.26c-0.48895 0.2159-0.80328 0.71437-0.80328 1.2954 0 0.57785 0.3048 1.1049 0.80645 1.3684l0.10478-0.16827c-0.43498-0.25083-0.68898-0.71755-0.68898-1.2097 0-0.45402 0.21908-0.86042 0.59055-1.0763 6e-3 -6e-3 0.0159-0.0127 0.0286-0.0127 0.01 0 0.019 6e-3 0.0318 6e-3 6e-3 0 0.0159-3e-3 0.0286-6e-3z"/>
     <path d="m162.76 268.46c0.4191 0.22543 0.6858 0.65723 0.6858 1.1303 0 0.47625-0.27305 0.92075-0.70168 1.1462l0.0603 0.19367c0.52705-0.25082 0.86677-0.77787 0.86677-1.3494 0-0.56515-0.33337-1.0795-0.8509-1.3176z"/>
     <path d="m165.05 269.22c0-0.0984-0.0825-0.18097-0.18733-0.18097-0.10477 0-0.18732 0.0825-0.18732 0.18097 0 0.1016 0.0826 0.18098 0.18732 0.18098 0.10478 0 0.18733-0.0794 0.18733-0.18098zm0 1.0128c0-0.0984-0.0825-0.18098-0.18733-0.18098-0.10477 0-0.18732 0.0826-0.18732 0.18098 0 0.1016 0.0826 0.18415 0.18732 0.18415 0.10478 0 0.18733-0.0826 0.18733-0.18415z"/>
     <path d="m167.41 268.93 0.57467 1.4637h0.18098l0.35242-0.82868c0.0857-0.2032 0.16828-0.41275 0.2159-0.635h-0.20637c-0.0381 0.21273-0.1143 0.41275-0.19685 0.60325l-0.23178 0.53975-0.4191-1.0604c-3e-3 -6e-3 -6e-3 -0.0127-6e-3 -0.019 0-0.019 0.0159-0.0381 0.01-0.0635z"/>
     <path d="m170.33 269.66c0-0.50165-0.3175-0.762-0.6477-0.762-0.3683 0-0.6858 0.3175-0.6858 0.76835 0 0.44132 0.31433 0.75247 0.67945 0.75247 0.3429 0 0.65405-0.27622 0.65405-0.75882zm-0.66357-0.56833c0.20955 0 0.4318 0.18098 0.4318 0.57785 0 0.36513-0.20955 0.54928-0.4191 0.54928-0.23178 0-0.44133-0.2159-0.44133-0.57468 0-0.3556 0.20638-0.55245 0.42863-0.55245z"/>
     <path d="m170.79 268.93v0.18733h0.34925v1.0827h-0.3683v0.18098h0.9398v-0.18098h-0.33972v-1.27zm0.4699-0.62865c-0.0921 0-0.1651 0.073-0.1651 0.16193 0 0.0889 0.073 0.16192 0.1651 0.16192s0.1651-0.073 0.1651-0.16192c0-0.0889-0.073-0.16193-0.1651-0.16193z"/>
     <path d="m173.22 269.14c-0.0698-0.14923-0.22543-0.24765-0.42545-0.24765-0.27623 0-0.61278 0.19685-0.61278 0.7493 0 0.53657 0.29845 0.77152 0.57785 0.77152 0.18415 0 0.3556-0.10477 0.44768-0.2667v0.127c0 0.0349 3e-3 0.0699 0.0127 0.10478h0.2286c-0.0127-0.0413-0.0127-0.0889-0.0127-0.13335l-3e-3 -1.886c0-0.019 0-0.0254 0.0127-0.0444 6e-3 -0.01 0.019-0.0254 0.0159-0.0476h-0.2413zm-0.41593-0.0603c0.127 0 0.31433 0.0667 0.37148 0.28258 0.019 0.0667 0.0254 0.14605 0.0254 0.30797 0 0.11113-6e-3 0.1905-0.0317 0.2667-0.054 0.17145-0.20638 0.27305-0.3556 0.27305-0.1651 0-0.40958-0.127-0.40958-0.60325 0-0.41592 0.23178-0.52705 0.40005-0.52705z"/>
    </g>
    <path d="m150.32 267.1h32.808" fill="none" stroke="#7b8694" stroke-dashoffset="1.2" stroke-linecap="square"/>
   </g>
   <rect x="188.48" y="256.91" width="33.205" height="14.684" fill="#2f3744" stroke="#7b8694" stroke-linecap="round" stroke-width=".26458"/>
   <g stroke-width=".26458">
    <g fill="#e8eaec" stroke-linecap="round" aria-label="Orc">
     <path d="m203.97 259.71c0-0.21484-0.0148-0.50006-0.14076-0.74824-0.15187-0.29633-0.41486-0.43339-0.66675-0.43339-0.34448 0-0.82973 0.2667-0.82973 1.1742 0 0.90753 0.47784 1.1928 0.83344 1.1928 0.24818 0 0.51488-0.14076 0.66675-0.44821 0.12224-0.24818 0.13705-0.5334 0.13705-0.73713zm-0.81862-0.94086c0.16298 0 0.36301 0.0963 0.47043 0.36672 0.0778 0.19261 0.0889 0.41486 0.0889 0.60748 0 0.15187-7e-3 0.38894-0.10372 0.58526-0.10742 0.22595-0.28522 0.31485-0.44079 0.31485-0.25929 0-0.57785-0.24077-0.57785-0.97419 0-0.68898 0.32226-0.90012 0.56303-0.90012z"/>
     <path d="m204.45 259.16v1.6928h0.2667v-0.82233c0-0.10371 4e-3 -0.21484 0.11853-0.39634 0.15557-0.24448 0.3556-0.28522 0.47784-0.28522 0.14076 0 0.22966 0.0667 0.27781 0.12594 0.0222 0.0296 0.0333 0.0593 0.063 0.0852l0.12594-0.25558c-0.10742-0.11113-0.26299-0.18521-0.45191-0.18521-0.24818 0-0.50006 0.12594-0.61118 0.36671l0.0111-0.32597z"/>
     <path d="m207.62 259.44c-0.13335-0.19632-0.3593-0.31486-0.63341-0.31486-0.49636 0-0.84826 0.37412-0.84826 0.88159 0 0.51118 0.3519 0.889 0.83344 0.889 0.23336 0 0.46302-0.0963 0.6223-0.2704l-0.15187-0.1778c-0.11483 0.12965-0.28152 0.20373-0.44821 0.20373-0.32967 0-0.58155-0.27411-0.58155-0.67046 0-0.38523 0.24818-0.626 0.55933-0.626 0.28893 0 0.42598 0.20003 0.43709 0.22225 0.0148 0.0259-7e-3 0.063 0.0222 0.0852z"/>
    </g>
    <path d="m188.68 262.34h32.808" fill="none" stroke="#7b8694" stroke-dashoffset="1.2" stroke-linecap="square"/>
    <g fill="#e8eaec" stroke-linecap="round" aria-label="+ rage: int">
     <path d="m190.47 263.96v0.53975h-0.56198v0.19685h0.56198v0.59372h0.20002v-0.59372h0.54293v-0.19685h-0.54293v-0.53975z"/>
     <path d="m193.26 264.17v1.451h0.2286v-0.70485c0-0.0889 3e-3 -0.18415 0.1016-0.33972 0.13335-0.20955 0.3048-0.24448 0.40957-0.24448 0.12065 0 0.19685 0.0572 0.23813 0.10795 0.019 0.0254 0.0286 0.0508 0.054 0.073l0.10795-0.21908c-0.0921-0.0953-0.22542-0.15875-0.38735-0.15875-0.21272 0-0.42862 0.10795-0.52387 0.31433l0.01-0.2794z"/>
     <path d="m194.82 264.34 0.11113 0.14605c0.12065-0.12382 0.28257-0.16192 0.4191-0.16192 0.17145 0 0.25717 0.073 0.29845 0.1397 0.0476 0.0794 0.0445 0.17462 0.0445 0.25082v0.0508h-0.0445c-0.2159 0-0.4445 0-0.62865 0.0667-0.2286 0.0825-0.3302 0.254-0.3302 0.41275 0 0.21272 0.18415 0.41275 0.48577 0.41275 0.1778 0 0.36195-0.0667 0.5207-0.19685v0.15875h0.2159v-0.89853c0-0.11747-3e-3 -0.2286-0.0699-0.3429-0.0952-0.15557-0.2794-0.23812-0.50482-0.23812-0.19368 0-0.381 0.0603-0.51753 0.20002zm0.88265 0.60008v0.0984c0 0.073 0 0.16828-0.0984 0.27305-0.054 0.054-0.1905 0.17145-0.381 0.17145-0.19368 0-0.3048-0.12382-0.3048-0.25082 0-0.10795 0.073-0.22543 0.254-0.26988 0.13335-0.0317 0.32702-0.0222 0.47942-0.0222z"/>
     <path d="m196.52 264.62c0-0.17463 0.14605-0.3175 0.32067-0.3175 0.1778 0 0.32068 0.14287 0.32068 0.3175 0 0.17462-0.14288 0.3175-0.32068 0.3175s-0.32067-0.14288-0.32067-0.3175zm0.33337-0.49848c-0.28892 0-0.53975 0.2286-0.53975 0.51118 0 0.15875 0.0794 0.30797 0.21273 0.3937-0.10478 0.0889-0.1651 0.18732-0.1651 0.2794 0 0.0603 0.0254 0.14605 0.11747 0.19367-0.15557 0.0984-0.23495 0.20638-0.23495 0.32068 0 0.15875 0.14605 0.34607 0.65405 0.34607 0.49213 0 0.66993-0.25082 0.66993-0.4445 0-0.127-0.073-0.254-0.22543-0.31432-0.1524-0.0635-0.32702-0.0413-0.49212-0.0413-0.10795 0-0.1778-0.01-0.20638-0.019-0.0572-0.0159-0.0889-0.0508-0.0889-0.0953 0-0.0762 0.0889-0.14922 0.10478-0.16192 0.0572 0.0222 0.12065 0.0317 0.18415 0.0317 0.28575 0 0.5207-0.2286 0.5207-0.4953 0-0.0889-0.0254-0.17463-0.073-0.24765 0.0762-0.0444 0.1651-0.0699 0.254-0.0699 0.0286 0 0.054 3e-3 0.0825 0.01l-0.0254-0.18732c-0.14605-0.0127-0.2921 0.0349-0.40322 0.127-0.0921-0.0889-0.21273-0.13653-0.34608-0.13653zm-0.21907 1.4192c0.054 6e-3 0.13017 0.0127 0.2413 0.019 0.10795 3e-3 0.22542-6e-3 0.30797 6e-3 0.13335 0.0222 0.17463 0.10477 0.17463 0.16827s-0.0381 0.1397-0.13653 0.19368c-0.10795 0.0571-0.2286 0.0635-0.32702 0.0635-0.0667 0-0.1905-3e-3 -0.29845-0.0476-0.11748-0.0476-0.14288-0.127-0.14288-0.1778 0-0.10477 0.0984-0.18097 0.18098-0.22542z"/>
     <path d="m198.53 264.13c-0.34607 0-0.66675 0.24765-0.66675 0.7747 0 0.48578 0.30163 0.74295 0.69533 0.74295 0.20955 0 0.39687-0.0762 0.5207-0.22542l-0.127-0.12383c-0.0921 0.10795-0.23178 0.1651-0.37465 0.1651-0.19368 0-0.47625-0.10795-0.49213-0.54292h1.0287c0.01-0.0984 6e-3 -0.19368-0.01-0.27623-0.0667-0.39052-0.33655-0.51435-0.57468-0.51435zm-0.43815 0.61595c0.0476-0.3429 0.2667-0.44132 0.42228-0.44132 0.23495 0 0.40322 0.20637 0.37465 0.44132z"/>
     <path d="m200.24 264.46c0-0.0984-0.0825-0.18097-0.18733-0.18097-0.10477 0-0.18732 0.0826-0.18732 0.18097 0 0.1016 0.0825 0.18098 0.18732 0.18098 0.10478 0 0.18733-0.0794 0.18733-0.18098zm0 1.0128c0-0.0984-0.0825-0.18098-0.18733-0.18098-0.10477 0-0.18732 0.0825-0.18732 0.18098 0 0.1016 0.0825 0.18415 0.18732 0.18415 0.10478 0 0.18733-0.0825 0.18733-0.18415z"/>
     <path d="m202.81 264.17v0.18733h0.34925v1.0827h-0.3683v0.18098h0.9398v-0.18098h-0.33972v-1.27zm0.4699-0.62865c-0.0921 0-0.1651 0.073-0.1651 0.16193 0 0.0889 0.073 0.16192 0.1651 0.16192s0.1651-0.073 0.1651-0.16192c0-0.0889-0.073-0.16193-0.1651-0.16193z"/>
     <path d="m204.28 265.62h0.23178v-0.83503c0-0.0952 0.0127-0.16827 0.073-0.24765 0.054-0.073 0.19368-0.2032 0.34608-0.2032 0.073 0 0.14605 0.0318 0.19685 0.0921 0.0794 0.0953 0.0794 0.21907 0.0794 0.32067v0.87313h0.22543v-0.87948c0-0.11112 0-0.23177-0.0508-0.34925-0.073-0.16192-0.22225-0.254-0.38735-0.254-0.19685 0-0.37465 0.127-0.4826 0.28893v-0.254h-0.23178z"/>
     <path d="m206.24 263.78-0.0286 0.39053h-0.34608l-3e-3 0.18732h0.33972c-0.019 0.24765-0.0286 0.4953-0.0286 0.73978 0 0.13017 0 0.27622 0.0857 0.39687 0.0699 0.0953 0.18098 0.1524 0.3302 0.1524 0.17145 0 0.33973-0.073 0.46355-0.16192l-0.0699-0.18098c-0.12382 0.0921-0.23812 0.13335-0.32702 0.13335-0.10795 0-0.21908-0.0603-0.24448-0.23495 0-0.0127-0.01-0.0667-0.01-0.2794 0-0.18732 0.01-0.37782 0.0286-0.56515h0.47625v-0.1905h-0.47307s0.0222-0.26035 0.0381-0.3429c3e-3 -0.0317 0.0286-0.0508 0.0159-0.0857z"/>
    </g>
    <g fill="#e8eaec" stroke-linecap="round" aria-label="+ maceStrike(): int">
     <path d="m190.47 268.72v0.53975h-0.56198v0.19685h0.56198v0.59372h0.20002v-0.59372h0.54293v-0.19685h-0.54293v-0.53975z"/>
     <path d="m193.06 270.38h0.20955v-0.9652c0-0.0698 6e-3 -0.13335 0.0476-0.20955 0.0508-0.0953 0.1143-0.13335 0.17463-0.13335 0.0508 0 0.10795 0.0317 0.13335 0.11112 0.019 0.0603 0.0159 0.13018 0.0159 0.1905v1.0065h0.21273v-0.95885c0-0.0762 6e-3 -0.13653 0.0603-0.2286 0.0254-0.0381 0.0794-0.13018 0.16828-0.13018 0.0476 0 0.0921 0.0286 0.1143 0.0826 0.0286 0.0603 0.0222 0.14288 0.0222 0.20955v1.0287h0.2159v-1.0319c0-0.12065 3e-3 -0.2413-0.0603-0.33973-0.054-0.0825-0.14605-0.1143-0.22543-0.1143-0.1397 0-0.26987 0.0826-0.32702 0.20955-0.0222-0.12065-0.12383-0.20955-0.254-0.20955-0.12065 0-0.23178 0.0762-0.29845 0.1778l3e-3 -0.14287h-0.21272z"/>
     <path d="m194.82 269.1 0.11113 0.14605c0.12065-0.12382 0.28257-0.16192 0.4191-0.16192 0.17145 0 0.25717 0.073 0.29845 0.1397 0.0476 0.0794 0.0445 0.17462 0.0445 0.25082v0.0508h-0.0445c-0.2159 0-0.4445 0-0.62865 0.0667-0.2286 0.0826-0.3302 0.254-0.3302 0.41275 0 0.21272 0.18415 0.41275 0.48577 0.41275 0.1778 0 0.36195-0.0667 0.5207-0.19685v0.15875h0.2159v-0.89853c0-0.11747-3e-3 -0.2286-0.0699-0.3429-0.0952-0.15557-0.2794-0.23812-0.50482-0.23812-0.19368 0-0.381 0.0603-0.51753 0.20002zm0.88265 0.60008v0.0984c0 0.073 0 0.16828-0.0984 0.27305-0.054 0.054-0.1905 0.17145-0.381 0.17145-0.19368 0-0.3048-0.12382-0.3048-0.25082 0-0.10795 0.073-0.22543 0.254-0.26988 0.13335-0.0317 0.32702-0.0222 0.47942-0.0222z"/>
     <path d="m197.57 269.17c-0.1143-0.16827-0.30797-0.26987-0.54292-0.26987-0.42545 0-0.72708 0.32067-0.72708 0.75565 0 0.43815 0.30163 0.762 0.71438 0.762 0.20002 0 0.39687-0.0826 0.5334-0.23178l-0.13018-0.1524c-0.0984 0.11113-0.2413 0.17463-0.38417 0.17463-0.28258 0-0.49848-0.23495-0.49848-0.57468 0-0.3302 0.21273-0.53657 0.47943-0.53657 0.24765 0 0.36512 0.17145 0.37465 0.1905 0.0127 0.0222-6e-3 0.054 0.019 0.073z"/>
     <path d="m198.53 268.9c-0.34607 0-0.66675 0.24765-0.66675 0.7747 0 0.48578 0.30163 0.74295 0.69533 0.74295 0.20955 0 0.39687-0.0762 0.5207-0.22542l-0.127-0.12383c-0.0921 0.10795-0.23178 0.1651-0.37465 0.1651-0.19368 0-0.47625-0.10795-0.49213-0.54292h1.0287c0.01-0.0984 6e-3 -0.19368-0.01-0.27623-0.0667-0.39052-0.33655-0.51435-0.57468-0.51435zm-0.43815 0.61595c0.0476-0.3429 0.2667-0.44132 0.42228-0.44132 0.23495 0 0.40322 0.20637 0.37465 0.44132z"/>
     <path d="m200.67 268.64c-0.13335-0.16193-0.3302-0.24765-0.5461-0.24765-0.35877 0-0.60325 0.23495-0.60325 0.508 0 0.1143 0.0445 0.26352 0.20955 0.38417 0.18415 0.13653 0.4699 0.2032 0.61913 0.29845 0.13017 0.0794 0.1651 0.18415 0.1651 0.27305 0 0.17145-0.14605 0.35878-0.4318 0.35878-0.2159 0-0.38418-0.10795-0.47308-0.21908-0.01-0.0127-0.01-0.0191-0.01-0.0318 0-6e-3 0-0.0254-0.0127-0.0317l-0.13335 0.2286c0.15557 0.16828 0.37782 0.254 0.6223 0.254 0.4826 0 0.6604-0.32385 0.6604-0.5715 0-0.10477-0.0318-0.2413-0.15558-0.35877-0.17145-0.16193-0.45085-0.21908-0.63182-0.32385-0.1651-0.0984-0.20003-0.2159-0.20003-0.29528 0-0.1524 0.13018-0.28892 0.3556-0.28892 0.18415 0 0.32703 0.0825 0.40323 0.19367 0.01 0.0127 6e-3 0.019 6e-3 0.0317 0 0.019 0.01 0.0254 0.0159 0.0254z"/>
     <path d="m201.48 268.54-0.0286 0.39053h-0.34608l-3e-3 0.18732h0.33972c-0.019 0.24765-0.0286 0.4953-0.0286 0.73978 0 0.13017 0 0.27622 0.0857 0.39687 0.0699 0.0953 0.18098 0.1524 0.3302 0.1524 0.17145 0 0.33973-0.073 0.46355-0.16192l-0.0699-0.18098c-0.12382 0.0921-0.23812 0.13335-0.32702 0.13335-0.10795 0-0.21908-0.0603-0.24448-0.23495 0-0.0127-0.01-0.0667-0.01-0.2794 0-0.18732 0.01-0.37782 0.0286-0.56515h0.47625v-0.1905h-0.47307s0.0222-0.26035 0.0381-0.3429c3e-3 -0.0317 0.0286-0.0508 0.0159-0.0857z"/>
     <path d="m202.79 268.93v1.451h0.2286v-0.70485c0-0.0889 3e-3 -0.18415 0.1016-0.33972 0.13335-0.20955 0.3048-0.24448 0.40957-0.24448 0.12065 0 0.19685 0.0571 0.23813 0.10795 0.0191 0.0254 0.0286 0.0508 0.054 0.073l0.10795-0.21908c-0.0921-0.0952-0.22542-0.15875-0.38735-0.15875-0.21272 0-0.42862 0.10795-0.52387 0.31433l0.01-0.2794z"/>
     <path d="m204.4 268.93v0.18733h0.34925v1.0827h-0.3683v0.18098h0.9398v-0.18098h-0.33972v-1.27zm0.4699-0.62865c-0.0921 0-0.1651 0.073-0.1651 0.16193 0 0.0889 0.073 0.16192 0.1651 0.16192s0.1651-0.073 0.1651-0.16192c0-0.0889-0.073-0.16193-0.1651-0.16193z"/>
     <path d="m205.86 268.27v2.1114h0.2286v-0.54927l0.19368-0.1778 0.59055 0.73977s0.12382-0.0127 0.27305-0.0127h0.0222l-0.7112-0.86677 0.61278-0.57468h-0.0825c-0.0572 0-0.1143-3e-3 -0.17145-0.019l-0.72708 0.67628v-1.2446c0-0.0127 3e-3 -0.0222 0.0127-0.0381 0.01-0.01 0.0222-0.0222 0.0191-0.0444z"/>
     <path d="m208.05 268.9c-0.34607 0-0.66675 0.24765-0.66675 0.7747 0 0.48578 0.30163 0.74295 0.69533 0.74295 0.20955 0 0.39687-0.0762 0.5207-0.22542l-0.127-0.12383c-0.0921 0.10795-0.23178 0.1651-0.37465 0.1651-0.19368 0-0.47625-0.10795-0.49213-0.54292h1.0287c0.01-0.0984 6e-3 -0.19368-0.01-0.27623-0.0667-0.39052-0.33655-0.51435-0.57468-0.51435zm-0.43815 0.61595c0.0476-0.3429 0.2667-0.44132 0.42228-0.44132 0.23495 0 0.40322 0.20637 0.37465 0.44132z"/>
     <path d="m210.06 268.26c-0.48895 0.2159-0.80328 0.71437-0.80328 1.2954 0 0.57785 0.3048 1.1049 0.80645 1.3684l0.10478-0.16827c-0.43498-0.25083-0.68898-0.71755-0.68898-1.2097 0-0.45402 0.21908-0.86042 0.59055-1.0763 6e-3 -6e-3 0.0159-0.0127 0.0286-0.0127 0.01 0 0.0191 6e-3 0.0318 6e-3 6e-3 0 0.0159-3e-3 0.0286-6e-3z"/>
     <path d="m210.65 268.46c0.4191 0.22543 0.6858 0.65723 0.6858 1.1303 0 0.47625-0.27305 0.92075-0.70168 1.1462l0.0603 0.19367c0.52705-0.25082 0.86677-0.77787 0.86677-1.3494 0-0.56515-0.33337-1.0795-0.8509-1.3176z"/>
     <path d="m212.94 269.22c0-0.0984-0.0826-0.18097-0.18733-0.18097-0.10477 0-0.18732 0.0825-0.18732 0.18097 0 0.1016 0.0825 0.18098 0.18732 0.18098 0.10478 0 0.18733-0.0794 0.18733-0.18098zm0 1.0128c0-0.0984-0.0826-0.18098-0.18733-0.18098-0.10477 0-0.18732 0.0826-0.18732 0.18098 0 0.1016 0.0825 0.18415 0.18732 0.18415 0.10478 0 0.18733-0.0826 0.18733-0.18415z"/>
     <path d="m215.51 268.93v0.18733h0.34925v1.0827h-0.3683v0.18098h0.9398v-0.18098h-0.33972v-1.27zm0.4699-0.62865c-0.0921 0-0.1651 0.073-0.1651 0.16193 0 0.0889 0.073 0.16192 0.1651 0.16192s0.1651-0.073 0.1651-0.16192c0-0.0889-0.073-0.16193-0.1651-0.16193z"/>
     <path d="m216.98 270.38h0.23178v-0.83503c0-0.0953 0.0127-0.16827 0.073-0.24765 0.054-0.073 0.19368-0.2032 0.34608-0.2032 0.073 0 0.14605 0.0317 0.19685 0.0921 0.0794 0.0952 0.0794 0.21907 0.0794 0.32067v0.87313h0.22543v-0.87948c0-0.11112 0-0.23177-0.0508-0.34925-0.073-0.16192-0.22225-0.254-0.38735-0.254-0.19685 0-0.37465 0.127-0.4826 0.28893v-0.254h-0.23178z"/>
     <path d="m218.94 268.54-0.0286 0.39053h-0.34608l-3e-3 0.18732h0.33972c-0.019 0.24765-0.0286 0.4953-0.0286 0.73978 0 0.13017 0 0.27622 0.0857 0.39687 0.0699 0.0953 0.18098 0.1524 0.3302 0.1524 0.17145 0 0.33973-0.073 0.46355-0.16192l-0.0698-0.18098c-0.12382 0.0921-0.23812 0.13335-0.32702 0.13335-0.10795 0-0.21908-0.0603-0.24448-0.23495 0-0.0127-0.01-0.0667-0.01-0.2794 0-0.18732 0.01-0.37782 0.0286-0.56515h0.47625v-0.1905h-0.47307s0.0222-0.26035 0.0381-0.3429c3e-3 -0.0317 0.0286-0.0508 0.0159-0.0857z"/>
    </g>
   </g>
  </g>
  <g fill="none">
   <path d="m188.68 267.1h32.808" stroke="#7b8694" stroke-dashoffset="1.2" stroke-linecap="square" stroke-width=".26458"/>
   <g stroke="#7893ea">
    <g transform="matrix(.0012159 -.0029355 -.0029858 -.0012368 133.74 245.67)" stroke-width="82.566">
     <g fill="none" stroke="#7893ea" stroke-width="82.566">
      <path d="m486.41 221.41-364.07-208.5c-52.938-30.318-95.852-5.44-95.852 55.563v415.65c0 61.004 42.914 85.882 95.852 55.563l364.07-208.49c52.938-30.317 52.938-79.473 0-109.79z" fill="none" stroke="#7893ea" stroke-width="82.566"/>
     </g>
    </g>
    <path d="m132.89 245.4-4.7126 11.377" stroke-linecap="round" stroke-width=".26458"/>
    <g transform="matrix(-.0029355 -.0012159 .0012368 -.0029858 159.58 241.47)" stroke-width="82.566">
     <g fill="none" stroke="#7893ea" stroke-width="82.566">
      <path d="m486.41 221.41-364.07-208.5c-52.938-30.318-95.852-5.44-95.852 55.563v415.65c0 61.004 42.914 85.882 95.852 55.563l364.07-208.49c52.938-30.317 52.938-79.473 0-109.79z" fill="none" stroke="#7893ea" stroke-width="82.566"/>
     </g>
    </g>
    <path d="m159.89 240.64 39.041 16.172" stroke-linecap="round" stroke-width=".26458"/>
    <g transform="matrix(-.0022468 -.0022468 .0022852 -.0022852 155.16 245.77)" stroke-width="82.566">
     <g fill="none" stroke="#7893ea" stroke-width="82.566">
      <path d="m486.41 221.41-364.07-208.5c-52.938-30.318-95.852-5.44-95.852 55.563v415.65c0 61.004 42.914 85.882 95.852 55.563l364.07-208.49c52.938-30.317 52.938-79.473 0-109.79z" fill="none" stroke="#7893ea" stroke-width="82.566"/>
     </g>
    </g>
    <path d="m155.81 245.17 11.642 11.642" stroke-linecap="round" stroke-width=".26458"/>
    <g transform="matrix(-.0031774 0 0 .0032318 159.87 234.84)" stroke-width="82.566">
     <g fill="none" stroke="#7893ea" stroke-width="82.566">
      <path d="m486.41 221.41-364.07-208.5c-52.938-30.318-95.852-5.44-95.852 55.563v415.65c0 61.004 42.914 85.882 95.852 55.563l364.07-208.49c52.938-30.317 52.938-79.473 0-109.79z" fill="none" stroke="#7893ea" stroke-width="82.566"/>
     </g>
    </g>
    <path d="m159.91 235.73h28.315" stroke-linecap="round" stroke-width=".26458"/>
    <path d="m205.02 244.08v12.435" stroke-dasharray="0.79375, 0.79375" stroke-linecap="square" stroke-width=".26458"/>
   </g>
  </g>
  <g transform="matrix(0 .0031774 -.0032318 0 205.92 255.24)" fill="#7893ea" stroke-width="82.566">
   <g fill="#7893ea" stroke-width="82.566">
    <path d="m486.41 221.41-364.07-208.5c-52.938-30.318-95.852-5.44-95.852 55.563v415.65c0 61.004 42.914 85.882 95.852 55.563l364.07-208.49c52.938-30.317 52.938-79.473 0-109.79z" fill="#7893ea" stroke-width="82.566"/>
   </g>
  </g>
  <g transform="matrix(0 -.0031774 -.0032318 0 141.1 215.45)" fill="none" stroke="#7893ea" stroke-width="82.566">
   <g fill="none" stroke="#7893ea" stroke-width="82.566">
    <path d="m486.41 221.41-364.07-208.5c-52.938-30.318-95.852-5.44-95.852 55.563v415.65c0 61.004 42.914 85.882 95.852 55.563l364.07-208.49c52.938-30.317 52.938-79.473 0-109.79z" fill="none" stroke="#7893ea" stroke-width="82.566"/>
   </g>
  </g>
  <g stroke-linecap="round" stroke-width=".26458">
   <path d="m140.21 215.33v12.336" fill="none" stroke="#7893ea"/>
   <rect x="122.34" y="197.65" width="35.851" height="16.007" fill="#2f3744" stroke="#7b8694"/>
   <g fill="#e8eaec" aria-label="RigidObject">
    <path d="m130.2 204.31v2.3077h0.25929v-1.0186h0.44821l0.51117 1.0186h0.29263l-0.5334-1.0261c0.27781-0.0778 0.47043-0.34078 0.47043-0.64823 0-0.22966-0.11483-0.4482-0.32967-0.55562-0.14446-0.0741-0.28893-0.0778-0.4408-0.0778zm0.25929 0.24447h0.41857c0.0963 0 0.18892 4e-3 0.28522 0.0482 0.14447 0.0741 0.21855 0.22225 0.21855 0.37042 0 0.14816-0.0704 0.28522-0.20373 0.35189-0.0889 0.0445-0.1778 0.0482-0.2704 0.0482h-0.44821z"/>
    <path d="m132.24 204.92v0.21855h0.40746v1.2631h-0.42968v0.21114h1.0964v-0.21114h-0.39634v-1.4817zm0.54822-0.73342c-0.10742 0-0.19262 0.0852-0.19262 0.18891s0.0852 0.18891 0.19262 0.18891 0.19262-0.0852 0.19262-0.18891c0-0.10372-0.0852-0.18891-0.19262-0.18891z"/>
    <path d="m134.16 205.45c0-0.20373 0.17039-0.37042 0.37412-0.37042 0.20743 0 0.37412 0.16669 0.37412 0.37042s-0.16669 0.37041-0.37412 0.37041-0.37412-0.16668-0.37412-0.37041zm0.38894-0.58156c-0.33708 0-0.62971 0.2667-0.62971 0.59637 0 0.18521 0.0926 0.35931 0.24818 0.45932-0.12224 0.10372-0.19262 0.21855-0.19262 0.32597 0 0.0704 0.0296 0.17039 0.13705 0.22595-0.1815 0.11483-0.27411 0.24077-0.27411 0.37412 0 0.18521 0.1704 0.40376 0.76306 0.40376 0.57415 0 0.78158-0.29263 0.78158-0.51859 0-0.14816-0.0852-0.29633-0.26299-0.36671-0.1778-0.0741-0.38153-0.0482-0.57415-0.0482-0.12594 0-0.20743-0.0111-0.24077-0.0222-0.0667-0.0185-0.10372-0.0593-0.10372-0.11112 0-0.0889 0.10372-0.1741 0.12224-0.18892 0.0667 0.0259 0.14076 0.037 0.21484 0.037 0.33338 0 0.60749-0.2667 0.60749-0.57785 0-0.10372-0.0296-0.20373-0.0852-0.28893 0.0889-0.0519 0.19262-0.0815 0.29633-0.0815 0.0333 0 0.063 4e-3 0.0963 0.0111l-0.0296-0.21854c-0.17039-0.0148-0.34078 0.0407-0.47043 0.14816-0.10742-0.10371-0.24818-0.15928-0.40375-0.15928zm-0.25559 1.6558c0.063 7e-3 0.15187 0.0148 0.28151 0.0222 0.12595 4e-3 0.263-7e-3 0.35931 7e-3 0.15557 0.0259 0.20373 0.12224 0.20373 0.19632 0 0.0741-0.0444 0.16298-0.15928 0.22596-0.12594 0.0667-0.2667 0.0741-0.38153 0.0741-0.0778 0-0.22225-4e-3 -0.34819-0.0556-0.13706-0.0556-0.16669-0.14817-0.16669-0.20744 0-0.12223 0.11483-0.21114 0.21114-0.26299z"/>
    <path d="m135.94 204.92v0.21855h0.40746v1.2631h-0.42968v0.21114h1.0964v-0.21114h-0.39634v-1.4817zm0.54822-0.73342c-0.10742 0-0.19262 0.0852-0.19262 0.18891s0.0852 0.18891 0.19262 0.18891 0.19262-0.0852 0.19262-0.18891c0-0.10372-0.0852-0.18891-0.19262-0.18891z"/>
    <path d="m138.78 205.17c-0.0815-0.1741-0.26299-0.28892-0.49636-0.28892-0.32226 0-0.7149 0.22965-0.7149 0.87418 0 0.626 0.34819 0.90011 0.67416 0.90011 0.21484 0 0.41487-0.12224 0.52229-0.31115v0.14817c0 0.0407 4e-3 0.0815 0.0148 0.12224h0.2667c-0.0148-0.0482-0.0148-0.10372-0.0148-0.15558l-4e-3 -2.2003c0-0.0222 0-0.0296 0.0148-0.0519 7e-3 -0.0111 0.0222-0.0296 0.0185-0.0556h-0.28152zm-0.48524-0.0704c0.14816 0 0.36671 0.0778 0.43338 0.32967 0.0222 0.0778 0.0296 0.17039 0.0296 0.35931 0 0.12964-7e-3 0.22225-0.037 0.31115-0.063 0.20002-0.24077 0.31856-0.41487 0.31856-0.19262 0-0.47784-0.14817-0.47784-0.7038 0-0.48524 0.27041-0.61489 0.46673-0.61489z"/>
    <path d="m141 205.47c0-0.21484-0.0148-0.50006-0.14075-0.74824-0.15187-0.29633-0.41487-0.43339-0.66675-0.43339-0.34449 0-0.82974 0.2667-0.82974 1.1742 0 0.90752 0.47784 1.1927 0.83344 1.1927 0.24818 0 0.51488-0.14076 0.66675-0.44821 0.12224-0.24818 0.13705-0.5334 0.13705-0.73713zm-0.81862-0.94086c0.16299 0 0.36301 0.0963 0.47043 0.36672 0.0778 0.19261 0.0889 0.41486 0.0889 0.60748 0 0.15187-7e-3 0.38894-0.10371 0.58526-0.10742 0.22595-0.28522 0.31485-0.4408 0.31485-0.25929 0-0.57785-0.24077-0.57785-0.97419 0-0.68898 0.32226-0.90012 0.56303-0.90012z"/>
    <path d="m141.33 204.15v2.4633h0.1741l0.0926-0.22225c0.11113 0.16668 0.29634 0.2667 0.50007 0.2667 0.34819 0 0.70749-0.29634 0.70749-0.91123 0-0.58896-0.34819-0.86307-0.68157-0.86307-0.21484 0-0.41486 0.11483-0.52228 0.30004v-0.94827c0-0.0222 4e-3 -0.0296 0.0222-0.0445 7e-3 -4e-3 0.0259-0.0185 0.0222-0.0408zm0.70009 0.96309c0.15928 0 0.49636 0.0926 0.49636 0.69268 0 0.51488-0.33338 0.61119-0.50006 0.61119-0.11483 0-0.37042-0.0445-0.41487-0.37042-0.0111-0.0852-0.0111-0.18521-0.0111-0.33338 0-0.15187 7e-3 -0.26299 0.0444-0.3556 0.063-0.15187 0.21854-0.24447 0.38523-0.24447z"/>
    <path d="m143.42 204.92v0.22225h0.63342v1.4039c0 0.0926-4e-3 0.18151-0.0444 0.27041-0.063 0.13705-0.19633 0.21484-0.34079 0.21484-0.20373 0-0.31485-0.14817-0.32967-0.17039-0.0148-0.0259-7e-3 -0.0482-0.0333-0.0667l-0.17039 0.22966c0.12224 0.15187 0.30745 0.23707 0.51488 0.23707 0.24448 0 0.47784-0.11483 0.59267-0.33708 0.0741-0.14447 0.0778-0.28152 0.0778-0.42598v-1.578zm0.77047-0.73342c-0.10742 0-0.19262 0.0852-0.19262 0.18891s0.0852 0.18891 0.19262 0.18891c0.10372 0 0.18891-0.0852 0.18891-0.18891 0-0.10372-0.0852-0.18891-0.18891-0.18891z"/>
    <path d="m145.77 204.88c-0.40375 0-0.77787 0.28892-0.77787 0.90382 0 0.56673 0.35189 0.86677 0.81121 0.86677 0.24447 0 0.46302-0.0889 0.60748-0.26299l-0.14816-0.14447c-0.10742 0.12595-0.27041 0.19262-0.4371 0.19262-0.22595 0-0.55562-0.12594-0.57414-0.63341h1.2002c0.0111-0.11483 7e-3 -0.22596-0.0111-0.32227-0.0778-0.45561-0.39265-0.60007-0.67046-0.60007zm-0.51117 0.71861c0.0556-0.40005 0.31115-0.51488 0.49265-0.51488 0.27411 0 0.47043 0.24077 0.43709 0.51488z"/>
    <path d="m148.35 205.2c-0.13335-0.19632-0.3593-0.31486-0.63341-0.31486-0.49636 0-0.84826 0.37412-0.84826 0.8816 0 0.51117 0.3519 0.889 0.83344 0.889 0.23336 0 0.46302-0.0963 0.6223-0.27041l-0.15187-0.1778c-0.11483 0.12965-0.28152 0.20373-0.4482 0.20373-0.32967 0-0.58156-0.27411-0.58156-0.67045 0-0.38524 0.24818-0.62601 0.55933-0.62601 0.28893 0 0.42598 0.20003 0.43709 0.22225 0.0148 0.0259-7e-3 0.063 0.0222 0.0852z"/>
    <path d="m149.21 204.47-0.0333 0.45562h-0.40375l-4e-3 0.21854h0.39635c-0.0222 0.28893-0.0333 0.57785-0.0333 0.86307 0 0.15187 0 0.32227 0.10001 0.46302 0.0815 0.11113 0.21114 0.1778 0.38524 0.1778 0.20002 0 0.39634-0.0852 0.54081-0.18891l-0.0815-0.21114c-0.14447 0.10742-0.27782 0.15558-0.38153 0.15558-0.12595 0-0.25559-0.0704-0.28523-0.27411 0-0.0148-0.0111-0.0778-0.0111-0.32597 0-0.21854 0.0111-0.44079 0.0333-0.65934h0.55563v-0.22225h-0.55193s0.0259-0.30374 0.0445-0.40005c4e-3 -0.037 0.0333-0.0593 0.0185-0.10001z"/>
   </g>
  </g>
  <g transform="matrix(0 -.0031774 -.0032318 0 141.1 185.29)" fill="none" stroke="#7893ea" stroke-width="82.566">
   <g fill="none" stroke="#7893ea" stroke-width="82.566">
    <path d="m486.41 221.41-364.07-208.5c-52.938-30.318-95.852-5.44-95.852 55.563v415.65c0 61.004 42.914 85.882 95.852 55.563l364.07-208.49c52.938-30.317 52.938-79.473 0-109.79z" fill="none" stroke="#7893ea" stroke-width="82.566"/>
   </g>
  </g>
  <path d="m140.21 185.16v12.336" fill="none" stroke="#7893ea" stroke-linecap="round" stroke-width=".26458"/>
  <g stroke-linecap="round" stroke-width=".26458">
   <rect x="122.34" y="167.49" width="35.851" height="16.007" fill="#2f3744" stroke="#7b8694"/>
   <g fill="#e8eaec" aria-label="GameObject">
    <path d="m131.95 174.12c-0.30744 0-0.8927 0.19262-0.8927 1.2039 0 0.87418 0.48895 1.1631 0.889 1.1631 0.21484 0 0.46302-0.0778 0.67786-0.24077v-0.90012h-0.65564v0.22225h0.41858v0.55192c-0.12965 0.0926-0.27782 0.14076-0.41487 0.14076-0.15187 0-0.31486-0.0593-0.4408-0.20373-0.19261-0.21854-0.21854-0.54451-0.21854-0.78528 0-0.21484 0.0259-0.42228 0.11483-0.59267 0.11853-0.22595 0.32596-0.32967 0.51858-0.32967 0.20743 0 0.37042 0.11483 0.4408 0.27041 0.0111 0.0259 0.0222 0.0556 0.0519 0.0741l0.18151-0.18521c-0.13335-0.24077-0.38524-0.38894-0.67046-0.38894z"/>
    <path d="m133.11 174.96 0.12965 0.17039c0.14075-0.14447 0.32967-0.18892 0.48895-0.18892 0.20002 0 0.30003 0.0852 0.34819 0.16299 0.0556 0.0926 0.0519 0.20373 0.0519 0.29263v0.0593h-0.0519c-0.25189 0-0.51859 0-0.73343 0.0778-0.2667 0.0963-0.38523 0.29634-0.38523 0.48154 0 0.24818 0.21484 0.48155 0.56674 0.48155 0.20743 0 0.42227-0.0778 0.60748-0.22966v0.18521h0.25188v-1.0483c0-0.13706-4e-3 -0.2667-0.0815-0.40005-0.11112-0.18151-0.32597-0.27782-0.58896-0.27782-0.22596 0-0.4445 0.0704-0.60378 0.23337zm1.0298 0.70008v0.11483c0 0.0852 0 0.19632-0.11483 0.31856-0.063 0.063-0.22225 0.20003-0.4445 0.20003-0.22596 0-0.3556-0.14447-0.3556-0.29263 0-0.12594 0.0852-0.263 0.29633-0.31486 0.15558-0.037 0.38153-0.0259 0.55933-0.0259z"/>
    <path d="m134.76 176.45h0.24448v-1.1261c0-0.0815 7e-3 -0.15558 0.0556-0.24448 0.0593-0.11112 0.13335-0.15557 0.20373-0.15557 0.0593 0 0.12594 0.037 0.15558 0.12964 0.0222 0.0704 0.0185 0.15187 0.0185 0.22225v1.1742h0.24818v-1.1187c0-0.0889 7e-3 -0.15928 0.0704-0.2667 0.0296-0.0445 0.0926-0.15187 0.19633-0.15187 0.0556 0 0.10742 0.0333 0.13335 0.0963 0.0333 0.0704 0.0259 0.16669 0.0259 0.24448v1.2002h0.25188v-1.2039c0-0.14075 4e-3 -0.28151-0.0704-0.39634-0.063-0.0963-0.17039-0.13335-0.263-0.13335-0.16298 0-0.31485 0.0963-0.38153 0.24447-0.0259-0.14075-0.14446-0.24447-0.29633-0.24447-0.14076 0-0.2704 0.0889-0.34819 0.20743l4e-3 -0.16669h-0.24818z"/>
    <path d="m137.43 174.72c-0.40376 0-0.77788 0.28892-0.77788 0.90382 0 0.56673 0.3519 0.86677 0.81122 0.86677 0.24447 0 0.46302-0.0889 0.60748-0.26299l-0.14817-0.14447c-0.10742 0.12594-0.2704 0.19262-0.43709 0.19262-0.22595 0-0.55562-0.12594-0.57414-0.63341h1.2002c0.0111-0.11483 7e-3 -0.22596-0.0111-0.32227-0.0778-0.45561-0.39264-0.60007-0.67045-0.60007zm-0.51118 0.71861c0.0556-0.40005 0.31115-0.51488 0.49266-0.51488 0.27411 0 0.47043 0.24077 0.43709 0.51488z"/>
    <path d="m140.07 175.3c0-0.21484-0.0148-0.50006-0.14076-0.74824-0.15187-0.29633-0.41486-0.43339-0.66675-0.43339-0.34448 0-0.82973 0.2667-0.82973 1.1742 0 0.90753 0.47784 1.1928 0.83344 1.1928 0.24818 0 0.51488-0.14076 0.66675-0.44821 0.12224-0.24818 0.13705-0.5334 0.13705-0.73713zm-0.81862-0.94086c0.16298 0 0.36301 0.0963 0.47043 0.36672 0.0778 0.19261 0.0889 0.41486 0.0889 0.60748 0 0.15187-7e-3 0.38894-0.10372 0.58526-0.10742 0.22595-0.28522 0.31485-0.44079 0.31485-0.25929 0-0.57785-0.24077-0.57785-0.97419 0-0.68898 0.32226-0.90012 0.56303-0.90012z"/>
    <path d="m140.4 173.99v2.4633h0.1741l0.0926-0.22225c0.11112 0.16668 0.29633 0.2667 0.50006 0.2667 0.34819 0 0.7075-0.29634 0.7075-0.91123 0-0.58896-0.34819-0.86307-0.68157-0.86307-0.21484 0-0.41487 0.11483-0.52229 0.30004v-0.94827c0-0.0222 4e-3 -0.0296 0.0222-0.0444 7e-3 -4e-3 0.0259-0.0185 0.0222-0.0408zm0.70009 0.96309c0.15928 0 0.49636 0.0926 0.49636 0.69268 0 0.51488-0.33338 0.61118-0.50007 0.61118-0.11483 0-0.37041-0.0445-0.41486-0.37041-0.0111-0.0852-0.0111-0.18521-0.0111-0.33338 0-0.15187 7e-3 -0.26299 0.0444-0.3556 0.063-0.15187 0.21855-0.24447 0.38524-0.24447z"/>
    <path d="m142.5 174.76v0.22225h0.63341v1.4039c0 0.0926-4e-3 0.18151-0.0444 0.27041-0.063 0.13705-0.19632 0.21484-0.34078 0.21484-0.20373 0-0.31486-0.14817-0.32967-0.17039-0.0148-0.0259-7e-3 -0.0482-0.0333-0.0667l-0.17039 0.22966c0.12224 0.15187 0.30744 0.23707 0.51488 0.23707 0.24447 0 0.47784-0.11483 0.59267-0.33708 0.0741-0.14447 0.0778-0.28152 0.0778-0.42598v-1.578zm0.77047-0.73343c-0.10742 0-0.19262 0.0852-0.19262 0.18892 0 0.10371 0.0852 0.18891 0.19262 0.18891 0.10371 0 0.18891-0.0852 0.18891-0.18891 0-0.10372-0.0852-0.18892-0.18891-0.18892z"/>
    <path d="m144.84 174.72c-0.40376 0-0.77788 0.28892-0.77788 0.90382 0 0.56673 0.3519 0.86677 0.81122 0.86677 0.24447 0 0.46302-0.0889 0.60748-0.26299l-0.14817-0.14447c-0.10742 0.12594-0.2704 0.19262-0.43709 0.19262-0.22595 0-0.55562-0.12594-0.57414-0.63341h1.2002c0.0111-0.11483 7e-3 -0.22596-0.0111-0.32227-0.0778-0.45561-0.39264-0.60007-0.67045-0.60007zm-0.51118 0.71861c0.0556-0.40005 0.31115-0.51488 0.49266-0.51488 0.27411 0 0.47043 0.24077 0.43709 0.51488z"/>
    <path d="m147.43 175.04c-0.13335-0.19632-0.3593-0.31486-0.63341-0.31486-0.49636 0-0.84826 0.37412-0.84826 0.8816 0 0.51117 0.3519 0.889 0.83344 0.889 0.23336 0 0.46302-0.0963 0.6223-0.27041l-0.15187-0.1778c-0.11483 0.12965-0.28152 0.20373-0.4482 0.20373-0.32968 0-0.58156-0.27411-0.58156-0.67045 0-0.38524 0.24818-0.62601 0.55933-0.62601 0.28893 0 0.42598 0.20003 0.43709 0.22225 0.0148 0.0259-7e-3 0.063 0.0222 0.0852z"/>
    <path d="m148.29 174.31-0.0333 0.45561h-0.40376l-4e-3 0.21855h0.39635c-0.0222 0.28893-0.0333 0.57785-0.0333 0.86307 0 0.15187 0 0.32226 0.10001 0.46302 0.0815 0.11113 0.21114 0.1778 0.38524 0.1778 0.20002 0 0.39634-0.0852 0.5408-0.18891l-0.0815-0.21114c-0.14446 0.10742-0.27781 0.15558-0.38153 0.15558-0.12594 0-0.25558-0.0704-0.28522-0.27411 0-0.0148-0.0111-0.0778-0.0111-0.32597 0-0.21854 0.0111-0.44079 0.0333-0.65934h0.55562v-0.22225h-0.55192s0.0259-0.30374 0.0445-0.40005c4e-3 -0.037 0.0333-0.0593 0.0185-0.10001z"/>
   </g>
   <rect x="58.836" y="227.81" width="35.851" height="16.007" fill="#2f3744" stroke="#7b8694"/>
   <g fill="#e8eaec" aria-label="Background">
    <path d="m67.599 234.47v2.3077h0.65193c0.15558 0 0.31485 0 0.47413-0.0667 0.24818-0.10742 0.38523-0.33337 0.38523-0.57044 0-0.2704-0.1741-0.51118-0.42968-0.59637 0.20373-0.0852 0.34078-0.28893 0.34078-0.50747 0-0.20744-0.11853-0.40746-0.33708-0.50007-0.14446-0.063-0.28892-0.0667-0.42968-0.0667zm0.25559 0.22225h0.36301c0.10001 0 0.20373 0 0.30745 0.0408 0.15187 0.063 0.23336 0.19261 0.23336 0.32596s-0.07779 0.25929-0.22225 0.32227c-0.10742 0.0445-0.21855 0.0445-0.32226 0.0445h-0.3593zm0 0.95197h0.37783c0.11483 0 0.22966 4e-3 0.34449 0.0593 0.17039 0.0778 0.263 0.24447 0.263 0.41116s-0.0889 0.31856-0.24818 0.39264c-0.10001 0.0444-0.19632 0.0444-0.29633 0.0444h-0.4408z"/>
    <path d="m69.607 235.28 0.12965 0.17039c0.14076-0.14446 0.32967-0.18891 0.48895-0.18891 0.20002 0 0.30004 0.0852 0.34819 0.16298 0.05556 0.0926 0.05186 0.20373 0.05186 0.29263v0.0593h-0.05186c-0.25188 0-0.51858 0-0.73342 0.0778-0.2667 0.0963-0.38523 0.29634-0.38523 0.48155 0 0.24817 0.21484 0.48154 0.56674 0.48154 0.20743 0 0.42228-0.0778 0.60748-0.22966v0.18521h0.25188v-1.0483c0-0.13706-0.0037-0.2667-0.08149-0.40005-0.11113-0.18151-0.32597-0.27782-0.58896-0.27782-0.22596 0-0.4445 0.0704-0.60378 0.23337zm1.0298 0.70009v0.11482c0 0.0852 0 0.19633-0.11483 0.31856-0.06297 0.063-0.22225 0.20003-0.4445 0.20003-0.22595 0-0.3556-0.14446-0.3556-0.29263 0-0.12594 0.0852-0.263 0.29633-0.31486 0.15558-0.037 0.38153-0.0259 0.55933-0.0259z"/>
    <path d="m72.815 235.37c-0.13335-0.19632-0.3593-0.31486-0.63341-0.31486-0.49636 0-0.84826 0.37413-0.84826 0.8816 0 0.51117 0.3519 0.889 0.83344 0.889 0.23336 0 0.46302-0.0963 0.6223-0.27041l-0.15187-0.1778c-0.11483 0.12965-0.28152 0.20373-0.4482 0.20373-0.32967 0-0.58155-0.27411-0.58155-0.67045 0-0.38524 0.24818-0.62601 0.55933-0.62601 0.28893 0 0.42598 0.20003 0.43709 0.22225 0.01482 0.0259-0.0074 0.063 0.02223 0.0852z"/>
    <path d="m73.222 234.32v2.4633h0.2667v-0.64082l0.22595-0.20743 0.68898 0.86307s0.14446-0.0148 0.31856-0.0148h0.02593l-0.82973-1.0112 0.7149-0.67045h-0.09631c-0.06667 0-0.13335-4e-3 -0.20002-0.0222l-0.84826 0.78899v-1.452c0-0.0148 0.0037-0.0259 0.01482-0.0445 0.01111-0.0111 0.02593-0.0259 0.02223-0.0519z"/>
    <path d="m75.293 235.61c0-0.20373 0.17039-0.37042 0.37412-0.37042 0.20743 0 0.37412 0.16669 0.37412 0.37042s-0.16669 0.37042-0.37412 0.37042c-0.20743 0-0.37412-0.16669-0.37412-0.37042zm0.38894-0.58156c-0.33708 0-0.62971 0.2667-0.62971 0.59637 0 0.18521 0.0926 0.35931 0.24818 0.45932-0.12224 0.10372-0.19262 0.21855-0.19262 0.32597 0 0.0704 0.02963 0.17039 0.13706 0.22595-0.1815 0.11483-0.27411 0.24077-0.27411 0.37412 0 0.18521 0.17039 0.40376 0.76306 0.40376 0.57415 0 0.78158-0.29263 0.78158-0.51858 0-0.14817-0.0852-0.29634-0.263-0.36672-0.1778-0.0741-0.38153-0.0481-0.57415-0.0481-0.12594 0-0.20743-0.0111-0.24077-0.0222-0.06668-0.0185-0.10372-0.0593-0.10372-0.11112 0-0.0889 0.10372-0.1741 0.12224-0.18891 0.06668 0.0259 0.14076 0.037 0.21484 0.037 0.33338 0 0.60748-0.2667 0.60748-0.57785 0-0.10372-0.02963-0.20373-0.0852-0.28893 0.0889-0.0519 0.19262-0.0815 0.29633-0.0815 0.03334 0 0.06297 4e-3 0.09631 0.0111l-0.02963-0.21854c-0.17039-0.0148-0.34078 0.0407-0.47043 0.14816-0.10742-0.10371-0.24818-0.15928-0.40375-0.15928zm-0.25559 1.6558c0.06297 7e-3 0.15187 0.0148 0.28152 0.0222 0.12594 4e-3 0.263-7e-3 0.3593 7e-3 0.15558 0.0259 0.20373 0.12224 0.20373 0.19632 0 0.0741-0.04445 0.16299-0.15928 0.22596-0.12594 0.0667-0.2667 0.0741-0.38153 0.0741-0.07779 0-0.22225-4e-3 -0.34819-0.0556-0.13705-0.0556-0.16669-0.14817-0.16669-0.20744 0-0.12223 0.11483-0.21113 0.21114-0.26299z"/>
    <path d="m77.049 235.09v1.6928h0.2667v-0.82232c0-0.10372 0.0037-0.21485 0.11853-0.39635 0.15558-0.24448 0.3556-0.28522 0.47784-0.28522 0.14076 0 0.22966 0.0667 0.27781 0.12594 0.02223 0.0296 0.03334 0.0593 0.06297 0.0852l0.12594-0.25559c-0.10742-0.11113-0.263-0.18521-0.45191-0.18521-0.24818 0-0.50006 0.12594-0.61119 0.36671l0.01111-0.32596z"/>
    <path d="m80.238 235.94c0-0.58526-0.37042-0.88901-0.75565-0.88901-0.42968 0-0.8001 0.37042-0.8001 0.89641 0 0.51488 0.36671 0.87789 0.79269 0.87789 0.40005 0 0.76306-0.32226 0.76306-0.88529zm-0.77417-0.66305c0.24448 0 0.50377 0.21114 0.50377 0.67416 0 0.42598-0.24448 0.64082-0.48895 0.64082-0.2704 0-0.51488-0.25188-0.51488-0.67046 0-0.41486 0.24077-0.64452 0.50006-0.64452z"/>
    <path d="m80.616 235.09v0.94456c0 0.14446 0 0.29263 0.06667 0.4445 0.09631 0.22225 0.30374 0.34449 0.52599 0.34449 0.21114 0 0.41116-0.11483 0.52229-0.30004l-0.0037 0.12594c0 0.0444 0 0.0889 0.0074 0.12965h0.28152c-0.01852-0.0482-0.02222-0.10372-0.02222-0.15187v-1.5372h-0.2667v0.92974c0 0.12965-0.01111 0.22966-0.06668 0.33338-0.07779 0.14446-0.22966 0.25188-0.39264 0.25188-0.12965 0-0.25559-0.0741-0.32226-0.20743-0.05927-0.11854-0.05927-0.25189-0.05927-0.36301v-0.94456z"/>
    <path d="m82.49 236.78h0.2704v-0.9742c0-0.11112 0.01482-0.19632 0.0852-0.28892 0.06297-0.0852 0.22596-0.23707 0.40376-0.23707 0.0852 0 0.17039 0.037 0.22966 0.10742 0.09261 0.11112 0.09261 0.25559 0.09261 0.37412v1.0186h0.263v-1.0261c0-0.12964 0-0.2704-0.05927-0.40746-0.0852-0.18891-0.25929-0.29633-0.45191-0.29633-0.22966 0-0.43709 0.14817-0.56303 0.33708v-0.29633h-0.2704z"/>
    <path d="m85.464 235.33c-0.08149-0.17409-0.263-0.28892-0.49636-0.28892-0.32226 0-0.7149 0.22965-0.7149 0.87418 0 0.626 0.34819 0.90011 0.67416 0.90011 0.21484 0 0.41487-0.12223 0.52229-0.31115v0.14817c0 0.0408 0.0037 0.0815 0.01482 0.12224h0.2667c-0.01482-0.0482-0.01482-0.10372-0.01482-0.15558l-0.0037-2.2003c0-0.0222 0-0.0296 0.01482-0.0519 0.0074-0.0111 0.02223-0.0296 0.01852-0.0556h-0.28152zm-0.48525-0.0704c0.14817 0 0.36671 0.0778 0.43339 0.32967 0.02222 0.0778 0.02963 0.17039 0.02963 0.35931 0 0.12964-0.0074 0.22225-0.03704 0.31115-0.06297 0.20002-0.24077 0.31856-0.41487 0.31856-0.19262 0-0.47784-0.14817-0.47784-0.7038 0-0.48524 0.2704-0.61489 0.46672-0.61489z"/>
   </g>
  </g>
  <g transform="matrix(0 -.0031774 -.0032318 0 77.598 215.45)" fill="none" stroke="#7893ea" stroke-width="82.566">
   <g fill="none" stroke="#7893ea" stroke-width="82.566">
    <path d="m486.41 221.41-364.07-208.5c-52.938-30.318-95.852-5.44-95.852 55.563v415.65c0 61.004 42.914 85.882 95.852 55.563l364.07-208.49c52.938-30.317 52.938-79.473 0-109.79z" fill="none" stroke="#7893ea" stroke-width="82.566"/>
   </g>
  </g>
  <path d="m76.71 215.33 2.6e-5 12.336" fill="none" stroke="#7893ea" stroke-linecap="round" stroke-width=".26458"/>
  <g stroke-linecap="round" stroke-width=".26458">
   <rect x="58.836" y="197.65" width="35.851" height="16.007" fill="#2f3744" stroke="#7b8694"/>
   <g fill="#e8eaec" aria-label="StaticObject">
    <path d="m67.177 204.58c-0.15558-0.18891-0.38523-0.28892-0.63712-0.28892-0.41857 0-0.70379 0.2741-0.70379 0.59266 0 0.13335 0.05186 0.30745 0.24448 0.44821 0.21484 0.15928 0.54822 0.23706 0.72231 0.34819 0.15187 0.0926 0.19262 0.21484 0.19262 0.31856 0 0.20002-0.17039 0.41857-0.50377 0.41857-0.25188 0-0.4482-0.12594-0.55192-0.25559-0.01111-0.0148-0.01111-0.0222-0.01111-0.037 0-7e-3 0-0.0296-0.01482-0.037l-0.15558 0.2667c0.1815 0.19632 0.4408 0.29633 0.72602 0.29633 0.56303 0 0.77047-0.37782 0.77047-0.66675 0-0.12224-0.03704-0.28151-0.1815-0.41857-0.20003-0.18891-0.52599-0.25559-0.73713-0.37782-0.19262-0.11483-0.23336-0.25189-0.23336-0.34449 0-0.1778 0.15187-0.33708 0.41487-0.33708 0.21484 0 0.38153 0.0963 0.47043 0.22595 0.01111 0.0148 0.0074 0.0222 0.0074 0.037 0 0.0222 0.01111 0.0296 0.01852 0.0296z"/>
    <path d="m68.118 204.47-0.03334 0.45562h-0.40376l-0.0037 0.21854h0.39635c-0.02223 0.28893-0.03334 0.57785-0.03334 0.86307 0 0.15187 0 0.32227 0.10001 0.46302 0.08149 0.11113 0.21114 0.1778 0.38523 0.1778 0.20002 0 0.39635-0.0852 0.54081-0.18891l-0.08149-0.21114c-0.14446 0.10742-0.27781 0.15558-0.38153 0.15558-0.12594 0-0.25559-0.0704-0.28522-0.27411 0-0.0148-0.01111-0.0778-0.01111-0.32597 0-0.21854 0.01111-0.44079 0.03334-0.65934h0.55562v-0.22225h-0.55192s0.02593-0.30374 0.04445-0.40005c0.0037-0.037 0.03334-0.0593 0.01852-0.10001z"/>
    <path d="m69.607 205.12 0.12965 0.17039c0.14076-0.14446 0.32967-0.18891 0.48895-0.18891 0.20002 0 0.30004 0.0852 0.34819 0.16298 0.05556 0.0926 0.05186 0.20373 0.05186 0.29263v0.0593h-0.05186c-0.25188 0-0.51858 0-0.73342 0.0778-0.2667 0.0963-0.38523 0.29634-0.38523 0.48154 0 0.24818 0.21484 0.48155 0.56674 0.48155 0.20743 0 0.42228-0.0778 0.60748-0.22966v0.18521h0.25188v-1.0483c0-0.13706-0.0037-0.2667-0.08149-0.40005-0.11113-0.18151-0.32597-0.27782-0.58896-0.27782-0.22596 0-0.4445 0.0704-0.60378 0.23337zm1.0298 0.70008v0.11483c0 0.0852 0 0.19632-0.11483 0.31856-0.06297 0.063-0.22225 0.20003-0.4445 0.20003-0.22595 0-0.3556-0.14447-0.3556-0.29263 0-0.12594 0.0852-0.263 0.29633-0.31486 0.15558-0.037 0.38153-0.0259 0.55933-0.0259z"/>
    <path d="m71.822 204.47-0.03334 0.45562h-0.40376l-0.0037 0.21854h0.39635c-0.02222 0.28893-0.03334 0.57785-0.03334 0.86307 0 0.15187 0 0.32227 0.10001 0.46302 0.08149 0.11113 0.21114 0.1778 0.38523 0.1778 0.20002 0 0.39635-0.0852 0.54081-0.18891l-0.08149-0.21114c-0.14446 0.10742-0.27781 0.15558-0.38153 0.15558-0.12594 0-0.25559-0.0704-0.28522-0.27411 0-0.0148-0.01111-0.0778-0.01111-0.32597 0-0.21854 0.01111-0.44079 0.03334-0.65934h0.55562v-0.22225h-0.55192s0.02593-0.30374 0.04445-0.40005c0.0037-0.037 0.03334-0.0593 0.01852-0.10001z"/>
    <path d="m73.37 204.92v0.21855h0.40746v1.2631h-0.42968v0.21114h1.0964v-0.21114h-0.39635v-1.4817zm0.54822-0.73342c-0.10742 0-0.19262 0.0852-0.19262 0.18891s0.0852 0.18891 0.19262 0.18891c0.10742 0 0.19262-0.0852 0.19262-0.18891 0-0.10372-0.08519-0.18891-0.19262-0.18891z"/>
    <path d="m76.519 205.2c-0.13335-0.19632-0.3593-0.31486-0.63341-0.31486-0.49636 0-0.84826 0.37412-0.84826 0.8816 0 0.51117 0.3519 0.889 0.83344 0.889 0.23336 0 0.46302-0.0963 0.6223-0.27041l-0.15187-0.1778c-0.11483 0.12965-0.28152 0.20373-0.4482 0.20373-0.32967 0-0.58156-0.27411-0.58156-0.67045 0-0.38524 0.24818-0.62601 0.55933-0.62601 0.28892 0 0.42598 0.20003 0.43709 0.22225 0.01482 0.0259-0.0074 0.063 0.02222 0.0852z"/>
    <path d="m78.426 205.47c0-0.21484-0.01482-0.50006-0.14076-0.74824-0.15187-0.29633-0.41487-0.43339-0.66675-0.43339-0.34449 0-0.82973 0.2667-0.82973 1.1742 0 0.90752 0.47784 1.1927 0.83344 1.1927 0.24818 0 0.51488-0.14076 0.66675-0.44821 0.12224-0.24818 0.13705-0.5334 0.13705-0.73713zm-0.81862-0.94086c0.16298 0 0.36301 0.0963 0.47043 0.36672 0.07779 0.19261 0.0889 0.41486 0.0889 0.60748 0 0.15187-0.0074 0.38894-0.10372 0.58526-0.10742 0.22595-0.28522 0.31485-0.4408 0.31485-0.25929 0-0.57785-0.24077-0.57785-0.97419 0-0.68898 0.32226-0.90012 0.56303-0.90012z"/>
    <path d="m78.752 204.15v2.4633h0.1741l0.0926-0.22225c0.11112 0.16668 0.29633 0.2667 0.50006 0.2667 0.34819 0 0.7075-0.29634 0.7075-0.91123 0-0.58896-0.34819-0.86307-0.68157-0.86307-0.21484 0-0.41487 0.11483-0.52229 0.30004v-0.94827c0-0.0222 0.0037-0.0296 0.02222-0.0445 0.0074-4e-3 0.02593-0.0185 0.02223-0.0408zm0.70009 0.96309c0.15928 0 0.49636 0.0926 0.49636 0.69268 0 0.51488-0.33338 0.61119-0.50006 0.61119-0.11483 0-0.37042-0.0445-0.41487-0.37042-0.01111-0.0852-0.01111-0.18521-0.01111-0.33338 0-0.15187 0.0074-0.26299 0.04445-0.3556 0.06297-0.15187 0.21855-0.24447 0.38523-0.24447z"/>
    <path d="m80.849 204.92v0.22225h0.63341v1.4039c0 0.0926-0.0037 0.18151-0.04445 0.27041-0.06297 0.13705-0.19632 0.21484-0.34078 0.21484-0.20373 0-0.31485-0.14817-0.32967-0.17039-0.01482-0.0259-0.0074-0.0482-0.03334-0.0667l-0.17039 0.22966c0.12224 0.15187 0.30745 0.23707 0.51488 0.23707 0.24448 0 0.47784-0.11483 0.59267-0.33708 0.07408-0.14447 0.07779-0.28152 0.07779-0.42598v-1.578zm0.77047-0.73342c-0.10742 0-0.19262 0.0852-0.19262 0.18891s0.0852 0.18891 0.19262 0.18891c0.10372 0 0.18891-0.0852 0.18891-0.18891 0-0.10372-0.0852-0.18891-0.18891-0.18891z"/>
    <path d="m83.194 204.88c-0.40375 0-0.77788 0.28892-0.77788 0.90382 0 0.56673 0.3519 0.86677 0.81121 0.86677 0.24448 0 0.46302-0.0889 0.60748-0.26299l-0.14817-0.14447c-0.10742 0.12595-0.2704 0.19262-0.43709 0.19262-0.22595 0-0.55562-0.12594-0.57415-0.63341h1.2002c0.01111-0.11483 0.0074-0.22596-0.01111-0.32227-0.07779-0.45561-0.39264-0.60007-0.67046-0.60007zm-0.51118 0.71861c0.05556-0.40005 0.31115-0.51488 0.49266-0.51488 0.27411 0 0.47043 0.24077 0.43709 0.51488z"/>
    <path d="m85.779 205.2c-0.13335-0.19632-0.3593-0.31486-0.63341-0.31486-0.49636 0-0.84826 0.37412-0.84826 0.8816 0 0.51117 0.3519 0.889 0.83344 0.889 0.23336 0 0.46302-0.0963 0.6223-0.27041l-0.15187-0.1778c-0.11483 0.12965-0.28152 0.20373-0.4482 0.20373-0.32967 0-0.58156-0.27411-0.58156-0.67045 0-0.38524 0.24818-0.62601 0.55933-0.62601 0.28892 0 0.42598 0.20003 0.43709 0.22225 0.01482 0.0259-0.0074 0.063 0.02223 0.0852z"/>
    <path d="m86.639 204.47-0.03334 0.45562h-0.40375l-0.0037 0.21854h0.39635c-0.02222 0.28893-0.03334 0.57785-0.03334 0.86307 0 0.15187 0 0.32227 0.10001 0.46302 0.08149 0.11113 0.21114 0.1778 0.38523 0.1778 0.20002 0 0.39635-0.0852 0.54081-0.18891l-0.08149-0.21114c-0.14446 0.10742-0.27781 0.15558-0.38153 0.15558-0.12594 0-0.25559-0.0704-0.28522-0.27411 0-0.0148-0.01111-0.0778-0.01111-0.32597 0-0.21854 0.01111-0.44079 0.03334-0.65934h0.55563v-0.22225h-0.55192s0.02593-0.30374 0.04445-0.40005c0.0037-0.037 0.03334-0.0593 0.01852-0.10001z"/>
   </g>
   <rect x="185.84" y="197.65" width="35.851" height="16.007" fill="#2f3744" stroke="#7b8694"/>
   <g fill="#e8eaec" aria-label="Platform">
    <path d="m196.49 204.31v2.3077h0.2704v-1.0186h0.45191c0.14446 0 0.28152-4e-3 0.42227-0.0741 0.21485-0.10742 0.32597-0.32967 0.32597-0.56304 0-0.23336-0.11112-0.45931-0.32967-0.57044-0.14446-0.0778-0.28893-0.0815-0.43709-0.0815zm0.2704 0.24447h0.43339c0.0963 0 0.18891 4e-3 0.28522 0.0482 0.14076 0.0741 0.21855 0.22225 0.21855 0.37042 0 0.14816-0.0741 0.28522-0.20744 0.35189-0.0889 0.0445-0.1778 0.0482-0.2667 0.0482h-0.46672z"/>
    <path d="m198.44 204.15v0.21484h0.48154v2.0336h-0.50377v0.21114h1.2705v-0.21114h-0.50006v-2.2484z"/>
    <path d="m200.31 205.12 0.12964 0.17039c0.14076-0.14446 0.32968-0.18891 0.48896-0.18891 0.20002 0 0.30003 0.0852 0.34819 0.16298 0.0556 0.0926 0.0519 0.20373 0.0519 0.29263v0.0593h-0.0519c-0.25189 0-0.51859 0-0.73343 0.0778-0.2667 0.0963-0.38523 0.29634-0.38523 0.48154 0 0.24818 0.21484 0.48155 0.56674 0.48155 0.20743 0 0.42227-0.0778 0.60748-0.22966v0.18521h0.25188v-1.0483c0-0.13706-4e-3 -0.2667-0.0815-0.40005-0.11112-0.18151-0.32597-0.27782-0.58896-0.27782-0.22596 0-0.4445 0.0704-0.60378 0.23337zm1.0298 0.70008v0.11483c0 0.0852 0 0.19632-0.11483 0.31856-0.063 0.063-0.22225 0.20003-0.4445 0.20003-0.22596 0-0.3556-0.14447-0.3556-0.29263 0-0.12594 0.0852-0.263 0.29633-0.31486 0.15558-0.037 0.38153-0.0259 0.55933-0.0259z"/>
    <path d="m202.53 204.47-0.0333 0.45562h-0.40376l-4e-3 0.21854h0.39634c-0.0222 0.28893-0.0333 0.57785-0.0333 0.86307 0 0.15187 0 0.32227 0.10001 0.46302 0.0815 0.11113 0.21114 0.1778 0.38523 0.1778 0.20003 0 0.39635-0.0852 0.54081-0.18891l-0.0815-0.21114c-0.14446 0.10742-0.27781 0.15558-0.38153 0.15558-0.12594 0-0.25559-0.0704-0.28522-0.27411 0-0.0148-0.0111-0.0778-0.0111-0.32597 0-0.21854 0.0111-0.44079 0.0333-0.65934h0.55563v-0.22225h-0.55192s0.0259-0.30374 0.0444-0.40005c4e-3 -0.037 0.0333-0.0593 0.0185-0.10001z"/>
    <path d="m204.95 204.13c-0.23706 0-0.45931 0.10002-0.57785 0.29263-0.0889 0.14076-0.0926 0.28152-0.0926 0.43339v0.16669h-0.37042v0.21114h0.37042v1.378h0.25559v-1.378h0.55192v-0.21114h-0.55192v-0.13335c0-0.12224-4e-3 -0.25189 0.0593-0.36301 0.0704-0.12594 0.20373-0.18891 0.34079-0.18891 0.16298 0 0.30004 0.0852 0.37041 0.19261 0.0111 0.0185 0.0111 0.0296 0.0111 0.0445 0 0.0259 0.0185 0.0333 0.0296 0.0333l0.12224-0.24818c-0.12224-0.14446-0.30745-0.22966-0.51859-0.22966z"/>
    <path d="m207.24 205.78c0-0.58525-0.37042-0.889-0.75565-0.889-0.42969 0-0.8001 0.37042-0.8001 0.89641 0 0.51488 0.36671 0.87789 0.79269 0.87789 0.40005 0 0.76306-0.32226 0.76306-0.8853zm-0.77417-0.66304c0.24447 0 0.50376 0.21114 0.50376 0.67416 0 0.42598-0.24447 0.64082-0.48895 0.64082-0.2704 0-0.51488-0.25189-0.51488-0.67046 0-0.41486 0.24077-0.64452 0.50007-0.64452z"/>
    <path d="m207.75 204.93v1.6928h0.2667v-0.82232c0-0.10372 4e-3 -0.21485 0.11853-0.39635 0.15558-0.24448 0.3556-0.28522 0.47784-0.28522 0.14076 0 0.22966 0.0667 0.27781 0.12594 0.0222 0.0296 0.0333 0.0593 0.063 0.0852l0.12594-0.25559c-0.10742-0.11113-0.26299-0.18521-0.45191-0.18521-0.24817 0-0.50006 0.12594-0.61118 0.36671l0.0111-0.32596z"/>
    <path d="m209.38 206.61h0.24448v-1.1261c0-0.0815 7e-3 -0.15558 0.0556-0.24448 0.0593-0.11112 0.13335-0.15557 0.20373-0.15557 0.0593 0 0.12594 0.037 0.15558 0.12964 0.0222 0.0704 0.0185 0.15188 0.0185 0.22225v1.1742h0.24818v-1.1187c0-0.0889 7e-3 -0.15928 0.0704-0.2667 0.0296-0.0445 0.0926-0.15187 0.19633-0.15187 0.0556 0 0.10742 0.0333 0.13335 0.0963 0.0333 0.0704 0.0259 0.16669 0.0259 0.24448v1.2002h0.25189v-1.2038c0-0.14076 4e-3 -0.28152-0.0704-0.39635-0.063-0.0963-0.17039-0.13335-0.263-0.13335-0.16298 0-0.31485 0.0963-0.38153 0.24447-0.0259-0.14075-0.14446-0.24447-0.29633-0.24447-0.14076 0-0.2704 0.0889-0.34819 0.20743l4e-3 -0.16668h-0.24818z"/>
   </g>
  </g>
  <g fill="none" stroke="#7893ea">
   <g transform="matrix(-.0031774 0 0 .0032318 159.87 204.68)" stroke-width="82.566">
    <g fill="none" stroke="#7893ea" stroke-width="82.566">
     <path d="m486.41 221.41-364.07-208.5c-52.938-30.318-95.852-5.44-95.852 55.563v415.65c0 61.004 42.914 85.882 95.852 55.563l364.07-208.49c52.938-30.317 52.938-79.473 0-109.79z" fill="none" stroke="#7893ea" stroke-width="82.566"/>
    </g>
   </g>
   <path d="m159.75 205.57h25.83" stroke-linecap="round" stroke-width=".26458"/>
   <g transform="matrix(.0031774 0 0 -.0032318 120.4 176.44)" stroke-width="82.566">
    <g fill="none" stroke="#7893ea" stroke-width="82.566">
     <path d="m486.41 221.41-364.07-208.5c-52.938-30.318-95.852-5.44-95.852 55.563v415.65c0 61.004 42.914 85.882 95.852 55.563l364.07-208.49c52.938-30.317 52.938-79.473 0-109.79z" fill="none" stroke="#7893ea" stroke-width="82.566"/>
    </g>
   </g>
   <path d="m120.53 175.55-43.821 1e-4v21.96" stroke-linecap="round" stroke-width=".26458"/>
  </g>
  <g>
   <rect x="188.48" y="227.81" width="33.205" height="16.007" fill="#2f3744" stroke="#7b8694" stroke-linecap="round" stroke-width=".26458"/>
   <g stroke-width=".26458">
    <g fill="#e8eaec" stroke-linecap="round" aria-label="Wolf">
     <path d="m201.36 229.44 0.37041 2.3262h0.10372l0.40375-1.5261 0.39635 1.5261h0.10372l0.36301-2.3262h-0.21855l-0.21114 1.5669-0.37412-1.3965h-0.0778l-0.37041 1.3928-0.25189-1.5632z"/>
     <path d="m204.86 230.91c0-0.58526-0.37042-0.889-0.75565-0.889-0.42969 0-0.8001 0.37041-0.8001 0.8964 0 0.51488 0.36671 0.87789 0.79269 0.87789 0.40005 0 0.76306-0.32226 0.76306-0.88529zm-0.77417-0.66305c0.24447 0 0.50376 0.21114 0.50376 0.67416 0 0.42598-0.24447 0.64082-0.48895 0.64082-0.2704 0-0.51488-0.25188-0.51488-0.67045 0-0.41487 0.24078-0.64453 0.50007-0.64453z"/>
     <path d="m205.32 229.29v0.21484h0.48154v2.0336h-0.50377v0.21114h1.2705v-0.21114h-0.50006v-2.2484z"/>
     <path d="m208.13 229.27c-0.23707 0-0.45932 0.10002-0.57785 0.29263-0.0889 0.14076-0.0926 0.28152-0.0926 0.43339v0.16669h-0.37042v0.21114h0.37042v1.378h0.25558v-1.378h0.55192v-0.21114h-0.55192v-0.13335c0-0.12224-4e-3 -0.25188 0.0593-0.36301 0.0704-0.12594 0.20373-0.18891 0.34078-0.18891 0.16299 0 0.30004 0.0852 0.37042 0.19261 0.0111 0.0185 0.0111 0.0296 0.0111 0.0445 0 0.0259 0.0185 0.0333 0.0296 0.0333l0.12223-0.24818c-0.12223-0.14446-0.30744-0.22966-0.51858-0.22966z"/>
    </g>
    <path d="m188.68 233.23h32.808" fill="none" stroke="#7b8694" stroke-dashoffset="1.2" stroke-linecap="square"/>
    <g fill="#e8eaec" stroke-linecap="round" aria-label="+ bite(): void">
     <path d="m190.47 240.41v0.53975h-0.56198v0.19685h0.56198v0.59373h0.20002v-0.59373h0.54293v-0.19685h-0.54293v-0.53975z"/>
     <path d="m193.13 239.96v2.1114h0.14922l0.0794-0.1905c0.0952 0.14288 0.254 0.2286 0.42862 0.2286 0.29845 0 0.60643-0.254 0.60643-0.78105 0-0.50482-0.29845-0.73977-0.5842-0.73977-0.18415 0-0.3556 0.0984-0.44768 0.25717v-0.8128c0-0.019 3e-3 -0.0254 0.019-0.0381 6e-3 -3e-3 0.0222-0.0159 0.019-0.0349zm0.60007 0.8255c0.13653 0 0.42545 0.0794 0.42545 0.59372 0 0.44133-0.28575 0.52388-0.42862 0.52388-0.0984 0-0.3175-0.0381-0.3556-0.3175-0.01-0.073-0.01-0.15875-0.01-0.28575 0-0.13018 6e-3 -0.22543 0.0381-0.3048 0.054-0.13018 0.18733-0.20955 0.3302-0.20955z"/>
     <path d="m194.87 240.62v0.18732h0.34925v1.0827h-0.3683v0.18097h0.9398v-0.18097h-0.33972v-1.27zm0.4699-0.62865c-0.0921 0-0.1651 0.073-0.1651 0.16192 0 0.0889 0.073 0.16193 0.1651 0.16193s0.1651-0.073 0.1651-0.16193c0-0.0889-0.073-0.16192-0.1651-0.16192z"/>
     <path d="m196.72 240.23-0.0286 0.39052h-0.34608l-3e-3 0.18733h0.33972c-0.019 0.24765-0.0286 0.4953-0.0286 0.73977 0 0.13018 0 0.27623 0.0857 0.39688 0.0699 0.0952 0.18098 0.1524 0.3302 0.1524 0.17145 0 0.33973-0.073 0.46355-0.16193l-0.0699-0.18097c-0.12382 0.0921-0.23812 0.13335-0.32702 0.13335-0.10795 0-0.21908-0.0603-0.24448-0.23495 0-0.0127-0.01-0.0667-0.01-0.2794 0-0.18733 0.01-0.37783 0.0286-0.56515h0.47625v-0.1905h-0.47307s0.0222-0.26035 0.0381-0.3429c3e-3 -0.0317 0.0286-0.0508 0.0159-0.0857z"/>
     <path d="m198.53 240.59c-0.34607 0-0.66675 0.24765-0.66675 0.7747 0 0.48577 0.30163 0.74295 0.69533 0.74295 0.20955 0 0.39687-0.0762 0.5207-0.22543l-0.127-0.12382c-0.0921 0.10795-0.23178 0.1651-0.37465 0.1651-0.19368 0-0.47625-0.10795-0.49213-0.54293h1.0287c0.01-0.0984 6e-3 -0.19367-0.01-0.27622-0.0667-0.39053-0.33655-0.51435-0.57468-0.51435zm-0.43815 0.61595c0.0476-0.3429 0.2667-0.44133 0.42228-0.44133 0.23495 0 0.40322 0.20638 0.37465 0.44133z"/>
     <path d="m200.54 239.95c-0.48895 0.2159-0.80328 0.71438-0.80328 1.2954 0 0.57785 0.3048 1.1049 0.80645 1.3684l0.10478-0.16828c-0.43498-0.25082-0.68898-0.71755-0.68898-1.2097 0-0.45403 0.21908-0.86043 0.59055-1.0763 6e-3 -6e-3 0.0159-0.0127 0.0286-0.0127 0.01 0 0.019 6e-3 0.0317 6e-3 6e-3 0 0.0159-3e-3 0.0286-6e-3z"/>
     <path d="m201.13 240.15c0.4191 0.22542 0.6858 0.65722 0.6858 1.1303 0 0.47625-0.27305 0.92075-0.70168 1.1462l0.0603 0.19368c0.52705-0.25083 0.86677-0.77788 0.86677-1.3494 0-0.56515-0.33337-1.0795-0.8509-1.3176z"/>
     <path d="m203.41 240.91c0-0.0984-0.0825-0.18098-0.18733-0.18098-0.10477 0-0.18732 0.0825-0.18732 0.18098 0 0.1016 0.0825 0.18097 0.18732 0.18097 0.10478 0 0.18733-0.0794 0.18733-0.18097zm0 1.0128c0-0.0984-0.0825-0.18097-0.18733-0.18097-0.10477 0-0.18732 0.0825-0.18732 0.18097 0 0.1016 0.0825 0.18415 0.18732 0.18415 0.10478 0 0.18733-0.0825 0.18733-0.18415z"/>
     <path d="m205.77 240.62 0.57467 1.4637h0.18098l0.35242-0.82867c0.0857-0.2032 0.16828-0.41275 0.2159-0.635h-0.20637c-0.0381 0.21272-0.1143 0.41275-0.19685 0.60325l-0.23178 0.53975-0.4191-1.0604c-3e-3 -6e-3 -6e-3 -0.0127-6e-3 -0.0191 0-0.019 0.0159-0.0381 0.01-0.0635z"/>
     <path d="m208.69 241.35c0-0.50165-0.3175-0.762-0.6477-0.762-0.3683 0-0.6858 0.3175-0.6858 0.76835 0 0.44133 0.31433 0.75248 0.67945 0.75248 0.3429 0 0.65405-0.27623 0.65405-0.75883zm-0.66357-0.56832c0.20955 0 0.4318 0.18097 0.4318 0.57785 0 0.36512-0.20955 0.54927-0.4191 0.54927-0.23178 0-0.44133-0.2159-0.44133-0.57467 0-0.3556 0.20638-0.55245 0.42863-0.55245z"/>
     <path d="m209.16 240.62v0.18732h0.34925v1.0827h-0.3683v0.18097h0.9398v-0.18097h-0.33972v-1.27zm0.4699-0.62865c-0.0921 0-0.1651 0.073-0.1651 0.16192 0 0.0889 0.073 0.16193 0.1651 0.16193s0.1651-0.073 0.1651-0.16193c0-0.0889-0.073-0.16192-0.1651-0.16192z"/>
     <path d="m211.59 240.83c-0.0699-0.14922-0.22543-0.24765-0.42545-0.24765-0.27623 0-0.61278 0.19685-0.61278 0.7493 0 0.53658 0.29845 0.77153 0.57785 0.77153 0.18415 0 0.3556-0.10478 0.44768-0.2667v0.127c0 0.0349 3e-3 0.0699 0.0127 0.10477h0.2286c-0.0127-0.0413-0.0127-0.0889-0.0127-0.13335l-3e-3 -1.886c0-0.0191 0-0.0254 0.0127-0.0445 6e-3 -0.01 0.0191-0.0254 0.0159-0.0476h-0.2413zm-0.41593-0.0603c0.127 0 0.31433 0.0667 0.37148 0.28257 0.019 0.0667 0.0254 0.14605 0.0254 0.30798 0 0.11112-6e-3 0.1905-0.0318 0.2667-0.054 0.17145-0.20638 0.27305-0.3556 0.27305-0.1651 0-0.40958-0.127-0.40958-0.60325 0-0.41593 0.23178-0.52705 0.40005-0.52705z"/>
    </g>
    <path d="m188.68 238h32.808" fill="none" stroke="#7b8694" stroke-dashoffset="1.2" stroke-linecap="square"/>
    <g fill="#e8eaec" stroke-linecap="round" aria-label="+ rider: Monster">
     <path d="m190.47 234.86v0.53975h-0.56198v0.19685h0.56198v0.59373h0.20002v-0.59373h0.54293v-0.19685h-0.54293v-0.53975z"/>
     <path d="m193.26 235.06v1.451h0.2286v-0.70485c0-0.0889 3e-3 -0.18415 0.1016-0.33973 0.13335-0.20955 0.3048-0.24447 0.40957-0.24447 0.12065 0 0.19685 0.0572 0.23813 0.10795 0.019 0.0254 0.0286 0.0508 0.054 0.073l0.10795-0.21907c-0.0921-0.0952-0.22542-0.15875-0.38735-0.15875-0.21272 0-0.42862 0.10795-0.52387 0.31432l0.01-0.2794z"/>
     <path d="m194.87 235.06v0.18732h0.34925v1.0827h-0.3683v0.18097h0.9398v-0.18097h-0.33972v-1.27zm0.4699-0.62865c-0.0921 0-0.1651 0.073-0.1651 0.16192 0 0.0889 0.073 0.16193 0.1651 0.16193s0.1651-0.073 0.1651-0.16193c0-0.0889-0.073-0.16192-0.1651-0.16192z"/>
     <path d="m197.3 235.27c-0.0699-0.14922-0.22543-0.24765-0.42545-0.24765-0.27623 0-0.61278 0.19685-0.61278 0.7493 0 0.53658 0.29845 0.77153 0.57785 0.77153 0.18415 0 0.3556-0.10478 0.44768-0.2667v0.127c0 0.0349 3e-3 0.0699 0.0127 0.10477h0.2286c-0.0127-0.0413-0.0127-0.0889-0.0127-0.13335l-3e-3 -1.886c0-0.019 0-0.0254 0.0127-0.0445 6e-3 -0.01 0.019-0.0254 0.0159-0.0476h-0.2413zm-0.41593-0.0603c0.127 0 0.31433 0.0667 0.37148 0.28257 0.019 0.0667 0.0254 0.14605 0.0254 0.30798 0 0.11112-6e-3 0.1905-0.0317 0.2667-0.054 0.17145-0.20638 0.27305-0.3556 0.27305-0.1651 0-0.40958-0.127-0.40958-0.60325 0-0.41593 0.23178-0.52705 0.40005-0.52705z"/>
     <path d="m198.53 235.03c-0.34607 0-0.66675 0.24765-0.66675 0.7747 0 0.48577 0.30163 0.74295 0.69533 0.74295 0.20955 0 0.39687-0.0762 0.5207-0.22543l-0.127-0.12382c-0.0921 0.10795-0.23178 0.1651-0.37465 0.1651-0.19368 0-0.47625-0.10795-0.49213-0.54293h1.0287c0.01-0.0984 6e-3 -0.19367-0.01-0.27622-0.0667-0.39053-0.33655-0.51435-0.57468-0.51435zm-0.43815 0.61595c0.0476-0.3429 0.2667-0.44133 0.42228-0.44133 0.23495 0 0.40322 0.20638 0.37465 0.44133z"/>
     <path d="m199.61 235.06v1.451h0.2286v-0.70485c0-0.0889 3e-3 -0.18415 0.1016-0.33973 0.13335-0.20955 0.3048-0.24447 0.40957-0.24447 0.12065 0 0.19685 0.0572 0.23813 0.10795 0.019 0.0254 0.0286 0.0508 0.054 0.073l0.10795-0.21907c-0.0921-0.0952-0.22542-0.15875-0.38735-0.15875-0.21272 0-0.42862 0.10795-0.52387 0.31432l0.01-0.2794z"/>
     <path d="m201.83 235.35c0-0.0984-0.0825-0.18098-0.18733-0.18098-0.10477 0-0.18732 0.0825-0.18732 0.18098 0 0.1016 0.0825 0.18097 0.18732 0.18097 0.10478 0 0.18733-0.0794 0.18733-0.18097zm0 1.0128c0-0.0984-0.0825-0.18097-0.18733-0.18097-0.10477 0-0.18732 0.0826-0.18732 0.18097 0 0.1016 0.0825 0.18415 0.18732 0.18415 0.10478 0 0.18733-0.0825 0.18733-0.18415z"/>
     <path d="m204.19 234.53v1.9812h0.20955v-1.4827l0.40005 0.78423h0.0825l0.42863-0.79693v1.4954h0.20955v-1.9812h-0.1651l-0.49848 0.96837-0.49212-0.96837z"/>
     <path d="m207.11 235.79c0-0.50165-0.3175-0.762-0.6477-0.762-0.3683 0-0.6858 0.3175-0.6858 0.76835 0 0.44133 0.31433 0.75248 0.67945 0.75248 0.3429 0 0.65405-0.27623 0.65405-0.75883zm-0.66357-0.56832c0.20955 0 0.4318 0.18097 0.4318 0.57785 0 0.36512-0.20955 0.54927-0.4191 0.54927-0.23178 0-0.44133-0.2159-0.44133-0.57467 0-0.3556 0.20638-0.55245 0.42863-0.55245z"/>
     <path d="m207.45 236.51h0.23178v-0.83502c0-0.0952 0.0127-0.16828 0.073-0.24765 0.054-0.073 0.19368-0.2032 0.34608-0.2032 0.073 0 0.14605 0.0317 0.19685 0.0921 0.0794 0.0952 0.0794 0.21908 0.0794 0.32068v0.87312h0.22543v-0.87947c0-0.11113 0-0.23178-0.0508-0.34925-0.073-0.16193-0.22225-0.254-0.38735-0.254-0.19685 0-0.37465 0.127-0.4826 0.28892v-0.254h-0.23178z"/>
     <path d="m210.19 235.26c-0.13335-0.14605-0.32702-0.22542-0.54292-0.22542-0.33655 0-0.55563 0.18732-0.55563 0.40322 0 0.254 0.27305 0.34608 0.35243 0.37465 0.12382 0.0445 0.28257 0.0825 0.39052 0.13335 0.12065 0.0572 0.14288 0.13335 0.14288 0.18415 0 0.13653-0.1651 0.2286-0.37148 0.2286-0.24765 0-0.4064-0.14922-0.45402-0.20002-0.01-0.0127-0.01-0.0222-0.01-0.0349 0-3e-3 3e-3 -0.0222-0.0127-0.0286l-0.13335 0.22542c0.17145 0.15875 0.3937 0.23178 0.61278 0.23178 0.39687 0 0.60325-0.23495 0.60325-0.45403 0-0.0984-0.0413-0.23177-0.21273-0.32702-0.16192-0.0921-0.39687-0.12383-0.5334-0.1905-0.11747-0.0571-0.14287-0.127-0.14287-0.1778 0-0.1143 0.14287-0.19685 0.3048-0.19685 0.20955 0 0.34925 0.127 0.40322 0.20002 0.01 0.01 6e-3 0.019 6e-3 0.0286 0 0.019 0.0127 0.0254 0.019 0.0254z"/>
     <path d="m211.01 234.67-0.0286 0.39052h-0.34608l-3e-3 0.18733h0.33972c-0.019 0.24765-0.0286 0.4953-0.0286 0.73977 0 0.13018 0 0.27623 0.0857 0.39688 0.0699 0.0952 0.18098 0.1524 0.3302 0.1524 0.17145 0 0.33973-0.073 0.46355-0.16193l-0.0698-0.18097c-0.12382 0.0921-0.23812 0.13335-0.32702 0.13335-0.10795 0-0.21908-0.0603-0.24448-0.23495 0-0.0127-0.01-0.0667-0.01-0.2794 0-0.18733 0.01-0.37783 0.0286-0.56515h0.47625v-0.1905h-0.47307s0.0222-0.26035 0.0381-0.3429c3e-3 -0.0317 0.0286-0.0508 0.0159-0.0857z"/>
     <path d="m212.82 235.03c-0.34607 0-0.66675 0.24765-0.66675 0.7747 0 0.48577 0.30163 0.74295 0.69533 0.74295 0.20955 0 0.39687-0.0762 0.5207-0.22543l-0.127-0.12382c-0.0921 0.10795-0.23178 0.1651-0.37465 0.1651-0.19368 0-0.47625-0.10795-0.49213-0.54293h1.0287c0.01-0.0984 6e-3 -0.19367-0.01-0.27622-0.0667-0.39053-0.33655-0.51435-0.57468-0.51435zm-0.43815 0.61595c0.0476-0.3429 0.2667-0.44133 0.42228-0.44133 0.23495 0 0.40322 0.20638 0.37465 0.44133z"/>
     <path d="m213.9 235.06v1.451h0.2286v-0.70485c0-0.0889 3e-3 -0.18415 0.1016-0.33973 0.13335-0.20955 0.3048-0.24447 0.40957-0.24447 0.12065 0 0.19685 0.0572 0.23813 0.10795 0.019 0.0254 0.0286 0.0508 0.054 0.073l0.10795-0.21907c-0.0921-0.0952-0.22542-0.15875-0.38735-0.15875-0.21272 0-0.42862 0.10795-0.52387 0.31432l0.01-0.2794z"/>
    </g>
   </g>
  </g>
 </g>
</svg>
